<?xml version="1.0" encoding="utf-8"?>
<svg xmlns="http://www.w3.org/2000/svg" xmlns:xlink="http://www.w3.org/1999/xlink" width="600" height="300" viewBox="0 0 2400 1200">
<defs>
  <clipPath id="clip740">
    <rect x="0" y="0" width="2400" height="1200"/>
  </clipPath>
</defs>
<path clip-path="url(#clip740)" d="M0 1200 L2400 1200 L2400 0 L0 0  Z" fill="#ffffff" fill-rule="evenodd" fill-opacity="1"/>
<defs>
  <clipPath id="clip741">
    <rect x="480" y="0" width="1681" height="1200"/>
  </clipPath>
</defs>
<path clip-path="url(#clip740)" d="M216.436 1099.09 L1153.8 1099.09 L1153.8 92.1521 L216.436 92.1521  Z" fill="#ffffff" fill-rule="evenodd" fill-opacity="1"/>
<defs>
  <clipPath id="clip742">
    <rect x="216" y="92" width="938" height="1008"/>
  </clipPath>
</defs>
<polyline clip-path="url(#clip742)" style="stroke:#000000; stroke-linecap:round; stroke-linejoin:round; stroke-width:2; stroke-opacity:0.1; fill:none" points="411.404,1099.09 411.404,92.1521 "/>
<polyline clip-path="url(#clip742)" style="stroke:#000000; stroke-linecap:round; stroke-linejoin:round; stroke-width:2; stroke-opacity:0.1; fill:none" points="621.952,1099.09 621.952,92.1521 "/>
<polyline clip-path="url(#clip742)" style="stroke:#000000; stroke-linecap:round; stroke-linejoin:round; stroke-width:2; stroke-opacity:0.1; fill:none" points="832.501,1099.09 832.501,92.1521 "/>
<polyline clip-path="url(#clip742)" style="stroke:#000000; stroke-linecap:round; stroke-linejoin:round; stroke-width:2; stroke-opacity:0.1; fill:none" points="1043.05,1099.09 1043.05,92.1521 "/>
<polyline clip-path="url(#clip742)" style="stroke:#000000; stroke-linecap:round; stroke-linejoin:round; stroke-width:2; stroke-opacity:0.1; fill:none" points="216.436,1081.52 1153.8,1081.52 "/>
<polyline clip-path="url(#clip742)" style="stroke:#000000; stroke-linecap:round; stroke-linejoin:round; stroke-width:2; stroke-opacity:0.1; fill:none" points="216.436,841.303 1153.8,841.303 "/>
<polyline clip-path="url(#clip742)" style="stroke:#000000; stroke-linecap:round; stroke-linejoin:round; stroke-width:2; stroke-opacity:0.1; fill:none" points="216.436,601.085 1153.8,601.085 "/>
<polyline clip-path="url(#clip742)" style="stroke:#000000; stroke-linecap:round; stroke-linejoin:round; stroke-width:2; stroke-opacity:0.1; fill:none" points="216.436,360.868 1153.8,360.868 "/>
<polyline clip-path="url(#clip742)" style="stroke:#000000; stroke-linecap:round; stroke-linejoin:round; stroke-width:2; stroke-opacity:0.1; fill:none" points="216.436,120.65 1153.8,120.65 "/>
<polyline clip-path="url(#clip740)" style="stroke:#000000; stroke-linecap:round; stroke-linejoin:round; stroke-width:4; stroke-opacity:1; fill:none" points="216.436,1099.09 1153.8,1099.09 "/>
<polyline clip-path="url(#clip740)" style="stroke:#000000; stroke-linecap:round; stroke-linejoin:round; stroke-width:4; stroke-opacity:1; fill:none" points="411.404,1099.09 411.404,1080.19 "/>
<polyline clip-path="url(#clip740)" style="stroke:#000000; stroke-linecap:round; stroke-linejoin:round; stroke-width:4; stroke-opacity:1; fill:none" points="621.952,1099.09 621.952,1080.19 "/>
<polyline clip-path="url(#clip740)" style="stroke:#000000; stroke-linecap:round; stroke-linejoin:round; stroke-width:4; stroke-opacity:1; fill:none" points="832.501,1099.09 832.501,1080.19 "/>
<polyline clip-path="url(#clip740)" style="stroke:#000000; stroke-linecap:round; stroke-linejoin:round; stroke-width:4; stroke-opacity:1; fill:none" points="1043.05,1099.09 1043.05,1080.19 "/>
<path clip-path="url(#clip740)" d="M401.682 1126.93 L420.038 1126.93 L420.038 1130.86 L405.964 1130.86 L405.964 1139.34 Q406.982 1138.99 408.001 1138.83 Q409.019 1138.64 410.038 1138.64 Q415.825 1138.64 419.205 1141.81 Q422.584 1144.98 422.584 1150.4 Q422.584 1155.98 419.112 1159.08 Q415.64 1162.16 409.32 1162.16 Q407.145 1162.16 404.876 1161.79 Q402.631 1161.42 400.223 1160.68 L400.223 1155.98 Q402.307 1157.11 404.529 1157.67 Q406.751 1158.22 409.228 1158.22 Q413.232 1158.22 415.57 1156.12 Q417.908 1154.01 417.908 1150.4 Q417.908 1146.79 415.57 1144.68 Q413.232 1142.58 409.228 1142.58 Q407.353 1142.58 405.478 1142.99 Q403.626 1143.41 401.682 1144.29 L401.682 1126.93 Z" fill="#000000" fill-rule="nonzero" fill-opacity="1" /><path clip-path="url(#clip740)" d="M596.64 1157.55 L604.279 1157.55 L604.279 1131.19 L595.969 1132.85 L595.969 1128.59 L604.232 1126.93 L608.908 1126.93 L608.908 1157.55 L616.547 1157.55 L616.547 1161.49 L596.64 1161.49 L596.64 1157.55 Z" fill="#000000" fill-rule="nonzero" fill-opacity="1" /><path clip-path="url(#clip740)" d="M635.991 1130.01 Q632.38 1130.01 630.552 1133.57 Q628.746 1137.11 628.746 1144.24 Q628.746 1151.35 630.552 1154.91 Q632.38 1158.46 635.991 1158.46 Q639.626 1158.46 641.431 1154.91 Q643.26 1151.35 643.26 1144.24 Q643.26 1137.11 641.431 1133.57 Q639.626 1130.01 635.991 1130.01 M635.991 1126.3 Q641.802 1126.3 644.857 1130.91 Q647.936 1135.49 647.936 1144.24 Q647.936 1152.97 644.857 1157.58 Q641.802 1162.16 635.991 1162.16 Q630.181 1162.16 627.103 1157.58 Q624.047 1152.97 624.047 1144.24 Q624.047 1135.49 627.103 1130.91 Q630.181 1126.3 635.991 1126.3 Z" fill="#000000" fill-rule="nonzero" fill-opacity="1" /><path clip-path="url(#clip740)" d="M807.686 1157.55 L815.325 1157.55 L815.325 1131.19 L807.015 1132.85 L807.015 1128.59 L815.279 1126.93 L819.954 1126.93 L819.954 1157.55 L827.593 1157.55 L827.593 1161.49 L807.686 1161.49 L807.686 1157.55 Z" fill="#000000" fill-rule="nonzero" fill-opacity="1" /><path clip-path="url(#clip740)" d="M837.084 1126.93 L855.44 1126.93 L855.44 1130.86 L841.366 1130.86 L841.366 1139.34 Q842.385 1138.99 843.403 1138.83 Q844.422 1138.64 845.44 1138.64 Q851.227 1138.64 854.607 1141.81 Q857.987 1144.98 857.987 1150.4 Q857.987 1155.98 854.514 1159.08 Q851.042 1162.16 844.723 1162.16 Q842.547 1162.16 840.278 1161.79 Q838.033 1161.42 835.626 1160.68 L835.626 1155.98 Q837.709 1157.11 839.931 1157.67 Q842.153 1158.22 844.63 1158.22 Q848.635 1158.22 850.973 1156.12 Q853.311 1154.01 853.311 1150.4 Q853.311 1146.79 850.973 1144.68 Q848.635 1142.58 844.63 1142.58 Q842.755 1142.58 840.88 1142.99 Q839.028 1143.41 837.084 1144.29 L837.084 1126.93 Z" fill="#000000" fill-rule="nonzero" fill-opacity="1" /><path clip-path="url(#clip740)" d="M1021.82 1157.55 L1038.14 1157.55 L1038.14 1161.49 L1016.2 1161.49 L1016.2 1157.55 Q1018.86 1154.8 1023.44 1150.17 Q1028.05 1145.52 1029.23 1144.17 Q1031.48 1141.65 1032.35 1139.91 Q1033.26 1138.15 1033.26 1136.46 Q1033.26 1133.71 1031.31 1131.97 Q1029.39 1130.24 1026.29 1130.24 Q1024.09 1130.24 1021.64 1131 Q1019.21 1131.77 1016.43 1133.32 L1016.43 1128.59 Q1019.25 1127.46 1021.71 1126.88 Q1024.16 1126.3 1026.2 1126.3 Q1031.57 1126.3 1034.76 1128.99 Q1037.96 1131.67 1037.96 1136.16 Q1037.96 1138.29 1037.15 1140.21 Q1036.36 1142.11 1034.25 1144.71 Q1033.67 1145.38 1030.57 1148.59 Q1027.47 1151.79 1021.82 1157.55 Z" fill="#000000" fill-rule="nonzero" fill-opacity="1" /><path clip-path="url(#clip740)" d="M1057.96 1130.01 Q1054.35 1130.01 1052.52 1133.57 Q1050.71 1137.11 1050.71 1144.24 Q1050.71 1151.35 1052.52 1154.91 Q1054.35 1158.46 1057.96 1158.46 Q1061.59 1158.46 1063.4 1154.91 Q1065.22 1151.35 1065.22 1144.24 Q1065.22 1137.11 1063.4 1133.57 Q1061.59 1130.01 1057.96 1130.01 M1057.96 1126.3 Q1063.77 1126.3 1066.82 1130.91 Q1069.9 1135.49 1069.9 1144.24 Q1069.9 1152.97 1066.82 1157.58 Q1063.77 1162.16 1057.96 1162.16 Q1052.15 1162.16 1049.07 1157.58 Q1046.01 1152.97 1046.01 1144.24 Q1046.01 1135.49 1049.07 1130.91 Q1052.15 1126.3 1057.96 1126.3 Z" fill="#000000" fill-rule="nonzero" fill-opacity="1" /><polyline clip-path="url(#clip740)" style="stroke:#000000; stroke-linecap:round; stroke-linejoin:round; stroke-width:4; stroke-opacity:1; fill:none" points="216.436,1099.09 216.436,92.1521 "/>
<polyline clip-path="url(#clip740)" style="stroke:#000000; stroke-linecap:round; stroke-linejoin:round; stroke-width:4; stroke-opacity:1; fill:none" points="216.436,1081.52 235.334,1081.52 "/>
<polyline clip-path="url(#clip740)" style="stroke:#000000; stroke-linecap:round; stroke-linejoin:round; stroke-width:4; stroke-opacity:1; fill:none" points="216.436,841.303 235.334,841.303 "/>
<polyline clip-path="url(#clip740)" style="stroke:#000000; stroke-linecap:round; stroke-linejoin:round; stroke-width:4; stroke-opacity:1; fill:none" points="216.436,601.085 235.334,601.085 "/>
<polyline clip-path="url(#clip740)" style="stroke:#000000; stroke-linecap:round; stroke-linejoin:round; stroke-width:4; stroke-opacity:1; fill:none" points="216.436,360.868 235.334,360.868 "/>
<polyline clip-path="url(#clip740)" style="stroke:#000000; stroke-linecap:round; stroke-linejoin:round; stroke-width:4; stroke-opacity:1; fill:none" points="216.436,120.65 235.334,120.65 "/>
<path clip-path="url(#clip740)" d="M62.9365 1067.32 Q59.3254 1067.32 57.4967 1070.88 Q55.6912 1074.43 55.6912 1081.56 Q55.6912 1088.66 57.4967 1092.23 Q59.3254 1095.77 62.9365 1095.77 Q66.5707 1095.77 68.3763 1092.23 Q70.205 1088.66 70.205 1081.56 Q70.205 1074.43 68.3763 1070.88 Q66.5707 1067.32 62.9365 1067.32 M62.9365 1063.62 Q68.7467 1063.62 71.8022 1068.22 Q74.8809 1072.81 74.8809 1081.56 Q74.8809 1090.28 71.8022 1094.89 Q68.7467 1099.47 62.9365 1099.47 Q57.1264 1099.47 54.0477 1094.89 Q50.9921 1090.28 50.9921 1081.56 Q50.9921 1072.81 54.0477 1068.22 Q57.1264 1063.62 62.9365 1063.62 Z" fill="#000000" fill-rule="nonzero" fill-opacity="1" /><path clip-path="url(#clip740)" d="M83.0984 1092.92 L87.9827 1092.92 L87.9827 1098.8 L83.0984 1098.8 L83.0984 1092.92 Z" fill="#000000" fill-rule="nonzero" fill-opacity="1" /><path clip-path="url(#clip740)" d="M108.168 1067.32 Q104.557 1067.32 102.728 1070.88 Q100.922 1074.43 100.922 1081.56 Q100.922 1088.66 102.728 1092.23 Q104.557 1095.77 108.168 1095.77 Q111.802 1095.77 113.608 1092.23 Q115.436 1088.66 115.436 1081.56 Q115.436 1074.43 113.608 1070.88 Q111.802 1067.32 108.168 1067.32 M108.168 1063.62 Q113.978 1063.62 117.033 1068.22 Q120.112 1072.81 120.112 1081.56 Q120.112 1090.28 117.033 1094.89 Q113.978 1099.47 108.168 1099.47 Q102.358 1099.47 99.2789 1094.89 Q96.2234 1090.28 96.2234 1081.56 Q96.2234 1072.81 99.2789 1068.22 Q102.358 1063.62 108.168 1063.62 Z" fill="#000000" fill-rule="nonzero" fill-opacity="1" /><path clip-path="url(#clip740)" d="M138.33 1067.32 Q134.719 1067.32 132.89 1070.88 Q131.084 1074.43 131.084 1081.56 Q131.084 1088.66 132.89 1092.23 Q134.719 1095.77 138.33 1095.77 Q141.964 1095.77 143.769 1092.23 Q145.598 1088.66 145.598 1081.56 Q145.598 1074.43 143.769 1070.88 Q141.964 1067.32 138.33 1067.32 M138.33 1063.62 Q144.14 1063.62 147.195 1068.22 Q150.274 1072.81 150.274 1081.56 Q150.274 1090.28 147.195 1094.89 Q144.14 1099.47 138.33 1099.47 Q132.519 1099.47 129.441 1094.89 Q126.385 1090.28 126.385 1081.56 Q126.385 1072.81 129.441 1068.22 Q132.519 1063.62 138.33 1063.62 Z" fill="#000000" fill-rule="nonzero" fill-opacity="1" /><path clip-path="url(#clip740)" d="M168.491 1067.32 Q164.88 1067.32 163.052 1070.88 Q161.246 1074.43 161.246 1081.56 Q161.246 1088.66 163.052 1092.23 Q164.88 1095.77 168.491 1095.77 Q172.126 1095.77 173.931 1092.23 Q175.76 1088.66 175.76 1081.56 Q175.76 1074.43 173.931 1070.88 Q172.126 1067.32 168.491 1067.32 M168.491 1063.62 Q174.302 1063.62 177.357 1068.22 Q180.436 1072.81 180.436 1081.56 Q180.436 1090.28 177.357 1094.89 Q174.302 1099.47 168.491 1099.47 Q162.681 1099.47 159.603 1094.89 Q156.547 1090.28 156.547 1081.56 Q156.547 1072.81 159.603 1068.22 Q162.681 1063.62 168.491 1063.62 Z" fill="#000000" fill-rule="nonzero" fill-opacity="1" /><path clip-path="url(#clip740)" d="M63.9319 827.102 Q60.3208 827.102 58.4921 830.666 Q56.6865 834.208 56.6865 841.338 Q56.6865 848.444 58.4921 852.009 Q60.3208 855.551 63.9319 855.551 Q67.5661 855.551 69.3717 852.009 Q71.2004 848.444 71.2004 841.338 Q71.2004 834.208 69.3717 830.666 Q67.5661 827.102 63.9319 827.102 M63.9319 823.398 Q69.742 823.398 72.7976 828.004 Q75.8763 832.588 75.8763 841.338 Q75.8763 850.064 72.7976 854.671 Q69.742 859.254 63.9319 859.254 Q58.1217 859.254 55.043 854.671 Q51.9875 850.064 51.9875 841.338 Q51.9875 832.588 55.043 828.004 Q58.1217 823.398 63.9319 823.398 Z" fill="#000000" fill-rule="nonzero" fill-opacity="1" /><path clip-path="url(#clip740)" d="M84.0938 852.703 L88.978 852.703 L88.978 858.583 L84.0938 858.583 L84.0938 852.703 Z" fill="#000000" fill-rule="nonzero" fill-opacity="1" /><path clip-path="url(#clip740)" d="M109.163 827.102 Q105.552 827.102 103.723 830.666 Q101.918 834.208 101.918 841.338 Q101.918 848.444 103.723 852.009 Q105.552 855.551 109.163 855.551 Q112.797 855.551 114.603 852.009 Q116.432 848.444 116.432 841.338 Q116.432 834.208 114.603 830.666 Q112.797 827.102 109.163 827.102 M109.163 823.398 Q114.973 823.398 118.029 828.004 Q121.107 832.588 121.107 841.338 Q121.107 850.064 118.029 854.671 Q114.973 859.254 109.163 859.254 Q103.353 859.254 100.274 854.671 Q97.2187 850.064 97.2187 841.338 Q97.2187 832.588 100.274 828.004 Q103.353 823.398 109.163 823.398 Z" fill="#000000" fill-rule="nonzero" fill-opacity="1" /><path clip-path="url(#clip740)" d="M139.325 827.102 Q135.714 827.102 133.885 830.666 Q132.08 834.208 132.08 841.338 Q132.08 848.444 133.885 852.009 Q135.714 855.551 139.325 855.551 Q142.959 855.551 144.765 852.009 Q146.593 848.444 146.593 841.338 Q146.593 834.208 144.765 830.666 Q142.959 827.102 139.325 827.102 M139.325 823.398 Q145.135 823.398 148.191 828.004 Q151.269 832.588 151.269 841.338 Q151.269 850.064 148.191 854.671 Q145.135 859.254 139.325 859.254 Q133.515 859.254 130.436 854.671 Q127.381 850.064 127.381 841.338 Q127.381 832.588 130.436 828.004 Q133.515 823.398 139.325 823.398 Z" fill="#000000" fill-rule="nonzero" fill-opacity="1" /><path clip-path="url(#clip740)" d="M159.533 824.023 L177.89 824.023 L177.89 827.958 L163.816 827.958 L163.816 836.43 Q164.834 836.083 165.853 835.921 Q166.871 835.736 167.89 835.736 Q173.677 835.736 177.056 838.907 Q180.436 842.078 180.436 847.495 Q180.436 853.074 176.964 856.176 Q173.491 859.254 167.172 859.254 Q164.996 859.254 162.728 858.884 Q160.482 858.514 158.075 857.773 L158.075 853.074 Q160.158 854.208 162.38 854.764 Q164.603 855.319 167.079 855.319 Q171.084 855.319 173.422 853.213 Q175.76 851.106 175.76 847.495 Q175.76 843.884 173.422 841.777 Q171.084 839.671 167.079 839.671 Q165.204 839.671 163.329 840.088 Q161.478 840.504 159.533 841.384 L159.533 824.023 Z" fill="#000000" fill-rule="nonzero" fill-opacity="1" /><path clip-path="url(#clip740)" d="M62.9365 586.884 Q59.3254 586.884 57.4967 590.449 Q55.6912 593.991 55.6912 601.12 Q55.6912 608.227 57.4967 611.791 Q59.3254 615.333 62.9365 615.333 Q66.5707 615.333 68.3763 611.791 Q70.205 608.227 70.205 601.12 Q70.205 593.991 68.3763 590.449 Q66.5707 586.884 62.9365 586.884 M62.9365 583.18 Q68.7467 583.18 71.8022 587.787 Q74.8809 592.37 74.8809 601.12 Q74.8809 609.847 71.8022 614.453 Q68.7467 619.037 62.9365 619.037 Q57.1264 619.037 54.0477 614.453 Q50.9921 609.847 50.9921 601.12 Q50.9921 592.37 54.0477 587.787 Q57.1264 583.18 62.9365 583.18 Z" fill="#000000" fill-rule="nonzero" fill-opacity="1" /><path clip-path="url(#clip740)" d="M83.0984 612.486 L87.9827 612.486 L87.9827 618.365 L83.0984 618.365 L83.0984 612.486 Z" fill="#000000" fill-rule="nonzero" fill-opacity="1" /><path clip-path="url(#clip740)" d="M108.168 586.884 Q104.557 586.884 102.728 590.449 Q100.922 593.991 100.922 601.12 Q100.922 608.227 102.728 611.791 Q104.557 615.333 108.168 615.333 Q111.802 615.333 113.608 611.791 Q115.436 608.227 115.436 601.12 Q115.436 593.991 113.608 590.449 Q111.802 586.884 108.168 586.884 M108.168 583.18 Q113.978 583.18 117.033 587.787 Q120.112 592.37 120.112 601.12 Q120.112 609.847 117.033 614.453 Q113.978 619.037 108.168 619.037 Q102.358 619.037 99.2789 614.453 Q96.2234 609.847 96.2234 601.12 Q96.2234 592.37 99.2789 587.787 Q102.358 583.18 108.168 583.18 Z" fill="#000000" fill-rule="nonzero" fill-opacity="1" /><path clip-path="url(#clip740)" d="M129.14 614.43 L136.779 614.43 L136.779 588.065 L128.469 589.731 L128.469 585.472 L136.732 583.805 L141.408 583.805 L141.408 614.43 L149.047 614.43 L149.047 618.365 L129.14 618.365 L129.14 614.43 Z" fill="#000000" fill-rule="nonzero" fill-opacity="1" /><path clip-path="url(#clip740)" d="M168.491 586.884 Q164.88 586.884 163.052 590.449 Q161.246 593.991 161.246 601.12 Q161.246 608.227 163.052 611.791 Q164.88 615.333 168.491 615.333 Q172.126 615.333 173.931 611.791 Q175.76 608.227 175.76 601.12 Q175.76 593.991 173.931 590.449 Q172.126 586.884 168.491 586.884 M168.491 583.18 Q174.302 583.18 177.357 587.787 Q180.436 592.37 180.436 601.12 Q180.436 609.847 177.357 614.453 Q174.302 619.037 168.491 619.037 Q162.681 619.037 159.603 614.453 Q156.547 609.847 156.547 601.12 Q156.547 592.37 159.603 587.787 Q162.681 583.18 168.491 583.18 Z" fill="#000000" fill-rule="nonzero" fill-opacity="1" /><path clip-path="url(#clip740)" d="M63.9319 346.667 Q60.3208 346.667 58.4921 350.231 Q56.6865 353.773 56.6865 360.903 Q56.6865 368.009 58.4921 371.574 Q60.3208 375.115 63.9319 375.115 Q67.5661 375.115 69.3717 371.574 Q71.2004 368.009 71.2004 360.903 Q71.2004 353.773 69.3717 350.231 Q67.5661 346.667 63.9319 346.667 M63.9319 342.963 Q69.742 342.963 72.7976 347.569 Q75.8763 352.153 75.8763 360.903 Q75.8763 369.629 72.7976 374.236 Q69.742 378.819 63.9319 378.819 Q58.1217 378.819 55.043 374.236 Q51.9875 369.629 51.9875 360.903 Q51.9875 352.153 55.043 347.569 Q58.1217 342.963 63.9319 342.963 Z" fill="#000000" fill-rule="nonzero" fill-opacity="1" /><path clip-path="url(#clip740)" d="M84.0938 372.268 L88.978 372.268 L88.978 378.148 L84.0938 378.148 L84.0938 372.268 Z" fill="#000000" fill-rule="nonzero" fill-opacity="1" /><path clip-path="url(#clip740)" d="M109.163 346.667 Q105.552 346.667 103.723 350.231 Q101.918 353.773 101.918 360.903 Q101.918 368.009 103.723 371.574 Q105.552 375.115 109.163 375.115 Q112.797 375.115 114.603 371.574 Q116.432 368.009 116.432 360.903 Q116.432 353.773 114.603 350.231 Q112.797 346.667 109.163 346.667 M109.163 342.963 Q114.973 342.963 118.029 347.569 Q121.107 352.153 121.107 360.903 Q121.107 369.629 118.029 374.236 Q114.973 378.819 109.163 378.819 Q103.353 378.819 100.274 374.236 Q97.2187 369.629 97.2187 360.903 Q97.2187 352.153 100.274 347.569 Q103.353 342.963 109.163 342.963 Z" fill="#000000" fill-rule="nonzero" fill-opacity="1" /><path clip-path="url(#clip740)" d="M130.135 374.213 L137.774 374.213 L137.774 347.847 L129.464 349.514 L129.464 345.255 L137.728 343.588 L142.404 343.588 L142.404 374.213 L150.043 374.213 L150.043 378.148 L130.135 378.148 L130.135 374.213 Z" fill="#000000" fill-rule="nonzero" fill-opacity="1" /><path clip-path="url(#clip740)" d="M159.533 343.588 L177.89 343.588 L177.89 347.523 L163.816 347.523 L163.816 355.995 Q164.834 355.648 165.853 355.486 Q166.871 355.301 167.89 355.301 Q173.677 355.301 177.056 358.472 Q180.436 361.643 180.436 367.06 Q180.436 372.639 176.964 375.74 Q173.491 378.819 167.172 378.819 Q164.996 378.819 162.728 378.449 Q160.482 378.078 158.075 377.338 L158.075 372.639 Q160.158 373.773 162.38 374.328 Q164.603 374.884 167.079 374.884 Q171.084 374.884 173.422 372.778 Q175.76 370.671 175.76 367.06 Q175.76 363.449 173.422 361.342 Q171.084 359.236 167.079 359.236 Q165.204 359.236 163.329 359.653 Q161.478 360.069 159.533 360.949 L159.533 343.588 Z" fill="#000000" fill-rule="nonzero" fill-opacity="1" /><path clip-path="url(#clip740)" d="M62.9365 106.449 Q59.3254 106.449 57.4967 110.014 Q55.6912 113.555 55.6912 120.685 Q55.6912 127.791 57.4967 131.356 Q59.3254 134.898 62.9365 134.898 Q66.5707 134.898 68.3763 131.356 Q70.205 127.791 70.205 120.685 Q70.205 113.555 68.3763 110.014 Q66.5707 106.449 62.9365 106.449 M62.9365 102.745 Q68.7467 102.745 71.8022 107.352 Q74.8809 111.935 74.8809 120.685 Q74.8809 129.412 71.8022 134.018 Q68.7467 138.602 62.9365 138.602 Q57.1264 138.602 54.0477 134.018 Q50.9921 129.412 50.9921 120.685 Q50.9921 111.935 54.0477 107.352 Q57.1264 102.745 62.9365 102.745 Z" fill="#000000" fill-rule="nonzero" fill-opacity="1" /><path clip-path="url(#clip740)" d="M83.0984 132.051 L87.9827 132.051 L87.9827 137.93 L83.0984 137.93 L83.0984 132.051 Z" fill="#000000" fill-rule="nonzero" fill-opacity="1" /><path clip-path="url(#clip740)" d="M108.168 106.449 Q104.557 106.449 102.728 110.014 Q100.922 113.555 100.922 120.685 Q100.922 127.791 102.728 131.356 Q104.557 134.898 108.168 134.898 Q111.802 134.898 113.608 131.356 Q115.436 127.791 115.436 120.685 Q115.436 113.555 113.608 110.014 Q111.802 106.449 108.168 106.449 M108.168 102.745 Q113.978 102.745 117.033 107.352 Q120.112 111.935 120.112 120.685 Q120.112 129.412 117.033 134.018 Q113.978 138.602 108.168 138.602 Q102.358 138.602 99.2789 134.018 Q96.2234 129.412 96.2234 120.685 Q96.2234 111.935 99.2789 107.352 Q102.358 102.745 108.168 102.745 Z" fill="#000000" fill-rule="nonzero" fill-opacity="1" /><path clip-path="url(#clip740)" d="M132.357 133.995 L148.677 133.995 L148.677 137.93 L126.732 137.93 L126.732 133.995 Q129.394 131.241 133.978 126.611 Q138.584 121.958 139.765 120.616 Q142.01 118.092 142.89 116.356 Q143.793 114.597 143.793 112.907 Q143.793 110.153 141.848 108.417 Q139.927 106.68 136.825 106.68 Q134.626 106.68 132.172 107.444 Q129.742 108.208 126.964 109.759 L126.964 105.037 Q129.788 103.903 132.242 103.324 Q134.695 102.745 136.732 102.745 Q142.103 102.745 145.297 105.43 Q148.492 108.116 148.492 112.606 Q148.492 114.736 147.681 116.657 Q146.894 118.555 144.788 121.148 Q144.209 121.819 141.107 125.037 Q138.006 128.231 132.357 133.995 Z" fill="#000000" fill-rule="nonzero" fill-opacity="1" /><path clip-path="url(#clip740)" d="M168.491 106.449 Q164.88 106.449 163.052 110.014 Q161.246 113.555 161.246 120.685 Q161.246 127.791 163.052 131.356 Q164.88 134.898 168.491 134.898 Q172.126 134.898 173.931 131.356 Q175.76 127.791 175.76 120.685 Q175.76 113.555 173.931 110.014 Q172.126 106.449 168.491 106.449 M168.491 102.745 Q174.302 102.745 177.357 107.352 Q180.436 111.935 180.436 120.685 Q180.436 129.412 177.357 134.018 Q174.302 138.602 168.491 138.602 Q162.681 138.602 159.603 134.018 Q156.547 129.412 156.547 120.685 Q156.547 111.935 159.603 107.352 Q162.681 102.745 168.491 102.745 Z" fill="#000000" fill-rule="nonzero" fill-opacity="1" /><path clip-path="url(#clip740)" d="M617.734 30.8748 L617.734 33.2186 L595.703 33.2186 Q596.016 38.1665 598.672 40.7706 Q601.354 43.3487 606.12 43.3487 Q608.88 43.3487 611.458 42.6716 Q614.062 41.9946 616.614 40.6404 L616.614 45.1716 Q614.036 46.2654 611.328 46.8383 Q608.62 47.4112 605.833 47.4112 Q598.854 47.4112 594.766 43.3487 Q590.703 39.2862 590.703 32.3592 Q590.703 25.1978 594.557 21.0051 Q598.437 16.7864 605 16.7864 Q610.885 16.7864 614.297 20.5884 Q617.734 24.3645 617.734 30.8748 M612.943 29.4686 Q612.891 25.5363 610.729 23.1926 Q608.594 20.8488 605.052 20.8488 Q601.042 20.8488 598.62 23.1145 Q596.224 25.3801 595.859 29.4946 L612.943 29.4686 Z" fill="#000000" fill-rule="nonzero" fill-opacity="1" /><path clip-path="url(#clip740)" d="M625.104 35.1456 L625.104 17.4895 L629.896 17.4895 L629.896 34.9634 Q629.896 39.104 631.51 41.1873 Q633.125 43.2446 636.354 43.2446 Q640.234 43.2446 642.474 40.7706 Q644.739 38.2967 644.739 34.0259 L644.739 17.4895 L649.531 17.4895 L649.531 46.656 L644.739 46.656 L644.739 42.1769 Q642.995 44.8331 640.677 46.1352 Q638.385 47.4112 635.338 47.4112 Q630.312 47.4112 627.708 44.2862 Q625.104 41.1612 625.104 35.1456 M637.161 16.7864 L637.161 16.7864 Z" fill="#000000" fill-rule="nonzero" fill-opacity="1" /><path clip-path="url(#clip740)" d="M676.302 21.9686 Q675.494 21.4999 674.531 21.2916 Q673.593 21.0572 672.448 21.0572 Q668.385 21.0572 666.198 23.7134 Q664.036 26.3436 664.036 31.2915 L664.036 46.656 L659.218 46.656 L659.218 17.4895 L664.036 17.4895 L664.036 22.0207 Q665.547 19.3645 667.968 18.0884 Q670.39 16.7864 673.854 16.7864 Q674.349 16.7864 674.948 16.8645 Q675.546 16.9166 676.276 17.0468 L676.302 21.9686 Z" fill="#000000" fill-rule="nonzero" fill-opacity="1" /><path clip-path="url(#clip740)" d="M681.328 17.4895 L686.119 17.4895 L686.119 46.656 L681.328 46.656 L681.328 17.4895 M681.328 6.13538 L686.119 6.13538 L686.119 12.2031 L681.328 12.2031 L681.328 6.13538 Z" fill="#000000" fill-rule="nonzero" fill-opacity="1" /><path clip-path="url(#clip740)" d="M717.083 32.0988 Q717.083 26.8124 714.895 23.8176 Q712.734 20.7968 708.932 20.7968 Q705.13 20.7968 702.942 23.8176 Q700.781 26.8124 700.781 32.0988 Q700.781 37.3852 702.942 40.406 Q705.13 43.4008 708.932 43.4008 Q712.734 43.4008 714.895 40.406 Q717.083 37.3852 717.083 32.0988 M700.781 21.9165 Q702.291 19.3124 704.583 18.0624 Q706.9 16.7864 710.104 16.7864 Q715.416 16.7864 718.723 21.0051 Q722.057 25.2238 722.057 32.0988 Q722.057 38.9737 718.723 43.1925 Q715.416 47.4112 710.104 47.4112 Q706.9 47.4112 704.583 46.1612 Q702.291 44.8852 700.781 42.281 L700.781 46.656 L695.963 46.656 L695.963 6.13538 L700.781 6.13538 L700.781 21.9165 Z" fill="#000000" fill-rule="nonzero" fill-opacity="1" /><path clip-path="url(#clip740)" d="M741.301 20.8488 Q737.447 20.8488 735.208 23.8697 Q732.968 26.8644 732.968 32.0988 Q732.968 37.3331 735.182 40.354 Q737.421 43.3487 741.301 43.3487 Q745.129 43.3487 747.369 40.3279 Q749.609 37.3071 749.609 32.0988 Q749.609 26.9165 747.369 23.8957 Q745.129 20.8488 741.301 20.8488 M741.301 16.7864 Q747.551 16.7864 751.119 20.8488 Q754.687 24.9113 754.687 32.0988 Q754.687 39.2602 751.119 43.3487 Q747.551 47.4112 741.301 47.4112 Q735.025 47.4112 731.458 43.3487 Q727.916 39.2602 727.916 32.0988 Q727.916 24.9113 731.458 20.8488 Q735.025 16.7864 741.301 16.7864 Z" fill="#000000" fill-rule="nonzero" fill-opacity="1" /><path clip-path="url(#clip740)" d="M779.53 21.9686 Q778.723 21.4999 777.759 21.2916 Q776.822 21.0572 775.676 21.0572 Q771.614 21.0572 769.426 23.7134 Q767.265 26.3436 767.265 31.2915 L767.265 46.656 L762.447 46.656 L762.447 17.4895 L767.265 17.4895 L767.265 22.0207 Q768.775 19.3645 771.197 18.0884 Q773.619 16.7864 777.082 16.7864 Q777.577 16.7864 778.176 16.8645 Q778.775 16.9166 779.504 17.0468 L779.53 21.9686 Z" fill="#000000" fill-rule="nonzero" fill-opacity="1" /><path clip-path="url(#clip742)" d="M242.965 1002.44 L285.075 1002.44 L327.184 1017.23 L369.294 1004.47 L411.404 994.466 L453.513 1004.97 L495.623 1022 L537.733 1017.87 L579.842 1025.36 L621.952 1021.23 L664.062 1004.15 L706.172 992.045 L748.281 1028.82 L790.391 1058.21 L832.501 1002.55 L874.61 1043.88 L916.72 1055.02 L958.83 1059.34 L1000.94 1042.74 L1043.05 1034.08 L1085.16 1045.45 L1127.27 1070.59 L1127.27 942.688 L1085.16 887.437 L1043.05 875.647 L1000.94 865.616 L958.83 886.459 L916.72 879.574 L874.61 946.43 L832.501 882.797 L790.391 903.717 L748.281 947.381 L706.172 937.639 L664.062 953.713 L621.952 948.992 L579.842 963.178 L537.733 939.294 L495.623 936.378 L453.513 916.272 L411.404 954.425 L369.294 977.002 L327.184 947.627 L285.075 1002.44 L242.965 1002.44  Z" fill="#009af9" fill-rule="evenodd" fill-opacity="0.1"/>
<polyline clip-path="url(#clip742)" style="stroke:#009af9; stroke-linecap:round; stroke-linejoin:round; stroke-width:4; stroke-opacity:1; fill:none" points="242.965,1002.44 285.075,1002.44 327.184,982.429 369.294,990.736 411.404,974.445 453.513,960.62 495.623,979.191 537.733,978.582 579.842,994.268 621.952,985.112 664.062,978.93 706.172,964.842 748.281,988.099 790.391,980.961 832.501,942.672 874.61,995.157 916.72,967.296 958.83,972.899 1000.94,954.176 1043.05,954.864 1085.16,966.444 1127.27,1006.64 "/>
<path clip-path="url(#clip742)" d="M242.965 1002.44 L285.075 1002.44 L327.184 120.65 L369.294 120.65 L411.404 120.65 L453.513 120.65 L495.623 120.65 L537.733 120.65 L579.842 120.65 L621.952 120.65 L664.062 120.65 L706.172 120.65 L748.281 120.65 L790.391 120.65 L832.501 120.65 L874.61 120.65 L916.72 120.65 L958.83 120.65 L1000.94 120.65 L1043.05 120.65 L1085.16 120.65 L1127.27 120.65 L1127.27 120.65 L1085.16 120.65 L1043.05 120.65 L1000.94 120.65 L958.83 120.65 L916.72 120.65 L874.61 120.65 L832.501 120.65 L790.391 120.65 L748.281 120.65 L706.172 120.65 L664.062 120.65 L621.952 120.65 L579.842 120.65 L537.733 120.65 L495.623 120.65 L453.513 120.65 L411.404 120.65 L369.294 120.65 L327.184 120.65 L285.075 1002.44 L242.965 1002.44  Z" fill="#e26f46" fill-rule="evenodd" fill-opacity="0.1"/>
<polyline clip-path="url(#clip742)" style="stroke:#e26f46; stroke-linecap:round; stroke-linejoin:round; stroke-width:4; stroke-opacity:1; fill:none" points="242.965,1002.44 285.075,1002.44 327.184,120.65 369.294,120.65 411.404,120.65 453.513,120.65 495.623,120.65 537.733,120.65 579.842,120.65 621.952,120.65 664.062,120.65 706.172,120.65 748.281,120.65 790.391,120.65 832.501,120.65 874.61,120.65 916.72,120.65 958.83,120.65 1000.94,120.65 1043.05,120.65 1085.16,120.65 1127.27,120.65 "/>
<path clip-path="url(#clip740)" d="M1415.39 1099.09 L2352.76 1099.09 L2352.76 92.1521 L1415.39 92.1521  Z" fill="#ffffff" fill-rule="evenodd" fill-opacity="1"/>
<defs>
  <clipPath id="clip743">
    <rect x="1415" y="92" width="938" height="1008"/>
  </clipPath>
</defs>
<polyline clip-path="url(#clip743)" style="stroke:#000000; stroke-linecap:round; stroke-linejoin:round; stroke-width:2; stroke-opacity:0.1; fill:none" points="1610.36,1099.09 1610.36,92.1521 "/>
<polyline clip-path="url(#clip743)" style="stroke:#000000; stroke-linecap:round; stroke-linejoin:round; stroke-width:2; stroke-opacity:0.1; fill:none" points="1820.91,1099.09 1820.91,92.1521 "/>
<polyline clip-path="url(#clip743)" style="stroke:#000000; stroke-linecap:round; stroke-linejoin:round; stroke-width:2; stroke-opacity:0.1; fill:none" points="2031.46,1099.09 2031.46,92.1521 "/>
<polyline clip-path="url(#clip743)" style="stroke:#000000; stroke-linecap:round; stroke-linejoin:round; stroke-width:2; stroke-opacity:0.1; fill:none" points="2242.01,1099.09 2242.01,92.1521 "/>
<polyline clip-path="url(#clip743)" style="stroke:#000000; stroke-linecap:round; stroke-linejoin:round; stroke-width:2; stroke-opacity:0.1; fill:none" points="1415.39,1039.95 2352.76,1039.95 "/>
<polyline clip-path="url(#clip743)" style="stroke:#000000; stroke-linecap:round; stroke-linejoin:round; stroke-width:2; stroke-opacity:0.1; fill:none" points="1415.39,820.924 2352.76,820.924 "/>
<polyline clip-path="url(#clip743)" style="stroke:#000000; stroke-linecap:round; stroke-linejoin:round; stroke-width:2; stroke-opacity:0.1; fill:none" points="1415.39,601.901 2352.76,601.901 "/>
<polyline clip-path="url(#clip743)" style="stroke:#000000; stroke-linecap:round; stroke-linejoin:round; stroke-width:2; stroke-opacity:0.1; fill:none" points="1415.39,382.879 2352.76,382.879 "/>
<polyline clip-path="url(#clip743)" style="stroke:#000000; stroke-linecap:round; stroke-linejoin:round; stroke-width:2; stroke-opacity:0.1; fill:none" points="1415.39,163.856 2352.76,163.856 "/>
<polyline clip-path="url(#clip740)" style="stroke:#000000; stroke-linecap:round; stroke-linejoin:round; stroke-width:4; stroke-opacity:1; fill:none" points="1415.39,1099.09 2352.76,1099.09 "/>
<polyline clip-path="url(#clip740)" style="stroke:#000000; stroke-linecap:round; stroke-linejoin:round; stroke-width:4; stroke-opacity:1; fill:none" points="1610.36,1099.09 1610.36,1080.19 "/>
<polyline clip-path="url(#clip740)" style="stroke:#000000; stroke-linecap:round; stroke-linejoin:round; stroke-width:4; stroke-opacity:1; fill:none" points="1820.91,1099.09 1820.91,1080.19 "/>
<polyline clip-path="url(#clip740)" style="stroke:#000000; stroke-linecap:round; stroke-linejoin:round; stroke-width:4; stroke-opacity:1; fill:none" points="2031.46,1099.09 2031.46,1080.19 "/>
<polyline clip-path="url(#clip740)" style="stroke:#000000; stroke-linecap:round; stroke-linejoin:round; stroke-width:4; stroke-opacity:1; fill:none" points="2242.01,1099.09 2242.01,1080.19 "/>
<path clip-path="url(#clip740)" d="M1600.64 1126.93 L1619 1126.93 L1619 1130.86 L1604.92 1130.86 L1604.92 1139.34 Q1605.94 1138.99 1606.96 1138.83 Q1607.98 1138.64 1609 1138.64 Q1614.78 1138.64 1618.16 1141.81 Q1621.54 1144.98 1621.54 1150.4 Q1621.54 1155.98 1618.07 1159.08 Q1614.6 1162.16 1608.28 1162.16 Q1606.1 1162.16 1603.83 1161.79 Q1601.59 1161.42 1599.18 1160.68 L1599.18 1155.98 Q1601.26 1157.11 1603.49 1157.67 Q1605.71 1158.22 1608.19 1158.22 Q1612.19 1158.22 1614.53 1156.12 Q1616.87 1154.01 1616.87 1150.4 Q1616.87 1146.79 1614.53 1144.68 Q1612.19 1142.58 1608.19 1142.58 Q1606.31 1142.58 1604.44 1142.99 Q1602.58 1143.41 1600.64 1144.29 L1600.64 1126.93 Z" fill="#000000" fill-rule="nonzero" fill-opacity="1" /><path clip-path="url(#clip740)" d="M1795.6 1157.55 L1803.24 1157.55 L1803.24 1131.19 L1794.93 1132.85 L1794.93 1128.59 L1803.19 1126.93 L1807.87 1126.93 L1807.87 1157.55 L1815.51 1157.55 L1815.51 1161.49 L1795.6 1161.49 L1795.6 1157.55 Z" fill="#000000" fill-rule="nonzero" fill-opacity="1" /><path clip-path="url(#clip740)" d="M1834.95 1130.01 Q1831.34 1130.01 1829.51 1133.57 Q1827.7 1137.11 1827.7 1144.24 Q1827.7 1151.35 1829.51 1154.91 Q1831.34 1158.46 1834.95 1158.46 Q1838.58 1158.46 1840.39 1154.91 Q1842.22 1151.35 1842.22 1144.24 Q1842.22 1137.11 1840.39 1133.57 Q1838.58 1130.01 1834.95 1130.01 M1834.95 1126.3 Q1840.76 1126.3 1843.82 1130.91 Q1846.89 1135.49 1846.89 1144.24 Q1846.89 1152.97 1843.82 1157.58 Q1840.76 1162.16 1834.95 1162.16 Q1829.14 1162.16 1826.06 1157.58 Q1823.01 1152.97 1823.01 1144.24 Q1823.01 1135.49 1826.06 1130.91 Q1829.14 1126.3 1834.95 1126.3 Z" fill="#000000" fill-rule="nonzero" fill-opacity="1" /><path clip-path="url(#clip740)" d="M2006.64 1157.55 L2014.28 1157.55 L2014.28 1131.19 L2005.97 1132.85 L2005.97 1128.59 L2014.24 1126.93 L2018.91 1126.93 L2018.91 1157.55 L2026.55 1157.55 L2026.55 1161.49 L2006.64 1161.49 L2006.64 1157.55 Z" fill="#000000" fill-rule="nonzero" fill-opacity="1" /><path clip-path="url(#clip740)" d="M2036.04 1126.93 L2054.4 1126.93 L2054.4 1130.86 L2040.32 1130.86 L2040.32 1139.34 Q2041.34 1138.99 2042.36 1138.83 Q2043.38 1138.64 2044.4 1138.64 Q2050.19 1138.64 2053.57 1141.81 Q2056.94 1144.98 2056.94 1150.4 Q2056.94 1155.98 2053.47 1159.08 Q2050 1162.16 2043.68 1162.16 Q2041.51 1162.16 2039.24 1161.79 Q2036.99 1161.42 2034.58 1160.68 L2034.58 1155.98 Q2036.67 1157.11 2038.89 1157.67 Q2041.11 1158.22 2043.59 1158.22 Q2047.59 1158.22 2049.93 1156.12 Q2052.27 1154.01 2052.27 1150.4 Q2052.27 1146.79 2049.93 1144.68 Q2047.59 1142.58 2043.59 1142.58 Q2041.71 1142.58 2039.84 1142.99 Q2037.99 1143.41 2036.04 1144.29 L2036.04 1126.93 Z" fill="#000000" fill-rule="nonzero" fill-opacity="1" /><path clip-path="url(#clip740)" d="M2220.78 1157.55 L2237.1 1157.55 L2237.1 1161.49 L2215.16 1161.49 L2215.16 1157.55 Q2217.82 1154.8 2222.4 1150.17 Q2227.01 1145.52 2228.19 1144.17 Q2230.43 1141.65 2231.31 1139.91 Q2232.22 1138.15 2232.22 1136.46 Q2232.22 1133.71 2230.27 1131.97 Q2228.35 1130.24 2225.25 1130.24 Q2223.05 1130.24 2220.6 1131 Q2218.16 1131.77 2215.39 1133.32 L2215.39 1128.59 Q2218.21 1127.46 2220.66 1126.88 Q2223.12 1126.3 2225.16 1126.3 Q2230.53 1126.3 2233.72 1128.99 Q2236.91 1131.67 2236.91 1136.16 Q2236.91 1138.29 2236.1 1140.21 Q2235.32 1142.11 2233.21 1144.71 Q2232.63 1145.38 2229.53 1148.59 Q2226.43 1151.79 2220.78 1157.55 Z" fill="#000000" fill-rule="nonzero" fill-opacity="1" /><path clip-path="url(#clip740)" d="M2256.91 1130.01 Q2253.3 1130.01 2251.47 1133.57 Q2249.67 1137.11 2249.67 1144.24 Q2249.67 1151.35 2251.47 1154.91 Q2253.3 1158.46 2256.91 1158.46 Q2260.55 1158.46 2262.35 1154.91 Q2264.18 1151.35 2264.18 1144.24 Q2264.18 1137.11 2262.35 1133.57 Q2260.55 1130.01 2256.91 1130.01 M2256.91 1126.3 Q2262.72 1126.3 2265.78 1130.91 Q2268.86 1135.49 2268.86 1144.24 Q2268.86 1152.97 2265.78 1157.58 Q2262.72 1162.16 2256.91 1162.16 Q2251.1 1162.16 2248.03 1157.58 Q2244.97 1152.97 2244.97 1144.24 Q2244.97 1135.49 2248.03 1130.91 Q2251.1 1126.3 2256.91 1126.3 Z" fill="#000000" fill-rule="nonzero" fill-opacity="1" /><polyline clip-path="url(#clip740)" style="stroke:#000000; stroke-linecap:round; stroke-linejoin:round; stroke-width:4; stroke-opacity:1; fill:none" points="1415.39,1099.09 1415.39,92.1521 "/>
<polyline clip-path="url(#clip740)" style="stroke:#000000; stroke-linecap:round; stroke-linejoin:round; stroke-width:4; stroke-opacity:1; fill:none" points="1415.39,1039.95 1434.29,1039.95 "/>
<polyline clip-path="url(#clip740)" style="stroke:#000000; stroke-linecap:round; stroke-linejoin:round; stroke-width:4; stroke-opacity:1; fill:none" points="1415.39,820.924 1434.29,820.924 "/>
<polyline clip-path="url(#clip740)" style="stroke:#000000; stroke-linecap:round; stroke-linejoin:round; stroke-width:4; stroke-opacity:1; fill:none" points="1415.39,601.901 1434.29,601.901 "/>
<polyline clip-path="url(#clip740)" style="stroke:#000000; stroke-linecap:round; stroke-linejoin:round; stroke-width:4; stroke-opacity:1; fill:none" points="1415.39,382.879 1434.29,382.879 "/>
<polyline clip-path="url(#clip740)" style="stroke:#000000; stroke-linecap:round; stroke-linejoin:round; stroke-width:4; stroke-opacity:1; fill:none" points="1415.39,163.856 1434.29,163.856 "/>
<path clip-path="url(#clip740)" d="M1252.71 1053.29 L1260.34 1053.29 L1260.34 1026.93 L1252.03 1028.59 L1252.03 1024.33 L1260.3 1022.67 L1264.97 1022.67 L1264.97 1053.29 L1272.61 1053.29 L1272.61 1057.23 L1252.71 1057.23 L1252.71 1053.29 Z" fill="#000000" fill-rule="nonzero" fill-opacity="1" /><path clip-path="url(#clip740)" d="M1282.06 1051.35 L1286.94 1051.35 L1286.94 1057.23 L1282.06 1057.23 L1282.06 1051.35 Z" fill="#000000" fill-rule="nonzero" fill-opacity="1" /><path clip-path="url(#clip740)" d="M1307.13 1025.75 Q1303.51 1025.75 1301.69 1029.31 Q1299.88 1032.85 1299.88 1039.98 Q1299.88 1047.09 1301.69 1050.65 Q1303.51 1054.19 1307.13 1054.19 Q1310.76 1054.19 1312.57 1050.65 Q1314.39 1047.09 1314.39 1039.98 Q1314.39 1032.85 1312.57 1029.31 Q1310.76 1025.75 1307.13 1025.75 M1307.13 1022.04 Q1312.94 1022.04 1315.99 1026.65 Q1319.07 1031.23 1319.07 1039.98 Q1319.07 1048.71 1315.99 1053.31 Q1312.94 1057.9 1307.13 1057.9 Q1301.32 1057.9 1298.24 1053.31 Q1295.18 1048.71 1295.18 1039.98 Q1295.18 1031.23 1298.24 1026.65 Q1301.32 1022.04 1307.13 1022.04 Z" fill="#000000" fill-rule="nonzero" fill-opacity="1" /><path clip-path="url(#clip740)" d="M1337.29 1025.75 Q1333.68 1025.75 1331.85 1029.31 Q1330.04 1032.85 1330.04 1039.98 Q1330.04 1047.09 1331.85 1050.65 Q1333.68 1054.19 1337.29 1054.19 Q1340.92 1054.19 1342.73 1050.65 Q1344.56 1047.09 1344.56 1039.98 Q1344.56 1032.85 1342.73 1029.31 Q1340.92 1025.75 1337.29 1025.75 M1337.29 1022.04 Q1343.1 1022.04 1346.15 1026.65 Q1349.23 1031.23 1349.23 1039.98 Q1349.23 1048.71 1346.15 1053.31 Q1343.1 1057.9 1337.29 1057.9 Q1331.48 1057.9 1328.4 1053.31 Q1325.34 1048.71 1325.34 1039.98 Q1325.34 1031.23 1328.4 1026.65 Q1331.48 1022.04 1337.29 1022.04 Z" fill="#000000" fill-rule="nonzero" fill-opacity="1" /><path clip-path="url(#clip740)" d="M1367.45 1025.75 Q1363.84 1025.75 1362.01 1029.31 Q1360.2 1032.85 1360.2 1039.98 Q1360.2 1047.09 1362.01 1050.65 Q1363.84 1054.19 1367.45 1054.19 Q1371.08 1054.19 1372.89 1050.65 Q1374.72 1047.09 1374.72 1039.98 Q1374.72 1032.85 1372.89 1029.31 Q1371.08 1025.75 1367.45 1025.75 M1367.45 1022.04 Q1373.26 1022.04 1376.32 1026.65 Q1379.39 1031.23 1379.39 1039.98 Q1379.39 1048.71 1376.32 1053.31 Q1373.26 1057.9 1367.45 1057.9 Q1361.64 1057.9 1358.56 1053.31 Q1355.51 1048.71 1355.51 1039.98 Q1355.51 1031.23 1358.56 1026.65 Q1361.64 1022.04 1367.45 1022.04 Z" fill="#000000" fill-rule="nonzero" fill-opacity="1" /><path clip-path="url(#clip740)" d="M1253.7 834.269 L1261.34 834.269 L1261.34 807.903 L1253.03 809.57 L1253.03 805.311 L1261.29 803.644 L1265.97 803.644 L1265.97 834.269 L1273.61 834.269 L1273.61 838.204 L1253.7 838.204 L1253.7 834.269 Z" fill="#000000" fill-rule="nonzero" fill-opacity="1" /><path clip-path="url(#clip740)" d="M1283.05 832.325 L1287.94 832.325 L1287.94 838.204 L1283.05 838.204 L1283.05 832.325 Z" fill="#000000" fill-rule="nonzero" fill-opacity="1" /><path clip-path="url(#clip740)" d="M1308.12 806.723 Q1304.51 806.723 1302.68 810.288 Q1300.88 813.829 1300.88 820.959 Q1300.88 828.065 1302.68 831.63 Q1304.51 835.172 1308.12 835.172 Q1311.76 835.172 1313.56 831.63 Q1315.39 828.065 1315.39 820.959 Q1315.39 813.829 1313.56 810.288 Q1311.76 806.723 1308.12 806.723 M1308.12 803.019 Q1313.93 803.019 1316.99 807.626 Q1320.07 812.209 1320.07 820.959 Q1320.07 829.686 1316.99 834.292 Q1313.93 838.876 1308.12 838.876 Q1302.31 838.876 1299.23 834.292 Q1296.18 829.686 1296.18 820.959 Q1296.18 812.209 1299.23 807.626 Q1302.31 803.019 1308.12 803.019 Z" fill="#000000" fill-rule="nonzero" fill-opacity="1" /><path clip-path="url(#clip740)" d="M1332.31 834.269 L1348.63 834.269 L1348.63 838.204 L1326.69 838.204 L1326.69 834.269 Q1329.35 831.514 1333.93 826.885 Q1338.54 822.232 1339.72 820.889 Q1341.96 818.366 1342.84 816.63 Q1343.75 814.871 1343.75 813.181 Q1343.75 810.427 1341.8 808.69 Q1339.88 806.954 1336.78 806.954 Q1334.58 806.954 1332.13 807.718 Q1329.7 808.482 1326.92 810.033 L1326.92 805.311 Q1329.74 804.177 1332.2 803.598 Q1334.65 803.019 1336.69 803.019 Q1342.06 803.019 1345.25 805.704 Q1348.45 808.39 1348.45 812.88 Q1348.45 815.01 1347.64 816.931 Q1346.85 818.829 1344.74 821.422 Q1344.16 822.093 1341.06 825.311 Q1337.96 828.505 1332.31 834.269 Z" fill="#000000" fill-rule="nonzero" fill-opacity="1" /><path clip-path="url(#clip740)" d="M1358.49 803.644 L1376.85 803.644 L1376.85 807.579 L1362.77 807.579 L1362.77 816.052 Q1363.79 815.704 1364.81 815.542 Q1365.83 815.357 1366.85 815.357 Q1372.63 815.357 1376.01 818.528 Q1379.39 821.7 1379.39 827.116 Q1379.39 832.695 1375.92 835.797 Q1372.45 838.876 1366.13 838.876 Q1363.95 838.876 1361.69 838.505 Q1359.44 838.135 1357.03 837.394 L1357.03 832.695 Q1359.12 833.829 1361.34 834.385 Q1363.56 834.94 1366.04 834.94 Q1370.04 834.94 1372.38 832.834 Q1374.72 830.727 1374.72 827.116 Q1374.72 823.505 1372.38 821.399 Q1370.04 819.292 1366.04 819.292 Q1364.16 819.292 1362.29 819.709 Q1360.44 820.126 1358.49 821.005 L1358.49 803.644 Z" fill="#000000" fill-rule="nonzero" fill-opacity="1" /><path clip-path="url(#clip740)" d="M1252.71 615.246 L1260.34 615.246 L1260.34 588.881 L1252.03 590.547 L1252.03 586.288 L1260.3 584.621 L1264.97 584.621 L1264.97 615.246 L1272.61 615.246 L1272.61 619.181 L1252.71 619.181 L1252.71 615.246 Z" fill="#000000" fill-rule="nonzero" fill-opacity="1" /><path clip-path="url(#clip740)" d="M1282.06 613.302 L1286.94 613.302 L1286.94 619.181 L1282.06 619.181 L1282.06 613.302 Z" fill="#000000" fill-rule="nonzero" fill-opacity="1" /><path clip-path="url(#clip740)" d="M1307.13 587.7 Q1303.51 587.7 1301.69 591.265 Q1299.88 594.807 1299.88 601.936 Q1299.88 609.043 1301.69 612.607 Q1303.51 616.149 1307.13 616.149 Q1310.76 616.149 1312.57 612.607 Q1314.39 609.043 1314.39 601.936 Q1314.39 594.807 1312.57 591.265 Q1310.76 587.7 1307.13 587.7 M1307.13 583.996 Q1312.94 583.996 1315.99 588.603 Q1319.07 593.186 1319.07 601.936 Q1319.07 610.663 1315.99 615.269 Q1312.94 619.853 1307.13 619.853 Q1301.32 619.853 1298.24 615.269 Q1295.18 610.663 1295.18 601.936 Q1295.18 593.186 1298.24 588.603 Q1301.32 583.996 1307.13 583.996 Z" fill="#000000" fill-rule="nonzero" fill-opacity="1" /><path clip-path="url(#clip740)" d="M1327.33 584.621 L1345.69 584.621 L1345.69 588.557 L1331.62 588.557 L1331.62 597.029 Q1332.64 596.682 1333.65 596.52 Q1334.67 596.334 1335.69 596.334 Q1341.48 596.334 1344.86 599.506 Q1348.24 602.677 1348.24 608.094 Q1348.24 613.672 1344.76 616.774 Q1341.29 619.853 1334.97 619.853 Q1332.8 619.853 1330.53 619.482 Q1328.28 619.112 1325.88 618.371 L1325.88 613.672 Q1327.96 614.807 1330.18 615.362 Q1332.4 615.918 1334.88 615.918 Q1338.89 615.918 1341.22 613.811 Q1343.56 611.705 1343.56 608.094 Q1343.56 604.482 1341.22 602.376 Q1338.89 600.27 1334.88 600.27 Q1333.01 600.27 1331.13 600.686 Q1329.28 601.103 1327.33 601.982 L1327.33 584.621 Z" fill="#000000" fill-rule="nonzero" fill-opacity="1" /><path clip-path="url(#clip740)" d="M1367.45 587.7 Q1363.84 587.7 1362.01 591.265 Q1360.2 594.807 1360.2 601.936 Q1360.2 609.043 1362.01 612.607 Q1363.84 616.149 1367.45 616.149 Q1371.08 616.149 1372.89 612.607 Q1374.72 609.043 1374.72 601.936 Q1374.72 594.807 1372.89 591.265 Q1371.08 587.7 1367.45 587.7 M1367.45 583.996 Q1373.26 583.996 1376.32 588.603 Q1379.39 593.186 1379.39 601.936 Q1379.39 610.663 1376.32 615.269 Q1373.26 619.853 1367.45 619.853 Q1361.64 619.853 1358.56 615.269 Q1355.51 610.663 1355.51 601.936 Q1355.51 593.186 1358.56 588.603 Q1361.64 583.996 1367.45 583.996 Z" fill="#000000" fill-rule="nonzero" fill-opacity="1" /><path clip-path="url(#clip740)" d="M1253.7 396.224 L1261.34 396.224 L1261.34 369.858 L1253.03 371.525 L1253.03 367.265 L1261.29 365.599 L1265.97 365.599 L1265.97 396.224 L1273.61 396.224 L1273.61 400.159 L1253.7 400.159 L1253.7 396.224 Z" fill="#000000" fill-rule="nonzero" fill-opacity="1" /><path clip-path="url(#clip740)" d="M1283.05 394.279 L1287.94 394.279 L1287.94 400.159 L1283.05 400.159 L1283.05 394.279 Z" fill="#000000" fill-rule="nonzero" fill-opacity="1" /><path clip-path="url(#clip740)" d="M1308.12 368.677 Q1304.51 368.677 1302.68 372.242 Q1300.88 375.784 1300.88 382.913 Q1300.88 390.02 1302.68 393.585 Q1304.51 397.126 1308.12 397.126 Q1311.76 397.126 1313.56 393.585 Q1315.39 390.02 1315.39 382.913 Q1315.39 375.784 1313.56 372.242 Q1311.76 368.677 1308.12 368.677 M1308.12 364.974 Q1313.93 364.974 1316.99 369.58 Q1320.07 374.164 1320.07 382.913 Q1320.07 391.64 1316.99 396.247 Q1313.93 400.83 1308.12 400.83 Q1302.31 400.83 1299.23 396.247 Q1296.18 391.64 1296.18 382.913 Q1296.18 374.164 1299.23 369.58 Q1302.31 364.974 1308.12 364.974 Z" fill="#000000" fill-rule="nonzero" fill-opacity="1" /><path clip-path="url(#clip740)" d="M1327.1 365.599 L1349.32 365.599 L1349.32 367.589 L1336.78 400.159 L1331.89 400.159 L1343.7 369.534 L1327.1 369.534 L1327.1 365.599 Z" fill="#000000" fill-rule="nonzero" fill-opacity="1" /><path clip-path="url(#clip740)" d="M1358.49 365.599 L1376.85 365.599 L1376.85 369.534 L1362.77 369.534 L1362.77 378.006 Q1363.79 377.659 1364.81 377.497 Q1365.83 377.312 1366.85 377.312 Q1372.63 377.312 1376.01 380.483 Q1379.39 383.654 1379.39 389.071 Q1379.39 394.65 1375.92 397.751 Q1372.45 400.83 1366.13 400.83 Q1363.95 400.83 1361.69 400.46 Q1359.44 400.089 1357.03 399.349 L1357.03 394.65 Q1359.12 395.784 1361.34 396.339 Q1363.56 396.895 1366.04 396.895 Q1370.04 396.895 1372.38 394.788 Q1374.72 392.682 1374.72 389.071 Q1374.72 385.46 1372.38 383.353 Q1370.04 381.247 1366.04 381.247 Q1364.16 381.247 1362.29 381.663 Q1360.44 382.08 1358.49 382.96 L1358.49 365.599 Z" fill="#000000" fill-rule="nonzero" fill-opacity="1" /><path clip-path="url(#clip740)" d="M1252.71 177.201 L1260.34 177.201 L1260.34 150.835 L1252.03 152.502 L1252.03 148.243 L1260.3 146.576 L1264.97 146.576 L1264.97 177.201 L1272.61 177.201 L1272.61 181.136 L1252.71 181.136 L1252.71 177.201 Z" fill="#000000" fill-rule="nonzero" fill-opacity="1" /><path clip-path="url(#clip740)" d="M1282.06 175.256 L1286.94 175.256 L1286.94 181.136 L1282.06 181.136 L1282.06 175.256 Z" fill="#000000" fill-rule="nonzero" fill-opacity="1" /><path clip-path="url(#clip740)" d="M1297.94 177.201 L1305.58 177.201 L1305.58 150.835 L1297.27 152.502 L1297.27 148.243 L1305.53 146.576 L1310.2 146.576 L1310.2 177.201 L1317.84 177.201 L1317.84 181.136 L1297.94 181.136 L1297.94 177.201 Z" fill="#000000" fill-rule="nonzero" fill-opacity="1" /><path clip-path="url(#clip740)" d="M1337.29 149.655 Q1333.68 149.655 1331.85 153.219 Q1330.04 156.761 1330.04 163.891 Q1330.04 170.997 1331.85 174.562 Q1333.68 178.104 1337.29 178.104 Q1340.92 178.104 1342.73 174.562 Q1344.56 170.997 1344.56 163.891 Q1344.56 156.761 1342.73 153.219 Q1340.92 149.655 1337.29 149.655 M1337.29 145.951 Q1343.1 145.951 1346.15 150.557 Q1349.23 155.141 1349.23 163.891 Q1349.23 172.618 1346.15 177.224 Q1343.1 181.807 1337.29 181.807 Q1331.48 181.807 1328.4 177.224 Q1325.34 172.618 1325.34 163.891 Q1325.34 155.141 1328.4 150.557 Q1331.48 145.951 1337.29 145.951 Z" fill="#000000" fill-rule="nonzero" fill-opacity="1" /><path clip-path="url(#clip740)" d="M1367.45 149.655 Q1363.84 149.655 1362.01 153.219 Q1360.2 156.761 1360.2 163.891 Q1360.2 170.997 1362.01 174.562 Q1363.84 178.104 1367.45 178.104 Q1371.08 178.104 1372.89 174.562 Q1374.72 170.997 1374.72 163.891 Q1374.72 156.761 1372.89 153.219 Q1371.08 149.655 1367.45 149.655 M1367.45 145.951 Q1373.26 145.951 1376.32 150.557 Q1379.39 155.141 1379.39 163.891 Q1379.39 172.618 1376.32 177.224 Q1373.26 181.807 1367.45 181.807 Q1361.64 181.807 1358.56 177.224 Q1355.51 172.618 1355.51 163.891 Q1355.51 155.141 1358.56 150.557 Q1361.64 145.951 1367.45 145.951 Z" fill="#000000" fill-rule="nonzero" fill-opacity="1" /><path clip-path="url(#clip740)" d="M1743.36 31.7342 Q1743.36 26.5259 1741.2 23.6613 Q1739.06 20.7968 1735.18 20.7968 Q1731.33 20.7968 1729.17 23.6613 Q1727.03 26.5259 1727.03 31.7342 Q1727.03 36.9165 1729.17 39.781 Q1731.33 42.6456 1735.18 42.6456 Q1739.06 42.6456 1741.2 39.781 Q1743.36 36.9165 1743.36 31.7342 M1748.15 43.0362 Q1748.15 50.4841 1744.84 54.1039 Q1741.54 57.7497 1734.71 57.7497 Q1732.19 57.7497 1729.95 57.3591 Q1727.71 56.9945 1725.6 56.2132 L1725.6 51.5518 Q1727.71 52.6976 1729.77 53.2445 Q1731.82 53.7914 1733.96 53.7914 Q1738.67 53.7914 1741.02 51.3174 Q1743.36 48.8695 1743.36 43.8956 L1743.36 41.5258 Q1741.88 44.1039 1739.56 45.38 Q1737.24 46.656 1734.01 46.656 Q1728.65 46.656 1725.36 42.5675 Q1722.08 38.479 1722.08 31.7342 Q1722.08 24.9634 1725.36 20.8749 Q1728.65 16.7864 1734.01 16.7864 Q1737.24 16.7864 1739.56 18.0624 Q1741.88 19.3384 1743.36 21.9165 L1743.36 17.4895 L1748.15 17.4895 L1748.15 43.0362 Z" fill="#000000" fill-rule="nonzero" fill-opacity="1" /><path clip-path="url(#clip740)" d="M1777.21 21.9165 L1777.21 6.13538 L1782.01 6.13538 L1782.01 46.656 L1777.21 46.656 L1777.21 42.281 Q1775.7 44.8852 1773.39 46.1612 Q1771.09 47.4112 1767.86 47.4112 Q1762.58 47.4112 1759.25 43.1925 Q1755.94 38.9737 1755.94 32.0988 Q1755.94 25.2238 1759.25 21.0051 Q1762.58 16.7864 1767.86 16.7864 Q1771.09 16.7864 1773.39 18.0624 Q1775.7 19.3124 1777.21 21.9165 M1760.89 32.0988 Q1760.89 37.3852 1763.05 40.406 Q1765.23 43.4008 1769.04 43.4008 Q1772.84 43.4008 1775.03 40.406 Q1777.21 37.3852 1777.21 32.0988 Q1777.21 26.8124 1775.03 23.8176 Q1772.84 20.7968 1769.04 20.7968 Q1765.23 20.7968 1763.05 23.8176 Q1760.89 26.8124 1760.89 32.0988 Z" fill="#000000" fill-rule="nonzero" fill-opacity="1" /><path clip-path="url(#clip740)" d="M1796.51 42.281 L1796.51 57.7497 L1791.69 57.7497 L1791.69 17.4895 L1796.51 17.4895 L1796.51 21.9165 Q1798.02 19.3124 1800.31 18.0624 Q1802.63 16.7864 1805.83 16.7864 Q1811.15 16.7864 1814.45 21.0051 Q1817.79 25.2238 1817.79 32.0988 Q1817.79 38.9737 1814.45 43.1925 Q1811.15 47.4112 1805.83 47.4112 Q1802.63 47.4112 1800.31 46.1612 Q1798.02 44.8852 1796.51 42.281 M1812.81 32.0988 Q1812.81 26.8124 1810.62 23.8176 Q1808.46 20.7968 1804.66 20.7968 Q1800.86 20.7968 1798.67 23.8176 Q1796.51 26.8124 1796.51 32.0988 Q1796.51 37.3852 1798.67 40.406 Q1800.86 43.4008 1804.66 43.4008 Q1808.46 43.4008 1810.62 40.406 Q1812.81 37.3852 1812.81 32.0988 Z" fill="#000000" fill-rule="nonzero" fill-opacity="1" /><path clip-path="url(#clip740)" d="M1861.87 21.9165 L1861.87 6.13538 L1866.67 6.13538 L1866.67 46.656 L1861.87 46.656 L1861.87 42.281 Q1860.36 44.8852 1858.05 46.1612 Q1855.75 47.4112 1852.53 47.4112 Q1847.24 47.4112 1843.91 43.1925 Q1840.6 38.9737 1840.6 32.0988 Q1840.6 25.2238 1843.91 21.0051 Q1847.24 16.7864 1852.53 16.7864 Q1855.75 16.7864 1858.05 18.0624 Q1860.36 19.3124 1861.87 21.9165 M1845.55 32.0988 Q1845.55 37.3852 1847.71 40.406 Q1849.9 43.4008 1853.7 43.4008 Q1857.5 43.4008 1859.69 40.406 Q1861.87 37.3852 1861.87 32.0988 Q1861.87 26.8124 1859.69 23.8176 Q1857.5 20.7968 1853.7 20.7968 Q1849.9 20.7968 1847.71 23.8176 Q1845.55 26.8124 1845.55 32.0988 Z" fill="#000000" fill-rule="nonzero" fill-opacity="1" /><path clip-path="url(#clip740)" d="M1901.48 30.8748 L1901.48 33.2186 L1879.45 33.2186 Q1879.77 38.1665 1882.42 40.7706 Q1885.1 43.3487 1889.87 43.3487 Q1892.63 43.3487 1895.21 42.6716 Q1897.81 41.9946 1900.36 40.6404 L1900.36 45.1716 Q1897.79 46.2654 1895.08 46.8383 Q1892.37 47.4112 1889.58 47.4112 Q1882.6 47.4112 1878.52 43.3487 Q1874.45 39.2862 1874.45 32.3592 Q1874.45 25.1978 1878.31 21.0051 Q1882.19 16.7864 1888.75 16.7864 Q1894.63 16.7864 1898.05 20.5884 Q1901.48 24.3645 1901.48 30.8748 M1896.69 29.4686 Q1896.64 25.5363 1894.48 23.1926 Q1892.34 20.8488 1888.8 20.8488 Q1884.79 20.8488 1882.37 23.1145 Q1879.97 25.3801 1879.61 29.4946 L1896.69 29.4686 Z" fill="#000000" fill-rule="nonzero" fill-opacity="1" /><path clip-path="url(#clip740)" d="M1924.11 6.13538 L1924.11 10.1197 L1919.53 10.1197 Q1916.95 10.1197 1915.94 11.1614 Q1914.95 12.2031 1914.95 14.9114 L1914.95 17.4895 L1922.84 17.4895 L1922.84 21.2134 L1914.95 21.2134 L1914.95 46.656 L1910.13 46.656 L1910.13 21.2134 L1905.55 21.2134 L1905.55 17.4895 L1910.13 17.4895 L1910.13 15.4583 Q1910.13 10.5885 1912.4 8.37496 Q1914.66 6.13538 1919.58 6.13538 L1924.11 6.13538 Z" fill="#000000" fill-rule="nonzero" fill-opacity="1" /><path clip-path="url(#clip740)" d="M1928.12 6.13538 L1932.92 6.13538 L1932.92 46.656 L1928.12 46.656 L1928.12 6.13538 Z" fill="#000000" fill-rule="nonzero" fill-opacity="1" /><path clip-path="url(#clip740)" d="M1956.2 31.9946 Q1950.39 31.9946 1948.15 33.3227 Q1945.91 34.6509 1945.91 37.854 Q1945.91 40.406 1947.58 41.9164 Q1949.27 43.4008 1952.16 43.4008 Q1956.14 43.4008 1958.54 40.5883 Q1960.96 37.7498 1960.96 33.0623 L1960.96 31.9946 L1956.2 31.9946 M1965.75 30.0155 L1965.75 46.656 L1960.96 46.656 L1960.96 42.2289 Q1959.32 44.8852 1956.87 46.1612 Q1954.43 47.4112 1950.88 47.4112 Q1946.41 47.4112 1943.75 44.9112 Q1941.12 42.3852 1941.12 38.1665 Q1941.12 33.2446 1944.4 30.7446 Q1947.71 28.2446 1954.24 28.2446 L1960.96 28.2446 L1960.96 27.7759 Q1960.96 24.4686 1958.78 22.6718 Q1956.61 20.8488 1952.68 20.8488 Q1950.18 20.8488 1947.81 21.4478 Q1945.44 22.0468 1943.25 23.2447 L1943.25 18.8176 Q1945.88 17.802 1948.36 17.3072 Q1950.83 16.7864 1953.18 16.7864 Q1959.5 16.7864 1962.63 20.0676 Q1965.75 23.3488 1965.75 30.0155 Z" fill="#000000" fill-rule="nonzero" fill-opacity="1" /><path clip-path="url(#clip740)" d="M1980.36 9.20828 L1980.36 17.4895 L1990.23 17.4895 L1990.23 21.2134 L1980.36 21.2134 L1980.36 37.0467 Q1980.36 40.6144 1981.33 41.63 Q1982.32 42.6456 1985.31 42.6456 L1990.23 42.6456 L1990.23 46.656 L1985.31 46.656 Q1979.76 46.656 1977.66 44.5987 Q1975.55 42.5154 1975.55 37.0467 L1975.55 21.2134 L1972.03 21.2134 L1972.03 17.4895 L1975.55 17.4895 L1975.55 9.20828 L1980.36 9.20828 Z" fill="#000000" fill-rule="nonzero" fill-opacity="1" /><path clip-path="url(#clip740)" d="M2007.84 20.8488 Q2003.98 20.8488 2001.74 23.8697 Q1999.5 26.8644 1999.5 32.0988 Q1999.5 37.3331 2001.72 40.354 Q2003.96 43.3487 2007.84 43.3487 Q2011.67 43.3487 2013.91 40.3279 Q2016.14 37.3071 2016.14 32.0988 Q2016.14 26.9165 2013.91 23.8957 Q2011.67 20.8488 2007.84 20.8488 M2007.84 16.7864 Q2014.09 16.7864 2017.66 20.8488 Q2021.22 24.9113 2021.22 32.0988 Q2021.22 39.2602 2017.66 43.3487 Q2014.09 47.4112 2007.84 47.4112 Q2001.56 47.4112 1997.99 43.3487 Q1994.45 39.2602 1994.45 32.0988 Q1994.45 24.9113 1997.99 20.8488 Q2001.56 16.7864 2007.84 16.7864 Z" fill="#000000" fill-rule="nonzero" fill-opacity="1" /><path clip-path="url(#clip740)" d="M2046.07 21.9686 Q2045.26 21.4999 2044.3 21.2916 Q2043.36 21.0572 2042.21 21.0572 Q2038.15 21.0572 2035.96 23.7134 Q2033.8 26.3436 2033.8 31.2915 L2033.8 46.656 L2028.98 46.656 L2028.98 17.4895 L2033.8 17.4895 L2033.8 22.0207 Q2035.31 19.3645 2037.73 18.0884 Q2040.15 16.7864 2043.62 16.7864 Q2044.11 16.7864 2044.71 16.8645 Q2045.31 16.9166 2046.04 17.0468 L2046.07 21.9686 Z" fill="#000000" fill-rule="nonzero" fill-opacity="1" /><path clip-path="url(#clip743)" d="M1526.14 1046.08 L1568.25 1049.53 L1610.36 1032.09 L1652.47 1064.82 L1694.58 1055.59 L1736.69 1017.62 L1778.8 978.85 L1820.91 981.326 L1863.02 925.024 L1905.13 916.519 L1947.24 891.966 L1989.35 914.025 L2031.46 916.051 L2073.57 910.426 L2115.68 867.38 L2157.79 905.596 L2199.9 878.96 L2242.01 858.409 L2284.12 801.278 L2326.23 790.221 L2326.23 382.908 L2284.12 444.42 L2242.01 492.791 L2199.9 541.076 L2157.79 527.207 L2115.68 507.201 L2073.57 531.67 L2031.46 582.133 L1989.35 633.782 L1947.24 701.092 L1905.13 751.113 L1863.02 812.851 L1820.91 869.755 L1778.8 885.155 L1736.69 865.524 L1694.58 854.723 L1652.47 894.102 L1610.36 940.009 L1568.25 990.57 L1526.14 1021.4  Z" fill="#009af9" fill-rule="evenodd" fill-opacity="0.1"/>
<polyline clip-path="url(#clip743)" style="stroke:#009af9; stroke-linecap:round; stroke-linejoin:round; stroke-width:4; stroke-opacity:1; fill:none" points="1526.14,1033.74 1568.25,1020.05 1610.36,986.047 1652.47,979.462 1694.58,955.155 1736.69,941.573 1778.8,932.002 1820.91,925.54 1863.02,868.937 1905.13,833.816 1947.24,796.529 1989.35,773.903 2031.46,749.092 2073.57,721.048 2115.68,687.291 2157.79,716.401 2199.9,710.018 2242.01,675.6 2284.12,622.849 2326.23,586.564 "/>
<path clip-path="url(#clip743)" d="M1526.14 1047.45 L1568.25 1030.99 L1610.36 1070.59 L1652.47 1062.71 L1694.58 1031.31 L1736.69 929.835 L1778.8 851.248 L1820.91 851.989 L1863.02 887.808 L1905.13 881.998 L1947.24 875.811 L1989.35 852.983 L2031.46 876.61 L2073.57 873.612 L2115.68 846.506 L2157.79 761.337 L2199.9 721.615 L2242.01 713.526 L2284.12 676.041 L2326.23 686.836 L2326.23 120.65 L2284.12 175.864 L2242.01 230.38 L2199.9 259.885 L2157.79 273.964 L2115.68 278.393 L2073.57 328.369 L2031.46 389.373 L1989.35 440.829 L1947.24 505.506 L1905.13 591.912 L1863.02 677.815 L1820.91 703.311 L1778.8 741.149 L1736.69 766.985 L1694.58 797.968 L1652.47 856.204 L1610.36 897.249 L1568.25 922.421 L1526.14 970.744  Z" fill="#e26f46" fill-rule="evenodd" fill-opacity="0.1"/>
<polyline clip-path="url(#clip743)" style="stroke:#e26f46; stroke-linecap:round; stroke-linejoin:round; stroke-width:4; stroke-opacity:1; fill:none" points="1526.14,1009.1 1568.25,976.708 1610.36,983.919 1652.47,959.455 1694.58,914.641 1736.69,848.41 1778.8,796.198 1820.91,777.65 1863.02,782.812 1905.13,736.955 1947.24,690.659 1989.35,646.906 2031.46,632.992 2073.57,600.991 2115.68,562.449 2157.79,517.65 2199.9,490.75 2242.01,471.953 2284.12,425.952 2326.23,403.743 "/>
</svg>
