<?xml version="1.0" encoding="utf-8"?>
<svg xmlns="http://www.w3.org/2000/svg" xmlns:xlink="http://www.w3.org/1999/xlink" width="600" height="400" viewBox="0 0 2400 1600">
<defs>
  <clipPath id="clip560">
    <rect x="0" y="0" width="2400" height="1600"/>
  </clipPath>
</defs>
<path clip-path="url(#clip560)" d="M0 1600 L2400 1600 L2400 0 L0 0  Z" fill="#ffffff" fill-rule="evenodd" fill-opacity="1"/>
<defs>
  <clipPath id="clip561">
    <rect x="480" y="0" width="1681" height="1600"/>
  </clipPath>
</defs>
<path clip-path="url(#clip560)" d="M230.765 1486.45 L2352.76 1486.45 L2352.76 106.192 L230.765 106.192  Z" fill="#ffffff" fill-rule="evenodd" fill-opacity="1"/>
<defs>
  <clipPath id="clip562">
    <rect x="230" y="106" width="2123" height="1381"/>
  </clipPath>
</defs>
<polyline clip-path="url(#clip562)" style="stroke:#000000; stroke-linecap:round; stroke-linejoin:round; stroke-width:2; stroke-opacity:0.1; fill:none" points="541.056,1486.45 541.056,106.192 "/>
<polyline clip-path="url(#clip562)" style="stroke:#000000; stroke-linecap:round; stroke-linejoin:round; stroke-width:2; stroke-opacity:0.1; fill:none" points="916.408,1486.45 916.408,106.192 "/>
<polyline clip-path="url(#clip562)" style="stroke:#000000; stroke-linecap:round; stroke-linejoin:round; stroke-width:2; stroke-opacity:0.1; fill:none" points="1291.76,1486.45 1291.76,106.192 "/>
<polyline clip-path="url(#clip562)" style="stroke:#000000; stroke-linecap:round; stroke-linejoin:round; stroke-width:2; stroke-opacity:0.1; fill:none" points="1667.11,1486.45 1667.11,106.192 "/>
<polyline clip-path="url(#clip562)" style="stroke:#000000; stroke-linecap:round; stroke-linejoin:round; stroke-width:2; stroke-opacity:0.1; fill:none" points="2042.46,1486.45 2042.46,106.192 "/>
<polyline clip-path="url(#clip562)" style="stroke:#000000; stroke-linecap:round; stroke-linejoin:round; stroke-width:2; stroke-opacity:0.1; fill:none" points="230.765,1297.99 2352.76,1297.99 "/>
<polyline clip-path="url(#clip562)" style="stroke:#000000; stroke-linecap:round; stroke-linejoin:round; stroke-width:2; stroke-opacity:0.1; fill:none" points="230.765,1095.33 2352.76,1095.33 "/>
<polyline clip-path="url(#clip562)" style="stroke:#000000; stroke-linecap:round; stroke-linejoin:round; stroke-width:2; stroke-opacity:0.1; fill:none" points="230.765,892.668 2352.76,892.668 "/>
<polyline clip-path="url(#clip562)" style="stroke:#000000; stroke-linecap:round; stroke-linejoin:round; stroke-width:2; stroke-opacity:0.1; fill:none" points="230.765,690.008 2352.76,690.008 "/>
<polyline clip-path="url(#clip562)" style="stroke:#000000; stroke-linecap:round; stroke-linejoin:round; stroke-width:2; stroke-opacity:0.1; fill:none" points="230.765,487.347 2352.76,487.347 "/>
<polyline clip-path="url(#clip562)" style="stroke:#000000; stroke-linecap:round; stroke-linejoin:round; stroke-width:2; stroke-opacity:0.1; fill:none" points="230.765,284.686 2352.76,284.686 "/>
<polyline clip-path="url(#clip560)" style="stroke:#000000; stroke-linecap:round; stroke-linejoin:round; stroke-width:4; stroke-opacity:1; fill:none" points="230.765,1486.45 2352.76,1486.45 "/>
<polyline clip-path="url(#clip560)" style="stroke:#000000; stroke-linecap:round; stroke-linejoin:round; stroke-width:4; stroke-opacity:1; fill:none" points="541.056,1486.45 541.056,1467.55 "/>
<polyline clip-path="url(#clip560)" style="stroke:#000000; stroke-linecap:round; stroke-linejoin:round; stroke-width:4; stroke-opacity:1; fill:none" points="916.408,1486.45 916.408,1467.55 "/>
<polyline clip-path="url(#clip560)" style="stroke:#000000; stroke-linecap:round; stroke-linejoin:round; stroke-width:4; stroke-opacity:1; fill:none" points="1291.76,1486.45 1291.76,1467.55 "/>
<polyline clip-path="url(#clip560)" style="stroke:#000000; stroke-linecap:round; stroke-linejoin:round; stroke-width:4; stroke-opacity:1; fill:none" points="1667.11,1486.45 1667.11,1467.55 "/>
<polyline clip-path="url(#clip560)" style="stroke:#000000; stroke-linecap:round; stroke-linejoin:round; stroke-width:4; stroke-opacity:1; fill:none" points="2042.46,1486.45 2042.46,1467.55 "/>
<path clip-path="url(#clip560)" d="M545.303 1530.21 Q548.66 1530.93 550.535 1533.2 Q552.433 1535.47 552.433 1538.8 Q552.433 1543.92 548.914 1546.72 Q545.396 1549.52 538.915 1549.52 Q536.739 1549.52 534.424 1549.08 Q532.132 1548.66 529.678 1547.81 L529.678 1543.29 Q531.623 1544.43 533.938 1545.01 Q536.252 1545.58 538.776 1545.58 Q543.174 1545.58 545.465 1543.85 Q547.78 1542.11 547.78 1538.8 Q547.78 1535.75 545.627 1534.03 Q543.498 1532.3 539.678 1532.3 L535.651 1532.3 L535.651 1528.45 L539.864 1528.45 Q543.313 1528.45 545.141 1527.09 Q546.97 1525.7 546.97 1523.11 Q546.97 1520.45 545.072 1519.03 Q543.197 1517.6 539.678 1517.6 Q537.757 1517.6 535.558 1518.01 Q533.359 1518.43 530.72 1519.31 L530.72 1515.14 Q533.382 1514.4 535.697 1514.03 Q538.035 1513.66 540.095 1513.66 Q545.419 1513.66 548.521 1516.09 Q551.623 1518.5 551.623 1522.62 Q551.623 1525.49 549.979 1527.48 Q548.336 1529.45 545.303 1530.21 Z" fill="#000000" fill-rule="nonzero" fill-opacity="1" /><path clip-path="url(#clip560)" d="M916.813 1529.7 Q913.665 1529.7 911.813 1531.86 Q909.984 1534.01 909.984 1537.76 Q909.984 1541.49 911.813 1543.66 Q913.665 1545.82 916.813 1545.82 Q919.961 1545.82 921.79 1543.66 Q923.642 1541.49 923.642 1537.76 Q923.642 1534.01 921.79 1531.86 Q919.961 1529.7 916.813 1529.7 M926.095 1515.05 L926.095 1519.31 Q924.336 1518.48 922.531 1518.04 Q920.748 1517.6 918.989 1517.6 Q914.359 1517.6 911.906 1520.72 Q909.475 1523.85 909.128 1530.17 Q910.494 1528.15 912.554 1527.09 Q914.614 1526 917.091 1526 Q922.299 1526 925.308 1529.17 Q928.341 1532.32 928.341 1537.76 Q928.341 1543.08 925.193 1546.3 Q922.044 1549.52 916.813 1549.52 Q910.818 1549.52 907.646 1544.94 Q904.475 1540.33 904.475 1531.6 Q904.475 1523.41 908.364 1518.55 Q912.253 1513.66 918.804 1513.66 Q920.563 1513.66 922.345 1514.01 Q924.151 1514.36 926.095 1515.05 Z" fill="#000000" fill-rule="nonzero" fill-opacity="1" /><path clip-path="url(#clip560)" d="M1282.06 1548.13 L1282.06 1543.87 Q1283.82 1544.7 1285.63 1545.14 Q1287.43 1545.58 1289.17 1545.58 Q1293.8 1545.58 1296.23 1542.48 Q1298.68 1539.36 1299.03 1533.01 Q1297.69 1535.01 1295.63 1536.07 Q1293.57 1537.13 1291.07 1537.13 Q1285.88 1537.13 1282.85 1534.01 Q1279.84 1530.86 1279.84 1525.42 Q1279.84 1520.1 1282.99 1516.88 Q1286.14 1513.66 1291.37 1513.66 Q1297.36 1513.66 1300.51 1518.27 Q1303.68 1522.85 1303.68 1531.6 Q1303.68 1539.77 1299.79 1544.66 Q1295.93 1549.52 1289.38 1549.52 Q1287.62 1549.52 1285.81 1549.17 Q1284.01 1548.82 1282.06 1548.13 M1291.37 1533.48 Q1294.51 1533.48 1296.34 1531.32 Q1298.2 1529.17 1298.2 1525.42 Q1298.2 1521.7 1296.34 1519.54 Q1294.51 1517.37 1291.37 1517.37 Q1288.22 1517.37 1286.37 1519.54 Q1284.54 1521.7 1284.54 1525.42 Q1284.54 1529.17 1286.37 1531.32 Q1288.22 1533.48 1291.37 1533.48 Z" fill="#000000" fill-rule="nonzero" fill-opacity="1" /><path clip-path="url(#clip560)" d="M1642.6 1544.91 L1650.24 1544.91 L1650.24 1518.55 L1641.93 1520.21 L1641.93 1515.95 L1650.19 1514.29 L1654.87 1514.29 L1654.87 1544.91 L1662.51 1544.91 L1662.51 1548.85 L1642.6 1548.85 L1642.6 1544.91 Z" fill="#000000" fill-rule="nonzero" fill-opacity="1" /><path clip-path="url(#clip560)" d="M1675.98 1544.91 L1692.3 1544.91 L1692.3 1548.85 L1670.35 1548.85 L1670.35 1544.91 Q1673.02 1542.16 1677.6 1537.53 Q1682.2 1532.88 1683.39 1531.53 Q1685.63 1529.01 1686.51 1527.27 Q1687.41 1525.51 1687.41 1523.82 Q1687.41 1521.07 1685.47 1519.33 Q1683.55 1517.6 1680.45 1517.6 Q1678.25 1517.6 1675.79 1518.36 Q1673.36 1519.13 1670.58 1520.68 L1670.58 1515.95 Q1673.41 1514.82 1675.86 1514.24 Q1678.32 1513.66 1680.35 1513.66 Q1685.72 1513.66 1688.92 1516.35 Q1692.11 1519.03 1692.11 1523.52 Q1692.11 1525.65 1691.3 1527.57 Q1690.52 1529.47 1688.41 1532.07 Q1687.83 1532.74 1684.73 1535.95 Q1681.63 1539.15 1675.98 1544.91 Z" fill="#000000" fill-rule="nonzero" fill-opacity="1" /><path clip-path="url(#clip560)" d="M2017.65 1544.91 L2025.29 1544.91 L2025.29 1518.55 L2016.98 1520.21 L2016.98 1515.95 L2025.24 1514.29 L2029.92 1514.29 L2029.92 1544.91 L2037.56 1544.91 L2037.56 1548.85 L2017.65 1548.85 L2017.65 1544.91 Z" fill="#000000" fill-rule="nonzero" fill-opacity="1" /><path clip-path="url(#clip560)" d="M2047.05 1514.29 L2065.4 1514.29 L2065.4 1518.22 L2051.33 1518.22 L2051.33 1526.7 Q2052.35 1526.35 2053.37 1526.19 Q2054.39 1526 2055.4 1526 Q2061.19 1526 2064.57 1529.17 Q2067.95 1532.34 2067.95 1537.76 Q2067.95 1543.34 2064.48 1546.44 Q2061.01 1549.52 2054.69 1549.52 Q2052.51 1549.52 2050.24 1549.15 Q2048 1548.78 2045.59 1548.04 L2045.59 1543.34 Q2047.67 1544.47 2049.9 1545.03 Q2052.12 1545.58 2054.59 1545.58 Q2058.6 1545.58 2060.94 1543.48 Q2063.27 1541.37 2063.27 1537.76 Q2063.27 1534.15 2060.94 1532.04 Q2058.6 1529.94 2054.59 1529.94 Q2052.72 1529.94 2050.84 1530.35 Q2048.99 1530.77 2047.05 1531.65 L2047.05 1514.29 Z" fill="#000000" fill-rule="nonzero" fill-opacity="1" /><polyline clip-path="url(#clip560)" style="stroke:#000000; stroke-linecap:round; stroke-linejoin:round; stroke-width:4; stroke-opacity:1; fill:none" points="230.765,1486.45 230.765,106.192 "/>
<polyline clip-path="url(#clip560)" style="stroke:#000000; stroke-linecap:round; stroke-linejoin:round; stroke-width:4; stroke-opacity:1; fill:none" points="230.765,1297.99 249.662,1297.99 "/>
<polyline clip-path="url(#clip560)" style="stroke:#000000; stroke-linecap:round; stroke-linejoin:round; stroke-width:4; stroke-opacity:1; fill:none" points="230.765,1095.33 249.662,1095.33 "/>
<polyline clip-path="url(#clip560)" style="stroke:#000000; stroke-linecap:round; stroke-linejoin:round; stroke-width:4; stroke-opacity:1; fill:none" points="230.765,892.668 249.662,892.668 "/>
<polyline clip-path="url(#clip560)" style="stroke:#000000; stroke-linecap:round; stroke-linejoin:round; stroke-width:4; stroke-opacity:1; fill:none" points="230.765,690.008 249.662,690.008 "/>
<polyline clip-path="url(#clip560)" style="stroke:#000000; stroke-linecap:round; stroke-linejoin:round; stroke-width:4; stroke-opacity:1; fill:none" points="230.765,487.347 249.662,487.347 "/>
<polyline clip-path="url(#clip560)" style="stroke:#000000; stroke-linecap:round; stroke-linejoin:round; stroke-width:4; stroke-opacity:1; fill:none" points="230.765,284.686 249.662,284.686 "/>
<path clip-path="url(#clip560)" d="M50.9921 1280.71 L73.2142 1280.71 L73.2142 1282.7 L60.668 1315.27 L55.7838 1315.27 L67.5893 1284.64 L50.9921 1284.64 L50.9921 1280.71 Z" fill="#000000" fill-rule="nonzero" fill-opacity="1" /><path clip-path="url(#clip560)" d="M83.1447 1311.33 L90.7836 1311.33 L90.7836 1284.97 L82.4734 1286.64 L82.4734 1282.38 L90.7373 1280.71 L95.4132 1280.71 L95.4132 1311.33 L103.052 1311.33 L103.052 1315.27 L83.1447 1315.27 L83.1447 1311.33 Z" fill="#000000" fill-rule="nonzero" fill-opacity="1" /><path clip-path="url(#clip560)" d="M122.496 1283.79 Q118.885 1283.79 117.057 1287.35 Q115.251 1290.89 115.251 1298.02 Q115.251 1305.13 117.057 1308.7 Q118.885 1312.24 122.496 1312.24 Q126.131 1312.24 127.936 1308.7 Q129.765 1305.13 129.765 1298.02 Q129.765 1290.89 127.936 1287.35 Q126.131 1283.79 122.496 1283.79 M122.496 1280.08 Q128.307 1280.08 131.362 1284.69 Q134.441 1289.27 134.441 1298.02 Q134.441 1306.75 131.362 1311.36 Q128.307 1315.94 122.496 1315.94 Q116.686 1315.94 113.608 1311.36 Q110.552 1306.75 110.552 1298.02 Q110.552 1289.27 113.608 1284.69 Q116.686 1280.08 122.496 1280.08 Z" fill="#000000" fill-rule="nonzero" fill-opacity="1" /><path clip-path="url(#clip560)" d="M152.658 1283.79 Q149.047 1283.79 147.218 1287.35 Q145.413 1290.89 145.413 1298.02 Q145.413 1305.13 147.218 1308.7 Q149.047 1312.24 152.658 1312.24 Q156.292 1312.24 158.098 1308.7 Q159.927 1305.13 159.927 1298.02 Q159.927 1290.89 158.098 1287.35 Q156.292 1283.79 152.658 1283.79 M152.658 1280.08 Q158.468 1280.08 161.524 1284.69 Q164.603 1289.27 164.603 1298.02 Q164.603 1306.75 161.524 1311.36 Q158.468 1315.94 152.658 1315.94 Q146.848 1315.94 143.769 1311.36 Q140.714 1306.75 140.714 1298.02 Q140.714 1289.27 143.769 1284.69 Q146.848 1280.08 152.658 1280.08 Z" fill="#000000" fill-rule="nonzero" fill-opacity="1" /><path clip-path="url(#clip560)" d="M182.82 1283.79 Q179.209 1283.79 177.38 1287.35 Q175.575 1290.89 175.575 1298.02 Q175.575 1305.13 177.38 1308.7 Q179.209 1312.24 182.82 1312.24 Q186.454 1312.24 188.26 1308.7 Q190.089 1305.13 190.089 1298.02 Q190.089 1290.89 188.26 1287.35 Q186.454 1283.79 182.82 1283.79 M182.82 1280.08 Q188.63 1280.08 191.686 1284.69 Q194.765 1289.27 194.765 1298.02 Q194.765 1306.75 191.686 1311.36 Q188.63 1315.94 182.82 1315.94 Q177.01 1315.94 173.931 1311.36 Q170.876 1306.75 170.876 1298.02 Q170.876 1289.27 173.931 1284.69 Q177.01 1280.08 182.82 1280.08 Z" fill="#000000" fill-rule="nonzero" fill-opacity="1" /><path clip-path="url(#clip560)" d="M50.9921 1078.05 L73.2142 1078.05 L73.2142 1080.04 L60.668 1112.61 L55.7838 1112.61 L67.5893 1081.98 L50.9921 1081.98 L50.9921 1078.05 Z" fill="#000000" fill-rule="nonzero" fill-opacity="1" /><path clip-path="url(#clip560)" d="M83.1447 1108.67 L90.7836 1108.67 L90.7836 1082.31 L82.4734 1083.97 L82.4734 1079.72 L90.7373 1078.05 L95.4132 1078.05 L95.4132 1108.67 L103.052 1108.67 L103.052 1112.61 L83.1447 1112.61 L83.1447 1108.67 Z" fill="#000000" fill-rule="nonzero" fill-opacity="1" /><path clip-path="url(#clip560)" d="M116.524 1108.67 L132.844 1108.67 L132.844 1112.61 L110.899 1112.61 L110.899 1108.67 Q113.561 1105.92 118.145 1101.29 Q122.751 1096.64 123.932 1095.29 Q126.177 1092.77 127.057 1091.03 Q127.959 1089.28 127.959 1087.59 Q127.959 1084.83 126.015 1083.09 Q124.094 1081.36 120.992 1081.36 Q118.793 1081.36 116.339 1082.12 Q113.908 1082.89 111.131 1084.44 L111.131 1079.72 Q113.955 1078.58 116.408 1078 Q118.862 1077.42 120.899 1077.42 Q126.27 1077.42 129.464 1080.11 Q132.658 1082.79 132.658 1087.28 Q132.658 1089.41 131.848 1091.34 Q131.061 1093.23 128.955 1095.83 Q128.376 1096.5 125.274 1099.72 Q122.172 1102.91 116.524 1108.67 Z" fill="#000000" fill-rule="nonzero" fill-opacity="1" /><path clip-path="url(#clip560)" d="M142.705 1078.05 L161.061 1078.05 L161.061 1081.98 L146.987 1081.98 L146.987 1090.46 Q148.005 1090.11 149.024 1089.95 Q150.043 1089.76 151.061 1089.76 Q156.848 1089.76 160.228 1092.93 Q163.607 1096.1 163.607 1101.52 Q163.607 1107.1 160.135 1110.2 Q156.663 1113.28 150.343 1113.28 Q148.168 1113.28 145.899 1112.91 Q143.654 1112.54 141.246 1111.8 L141.246 1107.1 Q143.33 1108.23 145.552 1108.79 Q147.774 1109.34 150.251 1109.34 Q154.255 1109.34 156.593 1107.24 Q158.931 1105.13 158.931 1101.52 Q158.931 1097.91 156.593 1095.8 Q154.255 1093.7 150.251 1093.7 Q148.376 1093.7 146.501 1094.11 Q144.649 1094.53 142.705 1095.41 L142.705 1078.05 Z" fill="#000000" fill-rule="nonzero" fill-opacity="1" /><path clip-path="url(#clip560)" d="M182.82 1081.13 Q179.209 1081.13 177.38 1084.69 Q175.575 1088.23 175.575 1095.36 Q175.575 1102.47 177.38 1106.03 Q179.209 1109.58 182.82 1109.58 Q186.454 1109.58 188.26 1106.03 Q190.089 1102.47 190.089 1095.36 Q190.089 1088.23 188.26 1084.69 Q186.454 1081.13 182.82 1081.13 M182.82 1077.42 Q188.63 1077.42 191.686 1082.03 Q194.765 1086.61 194.765 1095.36 Q194.765 1104.09 191.686 1108.7 Q188.63 1113.28 182.82 1113.28 Q177.01 1113.28 173.931 1108.7 Q170.876 1104.09 170.876 1095.36 Q170.876 1086.61 173.931 1082.03 Q177.01 1077.42 182.82 1077.42 Z" fill="#000000" fill-rule="nonzero" fill-opacity="1" /><path clip-path="url(#clip560)" d="M50.9921 875.388 L73.2142 875.388 L73.2142 877.379 L60.668 909.948 L55.7838 909.948 L67.5893 879.323 L50.9921 879.323 L50.9921 875.388 Z" fill="#000000" fill-rule="nonzero" fill-opacity="1" /><path clip-path="url(#clip560)" d="M83.1447 906.013 L90.7836 906.013 L90.7836 879.647 L82.4734 881.314 L82.4734 877.055 L90.7373 875.388 L95.4132 875.388 L95.4132 906.013 L103.052 906.013 L103.052 909.948 L83.1447 909.948 L83.1447 906.013 Z" fill="#000000" fill-rule="nonzero" fill-opacity="1" /><path clip-path="url(#clip560)" d="M112.543 875.388 L130.899 875.388 L130.899 879.323 L116.825 879.323 L116.825 887.795 Q117.844 887.448 118.862 887.286 Q119.881 887.101 120.899 887.101 Q126.686 887.101 130.066 890.272 Q133.445 893.444 133.445 898.86 Q133.445 904.439 129.973 907.541 Q126.501 910.619 120.182 910.619 Q118.006 910.619 115.737 910.249 Q113.492 909.879 111.084 909.138 L111.084 904.439 Q113.168 905.573 115.39 906.129 Q117.612 906.684 120.089 906.684 Q124.094 906.684 126.432 904.578 Q128.769 902.471 128.769 898.86 Q128.769 895.249 126.432 893.143 Q124.094 891.036 120.089 891.036 Q118.214 891.036 116.339 891.453 Q114.487 891.87 112.543 892.749 L112.543 875.388 Z" fill="#000000" fill-rule="nonzero" fill-opacity="1" /><path clip-path="url(#clip560)" d="M152.658 878.467 Q149.047 878.467 147.218 882.032 Q145.413 885.573 145.413 892.703 Q145.413 899.809 147.218 903.374 Q149.047 906.916 152.658 906.916 Q156.292 906.916 158.098 903.374 Q159.927 899.809 159.927 892.703 Q159.927 885.573 158.098 882.032 Q156.292 878.467 152.658 878.467 M152.658 874.763 Q158.468 874.763 161.524 879.37 Q164.603 883.953 164.603 892.703 Q164.603 901.43 161.524 906.036 Q158.468 910.619 152.658 910.619 Q146.848 910.619 143.769 906.036 Q140.714 901.43 140.714 892.703 Q140.714 883.953 143.769 879.37 Q146.848 874.763 152.658 874.763 Z" fill="#000000" fill-rule="nonzero" fill-opacity="1" /><path clip-path="url(#clip560)" d="M182.82 878.467 Q179.209 878.467 177.38 882.032 Q175.575 885.573 175.575 892.703 Q175.575 899.809 177.38 903.374 Q179.209 906.916 182.82 906.916 Q186.454 906.916 188.26 903.374 Q190.089 899.809 190.089 892.703 Q190.089 885.573 188.26 882.032 Q186.454 878.467 182.82 878.467 M182.82 874.763 Q188.63 874.763 191.686 879.37 Q194.765 883.953 194.765 892.703 Q194.765 901.43 191.686 906.036 Q188.63 910.619 182.82 910.619 Q177.01 910.619 173.931 906.036 Q170.876 901.43 170.876 892.703 Q170.876 883.953 173.931 879.37 Q177.01 874.763 182.82 874.763 Z" fill="#000000" fill-rule="nonzero" fill-opacity="1" /><path clip-path="url(#clip560)" d="M50.9921 672.728 L73.2142 672.728 L73.2142 674.718 L60.668 707.288 L55.7838 707.288 L67.5893 676.663 L50.9921 676.663 L50.9921 672.728 Z" fill="#000000" fill-rule="nonzero" fill-opacity="1" /><path clip-path="url(#clip560)" d="M83.1447 703.352 L90.7836 703.352 L90.7836 676.987 L82.4734 678.653 L82.4734 674.394 L90.7373 672.728 L95.4132 672.728 L95.4132 703.352 L103.052 703.352 L103.052 707.288 L83.1447 707.288 L83.1447 703.352 Z" fill="#000000" fill-rule="nonzero" fill-opacity="1" /><path clip-path="url(#clip560)" d="M111.316 672.728 L133.538 672.728 L133.538 674.718 L120.992 707.288 L116.108 707.288 L127.913 676.663 L111.316 676.663 L111.316 672.728 Z" fill="#000000" fill-rule="nonzero" fill-opacity="1" /><path clip-path="url(#clip560)" d="M142.705 672.728 L161.061 672.728 L161.061 676.663 L146.987 676.663 L146.987 685.135 Q148.005 684.788 149.024 684.626 Q150.043 684.44 151.061 684.44 Q156.848 684.44 160.228 687.612 Q163.607 690.783 163.607 696.2 Q163.607 701.778 160.135 704.88 Q156.663 707.959 150.343 707.959 Q148.168 707.959 145.899 707.588 Q143.654 707.218 141.246 706.477 L141.246 701.778 Q143.33 702.913 145.552 703.468 Q147.774 704.024 150.251 704.024 Q154.255 704.024 156.593 701.917 Q158.931 699.811 158.931 696.2 Q158.931 692.589 156.593 690.482 Q154.255 688.376 150.251 688.376 Q148.376 688.376 146.501 688.792 Q144.649 689.209 142.705 690.089 L142.705 672.728 Z" fill="#000000" fill-rule="nonzero" fill-opacity="1" /><path clip-path="url(#clip560)" d="M182.82 675.806 Q179.209 675.806 177.38 679.371 Q175.575 682.913 175.575 690.042 Q175.575 697.149 177.38 700.714 Q179.209 704.255 182.82 704.255 Q186.454 704.255 188.26 700.714 Q190.089 697.149 190.089 690.042 Q190.089 682.913 188.26 679.371 Q186.454 675.806 182.82 675.806 M182.82 672.103 Q188.63 672.103 191.686 676.709 Q194.765 681.292 194.765 690.042 Q194.765 698.769 191.686 703.376 Q188.63 707.959 182.82 707.959 Q177.01 707.959 173.931 703.376 Q170.876 698.769 170.876 690.042 Q170.876 681.292 173.931 676.709 Q177.01 672.103 182.82 672.103 Z" fill="#000000" fill-rule="nonzero" fill-opacity="1" /><path clip-path="url(#clip560)" d="M50.9921 470.067 L73.2142 470.067 L73.2142 472.058 L60.668 504.627 L55.7838 504.627 L67.5893 474.002 L50.9921 474.002 L50.9921 470.067 Z" fill="#000000" fill-rule="nonzero" fill-opacity="1" /><path clip-path="url(#clip560)" d="M86.3623 500.692 L102.682 500.692 L102.682 504.627 L80.7373 504.627 L80.7373 500.692 Q83.3994 497.937 87.9827 493.308 Q92.5891 488.655 93.7697 487.312 Q96.015 484.789 96.8947 483.053 Q97.7974 481.294 97.7974 479.604 Q97.7974 476.849 95.853 475.113 Q93.9317 473.377 90.8299 473.377 Q88.6308 473.377 86.1771 474.141 Q83.7466 474.905 80.9688 476.456 L80.9688 471.734 Q83.7929 470.599 86.2466 470.021 Q88.7003 469.442 90.7373 469.442 Q96.1076 469.442 99.3021 472.127 Q102.496 474.812 102.496 479.303 Q102.496 481.433 101.686 483.354 Q100.899 485.252 98.7928 487.845 Q98.2141 488.516 95.1123 491.734 Q92.0104 494.928 86.3623 500.692 Z" fill="#000000" fill-rule="nonzero" fill-opacity="1" /><path clip-path="url(#clip560)" d="M122.496 473.146 Q118.885 473.146 117.057 476.71 Q115.251 480.252 115.251 487.382 Q115.251 494.488 117.057 498.053 Q118.885 501.595 122.496 501.595 Q126.131 501.595 127.936 498.053 Q129.765 494.488 129.765 487.382 Q129.765 480.252 127.936 476.71 Q126.131 473.146 122.496 473.146 M122.496 469.442 Q128.307 469.442 131.362 474.048 Q134.441 478.632 134.441 487.382 Q134.441 496.109 131.362 500.715 Q128.307 505.298 122.496 505.298 Q116.686 505.298 113.608 500.715 Q110.552 496.109 110.552 487.382 Q110.552 478.632 113.608 474.048 Q116.686 469.442 122.496 469.442 Z" fill="#000000" fill-rule="nonzero" fill-opacity="1" /><path clip-path="url(#clip560)" d="M152.658 473.146 Q149.047 473.146 147.218 476.71 Q145.413 480.252 145.413 487.382 Q145.413 494.488 147.218 498.053 Q149.047 501.595 152.658 501.595 Q156.292 501.595 158.098 498.053 Q159.927 494.488 159.927 487.382 Q159.927 480.252 158.098 476.71 Q156.292 473.146 152.658 473.146 M152.658 469.442 Q158.468 469.442 161.524 474.048 Q164.603 478.632 164.603 487.382 Q164.603 496.109 161.524 500.715 Q158.468 505.298 152.658 505.298 Q146.848 505.298 143.769 500.715 Q140.714 496.109 140.714 487.382 Q140.714 478.632 143.769 474.048 Q146.848 469.442 152.658 469.442 Z" fill="#000000" fill-rule="nonzero" fill-opacity="1" /><path clip-path="url(#clip560)" d="M182.82 473.146 Q179.209 473.146 177.38 476.71 Q175.575 480.252 175.575 487.382 Q175.575 494.488 177.38 498.053 Q179.209 501.595 182.82 501.595 Q186.454 501.595 188.26 498.053 Q190.089 494.488 190.089 487.382 Q190.089 480.252 188.26 476.71 Q186.454 473.146 182.82 473.146 M182.82 469.442 Q188.63 469.442 191.686 474.048 Q194.765 478.632 194.765 487.382 Q194.765 496.109 191.686 500.715 Q188.63 505.298 182.82 505.298 Q177.01 505.298 173.931 500.715 Q170.876 496.109 170.876 487.382 Q170.876 478.632 173.931 474.048 Q177.01 469.442 182.82 469.442 Z" fill="#000000" fill-rule="nonzero" fill-opacity="1" /><path clip-path="url(#clip560)" d="M50.9921 267.406 L73.2142 267.406 L73.2142 269.397 L60.668 301.966 L55.7838 301.966 L67.5893 271.342 L50.9921 271.342 L50.9921 267.406 Z" fill="#000000" fill-rule="nonzero" fill-opacity="1" /><path clip-path="url(#clip560)" d="M86.3623 298.031 L102.682 298.031 L102.682 301.966 L80.7373 301.966 L80.7373 298.031 Q83.3994 295.277 87.9827 290.647 Q92.5891 285.994 93.7697 284.652 Q96.015 282.129 96.8947 280.392 Q97.7974 278.633 97.7974 276.943 Q97.7974 274.189 95.853 272.453 Q93.9317 270.717 90.8299 270.717 Q88.6308 270.717 86.1771 271.48 Q83.7466 272.244 80.9688 273.795 L80.9688 269.073 Q83.7929 267.939 86.2466 267.36 Q88.7003 266.781 90.7373 266.781 Q96.1076 266.781 99.3021 269.467 Q102.496 272.152 102.496 276.642 Q102.496 278.772 101.686 280.693 Q100.899 282.592 98.7928 285.184 Q98.2141 285.855 95.1123 289.073 Q92.0104 292.267 86.3623 298.031 Z" fill="#000000" fill-rule="nonzero" fill-opacity="1" /><path clip-path="url(#clip560)" d="M116.524 298.031 L132.844 298.031 L132.844 301.966 L110.899 301.966 L110.899 298.031 Q113.561 295.277 118.145 290.647 Q122.751 285.994 123.932 284.652 Q126.177 282.129 127.057 280.392 Q127.959 278.633 127.959 276.943 Q127.959 274.189 126.015 272.453 Q124.094 270.717 120.992 270.717 Q118.793 270.717 116.339 271.48 Q113.908 272.244 111.131 273.795 L111.131 269.073 Q113.955 267.939 116.408 267.36 Q118.862 266.781 120.899 266.781 Q126.27 266.781 129.464 269.467 Q132.658 272.152 132.658 276.642 Q132.658 278.772 131.848 280.693 Q131.061 282.592 128.955 285.184 Q128.376 285.855 125.274 289.073 Q122.172 292.267 116.524 298.031 Z" fill="#000000" fill-rule="nonzero" fill-opacity="1" /><path clip-path="url(#clip560)" d="M142.705 267.406 L161.061 267.406 L161.061 271.342 L146.987 271.342 L146.987 279.814 Q148.005 279.467 149.024 279.305 Q150.043 279.119 151.061 279.119 Q156.848 279.119 160.228 282.291 Q163.607 285.462 163.607 290.879 Q163.607 296.457 160.135 299.559 Q156.663 302.638 150.343 302.638 Q148.168 302.638 145.899 302.267 Q143.654 301.897 141.246 301.156 L141.246 296.457 Q143.33 297.591 145.552 298.147 Q147.774 298.703 150.251 298.703 Q154.255 298.703 156.593 296.596 Q158.931 294.49 158.931 290.879 Q158.931 287.267 156.593 285.161 Q154.255 283.055 150.251 283.055 Q148.376 283.055 146.501 283.471 Q144.649 283.888 142.705 284.767 L142.705 267.406 Z" fill="#000000" fill-rule="nonzero" fill-opacity="1" /><path clip-path="url(#clip560)" d="M182.82 270.485 Q179.209 270.485 177.38 274.05 Q175.575 277.592 175.575 284.721 Q175.575 291.828 177.38 295.392 Q179.209 298.934 182.82 298.934 Q186.454 298.934 188.26 295.392 Q190.089 291.828 190.089 284.721 Q190.089 277.592 188.26 274.05 Q186.454 270.485 182.82 270.485 M182.82 266.781 Q188.63 266.781 191.686 271.388 Q194.765 275.971 194.765 284.721 Q194.765 293.448 191.686 298.054 Q188.63 302.638 182.82 302.638 Q177.01 302.638 173.931 298.054 Q170.876 293.448 170.876 284.721 Q170.876 275.971 173.931 271.388 Q177.01 266.781 182.82 266.781 Z" fill="#000000" fill-rule="nonzero" fill-opacity="1" /><path clip-path="url(#clip560)" d="M1262.23 35.2602 Q1262.23 29.4732 1259.83 26.2904 Q1257.46 23.1075 1253.15 23.1075 Q1248.86 23.1075 1246.46 26.2904 Q1244.09 29.4732 1244.09 35.2602 Q1244.09 41.0183 1246.46 44.2012 Q1248.86 47.384 1253.15 47.384 Q1257.46 47.384 1259.83 44.2012 Q1262.23 41.0183 1262.23 35.2602 M1267.56 47.818 Q1267.56 56.0934 1263.88 60.1154 Q1260.21 64.1663 1252.63 64.1663 Q1249.82 64.1663 1247.33 63.7323 Q1244.84 63.3272 1242.5 62.4592 L1242.5 57.2798 Q1244.84 58.5529 1247.13 59.1606 Q1249.41 59.7682 1251.79 59.7682 Q1257.02 59.7682 1259.63 57.0194 Q1262.23 54.2995 1262.23 48.7729 L1262.23 46.1398 Q1260.58 49.0044 1258.01 50.4222 Q1255.43 51.84 1251.84 51.84 Q1245.88 51.84 1242.24 47.2972 Q1238.59 42.7544 1238.59 35.2602 Q1238.59 27.7371 1242.24 23.1943 Q1245.88 18.6515 1251.84 18.6515 Q1255.43 18.6515 1258.01 20.0693 Q1260.58 21.4872 1262.23 24.3517 L1262.23 19.4328 L1267.56 19.4328 L1267.56 47.818 Z" fill="#000000" fill-rule="nonzero" fill-opacity="1" /><path clip-path="url(#clip560)" d="M1299.85 24.3517 L1299.85 6.81709 L1305.17 6.81709 L1305.17 51.84 L1299.85 51.84 L1299.85 46.9789 Q1298.17 49.8724 1295.59 51.2902 Q1293.05 52.6791 1289.46 52.6791 Q1283.59 52.6791 1279.88 47.9916 Q1276.21 43.3042 1276.21 35.6653 Q1276.21 28.0265 1279.88 23.339 Q1283.59 18.6515 1289.46 18.6515 Q1293.05 18.6515 1295.59 20.0693 Q1298.17 21.4582 1299.85 24.3517 M1281.71 35.6653 Q1281.71 41.5391 1284.11 44.8956 Q1286.54 48.2231 1290.76 48.2231 Q1294.99 48.2231 1297.42 44.8956 Q1299.85 41.5391 1299.85 35.6653 Q1299.85 29.7915 1297.42 26.464 Q1294.99 23.1075 1290.76 23.1075 Q1286.54 23.1075 1284.11 26.464 Q1281.71 29.7915 1281.71 35.6653 Z" fill="#000000" fill-rule="nonzero" fill-opacity="1" /><path clip-path="url(#clip560)" d="M1321.29 46.9789 L1321.29 64.1663 L1315.94 64.1663 L1315.94 19.4328 L1321.29 19.4328 L1321.29 24.3517 Q1322.97 21.4582 1325.51 20.0693 Q1328.09 18.6515 1331.65 18.6515 Q1337.55 18.6515 1341.22 23.339 Q1344.93 28.0265 1344.93 35.6653 Q1344.93 43.3042 1341.22 47.9916 Q1337.55 52.6791 1331.65 52.6791 Q1328.09 52.6791 1325.51 51.2902 Q1322.97 49.8724 1321.29 46.9789 M1339.4 35.6653 Q1339.4 29.7915 1336.97 26.464 Q1334.57 23.1075 1330.35 23.1075 Q1326.12 23.1075 1323.69 26.464 Q1321.29 29.7915 1321.29 35.6653 Q1321.29 41.5391 1323.69 44.8956 Q1326.12 48.2231 1330.35 48.2231 Q1334.57 48.2231 1336.97 44.8956 Q1339.4 41.5391 1339.4 35.6653 Z" fill="#000000" fill-rule="nonzero" fill-opacity="1" /><polyline clip-path="url(#clip562)" style="stroke:#009af9; stroke-linecap:round; stroke-linejoin:round; stroke-width:4; stroke-opacity:1; fill:none" points="290.821,145.256 415.938,201.896 541.056,803.128 666.173,518.192 791.291,777.246 916.408,922.123 1041.53,882.506 1166.64,930.764 1291.76,1447.38 1416.88,1093.07 1542,290.303 1667.11,283.65 1792.23,383.581 1917.35,176.58 2042.46,238.22 2167.58,810.138 2292.7,610.13 "/>
<path clip-path="url(#clip560)" d="M2017.39 1440.44 L2282.02 1440.44 L2282.02 1336.76 L2017.39 1336.76  Z" fill="#ffffff" fill-rule="evenodd" fill-opacity="1"/>
<polyline clip-path="url(#clip560)" style="stroke:#000000; stroke-linecap:round; stroke-linejoin:round; stroke-width:4; stroke-opacity:1; fill:none" points="2017.39,1440.44 2282.02,1440.44 2282.02,1336.76 2017.39,1336.76 2017.39,1440.44 "/>
<polyline clip-path="url(#clip560)" style="stroke:#009af9; stroke-linecap:round; stroke-linejoin:round; stroke-width:4; stroke-opacity:1; fill:none" points="2040.97,1388.6 2182.44,1388.6 "/>
<path clip-path="url(#clip560)" d="M2219.86 1408.29 Q2218.05 1412.92 2216.34 1414.33 Q2214.63 1415.74 2211.76 1415.74 L2208.35 1415.74 L2208.35 1412.18 L2210.85 1412.18 Q2212.61 1412.18 2213.58 1411.34 Q2214.56 1410.51 2215.74 1407.41 L2216.5 1405.46 L2206.01 1379.95 L2210.53 1379.95 L2218.63 1400.23 L2226.73 1379.95 L2231.25 1379.95 L2219.86 1408.29 Z" fill="#000000" fill-rule="nonzero" fill-opacity="1" /><path clip-path="url(#clip560)" d="M2238.54 1401.94 L2246.18 1401.94 L2246.18 1375.58 L2237.87 1377.25 L2237.87 1372.99 L2246.13 1371.32 L2250.81 1371.32 L2250.81 1401.94 L2258.45 1401.94 L2258.45 1405.88 L2238.54 1405.88 L2238.54 1401.94 Z" fill="#000000" fill-rule="nonzero" fill-opacity="1" /></svg>
