<?xml version="1.0" encoding="utf-8"?>
<svg xmlns="http://www.w3.org/2000/svg" xmlns:xlink="http://www.w3.org/1999/xlink" width="600" height="400" viewBox="0 0 2400 1600">
<defs>
  <clipPath id="clip040">
    <rect x="0" y="0" width="2400" height="1600"/>
  </clipPath>
</defs>
<path clip-path="url(#clip040)" d="M0 1600 L2400 1600 L2400 0 L0 0  Z" fill="#ffffff" fill-rule="evenodd" fill-opacity="1"/>
<defs>
  <clipPath id="clip041">
    <rect x="480" y="0" width="1681" height="1600"/>
  </clipPath>
</defs>
<path clip-path="url(#clip040)" d="M279.519 1423.18 L2352.76 1423.18 L2352.76 47.2441 L279.519 47.2441  Z" fill="#ffffff" fill-rule="evenodd" fill-opacity="1"/>
<defs>
  <clipPath id="clip042">
    <rect x="279" y="47" width="2074" height="1377"/>
  </clipPath>
</defs>
<polyline clip-path="url(#clip042)" style="stroke:#000000; stroke-linecap:round; stroke-linejoin:round; stroke-width:2; stroke-opacity:0.1; fill:none" points="582.681,1423.18 582.681,47.2441 "/>
<polyline clip-path="url(#clip042)" style="stroke:#000000; stroke-linecap:round; stroke-linejoin:round; stroke-width:2; stroke-opacity:0.1; fill:none" points="949.409,1423.18 949.409,47.2441 "/>
<polyline clip-path="url(#clip042)" style="stroke:#000000; stroke-linecap:round; stroke-linejoin:round; stroke-width:2; stroke-opacity:0.1; fill:none" points="1316.14,1423.18 1316.14,47.2441 "/>
<polyline clip-path="url(#clip042)" style="stroke:#000000; stroke-linecap:round; stroke-linejoin:round; stroke-width:2; stroke-opacity:0.1; fill:none" points="1682.87,1423.18 1682.87,47.2441 "/>
<polyline clip-path="url(#clip042)" style="stroke:#000000; stroke-linecap:round; stroke-linejoin:round; stroke-width:2; stroke-opacity:0.1; fill:none" points="2049.59,1423.18 2049.59,47.2441 "/>
<polyline clip-path="url(#clip042)" style="stroke:#000000; stroke-linecap:round; stroke-linejoin:round; stroke-width:2; stroke-opacity:0.1; fill:none" points="279.519,1222.72 2352.76,1222.72 "/>
<polyline clip-path="url(#clip042)" style="stroke:#000000; stroke-linecap:round; stroke-linejoin:round; stroke-width:2; stroke-opacity:0.1; fill:none" points="279.519,925.364 2352.76,925.364 "/>
<polyline clip-path="url(#clip042)" style="stroke:#000000; stroke-linecap:round; stroke-linejoin:round; stroke-width:2; stroke-opacity:0.1; fill:none" points="279.519,628.013 2352.76,628.013 "/>
<polyline clip-path="url(#clip042)" style="stroke:#000000; stroke-linecap:round; stroke-linejoin:round; stroke-width:2; stroke-opacity:0.1; fill:none" points="279.519,330.661 2352.76,330.661 "/>
<polyline clip-path="url(#clip040)" style="stroke:#000000; stroke-linecap:round; stroke-linejoin:round; stroke-width:4; stroke-opacity:1; fill:none" points="279.519,1423.18 2352.76,1423.18 "/>
<polyline clip-path="url(#clip040)" style="stroke:#000000; stroke-linecap:round; stroke-linejoin:round; stroke-width:4; stroke-opacity:1; fill:none" points="582.681,1423.18 582.681,1404.28 "/>
<polyline clip-path="url(#clip040)" style="stroke:#000000; stroke-linecap:round; stroke-linejoin:round; stroke-width:4; stroke-opacity:1; fill:none" points="949.409,1423.18 949.409,1404.28 "/>
<polyline clip-path="url(#clip040)" style="stroke:#000000; stroke-linecap:round; stroke-linejoin:round; stroke-width:4; stroke-opacity:1; fill:none" points="1316.14,1423.18 1316.14,1404.28 "/>
<polyline clip-path="url(#clip040)" style="stroke:#000000; stroke-linecap:round; stroke-linejoin:round; stroke-width:4; stroke-opacity:1; fill:none" points="1682.87,1423.18 1682.87,1404.28 "/>
<polyline clip-path="url(#clip040)" style="stroke:#000000; stroke-linecap:round; stroke-linejoin:round; stroke-width:4; stroke-opacity:1; fill:none" points="2049.59,1423.18 2049.59,1404.28 "/>
<path clip-path="url(#clip040)" d="M586.928 1466.95 Q590.285 1467.66 592.16 1469.93 Q594.058 1472.2 594.058 1475.53 Q594.058 1480.65 590.54 1483.45 Q587.021 1486.25 580.54 1486.25 Q578.364 1486.25 576.049 1485.81 Q573.757 1485.39 571.304 1484.54 L571.304 1480.02 Q573.248 1481.16 575.563 1481.74 Q577.878 1482.32 580.401 1482.32 Q584.799 1482.32 587.09 1480.58 Q589.405 1478.84 589.405 1475.53 Q589.405 1472.48 587.252 1470.77 Q585.123 1469.03 581.303 1469.03 L577.276 1469.03 L577.276 1465.19 L581.489 1465.19 Q584.938 1465.19 586.766 1463.82 Q588.595 1462.43 588.595 1459.84 Q588.595 1457.18 586.697 1455.77 Q584.822 1454.33 581.303 1454.33 Q579.382 1454.33 577.183 1454.75 Q574.984 1455.16 572.345 1456.04 L572.345 1451.88 Q575.007 1451.14 577.322 1450.77 Q579.66 1450.39 581.72 1450.39 Q587.044 1450.39 590.146 1452.83 Q593.248 1455.23 593.248 1459.35 Q593.248 1462.22 591.604 1464.21 Q589.961 1466.18 586.928 1466.95 Z" fill="#000000" fill-rule="nonzero" fill-opacity="1" /><path clip-path="url(#clip040)" d="M949.814 1466.44 Q946.666 1466.44 944.814 1468.59 Q942.985 1470.74 942.985 1474.49 Q942.985 1478.22 944.814 1480.39 Q946.666 1482.55 949.814 1482.55 Q952.962 1482.55 954.791 1480.39 Q956.643 1478.22 956.643 1474.49 Q956.643 1470.74 954.791 1468.59 Q952.962 1466.44 949.814 1466.44 M959.096 1451.78 L959.096 1456.04 Q957.337 1455.21 955.532 1454.77 Q953.749 1454.33 951.99 1454.33 Q947.36 1454.33 944.907 1457.45 Q942.476 1460.58 942.129 1466.9 Q943.495 1464.89 945.555 1463.82 Q947.615 1462.73 950.092 1462.73 Q955.3 1462.73 958.309 1465.9 Q961.342 1469.05 961.342 1474.49 Q961.342 1479.82 958.194 1483.03 Q955.046 1486.25 949.814 1486.25 Q943.819 1486.25 940.648 1481.67 Q937.476 1477.06 937.476 1468.33 Q937.476 1460.14 941.365 1455.28 Q945.254 1450.39 951.805 1450.39 Q953.564 1450.39 955.347 1450.74 Q957.152 1451.09 959.096 1451.78 Z" fill="#000000" fill-rule="nonzero" fill-opacity="1" /><path clip-path="url(#clip040)" d="M1306.44 1484.86 L1306.44 1480.6 Q1308.2 1481.44 1310 1481.88 Q1311.81 1482.32 1313.54 1482.32 Q1318.17 1482.32 1320.6 1479.21 Q1323.06 1476.09 1323.41 1469.75 Q1322.06 1471.74 1320 1472.8 Q1317.94 1473.87 1315.44 1473.87 Q1310.26 1473.87 1307.23 1470.74 Q1304.22 1467.59 1304.22 1462.15 Q1304.22 1456.83 1307.36 1453.61 Q1310.51 1450.39 1315.74 1450.39 Q1321.74 1450.39 1324.89 1455 Q1328.06 1459.58 1328.06 1468.33 Q1328.06 1476.51 1324.17 1481.39 Q1320.3 1486.25 1313.75 1486.25 Q1311.99 1486.25 1310.19 1485.9 Q1308.38 1485.56 1306.44 1484.86 M1315.74 1470.21 Q1318.89 1470.21 1320.72 1468.06 Q1322.57 1465.9 1322.57 1462.15 Q1322.57 1458.43 1320.72 1456.27 Q1318.89 1454.1 1315.74 1454.1 Q1312.6 1454.1 1310.74 1456.27 Q1308.92 1458.43 1308.92 1462.15 Q1308.92 1465.9 1310.74 1468.06 Q1312.6 1470.21 1315.74 1470.21 Z" fill="#000000" fill-rule="nonzero" fill-opacity="1" /><path clip-path="url(#clip040)" d="M1658.35 1481.64 L1665.99 1481.64 L1665.99 1455.28 L1657.68 1456.95 L1657.68 1452.69 L1665.94 1451.02 L1670.62 1451.02 L1670.62 1481.64 L1678.26 1481.64 L1678.26 1485.58 L1658.35 1485.58 L1658.35 1481.64 Z" fill="#000000" fill-rule="nonzero" fill-opacity="1" /><path clip-path="url(#clip040)" d="M1691.73 1481.64 L1708.05 1481.64 L1708.05 1485.58 L1686.11 1485.58 L1686.11 1481.64 Q1688.77 1478.89 1693.35 1474.26 Q1697.96 1469.61 1699.14 1468.27 Q1701.38 1465.74 1702.26 1464.01 Q1703.17 1462.25 1703.17 1460.56 Q1703.17 1457.8 1701.22 1456.07 Q1699.3 1454.33 1696.2 1454.33 Q1694 1454.33 1691.55 1455.09 Q1689.12 1455.86 1686.34 1457.41 L1686.34 1452.69 Q1689.16 1451.55 1691.62 1450.97 Q1694.07 1450.39 1696.11 1450.39 Q1701.48 1450.39 1704.67 1453.08 Q1707.87 1455.77 1707.87 1460.26 Q1707.87 1462.39 1707.06 1464.31 Q1706.27 1466.2 1704.16 1468.8 Q1703.58 1469.47 1700.48 1472.69 Q1697.38 1475.88 1691.73 1481.64 Z" fill="#000000" fill-rule="nonzero" fill-opacity="1" /><path clip-path="url(#clip040)" d="M2024.78 1481.64 L2032.42 1481.64 L2032.42 1455.28 L2024.11 1456.95 L2024.11 1452.69 L2032.37 1451.02 L2037.05 1451.02 L2037.05 1481.64 L2044.69 1481.64 L2044.69 1485.58 L2024.78 1485.58 L2024.78 1481.64 Z" fill="#000000" fill-rule="nonzero" fill-opacity="1" /><path clip-path="url(#clip040)" d="M2054.18 1451.02 L2072.53 1451.02 L2072.53 1454.96 L2058.46 1454.96 L2058.46 1463.43 Q2059.48 1463.08 2060.5 1462.92 Q2061.52 1462.73 2062.53 1462.73 Q2068.32 1462.73 2071.7 1465.9 Q2075.08 1469.08 2075.08 1474.49 Q2075.08 1480.07 2071.61 1483.17 Q2068.14 1486.25 2061.82 1486.25 Q2059.64 1486.25 2057.37 1485.88 Q2055.13 1485.51 2052.72 1484.77 L2052.72 1480.07 Q2054.8 1481.2 2057.02 1481.76 Q2059.25 1482.32 2061.72 1482.32 Q2065.73 1482.32 2068.07 1480.21 Q2070.4 1478.1 2070.4 1474.49 Q2070.4 1470.88 2068.07 1468.77 Q2065.73 1466.67 2061.72 1466.67 Q2059.85 1466.67 2057.97 1467.08 Q2056.12 1467.5 2054.18 1468.38 L2054.18 1451.02 Z" fill="#000000" fill-rule="nonzero" fill-opacity="1" /><path clip-path="url(#clip040)" d="M1187.65 1550.25 Q1187.65 1556.71 1190.29 1560.4 Q1192.96 1564.07 1197.61 1564.07 Q1202.25 1564.07 1204.93 1560.4 Q1207.6 1556.71 1207.6 1550.25 Q1207.6 1543.79 1204.93 1540.13 Q1202.25 1536.44 1197.61 1536.44 Q1192.96 1536.44 1190.29 1540.13 Q1187.65 1543.79 1187.65 1550.25 M1207.6 1562.7 Q1205.76 1565.88 1202.92 1567.44 Q1200.12 1568.97 1196.18 1568.97 Q1189.71 1568.97 1185.64 1563.81 Q1181.6 1558.65 1181.6 1550.25 Q1181.6 1541.85 1185.64 1536.69 Q1189.71 1531.54 1196.18 1531.54 Q1200.12 1531.54 1202.92 1533.1 Q1205.76 1534.62 1207.6 1537.81 L1207.6 1532.4 L1213.46 1532.4 L1213.46 1581.6 L1207.6 1581.6 L1207.6 1562.7 Z" fill="#000000" fill-rule="nonzero" fill-opacity="1" /><path clip-path="url(#clip040)" d="M1224.92 1553.98 L1224.92 1532.4 L1230.77 1532.4 L1230.77 1553.75 Q1230.77 1558.81 1232.75 1561.36 Q1234.72 1563.87 1238.67 1563.87 Q1243.41 1563.87 1246.15 1560.85 Q1248.92 1557.83 1248.92 1552.61 L1248.92 1532.4 L1254.77 1532.4 L1254.77 1568.04 L1248.92 1568.04 L1248.92 1562.57 Q1246.78 1565.82 1243.95 1567.41 Q1241.15 1568.97 1237.43 1568.97 Q1231.28 1568.97 1228.1 1565.15 Q1224.92 1561.33 1224.92 1553.98 M1239.65 1531.54 L1239.65 1531.54 Z" fill="#000000" fill-rule="nonzero" fill-opacity="1" /><path clip-path="url(#clip040)" d="M1283.04 1550.12 Q1275.94 1550.12 1273.2 1551.75 Q1270.46 1553.37 1270.46 1557.29 Q1270.46 1560.4 1272.5 1562.25 Q1274.57 1564.07 1278.1 1564.07 Q1282.97 1564.07 1285.9 1560.63 Q1288.86 1557.16 1288.86 1551.43 L1288.86 1550.12 L1283.04 1550.12 M1294.72 1547.71 L1294.72 1568.04 L1288.86 1568.04 L1288.86 1562.63 Q1286.86 1565.88 1283.86 1567.44 Q1280.87 1568.97 1276.54 1568.97 Q1271.07 1568.97 1267.82 1565.91 Q1264.61 1562.82 1264.61 1557.67 Q1264.61 1551.65 1268.62 1548.6 Q1272.66 1545.54 1280.65 1545.54 L1288.86 1545.54 L1288.86 1544.97 Q1288.86 1540.93 1286.19 1538.73 Q1283.54 1536.5 1278.74 1536.5 Q1275.68 1536.5 1272.79 1537.23 Q1269.89 1537.97 1267.22 1539.43 L1267.22 1534.02 Q1270.43 1532.78 1273.46 1532.17 Q1276.48 1531.54 1279.34 1531.54 Q1287.08 1531.54 1290.9 1535.55 Q1294.72 1539.56 1294.72 1547.71 Z" fill="#000000" fill-rule="nonzero" fill-opacity="1" /><path clip-path="url(#clip040)" d="M1327.44 1537.87 Q1326.45 1537.3 1325.27 1537.04 Q1324.13 1536.76 1322.73 1536.76 Q1317.76 1536.76 1315.09 1540 Q1312.45 1543.22 1312.45 1549.27 L1312.45 1568.04 L1306.56 1568.04 L1306.56 1532.4 L1312.45 1532.4 L1312.45 1537.93 Q1314.29 1534.69 1317.25 1533.13 Q1320.21 1531.54 1324.44 1531.54 Q1325.05 1531.54 1325.78 1531.63 Q1326.51 1531.7 1327.4 1531.85 L1327.44 1537.87 Z" fill="#000000" fill-rule="nonzero" fill-opacity="1" /><path clip-path="url(#clip040)" d="M1339.37 1522.27 L1339.37 1532.4 L1351.44 1532.4 L1351.44 1536.95 L1339.37 1536.95 L1339.37 1556.3 Q1339.37 1560.66 1340.55 1561.9 Q1341.76 1563.14 1345.42 1563.14 L1351.44 1563.14 L1351.44 1568.04 L1345.42 1568.04 Q1338.64 1568.04 1336.06 1565.53 Q1333.48 1562.98 1333.48 1556.3 L1333.48 1536.95 L1329.19 1536.95 L1329.19 1532.4 L1333.48 1532.4 L1333.48 1522.27 L1339.37 1522.27 Z" fill="#000000" fill-rule="nonzero" fill-opacity="1" /><path clip-path="url(#clip040)" d="M1389.63 1548.76 L1389.63 1551.62 L1362.7 1551.62 Q1363.08 1557.67 1366.33 1560.85 Q1369.61 1564 1375.43 1564 Q1378.81 1564 1381.96 1563.17 Q1385.14 1562.35 1388.26 1560.69 L1388.26 1566.23 Q1385.11 1567.57 1381.8 1568.27 Q1378.49 1568.97 1375.08 1568.97 Q1366.55 1568.97 1361.56 1564 Q1356.59 1559.04 1356.59 1550.57 Q1356.59 1541.82 1361.3 1536.69 Q1366.04 1531.54 1374.07 1531.54 Q1381.26 1531.54 1385.43 1536.18 Q1389.63 1540.8 1389.63 1548.76 M1383.77 1547.04 Q1383.71 1542.23 1381.07 1539.37 Q1378.46 1536.5 1374.13 1536.5 Q1369.23 1536.5 1366.27 1539.27 Q1363.34 1542.04 1362.89 1547.07 L1383.77 1547.04 Z" fill="#000000" fill-rule="nonzero" fill-opacity="1" /><path clip-path="url(#clip040)" d="M1419.9 1537.87 Q1418.91 1537.3 1417.73 1537.04 Q1416.59 1536.76 1415.19 1536.76 Q1410.22 1536.76 1407.55 1540 Q1404.91 1543.22 1404.91 1549.27 L1404.91 1568.04 L1399.02 1568.04 L1399.02 1532.4 L1404.91 1532.4 L1404.91 1537.93 Q1406.75 1534.69 1409.71 1533.13 Q1412.67 1531.54 1416.91 1531.54 Q1417.51 1531.54 1418.24 1531.63 Q1418.98 1531.7 1419.87 1531.85 L1419.9 1537.87 Z" fill="#000000" fill-rule="nonzero" fill-opacity="1" /><path clip-path="url(#clip040)" d="M1448.77 1533.45 L1448.77 1538.98 Q1446.28 1537.71 1443.61 1537.07 Q1440.94 1536.44 1438.07 1536.44 Q1433.71 1536.44 1431.52 1537.77 Q1429.35 1539.11 1429.35 1541.79 Q1429.35 1543.82 1430.91 1545 Q1432.47 1546.15 1437.18 1547.2 L1439.19 1547.64 Q1445.42 1548.98 1448.03 1551.43 Q1450.68 1553.85 1450.68 1558.21 Q1450.68 1563.17 1446.73 1566.07 Q1442.81 1568.97 1435.94 1568.97 Q1433.08 1568.97 1429.96 1568.39 Q1426.87 1567.85 1423.43 1566.74 L1423.43 1560.69 Q1426.68 1562.38 1429.83 1563.24 Q1432.98 1564.07 1436.07 1564.07 Q1440.2 1564.07 1442.43 1562.66 Q1444.66 1561.23 1444.66 1558.65 Q1444.66 1556.27 1443.04 1554.99 Q1441.45 1553.72 1436 1552.54 L1433.97 1552.07 Q1428.52 1550.92 1426.1 1548.56 Q1423.69 1546.18 1423.69 1542.04 Q1423.69 1537.01 1427.25 1534.27 Q1430.82 1531.54 1437.37 1531.54 Q1440.62 1531.54 1443.48 1532.01 Q1446.35 1532.49 1448.77 1533.45 Z" fill="#000000" fill-rule="nonzero" fill-opacity="1" /><polyline clip-path="url(#clip040)" style="stroke:#000000; stroke-linecap:round; stroke-linejoin:round; stroke-width:4; stroke-opacity:1; fill:none" points="279.519,1423.18 279.519,47.2441 "/>
<polyline clip-path="url(#clip040)" style="stroke:#000000; stroke-linecap:round; stroke-linejoin:round; stroke-width:4; stroke-opacity:1; fill:none" points="279.519,1222.72 298.416,1222.72 "/>
<polyline clip-path="url(#clip040)" style="stroke:#000000; stroke-linecap:round; stroke-linejoin:round; stroke-width:4; stroke-opacity:1; fill:none" points="279.519,925.364 298.416,925.364 "/>
<polyline clip-path="url(#clip040)" style="stroke:#000000; stroke-linecap:round; stroke-linejoin:round; stroke-width:4; stroke-opacity:1; fill:none" points="279.519,628.013 298.416,628.013 "/>
<polyline clip-path="url(#clip040)" style="stroke:#000000; stroke-linecap:round; stroke-linejoin:round; stroke-width:4; stroke-opacity:1; fill:none" points="279.519,330.661 298.416,330.661 "/>
<path clip-path="url(#clip040)" d="M126.205 1208.51 Q122.593 1208.51 120.765 1212.08 Q118.959 1215.62 118.959 1222.75 Q118.959 1229.86 120.765 1233.42 Q122.593 1236.96 126.205 1236.96 Q129.839 1236.96 131.644 1233.42 Q133.473 1229.86 133.473 1222.75 Q133.473 1215.62 131.644 1212.08 Q129.839 1208.51 126.205 1208.51 M126.205 1204.81 Q132.015 1204.81 135.07 1209.42 Q138.149 1214 138.149 1222.75 Q138.149 1231.48 135.07 1236.08 Q132.015 1240.67 126.205 1240.67 Q120.394 1240.67 117.316 1236.08 Q114.26 1231.48 114.26 1222.75 Q114.26 1214 117.316 1209.42 Q120.394 1204.81 126.205 1204.81 Z" fill="#000000" fill-rule="nonzero" fill-opacity="1" /><path clip-path="url(#clip040)" d="M146.366 1234.12 L151.251 1234.12 L151.251 1240 L146.366 1240 L146.366 1234.12 Z" fill="#000000" fill-rule="nonzero" fill-opacity="1" /><path clip-path="url(#clip040)" d="M161.575 1239.28 L161.575 1235.02 Q163.334 1235.85 165.14 1236.29 Q166.945 1236.73 168.681 1236.73 Q173.311 1236.73 175.741 1233.63 Q178.195 1230.5 178.542 1224.16 Q177.2 1226.15 175.139 1227.22 Q173.079 1228.28 170.579 1228.28 Q165.394 1228.28 162.362 1225.16 Q159.353 1222.01 159.353 1216.57 Q159.353 1211.25 162.501 1208.03 Q165.649 1204.81 170.88 1204.81 Q176.876 1204.81 180.024 1209.42 Q183.195 1214 183.195 1222.75 Q183.195 1230.92 179.306 1235.81 Q175.44 1240.67 168.889 1240.67 Q167.13 1240.67 165.325 1240.32 Q163.519 1239.97 161.575 1239.28 M170.88 1224.62 Q174.028 1224.62 175.857 1222.47 Q177.709 1220.32 177.709 1216.57 Q177.709 1212.84 175.857 1210.69 Q174.028 1208.51 170.88 1208.51 Q167.732 1208.51 165.88 1210.69 Q164.052 1212.84 164.052 1216.57 Q164.052 1220.32 165.88 1222.47 Q167.732 1224.62 170.88 1224.62 Z" fill="#000000" fill-rule="nonzero" fill-opacity="1" /><path clip-path="url(#clip040)" d="M191.737 1239.28 L191.737 1235.02 Q193.496 1235.85 195.301 1236.29 Q197.107 1236.73 198.843 1236.73 Q203.473 1236.73 205.903 1233.63 Q208.357 1230.5 208.704 1224.16 Q207.362 1226.15 205.301 1227.22 Q203.241 1228.28 200.741 1228.28 Q195.556 1228.28 192.524 1225.16 Q189.514 1222.01 189.514 1216.57 Q189.514 1211.25 192.663 1208.03 Q195.811 1204.81 201.042 1204.81 Q207.037 1204.81 210.186 1209.42 Q213.357 1214 213.357 1222.75 Q213.357 1230.92 209.468 1235.81 Q205.602 1240.67 199.051 1240.67 Q197.292 1240.67 195.487 1240.32 Q193.681 1239.97 191.737 1239.28 M201.042 1224.62 Q204.19 1224.62 206.019 1222.47 Q207.871 1220.32 207.871 1216.57 Q207.871 1212.84 206.019 1210.69 Q204.19 1208.51 201.042 1208.51 Q197.894 1208.51 196.042 1210.69 Q194.213 1212.84 194.213 1216.57 Q194.213 1220.32 196.042 1222.47 Q197.894 1224.62 201.042 1224.62 Z" fill="#000000" fill-rule="nonzero" fill-opacity="1" /><path clip-path="url(#clip040)" d="M221.898 1239.28 L221.898 1235.02 Q223.658 1235.85 225.463 1236.29 Q227.269 1236.73 229.005 1236.73 Q233.635 1236.73 236.065 1233.63 Q238.519 1230.5 238.866 1224.16 Q237.523 1226.15 235.463 1227.22 Q233.403 1228.28 230.903 1228.28 Q225.718 1228.28 222.686 1225.16 Q219.676 1222.01 219.676 1216.57 Q219.676 1211.25 222.824 1208.03 Q225.973 1204.81 231.204 1204.81 Q237.199 1204.81 240.347 1209.42 Q243.519 1214 243.519 1222.75 Q243.519 1230.92 239.63 1235.81 Q235.764 1240.67 229.213 1240.67 Q227.454 1240.67 225.648 1240.32 Q223.843 1239.97 221.898 1239.28 M231.204 1224.62 Q234.352 1224.62 236.181 1222.47 Q238.033 1220.32 238.033 1216.57 Q238.033 1212.84 236.181 1210.69 Q234.352 1208.51 231.204 1208.51 Q228.056 1208.51 226.204 1210.69 Q224.375 1212.84 224.375 1216.57 Q224.375 1220.32 226.204 1222.47 Q228.056 1224.62 231.204 1224.62 Z" fill="#000000" fill-rule="nonzero" fill-opacity="1" /><path clip-path="url(#clip040)" d="M118.427 938.709 L126.066 938.709 L126.066 912.343 L117.756 914.01 L117.756 909.75 L126.019 908.084 L130.695 908.084 L130.695 938.709 L138.334 938.709 L138.334 942.644 L118.427 942.644 L118.427 938.709 Z" fill="#000000" fill-rule="nonzero" fill-opacity="1" /><path clip-path="url(#clip040)" d="M147.778 936.764 L152.663 936.764 L152.663 942.644 L147.778 942.644 L147.778 936.764 Z" fill="#000000" fill-rule="nonzero" fill-opacity="1" /><path clip-path="url(#clip040)" d="M172.848 911.162 Q169.237 911.162 167.408 914.727 Q165.602 918.269 165.602 925.399 Q165.602 932.505 167.408 936.07 Q169.237 939.611 172.848 939.611 Q176.482 939.611 178.288 936.07 Q180.116 932.505 180.116 925.399 Q180.116 918.269 178.288 914.727 Q176.482 911.162 172.848 911.162 M172.848 907.459 Q178.658 907.459 181.713 912.065 Q184.792 916.649 184.792 925.399 Q184.792 934.125 181.713 938.732 Q178.658 943.315 172.848 943.315 Q167.038 943.315 163.959 938.732 Q160.903 934.125 160.903 925.399 Q160.903 916.649 163.959 912.065 Q167.038 907.459 172.848 907.459 Z" fill="#000000" fill-rule="nonzero" fill-opacity="1" /><path clip-path="url(#clip040)" d="M203.01 911.162 Q199.399 911.162 197.57 914.727 Q195.764 918.269 195.764 925.399 Q195.764 932.505 197.57 936.07 Q199.399 939.611 203.01 939.611 Q206.644 939.611 208.449 936.07 Q210.278 932.505 210.278 925.399 Q210.278 918.269 208.449 914.727 Q206.644 911.162 203.01 911.162 M203.01 907.459 Q208.82 907.459 211.875 912.065 Q214.954 916.649 214.954 925.399 Q214.954 934.125 211.875 938.732 Q208.82 943.315 203.01 943.315 Q197.2 943.315 194.121 938.732 Q191.065 934.125 191.065 925.399 Q191.065 916.649 194.121 912.065 Q197.2 907.459 203.01 907.459 Z" fill="#000000" fill-rule="nonzero" fill-opacity="1" /><path clip-path="url(#clip040)" d="M227.199 938.709 L243.519 938.709 L243.519 942.644 L221.574 942.644 L221.574 938.709 Q224.236 935.954 228.82 931.324 Q233.426 926.672 234.607 925.329 Q236.852 922.806 237.732 921.07 Q238.634 919.311 238.634 917.621 Q238.634 914.866 236.69 913.13 Q234.769 911.394 231.667 911.394 Q229.468 911.394 227.014 912.158 Q224.584 912.922 221.806 914.473 L221.806 909.75 Q224.63 908.616 227.084 908.038 Q229.537 907.459 231.574 907.459 Q236.945 907.459 240.139 910.144 Q243.334 912.829 243.334 917.32 Q243.334 919.449 242.523 921.371 Q241.736 923.269 239.63 925.861 Q239.051 926.533 235.949 929.75 Q232.847 932.945 227.199 938.709 Z" fill="#000000" fill-rule="nonzero" fill-opacity="1" /><path clip-path="url(#clip040)" d="M117.825 641.357 L125.464 641.357 L125.464 614.992 L117.154 616.658 L117.154 612.399 L125.418 610.733 L130.093 610.733 L130.093 641.357 L137.732 641.357 L137.732 645.293 L117.825 645.293 L117.825 641.357 Z" fill="#000000" fill-rule="nonzero" fill-opacity="1" /><path clip-path="url(#clip040)" d="M147.177 639.413 L152.061 639.413 L152.061 645.293 L147.177 645.293 L147.177 639.413 Z" fill="#000000" fill-rule="nonzero" fill-opacity="1" /><path clip-path="url(#clip040)" d="M172.246 613.811 Q168.635 613.811 166.806 617.376 Q165.001 620.918 165.001 628.047 Q165.001 635.154 166.806 638.718 Q168.635 642.26 172.246 642.26 Q175.88 642.26 177.686 638.718 Q179.514 635.154 179.514 628.047 Q179.514 620.918 177.686 617.376 Q175.88 613.811 172.246 613.811 M172.246 610.108 Q178.056 610.108 181.112 614.714 Q184.19 619.297 184.19 628.047 Q184.19 636.774 181.112 641.38 Q178.056 645.964 172.246 645.964 Q166.436 645.964 163.357 641.38 Q160.302 636.774 160.302 628.047 Q160.302 619.297 163.357 614.714 Q166.436 610.108 172.246 610.108 Z" fill="#000000" fill-rule="nonzero" fill-opacity="1" /><path clip-path="url(#clip040)" d="M202.408 613.811 Q198.797 613.811 196.968 617.376 Q195.163 620.918 195.163 628.047 Q195.163 635.154 196.968 638.718 Q198.797 642.26 202.408 642.26 Q206.042 642.26 207.848 638.718 Q209.676 635.154 209.676 628.047 Q209.676 620.918 207.848 617.376 Q206.042 613.811 202.408 613.811 M202.408 610.108 Q208.218 610.108 211.274 614.714 Q214.352 619.297 214.352 628.047 Q214.352 636.774 211.274 641.38 Q208.218 645.964 202.408 645.964 Q196.598 645.964 193.519 641.38 Q190.463 636.774 190.463 628.047 Q190.463 619.297 193.519 614.714 Q196.598 610.108 202.408 610.108 Z" fill="#000000" fill-rule="nonzero" fill-opacity="1" /><path clip-path="url(#clip040)" d="M222.616 610.733 L240.972 610.733 L240.972 614.668 L226.898 614.668 L226.898 623.14 Q227.917 622.793 228.935 622.631 Q229.954 622.445 230.972 622.445 Q236.76 622.445 240.139 625.617 Q243.519 628.788 243.519 634.205 Q243.519 639.783 240.047 642.885 Q236.574 645.964 230.255 645.964 Q228.079 645.964 225.81 645.593 Q223.565 645.223 221.158 644.482 L221.158 639.783 Q223.241 640.918 225.463 641.473 Q227.685 642.029 230.162 642.029 Q234.167 642.029 236.505 639.922 Q238.843 637.816 238.843 634.205 Q238.843 630.594 236.505 628.487 Q234.167 626.381 230.162 626.381 Q228.287 626.381 226.412 626.797 Q224.56 627.214 222.616 628.094 L222.616 610.733 Z" fill="#000000" fill-rule="nonzero" fill-opacity="1" /><path clip-path="url(#clip040)" d="M116.922 344.006 L124.561 344.006 L124.561 317.64 L116.251 319.307 L116.251 315.048 L124.515 313.381 L129.191 313.381 L129.191 344.006 L136.829 344.006 L136.829 347.941 L116.922 347.941 L116.922 344.006 Z" fill="#000000" fill-rule="nonzero" fill-opacity="1" /><path clip-path="url(#clip040)" d="M146.274 342.062 L151.158 342.062 L151.158 347.941 L146.274 347.941 L146.274 342.062 Z" fill="#000000" fill-rule="nonzero" fill-opacity="1" /><path clip-path="url(#clip040)" d="M171.343 316.46 Q167.732 316.46 165.903 320.025 Q164.098 323.566 164.098 330.696 Q164.098 337.802 165.903 341.367 Q167.732 344.909 171.343 344.909 Q174.977 344.909 176.783 341.367 Q178.612 337.802 178.612 330.696 Q178.612 323.566 176.783 320.025 Q174.977 316.46 171.343 316.46 M171.343 312.756 Q177.153 312.756 180.209 317.363 Q183.288 321.946 183.288 330.696 Q183.288 339.423 180.209 344.029 Q177.153 348.613 171.343 348.613 Q165.533 348.613 162.454 344.029 Q159.399 339.423 159.399 330.696 Q159.399 321.946 162.454 317.363 Q165.533 312.756 171.343 312.756 Z" fill="#000000" fill-rule="nonzero" fill-opacity="1" /><path clip-path="url(#clip040)" d="M201.505 316.46 Q197.894 316.46 196.065 320.025 Q194.26 323.566 194.26 330.696 Q194.26 337.802 196.065 341.367 Q197.894 344.909 201.505 344.909 Q205.139 344.909 206.945 341.367 Q208.774 337.802 208.774 330.696 Q208.774 323.566 206.945 320.025 Q205.139 316.46 201.505 316.46 M201.505 312.756 Q207.315 312.756 210.371 317.363 Q213.449 321.946 213.449 330.696 Q213.449 339.423 210.371 344.029 Q207.315 348.613 201.505 348.613 Q195.695 348.613 192.616 344.029 Q189.561 339.423 189.561 330.696 Q189.561 321.946 192.616 317.363 Q195.695 312.756 201.505 312.756 Z" fill="#000000" fill-rule="nonzero" fill-opacity="1" /><path clip-path="url(#clip040)" d="M231.667 331.529 Q228.334 331.529 226.412 333.312 Q224.514 335.094 224.514 338.219 Q224.514 341.344 226.412 343.126 Q228.334 344.909 231.667 344.909 Q235 344.909 236.922 343.126 Q238.843 341.321 238.843 338.219 Q238.843 335.094 236.922 333.312 Q235.023 331.529 231.667 331.529 M226.991 329.539 Q223.982 328.798 222.292 326.738 Q220.625 324.677 220.625 321.715 Q220.625 317.571 223.565 315.164 Q226.528 312.756 231.667 312.756 Q236.829 312.756 239.769 315.164 Q242.709 317.571 242.709 321.715 Q242.709 324.677 241.019 326.738 Q239.352 328.798 236.366 329.539 Q239.746 330.326 241.621 332.617 Q243.519 334.909 243.519 338.219 Q243.519 343.242 240.44 345.927 Q237.384 348.613 231.667 348.613 Q225.949 348.613 222.871 345.927 Q219.815 343.242 219.815 338.219 Q219.815 334.909 221.713 332.617 Q223.611 330.326 226.991 329.539 M225.278 322.154 Q225.278 324.839 226.945 326.344 Q228.635 327.849 231.667 327.849 Q234.676 327.849 236.366 326.344 Q238.079 324.839 238.079 322.154 Q238.079 319.469 236.366 317.965 Q234.676 316.46 231.667 316.46 Q228.635 316.46 226.945 317.965 Q225.278 319.469 225.278 322.154 Z" fill="#000000" fill-rule="nonzero" fill-opacity="1" /><path clip-path="url(#clip040)" d="M57.2247 896.821 L44.4614 896.821 L44.4614 907.325 L39.1779 907.325 L39.1779 890.456 L59.58 890.456 Q62.2218 894.18 63.5904 898.667 Q64.9272 903.155 64.9272 908.248 Q64.9272 919.388 58.4342 925.69 Q51.9093 931.96 40.2919 931.96 Q28.6427 931.96 22.1496 925.69 Q15.6248 919.388 15.6248 908.248 Q15.6248 903.601 16.7706 899.431 Q17.9164 895.23 20.1444 891.697 L26.9876 891.697 Q23.9639 895.262 22.4361 899.272 Q20.9083 903.283 20.9083 907.707 Q20.9083 916.428 25.7781 920.82 Q30.6479 925.181 40.2919 925.181 Q49.9041 925.181 54.7739 920.82 Q59.6436 916.428 59.6436 907.707 Q59.6436 904.301 59.0707 901.627 Q58.466 898.954 57.2247 896.821 Z" fill="#000000" fill-rule="nonzero" fill-opacity="1" /><path clip-path="url(#clip040)" d="M21.7677 872.282 L58.7206 872.282 L58.7206 864.515 Q58.7206 854.68 54.2646 850.129 Q49.8086 845.546 40.1964 845.546 Q30.6479 845.546 26.2237 850.129 Q21.7677 854.68 21.7677 864.515 L21.7677 872.282 M16.4842 878.711 L16.4842 865.502 Q16.4842 851.688 22.2451 845.227 Q27.9743 838.766 40.1964 838.766 Q52.4822 838.766 58.2432 845.259 Q64.0042 851.752 64.0042 865.502 L64.0042 878.711 L16.4842 878.711 Z" fill="#000000" fill-rule="nonzero" fill-opacity="1" /><path clip-path="url(#clip040)" d="M21.7677 822.088 L39.6235 822.088 L39.6235 814.004 Q39.6235 809.516 37.3 807.065 Q34.9765 804.614 30.6797 804.614 Q26.4147 804.614 24.0912 807.065 Q21.7677 809.516 21.7677 814.004 L21.7677 822.088 M16.4842 828.517 L16.4842 814.004 Q16.4842 806.015 20.1126 801.94 Q23.7092 797.835 30.6797 797.835 Q37.7138 797.835 41.3104 801.94 Q44.907 806.015 44.907 814.004 L44.907 822.088 L64.0042 822.088 L64.0042 828.517 L16.4842 828.517 Z" fill="#000000" fill-rule="nonzero" fill-opacity="1" /><path clip-path="url(#clip040)" d="M29.7248 743.09 L35.1993 743.09 Q33.8307 745.572 33.1623 748.087 Q32.4621 750.569 32.4621 753.116 Q32.4621 758.813 36.0905 761.964 Q39.6872 765.115 46.212 765.115 Q52.7369 765.115 56.3653 761.964 Q59.9619 758.813 59.9619 753.116 Q59.9619 750.569 59.2935 748.087 Q58.5933 745.572 57.2247 743.09 L62.6355 743.09 Q63.7814 745.54 64.3543 748.182 Q64.9272 750.792 64.9272 753.752 Q64.9272 761.805 59.8664 766.547 Q54.8057 771.29 46.212 771.29 Q37.491 771.29 32.4939 766.515 Q27.4968 761.709 27.4968 753.37 Q27.4968 750.665 28.0697 748.087 Q28.6108 745.508 29.7248 743.09 Z" fill="#000000" fill-rule="nonzero" fill-opacity="1" /><path clip-path="url(#clip040)" d="M42.4881 703.272 L64.0042 703.272 L64.0042 709.128 L42.679 709.128 Q37.6183 709.128 35.1038 711.102 Q32.5894 713.075 32.5894 717.022 Q32.5894 721.764 35.6131 724.502 Q38.6368 727.239 43.8567 727.239 L64.0042 727.239 L64.0042 733.127 L14.479 733.127 L14.479 727.239 L33.8944 727.239 Q30.6797 725.138 29.0883 722.305 Q27.4968 719.441 27.4968 715.717 Q27.4968 709.574 31.3163 706.423 Q35.1038 703.272 42.4881 703.272 Z" fill="#000000" fill-rule="nonzero" fill-opacity="1" /><path clip-path="url(#clip040)" d="M46.0847 675.39 Q46.0847 682.488 47.7079 685.225 Q49.3312 687.963 53.2461 687.963 Q56.3653 687.963 58.2114 685.925 Q60.0256 683.857 60.0256 680.324 Q60.0256 675.454 56.5881 672.526 Q53.1188 669.566 47.3897 669.566 L46.0847 669.566 L46.0847 675.39 M43.6657 663.709 L64.0042 663.709 L64.0042 669.566 L58.5933 669.566 Q61.8398 671.571 63.3994 674.563 Q64.9272 677.555 64.9272 681.883 Q64.9272 687.358 61.8716 690.604 Q58.7843 693.819 53.6281 693.819 Q47.6125 693.819 44.5569 689.809 Q41.5014 685.766 41.5014 677.777 L41.5014 669.566 L40.9285 669.566 Q36.8862 669.566 34.6901 672.239 Q32.4621 674.881 32.4621 679.687 Q32.4621 682.743 33.1941 685.639 Q33.9262 688.535 35.3903 691.209 L29.9795 691.209 Q28.7381 687.994 28.1334 684.971 Q27.4968 681.947 27.4968 679.082 Q27.4968 671.348 31.5072 667.529 Q35.5176 663.709 43.6657 663.709 Z" fill="#000000" fill-rule="nonzero" fill-opacity="1" /><path clip-path="url(#clip040)" d="M42.4881 622.014 L64.0042 622.014 L64.0042 627.87 L42.679 627.87 Q37.6183 627.87 35.1038 629.844 Q32.5894 631.817 32.5894 635.764 Q32.5894 640.506 35.6131 643.243 Q38.6368 645.981 43.8567 645.981 L64.0042 645.981 L64.0042 651.869 L28.3562 651.869 L28.3562 645.981 L33.8944 645.981 Q30.6797 643.88 29.0883 641.047 Q27.4968 638.183 27.4968 634.459 Q27.4968 628.316 31.3163 625.165 Q35.1038 622.014 42.4881 622.014 Z" fill="#000000" fill-rule="nonzero" fill-opacity="1" /><path clip-path="url(#clip040)" d="M45.7664 586.875 Q39.4007 586.875 35.8996 589.517 Q32.3984 592.127 32.3984 596.869 Q32.3984 601.58 35.8996 604.222 Q39.4007 606.832 45.7664 606.832 Q52.1003 606.832 55.6014 604.222 Q59.1026 601.58 59.1026 596.869 Q59.1026 592.127 55.6014 589.517 Q52.1003 586.875 45.7664 586.875 M59.58 581.019 Q68.683 581.019 73.1071 585.061 Q77.5631 589.103 77.5631 597.442 Q77.5631 600.53 77.0857 603.267 Q76.6401 606.004 75.6852 608.582 L69.9879 608.582 Q71.3884 606.004 72.0568 603.49 Q72.7252 600.975 72.7252 598.365 Q72.7252 592.604 69.7015 589.74 Q66.7096 586.875 60.6303 586.875 L57.7339 586.875 Q60.885 588.689 62.4446 591.522 Q64.0042 594.355 64.0042 598.302 Q64.0042 604.858 59.0071 608.869 Q54.01 612.879 45.7664 612.879 Q37.491 612.879 32.4939 608.869 Q27.4968 604.858 27.4968 598.302 Q27.4968 594.355 29.0564 591.522 Q30.616 588.689 33.7671 586.875 L28.3562 586.875 L28.3562 581.019 L59.58 581.019 Z" fill="#000000" fill-rule="nonzero" fill-opacity="1" /><path clip-path="url(#clip040)" d="M44.7161 538.464 L47.5806 538.464 L47.5806 565.391 Q53.6281 565.009 56.8109 561.762 Q59.9619 558.484 59.9619 552.659 Q59.9619 549.286 59.1344 546.135 Q58.3069 542.952 56.6518 539.833 L62.1899 539.833 Q63.5267 542.984 64.227 546.294 Q64.9272 549.604 64.9272 553.01 Q64.9272 561.54 59.9619 566.537 Q54.9967 571.502 46.5303 571.502 Q37.7774 571.502 32.6531 566.791 Q27.4968 562.049 27.4968 554.028 Q27.4968 546.835 32.1438 542.665 Q36.7589 538.464 44.7161 538.464 M42.9973 544.32 Q38.1912 544.384 35.3266 547.026 Q32.4621 549.636 32.4621 553.964 Q32.4621 558.866 35.2312 561.826 Q38.0002 564.754 43.0292 565.2 L42.9973 544.32 Z" fill="#000000" fill-rule="nonzero" fill-opacity="1" /><path clip-path="url(#clip042)" d="M338.195 1123.6 L460.438 1076.75 L582.681 572.351 L704.924 381.47 L827.166 289.962 L949.409 649.61 L1071.65 838.454 L1193.89 996.076 L1316.14 1124.03 L1438.38 1267.85 L1560.62 1339.57 L1682.87 1384.24 L1805.11 1362.55 L1927.35 1319.39 L2049.59 1308.42 L2171.84 1314.98 L2294.08 1331.65 L2294.08 680.75 L2171.84 683.113 L2049.59 708.445 L1927.35 745.158 L1805.11 806.078 L1682.87 869.292 L1560.62 862.205 L1438.38 817.92 L1316.14 710.473 L1193.89 622.178 L1071.65 516.439 L949.409 386.761 L827.166 86.1857 L704.924 231.085 L582.681 492.679 L460.438 1071.26 L338.195 1123.6  Z" fill="#009af9" fill-rule="evenodd" fill-opacity="0.2"/>
<polyline clip-path="url(#clip042)" style="stroke:#009af9; stroke-linecap:round; stroke-linejoin:round; stroke-width:4; stroke-opacity:1; fill:none" points="338.195,1123.6 460.438,1074 582.681,532.515 704.924,306.277 827.166,188.074 949.409,518.186 1071.65,677.446 1193.89,809.127 1316.14,917.253 1438.38,1042.89 1560.62,1100.89 1682.87,1126.77 1805.11,1084.31 1927.35,1032.28 2049.59,1008.43 2171.84,999.047 2294.08,1006.2 "/>
</svg>
