<?xml version="1.0" encoding="utf-8"?>
<svg xmlns="http://www.w3.org/2000/svg" xmlns:xlink="http://www.w3.org/1999/xlink" width="600" height="300" viewBox="0 0 2400 1200">
<defs>
  <clipPath id="clip170">
    <rect x="0" y="0" width="2400" height="1200"/>
  </clipPath>
</defs>
<path clip-path="url(#clip170)" d="M0 1200 L2400 1200 L2400 0 L0 0  Z" fill="#ffffff" fill-rule="evenodd" fill-opacity="1"/>
<defs>
  <clipPath id="clip171">
    <rect x="480" y="0" width="1681" height="1200"/>
  </clipPath>
</defs>
<path clip-path="url(#clip170)" d="M216.436 1099.09 L1153.8 1099.09 L1153.8 92.1521 L216.436 92.1521  Z" fill="#ffffff" fill-rule="evenodd" fill-opacity="1"/>
<defs>
  <clipPath id="clip172">
    <rect x="216" y="92" width="938" height="1008"/>
  </clipPath>
</defs>
<polyline clip-path="url(#clip172)" style="stroke:#000000; stroke-linecap:round; stroke-linejoin:round; stroke-width:2; stroke-opacity:0.1; fill:none" points="419.826,1099.09 419.826,92.1521 "/>
<polyline clip-path="url(#clip172)" style="stroke:#000000; stroke-linecap:round; stroke-linejoin:round; stroke-width:2; stroke-opacity:0.1; fill:none" points="640.902,1099.09 640.902,92.1521 "/>
<polyline clip-path="url(#clip172)" style="stroke:#000000; stroke-linecap:round; stroke-linejoin:round; stroke-width:2; stroke-opacity:0.1; fill:none" points="861.977,1099.09 861.977,92.1521 "/>
<polyline clip-path="url(#clip172)" style="stroke:#000000; stroke-linecap:round; stroke-linejoin:round; stroke-width:2; stroke-opacity:0.1; fill:none" points="1083.05,1099.09 1083.05,92.1521 "/>
<polyline clip-path="url(#clip172)" style="stroke:#000000; stroke-linecap:round; stroke-linejoin:round; stroke-width:2; stroke-opacity:0.1; fill:none" points="216.436,867.45 1153.8,867.45 "/>
<polyline clip-path="url(#clip172)" style="stroke:#000000; stroke-linecap:round; stroke-linejoin:round; stroke-width:2; stroke-opacity:0.1; fill:none" points="216.436,618.517 1153.8,618.517 "/>
<polyline clip-path="url(#clip172)" style="stroke:#000000; stroke-linecap:round; stroke-linejoin:round; stroke-width:2; stroke-opacity:0.1; fill:none" points="216.436,369.584 1153.8,369.584 "/>
<polyline clip-path="url(#clip172)" style="stroke:#000000; stroke-linecap:round; stroke-linejoin:round; stroke-width:2; stroke-opacity:0.1; fill:none" points="216.436,120.65 1153.8,120.65 "/>
<polyline clip-path="url(#clip170)" style="stroke:#000000; stroke-linecap:round; stroke-linejoin:round; stroke-width:4; stroke-opacity:1; fill:none" points="216.436,1099.09 1153.8,1099.09 "/>
<polyline clip-path="url(#clip170)" style="stroke:#000000; stroke-linecap:round; stroke-linejoin:round; stroke-width:4; stroke-opacity:1; fill:none" points="419.826,1099.09 419.826,1080.19 "/>
<polyline clip-path="url(#clip170)" style="stroke:#000000; stroke-linecap:round; stroke-linejoin:round; stroke-width:4; stroke-opacity:1; fill:none" points="640.902,1099.09 640.902,1080.19 "/>
<polyline clip-path="url(#clip170)" style="stroke:#000000; stroke-linecap:round; stroke-linejoin:round; stroke-width:4; stroke-opacity:1; fill:none" points="861.977,1099.09 861.977,1080.19 "/>
<polyline clip-path="url(#clip170)" style="stroke:#000000; stroke-linecap:round; stroke-linejoin:round; stroke-width:4; stroke-opacity:1; fill:none" points="1083.05,1099.09 1083.05,1080.19 "/>
<path clip-path="url(#clip170)" d="M410.104 1126.93 L428.46 1126.93 L428.46 1130.86 L414.386 1130.86 L414.386 1139.34 Q415.404 1138.99 416.423 1138.83 Q417.441 1138.64 418.46 1138.64 Q424.247 1138.64 427.627 1141.81 Q431.006 1144.98 431.006 1150.4 Q431.006 1155.98 427.534 1159.08 Q424.062 1162.16 417.742 1162.16 Q415.566 1162.16 413.298 1161.79 Q411.053 1161.42 408.645 1160.68 L408.645 1155.98 Q410.729 1157.11 412.951 1157.67 Q415.173 1158.22 417.65 1158.22 Q421.654 1158.22 423.992 1156.12 Q426.33 1154.01 426.33 1150.4 Q426.33 1146.79 423.992 1144.68 Q421.654 1142.58 417.65 1142.58 Q415.775 1142.58 413.9 1142.99 Q412.048 1143.41 410.104 1144.29 L410.104 1126.93 Z" fill="#000000" fill-rule="nonzero" fill-opacity="1" /><path clip-path="url(#clip170)" d="M615.589 1157.55 L623.228 1157.55 L623.228 1131.19 L614.918 1132.85 L614.918 1128.59 L623.182 1126.93 L627.858 1126.93 L627.858 1157.55 L635.496 1157.55 L635.496 1161.49 L615.589 1161.49 L615.589 1157.55 Z" fill="#000000" fill-rule="nonzero" fill-opacity="1" /><path clip-path="url(#clip170)" d="M654.941 1130.01 Q651.33 1130.01 649.501 1133.57 Q647.695 1137.11 647.695 1144.24 Q647.695 1151.35 649.501 1154.91 Q651.33 1158.46 654.941 1158.46 Q658.575 1158.46 660.381 1154.91 Q662.209 1151.35 662.209 1144.24 Q662.209 1137.11 660.381 1133.57 Q658.575 1130.01 654.941 1130.01 M654.941 1126.3 Q660.751 1126.3 663.807 1130.91 Q666.885 1135.49 666.885 1144.24 Q666.885 1152.97 663.807 1157.58 Q660.751 1162.16 654.941 1162.16 Q649.131 1162.16 646.052 1157.58 Q642.996 1152.97 642.996 1144.24 Q642.996 1135.49 646.052 1130.91 Q649.131 1126.3 654.941 1126.3 Z" fill="#000000" fill-rule="nonzero" fill-opacity="1" /><path clip-path="url(#clip170)" d="M837.163 1157.55 L844.802 1157.55 L844.802 1131.19 L836.491 1132.85 L836.491 1128.59 L844.755 1126.93 L849.431 1126.93 L849.431 1157.55 L857.07 1157.55 L857.07 1161.49 L837.163 1161.49 L837.163 1157.55 Z" fill="#000000" fill-rule="nonzero" fill-opacity="1" /><path clip-path="url(#clip170)" d="M866.561 1126.93 L884.917 1126.93 L884.917 1130.86 L870.843 1130.86 L870.843 1139.34 Q871.862 1138.99 872.88 1138.83 Q873.899 1138.64 874.917 1138.64 Q880.704 1138.64 884.084 1141.81 Q887.463 1144.98 887.463 1150.4 Q887.463 1155.98 883.991 1159.08 Q880.519 1162.16 874.2 1162.16 Q872.024 1162.16 869.755 1161.79 Q867.51 1161.42 865.102 1160.68 L865.102 1155.98 Q867.186 1157.11 869.408 1157.67 Q871.63 1158.22 874.107 1158.22 Q878.112 1158.22 880.45 1156.12 Q882.787 1154.01 882.787 1150.4 Q882.787 1146.79 880.45 1144.68 Q878.112 1142.58 874.107 1142.58 Q872.232 1142.58 870.357 1142.99 Q868.505 1143.41 866.561 1144.29 L866.561 1126.93 Z" fill="#000000" fill-rule="nonzero" fill-opacity="1" /><path clip-path="url(#clip170)" d="M1061.83 1157.55 L1078.15 1157.55 L1078.15 1161.49 L1056.2 1161.49 L1056.2 1157.55 Q1058.86 1154.8 1063.45 1150.17 Q1068.05 1145.52 1069.23 1144.17 Q1071.48 1141.65 1072.36 1139.91 Q1073.26 1138.15 1073.26 1136.46 Q1073.26 1133.71 1071.32 1131.97 Q1069.4 1130.24 1066.29 1130.24 Q1064.1 1130.24 1061.64 1131 Q1059.21 1131.77 1056.43 1133.32 L1056.43 1128.59 Q1059.26 1127.46 1061.71 1126.88 Q1064.16 1126.3 1066.2 1126.3 Q1071.57 1126.3 1074.77 1128.99 Q1077.96 1131.67 1077.96 1136.16 Q1077.96 1138.29 1077.15 1140.21 Q1076.36 1142.11 1074.26 1144.71 Q1073.68 1145.38 1070.58 1148.59 Q1067.47 1151.79 1061.83 1157.55 Z" fill="#000000" fill-rule="nonzero" fill-opacity="1" /><path clip-path="url(#clip170)" d="M1097.96 1130.01 Q1094.35 1130.01 1092.52 1133.57 Q1090.72 1137.11 1090.72 1144.24 Q1090.72 1151.35 1092.52 1154.91 Q1094.35 1158.46 1097.96 1158.46 Q1101.59 1158.46 1103.4 1154.91 Q1105.23 1151.35 1105.23 1144.24 Q1105.23 1137.11 1103.4 1133.57 Q1101.59 1130.01 1097.96 1130.01 M1097.96 1126.3 Q1103.77 1126.3 1106.83 1130.91 Q1109.9 1135.49 1109.9 1144.24 Q1109.9 1152.97 1106.83 1157.58 Q1103.77 1162.16 1097.96 1162.16 Q1092.15 1162.16 1089.07 1157.58 Q1086.02 1152.97 1086.02 1144.24 Q1086.02 1135.49 1089.07 1130.91 Q1092.15 1126.3 1097.96 1126.3 Z" fill="#000000" fill-rule="nonzero" fill-opacity="1" /><polyline clip-path="url(#clip170)" style="stroke:#000000; stroke-linecap:round; stroke-linejoin:round; stroke-width:4; stroke-opacity:1; fill:none" points="216.436,1099.09 216.436,92.1521 "/>
<polyline clip-path="url(#clip170)" style="stroke:#000000; stroke-linecap:round; stroke-linejoin:round; stroke-width:4; stroke-opacity:1; fill:none" points="216.436,867.45 235.334,867.45 "/>
<polyline clip-path="url(#clip170)" style="stroke:#000000; stroke-linecap:round; stroke-linejoin:round; stroke-width:4; stroke-opacity:1; fill:none" points="216.436,618.517 235.334,618.517 "/>
<polyline clip-path="url(#clip170)" style="stroke:#000000; stroke-linecap:round; stroke-linejoin:round; stroke-width:4; stroke-opacity:1; fill:none" points="216.436,369.584 235.334,369.584 "/>
<polyline clip-path="url(#clip170)" style="stroke:#000000; stroke-linecap:round; stroke-linejoin:round; stroke-width:4; stroke-opacity:1; fill:none" points="216.436,120.65 235.334,120.65 "/>
<path clip-path="url(#clip170)" d="M63.9319 853.249 Q60.3208 853.249 58.4921 856.813 Q56.6865 860.355 56.6865 867.485 Q56.6865 874.591 58.4921 878.156 Q60.3208 881.698 63.9319 881.698 Q67.5661 881.698 69.3717 878.156 Q71.2004 874.591 71.2004 867.485 Q71.2004 860.355 69.3717 856.813 Q67.5661 853.249 63.9319 853.249 M63.9319 849.545 Q69.742 849.545 72.7976 854.151 Q75.8763 858.735 75.8763 867.485 Q75.8763 876.211 72.7976 880.818 Q69.742 885.401 63.9319 885.401 Q58.1217 885.401 55.043 880.818 Q51.9875 876.211 51.9875 867.485 Q51.9875 858.735 55.043 854.151 Q58.1217 849.545 63.9319 849.545 Z" fill="#000000" fill-rule="nonzero" fill-opacity="1" /><path clip-path="url(#clip170)" d="M84.0938 878.85 L88.978 878.85 L88.978 884.73 L84.0938 884.73 L84.0938 878.85 Z" fill="#000000" fill-rule="nonzero" fill-opacity="1" /><path clip-path="url(#clip170)" d="M109.163 853.249 Q105.552 853.249 103.723 856.813 Q101.918 860.355 101.918 867.485 Q101.918 874.591 103.723 878.156 Q105.552 881.698 109.163 881.698 Q112.797 881.698 114.603 878.156 Q116.432 874.591 116.432 867.485 Q116.432 860.355 114.603 856.813 Q112.797 853.249 109.163 853.249 M109.163 849.545 Q114.973 849.545 118.029 854.151 Q121.107 858.735 121.107 867.485 Q121.107 876.211 118.029 880.818 Q114.973 885.401 109.163 885.401 Q103.353 885.401 100.274 880.818 Q97.2187 876.211 97.2187 867.485 Q97.2187 858.735 100.274 854.151 Q103.353 849.545 109.163 849.545 Z" fill="#000000" fill-rule="nonzero" fill-opacity="1" /><path clip-path="url(#clip170)" d="M139.325 853.249 Q135.714 853.249 133.885 856.813 Q132.08 860.355 132.08 867.485 Q132.08 874.591 133.885 878.156 Q135.714 881.698 139.325 881.698 Q142.959 881.698 144.765 878.156 Q146.593 874.591 146.593 867.485 Q146.593 860.355 144.765 856.813 Q142.959 853.249 139.325 853.249 M139.325 849.545 Q145.135 849.545 148.191 854.151 Q151.269 858.735 151.269 867.485 Q151.269 876.211 148.191 880.818 Q145.135 885.401 139.325 885.401 Q133.515 885.401 130.436 880.818 Q127.381 876.211 127.381 867.485 Q127.381 858.735 130.436 854.151 Q133.515 849.545 139.325 849.545 Z" fill="#000000" fill-rule="nonzero" fill-opacity="1" /><path clip-path="url(#clip170)" d="M159.533 850.17 L177.89 850.17 L177.89 854.105 L163.816 854.105 L163.816 862.577 Q164.834 862.23 165.853 862.068 Q166.871 861.883 167.89 861.883 Q173.677 861.883 177.056 865.054 Q180.436 868.225 180.436 873.642 Q180.436 879.221 176.964 882.322 Q173.491 885.401 167.172 885.401 Q164.996 885.401 162.728 885.031 Q160.482 884.66 158.075 883.92 L158.075 879.221 Q160.158 880.355 162.38 880.91 Q164.603 881.466 167.079 881.466 Q171.084 881.466 173.422 879.36 Q175.76 877.253 175.76 873.642 Q175.76 870.031 173.422 867.924 Q171.084 865.818 167.079 865.818 Q165.204 865.818 163.329 866.235 Q161.478 866.651 159.533 867.531 L159.533 850.17 Z" fill="#000000" fill-rule="nonzero" fill-opacity="1" /><path clip-path="url(#clip170)" d="M62.9365 604.315 Q59.3254 604.315 57.4967 607.88 Q55.6912 611.422 55.6912 618.551 Q55.6912 625.658 57.4967 629.223 Q59.3254 632.764 62.9365 632.764 Q66.5707 632.764 68.3763 629.223 Q70.205 625.658 70.205 618.551 Q70.205 611.422 68.3763 607.88 Q66.5707 604.315 62.9365 604.315 M62.9365 600.612 Q68.7467 600.612 71.8022 605.218 Q74.8809 609.801 74.8809 618.551 Q74.8809 627.278 71.8022 631.885 Q68.7467 636.468 62.9365 636.468 Q57.1264 636.468 54.0477 631.885 Q50.9921 627.278 50.9921 618.551 Q50.9921 609.801 54.0477 605.218 Q57.1264 600.612 62.9365 600.612 Z" fill="#000000" fill-rule="nonzero" fill-opacity="1" /><path clip-path="url(#clip170)" d="M83.0984 629.917 L87.9827 629.917 L87.9827 635.797 L83.0984 635.797 L83.0984 629.917 Z" fill="#000000" fill-rule="nonzero" fill-opacity="1" /><path clip-path="url(#clip170)" d="M108.168 604.315 Q104.557 604.315 102.728 607.88 Q100.922 611.422 100.922 618.551 Q100.922 625.658 102.728 629.223 Q104.557 632.764 108.168 632.764 Q111.802 632.764 113.608 629.223 Q115.436 625.658 115.436 618.551 Q115.436 611.422 113.608 607.88 Q111.802 604.315 108.168 604.315 M108.168 600.612 Q113.978 600.612 117.033 605.218 Q120.112 609.801 120.112 618.551 Q120.112 627.278 117.033 631.885 Q113.978 636.468 108.168 636.468 Q102.358 636.468 99.2789 631.885 Q96.2234 627.278 96.2234 618.551 Q96.2234 609.801 99.2789 605.218 Q102.358 600.612 108.168 600.612 Z" fill="#000000" fill-rule="nonzero" fill-opacity="1" /><path clip-path="url(#clip170)" d="M129.14 631.862 L136.779 631.862 L136.779 605.496 L128.469 607.163 L128.469 602.903 L136.732 601.237 L141.408 601.237 L141.408 631.862 L149.047 631.862 L149.047 635.797 L129.14 635.797 L129.14 631.862 Z" fill="#000000" fill-rule="nonzero" fill-opacity="1" /><path clip-path="url(#clip170)" d="M168.491 604.315 Q164.88 604.315 163.052 607.88 Q161.246 611.422 161.246 618.551 Q161.246 625.658 163.052 629.223 Q164.88 632.764 168.491 632.764 Q172.126 632.764 173.931 629.223 Q175.76 625.658 175.76 618.551 Q175.76 611.422 173.931 607.88 Q172.126 604.315 168.491 604.315 M168.491 600.612 Q174.302 600.612 177.357 605.218 Q180.436 609.801 180.436 618.551 Q180.436 627.278 177.357 631.885 Q174.302 636.468 168.491 636.468 Q162.681 636.468 159.603 631.885 Q156.547 627.278 156.547 618.551 Q156.547 609.801 159.603 605.218 Q162.681 600.612 168.491 600.612 Z" fill="#000000" fill-rule="nonzero" fill-opacity="1" /><path clip-path="url(#clip170)" d="M63.9319 355.382 Q60.3208 355.382 58.4921 358.947 Q56.6865 362.489 56.6865 369.618 Q56.6865 376.725 58.4921 380.289 Q60.3208 383.831 63.9319 383.831 Q67.5661 383.831 69.3717 380.289 Q71.2004 376.725 71.2004 369.618 Q71.2004 362.489 69.3717 358.947 Q67.5661 355.382 63.9319 355.382 M63.9319 351.679 Q69.742 351.679 72.7976 356.285 Q75.8763 360.868 75.8763 369.618 Q75.8763 378.345 72.7976 382.951 Q69.742 387.535 63.9319 387.535 Q58.1217 387.535 55.043 382.951 Q51.9875 378.345 51.9875 369.618 Q51.9875 360.868 55.043 356.285 Q58.1217 351.679 63.9319 351.679 Z" fill="#000000" fill-rule="nonzero" fill-opacity="1" /><path clip-path="url(#clip170)" d="M84.0938 380.984 L88.978 380.984 L88.978 386.864 L84.0938 386.864 L84.0938 380.984 Z" fill="#000000" fill-rule="nonzero" fill-opacity="1" /><path clip-path="url(#clip170)" d="M109.163 355.382 Q105.552 355.382 103.723 358.947 Q101.918 362.489 101.918 369.618 Q101.918 376.725 103.723 380.289 Q105.552 383.831 109.163 383.831 Q112.797 383.831 114.603 380.289 Q116.432 376.725 116.432 369.618 Q116.432 362.489 114.603 358.947 Q112.797 355.382 109.163 355.382 M109.163 351.679 Q114.973 351.679 118.029 356.285 Q121.107 360.868 121.107 369.618 Q121.107 378.345 118.029 382.951 Q114.973 387.535 109.163 387.535 Q103.353 387.535 100.274 382.951 Q97.2187 378.345 97.2187 369.618 Q97.2187 360.868 100.274 356.285 Q103.353 351.679 109.163 351.679 Z" fill="#000000" fill-rule="nonzero" fill-opacity="1" /><path clip-path="url(#clip170)" d="M130.135 382.928 L137.774 382.928 L137.774 356.563 L129.464 358.229 L129.464 353.97 L137.728 352.304 L142.404 352.304 L142.404 382.928 L150.043 382.928 L150.043 386.864 L130.135 386.864 L130.135 382.928 Z" fill="#000000" fill-rule="nonzero" fill-opacity="1" /><path clip-path="url(#clip170)" d="M159.533 352.304 L177.89 352.304 L177.89 356.239 L163.816 356.239 L163.816 364.711 Q164.834 364.364 165.853 364.202 Q166.871 364.016 167.89 364.016 Q173.677 364.016 177.056 367.188 Q180.436 370.359 180.436 375.776 Q180.436 381.354 176.964 384.456 Q173.491 387.535 167.172 387.535 Q164.996 387.535 162.728 387.164 Q160.482 386.794 158.075 386.053 L158.075 381.354 Q160.158 382.489 162.38 383.044 Q164.603 383.6 167.079 383.6 Q171.084 383.6 173.422 381.493 Q175.76 379.387 175.76 375.776 Q175.76 372.165 173.422 370.058 Q171.084 367.952 167.079 367.952 Q165.204 367.952 163.329 368.368 Q161.478 368.785 159.533 369.665 L159.533 352.304 Z" fill="#000000" fill-rule="nonzero" fill-opacity="1" /><path clip-path="url(#clip170)" d="M62.9365 106.449 Q59.3254 106.449 57.4967 110.014 Q55.6912 113.555 55.6912 120.685 Q55.6912 127.791 57.4967 131.356 Q59.3254 134.898 62.9365 134.898 Q66.5707 134.898 68.3763 131.356 Q70.205 127.791 70.205 120.685 Q70.205 113.555 68.3763 110.014 Q66.5707 106.449 62.9365 106.449 M62.9365 102.745 Q68.7467 102.745 71.8022 107.352 Q74.8809 111.935 74.8809 120.685 Q74.8809 129.412 71.8022 134.018 Q68.7467 138.602 62.9365 138.602 Q57.1264 138.602 54.0477 134.018 Q50.9921 129.412 50.9921 120.685 Q50.9921 111.935 54.0477 107.352 Q57.1264 102.745 62.9365 102.745 Z" fill="#000000" fill-rule="nonzero" fill-opacity="1" /><path clip-path="url(#clip170)" d="M83.0984 132.051 L87.9827 132.051 L87.9827 137.93 L83.0984 137.93 L83.0984 132.051 Z" fill="#000000" fill-rule="nonzero" fill-opacity="1" /><path clip-path="url(#clip170)" d="M108.168 106.449 Q104.557 106.449 102.728 110.014 Q100.922 113.555 100.922 120.685 Q100.922 127.791 102.728 131.356 Q104.557 134.898 108.168 134.898 Q111.802 134.898 113.608 131.356 Q115.436 127.791 115.436 120.685 Q115.436 113.555 113.608 110.014 Q111.802 106.449 108.168 106.449 M108.168 102.745 Q113.978 102.745 117.033 107.352 Q120.112 111.935 120.112 120.685 Q120.112 129.412 117.033 134.018 Q113.978 138.602 108.168 138.602 Q102.358 138.602 99.2789 134.018 Q96.2234 129.412 96.2234 120.685 Q96.2234 111.935 99.2789 107.352 Q102.358 102.745 108.168 102.745 Z" fill="#000000" fill-rule="nonzero" fill-opacity="1" /><path clip-path="url(#clip170)" d="M132.357 133.995 L148.677 133.995 L148.677 137.93 L126.732 137.93 L126.732 133.995 Q129.394 131.241 133.978 126.611 Q138.584 121.958 139.765 120.616 Q142.01 118.092 142.89 116.356 Q143.793 114.597 143.793 112.907 Q143.793 110.153 141.848 108.417 Q139.927 106.68 136.825 106.68 Q134.626 106.68 132.172 107.444 Q129.742 108.208 126.964 109.759 L126.964 105.037 Q129.788 103.903 132.242 103.324 Q134.695 102.745 136.732 102.745 Q142.103 102.745 145.297 105.43 Q148.492 108.116 148.492 112.606 Q148.492 114.736 147.681 116.657 Q146.894 118.555 144.788 121.148 Q144.209 121.819 141.107 125.037 Q138.006 128.231 132.357 133.995 Z" fill="#000000" fill-rule="nonzero" fill-opacity="1" /><path clip-path="url(#clip170)" d="M168.491 106.449 Q164.88 106.449 163.052 110.014 Q161.246 113.555 161.246 120.685 Q161.246 127.791 163.052 131.356 Q164.88 134.898 168.491 134.898 Q172.126 134.898 173.931 131.356 Q175.76 127.791 175.76 120.685 Q175.76 113.555 173.931 110.014 Q172.126 106.449 168.491 106.449 M168.491 102.745 Q174.302 102.745 177.357 107.352 Q180.436 111.935 180.436 120.685 Q180.436 129.412 177.357 134.018 Q174.302 138.602 168.491 138.602 Q162.681 138.602 159.603 134.018 Q156.547 129.412 156.547 120.685 Q156.547 111.935 159.603 107.352 Q162.681 102.745 168.491 102.745 Z" fill="#000000" fill-rule="nonzero" fill-opacity="1" /><path clip-path="url(#clip170)" d="M617.734 30.8748 L617.734 33.2186 L595.703 33.2186 Q596.016 38.1665 598.672 40.7706 Q601.354 43.3487 606.12 43.3487 Q608.88 43.3487 611.458 42.6716 Q614.062 41.9946 616.614 40.6404 L616.614 45.1716 Q614.036 46.2654 611.328 46.8383 Q608.62 47.4112 605.833 47.4112 Q598.854 47.4112 594.766 43.3487 Q590.703 39.2862 590.703 32.3592 Q590.703 25.1978 594.557 21.0051 Q598.437 16.7864 605 16.7864 Q610.885 16.7864 614.297 20.5884 Q617.734 24.3645 617.734 30.8748 M612.943 29.4686 Q612.891 25.5363 610.729 23.1926 Q608.594 20.8488 605.052 20.8488 Q601.042 20.8488 598.62 23.1145 Q596.224 25.3801 595.859 29.4946 L612.943 29.4686 Z" fill="#000000" fill-rule="nonzero" fill-opacity="1" /><path clip-path="url(#clip170)" d="M625.104 35.1456 L625.104 17.4895 L629.896 17.4895 L629.896 34.9634 Q629.896 39.104 631.51 41.1873 Q633.125 43.2446 636.354 43.2446 Q640.234 43.2446 642.474 40.7706 Q644.739 38.2967 644.739 34.0259 L644.739 17.4895 L649.531 17.4895 L649.531 46.656 L644.739 46.656 L644.739 42.1769 Q642.995 44.8331 640.677 46.1352 Q638.385 47.4112 635.338 47.4112 Q630.312 47.4112 627.708 44.2862 Q625.104 41.1612 625.104 35.1456 M637.161 16.7864 L637.161 16.7864 Z" fill="#000000" fill-rule="nonzero" fill-opacity="1" /><path clip-path="url(#clip170)" d="M676.302 21.9686 Q675.494 21.4999 674.531 21.2916 Q673.593 21.0572 672.448 21.0572 Q668.385 21.0572 666.198 23.7134 Q664.036 26.3436 664.036 31.2915 L664.036 46.656 L659.218 46.656 L659.218 17.4895 L664.036 17.4895 L664.036 22.0207 Q665.547 19.3645 667.968 18.0884 Q670.39 16.7864 673.854 16.7864 Q674.349 16.7864 674.948 16.8645 Q675.546 16.9166 676.276 17.0468 L676.302 21.9686 Z" fill="#000000" fill-rule="nonzero" fill-opacity="1" /><path clip-path="url(#clip170)" d="M681.328 17.4895 L686.119 17.4895 L686.119 46.656 L681.328 46.656 L681.328 17.4895 M681.328 6.13538 L686.119 6.13538 L686.119 12.2031 L681.328 12.2031 L681.328 6.13538 Z" fill="#000000" fill-rule="nonzero" fill-opacity="1" /><path clip-path="url(#clip170)" d="M717.083 32.0988 Q717.083 26.8124 714.895 23.8176 Q712.734 20.7968 708.932 20.7968 Q705.13 20.7968 702.942 23.8176 Q700.781 26.8124 700.781 32.0988 Q700.781 37.3852 702.942 40.406 Q705.13 43.4008 708.932 43.4008 Q712.734 43.4008 714.895 40.406 Q717.083 37.3852 717.083 32.0988 M700.781 21.9165 Q702.291 19.3124 704.583 18.0624 Q706.9 16.7864 710.104 16.7864 Q715.416 16.7864 718.723 21.0051 Q722.057 25.2238 722.057 32.0988 Q722.057 38.9737 718.723 43.1925 Q715.416 47.4112 710.104 47.4112 Q706.9 47.4112 704.583 46.1612 Q702.291 44.8852 700.781 42.281 L700.781 46.656 L695.963 46.656 L695.963 6.13538 L700.781 6.13538 L700.781 21.9165 Z" fill="#000000" fill-rule="nonzero" fill-opacity="1" /><path clip-path="url(#clip170)" d="M741.301 20.8488 Q737.447 20.8488 735.208 23.8697 Q732.968 26.8644 732.968 32.0988 Q732.968 37.3331 735.182 40.354 Q737.421 43.3487 741.301 43.3487 Q745.129 43.3487 747.369 40.3279 Q749.609 37.3071 749.609 32.0988 Q749.609 26.9165 747.369 23.8957 Q745.129 20.8488 741.301 20.8488 M741.301 16.7864 Q747.551 16.7864 751.119 20.8488 Q754.687 24.9113 754.687 32.0988 Q754.687 39.2602 751.119 43.3487 Q747.551 47.4112 741.301 47.4112 Q735.025 47.4112 731.458 43.3487 Q727.916 39.2602 727.916 32.0988 Q727.916 24.9113 731.458 20.8488 Q735.025 16.7864 741.301 16.7864 Z" fill="#000000" fill-rule="nonzero" fill-opacity="1" /><path clip-path="url(#clip170)" d="M779.53 21.9686 Q778.723 21.4999 777.759 21.2916 Q776.822 21.0572 775.676 21.0572 Q771.614 21.0572 769.426 23.7134 Q767.265 26.3436 767.265 31.2915 L767.265 46.656 L762.447 46.656 L762.447 17.4895 L767.265 17.4895 L767.265 22.0207 Q768.775 19.3645 771.197 18.0884 Q773.619 16.7864 777.082 16.7864 Q777.577 16.7864 778.176 16.8645 Q778.775 16.9166 779.504 17.0468 L779.53 21.9686 Z" fill="#000000" fill-rule="nonzero" fill-opacity="1" /><path clip-path="url(#clip172)" d="M242.965 1034.44 L287.18 1070.59 L331.395 1018.02 L375.611 1050.81 L419.826 1054.73 L464.041 1038.51 L508.256 1013.21 L552.471 1025.92 L596.686 997.312 L640.902 1035.32 L685.117 1064.97 L729.332 1059.29 L773.547 1055.4 L817.762 1041.09 L861.977 1033.91 L906.193 938.714 L950.408 935.406 L994.623 951.583 L1038.84 961.772 L1083.05 982.16 L1127.27 950.729 L1127.27 884.988 L1083.05 898.068 L1038.84 862.28 L994.623 868.69 L950.408 904.121 L906.193 849.862 L861.977 833.148 L817.762 831.559 L773.547 896.935 L729.332 860.049 L685.117 868.557 L640.902 901.832 L596.686 931.979 L552.471 960.817 L508.256 962.752 L464.041 957.345 L419.826 954.227 L375.611 975.181 L331.395 979.874 L287.18 992.041 L242.965 1034.44  Z" fill="#009af9" fill-rule="evenodd" fill-opacity="0.1"/>
<polyline clip-path="url(#clip172)" style="stroke:#009af9; stroke-linecap:round; stroke-linejoin:round; stroke-width:4; stroke-opacity:1; fill:none" points="242.965,1034.44 287.18,1031.32 331.395,998.947 375.611,1013 419.826,1004.48 464.041,997.928 508.256,987.98 552.471,993.368 596.686,964.646 640.902,968.576 685.117,966.765 729.332,959.67 773.547,976.165 817.762,936.323 861.977,933.53 906.193,894.288 950.408,919.764 994.623,910.137 1038.84,912.026 1083.05,940.114 1127.27,917.859 "/>
<path clip-path="url(#clip172)" d="M242.965 1034.44 L287.18 120.65 L331.395 120.65 L375.611 120.65 L419.826 120.65 L464.041 120.65 L508.256 120.65 L552.471 120.65 L596.686 120.65 L640.902 120.65 L685.117 120.65 L729.332 120.65 L773.547 120.65 L817.762 120.65 L861.977 120.65 L906.193 120.65 L950.408 120.65 L994.623 120.65 L1038.84 120.65 L1083.05 120.65 L1127.27 120.65 L1127.27 120.65 L1083.05 120.65 L1038.84 120.65 L994.623 120.65 L950.408 120.65 L906.193 120.65 L861.977 120.65 L817.762 120.65 L773.547 120.65 L729.332 120.65 L685.117 120.65 L640.902 120.65 L596.686 120.65 L552.471 120.65 L508.256 120.65 L464.041 120.65 L419.826 120.65 L375.611 120.65 L331.395 120.65 L287.18 120.65 L242.965 1034.44  Z" fill="#e26f46" fill-rule="evenodd" fill-opacity="0.1"/>
<polyline clip-path="url(#clip172)" style="stroke:#e26f46; stroke-linecap:round; stroke-linejoin:round; stroke-width:4; stroke-opacity:1; fill:none" points="242.965,1034.44 287.18,120.65 331.395,120.65 375.611,120.65 419.826,120.65 464.041,120.65 508.256,120.65 552.471,120.65 596.686,120.65 640.902,120.65 685.117,120.65 729.332,120.65 773.547,120.65 817.762,120.65 861.977,120.65 906.193,120.65 950.408,120.65 994.623,120.65 1038.84,120.65 1083.05,120.65 1127.27,120.65 "/>
<path clip-path="url(#clip170)" d="M1415.39 1099.09 L2352.76 1099.09 L2352.76 92.1521 L1415.39 92.1521  Z" fill="#ffffff" fill-rule="evenodd" fill-opacity="1"/>
<defs>
  <clipPath id="clip173">
    <rect x="1415" y="92" width="938" height="1008"/>
  </clipPath>
</defs>
<polyline clip-path="url(#clip173)" style="stroke:#000000; stroke-linecap:round; stroke-linejoin:round; stroke-width:2; stroke-opacity:0.1; fill:none" points="1618.78,1099.09 1618.78,92.1521 "/>
<polyline clip-path="url(#clip173)" style="stroke:#000000; stroke-linecap:round; stroke-linejoin:round; stroke-width:2; stroke-opacity:0.1; fill:none" points="1839.86,1099.09 1839.86,92.1521 "/>
<polyline clip-path="url(#clip173)" style="stroke:#000000; stroke-linecap:round; stroke-linejoin:round; stroke-width:2; stroke-opacity:0.1; fill:none" points="2060.94,1099.09 2060.94,92.1521 "/>
<polyline clip-path="url(#clip173)" style="stroke:#000000; stroke-linecap:round; stroke-linejoin:round; stroke-width:2; stroke-opacity:0.1; fill:none" points="2282.01,1099.09 2282.01,92.1521 "/>
<polyline clip-path="url(#clip173)" style="stroke:#000000; stroke-linecap:round; stroke-linejoin:round; stroke-width:2; stroke-opacity:0.1; fill:none" points="1415.39,1033.85 2352.76,1033.85 "/>
<polyline clip-path="url(#clip173)" style="stroke:#000000; stroke-linecap:round; stroke-linejoin:round; stroke-width:2; stroke-opacity:0.1; fill:none" points="1415.39,838.388 2352.76,838.388 "/>
<polyline clip-path="url(#clip173)" style="stroke:#000000; stroke-linecap:round; stroke-linejoin:round; stroke-width:2; stroke-opacity:0.1; fill:none" points="1415.39,642.928 2352.76,642.928 "/>
<polyline clip-path="url(#clip173)" style="stroke:#000000; stroke-linecap:round; stroke-linejoin:round; stroke-width:2; stroke-opacity:0.1; fill:none" points="1415.39,447.468 2352.76,447.468 "/>
<polyline clip-path="url(#clip173)" style="stroke:#000000; stroke-linecap:round; stroke-linejoin:round; stroke-width:2; stroke-opacity:0.1; fill:none" points="1415.39,252.008 2352.76,252.008 "/>
<polyline clip-path="url(#clip170)" style="stroke:#000000; stroke-linecap:round; stroke-linejoin:round; stroke-width:4; stroke-opacity:1; fill:none" points="1415.39,1099.09 2352.76,1099.09 "/>
<polyline clip-path="url(#clip170)" style="stroke:#000000; stroke-linecap:round; stroke-linejoin:round; stroke-width:4; stroke-opacity:1; fill:none" points="1618.78,1099.09 1618.78,1080.19 "/>
<polyline clip-path="url(#clip170)" style="stroke:#000000; stroke-linecap:round; stroke-linejoin:round; stroke-width:4; stroke-opacity:1; fill:none" points="1839.86,1099.09 1839.86,1080.19 "/>
<polyline clip-path="url(#clip170)" style="stroke:#000000; stroke-linecap:round; stroke-linejoin:round; stroke-width:4; stroke-opacity:1; fill:none" points="2060.94,1099.09 2060.94,1080.19 "/>
<polyline clip-path="url(#clip170)" style="stroke:#000000; stroke-linecap:round; stroke-linejoin:round; stroke-width:4; stroke-opacity:1; fill:none" points="2282.01,1099.09 2282.01,1080.19 "/>
<path clip-path="url(#clip170)" d="M1609.06 1126.93 L1627.42 1126.93 L1627.42 1130.86 L1613.34 1130.86 L1613.34 1139.34 Q1614.36 1138.99 1615.38 1138.83 Q1616.4 1138.64 1617.42 1138.64 Q1623.21 1138.64 1626.58 1141.81 Q1629.96 1144.98 1629.96 1150.4 Q1629.96 1155.98 1626.49 1159.08 Q1623.02 1162.16 1616.7 1162.16 Q1614.52 1162.16 1612.26 1161.79 Q1610.01 1161.42 1607.6 1160.68 L1607.6 1155.98 Q1609.69 1157.11 1611.91 1157.67 Q1614.13 1158.22 1616.61 1158.22 Q1620.61 1158.22 1622.95 1156.12 Q1625.29 1154.01 1625.29 1150.4 Q1625.29 1146.79 1622.95 1144.68 Q1620.61 1142.58 1616.61 1142.58 Q1614.73 1142.58 1612.86 1142.99 Q1611.01 1143.41 1609.06 1144.29 L1609.06 1126.93 Z" fill="#000000" fill-rule="nonzero" fill-opacity="1" /><path clip-path="url(#clip170)" d="M1814.55 1157.55 L1822.19 1157.55 L1822.19 1131.19 L1813.88 1132.85 L1813.88 1128.59 L1822.14 1126.93 L1826.82 1126.93 L1826.82 1157.55 L1834.45 1157.55 L1834.45 1161.49 L1814.55 1161.49 L1814.55 1157.55 Z" fill="#000000" fill-rule="nonzero" fill-opacity="1" /><path clip-path="url(#clip170)" d="M1853.9 1130.01 Q1850.29 1130.01 1848.46 1133.57 Q1846.65 1137.11 1846.65 1144.24 Q1846.65 1151.35 1848.46 1154.91 Q1850.29 1158.46 1853.9 1158.46 Q1857.53 1158.46 1859.34 1154.91 Q1861.17 1151.35 1861.17 1144.24 Q1861.17 1137.11 1859.34 1133.57 Q1857.53 1130.01 1853.9 1130.01 M1853.9 1126.3 Q1859.71 1126.3 1862.76 1130.91 Q1865.84 1135.49 1865.84 1144.24 Q1865.84 1152.97 1862.76 1157.58 Q1859.71 1162.16 1853.9 1162.16 Q1848.09 1162.16 1845.01 1157.58 Q1841.95 1152.97 1841.95 1144.24 Q1841.95 1135.49 1845.01 1130.91 Q1848.09 1126.3 1853.9 1126.3 Z" fill="#000000" fill-rule="nonzero" fill-opacity="1" /><path clip-path="url(#clip170)" d="M2036.12 1157.55 L2043.76 1157.55 L2043.76 1131.19 L2035.45 1132.85 L2035.45 1128.59 L2043.71 1126.93 L2048.39 1126.93 L2048.39 1157.55 L2056.03 1157.55 L2056.03 1161.49 L2036.12 1161.49 L2036.12 1157.55 Z" fill="#000000" fill-rule="nonzero" fill-opacity="1" /><path clip-path="url(#clip170)" d="M2065.52 1126.93 L2083.88 1126.93 L2083.88 1130.86 L2069.8 1130.86 L2069.8 1139.34 Q2070.82 1138.99 2071.84 1138.83 Q2072.86 1138.64 2073.88 1138.64 Q2079.66 1138.64 2083.04 1141.81 Q2086.42 1144.98 2086.42 1150.4 Q2086.42 1155.98 2082.95 1159.08 Q2079.48 1162.16 2073.16 1162.16 Q2070.98 1162.16 2068.71 1161.79 Q2066.47 1161.42 2064.06 1160.68 L2064.06 1155.98 Q2066.14 1157.11 2068.37 1157.67 Q2070.59 1158.22 2073.07 1158.22 Q2077.07 1158.22 2079.41 1156.12 Q2081.75 1154.01 2081.75 1150.4 Q2081.75 1146.79 2079.41 1144.68 Q2077.07 1142.58 2073.07 1142.58 Q2071.19 1142.58 2069.32 1142.99 Q2067.46 1143.41 2065.52 1144.29 L2065.52 1126.93 Z" fill="#000000" fill-rule="nonzero" fill-opacity="1" /><path clip-path="url(#clip170)" d="M2260.78 1157.55 L2277.1 1157.55 L2277.1 1161.49 L2255.16 1161.49 L2255.16 1157.55 Q2257.82 1154.8 2262.41 1150.17 Q2267.01 1145.52 2268.19 1144.17 Q2270.44 1141.65 2271.32 1139.91 Q2272.22 1138.15 2272.22 1136.46 Q2272.22 1133.71 2270.28 1131.97 Q2268.35 1130.24 2265.25 1130.24 Q2263.05 1130.24 2260.6 1131 Q2258.17 1131.77 2255.39 1133.32 L2255.39 1128.59 Q2258.22 1127.46 2260.67 1126.88 Q2263.12 1126.3 2265.16 1126.3 Q2270.53 1126.3 2273.72 1128.99 Q2276.92 1131.67 2276.92 1136.16 Q2276.92 1138.29 2276.11 1140.21 Q2275.32 1142.11 2273.22 1144.71 Q2272.64 1145.38 2269.53 1148.59 Q2266.43 1151.79 2260.78 1157.55 Z" fill="#000000" fill-rule="nonzero" fill-opacity="1" /><path clip-path="url(#clip170)" d="M2296.92 1130.01 Q2293.31 1130.01 2291.48 1133.57 Q2289.67 1137.11 2289.67 1144.24 Q2289.67 1151.35 2291.48 1154.91 Q2293.31 1158.46 2296.92 1158.46 Q2300.55 1158.46 2302.36 1154.91 Q2304.19 1151.35 2304.19 1144.24 Q2304.19 1137.11 2302.36 1133.57 Q2300.55 1130.01 2296.92 1130.01 M2296.92 1126.3 Q2302.73 1126.3 2305.78 1130.91 Q2308.86 1135.49 2308.86 1144.24 Q2308.86 1152.97 2305.78 1157.58 Q2302.73 1162.16 2296.92 1162.16 Q2291.11 1162.16 2288.03 1157.58 Q2284.97 1152.97 2284.97 1144.24 Q2284.97 1135.49 2288.03 1130.91 Q2291.11 1126.3 2296.92 1126.3 Z" fill="#000000" fill-rule="nonzero" fill-opacity="1" /><polyline clip-path="url(#clip170)" style="stroke:#000000; stroke-linecap:round; stroke-linejoin:round; stroke-width:4; stroke-opacity:1; fill:none" points="1415.39,1099.09 1415.39,92.1521 "/>
<polyline clip-path="url(#clip170)" style="stroke:#000000; stroke-linecap:round; stroke-linejoin:round; stroke-width:4; stroke-opacity:1; fill:none" points="1415.39,1033.85 1434.29,1033.85 "/>
<polyline clip-path="url(#clip170)" style="stroke:#000000; stroke-linecap:round; stroke-linejoin:round; stroke-width:4; stroke-opacity:1; fill:none" points="1415.39,838.388 1434.29,838.388 "/>
<polyline clip-path="url(#clip170)" style="stroke:#000000; stroke-linecap:round; stroke-linejoin:round; stroke-width:4; stroke-opacity:1; fill:none" points="1415.39,642.928 1434.29,642.928 "/>
<polyline clip-path="url(#clip170)" style="stroke:#000000; stroke-linecap:round; stroke-linejoin:round; stroke-width:4; stroke-opacity:1; fill:none" points="1415.39,447.468 1434.29,447.468 "/>
<polyline clip-path="url(#clip170)" style="stroke:#000000; stroke-linecap:round; stroke-linejoin:round; stroke-width:4; stroke-opacity:1; fill:none" points="1415.39,252.008 1434.29,252.008 "/>
<path clip-path="url(#clip170)" d="M1252.71 1047.19 L1260.34 1047.19 L1260.34 1020.83 L1252.03 1022.49 L1252.03 1018.23 L1260.3 1016.57 L1264.97 1016.57 L1264.97 1047.19 L1272.61 1047.19 L1272.61 1051.13 L1252.71 1051.13 L1252.71 1047.19 Z" fill="#000000" fill-rule="nonzero" fill-opacity="1" /><path clip-path="url(#clip170)" d="M1282.06 1045.25 L1286.94 1045.25 L1286.94 1051.13 L1282.06 1051.13 L1282.06 1045.25 Z" fill="#000000" fill-rule="nonzero" fill-opacity="1" /><path clip-path="url(#clip170)" d="M1307.13 1019.65 Q1303.51 1019.65 1301.69 1023.21 Q1299.88 1026.75 1299.88 1033.88 Q1299.88 1040.99 1301.69 1044.55 Q1303.51 1048.1 1307.13 1048.1 Q1310.76 1048.1 1312.57 1044.55 Q1314.39 1040.99 1314.39 1033.88 Q1314.39 1026.75 1312.57 1023.21 Q1310.76 1019.65 1307.13 1019.65 M1307.13 1015.94 Q1312.94 1015.94 1315.99 1020.55 Q1319.07 1025.13 1319.07 1033.88 Q1319.07 1042.61 1315.99 1047.22 Q1312.94 1051.8 1307.13 1051.8 Q1301.32 1051.8 1298.24 1047.22 Q1295.18 1042.61 1295.18 1033.88 Q1295.18 1025.13 1298.24 1020.55 Q1301.32 1015.94 1307.13 1015.94 Z" fill="#000000" fill-rule="nonzero" fill-opacity="1" /><path clip-path="url(#clip170)" d="M1337.29 1019.65 Q1333.68 1019.65 1331.85 1023.21 Q1330.04 1026.75 1330.04 1033.88 Q1330.04 1040.99 1331.85 1044.55 Q1333.68 1048.1 1337.29 1048.1 Q1340.92 1048.1 1342.73 1044.55 Q1344.56 1040.99 1344.56 1033.88 Q1344.56 1026.75 1342.73 1023.21 Q1340.92 1019.65 1337.29 1019.65 M1337.29 1015.94 Q1343.1 1015.94 1346.15 1020.55 Q1349.23 1025.13 1349.23 1033.88 Q1349.23 1042.61 1346.15 1047.22 Q1343.1 1051.8 1337.29 1051.8 Q1331.48 1051.8 1328.4 1047.22 Q1325.34 1042.61 1325.34 1033.88 Q1325.34 1025.13 1328.4 1020.55 Q1331.48 1015.94 1337.29 1015.94 Z" fill="#000000" fill-rule="nonzero" fill-opacity="1" /><path clip-path="url(#clip170)" d="M1367.45 1019.65 Q1363.84 1019.65 1362.01 1023.21 Q1360.2 1026.75 1360.2 1033.88 Q1360.2 1040.99 1362.01 1044.55 Q1363.84 1048.1 1367.45 1048.1 Q1371.08 1048.1 1372.89 1044.55 Q1374.72 1040.99 1374.72 1033.88 Q1374.72 1026.75 1372.89 1023.21 Q1371.08 1019.65 1367.45 1019.65 M1367.45 1015.94 Q1373.26 1015.94 1376.32 1020.55 Q1379.39 1025.13 1379.39 1033.88 Q1379.39 1042.61 1376.32 1047.22 Q1373.26 1051.8 1367.45 1051.8 Q1361.64 1051.8 1358.56 1047.22 Q1355.51 1042.61 1355.51 1033.88 Q1355.51 1025.13 1358.56 1020.55 Q1361.64 1015.94 1367.45 1015.94 Z" fill="#000000" fill-rule="nonzero" fill-opacity="1" /><path clip-path="url(#clip170)" d="M1253.7 851.733 L1261.34 851.733 L1261.34 825.367 L1253.03 827.034 L1253.03 822.775 L1261.29 821.108 L1265.97 821.108 L1265.97 851.733 L1273.61 851.733 L1273.61 855.668 L1253.7 855.668 L1253.7 851.733 Z" fill="#000000" fill-rule="nonzero" fill-opacity="1" /><path clip-path="url(#clip170)" d="M1283.05 849.788 L1287.94 849.788 L1287.94 855.668 L1283.05 855.668 L1283.05 849.788 Z" fill="#000000" fill-rule="nonzero" fill-opacity="1" /><path clip-path="url(#clip170)" d="M1308.12 824.187 Q1304.51 824.187 1302.68 827.751 Q1300.88 831.293 1300.88 838.423 Q1300.88 845.529 1302.68 849.094 Q1304.51 852.635 1308.12 852.635 Q1311.76 852.635 1313.56 849.094 Q1315.39 845.529 1315.39 838.423 Q1315.39 831.293 1313.56 827.751 Q1311.76 824.187 1308.12 824.187 M1308.12 820.483 Q1313.93 820.483 1316.99 825.089 Q1320.07 829.673 1320.07 838.423 Q1320.07 847.149 1316.99 851.756 Q1313.93 856.339 1308.12 856.339 Q1302.31 856.339 1299.23 851.756 Q1296.18 847.149 1296.18 838.423 Q1296.18 829.673 1299.23 825.089 Q1302.31 820.483 1308.12 820.483 Z" fill="#000000" fill-rule="nonzero" fill-opacity="1" /><path clip-path="url(#clip170)" d="M1332.31 851.733 L1348.63 851.733 L1348.63 855.668 L1326.69 855.668 L1326.69 851.733 Q1329.35 848.978 1333.93 844.348 Q1338.54 839.696 1339.72 838.353 Q1341.96 835.83 1342.84 834.094 Q1343.75 832.335 1343.75 830.645 Q1343.75 827.89 1341.8 826.154 Q1339.88 824.418 1336.78 824.418 Q1334.58 824.418 1332.13 825.182 Q1329.7 825.946 1326.92 827.497 L1326.92 822.775 Q1329.74 821.64 1332.2 821.062 Q1334.65 820.483 1336.69 820.483 Q1342.06 820.483 1345.25 823.168 Q1348.45 825.853 1348.45 830.344 Q1348.45 832.474 1347.64 834.395 Q1346.85 836.293 1344.74 838.886 Q1344.16 839.557 1341.06 842.774 Q1337.96 845.969 1332.31 851.733 Z" fill="#000000" fill-rule="nonzero" fill-opacity="1" /><path clip-path="url(#clip170)" d="M1358.49 821.108 L1376.85 821.108 L1376.85 825.043 L1362.77 825.043 L1362.77 833.515 Q1363.79 833.168 1364.81 833.006 Q1365.83 832.821 1366.85 832.821 Q1372.63 832.821 1376.01 835.992 Q1379.39 839.163 1379.39 844.58 Q1379.39 850.159 1375.92 853.26 Q1372.45 856.339 1366.13 856.339 Q1363.95 856.339 1361.69 855.969 Q1359.44 855.598 1357.03 854.858 L1357.03 850.159 Q1359.12 851.293 1361.34 851.848 Q1363.56 852.404 1366.04 852.404 Q1370.04 852.404 1372.38 850.298 Q1374.72 848.191 1374.72 844.58 Q1374.72 840.969 1372.38 838.862 Q1370.04 836.756 1366.04 836.756 Q1364.16 836.756 1362.29 837.173 Q1360.44 837.589 1358.49 838.469 L1358.49 821.108 Z" fill="#000000" fill-rule="nonzero" fill-opacity="1" /><path clip-path="url(#clip170)" d="M1252.71 656.273 L1260.34 656.273 L1260.34 629.907 L1252.03 631.574 L1252.03 627.314 L1260.3 625.648 L1264.97 625.648 L1264.97 656.273 L1272.61 656.273 L1272.61 660.208 L1252.71 660.208 L1252.71 656.273 Z" fill="#000000" fill-rule="nonzero" fill-opacity="1" /><path clip-path="url(#clip170)" d="M1282.06 654.328 L1286.94 654.328 L1286.94 660.208 L1282.06 660.208 L1282.06 654.328 Z" fill="#000000" fill-rule="nonzero" fill-opacity="1" /><path clip-path="url(#clip170)" d="M1307.13 628.726 Q1303.51 628.726 1301.69 632.291 Q1299.88 635.833 1299.88 642.962 Q1299.88 650.069 1301.69 653.634 Q1303.51 657.175 1307.13 657.175 Q1310.76 657.175 1312.57 653.634 Q1314.39 650.069 1314.39 642.962 Q1314.39 635.833 1312.57 632.291 Q1310.76 628.726 1307.13 628.726 M1307.13 625.023 Q1312.94 625.023 1315.99 629.629 Q1319.07 634.213 1319.07 642.962 Q1319.07 651.689 1315.99 656.296 Q1312.94 660.879 1307.13 660.879 Q1301.32 660.879 1298.24 656.296 Q1295.18 651.689 1295.18 642.962 Q1295.18 634.213 1298.24 629.629 Q1301.32 625.023 1307.13 625.023 Z" fill="#000000" fill-rule="nonzero" fill-opacity="1" /><path clip-path="url(#clip170)" d="M1327.33 625.648 L1345.69 625.648 L1345.69 629.583 L1331.62 629.583 L1331.62 638.055 Q1332.64 637.708 1333.65 637.546 Q1334.67 637.361 1335.69 637.361 Q1341.48 637.361 1344.86 640.532 Q1348.24 643.703 1348.24 649.12 Q1348.24 654.699 1344.76 657.8 Q1341.29 660.879 1334.97 660.879 Q1332.8 660.879 1330.53 660.509 Q1328.28 660.138 1325.88 659.398 L1325.88 654.699 Q1327.96 655.833 1330.18 656.388 Q1332.4 656.944 1334.88 656.944 Q1338.89 656.944 1341.22 654.837 Q1343.56 652.731 1343.56 649.12 Q1343.56 645.509 1341.22 643.402 Q1338.89 641.296 1334.88 641.296 Q1333.01 641.296 1331.13 641.713 Q1329.28 642.129 1327.33 643.009 L1327.33 625.648 Z" fill="#000000" fill-rule="nonzero" fill-opacity="1" /><path clip-path="url(#clip170)" d="M1367.45 628.726 Q1363.84 628.726 1362.01 632.291 Q1360.2 635.833 1360.2 642.962 Q1360.2 650.069 1362.01 653.634 Q1363.84 657.175 1367.45 657.175 Q1371.08 657.175 1372.89 653.634 Q1374.72 650.069 1374.72 642.962 Q1374.72 635.833 1372.89 632.291 Q1371.08 628.726 1367.45 628.726 M1367.45 625.023 Q1373.26 625.023 1376.32 629.629 Q1379.39 634.213 1379.39 642.962 Q1379.39 651.689 1376.32 656.296 Q1373.26 660.879 1367.45 660.879 Q1361.64 660.879 1358.56 656.296 Q1355.51 651.689 1355.51 642.962 Q1355.51 634.213 1358.56 629.629 Q1361.64 625.023 1367.45 625.023 Z" fill="#000000" fill-rule="nonzero" fill-opacity="1" /><path clip-path="url(#clip170)" d="M1253.7 460.813 L1261.34 460.813 L1261.34 434.447 L1253.03 436.114 L1253.03 431.854 L1261.29 430.188 L1265.97 430.188 L1265.97 460.813 L1273.61 460.813 L1273.61 464.748 L1253.7 464.748 L1253.7 460.813 Z" fill="#000000" fill-rule="nonzero" fill-opacity="1" /><path clip-path="url(#clip170)" d="M1283.05 458.868 L1287.94 458.868 L1287.94 464.748 L1283.05 464.748 L1283.05 458.868 Z" fill="#000000" fill-rule="nonzero" fill-opacity="1" /><path clip-path="url(#clip170)" d="M1308.12 433.266 Q1304.51 433.266 1302.68 436.831 Q1300.88 440.373 1300.88 447.502 Q1300.88 454.609 1302.68 458.174 Q1304.51 461.715 1308.12 461.715 Q1311.76 461.715 1313.56 458.174 Q1315.39 454.609 1315.39 447.502 Q1315.39 440.373 1313.56 436.831 Q1311.76 433.266 1308.12 433.266 M1308.12 429.563 Q1313.93 429.563 1316.99 434.169 Q1320.07 438.752 1320.07 447.502 Q1320.07 456.229 1316.99 460.836 Q1313.93 465.419 1308.12 465.419 Q1302.31 465.419 1299.23 460.836 Q1296.18 456.229 1296.18 447.502 Q1296.18 438.752 1299.23 434.169 Q1302.31 429.563 1308.12 429.563 Z" fill="#000000" fill-rule="nonzero" fill-opacity="1" /><path clip-path="url(#clip170)" d="M1327.1 430.188 L1349.32 430.188 L1349.32 432.178 L1336.78 464.748 L1331.89 464.748 L1343.7 434.123 L1327.1 434.123 L1327.1 430.188 Z" fill="#000000" fill-rule="nonzero" fill-opacity="1" /><path clip-path="url(#clip170)" d="M1358.49 430.188 L1376.85 430.188 L1376.85 434.123 L1362.77 434.123 L1362.77 442.595 Q1363.79 442.248 1364.81 442.086 Q1365.83 441.901 1366.85 441.901 Q1372.63 441.901 1376.01 445.072 Q1379.39 448.243 1379.39 453.66 Q1379.39 459.238 1375.92 462.34 Q1372.45 465.419 1366.13 465.419 Q1363.95 465.419 1361.69 465.049 Q1359.44 464.678 1357.03 463.938 L1357.03 459.238 Q1359.12 460.373 1361.34 460.928 Q1363.56 461.484 1366.04 461.484 Q1370.04 461.484 1372.38 459.377 Q1374.72 457.271 1374.72 453.66 Q1374.72 450.049 1372.38 447.942 Q1370.04 445.836 1366.04 445.836 Q1364.16 445.836 1362.29 446.252 Q1360.44 446.669 1358.49 447.549 L1358.49 430.188 Z" fill="#000000" fill-rule="nonzero" fill-opacity="1" /><path clip-path="url(#clip170)" d="M1252.71 265.352 L1260.34 265.352 L1260.34 238.987 L1252.03 240.654 L1252.03 236.394 L1260.3 234.728 L1264.97 234.728 L1264.97 265.352 L1272.61 265.352 L1272.61 269.288 L1252.71 269.288 L1252.71 265.352 Z" fill="#000000" fill-rule="nonzero" fill-opacity="1" /><path clip-path="url(#clip170)" d="M1282.06 263.408 L1286.94 263.408 L1286.94 269.288 L1282.06 269.288 L1282.06 263.408 Z" fill="#000000" fill-rule="nonzero" fill-opacity="1" /><path clip-path="url(#clip170)" d="M1297.94 265.352 L1305.58 265.352 L1305.58 238.987 L1297.27 240.654 L1297.27 236.394 L1305.53 234.728 L1310.2 234.728 L1310.2 265.352 L1317.84 265.352 L1317.84 269.288 L1297.94 269.288 L1297.94 265.352 Z" fill="#000000" fill-rule="nonzero" fill-opacity="1" /><path clip-path="url(#clip170)" d="M1337.29 237.806 Q1333.68 237.806 1331.85 241.371 Q1330.04 244.913 1330.04 252.042 Q1330.04 259.149 1331.85 262.714 Q1333.68 266.255 1337.29 266.255 Q1340.92 266.255 1342.73 262.714 Q1344.56 259.149 1344.56 252.042 Q1344.56 244.913 1342.73 241.371 Q1340.92 237.806 1337.29 237.806 M1337.29 234.103 Q1343.1 234.103 1346.15 238.709 Q1349.23 243.292 1349.23 252.042 Q1349.23 260.769 1346.15 265.376 Q1343.1 269.959 1337.29 269.959 Q1331.48 269.959 1328.4 265.376 Q1325.34 260.769 1325.34 252.042 Q1325.34 243.292 1328.4 238.709 Q1331.48 234.103 1337.29 234.103 Z" fill="#000000" fill-rule="nonzero" fill-opacity="1" /><path clip-path="url(#clip170)" d="M1367.45 237.806 Q1363.84 237.806 1362.01 241.371 Q1360.2 244.913 1360.2 252.042 Q1360.2 259.149 1362.01 262.714 Q1363.84 266.255 1367.45 266.255 Q1371.08 266.255 1372.89 262.714 Q1374.72 259.149 1374.72 252.042 Q1374.72 244.913 1372.89 241.371 Q1371.08 237.806 1367.45 237.806 M1367.45 234.103 Q1373.26 234.103 1376.32 238.709 Q1379.39 243.292 1379.39 252.042 Q1379.39 260.769 1376.32 265.376 Q1373.26 269.959 1367.45 269.959 Q1361.64 269.959 1358.56 265.376 Q1355.51 260.769 1355.51 252.042 Q1355.51 243.292 1358.56 238.709 Q1361.64 234.103 1367.45 234.103 Z" fill="#000000" fill-rule="nonzero" fill-opacity="1" /><path clip-path="url(#clip170)" d="M1743.36 31.7342 Q1743.36 26.5259 1741.2 23.6613 Q1739.06 20.7968 1735.18 20.7968 Q1731.33 20.7968 1729.17 23.6613 Q1727.03 26.5259 1727.03 31.7342 Q1727.03 36.9165 1729.17 39.781 Q1731.33 42.6456 1735.18 42.6456 Q1739.06 42.6456 1741.2 39.781 Q1743.36 36.9165 1743.36 31.7342 M1748.15 43.0362 Q1748.15 50.4841 1744.84 54.1039 Q1741.54 57.7497 1734.71 57.7497 Q1732.19 57.7497 1729.95 57.3591 Q1727.71 56.9945 1725.6 56.2132 L1725.6 51.5518 Q1727.71 52.6976 1729.77 53.2445 Q1731.82 53.7914 1733.96 53.7914 Q1738.67 53.7914 1741.02 51.3174 Q1743.36 48.8695 1743.36 43.8956 L1743.36 41.5258 Q1741.88 44.1039 1739.56 45.38 Q1737.24 46.656 1734.01 46.656 Q1728.65 46.656 1725.36 42.5675 Q1722.08 38.479 1722.08 31.7342 Q1722.08 24.9634 1725.36 20.8749 Q1728.65 16.7864 1734.01 16.7864 Q1737.24 16.7864 1739.56 18.0624 Q1741.88 19.3384 1743.36 21.9165 L1743.36 17.4895 L1748.15 17.4895 L1748.15 43.0362 Z" fill="#000000" fill-rule="nonzero" fill-opacity="1" /><path clip-path="url(#clip170)" d="M1777.21 21.9165 L1777.21 6.13538 L1782.01 6.13538 L1782.01 46.656 L1777.21 46.656 L1777.21 42.281 Q1775.7 44.8852 1773.39 46.1612 Q1771.09 47.4112 1767.86 47.4112 Q1762.58 47.4112 1759.25 43.1925 Q1755.94 38.9737 1755.94 32.0988 Q1755.94 25.2238 1759.25 21.0051 Q1762.58 16.7864 1767.86 16.7864 Q1771.09 16.7864 1773.39 18.0624 Q1775.7 19.3124 1777.21 21.9165 M1760.89 32.0988 Q1760.89 37.3852 1763.05 40.406 Q1765.23 43.4008 1769.04 43.4008 Q1772.84 43.4008 1775.03 40.406 Q1777.21 37.3852 1777.21 32.0988 Q1777.21 26.8124 1775.03 23.8176 Q1772.84 20.7968 1769.04 20.7968 Q1765.23 20.7968 1763.05 23.8176 Q1760.89 26.8124 1760.89 32.0988 Z" fill="#000000" fill-rule="nonzero" fill-opacity="1" /><path clip-path="url(#clip170)" d="M1796.51 42.281 L1796.51 57.7497 L1791.69 57.7497 L1791.69 17.4895 L1796.51 17.4895 L1796.51 21.9165 Q1798.02 19.3124 1800.31 18.0624 Q1802.63 16.7864 1805.83 16.7864 Q1811.15 16.7864 1814.45 21.0051 Q1817.79 25.2238 1817.79 32.0988 Q1817.79 38.9737 1814.45 43.1925 Q1811.15 47.4112 1805.83 47.4112 Q1802.63 47.4112 1800.31 46.1612 Q1798.02 44.8852 1796.51 42.281 M1812.81 32.0988 Q1812.81 26.8124 1810.62 23.8176 Q1808.46 20.7968 1804.66 20.7968 Q1800.86 20.7968 1798.67 23.8176 Q1796.51 26.8124 1796.51 32.0988 Q1796.51 37.3852 1798.67 40.406 Q1800.86 43.4008 1804.66 43.4008 Q1808.46 43.4008 1810.62 40.406 Q1812.81 37.3852 1812.81 32.0988 Z" fill="#000000" fill-rule="nonzero" fill-opacity="1" /><path clip-path="url(#clip170)" d="M1861.87 21.9165 L1861.87 6.13538 L1866.67 6.13538 L1866.67 46.656 L1861.87 46.656 L1861.87 42.281 Q1860.36 44.8852 1858.05 46.1612 Q1855.75 47.4112 1852.53 47.4112 Q1847.24 47.4112 1843.91 43.1925 Q1840.6 38.9737 1840.6 32.0988 Q1840.6 25.2238 1843.91 21.0051 Q1847.24 16.7864 1852.53 16.7864 Q1855.75 16.7864 1858.05 18.0624 Q1860.36 19.3124 1861.87 21.9165 M1845.55 32.0988 Q1845.55 37.3852 1847.71 40.406 Q1849.9 43.4008 1853.7 43.4008 Q1857.5 43.4008 1859.69 40.406 Q1861.87 37.3852 1861.87 32.0988 Q1861.87 26.8124 1859.69 23.8176 Q1857.5 20.7968 1853.7 20.7968 Q1849.9 20.7968 1847.71 23.8176 Q1845.55 26.8124 1845.55 32.0988 Z" fill="#000000" fill-rule="nonzero" fill-opacity="1" /><path clip-path="url(#clip170)" d="M1901.48 30.8748 L1901.48 33.2186 L1879.45 33.2186 Q1879.77 38.1665 1882.42 40.7706 Q1885.1 43.3487 1889.87 43.3487 Q1892.63 43.3487 1895.21 42.6716 Q1897.81 41.9946 1900.36 40.6404 L1900.36 45.1716 Q1897.79 46.2654 1895.08 46.8383 Q1892.37 47.4112 1889.58 47.4112 Q1882.6 47.4112 1878.52 43.3487 Q1874.45 39.2862 1874.45 32.3592 Q1874.45 25.1978 1878.31 21.0051 Q1882.19 16.7864 1888.75 16.7864 Q1894.63 16.7864 1898.05 20.5884 Q1901.48 24.3645 1901.48 30.8748 M1896.69 29.4686 Q1896.64 25.5363 1894.48 23.1926 Q1892.34 20.8488 1888.8 20.8488 Q1884.79 20.8488 1882.37 23.1145 Q1879.97 25.3801 1879.61 29.4946 L1896.69 29.4686 Z" fill="#000000" fill-rule="nonzero" fill-opacity="1" /><path clip-path="url(#clip170)" d="M1924.11 6.13538 L1924.11 10.1197 L1919.53 10.1197 Q1916.95 10.1197 1915.94 11.1614 Q1914.95 12.2031 1914.95 14.9114 L1914.95 17.4895 L1922.84 17.4895 L1922.84 21.2134 L1914.95 21.2134 L1914.95 46.656 L1910.13 46.656 L1910.13 21.2134 L1905.55 21.2134 L1905.55 17.4895 L1910.13 17.4895 L1910.13 15.4583 Q1910.13 10.5885 1912.4 8.37496 Q1914.66 6.13538 1919.58 6.13538 L1924.11 6.13538 Z" fill="#000000" fill-rule="nonzero" fill-opacity="1" /><path clip-path="url(#clip170)" d="M1928.12 6.13538 L1932.92 6.13538 L1932.92 46.656 L1928.12 46.656 L1928.12 6.13538 Z" fill="#000000" fill-rule="nonzero" fill-opacity="1" /><path clip-path="url(#clip170)" d="M1956.2 31.9946 Q1950.39 31.9946 1948.15 33.3227 Q1945.91 34.6509 1945.91 37.854 Q1945.91 40.406 1947.58 41.9164 Q1949.27 43.4008 1952.16 43.4008 Q1956.14 43.4008 1958.54 40.5883 Q1960.96 37.7498 1960.96 33.0623 L1960.96 31.9946 L1956.2 31.9946 M1965.75 30.0155 L1965.75 46.656 L1960.96 46.656 L1960.96 42.2289 Q1959.32 44.8852 1956.87 46.1612 Q1954.43 47.4112 1950.88 47.4112 Q1946.41 47.4112 1943.75 44.9112 Q1941.12 42.3852 1941.12 38.1665 Q1941.12 33.2446 1944.4 30.7446 Q1947.71 28.2446 1954.24 28.2446 L1960.96 28.2446 L1960.96 27.7759 Q1960.96 24.4686 1958.78 22.6718 Q1956.61 20.8488 1952.68 20.8488 Q1950.18 20.8488 1947.81 21.4478 Q1945.44 22.0468 1943.25 23.2447 L1943.25 18.8176 Q1945.88 17.802 1948.36 17.3072 Q1950.83 16.7864 1953.18 16.7864 Q1959.5 16.7864 1962.63 20.0676 Q1965.75 23.3488 1965.75 30.0155 Z" fill="#000000" fill-rule="nonzero" fill-opacity="1" /><path clip-path="url(#clip170)" d="M1980.36 9.20828 L1980.36 17.4895 L1990.23 17.4895 L1990.23 21.2134 L1980.36 21.2134 L1980.36 37.0467 Q1980.36 40.6144 1981.33 41.63 Q1982.32 42.6456 1985.31 42.6456 L1990.23 42.6456 L1990.23 46.656 L1985.31 46.656 Q1979.76 46.656 1977.66 44.5987 Q1975.55 42.5154 1975.55 37.0467 L1975.55 21.2134 L1972.03 21.2134 L1972.03 17.4895 L1975.55 17.4895 L1975.55 9.20828 L1980.36 9.20828 Z" fill="#000000" fill-rule="nonzero" fill-opacity="1" /><path clip-path="url(#clip170)" d="M2007.84 20.8488 Q2003.98 20.8488 2001.74 23.8697 Q1999.5 26.8644 1999.5 32.0988 Q1999.5 37.3331 2001.72 40.354 Q2003.96 43.3487 2007.84 43.3487 Q2011.67 43.3487 2013.91 40.3279 Q2016.14 37.3071 2016.14 32.0988 Q2016.14 26.9165 2013.91 23.8957 Q2011.67 20.8488 2007.84 20.8488 M2007.84 16.7864 Q2014.09 16.7864 2017.66 20.8488 Q2021.22 24.9113 2021.22 32.0988 Q2021.22 39.2602 2017.66 43.3487 Q2014.09 47.4112 2007.84 47.4112 Q2001.56 47.4112 1997.99 43.3487 Q1994.45 39.2602 1994.45 32.0988 Q1994.45 24.9113 1997.99 20.8488 Q2001.56 16.7864 2007.84 16.7864 Z" fill="#000000" fill-rule="nonzero" fill-opacity="1" /><path clip-path="url(#clip170)" d="M2046.07 21.9686 Q2045.26 21.4999 2044.3 21.2916 Q2043.36 21.0572 2042.21 21.0572 Q2038.15 21.0572 2035.96 23.7134 Q2033.8 26.3436 2033.8 31.2915 L2033.8 46.656 L2028.98 46.656 L2028.98 17.4895 L2033.8 17.4895 L2033.8 22.0207 Q2035.31 19.3645 2037.73 18.0884 Q2040.15 16.7864 2043.62 16.7864 Q2044.11 16.7864 2044.71 16.8645 Q2045.31 16.9166 2046.04 17.0468 L2046.07 21.9686 Z" fill="#000000" fill-rule="nonzero" fill-opacity="1" /><path clip-path="url(#clip173)" d="M1441.92 1033.85 L1486.14 1051.02 L1530.35 1054.81 L1574.57 1070.59 L1618.78 1058.46 L1663 999.971 L1707.21 1010.5 L1751.43 977.01 L1795.64 924.646 L1839.86 909.632 L1884.08 908.969 L1928.29 899.852 L1972.51 880.512 L2016.72 837.254 L2060.94 794.475 L2105.15 756.679 L2149.37 727.906 L2193.58 672.768 L2237.8 610.764 L2282.01 578.13 L2326.23 562.529 L2326.23 120.65 L2282.01 151.039 L2237.8 232.485 L2193.58 267.605 L2149.37 310.029 L2105.15 377.636 L2060.94 432.32 L2016.72 478.373 L1972.51 488.916 L1928.29 536.343 L1884.08 593.473 L1839.86 578.817 L1795.64 647.265 L1751.43 691.122 L1707.21 744.077 L1663 759.751 L1618.78 805.814 L1574.57 835.362 L1530.35 924.065 L1486.14 983.431 L1441.92 1033.85  Z" fill="#009af9" fill-rule="evenodd" fill-opacity="0.1"/>
<polyline clip-path="url(#clip173)" style="stroke:#009af9; stroke-linecap:round; stroke-linejoin:round; stroke-width:4; stroke-opacity:1; fill:none" points="1441.92,1033.85 1486.14,1017.23 1530.35,989.436 1574.57,952.976 1618.78,932.137 1663,879.861 1707.21,877.29 1751.43,834.066 1795.64,785.956 1839.86,744.224 1884.08,751.221 1928.29,718.098 1972.51,684.714 2016.72,657.814 2060.94,613.397 2105.15,567.157 2149.37,518.968 2193.58,470.186 2237.8,421.625 2282.01,364.585 2326.23,341.59 "/>
<path clip-path="url(#clip173)" d="M1441.92 1033.85 L1486.14 1052.97 L1530.35 1009.28 L1574.57 966.749 L1618.78 880.079 L1663 848.586 L1707.21 842.647 L1751.43 809.506 L1795.64 796.748 L1839.86 798.364 L1884.08 804.903 L1928.29 764.127 L1972.51 731.043 L2016.72 715.334 L2060.94 698.483 L2105.15 700.742 L2149.37 710.215 L2193.58 721.272 L2237.8 725.129 L2282.01 681.671 L2326.23 668.044 L2326.23 231.407 L2282.01 289.756 L2237.8 321.337 L2193.58 341.066 L2149.37 338.113 L2105.15 314.992 L2060.94 356.731 L2016.72 418.745 L1972.51 466.738 L1928.29 508.589 L1884.08 533.946 L1839.86 604.219 L1795.64 610.414 L1751.43 641.943 L1707.21 731.472 L1663 782.658 L1618.78 855.776 L1574.57 874.878 L1530.35 933.829 L1486.14 973.77 L1441.92 1033.85  Z" fill="#e26f46" fill-rule="evenodd" fill-opacity="0.1"/>
<polyline clip-path="url(#clip173)" style="stroke:#e26f46; stroke-linecap:round; stroke-linejoin:round; stroke-width:4; stroke-opacity:1; fill:none" points="1441.92,1033.85 1486.14,1013.37 1530.35,971.553 1574.57,920.814 1618.78,867.927 1663,815.622 1707.21,787.06 1751.43,725.725 1795.64,703.581 1839.86,701.292 1884.08,669.424 1928.29,636.358 1972.51,598.89 2016.72,567.04 2060.94,527.607 2105.15,507.867 2149.37,524.164 2193.58,531.169 2237.8,523.233 2282.01,485.713 2326.23,449.725 "/>
</svg>
