<?xml version="1.0" encoding="utf-8"?>
<svg xmlns="http://www.w3.org/2000/svg" xmlns:xlink="http://www.w3.org/1999/xlink" width="600" height="400" viewBox="0 0 2400 1600">
<defs>
  <clipPath id="clip990">
    <rect x="0" y="0" width="2400" height="1600"/>
  </clipPath>
</defs>
<path clip-path="url(#clip990)" d="M0 1600 L2400 1600 L2400 0 L0 0  Z" fill="#ffffff" fill-rule="evenodd" fill-opacity="1"/>
<defs>
  <clipPath id="clip991">
    <rect x="480" y="0" width="1681" height="1600"/>
  </clipPath>
</defs>
<path clip-path="url(#clip990)" d="M231.436 1486.45 L2352.76 1486.45 L2352.76 106.192 L231.436 106.192  Z" fill="#ffffff" fill-rule="evenodd" fill-opacity="1"/>
<defs>
  <clipPath id="clip992">
    <rect x="231" y="106" width="2122" height="1381"/>
  </clipPath>
</defs>
<polyline clip-path="url(#clip992)" style="stroke:#000000; stroke-linecap:round; stroke-linejoin:round; stroke-width:2; stroke-opacity:0.1; fill:none" points="541.629,1486.45 541.629,106.192 "/>
<polyline clip-path="url(#clip992)" style="stroke:#000000; stroke-linecap:round; stroke-linejoin:round; stroke-width:2; stroke-opacity:0.1; fill:none" points="916.862,1486.45 916.862,106.192 "/>
<polyline clip-path="url(#clip992)" style="stroke:#000000; stroke-linecap:round; stroke-linejoin:round; stroke-width:2; stroke-opacity:0.1; fill:none" points="1292.1,1486.45 1292.1,106.192 "/>
<polyline clip-path="url(#clip992)" style="stroke:#000000; stroke-linecap:round; stroke-linejoin:round; stroke-width:2; stroke-opacity:0.1; fill:none" points="1667.33,1486.45 1667.33,106.192 "/>
<polyline clip-path="url(#clip992)" style="stroke:#000000; stroke-linecap:round; stroke-linejoin:round; stroke-width:2; stroke-opacity:0.1; fill:none" points="2042.56,1486.45 2042.56,106.192 "/>
<polyline clip-path="url(#clip992)" style="stroke:#000000; stroke-linecap:round; stroke-linejoin:round; stroke-width:2; stroke-opacity:0.1; fill:none" points="231.436,1174.95 2352.76,1174.95 "/>
<polyline clip-path="url(#clip992)" style="stroke:#000000; stroke-linecap:round; stroke-linejoin:round; stroke-width:2; stroke-opacity:0.1; fill:none" points="231.436,829.657 2352.76,829.657 "/>
<polyline clip-path="url(#clip992)" style="stroke:#000000; stroke-linecap:round; stroke-linejoin:round; stroke-width:2; stroke-opacity:0.1; fill:none" points="231.436,484.364 2352.76,484.364 "/>
<polyline clip-path="url(#clip992)" style="stroke:#000000; stroke-linecap:round; stroke-linejoin:round; stroke-width:2; stroke-opacity:0.1; fill:none" points="231.436,139.072 2352.76,139.072 "/>
<polyline clip-path="url(#clip990)" style="stroke:#000000; stroke-linecap:round; stroke-linejoin:round; stroke-width:4; stroke-opacity:1; fill:none" points="231.436,1486.45 2352.76,1486.45 "/>
<polyline clip-path="url(#clip990)" style="stroke:#000000; stroke-linecap:round; stroke-linejoin:round; stroke-width:4; stroke-opacity:1; fill:none" points="541.629,1486.45 541.629,1467.55 "/>
<polyline clip-path="url(#clip990)" style="stroke:#000000; stroke-linecap:round; stroke-linejoin:round; stroke-width:4; stroke-opacity:1; fill:none" points="916.862,1486.45 916.862,1467.55 "/>
<polyline clip-path="url(#clip990)" style="stroke:#000000; stroke-linecap:round; stroke-linejoin:round; stroke-width:4; stroke-opacity:1; fill:none" points="1292.1,1486.45 1292.1,1467.55 "/>
<polyline clip-path="url(#clip990)" style="stroke:#000000; stroke-linecap:round; stroke-linejoin:round; stroke-width:4; stroke-opacity:1; fill:none" points="1667.33,1486.45 1667.33,1467.55 "/>
<polyline clip-path="url(#clip990)" style="stroke:#000000; stroke-linecap:round; stroke-linejoin:round; stroke-width:4; stroke-opacity:1; fill:none" points="2042.56,1486.45 2042.56,1467.55 "/>
<path clip-path="url(#clip990)" d="M545.876 1530.21 Q549.233 1530.93 551.108 1533.2 Q553.006 1535.47 553.006 1538.8 Q553.006 1543.92 549.488 1546.72 Q545.969 1549.52 539.488 1549.52 Q537.312 1549.52 534.997 1549.08 Q532.705 1548.66 530.252 1547.81 L530.252 1543.29 Q532.196 1544.43 534.511 1545.01 Q536.826 1545.58 539.349 1545.58 Q543.747 1545.58 546.039 1543.85 Q548.353 1542.11 548.353 1538.8 Q548.353 1535.75 546.201 1534.03 Q544.071 1532.3 540.252 1532.3 L536.224 1532.3 L536.224 1528.45 L540.437 1528.45 Q543.886 1528.45 545.714 1527.09 Q547.543 1525.7 547.543 1523.11 Q547.543 1520.45 545.645 1519.03 Q543.77 1517.6 540.252 1517.6 Q538.33 1517.6 536.131 1518.01 Q533.932 1518.43 531.293 1519.31 L531.293 1515.14 Q533.955 1514.4 536.27 1514.03 Q538.608 1513.66 540.668 1513.66 Q545.992 1513.66 549.094 1516.09 Q552.196 1518.5 552.196 1522.62 Q552.196 1525.49 550.552 1527.48 Q548.909 1529.45 545.876 1530.21 Z" fill="#000000" fill-rule="nonzero" fill-opacity="1" /><path clip-path="url(#clip990)" d="M917.267 1529.7 Q914.119 1529.7 912.267 1531.86 Q910.439 1534.01 910.439 1537.76 Q910.439 1541.49 912.267 1543.66 Q914.119 1545.82 917.267 1545.82 Q920.416 1545.82 922.244 1543.66 Q924.096 1541.49 924.096 1537.76 Q924.096 1534.01 922.244 1531.86 Q920.416 1529.7 917.267 1529.7 M926.55 1515.05 L926.55 1519.31 Q924.791 1518.48 922.985 1518.04 Q921.203 1517.6 919.443 1517.6 Q914.814 1517.6 912.36 1520.72 Q909.93 1523.85 909.582 1530.17 Q910.948 1528.15 913.008 1527.09 Q915.068 1526 917.545 1526 Q922.754 1526 925.763 1529.17 Q928.795 1532.32 928.795 1537.76 Q928.795 1543.08 925.647 1546.3 Q922.499 1549.52 917.267 1549.52 Q911.272 1549.52 908.101 1544.94 Q904.93 1540.33 904.93 1531.6 Q904.93 1523.41 908.818 1518.55 Q912.707 1513.66 919.258 1513.66 Q921.017 1513.66 922.8 1514.01 Q924.605 1514.36 926.55 1515.05 Z" fill="#000000" fill-rule="nonzero" fill-opacity="1" /><path clip-path="url(#clip990)" d="M1282.4 1548.13 L1282.4 1543.87 Q1284.16 1544.7 1285.96 1545.14 Q1287.77 1545.58 1289.5 1545.58 Q1294.13 1545.58 1296.56 1542.48 Q1299.02 1539.36 1299.36 1533.01 Q1298.02 1535.01 1295.96 1536.07 Q1293.9 1537.13 1291.4 1537.13 Q1286.22 1537.13 1283.18 1534.01 Q1280.17 1530.86 1280.17 1525.42 Q1280.17 1520.1 1283.32 1516.88 Q1286.47 1513.66 1291.7 1513.66 Q1297.7 1513.66 1300.85 1518.27 Q1304.02 1522.85 1304.02 1531.6 Q1304.02 1539.77 1300.13 1544.66 Q1296.26 1549.52 1289.71 1549.52 Q1287.95 1549.52 1286.15 1549.17 Q1284.34 1548.82 1282.4 1548.13 M1291.7 1533.48 Q1294.85 1533.48 1296.68 1531.32 Q1298.53 1529.17 1298.53 1525.42 Q1298.53 1521.7 1296.68 1519.54 Q1294.85 1517.37 1291.7 1517.37 Q1288.55 1517.37 1286.7 1519.54 Q1284.87 1521.7 1284.87 1525.42 Q1284.87 1529.17 1286.7 1531.32 Q1288.55 1533.48 1291.7 1533.48 Z" fill="#000000" fill-rule="nonzero" fill-opacity="1" /><path clip-path="url(#clip990)" d="M1642.82 1544.91 L1650.45 1544.91 L1650.45 1518.55 L1642.14 1520.21 L1642.14 1515.95 L1650.41 1514.29 L1655.08 1514.29 L1655.08 1544.91 L1662.72 1544.91 L1662.72 1548.85 L1642.82 1548.85 L1642.82 1544.91 Z" fill="#000000" fill-rule="nonzero" fill-opacity="1" /><path clip-path="url(#clip990)" d="M1676.2 1544.91 L1692.51 1544.91 L1692.51 1548.85 L1670.57 1548.85 L1670.57 1544.91 Q1673.23 1542.16 1677.82 1537.53 Q1682.42 1532.88 1683.6 1531.53 Q1685.85 1529.01 1686.73 1527.27 Q1687.63 1525.51 1687.63 1523.82 Q1687.63 1521.07 1685.69 1519.33 Q1683.76 1517.6 1680.66 1517.6 Q1678.46 1517.6 1676.01 1518.36 Q1673.58 1519.13 1670.8 1520.68 L1670.8 1515.95 Q1673.63 1514.82 1676.08 1514.24 Q1678.53 1513.66 1680.57 1513.66 Q1685.94 1513.66 1689.13 1516.35 Q1692.33 1519.03 1692.33 1523.52 Q1692.33 1525.65 1691.52 1527.57 Q1690.73 1529.47 1688.63 1532.07 Q1688.05 1532.74 1684.95 1535.95 Q1681.84 1539.15 1676.2 1544.91 Z" fill="#000000" fill-rule="nonzero" fill-opacity="1" /><path clip-path="url(#clip990)" d="M2017.75 1544.91 L2025.39 1544.91 L2025.39 1518.55 L2017.08 1520.21 L2017.08 1515.95 L2025.34 1514.29 L2030.02 1514.29 L2030.02 1544.91 L2037.66 1544.91 L2037.66 1548.85 L2017.75 1548.85 L2017.75 1544.91 Z" fill="#000000" fill-rule="nonzero" fill-opacity="1" /><path clip-path="url(#clip990)" d="M2047.15 1514.29 L2065.5 1514.29 L2065.5 1518.22 L2051.43 1518.22 L2051.43 1526.7 Q2052.45 1526.35 2053.47 1526.19 Q2054.48 1526 2055.5 1526 Q2061.29 1526 2064.67 1529.17 Q2068.05 1532.34 2068.05 1537.76 Q2068.05 1543.34 2064.58 1546.44 Q2061.1 1549.52 2054.79 1549.52 Q2052.61 1549.52 2050.34 1549.15 Q2048.1 1548.78 2045.69 1548.04 L2045.69 1543.34 Q2047.77 1544.47 2049.99 1545.03 Q2052.22 1545.58 2054.69 1545.58 Q2058.7 1545.58 2061.03 1543.48 Q2063.37 1541.37 2063.37 1537.76 Q2063.37 1534.15 2061.03 1532.04 Q2058.7 1529.94 2054.69 1529.94 Q2052.82 1529.94 2050.94 1530.35 Q2049.09 1530.77 2047.15 1531.65 L2047.15 1514.29 Z" fill="#000000" fill-rule="nonzero" fill-opacity="1" /><polyline clip-path="url(#clip990)" style="stroke:#000000; stroke-linecap:round; stroke-linejoin:round; stroke-width:4; stroke-opacity:1; fill:none" points="231.436,1486.45 231.436,106.192 "/>
<polyline clip-path="url(#clip990)" style="stroke:#000000; stroke-linecap:round; stroke-linejoin:round; stroke-width:4; stroke-opacity:1; fill:none" points="231.436,1174.95 250.333,1174.95 "/>
<polyline clip-path="url(#clip990)" style="stroke:#000000; stroke-linecap:round; stroke-linejoin:round; stroke-width:4; stroke-opacity:1; fill:none" points="231.436,829.657 250.333,829.657 "/>
<polyline clip-path="url(#clip990)" style="stroke:#000000; stroke-linecap:round; stroke-linejoin:round; stroke-width:4; stroke-opacity:1; fill:none" points="231.436,484.364 250.333,484.364 "/>
<polyline clip-path="url(#clip990)" style="stroke:#000000; stroke-linecap:round; stroke-linejoin:round; stroke-width:4; stroke-opacity:1; fill:none" points="231.436,139.072 250.333,139.072 "/>
<path clip-path="url(#clip990)" d="M51.6634 1157.67 L73.8855 1157.67 L73.8855 1159.66 L61.3393 1192.23 L56.4551 1192.23 L68.2606 1161.6 L51.6634 1161.6 L51.6634 1157.67 Z" fill="#000000" fill-rule="nonzero" fill-opacity="1" /><path clip-path="url(#clip990)" d="M95.853 1161.74 L84.0475 1180.19 L95.853 1180.19 L95.853 1161.74 M94.6262 1157.67 L100.506 1157.67 L100.506 1180.19 L105.436 1180.19 L105.436 1184.08 L100.506 1184.08 L100.506 1192.23 L95.853 1192.23 L95.853 1184.08 L80.2512 1184.08 L80.2512 1179.57 L94.6262 1157.67 Z" fill="#000000" fill-rule="nonzero" fill-opacity="1" /><path clip-path="url(#clip990)" d="M123.168 1160.75 Q119.557 1160.75 117.728 1164.31 Q115.922 1167.85 115.922 1174.98 Q115.922 1182.09 117.728 1185.65 Q119.557 1189.2 123.168 1189.2 Q126.802 1189.2 128.607 1185.65 Q130.436 1182.09 130.436 1174.98 Q130.436 1167.85 128.607 1164.31 Q126.802 1160.75 123.168 1160.75 M123.168 1157.04 Q128.978 1157.04 132.033 1161.65 Q135.112 1166.23 135.112 1174.98 Q135.112 1183.71 132.033 1188.32 Q128.978 1192.9 123.168 1192.9 Q117.358 1192.9 114.279 1188.32 Q111.223 1183.71 111.223 1174.98 Q111.223 1166.23 114.279 1161.65 Q117.358 1157.04 123.168 1157.04 Z" fill="#000000" fill-rule="nonzero" fill-opacity="1" /><path clip-path="url(#clip990)" d="M153.33 1160.75 Q149.718 1160.75 147.89 1164.31 Q146.084 1167.85 146.084 1174.98 Q146.084 1182.09 147.89 1185.65 Q149.718 1189.2 153.33 1189.2 Q156.964 1189.2 158.769 1185.65 Q160.598 1182.09 160.598 1174.98 Q160.598 1167.85 158.769 1164.31 Q156.964 1160.75 153.33 1160.75 M153.33 1157.04 Q159.14 1157.04 162.195 1161.65 Q165.274 1166.23 165.274 1174.98 Q165.274 1183.71 162.195 1188.32 Q159.14 1192.9 153.33 1192.9 Q147.519 1192.9 144.441 1188.32 Q141.385 1183.71 141.385 1174.98 Q141.385 1166.23 144.441 1161.65 Q147.519 1157.04 153.33 1157.04 Z" fill="#000000" fill-rule="nonzero" fill-opacity="1" /><path clip-path="url(#clip990)" d="M183.491 1160.75 Q179.88 1160.75 178.052 1164.31 Q176.246 1167.85 176.246 1174.98 Q176.246 1182.09 178.052 1185.65 Q179.88 1189.2 183.491 1189.2 Q187.126 1189.2 188.931 1185.65 Q190.76 1182.09 190.76 1174.98 Q190.76 1167.85 188.931 1164.31 Q187.126 1160.75 183.491 1160.75 M183.491 1157.04 Q189.302 1157.04 192.357 1161.65 Q195.436 1166.23 195.436 1174.98 Q195.436 1183.71 192.357 1188.32 Q189.302 1192.9 183.491 1192.9 Q177.681 1192.9 174.603 1188.32 Q171.547 1183.71 171.547 1174.98 Q171.547 1166.23 174.603 1161.65 Q177.681 1157.04 183.491 1157.04 Z" fill="#000000" fill-rule="nonzero" fill-opacity="1" /><path clip-path="url(#clip990)" d="M51.6634 812.377 L73.8855 812.377 L73.8855 814.367 L61.3393 846.937 L56.4551 846.937 L68.2606 816.312 L51.6634 816.312 L51.6634 812.377 Z" fill="#000000" fill-rule="nonzero" fill-opacity="1" /><path clip-path="url(#clip990)" d="M93.5845 827.793 Q90.4364 827.793 88.5845 829.946 Q86.7558 832.099 86.7558 835.849 Q86.7558 839.575 88.5845 841.751 Q90.4364 843.904 93.5845 843.904 Q96.7326 843.904 98.5613 841.751 Q100.413 839.575 100.413 835.849 Q100.413 832.099 98.5613 829.946 Q96.7326 827.793 93.5845 827.793 M102.867 813.14 L102.867 817.4 Q101.108 816.566 99.3021 816.127 Q97.5197 815.687 95.7604 815.687 Q91.1308 815.687 88.6771 818.812 Q86.2466 821.937 85.8993 828.256 Q87.2651 826.242 89.3253 825.177 Q91.3854 824.089 93.8623 824.089 Q99.0706 824.089 102.08 827.261 Q105.112 830.409 105.112 835.849 Q105.112 841.173 101.964 844.39 Q98.8159 847.608 93.5845 847.608 Q87.5892 847.608 84.4179 843.025 Q81.2466 838.418 81.2466 829.691 Q81.2466 821.497 85.1355 816.636 Q89.0243 811.752 95.5752 811.752 Q97.3345 811.752 99.1169 812.099 Q100.922 812.446 102.867 813.14 Z" fill="#000000" fill-rule="nonzero" fill-opacity="1" /><path clip-path="url(#clip990)" d="M123.168 815.455 Q119.557 815.455 117.728 819.02 Q115.922 822.562 115.922 829.691 Q115.922 836.798 117.728 840.363 Q119.557 843.904 123.168 843.904 Q126.802 843.904 128.607 840.363 Q130.436 836.798 130.436 829.691 Q130.436 822.562 128.607 819.02 Q126.802 815.455 123.168 815.455 M123.168 811.752 Q128.978 811.752 132.033 816.358 Q135.112 820.941 135.112 829.691 Q135.112 838.418 132.033 843.025 Q128.978 847.608 123.168 847.608 Q117.358 847.608 114.279 843.025 Q111.223 838.418 111.223 829.691 Q111.223 820.941 114.279 816.358 Q117.358 811.752 123.168 811.752 Z" fill="#000000" fill-rule="nonzero" fill-opacity="1" /><path clip-path="url(#clip990)" d="M153.33 815.455 Q149.718 815.455 147.89 819.02 Q146.084 822.562 146.084 829.691 Q146.084 836.798 147.89 840.363 Q149.718 843.904 153.33 843.904 Q156.964 843.904 158.769 840.363 Q160.598 836.798 160.598 829.691 Q160.598 822.562 158.769 819.02 Q156.964 815.455 153.33 815.455 M153.33 811.752 Q159.14 811.752 162.195 816.358 Q165.274 820.941 165.274 829.691 Q165.274 838.418 162.195 843.025 Q159.14 847.608 153.33 847.608 Q147.519 847.608 144.441 843.025 Q141.385 838.418 141.385 829.691 Q141.385 820.941 144.441 816.358 Q147.519 811.752 153.33 811.752 Z" fill="#000000" fill-rule="nonzero" fill-opacity="1" /><path clip-path="url(#clip990)" d="M183.491 815.455 Q179.88 815.455 178.052 819.02 Q176.246 822.562 176.246 829.691 Q176.246 836.798 178.052 840.363 Q179.88 843.904 183.491 843.904 Q187.126 843.904 188.931 840.363 Q190.76 836.798 190.76 829.691 Q190.76 822.562 188.931 819.02 Q187.126 815.455 183.491 815.455 M183.491 811.752 Q189.302 811.752 192.357 816.358 Q195.436 820.941 195.436 829.691 Q195.436 838.418 192.357 843.025 Q189.302 847.608 183.491 847.608 Q177.681 847.608 174.603 843.025 Q171.547 838.418 171.547 829.691 Q171.547 820.941 174.603 816.358 Q177.681 811.752 183.491 811.752 Z" fill="#000000" fill-rule="nonzero" fill-opacity="1" /><path clip-path="url(#clip990)" d="M51.6634 467.084 L73.8855 467.084 L73.8855 469.075 L61.3393 501.644 L56.4551 501.644 L68.2606 471.02 L51.6634 471.02 L51.6634 467.084 Z" fill="#000000" fill-rule="nonzero" fill-opacity="1" /><path clip-path="url(#clip990)" d="M93.0058 485.233 Q89.6725 485.233 87.7512 487.015 Q85.8531 488.797 85.8531 491.922 Q85.8531 495.047 87.7512 496.83 Q89.6725 498.612 93.0058 498.612 Q96.3391 498.612 98.2604 496.83 Q100.182 495.024 100.182 491.922 Q100.182 488.797 98.2604 487.015 Q96.3623 485.233 93.0058 485.233 M88.3299 483.242 Q85.3206 482.501 83.6308 480.441 Q81.9642 478.381 81.9642 475.418 Q81.9642 471.274 84.904 468.867 Q87.8669 466.459 93.0058 466.459 Q98.1678 466.459 101.108 468.867 Q104.047 471.274 104.047 475.418 Q104.047 478.381 102.358 480.441 Q100.691 482.501 97.7048 483.242 Q101.084 484.029 102.959 486.321 Q104.858 488.612 104.858 491.922 Q104.858 496.945 101.779 499.631 Q98.7234 502.316 93.0058 502.316 Q87.2882 502.316 84.2095 499.631 Q81.154 496.945 81.154 491.922 Q81.154 488.612 83.0521 486.321 Q84.9503 484.029 88.3299 483.242 M86.6169 475.858 Q86.6169 478.543 88.2836 480.047 Q89.9734 481.552 93.0058 481.552 Q96.015 481.552 97.7048 480.047 Q99.4178 478.543 99.4178 475.858 Q99.4178 473.172 97.7048 471.668 Q96.015 470.163 93.0058 470.163 Q89.9734 470.163 88.2836 471.668 Q86.6169 473.172 86.6169 475.858 Z" fill="#000000" fill-rule="nonzero" fill-opacity="1" /><path clip-path="url(#clip990)" d="M123.168 470.163 Q119.557 470.163 117.728 473.728 Q115.922 477.27 115.922 484.399 Q115.922 491.506 117.728 495.07 Q119.557 498.612 123.168 498.612 Q126.802 498.612 128.607 495.07 Q130.436 491.506 130.436 484.399 Q130.436 477.27 128.607 473.728 Q126.802 470.163 123.168 470.163 M123.168 466.459 Q128.978 466.459 132.033 471.066 Q135.112 475.649 135.112 484.399 Q135.112 493.126 132.033 497.732 Q128.978 502.316 123.168 502.316 Q117.358 502.316 114.279 497.732 Q111.223 493.126 111.223 484.399 Q111.223 475.649 114.279 471.066 Q117.358 466.459 123.168 466.459 Z" fill="#000000" fill-rule="nonzero" fill-opacity="1" /><path clip-path="url(#clip990)" d="M153.33 470.163 Q149.718 470.163 147.89 473.728 Q146.084 477.27 146.084 484.399 Q146.084 491.506 147.89 495.07 Q149.718 498.612 153.33 498.612 Q156.964 498.612 158.769 495.07 Q160.598 491.506 160.598 484.399 Q160.598 477.27 158.769 473.728 Q156.964 470.163 153.33 470.163 M153.33 466.459 Q159.14 466.459 162.195 471.066 Q165.274 475.649 165.274 484.399 Q165.274 493.126 162.195 497.732 Q159.14 502.316 153.33 502.316 Q147.519 502.316 144.441 497.732 Q141.385 493.126 141.385 484.399 Q141.385 475.649 144.441 471.066 Q147.519 466.459 153.33 466.459 Z" fill="#000000" fill-rule="nonzero" fill-opacity="1" /><path clip-path="url(#clip990)" d="M183.491 470.163 Q179.88 470.163 178.052 473.728 Q176.246 477.27 176.246 484.399 Q176.246 491.506 178.052 495.07 Q179.88 498.612 183.491 498.612 Q187.126 498.612 188.931 495.07 Q190.76 491.506 190.76 484.399 Q190.76 477.27 188.931 473.728 Q187.126 470.163 183.491 470.163 M183.491 466.459 Q189.302 466.459 192.357 471.066 Q195.436 475.649 195.436 484.399 Q195.436 493.126 192.357 497.732 Q189.302 502.316 183.491 502.316 Q177.681 502.316 174.603 497.732 Q171.547 493.126 171.547 484.399 Q171.547 475.649 174.603 471.066 Q177.681 466.459 183.491 466.459 Z" fill="#000000" fill-rule="nonzero" fill-opacity="1" /><path clip-path="url(#clip990)" d="M62.8439 139.94 Q59.5106 139.94 57.5893 141.723 Q55.6912 143.505 55.6912 146.63 Q55.6912 149.755 57.5893 151.538 Q59.5106 153.32 62.8439 153.32 Q66.1772 153.32 68.0985 151.538 Q70.0198 149.732 70.0198 146.63 Q70.0198 143.505 68.0985 141.723 Q66.2004 139.94 62.8439 139.94 M58.168 137.95 Q55.1588 137.209 53.469 135.149 Q51.8023 133.089 51.8023 130.126 Q51.8023 125.982 54.7421 123.575 Q57.7051 121.167 62.8439 121.167 Q68.0059 121.167 70.9457 123.575 Q73.8855 125.982 73.8855 130.126 Q73.8855 133.089 72.1957 135.149 Q70.5291 137.209 67.543 137.95 Q70.9226 138.737 72.7976 141.028 Q74.6957 143.32 74.6957 146.63 Q74.6957 151.653 71.617 154.339 Q68.5615 157.024 62.8439 157.024 Q57.1264 157.024 54.0477 154.339 Q50.9921 151.653 50.9921 146.63 Q50.9921 143.32 52.8903 141.028 Q54.7884 138.737 58.168 137.95 M56.4551 130.566 Q56.4551 133.251 58.1217 134.755 Q59.8115 136.26 62.8439 136.26 Q65.8532 136.26 67.543 134.755 Q69.2559 133.251 69.2559 130.566 Q69.2559 127.88 67.543 126.376 Q65.8532 124.871 62.8439 124.871 Q59.8115 124.871 58.1217 126.376 Q56.4551 127.88 56.4551 130.566 Z" fill="#000000" fill-rule="nonzero" fill-opacity="1" /><path clip-path="url(#clip990)" d="M93.0058 124.871 Q89.3947 124.871 87.566 128.436 Q85.7605 131.978 85.7605 139.107 Q85.7605 146.214 87.566 149.778 Q89.3947 153.32 93.0058 153.32 Q96.64 153.32 98.4456 149.778 Q100.274 146.214 100.274 139.107 Q100.274 131.978 98.4456 128.436 Q96.64 124.871 93.0058 124.871 M93.0058 121.167 Q98.8159 121.167 101.871 125.774 Q104.95 130.357 104.95 139.107 Q104.95 147.834 101.871 152.44 Q98.8159 157.024 93.0058 157.024 Q87.1956 157.024 84.1169 152.44 Q81.0614 147.834 81.0614 139.107 Q81.0614 130.357 84.1169 125.774 Q87.1956 121.167 93.0058 121.167 Z" fill="#000000" fill-rule="nonzero" fill-opacity="1" /><path clip-path="url(#clip990)" d="M123.168 124.871 Q119.557 124.871 117.728 128.436 Q115.922 131.978 115.922 139.107 Q115.922 146.214 117.728 149.778 Q119.557 153.32 123.168 153.32 Q126.802 153.32 128.607 149.778 Q130.436 146.214 130.436 139.107 Q130.436 131.978 128.607 128.436 Q126.802 124.871 123.168 124.871 M123.168 121.167 Q128.978 121.167 132.033 125.774 Q135.112 130.357 135.112 139.107 Q135.112 147.834 132.033 152.44 Q128.978 157.024 123.168 157.024 Q117.358 157.024 114.279 152.44 Q111.223 147.834 111.223 139.107 Q111.223 130.357 114.279 125.774 Q117.358 121.167 123.168 121.167 Z" fill="#000000" fill-rule="nonzero" fill-opacity="1" /><path clip-path="url(#clip990)" d="M153.33 124.871 Q149.718 124.871 147.89 128.436 Q146.084 131.978 146.084 139.107 Q146.084 146.214 147.89 149.778 Q149.718 153.32 153.33 153.32 Q156.964 153.32 158.769 149.778 Q160.598 146.214 160.598 139.107 Q160.598 131.978 158.769 128.436 Q156.964 124.871 153.33 124.871 M153.33 121.167 Q159.14 121.167 162.195 125.774 Q165.274 130.357 165.274 139.107 Q165.274 147.834 162.195 152.44 Q159.14 157.024 153.33 157.024 Q147.519 157.024 144.441 152.44 Q141.385 147.834 141.385 139.107 Q141.385 130.357 144.441 125.774 Q147.519 121.167 153.33 121.167 Z" fill="#000000" fill-rule="nonzero" fill-opacity="1" /><path clip-path="url(#clip990)" d="M183.491 124.871 Q179.88 124.871 178.052 128.436 Q176.246 131.978 176.246 139.107 Q176.246 146.214 178.052 149.778 Q179.88 153.32 183.491 153.32 Q187.126 153.32 188.931 149.778 Q190.76 146.214 190.76 139.107 Q190.76 131.978 188.931 128.436 Q187.126 124.871 183.491 124.871 M183.491 121.167 Q189.302 121.167 192.357 125.774 Q195.436 130.357 195.436 139.107 Q195.436 147.834 192.357 152.44 Q189.302 157.024 183.491 157.024 Q177.681 157.024 174.603 152.44 Q171.547 147.834 171.547 139.107 Q171.547 130.357 174.603 125.774 Q177.681 121.167 183.491 121.167 Z" fill="#000000" fill-rule="nonzero" fill-opacity="1" /><path clip-path="url(#clip990)" d="M1262.57 35.2602 Q1262.57 29.4732 1260.17 26.2904 Q1257.79 23.1075 1253.48 23.1075 Q1249.2 23.1075 1246.8 26.2904 Q1244.43 29.4732 1244.43 35.2602 Q1244.43 41.0183 1246.8 44.2012 Q1249.2 47.384 1253.48 47.384 Q1257.79 47.384 1260.17 44.2012 Q1262.57 41.0183 1262.57 35.2602 M1267.89 47.818 Q1267.89 56.0934 1264.22 60.1154 Q1260.54 64.1663 1252.96 64.1663 Q1250.15 64.1663 1247.67 63.7323 Q1245.18 63.3272 1242.83 62.4592 L1242.83 57.2798 Q1245.18 58.5529 1247.46 59.1606 Q1249.75 59.7682 1252.12 59.7682 Q1257.36 59.7682 1259.96 57.0194 Q1262.57 54.2995 1262.57 48.7729 L1262.57 46.1398 Q1260.92 49.0044 1258.34 50.4222 Q1255.77 51.84 1252.18 51.84 Q1246.22 51.84 1242.57 47.2972 Q1238.93 42.7544 1238.93 35.2602 Q1238.93 27.7371 1242.57 23.1943 Q1246.22 18.6515 1252.18 18.6515 Q1255.77 18.6515 1258.34 20.0693 Q1260.92 21.4872 1262.57 24.3517 L1262.57 19.4328 L1267.89 19.4328 L1267.89 47.818 Z" fill="#000000" fill-rule="nonzero" fill-opacity="1" /><path clip-path="url(#clip990)" d="M1300.18 24.3517 L1300.18 6.81709 L1305.51 6.81709 L1305.51 51.84 L1300.18 51.84 L1300.18 46.9789 Q1298.5 49.8724 1295.93 51.2902 Q1293.38 52.6791 1289.8 52.6791 Q1283.92 52.6791 1280.22 47.9916 Q1276.54 43.3042 1276.54 35.6653 Q1276.54 28.0265 1280.22 23.339 Q1283.92 18.6515 1289.8 18.6515 Q1293.38 18.6515 1295.93 20.0693 Q1298.5 21.4582 1300.18 24.3517 M1282.04 35.6653 Q1282.04 41.5391 1284.44 44.8956 Q1286.87 48.2231 1291.1 48.2231 Q1295.32 48.2231 1297.75 44.8956 Q1300.18 41.5391 1300.18 35.6653 Q1300.18 29.7915 1297.75 26.464 Q1295.32 23.1075 1291.1 23.1075 Q1286.87 23.1075 1284.44 26.464 Q1282.04 29.7915 1282.04 35.6653 Z" fill="#000000" fill-rule="nonzero" fill-opacity="1" /><path clip-path="url(#clip990)" d="M1321.62 46.9789 L1321.62 64.1663 L1316.27 64.1663 L1316.27 19.4328 L1321.62 19.4328 L1321.62 24.3517 Q1323.3 21.4582 1325.85 20.0693 Q1328.42 18.6515 1331.98 18.6515 Q1337.89 18.6515 1341.56 23.339 Q1345.26 28.0265 1345.26 35.6653 Q1345.26 43.3042 1341.56 47.9916 Q1337.89 52.6791 1331.98 52.6791 Q1328.42 52.6791 1325.85 51.2902 Q1323.3 49.8724 1321.62 46.9789 M1339.74 35.6653 Q1339.74 29.7915 1337.31 26.464 Q1334.91 23.1075 1330.68 23.1075 Q1326.46 23.1075 1324.03 26.464 Q1321.62 29.7915 1321.62 35.6653 Q1321.62 41.5391 1324.03 44.8956 Q1326.46 48.2231 1330.68 48.2231 Q1334.91 48.2231 1337.31 44.8956 Q1339.74 41.5391 1339.74 35.6653 Z" fill="#000000" fill-rule="nonzero" fill-opacity="1" /><polyline clip-path="url(#clip992)" style="stroke:#009af9; stroke-linecap:round; stroke-linejoin:round; stroke-width:4; stroke-opacity:1; fill:none" points="291.473,1447.38 416.551,1293.87 541.629,1431.66 666.707,1412.21 791.785,1181.51 916.862,1038.24 1041.94,974.307 1167.02,889.962 1292.1,736.979 1417.17,565.242 1542.25,457.253 1667.33,339.408 1792.41,306.468 1917.49,250.133 2042.56,270.321 2167.64,173.652 2292.72,145.256 "/>
<path clip-path="url(#clip990)" d="M302.146 255.881 L566.709 255.881 L566.709 152.201 L302.146 152.201  Z" fill="#ffffff" fill-rule="evenodd" fill-opacity="1"/>
<polyline clip-path="url(#clip990)" style="stroke:#000000; stroke-linecap:round; stroke-linejoin:round; stroke-width:4; stroke-opacity:1; fill:none" points="302.146,255.881 566.709,255.881 566.709,152.201 302.146,152.201 302.146,255.881 "/>
<polyline clip-path="url(#clip990)" style="stroke:#009af9; stroke-linecap:round; stroke-linejoin:round; stroke-width:4; stroke-opacity:1; fill:none" points="325.717,204.041 467.138,204.041 "/>
<path clip-path="url(#clip990)" d="M504.551 223.728 Q502.745 228.358 501.032 229.77 Q499.319 231.182 496.449 231.182 L493.046 231.182 L493.046 227.617 L495.546 227.617 Q497.305 227.617 498.278 226.784 Q499.25 225.95 500.43 222.848 L501.194 220.904 L490.708 195.395 L495.222 195.395 L503.324 215.673 L511.426 195.395 L515.94 195.395 L504.551 223.728 Z" fill="#000000" fill-rule="nonzero" fill-opacity="1" /><path clip-path="url(#clip990)" d="M523.231 217.385 L530.87 217.385 L530.87 191.02 L522.56 192.687 L522.56 188.427 L530.824 186.761 L535.5 186.761 L535.5 217.385 L543.139 217.385 L543.139 221.321 L523.231 221.321 L523.231 217.385 Z" fill="#000000" fill-rule="nonzero" fill-opacity="1" /></svg>
