<?xml version="1.0" encoding="utf-8"?>
<svg xmlns="http://www.w3.org/2000/svg" xmlns:xlink="http://www.w3.org/1999/xlink" width="600" height="400" viewBox="0 0 2400 1600">
<defs>
  <clipPath id="clip230">
    <rect x="0" y="0" width="2400" height="1600"/>
  </clipPath>
</defs>
<path clip-path="url(#clip230)" d="M0 1600 L2400 1600 L2400 0 L0 0  Z" fill="#ffffff" fill-rule="evenodd" fill-opacity="1"/>
<defs>
  <clipPath id="clip231">
    <rect x="480" y="0" width="1681" height="1600"/>
  </clipPath>
</defs>
<path clip-path="url(#clip230)" d="M232.339 686.448 L2352.76 686.448 L2352.76 106.192 L232.339 106.192  Z" fill="#ffffff" fill-rule="evenodd" fill-opacity="1"/>
<defs>
  <clipPath id="clip232">
    <rect x="232" y="106" width="2121" height="581"/>
  </clipPath>
</defs>
<polyline clip-path="url(#clip232)" style="stroke:#000000; stroke-linecap:round; stroke-linejoin:round; stroke-width:2; stroke-opacity:0.1; fill:none" points="242.341,686.448 242.341,106.192 "/>
<polyline clip-path="url(#clip232)" style="stroke:#000000; stroke-linecap:round; stroke-linejoin:round; stroke-width:2; stroke-opacity:0.1; fill:none" points="742.439,686.448 742.439,106.192 "/>
<polyline clip-path="url(#clip232)" style="stroke:#000000; stroke-linecap:round; stroke-linejoin:round; stroke-width:2; stroke-opacity:0.1; fill:none" points="1242.54,686.448 1242.54,106.192 "/>
<polyline clip-path="url(#clip232)" style="stroke:#000000; stroke-linecap:round; stroke-linejoin:round; stroke-width:2; stroke-opacity:0.1; fill:none" points="1742.64,686.448 1742.64,106.192 "/>
<polyline clip-path="url(#clip232)" style="stroke:#000000; stroke-linecap:round; stroke-linejoin:round; stroke-width:2; stroke-opacity:0.1; fill:none" points="2242.73,686.448 2242.73,106.192 "/>
<polyline clip-path="url(#clip232)" style="stroke:#000000; stroke-linecap:round; stroke-linejoin:round; stroke-width:2; stroke-opacity:0.1; fill:none" points="232.339,589.632 2352.76,589.632 "/>
<polyline clip-path="url(#clip232)" style="stroke:#000000; stroke-linecap:round; stroke-linejoin:round; stroke-width:2; stroke-opacity:0.1; fill:none" points="232.339,490.703 2352.76,490.703 "/>
<polyline clip-path="url(#clip232)" style="stroke:#000000; stroke-linecap:round; stroke-linejoin:round; stroke-width:2; stroke-opacity:0.1; fill:none" points="232.339,391.775 2352.76,391.775 "/>
<polyline clip-path="url(#clip232)" style="stroke:#000000; stroke-linecap:round; stroke-linejoin:round; stroke-width:2; stroke-opacity:0.1; fill:none" points="232.339,292.846 2352.76,292.846 "/>
<polyline clip-path="url(#clip232)" style="stroke:#000000; stroke-linecap:round; stroke-linejoin:round; stroke-width:2; stroke-opacity:0.1; fill:none" points="232.339,193.917 2352.76,193.917 "/>
<polyline clip-path="url(#clip230)" style="stroke:#000000; stroke-linecap:round; stroke-linejoin:round; stroke-width:4; stroke-opacity:1; fill:none" points="232.339,686.448 2352.76,686.448 "/>
<polyline clip-path="url(#clip230)" style="stroke:#000000; stroke-linecap:round; stroke-linejoin:round; stroke-width:4; stroke-opacity:1; fill:none" points="242.341,686.448 242.341,667.55 "/>
<polyline clip-path="url(#clip230)" style="stroke:#000000; stroke-linecap:round; stroke-linejoin:round; stroke-width:4; stroke-opacity:1; fill:none" points="742.439,686.448 742.439,667.55 "/>
<polyline clip-path="url(#clip230)" style="stroke:#000000; stroke-linecap:round; stroke-linejoin:round; stroke-width:4; stroke-opacity:1; fill:none" points="1242.54,686.448 1242.54,667.55 "/>
<polyline clip-path="url(#clip230)" style="stroke:#000000; stroke-linecap:round; stroke-linejoin:round; stroke-width:4; stroke-opacity:1; fill:none" points="1742.64,686.448 1742.64,667.55 "/>
<polyline clip-path="url(#clip230)" style="stroke:#000000; stroke-linecap:round; stroke-linejoin:round; stroke-width:4; stroke-opacity:1; fill:none" points="2242.73,686.448 2242.73,667.55 "/>
<path clip-path="url(#clip230)" d="M242.341 717.367 Q238.729 717.367 236.901 720.931 Q235.095 724.473 235.095 731.603 Q235.095 738.709 236.901 742.274 Q238.729 745.815 242.341 745.815 Q245.975 745.815 247.78 742.274 Q249.609 738.709 249.609 731.603 Q249.609 724.473 247.78 720.931 Q245.975 717.367 242.341 717.367 M242.341 713.663 Q248.151 713.663 251.206 718.269 Q254.285 722.853 254.285 731.603 Q254.285 740.329 251.206 744.936 Q248.151 749.519 242.341 749.519 Q236.53 749.519 233.452 744.936 Q230.396 740.329 230.396 731.603 Q230.396 722.853 233.452 718.269 Q236.53 713.663 242.341 713.663 Z" fill="#000000" fill-rule="nonzero" fill-opacity="1" /><path clip-path="url(#clip230)" d="M717.127 744.913 L724.765 744.913 L724.765 718.547 L716.455 720.214 L716.455 715.955 L724.719 714.288 L729.395 714.288 L729.395 744.913 L737.034 744.913 L737.034 748.848 L717.127 748.848 L717.127 744.913 Z" fill="#000000" fill-rule="nonzero" fill-opacity="1" /><path clip-path="url(#clip230)" d="M756.478 717.367 Q752.867 717.367 751.038 720.931 Q749.233 724.473 749.233 731.603 Q749.233 738.709 751.038 742.274 Q752.867 745.815 756.478 745.815 Q760.112 745.815 761.918 742.274 Q763.747 738.709 763.747 731.603 Q763.747 724.473 761.918 720.931 Q760.112 717.367 756.478 717.367 M756.478 713.663 Q762.288 713.663 765.344 718.269 Q768.423 722.853 768.423 731.603 Q768.423 740.329 765.344 744.936 Q762.288 749.519 756.478 749.519 Q750.668 749.519 747.589 744.936 Q744.534 740.329 744.534 731.603 Q744.534 722.853 747.589 718.269 Q750.668 713.663 756.478 713.663 Z" fill="#000000" fill-rule="nonzero" fill-opacity="1" /><path clip-path="url(#clip230)" d="M1221.31 744.913 L1237.63 744.913 L1237.63 748.848 L1215.69 748.848 L1215.69 744.913 Q1218.35 742.158 1222.93 737.528 Q1227.54 732.876 1228.72 731.533 Q1230.96 729.01 1231.84 727.274 Q1232.75 725.515 1232.75 723.825 Q1232.75 721.07 1230.8 719.334 Q1228.88 717.598 1225.78 717.598 Q1223.58 717.598 1221.13 718.362 Q1218.69 719.126 1215.92 720.677 L1215.92 715.955 Q1218.74 714.82 1221.19 714.242 Q1223.65 713.663 1225.69 713.663 Q1231.06 713.663 1234.25 716.348 Q1237.44 719.033 1237.44 723.524 Q1237.44 725.654 1236.63 727.575 Q1235.85 729.473 1233.74 732.066 Q1233.16 732.737 1230.06 735.954 Q1226.96 739.149 1221.31 744.913 Z" fill="#000000" fill-rule="nonzero" fill-opacity="1" /><path clip-path="url(#clip230)" d="M1257.44 717.367 Q1253.83 717.367 1252 720.931 Q1250.2 724.473 1250.2 731.603 Q1250.2 738.709 1252 742.274 Q1253.83 745.815 1257.44 745.815 Q1261.08 745.815 1262.88 742.274 Q1264.71 738.709 1264.71 731.603 Q1264.71 724.473 1262.88 720.931 Q1261.08 717.367 1257.44 717.367 M1257.44 713.663 Q1263.25 713.663 1266.31 718.269 Q1269.39 722.853 1269.39 731.603 Q1269.39 740.329 1266.31 744.936 Q1263.25 749.519 1257.44 749.519 Q1251.63 749.519 1248.56 744.936 Q1245.5 740.329 1245.5 731.603 Q1245.5 722.853 1248.56 718.269 Q1251.63 713.663 1257.44 713.663 Z" fill="#000000" fill-rule="nonzero" fill-opacity="1" /><path clip-path="url(#clip230)" d="M1731.48 730.214 Q1734.83 730.931 1736.71 733.2 Q1738.61 735.468 1738.61 738.802 Q1738.61 743.917 1735.09 746.718 Q1731.57 749.519 1725.09 749.519 Q1722.91 749.519 1720.6 749.079 Q1718.31 748.663 1715.85 747.806 L1715.85 743.292 Q1717.8 744.427 1720.11 745.005 Q1722.43 745.584 1724.95 745.584 Q1729.35 745.584 1731.64 743.848 Q1733.96 742.112 1733.96 738.802 Q1733.96 735.746 1731.8 734.033 Q1729.67 732.297 1725.85 732.297 L1721.83 732.297 L1721.83 728.454 L1726.04 728.454 Q1729.49 728.454 1731.32 727.089 Q1733.15 725.7 1733.15 723.107 Q1733.15 720.445 1731.25 719.033 Q1729.37 717.598 1725.85 717.598 Q1723.93 717.598 1721.73 718.015 Q1719.53 718.431 1716.9 719.311 L1716.9 715.144 Q1719.56 714.404 1721.87 714.033 Q1724.21 713.663 1726.27 713.663 Q1731.59 713.663 1734.7 716.093 Q1737.8 718.501 1737.8 722.621 Q1737.8 725.492 1736.15 727.482 Q1734.51 729.45 1731.48 730.214 Z" fill="#000000" fill-rule="nonzero" fill-opacity="1" /><path clip-path="url(#clip230)" d="M1757.47 717.367 Q1753.86 717.367 1752.03 720.931 Q1750.23 724.473 1750.23 731.603 Q1750.23 738.709 1752.03 742.274 Q1753.86 745.815 1757.47 745.815 Q1761.11 745.815 1762.91 742.274 Q1764.74 738.709 1764.74 731.603 Q1764.74 724.473 1762.91 720.931 Q1761.11 717.367 1757.47 717.367 M1757.47 713.663 Q1763.28 713.663 1766.34 718.269 Q1769.42 722.853 1769.42 731.603 Q1769.42 740.329 1766.34 744.936 Q1763.28 749.519 1757.47 749.519 Q1751.66 749.519 1748.58 744.936 Q1745.53 740.329 1745.53 731.603 Q1745.53 722.853 1748.58 718.269 Q1751.66 713.663 1757.47 713.663 Z" fill="#000000" fill-rule="nonzero" fill-opacity="1" /><path clip-path="url(#clip230)" d="M2230.91 718.362 L2219.1 736.811 L2230.91 736.811 L2230.91 718.362 M2229.68 714.288 L2235.56 714.288 L2235.56 736.811 L2240.49 736.811 L2240.49 740.7 L2235.56 740.7 L2235.56 748.848 L2230.91 748.848 L2230.91 740.7 L2215.3 740.7 L2215.3 736.186 L2229.68 714.288 Z" fill="#000000" fill-rule="nonzero" fill-opacity="1" /><path clip-path="url(#clip230)" d="M2258.22 717.367 Q2254.61 717.367 2252.78 720.931 Q2250.97 724.473 2250.97 731.603 Q2250.97 738.709 2252.78 742.274 Q2254.61 745.815 2258.22 745.815 Q2261.85 745.815 2263.66 742.274 Q2265.49 738.709 2265.49 731.603 Q2265.49 724.473 2263.66 720.931 Q2261.85 717.367 2258.22 717.367 M2258.22 713.663 Q2264.03 713.663 2267.09 718.269 Q2270.16 722.853 2270.16 731.603 Q2270.16 740.329 2267.09 744.936 Q2264.03 749.519 2258.22 749.519 Q2252.41 749.519 2249.33 744.936 Q2246.28 740.329 2246.28 731.603 Q2246.28 722.853 2249.33 718.269 Q2252.41 713.663 2258.22 713.663 Z" fill="#000000" fill-rule="nonzero" fill-opacity="1" /><polyline clip-path="url(#clip230)" style="stroke:#000000; stroke-linecap:round; stroke-linejoin:round; stroke-width:4; stroke-opacity:1; fill:none" points="232.339,686.448 232.339,106.192 "/>
<polyline clip-path="url(#clip230)" style="stroke:#000000; stroke-linecap:round; stroke-linejoin:round; stroke-width:4; stroke-opacity:1; fill:none" points="232.339,589.632 251.236,589.632 "/>
<polyline clip-path="url(#clip230)" style="stroke:#000000; stroke-linecap:round; stroke-linejoin:round; stroke-width:4; stroke-opacity:1; fill:none" points="232.339,490.703 251.236,490.703 "/>
<polyline clip-path="url(#clip230)" style="stroke:#000000; stroke-linecap:round; stroke-linejoin:round; stroke-width:4; stroke-opacity:1; fill:none" points="232.339,391.775 251.236,391.775 "/>
<polyline clip-path="url(#clip230)" style="stroke:#000000; stroke-linecap:round; stroke-linejoin:round; stroke-width:4; stroke-opacity:1; fill:none" points="232.339,292.846 251.236,292.846 "/>
<polyline clip-path="url(#clip230)" style="stroke:#000000; stroke-linecap:round; stroke-linejoin:round; stroke-width:4; stroke-opacity:1; fill:none" points="232.339,193.917 251.236,193.917 "/>
<path clip-path="url(#clip230)" d="M52.5662 572.352 L74.7883 572.352 L74.7883 574.343 L62.2421 606.912 L57.3578 606.912 L69.1633 576.287 L52.5662 576.287 L52.5662 572.352 Z" fill="#000000" fill-rule="nonzero" fill-opacity="1" /><path clip-path="url(#clip230)" d="M96.7558 576.426 L84.9503 594.875 L96.7558 594.875 L96.7558 576.426 M95.5289 572.352 L101.409 572.352 L101.409 594.875 L106.339 594.875 L106.339 598.764 L101.409 598.764 L101.409 606.912 L96.7558 606.912 L96.7558 598.764 L81.154 598.764 L81.154 594.25 L95.5289 572.352 Z" fill="#000000" fill-rule="nonzero" fill-opacity="1" /><path clip-path="url(#clip230)" d="M124.07 575.431 Q120.459 575.431 118.631 578.996 Q116.825 582.537 116.825 589.667 Q116.825 596.773 118.631 600.338 Q120.459 603.88 124.07 603.88 Q127.705 603.88 129.51 600.338 Q131.339 596.773 131.339 589.667 Q131.339 582.537 129.51 578.996 Q127.705 575.431 124.07 575.431 M124.07 571.727 Q129.881 571.727 132.936 576.334 Q136.015 580.917 136.015 589.667 Q136.015 598.394 132.936 603 Q129.881 607.583 124.07 607.583 Q118.26 607.583 115.182 603 Q112.126 598.394 112.126 589.667 Q112.126 580.917 115.182 576.334 Q118.26 571.727 124.07 571.727 Z" fill="#000000" fill-rule="nonzero" fill-opacity="1" /><path clip-path="url(#clip230)" d="M154.232 575.431 Q150.621 575.431 148.793 578.996 Q146.987 582.537 146.987 589.667 Q146.987 596.773 148.793 600.338 Q150.621 603.88 154.232 603.88 Q157.867 603.88 159.672 600.338 Q161.501 596.773 161.501 589.667 Q161.501 582.537 159.672 578.996 Q157.867 575.431 154.232 575.431 M154.232 571.727 Q160.042 571.727 163.098 576.334 Q166.177 580.917 166.177 589.667 Q166.177 598.394 163.098 603 Q160.042 607.583 154.232 607.583 Q148.422 607.583 145.343 603 Q142.288 598.394 142.288 589.667 Q142.288 580.917 145.343 576.334 Q148.422 571.727 154.232 571.727 Z" fill="#000000" fill-rule="nonzero" fill-opacity="1" /><path clip-path="url(#clip230)" d="M184.394 575.431 Q180.783 575.431 178.954 578.996 Q177.149 582.537 177.149 589.667 Q177.149 596.773 178.954 600.338 Q180.783 603.88 184.394 603.88 Q188.028 603.88 189.834 600.338 Q191.663 596.773 191.663 589.667 Q191.663 582.537 189.834 578.996 Q188.028 575.431 184.394 575.431 M184.394 571.727 Q190.204 571.727 193.26 576.334 Q196.339 580.917 196.339 589.667 Q196.339 598.394 193.26 603 Q190.204 607.583 184.394 607.583 Q178.584 607.583 175.505 603 Q172.45 598.394 172.45 589.667 Q172.45 580.917 175.505 576.334 Q178.584 571.727 184.394 571.727 Z" fill="#000000" fill-rule="nonzero" fill-opacity="1" /><path clip-path="url(#clip230)" d="M52.5662 473.423 L74.7883 473.423 L74.7883 475.414 L62.2421 507.983 L57.3578 507.983 L69.1633 477.359 L52.5662 477.359 L52.5662 473.423 Z" fill="#000000" fill-rule="nonzero" fill-opacity="1" /><path clip-path="url(#clip230)" d="M94.4873 488.84 Q91.3391 488.84 89.4873 490.993 Q87.6586 493.146 87.6586 496.895 Q87.6586 500.622 89.4873 502.798 Q91.3391 504.951 94.4873 504.951 Q97.6354 504.951 99.4641 502.798 Q101.316 500.622 101.316 496.895 Q101.316 493.146 99.4641 490.993 Q97.6354 488.84 94.4873 488.84 M103.77 474.187 L103.77 478.447 Q102.01 477.613 100.205 477.173 Q98.4224 476.734 96.6632 476.734 Q92.0336 476.734 89.5799 479.859 Q87.1493 482.984 86.8021 489.303 Q88.1679 487.289 90.228 486.224 Q92.2882 485.136 94.765 485.136 Q99.9733 485.136 102.983 488.308 Q106.015 491.456 106.015 496.895 Q106.015 502.22 102.867 505.437 Q99.7187 508.655 94.4873 508.655 Q88.4919 508.655 85.3206 504.071 Q82.1494 499.465 82.1494 490.738 Q82.1494 482.544 86.0382 477.683 Q89.9271 472.798 96.478 472.798 Q98.2372 472.798 100.02 473.146 Q101.825 473.493 103.77 474.187 Z" fill="#000000" fill-rule="nonzero" fill-opacity="1" /><path clip-path="url(#clip230)" d="M124.07 476.502 Q120.459 476.502 118.631 480.067 Q116.825 483.609 116.825 490.738 Q116.825 497.845 118.631 501.409 Q120.459 504.951 124.07 504.951 Q127.705 504.951 129.51 501.409 Q131.339 497.845 131.339 490.738 Q131.339 483.609 129.51 480.067 Q127.705 476.502 124.07 476.502 M124.07 472.798 Q129.881 472.798 132.936 477.405 Q136.015 481.988 136.015 490.738 Q136.015 499.465 132.936 504.071 Q129.881 508.655 124.07 508.655 Q118.26 508.655 115.182 504.071 Q112.126 499.465 112.126 490.738 Q112.126 481.988 115.182 477.405 Q118.26 472.798 124.07 472.798 Z" fill="#000000" fill-rule="nonzero" fill-opacity="1" /><path clip-path="url(#clip230)" d="M154.232 476.502 Q150.621 476.502 148.793 480.067 Q146.987 483.609 146.987 490.738 Q146.987 497.845 148.793 501.409 Q150.621 504.951 154.232 504.951 Q157.867 504.951 159.672 501.409 Q161.501 497.845 161.501 490.738 Q161.501 483.609 159.672 480.067 Q157.867 476.502 154.232 476.502 M154.232 472.798 Q160.042 472.798 163.098 477.405 Q166.177 481.988 166.177 490.738 Q166.177 499.465 163.098 504.071 Q160.042 508.655 154.232 508.655 Q148.422 508.655 145.343 504.071 Q142.288 499.465 142.288 490.738 Q142.288 481.988 145.343 477.405 Q148.422 472.798 154.232 472.798 Z" fill="#000000" fill-rule="nonzero" fill-opacity="1" /><path clip-path="url(#clip230)" d="M184.394 476.502 Q180.783 476.502 178.954 480.067 Q177.149 483.609 177.149 490.738 Q177.149 497.845 178.954 501.409 Q180.783 504.951 184.394 504.951 Q188.028 504.951 189.834 501.409 Q191.663 497.845 191.663 490.738 Q191.663 483.609 189.834 480.067 Q188.028 476.502 184.394 476.502 M184.394 472.798 Q190.204 472.798 193.26 477.405 Q196.339 481.988 196.339 490.738 Q196.339 499.465 193.26 504.071 Q190.204 508.655 184.394 508.655 Q178.584 508.655 175.505 504.071 Q172.45 499.465 172.45 490.738 Q172.45 481.988 175.505 477.405 Q178.584 472.798 184.394 472.798 Z" fill="#000000" fill-rule="nonzero" fill-opacity="1" /><path clip-path="url(#clip230)" d="M52.5662 374.495 L74.7883 374.495 L74.7883 376.485 L62.2421 409.055 L57.3578 409.055 L69.1633 378.43 L52.5662 378.43 L52.5662 374.495 Z" fill="#000000" fill-rule="nonzero" fill-opacity="1" /><path clip-path="url(#clip230)" d="M93.9086 392.643 Q90.5752 392.643 88.654 394.425 Q86.7558 396.207 86.7558 399.332 Q86.7558 402.457 88.654 404.24 Q90.5752 406.022 93.9086 406.022 Q97.2419 406.022 99.1632 404.24 Q101.084 402.434 101.084 399.332 Q101.084 396.207 99.1632 394.425 Q97.265 392.643 93.9086 392.643 M89.2327 390.652 Q86.2234 389.911 84.5336 387.851 Q82.867 385.791 82.867 382.828 Q82.867 378.684 85.8068 376.277 Q88.7697 373.87 93.9086 373.87 Q99.0706 373.87 102.01 376.277 Q104.95 378.684 104.95 382.828 Q104.95 385.791 103.26 387.851 Q101.594 389.911 98.6076 390.652 Q101.987 391.439 103.862 393.731 Q105.76 396.022 105.76 399.332 Q105.76 404.356 102.682 407.041 Q99.6261 409.726 93.9086 409.726 Q88.191 409.726 85.1123 407.041 Q82.0568 404.356 82.0568 399.332 Q82.0568 396.022 83.9549 393.731 Q85.8531 391.439 89.2327 390.652 M87.5197 383.268 Q87.5197 385.953 89.1864 387.458 Q90.8762 388.962 93.9086 388.962 Q96.9178 388.962 98.6076 387.458 Q100.321 385.953 100.321 383.268 Q100.321 380.583 98.6076 379.078 Q96.9178 377.573 93.9086 377.573 Q90.8762 377.573 89.1864 379.078 Q87.5197 380.583 87.5197 383.268 Z" fill="#000000" fill-rule="nonzero" fill-opacity="1" /><path clip-path="url(#clip230)" d="M124.07 377.573 Q120.459 377.573 118.631 381.138 Q116.825 384.68 116.825 391.809 Q116.825 398.916 118.631 402.481 Q120.459 406.022 124.07 406.022 Q127.705 406.022 129.51 402.481 Q131.339 398.916 131.339 391.809 Q131.339 384.68 129.51 381.138 Q127.705 377.573 124.07 377.573 M124.07 373.87 Q129.881 373.87 132.936 378.476 Q136.015 383.059 136.015 391.809 Q136.015 400.536 132.936 405.143 Q129.881 409.726 124.07 409.726 Q118.26 409.726 115.182 405.143 Q112.126 400.536 112.126 391.809 Q112.126 383.059 115.182 378.476 Q118.26 373.87 124.07 373.87 Z" fill="#000000" fill-rule="nonzero" fill-opacity="1" /><path clip-path="url(#clip230)" d="M154.232 377.573 Q150.621 377.573 148.793 381.138 Q146.987 384.68 146.987 391.809 Q146.987 398.916 148.793 402.481 Q150.621 406.022 154.232 406.022 Q157.867 406.022 159.672 402.481 Q161.501 398.916 161.501 391.809 Q161.501 384.68 159.672 381.138 Q157.867 377.573 154.232 377.573 M154.232 373.87 Q160.042 373.87 163.098 378.476 Q166.177 383.059 166.177 391.809 Q166.177 400.536 163.098 405.143 Q160.042 409.726 154.232 409.726 Q148.422 409.726 145.343 405.143 Q142.288 400.536 142.288 391.809 Q142.288 383.059 145.343 378.476 Q148.422 373.87 154.232 373.87 Z" fill="#000000" fill-rule="nonzero" fill-opacity="1" /><path clip-path="url(#clip230)" d="M184.394 377.573 Q180.783 377.573 178.954 381.138 Q177.149 384.68 177.149 391.809 Q177.149 398.916 178.954 402.481 Q180.783 406.022 184.394 406.022 Q188.028 406.022 189.834 402.481 Q191.663 398.916 191.663 391.809 Q191.663 384.68 189.834 381.138 Q188.028 377.573 184.394 377.573 M184.394 373.87 Q190.204 373.87 193.26 378.476 Q196.339 383.059 196.339 391.809 Q196.339 400.536 193.26 405.143 Q190.204 409.726 184.394 409.726 Q178.584 409.726 175.505 405.143 Q172.45 400.536 172.45 391.809 Q172.45 383.059 175.505 378.476 Q178.584 373.87 184.394 373.87 Z" fill="#000000" fill-rule="nonzero" fill-opacity="1" /><path clip-path="url(#clip230)" d="M63.7467 293.714 Q60.4134 293.714 58.4921 295.496 Q56.5939 297.279 56.5939 300.404 Q56.5939 303.529 58.4921 305.311 Q60.4134 307.093 63.7467 307.093 Q67.08 307.093 69.0013 305.311 Q70.9226 303.506 70.9226 300.404 Q70.9226 297.279 69.0013 295.496 Q67.1032 293.714 63.7467 293.714 M59.0708 291.723 Q56.0615 290.982 54.3717 288.922 Q52.7051 286.862 52.7051 283.899 Q52.7051 279.756 55.6449 277.348 Q58.6078 274.941 63.7467 274.941 Q68.9087 274.941 71.8485 277.348 Q74.7883 279.756 74.7883 283.899 Q74.7883 286.862 73.0985 288.922 Q71.4318 290.982 68.4457 291.723 Q71.8253 292.51 73.7003 294.802 Q75.5985 297.094 75.5985 300.404 Q75.5985 305.427 72.5198 308.112 Q69.4642 310.797 63.7467 310.797 Q58.0291 310.797 54.9504 308.112 Q51.8949 305.427 51.8949 300.404 Q51.8949 297.094 53.793 294.802 Q55.6912 292.51 59.0708 291.723 M57.3578 284.339 Q57.3578 287.024 59.0245 288.529 Q60.7143 290.033 63.7467 290.033 Q66.7559 290.033 68.4457 288.529 Q70.1587 287.024 70.1587 284.339 Q70.1587 281.654 68.4457 280.149 Q66.7559 278.645 63.7467 278.645 Q60.7143 278.645 59.0245 280.149 Q57.3578 281.654 57.3578 284.339 Z" fill="#000000" fill-rule="nonzero" fill-opacity="1" /><path clip-path="url(#clip230)" d="M93.9086 278.645 Q90.2975 278.645 88.4688 282.209 Q86.6632 285.751 86.6632 292.881 Q86.6632 299.987 88.4688 303.552 Q90.2975 307.093 93.9086 307.093 Q97.5428 307.093 99.3483 303.552 Q101.177 299.987 101.177 292.881 Q101.177 285.751 99.3483 282.209 Q97.5428 278.645 93.9086 278.645 M93.9086 274.941 Q99.7187 274.941 102.774 279.547 Q105.853 284.131 105.853 292.881 Q105.853 301.607 102.774 306.214 Q99.7187 310.797 93.9086 310.797 Q88.0984 310.797 85.0197 306.214 Q81.9642 301.607 81.9642 292.881 Q81.9642 284.131 85.0197 279.547 Q88.0984 274.941 93.9086 274.941 Z" fill="#000000" fill-rule="nonzero" fill-opacity="1" /><path clip-path="url(#clip230)" d="M124.07 278.645 Q120.459 278.645 118.631 282.209 Q116.825 285.751 116.825 292.881 Q116.825 299.987 118.631 303.552 Q120.459 307.093 124.07 307.093 Q127.705 307.093 129.51 303.552 Q131.339 299.987 131.339 292.881 Q131.339 285.751 129.51 282.209 Q127.705 278.645 124.07 278.645 M124.07 274.941 Q129.881 274.941 132.936 279.547 Q136.015 284.131 136.015 292.881 Q136.015 301.607 132.936 306.214 Q129.881 310.797 124.07 310.797 Q118.26 310.797 115.182 306.214 Q112.126 301.607 112.126 292.881 Q112.126 284.131 115.182 279.547 Q118.26 274.941 124.07 274.941 Z" fill="#000000" fill-rule="nonzero" fill-opacity="1" /><path clip-path="url(#clip230)" d="M154.232 278.645 Q150.621 278.645 148.793 282.209 Q146.987 285.751 146.987 292.881 Q146.987 299.987 148.793 303.552 Q150.621 307.093 154.232 307.093 Q157.867 307.093 159.672 303.552 Q161.501 299.987 161.501 292.881 Q161.501 285.751 159.672 282.209 Q157.867 278.645 154.232 278.645 M154.232 274.941 Q160.042 274.941 163.098 279.547 Q166.177 284.131 166.177 292.881 Q166.177 301.607 163.098 306.214 Q160.042 310.797 154.232 310.797 Q148.422 310.797 145.343 306.214 Q142.288 301.607 142.288 292.881 Q142.288 284.131 145.343 279.547 Q148.422 274.941 154.232 274.941 Z" fill="#000000" fill-rule="nonzero" fill-opacity="1" /><path clip-path="url(#clip230)" d="M184.394 278.645 Q180.783 278.645 178.954 282.209 Q177.149 285.751 177.149 292.881 Q177.149 299.987 178.954 303.552 Q180.783 307.093 184.394 307.093 Q188.028 307.093 189.834 303.552 Q191.663 299.987 191.663 292.881 Q191.663 285.751 189.834 282.209 Q188.028 278.645 184.394 278.645 M184.394 274.941 Q190.204 274.941 193.26 279.547 Q196.339 284.131 196.339 292.881 Q196.339 301.607 193.26 306.214 Q190.204 310.797 184.394 310.797 Q178.584 310.797 175.505 306.214 Q172.45 301.607 172.45 292.881 Q172.45 284.131 175.505 279.547 Q178.584 274.941 184.394 274.941 Z" fill="#000000" fill-rule="nonzero" fill-opacity="1" /><path clip-path="url(#clip230)" d="M63.7467 194.785 Q60.4134 194.785 58.4921 196.568 Q56.5939 198.35 56.5939 201.475 Q56.5939 204.6 58.4921 206.382 Q60.4134 208.165 63.7467 208.165 Q67.08 208.165 69.0013 206.382 Q70.9226 204.577 70.9226 201.475 Q70.9226 198.35 69.0013 196.568 Q67.1032 194.785 63.7467 194.785 M59.0708 192.794 Q56.0615 192.054 54.3717 189.993 Q52.7051 187.933 52.7051 184.97 Q52.7051 180.827 55.6449 178.419 Q58.6078 176.012 63.7467 176.012 Q68.9087 176.012 71.8485 178.419 Q74.7883 180.827 74.7883 184.97 Q74.7883 187.933 73.0985 189.993 Q71.4318 192.054 68.4457 192.794 Q71.8253 193.581 73.7003 195.873 Q75.5985 198.165 75.5985 201.475 Q75.5985 206.498 72.5198 209.183 Q69.4642 211.868 63.7467 211.868 Q58.0291 211.868 54.9504 209.183 Q51.8949 206.498 51.8949 201.475 Q51.8949 198.165 53.793 195.873 Q55.6912 193.581 59.0708 192.794 M57.3578 185.41 Q57.3578 188.095 59.0245 189.6 Q60.7143 191.105 63.7467 191.105 Q66.7559 191.105 68.4457 189.6 Q70.1587 188.095 70.1587 185.41 Q70.1587 182.725 68.4457 181.22 Q66.7559 179.716 63.7467 179.716 Q60.7143 179.716 59.0245 181.22 Q57.3578 182.725 57.3578 185.41 Z" fill="#000000" fill-rule="nonzero" fill-opacity="1" /><path clip-path="url(#clip230)" d="M87.9364 207.262 L104.256 207.262 L104.256 211.197 L82.3114 211.197 L82.3114 207.262 Q84.9734 204.507 89.5567 199.878 Q94.1632 195.225 95.3437 193.882 Q97.5891 191.359 98.4687 189.623 Q99.3715 187.864 99.3715 186.174 Q99.3715 183.419 97.4271 181.683 Q95.5058 179.947 92.4039 179.947 Q90.2049 179.947 87.7512 180.711 Q85.3206 181.475 82.5429 183.026 L82.5429 178.304 Q85.3669 177.169 87.8206 176.591 Q90.2743 176.012 92.3113 176.012 Q97.6817 176.012 100.876 178.697 Q104.071 181.382 104.071 185.873 Q104.071 188.003 103.26 189.924 Q102.473 191.822 100.367 194.415 Q99.7882 195.086 96.6863 198.304 Q93.5845 201.498 87.9364 207.262 Z" fill="#000000" fill-rule="nonzero" fill-opacity="1" /><path clip-path="url(#clip230)" d="M124.07 179.716 Q120.459 179.716 118.631 183.281 Q116.825 186.822 116.825 193.952 Q116.825 201.058 118.631 204.623 Q120.459 208.165 124.07 208.165 Q127.705 208.165 129.51 204.623 Q131.339 201.058 131.339 193.952 Q131.339 186.822 129.51 183.281 Q127.705 179.716 124.07 179.716 M124.07 176.012 Q129.881 176.012 132.936 180.619 Q136.015 185.202 136.015 193.952 Q136.015 202.679 132.936 207.285 Q129.881 211.868 124.07 211.868 Q118.26 211.868 115.182 207.285 Q112.126 202.679 112.126 193.952 Q112.126 185.202 115.182 180.619 Q118.26 176.012 124.07 176.012 Z" fill="#000000" fill-rule="nonzero" fill-opacity="1" /><path clip-path="url(#clip230)" d="M154.232 179.716 Q150.621 179.716 148.793 183.281 Q146.987 186.822 146.987 193.952 Q146.987 201.058 148.793 204.623 Q150.621 208.165 154.232 208.165 Q157.867 208.165 159.672 204.623 Q161.501 201.058 161.501 193.952 Q161.501 186.822 159.672 183.281 Q157.867 179.716 154.232 179.716 M154.232 176.012 Q160.042 176.012 163.098 180.619 Q166.177 185.202 166.177 193.952 Q166.177 202.679 163.098 207.285 Q160.042 211.868 154.232 211.868 Q148.422 211.868 145.343 207.285 Q142.288 202.679 142.288 193.952 Q142.288 185.202 145.343 180.619 Q148.422 176.012 154.232 176.012 Z" fill="#000000" fill-rule="nonzero" fill-opacity="1" /><path clip-path="url(#clip230)" d="M184.394 179.716 Q180.783 179.716 178.954 183.281 Q177.149 186.822 177.149 193.952 Q177.149 201.058 178.954 204.623 Q180.783 208.165 184.394 208.165 Q188.028 208.165 189.834 204.623 Q191.663 201.058 191.663 193.952 Q191.663 186.822 189.834 183.281 Q188.028 179.716 184.394 179.716 M184.394 176.012 Q190.204 176.012 193.26 180.619 Q196.339 185.202 196.339 193.952 Q196.339 202.679 193.26 207.285 Q190.204 211.868 184.394 211.868 Q178.584 211.868 175.505 207.285 Q172.45 202.679 172.45 193.952 Q172.45 185.202 175.505 180.619 Q178.584 176.012 184.394 176.012 Z" fill="#000000" fill-rule="nonzero" fill-opacity="1" /><path clip-path="url(#clip230)" d="M1263.02 35.2602 Q1263.02 29.4732 1260.62 26.2904 Q1258.24 23.1075 1253.93 23.1075 Q1249.65 23.1075 1247.25 26.2904 Q1244.88 29.4732 1244.88 35.2602 Q1244.88 41.0183 1247.25 44.2012 Q1249.65 47.384 1253.93 47.384 Q1258.24 47.384 1260.62 44.2012 Q1263.02 41.0183 1263.02 35.2602 M1268.34 47.818 Q1268.34 56.0934 1264.67 60.1154 Q1260.99 64.1663 1253.41 64.1663 Q1250.61 64.1663 1248.12 63.7323 Q1245.63 63.3272 1243.29 62.4592 L1243.29 57.2798 Q1245.63 58.5529 1247.91 59.1606 Q1250.2 59.7682 1252.57 59.7682 Q1257.81 59.7682 1260.41 57.0194 Q1263.02 54.2995 1263.02 48.7729 L1263.02 46.1398 Q1261.37 49.0044 1258.79 50.4222 Q1256.22 51.84 1252.63 51.84 Q1246.67 51.84 1243.02 47.2972 Q1239.38 42.7544 1239.38 35.2602 Q1239.38 27.7371 1243.02 23.1943 Q1246.67 18.6515 1252.63 18.6515 Q1256.22 18.6515 1258.79 20.0693 Q1261.37 21.4872 1263.02 24.3517 L1263.02 19.4328 L1268.34 19.4328 L1268.34 47.818 Z" fill="#000000" fill-rule="nonzero" fill-opacity="1" /><path clip-path="url(#clip230)" d="M1300.63 24.3517 L1300.63 6.81709 L1305.96 6.81709 L1305.96 51.84 L1300.63 51.84 L1300.63 46.9789 Q1298.96 49.8724 1296.38 51.2902 Q1293.83 52.6791 1290.25 52.6791 Q1284.37 52.6791 1280.67 47.9916 Q1276.99 43.3042 1276.99 35.6653 Q1276.99 28.0265 1280.67 23.339 Q1284.37 18.6515 1290.25 18.6515 Q1293.83 18.6515 1296.38 20.0693 Q1298.96 21.4582 1300.63 24.3517 M1282.49 35.6653 Q1282.49 41.5391 1284.89 44.8956 Q1287.32 48.2231 1291.55 48.2231 Q1295.77 48.2231 1298.2 44.8956 Q1300.63 41.5391 1300.63 35.6653 Q1300.63 29.7915 1298.2 26.464 Q1295.77 23.1075 1291.55 23.1075 Q1287.32 23.1075 1284.89 26.464 Q1282.49 29.7915 1282.49 35.6653 Z" fill="#000000" fill-rule="nonzero" fill-opacity="1" /><path clip-path="url(#clip230)" d="M1322.08 46.9789 L1322.08 64.1663 L1316.72 64.1663 L1316.72 19.4328 L1322.08 19.4328 L1322.08 24.3517 Q1323.75 21.4582 1326.3 20.0693 Q1328.88 18.6515 1332.43 18.6515 Q1338.34 18.6515 1342.01 23.339 Q1345.72 28.0265 1345.72 35.6653 Q1345.72 43.3042 1342.01 47.9916 Q1338.34 52.6791 1332.43 52.6791 Q1328.88 52.6791 1326.3 51.2902 Q1323.75 49.8724 1322.08 46.9789 M1340.19 35.6653 Q1340.19 29.7915 1337.76 26.464 Q1335.36 23.1075 1331.13 23.1075 Q1326.91 23.1075 1324.48 26.464 Q1322.08 29.7915 1322.08 35.6653 Q1322.08 41.5391 1324.48 44.8956 Q1326.91 48.2231 1331.13 48.2231 Q1335.36 48.2231 1337.76 44.8956 Q1340.19 41.5391 1340.19 35.6653 Z" fill="#000000" fill-rule="nonzero" fill-opacity="1" /><polyline clip-path="url(#clip232)" style="stroke:#009af9; stroke-linecap:round; stroke-linejoin:round; stroke-width:4; stroke-opacity:1; fill:none" points="292.35,667.687 342.36,670.026 392.37,604.978 442.38,574.534 492.39,523.402 542.4,541.385 592.409,575.703 642.419,547.045 692.429,550.81 742.439,508.408 792.449,484.869 842.459,408.644 892.468,382.351 942.478,376.497 992.488,347.005 1042.5,366.1 1092.51,365.327 1142.52,357.5 1192.53,360.013 1242.54,396.333 1292.55,412.272 1342.56,437.045 1392.57,459.758 1442.58,456.153 1492.59,425.568 1542.6,374.019 1592.61,320.353 1642.62,321.281 1692.63,294.697 1742.64,266.756 1792.65,276.682 1842.66,253.423 1892.67,237.722 1942.68,192.019 1992.69,187.946 2042.69,131.873 2092.7,122.614 2142.71,139.908 2192.72,160.651 2242.73,182.002 2292.74,239.667 "/>
<polyline clip-path="url(#clip232)" style="stroke:#e26f46; stroke-linecap:round; stroke-linejoin:round; stroke-width:4; stroke-opacity:1; fill:none" points="292.35,667.687 342.36,668.076 392.37,666.658 442.38,661.807 492.39,660.405 542.4,651.453 592.409,643.763 642.419,647.945 692.429,647.663 742.439,649.359 792.449,647.276 842.459,652.562 892.468,640.946 942.478,623.957 992.488,611.497 1042.5,603.486 1092.51,605.648 1142.52,607.364 1192.53,590.516 1242.54,579.232 1292.55,571.432 1342.56,558.01 1392.57,558.056 1442.58,554.809 1492.59,553.433 1542.6,542.457 1592.61,521.393 1642.62,503.215 1692.63,476.293 1742.64,457.646 1792.65,435.59 1842.66,418.976 1892.67,406.244 1942.68,392.197 1992.69,375.253 2042.69,352.137 2092.7,333.621 2142.71,327.558 2192.72,310.129 2242.73,305.918 2292.74,304.832 "/>
<path clip-path="url(#clip230)" d="M303.019 281.054 L922.698 281.054 L922.698 125.534 L303.019 125.534  Z" fill="#ffffff" fill-rule="evenodd" fill-opacity="1"/>
<polyline clip-path="url(#clip230)" style="stroke:#000000; stroke-linecap:round; stroke-linejoin:round; stroke-width:4; stroke-opacity:1; fill:none" points="303.019,281.054 922.698,281.054 922.698,125.534 303.019,125.534 303.019,281.054 "/>
<polyline clip-path="url(#clip230)" style="stroke:#009af9; stroke-linecap:round; stroke-linejoin:round; stroke-width:4; stroke-opacity:1; fill:none" points="326.579,177.374 467.94,177.374 "/>
<path clip-path="url(#clip230)" d="M508.005 158.636 L508.005 162.177 L503.931 162.177 Q501.64 162.177 500.737 163.103 Q499.857 164.029 499.857 166.437 L499.857 168.728 L506.871 168.728 L506.871 172.038 L499.857 172.038 L499.857 194.654 L495.575 194.654 L495.575 172.038 L491.501 172.038 L491.501 168.728 L495.575 168.728 L495.575 166.923 Q495.575 162.594 497.589 160.626 Q499.602 158.636 503.977 158.636 L508.005 158.636 Z" fill="#000000" fill-rule="nonzero" fill-opacity="1" /><path clip-path="url(#clip230)" d="M521.616 171.714 Q518.19 171.714 516.2 174.399 Q514.209 177.061 514.209 181.714 Q514.209 186.367 516.176 189.052 Q518.167 191.714 521.616 191.714 Q525.019 191.714 527.01 189.029 Q529 186.344 529 181.714 Q529 177.108 527.01 174.423 Q525.019 171.714 521.616 171.714 M521.616 168.103 Q527.172 168.103 530.343 171.714 Q533.514 175.325 533.514 181.714 Q533.514 188.08 530.343 191.714 Q527.172 195.325 521.616 195.325 Q516.038 195.325 512.866 191.714 Q509.718 188.08 509.718 181.714 Q509.718 175.325 512.866 171.714 Q516.038 168.103 521.616 168.103 Z" fill="#000000" fill-rule="nonzero" fill-opacity="1" /><path clip-path="url(#clip230)" d="M555.598 172.71 Q554.88 172.293 554.024 172.108 Q553.19 171.899 552.172 171.899 Q548.561 171.899 546.616 174.261 Q544.695 176.599 544.695 180.997 L544.695 194.654 L540.412 194.654 L540.412 168.728 L544.695 168.728 L544.695 172.756 Q546.037 170.395 548.19 169.261 Q550.343 168.103 553.422 168.103 Q553.861 168.103 554.394 168.173 Q554.926 168.219 555.574 168.335 L555.598 172.71 Z" fill="#000000" fill-rule="nonzero" fill-opacity="1" /><path clip-path="url(#clip230)" d="M557.588 168.728 L561.848 168.728 L567.172 188.96 L572.472 168.728 L577.496 168.728 L582.82 188.96 L588.121 168.728 L592.38 168.728 L585.597 194.654 L580.574 194.654 L574.996 173.404 L569.394 194.654 L564.371 194.654 L557.588 168.728 Z" fill="#000000" fill-rule="nonzero" fill-opacity="1" /><path clip-path="url(#clip230)" d="M610.62 181.622 Q605.458 181.622 603.468 182.802 Q601.477 183.983 601.477 186.83 Q601.477 189.098 602.958 190.441 Q604.463 191.76 607.032 191.76 Q610.574 191.76 612.704 189.26 Q614.857 186.737 614.857 182.571 L614.857 181.622 L610.62 181.622 M619.116 179.862 L619.116 194.654 L614.857 194.654 L614.857 190.719 Q613.398 193.08 611.222 194.214 Q609.046 195.325 605.898 195.325 Q601.917 195.325 599.556 193.103 Q597.218 190.858 597.218 187.108 Q597.218 182.733 600.134 180.511 Q603.074 178.288 608.884 178.288 L614.857 178.288 L614.857 177.872 Q614.857 174.932 612.912 173.335 Q610.991 171.714 607.495 171.714 Q605.273 171.714 603.167 172.247 Q601.06 172.779 599.116 173.844 L599.116 169.909 Q601.454 169.006 603.653 168.566 Q605.852 168.103 607.935 168.103 Q613.56 168.103 616.338 171.02 Q619.116 173.937 619.116 179.862 Z" fill="#000000" fill-rule="nonzero" fill-opacity="1" /><path clip-path="url(#clip230)" d="M642.912 172.71 Q642.194 172.293 641.338 172.108 Q640.505 171.899 639.486 171.899 Q635.875 171.899 633.93 174.261 Q632.009 176.599 632.009 180.997 L632.009 194.654 L627.727 194.654 L627.727 168.728 L632.009 168.728 L632.009 172.756 Q633.352 170.395 635.505 169.261 Q637.657 168.103 640.736 168.103 Q641.176 168.103 641.708 168.173 Q642.241 168.219 642.889 168.335 L642.912 172.71 Z" fill="#000000" fill-rule="nonzero" fill-opacity="1" /><path clip-path="url(#clip230)" d="M663.606 172.663 L663.606 158.636 L667.865 158.636 L667.865 194.654 L663.606 194.654 L663.606 190.765 Q662.264 193.08 660.203 194.214 Q658.166 195.325 655.296 195.325 Q650.597 195.325 647.634 191.575 Q644.694 187.825 644.694 181.714 Q644.694 175.603 647.634 171.853 Q650.597 168.103 655.296 168.103 Q658.166 168.103 660.203 169.237 Q662.264 170.349 663.606 172.663 M649.092 181.714 Q649.092 186.413 651.014 189.098 Q652.958 191.76 656.338 191.76 Q659.717 191.76 661.662 189.098 Q663.606 186.413 663.606 181.714 Q663.606 177.015 661.662 174.353 Q659.717 171.668 656.338 171.668 Q652.958 171.668 651.014 174.353 Q649.092 177.015 649.092 181.714 Z" fill="#000000" fill-rule="nonzero" fill-opacity="1" /><path clip-path="url(#clip230)" d="M691.708 158.636 L695.967 158.636 L695.967 194.654 L691.708 194.654 L691.708 158.636 Z" fill="#000000" fill-rule="nonzero" fill-opacity="1" /><path clip-path="url(#clip230)" d="M714.925 171.714 Q711.5 171.714 709.509 174.399 Q707.518 177.061 707.518 181.714 Q707.518 186.367 709.486 189.052 Q711.476 191.714 714.925 191.714 Q718.328 191.714 720.319 189.029 Q722.31 186.344 722.31 181.714 Q722.31 177.108 720.319 174.423 Q718.328 171.714 714.925 171.714 M714.925 168.103 Q720.481 168.103 723.652 171.714 Q726.824 175.325 726.824 181.714 Q726.824 188.08 723.652 191.714 Q720.481 195.325 714.925 195.325 Q709.347 195.325 706.175 191.714 Q703.027 188.08 703.027 181.714 Q703.027 175.325 706.175 171.714 Q709.347 168.103 714.925 168.103 Z" fill="#000000" fill-rule="nonzero" fill-opacity="1" /><path clip-path="url(#clip230)" d="M743.93 171.714 Q740.504 171.714 738.513 174.399 Q736.523 177.061 736.523 181.714 Q736.523 186.367 738.49 189.052 Q740.481 191.714 743.93 191.714 Q747.333 191.714 749.323 189.029 Q751.314 186.344 751.314 181.714 Q751.314 177.108 749.323 174.423 Q747.333 171.714 743.93 171.714 M743.93 168.103 Q749.485 168.103 752.657 171.714 Q755.828 175.325 755.828 181.714 Q755.828 188.08 752.657 191.714 Q749.485 195.325 743.93 195.325 Q738.351 195.325 735.18 191.714 Q732.032 188.08 732.032 181.714 Q732.032 175.325 735.18 171.714 Q738.351 168.103 743.93 168.103 Z" fill="#000000" fill-rule="nonzero" fill-opacity="1" /><path clip-path="url(#clip230)" d="M762.726 158.636 L767.008 158.636 L767.008 179.909 L779.717 168.728 L785.157 168.728 L771.407 180.858 L785.735 194.654 L780.18 194.654 L767.008 181.992 L767.008 194.654 L762.726 194.654 L762.726 158.636 Z" fill="#000000" fill-rule="nonzero" fill-opacity="1" /><path clip-path="url(#clip230)" d="M790.342 168.728 L794.601 168.728 L794.601 194.654 L790.342 194.654 L790.342 168.728 M790.342 158.636 L794.601 158.636 L794.601 164.029 L790.342 164.029 L790.342 158.636 Z" fill="#000000" fill-rule="nonzero" fill-opacity="1" /><path clip-path="url(#clip230)" d="M825.064 179.006 L825.064 194.654 L820.804 194.654 L820.804 179.145 Q820.804 175.464 819.369 173.636 Q817.934 171.807 815.064 171.807 Q811.615 171.807 809.624 174.006 Q807.633 176.205 807.633 180.001 L807.633 194.654 L803.351 194.654 L803.351 168.728 L807.633 168.728 L807.633 172.756 Q809.161 170.418 811.221 169.261 Q813.305 168.103 816.013 168.103 Q820.48 168.103 822.772 170.881 Q825.064 173.636 825.064 179.006 Z" fill="#000000" fill-rule="nonzero" fill-opacity="1" /><path clip-path="url(#clip230)" d="M850.619 181.39 Q850.619 176.761 848.698 174.214 Q846.8 171.668 843.351 171.668 Q839.925 171.668 838.003 174.214 Q836.105 176.761 836.105 181.39 Q836.105 185.997 838.003 188.543 Q839.925 191.089 843.351 191.089 Q846.8 191.089 848.698 188.543 Q850.619 185.997 850.619 181.39 M854.878 191.436 Q854.878 198.057 851.939 201.274 Q848.999 204.515 842.934 204.515 Q840.689 204.515 838.698 204.168 Q836.707 203.844 834.832 203.149 L834.832 199.006 Q836.707 200.024 838.536 200.51 Q840.365 200.997 842.263 200.997 Q846.452 200.997 848.536 198.797 Q850.619 196.622 850.619 192.2 L850.619 190.094 Q849.3 192.385 847.24 193.52 Q845.179 194.654 842.309 194.654 Q837.541 194.654 834.624 191.02 Q831.707 187.386 831.707 181.39 Q831.707 175.372 834.624 171.737 Q837.541 168.103 842.309 168.103 Q845.179 168.103 847.24 169.237 Q849.3 170.372 850.619 172.663 L850.619 168.728 L854.878 168.728 L854.878 191.436 Z" fill="#000000" fill-rule="nonzero" fill-opacity="1" /><polyline clip-path="url(#clip230)" style="stroke:#e26f46; stroke-linecap:round; stroke-linejoin:round; stroke-width:4; stroke-opacity:1; fill:none" points="326.579,229.214 467.94,229.214 "/>
<path clip-path="url(#clip230)" d="M510.274 233.554 Q510.274 228.855 508.329 226.193 Q506.408 223.508 503.028 223.508 Q499.649 223.508 497.704 226.193 Q495.783 228.855 495.783 233.554 Q495.783 238.253 497.704 240.938 Q499.649 243.6 503.028 243.6 Q506.408 243.6 508.329 240.938 Q510.274 238.253 510.274 233.554 M495.783 224.503 Q497.126 222.189 499.163 221.077 Q501.223 219.943 504.07 219.943 Q508.792 219.943 511.732 223.693 Q514.695 227.443 514.695 233.554 Q514.695 239.665 511.732 243.415 Q508.792 247.165 504.07 247.165 Q501.223 247.165 499.163 246.054 Q497.126 244.92 495.783 242.605 L495.783 246.494 L491.501 246.494 L491.501 210.476 L495.783 210.476 L495.783 224.503 Z" fill="#000000" fill-rule="nonzero" fill-opacity="1" /><path clip-path="url(#clip230)" d="M533.538 233.462 Q528.375 233.462 526.385 234.642 Q524.394 235.823 524.394 238.67 Q524.394 240.938 525.876 242.281 Q527.38 243.6 529.95 243.6 Q533.491 243.6 535.621 241.1 Q537.774 238.577 537.774 234.411 L537.774 233.462 L533.538 233.462 M542.033 231.702 L542.033 246.494 L537.774 246.494 L537.774 242.559 Q536.315 244.92 534.139 246.054 Q531.963 247.165 528.815 247.165 Q524.834 247.165 522.473 244.943 Q520.135 242.698 520.135 238.948 Q520.135 234.573 523.051 232.351 Q525.991 230.128 531.801 230.128 L537.774 230.128 L537.774 229.712 Q537.774 226.772 535.829 225.175 Q533.908 223.554 530.413 223.554 Q528.19 223.554 526.084 224.087 Q523.977 224.619 522.033 225.684 L522.033 221.749 Q524.371 220.846 526.57 220.406 Q528.769 219.943 530.852 219.943 Q536.477 219.943 539.255 222.86 Q542.033 225.777 542.033 231.702 Z" fill="#000000" fill-rule="nonzero" fill-opacity="1" /><path clip-path="url(#clip230)" d="M569.463 221.564 L569.463 225.545 Q567.658 224.55 565.829 224.064 Q564.023 223.554 562.172 223.554 Q558.028 223.554 555.736 226.193 Q553.445 228.809 553.445 233.554 Q553.445 238.3 555.736 240.938 Q558.028 243.554 562.172 243.554 Q564.023 243.554 565.829 243.068 Q567.658 242.559 569.463 241.563 L569.463 245.499 Q567.681 246.332 565.76 246.749 Q563.861 247.165 561.709 247.165 Q555.852 247.165 552.403 243.485 Q548.954 239.804 548.954 233.554 Q548.954 227.212 552.426 223.577 Q555.922 219.943 561.986 219.943 Q563.954 219.943 565.829 220.36 Q567.704 220.753 569.463 221.564 Z" fill="#000000" fill-rule="nonzero" fill-opacity="1" /><path clip-path="url(#clip230)" d="M576.709 210.476 L580.991 210.476 L580.991 231.749 L593.699 220.568 L599.139 220.568 L585.389 232.698 L599.718 246.494 L594.162 246.494 L580.991 233.832 L580.991 246.494 L576.709 246.494 L576.709 210.476 Z" fill="#000000" fill-rule="nonzero" fill-opacity="1" /><path clip-path="url(#clip230)" d="M601.847 220.568 L606.107 220.568 L611.431 240.8 L616.731 220.568 L621.755 220.568 L627.079 240.8 L632.38 220.568 L636.639 220.568 L629.856 246.494 L624.833 246.494 L619.255 225.244 L613.653 246.494 L608.63 246.494 L601.847 220.568 Z" fill="#000000" fill-rule="nonzero" fill-opacity="1" /><path clip-path="url(#clip230)" d="M654.879 233.462 Q649.717 233.462 647.727 234.642 Q645.736 235.823 645.736 238.67 Q645.736 240.938 647.217 242.281 Q648.722 243.6 651.291 243.6 Q654.833 243.6 656.963 241.1 Q659.116 238.577 659.116 234.411 L659.116 233.462 L654.879 233.462 M663.375 231.702 L663.375 246.494 L659.116 246.494 L659.116 242.559 Q657.657 244.92 655.481 246.054 Q653.305 247.165 650.157 247.165 Q646.176 247.165 643.815 244.943 Q641.477 242.698 641.477 238.948 Q641.477 234.573 644.393 232.351 Q647.333 230.128 653.143 230.128 L659.116 230.128 L659.116 229.712 Q659.116 226.772 657.171 225.175 Q655.25 223.554 651.754 223.554 Q649.532 223.554 647.426 224.087 Q645.319 224.619 643.375 225.684 L643.375 221.749 Q645.713 220.846 647.912 220.406 Q650.111 219.943 652.194 219.943 Q657.819 219.943 660.597 222.86 Q663.375 225.777 663.375 231.702 Z" fill="#000000" fill-rule="nonzero" fill-opacity="1" /><path clip-path="url(#clip230)" d="M687.171 224.55 Q686.453 224.133 685.597 223.948 Q684.764 223.739 683.745 223.739 Q680.134 223.739 678.19 226.101 Q676.268 228.439 676.268 232.837 L676.268 246.494 L671.986 246.494 L671.986 220.568 L676.268 220.568 L676.268 224.596 Q677.611 222.235 679.764 221.101 Q681.916 219.943 684.995 219.943 Q685.435 219.943 685.967 220.013 Q686.5 220.059 687.148 220.175 L687.171 224.55 Z" fill="#000000" fill-rule="nonzero" fill-opacity="1" /><path clip-path="url(#clip230)" d="M707.865 224.503 L707.865 210.476 L712.125 210.476 L712.125 246.494 L707.865 246.494 L707.865 242.605 Q706.523 244.92 704.463 246.054 Q702.425 247.165 699.555 247.165 Q694.856 247.165 691.893 243.415 Q688.953 239.665 688.953 233.554 Q688.953 227.443 691.893 223.693 Q694.856 219.943 699.555 219.943 Q702.425 219.943 704.463 221.077 Q706.523 222.189 707.865 224.503 M693.351 233.554 Q693.351 238.253 695.273 240.938 Q697.217 243.6 700.597 243.6 Q703.976 243.6 705.921 240.938 Q707.865 238.253 707.865 233.554 Q707.865 228.855 705.921 226.193 Q703.976 223.508 700.597 223.508 Q697.217 223.508 695.273 226.193 Q693.351 228.855 693.351 233.554 Z" fill="#000000" fill-rule="nonzero" fill-opacity="1" /><path clip-path="url(#clip230)" d="M735.967 210.476 L740.226 210.476 L740.226 246.494 L735.967 246.494 L735.967 210.476 Z" fill="#000000" fill-rule="nonzero" fill-opacity="1" /><path clip-path="url(#clip230)" d="M759.184 223.554 Q755.759 223.554 753.768 226.239 Q751.777 228.901 751.777 233.554 Q751.777 238.207 753.745 240.892 Q755.735 243.554 759.184 243.554 Q762.587 243.554 764.578 240.869 Q766.569 238.184 766.569 233.554 Q766.569 228.948 764.578 226.263 Q762.587 223.554 759.184 223.554 M759.184 219.943 Q764.74 219.943 767.911 223.554 Q771.083 227.165 771.083 233.554 Q771.083 239.92 767.911 243.554 Q764.74 247.165 759.184 247.165 Q753.606 247.165 750.434 243.554 Q747.286 239.92 747.286 233.554 Q747.286 227.165 750.434 223.554 Q753.606 219.943 759.184 219.943 Z" fill="#000000" fill-rule="nonzero" fill-opacity="1" /><path clip-path="url(#clip230)" d="M788.189 223.554 Q784.763 223.554 782.772 226.239 Q780.782 228.901 780.782 233.554 Q780.782 238.207 782.749 240.892 Q784.74 243.554 788.189 243.554 Q791.592 243.554 793.582 240.869 Q795.573 238.184 795.573 233.554 Q795.573 228.948 793.582 226.263 Q791.592 223.554 788.189 223.554 M788.189 219.943 Q793.744 219.943 796.916 223.554 Q800.087 227.165 800.087 233.554 Q800.087 239.92 796.916 243.554 Q793.744 247.165 788.189 247.165 Q782.61 247.165 779.439 243.554 Q776.291 239.92 776.291 233.554 Q776.291 227.165 779.439 223.554 Q782.61 219.943 788.189 219.943 Z" fill="#000000" fill-rule="nonzero" fill-opacity="1" /><path clip-path="url(#clip230)" d="M806.985 210.476 L811.267 210.476 L811.267 231.749 L823.976 220.568 L829.416 220.568 L815.666 232.698 L829.994 246.494 L824.439 246.494 L811.267 233.832 L811.267 246.494 L806.985 246.494 L806.985 210.476 Z" fill="#000000" fill-rule="nonzero" fill-opacity="1" /><path clip-path="url(#clip230)" d="M834.601 220.568 L838.86 220.568 L838.86 246.494 L834.601 246.494 L834.601 220.568 M834.601 210.476 L838.86 210.476 L838.86 215.869 L834.601 215.869 L834.601 210.476 Z" fill="#000000" fill-rule="nonzero" fill-opacity="1" /><path clip-path="url(#clip230)" d="M869.323 230.846 L869.323 246.494 L865.064 246.494 L865.064 230.985 Q865.064 227.304 863.628 225.476 Q862.193 223.647 859.323 223.647 Q855.874 223.647 853.883 225.846 Q851.892 228.045 851.892 231.841 L851.892 246.494 L847.61 246.494 L847.61 220.568 L851.892 220.568 L851.892 224.596 Q853.42 222.258 855.48 221.101 Q857.564 219.943 860.272 219.943 Q864.739 219.943 867.031 222.721 Q869.323 225.476 869.323 230.846 Z" fill="#000000" fill-rule="nonzero" fill-opacity="1" /><path clip-path="url(#clip230)" d="M894.878 233.23 Q894.878 228.601 892.957 226.054 Q891.059 223.508 887.61 223.508 Q884.184 223.508 882.262 226.054 Q880.364 228.601 880.364 233.23 Q880.364 237.837 882.262 240.383 Q884.184 242.929 887.61 242.929 Q891.059 242.929 892.957 240.383 Q894.878 237.837 894.878 233.23 M899.137 243.276 Q899.137 249.897 896.198 253.114 Q893.258 256.355 887.193 256.355 Q884.948 256.355 882.957 256.008 Q880.966 255.684 879.091 254.989 L879.091 250.846 Q880.966 251.864 882.795 252.35 Q884.624 252.837 886.522 252.837 Q890.712 252.837 892.795 250.637 Q894.878 248.462 894.878 244.04 L894.878 241.934 Q893.559 244.225 891.499 245.36 Q889.438 246.494 886.568 246.494 Q881.8 246.494 878.883 242.86 Q875.966 239.226 875.966 233.23 Q875.966 227.212 878.883 223.577 Q881.8 219.943 886.568 219.943 Q889.438 219.943 891.499 221.077 Q893.559 222.212 894.878 224.503 L894.878 220.568 L899.137 220.568 L899.137 243.276 Z" fill="#000000" fill-rule="nonzero" fill-opacity="1" /><path clip-path="url(#clip230)" d="M232.339 1486.45 L2352.76 1486.45 L2352.76 906.192 L232.339 906.192  Z" fill="#ffffff" fill-rule="evenodd" fill-opacity="1"/>
<defs>
  <clipPath id="clip233">
    <rect x="232" y="906" width="2121" height="581"/>
  </clipPath>
</defs>
<polyline clip-path="url(#clip233)" style="stroke:#000000; stroke-linecap:round; stroke-linejoin:round; stroke-width:2; stroke-opacity:0.1; fill:none" points="242.341,1486.45 242.341,906.192 "/>
<polyline clip-path="url(#clip233)" style="stroke:#000000; stroke-linecap:round; stroke-linejoin:round; stroke-width:2; stroke-opacity:0.1; fill:none" points="742.439,1486.45 742.439,906.192 "/>
<polyline clip-path="url(#clip233)" style="stroke:#000000; stroke-linecap:round; stroke-linejoin:round; stroke-width:2; stroke-opacity:0.1; fill:none" points="1242.54,1486.45 1242.54,906.192 "/>
<polyline clip-path="url(#clip233)" style="stroke:#000000; stroke-linecap:round; stroke-linejoin:round; stroke-width:2; stroke-opacity:0.1; fill:none" points="1742.64,1486.45 1742.64,906.192 "/>
<polyline clip-path="url(#clip233)" style="stroke:#000000; stroke-linecap:round; stroke-linejoin:round; stroke-width:2; stroke-opacity:0.1; fill:none" points="2242.73,1486.45 2242.73,906.192 "/>
<polyline clip-path="url(#clip233)" style="stroke:#000000; stroke-linecap:round; stroke-linejoin:round; stroke-width:2; stroke-opacity:0.1; fill:none" points="232.339,1485.94 2352.76,1485.94 "/>
<polyline clip-path="url(#clip233)" style="stroke:#000000; stroke-linecap:round; stroke-linejoin:round; stroke-width:2; stroke-opacity:0.1; fill:none" points="232.339,1401.19 2352.76,1401.19 "/>
<polyline clip-path="url(#clip233)" style="stroke:#000000; stroke-linecap:round; stroke-linejoin:round; stroke-width:2; stroke-opacity:0.1; fill:none" points="232.339,1316.44 2352.76,1316.44 "/>
<polyline clip-path="url(#clip233)" style="stroke:#000000; stroke-linecap:round; stroke-linejoin:round; stroke-width:2; stroke-opacity:0.1; fill:none" points="232.339,1231.7 2352.76,1231.7 "/>
<polyline clip-path="url(#clip233)" style="stroke:#000000; stroke-linecap:round; stroke-linejoin:round; stroke-width:2; stroke-opacity:0.1; fill:none" points="232.339,1146.95 2352.76,1146.95 "/>
<polyline clip-path="url(#clip233)" style="stroke:#000000; stroke-linecap:round; stroke-linejoin:round; stroke-width:2; stroke-opacity:0.1; fill:none" points="232.339,1062.2 2352.76,1062.2 "/>
<polyline clip-path="url(#clip233)" style="stroke:#000000; stroke-linecap:round; stroke-linejoin:round; stroke-width:2; stroke-opacity:0.1; fill:none" points="232.339,977.455 2352.76,977.455 "/>
<polyline clip-path="url(#clip230)" style="stroke:#000000; stroke-linecap:round; stroke-linejoin:round; stroke-width:4; stroke-opacity:1; fill:none" points="232.339,1486.45 2352.76,1486.45 "/>
<polyline clip-path="url(#clip230)" style="stroke:#000000; stroke-linecap:round; stroke-linejoin:round; stroke-width:4; stroke-opacity:1; fill:none" points="242.341,1486.45 242.341,1467.55 "/>
<polyline clip-path="url(#clip230)" style="stroke:#000000; stroke-linecap:round; stroke-linejoin:round; stroke-width:4; stroke-opacity:1; fill:none" points="742.439,1486.45 742.439,1467.55 "/>
<polyline clip-path="url(#clip230)" style="stroke:#000000; stroke-linecap:round; stroke-linejoin:round; stroke-width:4; stroke-opacity:1; fill:none" points="1242.54,1486.45 1242.54,1467.55 "/>
<polyline clip-path="url(#clip230)" style="stroke:#000000; stroke-linecap:round; stroke-linejoin:round; stroke-width:4; stroke-opacity:1; fill:none" points="1742.64,1486.45 1742.64,1467.55 "/>
<polyline clip-path="url(#clip230)" style="stroke:#000000; stroke-linecap:round; stroke-linejoin:round; stroke-width:4; stroke-opacity:1; fill:none" points="2242.73,1486.45 2242.73,1467.55 "/>
<path clip-path="url(#clip230)" d="M242.341 1517.37 Q238.729 1517.37 236.901 1520.93 Q235.095 1524.47 235.095 1531.6 Q235.095 1538.71 236.901 1542.27 Q238.729 1545.82 242.341 1545.82 Q245.975 1545.82 247.78 1542.27 Q249.609 1538.71 249.609 1531.6 Q249.609 1524.47 247.78 1520.93 Q245.975 1517.37 242.341 1517.37 M242.341 1513.66 Q248.151 1513.66 251.206 1518.27 Q254.285 1522.85 254.285 1531.6 Q254.285 1540.33 251.206 1544.94 Q248.151 1549.52 242.341 1549.52 Q236.53 1549.52 233.452 1544.94 Q230.396 1540.33 230.396 1531.6 Q230.396 1522.85 233.452 1518.27 Q236.53 1513.66 242.341 1513.66 Z" fill="#000000" fill-rule="nonzero" fill-opacity="1" /><path clip-path="url(#clip230)" d="M717.127 1544.91 L724.765 1544.91 L724.765 1518.55 L716.455 1520.21 L716.455 1515.95 L724.719 1514.29 L729.395 1514.29 L729.395 1544.91 L737.034 1544.91 L737.034 1548.85 L717.127 1548.85 L717.127 1544.91 Z" fill="#000000" fill-rule="nonzero" fill-opacity="1" /><path clip-path="url(#clip230)" d="M756.478 1517.37 Q752.867 1517.37 751.038 1520.93 Q749.233 1524.47 749.233 1531.6 Q749.233 1538.71 751.038 1542.27 Q752.867 1545.82 756.478 1545.82 Q760.112 1545.82 761.918 1542.27 Q763.747 1538.71 763.747 1531.6 Q763.747 1524.47 761.918 1520.93 Q760.112 1517.37 756.478 1517.37 M756.478 1513.66 Q762.288 1513.66 765.344 1518.27 Q768.423 1522.85 768.423 1531.6 Q768.423 1540.33 765.344 1544.94 Q762.288 1549.52 756.478 1549.52 Q750.668 1549.52 747.589 1544.94 Q744.534 1540.33 744.534 1531.6 Q744.534 1522.85 747.589 1518.27 Q750.668 1513.66 756.478 1513.66 Z" fill="#000000" fill-rule="nonzero" fill-opacity="1" /><path clip-path="url(#clip230)" d="M1221.31 1544.91 L1237.63 1544.91 L1237.63 1548.85 L1215.69 1548.85 L1215.69 1544.91 Q1218.35 1542.16 1222.93 1537.53 Q1227.54 1532.88 1228.72 1531.53 Q1230.96 1529.01 1231.84 1527.27 Q1232.75 1525.51 1232.75 1523.82 Q1232.75 1521.07 1230.8 1519.33 Q1228.88 1517.6 1225.78 1517.6 Q1223.58 1517.6 1221.13 1518.36 Q1218.69 1519.13 1215.92 1520.68 L1215.92 1515.95 Q1218.74 1514.82 1221.19 1514.24 Q1223.65 1513.66 1225.69 1513.66 Q1231.06 1513.66 1234.25 1516.35 Q1237.44 1519.03 1237.44 1523.52 Q1237.44 1525.65 1236.63 1527.57 Q1235.85 1529.47 1233.74 1532.07 Q1233.16 1532.74 1230.06 1535.95 Q1226.96 1539.15 1221.31 1544.91 Z" fill="#000000" fill-rule="nonzero" fill-opacity="1" /><path clip-path="url(#clip230)" d="M1257.44 1517.37 Q1253.83 1517.37 1252 1520.93 Q1250.2 1524.47 1250.2 1531.6 Q1250.2 1538.71 1252 1542.27 Q1253.83 1545.82 1257.44 1545.82 Q1261.08 1545.82 1262.88 1542.27 Q1264.71 1538.71 1264.71 1531.6 Q1264.71 1524.47 1262.88 1520.93 Q1261.08 1517.37 1257.44 1517.37 M1257.44 1513.66 Q1263.25 1513.66 1266.31 1518.27 Q1269.39 1522.85 1269.39 1531.6 Q1269.39 1540.33 1266.31 1544.94 Q1263.25 1549.52 1257.44 1549.52 Q1251.63 1549.52 1248.56 1544.94 Q1245.5 1540.33 1245.5 1531.6 Q1245.5 1522.85 1248.56 1518.27 Q1251.63 1513.66 1257.44 1513.66 Z" fill="#000000" fill-rule="nonzero" fill-opacity="1" /><path clip-path="url(#clip230)" d="M1731.48 1530.21 Q1734.83 1530.93 1736.71 1533.2 Q1738.61 1535.47 1738.61 1538.8 Q1738.61 1543.92 1735.09 1546.72 Q1731.57 1549.52 1725.09 1549.52 Q1722.91 1549.52 1720.6 1549.08 Q1718.31 1548.66 1715.85 1547.81 L1715.85 1543.29 Q1717.8 1544.43 1720.11 1545.01 Q1722.43 1545.58 1724.95 1545.58 Q1729.35 1545.58 1731.64 1543.85 Q1733.96 1542.11 1733.96 1538.8 Q1733.96 1535.75 1731.8 1534.03 Q1729.67 1532.3 1725.85 1532.3 L1721.83 1532.3 L1721.83 1528.45 L1726.04 1528.45 Q1729.49 1528.45 1731.32 1527.09 Q1733.15 1525.7 1733.15 1523.11 Q1733.15 1520.45 1731.25 1519.03 Q1729.37 1517.6 1725.85 1517.6 Q1723.93 1517.6 1721.73 1518.01 Q1719.53 1518.43 1716.9 1519.31 L1716.9 1515.14 Q1719.56 1514.4 1721.87 1514.03 Q1724.21 1513.66 1726.27 1513.66 Q1731.59 1513.66 1734.7 1516.09 Q1737.8 1518.5 1737.8 1522.62 Q1737.8 1525.49 1736.15 1527.48 Q1734.51 1529.45 1731.48 1530.21 Z" fill="#000000" fill-rule="nonzero" fill-opacity="1" /><path clip-path="url(#clip230)" d="M1757.47 1517.37 Q1753.86 1517.37 1752.03 1520.93 Q1750.23 1524.47 1750.23 1531.6 Q1750.23 1538.71 1752.03 1542.27 Q1753.86 1545.82 1757.47 1545.82 Q1761.11 1545.82 1762.91 1542.27 Q1764.74 1538.71 1764.74 1531.6 Q1764.74 1524.47 1762.91 1520.93 Q1761.11 1517.37 1757.47 1517.37 M1757.47 1513.66 Q1763.28 1513.66 1766.34 1518.27 Q1769.42 1522.85 1769.42 1531.6 Q1769.42 1540.33 1766.34 1544.94 Q1763.28 1549.52 1757.47 1549.52 Q1751.66 1549.52 1748.58 1544.94 Q1745.53 1540.33 1745.53 1531.6 Q1745.53 1522.85 1748.58 1518.27 Q1751.66 1513.66 1757.47 1513.66 Z" fill="#000000" fill-rule="nonzero" fill-opacity="1" /><path clip-path="url(#clip230)" d="M2230.91 1518.36 L2219.1 1536.81 L2230.91 1536.81 L2230.91 1518.36 M2229.68 1514.29 L2235.56 1514.29 L2235.56 1536.81 L2240.49 1536.81 L2240.49 1540.7 L2235.56 1540.7 L2235.56 1548.85 L2230.91 1548.85 L2230.91 1540.7 L2215.3 1540.7 L2215.3 1536.19 L2229.68 1514.29 Z" fill="#000000" fill-rule="nonzero" fill-opacity="1" /><path clip-path="url(#clip230)" d="M2258.22 1517.37 Q2254.61 1517.37 2252.78 1520.93 Q2250.97 1524.47 2250.97 1531.6 Q2250.97 1538.71 2252.78 1542.27 Q2254.61 1545.82 2258.22 1545.82 Q2261.85 1545.82 2263.66 1542.27 Q2265.49 1538.71 2265.49 1531.6 Q2265.49 1524.47 2263.66 1520.93 Q2261.85 1517.37 2258.22 1517.37 M2258.22 1513.66 Q2264.03 1513.66 2267.09 1518.27 Q2270.16 1522.85 2270.16 1531.6 Q2270.16 1540.33 2267.09 1544.94 Q2264.03 1549.52 2258.22 1549.52 Q2252.41 1549.52 2249.33 1544.94 Q2246.28 1540.33 2246.28 1531.6 Q2246.28 1522.85 2249.33 1518.27 Q2252.41 1513.66 2258.22 1513.66 Z" fill="#000000" fill-rule="nonzero" fill-opacity="1" /><polyline clip-path="url(#clip230)" style="stroke:#000000; stroke-linecap:round; stroke-linejoin:round; stroke-width:4; stroke-opacity:1; fill:none" points="232.339,1486.45 232.339,906.192 "/>
<polyline clip-path="url(#clip230)" style="stroke:#000000; stroke-linecap:round; stroke-linejoin:round; stroke-width:4; stroke-opacity:1; fill:none" points="232.339,1485.94 251.236,1485.94 "/>
<polyline clip-path="url(#clip230)" style="stroke:#000000; stroke-linecap:round; stroke-linejoin:round; stroke-width:4; stroke-opacity:1; fill:none" points="232.339,1401.19 251.236,1401.19 "/>
<polyline clip-path="url(#clip230)" style="stroke:#000000; stroke-linecap:round; stroke-linejoin:round; stroke-width:4; stroke-opacity:1; fill:none" points="232.339,1316.44 251.236,1316.44 "/>
<polyline clip-path="url(#clip230)" style="stroke:#000000; stroke-linecap:round; stroke-linejoin:round; stroke-width:4; stroke-opacity:1; fill:none" points="232.339,1231.7 251.236,1231.7 "/>
<polyline clip-path="url(#clip230)" style="stroke:#000000; stroke-linecap:round; stroke-linejoin:round; stroke-width:4; stroke-opacity:1; fill:none" points="232.339,1146.95 251.236,1146.95 "/>
<polyline clip-path="url(#clip230)" style="stroke:#000000; stroke-linecap:round; stroke-linejoin:round; stroke-width:4; stroke-opacity:1; fill:none" points="232.339,1062.2 251.236,1062.2 "/>
<polyline clip-path="url(#clip230)" style="stroke:#000000; stroke-linecap:round; stroke-linejoin:round; stroke-width:4; stroke-opacity:1; fill:none" points="232.339,977.455 251.236,977.455 "/>
<path clip-path="url(#clip230)" d="M66.5939 1472.73 L54.7884 1491.18 L66.5939 1491.18 L66.5939 1472.73 M65.367 1468.66 L71.2466 1468.66 L71.2466 1491.18 L76.1772 1491.18 L76.1772 1495.07 L71.2466 1495.07 L71.2466 1503.22 L66.5939 1503.22 L66.5939 1495.07 L50.9921 1495.07 L50.9921 1490.56 L65.367 1468.66 Z" fill="#000000" fill-rule="nonzero" fill-opacity="1" /><path clip-path="url(#clip230)" d="M93.9086 1471.74 Q90.2975 1471.74 88.4688 1475.3 Q86.6632 1478.84 86.6632 1485.97 Q86.6632 1493.08 88.4688 1496.64 Q90.2975 1500.19 93.9086 1500.19 Q97.5428 1500.19 99.3483 1496.64 Q101.177 1493.08 101.177 1485.97 Q101.177 1478.84 99.3483 1475.3 Q97.5428 1471.74 93.9086 1471.74 M93.9086 1468.03 Q99.7187 1468.03 102.774 1472.64 Q105.853 1477.22 105.853 1485.97 Q105.853 1494.7 102.774 1499.31 Q99.7187 1503.89 93.9086 1503.89 Q88.0984 1503.89 85.0197 1499.31 Q81.9642 1494.7 81.9642 1485.97 Q81.9642 1477.22 85.0197 1472.64 Q88.0984 1468.03 93.9086 1468.03 Z" fill="#000000" fill-rule="nonzero" fill-opacity="1" /><path clip-path="url(#clip230)" d="M124.07 1471.74 Q120.459 1471.74 118.631 1475.3 Q116.825 1478.84 116.825 1485.97 Q116.825 1493.08 118.631 1496.64 Q120.459 1500.19 124.07 1500.19 Q127.705 1500.19 129.51 1496.64 Q131.339 1493.08 131.339 1485.97 Q131.339 1478.84 129.51 1475.3 Q127.705 1471.74 124.07 1471.74 M124.07 1468.03 Q129.881 1468.03 132.936 1472.64 Q136.015 1477.22 136.015 1485.97 Q136.015 1494.7 132.936 1499.31 Q129.881 1503.89 124.07 1503.89 Q118.26 1503.89 115.182 1499.31 Q112.126 1494.7 112.126 1485.97 Q112.126 1477.22 115.182 1472.64 Q118.26 1468.03 124.07 1468.03 Z" fill="#000000" fill-rule="nonzero" fill-opacity="1" /><path clip-path="url(#clip230)" d="M154.232 1471.74 Q150.621 1471.74 148.793 1475.3 Q146.987 1478.84 146.987 1485.97 Q146.987 1493.08 148.793 1496.64 Q150.621 1500.19 154.232 1500.19 Q157.867 1500.19 159.672 1496.64 Q161.501 1493.08 161.501 1485.97 Q161.501 1478.84 159.672 1475.3 Q157.867 1471.74 154.232 1471.74 M154.232 1468.03 Q160.042 1468.03 163.098 1472.64 Q166.177 1477.22 166.177 1485.97 Q166.177 1494.7 163.098 1499.31 Q160.042 1503.89 154.232 1503.89 Q148.422 1503.89 145.343 1499.31 Q142.288 1494.7 142.288 1485.97 Q142.288 1477.22 145.343 1472.64 Q148.422 1468.03 154.232 1468.03 Z" fill="#000000" fill-rule="nonzero" fill-opacity="1" /><path clip-path="url(#clip230)" d="M184.394 1471.74 Q180.783 1471.74 178.954 1475.3 Q177.149 1478.84 177.149 1485.97 Q177.149 1493.08 178.954 1496.64 Q180.783 1500.19 184.394 1500.19 Q188.028 1500.19 189.834 1496.64 Q191.663 1493.08 191.663 1485.97 Q191.663 1478.84 189.834 1475.3 Q188.028 1471.74 184.394 1471.74 M184.394 1468.03 Q190.204 1468.03 193.26 1472.64 Q196.339 1477.22 196.339 1485.97 Q196.339 1494.7 193.26 1499.31 Q190.204 1503.89 184.394 1503.89 Q178.584 1503.89 175.505 1499.31 Q172.45 1494.7 172.45 1485.97 Q172.45 1477.22 175.505 1472.64 Q178.584 1468.03 184.394 1468.03 Z" fill="#000000" fill-rule="nonzero" fill-opacity="1" /><path clip-path="url(#clip230)" d="M66.5939 1387.99 L54.7884 1406.43 L66.5939 1406.43 L66.5939 1387.99 M65.367 1383.91 L71.2466 1383.91 L71.2466 1406.43 L76.1772 1406.43 L76.1772 1410.32 L71.2466 1410.32 L71.2466 1418.47 L66.5939 1418.47 L66.5939 1410.32 L50.9921 1410.32 L50.9921 1405.81 L65.367 1383.91 Z" fill="#000000" fill-rule="nonzero" fill-opacity="1" /><path clip-path="url(#clip230)" d="M84.7188 1414.54 L92.3576 1414.54 L92.3576 1388.17 L84.0475 1389.84 L84.0475 1385.58 L92.3113 1383.91 L96.9872 1383.91 L96.9872 1414.54 L104.626 1414.54 L104.626 1418.47 L84.7188 1418.47 L84.7188 1414.54 Z" fill="#000000" fill-rule="nonzero" fill-opacity="1" /><path clip-path="url(#clip230)" d="M124.07 1386.99 Q120.459 1386.99 118.631 1390.55 Q116.825 1394.1 116.825 1401.23 Q116.825 1408.33 118.631 1411.9 Q120.459 1415.44 124.07 1415.44 Q127.705 1415.44 129.51 1411.9 Q131.339 1408.33 131.339 1401.23 Q131.339 1394.1 129.51 1390.55 Q127.705 1386.99 124.07 1386.99 M124.07 1383.29 Q129.881 1383.29 132.936 1387.89 Q136.015 1392.48 136.015 1401.23 Q136.015 1409.95 132.936 1414.56 Q129.881 1419.14 124.07 1419.14 Q118.26 1419.14 115.182 1414.56 Q112.126 1409.95 112.126 1401.23 Q112.126 1392.48 115.182 1387.89 Q118.26 1383.29 124.07 1383.29 Z" fill="#000000" fill-rule="nonzero" fill-opacity="1" /><path clip-path="url(#clip230)" d="M154.232 1386.99 Q150.621 1386.99 148.793 1390.55 Q146.987 1394.1 146.987 1401.23 Q146.987 1408.33 148.793 1411.9 Q150.621 1415.44 154.232 1415.44 Q157.867 1415.44 159.672 1411.9 Q161.501 1408.33 161.501 1401.23 Q161.501 1394.1 159.672 1390.55 Q157.867 1386.99 154.232 1386.99 M154.232 1383.29 Q160.042 1383.29 163.098 1387.89 Q166.177 1392.48 166.177 1401.23 Q166.177 1409.95 163.098 1414.56 Q160.042 1419.14 154.232 1419.14 Q148.422 1419.14 145.343 1414.56 Q142.288 1409.95 142.288 1401.23 Q142.288 1392.48 145.343 1387.89 Q148.422 1383.29 154.232 1383.29 Z" fill="#000000" fill-rule="nonzero" fill-opacity="1" /><path clip-path="url(#clip230)" d="M184.394 1386.99 Q180.783 1386.99 178.954 1390.55 Q177.149 1394.1 177.149 1401.23 Q177.149 1408.33 178.954 1411.9 Q180.783 1415.44 184.394 1415.44 Q188.028 1415.44 189.834 1411.9 Q191.663 1408.33 191.663 1401.23 Q191.663 1394.1 189.834 1390.55 Q188.028 1386.99 184.394 1386.99 M184.394 1383.29 Q190.204 1383.29 193.26 1387.89 Q196.339 1392.48 196.339 1401.23 Q196.339 1409.95 193.26 1414.56 Q190.204 1419.14 184.394 1419.14 Q178.584 1419.14 175.505 1414.56 Q172.45 1409.95 172.45 1401.23 Q172.45 1392.48 175.505 1387.89 Q178.584 1383.29 184.394 1383.29 Z" fill="#000000" fill-rule="nonzero" fill-opacity="1" /><path clip-path="url(#clip230)" d="M66.5939 1303.24 L54.7884 1321.69 L66.5939 1321.69 L66.5939 1303.24 M65.367 1299.16 L71.2466 1299.16 L71.2466 1321.69 L76.1772 1321.69 L76.1772 1325.58 L71.2466 1325.58 L71.2466 1333.72 L66.5939 1333.72 L66.5939 1325.58 L50.9921 1325.58 L50.9921 1321.06 L65.367 1299.16 Z" fill="#000000" fill-rule="nonzero" fill-opacity="1" /><path clip-path="url(#clip230)" d="M87.9364 1329.79 L104.256 1329.79 L104.256 1333.72 L82.3114 1333.72 L82.3114 1329.79 Q84.9734 1327.03 89.5567 1322.4 Q94.1632 1317.75 95.3437 1316.41 Q97.5891 1313.89 98.4687 1312.15 Q99.3715 1310.39 99.3715 1308.7 Q99.3715 1305.95 97.4271 1304.21 Q95.5058 1302.47 92.4039 1302.47 Q90.2049 1302.47 87.7512 1303.24 Q85.3206 1304 82.5429 1305.55 L82.5429 1300.83 Q85.3669 1299.7 87.8206 1299.12 Q90.2743 1298.54 92.3113 1298.54 Q97.6817 1298.54 100.876 1301.22 Q104.071 1303.91 104.071 1308.4 Q104.071 1310.53 103.26 1312.45 Q102.473 1314.35 100.367 1316.94 Q99.7882 1317.61 96.6863 1320.83 Q93.5845 1324.02 87.9364 1329.79 Z" fill="#000000" fill-rule="nonzero" fill-opacity="1" /><path clip-path="url(#clip230)" d="M124.07 1302.24 Q120.459 1302.24 118.631 1305.81 Q116.825 1309.35 116.825 1316.48 Q116.825 1323.59 118.631 1327.15 Q120.459 1330.69 124.07 1330.69 Q127.705 1330.69 129.51 1327.15 Q131.339 1323.59 131.339 1316.48 Q131.339 1309.35 129.51 1305.81 Q127.705 1302.24 124.07 1302.24 M124.07 1298.54 Q129.881 1298.54 132.936 1303.15 Q136.015 1307.73 136.015 1316.48 Q136.015 1325.21 132.936 1329.81 Q129.881 1334.4 124.07 1334.4 Q118.26 1334.4 115.182 1329.81 Q112.126 1325.21 112.126 1316.48 Q112.126 1307.73 115.182 1303.15 Q118.26 1298.54 124.07 1298.54 Z" fill="#000000" fill-rule="nonzero" fill-opacity="1" /><path clip-path="url(#clip230)" d="M154.232 1302.24 Q150.621 1302.24 148.793 1305.81 Q146.987 1309.35 146.987 1316.48 Q146.987 1323.59 148.793 1327.15 Q150.621 1330.69 154.232 1330.69 Q157.867 1330.69 159.672 1327.15 Q161.501 1323.59 161.501 1316.48 Q161.501 1309.35 159.672 1305.81 Q157.867 1302.24 154.232 1302.24 M154.232 1298.54 Q160.042 1298.54 163.098 1303.15 Q166.177 1307.73 166.177 1316.48 Q166.177 1325.21 163.098 1329.81 Q160.042 1334.4 154.232 1334.4 Q148.422 1334.4 145.343 1329.81 Q142.288 1325.21 142.288 1316.48 Q142.288 1307.73 145.343 1303.15 Q148.422 1298.54 154.232 1298.54 Z" fill="#000000" fill-rule="nonzero" fill-opacity="1" /><path clip-path="url(#clip230)" d="M184.394 1302.24 Q180.783 1302.24 178.954 1305.81 Q177.149 1309.35 177.149 1316.48 Q177.149 1323.59 178.954 1327.15 Q180.783 1330.69 184.394 1330.69 Q188.028 1330.69 189.834 1327.15 Q191.663 1323.59 191.663 1316.48 Q191.663 1309.35 189.834 1305.81 Q188.028 1302.24 184.394 1302.24 M184.394 1298.54 Q190.204 1298.54 193.26 1303.15 Q196.339 1307.73 196.339 1316.48 Q196.339 1325.21 193.26 1329.81 Q190.204 1334.4 184.394 1334.4 Q178.584 1334.4 175.505 1329.81 Q172.45 1325.21 172.45 1316.48 Q172.45 1307.73 175.505 1303.15 Q178.584 1298.54 184.394 1298.54 Z" fill="#000000" fill-rule="nonzero" fill-opacity="1" /><path clip-path="url(#clip230)" d="M66.5939 1218.49 L54.7884 1236.94 L66.5939 1236.94 L66.5939 1218.49 M65.367 1214.42 L71.2466 1214.42 L71.2466 1236.94 L76.1772 1236.94 L76.1772 1240.83 L71.2466 1240.83 L71.2466 1248.98 L66.5939 1248.98 L66.5939 1240.83 L50.9921 1240.83 L50.9921 1236.31 L65.367 1214.42 Z" fill="#000000" fill-rule="nonzero" fill-opacity="1" /><path clip-path="url(#clip230)" d="M98.0752 1230.34 Q101.432 1231.06 103.307 1233.33 Q105.205 1235.6 105.205 1238.93 Q105.205 1244.05 101.686 1246.85 Q98.1678 1249.65 91.6864 1249.65 Q89.5104 1249.65 87.1956 1249.21 Q84.904 1248.79 82.4503 1247.94 L82.4503 1243.42 Q84.3947 1244.56 86.7095 1245.13 Q89.0243 1245.71 91.5475 1245.71 Q95.9456 1245.71 98.2372 1243.98 Q100.552 1242.24 100.552 1238.93 Q100.552 1235.88 98.3993 1234.16 Q96.2697 1232.43 92.4502 1232.43 L88.4225 1232.43 L88.4225 1228.58 L92.6354 1228.58 Q96.0845 1228.58 97.9132 1227.22 Q99.7419 1225.83 99.7419 1223.24 Q99.7419 1220.57 97.8437 1219.16 Q95.9687 1217.73 92.4502 1217.73 Q90.529 1217.73 88.3299 1218.14 Q86.1308 1218.56 83.492 1219.44 L83.492 1215.27 Q86.154 1214.53 88.4688 1214.16 Q90.8067 1213.79 92.8669 1213.79 Q98.1909 1213.79 101.293 1216.22 Q104.395 1218.63 104.395 1222.75 Q104.395 1225.62 102.751 1227.61 Q101.108 1229.58 98.0752 1230.34 Z" fill="#000000" fill-rule="nonzero" fill-opacity="1" /><path clip-path="url(#clip230)" d="M124.07 1217.5 Q120.459 1217.5 118.631 1221.06 Q116.825 1224.6 116.825 1231.73 Q116.825 1238.84 118.631 1242.4 Q120.459 1245.94 124.07 1245.94 Q127.705 1245.94 129.51 1242.4 Q131.339 1238.84 131.339 1231.73 Q131.339 1224.6 129.51 1221.06 Q127.705 1217.5 124.07 1217.5 M124.07 1213.79 Q129.881 1213.79 132.936 1218.4 Q136.015 1222.98 136.015 1231.73 Q136.015 1240.46 132.936 1245.06 Q129.881 1249.65 124.07 1249.65 Q118.26 1249.65 115.182 1245.06 Q112.126 1240.46 112.126 1231.73 Q112.126 1222.98 115.182 1218.4 Q118.26 1213.79 124.07 1213.79 Z" fill="#000000" fill-rule="nonzero" fill-opacity="1" /><path clip-path="url(#clip230)" d="M154.232 1217.5 Q150.621 1217.5 148.793 1221.06 Q146.987 1224.6 146.987 1231.73 Q146.987 1238.84 148.793 1242.4 Q150.621 1245.94 154.232 1245.94 Q157.867 1245.94 159.672 1242.4 Q161.501 1238.84 161.501 1231.73 Q161.501 1224.6 159.672 1221.06 Q157.867 1217.5 154.232 1217.5 M154.232 1213.79 Q160.042 1213.79 163.098 1218.4 Q166.177 1222.98 166.177 1231.73 Q166.177 1240.46 163.098 1245.06 Q160.042 1249.65 154.232 1249.65 Q148.422 1249.65 145.343 1245.06 Q142.288 1240.46 142.288 1231.73 Q142.288 1222.98 145.343 1218.4 Q148.422 1213.79 154.232 1213.79 Z" fill="#000000" fill-rule="nonzero" fill-opacity="1" /><path clip-path="url(#clip230)" d="M184.394 1217.5 Q180.783 1217.5 178.954 1221.06 Q177.149 1224.6 177.149 1231.73 Q177.149 1238.84 178.954 1242.4 Q180.783 1245.94 184.394 1245.94 Q188.028 1245.94 189.834 1242.4 Q191.663 1238.84 191.663 1231.73 Q191.663 1224.6 189.834 1221.06 Q188.028 1217.5 184.394 1217.5 M184.394 1213.79 Q190.204 1213.79 193.26 1218.4 Q196.339 1222.98 196.339 1231.73 Q196.339 1240.46 193.26 1245.06 Q190.204 1249.65 184.394 1249.65 Q178.584 1249.65 175.505 1245.06 Q172.45 1240.46 172.45 1231.73 Q172.45 1222.98 175.505 1218.4 Q178.584 1213.79 184.394 1213.79 Z" fill="#000000" fill-rule="nonzero" fill-opacity="1" /><path clip-path="url(#clip230)" d="M66.5939 1133.74 L54.7884 1152.19 L66.5939 1152.19 L66.5939 1133.74 M65.367 1129.67 L71.2466 1129.67 L71.2466 1152.19 L76.1772 1152.19 L76.1772 1156.08 L71.2466 1156.08 L71.2466 1164.23 L66.5939 1164.23 L66.5939 1156.08 L50.9921 1156.08 L50.9921 1151.57 L65.367 1129.67 Z" fill="#000000" fill-rule="nonzero" fill-opacity="1" /><path clip-path="url(#clip230)" d="M96.7558 1133.74 L84.9503 1152.19 L96.7558 1152.19 L96.7558 1133.74 M95.5289 1129.67 L101.409 1129.67 L101.409 1152.19 L106.339 1152.19 L106.339 1156.08 L101.409 1156.08 L101.409 1164.23 L96.7558 1164.23 L96.7558 1156.08 L81.154 1156.08 L81.154 1151.57 L95.5289 1129.67 Z" fill="#000000" fill-rule="nonzero" fill-opacity="1" /><path clip-path="url(#clip230)" d="M124.07 1132.75 Q120.459 1132.75 118.631 1136.31 Q116.825 1139.85 116.825 1146.98 Q116.825 1154.09 118.631 1157.66 Q120.459 1161.2 124.07 1161.2 Q127.705 1161.2 129.51 1157.66 Q131.339 1154.09 131.339 1146.98 Q131.339 1139.85 129.51 1136.31 Q127.705 1132.75 124.07 1132.75 M124.07 1129.04 Q129.881 1129.04 132.936 1133.65 Q136.015 1138.23 136.015 1146.98 Q136.015 1155.71 132.936 1160.32 Q129.881 1164.9 124.07 1164.9 Q118.26 1164.9 115.182 1160.32 Q112.126 1155.71 112.126 1146.98 Q112.126 1138.23 115.182 1133.65 Q118.26 1129.04 124.07 1129.04 Z" fill="#000000" fill-rule="nonzero" fill-opacity="1" /><path clip-path="url(#clip230)" d="M154.232 1132.75 Q150.621 1132.75 148.793 1136.31 Q146.987 1139.85 146.987 1146.98 Q146.987 1154.09 148.793 1157.66 Q150.621 1161.2 154.232 1161.2 Q157.867 1161.2 159.672 1157.66 Q161.501 1154.09 161.501 1146.98 Q161.501 1139.85 159.672 1136.31 Q157.867 1132.75 154.232 1132.75 M154.232 1129.04 Q160.042 1129.04 163.098 1133.65 Q166.177 1138.23 166.177 1146.98 Q166.177 1155.71 163.098 1160.32 Q160.042 1164.9 154.232 1164.9 Q148.422 1164.9 145.343 1160.32 Q142.288 1155.71 142.288 1146.98 Q142.288 1138.23 145.343 1133.65 Q148.422 1129.04 154.232 1129.04 Z" fill="#000000" fill-rule="nonzero" fill-opacity="1" /><path clip-path="url(#clip230)" d="M184.394 1132.75 Q180.783 1132.75 178.954 1136.31 Q177.149 1139.85 177.149 1146.98 Q177.149 1154.09 178.954 1157.66 Q180.783 1161.2 184.394 1161.2 Q188.028 1161.2 189.834 1157.66 Q191.663 1154.09 191.663 1146.98 Q191.663 1139.85 189.834 1136.31 Q188.028 1132.75 184.394 1132.75 M184.394 1129.04 Q190.204 1129.04 193.26 1133.65 Q196.339 1138.23 196.339 1146.98 Q196.339 1155.71 193.26 1160.32 Q190.204 1164.9 184.394 1164.9 Q178.584 1164.9 175.505 1160.32 Q172.45 1155.71 172.45 1146.98 Q172.45 1138.23 175.505 1133.65 Q178.584 1129.04 184.394 1129.04 Z" fill="#000000" fill-rule="nonzero" fill-opacity="1" /><path clip-path="url(#clip230)" d="M66.5939 1049 L54.7884 1067.45 L66.5939 1067.45 L66.5939 1049 M65.367 1044.92 L71.2466 1044.92 L71.2466 1067.45 L76.1772 1067.45 L76.1772 1071.33 L71.2466 1071.33 L71.2466 1079.48 L66.5939 1079.48 L66.5939 1071.33 L50.9921 1071.33 L50.9921 1066.82 L65.367 1044.92 Z" fill="#000000" fill-rule="nonzero" fill-opacity="1" /><path clip-path="url(#clip230)" d="M83.9549 1044.92 L102.311 1044.92 L102.311 1048.86 L88.2373 1048.86 L88.2373 1057.33 Q89.2558 1056.98 90.2743 1056.82 Q91.2928 1056.64 92.3113 1056.64 Q98.0984 1056.64 101.478 1059.81 Q104.858 1062.98 104.858 1068.39 Q104.858 1073.97 101.385 1077.08 Q97.9132 1080.15 91.5938 1080.15 Q89.4178 1080.15 87.1493 1079.78 Q84.904 1079.41 82.4966 1078.67 L82.4966 1073.97 Q84.5799 1075.11 86.8021 1075.66 Q89.0243 1076.22 91.5012 1076.22 Q95.5058 1076.22 97.8437 1074.11 Q100.182 1072.01 100.182 1068.39 Q100.182 1064.78 97.8437 1062.68 Q95.5058 1060.57 91.5012 1060.57 Q89.6262 1060.57 87.7512 1060.99 Q85.8993 1061.4 83.9549 1062.28 L83.9549 1044.92 Z" fill="#000000" fill-rule="nonzero" fill-opacity="1" /><path clip-path="url(#clip230)" d="M124.07 1048 Q120.459 1048 118.631 1051.57 Q116.825 1055.11 116.825 1062.24 Q116.825 1069.34 118.631 1072.91 Q120.459 1076.45 124.07 1076.45 Q127.705 1076.45 129.51 1072.91 Q131.339 1069.34 131.339 1062.24 Q131.339 1055.11 129.51 1051.57 Q127.705 1048 124.07 1048 M124.07 1044.3 Q129.881 1044.3 132.936 1048.9 Q136.015 1053.49 136.015 1062.24 Q136.015 1070.96 132.936 1075.57 Q129.881 1080.15 124.07 1080.15 Q118.26 1080.15 115.182 1075.57 Q112.126 1070.96 112.126 1062.24 Q112.126 1053.49 115.182 1048.9 Q118.26 1044.3 124.07 1044.3 Z" fill="#000000" fill-rule="nonzero" fill-opacity="1" /><path clip-path="url(#clip230)" d="M154.232 1048 Q150.621 1048 148.793 1051.57 Q146.987 1055.11 146.987 1062.24 Q146.987 1069.34 148.793 1072.91 Q150.621 1076.45 154.232 1076.45 Q157.867 1076.45 159.672 1072.91 Q161.501 1069.34 161.501 1062.24 Q161.501 1055.11 159.672 1051.57 Q157.867 1048 154.232 1048 M154.232 1044.3 Q160.042 1044.3 163.098 1048.9 Q166.177 1053.49 166.177 1062.24 Q166.177 1070.96 163.098 1075.57 Q160.042 1080.15 154.232 1080.15 Q148.422 1080.15 145.343 1075.57 Q142.288 1070.96 142.288 1062.24 Q142.288 1053.49 145.343 1048.9 Q148.422 1044.3 154.232 1044.3 Z" fill="#000000" fill-rule="nonzero" fill-opacity="1" /><path clip-path="url(#clip230)" d="M184.394 1048 Q180.783 1048 178.954 1051.57 Q177.149 1055.11 177.149 1062.24 Q177.149 1069.34 178.954 1072.91 Q180.783 1076.45 184.394 1076.45 Q188.028 1076.45 189.834 1072.91 Q191.663 1069.34 191.663 1062.24 Q191.663 1055.11 189.834 1051.57 Q188.028 1048 184.394 1048 M184.394 1044.3 Q190.204 1044.3 193.26 1048.9 Q196.339 1053.49 196.339 1062.24 Q196.339 1070.96 193.26 1075.57 Q190.204 1080.15 184.394 1080.15 Q178.584 1080.15 175.505 1075.57 Q172.45 1070.96 172.45 1062.24 Q172.45 1053.49 175.505 1048.9 Q178.584 1044.3 184.394 1044.3 Z" fill="#000000" fill-rule="nonzero" fill-opacity="1" /><path clip-path="url(#clip230)" d="M66.5939 964.249 L54.7884 982.698 L66.5939 982.698 L66.5939 964.249 M65.367 960.175 L71.2466 960.175 L71.2466 982.698 L76.1772 982.698 L76.1772 986.587 L71.2466 986.587 L71.2466 994.735 L66.5939 994.735 L66.5939 986.587 L50.9921 986.587 L50.9921 982.073 L65.367 960.175 Z" fill="#000000" fill-rule="nonzero" fill-opacity="1" /><path clip-path="url(#clip230)" d="M94.4873 975.592 Q91.3391 975.592 89.4873 977.745 Q87.6586 979.897 87.6586 983.647 Q87.6586 987.374 89.4873 989.55 Q91.3391 991.703 94.4873 991.703 Q97.6354 991.703 99.4641 989.55 Q101.316 987.374 101.316 983.647 Q101.316 979.897 99.4641 977.745 Q97.6354 975.592 94.4873 975.592 M103.77 960.939 L103.77 965.198 Q102.01 964.365 100.205 963.925 Q98.4224 963.485 96.6632 963.485 Q92.0336 963.485 89.5799 966.61 Q87.1493 969.735 86.8021 976.055 Q88.1679 974.041 90.228 972.976 Q92.2882 971.888 94.765 971.888 Q99.9733 971.888 102.983 975.059 Q106.015 978.208 106.015 983.647 Q106.015 988.971 102.867 992.189 Q99.7187 995.407 94.4873 995.407 Q88.4919 995.407 85.3206 990.823 Q82.1494 986.217 82.1494 977.49 Q82.1494 969.296 86.0382 964.435 Q89.9271 959.55 96.478 959.55 Q98.2372 959.55 100.02 959.898 Q101.825 960.245 103.77 960.939 Z" fill="#000000" fill-rule="nonzero" fill-opacity="1" /><path clip-path="url(#clip230)" d="M124.07 963.254 Q120.459 963.254 118.631 966.819 Q116.825 970.36 116.825 977.49 Q116.825 984.596 118.631 988.161 Q120.459 991.703 124.07 991.703 Q127.705 991.703 129.51 988.161 Q131.339 984.596 131.339 977.49 Q131.339 970.36 129.51 966.819 Q127.705 963.254 124.07 963.254 M124.07 959.55 Q129.881 959.55 132.936 964.157 Q136.015 968.74 136.015 977.49 Q136.015 986.217 132.936 990.823 Q129.881 995.407 124.07 995.407 Q118.26 995.407 115.182 990.823 Q112.126 986.217 112.126 977.49 Q112.126 968.74 115.182 964.157 Q118.26 959.55 124.07 959.55 Z" fill="#000000" fill-rule="nonzero" fill-opacity="1" /><path clip-path="url(#clip230)" d="M154.232 963.254 Q150.621 963.254 148.793 966.819 Q146.987 970.36 146.987 977.49 Q146.987 984.596 148.793 988.161 Q150.621 991.703 154.232 991.703 Q157.867 991.703 159.672 988.161 Q161.501 984.596 161.501 977.49 Q161.501 970.36 159.672 966.819 Q157.867 963.254 154.232 963.254 M154.232 959.55 Q160.042 959.55 163.098 964.157 Q166.177 968.74 166.177 977.49 Q166.177 986.217 163.098 990.823 Q160.042 995.407 154.232 995.407 Q148.422 995.407 145.343 990.823 Q142.288 986.217 142.288 977.49 Q142.288 968.74 145.343 964.157 Q148.422 959.55 154.232 959.55 Z" fill="#000000" fill-rule="nonzero" fill-opacity="1" /><path clip-path="url(#clip230)" d="M184.394 963.254 Q180.783 963.254 178.954 966.819 Q177.149 970.36 177.149 977.49 Q177.149 984.596 178.954 988.161 Q180.783 991.703 184.394 991.703 Q188.028 991.703 189.834 988.161 Q191.663 984.596 191.663 977.49 Q191.663 970.36 189.834 966.819 Q188.028 963.254 184.394 963.254 M184.394 959.55 Q190.204 959.55 193.26 964.157 Q196.339 968.74 196.339 977.49 Q196.339 986.217 193.26 990.823 Q190.204 995.407 184.394 995.407 Q178.584 995.407 175.505 990.823 Q172.45 986.217 172.45 977.49 Q172.45 968.74 175.505 964.157 Q178.584 959.55 184.394 959.55 Z" fill="#000000" fill-rule="nonzero" fill-opacity="1" /><path clip-path="url(#clip230)" d="M1130.5 820.677 L1130.5 825.654 Q1128.24 824.41 1125.95 823.802 Q1123.7 823.165 1121.38 823.165 Q1116.2 823.165 1113.34 826.464 Q1110.47 829.734 1110.47 835.665 Q1110.47 841.597 1113.34 844.896 Q1116.2 848.165 1121.38 848.165 Q1123.7 848.165 1125.95 847.558 Q1128.24 846.921 1130.5 845.677 L1130.5 850.596 Q1128.27 851.637 1125.87 852.158 Q1123.49 852.679 1120.8 852.679 Q1113.48 852.679 1109.17 848.078 Q1104.86 843.478 1104.86 835.665 Q1104.86 827.737 1109.2 823.194 Q1113.57 818.652 1121.15 818.652 Q1123.61 818.652 1125.95 819.172 Q1128.3 819.664 1130.5 820.677 Z" fill="#000000" fill-rule="nonzero" fill-opacity="1" /><path clip-path="url(#clip230)" d="M1152.31 823.165 Q1148.03 823.165 1145.54 826.522 Q1143.05 829.849 1143.05 835.665 Q1143.05 841.481 1145.51 844.838 Q1148 848.165 1152.31 848.165 Q1156.57 848.165 1159.06 844.809 Q1161.54 841.452 1161.54 835.665 Q1161.54 829.907 1159.06 826.551 Q1156.57 823.165 1152.31 823.165 M1152.31 818.652 Q1159.26 818.652 1163.22 823.165 Q1167.19 827.679 1167.19 835.665 Q1167.19 843.622 1163.22 848.165 Q1159.26 852.679 1152.31 852.679 Q1145.34 852.679 1141.38 848.165 Q1137.44 843.622 1137.44 835.665 Q1137.44 827.679 1141.38 823.165 Q1145.34 818.652 1152.31 818.652 Z" fill="#000000" fill-rule="nonzero" fill-opacity="1" /><path clip-path="url(#clip230)" d="M1202.95 832.28 L1202.95 851.84 L1197.63 851.84 L1197.63 832.454 Q1197.63 827.853 1195.83 825.567 Q1194.04 823.281 1190.45 823.281 Q1186.14 823.281 1183.65 826.03 Q1181.16 828.779 1181.16 833.524 L1181.16 851.84 L1175.81 851.84 L1175.81 819.433 L1181.16 819.433 L1181.16 824.467 Q1183.07 821.545 1185.65 820.098 Q1188.25 818.652 1191.64 818.652 Q1197.22 818.652 1200.09 822.124 Q1202.95 825.567 1202.95 832.28 Z" fill="#000000" fill-rule="nonzero" fill-opacity="1" /><path clip-path="url(#clip230)" d="M1234.23 820.388 L1234.23 825.422 Q1231.97 824.265 1229.54 823.686 Q1227.11 823.108 1224.51 823.108 Q1220.54 823.108 1218.55 824.323 Q1216.58 825.538 1216.58 827.969 Q1216.58 829.82 1218 830.891 Q1219.41 831.933 1223.7 832.888 L1225.52 833.293 Q1231.19 834.508 1233.56 836.736 Q1235.96 838.935 1235.96 842.899 Q1235.96 847.413 1232.38 850.046 Q1228.82 852.679 1222.57 852.679 Q1219.96 852.679 1217.13 852.158 Q1214.32 851.666 1211.2 850.654 L1211.2 845.156 Q1214.15 846.69 1217.01 847.471 Q1219.88 848.223 1222.68 848.223 Q1226.45 848.223 1228.47 846.95 Q1230.5 845.648 1230.5 843.304 Q1230.5 841.134 1229.02 839.977 Q1227.57 838.819 1222.63 837.749 L1220.77 837.315 Q1215.83 836.273 1213.63 834.132 Q1211.43 831.962 1211.43 828.2 Q1211.43 823.628 1214.67 821.14 Q1217.91 818.652 1223.87 818.652 Q1226.82 818.652 1229.43 819.086 Q1232.03 819.52 1234.23 820.388 Z" fill="#000000" fill-rule="nonzero" fill-opacity="1" /><path clip-path="url(#clip230)" d="M1243.89 839.051 L1243.89 819.433 L1249.22 819.433 L1249.22 838.848 Q1249.22 843.449 1251.01 845.764 Q1252.8 848.05 1256.39 848.05 Q1260.7 848.05 1263.19 845.301 Q1265.71 842.552 1265.71 837.807 L1265.71 819.433 L1271.03 819.433 L1271.03 851.84 L1265.71 851.84 L1265.71 846.863 Q1263.77 849.815 1261.2 851.261 Q1258.65 852.679 1255.26 852.679 Q1249.68 852.679 1246.79 849.207 Q1243.89 845.735 1243.89 839.051 M1257.29 818.652 L1257.29 818.652 Z" fill="#000000" fill-rule="nonzero" fill-opacity="1" /><path clip-path="url(#clip230)" d="M1307.23 825.654 Q1309.23 822.066 1312.01 820.359 Q1314.78 818.652 1318.55 818.652 Q1323.61 818.652 1326.36 822.211 Q1329.11 825.741 1329.11 832.28 L1329.11 851.84 L1323.75 851.84 L1323.75 832.454 Q1323.75 827.795 1322.1 825.538 Q1320.46 823.281 1317.07 823.281 Q1312.93 823.281 1310.53 826.03 Q1308.13 828.779 1308.13 833.524 L1308.13 851.84 L1302.78 851.84 L1302.78 832.454 Q1302.78 827.766 1301.13 825.538 Q1299.48 823.281 1296.03 823.281 Q1291.95 823.281 1289.55 826.059 Q1287.15 828.808 1287.15 833.524 L1287.15 851.84 L1281.8 851.84 L1281.8 819.433 L1287.15 819.433 L1287.15 824.467 Q1288.97 821.487 1291.52 820.069 Q1294.07 818.652 1297.57 818.652 Q1301.1 818.652 1303.56 820.445 Q1306.05 822.239 1307.23 825.654 Z" fill="#000000" fill-rule="nonzero" fill-opacity="1" /><path clip-path="url(#clip230)" d="M1344.88 846.979 L1344.88 864.166 L1339.52 864.166 L1339.52 819.433 L1344.88 819.433 L1344.88 824.352 Q1346.55 821.458 1349.1 820.069 Q1351.68 818.652 1355.23 818.652 Q1361.14 818.652 1364.81 823.339 Q1368.52 828.026 1368.52 835.665 Q1368.52 843.304 1364.81 847.992 Q1361.14 852.679 1355.23 852.679 Q1351.68 852.679 1349.1 851.29 Q1346.55 849.872 1344.88 846.979 M1362.99 835.665 Q1362.99 829.792 1360.56 826.464 Q1358.16 823.108 1353.93 823.108 Q1349.71 823.108 1347.28 826.464 Q1344.88 829.792 1344.88 835.665 Q1344.88 841.539 1347.28 844.896 Q1349.71 848.223 1353.93 848.223 Q1358.16 848.223 1360.56 844.896 Q1362.99 841.539 1362.99 835.665 Z" fill="#000000" fill-rule="nonzero" fill-opacity="1" /><path clip-path="url(#clip230)" d="M1382.61 810.231 L1382.61 819.433 L1393.57 819.433 L1393.57 823.57 L1382.61 823.57 L1382.61 841.163 Q1382.61 845.127 1383.68 846.256 Q1384.78 847.384 1388.11 847.384 L1393.57 847.384 L1393.57 851.84 L1388.11 851.84 Q1381.94 851.84 1379.6 849.554 Q1377.25 847.239 1377.25 841.163 L1377.25 823.57 L1373.35 823.57 L1373.35 819.433 L1377.25 819.433 L1377.25 810.231 L1382.61 810.231 Z" fill="#000000" fill-rule="nonzero" fill-opacity="1" /><path clip-path="url(#clip230)" d="M1400.58 819.433 L1405.9 819.433 L1405.9 851.84 L1400.58 851.84 L1400.58 819.433 M1400.58 806.817 L1405.9 806.817 L1405.9 813.559 L1400.58 813.559 L1400.58 806.817 Z" fill="#000000" fill-rule="nonzero" fill-opacity="1" /><path clip-path="url(#clip230)" d="M1429.6 823.165 Q1425.32 823.165 1422.83 826.522 Q1420.34 829.849 1420.34 835.665 Q1420.34 841.481 1422.8 844.838 Q1425.29 848.165 1429.6 848.165 Q1433.85 848.165 1436.34 844.809 Q1438.83 841.452 1438.83 835.665 Q1438.83 829.907 1436.34 826.551 Q1433.85 823.165 1429.6 823.165 M1429.6 818.652 Q1436.54 818.652 1440.51 823.165 Q1444.47 827.679 1444.47 835.665 Q1444.47 843.622 1440.51 848.165 Q1436.54 852.679 1429.6 852.679 Q1422.62 852.679 1418.66 848.165 Q1414.73 843.622 1414.73 835.665 Q1414.73 827.679 1418.66 823.165 Q1422.62 818.652 1429.6 818.652 Z" fill="#000000" fill-rule="nonzero" fill-opacity="1" /><path clip-path="url(#clip230)" d="M1480.23 832.28 L1480.23 851.84 L1474.91 851.84 L1474.91 832.454 Q1474.91 827.853 1473.12 825.567 Q1471.32 823.281 1467.73 823.281 Q1463.42 823.281 1460.93 826.03 Q1458.45 828.779 1458.45 833.524 L1458.45 851.84 L1453.09 851.84 L1453.09 819.433 L1458.45 819.433 L1458.45 824.467 Q1460.36 821.545 1462.93 820.098 Q1465.54 818.652 1468.92 818.652 Q1474.51 818.652 1477.37 822.124 Q1480.23 825.567 1480.23 832.28 Z" fill="#000000" fill-rule="nonzero" fill-opacity="1" /><polyline clip-path="url(#clip233)" style="stroke:#009af9; stroke-linecap:round; stroke-linejoin:round; stroke-width:4; stroke-opacity:1; fill:none" points="292.35,1442.47 342.36,1454.36 392.37,1470.03 442.38,1443.65 492.39,1404.19 542.4,1396.28 592.409,1410.54 642.419,1388.87 692.429,1385.96 742.439,1389.16 792.449,1370.7 842.459,1294.16 892.468,1265.82 942.478,1259.83 992.488,1235.52 1042.5,1243.87 1092.51,1225.33 1142.52,1229.87 1192.53,1231.43 1242.54,1238.18 1292.55,1237.61 1342.56,1257.33 1392.57,1271.25 1442.58,1264.52 1492.59,1246.2 1542.6,1197.56 1592.61,1151.43 1642.62,1153.46 1692.63,1112.34 1742.64,1110.16 1792.65,1101.53 1842.66,1066.47 1892.67,1061.77 1942.68,1016.24 1992.69,1005.02 2042.69,940.226 2092.7,922.614 2142.71,928.08 2192.72,946.385 2242.73,967.074 2292.74,998.718 "/>
<polyline clip-path="url(#clip233)" style="stroke:#e26f46; stroke-linecap:round; stroke-linejoin:round; stroke-width:4; stroke-opacity:1; fill:none" points="292.35,1442.47 342.36,1446.61 392.37,1444.64 442.38,1447.48 492.39,1447.54 542.4,1443.05 592.409,1427.82 642.419,1423.96 692.429,1419.5 742.439,1420.5 792.449,1421.12 842.459,1419.23 892.468,1419.18 942.478,1415.27 992.488,1398.89 1042.5,1386.72 1092.51,1378.82 1142.52,1385.56 1192.53,1381.46 1242.54,1369.47 1292.55,1363.16 1342.56,1358.35 1392.57,1350.38 1442.58,1343.55 1492.59,1343.44 1542.6,1350.29 1592.61,1339.98 1642.62,1347.21 1692.63,1317.47 1742.64,1309.13 1792.65,1301.56 1842.66,1287.47 1892.67,1279.07 1942.68,1262.35 1992.69,1252.23 2042.69,1237.14 2092.7,1204.74 2142.71,1198.47 2192.72,1191.49 2242.73,1181.66 2292.74,1189.1 "/>
<path clip-path="url(#clip230)" d="M303.019 1081.05 L922.698 1081.05 L922.698 925.534 L303.019 925.534  Z" fill="#ffffff" fill-rule="evenodd" fill-opacity="1"/>
<polyline clip-path="url(#clip230)" style="stroke:#000000; stroke-linecap:round; stroke-linejoin:round; stroke-width:4; stroke-opacity:1; fill:none" points="303.019,1081.05 922.698,1081.05 922.698,925.534 303.019,925.534 303.019,1081.05 "/>
<polyline clip-path="url(#clip230)" style="stroke:#009af9; stroke-linecap:round; stroke-linejoin:round; stroke-width:4; stroke-opacity:1; fill:none" points="326.579,977.374 467.94,977.374 "/>
<path clip-path="url(#clip230)" d="M505.343 997.061 Q503.538 1001.69 501.825 1003.1 Q500.112 1004.52 497.241 1004.52 L493.839 1004.52 L493.839 1000.95 L496.339 1000.95 Q498.098 1000.95 499.07 1000.12 Q500.042 999.284 501.223 996.182 L501.987 994.237 L491.501 968.728 L496.015 968.728 L504.116 989.006 L512.218 968.728 L516.732 968.728 L505.343 997.061 Z" fill="#000000" fill-rule="nonzero" fill-opacity="1" /><path clip-path="url(#clip230)" d="M524.024 990.719 L531.663 990.719 L531.663 964.353 L523.352 966.02 L523.352 961.761 L531.616 960.094 L536.292 960.094 L536.292 990.719 L543.931 990.719 L543.931 994.654 L524.024 994.654 L524.024 990.719 Z" fill="#000000" fill-rule="nonzero" fill-opacity="1" /><polyline clip-path="url(#clip230)" style="stroke:#e26f46; stroke-linecap:round; stroke-linejoin:round; stroke-width:4; stroke-opacity:1; fill:none" points="326.579,1029.21 467.94,1029.21 "/>
<path clip-path="url(#clip230)" d="M510.274 1033.55 Q510.274 1028.86 508.329 1026.19 Q506.408 1023.51 503.028 1023.51 Q499.649 1023.51 497.704 1026.19 Q495.783 1028.86 495.783 1033.55 Q495.783 1038.25 497.704 1040.94 Q499.649 1043.6 503.028 1043.6 Q506.408 1043.6 508.329 1040.94 Q510.274 1038.25 510.274 1033.55 M495.783 1024.5 Q497.126 1022.19 499.163 1021.08 Q501.223 1019.94 504.07 1019.94 Q508.792 1019.94 511.732 1023.69 Q514.695 1027.44 514.695 1033.55 Q514.695 1039.67 511.732 1043.42 Q508.792 1047.17 504.07 1047.17 Q501.223 1047.17 499.163 1046.05 Q497.126 1044.92 495.783 1042.61 L495.783 1046.49 L491.501 1046.49 L491.501 1010.48 L495.783 1010.48 L495.783 1024.5 Z" fill="#000000" fill-rule="nonzero" fill-opacity="1" /><path clip-path="url(#clip230)" d="M533.538 1033.46 Q528.375 1033.46 526.385 1034.64 Q524.394 1035.82 524.394 1038.67 Q524.394 1040.94 525.876 1042.28 Q527.38 1043.6 529.95 1043.6 Q533.491 1043.6 535.621 1041.1 Q537.774 1038.58 537.774 1034.41 L537.774 1033.46 L533.538 1033.46 M542.033 1031.7 L542.033 1046.49 L537.774 1046.49 L537.774 1042.56 Q536.315 1044.92 534.139 1046.05 Q531.963 1047.17 528.815 1047.17 Q524.834 1047.17 522.473 1044.94 Q520.135 1042.7 520.135 1038.95 Q520.135 1034.57 523.051 1032.35 Q525.991 1030.13 531.801 1030.13 L537.774 1030.13 L537.774 1029.71 Q537.774 1026.77 535.829 1025.17 Q533.908 1023.55 530.413 1023.55 Q528.19 1023.55 526.084 1024.09 Q523.977 1024.62 522.033 1025.68 L522.033 1021.75 Q524.371 1020.85 526.57 1020.41 Q528.769 1019.94 530.852 1019.94 Q536.477 1019.94 539.255 1022.86 Q542.033 1025.78 542.033 1031.7 Z" fill="#000000" fill-rule="nonzero" fill-opacity="1" /><path clip-path="url(#clip230)" d="M569.463 1021.56 L569.463 1025.55 Q567.658 1024.55 565.829 1024.06 Q564.023 1023.55 562.172 1023.55 Q558.028 1023.55 555.736 1026.19 Q553.445 1028.81 553.445 1033.55 Q553.445 1038.3 555.736 1040.94 Q558.028 1043.55 562.172 1043.55 Q564.023 1043.55 565.829 1043.07 Q567.658 1042.56 569.463 1041.56 L569.463 1045.5 Q567.681 1046.33 565.76 1046.75 Q563.861 1047.17 561.709 1047.17 Q555.852 1047.17 552.403 1043.48 Q548.954 1039.8 548.954 1033.55 Q548.954 1027.21 552.426 1023.58 Q555.922 1019.94 561.986 1019.94 Q563.954 1019.94 565.829 1020.36 Q567.704 1020.75 569.463 1021.56 Z" fill="#000000" fill-rule="nonzero" fill-opacity="1" /><path clip-path="url(#clip230)" d="M576.709 1010.48 L580.991 1010.48 L580.991 1031.75 L593.699 1020.57 L599.139 1020.57 L585.389 1032.7 L599.718 1046.49 L594.162 1046.49 L580.991 1033.83 L580.991 1046.49 L576.709 1046.49 L576.709 1010.48 Z" fill="#000000" fill-rule="nonzero" fill-opacity="1" /><path clip-path="url(#clip230)" d="M601.847 1020.57 L606.107 1020.57 L611.431 1040.8 L616.731 1020.57 L621.755 1020.57 L627.079 1040.8 L632.38 1020.57 L636.639 1020.57 L629.856 1046.49 L624.833 1046.49 L619.255 1025.24 L613.653 1046.49 L608.63 1046.49 L601.847 1020.57 Z" fill="#000000" fill-rule="nonzero" fill-opacity="1" /><path clip-path="url(#clip230)" d="M654.879 1033.46 Q649.717 1033.46 647.727 1034.64 Q645.736 1035.82 645.736 1038.67 Q645.736 1040.94 647.217 1042.28 Q648.722 1043.6 651.291 1043.6 Q654.833 1043.6 656.963 1041.1 Q659.116 1038.58 659.116 1034.41 L659.116 1033.46 L654.879 1033.46 M663.375 1031.7 L663.375 1046.49 L659.116 1046.49 L659.116 1042.56 Q657.657 1044.92 655.481 1046.05 Q653.305 1047.17 650.157 1047.17 Q646.176 1047.17 643.815 1044.94 Q641.477 1042.7 641.477 1038.95 Q641.477 1034.57 644.393 1032.35 Q647.333 1030.13 653.143 1030.13 L659.116 1030.13 L659.116 1029.71 Q659.116 1026.77 657.171 1025.17 Q655.25 1023.55 651.754 1023.55 Q649.532 1023.55 647.426 1024.09 Q645.319 1024.62 643.375 1025.68 L643.375 1021.75 Q645.713 1020.85 647.912 1020.41 Q650.111 1019.94 652.194 1019.94 Q657.819 1019.94 660.597 1022.86 Q663.375 1025.78 663.375 1031.7 Z" fill="#000000" fill-rule="nonzero" fill-opacity="1" /><path clip-path="url(#clip230)" d="M687.171 1024.55 Q686.453 1024.13 685.597 1023.95 Q684.764 1023.74 683.745 1023.74 Q680.134 1023.74 678.19 1026.1 Q676.268 1028.44 676.268 1032.84 L676.268 1046.49 L671.986 1046.49 L671.986 1020.57 L676.268 1020.57 L676.268 1024.6 Q677.611 1022.23 679.764 1021.1 Q681.916 1019.94 684.995 1019.94 Q685.435 1019.94 685.967 1020.01 Q686.5 1020.06 687.148 1020.17 L687.171 1024.55 Z" fill="#000000" fill-rule="nonzero" fill-opacity="1" /><path clip-path="url(#clip230)" d="M707.865 1024.5 L707.865 1010.48 L712.125 1010.48 L712.125 1046.49 L707.865 1046.49 L707.865 1042.61 Q706.523 1044.92 704.463 1046.05 Q702.425 1047.17 699.555 1047.17 Q694.856 1047.17 691.893 1043.42 Q688.953 1039.67 688.953 1033.55 Q688.953 1027.44 691.893 1023.69 Q694.856 1019.94 699.555 1019.94 Q702.425 1019.94 704.463 1021.08 Q706.523 1022.19 707.865 1024.5 M693.351 1033.55 Q693.351 1038.25 695.273 1040.94 Q697.217 1043.6 700.597 1043.6 Q703.976 1043.6 705.921 1040.94 Q707.865 1038.25 707.865 1033.55 Q707.865 1028.86 705.921 1026.19 Q703.976 1023.51 700.597 1023.51 Q697.217 1023.51 695.273 1026.19 Q693.351 1028.86 693.351 1033.55 Z" fill="#000000" fill-rule="nonzero" fill-opacity="1" /><path clip-path="url(#clip230)" d="M735.967 1010.48 L740.226 1010.48 L740.226 1046.49 L735.967 1046.49 L735.967 1010.48 Z" fill="#000000" fill-rule="nonzero" fill-opacity="1" /><path clip-path="url(#clip230)" d="M759.184 1023.55 Q755.759 1023.55 753.768 1026.24 Q751.777 1028.9 751.777 1033.55 Q751.777 1038.21 753.745 1040.89 Q755.735 1043.55 759.184 1043.55 Q762.587 1043.55 764.578 1040.87 Q766.569 1038.18 766.569 1033.55 Q766.569 1028.95 764.578 1026.26 Q762.587 1023.55 759.184 1023.55 M759.184 1019.94 Q764.74 1019.94 767.911 1023.55 Q771.083 1027.17 771.083 1033.55 Q771.083 1039.92 767.911 1043.55 Q764.74 1047.17 759.184 1047.17 Q753.606 1047.17 750.434 1043.55 Q747.286 1039.92 747.286 1033.55 Q747.286 1027.17 750.434 1023.55 Q753.606 1019.94 759.184 1019.94 Z" fill="#000000" fill-rule="nonzero" fill-opacity="1" /><path clip-path="url(#clip230)" d="M788.189 1023.55 Q784.763 1023.55 782.772 1026.24 Q780.782 1028.9 780.782 1033.55 Q780.782 1038.21 782.749 1040.89 Q784.74 1043.55 788.189 1043.55 Q791.592 1043.55 793.582 1040.87 Q795.573 1038.18 795.573 1033.55 Q795.573 1028.95 793.582 1026.26 Q791.592 1023.55 788.189 1023.55 M788.189 1019.94 Q793.744 1019.94 796.916 1023.55 Q800.087 1027.17 800.087 1033.55 Q800.087 1039.92 796.916 1043.55 Q793.744 1047.17 788.189 1047.17 Q782.61 1047.17 779.439 1043.55 Q776.291 1039.92 776.291 1033.55 Q776.291 1027.17 779.439 1023.55 Q782.61 1019.94 788.189 1019.94 Z" fill="#000000" fill-rule="nonzero" fill-opacity="1" /><path clip-path="url(#clip230)" d="M806.985 1010.48 L811.267 1010.48 L811.267 1031.75 L823.976 1020.57 L829.416 1020.57 L815.666 1032.7 L829.994 1046.49 L824.439 1046.49 L811.267 1033.83 L811.267 1046.49 L806.985 1046.49 L806.985 1010.48 Z" fill="#000000" fill-rule="nonzero" fill-opacity="1" /><path clip-path="url(#clip230)" d="M834.601 1020.57 L838.86 1020.57 L838.86 1046.49 L834.601 1046.49 L834.601 1020.57 M834.601 1010.48 L838.86 1010.48 L838.86 1015.87 L834.601 1015.87 L834.601 1010.48 Z" fill="#000000" fill-rule="nonzero" fill-opacity="1" /><path clip-path="url(#clip230)" d="M869.323 1030.85 L869.323 1046.49 L865.064 1046.49 L865.064 1030.98 Q865.064 1027.3 863.628 1025.48 Q862.193 1023.65 859.323 1023.65 Q855.874 1023.65 853.883 1025.85 Q851.892 1028.05 851.892 1031.84 L851.892 1046.49 L847.61 1046.49 L847.61 1020.57 L851.892 1020.57 L851.892 1024.6 Q853.42 1022.26 855.48 1021.1 Q857.564 1019.94 860.272 1019.94 Q864.739 1019.94 867.031 1022.72 Q869.323 1025.48 869.323 1030.85 Z" fill="#000000" fill-rule="nonzero" fill-opacity="1" /><path clip-path="url(#clip230)" d="M894.878 1033.23 Q894.878 1028.6 892.957 1026.05 Q891.059 1023.51 887.61 1023.51 Q884.184 1023.51 882.262 1026.05 Q880.364 1028.6 880.364 1033.23 Q880.364 1037.84 882.262 1040.38 Q884.184 1042.93 887.61 1042.93 Q891.059 1042.93 892.957 1040.38 Q894.878 1037.84 894.878 1033.23 M899.137 1043.28 Q899.137 1049.9 896.198 1053.11 Q893.258 1056.36 887.193 1056.36 Q884.948 1056.36 882.957 1056.01 Q880.966 1055.68 879.091 1054.99 L879.091 1050.85 Q880.966 1051.86 882.795 1052.35 Q884.624 1052.84 886.522 1052.84 Q890.712 1052.84 892.795 1050.64 Q894.878 1048.46 894.878 1044.04 L894.878 1041.93 Q893.559 1044.23 891.499 1045.36 Q889.438 1046.49 886.568 1046.49 Q881.8 1046.49 878.883 1042.86 Q875.966 1039.23 875.966 1033.23 Q875.966 1027.21 878.883 1023.58 Q881.8 1019.94 886.568 1019.94 Q889.438 1019.94 891.499 1021.08 Q893.559 1022.21 894.878 1024.5 L894.878 1020.57 L899.137 1020.57 L899.137 1043.28 Z" fill="#000000" fill-rule="nonzero" fill-opacity="1" /></svg>
