<?xml version="1.0" encoding="utf-8"?>
<svg xmlns="http://www.w3.org/2000/svg" xmlns:xlink="http://www.w3.org/1999/xlink" width="600" height="400" viewBox="0 0 2400 1600">
<defs>
  <clipPath id="clip410">
    <rect x="0" y="0" width="2400" height="1600"/>
  </clipPath>
</defs>
<path clip-path="url(#clip410)" d="M0 1600 L2400 1600 L2400 0 L0 0  Z" fill="#ffffff" fill-rule="evenodd" fill-opacity="1"/>
<defs>
  <clipPath id="clip411">
    <rect x="480" y="0" width="1681" height="1600"/>
  </clipPath>
</defs>
<path clip-path="url(#clip410)" d="M294.033 1423.18 L2352.76 1423.18 L2352.76 47.2441 L294.033 47.2441  Z" fill="#ffffff" fill-rule="evenodd" fill-opacity="1"/>
<defs>
  <clipPath id="clip412">
    <rect x="294" y="47" width="2060" height="1377"/>
  </clipPath>
</defs>
<polyline clip-path="url(#clip412)" style="stroke:#000000; stroke-linecap:round; stroke-linejoin:round; stroke-width:2; stroke-opacity:0.1; fill:none" points="740.737,1423.18 740.737,47.2441 "/>
<polyline clip-path="url(#clip412)" style="stroke:#000000; stroke-linecap:round; stroke-linejoin:round; stroke-width:2; stroke-opacity:0.1; fill:none" points="1226.28,1423.18 1226.28,47.2441 "/>
<polyline clip-path="url(#clip412)" style="stroke:#000000; stroke-linecap:round; stroke-linejoin:round; stroke-width:2; stroke-opacity:0.1; fill:none" points="1711.83,1423.18 1711.83,47.2441 "/>
<polyline clip-path="url(#clip412)" style="stroke:#000000; stroke-linecap:round; stroke-linejoin:round; stroke-width:2; stroke-opacity:0.1; fill:none" points="2197.38,1423.18 2197.38,47.2441 "/>
<polyline clip-path="url(#clip412)" style="stroke:#000000; stroke-linecap:round; stroke-linejoin:round; stroke-width:2; stroke-opacity:0.1; fill:none" points="294.033,1217.23 2352.76,1217.23 "/>
<polyline clip-path="url(#clip412)" style="stroke:#000000; stroke-linecap:round; stroke-linejoin:round; stroke-width:2; stroke-opacity:0.1; fill:none" points="294.033,963.411 2352.76,963.411 "/>
<polyline clip-path="url(#clip412)" style="stroke:#000000; stroke-linecap:round; stroke-linejoin:round; stroke-width:2; stroke-opacity:0.1; fill:none" points="294.033,709.591 2352.76,709.591 "/>
<polyline clip-path="url(#clip412)" style="stroke:#000000; stroke-linecap:round; stroke-linejoin:round; stroke-width:2; stroke-opacity:0.1; fill:none" points="294.033,455.771 2352.76,455.771 "/>
<polyline clip-path="url(#clip412)" style="stroke:#000000; stroke-linecap:round; stroke-linejoin:round; stroke-width:2; stroke-opacity:0.1; fill:none" points="294.033,201.951 2352.76,201.951 "/>
<polyline clip-path="url(#clip410)" style="stroke:#000000; stroke-linecap:round; stroke-linejoin:round; stroke-width:4; stroke-opacity:1; fill:none" points="294.033,1423.18 2352.76,1423.18 "/>
<polyline clip-path="url(#clip410)" style="stroke:#000000; stroke-linecap:round; stroke-linejoin:round; stroke-width:4; stroke-opacity:1; fill:none" points="740.737,1423.18 740.737,1404.28 "/>
<polyline clip-path="url(#clip410)" style="stroke:#000000; stroke-linecap:round; stroke-linejoin:round; stroke-width:4; stroke-opacity:1; fill:none" points="1226.28,1423.18 1226.28,1404.28 "/>
<polyline clip-path="url(#clip410)" style="stroke:#000000; stroke-linecap:round; stroke-linejoin:round; stroke-width:4; stroke-opacity:1; fill:none" points="1711.83,1423.18 1711.83,1404.28 "/>
<polyline clip-path="url(#clip410)" style="stroke:#000000; stroke-linecap:round; stroke-linejoin:round; stroke-width:4; stroke-opacity:1; fill:none" points="2197.38,1423.18 2197.38,1404.28 "/>
<path clip-path="url(#clip410)" d="M731.014 1451.02 L749.371 1451.02 L749.371 1454.96 L735.297 1454.96 L735.297 1463.43 Q736.315 1463.08 737.334 1462.92 Q738.352 1462.73 739.371 1462.73 Q745.158 1462.73 748.538 1465.9 Q751.917 1469.08 751.917 1474.49 Q751.917 1480.07 748.445 1483.17 Q744.973 1486.25 738.653 1486.25 Q736.477 1486.25 734.209 1485.88 Q731.964 1485.51 729.556 1484.77 L729.556 1480.07 Q731.639 1481.2 733.862 1481.76 Q736.084 1482.32 738.561 1482.32 Q742.565 1482.32 744.903 1480.21 Q747.241 1478.1 747.241 1474.49 Q747.241 1470.88 744.903 1468.77 Q742.565 1466.67 738.561 1466.67 Q736.686 1466.67 734.811 1467.08 Q732.959 1467.5 731.014 1468.38 L731.014 1451.02 Z" fill="#000000" fill-rule="nonzero" fill-opacity="1" /><path clip-path="url(#clip410)" d="M1200.97 1481.64 L1208.61 1481.64 L1208.61 1455.28 L1200.3 1456.95 L1200.3 1452.69 L1208.56 1451.02 L1213.24 1451.02 L1213.24 1481.64 L1220.88 1481.64 L1220.88 1485.58 L1200.97 1485.58 L1200.97 1481.64 Z" fill="#000000" fill-rule="nonzero" fill-opacity="1" /><path clip-path="url(#clip410)" d="M1240.32 1454.1 Q1236.71 1454.1 1234.88 1457.66 Q1233.08 1461.2 1233.08 1468.33 Q1233.08 1475.44 1234.88 1479.01 Q1236.71 1482.55 1240.32 1482.55 Q1243.96 1482.55 1245.76 1479.01 Q1247.59 1475.44 1247.59 1468.33 Q1247.59 1461.2 1245.76 1457.66 Q1243.96 1454.1 1240.32 1454.1 M1240.32 1450.39 Q1246.13 1450.39 1249.19 1455 Q1252.27 1459.58 1252.27 1468.33 Q1252.27 1477.06 1249.19 1481.67 Q1246.13 1486.25 1240.32 1486.25 Q1234.51 1486.25 1231.44 1481.67 Q1228.38 1477.06 1228.38 1468.33 Q1228.38 1459.58 1231.44 1455 Q1234.51 1450.39 1240.32 1450.39 Z" fill="#000000" fill-rule="nonzero" fill-opacity="1" /><path clip-path="url(#clip410)" d="M1687.02 1481.64 L1694.66 1481.64 L1694.66 1455.28 L1686.35 1456.95 L1686.35 1452.69 L1694.61 1451.02 L1699.29 1451.02 L1699.29 1481.64 L1706.93 1481.64 L1706.93 1485.58 L1687.02 1485.58 L1687.02 1481.64 Z" fill="#000000" fill-rule="nonzero" fill-opacity="1" /><path clip-path="url(#clip410)" d="M1716.42 1451.02 L1734.77 1451.02 L1734.77 1454.96 L1720.7 1454.96 L1720.7 1463.43 Q1721.72 1463.08 1722.74 1462.92 Q1723.75 1462.73 1724.77 1462.73 Q1730.56 1462.73 1733.94 1465.9 Q1737.32 1469.08 1737.32 1474.49 Q1737.32 1480.07 1733.85 1483.17 Q1730.37 1486.25 1724.05 1486.25 Q1721.88 1486.25 1719.61 1485.88 Q1717.36 1485.51 1714.96 1484.77 L1714.96 1480.07 Q1717.04 1481.2 1719.26 1481.76 Q1721.49 1482.32 1723.96 1482.32 Q1727.97 1482.32 1730.3 1480.21 Q1732.64 1478.1 1732.64 1474.49 Q1732.64 1470.88 1730.3 1468.77 Q1727.97 1466.67 1723.96 1466.67 Q1722.09 1466.67 1720.21 1467.08 Q1718.36 1467.5 1716.42 1468.38 L1716.42 1451.02 Z" fill="#000000" fill-rule="nonzero" fill-opacity="1" /><path clip-path="url(#clip410)" d="M2176.15 1481.64 L2192.47 1481.64 L2192.47 1485.58 L2170.53 1485.58 L2170.53 1481.64 Q2173.19 1478.89 2177.77 1474.26 Q2182.38 1469.61 2183.56 1468.27 Q2185.81 1465.74 2186.69 1464.01 Q2187.59 1462.25 2187.59 1460.56 Q2187.59 1457.8 2185.64 1456.07 Q2183.72 1454.33 2180.62 1454.33 Q2178.42 1454.33 2175.97 1455.09 Q2173.54 1455.86 2170.76 1457.41 L2170.76 1452.69 Q2173.58 1451.55 2176.04 1450.97 Q2178.49 1450.39 2180.53 1450.39 Q2185.9 1450.39 2189.09 1453.08 Q2192.29 1455.77 2192.29 1460.26 Q2192.29 1462.39 2191.48 1464.31 Q2190.69 1466.2 2188.58 1468.8 Q2188.01 1469.47 2184.9 1472.69 Q2181.8 1475.88 2176.15 1481.64 Z" fill="#000000" fill-rule="nonzero" fill-opacity="1" /><path clip-path="url(#clip410)" d="M2212.29 1454.1 Q2208.68 1454.1 2206.85 1457.66 Q2205.04 1461.2 2205.04 1468.33 Q2205.04 1475.44 2206.85 1479.01 Q2208.68 1482.55 2212.29 1482.55 Q2215.92 1482.55 2217.73 1479.01 Q2219.56 1475.44 2219.56 1468.33 Q2219.56 1461.2 2217.73 1457.66 Q2215.92 1454.1 2212.29 1454.1 M2212.29 1450.39 Q2218.1 1450.39 2221.15 1455 Q2224.23 1459.58 2224.23 1468.33 Q2224.23 1477.06 2221.15 1481.67 Q2218.1 1486.25 2212.29 1486.25 Q2206.48 1486.25 2203.4 1481.67 Q2200.34 1477.06 2200.34 1468.33 Q2200.34 1459.58 2203.4 1455 Q2206.48 1450.39 2212.29 1450.39 Z" fill="#000000" fill-rule="nonzero" fill-opacity="1" /><path clip-path="url(#clip410)" d="M1194.9 1550.25 Q1194.9 1556.71 1197.54 1560.4 Q1200.22 1564.07 1204.86 1564.07 Q1209.51 1564.07 1212.19 1560.4 Q1214.86 1556.71 1214.86 1550.25 Q1214.86 1543.79 1212.19 1540.13 Q1209.51 1536.44 1204.86 1536.44 Q1200.22 1536.44 1197.54 1540.13 Q1194.9 1543.79 1194.9 1550.25 M1214.86 1562.7 Q1213.01 1565.88 1210.18 1567.44 Q1207.38 1568.97 1203.43 1568.97 Q1196.97 1568.97 1192.9 1563.81 Q1188.86 1558.65 1188.86 1550.25 Q1188.86 1541.85 1192.9 1536.69 Q1196.97 1531.54 1203.43 1531.54 Q1207.38 1531.54 1210.18 1533.1 Q1213.01 1534.62 1214.86 1537.81 L1214.86 1532.4 L1220.72 1532.4 L1220.72 1581.6 L1214.86 1581.6 L1214.86 1562.7 Z" fill="#000000" fill-rule="nonzero" fill-opacity="1" /><path clip-path="url(#clip410)" d="M1232.17 1553.98 L1232.17 1532.4 L1238.03 1532.4 L1238.03 1553.75 Q1238.03 1558.81 1240 1561.36 Q1241.98 1563.87 1245.92 1563.87 Q1250.67 1563.87 1253.4 1560.85 Q1256.17 1557.83 1256.17 1552.61 L1256.17 1532.4 L1262.03 1532.4 L1262.03 1568.04 L1256.17 1568.04 L1256.17 1562.57 Q1254.04 1565.82 1251.21 1567.41 Q1248.41 1568.97 1244.68 1568.97 Q1238.54 1568.97 1235.36 1565.15 Q1232.17 1561.33 1232.17 1553.98 M1246.91 1531.54 L1246.91 1531.54 Z" fill="#000000" fill-rule="nonzero" fill-opacity="1" /><path clip-path="url(#clip410)" d="M1290.29 1550.12 Q1283.19 1550.12 1280.46 1551.75 Q1277.72 1553.37 1277.72 1557.29 Q1277.72 1560.4 1279.76 1562.25 Q1281.83 1564.07 1285.36 1564.07 Q1290.23 1564.07 1293.16 1560.63 Q1296.12 1557.16 1296.12 1551.43 L1296.12 1550.12 L1290.29 1550.12 M1301.97 1547.71 L1301.97 1568.04 L1296.12 1568.04 L1296.12 1562.63 Q1294.11 1565.88 1291.12 1567.44 Q1288.13 1568.97 1283.8 1568.97 Q1278.33 1568.97 1275.08 1565.91 Q1271.86 1562.82 1271.86 1557.67 Q1271.86 1551.65 1275.87 1548.6 Q1279.92 1545.54 1287.91 1545.54 L1296.12 1545.54 L1296.12 1544.97 Q1296.12 1540.93 1293.44 1538.73 Q1290.8 1536.5 1286 1536.5 Q1282.94 1536.5 1280.04 1537.23 Q1277.15 1537.97 1274.47 1539.43 L1274.47 1534.02 Q1277.69 1532.78 1280.71 1532.17 Q1283.74 1531.54 1286.6 1531.54 Q1294.33 1531.54 1298.15 1535.55 Q1301.97 1539.56 1301.97 1547.71 Z" fill="#000000" fill-rule="nonzero" fill-opacity="1" /><path clip-path="url(#clip410)" d="M1334.69 1537.87 Q1333.71 1537.3 1332.53 1537.04 Q1331.38 1536.76 1329.98 1536.76 Q1325.02 1536.76 1322.34 1540 Q1319.7 1543.22 1319.7 1549.27 L1319.7 1568.04 L1313.81 1568.04 L1313.81 1532.4 L1319.7 1532.4 L1319.7 1537.93 Q1321.55 1534.69 1324.51 1533.13 Q1327.47 1531.54 1331.7 1531.54 Q1332.31 1531.54 1333.04 1531.63 Q1333.77 1531.7 1334.66 1531.85 L1334.69 1537.87 Z" fill="#000000" fill-rule="nonzero" fill-opacity="1" /><path clip-path="url(#clip410)" d="M1346.63 1522.27 L1346.63 1532.4 L1358.69 1532.4 L1358.69 1536.95 L1346.63 1536.95 L1346.63 1556.3 Q1346.63 1560.66 1347.81 1561.9 Q1349.02 1563.14 1352.68 1563.14 L1358.69 1563.14 L1358.69 1568.04 L1352.68 1568.04 Q1345.9 1568.04 1343.32 1565.53 Q1340.74 1562.98 1340.74 1556.3 L1340.74 1536.95 L1336.44 1536.95 L1336.44 1532.4 L1340.74 1532.4 L1340.74 1522.27 L1346.63 1522.27 Z" fill="#000000" fill-rule="nonzero" fill-opacity="1" /><path clip-path="url(#clip410)" d="M1396.89 1548.76 L1396.89 1551.62 L1369.96 1551.62 Q1370.34 1557.67 1373.59 1560.85 Q1376.87 1564 1382.69 1564 Q1386.06 1564 1389.22 1563.17 Q1392.4 1562.35 1395.52 1560.69 L1395.52 1566.23 Q1392.37 1567.57 1389.06 1568.27 Q1385.75 1568.97 1382.34 1568.97 Q1373.81 1568.97 1368.81 1564 Q1363.85 1559.04 1363.85 1550.57 Q1363.85 1541.82 1368.56 1536.69 Q1373.3 1531.54 1381.32 1531.54 Q1388.52 1531.54 1392.68 1536.18 Q1396.89 1540.8 1396.89 1548.76 M1391.03 1547.04 Q1390.97 1542.23 1388.32 1539.37 Q1385.71 1536.5 1381.39 1536.5 Q1376.48 1536.5 1373.52 1539.27 Q1370.6 1542.04 1370.15 1547.07 L1391.03 1547.04 Z" fill="#000000" fill-rule="nonzero" fill-opacity="1" /><path clip-path="url(#clip410)" d="M1427.16 1537.87 Q1426.17 1537.3 1424.99 1537.04 Q1423.85 1536.76 1422.44 1536.76 Q1417.48 1536.76 1414.81 1540 Q1412.16 1543.22 1412.16 1549.27 L1412.16 1568.04 L1406.28 1568.04 L1406.28 1532.4 L1412.16 1532.4 L1412.16 1537.93 Q1414.01 1534.69 1416.97 1533.13 Q1419.93 1531.54 1424.16 1531.54 Q1424.77 1531.54 1425.5 1531.63 Q1426.23 1531.7 1427.12 1531.85 L1427.16 1537.87 Z" fill="#000000" fill-rule="nonzero" fill-opacity="1" /><path clip-path="url(#clip410)" d="M1456.02 1533.45 L1456.02 1538.98 Q1453.54 1537.71 1450.87 1537.07 Q1448.19 1536.44 1445.33 1536.44 Q1440.97 1536.44 1438.77 1537.77 Q1436.61 1539.11 1436.61 1541.79 Q1436.61 1543.82 1438.17 1545 Q1439.73 1546.15 1444.44 1547.2 L1446.44 1547.64 Q1452.68 1548.98 1455.29 1551.43 Q1457.93 1553.85 1457.93 1558.21 Q1457.93 1563.17 1453.99 1566.07 Q1450.07 1568.97 1443.2 1568.97 Q1440.33 1568.97 1437.21 1568.39 Q1434.13 1567.85 1430.69 1566.74 L1430.69 1560.69 Q1433.93 1562.38 1437.09 1563.24 Q1440.24 1564.07 1443.32 1564.07 Q1447.46 1564.07 1449.69 1562.66 Q1451.92 1561.23 1451.92 1558.65 Q1451.92 1556.27 1450.29 1554.99 Q1448.7 1553.72 1443.26 1552.54 L1441.22 1552.07 Q1435.78 1550.92 1433.36 1548.56 Q1430.94 1546.18 1430.94 1542.04 Q1430.94 1537.01 1434.51 1534.27 Q1438.07 1531.54 1444.63 1531.54 Q1447.88 1531.54 1450.74 1532.01 Q1453.6 1532.49 1456.02 1533.45 Z" fill="#000000" fill-rule="nonzero" fill-opacity="1" /><polyline clip-path="url(#clip410)" style="stroke:#000000; stroke-linecap:round; stroke-linejoin:round; stroke-width:4; stroke-opacity:1; fill:none" points="294.033,1423.18 294.033,47.2441 "/>
<polyline clip-path="url(#clip410)" style="stroke:#000000; stroke-linecap:round; stroke-linejoin:round; stroke-width:4; stroke-opacity:1; fill:none" points="294.033,1217.23 312.93,1217.23 "/>
<polyline clip-path="url(#clip410)" style="stroke:#000000; stroke-linecap:round; stroke-linejoin:round; stroke-width:4; stroke-opacity:1; fill:none" points="294.033,963.411 312.93,963.411 "/>
<polyline clip-path="url(#clip410)" style="stroke:#000000; stroke-linecap:round; stroke-linejoin:round; stroke-width:4; stroke-opacity:1; fill:none" points="294.033,709.591 312.93,709.591 "/>
<polyline clip-path="url(#clip410)" style="stroke:#000000; stroke-linecap:round; stroke-linejoin:round; stroke-width:4; stroke-opacity:1; fill:none" points="294.033,455.771 312.93,455.771 "/>
<polyline clip-path="url(#clip410)" style="stroke:#000000; stroke-linecap:round; stroke-linejoin:round; stroke-width:4; stroke-opacity:1; fill:none" points="294.033,201.951 312.93,201.951 "/>
<path clip-path="url(#clip410)" d="M114.26 1199.95 L136.482 1199.95 L136.482 1201.94 L123.936 1234.51 L119.052 1234.51 L130.857 1203.89 L114.26 1203.89 L114.26 1199.95 Z" fill="#000000" fill-rule="nonzero" fill-opacity="1" /><path clip-path="url(#clip410)" d="M159.769 1215.88 Q163.126 1216.59 165.001 1218.86 Q166.899 1221.13 166.899 1224.46 Q166.899 1229.58 163.38 1232.38 Q159.862 1235.18 153.38 1235.18 Q151.204 1235.18 148.89 1234.74 Q146.598 1234.33 144.144 1233.47 L144.144 1228.96 Q146.089 1230.09 148.403 1230.67 Q150.718 1231.25 153.241 1231.25 Q157.64 1231.25 159.931 1229.51 Q162.246 1227.78 162.246 1224.46 Q162.246 1221.41 160.093 1219.7 Q157.964 1217.96 154.144 1217.96 L150.116 1217.96 L150.116 1214.12 L154.329 1214.12 Q157.778 1214.12 159.607 1212.75 Q161.436 1211.36 161.436 1208.77 Q161.436 1206.11 159.538 1204.7 Q157.663 1203.26 154.144 1203.26 Q152.223 1203.26 150.024 1203.68 Q147.825 1204.09 145.186 1204.97 L145.186 1200.81 Q147.848 1200.07 150.163 1199.7 Q152.501 1199.33 154.561 1199.33 Q159.885 1199.33 162.987 1201.76 Q166.089 1204.16 166.089 1208.28 Q166.089 1211.15 164.445 1213.15 Q162.802 1215.11 159.769 1215.88 Z" fill="#000000" fill-rule="nonzero" fill-opacity="1" /><path clip-path="url(#clip410)" d="M185.764 1203.03 Q182.153 1203.03 180.325 1206.59 Q178.519 1210.14 178.519 1217.27 Q178.519 1224.37 180.325 1227.94 Q182.153 1231.48 185.764 1231.48 Q189.399 1231.48 191.204 1227.94 Q193.033 1224.37 193.033 1217.27 Q193.033 1210.14 191.204 1206.59 Q189.399 1203.03 185.764 1203.03 M185.764 1199.33 Q191.575 1199.33 194.63 1203.93 Q197.709 1208.52 197.709 1217.27 Q197.709 1225.99 194.63 1230.6 Q191.575 1235.18 185.764 1235.18 Q179.954 1235.18 176.876 1230.6 Q173.82 1225.99 173.82 1217.27 Q173.82 1208.52 176.876 1203.93 Q179.954 1199.33 185.764 1199.33 Z" fill="#000000" fill-rule="nonzero" fill-opacity="1" /><path clip-path="url(#clip410)" d="M215.926 1203.03 Q212.315 1203.03 210.486 1206.59 Q208.681 1210.14 208.681 1217.27 Q208.681 1224.37 210.486 1227.94 Q212.315 1231.48 215.926 1231.48 Q219.561 1231.48 221.366 1227.94 Q223.195 1224.37 223.195 1217.27 Q223.195 1210.14 221.366 1206.59 Q219.561 1203.03 215.926 1203.03 M215.926 1199.33 Q221.736 1199.33 224.792 1203.93 Q227.871 1208.52 227.871 1217.27 Q227.871 1225.99 224.792 1230.6 Q221.736 1235.18 215.926 1235.18 Q210.116 1235.18 207.037 1230.6 Q203.982 1225.99 203.982 1217.27 Q203.982 1208.52 207.037 1203.93 Q210.116 1199.33 215.926 1199.33 Z" fill="#000000" fill-rule="nonzero" fill-opacity="1" /><path clip-path="url(#clip410)" d="M246.088 1203.03 Q242.477 1203.03 240.648 1206.59 Q238.843 1210.14 238.843 1217.27 Q238.843 1224.37 240.648 1227.94 Q242.477 1231.48 246.088 1231.48 Q249.722 1231.48 251.528 1227.94 Q253.357 1224.37 253.357 1217.27 Q253.357 1210.14 251.528 1206.59 Q249.722 1203.03 246.088 1203.03 M246.088 1199.33 Q251.898 1199.33 254.954 1203.93 Q258.033 1208.52 258.033 1217.27 Q258.033 1225.99 254.954 1230.6 Q251.898 1235.18 246.088 1235.18 Q240.278 1235.18 237.199 1230.6 Q234.144 1225.99 234.144 1217.27 Q234.144 1208.52 237.199 1203.93 Q240.278 1199.33 246.088 1199.33 Z" fill="#000000" fill-rule="nonzero" fill-opacity="1" /><path clip-path="url(#clip410)" d="M114.26 946.131 L136.482 946.131 L136.482 948.122 L123.936 980.691 L119.052 980.691 L130.857 950.066 L114.26 950.066 L114.26 946.131 Z" fill="#000000" fill-rule="nonzero" fill-opacity="1" /><path clip-path="url(#clip410)" d="M158.45 950.205 L146.644 968.654 L158.45 968.654 L158.45 950.205 M157.223 946.131 L163.102 946.131 L163.102 968.654 L168.033 968.654 L168.033 972.543 L163.102 972.543 L163.102 980.691 L158.45 980.691 L158.45 972.543 L142.848 972.543 L142.848 968.029 L157.223 946.131 Z" fill="#000000" fill-rule="nonzero" fill-opacity="1" /><path clip-path="url(#clip410)" d="M185.764 949.21 Q182.153 949.21 180.325 952.775 Q178.519 956.316 178.519 963.446 Q178.519 970.552 180.325 974.117 Q182.153 977.659 185.764 977.659 Q189.399 977.659 191.204 974.117 Q193.033 970.552 193.033 963.446 Q193.033 956.316 191.204 952.775 Q189.399 949.21 185.764 949.21 M185.764 945.506 Q191.575 945.506 194.63 950.113 Q197.709 954.696 197.709 963.446 Q197.709 972.173 194.63 976.779 Q191.575 981.362 185.764 981.362 Q179.954 981.362 176.876 976.779 Q173.82 972.173 173.82 963.446 Q173.82 954.696 176.876 950.113 Q179.954 945.506 185.764 945.506 Z" fill="#000000" fill-rule="nonzero" fill-opacity="1" /><path clip-path="url(#clip410)" d="M215.926 949.21 Q212.315 949.21 210.486 952.775 Q208.681 956.316 208.681 963.446 Q208.681 970.552 210.486 974.117 Q212.315 977.659 215.926 977.659 Q219.561 977.659 221.366 974.117 Q223.195 970.552 223.195 963.446 Q223.195 956.316 221.366 952.775 Q219.561 949.21 215.926 949.21 M215.926 945.506 Q221.736 945.506 224.792 950.113 Q227.871 954.696 227.871 963.446 Q227.871 972.173 224.792 976.779 Q221.736 981.362 215.926 981.362 Q210.116 981.362 207.037 976.779 Q203.982 972.173 203.982 963.446 Q203.982 954.696 207.037 950.113 Q210.116 945.506 215.926 945.506 Z" fill="#000000" fill-rule="nonzero" fill-opacity="1" /><path clip-path="url(#clip410)" d="M246.088 949.21 Q242.477 949.21 240.648 952.775 Q238.843 956.316 238.843 963.446 Q238.843 970.552 240.648 974.117 Q242.477 977.659 246.088 977.659 Q249.722 977.659 251.528 974.117 Q253.357 970.552 253.357 963.446 Q253.357 956.316 251.528 952.775 Q249.722 949.21 246.088 949.21 M246.088 945.506 Q251.898 945.506 254.954 950.113 Q258.033 954.696 258.033 963.446 Q258.033 972.173 254.954 976.779 Q251.898 981.362 246.088 981.362 Q240.278 981.362 237.199 976.779 Q234.144 972.173 234.144 963.446 Q234.144 954.696 237.199 950.113 Q240.278 945.506 246.088 945.506 Z" fill="#000000" fill-rule="nonzero" fill-opacity="1" /><path clip-path="url(#clip410)" d="M114.26 692.311 L136.482 692.311 L136.482 694.302 L123.936 726.871 L119.052 726.871 L130.857 696.246 L114.26 696.246 L114.26 692.311 Z" fill="#000000" fill-rule="nonzero" fill-opacity="1" /><path clip-path="url(#clip410)" d="M145.649 692.311 L164.005 692.311 L164.005 696.246 L149.931 696.246 L149.931 704.718 Q150.95 704.371 151.968 704.209 Q152.987 704.024 154.005 704.024 Q159.792 704.024 163.172 707.195 Q166.552 710.367 166.552 715.783 Q166.552 721.362 163.079 724.464 Q159.607 727.542 153.288 727.542 Q151.112 727.542 148.843 727.172 Q146.598 726.802 144.191 726.061 L144.191 721.362 Q146.274 722.496 148.496 723.052 Q150.718 723.607 153.195 723.607 Q157.2 723.607 159.538 721.501 Q161.876 719.394 161.876 715.783 Q161.876 712.172 159.538 710.066 Q157.2 707.959 153.195 707.959 Q151.32 707.959 149.445 708.376 Q147.593 708.793 145.649 709.672 L145.649 692.311 Z" fill="#000000" fill-rule="nonzero" fill-opacity="1" /><path clip-path="url(#clip410)" d="M185.764 695.39 Q182.153 695.39 180.325 698.955 Q178.519 702.496 178.519 709.626 Q178.519 716.732 180.325 720.297 Q182.153 723.839 185.764 723.839 Q189.399 723.839 191.204 720.297 Q193.033 716.732 193.033 709.626 Q193.033 702.496 191.204 698.955 Q189.399 695.39 185.764 695.39 M185.764 691.686 Q191.575 691.686 194.63 696.293 Q197.709 700.876 197.709 709.626 Q197.709 718.353 194.63 722.959 Q191.575 727.542 185.764 727.542 Q179.954 727.542 176.876 722.959 Q173.82 718.353 173.82 709.626 Q173.82 700.876 176.876 696.293 Q179.954 691.686 185.764 691.686 Z" fill="#000000" fill-rule="nonzero" fill-opacity="1" /><path clip-path="url(#clip410)" d="M215.926 695.39 Q212.315 695.39 210.486 698.955 Q208.681 702.496 208.681 709.626 Q208.681 716.732 210.486 720.297 Q212.315 723.839 215.926 723.839 Q219.561 723.839 221.366 720.297 Q223.195 716.732 223.195 709.626 Q223.195 702.496 221.366 698.955 Q219.561 695.39 215.926 695.39 M215.926 691.686 Q221.736 691.686 224.792 696.293 Q227.871 700.876 227.871 709.626 Q227.871 718.353 224.792 722.959 Q221.736 727.542 215.926 727.542 Q210.116 727.542 207.037 722.959 Q203.982 718.353 203.982 709.626 Q203.982 700.876 207.037 696.293 Q210.116 691.686 215.926 691.686 Z" fill="#000000" fill-rule="nonzero" fill-opacity="1" /><path clip-path="url(#clip410)" d="M246.088 695.39 Q242.477 695.39 240.648 698.955 Q238.843 702.496 238.843 709.626 Q238.843 716.732 240.648 720.297 Q242.477 723.839 246.088 723.839 Q249.722 723.839 251.528 720.297 Q253.357 716.732 253.357 709.626 Q253.357 702.496 251.528 698.955 Q249.722 695.39 246.088 695.39 M246.088 691.686 Q251.898 691.686 254.954 696.293 Q258.033 700.876 258.033 709.626 Q258.033 718.353 254.954 722.959 Q251.898 727.542 246.088 727.542 Q240.278 727.542 237.199 722.959 Q234.144 718.353 234.144 709.626 Q234.144 700.876 237.199 696.293 Q240.278 691.686 246.088 691.686 Z" fill="#000000" fill-rule="nonzero" fill-opacity="1" /><path clip-path="url(#clip410)" d="M114.26 438.491 L136.482 438.491 L136.482 440.482 L123.936 473.051 L119.052 473.051 L130.857 442.426 L114.26 442.426 L114.26 438.491 Z" fill="#000000" fill-rule="nonzero" fill-opacity="1" /><path clip-path="url(#clip410)" d="M156.181 453.908 Q153.033 453.908 151.181 456.061 Q149.353 458.213 149.353 461.963 Q149.353 465.69 151.181 467.866 Q153.033 470.019 156.181 470.019 Q159.329 470.019 161.158 467.866 Q163.01 465.69 163.01 461.963 Q163.01 458.213 161.158 456.061 Q159.329 453.908 156.181 453.908 M165.464 439.255 L165.464 443.514 Q163.704 442.681 161.899 442.241 Q160.116 441.801 158.357 441.801 Q153.728 441.801 151.274 444.926 Q148.843 448.051 148.496 454.371 Q149.862 452.357 151.922 451.292 Q153.982 450.204 156.459 450.204 Q161.667 450.204 164.677 453.375 Q167.709 456.523 167.709 461.963 Q167.709 467.287 164.561 470.505 Q161.413 473.722 156.181 473.722 Q150.186 473.722 147.015 469.139 Q143.843 464.533 143.843 455.806 Q143.843 447.611 147.732 442.75 Q151.621 437.866 158.172 437.866 Q159.931 437.866 161.714 438.213 Q163.519 438.561 165.464 439.255 Z" fill="#000000" fill-rule="nonzero" fill-opacity="1" /><path clip-path="url(#clip410)" d="M185.764 441.57 Q182.153 441.57 180.325 445.135 Q178.519 448.676 178.519 455.806 Q178.519 462.912 180.325 466.477 Q182.153 470.019 185.764 470.019 Q189.399 470.019 191.204 466.477 Q193.033 462.912 193.033 455.806 Q193.033 448.676 191.204 445.135 Q189.399 441.57 185.764 441.57 M185.764 437.866 Q191.575 437.866 194.63 442.473 Q197.709 447.056 197.709 455.806 Q197.709 464.533 194.63 469.139 Q191.575 473.722 185.764 473.722 Q179.954 473.722 176.876 469.139 Q173.82 464.533 173.82 455.806 Q173.82 447.056 176.876 442.473 Q179.954 437.866 185.764 437.866 Z" fill="#000000" fill-rule="nonzero" fill-opacity="1" /><path clip-path="url(#clip410)" d="M215.926 441.57 Q212.315 441.57 210.486 445.135 Q208.681 448.676 208.681 455.806 Q208.681 462.912 210.486 466.477 Q212.315 470.019 215.926 470.019 Q219.561 470.019 221.366 466.477 Q223.195 462.912 223.195 455.806 Q223.195 448.676 221.366 445.135 Q219.561 441.57 215.926 441.57 M215.926 437.866 Q221.736 437.866 224.792 442.473 Q227.871 447.056 227.871 455.806 Q227.871 464.533 224.792 469.139 Q221.736 473.722 215.926 473.722 Q210.116 473.722 207.037 469.139 Q203.982 464.533 203.982 455.806 Q203.982 447.056 207.037 442.473 Q210.116 437.866 215.926 437.866 Z" fill="#000000" fill-rule="nonzero" fill-opacity="1" /><path clip-path="url(#clip410)" d="M246.088 441.57 Q242.477 441.57 240.648 445.135 Q238.843 448.676 238.843 455.806 Q238.843 462.912 240.648 466.477 Q242.477 470.019 246.088 470.019 Q249.722 470.019 251.528 466.477 Q253.357 462.912 253.357 455.806 Q253.357 448.676 251.528 445.135 Q249.722 441.57 246.088 441.57 M246.088 437.866 Q251.898 437.866 254.954 442.473 Q258.033 447.056 258.033 455.806 Q258.033 464.533 254.954 469.139 Q251.898 473.722 246.088 473.722 Q240.278 473.722 237.199 469.139 Q234.144 464.533 234.144 455.806 Q234.144 447.056 237.199 442.473 Q240.278 437.866 246.088 437.866 Z" fill="#000000" fill-rule="nonzero" fill-opacity="1" /><path clip-path="url(#clip410)" d="M114.26 184.671 L136.482 184.671 L136.482 186.662 L123.936 219.231 L119.052 219.231 L130.857 188.606 L114.26 188.606 L114.26 184.671 Z" fill="#000000" fill-rule="nonzero" fill-opacity="1" /><path clip-path="url(#clip410)" d="M144.422 184.671 L166.644 184.671 L166.644 186.662 L154.098 219.231 L149.214 219.231 L161.019 188.606 L144.422 188.606 L144.422 184.671 Z" fill="#000000" fill-rule="nonzero" fill-opacity="1" /><path clip-path="url(#clip410)" d="M185.764 187.75 Q182.153 187.75 180.325 191.315 Q178.519 194.856 178.519 201.986 Q178.519 209.092 180.325 212.657 Q182.153 216.199 185.764 216.199 Q189.399 216.199 191.204 212.657 Q193.033 209.092 193.033 201.986 Q193.033 194.856 191.204 191.315 Q189.399 187.75 185.764 187.75 M185.764 184.046 Q191.575 184.046 194.63 188.653 Q197.709 193.236 197.709 201.986 Q197.709 210.713 194.63 215.319 Q191.575 219.902 185.764 219.902 Q179.954 219.902 176.876 215.319 Q173.82 210.713 173.82 201.986 Q173.82 193.236 176.876 188.653 Q179.954 184.046 185.764 184.046 Z" fill="#000000" fill-rule="nonzero" fill-opacity="1" /><path clip-path="url(#clip410)" d="M215.926 187.75 Q212.315 187.75 210.486 191.315 Q208.681 194.856 208.681 201.986 Q208.681 209.092 210.486 212.657 Q212.315 216.199 215.926 216.199 Q219.561 216.199 221.366 212.657 Q223.195 209.092 223.195 201.986 Q223.195 194.856 221.366 191.315 Q219.561 187.75 215.926 187.75 M215.926 184.046 Q221.736 184.046 224.792 188.653 Q227.871 193.236 227.871 201.986 Q227.871 210.713 224.792 215.319 Q221.736 219.902 215.926 219.902 Q210.116 219.902 207.037 215.319 Q203.982 210.713 203.982 201.986 Q203.982 193.236 207.037 188.653 Q210.116 184.046 215.926 184.046 Z" fill="#000000" fill-rule="nonzero" fill-opacity="1" /><path clip-path="url(#clip410)" d="M246.088 187.75 Q242.477 187.75 240.648 191.315 Q238.843 194.856 238.843 201.986 Q238.843 209.092 240.648 212.657 Q242.477 216.199 246.088 216.199 Q249.722 216.199 251.528 212.657 Q253.357 209.092 253.357 201.986 Q253.357 194.856 251.528 191.315 Q249.722 187.75 246.088 187.75 M246.088 184.046 Q251.898 184.046 254.954 188.653 Q258.033 193.236 258.033 201.986 Q258.033 210.713 254.954 215.319 Q251.898 219.902 246.088 219.902 Q240.278 219.902 237.199 215.319 Q234.144 210.713 234.144 201.986 Q234.144 193.236 237.199 188.653 Q240.278 184.046 246.088 184.046 Z" fill="#000000" fill-rule="nonzero" fill-opacity="1" /><path clip-path="url(#clip410)" d="M57.2247 767.136 L44.4614 767.136 L44.4614 777.639 L39.1779 777.639 L39.1779 760.77 L59.58 760.77 Q62.2218 764.494 63.5904 768.982 Q64.9272 773.47 64.9272 778.562 Q64.9272 789.702 58.4342 796.004 Q51.9093 802.275 40.2919 802.275 Q28.6427 802.275 22.1496 796.004 Q15.6248 789.702 15.6248 778.562 Q15.6248 773.915 16.7706 769.746 Q17.9164 765.545 20.1444 762.012 L26.9876 762.012 Q23.9639 765.576 22.4361 769.587 Q20.9083 773.597 20.9083 778.021 Q20.9083 786.742 25.7781 791.135 Q30.6479 795.495 40.2919 795.495 Q49.9041 795.495 54.7739 791.135 Q59.6436 786.742 59.6436 778.021 Q59.6436 774.616 59.0707 771.942 Q58.466 769.268 57.2247 767.136 Z" fill="#000000" fill-rule="nonzero" fill-opacity="1" /><path clip-path="url(#clip410)" d="M21.7677 742.596 L58.7206 742.596 L58.7206 734.83 Q58.7206 724.995 54.2646 720.444 Q49.8086 715.86 40.1964 715.86 Q30.6479 715.86 26.2237 720.444 Q21.7677 724.995 21.7677 734.83 L21.7677 742.596 M16.4842 749.026 L16.4842 735.817 Q16.4842 722.003 22.2451 715.542 Q27.9743 709.081 40.1964 709.081 Q52.4822 709.081 58.2432 715.574 Q64.0042 722.067 64.0042 735.817 L64.0042 749.026 L16.4842 749.026 Z" fill="#000000" fill-rule="nonzero" fill-opacity="1" /><path clip-path="url(#clip410)" d="M21.7677 692.403 L39.6235 692.403 L39.6235 684.318 Q39.6235 679.83 37.3 677.38 Q34.9765 674.929 30.6797 674.929 Q26.4147 674.929 24.0912 677.38 Q21.7677 679.83 21.7677 684.318 L21.7677 692.403 M16.4842 698.832 L16.4842 684.318 Q16.4842 676.329 20.1126 672.255 Q23.7092 668.149 30.6797 668.149 Q37.7138 668.149 41.3104 672.255 Q44.907 676.329 44.907 684.318 L44.907 692.403 L64.0042 692.403 L64.0042 698.832 L16.4842 698.832 Z" fill="#000000" fill-rule="nonzero" fill-opacity="1" /><path clip-path="url(#clip412)" d="M352.298 1363.94 L449.408 1366.22 L546.517 1378.01 L643.627 1358 L740.737 1330.79 L837.846 1321.05 L934.956 1309.4 L1032.07 1261.93 L1129.18 1221.15 L1226.28 1154.22 L1323.39 1126.89 L1420.5 1116.58 L1517.61 1069.76 L1614.72 988.741 L1711.83 943.869 L1808.94 892.96 L1906.05 787.646 L2003.16 725.397 L2100.27 642.173 L2197.38 610.431 L2294.49 565.45 L2294.49 86.1857 L2197.38 172.833 L2100.27 197.471 L2003.16 277.12 L1906.05 351.762 L1808.94 476.669 L1711.83 578.668 L1614.72 660.331 L1517.61 772.73 L1420.5 841.662 L1323.39 906.454 L1226.28 929.545 L1129.18 1001.92 L1032.07 1095.53 L934.956 1142.85 L837.846 1206.51 L740.737 1273.16 L643.627 1329.49 L546.517 1332.03 L449.408 1364.93 L352.298 1363.94  Z" fill="#009af9" fill-rule="evenodd" fill-opacity="0.1"/>
<polyline clip-path="url(#clip412)" style="stroke:#009af9; stroke-linecap:round; stroke-linejoin:round; stroke-width:4; stroke-opacity:1; fill:none" points="352.298,1363.94 449.408,1365.57 546.517,1355.02 643.627,1343.75 740.737,1301.97 837.846,1263.78 934.956,1226.13 1032.07,1178.73 1129.18,1111.54 1226.28,1041.88 1323.39,1016.67 1420.5,979.119 1517.61,921.244 1614.72,824.536 1711.83,761.268 1808.94,684.814 1906.05,569.704 2003.16,501.258 2100.27,419.822 2197.38,391.632 2294.49,325.818 "/>
<path clip-path="url(#clip412)" d="M352.298 1363.94 L449.408 1369.21 L546.517 1371.33 L643.627 1384.24 L740.737 1350 L837.846 1296.41 L934.956 1301.79 L1032.07 1290.25 L1129.18 1230.13 L1226.28 1164.88 L1323.39 1109.97 L1420.5 1088.35 L1517.61 1024.02 L1614.72 975.846 L1711.83 956.431 L1808.94 899.151 L1906.05 826.722 L2003.16 781.744 L2100.27 756.528 L2197.38 685.186 L2294.49 674.563 L2294.49 374.929 L2197.38 409.966 L2100.27 453.754 L2003.16 495.557 L1906.05 555.837 L1808.94 652.689 L1711.83 719.135 L1614.72 773.982 L1517.61 840.344 L1420.5 883.8 L1323.39 901.124 L1226.28 982.095 L1129.18 1028.39 L1032.07 1090.52 L934.956 1134.33 L837.846 1161.04 L740.737 1246.53 L643.627 1310.76 L546.517 1328.88 L449.408 1364.29 L352.298 1363.94  Z" fill="#e26f46" fill-rule="evenodd" fill-opacity="0.1"/>
<polyline clip-path="url(#clip412)" style="stroke:#e26f46; stroke-linecap:round; stroke-linejoin:round; stroke-width:4; stroke-opacity:1; fill:none" points="352.298,1363.94 449.408,1366.75 546.517,1350.11 643.627,1347.5 740.737,1298.26 837.846,1228.72 934.956,1218.06 1032.07,1190.39 1129.18,1129.26 1226.28,1073.49 1323.39,1005.54 1420.5,986.077 1517.61,932.181 1614.72,874.914 1711.83,837.783 1808.94,775.92 1906.05,691.279 2003.16,638.65 2100.27,605.141 2197.38,547.576 2294.49,524.746 "/>
<path clip-path="url(#clip410)" d="M362.657 248.629 L760.264 248.629 L760.264 93.1086 L362.657 93.1086  Z" fill="#ffffff" fill-rule="evenodd" fill-opacity="1"/>
<polyline clip-path="url(#clip410)" style="stroke:#000000; stroke-linecap:round; stroke-linejoin:round; stroke-width:4; stroke-opacity:1; fill:none" points="362.657,248.629 760.264,248.629 760.264,93.1086 362.657,93.1086 362.657,248.629 "/>
<polyline clip-path="url(#clip410)" style="stroke:#009af9; stroke-linecap:round; stroke-linejoin:round; stroke-width:4; stroke-opacity:1; fill:none" points="385.531,144.949 522.78,144.949 "/>
<path clip-path="url(#clip410)" d="M564.427 149.289 Q564.427 144.59 562.483 141.928 Q560.562 139.243 557.182 139.243 Q553.802 139.243 551.858 141.928 Q549.937 144.59 549.937 149.289 Q549.937 153.988 551.858 156.673 Q553.802 159.335 557.182 159.335 Q560.562 159.335 562.483 156.673 Q564.427 153.988 564.427 149.289 M549.937 140.238 Q551.279 137.923 553.316 136.812 Q555.376 135.678 558.224 135.678 Q562.946 135.678 565.886 139.428 Q568.849 143.178 568.849 149.289 Q568.849 155.4 565.886 159.15 Q562.946 162.9 558.224 162.9 Q555.376 162.9 553.316 161.789 Q551.279 160.655 549.937 158.34 L549.937 162.229 L545.654 162.229 L545.654 126.21 L549.937 126.21 L549.937 140.238 Z" fill="#000000" fill-rule="nonzero" fill-opacity="1" /><path clip-path="url(#clip410)" d="M587.691 149.196 Q582.529 149.196 580.538 150.377 Q578.548 151.557 578.548 154.405 Q578.548 156.673 580.029 158.016 Q581.534 159.335 584.103 159.335 Q587.645 159.335 589.774 156.835 Q591.927 154.312 591.927 150.145 L591.927 149.196 L587.691 149.196 M596.186 147.437 L596.186 162.229 L591.927 162.229 L591.927 158.293 Q590.469 160.655 588.293 161.789 Q586.117 162.9 582.969 162.9 Q578.987 162.9 576.626 160.678 Q574.288 158.432 574.288 154.682 Q574.288 150.307 577.205 148.085 Q580.145 145.863 585.955 145.863 L591.927 145.863 L591.927 145.446 Q591.927 142.507 589.983 140.909 Q588.061 139.289 584.566 139.289 Q582.344 139.289 580.237 139.821 Q578.131 140.354 576.187 141.419 L576.187 137.483 Q578.524 136.581 580.724 136.141 Q582.923 135.678 585.006 135.678 Q590.631 135.678 593.409 138.594 Q596.186 141.511 596.186 147.437 Z" fill="#000000" fill-rule="nonzero" fill-opacity="1" /><path clip-path="url(#clip410)" d="M621.487 137.067 L621.487 141.094 Q619.682 140.169 617.737 139.706 Q615.793 139.243 613.709 139.243 Q610.538 139.243 608.941 140.215 Q607.367 141.187 607.367 143.131 Q607.367 144.613 608.501 145.469 Q609.635 146.303 613.061 147.067 L614.52 147.391 Q619.057 148.363 620.955 150.145 Q622.876 151.905 622.876 155.076 Q622.876 158.687 620.006 160.793 Q617.159 162.9 612.159 162.9 Q610.075 162.9 607.807 162.483 Q605.561 162.09 603.061 161.28 L603.061 156.881 Q605.422 158.108 607.714 158.733 Q610.006 159.335 612.251 159.335 Q615.26 159.335 616.881 158.317 Q618.501 157.275 618.501 155.4 Q618.501 153.664 617.321 152.738 Q616.163 151.812 612.205 150.956 L610.723 150.608 Q606.765 149.775 605.006 148.062 Q603.247 146.326 603.247 143.317 Q603.247 139.659 605.839 137.669 Q608.432 135.678 613.2 135.678 Q615.561 135.678 617.645 136.025 Q619.728 136.372 621.487 137.067 Z" fill="#000000" fill-rule="nonzero" fill-opacity="1" /><path clip-path="url(#clip410)" d="M651.834 148.201 L651.834 150.284 L632.251 150.284 Q632.529 154.682 634.89 156.997 Q637.274 159.289 641.51 159.289 Q643.964 159.289 646.256 158.687 Q648.57 158.085 650.839 156.881 L650.839 160.909 Q648.547 161.881 646.14 162.391 Q643.732 162.9 641.256 162.9 Q635.052 162.9 631.418 159.289 Q627.807 155.678 627.807 149.52 Q627.807 143.155 631.233 139.428 Q634.682 135.678 640.515 135.678 Q645.746 135.678 648.779 139.057 Q651.834 142.414 651.834 148.201 M647.575 146.951 Q647.529 143.456 645.607 141.372 Q643.709 139.289 640.561 139.289 Q636.996 139.289 634.844 141.303 Q632.714 143.317 632.39 146.974 L647.575 146.951 Z" fill="#000000" fill-rule="nonzero" fill-opacity="1" /><path clip-path="url(#clip410)" d="M658.825 126.21 L663.084 126.21 L663.084 162.229 L658.825 162.229 L658.825 126.21 Z" fill="#000000" fill-rule="nonzero" fill-opacity="1" /><path clip-path="url(#clip410)" d="M671.996 136.303 L676.255 136.303 L676.255 162.229 L671.996 162.229 L671.996 136.303 M671.996 126.21 L676.255 126.21 L676.255 131.604 L671.996 131.604 L671.996 126.21 Z" fill="#000000" fill-rule="nonzero" fill-opacity="1" /><path clip-path="url(#clip410)" d="M706.718 146.581 L706.718 162.229 L702.459 162.229 L702.459 146.719 Q702.459 143.039 701.024 141.21 Q699.589 139.382 696.718 139.382 Q693.269 139.382 691.279 141.581 Q689.288 143.78 689.288 147.576 L689.288 162.229 L685.005 162.229 L685.005 136.303 L689.288 136.303 L689.288 140.331 Q690.816 137.993 692.876 136.835 Q694.959 135.678 697.667 135.678 Q702.135 135.678 704.427 138.456 Q706.718 141.21 706.718 146.581 Z" fill="#000000" fill-rule="nonzero" fill-opacity="1" /><path clip-path="url(#clip410)" d="M737.389 148.201 L737.389 150.284 L717.806 150.284 Q718.084 154.682 720.445 156.997 Q722.829 159.289 727.065 159.289 Q729.519 159.289 731.811 158.687 Q734.125 158.085 736.394 156.881 L736.394 160.909 Q734.102 161.881 731.695 162.391 Q729.288 162.9 726.811 162.9 Q720.607 162.9 716.973 159.289 Q713.362 155.678 713.362 149.52 Q713.362 143.155 716.788 139.428 Q720.237 135.678 726.07 135.678 Q731.301 135.678 734.334 139.057 Q737.389 142.414 737.389 148.201 M733.13 146.951 Q733.084 143.456 731.163 141.372 Q729.264 139.289 726.116 139.289 Q722.551 139.289 720.399 141.303 Q718.269 143.317 717.945 146.974 L733.13 146.951 Z" fill="#000000" fill-rule="nonzero" fill-opacity="1" /><polyline clip-path="url(#clip410)" style="stroke:#e26f46; stroke-linecap:round; stroke-linejoin:round; stroke-width:4; stroke-opacity:1; fill:none" points="385.531,196.789 522.78,196.789 "/>
<path clip-path="url(#clip410)" d="M564.08 188.907 L564.08 192.934 Q562.275 192.009 560.33 191.546 Q558.386 191.083 556.302 191.083 Q553.131 191.083 551.534 192.055 Q549.96 193.027 549.96 194.971 Q549.96 196.453 551.094 197.309 Q552.228 198.143 555.654 198.907 L557.113 199.231 Q561.65 200.203 563.548 201.985 Q565.469 203.745 565.469 206.916 Q565.469 210.527 562.599 212.633 Q559.751 214.74 554.751 214.74 Q552.668 214.74 550.4 214.323 Q548.154 213.93 545.654 213.12 L545.654 208.721 Q548.015 209.948 550.307 210.573 Q552.599 211.175 554.844 211.175 Q557.853 211.175 559.474 210.157 Q561.094 209.115 561.094 207.24 Q561.094 205.504 559.913 204.578 Q558.756 203.652 554.798 202.796 L553.316 202.448 Q549.358 201.615 547.599 199.902 Q545.839 198.166 545.839 195.157 Q545.839 191.499 548.432 189.509 Q551.025 187.518 555.793 187.518 Q558.154 187.518 560.238 187.865 Q562.321 188.212 564.08 188.907 Z" fill="#000000" fill-rule="nonzero" fill-opacity="1" /><path clip-path="url(#clip410)" d="M593.802 198.421 L593.802 214.069 L589.543 214.069 L589.543 198.559 Q589.543 194.879 588.108 193.05 Q586.673 191.222 583.802 191.222 Q580.353 191.222 578.362 193.421 Q576.372 195.62 576.372 199.416 L576.372 214.069 L572.089 214.069 L572.089 178.05 L576.372 178.05 L576.372 192.171 Q577.899 189.833 579.96 188.675 Q582.043 187.518 584.751 187.518 Q589.219 187.518 591.511 190.296 Q593.802 193.05 593.802 198.421 Z" fill="#000000" fill-rule="nonzero" fill-opacity="1" /><path clip-path="url(#clip410)" d="M612.344 191.129 Q608.918 191.129 606.927 193.814 Q604.936 196.476 604.936 201.129 Q604.936 205.782 606.904 208.467 Q608.895 211.129 612.344 211.129 Q615.746 211.129 617.737 208.444 Q619.728 205.758 619.728 201.129 Q619.728 196.522 617.737 193.837 Q615.746 191.129 612.344 191.129 M612.344 187.518 Q617.899 187.518 621.071 191.129 Q624.242 194.74 624.242 201.129 Q624.242 207.495 621.071 211.129 Q617.899 214.74 612.344 214.74 Q606.765 214.74 603.594 211.129 Q600.446 207.495 600.446 201.129 Q600.446 194.74 603.594 191.129 Q606.765 187.518 612.344 187.518 Z" fill="#000000" fill-rule="nonzero" fill-opacity="1" /><path clip-path="url(#clip410)" d="M649.959 189.138 L649.959 193.12 Q648.154 192.124 646.325 191.638 Q644.519 191.129 642.668 191.129 Q638.524 191.129 636.232 193.768 Q633.941 196.384 633.941 201.129 Q633.941 205.874 636.232 208.513 Q638.524 211.129 642.668 211.129 Q644.519 211.129 646.325 210.643 Q648.154 210.133 649.959 209.138 L649.959 213.073 Q648.177 213.907 646.256 214.323 Q644.357 214.74 642.205 214.74 Q636.348 214.74 632.899 211.059 Q629.45 207.379 629.45 201.129 Q629.45 194.786 632.922 191.152 Q636.418 187.518 642.482 187.518 Q644.45 187.518 646.325 187.935 Q648.2 188.328 649.959 189.138 Z" fill="#000000" fill-rule="nonzero" fill-opacity="1" /><path clip-path="url(#clip410)" d="M657.205 178.05 L661.487 178.05 L661.487 199.323 L674.195 188.143 L679.635 188.143 L665.885 200.272 L680.214 214.069 L674.658 214.069 L661.487 201.407 L661.487 214.069 L657.205 214.069 L657.205 178.05 Z" fill="#000000" fill-rule="nonzero" fill-opacity="1" /></svg>
