<?xml version="1.0" encoding="utf-8"?>
<svg xmlns="http://www.w3.org/2000/svg" xmlns:xlink="http://www.w3.org/1999/xlink" width="600" height="400" viewBox="0 0 2400 1600">
<defs>
  <clipPath id="clip160">
    <rect x="0" y="0" width="2400" height="1600"/>
  </clipPath>
</defs>
<path clip-path="url(#clip160)" d="M0 1600 L2400 1600 L2400 0 L0 0  Z" fill="#ffffff" fill-rule="evenodd" fill-opacity="1"/>
<defs>
  <clipPath id="clip161">
    <rect x="480" y="0" width="1681" height="1600"/>
  </clipPath>
</defs>
<path clip-path="url(#clip160)" d="M230.765 1486.45 L2352.76 1486.45 L2352.76 106.192 L230.765 106.192  Z" fill="#ffffff" fill-rule="evenodd" fill-opacity="1"/>
<defs>
  <clipPath id="clip162">
    <rect x="230" y="106" width="2123" height="1381"/>
  </clipPath>
</defs>
<polyline clip-path="url(#clip162)" style="stroke:#000000; stroke-linecap:round; stroke-linejoin:round; stroke-width:2; stroke-opacity:0.1; fill:none" points="541.056,1486.45 541.056,106.192 "/>
<polyline clip-path="url(#clip162)" style="stroke:#000000; stroke-linecap:round; stroke-linejoin:round; stroke-width:2; stroke-opacity:0.1; fill:none" points="916.408,1486.45 916.408,106.192 "/>
<polyline clip-path="url(#clip162)" style="stroke:#000000; stroke-linecap:round; stroke-linejoin:round; stroke-width:2; stroke-opacity:0.1; fill:none" points="1291.76,1486.45 1291.76,106.192 "/>
<polyline clip-path="url(#clip162)" style="stroke:#000000; stroke-linecap:round; stroke-linejoin:round; stroke-width:2; stroke-opacity:0.1; fill:none" points="1667.11,1486.45 1667.11,106.192 "/>
<polyline clip-path="url(#clip162)" style="stroke:#000000; stroke-linecap:round; stroke-linejoin:round; stroke-width:2; stroke-opacity:0.1; fill:none" points="2042.46,1486.45 2042.46,106.192 "/>
<polyline clip-path="url(#clip162)" style="stroke:#000000; stroke-linecap:round; stroke-linejoin:round; stroke-width:2; stroke-opacity:0.1; fill:none" points="230.765,1326.52 2352.76,1326.52 "/>
<polyline clip-path="url(#clip162)" style="stroke:#000000; stroke-linecap:round; stroke-linejoin:round; stroke-width:2; stroke-opacity:0.1; fill:none" points="230.765,1117.42 2352.76,1117.42 "/>
<polyline clip-path="url(#clip162)" style="stroke:#000000; stroke-linecap:round; stroke-linejoin:round; stroke-width:2; stroke-opacity:0.1; fill:none" points="230.765,908.313 2352.76,908.313 "/>
<polyline clip-path="url(#clip162)" style="stroke:#000000; stroke-linecap:round; stroke-linejoin:round; stroke-width:2; stroke-opacity:0.1; fill:none" points="230.765,699.209 2352.76,699.209 "/>
<polyline clip-path="url(#clip162)" style="stroke:#000000; stroke-linecap:round; stroke-linejoin:round; stroke-width:2; stroke-opacity:0.1; fill:none" points="230.765,490.105 2352.76,490.105 "/>
<polyline clip-path="url(#clip162)" style="stroke:#000000; stroke-linecap:round; stroke-linejoin:round; stroke-width:2; stroke-opacity:0.1; fill:none" points="230.765,281.001 2352.76,281.001 "/>
<polyline clip-path="url(#clip160)" style="stroke:#000000; stroke-linecap:round; stroke-linejoin:round; stroke-width:4; stroke-opacity:1; fill:none" points="230.765,1486.45 2352.76,1486.45 "/>
<polyline clip-path="url(#clip160)" style="stroke:#000000; stroke-linecap:round; stroke-linejoin:round; stroke-width:4; stroke-opacity:1; fill:none" points="541.056,1486.45 541.056,1467.55 "/>
<polyline clip-path="url(#clip160)" style="stroke:#000000; stroke-linecap:round; stroke-linejoin:round; stroke-width:4; stroke-opacity:1; fill:none" points="916.408,1486.45 916.408,1467.55 "/>
<polyline clip-path="url(#clip160)" style="stroke:#000000; stroke-linecap:round; stroke-linejoin:round; stroke-width:4; stroke-opacity:1; fill:none" points="1291.76,1486.45 1291.76,1467.55 "/>
<polyline clip-path="url(#clip160)" style="stroke:#000000; stroke-linecap:round; stroke-linejoin:round; stroke-width:4; stroke-opacity:1; fill:none" points="1667.11,1486.45 1667.11,1467.55 "/>
<polyline clip-path="url(#clip160)" style="stroke:#000000; stroke-linecap:round; stroke-linejoin:round; stroke-width:4; stroke-opacity:1; fill:none" points="2042.46,1486.45 2042.46,1467.55 "/>
<path clip-path="url(#clip160)" d="M545.303 1530.21 Q548.66 1530.93 550.535 1533.2 Q552.433 1535.47 552.433 1538.8 Q552.433 1543.92 548.914 1546.72 Q545.396 1549.52 538.915 1549.52 Q536.739 1549.52 534.424 1549.08 Q532.132 1548.66 529.678 1547.81 L529.678 1543.29 Q531.623 1544.43 533.938 1545.01 Q536.252 1545.58 538.776 1545.58 Q543.174 1545.58 545.465 1543.85 Q547.78 1542.11 547.78 1538.8 Q547.78 1535.75 545.627 1534.03 Q543.498 1532.3 539.678 1532.3 L535.651 1532.3 L535.651 1528.45 L539.864 1528.45 Q543.313 1528.45 545.141 1527.09 Q546.97 1525.7 546.97 1523.11 Q546.97 1520.45 545.072 1519.03 Q543.197 1517.6 539.678 1517.6 Q537.757 1517.6 535.558 1518.01 Q533.359 1518.43 530.72 1519.31 L530.72 1515.14 Q533.382 1514.4 535.697 1514.03 Q538.035 1513.66 540.095 1513.66 Q545.419 1513.66 548.521 1516.09 Q551.623 1518.5 551.623 1522.62 Q551.623 1525.49 549.979 1527.48 Q548.336 1529.45 545.303 1530.21 Z" fill="#000000" fill-rule="nonzero" fill-opacity="1" /><path clip-path="url(#clip160)" d="M916.813 1529.7 Q913.665 1529.7 911.813 1531.86 Q909.984 1534.01 909.984 1537.76 Q909.984 1541.49 911.813 1543.66 Q913.665 1545.82 916.813 1545.82 Q919.961 1545.82 921.79 1543.66 Q923.642 1541.49 923.642 1537.76 Q923.642 1534.01 921.79 1531.86 Q919.961 1529.7 916.813 1529.7 M926.095 1515.05 L926.095 1519.31 Q924.336 1518.48 922.531 1518.04 Q920.748 1517.6 918.989 1517.6 Q914.359 1517.6 911.906 1520.72 Q909.475 1523.85 909.128 1530.17 Q910.494 1528.15 912.554 1527.09 Q914.614 1526 917.091 1526 Q922.299 1526 925.308 1529.17 Q928.341 1532.32 928.341 1537.76 Q928.341 1543.08 925.193 1546.3 Q922.044 1549.52 916.813 1549.52 Q910.818 1549.52 907.646 1544.94 Q904.475 1540.33 904.475 1531.6 Q904.475 1523.41 908.364 1518.55 Q912.253 1513.66 918.804 1513.66 Q920.563 1513.66 922.345 1514.01 Q924.151 1514.36 926.095 1515.05 Z" fill="#000000" fill-rule="nonzero" fill-opacity="1" /><path clip-path="url(#clip160)" d="M1282.06 1548.13 L1282.06 1543.87 Q1283.82 1544.7 1285.63 1545.14 Q1287.43 1545.58 1289.17 1545.58 Q1293.8 1545.58 1296.23 1542.48 Q1298.68 1539.36 1299.03 1533.01 Q1297.69 1535.01 1295.63 1536.07 Q1293.57 1537.13 1291.07 1537.13 Q1285.88 1537.13 1282.85 1534.01 Q1279.84 1530.86 1279.84 1525.42 Q1279.84 1520.1 1282.99 1516.88 Q1286.14 1513.66 1291.37 1513.66 Q1297.36 1513.66 1300.51 1518.27 Q1303.68 1522.85 1303.68 1531.6 Q1303.68 1539.77 1299.79 1544.66 Q1295.93 1549.52 1289.38 1549.52 Q1287.62 1549.52 1285.81 1549.17 Q1284.01 1548.82 1282.06 1548.13 M1291.37 1533.48 Q1294.51 1533.48 1296.34 1531.32 Q1298.2 1529.17 1298.2 1525.42 Q1298.2 1521.7 1296.34 1519.54 Q1294.51 1517.37 1291.37 1517.37 Q1288.22 1517.37 1286.37 1519.54 Q1284.54 1521.7 1284.54 1525.42 Q1284.54 1529.17 1286.37 1531.32 Q1288.22 1533.48 1291.37 1533.48 Z" fill="#000000" fill-rule="nonzero" fill-opacity="1" /><path clip-path="url(#clip160)" d="M1642.6 1544.91 L1650.24 1544.91 L1650.24 1518.55 L1641.93 1520.21 L1641.93 1515.95 L1650.19 1514.29 L1654.87 1514.29 L1654.87 1544.91 L1662.51 1544.91 L1662.51 1548.85 L1642.6 1548.85 L1642.6 1544.91 Z" fill="#000000" fill-rule="nonzero" fill-opacity="1" /><path clip-path="url(#clip160)" d="M1675.98 1544.91 L1692.3 1544.91 L1692.3 1548.85 L1670.35 1548.85 L1670.35 1544.91 Q1673.02 1542.16 1677.6 1537.53 Q1682.2 1532.88 1683.39 1531.53 Q1685.63 1529.01 1686.51 1527.27 Q1687.41 1525.51 1687.41 1523.82 Q1687.41 1521.07 1685.47 1519.33 Q1683.55 1517.6 1680.45 1517.6 Q1678.25 1517.6 1675.79 1518.36 Q1673.36 1519.13 1670.58 1520.68 L1670.58 1515.95 Q1673.41 1514.82 1675.86 1514.24 Q1678.32 1513.66 1680.35 1513.66 Q1685.72 1513.66 1688.92 1516.35 Q1692.11 1519.03 1692.11 1523.52 Q1692.11 1525.65 1691.3 1527.57 Q1690.52 1529.47 1688.41 1532.07 Q1687.83 1532.74 1684.73 1535.95 Q1681.63 1539.15 1675.98 1544.91 Z" fill="#000000" fill-rule="nonzero" fill-opacity="1" /><path clip-path="url(#clip160)" d="M2017.65 1544.91 L2025.29 1544.91 L2025.29 1518.55 L2016.98 1520.21 L2016.98 1515.95 L2025.24 1514.29 L2029.92 1514.29 L2029.92 1544.91 L2037.56 1544.91 L2037.56 1548.85 L2017.65 1548.85 L2017.65 1544.91 Z" fill="#000000" fill-rule="nonzero" fill-opacity="1" /><path clip-path="url(#clip160)" d="M2047.05 1514.29 L2065.4 1514.29 L2065.4 1518.22 L2051.33 1518.22 L2051.33 1526.7 Q2052.35 1526.35 2053.37 1526.19 Q2054.39 1526 2055.4 1526 Q2061.19 1526 2064.57 1529.17 Q2067.95 1532.34 2067.95 1537.76 Q2067.95 1543.34 2064.48 1546.44 Q2061.01 1549.52 2054.69 1549.52 Q2052.51 1549.52 2050.24 1549.15 Q2048 1548.78 2045.59 1548.04 L2045.59 1543.34 Q2047.67 1544.47 2049.9 1545.03 Q2052.12 1545.58 2054.59 1545.58 Q2058.6 1545.58 2060.94 1543.48 Q2063.27 1541.37 2063.27 1537.76 Q2063.27 1534.15 2060.94 1532.04 Q2058.6 1529.94 2054.59 1529.94 Q2052.72 1529.94 2050.84 1530.35 Q2048.99 1530.77 2047.05 1531.65 L2047.05 1514.29 Z" fill="#000000" fill-rule="nonzero" fill-opacity="1" /><polyline clip-path="url(#clip160)" style="stroke:#000000; stroke-linecap:round; stroke-linejoin:round; stroke-width:4; stroke-opacity:1; fill:none" points="230.765,1486.45 230.765,106.192 "/>
<polyline clip-path="url(#clip160)" style="stroke:#000000; stroke-linecap:round; stroke-linejoin:round; stroke-width:4; stroke-opacity:1; fill:none" points="230.765,1326.52 249.662,1326.52 "/>
<polyline clip-path="url(#clip160)" style="stroke:#000000; stroke-linecap:round; stroke-linejoin:round; stroke-width:4; stroke-opacity:1; fill:none" points="230.765,1117.42 249.662,1117.42 "/>
<polyline clip-path="url(#clip160)" style="stroke:#000000; stroke-linecap:round; stroke-linejoin:round; stroke-width:4; stroke-opacity:1; fill:none" points="230.765,908.313 249.662,908.313 "/>
<polyline clip-path="url(#clip160)" style="stroke:#000000; stroke-linecap:round; stroke-linejoin:round; stroke-width:4; stroke-opacity:1; fill:none" points="230.765,699.209 249.662,699.209 "/>
<polyline clip-path="url(#clip160)" style="stroke:#000000; stroke-linecap:round; stroke-linejoin:round; stroke-width:4; stroke-opacity:1; fill:none" points="230.765,490.105 249.662,490.105 "/>
<polyline clip-path="url(#clip160)" style="stroke:#000000; stroke-linecap:round; stroke-linejoin:round; stroke-width:4; stroke-opacity:1; fill:none" points="230.765,281.001 249.662,281.001 "/>
<path clip-path="url(#clip160)" d="M50.9921 1309.24 L73.2142 1309.24 L73.2142 1311.23 L60.668 1343.8 L55.7838 1343.8 L67.5893 1313.18 L50.9921 1313.18 L50.9921 1309.24 Z" fill="#000000" fill-rule="nonzero" fill-opacity="1" /><path clip-path="url(#clip160)" d="M96.5011 1325.17 Q99.8576 1325.89 101.733 1328.15 Q103.631 1330.42 103.631 1333.76 Q103.631 1338.87 100.112 1341.67 Q96.5937 1344.47 90.1123 1344.47 Q87.9364 1344.47 85.6216 1344.03 Q83.3299 1343.62 80.8762 1342.76 L80.8762 1338.25 Q82.8207 1339.38 85.1355 1339.96 Q87.4503 1340.54 89.9734 1340.54 Q94.3715 1340.54 96.6632 1338.8 Q98.978 1337.07 98.978 1333.76 Q98.978 1330.7 96.8252 1328.99 Q94.6956 1327.25 90.8762 1327.25 L86.8484 1327.25 L86.8484 1323.41 L91.0614 1323.41 Q94.5104 1323.41 96.3391 1322.04 Q98.1678 1320.65 98.1678 1318.06 Q98.1678 1315.4 96.2697 1313.99 Q94.3947 1312.55 90.8762 1312.55 Q88.9549 1312.55 86.7558 1312.97 Q84.5568 1313.39 81.9179 1314.26 L81.9179 1310.1 Q84.5799 1309.36 86.8947 1308.99 Q89.2327 1308.62 91.2928 1308.62 Q96.6169 1308.62 99.7187 1311.05 Q102.821 1313.45 102.821 1317.58 Q102.821 1320.45 101.177 1322.44 Q99.5335 1324.4 96.5011 1325.17 Z" fill="#000000" fill-rule="nonzero" fill-opacity="1" /><path clip-path="url(#clip160)" d="M122.496 1312.32 Q118.885 1312.32 117.057 1315.89 Q115.251 1319.43 115.251 1326.56 Q115.251 1333.66 117.057 1337.23 Q118.885 1340.77 122.496 1340.77 Q126.131 1340.77 127.936 1337.23 Q129.765 1333.66 129.765 1326.56 Q129.765 1319.43 127.936 1315.89 Q126.131 1312.32 122.496 1312.32 M122.496 1308.62 Q128.307 1308.62 131.362 1313.22 Q134.441 1317.81 134.441 1326.56 Q134.441 1335.28 131.362 1339.89 Q128.307 1344.47 122.496 1344.47 Q116.686 1344.47 113.608 1339.89 Q110.552 1335.28 110.552 1326.56 Q110.552 1317.81 113.608 1313.22 Q116.686 1308.62 122.496 1308.62 Z" fill="#000000" fill-rule="nonzero" fill-opacity="1" /><path clip-path="url(#clip160)" d="M152.658 1312.32 Q149.047 1312.32 147.218 1315.89 Q145.413 1319.43 145.413 1326.56 Q145.413 1333.66 147.218 1337.23 Q149.047 1340.77 152.658 1340.77 Q156.292 1340.77 158.098 1337.23 Q159.927 1333.66 159.927 1326.56 Q159.927 1319.43 158.098 1315.89 Q156.292 1312.32 152.658 1312.32 M152.658 1308.62 Q158.468 1308.62 161.524 1313.22 Q164.603 1317.81 164.603 1326.56 Q164.603 1335.28 161.524 1339.89 Q158.468 1344.47 152.658 1344.47 Q146.848 1344.47 143.769 1339.89 Q140.714 1335.28 140.714 1326.56 Q140.714 1317.81 143.769 1313.22 Q146.848 1308.62 152.658 1308.62 Z" fill="#000000" fill-rule="nonzero" fill-opacity="1" /><path clip-path="url(#clip160)" d="M182.82 1312.32 Q179.209 1312.32 177.38 1315.89 Q175.575 1319.43 175.575 1326.56 Q175.575 1333.66 177.38 1337.23 Q179.209 1340.77 182.82 1340.77 Q186.454 1340.77 188.26 1337.23 Q190.089 1333.66 190.089 1326.56 Q190.089 1319.43 188.26 1315.89 Q186.454 1312.32 182.82 1312.32 M182.82 1308.62 Q188.63 1308.62 191.686 1313.22 Q194.765 1317.81 194.765 1326.56 Q194.765 1335.28 191.686 1339.89 Q188.63 1344.47 182.82 1344.47 Q177.01 1344.47 173.931 1339.89 Q170.876 1335.28 170.876 1326.56 Q170.876 1317.81 173.931 1313.22 Q177.01 1308.62 182.82 1308.62 Z" fill="#000000" fill-rule="nonzero" fill-opacity="1" /><path clip-path="url(#clip160)" d="M50.9921 1100.14 L73.2142 1100.14 L73.2142 1102.13 L60.668 1134.7 L55.7838 1134.7 L67.5893 1104.07 L50.9921 1104.07 L50.9921 1100.14 Z" fill="#000000" fill-rule="nonzero" fill-opacity="1" /><path clip-path="url(#clip160)" d="M95.1817 1104.21 L83.3762 1122.66 L95.1817 1122.66 L95.1817 1104.21 M93.9549 1100.14 L99.8345 1100.14 L99.8345 1122.66 L104.765 1122.66 L104.765 1126.55 L99.8345 1126.55 L99.8345 1134.7 L95.1817 1134.7 L95.1817 1126.55 L79.5799 1126.55 L79.5799 1122.04 L93.9549 1100.14 Z" fill="#000000" fill-rule="nonzero" fill-opacity="1" /><path clip-path="url(#clip160)" d="M122.496 1103.22 Q118.885 1103.22 117.057 1106.78 Q115.251 1110.32 115.251 1117.45 Q115.251 1124.56 117.057 1128.12 Q118.885 1131.67 122.496 1131.67 Q126.131 1131.67 127.936 1128.12 Q129.765 1124.56 129.765 1117.45 Q129.765 1110.32 127.936 1106.78 Q126.131 1103.22 122.496 1103.22 M122.496 1099.51 Q128.307 1099.51 131.362 1104.12 Q134.441 1108.7 134.441 1117.45 Q134.441 1126.18 131.362 1130.79 Q128.307 1135.37 122.496 1135.37 Q116.686 1135.37 113.608 1130.79 Q110.552 1126.18 110.552 1117.45 Q110.552 1108.7 113.608 1104.12 Q116.686 1099.51 122.496 1099.51 Z" fill="#000000" fill-rule="nonzero" fill-opacity="1" /><path clip-path="url(#clip160)" d="M152.658 1103.22 Q149.047 1103.22 147.218 1106.78 Q145.413 1110.32 145.413 1117.45 Q145.413 1124.56 147.218 1128.12 Q149.047 1131.67 152.658 1131.67 Q156.292 1131.67 158.098 1128.12 Q159.927 1124.56 159.927 1117.45 Q159.927 1110.32 158.098 1106.78 Q156.292 1103.22 152.658 1103.22 M152.658 1099.51 Q158.468 1099.51 161.524 1104.12 Q164.603 1108.7 164.603 1117.45 Q164.603 1126.18 161.524 1130.79 Q158.468 1135.37 152.658 1135.37 Q146.848 1135.37 143.769 1130.79 Q140.714 1126.18 140.714 1117.45 Q140.714 1108.7 143.769 1104.12 Q146.848 1099.51 152.658 1099.51 Z" fill="#000000" fill-rule="nonzero" fill-opacity="1" /><path clip-path="url(#clip160)" d="M182.82 1103.22 Q179.209 1103.22 177.38 1106.78 Q175.575 1110.32 175.575 1117.45 Q175.575 1124.56 177.38 1128.12 Q179.209 1131.67 182.82 1131.67 Q186.454 1131.67 188.26 1128.12 Q190.089 1124.56 190.089 1117.45 Q190.089 1110.32 188.26 1106.78 Q186.454 1103.22 182.82 1103.22 M182.82 1099.51 Q188.63 1099.51 191.686 1104.12 Q194.765 1108.7 194.765 1117.45 Q194.765 1126.18 191.686 1130.79 Q188.63 1135.37 182.82 1135.37 Q177.01 1135.37 173.931 1130.79 Q170.876 1126.18 170.876 1117.45 Q170.876 1108.7 173.931 1104.12 Q177.01 1099.51 182.82 1099.51 Z" fill="#000000" fill-rule="nonzero" fill-opacity="1" /><path clip-path="url(#clip160)" d="M50.9921 891.033 L73.2142 891.033 L73.2142 893.024 L60.668 925.593 L55.7838 925.593 L67.5893 894.969 L50.9921 894.969 L50.9921 891.033 Z" fill="#000000" fill-rule="nonzero" fill-opacity="1" /><path clip-path="url(#clip160)" d="M82.3808 891.033 L100.737 891.033 L100.737 894.969 L86.6632 894.969 L86.6632 903.441 Q87.6817 903.094 88.7003 902.931 Q89.7188 902.746 90.7373 902.746 Q96.5243 902.746 99.9039 905.918 Q103.284 909.089 103.284 914.506 Q103.284 920.084 99.8113 923.186 Q96.3391 926.265 90.0197 926.265 Q87.8438 926.265 85.5753 925.894 Q83.3299 925.524 80.9225 924.783 L80.9225 920.084 Q83.0058 921.218 85.2281 921.774 Q87.4503 922.33 89.9271 922.33 Q93.9317 922.33 96.2697 920.223 Q98.6076 918.117 98.6076 914.506 Q98.6076 910.894 96.2697 908.788 Q93.9317 906.681 89.9271 906.681 Q88.0521 906.681 86.1771 907.098 Q84.3253 907.515 82.3808 908.394 L82.3808 891.033 Z" fill="#000000" fill-rule="nonzero" fill-opacity="1" /><path clip-path="url(#clip160)" d="M122.496 894.112 Q118.885 894.112 117.057 897.677 Q115.251 901.219 115.251 908.348 Q115.251 915.455 117.057 919.019 Q118.885 922.561 122.496 922.561 Q126.131 922.561 127.936 919.019 Q129.765 915.455 129.765 908.348 Q129.765 901.219 127.936 897.677 Q126.131 894.112 122.496 894.112 M122.496 890.408 Q128.307 890.408 131.362 895.015 Q134.441 899.598 134.441 908.348 Q134.441 917.075 131.362 921.681 Q128.307 926.265 122.496 926.265 Q116.686 926.265 113.608 921.681 Q110.552 917.075 110.552 908.348 Q110.552 899.598 113.608 895.015 Q116.686 890.408 122.496 890.408 Z" fill="#000000" fill-rule="nonzero" fill-opacity="1" /><path clip-path="url(#clip160)" d="M152.658 894.112 Q149.047 894.112 147.218 897.677 Q145.413 901.219 145.413 908.348 Q145.413 915.455 147.218 919.019 Q149.047 922.561 152.658 922.561 Q156.292 922.561 158.098 919.019 Q159.927 915.455 159.927 908.348 Q159.927 901.219 158.098 897.677 Q156.292 894.112 152.658 894.112 M152.658 890.408 Q158.468 890.408 161.524 895.015 Q164.603 899.598 164.603 908.348 Q164.603 917.075 161.524 921.681 Q158.468 926.265 152.658 926.265 Q146.848 926.265 143.769 921.681 Q140.714 917.075 140.714 908.348 Q140.714 899.598 143.769 895.015 Q146.848 890.408 152.658 890.408 Z" fill="#000000" fill-rule="nonzero" fill-opacity="1" /><path clip-path="url(#clip160)" d="M182.82 894.112 Q179.209 894.112 177.38 897.677 Q175.575 901.219 175.575 908.348 Q175.575 915.455 177.38 919.019 Q179.209 922.561 182.82 922.561 Q186.454 922.561 188.26 919.019 Q190.089 915.455 190.089 908.348 Q190.089 901.219 188.26 897.677 Q186.454 894.112 182.82 894.112 M182.82 890.408 Q188.63 890.408 191.686 895.015 Q194.765 899.598 194.765 908.348 Q194.765 917.075 191.686 921.681 Q188.63 926.265 182.82 926.265 Q177.01 926.265 173.931 921.681 Q170.876 917.075 170.876 908.348 Q170.876 899.598 173.931 895.015 Q177.01 890.408 182.82 890.408 Z" fill="#000000" fill-rule="nonzero" fill-opacity="1" /><path clip-path="url(#clip160)" d="M50.9921 681.929 L73.2142 681.929 L73.2142 683.92 L60.668 716.489 L55.7838 716.489 L67.5893 685.864 L50.9921 685.864 L50.9921 681.929 Z" fill="#000000" fill-rule="nonzero" fill-opacity="1" /><path clip-path="url(#clip160)" d="M92.9132 697.346 Q89.7651 697.346 87.9132 699.499 Q86.0845 701.651 86.0845 705.401 Q86.0845 709.128 87.9132 711.304 Q89.7651 713.457 92.9132 713.457 Q96.0613 713.457 97.89 711.304 Q99.7419 709.128 99.7419 705.401 Q99.7419 701.651 97.89 699.499 Q96.0613 697.346 92.9132 697.346 M102.196 682.693 L102.196 686.952 Q100.436 686.119 98.6308 685.679 Q96.8484 685.239 95.0891 685.239 Q90.4595 685.239 88.0058 688.364 Q85.5753 691.489 85.2281 697.809 Q86.5938 695.795 88.654 694.73 Q90.7141 693.642 93.191 693.642 Q98.3993 693.642 101.409 696.813 Q104.441 699.962 104.441 705.401 Q104.441 710.725 101.293 713.943 Q98.1447 717.161 92.9132 717.161 Q86.9179 717.161 83.7466 712.577 Q80.5753 707.971 80.5753 699.244 Q80.5753 691.05 84.4642 686.188 Q88.353 681.304 94.9039 681.304 Q96.6632 681.304 98.4456 681.651 Q100.251 681.999 102.196 682.693 Z" fill="#000000" fill-rule="nonzero" fill-opacity="1" /><path clip-path="url(#clip160)" d="M122.496 685.008 Q118.885 685.008 117.057 688.573 Q115.251 692.114 115.251 699.244 Q115.251 706.35 117.057 709.915 Q118.885 713.457 122.496 713.457 Q126.131 713.457 127.936 709.915 Q129.765 706.35 129.765 699.244 Q129.765 692.114 127.936 688.573 Q126.131 685.008 122.496 685.008 M122.496 681.304 Q128.307 681.304 131.362 685.911 Q134.441 690.494 134.441 699.244 Q134.441 707.971 131.362 712.577 Q128.307 717.161 122.496 717.161 Q116.686 717.161 113.608 712.577 Q110.552 707.971 110.552 699.244 Q110.552 690.494 113.608 685.911 Q116.686 681.304 122.496 681.304 Z" fill="#000000" fill-rule="nonzero" fill-opacity="1" /><path clip-path="url(#clip160)" d="M152.658 685.008 Q149.047 685.008 147.218 688.573 Q145.413 692.114 145.413 699.244 Q145.413 706.35 147.218 709.915 Q149.047 713.457 152.658 713.457 Q156.292 713.457 158.098 709.915 Q159.927 706.35 159.927 699.244 Q159.927 692.114 158.098 688.573 Q156.292 685.008 152.658 685.008 M152.658 681.304 Q158.468 681.304 161.524 685.911 Q164.603 690.494 164.603 699.244 Q164.603 707.971 161.524 712.577 Q158.468 717.161 152.658 717.161 Q146.848 717.161 143.769 712.577 Q140.714 707.971 140.714 699.244 Q140.714 690.494 143.769 685.911 Q146.848 681.304 152.658 681.304 Z" fill="#000000" fill-rule="nonzero" fill-opacity="1" /><path clip-path="url(#clip160)" d="M182.82 685.008 Q179.209 685.008 177.38 688.573 Q175.575 692.114 175.575 699.244 Q175.575 706.35 177.38 709.915 Q179.209 713.457 182.82 713.457 Q186.454 713.457 188.26 709.915 Q190.089 706.35 190.089 699.244 Q190.089 692.114 188.26 688.573 Q186.454 685.008 182.82 685.008 M182.82 681.304 Q188.63 681.304 191.686 685.911 Q194.765 690.494 194.765 699.244 Q194.765 707.971 191.686 712.577 Q188.63 717.161 182.82 717.161 Q177.01 717.161 173.931 712.577 Q170.876 707.971 170.876 699.244 Q170.876 690.494 173.931 685.911 Q177.01 681.304 182.82 681.304 Z" fill="#000000" fill-rule="nonzero" fill-opacity="1" /><path clip-path="url(#clip160)" d="M50.9921 472.825 L73.2142 472.825 L73.2142 474.816 L60.668 507.385 L55.7838 507.385 L67.5893 476.76 L50.9921 476.76 L50.9921 472.825 Z" fill="#000000" fill-rule="nonzero" fill-opacity="1" /><path clip-path="url(#clip160)" d="M81.154 472.825 L103.376 472.825 L103.376 474.816 L90.8299 507.385 L85.9456 507.385 L97.7511 476.76 L81.154 476.76 L81.154 472.825 Z" fill="#000000" fill-rule="nonzero" fill-opacity="1" /><path clip-path="url(#clip160)" d="M122.496 475.904 Q118.885 475.904 117.057 479.468 Q115.251 483.01 115.251 490.14 Q115.251 497.246 117.057 500.811 Q118.885 504.353 122.496 504.353 Q126.131 504.353 127.936 500.811 Q129.765 497.246 129.765 490.14 Q129.765 483.01 127.936 479.468 Q126.131 475.904 122.496 475.904 M122.496 472.2 Q128.307 472.2 131.362 476.806 Q134.441 481.39 134.441 490.14 Q134.441 498.867 131.362 503.473 Q128.307 508.056 122.496 508.056 Q116.686 508.056 113.608 503.473 Q110.552 498.867 110.552 490.14 Q110.552 481.39 113.608 476.806 Q116.686 472.2 122.496 472.2 Z" fill="#000000" fill-rule="nonzero" fill-opacity="1" /><path clip-path="url(#clip160)" d="M152.658 475.904 Q149.047 475.904 147.218 479.468 Q145.413 483.01 145.413 490.14 Q145.413 497.246 147.218 500.811 Q149.047 504.353 152.658 504.353 Q156.292 504.353 158.098 500.811 Q159.927 497.246 159.927 490.14 Q159.927 483.01 158.098 479.468 Q156.292 475.904 152.658 475.904 M152.658 472.2 Q158.468 472.2 161.524 476.806 Q164.603 481.39 164.603 490.14 Q164.603 498.867 161.524 503.473 Q158.468 508.056 152.658 508.056 Q146.848 508.056 143.769 503.473 Q140.714 498.867 140.714 490.14 Q140.714 481.39 143.769 476.806 Q146.848 472.2 152.658 472.2 Z" fill="#000000" fill-rule="nonzero" fill-opacity="1" /><path clip-path="url(#clip160)" d="M182.82 475.904 Q179.209 475.904 177.38 479.468 Q175.575 483.01 175.575 490.14 Q175.575 497.246 177.38 500.811 Q179.209 504.353 182.82 504.353 Q186.454 504.353 188.26 500.811 Q190.089 497.246 190.089 490.14 Q190.089 483.01 188.26 479.468 Q186.454 475.904 182.82 475.904 M182.82 472.2 Q188.63 472.2 191.686 476.806 Q194.765 481.39 194.765 490.14 Q194.765 498.867 191.686 503.473 Q188.63 508.056 182.82 508.056 Q177.01 508.056 173.931 503.473 Q170.876 498.867 170.876 490.14 Q170.876 481.39 173.931 476.806 Q177.01 472.2 182.82 472.2 Z" fill="#000000" fill-rule="nonzero" fill-opacity="1" /><path clip-path="url(#clip160)" d="M50.9921 263.721 L73.2142 263.721 L73.2142 265.712 L60.668 298.281 L55.7838 298.281 L67.5893 267.656 L50.9921 267.656 L50.9921 263.721 Z" fill="#000000" fill-rule="nonzero" fill-opacity="1" /><path clip-path="url(#clip160)" d="M92.3345 281.869 Q89.0012 281.869 87.0799 283.651 Q85.1818 285.434 85.1818 288.559 Q85.1818 291.684 87.0799 293.466 Q89.0012 295.248 92.3345 295.248 Q95.6678 295.248 97.5891 293.466 Q99.5104 291.66 99.5104 288.559 Q99.5104 285.434 97.5891 283.651 Q95.691 281.869 92.3345 281.869 M87.6586 279.878 Q84.6494 279.137 82.9595 277.077 Q81.2929 275.017 81.2929 272.054 Q81.2929 267.911 84.2327 265.503 Q87.1956 263.096 92.3345 263.096 Q97.4965 263.096 100.436 265.503 Q103.376 267.911 103.376 272.054 Q103.376 275.017 101.686 277.077 Q100.02 279.137 97.0335 279.878 Q100.413 280.665 102.288 282.957 Q104.186 285.248 104.186 288.559 Q104.186 293.582 101.108 296.267 Q98.0521 298.952 92.3345 298.952 Q86.6169 298.952 83.5382 296.267 Q80.4827 293.582 80.4827 288.559 Q80.4827 285.248 82.3808 282.957 Q84.279 280.665 87.6586 279.878 M85.9456 272.494 Q85.9456 275.179 87.6123 276.684 Q89.3021 278.188 92.3345 278.188 Q95.3437 278.188 97.0335 276.684 Q98.7465 275.179 98.7465 272.494 Q98.7465 269.809 97.0335 268.304 Q95.3437 266.8 92.3345 266.8 Q89.3021 266.8 87.6123 268.304 Q85.9456 269.809 85.9456 272.494 Z" fill="#000000" fill-rule="nonzero" fill-opacity="1" /><path clip-path="url(#clip160)" d="M122.496 266.8 Q118.885 266.8 117.057 270.364 Q115.251 273.906 115.251 281.036 Q115.251 288.142 117.057 291.707 Q118.885 295.248 122.496 295.248 Q126.131 295.248 127.936 291.707 Q129.765 288.142 129.765 281.036 Q129.765 273.906 127.936 270.364 Q126.131 266.8 122.496 266.8 M122.496 263.096 Q128.307 263.096 131.362 267.702 Q134.441 272.286 134.441 281.036 Q134.441 289.762 131.362 294.369 Q128.307 298.952 122.496 298.952 Q116.686 298.952 113.608 294.369 Q110.552 289.762 110.552 281.036 Q110.552 272.286 113.608 267.702 Q116.686 263.096 122.496 263.096 Z" fill="#000000" fill-rule="nonzero" fill-opacity="1" /><path clip-path="url(#clip160)" d="M152.658 266.8 Q149.047 266.8 147.218 270.364 Q145.413 273.906 145.413 281.036 Q145.413 288.142 147.218 291.707 Q149.047 295.248 152.658 295.248 Q156.292 295.248 158.098 291.707 Q159.927 288.142 159.927 281.036 Q159.927 273.906 158.098 270.364 Q156.292 266.8 152.658 266.8 M152.658 263.096 Q158.468 263.096 161.524 267.702 Q164.603 272.286 164.603 281.036 Q164.603 289.762 161.524 294.369 Q158.468 298.952 152.658 298.952 Q146.848 298.952 143.769 294.369 Q140.714 289.762 140.714 281.036 Q140.714 272.286 143.769 267.702 Q146.848 263.096 152.658 263.096 Z" fill="#000000" fill-rule="nonzero" fill-opacity="1" /><path clip-path="url(#clip160)" d="M182.82 266.8 Q179.209 266.8 177.38 270.364 Q175.575 273.906 175.575 281.036 Q175.575 288.142 177.38 291.707 Q179.209 295.248 182.82 295.248 Q186.454 295.248 188.26 291.707 Q190.089 288.142 190.089 281.036 Q190.089 273.906 188.26 270.364 Q186.454 266.8 182.82 266.8 M182.82 263.096 Q188.63 263.096 191.686 267.702 Q194.765 272.286 194.765 281.036 Q194.765 289.762 191.686 294.369 Q188.63 298.952 182.82 298.952 Q177.01 298.952 173.931 294.369 Q170.876 289.762 170.876 281.036 Q170.876 272.286 173.931 267.702 Q177.01 263.096 182.82 263.096 Z" fill="#000000" fill-rule="nonzero" fill-opacity="1" /><path clip-path="url(#clip160)" d="M1262.23 35.2602 Q1262.23 29.4732 1259.83 26.2904 Q1257.46 23.1075 1253.15 23.1075 Q1248.86 23.1075 1246.46 26.2904 Q1244.09 29.4732 1244.09 35.2602 Q1244.09 41.0183 1246.46 44.2012 Q1248.86 47.384 1253.15 47.384 Q1257.46 47.384 1259.83 44.2012 Q1262.23 41.0183 1262.23 35.2602 M1267.56 47.818 Q1267.56 56.0934 1263.88 60.1154 Q1260.21 64.1663 1252.63 64.1663 Q1249.82 64.1663 1247.33 63.7323 Q1244.84 63.3272 1242.5 62.4592 L1242.5 57.2798 Q1244.84 58.5529 1247.13 59.1606 Q1249.41 59.7682 1251.79 59.7682 Q1257.02 59.7682 1259.63 57.0194 Q1262.23 54.2995 1262.23 48.7729 L1262.23 46.1398 Q1260.58 49.0044 1258.01 50.4222 Q1255.43 51.84 1251.84 51.84 Q1245.88 51.84 1242.24 47.2972 Q1238.59 42.7544 1238.59 35.2602 Q1238.59 27.7371 1242.24 23.1943 Q1245.88 18.6515 1251.84 18.6515 Q1255.43 18.6515 1258.01 20.0693 Q1260.58 21.4872 1262.23 24.3517 L1262.23 19.4328 L1267.56 19.4328 L1267.56 47.818 Z" fill="#000000" fill-rule="nonzero" fill-opacity="1" /><path clip-path="url(#clip160)" d="M1299.85 24.3517 L1299.85 6.81709 L1305.17 6.81709 L1305.17 51.84 L1299.85 51.84 L1299.85 46.9789 Q1298.17 49.8724 1295.59 51.2902 Q1293.05 52.6791 1289.46 52.6791 Q1283.59 52.6791 1279.88 47.9916 Q1276.21 43.3042 1276.21 35.6653 Q1276.21 28.0265 1279.88 23.339 Q1283.59 18.6515 1289.46 18.6515 Q1293.05 18.6515 1295.59 20.0693 Q1298.17 21.4582 1299.85 24.3517 M1281.71 35.6653 Q1281.71 41.5391 1284.11 44.8956 Q1286.54 48.2231 1290.76 48.2231 Q1294.99 48.2231 1297.42 44.8956 Q1299.85 41.5391 1299.85 35.6653 Q1299.85 29.7915 1297.42 26.464 Q1294.99 23.1075 1290.76 23.1075 Q1286.54 23.1075 1284.11 26.464 Q1281.71 29.7915 1281.71 35.6653 Z" fill="#000000" fill-rule="nonzero" fill-opacity="1" /><path clip-path="url(#clip160)" d="M1321.29 46.9789 L1321.29 64.1663 L1315.94 64.1663 L1315.94 19.4328 L1321.29 19.4328 L1321.29 24.3517 Q1322.97 21.4582 1325.51 20.0693 Q1328.09 18.6515 1331.65 18.6515 Q1337.55 18.6515 1341.22 23.339 Q1344.93 28.0265 1344.93 35.6653 Q1344.93 43.3042 1341.22 47.9916 Q1337.55 52.6791 1331.65 52.6791 Q1328.09 52.6791 1325.51 51.2902 Q1322.97 49.8724 1321.29 46.9789 M1339.4 35.6653 Q1339.4 29.7915 1336.97 26.464 Q1334.57 23.1075 1330.35 23.1075 Q1326.12 23.1075 1323.69 26.464 Q1321.29 29.7915 1321.29 35.6653 Q1321.29 41.5391 1323.69 44.8956 Q1326.12 48.2231 1330.35 48.2231 Q1334.57 48.2231 1336.97 44.8956 Q1339.4 41.5391 1339.4 35.6653 Z" fill="#000000" fill-rule="nonzero" fill-opacity="1" /><polyline clip-path="url(#clip162)" style="stroke:#009af9; stroke-linecap:round; stroke-linejoin:round; stroke-width:4; stroke-opacity:1; fill:none" points="290.821,1447.38 415.938,1433.09 541.056,1213.66 666.173,1047.46 791.291,802.363 916.408,636.158 1041.53,705.486 1166.64,572.903 1291.76,581.221 1416.88,514.637 1542,390.703 1667.11,333.779 1792.23,145.256 1917.35,310.124 2042.46,309.165 2167.58,236.421 2292.7,476.928 "/>
<path clip-path="url(#clip160)" d="M301.498 255.881 L566.127 255.881 L566.127 152.201 L301.498 152.201  Z" fill="#ffffff" fill-rule="evenodd" fill-opacity="1"/>
<polyline clip-path="url(#clip160)" style="stroke:#000000; stroke-linecap:round; stroke-linejoin:round; stroke-width:4; stroke-opacity:1; fill:none" points="301.498,255.881 566.127,255.881 566.127,152.201 301.498,152.201 301.498,255.881 "/>
<polyline clip-path="url(#clip160)" style="stroke:#009af9; stroke-linecap:round; stroke-linejoin:round; stroke-width:4; stroke-opacity:1; fill:none" points="325.075,204.041 466.541,204.041 "/>
<path clip-path="url(#clip160)" d="M503.962 223.728 Q502.156 228.358 500.443 229.77 Q498.73 231.182 495.86 231.182 L492.457 231.182 L492.457 227.617 L494.957 227.617 Q496.716 227.617 497.688 226.784 Q498.661 225.95 499.841 222.848 L500.605 220.904 L490.119 195.395 L494.633 195.395 L502.735 215.673 L510.836 195.395 L515.35 195.395 L503.962 223.728 Z" fill="#000000" fill-rule="nonzero" fill-opacity="1" /><path clip-path="url(#clip160)" d="M522.642 217.385 L530.281 217.385 L530.281 191.02 L521.971 192.687 L521.971 188.427 L530.235 186.761 L534.91 186.761 L534.91 217.385 L542.549 217.385 L542.549 221.321 L522.642 221.321 L522.642 217.385 Z" fill="#000000" fill-rule="nonzero" fill-opacity="1" /></svg>
