<?xml version="1.0" encoding="utf-8"?>
<svg xmlns="http://www.w3.org/2000/svg" xmlns:xlink="http://www.w3.org/1999/xlink" width="600" height="300" viewBox="0 0 2400 1200">
<defs>
  <clipPath id="clip340">
    <rect x="0" y="0" width="2400" height="1200"/>
  </clipPath>
</defs>
<path clip-path="url(#clip340)" d="M0 1200 L2400 1200 L2400 0 L0 0  Z" fill="#ffffff" fill-rule="evenodd" fill-opacity="1"/>
<defs>
  <clipPath id="clip341">
    <rect x="480" y="0" width="1681" height="1200"/>
  </clipPath>
</defs>
<path clip-path="url(#clip340)" d="M216.436 1099.09 L1168.88 1099.09 L1168.88 92.1521 L216.436 92.1521  Z" fill="#ffffff" fill-rule="evenodd" fill-opacity="1"/>
<defs>
  <clipPath id="clip342">
    <rect x="216" y="92" width="953" height="1008"/>
  </clipPath>
</defs>
<polyline clip-path="url(#clip342)" style="stroke:#000000; stroke-linecap:round; stroke-linejoin:round; stroke-width:2; stroke-opacity:0.1; fill:none" points="423.098,1099.09 423.098,92.1521 "/>
<polyline clip-path="url(#clip342)" style="stroke:#000000; stroke-linecap:round; stroke-linejoin:round; stroke-width:2; stroke-opacity:0.1; fill:none" points="647.731,1099.09 647.731,92.1521 "/>
<polyline clip-path="url(#clip342)" style="stroke:#000000; stroke-linecap:round; stroke-linejoin:round; stroke-width:2; stroke-opacity:0.1; fill:none" points="872.363,1099.09 872.363,92.1521 "/>
<polyline clip-path="url(#clip342)" style="stroke:#000000; stroke-linecap:round; stroke-linejoin:round; stroke-width:2; stroke-opacity:0.1; fill:none" points="1097,1099.09 1097,92.1521 "/>
<polyline clip-path="url(#clip342)" style="stroke:#000000; stroke-linecap:round; stroke-linejoin:round; stroke-width:2; stroke-opacity:0.1; fill:none" points="216.436,1092.85 1168.88,1092.85 "/>
<polyline clip-path="url(#clip342)" style="stroke:#000000; stroke-linecap:round; stroke-linejoin:round; stroke-width:2; stroke-opacity:0.1; fill:none" points="216.436,849.802 1168.88,849.802 "/>
<polyline clip-path="url(#clip342)" style="stroke:#000000; stroke-linecap:round; stroke-linejoin:round; stroke-width:2; stroke-opacity:0.1; fill:none" points="216.436,606.751 1168.88,606.751 "/>
<polyline clip-path="url(#clip342)" style="stroke:#000000; stroke-linecap:round; stroke-linejoin:round; stroke-width:2; stroke-opacity:0.1; fill:none" points="216.436,363.701 1168.88,363.701 "/>
<polyline clip-path="url(#clip342)" style="stroke:#000000; stroke-linecap:round; stroke-linejoin:round; stroke-width:2; stroke-opacity:0.1; fill:none" points="216.436,120.65 1168.88,120.65 "/>
<polyline clip-path="url(#clip340)" style="stroke:#000000; stroke-linecap:round; stroke-linejoin:round; stroke-width:4; stroke-opacity:1; fill:none" points="216.436,1099.09 1168.88,1099.09 "/>
<polyline clip-path="url(#clip340)" style="stroke:#000000; stroke-linecap:round; stroke-linejoin:round; stroke-width:4; stroke-opacity:1; fill:none" points="423.098,1099.09 423.098,1080.19 "/>
<polyline clip-path="url(#clip340)" style="stroke:#000000; stroke-linecap:round; stroke-linejoin:round; stroke-width:4; stroke-opacity:1; fill:none" points="647.731,1099.09 647.731,1080.19 "/>
<polyline clip-path="url(#clip340)" style="stroke:#000000; stroke-linecap:round; stroke-linejoin:round; stroke-width:4; stroke-opacity:1; fill:none" points="872.363,1099.09 872.363,1080.19 "/>
<polyline clip-path="url(#clip340)" style="stroke:#000000; stroke-linecap:round; stroke-linejoin:round; stroke-width:4; stroke-opacity:1; fill:none" points="1097,1099.09 1097,1080.19 "/>
<path clip-path="url(#clip340)" d="M413.376 1126.93 L431.732 1126.93 L431.732 1130.86 L417.658 1130.86 L417.658 1139.34 Q418.677 1138.99 419.695 1138.83 Q420.714 1138.64 421.732 1138.64 Q427.519 1138.64 430.899 1141.81 Q434.278 1144.98 434.278 1150.4 Q434.278 1155.98 430.806 1159.08 Q427.334 1162.16 421.015 1162.16 Q418.839 1162.16 416.57 1161.79 Q414.325 1161.42 411.917 1160.68 L411.917 1155.98 Q414.001 1157.11 416.223 1157.67 Q418.445 1158.22 420.922 1158.22 Q424.927 1158.22 427.265 1156.12 Q429.603 1154.01 429.603 1150.4 Q429.603 1146.79 427.265 1144.68 Q424.927 1142.58 420.922 1142.58 Q419.047 1142.58 417.172 1142.99 Q415.32 1143.41 413.376 1144.29 L413.376 1126.93 Z" fill="#000000" fill-rule="nonzero" fill-opacity="1" /><path clip-path="url(#clip340)" d="M622.418 1157.55 L630.057 1157.55 L630.057 1131.19 L621.747 1132.85 L621.747 1128.59 L630.011 1126.93 L634.687 1126.93 L634.687 1157.55 L642.326 1157.55 L642.326 1161.49 L622.418 1161.49 L622.418 1157.55 Z" fill="#000000" fill-rule="nonzero" fill-opacity="1" /><path clip-path="url(#clip340)" d="M661.77 1130.01 Q658.159 1130.01 656.33 1133.57 Q654.525 1137.11 654.525 1144.24 Q654.525 1151.35 656.33 1154.91 Q658.159 1158.46 661.77 1158.46 Q665.404 1158.46 667.21 1154.91 Q669.038 1151.35 669.038 1144.24 Q669.038 1137.11 667.21 1133.57 Q665.404 1130.01 661.77 1130.01 M661.77 1126.3 Q667.58 1126.3 670.636 1130.91 Q673.714 1135.49 673.714 1144.24 Q673.714 1152.97 670.636 1157.58 Q667.58 1162.16 661.77 1162.16 Q655.96 1162.16 652.881 1157.58 Q649.826 1152.97 649.826 1144.24 Q649.826 1135.49 652.881 1130.91 Q655.96 1126.3 661.77 1126.3 Z" fill="#000000" fill-rule="nonzero" fill-opacity="1" /><path clip-path="url(#clip340)" d="M847.549 1157.55 L855.188 1157.55 L855.188 1131.19 L846.877 1132.85 L846.877 1128.59 L855.141 1126.93 L859.817 1126.93 L859.817 1157.55 L867.456 1157.55 L867.456 1161.49 L847.549 1161.49 L847.549 1157.55 Z" fill="#000000" fill-rule="nonzero" fill-opacity="1" /><path clip-path="url(#clip340)" d="M876.947 1126.93 L895.303 1126.93 L895.303 1130.86 L881.229 1130.86 L881.229 1139.34 Q882.248 1138.99 883.266 1138.83 Q884.285 1138.64 885.303 1138.64 Q891.09 1138.64 894.47 1141.81 Q897.849 1144.98 897.849 1150.4 Q897.849 1155.98 894.377 1159.08 Q890.905 1162.16 884.586 1162.16 Q882.41 1162.16 880.141 1161.79 Q877.896 1161.42 875.488 1160.68 L875.488 1155.98 Q877.572 1157.11 879.794 1157.67 Q882.016 1158.22 884.493 1158.22 Q888.498 1158.22 890.835 1156.12 Q893.173 1154.01 893.173 1150.4 Q893.173 1146.79 890.835 1144.68 Q888.498 1142.58 884.493 1142.58 Q882.618 1142.58 880.743 1142.99 Q878.891 1143.41 876.947 1144.29 L876.947 1126.93 Z" fill="#000000" fill-rule="nonzero" fill-opacity="1" /><path clip-path="url(#clip340)" d="M1075.77 1157.55 L1092.09 1157.55 L1092.09 1161.49 L1070.14 1161.49 L1070.14 1157.55 Q1072.81 1154.8 1077.39 1150.17 Q1082 1145.52 1083.18 1144.17 Q1085.42 1141.65 1086.3 1139.91 Q1087.2 1138.15 1087.2 1136.46 Q1087.2 1133.71 1085.26 1131.97 Q1083.34 1130.24 1080.24 1130.24 Q1078.04 1130.24 1075.58 1131 Q1073.15 1131.77 1070.38 1133.32 L1070.38 1128.59 Q1073.2 1127.46 1075.65 1126.88 Q1078.11 1126.3 1080.14 1126.3 Q1085.51 1126.3 1088.71 1128.99 Q1091.9 1131.67 1091.9 1136.16 Q1091.9 1138.29 1091.09 1140.21 Q1090.31 1142.11 1088.2 1144.71 Q1087.62 1145.38 1084.52 1148.59 Q1081.42 1151.79 1075.77 1157.55 Z" fill="#000000" fill-rule="nonzero" fill-opacity="1" /><path clip-path="url(#clip340)" d="M1111.9 1130.01 Q1108.29 1130.01 1106.46 1133.57 Q1104.66 1137.11 1104.66 1144.24 Q1104.66 1151.35 1106.46 1154.91 Q1108.29 1158.46 1111.9 1158.46 Q1115.54 1158.46 1117.34 1154.91 Q1119.17 1151.35 1119.17 1144.24 Q1119.17 1137.11 1117.34 1133.57 Q1115.54 1130.01 1111.9 1130.01 M1111.9 1126.3 Q1117.71 1126.3 1120.77 1130.91 Q1123.85 1135.49 1123.85 1144.24 Q1123.85 1152.97 1120.77 1157.58 Q1117.71 1162.16 1111.9 1162.16 Q1106.09 1162.16 1103.01 1157.58 Q1099.96 1152.97 1099.96 1144.24 Q1099.96 1135.49 1103.01 1130.91 Q1106.09 1126.3 1111.9 1126.3 Z" fill="#000000" fill-rule="nonzero" fill-opacity="1" /><polyline clip-path="url(#clip340)" style="stroke:#000000; stroke-linecap:round; stroke-linejoin:round; stroke-width:4; stroke-opacity:1; fill:none" points="216.436,1099.09 216.436,92.1521 "/>
<polyline clip-path="url(#clip340)" style="stroke:#000000; stroke-linecap:round; stroke-linejoin:round; stroke-width:4; stroke-opacity:1; fill:none" points="216.436,1092.85 235.334,1092.85 "/>
<polyline clip-path="url(#clip340)" style="stroke:#000000; stroke-linecap:round; stroke-linejoin:round; stroke-width:4; stroke-opacity:1; fill:none" points="216.436,849.802 235.334,849.802 "/>
<polyline clip-path="url(#clip340)" style="stroke:#000000; stroke-linecap:round; stroke-linejoin:round; stroke-width:4; stroke-opacity:1; fill:none" points="216.436,606.751 235.334,606.751 "/>
<polyline clip-path="url(#clip340)" style="stroke:#000000; stroke-linecap:round; stroke-linejoin:round; stroke-width:4; stroke-opacity:1; fill:none" points="216.436,363.701 235.334,363.701 "/>
<polyline clip-path="url(#clip340)" style="stroke:#000000; stroke-linecap:round; stroke-linejoin:round; stroke-width:4; stroke-opacity:1; fill:none" points="216.436,120.65 235.334,120.65 "/>
<path clip-path="url(#clip340)" d="M62.9365 1078.65 Q59.3254 1078.65 57.4967 1082.22 Q55.6912 1085.76 55.6912 1092.89 Q55.6912 1099.99 57.4967 1103.56 Q59.3254 1107.1 62.9365 1107.1 Q66.5707 1107.1 68.3763 1103.56 Q70.205 1099.99 70.205 1092.89 Q70.205 1085.76 68.3763 1082.22 Q66.5707 1078.65 62.9365 1078.65 M62.9365 1074.95 Q68.7467 1074.95 71.8022 1079.55 Q74.8809 1084.14 74.8809 1092.89 Q74.8809 1101.61 71.8022 1106.22 Q68.7467 1110.8 62.9365 1110.8 Q57.1264 1110.8 54.0477 1106.22 Q50.9921 1101.61 50.9921 1092.89 Q50.9921 1084.14 54.0477 1079.55 Q57.1264 1074.95 62.9365 1074.95 Z" fill="#000000" fill-rule="nonzero" fill-opacity="1" /><path clip-path="url(#clip340)" d="M83.0984 1104.25 L87.9827 1104.25 L87.9827 1110.13 L83.0984 1110.13 L83.0984 1104.25 Z" fill="#000000" fill-rule="nonzero" fill-opacity="1" /><path clip-path="url(#clip340)" d="M108.168 1078.65 Q104.557 1078.65 102.728 1082.22 Q100.922 1085.76 100.922 1092.89 Q100.922 1099.99 102.728 1103.56 Q104.557 1107.1 108.168 1107.1 Q111.802 1107.1 113.608 1103.56 Q115.436 1099.99 115.436 1092.89 Q115.436 1085.76 113.608 1082.22 Q111.802 1078.65 108.168 1078.65 M108.168 1074.95 Q113.978 1074.95 117.033 1079.55 Q120.112 1084.14 120.112 1092.89 Q120.112 1101.61 117.033 1106.22 Q113.978 1110.8 108.168 1110.8 Q102.358 1110.8 99.2789 1106.22 Q96.2234 1101.61 96.2234 1092.89 Q96.2234 1084.14 99.2789 1079.55 Q102.358 1074.95 108.168 1074.95 Z" fill="#000000" fill-rule="nonzero" fill-opacity="1" /><path clip-path="url(#clip340)" d="M138.33 1078.65 Q134.719 1078.65 132.89 1082.22 Q131.084 1085.76 131.084 1092.89 Q131.084 1099.99 132.89 1103.56 Q134.719 1107.1 138.33 1107.1 Q141.964 1107.1 143.769 1103.56 Q145.598 1099.99 145.598 1092.89 Q145.598 1085.76 143.769 1082.22 Q141.964 1078.65 138.33 1078.65 M138.33 1074.95 Q144.14 1074.95 147.195 1079.55 Q150.274 1084.14 150.274 1092.89 Q150.274 1101.61 147.195 1106.22 Q144.14 1110.8 138.33 1110.8 Q132.519 1110.8 129.441 1106.22 Q126.385 1101.61 126.385 1092.89 Q126.385 1084.14 129.441 1079.55 Q132.519 1074.95 138.33 1074.95 Z" fill="#000000" fill-rule="nonzero" fill-opacity="1" /><path clip-path="url(#clip340)" d="M168.491 1078.65 Q164.88 1078.65 163.052 1082.22 Q161.246 1085.76 161.246 1092.89 Q161.246 1099.99 163.052 1103.56 Q164.88 1107.1 168.491 1107.1 Q172.126 1107.1 173.931 1103.56 Q175.76 1099.99 175.76 1092.89 Q175.76 1085.76 173.931 1082.22 Q172.126 1078.65 168.491 1078.65 M168.491 1074.95 Q174.302 1074.95 177.357 1079.55 Q180.436 1084.14 180.436 1092.89 Q180.436 1101.61 177.357 1106.22 Q174.302 1110.8 168.491 1110.8 Q162.681 1110.8 159.603 1106.22 Q156.547 1101.61 156.547 1092.89 Q156.547 1084.14 159.603 1079.55 Q162.681 1074.95 168.491 1074.95 Z" fill="#000000" fill-rule="nonzero" fill-opacity="1" /><path clip-path="url(#clip340)" d="M63.9319 835.6 Q60.3208 835.6 58.4921 839.165 Q56.6865 842.707 56.6865 849.836 Q56.6865 856.943 58.4921 860.508 Q60.3208 864.049 63.9319 864.049 Q67.5661 864.049 69.3717 860.508 Q71.2004 856.943 71.2004 849.836 Q71.2004 842.707 69.3717 839.165 Q67.5661 835.6 63.9319 835.6 M63.9319 831.897 Q69.742 831.897 72.7976 836.503 Q75.8763 841.086 75.8763 849.836 Q75.8763 858.563 72.7976 863.17 Q69.742 867.753 63.9319 867.753 Q58.1217 867.753 55.043 863.17 Q51.9875 858.563 51.9875 849.836 Q51.9875 841.086 55.043 836.503 Q58.1217 831.897 63.9319 831.897 Z" fill="#000000" fill-rule="nonzero" fill-opacity="1" /><path clip-path="url(#clip340)" d="M84.0938 861.202 L88.978 861.202 L88.978 867.082 L84.0938 867.082 L84.0938 861.202 Z" fill="#000000" fill-rule="nonzero" fill-opacity="1" /><path clip-path="url(#clip340)" d="M109.163 835.6 Q105.552 835.6 103.723 839.165 Q101.918 842.707 101.918 849.836 Q101.918 856.943 103.723 860.508 Q105.552 864.049 109.163 864.049 Q112.797 864.049 114.603 860.508 Q116.432 856.943 116.432 849.836 Q116.432 842.707 114.603 839.165 Q112.797 835.6 109.163 835.6 M109.163 831.897 Q114.973 831.897 118.029 836.503 Q121.107 841.086 121.107 849.836 Q121.107 858.563 118.029 863.17 Q114.973 867.753 109.163 867.753 Q103.353 867.753 100.274 863.17 Q97.2187 858.563 97.2187 849.836 Q97.2187 841.086 100.274 836.503 Q103.353 831.897 109.163 831.897 Z" fill="#000000" fill-rule="nonzero" fill-opacity="1" /><path clip-path="url(#clip340)" d="M139.325 835.6 Q135.714 835.6 133.885 839.165 Q132.08 842.707 132.08 849.836 Q132.08 856.943 133.885 860.508 Q135.714 864.049 139.325 864.049 Q142.959 864.049 144.765 860.508 Q146.593 856.943 146.593 849.836 Q146.593 842.707 144.765 839.165 Q142.959 835.6 139.325 835.6 M139.325 831.897 Q145.135 831.897 148.191 836.503 Q151.269 841.086 151.269 849.836 Q151.269 858.563 148.191 863.17 Q145.135 867.753 139.325 867.753 Q133.515 867.753 130.436 863.17 Q127.381 858.563 127.381 849.836 Q127.381 841.086 130.436 836.503 Q133.515 831.897 139.325 831.897 Z" fill="#000000" fill-rule="nonzero" fill-opacity="1" /><path clip-path="url(#clip340)" d="M159.533 832.522 L177.89 832.522 L177.89 836.457 L163.816 836.457 L163.816 844.929 Q164.834 844.582 165.853 844.42 Q166.871 844.234 167.89 844.234 Q173.677 844.234 177.056 847.406 Q180.436 850.577 180.436 855.994 Q180.436 861.572 176.964 864.674 Q173.491 867.753 167.172 867.753 Q164.996 867.753 162.728 867.383 Q160.482 867.012 158.075 866.271 L158.075 861.572 Q160.158 862.707 162.38 863.262 Q164.603 863.818 167.079 863.818 Q171.084 863.818 173.422 861.711 Q175.76 859.605 175.76 855.994 Q175.76 852.383 173.422 850.276 Q171.084 848.17 167.079 848.17 Q165.204 848.17 163.329 848.586 Q161.478 849.003 159.533 849.883 L159.533 832.522 Z" fill="#000000" fill-rule="nonzero" fill-opacity="1" /><path clip-path="url(#clip340)" d="M62.9365 592.55 Q59.3254 592.55 57.4967 596.115 Q55.6912 599.656 55.6912 606.786 Q55.6912 613.892 57.4967 617.457 Q59.3254 620.999 62.9365 620.999 Q66.5707 620.999 68.3763 617.457 Q70.205 613.892 70.205 606.786 Q70.205 599.656 68.3763 596.115 Q66.5707 592.55 62.9365 592.55 M62.9365 588.846 Q68.7467 588.846 71.8022 593.453 Q74.8809 598.036 74.8809 606.786 Q74.8809 615.513 71.8022 620.119 Q68.7467 624.702 62.9365 624.702 Q57.1264 624.702 54.0477 620.119 Q50.9921 615.513 50.9921 606.786 Q50.9921 598.036 54.0477 593.453 Q57.1264 588.846 62.9365 588.846 Z" fill="#000000" fill-rule="nonzero" fill-opacity="1" /><path clip-path="url(#clip340)" d="M83.0984 618.152 L87.9827 618.152 L87.9827 624.031 L83.0984 624.031 L83.0984 618.152 Z" fill="#000000" fill-rule="nonzero" fill-opacity="1" /><path clip-path="url(#clip340)" d="M108.168 592.55 Q104.557 592.55 102.728 596.115 Q100.922 599.656 100.922 606.786 Q100.922 613.892 102.728 617.457 Q104.557 620.999 108.168 620.999 Q111.802 620.999 113.608 617.457 Q115.436 613.892 115.436 606.786 Q115.436 599.656 113.608 596.115 Q111.802 592.55 108.168 592.55 M108.168 588.846 Q113.978 588.846 117.033 593.453 Q120.112 598.036 120.112 606.786 Q120.112 615.513 117.033 620.119 Q113.978 624.702 108.168 624.702 Q102.358 624.702 99.2789 620.119 Q96.2234 615.513 96.2234 606.786 Q96.2234 598.036 99.2789 593.453 Q102.358 588.846 108.168 588.846 Z" fill="#000000" fill-rule="nonzero" fill-opacity="1" /><path clip-path="url(#clip340)" d="M129.14 620.096 L136.779 620.096 L136.779 593.73 L128.469 595.397 L128.469 591.138 L136.732 589.471 L141.408 589.471 L141.408 620.096 L149.047 620.096 L149.047 624.031 L129.14 624.031 L129.14 620.096 Z" fill="#000000" fill-rule="nonzero" fill-opacity="1" /><path clip-path="url(#clip340)" d="M168.491 592.55 Q164.88 592.55 163.052 596.115 Q161.246 599.656 161.246 606.786 Q161.246 613.892 163.052 617.457 Q164.88 620.999 168.491 620.999 Q172.126 620.999 173.931 617.457 Q175.76 613.892 175.76 606.786 Q175.76 599.656 173.931 596.115 Q172.126 592.55 168.491 592.55 M168.491 588.846 Q174.302 588.846 177.357 593.453 Q180.436 598.036 180.436 606.786 Q180.436 615.513 177.357 620.119 Q174.302 624.702 168.491 624.702 Q162.681 624.702 159.603 620.119 Q156.547 615.513 156.547 606.786 Q156.547 598.036 159.603 593.453 Q162.681 588.846 168.491 588.846 Z" fill="#000000" fill-rule="nonzero" fill-opacity="1" /><path clip-path="url(#clip340)" d="M63.9319 349.499 Q60.3208 349.499 58.4921 353.064 Q56.6865 356.606 56.6865 363.735 Q56.6865 370.842 58.4921 374.407 Q60.3208 377.948 63.9319 377.948 Q67.5661 377.948 69.3717 374.407 Q71.2004 370.842 71.2004 363.735 Q71.2004 356.606 69.3717 353.064 Q67.5661 349.499 63.9319 349.499 M63.9319 345.796 Q69.742 345.796 72.7976 350.402 Q75.8763 354.986 75.8763 363.735 Q75.8763 372.462 72.7976 377.069 Q69.742 381.652 63.9319 381.652 Q58.1217 381.652 55.043 377.069 Q51.9875 372.462 51.9875 363.735 Q51.9875 354.986 55.043 350.402 Q58.1217 345.796 63.9319 345.796 Z" fill="#000000" fill-rule="nonzero" fill-opacity="1" /><path clip-path="url(#clip340)" d="M84.0938 375.101 L88.978 375.101 L88.978 380.981 L84.0938 380.981 L84.0938 375.101 Z" fill="#000000" fill-rule="nonzero" fill-opacity="1" /><path clip-path="url(#clip340)" d="M109.163 349.499 Q105.552 349.499 103.723 353.064 Q101.918 356.606 101.918 363.735 Q101.918 370.842 103.723 374.407 Q105.552 377.948 109.163 377.948 Q112.797 377.948 114.603 374.407 Q116.432 370.842 116.432 363.735 Q116.432 356.606 114.603 353.064 Q112.797 349.499 109.163 349.499 M109.163 345.796 Q114.973 345.796 118.029 350.402 Q121.107 354.986 121.107 363.735 Q121.107 372.462 118.029 377.069 Q114.973 381.652 109.163 381.652 Q103.353 381.652 100.274 377.069 Q97.2187 372.462 97.2187 363.735 Q97.2187 354.986 100.274 350.402 Q103.353 345.796 109.163 345.796 Z" fill="#000000" fill-rule="nonzero" fill-opacity="1" /><path clip-path="url(#clip340)" d="M130.135 377.046 L137.774 377.046 L137.774 350.68 L129.464 352.347 L129.464 348.087 L137.728 346.421 L142.404 346.421 L142.404 377.046 L150.043 377.046 L150.043 380.981 L130.135 380.981 L130.135 377.046 Z" fill="#000000" fill-rule="nonzero" fill-opacity="1" /><path clip-path="url(#clip340)" d="M159.533 346.421 L177.89 346.421 L177.89 350.356 L163.816 350.356 L163.816 358.828 Q164.834 358.481 165.853 358.319 Q166.871 358.134 167.89 358.134 Q173.677 358.134 177.056 361.305 Q180.436 364.476 180.436 369.893 Q180.436 375.472 176.964 378.573 Q173.491 381.652 167.172 381.652 Q164.996 381.652 162.728 381.282 Q160.482 380.911 158.075 380.171 L158.075 375.472 Q160.158 376.606 162.38 377.161 Q164.603 377.717 167.079 377.717 Q171.084 377.717 173.422 375.61 Q175.76 373.504 175.76 369.893 Q175.76 366.282 173.422 364.175 Q171.084 362.069 167.079 362.069 Q165.204 362.069 163.329 362.485 Q161.478 362.902 159.533 363.782 L159.533 346.421 Z" fill="#000000" fill-rule="nonzero" fill-opacity="1" /><path clip-path="url(#clip340)" d="M62.9365 106.449 Q59.3254 106.449 57.4967 110.014 Q55.6912 113.555 55.6912 120.685 Q55.6912 127.791 57.4967 131.356 Q59.3254 134.898 62.9365 134.898 Q66.5707 134.898 68.3763 131.356 Q70.205 127.791 70.205 120.685 Q70.205 113.555 68.3763 110.014 Q66.5707 106.449 62.9365 106.449 M62.9365 102.745 Q68.7467 102.745 71.8022 107.352 Q74.8809 111.935 74.8809 120.685 Q74.8809 129.412 71.8022 134.018 Q68.7467 138.602 62.9365 138.602 Q57.1264 138.602 54.0477 134.018 Q50.9921 129.412 50.9921 120.685 Q50.9921 111.935 54.0477 107.352 Q57.1264 102.745 62.9365 102.745 Z" fill="#000000" fill-rule="nonzero" fill-opacity="1" /><path clip-path="url(#clip340)" d="M83.0984 132.051 L87.9827 132.051 L87.9827 137.93 L83.0984 137.93 L83.0984 132.051 Z" fill="#000000" fill-rule="nonzero" fill-opacity="1" /><path clip-path="url(#clip340)" d="M108.168 106.449 Q104.557 106.449 102.728 110.014 Q100.922 113.555 100.922 120.685 Q100.922 127.791 102.728 131.356 Q104.557 134.898 108.168 134.898 Q111.802 134.898 113.608 131.356 Q115.436 127.791 115.436 120.685 Q115.436 113.555 113.608 110.014 Q111.802 106.449 108.168 106.449 M108.168 102.745 Q113.978 102.745 117.033 107.352 Q120.112 111.935 120.112 120.685 Q120.112 129.412 117.033 134.018 Q113.978 138.602 108.168 138.602 Q102.358 138.602 99.2789 134.018 Q96.2234 129.412 96.2234 120.685 Q96.2234 111.935 99.2789 107.352 Q102.358 102.745 108.168 102.745 Z" fill="#000000" fill-rule="nonzero" fill-opacity="1" /><path clip-path="url(#clip340)" d="M132.357 133.995 L148.677 133.995 L148.677 137.93 L126.732 137.93 L126.732 133.995 Q129.394 131.241 133.978 126.611 Q138.584 121.958 139.765 120.616 Q142.01 118.092 142.89 116.356 Q143.793 114.597 143.793 112.907 Q143.793 110.153 141.848 108.417 Q139.927 106.68 136.825 106.68 Q134.626 106.68 132.172 107.444 Q129.742 108.208 126.964 109.759 L126.964 105.037 Q129.788 103.903 132.242 103.324 Q134.695 102.745 136.732 102.745 Q142.103 102.745 145.297 105.43 Q148.492 108.116 148.492 112.606 Q148.492 114.736 147.681 116.657 Q146.894 118.555 144.788 121.148 Q144.209 121.819 141.107 125.037 Q138.006 128.231 132.357 133.995 Z" fill="#000000" fill-rule="nonzero" fill-opacity="1" /><path clip-path="url(#clip340)" d="M168.491 106.449 Q164.88 106.449 163.052 110.014 Q161.246 113.555 161.246 120.685 Q161.246 127.791 163.052 131.356 Q164.88 134.898 168.491 134.898 Q172.126 134.898 173.931 131.356 Q175.76 127.791 175.76 120.685 Q175.76 113.555 173.931 110.014 Q172.126 106.449 168.491 106.449 M168.491 102.745 Q174.302 102.745 177.357 107.352 Q180.436 111.935 180.436 120.685 Q180.436 129.412 177.357 134.018 Q174.302 138.602 168.491 138.602 Q162.681 138.602 159.603 134.018 Q156.547 129.412 156.547 120.685 Q156.547 111.935 159.603 107.352 Q162.681 102.745 168.491 102.745 Z" fill="#000000" fill-rule="nonzero" fill-opacity="1" /><path clip-path="url(#clip340)" d="M625.275 30.8748 L625.275 33.2186 L603.244 33.2186 Q603.556 38.1665 606.212 40.7706 Q608.895 43.3487 613.66 43.3487 Q616.421 43.3487 618.999 42.6716 Q621.603 41.9946 624.155 40.6404 L624.155 45.1716 Q621.577 46.2654 618.869 46.8383 Q616.16 47.4112 613.374 47.4112 Q606.395 47.4112 602.306 43.3487 Q598.244 39.2862 598.244 32.3592 Q598.244 25.1978 602.098 21.0051 Q605.978 16.7864 612.54 16.7864 Q618.426 16.7864 621.837 20.5884 Q625.275 24.3645 625.275 30.8748 M620.483 29.4686 Q620.431 25.5363 618.27 23.1926 Q616.134 20.8488 612.593 20.8488 Q608.582 20.8488 606.16 23.1145 Q603.764 25.3801 603.4 29.4946 L620.483 29.4686 Z" fill="#000000" fill-rule="nonzero" fill-opacity="1" /><path clip-path="url(#clip340)" d="M632.644 35.1456 L632.644 17.4895 L637.436 17.4895 L637.436 34.9634 Q637.436 39.104 639.051 41.1873 Q640.665 43.2446 643.894 43.2446 Q647.775 43.2446 650.014 40.7706 Q652.28 38.2967 652.28 34.0259 L652.28 17.4895 L657.071 17.4895 L657.071 46.656 L652.28 46.656 L652.28 42.1769 Q650.535 44.8331 648.217 46.1352 Q645.926 47.4112 642.879 47.4112 Q637.853 47.4112 635.249 44.2862 Q632.644 41.1612 632.644 35.1456 M644.702 16.7864 L644.702 16.7864 Z" fill="#000000" fill-rule="nonzero" fill-opacity="1" /><path clip-path="url(#clip340)" d="M683.842 21.9686 Q683.035 21.4999 682.071 21.2916 Q681.134 21.0572 679.988 21.0572 Q675.926 21.0572 673.738 23.7134 Q671.577 26.3436 671.577 31.2915 L671.577 46.656 L666.759 46.656 L666.759 17.4895 L671.577 17.4895 L671.577 22.0207 Q673.087 19.3645 675.509 18.0884 Q677.931 16.7864 681.394 16.7864 Q681.889 16.7864 682.488 16.8645 Q683.087 16.9166 683.816 17.0468 L683.842 21.9686 Z" fill="#000000" fill-rule="nonzero" fill-opacity="1" /><path clip-path="url(#clip340)" d="M688.868 17.4895 L693.66 17.4895 L693.66 46.656 L688.868 46.656 L688.868 17.4895 M688.868 6.13538 L693.66 6.13538 L693.66 12.2031 L688.868 12.2031 L688.868 6.13538 Z" fill="#000000" fill-rule="nonzero" fill-opacity="1" /><path clip-path="url(#clip340)" d="M724.623 32.0988 Q724.623 26.8124 722.436 23.8176 Q720.274 20.7968 716.472 20.7968 Q712.67 20.7968 710.483 23.8176 Q708.321 26.8124 708.321 32.0988 Q708.321 37.3852 710.483 40.406 Q712.67 43.4008 716.472 43.4008 Q720.274 43.4008 722.436 40.406 Q724.623 37.3852 724.623 32.0988 M708.321 21.9165 Q709.832 19.3124 712.123 18.0624 Q714.441 16.7864 717.644 16.7864 Q722.957 16.7864 726.264 21.0051 Q729.597 25.2238 729.597 32.0988 Q729.597 38.9737 726.264 43.1925 Q722.957 47.4112 717.644 47.4112 Q714.441 47.4112 712.123 46.1612 Q709.832 44.8852 708.321 42.281 L708.321 46.656 L703.503 46.656 L703.503 6.13538 L708.321 6.13538 L708.321 21.9165 Z" fill="#000000" fill-rule="nonzero" fill-opacity="1" /><path clip-path="url(#clip340)" d="M748.842 20.8488 Q744.988 20.8488 742.748 23.8697 Q740.508 26.8644 740.508 32.0988 Q740.508 37.3331 742.722 40.354 Q744.962 43.3487 748.842 43.3487 Q752.67 43.3487 754.909 40.3279 Q757.149 37.3071 757.149 32.0988 Q757.149 26.9165 754.909 23.8957 Q752.67 20.8488 748.842 20.8488 M748.842 16.7864 Q755.092 16.7864 758.659 20.8488 Q762.227 24.9113 762.227 32.0988 Q762.227 39.2602 758.659 43.3487 Q755.092 47.4112 748.842 47.4112 Q742.566 47.4112 738.998 43.3487 Q735.456 39.2602 735.456 32.0988 Q735.456 24.9113 738.998 20.8488 Q742.566 16.7864 748.842 16.7864 Z" fill="#000000" fill-rule="nonzero" fill-opacity="1" /><path clip-path="url(#clip340)" d="M787.071 21.9686 Q786.263 21.4999 785.3 21.2916 Q784.362 21.0572 783.217 21.0572 Q779.154 21.0572 776.967 23.7134 Q774.805 26.3436 774.805 31.2915 L774.805 46.656 L769.988 46.656 L769.988 17.4895 L774.805 17.4895 L774.805 22.0207 Q776.316 19.3645 778.737 18.0884 Q781.159 16.7864 784.623 16.7864 Q785.118 16.7864 785.717 16.8645 Q786.316 16.9166 787.045 17.0468 L787.071 21.9686 Z" fill="#000000" fill-rule="nonzero" fill-opacity="1" /><path clip-path="url(#clip342)" d="M243.392 1012.84 L288.318 1052.72 L333.245 1070.59 L378.171 1067.1 L423.098 1058.93 L468.024 1048.13 L512.951 1019.21 L557.878 1048.55 L602.804 1033.06 L647.731 1041.89 L692.657 1022.21 L737.584 1022.05 L782.51 1044.6 L827.437 1034.63 L872.363 1018.58 L917.29 1009.79 L962.216 1032.3 L1007.14 1055.16 L1052.07 1040.11 L1097 1036.5 L1141.92 1044.68 L1141.92 899.45 L1097 922.779 L1052.07 971.426 L1007.14 953.43 L962.216 979.633 L917.29 928.439 L872.363 908.486 L827.437 929.175 L782.51 949.051 L737.584 964.603 L692.657 968.717 L647.731 946.831 L602.804 942.106 L557.878 950.159 L512.951 977.809 L468.024 983.163 L423.098 998.368 L378.171 1025.62 L333.245 1004.38 L288.318 979.646 L243.392 1012.84  Z" fill="#009af9" fill-rule="evenodd" fill-opacity="0.1"/>
<polyline clip-path="url(#clip342)" style="stroke:#009af9; stroke-linecap:round; stroke-linejoin:round; stroke-width:4; stroke-opacity:1; fill:none" points="243.392,1012.84 288.318,1016.18 333.245,1037.48 378.171,1046.36 423.098,1028.65 468.024,1015.65 512.951,998.511 557.878,999.352 602.804,987.585 647.731,994.362 692.657,995.463 737.584,993.324 782.51,996.827 827.437,981.901 872.363,963.532 917.29,969.115 962.216,1005.97 1007.14,1004.3 1052.07,1005.77 1097,979.638 1141.92,972.066 "/>
<path clip-path="url(#clip342)" d="M243.392 1012.84 L288.318 120.65 L333.245 120.65 L378.171 120.65 L423.098 120.65 L468.024 120.65 L512.951 120.65 L557.878 120.65 L602.804 120.65 L647.731 120.65 L692.657 120.65 L737.584 120.65 L782.51 120.65 L827.437 120.65 L872.363 120.65 L917.29 120.65 L962.216 120.65 L1007.14 120.65 L1052.07 120.65 L1097 120.65 L1141.92 120.65 L1141.92 120.65 L1097 120.65 L1052.07 120.65 L1007.14 120.65 L962.216 120.65 L917.29 120.65 L872.363 120.65 L827.437 120.65 L782.51 120.65 L737.584 120.65 L692.657 120.65 L647.731 120.65 L602.804 120.65 L557.878 120.65 L512.951 120.65 L468.024 120.65 L423.098 120.65 L378.171 120.65 L333.245 120.65 L288.318 120.65 L243.392 1012.84  Z" fill="#e26f46" fill-rule="evenodd" fill-opacity="0.1"/>
<polyline clip-path="url(#clip342)" style="stroke:#e26f46; stroke-linecap:round; stroke-linejoin:round; stroke-width:4; stroke-opacity:1; fill:none" points="243.392,1012.84 288.318,120.65 333.245,120.65 378.171,120.65 423.098,120.65 468.024,120.65 512.951,120.65 557.878,120.65 602.804,120.65 647.731,120.65 692.657,120.65 737.584,120.65 782.51,120.65 827.437,120.65 872.363,120.65 917.29,120.65 962.216,120.65 1007.14,120.65 1052.07,120.65 1097,120.65 1141.92,120.65 "/>
<path clip-path="url(#clip340)" d="M1400.31 1099.09 L2352.76 1099.09 L2352.76 92.1521 L1400.31 92.1521  Z" fill="#ffffff" fill-rule="evenodd" fill-opacity="1"/>
<defs>
  <clipPath id="clip343">
    <rect x="1400" y="92" width="953" height="1008"/>
  </clipPath>
</defs>
<polyline clip-path="url(#clip343)" style="stroke:#000000; stroke-linecap:round; stroke-linejoin:round; stroke-width:2; stroke-opacity:0.1; fill:none" points="1606.98,1099.09 1606.98,92.1521 "/>
<polyline clip-path="url(#clip343)" style="stroke:#000000; stroke-linecap:round; stroke-linejoin:round; stroke-width:2; stroke-opacity:0.1; fill:none" points="1831.61,1099.09 1831.61,92.1521 "/>
<polyline clip-path="url(#clip343)" style="stroke:#000000; stroke-linecap:round; stroke-linejoin:round; stroke-width:2; stroke-opacity:0.1; fill:none" points="2056.24,1099.09 2056.24,92.1521 "/>
<polyline clip-path="url(#clip343)" style="stroke:#000000; stroke-linecap:round; stroke-linejoin:round; stroke-width:2; stroke-opacity:0.1; fill:none" points="2280.87,1099.09 2280.87,92.1521 "/>
<polyline clip-path="url(#clip343)" style="stroke:#000000; stroke-linecap:round; stroke-linejoin:round; stroke-width:2; stroke-opacity:0.1; fill:none" points="1400.31,990.864 2352.76,990.864 "/>
<polyline clip-path="url(#clip343)" style="stroke:#000000; stroke-linecap:round; stroke-linejoin:round; stroke-width:2; stroke-opacity:0.1; fill:none" points="1400.31,691.782 2352.76,691.782 "/>
<polyline clip-path="url(#clip343)" style="stroke:#000000; stroke-linecap:round; stroke-linejoin:round; stroke-width:2; stroke-opacity:0.1; fill:none" points="1400.31,392.701 2352.76,392.701 "/>
<polyline clip-path="url(#clip343)" style="stroke:#000000; stroke-linecap:round; stroke-linejoin:round; stroke-width:2; stroke-opacity:0.1; fill:none" points="1400.31,93.6191 2352.76,93.6191 "/>
<polyline clip-path="url(#clip340)" style="stroke:#000000; stroke-linecap:round; stroke-linejoin:round; stroke-width:4; stroke-opacity:1; fill:none" points="1400.31,1099.09 2352.76,1099.09 "/>
<polyline clip-path="url(#clip340)" style="stroke:#000000; stroke-linecap:round; stroke-linejoin:round; stroke-width:4; stroke-opacity:1; fill:none" points="1606.98,1099.09 1606.98,1080.19 "/>
<polyline clip-path="url(#clip340)" style="stroke:#000000; stroke-linecap:round; stroke-linejoin:round; stroke-width:4; stroke-opacity:1; fill:none" points="1831.61,1099.09 1831.61,1080.19 "/>
<polyline clip-path="url(#clip340)" style="stroke:#000000; stroke-linecap:round; stroke-linejoin:round; stroke-width:4; stroke-opacity:1; fill:none" points="2056.24,1099.09 2056.24,1080.19 "/>
<polyline clip-path="url(#clip340)" style="stroke:#000000; stroke-linecap:round; stroke-linejoin:round; stroke-width:4; stroke-opacity:1; fill:none" points="2280.87,1099.09 2280.87,1080.19 "/>
<path clip-path="url(#clip340)" d="M1597.25 1126.93 L1615.61 1126.93 L1615.61 1130.86 L1601.54 1130.86 L1601.54 1139.34 Q1602.55 1138.99 1603.57 1138.83 Q1604.59 1138.64 1605.61 1138.64 Q1611.4 1138.64 1614.78 1141.81 Q1618.16 1144.98 1618.16 1150.4 Q1618.16 1155.98 1614.68 1159.08 Q1611.21 1162.16 1604.89 1162.16 Q1602.72 1162.16 1600.45 1161.79 Q1598.2 1161.42 1595.79 1160.68 L1595.79 1155.98 Q1597.88 1157.11 1600.1 1157.67 Q1602.32 1158.22 1604.8 1158.22 Q1608.8 1158.22 1611.14 1156.12 Q1613.48 1154.01 1613.48 1150.4 Q1613.48 1146.79 1611.14 1144.68 Q1608.8 1142.58 1604.8 1142.58 Q1602.92 1142.58 1601.05 1142.99 Q1599.2 1143.41 1597.25 1144.29 L1597.25 1126.93 Z" fill="#000000" fill-rule="nonzero" fill-opacity="1" /><path clip-path="url(#clip340)" d="M1806.3 1157.55 L1813.93 1157.55 L1813.93 1131.19 L1805.62 1132.85 L1805.62 1128.59 L1813.89 1126.93 L1818.56 1126.93 L1818.56 1157.55 L1826.2 1157.55 L1826.2 1161.49 L1806.3 1161.49 L1806.3 1157.55 Z" fill="#000000" fill-rule="nonzero" fill-opacity="1" /><path clip-path="url(#clip340)" d="M1845.65 1130.01 Q1842.04 1130.01 1840.21 1133.57 Q1838.4 1137.11 1838.4 1144.24 Q1838.4 1151.35 1840.21 1154.91 Q1842.04 1158.46 1845.65 1158.46 Q1849.28 1158.46 1851.09 1154.91 Q1852.92 1151.35 1852.92 1144.24 Q1852.92 1137.11 1851.09 1133.57 Q1849.28 1130.01 1845.65 1130.01 M1845.65 1126.3 Q1851.46 1126.3 1854.51 1130.91 Q1857.59 1135.49 1857.59 1144.24 Q1857.59 1152.97 1854.51 1157.58 Q1851.46 1162.16 1845.65 1162.16 Q1839.84 1162.16 1836.76 1157.58 Q1833.7 1152.97 1833.7 1144.24 Q1833.7 1135.49 1836.76 1130.91 Q1839.84 1126.3 1845.65 1126.3 Z" fill="#000000" fill-rule="nonzero" fill-opacity="1" /><path clip-path="url(#clip340)" d="M2031.43 1157.55 L2039.06 1157.55 L2039.06 1131.19 L2030.75 1132.85 L2030.75 1128.59 L2039.02 1126.93 L2043.69 1126.93 L2043.69 1157.55 L2051.33 1157.55 L2051.33 1161.49 L2031.43 1161.49 L2031.43 1157.55 Z" fill="#000000" fill-rule="nonzero" fill-opacity="1" /><path clip-path="url(#clip340)" d="M2060.82 1126.93 L2079.18 1126.93 L2079.18 1130.86 L2065.11 1130.86 L2065.11 1139.34 Q2066.12 1138.99 2067.14 1138.83 Q2068.16 1138.64 2069.18 1138.64 Q2074.97 1138.64 2078.35 1141.81 Q2081.73 1144.98 2081.73 1150.4 Q2081.73 1155.98 2078.25 1159.08 Q2074.78 1162.16 2068.46 1162.16 Q2066.29 1162.16 2064.02 1161.79 Q2061.77 1161.42 2059.37 1160.68 L2059.37 1155.98 Q2061.45 1157.11 2063.67 1157.67 Q2065.89 1158.22 2068.37 1158.22 Q2072.37 1158.22 2074.71 1156.12 Q2077.05 1154.01 2077.05 1150.4 Q2077.05 1146.79 2074.71 1144.68 Q2072.37 1142.58 2068.37 1142.58 Q2066.5 1142.58 2064.62 1142.99 Q2062.77 1143.41 2060.82 1144.29 L2060.82 1126.93 Z" fill="#000000" fill-rule="nonzero" fill-opacity="1" /><path clip-path="url(#clip340)" d="M2259.65 1157.55 L2275.97 1157.55 L2275.97 1161.49 L2254.02 1161.49 L2254.02 1157.55 Q2256.68 1154.8 2261.27 1150.17 Q2265.87 1145.52 2267.05 1144.17 Q2269.3 1141.65 2270.18 1139.91 Q2271.08 1138.15 2271.08 1136.46 Q2271.08 1133.71 2269.14 1131.97 Q2267.22 1130.24 2264.11 1130.24 Q2261.92 1130.24 2259.46 1131 Q2257.03 1131.77 2254.25 1133.32 L2254.25 1128.59 Q2257.08 1127.46 2259.53 1126.88 Q2261.98 1126.3 2264.02 1126.3 Q2269.39 1126.3 2272.59 1128.99 Q2275.78 1131.67 2275.78 1136.16 Q2275.78 1138.29 2274.97 1140.21 Q2274.18 1142.11 2272.08 1144.71 Q2271.5 1145.38 2268.4 1148.59 Q2265.29 1151.79 2259.65 1157.55 Z" fill="#000000" fill-rule="nonzero" fill-opacity="1" /><path clip-path="url(#clip340)" d="M2295.78 1130.01 Q2292.17 1130.01 2290.34 1133.57 Q2288.54 1137.11 2288.54 1144.24 Q2288.54 1151.35 2290.34 1154.91 Q2292.17 1158.46 2295.78 1158.46 Q2299.42 1158.46 2301.22 1154.91 Q2303.05 1151.35 2303.05 1144.24 Q2303.05 1137.11 2301.22 1133.57 Q2299.42 1130.01 2295.78 1130.01 M2295.78 1126.3 Q2301.59 1126.3 2304.65 1130.91 Q2307.73 1135.49 2307.73 1144.24 Q2307.73 1152.97 2304.65 1157.58 Q2301.59 1162.16 2295.78 1162.16 Q2289.97 1162.16 2286.89 1157.58 Q2283.84 1152.97 2283.84 1144.24 Q2283.84 1135.49 2286.89 1130.91 Q2289.97 1126.3 2295.78 1126.3 Z" fill="#000000" fill-rule="nonzero" fill-opacity="1" /><polyline clip-path="url(#clip340)" style="stroke:#000000; stroke-linecap:round; stroke-linejoin:round; stroke-width:4; stroke-opacity:1; fill:none" points="1400.31,1099.09 1400.31,92.1521 "/>
<polyline clip-path="url(#clip340)" style="stroke:#000000; stroke-linecap:round; stroke-linejoin:round; stroke-width:4; stroke-opacity:1; fill:none" points="1400.31,990.864 1419.21,990.864 "/>
<polyline clip-path="url(#clip340)" style="stroke:#000000; stroke-linecap:round; stroke-linejoin:round; stroke-width:4; stroke-opacity:1; fill:none" points="1400.31,691.782 1419.21,691.782 "/>
<polyline clip-path="url(#clip340)" style="stroke:#000000; stroke-linecap:round; stroke-linejoin:round; stroke-width:4; stroke-opacity:1; fill:none" points="1400.31,392.701 1419.21,392.701 "/>
<polyline clip-path="url(#clip340)" style="stroke:#000000; stroke-linecap:round; stroke-linejoin:round; stroke-width:4; stroke-opacity:1; fill:none" points="1400.31,93.6191 1419.21,93.6191 "/>
<path clip-path="url(#clip340)" d="M1267.79 1004.21 L1275.42 1004.21 L1275.42 977.843 L1267.11 979.51 L1267.11 975.251 L1275.38 973.584 L1280.05 973.584 L1280.05 1004.21 L1287.69 1004.21 L1287.69 1008.14 L1267.79 1008.14 L1267.79 1004.21 Z" fill="#000000" fill-rule="nonzero" fill-opacity="1" /><path clip-path="url(#clip340)" d="M1297.14 1002.26 L1302.02 1002.26 L1302.02 1008.14 L1297.14 1008.14 L1297.14 1002.26 Z" fill="#000000" fill-rule="nonzero" fill-opacity="1" /><path clip-path="url(#clip340)" d="M1322.21 976.663 Q1318.6 976.663 1316.77 980.227 Q1314.96 983.769 1314.96 990.899 Q1314.96 998.005 1316.77 1001.57 Q1318.6 1005.11 1322.21 1005.11 Q1325.84 1005.11 1327.65 1001.57 Q1329.48 998.005 1329.48 990.899 Q1329.48 983.769 1327.65 980.227 Q1325.84 976.663 1322.21 976.663 M1322.21 972.959 Q1328.02 972.959 1331.07 977.565 Q1334.15 982.149 1334.15 990.899 Q1334.15 999.626 1331.07 1004.23 Q1328.02 1008.82 1322.21 1008.82 Q1316.4 1008.82 1313.32 1004.23 Q1310.26 999.626 1310.26 990.899 Q1310.26 982.149 1313.32 977.565 Q1316.4 972.959 1322.21 972.959 Z" fill="#000000" fill-rule="nonzero" fill-opacity="1" /><path clip-path="url(#clip340)" d="M1352.37 976.663 Q1348.76 976.663 1346.93 980.227 Q1345.12 983.769 1345.12 990.899 Q1345.12 998.005 1346.93 1001.57 Q1348.76 1005.11 1352.37 1005.11 Q1356 1005.11 1357.81 1001.57 Q1359.64 998.005 1359.64 990.899 Q1359.64 983.769 1357.81 980.227 Q1356 976.663 1352.37 976.663 M1352.37 972.959 Q1358.18 972.959 1361.23 977.565 Q1364.31 982.149 1364.31 990.899 Q1364.31 999.626 1361.23 1004.23 Q1358.18 1008.82 1352.37 1008.82 Q1346.56 1008.82 1343.48 1004.23 Q1340.42 999.626 1340.42 990.899 Q1340.42 982.149 1343.48 977.565 Q1346.56 972.959 1352.37 972.959 Z" fill="#000000" fill-rule="nonzero" fill-opacity="1" /><path clip-path="url(#clip340)" d="M1268.78 705.127 L1276.42 705.127 L1276.42 678.762 L1268.11 680.428 L1268.11 676.169 L1276.37 674.502 L1281.05 674.502 L1281.05 705.127 L1288.69 705.127 L1288.69 709.062 L1268.78 709.062 L1268.78 705.127 Z" fill="#000000" fill-rule="nonzero" fill-opacity="1" /><path clip-path="url(#clip340)" d="M1298.13 703.183 L1303.02 703.183 L1303.02 709.062 L1298.13 709.062 L1298.13 703.183 Z" fill="#000000" fill-rule="nonzero" fill-opacity="1" /><path clip-path="url(#clip340)" d="M1323.2 677.581 Q1319.59 677.581 1317.76 681.146 Q1315.96 684.687 1315.96 691.817 Q1315.96 698.924 1317.76 702.488 Q1319.59 706.03 1323.2 706.03 Q1326.84 706.03 1328.64 702.488 Q1330.47 698.924 1330.47 691.817 Q1330.47 684.687 1328.64 681.146 Q1326.84 677.581 1323.2 677.581 M1323.2 673.877 Q1329.01 673.877 1332.07 678.484 Q1335.15 683.067 1335.15 691.817 Q1335.15 700.544 1332.07 705.15 Q1329.01 709.734 1323.2 709.734 Q1317.39 709.734 1314.31 705.15 Q1311.26 700.544 1311.26 691.817 Q1311.26 683.067 1314.31 678.484 Q1317.39 673.877 1323.2 673.877 Z" fill="#000000" fill-rule="nonzero" fill-opacity="1" /><path clip-path="url(#clip340)" d="M1343.41 674.502 L1361.77 674.502 L1361.77 678.438 L1347.69 678.438 L1347.69 686.91 Q1348.71 686.562 1349.73 686.4 Q1350.75 686.215 1351.77 686.215 Q1357.55 686.215 1360.93 689.387 Q1364.31 692.558 1364.31 697.974 Q1364.31 703.553 1360.84 706.655 Q1357.37 709.734 1351.05 709.734 Q1348.87 709.734 1346.61 709.363 Q1344.36 708.993 1341.95 708.252 L1341.95 703.553 Q1344.04 704.687 1346.26 705.243 Q1348.48 705.798 1350.96 705.798 Q1354.96 705.798 1357.3 703.692 Q1359.64 701.586 1359.64 697.974 Q1359.64 694.363 1357.3 692.257 Q1354.96 690.15 1350.96 690.15 Q1349.08 690.15 1347.21 690.567 Q1345.36 690.984 1343.41 691.863 L1343.41 674.502 Z" fill="#000000" fill-rule="nonzero" fill-opacity="1" /><path clip-path="url(#clip340)" d="M1267.79 406.046 L1275.42 406.046 L1275.42 379.68 L1267.11 381.347 L1267.11 377.087 L1275.38 375.421 L1280.05 375.421 L1280.05 406.046 L1287.69 406.046 L1287.69 409.981 L1267.79 409.981 L1267.79 406.046 Z" fill="#000000" fill-rule="nonzero" fill-opacity="1" /><path clip-path="url(#clip340)" d="M1297.14 404.101 L1302.02 404.101 L1302.02 409.981 L1297.14 409.981 L1297.14 404.101 Z" fill="#000000" fill-rule="nonzero" fill-opacity="1" /><path clip-path="url(#clip340)" d="M1313.02 406.046 L1320.66 406.046 L1320.66 379.68 L1312.35 381.347 L1312.35 377.087 L1320.61 375.421 L1325.29 375.421 L1325.29 406.046 L1332.92 406.046 L1332.92 409.981 L1313.02 409.981 L1313.02 406.046 Z" fill="#000000" fill-rule="nonzero" fill-opacity="1" /><path clip-path="url(#clip340)" d="M1352.37 378.499 Q1348.76 378.499 1346.93 382.064 Q1345.12 385.606 1345.12 392.735 Q1345.12 399.842 1346.93 403.407 Q1348.76 406.948 1352.37 406.948 Q1356 406.948 1357.81 403.407 Q1359.64 399.842 1359.64 392.735 Q1359.64 385.606 1357.81 382.064 Q1356 378.499 1352.37 378.499 M1352.37 374.796 Q1358.18 374.796 1361.23 379.402 Q1364.31 383.985 1364.31 392.735 Q1364.31 401.462 1361.23 406.069 Q1358.18 410.652 1352.37 410.652 Q1346.56 410.652 1343.48 406.069 Q1340.42 401.462 1340.42 392.735 Q1340.42 383.985 1343.48 379.402 Q1346.56 374.796 1352.37 374.796 Z" fill="#000000" fill-rule="nonzero" fill-opacity="1" /><path clip-path="url(#clip340)" d="M1268.78 106.964 L1276.42 106.964 L1276.42 80.5983 L1268.11 82.2649 L1268.11 78.0057 L1276.37 76.3391 L1281.05 76.3391 L1281.05 106.964 L1288.69 106.964 L1288.69 110.899 L1268.78 110.899 L1268.78 106.964 Z" fill="#000000" fill-rule="nonzero" fill-opacity="1" /><path clip-path="url(#clip340)" d="M1298.13 105.019 L1303.02 105.019 L1303.02 110.899 L1298.13 110.899 L1298.13 105.019 Z" fill="#000000" fill-rule="nonzero" fill-opacity="1" /><path clip-path="url(#clip340)" d="M1314.01 106.964 L1321.65 106.964 L1321.65 80.5983 L1313.34 82.2649 L1313.34 78.0057 L1321.61 76.3391 L1326.28 76.3391 L1326.28 106.964 L1333.92 106.964 L1333.92 110.899 L1314.01 110.899 L1314.01 106.964 Z" fill="#000000" fill-rule="nonzero" fill-opacity="1" /><path clip-path="url(#clip340)" d="M1343.41 76.3391 L1361.77 76.3391 L1361.77 80.2742 L1347.69 80.2742 L1347.69 88.7464 Q1348.71 88.3992 1349.73 88.2371 Q1350.75 88.052 1351.77 88.052 Q1357.55 88.052 1360.93 91.2232 Q1364.31 94.3945 1364.31 99.8112 Q1364.31 105.39 1360.84 108.492 Q1357.37 111.57 1351.05 111.57 Q1348.87 111.57 1346.61 111.2 Q1344.36 110.83 1341.95 110.089 L1341.95 105.39 Q1344.04 106.524 1346.26 107.08 Q1348.48 107.635 1350.96 107.635 Q1354.96 107.635 1357.3 105.529 Q1359.64 103.422 1359.64 99.8112 Q1359.64 96.2001 1357.3 94.0936 Q1354.96 91.9871 1350.96 91.9871 Q1349.08 91.9871 1347.21 92.4038 Q1345.36 92.8204 1343.41 93.7001 L1343.41 76.3391 Z" fill="#000000" fill-rule="nonzero" fill-opacity="1" /><path clip-path="url(#clip340)" d="M1735.82 31.7342 Q1735.82 26.5259 1733.66 23.6613 Q1731.52 20.7968 1727.64 20.7968 Q1723.79 20.7968 1721.63 23.6613 Q1719.49 26.5259 1719.49 31.7342 Q1719.49 36.9165 1721.63 39.781 Q1723.79 42.6456 1727.64 42.6456 Q1731.52 42.6456 1733.66 39.781 Q1735.82 36.9165 1735.82 31.7342 M1740.61 43.0362 Q1740.61 50.4841 1737.3 54.1039 Q1734 57.7497 1727.17 57.7497 Q1724.65 57.7497 1722.41 57.3591 Q1720.17 56.9945 1718.06 56.2132 L1718.06 51.5518 Q1720.17 52.6976 1722.23 53.2445 Q1724.28 53.7914 1726.42 53.7914 Q1731.13 53.7914 1733.48 51.3174 Q1735.82 48.8695 1735.82 43.8956 L1735.82 41.5258 Q1734.33 44.1039 1732.02 45.38 Q1729.7 46.656 1726.47 46.656 Q1721.11 46.656 1717.82 42.5675 Q1714.54 38.479 1714.54 31.7342 Q1714.54 24.9634 1717.82 20.8749 Q1721.11 16.7864 1726.47 16.7864 Q1729.7 16.7864 1732.02 18.0624 Q1734.33 19.3384 1735.82 21.9165 L1735.82 17.4895 L1740.61 17.4895 L1740.61 43.0362 Z" fill="#000000" fill-rule="nonzero" fill-opacity="1" /><path clip-path="url(#clip340)" d="M1769.67 21.9165 L1769.67 6.13538 L1774.46 6.13538 L1774.46 46.656 L1769.67 46.656 L1769.67 42.281 Q1768.16 44.8852 1765.85 46.1612 Q1763.55 47.4112 1760.32 47.4112 Q1755.04 47.4112 1751.7 43.1925 Q1748.4 38.9737 1748.4 32.0988 Q1748.4 25.2238 1751.7 21.0051 Q1755.04 16.7864 1760.32 16.7864 Q1763.55 16.7864 1765.85 18.0624 Q1768.16 19.3124 1769.67 21.9165 M1753.35 32.0988 Q1753.35 37.3852 1755.51 40.406 Q1757.69 43.4008 1761.5 43.4008 Q1765.3 43.4008 1767.49 40.406 Q1769.67 37.3852 1769.67 32.0988 Q1769.67 26.8124 1767.49 23.8176 Q1765.3 20.7968 1761.5 20.7968 Q1757.69 20.7968 1755.51 23.8176 Q1753.35 26.8124 1753.35 32.0988 Z" fill="#000000" fill-rule="nonzero" fill-opacity="1" /><path clip-path="url(#clip340)" d="M1788.97 42.281 L1788.97 57.7497 L1784.15 57.7497 L1784.15 17.4895 L1788.97 17.4895 L1788.97 21.9165 Q1790.48 19.3124 1792.77 18.0624 Q1795.09 16.7864 1798.29 16.7864 Q1803.61 16.7864 1806.91 21.0051 Q1810.25 25.2238 1810.25 32.0988 Q1810.25 38.9737 1806.91 43.1925 Q1803.61 47.4112 1798.29 47.4112 Q1795.09 47.4112 1792.77 46.1612 Q1790.48 44.8852 1788.97 42.281 M1805.27 32.0988 Q1805.27 26.8124 1803.08 23.8176 Q1800.92 20.7968 1797.12 20.7968 Q1793.32 20.7968 1791.13 23.8176 Q1788.97 26.8124 1788.97 32.0988 Q1788.97 37.3852 1791.13 40.406 Q1793.32 43.4008 1797.12 43.4008 Q1800.92 43.4008 1803.08 40.406 Q1805.27 37.3852 1805.27 32.0988 Z" fill="#000000" fill-rule="nonzero" fill-opacity="1" /><path clip-path="url(#clip340)" d="M1854.33 21.9165 L1854.33 6.13538 L1859.13 6.13538 L1859.13 46.656 L1854.33 46.656 L1854.33 42.281 Q1852.82 44.8852 1850.51 46.1612 Q1848.21 47.4112 1844.99 47.4112 Q1839.7 47.4112 1836.37 43.1925 Q1833.06 38.9737 1833.06 32.0988 Q1833.06 25.2238 1836.37 21.0051 Q1839.7 16.7864 1844.99 16.7864 Q1848.21 16.7864 1850.51 18.0624 Q1852.82 19.3124 1854.33 21.9165 M1838.01 32.0988 Q1838.01 37.3852 1840.17 40.406 Q1842.36 43.4008 1846.16 43.4008 Q1849.96 43.4008 1852.15 40.406 Q1854.33 37.3852 1854.33 32.0988 Q1854.33 26.8124 1852.15 23.8176 Q1849.96 20.7968 1846.16 20.7968 Q1842.36 20.7968 1840.17 23.8176 Q1838.01 26.8124 1838.01 32.0988 Z" fill="#000000" fill-rule="nonzero" fill-opacity="1" /><path clip-path="url(#clip340)" d="M1893.94 30.8748 L1893.94 33.2186 L1871.91 33.2186 Q1872.22 38.1665 1874.88 40.7706 Q1877.56 43.3487 1882.33 43.3487 Q1885.09 43.3487 1887.67 42.6716 Q1890.27 41.9946 1892.82 40.6404 L1892.82 45.1716 Q1890.25 46.2654 1887.54 46.8383 Q1884.83 47.4112 1882.04 47.4112 Q1875.06 47.4112 1870.97 43.3487 Q1866.91 39.2862 1866.91 32.3592 Q1866.91 25.1978 1870.77 21.0051 Q1874.65 16.7864 1881.21 16.7864 Q1887.09 16.7864 1890.51 20.5884 Q1893.94 24.3645 1893.94 30.8748 M1889.15 29.4686 Q1889.1 25.5363 1886.94 23.1926 Q1884.8 20.8488 1881.26 20.8488 Q1877.25 20.8488 1874.83 23.1145 Q1872.43 25.3801 1872.07 29.4946 L1889.15 29.4686 Z" fill="#000000" fill-rule="nonzero" fill-opacity="1" /><path clip-path="url(#clip340)" d="M1916.57 6.13538 L1916.57 10.1197 L1911.99 10.1197 Q1909.41 10.1197 1908.4 11.1614 Q1907.41 12.2031 1907.41 14.9114 L1907.41 17.4895 L1915.3 17.4895 L1915.3 21.2134 L1907.41 21.2134 L1907.41 46.656 L1902.59 46.656 L1902.59 21.2134 L1898.01 21.2134 L1898.01 17.4895 L1902.59 17.4895 L1902.59 15.4583 Q1902.59 10.5885 1904.85 8.37496 Q1907.12 6.13538 1912.04 6.13538 L1916.57 6.13538 Z" fill="#000000" fill-rule="nonzero" fill-opacity="1" /><path clip-path="url(#clip340)" d="M1920.58 6.13538 L1925.38 6.13538 L1925.38 46.656 L1920.58 46.656 L1920.58 6.13538 Z" fill="#000000" fill-rule="nonzero" fill-opacity="1" /><path clip-path="url(#clip340)" d="M1948.66 31.9946 Q1942.85 31.9946 1940.61 33.3227 Q1938.37 34.6509 1938.37 37.854 Q1938.37 40.406 1940.04 41.9164 Q1941.73 43.4008 1944.62 43.4008 Q1948.6 43.4008 1951 40.5883 Q1953.42 37.7498 1953.42 33.0623 L1953.42 31.9946 L1948.66 31.9946 M1958.21 30.0155 L1958.21 46.656 L1953.42 46.656 L1953.42 42.2289 Q1951.78 44.8852 1949.33 46.1612 Q1946.89 47.4112 1943.34 47.4112 Q1938.86 47.4112 1936.21 44.9112 Q1933.58 42.3852 1933.58 38.1665 Q1933.58 33.2446 1936.86 30.7446 Q1940.17 28.2446 1946.7 28.2446 L1953.42 28.2446 L1953.42 27.7759 Q1953.42 24.4686 1951.23 22.6718 Q1949.07 20.8488 1945.14 20.8488 Q1942.64 20.8488 1940.27 21.4478 Q1937.9 22.0468 1935.71 23.2447 L1935.71 18.8176 Q1938.34 17.802 1940.82 17.3072 Q1943.29 16.7864 1945.64 16.7864 Q1951.96 16.7864 1955.09 20.0676 Q1958.21 23.3488 1958.21 30.0155 Z" fill="#000000" fill-rule="nonzero" fill-opacity="1" /><path clip-path="url(#clip340)" d="M1972.82 9.20828 L1972.82 17.4895 L1982.69 17.4895 L1982.69 21.2134 L1972.82 21.2134 L1972.82 37.0467 Q1972.82 40.6144 1973.79 41.63 Q1974.78 42.6456 1977.77 42.6456 L1982.69 42.6456 L1982.69 46.656 L1977.77 46.656 Q1972.22 46.656 1970.11 44.5987 Q1968.01 42.5154 1968.01 37.0467 L1968.01 21.2134 L1964.49 21.2134 L1964.49 17.4895 L1968.01 17.4895 L1968.01 9.20828 L1972.82 9.20828 Z" fill="#000000" fill-rule="nonzero" fill-opacity="1" /><path clip-path="url(#clip340)" d="M2000.3 20.8488 Q1996.44 20.8488 1994.2 23.8697 Q1991.96 26.8644 1991.96 32.0988 Q1991.96 37.3331 1994.18 40.354 Q1996.42 43.3487 2000.3 43.3487 Q2004.13 43.3487 2006.36 40.3279 Q2008.6 37.3071 2008.6 32.0988 Q2008.6 26.9165 2006.36 23.8957 Q2004.13 20.8488 2000.3 20.8488 M2000.3 16.7864 Q2006.55 16.7864 2010.11 20.8488 Q2013.68 24.9113 2013.68 32.0988 Q2013.68 39.2602 2010.11 43.3487 Q2006.55 47.4112 2000.3 47.4112 Q1994.02 47.4112 1990.45 43.3487 Q1986.91 39.2602 1986.91 32.0988 Q1986.91 24.9113 1990.45 20.8488 Q1994.02 16.7864 2000.3 16.7864 Z" fill="#000000" fill-rule="nonzero" fill-opacity="1" /><path clip-path="url(#clip340)" d="M2038.53 21.9686 Q2037.72 21.4999 2036.76 21.2916 Q2035.82 21.0572 2034.67 21.0572 Q2030.61 21.0572 2028.42 23.7134 Q2026.26 26.3436 2026.26 31.2915 L2026.26 46.656 L2021.44 46.656 L2021.44 17.4895 L2026.26 17.4895 L2026.26 22.0207 Q2027.77 19.3645 2030.19 18.0884 Q2032.61 16.7864 2036.08 16.7864 Q2036.57 16.7864 2037.17 16.8645 Q2037.77 16.9166 2038.5 17.0468 L2038.53 21.9686 Z" fill="#000000" fill-rule="nonzero" fill-opacity="1" /><path clip-path="url(#clip343)" d="M1427.27 990.864 L1472.2 1000.39 L1517.12 959.018 L1562.05 944.87 L1606.98 931.256 L1651.9 923.521 L1696.83 917.33 L1741.75 901.892 L1786.68 907.334 L1831.61 904.47 L1876.53 906.302 L1921.46 899.89 L1966.39 835.637 L2011.31 800.812 L2056.24 773.167 L2101.17 766.085 L2146.09 746.293 L2191.02 738.683 L2235.95 718.946 L2280.87 711.866 L2325.8 758.418 L2325.8 120.65 L2280.87 168.072 L2235.95 228.811 L2191.02 261.919 L2146.09 329.404 L2101.17 369.293 L2056.24 457.535 L2011.31 518.957 L1966.39 568.987 L1921.46 581.623 L1876.53 637.751 L1831.61 674.421 L1786.68 711.167 L1741.75 750.538 L1696.83 765.798 L1651.9 799.277 L1606.98 884.884 L1562.05 914.149 L1517.12 923.421 L1472.2 954.08 L1427.27 990.864  Z" fill="#009af9" fill-rule="evenodd" fill-opacity="0.1"/>
<polyline clip-path="url(#clip343)" style="stroke:#009af9; stroke-linecap:round; stroke-linejoin:round; stroke-width:4; stroke-opacity:1; fill:none" points="1427.27,990.864 1472.2,977.234 1517.12,941.219 1562.05,929.509 1606.98,908.07 1651.9,861.399 1696.83,841.564 1741.75,826.215 1786.68,809.251 1831.61,789.445 1876.53,772.027 1921.46,740.757 1966.39,702.312 2011.31,659.885 2056.24,615.351 2101.17,567.689 2146.09,537.848 2191.02,500.301 2235.95,473.878 2280.87,439.969 2325.8,439.534 "/>
<path clip-path="url(#clip343)" d="M1427.27 990.864 L1472.2 1023.6 L1517.12 1029.43 L1562.05 1070.59 L1606.98 1062.66 L1651.9 1032.59 L1696.83 1008.4 L1741.75 967.339 L1786.68 966.832 L1831.61 936.402 L1876.53 919.081 L1921.46 877.874 L1966.39 869.96 L2011.31 857.699 L2056.24 796.481 L2101.17 762.083 L2146.09 770.356 L2191.02 745.99 L2235.95 685.828 L2280.87 694.635 L2325.8 670.576 L2325.8 485.959 L2280.87 483.306 L2235.95 520.156 L2191.02 518.92 L2146.09 536.858 L2101.17 527.779 L2056.24 522.755 L2011.31 537.724 L1966.39 522.012 L1921.46 522.46 L1876.53 576.383 L1831.61 632.816 L1786.68 674.327 L1741.75 698.361 L1696.83 720.317 L1651.9 783.674 L1606.98 834.667 L1562.05 895.649 L1517.12 931.862 L1472.2 968.769 L1427.27 990.864  Z" fill="#e26f46" fill-rule="evenodd" fill-opacity="0.1"/>
<polyline clip-path="url(#clip343)" style="stroke:#e26f46; stroke-linecap:round; stroke-linejoin:round; stroke-width:4; stroke-opacity:1; fill:none" points="1427.27,990.864 1472.2,996.183 1517.12,980.644 1562.05,983.119 1606.98,948.662 1651.9,908.132 1696.83,864.357 1741.75,832.85 1786.68,820.579 1831.61,784.609 1876.53,747.732 1921.46,700.167 1966.39,695.986 2011.31,697.711 2056.24,659.618 2101.17,644.931 2146.09,653.607 2191.02,632.455 2235.95,602.992 2280.87,588.971 2325.8,578.267 "/>
</svg>
