<?xml version="1.0" encoding="utf-8"?>
<svg xmlns="http://www.w3.org/2000/svg" xmlns:xlink="http://www.w3.org/1999/xlink" width="600" height="300" viewBox="0 0 2400 1200">
<defs>
  <clipPath id="clip990">
    <rect x="0" y="0" width="2400" height="1200"/>
  </clipPath>
</defs>
<path clip-path="url(#clip990)" d="M0 1200 L2400 1200 L2400 0 L0 0  Z" fill="#ffffff" fill-rule="evenodd" fill-opacity="1"/>
<defs>
  <clipPath id="clip991">
    <rect x="480" y="0" width="1681" height="1200"/>
  </clipPath>
</defs>
<path clip-path="url(#clip990)" d="M216.436 1099.09 L1153.8 1099.09 L1153.8 92.1521 L216.436 92.1521  Z" fill="#ffffff" fill-rule="evenodd" fill-opacity="1"/>
<defs>
  <clipPath id="clip992">
    <rect x="216" y="92" width="938" height="1008"/>
  </clipPath>
</defs>
<polyline clip-path="url(#clip992)" style="stroke:#000000; stroke-linecap:round; stroke-linejoin:round; stroke-width:2; stroke-opacity:0.1; fill:none" points="411.404,1099.09 411.404,92.1521 "/>
<polyline clip-path="url(#clip992)" style="stroke:#000000; stroke-linecap:round; stroke-linejoin:round; stroke-width:2; stroke-opacity:0.1; fill:none" points="621.952,1099.09 621.952,92.1521 "/>
<polyline clip-path="url(#clip992)" style="stroke:#000000; stroke-linecap:round; stroke-linejoin:round; stroke-width:2; stroke-opacity:0.1; fill:none" points="832.501,1099.09 832.501,92.1521 "/>
<polyline clip-path="url(#clip992)" style="stroke:#000000; stroke-linecap:round; stroke-linejoin:round; stroke-width:2; stroke-opacity:0.1; fill:none" points="1043.05,1099.09 1043.05,92.1521 "/>
<polyline clip-path="url(#clip992)" style="stroke:#000000; stroke-linecap:round; stroke-linejoin:round; stroke-width:2; stroke-opacity:0.1; fill:none" points="216.436,1087.9 1153.8,1087.9 "/>
<polyline clip-path="url(#clip992)" style="stroke:#000000; stroke-linecap:round; stroke-linejoin:round; stroke-width:2; stroke-opacity:0.1; fill:none" points="216.436,846.091 1153.8,846.091 "/>
<polyline clip-path="url(#clip992)" style="stroke:#000000; stroke-linecap:round; stroke-linejoin:round; stroke-width:2; stroke-opacity:0.1; fill:none" points="216.436,604.277 1153.8,604.277 "/>
<polyline clip-path="url(#clip992)" style="stroke:#000000; stroke-linecap:round; stroke-linejoin:round; stroke-width:2; stroke-opacity:0.1; fill:none" points="216.436,362.464 1153.8,362.464 "/>
<polyline clip-path="url(#clip992)" style="stroke:#000000; stroke-linecap:round; stroke-linejoin:round; stroke-width:2; stroke-opacity:0.1; fill:none" points="216.436,120.65 1153.8,120.65 "/>
<polyline clip-path="url(#clip990)" style="stroke:#000000; stroke-linecap:round; stroke-linejoin:round; stroke-width:4; stroke-opacity:1; fill:none" points="216.436,1099.09 1153.8,1099.09 "/>
<polyline clip-path="url(#clip990)" style="stroke:#000000; stroke-linecap:round; stroke-linejoin:round; stroke-width:4; stroke-opacity:1; fill:none" points="411.404,1099.09 411.404,1080.19 "/>
<polyline clip-path="url(#clip990)" style="stroke:#000000; stroke-linecap:round; stroke-linejoin:round; stroke-width:4; stroke-opacity:1; fill:none" points="621.952,1099.09 621.952,1080.19 "/>
<polyline clip-path="url(#clip990)" style="stroke:#000000; stroke-linecap:round; stroke-linejoin:round; stroke-width:4; stroke-opacity:1; fill:none" points="832.501,1099.09 832.501,1080.19 "/>
<polyline clip-path="url(#clip990)" style="stroke:#000000; stroke-linecap:round; stroke-linejoin:round; stroke-width:4; stroke-opacity:1; fill:none" points="1043.05,1099.09 1043.05,1080.19 "/>
<path clip-path="url(#clip990)" d="M401.682 1126.93 L420.038 1126.93 L420.038 1130.86 L405.964 1130.86 L405.964 1139.34 Q406.982 1138.99 408.001 1138.83 Q409.019 1138.64 410.038 1138.64 Q415.825 1138.64 419.205 1141.81 Q422.584 1144.98 422.584 1150.4 Q422.584 1155.98 419.112 1159.08 Q415.64 1162.16 409.32 1162.16 Q407.145 1162.16 404.876 1161.79 Q402.631 1161.42 400.223 1160.68 L400.223 1155.98 Q402.307 1157.11 404.529 1157.67 Q406.751 1158.22 409.228 1158.22 Q413.232 1158.22 415.57 1156.12 Q417.908 1154.01 417.908 1150.4 Q417.908 1146.79 415.57 1144.68 Q413.232 1142.58 409.228 1142.58 Q407.353 1142.58 405.478 1142.99 Q403.626 1143.41 401.682 1144.29 L401.682 1126.93 Z" fill="#000000" fill-rule="nonzero" fill-opacity="1" /><path clip-path="url(#clip990)" d="M596.64 1157.55 L604.279 1157.55 L604.279 1131.19 L595.969 1132.85 L595.969 1128.59 L604.232 1126.93 L608.908 1126.93 L608.908 1157.55 L616.547 1157.55 L616.547 1161.49 L596.64 1161.49 L596.64 1157.55 Z" fill="#000000" fill-rule="nonzero" fill-opacity="1" /><path clip-path="url(#clip990)" d="M635.991 1130.01 Q632.38 1130.01 630.552 1133.57 Q628.746 1137.11 628.746 1144.24 Q628.746 1151.35 630.552 1154.91 Q632.38 1158.46 635.991 1158.46 Q639.626 1158.46 641.431 1154.91 Q643.26 1151.35 643.26 1144.24 Q643.26 1137.11 641.431 1133.57 Q639.626 1130.01 635.991 1130.01 M635.991 1126.3 Q641.802 1126.3 644.857 1130.91 Q647.936 1135.49 647.936 1144.24 Q647.936 1152.97 644.857 1157.58 Q641.802 1162.16 635.991 1162.16 Q630.181 1162.16 627.103 1157.58 Q624.047 1152.97 624.047 1144.24 Q624.047 1135.49 627.103 1130.91 Q630.181 1126.3 635.991 1126.3 Z" fill="#000000" fill-rule="nonzero" fill-opacity="1" /><path clip-path="url(#clip990)" d="M807.686 1157.55 L815.325 1157.55 L815.325 1131.19 L807.015 1132.85 L807.015 1128.59 L815.279 1126.93 L819.954 1126.93 L819.954 1157.55 L827.593 1157.55 L827.593 1161.49 L807.686 1161.49 L807.686 1157.55 Z" fill="#000000" fill-rule="nonzero" fill-opacity="1" /><path clip-path="url(#clip990)" d="M837.084 1126.93 L855.44 1126.93 L855.44 1130.86 L841.366 1130.86 L841.366 1139.34 Q842.385 1138.99 843.403 1138.83 Q844.422 1138.64 845.44 1138.64 Q851.227 1138.64 854.607 1141.81 Q857.987 1144.98 857.987 1150.4 Q857.987 1155.98 854.514 1159.08 Q851.042 1162.16 844.723 1162.16 Q842.547 1162.16 840.278 1161.79 Q838.033 1161.42 835.626 1160.68 L835.626 1155.98 Q837.709 1157.11 839.931 1157.67 Q842.153 1158.22 844.63 1158.22 Q848.635 1158.22 850.973 1156.12 Q853.311 1154.01 853.311 1150.4 Q853.311 1146.79 850.973 1144.68 Q848.635 1142.58 844.63 1142.58 Q842.755 1142.58 840.88 1142.99 Q839.028 1143.41 837.084 1144.29 L837.084 1126.93 Z" fill="#000000" fill-rule="nonzero" fill-opacity="1" /><path clip-path="url(#clip990)" d="M1021.82 1157.55 L1038.14 1157.55 L1038.14 1161.49 L1016.2 1161.49 L1016.2 1157.55 Q1018.86 1154.8 1023.44 1150.17 Q1028.05 1145.52 1029.23 1144.17 Q1031.48 1141.65 1032.35 1139.91 Q1033.26 1138.15 1033.26 1136.46 Q1033.26 1133.71 1031.31 1131.97 Q1029.39 1130.24 1026.29 1130.24 Q1024.09 1130.24 1021.64 1131 Q1019.21 1131.77 1016.43 1133.32 L1016.43 1128.59 Q1019.25 1127.46 1021.71 1126.88 Q1024.16 1126.3 1026.2 1126.3 Q1031.57 1126.3 1034.76 1128.99 Q1037.96 1131.67 1037.96 1136.16 Q1037.96 1138.29 1037.15 1140.21 Q1036.36 1142.11 1034.25 1144.71 Q1033.67 1145.38 1030.57 1148.59 Q1027.47 1151.79 1021.82 1157.55 Z" fill="#000000" fill-rule="nonzero" fill-opacity="1" /><path clip-path="url(#clip990)" d="M1057.96 1130.01 Q1054.35 1130.01 1052.52 1133.57 Q1050.71 1137.11 1050.71 1144.24 Q1050.71 1151.35 1052.52 1154.91 Q1054.35 1158.46 1057.96 1158.46 Q1061.59 1158.46 1063.4 1154.91 Q1065.22 1151.35 1065.22 1144.24 Q1065.22 1137.11 1063.4 1133.57 Q1061.59 1130.01 1057.96 1130.01 M1057.96 1126.3 Q1063.77 1126.3 1066.82 1130.91 Q1069.9 1135.49 1069.9 1144.24 Q1069.9 1152.97 1066.82 1157.58 Q1063.77 1162.16 1057.96 1162.16 Q1052.15 1162.16 1049.07 1157.58 Q1046.01 1152.97 1046.01 1144.24 Q1046.01 1135.49 1049.07 1130.91 Q1052.15 1126.3 1057.96 1126.3 Z" fill="#000000" fill-rule="nonzero" fill-opacity="1" /><polyline clip-path="url(#clip990)" style="stroke:#000000; stroke-linecap:round; stroke-linejoin:round; stroke-width:4; stroke-opacity:1; fill:none" points="216.436,1099.09 216.436,92.1521 "/>
<polyline clip-path="url(#clip990)" style="stroke:#000000; stroke-linecap:round; stroke-linejoin:round; stroke-width:4; stroke-opacity:1; fill:none" points="216.436,1087.9 235.334,1087.9 "/>
<polyline clip-path="url(#clip990)" style="stroke:#000000; stroke-linecap:round; stroke-linejoin:round; stroke-width:4; stroke-opacity:1; fill:none" points="216.436,846.091 235.334,846.091 "/>
<polyline clip-path="url(#clip990)" style="stroke:#000000; stroke-linecap:round; stroke-linejoin:round; stroke-width:4; stroke-opacity:1; fill:none" points="216.436,604.277 235.334,604.277 "/>
<polyline clip-path="url(#clip990)" style="stroke:#000000; stroke-linecap:round; stroke-linejoin:round; stroke-width:4; stroke-opacity:1; fill:none" points="216.436,362.464 235.334,362.464 "/>
<polyline clip-path="url(#clip990)" style="stroke:#000000; stroke-linecap:round; stroke-linejoin:round; stroke-width:4; stroke-opacity:1; fill:none" points="216.436,120.65 235.334,120.65 "/>
<path clip-path="url(#clip990)" d="M62.9365 1073.7 Q59.3254 1073.7 57.4967 1077.27 Q55.6912 1080.81 55.6912 1087.94 Q55.6912 1095.05 57.4967 1098.61 Q59.3254 1102.15 62.9365 1102.15 Q66.5707 1102.15 68.3763 1098.61 Q70.205 1095.05 70.205 1087.94 Q70.205 1080.81 68.3763 1077.27 Q66.5707 1073.7 62.9365 1073.7 M62.9365 1070 Q68.7467 1070 71.8022 1074.61 Q74.8809 1079.19 74.8809 1087.94 Q74.8809 1096.67 71.8022 1101.27 Q68.7467 1105.86 62.9365 1105.86 Q57.1264 1105.86 54.0477 1101.27 Q50.9921 1096.67 50.9921 1087.94 Q50.9921 1079.19 54.0477 1074.61 Q57.1264 1070 62.9365 1070 Z" fill="#000000" fill-rule="nonzero" fill-opacity="1" /><path clip-path="url(#clip990)" d="M83.0984 1099.3 L87.9827 1099.3 L87.9827 1105.18 L83.0984 1105.18 L83.0984 1099.3 Z" fill="#000000" fill-rule="nonzero" fill-opacity="1" /><path clip-path="url(#clip990)" d="M108.168 1073.7 Q104.557 1073.7 102.728 1077.27 Q100.922 1080.81 100.922 1087.94 Q100.922 1095.05 102.728 1098.61 Q104.557 1102.15 108.168 1102.15 Q111.802 1102.15 113.608 1098.61 Q115.436 1095.05 115.436 1087.94 Q115.436 1080.81 113.608 1077.27 Q111.802 1073.7 108.168 1073.7 M108.168 1070 Q113.978 1070 117.033 1074.61 Q120.112 1079.19 120.112 1087.94 Q120.112 1096.67 117.033 1101.27 Q113.978 1105.86 108.168 1105.86 Q102.358 1105.86 99.2789 1101.27 Q96.2234 1096.67 96.2234 1087.94 Q96.2234 1079.19 99.2789 1074.61 Q102.358 1070 108.168 1070 Z" fill="#000000" fill-rule="nonzero" fill-opacity="1" /><path clip-path="url(#clip990)" d="M138.33 1073.7 Q134.719 1073.7 132.89 1077.27 Q131.084 1080.81 131.084 1087.94 Q131.084 1095.05 132.89 1098.61 Q134.719 1102.15 138.33 1102.15 Q141.964 1102.15 143.769 1098.61 Q145.598 1095.05 145.598 1087.94 Q145.598 1080.81 143.769 1077.27 Q141.964 1073.7 138.33 1073.7 M138.33 1070 Q144.14 1070 147.195 1074.61 Q150.274 1079.19 150.274 1087.94 Q150.274 1096.67 147.195 1101.27 Q144.14 1105.86 138.33 1105.86 Q132.519 1105.86 129.441 1101.27 Q126.385 1096.67 126.385 1087.94 Q126.385 1079.19 129.441 1074.61 Q132.519 1070 138.33 1070 Z" fill="#000000" fill-rule="nonzero" fill-opacity="1" /><path clip-path="url(#clip990)" d="M168.491 1073.7 Q164.88 1073.7 163.052 1077.27 Q161.246 1080.81 161.246 1087.94 Q161.246 1095.05 163.052 1098.61 Q164.88 1102.15 168.491 1102.15 Q172.126 1102.15 173.931 1098.61 Q175.76 1095.05 175.76 1087.94 Q175.76 1080.81 173.931 1077.27 Q172.126 1073.7 168.491 1073.7 M168.491 1070 Q174.302 1070 177.357 1074.61 Q180.436 1079.19 180.436 1087.94 Q180.436 1096.67 177.357 1101.27 Q174.302 1105.86 168.491 1105.86 Q162.681 1105.86 159.603 1101.27 Q156.547 1096.67 156.547 1087.94 Q156.547 1079.19 159.603 1074.61 Q162.681 1070 168.491 1070 Z" fill="#000000" fill-rule="nonzero" fill-opacity="1" /><path clip-path="url(#clip990)" d="M63.9319 831.889 Q60.3208 831.889 58.4921 835.454 Q56.6865 838.996 56.6865 846.125 Q56.6865 853.232 58.4921 856.797 Q60.3208 860.338 63.9319 860.338 Q67.5661 860.338 69.3717 856.797 Q71.2004 853.232 71.2004 846.125 Q71.2004 838.996 69.3717 835.454 Q67.5661 831.889 63.9319 831.889 M63.9319 828.186 Q69.742 828.186 72.7976 832.792 Q75.8763 837.376 75.8763 846.125 Q75.8763 854.852 72.7976 859.459 Q69.742 864.042 63.9319 864.042 Q58.1217 864.042 55.043 859.459 Q51.9875 854.852 51.9875 846.125 Q51.9875 837.376 55.043 832.792 Q58.1217 828.186 63.9319 828.186 Z" fill="#000000" fill-rule="nonzero" fill-opacity="1" /><path clip-path="url(#clip990)" d="M84.0938 857.491 L88.978 857.491 L88.978 863.371 L84.0938 863.371 L84.0938 857.491 Z" fill="#000000" fill-rule="nonzero" fill-opacity="1" /><path clip-path="url(#clip990)" d="M109.163 831.889 Q105.552 831.889 103.723 835.454 Q101.918 838.996 101.918 846.125 Q101.918 853.232 103.723 856.797 Q105.552 860.338 109.163 860.338 Q112.797 860.338 114.603 856.797 Q116.432 853.232 116.432 846.125 Q116.432 838.996 114.603 835.454 Q112.797 831.889 109.163 831.889 M109.163 828.186 Q114.973 828.186 118.029 832.792 Q121.107 837.376 121.107 846.125 Q121.107 854.852 118.029 859.459 Q114.973 864.042 109.163 864.042 Q103.353 864.042 100.274 859.459 Q97.2187 854.852 97.2187 846.125 Q97.2187 837.376 100.274 832.792 Q103.353 828.186 109.163 828.186 Z" fill="#000000" fill-rule="nonzero" fill-opacity="1" /><path clip-path="url(#clip990)" d="M139.325 831.889 Q135.714 831.889 133.885 835.454 Q132.08 838.996 132.08 846.125 Q132.08 853.232 133.885 856.797 Q135.714 860.338 139.325 860.338 Q142.959 860.338 144.765 856.797 Q146.593 853.232 146.593 846.125 Q146.593 838.996 144.765 835.454 Q142.959 831.889 139.325 831.889 M139.325 828.186 Q145.135 828.186 148.191 832.792 Q151.269 837.376 151.269 846.125 Q151.269 854.852 148.191 859.459 Q145.135 864.042 139.325 864.042 Q133.515 864.042 130.436 859.459 Q127.381 854.852 127.381 846.125 Q127.381 837.376 130.436 832.792 Q133.515 828.186 139.325 828.186 Z" fill="#000000" fill-rule="nonzero" fill-opacity="1" /><path clip-path="url(#clip990)" d="M159.533 828.811 L177.89 828.811 L177.89 832.746 L163.816 832.746 L163.816 841.218 Q164.834 840.871 165.853 840.709 Q166.871 840.524 167.89 840.524 Q173.677 840.524 177.056 843.695 Q180.436 846.866 180.436 852.283 Q180.436 857.862 176.964 860.963 Q173.491 864.042 167.172 864.042 Q164.996 864.042 162.728 863.672 Q160.482 863.301 158.075 862.561 L158.075 857.862 Q160.158 858.996 162.38 859.551 Q164.603 860.107 167.079 860.107 Q171.084 860.107 173.422 858 Q175.76 855.894 175.76 852.283 Q175.76 848.672 173.422 846.565 Q171.084 844.459 167.079 844.459 Q165.204 844.459 163.329 844.875 Q161.478 845.292 159.533 846.172 L159.533 828.811 Z" fill="#000000" fill-rule="nonzero" fill-opacity="1" /><path clip-path="url(#clip990)" d="M62.9365 590.076 Q59.3254 590.076 57.4967 593.641 Q55.6912 597.182 55.6912 604.312 Q55.6912 611.418 57.4967 614.983 Q59.3254 618.525 62.9365 618.525 Q66.5707 618.525 68.3763 614.983 Q70.205 611.418 70.205 604.312 Q70.205 597.182 68.3763 593.641 Q66.5707 590.076 62.9365 590.076 M62.9365 586.372 Q68.7467 586.372 71.8022 590.979 Q74.8809 595.562 74.8809 604.312 Q74.8809 613.039 71.8022 617.645 Q68.7467 622.229 62.9365 622.229 Q57.1264 622.229 54.0477 617.645 Q50.9921 613.039 50.9921 604.312 Q50.9921 595.562 54.0477 590.979 Q57.1264 586.372 62.9365 586.372 Z" fill="#000000" fill-rule="nonzero" fill-opacity="1" /><path clip-path="url(#clip990)" d="M83.0984 615.678 L87.9827 615.678 L87.9827 621.557 L83.0984 621.557 L83.0984 615.678 Z" fill="#000000" fill-rule="nonzero" fill-opacity="1" /><path clip-path="url(#clip990)" d="M108.168 590.076 Q104.557 590.076 102.728 593.641 Q100.922 597.182 100.922 604.312 Q100.922 611.418 102.728 614.983 Q104.557 618.525 108.168 618.525 Q111.802 618.525 113.608 614.983 Q115.436 611.418 115.436 604.312 Q115.436 597.182 113.608 593.641 Q111.802 590.076 108.168 590.076 M108.168 586.372 Q113.978 586.372 117.033 590.979 Q120.112 595.562 120.112 604.312 Q120.112 613.039 117.033 617.645 Q113.978 622.229 108.168 622.229 Q102.358 622.229 99.2789 617.645 Q96.2234 613.039 96.2234 604.312 Q96.2234 595.562 99.2789 590.979 Q102.358 586.372 108.168 586.372 Z" fill="#000000" fill-rule="nonzero" fill-opacity="1" /><path clip-path="url(#clip990)" d="M129.14 617.622 L136.779 617.622 L136.779 591.257 L128.469 592.923 L128.469 588.664 L136.732 586.997 L141.408 586.997 L141.408 617.622 L149.047 617.622 L149.047 621.557 L129.14 621.557 L129.14 617.622 Z" fill="#000000" fill-rule="nonzero" fill-opacity="1" /><path clip-path="url(#clip990)" d="M168.491 590.076 Q164.88 590.076 163.052 593.641 Q161.246 597.182 161.246 604.312 Q161.246 611.418 163.052 614.983 Q164.88 618.525 168.491 618.525 Q172.126 618.525 173.931 614.983 Q175.76 611.418 175.76 604.312 Q175.76 597.182 173.931 593.641 Q172.126 590.076 168.491 590.076 M168.491 586.372 Q174.302 586.372 177.357 590.979 Q180.436 595.562 180.436 604.312 Q180.436 613.039 177.357 617.645 Q174.302 622.229 168.491 622.229 Q162.681 622.229 159.603 617.645 Q156.547 613.039 156.547 604.312 Q156.547 595.562 159.603 590.979 Q162.681 586.372 168.491 586.372 Z" fill="#000000" fill-rule="nonzero" fill-opacity="1" /><path clip-path="url(#clip990)" d="M63.9319 348.262 Q60.3208 348.262 58.4921 351.827 Q56.6865 355.369 56.6865 362.499 Q56.6865 369.605 58.4921 373.17 Q60.3208 376.711 63.9319 376.711 Q67.5661 376.711 69.3717 373.17 Q71.2004 369.605 71.2004 362.499 Q71.2004 355.369 69.3717 351.827 Q67.5661 348.262 63.9319 348.262 M63.9319 344.559 Q69.742 344.559 72.7976 349.165 Q75.8763 353.749 75.8763 362.499 Q75.8763 371.225 72.7976 375.832 Q69.742 380.415 63.9319 380.415 Q58.1217 380.415 55.043 375.832 Q51.9875 371.225 51.9875 362.499 Q51.9875 353.749 55.043 349.165 Q58.1217 344.559 63.9319 344.559 Z" fill="#000000" fill-rule="nonzero" fill-opacity="1" /><path clip-path="url(#clip990)" d="M84.0938 373.864 L88.978 373.864 L88.978 379.744 L84.0938 379.744 L84.0938 373.864 Z" fill="#000000" fill-rule="nonzero" fill-opacity="1" /><path clip-path="url(#clip990)" d="M109.163 348.262 Q105.552 348.262 103.723 351.827 Q101.918 355.369 101.918 362.499 Q101.918 369.605 103.723 373.17 Q105.552 376.711 109.163 376.711 Q112.797 376.711 114.603 373.17 Q116.432 369.605 116.432 362.499 Q116.432 355.369 114.603 351.827 Q112.797 348.262 109.163 348.262 M109.163 344.559 Q114.973 344.559 118.029 349.165 Q121.107 353.749 121.107 362.499 Q121.107 371.225 118.029 375.832 Q114.973 380.415 109.163 380.415 Q103.353 380.415 100.274 375.832 Q97.2187 371.225 97.2187 362.499 Q97.2187 353.749 100.274 349.165 Q103.353 344.559 109.163 344.559 Z" fill="#000000" fill-rule="nonzero" fill-opacity="1" /><path clip-path="url(#clip990)" d="M130.135 375.809 L137.774 375.809 L137.774 349.443 L129.464 351.11 L129.464 346.85 L137.728 345.184 L142.404 345.184 L142.404 375.809 L150.043 375.809 L150.043 379.744 L130.135 379.744 L130.135 375.809 Z" fill="#000000" fill-rule="nonzero" fill-opacity="1" /><path clip-path="url(#clip990)" d="M159.533 345.184 L177.89 345.184 L177.89 349.119 L163.816 349.119 L163.816 357.591 Q164.834 357.244 165.853 357.082 Q166.871 356.897 167.89 356.897 Q173.677 356.897 177.056 360.068 Q180.436 363.239 180.436 368.656 Q180.436 374.235 176.964 377.336 Q173.491 380.415 167.172 380.415 Q164.996 380.415 162.728 380.045 Q160.482 379.674 158.075 378.934 L158.075 374.235 Q160.158 375.369 162.38 375.924 Q164.603 376.48 167.079 376.48 Q171.084 376.48 173.422 374.373 Q175.76 372.267 175.76 368.656 Q175.76 365.045 173.422 362.938 Q171.084 360.832 167.079 360.832 Q165.204 360.832 163.329 361.249 Q161.478 361.665 159.533 362.545 L159.533 345.184 Z" fill="#000000" fill-rule="nonzero" fill-opacity="1" /><path clip-path="url(#clip990)" d="M62.9365 106.449 Q59.3254 106.449 57.4967 110.014 Q55.6912 113.555 55.6912 120.685 Q55.6912 127.791 57.4967 131.356 Q59.3254 134.898 62.9365 134.898 Q66.5707 134.898 68.3763 131.356 Q70.205 127.791 70.205 120.685 Q70.205 113.555 68.3763 110.014 Q66.5707 106.449 62.9365 106.449 M62.9365 102.745 Q68.7467 102.745 71.8022 107.352 Q74.8809 111.935 74.8809 120.685 Q74.8809 129.412 71.8022 134.018 Q68.7467 138.602 62.9365 138.602 Q57.1264 138.602 54.0477 134.018 Q50.9921 129.412 50.9921 120.685 Q50.9921 111.935 54.0477 107.352 Q57.1264 102.745 62.9365 102.745 Z" fill="#000000" fill-rule="nonzero" fill-opacity="1" /><path clip-path="url(#clip990)" d="M83.0984 132.051 L87.9827 132.051 L87.9827 137.93 L83.0984 137.93 L83.0984 132.051 Z" fill="#000000" fill-rule="nonzero" fill-opacity="1" /><path clip-path="url(#clip990)" d="M108.168 106.449 Q104.557 106.449 102.728 110.014 Q100.922 113.555 100.922 120.685 Q100.922 127.791 102.728 131.356 Q104.557 134.898 108.168 134.898 Q111.802 134.898 113.608 131.356 Q115.436 127.791 115.436 120.685 Q115.436 113.555 113.608 110.014 Q111.802 106.449 108.168 106.449 M108.168 102.745 Q113.978 102.745 117.033 107.352 Q120.112 111.935 120.112 120.685 Q120.112 129.412 117.033 134.018 Q113.978 138.602 108.168 138.602 Q102.358 138.602 99.2789 134.018 Q96.2234 129.412 96.2234 120.685 Q96.2234 111.935 99.2789 107.352 Q102.358 102.745 108.168 102.745 Z" fill="#000000" fill-rule="nonzero" fill-opacity="1" /><path clip-path="url(#clip990)" d="M132.357 133.995 L148.677 133.995 L148.677 137.93 L126.732 137.93 L126.732 133.995 Q129.394 131.241 133.978 126.611 Q138.584 121.958 139.765 120.616 Q142.01 118.092 142.89 116.356 Q143.793 114.597 143.793 112.907 Q143.793 110.153 141.848 108.417 Q139.927 106.68 136.825 106.68 Q134.626 106.68 132.172 107.444 Q129.742 108.208 126.964 109.759 L126.964 105.037 Q129.788 103.903 132.242 103.324 Q134.695 102.745 136.732 102.745 Q142.103 102.745 145.297 105.43 Q148.492 108.116 148.492 112.606 Q148.492 114.736 147.681 116.657 Q146.894 118.555 144.788 121.148 Q144.209 121.819 141.107 125.037 Q138.006 128.231 132.357 133.995 Z" fill="#000000" fill-rule="nonzero" fill-opacity="1" /><path clip-path="url(#clip990)" d="M168.491 106.449 Q164.88 106.449 163.052 110.014 Q161.246 113.555 161.246 120.685 Q161.246 127.791 163.052 131.356 Q164.88 134.898 168.491 134.898 Q172.126 134.898 173.931 131.356 Q175.76 127.791 175.76 120.685 Q175.76 113.555 173.931 110.014 Q172.126 106.449 168.491 106.449 M168.491 102.745 Q174.302 102.745 177.357 107.352 Q180.436 111.935 180.436 120.685 Q180.436 129.412 177.357 134.018 Q174.302 138.602 168.491 138.602 Q162.681 138.602 159.603 134.018 Q156.547 129.412 156.547 120.685 Q156.547 111.935 159.603 107.352 Q162.681 102.745 168.491 102.745 Z" fill="#000000" fill-rule="nonzero" fill-opacity="1" /><path clip-path="url(#clip990)" d="M617.734 30.8748 L617.734 33.2186 L595.703 33.2186 Q596.016 38.1665 598.672 40.7706 Q601.354 43.3487 606.12 43.3487 Q608.88 43.3487 611.458 42.6716 Q614.062 41.9946 616.614 40.6404 L616.614 45.1716 Q614.036 46.2654 611.328 46.8383 Q608.62 47.4112 605.833 47.4112 Q598.854 47.4112 594.766 43.3487 Q590.703 39.2862 590.703 32.3592 Q590.703 25.1978 594.557 21.0051 Q598.437 16.7864 605 16.7864 Q610.885 16.7864 614.297 20.5884 Q617.734 24.3645 617.734 30.8748 M612.943 29.4686 Q612.891 25.5363 610.729 23.1926 Q608.594 20.8488 605.052 20.8488 Q601.042 20.8488 598.62 23.1145 Q596.224 25.3801 595.859 29.4946 L612.943 29.4686 Z" fill="#000000" fill-rule="nonzero" fill-opacity="1" /><path clip-path="url(#clip990)" d="M625.104 35.1456 L625.104 17.4895 L629.896 17.4895 L629.896 34.9634 Q629.896 39.104 631.51 41.1873 Q633.125 43.2446 636.354 43.2446 Q640.234 43.2446 642.474 40.7706 Q644.739 38.2967 644.739 34.0259 L644.739 17.4895 L649.531 17.4895 L649.531 46.656 L644.739 46.656 L644.739 42.1769 Q642.995 44.8331 640.677 46.1352 Q638.385 47.4112 635.338 47.4112 Q630.312 47.4112 627.708 44.2862 Q625.104 41.1612 625.104 35.1456 M637.161 16.7864 L637.161 16.7864 Z" fill="#000000" fill-rule="nonzero" fill-opacity="1" /><path clip-path="url(#clip990)" d="M676.302 21.9686 Q675.494 21.4999 674.531 21.2916 Q673.593 21.0572 672.448 21.0572 Q668.385 21.0572 666.198 23.7134 Q664.036 26.3436 664.036 31.2915 L664.036 46.656 L659.218 46.656 L659.218 17.4895 L664.036 17.4895 L664.036 22.0207 Q665.547 19.3645 667.968 18.0884 Q670.39 16.7864 673.854 16.7864 Q674.349 16.7864 674.948 16.8645 Q675.546 16.9166 676.276 17.0468 L676.302 21.9686 Z" fill="#000000" fill-rule="nonzero" fill-opacity="1" /><path clip-path="url(#clip990)" d="M681.328 17.4895 L686.119 17.4895 L686.119 46.656 L681.328 46.656 L681.328 17.4895 M681.328 6.13538 L686.119 6.13538 L686.119 12.2031 L681.328 12.2031 L681.328 6.13538 Z" fill="#000000" fill-rule="nonzero" fill-opacity="1" /><path clip-path="url(#clip990)" d="M717.083 32.0988 Q717.083 26.8124 714.895 23.8176 Q712.734 20.7968 708.932 20.7968 Q705.13 20.7968 702.942 23.8176 Q700.781 26.8124 700.781 32.0988 Q700.781 37.3852 702.942 40.406 Q705.13 43.4008 708.932 43.4008 Q712.734 43.4008 714.895 40.406 Q717.083 37.3852 717.083 32.0988 M700.781 21.9165 Q702.291 19.3124 704.583 18.0624 Q706.9 16.7864 710.104 16.7864 Q715.416 16.7864 718.723 21.0051 Q722.057 25.2238 722.057 32.0988 Q722.057 38.9737 718.723 43.1925 Q715.416 47.4112 710.104 47.4112 Q706.9 47.4112 704.583 46.1612 Q702.291 44.8852 700.781 42.281 L700.781 46.656 L695.963 46.656 L695.963 6.13538 L700.781 6.13538 L700.781 21.9165 Z" fill="#000000" fill-rule="nonzero" fill-opacity="1" /><path clip-path="url(#clip990)" d="M741.301 20.8488 Q737.447 20.8488 735.208 23.8697 Q732.968 26.8644 732.968 32.0988 Q732.968 37.3331 735.182 40.354 Q737.421 43.3487 741.301 43.3487 Q745.129 43.3487 747.369 40.3279 Q749.609 37.3071 749.609 32.0988 Q749.609 26.9165 747.369 23.8957 Q745.129 20.8488 741.301 20.8488 M741.301 16.7864 Q747.551 16.7864 751.119 20.8488 Q754.687 24.9113 754.687 32.0988 Q754.687 39.2602 751.119 43.3487 Q747.551 47.4112 741.301 47.4112 Q735.025 47.4112 731.458 43.3487 Q727.916 39.2602 727.916 32.0988 Q727.916 24.9113 731.458 20.8488 Q735.025 16.7864 741.301 16.7864 Z" fill="#000000" fill-rule="nonzero" fill-opacity="1" /><path clip-path="url(#clip990)" d="M779.53 21.9686 Q778.723 21.4999 777.759 21.2916 Q776.822 21.0572 775.676 21.0572 Q771.614 21.0572 769.426 23.7134 Q767.265 26.3436 767.265 31.2915 L767.265 46.656 L762.447 46.656 L762.447 17.4895 L767.265 17.4895 L767.265 22.0207 Q768.775 19.3645 771.197 18.0884 Q773.619 16.7864 777.082 16.7864 Q777.577 16.7864 778.176 16.8645 Q778.775 16.9166 779.504 17.0468 L779.53 21.9686 Z" fill="#000000" fill-rule="nonzero" fill-opacity="1" /><path clip-path="url(#clip992)" d="M242.965 1008.3 L285.075 1008.3 L327.184 1021.3 L369.294 1050.97 L411.404 1026.16 L453.513 1029.02 L495.623 1037.9 L537.733 1025.98 L579.842 1042.41 L621.952 1055.91 L664.062 1049.75 L706.172 1049.27 L748.281 1043.1 L790.391 1001.3 L832.501 994.645 L874.61 1000.4 L916.72 988.83 L958.83 1017.41 L1000.94 1044.93 L1043.05 1022.38 L1085.16 1023.62 L1127.27 1070.59 L1127.27 915.146 L1085.16 922.344 L1043.05 930.11 L1000.94 887.757 L958.83 903.417 L916.72 894.45 L874.61 915.377 L832.501 933.284 L790.391 903.116 L748.281 881.178 L706.172 848.502 L664.062 893.705 L621.952 905.828 L579.842 902.799 L537.733 894.865 L495.623 885.13 L453.513 952.603 L411.404 947.568 L369.294 986.937 L327.184 990.696 L285.075 1008.3 L242.965 1008.3  Z" fill="#009af9" fill-rule="evenodd" fill-opacity="0.1"/>
<polyline clip-path="url(#clip992)" style="stroke:#009af9; stroke-linecap:round; stroke-linejoin:round; stroke-width:4; stroke-opacity:1; fill:none" points="242.965,1008.3 285.075,1008.3 327.184,1006 369.294,1018.96 411.404,986.866 453.513,990.81 495.623,961.514 537.733,960.424 579.842,972.605 621.952,980.868 664.062,971.726 706.172,948.885 748.281,962.14 790.391,952.207 832.501,963.965 874.61,957.889 916.72,941.64 958.83,960.414 1000.94,966.344 1043.05,976.243 1085.16,972.984 1127.27,992.868 "/>
<path clip-path="url(#clip992)" d="M242.965 1008.3 L285.075 1008.3 L327.184 120.65 L369.294 120.65 L411.404 120.65 L453.513 120.65 L495.623 120.65 L537.733 120.65 L579.842 120.65 L621.952 120.65 L664.062 120.65 L706.172 120.65 L748.281 120.65 L790.391 120.65 L832.501 120.65 L874.61 120.65 L916.72 120.65 L958.83 120.65 L1000.94 120.65 L1043.05 120.65 L1085.16 120.65 L1127.27 120.65 L1127.27 120.65 L1085.16 120.65 L1043.05 120.65 L1000.94 120.65 L958.83 120.65 L916.72 120.65 L874.61 120.65 L832.501 120.65 L790.391 120.65 L748.281 120.65 L706.172 120.65 L664.062 120.65 L621.952 120.65 L579.842 120.65 L537.733 120.65 L495.623 120.65 L453.513 120.65 L411.404 120.65 L369.294 120.65 L327.184 120.65 L285.075 1008.3 L242.965 1008.3  Z" fill="#e26f46" fill-rule="evenodd" fill-opacity="0.1"/>
<polyline clip-path="url(#clip992)" style="stroke:#e26f46; stroke-linecap:round; stroke-linejoin:round; stroke-width:4; stroke-opacity:1; fill:none" points="242.965,1008.3 285.075,1008.3 327.184,120.65 369.294,120.65 411.404,120.65 453.513,120.65 495.623,120.65 537.733,120.65 579.842,120.65 621.952,120.65 664.062,120.65 706.172,120.65 748.281,120.65 790.391,120.65 832.501,120.65 874.61,120.65 916.72,120.65 958.83,120.65 1000.94,120.65 1043.05,120.65 1085.16,120.65 1127.27,120.65 "/>
<path clip-path="url(#clip990)" d="M1415.39 1099.09 L2352.76 1099.09 L2352.76 92.1521 L1415.39 92.1521  Z" fill="#ffffff" fill-rule="evenodd" fill-opacity="1"/>
<defs>
  <clipPath id="clip993">
    <rect x="1415" y="92" width="938" height="1008"/>
  </clipPath>
</defs>
<polyline clip-path="url(#clip993)" style="stroke:#000000; stroke-linecap:round; stroke-linejoin:round; stroke-width:2; stroke-opacity:0.1; fill:none" points="1610.36,1099.09 1610.36,92.1521 "/>
<polyline clip-path="url(#clip993)" style="stroke:#000000; stroke-linecap:round; stroke-linejoin:round; stroke-width:2; stroke-opacity:0.1; fill:none" points="1820.91,1099.09 1820.91,92.1521 "/>
<polyline clip-path="url(#clip993)" style="stroke:#000000; stroke-linecap:round; stroke-linejoin:round; stroke-width:2; stroke-opacity:0.1; fill:none" points="2031.46,1099.09 2031.46,92.1521 "/>
<polyline clip-path="url(#clip993)" style="stroke:#000000; stroke-linecap:round; stroke-linejoin:round; stroke-width:2; stroke-opacity:0.1; fill:none" points="2242.01,1099.09 2242.01,92.1521 "/>
<polyline clip-path="url(#clip993)" style="stroke:#000000; stroke-linecap:round; stroke-linejoin:round; stroke-width:2; stroke-opacity:0.1; fill:none" points="1415.39,1060.27 2352.76,1060.27 "/>
<polyline clip-path="url(#clip993)" style="stroke:#000000; stroke-linecap:round; stroke-linejoin:round; stroke-width:2; stroke-opacity:0.1; fill:none" points="1415.39,835.667 2352.76,835.667 "/>
<polyline clip-path="url(#clip993)" style="stroke:#000000; stroke-linecap:round; stroke-linejoin:round; stroke-width:2; stroke-opacity:0.1; fill:none" points="1415.39,611.066 2352.76,611.066 "/>
<polyline clip-path="url(#clip993)" style="stroke:#000000; stroke-linecap:round; stroke-linejoin:round; stroke-width:2; stroke-opacity:0.1; fill:none" points="1415.39,386.466 2352.76,386.466 "/>
<polyline clip-path="url(#clip993)" style="stroke:#000000; stroke-linecap:round; stroke-linejoin:round; stroke-width:2; stroke-opacity:0.1; fill:none" points="1415.39,161.865 2352.76,161.865 "/>
<polyline clip-path="url(#clip990)" style="stroke:#000000; stroke-linecap:round; stroke-linejoin:round; stroke-width:4; stroke-opacity:1; fill:none" points="1415.39,1099.09 2352.76,1099.09 "/>
<polyline clip-path="url(#clip990)" style="stroke:#000000; stroke-linecap:round; stroke-linejoin:round; stroke-width:4; stroke-opacity:1; fill:none" points="1610.36,1099.09 1610.36,1080.19 "/>
<polyline clip-path="url(#clip990)" style="stroke:#000000; stroke-linecap:round; stroke-linejoin:round; stroke-width:4; stroke-opacity:1; fill:none" points="1820.91,1099.09 1820.91,1080.19 "/>
<polyline clip-path="url(#clip990)" style="stroke:#000000; stroke-linecap:round; stroke-linejoin:round; stroke-width:4; stroke-opacity:1; fill:none" points="2031.46,1099.09 2031.46,1080.19 "/>
<polyline clip-path="url(#clip990)" style="stroke:#000000; stroke-linecap:round; stroke-linejoin:round; stroke-width:4; stroke-opacity:1; fill:none" points="2242.01,1099.09 2242.01,1080.19 "/>
<path clip-path="url(#clip990)" d="M1600.64 1126.93 L1619 1126.93 L1619 1130.86 L1604.92 1130.86 L1604.92 1139.34 Q1605.94 1138.99 1606.96 1138.83 Q1607.98 1138.64 1609 1138.64 Q1614.78 1138.64 1618.16 1141.81 Q1621.54 1144.98 1621.54 1150.4 Q1621.54 1155.98 1618.07 1159.08 Q1614.6 1162.16 1608.28 1162.16 Q1606.1 1162.16 1603.83 1161.79 Q1601.59 1161.42 1599.18 1160.68 L1599.18 1155.98 Q1601.26 1157.11 1603.49 1157.67 Q1605.71 1158.22 1608.19 1158.22 Q1612.19 1158.22 1614.53 1156.12 Q1616.87 1154.01 1616.87 1150.4 Q1616.87 1146.79 1614.53 1144.68 Q1612.19 1142.58 1608.19 1142.58 Q1606.31 1142.58 1604.44 1142.99 Q1602.58 1143.41 1600.64 1144.29 L1600.64 1126.93 Z" fill="#000000" fill-rule="nonzero" fill-opacity="1" /><path clip-path="url(#clip990)" d="M1795.6 1157.55 L1803.24 1157.55 L1803.24 1131.19 L1794.93 1132.85 L1794.93 1128.59 L1803.19 1126.93 L1807.87 1126.93 L1807.87 1157.55 L1815.51 1157.55 L1815.51 1161.49 L1795.6 1161.49 L1795.6 1157.55 Z" fill="#000000" fill-rule="nonzero" fill-opacity="1" /><path clip-path="url(#clip990)" d="M1834.95 1130.01 Q1831.34 1130.01 1829.51 1133.57 Q1827.7 1137.11 1827.7 1144.24 Q1827.7 1151.35 1829.51 1154.91 Q1831.34 1158.46 1834.95 1158.46 Q1838.58 1158.46 1840.39 1154.91 Q1842.22 1151.35 1842.22 1144.24 Q1842.22 1137.11 1840.39 1133.57 Q1838.58 1130.01 1834.95 1130.01 M1834.95 1126.3 Q1840.76 1126.3 1843.82 1130.91 Q1846.89 1135.49 1846.89 1144.24 Q1846.89 1152.97 1843.82 1157.58 Q1840.76 1162.16 1834.95 1162.16 Q1829.14 1162.16 1826.06 1157.58 Q1823.01 1152.97 1823.01 1144.24 Q1823.01 1135.49 1826.06 1130.91 Q1829.14 1126.3 1834.95 1126.3 Z" fill="#000000" fill-rule="nonzero" fill-opacity="1" /><path clip-path="url(#clip990)" d="M2006.64 1157.55 L2014.28 1157.55 L2014.28 1131.19 L2005.97 1132.85 L2005.97 1128.59 L2014.24 1126.93 L2018.91 1126.93 L2018.91 1157.55 L2026.55 1157.55 L2026.55 1161.49 L2006.64 1161.49 L2006.64 1157.55 Z" fill="#000000" fill-rule="nonzero" fill-opacity="1" /><path clip-path="url(#clip990)" d="M2036.04 1126.93 L2054.4 1126.93 L2054.4 1130.86 L2040.32 1130.86 L2040.32 1139.34 Q2041.34 1138.99 2042.36 1138.83 Q2043.38 1138.64 2044.4 1138.64 Q2050.19 1138.64 2053.57 1141.81 Q2056.94 1144.98 2056.94 1150.4 Q2056.94 1155.98 2053.47 1159.08 Q2050 1162.16 2043.68 1162.16 Q2041.51 1162.16 2039.24 1161.79 Q2036.99 1161.42 2034.58 1160.68 L2034.58 1155.98 Q2036.67 1157.11 2038.89 1157.67 Q2041.11 1158.22 2043.59 1158.22 Q2047.59 1158.22 2049.93 1156.12 Q2052.27 1154.01 2052.27 1150.4 Q2052.27 1146.79 2049.93 1144.68 Q2047.59 1142.58 2043.59 1142.58 Q2041.71 1142.58 2039.84 1142.99 Q2037.99 1143.41 2036.04 1144.29 L2036.04 1126.93 Z" fill="#000000" fill-rule="nonzero" fill-opacity="1" /><path clip-path="url(#clip990)" d="M2220.78 1157.55 L2237.1 1157.55 L2237.1 1161.49 L2215.16 1161.49 L2215.16 1157.55 Q2217.82 1154.8 2222.4 1150.17 Q2227.01 1145.52 2228.19 1144.17 Q2230.43 1141.65 2231.31 1139.91 Q2232.22 1138.15 2232.22 1136.46 Q2232.22 1133.71 2230.27 1131.97 Q2228.35 1130.24 2225.25 1130.24 Q2223.05 1130.24 2220.6 1131 Q2218.16 1131.77 2215.39 1133.32 L2215.39 1128.59 Q2218.21 1127.46 2220.66 1126.88 Q2223.12 1126.3 2225.16 1126.3 Q2230.53 1126.3 2233.72 1128.99 Q2236.91 1131.67 2236.91 1136.16 Q2236.91 1138.29 2236.1 1140.21 Q2235.32 1142.11 2233.21 1144.71 Q2232.63 1145.38 2229.53 1148.59 Q2226.43 1151.79 2220.78 1157.55 Z" fill="#000000" fill-rule="nonzero" fill-opacity="1" /><path clip-path="url(#clip990)" d="M2256.91 1130.01 Q2253.3 1130.01 2251.47 1133.57 Q2249.67 1137.11 2249.67 1144.24 Q2249.67 1151.35 2251.47 1154.91 Q2253.3 1158.46 2256.91 1158.46 Q2260.55 1158.46 2262.35 1154.91 Q2264.18 1151.35 2264.18 1144.24 Q2264.18 1137.11 2262.35 1133.57 Q2260.55 1130.01 2256.91 1130.01 M2256.91 1126.3 Q2262.72 1126.3 2265.78 1130.91 Q2268.86 1135.49 2268.86 1144.24 Q2268.86 1152.97 2265.78 1157.58 Q2262.72 1162.16 2256.91 1162.16 Q2251.1 1162.16 2248.03 1157.58 Q2244.97 1152.97 2244.97 1144.24 Q2244.97 1135.49 2248.03 1130.91 Q2251.1 1126.3 2256.91 1126.3 Z" fill="#000000" fill-rule="nonzero" fill-opacity="1" /><polyline clip-path="url(#clip990)" style="stroke:#000000; stroke-linecap:round; stroke-linejoin:round; stroke-width:4; stroke-opacity:1; fill:none" points="1415.39,1099.09 1415.39,92.1521 "/>
<polyline clip-path="url(#clip990)" style="stroke:#000000; stroke-linecap:round; stroke-linejoin:round; stroke-width:4; stroke-opacity:1; fill:none" points="1415.39,1060.27 1434.29,1060.27 "/>
<polyline clip-path="url(#clip990)" style="stroke:#000000; stroke-linecap:round; stroke-linejoin:round; stroke-width:4; stroke-opacity:1; fill:none" points="1415.39,835.667 1434.29,835.667 "/>
<polyline clip-path="url(#clip990)" style="stroke:#000000; stroke-linecap:round; stroke-linejoin:round; stroke-width:4; stroke-opacity:1; fill:none" points="1415.39,611.066 1434.29,611.066 "/>
<polyline clip-path="url(#clip990)" style="stroke:#000000; stroke-linecap:round; stroke-linejoin:round; stroke-width:4; stroke-opacity:1; fill:none" points="1415.39,386.466 1434.29,386.466 "/>
<polyline clip-path="url(#clip990)" style="stroke:#000000; stroke-linecap:round; stroke-linejoin:round; stroke-width:4; stroke-opacity:1; fill:none" points="1415.39,161.865 1434.29,161.865 "/>
<path clip-path="url(#clip990)" d="M1252.71 1073.61 L1260.34 1073.61 L1260.34 1047.25 L1252.03 1048.91 L1252.03 1044.65 L1260.3 1042.99 L1264.97 1042.99 L1264.97 1073.61 L1272.61 1073.61 L1272.61 1077.55 L1252.71 1077.55 L1252.71 1073.61 Z" fill="#000000" fill-rule="nonzero" fill-opacity="1" /><path clip-path="url(#clip990)" d="M1282.06 1071.67 L1286.94 1071.67 L1286.94 1077.55 L1282.06 1077.55 L1282.06 1071.67 Z" fill="#000000" fill-rule="nonzero" fill-opacity="1" /><path clip-path="url(#clip990)" d="M1307.13 1046.07 Q1303.51 1046.07 1301.69 1049.63 Q1299.88 1053.17 1299.88 1060.3 Q1299.88 1067.41 1301.69 1070.97 Q1303.51 1074.52 1307.13 1074.52 Q1310.76 1074.52 1312.57 1070.97 Q1314.39 1067.41 1314.39 1060.3 Q1314.39 1053.17 1312.57 1049.63 Q1310.76 1046.07 1307.13 1046.07 M1307.13 1042.36 Q1312.94 1042.36 1315.99 1046.97 Q1319.07 1051.55 1319.07 1060.3 Q1319.07 1069.03 1315.99 1073.64 Q1312.94 1078.22 1307.13 1078.22 Q1301.32 1078.22 1298.24 1073.64 Q1295.18 1069.03 1295.18 1060.3 Q1295.18 1051.55 1298.24 1046.97 Q1301.32 1042.36 1307.13 1042.36 Z" fill="#000000" fill-rule="nonzero" fill-opacity="1" /><path clip-path="url(#clip990)" d="M1337.29 1046.07 Q1333.68 1046.07 1331.85 1049.63 Q1330.04 1053.17 1330.04 1060.3 Q1330.04 1067.41 1331.85 1070.97 Q1333.68 1074.52 1337.29 1074.52 Q1340.92 1074.52 1342.73 1070.97 Q1344.56 1067.41 1344.56 1060.3 Q1344.56 1053.17 1342.73 1049.63 Q1340.92 1046.07 1337.29 1046.07 M1337.29 1042.36 Q1343.1 1042.36 1346.15 1046.97 Q1349.23 1051.55 1349.23 1060.3 Q1349.23 1069.03 1346.15 1073.64 Q1343.1 1078.22 1337.29 1078.22 Q1331.48 1078.22 1328.4 1073.64 Q1325.34 1069.03 1325.34 1060.3 Q1325.34 1051.55 1328.4 1046.97 Q1331.48 1042.36 1337.29 1042.36 Z" fill="#000000" fill-rule="nonzero" fill-opacity="1" /><path clip-path="url(#clip990)" d="M1367.45 1046.07 Q1363.84 1046.07 1362.01 1049.63 Q1360.2 1053.17 1360.2 1060.3 Q1360.2 1067.41 1362.01 1070.97 Q1363.84 1074.52 1367.45 1074.52 Q1371.08 1074.52 1372.89 1070.97 Q1374.72 1067.41 1374.72 1060.3 Q1374.72 1053.17 1372.89 1049.63 Q1371.08 1046.07 1367.45 1046.07 M1367.45 1042.36 Q1373.26 1042.36 1376.32 1046.97 Q1379.39 1051.55 1379.39 1060.3 Q1379.39 1069.03 1376.32 1073.64 Q1373.26 1078.22 1367.45 1078.22 Q1361.64 1078.22 1358.56 1073.64 Q1355.51 1069.03 1355.51 1060.3 Q1355.51 1051.55 1358.56 1046.97 Q1361.64 1042.36 1367.45 1042.36 Z" fill="#000000" fill-rule="nonzero" fill-opacity="1" /><path clip-path="url(#clip990)" d="M1253.7 849.012 L1261.34 849.012 L1261.34 822.646 L1253.03 824.313 L1253.03 820.054 L1261.29 818.387 L1265.97 818.387 L1265.97 849.012 L1273.61 849.012 L1273.61 852.947 L1253.7 852.947 L1253.7 849.012 Z" fill="#000000" fill-rule="nonzero" fill-opacity="1" /><path clip-path="url(#clip990)" d="M1283.05 847.067 L1287.94 847.067 L1287.94 852.947 L1283.05 852.947 L1283.05 847.067 Z" fill="#000000" fill-rule="nonzero" fill-opacity="1" /><path clip-path="url(#clip990)" d="M1308.12 821.466 Q1304.51 821.466 1302.68 825.031 Q1300.88 828.572 1300.88 835.702 Q1300.88 842.808 1302.68 846.373 Q1304.51 849.915 1308.12 849.915 Q1311.76 849.915 1313.56 846.373 Q1315.39 842.808 1315.39 835.702 Q1315.39 828.572 1313.56 825.031 Q1311.76 821.466 1308.12 821.466 M1308.12 817.762 Q1313.93 817.762 1316.99 822.369 Q1320.07 826.952 1320.07 835.702 Q1320.07 844.429 1316.99 849.035 Q1313.93 853.618 1308.12 853.618 Q1302.31 853.618 1299.23 849.035 Q1296.18 844.429 1296.18 835.702 Q1296.18 826.952 1299.23 822.369 Q1302.31 817.762 1308.12 817.762 Z" fill="#000000" fill-rule="nonzero" fill-opacity="1" /><path clip-path="url(#clip990)" d="M1332.31 849.012 L1348.63 849.012 L1348.63 852.947 L1326.69 852.947 L1326.69 849.012 Q1329.35 846.257 1333.93 841.628 Q1338.54 836.975 1339.72 835.632 Q1341.96 833.109 1342.84 831.373 Q1343.75 829.614 1343.75 827.924 Q1343.75 825.169 1341.8 823.433 Q1339.88 821.697 1336.78 821.697 Q1334.58 821.697 1332.13 822.461 Q1329.7 823.225 1326.92 824.776 L1326.92 820.054 Q1329.74 818.919 1332.2 818.341 Q1334.65 817.762 1336.69 817.762 Q1342.06 817.762 1345.25 820.447 Q1348.45 823.132 1348.45 827.623 Q1348.45 829.753 1347.64 831.674 Q1346.85 833.572 1344.74 836.165 Q1344.16 836.836 1341.06 840.054 Q1337.96 843.248 1332.31 849.012 Z" fill="#000000" fill-rule="nonzero" fill-opacity="1" /><path clip-path="url(#clip990)" d="M1358.49 818.387 L1376.85 818.387 L1376.85 822.322 L1362.77 822.322 L1362.77 830.794 Q1363.79 830.447 1364.81 830.285 Q1365.83 830.1 1366.85 830.1 Q1372.63 830.1 1376.01 833.271 Q1379.39 836.443 1379.39 841.859 Q1379.39 847.438 1375.92 850.54 Q1372.45 853.618 1366.13 853.618 Q1363.95 853.618 1361.69 853.248 Q1359.44 852.878 1357.03 852.137 L1357.03 847.438 Q1359.12 848.572 1361.34 849.128 Q1363.56 849.683 1366.04 849.683 Q1370.04 849.683 1372.38 847.577 Q1374.72 845.47 1374.72 841.859 Q1374.72 838.248 1372.38 836.142 Q1370.04 834.035 1366.04 834.035 Q1364.16 834.035 1362.29 834.452 Q1360.44 834.868 1358.49 835.748 L1358.49 818.387 Z" fill="#000000" fill-rule="nonzero" fill-opacity="1" /><path clip-path="url(#clip990)" d="M1252.71 624.411 L1260.34 624.411 L1260.34 598.046 L1252.03 599.712 L1252.03 595.453 L1260.3 593.786 L1264.97 593.786 L1264.97 624.411 L1272.61 624.411 L1272.61 628.346 L1252.71 628.346 L1252.71 624.411 Z" fill="#000000" fill-rule="nonzero" fill-opacity="1" /><path clip-path="url(#clip990)" d="M1282.06 622.467 L1286.94 622.467 L1286.94 628.346 L1282.06 628.346 L1282.06 622.467 Z" fill="#000000" fill-rule="nonzero" fill-opacity="1" /><path clip-path="url(#clip990)" d="M1307.13 596.865 Q1303.51 596.865 1301.69 600.43 Q1299.88 603.972 1299.88 611.101 Q1299.88 618.208 1301.69 621.772 Q1303.51 625.314 1307.13 625.314 Q1310.76 625.314 1312.57 621.772 Q1314.39 618.208 1314.39 611.101 Q1314.39 603.972 1312.57 600.43 Q1310.76 596.865 1307.13 596.865 M1307.13 593.161 Q1312.94 593.161 1315.99 597.768 Q1319.07 602.351 1319.07 611.101 Q1319.07 619.828 1315.99 624.434 Q1312.94 629.018 1307.13 629.018 Q1301.32 629.018 1298.24 624.434 Q1295.18 619.828 1295.18 611.101 Q1295.18 602.351 1298.24 597.768 Q1301.32 593.161 1307.13 593.161 Z" fill="#000000" fill-rule="nonzero" fill-opacity="1" /><path clip-path="url(#clip990)" d="M1327.33 593.786 L1345.69 593.786 L1345.69 597.722 L1331.62 597.722 L1331.62 606.194 Q1332.64 605.847 1333.65 605.685 Q1334.67 605.499 1335.69 605.499 Q1341.48 605.499 1344.86 608.671 Q1348.24 611.842 1348.24 617.259 Q1348.24 622.837 1344.76 625.939 Q1341.29 629.018 1334.97 629.018 Q1332.8 629.018 1330.53 628.647 Q1328.28 628.277 1325.88 627.536 L1325.88 622.837 Q1327.96 623.971 1330.18 624.527 Q1332.4 625.083 1334.88 625.083 Q1338.89 625.083 1341.22 622.976 Q1343.56 620.87 1343.56 617.259 Q1343.56 613.647 1341.22 611.541 Q1338.89 609.435 1334.88 609.435 Q1333.01 609.435 1331.13 609.851 Q1329.28 610.268 1327.33 611.147 L1327.33 593.786 Z" fill="#000000" fill-rule="nonzero" fill-opacity="1" /><path clip-path="url(#clip990)" d="M1367.45 596.865 Q1363.84 596.865 1362.01 600.43 Q1360.2 603.972 1360.2 611.101 Q1360.2 618.208 1362.01 621.772 Q1363.84 625.314 1367.45 625.314 Q1371.08 625.314 1372.89 621.772 Q1374.72 618.208 1374.72 611.101 Q1374.72 603.972 1372.89 600.43 Q1371.08 596.865 1367.45 596.865 M1367.45 593.161 Q1373.26 593.161 1376.32 597.768 Q1379.39 602.351 1379.39 611.101 Q1379.39 619.828 1376.32 624.434 Q1373.26 629.018 1367.45 629.018 Q1361.64 629.018 1358.56 624.434 Q1355.51 619.828 1355.51 611.101 Q1355.51 602.351 1358.56 597.768 Q1361.64 593.161 1367.45 593.161 Z" fill="#000000" fill-rule="nonzero" fill-opacity="1" /><path clip-path="url(#clip990)" d="M1253.7 399.811 L1261.34 399.811 L1261.34 373.445 L1253.03 375.112 L1253.03 370.853 L1261.29 369.186 L1265.97 369.186 L1265.97 399.811 L1273.61 399.811 L1273.61 403.746 L1253.7 403.746 L1253.7 399.811 Z" fill="#000000" fill-rule="nonzero" fill-opacity="1" /><path clip-path="url(#clip990)" d="M1283.05 397.866 L1287.94 397.866 L1287.94 403.746 L1283.05 403.746 L1283.05 397.866 Z" fill="#000000" fill-rule="nonzero" fill-opacity="1" /><path clip-path="url(#clip990)" d="M1308.12 372.265 Q1304.51 372.265 1302.68 375.829 Q1300.88 379.371 1300.88 386.501 Q1300.88 393.607 1302.68 397.172 Q1304.51 400.713 1308.12 400.713 Q1311.76 400.713 1313.56 397.172 Q1315.39 393.607 1315.39 386.501 Q1315.39 379.371 1313.56 375.829 Q1311.76 372.265 1308.12 372.265 M1308.12 368.561 Q1313.93 368.561 1316.99 373.167 Q1320.07 377.751 1320.07 386.501 Q1320.07 395.227 1316.99 399.834 Q1313.93 404.417 1308.12 404.417 Q1302.31 404.417 1299.23 399.834 Q1296.18 395.227 1296.18 386.501 Q1296.18 377.751 1299.23 373.167 Q1302.31 368.561 1308.12 368.561 Z" fill="#000000" fill-rule="nonzero" fill-opacity="1" /><path clip-path="url(#clip990)" d="M1327.1 369.186 L1349.32 369.186 L1349.32 371.177 L1336.78 403.746 L1331.89 403.746 L1343.7 373.121 L1327.1 373.121 L1327.1 369.186 Z" fill="#000000" fill-rule="nonzero" fill-opacity="1" /><path clip-path="url(#clip990)" d="M1358.49 369.186 L1376.85 369.186 L1376.85 373.121 L1362.77 373.121 L1362.77 381.593 Q1363.79 381.246 1364.81 381.084 Q1365.83 380.899 1366.85 380.899 Q1372.63 380.899 1376.01 384.07 Q1379.39 387.241 1379.39 392.658 Q1379.39 398.237 1375.92 401.338 Q1372.45 404.417 1366.13 404.417 Q1363.95 404.417 1361.69 404.047 Q1359.44 403.676 1357.03 402.936 L1357.03 398.237 Q1359.12 399.371 1361.34 399.926 Q1363.56 400.482 1366.04 400.482 Q1370.04 400.482 1372.38 398.376 Q1374.72 396.269 1374.72 392.658 Q1374.72 389.047 1372.38 386.94 Q1370.04 384.834 1366.04 384.834 Q1364.16 384.834 1362.29 385.251 Q1360.44 385.667 1358.49 386.547 L1358.49 369.186 Z" fill="#000000" fill-rule="nonzero" fill-opacity="1" /><path clip-path="url(#clip990)" d="M1252.71 175.21 L1260.34 175.21 L1260.34 148.845 L1252.03 150.511 L1252.03 146.252 L1260.3 144.585 L1264.97 144.585 L1264.97 175.21 L1272.61 175.21 L1272.61 179.145 L1252.71 179.145 L1252.71 175.21 Z" fill="#000000" fill-rule="nonzero" fill-opacity="1" /><path clip-path="url(#clip990)" d="M1282.06 173.266 L1286.94 173.266 L1286.94 179.145 L1282.06 179.145 L1282.06 173.266 Z" fill="#000000" fill-rule="nonzero" fill-opacity="1" /><path clip-path="url(#clip990)" d="M1297.94 175.21 L1305.58 175.21 L1305.58 148.845 L1297.27 150.511 L1297.27 146.252 L1305.53 144.585 L1310.2 144.585 L1310.2 175.21 L1317.84 175.21 L1317.84 179.145 L1297.94 179.145 L1297.94 175.21 Z" fill="#000000" fill-rule="nonzero" fill-opacity="1" /><path clip-path="url(#clip990)" d="M1337.29 147.664 Q1333.68 147.664 1331.85 151.229 Q1330.04 154.77 1330.04 161.9 Q1330.04 169.006 1331.85 172.571 Q1333.68 176.113 1337.29 176.113 Q1340.92 176.113 1342.73 172.571 Q1344.56 169.006 1344.56 161.9 Q1344.56 154.77 1342.73 151.229 Q1340.92 147.664 1337.29 147.664 M1337.29 143.96 Q1343.1 143.96 1346.15 148.567 Q1349.23 153.15 1349.23 161.9 Q1349.23 170.627 1346.15 175.233 Q1343.1 179.817 1337.29 179.817 Q1331.48 179.817 1328.4 175.233 Q1325.34 170.627 1325.34 161.9 Q1325.34 153.15 1328.4 148.567 Q1331.48 143.96 1337.29 143.96 Z" fill="#000000" fill-rule="nonzero" fill-opacity="1" /><path clip-path="url(#clip990)" d="M1367.45 147.664 Q1363.84 147.664 1362.01 151.229 Q1360.2 154.77 1360.2 161.9 Q1360.2 169.006 1362.01 172.571 Q1363.84 176.113 1367.45 176.113 Q1371.08 176.113 1372.89 172.571 Q1374.72 169.006 1374.72 161.9 Q1374.72 154.77 1372.89 151.229 Q1371.08 147.664 1367.45 147.664 M1367.45 143.96 Q1373.26 143.96 1376.32 148.567 Q1379.39 153.15 1379.39 161.9 Q1379.39 170.627 1376.32 175.233 Q1373.26 179.817 1367.45 179.817 Q1361.64 179.817 1358.56 175.233 Q1355.51 170.627 1355.51 161.9 Q1355.51 153.15 1358.56 148.567 Q1361.64 143.96 1367.45 143.96 Z" fill="#000000" fill-rule="nonzero" fill-opacity="1" /><path clip-path="url(#clip990)" d="M1743.36 31.7342 Q1743.36 26.5259 1741.2 23.6613 Q1739.06 20.7968 1735.18 20.7968 Q1731.33 20.7968 1729.17 23.6613 Q1727.03 26.5259 1727.03 31.7342 Q1727.03 36.9165 1729.17 39.781 Q1731.33 42.6456 1735.18 42.6456 Q1739.06 42.6456 1741.2 39.781 Q1743.36 36.9165 1743.36 31.7342 M1748.15 43.0362 Q1748.15 50.4841 1744.84 54.1039 Q1741.54 57.7497 1734.71 57.7497 Q1732.19 57.7497 1729.95 57.3591 Q1727.71 56.9945 1725.6 56.2132 L1725.6 51.5518 Q1727.71 52.6976 1729.77 53.2445 Q1731.82 53.7914 1733.96 53.7914 Q1738.67 53.7914 1741.02 51.3174 Q1743.36 48.8695 1743.36 43.8956 L1743.36 41.5258 Q1741.88 44.1039 1739.56 45.38 Q1737.24 46.656 1734.01 46.656 Q1728.65 46.656 1725.36 42.5675 Q1722.08 38.479 1722.08 31.7342 Q1722.08 24.9634 1725.36 20.8749 Q1728.65 16.7864 1734.01 16.7864 Q1737.24 16.7864 1739.56 18.0624 Q1741.88 19.3384 1743.36 21.9165 L1743.36 17.4895 L1748.15 17.4895 L1748.15 43.0362 Z" fill="#000000" fill-rule="nonzero" fill-opacity="1" /><path clip-path="url(#clip990)" d="M1777.21 21.9165 L1777.21 6.13538 L1782.01 6.13538 L1782.01 46.656 L1777.21 46.656 L1777.21 42.281 Q1775.7 44.8852 1773.39 46.1612 Q1771.09 47.4112 1767.86 47.4112 Q1762.58 47.4112 1759.25 43.1925 Q1755.94 38.9737 1755.94 32.0988 Q1755.94 25.2238 1759.25 21.0051 Q1762.58 16.7864 1767.86 16.7864 Q1771.09 16.7864 1773.39 18.0624 Q1775.7 19.3124 1777.21 21.9165 M1760.89 32.0988 Q1760.89 37.3852 1763.05 40.406 Q1765.23 43.4008 1769.04 43.4008 Q1772.84 43.4008 1775.03 40.406 Q1777.21 37.3852 1777.21 32.0988 Q1777.21 26.8124 1775.03 23.8176 Q1772.84 20.7968 1769.04 20.7968 Q1765.23 20.7968 1763.05 23.8176 Q1760.89 26.8124 1760.89 32.0988 Z" fill="#000000" fill-rule="nonzero" fill-opacity="1" /><path clip-path="url(#clip990)" d="M1796.51 42.281 L1796.51 57.7497 L1791.69 57.7497 L1791.69 17.4895 L1796.51 17.4895 L1796.51 21.9165 Q1798.02 19.3124 1800.31 18.0624 Q1802.63 16.7864 1805.83 16.7864 Q1811.15 16.7864 1814.45 21.0051 Q1817.79 25.2238 1817.79 32.0988 Q1817.79 38.9737 1814.45 43.1925 Q1811.15 47.4112 1805.83 47.4112 Q1802.63 47.4112 1800.31 46.1612 Q1798.02 44.8852 1796.51 42.281 M1812.81 32.0988 Q1812.81 26.8124 1810.62 23.8176 Q1808.46 20.7968 1804.66 20.7968 Q1800.86 20.7968 1798.67 23.8176 Q1796.51 26.8124 1796.51 32.0988 Q1796.51 37.3852 1798.67 40.406 Q1800.86 43.4008 1804.66 43.4008 Q1808.46 43.4008 1810.62 40.406 Q1812.81 37.3852 1812.81 32.0988 Z" fill="#000000" fill-rule="nonzero" fill-opacity="1" /><path clip-path="url(#clip990)" d="M1861.87 21.9165 L1861.87 6.13538 L1866.67 6.13538 L1866.67 46.656 L1861.87 46.656 L1861.87 42.281 Q1860.36 44.8852 1858.05 46.1612 Q1855.75 47.4112 1852.53 47.4112 Q1847.24 47.4112 1843.91 43.1925 Q1840.6 38.9737 1840.6 32.0988 Q1840.6 25.2238 1843.91 21.0051 Q1847.24 16.7864 1852.53 16.7864 Q1855.75 16.7864 1858.05 18.0624 Q1860.36 19.3124 1861.87 21.9165 M1845.55 32.0988 Q1845.55 37.3852 1847.71 40.406 Q1849.9 43.4008 1853.7 43.4008 Q1857.5 43.4008 1859.69 40.406 Q1861.87 37.3852 1861.87 32.0988 Q1861.87 26.8124 1859.69 23.8176 Q1857.5 20.7968 1853.7 20.7968 Q1849.9 20.7968 1847.71 23.8176 Q1845.55 26.8124 1845.55 32.0988 Z" fill="#000000" fill-rule="nonzero" fill-opacity="1" /><path clip-path="url(#clip990)" d="M1901.48 30.8748 L1901.48 33.2186 L1879.45 33.2186 Q1879.77 38.1665 1882.42 40.7706 Q1885.1 43.3487 1889.87 43.3487 Q1892.63 43.3487 1895.21 42.6716 Q1897.81 41.9946 1900.36 40.6404 L1900.36 45.1716 Q1897.79 46.2654 1895.08 46.8383 Q1892.37 47.4112 1889.58 47.4112 Q1882.6 47.4112 1878.52 43.3487 Q1874.45 39.2862 1874.45 32.3592 Q1874.45 25.1978 1878.31 21.0051 Q1882.19 16.7864 1888.75 16.7864 Q1894.63 16.7864 1898.05 20.5884 Q1901.48 24.3645 1901.48 30.8748 M1896.69 29.4686 Q1896.64 25.5363 1894.48 23.1926 Q1892.34 20.8488 1888.8 20.8488 Q1884.79 20.8488 1882.37 23.1145 Q1879.97 25.3801 1879.61 29.4946 L1896.69 29.4686 Z" fill="#000000" fill-rule="nonzero" fill-opacity="1" /><path clip-path="url(#clip990)" d="M1924.11 6.13538 L1924.11 10.1197 L1919.53 10.1197 Q1916.95 10.1197 1915.94 11.1614 Q1914.95 12.2031 1914.95 14.9114 L1914.95 17.4895 L1922.84 17.4895 L1922.84 21.2134 L1914.95 21.2134 L1914.95 46.656 L1910.13 46.656 L1910.13 21.2134 L1905.55 21.2134 L1905.55 17.4895 L1910.13 17.4895 L1910.13 15.4583 Q1910.13 10.5885 1912.4 8.37496 Q1914.66 6.13538 1919.58 6.13538 L1924.11 6.13538 Z" fill="#000000" fill-rule="nonzero" fill-opacity="1" /><path clip-path="url(#clip990)" d="M1928.12 6.13538 L1932.92 6.13538 L1932.92 46.656 L1928.12 46.656 L1928.12 6.13538 Z" fill="#000000" fill-rule="nonzero" fill-opacity="1" /><path clip-path="url(#clip990)" d="M1956.2 31.9946 Q1950.39 31.9946 1948.15 33.3227 Q1945.91 34.6509 1945.91 37.854 Q1945.91 40.406 1947.58 41.9164 Q1949.27 43.4008 1952.16 43.4008 Q1956.14 43.4008 1958.54 40.5883 Q1960.96 37.7498 1960.96 33.0623 L1960.96 31.9946 L1956.2 31.9946 M1965.75 30.0155 L1965.75 46.656 L1960.96 46.656 L1960.96 42.2289 Q1959.32 44.8852 1956.87 46.1612 Q1954.43 47.4112 1950.88 47.4112 Q1946.41 47.4112 1943.75 44.9112 Q1941.12 42.3852 1941.12 38.1665 Q1941.12 33.2446 1944.4 30.7446 Q1947.71 28.2446 1954.24 28.2446 L1960.96 28.2446 L1960.96 27.7759 Q1960.96 24.4686 1958.78 22.6718 Q1956.61 20.8488 1952.68 20.8488 Q1950.18 20.8488 1947.81 21.4478 Q1945.44 22.0468 1943.25 23.2447 L1943.25 18.8176 Q1945.88 17.802 1948.36 17.3072 Q1950.83 16.7864 1953.18 16.7864 Q1959.5 16.7864 1962.63 20.0676 Q1965.75 23.3488 1965.75 30.0155 Z" fill="#000000" fill-rule="nonzero" fill-opacity="1" /><path clip-path="url(#clip990)" d="M1980.36 9.20828 L1980.36 17.4895 L1990.23 17.4895 L1990.23 21.2134 L1980.36 21.2134 L1980.36 37.0467 Q1980.36 40.6144 1981.33 41.63 Q1982.32 42.6456 1985.31 42.6456 L1990.23 42.6456 L1990.23 46.656 L1985.31 46.656 Q1979.76 46.656 1977.66 44.5987 Q1975.55 42.5154 1975.55 37.0467 L1975.55 21.2134 L1972.03 21.2134 L1972.03 17.4895 L1975.55 17.4895 L1975.55 9.20828 L1980.36 9.20828 Z" fill="#000000" fill-rule="nonzero" fill-opacity="1" /><path clip-path="url(#clip990)" d="M2007.84 20.8488 Q2003.98 20.8488 2001.74 23.8697 Q1999.5 26.8644 1999.5 32.0988 Q1999.5 37.3331 2001.72 40.354 Q2003.96 43.3487 2007.84 43.3487 Q2011.67 43.3487 2013.91 40.3279 Q2016.14 37.3071 2016.14 32.0988 Q2016.14 26.9165 2013.91 23.8957 Q2011.67 20.8488 2007.84 20.8488 M2007.84 16.7864 Q2014.09 16.7864 2017.66 20.8488 Q2021.22 24.9113 2021.22 32.0988 Q2021.22 39.2602 2017.66 43.3487 Q2014.09 47.4112 2007.84 47.4112 Q2001.56 47.4112 1997.99 43.3487 Q1994.45 39.2602 1994.45 32.0988 Q1994.45 24.9113 1997.99 20.8488 Q2001.56 16.7864 2007.84 16.7864 Z" fill="#000000" fill-rule="nonzero" fill-opacity="1" /><path clip-path="url(#clip990)" d="M2046.07 21.9686 Q2045.26 21.4999 2044.3 21.2916 Q2043.36 21.0572 2042.21 21.0572 Q2038.15 21.0572 2035.96 23.7134 Q2033.8 26.3436 2033.8 31.2915 L2033.8 46.656 L2028.98 46.656 L2028.98 17.4895 L2033.8 17.4895 L2033.8 22.0207 Q2035.31 19.3645 2037.73 18.0884 Q2040.15 16.7864 2043.62 16.7864 Q2044.11 16.7864 2044.71 16.8645 Q2045.31 16.9166 2046.04 17.0468 L2046.07 21.9686 Z" fill="#000000" fill-rule="nonzero" fill-opacity="1" /><path clip-path="url(#clip993)" d="M1526.14 1070.59 L1568.25 1066.58 L1610.36 1002.91 L1652.47 1032.48 L1694.58 1030.99 L1736.69 1062.18 L1778.8 1046.32 L1820.91 1029.81 L1863.02 998.742 L1905.13 982.501 L1947.24 955.429 L1989.35 918.191 L2031.46 835.573 L2073.57 844.456 L2115.68 825.677 L2157.79 847.394 L2199.9 839.753 L2242.01 781.259 L2284.12 729.15 L2326.23 701.672 L2326.23 120.65 L2284.12 161.207 L2242.01 226.774 L2199.9 259.296 L2157.79 266.516 L2115.68 296.007 L2073.57 331.174 L2031.46 409.4 L1989.35 470.1 L1947.24 497.619 L1905.13 546.772 L1863.02 561.215 L1820.91 576.682 L1778.8 604.382 L1736.69 712.706 L1694.58 797.912 L1652.47 865.222 L1610.36 930.999 L1568.25 990.663 L1526.14 1009.01  Z" fill="#009af9" fill-rule="evenodd" fill-opacity="0.1"/>
<polyline clip-path="url(#clip993)" style="stroke:#009af9; stroke-linecap:round; stroke-linejoin:round; stroke-width:4; stroke-opacity:1; fill:none" points="1526.14,1039.8 1568.25,1028.62 1610.36,966.953 1652.47,948.849 1694.58,914.452 1736.69,887.443 1778.8,825.35 1820.91,803.247 1863.02,779.978 1905.13,764.636 1947.24,726.524 1989.35,694.145 2031.46,622.486 2073.57,587.815 2115.68,560.842 2157.79,556.955 2199.9,549.524 2242.01,504.016 2284.12,445.179 2326.23,411.161 "/>
<path clip-path="url(#clip993)" d="M1526.14 1066.56 L1568.25 1044.06 L1610.36 999.185 L1652.47 983.71 L1694.58 933.374 L1736.69 908.558 L1778.8 906.844 L1820.91 906.617 L1863.02 861.461 L1905.13 881.932 L1947.24 865.305 L1989.35 841.423 L2031.46 772.244 L2073.57 852.888 L2115.68 825.47 L2157.79 691.912 L2199.9 691.711 L2242.01 715.346 L2284.12 663.339 L2326.23 635.294 L2326.23 235.645 L2284.12 319.586 L2242.01 383.297 L2199.9 425.371 L2157.79 492.629 L2115.68 507.97 L2073.57 587.666 L2031.46 630.924 L1989.35 648.365 L1947.24 695.48 L1905.13 726.434 L1863.02 726.669 L1820.91 700.663 L1778.8 693.176 L1736.69 759.853 L1694.58 810.633 L1652.47 857.603 L1610.36 890.642 L1568.25 933.89 L1526.14 995.26  Z" fill="#e26f46" fill-rule="evenodd" fill-opacity="0.1"/>
<polyline clip-path="url(#clip993)" style="stroke:#e26f46; stroke-linecap:round; stroke-linejoin:round; stroke-width:4; stroke-opacity:1; fill:none" points="1526.14,1030.91 1568.25,988.977 1610.36,944.913 1652.47,920.657 1694.58,872.004 1736.69,834.205 1778.8,800.01 1820.91,803.64 1863.02,794.065 1905.13,804.183 1947.24,780.393 1989.35,744.894 2031.46,701.584 2073.57,720.277 2115.68,666.72 2157.79,592.271 2199.9,558.541 2242.01,549.322 2284.12,491.462 2326.23,435.469 "/>
</svg>
