<?xml version="1.0" encoding="utf-8"?>
<svg xmlns="http://www.w3.org/2000/svg" xmlns:xlink="http://www.w3.org/1999/xlink" width="600" height="400" viewBox="0 0 2400 1600">
<defs>
  <clipPath id="clip290">
    <rect x="0" y="0" width="2400" height="1600"/>
  </clipPath>
</defs>
<path clip-path="url(#clip290)" d="M0 1600 L2400 1600 L2400 0 L0 0  Z" fill="#ffffff" fill-rule="evenodd" fill-opacity="1"/>
<defs>
  <clipPath id="clip291">
    <rect x="480" y="0" width="1681" height="1600"/>
  </clipPath>
</defs>
<path clip-path="url(#clip290)" d="M279.611 1423.18 L2352.76 1423.18 L2352.76 47.2441 L279.611 47.2441  Z" fill="#ffffff" fill-rule="evenodd" fill-opacity="1"/>
<defs>
  <clipPath id="clip292">
    <rect x="279" y="47" width="2074" height="1377"/>
  </clipPath>
</defs>
<polyline clip-path="url(#clip292)" style="stroke:#000000; stroke-linecap:round; stroke-linejoin:round; stroke-width:2; stroke-opacity:0.1; fill:none" points="582.76,1423.18 582.76,47.2441 "/>
<polyline clip-path="url(#clip292)" style="stroke:#000000; stroke-linecap:round; stroke-linejoin:round; stroke-width:2; stroke-opacity:0.1; fill:none" points="949.472,1423.18 949.472,47.2441 "/>
<polyline clip-path="url(#clip292)" style="stroke:#000000; stroke-linecap:round; stroke-linejoin:round; stroke-width:2; stroke-opacity:0.1; fill:none" points="1316.18,1423.18 1316.18,47.2441 "/>
<polyline clip-path="url(#clip292)" style="stroke:#000000; stroke-linecap:round; stroke-linejoin:round; stroke-width:2; stroke-opacity:0.1; fill:none" points="1682.9,1423.18 1682.9,47.2441 "/>
<polyline clip-path="url(#clip292)" style="stroke:#000000; stroke-linecap:round; stroke-linejoin:round; stroke-width:2; stroke-opacity:0.1; fill:none" points="2049.61,1423.18 2049.61,47.2441 "/>
<polyline clip-path="url(#clip292)" style="stroke:#000000; stroke-linecap:round; stroke-linejoin:round; stroke-width:2; stroke-opacity:0.1; fill:none" points="279.611,1309.94 2352.76,1309.94 "/>
<polyline clip-path="url(#clip292)" style="stroke:#000000; stroke-linecap:round; stroke-linejoin:round; stroke-width:2; stroke-opacity:0.1; fill:none" points="279.611,1119.31 2352.76,1119.31 "/>
<polyline clip-path="url(#clip292)" style="stroke:#000000; stroke-linecap:round; stroke-linejoin:round; stroke-width:2; stroke-opacity:0.1; fill:none" points="279.611,928.677 2352.76,928.677 "/>
<polyline clip-path="url(#clip292)" style="stroke:#000000; stroke-linecap:round; stroke-linejoin:round; stroke-width:2; stroke-opacity:0.1; fill:none" points="279.611,738.043 2352.76,738.043 "/>
<polyline clip-path="url(#clip292)" style="stroke:#000000; stroke-linecap:round; stroke-linejoin:round; stroke-width:2; stroke-opacity:0.1; fill:none" points="279.611,547.409 2352.76,547.409 "/>
<polyline clip-path="url(#clip292)" style="stroke:#000000; stroke-linecap:round; stroke-linejoin:round; stroke-width:2; stroke-opacity:0.1; fill:none" points="279.611,356.775 2352.76,356.775 "/>
<polyline clip-path="url(#clip292)" style="stroke:#000000; stroke-linecap:round; stroke-linejoin:round; stroke-width:2; stroke-opacity:0.1; fill:none" points="279.611,166.141 2352.76,166.141 "/>
<polyline clip-path="url(#clip290)" style="stroke:#000000; stroke-linecap:round; stroke-linejoin:round; stroke-width:4; stroke-opacity:1; fill:none" points="279.611,1423.18 2352.76,1423.18 "/>
<polyline clip-path="url(#clip290)" style="stroke:#000000; stroke-linecap:round; stroke-linejoin:round; stroke-width:4; stroke-opacity:1; fill:none" points="582.76,1423.18 582.76,1404.28 "/>
<polyline clip-path="url(#clip290)" style="stroke:#000000; stroke-linecap:round; stroke-linejoin:round; stroke-width:4; stroke-opacity:1; fill:none" points="949.472,1423.18 949.472,1404.28 "/>
<polyline clip-path="url(#clip290)" style="stroke:#000000; stroke-linecap:round; stroke-linejoin:round; stroke-width:4; stroke-opacity:1; fill:none" points="1316.18,1423.18 1316.18,1404.28 "/>
<polyline clip-path="url(#clip290)" style="stroke:#000000; stroke-linecap:round; stroke-linejoin:round; stroke-width:4; stroke-opacity:1; fill:none" points="1682.9,1423.18 1682.9,1404.28 "/>
<polyline clip-path="url(#clip290)" style="stroke:#000000; stroke-linecap:round; stroke-linejoin:round; stroke-width:4; stroke-opacity:1; fill:none" points="2049.61,1423.18 2049.61,1404.28 "/>
<path clip-path="url(#clip290)" d="M587.007 1466.95 Q590.364 1467.66 592.239 1469.93 Q594.137 1472.2 594.137 1475.53 Q594.137 1480.65 590.619 1483.45 Q587.1 1486.25 580.619 1486.25 Q578.443 1486.25 576.128 1485.81 Q573.836 1485.39 571.383 1484.54 L571.383 1480.02 Q573.327 1481.16 575.642 1481.74 Q577.957 1482.32 580.48 1482.32 Q584.878 1482.32 587.17 1480.58 Q589.484 1478.84 589.484 1475.53 Q589.484 1472.48 587.332 1470.77 Q585.202 1469.03 581.383 1469.03 L577.355 1469.03 L577.355 1465.19 L581.568 1465.19 Q585.017 1465.19 586.845 1463.82 Q588.674 1462.43 588.674 1459.84 Q588.674 1457.18 586.776 1455.77 Q584.901 1454.33 581.383 1454.33 Q579.461 1454.33 577.262 1454.75 Q575.063 1455.16 572.424 1456.04 L572.424 1451.88 Q575.086 1451.14 577.401 1450.77 Q579.739 1450.39 581.799 1450.39 Q587.123 1450.39 590.225 1452.83 Q593.327 1455.23 593.327 1459.35 Q593.327 1462.22 591.683 1464.21 Q590.04 1466.18 587.007 1466.95 Z" fill="#000000" fill-rule="nonzero" fill-opacity="1" /><path clip-path="url(#clip290)" d="M949.877 1466.44 Q946.729 1466.44 944.877 1468.59 Q943.048 1470.74 943.048 1474.49 Q943.048 1478.22 944.877 1480.39 Q946.729 1482.55 949.877 1482.55 Q953.025 1482.55 954.854 1480.39 Q956.705 1478.22 956.705 1474.49 Q956.705 1470.74 954.854 1468.59 Q953.025 1466.44 949.877 1466.44 M959.159 1451.78 L959.159 1456.04 Q957.4 1455.21 955.594 1454.77 Q953.812 1454.33 952.053 1454.33 Q947.423 1454.33 944.969 1457.45 Q942.539 1460.58 942.192 1466.9 Q943.557 1464.89 945.618 1463.82 Q947.678 1462.73 950.155 1462.73 Q955.363 1462.73 958.372 1465.9 Q961.405 1469.05 961.405 1474.49 Q961.405 1479.82 958.256 1483.03 Q955.108 1486.25 949.877 1486.25 Q943.881 1486.25 940.71 1481.67 Q937.539 1477.06 937.539 1468.33 Q937.539 1460.14 941.428 1455.28 Q945.317 1450.39 951.868 1450.39 Q953.627 1450.39 955.409 1450.74 Q957.215 1451.09 959.159 1451.78 Z" fill="#000000" fill-rule="nonzero" fill-opacity="1" /><path clip-path="url(#clip290)" d="M1306.48 1484.86 L1306.48 1480.6 Q1308.24 1481.44 1310.05 1481.88 Q1311.85 1482.32 1313.59 1482.32 Q1318.22 1482.32 1320.65 1479.21 Q1323.1 1476.09 1323.45 1469.75 Q1322.11 1471.74 1320.05 1472.8 Q1317.99 1473.87 1315.49 1473.87 Q1310.3 1473.87 1307.27 1470.74 Q1304.26 1467.59 1304.26 1462.15 Q1304.26 1456.83 1307.41 1453.61 Q1310.56 1450.39 1315.79 1450.39 Q1321.79 1450.39 1324.93 1455 Q1328.1 1459.58 1328.1 1468.33 Q1328.1 1476.51 1324.22 1481.39 Q1320.35 1486.25 1313.8 1486.25 Q1312.04 1486.25 1310.23 1485.9 Q1308.43 1485.56 1306.48 1484.86 M1315.79 1470.21 Q1318.94 1470.21 1320.77 1468.06 Q1322.62 1465.9 1322.62 1462.15 Q1322.62 1458.43 1320.77 1456.27 Q1318.94 1454.1 1315.79 1454.1 Q1312.64 1454.1 1310.79 1456.27 Q1308.96 1458.43 1308.96 1462.15 Q1308.96 1465.9 1310.79 1468.06 Q1312.64 1470.21 1315.79 1470.21 Z" fill="#000000" fill-rule="nonzero" fill-opacity="1" /><path clip-path="url(#clip290)" d="M1658.38 1481.64 L1666.02 1481.64 L1666.02 1455.28 L1657.71 1456.95 L1657.71 1452.69 L1665.97 1451.02 L1670.65 1451.02 L1670.65 1481.64 L1678.29 1481.64 L1678.29 1485.58 L1658.38 1485.58 L1658.38 1481.64 Z" fill="#000000" fill-rule="nonzero" fill-opacity="1" /><path clip-path="url(#clip290)" d="M1691.76 1481.64 L1708.08 1481.64 L1708.08 1485.58 L1686.14 1485.58 L1686.14 1481.64 Q1688.8 1478.89 1693.38 1474.26 Q1697.99 1469.61 1699.17 1468.27 Q1701.41 1465.74 1702.29 1464.01 Q1703.2 1462.25 1703.2 1460.56 Q1703.2 1457.8 1701.25 1456.07 Q1699.33 1454.33 1696.23 1454.33 Q1694.03 1454.33 1691.58 1455.09 Q1689.15 1455.86 1686.37 1457.41 L1686.37 1452.69 Q1689.19 1451.55 1691.65 1450.97 Q1694.1 1450.39 1696.14 1450.39 Q1701.51 1450.39 1704.7 1453.08 Q1707.9 1455.77 1707.9 1460.26 Q1707.9 1462.39 1707.09 1464.31 Q1706.3 1466.2 1704.19 1468.8 Q1703.61 1469.47 1700.51 1472.69 Q1697.41 1475.88 1691.76 1481.64 Z" fill="#000000" fill-rule="nonzero" fill-opacity="1" /><path clip-path="url(#clip290)" d="M2024.79 1481.64 L2032.43 1481.64 L2032.43 1455.28 L2024.12 1456.95 L2024.12 1452.69 L2032.39 1451.02 L2037.06 1451.02 L2037.06 1481.64 L2044.7 1481.64 L2044.7 1485.58 L2024.79 1485.58 L2024.79 1481.64 Z" fill="#000000" fill-rule="nonzero" fill-opacity="1" /><path clip-path="url(#clip290)" d="M2054.19 1451.02 L2072.55 1451.02 L2072.55 1454.96 L2058.47 1454.96 L2058.47 1463.43 Q2059.49 1463.08 2060.51 1462.92 Q2061.53 1462.73 2062.55 1462.73 Q2068.33 1462.73 2071.71 1465.9 Q2075.09 1469.08 2075.09 1474.49 Q2075.09 1480.07 2071.62 1483.17 Q2068.15 1486.25 2061.83 1486.25 Q2059.65 1486.25 2057.39 1485.88 Q2055.14 1485.51 2052.73 1484.77 L2052.73 1480.07 Q2054.82 1481.2 2057.04 1481.76 Q2059.26 1482.32 2061.74 1482.32 Q2065.74 1482.32 2068.08 1480.21 Q2070.42 1478.1 2070.42 1474.49 Q2070.42 1470.88 2068.08 1468.77 Q2065.74 1466.67 2061.74 1466.67 Q2059.86 1466.67 2057.99 1467.08 Q2056.14 1467.5 2054.19 1468.38 L2054.19 1451.02 Z" fill="#000000" fill-rule="nonzero" fill-opacity="1" /><path clip-path="url(#clip290)" d="M1187.69 1550.25 Q1187.69 1556.71 1190.33 1560.4 Q1193.01 1564.07 1197.65 1564.07 Q1202.3 1564.07 1204.97 1560.4 Q1207.65 1556.71 1207.65 1550.25 Q1207.65 1543.79 1204.97 1540.13 Q1202.3 1536.44 1197.65 1536.44 Q1193.01 1536.44 1190.33 1540.13 Q1187.69 1543.79 1187.69 1550.25 M1207.65 1562.7 Q1205.8 1565.88 1202.97 1567.44 Q1200.17 1568.97 1196.22 1568.97 Q1189.76 1568.97 1185.69 1563.81 Q1181.64 1558.65 1181.64 1550.25 Q1181.64 1541.85 1185.69 1536.69 Q1189.76 1531.54 1196.22 1531.54 Q1200.17 1531.54 1202.97 1533.1 Q1205.8 1534.62 1207.65 1537.81 L1207.65 1532.4 L1213.5 1532.4 L1213.5 1581.6 L1207.65 1581.6 L1207.65 1562.7 Z" fill="#000000" fill-rule="nonzero" fill-opacity="1" /><path clip-path="url(#clip290)" d="M1224.96 1553.98 L1224.96 1532.4 L1230.82 1532.4 L1230.82 1553.75 Q1230.82 1558.81 1232.79 1561.36 Q1234.77 1563.87 1238.71 1563.87 Q1243.46 1563.87 1246.19 1560.85 Q1248.96 1557.83 1248.96 1552.61 L1248.96 1532.4 L1254.82 1532.4 L1254.82 1568.04 L1248.96 1568.04 L1248.96 1562.57 Q1246.83 1565.82 1244 1567.41 Q1241.2 1568.97 1237.47 1568.97 Q1231.33 1568.97 1228.15 1565.15 Q1224.96 1561.33 1224.96 1553.98 M1239.7 1531.54 L1239.7 1531.54 Z" fill="#000000" fill-rule="nonzero" fill-opacity="1" /><path clip-path="url(#clip290)" d="M1283.08 1550.12 Q1275.98 1550.12 1273.25 1551.75 Q1270.51 1553.37 1270.51 1557.29 Q1270.51 1560.4 1272.55 1562.25 Q1274.62 1564.07 1278.15 1564.07 Q1283.02 1564.07 1285.95 1560.63 Q1288.91 1557.16 1288.91 1551.43 L1288.91 1550.12 L1283.08 1550.12 M1294.76 1547.71 L1294.76 1568.04 L1288.91 1568.04 L1288.91 1562.63 Q1286.9 1565.88 1283.91 1567.44 Q1280.92 1568.97 1276.59 1568.97 Q1271.11 1568.97 1267.87 1565.91 Q1264.65 1562.82 1264.65 1557.67 Q1264.65 1551.65 1268.66 1548.6 Q1272.71 1545.54 1280.69 1545.54 L1288.91 1545.54 L1288.91 1544.97 Q1288.91 1540.93 1286.23 1538.73 Q1283.59 1536.5 1278.79 1536.5 Q1275.73 1536.5 1272.83 1537.23 Q1269.94 1537.97 1267.26 1539.43 L1267.26 1534.02 Q1270.48 1532.78 1273.5 1532.17 Q1276.53 1531.54 1279.39 1531.54 Q1287.12 1531.54 1290.94 1535.55 Q1294.76 1539.56 1294.76 1547.71 Z" fill="#000000" fill-rule="nonzero" fill-opacity="1" /><path clip-path="url(#clip290)" d="M1327.48 1537.87 Q1326.5 1537.3 1325.32 1537.04 Q1324.17 1536.76 1322.77 1536.76 Q1317.81 1536.76 1315.13 1540 Q1312.49 1543.22 1312.49 1549.27 L1312.49 1568.04 L1306.6 1568.04 L1306.6 1532.4 L1312.49 1532.4 L1312.49 1537.93 Q1314.34 1534.69 1317.3 1533.13 Q1320.26 1531.54 1324.49 1531.54 Q1325.1 1531.54 1325.83 1531.63 Q1326.56 1531.7 1327.45 1531.85 L1327.48 1537.87 Z" fill="#000000" fill-rule="nonzero" fill-opacity="1" /><path clip-path="url(#clip290)" d="M1339.42 1522.27 L1339.42 1532.4 L1351.48 1532.4 L1351.48 1536.95 L1339.42 1536.95 L1339.42 1556.3 Q1339.42 1560.66 1340.6 1561.9 Q1341.81 1563.14 1345.47 1563.14 L1351.48 1563.14 L1351.48 1568.04 L1345.47 1568.04 Q1338.69 1568.04 1336.11 1565.53 Q1333.53 1562.98 1333.53 1556.3 L1333.53 1536.95 L1329.23 1536.95 L1329.23 1532.4 L1333.53 1532.4 L1333.53 1522.27 L1339.42 1522.27 Z" fill="#000000" fill-rule="nonzero" fill-opacity="1" /><path clip-path="url(#clip290)" d="M1389.68 1548.76 L1389.68 1551.62 L1362.75 1551.62 Q1363.13 1557.67 1366.38 1560.85 Q1369.66 1564 1375.48 1564 Q1378.85 1564 1382.01 1563.17 Q1385.19 1562.35 1388.31 1560.69 L1388.31 1566.23 Q1385.16 1567.57 1381.85 1568.27 Q1378.54 1568.97 1375.13 1568.97 Q1366.6 1568.97 1361.6 1564 Q1356.64 1559.04 1356.64 1550.57 Q1356.64 1541.82 1361.35 1536.69 Q1366.09 1531.54 1374.11 1531.54 Q1381.3 1531.54 1385.47 1536.18 Q1389.68 1540.8 1389.68 1548.76 M1383.82 1547.04 Q1383.76 1542.23 1381.11 1539.37 Q1378.5 1536.5 1374.18 1536.5 Q1369.27 1536.5 1366.31 1539.27 Q1363.39 1542.04 1362.94 1547.07 L1383.82 1547.04 Z" fill="#000000" fill-rule="nonzero" fill-opacity="1" /><path clip-path="url(#clip290)" d="M1419.94 1537.87 Q1418.96 1537.3 1417.78 1537.04 Q1416.63 1536.76 1415.23 1536.76 Q1410.27 1536.76 1407.6 1540 Q1404.95 1543.22 1404.95 1549.27 L1404.95 1568.04 L1399.07 1568.04 L1399.07 1532.4 L1404.95 1532.4 L1404.95 1537.93 Q1406.8 1534.69 1409.76 1533.13 Q1412.72 1531.54 1416.95 1531.54 Q1417.56 1531.54 1418.29 1531.63 Q1419.02 1531.7 1419.91 1531.85 L1419.94 1537.87 Z" fill="#000000" fill-rule="nonzero" fill-opacity="1" /><path clip-path="url(#clip290)" d="M1448.81 1533.45 L1448.81 1538.98 Q1446.33 1537.71 1443.66 1537.07 Q1440.98 1536.44 1438.12 1536.44 Q1433.76 1536.44 1431.56 1537.77 Q1429.4 1539.11 1429.4 1541.79 Q1429.4 1543.82 1430.96 1545 Q1432.52 1546.15 1437.23 1547.2 L1439.23 1547.64 Q1445.47 1548.98 1448.08 1551.43 Q1450.72 1553.85 1450.72 1558.21 Q1450.72 1563.17 1446.78 1566.07 Q1442.86 1568.97 1435.99 1568.97 Q1433.12 1568.97 1430 1568.39 Q1426.92 1567.85 1423.48 1566.74 L1423.48 1560.69 Q1426.72 1562.38 1429.88 1563.24 Q1433.03 1564.07 1436.11 1564.07 Q1440.25 1564.07 1442.48 1562.66 Q1444.71 1561.23 1444.71 1558.65 Q1444.71 1556.27 1443.08 1554.99 Q1441.49 1553.72 1436.05 1552.54 L1434.01 1552.07 Q1428.57 1550.92 1426.15 1548.56 Q1423.73 1546.18 1423.73 1542.04 Q1423.73 1537.01 1427.3 1534.27 Q1430.86 1531.54 1437.42 1531.54 Q1440.67 1531.54 1443.53 1532.01 Q1446.39 1532.49 1448.81 1533.45 Z" fill="#000000" fill-rule="nonzero" fill-opacity="1" /><polyline clip-path="url(#clip290)" style="stroke:#000000; stroke-linecap:round; stroke-linejoin:round; stroke-width:4; stroke-opacity:1; fill:none" points="279.611,1423.18 279.611,47.2441 "/>
<polyline clip-path="url(#clip290)" style="stroke:#000000; stroke-linecap:round; stroke-linejoin:round; stroke-width:4; stroke-opacity:1; fill:none" points="279.611,1309.94 298.509,1309.94 "/>
<polyline clip-path="url(#clip290)" style="stroke:#000000; stroke-linecap:round; stroke-linejoin:round; stroke-width:4; stroke-opacity:1; fill:none" points="279.611,1119.31 298.509,1119.31 "/>
<polyline clip-path="url(#clip290)" style="stroke:#000000; stroke-linecap:round; stroke-linejoin:round; stroke-width:4; stroke-opacity:1; fill:none" points="279.611,928.677 298.509,928.677 "/>
<polyline clip-path="url(#clip290)" style="stroke:#000000; stroke-linecap:round; stroke-linejoin:round; stroke-width:4; stroke-opacity:1; fill:none" points="279.611,738.043 298.509,738.043 "/>
<polyline clip-path="url(#clip290)" style="stroke:#000000; stroke-linecap:round; stroke-linejoin:round; stroke-width:4; stroke-opacity:1; fill:none" points="279.611,547.409 298.509,547.409 "/>
<polyline clip-path="url(#clip290)" style="stroke:#000000; stroke-linecap:round; stroke-linejoin:round; stroke-width:4; stroke-opacity:1; fill:none" points="279.611,356.775 298.509,356.775 "/>
<polyline clip-path="url(#clip290)" style="stroke:#000000; stroke-linecap:round; stroke-linejoin:round; stroke-width:4; stroke-opacity:1; fill:none" points="279.611,166.141 298.509,166.141 "/>
<path clip-path="url(#clip290)" d="M126.205 1295.74 Q122.593 1295.74 120.765 1299.31 Q118.959 1302.85 118.959 1309.98 Q118.959 1317.09 120.765 1320.65 Q122.593 1324.19 126.205 1324.19 Q129.839 1324.19 131.644 1320.65 Q133.473 1317.09 133.473 1309.98 Q133.473 1302.85 131.644 1299.31 Q129.839 1295.74 126.205 1295.74 M126.205 1292.04 Q132.015 1292.04 135.07 1296.65 Q138.149 1301.23 138.149 1309.98 Q138.149 1318.71 135.07 1323.31 Q132.015 1327.9 126.205 1327.9 Q120.394 1327.9 117.316 1323.31 Q114.26 1318.71 114.26 1309.98 Q114.26 1301.23 117.316 1296.65 Q120.394 1292.04 126.205 1292.04 Z" fill="#000000" fill-rule="nonzero" fill-opacity="1" /><path clip-path="url(#clip290)" d="M146.366 1321.35 L151.251 1321.35 L151.251 1327.22 L146.366 1327.22 L146.366 1321.35 Z" fill="#000000" fill-rule="nonzero" fill-opacity="1" /><path clip-path="url(#clip290)" d="M161.575 1326.51 L161.575 1322.25 Q163.334 1323.08 165.14 1323.52 Q166.945 1323.96 168.681 1323.96 Q173.311 1323.96 175.741 1320.86 Q178.195 1317.73 178.542 1311.39 Q177.2 1313.38 175.139 1314.45 Q173.079 1315.51 170.579 1315.51 Q165.394 1315.51 162.362 1312.39 Q159.353 1309.24 159.353 1303.8 Q159.353 1298.47 162.501 1295.26 Q165.649 1292.04 170.88 1292.04 Q176.876 1292.04 180.024 1296.65 Q183.195 1301.23 183.195 1309.98 Q183.195 1318.15 179.306 1323.04 Q175.44 1327.9 168.889 1327.9 Q167.13 1327.9 165.325 1327.55 Q163.519 1327.2 161.575 1326.51 M170.88 1311.85 Q174.028 1311.85 175.857 1309.7 Q177.709 1307.55 177.709 1303.8 Q177.709 1300.07 175.857 1297.92 Q174.028 1295.74 170.88 1295.74 Q167.732 1295.74 165.88 1297.92 Q164.052 1300.07 164.052 1303.8 Q164.052 1307.55 165.88 1309.7 Q167.732 1311.85 170.88 1311.85 Z" fill="#000000" fill-rule="nonzero" fill-opacity="1" /><path clip-path="url(#clip290)" d="M191.737 1326.51 L191.737 1322.25 Q193.496 1323.08 195.301 1323.52 Q197.107 1323.96 198.843 1323.96 Q203.473 1323.96 205.903 1320.86 Q208.357 1317.73 208.704 1311.39 Q207.362 1313.38 205.301 1314.45 Q203.241 1315.51 200.741 1315.51 Q195.556 1315.51 192.524 1312.39 Q189.514 1309.24 189.514 1303.8 Q189.514 1298.47 192.663 1295.26 Q195.811 1292.04 201.042 1292.04 Q207.037 1292.04 210.186 1296.65 Q213.357 1301.23 213.357 1309.98 Q213.357 1318.15 209.468 1323.04 Q205.602 1327.9 199.051 1327.9 Q197.292 1327.9 195.487 1327.55 Q193.681 1327.2 191.737 1326.51 M201.042 1311.85 Q204.19 1311.85 206.019 1309.7 Q207.871 1307.55 207.871 1303.8 Q207.871 1300.07 206.019 1297.92 Q204.19 1295.74 201.042 1295.74 Q197.894 1295.74 196.042 1297.92 Q194.213 1300.07 194.213 1303.8 Q194.213 1307.55 196.042 1309.7 Q197.894 1311.85 201.042 1311.85 Z" fill="#000000" fill-rule="nonzero" fill-opacity="1" /><path clip-path="url(#clip290)" d="M231.76 1310.81 Q228.426 1310.81 226.505 1312.6 Q224.607 1314.38 224.607 1317.5 Q224.607 1320.63 226.505 1322.41 Q228.426 1324.19 231.76 1324.19 Q235.093 1324.19 237.014 1322.41 Q238.935 1320.6 238.935 1317.5 Q238.935 1314.38 237.014 1312.6 Q235.116 1310.81 231.76 1310.81 M227.084 1308.82 Q224.074 1308.08 222.385 1306.02 Q220.718 1303.96 220.718 1301 Q220.718 1296.85 223.658 1294.45 Q226.621 1292.04 231.76 1292.04 Q236.922 1292.04 239.861 1294.45 Q242.801 1296.85 242.801 1301 Q242.801 1303.96 241.111 1306.02 Q239.445 1308.08 236.459 1308.82 Q239.838 1309.61 241.713 1311.9 Q243.611 1314.19 243.611 1317.5 Q243.611 1322.53 240.533 1325.21 Q237.477 1327.9 231.76 1327.9 Q226.042 1327.9 222.963 1325.21 Q219.908 1322.53 219.908 1317.5 Q219.908 1314.19 221.806 1311.9 Q223.704 1309.61 227.084 1308.82 M225.371 1301.44 Q225.371 1304.12 227.037 1305.63 Q228.727 1307.13 231.76 1307.13 Q234.769 1307.13 236.459 1305.63 Q238.172 1304.12 238.172 1301.44 Q238.172 1298.75 236.459 1297.25 Q234.769 1295.74 231.76 1295.74 Q228.727 1295.74 227.037 1297.25 Q225.371 1298.75 225.371 1301.44 Z" fill="#000000" fill-rule="nonzero" fill-opacity="1" /><path clip-path="url(#clip290)" d="M116.922 1132.66 L124.561 1132.66 L124.561 1106.29 L116.251 1107.96 L116.251 1103.7 L124.515 1102.03 L129.191 1102.03 L129.191 1132.66 L136.829 1132.66 L136.829 1136.59 L116.922 1136.59 L116.922 1132.66 Z" fill="#000000" fill-rule="nonzero" fill-opacity="1" /><path clip-path="url(#clip290)" d="M146.274 1130.71 L151.158 1130.71 L151.158 1136.59 L146.274 1136.59 L146.274 1130.71 Z" fill="#000000" fill-rule="nonzero" fill-opacity="1" /><path clip-path="url(#clip290)" d="M171.343 1105.11 Q167.732 1105.11 165.903 1108.67 Q164.098 1112.22 164.098 1119.35 Q164.098 1126.45 165.903 1130.02 Q167.732 1133.56 171.343 1133.56 Q174.977 1133.56 176.783 1130.02 Q178.612 1126.45 178.612 1119.35 Q178.612 1112.22 176.783 1108.67 Q174.977 1105.11 171.343 1105.11 M171.343 1101.41 Q177.153 1101.41 180.209 1106.01 Q183.288 1110.6 183.288 1119.35 Q183.288 1128.07 180.209 1132.68 Q177.153 1137.26 171.343 1137.26 Q165.533 1137.26 162.454 1132.68 Q159.399 1128.07 159.399 1119.35 Q159.399 1110.6 162.454 1106.01 Q165.533 1101.41 171.343 1101.41 Z" fill="#000000" fill-rule="nonzero" fill-opacity="1" /><path clip-path="url(#clip290)" d="M201.505 1105.11 Q197.894 1105.11 196.065 1108.67 Q194.26 1112.22 194.26 1119.35 Q194.26 1126.45 196.065 1130.02 Q197.894 1133.56 201.505 1133.56 Q205.139 1133.56 206.945 1130.02 Q208.774 1126.45 208.774 1119.35 Q208.774 1112.22 206.945 1108.67 Q205.139 1105.11 201.505 1105.11 M201.505 1101.41 Q207.315 1101.41 210.371 1106.01 Q213.449 1110.6 213.449 1119.35 Q213.449 1128.07 210.371 1132.68 Q207.315 1137.26 201.505 1137.26 Q195.695 1137.26 192.616 1132.68 Q189.561 1128.07 189.561 1119.35 Q189.561 1110.6 192.616 1106.01 Q195.695 1101.41 201.505 1101.41 Z" fill="#000000" fill-rule="nonzero" fill-opacity="1" /><path clip-path="url(#clip290)" d="M231.667 1105.11 Q228.056 1105.11 226.227 1108.67 Q224.422 1112.22 224.422 1119.35 Q224.422 1126.45 226.227 1130.02 Q228.056 1133.56 231.667 1133.56 Q235.301 1133.56 237.107 1130.02 Q238.935 1126.45 238.935 1119.35 Q238.935 1112.22 237.107 1108.67 Q235.301 1105.11 231.667 1105.11 M231.667 1101.41 Q237.477 1101.41 240.533 1106.01 Q243.611 1110.6 243.611 1119.35 Q243.611 1128.07 240.533 1132.68 Q237.477 1137.26 231.667 1137.26 Q225.857 1137.26 222.778 1132.68 Q219.723 1128.07 219.723 1119.35 Q219.723 1110.6 222.778 1106.01 Q225.857 1101.41 231.667 1101.41 Z" fill="#000000" fill-rule="nonzero" fill-opacity="1" /><path clip-path="url(#clip290)" d="M118.519 942.022 L126.158 942.022 L126.158 915.656 L117.848 917.323 L117.848 913.063 L126.112 911.397 L130.788 911.397 L130.788 942.022 L138.427 942.022 L138.427 945.957 L118.519 945.957 L118.519 942.022 Z" fill="#000000" fill-rule="nonzero" fill-opacity="1" /><path clip-path="url(#clip290)" d="M147.871 940.077 L152.755 940.077 L152.755 945.957 L147.871 945.957 L147.871 940.077 Z" fill="#000000" fill-rule="nonzero" fill-opacity="1" /><path clip-path="url(#clip290)" d="M172.94 914.476 Q169.329 914.476 167.501 918.04 Q165.695 921.582 165.695 928.712 Q165.695 935.818 167.501 939.383 Q169.329 942.924 172.94 942.924 Q176.575 942.924 178.38 939.383 Q180.209 935.818 180.209 928.712 Q180.209 921.582 178.38 918.04 Q176.575 914.476 172.94 914.476 M172.94 910.772 Q178.751 910.772 181.806 915.378 Q184.885 919.962 184.885 928.712 Q184.885 937.438 181.806 942.045 Q178.751 946.628 172.94 946.628 Q167.13 946.628 164.052 942.045 Q160.996 937.438 160.996 928.712 Q160.996 919.962 164.052 915.378 Q167.13 910.772 172.94 910.772 Z" fill="#000000" fill-rule="nonzero" fill-opacity="1" /><path clip-path="url(#clip290)" d="M203.102 914.476 Q199.491 914.476 197.662 918.04 Q195.857 921.582 195.857 928.712 Q195.857 935.818 197.662 939.383 Q199.491 942.924 203.102 942.924 Q206.737 942.924 208.542 939.383 Q210.371 935.818 210.371 928.712 Q210.371 921.582 208.542 918.04 Q206.737 914.476 203.102 914.476 M203.102 910.772 Q208.912 910.772 211.968 915.378 Q215.047 919.962 215.047 928.712 Q215.047 937.438 211.968 942.045 Q208.912 946.628 203.102 946.628 Q197.292 946.628 194.213 942.045 Q191.158 937.438 191.158 928.712 Q191.158 919.962 194.213 915.378 Q197.292 910.772 203.102 910.772 Z" fill="#000000" fill-rule="nonzero" fill-opacity="1" /><path clip-path="url(#clip290)" d="M227.292 942.022 L243.611 942.022 L243.611 945.957 L221.667 945.957 L221.667 942.022 Q224.329 939.267 228.912 934.637 Q233.519 929.985 234.699 928.642 Q236.945 926.119 237.824 924.383 Q238.727 922.624 238.727 920.934 Q238.727 918.179 236.783 916.443 Q234.861 914.707 231.76 914.707 Q229.56 914.707 227.107 915.471 Q224.676 916.235 221.898 917.786 L221.898 913.063 Q224.723 911.929 227.176 911.351 Q229.63 910.772 231.667 910.772 Q237.037 910.772 240.232 913.457 Q243.426 916.142 243.426 920.633 Q243.426 922.762 242.616 924.684 Q241.829 926.582 239.722 929.174 Q239.144 929.846 236.042 933.063 Q232.94 936.258 227.292 942.022 Z" fill="#000000" fill-rule="nonzero" fill-opacity="1" /><path clip-path="url(#clip290)" d="M116.436 751.388 L124.075 751.388 L124.075 725.022 L115.765 726.689 L115.765 722.429 L124.029 720.763 L128.705 720.763 L128.705 751.388 L136.343 751.388 L136.343 755.323 L116.436 755.323 L116.436 751.388 Z" fill="#000000" fill-rule="nonzero" fill-opacity="1" /><path clip-path="url(#clip290)" d="M145.788 749.443 L150.672 749.443 L150.672 755.323 L145.788 755.323 L145.788 749.443 Z" fill="#000000" fill-rule="nonzero" fill-opacity="1" /><path clip-path="url(#clip290)" d="M170.857 723.842 Q167.246 723.842 165.417 727.406 Q163.612 730.948 163.612 738.078 Q163.612 745.184 165.417 748.749 Q167.246 752.29 170.857 752.29 Q174.491 752.29 176.297 748.749 Q178.126 745.184 178.126 738.078 Q178.126 730.948 176.297 727.406 Q174.491 723.842 170.857 723.842 M170.857 720.138 Q176.667 720.138 179.723 724.744 Q182.801 729.328 182.801 738.078 Q182.801 746.804 179.723 751.411 Q176.667 755.994 170.857 755.994 Q165.047 755.994 161.968 751.411 Q158.913 746.804 158.913 738.078 Q158.913 729.328 161.968 724.744 Q165.047 720.138 170.857 720.138 Z" fill="#000000" fill-rule="nonzero" fill-opacity="1" /><path clip-path="url(#clip290)" d="M201.019 723.842 Q197.408 723.842 195.579 727.406 Q193.774 730.948 193.774 738.078 Q193.774 745.184 195.579 748.749 Q197.408 752.29 201.019 752.29 Q204.653 752.29 206.459 748.749 Q208.287 745.184 208.287 738.078 Q208.287 730.948 206.459 727.406 Q204.653 723.842 201.019 723.842 M201.019 720.138 Q206.829 720.138 209.885 724.744 Q212.963 729.328 212.963 738.078 Q212.963 746.804 209.885 751.411 Q206.829 755.994 201.019 755.994 Q195.209 755.994 192.13 751.411 Q189.075 746.804 189.075 738.078 Q189.075 729.328 192.13 724.744 Q195.209 720.138 201.019 720.138 Z" fill="#000000" fill-rule="nonzero" fill-opacity="1" /><path clip-path="url(#clip290)" d="M234.028 724.837 L222.223 743.286 L234.028 743.286 L234.028 724.837 M232.801 720.763 L238.681 720.763 L238.681 743.286 L243.611 743.286 L243.611 747.175 L238.681 747.175 L238.681 755.323 L234.028 755.323 L234.028 747.175 L218.426 747.175 L218.426 742.661 L232.801 720.763 Z" fill="#000000" fill-rule="nonzero" fill-opacity="1" /><path clip-path="url(#clip290)" d="M116.76 560.754 L124.399 560.754 L124.399 534.388 L116.089 536.055 L116.089 531.795 L124.353 530.129 L129.029 530.129 L129.029 560.754 L136.667 560.754 L136.667 564.689 L116.76 564.689 L116.76 560.754 Z" fill="#000000" fill-rule="nonzero" fill-opacity="1" /><path clip-path="url(#clip290)" d="M146.112 558.809 L150.996 558.809 L150.996 564.689 L146.112 564.689 L146.112 558.809 Z" fill="#000000" fill-rule="nonzero" fill-opacity="1" /><path clip-path="url(#clip290)" d="M171.181 533.208 Q167.57 533.208 165.741 536.772 Q163.936 540.314 163.936 547.444 Q163.936 554.55 165.741 558.115 Q167.57 561.656 171.181 561.656 Q174.815 561.656 176.621 558.115 Q178.45 554.55 178.45 547.444 Q178.45 540.314 176.621 536.772 Q174.815 533.208 171.181 533.208 M171.181 529.504 Q176.991 529.504 180.047 534.11 Q183.126 538.694 183.126 547.444 Q183.126 556.17 180.047 560.777 Q176.991 565.36 171.181 565.36 Q165.371 565.36 162.292 560.777 Q159.237 556.17 159.237 547.444 Q159.237 538.694 162.292 534.11 Q165.371 529.504 171.181 529.504 Z" fill="#000000" fill-rule="nonzero" fill-opacity="1" /><path clip-path="url(#clip290)" d="M201.343 533.208 Q197.732 533.208 195.903 536.772 Q194.098 540.314 194.098 547.444 Q194.098 554.55 195.903 558.115 Q197.732 561.656 201.343 561.656 Q204.977 561.656 206.783 558.115 Q208.612 554.55 208.612 547.444 Q208.612 540.314 206.783 536.772 Q204.977 533.208 201.343 533.208 M201.343 529.504 Q207.153 529.504 210.209 534.11 Q213.287 538.694 213.287 547.444 Q213.287 556.17 210.209 560.777 Q207.153 565.36 201.343 565.36 Q195.533 565.36 192.454 560.777 Q189.399 556.17 189.399 547.444 Q189.399 538.694 192.454 534.11 Q195.533 529.504 201.343 529.504 Z" fill="#000000" fill-rule="nonzero" fill-opacity="1" /><path clip-path="url(#clip290)" d="M232.084 545.545 Q228.935 545.545 227.084 547.698 Q225.255 549.851 225.255 553.601 Q225.255 557.328 227.084 559.504 Q228.935 561.656 232.084 561.656 Q235.232 561.656 237.06 559.504 Q238.912 557.328 238.912 553.601 Q238.912 549.851 237.06 547.698 Q235.232 545.545 232.084 545.545 M241.366 530.893 L241.366 535.152 Q239.607 534.319 237.801 533.879 Q236.019 533.439 234.26 533.439 Q229.63 533.439 227.176 536.564 Q224.746 539.689 224.398 546.008 Q225.764 543.995 227.824 542.93 Q229.885 541.842 232.361 541.842 Q237.57 541.842 240.579 545.013 Q243.611 548.161 243.611 553.601 Q243.611 558.925 240.463 562.143 Q237.315 565.36 232.084 565.36 Q226.088 565.36 222.917 560.777 Q219.746 556.17 219.746 547.444 Q219.746 539.249 223.635 534.388 Q227.523 529.504 234.074 529.504 Q235.834 529.504 237.616 529.851 Q239.422 530.198 241.366 530.893 Z" fill="#000000" fill-rule="nonzero" fill-opacity="1" /><path clip-path="url(#clip290)" d="M117.015 370.12 L124.654 370.12 L124.654 343.754 L116.343 345.421 L116.343 341.162 L124.607 339.495 L129.283 339.495 L129.283 370.12 L136.922 370.12 L136.922 374.055 L117.015 374.055 L117.015 370.12 Z" fill="#000000" fill-rule="nonzero" fill-opacity="1" /><path clip-path="url(#clip290)" d="M146.366 368.175 L151.251 368.175 L151.251 374.055 L146.366 374.055 L146.366 368.175 Z" fill="#000000" fill-rule="nonzero" fill-opacity="1" /><path clip-path="url(#clip290)" d="M171.436 342.574 Q167.825 342.574 165.996 346.138 Q164.19 349.68 164.19 356.81 Q164.19 363.916 165.996 367.481 Q167.825 371.022 171.436 371.022 Q175.07 371.022 176.876 367.481 Q178.704 363.916 178.704 356.81 Q178.704 349.68 176.876 346.138 Q175.07 342.574 171.436 342.574 M171.436 338.87 Q177.246 338.87 180.301 343.476 Q183.38 348.06 183.38 356.81 Q183.38 365.536 180.301 370.143 Q177.246 374.726 171.436 374.726 Q165.626 374.726 162.547 370.143 Q159.491 365.536 159.491 356.81 Q159.491 348.06 162.547 343.476 Q165.626 338.87 171.436 338.87 Z" fill="#000000" fill-rule="nonzero" fill-opacity="1" /><path clip-path="url(#clip290)" d="M201.598 342.574 Q197.987 342.574 196.158 346.138 Q194.352 349.68 194.352 356.81 Q194.352 363.916 196.158 367.481 Q197.987 371.022 201.598 371.022 Q205.232 371.022 207.037 367.481 Q208.866 363.916 208.866 356.81 Q208.866 349.68 207.037 346.138 Q205.232 342.574 201.598 342.574 M201.598 338.87 Q207.408 338.87 210.463 343.476 Q213.542 348.06 213.542 356.81 Q213.542 365.536 210.463 370.143 Q207.408 374.726 201.598 374.726 Q195.787 374.726 192.709 370.143 Q189.653 365.536 189.653 356.81 Q189.653 348.06 192.709 343.476 Q195.787 338.87 201.598 338.87 Z" fill="#000000" fill-rule="nonzero" fill-opacity="1" /><path clip-path="url(#clip290)" d="M231.76 357.643 Q228.426 357.643 226.505 359.425 Q224.607 361.208 224.607 364.333 Q224.607 367.458 226.505 369.24 Q228.426 371.022 231.76 371.022 Q235.093 371.022 237.014 369.24 Q238.935 367.435 238.935 364.333 Q238.935 361.208 237.014 359.425 Q235.116 357.643 231.76 357.643 M227.084 355.652 Q224.074 354.911 222.385 352.851 Q220.718 350.791 220.718 347.828 Q220.718 343.685 223.658 341.277 Q226.621 338.87 231.76 338.87 Q236.922 338.87 239.861 341.277 Q242.801 343.685 242.801 347.828 Q242.801 350.791 241.111 352.851 Q239.445 354.911 236.459 355.652 Q239.838 356.439 241.713 358.731 Q243.611 361.023 243.611 364.333 Q243.611 369.356 240.533 372.041 Q237.477 374.726 231.76 374.726 Q226.042 374.726 222.963 372.041 Q219.908 369.356 219.908 364.333 Q219.908 361.023 221.806 358.731 Q223.704 356.439 227.084 355.652 M225.371 348.268 Q225.371 350.953 227.037 352.458 Q228.727 353.962 231.76 353.962 Q234.769 353.962 236.459 352.458 Q238.172 350.953 238.172 348.268 Q238.172 345.583 236.459 344.078 Q234.769 342.574 231.76 342.574 Q228.727 342.574 227.037 344.078 Q225.371 345.583 225.371 348.268 Z" fill="#000000" fill-rule="nonzero" fill-opacity="1" /><path clip-path="url(#clip290)" d="M116.922 179.486 L124.561 179.486 L124.561 153.12 L116.251 154.787 L116.251 150.528 L124.515 148.861 L129.191 148.861 L129.191 179.486 L136.829 179.486 L136.829 183.421 L116.922 183.421 L116.922 179.486 Z" fill="#000000" fill-rule="nonzero" fill-opacity="1" /><path clip-path="url(#clip290)" d="M146.274 177.541 L151.158 177.541 L151.158 183.421 L146.274 183.421 L146.274 177.541 Z" fill="#000000" fill-rule="nonzero" fill-opacity="1" /><path clip-path="url(#clip290)" d="M171.343 151.94 Q167.732 151.94 165.903 155.504 Q164.098 159.046 164.098 166.176 Q164.098 173.282 165.903 176.847 Q167.732 180.388 171.343 180.388 Q174.977 180.388 176.783 176.847 Q178.612 173.282 178.612 166.176 Q178.612 159.046 176.783 155.504 Q174.977 151.94 171.343 151.94 M171.343 148.236 Q177.153 148.236 180.209 152.842 Q183.288 157.426 183.288 166.176 Q183.288 174.902 180.209 179.509 Q177.153 184.092 171.343 184.092 Q165.533 184.092 162.454 179.509 Q159.399 174.902 159.399 166.176 Q159.399 157.426 162.454 152.842 Q165.533 148.236 171.343 148.236 Z" fill="#000000" fill-rule="nonzero" fill-opacity="1" /><path clip-path="url(#clip290)" d="M192.315 179.486 L199.954 179.486 L199.954 153.12 L191.644 154.787 L191.644 150.528 L199.908 148.861 L204.584 148.861 L204.584 179.486 L212.223 179.486 L212.223 183.421 L192.315 183.421 L192.315 179.486 Z" fill="#000000" fill-rule="nonzero" fill-opacity="1" /><path clip-path="url(#clip290)" d="M231.667 151.94 Q228.056 151.94 226.227 155.504 Q224.422 159.046 224.422 166.176 Q224.422 173.282 226.227 176.847 Q228.056 180.388 231.667 180.388 Q235.301 180.388 237.107 176.847 Q238.935 173.282 238.935 166.176 Q238.935 159.046 237.107 155.504 Q235.301 151.94 231.667 151.94 M231.667 148.236 Q237.477 148.236 240.533 152.842 Q243.611 157.426 243.611 166.176 Q243.611 174.902 240.533 179.509 Q237.477 184.092 231.667 184.092 Q225.857 184.092 222.778 179.509 Q219.723 174.902 219.723 166.176 Q219.723 157.426 222.778 152.842 Q225.857 148.236 231.667 148.236 Z" fill="#000000" fill-rule="nonzero" fill-opacity="1" /><path clip-path="url(#clip290)" d="M57.2247 896.821 L44.4614 896.821 L44.4614 907.325 L39.1779 907.325 L39.1779 890.456 L59.58 890.456 Q62.2218 894.18 63.5904 898.667 Q64.9272 903.155 64.9272 908.248 Q64.9272 919.388 58.4342 925.69 Q51.9093 931.96 40.2919 931.96 Q28.6427 931.96 22.1496 925.69 Q15.6248 919.388 15.6248 908.248 Q15.6248 903.601 16.7706 899.431 Q17.9164 895.23 20.1444 891.697 L26.9876 891.697 Q23.9639 895.262 22.4361 899.272 Q20.9083 903.283 20.9083 907.707 Q20.9083 916.428 25.7781 920.82 Q30.6479 925.181 40.2919 925.181 Q49.9041 925.181 54.7739 920.82 Q59.6436 916.428 59.6436 907.707 Q59.6436 904.301 59.0707 901.627 Q58.466 898.954 57.2247 896.821 Z" fill="#000000" fill-rule="nonzero" fill-opacity="1" /><path clip-path="url(#clip290)" d="M21.7677 872.282 L58.7206 872.282 L58.7206 864.515 Q58.7206 854.68 54.2646 850.129 Q49.8086 845.546 40.1964 845.546 Q30.6479 845.546 26.2237 850.129 Q21.7677 854.68 21.7677 864.515 L21.7677 872.282 M16.4842 878.711 L16.4842 865.502 Q16.4842 851.688 22.2451 845.227 Q27.9743 838.766 40.1964 838.766 Q52.4822 838.766 58.2432 845.259 Q64.0042 851.752 64.0042 865.502 L64.0042 878.711 L16.4842 878.711 Z" fill="#000000" fill-rule="nonzero" fill-opacity="1" /><path clip-path="url(#clip290)" d="M21.7677 822.088 L39.6235 822.088 L39.6235 814.004 Q39.6235 809.516 37.3 807.065 Q34.9765 804.614 30.6797 804.614 Q26.4147 804.614 24.0912 807.065 Q21.7677 809.516 21.7677 814.004 L21.7677 822.088 M16.4842 828.517 L16.4842 814.004 Q16.4842 806.015 20.1126 801.94 Q23.7092 797.835 30.6797 797.835 Q37.7138 797.835 41.3104 801.94 Q44.907 806.015 44.907 814.004 L44.907 822.088 L64.0042 822.088 L64.0042 828.517 L16.4842 828.517 Z" fill="#000000" fill-rule="nonzero" fill-opacity="1" /><path clip-path="url(#clip290)" d="M29.7248 743.09 L35.1993 743.09 Q33.8307 745.572 33.1623 748.087 Q32.4621 750.569 32.4621 753.116 Q32.4621 758.813 36.0905 761.964 Q39.6872 765.115 46.212 765.115 Q52.7369 765.115 56.3653 761.964 Q59.9619 758.813 59.9619 753.116 Q59.9619 750.569 59.2935 748.087 Q58.5933 745.572 57.2247 743.09 L62.6355 743.09 Q63.7814 745.54 64.3543 748.182 Q64.9272 750.792 64.9272 753.752 Q64.9272 761.805 59.8664 766.547 Q54.8057 771.29 46.212 771.29 Q37.491 771.29 32.4939 766.515 Q27.4968 761.709 27.4968 753.37 Q27.4968 750.665 28.0697 748.087 Q28.6108 745.508 29.7248 743.09 Z" fill="#000000" fill-rule="nonzero" fill-opacity="1" /><path clip-path="url(#clip290)" d="M42.4881 703.272 L64.0042 703.272 L64.0042 709.128 L42.679 709.128 Q37.6183 709.128 35.1038 711.102 Q32.5894 713.075 32.5894 717.022 Q32.5894 721.764 35.6131 724.502 Q38.6368 727.239 43.8567 727.239 L64.0042 727.239 L64.0042 733.127 L14.479 733.127 L14.479 727.239 L33.8944 727.239 Q30.6797 725.138 29.0883 722.305 Q27.4968 719.441 27.4968 715.717 Q27.4968 709.574 31.3163 706.423 Q35.1038 703.272 42.4881 703.272 Z" fill="#000000" fill-rule="nonzero" fill-opacity="1" /><path clip-path="url(#clip290)" d="M46.0847 675.39 Q46.0847 682.488 47.7079 685.225 Q49.3312 687.963 53.2461 687.963 Q56.3653 687.963 58.2114 685.925 Q60.0256 683.857 60.0256 680.324 Q60.0256 675.454 56.5881 672.526 Q53.1188 669.566 47.3897 669.566 L46.0847 669.566 L46.0847 675.39 M43.6657 663.709 L64.0042 663.709 L64.0042 669.566 L58.5933 669.566 Q61.8398 671.571 63.3994 674.563 Q64.9272 677.555 64.9272 681.883 Q64.9272 687.358 61.8716 690.604 Q58.7843 693.819 53.6281 693.819 Q47.6125 693.819 44.5569 689.809 Q41.5014 685.766 41.5014 677.777 L41.5014 669.566 L40.9285 669.566 Q36.8862 669.566 34.6901 672.239 Q32.4621 674.881 32.4621 679.687 Q32.4621 682.743 33.1941 685.639 Q33.9262 688.535 35.3903 691.209 L29.9795 691.209 Q28.7381 687.994 28.1334 684.971 Q27.4968 681.947 27.4968 679.082 Q27.4968 671.348 31.5072 667.529 Q35.5176 663.709 43.6657 663.709 Z" fill="#000000" fill-rule="nonzero" fill-opacity="1" /><path clip-path="url(#clip290)" d="M42.4881 622.014 L64.0042 622.014 L64.0042 627.87 L42.679 627.87 Q37.6183 627.87 35.1038 629.844 Q32.5894 631.817 32.5894 635.764 Q32.5894 640.506 35.6131 643.243 Q38.6368 645.981 43.8567 645.981 L64.0042 645.981 L64.0042 651.869 L28.3562 651.869 L28.3562 645.981 L33.8944 645.981 Q30.6797 643.88 29.0883 641.047 Q27.4968 638.183 27.4968 634.459 Q27.4968 628.316 31.3163 625.165 Q35.1038 622.014 42.4881 622.014 Z" fill="#000000" fill-rule="nonzero" fill-opacity="1" /><path clip-path="url(#clip290)" d="M45.7664 586.875 Q39.4007 586.875 35.8996 589.517 Q32.3984 592.127 32.3984 596.869 Q32.3984 601.58 35.8996 604.222 Q39.4007 606.832 45.7664 606.832 Q52.1003 606.832 55.6014 604.222 Q59.1026 601.58 59.1026 596.869 Q59.1026 592.127 55.6014 589.517 Q52.1003 586.875 45.7664 586.875 M59.58 581.019 Q68.683 581.019 73.1071 585.061 Q77.5631 589.103 77.5631 597.442 Q77.5631 600.53 77.0857 603.267 Q76.6401 606.004 75.6852 608.582 L69.9879 608.582 Q71.3884 606.004 72.0568 603.49 Q72.7252 600.975 72.7252 598.365 Q72.7252 592.604 69.7015 589.74 Q66.7096 586.875 60.6303 586.875 L57.7339 586.875 Q60.885 588.689 62.4446 591.522 Q64.0042 594.355 64.0042 598.302 Q64.0042 604.858 59.0071 608.869 Q54.01 612.879 45.7664 612.879 Q37.491 612.879 32.4939 608.869 Q27.4968 604.858 27.4968 598.302 Q27.4968 594.355 29.0564 591.522 Q30.616 588.689 33.7671 586.875 L28.3562 586.875 L28.3562 581.019 L59.58 581.019 Z" fill="#000000" fill-rule="nonzero" fill-opacity="1" /><path clip-path="url(#clip290)" d="M44.7161 538.464 L47.5806 538.464 L47.5806 565.391 Q53.6281 565.009 56.8109 561.762 Q59.9619 558.484 59.9619 552.659 Q59.9619 549.286 59.1344 546.135 Q58.3069 542.952 56.6518 539.833 L62.1899 539.833 Q63.5267 542.984 64.227 546.294 Q64.9272 549.604 64.9272 553.01 Q64.9272 561.54 59.9619 566.537 Q54.9967 571.502 46.5303 571.502 Q37.7774 571.502 32.6531 566.791 Q27.4968 562.049 27.4968 554.028 Q27.4968 546.835 32.1438 542.665 Q36.7589 538.464 44.7161 538.464 M42.9973 544.32 Q38.1912 544.384 35.3266 547.026 Q32.4621 549.636 32.4621 553.964 Q32.4621 558.866 35.2312 561.826 Q38.0002 564.754 43.0292 565.2 L42.9973 544.32 Z" fill="#000000" fill-rule="nonzero" fill-opacity="1" /><path clip-path="url(#clip292)" d="M338.285 1119.31 L460.523 1075.86 L582.76 545.619 L704.997 297.598 L827.234 266.731 L949.472 536.56 L1071.71 663.991 L1193.95 810.919 L1316.18 971.045 L1438.42 1096.89 L1560.66 1149.33 L1682.9 1159.79 L1805.13 1146.15 L1927.37 1186.23 L2049.61 1232.38 L2171.84 1384.24 L2294.08 1376.37 L2294.08 710.281 L2171.84 740.159 L2049.61 626.452 L1927.37 602.488 L1805.13 603.107 L1682.9 650.485 L1560.66 678.48 L1438.42 663.171 L1316.18 575.258 L1193.95 460.821 L1071.71 371.539 L949.472 302.558 L827.234 86.1857 L704.997 171.176 L582.76 475.205 L460.523 1070.09 L338.285 1119.31  Z" fill="#009af9" fill-rule="evenodd" fill-opacity="0.2"/>
<polyline clip-path="url(#clip292)" style="stroke:#009af9; stroke-linecap:round; stroke-linejoin:round; stroke-width:4; stroke-opacity:1; fill:none" points="338.285,1119.31 460.523,1072.97 582.76,510.412 704.997,234.387 827.234,176.458 949.472,419.559 1071.71,517.765 1193.95,635.87 1316.18,773.152 1438.42,880.029 1560.66,913.906 1682.9,905.136 1805.13,874.627 1927.37,894.357 2049.61,929.417 2171.84,1062.2 2294.08,1043.32 "/>
</svg>
