<?xml version="1.0" encoding="utf-8"?>
<svg xmlns="http://www.w3.org/2000/svg" xmlns:xlink="http://www.w3.org/1999/xlink" width="600" height="400" viewBox="0 0 2400 1600">
<defs>
  <clipPath id="clip760">
    <rect x="0" y="0" width="2400" height="1600"/>
  </clipPath>
</defs>
<path clip-path="url(#clip760)" d="M0 1600 L2400 1600 L2400 0 L0 0  Z" fill="#ffffff" fill-rule="evenodd" fill-opacity="1"/>
<defs>
  <clipPath id="clip761">
    <rect x="480" y="0" width="1681" height="1600"/>
  </clipPath>
</defs>
<path clip-path="url(#clip760)" d="M230.765 1486.45 L2352.76 1486.45 L2352.76 106.192 L230.765 106.192  Z" fill="#ffffff" fill-rule="evenodd" fill-opacity="1"/>
<defs>
  <clipPath id="clip762">
    <rect x="230" y="106" width="2123" height="1381"/>
  </clipPath>
</defs>
<polyline clip-path="url(#clip762)" style="stroke:#000000; stroke-linecap:round; stroke-linejoin:round; stroke-width:2; stroke-opacity:0.1; fill:none" points="541.056,1486.45 541.056,106.192 "/>
<polyline clip-path="url(#clip762)" style="stroke:#000000; stroke-linecap:round; stroke-linejoin:round; stroke-width:2; stroke-opacity:0.1; fill:none" points="916.408,1486.45 916.408,106.192 "/>
<polyline clip-path="url(#clip762)" style="stroke:#000000; stroke-linecap:round; stroke-linejoin:round; stroke-width:2; stroke-opacity:0.1; fill:none" points="1291.76,1486.45 1291.76,106.192 "/>
<polyline clip-path="url(#clip762)" style="stroke:#000000; stroke-linecap:round; stroke-linejoin:round; stroke-width:2; stroke-opacity:0.1; fill:none" points="1667.11,1486.45 1667.11,106.192 "/>
<polyline clip-path="url(#clip762)" style="stroke:#000000; stroke-linecap:round; stroke-linejoin:round; stroke-width:2; stroke-opacity:0.1; fill:none" points="2042.46,1486.45 2042.46,106.192 "/>
<polyline clip-path="url(#clip762)" style="stroke:#000000; stroke-linecap:round; stroke-linejoin:round; stroke-width:2; stroke-opacity:0.1; fill:none" points="230.765,1414.24 2352.76,1414.24 "/>
<polyline clip-path="url(#clip762)" style="stroke:#000000; stroke-linecap:round; stroke-linejoin:round; stroke-width:2; stroke-opacity:0.1; fill:none" points="230.765,1201.79 2352.76,1201.79 "/>
<polyline clip-path="url(#clip762)" style="stroke:#000000; stroke-linecap:round; stroke-linejoin:round; stroke-width:2; stroke-opacity:0.1; fill:none" points="230.765,989.33 2352.76,989.33 "/>
<polyline clip-path="url(#clip762)" style="stroke:#000000; stroke-linecap:round; stroke-linejoin:round; stroke-width:2; stroke-opacity:0.1; fill:none" points="230.765,776.875 2352.76,776.875 "/>
<polyline clip-path="url(#clip762)" style="stroke:#000000; stroke-linecap:round; stroke-linejoin:round; stroke-width:2; stroke-opacity:0.1; fill:none" points="230.765,564.42 2352.76,564.42 "/>
<polyline clip-path="url(#clip762)" style="stroke:#000000; stroke-linecap:round; stroke-linejoin:round; stroke-width:2; stroke-opacity:0.1; fill:none" points="230.765,351.965 2352.76,351.965 "/>
<polyline clip-path="url(#clip762)" style="stroke:#000000; stroke-linecap:round; stroke-linejoin:round; stroke-width:2; stroke-opacity:0.1; fill:none" points="230.765,139.509 2352.76,139.509 "/>
<polyline clip-path="url(#clip760)" style="stroke:#000000; stroke-linecap:round; stroke-linejoin:round; stroke-width:4; stroke-opacity:1; fill:none" points="230.765,1486.45 2352.76,1486.45 "/>
<polyline clip-path="url(#clip760)" style="stroke:#000000; stroke-linecap:round; stroke-linejoin:round; stroke-width:4; stroke-opacity:1; fill:none" points="541.056,1486.45 541.056,1467.55 "/>
<polyline clip-path="url(#clip760)" style="stroke:#000000; stroke-linecap:round; stroke-linejoin:round; stroke-width:4; stroke-opacity:1; fill:none" points="916.408,1486.45 916.408,1467.55 "/>
<polyline clip-path="url(#clip760)" style="stroke:#000000; stroke-linecap:round; stroke-linejoin:round; stroke-width:4; stroke-opacity:1; fill:none" points="1291.76,1486.45 1291.76,1467.55 "/>
<polyline clip-path="url(#clip760)" style="stroke:#000000; stroke-linecap:round; stroke-linejoin:round; stroke-width:4; stroke-opacity:1; fill:none" points="1667.11,1486.45 1667.11,1467.55 "/>
<polyline clip-path="url(#clip760)" style="stroke:#000000; stroke-linecap:round; stroke-linejoin:round; stroke-width:4; stroke-opacity:1; fill:none" points="2042.46,1486.45 2042.46,1467.55 "/>
<path clip-path="url(#clip760)" d="M545.303 1530.21 Q548.66 1530.93 550.535 1533.2 Q552.433 1535.47 552.433 1538.8 Q552.433 1543.92 548.914 1546.72 Q545.396 1549.52 538.915 1549.52 Q536.739 1549.52 534.424 1549.08 Q532.132 1548.66 529.678 1547.81 L529.678 1543.29 Q531.623 1544.43 533.938 1545.01 Q536.252 1545.58 538.776 1545.58 Q543.174 1545.58 545.465 1543.85 Q547.78 1542.11 547.78 1538.8 Q547.78 1535.75 545.627 1534.03 Q543.498 1532.3 539.678 1532.3 L535.651 1532.3 L535.651 1528.45 L539.864 1528.45 Q543.313 1528.45 545.141 1527.09 Q546.97 1525.7 546.97 1523.11 Q546.97 1520.45 545.072 1519.03 Q543.197 1517.6 539.678 1517.6 Q537.757 1517.6 535.558 1518.01 Q533.359 1518.43 530.72 1519.31 L530.72 1515.14 Q533.382 1514.4 535.697 1514.03 Q538.035 1513.66 540.095 1513.66 Q545.419 1513.66 548.521 1516.09 Q551.623 1518.5 551.623 1522.62 Q551.623 1525.49 549.979 1527.48 Q548.336 1529.45 545.303 1530.21 Z" fill="#000000" fill-rule="nonzero" fill-opacity="1" /><path clip-path="url(#clip760)" d="M916.813 1529.7 Q913.665 1529.7 911.813 1531.86 Q909.984 1534.01 909.984 1537.76 Q909.984 1541.49 911.813 1543.66 Q913.665 1545.82 916.813 1545.82 Q919.961 1545.82 921.79 1543.66 Q923.642 1541.49 923.642 1537.76 Q923.642 1534.01 921.79 1531.86 Q919.961 1529.7 916.813 1529.7 M926.095 1515.05 L926.095 1519.31 Q924.336 1518.48 922.531 1518.04 Q920.748 1517.6 918.989 1517.6 Q914.359 1517.6 911.906 1520.72 Q909.475 1523.85 909.128 1530.17 Q910.494 1528.15 912.554 1527.09 Q914.614 1526 917.091 1526 Q922.299 1526 925.308 1529.17 Q928.341 1532.32 928.341 1537.76 Q928.341 1543.08 925.193 1546.3 Q922.044 1549.52 916.813 1549.52 Q910.818 1549.52 907.646 1544.94 Q904.475 1540.33 904.475 1531.6 Q904.475 1523.41 908.364 1518.55 Q912.253 1513.66 918.804 1513.66 Q920.563 1513.66 922.345 1514.01 Q924.151 1514.36 926.095 1515.05 Z" fill="#000000" fill-rule="nonzero" fill-opacity="1" /><path clip-path="url(#clip760)" d="M1282.06 1548.13 L1282.06 1543.87 Q1283.82 1544.7 1285.63 1545.14 Q1287.43 1545.58 1289.17 1545.58 Q1293.8 1545.58 1296.23 1542.48 Q1298.68 1539.36 1299.03 1533.01 Q1297.69 1535.01 1295.63 1536.07 Q1293.57 1537.13 1291.07 1537.13 Q1285.88 1537.13 1282.85 1534.01 Q1279.84 1530.86 1279.84 1525.42 Q1279.84 1520.1 1282.99 1516.88 Q1286.14 1513.66 1291.37 1513.66 Q1297.36 1513.66 1300.51 1518.27 Q1303.68 1522.85 1303.68 1531.6 Q1303.68 1539.77 1299.79 1544.66 Q1295.93 1549.52 1289.38 1549.52 Q1287.62 1549.52 1285.81 1549.17 Q1284.01 1548.82 1282.06 1548.13 M1291.37 1533.48 Q1294.51 1533.48 1296.34 1531.32 Q1298.2 1529.17 1298.2 1525.42 Q1298.2 1521.7 1296.34 1519.54 Q1294.51 1517.37 1291.37 1517.37 Q1288.22 1517.37 1286.37 1519.54 Q1284.54 1521.7 1284.54 1525.42 Q1284.54 1529.17 1286.37 1531.32 Q1288.22 1533.48 1291.37 1533.48 Z" fill="#000000" fill-rule="nonzero" fill-opacity="1" /><path clip-path="url(#clip760)" d="M1642.6 1544.91 L1650.24 1544.91 L1650.24 1518.55 L1641.93 1520.21 L1641.93 1515.95 L1650.19 1514.29 L1654.87 1514.29 L1654.87 1544.91 L1662.51 1544.91 L1662.51 1548.85 L1642.6 1548.85 L1642.6 1544.91 Z" fill="#000000" fill-rule="nonzero" fill-opacity="1" /><path clip-path="url(#clip760)" d="M1675.98 1544.91 L1692.3 1544.91 L1692.3 1548.85 L1670.35 1548.85 L1670.35 1544.91 Q1673.02 1542.16 1677.6 1537.53 Q1682.2 1532.88 1683.39 1531.53 Q1685.63 1529.01 1686.51 1527.27 Q1687.41 1525.51 1687.41 1523.82 Q1687.41 1521.07 1685.47 1519.33 Q1683.55 1517.6 1680.45 1517.6 Q1678.25 1517.6 1675.79 1518.36 Q1673.36 1519.13 1670.58 1520.68 L1670.58 1515.95 Q1673.41 1514.82 1675.86 1514.24 Q1678.32 1513.66 1680.35 1513.66 Q1685.72 1513.66 1688.92 1516.35 Q1692.11 1519.03 1692.11 1523.52 Q1692.11 1525.65 1691.3 1527.57 Q1690.52 1529.47 1688.41 1532.07 Q1687.83 1532.74 1684.73 1535.95 Q1681.63 1539.15 1675.98 1544.91 Z" fill="#000000" fill-rule="nonzero" fill-opacity="1" /><path clip-path="url(#clip760)" d="M2017.65 1544.91 L2025.29 1544.91 L2025.29 1518.55 L2016.98 1520.21 L2016.98 1515.95 L2025.24 1514.29 L2029.92 1514.29 L2029.92 1544.91 L2037.56 1544.91 L2037.56 1548.85 L2017.65 1548.85 L2017.65 1544.91 Z" fill="#000000" fill-rule="nonzero" fill-opacity="1" /><path clip-path="url(#clip760)" d="M2047.05 1514.29 L2065.4 1514.29 L2065.4 1518.22 L2051.33 1518.22 L2051.33 1526.7 Q2052.35 1526.35 2053.37 1526.19 Q2054.39 1526 2055.4 1526 Q2061.19 1526 2064.57 1529.17 Q2067.95 1532.34 2067.95 1537.76 Q2067.95 1543.34 2064.48 1546.44 Q2061.01 1549.52 2054.69 1549.52 Q2052.51 1549.52 2050.24 1549.15 Q2048 1548.78 2045.59 1548.04 L2045.59 1543.34 Q2047.67 1544.47 2049.9 1545.03 Q2052.12 1545.58 2054.59 1545.58 Q2058.6 1545.58 2060.94 1543.48 Q2063.27 1541.37 2063.27 1537.76 Q2063.27 1534.15 2060.94 1532.04 Q2058.6 1529.94 2054.59 1529.94 Q2052.72 1529.94 2050.84 1530.35 Q2048.99 1530.77 2047.05 1531.65 L2047.05 1514.29 Z" fill="#000000" fill-rule="nonzero" fill-opacity="1" /><polyline clip-path="url(#clip760)" style="stroke:#000000; stroke-linecap:round; stroke-linejoin:round; stroke-width:4; stroke-opacity:1; fill:none" points="230.765,1486.45 230.765,106.192 "/>
<polyline clip-path="url(#clip760)" style="stroke:#000000; stroke-linecap:round; stroke-linejoin:round; stroke-width:4; stroke-opacity:1; fill:none" points="230.765,1414.24 249.662,1414.24 "/>
<polyline clip-path="url(#clip760)" style="stroke:#000000; stroke-linecap:round; stroke-linejoin:round; stroke-width:4; stroke-opacity:1; fill:none" points="230.765,1201.79 249.662,1201.79 "/>
<polyline clip-path="url(#clip760)" style="stroke:#000000; stroke-linecap:round; stroke-linejoin:round; stroke-width:4; stroke-opacity:1; fill:none" points="230.765,989.33 249.662,989.33 "/>
<polyline clip-path="url(#clip760)" style="stroke:#000000; stroke-linecap:round; stroke-linejoin:round; stroke-width:4; stroke-opacity:1; fill:none" points="230.765,776.875 249.662,776.875 "/>
<polyline clip-path="url(#clip760)" style="stroke:#000000; stroke-linecap:round; stroke-linejoin:round; stroke-width:4; stroke-opacity:1; fill:none" points="230.765,564.42 249.662,564.42 "/>
<polyline clip-path="url(#clip760)" style="stroke:#000000; stroke-linecap:round; stroke-linejoin:round; stroke-width:4; stroke-opacity:1; fill:none" points="230.765,351.965 249.662,351.965 "/>
<polyline clip-path="url(#clip760)" style="stroke:#000000; stroke-linecap:round; stroke-linejoin:round; stroke-width:4; stroke-opacity:1; fill:none" points="230.765,139.509 249.662,139.509 "/>
<path clip-path="url(#clip760)" d="M50.9921 1396.96 L73.2142 1396.96 L73.2142 1398.95 L60.668 1431.52 L55.7838 1431.52 L67.5893 1400.9 L50.9921 1400.9 L50.9921 1396.96 Z" fill="#000000" fill-rule="nonzero" fill-opacity="1" /><path clip-path="url(#clip760)" d="M86.3623 1427.59 L102.682 1427.59 L102.682 1431.52 L80.7373 1431.52 L80.7373 1427.59 Q83.3994 1424.83 87.9827 1420.2 Q92.5891 1415.55 93.7697 1414.21 Q96.015 1411.68 96.8947 1409.95 Q97.7974 1408.19 97.7974 1406.5 Q97.7974 1403.74 95.853 1402.01 Q93.9317 1400.27 90.8299 1400.27 Q88.6308 1400.27 86.1771 1401.04 Q83.7466 1401.8 80.9688 1403.35 L80.9688 1398.63 Q83.7929 1397.49 86.2466 1396.91 Q88.7003 1396.34 90.7373 1396.34 Q96.1076 1396.34 99.3021 1399.02 Q102.496 1401.71 102.496 1406.2 Q102.496 1408.33 101.686 1410.25 Q100.899 1412.15 98.7928 1414.74 Q98.2141 1415.41 95.1123 1418.63 Q92.0104 1421.82 86.3623 1427.59 Z" fill="#000000" fill-rule="nonzero" fill-opacity="1" /><path clip-path="url(#clip760)" d="M112.543 1396.96 L130.899 1396.96 L130.899 1400.9 L116.825 1400.9 L116.825 1409.37 Q117.844 1409.02 118.862 1408.86 Q119.881 1408.67 120.899 1408.67 Q126.686 1408.67 130.066 1411.85 Q133.445 1415.02 133.445 1420.43 Q133.445 1426.01 129.973 1429.11 Q126.501 1432.19 120.182 1432.19 Q118.006 1432.19 115.737 1431.82 Q113.492 1431.45 111.084 1430.71 L111.084 1426.01 Q113.168 1427.15 115.39 1427.7 Q117.612 1428.26 120.089 1428.26 Q124.094 1428.26 126.432 1426.15 Q128.769 1424.04 128.769 1420.43 Q128.769 1416.82 126.432 1414.72 Q124.094 1412.61 120.089 1412.61 Q118.214 1412.61 116.339 1413.03 Q114.487 1413.44 112.543 1414.32 L112.543 1396.96 Z" fill="#000000" fill-rule="nonzero" fill-opacity="1" /><path clip-path="url(#clip760)" d="M152.658 1400.04 Q149.047 1400.04 147.218 1403.6 Q145.413 1407.15 145.413 1414.28 Q145.413 1421.38 147.218 1424.95 Q149.047 1428.49 152.658 1428.49 Q156.292 1428.49 158.098 1424.95 Q159.927 1421.38 159.927 1414.28 Q159.927 1407.15 158.098 1403.6 Q156.292 1400.04 152.658 1400.04 M152.658 1396.34 Q158.468 1396.34 161.524 1400.94 Q164.603 1405.53 164.603 1414.28 Q164.603 1423 161.524 1427.61 Q158.468 1432.19 152.658 1432.19 Q146.848 1432.19 143.769 1427.61 Q140.714 1423 140.714 1414.28 Q140.714 1405.53 143.769 1400.94 Q146.848 1396.34 152.658 1396.34 Z" fill="#000000" fill-rule="nonzero" fill-opacity="1" /><path clip-path="url(#clip760)" d="M182.82 1400.04 Q179.209 1400.04 177.38 1403.6 Q175.575 1407.15 175.575 1414.28 Q175.575 1421.38 177.38 1424.95 Q179.209 1428.49 182.82 1428.49 Q186.454 1428.49 188.26 1424.95 Q190.089 1421.38 190.089 1414.28 Q190.089 1407.15 188.26 1403.6 Q186.454 1400.04 182.82 1400.04 M182.82 1396.34 Q188.63 1396.34 191.686 1400.94 Q194.765 1405.53 194.765 1414.28 Q194.765 1423 191.686 1427.61 Q188.63 1432.19 182.82 1432.19 Q177.01 1432.19 173.931 1427.61 Q170.876 1423 170.876 1414.28 Q170.876 1405.53 173.931 1400.94 Q177.01 1396.34 182.82 1396.34 Z" fill="#000000" fill-rule="nonzero" fill-opacity="1" /><path clip-path="url(#clip760)" d="M50.9921 1184.51 L73.2142 1184.51 L73.2142 1186.5 L60.668 1219.07 L55.7838 1219.07 L67.5893 1188.44 L50.9921 1188.44 L50.9921 1184.51 Z" fill="#000000" fill-rule="nonzero" fill-opacity="1" /><path clip-path="url(#clip760)" d="M96.5011 1200.43 Q99.8576 1201.15 101.733 1203.42 Q103.631 1205.69 103.631 1209.02 Q103.631 1214.14 100.112 1216.94 Q96.5937 1219.74 90.1123 1219.74 Q87.9364 1219.74 85.6216 1219.3 Q83.3299 1218.88 80.8762 1218.02 L80.8762 1213.51 Q82.8207 1214.64 85.1355 1215.22 Q87.4503 1215.8 89.9734 1215.8 Q94.3715 1215.8 96.6632 1214.07 Q98.978 1212.33 98.978 1209.02 Q98.978 1205.96 96.8252 1204.25 Q94.6956 1202.51 90.8762 1202.51 L86.8484 1202.51 L86.8484 1198.67 L91.0614 1198.67 Q94.5104 1198.67 96.3391 1197.31 Q98.1678 1195.92 98.1678 1193.33 Q98.1678 1190.66 96.2697 1189.25 Q94.3947 1187.82 90.8762 1187.82 Q88.9549 1187.82 86.7558 1188.23 Q84.5568 1188.65 81.9179 1189.53 L81.9179 1185.36 Q84.5799 1184.62 86.8947 1184.25 Q89.2327 1183.88 91.2928 1183.88 Q96.6169 1183.88 99.7187 1186.31 Q102.821 1188.72 102.821 1192.84 Q102.821 1195.71 101.177 1197.7 Q99.5335 1199.67 96.5011 1200.43 Z" fill="#000000" fill-rule="nonzero" fill-opacity="1" /><path clip-path="url(#clip760)" d="M122.496 1187.58 Q118.885 1187.58 117.057 1191.15 Q115.251 1194.69 115.251 1201.82 Q115.251 1208.93 117.057 1212.49 Q118.885 1216.03 122.496 1216.03 Q126.131 1216.03 127.936 1212.49 Q129.765 1208.93 129.765 1201.82 Q129.765 1194.69 127.936 1191.15 Q126.131 1187.58 122.496 1187.58 M122.496 1183.88 Q128.307 1183.88 131.362 1188.49 Q134.441 1193.07 134.441 1201.82 Q134.441 1210.55 131.362 1215.15 Q128.307 1219.74 122.496 1219.74 Q116.686 1219.74 113.608 1215.15 Q110.552 1210.55 110.552 1201.82 Q110.552 1193.07 113.608 1188.49 Q116.686 1183.88 122.496 1183.88 Z" fill="#000000" fill-rule="nonzero" fill-opacity="1" /><path clip-path="url(#clip760)" d="M152.658 1187.58 Q149.047 1187.58 147.218 1191.15 Q145.413 1194.69 145.413 1201.82 Q145.413 1208.93 147.218 1212.49 Q149.047 1216.03 152.658 1216.03 Q156.292 1216.03 158.098 1212.49 Q159.927 1208.93 159.927 1201.82 Q159.927 1194.69 158.098 1191.15 Q156.292 1187.58 152.658 1187.58 M152.658 1183.88 Q158.468 1183.88 161.524 1188.49 Q164.603 1193.07 164.603 1201.82 Q164.603 1210.55 161.524 1215.15 Q158.468 1219.74 152.658 1219.74 Q146.848 1219.74 143.769 1215.15 Q140.714 1210.55 140.714 1201.82 Q140.714 1193.07 143.769 1188.49 Q146.848 1183.88 152.658 1183.88 Z" fill="#000000" fill-rule="nonzero" fill-opacity="1" /><path clip-path="url(#clip760)" d="M182.82 1187.58 Q179.209 1187.58 177.38 1191.15 Q175.575 1194.69 175.575 1201.82 Q175.575 1208.93 177.38 1212.49 Q179.209 1216.03 182.82 1216.03 Q186.454 1216.03 188.26 1212.49 Q190.089 1208.93 190.089 1201.82 Q190.089 1194.69 188.26 1191.15 Q186.454 1187.58 182.82 1187.58 M182.82 1183.88 Q188.63 1183.88 191.686 1188.49 Q194.765 1193.07 194.765 1201.82 Q194.765 1210.55 191.686 1215.15 Q188.63 1219.74 182.82 1219.74 Q177.01 1219.74 173.931 1215.15 Q170.876 1210.55 170.876 1201.82 Q170.876 1193.07 173.931 1188.49 Q177.01 1183.88 182.82 1183.88 Z" fill="#000000" fill-rule="nonzero" fill-opacity="1" /><path clip-path="url(#clip760)" d="M50.9921 972.05 L73.2142 972.05 L73.2142 974.041 L60.668 1006.61 L55.7838 1006.61 L67.5893 975.986 L50.9921 975.986 L50.9921 972.05 Z" fill="#000000" fill-rule="nonzero" fill-opacity="1" /><path clip-path="url(#clip760)" d="M96.5011 987.976 Q99.8576 988.694 101.733 990.962 Q103.631 993.231 103.631 996.564 Q103.631 1001.68 100.112 1004.48 Q96.5937 1007.28 90.1123 1007.28 Q87.9364 1007.28 85.6216 1006.84 Q83.3299 1006.43 80.8762 1005.57 L80.8762 1001.05 Q82.8207 1002.19 85.1355 1002.77 Q87.4503 1003.35 89.9734 1003.35 Q94.3715 1003.35 96.6632 1001.61 Q98.978 999.874 98.978 996.564 Q98.978 993.509 96.8252 991.796 Q94.6956 990.06 90.8762 990.06 L86.8484 990.06 L86.8484 986.217 L91.0614 986.217 Q94.5104 986.217 96.3391 984.851 Q98.1678 983.462 98.1678 980.87 Q98.1678 978.208 96.2697 976.796 Q94.3947 975.361 90.8762 975.361 Q88.9549 975.361 86.7558 975.777 Q84.5568 976.194 81.9179 977.074 L81.9179 972.907 Q84.5799 972.166 86.8947 971.796 Q89.2327 971.425 91.2928 971.425 Q96.6169 971.425 99.7187 973.856 Q102.821 976.263 102.821 980.384 Q102.821 983.254 101.177 985.245 Q99.5335 987.212 96.5011 987.976 Z" fill="#000000" fill-rule="nonzero" fill-opacity="1" /><path clip-path="url(#clip760)" d="M112.543 972.05 L130.899 972.05 L130.899 975.986 L116.825 975.986 L116.825 984.458 Q117.844 984.111 118.862 983.949 Q119.881 983.763 120.899 983.763 Q126.686 983.763 130.066 986.935 Q133.445 990.106 133.445 995.523 Q133.445 1001.1 129.973 1004.2 Q126.501 1007.28 120.182 1007.28 Q118.006 1007.28 115.737 1006.91 Q113.492 1006.54 111.084 1005.8 L111.084 1001.1 Q113.168 1002.24 115.39 1002.79 Q117.612 1003.35 120.089 1003.35 Q124.094 1003.35 126.432 1001.24 Q128.769 999.134 128.769 995.523 Q128.769 991.911 126.432 989.805 Q124.094 987.699 120.089 987.699 Q118.214 987.699 116.339 988.115 Q114.487 988.532 112.543 989.411 L112.543 972.05 Z" fill="#000000" fill-rule="nonzero" fill-opacity="1" /><path clip-path="url(#clip760)" d="M152.658 975.129 Q149.047 975.129 147.218 978.694 Q145.413 982.236 145.413 989.365 Q145.413 996.472 147.218 1000.04 Q149.047 1003.58 152.658 1003.58 Q156.292 1003.58 158.098 1000.04 Q159.927 996.472 159.927 989.365 Q159.927 982.236 158.098 978.694 Q156.292 975.129 152.658 975.129 M152.658 971.425 Q158.468 971.425 161.524 976.032 Q164.603 980.615 164.603 989.365 Q164.603 998.092 161.524 1002.7 Q158.468 1007.28 152.658 1007.28 Q146.848 1007.28 143.769 1002.7 Q140.714 998.092 140.714 989.365 Q140.714 980.615 143.769 976.032 Q146.848 971.425 152.658 971.425 Z" fill="#000000" fill-rule="nonzero" fill-opacity="1" /><path clip-path="url(#clip760)" d="M182.82 975.129 Q179.209 975.129 177.38 978.694 Q175.575 982.236 175.575 989.365 Q175.575 996.472 177.38 1000.04 Q179.209 1003.58 182.82 1003.58 Q186.454 1003.58 188.26 1000.04 Q190.089 996.472 190.089 989.365 Q190.089 982.236 188.26 978.694 Q186.454 975.129 182.82 975.129 M182.82 971.425 Q188.63 971.425 191.686 976.032 Q194.765 980.615 194.765 989.365 Q194.765 998.092 191.686 1002.7 Q188.63 1007.28 182.82 1007.28 Q177.01 1007.28 173.931 1002.7 Q170.876 998.092 170.876 989.365 Q170.876 980.615 173.931 976.032 Q177.01 971.425 182.82 971.425 Z" fill="#000000" fill-rule="nonzero" fill-opacity="1" /><path clip-path="url(#clip760)" d="M50.9921 759.595 L73.2142 759.595 L73.2142 761.586 L60.668 794.155 L55.7838 794.155 L67.5893 763.53 L50.9921 763.53 L50.9921 759.595 Z" fill="#000000" fill-rule="nonzero" fill-opacity="1" /><path clip-path="url(#clip760)" d="M95.1817 763.669 L83.3762 782.118 L95.1817 782.118 L95.1817 763.669 M93.9549 759.595 L99.8345 759.595 L99.8345 782.118 L104.765 782.118 L104.765 786.007 L99.8345 786.007 L99.8345 794.155 L95.1817 794.155 L95.1817 786.007 L79.5799 786.007 L79.5799 781.493 L93.9549 759.595 Z" fill="#000000" fill-rule="nonzero" fill-opacity="1" /><path clip-path="url(#clip760)" d="M122.496 762.674 Q118.885 762.674 117.057 766.239 Q115.251 769.78 115.251 776.91 Q115.251 784.016 117.057 787.581 Q118.885 791.123 122.496 791.123 Q126.131 791.123 127.936 787.581 Q129.765 784.016 129.765 776.91 Q129.765 769.78 127.936 766.239 Q126.131 762.674 122.496 762.674 M122.496 758.97 Q128.307 758.97 131.362 763.577 Q134.441 768.16 134.441 776.91 Q134.441 785.637 131.362 790.243 Q128.307 794.827 122.496 794.827 Q116.686 794.827 113.608 790.243 Q110.552 785.637 110.552 776.91 Q110.552 768.16 113.608 763.577 Q116.686 758.97 122.496 758.97 Z" fill="#000000" fill-rule="nonzero" fill-opacity="1" /><path clip-path="url(#clip760)" d="M152.658 762.674 Q149.047 762.674 147.218 766.239 Q145.413 769.78 145.413 776.91 Q145.413 784.016 147.218 787.581 Q149.047 791.123 152.658 791.123 Q156.292 791.123 158.098 787.581 Q159.927 784.016 159.927 776.91 Q159.927 769.78 158.098 766.239 Q156.292 762.674 152.658 762.674 M152.658 758.97 Q158.468 758.97 161.524 763.577 Q164.603 768.16 164.603 776.91 Q164.603 785.637 161.524 790.243 Q158.468 794.827 152.658 794.827 Q146.848 794.827 143.769 790.243 Q140.714 785.637 140.714 776.91 Q140.714 768.16 143.769 763.577 Q146.848 758.97 152.658 758.97 Z" fill="#000000" fill-rule="nonzero" fill-opacity="1" /><path clip-path="url(#clip760)" d="M182.82 762.674 Q179.209 762.674 177.38 766.239 Q175.575 769.78 175.575 776.91 Q175.575 784.016 177.38 787.581 Q179.209 791.123 182.82 791.123 Q186.454 791.123 188.26 787.581 Q190.089 784.016 190.089 776.91 Q190.089 769.78 188.26 766.239 Q186.454 762.674 182.82 762.674 M182.82 758.97 Q188.63 758.97 191.686 763.577 Q194.765 768.16 194.765 776.91 Q194.765 785.637 191.686 790.243 Q188.63 794.827 182.82 794.827 Q177.01 794.827 173.931 790.243 Q170.876 785.637 170.876 776.91 Q170.876 768.16 173.931 763.577 Q177.01 758.97 182.82 758.97 Z" fill="#000000" fill-rule="nonzero" fill-opacity="1" /><path clip-path="url(#clip760)" d="M50.9921 547.14 L73.2142 547.14 L73.2142 549.131 L60.668 581.7 L55.7838 581.7 L67.5893 551.075 L50.9921 551.075 L50.9921 547.14 Z" fill="#000000" fill-rule="nonzero" fill-opacity="1" /><path clip-path="url(#clip760)" d="M95.1817 551.214 L83.3762 569.663 L95.1817 569.663 L95.1817 551.214 M93.9549 547.14 L99.8345 547.14 L99.8345 569.663 L104.765 569.663 L104.765 573.552 L99.8345 573.552 L99.8345 581.7 L95.1817 581.7 L95.1817 573.552 L79.5799 573.552 L79.5799 569.038 L93.9549 547.14 Z" fill="#000000" fill-rule="nonzero" fill-opacity="1" /><path clip-path="url(#clip760)" d="M112.543 547.14 L130.899 547.14 L130.899 551.075 L116.825 551.075 L116.825 559.547 Q117.844 559.2 118.862 559.038 Q119.881 558.853 120.899 558.853 Q126.686 558.853 130.066 562.024 Q133.445 565.195 133.445 570.612 Q133.445 576.191 129.973 579.293 Q126.501 582.371 120.182 582.371 Q118.006 582.371 115.737 582.001 Q113.492 581.631 111.084 580.89 L111.084 576.191 Q113.168 577.325 115.39 577.881 Q117.612 578.436 120.089 578.436 Q124.094 578.436 126.432 576.33 Q128.769 574.223 128.769 570.612 Q128.769 567.001 126.432 564.894 Q124.094 562.788 120.089 562.788 Q118.214 562.788 116.339 563.205 Q114.487 563.621 112.543 564.501 L112.543 547.14 Z" fill="#000000" fill-rule="nonzero" fill-opacity="1" /><path clip-path="url(#clip760)" d="M152.658 550.219 Q149.047 550.219 147.218 553.783 Q145.413 557.325 145.413 564.455 Q145.413 571.561 147.218 575.126 Q149.047 578.668 152.658 578.668 Q156.292 578.668 158.098 575.126 Q159.927 571.561 159.927 564.455 Q159.927 557.325 158.098 553.783 Q156.292 550.219 152.658 550.219 M152.658 546.515 Q158.468 546.515 161.524 551.121 Q164.603 555.705 164.603 564.455 Q164.603 573.181 161.524 577.788 Q158.468 582.371 152.658 582.371 Q146.848 582.371 143.769 577.788 Q140.714 573.181 140.714 564.455 Q140.714 555.705 143.769 551.121 Q146.848 546.515 152.658 546.515 Z" fill="#000000" fill-rule="nonzero" fill-opacity="1" /><path clip-path="url(#clip760)" d="M182.82 550.219 Q179.209 550.219 177.38 553.783 Q175.575 557.325 175.575 564.455 Q175.575 571.561 177.38 575.126 Q179.209 578.668 182.82 578.668 Q186.454 578.668 188.26 575.126 Q190.089 571.561 190.089 564.455 Q190.089 557.325 188.26 553.783 Q186.454 550.219 182.82 550.219 M182.82 546.515 Q188.63 546.515 191.686 551.121 Q194.765 555.705 194.765 564.455 Q194.765 573.181 191.686 577.788 Q188.63 582.371 182.82 582.371 Q177.01 582.371 173.931 577.788 Q170.876 573.181 170.876 564.455 Q170.876 555.705 173.931 551.121 Q177.01 546.515 182.82 546.515 Z" fill="#000000" fill-rule="nonzero" fill-opacity="1" /><path clip-path="url(#clip760)" d="M50.9921 334.685 L73.2142 334.685 L73.2142 336.675 L60.668 369.245 L55.7838 369.245 L67.5893 338.62 L50.9921 338.62 L50.9921 334.685 Z" fill="#000000" fill-rule="nonzero" fill-opacity="1" /><path clip-path="url(#clip760)" d="M82.3808 334.685 L100.737 334.685 L100.737 338.62 L86.6632 338.62 L86.6632 347.092 Q87.6817 346.745 88.7003 346.583 Q89.7188 346.398 90.7373 346.398 Q96.5243 346.398 99.9039 349.569 Q103.284 352.74 103.284 358.157 Q103.284 363.735 99.8113 366.837 Q96.3391 369.916 90.0197 369.916 Q87.8438 369.916 85.5753 369.546 Q83.3299 369.175 80.9225 368.435 L80.9225 363.735 Q83.0058 364.87 85.2281 365.425 Q87.4503 365.981 89.9271 365.981 Q93.9317 365.981 96.2697 363.874 Q98.6076 361.768 98.6076 358.157 Q98.6076 354.546 96.2697 352.439 Q93.9317 350.333 89.9271 350.333 Q88.0521 350.333 86.1771 350.749 Q84.3253 351.166 82.3808 352.046 L82.3808 334.685 Z" fill="#000000" fill-rule="nonzero" fill-opacity="1" /><path clip-path="url(#clip760)" d="M122.496 337.763 Q118.885 337.763 117.057 341.328 Q115.251 344.87 115.251 351.999 Q115.251 359.106 117.057 362.671 Q118.885 366.212 122.496 366.212 Q126.131 366.212 127.936 362.671 Q129.765 359.106 129.765 351.999 Q129.765 344.87 127.936 341.328 Q126.131 337.763 122.496 337.763 M122.496 334.06 Q128.307 334.06 131.362 338.666 Q134.441 343.249 134.441 351.999 Q134.441 360.726 131.362 365.333 Q128.307 369.916 122.496 369.916 Q116.686 369.916 113.608 365.333 Q110.552 360.726 110.552 351.999 Q110.552 343.249 113.608 338.666 Q116.686 334.06 122.496 334.06 Z" fill="#000000" fill-rule="nonzero" fill-opacity="1" /><path clip-path="url(#clip760)" d="M152.658 337.763 Q149.047 337.763 147.218 341.328 Q145.413 344.87 145.413 351.999 Q145.413 359.106 147.218 362.671 Q149.047 366.212 152.658 366.212 Q156.292 366.212 158.098 362.671 Q159.927 359.106 159.927 351.999 Q159.927 344.87 158.098 341.328 Q156.292 337.763 152.658 337.763 M152.658 334.06 Q158.468 334.06 161.524 338.666 Q164.603 343.249 164.603 351.999 Q164.603 360.726 161.524 365.333 Q158.468 369.916 152.658 369.916 Q146.848 369.916 143.769 365.333 Q140.714 360.726 140.714 351.999 Q140.714 343.249 143.769 338.666 Q146.848 334.06 152.658 334.06 Z" fill="#000000" fill-rule="nonzero" fill-opacity="1" /><path clip-path="url(#clip760)" d="M182.82 337.763 Q179.209 337.763 177.38 341.328 Q175.575 344.87 175.575 351.999 Q175.575 359.106 177.38 362.671 Q179.209 366.212 182.82 366.212 Q186.454 366.212 188.26 362.671 Q190.089 359.106 190.089 351.999 Q190.089 344.87 188.26 341.328 Q186.454 337.763 182.82 337.763 M182.82 334.06 Q188.63 334.06 191.686 338.666 Q194.765 343.249 194.765 351.999 Q194.765 360.726 191.686 365.333 Q188.63 369.916 182.82 369.916 Q177.01 369.916 173.931 365.333 Q170.876 360.726 170.876 351.999 Q170.876 343.249 173.931 338.666 Q177.01 334.06 182.82 334.06 Z" fill="#000000" fill-rule="nonzero" fill-opacity="1" /><path clip-path="url(#clip760)" d="M50.9921 122.229 L73.2142 122.229 L73.2142 124.22 L60.668 156.789 L55.7838 156.789 L67.5893 126.165 L50.9921 126.165 L50.9921 122.229 Z" fill="#000000" fill-rule="nonzero" fill-opacity="1" /><path clip-path="url(#clip760)" d="M82.3808 122.229 L100.737 122.229 L100.737 126.165 L86.6632 126.165 L86.6632 134.637 Q87.6817 134.29 88.7003 134.128 Q89.7188 133.942 90.7373 133.942 Q96.5243 133.942 99.9039 137.114 Q103.284 140.285 103.284 145.702 Q103.284 151.28 99.8113 154.382 Q96.3391 157.461 90.0197 157.461 Q87.8438 157.461 85.5753 157.09 Q83.3299 156.72 80.9225 155.979 L80.9225 151.28 Q83.0058 152.414 85.2281 152.97 Q87.4503 153.526 89.9271 153.526 Q93.9317 153.526 96.2697 151.419 Q98.6076 149.313 98.6076 145.702 Q98.6076 142.09 96.2697 139.984 Q93.9317 137.877 89.9271 137.877 Q88.0521 137.877 86.1771 138.294 Q84.3253 138.711 82.3808 139.59 L82.3808 122.229 Z" fill="#000000" fill-rule="nonzero" fill-opacity="1" /><path clip-path="url(#clip760)" d="M112.543 122.229 L130.899 122.229 L130.899 126.165 L116.825 126.165 L116.825 134.637 Q117.844 134.29 118.862 134.128 Q119.881 133.942 120.899 133.942 Q126.686 133.942 130.066 137.114 Q133.445 140.285 133.445 145.702 Q133.445 151.28 129.973 154.382 Q126.501 157.461 120.182 157.461 Q118.006 157.461 115.737 157.09 Q113.492 156.72 111.084 155.979 L111.084 151.28 Q113.168 152.414 115.39 152.97 Q117.612 153.526 120.089 153.526 Q124.094 153.526 126.432 151.419 Q128.769 149.313 128.769 145.702 Q128.769 142.09 126.432 139.984 Q124.094 137.877 120.089 137.877 Q118.214 137.877 116.339 138.294 Q114.487 138.711 112.543 139.59 L112.543 122.229 Z" fill="#000000" fill-rule="nonzero" fill-opacity="1" /><path clip-path="url(#clip760)" d="M152.658 125.308 Q149.047 125.308 147.218 128.873 Q145.413 132.415 145.413 139.544 Q145.413 146.651 147.218 150.215 Q149.047 153.757 152.658 153.757 Q156.292 153.757 158.098 150.215 Q159.927 146.651 159.927 139.544 Q159.927 132.415 158.098 128.873 Q156.292 125.308 152.658 125.308 M152.658 121.604 Q158.468 121.604 161.524 126.211 Q164.603 130.794 164.603 139.544 Q164.603 148.271 161.524 152.877 Q158.468 157.461 152.658 157.461 Q146.848 157.461 143.769 152.877 Q140.714 148.271 140.714 139.544 Q140.714 130.794 143.769 126.211 Q146.848 121.604 152.658 121.604 Z" fill="#000000" fill-rule="nonzero" fill-opacity="1" /><path clip-path="url(#clip760)" d="M182.82 125.308 Q179.209 125.308 177.38 128.873 Q175.575 132.415 175.575 139.544 Q175.575 146.651 177.38 150.215 Q179.209 153.757 182.82 153.757 Q186.454 153.757 188.26 150.215 Q190.089 146.651 190.089 139.544 Q190.089 132.415 188.26 128.873 Q186.454 125.308 182.82 125.308 M182.82 121.604 Q188.63 121.604 191.686 126.211 Q194.765 130.794 194.765 139.544 Q194.765 148.271 191.686 152.877 Q188.63 157.461 182.82 157.461 Q177.01 157.461 173.931 152.877 Q170.876 148.271 170.876 139.544 Q170.876 130.794 173.931 126.211 Q177.01 121.604 182.82 121.604 Z" fill="#000000" fill-rule="nonzero" fill-opacity="1" /><path clip-path="url(#clip760)" d="M1262.23 35.2602 Q1262.23 29.4732 1259.83 26.2904 Q1257.46 23.1075 1253.15 23.1075 Q1248.86 23.1075 1246.46 26.2904 Q1244.09 29.4732 1244.09 35.2602 Q1244.09 41.0183 1246.46 44.2012 Q1248.86 47.384 1253.15 47.384 Q1257.46 47.384 1259.83 44.2012 Q1262.23 41.0183 1262.23 35.2602 M1267.56 47.818 Q1267.56 56.0934 1263.88 60.1154 Q1260.21 64.1663 1252.63 64.1663 Q1249.82 64.1663 1247.33 63.7323 Q1244.84 63.3272 1242.5 62.4592 L1242.5 57.2798 Q1244.84 58.5529 1247.13 59.1606 Q1249.41 59.7682 1251.79 59.7682 Q1257.02 59.7682 1259.63 57.0194 Q1262.23 54.2995 1262.23 48.7729 L1262.23 46.1398 Q1260.58 49.0044 1258.01 50.4222 Q1255.43 51.84 1251.84 51.84 Q1245.88 51.84 1242.24 47.2972 Q1238.59 42.7544 1238.59 35.2602 Q1238.59 27.7371 1242.24 23.1943 Q1245.88 18.6515 1251.84 18.6515 Q1255.43 18.6515 1258.01 20.0693 Q1260.58 21.4872 1262.23 24.3517 L1262.23 19.4328 L1267.56 19.4328 L1267.56 47.818 Z" fill="#000000" fill-rule="nonzero" fill-opacity="1" /><path clip-path="url(#clip760)" d="M1299.85 24.3517 L1299.85 6.81709 L1305.17 6.81709 L1305.17 51.84 L1299.85 51.84 L1299.85 46.9789 Q1298.17 49.8724 1295.59 51.2902 Q1293.05 52.6791 1289.46 52.6791 Q1283.59 52.6791 1279.88 47.9916 Q1276.21 43.3042 1276.21 35.6653 Q1276.21 28.0265 1279.88 23.339 Q1283.59 18.6515 1289.46 18.6515 Q1293.05 18.6515 1295.59 20.0693 Q1298.17 21.4582 1299.85 24.3517 M1281.71 35.6653 Q1281.71 41.5391 1284.11 44.8956 Q1286.54 48.2231 1290.76 48.2231 Q1294.99 48.2231 1297.42 44.8956 Q1299.85 41.5391 1299.85 35.6653 Q1299.85 29.7915 1297.42 26.464 Q1294.99 23.1075 1290.76 23.1075 Q1286.54 23.1075 1284.11 26.464 Q1281.71 29.7915 1281.71 35.6653 Z" fill="#000000" fill-rule="nonzero" fill-opacity="1" /><path clip-path="url(#clip760)" d="M1321.29 46.9789 L1321.29 64.1663 L1315.94 64.1663 L1315.94 19.4328 L1321.29 19.4328 L1321.29 24.3517 Q1322.97 21.4582 1325.51 20.0693 Q1328.09 18.6515 1331.65 18.6515 Q1337.55 18.6515 1341.22 23.339 Q1344.93 28.0265 1344.93 35.6653 Q1344.93 43.3042 1341.22 47.9916 Q1337.55 52.6791 1331.65 52.6791 Q1328.09 52.6791 1325.51 51.2902 Q1322.97 49.8724 1321.29 46.9789 M1339.4 35.6653 Q1339.4 29.7915 1336.97 26.464 Q1334.57 23.1075 1330.35 23.1075 Q1326.12 23.1075 1323.69 26.464 Q1321.29 29.7915 1321.29 35.6653 Q1321.29 41.5391 1323.69 44.8956 Q1326.12 48.2231 1330.35 48.2231 Q1334.57 48.2231 1336.97 44.8956 Q1339.4 41.5391 1339.4 35.6653 Z" fill="#000000" fill-rule="nonzero" fill-opacity="1" /><polyline clip-path="url(#clip762)" style="stroke:#009af9; stroke-linecap:round; stroke-linejoin:round; stroke-width:4; stroke-opacity:1; fill:none" points="290.821,1447.38 415.938,1275.01 541.056,948.807 666.173,963.682 791.291,764.446 916.408,1030.85 1041.53,979.778 1166.64,657.902 1291.76,600.252 1416.88,440.48 1542,315.731 1667.11,349.437 1792.23,333.713 1917.35,581.299 2042.46,762.272 2167.58,394.351 2292.7,145.256 "/>
<path clip-path="url(#clip760)" d="M301.498 255.881 L566.127 255.881 L566.127 152.201 L301.498 152.201  Z" fill="#ffffff" fill-rule="evenodd" fill-opacity="1"/>
<polyline clip-path="url(#clip760)" style="stroke:#000000; stroke-linecap:round; stroke-linejoin:round; stroke-width:4; stroke-opacity:1; fill:none" points="301.498,255.881 566.127,255.881 566.127,152.201 301.498,152.201 301.498,255.881 "/>
<polyline clip-path="url(#clip760)" style="stroke:#009af9; stroke-linecap:round; stroke-linejoin:round; stroke-width:4; stroke-opacity:1; fill:none" points="325.075,204.041 466.541,204.041 "/>
<path clip-path="url(#clip760)" d="M503.962 223.728 Q502.156 228.358 500.443 229.77 Q498.73 231.182 495.86 231.182 L492.457 231.182 L492.457 227.617 L494.957 227.617 Q496.716 227.617 497.688 226.784 Q498.661 225.95 499.841 222.848 L500.605 220.904 L490.119 195.395 L494.633 195.395 L502.735 215.673 L510.836 195.395 L515.35 195.395 L503.962 223.728 Z" fill="#000000" fill-rule="nonzero" fill-opacity="1" /><path clip-path="url(#clip760)" d="M522.642 217.385 L530.281 217.385 L530.281 191.02 L521.971 192.687 L521.971 188.427 L530.235 186.761 L534.91 186.761 L534.91 217.385 L542.549 217.385 L542.549 221.321 L522.642 221.321 L522.642 217.385 Z" fill="#000000" fill-rule="nonzero" fill-opacity="1" /></svg>
