<?xml version="1.0" encoding="utf-8"?>
<svg xmlns="http://www.w3.org/2000/svg" xmlns:xlink="http://www.w3.org/1999/xlink" width="600" height="400" viewBox="0 0 2400 1600">
<defs>
  <clipPath id="clip540">
    <rect x="0" y="0" width="2400" height="1600"/>
  </clipPath>
</defs>
<path clip-path="url(#clip540)" d="M0 1600 L2400 1600 L2400 0 L0 0  Z" fill="#ffffff" fill-rule="evenodd" fill-opacity="1"/>
<defs>
  <clipPath id="clip541">
    <rect x="480" y="0" width="1681" height="1600"/>
  </clipPath>
</defs>
<path clip-path="url(#clip540)" d="M230.765 1486.45 L2352.76 1486.45 L2352.76 106.192 L230.765 106.192  Z" fill="#ffffff" fill-rule="evenodd" fill-opacity="1"/>
<defs>
  <clipPath id="clip542">
    <rect x="230" y="106" width="2123" height="1381"/>
  </clipPath>
</defs>
<polyline clip-path="url(#clip542)" style="stroke:#000000; stroke-linecap:round; stroke-linejoin:round; stroke-width:2; stroke-opacity:0.1; fill:none" points="541.056,1486.45 541.056,106.192 "/>
<polyline clip-path="url(#clip542)" style="stroke:#000000; stroke-linecap:round; stroke-linejoin:round; stroke-width:2; stroke-opacity:0.1; fill:none" points="916.408,1486.45 916.408,106.192 "/>
<polyline clip-path="url(#clip542)" style="stroke:#000000; stroke-linecap:round; stroke-linejoin:round; stroke-width:2; stroke-opacity:0.1; fill:none" points="1291.76,1486.45 1291.76,106.192 "/>
<polyline clip-path="url(#clip542)" style="stroke:#000000; stroke-linecap:round; stroke-linejoin:round; stroke-width:2; stroke-opacity:0.1; fill:none" points="1667.11,1486.45 1667.11,106.192 "/>
<polyline clip-path="url(#clip542)" style="stroke:#000000; stroke-linecap:round; stroke-linejoin:round; stroke-width:2; stroke-opacity:0.1; fill:none" points="2042.46,1486.45 2042.46,106.192 "/>
<polyline clip-path="url(#clip542)" style="stroke:#000000; stroke-linecap:round; stroke-linejoin:round; stroke-width:2; stroke-opacity:0.1; fill:none" points="230.765,1448.53 2352.76,1448.53 "/>
<polyline clip-path="url(#clip542)" style="stroke:#000000; stroke-linecap:round; stroke-linejoin:round; stroke-width:2; stroke-opacity:0.1; fill:none" points="230.765,1052.69 2352.76,1052.69 "/>
<polyline clip-path="url(#clip542)" style="stroke:#000000; stroke-linecap:round; stroke-linejoin:round; stroke-width:2; stroke-opacity:0.1; fill:none" points="230.765,656.857 2352.76,656.857 "/>
<polyline clip-path="url(#clip542)" style="stroke:#000000; stroke-linecap:round; stroke-linejoin:round; stroke-width:2; stroke-opacity:0.1; fill:none" points="230.765,261.018 2352.76,261.018 "/>
<polyline clip-path="url(#clip540)" style="stroke:#000000; stroke-linecap:round; stroke-linejoin:round; stroke-width:4; stroke-opacity:1; fill:none" points="230.765,1486.45 2352.76,1486.45 "/>
<polyline clip-path="url(#clip540)" style="stroke:#000000; stroke-linecap:round; stroke-linejoin:round; stroke-width:4; stroke-opacity:1; fill:none" points="541.056,1486.45 541.056,1467.55 "/>
<polyline clip-path="url(#clip540)" style="stroke:#000000; stroke-linecap:round; stroke-linejoin:round; stroke-width:4; stroke-opacity:1; fill:none" points="916.408,1486.45 916.408,1467.55 "/>
<polyline clip-path="url(#clip540)" style="stroke:#000000; stroke-linecap:round; stroke-linejoin:round; stroke-width:4; stroke-opacity:1; fill:none" points="1291.76,1486.45 1291.76,1467.55 "/>
<polyline clip-path="url(#clip540)" style="stroke:#000000; stroke-linecap:round; stroke-linejoin:round; stroke-width:4; stroke-opacity:1; fill:none" points="1667.11,1486.45 1667.11,1467.55 "/>
<polyline clip-path="url(#clip540)" style="stroke:#000000; stroke-linecap:round; stroke-linejoin:round; stroke-width:4; stroke-opacity:1; fill:none" points="2042.46,1486.45 2042.46,1467.55 "/>
<path clip-path="url(#clip540)" d="M545.303 1530.21 Q548.66 1530.93 550.535 1533.2 Q552.433 1535.47 552.433 1538.8 Q552.433 1543.92 548.914 1546.72 Q545.396 1549.52 538.915 1549.52 Q536.739 1549.52 534.424 1549.08 Q532.132 1548.66 529.678 1547.81 L529.678 1543.29 Q531.623 1544.43 533.938 1545.01 Q536.252 1545.58 538.776 1545.58 Q543.174 1545.58 545.465 1543.85 Q547.78 1542.11 547.78 1538.8 Q547.78 1535.75 545.627 1534.03 Q543.498 1532.3 539.678 1532.3 L535.651 1532.3 L535.651 1528.45 L539.864 1528.45 Q543.313 1528.45 545.141 1527.09 Q546.97 1525.7 546.97 1523.11 Q546.97 1520.45 545.072 1519.03 Q543.197 1517.6 539.678 1517.6 Q537.757 1517.6 535.558 1518.01 Q533.359 1518.43 530.72 1519.31 L530.72 1515.14 Q533.382 1514.4 535.697 1514.03 Q538.035 1513.66 540.095 1513.66 Q545.419 1513.66 548.521 1516.09 Q551.623 1518.5 551.623 1522.62 Q551.623 1525.49 549.979 1527.48 Q548.336 1529.45 545.303 1530.21 Z" fill="#000000" fill-rule="nonzero" fill-opacity="1" /><path clip-path="url(#clip540)" d="M916.813 1529.7 Q913.665 1529.7 911.813 1531.86 Q909.984 1534.01 909.984 1537.76 Q909.984 1541.49 911.813 1543.66 Q913.665 1545.82 916.813 1545.82 Q919.961 1545.82 921.79 1543.66 Q923.642 1541.49 923.642 1537.76 Q923.642 1534.01 921.79 1531.86 Q919.961 1529.7 916.813 1529.7 M926.095 1515.05 L926.095 1519.31 Q924.336 1518.48 922.531 1518.04 Q920.748 1517.6 918.989 1517.6 Q914.359 1517.6 911.906 1520.72 Q909.475 1523.85 909.128 1530.17 Q910.494 1528.15 912.554 1527.09 Q914.614 1526 917.091 1526 Q922.299 1526 925.308 1529.17 Q928.341 1532.32 928.341 1537.76 Q928.341 1543.08 925.193 1546.3 Q922.044 1549.52 916.813 1549.52 Q910.818 1549.52 907.646 1544.94 Q904.475 1540.33 904.475 1531.6 Q904.475 1523.41 908.364 1518.55 Q912.253 1513.66 918.804 1513.66 Q920.563 1513.66 922.345 1514.01 Q924.151 1514.36 926.095 1515.05 Z" fill="#000000" fill-rule="nonzero" fill-opacity="1" /><path clip-path="url(#clip540)" d="M1282.06 1548.13 L1282.06 1543.87 Q1283.82 1544.7 1285.63 1545.14 Q1287.43 1545.58 1289.17 1545.58 Q1293.8 1545.58 1296.23 1542.48 Q1298.68 1539.36 1299.03 1533.01 Q1297.69 1535.01 1295.63 1536.07 Q1293.57 1537.13 1291.07 1537.13 Q1285.88 1537.13 1282.85 1534.01 Q1279.84 1530.86 1279.84 1525.42 Q1279.84 1520.1 1282.99 1516.88 Q1286.14 1513.66 1291.37 1513.66 Q1297.36 1513.66 1300.51 1518.27 Q1303.68 1522.85 1303.68 1531.6 Q1303.68 1539.77 1299.79 1544.66 Q1295.93 1549.52 1289.38 1549.52 Q1287.62 1549.52 1285.81 1549.17 Q1284.01 1548.82 1282.06 1548.13 M1291.37 1533.48 Q1294.51 1533.48 1296.34 1531.32 Q1298.2 1529.17 1298.2 1525.42 Q1298.2 1521.7 1296.34 1519.54 Q1294.51 1517.37 1291.37 1517.37 Q1288.22 1517.37 1286.37 1519.54 Q1284.54 1521.7 1284.54 1525.42 Q1284.54 1529.17 1286.37 1531.32 Q1288.22 1533.48 1291.37 1533.48 Z" fill="#000000" fill-rule="nonzero" fill-opacity="1" /><path clip-path="url(#clip540)" d="M1642.6 1544.91 L1650.24 1544.91 L1650.24 1518.55 L1641.93 1520.21 L1641.93 1515.95 L1650.19 1514.29 L1654.87 1514.29 L1654.87 1544.91 L1662.51 1544.91 L1662.51 1548.85 L1642.6 1548.85 L1642.6 1544.91 Z" fill="#000000" fill-rule="nonzero" fill-opacity="1" /><path clip-path="url(#clip540)" d="M1675.98 1544.91 L1692.3 1544.91 L1692.3 1548.85 L1670.35 1548.85 L1670.35 1544.91 Q1673.02 1542.16 1677.6 1537.53 Q1682.2 1532.88 1683.39 1531.53 Q1685.63 1529.01 1686.51 1527.27 Q1687.41 1525.51 1687.41 1523.82 Q1687.41 1521.07 1685.47 1519.33 Q1683.55 1517.6 1680.45 1517.6 Q1678.25 1517.6 1675.79 1518.36 Q1673.36 1519.13 1670.58 1520.68 L1670.58 1515.95 Q1673.41 1514.82 1675.86 1514.24 Q1678.32 1513.66 1680.35 1513.66 Q1685.72 1513.66 1688.92 1516.35 Q1692.11 1519.03 1692.11 1523.52 Q1692.11 1525.65 1691.3 1527.57 Q1690.52 1529.47 1688.41 1532.07 Q1687.83 1532.74 1684.73 1535.95 Q1681.63 1539.15 1675.98 1544.91 Z" fill="#000000" fill-rule="nonzero" fill-opacity="1" /><path clip-path="url(#clip540)" d="M2017.65 1544.91 L2025.29 1544.91 L2025.29 1518.55 L2016.98 1520.21 L2016.98 1515.95 L2025.24 1514.29 L2029.92 1514.29 L2029.92 1544.91 L2037.56 1544.91 L2037.56 1548.85 L2017.65 1548.85 L2017.65 1544.91 Z" fill="#000000" fill-rule="nonzero" fill-opacity="1" /><path clip-path="url(#clip540)" d="M2047.05 1514.29 L2065.4 1514.29 L2065.4 1518.22 L2051.33 1518.22 L2051.33 1526.7 Q2052.35 1526.35 2053.37 1526.19 Q2054.39 1526 2055.4 1526 Q2061.19 1526 2064.57 1529.17 Q2067.95 1532.34 2067.95 1537.76 Q2067.95 1543.34 2064.48 1546.44 Q2061.01 1549.52 2054.69 1549.52 Q2052.51 1549.52 2050.24 1549.15 Q2048 1548.78 2045.59 1548.04 L2045.59 1543.34 Q2047.67 1544.47 2049.9 1545.03 Q2052.12 1545.58 2054.59 1545.58 Q2058.6 1545.58 2060.94 1543.48 Q2063.27 1541.37 2063.27 1537.76 Q2063.27 1534.15 2060.94 1532.04 Q2058.6 1529.94 2054.59 1529.94 Q2052.72 1529.94 2050.84 1530.35 Q2048.99 1530.77 2047.05 1531.65 L2047.05 1514.29 Z" fill="#000000" fill-rule="nonzero" fill-opacity="1" /><polyline clip-path="url(#clip540)" style="stroke:#000000; stroke-linecap:round; stroke-linejoin:round; stroke-width:4; stroke-opacity:1; fill:none" points="230.765,1486.45 230.765,106.192 "/>
<polyline clip-path="url(#clip540)" style="stroke:#000000; stroke-linecap:round; stroke-linejoin:round; stroke-width:4; stroke-opacity:1; fill:none" points="230.765,1448.53 249.662,1448.53 "/>
<polyline clip-path="url(#clip540)" style="stroke:#000000; stroke-linecap:round; stroke-linejoin:round; stroke-width:4; stroke-opacity:1; fill:none" points="230.765,1052.69 249.662,1052.69 "/>
<polyline clip-path="url(#clip540)" style="stroke:#000000; stroke-linecap:round; stroke-linejoin:round; stroke-width:4; stroke-opacity:1; fill:none" points="230.765,656.857 249.662,656.857 "/>
<polyline clip-path="url(#clip540)" style="stroke:#000000; stroke-linecap:round; stroke-linejoin:round; stroke-width:4; stroke-opacity:1; fill:none" points="230.765,261.018 249.662,261.018 "/>
<path clip-path="url(#clip540)" d="M50.9921 1431.25 L73.2142 1431.25 L73.2142 1433.24 L60.668 1465.81 L55.7838 1465.81 L67.5893 1435.19 L50.9921 1435.19 L50.9921 1431.25 Z" fill="#000000" fill-rule="nonzero" fill-opacity="1" /><path clip-path="url(#clip540)" d="M86.3623 1461.88 L102.682 1461.88 L102.682 1465.81 L80.7373 1465.81 L80.7373 1461.88 Q83.3994 1459.12 87.9827 1454.49 Q92.5891 1449.84 93.7697 1448.5 Q96.015 1445.98 96.8947 1444.24 Q97.7974 1442.48 97.7974 1440.79 Q97.7974 1438.04 95.853 1436.3 Q93.9317 1434.56 90.8299 1434.56 Q88.6308 1434.56 86.1771 1435.33 Q83.7466 1436.09 80.9688 1437.64 L80.9688 1432.92 Q83.7929 1431.79 86.2466 1431.21 Q88.7003 1430.63 90.7373 1430.63 Q96.1076 1430.63 99.3021 1433.31 Q102.496 1436 102.496 1440.49 Q102.496 1442.62 101.686 1444.54 Q100.899 1446.44 98.7928 1449.03 Q98.2141 1449.7 95.1123 1452.92 Q92.0104 1456.11 86.3623 1461.88 Z" fill="#000000" fill-rule="nonzero" fill-opacity="1" /><path clip-path="url(#clip540)" d="M122.496 1434.33 Q118.885 1434.33 117.057 1437.9 Q115.251 1441.44 115.251 1448.57 Q115.251 1455.67 117.057 1459.24 Q118.885 1462.78 122.496 1462.78 Q126.131 1462.78 127.936 1459.24 Q129.765 1455.67 129.765 1448.57 Q129.765 1441.44 127.936 1437.9 Q126.131 1434.33 122.496 1434.33 M122.496 1430.63 Q128.307 1430.63 131.362 1435.23 Q134.441 1439.82 134.441 1448.57 Q134.441 1457.29 131.362 1461.9 Q128.307 1466.48 122.496 1466.48 Q116.686 1466.48 113.608 1461.9 Q110.552 1457.29 110.552 1448.57 Q110.552 1439.82 113.608 1435.23 Q116.686 1430.63 122.496 1430.63 Z" fill="#000000" fill-rule="nonzero" fill-opacity="1" /><path clip-path="url(#clip540)" d="M152.658 1434.33 Q149.047 1434.33 147.218 1437.9 Q145.413 1441.44 145.413 1448.57 Q145.413 1455.67 147.218 1459.24 Q149.047 1462.78 152.658 1462.78 Q156.292 1462.78 158.098 1459.24 Q159.927 1455.67 159.927 1448.57 Q159.927 1441.44 158.098 1437.9 Q156.292 1434.33 152.658 1434.33 M152.658 1430.63 Q158.468 1430.63 161.524 1435.23 Q164.603 1439.82 164.603 1448.57 Q164.603 1457.29 161.524 1461.9 Q158.468 1466.48 152.658 1466.48 Q146.848 1466.48 143.769 1461.9 Q140.714 1457.29 140.714 1448.57 Q140.714 1439.82 143.769 1435.23 Q146.848 1430.63 152.658 1430.63 Z" fill="#000000" fill-rule="nonzero" fill-opacity="1" /><path clip-path="url(#clip540)" d="M182.82 1434.33 Q179.209 1434.33 177.38 1437.9 Q175.575 1441.44 175.575 1448.57 Q175.575 1455.67 177.38 1459.24 Q179.209 1462.78 182.82 1462.78 Q186.454 1462.78 188.26 1459.24 Q190.089 1455.67 190.089 1448.57 Q190.089 1441.44 188.26 1437.9 Q186.454 1434.33 182.82 1434.33 M182.82 1430.63 Q188.63 1430.63 191.686 1435.23 Q194.765 1439.82 194.765 1448.57 Q194.765 1457.29 191.686 1461.9 Q188.63 1466.48 182.82 1466.48 Q177.01 1466.48 173.931 1461.9 Q170.876 1457.29 170.876 1448.57 Q170.876 1439.82 173.931 1435.23 Q177.01 1430.63 182.82 1430.63 Z" fill="#000000" fill-rule="nonzero" fill-opacity="1" /><path clip-path="url(#clip540)" d="M50.9921 1035.41 L73.2142 1035.41 L73.2142 1037.41 L60.668 1069.97 L55.7838 1069.97 L67.5893 1039.35 L50.9921 1039.35 L50.9921 1035.41 Z" fill="#000000" fill-rule="nonzero" fill-opacity="1" /><path clip-path="url(#clip540)" d="M96.5011 1051.34 Q99.8576 1052.06 101.733 1054.33 Q103.631 1056.6 103.631 1059.93 Q103.631 1065.04 100.112 1067.85 Q96.5937 1070.65 90.1123 1070.65 Q87.9364 1070.65 85.6216 1070.21 Q83.3299 1069.79 80.8762 1068.93 L80.8762 1064.42 Q82.8207 1065.55 85.1355 1066.13 Q87.4503 1066.71 89.9734 1066.71 Q94.3715 1066.71 96.6632 1064.98 Q98.978 1063.24 98.978 1059.93 Q98.978 1056.87 96.8252 1055.16 Q94.6956 1053.42 90.8762 1053.42 L86.8484 1053.42 L86.8484 1049.58 L91.0614 1049.58 Q94.5104 1049.58 96.3391 1048.22 Q98.1678 1046.83 98.1678 1044.23 Q98.1678 1041.57 96.2697 1040.16 Q94.3947 1038.73 90.8762 1038.73 Q88.9549 1038.73 86.7558 1039.14 Q84.5568 1039.56 81.9179 1040.44 L81.9179 1036.27 Q84.5799 1035.53 86.8947 1035.16 Q89.2327 1034.79 91.2928 1034.79 Q96.6169 1034.79 99.7187 1037.22 Q102.821 1039.63 102.821 1043.75 Q102.821 1046.62 101.177 1048.61 Q99.5335 1050.58 96.5011 1051.34 Z" fill="#000000" fill-rule="nonzero" fill-opacity="1" /><path clip-path="url(#clip540)" d="M122.496 1038.49 Q118.885 1038.49 117.057 1042.06 Q115.251 1045.6 115.251 1052.73 Q115.251 1059.84 117.057 1063.4 Q118.885 1066.94 122.496 1066.94 Q126.131 1066.94 127.936 1063.4 Q129.765 1059.84 129.765 1052.73 Q129.765 1045.6 127.936 1042.06 Q126.131 1038.49 122.496 1038.49 M122.496 1034.79 Q128.307 1034.79 131.362 1039.4 Q134.441 1043.98 134.441 1052.73 Q134.441 1061.46 131.362 1066.06 Q128.307 1070.65 122.496 1070.65 Q116.686 1070.65 113.608 1066.06 Q110.552 1061.46 110.552 1052.73 Q110.552 1043.98 113.608 1039.4 Q116.686 1034.79 122.496 1034.79 Z" fill="#000000" fill-rule="nonzero" fill-opacity="1" /><path clip-path="url(#clip540)" d="M152.658 1038.49 Q149.047 1038.49 147.218 1042.06 Q145.413 1045.6 145.413 1052.73 Q145.413 1059.84 147.218 1063.4 Q149.047 1066.94 152.658 1066.94 Q156.292 1066.94 158.098 1063.4 Q159.927 1059.84 159.927 1052.73 Q159.927 1045.6 158.098 1042.06 Q156.292 1038.49 152.658 1038.49 M152.658 1034.79 Q158.468 1034.79 161.524 1039.4 Q164.603 1043.98 164.603 1052.73 Q164.603 1061.46 161.524 1066.06 Q158.468 1070.65 152.658 1070.65 Q146.848 1070.65 143.769 1066.06 Q140.714 1061.46 140.714 1052.73 Q140.714 1043.98 143.769 1039.4 Q146.848 1034.79 152.658 1034.79 Z" fill="#000000" fill-rule="nonzero" fill-opacity="1" /><path clip-path="url(#clip540)" d="M182.82 1038.49 Q179.209 1038.49 177.38 1042.06 Q175.575 1045.6 175.575 1052.73 Q175.575 1059.84 177.38 1063.4 Q179.209 1066.94 182.82 1066.94 Q186.454 1066.94 188.26 1063.4 Q190.089 1059.84 190.089 1052.73 Q190.089 1045.6 188.26 1042.06 Q186.454 1038.49 182.82 1038.49 M182.82 1034.79 Q188.63 1034.79 191.686 1039.4 Q194.765 1043.98 194.765 1052.73 Q194.765 1061.46 191.686 1066.06 Q188.63 1070.65 182.82 1070.65 Q177.01 1070.65 173.931 1066.06 Q170.876 1061.46 170.876 1052.73 Q170.876 1043.98 173.931 1039.4 Q177.01 1034.79 182.82 1034.79 Z" fill="#000000" fill-rule="nonzero" fill-opacity="1" /><path clip-path="url(#clip540)" d="M50.9921 639.577 L73.2142 639.577 L73.2142 641.567 L60.668 674.137 L55.7838 674.137 L67.5893 643.512 L50.9921 643.512 L50.9921 639.577 Z" fill="#000000" fill-rule="nonzero" fill-opacity="1" /><path clip-path="url(#clip540)" d="M95.1817 643.651 L83.3762 662.1 L95.1817 662.1 L95.1817 643.651 M93.9549 639.577 L99.8345 639.577 L99.8345 662.1 L104.765 662.1 L104.765 665.988 L99.8345 665.988 L99.8345 674.137 L95.1817 674.137 L95.1817 665.988 L79.5799 665.988 L79.5799 661.475 L93.9549 639.577 Z" fill="#000000" fill-rule="nonzero" fill-opacity="1" /><path clip-path="url(#clip540)" d="M122.496 642.655 Q118.885 642.655 117.057 646.22 Q115.251 649.762 115.251 656.891 Q115.251 663.998 117.057 667.562 Q118.885 671.104 122.496 671.104 Q126.131 671.104 127.936 667.562 Q129.765 663.998 129.765 656.891 Q129.765 649.762 127.936 646.22 Q126.131 642.655 122.496 642.655 M122.496 638.952 Q128.307 638.952 131.362 643.558 Q134.441 648.141 134.441 656.891 Q134.441 665.618 131.362 670.225 Q128.307 674.808 122.496 674.808 Q116.686 674.808 113.608 670.225 Q110.552 665.618 110.552 656.891 Q110.552 648.141 113.608 643.558 Q116.686 638.952 122.496 638.952 Z" fill="#000000" fill-rule="nonzero" fill-opacity="1" /><path clip-path="url(#clip540)" d="M152.658 642.655 Q149.047 642.655 147.218 646.22 Q145.413 649.762 145.413 656.891 Q145.413 663.998 147.218 667.562 Q149.047 671.104 152.658 671.104 Q156.292 671.104 158.098 667.562 Q159.927 663.998 159.927 656.891 Q159.927 649.762 158.098 646.22 Q156.292 642.655 152.658 642.655 M152.658 638.952 Q158.468 638.952 161.524 643.558 Q164.603 648.141 164.603 656.891 Q164.603 665.618 161.524 670.225 Q158.468 674.808 152.658 674.808 Q146.848 674.808 143.769 670.225 Q140.714 665.618 140.714 656.891 Q140.714 648.141 143.769 643.558 Q146.848 638.952 152.658 638.952 Z" fill="#000000" fill-rule="nonzero" fill-opacity="1" /><path clip-path="url(#clip540)" d="M182.82 642.655 Q179.209 642.655 177.38 646.22 Q175.575 649.762 175.575 656.891 Q175.575 663.998 177.38 667.562 Q179.209 671.104 182.82 671.104 Q186.454 671.104 188.26 667.562 Q190.089 663.998 190.089 656.891 Q190.089 649.762 188.26 646.22 Q186.454 642.655 182.82 642.655 M182.82 638.952 Q188.63 638.952 191.686 643.558 Q194.765 648.141 194.765 656.891 Q194.765 665.618 191.686 670.225 Q188.63 674.808 182.82 674.808 Q177.01 674.808 173.931 670.225 Q170.876 665.618 170.876 656.891 Q170.876 648.141 173.931 643.558 Q177.01 638.952 182.82 638.952 Z" fill="#000000" fill-rule="nonzero" fill-opacity="1" /><path clip-path="url(#clip540)" d="M50.9921 243.738 L73.2142 243.738 L73.2142 245.729 L60.668 278.298 L55.7838 278.298 L67.5893 247.673 L50.9921 247.673 L50.9921 243.738 Z" fill="#000000" fill-rule="nonzero" fill-opacity="1" /><path clip-path="url(#clip540)" d="M82.3808 243.738 L100.737 243.738 L100.737 247.673 L86.6632 247.673 L86.6632 256.145 Q87.6817 255.798 88.7003 255.636 Q89.7188 255.451 90.7373 255.451 Q96.5243 255.451 99.9039 258.622 Q103.284 261.794 103.284 267.21 Q103.284 272.789 99.8113 275.891 Q96.3391 278.969 90.0197 278.969 Q87.8438 278.969 85.5753 278.599 Q83.3299 278.229 80.9225 277.488 L80.9225 272.789 Q83.0058 273.923 85.2281 274.479 Q87.4503 275.034 89.9271 275.034 Q93.9317 275.034 96.2697 272.928 Q98.6076 270.821 98.6076 267.21 Q98.6076 263.599 96.2697 261.493 Q93.9317 259.386 89.9271 259.386 Q88.0521 259.386 86.1771 259.803 Q84.3253 260.219 82.3808 261.099 L82.3808 243.738 Z" fill="#000000" fill-rule="nonzero" fill-opacity="1" /><path clip-path="url(#clip540)" d="M122.496 246.817 Q118.885 246.817 117.057 250.382 Q115.251 253.923 115.251 261.053 Q115.251 268.159 117.057 271.724 Q118.885 275.266 122.496 275.266 Q126.131 275.266 127.936 271.724 Q129.765 268.159 129.765 261.053 Q129.765 253.923 127.936 250.382 Q126.131 246.817 122.496 246.817 M122.496 243.113 Q128.307 243.113 131.362 247.72 Q134.441 252.303 134.441 261.053 Q134.441 269.78 131.362 274.386 Q128.307 278.969 122.496 278.969 Q116.686 278.969 113.608 274.386 Q110.552 269.78 110.552 261.053 Q110.552 252.303 113.608 247.72 Q116.686 243.113 122.496 243.113 Z" fill="#000000" fill-rule="nonzero" fill-opacity="1" /><path clip-path="url(#clip540)" d="M152.658 246.817 Q149.047 246.817 147.218 250.382 Q145.413 253.923 145.413 261.053 Q145.413 268.159 147.218 271.724 Q149.047 275.266 152.658 275.266 Q156.292 275.266 158.098 271.724 Q159.927 268.159 159.927 261.053 Q159.927 253.923 158.098 250.382 Q156.292 246.817 152.658 246.817 M152.658 243.113 Q158.468 243.113 161.524 247.72 Q164.603 252.303 164.603 261.053 Q164.603 269.78 161.524 274.386 Q158.468 278.969 152.658 278.969 Q146.848 278.969 143.769 274.386 Q140.714 269.78 140.714 261.053 Q140.714 252.303 143.769 247.72 Q146.848 243.113 152.658 243.113 Z" fill="#000000" fill-rule="nonzero" fill-opacity="1" /><path clip-path="url(#clip540)" d="M182.82 246.817 Q179.209 246.817 177.38 250.382 Q175.575 253.923 175.575 261.053 Q175.575 268.159 177.38 271.724 Q179.209 275.266 182.82 275.266 Q186.454 275.266 188.26 271.724 Q190.089 268.159 190.089 261.053 Q190.089 253.923 188.26 250.382 Q186.454 246.817 182.82 246.817 M182.82 243.113 Q188.63 243.113 191.686 247.72 Q194.765 252.303 194.765 261.053 Q194.765 269.78 191.686 274.386 Q188.63 278.969 182.82 278.969 Q177.01 278.969 173.931 274.386 Q170.876 269.78 170.876 261.053 Q170.876 252.303 173.931 247.72 Q177.01 243.113 182.82 243.113 Z" fill="#000000" fill-rule="nonzero" fill-opacity="1" /><path clip-path="url(#clip540)" d="M1262.23 35.2602 Q1262.23 29.4732 1259.83 26.2904 Q1257.46 23.1075 1253.15 23.1075 Q1248.86 23.1075 1246.46 26.2904 Q1244.09 29.4732 1244.09 35.2602 Q1244.09 41.0183 1246.46 44.2012 Q1248.86 47.384 1253.15 47.384 Q1257.46 47.384 1259.83 44.2012 Q1262.23 41.0183 1262.23 35.2602 M1267.56 47.818 Q1267.56 56.0934 1263.88 60.1154 Q1260.21 64.1663 1252.63 64.1663 Q1249.82 64.1663 1247.33 63.7323 Q1244.84 63.3272 1242.5 62.4592 L1242.5 57.2798 Q1244.84 58.5529 1247.13 59.1606 Q1249.41 59.7682 1251.79 59.7682 Q1257.02 59.7682 1259.63 57.0194 Q1262.23 54.2995 1262.23 48.7729 L1262.23 46.1398 Q1260.58 49.0044 1258.01 50.4222 Q1255.43 51.84 1251.84 51.84 Q1245.88 51.84 1242.24 47.2972 Q1238.59 42.7544 1238.59 35.2602 Q1238.59 27.7371 1242.24 23.1943 Q1245.88 18.6515 1251.84 18.6515 Q1255.43 18.6515 1258.01 20.0693 Q1260.58 21.4872 1262.23 24.3517 L1262.23 19.4328 L1267.56 19.4328 L1267.56 47.818 Z" fill="#000000" fill-rule="nonzero" fill-opacity="1" /><path clip-path="url(#clip540)" d="M1299.85 24.3517 L1299.85 6.81709 L1305.17 6.81709 L1305.17 51.84 L1299.85 51.84 L1299.85 46.9789 Q1298.17 49.8724 1295.59 51.2902 Q1293.05 52.6791 1289.46 52.6791 Q1283.59 52.6791 1279.88 47.9916 Q1276.21 43.3042 1276.21 35.6653 Q1276.21 28.0265 1279.88 23.339 Q1283.59 18.6515 1289.46 18.6515 Q1293.05 18.6515 1295.59 20.0693 Q1298.17 21.4582 1299.85 24.3517 M1281.71 35.6653 Q1281.71 41.5391 1284.11 44.8956 Q1286.54 48.2231 1290.76 48.2231 Q1294.99 48.2231 1297.42 44.8956 Q1299.85 41.5391 1299.85 35.6653 Q1299.85 29.7915 1297.42 26.464 Q1294.99 23.1075 1290.76 23.1075 Q1286.54 23.1075 1284.11 26.464 Q1281.71 29.7915 1281.71 35.6653 Z" fill="#000000" fill-rule="nonzero" fill-opacity="1" /><path clip-path="url(#clip540)" d="M1321.29 46.9789 L1321.29 64.1663 L1315.94 64.1663 L1315.94 19.4328 L1321.29 19.4328 L1321.29 24.3517 Q1322.97 21.4582 1325.51 20.0693 Q1328.09 18.6515 1331.65 18.6515 Q1337.55 18.6515 1341.22 23.339 Q1344.93 28.0265 1344.93 35.6653 Q1344.93 43.3042 1341.22 47.9916 Q1337.55 52.6791 1331.65 52.6791 Q1328.09 52.6791 1325.51 51.2902 Q1322.97 49.8724 1321.29 46.9789 M1339.4 35.6653 Q1339.4 29.7915 1336.97 26.464 Q1334.57 23.1075 1330.35 23.1075 Q1326.12 23.1075 1323.69 26.464 Q1321.29 29.7915 1321.29 35.6653 Q1321.29 41.5391 1323.69 44.8956 Q1326.12 48.2231 1330.35 48.2231 Q1334.57 48.2231 1336.97 44.8956 Q1339.4 41.5391 1339.4 35.6653 Z" fill="#000000" fill-rule="nonzero" fill-opacity="1" /><polyline clip-path="url(#clip542)" style="stroke:#009af9; stroke-linecap:round; stroke-linejoin:round; stroke-width:4; stroke-opacity:1; fill:none" points="290.821,1281.49 415.938,1447.38 541.056,1099.09 666.173,440.063 791.291,551.203 916.408,350.718 1041.53,400.126 1166.64,302.284 1291.76,406.026 1416.88,411.105 1542,441.357 1667.11,592.517 1792.23,268.092 1917.35,497.144 2042.46,445.434 2167.58,366.599 2292.7,145.256 "/>
<path clip-path="url(#clip540)" d="M2017.39 1440.44 L2282.02 1440.44 L2282.02 1336.76 L2017.39 1336.76  Z" fill="#ffffff" fill-rule="evenodd" fill-opacity="1"/>
<polyline clip-path="url(#clip540)" style="stroke:#000000; stroke-linecap:round; stroke-linejoin:round; stroke-width:4; stroke-opacity:1; fill:none" points="2017.39,1440.44 2282.02,1440.44 2282.02,1336.76 2017.39,1336.76 2017.39,1440.44 "/>
<polyline clip-path="url(#clip540)" style="stroke:#009af9; stroke-linecap:round; stroke-linejoin:round; stroke-width:4; stroke-opacity:1; fill:none" points="2040.97,1388.6 2182.44,1388.6 "/>
<path clip-path="url(#clip540)" d="M2219.86 1408.29 Q2218.05 1412.92 2216.34 1414.33 Q2214.63 1415.74 2211.76 1415.74 L2208.35 1415.74 L2208.35 1412.18 L2210.85 1412.18 Q2212.61 1412.18 2213.58 1411.34 Q2214.56 1410.51 2215.74 1407.41 L2216.5 1405.46 L2206.01 1379.95 L2210.53 1379.95 L2218.63 1400.23 L2226.73 1379.95 L2231.25 1379.95 L2219.86 1408.29 Z" fill="#000000" fill-rule="nonzero" fill-opacity="1" /><path clip-path="url(#clip540)" d="M2238.54 1401.94 L2246.18 1401.94 L2246.18 1375.58 L2237.87 1377.25 L2237.87 1372.99 L2246.13 1371.32 L2250.81 1371.32 L2250.81 1401.94 L2258.45 1401.94 L2258.45 1405.88 L2238.54 1405.88 L2238.54 1401.94 Z" fill="#000000" fill-rule="nonzero" fill-opacity="1" /></svg>
