<?xml version="1.0" encoding="utf-8"?>
<svg xmlns="http://www.w3.org/2000/svg" xmlns:xlink="http://www.w3.org/1999/xlink" width="600" height="400" viewBox="0 0 2400 1600">
<defs>
  <clipPath id="clip460">
    <rect x="0" y="0" width="2400" height="1600"/>
  </clipPath>
</defs>
<path clip-path="url(#clip460)" d="M0 1600 L2400 1600 L2400 0 L0 0  Z" fill="#ffffff" fill-rule="evenodd" fill-opacity="1"/>
<defs>
  <clipPath id="clip461">
    <rect x="480" y="0" width="1681" height="1600"/>
  </clipPath>
</defs>
<path clip-path="url(#clip460)" d="M230.765 1486.45 L2352.76 1486.45 L2352.76 106.192 L230.765 106.192  Z" fill="#ffffff" fill-rule="evenodd" fill-opacity="1"/>
<defs>
  <clipPath id="clip462">
    <rect x="230" y="106" width="2123" height="1381"/>
  </clipPath>
</defs>
<polyline clip-path="url(#clip462)" style="stroke:#000000; stroke-linecap:round; stroke-linejoin:round; stroke-width:2; stroke-opacity:0.1; fill:none" points="541.056,1486.45 541.056,106.192 "/>
<polyline clip-path="url(#clip462)" style="stroke:#000000; stroke-linecap:round; stroke-linejoin:round; stroke-width:2; stroke-opacity:0.1; fill:none" points="916.408,1486.45 916.408,106.192 "/>
<polyline clip-path="url(#clip462)" style="stroke:#000000; stroke-linecap:round; stroke-linejoin:round; stroke-width:2; stroke-opacity:0.1; fill:none" points="1291.76,1486.45 1291.76,106.192 "/>
<polyline clip-path="url(#clip462)" style="stroke:#000000; stroke-linecap:round; stroke-linejoin:round; stroke-width:2; stroke-opacity:0.1; fill:none" points="1667.11,1486.45 1667.11,106.192 "/>
<polyline clip-path="url(#clip462)" style="stroke:#000000; stroke-linecap:round; stroke-linejoin:round; stroke-width:2; stroke-opacity:0.1; fill:none" points="2042.46,1486.45 2042.46,106.192 "/>
<polyline clip-path="url(#clip462)" style="stroke:#000000; stroke-linecap:round; stroke-linejoin:round; stroke-width:2; stroke-opacity:0.1; fill:none" points="230.765,1381.39 2352.76,1381.39 "/>
<polyline clip-path="url(#clip462)" style="stroke:#000000; stroke-linecap:round; stroke-linejoin:round; stroke-width:2; stroke-opacity:0.1; fill:none" points="230.765,1077.56 2352.76,1077.56 "/>
<polyline clip-path="url(#clip462)" style="stroke:#000000; stroke-linecap:round; stroke-linejoin:round; stroke-width:2; stroke-opacity:0.1; fill:none" points="230.765,773.726 2352.76,773.726 "/>
<polyline clip-path="url(#clip462)" style="stroke:#000000; stroke-linecap:round; stroke-linejoin:round; stroke-width:2; stroke-opacity:0.1; fill:none" points="230.765,469.894 2352.76,469.894 "/>
<polyline clip-path="url(#clip462)" style="stroke:#000000; stroke-linecap:round; stroke-linejoin:round; stroke-width:2; stroke-opacity:0.1; fill:none" points="230.765,166.061 2352.76,166.061 "/>
<polyline clip-path="url(#clip460)" style="stroke:#000000; stroke-linecap:round; stroke-linejoin:round; stroke-width:4; stroke-opacity:1; fill:none" points="230.765,1486.45 2352.76,1486.45 "/>
<polyline clip-path="url(#clip460)" style="stroke:#000000; stroke-linecap:round; stroke-linejoin:round; stroke-width:4; stroke-opacity:1; fill:none" points="541.056,1486.45 541.056,1467.55 "/>
<polyline clip-path="url(#clip460)" style="stroke:#000000; stroke-linecap:round; stroke-linejoin:round; stroke-width:4; stroke-opacity:1; fill:none" points="916.408,1486.45 916.408,1467.55 "/>
<polyline clip-path="url(#clip460)" style="stroke:#000000; stroke-linecap:round; stroke-linejoin:round; stroke-width:4; stroke-opacity:1; fill:none" points="1291.76,1486.45 1291.76,1467.55 "/>
<polyline clip-path="url(#clip460)" style="stroke:#000000; stroke-linecap:round; stroke-linejoin:round; stroke-width:4; stroke-opacity:1; fill:none" points="1667.11,1486.45 1667.11,1467.55 "/>
<polyline clip-path="url(#clip460)" style="stroke:#000000; stroke-linecap:round; stroke-linejoin:round; stroke-width:4; stroke-opacity:1; fill:none" points="2042.46,1486.45 2042.46,1467.55 "/>
<path clip-path="url(#clip460)" d="M545.303 1530.21 Q548.66 1530.93 550.535 1533.2 Q552.433 1535.47 552.433 1538.8 Q552.433 1543.92 548.914 1546.72 Q545.396 1549.52 538.915 1549.52 Q536.739 1549.52 534.424 1549.08 Q532.132 1548.66 529.678 1547.81 L529.678 1543.29 Q531.623 1544.43 533.938 1545.01 Q536.252 1545.58 538.776 1545.58 Q543.174 1545.58 545.465 1543.85 Q547.78 1542.11 547.78 1538.8 Q547.78 1535.75 545.627 1534.03 Q543.498 1532.3 539.678 1532.3 L535.651 1532.3 L535.651 1528.45 L539.864 1528.45 Q543.313 1528.45 545.141 1527.09 Q546.97 1525.7 546.97 1523.11 Q546.97 1520.45 545.072 1519.03 Q543.197 1517.6 539.678 1517.6 Q537.757 1517.6 535.558 1518.01 Q533.359 1518.43 530.72 1519.31 L530.72 1515.14 Q533.382 1514.4 535.697 1514.03 Q538.035 1513.66 540.095 1513.66 Q545.419 1513.66 548.521 1516.09 Q551.623 1518.5 551.623 1522.62 Q551.623 1525.49 549.979 1527.48 Q548.336 1529.45 545.303 1530.21 Z" fill="#000000" fill-rule="nonzero" fill-opacity="1" /><path clip-path="url(#clip460)" d="M916.813 1529.7 Q913.665 1529.7 911.813 1531.86 Q909.984 1534.01 909.984 1537.76 Q909.984 1541.49 911.813 1543.66 Q913.665 1545.82 916.813 1545.82 Q919.961 1545.82 921.79 1543.66 Q923.642 1541.49 923.642 1537.76 Q923.642 1534.01 921.79 1531.86 Q919.961 1529.7 916.813 1529.7 M926.095 1515.05 L926.095 1519.31 Q924.336 1518.48 922.531 1518.04 Q920.748 1517.6 918.989 1517.6 Q914.359 1517.6 911.906 1520.72 Q909.475 1523.85 909.128 1530.17 Q910.494 1528.15 912.554 1527.09 Q914.614 1526 917.091 1526 Q922.299 1526 925.308 1529.17 Q928.341 1532.32 928.341 1537.76 Q928.341 1543.08 925.193 1546.3 Q922.044 1549.52 916.813 1549.52 Q910.818 1549.52 907.646 1544.94 Q904.475 1540.33 904.475 1531.6 Q904.475 1523.41 908.364 1518.55 Q912.253 1513.66 918.804 1513.66 Q920.563 1513.66 922.345 1514.01 Q924.151 1514.36 926.095 1515.05 Z" fill="#000000" fill-rule="nonzero" fill-opacity="1" /><path clip-path="url(#clip460)" d="M1282.06 1548.13 L1282.06 1543.87 Q1283.82 1544.7 1285.63 1545.14 Q1287.43 1545.58 1289.17 1545.58 Q1293.8 1545.58 1296.23 1542.48 Q1298.68 1539.36 1299.03 1533.01 Q1297.69 1535.01 1295.63 1536.07 Q1293.57 1537.13 1291.07 1537.13 Q1285.88 1537.13 1282.85 1534.01 Q1279.84 1530.86 1279.84 1525.42 Q1279.84 1520.1 1282.99 1516.88 Q1286.14 1513.66 1291.37 1513.66 Q1297.36 1513.66 1300.51 1518.27 Q1303.68 1522.85 1303.68 1531.6 Q1303.68 1539.77 1299.79 1544.66 Q1295.93 1549.52 1289.38 1549.52 Q1287.62 1549.52 1285.81 1549.17 Q1284.01 1548.82 1282.06 1548.13 M1291.37 1533.48 Q1294.51 1533.48 1296.34 1531.32 Q1298.2 1529.17 1298.2 1525.42 Q1298.2 1521.7 1296.34 1519.54 Q1294.51 1517.37 1291.37 1517.37 Q1288.22 1517.37 1286.37 1519.54 Q1284.54 1521.7 1284.54 1525.42 Q1284.54 1529.17 1286.37 1531.32 Q1288.22 1533.48 1291.37 1533.48 Z" fill="#000000" fill-rule="nonzero" fill-opacity="1" /><path clip-path="url(#clip460)" d="M1642.6 1544.91 L1650.24 1544.91 L1650.24 1518.55 L1641.93 1520.21 L1641.93 1515.95 L1650.19 1514.29 L1654.87 1514.29 L1654.87 1544.91 L1662.51 1544.91 L1662.51 1548.85 L1642.6 1548.85 L1642.6 1544.91 Z" fill="#000000" fill-rule="nonzero" fill-opacity="1" /><path clip-path="url(#clip460)" d="M1675.98 1544.91 L1692.3 1544.91 L1692.3 1548.85 L1670.35 1548.85 L1670.35 1544.91 Q1673.02 1542.16 1677.6 1537.53 Q1682.2 1532.88 1683.39 1531.53 Q1685.63 1529.01 1686.51 1527.27 Q1687.41 1525.51 1687.41 1523.82 Q1687.41 1521.07 1685.47 1519.33 Q1683.55 1517.6 1680.45 1517.6 Q1678.25 1517.6 1675.79 1518.36 Q1673.36 1519.13 1670.58 1520.68 L1670.58 1515.95 Q1673.41 1514.82 1675.86 1514.24 Q1678.32 1513.66 1680.35 1513.66 Q1685.72 1513.66 1688.92 1516.35 Q1692.11 1519.03 1692.11 1523.52 Q1692.11 1525.65 1691.3 1527.57 Q1690.52 1529.47 1688.41 1532.07 Q1687.83 1532.74 1684.73 1535.95 Q1681.63 1539.15 1675.98 1544.91 Z" fill="#000000" fill-rule="nonzero" fill-opacity="1" /><path clip-path="url(#clip460)" d="M2017.65 1544.91 L2025.29 1544.91 L2025.29 1518.55 L2016.98 1520.21 L2016.98 1515.95 L2025.24 1514.29 L2029.92 1514.29 L2029.92 1544.91 L2037.56 1544.91 L2037.56 1548.85 L2017.65 1548.85 L2017.65 1544.91 Z" fill="#000000" fill-rule="nonzero" fill-opacity="1" /><path clip-path="url(#clip460)" d="M2047.05 1514.29 L2065.4 1514.29 L2065.4 1518.22 L2051.33 1518.22 L2051.33 1526.7 Q2052.35 1526.35 2053.37 1526.19 Q2054.39 1526 2055.4 1526 Q2061.19 1526 2064.57 1529.17 Q2067.95 1532.34 2067.95 1537.76 Q2067.95 1543.34 2064.48 1546.44 Q2061.01 1549.52 2054.69 1549.52 Q2052.51 1549.52 2050.24 1549.15 Q2048 1548.78 2045.59 1548.04 L2045.59 1543.34 Q2047.67 1544.47 2049.9 1545.03 Q2052.12 1545.58 2054.59 1545.58 Q2058.6 1545.58 2060.94 1543.48 Q2063.27 1541.37 2063.27 1537.76 Q2063.27 1534.15 2060.94 1532.04 Q2058.6 1529.94 2054.59 1529.94 Q2052.72 1529.94 2050.84 1530.35 Q2048.99 1530.77 2047.05 1531.65 L2047.05 1514.29 Z" fill="#000000" fill-rule="nonzero" fill-opacity="1" /><polyline clip-path="url(#clip460)" style="stroke:#000000; stroke-linecap:round; stroke-linejoin:round; stroke-width:4; stroke-opacity:1; fill:none" points="230.765,1486.45 230.765,106.192 "/>
<polyline clip-path="url(#clip460)" style="stroke:#000000; stroke-linecap:round; stroke-linejoin:round; stroke-width:4; stroke-opacity:1; fill:none" points="230.765,1381.39 249.662,1381.39 "/>
<polyline clip-path="url(#clip460)" style="stroke:#000000; stroke-linecap:round; stroke-linejoin:round; stroke-width:4; stroke-opacity:1; fill:none" points="230.765,1077.56 249.662,1077.56 "/>
<polyline clip-path="url(#clip460)" style="stroke:#000000; stroke-linecap:round; stroke-linejoin:round; stroke-width:4; stroke-opacity:1; fill:none" points="230.765,773.726 249.662,773.726 "/>
<polyline clip-path="url(#clip460)" style="stroke:#000000; stroke-linecap:round; stroke-linejoin:round; stroke-width:4; stroke-opacity:1; fill:none" points="230.765,469.894 249.662,469.894 "/>
<polyline clip-path="url(#clip460)" style="stroke:#000000; stroke-linecap:round; stroke-linejoin:round; stroke-width:4; stroke-opacity:1; fill:none" points="230.765,166.061 249.662,166.061 "/>
<path clip-path="url(#clip460)" d="M50.9921 1364.11 L73.2142 1364.11 L73.2142 1366.1 L60.668 1398.67 L55.7838 1398.67 L67.5893 1368.05 L50.9921 1368.05 L50.9921 1364.11 Z" fill="#000000" fill-rule="nonzero" fill-opacity="1" /><path clip-path="url(#clip460)" d="M86.3623 1394.74 L102.682 1394.74 L102.682 1398.67 L80.7373 1398.67 L80.7373 1394.74 Q83.3994 1391.98 87.9827 1387.35 Q92.5891 1382.7 93.7697 1381.36 Q96.015 1378.83 96.8947 1377.1 Q97.7974 1375.34 97.7974 1373.65 Q97.7974 1370.89 95.853 1369.16 Q93.9317 1367.42 90.8299 1367.42 Q88.6308 1367.42 86.1771 1368.18 Q83.7466 1368.95 80.9688 1370.5 L80.9688 1365.78 Q83.7929 1364.64 86.2466 1364.06 Q88.7003 1363.49 90.7373 1363.49 Q96.1076 1363.49 99.3021 1366.17 Q102.496 1368.86 102.496 1373.35 Q102.496 1375.48 101.686 1377.4 Q100.899 1379.3 98.7928 1381.89 Q98.2141 1382.56 95.1123 1385.78 Q92.0104 1388.97 86.3623 1394.74 Z" fill="#000000" fill-rule="nonzero" fill-opacity="1" /><path clip-path="url(#clip460)" d="M112.543 1364.11 L130.899 1364.11 L130.899 1368.05 L116.825 1368.05 L116.825 1376.52 Q117.844 1376.17 118.862 1376.01 Q119.881 1375.82 120.899 1375.82 Q126.686 1375.82 130.066 1378.99 Q133.445 1382.17 133.445 1387.58 Q133.445 1393.16 129.973 1396.26 Q126.501 1399.34 120.182 1399.34 Q118.006 1399.34 115.737 1398.97 Q113.492 1398.6 111.084 1397.86 L111.084 1393.16 Q113.168 1394.3 115.39 1394.85 Q117.612 1395.41 120.089 1395.41 Q124.094 1395.41 126.432 1393.3 Q128.769 1391.19 128.769 1387.58 Q128.769 1383.97 126.432 1381.87 Q124.094 1379.76 120.089 1379.76 Q118.214 1379.76 116.339 1380.18 Q114.487 1380.59 112.543 1381.47 L112.543 1364.11 Z" fill="#000000" fill-rule="nonzero" fill-opacity="1" /><path clip-path="url(#clip460)" d="M152.658 1367.19 Q149.047 1367.19 147.218 1370.75 Q145.413 1374.3 145.413 1381.43 Q145.413 1388.53 147.218 1392.1 Q149.047 1395.64 152.658 1395.64 Q156.292 1395.64 158.098 1392.1 Q159.927 1388.53 159.927 1381.43 Q159.927 1374.3 158.098 1370.75 Q156.292 1367.19 152.658 1367.19 M152.658 1363.49 Q158.468 1363.49 161.524 1368.09 Q164.603 1372.68 164.603 1381.43 Q164.603 1390.15 161.524 1394.76 Q158.468 1399.34 152.658 1399.34 Q146.848 1399.34 143.769 1394.76 Q140.714 1390.15 140.714 1381.43 Q140.714 1372.68 143.769 1368.09 Q146.848 1363.49 152.658 1363.49 Z" fill="#000000" fill-rule="nonzero" fill-opacity="1" /><path clip-path="url(#clip460)" d="M182.82 1367.19 Q179.209 1367.19 177.38 1370.75 Q175.575 1374.3 175.575 1381.43 Q175.575 1388.53 177.38 1392.1 Q179.209 1395.64 182.82 1395.64 Q186.454 1395.64 188.26 1392.1 Q190.089 1388.53 190.089 1381.43 Q190.089 1374.3 188.26 1370.75 Q186.454 1367.19 182.82 1367.19 M182.82 1363.49 Q188.63 1363.49 191.686 1368.09 Q194.765 1372.68 194.765 1381.43 Q194.765 1390.15 191.686 1394.76 Q188.63 1399.34 182.82 1399.34 Q177.01 1399.34 173.931 1394.76 Q170.876 1390.15 170.876 1381.43 Q170.876 1372.68 173.931 1368.09 Q177.01 1363.49 182.82 1363.49 Z" fill="#000000" fill-rule="nonzero" fill-opacity="1" /><path clip-path="url(#clip460)" d="M50.9921 1060.28 L73.2142 1060.28 L73.2142 1062.27 L60.668 1094.84 L55.7838 1094.84 L67.5893 1064.21 L50.9921 1064.21 L50.9921 1060.28 Z" fill="#000000" fill-rule="nonzero" fill-opacity="1" /><path clip-path="url(#clip460)" d="M96.5011 1076.2 Q99.8576 1076.92 101.733 1079.19 Q103.631 1081.46 103.631 1084.79 Q103.631 1089.91 100.112 1092.71 Q96.5937 1095.51 90.1123 1095.51 Q87.9364 1095.51 85.6216 1095.07 Q83.3299 1094.65 80.8762 1093.8 L80.8762 1089.28 Q82.8207 1090.42 85.1355 1091 Q87.4503 1091.57 89.9734 1091.57 Q94.3715 1091.57 96.6632 1089.84 Q98.978 1088.1 98.978 1084.79 Q98.978 1081.74 96.8252 1080.02 Q94.6956 1078.29 90.8762 1078.29 L86.8484 1078.29 L86.8484 1074.44 L91.0614 1074.44 Q94.5104 1074.44 96.3391 1073.08 Q98.1678 1071.69 98.1678 1069.1 Q98.1678 1066.44 96.2697 1065.02 Q94.3947 1063.59 90.8762 1063.59 Q88.9549 1063.59 86.7558 1064.01 Q84.5568 1064.42 81.9179 1065.3 L81.9179 1061.13 Q84.5799 1060.39 86.8947 1060.02 Q89.2327 1059.65 91.2928 1059.65 Q96.6169 1059.65 99.7187 1062.08 Q102.821 1064.49 102.821 1068.61 Q102.821 1071.48 101.177 1073.47 Q99.5335 1075.44 96.5011 1076.2 Z" fill="#000000" fill-rule="nonzero" fill-opacity="1" /><path clip-path="url(#clip460)" d="M122.496 1063.36 Q118.885 1063.36 117.057 1066.92 Q115.251 1070.46 115.251 1077.59 Q115.251 1084.7 117.057 1088.26 Q118.885 1091.81 122.496 1091.81 Q126.131 1091.81 127.936 1088.26 Q129.765 1084.7 129.765 1077.59 Q129.765 1070.46 127.936 1066.92 Q126.131 1063.36 122.496 1063.36 M122.496 1059.65 Q128.307 1059.65 131.362 1064.26 Q134.441 1068.84 134.441 1077.59 Q134.441 1086.32 131.362 1090.93 Q128.307 1095.51 122.496 1095.51 Q116.686 1095.51 113.608 1090.93 Q110.552 1086.32 110.552 1077.59 Q110.552 1068.84 113.608 1064.26 Q116.686 1059.65 122.496 1059.65 Z" fill="#000000" fill-rule="nonzero" fill-opacity="1" /><path clip-path="url(#clip460)" d="M152.658 1063.36 Q149.047 1063.36 147.218 1066.92 Q145.413 1070.46 145.413 1077.59 Q145.413 1084.7 147.218 1088.26 Q149.047 1091.81 152.658 1091.81 Q156.292 1091.81 158.098 1088.26 Q159.927 1084.7 159.927 1077.59 Q159.927 1070.46 158.098 1066.92 Q156.292 1063.36 152.658 1063.36 M152.658 1059.65 Q158.468 1059.65 161.524 1064.26 Q164.603 1068.84 164.603 1077.59 Q164.603 1086.32 161.524 1090.93 Q158.468 1095.51 152.658 1095.51 Q146.848 1095.51 143.769 1090.93 Q140.714 1086.32 140.714 1077.59 Q140.714 1068.84 143.769 1064.26 Q146.848 1059.65 152.658 1059.65 Z" fill="#000000" fill-rule="nonzero" fill-opacity="1" /><path clip-path="url(#clip460)" d="M182.82 1063.36 Q179.209 1063.36 177.38 1066.92 Q175.575 1070.46 175.575 1077.59 Q175.575 1084.7 177.38 1088.26 Q179.209 1091.81 182.82 1091.81 Q186.454 1091.81 188.26 1088.26 Q190.089 1084.7 190.089 1077.59 Q190.089 1070.46 188.26 1066.92 Q186.454 1063.36 182.82 1063.36 M182.82 1059.65 Q188.63 1059.65 191.686 1064.26 Q194.765 1068.84 194.765 1077.59 Q194.765 1086.32 191.686 1090.93 Q188.63 1095.51 182.82 1095.51 Q177.01 1095.51 173.931 1090.93 Q170.876 1086.32 170.876 1077.59 Q170.876 1068.84 173.931 1064.26 Q177.01 1059.65 182.82 1059.65 Z" fill="#000000" fill-rule="nonzero" fill-opacity="1" /><path clip-path="url(#clip460)" d="M50.9921 756.446 L73.2142 756.446 L73.2142 758.437 L60.668 791.006 L55.7838 791.006 L67.5893 760.381 L50.9921 760.381 L50.9921 756.446 Z" fill="#000000" fill-rule="nonzero" fill-opacity="1" /><path clip-path="url(#clip460)" d="M96.5011 772.372 Q99.8576 773.089 101.733 775.358 Q103.631 777.626 103.631 780.96 Q103.631 786.075 100.112 788.876 Q96.5937 791.677 90.1123 791.677 Q87.9364 791.677 85.6216 791.237 Q83.3299 790.821 80.8762 789.964 L80.8762 785.45 Q82.8207 786.585 85.1355 787.163 Q87.4503 787.742 89.9734 787.742 Q94.3715 787.742 96.6632 786.006 Q98.978 784.27 98.978 780.96 Q98.978 777.904 96.8252 776.191 Q94.6956 774.455 90.8762 774.455 L86.8484 774.455 L86.8484 770.613 L91.0614 770.613 Q94.5104 770.613 96.3391 769.247 Q98.1678 767.858 98.1678 765.265 Q98.1678 762.603 96.2697 761.191 Q94.3947 759.756 90.8762 759.756 Q88.9549 759.756 86.7558 760.173 Q84.5568 760.589 81.9179 761.469 L81.9179 757.302 Q84.5799 756.562 86.8947 756.191 Q89.2327 755.821 91.2928 755.821 Q96.6169 755.821 99.7187 758.251 Q102.821 760.659 102.821 764.779 Q102.821 767.65 101.177 769.64 Q99.5335 771.608 96.5011 772.372 Z" fill="#000000" fill-rule="nonzero" fill-opacity="1" /><path clip-path="url(#clip460)" d="M112.543 756.446 L130.899 756.446 L130.899 760.381 L116.825 760.381 L116.825 768.853 Q117.844 768.506 118.862 768.344 Q119.881 768.159 120.899 768.159 Q126.686 768.159 130.066 771.33 Q133.445 774.501 133.445 779.918 Q133.445 785.497 129.973 788.599 Q126.501 791.677 120.182 791.677 Q118.006 791.677 115.737 791.307 Q113.492 790.937 111.084 790.196 L111.084 785.497 Q113.168 786.631 115.39 787.187 Q117.612 787.742 120.089 787.742 Q124.094 787.742 126.432 785.636 Q128.769 783.529 128.769 779.918 Q128.769 776.307 126.432 774.2 Q124.094 772.094 120.089 772.094 Q118.214 772.094 116.339 772.511 Q114.487 772.927 112.543 773.807 L112.543 756.446 Z" fill="#000000" fill-rule="nonzero" fill-opacity="1" /><path clip-path="url(#clip460)" d="M152.658 759.525 Q149.047 759.525 147.218 763.089 Q145.413 766.631 145.413 773.761 Q145.413 780.867 147.218 784.432 Q149.047 787.974 152.658 787.974 Q156.292 787.974 158.098 784.432 Q159.927 780.867 159.927 773.761 Q159.927 766.631 158.098 763.089 Q156.292 759.525 152.658 759.525 M152.658 755.821 Q158.468 755.821 161.524 760.427 Q164.603 765.011 164.603 773.761 Q164.603 782.487 161.524 787.094 Q158.468 791.677 152.658 791.677 Q146.848 791.677 143.769 787.094 Q140.714 782.487 140.714 773.761 Q140.714 765.011 143.769 760.427 Q146.848 755.821 152.658 755.821 Z" fill="#000000" fill-rule="nonzero" fill-opacity="1" /><path clip-path="url(#clip460)" d="M182.82 759.525 Q179.209 759.525 177.38 763.089 Q175.575 766.631 175.575 773.761 Q175.575 780.867 177.38 784.432 Q179.209 787.974 182.82 787.974 Q186.454 787.974 188.26 784.432 Q190.089 780.867 190.089 773.761 Q190.089 766.631 188.26 763.089 Q186.454 759.525 182.82 759.525 M182.82 755.821 Q188.63 755.821 191.686 760.427 Q194.765 765.011 194.765 773.761 Q194.765 782.487 191.686 787.094 Q188.63 791.677 182.82 791.677 Q177.01 791.677 173.931 787.094 Q170.876 782.487 170.876 773.761 Q170.876 765.011 173.931 760.427 Q177.01 755.821 182.82 755.821 Z" fill="#000000" fill-rule="nonzero" fill-opacity="1" /><path clip-path="url(#clip460)" d="M50.9921 452.614 L73.2142 452.614 L73.2142 454.604 L60.668 487.174 L55.7838 487.174 L67.5893 456.549 L50.9921 456.549 L50.9921 452.614 Z" fill="#000000" fill-rule="nonzero" fill-opacity="1" /><path clip-path="url(#clip460)" d="M95.1817 456.688 L83.3762 475.137 L95.1817 475.137 L95.1817 456.688 M93.9549 452.614 L99.8345 452.614 L99.8345 475.137 L104.765 475.137 L104.765 479.026 L99.8345 479.026 L99.8345 487.174 L95.1817 487.174 L95.1817 479.026 L79.5799 479.026 L79.5799 474.512 L93.9549 452.614 Z" fill="#000000" fill-rule="nonzero" fill-opacity="1" /><path clip-path="url(#clip460)" d="M122.496 455.692 Q118.885 455.692 117.057 459.257 Q115.251 462.799 115.251 469.928 Q115.251 477.035 117.057 480.6 Q118.885 484.141 122.496 484.141 Q126.131 484.141 127.936 480.6 Q129.765 477.035 129.765 469.928 Q129.765 462.799 127.936 459.257 Q126.131 455.692 122.496 455.692 M122.496 451.989 Q128.307 451.989 131.362 456.595 Q134.441 461.178 134.441 469.928 Q134.441 478.655 131.362 483.262 Q128.307 487.845 122.496 487.845 Q116.686 487.845 113.608 483.262 Q110.552 478.655 110.552 469.928 Q110.552 461.178 113.608 456.595 Q116.686 451.989 122.496 451.989 Z" fill="#000000" fill-rule="nonzero" fill-opacity="1" /><path clip-path="url(#clip460)" d="M152.658 455.692 Q149.047 455.692 147.218 459.257 Q145.413 462.799 145.413 469.928 Q145.413 477.035 147.218 480.6 Q149.047 484.141 152.658 484.141 Q156.292 484.141 158.098 480.6 Q159.927 477.035 159.927 469.928 Q159.927 462.799 158.098 459.257 Q156.292 455.692 152.658 455.692 M152.658 451.989 Q158.468 451.989 161.524 456.595 Q164.603 461.178 164.603 469.928 Q164.603 478.655 161.524 483.262 Q158.468 487.845 152.658 487.845 Q146.848 487.845 143.769 483.262 Q140.714 478.655 140.714 469.928 Q140.714 461.178 143.769 456.595 Q146.848 451.989 152.658 451.989 Z" fill="#000000" fill-rule="nonzero" fill-opacity="1" /><path clip-path="url(#clip460)" d="M182.82 455.692 Q179.209 455.692 177.38 459.257 Q175.575 462.799 175.575 469.928 Q175.575 477.035 177.38 480.6 Q179.209 484.141 182.82 484.141 Q186.454 484.141 188.26 480.6 Q190.089 477.035 190.089 469.928 Q190.089 462.799 188.26 459.257 Q186.454 455.692 182.82 455.692 M182.82 451.989 Q188.63 451.989 191.686 456.595 Q194.765 461.178 194.765 469.928 Q194.765 478.655 191.686 483.262 Q188.63 487.845 182.82 487.845 Q177.01 487.845 173.931 483.262 Q170.876 478.655 170.876 469.928 Q170.876 461.178 173.931 456.595 Q177.01 451.989 182.82 451.989 Z" fill="#000000" fill-rule="nonzero" fill-opacity="1" /><path clip-path="url(#clip460)" d="M50.9921 148.781 L73.2142 148.781 L73.2142 150.772 L60.668 183.341 L55.7838 183.341 L67.5893 152.716 L50.9921 152.716 L50.9921 148.781 Z" fill="#000000" fill-rule="nonzero" fill-opacity="1" /><path clip-path="url(#clip460)" d="M95.1817 152.855 L83.3762 171.304 L95.1817 171.304 L95.1817 152.855 M93.9549 148.781 L99.8345 148.781 L99.8345 171.304 L104.765 171.304 L104.765 175.193 L99.8345 175.193 L99.8345 183.341 L95.1817 183.341 L95.1817 175.193 L79.5799 175.193 L79.5799 170.679 L93.9549 148.781 Z" fill="#000000" fill-rule="nonzero" fill-opacity="1" /><path clip-path="url(#clip460)" d="M112.543 148.781 L130.899 148.781 L130.899 152.716 L116.825 152.716 L116.825 161.189 Q117.844 160.841 118.862 160.679 Q119.881 160.494 120.899 160.494 Q126.686 160.494 130.066 163.665 Q133.445 166.837 133.445 172.253 Q133.445 177.832 129.973 180.934 Q126.501 184.013 120.182 184.013 Q118.006 184.013 115.737 183.642 Q113.492 183.272 111.084 182.531 L111.084 177.832 Q113.168 178.966 115.39 179.522 Q117.612 180.077 120.089 180.077 Q124.094 180.077 126.432 177.971 Q128.769 175.864 128.769 172.253 Q128.769 168.642 126.432 166.536 Q124.094 164.429 120.089 164.429 Q118.214 164.429 116.339 164.846 Q114.487 165.263 112.543 166.142 L112.543 148.781 Z" fill="#000000" fill-rule="nonzero" fill-opacity="1" /><path clip-path="url(#clip460)" d="M152.658 151.86 Q149.047 151.86 147.218 155.425 Q145.413 158.966 145.413 166.096 Q145.413 173.202 147.218 176.767 Q149.047 180.309 152.658 180.309 Q156.292 180.309 158.098 176.767 Q159.927 173.202 159.927 166.096 Q159.927 158.966 158.098 155.425 Q156.292 151.86 152.658 151.86 M152.658 148.156 Q158.468 148.156 161.524 152.763 Q164.603 157.346 164.603 166.096 Q164.603 174.823 161.524 179.429 Q158.468 184.013 152.658 184.013 Q146.848 184.013 143.769 179.429 Q140.714 174.823 140.714 166.096 Q140.714 157.346 143.769 152.763 Q146.848 148.156 152.658 148.156 Z" fill="#000000" fill-rule="nonzero" fill-opacity="1" /><path clip-path="url(#clip460)" d="M182.82 151.86 Q179.209 151.86 177.38 155.425 Q175.575 158.966 175.575 166.096 Q175.575 173.202 177.38 176.767 Q179.209 180.309 182.82 180.309 Q186.454 180.309 188.26 176.767 Q190.089 173.202 190.089 166.096 Q190.089 158.966 188.26 155.425 Q186.454 151.86 182.82 151.86 M182.82 148.156 Q188.63 148.156 191.686 152.763 Q194.765 157.346 194.765 166.096 Q194.765 174.823 191.686 179.429 Q188.63 184.013 182.82 184.013 Q177.01 184.013 173.931 179.429 Q170.876 174.823 170.876 166.096 Q170.876 157.346 173.931 152.763 Q177.01 148.156 182.82 148.156 Z" fill="#000000" fill-rule="nonzero" fill-opacity="1" /><path clip-path="url(#clip460)" d="M1262.23 35.2602 Q1262.23 29.4732 1259.83 26.2904 Q1257.46 23.1075 1253.15 23.1075 Q1248.86 23.1075 1246.46 26.2904 Q1244.09 29.4732 1244.09 35.2602 Q1244.09 41.0183 1246.46 44.2012 Q1248.86 47.384 1253.15 47.384 Q1257.46 47.384 1259.83 44.2012 Q1262.23 41.0183 1262.23 35.2602 M1267.56 47.818 Q1267.56 56.0934 1263.88 60.1154 Q1260.21 64.1663 1252.63 64.1663 Q1249.82 64.1663 1247.33 63.7323 Q1244.84 63.3272 1242.5 62.4592 L1242.5 57.2798 Q1244.84 58.5529 1247.13 59.1606 Q1249.41 59.7682 1251.79 59.7682 Q1257.02 59.7682 1259.63 57.0194 Q1262.23 54.2995 1262.23 48.7729 L1262.23 46.1398 Q1260.58 49.0044 1258.01 50.4222 Q1255.43 51.84 1251.84 51.84 Q1245.88 51.84 1242.24 47.2972 Q1238.59 42.7544 1238.59 35.2602 Q1238.59 27.7371 1242.24 23.1943 Q1245.88 18.6515 1251.84 18.6515 Q1255.43 18.6515 1258.01 20.0693 Q1260.58 21.4872 1262.23 24.3517 L1262.23 19.4328 L1267.56 19.4328 L1267.56 47.818 Z" fill="#000000" fill-rule="nonzero" fill-opacity="1" /><path clip-path="url(#clip460)" d="M1299.85 24.3517 L1299.85 6.81709 L1305.17 6.81709 L1305.17 51.84 L1299.85 51.84 L1299.85 46.9789 Q1298.17 49.8724 1295.59 51.2902 Q1293.05 52.6791 1289.46 52.6791 Q1283.59 52.6791 1279.88 47.9916 Q1276.21 43.3042 1276.21 35.6653 Q1276.21 28.0265 1279.88 23.339 Q1283.59 18.6515 1289.46 18.6515 Q1293.05 18.6515 1295.59 20.0693 Q1298.17 21.4582 1299.85 24.3517 M1281.71 35.6653 Q1281.71 41.5391 1284.11 44.8956 Q1286.54 48.2231 1290.76 48.2231 Q1294.99 48.2231 1297.42 44.8956 Q1299.85 41.5391 1299.85 35.6653 Q1299.85 29.7915 1297.42 26.464 Q1294.99 23.1075 1290.76 23.1075 Q1286.54 23.1075 1284.11 26.464 Q1281.71 29.7915 1281.71 35.6653 Z" fill="#000000" fill-rule="nonzero" fill-opacity="1" /><path clip-path="url(#clip460)" d="M1321.29 46.9789 L1321.29 64.1663 L1315.94 64.1663 L1315.94 19.4328 L1321.29 19.4328 L1321.29 24.3517 Q1322.97 21.4582 1325.51 20.0693 Q1328.09 18.6515 1331.65 18.6515 Q1337.55 18.6515 1341.22 23.339 Q1344.93 28.0265 1344.93 35.6653 Q1344.93 43.3042 1341.22 47.9916 Q1337.55 52.6791 1331.65 52.6791 Q1328.09 52.6791 1325.51 51.2902 Q1322.97 49.8724 1321.29 46.9789 M1339.4 35.6653 Q1339.4 29.7915 1336.97 26.464 Q1334.57 23.1075 1330.35 23.1075 Q1326.12 23.1075 1323.69 26.464 Q1321.29 29.7915 1321.29 35.6653 Q1321.29 41.5391 1323.69 44.8956 Q1326.12 48.2231 1330.35 48.2231 Q1334.57 48.2231 1336.97 44.8956 Q1339.4 41.5391 1339.4 35.6653 Z" fill="#000000" fill-rule="nonzero" fill-opacity="1" /><polyline clip-path="url(#clip462)" style="stroke:#009af9; stroke-linecap:round; stroke-linejoin:round; stroke-width:4; stroke-opacity:1; fill:none" points="290.821,1428.79 415.938,1045.55 541.056,763.497 666.173,818.81 791.291,666.808 916.408,632.011 1041.53,442.392 1166.64,550.145 1291.76,145.256 1416.88,468.844 1542,684.739 1667.11,594.918 1792.23,678.121 1917.35,695.874 2042.46,1044.71 2167.58,1358.36 2292.7,1447.38 "/>
<path clip-path="url(#clip460)" d="M2017.39 255.881 L2282.02 255.881 L2282.02 152.201 L2017.39 152.201  Z" fill="#ffffff" fill-rule="evenodd" fill-opacity="1"/>
<polyline clip-path="url(#clip460)" style="stroke:#000000; stroke-linecap:round; stroke-linejoin:round; stroke-width:4; stroke-opacity:1; fill:none" points="2017.39,255.881 2282.02,255.881 2282.02,152.201 2017.39,152.201 2017.39,255.881 "/>
<polyline clip-path="url(#clip460)" style="stroke:#009af9; stroke-linecap:round; stroke-linejoin:round; stroke-width:4; stroke-opacity:1; fill:none" points="2040.97,204.041 2182.44,204.041 "/>
<path clip-path="url(#clip460)" d="M2219.86 223.728 Q2218.05 228.358 2216.34 229.77 Q2214.63 231.182 2211.76 231.182 L2208.35 231.182 L2208.35 227.617 L2210.85 227.617 Q2212.61 227.617 2213.58 226.784 Q2214.56 225.95 2215.74 222.848 L2216.5 220.904 L2206.01 195.395 L2210.53 195.395 L2218.63 215.673 L2226.73 195.395 L2231.25 195.395 L2219.86 223.728 Z" fill="#000000" fill-rule="nonzero" fill-opacity="1" /><path clip-path="url(#clip460)" d="M2238.54 217.385 L2246.18 217.385 L2246.18 191.02 L2237.87 192.687 L2237.87 188.427 L2246.13 186.761 L2250.81 186.761 L2250.81 217.385 L2258.45 217.385 L2258.45 221.321 L2238.54 221.321 L2238.54 217.385 Z" fill="#000000" fill-rule="nonzero" fill-opacity="1" /></svg>
