<?xml version="1.0" encoding="utf-8"?>
<svg xmlns="http://www.w3.org/2000/svg" xmlns:xlink="http://www.w3.org/1999/xlink" width="600" height="400" viewBox="0 0 2400 1600">
<defs>
  <clipPath id="clip320">
    <rect x="0" y="0" width="2400" height="1600"/>
  </clipPath>
</defs>
<path clip-path="url(#clip320)" d="M0 1600 L2400 1600 L2400 0 L0 0  Z" fill="#ffffff" fill-rule="evenodd" fill-opacity="1"/>
<defs>
  <clipPath id="clip321">
    <rect x="480" y="0" width="1681" height="1600"/>
  </clipPath>
</defs>
<path clip-path="url(#clip320)" d="M230.765 1486.45 L2352.76 1486.45 L2352.76 106.192 L230.765 106.192  Z" fill="#ffffff" fill-rule="evenodd" fill-opacity="1"/>
<defs>
  <clipPath id="clip322">
    <rect x="230" y="106" width="2123" height="1381"/>
  </clipPath>
</defs>
<polyline clip-path="url(#clip322)" style="stroke:#000000; stroke-linecap:round; stroke-linejoin:round; stroke-width:2; stroke-opacity:0.1; fill:none" points="541.056,1486.45 541.056,106.192 "/>
<polyline clip-path="url(#clip322)" style="stroke:#000000; stroke-linecap:round; stroke-linejoin:round; stroke-width:2; stroke-opacity:0.1; fill:none" points="916.408,1486.45 916.408,106.192 "/>
<polyline clip-path="url(#clip322)" style="stroke:#000000; stroke-linecap:round; stroke-linejoin:round; stroke-width:2; stroke-opacity:0.1; fill:none" points="1291.76,1486.45 1291.76,106.192 "/>
<polyline clip-path="url(#clip322)" style="stroke:#000000; stroke-linecap:round; stroke-linejoin:round; stroke-width:2; stroke-opacity:0.1; fill:none" points="1667.11,1486.45 1667.11,106.192 "/>
<polyline clip-path="url(#clip322)" style="stroke:#000000; stroke-linecap:round; stroke-linejoin:round; stroke-width:2; stroke-opacity:0.1; fill:none" points="2042.46,1486.45 2042.46,106.192 "/>
<polyline clip-path="url(#clip322)" style="stroke:#000000; stroke-linecap:round; stroke-linejoin:round; stroke-width:2; stroke-opacity:0.1; fill:none" points="230.765,1291.92 2352.76,1291.92 "/>
<polyline clip-path="url(#clip322)" style="stroke:#000000; stroke-linecap:round; stroke-linejoin:round; stroke-width:2; stroke-opacity:0.1; fill:none" points="230.765,1022.96 2352.76,1022.96 "/>
<polyline clip-path="url(#clip322)" style="stroke:#000000; stroke-linecap:round; stroke-linejoin:round; stroke-width:2; stroke-opacity:0.1; fill:none" points="230.765,753.993 2352.76,753.993 "/>
<polyline clip-path="url(#clip322)" style="stroke:#000000; stroke-linecap:round; stroke-linejoin:round; stroke-width:2; stroke-opacity:0.1; fill:none" points="230.765,485.028 2352.76,485.028 "/>
<polyline clip-path="url(#clip322)" style="stroke:#000000; stroke-linecap:round; stroke-linejoin:round; stroke-width:2; stroke-opacity:0.1; fill:none" points="230.765,216.063 2352.76,216.063 "/>
<polyline clip-path="url(#clip320)" style="stroke:#000000; stroke-linecap:round; stroke-linejoin:round; stroke-width:4; stroke-opacity:1; fill:none" points="230.765,1486.45 2352.76,1486.45 "/>
<polyline clip-path="url(#clip320)" style="stroke:#000000; stroke-linecap:round; stroke-linejoin:round; stroke-width:4; stroke-opacity:1; fill:none" points="541.056,1486.45 541.056,1467.55 "/>
<polyline clip-path="url(#clip320)" style="stroke:#000000; stroke-linecap:round; stroke-linejoin:round; stroke-width:4; stroke-opacity:1; fill:none" points="916.408,1486.45 916.408,1467.55 "/>
<polyline clip-path="url(#clip320)" style="stroke:#000000; stroke-linecap:round; stroke-linejoin:round; stroke-width:4; stroke-opacity:1; fill:none" points="1291.76,1486.45 1291.76,1467.55 "/>
<polyline clip-path="url(#clip320)" style="stroke:#000000; stroke-linecap:round; stroke-linejoin:round; stroke-width:4; stroke-opacity:1; fill:none" points="1667.11,1486.45 1667.11,1467.55 "/>
<polyline clip-path="url(#clip320)" style="stroke:#000000; stroke-linecap:round; stroke-linejoin:round; stroke-width:4; stroke-opacity:1; fill:none" points="2042.46,1486.45 2042.46,1467.55 "/>
<path clip-path="url(#clip320)" d="M545.303 1530.21 Q548.66 1530.93 550.535 1533.2 Q552.433 1535.47 552.433 1538.8 Q552.433 1543.92 548.914 1546.72 Q545.396 1549.52 538.915 1549.52 Q536.739 1549.52 534.424 1549.08 Q532.132 1548.66 529.678 1547.81 L529.678 1543.29 Q531.623 1544.43 533.938 1545.01 Q536.252 1545.58 538.776 1545.58 Q543.174 1545.58 545.465 1543.85 Q547.78 1542.11 547.78 1538.8 Q547.78 1535.75 545.627 1534.03 Q543.498 1532.3 539.678 1532.3 L535.651 1532.3 L535.651 1528.45 L539.864 1528.45 Q543.313 1528.45 545.141 1527.09 Q546.97 1525.7 546.97 1523.11 Q546.97 1520.45 545.072 1519.03 Q543.197 1517.6 539.678 1517.6 Q537.757 1517.6 535.558 1518.01 Q533.359 1518.43 530.72 1519.31 L530.72 1515.14 Q533.382 1514.4 535.697 1514.03 Q538.035 1513.66 540.095 1513.66 Q545.419 1513.66 548.521 1516.09 Q551.623 1518.5 551.623 1522.62 Q551.623 1525.49 549.979 1527.48 Q548.336 1529.45 545.303 1530.21 Z" fill="#000000" fill-rule="nonzero" fill-opacity="1" /><path clip-path="url(#clip320)" d="M916.813 1529.7 Q913.665 1529.7 911.813 1531.86 Q909.984 1534.01 909.984 1537.76 Q909.984 1541.49 911.813 1543.66 Q913.665 1545.82 916.813 1545.82 Q919.961 1545.82 921.79 1543.66 Q923.642 1541.49 923.642 1537.76 Q923.642 1534.01 921.79 1531.86 Q919.961 1529.7 916.813 1529.7 M926.095 1515.05 L926.095 1519.31 Q924.336 1518.48 922.531 1518.04 Q920.748 1517.6 918.989 1517.6 Q914.359 1517.6 911.906 1520.72 Q909.475 1523.85 909.128 1530.17 Q910.494 1528.15 912.554 1527.09 Q914.614 1526 917.091 1526 Q922.299 1526 925.308 1529.17 Q928.341 1532.32 928.341 1537.76 Q928.341 1543.08 925.193 1546.3 Q922.044 1549.52 916.813 1549.52 Q910.818 1549.52 907.646 1544.94 Q904.475 1540.33 904.475 1531.6 Q904.475 1523.41 908.364 1518.55 Q912.253 1513.66 918.804 1513.66 Q920.563 1513.66 922.345 1514.01 Q924.151 1514.36 926.095 1515.05 Z" fill="#000000" fill-rule="nonzero" fill-opacity="1" /><path clip-path="url(#clip320)" d="M1282.06 1548.13 L1282.06 1543.87 Q1283.82 1544.7 1285.63 1545.14 Q1287.43 1545.58 1289.17 1545.58 Q1293.8 1545.58 1296.23 1542.48 Q1298.68 1539.36 1299.03 1533.01 Q1297.69 1535.01 1295.63 1536.07 Q1293.57 1537.13 1291.07 1537.13 Q1285.88 1537.13 1282.85 1534.01 Q1279.84 1530.86 1279.84 1525.42 Q1279.84 1520.1 1282.99 1516.88 Q1286.14 1513.66 1291.37 1513.66 Q1297.36 1513.66 1300.51 1518.27 Q1303.68 1522.85 1303.68 1531.6 Q1303.68 1539.77 1299.79 1544.66 Q1295.93 1549.52 1289.38 1549.52 Q1287.62 1549.52 1285.81 1549.17 Q1284.01 1548.82 1282.06 1548.13 M1291.37 1533.48 Q1294.51 1533.48 1296.34 1531.32 Q1298.2 1529.17 1298.2 1525.42 Q1298.2 1521.7 1296.34 1519.54 Q1294.51 1517.37 1291.37 1517.37 Q1288.22 1517.37 1286.37 1519.54 Q1284.54 1521.7 1284.54 1525.42 Q1284.54 1529.17 1286.37 1531.32 Q1288.22 1533.48 1291.37 1533.48 Z" fill="#000000" fill-rule="nonzero" fill-opacity="1" /><path clip-path="url(#clip320)" d="M1642.6 1544.91 L1650.24 1544.91 L1650.24 1518.55 L1641.93 1520.21 L1641.93 1515.95 L1650.19 1514.29 L1654.87 1514.29 L1654.87 1544.91 L1662.51 1544.91 L1662.51 1548.85 L1642.6 1548.85 L1642.6 1544.91 Z" fill="#000000" fill-rule="nonzero" fill-opacity="1" /><path clip-path="url(#clip320)" d="M1675.98 1544.91 L1692.3 1544.91 L1692.3 1548.85 L1670.35 1548.85 L1670.35 1544.91 Q1673.02 1542.16 1677.6 1537.53 Q1682.2 1532.88 1683.39 1531.53 Q1685.63 1529.01 1686.51 1527.27 Q1687.41 1525.51 1687.41 1523.82 Q1687.41 1521.07 1685.47 1519.33 Q1683.55 1517.6 1680.45 1517.6 Q1678.25 1517.6 1675.79 1518.36 Q1673.36 1519.13 1670.58 1520.68 L1670.58 1515.95 Q1673.41 1514.82 1675.86 1514.24 Q1678.32 1513.66 1680.35 1513.66 Q1685.72 1513.66 1688.92 1516.35 Q1692.11 1519.03 1692.11 1523.52 Q1692.11 1525.65 1691.3 1527.57 Q1690.52 1529.47 1688.41 1532.07 Q1687.83 1532.74 1684.73 1535.95 Q1681.63 1539.15 1675.98 1544.91 Z" fill="#000000" fill-rule="nonzero" fill-opacity="1" /><path clip-path="url(#clip320)" d="M2017.65 1544.91 L2025.29 1544.91 L2025.29 1518.55 L2016.98 1520.21 L2016.98 1515.95 L2025.24 1514.29 L2029.92 1514.29 L2029.92 1544.91 L2037.56 1544.91 L2037.56 1548.85 L2017.65 1548.85 L2017.65 1544.91 Z" fill="#000000" fill-rule="nonzero" fill-opacity="1" /><path clip-path="url(#clip320)" d="M2047.05 1514.29 L2065.4 1514.29 L2065.4 1518.22 L2051.33 1518.22 L2051.33 1526.7 Q2052.35 1526.35 2053.37 1526.19 Q2054.39 1526 2055.4 1526 Q2061.19 1526 2064.57 1529.17 Q2067.95 1532.34 2067.95 1537.76 Q2067.95 1543.34 2064.48 1546.44 Q2061.01 1549.52 2054.69 1549.52 Q2052.51 1549.52 2050.24 1549.15 Q2048 1548.78 2045.59 1548.04 L2045.59 1543.34 Q2047.67 1544.47 2049.9 1545.03 Q2052.12 1545.58 2054.59 1545.58 Q2058.6 1545.58 2060.94 1543.48 Q2063.27 1541.37 2063.27 1537.76 Q2063.27 1534.15 2060.94 1532.04 Q2058.6 1529.94 2054.59 1529.94 Q2052.72 1529.94 2050.84 1530.35 Q2048.99 1530.77 2047.05 1531.65 L2047.05 1514.29 Z" fill="#000000" fill-rule="nonzero" fill-opacity="1" /><polyline clip-path="url(#clip320)" style="stroke:#000000; stroke-linecap:round; stroke-linejoin:round; stroke-width:4; stroke-opacity:1; fill:none" points="230.765,1486.45 230.765,106.192 "/>
<polyline clip-path="url(#clip320)" style="stroke:#000000; stroke-linecap:round; stroke-linejoin:round; stroke-width:4; stroke-opacity:1; fill:none" points="230.765,1291.92 249.662,1291.92 "/>
<polyline clip-path="url(#clip320)" style="stroke:#000000; stroke-linecap:round; stroke-linejoin:round; stroke-width:4; stroke-opacity:1; fill:none" points="230.765,1022.96 249.662,1022.96 "/>
<polyline clip-path="url(#clip320)" style="stroke:#000000; stroke-linecap:round; stroke-linejoin:round; stroke-width:4; stroke-opacity:1; fill:none" points="230.765,753.993 249.662,753.993 "/>
<polyline clip-path="url(#clip320)" style="stroke:#000000; stroke-linecap:round; stroke-linejoin:round; stroke-width:4; stroke-opacity:1; fill:none" points="230.765,485.028 249.662,485.028 "/>
<polyline clip-path="url(#clip320)" style="stroke:#000000; stroke-linecap:round; stroke-linejoin:round; stroke-width:4; stroke-opacity:1; fill:none" points="230.765,216.063 249.662,216.063 "/>
<path clip-path="url(#clip320)" d="M50.9921 1274.64 L73.2142 1274.64 L73.2142 1276.63 L60.668 1309.2 L55.7838 1309.2 L67.5893 1278.58 L50.9921 1278.58 L50.9921 1274.64 Z" fill="#000000" fill-rule="nonzero" fill-opacity="1" /><path clip-path="url(#clip320)" d="M96.5011 1290.57 Q99.8576 1291.29 101.733 1293.55 Q103.631 1295.82 103.631 1299.16 Q103.631 1304.27 100.112 1307.07 Q96.5937 1309.87 90.1123 1309.87 Q87.9364 1309.87 85.6216 1309.43 Q83.3299 1309.02 80.8762 1308.16 L80.8762 1303.65 Q82.8207 1304.78 85.1355 1305.36 Q87.4503 1305.94 89.9734 1305.94 Q94.3715 1305.94 96.6632 1304.2 Q98.978 1302.47 98.978 1299.16 Q98.978 1296.1 96.8252 1294.39 Q94.6956 1292.65 90.8762 1292.65 L86.8484 1292.65 L86.8484 1288.81 L91.0614 1288.81 Q94.5104 1288.81 96.3391 1287.44 Q98.1678 1286.05 98.1678 1283.46 Q98.1678 1280.8 96.2697 1279.39 Q94.3947 1277.95 90.8762 1277.95 Q88.9549 1277.95 86.7558 1278.37 Q84.5568 1278.79 81.9179 1279.67 L81.9179 1275.5 Q84.5799 1274.76 86.8947 1274.39 Q89.2327 1274.02 91.2928 1274.02 Q96.6169 1274.02 99.7187 1276.45 Q102.821 1278.86 102.821 1282.98 Q102.821 1285.85 101.177 1287.84 Q99.5335 1289.8 96.5011 1290.57 Z" fill="#000000" fill-rule="nonzero" fill-opacity="1" /><path clip-path="url(#clip320)" d="M122.496 1277.72 Q118.885 1277.72 117.057 1281.29 Q115.251 1284.83 115.251 1291.96 Q115.251 1299.06 117.057 1302.63 Q118.885 1306.17 122.496 1306.17 Q126.131 1306.17 127.936 1302.63 Q129.765 1299.06 129.765 1291.96 Q129.765 1284.83 127.936 1281.29 Q126.131 1277.72 122.496 1277.72 M122.496 1274.02 Q128.307 1274.02 131.362 1278.62 Q134.441 1283.21 134.441 1291.96 Q134.441 1300.68 131.362 1305.29 Q128.307 1309.87 122.496 1309.87 Q116.686 1309.87 113.608 1305.29 Q110.552 1300.68 110.552 1291.96 Q110.552 1283.21 113.608 1278.62 Q116.686 1274.02 122.496 1274.02 Z" fill="#000000" fill-rule="nonzero" fill-opacity="1" /><path clip-path="url(#clip320)" d="M152.658 1277.72 Q149.047 1277.72 147.218 1281.29 Q145.413 1284.83 145.413 1291.96 Q145.413 1299.06 147.218 1302.63 Q149.047 1306.17 152.658 1306.17 Q156.292 1306.17 158.098 1302.63 Q159.927 1299.06 159.927 1291.96 Q159.927 1284.83 158.098 1281.29 Q156.292 1277.72 152.658 1277.72 M152.658 1274.02 Q158.468 1274.02 161.524 1278.62 Q164.603 1283.21 164.603 1291.96 Q164.603 1300.68 161.524 1305.29 Q158.468 1309.87 152.658 1309.87 Q146.848 1309.87 143.769 1305.29 Q140.714 1300.68 140.714 1291.96 Q140.714 1283.21 143.769 1278.62 Q146.848 1274.02 152.658 1274.02 Z" fill="#000000" fill-rule="nonzero" fill-opacity="1" /><path clip-path="url(#clip320)" d="M182.82 1277.72 Q179.209 1277.72 177.38 1281.29 Q175.575 1284.83 175.575 1291.96 Q175.575 1299.06 177.38 1302.63 Q179.209 1306.17 182.82 1306.17 Q186.454 1306.17 188.26 1302.63 Q190.089 1299.06 190.089 1291.96 Q190.089 1284.83 188.26 1281.29 Q186.454 1277.72 182.82 1277.72 M182.82 1274.02 Q188.63 1274.02 191.686 1278.62 Q194.765 1283.21 194.765 1291.96 Q194.765 1300.68 191.686 1305.29 Q188.63 1309.87 182.82 1309.87 Q177.01 1309.87 173.931 1305.29 Q170.876 1300.68 170.876 1291.96 Q170.876 1283.21 173.931 1278.62 Q177.01 1274.02 182.82 1274.02 Z" fill="#000000" fill-rule="nonzero" fill-opacity="1" /><path clip-path="url(#clip320)" d="M50.9921 1005.68 L73.2142 1005.68 L73.2142 1007.67 L60.668 1040.24 L55.7838 1040.24 L67.5893 1009.61 L50.9921 1009.61 L50.9921 1005.68 Z" fill="#000000" fill-rule="nonzero" fill-opacity="1" /><path clip-path="url(#clip320)" d="M95.1817 1009.75 L83.3762 1028.2 L95.1817 1028.2 L95.1817 1009.75 M93.9549 1005.68 L99.8345 1005.68 L99.8345 1028.2 L104.765 1028.2 L104.765 1032.09 L99.8345 1032.09 L99.8345 1040.24 L95.1817 1040.24 L95.1817 1032.09 L79.5799 1032.09 L79.5799 1027.58 L93.9549 1005.68 Z" fill="#000000" fill-rule="nonzero" fill-opacity="1" /><path clip-path="url(#clip320)" d="M122.496 1008.76 Q118.885 1008.76 117.057 1012.32 Q115.251 1015.86 115.251 1022.99 Q115.251 1030.1 117.057 1033.66 Q118.885 1037.21 122.496 1037.21 Q126.131 1037.21 127.936 1033.66 Q129.765 1030.1 129.765 1022.99 Q129.765 1015.86 127.936 1012.32 Q126.131 1008.76 122.496 1008.76 M122.496 1005.05 Q128.307 1005.05 131.362 1009.66 Q134.441 1014.24 134.441 1022.99 Q134.441 1031.72 131.362 1036.33 Q128.307 1040.91 122.496 1040.91 Q116.686 1040.91 113.608 1036.33 Q110.552 1031.72 110.552 1022.99 Q110.552 1014.24 113.608 1009.66 Q116.686 1005.05 122.496 1005.05 Z" fill="#000000" fill-rule="nonzero" fill-opacity="1" /><path clip-path="url(#clip320)" d="M152.658 1008.76 Q149.047 1008.76 147.218 1012.32 Q145.413 1015.86 145.413 1022.99 Q145.413 1030.1 147.218 1033.66 Q149.047 1037.21 152.658 1037.21 Q156.292 1037.21 158.098 1033.66 Q159.927 1030.1 159.927 1022.99 Q159.927 1015.86 158.098 1012.32 Q156.292 1008.76 152.658 1008.76 M152.658 1005.05 Q158.468 1005.05 161.524 1009.66 Q164.603 1014.24 164.603 1022.99 Q164.603 1031.72 161.524 1036.33 Q158.468 1040.91 152.658 1040.91 Q146.848 1040.91 143.769 1036.33 Q140.714 1031.72 140.714 1022.99 Q140.714 1014.24 143.769 1009.66 Q146.848 1005.05 152.658 1005.05 Z" fill="#000000" fill-rule="nonzero" fill-opacity="1" /><path clip-path="url(#clip320)" d="M182.82 1008.76 Q179.209 1008.76 177.38 1012.32 Q175.575 1015.86 175.575 1022.99 Q175.575 1030.1 177.38 1033.66 Q179.209 1037.21 182.82 1037.21 Q186.454 1037.21 188.26 1033.66 Q190.089 1030.1 190.089 1022.99 Q190.089 1015.86 188.26 1012.32 Q186.454 1008.76 182.82 1008.76 M182.82 1005.05 Q188.63 1005.05 191.686 1009.66 Q194.765 1014.24 194.765 1022.99 Q194.765 1031.72 191.686 1036.33 Q188.63 1040.91 182.82 1040.91 Q177.01 1040.91 173.931 1036.33 Q170.876 1031.72 170.876 1022.99 Q170.876 1014.24 173.931 1009.66 Q177.01 1005.05 182.82 1005.05 Z" fill="#000000" fill-rule="nonzero" fill-opacity="1" /><path clip-path="url(#clip320)" d="M50.9921 736.713 L73.2142 736.713 L73.2142 738.703 L60.668 771.273 L55.7838 771.273 L67.5893 740.648 L50.9921 740.648 L50.9921 736.713 Z" fill="#000000" fill-rule="nonzero" fill-opacity="1" /><path clip-path="url(#clip320)" d="M82.3808 736.713 L100.737 736.713 L100.737 740.648 L86.6632 740.648 L86.6632 749.12 Q87.6817 748.773 88.7003 748.611 Q89.7188 748.425 90.7373 748.425 Q96.5243 748.425 99.9039 751.597 Q103.284 754.768 103.284 760.185 Q103.284 765.763 99.8113 768.865 Q96.3391 771.944 90.0197 771.944 Q87.8438 771.944 85.5753 771.573 Q83.3299 771.203 80.9225 770.462 L80.9225 765.763 Q83.0058 766.898 85.2281 767.453 Q87.4503 768.009 89.9271 768.009 Q93.9317 768.009 96.2697 765.902 Q98.6076 763.796 98.6076 760.185 Q98.6076 756.574 96.2697 754.467 Q93.9317 752.361 89.9271 752.361 Q88.0521 752.361 86.1771 752.777 Q84.3253 753.194 82.3808 754.074 L82.3808 736.713 Z" fill="#000000" fill-rule="nonzero" fill-opacity="1" /><path clip-path="url(#clip320)" d="M122.496 739.791 Q118.885 739.791 117.057 743.356 Q115.251 746.898 115.251 754.027 Q115.251 761.134 117.057 764.699 Q118.885 768.24 122.496 768.24 Q126.131 768.24 127.936 764.699 Q129.765 761.134 129.765 754.027 Q129.765 746.898 127.936 743.356 Q126.131 739.791 122.496 739.791 M122.496 736.088 Q128.307 736.088 131.362 740.694 Q134.441 745.277 134.441 754.027 Q134.441 762.754 131.362 767.361 Q128.307 771.944 122.496 771.944 Q116.686 771.944 113.608 767.361 Q110.552 762.754 110.552 754.027 Q110.552 745.277 113.608 740.694 Q116.686 736.088 122.496 736.088 Z" fill="#000000" fill-rule="nonzero" fill-opacity="1" /><path clip-path="url(#clip320)" d="M152.658 739.791 Q149.047 739.791 147.218 743.356 Q145.413 746.898 145.413 754.027 Q145.413 761.134 147.218 764.699 Q149.047 768.24 152.658 768.24 Q156.292 768.24 158.098 764.699 Q159.927 761.134 159.927 754.027 Q159.927 746.898 158.098 743.356 Q156.292 739.791 152.658 739.791 M152.658 736.088 Q158.468 736.088 161.524 740.694 Q164.603 745.277 164.603 754.027 Q164.603 762.754 161.524 767.361 Q158.468 771.944 152.658 771.944 Q146.848 771.944 143.769 767.361 Q140.714 762.754 140.714 754.027 Q140.714 745.277 143.769 740.694 Q146.848 736.088 152.658 736.088 Z" fill="#000000" fill-rule="nonzero" fill-opacity="1" /><path clip-path="url(#clip320)" d="M182.82 739.791 Q179.209 739.791 177.38 743.356 Q175.575 746.898 175.575 754.027 Q175.575 761.134 177.38 764.699 Q179.209 768.24 182.82 768.24 Q186.454 768.24 188.26 764.699 Q190.089 761.134 190.089 754.027 Q190.089 746.898 188.26 743.356 Q186.454 739.791 182.82 739.791 M182.82 736.088 Q188.63 736.088 191.686 740.694 Q194.765 745.277 194.765 754.027 Q194.765 762.754 191.686 767.361 Q188.63 771.944 182.82 771.944 Q177.01 771.944 173.931 767.361 Q170.876 762.754 170.876 754.027 Q170.876 745.277 173.931 740.694 Q177.01 736.088 182.82 736.088 Z" fill="#000000" fill-rule="nonzero" fill-opacity="1" /><path clip-path="url(#clip320)" d="M50.9921 467.748 L73.2142 467.748 L73.2142 469.738 L60.668 502.308 L55.7838 502.308 L67.5893 471.683 L50.9921 471.683 L50.9921 467.748 Z" fill="#000000" fill-rule="nonzero" fill-opacity="1" /><path clip-path="url(#clip320)" d="M92.9132 483.164 Q89.7651 483.164 87.9132 485.317 Q86.0845 487.47 86.0845 491.22 Q86.0845 494.947 87.9132 497.123 Q89.7651 499.275 92.9132 499.275 Q96.0613 499.275 97.89 497.123 Q99.7419 494.947 99.7419 491.22 Q99.7419 487.47 97.89 485.317 Q96.0613 483.164 92.9132 483.164 M102.196 468.512 L102.196 472.771 Q100.436 471.937 98.6308 471.498 Q96.8484 471.058 95.0891 471.058 Q90.4595 471.058 88.0058 474.183 Q85.5753 477.308 85.2281 483.627 Q86.5938 481.613 88.654 480.549 Q90.7141 479.461 93.191 479.461 Q98.3993 479.461 101.409 482.632 Q104.441 485.78 104.441 491.22 Q104.441 496.544 101.293 499.761 Q98.1447 502.979 92.9132 502.979 Q86.9179 502.979 83.7466 498.396 Q80.5753 493.789 80.5753 485.062 Q80.5753 476.868 84.4642 472.007 Q88.353 467.123 94.9039 467.123 Q96.6632 467.123 98.4456 467.47 Q100.251 467.817 102.196 468.512 Z" fill="#000000" fill-rule="nonzero" fill-opacity="1" /><path clip-path="url(#clip320)" d="M122.496 470.826 Q118.885 470.826 117.057 474.391 Q115.251 477.933 115.251 485.062 Q115.251 492.169 117.057 495.734 Q118.885 499.275 122.496 499.275 Q126.131 499.275 127.936 495.734 Q129.765 492.169 129.765 485.062 Q129.765 477.933 127.936 474.391 Q126.131 470.826 122.496 470.826 M122.496 467.123 Q128.307 467.123 131.362 471.729 Q134.441 476.312 134.441 485.062 Q134.441 493.789 131.362 498.396 Q128.307 502.979 122.496 502.979 Q116.686 502.979 113.608 498.396 Q110.552 493.789 110.552 485.062 Q110.552 476.312 113.608 471.729 Q116.686 467.123 122.496 467.123 Z" fill="#000000" fill-rule="nonzero" fill-opacity="1" /><path clip-path="url(#clip320)" d="M152.658 470.826 Q149.047 470.826 147.218 474.391 Q145.413 477.933 145.413 485.062 Q145.413 492.169 147.218 495.734 Q149.047 499.275 152.658 499.275 Q156.292 499.275 158.098 495.734 Q159.927 492.169 159.927 485.062 Q159.927 477.933 158.098 474.391 Q156.292 470.826 152.658 470.826 M152.658 467.123 Q158.468 467.123 161.524 471.729 Q164.603 476.312 164.603 485.062 Q164.603 493.789 161.524 498.396 Q158.468 502.979 152.658 502.979 Q146.848 502.979 143.769 498.396 Q140.714 493.789 140.714 485.062 Q140.714 476.312 143.769 471.729 Q146.848 467.123 152.658 467.123 Z" fill="#000000" fill-rule="nonzero" fill-opacity="1" /><path clip-path="url(#clip320)" d="M182.82 470.826 Q179.209 470.826 177.38 474.391 Q175.575 477.933 175.575 485.062 Q175.575 492.169 177.38 495.734 Q179.209 499.275 182.82 499.275 Q186.454 499.275 188.26 495.734 Q190.089 492.169 190.089 485.062 Q190.089 477.933 188.26 474.391 Q186.454 470.826 182.82 470.826 M182.82 467.123 Q188.63 467.123 191.686 471.729 Q194.765 476.312 194.765 485.062 Q194.765 493.789 191.686 498.396 Q188.63 502.979 182.82 502.979 Q177.01 502.979 173.931 498.396 Q170.876 493.789 170.876 485.062 Q170.876 476.312 173.931 471.729 Q177.01 467.123 182.82 467.123 Z" fill="#000000" fill-rule="nonzero" fill-opacity="1" /><path clip-path="url(#clip320)" d="M50.9921 198.783 L73.2142 198.783 L73.2142 200.774 L60.668 233.343 L55.7838 233.343 L67.5893 202.718 L50.9921 202.718 L50.9921 198.783 Z" fill="#000000" fill-rule="nonzero" fill-opacity="1" /><path clip-path="url(#clip320)" d="M81.154 198.783 L103.376 198.783 L103.376 200.774 L90.8299 233.343 L85.9456 233.343 L97.7511 202.718 L81.154 202.718 L81.154 198.783 Z" fill="#000000" fill-rule="nonzero" fill-opacity="1" /><path clip-path="url(#clip320)" d="M122.496 201.861 Q118.885 201.861 117.057 205.426 Q115.251 208.968 115.251 216.097 Q115.251 223.204 117.057 226.769 Q118.885 230.31 122.496 230.31 Q126.131 230.31 127.936 226.769 Q129.765 223.204 129.765 216.097 Q129.765 208.968 127.936 205.426 Q126.131 201.861 122.496 201.861 M122.496 198.158 Q128.307 198.158 131.362 202.764 Q134.441 207.348 134.441 216.097 Q134.441 224.824 131.362 229.431 Q128.307 234.014 122.496 234.014 Q116.686 234.014 113.608 229.431 Q110.552 224.824 110.552 216.097 Q110.552 207.348 113.608 202.764 Q116.686 198.158 122.496 198.158 Z" fill="#000000" fill-rule="nonzero" fill-opacity="1" /><path clip-path="url(#clip320)" d="M152.658 201.861 Q149.047 201.861 147.218 205.426 Q145.413 208.968 145.413 216.097 Q145.413 223.204 147.218 226.769 Q149.047 230.31 152.658 230.31 Q156.292 230.31 158.098 226.769 Q159.927 223.204 159.927 216.097 Q159.927 208.968 158.098 205.426 Q156.292 201.861 152.658 201.861 M152.658 198.158 Q158.468 198.158 161.524 202.764 Q164.603 207.348 164.603 216.097 Q164.603 224.824 161.524 229.431 Q158.468 234.014 152.658 234.014 Q146.848 234.014 143.769 229.431 Q140.714 224.824 140.714 216.097 Q140.714 207.348 143.769 202.764 Q146.848 198.158 152.658 198.158 Z" fill="#000000" fill-rule="nonzero" fill-opacity="1" /><path clip-path="url(#clip320)" d="M182.82 201.861 Q179.209 201.861 177.38 205.426 Q175.575 208.968 175.575 216.097 Q175.575 223.204 177.38 226.769 Q179.209 230.31 182.82 230.31 Q186.454 230.31 188.26 226.769 Q190.089 223.204 190.089 216.097 Q190.089 208.968 188.26 205.426 Q186.454 201.861 182.82 201.861 M182.82 198.158 Q188.63 198.158 191.686 202.764 Q194.765 207.348 194.765 216.097 Q194.765 224.824 191.686 229.431 Q188.63 234.014 182.82 234.014 Q177.01 234.014 173.931 229.431 Q170.876 224.824 170.876 216.097 Q170.876 207.348 173.931 202.764 Q177.01 198.158 182.82 198.158 Z" fill="#000000" fill-rule="nonzero" fill-opacity="1" /><path clip-path="url(#clip320)" d="M1262.23 35.2602 Q1262.23 29.4732 1259.83 26.2904 Q1257.46 23.1075 1253.15 23.1075 Q1248.86 23.1075 1246.46 26.2904 Q1244.09 29.4732 1244.09 35.2602 Q1244.09 41.0183 1246.46 44.2012 Q1248.86 47.384 1253.15 47.384 Q1257.46 47.384 1259.83 44.2012 Q1262.23 41.0183 1262.23 35.2602 M1267.56 47.818 Q1267.56 56.0934 1263.88 60.1154 Q1260.21 64.1663 1252.63 64.1663 Q1249.82 64.1663 1247.33 63.7323 Q1244.84 63.3272 1242.5 62.4592 L1242.5 57.2798 Q1244.84 58.5529 1247.13 59.1606 Q1249.41 59.7682 1251.79 59.7682 Q1257.02 59.7682 1259.63 57.0194 Q1262.23 54.2995 1262.23 48.7729 L1262.23 46.1398 Q1260.58 49.0044 1258.01 50.4222 Q1255.43 51.84 1251.84 51.84 Q1245.88 51.84 1242.24 47.2972 Q1238.59 42.7544 1238.59 35.2602 Q1238.59 27.7371 1242.24 23.1943 Q1245.88 18.6515 1251.84 18.6515 Q1255.43 18.6515 1258.01 20.0693 Q1260.58 21.4872 1262.23 24.3517 L1262.23 19.4328 L1267.56 19.4328 L1267.56 47.818 Z" fill="#000000" fill-rule="nonzero" fill-opacity="1" /><path clip-path="url(#clip320)" d="M1299.85 24.3517 L1299.85 6.81709 L1305.17 6.81709 L1305.17 51.84 L1299.85 51.84 L1299.85 46.9789 Q1298.17 49.8724 1295.59 51.2902 Q1293.05 52.6791 1289.46 52.6791 Q1283.59 52.6791 1279.88 47.9916 Q1276.21 43.3042 1276.21 35.6653 Q1276.21 28.0265 1279.88 23.339 Q1283.59 18.6515 1289.46 18.6515 Q1293.05 18.6515 1295.59 20.0693 Q1298.17 21.4582 1299.85 24.3517 M1281.71 35.6653 Q1281.71 41.5391 1284.11 44.8956 Q1286.54 48.2231 1290.76 48.2231 Q1294.99 48.2231 1297.42 44.8956 Q1299.85 41.5391 1299.85 35.6653 Q1299.85 29.7915 1297.42 26.464 Q1294.99 23.1075 1290.76 23.1075 Q1286.54 23.1075 1284.11 26.464 Q1281.71 29.7915 1281.71 35.6653 Z" fill="#000000" fill-rule="nonzero" fill-opacity="1" /><path clip-path="url(#clip320)" d="M1321.29 46.9789 L1321.29 64.1663 L1315.94 64.1663 L1315.94 19.4328 L1321.29 19.4328 L1321.29 24.3517 Q1322.97 21.4582 1325.51 20.0693 Q1328.09 18.6515 1331.65 18.6515 Q1337.55 18.6515 1341.22 23.339 Q1344.93 28.0265 1344.93 35.6653 Q1344.93 43.3042 1341.22 47.9916 Q1337.55 52.6791 1331.65 52.6791 Q1328.09 52.6791 1325.51 51.2902 Q1322.97 49.8724 1321.29 46.9789 M1339.4 35.6653 Q1339.4 29.7915 1336.97 26.464 Q1334.57 23.1075 1330.35 23.1075 Q1326.12 23.1075 1323.69 26.464 Q1321.29 29.7915 1321.29 35.6653 Q1321.29 41.5391 1323.69 44.8956 Q1326.12 48.2231 1330.35 48.2231 Q1334.57 48.2231 1336.97 44.8956 Q1339.4 41.5391 1339.4 35.6653 Z" fill="#000000" fill-rule="nonzero" fill-opacity="1" /><polyline clip-path="url(#clip322)" style="stroke:#009af9; stroke-linecap:round; stroke-linejoin:round; stroke-width:4; stroke-opacity:1; fill:none" points="290.821,1447.38 415.938,1284.58 541.056,1364.71 666.173,1392.47 791.291,1418.68 916.408,1214.03 1041.53,962.763 1166.64,934.255 1291.76,913.953 1416.88,926.56 1542,598.36 1667.11,376.718 1792.23,375.346 1917.35,262.422 2042.46,218.546 2167.58,244.211 2292.7,145.256 "/>
<path clip-path="url(#clip320)" d="M301.498 255.881 L566.127 255.881 L566.127 152.201 L301.498 152.201  Z" fill="#ffffff" fill-rule="evenodd" fill-opacity="1"/>
<polyline clip-path="url(#clip320)" style="stroke:#000000; stroke-linecap:round; stroke-linejoin:round; stroke-width:4; stroke-opacity:1; fill:none" points="301.498,255.881 566.127,255.881 566.127,152.201 301.498,152.201 301.498,255.881 "/>
<polyline clip-path="url(#clip320)" style="stroke:#009af9; stroke-linecap:round; stroke-linejoin:round; stroke-width:4; stroke-opacity:1; fill:none" points="325.075,204.041 466.541,204.041 "/>
<path clip-path="url(#clip320)" d="M503.962 223.728 Q502.156 228.358 500.443 229.77 Q498.73 231.182 495.86 231.182 L492.457 231.182 L492.457 227.617 L494.957 227.617 Q496.716 227.617 497.688 226.784 Q498.661 225.95 499.841 222.848 L500.605 220.904 L490.119 195.395 L494.633 195.395 L502.735 215.673 L510.836 195.395 L515.35 195.395 L503.962 223.728 Z" fill="#000000" fill-rule="nonzero" fill-opacity="1" /><path clip-path="url(#clip320)" d="M522.642 217.385 L530.281 217.385 L530.281 191.02 L521.971 192.687 L521.971 188.427 L530.235 186.761 L534.91 186.761 L534.91 217.385 L542.549 217.385 L542.549 221.321 L522.642 221.321 L522.642 217.385 Z" fill="#000000" fill-rule="nonzero" fill-opacity="1" /></svg>
