<?xml version="1.0" encoding="utf-8"?>
<svg xmlns="http://www.w3.org/2000/svg" xmlns:xlink="http://www.w3.org/1999/xlink" width="600" height="300" viewBox="0 0 2400 1200">
<defs>
  <clipPath id="clip420">
    <rect x="0" y="0" width="2400" height="1200"/>
  </clipPath>
</defs>
<path clip-path="url(#clip420)" d="M0 1200 L2400 1200 L2400 0 L0 0  Z" fill="#ffffff" fill-rule="evenodd" fill-opacity="1"/>
<defs>
  <clipPath id="clip421">
    <rect x="480" y="0" width="1681" height="1200"/>
  </clipPath>
</defs>
<path clip-path="url(#clip420)" d="M216.436 1099.09 L1153.8 1099.09 L1153.8 92.1521 L216.436 92.1521  Z" fill="#ffffff" fill-rule="evenodd" fill-opacity="1"/>
<defs>
  <clipPath id="clip422">
    <rect x="216" y="92" width="938" height="1008"/>
  </clipPath>
</defs>
<polyline clip-path="url(#clip422)" style="stroke:#000000; stroke-linecap:round; stroke-linejoin:round; stroke-width:2; stroke-opacity:0.1; fill:none" points="411.404,1099.09 411.404,92.1521 "/>
<polyline clip-path="url(#clip422)" style="stroke:#000000; stroke-linecap:round; stroke-linejoin:round; stroke-width:2; stroke-opacity:0.1; fill:none" points="621.952,1099.09 621.952,92.1521 "/>
<polyline clip-path="url(#clip422)" style="stroke:#000000; stroke-linecap:round; stroke-linejoin:round; stroke-width:2; stroke-opacity:0.1; fill:none" points="832.501,1099.09 832.501,92.1521 "/>
<polyline clip-path="url(#clip422)" style="stroke:#000000; stroke-linecap:round; stroke-linejoin:round; stroke-width:2; stroke-opacity:0.1; fill:none" points="1043.05,1099.09 1043.05,92.1521 "/>
<polyline clip-path="url(#clip422)" style="stroke:#000000; stroke-linecap:round; stroke-linejoin:round; stroke-width:2; stroke-opacity:0.1; fill:none" points="216.436,1090.52 1153.8,1090.52 "/>
<polyline clip-path="url(#clip422)" style="stroke:#000000; stroke-linecap:round; stroke-linejoin:round; stroke-width:2; stroke-opacity:0.1; fill:none" points="216.436,848.056 1153.8,848.056 "/>
<polyline clip-path="url(#clip422)" style="stroke:#000000; stroke-linecap:round; stroke-linejoin:round; stroke-width:2; stroke-opacity:0.1; fill:none" points="216.436,605.587 1153.8,605.587 "/>
<polyline clip-path="url(#clip422)" style="stroke:#000000; stroke-linecap:round; stroke-linejoin:round; stroke-width:2; stroke-opacity:0.1; fill:none" points="216.436,363.119 1153.8,363.119 "/>
<polyline clip-path="url(#clip422)" style="stroke:#000000; stroke-linecap:round; stroke-linejoin:round; stroke-width:2; stroke-opacity:0.1; fill:none" points="216.436,120.65 1153.8,120.65 "/>
<polyline clip-path="url(#clip420)" style="stroke:#000000; stroke-linecap:round; stroke-linejoin:round; stroke-width:4; stroke-opacity:1; fill:none" points="216.436,1099.09 1153.8,1099.09 "/>
<polyline clip-path="url(#clip420)" style="stroke:#000000; stroke-linecap:round; stroke-linejoin:round; stroke-width:4; stroke-opacity:1; fill:none" points="411.404,1099.09 411.404,1080.19 "/>
<polyline clip-path="url(#clip420)" style="stroke:#000000; stroke-linecap:round; stroke-linejoin:round; stroke-width:4; stroke-opacity:1; fill:none" points="621.952,1099.09 621.952,1080.19 "/>
<polyline clip-path="url(#clip420)" style="stroke:#000000; stroke-linecap:round; stroke-linejoin:round; stroke-width:4; stroke-opacity:1; fill:none" points="832.501,1099.09 832.501,1080.19 "/>
<polyline clip-path="url(#clip420)" style="stroke:#000000; stroke-linecap:round; stroke-linejoin:round; stroke-width:4; stroke-opacity:1; fill:none" points="1043.05,1099.09 1043.05,1080.19 "/>
<path clip-path="url(#clip420)" d="M401.682 1126.93 L420.038 1126.93 L420.038 1130.86 L405.964 1130.86 L405.964 1139.34 Q406.982 1138.99 408.001 1138.83 Q409.019 1138.64 410.038 1138.64 Q415.825 1138.64 419.205 1141.81 Q422.584 1144.98 422.584 1150.4 Q422.584 1155.98 419.112 1159.08 Q415.64 1162.16 409.32 1162.16 Q407.145 1162.16 404.876 1161.79 Q402.631 1161.42 400.223 1160.68 L400.223 1155.98 Q402.307 1157.11 404.529 1157.67 Q406.751 1158.22 409.228 1158.22 Q413.232 1158.22 415.57 1156.12 Q417.908 1154.01 417.908 1150.4 Q417.908 1146.79 415.57 1144.68 Q413.232 1142.58 409.228 1142.58 Q407.353 1142.58 405.478 1142.99 Q403.626 1143.41 401.682 1144.29 L401.682 1126.93 Z" fill="#000000" fill-rule="nonzero" fill-opacity="1" /><path clip-path="url(#clip420)" d="M596.64 1157.55 L604.279 1157.55 L604.279 1131.19 L595.969 1132.85 L595.969 1128.59 L604.232 1126.93 L608.908 1126.93 L608.908 1157.55 L616.547 1157.55 L616.547 1161.49 L596.64 1161.49 L596.64 1157.55 Z" fill="#000000" fill-rule="nonzero" fill-opacity="1" /><path clip-path="url(#clip420)" d="M635.991 1130.01 Q632.38 1130.01 630.552 1133.57 Q628.746 1137.11 628.746 1144.24 Q628.746 1151.35 630.552 1154.91 Q632.38 1158.46 635.991 1158.46 Q639.626 1158.46 641.431 1154.91 Q643.26 1151.35 643.26 1144.24 Q643.26 1137.11 641.431 1133.57 Q639.626 1130.01 635.991 1130.01 M635.991 1126.3 Q641.802 1126.3 644.857 1130.91 Q647.936 1135.49 647.936 1144.24 Q647.936 1152.97 644.857 1157.58 Q641.802 1162.16 635.991 1162.16 Q630.181 1162.16 627.103 1157.58 Q624.047 1152.97 624.047 1144.24 Q624.047 1135.49 627.103 1130.91 Q630.181 1126.3 635.991 1126.3 Z" fill="#000000" fill-rule="nonzero" fill-opacity="1" /><path clip-path="url(#clip420)" d="M807.686 1157.55 L815.325 1157.55 L815.325 1131.19 L807.015 1132.85 L807.015 1128.59 L815.279 1126.93 L819.954 1126.93 L819.954 1157.55 L827.593 1157.55 L827.593 1161.49 L807.686 1161.49 L807.686 1157.55 Z" fill="#000000" fill-rule="nonzero" fill-opacity="1" /><path clip-path="url(#clip420)" d="M837.084 1126.93 L855.44 1126.93 L855.44 1130.86 L841.366 1130.86 L841.366 1139.34 Q842.385 1138.99 843.403 1138.83 Q844.422 1138.64 845.44 1138.64 Q851.227 1138.64 854.607 1141.81 Q857.987 1144.98 857.987 1150.4 Q857.987 1155.98 854.514 1159.08 Q851.042 1162.16 844.723 1162.16 Q842.547 1162.16 840.278 1161.79 Q838.033 1161.42 835.626 1160.68 L835.626 1155.98 Q837.709 1157.11 839.931 1157.67 Q842.153 1158.22 844.63 1158.22 Q848.635 1158.22 850.973 1156.12 Q853.311 1154.01 853.311 1150.4 Q853.311 1146.79 850.973 1144.68 Q848.635 1142.58 844.63 1142.58 Q842.755 1142.58 840.88 1142.99 Q839.028 1143.41 837.084 1144.29 L837.084 1126.93 Z" fill="#000000" fill-rule="nonzero" fill-opacity="1" /><path clip-path="url(#clip420)" d="M1021.82 1157.55 L1038.14 1157.55 L1038.14 1161.49 L1016.2 1161.49 L1016.2 1157.55 Q1018.86 1154.8 1023.44 1150.17 Q1028.05 1145.52 1029.23 1144.17 Q1031.48 1141.65 1032.35 1139.91 Q1033.26 1138.15 1033.26 1136.46 Q1033.26 1133.71 1031.31 1131.97 Q1029.39 1130.24 1026.29 1130.24 Q1024.09 1130.24 1021.64 1131 Q1019.21 1131.77 1016.43 1133.32 L1016.43 1128.59 Q1019.25 1127.46 1021.71 1126.88 Q1024.16 1126.3 1026.2 1126.3 Q1031.57 1126.3 1034.76 1128.99 Q1037.96 1131.67 1037.96 1136.16 Q1037.96 1138.29 1037.15 1140.21 Q1036.36 1142.11 1034.25 1144.71 Q1033.67 1145.38 1030.57 1148.59 Q1027.47 1151.79 1021.82 1157.55 Z" fill="#000000" fill-rule="nonzero" fill-opacity="1" /><path clip-path="url(#clip420)" d="M1057.96 1130.01 Q1054.35 1130.01 1052.52 1133.57 Q1050.71 1137.11 1050.71 1144.24 Q1050.71 1151.35 1052.52 1154.91 Q1054.35 1158.46 1057.96 1158.46 Q1061.59 1158.46 1063.4 1154.91 Q1065.22 1151.35 1065.22 1144.24 Q1065.22 1137.11 1063.4 1133.57 Q1061.59 1130.01 1057.96 1130.01 M1057.96 1126.3 Q1063.77 1126.3 1066.82 1130.91 Q1069.9 1135.49 1069.9 1144.24 Q1069.9 1152.97 1066.82 1157.58 Q1063.77 1162.16 1057.96 1162.16 Q1052.15 1162.16 1049.07 1157.58 Q1046.01 1152.97 1046.01 1144.24 Q1046.01 1135.49 1049.07 1130.91 Q1052.15 1126.3 1057.96 1126.3 Z" fill="#000000" fill-rule="nonzero" fill-opacity="1" /><polyline clip-path="url(#clip420)" style="stroke:#000000; stroke-linecap:round; stroke-linejoin:round; stroke-width:4; stroke-opacity:1; fill:none" points="216.436,1099.09 216.436,92.1521 "/>
<polyline clip-path="url(#clip420)" style="stroke:#000000; stroke-linecap:round; stroke-linejoin:round; stroke-width:4; stroke-opacity:1; fill:none" points="216.436,1090.52 235.334,1090.52 "/>
<polyline clip-path="url(#clip420)" style="stroke:#000000; stroke-linecap:round; stroke-linejoin:round; stroke-width:4; stroke-opacity:1; fill:none" points="216.436,848.056 235.334,848.056 "/>
<polyline clip-path="url(#clip420)" style="stroke:#000000; stroke-linecap:round; stroke-linejoin:round; stroke-width:4; stroke-opacity:1; fill:none" points="216.436,605.587 235.334,605.587 "/>
<polyline clip-path="url(#clip420)" style="stroke:#000000; stroke-linecap:round; stroke-linejoin:round; stroke-width:4; stroke-opacity:1; fill:none" points="216.436,363.119 235.334,363.119 "/>
<polyline clip-path="url(#clip420)" style="stroke:#000000; stroke-linecap:round; stroke-linejoin:round; stroke-width:4; stroke-opacity:1; fill:none" points="216.436,120.65 235.334,120.65 "/>
<path clip-path="url(#clip420)" d="M62.9365 1076.32 Q59.3254 1076.32 57.4967 1079.89 Q55.6912 1083.43 55.6912 1090.56 Q55.6912 1097.67 57.4967 1101.23 Q59.3254 1104.77 62.9365 1104.77 Q66.5707 1104.77 68.3763 1101.23 Q70.205 1097.67 70.205 1090.56 Q70.205 1083.43 68.3763 1079.89 Q66.5707 1076.32 62.9365 1076.32 M62.9365 1072.62 Q68.7467 1072.62 71.8022 1077.23 Q74.8809 1081.81 74.8809 1090.56 Q74.8809 1099.29 71.8022 1103.89 Q68.7467 1108.48 62.9365 1108.48 Q57.1264 1108.48 54.0477 1103.89 Q50.9921 1099.29 50.9921 1090.56 Q50.9921 1081.81 54.0477 1077.23 Q57.1264 1072.62 62.9365 1072.62 Z" fill="#000000" fill-rule="nonzero" fill-opacity="1" /><path clip-path="url(#clip420)" d="M83.0984 1101.92 L87.9827 1101.92 L87.9827 1107.8 L83.0984 1107.8 L83.0984 1101.92 Z" fill="#000000" fill-rule="nonzero" fill-opacity="1" /><path clip-path="url(#clip420)" d="M108.168 1076.32 Q104.557 1076.32 102.728 1079.89 Q100.922 1083.43 100.922 1090.56 Q100.922 1097.67 102.728 1101.23 Q104.557 1104.77 108.168 1104.77 Q111.802 1104.77 113.608 1101.23 Q115.436 1097.67 115.436 1090.56 Q115.436 1083.43 113.608 1079.89 Q111.802 1076.32 108.168 1076.32 M108.168 1072.62 Q113.978 1072.62 117.033 1077.23 Q120.112 1081.81 120.112 1090.56 Q120.112 1099.29 117.033 1103.89 Q113.978 1108.48 108.168 1108.48 Q102.358 1108.48 99.2789 1103.89 Q96.2234 1099.29 96.2234 1090.56 Q96.2234 1081.81 99.2789 1077.23 Q102.358 1072.62 108.168 1072.62 Z" fill="#000000" fill-rule="nonzero" fill-opacity="1" /><path clip-path="url(#clip420)" d="M138.33 1076.32 Q134.719 1076.32 132.89 1079.89 Q131.084 1083.43 131.084 1090.56 Q131.084 1097.67 132.89 1101.23 Q134.719 1104.77 138.33 1104.77 Q141.964 1104.77 143.769 1101.23 Q145.598 1097.67 145.598 1090.56 Q145.598 1083.43 143.769 1079.89 Q141.964 1076.32 138.33 1076.32 M138.33 1072.62 Q144.14 1072.62 147.195 1077.23 Q150.274 1081.81 150.274 1090.56 Q150.274 1099.29 147.195 1103.89 Q144.14 1108.48 138.33 1108.48 Q132.519 1108.48 129.441 1103.89 Q126.385 1099.29 126.385 1090.56 Q126.385 1081.81 129.441 1077.23 Q132.519 1072.62 138.33 1072.62 Z" fill="#000000" fill-rule="nonzero" fill-opacity="1" /><path clip-path="url(#clip420)" d="M168.491 1076.32 Q164.88 1076.32 163.052 1079.89 Q161.246 1083.43 161.246 1090.56 Q161.246 1097.67 163.052 1101.23 Q164.88 1104.77 168.491 1104.77 Q172.126 1104.77 173.931 1101.23 Q175.76 1097.67 175.76 1090.56 Q175.76 1083.43 173.931 1079.89 Q172.126 1076.32 168.491 1076.32 M168.491 1072.62 Q174.302 1072.62 177.357 1077.23 Q180.436 1081.81 180.436 1090.56 Q180.436 1099.29 177.357 1103.89 Q174.302 1108.48 168.491 1108.48 Q162.681 1108.48 159.603 1103.89 Q156.547 1099.29 156.547 1090.56 Q156.547 1081.81 159.603 1077.23 Q162.681 1072.62 168.491 1072.62 Z" fill="#000000" fill-rule="nonzero" fill-opacity="1" /><path clip-path="url(#clip420)" d="M63.9319 833.854 Q60.3208 833.854 58.4921 837.419 Q56.6865 840.961 56.6865 848.09 Q56.6865 855.197 58.4921 858.762 Q60.3208 862.303 63.9319 862.303 Q67.5661 862.303 69.3717 858.762 Q71.2004 855.197 71.2004 848.09 Q71.2004 840.961 69.3717 837.419 Q67.5661 833.854 63.9319 833.854 M63.9319 830.151 Q69.742 830.151 72.7976 834.757 Q75.8763 839.341 75.8763 848.09 Q75.8763 856.817 72.7976 861.424 Q69.742 866.007 63.9319 866.007 Q58.1217 866.007 55.043 861.424 Q51.9875 856.817 51.9875 848.09 Q51.9875 839.341 55.043 834.757 Q58.1217 830.151 63.9319 830.151 Z" fill="#000000" fill-rule="nonzero" fill-opacity="1" /><path clip-path="url(#clip420)" d="M84.0938 859.456 L88.978 859.456 L88.978 865.336 L84.0938 865.336 L84.0938 859.456 Z" fill="#000000" fill-rule="nonzero" fill-opacity="1" /><path clip-path="url(#clip420)" d="M109.163 833.854 Q105.552 833.854 103.723 837.419 Q101.918 840.961 101.918 848.09 Q101.918 855.197 103.723 858.762 Q105.552 862.303 109.163 862.303 Q112.797 862.303 114.603 858.762 Q116.432 855.197 116.432 848.09 Q116.432 840.961 114.603 837.419 Q112.797 833.854 109.163 833.854 M109.163 830.151 Q114.973 830.151 118.029 834.757 Q121.107 839.341 121.107 848.09 Q121.107 856.817 118.029 861.424 Q114.973 866.007 109.163 866.007 Q103.353 866.007 100.274 861.424 Q97.2187 856.817 97.2187 848.09 Q97.2187 839.341 100.274 834.757 Q103.353 830.151 109.163 830.151 Z" fill="#000000" fill-rule="nonzero" fill-opacity="1" /><path clip-path="url(#clip420)" d="M139.325 833.854 Q135.714 833.854 133.885 837.419 Q132.08 840.961 132.08 848.09 Q132.08 855.197 133.885 858.762 Q135.714 862.303 139.325 862.303 Q142.959 862.303 144.765 858.762 Q146.593 855.197 146.593 848.09 Q146.593 840.961 144.765 837.419 Q142.959 833.854 139.325 833.854 M139.325 830.151 Q145.135 830.151 148.191 834.757 Q151.269 839.341 151.269 848.09 Q151.269 856.817 148.191 861.424 Q145.135 866.007 139.325 866.007 Q133.515 866.007 130.436 861.424 Q127.381 856.817 127.381 848.09 Q127.381 839.341 130.436 834.757 Q133.515 830.151 139.325 830.151 Z" fill="#000000" fill-rule="nonzero" fill-opacity="1" /><path clip-path="url(#clip420)" d="M159.533 830.776 L177.89 830.776 L177.89 834.711 L163.816 834.711 L163.816 843.183 Q164.834 842.836 165.853 842.674 Q166.871 842.489 167.89 842.489 Q173.677 842.489 177.056 845.66 Q180.436 848.831 180.436 854.248 Q180.436 859.827 176.964 862.928 Q173.491 866.007 167.172 866.007 Q164.996 866.007 162.728 865.637 Q160.482 865.266 158.075 864.526 L158.075 859.827 Q160.158 860.961 162.38 861.516 Q164.603 862.072 167.079 862.072 Q171.084 862.072 173.422 859.965 Q175.76 857.859 175.76 854.248 Q175.76 850.637 173.422 848.53 Q171.084 846.424 167.079 846.424 Q165.204 846.424 163.329 846.84 Q161.478 847.257 159.533 848.137 L159.533 830.776 Z" fill="#000000" fill-rule="nonzero" fill-opacity="1" /><path clip-path="url(#clip420)" d="M62.9365 591.386 Q59.3254 591.386 57.4967 594.951 Q55.6912 598.492 55.6912 605.622 Q55.6912 612.728 57.4967 616.293 Q59.3254 619.835 62.9365 619.835 Q66.5707 619.835 68.3763 616.293 Q70.205 612.728 70.205 605.622 Q70.205 598.492 68.3763 594.951 Q66.5707 591.386 62.9365 591.386 M62.9365 587.682 Q68.7467 587.682 71.8022 592.289 Q74.8809 596.872 74.8809 605.622 Q74.8809 614.349 71.8022 618.955 Q68.7467 623.539 62.9365 623.539 Q57.1264 623.539 54.0477 618.955 Q50.9921 614.349 50.9921 605.622 Q50.9921 596.872 54.0477 592.289 Q57.1264 587.682 62.9365 587.682 Z" fill="#000000" fill-rule="nonzero" fill-opacity="1" /><path clip-path="url(#clip420)" d="M83.0984 616.988 L87.9827 616.988 L87.9827 622.867 L83.0984 622.867 L83.0984 616.988 Z" fill="#000000" fill-rule="nonzero" fill-opacity="1" /><path clip-path="url(#clip420)" d="M108.168 591.386 Q104.557 591.386 102.728 594.951 Q100.922 598.492 100.922 605.622 Q100.922 612.728 102.728 616.293 Q104.557 619.835 108.168 619.835 Q111.802 619.835 113.608 616.293 Q115.436 612.728 115.436 605.622 Q115.436 598.492 113.608 594.951 Q111.802 591.386 108.168 591.386 M108.168 587.682 Q113.978 587.682 117.033 592.289 Q120.112 596.872 120.112 605.622 Q120.112 614.349 117.033 618.955 Q113.978 623.539 108.168 623.539 Q102.358 623.539 99.2789 618.955 Q96.2234 614.349 96.2234 605.622 Q96.2234 596.872 99.2789 592.289 Q102.358 587.682 108.168 587.682 Z" fill="#000000" fill-rule="nonzero" fill-opacity="1" /><path clip-path="url(#clip420)" d="M129.14 618.932 L136.779 618.932 L136.779 592.567 L128.469 594.233 L128.469 589.974 L136.732 588.307 L141.408 588.307 L141.408 618.932 L149.047 618.932 L149.047 622.867 L129.14 622.867 L129.14 618.932 Z" fill="#000000" fill-rule="nonzero" fill-opacity="1" /><path clip-path="url(#clip420)" d="M168.491 591.386 Q164.88 591.386 163.052 594.951 Q161.246 598.492 161.246 605.622 Q161.246 612.728 163.052 616.293 Q164.88 619.835 168.491 619.835 Q172.126 619.835 173.931 616.293 Q175.76 612.728 175.76 605.622 Q175.76 598.492 173.931 594.951 Q172.126 591.386 168.491 591.386 M168.491 587.682 Q174.302 587.682 177.357 592.289 Q180.436 596.872 180.436 605.622 Q180.436 614.349 177.357 618.955 Q174.302 623.539 168.491 623.539 Q162.681 623.539 159.603 618.955 Q156.547 614.349 156.547 605.622 Q156.547 596.872 159.603 592.289 Q162.681 587.682 168.491 587.682 Z" fill="#000000" fill-rule="nonzero" fill-opacity="1" /><path clip-path="url(#clip420)" d="M63.9319 348.917 Q60.3208 348.917 58.4921 352.482 Q56.6865 356.024 56.6865 363.154 Q56.6865 370.26 58.4921 373.825 Q60.3208 377.366 63.9319 377.366 Q67.5661 377.366 69.3717 373.825 Q71.2004 370.26 71.2004 363.154 Q71.2004 356.024 69.3717 352.482 Q67.5661 348.917 63.9319 348.917 M63.9319 345.214 Q69.742 345.214 72.7976 349.82 Q75.8763 354.404 75.8763 363.154 Q75.8763 371.88 72.7976 376.487 Q69.742 381.07 63.9319 381.07 Q58.1217 381.07 55.043 376.487 Q51.9875 371.88 51.9875 363.154 Q51.9875 354.404 55.043 349.82 Q58.1217 345.214 63.9319 345.214 Z" fill="#000000" fill-rule="nonzero" fill-opacity="1" /><path clip-path="url(#clip420)" d="M84.0938 374.519 L88.978 374.519 L88.978 380.399 L84.0938 380.399 L84.0938 374.519 Z" fill="#000000" fill-rule="nonzero" fill-opacity="1" /><path clip-path="url(#clip420)" d="M109.163 348.917 Q105.552 348.917 103.723 352.482 Q101.918 356.024 101.918 363.154 Q101.918 370.26 103.723 373.825 Q105.552 377.366 109.163 377.366 Q112.797 377.366 114.603 373.825 Q116.432 370.26 116.432 363.154 Q116.432 356.024 114.603 352.482 Q112.797 348.917 109.163 348.917 M109.163 345.214 Q114.973 345.214 118.029 349.82 Q121.107 354.404 121.107 363.154 Q121.107 371.88 118.029 376.487 Q114.973 381.07 109.163 381.07 Q103.353 381.07 100.274 376.487 Q97.2187 371.88 97.2187 363.154 Q97.2187 354.404 100.274 349.82 Q103.353 345.214 109.163 345.214 Z" fill="#000000" fill-rule="nonzero" fill-opacity="1" /><path clip-path="url(#clip420)" d="M130.135 376.464 L137.774 376.464 L137.774 350.098 L129.464 351.765 L129.464 347.505 L137.728 345.839 L142.404 345.839 L142.404 376.464 L150.043 376.464 L150.043 380.399 L130.135 380.399 L130.135 376.464 Z" fill="#000000" fill-rule="nonzero" fill-opacity="1" /><path clip-path="url(#clip420)" d="M159.533 345.839 L177.89 345.839 L177.89 349.774 L163.816 349.774 L163.816 358.246 Q164.834 357.899 165.853 357.737 Q166.871 357.552 167.89 357.552 Q173.677 357.552 177.056 360.723 Q180.436 363.894 180.436 369.311 Q180.436 374.89 176.964 377.991 Q173.491 381.07 167.172 381.07 Q164.996 381.07 162.728 380.7 Q160.482 380.329 158.075 379.589 L158.075 374.89 Q160.158 376.024 162.38 376.579 Q164.603 377.135 167.079 377.135 Q171.084 377.135 173.422 375.028 Q175.76 372.922 175.76 369.311 Q175.76 365.7 173.422 363.593 Q171.084 361.487 167.079 361.487 Q165.204 361.487 163.329 361.904 Q161.478 362.32 159.533 363.2 L159.533 345.839 Z" fill="#000000" fill-rule="nonzero" fill-opacity="1" /><path clip-path="url(#clip420)" d="M62.9365 106.449 Q59.3254 106.449 57.4967 110.014 Q55.6912 113.555 55.6912 120.685 Q55.6912 127.791 57.4967 131.356 Q59.3254 134.898 62.9365 134.898 Q66.5707 134.898 68.3763 131.356 Q70.205 127.791 70.205 120.685 Q70.205 113.555 68.3763 110.014 Q66.5707 106.449 62.9365 106.449 M62.9365 102.745 Q68.7467 102.745 71.8022 107.352 Q74.8809 111.935 74.8809 120.685 Q74.8809 129.412 71.8022 134.018 Q68.7467 138.602 62.9365 138.602 Q57.1264 138.602 54.0477 134.018 Q50.9921 129.412 50.9921 120.685 Q50.9921 111.935 54.0477 107.352 Q57.1264 102.745 62.9365 102.745 Z" fill="#000000" fill-rule="nonzero" fill-opacity="1" /><path clip-path="url(#clip420)" d="M83.0984 132.051 L87.9827 132.051 L87.9827 137.93 L83.0984 137.93 L83.0984 132.051 Z" fill="#000000" fill-rule="nonzero" fill-opacity="1" /><path clip-path="url(#clip420)" d="M108.168 106.449 Q104.557 106.449 102.728 110.014 Q100.922 113.555 100.922 120.685 Q100.922 127.791 102.728 131.356 Q104.557 134.898 108.168 134.898 Q111.802 134.898 113.608 131.356 Q115.436 127.791 115.436 120.685 Q115.436 113.555 113.608 110.014 Q111.802 106.449 108.168 106.449 M108.168 102.745 Q113.978 102.745 117.033 107.352 Q120.112 111.935 120.112 120.685 Q120.112 129.412 117.033 134.018 Q113.978 138.602 108.168 138.602 Q102.358 138.602 99.2789 134.018 Q96.2234 129.412 96.2234 120.685 Q96.2234 111.935 99.2789 107.352 Q102.358 102.745 108.168 102.745 Z" fill="#000000" fill-rule="nonzero" fill-opacity="1" /><path clip-path="url(#clip420)" d="M132.357 133.995 L148.677 133.995 L148.677 137.93 L126.732 137.93 L126.732 133.995 Q129.394 131.241 133.978 126.611 Q138.584 121.958 139.765 120.616 Q142.01 118.092 142.89 116.356 Q143.793 114.597 143.793 112.907 Q143.793 110.153 141.848 108.417 Q139.927 106.68 136.825 106.68 Q134.626 106.68 132.172 107.444 Q129.742 108.208 126.964 109.759 L126.964 105.037 Q129.788 103.903 132.242 103.324 Q134.695 102.745 136.732 102.745 Q142.103 102.745 145.297 105.43 Q148.492 108.116 148.492 112.606 Q148.492 114.736 147.681 116.657 Q146.894 118.555 144.788 121.148 Q144.209 121.819 141.107 125.037 Q138.006 128.231 132.357 133.995 Z" fill="#000000" fill-rule="nonzero" fill-opacity="1" /><path clip-path="url(#clip420)" d="M168.491 106.449 Q164.88 106.449 163.052 110.014 Q161.246 113.555 161.246 120.685 Q161.246 127.791 163.052 131.356 Q164.88 134.898 168.491 134.898 Q172.126 134.898 173.931 131.356 Q175.76 127.791 175.76 120.685 Q175.76 113.555 173.931 110.014 Q172.126 106.449 168.491 106.449 M168.491 102.745 Q174.302 102.745 177.357 107.352 Q180.436 111.935 180.436 120.685 Q180.436 129.412 177.357 134.018 Q174.302 138.602 168.491 138.602 Q162.681 138.602 159.603 134.018 Q156.547 129.412 156.547 120.685 Q156.547 111.935 159.603 107.352 Q162.681 102.745 168.491 102.745 Z" fill="#000000" fill-rule="nonzero" fill-opacity="1" /><path clip-path="url(#clip420)" d="M617.734 30.8748 L617.734 33.2186 L595.703 33.2186 Q596.016 38.1665 598.672 40.7706 Q601.354 43.3487 606.12 43.3487 Q608.88 43.3487 611.458 42.6716 Q614.062 41.9946 616.614 40.6404 L616.614 45.1716 Q614.036 46.2654 611.328 46.8383 Q608.62 47.4112 605.833 47.4112 Q598.854 47.4112 594.766 43.3487 Q590.703 39.2862 590.703 32.3592 Q590.703 25.1978 594.557 21.0051 Q598.437 16.7864 605 16.7864 Q610.885 16.7864 614.297 20.5884 Q617.734 24.3645 617.734 30.8748 M612.943 29.4686 Q612.891 25.5363 610.729 23.1926 Q608.594 20.8488 605.052 20.8488 Q601.042 20.8488 598.62 23.1145 Q596.224 25.3801 595.859 29.4946 L612.943 29.4686 Z" fill="#000000" fill-rule="nonzero" fill-opacity="1" /><path clip-path="url(#clip420)" d="M625.104 35.1456 L625.104 17.4895 L629.896 17.4895 L629.896 34.9634 Q629.896 39.104 631.51 41.1873 Q633.125 43.2446 636.354 43.2446 Q640.234 43.2446 642.474 40.7706 Q644.739 38.2967 644.739 34.0259 L644.739 17.4895 L649.531 17.4895 L649.531 46.656 L644.739 46.656 L644.739 42.1769 Q642.995 44.8331 640.677 46.1352 Q638.385 47.4112 635.338 47.4112 Q630.312 47.4112 627.708 44.2862 Q625.104 41.1612 625.104 35.1456 M637.161 16.7864 L637.161 16.7864 Z" fill="#000000" fill-rule="nonzero" fill-opacity="1" /><path clip-path="url(#clip420)" d="M676.302 21.9686 Q675.494 21.4999 674.531 21.2916 Q673.593 21.0572 672.448 21.0572 Q668.385 21.0572 666.198 23.7134 Q664.036 26.3436 664.036 31.2915 L664.036 46.656 L659.218 46.656 L659.218 17.4895 L664.036 17.4895 L664.036 22.0207 Q665.547 19.3645 667.968 18.0884 Q670.39 16.7864 673.854 16.7864 Q674.349 16.7864 674.948 16.8645 Q675.546 16.9166 676.276 17.0468 L676.302 21.9686 Z" fill="#000000" fill-rule="nonzero" fill-opacity="1" /><path clip-path="url(#clip420)" d="M681.328 17.4895 L686.119 17.4895 L686.119 46.656 L681.328 46.656 L681.328 17.4895 M681.328 6.13538 L686.119 6.13538 L686.119 12.2031 L681.328 12.2031 L681.328 6.13538 Z" fill="#000000" fill-rule="nonzero" fill-opacity="1" /><path clip-path="url(#clip420)" d="M717.083 32.0988 Q717.083 26.8124 714.895 23.8176 Q712.734 20.7968 708.932 20.7968 Q705.13 20.7968 702.942 23.8176 Q700.781 26.8124 700.781 32.0988 Q700.781 37.3852 702.942 40.406 Q705.13 43.4008 708.932 43.4008 Q712.734 43.4008 714.895 40.406 Q717.083 37.3852 717.083 32.0988 M700.781 21.9165 Q702.291 19.3124 704.583 18.0624 Q706.9 16.7864 710.104 16.7864 Q715.416 16.7864 718.723 21.0051 Q722.057 25.2238 722.057 32.0988 Q722.057 38.9737 718.723 43.1925 Q715.416 47.4112 710.104 47.4112 Q706.9 47.4112 704.583 46.1612 Q702.291 44.8852 700.781 42.281 L700.781 46.656 L695.963 46.656 L695.963 6.13538 L700.781 6.13538 L700.781 21.9165 Z" fill="#000000" fill-rule="nonzero" fill-opacity="1" /><path clip-path="url(#clip420)" d="M741.301 20.8488 Q737.447 20.8488 735.208 23.8697 Q732.968 26.8644 732.968 32.0988 Q732.968 37.3331 735.182 40.354 Q737.421 43.3487 741.301 43.3487 Q745.129 43.3487 747.369 40.3279 Q749.609 37.3071 749.609 32.0988 Q749.609 26.9165 747.369 23.8957 Q745.129 20.8488 741.301 20.8488 M741.301 16.7864 Q747.551 16.7864 751.119 20.8488 Q754.687 24.9113 754.687 32.0988 Q754.687 39.2602 751.119 43.3487 Q747.551 47.4112 741.301 47.4112 Q735.025 47.4112 731.458 43.3487 Q727.916 39.2602 727.916 32.0988 Q727.916 24.9113 731.458 20.8488 Q735.025 16.7864 741.301 16.7864 Z" fill="#000000" fill-rule="nonzero" fill-opacity="1" /><path clip-path="url(#clip420)" d="M779.53 21.9686 Q778.723 21.4999 777.759 21.2916 Q776.822 21.0572 775.676 21.0572 Q771.614 21.0572 769.426 23.7134 Q767.265 26.3436 767.265 31.2915 L767.265 46.656 L762.447 46.656 L762.447 17.4895 L767.265 17.4895 L767.265 22.0207 Q768.775 19.3645 771.197 18.0884 Q773.619 16.7864 777.082 16.7864 Q777.577 16.7864 778.176 16.8645 Q778.775 16.9166 779.504 17.0468 L779.53 21.9686 Z" fill="#000000" fill-rule="nonzero" fill-opacity="1" /><path clip-path="url(#clip422)" d="M242.965 1010.71 L285.075 1010.71 L327.184 981.36 L369.294 947.027 L411.404 965.678 L453.513 965.064 L495.623 974.945 L537.733 969.631 L579.842 951.744 L621.952 932.537 L664.062 1002.47 L706.172 1037.73 L748.281 1038.83 L790.391 1029.04 L832.501 1037.42 L874.61 1027.47 L916.72 1013.52 L958.83 992.57 L1000.94 996.167 L1043.05 1039.55 L1085.16 1069.88 L1127.27 1070.59 L1127.27 1005.19 L1085.16 983.565 L1043.05 953.151 L1000.94 971.575 L958.83 932.245 L916.72 953.797 L874.61 934.582 L832.501 949.242 L790.391 918.433 L748.281 922.559 L706.172 887.754 L664.062 870.543 L621.952 879.663 L579.842 914.289 L537.733 914.247 L495.623 885.666 L453.513 920.352 L411.404 925.013 L369.294 925.689 L327.184 950.592 L285.075 1010.71 L242.965 1010.71  Z" fill="#009af9" fill-rule="evenodd" fill-opacity="0.1"/>
<polyline clip-path="url(#clip422)" style="stroke:#009af9; stroke-linecap:round; stroke-linejoin:round; stroke-width:4; stroke-opacity:1; fill:none" points="242.965,1010.71 285.075,1010.71 327.184,965.976 369.294,936.358 411.404,945.346 453.513,942.708 495.623,930.305 537.733,941.939 579.842,933.017 621.952,906.1 664.062,936.505 706.172,962.743 748.281,980.696 790.391,973.736 832.501,993.332 874.61,981.026 916.72,983.658 958.83,962.408 1000.94,983.871 1043.05,996.351 1085.16,1026.72 1127.27,1037.89 "/>
<path clip-path="url(#clip422)" d="M242.965 1010.71 L285.075 1010.71 L327.184 120.65 L369.294 120.65 L411.404 120.65 L453.513 120.65 L495.623 120.65 L537.733 120.65 L579.842 120.65 L621.952 120.65 L664.062 120.65 L706.172 120.65 L748.281 120.65 L790.391 120.65 L832.501 120.65 L874.61 120.65 L916.72 120.65 L958.83 120.65 L1000.94 120.65 L1043.05 120.65 L1085.16 120.65 L1127.27 120.65 L1127.27 120.65 L1085.16 120.65 L1043.05 120.65 L1000.94 120.65 L958.83 120.65 L916.72 120.65 L874.61 120.65 L832.501 120.65 L790.391 120.65 L748.281 120.65 L706.172 120.65 L664.062 120.65 L621.952 120.65 L579.842 120.65 L537.733 120.65 L495.623 120.65 L453.513 120.65 L411.404 120.65 L369.294 120.65 L327.184 120.65 L285.075 1010.71 L242.965 1010.71  Z" fill="#e26f46" fill-rule="evenodd" fill-opacity="0.1"/>
<polyline clip-path="url(#clip422)" style="stroke:#e26f46; stroke-linecap:round; stroke-linejoin:round; stroke-width:4; stroke-opacity:1; fill:none" points="242.965,1010.71 285.075,1010.71 327.184,120.65 369.294,120.65 411.404,120.65 453.513,120.65 495.623,120.65 537.733,120.65 579.842,120.65 621.952,120.65 664.062,120.65 706.172,120.65 748.281,120.65 790.391,120.65 832.501,120.65 874.61,120.65 916.72,120.65 958.83,120.65 1000.94,120.65 1043.05,120.65 1085.16,120.65 1127.27,120.65 "/>
<path clip-path="url(#clip420)" d="M1415.39 1099.09 L2352.76 1099.09 L2352.76 92.1521 L1415.39 92.1521  Z" fill="#ffffff" fill-rule="evenodd" fill-opacity="1"/>
<defs>
  <clipPath id="clip423">
    <rect x="1415" y="92" width="938" height="1008"/>
  </clipPath>
</defs>
<polyline clip-path="url(#clip423)" style="stroke:#000000; stroke-linecap:round; stroke-linejoin:round; stroke-width:2; stroke-opacity:0.1; fill:none" points="1610.36,1099.09 1610.36,92.1521 "/>
<polyline clip-path="url(#clip423)" style="stroke:#000000; stroke-linecap:round; stroke-linejoin:round; stroke-width:2; stroke-opacity:0.1; fill:none" points="1820.91,1099.09 1820.91,92.1521 "/>
<polyline clip-path="url(#clip423)" style="stroke:#000000; stroke-linecap:round; stroke-linejoin:round; stroke-width:2; stroke-opacity:0.1; fill:none" points="2031.46,1099.09 2031.46,92.1521 "/>
<polyline clip-path="url(#clip423)" style="stroke:#000000; stroke-linecap:round; stroke-linejoin:round; stroke-width:2; stroke-opacity:0.1; fill:none" points="2242.01,1099.09 2242.01,92.1521 "/>
<polyline clip-path="url(#clip423)" style="stroke:#000000; stroke-linecap:round; stroke-linejoin:round; stroke-width:2; stroke-opacity:0.1; fill:none" points="1415.39,1068.66 2352.76,1068.66 "/>
<polyline clip-path="url(#clip423)" style="stroke:#000000; stroke-linecap:round; stroke-linejoin:round; stroke-width:2; stroke-opacity:0.1; fill:none" points="1415.39,851.294 2352.76,851.294 "/>
<polyline clip-path="url(#clip423)" style="stroke:#000000; stroke-linecap:round; stroke-linejoin:round; stroke-width:2; stroke-opacity:0.1; fill:none" points="1415.39,633.93 2352.76,633.93 "/>
<polyline clip-path="url(#clip423)" style="stroke:#000000; stroke-linecap:round; stroke-linejoin:round; stroke-width:2; stroke-opacity:0.1; fill:none" points="1415.39,416.565 2352.76,416.565 "/>
<polyline clip-path="url(#clip423)" style="stroke:#000000; stroke-linecap:round; stroke-linejoin:round; stroke-width:2; stroke-opacity:0.1; fill:none" points="1415.39,199.2 2352.76,199.2 "/>
<polyline clip-path="url(#clip420)" style="stroke:#000000; stroke-linecap:round; stroke-linejoin:round; stroke-width:4; stroke-opacity:1; fill:none" points="1415.39,1099.09 2352.76,1099.09 "/>
<polyline clip-path="url(#clip420)" style="stroke:#000000; stroke-linecap:round; stroke-linejoin:round; stroke-width:4; stroke-opacity:1; fill:none" points="1610.36,1099.09 1610.36,1080.19 "/>
<polyline clip-path="url(#clip420)" style="stroke:#000000; stroke-linecap:round; stroke-linejoin:round; stroke-width:4; stroke-opacity:1; fill:none" points="1820.91,1099.09 1820.91,1080.19 "/>
<polyline clip-path="url(#clip420)" style="stroke:#000000; stroke-linecap:round; stroke-linejoin:round; stroke-width:4; stroke-opacity:1; fill:none" points="2031.46,1099.09 2031.46,1080.19 "/>
<polyline clip-path="url(#clip420)" style="stroke:#000000; stroke-linecap:round; stroke-linejoin:round; stroke-width:4; stroke-opacity:1; fill:none" points="2242.01,1099.09 2242.01,1080.19 "/>
<path clip-path="url(#clip420)" d="M1600.64 1126.93 L1619 1126.93 L1619 1130.86 L1604.92 1130.86 L1604.92 1139.34 Q1605.94 1138.99 1606.96 1138.83 Q1607.98 1138.64 1609 1138.64 Q1614.78 1138.64 1618.16 1141.81 Q1621.54 1144.98 1621.54 1150.4 Q1621.54 1155.98 1618.07 1159.08 Q1614.6 1162.16 1608.28 1162.16 Q1606.1 1162.16 1603.83 1161.79 Q1601.59 1161.42 1599.18 1160.68 L1599.18 1155.98 Q1601.26 1157.11 1603.49 1157.67 Q1605.71 1158.22 1608.19 1158.22 Q1612.19 1158.22 1614.53 1156.12 Q1616.87 1154.01 1616.87 1150.4 Q1616.87 1146.79 1614.53 1144.68 Q1612.19 1142.58 1608.19 1142.58 Q1606.31 1142.58 1604.44 1142.99 Q1602.58 1143.41 1600.64 1144.29 L1600.64 1126.93 Z" fill="#000000" fill-rule="nonzero" fill-opacity="1" /><path clip-path="url(#clip420)" d="M1795.6 1157.55 L1803.24 1157.55 L1803.24 1131.19 L1794.93 1132.85 L1794.93 1128.59 L1803.19 1126.93 L1807.87 1126.93 L1807.87 1157.55 L1815.51 1157.55 L1815.51 1161.49 L1795.6 1161.49 L1795.6 1157.55 Z" fill="#000000" fill-rule="nonzero" fill-opacity="1" /><path clip-path="url(#clip420)" d="M1834.95 1130.01 Q1831.34 1130.01 1829.51 1133.57 Q1827.7 1137.11 1827.7 1144.24 Q1827.7 1151.35 1829.51 1154.91 Q1831.34 1158.46 1834.95 1158.46 Q1838.58 1158.46 1840.39 1154.91 Q1842.22 1151.35 1842.22 1144.24 Q1842.22 1137.11 1840.39 1133.57 Q1838.58 1130.01 1834.95 1130.01 M1834.95 1126.3 Q1840.76 1126.3 1843.82 1130.91 Q1846.89 1135.49 1846.89 1144.24 Q1846.89 1152.97 1843.82 1157.58 Q1840.76 1162.16 1834.95 1162.16 Q1829.14 1162.16 1826.06 1157.58 Q1823.01 1152.97 1823.01 1144.24 Q1823.01 1135.49 1826.06 1130.91 Q1829.14 1126.3 1834.95 1126.3 Z" fill="#000000" fill-rule="nonzero" fill-opacity="1" /><path clip-path="url(#clip420)" d="M2006.64 1157.55 L2014.28 1157.55 L2014.28 1131.19 L2005.97 1132.85 L2005.97 1128.59 L2014.24 1126.93 L2018.91 1126.93 L2018.91 1157.55 L2026.55 1157.55 L2026.55 1161.49 L2006.64 1161.49 L2006.64 1157.55 Z" fill="#000000" fill-rule="nonzero" fill-opacity="1" /><path clip-path="url(#clip420)" d="M2036.04 1126.93 L2054.4 1126.93 L2054.4 1130.86 L2040.32 1130.86 L2040.32 1139.34 Q2041.34 1138.99 2042.36 1138.83 Q2043.38 1138.64 2044.4 1138.64 Q2050.19 1138.64 2053.57 1141.81 Q2056.94 1144.98 2056.94 1150.4 Q2056.94 1155.98 2053.47 1159.08 Q2050 1162.16 2043.68 1162.16 Q2041.51 1162.16 2039.24 1161.79 Q2036.99 1161.42 2034.58 1160.68 L2034.58 1155.98 Q2036.67 1157.11 2038.89 1157.67 Q2041.11 1158.22 2043.59 1158.22 Q2047.59 1158.22 2049.93 1156.12 Q2052.27 1154.01 2052.27 1150.4 Q2052.27 1146.79 2049.93 1144.68 Q2047.59 1142.58 2043.59 1142.58 Q2041.71 1142.58 2039.84 1142.99 Q2037.99 1143.41 2036.04 1144.29 L2036.04 1126.93 Z" fill="#000000" fill-rule="nonzero" fill-opacity="1" /><path clip-path="url(#clip420)" d="M2220.78 1157.55 L2237.1 1157.55 L2237.1 1161.49 L2215.16 1161.49 L2215.16 1157.55 Q2217.82 1154.8 2222.4 1150.17 Q2227.01 1145.52 2228.19 1144.17 Q2230.43 1141.65 2231.31 1139.91 Q2232.22 1138.15 2232.22 1136.46 Q2232.22 1133.71 2230.27 1131.97 Q2228.35 1130.24 2225.25 1130.24 Q2223.05 1130.24 2220.6 1131 Q2218.16 1131.77 2215.39 1133.32 L2215.39 1128.59 Q2218.21 1127.46 2220.66 1126.88 Q2223.12 1126.3 2225.16 1126.3 Q2230.53 1126.3 2233.72 1128.99 Q2236.91 1131.67 2236.91 1136.16 Q2236.91 1138.29 2236.1 1140.21 Q2235.32 1142.11 2233.21 1144.71 Q2232.63 1145.38 2229.53 1148.59 Q2226.43 1151.79 2220.78 1157.55 Z" fill="#000000" fill-rule="nonzero" fill-opacity="1" /><path clip-path="url(#clip420)" d="M2256.91 1130.01 Q2253.3 1130.01 2251.47 1133.57 Q2249.67 1137.11 2249.67 1144.24 Q2249.67 1151.35 2251.47 1154.91 Q2253.3 1158.46 2256.91 1158.46 Q2260.55 1158.46 2262.35 1154.91 Q2264.18 1151.35 2264.18 1144.24 Q2264.18 1137.11 2262.35 1133.57 Q2260.55 1130.01 2256.91 1130.01 M2256.91 1126.3 Q2262.72 1126.3 2265.78 1130.91 Q2268.86 1135.49 2268.86 1144.24 Q2268.86 1152.97 2265.78 1157.58 Q2262.72 1162.16 2256.91 1162.16 Q2251.1 1162.16 2248.03 1157.58 Q2244.97 1152.97 2244.97 1144.24 Q2244.97 1135.49 2248.03 1130.91 Q2251.1 1126.3 2256.91 1126.3 Z" fill="#000000" fill-rule="nonzero" fill-opacity="1" /><polyline clip-path="url(#clip420)" style="stroke:#000000; stroke-linecap:round; stroke-linejoin:round; stroke-width:4; stroke-opacity:1; fill:none" points="1415.39,1099.09 1415.39,92.1521 "/>
<polyline clip-path="url(#clip420)" style="stroke:#000000; stroke-linecap:round; stroke-linejoin:round; stroke-width:4; stroke-opacity:1; fill:none" points="1415.39,1068.66 1434.29,1068.66 "/>
<polyline clip-path="url(#clip420)" style="stroke:#000000; stroke-linecap:round; stroke-linejoin:round; stroke-width:4; stroke-opacity:1; fill:none" points="1415.39,851.294 1434.29,851.294 "/>
<polyline clip-path="url(#clip420)" style="stroke:#000000; stroke-linecap:round; stroke-linejoin:round; stroke-width:4; stroke-opacity:1; fill:none" points="1415.39,633.93 1434.29,633.93 "/>
<polyline clip-path="url(#clip420)" style="stroke:#000000; stroke-linecap:round; stroke-linejoin:round; stroke-width:4; stroke-opacity:1; fill:none" points="1415.39,416.565 1434.29,416.565 "/>
<polyline clip-path="url(#clip420)" style="stroke:#000000; stroke-linecap:round; stroke-linejoin:round; stroke-width:4; stroke-opacity:1; fill:none" points="1415.39,199.2 1434.29,199.2 "/>
<path clip-path="url(#clip420)" d="M1252.71 1082 L1260.34 1082 L1260.34 1055.64 L1252.03 1057.31 L1252.03 1053.05 L1260.3 1051.38 L1264.97 1051.38 L1264.97 1082 L1272.61 1082 L1272.61 1085.94 L1252.71 1085.94 L1252.71 1082 Z" fill="#000000" fill-rule="nonzero" fill-opacity="1" /><path clip-path="url(#clip420)" d="M1282.06 1080.06 L1286.94 1080.06 L1286.94 1085.94 L1282.06 1085.94 L1282.06 1080.06 Z" fill="#000000" fill-rule="nonzero" fill-opacity="1" /><path clip-path="url(#clip420)" d="M1307.13 1054.46 Q1303.51 1054.46 1301.69 1058.02 Q1299.88 1061.56 1299.88 1068.69 Q1299.88 1075.8 1301.69 1079.37 Q1303.51 1082.91 1307.13 1082.91 Q1310.76 1082.91 1312.57 1079.37 Q1314.39 1075.8 1314.39 1068.69 Q1314.39 1061.56 1312.57 1058.02 Q1310.76 1054.46 1307.13 1054.46 M1307.13 1050.75 Q1312.94 1050.75 1315.99 1055.36 Q1319.07 1059.94 1319.07 1068.69 Q1319.07 1077.42 1315.99 1082.03 Q1312.94 1086.61 1307.13 1086.61 Q1301.32 1086.61 1298.24 1082.03 Q1295.18 1077.42 1295.18 1068.69 Q1295.18 1059.94 1298.24 1055.36 Q1301.32 1050.75 1307.13 1050.75 Z" fill="#000000" fill-rule="nonzero" fill-opacity="1" /><path clip-path="url(#clip420)" d="M1337.29 1054.46 Q1333.68 1054.46 1331.85 1058.02 Q1330.04 1061.56 1330.04 1068.69 Q1330.04 1075.8 1331.85 1079.37 Q1333.68 1082.91 1337.29 1082.91 Q1340.92 1082.91 1342.73 1079.37 Q1344.56 1075.8 1344.56 1068.69 Q1344.56 1061.56 1342.73 1058.02 Q1340.92 1054.46 1337.29 1054.46 M1337.29 1050.75 Q1343.1 1050.75 1346.15 1055.36 Q1349.23 1059.94 1349.23 1068.69 Q1349.23 1077.42 1346.15 1082.03 Q1343.1 1086.61 1337.29 1086.61 Q1331.48 1086.61 1328.4 1082.03 Q1325.34 1077.42 1325.34 1068.69 Q1325.34 1059.94 1328.4 1055.36 Q1331.48 1050.75 1337.29 1050.75 Z" fill="#000000" fill-rule="nonzero" fill-opacity="1" /><path clip-path="url(#clip420)" d="M1367.45 1054.46 Q1363.84 1054.46 1362.01 1058.02 Q1360.2 1061.56 1360.2 1068.69 Q1360.2 1075.8 1362.01 1079.37 Q1363.84 1082.91 1367.45 1082.91 Q1371.08 1082.91 1372.89 1079.37 Q1374.72 1075.8 1374.72 1068.69 Q1374.72 1061.56 1372.89 1058.02 Q1371.08 1054.46 1367.45 1054.46 M1367.45 1050.75 Q1373.26 1050.75 1376.32 1055.36 Q1379.39 1059.94 1379.39 1068.69 Q1379.39 1077.42 1376.32 1082.03 Q1373.26 1086.61 1367.45 1086.61 Q1361.64 1086.61 1358.56 1082.03 Q1355.51 1077.42 1355.51 1068.69 Q1355.51 1059.94 1358.56 1055.36 Q1361.64 1050.75 1367.45 1050.75 Z" fill="#000000" fill-rule="nonzero" fill-opacity="1" /><path clip-path="url(#clip420)" d="M1253.7 864.639 L1261.34 864.639 L1261.34 838.274 L1253.03 839.94 L1253.03 835.681 L1261.29 834.014 L1265.97 834.014 L1265.97 864.639 L1273.61 864.639 L1273.61 868.574 L1253.7 868.574 L1253.7 864.639 Z" fill="#000000" fill-rule="nonzero" fill-opacity="1" /><path clip-path="url(#clip420)" d="M1283.05 862.695 L1287.94 862.695 L1287.94 868.574 L1283.05 868.574 L1283.05 862.695 Z" fill="#000000" fill-rule="nonzero" fill-opacity="1" /><path clip-path="url(#clip420)" d="M1308.12 837.093 Q1304.51 837.093 1302.68 840.658 Q1300.88 844.2 1300.88 851.329 Q1300.88 858.436 1302.68 862 Q1304.51 865.542 1308.12 865.542 Q1311.76 865.542 1313.56 862 Q1315.39 858.436 1315.39 851.329 Q1315.39 844.2 1313.56 840.658 Q1311.76 837.093 1308.12 837.093 M1308.12 833.39 Q1313.93 833.39 1316.99 837.996 Q1320.07 842.579 1320.07 851.329 Q1320.07 860.056 1316.99 864.662 Q1313.93 869.246 1308.12 869.246 Q1302.31 869.246 1299.23 864.662 Q1296.18 860.056 1296.18 851.329 Q1296.18 842.579 1299.23 837.996 Q1302.31 833.39 1308.12 833.39 Z" fill="#000000" fill-rule="nonzero" fill-opacity="1" /><path clip-path="url(#clip420)" d="M1332.31 864.639 L1348.63 864.639 L1348.63 868.574 L1326.69 868.574 L1326.69 864.639 Q1329.35 861.885 1333.93 857.255 Q1338.54 852.602 1339.72 851.26 Q1341.96 848.737 1342.84 847.001 Q1343.75 845.241 1343.75 843.551 Q1343.75 840.797 1341.8 839.061 Q1339.88 837.325 1336.78 837.325 Q1334.58 837.325 1332.13 838.089 Q1329.7 838.852 1326.92 840.403 L1326.92 835.681 Q1329.74 834.547 1332.2 833.968 Q1334.65 833.39 1336.69 833.39 Q1342.06 833.39 1345.25 836.075 Q1348.45 838.76 1348.45 843.251 Q1348.45 845.38 1347.64 847.301 Q1346.85 849.2 1344.74 851.792 Q1344.16 852.463 1341.06 855.681 Q1337.96 858.875 1332.31 864.639 Z" fill="#000000" fill-rule="nonzero" fill-opacity="1" /><path clip-path="url(#clip420)" d="M1358.49 834.014 L1376.85 834.014 L1376.85 837.95 L1362.77 837.95 L1362.77 846.422 Q1363.79 846.075 1364.81 845.913 Q1365.83 845.727 1366.85 845.727 Q1372.63 845.727 1376.01 848.899 Q1379.39 852.07 1379.39 857.487 Q1379.39 863.065 1375.92 866.167 Q1372.45 869.246 1366.13 869.246 Q1363.95 869.246 1361.69 868.875 Q1359.44 868.505 1357.03 867.764 L1357.03 863.065 Q1359.12 864.2 1361.34 864.755 Q1363.56 865.311 1366.04 865.311 Q1370.04 865.311 1372.38 863.204 Q1374.72 861.098 1374.72 857.487 Q1374.72 853.876 1372.38 851.769 Q1370.04 849.663 1366.04 849.663 Q1364.16 849.663 1362.29 850.079 Q1360.44 850.496 1358.49 851.376 L1358.49 834.014 Z" fill="#000000" fill-rule="nonzero" fill-opacity="1" /><path clip-path="url(#clip420)" d="M1252.71 647.274 L1260.34 647.274 L1260.34 620.909 L1252.03 622.575 L1252.03 618.316 L1260.3 616.65 L1264.97 616.65 L1264.97 647.274 L1272.61 647.274 L1272.61 651.21 L1252.71 651.21 L1252.71 647.274 Z" fill="#000000" fill-rule="nonzero" fill-opacity="1" /><path clip-path="url(#clip420)" d="M1282.06 645.33 L1286.94 645.33 L1286.94 651.21 L1282.06 651.21 L1282.06 645.33 Z" fill="#000000" fill-rule="nonzero" fill-opacity="1" /><path clip-path="url(#clip420)" d="M1307.13 619.728 Q1303.51 619.728 1301.69 623.293 Q1299.88 626.835 1299.88 633.964 Q1299.88 641.071 1301.69 644.635 Q1303.51 648.177 1307.13 648.177 Q1310.76 648.177 1312.57 644.635 Q1314.39 641.071 1314.39 633.964 Q1314.39 626.835 1312.57 623.293 Q1310.76 619.728 1307.13 619.728 M1307.13 616.025 Q1312.94 616.025 1315.99 620.631 Q1319.07 625.214 1319.07 633.964 Q1319.07 642.691 1315.99 647.298 Q1312.94 651.881 1307.13 651.881 Q1301.32 651.881 1298.24 647.298 Q1295.18 642.691 1295.18 633.964 Q1295.18 625.214 1298.24 620.631 Q1301.32 616.025 1307.13 616.025 Z" fill="#000000" fill-rule="nonzero" fill-opacity="1" /><path clip-path="url(#clip420)" d="M1327.33 616.65 L1345.69 616.65 L1345.69 620.585 L1331.62 620.585 L1331.62 629.057 Q1332.64 628.71 1333.65 628.548 Q1334.67 628.362 1335.69 628.362 Q1341.48 628.362 1344.86 631.534 Q1348.24 634.705 1348.24 640.122 Q1348.24 645.7 1344.76 648.802 Q1341.29 651.881 1334.97 651.881 Q1332.8 651.881 1330.53 651.51 Q1328.28 651.14 1325.88 650.399 L1325.88 645.7 Q1327.96 646.835 1330.18 647.39 Q1332.4 647.946 1334.88 647.946 Q1338.89 647.946 1341.22 645.839 Q1343.56 643.733 1343.56 640.122 Q1343.56 636.511 1341.22 634.404 Q1338.89 632.298 1334.88 632.298 Q1333.01 632.298 1331.13 632.714 Q1329.28 633.131 1327.33 634.011 L1327.33 616.65 Z" fill="#000000" fill-rule="nonzero" fill-opacity="1" /><path clip-path="url(#clip420)" d="M1367.45 619.728 Q1363.84 619.728 1362.01 623.293 Q1360.2 626.835 1360.2 633.964 Q1360.2 641.071 1362.01 644.635 Q1363.84 648.177 1367.45 648.177 Q1371.08 648.177 1372.89 644.635 Q1374.72 641.071 1374.72 633.964 Q1374.72 626.835 1372.89 623.293 Q1371.08 619.728 1367.45 619.728 M1367.45 616.025 Q1373.26 616.025 1376.32 620.631 Q1379.39 625.214 1379.39 633.964 Q1379.39 642.691 1376.32 647.298 Q1373.26 651.881 1367.45 651.881 Q1361.64 651.881 1358.56 647.298 Q1355.51 642.691 1355.51 633.964 Q1355.51 625.214 1358.56 620.631 Q1361.64 616.025 1367.45 616.025 Z" fill="#000000" fill-rule="nonzero" fill-opacity="1" /><path clip-path="url(#clip420)" d="M1253.7 429.909 L1261.34 429.909 L1261.34 403.544 L1253.03 405.21 L1253.03 400.951 L1261.29 399.285 L1265.97 399.285 L1265.97 429.909 L1273.61 429.909 L1273.61 433.845 L1253.7 433.845 L1253.7 429.909 Z" fill="#000000" fill-rule="nonzero" fill-opacity="1" /><path clip-path="url(#clip420)" d="M1283.05 427.965 L1287.94 427.965 L1287.94 433.845 L1283.05 433.845 L1283.05 427.965 Z" fill="#000000" fill-rule="nonzero" fill-opacity="1" /><path clip-path="url(#clip420)" d="M1308.12 402.363 Q1304.51 402.363 1302.68 405.928 Q1300.88 409.47 1300.88 416.599 Q1300.88 423.706 1302.68 427.271 Q1304.51 430.812 1308.12 430.812 Q1311.76 430.812 1313.56 427.271 Q1315.39 423.706 1315.39 416.599 Q1315.39 409.47 1313.56 405.928 Q1311.76 402.363 1308.12 402.363 M1308.12 398.66 Q1313.93 398.66 1316.99 403.266 Q1320.07 407.849 1320.07 416.599 Q1320.07 425.326 1316.99 429.933 Q1313.93 434.516 1308.12 434.516 Q1302.31 434.516 1299.23 429.933 Q1296.18 425.326 1296.18 416.599 Q1296.18 407.849 1299.23 403.266 Q1302.31 398.66 1308.12 398.66 Z" fill="#000000" fill-rule="nonzero" fill-opacity="1" /><path clip-path="url(#clip420)" d="M1327.1 399.285 L1349.32 399.285 L1349.32 401.275 L1336.78 433.845 L1331.89 433.845 L1343.7 403.22 L1327.1 403.22 L1327.1 399.285 Z" fill="#000000" fill-rule="nonzero" fill-opacity="1" /><path clip-path="url(#clip420)" d="M1358.49 399.285 L1376.85 399.285 L1376.85 403.22 L1362.77 403.22 L1362.77 411.692 Q1363.79 411.345 1364.81 411.183 Q1365.83 410.997 1366.85 410.997 Q1372.63 410.997 1376.01 414.169 Q1379.39 417.34 1379.39 422.757 Q1379.39 428.335 1375.92 431.437 Q1372.45 434.516 1366.13 434.516 Q1363.95 434.516 1361.69 434.145 Q1359.44 433.775 1357.03 433.034 L1357.03 428.335 Q1359.12 429.47 1361.34 430.025 Q1363.56 430.581 1366.04 430.581 Q1370.04 430.581 1372.38 428.474 Q1374.72 426.368 1374.72 422.757 Q1374.72 419.146 1372.38 417.039 Q1370.04 414.933 1366.04 414.933 Q1364.16 414.933 1362.29 415.349 Q1360.44 415.766 1358.49 416.646 L1358.49 399.285 Z" fill="#000000" fill-rule="nonzero" fill-opacity="1" /><path clip-path="url(#clip420)" d="M1252.71 212.544 L1260.34 212.544 L1260.34 186.179 L1252.03 187.845 L1252.03 183.586 L1260.3 181.92 L1264.97 181.92 L1264.97 212.544 L1272.61 212.544 L1272.61 216.48 L1252.71 216.48 L1252.71 212.544 Z" fill="#000000" fill-rule="nonzero" fill-opacity="1" /><path clip-path="url(#clip420)" d="M1282.06 210.6 L1286.94 210.6 L1286.94 216.48 L1282.06 216.48 L1282.06 210.6 Z" fill="#000000" fill-rule="nonzero" fill-opacity="1" /><path clip-path="url(#clip420)" d="M1297.94 212.544 L1305.58 212.544 L1305.58 186.179 L1297.27 187.845 L1297.27 183.586 L1305.53 181.92 L1310.2 181.92 L1310.2 212.544 L1317.84 212.544 L1317.84 216.48 L1297.94 216.48 L1297.94 212.544 Z" fill="#000000" fill-rule="nonzero" fill-opacity="1" /><path clip-path="url(#clip420)" d="M1337.29 184.998 Q1333.68 184.998 1331.85 188.563 Q1330.04 192.105 1330.04 199.234 Q1330.04 206.341 1331.85 209.906 Q1333.68 213.447 1337.29 213.447 Q1340.92 213.447 1342.73 209.906 Q1344.56 206.341 1344.56 199.234 Q1344.56 192.105 1342.73 188.563 Q1340.92 184.998 1337.29 184.998 M1337.29 181.295 Q1343.1 181.295 1346.15 185.901 Q1349.23 190.484 1349.23 199.234 Q1349.23 207.961 1346.15 212.568 Q1343.1 217.151 1337.29 217.151 Q1331.48 217.151 1328.4 212.568 Q1325.34 207.961 1325.34 199.234 Q1325.34 190.484 1328.4 185.901 Q1331.48 181.295 1337.29 181.295 Z" fill="#000000" fill-rule="nonzero" fill-opacity="1" /><path clip-path="url(#clip420)" d="M1367.45 184.998 Q1363.84 184.998 1362.01 188.563 Q1360.2 192.105 1360.2 199.234 Q1360.2 206.341 1362.01 209.906 Q1363.84 213.447 1367.45 213.447 Q1371.08 213.447 1372.89 209.906 Q1374.72 206.341 1374.72 199.234 Q1374.72 192.105 1372.89 188.563 Q1371.08 184.998 1367.45 184.998 M1367.45 181.295 Q1373.26 181.295 1376.32 185.901 Q1379.39 190.484 1379.39 199.234 Q1379.39 207.961 1376.32 212.568 Q1373.26 217.151 1367.45 217.151 Q1361.64 217.151 1358.56 212.568 Q1355.51 207.961 1355.51 199.234 Q1355.51 190.484 1358.56 185.901 Q1361.64 181.295 1367.45 181.295 Z" fill="#000000" fill-rule="nonzero" fill-opacity="1" /><path clip-path="url(#clip420)" d="M1740.76 41.1092 L1740.76 30.6665 L1732.16 30.6665 L1732.16 26.3436 L1745.96 26.3436 L1745.96 43.0362 Q1742.92 45.1977 1739.25 46.3175 Q1735.57 47.4112 1731.41 47.4112 Q1722.29 47.4112 1717.14 42.0987 Q1712.01 36.7602 1712.01 27.2551 Q1712.01 17.7239 1717.14 12.4114 Q1722.29 7.07288 1731.41 7.07288 Q1735.21 7.07288 1738.62 8.01037 Q1742.06 8.94787 1744.95 10.7708 L1744.95 16.3697 Q1742.03 13.8958 1738.75 12.6458 Q1735.47 11.3958 1731.85 11.3958 Q1724.71 11.3958 1721.12 15.3801 Q1717.55 19.3645 1717.55 27.2551 Q1717.55 35.1196 1721.12 39.104 Q1724.71 43.0883 1731.85 43.0883 Q1734.64 43.0883 1736.82 42.6196 Q1739.01 42.1248 1740.76 41.1092 Z" fill="#000000" fill-rule="nonzero" fill-opacity="1" /><path clip-path="url(#clip420)" d="M1760.83 12.0989 L1760.83 42.3331 L1767.19 42.3331 Q1775.23 42.3331 1778.96 38.6873 Q1782.71 35.0415 1782.71 27.1769 Q1782.71 19.3645 1778.96 15.7447 Q1775.23 12.0989 1767.19 12.0989 L1760.83 12.0989 M1755.57 7.776 L1766.38 7.776 Q1777.68 7.776 1782.97 12.4895 Q1788.26 17.177 1788.26 27.1769 Q1788.26 37.229 1782.94 41.9425 Q1777.63 46.656 1766.38 46.656 L1755.57 46.656 L1755.57 7.776 Z" fill="#000000" fill-rule="nonzero" fill-opacity="1" /><path clip-path="url(#clip420)" d="M1801.9 12.0989 L1801.9 26.7082 L1808.52 26.7082 Q1812.19 26.7082 1814.19 24.8072 Q1816.2 22.9061 1816.2 19.3905 Q1816.2 15.901 1814.19 13.9999 Q1812.19 12.0989 1808.52 12.0989 L1801.9 12.0989 M1796.64 7.776 L1808.52 7.776 Q1815.05 7.776 1818.39 10.7447 Q1821.74 13.6874 1821.74 19.3905 Q1821.74 25.1457 1818.39 28.0884 Q1815.05 31.0311 1808.52 31.0311 L1801.9 31.0311 L1801.9 46.656 L1796.64 46.656 L1796.64 7.776 Z" fill="#000000" fill-rule="nonzero" fill-opacity="1" /><path clip-path="url(#clip420)" d="M1851.02 12.0989 L1851.02 42.3331 L1857.37 42.3331 Q1865.42 42.3331 1869.14 38.6873 Q1872.89 35.0415 1872.89 27.1769 Q1872.89 19.3645 1869.14 15.7447 Q1865.42 12.0989 1857.37 12.0989 L1851.02 12.0989 M1845.75 7.776 L1856.56 7.776 Q1867.86 7.776 1873.15 12.4895 Q1878.44 17.177 1878.44 27.1769 Q1878.44 37.229 1873.12 41.9425 Q1867.81 46.656 1856.56 46.656 L1845.75 46.656 L1845.75 7.776 Z" fill="#000000" fill-rule="nonzero" fill-opacity="1" /><path clip-path="url(#clip420)" d="M1911.56 30.8748 L1911.56 33.2186 L1889.53 33.2186 Q1889.84 38.1665 1892.5 40.7706 Q1895.18 43.3487 1899.95 43.3487 Q1902.71 43.3487 1905.29 42.6716 Q1907.89 41.9946 1910.44 40.6404 L1910.44 45.1716 Q1907.86 46.2654 1905.16 46.8383 Q1902.45 47.4112 1899.66 47.4112 Q1892.68 47.4112 1888.59 43.3487 Q1884.53 39.2862 1884.53 32.3592 Q1884.53 25.1978 1888.38 21.0051 Q1892.27 16.7864 1898.83 16.7864 Q1904.71 16.7864 1908.12 20.5884 Q1911.56 24.3645 1911.56 30.8748 M1906.77 29.4686 Q1906.72 25.5363 1904.56 23.1926 Q1902.42 20.8488 1898.88 20.8488 Q1894.87 20.8488 1892.45 23.1145 Q1890.05 25.3801 1889.69 29.4946 L1906.77 29.4686 Z" fill="#000000" fill-rule="nonzero" fill-opacity="1" /><path clip-path="url(#clip420)" d="M1934.19 6.13538 L1934.19 10.1197 L1929.61 10.1197 Q1927.03 10.1197 1926.01 11.1614 Q1925.03 12.2031 1925.03 14.9114 L1925.03 17.4895 L1932.92 17.4895 L1932.92 21.2134 L1925.03 21.2134 L1925.03 46.656 L1920.21 46.656 L1920.21 21.2134 L1915.62 21.2134 L1915.62 17.4895 L1920.21 17.4895 L1920.21 15.4583 Q1920.21 10.5885 1922.47 8.37496 Q1924.74 6.13538 1929.66 6.13538 L1934.19 6.13538 Z" fill="#000000" fill-rule="nonzero" fill-opacity="1" /><path clip-path="url(#clip420)" d="M1938.2 6.13538 L1942.99 6.13538 L1942.99 46.656 L1938.2 46.656 L1938.2 6.13538 Z" fill="#000000" fill-rule="nonzero" fill-opacity="1" /><path clip-path="url(#clip420)" d="M1966.28 31.9946 Q1960.47 31.9946 1958.23 33.3227 Q1955.99 34.6509 1955.99 37.854 Q1955.99 40.406 1957.66 41.9164 Q1959.35 43.4008 1962.24 43.4008 Q1966.22 43.4008 1968.62 40.5883 Q1971.04 37.7498 1971.04 33.0623 L1971.04 31.9946 L1966.28 31.9946 M1975.83 30.0155 L1975.83 46.656 L1971.04 46.656 L1971.04 42.2289 Q1969.4 44.8852 1966.95 46.1612 Q1964.5 47.4112 1960.96 47.4112 Q1956.48 47.4112 1953.83 44.9112 Q1951.2 42.3852 1951.2 38.1665 Q1951.2 33.2446 1954.48 30.7446 Q1957.79 28.2446 1964.32 28.2446 L1971.04 28.2446 L1971.04 27.7759 Q1971.04 24.4686 1968.85 22.6718 Q1966.69 20.8488 1962.76 20.8488 Q1960.26 20.8488 1957.89 21.4478 Q1955.52 22.0468 1953.33 23.2447 L1953.33 18.8176 Q1955.96 17.802 1958.44 17.3072 Q1960.91 16.7864 1963.25 16.7864 Q1969.58 16.7864 1972.71 20.0676 Q1975.83 23.3488 1975.83 30.0155 Z" fill="#000000" fill-rule="nonzero" fill-opacity="1" /><path clip-path="url(#clip420)" d="M1990.44 9.20828 L1990.44 17.4895 L2000.31 17.4895 L2000.31 21.2134 L1990.44 21.2134 L1990.44 37.0467 Q1990.44 40.6144 1991.41 41.63 Q1992.39 42.6456 1995.39 42.6456 L2000.31 42.6456 L2000.31 46.656 L1995.39 46.656 Q1989.84 46.656 1987.73 44.5987 Q1985.62 42.5154 1985.62 37.0467 L1985.62 21.2134 L1982.11 21.2134 L1982.11 17.4895 L1985.62 17.4895 L1985.62 9.20828 L1990.44 9.20828 Z" fill="#000000" fill-rule="nonzero" fill-opacity="1" /><path clip-path="url(#clip420)" d="M2017.92 20.8488 Q2014.06 20.8488 2011.82 23.8697 Q2009.58 26.8644 2009.58 32.0988 Q2009.58 37.3331 2011.8 40.354 Q2014.04 43.3487 2017.92 43.3487 Q2021.74 43.3487 2023.98 40.3279 Q2026.22 37.3071 2026.22 32.0988 Q2026.22 26.9165 2023.98 23.8957 Q2021.74 20.8488 2017.92 20.8488 M2017.92 16.7864 Q2024.17 16.7864 2027.73 20.8488 Q2031.3 24.9113 2031.3 32.0988 Q2031.3 39.2602 2027.73 43.3487 Q2024.17 47.4112 2017.92 47.4112 Q2011.64 47.4112 2008.07 43.3487 Q2004.53 39.2602 2004.53 32.0988 Q2004.53 24.9113 2008.07 20.8488 Q2011.64 16.7864 2017.92 16.7864 Z" fill="#000000" fill-rule="nonzero" fill-opacity="1" /><path clip-path="url(#clip420)" d="M2056.14 21.9686 Q2055.34 21.4999 2054.37 21.2916 Q2053.44 21.0572 2052.29 21.0572 Q2048.23 21.0572 2046.04 23.7134 Q2043.88 26.3436 2043.88 31.2915 L2043.88 46.656 L2039.06 46.656 L2039.06 17.4895 L2043.88 17.4895 L2043.88 22.0207 Q2045.39 19.3645 2047.81 18.0884 Q2050.23 16.7864 2053.7 16.7864 Q2054.19 16.7864 2054.79 16.8645 Q2055.39 16.9166 2056.12 17.0468 L2056.14 21.9686 Z" fill="#000000" fill-rule="nonzero" fill-opacity="1" /><path clip-path="url(#clip423)" d="M1526.14 1070.59 L1568.25 1056.6 L1610.36 1012.45 L1652.47 1009.72 L1694.58 981.876 L1736.69 930.645 L1778.8 909.075 L1820.91 891.852 L1863.02 816.311 L1905.13 791.21 L1947.24 781.15 L1989.35 769.11 L2031.46 785.202 L2073.57 780.418 L2115.68 751.956 L2157.79 723.7 L2199.9 692.585 L2242.01 681.456 L2284.12 613.264 L2326.23 545.994 L2326.23 136.706 L2284.12 156.152 L2242.01 159.462 L2199.9 209.694 L2157.79 257.582 L2115.68 297.306 L2073.57 342.542 L2031.46 436.658 L1989.35 457.662 L1947.24 491.202 L1905.13 561.398 L1863.02 657.659 L1820.91 693.704 L1778.8 731.44 L1736.69 792.693 L1694.58 855.628 L1652.47 851.053 L1610.36 883.781 L1568.25 983.484 L1526.14 1025.77  Z" fill="#009af9" fill-rule="evenodd" fill-opacity="0.1"/>
<polyline clip-path="url(#clip423)" style="stroke:#009af9; stroke-linecap:round; stroke-linejoin:round; stroke-width:4; stroke-opacity:1; fill:none" points="1526.14,1048.18 1568.25,1020.04 1610.36,948.115 1652.47,930.385 1694.58,918.752 1736.69,861.669 1778.8,820.258 1820.91,792.778 1863.02,736.985 1905.13,676.304 1947.24,636.176 1989.35,613.386 2031.46,610.93 2073.57,561.48 2115.68,524.631 2157.79,490.641 2199.9,451.139 2242.01,420.459 2284.12,384.708 2326.23,341.35 "/>
<path clip-path="url(#clip423)" d="M1526.14 1066.17 L1568.25 1014.84 L1610.36 945.367 L1652.47 925.701 L1694.58 920.059 L1736.69 909.808 L1778.8 915.319 L1820.91 868.162 L1863.02 828.835 L1905.13 770.875 L1947.24 769.539 L1989.35 737.535 L2031.46 726.668 L2073.57 688.44 L2115.68 583.556 L2157.79 581.963 L2199.9 538.992 L2242.01 494.694 L2284.12 461.562 L2326.23 441.782 L2326.23 120.65 L2284.12 176.94 L2242.01 205.286 L2199.9 232.019 L2157.79 223.352 L2115.68 246.689 L2073.57 261.902 L2031.46 323.648 L1989.35 376.584 L1947.24 424.137 L1905.13 520.64 L1863.02 552.484 L1820.91 561.715 L1778.8 631.412 L1736.69 708.184 L1694.58 767.454 L1652.47 813.259 L1610.36 881.57 L1568.25 896.747 L1526.14 957.309  Z" fill="#e26f46" fill-rule="evenodd" fill-opacity="0.1"/>
<polyline clip-path="url(#clip423)" style="stroke:#e26f46; stroke-linecap:round; stroke-linejoin:round; stroke-width:4; stroke-opacity:1; fill:none" points="1526.14,1011.74 1568.25,955.793 1610.36,913.468 1652.47,869.48 1694.58,843.757 1736.69,808.996 1778.8,773.365 1820.91,714.938 1863.02,690.66 1905.13,645.758 1947.24,596.838 1989.35,557.06 2031.46,525.158 2073.57,475.171 2115.68,415.123 2157.79,402.657 2199.9,385.505 2242.01,349.99 2284.12,319.251 2326.23,281.216 "/>
</svg>
