<?xml version="1.0" encoding="utf-8"?>
<svg xmlns="http://www.w3.org/2000/svg" xmlns:xlink="http://www.w3.org/1999/xlink" width="600" height="300" viewBox="0 0 2400 1200">
<defs>
  <clipPath id="clip880">
    <rect x="0" y="0" width="2400" height="1200"/>
  </clipPath>
</defs>
<path clip-path="url(#clip880)" d="M0 1200 L2400 1200 L2400 0 L0 0  Z" fill="#ffffff" fill-rule="evenodd" fill-opacity="1"/>
<defs>
  <clipPath id="clip881">
    <rect x="480" y="0" width="1681" height="1200"/>
  </clipPath>
</defs>
<path clip-path="url(#clip880)" d="M216.436 1099.09 L1153.8 1099.09 L1153.8 92.1521 L216.436 92.1521  Z" fill="#ffffff" fill-rule="evenodd" fill-opacity="1"/>
<defs>
  <clipPath id="clip882">
    <rect x="216" y="92" width="938" height="1008"/>
  </clipPath>
</defs>
<polyline clip-path="url(#clip882)" style="stroke:#000000; stroke-linecap:round; stroke-linejoin:round; stroke-width:2; stroke-opacity:0.1; fill:none" points="419.826,1099.09 419.826,92.1521 "/>
<polyline clip-path="url(#clip882)" style="stroke:#000000; stroke-linecap:round; stroke-linejoin:round; stroke-width:2; stroke-opacity:0.1; fill:none" points="640.902,1099.09 640.902,92.1521 "/>
<polyline clip-path="url(#clip882)" style="stroke:#000000; stroke-linecap:round; stroke-linejoin:round; stroke-width:2; stroke-opacity:0.1; fill:none" points="861.977,1099.09 861.977,92.1521 "/>
<polyline clip-path="url(#clip882)" style="stroke:#000000; stroke-linecap:round; stroke-linejoin:round; stroke-width:2; stroke-opacity:0.1; fill:none" points="1083.05,1099.09 1083.05,92.1521 "/>
<polyline clip-path="url(#clip882)" style="stroke:#000000; stroke-linecap:round; stroke-linejoin:round; stroke-width:2; stroke-opacity:0.1; fill:none" points="216.436,1089.01 1153.8,1089.01 "/>
<polyline clip-path="url(#clip882)" style="stroke:#000000; stroke-linecap:round; stroke-linejoin:round; stroke-width:2; stroke-opacity:0.1; fill:none" points="216.436,846.92 1153.8,846.92 "/>
<polyline clip-path="url(#clip882)" style="stroke:#000000; stroke-linecap:round; stroke-linejoin:round; stroke-width:2; stroke-opacity:0.1; fill:none" points="216.436,604.83 1153.8,604.83 "/>
<polyline clip-path="url(#clip882)" style="stroke:#000000; stroke-linecap:round; stroke-linejoin:round; stroke-width:2; stroke-opacity:0.1; fill:none" points="216.436,362.74 1153.8,362.74 "/>
<polyline clip-path="url(#clip882)" style="stroke:#000000; stroke-linecap:round; stroke-linejoin:round; stroke-width:2; stroke-opacity:0.1; fill:none" points="216.436,120.65 1153.8,120.65 "/>
<polyline clip-path="url(#clip880)" style="stroke:#000000; stroke-linecap:round; stroke-linejoin:round; stroke-width:4; stroke-opacity:1; fill:none" points="216.436,1099.09 1153.8,1099.09 "/>
<polyline clip-path="url(#clip880)" style="stroke:#000000; stroke-linecap:round; stroke-linejoin:round; stroke-width:4; stroke-opacity:1; fill:none" points="419.826,1099.09 419.826,1080.19 "/>
<polyline clip-path="url(#clip880)" style="stroke:#000000; stroke-linecap:round; stroke-linejoin:round; stroke-width:4; stroke-opacity:1; fill:none" points="640.902,1099.09 640.902,1080.19 "/>
<polyline clip-path="url(#clip880)" style="stroke:#000000; stroke-linecap:round; stroke-linejoin:round; stroke-width:4; stroke-opacity:1; fill:none" points="861.977,1099.09 861.977,1080.19 "/>
<polyline clip-path="url(#clip880)" style="stroke:#000000; stroke-linecap:round; stroke-linejoin:round; stroke-width:4; stroke-opacity:1; fill:none" points="1083.05,1099.09 1083.05,1080.19 "/>
<path clip-path="url(#clip880)" d="M410.104 1126.93 L428.46 1126.93 L428.46 1130.86 L414.386 1130.86 L414.386 1139.34 Q415.404 1138.99 416.423 1138.83 Q417.441 1138.64 418.46 1138.64 Q424.247 1138.64 427.627 1141.81 Q431.006 1144.98 431.006 1150.4 Q431.006 1155.98 427.534 1159.08 Q424.062 1162.16 417.742 1162.16 Q415.566 1162.16 413.298 1161.79 Q411.053 1161.42 408.645 1160.68 L408.645 1155.98 Q410.729 1157.11 412.951 1157.67 Q415.173 1158.22 417.65 1158.22 Q421.654 1158.22 423.992 1156.12 Q426.33 1154.01 426.33 1150.4 Q426.33 1146.79 423.992 1144.68 Q421.654 1142.58 417.65 1142.58 Q415.775 1142.58 413.9 1142.99 Q412.048 1143.41 410.104 1144.29 L410.104 1126.93 Z" fill="#000000" fill-rule="nonzero" fill-opacity="1" /><path clip-path="url(#clip880)" d="M615.589 1157.55 L623.228 1157.55 L623.228 1131.19 L614.918 1132.85 L614.918 1128.59 L623.182 1126.93 L627.858 1126.93 L627.858 1157.55 L635.496 1157.55 L635.496 1161.49 L615.589 1161.49 L615.589 1157.55 Z" fill="#000000" fill-rule="nonzero" fill-opacity="1" /><path clip-path="url(#clip880)" d="M654.941 1130.01 Q651.33 1130.01 649.501 1133.57 Q647.695 1137.11 647.695 1144.24 Q647.695 1151.35 649.501 1154.91 Q651.33 1158.46 654.941 1158.46 Q658.575 1158.46 660.381 1154.91 Q662.209 1151.35 662.209 1144.24 Q662.209 1137.11 660.381 1133.57 Q658.575 1130.01 654.941 1130.01 M654.941 1126.3 Q660.751 1126.3 663.807 1130.91 Q666.885 1135.49 666.885 1144.24 Q666.885 1152.97 663.807 1157.58 Q660.751 1162.16 654.941 1162.16 Q649.131 1162.16 646.052 1157.58 Q642.996 1152.97 642.996 1144.24 Q642.996 1135.49 646.052 1130.91 Q649.131 1126.3 654.941 1126.3 Z" fill="#000000" fill-rule="nonzero" fill-opacity="1" /><path clip-path="url(#clip880)" d="M837.163 1157.55 L844.802 1157.55 L844.802 1131.19 L836.491 1132.85 L836.491 1128.59 L844.755 1126.93 L849.431 1126.93 L849.431 1157.55 L857.07 1157.55 L857.07 1161.49 L837.163 1161.49 L837.163 1157.55 Z" fill="#000000" fill-rule="nonzero" fill-opacity="1" /><path clip-path="url(#clip880)" d="M866.561 1126.93 L884.917 1126.93 L884.917 1130.86 L870.843 1130.86 L870.843 1139.34 Q871.862 1138.99 872.88 1138.83 Q873.899 1138.64 874.917 1138.64 Q880.704 1138.64 884.084 1141.81 Q887.463 1144.98 887.463 1150.4 Q887.463 1155.98 883.991 1159.08 Q880.519 1162.16 874.2 1162.16 Q872.024 1162.16 869.755 1161.79 Q867.51 1161.42 865.102 1160.68 L865.102 1155.98 Q867.186 1157.11 869.408 1157.67 Q871.63 1158.22 874.107 1158.22 Q878.112 1158.22 880.45 1156.12 Q882.787 1154.01 882.787 1150.4 Q882.787 1146.79 880.45 1144.68 Q878.112 1142.58 874.107 1142.58 Q872.232 1142.58 870.357 1142.99 Q868.505 1143.41 866.561 1144.29 L866.561 1126.93 Z" fill="#000000" fill-rule="nonzero" fill-opacity="1" /><path clip-path="url(#clip880)" d="M1061.83 1157.55 L1078.15 1157.55 L1078.15 1161.49 L1056.2 1161.49 L1056.2 1157.55 Q1058.86 1154.8 1063.45 1150.17 Q1068.05 1145.52 1069.23 1144.17 Q1071.48 1141.65 1072.36 1139.91 Q1073.26 1138.15 1073.26 1136.46 Q1073.26 1133.71 1071.32 1131.97 Q1069.4 1130.24 1066.29 1130.24 Q1064.1 1130.24 1061.64 1131 Q1059.21 1131.77 1056.43 1133.32 L1056.43 1128.59 Q1059.26 1127.46 1061.71 1126.88 Q1064.16 1126.3 1066.2 1126.3 Q1071.57 1126.3 1074.77 1128.99 Q1077.96 1131.67 1077.96 1136.16 Q1077.96 1138.29 1077.15 1140.21 Q1076.36 1142.11 1074.26 1144.71 Q1073.68 1145.38 1070.58 1148.59 Q1067.47 1151.79 1061.83 1157.55 Z" fill="#000000" fill-rule="nonzero" fill-opacity="1" /><path clip-path="url(#clip880)" d="M1097.96 1130.01 Q1094.35 1130.01 1092.52 1133.57 Q1090.72 1137.11 1090.72 1144.24 Q1090.72 1151.35 1092.52 1154.91 Q1094.35 1158.46 1097.96 1158.46 Q1101.59 1158.46 1103.4 1154.91 Q1105.23 1151.35 1105.23 1144.24 Q1105.23 1137.11 1103.4 1133.57 Q1101.59 1130.01 1097.96 1130.01 M1097.96 1126.3 Q1103.77 1126.3 1106.83 1130.91 Q1109.9 1135.49 1109.9 1144.24 Q1109.9 1152.97 1106.83 1157.58 Q1103.77 1162.16 1097.96 1162.16 Q1092.15 1162.16 1089.07 1157.58 Q1086.02 1152.97 1086.02 1144.24 Q1086.02 1135.49 1089.07 1130.91 Q1092.15 1126.3 1097.96 1126.3 Z" fill="#000000" fill-rule="nonzero" fill-opacity="1" /><polyline clip-path="url(#clip880)" style="stroke:#000000; stroke-linecap:round; stroke-linejoin:round; stroke-width:4; stroke-opacity:1; fill:none" points="216.436,1099.09 216.436,92.1521 "/>
<polyline clip-path="url(#clip880)" style="stroke:#000000; stroke-linecap:round; stroke-linejoin:round; stroke-width:4; stroke-opacity:1; fill:none" points="216.436,1089.01 235.334,1089.01 "/>
<polyline clip-path="url(#clip880)" style="stroke:#000000; stroke-linecap:round; stroke-linejoin:round; stroke-width:4; stroke-opacity:1; fill:none" points="216.436,846.92 235.334,846.92 "/>
<polyline clip-path="url(#clip880)" style="stroke:#000000; stroke-linecap:round; stroke-linejoin:round; stroke-width:4; stroke-opacity:1; fill:none" points="216.436,604.83 235.334,604.83 "/>
<polyline clip-path="url(#clip880)" style="stroke:#000000; stroke-linecap:round; stroke-linejoin:round; stroke-width:4; stroke-opacity:1; fill:none" points="216.436,362.74 235.334,362.74 "/>
<polyline clip-path="url(#clip880)" style="stroke:#000000; stroke-linecap:round; stroke-linejoin:round; stroke-width:4; stroke-opacity:1; fill:none" points="216.436,120.65 235.334,120.65 "/>
<path clip-path="url(#clip880)" d="M62.9365 1074.81 Q59.3254 1074.81 57.4967 1078.37 Q55.6912 1081.92 55.6912 1089.05 Q55.6912 1096.15 57.4967 1099.72 Q59.3254 1103.26 62.9365 1103.26 Q66.5707 1103.26 68.3763 1099.72 Q70.205 1096.15 70.205 1089.05 Q70.205 1081.92 68.3763 1078.37 Q66.5707 1074.81 62.9365 1074.81 M62.9365 1071.11 Q68.7467 1071.11 71.8022 1075.71 Q74.8809 1080.3 74.8809 1089.05 Q74.8809 1097.77 71.8022 1102.38 Q68.7467 1106.96 62.9365 1106.96 Q57.1264 1106.96 54.0477 1102.38 Q50.9921 1097.77 50.9921 1089.05 Q50.9921 1080.3 54.0477 1075.71 Q57.1264 1071.11 62.9365 1071.11 Z" fill="#000000" fill-rule="nonzero" fill-opacity="1" /><path clip-path="url(#clip880)" d="M83.0984 1100.41 L87.9827 1100.41 L87.9827 1106.29 L83.0984 1106.29 L83.0984 1100.41 Z" fill="#000000" fill-rule="nonzero" fill-opacity="1" /><path clip-path="url(#clip880)" d="M108.168 1074.81 Q104.557 1074.81 102.728 1078.37 Q100.922 1081.92 100.922 1089.05 Q100.922 1096.15 102.728 1099.72 Q104.557 1103.26 108.168 1103.26 Q111.802 1103.26 113.608 1099.72 Q115.436 1096.15 115.436 1089.05 Q115.436 1081.92 113.608 1078.37 Q111.802 1074.81 108.168 1074.81 M108.168 1071.11 Q113.978 1071.11 117.033 1075.71 Q120.112 1080.3 120.112 1089.05 Q120.112 1097.77 117.033 1102.38 Q113.978 1106.96 108.168 1106.96 Q102.358 1106.96 99.2789 1102.38 Q96.2234 1097.77 96.2234 1089.05 Q96.2234 1080.3 99.2789 1075.71 Q102.358 1071.11 108.168 1071.11 Z" fill="#000000" fill-rule="nonzero" fill-opacity="1" /><path clip-path="url(#clip880)" d="M138.33 1074.81 Q134.719 1074.81 132.89 1078.37 Q131.084 1081.92 131.084 1089.05 Q131.084 1096.15 132.89 1099.72 Q134.719 1103.26 138.33 1103.26 Q141.964 1103.26 143.769 1099.72 Q145.598 1096.15 145.598 1089.05 Q145.598 1081.92 143.769 1078.37 Q141.964 1074.81 138.33 1074.81 M138.33 1071.11 Q144.14 1071.11 147.195 1075.71 Q150.274 1080.3 150.274 1089.05 Q150.274 1097.77 147.195 1102.38 Q144.14 1106.96 138.33 1106.96 Q132.519 1106.96 129.441 1102.38 Q126.385 1097.77 126.385 1089.05 Q126.385 1080.3 129.441 1075.71 Q132.519 1071.11 138.33 1071.11 Z" fill="#000000" fill-rule="nonzero" fill-opacity="1" /><path clip-path="url(#clip880)" d="M168.491 1074.81 Q164.88 1074.81 163.052 1078.37 Q161.246 1081.92 161.246 1089.05 Q161.246 1096.15 163.052 1099.72 Q164.88 1103.26 168.491 1103.26 Q172.126 1103.26 173.931 1099.72 Q175.76 1096.15 175.76 1089.05 Q175.76 1081.92 173.931 1078.37 Q172.126 1074.81 168.491 1074.81 M168.491 1071.11 Q174.302 1071.11 177.357 1075.71 Q180.436 1080.3 180.436 1089.05 Q180.436 1097.77 177.357 1102.38 Q174.302 1106.96 168.491 1106.96 Q162.681 1106.96 159.603 1102.38 Q156.547 1097.77 156.547 1089.05 Q156.547 1080.3 159.603 1075.71 Q162.681 1071.11 168.491 1071.11 Z" fill="#000000" fill-rule="nonzero" fill-opacity="1" /><path clip-path="url(#clip880)" d="M63.9319 832.719 Q60.3208 832.719 58.4921 836.284 Q56.6865 839.826 56.6865 846.955 Q56.6865 854.062 58.4921 857.626 Q60.3208 861.168 63.9319 861.168 Q67.5661 861.168 69.3717 857.626 Q71.2004 854.062 71.2004 846.955 Q71.2004 839.826 69.3717 836.284 Q67.5661 832.719 63.9319 832.719 M63.9319 829.015 Q69.742 829.015 72.7976 833.622 Q75.8763 838.205 75.8763 846.955 Q75.8763 855.682 72.7976 860.288 Q69.742 864.872 63.9319 864.872 Q58.1217 864.872 55.043 860.288 Q51.9875 855.682 51.9875 846.955 Q51.9875 838.205 55.043 833.622 Q58.1217 829.015 63.9319 829.015 Z" fill="#000000" fill-rule="nonzero" fill-opacity="1" /><path clip-path="url(#clip880)" d="M84.0938 858.321 L88.978 858.321 L88.978 864.2 L84.0938 864.2 L84.0938 858.321 Z" fill="#000000" fill-rule="nonzero" fill-opacity="1" /><path clip-path="url(#clip880)" d="M109.163 832.719 Q105.552 832.719 103.723 836.284 Q101.918 839.826 101.918 846.955 Q101.918 854.062 103.723 857.626 Q105.552 861.168 109.163 861.168 Q112.797 861.168 114.603 857.626 Q116.432 854.062 116.432 846.955 Q116.432 839.826 114.603 836.284 Q112.797 832.719 109.163 832.719 M109.163 829.015 Q114.973 829.015 118.029 833.622 Q121.107 838.205 121.107 846.955 Q121.107 855.682 118.029 860.288 Q114.973 864.872 109.163 864.872 Q103.353 864.872 100.274 860.288 Q97.2187 855.682 97.2187 846.955 Q97.2187 838.205 100.274 833.622 Q103.353 829.015 109.163 829.015 Z" fill="#000000" fill-rule="nonzero" fill-opacity="1" /><path clip-path="url(#clip880)" d="M139.325 832.719 Q135.714 832.719 133.885 836.284 Q132.08 839.826 132.08 846.955 Q132.08 854.062 133.885 857.626 Q135.714 861.168 139.325 861.168 Q142.959 861.168 144.765 857.626 Q146.593 854.062 146.593 846.955 Q146.593 839.826 144.765 836.284 Q142.959 832.719 139.325 832.719 M139.325 829.015 Q145.135 829.015 148.191 833.622 Q151.269 838.205 151.269 846.955 Q151.269 855.682 148.191 860.288 Q145.135 864.872 139.325 864.872 Q133.515 864.872 130.436 860.288 Q127.381 855.682 127.381 846.955 Q127.381 838.205 130.436 833.622 Q133.515 829.015 139.325 829.015 Z" fill="#000000" fill-rule="nonzero" fill-opacity="1" /><path clip-path="url(#clip880)" d="M159.533 829.64 L177.89 829.64 L177.89 833.576 L163.816 833.576 L163.816 842.048 Q164.834 841.7 165.853 841.538 Q166.871 841.353 167.89 841.353 Q173.677 841.353 177.056 844.525 Q180.436 847.696 180.436 853.112 Q180.436 858.691 176.964 861.793 Q173.491 864.872 167.172 864.872 Q164.996 864.872 162.728 864.501 Q160.482 864.131 158.075 863.39 L158.075 858.691 Q160.158 859.825 162.38 860.381 Q164.603 860.937 167.079 860.937 Q171.084 860.937 173.422 858.83 Q175.76 856.724 175.76 853.112 Q175.76 849.501 173.422 847.395 Q171.084 845.288 167.079 845.288 Q165.204 845.288 163.329 845.705 Q161.478 846.122 159.533 847.001 L159.533 829.64 Z" fill="#000000" fill-rule="nonzero" fill-opacity="1" /><path clip-path="url(#clip880)" d="M62.9365 590.629 Q59.3254 590.629 57.4967 594.194 Q55.6912 597.735 55.6912 604.865 Q55.6912 611.972 57.4967 615.536 Q59.3254 619.078 62.9365 619.078 Q66.5707 619.078 68.3763 615.536 Q70.205 611.972 70.205 604.865 Q70.205 597.735 68.3763 594.194 Q66.5707 590.629 62.9365 590.629 M62.9365 586.925 Q68.7467 586.925 71.8022 591.532 Q74.8809 596.115 74.8809 604.865 Q74.8809 613.592 71.8022 618.198 Q68.7467 622.782 62.9365 622.782 Q57.1264 622.782 54.0477 618.198 Q50.9921 613.592 50.9921 604.865 Q50.9921 596.115 54.0477 591.532 Q57.1264 586.925 62.9365 586.925 Z" fill="#000000" fill-rule="nonzero" fill-opacity="1" /><path clip-path="url(#clip880)" d="M83.0984 616.231 L87.9827 616.231 L87.9827 622.11 L83.0984 622.11 L83.0984 616.231 Z" fill="#000000" fill-rule="nonzero" fill-opacity="1" /><path clip-path="url(#clip880)" d="M108.168 590.629 Q104.557 590.629 102.728 594.194 Q100.922 597.735 100.922 604.865 Q100.922 611.972 102.728 615.536 Q104.557 619.078 108.168 619.078 Q111.802 619.078 113.608 615.536 Q115.436 611.972 115.436 604.865 Q115.436 597.735 113.608 594.194 Q111.802 590.629 108.168 590.629 M108.168 586.925 Q113.978 586.925 117.033 591.532 Q120.112 596.115 120.112 604.865 Q120.112 613.592 117.033 618.198 Q113.978 622.782 108.168 622.782 Q102.358 622.782 99.2789 618.198 Q96.2234 613.592 96.2234 604.865 Q96.2234 596.115 99.2789 591.532 Q102.358 586.925 108.168 586.925 Z" fill="#000000" fill-rule="nonzero" fill-opacity="1" /><path clip-path="url(#clip880)" d="M129.14 618.175 L136.779 618.175 L136.779 591.81 L128.469 593.476 L128.469 589.217 L136.732 587.55 L141.408 587.55 L141.408 618.175 L149.047 618.175 L149.047 622.11 L129.14 622.11 L129.14 618.175 Z" fill="#000000" fill-rule="nonzero" fill-opacity="1" /><path clip-path="url(#clip880)" d="M168.491 590.629 Q164.88 590.629 163.052 594.194 Q161.246 597.735 161.246 604.865 Q161.246 611.972 163.052 615.536 Q164.88 619.078 168.491 619.078 Q172.126 619.078 173.931 615.536 Q175.76 611.972 175.76 604.865 Q175.76 597.735 173.931 594.194 Q172.126 590.629 168.491 590.629 M168.491 586.925 Q174.302 586.925 177.357 591.532 Q180.436 596.115 180.436 604.865 Q180.436 613.592 177.357 618.198 Q174.302 622.782 168.491 622.782 Q162.681 622.782 159.603 618.198 Q156.547 613.592 156.547 604.865 Q156.547 596.115 159.603 591.532 Q162.681 586.925 168.491 586.925 Z" fill="#000000" fill-rule="nonzero" fill-opacity="1" /><path clip-path="url(#clip880)" d="M63.9319 348.539 Q60.3208 348.539 58.4921 352.104 Q56.6865 355.645 56.6865 362.775 Q56.6865 369.881 58.4921 373.446 Q60.3208 376.988 63.9319 376.988 Q67.5661 376.988 69.3717 373.446 Q71.2004 369.881 71.2004 362.775 Q71.2004 355.645 69.3717 352.104 Q67.5661 348.539 63.9319 348.539 M63.9319 344.835 Q69.742 344.835 72.7976 349.442 Q75.8763 354.025 75.8763 362.775 Q75.8763 371.502 72.7976 376.108 Q69.742 380.692 63.9319 380.692 Q58.1217 380.692 55.043 376.108 Q51.9875 371.502 51.9875 362.775 Q51.9875 354.025 55.043 349.442 Q58.1217 344.835 63.9319 344.835 Z" fill="#000000" fill-rule="nonzero" fill-opacity="1" /><path clip-path="url(#clip880)" d="M84.0938 374.141 L88.978 374.141 L88.978 380.02 L84.0938 380.02 L84.0938 374.141 Z" fill="#000000" fill-rule="nonzero" fill-opacity="1" /><path clip-path="url(#clip880)" d="M109.163 348.539 Q105.552 348.539 103.723 352.104 Q101.918 355.645 101.918 362.775 Q101.918 369.881 103.723 373.446 Q105.552 376.988 109.163 376.988 Q112.797 376.988 114.603 373.446 Q116.432 369.881 116.432 362.775 Q116.432 355.645 114.603 352.104 Q112.797 348.539 109.163 348.539 M109.163 344.835 Q114.973 344.835 118.029 349.442 Q121.107 354.025 121.107 362.775 Q121.107 371.502 118.029 376.108 Q114.973 380.692 109.163 380.692 Q103.353 380.692 100.274 376.108 Q97.2187 371.502 97.2187 362.775 Q97.2187 354.025 100.274 349.442 Q103.353 344.835 109.163 344.835 Z" fill="#000000" fill-rule="nonzero" fill-opacity="1" /><path clip-path="url(#clip880)" d="M130.135 376.085 L137.774 376.085 L137.774 349.72 L129.464 351.386 L129.464 347.127 L137.728 345.46 L142.404 345.46 L142.404 376.085 L150.043 376.085 L150.043 380.02 L130.135 380.02 L130.135 376.085 Z" fill="#000000" fill-rule="nonzero" fill-opacity="1" /><path clip-path="url(#clip880)" d="M159.533 345.46 L177.89 345.46 L177.89 349.395 L163.816 349.395 L163.816 357.868 Q164.834 357.52 165.853 357.358 Q166.871 357.173 167.89 357.173 Q173.677 357.173 177.056 360.345 Q180.436 363.516 180.436 368.932 Q180.436 374.511 176.964 377.613 Q173.491 380.692 167.172 380.692 Q164.996 380.692 162.728 380.321 Q160.482 379.951 158.075 379.21 L158.075 374.511 Q160.158 375.645 162.38 376.201 Q164.603 376.756 167.079 376.756 Q171.084 376.756 173.422 374.65 Q175.76 372.544 175.76 368.932 Q175.76 365.321 173.422 363.215 Q171.084 361.108 167.079 361.108 Q165.204 361.108 163.329 361.525 Q161.478 361.942 159.533 362.821 L159.533 345.46 Z" fill="#000000" fill-rule="nonzero" fill-opacity="1" /><path clip-path="url(#clip880)" d="M62.9365 106.449 Q59.3254 106.449 57.4967 110.014 Q55.6912 113.555 55.6912 120.685 Q55.6912 127.791 57.4967 131.356 Q59.3254 134.898 62.9365 134.898 Q66.5707 134.898 68.3763 131.356 Q70.205 127.791 70.205 120.685 Q70.205 113.555 68.3763 110.014 Q66.5707 106.449 62.9365 106.449 M62.9365 102.745 Q68.7467 102.745 71.8022 107.352 Q74.8809 111.935 74.8809 120.685 Q74.8809 129.412 71.8022 134.018 Q68.7467 138.602 62.9365 138.602 Q57.1264 138.602 54.0477 134.018 Q50.9921 129.412 50.9921 120.685 Q50.9921 111.935 54.0477 107.352 Q57.1264 102.745 62.9365 102.745 Z" fill="#000000" fill-rule="nonzero" fill-opacity="1" /><path clip-path="url(#clip880)" d="M83.0984 132.051 L87.9827 132.051 L87.9827 137.93 L83.0984 137.93 L83.0984 132.051 Z" fill="#000000" fill-rule="nonzero" fill-opacity="1" /><path clip-path="url(#clip880)" d="M108.168 106.449 Q104.557 106.449 102.728 110.014 Q100.922 113.555 100.922 120.685 Q100.922 127.791 102.728 131.356 Q104.557 134.898 108.168 134.898 Q111.802 134.898 113.608 131.356 Q115.436 127.791 115.436 120.685 Q115.436 113.555 113.608 110.014 Q111.802 106.449 108.168 106.449 M108.168 102.745 Q113.978 102.745 117.033 107.352 Q120.112 111.935 120.112 120.685 Q120.112 129.412 117.033 134.018 Q113.978 138.602 108.168 138.602 Q102.358 138.602 99.2789 134.018 Q96.2234 129.412 96.2234 120.685 Q96.2234 111.935 99.2789 107.352 Q102.358 102.745 108.168 102.745 Z" fill="#000000" fill-rule="nonzero" fill-opacity="1" /><path clip-path="url(#clip880)" d="M132.357 133.995 L148.677 133.995 L148.677 137.93 L126.732 137.93 L126.732 133.995 Q129.394 131.241 133.978 126.611 Q138.584 121.958 139.765 120.616 Q142.01 118.092 142.89 116.356 Q143.793 114.597 143.793 112.907 Q143.793 110.153 141.848 108.417 Q139.927 106.68 136.825 106.68 Q134.626 106.68 132.172 107.444 Q129.742 108.208 126.964 109.759 L126.964 105.037 Q129.788 103.903 132.242 103.324 Q134.695 102.745 136.732 102.745 Q142.103 102.745 145.297 105.43 Q148.492 108.116 148.492 112.606 Q148.492 114.736 147.681 116.657 Q146.894 118.555 144.788 121.148 Q144.209 121.819 141.107 125.037 Q138.006 128.231 132.357 133.995 Z" fill="#000000" fill-rule="nonzero" fill-opacity="1" /><path clip-path="url(#clip880)" d="M168.491 106.449 Q164.88 106.449 163.052 110.014 Q161.246 113.555 161.246 120.685 Q161.246 127.791 163.052 131.356 Q164.88 134.898 168.491 134.898 Q172.126 134.898 173.931 131.356 Q175.76 127.791 175.76 120.685 Q175.76 113.555 173.931 110.014 Q172.126 106.449 168.491 106.449 M168.491 102.745 Q174.302 102.745 177.357 107.352 Q180.436 111.935 180.436 120.685 Q180.436 129.412 177.357 134.018 Q174.302 138.602 168.491 138.602 Q162.681 138.602 159.603 134.018 Q156.547 129.412 156.547 120.685 Q156.547 111.935 159.603 107.352 Q162.681 102.745 168.491 102.745 Z" fill="#000000" fill-rule="nonzero" fill-opacity="1" /><path clip-path="url(#clip880)" d="M617.734 30.8748 L617.734 33.2186 L595.703 33.2186 Q596.016 38.1665 598.672 40.7706 Q601.354 43.3487 606.12 43.3487 Q608.88 43.3487 611.458 42.6716 Q614.062 41.9946 616.614 40.6404 L616.614 45.1716 Q614.036 46.2654 611.328 46.8383 Q608.62 47.4112 605.833 47.4112 Q598.854 47.4112 594.766 43.3487 Q590.703 39.2862 590.703 32.3592 Q590.703 25.1978 594.557 21.0051 Q598.437 16.7864 605 16.7864 Q610.885 16.7864 614.297 20.5884 Q617.734 24.3645 617.734 30.8748 M612.943 29.4686 Q612.891 25.5363 610.729 23.1926 Q608.594 20.8488 605.052 20.8488 Q601.042 20.8488 598.62 23.1145 Q596.224 25.3801 595.859 29.4946 L612.943 29.4686 Z" fill="#000000" fill-rule="nonzero" fill-opacity="1" /><path clip-path="url(#clip880)" d="M625.104 35.1456 L625.104 17.4895 L629.896 17.4895 L629.896 34.9634 Q629.896 39.104 631.51 41.1873 Q633.125 43.2446 636.354 43.2446 Q640.234 43.2446 642.474 40.7706 Q644.739 38.2967 644.739 34.0259 L644.739 17.4895 L649.531 17.4895 L649.531 46.656 L644.739 46.656 L644.739 42.1769 Q642.995 44.8331 640.677 46.1352 Q638.385 47.4112 635.338 47.4112 Q630.312 47.4112 627.708 44.2862 Q625.104 41.1612 625.104 35.1456 M637.161 16.7864 L637.161 16.7864 Z" fill="#000000" fill-rule="nonzero" fill-opacity="1" /><path clip-path="url(#clip880)" d="M676.302 21.9686 Q675.494 21.4999 674.531 21.2916 Q673.593 21.0572 672.448 21.0572 Q668.385 21.0572 666.198 23.7134 Q664.036 26.3436 664.036 31.2915 L664.036 46.656 L659.218 46.656 L659.218 17.4895 L664.036 17.4895 L664.036 22.0207 Q665.547 19.3645 667.968 18.0884 Q670.39 16.7864 673.854 16.7864 Q674.349 16.7864 674.948 16.8645 Q675.546 16.9166 676.276 17.0468 L676.302 21.9686 Z" fill="#000000" fill-rule="nonzero" fill-opacity="1" /><path clip-path="url(#clip880)" d="M681.328 17.4895 L686.119 17.4895 L686.119 46.656 L681.328 46.656 L681.328 17.4895 M681.328 6.13538 L686.119 6.13538 L686.119 12.2031 L681.328 12.2031 L681.328 6.13538 Z" fill="#000000" fill-rule="nonzero" fill-opacity="1" /><path clip-path="url(#clip880)" d="M717.083 32.0988 Q717.083 26.8124 714.895 23.8176 Q712.734 20.7968 708.932 20.7968 Q705.13 20.7968 702.942 23.8176 Q700.781 26.8124 700.781 32.0988 Q700.781 37.3852 702.942 40.406 Q705.13 43.4008 708.932 43.4008 Q712.734 43.4008 714.895 40.406 Q717.083 37.3852 717.083 32.0988 M700.781 21.9165 Q702.291 19.3124 704.583 18.0624 Q706.9 16.7864 710.104 16.7864 Q715.416 16.7864 718.723 21.0051 Q722.057 25.2238 722.057 32.0988 Q722.057 38.9737 718.723 43.1925 Q715.416 47.4112 710.104 47.4112 Q706.9 47.4112 704.583 46.1612 Q702.291 44.8852 700.781 42.281 L700.781 46.656 L695.963 46.656 L695.963 6.13538 L700.781 6.13538 L700.781 21.9165 Z" fill="#000000" fill-rule="nonzero" fill-opacity="1" /><path clip-path="url(#clip880)" d="M741.301 20.8488 Q737.447 20.8488 735.208 23.8697 Q732.968 26.8644 732.968 32.0988 Q732.968 37.3331 735.182 40.354 Q737.421 43.3487 741.301 43.3487 Q745.129 43.3487 747.369 40.3279 Q749.609 37.3071 749.609 32.0988 Q749.609 26.9165 747.369 23.8957 Q745.129 20.8488 741.301 20.8488 M741.301 16.7864 Q747.551 16.7864 751.119 20.8488 Q754.687 24.9113 754.687 32.0988 Q754.687 39.2602 751.119 43.3487 Q747.551 47.4112 741.301 47.4112 Q735.025 47.4112 731.458 43.3487 Q727.916 39.2602 727.916 32.0988 Q727.916 24.9113 731.458 20.8488 Q735.025 16.7864 741.301 16.7864 Z" fill="#000000" fill-rule="nonzero" fill-opacity="1" /><path clip-path="url(#clip880)" d="M779.53 21.9686 Q778.723 21.4999 777.759 21.2916 Q776.822 21.0572 775.676 21.0572 Q771.614 21.0572 769.426 23.7134 Q767.265 26.3436 767.265 31.2915 L767.265 46.656 L762.447 46.656 L762.447 17.4895 L767.265 17.4895 L767.265 22.0207 Q768.775 19.3645 771.197 18.0884 Q773.619 16.7864 777.082 16.7864 Q777.577 16.7864 778.176 16.8645 Q778.775 16.9166 779.504 17.0468 L779.53 21.9686 Z" fill="#000000" fill-rule="nonzero" fill-opacity="1" /><path clip-path="url(#clip882)" d="M242.965 1009.32 L287.18 1022.88 L331.395 1033.21 L375.611 1023.61 L419.826 997.68 L464.041 995.51 L508.256 1010.64 L552.471 1042.22 L596.686 1028.32 L640.902 1070.59 L685.117 1016.39 L729.332 994.305 L773.547 1001.72 L817.762 985.759 L861.977 989.861 L906.193 1003.15 L950.408 1025.28 L994.623 1053.68 L1038.84 1029.66 L1083.05 1040.85 L1127.27 1061.84 L1127.27 864.686 L1083.05 889.986 L1038.84 864.63 L994.623 876.104 L950.408 904.752 L906.193 925.98 L861.977 912.749 L817.762 925.791 L773.547 926.398 L729.332 929.146 L685.117 884.584 L640.902 911.67 L596.686 901.636 L552.471 912.174 L508.256 925.169 L464.041 888.897 L419.826 894.99 L375.611 939.734 L331.395 953.301 L287.18 967.592 L242.965 1009.32  Z" fill="#009af9" fill-rule="evenodd" fill-opacity="0.1"/>
<polyline clip-path="url(#clip882)" style="stroke:#009af9; stroke-linecap:round; stroke-linejoin:round; stroke-width:4; stroke-opacity:1; fill:none" points="242.965,1009.32 287.18,995.238 331.395,993.254 375.611,981.674 419.826,946.335 464.041,942.203 508.256,967.906 552.471,977.198 596.686,964.977 640.902,991.13 685.117,950.485 729.332,961.725 773.547,964.057 817.762,955.775 861.977,951.305 906.193,964.564 950.408,965.014 994.623,964.889 1038.84,947.144 1083.05,965.419 1127.27,963.266 "/>
<path clip-path="url(#clip882)" d="M242.965 1009.32 L287.18 120.65 L331.395 120.65 L375.611 120.65 L419.826 120.65 L464.041 120.65 L508.256 120.65 L552.471 120.65 L596.686 120.65 L640.902 120.65 L685.117 120.65 L729.332 120.65 L773.547 120.65 L817.762 120.65 L861.977 120.65 L906.193 120.65 L950.408 120.65 L994.623 120.65 L1038.84 120.65 L1083.05 120.65 L1127.27 120.65 L1127.27 120.65 L1083.05 120.65 L1038.84 120.65 L994.623 120.65 L950.408 120.65 L906.193 120.65 L861.977 120.65 L817.762 120.65 L773.547 120.65 L729.332 120.65 L685.117 120.65 L640.902 120.65 L596.686 120.65 L552.471 120.65 L508.256 120.65 L464.041 120.65 L419.826 120.65 L375.611 120.65 L331.395 120.65 L287.18 120.65 L242.965 1009.32  Z" fill="#e26f46" fill-rule="evenodd" fill-opacity="0.1"/>
<polyline clip-path="url(#clip882)" style="stroke:#e26f46; stroke-linecap:round; stroke-linejoin:round; stroke-width:4; stroke-opacity:1; fill:none" points="242.965,1009.32 287.18,120.65 331.395,120.65 375.611,120.65 419.826,120.65 464.041,120.65 508.256,120.65 552.471,120.65 596.686,120.65 640.902,120.65 685.117,120.65 729.332,120.65 773.547,120.65 817.762,120.65 861.977,120.65 906.193,120.65 950.408,120.65 994.623,120.65 1038.84,120.65 1083.05,120.65 1127.27,120.65 "/>
<path clip-path="url(#clip880)" d="M1415.39 1099.09 L2352.76 1099.09 L2352.76 92.1521 L1415.39 92.1521  Z" fill="#ffffff" fill-rule="evenodd" fill-opacity="1"/>
<defs>
  <clipPath id="clip883">
    <rect x="1415" y="92" width="938" height="1008"/>
  </clipPath>
</defs>
<polyline clip-path="url(#clip883)" style="stroke:#000000; stroke-linecap:round; stroke-linejoin:round; stroke-width:2; stroke-opacity:0.1; fill:none" points="1618.78,1099.09 1618.78,92.1521 "/>
<polyline clip-path="url(#clip883)" style="stroke:#000000; stroke-linecap:round; stroke-linejoin:round; stroke-width:2; stroke-opacity:0.1; fill:none" points="1839.86,1099.09 1839.86,92.1521 "/>
<polyline clip-path="url(#clip883)" style="stroke:#000000; stroke-linecap:round; stroke-linejoin:round; stroke-width:2; stroke-opacity:0.1; fill:none" points="2060.94,1099.09 2060.94,92.1521 "/>
<polyline clip-path="url(#clip883)" style="stroke:#000000; stroke-linecap:round; stroke-linejoin:round; stroke-width:2; stroke-opacity:0.1; fill:none" points="2282.01,1099.09 2282.01,92.1521 "/>
<polyline clip-path="url(#clip883)" style="stroke:#000000; stroke-linecap:round; stroke-linejoin:round; stroke-width:2; stroke-opacity:0.1; fill:none" points="1415.39,1070.59 2352.76,1070.59 "/>
<polyline clip-path="url(#clip883)" style="stroke:#000000; stroke-linecap:round; stroke-linejoin:round; stroke-width:2; stroke-opacity:0.1; fill:none" points="1415.39,841.232 2352.76,841.232 "/>
<polyline clip-path="url(#clip883)" style="stroke:#000000; stroke-linecap:round; stroke-linejoin:round; stroke-width:2; stroke-opacity:0.1; fill:none" points="1415.39,611.875 2352.76,611.875 "/>
<polyline clip-path="url(#clip883)" style="stroke:#000000; stroke-linecap:round; stroke-linejoin:round; stroke-width:2; stroke-opacity:0.1; fill:none" points="1415.39,382.517 2352.76,382.517 "/>
<polyline clip-path="url(#clip883)" style="stroke:#000000; stroke-linecap:round; stroke-linejoin:round; stroke-width:2; stroke-opacity:0.1; fill:none" points="1415.39,153.16 2352.76,153.16 "/>
<polyline clip-path="url(#clip880)" style="stroke:#000000; stroke-linecap:round; stroke-linejoin:round; stroke-width:4; stroke-opacity:1; fill:none" points="1415.39,1099.09 2352.76,1099.09 "/>
<polyline clip-path="url(#clip880)" style="stroke:#000000; stroke-linecap:round; stroke-linejoin:round; stroke-width:4; stroke-opacity:1; fill:none" points="1618.78,1099.09 1618.78,1080.19 "/>
<polyline clip-path="url(#clip880)" style="stroke:#000000; stroke-linecap:round; stroke-linejoin:round; stroke-width:4; stroke-opacity:1; fill:none" points="1839.86,1099.09 1839.86,1080.19 "/>
<polyline clip-path="url(#clip880)" style="stroke:#000000; stroke-linecap:round; stroke-linejoin:round; stroke-width:4; stroke-opacity:1; fill:none" points="2060.94,1099.09 2060.94,1080.19 "/>
<polyline clip-path="url(#clip880)" style="stroke:#000000; stroke-linecap:round; stroke-linejoin:round; stroke-width:4; stroke-opacity:1; fill:none" points="2282.01,1099.09 2282.01,1080.19 "/>
<path clip-path="url(#clip880)" d="M1609.06 1126.93 L1627.42 1126.93 L1627.42 1130.86 L1613.34 1130.86 L1613.34 1139.34 Q1614.36 1138.99 1615.38 1138.83 Q1616.4 1138.64 1617.42 1138.64 Q1623.21 1138.64 1626.58 1141.81 Q1629.96 1144.98 1629.96 1150.4 Q1629.96 1155.98 1626.49 1159.08 Q1623.02 1162.16 1616.7 1162.16 Q1614.52 1162.16 1612.26 1161.79 Q1610.01 1161.42 1607.6 1160.68 L1607.6 1155.98 Q1609.69 1157.11 1611.91 1157.67 Q1614.13 1158.22 1616.61 1158.22 Q1620.61 1158.22 1622.95 1156.12 Q1625.29 1154.01 1625.29 1150.4 Q1625.29 1146.79 1622.95 1144.68 Q1620.61 1142.58 1616.61 1142.58 Q1614.73 1142.58 1612.86 1142.99 Q1611.01 1143.41 1609.06 1144.29 L1609.06 1126.93 Z" fill="#000000" fill-rule="nonzero" fill-opacity="1" /><path clip-path="url(#clip880)" d="M1814.55 1157.55 L1822.19 1157.55 L1822.19 1131.19 L1813.88 1132.85 L1813.88 1128.59 L1822.14 1126.93 L1826.82 1126.93 L1826.82 1157.55 L1834.45 1157.55 L1834.45 1161.49 L1814.55 1161.49 L1814.55 1157.55 Z" fill="#000000" fill-rule="nonzero" fill-opacity="1" /><path clip-path="url(#clip880)" d="M1853.9 1130.01 Q1850.29 1130.01 1848.46 1133.57 Q1846.65 1137.11 1846.65 1144.24 Q1846.65 1151.35 1848.46 1154.91 Q1850.29 1158.46 1853.9 1158.46 Q1857.53 1158.46 1859.34 1154.91 Q1861.17 1151.35 1861.17 1144.24 Q1861.17 1137.11 1859.34 1133.57 Q1857.53 1130.01 1853.9 1130.01 M1853.9 1126.3 Q1859.71 1126.3 1862.76 1130.91 Q1865.84 1135.49 1865.84 1144.24 Q1865.84 1152.97 1862.76 1157.58 Q1859.71 1162.16 1853.9 1162.16 Q1848.09 1162.16 1845.01 1157.58 Q1841.95 1152.97 1841.95 1144.24 Q1841.95 1135.49 1845.01 1130.91 Q1848.09 1126.3 1853.9 1126.3 Z" fill="#000000" fill-rule="nonzero" fill-opacity="1" /><path clip-path="url(#clip880)" d="M2036.12 1157.55 L2043.76 1157.55 L2043.76 1131.19 L2035.45 1132.85 L2035.45 1128.59 L2043.71 1126.93 L2048.39 1126.93 L2048.39 1157.55 L2056.03 1157.55 L2056.03 1161.49 L2036.12 1161.49 L2036.12 1157.55 Z" fill="#000000" fill-rule="nonzero" fill-opacity="1" /><path clip-path="url(#clip880)" d="M2065.52 1126.93 L2083.88 1126.93 L2083.88 1130.86 L2069.8 1130.86 L2069.8 1139.34 Q2070.82 1138.99 2071.84 1138.83 Q2072.86 1138.64 2073.88 1138.64 Q2079.66 1138.64 2083.04 1141.81 Q2086.42 1144.98 2086.42 1150.4 Q2086.42 1155.98 2082.95 1159.08 Q2079.48 1162.16 2073.16 1162.16 Q2070.98 1162.16 2068.71 1161.79 Q2066.47 1161.42 2064.06 1160.68 L2064.06 1155.98 Q2066.14 1157.11 2068.37 1157.67 Q2070.59 1158.22 2073.07 1158.22 Q2077.07 1158.22 2079.41 1156.12 Q2081.75 1154.01 2081.75 1150.4 Q2081.75 1146.79 2079.41 1144.68 Q2077.07 1142.58 2073.07 1142.58 Q2071.19 1142.58 2069.32 1142.99 Q2067.46 1143.41 2065.52 1144.29 L2065.52 1126.93 Z" fill="#000000" fill-rule="nonzero" fill-opacity="1" /><path clip-path="url(#clip880)" d="M2260.78 1157.55 L2277.1 1157.55 L2277.1 1161.49 L2255.16 1161.49 L2255.16 1157.55 Q2257.82 1154.8 2262.41 1150.17 Q2267.01 1145.52 2268.19 1144.17 Q2270.44 1141.65 2271.32 1139.91 Q2272.22 1138.15 2272.22 1136.46 Q2272.22 1133.71 2270.28 1131.97 Q2268.35 1130.24 2265.25 1130.24 Q2263.05 1130.24 2260.6 1131 Q2258.17 1131.77 2255.39 1133.32 L2255.39 1128.59 Q2258.22 1127.46 2260.67 1126.88 Q2263.12 1126.3 2265.16 1126.3 Q2270.53 1126.3 2273.72 1128.99 Q2276.92 1131.67 2276.92 1136.16 Q2276.92 1138.29 2276.11 1140.21 Q2275.32 1142.11 2273.22 1144.71 Q2272.64 1145.38 2269.53 1148.59 Q2266.43 1151.79 2260.78 1157.55 Z" fill="#000000" fill-rule="nonzero" fill-opacity="1" /><path clip-path="url(#clip880)" d="M2296.92 1130.01 Q2293.31 1130.01 2291.48 1133.57 Q2289.67 1137.11 2289.67 1144.24 Q2289.67 1151.35 2291.48 1154.91 Q2293.31 1158.46 2296.92 1158.46 Q2300.55 1158.46 2302.36 1154.91 Q2304.19 1151.35 2304.19 1144.24 Q2304.19 1137.11 2302.36 1133.57 Q2300.55 1130.01 2296.92 1130.01 M2296.92 1126.3 Q2302.73 1126.3 2305.78 1130.91 Q2308.86 1135.49 2308.86 1144.24 Q2308.86 1152.97 2305.78 1157.58 Q2302.73 1162.16 2296.92 1162.16 Q2291.11 1162.16 2288.03 1157.58 Q2284.97 1152.97 2284.97 1144.24 Q2284.97 1135.49 2288.03 1130.91 Q2291.11 1126.3 2296.92 1126.3 Z" fill="#000000" fill-rule="nonzero" fill-opacity="1" /><polyline clip-path="url(#clip880)" style="stroke:#000000; stroke-linecap:round; stroke-linejoin:round; stroke-width:4; stroke-opacity:1; fill:none" points="1415.39,1099.09 1415.39,92.1521 "/>
<polyline clip-path="url(#clip880)" style="stroke:#000000; stroke-linecap:round; stroke-linejoin:round; stroke-width:4; stroke-opacity:1; fill:none" points="1415.39,1070.59 1434.29,1070.59 "/>
<polyline clip-path="url(#clip880)" style="stroke:#000000; stroke-linecap:round; stroke-linejoin:round; stroke-width:4; stroke-opacity:1; fill:none" points="1415.39,841.232 1434.29,841.232 "/>
<polyline clip-path="url(#clip880)" style="stroke:#000000; stroke-linecap:round; stroke-linejoin:round; stroke-width:4; stroke-opacity:1; fill:none" points="1415.39,611.875 1434.29,611.875 "/>
<polyline clip-path="url(#clip880)" style="stroke:#000000; stroke-linecap:round; stroke-linejoin:round; stroke-width:4; stroke-opacity:1; fill:none" points="1415.39,382.517 1434.29,382.517 "/>
<polyline clip-path="url(#clip880)" style="stroke:#000000; stroke-linecap:round; stroke-linejoin:round; stroke-width:4; stroke-opacity:1; fill:none" points="1415.39,153.16 1434.29,153.16 "/>
<path clip-path="url(#clip880)" d="M1252.71 1083.93 L1260.34 1083.93 L1260.34 1057.57 L1252.03 1059.24 L1252.03 1054.98 L1260.3 1053.31 L1264.97 1053.31 L1264.97 1083.93 L1272.61 1083.93 L1272.61 1087.87 L1252.71 1087.87 L1252.71 1083.93 Z" fill="#000000" fill-rule="nonzero" fill-opacity="1" /><path clip-path="url(#clip880)" d="M1282.06 1081.99 L1286.94 1081.99 L1286.94 1087.87 L1282.06 1087.87 L1282.06 1081.99 Z" fill="#000000" fill-rule="nonzero" fill-opacity="1" /><path clip-path="url(#clip880)" d="M1307.13 1056.39 Q1303.51 1056.39 1301.69 1059.95 Q1299.88 1063.49 1299.88 1070.62 Q1299.88 1077.73 1301.69 1081.3 Q1303.51 1084.84 1307.13 1084.84 Q1310.76 1084.84 1312.57 1081.3 Q1314.39 1077.73 1314.39 1070.62 Q1314.39 1063.49 1312.57 1059.95 Q1310.76 1056.39 1307.13 1056.39 M1307.13 1052.68 Q1312.94 1052.68 1315.99 1057.29 Q1319.07 1061.87 1319.07 1070.62 Q1319.07 1079.35 1315.99 1083.96 Q1312.94 1088.54 1307.13 1088.54 Q1301.32 1088.54 1298.24 1083.96 Q1295.18 1079.35 1295.18 1070.62 Q1295.18 1061.87 1298.24 1057.29 Q1301.32 1052.68 1307.13 1052.68 Z" fill="#000000" fill-rule="nonzero" fill-opacity="1" /><path clip-path="url(#clip880)" d="M1337.29 1056.39 Q1333.68 1056.39 1331.85 1059.95 Q1330.04 1063.49 1330.04 1070.62 Q1330.04 1077.73 1331.85 1081.3 Q1333.68 1084.84 1337.29 1084.84 Q1340.92 1084.84 1342.73 1081.3 Q1344.56 1077.73 1344.56 1070.62 Q1344.56 1063.49 1342.73 1059.95 Q1340.92 1056.39 1337.29 1056.39 M1337.29 1052.68 Q1343.1 1052.68 1346.15 1057.29 Q1349.23 1061.87 1349.23 1070.62 Q1349.23 1079.35 1346.15 1083.96 Q1343.1 1088.54 1337.29 1088.54 Q1331.48 1088.54 1328.4 1083.96 Q1325.34 1079.35 1325.34 1070.62 Q1325.34 1061.87 1328.4 1057.29 Q1331.48 1052.68 1337.29 1052.68 Z" fill="#000000" fill-rule="nonzero" fill-opacity="1" /><path clip-path="url(#clip880)" d="M1367.45 1056.39 Q1363.84 1056.39 1362.01 1059.95 Q1360.2 1063.49 1360.2 1070.62 Q1360.2 1077.73 1362.01 1081.3 Q1363.84 1084.84 1367.45 1084.84 Q1371.08 1084.84 1372.89 1081.3 Q1374.72 1077.73 1374.72 1070.62 Q1374.72 1063.49 1372.89 1059.95 Q1371.08 1056.39 1367.45 1056.39 M1367.45 1052.68 Q1373.26 1052.68 1376.32 1057.29 Q1379.39 1061.87 1379.39 1070.62 Q1379.39 1079.35 1376.32 1083.96 Q1373.26 1088.54 1367.45 1088.54 Q1361.64 1088.54 1358.56 1083.96 Q1355.51 1079.35 1355.51 1070.62 Q1355.51 1061.87 1358.56 1057.29 Q1361.64 1052.68 1367.45 1052.68 Z" fill="#000000" fill-rule="nonzero" fill-opacity="1" /><path clip-path="url(#clip880)" d="M1253.7 854.577 L1261.34 854.577 L1261.34 828.211 L1253.03 829.878 L1253.03 825.619 L1261.29 823.952 L1265.97 823.952 L1265.97 854.577 L1273.61 854.577 L1273.61 858.512 L1253.7 858.512 L1253.7 854.577 Z" fill="#000000" fill-rule="nonzero" fill-opacity="1" /><path clip-path="url(#clip880)" d="M1283.05 852.633 L1287.94 852.633 L1287.94 858.512 L1283.05 858.512 L1283.05 852.633 Z" fill="#000000" fill-rule="nonzero" fill-opacity="1" /><path clip-path="url(#clip880)" d="M1308.12 827.031 Q1304.51 827.031 1302.68 830.596 Q1300.88 834.137 1300.88 841.267 Q1300.88 848.373 1302.68 851.938 Q1304.51 855.48 1308.12 855.48 Q1311.76 855.48 1313.56 851.938 Q1315.39 848.373 1315.39 841.267 Q1315.39 834.137 1313.56 830.596 Q1311.76 827.031 1308.12 827.031 M1308.12 823.327 Q1313.93 823.327 1316.99 827.934 Q1320.07 832.517 1320.07 841.267 Q1320.07 849.994 1316.99 854.6 Q1313.93 859.183 1308.12 859.183 Q1302.31 859.183 1299.23 854.6 Q1296.18 849.994 1296.18 841.267 Q1296.18 832.517 1299.23 827.934 Q1302.31 823.327 1308.12 823.327 Z" fill="#000000" fill-rule="nonzero" fill-opacity="1" /><path clip-path="url(#clip880)" d="M1332.31 854.577 L1348.63 854.577 L1348.63 858.512 L1326.69 858.512 L1326.69 854.577 Q1329.35 851.822 1333.93 847.193 Q1338.54 842.54 1339.72 841.197 Q1341.96 838.674 1342.84 836.938 Q1343.75 835.179 1343.75 833.489 Q1343.75 830.735 1341.8 828.998 Q1339.88 827.262 1336.78 827.262 Q1334.58 827.262 1332.13 828.026 Q1329.7 828.79 1326.92 830.341 L1326.92 825.619 Q1329.74 824.485 1332.2 823.906 Q1334.65 823.327 1336.69 823.327 Q1342.06 823.327 1345.25 826.012 Q1348.45 828.698 1348.45 833.188 Q1348.45 835.318 1347.64 837.239 Q1346.85 839.137 1344.74 841.73 Q1344.16 842.401 1341.06 845.619 Q1337.96 848.813 1332.31 854.577 Z" fill="#000000" fill-rule="nonzero" fill-opacity="1" /><path clip-path="url(#clip880)" d="M1358.49 823.952 L1376.85 823.952 L1376.85 827.887 L1362.77 827.887 L1362.77 836.36 Q1363.79 836.012 1364.81 835.85 Q1365.83 835.665 1366.85 835.665 Q1372.63 835.665 1376.01 838.836 Q1379.39 842.008 1379.39 847.424 Q1379.39 853.003 1375.92 856.105 Q1372.45 859.183 1366.13 859.183 Q1363.95 859.183 1361.69 858.813 Q1359.44 858.443 1357.03 857.702 L1357.03 853.003 Q1359.12 854.137 1361.34 854.693 Q1363.56 855.248 1366.04 855.248 Q1370.04 855.248 1372.38 853.142 Q1374.72 851.035 1374.72 847.424 Q1374.72 843.813 1372.38 841.707 Q1370.04 839.6 1366.04 839.6 Q1364.16 839.6 1362.29 840.017 Q1360.44 840.434 1358.49 841.313 L1358.49 823.952 Z" fill="#000000" fill-rule="nonzero" fill-opacity="1" /><path clip-path="url(#clip880)" d="M1252.71 625.22 L1260.34 625.22 L1260.34 598.854 L1252.03 600.521 L1252.03 596.261 L1260.3 594.595 L1264.97 594.595 L1264.97 625.22 L1272.61 625.22 L1272.61 629.155 L1252.71 629.155 L1252.71 625.22 Z" fill="#000000" fill-rule="nonzero" fill-opacity="1" /><path clip-path="url(#clip880)" d="M1282.06 623.275 L1286.94 623.275 L1286.94 629.155 L1282.06 629.155 L1282.06 623.275 Z" fill="#000000" fill-rule="nonzero" fill-opacity="1" /><path clip-path="url(#clip880)" d="M1307.13 597.673 Q1303.51 597.673 1301.69 601.238 Q1299.88 604.78 1299.88 611.909 Q1299.88 619.016 1301.69 622.581 Q1303.51 626.122 1307.13 626.122 Q1310.76 626.122 1312.57 622.581 Q1314.39 619.016 1314.39 611.909 Q1314.39 604.78 1312.57 601.238 Q1310.76 597.673 1307.13 597.673 M1307.13 593.97 Q1312.94 593.97 1315.99 598.576 Q1319.07 603.159 1319.07 611.909 Q1319.07 620.636 1315.99 625.243 Q1312.94 629.826 1307.13 629.826 Q1301.32 629.826 1298.24 625.243 Q1295.18 620.636 1295.18 611.909 Q1295.18 603.159 1298.24 598.576 Q1301.32 593.97 1307.13 593.97 Z" fill="#000000" fill-rule="nonzero" fill-opacity="1" /><path clip-path="url(#clip880)" d="M1327.33 594.595 L1345.69 594.595 L1345.69 598.53 L1331.62 598.53 L1331.62 607.002 Q1332.64 606.655 1333.65 606.493 Q1334.67 606.308 1335.69 606.308 Q1341.48 606.308 1344.86 609.479 Q1348.24 612.65 1348.24 618.067 Q1348.24 623.645 1344.76 626.747 Q1341.29 629.826 1334.97 629.826 Q1332.8 629.826 1330.53 629.456 Q1328.28 629.085 1325.88 628.345 L1325.88 623.645 Q1327.96 624.78 1330.18 625.335 Q1332.4 625.891 1334.88 625.891 Q1338.89 625.891 1341.22 623.784 Q1343.56 621.678 1343.56 618.067 Q1343.56 614.456 1341.22 612.349 Q1338.89 610.243 1334.88 610.243 Q1333.01 610.243 1331.13 610.659 Q1329.28 611.076 1327.33 611.956 L1327.33 594.595 Z" fill="#000000" fill-rule="nonzero" fill-opacity="1" /><path clip-path="url(#clip880)" d="M1367.45 597.673 Q1363.84 597.673 1362.01 601.238 Q1360.2 604.78 1360.2 611.909 Q1360.2 619.016 1362.01 622.581 Q1363.84 626.122 1367.45 626.122 Q1371.08 626.122 1372.89 622.581 Q1374.72 619.016 1374.72 611.909 Q1374.72 604.78 1372.89 601.238 Q1371.08 597.673 1367.45 597.673 M1367.45 593.97 Q1373.26 593.97 1376.32 598.576 Q1379.39 603.159 1379.39 611.909 Q1379.39 620.636 1376.32 625.243 Q1373.26 629.826 1367.45 629.826 Q1361.64 629.826 1358.56 625.243 Q1355.51 620.636 1355.51 611.909 Q1355.51 603.159 1358.56 598.576 Q1361.64 593.97 1367.45 593.97 Z" fill="#000000" fill-rule="nonzero" fill-opacity="1" /><path clip-path="url(#clip880)" d="M1253.7 395.862 L1261.34 395.862 L1261.34 369.496 L1253.03 371.163 L1253.03 366.904 L1261.29 365.237 L1265.97 365.237 L1265.97 395.862 L1273.61 395.862 L1273.61 399.797 L1253.7 399.797 L1253.7 395.862 Z" fill="#000000" fill-rule="nonzero" fill-opacity="1" /><path clip-path="url(#clip880)" d="M1283.05 393.918 L1287.94 393.918 L1287.94 399.797 L1283.05 399.797 L1283.05 393.918 Z" fill="#000000" fill-rule="nonzero" fill-opacity="1" /><path clip-path="url(#clip880)" d="M1308.12 368.316 Q1304.51 368.316 1302.68 371.881 Q1300.88 375.422 1300.88 382.552 Q1300.88 389.658 1302.68 393.223 Q1304.51 396.765 1308.12 396.765 Q1311.76 396.765 1313.56 393.223 Q1315.39 389.658 1315.39 382.552 Q1315.39 375.422 1313.56 371.881 Q1311.76 368.316 1308.12 368.316 M1308.12 364.612 Q1313.93 364.612 1316.99 369.219 Q1320.07 373.802 1320.07 382.552 Q1320.07 391.279 1316.99 395.885 Q1313.93 400.468 1308.12 400.468 Q1302.31 400.468 1299.23 395.885 Q1296.18 391.279 1296.18 382.552 Q1296.18 373.802 1299.23 369.219 Q1302.31 364.612 1308.12 364.612 Z" fill="#000000" fill-rule="nonzero" fill-opacity="1" /><path clip-path="url(#clip880)" d="M1327.1 365.237 L1349.32 365.237 L1349.32 367.228 L1336.78 399.797 L1331.89 399.797 L1343.7 369.172 L1327.1 369.172 L1327.1 365.237 Z" fill="#000000" fill-rule="nonzero" fill-opacity="1" /><path clip-path="url(#clip880)" d="M1358.49 365.237 L1376.85 365.237 L1376.85 369.172 L1362.77 369.172 L1362.77 377.645 Q1363.79 377.297 1364.81 377.135 Q1365.83 376.95 1366.85 376.95 Q1372.63 376.95 1376.01 380.121 Q1379.39 383.293 1379.39 388.709 Q1379.39 394.288 1375.92 397.39 Q1372.45 400.468 1366.13 400.468 Q1363.95 400.468 1361.69 400.098 Q1359.44 399.728 1357.03 398.987 L1357.03 394.288 Q1359.12 395.422 1361.34 395.978 Q1363.56 396.533 1366.04 396.533 Q1370.04 396.533 1372.38 394.427 Q1374.72 392.32 1374.72 388.709 Q1374.72 385.098 1372.38 382.992 Q1370.04 380.885 1366.04 380.885 Q1364.16 380.885 1362.29 381.302 Q1360.44 381.719 1358.49 382.598 L1358.49 365.237 Z" fill="#000000" fill-rule="nonzero" fill-opacity="1" /><path clip-path="url(#clip880)" d="M1252.71 166.505 L1260.34 166.505 L1260.34 140.139 L1252.03 141.806 L1252.03 137.546 L1260.3 135.88 L1264.97 135.88 L1264.97 166.505 L1272.61 166.505 L1272.61 170.44 L1252.71 170.44 L1252.71 166.505 Z" fill="#000000" fill-rule="nonzero" fill-opacity="1" /><path clip-path="url(#clip880)" d="M1282.06 164.56 L1286.94 164.56 L1286.94 170.44 L1282.06 170.44 L1282.06 164.56 Z" fill="#000000" fill-rule="nonzero" fill-opacity="1" /><path clip-path="url(#clip880)" d="M1297.94 166.505 L1305.58 166.505 L1305.58 140.139 L1297.27 141.806 L1297.27 137.546 L1305.53 135.88 L1310.2 135.88 L1310.2 166.505 L1317.84 166.505 L1317.84 170.44 L1297.94 170.44 L1297.94 166.505 Z" fill="#000000" fill-rule="nonzero" fill-opacity="1" /><path clip-path="url(#clip880)" d="M1337.29 138.958 Q1333.68 138.958 1331.85 142.523 Q1330.04 146.065 1330.04 153.194 Q1330.04 160.301 1331.85 163.866 Q1333.68 167.407 1337.29 167.407 Q1340.92 167.407 1342.73 163.866 Q1344.56 160.301 1344.56 153.194 Q1344.56 146.065 1342.73 142.523 Q1340.92 138.958 1337.29 138.958 M1337.29 135.255 Q1343.1 135.255 1346.15 139.861 Q1349.23 144.444 1349.23 153.194 Q1349.23 161.921 1346.15 166.528 Q1343.1 171.111 1337.29 171.111 Q1331.48 171.111 1328.4 166.528 Q1325.34 161.921 1325.34 153.194 Q1325.34 144.444 1328.4 139.861 Q1331.48 135.255 1337.29 135.255 Z" fill="#000000" fill-rule="nonzero" fill-opacity="1" /><path clip-path="url(#clip880)" d="M1367.45 138.958 Q1363.84 138.958 1362.01 142.523 Q1360.2 146.065 1360.2 153.194 Q1360.2 160.301 1362.01 163.866 Q1363.84 167.407 1367.45 167.407 Q1371.08 167.407 1372.89 163.866 Q1374.72 160.301 1374.72 153.194 Q1374.72 146.065 1372.89 142.523 Q1371.08 138.958 1367.45 138.958 M1367.45 135.255 Q1373.26 135.255 1376.32 139.861 Q1379.39 144.444 1379.39 153.194 Q1379.39 161.921 1376.32 166.528 Q1373.26 171.111 1367.45 171.111 Q1361.64 171.111 1358.56 166.528 Q1355.51 161.921 1355.51 153.194 Q1355.51 144.444 1358.56 139.861 Q1361.64 135.255 1367.45 135.255 Z" fill="#000000" fill-rule="nonzero" fill-opacity="1" /><path clip-path="url(#clip880)" d="M1743.36 31.7342 Q1743.36 26.5259 1741.2 23.6613 Q1739.06 20.7968 1735.18 20.7968 Q1731.33 20.7968 1729.17 23.6613 Q1727.03 26.5259 1727.03 31.7342 Q1727.03 36.9165 1729.17 39.781 Q1731.33 42.6456 1735.18 42.6456 Q1739.06 42.6456 1741.2 39.781 Q1743.36 36.9165 1743.36 31.7342 M1748.15 43.0362 Q1748.15 50.4841 1744.84 54.1039 Q1741.54 57.7497 1734.71 57.7497 Q1732.19 57.7497 1729.95 57.3591 Q1727.71 56.9945 1725.6 56.2132 L1725.6 51.5518 Q1727.71 52.6976 1729.77 53.2445 Q1731.82 53.7914 1733.96 53.7914 Q1738.67 53.7914 1741.02 51.3174 Q1743.36 48.8695 1743.36 43.8956 L1743.36 41.5258 Q1741.88 44.1039 1739.56 45.38 Q1737.24 46.656 1734.01 46.656 Q1728.65 46.656 1725.36 42.5675 Q1722.08 38.479 1722.08 31.7342 Q1722.08 24.9634 1725.36 20.8749 Q1728.65 16.7864 1734.01 16.7864 Q1737.24 16.7864 1739.56 18.0624 Q1741.88 19.3384 1743.36 21.9165 L1743.36 17.4895 L1748.15 17.4895 L1748.15 43.0362 Z" fill="#000000" fill-rule="nonzero" fill-opacity="1" /><path clip-path="url(#clip880)" d="M1777.21 21.9165 L1777.21 6.13538 L1782.01 6.13538 L1782.01 46.656 L1777.21 46.656 L1777.21 42.281 Q1775.7 44.8852 1773.39 46.1612 Q1771.09 47.4112 1767.86 47.4112 Q1762.58 47.4112 1759.25 43.1925 Q1755.94 38.9737 1755.94 32.0988 Q1755.94 25.2238 1759.25 21.0051 Q1762.58 16.7864 1767.86 16.7864 Q1771.09 16.7864 1773.39 18.0624 Q1775.7 19.3124 1777.21 21.9165 M1760.89 32.0988 Q1760.89 37.3852 1763.05 40.406 Q1765.23 43.4008 1769.04 43.4008 Q1772.84 43.4008 1775.03 40.406 Q1777.21 37.3852 1777.21 32.0988 Q1777.21 26.8124 1775.03 23.8176 Q1772.84 20.7968 1769.04 20.7968 Q1765.23 20.7968 1763.05 23.8176 Q1760.89 26.8124 1760.89 32.0988 Z" fill="#000000" fill-rule="nonzero" fill-opacity="1" /><path clip-path="url(#clip880)" d="M1796.51 42.281 L1796.51 57.7497 L1791.69 57.7497 L1791.69 17.4895 L1796.51 17.4895 L1796.51 21.9165 Q1798.02 19.3124 1800.31 18.0624 Q1802.63 16.7864 1805.83 16.7864 Q1811.15 16.7864 1814.45 21.0051 Q1817.79 25.2238 1817.79 32.0988 Q1817.79 38.9737 1814.45 43.1925 Q1811.15 47.4112 1805.83 47.4112 Q1802.63 47.4112 1800.31 46.1612 Q1798.02 44.8852 1796.51 42.281 M1812.81 32.0988 Q1812.81 26.8124 1810.62 23.8176 Q1808.46 20.7968 1804.66 20.7968 Q1800.86 20.7968 1798.67 23.8176 Q1796.51 26.8124 1796.51 32.0988 Q1796.51 37.3852 1798.67 40.406 Q1800.86 43.4008 1804.66 43.4008 Q1808.46 43.4008 1810.62 40.406 Q1812.81 37.3852 1812.81 32.0988 Z" fill="#000000" fill-rule="nonzero" fill-opacity="1" /><path clip-path="url(#clip880)" d="M1861.87 21.9165 L1861.87 6.13538 L1866.67 6.13538 L1866.67 46.656 L1861.87 46.656 L1861.87 42.281 Q1860.36 44.8852 1858.05 46.1612 Q1855.75 47.4112 1852.53 47.4112 Q1847.24 47.4112 1843.91 43.1925 Q1840.6 38.9737 1840.6 32.0988 Q1840.6 25.2238 1843.91 21.0051 Q1847.24 16.7864 1852.53 16.7864 Q1855.75 16.7864 1858.05 18.0624 Q1860.36 19.3124 1861.87 21.9165 M1845.55 32.0988 Q1845.55 37.3852 1847.71 40.406 Q1849.9 43.4008 1853.7 43.4008 Q1857.5 43.4008 1859.69 40.406 Q1861.87 37.3852 1861.87 32.0988 Q1861.87 26.8124 1859.69 23.8176 Q1857.5 20.7968 1853.7 20.7968 Q1849.9 20.7968 1847.71 23.8176 Q1845.55 26.8124 1845.55 32.0988 Z" fill="#000000" fill-rule="nonzero" fill-opacity="1" /><path clip-path="url(#clip880)" d="M1901.48 30.8748 L1901.48 33.2186 L1879.45 33.2186 Q1879.77 38.1665 1882.42 40.7706 Q1885.1 43.3487 1889.87 43.3487 Q1892.63 43.3487 1895.21 42.6716 Q1897.81 41.9946 1900.36 40.6404 L1900.36 45.1716 Q1897.79 46.2654 1895.08 46.8383 Q1892.37 47.4112 1889.58 47.4112 Q1882.6 47.4112 1878.52 43.3487 Q1874.45 39.2862 1874.45 32.3592 Q1874.45 25.1978 1878.31 21.0051 Q1882.19 16.7864 1888.75 16.7864 Q1894.63 16.7864 1898.05 20.5884 Q1901.48 24.3645 1901.48 30.8748 M1896.69 29.4686 Q1896.64 25.5363 1894.48 23.1926 Q1892.34 20.8488 1888.8 20.8488 Q1884.79 20.8488 1882.37 23.1145 Q1879.97 25.3801 1879.61 29.4946 L1896.69 29.4686 Z" fill="#000000" fill-rule="nonzero" fill-opacity="1" /><path clip-path="url(#clip880)" d="M1924.11 6.13538 L1924.11 10.1197 L1919.53 10.1197 Q1916.95 10.1197 1915.94 11.1614 Q1914.95 12.2031 1914.95 14.9114 L1914.95 17.4895 L1922.84 17.4895 L1922.84 21.2134 L1914.95 21.2134 L1914.95 46.656 L1910.13 46.656 L1910.13 21.2134 L1905.55 21.2134 L1905.55 17.4895 L1910.13 17.4895 L1910.13 15.4583 Q1910.13 10.5885 1912.4 8.37496 Q1914.66 6.13538 1919.58 6.13538 L1924.11 6.13538 Z" fill="#000000" fill-rule="nonzero" fill-opacity="1" /><path clip-path="url(#clip880)" d="M1928.12 6.13538 L1932.92 6.13538 L1932.92 46.656 L1928.12 46.656 L1928.12 6.13538 Z" fill="#000000" fill-rule="nonzero" fill-opacity="1" /><path clip-path="url(#clip880)" d="M1956.2 31.9946 Q1950.39 31.9946 1948.15 33.3227 Q1945.91 34.6509 1945.91 37.854 Q1945.91 40.406 1947.58 41.9164 Q1949.27 43.4008 1952.16 43.4008 Q1956.14 43.4008 1958.54 40.5883 Q1960.96 37.7498 1960.96 33.0623 L1960.96 31.9946 L1956.2 31.9946 M1965.75 30.0155 L1965.75 46.656 L1960.96 46.656 L1960.96 42.2289 Q1959.32 44.8852 1956.87 46.1612 Q1954.43 47.4112 1950.88 47.4112 Q1946.41 47.4112 1943.75 44.9112 Q1941.12 42.3852 1941.12 38.1665 Q1941.12 33.2446 1944.4 30.7446 Q1947.71 28.2446 1954.24 28.2446 L1960.96 28.2446 L1960.96 27.7759 Q1960.96 24.4686 1958.78 22.6718 Q1956.61 20.8488 1952.68 20.8488 Q1950.18 20.8488 1947.81 21.4478 Q1945.44 22.0468 1943.25 23.2447 L1943.25 18.8176 Q1945.88 17.802 1948.36 17.3072 Q1950.83 16.7864 1953.18 16.7864 Q1959.5 16.7864 1962.63 20.0676 Q1965.75 23.3488 1965.75 30.0155 Z" fill="#000000" fill-rule="nonzero" fill-opacity="1" /><path clip-path="url(#clip880)" d="M1980.36 9.20828 L1980.36 17.4895 L1990.23 17.4895 L1990.23 21.2134 L1980.36 21.2134 L1980.36 37.0467 Q1980.36 40.6144 1981.33 41.63 Q1982.32 42.6456 1985.31 42.6456 L1990.23 42.6456 L1990.23 46.656 L1985.31 46.656 Q1979.76 46.656 1977.66 44.5987 Q1975.55 42.5154 1975.55 37.0467 L1975.55 21.2134 L1972.03 21.2134 L1972.03 17.4895 L1975.55 17.4895 L1975.55 9.20828 L1980.36 9.20828 Z" fill="#000000" fill-rule="nonzero" fill-opacity="1" /><path clip-path="url(#clip880)" d="M2007.84 20.8488 Q2003.98 20.8488 2001.74 23.8697 Q1999.5 26.8644 1999.5 32.0988 Q1999.5 37.3331 2001.72 40.354 Q2003.96 43.3487 2007.84 43.3487 Q2011.67 43.3487 2013.91 40.3279 Q2016.14 37.3071 2016.14 32.0988 Q2016.14 26.9165 2013.91 23.8957 Q2011.67 20.8488 2007.84 20.8488 M2007.84 16.7864 Q2014.09 16.7864 2017.66 20.8488 Q2021.22 24.9113 2021.22 32.0988 Q2021.22 39.2602 2017.66 43.3487 Q2014.09 47.4112 2007.84 47.4112 Q2001.56 47.4112 1997.99 43.3487 Q1994.45 39.2602 1994.45 32.0988 Q1994.45 24.9113 1997.99 20.8488 Q2001.56 16.7864 2007.84 16.7864 Z" fill="#000000" fill-rule="nonzero" fill-opacity="1" /><path clip-path="url(#clip880)" d="M2046.07 21.9686 Q2045.26 21.4999 2044.3 21.2916 Q2043.36 21.0572 2042.21 21.0572 Q2038.15 21.0572 2035.96 23.7134 Q2033.8 26.3436 2033.8 31.2915 L2033.8 46.656 L2028.98 46.656 L2028.98 17.4895 L2033.8 17.4895 L2033.8 22.0207 Q2035.31 19.3645 2037.73 18.0884 Q2040.15 16.7864 2043.62 16.7864 Q2044.11 16.7864 2044.71 16.8645 Q2045.31 16.9166 2046.04 17.0468 L2046.07 21.9686 Z" fill="#000000" fill-rule="nonzero" fill-opacity="1" /><path clip-path="url(#clip883)" d="M1441.92 1070.59 L1486.14 1026.34 L1530.35 1043.92 L1574.57 1053.65 L1618.78 1004.11 L1663 1022.41 L1707.21 1005.9 L1751.43 983.912 L1795.64 958.994 L1839.86 907.686 L1884.08 848.288 L1928.29 826.422 L1972.51 774.769 L2016.72 787.545 L2060.94 782.994 L2105.15 721.499 L2149.37 650.675 L2193.58 662.535 L2237.8 633.755 L2282.01 595.087 L2326.23 616.494 L2326.23 120.65 L2282.01 205.988 L2237.8 291.223 L2193.58 354.14 L2149.37 375.3 L2105.15 410.684 L2060.94 471.498 L2016.72 473.565 L1972.51 496.875 L1928.29 538.177 L1884.08 577.411 L1839.86 575.626 L1795.64 619.342 L1751.43 682.629 L1707.21 736.07 L1663 756.033 L1618.78 779.265 L1574.57 786.605 L1530.35 878.686 L1486.14 992.23 L1441.92 1070.59  Z" fill="#009af9" fill-rule="evenodd" fill-opacity="0.1"/>
<polyline clip-path="url(#clip883)" style="stroke:#009af9; stroke-linecap:round; stroke-linejoin:round; stroke-width:4; stroke-opacity:1; fill:none" points="1441.92,1070.59 1486.14,1009.29 1530.35,961.304 1574.57,920.125 1618.78,891.687 1663,889.222 1707.21,870.986 1751.43,833.27 1795.64,789.168 1839.86,741.656 1884.08,712.85 1928.29,682.299 1972.51,635.822 2016.72,630.555 2060.94,627.246 2105.15,566.092 2149.37,512.987 2193.58,508.337 2237.8,462.489 2282.01,400.538 2326.23,368.572 "/>
<path clip-path="url(#clip883)" d="M1441.92 1070.59 L1486.14 1037.6 L1530.35 1029.21 L1574.57 956.102 L1618.78 975.699 L1663 945.212 L1707.21 908.03 L1751.43 906.984 L1795.64 893.425 L1839.86 841.062 L1884.08 838.138 L1928.29 762.058 L1972.51 744.297 L2016.72 704.834 L2060.94 688.462 L2105.15 740.031 L2149.37 667.846 L2193.58 618.66 L2237.8 619.586 L2282.01 538.205 L2326.23 522.788 L2326.23 243.331 L2282.01 330.162 L2237.8 363.055 L2193.58 370.621 L2149.37 356.815 L2105.15 355.315 L2060.94 434.861 L2016.72 487.406 L1972.51 546.794 L1928.29 565.089 L1884.08 620.453 L1839.86 691.804 L1795.64 680.924 L1751.43 756.151 L1707.21 821.184 L1663 808.019 L1618.78 869.863 L1574.57 892.971 L1530.35 985.714 L1486.14 1021.26 L1441.92 1070.59  Z" fill="#e26f46" fill-rule="evenodd" fill-opacity="0.1"/>
<polyline clip-path="url(#clip883)" style="stroke:#e26f46; stroke-linecap:round; stroke-linejoin:round; stroke-width:4; stroke-opacity:1; fill:none" points="1441.92,1070.59 1486.14,1029.43 1530.35,1007.46 1574.57,924.536 1618.78,922.781 1663,876.616 1707.21,864.607 1751.43,831.567 1795.64,787.175 1839.86,766.433 1884.08,729.295 1928.29,663.574 1972.51,645.546 2016.72,596.12 2060.94,561.661 2105.15,547.673 2149.37,512.33 2193.58,494.64 2237.8,491.321 2282.01,434.183 2326.23,383.06 "/>
</svg>
