<?xml version="1.0" encoding="utf-8"?>
<svg xmlns="http://www.w3.org/2000/svg" xmlns:xlink="http://www.w3.org/1999/xlink" width="600" height="400" viewBox="0 0 2400 1600">
<defs>
  <clipPath id="clip700">
    <rect x="0" y="0" width="2400" height="1600"/>
  </clipPath>
</defs>
<path clip-path="url(#clip700)" d="M0 1600 L2400 1600 L2400 0 L0 0  Z" fill="#ffffff" fill-rule="evenodd" fill-opacity="1"/>
<defs>
  <clipPath id="clip701">
    <rect x="480" y="0" width="1681" height="1600"/>
  </clipPath>
</defs>
<path clip-path="url(#clip700)" d="M230.765 1486.45 L2352.76 1486.45 L2352.76 106.192 L230.765 106.192  Z" fill="#ffffff" fill-rule="evenodd" fill-opacity="1"/>
<defs>
  <clipPath id="clip702">
    <rect x="230" y="106" width="2123" height="1381"/>
  </clipPath>
</defs>
<polyline clip-path="url(#clip702)" style="stroke:#000000; stroke-linecap:round; stroke-linejoin:round; stroke-width:2; stroke-opacity:0.1; fill:none" points="541.056,1486.45 541.056,106.192 "/>
<polyline clip-path="url(#clip702)" style="stroke:#000000; stroke-linecap:round; stroke-linejoin:round; stroke-width:2; stroke-opacity:0.1; fill:none" points="916.408,1486.45 916.408,106.192 "/>
<polyline clip-path="url(#clip702)" style="stroke:#000000; stroke-linecap:round; stroke-linejoin:round; stroke-width:2; stroke-opacity:0.1; fill:none" points="1291.76,1486.45 1291.76,106.192 "/>
<polyline clip-path="url(#clip702)" style="stroke:#000000; stroke-linecap:round; stroke-linejoin:round; stroke-width:2; stroke-opacity:0.1; fill:none" points="1667.11,1486.45 1667.11,106.192 "/>
<polyline clip-path="url(#clip702)" style="stroke:#000000; stroke-linecap:round; stroke-linejoin:round; stroke-width:2; stroke-opacity:0.1; fill:none" points="2042.46,1486.45 2042.46,106.192 "/>
<polyline clip-path="url(#clip702)" style="stroke:#000000; stroke-linecap:round; stroke-linejoin:round; stroke-width:2; stroke-opacity:0.1; fill:none" points="230.765,1294.96 2352.76,1294.96 "/>
<polyline clip-path="url(#clip702)" style="stroke:#000000; stroke-linecap:round; stroke-linejoin:round; stroke-width:2; stroke-opacity:0.1; fill:none" points="230.765,1031.25 2352.76,1031.25 "/>
<polyline clip-path="url(#clip702)" style="stroke:#000000; stroke-linecap:round; stroke-linejoin:round; stroke-width:2; stroke-opacity:0.1; fill:none" points="230.765,767.538 2352.76,767.538 "/>
<polyline clip-path="url(#clip702)" style="stroke:#000000; stroke-linecap:round; stroke-linejoin:round; stroke-width:2; stroke-opacity:0.1; fill:none" points="230.765,503.828 2352.76,503.828 "/>
<polyline clip-path="url(#clip702)" style="stroke:#000000; stroke-linecap:round; stroke-linejoin:round; stroke-width:2; stroke-opacity:0.1; fill:none" points="230.765,240.117 2352.76,240.117 "/>
<polyline clip-path="url(#clip700)" style="stroke:#000000; stroke-linecap:round; stroke-linejoin:round; stroke-width:4; stroke-opacity:1; fill:none" points="230.765,1486.45 2352.76,1486.45 "/>
<polyline clip-path="url(#clip700)" style="stroke:#000000; stroke-linecap:round; stroke-linejoin:round; stroke-width:4; stroke-opacity:1; fill:none" points="541.056,1486.45 541.056,1467.55 "/>
<polyline clip-path="url(#clip700)" style="stroke:#000000; stroke-linecap:round; stroke-linejoin:round; stroke-width:4; stroke-opacity:1; fill:none" points="916.408,1486.45 916.408,1467.55 "/>
<polyline clip-path="url(#clip700)" style="stroke:#000000; stroke-linecap:round; stroke-linejoin:round; stroke-width:4; stroke-opacity:1; fill:none" points="1291.76,1486.45 1291.76,1467.55 "/>
<polyline clip-path="url(#clip700)" style="stroke:#000000; stroke-linecap:round; stroke-linejoin:round; stroke-width:4; stroke-opacity:1; fill:none" points="1667.11,1486.45 1667.11,1467.55 "/>
<polyline clip-path="url(#clip700)" style="stroke:#000000; stroke-linecap:round; stroke-linejoin:round; stroke-width:4; stroke-opacity:1; fill:none" points="2042.46,1486.45 2042.46,1467.55 "/>
<path clip-path="url(#clip700)" d="M545.303 1530.21 Q548.66 1530.93 550.535 1533.2 Q552.433 1535.47 552.433 1538.8 Q552.433 1543.92 548.914 1546.72 Q545.396 1549.52 538.915 1549.52 Q536.739 1549.52 534.424 1549.08 Q532.132 1548.66 529.678 1547.81 L529.678 1543.29 Q531.623 1544.43 533.938 1545.01 Q536.252 1545.58 538.776 1545.58 Q543.174 1545.58 545.465 1543.85 Q547.78 1542.11 547.78 1538.8 Q547.78 1535.75 545.627 1534.03 Q543.498 1532.3 539.678 1532.3 L535.651 1532.3 L535.651 1528.45 L539.864 1528.45 Q543.313 1528.45 545.141 1527.09 Q546.97 1525.7 546.97 1523.11 Q546.97 1520.45 545.072 1519.03 Q543.197 1517.6 539.678 1517.6 Q537.757 1517.6 535.558 1518.01 Q533.359 1518.43 530.72 1519.31 L530.72 1515.14 Q533.382 1514.4 535.697 1514.03 Q538.035 1513.66 540.095 1513.66 Q545.419 1513.66 548.521 1516.09 Q551.623 1518.5 551.623 1522.62 Q551.623 1525.49 549.979 1527.48 Q548.336 1529.45 545.303 1530.21 Z" fill="#000000" fill-rule="nonzero" fill-opacity="1" /><path clip-path="url(#clip700)" d="M916.813 1529.7 Q913.665 1529.7 911.813 1531.86 Q909.984 1534.01 909.984 1537.76 Q909.984 1541.49 911.813 1543.66 Q913.665 1545.82 916.813 1545.82 Q919.961 1545.82 921.79 1543.66 Q923.642 1541.49 923.642 1537.76 Q923.642 1534.01 921.79 1531.86 Q919.961 1529.7 916.813 1529.7 M926.095 1515.05 L926.095 1519.31 Q924.336 1518.48 922.531 1518.04 Q920.748 1517.6 918.989 1517.6 Q914.359 1517.6 911.906 1520.72 Q909.475 1523.85 909.128 1530.17 Q910.494 1528.15 912.554 1527.09 Q914.614 1526 917.091 1526 Q922.299 1526 925.308 1529.17 Q928.341 1532.32 928.341 1537.76 Q928.341 1543.08 925.193 1546.3 Q922.044 1549.52 916.813 1549.52 Q910.818 1549.52 907.646 1544.94 Q904.475 1540.33 904.475 1531.6 Q904.475 1523.41 908.364 1518.55 Q912.253 1513.66 918.804 1513.66 Q920.563 1513.66 922.345 1514.01 Q924.151 1514.36 926.095 1515.05 Z" fill="#000000" fill-rule="nonzero" fill-opacity="1" /><path clip-path="url(#clip700)" d="M1282.06 1548.13 L1282.06 1543.87 Q1283.82 1544.7 1285.63 1545.14 Q1287.43 1545.58 1289.17 1545.58 Q1293.8 1545.58 1296.23 1542.48 Q1298.68 1539.36 1299.03 1533.01 Q1297.69 1535.01 1295.63 1536.07 Q1293.57 1537.13 1291.07 1537.13 Q1285.88 1537.13 1282.85 1534.01 Q1279.84 1530.86 1279.84 1525.42 Q1279.84 1520.1 1282.99 1516.88 Q1286.14 1513.66 1291.37 1513.66 Q1297.36 1513.66 1300.51 1518.27 Q1303.68 1522.85 1303.68 1531.6 Q1303.68 1539.77 1299.79 1544.66 Q1295.93 1549.52 1289.38 1549.52 Q1287.62 1549.52 1285.81 1549.17 Q1284.01 1548.82 1282.06 1548.13 M1291.37 1533.48 Q1294.51 1533.48 1296.34 1531.32 Q1298.2 1529.17 1298.2 1525.42 Q1298.2 1521.7 1296.34 1519.54 Q1294.51 1517.37 1291.37 1517.37 Q1288.22 1517.37 1286.37 1519.54 Q1284.54 1521.7 1284.54 1525.42 Q1284.54 1529.17 1286.37 1531.32 Q1288.22 1533.48 1291.37 1533.48 Z" fill="#000000" fill-rule="nonzero" fill-opacity="1" /><path clip-path="url(#clip700)" d="M1642.6 1544.91 L1650.24 1544.91 L1650.24 1518.55 L1641.93 1520.21 L1641.93 1515.95 L1650.19 1514.29 L1654.87 1514.29 L1654.87 1544.91 L1662.51 1544.91 L1662.51 1548.85 L1642.6 1548.85 L1642.6 1544.91 Z" fill="#000000" fill-rule="nonzero" fill-opacity="1" /><path clip-path="url(#clip700)" d="M1675.98 1544.91 L1692.3 1544.91 L1692.3 1548.85 L1670.35 1548.85 L1670.35 1544.91 Q1673.02 1542.16 1677.6 1537.53 Q1682.2 1532.88 1683.39 1531.53 Q1685.63 1529.01 1686.51 1527.27 Q1687.41 1525.51 1687.41 1523.82 Q1687.41 1521.07 1685.47 1519.33 Q1683.55 1517.6 1680.45 1517.6 Q1678.25 1517.6 1675.79 1518.36 Q1673.36 1519.13 1670.58 1520.68 L1670.58 1515.95 Q1673.41 1514.82 1675.86 1514.24 Q1678.32 1513.66 1680.35 1513.66 Q1685.72 1513.66 1688.92 1516.35 Q1692.11 1519.03 1692.11 1523.52 Q1692.11 1525.65 1691.3 1527.57 Q1690.52 1529.47 1688.41 1532.07 Q1687.83 1532.74 1684.73 1535.95 Q1681.63 1539.15 1675.98 1544.91 Z" fill="#000000" fill-rule="nonzero" fill-opacity="1" /><path clip-path="url(#clip700)" d="M2017.65 1544.91 L2025.29 1544.91 L2025.29 1518.55 L2016.98 1520.21 L2016.98 1515.95 L2025.24 1514.29 L2029.92 1514.29 L2029.92 1544.91 L2037.56 1544.91 L2037.56 1548.85 L2017.65 1548.85 L2017.65 1544.91 Z" fill="#000000" fill-rule="nonzero" fill-opacity="1" /><path clip-path="url(#clip700)" d="M2047.05 1514.29 L2065.4 1514.29 L2065.4 1518.22 L2051.33 1518.22 L2051.33 1526.7 Q2052.35 1526.35 2053.37 1526.19 Q2054.39 1526 2055.4 1526 Q2061.19 1526 2064.57 1529.17 Q2067.95 1532.34 2067.95 1537.76 Q2067.95 1543.34 2064.48 1546.44 Q2061.01 1549.52 2054.69 1549.52 Q2052.51 1549.52 2050.24 1549.15 Q2048 1548.78 2045.59 1548.04 L2045.59 1543.34 Q2047.67 1544.47 2049.9 1545.03 Q2052.12 1545.58 2054.59 1545.58 Q2058.6 1545.58 2060.94 1543.48 Q2063.27 1541.37 2063.27 1537.76 Q2063.27 1534.15 2060.94 1532.04 Q2058.6 1529.94 2054.59 1529.94 Q2052.72 1529.94 2050.84 1530.35 Q2048.99 1530.77 2047.05 1531.65 L2047.05 1514.29 Z" fill="#000000" fill-rule="nonzero" fill-opacity="1" /><polyline clip-path="url(#clip700)" style="stroke:#000000; stroke-linecap:round; stroke-linejoin:round; stroke-width:4; stroke-opacity:1; fill:none" points="230.765,1486.45 230.765,106.192 "/>
<polyline clip-path="url(#clip700)" style="stroke:#000000; stroke-linecap:round; stroke-linejoin:round; stroke-width:4; stroke-opacity:1; fill:none" points="230.765,1294.96 249.662,1294.96 "/>
<polyline clip-path="url(#clip700)" style="stroke:#000000; stroke-linecap:round; stroke-linejoin:round; stroke-width:4; stroke-opacity:1; fill:none" points="230.765,1031.25 249.662,1031.25 "/>
<polyline clip-path="url(#clip700)" style="stroke:#000000; stroke-linecap:round; stroke-linejoin:round; stroke-width:4; stroke-opacity:1; fill:none" points="230.765,767.538 249.662,767.538 "/>
<polyline clip-path="url(#clip700)" style="stroke:#000000; stroke-linecap:round; stroke-linejoin:round; stroke-width:4; stroke-opacity:1; fill:none" points="230.765,503.828 249.662,503.828 "/>
<polyline clip-path="url(#clip700)" style="stroke:#000000; stroke-linecap:round; stroke-linejoin:round; stroke-width:4; stroke-opacity:1; fill:none" points="230.765,240.117 249.662,240.117 "/>
<path clip-path="url(#clip700)" d="M50.9921 1277.68 L73.2142 1277.68 L73.2142 1279.67 L60.668 1312.24 L55.7838 1312.24 L67.5893 1281.61 L50.9921 1281.61 L50.9921 1277.68 Z" fill="#000000" fill-rule="nonzero" fill-opacity="1" /><path clip-path="url(#clip700)" d="M96.5011 1293.61 Q99.8576 1294.32 101.733 1296.59 Q103.631 1298.86 103.631 1302.19 Q103.631 1307.31 100.112 1310.11 Q96.5937 1312.91 90.1123 1312.91 Q87.9364 1312.91 85.6216 1312.47 Q83.3299 1312.05 80.8762 1311.2 L80.8762 1306.68 Q82.8207 1307.82 85.1355 1308.4 Q87.4503 1308.98 89.9734 1308.98 Q94.3715 1308.98 96.6632 1307.24 Q98.978 1305.5 98.978 1302.19 Q98.978 1299.14 96.8252 1297.42 Q94.6956 1295.69 90.8762 1295.69 L86.8484 1295.69 L86.8484 1291.85 L91.0614 1291.85 Q94.5104 1291.85 96.3391 1290.48 Q98.1678 1289.09 98.1678 1286.5 Q98.1678 1283.84 96.2697 1282.42 Q94.3947 1280.99 90.8762 1280.99 Q88.9549 1280.99 86.7558 1281.41 Q84.5568 1281.82 81.9179 1282.7 L81.9179 1278.54 Q84.5799 1277.8 86.8947 1277.42 Q89.2327 1277.05 91.2928 1277.05 Q96.6169 1277.05 99.7187 1279.48 Q102.821 1281.89 102.821 1286.01 Q102.821 1288.88 101.177 1290.87 Q99.5335 1292.84 96.5011 1293.61 Z" fill="#000000" fill-rule="nonzero" fill-opacity="1" /><path clip-path="url(#clip700)" d="M122.496 1280.76 Q118.885 1280.76 117.057 1284.32 Q115.251 1287.86 115.251 1294.99 Q115.251 1302.1 117.057 1305.67 Q118.885 1309.21 122.496 1309.21 Q126.131 1309.21 127.936 1305.67 Q129.765 1302.1 129.765 1294.99 Q129.765 1287.86 127.936 1284.32 Q126.131 1280.76 122.496 1280.76 M122.496 1277.05 Q128.307 1277.05 131.362 1281.66 Q134.441 1286.24 134.441 1294.99 Q134.441 1303.72 131.362 1308.33 Q128.307 1312.91 122.496 1312.91 Q116.686 1312.91 113.608 1308.33 Q110.552 1303.72 110.552 1294.99 Q110.552 1286.24 113.608 1281.66 Q116.686 1277.05 122.496 1277.05 Z" fill="#000000" fill-rule="nonzero" fill-opacity="1" /><path clip-path="url(#clip700)" d="M152.658 1280.76 Q149.047 1280.76 147.218 1284.32 Q145.413 1287.86 145.413 1294.99 Q145.413 1302.1 147.218 1305.67 Q149.047 1309.21 152.658 1309.21 Q156.292 1309.21 158.098 1305.67 Q159.927 1302.1 159.927 1294.99 Q159.927 1287.86 158.098 1284.32 Q156.292 1280.76 152.658 1280.76 M152.658 1277.05 Q158.468 1277.05 161.524 1281.66 Q164.603 1286.24 164.603 1294.99 Q164.603 1303.72 161.524 1308.33 Q158.468 1312.91 152.658 1312.91 Q146.848 1312.91 143.769 1308.33 Q140.714 1303.72 140.714 1294.99 Q140.714 1286.24 143.769 1281.66 Q146.848 1277.05 152.658 1277.05 Z" fill="#000000" fill-rule="nonzero" fill-opacity="1" /><path clip-path="url(#clip700)" d="M182.82 1280.76 Q179.209 1280.76 177.38 1284.32 Q175.575 1287.86 175.575 1294.99 Q175.575 1302.1 177.38 1305.67 Q179.209 1309.21 182.82 1309.21 Q186.454 1309.21 188.26 1305.67 Q190.089 1302.1 190.089 1294.99 Q190.089 1287.86 188.26 1284.32 Q186.454 1280.76 182.82 1280.76 M182.82 1277.05 Q188.63 1277.05 191.686 1281.66 Q194.765 1286.24 194.765 1294.99 Q194.765 1303.72 191.686 1308.33 Q188.63 1312.91 182.82 1312.91 Q177.01 1312.91 173.931 1308.33 Q170.876 1303.72 170.876 1294.99 Q170.876 1286.24 173.931 1281.66 Q177.01 1277.05 182.82 1277.05 Z" fill="#000000" fill-rule="nonzero" fill-opacity="1" /><path clip-path="url(#clip700)" d="M50.9921 1013.97 L73.2142 1013.97 L73.2142 1015.96 L60.668 1048.53 L55.7838 1048.53 L67.5893 1017.9 L50.9921 1017.9 L50.9921 1013.97 Z" fill="#000000" fill-rule="nonzero" fill-opacity="1" /><path clip-path="url(#clip700)" d="M95.1817 1018.04 L83.3762 1036.49 L95.1817 1036.49 L95.1817 1018.04 M93.9549 1013.97 L99.8345 1013.97 L99.8345 1036.49 L104.765 1036.49 L104.765 1040.38 L99.8345 1040.38 L99.8345 1048.53 L95.1817 1048.53 L95.1817 1040.38 L79.5799 1040.38 L79.5799 1035.87 L93.9549 1013.97 Z" fill="#000000" fill-rule="nonzero" fill-opacity="1" /><path clip-path="url(#clip700)" d="M122.496 1017.05 Q118.885 1017.05 117.057 1020.61 Q115.251 1024.15 115.251 1031.28 Q115.251 1038.39 117.057 1041.95 Q118.885 1045.5 122.496 1045.5 Q126.131 1045.5 127.936 1041.95 Q129.765 1038.39 129.765 1031.28 Q129.765 1024.15 127.936 1020.61 Q126.131 1017.05 122.496 1017.05 M122.496 1013.34 Q128.307 1013.34 131.362 1017.95 Q134.441 1022.53 134.441 1031.28 Q134.441 1040.01 131.362 1044.62 Q128.307 1049.2 122.496 1049.2 Q116.686 1049.2 113.608 1044.62 Q110.552 1040.01 110.552 1031.28 Q110.552 1022.53 113.608 1017.95 Q116.686 1013.34 122.496 1013.34 Z" fill="#000000" fill-rule="nonzero" fill-opacity="1" /><path clip-path="url(#clip700)" d="M152.658 1017.05 Q149.047 1017.05 147.218 1020.61 Q145.413 1024.15 145.413 1031.28 Q145.413 1038.39 147.218 1041.95 Q149.047 1045.5 152.658 1045.5 Q156.292 1045.5 158.098 1041.95 Q159.927 1038.39 159.927 1031.28 Q159.927 1024.15 158.098 1020.61 Q156.292 1017.05 152.658 1017.05 M152.658 1013.34 Q158.468 1013.34 161.524 1017.95 Q164.603 1022.53 164.603 1031.28 Q164.603 1040.01 161.524 1044.62 Q158.468 1049.2 152.658 1049.2 Q146.848 1049.2 143.769 1044.62 Q140.714 1040.01 140.714 1031.28 Q140.714 1022.53 143.769 1017.95 Q146.848 1013.34 152.658 1013.34 Z" fill="#000000" fill-rule="nonzero" fill-opacity="1" /><path clip-path="url(#clip700)" d="M182.82 1017.05 Q179.209 1017.05 177.38 1020.61 Q175.575 1024.15 175.575 1031.28 Q175.575 1038.39 177.38 1041.95 Q179.209 1045.5 182.82 1045.5 Q186.454 1045.5 188.26 1041.95 Q190.089 1038.39 190.089 1031.28 Q190.089 1024.15 188.26 1020.61 Q186.454 1017.05 182.82 1017.05 M182.82 1013.34 Q188.63 1013.34 191.686 1017.95 Q194.765 1022.53 194.765 1031.28 Q194.765 1040.01 191.686 1044.62 Q188.63 1049.2 182.82 1049.2 Q177.01 1049.2 173.931 1044.62 Q170.876 1040.01 170.876 1031.28 Q170.876 1022.53 173.931 1017.95 Q177.01 1013.34 182.82 1013.34 Z" fill="#000000" fill-rule="nonzero" fill-opacity="1" /><path clip-path="url(#clip700)" d="M50.9921 750.258 L73.2142 750.258 L73.2142 752.249 L60.668 784.818 L55.7838 784.818 L67.5893 754.194 L50.9921 754.194 L50.9921 750.258 Z" fill="#000000" fill-rule="nonzero" fill-opacity="1" /><path clip-path="url(#clip700)" d="M82.3808 750.258 L100.737 750.258 L100.737 754.194 L86.6632 754.194 L86.6632 762.666 Q87.6817 762.319 88.7003 762.157 Q89.7188 761.971 90.7373 761.971 Q96.5243 761.971 99.9039 765.143 Q103.284 768.314 103.284 773.731 Q103.284 779.309 99.8113 782.411 Q96.3391 785.49 90.0197 785.49 Q87.8438 785.49 85.5753 785.119 Q83.3299 784.749 80.9225 784.008 L80.9225 779.309 Q83.0058 780.443 85.2281 780.999 Q87.4503 781.555 89.9271 781.555 Q93.9317 781.555 96.2697 779.448 Q98.6076 777.342 98.6076 773.731 Q98.6076 770.119 96.2697 768.013 Q93.9317 765.906 89.9271 765.906 Q88.0521 765.906 86.1771 766.323 Q84.3253 766.74 82.3808 767.619 L82.3808 750.258 Z" fill="#000000" fill-rule="nonzero" fill-opacity="1" /><path clip-path="url(#clip700)" d="M122.496 753.337 Q118.885 753.337 117.057 756.902 Q115.251 760.444 115.251 767.573 Q115.251 774.68 117.057 778.244 Q118.885 781.786 122.496 781.786 Q126.131 781.786 127.936 778.244 Q129.765 774.68 129.765 767.573 Q129.765 760.444 127.936 756.902 Q126.131 753.337 122.496 753.337 M122.496 749.633 Q128.307 749.633 131.362 754.24 Q134.441 758.823 134.441 767.573 Q134.441 776.3 131.362 780.906 Q128.307 785.49 122.496 785.49 Q116.686 785.49 113.608 780.906 Q110.552 776.3 110.552 767.573 Q110.552 758.823 113.608 754.24 Q116.686 749.633 122.496 749.633 Z" fill="#000000" fill-rule="nonzero" fill-opacity="1" /><path clip-path="url(#clip700)" d="M152.658 753.337 Q149.047 753.337 147.218 756.902 Q145.413 760.444 145.413 767.573 Q145.413 774.68 147.218 778.244 Q149.047 781.786 152.658 781.786 Q156.292 781.786 158.098 778.244 Q159.927 774.68 159.927 767.573 Q159.927 760.444 158.098 756.902 Q156.292 753.337 152.658 753.337 M152.658 749.633 Q158.468 749.633 161.524 754.24 Q164.603 758.823 164.603 767.573 Q164.603 776.3 161.524 780.906 Q158.468 785.49 152.658 785.49 Q146.848 785.49 143.769 780.906 Q140.714 776.3 140.714 767.573 Q140.714 758.823 143.769 754.24 Q146.848 749.633 152.658 749.633 Z" fill="#000000" fill-rule="nonzero" fill-opacity="1" /><path clip-path="url(#clip700)" d="M182.82 753.337 Q179.209 753.337 177.38 756.902 Q175.575 760.444 175.575 767.573 Q175.575 774.68 177.38 778.244 Q179.209 781.786 182.82 781.786 Q186.454 781.786 188.26 778.244 Q190.089 774.68 190.089 767.573 Q190.089 760.444 188.26 756.902 Q186.454 753.337 182.82 753.337 M182.82 749.633 Q188.63 749.633 191.686 754.24 Q194.765 758.823 194.765 767.573 Q194.765 776.3 191.686 780.906 Q188.63 785.49 182.82 785.49 Q177.01 785.49 173.931 780.906 Q170.876 776.3 170.876 767.573 Q170.876 758.823 173.931 754.24 Q177.01 749.633 182.82 749.633 Z" fill="#000000" fill-rule="nonzero" fill-opacity="1" /><path clip-path="url(#clip700)" d="M50.9921 486.548 L73.2142 486.548 L73.2142 488.539 L60.668 521.108 L55.7838 521.108 L67.5893 490.483 L50.9921 490.483 L50.9921 486.548 Z" fill="#000000" fill-rule="nonzero" fill-opacity="1" /><path clip-path="url(#clip700)" d="M92.9132 501.965 Q89.7651 501.965 87.9132 504.117 Q86.0845 506.27 86.0845 510.02 Q86.0845 513.747 87.9132 515.923 Q89.7651 518.076 92.9132 518.076 Q96.0613 518.076 97.89 515.923 Q99.7419 513.747 99.7419 510.02 Q99.7419 506.27 97.89 504.117 Q96.0613 501.965 92.9132 501.965 M102.196 487.312 L102.196 491.571 Q100.436 490.738 98.6308 490.298 Q96.8484 489.858 95.0891 489.858 Q90.4595 489.858 88.0058 492.983 Q85.5753 496.108 85.2281 502.428 Q86.5938 500.414 88.654 499.349 Q90.7141 498.261 93.191 498.261 Q98.3993 498.261 101.409 501.432 Q104.441 504.58 104.441 510.02 Q104.441 515.344 101.293 518.562 Q98.1447 521.779 92.9132 521.779 Q86.9179 521.779 83.7466 517.196 Q80.5753 512.589 80.5753 503.863 Q80.5753 495.668 84.4642 490.807 Q88.353 485.923 94.9039 485.923 Q96.6632 485.923 98.4456 486.27 Q100.251 486.617 102.196 487.312 Z" fill="#000000" fill-rule="nonzero" fill-opacity="1" /><path clip-path="url(#clip700)" d="M122.496 489.627 Q118.885 489.627 117.057 493.191 Q115.251 496.733 115.251 503.863 Q115.251 510.969 117.057 514.534 Q118.885 518.076 122.496 518.076 Q126.131 518.076 127.936 514.534 Q129.765 510.969 129.765 503.863 Q129.765 496.733 127.936 493.191 Q126.131 489.627 122.496 489.627 M122.496 485.923 Q128.307 485.923 131.362 490.529 Q134.441 495.113 134.441 503.863 Q134.441 512.589 131.362 517.196 Q128.307 521.779 122.496 521.779 Q116.686 521.779 113.608 517.196 Q110.552 512.589 110.552 503.863 Q110.552 495.113 113.608 490.529 Q116.686 485.923 122.496 485.923 Z" fill="#000000" fill-rule="nonzero" fill-opacity="1" /><path clip-path="url(#clip700)" d="M152.658 489.627 Q149.047 489.627 147.218 493.191 Q145.413 496.733 145.413 503.863 Q145.413 510.969 147.218 514.534 Q149.047 518.076 152.658 518.076 Q156.292 518.076 158.098 514.534 Q159.927 510.969 159.927 503.863 Q159.927 496.733 158.098 493.191 Q156.292 489.627 152.658 489.627 M152.658 485.923 Q158.468 485.923 161.524 490.529 Q164.603 495.113 164.603 503.863 Q164.603 512.589 161.524 517.196 Q158.468 521.779 152.658 521.779 Q146.848 521.779 143.769 517.196 Q140.714 512.589 140.714 503.863 Q140.714 495.113 143.769 490.529 Q146.848 485.923 152.658 485.923 Z" fill="#000000" fill-rule="nonzero" fill-opacity="1" /><path clip-path="url(#clip700)" d="M182.82 489.627 Q179.209 489.627 177.38 493.191 Q175.575 496.733 175.575 503.863 Q175.575 510.969 177.38 514.534 Q179.209 518.076 182.82 518.076 Q186.454 518.076 188.26 514.534 Q190.089 510.969 190.089 503.863 Q190.089 496.733 188.26 493.191 Q186.454 489.627 182.82 489.627 M182.82 485.923 Q188.63 485.923 191.686 490.529 Q194.765 495.113 194.765 503.863 Q194.765 512.589 191.686 517.196 Q188.63 521.779 182.82 521.779 Q177.01 521.779 173.931 517.196 Q170.876 512.589 170.876 503.863 Q170.876 495.113 173.931 490.529 Q177.01 485.923 182.82 485.923 Z" fill="#000000" fill-rule="nonzero" fill-opacity="1" /><path clip-path="url(#clip700)" d="M50.9921 222.837 L73.2142 222.837 L73.2142 224.828 L60.668 257.397 L55.7838 257.397 L67.5893 226.773 L50.9921 226.773 L50.9921 222.837 Z" fill="#000000" fill-rule="nonzero" fill-opacity="1" /><path clip-path="url(#clip700)" d="M81.154 222.837 L103.376 222.837 L103.376 224.828 L90.8299 257.397 L85.9456 257.397 L97.7511 226.773 L81.154 226.773 L81.154 222.837 Z" fill="#000000" fill-rule="nonzero" fill-opacity="1" /><path clip-path="url(#clip700)" d="M122.496 225.916 Q118.885 225.916 117.057 229.481 Q115.251 233.023 115.251 240.152 Q115.251 247.259 117.057 250.823 Q118.885 254.365 122.496 254.365 Q126.131 254.365 127.936 250.823 Q129.765 247.259 129.765 240.152 Q129.765 233.023 127.936 229.481 Q126.131 225.916 122.496 225.916 M122.496 222.212 Q128.307 222.212 131.362 226.819 Q134.441 231.402 134.441 240.152 Q134.441 248.879 131.362 253.485 Q128.307 258.069 122.496 258.069 Q116.686 258.069 113.608 253.485 Q110.552 248.879 110.552 240.152 Q110.552 231.402 113.608 226.819 Q116.686 222.212 122.496 222.212 Z" fill="#000000" fill-rule="nonzero" fill-opacity="1" /><path clip-path="url(#clip700)" d="M152.658 225.916 Q149.047 225.916 147.218 229.481 Q145.413 233.023 145.413 240.152 Q145.413 247.259 147.218 250.823 Q149.047 254.365 152.658 254.365 Q156.292 254.365 158.098 250.823 Q159.927 247.259 159.927 240.152 Q159.927 233.023 158.098 229.481 Q156.292 225.916 152.658 225.916 M152.658 222.212 Q158.468 222.212 161.524 226.819 Q164.603 231.402 164.603 240.152 Q164.603 248.879 161.524 253.485 Q158.468 258.069 152.658 258.069 Q146.848 258.069 143.769 253.485 Q140.714 248.879 140.714 240.152 Q140.714 231.402 143.769 226.819 Q146.848 222.212 152.658 222.212 Z" fill="#000000" fill-rule="nonzero" fill-opacity="1" /><path clip-path="url(#clip700)" d="M182.82 225.916 Q179.209 225.916 177.38 229.481 Q175.575 233.023 175.575 240.152 Q175.575 247.259 177.38 250.823 Q179.209 254.365 182.82 254.365 Q186.454 254.365 188.26 250.823 Q190.089 247.259 190.089 240.152 Q190.089 233.023 188.26 229.481 Q186.454 225.916 182.82 225.916 M182.82 222.212 Q188.63 222.212 191.686 226.819 Q194.765 231.402 194.765 240.152 Q194.765 248.879 191.686 253.485 Q188.63 258.069 182.82 258.069 Q177.01 258.069 173.931 253.485 Q170.876 248.879 170.876 240.152 Q170.876 231.402 173.931 226.819 Q177.01 222.212 182.82 222.212 Z" fill="#000000" fill-rule="nonzero" fill-opacity="1" /><path clip-path="url(#clip700)" d="M1262.23 35.2602 Q1262.23 29.4732 1259.83 26.2904 Q1257.46 23.1075 1253.15 23.1075 Q1248.86 23.1075 1246.46 26.2904 Q1244.09 29.4732 1244.09 35.2602 Q1244.09 41.0183 1246.46 44.2012 Q1248.86 47.384 1253.15 47.384 Q1257.46 47.384 1259.83 44.2012 Q1262.23 41.0183 1262.23 35.2602 M1267.56 47.818 Q1267.56 56.0934 1263.88 60.1154 Q1260.21 64.1663 1252.63 64.1663 Q1249.82 64.1663 1247.33 63.7323 Q1244.84 63.3272 1242.5 62.4592 L1242.5 57.2798 Q1244.84 58.5529 1247.13 59.1606 Q1249.41 59.7682 1251.79 59.7682 Q1257.02 59.7682 1259.63 57.0194 Q1262.23 54.2995 1262.23 48.7729 L1262.23 46.1398 Q1260.58 49.0044 1258.01 50.4222 Q1255.43 51.84 1251.84 51.84 Q1245.88 51.84 1242.24 47.2972 Q1238.59 42.7544 1238.59 35.2602 Q1238.59 27.7371 1242.24 23.1943 Q1245.88 18.6515 1251.84 18.6515 Q1255.43 18.6515 1258.01 20.0693 Q1260.58 21.4872 1262.23 24.3517 L1262.23 19.4328 L1267.56 19.4328 L1267.56 47.818 Z" fill="#000000" fill-rule="nonzero" fill-opacity="1" /><path clip-path="url(#clip700)" d="M1299.85 24.3517 L1299.85 6.81709 L1305.17 6.81709 L1305.17 51.84 L1299.85 51.84 L1299.85 46.9789 Q1298.17 49.8724 1295.59 51.2902 Q1293.05 52.6791 1289.46 52.6791 Q1283.59 52.6791 1279.88 47.9916 Q1276.21 43.3042 1276.21 35.6653 Q1276.21 28.0265 1279.88 23.339 Q1283.59 18.6515 1289.46 18.6515 Q1293.05 18.6515 1295.59 20.0693 Q1298.17 21.4582 1299.85 24.3517 M1281.71 35.6653 Q1281.71 41.5391 1284.11 44.8956 Q1286.54 48.2231 1290.76 48.2231 Q1294.99 48.2231 1297.42 44.8956 Q1299.85 41.5391 1299.85 35.6653 Q1299.85 29.7915 1297.42 26.464 Q1294.99 23.1075 1290.76 23.1075 Q1286.54 23.1075 1284.11 26.464 Q1281.71 29.7915 1281.71 35.6653 Z" fill="#000000" fill-rule="nonzero" fill-opacity="1" /><path clip-path="url(#clip700)" d="M1321.29 46.9789 L1321.29 64.1663 L1315.94 64.1663 L1315.94 19.4328 L1321.29 19.4328 L1321.29 24.3517 Q1322.97 21.4582 1325.51 20.0693 Q1328.09 18.6515 1331.65 18.6515 Q1337.55 18.6515 1341.22 23.339 Q1344.93 28.0265 1344.93 35.6653 Q1344.93 43.3042 1341.22 47.9916 Q1337.55 52.6791 1331.65 52.6791 Q1328.09 52.6791 1325.51 51.2902 Q1322.97 49.8724 1321.29 46.9789 M1339.4 35.6653 Q1339.4 29.7915 1336.97 26.464 Q1334.57 23.1075 1330.35 23.1075 Q1326.12 23.1075 1323.69 26.464 Q1321.29 29.7915 1321.29 35.6653 Q1321.29 41.5391 1323.69 44.8956 Q1326.12 48.2231 1330.35 48.2231 Q1334.57 48.2231 1336.97 44.8956 Q1339.4 41.5391 1339.4 35.6653 Z" fill="#000000" fill-rule="nonzero" fill-opacity="1" /><polyline clip-path="url(#clip702)" style="stroke:#009af9; stroke-linecap:round; stroke-linejoin:round; stroke-width:4; stroke-opacity:1; fill:none" points="290.821,1447.38 415.938,1434.77 541.056,1390.74 666.173,1428.37 791.291,1281.87 916.408,1173.01 1041.53,1039.81 1166.64,842.274 1291.76,627.159 1416.88,512.985 1542,442.844 1667.11,483.497 1792.23,409.21 1917.35,195.902 2042.46,145.256 2167.58,245.916 2292.7,180.853 "/>
<path clip-path="url(#clip700)" d="M301.498 255.881 L566.127 255.881 L566.127 152.201 L301.498 152.201  Z" fill="#ffffff" fill-rule="evenodd" fill-opacity="1"/>
<polyline clip-path="url(#clip700)" style="stroke:#000000; stroke-linecap:round; stroke-linejoin:round; stroke-width:4; stroke-opacity:1; fill:none" points="301.498,255.881 566.127,255.881 566.127,152.201 301.498,152.201 301.498,255.881 "/>
<polyline clip-path="url(#clip700)" style="stroke:#009af9; stroke-linecap:round; stroke-linejoin:round; stroke-width:4; stroke-opacity:1; fill:none" points="325.075,204.041 466.541,204.041 "/>
<path clip-path="url(#clip700)" d="M503.962 223.728 Q502.156 228.358 500.443 229.77 Q498.73 231.182 495.86 231.182 L492.457 231.182 L492.457 227.617 L494.957 227.617 Q496.716 227.617 497.688 226.784 Q498.661 225.95 499.841 222.848 L500.605 220.904 L490.119 195.395 L494.633 195.395 L502.735 215.673 L510.836 195.395 L515.35 195.395 L503.962 223.728 Z" fill="#000000" fill-rule="nonzero" fill-opacity="1" /><path clip-path="url(#clip700)" d="M522.642 217.385 L530.281 217.385 L530.281 191.02 L521.971 192.687 L521.971 188.427 L530.235 186.761 L534.91 186.761 L534.91 217.385 L542.549 217.385 L542.549 221.321 L522.642 221.321 L522.642 217.385 Z" fill="#000000" fill-rule="nonzero" fill-opacity="1" /></svg>
