<?xml version="1.0" encoding="utf-8"?>
<svg xmlns="http://www.w3.org/2000/svg" xmlns:xlink="http://www.w3.org/1999/xlink" width="600" height="400" viewBox="0 0 2400 1600">
<defs>
  <clipPath id="clip170">
    <rect x="0" y="0" width="2400" height="1600"/>
  </clipPath>
</defs>
<path clip-path="url(#clip170)" d="M0 1600 L2400 1600 L2400 0 L0 0  Z" fill="#ffffff" fill-rule="evenodd" fill-opacity="1"/>
<defs>
  <clipPath id="clip171">
    <rect x="480" y="0" width="1681" height="1600"/>
  </clipPath>
</defs>
<path clip-path="url(#clip170)" d="M230.765 1486.45 L2352.76 1486.45 L2352.76 106.192 L230.765 106.192  Z" fill="#ffffff" fill-rule="evenodd" fill-opacity="1"/>
<defs>
  <clipPath id="clip172">
    <rect x="230" y="106" width="2123" height="1381"/>
  </clipPath>
</defs>
<polyline clip-path="url(#clip172)" style="stroke:#000000; stroke-linecap:round; stroke-linejoin:round; stroke-width:2; stroke-opacity:0.1; fill:none" points="541.056,1486.45 541.056,106.192 "/>
<polyline clip-path="url(#clip172)" style="stroke:#000000; stroke-linecap:round; stroke-linejoin:round; stroke-width:2; stroke-opacity:0.1; fill:none" points="916.408,1486.45 916.408,106.192 "/>
<polyline clip-path="url(#clip172)" style="stroke:#000000; stroke-linecap:round; stroke-linejoin:round; stroke-width:2; stroke-opacity:0.1; fill:none" points="1291.76,1486.45 1291.76,106.192 "/>
<polyline clip-path="url(#clip172)" style="stroke:#000000; stroke-linecap:round; stroke-linejoin:round; stroke-width:2; stroke-opacity:0.1; fill:none" points="1667.11,1486.45 1667.11,106.192 "/>
<polyline clip-path="url(#clip172)" style="stroke:#000000; stroke-linecap:round; stroke-linejoin:round; stroke-width:2; stroke-opacity:0.1; fill:none" points="2042.46,1486.45 2042.46,106.192 "/>
<polyline clip-path="url(#clip172)" style="stroke:#000000; stroke-linecap:round; stroke-linejoin:round; stroke-width:2; stroke-opacity:0.1; fill:none" points="230.765,1279.85 2352.76,1279.85 "/>
<polyline clip-path="url(#clip172)" style="stroke:#000000; stroke-linecap:round; stroke-linejoin:round; stroke-width:2; stroke-opacity:0.1; fill:none" points="230.765,1049.11 2352.76,1049.11 "/>
<polyline clip-path="url(#clip172)" style="stroke:#000000; stroke-linecap:round; stroke-linejoin:round; stroke-width:2; stroke-opacity:0.1; fill:none" points="230.765,818.373 2352.76,818.373 "/>
<polyline clip-path="url(#clip172)" style="stroke:#000000; stroke-linecap:round; stroke-linejoin:round; stroke-width:2; stroke-opacity:0.1; fill:none" points="230.765,587.635 2352.76,587.635 "/>
<polyline clip-path="url(#clip172)" style="stroke:#000000; stroke-linecap:round; stroke-linejoin:round; stroke-width:2; stroke-opacity:0.1; fill:none" points="230.765,356.898 2352.76,356.898 "/>
<polyline clip-path="url(#clip172)" style="stroke:#000000; stroke-linecap:round; stroke-linejoin:round; stroke-width:2; stroke-opacity:0.1; fill:none" points="230.765,126.161 2352.76,126.161 "/>
<polyline clip-path="url(#clip170)" style="stroke:#000000; stroke-linecap:round; stroke-linejoin:round; stroke-width:4; stroke-opacity:1; fill:none" points="230.765,1486.45 2352.76,1486.45 "/>
<polyline clip-path="url(#clip170)" style="stroke:#000000; stroke-linecap:round; stroke-linejoin:round; stroke-width:4; stroke-opacity:1; fill:none" points="541.056,1486.45 541.056,1467.55 "/>
<polyline clip-path="url(#clip170)" style="stroke:#000000; stroke-linecap:round; stroke-linejoin:round; stroke-width:4; stroke-opacity:1; fill:none" points="916.408,1486.45 916.408,1467.55 "/>
<polyline clip-path="url(#clip170)" style="stroke:#000000; stroke-linecap:round; stroke-linejoin:round; stroke-width:4; stroke-opacity:1; fill:none" points="1291.76,1486.45 1291.76,1467.55 "/>
<polyline clip-path="url(#clip170)" style="stroke:#000000; stroke-linecap:round; stroke-linejoin:round; stroke-width:4; stroke-opacity:1; fill:none" points="1667.11,1486.45 1667.11,1467.55 "/>
<polyline clip-path="url(#clip170)" style="stroke:#000000; stroke-linecap:round; stroke-linejoin:round; stroke-width:4; stroke-opacity:1; fill:none" points="2042.46,1486.45 2042.46,1467.55 "/>
<path clip-path="url(#clip170)" d="M545.303 1530.21 Q548.66 1530.93 550.535 1533.2 Q552.433 1535.47 552.433 1538.8 Q552.433 1543.92 548.914 1546.72 Q545.396 1549.52 538.915 1549.52 Q536.739 1549.52 534.424 1549.08 Q532.132 1548.66 529.678 1547.81 L529.678 1543.29 Q531.623 1544.43 533.938 1545.01 Q536.252 1545.58 538.776 1545.58 Q543.174 1545.58 545.465 1543.85 Q547.78 1542.11 547.78 1538.8 Q547.78 1535.75 545.627 1534.03 Q543.498 1532.3 539.678 1532.3 L535.651 1532.3 L535.651 1528.45 L539.864 1528.45 Q543.313 1528.45 545.141 1527.09 Q546.97 1525.7 546.97 1523.11 Q546.97 1520.45 545.072 1519.03 Q543.197 1517.6 539.678 1517.6 Q537.757 1517.6 535.558 1518.01 Q533.359 1518.43 530.72 1519.31 L530.72 1515.14 Q533.382 1514.4 535.697 1514.03 Q538.035 1513.66 540.095 1513.66 Q545.419 1513.66 548.521 1516.09 Q551.623 1518.5 551.623 1522.62 Q551.623 1525.49 549.979 1527.48 Q548.336 1529.45 545.303 1530.21 Z" fill="#000000" fill-rule="nonzero" fill-opacity="1" /><path clip-path="url(#clip170)" d="M916.813 1529.7 Q913.665 1529.7 911.813 1531.86 Q909.984 1534.01 909.984 1537.76 Q909.984 1541.49 911.813 1543.66 Q913.665 1545.82 916.813 1545.82 Q919.961 1545.82 921.79 1543.66 Q923.642 1541.49 923.642 1537.76 Q923.642 1534.01 921.79 1531.86 Q919.961 1529.7 916.813 1529.7 M926.095 1515.05 L926.095 1519.31 Q924.336 1518.48 922.531 1518.04 Q920.748 1517.6 918.989 1517.6 Q914.359 1517.6 911.906 1520.72 Q909.475 1523.85 909.128 1530.17 Q910.494 1528.15 912.554 1527.09 Q914.614 1526 917.091 1526 Q922.299 1526 925.308 1529.17 Q928.341 1532.32 928.341 1537.76 Q928.341 1543.08 925.193 1546.3 Q922.044 1549.52 916.813 1549.52 Q910.818 1549.52 907.646 1544.94 Q904.475 1540.33 904.475 1531.6 Q904.475 1523.41 908.364 1518.55 Q912.253 1513.66 918.804 1513.66 Q920.563 1513.66 922.345 1514.01 Q924.151 1514.36 926.095 1515.05 Z" fill="#000000" fill-rule="nonzero" fill-opacity="1" /><path clip-path="url(#clip170)" d="M1282.06 1548.13 L1282.06 1543.87 Q1283.82 1544.7 1285.63 1545.14 Q1287.43 1545.58 1289.17 1545.58 Q1293.8 1545.58 1296.23 1542.48 Q1298.68 1539.36 1299.03 1533.01 Q1297.69 1535.01 1295.63 1536.07 Q1293.57 1537.13 1291.07 1537.13 Q1285.88 1537.13 1282.85 1534.01 Q1279.84 1530.86 1279.84 1525.42 Q1279.84 1520.1 1282.99 1516.88 Q1286.14 1513.66 1291.37 1513.66 Q1297.36 1513.66 1300.51 1518.27 Q1303.68 1522.85 1303.68 1531.6 Q1303.68 1539.77 1299.79 1544.66 Q1295.93 1549.52 1289.38 1549.52 Q1287.62 1549.52 1285.81 1549.17 Q1284.01 1548.82 1282.06 1548.13 M1291.37 1533.48 Q1294.51 1533.48 1296.34 1531.32 Q1298.2 1529.17 1298.2 1525.42 Q1298.2 1521.7 1296.34 1519.54 Q1294.51 1517.37 1291.37 1517.37 Q1288.22 1517.37 1286.37 1519.54 Q1284.54 1521.7 1284.54 1525.42 Q1284.54 1529.17 1286.37 1531.32 Q1288.22 1533.48 1291.37 1533.48 Z" fill="#000000" fill-rule="nonzero" fill-opacity="1" /><path clip-path="url(#clip170)" d="M1642.6 1544.91 L1650.24 1544.91 L1650.24 1518.55 L1641.93 1520.21 L1641.93 1515.95 L1650.19 1514.29 L1654.87 1514.29 L1654.87 1544.91 L1662.51 1544.91 L1662.51 1548.85 L1642.6 1548.85 L1642.6 1544.91 Z" fill="#000000" fill-rule="nonzero" fill-opacity="1" /><path clip-path="url(#clip170)" d="M1675.98 1544.91 L1692.3 1544.91 L1692.3 1548.85 L1670.35 1548.85 L1670.35 1544.91 Q1673.02 1542.16 1677.6 1537.53 Q1682.2 1532.88 1683.39 1531.53 Q1685.63 1529.01 1686.51 1527.27 Q1687.41 1525.51 1687.41 1523.82 Q1687.41 1521.07 1685.47 1519.33 Q1683.55 1517.6 1680.45 1517.6 Q1678.25 1517.6 1675.79 1518.36 Q1673.36 1519.13 1670.58 1520.68 L1670.58 1515.95 Q1673.41 1514.82 1675.86 1514.24 Q1678.32 1513.66 1680.35 1513.66 Q1685.72 1513.66 1688.92 1516.35 Q1692.11 1519.03 1692.11 1523.52 Q1692.11 1525.65 1691.3 1527.57 Q1690.52 1529.47 1688.41 1532.07 Q1687.83 1532.74 1684.73 1535.95 Q1681.63 1539.15 1675.98 1544.91 Z" fill="#000000" fill-rule="nonzero" fill-opacity="1" /><path clip-path="url(#clip170)" d="M2017.65 1544.91 L2025.29 1544.91 L2025.29 1518.55 L2016.98 1520.21 L2016.98 1515.95 L2025.24 1514.29 L2029.92 1514.29 L2029.92 1544.91 L2037.56 1544.91 L2037.56 1548.85 L2017.65 1548.85 L2017.65 1544.91 Z" fill="#000000" fill-rule="nonzero" fill-opacity="1" /><path clip-path="url(#clip170)" d="M2047.05 1514.29 L2065.4 1514.29 L2065.4 1518.22 L2051.33 1518.22 L2051.33 1526.7 Q2052.35 1526.35 2053.37 1526.19 Q2054.39 1526 2055.4 1526 Q2061.19 1526 2064.57 1529.17 Q2067.95 1532.34 2067.95 1537.76 Q2067.95 1543.34 2064.48 1546.44 Q2061.01 1549.52 2054.69 1549.52 Q2052.51 1549.52 2050.24 1549.15 Q2048 1548.78 2045.59 1548.04 L2045.59 1543.34 Q2047.67 1544.47 2049.9 1545.03 Q2052.12 1545.58 2054.59 1545.58 Q2058.6 1545.58 2060.94 1543.48 Q2063.27 1541.37 2063.27 1537.76 Q2063.27 1534.15 2060.94 1532.04 Q2058.6 1529.94 2054.59 1529.94 Q2052.72 1529.94 2050.84 1530.35 Q2048.99 1530.77 2047.05 1531.65 L2047.05 1514.29 Z" fill="#000000" fill-rule="nonzero" fill-opacity="1" /><polyline clip-path="url(#clip170)" style="stroke:#000000; stroke-linecap:round; stroke-linejoin:round; stroke-width:4; stroke-opacity:1; fill:none" points="230.765,1486.45 230.765,106.192 "/>
<polyline clip-path="url(#clip170)" style="stroke:#000000; stroke-linecap:round; stroke-linejoin:round; stroke-width:4; stroke-opacity:1; fill:none" points="230.765,1279.85 249.662,1279.85 "/>
<polyline clip-path="url(#clip170)" style="stroke:#000000; stroke-linecap:round; stroke-linejoin:round; stroke-width:4; stroke-opacity:1; fill:none" points="230.765,1049.11 249.662,1049.11 "/>
<polyline clip-path="url(#clip170)" style="stroke:#000000; stroke-linecap:round; stroke-linejoin:round; stroke-width:4; stroke-opacity:1; fill:none" points="230.765,818.373 249.662,818.373 "/>
<polyline clip-path="url(#clip170)" style="stroke:#000000; stroke-linecap:round; stroke-linejoin:round; stroke-width:4; stroke-opacity:1; fill:none" points="230.765,587.635 249.662,587.635 "/>
<polyline clip-path="url(#clip170)" style="stroke:#000000; stroke-linecap:round; stroke-linejoin:round; stroke-width:4; stroke-opacity:1; fill:none" points="230.765,356.898 249.662,356.898 "/>
<polyline clip-path="url(#clip170)" style="stroke:#000000; stroke-linecap:round; stroke-linejoin:round; stroke-width:4; stroke-opacity:1; fill:none" points="230.765,126.161 249.662,126.161 "/>
<path clip-path="url(#clip170)" d="M50.9921 1262.57 L73.2142 1262.57 L73.2142 1264.56 L60.668 1297.13 L55.7838 1297.13 L67.5893 1266.5 L50.9921 1266.5 L50.9921 1262.57 Z" fill="#000000" fill-rule="nonzero" fill-opacity="1" /><path clip-path="url(#clip170)" d="M96.5011 1278.49 Q99.8576 1279.21 101.733 1281.48 Q103.631 1283.75 103.631 1287.08 Q103.631 1292.2 100.112 1295 Q96.5937 1297.8 90.1123 1297.8 Q87.9364 1297.8 85.6216 1297.36 Q83.3299 1296.94 80.8762 1296.09 L80.8762 1291.57 Q82.8207 1292.71 85.1355 1293.28 Q87.4503 1293.86 89.9734 1293.86 Q94.3715 1293.86 96.6632 1292.13 Q98.978 1290.39 98.978 1287.08 Q98.978 1284.02 96.8252 1282.31 Q94.6956 1280.58 90.8762 1280.58 L86.8484 1280.58 L86.8484 1276.73 L91.0614 1276.73 Q94.5104 1276.73 96.3391 1275.37 Q98.1678 1273.98 98.1678 1271.39 Q98.1678 1268.72 96.2697 1267.31 Q94.3947 1265.88 90.8762 1265.88 Q88.9549 1265.88 86.7558 1266.29 Q84.5568 1266.71 81.9179 1267.59 L81.9179 1263.42 Q84.5799 1262.68 86.8947 1262.31 Q89.2327 1261.94 91.2928 1261.94 Q96.6169 1261.94 99.7187 1264.37 Q102.821 1266.78 102.821 1270.9 Q102.821 1273.77 101.177 1275.76 Q99.5335 1277.73 96.5011 1278.49 Z" fill="#000000" fill-rule="nonzero" fill-opacity="1" /><path clip-path="url(#clip170)" d="M122.496 1265.65 Q118.885 1265.65 117.057 1269.21 Q115.251 1272.75 115.251 1279.88 Q115.251 1286.99 117.057 1290.55 Q118.885 1294.09 122.496 1294.09 Q126.131 1294.09 127.936 1290.55 Q129.765 1286.99 129.765 1279.88 Q129.765 1272.75 127.936 1269.21 Q126.131 1265.65 122.496 1265.65 M122.496 1261.94 Q128.307 1261.94 131.362 1266.55 Q134.441 1271.13 134.441 1279.88 Q134.441 1288.61 131.362 1293.21 Q128.307 1297.8 122.496 1297.8 Q116.686 1297.8 113.608 1293.21 Q110.552 1288.61 110.552 1279.88 Q110.552 1271.13 113.608 1266.55 Q116.686 1261.94 122.496 1261.94 Z" fill="#000000" fill-rule="nonzero" fill-opacity="1" /><path clip-path="url(#clip170)" d="M152.658 1265.65 Q149.047 1265.65 147.218 1269.21 Q145.413 1272.75 145.413 1279.88 Q145.413 1286.99 147.218 1290.55 Q149.047 1294.09 152.658 1294.09 Q156.292 1294.09 158.098 1290.55 Q159.927 1286.99 159.927 1279.88 Q159.927 1272.75 158.098 1269.21 Q156.292 1265.65 152.658 1265.65 M152.658 1261.94 Q158.468 1261.94 161.524 1266.55 Q164.603 1271.13 164.603 1279.88 Q164.603 1288.61 161.524 1293.21 Q158.468 1297.8 152.658 1297.8 Q146.848 1297.8 143.769 1293.21 Q140.714 1288.61 140.714 1279.88 Q140.714 1271.13 143.769 1266.55 Q146.848 1261.94 152.658 1261.94 Z" fill="#000000" fill-rule="nonzero" fill-opacity="1" /><path clip-path="url(#clip170)" d="M182.82 1265.65 Q179.209 1265.65 177.38 1269.21 Q175.575 1272.75 175.575 1279.88 Q175.575 1286.99 177.38 1290.55 Q179.209 1294.09 182.82 1294.09 Q186.454 1294.09 188.26 1290.55 Q190.089 1286.99 190.089 1279.88 Q190.089 1272.75 188.26 1269.21 Q186.454 1265.65 182.82 1265.65 M182.82 1261.94 Q188.63 1261.94 191.686 1266.55 Q194.765 1271.13 194.765 1279.88 Q194.765 1288.61 191.686 1293.21 Q188.63 1297.8 182.82 1297.8 Q177.01 1297.8 173.931 1293.21 Q170.876 1288.61 170.876 1279.88 Q170.876 1271.13 173.931 1266.55 Q177.01 1261.94 182.82 1261.94 Z" fill="#000000" fill-rule="nonzero" fill-opacity="1" /><path clip-path="url(#clip170)" d="M50.9921 1031.83 L73.2142 1031.83 L73.2142 1033.82 L60.668 1066.39 L55.7838 1066.39 L67.5893 1035.76 L50.9921 1035.76 L50.9921 1031.83 Z" fill="#000000" fill-rule="nonzero" fill-opacity="1" /><path clip-path="url(#clip170)" d="M95.1817 1035.9 L83.3762 1054.35 L95.1817 1054.35 L95.1817 1035.9 M93.9549 1031.83 L99.8345 1031.83 L99.8345 1054.35 L104.765 1054.35 L104.765 1058.24 L99.8345 1058.24 L99.8345 1066.39 L95.1817 1066.39 L95.1817 1058.24 L79.5799 1058.24 L79.5799 1053.73 L93.9549 1031.83 Z" fill="#000000" fill-rule="nonzero" fill-opacity="1" /><path clip-path="url(#clip170)" d="M122.496 1034.91 Q118.885 1034.91 117.057 1038.47 Q115.251 1042.01 115.251 1049.14 Q115.251 1056.25 117.057 1059.82 Q118.885 1063.36 122.496 1063.36 Q126.131 1063.36 127.936 1059.82 Q129.765 1056.25 129.765 1049.14 Q129.765 1042.01 127.936 1038.47 Q126.131 1034.91 122.496 1034.91 M122.496 1031.2 Q128.307 1031.2 131.362 1035.81 Q134.441 1040.39 134.441 1049.14 Q134.441 1057.87 131.362 1062.48 Q128.307 1067.06 122.496 1067.06 Q116.686 1067.06 113.608 1062.48 Q110.552 1057.87 110.552 1049.14 Q110.552 1040.39 113.608 1035.81 Q116.686 1031.2 122.496 1031.2 Z" fill="#000000" fill-rule="nonzero" fill-opacity="1" /><path clip-path="url(#clip170)" d="M152.658 1034.91 Q149.047 1034.91 147.218 1038.47 Q145.413 1042.01 145.413 1049.14 Q145.413 1056.25 147.218 1059.82 Q149.047 1063.36 152.658 1063.36 Q156.292 1063.36 158.098 1059.82 Q159.927 1056.25 159.927 1049.14 Q159.927 1042.01 158.098 1038.47 Q156.292 1034.91 152.658 1034.91 M152.658 1031.2 Q158.468 1031.2 161.524 1035.81 Q164.603 1040.39 164.603 1049.14 Q164.603 1057.87 161.524 1062.48 Q158.468 1067.06 152.658 1067.06 Q146.848 1067.06 143.769 1062.48 Q140.714 1057.87 140.714 1049.14 Q140.714 1040.39 143.769 1035.81 Q146.848 1031.2 152.658 1031.2 Z" fill="#000000" fill-rule="nonzero" fill-opacity="1" /><path clip-path="url(#clip170)" d="M182.82 1034.91 Q179.209 1034.91 177.38 1038.47 Q175.575 1042.01 175.575 1049.14 Q175.575 1056.25 177.38 1059.82 Q179.209 1063.36 182.82 1063.36 Q186.454 1063.36 188.26 1059.82 Q190.089 1056.25 190.089 1049.14 Q190.089 1042.01 188.26 1038.47 Q186.454 1034.91 182.82 1034.91 M182.82 1031.2 Q188.63 1031.2 191.686 1035.81 Q194.765 1040.39 194.765 1049.14 Q194.765 1057.87 191.686 1062.48 Q188.63 1067.06 182.82 1067.06 Q177.01 1067.06 173.931 1062.48 Q170.876 1057.87 170.876 1049.14 Q170.876 1040.39 173.931 1035.81 Q177.01 1031.2 182.82 1031.2 Z" fill="#000000" fill-rule="nonzero" fill-opacity="1" /><path clip-path="url(#clip170)" d="M50.9921 801.093 L73.2142 801.093 L73.2142 803.083 L60.668 835.653 L55.7838 835.653 L67.5893 805.028 L50.9921 805.028 L50.9921 801.093 Z" fill="#000000" fill-rule="nonzero" fill-opacity="1" /><path clip-path="url(#clip170)" d="M82.3808 801.093 L100.737 801.093 L100.737 805.028 L86.6632 805.028 L86.6632 813.5 Q87.6817 813.153 88.7003 812.991 Q89.7188 812.805 90.7373 812.805 Q96.5243 812.805 99.9039 815.977 Q103.284 819.148 103.284 824.565 Q103.284 830.143 99.8113 833.245 Q96.3391 836.324 90.0197 836.324 Q87.8438 836.324 85.5753 835.953 Q83.3299 835.583 80.9225 834.842 L80.9225 830.143 Q83.0058 831.278 85.2281 831.833 Q87.4503 832.389 89.9271 832.389 Q93.9317 832.389 96.2697 830.282 Q98.6076 828.176 98.6076 824.565 Q98.6076 820.954 96.2697 818.847 Q93.9317 816.741 89.9271 816.741 Q88.0521 816.741 86.1771 817.157 Q84.3253 817.574 82.3808 818.454 L82.3808 801.093 Z" fill="#000000" fill-rule="nonzero" fill-opacity="1" /><path clip-path="url(#clip170)" d="M122.496 804.171 Q118.885 804.171 117.057 807.736 Q115.251 811.278 115.251 818.407 Q115.251 825.514 117.057 829.078 Q118.885 832.62 122.496 832.62 Q126.131 832.62 127.936 829.078 Q129.765 825.514 129.765 818.407 Q129.765 811.278 127.936 807.736 Q126.131 804.171 122.496 804.171 M122.496 800.468 Q128.307 800.468 131.362 805.074 Q134.441 809.657 134.441 818.407 Q134.441 827.134 131.362 831.741 Q128.307 836.324 122.496 836.324 Q116.686 836.324 113.608 831.741 Q110.552 827.134 110.552 818.407 Q110.552 809.657 113.608 805.074 Q116.686 800.468 122.496 800.468 Z" fill="#000000" fill-rule="nonzero" fill-opacity="1" /><path clip-path="url(#clip170)" d="M152.658 804.171 Q149.047 804.171 147.218 807.736 Q145.413 811.278 145.413 818.407 Q145.413 825.514 147.218 829.078 Q149.047 832.62 152.658 832.62 Q156.292 832.62 158.098 829.078 Q159.927 825.514 159.927 818.407 Q159.927 811.278 158.098 807.736 Q156.292 804.171 152.658 804.171 M152.658 800.468 Q158.468 800.468 161.524 805.074 Q164.603 809.657 164.603 818.407 Q164.603 827.134 161.524 831.741 Q158.468 836.324 152.658 836.324 Q146.848 836.324 143.769 831.741 Q140.714 827.134 140.714 818.407 Q140.714 809.657 143.769 805.074 Q146.848 800.468 152.658 800.468 Z" fill="#000000" fill-rule="nonzero" fill-opacity="1" /><path clip-path="url(#clip170)" d="M182.82 804.171 Q179.209 804.171 177.38 807.736 Q175.575 811.278 175.575 818.407 Q175.575 825.514 177.38 829.078 Q179.209 832.62 182.82 832.62 Q186.454 832.62 188.26 829.078 Q190.089 825.514 190.089 818.407 Q190.089 811.278 188.26 807.736 Q186.454 804.171 182.82 804.171 M182.82 800.468 Q188.63 800.468 191.686 805.074 Q194.765 809.657 194.765 818.407 Q194.765 827.134 191.686 831.741 Q188.63 836.324 182.82 836.324 Q177.01 836.324 173.931 831.741 Q170.876 827.134 170.876 818.407 Q170.876 809.657 173.931 805.074 Q177.01 800.468 182.82 800.468 Z" fill="#000000" fill-rule="nonzero" fill-opacity="1" /><path clip-path="url(#clip170)" d="M50.9921 570.355 L73.2142 570.355 L73.2142 572.346 L60.668 604.915 L55.7838 604.915 L67.5893 574.291 L50.9921 574.291 L50.9921 570.355 Z" fill="#000000" fill-rule="nonzero" fill-opacity="1" /><path clip-path="url(#clip170)" d="M92.9132 585.772 Q89.7651 585.772 87.9132 587.925 Q86.0845 590.078 86.0845 593.828 Q86.0845 597.554 87.9132 599.73 Q89.7651 601.883 92.9132 601.883 Q96.0613 601.883 97.89 599.73 Q99.7419 597.554 99.7419 593.828 Q99.7419 590.078 97.89 587.925 Q96.0613 585.772 92.9132 585.772 M102.196 571.119 L102.196 575.379 Q100.436 574.545 98.6308 574.105 Q96.8484 573.666 95.0891 573.666 Q90.4595 573.666 88.0058 576.791 Q85.5753 579.916 85.2281 586.235 Q86.5938 584.221 88.654 583.156 Q90.7141 582.068 93.191 582.068 Q98.3993 582.068 101.409 585.24 Q104.441 588.388 104.441 593.828 Q104.441 599.152 101.293 602.369 Q98.1447 605.587 92.9132 605.587 Q86.9179 605.587 83.7466 601.003 Q80.5753 596.397 80.5753 587.67 Q80.5753 579.476 84.4642 574.615 Q88.353 569.73 94.9039 569.73 Q96.6632 569.73 98.4456 570.078 Q100.251 570.425 102.196 571.119 Z" fill="#000000" fill-rule="nonzero" fill-opacity="1" /><path clip-path="url(#clip170)" d="M122.496 573.434 Q118.885 573.434 117.057 576.999 Q115.251 580.541 115.251 587.67 Q115.251 594.777 117.057 598.341 Q118.885 601.883 122.496 601.883 Q126.131 601.883 127.936 598.341 Q129.765 594.777 129.765 587.67 Q129.765 580.541 127.936 576.999 Q126.131 573.434 122.496 573.434 M122.496 569.73 Q128.307 569.73 131.362 574.337 Q134.441 578.92 134.441 587.67 Q134.441 596.397 131.362 601.003 Q128.307 605.587 122.496 605.587 Q116.686 605.587 113.608 601.003 Q110.552 596.397 110.552 587.67 Q110.552 578.92 113.608 574.337 Q116.686 569.73 122.496 569.73 Z" fill="#000000" fill-rule="nonzero" fill-opacity="1" /><path clip-path="url(#clip170)" d="M152.658 573.434 Q149.047 573.434 147.218 576.999 Q145.413 580.541 145.413 587.67 Q145.413 594.777 147.218 598.341 Q149.047 601.883 152.658 601.883 Q156.292 601.883 158.098 598.341 Q159.927 594.777 159.927 587.67 Q159.927 580.541 158.098 576.999 Q156.292 573.434 152.658 573.434 M152.658 569.73 Q158.468 569.73 161.524 574.337 Q164.603 578.92 164.603 587.67 Q164.603 596.397 161.524 601.003 Q158.468 605.587 152.658 605.587 Q146.848 605.587 143.769 601.003 Q140.714 596.397 140.714 587.67 Q140.714 578.92 143.769 574.337 Q146.848 569.73 152.658 569.73 Z" fill="#000000" fill-rule="nonzero" fill-opacity="1" /><path clip-path="url(#clip170)" d="M182.82 573.434 Q179.209 573.434 177.38 576.999 Q175.575 580.541 175.575 587.67 Q175.575 594.777 177.38 598.341 Q179.209 601.883 182.82 601.883 Q186.454 601.883 188.26 598.341 Q190.089 594.777 190.089 587.67 Q190.089 580.541 188.26 576.999 Q186.454 573.434 182.82 573.434 M182.82 569.73 Q188.63 569.73 191.686 574.337 Q194.765 578.92 194.765 587.67 Q194.765 596.397 191.686 601.003 Q188.63 605.587 182.82 605.587 Q177.01 605.587 173.931 601.003 Q170.876 596.397 170.876 587.67 Q170.876 578.92 173.931 574.337 Q177.01 569.73 182.82 569.73 Z" fill="#000000" fill-rule="nonzero" fill-opacity="1" /><path clip-path="url(#clip170)" d="M50.9921 339.618 L73.2142 339.618 L73.2142 341.609 L60.668 374.178 L55.7838 374.178 L67.5893 343.554 L50.9921 343.554 L50.9921 339.618 Z" fill="#000000" fill-rule="nonzero" fill-opacity="1" /><path clip-path="url(#clip170)" d="M81.154 339.618 L103.376 339.618 L103.376 341.609 L90.8299 374.178 L85.9456 374.178 L97.7511 343.554 L81.154 343.554 L81.154 339.618 Z" fill="#000000" fill-rule="nonzero" fill-opacity="1" /><path clip-path="url(#clip170)" d="M122.496 342.697 Q118.885 342.697 117.057 346.262 Q115.251 349.804 115.251 356.933 Q115.251 364.04 117.057 367.604 Q118.885 371.146 122.496 371.146 Q126.131 371.146 127.936 367.604 Q129.765 364.04 129.765 356.933 Q129.765 349.804 127.936 346.262 Q126.131 342.697 122.496 342.697 M122.496 338.993 Q128.307 338.993 131.362 343.6 Q134.441 348.183 134.441 356.933 Q134.441 365.66 131.362 370.266 Q128.307 374.85 122.496 374.85 Q116.686 374.85 113.608 370.266 Q110.552 365.66 110.552 356.933 Q110.552 348.183 113.608 343.6 Q116.686 338.993 122.496 338.993 Z" fill="#000000" fill-rule="nonzero" fill-opacity="1" /><path clip-path="url(#clip170)" d="M152.658 342.697 Q149.047 342.697 147.218 346.262 Q145.413 349.804 145.413 356.933 Q145.413 364.04 147.218 367.604 Q149.047 371.146 152.658 371.146 Q156.292 371.146 158.098 367.604 Q159.927 364.04 159.927 356.933 Q159.927 349.804 158.098 346.262 Q156.292 342.697 152.658 342.697 M152.658 338.993 Q158.468 338.993 161.524 343.6 Q164.603 348.183 164.603 356.933 Q164.603 365.66 161.524 370.266 Q158.468 374.85 152.658 374.85 Q146.848 374.85 143.769 370.266 Q140.714 365.66 140.714 356.933 Q140.714 348.183 143.769 343.6 Q146.848 338.993 152.658 338.993 Z" fill="#000000" fill-rule="nonzero" fill-opacity="1" /><path clip-path="url(#clip170)" d="M182.82 342.697 Q179.209 342.697 177.38 346.262 Q175.575 349.804 175.575 356.933 Q175.575 364.04 177.38 367.604 Q179.209 371.146 182.82 371.146 Q186.454 371.146 188.26 367.604 Q190.089 364.04 190.089 356.933 Q190.089 349.804 188.26 346.262 Q186.454 342.697 182.82 342.697 M182.82 338.993 Q188.63 338.993 191.686 343.6 Q194.765 348.183 194.765 356.933 Q194.765 365.66 191.686 370.266 Q188.63 374.85 182.82 374.85 Q177.01 374.85 173.931 370.266 Q170.876 365.66 170.876 356.933 Q170.876 348.183 173.931 343.6 Q177.01 338.993 182.82 338.993 Z" fill="#000000" fill-rule="nonzero" fill-opacity="1" /><path clip-path="url(#clip170)" d="M50.9921 108.881 L73.2142 108.881 L73.2142 110.872 L60.668 143.441 L55.7838 143.441 L67.5893 112.816 L50.9921 112.816 L50.9921 108.881 Z" fill="#000000" fill-rule="nonzero" fill-opacity="1" /><path clip-path="url(#clip170)" d="M92.3345 127.029 Q89.0012 127.029 87.0799 128.812 Q85.1818 130.594 85.1818 133.719 Q85.1818 136.844 87.0799 138.627 Q89.0012 140.409 92.3345 140.409 Q95.6678 140.409 97.5891 138.627 Q99.5104 136.821 99.5104 133.719 Q99.5104 130.594 97.5891 128.812 Q95.691 127.029 92.3345 127.029 M87.6586 125.039 Q84.6494 124.298 82.9595 122.238 Q81.2929 120.178 81.2929 117.215 Q81.2929 113.071 84.2327 110.664 Q87.1956 108.256 92.3345 108.256 Q97.4965 108.256 100.436 110.664 Q103.376 113.071 103.376 117.215 Q103.376 120.178 101.686 122.238 Q100.02 124.298 97.0335 125.039 Q100.413 125.826 102.288 128.117 Q104.186 130.409 104.186 133.719 Q104.186 138.742 101.108 141.427 Q98.0521 144.113 92.3345 144.113 Q86.6169 144.113 83.5382 141.427 Q80.4827 138.742 80.4827 133.719 Q80.4827 130.409 82.3808 128.117 Q84.279 125.826 87.6586 125.039 M85.9456 117.654 Q85.9456 120.34 87.6123 121.844 Q89.3021 123.349 92.3345 123.349 Q95.3437 123.349 97.0335 121.844 Q98.7465 120.34 98.7465 117.654 Q98.7465 114.969 97.0335 113.465 Q95.3437 111.96 92.3345 111.96 Q89.3021 111.96 87.6123 113.465 Q85.9456 114.969 85.9456 117.654 Z" fill="#000000" fill-rule="nonzero" fill-opacity="1" /><path clip-path="url(#clip170)" d="M122.496 111.96 Q118.885 111.96 117.057 115.525 Q115.251 119.066 115.251 126.196 Q115.251 133.302 117.057 136.867 Q118.885 140.409 122.496 140.409 Q126.131 140.409 127.936 136.867 Q129.765 133.302 129.765 126.196 Q129.765 119.066 127.936 115.525 Q126.131 111.96 122.496 111.96 M122.496 108.256 Q128.307 108.256 131.362 112.863 Q134.441 117.446 134.441 126.196 Q134.441 134.923 131.362 139.529 Q128.307 144.113 122.496 144.113 Q116.686 144.113 113.608 139.529 Q110.552 134.923 110.552 126.196 Q110.552 117.446 113.608 112.863 Q116.686 108.256 122.496 108.256 Z" fill="#000000" fill-rule="nonzero" fill-opacity="1" /><path clip-path="url(#clip170)" d="M152.658 111.96 Q149.047 111.96 147.218 115.525 Q145.413 119.066 145.413 126.196 Q145.413 133.302 147.218 136.867 Q149.047 140.409 152.658 140.409 Q156.292 140.409 158.098 136.867 Q159.927 133.302 159.927 126.196 Q159.927 119.066 158.098 115.525 Q156.292 111.96 152.658 111.96 M152.658 108.256 Q158.468 108.256 161.524 112.863 Q164.603 117.446 164.603 126.196 Q164.603 134.923 161.524 139.529 Q158.468 144.113 152.658 144.113 Q146.848 144.113 143.769 139.529 Q140.714 134.923 140.714 126.196 Q140.714 117.446 143.769 112.863 Q146.848 108.256 152.658 108.256 Z" fill="#000000" fill-rule="nonzero" fill-opacity="1" /><path clip-path="url(#clip170)" d="M182.82 111.96 Q179.209 111.96 177.38 115.525 Q175.575 119.066 175.575 126.196 Q175.575 133.302 177.38 136.867 Q179.209 140.409 182.82 140.409 Q186.454 140.409 188.26 136.867 Q190.089 133.302 190.089 126.196 Q190.089 119.066 188.26 115.525 Q186.454 111.96 182.82 111.96 M182.82 108.256 Q188.63 108.256 191.686 112.863 Q194.765 117.446 194.765 126.196 Q194.765 134.923 191.686 139.529 Q188.63 144.113 182.82 144.113 Q177.01 144.113 173.931 139.529 Q170.876 134.923 170.876 126.196 Q170.876 117.446 173.931 112.863 Q177.01 108.256 182.82 108.256 Z" fill="#000000" fill-rule="nonzero" fill-opacity="1" /><path clip-path="url(#clip170)" d="M1262.23 35.2602 Q1262.23 29.4732 1259.83 26.2904 Q1257.46 23.1075 1253.15 23.1075 Q1248.86 23.1075 1246.46 26.2904 Q1244.09 29.4732 1244.09 35.2602 Q1244.09 41.0183 1246.46 44.2012 Q1248.86 47.384 1253.15 47.384 Q1257.46 47.384 1259.83 44.2012 Q1262.23 41.0183 1262.23 35.2602 M1267.56 47.818 Q1267.56 56.0934 1263.88 60.1154 Q1260.21 64.1663 1252.63 64.1663 Q1249.82 64.1663 1247.33 63.7323 Q1244.84 63.3272 1242.5 62.4592 L1242.5 57.2798 Q1244.84 58.5529 1247.13 59.1606 Q1249.41 59.7682 1251.79 59.7682 Q1257.02 59.7682 1259.63 57.0194 Q1262.23 54.2995 1262.23 48.7729 L1262.23 46.1398 Q1260.58 49.0044 1258.01 50.4222 Q1255.43 51.84 1251.84 51.84 Q1245.88 51.84 1242.24 47.2972 Q1238.59 42.7544 1238.59 35.2602 Q1238.59 27.7371 1242.24 23.1943 Q1245.88 18.6515 1251.84 18.6515 Q1255.43 18.6515 1258.01 20.0693 Q1260.58 21.4872 1262.23 24.3517 L1262.23 19.4328 L1267.56 19.4328 L1267.56 47.818 Z" fill="#000000" fill-rule="nonzero" fill-opacity="1" /><path clip-path="url(#clip170)" d="M1299.85 24.3517 L1299.85 6.81709 L1305.17 6.81709 L1305.17 51.84 L1299.85 51.84 L1299.85 46.9789 Q1298.17 49.8724 1295.59 51.2902 Q1293.05 52.6791 1289.46 52.6791 Q1283.59 52.6791 1279.88 47.9916 Q1276.21 43.3042 1276.21 35.6653 Q1276.21 28.0265 1279.88 23.339 Q1283.59 18.6515 1289.46 18.6515 Q1293.05 18.6515 1295.59 20.0693 Q1298.17 21.4582 1299.85 24.3517 M1281.71 35.6653 Q1281.71 41.5391 1284.11 44.8956 Q1286.54 48.2231 1290.76 48.2231 Q1294.99 48.2231 1297.42 44.8956 Q1299.85 41.5391 1299.85 35.6653 Q1299.85 29.7915 1297.42 26.464 Q1294.99 23.1075 1290.76 23.1075 Q1286.54 23.1075 1284.11 26.464 Q1281.71 29.7915 1281.71 35.6653 Z" fill="#000000" fill-rule="nonzero" fill-opacity="1" /><path clip-path="url(#clip170)" d="M1321.29 46.9789 L1321.29 64.1663 L1315.94 64.1663 L1315.94 19.4328 L1321.29 19.4328 L1321.29 24.3517 Q1322.97 21.4582 1325.51 20.0693 Q1328.09 18.6515 1331.65 18.6515 Q1337.55 18.6515 1341.22 23.339 Q1344.93 28.0265 1344.93 35.6653 Q1344.93 43.3042 1341.22 47.9916 Q1337.55 52.6791 1331.65 52.6791 Q1328.09 52.6791 1325.51 51.2902 Q1322.97 49.8724 1321.29 46.9789 M1339.4 35.6653 Q1339.4 29.7915 1336.97 26.464 Q1334.57 23.1075 1330.35 23.1075 Q1326.12 23.1075 1323.69 26.464 Q1321.29 29.7915 1321.29 35.6653 Q1321.29 41.5391 1323.69 44.8956 Q1326.12 48.2231 1330.35 48.2231 Q1334.57 48.2231 1336.97 44.8956 Q1339.4 41.5391 1339.4 35.6653 Z" fill="#000000" fill-rule="nonzero" fill-opacity="1" /><polyline clip-path="url(#clip172)" style="stroke:#009af9; stroke-linecap:round; stroke-linejoin:round; stroke-width:4; stroke-opacity:1; fill:none" points="290.821,1413.21 415.938,1433.12 541.056,1447.38 666.173,1325.75 791.291,1227.85 916.408,1013.74 1041.53,902.816 1166.64,778.072 1291.76,511.132 1416.88,472.74 1542,585.15 1667.11,320.018 1792.23,219.034 1917.35,206.434 2042.46,145.256 2167.58,203.915 2292.7,192.587 "/>
<path clip-path="url(#clip170)" d="M301.498 255.881 L566.127 255.881 L566.127 152.201 L301.498 152.201  Z" fill="#ffffff" fill-rule="evenodd" fill-opacity="1"/>
<polyline clip-path="url(#clip170)" style="stroke:#000000; stroke-linecap:round; stroke-linejoin:round; stroke-width:4; stroke-opacity:1; fill:none" points="301.498,255.881 566.127,255.881 566.127,152.201 301.498,152.201 301.498,255.881 "/>
<polyline clip-path="url(#clip170)" style="stroke:#009af9; stroke-linecap:round; stroke-linejoin:round; stroke-width:4; stroke-opacity:1; fill:none" points="325.075,204.041 466.541,204.041 "/>
<path clip-path="url(#clip170)" d="M503.962 223.728 Q502.156 228.358 500.443 229.77 Q498.73 231.182 495.86 231.182 L492.457 231.182 L492.457 227.617 L494.957 227.617 Q496.716 227.617 497.688 226.784 Q498.661 225.95 499.841 222.848 L500.605 220.904 L490.119 195.395 L494.633 195.395 L502.735 215.673 L510.836 195.395 L515.35 195.395 L503.962 223.728 Z" fill="#000000" fill-rule="nonzero" fill-opacity="1" /><path clip-path="url(#clip170)" d="M522.642 217.385 L530.281 217.385 L530.281 191.02 L521.971 192.687 L521.971 188.427 L530.235 186.761 L534.91 186.761 L534.91 217.385 L542.549 217.385 L542.549 221.321 L522.642 221.321 L522.642 217.385 Z" fill="#000000" fill-rule="nonzero" fill-opacity="1" /></svg>
