<?xml version="1.0" encoding="utf-8"?>
<svg xmlns="http://www.w3.org/2000/svg" xmlns:xlink="http://www.w3.org/1999/xlink" width="600" height="300" viewBox="0 0 2400 1200">
<defs>
  <clipPath id="clip410">
    <rect x="0" y="0" width="2400" height="1200"/>
  </clipPath>
</defs>
<path clip-path="url(#clip410)" d="M0 1200 L2400 1200 L2400 0 L0 0  Z" fill="#ffffff" fill-rule="evenodd" fill-opacity="1"/>
<defs>
  <clipPath id="clip411">
    <rect x="480" y="0" width="1681" height="1200"/>
  </clipPath>
</defs>
<path clip-path="url(#clip410)" d="M216.436 1099.09 L1153.8 1099.09 L1153.8 92.1521 L216.436 92.1521  Z" fill="#ffffff" fill-rule="evenodd" fill-opacity="1"/>
<defs>
  <clipPath id="clip412">
    <rect x="216" y="92" width="938" height="1008"/>
  </clipPath>
</defs>
<polyline clip-path="url(#clip412)" style="stroke:#000000; stroke-linecap:round; stroke-linejoin:round; stroke-width:2; stroke-opacity:0.1; fill:none" points="419.826,1099.09 419.826,92.1521 "/>
<polyline clip-path="url(#clip412)" style="stroke:#000000; stroke-linecap:round; stroke-linejoin:round; stroke-width:2; stroke-opacity:0.1; fill:none" points="640.902,1099.09 640.902,92.1521 "/>
<polyline clip-path="url(#clip412)" style="stroke:#000000; stroke-linecap:round; stroke-linejoin:round; stroke-width:2; stroke-opacity:0.1; fill:none" points="861.977,1099.09 861.977,92.1521 "/>
<polyline clip-path="url(#clip412)" style="stroke:#000000; stroke-linecap:round; stroke-linejoin:round; stroke-width:2; stroke-opacity:0.1; fill:none" points="1083.05,1099.09 1083.05,92.1521 "/>
<polyline clip-path="url(#clip412)" style="stroke:#000000; stroke-linecap:round; stroke-linejoin:round; stroke-width:2; stroke-opacity:0.1; fill:none" points="216.436,867.651 1153.8,867.651 "/>
<polyline clip-path="url(#clip412)" style="stroke:#000000; stroke-linecap:round; stroke-linejoin:round; stroke-width:2; stroke-opacity:0.1; fill:none" points="216.436,618.65 1153.8,618.65 "/>
<polyline clip-path="url(#clip412)" style="stroke:#000000; stroke-linecap:round; stroke-linejoin:round; stroke-width:2; stroke-opacity:0.1; fill:none" points="216.436,369.65 1153.8,369.65 "/>
<polyline clip-path="url(#clip412)" style="stroke:#000000; stroke-linecap:round; stroke-linejoin:round; stroke-width:2; stroke-opacity:0.1; fill:none" points="216.436,120.65 1153.8,120.65 "/>
<polyline clip-path="url(#clip410)" style="stroke:#000000; stroke-linecap:round; stroke-linejoin:round; stroke-width:4; stroke-opacity:1; fill:none" points="216.436,1099.09 1153.8,1099.09 "/>
<polyline clip-path="url(#clip410)" style="stroke:#000000; stroke-linecap:round; stroke-linejoin:round; stroke-width:4; stroke-opacity:1; fill:none" points="419.826,1099.09 419.826,1080.19 "/>
<polyline clip-path="url(#clip410)" style="stroke:#000000; stroke-linecap:round; stroke-linejoin:round; stroke-width:4; stroke-opacity:1; fill:none" points="640.902,1099.09 640.902,1080.19 "/>
<polyline clip-path="url(#clip410)" style="stroke:#000000; stroke-linecap:round; stroke-linejoin:round; stroke-width:4; stroke-opacity:1; fill:none" points="861.977,1099.09 861.977,1080.19 "/>
<polyline clip-path="url(#clip410)" style="stroke:#000000; stroke-linecap:round; stroke-linejoin:round; stroke-width:4; stroke-opacity:1; fill:none" points="1083.05,1099.09 1083.05,1080.19 "/>
<path clip-path="url(#clip410)" d="M410.104 1126.93 L428.46 1126.93 L428.46 1130.86 L414.386 1130.86 L414.386 1139.34 Q415.404 1138.99 416.423 1138.83 Q417.441 1138.64 418.46 1138.64 Q424.247 1138.64 427.627 1141.81 Q431.006 1144.98 431.006 1150.4 Q431.006 1155.98 427.534 1159.08 Q424.062 1162.16 417.742 1162.16 Q415.566 1162.16 413.298 1161.79 Q411.053 1161.42 408.645 1160.68 L408.645 1155.98 Q410.729 1157.11 412.951 1157.67 Q415.173 1158.22 417.65 1158.22 Q421.654 1158.22 423.992 1156.12 Q426.33 1154.01 426.33 1150.4 Q426.33 1146.79 423.992 1144.68 Q421.654 1142.58 417.65 1142.58 Q415.775 1142.58 413.9 1142.99 Q412.048 1143.41 410.104 1144.29 L410.104 1126.93 Z" fill="#000000" fill-rule="nonzero" fill-opacity="1" /><path clip-path="url(#clip410)" d="M615.589 1157.55 L623.228 1157.55 L623.228 1131.19 L614.918 1132.85 L614.918 1128.59 L623.182 1126.93 L627.858 1126.93 L627.858 1157.55 L635.496 1157.55 L635.496 1161.49 L615.589 1161.49 L615.589 1157.55 Z" fill="#000000" fill-rule="nonzero" fill-opacity="1" /><path clip-path="url(#clip410)" d="M654.941 1130.01 Q651.33 1130.01 649.501 1133.57 Q647.695 1137.11 647.695 1144.24 Q647.695 1151.35 649.501 1154.91 Q651.33 1158.46 654.941 1158.46 Q658.575 1158.46 660.381 1154.91 Q662.209 1151.35 662.209 1144.24 Q662.209 1137.11 660.381 1133.57 Q658.575 1130.01 654.941 1130.01 M654.941 1126.3 Q660.751 1126.3 663.807 1130.91 Q666.885 1135.49 666.885 1144.24 Q666.885 1152.97 663.807 1157.58 Q660.751 1162.16 654.941 1162.16 Q649.131 1162.16 646.052 1157.58 Q642.996 1152.97 642.996 1144.24 Q642.996 1135.49 646.052 1130.91 Q649.131 1126.3 654.941 1126.3 Z" fill="#000000" fill-rule="nonzero" fill-opacity="1" /><path clip-path="url(#clip410)" d="M837.163 1157.55 L844.802 1157.55 L844.802 1131.19 L836.491 1132.85 L836.491 1128.59 L844.755 1126.93 L849.431 1126.93 L849.431 1157.55 L857.07 1157.55 L857.07 1161.49 L837.163 1161.49 L837.163 1157.55 Z" fill="#000000" fill-rule="nonzero" fill-opacity="1" /><path clip-path="url(#clip410)" d="M866.561 1126.93 L884.917 1126.93 L884.917 1130.86 L870.843 1130.86 L870.843 1139.34 Q871.862 1138.99 872.88 1138.83 Q873.899 1138.64 874.917 1138.64 Q880.704 1138.64 884.084 1141.81 Q887.463 1144.98 887.463 1150.4 Q887.463 1155.98 883.991 1159.08 Q880.519 1162.16 874.2 1162.16 Q872.024 1162.16 869.755 1161.79 Q867.51 1161.42 865.102 1160.68 L865.102 1155.98 Q867.186 1157.11 869.408 1157.67 Q871.63 1158.22 874.107 1158.22 Q878.112 1158.22 880.45 1156.12 Q882.787 1154.01 882.787 1150.4 Q882.787 1146.79 880.45 1144.68 Q878.112 1142.58 874.107 1142.58 Q872.232 1142.58 870.357 1142.99 Q868.505 1143.41 866.561 1144.29 L866.561 1126.93 Z" fill="#000000" fill-rule="nonzero" fill-opacity="1" /><path clip-path="url(#clip410)" d="M1061.83 1157.55 L1078.15 1157.55 L1078.15 1161.49 L1056.2 1161.49 L1056.2 1157.55 Q1058.86 1154.8 1063.45 1150.17 Q1068.05 1145.52 1069.23 1144.17 Q1071.48 1141.65 1072.36 1139.91 Q1073.26 1138.15 1073.26 1136.46 Q1073.26 1133.71 1071.32 1131.97 Q1069.4 1130.24 1066.29 1130.24 Q1064.1 1130.24 1061.64 1131 Q1059.21 1131.77 1056.43 1133.32 L1056.43 1128.59 Q1059.26 1127.46 1061.71 1126.88 Q1064.16 1126.3 1066.2 1126.3 Q1071.57 1126.3 1074.77 1128.99 Q1077.96 1131.67 1077.96 1136.16 Q1077.96 1138.29 1077.15 1140.21 Q1076.36 1142.11 1074.26 1144.71 Q1073.68 1145.38 1070.58 1148.59 Q1067.47 1151.79 1061.83 1157.55 Z" fill="#000000" fill-rule="nonzero" fill-opacity="1" /><path clip-path="url(#clip410)" d="M1097.96 1130.01 Q1094.35 1130.01 1092.52 1133.57 Q1090.72 1137.11 1090.72 1144.24 Q1090.72 1151.35 1092.52 1154.91 Q1094.35 1158.46 1097.96 1158.46 Q1101.59 1158.46 1103.4 1154.91 Q1105.23 1151.35 1105.23 1144.24 Q1105.23 1137.11 1103.4 1133.57 Q1101.59 1130.01 1097.96 1130.01 M1097.96 1126.3 Q1103.77 1126.3 1106.83 1130.91 Q1109.9 1135.49 1109.9 1144.24 Q1109.9 1152.97 1106.83 1157.58 Q1103.77 1162.16 1097.96 1162.16 Q1092.15 1162.16 1089.07 1157.58 Q1086.02 1152.97 1086.02 1144.24 Q1086.02 1135.49 1089.07 1130.91 Q1092.15 1126.3 1097.96 1126.3 Z" fill="#000000" fill-rule="nonzero" fill-opacity="1" /><polyline clip-path="url(#clip410)" style="stroke:#000000; stroke-linecap:round; stroke-linejoin:round; stroke-width:4; stroke-opacity:1; fill:none" points="216.436,1099.09 216.436,92.1521 "/>
<polyline clip-path="url(#clip410)" style="stroke:#000000; stroke-linecap:round; stroke-linejoin:round; stroke-width:4; stroke-opacity:1; fill:none" points="216.436,867.651 235.334,867.651 "/>
<polyline clip-path="url(#clip410)" style="stroke:#000000; stroke-linecap:round; stroke-linejoin:round; stroke-width:4; stroke-opacity:1; fill:none" points="216.436,618.65 235.334,618.65 "/>
<polyline clip-path="url(#clip410)" style="stroke:#000000; stroke-linecap:round; stroke-linejoin:round; stroke-width:4; stroke-opacity:1; fill:none" points="216.436,369.65 235.334,369.65 "/>
<polyline clip-path="url(#clip410)" style="stroke:#000000; stroke-linecap:round; stroke-linejoin:round; stroke-width:4; stroke-opacity:1; fill:none" points="216.436,120.65 235.334,120.65 "/>
<path clip-path="url(#clip410)" d="M63.9319 853.449 Q60.3208 853.449 58.4921 857.014 Q56.6865 860.556 56.6865 867.685 Q56.6865 874.792 58.4921 878.357 Q60.3208 881.898 63.9319 881.898 Q67.5661 881.898 69.3717 878.357 Q71.2004 874.792 71.2004 867.685 Q71.2004 860.556 69.3717 857.014 Q67.5661 853.449 63.9319 853.449 M63.9319 849.746 Q69.742 849.746 72.7976 854.352 Q75.8763 858.935 75.8763 867.685 Q75.8763 876.412 72.7976 881.019 Q69.742 885.602 63.9319 885.602 Q58.1217 885.602 55.043 881.019 Q51.9875 876.412 51.9875 867.685 Q51.9875 858.935 55.043 854.352 Q58.1217 849.746 63.9319 849.746 Z" fill="#000000" fill-rule="nonzero" fill-opacity="1" /><path clip-path="url(#clip410)" d="M84.0938 879.051 L88.978 879.051 L88.978 884.931 L84.0938 884.931 L84.0938 879.051 Z" fill="#000000" fill-rule="nonzero" fill-opacity="1" /><path clip-path="url(#clip410)" d="M109.163 853.449 Q105.552 853.449 103.723 857.014 Q101.918 860.556 101.918 867.685 Q101.918 874.792 103.723 878.357 Q105.552 881.898 109.163 881.898 Q112.797 881.898 114.603 878.357 Q116.432 874.792 116.432 867.685 Q116.432 860.556 114.603 857.014 Q112.797 853.449 109.163 853.449 M109.163 849.746 Q114.973 849.746 118.029 854.352 Q121.107 858.935 121.107 867.685 Q121.107 876.412 118.029 881.019 Q114.973 885.602 109.163 885.602 Q103.353 885.602 100.274 881.019 Q97.2187 876.412 97.2187 867.685 Q97.2187 858.935 100.274 854.352 Q103.353 849.746 109.163 849.746 Z" fill="#000000" fill-rule="nonzero" fill-opacity="1" /><path clip-path="url(#clip410)" d="M139.325 853.449 Q135.714 853.449 133.885 857.014 Q132.08 860.556 132.08 867.685 Q132.08 874.792 133.885 878.357 Q135.714 881.898 139.325 881.898 Q142.959 881.898 144.765 878.357 Q146.593 874.792 146.593 867.685 Q146.593 860.556 144.765 857.014 Q142.959 853.449 139.325 853.449 M139.325 849.746 Q145.135 849.746 148.191 854.352 Q151.269 858.935 151.269 867.685 Q151.269 876.412 148.191 881.019 Q145.135 885.602 139.325 885.602 Q133.515 885.602 130.436 881.019 Q127.381 876.412 127.381 867.685 Q127.381 858.935 130.436 854.352 Q133.515 849.746 139.325 849.746 Z" fill="#000000" fill-rule="nonzero" fill-opacity="1" /><path clip-path="url(#clip410)" d="M159.533 850.371 L177.89 850.371 L177.89 854.306 L163.816 854.306 L163.816 862.778 Q164.834 862.431 165.853 862.269 Q166.871 862.083 167.89 862.083 Q173.677 862.083 177.056 865.255 Q180.436 868.426 180.436 873.843 Q180.436 879.421 176.964 882.523 Q173.491 885.602 167.172 885.602 Q164.996 885.602 162.728 885.231 Q160.482 884.861 158.075 884.12 L158.075 879.421 Q160.158 880.556 162.38 881.111 Q164.603 881.667 167.079 881.667 Q171.084 881.667 173.422 879.56 Q175.76 877.454 175.76 873.843 Q175.76 870.232 173.422 868.125 Q171.084 866.019 167.079 866.019 Q165.204 866.019 163.329 866.435 Q161.478 866.852 159.533 867.732 L159.533 850.371 Z" fill="#000000" fill-rule="nonzero" fill-opacity="1" /><path clip-path="url(#clip410)" d="M62.9365 604.449 Q59.3254 604.449 57.4967 608.014 Q55.6912 611.556 55.6912 618.685 Q55.6912 625.792 57.4967 629.356 Q59.3254 632.898 62.9365 632.898 Q66.5707 632.898 68.3763 629.356 Q70.205 625.792 70.205 618.685 Q70.205 611.556 68.3763 608.014 Q66.5707 604.449 62.9365 604.449 M62.9365 600.745 Q68.7467 600.745 71.8022 605.352 Q74.8809 609.935 74.8809 618.685 Q74.8809 627.412 71.8022 632.018 Q68.7467 636.602 62.9365 636.602 Q57.1264 636.602 54.0477 632.018 Q50.9921 627.412 50.9921 618.685 Q50.9921 609.935 54.0477 605.352 Q57.1264 600.745 62.9365 600.745 Z" fill="#000000" fill-rule="nonzero" fill-opacity="1" /><path clip-path="url(#clip410)" d="M83.0984 630.051 L87.9827 630.051 L87.9827 635.93 L83.0984 635.93 L83.0984 630.051 Z" fill="#000000" fill-rule="nonzero" fill-opacity="1" /><path clip-path="url(#clip410)" d="M108.168 604.449 Q104.557 604.449 102.728 608.014 Q100.922 611.556 100.922 618.685 Q100.922 625.792 102.728 629.356 Q104.557 632.898 108.168 632.898 Q111.802 632.898 113.608 629.356 Q115.436 625.792 115.436 618.685 Q115.436 611.556 113.608 608.014 Q111.802 604.449 108.168 604.449 M108.168 600.745 Q113.978 600.745 117.033 605.352 Q120.112 609.935 120.112 618.685 Q120.112 627.412 117.033 632.018 Q113.978 636.602 108.168 636.602 Q102.358 636.602 99.2789 632.018 Q96.2234 627.412 96.2234 618.685 Q96.2234 609.935 99.2789 605.352 Q102.358 600.745 108.168 600.745 Z" fill="#000000" fill-rule="nonzero" fill-opacity="1" /><path clip-path="url(#clip410)" d="M129.14 631.995 L136.779 631.995 L136.779 605.63 L128.469 607.296 L128.469 603.037 L136.732 601.37 L141.408 601.37 L141.408 631.995 L149.047 631.995 L149.047 635.93 L129.14 635.93 L129.14 631.995 Z" fill="#000000" fill-rule="nonzero" fill-opacity="1" /><path clip-path="url(#clip410)" d="M168.491 604.449 Q164.88 604.449 163.052 608.014 Q161.246 611.556 161.246 618.685 Q161.246 625.792 163.052 629.356 Q164.88 632.898 168.491 632.898 Q172.126 632.898 173.931 629.356 Q175.76 625.792 175.76 618.685 Q175.76 611.556 173.931 608.014 Q172.126 604.449 168.491 604.449 M168.491 600.745 Q174.302 600.745 177.357 605.352 Q180.436 609.935 180.436 618.685 Q180.436 627.412 177.357 632.018 Q174.302 636.602 168.491 636.602 Q162.681 636.602 159.603 632.018 Q156.547 627.412 156.547 618.685 Q156.547 609.935 159.603 605.352 Q162.681 600.745 168.491 600.745 Z" fill="#000000" fill-rule="nonzero" fill-opacity="1" /><path clip-path="url(#clip410)" d="M63.9319 355.449 Q60.3208 355.449 58.4921 359.014 Q56.6865 362.556 56.6865 369.685 Q56.6865 376.792 58.4921 380.356 Q60.3208 383.898 63.9319 383.898 Q67.5661 383.898 69.3717 380.356 Q71.2004 376.792 71.2004 369.685 Q71.2004 362.556 69.3717 359.014 Q67.5661 355.449 63.9319 355.449 M63.9319 351.745 Q69.742 351.745 72.7976 356.352 Q75.8763 360.935 75.8763 369.685 Q75.8763 378.412 72.7976 383.018 Q69.742 387.602 63.9319 387.602 Q58.1217 387.602 55.043 383.018 Q51.9875 378.412 51.9875 369.685 Q51.9875 360.935 55.043 356.352 Q58.1217 351.745 63.9319 351.745 Z" fill="#000000" fill-rule="nonzero" fill-opacity="1" /><path clip-path="url(#clip410)" d="M84.0938 381.051 L88.978 381.051 L88.978 386.93 L84.0938 386.93 L84.0938 381.051 Z" fill="#000000" fill-rule="nonzero" fill-opacity="1" /><path clip-path="url(#clip410)" d="M109.163 355.449 Q105.552 355.449 103.723 359.014 Q101.918 362.556 101.918 369.685 Q101.918 376.792 103.723 380.356 Q105.552 383.898 109.163 383.898 Q112.797 383.898 114.603 380.356 Q116.432 376.792 116.432 369.685 Q116.432 362.556 114.603 359.014 Q112.797 355.449 109.163 355.449 M109.163 351.745 Q114.973 351.745 118.029 356.352 Q121.107 360.935 121.107 369.685 Q121.107 378.412 118.029 383.018 Q114.973 387.602 109.163 387.602 Q103.353 387.602 100.274 383.018 Q97.2187 378.412 97.2187 369.685 Q97.2187 360.935 100.274 356.352 Q103.353 351.745 109.163 351.745 Z" fill="#000000" fill-rule="nonzero" fill-opacity="1" /><path clip-path="url(#clip410)" d="M130.135 382.995 L137.774 382.995 L137.774 356.63 L129.464 358.296 L129.464 354.037 L137.728 352.37 L142.404 352.37 L142.404 382.995 L150.043 382.995 L150.043 386.93 L130.135 386.93 L130.135 382.995 Z" fill="#000000" fill-rule="nonzero" fill-opacity="1" /><path clip-path="url(#clip410)" d="M159.533 352.37 L177.89 352.37 L177.89 356.306 L163.816 356.306 L163.816 364.778 Q164.834 364.431 165.853 364.268 Q166.871 364.083 167.89 364.083 Q173.677 364.083 177.056 367.255 Q180.436 370.426 180.436 375.842 Q180.436 381.421 176.964 384.523 Q173.491 387.602 167.172 387.602 Q164.996 387.602 162.728 387.231 Q160.482 386.861 158.075 386.12 L158.075 381.421 Q160.158 382.555 162.38 383.111 Q164.603 383.667 167.079 383.667 Q171.084 383.667 173.422 381.56 Q175.76 379.454 175.76 375.842 Q175.76 372.231 173.422 370.125 Q171.084 368.018 167.079 368.018 Q165.204 368.018 163.329 368.435 Q161.478 368.852 159.533 369.731 L159.533 352.37 Z" fill="#000000" fill-rule="nonzero" fill-opacity="1" /><path clip-path="url(#clip410)" d="M62.9365 106.449 Q59.3254 106.449 57.4967 110.014 Q55.6912 113.555 55.6912 120.685 Q55.6912 127.791 57.4967 131.356 Q59.3254 134.898 62.9365 134.898 Q66.5707 134.898 68.3763 131.356 Q70.205 127.791 70.205 120.685 Q70.205 113.555 68.3763 110.014 Q66.5707 106.449 62.9365 106.449 M62.9365 102.745 Q68.7467 102.745 71.8022 107.352 Q74.8809 111.935 74.8809 120.685 Q74.8809 129.412 71.8022 134.018 Q68.7467 138.602 62.9365 138.602 Q57.1264 138.602 54.0477 134.018 Q50.9921 129.412 50.9921 120.685 Q50.9921 111.935 54.0477 107.352 Q57.1264 102.745 62.9365 102.745 Z" fill="#000000" fill-rule="nonzero" fill-opacity="1" /><path clip-path="url(#clip410)" d="M83.0984 132.051 L87.9827 132.051 L87.9827 137.93 L83.0984 137.93 L83.0984 132.051 Z" fill="#000000" fill-rule="nonzero" fill-opacity="1" /><path clip-path="url(#clip410)" d="M108.168 106.449 Q104.557 106.449 102.728 110.014 Q100.922 113.555 100.922 120.685 Q100.922 127.791 102.728 131.356 Q104.557 134.898 108.168 134.898 Q111.802 134.898 113.608 131.356 Q115.436 127.791 115.436 120.685 Q115.436 113.555 113.608 110.014 Q111.802 106.449 108.168 106.449 M108.168 102.745 Q113.978 102.745 117.033 107.352 Q120.112 111.935 120.112 120.685 Q120.112 129.412 117.033 134.018 Q113.978 138.602 108.168 138.602 Q102.358 138.602 99.2789 134.018 Q96.2234 129.412 96.2234 120.685 Q96.2234 111.935 99.2789 107.352 Q102.358 102.745 108.168 102.745 Z" fill="#000000" fill-rule="nonzero" fill-opacity="1" /><path clip-path="url(#clip410)" d="M132.357 133.995 L148.677 133.995 L148.677 137.93 L126.732 137.93 L126.732 133.995 Q129.394 131.241 133.978 126.611 Q138.584 121.958 139.765 120.616 Q142.01 118.092 142.89 116.356 Q143.793 114.597 143.793 112.907 Q143.793 110.153 141.848 108.417 Q139.927 106.68 136.825 106.68 Q134.626 106.68 132.172 107.444 Q129.742 108.208 126.964 109.759 L126.964 105.037 Q129.788 103.903 132.242 103.324 Q134.695 102.745 136.732 102.745 Q142.103 102.745 145.297 105.43 Q148.492 108.116 148.492 112.606 Q148.492 114.736 147.681 116.657 Q146.894 118.555 144.788 121.148 Q144.209 121.819 141.107 125.037 Q138.006 128.231 132.357 133.995 Z" fill="#000000" fill-rule="nonzero" fill-opacity="1" /><path clip-path="url(#clip410)" d="M168.491 106.449 Q164.88 106.449 163.052 110.014 Q161.246 113.555 161.246 120.685 Q161.246 127.791 163.052 131.356 Q164.88 134.898 168.491 134.898 Q172.126 134.898 173.931 131.356 Q175.76 127.791 175.76 120.685 Q175.76 113.555 173.931 110.014 Q172.126 106.449 168.491 106.449 M168.491 102.745 Q174.302 102.745 177.357 107.352 Q180.436 111.935 180.436 120.685 Q180.436 129.412 177.357 134.018 Q174.302 138.602 168.491 138.602 Q162.681 138.602 159.603 134.018 Q156.547 129.412 156.547 120.685 Q156.547 111.935 159.603 107.352 Q162.681 102.745 168.491 102.745 Z" fill="#000000" fill-rule="nonzero" fill-opacity="1" /><path clip-path="url(#clip410)" d="M617.734 30.8748 L617.734 33.2186 L595.703 33.2186 Q596.016 38.1665 598.672 40.7706 Q601.354 43.3487 606.12 43.3487 Q608.88 43.3487 611.458 42.6716 Q614.062 41.9946 616.614 40.6404 L616.614 45.1716 Q614.036 46.2654 611.328 46.8383 Q608.62 47.4112 605.833 47.4112 Q598.854 47.4112 594.766 43.3487 Q590.703 39.2862 590.703 32.3592 Q590.703 25.1978 594.557 21.0051 Q598.437 16.7864 605 16.7864 Q610.885 16.7864 614.297 20.5884 Q617.734 24.3645 617.734 30.8748 M612.943 29.4686 Q612.891 25.5363 610.729 23.1926 Q608.594 20.8488 605.052 20.8488 Q601.042 20.8488 598.62 23.1145 Q596.224 25.3801 595.859 29.4946 L612.943 29.4686 Z" fill="#000000" fill-rule="nonzero" fill-opacity="1" /><path clip-path="url(#clip410)" d="M625.104 35.1456 L625.104 17.4895 L629.896 17.4895 L629.896 34.9634 Q629.896 39.104 631.51 41.1873 Q633.125 43.2446 636.354 43.2446 Q640.234 43.2446 642.474 40.7706 Q644.739 38.2967 644.739 34.0259 L644.739 17.4895 L649.531 17.4895 L649.531 46.656 L644.739 46.656 L644.739 42.1769 Q642.995 44.8331 640.677 46.1352 Q638.385 47.4112 635.338 47.4112 Q630.312 47.4112 627.708 44.2862 Q625.104 41.1612 625.104 35.1456 M637.161 16.7864 L637.161 16.7864 Z" fill="#000000" fill-rule="nonzero" fill-opacity="1" /><path clip-path="url(#clip410)" d="M676.302 21.9686 Q675.494 21.4999 674.531 21.2916 Q673.593 21.0572 672.448 21.0572 Q668.385 21.0572 666.198 23.7134 Q664.036 26.3436 664.036 31.2915 L664.036 46.656 L659.218 46.656 L659.218 17.4895 L664.036 17.4895 L664.036 22.0207 Q665.547 19.3645 667.968 18.0884 Q670.39 16.7864 673.854 16.7864 Q674.349 16.7864 674.948 16.8645 Q675.546 16.9166 676.276 17.0468 L676.302 21.9686 Z" fill="#000000" fill-rule="nonzero" fill-opacity="1" /><path clip-path="url(#clip410)" d="M681.328 17.4895 L686.119 17.4895 L686.119 46.656 L681.328 46.656 L681.328 17.4895 M681.328 6.13538 L686.119 6.13538 L686.119 12.2031 L681.328 12.2031 L681.328 6.13538 Z" fill="#000000" fill-rule="nonzero" fill-opacity="1" /><path clip-path="url(#clip410)" d="M717.083 32.0988 Q717.083 26.8124 714.895 23.8176 Q712.734 20.7968 708.932 20.7968 Q705.13 20.7968 702.942 23.8176 Q700.781 26.8124 700.781 32.0988 Q700.781 37.3852 702.942 40.406 Q705.13 43.4008 708.932 43.4008 Q712.734 43.4008 714.895 40.406 Q717.083 37.3852 717.083 32.0988 M700.781 21.9165 Q702.291 19.3124 704.583 18.0624 Q706.9 16.7864 710.104 16.7864 Q715.416 16.7864 718.723 21.0051 Q722.057 25.2238 722.057 32.0988 Q722.057 38.9737 718.723 43.1925 Q715.416 47.4112 710.104 47.4112 Q706.9 47.4112 704.583 46.1612 Q702.291 44.8852 700.781 42.281 L700.781 46.656 L695.963 46.656 L695.963 6.13538 L700.781 6.13538 L700.781 21.9165 Z" fill="#000000" fill-rule="nonzero" fill-opacity="1" /><path clip-path="url(#clip410)" d="M741.301 20.8488 Q737.447 20.8488 735.208 23.8697 Q732.968 26.8644 732.968 32.0988 Q732.968 37.3331 735.182 40.354 Q737.421 43.3487 741.301 43.3487 Q745.129 43.3487 747.369 40.3279 Q749.609 37.3071 749.609 32.0988 Q749.609 26.9165 747.369 23.8957 Q745.129 20.8488 741.301 20.8488 M741.301 16.7864 Q747.551 16.7864 751.119 20.8488 Q754.687 24.9113 754.687 32.0988 Q754.687 39.2602 751.119 43.3487 Q747.551 47.4112 741.301 47.4112 Q735.025 47.4112 731.458 43.3487 Q727.916 39.2602 727.916 32.0988 Q727.916 24.9113 731.458 20.8488 Q735.025 16.7864 741.301 16.7864 Z" fill="#000000" fill-rule="nonzero" fill-opacity="1" /><path clip-path="url(#clip410)" d="M779.53 21.9686 Q778.723 21.4999 777.759 21.2916 Q776.822 21.0572 775.676 21.0572 Q771.614 21.0572 769.426 23.7134 Q767.265 26.3436 767.265 31.2915 L767.265 46.656 L762.447 46.656 L762.447 17.4895 L767.265 17.4895 L767.265 22.0207 Q768.775 19.3645 771.197 18.0884 Q773.619 16.7864 777.082 16.7864 Q777.577 16.7864 778.176 16.8645 Q778.775 16.9166 779.504 17.0468 L779.53 21.9686 Z" fill="#000000" fill-rule="nonzero" fill-opacity="1" /><path clip-path="url(#clip412)" d="M242.965 1034.68 L287.18 1007.95 L331.395 1008.48 L375.611 1014.76 L419.826 1005.2 L464.041 996.695 L508.256 1031.28 L552.471 1009.29 L596.686 1024.16 L640.902 1053.81 L685.117 1018.25 L729.332 988.794 L773.547 1014.32 L817.762 1051.87 L861.977 1028.03 L906.193 1048.42 L950.408 1037.13 L994.623 1039.73 L1038.84 1068.34 L1083.05 1045.44 L1127.27 1070.59 L1127.27 930.855 L1083.05 959.859 L1038.84 953.009 L994.623 962.565 L950.408 983.546 L906.193 984.127 L861.977 1000.03 L817.762 963.396 L773.547 952.372 L729.332 943.536 L685.117 962.88 L640.902 945.66 L596.686 966.053 L552.471 944.45 L508.256 952.57 L464.041 973.26 L419.826 981.996 L375.611 980.804 L331.395 966.407 L287.18 976.023 L242.965 1034.68  Z" fill="#009af9" fill-rule="evenodd" fill-opacity="0.1"/>
<polyline clip-path="url(#clip412)" style="stroke:#009af9; stroke-linecap:round; stroke-linejoin:round; stroke-width:4; stroke-opacity:1; fill:none" points="242.965,1034.68 287.18,991.987 331.395,987.444 375.611,997.784 419.826,993.595 464.041,984.978 508.256,991.928 552.471,976.868 596.686,995.108 640.902,999.737 685.117,990.568 729.332,966.165 773.547,983.344 817.762,1007.63 861.977,1014.03 906.193,1016.27 950.408,1010.34 994.623,1001.15 1038.84,1010.68 1083.05,1002.65 1127.27,1000.72 "/>
<path clip-path="url(#clip412)" d="M242.965 1034.68 L287.18 120.65 L331.395 120.65 L375.611 120.65 L419.826 120.65 L464.041 120.65 L508.256 120.65 L552.471 120.65 L596.686 120.65 L640.902 120.65 L685.117 120.65 L729.332 120.65 L773.547 120.65 L817.762 120.65 L861.977 120.65 L906.193 120.65 L950.408 120.65 L994.623 120.65 L1038.84 120.65 L1083.05 120.65 L1127.27 120.65 L1127.27 120.65 L1083.05 120.65 L1038.84 120.65 L994.623 120.65 L950.408 120.65 L906.193 120.65 L861.977 120.65 L817.762 120.65 L773.547 120.65 L729.332 120.65 L685.117 120.65 L640.902 120.65 L596.686 120.65 L552.471 120.65 L508.256 120.65 L464.041 120.65 L419.826 120.65 L375.611 120.65 L331.395 120.65 L287.18 120.65 L242.965 1034.68  Z" fill="#e26f46" fill-rule="evenodd" fill-opacity="0.1"/>
<polyline clip-path="url(#clip412)" style="stroke:#e26f46; stroke-linecap:round; stroke-linejoin:round; stroke-width:4; stroke-opacity:1; fill:none" points="242.965,1034.68 287.18,120.65 331.395,120.65 375.611,120.65 419.826,120.65 464.041,120.65 508.256,120.65 552.471,120.65 596.686,120.65 640.902,120.65 685.117,120.65 729.332,120.65 773.547,120.65 817.762,120.65 861.977,120.65 906.193,120.65 950.408,120.65 994.623,120.65 1038.84,120.65 1083.05,120.65 1127.27,120.65 "/>
<path clip-path="url(#clip410)" d="M1415.39 1099.09 L2352.76 1099.09 L2352.76 92.1521 L1415.39 92.1521  Z" fill="#ffffff" fill-rule="evenodd" fill-opacity="1"/>
<defs>
  <clipPath id="clip413">
    <rect x="1415" y="92" width="938" height="1008"/>
  </clipPath>
</defs>
<polyline clip-path="url(#clip413)" style="stroke:#000000; stroke-linecap:round; stroke-linejoin:round; stroke-width:2; stroke-opacity:0.1; fill:none" points="1618.78,1099.09 1618.78,92.1521 "/>
<polyline clip-path="url(#clip413)" style="stroke:#000000; stroke-linecap:round; stroke-linejoin:round; stroke-width:2; stroke-opacity:0.1; fill:none" points="1839.86,1099.09 1839.86,92.1521 "/>
<polyline clip-path="url(#clip413)" style="stroke:#000000; stroke-linecap:round; stroke-linejoin:round; stroke-width:2; stroke-opacity:0.1; fill:none" points="2060.94,1099.09 2060.94,92.1521 "/>
<polyline clip-path="url(#clip413)" style="stroke:#000000; stroke-linecap:round; stroke-linejoin:round; stroke-width:2; stroke-opacity:0.1; fill:none" points="2282.01,1099.09 2282.01,92.1521 "/>
<polyline clip-path="url(#clip413)" style="stroke:#000000; stroke-linecap:round; stroke-linejoin:round; stroke-width:2; stroke-opacity:0.1; fill:none" points="1415.39,1012.44 2352.76,1012.44 "/>
<polyline clip-path="url(#clip413)" style="stroke:#000000; stroke-linecap:round; stroke-linejoin:round; stroke-width:2; stroke-opacity:0.1; fill:none" points="1415.39,820.18 2352.76,820.18 "/>
<polyline clip-path="url(#clip413)" style="stroke:#000000; stroke-linecap:round; stroke-linejoin:round; stroke-width:2; stroke-opacity:0.1; fill:none" points="1415.39,627.919 2352.76,627.919 "/>
<polyline clip-path="url(#clip413)" style="stroke:#000000; stroke-linecap:round; stroke-linejoin:round; stroke-width:2; stroke-opacity:0.1; fill:none" points="1415.39,435.657 2352.76,435.657 "/>
<polyline clip-path="url(#clip413)" style="stroke:#000000; stroke-linecap:round; stroke-linejoin:round; stroke-width:2; stroke-opacity:0.1; fill:none" points="1415.39,243.396 2352.76,243.396 "/>
<polyline clip-path="url(#clip410)" style="stroke:#000000; stroke-linecap:round; stroke-linejoin:round; stroke-width:4; stroke-opacity:1; fill:none" points="1415.39,1099.09 2352.76,1099.09 "/>
<polyline clip-path="url(#clip410)" style="stroke:#000000; stroke-linecap:round; stroke-linejoin:round; stroke-width:4; stroke-opacity:1; fill:none" points="1618.78,1099.09 1618.78,1080.19 "/>
<polyline clip-path="url(#clip410)" style="stroke:#000000; stroke-linecap:round; stroke-linejoin:round; stroke-width:4; stroke-opacity:1; fill:none" points="1839.86,1099.09 1839.86,1080.19 "/>
<polyline clip-path="url(#clip410)" style="stroke:#000000; stroke-linecap:round; stroke-linejoin:round; stroke-width:4; stroke-opacity:1; fill:none" points="2060.94,1099.09 2060.94,1080.19 "/>
<polyline clip-path="url(#clip410)" style="stroke:#000000; stroke-linecap:round; stroke-linejoin:round; stroke-width:4; stroke-opacity:1; fill:none" points="2282.01,1099.09 2282.01,1080.19 "/>
<path clip-path="url(#clip410)" d="M1609.06 1126.93 L1627.42 1126.93 L1627.42 1130.86 L1613.34 1130.86 L1613.34 1139.34 Q1614.36 1138.99 1615.38 1138.83 Q1616.4 1138.64 1617.42 1138.64 Q1623.21 1138.64 1626.58 1141.81 Q1629.96 1144.98 1629.96 1150.4 Q1629.96 1155.98 1626.49 1159.08 Q1623.02 1162.16 1616.7 1162.16 Q1614.52 1162.16 1612.26 1161.79 Q1610.01 1161.42 1607.6 1160.68 L1607.6 1155.98 Q1609.69 1157.11 1611.91 1157.67 Q1614.13 1158.22 1616.61 1158.22 Q1620.61 1158.22 1622.95 1156.12 Q1625.29 1154.01 1625.29 1150.4 Q1625.29 1146.79 1622.95 1144.68 Q1620.61 1142.58 1616.61 1142.58 Q1614.73 1142.58 1612.86 1142.99 Q1611.01 1143.41 1609.06 1144.29 L1609.06 1126.93 Z" fill="#000000" fill-rule="nonzero" fill-opacity="1" /><path clip-path="url(#clip410)" d="M1814.55 1157.55 L1822.19 1157.55 L1822.19 1131.19 L1813.88 1132.85 L1813.88 1128.59 L1822.14 1126.93 L1826.82 1126.93 L1826.82 1157.55 L1834.45 1157.55 L1834.45 1161.49 L1814.55 1161.49 L1814.55 1157.55 Z" fill="#000000" fill-rule="nonzero" fill-opacity="1" /><path clip-path="url(#clip410)" d="M1853.9 1130.01 Q1850.29 1130.01 1848.46 1133.57 Q1846.65 1137.11 1846.65 1144.24 Q1846.65 1151.35 1848.46 1154.91 Q1850.29 1158.46 1853.9 1158.46 Q1857.53 1158.46 1859.34 1154.91 Q1861.17 1151.35 1861.17 1144.24 Q1861.17 1137.11 1859.34 1133.57 Q1857.53 1130.01 1853.9 1130.01 M1853.9 1126.3 Q1859.71 1126.3 1862.76 1130.91 Q1865.84 1135.49 1865.84 1144.24 Q1865.84 1152.97 1862.76 1157.58 Q1859.71 1162.16 1853.9 1162.16 Q1848.09 1162.16 1845.01 1157.58 Q1841.95 1152.97 1841.95 1144.24 Q1841.95 1135.49 1845.01 1130.91 Q1848.09 1126.3 1853.9 1126.3 Z" fill="#000000" fill-rule="nonzero" fill-opacity="1" /><path clip-path="url(#clip410)" d="M2036.12 1157.55 L2043.76 1157.55 L2043.76 1131.19 L2035.45 1132.85 L2035.45 1128.59 L2043.71 1126.93 L2048.39 1126.93 L2048.39 1157.55 L2056.03 1157.55 L2056.03 1161.49 L2036.12 1161.49 L2036.12 1157.55 Z" fill="#000000" fill-rule="nonzero" fill-opacity="1" /><path clip-path="url(#clip410)" d="M2065.52 1126.93 L2083.88 1126.93 L2083.88 1130.86 L2069.8 1130.86 L2069.8 1139.34 Q2070.82 1138.99 2071.84 1138.83 Q2072.86 1138.64 2073.88 1138.64 Q2079.66 1138.64 2083.04 1141.81 Q2086.42 1144.98 2086.42 1150.4 Q2086.42 1155.98 2082.95 1159.08 Q2079.48 1162.16 2073.16 1162.16 Q2070.98 1162.16 2068.71 1161.79 Q2066.47 1161.42 2064.06 1160.68 L2064.06 1155.98 Q2066.14 1157.11 2068.37 1157.67 Q2070.59 1158.22 2073.07 1158.22 Q2077.07 1158.22 2079.41 1156.12 Q2081.75 1154.01 2081.75 1150.4 Q2081.75 1146.79 2079.41 1144.68 Q2077.07 1142.58 2073.07 1142.58 Q2071.19 1142.58 2069.32 1142.99 Q2067.46 1143.41 2065.52 1144.29 L2065.52 1126.93 Z" fill="#000000" fill-rule="nonzero" fill-opacity="1" /><path clip-path="url(#clip410)" d="M2260.78 1157.55 L2277.1 1157.55 L2277.1 1161.49 L2255.16 1161.49 L2255.16 1157.55 Q2257.82 1154.8 2262.41 1150.17 Q2267.01 1145.52 2268.19 1144.17 Q2270.44 1141.65 2271.32 1139.91 Q2272.22 1138.15 2272.22 1136.46 Q2272.22 1133.71 2270.28 1131.97 Q2268.35 1130.24 2265.25 1130.24 Q2263.05 1130.24 2260.6 1131 Q2258.17 1131.77 2255.39 1133.32 L2255.39 1128.59 Q2258.22 1127.46 2260.67 1126.88 Q2263.12 1126.3 2265.16 1126.3 Q2270.53 1126.3 2273.72 1128.99 Q2276.92 1131.67 2276.92 1136.16 Q2276.92 1138.29 2276.11 1140.21 Q2275.32 1142.11 2273.22 1144.71 Q2272.64 1145.38 2269.53 1148.59 Q2266.43 1151.79 2260.78 1157.55 Z" fill="#000000" fill-rule="nonzero" fill-opacity="1" /><path clip-path="url(#clip410)" d="M2296.92 1130.01 Q2293.31 1130.01 2291.48 1133.57 Q2289.67 1137.11 2289.67 1144.24 Q2289.67 1151.35 2291.48 1154.91 Q2293.31 1158.46 2296.92 1158.46 Q2300.55 1158.46 2302.36 1154.91 Q2304.19 1151.35 2304.19 1144.24 Q2304.19 1137.11 2302.36 1133.57 Q2300.55 1130.01 2296.92 1130.01 M2296.92 1126.3 Q2302.73 1126.3 2305.78 1130.91 Q2308.86 1135.49 2308.86 1144.24 Q2308.86 1152.97 2305.78 1157.58 Q2302.73 1162.16 2296.92 1162.16 Q2291.11 1162.16 2288.03 1157.58 Q2284.97 1152.97 2284.97 1144.24 Q2284.97 1135.49 2288.03 1130.91 Q2291.11 1126.3 2296.92 1126.3 Z" fill="#000000" fill-rule="nonzero" fill-opacity="1" /><polyline clip-path="url(#clip410)" style="stroke:#000000; stroke-linecap:round; stroke-linejoin:round; stroke-width:4; stroke-opacity:1; fill:none" points="1415.39,1099.09 1415.39,92.1521 "/>
<polyline clip-path="url(#clip410)" style="stroke:#000000; stroke-linecap:round; stroke-linejoin:round; stroke-width:4; stroke-opacity:1; fill:none" points="1415.39,1012.44 1434.29,1012.44 "/>
<polyline clip-path="url(#clip410)" style="stroke:#000000; stroke-linecap:round; stroke-linejoin:round; stroke-width:4; stroke-opacity:1; fill:none" points="1415.39,820.18 1434.29,820.18 "/>
<polyline clip-path="url(#clip410)" style="stroke:#000000; stroke-linecap:round; stroke-linejoin:round; stroke-width:4; stroke-opacity:1; fill:none" points="1415.39,627.919 1434.29,627.919 "/>
<polyline clip-path="url(#clip410)" style="stroke:#000000; stroke-linecap:round; stroke-linejoin:round; stroke-width:4; stroke-opacity:1; fill:none" points="1415.39,435.657 1434.29,435.657 "/>
<polyline clip-path="url(#clip410)" style="stroke:#000000; stroke-linecap:round; stroke-linejoin:round; stroke-width:4; stroke-opacity:1; fill:none" points="1415.39,243.396 1434.29,243.396 "/>
<path clip-path="url(#clip410)" d="M1252.71 1025.79 L1260.34 1025.79 L1260.34 999.42 L1252.03 1001.09 L1252.03 996.827 L1260.3 995.161 L1264.97 995.161 L1264.97 1025.79 L1272.61 1025.79 L1272.61 1029.72 L1252.71 1029.72 L1252.71 1025.79 Z" fill="#000000" fill-rule="nonzero" fill-opacity="1" /><path clip-path="url(#clip410)" d="M1282.06 1023.84 L1286.94 1023.84 L1286.94 1029.72 L1282.06 1029.72 L1282.06 1023.84 Z" fill="#000000" fill-rule="nonzero" fill-opacity="1" /><path clip-path="url(#clip410)" d="M1307.13 998.239 Q1303.51 998.239 1301.69 1001.8 Q1299.88 1005.35 1299.88 1012.48 Q1299.88 1019.58 1301.69 1023.15 Q1303.51 1026.69 1307.13 1026.69 Q1310.76 1026.69 1312.57 1023.15 Q1314.39 1019.58 1314.39 1012.48 Q1314.39 1005.35 1312.57 1001.8 Q1310.76 998.239 1307.13 998.239 M1307.13 994.536 Q1312.94 994.536 1315.99 999.142 Q1319.07 1003.73 1319.07 1012.48 Q1319.07 1021.2 1315.99 1025.81 Q1312.94 1030.39 1307.13 1030.39 Q1301.32 1030.39 1298.24 1025.81 Q1295.18 1021.2 1295.18 1012.48 Q1295.18 1003.73 1298.24 999.142 Q1301.32 994.536 1307.13 994.536 Z" fill="#000000" fill-rule="nonzero" fill-opacity="1" /><path clip-path="url(#clip410)" d="M1337.29 998.239 Q1333.68 998.239 1331.85 1001.8 Q1330.04 1005.35 1330.04 1012.48 Q1330.04 1019.58 1331.85 1023.15 Q1333.68 1026.69 1337.29 1026.69 Q1340.92 1026.69 1342.73 1023.15 Q1344.56 1019.58 1344.56 1012.48 Q1344.56 1005.35 1342.73 1001.8 Q1340.92 998.239 1337.29 998.239 M1337.29 994.536 Q1343.1 994.536 1346.15 999.142 Q1349.23 1003.73 1349.23 1012.48 Q1349.23 1021.2 1346.15 1025.81 Q1343.1 1030.39 1337.29 1030.39 Q1331.48 1030.39 1328.4 1025.81 Q1325.34 1021.2 1325.34 1012.48 Q1325.34 1003.73 1328.4 999.142 Q1331.48 994.536 1337.29 994.536 Z" fill="#000000" fill-rule="nonzero" fill-opacity="1" /><path clip-path="url(#clip410)" d="M1367.45 998.239 Q1363.84 998.239 1362.01 1001.8 Q1360.2 1005.35 1360.2 1012.48 Q1360.2 1019.58 1362.01 1023.15 Q1363.84 1026.69 1367.45 1026.69 Q1371.08 1026.69 1372.89 1023.15 Q1374.72 1019.58 1374.72 1012.48 Q1374.72 1005.35 1372.89 1001.8 Q1371.08 998.239 1367.45 998.239 M1367.45 994.536 Q1373.26 994.536 1376.32 999.142 Q1379.39 1003.73 1379.39 1012.48 Q1379.39 1021.2 1376.32 1025.81 Q1373.26 1030.39 1367.45 1030.39 Q1361.64 1030.39 1358.56 1025.81 Q1355.51 1021.2 1355.51 1012.48 Q1355.51 1003.73 1358.56 999.142 Q1361.64 994.536 1367.45 994.536 Z" fill="#000000" fill-rule="nonzero" fill-opacity="1" /><path clip-path="url(#clip410)" d="M1253.7 833.524 L1261.34 833.524 L1261.34 807.159 L1253.03 808.825 L1253.03 804.566 L1261.29 802.9 L1265.97 802.9 L1265.97 833.524 L1273.61 833.524 L1273.61 837.46 L1253.7 837.46 L1253.7 833.524 Z" fill="#000000" fill-rule="nonzero" fill-opacity="1" /><path clip-path="url(#clip410)" d="M1283.05 831.58 L1287.94 831.58 L1287.94 837.46 L1283.05 837.46 L1283.05 831.58 Z" fill="#000000" fill-rule="nonzero" fill-opacity="1" /><path clip-path="url(#clip410)" d="M1308.12 805.978 Q1304.51 805.978 1302.68 809.543 Q1300.88 813.085 1300.88 820.214 Q1300.88 827.321 1302.68 830.886 Q1304.51 834.427 1308.12 834.427 Q1311.76 834.427 1313.56 830.886 Q1315.39 827.321 1315.39 820.214 Q1315.39 813.085 1313.56 809.543 Q1311.76 805.978 1308.12 805.978 M1308.12 802.275 Q1313.93 802.275 1316.99 806.881 Q1320.07 811.464 1320.07 820.214 Q1320.07 828.941 1316.99 833.548 Q1313.93 838.131 1308.12 838.131 Q1302.31 838.131 1299.23 833.548 Q1296.18 828.941 1296.18 820.214 Q1296.18 811.464 1299.23 806.881 Q1302.31 802.275 1308.12 802.275 Z" fill="#000000" fill-rule="nonzero" fill-opacity="1" /><path clip-path="url(#clip410)" d="M1332.31 833.524 L1348.63 833.524 L1348.63 837.46 L1326.69 837.46 L1326.69 833.524 Q1329.35 830.77 1333.93 826.14 Q1338.54 821.487 1339.72 820.145 Q1341.96 817.622 1342.84 815.886 Q1343.75 814.126 1343.75 812.437 Q1343.75 809.682 1341.8 807.946 Q1339.88 806.21 1336.78 806.21 Q1334.58 806.21 1332.13 806.974 Q1329.7 807.738 1326.92 809.288 L1326.92 804.566 Q1329.74 803.432 1332.2 802.853 Q1334.65 802.275 1336.69 802.275 Q1342.06 802.275 1345.25 804.96 Q1348.45 807.645 1348.45 812.136 Q1348.45 814.265 1347.64 816.187 Q1346.85 818.085 1344.74 820.677 Q1344.16 821.349 1341.06 824.566 Q1337.96 827.761 1332.31 833.524 Z" fill="#000000" fill-rule="nonzero" fill-opacity="1" /><path clip-path="url(#clip410)" d="M1358.49 802.9 L1376.85 802.9 L1376.85 806.835 L1362.77 806.835 L1362.77 815.307 Q1363.79 814.96 1364.81 814.798 Q1365.83 814.612 1366.85 814.612 Q1372.63 814.612 1376.01 817.784 Q1379.39 820.955 1379.39 826.372 Q1379.39 831.95 1375.92 835.052 Q1372.45 838.131 1366.13 838.131 Q1363.95 838.131 1361.69 837.76 Q1359.44 837.39 1357.03 836.649 L1357.03 831.95 Q1359.12 833.085 1361.34 833.64 Q1363.56 834.196 1366.04 834.196 Q1370.04 834.196 1372.38 832.089 Q1374.72 829.983 1374.72 826.372 Q1374.72 822.761 1372.38 820.654 Q1370.04 818.548 1366.04 818.548 Q1364.16 818.548 1362.29 818.964 Q1360.44 819.381 1358.49 820.261 L1358.49 802.9 Z" fill="#000000" fill-rule="nonzero" fill-opacity="1" /><path clip-path="url(#clip410)" d="M1252.71 641.263 L1260.34 641.263 L1260.34 614.898 L1252.03 616.564 L1252.03 612.305 L1260.3 610.639 L1264.97 610.639 L1264.97 641.263 L1272.61 641.263 L1272.61 645.199 L1252.71 645.199 L1252.71 641.263 Z" fill="#000000" fill-rule="nonzero" fill-opacity="1" /><path clip-path="url(#clip410)" d="M1282.06 639.319 L1286.94 639.319 L1286.94 645.199 L1282.06 645.199 L1282.06 639.319 Z" fill="#000000" fill-rule="nonzero" fill-opacity="1" /><path clip-path="url(#clip410)" d="M1307.13 613.717 Q1303.51 613.717 1301.69 617.282 Q1299.88 620.824 1299.88 627.953 Q1299.88 635.06 1301.69 638.624 Q1303.51 642.166 1307.13 642.166 Q1310.76 642.166 1312.57 638.624 Q1314.39 635.06 1314.39 627.953 Q1314.39 620.824 1312.57 617.282 Q1310.76 613.717 1307.13 613.717 M1307.13 610.014 Q1312.94 610.014 1315.99 614.62 Q1319.07 619.203 1319.07 627.953 Q1319.07 636.68 1315.99 641.286 Q1312.94 645.87 1307.13 645.87 Q1301.32 645.87 1298.24 641.286 Q1295.18 636.68 1295.18 627.953 Q1295.18 619.203 1298.24 614.62 Q1301.32 610.014 1307.13 610.014 Z" fill="#000000" fill-rule="nonzero" fill-opacity="1" /><path clip-path="url(#clip410)" d="M1327.33 610.639 L1345.69 610.639 L1345.69 614.574 L1331.62 614.574 L1331.62 623.046 Q1332.64 622.699 1333.65 622.537 Q1334.67 622.351 1335.69 622.351 Q1341.48 622.351 1344.86 625.523 Q1348.24 628.694 1348.24 634.111 Q1348.24 639.689 1344.76 642.791 Q1341.29 645.87 1334.97 645.87 Q1332.8 645.87 1330.53 645.499 Q1328.28 645.129 1325.88 644.388 L1325.88 639.689 Q1327.96 640.824 1330.18 641.379 Q1332.4 641.935 1334.88 641.935 Q1338.89 641.935 1341.22 639.828 Q1343.56 637.722 1343.56 634.111 Q1343.56 630.5 1341.22 628.393 Q1338.89 626.287 1334.88 626.287 Q1333.01 626.287 1331.13 626.703 Q1329.28 627.12 1327.33 628 L1327.33 610.639 Z" fill="#000000" fill-rule="nonzero" fill-opacity="1" /><path clip-path="url(#clip410)" d="M1367.45 613.717 Q1363.84 613.717 1362.01 617.282 Q1360.2 620.824 1360.2 627.953 Q1360.2 635.06 1362.01 638.624 Q1363.84 642.166 1367.45 642.166 Q1371.08 642.166 1372.89 638.624 Q1374.72 635.06 1374.72 627.953 Q1374.72 620.824 1372.89 617.282 Q1371.08 613.717 1367.45 613.717 M1367.45 610.014 Q1373.26 610.014 1376.32 614.62 Q1379.39 619.203 1379.39 627.953 Q1379.39 636.68 1376.32 641.286 Q1373.26 645.87 1367.45 645.87 Q1361.64 645.87 1358.56 641.286 Q1355.51 636.68 1355.51 627.953 Q1355.51 619.203 1358.56 614.62 Q1361.64 610.014 1367.45 610.014 Z" fill="#000000" fill-rule="nonzero" fill-opacity="1" /><path clip-path="url(#clip410)" d="M1253.7 449.002 L1261.34 449.002 L1261.34 422.637 L1253.03 424.303 L1253.03 420.044 L1261.29 418.377 L1265.97 418.377 L1265.97 449.002 L1273.61 449.002 L1273.61 452.937 L1253.7 452.937 L1253.7 449.002 Z" fill="#000000" fill-rule="nonzero" fill-opacity="1" /><path clip-path="url(#clip410)" d="M1283.05 447.058 L1287.94 447.058 L1287.94 452.937 L1283.05 452.937 L1283.05 447.058 Z" fill="#000000" fill-rule="nonzero" fill-opacity="1" /><path clip-path="url(#clip410)" d="M1308.12 421.456 Q1304.51 421.456 1302.68 425.021 Q1300.88 428.563 1300.88 435.692 Q1300.88 442.799 1302.68 446.363 Q1304.51 449.905 1308.12 449.905 Q1311.76 449.905 1313.56 446.363 Q1315.39 442.799 1315.39 435.692 Q1315.39 428.563 1313.56 425.021 Q1311.76 421.456 1308.12 421.456 M1308.12 417.752 Q1313.93 417.752 1316.99 422.359 Q1320.07 426.942 1320.07 435.692 Q1320.07 444.419 1316.99 449.025 Q1313.93 453.609 1308.12 453.609 Q1302.31 453.609 1299.23 449.025 Q1296.18 444.419 1296.18 435.692 Q1296.18 426.942 1299.23 422.359 Q1302.31 417.752 1308.12 417.752 Z" fill="#000000" fill-rule="nonzero" fill-opacity="1" /><path clip-path="url(#clip410)" d="M1327.1 418.377 L1349.32 418.377 L1349.32 420.368 L1336.78 452.937 L1331.89 452.937 L1343.7 422.313 L1327.1 422.313 L1327.1 418.377 Z" fill="#000000" fill-rule="nonzero" fill-opacity="1" /><path clip-path="url(#clip410)" d="M1358.49 418.377 L1376.85 418.377 L1376.85 422.313 L1362.77 422.313 L1362.77 430.785 Q1363.79 430.438 1364.81 430.276 Q1365.83 430.09 1366.85 430.09 Q1372.63 430.09 1376.01 433.262 Q1379.39 436.433 1379.39 441.85 Q1379.39 447.428 1375.92 450.53 Q1372.45 453.609 1366.13 453.609 Q1363.95 453.609 1361.69 453.238 Q1359.44 452.868 1357.03 452.127 L1357.03 447.428 Q1359.12 448.562 1361.34 449.118 Q1363.56 449.674 1366.04 449.674 Q1370.04 449.674 1372.38 447.567 Q1374.72 445.461 1374.72 441.85 Q1374.72 438.238 1372.38 436.132 Q1370.04 434.026 1366.04 434.026 Q1364.16 434.026 1362.29 434.442 Q1360.44 434.859 1358.49 435.738 L1358.49 418.377 Z" fill="#000000" fill-rule="nonzero" fill-opacity="1" /><path clip-path="url(#clip410)" d="M1252.71 256.741 L1260.34 256.741 L1260.34 230.376 L1252.03 232.042 L1252.03 227.783 L1260.3 226.116 L1264.97 226.116 L1264.97 256.741 L1272.61 256.741 L1272.61 260.676 L1252.71 260.676 L1252.71 256.741 Z" fill="#000000" fill-rule="nonzero" fill-opacity="1" /><path clip-path="url(#clip410)" d="M1282.06 254.797 L1286.94 254.797 L1286.94 260.676 L1282.06 260.676 L1282.06 254.797 Z" fill="#000000" fill-rule="nonzero" fill-opacity="1" /><path clip-path="url(#clip410)" d="M1297.94 256.741 L1305.58 256.741 L1305.58 230.376 L1297.27 232.042 L1297.27 227.783 L1305.53 226.116 L1310.2 226.116 L1310.2 256.741 L1317.84 256.741 L1317.84 260.676 L1297.94 260.676 L1297.94 256.741 Z" fill="#000000" fill-rule="nonzero" fill-opacity="1" /><path clip-path="url(#clip410)" d="M1337.29 229.195 Q1333.68 229.195 1331.85 232.76 Q1330.04 236.302 1330.04 243.431 Q1330.04 250.538 1331.85 254.102 Q1333.68 257.644 1337.29 257.644 Q1340.92 257.644 1342.73 254.102 Q1344.56 250.538 1344.56 243.431 Q1344.56 236.302 1342.73 232.76 Q1340.92 229.195 1337.29 229.195 M1337.29 225.491 Q1343.1 225.491 1346.15 230.098 Q1349.23 234.681 1349.23 243.431 Q1349.23 252.158 1346.15 256.764 Q1343.1 261.348 1337.29 261.348 Q1331.48 261.348 1328.4 256.764 Q1325.34 252.158 1325.34 243.431 Q1325.34 234.681 1328.4 230.098 Q1331.48 225.491 1337.29 225.491 Z" fill="#000000" fill-rule="nonzero" fill-opacity="1" /><path clip-path="url(#clip410)" d="M1367.45 229.195 Q1363.84 229.195 1362.01 232.76 Q1360.2 236.302 1360.2 243.431 Q1360.2 250.538 1362.01 254.102 Q1363.84 257.644 1367.45 257.644 Q1371.08 257.644 1372.89 254.102 Q1374.72 250.538 1374.72 243.431 Q1374.72 236.302 1372.89 232.76 Q1371.08 229.195 1367.45 229.195 M1367.45 225.491 Q1373.26 225.491 1376.32 230.098 Q1379.39 234.681 1379.39 243.431 Q1379.39 252.158 1376.32 256.764 Q1373.26 261.348 1367.45 261.348 Q1361.64 261.348 1358.56 256.764 Q1355.51 252.158 1355.51 243.431 Q1355.51 234.681 1358.56 230.098 Q1361.64 225.491 1367.45 225.491 Z" fill="#000000" fill-rule="nonzero" fill-opacity="1" /><path clip-path="url(#clip410)" d="M1743.36 31.7342 Q1743.36 26.5259 1741.2 23.6613 Q1739.06 20.7968 1735.18 20.7968 Q1731.33 20.7968 1729.17 23.6613 Q1727.03 26.5259 1727.03 31.7342 Q1727.03 36.9165 1729.17 39.781 Q1731.33 42.6456 1735.18 42.6456 Q1739.06 42.6456 1741.2 39.781 Q1743.36 36.9165 1743.36 31.7342 M1748.15 43.0362 Q1748.15 50.4841 1744.84 54.1039 Q1741.54 57.7497 1734.71 57.7497 Q1732.19 57.7497 1729.95 57.3591 Q1727.71 56.9945 1725.6 56.2132 L1725.6 51.5518 Q1727.71 52.6976 1729.77 53.2445 Q1731.82 53.7914 1733.96 53.7914 Q1738.67 53.7914 1741.02 51.3174 Q1743.36 48.8695 1743.36 43.8956 L1743.36 41.5258 Q1741.88 44.1039 1739.56 45.38 Q1737.24 46.656 1734.01 46.656 Q1728.65 46.656 1725.36 42.5675 Q1722.08 38.479 1722.08 31.7342 Q1722.08 24.9634 1725.36 20.8749 Q1728.65 16.7864 1734.01 16.7864 Q1737.24 16.7864 1739.56 18.0624 Q1741.88 19.3384 1743.36 21.9165 L1743.36 17.4895 L1748.15 17.4895 L1748.15 43.0362 Z" fill="#000000" fill-rule="nonzero" fill-opacity="1" /><path clip-path="url(#clip410)" d="M1777.21 21.9165 L1777.21 6.13538 L1782.01 6.13538 L1782.01 46.656 L1777.21 46.656 L1777.21 42.281 Q1775.7 44.8852 1773.39 46.1612 Q1771.09 47.4112 1767.86 47.4112 Q1762.58 47.4112 1759.25 43.1925 Q1755.94 38.9737 1755.94 32.0988 Q1755.94 25.2238 1759.25 21.0051 Q1762.58 16.7864 1767.86 16.7864 Q1771.09 16.7864 1773.39 18.0624 Q1775.7 19.3124 1777.21 21.9165 M1760.89 32.0988 Q1760.89 37.3852 1763.05 40.406 Q1765.23 43.4008 1769.04 43.4008 Q1772.84 43.4008 1775.03 40.406 Q1777.21 37.3852 1777.21 32.0988 Q1777.21 26.8124 1775.03 23.8176 Q1772.84 20.7968 1769.04 20.7968 Q1765.23 20.7968 1763.05 23.8176 Q1760.89 26.8124 1760.89 32.0988 Z" fill="#000000" fill-rule="nonzero" fill-opacity="1" /><path clip-path="url(#clip410)" d="M1796.51 42.281 L1796.51 57.7497 L1791.69 57.7497 L1791.69 17.4895 L1796.51 17.4895 L1796.51 21.9165 Q1798.02 19.3124 1800.31 18.0624 Q1802.63 16.7864 1805.83 16.7864 Q1811.15 16.7864 1814.45 21.0051 Q1817.79 25.2238 1817.79 32.0988 Q1817.79 38.9737 1814.45 43.1925 Q1811.15 47.4112 1805.83 47.4112 Q1802.63 47.4112 1800.31 46.1612 Q1798.02 44.8852 1796.51 42.281 M1812.81 32.0988 Q1812.81 26.8124 1810.62 23.8176 Q1808.46 20.7968 1804.66 20.7968 Q1800.86 20.7968 1798.67 23.8176 Q1796.51 26.8124 1796.51 32.0988 Q1796.51 37.3852 1798.67 40.406 Q1800.86 43.4008 1804.66 43.4008 Q1808.46 43.4008 1810.62 40.406 Q1812.81 37.3852 1812.81 32.0988 Z" fill="#000000" fill-rule="nonzero" fill-opacity="1" /><path clip-path="url(#clip410)" d="M1861.87 21.9165 L1861.87 6.13538 L1866.67 6.13538 L1866.67 46.656 L1861.87 46.656 L1861.87 42.281 Q1860.36 44.8852 1858.05 46.1612 Q1855.75 47.4112 1852.53 47.4112 Q1847.24 47.4112 1843.91 43.1925 Q1840.6 38.9737 1840.6 32.0988 Q1840.6 25.2238 1843.91 21.0051 Q1847.24 16.7864 1852.53 16.7864 Q1855.75 16.7864 1858.05 18.0624 Q1860.36 19.3124 1861.87 21.9165 M1845.55 32.0988 Q1845.55 37.3852 1847.71 40.406 Q1849.9 43.4008 1853.7 43.4008 Q1857.5 43.4008 1859.69 40.406 Q1861.87 37.3852 1861.87 32.0988 Q1861.87 26.8124 1859.69 23.8176 Q1857.5 20.7968 1853.7 20.7968 Q1849.9 20.7968 1847.71 23.8176 Q1845.55 26.8124 1845.55 32.0988 Z" fill="#000000" fill-rule="nonzero" fill-opacity="1" /><path clip-path="url(#clip410)" d="M1901.48 30.8748 L1901.48 33.2186 L1879.45 33.2186 Q1879.77 38.1665 1882.42 40.7706 Q1885.1 43.3487 1889.87 43.3487 Q1892.63 43.3487 1895.21 42.6716 Q1897.81 41.9946 1900.36 40.6404 L1900.36 45.1716 Q1897.79 46.2654 1895.08 46.8383 Q1892.37 47.4112 1889.58 47.4112 Q1882.6 47.4112 1878.52 43.3487 Q1874.45 39.2862 1874.45 32.3592 Q1874.45 25.1978 1878.31 21.0051 Q1882.19 16.7864 1888.75 16.7864 Q1894.63 16.7864 1898.05 20.5884 Q1901.48 24.3645 1901.48 30.8748 M1896.69 29.4686 Q1896.64 25.5363 1894.48 23.1926 Q1892.34 20.8488 1888.8 20.8488 Q1884.79 20.8488 1882.37 23.1145 Q1879.97 25.3801 1879.61 29.4946 L1896.69 29.4686 Z" fill="#000000" fill-rule="nonzero" fill-opacity="1" /><path clip-path="url(#clip410)" d="M1924.11 6.13538 L1924.11 10.1197 L1919.53 10.1197 Q1916.95 10.1197 1915.94 11.1614 Q1914.95 12.2031 1914.95 14.9114 L1914.95 17.4895 L1922.84 17.4895 L1922.84 21.2134 L1914.95 21.2134 L1914.95 46.656 L1910.13 46.656 L1910.13 21.2134 L1905.55 21.2134 L1905.55 17.4895 L1910.13 17.4895 L1910.13 15.4583 Q1910.13 10.5885 1912.4 8.37496 Q1914.66 6.13538 1919.58 6.13538 L1924.11 6.13538 Z" fill="#000000" fill-rule="nonzero" fill-opacity="1" /><path clip-path="url(#clip410)" d="M1928.12 6.13538 L1932.92 6.13538 L1932.92 46.656 L1928.12 46.656 L1928.12 6.13538 Z" fill="#000000" fill-rule="nonzero" fill-opacity="1" /><path clip-path="url(#clip410)" d="M1956.2 31.9946 Q1950.39 31.9946 1948.15 33.3227 Q1945.91 34.6509 1945.91 37.854 Q1945.91 40.406 1947.58 41.9164 Q1949.27 43.4008 1952.16 43.4008 Q1956.14 43.4008 1958.54 40.5883 Q1960.96 37.7498 1960.96 33.0623 L1960.96 31.9946 L1956.2 31.9946 M1965.75 30.0155 L1965.75 46.656 L1960.96 46.656 L1960.96 42.2289 Q1959.32 44.8852 1956.87 46.1612 Q1954.43 47.4112 1950.88 47.4112 Q1946.41 47.4112 1943.75 44.9112 Q1941.12 42.3852 1941.12 38.1665 Q1941.12 33.2446 1944.4 30.7446 Q1947.71 28.2446 1954.24 28.2446 L1960.96 28.2446 L1960.96 27.7759 Q1960.96 24.4686 1958.78 22.6718 Q1956.61 20.8488 1952.68 20.8488 Q1950.18 20.8488 1947.81 21.4478 Q1945.44 22.0468 1943.25 23.2447 L1943.25 18.8176 Q1945.88 17.802 1948.36 17.3072 Q1950.83 16.7864 1953.18 16.7864 Q1959.5 16.7864 1962.63 20.0676 Q1965.75 23.3488 1965.75 30.0155 Z" fill="#000000" fill-rule="nonzero" fill-opacity="1" /><path clip-path="url(#clip410)" d="M1980.36 9.20828 L1980.36 17.4895 L1990.23 17.4895 L1990.23 21.2134 L1980.36 21.2134 L1980.36 37.0467 Q1980.36 40.6144 1981.33 41.63 Q1982.32 42.6456 1985.31 42.6456 L1990.23 42.6456 L1990.23 46.656 L1985.31 46.656 Q1979.76 46.656 1977.66 44.5987 Q1975.55 42.5154 1975.55 37.0467 L1975.55 21.2134 L1972.03 21.2134 L1972.03 17.4895 L1975.55 17.4895 L1975.55 9.20828 L1980.36 9.20828 Z" fill="#000000" fill-rule="nonzero" fill-opacity="1" /><path clip-path="url(#clip410)" d="M2007.84 20.8488 Q2003.98 20.8488 2001.74 23.8697 Q1999.5 26.8644 1999.5 32.0988 Q1999.5 37.3331 2001.72 40.354 Q2003.96 43.3487 2007.84 43.3487 Q2011.67 43.3487 2013.91 40.3279 Q2016.14 37.3071 2016.14 32.0988 Q2016.14 26.9165 2013.91 23.8957 Q2011.67 20.8488 2007.84 20.8488 M2007.84 16.7864 Q2014.09 16.7864 2017.66 20.8488 Q2021.22 24.9113 2021.22 32.0988 Q2021.22 39.2602 2017.66 43.3487 Q2014.09 47.4112 2007.84 47.4112 Q2001.56 47.4112 1997.99 43.3487 Q1994.45 39.2602 1994.45 32.0988 Q1994.45 24.9113 1997.99 20.8488 Q2001.56 16.7864 2007.84 16.7864 Z" fill="#000000" fill-rule="nonzero" fill-opacity="1" /><path clip-path="url(#clip410)" d="M2046.07 21.9686 Q2045.26 21.4999 2044.3 21.2916 Q2043.36 21.0572 2042.21 21.0572 Q2038.15 21.0572 2035.96 23.7134 Q2033.8 26.3436 2033.8 31.2915 L2033.8 46.656 L2028.98 46.656 L2028.98 17.4895 L2033.8 17.4895 L2033.8 22.0207 Q2035.31 19.3645 2037.73 18.0884 Q2040.15 16.7864 2043.62 16.7864 Q2044.11 16.7864 2044.71 16.8645 Q2045.31 16.9166 2046.04 17.0468 L2046.07 21.9686 Z" fill="#000000" fill-rule="nonzero" fill-opacity="1" /><path clip-path="url(#clip413)" d="M1441.92 1012.44 L1486.14 1049.23 L1530.35 1064.2 L1574.57 1065.75 L1618.78 1062.25 L1663 1070.59 L1707.21 1068.74 L1751.43 1010.4 L1795.64 987.33 L1839.86 989.804 L1884.08 968.356 L1928.29 988.699 L1972.51 945.604 L2016.72 882.463 L2060.94 878.899 L2105.15 867.846 L2149.37 827.657 L2193.58 819.604 L2237.8 790.305 L2282.01 762.668 L2326.23 717.334 L2326.23 120.65 L2282.01 167.101 L2237.8 261.831 L2193.58 334.807 L2149.37 402.843 L2105.15 409.111 L2060.94 451.134 L2016.72 504.938 L1972.51 555.38 L1928.29 598.298 L1884.08 619.553 L1839.86 632.203 L1795.64 678.549 L1751.43 702.102 L1707.21 730.646 L1663 777.371 L1618.78 793.607 L1574.57 843.067 L1530.35 891.73 L1486.14 980.895 L1441.92 1012.44  Z" fill="#009af9" fill-rule="evenodd" fill-opacity="0.1"/>
<polyline clip-path="url(#clip413)" style="stroke:#009af9; stroke-linecap:round; stroke-linejoin:round; stroke-width:4; stroke-opacity:1; fill:none" points="1441.92,1012.44 1486.14,1015.06 1530.35,977.967 1574.57,954.411 1618.78,927.928 1663,923.98 1707.21,899.695 1751.43,856.249 1795.64,832.939 1839.86,811.004 1884.08,793.954 1928.29,793.499 1972.51,750.492 2016.72,693.7 2060.94,665.017 2105.15,638.478 2149.37,615.25 2193.58,577.206 2237.8,526.068 2282.01,464.884 2326.23,418.992 "/>
<path clip-path="url(#clip413)" d="M1441.92 1012.44 L1486.14 1021.17 L1530.35 1017.94 L1574.57 1030.02 L1618.78 1063.72 L1663 1069.02 L1707.21 1038.26 L1751.43 1003.35 L1795.64 1013.22 L1839.86 991.379 L1884.08 994.833 L1928.29 935.539 L1972.51 936.212 L2016.72 966.734 L2060.94 957.582 L2105.15 933.188 L2149.37 901.349 L2193.58 876.668 L2237.8 845.536 L2282.01 830.077 L2326.23 832.261 L2326.23 331.766 L2282.01 374.936 L2237.8 411.581 L2193.58 439.351 L2149.37 443.674 L2105.15 444.983 L2060.94 463.159 L2016.72 488.863 L1972.51 550.628 L1928.29 631.431 L1884.08 674.087 L1839.86 708.585 L1795.64 730.295 L1751.43 744.894 L1707.21 745.101 L1663 776.234 L1618.78 810.117 L1574.57 842.785 L1530.35 884.754 L1486.14 953.529 L1441.92 1012.44  Z" fill="#e26f46" fill-rule="evenodd" fill-opacity="0.1"/>
<polyline clip-path="url(#clip413)" style="stroke:#e26f46; stroke-linecap:round; stroke-linejoin:round; stroke-width:4; stroke-opacity:1; fill:none" points="1441.92,1012.44 1486.14,987.348 1530.35,951.348 1574.57,936.401 1618.78,936.917 1663,922.629 1707.21,891.678 1751.43,874.121 1795.64,871.759 1839.86,849.982 1884.08,834.46 1928.29,783.485 1972.51,743.42 2016.72,727.799 2060.94,710.371 2105.15,689.085 2149.37,672.512 2193.58,658.01 2237.8,628.558 2282.01,602.507 2326.23,582.013 "/>
</svg>
