<?xml version="1.0" encoding="utf-8"?>
<svg xmlns="http://www.w3.org/2000/svg" xmlns:xlink="http://www.w3.org/1999/xlink" width="600" height="400" viewBox="0 0 2400 1600">
<defs>
  <clipPath id="clip690">
    <rect x="0" y="0" width="2400" height="1600"/>
  </clipPath>
</defs>
<path clip-path="url(#clip690)" d="M0 1600 L2400 1600 L2400 0 L0 0  Z" fill="#ffffff" fill-rule="evenodd" fill-opacity="1"/>
<defs>
  <clipPath id="clip691">
    <rect x="480" y="0" width="1681" height="1600"/>
  </clipPath>
</defs>
<path clip-path="url(#clip690)" d="M230.765 1486.45 L2352.76 1486.45 L2352.76 106.192 L230.765 106.192  Z" fill="#ffffff" fill-rule="evenodd" fill-opacity="1"/>
<defs>
  <clipPath id="clip692">
    <rect x="230" y="106" width="2123" height="1381"/>
  </clipPath>
</defs>
<polyline clip-path="url(#clip692)" style="stroke:#000000; stroke-linecap:round; stroke-linejoin:round; stroke-width:2; stroke-opacity:0.1; fill:none" points="541.056,1486.45 541.056,106.192 "/>
<polyline clip-path="url(#clip692)" style="stroke:#000000; stroke-linecap:round; stroke-linejoin:round; stroke-width:2; stroke-opacity:0.1; fill:none" points="916.408,1486.45 916.408,106.192 "/>
<polyline clip-path="url(#clip692)" style="stroke:#000000; stroke-linecap:round; stroke-linejoin:round; stroke-width:2; stroke-opacity:0.1; fill:none" points="1291.76,1486.45 1291.76,106.192 "/>
<polyline clip-path="url(#clip692)" style="stroke:#000000; stroke-linecap:round; stroke-linejoin:round; stroke-width:2; stroke-opacity:0.1; fill:none" points="1667.11,1486.45 1667.11,106.192 "/>
<polyline clip-path="url(#clip692)" style="stroke:#000000; stroke-linecap:round; stroke-linejoin:round; stroke-width:2; stroke-opacity:0.1; fill:none" points="2042.46,1486.45 2042.46,106.192 "/>
<polyline clip-path="url(#clip692)" style="stroke:#000000; stroke-linecap:round; stroke-linejoin:round; stroke-width:2; stroke-opacity:0.1; fill:none" points="230.765,1409.94 2352.76,1409.94 "/>
<polyline clip-path="url(#clip692)" style="stroke:#000000; stroke-linecap:round; stroke-linejoin:round; stroke-width:2; stroke-opacity:0.1; fill:none" points="230.765,1169.93 2352.76,1169.93 "/>
<polyline clip-path="url(#clip692)" style="stroke:#000000; stroke-linecap:round; stroke-linejoin:round; stroke-width:2; stroke-opacity:0.1; fill:none" points="230.765,929.912 2352.76,929.912 "/>
<polyline clip-path="url(#clip692)" style="stroke:#000000; stroke-linecap:round; stroke-linejoin:round; stroke-width:2; stroke-opacity:0.1; fill:none" points="230.765,689.897 2352.76,689.897 "/>
<polyline clip-path="url(#clip692)" style="stroke:#000000; stroke-linecap:round; stroke-linejoin:round; stroke-width:2; stroke-opacity:0.1; fill:none" points="230.765,449.882 2352.76,449.882 "/>
<polyline clip-path="url(#clip692)" style="stroke:#000000; stroke-linecap:round; stroke-linejoin:round; stroke-width:2; stroke-opacity:0.1; fill:none" points="230.765,209.867 2352.76,209.867 "/>
<polyline clip-path="url(#clip690)" style="stroke:#000000; stroke-linecap:round; stroke-linejoin:round; stroke-width:4; stroke-opacity:1; fill:none" points="230.765,1486.45 2352.76,1486.45 "/>
<polyline clip-path="url(#clip690)" style="stroke:#000000; stroke-linecap:round; stroke-linejoin:round; stroke-width:4; stroke-opacity:1; fill:none" points="541.056,1486.45 541.056,1467.55 "/>
<polyline clip-path="url(#clip690)" style="stroke:#000000; stroke-linecap:round; stroke-linejoin:round; stroke-width:4; stroke-opacity:1; fill:none" points="916.408,1486.45 916.408,1467.55 "/>
<polyline clip-path="url(#clip690)" style="stroke:#000000; stroke-linecap:round; stroke-linejoin:round; stroke-width:4; stroke-opacity:1; fill:none" points="1291.76,1486.45 1291.76,1467.55 "/>
<polyline clip-path="url(#clip690)" style="stroke:#000000; stroke-linecap:round; stroke-linejoin:round; stroke-width:4; stroke-opacity:1; fill:none" points="1667.11,1486.45 1667.11,1467.55 "/>
<polyline clip-path="url(#clip690)" style="stroke:#000000; stroke-linecap:round; stroke-linejoin:round; stroke-width:4; stroke-opacity:1; fill:none" points="2042.46,1486.45 2042.46,1467.55 "/>
<path clip-path="url(#clip690)" d="M545.303 1530.21 Q548.66 1530.93 550.535 1533.2 Q552.433 1535.47 552.433 1538.8 Q552.433 1543.92 548.914 1546.72 Q545.396 1549.52 538.915 1549.52 Q536.739 1549.52 534.424 1549.08 Q532.132 1548.66 529.678 1547.81 L529.678 1543.29 Q531.623 1544.43 533.938 1545.01 Q536.252 1545.58 538.776 1545.58 Q543.174 1545.58 545.465 1543.85 Q547.78 1542.11 547.78 1538.8 Q547.78 1535.75 545.627 1534.03 Q543.498 1532.3 539.678 1532.3 L535.651 1532.3 L535.651 1528.45 L539.864 1528.45 Q543.313 1528.45 545.141 1527.09 Q546.97 1525.7 546.97 1523.11 Q546.97 1520.45 545.072 1519.03 Q543.197 1517.6 539.678 1517.6 Q537.757 1517.6 535.558 1518.01 Q533.359 1518.43 530.72 1519.31 L530.72 1515.14 Q533.382 1514.4 535.697 1514.03 Q538.035 1513.66 540.095 1513.66 Q545.419 1513.66 548.521 1516.09 Q551.623 1518.5 551.623 1522.62 Q551.623 1525.49 549.979 1527.48 Q548.336 1529.45 545.303 1530.21 Z" fill="#000000" fill-rule="nonzero" fill-opacity="1" /><path clip-path="url(#clip690)" d="M916.813 1529.7 Q913.665 1529.7 911.813 1531.86 Q909.984 1534.01 909.984 1537.76 Q909.984 1541.49 911.813 1543.66 Q913.665 1545.82 916.813 1545.82 Q919.961 1545.82 921.79 1543.66 Q923.642 1541.49 923.642 1537.76 Q923.642 1534.01 921.79 1531.86 Q919.961 1529.7 916.813 1529.7 M926.095 1515.05 L926.095 1519.31 Q924.336 1518.48 922.531 1518.04 Q920.748 1517.6 918.989 1517.6 Q914.359 1517.6 911.906 1520.72 Q909.475 1523.85 909.128 1530.17 Q910.494 1528.15 912.554 1527.09 Q914.614 1526 917.091 1526 Q922.299 1526 925.308 1529.17 Q928.341 1532.32 928.341 1537.76 Q928.341 1543.08 925.193 1546.3 Q922.044 1549.52 916.813 1549.52 Q910.818 1549.52 907.646 1544.94 Q904.475 1540.33 904.475 1531.6 Q904.475 1523.41 908.364 1518.55 Q912.253 1513.66 918.804 1513.66 Q920.563 1513.66 922.345 1514.01 Q924.151 1514.36 926.095 1515.05 Z" fill="#000000" fill-rule="nonzero" fill-opacity="1" /><path clip-path="url(#clip690)" d="M1282.06 1548.13 L1282.06 1543.87 Q1283.82 1544.7 1285.63 1545.14 Q1287.43 1545.58 1289.17 1545.58 Q1293.8 1545.58 1296.23 1542.48 Q1298.68 1539.36 1299.03 1533.01 Q1297.69 1535.01 1295.63 1536.07 Q1293.57 1537.13 1291.07 1537.13 Q1285.88 1537.13 1282.85 1534.01 Q1279.84 1530.86 1279.84 1525.42 Q1279.84 1520.1 1282.99 1516.88 Q1286.14 1513.66 1291.37 1513.66 Q1297.36 1513.66 1300.51 1518.27 Q1303.68 1522.85 1303.68 1531.6 Q1303.68 1539.77 1299.79 1544.66 Q1295.93 1549.52 1289.38 1549.52 Q1287.62 1549.52 1285.81 1549.17 Q1284.01 1548.82 1282.06 1548.13 M1291.37 1533.48 Q1294.51 1533.48 1296.34 1531.32 Q1298.2 1529.17 1298.2 1525.42 Q1298.2 1521.7 1296.34 1519.54 Q1294.51 1517.37 1291.37 1517.37 Q1288.22 1517.37 1286.37 1519.54 Q1284.54 1521.7 1284.54 1525.42 Q1284.54 1529.17 1286.37 1531.32 Q1288.22 1533.48 1291.37 1533.48 Z" fill="#000000" fill-rule="nonzero" fill-opacity="1" /><path clip-path="url(#clip690)" d="M1642.6 1544.91 L1650.24 1544.91 L1650.24 1518.55 L1641.93 1520.21 L1641.93 1515.95 L1650.19 1514.29 L1654.87 1514.29 L1654.87 1544.91 L1662.51 1544.91 L1662.51 1548.85 L1642.6 1548.85 L1642.6 1544.91 Z" fill="#000000" fill-rule="nonzero" fill-opacity="1" /><path clip-path="url(#clip690)" d="M1675.98 1544.91 L1692.3 1544.91 L1692.3 1548.85 L1670.35 1548.85 L1670.35 1544.91 Q1673.02 1542.16 1677.6 1537.53 Q1682.2 1532.88 1683.39 1531.53 Q1685.63 1529.01 1686.51 1527.27 Q1687.41 1525.51 1687.41 1523.82 Q1687.41 1521.07 1685.47 1519.33 Q1683.55 1517.6 1680.45 1517.6 Q1678.25 1517.6 1675.79 1518.36 Q1673.36 1519.13 1670.58 1520.68 L1670.58 1515.95 Q1673.41 1514.82 1675.86 1514.24 Q1678.32 1513.66 1680.35 1513.66 Q1685.72 1513.66 1688.92 1516.35 Q1692.11 1519.03 1692.11 1523.52 Q1692.11 1525.65 1691.3 1527.57 Q1690.52 1529.47 1688.41 1532.07 Q1687.83 1532.74 1684.73 1535.95 Q1681.63 1539.15 1675.98 1544.91 Z" fill="#000000" fill-rule="nonzero" fill-opacity="1" /><path clip-path="url(#clip690)" d="M2017.65 1544.91 L2025.29 1544.91 L2025.29 1518.55 L2016.98 1520.21 L2016.98 1515.95 L2025.24 1514.29 L2029.92 1514.29 L2029.92 1544.91 L2037.56 1544.91 L2037.56 1548.85 L2017.65 1548.85 L2017.65 1544.91 Z" fill="#000000" fill-rule="nonzero" fill-opacity="1" /><path clip-path="url(#clip690)" d="M2047.05 1514.29 L2065.4 1514.29 L2065.4 1518.22 L2051.33 1518.22 L2051.33 1526.7 Q2052.35 1526.35 2053.37 1526.19 Q2054.39 1526 2055.4 1526 Q2061.19 1526 2064.57 1529.17 Q2067.95 1532.34 2067.95 1537.76 Q2067.95 1543.34 2064.48 1546.44 Q2061.01 1549.52 2054.69 1549.52 Q2052.51 1549.52 2050.24 1549.15 Q2048 1548.78 2045.59 1548.04 L2045.59 1543.34 Q2047.67 1544.47 2049.9 1545.03 Q2052.12 1545.58 2054.59 1545.58 Q2058.6 1545.58 2060.94 1543.48 Q2063.27 1541.37 2063.27 1537.76 Q2063.27 1534.15 2060.94 1532.04 Q2058.6 1529.94 2054.59 1529.94 Q2052.72 1529.94 2050.84 1530.35 Q2048.99 1530.77 2047.05 1531.65 L2047.05 1514.29 Z" fill="#000000" fill-rule="nonzero" fill-opacity="1" /><polyline clip-path="url(#clip690)" style="stroke:#000000; stroke-linecap:round; stroke-linejoin:round; stroke-width:4; stroke-opacity:1; fill:none" points="230.765,1486.45 230.765,106.192 "/>
<polyline clip-path="url(#clip690)" style="stroke:#000000; stroke-linecap:round; stroke-linejoin:round; stroke-width:4; stroke-opacity:1; fill:none" points="230.765,1409.94 249.662,1409.94 "/>
<polyline clip-path="url(#clip690)" style="stroke:#000000; stroke-linecap:round; stroke-linejoin:round; stroke-width:4; stroke-opacity:1; fill:none" points="230.765,1169.93 249.662,1169.93 "/>
<polyline clip-path="url(#clip690)" style="stroke:#000000; stroke-linecap:round; stroke-linejoin:round; stroke-width:4; stroke-opacity:1; fill:none" points="230.765,929.912 249.662,929.912 "/>
<polyline clip-path="url(#clip690)" style="stroke:#000000; stroke-linecap:round; stroke-linejoin:round; stroke-width:4; stroke-opacity:1; fill:none" points="230.765,689.897 249.662,689.897 "/>
<polyline clip-path="url(#clip690)" style="stroke:#000000; stroke-linecap:round; stroke-linejoin:round; stroke-width:4; stroke-opacity:1; fill:none" points="230.765,449.882 249.662,449.882 "/>
<polyline clip-path="url(#clip690)" style="stroke:#000000; stroke-linecap:round; stroke-linejoin:round; stroke-width:4; stroke-opacity:1; fill:none" points="230.765,209.867 249.662,209.867 "/>
<path clip-path="url(#clip690)" d="M50.9921 1392.66 L73.2142 1392.66 L73.2142 1394.65 L60.668 1427.22 L55.7838 1427.22 L67.5893 1396.6 L50.9921 1396.6 L50.9921 1392.66 Z" fill="#000000" fill-rule="nonzero" fill-opacity="1" /><path clip-path="url(#clip690)" d="M86.3623 1423.29 L102.682 1423.29 L102.682 1427.22 L80.7373 1427.22 L80.7373 1423.29 Q83.3994 1420.53 87.9827 1415.9 Q92.5891 1411.25 93.7697 1409.91 Q96.015 1407.38 96.8947 1405.65 Q97.7974 1403.89 97.7974 1402.2 Q97.7974 1399.44 95.853 1397.71 Q93.9317 1395.97 90.8299 1395.97 Q88.6308 1395.97 86.1771 1396.74 Q83.7466 1397.5 80.9688 1399.05 L80.9688 1394.33 Q83.7929 1393.19 86.2466 1392.62 Q88.7003 1392.04 90.7373 1392.04 Q96.1076 1392.04 99.3021 1394.72 Q102.496 1397.41 102.496 1401.9 Q102.496 1404.03 101.686 1405.95 Q100.899 1407.85 98.7928 1410.44 Q98.2141 1411.11 95.1123 1414.33 Q92.0104 1417.52 86.3623 1423.29 Z" fill="#000000" fill-rule="nonzero" fill-opacity="1" /><path clip-path="url(#clip690)" d="M112.543 1392.66 L130.899 1392.66 L130.899 1396.6 L116.825 1396.6 L116.825 1405.07 Q117.844 1404.72 118.862 1404.56 Q119.881 1404.37 120.899 1404.37 Q126.686 1404.37 130.066 1407.55 Q133.445 1410.72 133.445 1416.13 Q133.445 1421.71 129.973 1424.81 Q126.501 1427.89 120.182 1427.89 Q118.006 1427.89 115.737 1427.52 Q113.492 1427.15 111.084 1426.41 L111.084 1421.71 Q113.168 1422.85 115.39 1423.4 Q117.612 1423.96 120.089 1423.96 Q124.094 1423.96 126.432 1421.85 Q128.769 1419.74 128.769 1416.13 Q128.769 1412.52 126.432 1410.42 Q124.094 1408.31 120.089 1408.31 Q118.214 1408.31 116.339 1408.73 Q114.487 1409.14 112.543 1410.02 L112.543 1392.66 Z" fill="#000000" fill-rule="nonzero" fill-opacity="1" /><path clip-path="url(#clip690)" d="M152.658 1395.74 Q149.047 1395.74 147.218 1399.31 Q145.413 1402.85 145.413 1409.98 Q145.413 1417.08 147.218 1420.65 Q149.047 1424.19 152.658 1424.19 Q156.292 1424.19 158.098 1420.65 Q159.927 1417.08 159.927 1409.98 Q159.927 1402.85 158.098 1399.31 Q156.292 1395.74 152.658 1395.74 M152.658 1392.04 Q158.468 1392.04 161.524 1396.64 Q164.603 1401.23 164.603 1409.98 Q164.603 1418.7 161.524 1423.31 Q158.468 1427.89 152.658 1427.89 Q146.848 1427.89 143.769 1423.31 Q140.714 1418.7 140.714 1409.98 Q140.714 1401.23 143.769 1396.64 Q146.848 1392.04 152.658 1392.04 Z" fill="#000000" fill-rule="nonzero" fill-opacity="1" /><path clip-path="url(#clip690)" d="M182.82 1395.74 Q179.209 1395.74 177.38 1399.31 Q175.575 1402.85 175.575 1409.98 Q175.575 1417.08 177.38 1420.65 Q179.209 1424.19 182.82 1424.19 Q186.454 1424.19 188.26 1420.65 Q190.089 1417.08 190.089 1409.98 Q190.089 1402.85 188.26 1399.31 Q186.454 1395.74 182.82 1395.74 M182.82 1392.04 Q188.63 1392.04 191.686 1396.64 Q194.765 1401.23 194.765 1409.98 Q194.765 1418.7 191.686 1423.31 Q188.63 1427.89 182.82 1427.89 Q177.01 1427.89 173.931 1423.31 Q170.876 1418.7 170.876 1409.98 Q170.876 1401.23 173.931 1396.64 Q177.01 1392.04 182.82 1392.04 Z" fill="#000000" fill-rule="nonzero" fill-opacity="1" /><path clip-path="url(#clip690)" d="M50.9921 1152.65 L73.2142 1152.65 L73.2142 1154.64 L60.668 1187.21 L55.7838 1187.21 L67.5893 1156.58 L50.9921 1156.58 L50.9921 1152.65 Z" fill="#000000" fill-rule="nonzero" fill-opacity="1" /><path clip-path="url(#clip690)" d="M96.5011 1168.57 Q99.8576 1169.29 101.733 1171.56 Q103.631 1173.83 103.631 1177.16 Q103.631 1182.28 100.112 1185.08 Q96.5937 1187.88 90.1123 1187.88 Q87.9364 1187.88 85.6216 1187.44 Q83.3299 1187.02 80.8762 1186.17 L80.8762 1181.65 Q82.8207 1182.79 85.1355 1183.36 Q87.4503 1183.94 89.9734 1183.94 Q94.3715 1183.94 96.6632 1182.21 Q98.978 1180.47 98.978 1177.16 Q98.978 1174.1 96.8252 1172.39 Q94.6956 1170.66 90.8762 1170.66 L86.8484 1170.66 L86.8484 1166.81 L91.0614 1166.81 Q94.5104 1166.81 96.3391 1165.45 Q98.1678 1164.06 98.1678 1161.47 Q98.1678 1158.8 96.2697 1157.39 Q94.3947 1155.96 90.8762 1155.96 Q88.9549 1155.96 86.7558 1156.37 Q84.5568 1156.79 81.9179 1157.67 L81.9179 1153.5 Q84.5799 1152.76 86.8947 1152.39 Q89.2327 1152.02 91.2928 1152.02 Q96.6169 1152.02 99.7187 1154.45 Q102.821 1156.86 102.821 1160.98 Q102.821 1163.85 101.177 1165.84 Q99.5335 1167.81 96.5011 1168.57 Z" fill="#000000" fill-rule="nonzero" fill-opacity="1" /><path clip-path="url(#clip690)" d="M122.496 1155.73 Q118.885 1155.73 117.057 1159.29 Q115.251 1162.83 115.251 1169.96 Q115.251 1177.07 117.057 1180.63 Q118.885 1184.17 122.496 1184.17 Q126.131 1184.17 127.936 1180.63 Q129.765 1177.07 129.765 1169.96 Q129.765 1162.83 127.936 1159.29 Q126.131 1155.73 122.496 1155.73 M122.496 1152.02 Q128.307 1152.02 131.362 1156.63 Q134.441 1161.21 134.441 1169.96 Q134.441 1178.69 131.362 1183.29 Q128.307 1187.88 122.496 1187.88 Q116.686 1187.88 113.608 1183.29 Q110.552 1178.69 110.552 1169.96 Q110.552 1161.21 113.608 1156.63 Q116.686 1152.02 122.496 1152.02 Z" fill="#000000" fill-rule="nonzero" fill-opacity="1" /><path clip-path="url(#clip690)" d="M152.658 1155.73 Q149.047 1155.73 147.218 1159.29 Q145.413 1162.83 145.413 1169.96 Q145.413 1177.07 147.218 1180.63 Q149.047 1184.17 152.658 1184.17 Q156.292 1184.17 158.098 1180.63 Q159.927 1177.07 159.927 1169.96 Q159.927 1162.83 158.098 1159.29 Q156.292 1155.73 152.658 1155.73 M152.658 1152.02 Q158.468 1152.02 161.524 1156.63 Q164.603 1161.21 164.603 1169.96 Q164.603 1178.69 161.524 1183.29 Q158.468 1187.88 152.658 1187.88 Q146.848 1187.88 143.769 1183.29 Q140.714 1178.69 140.714 1169.96 Q140.714 1161.21 143.769 1156.63 Q146.848 1152.02 152.658 1152.02 Z" fill="#000000" fill-rule="nonzero" fill-opacity="1" /><path clip-path="url(#clip690)" d="M182.82 1155.73 Q179.209 1155.73 177.38 1159.29 Q175.575 1162.83 175.575 1169.96 Q175.575 1177.07 177.38 1180.63 Q179.209 1184.17 182.82 1184.17 Q186.454 1184.17 188.26 1180.63 Q190.089 1177.07 190.089 1169.96 Q190.089 1162.83 188.26 1159.29 Q186.454 1155.73 182.82 1155.73 M182.82 1152.02 Q188.63 1152.02 191.686 1156.63 Q194.765 1161.21 194.765 1169.96 Q194.765 1178.69 191.686 1183.29 Q188.63 1187.88 182.82 1187.88 Q177.01 1187.88 173.931 1183.29 Q170.876 1178.69 170.876 1169.96 Q170.876 1161.21 173.931 1156.63 Q177.01 1152.02 182.82 1152.02 Z" fill="#000000" fill-rule="nonzero" fill-opacity="1" /><path clip-path="url(#clip690)" d="M50.9921 912.632 L73.2142 912.632 L73.2142 914.623 L60.668 947.192 L55.7838 947.192 L67.5893 916.567 L50.9921 916.567 L50.9921 912.632 Z" fill="#000000" fill-rule="nonzero" fill-opacity="1" /><path clip-path="url(#clip690)" d="M96.5011 928.558 Q99.8576 929.275 101.733 931.544 Q103.631 933.812 103.631 937.146 Q103.631 942.261 100.112 945.062 Q96.5937 947.863 90.1123 947.863 Q87.9364 947.863 85.6216 947.423 Q83.3299 947.007 80.8762 946.15 L80.8762 941.636 Q82.8207 942.771 85.1355 943.349 Q87.4503 943.928 89.9734 943.928 Q94.3715 943.928 96.6632 942.192 Q98.978 940.456 98.978 937.146 Q98.978 934.09 96.8252 932.377 Q94.6956 930.641 90.8762 930.641 L86.8484 930.641 L86.8484 926.798 L91.0614 926.798 Q94.5104 926.798 96.3391 925.433 Q98.1678 924.044 98.1678 921.451 Q98.1678 918.789 96.2697 917.377 Q94.3947 915.942 90.8762 915.942 Q88.9549 915.942 86.7558 916.359 Q84.5568 916.775 81.9179 917.655 L81.9179 913.488 Q84.5799 912.748 86.8947 912.377 Q89.2327 912.007 91.2928 912.007 Q96.6169 912.007 99.7187 914.437 Q102.821 916.845 102.821 920.965 Q102.821 923.835 101.177 925.826 Q99.5335 927.794 96.5011 928.558 Z" fill="#000000" fill-rule="nonzero" fill-opacity="1" /><path clip-path="url(#clip690)" d="M112.543 912.632 L130.899 912.632 L130.899 916.567 L116.825 916.567 L116.825 925.039 Q117.844 924.692 118.862 924.53 Q119.881 924.345 120.899 924.345 Q126.686 924.345 130.066 927.516 Q133.445 930.687 133.445 936.104 Q133.445 941.683 129.973 944.784 Q126.501 947.863 120.182 947.863 Q118.006 947.863 115.737 947.493 Q113.492 947.122 111.084 946.382 L111.084 941.683 Q113.168 942.817 115.39 943.372 Q117.612 943.928 120.089 943.928 Q124.094 943.928 126.432 941.822 Q128.769 939.715 128.769 936.104 Q128.769 932.493 126.432 930.386 Q124.094 928.28 120.089 928.28 Q118.214 928.28 116.339 928.697 Q114.487 929.113 112.543 929.993 L112.543 912.632 Z" fill="#000000" fill-rule="nonzero" fill-opacity="1" /><path clip-path="url(#clip690)" d="M152.658 915.711 Q149.047 915.711 147.218 919.275 Q145.413 922.817 145.413 929.947 Q145.413 937.053 147.218 940.618 Q149.047 944.159 152.658 944.159 Q156.292 944.159 158.098 940.618 Q159.927 937.053 159.927 929.947 Q159.927 922.817 158.098 919.275 Q156.292 915.711 152.658 915.711 M152.658 912.007 Q158.468 912.007 161.524 916.613 Q164.603 921.197 164.603 929.947 Q164.603 938.673 161.524 943.28 Q158.468 947.863 152.658 947.863 Q146.848 947.863 143.769 943.28 Q140.714 938.673 140.714 929.947 Q140.714 921.197 143.769 916.613 Q146.848 912.007 152.658 912.007 Z" fill="#000000" fill-rule="nonzero" fill-opacity="1" /><path clip-path="url(#clip690)" d="M182.82 915.711 Q179.209 915.711 177.38 919.275 Q175.575 922.817 175.575 929.947 Q175.575 937.053 177.38 940.618 Q179.209 944.159 182.82 944.159 Q186.454 944.159 188.26 940.618 Q190.089 937.053 190.089 929.947 Q190.089 922.817 188.26 919.275 Q186.454 915.711 182.82 915.711 M182.82 912.007 Q188.63 912.007 191.686 916.613 Q194.765 921.197 194.765 929.947 Q194.765 938.673 191.686 943.28 Q188.63 947.863 182.82 947.863 Q177.01 947.863 173.931 943.28 Q170.876 938.673 170.876 929.947 Q170.876 921.197 173.931 916.613 Q177.01 912.007 182.82 912.007 Z" fill="#000000" fill-rule="nonzero" fill-opacity="1" /><path clip-path="url(#clip690)" d="M50.9921 672.617 L73.2142 672.617 L73.2142 674.608 L60.668 707.177 L55.7838 707.177 L67.5893 676.552 L50.9921 676.552 L50.9921 672.617 Z" fill="#000000" fill-rule="nonzero" fill-opacity="1" /><path clip-path="url(#clip690)" d="M95.1817 676.691 L83.3762 695.14 L95.1817 695.14 L95.1817 676.691 M93.9549 672.617 L99.8345 672.617 L99.8345 695.14 L104.765 695.14 L104.765 699.029 L99.8345 699.029 L99.8345 707.177 L95.1817 707.177 L95.1817 699.029 L79.5799 699.029 L79.5799 694.515 L93.9549 672.617 Z" fill="#000000" fill-rule="nonzero" fill-opacity="1" /><path clip-path="url(#clip690)" d="M122.496 675.696 Q118.885 675.696 117.057 679.26 Q115.251 682.802 115.251 689.932 Q115.251 697.038 117.057 700.603 Q118.885 704.145 122.496 704.145 Q126.131 704.145 127.936 700.603 Q129.765 697.038 129.765 689.932 Q129.765 682.802 127.936 679.26 Q126.131 675.696 122.496 675.696 M122.496 671.992 Q128.307 671.992 131.362 676.598 Q134.441 681.182 134.441 689.932 Q134.441 698.658 131.362 703.265 Q128.307 707.848 122.496 707.848 Q116.686 707.848 113.608 703.265 Q110.552 698.658 110.552 689.932 Q110.552 681.182 113.608 676.598 Q116.686 671.992 122.496 671.992 Z" fill="#000000" fill-rule="nonzero" fill-opacity="1" /><path clip-path="url(#clip690)" d="M152.658 675.696 Q149.047 675.696 147.218 679.26 Q145.413 682.802 145.413 689.932 Q145.413 697.038 147.218 700.603 Q149.047 704.145 152.658 704.145 Q156.292 704.145 158.098 700.603 Q159.927 697.038 159.927 689.932 Q159.927 682.802 158.098 679.26 Q156.292 675.696 152.658 675.696 M152.658 671.992 Q158.468 671.992 161.524 676.598 Q164.603 681.182 164.603 689.932 Q164.603 698.658 161.524 703.265 Q158.468 707.848 152.658 707.848 Q146.848 707.848 143.769 703.265 Q140.714 698.658 140.714 689.932 Q140.714 681.182 143.769 676.598 Q146.848 671.992 152.658 671.992 Z" fill="#000000" fill-rule="nonzero" fill-opacity="1" /><path clip-path="url(#clip690)" d="M182.82 675.696 Q179.209 675.696 177.38 679.26 Q175.575 682.802 175.575 689.932 Q175.575 697.038 177.38 700.603 Q179.209 704.145 182.82 704.145 Q186.454 704.145 188.26 700.603 Q190.089 697.038 190.089 689.932 Q190.089 682.802 188.26 679.26 Q186.454 675.696 182.82 675.696 M182.82 671.992 Q188.63 671.992 191.686 676.598 Q194.765 681.182 194.765 689.932 Q194.765 698.658 191.686 703.265 Q188.63 707.848 182.82 707.848 Q177.01 707.848 173.931 703.265 Q170.876 698.658 170.876 689.932 Q170.876 681.182 173.931 676.598 Q177.01 671.992 182.82 671.992 Z" fill="#000000" fill-rule="nonzero" fill-opacity="1" /><path clip-path="url(#clip690)" d="M50.9921 432.602 L73.2142 432.602 L73.2142 434.593 L60.668 467.162 L55.7838 467.162 L67.5893 436.537 L50.9921 436.537 L50.9921 432.602 Z" fill="#000000" fill-rule="nonzero" fill-opacity="1" /><path clip-path="url(#clip690)" d="M95.1817 436.676 L83.3762 455.125 L95.1817 455.125 L95.1817 436.676 M93.9549 432.602 L99.8345 432.602 L99.8345 455.125 L104.765 455.125 L104.765 459.014 L99.8345 459.014 L99.8345 467.162 L95.1817 467.162 L95.1817 459.014 L79.5799 459.014 L79.5799 454.5 L93.9549 432.602 Z" fill="#000000" fill-rule="nonzero" fill-opacity="1" /><path clip-path="url(#clip690)" d="M112.543 432.602 L130.899 432.602 L130.899 436.537 L116.825 436.537 L116.825 445.009 Q117.844 444.662 118.862 444.5 Q119.881 444.315 120.899 444.315 Q126.686 444.315 130.066 447.486 Q133.445 450.657 133.445 456.074 Q133.445 461.653 129.973 464.755 Q126.501 467.833 120.182 467.833 Q118.006 467.833 115.737 467.463 Q113.492 467.093 111.084 466.352 L111.084 461.653 Q113.168 462.787 115.39 463.343 Q117.612 463.898 120.089 463.898 Q124.094 463.898 126.432 461.792 Q128.769 459.685 128.769 456.074 Q128.769 452.463 126.432 450.357 Q124.094 448.25 120.089 448.25 Q118.214 448.25 116.339 448.667 Q114.487 449.083 112.543 449.963 L112.543 432.602 Z" fill="#000000" fill-rule="nonzero" fill-opacity="1" /><path clip-path="url(#clip690)" d="M152.658 435.681 Q149.047 435.681 147.218 439.245 Q145.413 442.787 145.413 449.917 Q145.413 457.023 147.218 460.588 Q149.047 464.13 152.658 464.13 Q156.292 464.13 158.098 460.588 Q159.927 457.023 159.927 449.917 Q159.927 442.787 158.098 439.245 Q156.292 435.681 152.658 435.681 M152.658 431.977 Q158.468 431.977 161.524 436.583 Q164.603 441.167 164.603 449.917 Q164.603 458.644 161.524 463.25 Q158.468 467.833 152.658 467.833 Q146.848 467.833 143.769 463.25 Q140.714 458.644 140.714 449.917 Q140.714 441.167 143.769 436.583 Q146.848 431.977 152.658 431.977 Z" fill="#000000" fill-rule="nonzero" fill-opacity="1" /><path clip-path="url(#clip690)" d="M182.82 435.681 Q179.209 435.681 177.38 439.245 Q175.575 442.787 175.575 449.917 Q175.575 457.023 177.38 460.588 Q179.209 464.13 182.82 464.13 Q186.454 464.13 188.26 460.588 Q190.089 457.023 190.089 449.917 Q190.089 442.787 188.26 439.245 Q186.454 435.681 182.82 435.681 M182.82 431.977 Q188.63 431.977 191.686 436.583 Q194.765 441.167 194.765 449.917 Q194.765 458.644 191.686 463.25 Q188.63 467.833 182.82 467.833 Q177.01 467.833 173.931 463.25 Q170.876 458.644 170.876 449.917 Q170.876 441.167 173.931 436.583 Q177.01 431.977 182.82 431.977 Z" fill="#000000" fill-rule="nonzero" fill-opacity="1" /><path clip-path="url(#clip690)" d="M50.9921 192.587 L73.2142 192.587 L73.2142 194.578 L60.668 227.147 L55.7838 227.147 L67.5893 196.522 L50.9921 196.522 L50.9921 192.587 Z" fill="#000000" fill-rule="nonzero" fill-opacity="1" /><path clip-path="url(#clip690)" d="M82.3808 192.587 L100.737 192.587 L100.737 196.522 L86.6632 196.522 L86.6632 204.994 Q87.6817 204.647 88.7003 204.485 Q89.7188 204.3 90.7373 204.3 Q96.5243 204.3 99.9039 207.471 Q103.284 210.643 103.284 216.059 Q103.284 221.638 99.8113 224.74 Q96.3391 227.818 90.0197 227.818 Q87.8438 227.818 85.5753 227.448 Q83.3299 227.078 80.9225 226.337 L80.9225 221.638 Q83.0058 222.772 85.2281 223.328 Q87.4503 223.883 89.9271 223.883 Q93.9317 223.883 96.2697 221.777 Q98.6076 219.67 98.6076 216.059 Q98.6076 212.448 96.2697 210.342 Q93.9317 208.235 89.9271 208.235 Q88.0521 208.235 86.1771 208.652 Q84.3253 209.068 82.3808 209.948 L82.3808 192.587 Z" fill="#000000" fill-rule="nonzero" fill-opacity="1" /><path clip-path="url(#clip690)" d="M122.496 195.666 Q118.885 195.666 117.057 199.231 Q115.251 202.772 115.251 209.902 Q115.251 217.008 117.057 220.573 Q118.885 224.115 122.496 224.115 Q126.131 224.115 127.936 220.573 Q129.765 217.008 129.765 209.902 Q129.765 202.772 127.936 199.231 Q126.131 195.666 122.496 195.666 M122.496 191.962 Q128.307 191.962 131.362 196.569 Q134.441 201.152 134.441 209.902 Q134.441 218.629 131.362 223.235 Q128.307 227.818 122.496 227.818 Q116.686 227.818 113.608 223.235 Q110.552 218.629 110.552 209.902 Q110.552 201.152 113.608 196.569 Q116.686 191.962 122.496 191.962 Z" fill="#000000" fill-rule="nonzero" fill-opacity="1" /><path clip-path="url(#clip690)" d="M152.658 195.666 Q149.047 195.666 147.218 199.231 Q145.413 202.772 145.413 209.902 Q145.413 217.008 147.218 220.573 Q149.047 224.115 152.658 224.115 Q156.292 224.115 158.098 220.573 Q159.927 217.008 159.927 209.902 Q159.927 202.772 158.098 199.231 Q156.292 195.666 152.658 195.666 M152.658 191.962 Q158.468 191.962 161.524 196.569 Q164.603 201.152 164.603 209.902 Q164.603 218.629 161.524 223.235 Q158.468 227.818 152.658 227.818 Q146.848 227.818 143.769 223.235 Q140.714 218.629 140.714 209.902 Q140.714 201.152 143.769 196.569 Q146.848 191.962 152.658 191.962 Z" fill="#000000" fill-rule="nonzero" fill-opacity="1" /><path clip-path="url(#clip690)" d="M182.82 195.666 Q179.209 195.666 177.38 199.231 Q175.575 202.772 175.575 209.902 Q175.575 217.008 177.38 220.573 Q179.209 224.115 182.82 224.115 Q186.454 224.115 188.26 220.573 Q190.089 217.008 190.089 209.902 Q190.089 202.772 188.26 199.231 Q186.454 195.666 182.82 195.666 M182.82 191.962 Q188.63 191.962 191.686 196.569 Q194.765 201.152 194.765 209.902 Q194.765 218.629 191.686 223.235 Q188.63 227.818 182.82 227.818 Q177.01 227.818 173.931 223.235 Q170.876 218.629 170.876 209.902 Q170.876 201.152 173.931 196.569 Q177.01 191.962 182.82 191.962 Z" fill="#000000" fill-rule="nonzero" fill-opacity="1" /><path clip-path="url(#clip690)" d="M1262.23 35.2602 Q1262.23 29.4732 1259.83 26.2904 Q1257.46 23.1075 1253.15 23.1075 Q1248.86 23.1075 1246.46 26.2904 Q1244.09 29.4732 1244.09 35.2602 Q1244.09 41.0183 1246.46 44.2012 Q1248.86 47.384 1253.15 47.384 Q1257.46 47.384 1259.83 44.2012 Q1262.23 41.0183 1262.23 35.2602 M1267.56 47.818 Q1267.56 56.0934 1263.88 60.1154 Q1260.21 64.1663 1252.63 64.1663 Q1249.82 64.1663 1247.33 63.7323 Q1244.84 63.3272 1242.5 62.4592 L1242.5 57.2798 Q1244.84 58.5529 1247.13 59.1606 Q1249.41 59.7682 1251.79 59.7682 Q1257.02 59.7682 1259.63 57.0194 Q1262.23 54.2995 1262.23 48.7729 L1262.23 46.1398 Q1260.58 49.0044 1258.01 50.4222 Q1255.43 51.84 1251.84 51.84 Q1245.88 51.84 1242.24 47.2972 Q1238.59 42.7544 1238.59 35.2602 Q1238.59 27.7371 1242.24 23.1943 Q1245.88 18.6515 1251.84 18.6515 Q1255.43 18.6515 1258.01 20.0693 Q1260.58 21.4872 1262.23 24.3517 L1262.23 19.4328 L1267.56 19.4328 L1267.56 47.818 Z" fill="#000000" fill-rule="nonzero" fill-opacity="1" /><path clip-path="url(#clip690)" d="M1299.85 24.3517 L1299.85 6.81709 L1305.17 6.81709 L1305.17 51.84 L1299.85 51.84 L1299.85 46.9789 Q1298.17 49.8724 1295.59 51.2902 Q1293.05 52.6791 1289.46 52.6791 Q1283.59 52.6791 1279.88 47.9916 Q1276.21 43.3042 1276.21 35.6653 Q1276.21 28.0265 1279.88 23.339 Q1283.59 18.6515 1289.46 18.6515 Q1293.05 18.6515 1295.59 20.0693 Q1298.17 21.4582 1299.85 24.3517 M1281.71 35.6653 Q1281.71 41.5391 1284.11 44.8956 Q1286.54 48.2231 1290.76 48.2231 Q1294.99 48.2231 1297.42 44.8956 Q1299.85 41.5391 1299.85 35.6653 Q1299.85 29.7915 1297.42 26.464 Q1294.99 23.1075 1290.76 23.1075 Q1286.54 23.1075 1284.11 26.464 Q1281.71 29.7915 1281.71 35.6653 Z" fill="#000000" fill-rule="nonzero" fill-opacity="1" /><path clip-path="url(#clip690)" d="M1321.29 46.9789 L1321.29 64.1663 L1315.94 64.1663 L1315.94 19.4328 L1321.29 19.4328 L1321.29 24.3517 Q1322.97 21.4582 1325.51 20.0693 Q1328.09 18.6515 1331.65 18.6515 Q1337.55 18.6515 1341.22 23.339 Q1344.93 28.0265 1344.93 35.6653 Q1344.93 43.3042 1341.22 47.9916 Q1337.55 52.6791 1331.65 52.6791 Q1328.09 52.6791 1325.51 51.2902 Q1322.97 49.8724 1321.29 46.9789 M1339.4 35.6653 Q1339.4 29.7915 1336.97 26.464 Q1334.57 23.1075 1330.35 23.1075 Q1326.12 23.1075 1323.69 26.464 Q1321.29 29.7915 1321.29 35.6653 Q1321.29 41.5391 1323.69 44.8956 Q1326.12 48.2231 1330.35 48.2231 Q1334.57 48.2231 1336.97 44.8956 Q1339.4 41.5391 1339.4 35.6653 Z" fill="#000000" fill-rule="nonzero" fill-opacity="1" /><polyline clip-path="url(#clip692)" style="stroke:#009af9; stroke-linecap:round; stroke-linejoin:round; stroke-width:4; stroke-opacity:1; fill:none" points="290.821,1447.38 415.938,1309.28 541.056,1240.98 666.173,992.456 791.291,912.793 916.408,821.301 1041.53,145.256 1166.64,449.58 1291.76,868.408 1416.88,1000.02 1542,778.563 1667.11,444.818 1792.23,842.957 1917.35,929.587 2042.46,635.357 2167.58,288.922 2292.7,330.082 "/>
<path clip-path="url(#clip690)" d="M301.498 255.881 L566.127 255.881 L566.127 152.201 L301.498 152.201  Z" fill="#ffffff" fill-rule="evenodd" fill-opacity="1"/>
<polyline clip-path="url(#clip690)" style="stroke:#000000; stroke-linecap:round; stroke-linejoin:round; stroke-width:4; stroke-opacity:1; fill:none" points="301.498,255.881 566.127,255.881 566.127,152.201 301.498,152.201 301.498,255.881 "/>
<polyline clip-path="url(#clip690)" style="stroke:#009af9; stroke-linecap:round; stroke-linejoin:round; stroke-width:4; stroke-opacity:1; fill:none" points="325.075,204.041 466.541,204.041 "/>
<path clip-path="url(#clip690)" d="M503.962 223.728 Q502.156 228.358 500.443 229.77 Q498.73 231.182 495.86 231.182 L492.457 231.182 L492.457 227.617 L494.957 227.617 Q496.716 227.617 497.688 226.784 Q498.661 225.95 499.841 222.848 L500.605 220.904 L490.119 195.395 L494.633 195.395 L502.735 215.673 L510.836 195.395 L515.35 195.395 L503.962 223.728 Z" fill="#000000" fill-rule="nonzero" fill-opacity="1" /><path clip-path="url(#clip690)" d="M522.642 217.385 L530.281 217.385 L530.281 191.02 L521.971 192.687 L521.971 188.427 L530.235 186.761 L534.91 186.761 L534.91 217.385 L542.549 217.385 L542.549 221.321 L522.642 221.321 L522.642 217.385 Z" fill="#000000" fill-rule="nonzero" fill-opacity="1" /></svg>
