<?xml version="1.0" encoding="utf-8"?>
<svg xmlns="http://www.w3.org/2000/svg" xmlns:xlink="http://www.w3.org/1999/xlink" width="600" height="300" viewBox="0 0 2400 1200">
<defs>
  <clipPath id="clip970">
    <rect x="0" y="0" width="2400" height="1200"/>
  </clipPath>
</defs>
<path clip-path="url(#clip970)" d="M0 1200 L2400 1200 L2400 0 L0 0  Z" fill="#ffffff" fill-rule="evenodd" fill-opacity="1"/>
<defs>
  <clipPath id="clip971">
    <rect x="480" y="0" width="1681" height="1200"/>
  </clipPath>
</defs>
<path clip-path="url(#clip970)" d="M216.436 1099.09 L1168.64 1099.09 L1168.64 92.1521 L216.436 92.1521  Z" fill="#ffffff" fill-rule="evenodd" fill-opacity="1"/>
<defs>
  <clipPath id="clip972">
    <rect x="216" y="92" width="953" height="1008"/>
  </clipPath>
</defs>
<polyline clip-path="url(#clip972)" style="stroke:#000000; stroke-linecap:round; stroke-linejoin:round; stroke-width:2; stroke-opacity:0.1; fill:none" points="423.045,1099.09 423.045,92.1521 "/>
<polyline clip-path="url(#clip972)" style="stroke:#000000; stroke-linecap:round; stroke-linejoin:round; stroke-width:2; stroke-opacity:0.1; fill:none" points="647.621,1099.09 647.621,92.1521 "/>
<polyline clip-path="url(#clip972)" style="stroke:#000000; stroke-linecap:round; stroke-linejoin:round; stroke-width:2; stroke-opacity:0.1; fill:none" points="872.196,1099.09 872.196,92.1521 "/>
<polyline clip-path="url(#clip972)" style="stroke:#000000; stroke-linecap:round; stroke-linejoin:round; stroke-width:2; stroke-opacity:0.1; fill:none" points="1096.77,1099.09 1096.77,92.1521 "/>
<polyline clip-path="url(#clip972)" style="stroke:#000000; stroke-linecap:round; stroke-linejoin:round; stroke-width:2; stroke-opacity:0.1; fill:none" points="216.436,1093.34 1168.64,1093.34 "/>
<polyline clip-path="url(#clip972)" style="stroke:#000000; stroke-linecap:round; stroke-linejoin:round; stroke-width:2; stroke-opacity:0.1; fill:none" points="216.436,850.167 1168.64,850.167 "/>
<polyline clip-path="url(#clip972)" style="stroke:#000000; stroke-linecap:round; stroke-linejoin:round; stroke-width:2; stroke-opacity:0.1; fill:none" points="216.436,606.994 1168.64,606.994 "/>
<polyline clip-path="url(#clip972)" style="stroke:#000000; stroke-linecap:round; stroke-linejoin:round; stroke-width:2; stroke-opacity:0.1; fill:none" points="216.436,363.822 1168.64,363.822 "/>
<polyline clip-path="url(#clip972)" style="stroke:#000000; stroke-linecap:round; stroke-linejoin:round; stroke-width:2; stroke-opacity:0.1; fill:none" points="216.436,120.65 1168.64,120.65 "/>
<polyline clip-path="url(#clip970)" style="stroke:#000000; stroke-linecap:round; stroke-linejoin:round; stroke-width:4; stroke-opacity:1; fill:none" points="216.436,1099.09 1168.64,1099.09 "/>
<polyline clip-path="url(#clip970)" style="stroke:#000000; stroke-linecap:round; stroke-linejoin:round; stroke-width:4; stroke-opacity:1; fill:none" points="423.045,1099.09 423.045,1080.19 "/>
<polyline clip-path="url(#clip970)" style="stroke:#000000; stroke-linecap:round; stroke-linejoin:round; stroke-width:4; stroke-opacity:1; fill:none" points="647.621,1099.09 647.621,1080.19 "/>
<polyline clip-path="url(#clip970)" style="stroke:#000000; stroke-linecap:round; stroke-linejoin:round; stroke-width:4; stroke-opacity:1; fill:none" points="872.196,1099.09 872.196,1080.19 "/>
<polyline clip-path="url(#clip970)" style="stroke:#000000; stroke-linecap:round; stroke-linejoin:round; stroke-width:4; stroke-opacity:1; fill:none" points="1096.77,1099.09 1096.77,1080.19 "/>
<path clip-path="url(#clip970)" d="M413.323 1126.93 L431.679 1126.93 L431.679 1130.86 L417.605 1130.86 L417.605 1139.34 Q418.624 1138.99 419.642 1138.83 Q420.661 1138.64 421.679 1138.64 Q427.466 1138.64 430.846 1141.81 Q434.226 1144.98 434.226 1150.4 Q434.226 1155.98 430.754 1159.08 Q427.281 1162.16 420.962 1162.16 Q418.786 1162.16 416.517 1161.79 Q414.272 1161.42 411.865 1160.68 L411.865 1155.98 Q413.948 1157.11 416.17 1157.67 Q418.392 1158.22 420.869 1158.22 Q424.874 1158.22 427.212 1156.12 Q429.55 1154.01 429.55 1150.4 Q429.55 1146.79 427.212 1144.68 Q424.874 1142.58 420.869 1142.58 Q418.994 1142.58 417.119 1142.99 Q415.267 1143.41 413.323 1144.29 L413.323 1126.93 Z" fill="#000000" fill-rule="nonzero" fill-opacity="1" /><path clip-path="url(#clip970)" d="M622.308 1157.55 L629.947 1157.55 L629.947 1131.19 L621.637 1132.85 L621.637 1128.59 L629.901 1126.93 L634.577 1126.93 L634.577 1157.55 L642.216 1157.55 L642.216 1161.49 L622.308 1161.49 L622.308 1157.55 Z" fill="#000000" fill-rule="nonzero" fill-opacity="1" /><path clip-path="url(#clip970)" d="M661.66 1130.01 Q658.049 1130.01 656.22 1133.57 Q654.415 1137.11 654.415 1144.24 Q654.415 1151.35 656.22 1154.91 Q658.049 1158.46 661.66 1158.46 Q665.294 1158.46 667.1 1154.91 Q668.928 1151.35 668.928 1144.24 Q668.928 1137.11 667.1 1133.57 Q665.294 1130.01 661.66 1130.01 M661.66 1126.3 Q667.47 1126.3 670.526 1130.91 Q673.604 1135.49 673.604 1144.24 Q673.604 1152.97 670.526 1157.58 Q667.47 1162.16 661.66 1162.16 Q655.85 1162.16 652.771 1157.58 Q649.715 1152.97 649.715 1144.24 Q649.715 1135.49 652.771 1130.91 Q655.85 1126.3 661.66 1126.3 Z" fill="#000000" fill-rule="nonzero" fill-opacity="1" /><path clip-path="url(#clip970)" d="M847.381 1157.55 L855.02 1157.55 L855.02 1131.19 L846.71 1132.85 L846.71 1128.59 L854.974 1126.93 L859.65 1126.93 L859.65 1157.55 L867.289 1157.55 L867.289 1161.49 L847.381 1161.49 L847.381 1157.55 Z" fill="#000000" fill-rule="nonzero" fill-opacity="1" /><path clip-path="url(#clip970)" d="M876.779 1126.93 L895.136 1126.93 L895.136 1130.86 L881.062 1130.86 L881.062 1139.34 Q882.08 1138.99 883.099 1138.83 Q884.117 1138.64 885.136 1138.64 Q890.923 1138.64 894.302 1141.81 Q897.682 1144.98 897.682 1150.4 Q897.682 1155.98 894.21 1159.08 Q890.738 1162.16 884.418 1162.16 Q882.242 1162.16 879.974 1161.79 Q877.728 1161.42 875.321 1160.68 L875.321 1155.98 Q877.404 1157.11 879.626 1157.67 Q881.849 1158.22 884.326 1158.22 Q888.33 1158.22 890.668 1156.12 Q893.006 1154.01 893.006 1150.4 Q893.006 1146.79 890.668 1144.68 Q888.33 1142.58 884.326 1142.58 Q882.451 1142.58 880.576 1142.99 Q878.724 1143.41 876.779 1144.29 L876.779 1126.93 Z" fill="#000000" fill-rule="nonzero" fill-opacity="1" /><path clip-path="url(#clip970)" d="M1075.54 1157.55 L1091.86 1157.55 L1091.86 1161.49 L1069.92 1161.49 L1069.92 1157.55 Q1072.58 1154.8 1077.16 1150.17 Q1081.77 1145.52 1082.95 1144.17 Q1085.2 1141.65 1086.08 1139.91 Q1086.98 1138.15 1086.98 1136.46 Q1086.98 1133.71 1085.04 1131.97 Q1083.11 1130.24 1080.01 1130.24 Q1077.81 1130.24 1075.36 1131 Q1072.93 1131.77 1070.15 1133.32 L1070.15 1128.59 Q1072.98 1127.46 1075.43 1126.88 Q1077.88 1126.3 1079.92 1126.3 Q1085.29 1126.3 1088.48 1128.99 Q1091.68 1131.67 1091.68 1136.16 Q1091.68 1138.29 1090.87 1140.21 Q1090.08 1142.11 1087.98 1144.71 Q1087.4 1145.38 1084.29 1148.59 Q1081.19 1151.79 1075.54 1157.55 Z" fill="#000000" fill-rule="nonzero" fill-opacity="1" /><path clip-path="url(#clip970)" d="M1111.68 1130.01 Q1108.07 1130.01 1106.24 1133.57 Q1104.43 1137.11 1104.43 1144.24 Q1104.43 1151.35 1106.24 1154.91 Q1108.07 1158.46 1111.68 1158.46 Q1115.31 1158.46 1117.12 1154.91 Q1118.95 1151.35 1118.95 1144.24 Q1118.95 1137.11 1117.12 1133.57 Q1115.31 1130.01 1111.68 1130.01 M1111.68 1126.3 Q1117.49 1126.3 1120.54 1130.91 Q1123.62 1135.49 1123.62 1144.24 Q1123.62 1152.97 1120.54 1157.58 Q1117.49 1162.16 1111.68 1162.16 Q1105.87 1162.16 1102.79 1157.58 Q1099.73 1152.97 1099.73 1144.24 Q1099.73 1135.49 1102.79 1130.91 Q1105.87 1126.3 1111.68 1126.3 Z" fill="#000000" fill-rule="nonzero" fill-opacity="1" /><polyline clip-path="url(#clip970)" style="stroke:#000000; stroke-linecap:round; stroke-linejoin:round; stroke-width:4; stroke-opacity:1; fill:none" points="216.436,1099.09 216.436,92.1521 "/>
<polyline clip-path="url(#clip970)" style="stroke:#000000; stroke-linecap:round; stroke-linejoin:round; stroke-width:4; stroke-opacity:1; fill:none" points="216.436,1093.34 235.334,1093.34 "/>
<polyline clip-path="url(#clip970)" style="stroke:#000000; stroke-linecap:round; stroke-linejoin:round; stroke-width:4; stroke-opacity:1; fill:none" points="216.436,850.167 235.334,850.167 "/>
<polyline clip-path="url(#clip970)" style="stroke:#000000; stroke-linecap:round; stroke-linejoin:round; stroke-width:4; stroke-opacity:1; fill:none" points="216.436,606.994 235.334,606.994 "/>
<polyline clip-path="url(#clip970)" style="stroke:#000000; stroke-linecap:round; stroke-linejoin:round; stroke-width:4; stroke-opacity:1; fill:none" points="216.436,363.822 235.334,363.822 "/>
<polyline clip-path="url(#clip970)" style="stroke:#000000; stroke-linecap:round; stroke-linejoin:round; stroke-width:4; stroke-opacity:1; fill:none" points="216.436,120.65 235.334,120.65 "/>
<path clip-path="url(#clip970)" d="M62.9365 1079.14 Q59.3254 1079.14 57.4967 1082.7 Q55.6912 1086.24 55.6912 1093.37 Q55.6912 1100.48 57.4967 1104.04 Q59.3254 1107.59 62.9365 1107.59 Q66.5707 1107.59 68.3763 1104.04 Q70.205 1100.48 70.205 1093.37 Q70.205 1086.24 68.3763 1082.7 Q66.5707 1079.14 62.9365 1079.14 M62.9365 1075.43 Q68.7467 1075.43 71.8022 1080.04 Q74.8809 1084.62 74.8809 1093.37 Q74.8809 1102.1 71.8022 1106.71 Q68.7467 1111.29 62.9365 1111.29 Q57.1264 1111.29 54.0477 1106.71 Q50.9921 1102.1 50.9921 1093.37 Q50.9921 1084.62 54.0477 1080.04 Q57.1264 1075.43 62.9365 1075.43 Z" fill="#000000" fill-rule="nonzero" fill-opacity="1" /><path clip-path="url(#clip970)" d="M83.0984 1104.74 L87.9827 1104.74 L87.9827 1110.62 L83.0984 1110.62 L83.0984 1104.74 Z" fill="#000000" fill-rule="nonzero" fill-opacity="1" /><path clip-path="url(#clip970)" d="M108.168 1079.14 Q104.557 1079.14 102.728 1082.7 Q100.922 1086.24 100.922 1093.37 Q100.922 1100.48 102.728 1104.04 Q104.557 1107.59 108.168 1107.59 Q111.802 1107.59 113.608 1104.04 Q115.436 1100.48 115.436 1093.37 Q115.436 1086.24 113.608 1082.7 Q111.802 1079.14 108.168 1079.14 M108.168 1075.43 Q113.978 1075.43 117.033 1080.04 Q120.112 1084.62 120.112 1093.37 Q120.112 1102.1 117.033 1106.71 Q113.978 1111.29 108.168 1111.29 Q102.358 1111.29 99.2789 1106.71 Q96.2234 1102.1 96.2234 1093.37 Q96.2234 1084.62 99.2789 1080.04 Q102.358 1075.43 108.168 1075.43 Z" fill="#000000" fill-rule="nonzero" fill-opacity="1" /><path clip-path="url(#clip970)" d="M138.33 1079.14 Q134.719 1079.14 132.89 1082.7 Q131.084 1086.24 131.084 1093.37 Q131.084 1100.48 132.89 1104.04 Q134.719 1107.59 138.33 1107.59 Q141.964 1107.59 143.769 1104.04 Q145.598 1100.48 145.598 1093.37 Q145.598 1086.24 143.769 1082.7 Q141.964 1079.14 138.33 1079.14 M138.33 1075.43 Q144.14 1075.43 147.195 1080.04 Q150.274 1084.62 150.274 1093.37 Q150.274 1102.1 147.195 1106.71 Q144.14 1111.29 138.33 1111.29 Q132.519 1111.29 129.441 1106.71 Q126.385 1102.1 126.385 1093.37 Q126.385 1084.62 129.441 1080.04 Q132.519 1075.43 138.33 1075.43 Z" fill="#000000" fill-rule="nonzero" fill-opacity="1" /><path clip-path="url(#clip970)" d="M168.491 1079.14 Q164.88 1079.14 163.052 1082.7 Q161.246 1086.24 161.246 1093.37 Q161.246 1100.48 163.052 1104.04 Q164.88 1107.59 168.491 1107.59 Q172.126 1107.59 173.931 1104.04 Q175.76 1100.48 175.76 1093.37 Q175.76 1086.24 173.931 1082.7 Q172.126 1079.14 168.491 1079.14 M168.491 1075.43 Q174.302 1075.43 177.357 1080.04 Q180.436 1084.62 180.436 1093.37 Q180.436 1102.1 177.357 1106.71 Q174.302 1111.29 168.491 1111.29 Q162.681 1111.29 159.603 1106.71 Q156.547 1102.1 156.547 1093.37 Q156.547 1084.62 159.603 1080.04 Q162.681 1075.43 168.491 1075.43 Z" fill="#000000" fill-rule="nonzero" fill-opacity="1" /><path clip-path="url(#clip970)" d="M63.9319 835.965 Q60.3208 835.965 58.4921 839.53 Q56.6865 843.072 56.6865 850.201 Q56.6865 857.308 58.4921 860.872 Q60.3208 864.414 63.9319 864.414 Q67.5661 864.414 69.3717 860.872 Q71.2004 857.308 71.2004 850.201 Q71.2004 843.072 69.3717 839.53 Q67.5661 835.965 63.9319 835.965 M63.9319 832.262 Q69.742 832.262 72.7976 836.868 Q75.8763 841.451 75.8763 850.201 Q75.8763 858.928 72.7976 863.534 Q69.742 868.118 63.9319 868.118 Q58.1217 868.118 55.043 863.534 Q51.9875 858.928 51.9875 850.201 Q51.9875 841.451 55.043 836.868 Q58.1217 832.262 63.9319 832.262 Z" fill="#000000" fill-rule="nonzero" fill-opacity="1" /><path clip-path="url(#clip970)" d="M84.0938 861.567 L88.978 861.567 L88.978 867.447 L84.0938 867.447 L84.0938 861.567 Z" fill="#000000" fill-rule="nonzero" fill-opacity="1" /><path clip-path="url(#clip970)" d="M109.163 835.965 Q105.552 835.965 103.723 839.53 Q101.918 843.072 101.918 850.201 Q101.918 857.308 103.723 860.872 Q105.552 864.414 109.163 864.414 Q112.797 864.414 114.603 860.872 Q116.432 857.308 116.432 850.201 Q116.432 843.072 114.603 839.53 Q112.797 835.965 109.163 835.965 M109.163 832.262 Q114.973 832.262 118.029 836.868 Q121.107 841.451 121.107 850.201 Q121.107 858.928 118.029 863.534 Q114.973 868.118 109.163 868.118 Q103.353 868.118 100.274 863.534 Q97.2187 858.928 97.2187 850.201 Q97.2187 841.451 100.274 836.868 Q103.353 832.262 109.163 832.262 Z" fill="#000000" fill-rule="nonzero" fill-opacity="1" /><path clip-path="url(#clip970)" d="M139.325 835.965 Q135.714 835.965 133.885 839.53 Q132.08 843.072 132.08 850.201 Q132.08 857.308 133.885 860.872 Q135.714 864.414 139.325 864.414 Q142.959 864.414 144.765 860.872 Q146.593 857.308 146.593 850.201 Q146.593 843.072 144.765 839.53 Q142.959 835.965 139.325 835.965 M139.325 832.262 Q145.135 832.262 148.191 836.868 Q151.269 841.451 151.269 850.201 Q151.269 858.928 148.191 863.534 Q145.135 868.118 139.325 868.118 Q133.515 868.118 130.436 863.534 Q127.381 858.928 127.381 850.201 Q127.381 841.451 130.436 836.868 Q133.515 832.262 139.325 832.262 Z" fill="#000000" fill-rule="nonzero" fill-opacity="1" /><path clip-path="url(#clip970)" d="M159.533 832.887 L177.89 832.887 L177.89 836.822 L163.816 836.822 L163.816 845.294 Q164.834 844.947 165.853 844.785 Q166.871 844.599 167.89 844.599 Q173.677 844.599 177.056 847.771 Q180.436 850.942 180.436 856.359 Q180.436 861.937 176.964 865.039 Q173.491 868.118 167.172 868.118 Q164.996 868.118 162.728 867.747 Q160.482 867.377 158.075 866.636 L158.075 861.937 Q160.158 863.072 162.38 863.627 Q164.603 864.183 167.079 864.183 Q171.084 864.183 173.422 862.076 Q175.76 859.97 175.76 856.359 Q175.76 852.748 173.422 850.641 Q171.084 848.535 167.079 848.535 Q165.204 848.535 163.329 848.951 Q161.478 849.368 159.533 850.248 L159.533 832.887 Z" fill="#000000" fill-rule="nonzero" fill-opacity="1" /><path clip-path="url(#clip970)" d="M62.9365 592.793 Q59.3254 592.793 57.4967 596.358 Q55.6912 599.9 55.6912 607.029 Q55.6912 614.136 57.4967 617.7 Q59.3254 621.242 62.9365 621.242 Q66.5707 621.242 68.3763 617.7 Q70.205 614.136 70.205 607.029 Q70.205 599.9 68.3763 596.358 Q66.5707 592.793 62.9365 592.793 M62.9365 589.089 Q68.7467 589.089 71.8022 593.696 Q74.8809 598.279 74.8809 607.029 Q74.8809 615.756 71.8022 620.362 Q68.7467 624.946 62.9365 624.946 Q57.1264 624.946 54.0477 620.362 Q50.9921 615.756 50.9921 607.029 Q50.9921 598.279 54.0477 593.696 Q57.1264 589.089 62.9365 589.089 Z" fill="#000000" fill-rule="nonzero" fill-opacity="1" /><path clip-path="url(#clip970)" d="M83.0984 618.395 L87.9827 618.395 L87.9827 624.274 L83.0984 624.274 L83.0984 618.395 Z" fill="#000000" fill-rule="nonzero" fill-opacity="1" /><path clip-path="url(#clip970)" d="M108.168 592.793 Q104.557 592.793 102.728 596.358 Q100.922 599.9 100.922 607.029 Q100.922 614.136 102.728 617.7 Q104.557 621.242 108.168 621.242 Q111.802 621.242 113.608 617.7 Q115.436 614.136 115.436 607.029 Q115.436 599.9 113.608 596.358 Q111.802 592.793 108.168 592.793 M108.168 589.089 Q113.978 589.089 117.033 593.696 Q120.112 598.279 120.112 607.029 Q120.112 615.756 117.033 620.362 Q113.978 624.946 108.168 624.946 Q102.358 624.946 99.2789 620.362 Q96.2234 615.756 96.2234 607.029 Q96.2234 598.279 99.2789 593.696 Q102.358 589.089 108.168 589.089 Z" fill="#000000" fill-rule="nonzero" fill-opacity="1" /><path clip-path="url(#clip970)" d="M129.14 620.339 L136.779 620.339 L136.779 593.974 L128.469 595.64 L128.469 591.381 L136.732 589.714 L141.408 589.714 L141.408 620.339 L149.047 620.339 L149.047 624.274 L129.14 624.274 L129.14 620.339 Z" fill="#000000" fill-rule="nonzero" fill-opacity="1" /><path clip-path="url(#clip970)" d="M168.491 592.793 Q164.88 592.793 163.052 596.358 Q161.246 599.9 161.246 607.029 Q161.246 614.136 163.052 617.7 Q164.88 621.242 168.491 621.242 Q172.126 621.242 173.931 617.7 Q175.76 614.136 175.76 607.029 Q175.76 599.9 173.931 596.358 Q172.126 592.793 168.491 592.793 M168.491 589.089 Q174.302 589.089 177.357 593.696 Q180.436 598.279 180.436 607.029 Q180.436 615.756 177.357 620.362 Q174.302 624.946 168.491 624.946 Q162.681 624.946 159.603 620.362 Q156.547 615.756 156.547 607.029 Q156.547 598.279 159.603 593.696 Q162.681 589.089 168.491 589.089 Z" fill="#000000" fill-rule="nonzero" fill-opacity="1" /><path clip-path="url(#clip970)" d="M63.9319 349.621 Q60.3208 349.621 58.4921 353.186 Q56.6865 356.728 56.6865 363.857 Q56.6865 370.964 58.4921 374.528 Q60.3208 378.07 63.9319 378.07 Q67.5661 378.07 69.3717 374.528 Q71.2004 370.964 71.2004 363.857 Q71.2004 356.728 69.3717 353.186 Q67.5661 349.621 63.9319 349.621 M63.9319 345.917 Q69.742 345.917 72.7976 350.524 Q75.8763 355.107 75.8763 363.857 Q75.8763 372.584 72.7976 377.19 Q69.742 381.774 63.9319 381.774 Q58.1217 381.774 55.043 377.19 Q51.9875 372.584 51.9875 363.857 Q51.9875 355.107 55.043 350.524 Q58.1217 345.917 63.9319 345.917 Z" fill="#000000" fill-rule="nonzero" fill-opacity="1" /><path clip-path="url(#clip970)" d="M84.0938 375.223 L88.978 375.223 L88.978 381.102 L84.0938 381.102 L84.0938 375.223 Z" fill="#000000" fill-rule="nonzero" fill-opacity="1" /><path clip-path="url(#clip970)" d="M109.163 349.621 Q105.552 349.621 103.723 353.186 Q101.918 356.728 101.918 363.857 Q101.918 370.964 103.723 374.528 Q105.552 378.07 109.163 378.07 Q112.797 378.07 114.603 374.528 Q116.432 370.964 116.432 363.857 Q116.432 356.728 114.603 353.186 Q112.797 349.621 109.163 349.621 M109.163 345.917 Q114.973 345.917 118.029 350.524 Q121.107 355.107 121.107 363.857 Q121.107 372.584 118.029 377.19 Q114.973 381.774 109.163 381.774 Q103.353 381.774 100.274 377.19 Q97.2187 372.584 97.2187 363.857 Q97.2187 355.107 100.274 350.524 Q103.353 345.917 109.163 345.917 Z" fill="#000000" fill-rule="nonzero" fill-opacity="1" /><path clip-path="url(#clip970)" d="M130.135 377.167 L137.774 377.167 L137.774 350.802 L129.464 352.468 L129.464 348.209 L137.728 346.542 L142.404 346.542 L142.404 377.167 L150.043 377.167 L150.043 381.102 L130.135 381.102 L130.135 377.167 Z" fill="#000000" fill-rule="nonzero" fill-opacity="1" /><path clip-path="url(#clip970)" d="M159.533 346.542 L177.89 346.542 L177.89 350.478 L163.816 350.478 L163.816 358.95 Q164.834 358.602 165.853 358.44 Q166.871 358.255 167.89 358.255 Q173.677 358.255 177.056 361.427 Q180.436 364.598 180.436 370.014 Q180.436 375.593 176.964 378.695 Q173.491 381.774 167.172 381.774 Q164.996 381.774 162.728 381.403 Q160.482 381.033 158.075 380.292 L158.075 375.593 Q160.158 376.727 162.38 377.283 Q164.603 377.839 167.079 377.839 Q171.084 377.839 173.422 375.732 Q175.76 373.626 175.76 370.014 Q175.76 366.403 173.422 364.297 Q171.084 362.19 167.079 362.19 Q165.204 362.19 163.329 362.607 Q161.478 363.024 159.533 363.903 L159.533 346.542 Z" fill="#000000" fill-rule="nonzero" fill-opacity="1" /><path clip-path="url(#clip970)" d="M62.9365 106.449 Q59.3254 106.449 57.4967 110.014 Q55.6912 113.555 55.6912 120.685 Q55.6912 127.791 57.4967 131.356 Q59.3254 134.898 62.9365 134.898 Q66.5707 134.898 68.3763 131.356 Q70.205 127.791 70.205 120.685 Q70.205 113.555 68.3763 110.014 Q66.5707 106.449 62.9365 106.449 M62.9365 102.745 Q68.7467 102.745 71.8022 107.352 Q74.8809 111.935 74.8809 120.685 Q74.8809 129.412 71.8022 134.018 Q68.7467 138.602 62.9365 138.602 Q57.1264 138.602 54.0477 134.018 Q50.9921 129.412 50.9921 120.685 Q50.9921 111.935 54.0477 107.352 Q57.1264 102.745 62.9365 102.745 Z" fill="#000000" fill-rule="nonzero" fill-opacity="1" /><path clip-path="url(#clip970)" d="M83.0984 132.051 L87.9827 132.051 L87.9827 137.93 L83.0984 137.93 L83.0984 132.051 Z" fill="#000000" fill-rule="nonzero" fill-opacity="1" /><path clip-path="url(#clip970)" d="M108.168 106.449 Q104.557 106.449 102.728 110.014 Q100.922 113.555 100.922 120.685 Q100.922 127.791 102.728 131.356 Q104.557 134.898 108.168 134.898 Q111.802 134.898 113.608 131.356 Q115.436 127.791 115.436 120.685 Q115.436 113.555 113.608 110.014 Q111.802 106.449 108.168 106.449 M108.168 102.745 Q113.978 102.745 117.033 107.352 Q120.112 111.935 120.112 120.685 Q120.112 129.412 117.033 134.018 Q113.978 138.602 108.168 138.602 Q102.358 138.602 99.2789 134.018 Q96.2234 129.412 96.2234 120.685 Q96.2234 111.935 99.2789 107.352 Q102.358 102.745 108.168 102.745 Z" fill="#000000" fill-rule="nonzero" fill-opacity="1" /><path clip-path="url(#clip970)" d="M132.357 133.995 L148.677 133.995 L148.677 137.93 L126.732 137.93 L126.732 133.995 Q129.394 131.241 133.978 126.611 Q138.584 121.958 139.765 120.616 Q142.01 118.092 142.89 116.356 Q143.793 114.597 143.793 112.907 Q143.793 110.153 141.848 108.417 Q139.927 106.68 136.825 106.68 Q134.626 106.68 132.172 107.444 Q129.742 108.208 126.964 109.759 L126.964 105.037 Q129.788 103.903 132.242 103.324 Q134.695 102.745 136.732 102.745 Q142.103 102.745 145.297 105.43 Q148.492 108.116 148.492 112.606 Q148.492 114.736 147.681 116.657 Q146.894 118.555 144.788 121.148 Q144.209 121.819 141.107 125.037 Q138.006 128.231 132.357 133.995 Z" fill="#000000" fill-rule="nonzero" fill-opacity="1" /><path clip-path="url(#clip970)" d="M168.491 106.449 Q164.88 106.449 163.052 110.014 Q161.246 113.555 161.246 120.685 Q161.246 127.791 163.052 131.356 Q164.88 134.898 168.491 134.898 Q172.126 134.898 173.931 131.356 Q175.76 127.791 175.76 120.685 Q175.76 113.555 173.931 110.014 Q172.126 106.449 168.491 106.449 M168.491 102.745 Q174.302 102.745 177.357 107.352 Q180.436 111.935 180.436 120.685 Q180.436 129.412 177.357 134.018 Q174.302 138.602 168.491 138.602 Q162.681 138.602 159.603 134.018 Q156.547 129.412 156.547 120.685 Q156.547 111.935 159.603 107.352 Q162.681 102.745 168.491 102.745 Z" fill="#000000" fill-rule="nonzero" fill-opacity="1" /><path clip-path="url(#clip970)" d="M625.153 30.8748 L625.153 33.2186 L603.122 33.2186 Q603.435 38.1665 606.091 40.7706 Q608.773 43.3487 613.539 43.3487 Q616.299 43.3487 618.877 42.6716 Q621.481 41.9946 624.033 40.6404 L624.033 45.1716 Q621.455 46.2654 618.747 46.8383 Q616.039 47.4112 613.252 47.4112 Q606.273 47.4112 602.185 43.3487 Q598.122 39.2862 598.122 32.3592 Q598.122 25.1978 601.976 21.0051 Q605.856 16.7864 612.419 16.7864 Q618.304 16.7864 621.716 20.5884 Q625.153 24.3645 625.153 30.8748 M620.362 29.4686 Q620.309 25.5363 618.148 23.1926 Q616.013 20.8488 612.471 20.8488 Q608.461 20.8488 606.039 23.1145 Q603.643 25.3801 603.278 29.4946 L620.362 29.4686 Z" fill="#000000" fill-rule="nonzero" fill-opacity="1" /><path clip-path="url(#clip970)" d="M632.523 35.1456 L632.523 17.4895 L637.315 17.4895 L637.315 34.9634 Q637.315 39.104 638.929 41.1873 Q640.544 43.2446 643.773 43.2446 Q647.653 43.2446 649.893 40.7706 Q652.158 38.2967 652.158 34.0259 L652.158 17.4895 L656.95 17.4895 L656.95 46.656 L652.158 46.656 L652.158 42.1769 Q650.413 44.8331 648.096 46.1352 Q645.804 47.4112 642.757 47.4112 Q637.731 47.4112 635.127 44.2862 Q632.523 41.1612 632.523 35.1456 M644.58 16.7864 L644.58 16.7864 Z" fill="#000000" fill-rule="nonzero" fill-opacity="1" /><path clip-path="url(#clip970)" d="M683.721 21.9686 Q682.913 21.4999 681.95 21.2916 Q681.012 21.0572 679.866 21.0572 Q675.804 21.0572 673.616 23.7134 Q671.455 26.3436 671.455 31.2915 L671.455 46.656 L666.637 46.656 L666.637 17.4895 L671.455 17.4895 L671.455 22.0207 Q672.965 19.3645 675.387 18.0884 Q677.809 16.7864 681.273 16.7864 Q681.767 16.7864 682.366 16.8645 Q682.965 16.9166 683.695 17.0468 L683.721 21.9686 Z" fill="#000000" fill-rule="nonzero" fill-opacity="1" /><path clip-path="url(#clip970)" d="M688.747 17.4895 L693.538 17.4895 L693.538 46.656 L688.747 46.656 L688.747 17.4895 M688.747 6.13538 L693.538 6.13538 L693.538 12.2031 L688.747 12.2031 L688.747 6.13538 Z" fill="#000000" fill-rule="nonzero" fill-opacity="1" /><path clip-path="url(#clip970)" d="M724.502 32.0988 Q724.502 26.8124 722.314 23.8176 Q720.153 20.7968 716.351 20.7968 Q712.549 20.7968 710.361 23.8176 Q708.2 26.8124 708.2 32.0988 Q708.2 37.3852 710.361 40.406 Q712.549 43.4008 716.351 43.4008 Q720.153 43.4008 722.314 40.406 Q724.502 37.3852 724.502 32.0988 M708.2 21.9165 Q709.71 19.3124 712.002 18.0624 Q714.319 16.7864 717.523 16.7864 Q722.835 16.7864 726.142 21.0051 Q729.476 25.2238 729.476 32.0988 Q729.476 38.9737 726.142 43.1925 Q722.835 47.4112 717.523 47.4112 Q714.319 47.4112 712.002 46.1612 Q709.71 44.8852 708.2 42.281 L708.2 46.656 L703.382 46.656 L703.382 6.13538 L708.2 6.13538 L708.2 21.9165 Z" fill="#000000" fill-rule="nonzero" fill-opacity="1" /><path clip-path="url(#clip970)" d="M748.72 20.8488 Q744.866 20.8488 742.627 23.8697 Q740.387 26.8644 740.387 32.0988 Q740.387 37.3331 742.6 40.354 Q744.84 43.3487 748.72 43.3487 Q752.548 43.3487 754.788 40.3279 Q757.028 37.3071 757.028 32.0988 Q757.028 26.9165 754.788 23.8957 Q752.548 20.8488 748.72 20.8488 M748.72 16.7864 Q754.97 16.7864 758.538 20.8488 Q762.106 24.9113 762.106 32.0988 Q762.106 39.2602 758.538 43.3487 Q754.97 47.4112 748.72 47.4112 Q742.444 47.4112 738.877 43.3487 Q735.335 39.2602 735.335 32.0988 Q735.335 24.9113 738.877 20.8488 Q742.444 16.7864 748.72 16.7864 Z" fill="#000000" fill-rule="nonzero" fill-opacity="1" /><path clip-path="url(#clip970)" d="M786.949 21.9686 Q786.142 21.4999 785.178 21.2916 Q784.241 21.0572 783.095 21.0572 Q779.033 21.0572 776.845 23.7134 Q774.684 26.3436 774.684 31.2915 L774.684 46.656 L769.866 46.656 L769.866 17.4895 L774.684 17.4895 L774.684 22.0207 Q776.194 19.3645 778.616 18.0884 Q781.038 16.7864 784.501 16.7864 Q784.996 16.7864 785.595 16.8645 Q786.194 16.9166 786.923 17.0468 L786.949 21.9686 Z" fill="#000000" fill-rule="nonzero" fill-opacity="1" /><path clip-path="url(#clip972)" d="M243.385 1013.29 L288.3 1037.26 L333.215 1064.3 L378.13 1047.59 L423.045 1043.68 L467.96 999.75 L512.875 1016.25 L557.79 1022.4 L602.706 1008.61 L647.621 1011.48 L692.536 1034.55 L737.451 1032.55 L782.366 1048.69 L827.281 1032.95 L872.196 990.97 L917.111 1002.22 L962.026 1025.47 L1006.94 1045.33 L1051.86 1059.58 L1096.77 1048.96 L1141.69 1070.59 L1141.69 918.436 L1096.77 946.061 L1051.86 932.587 L1006.94 899.42 L962.026 920.331 L917.111 923.183 L872.196 891.455 L827.281 902.428 L782.366 920.311 L737.451 940.69 L692.536 959.45 L647.621 947.877 L602.706 956.447 L557.79 980.319 L512.875 956.443 L467.96 950.443 L423.045 922.92 L378.13 988.218 L333.215 990.02 L288.3 994.946 L243.385 1013.29  Z" fill="#009af9" fill-rule="evenodd" fill-opacity="0.1"/>
<polyline clip-path="url(#clip972)" style="stroke:#009af9; stroke-linecap:round; stroke-linejoin:round; stroke-width:4; stroke-opacity:1; fill:none" points="243.385,1013.29 288.3,1016.1 333.215,1027.16 378.13,1017.9 423.045,983.299 467.96,975.096 512.875,986.348 557.79,1001.36 602.706,982.527 647.621,979.677 692.536,996.998 737.451,986.621 782.366,984.502 827.281,967.691 872.196,941.212 917.111,962.702 962.026,972.898 1006.94,972.374 1051.86,996.085 1096.77,997.509 1141.69,994.513 "/>
<path clip-path="url(#clip972)" d="M243.385 1013.29 L288.3 120.65 L333.215 120.65 L378.13 120.65 L423.045 120.65 L467.96 120.65 L512.875 120.65 L557.79 120.65 L602.706 120.65 L647.621 120.65 L692.536 120.65 L737.451 120.65 L782.366 120.65 L827.281 120.65 L872.196 120.65 L917.111 120.65 L962.026 120.65 L1006.94 120.65 L1051.86 120.65 L1096.77 120.65 L1141.69 120.65 L1141.69 120.65 L1096.77 120.65 L1051.86 120.65 L1006.94 120.65 L962.026 120.65 L917.111 120.65 L872.196 120.65 L827.281 120.65 L782.366 120.65 L737.451 120.65 L692.536 120.65 L647.621 120.65 L602.706 120.65 L557.79 120.65 L512.875 120.65 L467.96 120.65 L423.045 120.65 L378.13 120.65 L333.215 120.65 L288.3 120.65 L243.385 1013.29  Z" fill="#e26f46" fill-rule="evenodd" fill-opacity="0.1"/>
<polyline clip-path="url(#clip972)" style="stroke:#e26f46; stroke-linecap:round; stroke-linejoin:round; stroke-width:4; stroke-opacity:1; fill:none" points="243.385,1013.29 288.3,120.65 333.215,120.65 378.13,120.65 423.045,120.65 467.96,120.65 512.875,120.65 557.79,120.65 602.706,120.65 647.621,120.65 692.536,120.65 737.451,120.65 782.366,120.65 827.281,120.65 872.196,120.65 917.111,120.65 962.026,120.65 1006.94,120.65 1051.86,120.65 1096.77,120.65 1141.69,120.65 "/>
<path clip-path="url(#clip970)" d="M1400.56 1099.09 L2352.76 1099.09 L2352.76 92.1521 L1400.56 92.1521  Z" fill="#ffffff" fill-rule="evenodd" fill-opacity="1"/>
<defs>
  <clipPath id="clip973">
    <rect x="1400" y="92" width="953" height="1008"/>
  </clipPath>
</defs>
<polyline clip-path="url(#clip973)" style="stroke:#000000; stroke-linecap:round; stroke-linejoin:round; stroke-width:2; stroke-opacity:0.1; fill:none" points="1607.17,1099.09 1607.17,92.1521 "/>
<polyline clip-path="url(#clip973)" style="stroke:#000000; stroke-linecap:round; stroke-linejoin:round; stroke-width:2; stroke-opacity:0.1; fill:none" points="1831.74,1099.09 1831.74,92.1521 "/>
<polyline clip-path="url(#clip973)" style="stroke:#000000; stroke-linecap:round; stroke-linejoin:round; stroke-width:2; stroke-opacity:0.1; fill:none" points="2056.32,1099.09 2056.32,92.1521 "/>
<polyline clip-path="url(#clip973)" style="stroke:#000000; stroke-linecap:round; stroke-linejoin:round; stroke-width:2; stroke-opacity:0.1; fill:none" points="2280.89,1099.09 2280.89,92.1521 "/>
<polyline clip-path="url(#clip973)" style="stroke:#000000; stroke-linecap:round; stroke-linejoin:round; stroke-width:2; stroke-opacity:0.1; fill:none" points="1400.56,998.301 2352.76,998.301 "/>
<polyline clip-path="url(#clip973)" style="stroke:#000000; stroke-linecap:round; stroke-linejoin:round; stroke-width:2; stroke-opacity:0.1; fill:none" points="1400.56,860.634 2352.76,860.634 "/>
<polyline clip-path="url(#clip973)" style="stroke:#000000; stroke-linecap:round; stroke-linejoin:round; stroke-width:2; stroke-opacity:0.1; fill:none" points="1400.56,722.968 2352.76,722.968 "/>
<polyline clip-path="url(#clip973)" style="stroke:#000000; stroke-linecap:round; stroke-linejoin:round; stroke-width:2; stroke-opacity:0.1; fill:none" points="1400.56,585.302 2352.76,585.302 "/>
<polyline clip-path="url(#clip973)" style="stroke:#000000; stroke-linecap:round; stroke-linejoin:round; stroke-width:2; stroke-opacity:0.1; fill:none" points="1400.56,447.635 2352.76,447.635 "/>
<polyline clip-path="url(#clip973)" style="stroke:#000000; stroke-linecap:round; stroke-linejoin:round; stroke-width:2; stroke-opacity:0.1; fill:none" points="1400.56,309.969 2352.76,309.969 "/>
<polyline clip-path="url(#clip973)" style="stroke:#000000; stroke-linecap:round; stroke-linejoin:round; stroke-width:2; stroke-opacity:0.1; fill:none" points="1400.56,172.302 2352.76,172.302 "/>
<polyline clip-path="url(#clip970)" style="stroke:#000000; stroke-linecap:round; stroke-linejoin:round; stroke-width:4; stroke-opacity:1; fill:none" points="1400.56,1099.09 2352.76,1099.09 "/>
<polyline clip-path="url(#clip970)" style="stroke:#000000; stroke-linecap:round; stroke-linejoin:round; stroke-width:4; stroke-opacity:1; fill:none" points="1607.17,1099.09 1607.17,1080.19 "/>
<polyline clip-path="url(#clip970)" style="stroke:#000000; stroke-linecap:round; stroke-linejoin:round; stroke-width:4; stroke-opacity:1; fill:none" points="1831.74,1099.09 1831.74,1080.19 "/>
<polyline clip-path="url(#clip970)" style="stroke:#000000; stroke-linecap:round; stroke-linejoin:round; stroke-width:4; stroke-opacity:1; fill:none" points="2056.32,1099.09 2056.32,1080.19 "/>
<polyline clip-path="url(#clip970)" style="stroke:#000000; stroke-linecap:round; stroke-linejoin:round; stroke-width:4; stroke-opacity:1; fill:none" points="2280.89,1099.09 2280.89,1080.19 "/>
<path clip-path="url(#clip970)" d="M1597.44 1126.93 L1615.8 1126.93 L1615.8 1130.86 L1601.73 1130.86 L1601.73 1139.34 Q1602.74 1138.99 1603.76 1138.83 Q1604.78 1138.64 1605.8 1138.64 Q1611.59 1138.64 1614.97 1141.81 Q1618.35 1144.98 1618.35 1150.4 Q1618.35 1155.98 1614.87 1159.08 Q1611.4 1162.16 1605.08 1162.16 Q1602.91 1162.16 1600.64 1161.79 Q1598.39 1161.42 1595.99 1160.68 L1595.99 1155.98 Q1598.07 1157.11 1600.29 1157.67 Q1602.51 1158.22 1604.99 1158.22 Q1608.99 1158.22 1611.33 1156.12 Q1613.67 1154.01 1613.67 1150.4 Q1613.67 1146.79 1611.33 1144.68 Q1608.99 1142.58 1604.99 1142.58 Q1603.11 1142.58 1601.24 1142.99 Q1599.39 1143.41 1597.44 1144.29 L1597.44 1126.93 Z" fill="#000000" fill-rule="nonzero" fill-opacity="1" /><path clip-path="url(#clip970)" d="M1806.43 1157.55 L1814.07 1157.55 L1814.07 1131.19 L1805.76 1132.85 L1805.76 1128.59 L1814.02 1126.93 L1818.7 1126.93 L1818.7 1157.55 L1826.34 1157.55 L1826.34 1161.49 L1806.43 1161.49 L1806.43 1157.55 Z" fill="#000000" fill-rule="nonzero" fill-opacity="1" /><path clip-path="url(#clip970)" d="M1845.78 1130.01 Q1842.17 1130.01 1840.34 1133.57 Q1838.53 1137.11 1838.53 1144.24 Q1838.53 1151.35 1840.34 1154.91 Q1842.17 1158.46 1845.78 1158.46 Q1849.41 1158.46 1851.22 1154.91 Q1853.05 1151.35 1853.05 1144.24 Q1853.05 1137.11 1851.22 1133.57 Q1849.41 1130.01 1845.78 1130.01 M1845.78 1126.3 Q1851.59 1126.3 1854.65 1130.91 Q1857.72 1135.49 1857.72 1144.24 Q1857.72 1152.97 1854.65 1157.58 Q1851.59 1162.16 1845.78 1162.16 Q1839.97 1162.16 1836.89 1157.58 Q1833.84 1152.97 1833.84 1144.24 Q1833.84 1135.49 1836.89 1130.91 Q1839.97 1126.3 1845.78 1126.3 Z" fill="#000000" fill-rule="nonzero" fill-opacity="1" /><path clip-path="url(#clip970)" d="M2031.5 1157.55 L2039.14 1157.55 L2039.14 1131.19 L2030.83 1132.85 L2030.83 1128.59 L2039.09 1126.93 L2043.77 1126.93 L2043.77 1157.55 L2051.41 1157.55 L2051.41 1161.49 L2031.5 1161.49 L2031.5 1157.55 Z" fill="#000000" fill-rule="nonzero" fill-opacity="1" /><path clip-path="url(#clip970)" d="M2060.9 1126.93 L2079.26 1126.93 L2079.26 1130.86 L2065.18 1130.86 L2065.18 1139.34 Q2066.2 1138.99 2067.22 1138.83 Q2068.24 1138.64 2069.26 1138.64 Q2075.04 1138.64 2078.42 1141.81 Q2081.8 1144.98 2081.8 1150.4 Q2081.8 1155.98 2078.33 1159.08 Q2074.86 1162.16 2068.54 1162.16 Q2066.36 1162.16 2064.09 1161.79 Q2061.85 1161.42 2059.44 1160.68 L2059.44 1155.98 Q2061.52 1157.11 2063.75 1157.67 Q2065.97 1158.22 2068.45 1158.22 Q2072.45 1158.22 2074.79 1156.12 Q2077.13 1154.01 2077.13 1150.4 Q2077.13 1146.79 2074.79 1144.68 Q2072.45 1142.58 2068.45 1142.58 Q2066.57 1142.58 2064.7 1142.99 Q2062.84 1143.41 2060.9 1144.29 L2060.9 1126.93 Z" fill="#000000" fill-rule="nonzero" fill-opacity="1" /><path clip-path="url(#clip970)" d="M2259.67 1157.55 L2275.98 1157.55 L2275.98 1161.49 L2254.04 1161.49 L2254.04 1157.55 Q2256.7 1154.8 2261.29 1150.17 Q2265.89 1145.52 2267.07 1144.17 Q2269.32 1141.65 2270.2 1139.91 Q2271.1 1138.15 2271.1 1136.46 Q2271.1 1133.71 2269.16 1131.97 Q2267.23 1130.24 2264.13 1130.24 Q2261.93 1130.24 2259.48 1131 Q2257.05 1131.77 2254.27 1133.32 L2254.27 1128.59 Q2257.1 1127.46 2259.55 1126.88 Q2262 1126.3 2264.04 1126.3 Q2269.41 1126.3 2272.6 1128.99 Q2275.8 1131.67 2275.8 1136.16 Q2275.8 1138.29 2274.99 1140.21 Q2274.2 1142.11 2272.1 1144.71 Q2271.52 1145.38 2268.42 1148.59 Q2265.31 1151.79 2259.67 1157.55 Z" fill="#000000" fill-rule="nonzero" fill-opacity="1" /><path clip-path="url(#clip970)" d="M2295.8 1130.01 Q2292.19 1130.01 2290.36 1133.57 Q2288.55 1137.11 2288.55 1144.24 Q2288.55 1151.35 2290.36 1154.91 Q2292.19 1158.46 2295.8 1158.46 Q2299.43 1158.46 2301.24 1154.91 Q2303.07 1151.35 2303.07 1144.24 Q2303.07 1137.11 2301.24 1133.57 Q2299.43 1130.01 2295.8 1130.01 M2295.8 1126.3 Q2301.61 1126.3 2304.66 1130.91 Q2307.74 1135.49 2307.74 1144.24 Q2307.74 1152.97 2304.66 1157.58 Q2301.61 1162.16 2295.8 1162.16 Q2289.99 1162.16 2286.91 1157.58 Q2283.85 1152.97 2283.85 1144.24 Q2283.85 1135.49 2286.91 1130.91 Q2289.99 1126.3 2295.8 1126.3 Z" fill="#000000" fill-rule="nonzero" fill-opacity="1" /><polyline clip-path="url(#clip970)" style="stroke:#000000; stroke-linecap:round; stroke-linejoin:round; stroke-width:4; stroke-opacity:1; fill:none" points="1400.56,1099.09 1400.56,92.1521 "/>
<polyline clip-path="url(#clip970)" style="stroke:#000000; stroke-linecap:round; stroke-linejoin:round; stroke-width:4; stroke-opacity:1; fill:none" points="1400.56,998.301 1419.45,998.301 "/>
<polyline clip-path="url(#clip970)" style="stroke:#000000; stroke-linecap:round; stroke-linejoin:round; stroke-width:4; stroke-opacity:1; fill:none" points="1400.56,860.634 1419.45,860.634 "/>
<polyline clip-path="url(#clip970)" style="stroke:#000000; stroke-linecap:round; stroke-linejoin:round; stroke-width:4; stroke-opacity:1; fill:none" points="1400.56,722.968 1419.45,722.968 "/>
<polyline clip-path="url(#clip970)" style="stroke:#000000; stroke-linecap:round; stroke-linejoin:round; stroke-width:4; stroke-opacity:1; fill:none" points="1400.56,585.302 1419.45,585.302 "/>
<polyline clip-path="url(#clip970)" style="stroke:#000000; stroke-linecap:round; stroke-linejoin:round; stroke-width:4; stroke-opacity:1; fill:none" points="1400.56,447.635 1419.45,447.635 "/>
<polyline clip-path="url(#clip970)" style="stroke:#000000; stroke-linecap:round; stroke-linejoin:round; stroke-width:4; stroke-opacity:1; fill:none" points="1400.56,309.969 1419.45,309.969 "/>
<polyline clip-path="url(#clip970)" style="stroke:#000000; stroke-linecap:round; stroke-linejoin:round; stroke-width:4; stroke-opacity:1; fill:none" points="1400.56,172.302 1419.45,172.302 "/>
<path clip-path="url(#clip970)" d="M1268.03 1011.65 L1275.67 1011.65 L1275.67 985.28 L1267.36 986.947 L1267.36 982.687 L1275.62 981.021 L1280.3 981.021 L1280.3 1011.65 L1287.94 1011.65 L1287.94 1015.58 L1268.03 1015.58 L1268.03 1011.65 Z" fill="#000000" fill-rule="nonzero" fill-opacity="1" /><path clip-path="url(#clip970)" d="M1297.38 1009.7 L1302.26 1009.7 L1302.26 1015.58 L1297.38 1015.58 L1297.38 1009.7 Z" fill="#000000" fill-rule="nonzero" fill-opacity="1" /><path clip-path="url(#clip970)" d="M1322.45 984.099 Q1318.84 984.099 1317.01 987.664 Q1315.2 991.206 1315.2 998.335 Q1315.2 1005.44 1317.01 1009.01 Q1318.84 1012.55 1322.45 1012.55 Q1326.08 1012.55 1327.89 1009.01 Q1329.72 1005.44 1329.72 998.335 Q1329.72 991.206 1327.89 987.664 Q1326.08 984.099 1322.45 984.099 M1322.45 980.396 Q1328.26 980.396 1331.32 985.002 Q1334.39 989.585 1334.39 998.335 Q1334.39 1007.06 1331.32 1011.67 Q1328.26 1016.25 1322.45 1016.25 Q1316.64 1016.25 1313.56 1011.67 Q1310.51 1007.06 1310.51 998.335 Q1310.51 989.585 1313.56 985.002 Q1316.64 980.396 1322.45 980.396 Z" fill="#000000" fill-rule="nonzero" fill-opacity="1" /><path clip-path="url(#clip970)" d="M1352.61 984.099 Q1349 984.099 1347.17 987.664 Q1345.37 991.206 1345.37 998.335 Q1345.37 1005.44 1347.17 1009.01 Q1349 1012.55 1352.61 1012.55 Q1356.25 1012.55 1358.05 1009.01 Q1359.88 1005.44 1359.88 998.335 Q1359.88 991.206 1358.05 987.664 Q1356.25 984.099 1352.61 984.099 M1352.61 980.396 Q1358.42 980.396 1361.48 985.002 Q1364.56 989.585 1364.56 998.335 Q1364.56 1007.06 1361.48 1011.67 Q1358.42 1016.25 1352.61 1016.25 Q1346.8 1016.25 1343.72 1011.67 Q1340.67 1007.06 1340.67 998.335 Q1340.67 989.585 1343.72 985.002 Q1346.8 980.396 1352.61 980.396 Z" fill="#000000" fill-rule="nonzero" fill-opacity="1" /><path clip-path="url(#clip970)" d="M1269.63 873.979 L1277.27 873.979 L1277.27 847.614 L1268.95 849.28 L1268.95 845.021 L1277.22 843.354 L1281.89 843.354 L1281.89 873.979 L1289.53 873.979 L1289.53 877.914 L1269.63 877.914 L1269.63 873.979 Z" fill="#000000" fill-rule="nonzero" fill-opacity="1" /><path clip-path="url(#clip970)" d="M1298.98 872.035 L1303.86 872.035 L1303.86 877.914 L1298.98 877.914 L1298.98 872.035 Z" fill="#000000" fill-rule="nonzero" fill-opacity="1" /><path clip-path="url(#clip970)" d="M1324.05 846.433 Q1320.44 846.433 1318.61 849.998 Q1316.8 853.539 1316.8 860.669 Q1316.8 867.775 1318.61 871.34 Q1320.44 874.882 1324.05 874.882 Q1327.68 874.882 1329.49 871.34 Q1331.32 867.775 1331.32 860.669 Q1331.32 853.539 1329.49 849.998 Q1327.68 846.433 1324.05 846.433 M1324.05 842.729 Q1329.86 842.729 1332.91 847.336 Q1335.99 851.919 1335.99 860.669 Q1335.99 869.396 1332.91 874.002 Q1329.86 878.586 1324.05 878.586 Q1318.24 878.586 1315.16 874.002 Q1312.1 869.396 1312.1 860.669 Q1312.1 851.919 1315.16 847.336 Q1318.24 842.729 1324.05 842.729 Z" fill="#000000" fill-rule="nonzero" fill-opacity="1" /><path clip-path="url(#clip970)" d="M1348.24 873.979 L1364.56 873.979 L1364.56 877.914 L1342.61 877.914 L1342.61 873.979 Q1345.27 871.225 1349.86 866.595 Q1354.46 861.942 1355.64 860.6 Q1357.89 858.076 1358.77 856.34 Q1359.67 854.581 1359.67 852.891 Q1359.67 850.137 1357.73 848.401 Q1355.81 846.664 1352.7 846.664 Q1350.51 846.664 1348.05 847.428 Q1345.62 848.192 1342.84 849.743 L1342.84 845.021 Q1345.67 843.887 1348.12 843.308 Q1350.57 842.729 1352.61 842.729 Q1357.98 842.729 1361.18 845.414 Q1364.37 848.1 1364.37 852.59 Q1364.37 854.72 1363.56 856.641 Q1362.77 858.539 1360.67 861.132 Q1360.09 861.803 1356.99 865.021 Q1353.89 868.215 1348.24 873.979 Z" fill="#000000" fill-rule="nonzero" fill-opacity="1" /><path clip-path="url(#clip970)" d="M1267.54 736.313 L1275.18 736.313 L1275.18 709.947 L1266.87 711.614 L1266.87 707.355 L1275.14 705.688 L1279.81 705.688 L1279.81 736.313 L1287.45 736.313 L1287.45 740.248 L1267.54 740.248 L1267.54 736.313 Z" fill="#000000" fill-rule="nonzero" fill-opacity="1" /><path clip-path="url(#clip970)" d="M1296.89 734.368 L1301.78 734.368 L1301.78 740.248 L1296.89 740.248 L1296.89 734.368 Z" fill="#000000" fill-rule="nonzero" fill-opacity="1" /><path clip-path="url(#clip970)" d="M1321.96 708.767 Q1318.35 708.767 1316.52 712.331 Q1314.72 715.873 1314.72 723.003 Q1314.72 730.109 1316.52 733.674 Q1318.35 737.216 1321.96 737.216 Q1325.6 737.216 1327.4 733.674 Q1329.23 730.109 1329.23 723.003 Q1329.23 715.873 1327.4 712.331 Q1325.6 708.767 1321.96 708.767 M1321.96 705.063 Q1327.77 705.063 1330.83 709.669 Q1333.91 714.253 1333.91 723.003 Q1333.91 731.729 1330.83 736.336 Q1327.77 740.919 1321.96 740.919 Q1316.15 740.919 1313.08 736.336 Q1310.02 731.729 1310.02 723.003 Q1310.02 714.253 1313.08 709.669 Q1316.15 705.063 1321.96 705.063 Z" fill="#000000" fill-rule="nonzero" fill-opacity="1" /><path clip-path="url(#clip970)" d="M1354.97 709.762 L1343.17 728.211 L1354.97 728.211 L1354.97 709.762 M1353.75 705.688 L1359.63 705.688 L1359.63 728.211 L1364.56 728.211 L1364.56 732.1 L1359.63 732.1 L1359.63 740.248 L1354.97 740.248 L1354.97 732.1 L1339.37 732.1 L1339.37 727.586 L1353.75 705.688 Z" fill="#000000" fill-rule="nonzero" fill-opacity="1" /><path clip-path="url(#clip970)" d="M1267.87 598.646 L1275.51 598.646 L1275.51 572.281 L1267.2 573.947 L1267.2 569.688 L1275.46 568.022 L1280.14 568.022 L1280.14 598.646 L1287.77 598.646 L1287.77 602.582 L1267.87 602.582 L1267.87 598.646 Z" fill="#000000" fill-rule="nonzero" fill-opacity="1" /><path clip-path="url(#clip970)" d="M1297.22 596.702 L1302.1 596.702 L1302.1 602.582 L1297.22 602.582 L1297.22 596.702 Z" fill="#000000" fill-rule="nonzero" fill-opacity="1" /><path clip-path="url(#clip970)" d="M1322.29 571.1 Q1318.68 571.1 1316.85 574.665 Q1315.04 578.207 1315.04 585.336 Q1315.04 592.443 1316.85 596.008 Q1318.68 599.549 1322.29 599.549 Q1325.92 599.549 1327.73 596.008 Q1329.56 592.443 1329.56 585.336 Q1329.56 578.207 1327.73 574.665 Q1325.92 571.1 1322.29 571.1 M1322.29 567.397 Q1328.1 567.397 1331.15 572.003 Q1334.23 576.586 1334.23 585.336 Q1334.23 594.063 1331.15 598.67 Q1328.1 603.253 1322.29 603.253 Q1316.48 603.253 1313.4 598.67 Q1310.34 594.063 1310.34 585.336 Q1310.34 576.586 1313.4 572.003 Q1316.48 567.397 1322.29 567.397 Z" fill="#000000" fill-rule="nonzero" fill-opacity="1" /><path clip-path="url(#clip970)" d="M1353.03 583.438 Q1349.88 583.438 1348.03 585.591 Q1346.2 587.744 1346.2 591.494 Q1346.2 595.22 1348.03 597.396 Q1349.88 599.549 1353.03 599.549 Q1356.18 599.549 1358.01 597.396 Q1359.86 595.22 1359.86 591.494 Q1359.86 587.744 1358.01 585.591 Q1356.18 583.438 1353.03 583.438 M1362.31 568.785 L1362.31 573.045 Q1360.55 572.211 1358.75 571.772 Q1356.96 571.332 1355.2 571.332 Q1350.57 571.332 1348.12 574.457 Q1345.69 577.582 1345.34 583.901 Q1346.71 581.887 1348.77 580.822 Q1350.83 579.734 1353.31 579.734 Q1358.51 579.734 1361.52 582.906 Q1364.56 586.054 1364.56 591.494 Q1364.56 596.818 1361.41 600.035 Q1358.26 603.253 1353.03 603.253 Q1347.03 603.253 1343.86 598.67 Q1340.69 594.063 1340.69 585.336 Q1340.69 577.142 1344.58 572.281 Q1348.47 567.397 1355.02 567.397 Q1356.78 567.397 1358.56 567.744 Q1360.37 568.091 1362.31 568.785 Z" fill="#000000" fill-rule="nonzero" fill-opacity="1" /><path clip-path="url(#clip970)" d="M1268.12 460.98 L1275.76 460.98 L1275.76 434.614 L1267.45 436.281 L1267.45 432.022 L1275.71 430.355 L1280.39 430.355 L1280.39 460.98 L1288.03 460.98 L1288.03 464.915 L1268.12 464.915 L1268.12 460.98 Z" fill="#000000" fill-rule="nonzero" fill-opacity="1" /><path clip-path="url(#clip970)" d="M1297.47 459.036 L1302.36 459.036 L1302.36 464.915 L1297.47 464.915 L1297.47 459.036 Z" fill="#000000" fill-rule="nonzero" fill-opacity="1" /><path clip-path="url(#clip970)" d="M1322.54 433.434 Q1318.93 433.434 1317.1 436.999 Q1315.3 440.54 1315.3 447.67 Q1315.3 454.776 1317.1 458.341 Q1318.93 461.883 1322.54 461.883 Q1326.18 461.883 1327.98 458.341 Q1329.81 454.776 1329.81 447.67 Q1329.81 440.54 1327.98 436.999 Q1326.18 433.434 1322.54 433.434 M1322.54 429.73 Q1328.35 429.73 1331.41 434.337 Q1334.49 438.92 1334.49 447.67 Q1334.49 456.397 1331.41 461.003 Q1328.35 465.586 1322.54 465.586 Q1316.73 465.586 1313.65 461.003 Q1310.6 456.397 1310.6 447.67 Q1310.6 438.92 1313.65 434.337 Q1316.73 429.73 1322.54 429.73 Z" fill="#000000" fill-rule="nonzero" fill-opacity="1" /><path clip-path="url(#clip970)" d="M1352.7 448.503 Q1349.37 448.503 1347.45 450.286 Q1345.55 452.068 1345.55 455.193 Q1345.55 458.318 1347.45 460.1 Q1349.37 461.883 1352.7 461.883 Q1356.04 461.883 1357.96 460.1 Q1359.88 458.295 1359.88 455.193 Q1359.88 452.068 1357.96 450.286 Q1356.06 448.503 1352.7 448.503 M1348.03 446.513 Q1345.02 445.772 1343.33 443.712 Q1341.66 441.651 1341.66 438.688 Q1341.66 434.545 1344.6 432.138 Q1347.57 429.73 1352.7 429.73 Q1357.87 429.73 1360.81 432.138 Q1363.75 434.545 1363.75 438.688 Q1363.75 441.651 1362.06 443.712 Q1360.39 445.772 1357.4 446.513 Q1360.78 447.3 1362.66 449.591 Q1364.56 451.883 1364.56 455.193 Q1364.56 460.216 1361.48 462.901 Q1358.42 465.586 1352.7 465.586 Q1346.99 465.586 1343.91 462.901 Q1340.85 460.216 1340.85 455.193 Q1340.85 451.883 1342.75 449.591 Q1344.65 447.3 1348.03 446.513 M1346.32 439.128 Q1346.32 441.813 1347.98 443.318 Q1349.67 444.823 1352.7 444.823 Q1355.71 444.823 1357.4 443.318 Q1359.12 441.813 1359.12 439.128 Q1359.12 436.443 1357.4 434.938 Q1355.71 433.434 1352.7 433.434 Q1349.67 433.434 1347.98 434.938 Q1346.32 436.443 1346.32 439.128 Z" fill="#000000" fill-rule="nonzero" fill-opacity="1" /><path clip-path="url(#clip970)" d="M1268.03 323.314 L1275.67 323.314 L1275.67 296.948 L1267.36 298.615 L1267.36 294.355 L1275.62 292.689 L1280.3 292.689 L1280.3 323.314 L1287.94 323.314 L1287.94 327.249 L1268.03 327.249 L1268.03 323.314 Z" fill="#000000" fill-rule="nonzero" fill-opacity="1" /><path clip-path="url(#clip970)" d="M1297.38 321.369 L1302.26 321.369 L1302.26 327.249 L1297.38 327.249 L1297.38 321.369 Z" fill="#000000" fill-rule="nonzero" fill-opacity="1" /><path clip-path="url(#clip970)" d="M1313.26 323.314 L1320.9 323.314 L1320.9 296.948 L1312.59 298.615 L1312.59 294.355 L1320.85 292.689 L1325.53 292.689 L1325.53 323.314 L1333.17 323.314 L1333.17 327.249 L1313.26 327.249 L1313.26 323.314 Z" fill="#000000" fill-rule="nonzero" fill-opacity="1" /><path clip-path="url(#clip970)" d="M1352.61 295.767 Q1349 295.767 1347.17 299.332 Q1345.37 302.874 1345.37 310.004 Q1345.37 317.11 1347.17 320.675 Q1349 324.216 1352.61 324.216 Q1356.25 324.216 1358.05 320.675 Q1359.88 317.11 1359.88 310.004 Q1359.88 302.874 1358.05 299.332 Q1356.25 295.767 1352.61 295.767 M1352.61 292.064 Q1358.42 292.064 1361.48 296.67 Q1364.56 301.254 1364.56 310.004 Q1364.56 318.73 1361.48 323.337 Q1358.42 327.92 1352.61 327.92 Q1346.8 327.92 1343.72 323.337 Q1340.67 318.73 1340.67 310.004 Q1340.67 301.254 1343.72 296.67 Q1346.8 292.064 1352.61 292.064 Z" fill="#000000" fill-rule="nonzero" fill-opacity="1" /><path clip-path="url(#clip970)" d="M1269.63 185.647 L1277.27 185.647 L1277.27 159.282 L1268.95 160.948 L1268.95 156.689 L1277.22 155.022 L1281.89 155.022 L1281.89 185.647 L1289.53 185.647 L1289.53 189.582 L1269.63 189.582 L1269.63 185.647 Z" fill="#000000" fill-rule="nonzero" fill-opacity="1" /><path clip-path="url(#clip970)" d="M1298.98 183.703 L1303.86 183.703 L1303.86 189.582 L1298.98 189.582 L1298.98 183.703 Z" fill="#000000" fill-rule="nonzero" fill-opacity="1" /><path clip-path="url(#clip970)" d="M1314.86 185.647 L1322.5 185.647 L1322.5 159.282 L1314.19 160.948 L1314.19 156.689 L1322.45 155.022 L1327.13 155.022 L1327.13 185.647 L1334.76 185.647 L1334.76 189.582 L1314.86 189.582 L1314.86 185.647 Z" fill="#000000" fill-rule="nonzero" fill-opacity="1" /><path clip-path="url(#clip970)" d="M1348.24 185.647 L1364.56 185.647 L1364.56 189.582 L1342.61 189.582 L1342.61 185.647 Q1345.27 182.893 1349.86 178.263 Q1354.46 173.61 1355.64 172.268 Q1357.89 169.745 1358.77 168.008 Q1359.67 166.249 1359.67 164.559 Q1359.67 161.805 1357.73 160.069 Q1355.81 158.333 1352.7 158.333 Q1350.51 158.333 1348.05 159.096 Q1345.62 159.86 1342.84 161.411 L1342.84 156.689 Q1345.67 155.555 1348.12 154.976 Q1350.57 154.397 1352.61 154.397 Q1357.98 154.397 1361.18 157.083 Q1364.37 159.768 1364.37 164.258 Q1364.37 166.388 1363.56 168.309 Q1362.77 170.208 1360.67 172.8 Q1360.09 173.471 1356.99 176.689 Q1353.89 179.883 1348.24 185.647 Z" fill="#000000" fill-rule="nonzero" fill-opacity="1" /><path clip-path="url(#clip970)" d="M1735.94 31.7342 Q1735.94 26.5259 1733.78 23.6613 Q1731.64 20.7968 1727.76 20.7968 Q1723.91 20.7968 1721.75 23.6613 Q1719.61 26.5259 1719.61 31.7342 Q1719.61 36.9165 1721.75 39.781 Q1723.91 42.6456 1727.76 42.6456 Q1731.64 42.6456 1733.78 39.781 Q1735.94 36.9165 1735.94 31.7342 M1740.73 43.0362 Q1740.73 50.4841 1737.43 54.1039 Q1734.12 57.7497 1727.29 57.7497 Q1724.77 57.7497 1722.53 57.3591 Q1720.29 56.9945 1718.18 56.2132 L1718.18 51.5518 Q1720.29 52.6976 1722.35 53.2445 Q1724.4 53.7914 1726.54 53.7914 Q1731.25 53.7914 1733.6 51.3174 Q1735.94 48.8695 1735.94 43.8956 L1735.94 41.5258 Q1734.46 44.1039 1732.14 45.38 Q1729.82 46.656 1726.59 46.656 Q1721.23 46.656 1717.95 42.5675 Q1714.66 38.479 1714.66 31.7342 Q1714.66 24.9634 1717.95 20.8749 Q1721.23 16.7864 1726.59 16.7864 Q1729.82 16.7864 1732.14 18.0624 Q1734.46 19.3384 1735.94 21.9165 L1735.94 17.4895 L1740.73 17.4895 L1740.73 43.0362 Z" fill="#000000" fill-rule="nonzero" fill-opacity="1" /><path clip-path="url(#clip970)" d="M1769.79 21.9165 L1769.79 6.13538 L1774.59 6.13538 L1774.59 46.656 L1769.79 46.656 L1769.79 42.281 Q1768.28 44.8852 1765.97 46.1612 Q1763.67 47.4112 1760.45 47.4112 Q1755.16 47.4112 1751.83 43.1925 Q1748.52 38.9737 1748.52 32.0988 Q1748.52 25.2238 1751.83 21.0051 Q1755.16 16.7864 1760.45 16.7864 Q1763.67 16.7864 1765.97 18.0624 Q1768.28 19.3124 1769.79 21.9165 M1753.47 32.0988 Q1753.47 37.3852 1755.63 40.406 Q1757.82 43.4008 1761.62 43.4008 Q1765.42 43.4008 1767.61 40.406 Q1769.79 37.3852 1769.79 32.0988 Q1769.79 26.8124 1767.61 23.8176 Q1765.42 20.7968 1761.62 20.7968 Q1757.82 20.7968 1755.63 23.8176 Q1753.47 26.8124 1753.47 32.0988 Z" fill="#000000" fill-rule="nonzero" fill-opacity="1" /><path clip-path="url(#clip970)" d="M1789.09 42.281 L1789.09 57.7497 L1784.27 57.7497 L1784.27 17.4895 L1789.09 17.4895 L1789.09 21.9165 Q1790.6 19.3124 1792.89 18.0624 Q1795.21 16.7864 1798.41 16.7864 Q1803.73 16.7864 1807.03 21.0051 Q1810.37 25.2238 1810.37 32.0988 Q1810.37 38.9737 1807.03 43.1925 Q1803.73 47.4112 1798.41 47.4112 Q1795.21 47.4112 1792.89 46.1612 Q1790.6 44.8852 1789.09 42.281 M1805.39 32.0988 Q1805.39 26.8124 1803.21 23.8176 Q1801.04 20.7968 1797.24 20.7968 Q1793.44 20.7968 1791.25 23.8176 Q1789.09 26.8124 1789.09 32.0988 Q1789.09 37.3852 1791.25 40.406 Q1793.44 43.4008 1797.24 43.4008 Q1801.04 43.4008 1803.21 40.406 Q1805.39 37.3852 1805.39 32.0988 Z" fill="#000000" fill-rule="nonzero" fill-opacity="1" /><path clip-path="url(#clip970)" d="M1854.46 21.9165 L1854.46 6.13538 L1859.25 6.13538 L1859.25 46.656 L1854.46 46.656 L1854.46 42.281 Q1852.95 44.8852 1850.63 46.1612 Q1848.34 47.4112 1845.11 47.4112 Q1839.82 47.4112 1836.49 43.1925 Q1833.18 38.9737 1833.18 32.0988 Q1833.18 25.2238 1836.49 21.0051 Q1839.82 16.7864 1845.11 16.7864 Q1848.34 16.7864 1850.63 18.0624 Q1852.95 19.3124 1854.46 21.9165 M1838.13 32.0988 Q1838.13 37.3852 1840.29 40.406 Q1842.48 43.4008 1846.28 43.4008 Q1850.08 43.4008 1852.27 40.406 Q1854.46 37.3852 1854.46 32.0988 Q1854.46 26.8124 1852.27 23.8176 Q1850.08 20.7968 1846.28 20.7968 Q1842.48 20.7968 1840.29 23.8176 Q1838.13 26.8124 1838.13 32.0988 Z" fill="#000000" fill-rule="nonzero" fill-opacity="1" /><path clip-path="url(#clip970)" d="M1894.06 30.8748 L1894.06 33.2186 L1872.03 33.2186 Q1872.35 38.1665 1875 40.7706 Q1877.68 43.3487 1882.45 43.3487 Q1885.21 43.3487 1887.79 42.6716 Q1890.39 41.9946 1892.95 40.6404 L1892.95 45.1716 Q1890.37 46.2654 1887.66 46.8383 Q1884.95 47.4112 1882.16 47.4112 Q1875.18 47.4112 1871.1 43.3487 Q1867.03 39.2862 1867.03 32.3592 Q1867.03 25.1978 1870.89 21.0051 Q1874.77 16.7864 1881.33 16.7864 Q1887.22 16.7864 1890.63 20.5884 Q1894.06 24.3645 1894.06 30.8748 M1889.27 29.4686 Q1889.22 25.5363 1887.06 23.1926 Q1884.92 20.8488 1881.38 20.8488 Q1877.37 20.8488 1874.95 23.1145 Q1872.55 25.3801 1872.19 29.4946 L1889.27 29.4686 Z" fill="#000000" fill-rule="nonzero" fill-opacity="1" /><path clip-path="url(#clip970)" d="M1916.69 6.13538 L1916.69 10.1197 L1912.11 10.1197 Q1909.53 10.1197 1908.52 11.1614 Q1907.53 12.2031 1907.53 14.9114 L1907.53 17.4895 L1915.42 17.4895 L1915.42 21.2134 L1907.53 21.2134 L1907.53 46.656 L1902.71 46.656 L1902.71 21.2134 L1898.13 21.2134 L1898.13 17.4895 L1902.71 17.4895 L1902.71 15.4583 Q1902.71 10.5885 1904.98 8.37496 Q1907.24 6.13538 1912.16 6.13538 L1916.69 6.13538 Z" fill="#000000" fill-rule="nonzero" fill-opacity="1" /><path clip-path="url(#clip970)" d="M1920.71 6.13538 L1925.5 6.13538 L1925.5 46.656 L1920.71 46.656 L1920.71 6.13538 Z" fill="#000000" fill-rule="nonzero" fill-opacity="1" /><path clip-path="url(#clip970)" d="M1948.78 31.9946 Q1942.97 31.9946 1940.73 33.3227 Q1938.49 34.6509 1938.49 37.854 Q1938.49 40.406 1940.16 41.9164 Q1941.85 43.4008 1944.74 43.4008 Q1948.73 43.4008 1951.12 40.5883 Q1953.54 37.7498 1953.54 33.0623 L1953.54 31.9946 L1948.78 31.9946 M1958.34 30.0155 L1958.34 46.656 L1953.54 46.656 L1953.54 42.2289 Q1951.9 44.8852 1949.46 46.1612 Q1947.01 47.4112 1943.47 47.4112 Q1938.99 47.4112 1936.33 44.9112 Q1933.7 42.3852 1933.7 38.1665 Q1933.7 33.2446 1936.98 30.7446 Q1940.29 28.2446 1946.83 28.2446 L1953.54 28.2446 L1953.54 27.7759 Q1953.54 24.4686 1951.36 22.6718 Q1949.19 20.8488 1945.26 20.8488 Q1942.76 20.8488 1940.39 21.4478 Q1938.02 22.0468 1935.84 23.2447 L1935.84 18.8176 Q1938.47 17.802 1940.94 17.3072 Q1943.41 16.7864 1945.76 16.7864 Q1952.09 16.7864 1955.21 20.0676 Q1958.34 23.3488 1958.34 30.0155 Z" fill="#000000" fill-rule="nonzero" fill-opacity="1" /><path clip-path="url(#clip970)" d="M1972.94 9.20828 L1972.94 17.4895 L1982.81 17.4895 L1982.81 21.2134 L1972.94 21.2134 L1972.94 37.0467 Q1972.94 40.6144 1973.91 41.63 Q1974.9 42.6456 1977.89 42.6456 L1982.81 42.6456 L1982.81 46.656 L1977.89 46.656 Q1972.35 46.656 1970.24 44.5987 Q1968.13 42.5154 1968.13 37.0467 L1968.13 21.2134 L1964.61 21.2134 L1964.61 17.4895 L1968.13 17.4895 L1968.13 9.20828 L1972.94 9.20828 Z" fill="#000000" fill-rule="nonzero" fill-opacity="1" /><path clip-path="url(#clip970)" d="M2000.42 20.8488 Q1996.56 20.8488 1994.32 23.8697 Q1992.09 26.8644 1992.09 32.0988 Q1992.09 37.3331 1994.3 40.354 Q1996.54 43.3487 2000.42 43.3487 Q2004.25 43.3487 2006.49 40.3279 Q2008.73 37.3071 2008.73 32.0988 Q2008.73 26.9165 2006.49 23.8957 Q2004.25 20.8488 2000.42 20.8488 M2000.42 16.7864 Q2006.67 16.7864 2010.24 20.8488 Q2013.8 24.9113 2013.8 32.0988 Q2013.8 39.2602 2010.24 43.3487 Q2006.67 47.4112 2000.42 47.4112 Q1994.14 47.4112 1990.57 43.3487 Q1987.03 39.2602 1987.03 32.0988 Q1987.03 24.9113 1990.57 20.8488 Q1994.14 16.7864 2000.42 16.7864 Z" fill="#000000" fill-rule="nonzero" fill-opacity="1" /><path clip-path="url(#clip970)" d="M2038.65 21.9686 Q2037.84 21.4999 2036.88 21.2916 Q2035.94 21.0572 2034.79 21.0572 Q2030.73 21.0572 2028.54 23.7134 Q2026.38 26.3436 2026.38 31.2915 L2026.38 46.656 L2021.56 46.656 L2021.56 17.4895 L2026.38 17.4895 L2026.38 22.0207 Q2027.89 19.3645 2030.31 18.0884 Q2032.74 16.7864 2036.2 16.7864 Q2036.69 16.7864 2037.29 16.8645 Q2037.89 16.9166 2038.62 17.0468 L2038.65 21.9686 Z" fill="#000000" fill-rule="nonzero" fill-opacity="1" /><path clip-path="url(#clip973)" d="M1427.51 998.301 L1472.42 1012.68 L1517.34 1062.72 L1562.25 1055.97 L1607.17 1070.59 L1652.08 1022.2 L1697 1040.81 L1741.91 1014.47 L1786.83 1021.89 L1831.74 1005.41 L1876.66 981.357 L1921.57 992.511 L1966.49 1014.85 L2011.4 1011.28 L2056.32 1013.24 L2101.23 1006.84 L2146.15 988.187 L2191.06 1003.86 L2235.98 958.909 L2280.89 959.419 L2325.81 907.553 L2325.81 207.319 L2280.89 209.03 L2235.98 213.15 L2191.06 199.841 L2146.15 234.131 L2101.23 296.728 L2056.32 357.621 L2011.4 378.334 L1966.49 459.322 L1921.57 506.804 L1876.66 553.341 L1831.74 567.997 L1786.83 619.263 L1741.91 737.489 L1697 769.165 L1652.08 753.376 L1607.17 772.512 L1562.25 834.375 L1517.34 876.525 L1472.42 922.587 L1427.51 998.301  Z" fill="#009af9" fill-rule="evenodd" fill-opacity="0.1"/>
<polyline clip-path="url(#clip973)" style="stroke:#009af9; stroke-linecap:round; stroke-linejoin:round; stroke-width:4; stroke-opacity:1; fill:none" points="1427.51,998.301 1472.42,967.635 1517.34,969.621 1562.25,945.171 1607.17,921.551 1652.08,887.786 1697,904.986 1741.91,875.978 1786.83,820.574 1831.74,786.705 1876.66,767.349 1921.57,749.658 1966.49,737.085 2011.4,694.808 2056.32,685.428 2101.23,651.786 2146.15,611.159 2191.06,601.852 2235.98,586.03 2280.89,584.224 2325.81,557.436 "/>
<path clip-path="url(#clip973)" d="M1427.51 998.301 L1472.42 1027.26 L1517.34 985.105 L1562.25 1019.28 L1607.17 954.925 L1652.08 950.952 L1697 981.489 L1741.91 961.195 L1786.83 1014.23 L1831.74 989.744 L1876.66 991.813 L1921.57 1011.4 L1966.49 1018.59 L2011.4 995.452 L2056.32 969.624 L2101.23 961.537 L2146.15 953.523 L2191.06 935.163 L2235.98 951.227 L2280.89 954.707 L2325.81 958.803 L2325.81 120.65 L2280.89 193.672 L2235.98 289.524 L2191.06 355.376 L2146.15 377.556 L2101.23 379.519 L2056.32 431.534 L2011.4 495.253 L1966.49 511.678 L1921.57 557.215 L1876.66 615.905 L1831.74 720.707 L1786.83 799.358 L1741.91 847.259 L1697 855.918 L1652.08 882.498 L1607.17 916.598 L1562.25 906.29 L1517.34 949.786 L1472.42 952.841 L1427.51 998.301  Z" fill="#e26f46" fill-rule="evenodd" fill-opacity="0.1"/>
<polyline clip-path="url(#clip973)" style="stroke:#e26f46; stroke-linecap:round; stroke-linejoin:round; stroke-width:4; stroke-opacity:1; fill:none" points="1427.51,998.301 1472.42,990.051 1517.34,967.446 1562.25,962.783 1607.17,935.761 1652.08,916.725 1697,918.704 1741.91,904.227 1786.83,906.795 1831.74,855.226 1876.66,803.859 1921.57,784.307 1966.49,765.135 2011.4,745.353 2056.32,700.579 2101.23,670.528 2146.15,665.539 2191.06,645.269 2235.98,620.376 2280.89,574.19 2325.81,539.727 "/>
</svg>
