<?xml version="1.0" encoding="utf-8"?>
<svg xmlns="http://www.w3.org/2000/svg" xmlns:xlink="http://www.w3.org/1999/xlink" width="600" height="300" viewBox="0 0 2400 1200">
<defs>
  <clipPath id="clip320">
    <rect x="0" y="0" width="2400" height="1200"/>
  </clipPath>
</defs>
<path clip-path="url(#clip320)" d="M0 1200 L2400 1200 L2400 0 L0 0  Z" fill="#ffffff" fill-rule="evenodd" fill-opacity="1"/>
<defs>
  <clipPath id="clip321">
    <rect x="480" y="0" width="1681" height="1200"/>
  </clipPath>
</defs>
<path clip-path="url(#clip320)" d="M216.436 1099.09 L1153.8 1099.09 L1153.8 92.1521 L216.436 92.1521  Z" fill="#ffffff" fill-rule="evenodd" fill-opacity="1"/>
<defs>
  <clipPath id="clip322">
    <rect x="216" y="92" width="938" height="1008"/>
  </clipPath>
</defs>
<polyline clip-path="url(#clip322)" style="stroke:#000000; stroke-linecap:round; stroke-linejoin:round; stroke-width:2; stroke-opacity:0.1; fill:none" points="419.826,1099.09 419.826,92.1521 "/>
<polyline clip-path="url(#clip322)" style="stroke:#000000; stroke-linecap:round; stroke-linejoin:round; stroke-width:2; stroke-opacity:0.1; fill:none" points="640.902,1099.09 640.902,92.1521 "/>
<polyline clip-path="url(#clip322)" style="stroke:#000000; stroke-linecap:round; stroke-linejoin:round; stroke-width:2; stroke-opacity:0.1; fill:none" points="861.977,1099.09 861.977,92.1521 "/>
<polyline clip-path="url(#clip322)" style="stroke:#000000; stroke-linecap:round; stroke-linejoin:round; stroke-width:2; stroke-opacity:0.1; fill:none" points="1083.05,1099.09 1083.05,92.1521 "/>
<polyline clip-path="url(#clip322)" style="stroke:#000000; stroke-linecap:round; stroke-linejoin:round; stroke-width:2; stroke-opacity:0.1; fill:none" points="216.436,861.457 1153.8,861.457 "/>
<polyline clip-path="url(#clip322)" style="stroke:#000000; stroke-linecap:round; stroke-linejoin:round; stroke-width:2; stroke-opacity:0.1; fill:none" points="216.436,614.521 1153.8,614.521 "/>
<polyline clip-path="url(#clip322)" style="stroke:#000000; stroke-linecap:round; stroke-linejoin:round; stroke-width:2; stroke-opacity:0.1; fill:none" points="216.436,367.586 1153.8,367.586 "/>
<polyline clip-path="url(#clip322)" style="stroke:#000000; stroke-linecap:round; stroke-linejoin:round; stroke-width:2; stroke-opacity:0.1; fill:none" points="216.436,120.65 1153.8,120.65 "/>
<polyline clip-path="url(#clip320)" style="stroke:#000000; stroke-linecap:round; stroke-linejoin:round; stroke-width:4; stroke-opacity:1; fill:none" points="216.436,1099.09 1153.8,1099.09 "/>
<polyline clip-path="url(#clip320)" style="stroke:#000000; stroke-linecap:round; stroke-linejoin:round; stroke-width:4; stroke-opacity:1; fill:none" points="419.826,1099.09 419.826,1080.19 "/>
<polyline clip-path="url(#clip320)" style="stroke:#000000; stroke-linecap:round; stroke-linejoin:round; stroke-width:4; stroke-opacity:1; fill:none" points="640.902,1099.09 640.902,1080.19 "/>
<polyline clip-path="url(#clip320)" style="stroke:#000000; stroke-linecap:round; stroke-linejoin:round; stroke-width:4; stroke-opacity:1; fill:none" points="861.977,1099.09 861.977,1080.19 "/>
<polyline clip-path="url(#clip320)" style="stroke:#000000; stroke-linecap:round; stroke-linejoin:round; stroke-width:4; stroke-opacity:1; fill:none" points="1083.05,1099.09 1083.05,1080.19 "/>
<path clip-path="url(#clip320)" d="M410.104 1126.93 L428.46 1126.93 L428.46 1130.86 L414.386 1130.86 L414.386 1139.34 Q415.404 1138.99 416.423 1138.83 Q417.441 1138.64 418.46 1138.64 Q424.247 1138.64 427.627 1141.81 Q431.006 1144.98 431.006 1150.4 Q431.006 1155.98 427.534 1159.08 Q424.062 1162.16 417.742 1162.16 Q415.566 1162.16 413.298 1161.79 Q411.053 1161.42 408.645 1160.68 L408.645 1155.98 Q410.729 1157.11 412.951 1157.67 Q415.173 1158.22 417.65 1158.22 Q421.654 1158.22 423.992 1156.12 Q426.33 1154.01 426.33 1150.4 Q426.33 1146.79 423.992 1144.68 Q421.654 1142.58 417.65 1142.58 Q415.775 1142.58 413.9 1142.99 Q412.048 1143.41 410.104 1144.29 L410.104 1126.93 Z" fill="#000000" fill-rule="nonzero" fill-opacity="1" /><path clip-path="url(#clip320)" d="M615.589 1157.55 L623.228 1157.55 L623.228 1131.19 L614.918 1132.85 L614.918 1128.59 L623.182 1126.93 L627.858 1126.93 L627.858 1157.55 L635.496 1157.55 L635.496 1161.49 L615.589 1161.49 L615.589 1157.55 Z" fill="#000000" fill-rule="nonzero" fill-opacity="1" /><path clip-path="url(#clip320)" d="M654.941 1130.01 Q651.33 1130.01 649.501 1133.57 Q647.695 1137.11 647.695 1144.24 Q647.695 1151.35 649.501 1154.91 Q651.33 1158.46 654.941 1158.46 Q658.575 1158.46 660.381 1154.91 Q662.209 1151.35 662.209 1144.24 Q662.209 1137.11 660.381 1133.57 Q658.575 1130.01 654.941 1130.01 M654.941 1126.3 Q660.751 1126.3 663.807 1130.91 Q666.885 1135.49 666.885 1144.24 Q666.885 1152.97 663.807 1157.58 Q660.751 1162.16 654.941 1162.16 Q649.131 1162.16 646.052 1157.58 Q642.996 1152.97 642.996 1144.24 Q642.996 1135.49 646.052 1130.91 Q649.131 1126.3 654.941 1126.3 Z" fill="#000000" fill-rule="nonzero" fill-opacity="1" /><path clip-path="url(#clip320)" d="M837.163 1157.55 L844.802 1157.55 L844.802 1131.19 L836.491 1132.85 L836.491 1128.59 L844.755 1126.93 L849.431 1126.93 L849.431 1157.55 L857.07 1157.55 L857.07 1161.49 L837.163 1161.49 L837.163 1157.55 Z" fill="#000000" fill-rule="nonzero" fill-opacity="1" /><path clip-path="url(#clip320)" d="M866.561 1126.93 L884.917 1126.93 L884.917 1130.86 L870.843 1130.86 L870.843 1139.34 Q871.862 1138.99 872.88 1138.83 Q873.899 1138.64 874.917 1138.64 Q880.704 1138.64 884.084 1141.81 Q887.463 1144.98 887.463 1150.4 Q887.463 1155.98 883.991 1159.08 Q880.519 1162.16 874.2 1162.16 Q872.024 1162.16 869.755 1161.79 Q867.51 1161.42 865.102 1160.68 L865.102 1155.98 Q867.186 1157.11 869.408 1157.67 Q871.63 1158.22 874.107 1158.22 Q878.112 1158.22 880.45 1156.12 Q882.787 1154.01 882.787 1150.4 Q882.787 1146.79 880.45 1144.68 Q878.112 1142.58 874.107 1142.58 Q872.232 1142.58 870.357 1142.99 Q868.505 1143.41 866.561 1144.29 L866.561 1126.93 Z" fill="#000000" fill-rule="nonzero" fill-opacity="1" /><path clip-path="url(#clip320)" d="M1061.83 1157.55 L1078.15 1157.55 L1078.15 1161.49 L1056.2 1161.49 L1056.2 1157.55 Q1058.86 1154.8 1063.45 1150.17 Q1068.05 1145.52 1069.23 1144.17 Q1071.48 1141.65 1072.36 1139.91 Q1073.26 1138.15 1073.26 1136.46 Q1073.26 1133.71 1071.32 1131.97 Q1069.4 1130.24 1066.29 1130.24 Q1064.1 1130.24 1061.64 1131 Q1059.21 1131.77 1056.43 1133.32 L1056.43 1128.59 Q1059.26 1127.46 1061.71 1126.88 Q1064.16 1126.3 1066.2 1126.3 Q1071.57 1126.3 1074.77 1128.99 Q1077.96 1131.67 1077.96 1136.16 Q1077.96 1138.29 1077.15 1140.21 Q1076.36 1142.11 1074.26 1144.71 Q1073.68 1145.38 1070.58 1148.59 Q1067.47 1151.79 1061.83 1157.55 Z" fill="#000000" fill-rule="nonzero" fill-opacity="1" /><path clip-path="url(#clip320)" d="M1097.96 1130.01 Q1094.35 1130.01 1092.52 1133.57 Q1090.72 1137.11 1090.72 1144.24 Q1090.72 1151.35 1092.52 1154.91 Q1094.35 1158.46 1097.96 1158.46 Q1101.59 1158.46 1103.4 1154.91 Q1105.23 1151.35 1105.23 1144.24 Q1105.23 1137.11 1103.4 1133.57 Q1101.59 1130.01 1097.96 1130.01 M1097.96 1126.3 Q1103.77 1126.3 1106.83 1130.91 Q1109.9 1135.49 1109.9 1144.24 Q1109.9 1152.97 1106.83 1157.58 Q1103.77 1162.16 1097.96 1162.16 Q1092.15 1162.16 1089.07 1157.58 Q1086.02 1152.97 1086.02 1144.24 Q1086.02 1135.49 1089.07 1130.91 Q1092.15 1126.3 1097.96 1126.3 Z" fill="#000000" fill-rule="nonzero" fill-opacity="1" /><polyline clip-path="url(#clip320)" style="stroke:#000000; stroke-linecap:round; stroke-linejoin:round; stroke-width:4; stroke-opacity:1; fill:none" points="216.436,1099.09 216.436,92.1521 "/>
<polyline clip-path="url(#clip320)" style="stroke:#000000; stroke-linecap:round; stroke-linejoin:round; stroke-width:4; stroke-opacity:1; fill:none" points="216.436,861.457 235.334,861.457 "/>
<polyline clip-path="url(#clip320)" style="stroke:#000000; stroke-linecap:round; stroke-linejoin:round; stroke-width:4; stroke-opacity:1; fill:none" points="216.436,614.521 235.334,614.521 "/>
<polyline clip-path="url(#clip320)" style="stroke:#000000; stroke-linecap:round; stroke-linejoin:round; stroke-width:4; stroke-opacity:1; fill:none" points="216.436,367.586 235.334,367.586 "/>
<polyline clip-path="url(#clip320)" style="stroke:#000000; stroke-linecap:round; stroke-linejoin:round; stroke-width:4; stroke-opacity:1; fill:none" points="216.436,120.65 235.334,120.65 "/>
<path clip-path="url(#clip320)" d="M63.9319 847.255 Q60.3208 847.255 58.4921 850.82 Q56.6865 854.362 56.6865 861.491 Q56.6865 868.598 58.4921 872.163 Q60.3208 875.704 63.9319 875.704 Q67.5661 875.704 69.3717 872.163 Q71.2004 868.598 71.2004 861.491 Q71.2004 854.362 69.3717 850.82 Q67.5661 847.255 63.9319 847.255 M63.9319 843.552 Q69.742 843.552 72.7976 848.158 Q75.8763 852.741 75.8763 861.491 Q75.8763 870.218 72.7976 874.825 Q69.742 879.408 63.9319 879.408 Q58.1217 879.408 55.043 874.825 Q51.9875 870.218 51.9875 861.491 Q51.9875 852.741 55.043 848.158 Q58.1217 843.552 63.9319 843.552 Z" fill="#000000" fill-rule="nonzero" fill-opacity="1" /><path clip-path="url(#clip320)" d="M84.0938 872.857 L88.978 872.857 L88.978 878.737 L84.0938 878.737 L84.0938 872.857 Z" fill="#000000" fill-rule="nonzero" fill-opacity="1" /><path clip-path="url(#clip320)" d="M109.163 847.255 Q105.552 847.255 103.723 850.82 Q101.918 854.362 101.918 861.491 Q101.918 868.598 103.723 872.163 Q105.552 875.704 109.163 875.704 Q112.797 875.704 114.603 872.163 Q116.432 868.598 116.432 861.491 Q116.432 854.362 114.603 850.82 Q112.797 847.255 109.163 847.255 M109.163 843.552 Q114.973 843.552 118.029 848.158 Q121.107 852.741 121.107 861.491 Q121.107 870.218 118.029 874.825 Q114.973 879.408 109.163 879.408 Q103.353 879.408 100.274 874.825 Q97.2187 870.218 97.2187 861.491 Q97.2187 852.741 100.274 848.158 Q103.353 843.552 109.163 843.552 Z" fill="#000000" fill-rule="nonzero" fill-opacity="1" /><path clip-path="url(#clip320)" d="M139.325 847.255 Q135.714 847.255 133.885 850.82 Q132.08 854.362 132.08 861.491 Q132.08 868.598 133.885 872.163 Q135.714 875.704 139.325 875.704 Q142.959 875.704 144.765 872.163 Q146.593 868.598 146.593 861.491 Q146.593 854.362 144.765 850.82 Q142.959 847.255 139.325 847.255 M139.325 843.552 Q145.135 843.552 148.191 848.158 Q151.269 852.741 151.269 861.491 Q151.269 870.218 148.191 874.825 Q145.135 879.408 139.325 879.408 Q133.515 879.408 130.436 874.825 Q127.381 870.218 127.381 861.491 Q127.381 852.741 130.436 848.158 Q133.515 843.552 139.325 843.552 Z" fill="#000000" fill-rule="nonzero" fill-opacity="1" /><path clip-path="url(#clip320)" d="M159.533 844.177 L177.89 844.177 L177.89 848.112 L163.816 848.112 L163.816 856.584 Q164.834 856.237 165.853 856.075 Q166.871 855.889 167.89 855.889 Q173.677 855.889 177.056 859.061 Q180.436 862.232 180.436 867.649 Q180.436 873.227 176.964 876.329 Q173.491 879.408 167.172 879.408 Q164.996 879.408 162.728 879.038 Q160.482 878.667 158.075 877.926 L158.075 873.227 Q160.158 874.362 162.38 874.917 Q164.603 875.473 167.079 875.473 Q171.084 875.473 173.422 873.366 Q175.76 871.26 175.76 867.649 Q175.76 864.038 173.422 861.931 Q171.084 859.825 167.079 859.825 Q165.204 859.825 163.329 860.241 Q161.478 860.658 159.533 861.538 L159.533 844.177 Z" fill="#000000" fill-rule="nonzero" fill-opacity="1" /><path clip-path="url(#clip320)" d="M62.9365 600.32 Q59.3254 600.32 57.4967 603.885 Q55.6912 607.426 55.6912 614.556 Q55.6912 621.662 57.4967 625.227 Q59.3254 628.769 62.9365 628.769 Q66.5707 628.769 68.3763 625.227 Q70.205 621.662 70.205 614.556 Q70.205 607.426 68.3763 603.885 Q66.5707 600.32 62.9365 600.32 M62.9365 596.616 Q68.7467 596.616 71.8022 601.223 Q74.8809 605.806 74.8809 614.556 Q74.8809 623.283 71.8022 627.889 Q68.7467 632.472 62.9365 632.472 Q57.1264 632.472 54.0477 627.889 Q50.9921 623.283 50.9921 614.556 Q50.9921 605.806 54.0477 601.223 Q57.1264 596.616 62.9365 596.616 Z" fill="#000000" fill-rule="nonzero" fill-opacity="1" /><path clip-path="url(#clip320)" d="M83.0984 625.922 L87.9827 625.922 L87.9827 631.801 L83.0984 631.801 L83.0984 625.922 Z" fill="#000000" fill-rule="nonzero" fill-opacity="1" /><path clip-path="url(#clip320)" d="M108.168 600.32 Q104.557 600.32 102.728 603.885 Q100.922 607.426 100.922 614.556 Q100.922 621.662 102.728 625.227 Q104.557 628.769 108.168 628.769 Q111.802 628.769 113.608 625.227 Q115.436 621.662 115.436 614.556 Q115.436 607.426 113.608 603.885 Q111.802 600.32 108.168 600.32 M108.168 596.616 Q113.978 596.616 117.033 601.223 Q120.112 605.806 120.112 614.556 Q120.112 623.283 117.033 627.889 Q113.978 632.472 108.168 632.472 Q102.358 632.472 99.2789 627.889 Q96.2234 623.283 96.2234 614.556 Q96.2234 605.806 99.2789 601.223 Q102.358 596.616 108.168 596.616 Z" fill="#000000" fill-rule="nonzero" fill-opacity="1" /><path clip-path="url(#clip320)" d="M129.14 627.866 L136.779 627.866 L136.779 601.5 L128.469 603.167 L128.469 598.908 L136.732 597.241 L141.408 597.241 L141.408 627.866 L149.047 627.866 L149.047 631.801 L129.14 631.801 L129.14 627.866 Z" fill="#000000" fill-rule="nonzero" fill-opacity="1" /><path clip-path="url(#clip320)" d="M168.491 600.32 Q164.88 600.32 163.052 603.885 Q161.246 607.426 161.246 614.556 Q161.246 621.662 163.052 625.227 Q164.88 628.769 168.491 628.769 Q172.126 628.769 173.931 625.227 Q175.76 621.662 175.76 614.556 Q175.76 607.426 173.931 603.885 Q172.126 600.32 168.491 600.32 M168.491 596.616 Q174.302 596.616 177.357 601.223 Q180.436 605.806 180.436 614.556 Q180.436 623.283 177.357 627.889 Q174.302 632.472 168.491 632.472 Q162.681 632.472 159.603 627.889 Q156.547 623.283 156.547 614.556 Q156.547 605.806 159.603 601.223 Q162.681 596.616 168.491 596.616 Z" fill="#000000" fill-rule="nonzero" fill-opacity="1" /><path clip-path="url(#clip320)" d="M63.9319 353.384 Q60.3208 353.384 58.4921 356.949 Q56.6865 360.491 56.6865 367.62 Q56.6865 374.727 58.4921 378.292 Q60.3208 381.833 63.9319 381.833 Q67.5661 381.833 69.3717 378.292 Q71.2004 374.727 71.2004 367.62 Q71.2004 360.491 69.3717 356.949 Q67.5661 353.384 63.9319 353.384 M63.9319 349.681 Q69.742 349.681 72.7976 354.287 Q75.8763 358.871 75.8763 367.62 Q75.8763 376.347 72.7976 380.954 Q69.742 385.537 63.9319 385.537 Q58.1217 385.537 55.043 380.954 Q51.9875 376.347 51.9875 367.62 Q51.9875 358.871 55.043 354.287 Q58.1217 349.681 63.9319 349.681 Z" fill="#000000" fill-rule="nonzero" fill-opacity="1" /><path clip-path="url(#clip320)" d="M84.0938 378.986 L88.978 378.986 L88.978 384.866 L84.0938 384.866 L84.0938 378.986 Z" fill="#000000" fill-rule="nonzero" fill-opacity="1" /><path clip-path="url(#clip320)" d="M109.163 353.384 Q105.552 353.384 103.723 356.949 Q101.918 360.491 101.918 367.62 Q101.918 374.727 103.723 378.292 Q105.552 381.833 109.163 381.833 Q112.797 381.833 114.603 378.292 Q116.432 374.727 116.432 367.62 Q116.432 360.491 114.603 356.949 Q112.797 353.384 109.163 353.384 M109.163 349.681 Q114.973 349.681 118.029 354.287 Q121.107 358.871 121.107 367.62 Q121.107 376.347 118.029 380.954 Q114.973 385.537 109.163 385.537 Q103.353 385.537 100.274 380.954 Q97.2187 376.347 97.2187 367.62 Q97.2187 358.871 100.274 354.287 Q103.353 349.681 109.163 349.681 Z" fill="#000000" fill-rule="nonzero" fill-opacity="1" /><path clip-path="url(#clip320)" d="M130.135 380.931 L137.774 380.931 L137.774 354.565 L129.464 356.232 L129.464 351.972 L137.728 350.306 L142.404 350.306 L142.404 380.931 L150.043 380.931 L150.043 384.866 L130.135 384.866 L130.135 380.931 Z" fill="#000000" fill-rule="nonzero" fill-opacity="1" /><path clip-path="url(#clip320)" d="M159.533 350.306 L177.89 350.306 L177.89 354.241 L163.816 354.241 L163.816 362.713 Q164.834 362.366 165.853 362.204 Q166.871 362.019 167.89 362.019 Q173.677 362.019 177.056 365.19 Q180.436 368.361 180.436 373.778 Q180.436 379.357 176.964 382.458 Q173.491 385.537 167.172 385.537 Q164.996 385.537 162.728 385.167 Q160.482 384.796 158.075 384.056 L158.075 379.357 Q160.158 380.491 162.38 381.046 Q164.603 381.602 167.079 381.602 Q171.084 381.602 173.422 379.495 Q175.76 377.389 175.76 373.778 Q175.76 370.167 173.422 368.06 Q171.084 365.954 167.079 365.954 Q165.204 365.954 163.329 366.37 Q161.478 366.787 159.533 367.667 L159.533 350.306 Z" fill="#000000" fill-rule="nonzero" fill-opacity="1" /><path clip-path="url(#clip320)" d="M62.9365 106.449 Q59.3254 106.449 57.4967 110.014 Q55.6912 113.555 55.6912 120.685 Q55.6912 127.791 57.4967 131.356 Q59.3254 134.898 62.9365 134.898 Q66.5707 134.898 68.3763 131.356 Q70.205 127.791 70.205 120.685 Q70.205 113.555 68.3763 110.014 Q66.5707 106.449 62.9365 106.449 M62.9365 102.745 Q68.7467 102.745 71.8022 107.352 Q74.8809 111.935 74.8809 120.685 Q74.8809 129.412 71.8022 134.018 Q68.7467 138.602 62.9365 138.602 Q57.1264 138.602 54.0477 134.018 Q50.9921 129.412 50.9921 120.685 Q50.9921 111.935 54.0477 107.352 Q57.1264 102.745 62.9365 102.745 Z" fill="#000000" fill-rule="nonzero" fill-opacity="1" /><path clip-path="url(#clip320)" d="M83.0984 132.051 L87.9827 132.051 L87.9827 137.93 L83.0984 137.93 L83.0984 132.051 Z" fill="#000000" fill-rule="nonzero" fill-opacity="1" /><path clip-path="url(#clip320)" d="M108.168 106.449 Q104.557 106.449 102.728 110.014 Q100.922 113.555 100.922 120.685 Q100.922 127.791 102.728 131.356 Q104.557 134.898 108.168 134.898 Q111.802 134.898 113.608 131.356 Q115.436 127.791 115.436 120.685 Q115.436 113.555 113.608 110.014 Q111.802 106.449 108.168 106.449 M108.168 102.745 Q113.978 102.745 117.033 107.352 Q120.112 111.935 120.112 120.685 Q120.112 129.412 117.033 134.018 Q113.978 138.602 108.168 138.602 Q102.358 138.602 99.2789 134.018 Q96.2234 129.412 96.2234 120.685 Q96.2234 111.935 99.2789 107.352 Q102.358 102.745 108.168 102.745 Z" fill="#000000" fill-rule="nonzero" fill-opacity="1" /><path clip-path="url(#clip320)" d="M132.357 133.995 L148.677 133.995 L148.677 137.93 L126.732 137.93 L126.732 133.995 Q129.394 131.241 133.978 126.611 Q138.584 121.958 139.765 120.616 Q142.01 118.092 142.89 116.356 Q143.793 114.597 143.793 112.907 Q143.793 110.153 141.848 108.417 Q139.927 106.68 136.825 106.68 Q134.626 106.68 132.172 107.444 Q129.742 108.208 126.964 109.759 L126.964 105.037 Q129.788 103.903 132.242 103.324 Q134.695 102.745 136.732 102.745 Q142.103 102.745 145.297 105.43 Q148.492 108.116 148.492 112.606 Q148.492 114.736 147.681 116.657 Q146.894 118.555 144.788 121.148 Q144.209 121.819 141.107 125.037 Q138.006 128.231 132.357 133.995 Z" fill="#000000" fill-rule="nonzero" fill-opacity="1" /><path clip-path="url(#clip320)" d="M168.491 106.449 Q164.88 106.449 163.052 110.014 Q161.246 113.555 161.246 120.685 Q161.246 127.791 163.052 131.356 Q164.88 134.898 168.491 134.898 Q172.126 134.898 173.931 131.356 Q175.76 127.791 175.76 120.685 Q175.76 113.555 173.931 110.014 Q172.126 106.449 168.491 106.449 M168.491 102.745 Q174.302 102.745 177.357 107.352 Q180.436 111.935 180.436 120.685 Q180.436 129.412 177.357 134.018 Q174.302 138.602 168.491 138.602 Q162.681 138.602 159.603 134.018 Q156.547 129.412 156.547 120.685 Q156.547 111.935 159.603 107.352 Q162.681 102.745 168.491 102.745 Z" fill="#000000" fill-rule="nonzero" fill-opacity="1" /><path clip-path="url(#clip320)" d="M617.734 30.8748 L617.734 33.2186 L595.703 33.2186 Q596.016 38.1665 598.672 40.7706 Q601.354 43.3487 606.12 43.3487 Q608.88 43.3487 611.458 42.6716 Q614.062 41.9946 616.614 40.6404 L616.614 45.1716 Q614.036 46.2654 611.328 46.8383 Q608.62 47.4112 605.833 47.4112 Q598.854 47.4112 594.766 43.3487 Q590.703 39.2862 590.703 32.3592 Q590.703 25.1978 594.557 21.0051 Q598.437 16.7864 605 16.7864 Q610.885 16.7864 614.297 20.5884 Q617.734 24.3645 617.734 30.8748 M612.943 29.4686 Q612.891 25.5363 610.729 23.1926 Q608.594 20.8488 605.052 20.8488 Q601.042 20.8488 598.62 23.1145 Q596.224 25.3801 595.859 29.4946 L612.943 29.4686 Z" fill="#000000" fill-rule="nonzero" fill-opacity="1" /><path clip-path="url(#clip320)" d="M625.104 35.1456 L625.104 17.4895 L629.896 17.4895 L629.896 34.9634 Q629.896 39.104 631.51 41.1873 Q633.125 43.2446 636.354 43.2446 Q640.234 43.2446 642.474 40.7706 Q644.739 38.2967 644.739 34.0259 L644.739 17.4895 L649.531 17.4895 L649.531 46.656 L644.739 46.656 L644.739 42.1769 Q642.995 44.8331 640.677 46.1352 Q638.385 47.4112 635.338 47.4112 Q630.312 47.4112 627.708 44.2862 Q625.104 41.1612 625.104 35.1456 M637.161 16.7864 L637.161 16.7864 Z" fill="#000000" fill-rule="nonzero" fill-opacity="1" /><path clip-path="url(#clip320)" d="M676.302 21.9686 Q675.494 21.4999 674.531 21.2916 Q673.593 21.0572 672.448 21.0572 Q668.385 21.0572 666.198 23.7134 Q664.036 26.3436 664.036 31.2915 L664.036 46.656 L659.218 46.656 L659.218 17.4895 L664.036 17.4895 L664.036 22.0207 Q665.547 19.3645 667.968 18.0884 Q670.39 16.7864 673.854 16.7864 Q674.349 16.7864 674.948 16.8645 Q675.546 16.9166 676.276 17.0468 L676.302 21.9686 Z" fill="#000000" fill-rule="nonzero" fill-opacity="1" /><path clip-path="url(#clip320)" d="M681.328 17.4895 L686.119 17.4895 L686.119 46.656 L681.328 46.656 L681.328 17.4895 M681.328 6.13538 L686.119 6.13538 L686.119 12.2031 L681.328 12.2031 L681.328 6.13538 Z" fill="#000000" fill-rule="nonzero" fill-opacity="1" /><path clip-path="url(#clip320)" d="M717.083 32.0988 Q717.083 26.8124 714.895 23.8176 Q712.734 20.7968 708.932 20.7968 Q705.13 20.7968 702.942 23.8176 Q700.781 26.8124 700.781 32.0988 Q700.781 37.3852 702.942 40.406 Q705.13 43.4008 708.932 43.4008 Q712.734 43.4008 714.895 40.406 Q717.083 37.3852 717.083 32.0988 M700.781 21.9165 Q702.291 19.3124 704.583 18.0624 Q706.9 16.7864 710.104 16.7864 Q715.416 16.7864 718.723 21.0051 Q722.057 25.2238 722.057 32.0988 Q722.057 38.9737 718.723 43.1925 Q715.416 47.4112 710.104 47.4112 Q706.9 47.4112 704.583 46.1612 Q702.291 44.8852 700.781 42.281 L700.781 46.656 L695.963 46.656 L695.963 6.13538 L700.781 6.13538 L700.781 21.9165 Z" fill="#000000" fill-rule="nonzero" fill-opacity="1" /><path clip-path="url(#clip320)" d="M741.301 20.8488 Q737.447 20.8488 735.208 23.8697 Q732.968 26.8644 732.968 32.0988 Q732.968 37.3331 735.182 40.354 Q737.421 43.3487 741.301 43.3487 Q745.129 43.3487 747.369 40.3279 Q749.609 37.3071 749.609 32.0988 Q749.609 26.9165 747.369 23.8957 Q745.129 20.8488 741.301 20.8488 M741.301 16.7864 Q747.551 16.7864 751.119 20.8488 Q754.687 24.9113 754.687 32.0988 Q754.687 39.2602 751.119 43.3487 Q747.551 47.4112 741.301 47.4112 Q735.025 47.4112 731.458 43.3487 Q727.916 39.2602 727.916 32.0988 Q727.916 24.9113 731.458 20.8488 Q735.025 16.7864 741.301 16.7864 Z" fill="#000000" fill-rule="nonzero" fill-opacity="1" /><path clip-path="url(#clip320)" d="M779.53 21.9686 Q778.723 21.4999 777.759 21.2916 Q776.822 21.0572 775.676 21.0572 Q771.614 21.0572 769.426 23.7134 Q767.265 26.3436 767.265 31.2915 L767.265 46.656 L762.447 46.656 L762.447 17.4895 L767.265 17.4895 L767.265 22.0207 Q768.775 19.3645 771.197 18.0884 Q773.619 16.7864 777.082 16.7864 Q777.577 16.7864 778.176 16.8645 Q778.775 16.9166 779.504 17.0468 L779.53 21.9686 Z" fill="#000000" fill-rule="nonzero" fill-opacity="1" /><path clip-path="url(#clip322)" d="M242.965 1027.1 L287.18 1061.29 L331.395 1069.86 L375.611 1068.95 L419.826 1058.24 L464.041 1062.91 L508.256 1046.34 L552.471 1059.4 L596.686 1055.94 L640.902 1051.29 L685.117 1036.63 L729.332 1070.59 L773.547 1068.37 L817.762 1066.76 L861.977 1059.03 L906.193 1060.13 L950.408 1054.92 L994.623 1029.89 L1038.84 1013.23 L1083.05 1005.83 L1127.27 1004.23 L1127.27 939.003 L1083.05 951.862 L1038.84 940.461 L994.623 933.793 L950.408 919.503 L906.193 945.342 L861.977 949.863 L817.762 941.754 L773.547 936.893 L729.332 938.615 L685.117 968.717 L640.902 959.203 L596.686 918.28 L552.471 917.063 L508.256 958.144 L464.041 951.93 L419.826 954.481 L375.611 965.48 L331.395 980.586 L287.18 977.833 L242.965 1027.1  Z" fill="#009af9" fill-rule="evenodd" fill-opacity="0.1"/>
<polyline clip-path="url(#clip322)" style="stroke:#009af9; stroke-linecap:round; stroke-linejoin:round; stroke-width:4; stroke-opacity:1; fill:none" points="242.965,1027.1 287.18,1019.56 331.395,1025.22 375.611,1017.22 419.826,1006.36 464.041,1007.42 508.256,1002.24 552.471,988.232 596.686,987.108 640.902,1005.25 685.117,1002.67 729.332,1004.6 773.547,1002.63 817.762,1004.26 861.977,1004.45 906.193,1002.73 950.408,987.214 994.623,981.843 1038.84,976.844 1083.05,978.847 1127.27,971.617 "/>
<path clip-path="url(#clip322)" d="M242.965 1027.1 L287.18 120.65 L331.395 120.65 L375.611 120.65 L419.826 120.65 L464.041 120.65 L508.256 120.65 L552.471 120.65 L596.686 120.65 L640.902 120.65 L685.117 120.65 L729.332 120.65 L773.547 120.65 L817.762 120.65 L861.977 120.65 L906.193 120.65 L950.408 120.65 L994.623 120.65 L1038.84 120.65 L1083.05 120.65 L1127.27 120.65 L1127.27 120.65 L1083.05 120.65 L1038.84 120.65 L994.623 120.65 L950.408 120.65 L906.193 120.65 L861.977 120.65 L817.762 120.65 L773.547 120.65 L729.332 120.65 L685.117 120.65 L640.902 120.65 L596.686 120.65 L552.471 120.65 L508.256 120.65 L464.041 120.65 L419.826 120.65 L375.611 120.65 L331.395 120.65 L287.18 120.65 L242.965 1027.1  Z" fill="#e26f46" fill-rule="evenodd" fill-opacity="0.1"/>
<polyline clip-path="url(#clip322)" style="stroke:#e26f46; stroke-linecap:round; stroke-linejoin:round; stroke-width:4; stroke-opacity:1; fill:none" points="242.965,1027.1 287.18,120.65 331.395,120.65 375.611,120.65 419.826,120.65 464.041,120.65 508.256,120.65 552.471,120.65 596.686,120.65 640.902,120.65 685.117,120.65 729.332,120.65 773.547,120.65 817.762,120.65 861.977,120.65 906.193,120.65 950.408,120.65 994.623,120.65 1038.84,120.65 1083.05,120.65 1127.27,120.65 "/>
<path clip-path="url(#clip320)" d="M1415.39 1099.09 L2352.76 1099.09 L2352.76 92.1521 L1415.39 92.1521  Z" fill="#ffffff" fill-rule="evenodd" fill-opacity="1"/>
<defs>
  <clipPath id="clip323">
    <rect x="1415" y="92" width="938" height="1008"/>
  </clipPath>
</defs>
<polyline clip-path="url(#clip323)" style="stroke:#000000; stroke-linecap:round; stroke-linejoin:round; stroke-width:2; stroke-opacity:0.1; fill:none" points="1618.78,1099.09 1618.78,92.1521 "/>
<polyline clip-path="url(#clip323)" style="stroke:#000000; stroke-linecap:round; stroke-linejoin:round; stroke-width:2; stroke-opacity:0.1; fill:none" points="1839.86,1099.09 1839.86,92.1521 "/>
<polyline clip-path="url(#clip323)" style="stroke:#000000; stroke-linecap:round; stroke-linejoin:round; stroke-width:2; stroke-opacity:0.1; fill:none" points="2060.94,1099.09 2060.94,92.1521 "/>
<polyline clip-path="url(#clip323)" style="stroke:#000000; stroke-linecap:round; stroke-linejoin:round; stroke-width:2; stroke-opacity:0.1; fill:none" points="2282.01,1099.09 2282.01,92.1521 "/>
<polyline clip-path="url(#clip323)" style="stroke:#000000; stroke-linecap:round; stroke-linejoin:round; stroke-width:2; stroke-opacity:0.1; fill:none" points="1415.39,1048.31 2352.76,1048.31 "/>
<polyline clip-path="url(#clip323)" style="stroke:#000000; stroke-linecap:round; stroke-linejoin:round; stroke-width:2; stroke-opacity:0.1; fill:none" points="1415.39,822.038 2352.76,822.038 "/>
<polyline clip-path="url(#clip323)" style="stroke:#000000; stroke-linecap:round; stroke-linejoin:round; stroke-width:2; stroke-opacity:0.1; fill:none" points="1415.39,595.763 2352.76,595.763 "/>
<polyline clip-path="url(#clip323)" style="stroke:#000000; stroke-linecap:round; stroke-linejoin:round; stroke-width:2; stroke-opacity:0.1; fill:none" points="1415.39,369.487 2352.76,369.487 "/>
<polyline clip-path="url(#clip323)" style="stroke:#000000; stroke-linecap:round; stroke-linejoin:round; stroke-width:2; stroke-opacity:0.1; fill:none" points="1415.39,143.212 2352.76,143.212 "/>
<polyline clip-path="url(#clip320)" style="stroke:#000000; stroke-linecap:round; stroke-linejoin:round; stroke-width:4; stroke-opacity:1; fill:none" points="1415.39,1099.09 2352.76,1099.09 "/>
<polyline clip-path="url(#clip320)" style="stroke:#000000; stroke-linecap:round; stroke-linejoin:round; stroke-width:4; stroke-opacity:1; fill:none" points="1618.78,1099.09 1618.78,1080.19 "/>
<polyline clip-path="url(#clip320)" style="stroke:#000000; stroke-linecap:round; stroke-linejoin:round; stroke-width:4; stroke-opacity:1; fill:none" points="1839.86,1099.09 1839.86,1080.19 "/>
<polyline clip-path="url(#clip320)" style="stroke:#000000; stroke-linecap:round; stroke-linejoin:round; stroke-width:4; stroke-opacity:1; fill:none" points="2060.94,1099.09 2060.94,1080.19 "/>
<polyline clip-path="url(#clip320)" style="stroke:#000000; stroke-linecap:round; stroke-linejoin:round; stroke-width:4; stroke-opacity:1; fill:none" points="2282.01,1099.09 2282.01,1080.19 "/>
<path clip-path="url(#clip320)" d="M1609.06 1126.93 L1627.42 1126.93 L1627.42 1130.86 L1613.34 1130.86 L1613.34 1139.34 Q1614.36 1138.99 1615.38 1138.83 Q1616.4 1138.64 1617.42 1138.64 Q1623.21 1138.64 1626.58 1141.81 Q1629.96 1144.98 1629.96 1150.4 Q1629.96 1155.98 1626.49 1159.08 Q1623.02 1162.16 1616.7 1162.16 Q1614.52 1162.16 1612.26 1161.79 Q1610.01 1161.42 1607.6 1160.68 L1607.6 1155.98 Q1609.69 1157.11 1611.91 1157.67 Q1614.13 1158.22 1616.61 1158.22 Q1620.61 1158.22 1622.95 1156.12 Q1625.29 1154.01 1625.29 1150.4 Q1625.29 1146.79 1622.95 1144.68 Q1620.61 1142.58 1616.61 1142.58 Q1614.73 1142.58 1612.86 1142.99 Q1611.01 1143.41 1609.06 1144.29 L1609.06 1126.93 Z" fill="#000000" fill-rule="nonzero" fill-opacity="1" /><path clip-path="url(#clip320)" d="M1814.55 1157.55 L1822.19 1157.55 L1822.19 1131.19 L1813.88 1132.85 L1813.88 1128.59 L1822.14 1126.93 L1826.82 1126.93 L1826.82 1157.55 L1834.45 1157.55 L1834.45 1161.49 L1814.55 1161.49 L1814.55 1157.55 Z" fill="#000000" fill-rule="nonzero" fill-opacity="1" /><path clip-path="url(#clip320)" d="M1853.9 1130.01 Q1850.29 1130.01 1848.46 1133.57 Q1846.65 1137.11 1846.65 1144.24 Q1846.65 1151.35 1848.46 1154.91 Q1850.29 1158.46 1853.9 1158.46 Q1857.53 1158.46 1859.34 1154.91 Q1861.17 1151.35 1861.17 1144.24 Q1861.17 1137.11 1859.34 1133.57 Q1857.53 1130.01 1853.9 1130.01 M1853.9 1126.3 Q1859.71 1126.3 1862.76 1130.91 Q1865.84 1135.49 1865.84 1144.24 Q1865.84 1152.97 1862.76 1157.58 Q1859.71 1162.16 1853.9 1162.16 Q1848.09 1162.16 1845.01 1157.58 Q1841.95 1152.97 1841.95 1144.24 Q1841.95 1135.49 1845.01 1130.91 Q1848.09 1126.3 1853.9 1126.3 Z" fill="#000000" fill-rule="nonzero" fill-opacity="1" /><path clip-path="url(#clip320)" d="M2036.12 1157.55 L2043.76 1157.55 L2043.76 1131.19 L2035.45 1132.85 L2035.45 1128.59 L2043.71 1126.93 L2048.39 1126.93 L2048.39 1157.55 L2056.03 1157.55 L2056.03 1161.49 L2036.12 1161.49 L2036.12 1157.55 Z" fill="#000000" fill-rule="nonzero" fill-opacity="1" /><path clip-path="url(#clip320)" d="M2065.52 1126.93 L2083.88 1126.93 L2083.88 1130.86 L2069.8 1130.86 L2069.8 1139.34 Q2070.82 1138.99 2071.84 1138.83 Q2072.86 1138.64 2073.88 1138.64 Q2079.66 1138.64 2083.04 1141.81 Q2086.42 1144.98 2086.42 1150.4 Q2086.42 1155.98 2082.95 1159.08 Q2079.48 1162.16 2073.16 1162.16 Q2070.98 1162.16 2068.71 1161.79 Q2066.47 1161.42 2064.06 1160.68 L2064.06 1155.98 Q2066.14 1157.11 2068.37 1157.67 Q2070.59 1158.22 2073.07 1158.22 Q2077.07 1158.22 2079.41 1156.12 Q2081.75 1154.01 2081.75 1150.4 Q2081.75 1146.79 2079.41 1144.68 Q2077.07 1142.58 2073.07 1142.58 Q2071.19 1142.58 2069.32 1142.99 Q2067.46 1143.41 2065.52 1144.29 L2065.52 1126.93 Z" fill="#000000" fill-rule="nonzero" fill-opacity="1" /><path clip-path="url(#clip320)" d="M2260.78 1157.55 L2277.1 1157.55 L2277.1 1161.49 L2255.16 1161.49 L2255.16 1157.55 Q2257.82 1154.8 2262.41 1150.17 Q2267.01 1145.52 2268.19 1144.17 Q2270.44 1141.65 2271.32 1139.91 Q2272.22 1138.15 2272.22 1136.46 Q2272.22 1133.71 2270.28 1131.97 Q2268.35 1130.24 2265.25 1130.24 Q2263.05 1130.24 2260.6 1131 Q2258.17 1131.77 2255.39 1133.32 L2255.39 1128.59 Q2258.22 1127.46 2260.67 1126.88 Q2263.12 1126.3 2265.16 1126.3 Q2270.53 1126.3 2273.72 1128.99 Q2276.92 1131.67 2276.92 1136.16 Q2276.92 1138.29 2276.11 1140.21 Q2275.32 1142.11 2273.22 1144.71 Q2272.64 1145.38 2269.53 1148.59 Q2266.43 1151.79 2260.78 1157.55 Z" fill="#000000" fill-rule="nonzero" fill-opacity="1" /><path clip-path="url(#clip320)" d="M2296.92 1130.01 Q2293.31 1130.01 2291.48 1133.57 Q2289.67 1137.11 2289.67 1144.24 Q2289.67 1151.35 2291.48 1154.91 Q2293.31 1158.46 2296.92 1158.46 Q2300.55 1158.46 2302.36 1154.91 Q2304.19 1151.35 2304.19 1144.24 Q2304.19 1137.11 2302.36 1133.57 Q2300.55 1130.01 2296.92 1130.01 M2296.92 1126.3 Q2302.73 1126.3 2305.78 1130.91 Q2308.86 1135.49 2308.86 1144.24 Q2308.86 1152.97 2305.78 1157.58 Q2302.73 1162.16 2296.92 1162.16 Q2291.11 1162.16 2288.03 1157.58 Q2284.97 1152.97 2284.97 1144.24 Q2284.97 1135.49 2288.03 1130.91 Q2291.11 1126.3 2296.92 1126.3 Z" fill="#000000" fill-rule="nonzero" fill-opacity="1" /><polyline clip-path="url(#clip320)" style="stroke:#000000; stroke-linecap:round; stroke-linejoin:round; stroke-width:4; stroke-opacity:1; fill:none" points="1415.39,1099.09 1415.39,92.1521 "/>
<polyline clip-path="url(#clip320)" style="stroke:#000000; stroke-linecap:round; stroke-linejoin:round; stroke-width:4; stroke-opacity:1; fill:none" points="1415.39,1048.31 1434.29,1048.31 "/>
<polyline clip-path="url(#clip320)" style="stroke:#000000; stroke-linecap:round; stroke-linejoin:round; stroke-width:4; stroke-opacity:1; fill:none" points="1415.39,822.038 1434.29,822.038 "/>
<polyline clip-path="url(#clip320)" style="stroke:#000000; stroke-linecap:round; stroke-linejoin:round; stroke-width:4; stroke-opacity:1; fill:none" points="1415.39,595.763 1434.29,595.763 "/>
<polyline clip-path="url(#clip320)" style="stroke:#000000; stroke-linecap:round; stroke-linejoin:round; stroke-width:4; stroke-opacity:1; fill:none" points="1415.39,369.487 1434.29,369.487 "/>
<polyline clip-path="url(#clip320)" style="stroke:#000000; stroke-linecap:round; stroke-linejoin:round; stroke-width:4; stroke-opacity:1; fill:none" points="1415.39,143.212 1434.29,143.212 "/>
<path clip-path="url(#clip320)" d="M1252.71 1061.66 L1260.34 1061.66 L1260.34 1035.29 L1252.03 1036.96 L1252.03 1032.7 L1260.3 1031.03 L1264.97 1031.03 L1264.97 1061.66 L1272.61 1061.66 L1272.61 1065.59 L1252.71 1065.59 L1252.71 1061.66 Z" fill="#000000" fill-rule="nonzero" fill-opacity="1" /><path clip-path="url(#clip320)" d="M1282.06 1059.71 L1286.94 1059.71 L1286.94 1065.59 L1282.06 1065.59 L1282.06 1059.71 Z" fill="#000000" fill-rule="nonzero" fill-opacity="1" /><path clip-path="url(#clip320)" d="M1307.13 1034.11 Q1303.51 1034.11 1301.69 1037.68 Q1299.88 1041.22 1299.88 1048.35 Q1299.88 1055.46 1301.69 1059.02 Q1303.51 1062.56 1307.13 1062.56 Q1310.76 1062.56 1312.57 1059.02 Q1314.39 1055.46 1314.39 1048.35 Q1314.39 1041.22 1312.57 1037.68 Q1310.76 1034.11 1307.13 1034.11 M1307.13 1030.41 Q1312.94 1030.41 1315.99 1035.02 Q1319.07 1039.6 1319.07 1048.35 Q1319.07 1057.08 1315.99 1061.68 Q1312.94 1066.27 1307.13 1066.27 Q1301.32 1066.27 1298.24 1061.68 Q1295.18 1057.08 1295.18 1048.35 Q1295.18 1039.6 1298.24 1035.02 Q1301.32 1030.41 1307.13 1030.41 Z" fill="#000000" fill-rule="nonzero" fill-opacity="1" /><path clip-path="url(#clip320)" d="M1337.29 1034.11 Q1333.68 1034.11 1331.85 1037.68 Q1330.04 1041.22 1330.04 1048.35 Q1330.04 1055.46 1331.85 1059.02 Q1333.68 1062.56 1337.29 1062.56 Q1340.92 1062.56 1342.73 1059.02 Q1344.56 1055.46 1344.56 1048.35 Q1344.56 1041.22 1342.73 1037.68 Q1340.92 1034.11 1337.29 1034.11 M1337.29 1030.41 Q1343.1 1030.41 1346.15 1035.02 Q1349.23 1039.6 1349.23 1048.35 Q1349.23 1057.08 1346.15 1061.68 Q1343.1 1066.27 1337.29 1066.27 Q1331.48 1066.27 1328.4 1061.68 Q1325.34 1057.08 1325.34 1048.35 Q1325.34 1039.6 1328.4 1035.02 Q1331.48 1030.41 1337.29 1030.41 Z" fill="#000000" fill-rule="nonzero" fill-opacity="1" /><path clip-path="url(#clip320)" d="M1367.45 1034.11 Q1363.84 1034.11 1362.01 1037.68 Q1360.2 1041.22 1360.2 1048.35 Q1360.2 1055.46 1362.01 1059.02 Q1363.84 1062.56 1367.45 1062.56 Q1371.08 1062.56 1372.89 1059.02 Q1374.72 1055.46 1374.72 1048.35 Q1374.72 1041.22 1372.89 1037.68 Q1371.08 1034.11 1367.45 1034.11 M1367.45 1030.41 Q1373.26 1030.41 1376.32 1035.02 Q1379.39 1039.6 1379.39 1048.35 Q1379.39 1057.08 1376.32 1061.68 Q1373.26 1066.27 1367.45 1066.27 Q1361.64 1066.27 1358.56 1061.68 Q1355.51 1057.08 1355.51 1048.35 Q1355.51 1039.6 1358.56 1035.02 Q1361.64 1030.41 1367.45 1030.41 Z" fill="#000000" fill-rule="nonzero" fill-opacity="1" /><path clip-path="url(#clip320)" d="M1253.7 835.383 L1261.34 835.383 L1261.34 809.018 L1253.03 810.684 L1253.03 806.425 L1261.29 804.758 L1265.97 804.758 L1265.97 835.383 L1273.61 835.383 L1273.61 839.318 L1253.7 839.318 L1253.7 835.383 Z" fill="#000000" fill-rule="nonzero" fill-opacity="1" /><path clip-path="url(#clip320)" d="M1283.05 833.439 L1287.94 833.439 L1287.94 839.318 L1283.05 839.318 L1283.05 833.439 Z" fill="#000000" fill-rule="nonzero" fill-opacity="1" /><path clip-path="url(#clip320)" d="M1308.12 807.837 Q1304.51 807.837 1302.68 811.402 Q1300.88 814.944 1300.88 822.073 Q1300.88 829.18 1302.68 832.744 Q1304.51 836.286 1308.12 836.286 Q1311.76 836.286 1313.56 832.744 Q1315.39 829.18 1315.39 822.073 Q1315.39 814.944 1313.56 811.402 Q1311.76 807.837 1308.12 807.837 M1308.12 804.133 Q1313.93 804.133 1316.99 808.74 Q1320.07 813.323 1320.07 822.073 Q1320.07 830.8 1316.99 835.406 Q1313.93 839.99 1308.12 839.99 Q1302.31 839.99 1299.23 835.406 Q1296.18 830.8 1296.18 822.073 Q1296.18 813.323 1299.23 808.74 Q1302.31 804.133 1308.12 804.133 Z" fill="#000000" fill-rule="nonzero" fill-opacity="1" /><path clip-path="url(#clip320)" d="M1332.31 835.383 L1348.63 835.383 L1348.63 839.318 L1326.69 839.318 L1326.69 835.383 Q1329.35 832.629 1333.93 827.999 Q1338.54 823.346 1339.72 822.004 Q1341.96 819.481 1342.84 817.744 Q1343.75 815.985 1343.75 814.295 Q1343.75 811.541 1341.8 809.805 Q1339.88 808.069 1336.78 808.069 Q1334.58 808.069 1332.13 808.832 Q1329.7 809.596 1326.92 811.147 L1326.92 806.425 Q1329.74 805.291 1332.2 804.712 Q1334.65 804.133 1336.69 804.133 Q1342.06 804.133 1345.25 806.819 Q1348.45 809.504 1348.45 813.994 Q1348.45 816.124 1347.64 818.045 Q1346.85 819.943 1344.74 822.536 Q1344.16 823.207 1341.06 826.425 Q1337.96 829.619 1332.31 835.383 Z" fill="#000000" fill-rule="nonzero" fill-opacity="1" /><path clip-path="url(#clip320)" d="M1358.49 804.758 L1376.85 804.758 L1376.85 808.694 L1362.77 808.694 L1362.77 817.166 Q1363.79 816.819 1364.81 816.656 Q1365.83 816.471 1366.85 816.471 Q1372.63 816.471 1376.01 819.643 Q1379.39 822.814 1379.39 828.23 Q1379.39 833.809 1375.92 836.911 Q1372.45 839.99 1366.13 839.99 Q1363.95 839.99 1361.69 839.619 Q1359.44 839.249 1357.03 838.508 L1357.03 833.809 Q1359.12 834.943 1361.34 835.499 Q1363.56 836.055 1366.04 836.055 Q1370.04 836.055 1372.38 833.948 Q1374.72 831.842 1374.72 828.23 Q1374.72 824.619 1372.38 822.513 Q1370.04 820.406 1366.04 820.406 Q1364.16 820.406 1362.29 820.823 Q1360.44 821.24 1358.49 822.119 L1358.49 804.758 Z" fill="#000000" fill-rule="nonzero" fill-opacity="1" /><path clip-path="url(#clip320)" d="M1252.71 609.108 L1260.34 609.108 L1260.34 582.742 L1252.03 584.409 L1252.03 580.149 L1260.3 578.483 L1264.97 578.483 L1264.97 609.108 L1272.61 609.108 L1272.61 613.043 L1252.71 613.043 L1252.71 609.108 Z" fill="#000000" fill-rule="nonzero" fill-opacity="1" /><path clip-path="url(#clip320)" d="M1282.06 607.163 L1286.94 607.163 L1286.94 613.043 L1282.06 613.043 L1282.06 607.163 Z" fill="#000000" fill-rule="nonzero" fill-opacity="1" /><path clip-path="url(#clip320)" d="M1307.13 581.562 Q1303.51 581.562 1301.69 585.126 Q1299.88 588.668 1299.88 595.798 Q1299.88 602.904 1301.69 606.469 Q1303.51 610.01 1307.13 610.01 Q1310.76 610.01 1312.57 606.469 Q1314.39 602.904 1314.39 595.798 Q1314.39 588.668 1312.57 585.126 Q1310.76 581.562 1307.13 581.562 M1307.13 577.858 Q1312.94 577.858 1315.99 582.464 Q1319.07 587.048 1319.07 595.798 Q1319.07 604.524 1315.99 609.131 Q1312.94 613.714 1307.13 613.714 Q1301.32 613.714 1298.24 609.131 Q1295.18 604.524 1295.18 595.798 Q1295.18 587.048 1298.24 582.464 Q1301.32 577.858 1307.13 577.858 Z" fill="#000000" fill-rule="nonzero" fill-opacity="1" /><path clip-path="url(#clip320)" d="M1327.33 578.483 L1345.69 578.483 L1345.69 582.418 L1331.62 582.418 L1331.62 590.89 Q1332.64 590.543 1333.65 590.381 Q1334.67 590.196 1335.69 590.196 Q1341.48 590.196 1344.86 593.367 Q1348.24 596.538 1348.24 601.955 Q1348.24 607.534 1344.76 610.635 Q1341.29 613.714 1334.97 613.714 Q1332.8 613.714 1330.53 613.344 Q1328.28 612.973 1325.88 612.233 L1325.88 607.534 Q1327.96 608.668 1330.18 609.223 Q1332.4 609.779 1334.88 609.779 Q1338.89 609.779 1341.22 607.672 Q1343.56 605.566 1343.56 601.955 Q1343.56 598.344 1341.22 596.237 Q1338.89 594.131 1334.88 594.131 Q1333.01 594.131 1331.13 594.548 Q1329.28 594.964 1327.33 595.844 L1327.33 578.483 Z" fill="#000000" fill-rule="nonzero" fill-opacity="1" /><path clip-path="url(#clip320)" d="M1367.45 581.562 Q1363.84 581.562 1362.01 585.126 Q1360.2 588.668 1360.2 595.798 Q1360.2 602.904 1362.01 606.469 Q1363.84 610.01 1367.45 610.01 Q1371.08 610.01 1372.89 606.469 Q1374.72 602.904 1374.72 595.798 Q1374.72 588.668 1372.89 585.126 Q1371.08 581.562 1367.45 581.562 M1367.45 577.858 Q1373.26 577.858 1376.32 582.464 Q1379.39 587.048 1379.39 595.798 Q1379.39 604.524 1376.32 609.131 Q1373.26 613.714 1367.45 613.714 Q1361.64 613.714 1358.56 609.131 Q1355.51 604.524 1355.51 595.798 Q1355.51 587.048 1358.56 582.464 Q1361.64 577.858 1367.45 577.858 Z" fill="#000000" fill-rule="nonzero" fill-opacity="1" /><path clip-path="url(#clip320)" d="M1253.7 382.832 L1261.34 382.832 L1261.34 356.466 L1253.03 358.133 L1253.03 353.874 L1261.29 352.207 L1265.97 352.207 L1265.97 382.832 L1273.61 382.832 L1273.61 386.767 L1253.7 386.767 L1253.7 382.832 Z" fill="#000000" fill-rule="nonzero" fill-opacity="1" /><path clip-path="url(#clip320)" d="M1283.05 380.888 L1287.94 380.888 L1287.94 386.767 L1283.05 386.767 L1283.05 380.888 Z" fill="#000000" fill-rule="nonzero" fill-opacity="1" /><path clip-path="url(#clip320)" d="M1308.12 355.286 Q1304.51 355.286 1302.68 358.851 Q1300.88 362.392 1300.88 369.522 Q1300.88 376.628 1302.68 380.193 Q1304.51 383.735 1308.12 383.735 Q1311.76 383.735 1313.56 380.193 Q1315.39 376.628 1315.39 369.522 Q1315.39 362.392 1313.56 358.851 Q1311.76 355.286 1308.12 355.286 M1308.12 351.582 Q1313.93 351.582 1316.99 356.189 Q1320.07 360.772 1320.07 369.522 Q1320.07 378.249 1316.99 382.855 Q1313.93 387.439 1308.12 387.439 Q1302.31 387.439 1299.23 382.855 Q1296.18 378.249 1296.18 369.522 Q1296.18 360.772 1299.23 356.189 Q1302.31 351.582 1308.12 351.582 Z" fill="#000000" fill-rule="nonzero" fill-opacity="1" /><path clip-path="url(#clip320)" d="M1327.1 352.207 L1349.32 352.207 L1349.32 354.198 L1336.78 386.767 L1331.89 386.767 L1343.7 356.142 L1327.1 356.142 L1327.1 352.207 Z" fill="#000000" fill-rule="nonzero" fill-opacity="1" /><path clip-path="url(#clip320)" d="M1358.49 352.207 L1376.85 352.207 L1376.85 356.142 L1362.77 356.142 L1362.77 364.615 Q1363.79 364.267 1364.81 364.105 Q1365.83 363.92 1366.85 363.92 Q1372.63 363.92 1376.01 367.091 Q1379.39 370.263 1379.39 375.679 Q1379.39 381.258 1375.92 384.36 Q1372.45 387.439 1366.13 387.439 Q1363.95 387.439 1361.69 387.068 Q1359.44 386.698 1357.03 385.957 L1357.03 381.258 Q1359.12 382.392 1361.34 382.948 Q1363.56 383.503 1366.04 383.503 Q1370.04 383.503 1372.38 381.397 Q1374.72 379.29 1374.72 375.679 Q1374.72 372.068 1372.38 369.962 Q1370.04 367.855 1366.04 367.855 Q1364.16 367.855 1362.29 368.272 Q1360.44 368.689 1358.49 369.568 L1358.49 352.207 Z" fill="#000000" fill-rule="nonzero" fill-opacity="1" /><path clip-path="url(#clip320)" d="M1252.71 156.557 L1260.34 156.557 L1260.34 130.191 L1252.03 131.858 L1252.03 127.598 L1260.3 125.932 L1264.97 125.932 L1264.97 156.557 L1272.61 156.557 L1272.61 160.492 L1252.71 160.492 L1252.71 156.557 Z" fill="#000000" fill-rule="nonzero" fill-opacity="1" /><path clip-path="url(#clip320)" d="M1282.06 154.612 L1286.94 154.612 L1286.94 160.492 L1282.06 160.492 L1282.06 154.612 Z" fill="#000000" fill-rule="nonzero" fill-opacity="1" /><path clip-path="url(#clip320)" d="M1297.94 156.557 L1305.58 156.557 L1305.58 130.191 L1297.27 131.858 L1297.27 127.598 L1305.53 125.932 L1310.2 125.932 L1310.2 156.557 L1317.84 156.557 L1317.84 160.492 L1297.94 160.492 L1297.94 156.557 Z" fill="#000000" fill-rule="nonzero" fill-opacity="1" /><path clip-path="url(#clip320)" d="M1337.29 129.01 Q1333.68 129.01 1331.85 132.575 Q1330.04 136.117 1330.04 143.246 Q1330.04 150.353 1331.85 153.918 Q1333.68 157.459 1337.29 157.459 Q1340.92 157.459 1342.73 153.918 Q1344.56 150.353 1344.56 143.246 Q1344.56 136.117 1342.73 132.575 Q1340.92 129.01 1337.29 129.01 M1337.29 125.307 Q1343.1 125.307 1346.15 129.913 Q1349.23 134.496 1349.23 143.246 Q1349.23 151.973 1346.15 156.58 Q1343.1 161.163 1337.29 161.163 Q1331.48 161.163 1328.4 156.58 Q1325.34 151.973 1325.34 143.246 Q1325.34 134.496 1328.4 129.913 Q1331.48 125.307 1337.29 125.307 Z" fill="#000000" fill-rule="nonzero" fill-opacity="1" /><path clip-path="url(#clip320)" d="M1367.45 129.01 Q1363.84 129.01 1362.01 132.575 Q1360.2 136.117 1360.2 143.246 Q1360.2 150.353 1362.01 153.918 Q1363.84 157.459 1367.45 157.459 Q1371.08 157.459 1372.89 153.918 Q1374.72 150.353 1374.72 143.246 Q1374.72 136.117 1372.89 132.575 Q1371.08 129.01 1367.45 129.01 M1367.45 125.307 Q1373.26 125.307 1376.32 129.913 Q1379.39 134.496 1379.39 143.246 Q1379.39 151.973 1376.32 156.58 Q1373.26 161.163 1367.45 161.163 Q1361.64 161.163 1358.56 156.58 Q1355.51 151.973 1355.51 143.246 Q1355.51 134.496 1358.56 129.913 Q1361.64 125.307 1367.45 125.307 Z" fill="#000000" fill-rule="nonzero" fill-opacity="1" /><path clip-path="url(#clip320)" d="M1743.36 31.7342 Q1743.36 26.5259 1741.2 23.6613 Q1739.06 20.7968 1735.18 20.7968 Q1731.33 20.7968 1729.17 23.6613 Q1727.03 26.5259 1727.03 31.7342 Q1727.03 36.9165 1729.17 39.781 Q1731.33 42.6456 1735.18 42.6456 Q1739.06 42.6456 1741.2 39.781 Q1743.36 36.9165 1743.36 31.7342 M1748.15 43.0362 Q1748.15 50.4841 1744.84 54.1039 Q1741.54 57.7497 1734.71 57.7497 Q1732.19 57.7497 1729.95 57.3591 Q1727.71 56.9945 1725.6 56.2132 L1725.6 51.5518 Q1727.71 52.6976 1729.77 53.2445 Q1731.82 53.7914 1733.96 53.7914 Q1738.67 53.7914 1741.02 51.3174 Q1743.36 48.8695 1743.36 43.8956 L1743.36 41.5258 Q1741.88 44.1039 1739.56 45.38 Q1737.24 46.656 1734.01 46.656 Q1728.65 46.656 1725.36 42.5675 Q1722.08 38.479 1722.08 31.7342 Q1722.08 24.9634 1725.36 20.8749 Q1728.65 16.7864 1734.01 16.7864 Q1737.24 16.7864 1739.56 18.0624 Q1741.88 19.3384 1743.36 21.9165 L1743.36 17.4895 L1748.15 17.4895 L1748.15 43.0362 Z" fill="#000000" fill-rule="nonzero" fill-opacity="1" /><path clip-path="url(#clip320)" d="M1777.21 21.9165 L1777.21 6.13538 L1782.01 6.13538 L1782.01 46.656 L1777.21 46.656 L1777.21 42.281 Q1775.7 44.8852 1773.39 46.1612 Q1771.09 47.4112 1767.86 47.4112 Q1762.58 47.4112 1759.25 43.1925 Q1755.94 38.9737 1755.94 32.0988 Q1755.94 25.2238 1759.25 21.0051 Q1762.58 16.7864 1767.86 16.7864 Q1771.09 16.7864 1773.39 18.0624 Q1775.7 19.3124 1777.21 21.9165 M1760.89 32.0988 Q1760.89 37.3852 1763.05 40.406 Q1765.23 43.4008 1769.04 43.4008 Q1772.84 43.4008 1775.03 40.406 Q1777.21 37.3852 1777.21 32.0988 Q1777.21 26.8124 1775.03 23.8176 Q1772.84 20.7968 1769.04 20.7968 Q1765.23 20.7968 1763.05 23.8176 Q1760.89 26.8124 1760.89 32.0988 Z" fill="#000000" fill-rule="nonzero" fill-opacity="1" /><path clip-path="url(#clip320)" d="M1796.51 42.281 L1796.51 57.7497 L1791.69 57.7497 L1791.69 17.4895 L1796.51 17.4895 L1796.51 21.9165 Q1798.02 19.3124 1800.31 18.0624 Q1802.63 16.7864 1805.83 16.7864 Q1811.15 16.7864 1814.45 21.0051 Q1817.79 25.2238 1817.79 32.0988 Q1817.79 38.9737 1814.45 43.1925 Q1811.15 47.4112 1805.83 47.4112 Q1802.63 47.4112 1800.31 46.1612 Q1798.02 44.8852 1796.51 42.281 M1812.81 32.0988 Q1812.81 26.8124 1810.62 23.8176 Q1808.46 20.7968 1804.66 20.7968 Q1800.86 20.7968 1798.67 23.8176 Q1796.51 26.8124 1796.51 32.0988 Q1796.51 37.3852 1798.67 40.406 Q1800.86 43.4008 1804.66 43.4008 Q1808.46 43.4008 1810.62 40.406 Q1812.81 37.3852 1812.81 32.0988 Z" fill="#000000" fill-rule="nonzero" fill-opacity="1" /><path clip-path="url(#clip320)" d="M1861.87 21.9165 L1861.87 6.13538 L1866.67 6.13538 L1866.67 46.656 L1861.87 46.656 L1861.87 42.281 Q1860.36 44.8852 1858.05 46.1612 Q1855.75 47.4112 1852.53 47.4112 Q1847.24 47.4112 1843.91 43.1925 Q1840.6 38.9737 1840.6 32.0988 Q1840.6 25.2238 1843.91 21.0051 Q1847.24 16.7864 1852.53 16.7864 Q1855.75 16.7864 1858.05 18.0624 Q1860.36 19.3124 1861.87 21.9165 M1845.55 32.0988 Q1845.55 37.3852 1847.71 40.406 Q1849.9 43.4008 1853.7 43.4008 Q1857.5 43.4008 1859.69 40.406 Q1861.87 37.3852 1861.87 32.0988 Q1861.87 26.8124 1859.69 23.8176 Q1857.5 20.7968 1853.7 20.7968 Q1849.9 20.7968 1847.71 23.8176 Q1845.55 26.8124 1845.55 32.0988 Z" fill="#000000" fill-rule="nonzero" fill-opacity="1" /><path clip-path="url(#clip320)" d="M1901.48 30.8748 L1901.48 33.2186 L1879.45 33.2186 Q1879.77 38.1665 1882.42 40.7706 Q1885.1 43.3487 1889.87 43.3487 Q1892.63 43.3487 1895.21 42.6716 Q1897.81 41.9946 1900.36 40.6404 L1900.36 45.1716 Q1897.79 46.2654 1895.08 46.8383 Q1892.37 47.4112 1889.58 47.4112 Q1882.6 47.4112 1878.52 43.3487 Q1874.45 39.2862 1874.45 32.3592 Q1874.45 25.1978 1878.31 21.0051 Q1882.19 16.7864 1888.75 16.7864 Q1894.63 16.7864 1898.05 20.5884 Q1901.48 24.3645 1901.48 30.8748 M1896.69 29.4686 Q1896.64 25.5363 1894.48 23.1926 Q1892.34 20.8488 1888.8 20.8488 Q1884.79 20.8488 1882.37 23.1145 Q1879.97 25.3801 1879.61 29.4946 L1896.69 29.4686 Z" fill="#000000" fill-rule="nonzero" fill-opacity="1" /><path clip-path="url(#clip320)" d="M1924.11 6.13538 L1924.11 10.1197 L1919.53 10.1197 Q1916.95 10.1197 1915.94 11.1614 Q1914.95 12.2031 1914.95 14.9114 L1914.95 17.4895 L1922.84 17.4895 L1922.84 21.2134 L1914.95 21.2134 L1914.95 46.656 L1910.13 46.656 L1910.13 21.2134 L1905.55 21.2134 L1905.55 17.4895 L1910.13 17.4895 L1910.13 15.4583 Q1910.13 10.5885 1912.4 8.37496 Q1914.66 6.13538 1919.58 6.13538 L1924.11 6.13538 Z" fill="#000000" fill-rule="nonzero" fill-opacity="1" /><path clip-path="url(#clip320)" d="M1928.12 6.13538 L1932.92 6.13538 L1932.92 46.656 L1928.12 46.656 L1928.12 6.13538 Z" fill="#000000" fill-rule="nonzero" fill-opacity="1" /><path clip-path="url(#clip320)" d="M1956.2 31.9946 Q1950.39 31.9946 1948.15 33.3227 Q1945.91 34.6509 1945.91 37.854 Q1945.91 40.406 1947.58 41.9164 Q1949.27 43.4008 1952.16 43.4008 Q1956.14 43.4008 1958.54 40.5883 Q1960.96 37.7498 1960.96 33.0623 L1960.96 31.9946 L1956.2 31.9946 M1965.75 30.0155 L1965.75 46.656 L1960.96 46.656 L1960.96 42.2289 Q1959.32 44.8852 1956.87 46.1612 Q1954.43 47.4112 1950.88 47.4112 Q1946.41 47.4112 1943.75 44.9112 Q1941.12 42.3852 1941.12 38.1665 Q1941.12 33.2446 1944.4 30.7446 Q1947.71 28.2446 1954.24 28.2446 L1960.96 28.2446 L1960.96 27.7759 Q1960.96 24.4686 1958.78 22.6718 Q1956.61 20.8488 1952.68 20.8488 Q1950.18 20.8488 1947.81 21.4478 Q1945.44 22.0468 1943.25 23.2447 L1943.25 18.8176 Q1945.88 17.802 1948.36 17.3072 Q1950.83 16.7864 1953.18 16.7864 Q1959.5 16.7864 1962.63 20.0676 Q1965.75 23.3488 1965.75 30.0155 Z" fill="#000000" fill-rule="nonzero" fill-opacity="1" /><path clip-path="url(#clip320)" d="M1980.36 9.20828 L1980.36 17.4895 L1990.23 17.4895 L1990.23 21.2134 L1980.36 21.2134 L1980.36 37.0467 Q1980.36 40.6144 1981.33 41.63 Q1982.32 42.6456 1985.31 42.6456 L1990.23 42.6456 L1990.23 46.656 L1985.31 46.656 Q1979.76 46.656 1977.66 44.5987 Q1975.55 42.5154 1975.55 37.0467 L1975.55 21.2134 L1972.03 21.2134 L1972.03 17.4895 L1975.55 17.4895 L1975.55 9.20828 L1980.36 9.20828 Z" fill="#000000" fill-rule="nonzero" fill-opacity="1" /><path clip-path="url(#clip320)" d="M2007.84 20.8488 Q2003.98 20.8488 2001.74 23.8697 Q1999.5 26.8644 1999.5 32.0988 Q1999.5 37.3331 2001.72 40.354 Q2003.96 43.3487 2007.84 43.3487 Q2011.67 43.3487 2013.91 40.3279 Q2016.14 37.3071 2016.14 32.0988 Q2016.14 26.9165 2013.91 23.8957 Q2011.67 20.8488 2007.84 20.8488 M2007.84 16.7864 Q2014.09 16.7864 2017.66 20.8488 Q2021.22 24.9113 2021.22 32.0988 Q2021.22 39.2602 2017.66 43.3487 Q2014.09 47.4112 2007.84 47.4112 Q2001.56 47.4112 1997.99 43.3487 Q1994.45 39.2602 1994.45 32.0988 Q1994.45 24.9113 1997.99 20.8488 Q2001.56 16.7864 2007.84 16.7864 Z" fill="#000000" fill-rule="nonzero" fill-opacity="1" /><path clip-path="url(#clip320)" d="M2046.07 21.9686 Q2045.26 21.4999 2044.3 21.2916 Q2043.36 21.0572 2042.21 21.0572 Q2038.15 21.0572 2035.96 23.7134 Q2033.8 26.3436 2033.8 31.2915 L2033.8 46.656 L2028.98 46.656 L2028.98 17.4895 L2033.8 17.4895 L2033.8 22.0207 Q2035.31 19.3645 2037.73 18.0884 Q2040.15 16.7864 2043.62 16.7864 Q2044.11 16.7864 2044.71 16.8645 Q2045.31 16.9166 2046.04 17.0468 L2046.07 21.9686 Z" fill="#000000" fill-rule="nonzero" fill-opacity="1" /><path clip-path="url(#clip323)" d="M1441.92 1048.31 L1486.14 1070.59 L1530.35 999.17 L1574.57 998.954 L1618.78 1008.69 L1663 1023.88 L1707.21 971.179 L1751.43 935.037 L1795.64 912.053 L1839.86 913.032 L1884.08 878.688 L1928.29 835.775 L1972.51 845.374 L2016.72 824.764 L2060.94 756.511 L2105.15 702.478 L2149.37 653.611 L2193.58 652.334 L2237.8 615.911 L2282.01 583.389 L2326.23 552.479 L2326.23 194.305 L2282.01 249.754 L2237.8 359.911 L2193.58 438.309 L2149.37 512.892 L2105.15 536.863 L2060.94 590.651 L2016.72 621.347 L1972.51 641.404 L1928.29 679.389 L1884.08 716.862 L1839.86 705.418 L1795.64 691.019 L1751.43 736.659 L1707.21 785.269 L1663 753.359 L1618.78 806.537 L1574.57 877.295 L1530.35 952.027 L1486.14 982.916 L1441.92 1048.31  Z" fill="#009af9" fill-rule="evenodd" fill-opacity="0.1"/>
<polyline clip-path="url(#clip323)" style="stroke:#009af9; stroke-linecap:round; stroke-linejoin:round; stroke-width:4; stroke-opacity:1; fill:none" points="1441.92,1048.31 1486.14,1026.75 1530.35,975.599 1574.57,938.124 1618.78,907.614 1663,888.619 1707.21,878.224 1751.43,835.848 1795.64,801.536 1839.86,809.225 1884.08,797.775 1928.29,757.582 1972.51,743.389 2016.72,723.056 2060.94,673.581 2105.15,619.671 2149.37,583.252 2193.58,545.322 2237.8,487.911 2282.01,416.571 2326.23,373.392 "/>
<path clip-path="url(#clip323)" d="M1441.92 1048.31 L1486.14 1059.53 L1530.35 1038.57 L1574.57 1022.44 L1618.78 1026.13 L1663 993.482 L1707.21 1005.66 L1751.43 980.504 L1795.64 913.345 L1839.86 925.336 L1884.08 841.672 L1928.29 823.904 L1972.51 807.513 L2016.72 794.098 L2060.94 820.169 L2105.15 811.002 L2149.37 763.701 L2193.58 771.838 L2237.8 725.727 L2282.01 693.571 L2326.23 674.859 L2326.23 120.65 L2282.01 155.509 L2237.8 212.615 L2193.58 242.138 L2149.37 287.665 L2105.15 392.586 L2060.94 470.547 L2016.72 514.207 L1972.51 525.578 L1928.29 567.16 L1884.08 606.095 L1839.86 650.39 L1795.64 696.955 L1751.43 707.327 L1707.21 718.559 L1663 765.613 L1618.78 821.875 L1574.57 841.319 L1530.35 939.441 L1486.14 1015.85 L1441.92 1048.31  Z" fill="#e26f46" fill-rule="evenodd" fill-opacity="0.1"/>
<polyline clip-path="url(#clip323)" style="stroke:#e26f46; stroke-linecap:round; stroke-linejoin:round; stroke-width:4; stroke-opacity:1; fill:none" points="1441.92,1048.31 1486.14,1037.69 1530.35,989.003 1574.57,931.879 1618.78,924.004 1663,879.547 1707.21,862.108 1751.43,843.916 1795.64,805.15 1839.86,787.863 1884.08,723.884 1928.29,695.532 1972.51,666.545 2016.72,654.152 2060.94,645.358 2105.15,601.794 2149.37,525.683 2193.58,506.988 2237.8,469.171 2282.01,424.54 2326.23,397.755 "/>
</svg>
