<?xml version="1.0" encoding="utf-8"?>
<svg xmlns="http://www.w3.org/2000/svg" xmlns:xlink="http://www.w3.org/1999/xlink" width="600" height="400" viewBox="0 0 2400 1600">
<defs>
  <clipPath id="clip400">
    <rect x="0" y="0" width="2400" height="1600"/>
  </clipPath>
</defs>
<path clip-path="url(#clip400)" d="M0 1600 L2400 1600 L2400 0 L0 0  Z" fill="#ffffff" fill-rule="evenodd" fill-opacity="1"/>
<defs>
  <clipPath id="clip401">
    <rect x="480" y="0" width="1681" height="1600"/>
  </clipPath>
</defs>
<path clip-path="url(#clip400)" d="M230.765 1486.45 L2352.76 1486.45 L2352.76 106.192 L230.765 106.192  Z" fill="#ffffff" fill-rule="evenodd" fill-opacity="1"/>
<defs>
  <clipPath id="clip402">
    <rect x="230" y="106" width="2123" height="1381"/>
  </clipPath>
</defs>
<polyline clip-path="url(#clip402)" style="stroke:#000000; stroke-linecap:round; stroke-linejoin:round; stroke-width:2; stroke-opacity:0.1; fill:none" points="541.056,1486.45 541.056,106.192 "/>
<polyline clip-path="url(#clip402)" style="stroke:#000000; stroke-linecap:round; stroke-linejoin:round; stroke-width:2; stroke-opacity:0.1; fill:none" points="916.408,1486.45 916.408,106.192 "/>
<polyline clip-path="url(#clip402)" style="stroke:#000000; stroke-linecap:round; stroke-linejoin:round; stroke-width:2; stroke-opacity:0.1; fill:none" points="1291.76,1486.45 1291.76,106.192 "/>
<polyline clip-path="url(#clip402)" style="stroke:#000000; stroke-linecap:round; stroke-linejoin:round; stroke-width:2; stroke-opacity:0.1; fill:none" points="1667.11,1486.45 1667.11,106.192 "/>
<polyline clip-path="url(#clip402)" style="stroke:#000000; stroke-linecap:round; stroke-linejoin:round; stroke-width:2; stroke-opacity:0.1; fill:none" points="2042.46,1486.45 2042.46,106.192 "/>
<polyline clip-path="url(#clip402)" style="stroke:#000000; stroke-linecap:round; stroke-linejoin:round; stroke-width:2; stroke-opacity:0.1; fill:none" points="230.765,1419.14 2352.76,1419.14 "/>
<polyline clip-path="url(#clip402)" style="stroke:#000000; stroke-linecap:round; stroke-linejoin:round; stroke-width:2; stroke-opacity:0.1; fill:none" points="230.765,1194.58 2352.76,1194.58 "/>
<polyline clip-path="url(#clip402)" style="stroke:#000000; stroke-linecap:round; stroke-linejoin:round; stroke-width:2; stroke-opacity:0.1; fill:none" points="230.765,970.012 2352.76,970.012 "/>
<polyline clip-path="url(#clip402)" style="stroke:#000000; stroke-linecap:round; stroke-linejoin:round; stroke-width:2; stroke-opacity:0.1; fill:none" points="230.765,745.447 2352.76,745.447 "/>
<polyline clip-path="url(#clip402)" style="stroke:#000000; stroke-linecap:round; stroke-linejoin:round; stroke-width:2; stroke-opacity:0.1; fill:none" points="230.765,520.882 2352.76,520.882 "/>
<polyline clip-path="url(#clip402)" style="stroke:#000000; stroke-linecap:round; stroke-linejoin:round; stroke-width:2; stroke-opacity:0.1; fill:none" points="230.765,296.317 2352.76,296.317 "/>
<polyline clip-path="url(#clip400)" style="stroke:#000000; stroke-linecap:round; stroke-linejoin:round; stroke-width:4; stroke-opacity:1; fill:none" points="230.765,1486.45 2352.76,1486.45 "/>
<polyline clip-path="url(#clip400)" style="stroke:#000000; stroke-linecap:round; stroke-linejoin:round; stroke-width:4; stroke-opacity:1; fill:none" points="541.056,1486.45 541.056,1467.55 "/>
<polyline clip-path="url(#clip400)" style="stroke:#000000; stroke-linecap:round; stroke-linejoin:round; stroke-width:4; stroke-opacity:1; fill:none" points="916.408,1486.45 916.408,1467.55 "/>
<polyline clip-path="url(#clip400)" style="stroke:#000000; stroke-linecap:round; stroke-linejoin:round; stroke-width:4; stroke-opacity:1; fill:none" points="1291.76,1486.45 1291.76,1467.55 "/>
<polyline clip-path="url(#clip400)" style="stroke:#000000; stroke-linecap:round; stroke-linejoin:round; stroke-width:4; stroke-opacity:1; fill:none" points="1667.11,1486.45 1667.11,1467.55 "/>
<polyline clip-path="url(#clip400)" style="stroke:#000000; stroke-linecap:round; stroke-linejoin:round; stroke-width:4; stroke-opacity:1; fill:none" points="2042.46,1486.45 2042.46,1467.55 "/>
<path clip-path="url(#clip400)" d="M545.303 1530.21 Q548.66 1530.93 550.535 1533.2 Q552.433 1535.47 552.433 1538.8 Q552.433 1543.92 548.914 1546.72 Q545.396 1549.52 538.915 1549.52 Q536.739 1549.52 534.424 1549.08 Q532.132 1548.66 529.678 1547.81 L529.678 1543.29 Q531.623 1544.43 533.938 1545.01 Q536.252 1545.58 538.776 1545.58 Q543.174 1545.58 545.465 1543.85 Q547.78 1542.11 547.78 1538.8 Q547.78 1535.75 545.627 1534.03 Q543.498 1532.3 539.678 1532.3 L535.651 1532.3 L535.651 1528.45 L539.864 1528.45 Q543.313 1528.45 545.141 1527.09 Q546.97 1525.7 546.97 1523.11 Q546.97 1520.45 545.072 1519.03 Q543.197 1517.6 539.678 1517.6 Q537.757 1517.6 535.558 1518.01 Q533.359 1518.43 530.72 1519.31 L530.72 1515.14 Q533.382 1514.4 535.697 1514.03 Q538.035 1513.66 540.095 1513.66 Q545.419 1513.66 548.521 1516.09 Q551.623 1518.5 551.623 1522.62 Q551.623 1525.49 549.979 1527.48 Q548.336 1529.45 545.303 1530.21 Z" fill="#000000" fill-rule="nonzero" fill-opacity="1" /><path clip-path="url(#clip400)" d="M916.813 1529.7 Q913.665 1529.7 911.813 1531.86 Q909.984 1534.01 909.984 1537.76 Q909.984 1541.49 911.813 1543.66 Q913.665 1545.82 916.813 1545.82 Q919.961 1545.82 921.79 1543.66 Q923.642 1541.49 923.642 1537.76 Q923.642 1534.01 921.79 1531.86 Q919.961 1529.7 916.813 1529.7 M926.095 1515.05 L926.095 1519.31 Q924.336 1518.48 922.531 1518.04 Q920.748 1517.6 918.989 1517.6 Q914.359 1517.6 911.906 1520.72 Q909.475 1523.85 909.128 1530.17 Q910.494 1528.15 912.554 1527.09 Q914.614 1526 917.091 1526 Q922.299 1526 925.308 1529.17 Q928.341 1532.32 928.341 1537.76 Q928.341 1543.08 925.193 1546.3 Q922.044 1549.52 916.813 1549.52 Q910.818 1549.52 907.646 1544.94 Q904.475 1540.33 904.475 1531.6 Q904.475 1523.41 908.364 1518.55 Q912.253 1513.66 918.804 1513.66 Q920.563 1513.66 922.345 1514.01 Q924.151 1514.36 926.095 1515.05 Z" fill="#000000" fill-rule="nonzero" fill-opacity="1" /><path clip-path="url(#clip400)" d="M1282.06 1548.13 L1282.06 1543.87 Q1283.82 1544.7 1285.63 1545.14 Q1287.43 1545.58 1289.17 1545.58 Q1293.8 1545.58 1296.23 1542.48 Q1298.68 1539.36 1299.03 1533.01 Q1297.69 1535.01 1295.63 1536.07 Q1293.57 1537.13 1291.07 1537.13 Q1285.88 1537.13 1282.85 1534.01 Q1279.84 1530.86 1279.84 1525.42 Q1279.84 1520.1 1282.99 1516.88 Q1286.14 1513.66 1291.37 1513.66 Q1297.36 1513.66 1300.51 1518.27 Q1303.68 1522.85 1303.68 1531.6 Q1303.68 1539.77 1299.79 1544.66 Q1295.93 1549.52 1289.38 1549.52 Q1287.62 1549.52 1285.81 1549.17 Q1284.01 1548.82 1282.06 1548.13 M1291.37 1533.48 Q1294.51 1533.48 1296.34 1531.32 Q1298.2 1529.17 1298.2 1525.42 Q1298.2 1521.7 1296.34 1519.54 Q1294.51 1517.37 1291.37 1517.37 Q1288.22 1517.37 1286.37 1519.54 Q1284.54 1521.7 1284.54 1525.42 Q1284.54 1529.17 1286.37 1531.32 Q1288.22 1533.48 1291.37 1533.48 Z" fill="#000000" fill-rule="nonzero" fill-opacity="1" /><path clip-path="url(#clip400)" d="M1642.6 1544.91 L1650.24 1544.91 L1650.24 1518.55 L1641.93 1520.21 L1641.93 1515.95 L1650.19 1514.29 L1654.87 1514.29 L1654.87 1544.91 L1662.51 1544.91 L1662.51 1548.85 L1642.6 1548.85 L1642.6 1544.91 Z" fill="#000000" fill-rule="nonzero" fill-opacity="1" /><path clip-path="url(#clip400)" d="M1675.98 1544.91 L1692.3 1544.91 L1692.3 1548.85 L1670.35 1548.85 L1670.35 1544.91 Q1673.02 1542.16 1677.6 1537.53 Q1682.2 1532.88 1683.39 1531.53 Q1685.63 1529.01 1686.51 1527.27 Q1687.41 1525.51 1687.41 1523.82 Q1687.41 1521.07 1685.47 1519.33 Q1683.55 1517.6 1680.45 1517.6 Q1678.25 1517.6 1675.79 1518.36 Q1673.36 1519.13 1670.58 1520.68 L1670.58 1515.95 Q1673.41 1514.82 1675.86 1514.24 Q1678.32 1513.66 1680.35 1513.66 Q1685.72 1513.66 1688.92 1516.35 Q1692.11 1519.03 1692.11 1523.52 Q1692.11 1525.65 1691.3 1527.57 Q1690.52 1529.47 1688.41 1532.07 Q1687.83 1532.74 1684.73 1535.95 Q1681.63 1539.15 1675.98 1544.91 Z" fill="#000000" fill-rule="nonzero" fill-opacity="1" /><path clip-path="url(#clip400)" d="M2017.65 1544.91 L2025.29 1544.91 L2025.29 1518.55 L2016.98 1520.21 L2016.98 1515.95 L2025.24 1514.29 L2029.92 1514.29 L2029.92 1544.91 L2037.56 1544.91 L2037.56 1548.85 L2017.65 1548.85 L2017.65 1544.91 Z" fill="#000000" fill-rule="nonzero" fill-opacity="1" /><path clip-path="url(#clip400)" d="M2047.05 1514.29 L2065.4 1514.29 L2065.4 1518.22 L2051.33 1518.22 L2051.33 1526.7 Q2052.35 1526.35 2053.37 1526.19 Q2054.39 1526 2055.4 1526 Q2061.19 1526 2064.57 1529.17 Q2067.95 1532.34 2067.95 1537.76 Q2067.95 1543.34 2064.48 1546.44 Q2061.01 1549.52 2054.69 1549.52 Q2052.51 1549.52 2050.24 1549.15 Q2048 1548.78 2045.59 1548.04 L2045.59 1543.34 Q2047.67 1544.47 2049.9 1545.03 Q2052.12 1545.58 2054.59 1545.58 Q2058.6 1545.58 2060.94 1543.48 Q2063.27 1541.37 2063.27 1537.76 Q2063.27 1534.15 2060.94 1532.04 Q2058.6 1529.94 2054.59 1529.94 Q2052.72 1529.94 2050.84 1530.35 Q2048.99 1530.77 2047.05 1531.65 L2047.05 1514.29 Z" fill="#000000" fill-rule="nonzero" fill-opacity="1" /><polyline clip-path="url(#clip400)" style="stroke:#000000; stroke-linecap:round; stroke-linejoin:round; stroke-width:4; stroke-opacity:1; fill:none" points="230.765,1486.45 230.765,106.192 "/>
<polyline clip-path="url(#clip400)" style="stroke:#000000; stroke-linecap:round; stroke-linejoin:round; stroke-width:4; stroke-opacity:1; fill:none" points="230.765,1419.14 249.662,1419.14 "/>
<polyline clip-path="url(#clip400)" style="stroke:#000000; stroke-linecap:round; stroke-linejoin:round; stroke-width:4; stroke-opacity:1; fill:none" points="230.765,1194.58 249.662,1194.58 "/>
<polyline clip-path="url(#clip400)" style="stroke:#000000; stroke-linecap:round; stroke-linejoin:round; stroke-width:4; stroke-opacity:1; fill:none" points="230.765,970.012 249.662,970.012 "/>
<polyline clip-path="url(#clip400)" style="stroke:#000000; stroke-linecap:round; stroke-linejoin:round; stroke-width:4; stroke-opacity:1; fill:none" points="230.765,745.447 249.662,745.447 "/>
<polyline clip-path="url(#clip400)" style="stroke:#000000; stroke-linecap:round; stroke-linejoin:round; stroke-width:4; stroke-opacity:1; fill:none" points="230.765,520.882 249.662,520.882 "/>
<polyline clip-path="url(#clip400)" style="stroke:#000000; stroke-linecap:round; stroke-linejoin:round; stroke-width:4; stroke-opacity:1; fill:none" points="230.765,296.317 249.662,296.317 "/>
<path clip-path="url(#clip400)" d="M50.9921 1401.86 L73.2142 1401.86 L73.2142 1403.85 L60.668 1436.42 L55.7838 1436.42 L67.5893 1405.8 L50.9921 1405.8 L50.9921 1401.86 Z" fill="#000000" fill-rule="nonzero" fill-opacity="1" /><path clip-path="url(#clip400)" d="M86.3623 1432.49 L102.682 1432.49 L102.682 1436.42 L80.7373 1436.42 L80.7373 1432.49 Q83.3994 1429.73 87.9827 1425.1 Q92.5891 1420.45 93.7697 1419.11 Q96.015 1416.58 96.8947 1414.85 Q97.7974 1413.09 97.7974 1411.4 Q97.7974 1408.64 95.853 1406.91 Q93.9317 1405.17 90.8299 1405.17 Q88.6308 1405.17 86.1771 1405.94 Q83.7466 1406.7 80.9688 1408.25 L80.9688 1403.53 Q83.7929 1402.39 86.2466 1401.82 Q88.7003 1401.24 90.7373 1401.24 Q96.1076 1401.24 99.3021 1403.92 Q102.496 1406.61 102.496 1411.1 Q102.496 1413.23 101.686 1415.15 Q100.899 1417.05 98.7928 1419.64 Q98.2141 1420.31 95.1123 1423.53 Q92.0104 1426.72 86.3623 1432.49 Z" fill="#000000" fill-rule="nonzero" fill-opacity="1" /><path clip-path="url(#clip400)" d="M122.496 1404.94 Q118.885 1404.94 117.057 1408.5 Q115.251 1412.05 115.251 1419.18 Q115.251 1426.28 117.057 1429.85 Q118.885 1433.39 122.496 1433.39 Q126.131 1433.39 127.936 1429.85 Q129.765 1426.28 129.765 1419.18 Q129.765 1412.05 127.936 1408.5 Q126.131 1404.94 122.496 1404.94 M122.496 1401.24 Q128.307 1401.24 131.362 1405.84 Q134.441 1410.43 134.441 1419.18 Q134.441 1427.9 131.362 1432.51 Q128.307 1437.09 122.496 1437.09 Q116.686 1437.09 113.608 1432.51 Q110.552 1427.9 110.552 1419.18 Q110.552 1410.43 113.608 1405.84 Q116.686 1401.24 122.496 1401.24 Z" fill="#000000" fill-rule="nonzero" fill-opacity="1" /><path clip-path="url(#clip400)" d="M152.658 1404.94 Q149.047 1404.94 147.218 1408.5 Q145.413 1412.05 145.413 1419.18 Q145.413 1426.28 147.218 1429.85 Q149.047 1433.39 152.658 1433.39 Q156.292 1433.39 158.098 1429.85 Q159.927 1426.28 159.927 1419.18 Q159.927 1412.05 158.098 1408.5 Q156.292 1404.94 152.658 1404.94 M152.658 1401.24 Q158.468 1401.24 161.524 1405.84 Q164.603 1410.43 164.603 1419.18 Q164.603 1427.9 161.524 1432.51 Q158.468 1437.09 152.658 1437.09 Q146.848 1437.09 143.769 1432.51 Q140.714 1427.9 140.714 1419.18 Q140.714 1410.43 143.769 1405.84 Q146.848 1401.24 152.658 1401.24 Z" fill="#000000" fill-rule="nonzero" fill-opacity="1" /><path clip-path="url(#clip400)" d="M182.82 1404.94 Q179.209 1404.94 177.38 1408.5 Q175.575 1412.05 175.575 1419.18 Q175.575 1426.28 177.38 1429.85 Q179.209 1433.39 182.82 1433.39 Q186.454 1433.39 188.26 1429.85 Q190.089 1426.28 190.089 1419.18 Q190.089 1412.05 188.26 1408.5 Q186.454 1404.94 182.82 1404.94 M182.82 1401.24 Q188.63 1401.24 191.686 1405.84 Q194.765 1410.43 194.765 1419.18 Q194.765 1427.9 191.686 1432.51 Q188.63 1437.09 182.82 1437.09 Q177.01 1437.09 173.931 1432.51 Q170.876 1427.9 170.876 1419.18 Q170.876 1410.43 173.931 1405.84 Q177.01 1401.24 182.82 1401.24 Z" fill="#000000" fill-rule="nonzero" fill-opacity="1" /><path clip-path="url(#clip400)" d="M50.9921 1177.3 L73.2142 1177.3 L73.2142 1179.29 L60.668 1211.86 L55.7838 1211.86 L67.5893 1181.23 L50.9921 1181.23 L50.9921 1177.3 Z" fill="#000000" fill-rule="nonzero" fill-opacity="1" /><path clip-path="url(#clip400)" d="M96.5011 1193.22 Q99.8576 1193.94 101.733 1196.21 Q103.631 1198.48 103.631 1201.81 Q103.631 1206.93 100.112 1209.73 Q96.5937 1212.53 90.1123 1212.53 Q87.9364 1212.53 85.6216 1212.09 Q83.3299 1211.67 80.8762 1210.81 L80.8762 1206.3 Q82.8207 1207.44 85.1355 1208.01 Q87.4503 1208.59 89.9734 1208.59 Q94.3715 1208.59 96.6632 1206.86 Q98.978 1205.12 98.978 1201.81 Q98.978 1198.75 96.8252 1197.04 Q94.6956 1195.31 90.8762 1195.31 L86.8484 1195.31 L86.8484 1191.46 L91.0614 1191.46 Q94.5104 1191.46 96.3391 1190.1 Q98.1678 1188.71 98.1678 1186.12 Q98.1678 1183.45 96.2697 1182.04 Q94.3947 1180.61 90.8762 1180.61 Q88.9549 1180.61 86.7558 1181.02 Q84.5568 1181.44 81.9179 1182.32 L81.9179 1178.15 Q84.5799 1177.41 86.8947 1177.04 Q89.2327 1176.67 91.2928 1176.67 Q96.6169 1176.67 99.7187 1179.1 Q102.821 1181.51 102.821 1185.63 Q102.821 1188.5 101.177 1190.49 Q99.5335 1192.46 96.5011 1193.22 Z" fill="#000000" fill-rule="nonzero" fill-opacity="1" /><path clip-path="url(#clip400)" d="M122.496 1180.38 Q118.885 1180.38 117.057 1183.94 Q115.251 1187.48 115.251 1194.61 Q115.251 1201.72 117.057 1205.28 Q118.885 1208.82 122.496 1208.82 Q126.131 1208.82 127.936 1205.28 Q129.765 1201.72 129.765 1194.61 Q129.765 1187.48 127.936 1183.94 Q126.131 1180.38 122.496 1180.38 M122.496 1176.67 Q128.307 1176.67 131.362 1181.28 Q134.441 1185.86 134.441 1194.61 Q134.441 1203.34 131.362 1207.94 Q128.307 1212.53 122.496 1212.53 Q116.686 1212.53 113.608 1207.94 Q110.552 1203.34 110.552 1194.61 Q110.552 1185.86 113.608 1181.28 Q116.686 1176.67 122.496 1176.67 Z" fill="#000000" fill-rule="nonzero" fill-opacity="1" /><path clip-path="url(#clip400)" d="M152.658 1180.38 Q149.047 1180.38 147.218 1183.94 Q145.413 1187.48 145.413 1194.61 Q145.413 1201.72 147.218 1205.28 Q149.047 1208.82 152.658 1208.82 Q156.292 1208.82 158.098 1205.28 Q159.927 1201.72 159.927 1194.61 Q159.927 1187.48 158.098 1183.94 Q156.292 1180.38 152.658 1180.38 M152.658 1176.67 Q158.468 1176.67 161.524 1181.28 Q164.603 1185.86 164.603 1194.61 Q164.603 1203.34 161.524 1207.94 Q158.468 1212.53 152.658 1212.53 Q146.848 1212.53 143.769 1207.94 Q140.714 1203.34 140.714 1194.61 Q140.714 1185.86 143.769 1181.28 Q146.848 1176.67 152.658 1176.67 Z" fill="#000000" fill-rule="nonzero" fill-opacity="1" /><path clip-path="url(#clip400)" d="M182.82 1180.38 Q179.209 1180.38 177.38 1183.94 Q175.575 1187.48 175.575 1194.61 Q175.575 1201.72 177.38 1205.28 Q179.209 1208.82 182.82 1208.82 Q186.454 1208.82 188.26 1205.28 Q190.089 1201.72 190.089 1194.61 Q190.089 1187.48 188.26 1183.94 Q186.454 1180.38 182.82 1180.38 M182.82 1176.67 Q188.63 1176.67 191.686 1181.28 Q194.765 1185.86 194.765 1194.61 Q194.765 1203.34 191.686 1207.94 Q188.63 1212.53 182.82 1212.53 Q177.01 1212.53 173.931 1207.94 Q170.876 1203.34 170.876 1194.61 Q170.876 1185.86 173.931 1181.28 Q177.01 1176.67 182.82 1176.67 Z" fill="#000000" fill-rule="nonzero" fill-opacity="1" /><path clip-path="url(#clip400)" d="M50.9921 952.732 L73.2142 952.732 L73.2142 954.722 L60.668 987.292 L55.7838 987.292 L67.5893 956.667 L50.9921 956.667 L50.9921 952.732 Z" fill="#000000" fill-rule="nonzero" fill-opacity="1" /><path clip-path="url(#clip400)" d="M95.1817 956.806 L83.3762 975.255 L95.1817 975.255 L95.1817 956.806 M93.9549 952.732 L99.8345 952.732 L99.8345 975.255 L104.765 975.255 L104.765 979.144 L99.8345 979.144 L99.8345 987.292 L95.1817 987.292 L95.1817 979.144 L79.5799 979.144 L79.5799 974.63 L93.9549 952.732 Z" fill="#000000" fill-rule="nonzero" fill-opacity="1" /><path clip-path="url(#clip400)" d="M122.496 955.81 Q118.885 955.81 117.057 959.375 Q115.251 962.917 115.251 970.046 Q115.251 977.153 117.057 980.718 Q118.885 984.259 122.496 984.259 Q126.131 984.259 127.936 980.718 Q129.765 977.153 129.765 970.046 Q129.765 962.917 127.936 959.375 Q126.131 955.81 122.496 955.81 M122.496 952.107 Q128.307 952.107 131.362 956.713 Q134.441 961.296 134.441 970.046 Q134.441 978.773 131.362 983.38 Q128.307 987.963 122.496 987.963 Q116.686 987.963 113.608 983.38 Q110.552 978.773 110.552 970.046 Q110.552 961.296 113.608 956.713 Q116.686 952.107 122.496 952.107 Z" fill="#000000" fill-rule="nonzero" fill-opacity="1" /><path clip-path="url(#clip400)" d="M152.658 955.81 Q149.047 955.81 147.218 959.375 Q145.413 962.917 145.413 970.046 Q145.413 977.153 147.218 980.718 Q149.047 984.259 152.658 984.259 Q156.292 984.259 158.098 980.718 Q159.927 977.153 159.927 970.046 Q159.927 962.917 158.098 959.375 Q156.292 955.81 152.658 955.81 M152.658 952.107 Q158.468 952.107 161.524 956.713 Q164.603 961.296 164.603 970.046 Q164.603 978.773 161.524 983.38 Q158.468 987.963 152.658 987.963 Q146.848 987.963 143.769 983.38 Q140.714 978.773 140.714 970.046 Q140.714 961.296 143.769 956.713 Q146.848 952.107 152.658 952.107 Z" fill="#000000" fill-rule="nonzero" fill-opacity="1" /><path clip-path="url(#clip400)" d="M182.82 955.81 Q179.209 955.81 177.38 959.375 Q175.575 962.917 175.575 970.046 Q175.575 977.153 177.38 980.718 Q179.209 984.259 182.82 984.259 Q186.454 984.259 188.26 980.718 Q190.089 977.153 190.089 970.046 Q190.089 962.917 188.26 959.375 Q186.454 955.81 182.82 955.81 M182.82 952.107 Q188.63 952.107 191.686 956.713 Q194.765 961.296 194.765 970.046 Q194.765 978.773 191.686 983.38 Q188.63 987.963 182.82 987.963 Q177.01 987.963 173.931 983.38 Q170.876 978.773 170.876 970.046 Q170.876 961.296 173.931 956.713 Q177.01 952.107 182.82 952.107 Z" fill="#000000" fill-rule="nonzero" fill-opacity="1" /><path clip-path="url(#clip400)" d="M50.9921 728.167 L73.2142 728.167 L73.2142 730.158 L60.668 762.727 L55.7838 762.727 L67.5893 732.102 L50.9921 732.102 L50.9921 728.167 Z" fill="#000000" fill-rule="nonzero" fill-opacity="1" /><path clip-path="url(#clip400)" d="M82.3808 728.167 L100.737 728.167 L100.737 732.102 L86.6632 732.102 L86.6632 740.574 Q87.6817 740.227 88.7003 740.065 Q89.7188 739.88 90.7373 739.88 Q96.5243 739.88 99.9039 743.051 Q103.284 746.222 103.284 751.639 Q103.284 757.218 99.8113 760.319 Q96.3391 763.398 90.0197 763.398 Q87.8438 763.398 85.5753 763.028 Q83.3299 762.657 80.9225 761.917 L80.9225 757.218 Q83.0058 758.352 85.2281 758.907 Q87.4503 759.463 89.9271 759.463 Q93.9317 759.463 96.2697 757.356 Q98.6076 755.25 98.6076 751.639 Q98.6076 748.028 96.2697 745.921 Q93.9317 743.815 89.9271 743.815 Q88.0521 743.815 86.1771 744.232 Q84.3253 744.648 82.3808 745.528 L82.3808 728.167 Z" fill="#000000" fill-rule="nonzero" fill-opacity="1" /><path clip-path="url(#clip400)" d="M122.496 731.245 Q118.885 731.245 117.057 734.81 Q115.251 738.352 115.251 745.482 Q115.251 752.588 117.057 756.153 Q118.885 759.694 122.496 759.694 Q126.131 759.694 127.936 756.153 Q129.765 752.588 129.765 745.482 Q129.765 738.352 127.936 734.81 Q126.131 731.245 122.496 731.245 M122.496 727.542 Q128.307 727.542 131.362 732.148 Q134.441 736.732 134.441 745.482 Q134.441 754.208 131.362 758.815 Q128.307 763.398 122.496 763.398 Q116.686 763.398 113.608 758.815 Q110.552 754.208 110.552 745.482 Q110.552 736.732 113.608 732.148 Q116.686 727.542 122.496 727.542 Z" fill="#000000" fill-rule="nonzero" fill-opacity="1" /><path clip-path="url(#clip400)" d="M152.658 731.245 Q149.047 731.245 147.218 734.81 Q145.413 738.352 145.413 745.482 Q145.413 752.588 147.218 756.153 Q149.047 759.694 152.658 759.694 Q156.292 759.694 158.098 756.153 Q159.927 752.588 159.927 745.482 Q159.927 738.352 158.098 734.81 Q156.292 731.245 152.658 731.245 M152.658 727.542 Q158.468 727.542 161.524 732.148 Q164.603 736.732 164.603 745.482 Q164.603 754.208 161.524 758.815 Q158.468 763.398 152.658 763.398 Q146.848 763.398 143.769 758.815 Q140.714 754.208 140.714 745.482 Q140.714 736.732 143.769 732.148 Q146.848 727.542 152.658 727.542 Z" fill="#000000" fill-rule="nonzero" fill-opacity="1" /><path clip-path="url(#clip400)" d="M182.82 731.245 Q179.209 731.245 177.38 734.81 Q175.575 738.352 175.575 745.482 Q175.575 752.588 177.38 756.153 Q179.209 759.694 182.82 759.694 Q186.454 759.694 188.26 756.153 Q190.089 752.588 190.089 745.482 Q190.089 738.352 188.26 734.81 Q186.454 731.245 182.82 731.245 M182.82 727.542 Q188.63 727.542 191.686 732.148 Q194.765 736.732 194.765 745.482 Q194.765 754.208 191.686 758.815 Q188.63 763.398 182.82 763.398 Q177.01 763.398 173.931 758.815 Q170.876 754.208 170.876 745.482 Q170.876 736.732 173.931 732.148 Q177.01 727.542 182.82 727.542 Z" fill="#000000" fill-rule="nonzero" fill-opacity="1" /><path clip-path="url(#clip400)" d="M50.9921 503.602 L73.2142 503.602 L73.2142 505.593 L60.668 538.162 L55.7838 538.162 L67.5893 507.537 L50.9921 507.537 L50.9921 503.602 Z" fill="#000000" fill-rule="nonzero" fill-opacity="1" /><path clip-path="url(#clip400)" d="M92.9132 519.018 Q89.7651 519.018 87.9132 521.171 Q86.0845 523.324 86.0845 527.074 Q86.0845 530.801 87.9132 532.977 Q89.7651 535.13 92.9132 535.13 Q96.0613 535.13 97.89 532.977 Q99.7419 530.801 99.7419 527.074 Q99.7419 523.324 97.89 521.171 Q96.0613 519.018 92.9132 519.018 M102.196 504.366 L102.196 508.625 Q100.436 507.792 98.6308 507.352 Q96.8484 506.912 95.0891 506.912 Q90.4595 506.912 88.0058 510.037 Q85.5753 513.162 85.2281 519.481 Q86.5938 517.468 88.654 516.403 Q90.7141 515.315 93.191 515.315 Q98.3993 515.315 101.409 518.486 Q104.441 521.634 104.441 527.074 Q104.441 532.398 101.293 535.616 Q98.1447 538.833 92.9132 538.833 Q86.9179 538.833 83.7466 534.25 Q80.5753 529.643 80.5753 520.917 Q80.5753 512.722 84.4642 507.861 Q88.353 502.977 94.9039 502.977 Q96.6632 502.977 98.4456 503.324 Q100.251 503.671 102.196 504.366 Z" fill="#000000" fill-rule="nonzero" fill-opacity="1" /><path clip-path="url(#clip400)" d="M122.496 506.681 Q118.885 506.681 117.057 510.245 Q115.251 513.787 115.251 520.917 Q115.251 528.023 117.057 531.588 Q118.885 535.13 122.496 535.13 Q126.131 535.13 127.936 531.588 Q129.765 528.023 129.765 520.917 Q129.765 513.787 127.936 510.245 Q126.131 506.681 122.496 506.681 M122.496 502.977 Q128.307 502.977 131.362 507.583 Q134.441 512.167 134.441 520.917 Q134.441 529.643 131.362 534.25 Q128.307 538.833 122.496 538.833 Q116.686 538.833 113.608 534.25 Q110.552 529.643 110.552 520.917 Q110.552 512.167 113.608 507.583 Q116.686 502.977 122.496 502.977 Z" fill="#000000" fill-rule="nonzero" fill-opacity="1" /><path clip-path="url(#clip400)" d="M152.658 506.681 Q149.047 506.681 147.218 510.245 Q145.413 513.787 145.413 520.917 Q145.413 528.023 147.218 531.588 Q149.047 535.13 152.658 535.13 Q156.292 535.13 158.098 531.588 Q159.927 528.023 159.927 520.917 Q159.927 513.787 158.098 510.245 Q156.292 506.681 152.658 506.681 M152.658 502.977 Q158.468 502.977 161.524 507.583 Q164.603 512.167 164.603 520.917 Q164.603 529.643 161.524 534.25 Q158.468 538.833 152.658 538.833 Q146.848 538.833 143.769 534.25 Q140.714 529.643 140.714 520.917 Q140.714 512.167 143.769 507.583 Q146.848 502.977 152.658 502.977 Z" fill="#000000" fill-rule="nonzero" fill-opacity="1" /><path clip-path="url(#clip400)" d="M182.82 506.681 Q179.209 506.681 177.38 510.245 Q175.575 513.787 175.575 520.917 Q175.575 528.023 177.38 531.588 Q179.209 535.13 182.82 535.13 Q186.454 535.13 188.26 531.588 Q190.089 528.023 190.089 520.917 Q190.089 513.787 188.26 510.245 Q186.454 506.681 182.82 506.681 M182.82 502.977 Q188.63 502.977 191.686 507.583 Q194.765 512.167 194.765 520.917 Q194.765 529.643 191.686 534.25 Q188.63 538.833 182.82 538.833 Q177.01 538.833 173.931 534.25 Q170.876 529.643 170.876 520.917 Q170.876 512.167 173.931 507.583 Q177.01 502.977 182.82 502.977 Z" fill="#000000" fill-rule="nonzero" fill-opacity="1" /><path clip-path="url(#clip400)" d="M50.9921 279.037 L73.2142 279.037 L73.2142 281.028 L60.668 313.597 L55.7838 313.597 L67.5893 282.972 L50.9921 282.972 L50.9921 279.037 Z" fill="#000000" fill-rule="nonzero" fill-opacity="1" /><path clip-path="url(#clip400)" d="M81.154 279.037 L103.376 279.037 L103.376 281.028 L90.8299 313.597 L85.9456 313.597 L97.7511 282.972 L81.154 282.972 L81.154 279.037 Z" fill="#000000" fill-rule="nonzero" fill-opacity="1" /><path clip-path="url(#clip400)" d="M122.496 282.116 Q118.885 282.116 117.057 285.681 Q115.251 289.222 115.251 296.352 Q115.251 303.458 117.057 307.023 Q118.885 310.565 122.496 310.565 Q126.131 310.565 127.936 307.023 Q129.765 303.458 129.765 296.352 Q129.765 289.222 127.936 285.681 Q126.131 282.116 122.496 282.116 M122.496 278.412 Q128.307 278.412 131.362 283.018 Q134.441 287.602 134.441 296.352 Q134.441 305.079 131.362 309.685 Q128.307 314.268 122.496 314.268 Q116.686 314.268 113.608 309.685 Q110.552 305.079 110.552 296.352 Q110.552 287.602 113.608 283.018 Q116.686 278.412 122.496 278.412 Z" fill="#000000" fill-rule="nonzero" fill-opacity="1" /><path clip-path="url(#clip400)" d="M152.658 282.116 Q149.047 282.116 147.218 285.681 Q145.413 289.222 145.413 296.352 Q145.413 303.458 147.218 307.023 Q149.047 310.565 152.658 310.565 Q156.292 310.565 158.098 307.023 Q159.927 303.458 159.927 296.352 Q159.927 289.222 158.098 285.681 Q156.292 282.116 152.658 282.116 M152.658 278.412 Q158.468 278.412 161.524 283.018 Q164.603 287.602 164.603 296.352 Q164.603 305.079 161.524 309.685 Q158.468 314.268 152.658 314.268 Q146.848 314.268 143.769 309.685 Q140.714 305.079 140.714 296.352 Q140.714 287.602 143.769 283.018 Q146.848 278.412 152.658 278.412 Z" fill="#000000" fill-rule="nonzero" fill-opacity="1" /><path clip-path="url(#clip400)" d="M182.82 282.116 Q179.209 282.116 177.38 285.681 Q175.575 289.222 175.575 296.352 Q175.575 303.458 177.38 307.023 Q179.209 310.565 182.82 310.565 Q186.454 310.565 188.26 307.023 Q190.089 303.458 190.089 296.352 Q190.089 289.222 188.26 285.681 Q186.454 282.116 182.82 282.116 M182.82 278.412 Q188.63 278.412 191.686 283.018 Q194.765 287.602 194.765 296.352 Q194.765 305.079 191.686 309.685 Q188.63 314.268 182.82 314.268 Q177.01 314.268 173.931 309.685 Q170.876 305.079 170.876 296.352 Q170.876 287.602 173.931 283.018 Q177.01 278.412 182.82 278.412 Z" fill="#000000" fill-rule="nonzero" fill-opacity="1" /><path clip-path="url(#clip400)" d="M1262.23 35.2602 Q1262.23 29.4732 1259.83 26.2904 Q1257.46 23.1075 1253.15 23.1075 Q1248.86 23.1075 1246.46 26.2904 Q1244.09 29.4732 1244.09 35.2602 Q1244.09 41.0183 1246.46 44.2012 Q1248.86 47.384 1253.15 47.384 Q1257.46 47.384 1259.83 44.2012 Q1262.23 41.0183 1262.23 35.2602 M1267.56 47.818 Q1267.56 56.0934 1263.88 60.1154 Q1260.21 64.1663 1252.63 64.1663 Q1249.82 64.1663 1247.33 63.7323 Q1244.84 63.3272 1242.5 62.4592 L1242.5 57.2798 Q1244.84 58.5529 1247.13 59.1606 Q1249.41 59.7682 1251.79 59.7682 Q1257.02 59.7682 1259.63 57.0194 Q1262.23 54.2995 1262.23 48.7729 L1262.23 46.1398 Q1260.58 49.0044 1258.01 50.4222 Q1255.43 51.84 1251.84 51.84 Q1245.88 51.84 1242.24 47.2972 Q1238.59 42.7544 1238.59 35.2602 Q1238.59 27.7371 1242.24 23.1943 Q1245.88 18.6515 1251.84 18.6515 Q1255.43 18.6515 1258.01 20.0693 Q1260.58 21.4872 1262.23 24.3517 L1262.23 19.4328 L1267.56 19.4328 L1267.56 47.818 Z" fill="#000000" fill-rule="nonzero" fill-opacity="1" /><path clip-path="url(#clip400)" d="M1299.85 24.3517 L1299.85 6.81709 L1305.17 6.81709 L1305.17 51.84 L1299.85 51.84 L1299.85 46.9789 Q1298.17 49.8724 1295.59 51.2902 Q1293.05 52.6791 1289.46 52.6791 Q1283.59 52.6791 1279.88 47.9916 Q1276.21 43.3042 1276.21 35.6653 Q1276.21 28.0265 1279.88 23.339 Q1283.59 18.6515 1289.46 18.6515 Q1293.05 18.6515 1295.59 20.0693 Q1298.17 21.4582 1299.85 24.3517 M1281.71 35.6653 Q1281.71 41.5391 1284.11 44.8956 Q1286.54 48.2231 1290.76 48.2231 Q1294.99 48.2231 1297.42 44.8956 Q1299.85 41.5391 1299.85 35.6653 Q1299.85 29.7915 1297.42 26.464 Q1294.99 23.1075 1290.76 23.1075 Q1286.54 23.1075 1284.11 26.464 Q1281.71 29.7915 1281.71 35.6653 Z" fill="#000000" fill-rule="nonzero" fill-opacity="1" /><path clip-path="url(#clip400)" d="M1321.29 46.9789 L1321.29 64.1663 L1315.94 64.1663 L1315.94 19.4328 L1321.29 19.4328 L1321.29 24.3517 Q1322.97 21.4582 1325.51 20.0693 Q1328.09 18.6515 1331.65 18.6515 Q1337.55 18.6515 1341.22 23.339 Q1344.93 28.0265 1344.93 35.6653 Q1344.93 43.3042 1341.22 47.9916 Q1337.55 52.6791 1331.65 52.6791 Q1328.09 52.6791 1325.51 51.2902 Q1322.97 49.8724 1321.29 46.9789 M1339.4 35.6653 Q1339.4 29.7915 1336.97 26.464 Q1334.57 23.1075 1330.35 23.1075 Q1326.12 23.1075 1323.69 26.464 Q1321.29 29.7915 1321.29 35.6653 Q1321.29 41.5391 1323.69 44.8956 Q1326.12 48.2231 1330.35 48.2231 Q1334.57 48.2231 1336.97 44.8956 Q1339.4 41.5391 1339.4 35.6653 Z" fill="#000000" fill-rule="nonzero" fill-opacity="1" /><polyline clip-path="url(#clip402)" style="stroke:#009af9; stroke-linecap:round; stroke-linejoin:round; stroke-width:4; stroke-opacity:1; fill:none" points="290.821,1402.6 415.938,1447.38 541.056,1392.7 666.173,1309.05 791.291,1325.79 916.408,1170.04 1041.53,1318.82 1166.64,1180.86 1291.76,1125.99 1416.88,913.83 1542,714.704 1667.11,596.151 1792.23,473.751 1917.35,316.832 2042.46,145.256 2167.58,259.523 2292.7,252.616 "/>
<path clip-path="url(#clip400)" d="M301.498 255.881 L566.127 255.881 L566.127 152.201 L301.498 152.201  Z" fill="#ffffff" fill-rule="evenodd" fill-opacity="1"/>
<polyline clip-path="url(#clip400)" style="stroke:#000000; stroke-linecap:round; stroke-linejoin:round; stroke-width:4; stroke-opacity:1; fill:none" points="301.498,255.881 566.127,255.881 566.127,152.201 301.498,152.201 301.498,255.881 "/>
<polyline clip-path="url(#clip400)" style="stroke:#009af9; stroke-linecap:round; stroke-linejoin:round; stroke-width:4; stroke-opacity:1; fill:none" points="325.075,204.041 466.541,204.041 "/>
<path clip-path="url(#clip400)" d="M503.962 223.728 Q502.156 228.358 500.443 229.77 Q498.73 231.182 495.86 231.182 L492.457 231.182 L492.457 227.617 L494.957 227.617 Q496.716 227.617 497.688 226.784 Q498.661 225.95 499.841 222.848 L500.605 220.904 L490.119 195.395 L494.633 195.395 L502.735 215.673 L510.836 195.395 L515.35 195.395 L503.962 223.728 Z" fill="#000000" fill-rule="nonzero" fill-opacity="1" /><path clip-path="url(#clip400)" d="M522.642 217.385 L530.281 217.385 L530.281 191.02 L521.971 192.687 L521.971 188.427 L530.235 186.761 L534.91 186.761 L534.91 217.385 L542.549 217.385 L542.549 221.321 L522.642 221.321 L522.642 217.385 Z" fill="#000000" fill-rule="nonzero" fill-opacity="1" /></svg>
