<?xml version="1.0" encoding="utf-8"?>
<svg xmlns="http://www.w3.org/2000/svg" xmlns:xlink="http://www.w3.org/1999/xlink" width="600" height="400" viewBox="0 0 2400 1600">
<defs>
  <clipPath id="clip130">
    <rect x="0" y="0" width="2400" height="1600"/>
  </clipPath>
</defs>
<path clip-path="url(#clip130)" d="M0 1600 L2400 1600 L2400 0 L0 0  Z" fill="#ffffff" fill-rule="evenodd" fill-opacity="1"/>
<defs>
  <clipPath id="clip131">
    <rect x="480" y="0" width="1681" height="1600"/>
  </clipPath>
</defs>
<path clip-path="url(#clip130)" d="M231.436 1486.45 L2352.76 1486.45 L2352.76 106.192 L231.436 106.192  Z" fill="#ffffff" fill-rule="evenodd" fill-opacity="1"/>
<defs>
  <clipPath id="clip132">
    <rect x="231" y="106" width="2122" height="1381"/>
  </clipPath>
</defs>
<polyline clip-path="url(#clip132)" style="stroke:#000000; stroke-linecap:round; stroke-linejoin:round; stroke-width:2; stroke-opacity:0.1; fill:none" points="541.629,1486.45 541.629,106.192 "/>
<polyline clip-path="url(#clip132)" style="stroke:#000000; stroke-linecap:round; stroke-linejoin:round; stroke-width:2; stroke-opacity:0.1; fill:none" points="916.862,1486.45 916.862,106.192 "/>
<polyline clip-path="url(#clip132)" style="stroke:#000000; stroke-linecap:round; stroke-linejoin:round; stroke-width:2; stroke-opacity:0.1; fill:none" points="1292.1,1486.45 1292.1,106.192 "/>
<polyline clip-path="url(#clip132)" style="stroke:#000000; stroke-linecap:round; stroke-linejoin:round; stroke-width:2; stroke-opacity:0.1; fill:none" points="1667.33,1486.45 1667.33,106.192 "/>
<polyline clip-path="url(#clip132)" style="stroke:#000000; stroke-linecap:round; stroke-linejoin:round; stroke-width:2; stroke-opacity:0.1; fill:none" points="2042.56,1486.45 2042.56,106.192 "/>
<polyline clip-path="url(#clip132)" style="stroke:#000000; stroke-linecap:round; stroke-linejoin:round; stroke-width:2; stroke-opacity:0.1; fill:none" points="231.436,1457.57 2352.76,1457.57 "/>
<polyline clip-path="url(#clip132)" style="stroke:#000000; stroke-linecap:round; stroke-linejoin:round; stroke-width:2; stroke-opacity:0.1; fill:none" points="231.436,1181.06 2352.76,1181.06 "/>
<polyline clip-path="url(#clip132)" style="stroke:#000000; stroke-linecap:round; stroke-linejoin:round; stroke-width:2; stroke-opacity:0.1; fill:none" points="231.436,904.558 2352.76,904.558 "/>
<polyline clip-path="url(#clip132)" style="stroke:#000000; stroke-linecap:round; stroke-linejoin:round; stroke-width:2; stroke-opacity:0.1; fill:none" points="231.436,628.053 2352.76,628.053 "/>
<polyline clip-path="url(#clip132)" style="stroke:#000000; stroke-linecap:round; stroke-linejoin:round; stroke-width:2; stroke-opacity:0.1; fill:none" points="231.436,351.548 2352.76,351.548 "/>
<polyline clip-path="url(#clip130)" style="stroke:#000000; stroke-linecap:round; stroke-linejoin:round; stroke-width:4; stroke-opacity:1; fill:none" points="231.436,1486.45 2352.76,1486.45 "/>
<polyline clip-path="url(#clip130)" style="stroke:#000000; stroke-linecap:round; stroke-linejoin:round; stroke-width:4; stroke-opacity:1; fill:none" points="541.629,1486.45 541.629,1467.55 "/>
<polyline clip-path="url(#clip130)" style="stroke:#000000; stroke-linecap:round; stroke-linejoin:round; stroke-width:4; stroke-opacity:1; fill:none" points="916.862,1486.45 916.862,1467.55 "/>
<polyline clip-path="url(#clip130)" style="stroke:#000000; stroke-linecap:round; stroke-linejoin:round; stroke-width:4; stroke-opacity:1; fill:none" points="1292.1,1486.45 1292.1,1467.55 "/>
<polyline clip-path="url(#clip130)" style="stroke:#000000; stroke-linecap:round; stroke-linejoin:round; stroke-width:4; stroke-opacity:1; fill:none" points="1667.33,1486.45 1667.33,1467.55 "/>
<polyline clip-path="url(#clip130)" style="stroke:#000000; stroke-linecap:round; stroke-linejoin:round; stroke-width:4; stroke-opacity:1; fill:none" points="2042.56,1486.45 2042.56,1467.55 "/>
<path clip-path="url(#clip130)" d="M545.876 1530.21 Q549.233 1530.93 551.108 1533.2 Q553.006 1535.47 553.006 1538.8 Q553.006 1543.92 549.488 1546.72 Q545.969 1549.52 539.488 1549.52 Q537.312 1549.52 534.997 1549.08 Q532.705 1548.66 530.252 1547.81 L530.252 1543.29 Q532.196 1544.43 534.511 1545.01 Q536.826 1545.58 539.349 1545.58 Q543.747 1545.58 546.039 1543.85 Q548.353 1542.11 548.353 1538.8 Q548.353 1535.75 546.201 1534.03 Q544.071 1532.3 540.252 1532.3 L536.224 1532.3 L536.224 1528.45 L540.437 1528.45 Q543.886 1528.45 545.714 1527.09 Q547.543 1525.7 547.543 1523.11 Q547.543 1520.45 545.645 1519.03 Q543.77 1517.6 540.252 1517.6 Q538.33 1517.6 536.131 1518.01 Q533.932 1518.43 531.293 1519.31 L531.293 1515.14 Q533.955 1514.4 536.27 1514.03 Q538.608 1513.66 540.668 1513.66 Q545.992 1513.66 549.094 1516.09 Q552.196 1518.5 552.196 1522.62 Q552.196 1525.49 550.552 1527.48 Q548.909 1529.45 545.876 1530.21 Z" fill="#000000" fill-rule="nonzero" fill-opacity="1" /><path clip-path="url(#clip130)" d="M917.267 1529.7 Q914.119 1529.7 912.267 1531.86 Q910.439 1534.01 910.439 1537.76 Q910.439 1541.49 912.267 1543.66 Q914.119 1545.82 917.267 1545.82 Q920.416 1545.82 922.244 1543.66 Q924.096 1541.49 924.096 1537.76 Q924.096 1534.01 922.244 1531.86 Q920.416 1529.7 917.267 1529.7 M926.55 1515.05 L926.55 1519.31 Q924.791 1518.48 922.985 1518.04 Q921.203 1517.6 919.443 1517.6 Q914.814 1517.6 912.36 1520.72 Q909.93 1523.85 909.582 1530.17 Q910.948 1528.15 913.008 1527.09 Q915.068 1526 917.545 1526 Q922.754 1526 925.763 1529.17 Q928.795 1532.32 928.795 1537.76 Q928.795 1543.08 925.647 1546.3 Q922.499 1549.52 917.267 1549.52 Q911.272 1549.52 908.101 1544.94 Q904.93 1540.33 904.93 1531.6 Q904.93 1523.41 908.818 1518.55 Q912.707 1513.66 919.258 1513.66 Q921.017 1513.66 922.8 1514.01 Q924.605 1514.36 926.55 1515.05 Z" fill="#000000" fill-rule="nonzero" fill-opacity="1" /><path clip-path="url(#clip130)" d="M1282.4 1548.13 L1282.4 1543.87 Q1284.16 1544.7 1285.96 1545.14 Q1287.77 1545.58 1289.5 1545.58 Q1294.13 1545.58 1296.56 1542.48 Q1299.02 1539.36 1299.36 1533.01 Q1298.02 1535.01 1295.96 1536.07 Q1293.9 1537.13 1291.4 1537.13 Q1286.22 1537.13 1283.18 1534.01 Q1280.17 1530.86 1280.17 1525.42 Q1280.17 1520.1 1283.32 1516.88 Q1286.47 1513.66 1291.7 1513.66 Q1297.7 1513.66 1300.85 1518.27 Q1304.02 1522.85 1304.02 1531.6 Q1304.02 1539.77 1300.13 1544.66 Q1296.26 1549.52 1289.71 1549.52 Q1287.95 1549.52 1286.15 1549.17 Q1284.34 1548.82 1282.4 1548.13 M1291.7 1533.48 Q1294.85 1533.48 1296.68 1531.32 Q1298.53 1529.17 1298.53 1525.42 Q1298.53 1521.7 1296.68 1519.54 Q1294.85 1517.37 1291.7 1517.37 Q1288.55 1517.37 1286.7 1519.54 Q1284.87 1521.7 1284.87 1525.42 Q1284.87 1529.17 1286.7 1531.32 Q1288.55 1533.48 1291.7 1533.48 Z" fill="#000000" fill-rule="nonzero" fill-opacity="1" /><path clip-path="url(#clip130)" d="M1642.82 1544.91 L1650.45 1544.91 L1650.45 1518.55 L1642.14 1520.21 L1642.14 1515.95 L1650.41 1514.29 L1655.08 1514.29 L1655.08 1544.91 L1662.72 1544.91 L1662.72 1548.85 L1642.82 1548.85 L1642.82 1544.91 Z" fill="#000000" fill-rule="nonzero" fill-opacity="1" /><path clip-path="url(#clip130)" d="M1676.2 1544.91 L1692.51 1544.91 L1692.51 1548.85 L1670.57 1548.85 L1670.57 1544.91 Q1673.23 1542.16 1677.82 1537.53 Q1682.42 1532.88 1683.6 1531.53 Q1685.85 1529.01 1686.73 1527.27 Q1687.63 1525.51 1687.63 1523.82 Q1687.63 1521.07 1685.69 1519.33 Q1683.76 1517.6 1680.66 1517.6 Q1678.46 1517.6 1676.01 1518.36 Q1673.58 1519.13 1670.8 1520.68 L1670.8 1515.95 Q1673.63 1514.82 1676.08 1514.24 Q1678.53 1513.66 1680.57 1513.66 Q1685.94 1513.66 1689.13 1516.35 Q1692.33 1519.03 1692.33 1523.52 Q1692.33 1525.65 1691.52 1527.57 Q1690.73 1529.47 1688.63 1532.07 Q1688.05 1532.74 1684.95 1535.95 Q1681.84 1539.15 1676.2 1544.91 Z" fill="#000000" fill-rule="nonzero" fill-opacity="1" /><path clip-path="url(#clip130)" d="M2017.75 1544.91 L2025.39 1544.91 L2025.39 1518.55 L2017.08 1520.21 L2017.08 1515.95 L2025.34 1514.29 L2030.02 1514.29 L2030.02 1544.91 L2037.66 1544.91 L2037.66 1548.85 L2017.75 1548.85 L2017.75 1544.91 Z" fill="#000000" fill-rule="nonzero" fill-opacity="1" /><path clip-path="url(#clip130)" d="M2047.15 1514.29 L2065.5 1514.29 L2065.5 1518.22 L2051.43 1518.22 L2051.43 1526.7 Q2052.45 1526.35 2053.47 1526.19 Q2054.48 1526 2055.5 1526 Q2061.29 1526 2064.67 1529.17 Q2068.05 1532.34 2068.05 1537.76 Q2068.05 1543.34 2064.58 1546.44 Q2061.1 1549.52 2054.79 1549.52 Q2052.61 1549.52 2050.34 1549.15 Q2048.1 1548.78 2045.69 1548.04 L2045.69 1543.34 Q2047.77 1544.47 2049.99 1545.03 Q2052.22 1545.58 2054.69 1545.58 Q2058.7 1545.58 2061.03 1543.48 Q2063.37 1541.37 2063.37 1537.76 Q2063.37 1534.15 2061.03 1532.04 Q2058.7 1529.94 2054.69 1529.94 Q2052.82 1529.94 2050.94 1530.35 Q2049.09 1530.77 2047.15 1531.65 L2047.15 1514.29 Z" fill="#000000" fill-rule="nonzero" fill-opacity="1" /><polyline clip-path="url(#clip130)" style="stroke:#000000; stroke-linecap:round; stroke-linejoin:round; stroke-width:4; stroke-opacity:1; fill:none" points="231.436,1486.45 231.436,106.192 "/>
<polyline clip-path="url(#clip130)" style="stroke:#000000; stroke-linecap:round; stroke-linejoin:round; stroke-width:4; stroke-opacity:1; fill:none" points="231.436,1457.57 250.333,1457.57 "/>
<polyline clip-path="url(#clip130)" style="stroke:#000000; stroke-linecap:round; stroke-linejoin:round; stroke-width:4; stroke-opacity:1; fill:none" points="231.436,1181.06 250.333,1181.06 "/>
<polyline clip-path="url(#clip130)" style="stroke:#000000; stroke-linecap:round; stroke-linejoin:round; stroke-width:4; stroke-opacity:1; fill:none" points="231.436,904.558 250.333,904.558 "/>
<polyline clip-path="url(#clip130)" style="stroke:#000000; stroke-linecap:round; stroke-linejoin:round; stroke-width:4; stroke-opacity:1; fill:none" points="231.436,628.053 250.333,628.053 "/>
<polyline clip-path="url(#clip130)" style="stroke:#000000; stroke-linecap:round; stroke-linejoin:round; stroke-width:4; stroke-opacity:1; fill:none" points="231.436,351.548 250.333,351.548 "/>
<path clip-path="url(#clip130)" d="M51.6634 1440.29 L73.8855 1440.29 L73.8855 1442.28 L61.3393 1474.85 L56.4551 1474.85 L68.2606 1444.22 L51.6634 1444.22 L51.6634 1440.29 Z" fill="#000000" fill-rule="nonzero" fill-opacity="1" /><path clip-path="url(#clip130)" d="M87.0336 1470.91 L103.353 1470.91 L103.353 1474.85 L81.4086 1474.85 L81.4086 1470.91 Q84.0707 1468.16 88.654 1463.53 Q93.2604 1458.88 94.441 1457.53 Q96.6863 1455.01 97.566 1453.27 Q98.4687 1451.52 98.4687 1449.83 Q98.4687 1447.07 96.5243 1445.34 Q94.603 1443.6 91.5012 1443.6 Q89.3021 1443.6 86.8484 1444.36 Q84.4179 1445.13 81.6401 1446.68 L81.6401 1441.96 Q84.4642 1440.82 86.9179 1440.24 Q89.3715 1439.66 91.4086 1439.66 Q96.7789 1439.66 99.9733 1442.35 Q103.168 1445.03 103.168 1449.52 Q103.168 1451.65 102.358 1453.58 Q101.571 1455.47 99.4641 1458.07 Q98.8854 1458.74 95.7836 1461.96 Q92.6817 1465.15 87.0336 1470.91 Z" fill="#000000" fill-rule="nonzero" fill-opacity="1" /><path clip-path="url(#clip130)" d="M123.168 1443.37 Q119.557 1443.37 117.728 1446.93 Q115.922 1450.47 115.922 1457.6 Q115.922 1464.71 117.728 1468.27 Q119.557 1471.82 123.168 1471.82 Q126.802 1471.82 128.607 1468.27 Q130.436 1464.71 130.436 1457.6 Q130.436 1450.47 128.607 1446.93 Q126.802 1443.37 123.168 1443.37 M123.168 1439.66 Q128.978 1439.66 132.033 1444.27 Q135.112 1448.85 135.112 1457.6 Q135.112 1466.33 132.033 1470.94 Q128.978 1475.52 123.168 1475.52 Q117.358 1475.52 114.279 1470.94 Q111.223 1466.33 111.223 1457.6 Q111.223 1448.85 114.279 1444.27 Q117.358 1439.66 123.168 1439.66 Z" fill="#000000" fill-rule="nonzero" fill-opacity="1" /><path clip-path="url(#clip130)" d="M153.33 1443.37 Q149.718 1443.37 147.89 1446.93 Q146.084 1450.47 146.084 1457.6 Q146.084 1464.71 147.89 1468.27 Q149.718 1471.82 153.33 1471.82 Q156.964 1471.82 158.769 1468.27 Q160.598 1464.71 160.598 1457.6 Q160.598 1450.47 158.769 1446.93 Q156.964 1443.37 153.33 1443.37 M153.33 1439.66 Q159.14 1439.66 162.195 1444.27 Q165.274 1448.85 165.274 1457.6 Q165.274 1466.33 162.195 1470.94 Q159.14 1475.52 153.33 1475.52 Q147.519 1475.52 144.441 1470.94 Q141.385 1466.33 141.385 1457.6 Q141.385 1448.85 144.441 1444.27 Q147.519 1439.66 153.33 1439.66 Z" fill="#000000" fill-rule="nonzero" fill-opacity="1" /><path clip-path="url(#clip130)" d="M183.491 1443.37 Q179.88 1443.37 178.052 1446.93 Q176.246 1450.47 176.246 1457.6 Q176.246 1464.71 178.052 1468.27 Q179.88 1471.82 183.491 1471.82 Q187.126 1471.82 188.931 1468.27 Q190.76 1464.71 190.76 1457.6 Q190.76 1450.47 188.931 1446.93 Q187.126 1443.37 183.491 1443.37 M183.491 1439.66 Q189.302 1439.66 192.357 1444.27 Q195.436 1448.85 195.436 1457.6 Q195.436 1466.33 192.357 1470.94 Q189.302 1475.52 183.491 1475.52 Q177.681 1475.52 174.603 1470.94 Q171.547 1466.33 171.547 1457.6 Q171.547 1448.85 174.603 1444.27 Q177.681 1439.66 183.491 1439.66 Z" fill="#000000" fill-rule="nonzero" fill-opacity="1" /><path clip-path="url(#clip130)" d="M51.6634 1163.78 L73.8855 1163.78 L73.8855 1165.77 L61.3393 1198.34 L56.4551 1198.34 L68.2606 1167.72 L51.6634 1167.72 L51.6634 1163.78 Z" fill="#000000" fill-rule="nonzero" fill-opacity="1" /><path clip-path="url(#clip130)" d="M95.853 1167.86 L84.0475 1186.31 L95.853 1186.31 L95.853 1167.86 M94.6262 1163.78 L100.506 1163.78 L100.506 1186.31 L105.436 1186.31 L105.436 1190.2 L100.506 1190.2 L100.506 1198.34 L95.853 1198.34 L95.853 1190.2 L80.2512 1190.2 L80.2512 1185.68 L94.6262 1163.78 Z" fill="#000000" fill-rule="nonzero" fill-opacity="1" /><path clip-path="url(#clip130)" d="M123.168 1166.86 Q119.557 1166.86 117.728 1170.43 Q115.922 1173.97 115.922 1181.1 Q115.922 1188.2 117.728 1191.77 Q119.557 1195.31 123.168 1195.31 Q126.802 1195.31 128.607 1191.77 Q130.436 1188.2 130.436 1181.1 Q130.436 1173.97 128.607 1170.43 Q126.802 1166.86 123.168 1166.86 M123.168 1163.16 Q128.978 1163.16 132.033 1167.77 Q135.112 1172.35 135.112 1181.1 Q135.112 1189.83 132.033 1194.43 Q128.978 1199.01 123.168 1199.01 Q117.358 1199.01 114.279 1194.43 Q111.223 1189.83 111.223 1181.1 Q111.223 1172.35 114.279 1167.77 Q117.358 1163.16 123.168 1163.16 Z" fill="#000000" fill-rule="nonzero" fill-opacity="1" /><path clip-path="url(#clip130)" d="M153.33 1166.86 Q149.718 1166.86 147.89 1170.43 Q146.084 1173.97 146.084 1181.1 Q146.084 1188.2 147.89 1191.77 Q149.718 1195.31 153.33 1195.31 Q156.964 1195.31 158.769 1191.77 Q160.598 1188.2 160.598 1181.1 Q160.598 1173.97 158.769 1170.43 Q156.964 1166.86 153.33 1166.86 M153.33 1163.16 Q159.14 1163.16 162.195 1167.77 Q165.274 1172.35 165.274 1181.1 Q165.274 1189.83 162.195 1194.43 Q159.14 1199.01 153.33 1199.01 Q147.519 1199.01 144.441 1194.43 Q141.385 1189.83 141.385 1181.1 Q141.385 1172.35 144.441 1167.77 Q147.519 1163.16 153.33 1163.16 Z" fill="#000000" fill-rule="nonzero" fill-opacity="1" /><path clip-path="url(#clip130)" d="M183.491 1166.86 Q179.88 1166.86 178.052 1170.43 Q176.246 1173.97 176.246 1181.1 Q176.246 1188.2 178.052 1191.77 Q179.88 1195.31 183.491 1195.31 Q187.126 1195.31 188.931 1191.77 Q190.76 1188.2 190.76 1181.1 Q190.76 1173.97 188.931 1170.43 Q187.126 1166.86 183.491 1166.86 M183.491 1163.16 Q189.302 1163.16 192.357 1167.77 Q195.436 1172.35 195.436 1181.1 Q195.436 1189.83 192.357 1194.43 Q189.302 1199.01 183.491 1199.01 Q177.681 1199.01 174.603 1194.43 Q171.547 1189.83 171.547 1181.1 Q171.547 1172.35 174.603 1167.77 Q177.681 1163.16 183.491 1163.16 Z" fill="#000000" fill-rule="nonzero" fill-opacity="1" /><path clip-path="url(#clip130)" d="M51.6634 887.278 L73.8855 887.278 L73.8855 889.269 L61.3393 921.838 L56.4551 921.838 L68.2606 891.214 L51.6634 891.214 L51.6634 887.278 Z" fill="#000000" fill-rule="nonzero" fill-opacity="1" /><path clip-path="url(#clip130)" d="M93.5845 902.695 Q90.4364 902.695 88.5845 904.848 Q86.7558 907.001 86.7558 910.75 Q86.7558 914.477 88.5845 916.653 Q90.4364 918.806 93.5845 918.806 Q96.7326 918.806 98.5613 916.653 Q100.413 914.477 100.413 910.75 Q100.413 907.001 98.5613 904.848 Q96.7326 902.695 93.5845 902.695 M102.867 888.042 L102.867 892.302 Q101.108 891.468 99.3021 891.028 Q97.5197 890.589 95.7604 890.589 Q91.1308 890.589 88.6771 893.714 Q86.2466 896.839 85.8993 903.158 Q87.2651 901.144 89.3253 900.079 Q91.3854 898.991 93.8623 898.991 Q99.0706 898.991 102.08 902.163 Q105.112 905.311 105.112 910.75 Q105.112 916.075 101.964 919.292 Q98.8159 922.51 93.5845 922.51 Q87.5892 922.51 84.4179 917.926 Q81.2466 913.32 81.2466 904.593 Q81.2466 896.399 85.1355 891.538 Q89.0243 886.653 95.5752 886.653 Q97.3345 886.653 99.1169 887.001 Q100.922 887.348 102.867 888.042 Z" fill="#000000" fill-rule="nonzero" fill-opacity="1" /><path clip-path="url(#clip130)" d="M123.168 890.357 Q119.557 890.357 117.728 893.922 Q115.922 897.464 115.922 904.593 Q115.922 911.7 117.728 915.264 Q119.557 918.806 123.168 918.806 Q126.802 918.806 128.607 915.264 Q130.436 911.7 130.436 904.593 Q130.436 897.464 128.607 893.922 Q126.802 890.357 123.168 890.357 M123.168 886.653 Q128.978 886.653 132.033 891.26 Q135.112 895.843 135.112 904.593 Q135.112 913.32 132.033 917.926 Q128.978 922.51 123.168 922.51 Q117.358 922.51 114.279 917.926 Q111.223 913.32 111.223 904.593 Q111.223 895.843 114.279 891.26 Q117.358 886.653 123.168 886.653 Z" fill="#000000" fill-rule="nonzero" fill-opacity="1" /><path clip-path="url(#clip130)" d="M153.33 890.357 Q149.718 890.357 147.89 893.922 Q146.084 897.464 146.084 904.593 Q146.084 911.7 147.89 915.264 Q149.718 918.806 153.33 918.806 Q156.964 918.806 158.769 915.264 Q160.598 911.7 160.598 904.593 Q160.598 897.464 158.769 893.922 Q156.964 890.357 153.33 890.357 M153.33 886.653 Q159.14 886.653 162.195 891.26 Q165.274 895.843 165.274 904.593 Q165.274 913.32 162.195 917.926 Q159.14 922.51 153.33 922.51 Q147.519 922.51 144.441 917.926 Q141.385 913.32 141.385 904.593 Q141.385 895.843 144.441 891.26 Q147.519 886.653 153.33 886.653 Z" fill="#000000" fill-rule="nonzero" fill-opacity="1" /><path clip-path="url(#clip130)" d="M183.491 890.357 Q179.88 890.357 178.052 893.922 Q176.246 897.464 176.246 904.593 Q176.246 911.7 178.052 915.264 Q179.88 918.806 183.491 918.806 Q187.126 918.806 188.931 915.264 Q190.76 911.7 190.76 904.593 Q190.76 897.464 188.931 893.922 Q187.126 890.357 183.491 890.357 M183.491 886.653 Q189.302 886.653 192.357 891.26 Q195.436 895.843 195.436 904.593 Q195.436 913.32 192.357 917.926 Q189.302 922.51 183.491 922.51 Q177.681 922.51 174.603 917.926 Q171.547 913.32 171.547 904.593 Q171.547 895.843 174.603 891.26 Q177.681 886.653 183.491 886.653 Z" fill="#000000" fill-rule="nonzero" fill-opacity="1" /><path clip-path="url(#clip130)" d="M51.6634 610.773 L73.8855 610.773 L73.8855 612.764 L61.3393 645.333 L56.4551 645.333 L68.2606 614.708 L51.6634 614.708 L51.6634 610.773 Z" fill="#000000" fill-rule="nonzero" fill-opacity="1" /><path clip-path="url(#clip130)" d="M93.0058 628.921 Q89.6725 628.921 87.7512 630.704 Q85.8531 632.486 85.8531 635.611 Q85.8531 638.736 87.7512 640.518 Q89.6725 642.301 93.0058 642.301 Q96.3391 642.301 98.2604 640.518 Q100.182 638.713 100.182 635.611 Q100.182 632.486 98.2604 630.704 Q96.3623 628.921 93.0058 628.921 M88.3299 626.931 Q85.3206 626.19 83.6308 624.13 Q81.9642 622.069 81.9642 619.107 Q81.9642 614.963 84.904 612.556 Q87.8669 610.148 93.0058 610.148 Q98.1678 610.148 101.108 612.556 Q104.047 614.963 104.047 619.107 Q104.047 622.069 102.358 624.13 Q100.691 626.19 97.7048 626.931 Q101.084 627.718 102.959 630.009 Q104.858 632.301 104.858 635.611 Q104.858 640.634 101.779 643.319 Q98.7234 646.005 93.0058 646.005 Q87.2882 646.005 84.2095 643.319 Q81.154 640.634 81.154 635.611 Q81.154 632.301 83.0521 630.009 Q84.9503 627.718 88.3299 626.931 M86.6169 619.546 Q86.6169 622.231 88.2836 623.736 Q89.9734 625.241 93.0058 625.241 Q96.015 625.241 97.7048 623.736 Q99.4178 622.231 99.4178 619.546 Q99.4178 616.861 97.7048 615.357 Q96.015 613.852 93.0058 613.852 Q89.9734 613.852 88.2836 615.357 Q86.6169 616.861 86.6169 619.546 Z" fill="#000000" fill-rule="nonzero" fill-opacity="1" /><path clip-path="url(#clip130)" d="M123.168 613.852 Q119.557 613.852 117.728 617.417 Q115.922 620.958 115.922 628.088 Q115.922 635.194 117.728 638.759 Q119.557 642.301 123.168 642.301 Q126.802 642.301 128.607 638.759 Q130.436 635.194 130.436 628.088 Q130.436 620.958 128.607 617.417 Q126.802 613.852 123.168 613.852 M123.168 610.148 Q128.978 610.148 132.033 614.755 Q135.112 619.338 135.112 628.088 Q135.112 636.815 132.033 641.421 Q128.978 646.005 123.168 646.005 Q117.358 646.005 114.279 641.421 Q111.223 636.815 111.223 628.088 Q111.223 619.338 114.279 614.755 Q117.358 610.148 123.168 610.148 Z" fill="#000000" fill-rule="nonzero" fill-opacity="1" /><path clip-path="url(#clip130)" d="M153.33 613.852 Q149.718 613.852 147.89 617.417 Q146.084 620.958 146.084 628.088 Q146.084 635.194 147.89 638.759 Q149.718 642.301 153.33 642.301 Q156.964 642.301 158.769 638.759 Q160.598 635.194 160.598 628.088 Q160.598 620.958 158.769 617.417 Q156.964 613.852 153.33 613.852 M153.33 610.148 Q159.14 610.148 162.195 614.755 Q165.274 619.338 165.274 628.088 Q165.274 636.815 162.195 641.421 Q159.14 646.005 153.33 646.005 Q147.519 646.005 144.441 641.421 Q141.385 636.815 141.385 628.088 Q141.385 619.338 144.441 614.755 Q147.519 610.148 153.33 610.148 Z" fill="#000000" fill-rule="nonzero" fill-opacity="1" /><path clip-path="url(#clip130)" d="M183.491 613.852 Q179.88 613.852 178.052 617.417 Q176.246 620.958 176.246 628.088 Q176.246 635.194 178.052 638.759 Q179.88 642.301 183.491 642.301 Q187.126 642.301 188.931 638.759 Q190.76 635.194 190.76 628.088 Q190.76 620.958 188.931 617.417 Q187.126 613.852 183.491 613.852 M183.491 610.148 Q189.302 610.148 192.357 614.755 Q195.436 619.338 195.436 628.088 Q195.436 636.815 192.357 641.421 Q189.302 646.005 183.491 646.005 Q177.681 646.005 174.603 641.421 Q171.547 636.815 171.547 628.088 Q171.547 619.338 174.603 614.755 Q177.681 610.148 183.491 610.148 Z" fill="#000000" fill-rule="nonzero" fill-opacity="1" /><path clip-path="url(#clip130)" d="M62.8439 352.416 Q59.5106 352.416 57.5893 354.198 Q55.6912 355.981 55.6912 359.106 Q55.6912 362.231 57.5893 364.013 Q59.5106 365.796 62.8439 365.796 Q66.1772 365.796 68.0985 364.013 Q70.0198 362.208 70.0198 359.106 Q70.0198 355.981 68.0985 354.198 Q66.2004 352.416 62.8439 352.416 M58.168 350.425 Q55.1588 349.685 53.469 347.624 Q51.8023 345.564 51.8023 342.601 Q51.8023 338.458 54.7421 336.05 Q57.7051 333.643 62.8439 333.643 Q68.0059 333.643 70.9457 336.05 Q73.8855 338.458 73.8855 342.601 Q73.8855 345.564 72.1957 347.624 Q70.5291 349.685 67.543 350.425 Q70.9226 351.212 72.7976 353.504 Q74.6957 355.796 74.6957 359.106 Q74.6957 364.129 71.617 366.814 Q68.5615 369.499 62.8439 369.499 Q57.1264 369.499 54.0477 366.814 Q50.9921 364.129 50.9921 359.106 Q50.9921 355.796 52.8903 353.504 Q54.7884 351.212 58.168 350.425 M56.4551 343.041 Q56.4551 345.726 58.1217 347.231 Q59.8115 348.736 62.8439 348.736 Q65.8532 348.736 67.543 347.231 Q69.2559 345.726 69.2559 343.041 Q69.2559 340.356 67.543 338.851 Q65.8532 337.347 62.8439 337.347 Q59.8115 337.347 58.1217 338.851 Q56.4551 340.356 56.4551 343.041 Z" fill="#000000" fill-rule="nonzero" fill-opacity="1" /><path clip-path="url(#clip130)" d="M93.0058 337.347 Q89.3947 337.347 87.566 340.912 Q85.7605 344.453 85.7605 351.583 Q85.7605 358.689 87.566 362.254 Q89.3947 365.796 93.0058 365.796 Q96.64 365.796 98.4456 362.254 Q100.274 358.689 100.274 351.583 Q100.274 344.453 98.4456 340.912 Q96.64 337.347 93.0058 337.347 M93.0058 333.643 Q98.8159 333.643 101.871 338.249 Q104.95 342.833 104.95 351.583 Q104.95 360.31 101.871 364.916 Q98.8159 369.499 93.0058 369.499 Q87.1956 369.499 84.1169 364.916 Q81.0614 360.31 81.0614 351.583 Q81.0614 342.833 84.1169 338.249 Q87.1956 333.643 93.0058 333.643 Z" fill="#000000" fill-rule="nonzero" fill-opacity="1" /><path clip-path="url(#clip130)" d="M123.168 337.347 Q119.557 337.347 117.728 340.912 Q115.922 344.453 115.922 351.583 Q115.922 358.689 117.728 362.254 Q119.557 365.796 123.168 365.796 Q126.802 365.796 128.607 362.254 Q130.436 358.689 130.436 351.583 Q130.436 344.453 128.607 340.912 Q126.802 337.347 123.168 337.347 M123.168 333.643 Q128.978 333.643 132.033 338.249 Q135.112 342.833 135.112 351.583 Q135.112 360.31 132.033 364.916 Q128.978 369.499 123.168 369.499 Q117.358 369.499 114.279 364.916 Q111.223 360.31 111.223 351.583 Q111.223 342.833 114.279 338.249 Q117.358 333.643 123.168 333.643 Z" fill="#000000" fill-rule="nonzero" fill-opacity="1" /><path clip-path="url(#clip130)" d="M153.33 337.347 Q149.718 337.347 147.89 340.912 Q146.084 344.453 146.084 351.583 Q146.084 358.689 147.89 362.254 Q149.718 365.796 153.33 365.796 Q156.964 365.796 158.769 362.254 Q160.598 358.689 160.598 351.583 Q160.598 344.453 158.769 340.912 Q156.964 337.347 153.33 337.347 M153.33 333.643 Q159.14 333.643 162.195 338.249 Q165.274 342.833 165.274 351.583 Q165.274 360.31 162.195 364.916 Q159.14 369.499 153.33 369.499 Q147.519 369.499 144.441 364.916 Q141.385 360.31 141.385 351.583 Q141.385 342.833 144.441 338.249 Q147.519 333.643 153.33 333.643 Z" fill="#000000" fill-rule="nonzero" fill-opacity="1" /><path clip-path="url(#clip130)" d="M183.491 337.347 Q179.88 337.347 178.052 340.912 Q176.246 344.453 176.246 351.583 Q176.246 358.689 178.052 362.254 Q179.88 365.796 183.491 365.796 Q187.126 365.796 188.931 362.254 Q190.76 358.689 190.76 351.583 Q190.76 344.453 188.931 340.912 Q187.126 337.347 183.491 337.347 M183.491 333.643 Q189.302 333.643 192.357 338.249 Q195.436 342.833 195.436 351.583 Q195.436 360.31 192.357 364.916 Q189.302 369.499 183.491 369.499 Q177.681 369.499 174.603 364.916 Q171.547 360.31 171.547 351.583 Q171.547 342.833 174.603 338.249 Q177.681 333.643 183.491 333.643 Z" fill="#000000" fill-rule="nonzero" fill-opacity="1" /><path clip-path="url(#clip130)" d="M1262.57 35.2602 Q1262.57 29.4732 1260.17 26.2904 Q1257.79 23.1075 1253.48 23.1075 Q1249.2 23.1075 1246.8 26.2904 Q1244.43 29.4732 1244.43 35.2602 Q1244.43 41.0183 1246.8 44.2012 Q1249.2 47.384 1253.48 47.384 Q1257.79 47.384 1260.17 44.2012 Q1262.57 41.0183 1262.57 35.2602 M1267.89 47.818 Q1267.89 56.0934 1264.22 60.1154 Q1260.54 64.1663 1252.96 64.1663 Q1250.15 64.1663 1247.67 63.7323 Q1245.18 63.3272 1242.83 62.4592 L1242.83 57.2798 Q1245.18 58.5529 1247.46 59.1606 Q1249.75 59.7682 1252.12 59.7682 Q1257.36 59.7682 1259.96 57.0194 Q1262.57 54.2995 1262.57 48.7729 L1262.57 46.1398 Q1260.92 49.0044 1258.34 50.4222 Q1255.77 51.84 1252.18 51.84 Q1246.22 51.84 1242.57 47.2972 Q1238.93 42.7544 1238.93 35.2602 Q1238.93 27.7371 1242.57 23.1943 Q1246.22 18.6515 1252.18 18.6515 Q1255.77 18.6515 1258.34 20.0693 Q1260.92 21.4872 1262.57 24.3517 L1262.57 19.4328 L1267.89 19.4328 L1267.89 47.818 Z" fill="#000000" fill-rule="nonzero" fill-opacity="1" /><path clip-path="url(#clip130)" d="M1300.18 24.3517 L1300.18 6.81709 L1305.51 6.81709 L1305.51 51.84 L1300.18 51.84 L1300.18 46.9789 Q1298.5 49.8724 1295.93 51.2902 Q1293.38 52.6791 1289.8 52.6791 Q1283.92 52.6791 1280.22 47.9916 Q1276.54 43.3042 1276.54 35.6653 Q1276.54 28.0265 1280.22 23.339 Q1283.92 18.6515 1289.8 18.6515 Q1293.38 18.6515 1295.93 20.0693 Q1298.5 21.4582 1300.18 24.3517 M1282.04 35.6653 Q1282.04 41.5391 1284.44 44.8956 Q1286.87 48.2231 1291.1 48.2231 Q1295.32 48.2231 1297.75 44.8956 Q1300.18 41.5391 1300.18 35.6653 Q1300.18 29.7915 1297.75 26.464 Q1295.32 23.1075 1291.1 23.1075 Q1286.87 23.1075 1284.44 26.464 Q1282.04 29.7915 1282.04 35.6653 Z" fill="#000000" fill-rule="nonzero" fill-opacity="1" /><path clip-path="url(#clip130)" d="M1321.62 46.9789 L1321.62 64.1663 L1316.27 64.1663 L1316.27 19.4328 L1321.62 19.4328 L1321.62 24.3517 Q1323.3 21.4582 1325.85 20.0693 Q1328.42 18.6515 1331.98 18.6515 Q1337.89 18.6515 1341.56 23.339 Q1345.26 28.0265 1345.26 35.6653 Q1345.26 43.3042 1341.56 47.9916 Q1337.89 52.6791 1331.98 52.6791 Q1328.42 52.6791 1325.85 51.2902 Q1323.3 49.8724 1321.62 46.9789 M1339.74 35.6653 Q1339.74 29.7915 1337.31 26.464 Q1334.91 23.1075 1330.68 23.1075 Q1326.46 23.1075 1324.03 26.464 Q1321.62 29.7915 1321.62 35.6653 Q1321.62 41.5391 1324.03 44.8956 Q1326.46 48.2231 1330.68 48.2231 Q1334.91 48.2231 1337.31 44.8956 Q1339.74 41.5391 1339.74 35.6653 Z" fill="#000000" fill-rule="nonzero" fill-opacity="1" /><polyline clip-path="url(#clip132)" style="stroke:#009af9; stroke-linecap:round; stroke-linejoin:round; stroke-width:4; stroke-opacity:1; fill:none" points="291.473,1447.38 416.551,1359.72 541.629,1244.52 666.707,1031.67 791.785,934.735 916.862,900.778 1041.94,787.755 1167.02,683.266 1292.1,594.178 1417.17,595.848 1542.25,473.32 1667.33,366.482 1792.41,245.982 1917.49,237.709 2042.56,266.635 2167.64,239.761 2292.72,145.256 "/>
<path clip-path="url(#clip130)" d="M302.146 255.881 L566.709 255.881 L566.709 152.201 L302.146 152.201  Z" fill="#ffffff" fill-rule="evenodd" fill-opacity="1"/>
<polyline clip-path="url(#clip130)" style="stroke:#000000; stroke-linecap:round; stroke-linejoin:round; stroke-width:4; stroke-opacity:1; fill:none" points="302.146,255.881 566.709,255.881 566.709,152.201 302.146,152.201 302.146,255.881 "/>
<polyline clip-path="url(#clip130)" style="stroke:#009af9; stroke-linecap:round; stroke-linejoin:round; stroke-width:4; stroke-opacity:1; fill:none" points="325.717,204.041 467.138,204.041 "/>
<path clip-path="url(#clip130)" d="M504.551 223.728 Q502.745 228.358 501.032 229.77 Q499.319 231.182 496.449 231.182 L493.046 231.182 L493.046 227.617 L495.546 227.617 Q497.305 227.617 498.278 226.784 Q499.25 225.95 500.43 222.848 L501.194 220.904 L490.708 195.395 L495.222 195.395 L503.324 215.673 L511.426 195.395 L515.94 195.395 L504.551 223.728 Z" fill="#000000" fill-rule="nonzero" fill-opacity="1" /><path clip-path="url(#clip130)" d="M523.231 217.385 L530.87 217.385 L530.87 191.02 L522.56 192.687 L522.56 188.427 L530.824 186.761 L535.5 186.761 L535.5 217.385 L543.139 217.385 L543.139 221.321 L523.231 221.321 L523.231 217.385 Z" fill="#000000" fill-rule="nonzero" fill-opacity="1" /></svg>
