<?xml version="1.0" encoding="utf-8"?>
<svg xmlns="http://www.w3.org/2000/svg" xmlns:xlink="http://www.w3.org/1999/xlink" width="600" height="400" viewBox="0 0 2400 1600">
<defs>
  <clipPath id="clip330">
    <rect x="0" y="0" width="2400" height="1600"/>
  </clipPath>
</defs>
<path clip-path="url(#clip330)" d="M0 1600 L2400 1600 L2400 0 L0 0  Z" fill="#ffffff" fill-rule="evenodd" fill-opacity="1"/>
<defs>
  <clipPath id="clip331">
    <rect x="480" y="0" width="1681" height="1600"/>
  </clipPath>
</defs>
<path clip-path="url(#clip330)" d="M230.765 1486.45 L2352.76 1486.45 L2352.76 106.192 L230.765 106.192  Z" fill="#ffffff" fill-rule="evenodd" fill-opacity="1"/>
<defs>
  <clipPath id="clip332">
    <rect x="230" y="106" width="2123" height="1381"/>
  </clipPath>
</defs>
<polyline clip-path="url(#clip332)" style="stroke:#000000; stroke-linecap:round; stroke-linejoin:round; stroke-width:2; stroke-opacity:0.1; fill:none" points="541.056,1486.45 541.056,106.192 "/>
<polyline clip-path="url(#clip332)" style="stroke:#000000; stroke-linecap:round; stroke-linejoin:round; stroke-width:2; stroke-opacity:0.1; fill:none" points="916.408,1486.45 916.408,106.192 "/>
<polyline clip-path="url(#clip332)" style="stroke:#000000; stroke-linecap:round; stroke-linejoin:round; stroke-width:2; stroke-opacity:0.1; fill:none" points="1291.76,1486.45 1291.76,106.192 "/>
<polyline clip-path="url(#clip332)" style="stroke:#000000; stroke-linecap:round; stroke-linejoin:round; stroke-width:2; stroke-opacity:0.1; fill:none" points="1667.11,1486.45 1667.11,106.192 "/>
<polyline clip-path="url(#clip332)" style="stroke:#000000; stroke-linecap:round; stroke-linejoin:round; stroke-width:2; stroke-opacity:0.1; fill:none" points="2042.46,1486.45 2042.46,106.192 "/>
<polyline clip-path="url(#clip332)" style="stroke:#000000; stroke-linecap:round; stroke-linejoin:round; stroke-width:2; stroke-opacity:0.1; fill:none" points="230.765,1352.53 2352.76,1352.53 "/>
<polyline clip-path="url(#clip332)" style="stroke:#000000; stroke-linecap:round; stroke-linejoin:round; stroke-width:2; stroke-opacity:0.1; fill:none" points="230.765,1053.08 2352.76,1053.08 "/>
<polyline clip-path="url(#clip332)" style="stroke:#000000; stroke-linecap:round; stroke-linejoin:round; stroke-width:2; stroke-opacity:0.1; fill:none" points="230.765,753.632 2352.76,753.632 "/>
<polyline clip-path="url(#clip332)" style="stroke:#000000; stroke-linecap:round; stroke-linejoin:round; stroke-width:2; stroke-opacity:0.1; fill:none" points="230.765,454.184 2352.76,454.184 "/>
<polyline clip-path="url(#clip332)" style="stroke:#000000; stroke-linecap:round; stroke-linejoin:round; stroke-width:2; stroke-opacity:0.1; fill:none" points="230.765,154.737 2352.76,154.737 "/>
<polyline clip-path="url(#clip330)" style="stroke:#000000; stroke-linecap:round; stroke-linejoin:round; stroke-width:4; stroke-opacity:1; fill:none" points="230.765,1486.45 2352.76,1486.45 "/>
<polyline clip-path="url(#clip330)" style="stroke:#000000; stroke-linecap:round; stroke-linejoin:round; stroke-width:4; stroke-opacity:1; fill:none" points="541.056,1486.45 541.056,1467.55 "/>
<polyline clip-path="url(#clip330)" style="stroke:#000000; stroke-linecap:round; stroke-linejoin:round; stroke-width:4; stroke-opacity:1; fill:none" points="916.408,1486.45 916.408,1467.55 "/>
<polyline clip-path="url(#clip330)" style="stroke:#000000; stroke-linecap:round; stroke-linejoin:round; stroke-width:4; stroke-opacity:1; fill:none" points="1291.76,1486.45 1291.76,1467.55 "/>
<polyline clip-path="url(#clip330)" style="stroke:#000000; stroke-linecap:round; stroke-linejoin:round; stroke-width:4; stroke-opacity:1; fill:none" points="1667.11,1486.45 1667.11,1467.55 "/>
<polyline clip-path="url(#clip330)" style="stroke:#000000; stroke-linecap:round; stroke-linejoin:round; stroke-width:4; stroke-opacity:1; fill:none" points="2042.46,1486.45 2042.46,1467.55 "/>
<path clip-path="url(#clip330)" d="M545.303 1530.21 Q548.66 1530.93 550.535 1533.2 Q552.433 1535.47 552.433 1538.8 Q552.433 1543.92 548.914 1546.72 Q545.396 1549.52 538.915 1549.52 Q536.739 1549.52 534.424 1549.08 Q532.132 1548.66 529.678 1547.81 L529.678 1543.29 Q531.623 1544.43 533.938 1545.01 Q536.252 1545.58 538.776 1545.58 Q543.174 1545.58 545.465 1543.85 Q547.78 1542.11 547.78 1538.8 Q547.78 1535.75 545.627 1534.03 Q543.498 1532.3 539.678 1532.3 L535.651 1532.3 L535.651 1528.45 L539.864 1528.45 Q543.313 1528.45 545.141 1527.09 Q546.97 1525.7 546.97 1523.11 Q546.97 1520.45 545.072 1519.03 Q543.197 1517.6 539.678 1517.6 Q537.757 1517.6 535.558 1518.01 Q533.359 1518.43 530.72 1519.31 L530.72 1515.14 Q533.382 1514.4 535.697 1514.03 Q538.035 1513.66 540.095 1513.66 Q545.419 1513.66 548.521 1516.09 Q551.623 1518.5 551.623 1522.62 Q551.623 1525.49 549.979 1527.48 Q548.336 1529.45 545.303 1530.21 Z" fill="#000000" fill-rule="nonzero" fill-opacity="1" /><path clip-path="url(#clip330)" d="M916.813 1529.7 Q913.665 1529.7 911.813 1531.86 Q909.984 1534.01 909.984 1537.76 Q909.984 1541.49 911.813 1543.66 Q913.665 1545.82 916.813 1545.82 Q919.961 1545.82 921.79 1543.66 Q923.642 1541.49 923.642 1537.76 Q923.642 1534.01 921.79 1531.86 Q919.961 1529.7 916.813 1529.7 M926.095 1515.05 L926.095 1519.31 Q924.336 1518.48 922.531 1518.04 Q920.748 1517.6 918.989 1517.6 Q914.359 1517.6 911.906 1520.72 Q909.475 1523.85 909.128 1530.17 Q910.494 1528.15 912.554 1527.09 Q914.614 1526 917.091 1526 Q922.299 1526 925.308 1529.17 Q928.341 1532.32 928.341 1537.76 Q928.341 1543.08 925.193 1546.3 Q922.044 1549.52 916.813 1549.52 Q910.818 1549.52 907.646 1544.94 Q904.475 1540.33 904.475 1531.6 Q904.475 1523.41 908.364 1518.55 Q912.253 1513.66 918.804 1513.66 Q920.563 1513.66 922.345 1514.01 Q924.151 1514.36 926.095 1515.05 Z" fill="#000000" fill-rule="nonzero" fill-opacity="1" /><path clip-path="url(#clip330)" d="M1282.06 1548.13 L1282.06 1543.87 Q1283.82 1544.7 1285.63 1545.14 Q1287.43 1545.58 1289.17 1545.58 Q1293.8 1545.58 1296.23 1542.48 Q1298.68 1539.36 1299.03 1533.01 Q1297.69 1535.01 1295.63 1536.07 Q1293.57 1537.13 1291.07 1537.13 Q1285.88 1537.13 1282.85 1534.01 Q1279.84 1530.86 1279.84 1525.42 Q1279.84 1520.1 1282.99 1516.88 Q1286.14 1513.66 1291.37 1513.66 Q1297.36 1513.66 1300.51 1518.27 Q1303.68 1522.85 1303.68 1531.6 Q1303.68 1539.77 1299.79 1544.66 Q1295.93 1549.52 1289.38 1549.52 Q1287.62 1549.52 1285.81 1549.17 Q1284.01 1548.82 1282.06 1548.13 M1291.37 1533.48 Q1294.51 1533.48 1296.34 1531.32 Q1298.2 1529.17 1298.2 1525.42 Q1298.2 1521.7 1296.34 1519.54 Q1294.51 1517.37 1291.37 1517.37 Q1288.22 1517.37 1286.37 1519.54 Q1284.54 1521.7 1284.54 1525.42 Q1284.54 1529.17 1286.37 1531.32 Q1288.22 1533.48 1291.37 1533.48 Z" fill="#000000" fill-rule="nonzero" fill-opacity="1" /><path clip-path="url(#clip330)" d="M1642.6 1544.91 L1650.24 1544.91 L1650.24 1518.55 L1641.93 1520.21 L1641.93 1515.95 L1650.19 1514.29 L1654.87 1514.29 L1654.87 1544.91 L1662.51 1544.91 L1662.51 1548.85 L1642.6 1548.85 L1642.6 1544.91 Z" fill="#000000" fill-rule="nonzero" fill-opacity="1" /><path clip-path="url(#clip330)" d="M1675.98 1544.91 L1692.3 1544.91 L1692.3 1548.85 L1670.35 1548.85 L1670.35 1544.91 Q1673.02 1542.16 1677.6 1537.53 Q1682.2 1532.88 1683.39 1531.53 Q1685.63 1529.01 1686.51 1527.27 Q1687.41 1525.51 1687.41 1523.82 Q1687.41 1521.07 1685.47 1519.33 Q1683.55 1517.6 1680.45 1517.6 Q1678.25 1517.6 1675.79 1518.36 Q1673.36 1519.13 1670.58 1520.68 L1670.58 1515.95 Q1673.41 1514.82 1675.86 1514.24 Q1678.32 1513.66 1680.35 1513.66 Q1685.72 1513.66 1688.92 1516.35 Q1692.11 1519.03 1692.11 1523.52 Q1692.11 1525.65 1691.3 1527.57 Q1690.52 1529.47 1688.41 1532.07 Q1687.83 1532.74 1684.73 1535.95 Q1681.63 1539.15 1675.98 1544.91 Z" fill="#000000" fill-rule="nonzero" fill-opacity="1" /><path clip-path="url(#clip330)" d="M2017.65 1544.91 L2025.29 1544.91 L2025.29 1518.55 L2016.98 1520.21 L2016.98 1515.95 L2025.24 1514.29 L2029.92 1514.29 L2029.92 1544.91 L2037.56 1544.91 L2037.56 1548.85 L2017.65 1548.85 L2017.65 1544.91 Z" fill="#000000" fill-rule="nonzero" fill-opacity="1" /><path clip-path="url(#clip330)" d="M2047.05 1514.29 L2065.4 1514.29 L2065.4 1518.22 L2051.33 1518.22 L2051.33 1526.7 Q2052.35 1526.35 2053.37 1526.19 Q2054.39 1526 2055.4 1526 Q2061.19 1526 2064.57 1529.17 Q2067.95 1532.34 2067.95 1537.76 Q2067.95 1543.34 2064.48 1546.44 Q2061.01 1549.52 2054.69 1549.52 Q2052.51 1549.52 2050.24 1549.15 Q2048 1548.78 2045.59 1548.04 L2045.59 1543.34 Q2047.67 1544.47 2049.9 1545.03 Q2052.12 1545.58 2054.59 1545.58 Q2058.6 1545.58 2060.94 1543.48 Q2063.27 1541.37 2063.27 1537.76 Q2063.27 1534.15 2060.94 1532.04 Q2058.6 1529.94 2054.59 1529.94 Q2052.72 1529.94 2050.84 1530.35 Q2048.99 1530.77 2047.05 1531.65 L2047.05 1514.29 Z" fill="#000000" fill-rule="nonzero" fill-opacity="1" /><polyline clip-path="url(#clip330)" style="stroke:#000000; stroke-linecap:round; stroke-linejoin:round; stroke-width:4; stroke-opacity:1; fill:none" points="230.765,1486.45 230.765,106.192 "/>
<polyline clip-path="url(#clip330)" style="stroke:#000000; stroke-linecap:round; stroke-linejoin:round; stroke-width:4; stroke-opacity:1; fill:none" points="230.765,1352.53 249.662,1352.53 "/>
<polyline clip-path="url(#clip330)" style="stroke:#000000; stroke-linecap:round; stroke-linejoin:round; stroke-width:4; stroke-opacity:1; fill:none" points="230.765,1053.08 249.662,1053.08 "/>
<polyline clip-path="url(#clip330)" style="stroke:#000000; stroke-linecap:round; stroke-linejoin:round; stroke-width:4; stroke-opacity:1; fill:none" points="230.765,753.632 249.662,753.632 "/>
<polyline clip-path="url(#clip330)" style="stroke:#000000; stroke-linecap:round; stroke-linejoin:round; stroke-width:4; stroke-opacity:1; fill:none" points="230.765,454.184 249.662,454.184 "/>
<polyline clip-path="url(#clip330)" style="stroke:#000000; stroke-linecap:round; stroke-linejoin:round; stroke-width:4; stroke-opacity:1; fill:none" points="230.765,154.737 249.662,154.737 "/>
<path clip-path="url(#clip330)" d="M50.9921 1335.25 L73.2142 1335.25 L73.2142 1337.24 L60.668 1369.81 L55.7838 1369.81 L67.5893 1339.18 L50.9921 1339.18 L50.9921 1335.25 Z" fill="#000000" fill-rule="nonzero" fill-opacity="1" /><path clip-path="url(#clip330)" d="M86.3623 1365.87 L102.682 1365.87 L102.682 1369.81 L80.7373 1369.81 L80.7373 1365.87 Q83.3994 1363.12 87.9827 1358.49 Q92.5891 1353.83 93.7697 1352.49 Q96.015 1349.97 96.8947 1348.23 Q97.7974 1346.47 97.7974 1344.78 Q97.7974 1342.03 95.853 1340.29 Q93.9317 1338.56 90.8299 1338.56 Q88.6308 1338.56 86.1771 1339.32 Q83.7466 1340.08 80.9688 1341.63 L80.9688 1336.91 Q83.7929 1335.78 86.2466 1335.2 Q88.7003 1334.62 90.7373 1334.62 Q96.1076 1334.62 99.3021 1337.31 Q102.496 1339.99 102.496 1344.48 Q102.496 1346.61 101.686 1348.53 Q100.899 1350.43 98.7928 1353.02 Q98.2141 1353.7 95.1123 1356.91 Q92.0104 1360.11 86.3623 1365.87 Z" fill="#000000" fill-rule="nonzero" fill-opacity="1" /><path clip-path="url(#clip330)" d="M112.543 1335.25 L130.899 1335.25 L130.899 1339.18 L116.825 1339.18 L116.825 1347.65 Q117.844 1347.31 118.862 1347.14 Q119.881 1346.96 120.899 1346.96 Q126.686 1346.96 130.066 1350.13 Q133.445 1353.3 133.445 1358.72 Q133.445 1364.3 129.973 1367.4 Q126.501 1370.48 120.182 1370.48 Q118.006 1370.48 115.737 1370.11 Q113.492 1369.74 111.084 1369 L111.084 1364.3 Q113.168 1365.43 115.39 1365.99 Q117.612 1366.54 120.089 1366.54 Q124.094 1366.54 126.432 1364.44 Q128.769 1362.33 128.769 1358.72 Q128.769 1355.11 126.432 1353 Q124.094 1350.89 120.089 1350.89 Q118.214 1350.89 116.339 1351.31 Q114.487 1351.73 112.543 1352.61 L112.543 1335.25 Z" fill="#000000" fill-rule="nonzero" fill-opacity="1" /><path clip-path="url(#clip330)" d="M152.658 1338.32 Q149.047 1338.32 147.218 1341.89 Q145.413 1345.43 145.413 1352.56 Q145.413 1359.67 147.218 1363.23 Q149.047 1366.77 152.658 1366.77 Q156.292 1366.77 158.098 1363.23 Q159.927 1359.67 159.927 1352.56 Q159.927 1345.43 158.098 1341.89 Q156.292 1338.32 152.658 1338.32 M152.658 1334.62 Q158.468 1334.62 161.524 1339.23 Q164.603 1343.81 164.603 1352.56 Q164.603 1361.29 161.524 1365.89 Q158.468 1370.48 152.658 1370.48 Q146.848 1370.48 143.769 1365.89 Q140.714 1361.29 140.714 1352.56 Q140.714 1343.81 143.769 1339.23 Q146.848 1334.62 152.658 1334.62 Z" fill="#000000" fill-rule="nonzero" fill-opacity="1" /><path clip-path="url(#clip330)" d="M182.82 1338.32 Q179.209 1338.32 177.38 1341.89 Q175.575 1345.43 175.575 1352.56 Q175.575 1359.67 177.38 1363.23 Q179.209 1366.77 182.82 1366.77 Q186.454 1366.77 188.26 1363.23 Q190.089 1359.67 190.089 1352.56 Q190.089 1345.43 188.26 1341.89 Q186.454 1338.32 182.82 1338.32 M182.82 1334.62 Q188.63 1334.62 191.686 1339.23 Q194.765 1343.81 194.765 1352.56 Q194.765 1361.29 191.686 1365.89 Q188.63 1370.48 182.82 1370.48 Q177.01 1370.48 173.931 1365.89 Q170.876 1361.29 170.876 1352.56 Q170.876 1343.81 173.931 1339.23 Q177.01 1334.62 182.82 1334.62 Z" fill="#000000" fill-rule="nonzero" fill-opacity="1" /><path clip-path="url(#clip330)" d="M50.9921 1035.8 L73.2142 1035.8 L73.2142 1037.79 L60.668 1070.36 L55.7838 1070.36 L67.5893 1039.73 L50.9921 1039.73 L50.9921 1035.8 Z" fill="#000000" fill-rule="nonzero" fill-opacity="1" /><path clip-path="url(#clip330)" d="M96.5011 1051.72 Q99.8576 1052.44 101.733 1054.71 Q103.631 1056.98 103.631 1060.31 Q103.631 1065.43 100.112 1068.23 Q96.5937 1071.03 90.1123 1071.03 Q87.9364 1071.03 85.6216 1070.59 Q83.3299 1070.17 80.8762 1069.32 L80.8762 1064.8 Q82.8207 1065.94 85.1355 1066.52 Q87.4503 1067.1 89.9734 1067.1 Q94.3715 1067.1 96.6632 1065.36 Q98.978 1063.62 98.978 1060.31 Q98.978 1057.26 96.8252 1055.54 Q94.6956 1053.81 90.8762 1053.81 L86.8484 1053.81 L86.8484 1049.97 L91.0614 1049.97 Q94.5104 1049.97 96.3391 1048.6 Q98.1678 1047.21 98.1678 1044.62 Q98.1678 1041.96 96.2697 1040.54 Q94.3947 1039.11 90.8762 1039.11 Q88.9549 1039.11 86.7558 1039.53 Q84.5568 1039.94 81.9179 1040.82 L81.9179 1036.66 Q84.5799 1035.91 86.8947 1035.54 Q89.2327 1035.17 91.2928 1035.17 Q96.6169 1035.17 99.7187 1037.6 Q102.821 1040.01 102.821 1044.13 Q102.821 1047 101.177 1048.99 Q99.5335 1050.96 96.5011 1051.72 Z" fill="#000000" fill-rule="nonzero" fill-opacity="1" /><path clip-path="url(#clip330)" d="M122.496 1038.88 Q118.885 1038.88 117.057 1042.44 Q115.251 1045.98 115.251 1053.11 Q115.251 1060.22 117.057 1063.78 Q118.885 1067.33 122.496 1067.33 Q126.131 1067.33 127.936 1063.78 Q129.765 1060.22 129.765 1053.11 Q129.765 1045.98 127.936 1042.44 Q126.131 1038.88 122.496 1038.88 M122.496 1035.17 Q128.307 1035.17 131.362 1039.78 Q134.441 1044.36 134.441 1053.11 Q134.441 1061.84 131.362 1066.45 Q128.307 1071.03 122.496 1071.03 Q116.686 1071.03 113.608 1066.45 Q110.552 1061.84 110.552 1053.11 Q110.552 1044.36 113.608 1039.78 Q116.686 1035.17 122.496 1035.17 Z" fill="#000000" fill-rule="nonzero" fill-opacity="1" /><path clip-path="url(#clip330)" d="M152.658 1038.88 Q149.047 1038.88 147.218 1042.44 Q145.413 1045.98 145.413 1053.11 Q145.413 1060.22 147.218 1063.78 Q149.047 1067.33 152.658 1067.33 Q156.292 1067.33 158.098 1063.78 Q159.927 1060.22 159.927 1053.11 Q159.927 1045.98 158.098 1042.44 Q156.292 1038.88 152.658 1038.88 M152.658 1035.17 Q158.468 1035.17 161.524 1039.78 Q164.603 1044.36 164.603 1053.11 Q164.603 1061.84 161.524 1066.45 Q158.468 1071.03 152.658 1071.03 Q146.848 1071.03 143.769 1066.45 Q140.714 1061.84 140.714 1053.11 Q140.714 1044.36 143.769 1039.78 Q146.848 1035.17 152.658 1035.17 Z" fill="#000000" fill-rule="nonzero" fill-opacity="1" /><path clip-path="url(#clip330)" d="M182.82 1038.88 Q179.209 1038.88 177.38 1042.44 Q175.575 1045.98 175.575 1053.11 Q175.575 1060.22 177.38 1063.78 Q179.209 1067.33 182.82 1067.33 Q186.454 1067.33 188.26 1063.78 Q190.089 1060.22 190.089 1053.11 Q190.089 1045.98 188.26 1042.44 Q186.454 1038.88 182.82 1038.88 M182.82 1035.17 Q188.63 1035.17 191.686 1039.78 Q194.765 1044.36 194.765 1053.11 Q194.765 1061.84 191.686 1066.45 Q188.63 1071.03 182.82 1071.03 Q177.01 1071.03 173.931 1066.45 Q170.876 1061.84 170.876 1053.11 Q170.876 1044.36 173.931 1039.78 Q177.01 1035.17 182.82 1035.17 Z" fill="#000000" fill-rule="nonzero" fill-opacity="1" /><path clip-path="url(#clip330)" d="M50.9921 736.352 L73.2142 736.352 L73.2142 738.342 L60.668 770.912 L55.7838 770.912 L67.5893 740.287 L50.9921 740.287 L50.9921 736.352 Z" fill="#000000" fill-rule="nonzero" fill-opacity="1" /><path clip-path="url(#clip330)" d="M96.5011 752.277 Q99.8576 752.995 101.733 755.264 Q103.631 757.532 103.631 760.865 Q103.631 765.981 100.112 768.782 Q96.5937 771.583 90.1123 771.583 Q87.9364 771.583 85.6216 771.143 Q83.3299 770.726 80.8762 769.87 L80.8762 765.356 Q82.8207 766.49 85.1355 767.069 Q87.4503 767.648 89.9734 767.648 Q94.3715 767.648 96.6632 765.912 Q98.978 764.176 98.978 760.865 Q98.978 757.81 96.8252 756.097 Q94.6956 754.361 90.8762 754.361 L86.8484 754.361 L86.8484 750.518 L91.0614 750.518 Q94.5104 750.518 96.3391 749.152 Q98.1678 747.764 98.1678 745.171 Q98.1678 742.509 96.2697 741.097 Q94.3947 739.662 90.8762 739.662 Q88.9549 739.662 86.7558 740.078 Q84.5568 740.495 81.9179 741.375 L81.9179 737.208 Q84.5799 736.467 86.8947 736.097 Q89.2327 735.727 91.2928 735.727 Q96.6169 735.727 99.7187 738.157 Q102.821 740.565 102.821 744.685 Q102.821 747.555 101.177 749.546 Q99.5335 751.514 96.5011 752.277 Z" fill="#000000" fill-rule="nonzero" fill-opacity="1" /><path clip-path="url(#clip330)" d="M112.543 736.352 L130.899 736.352 L130.899 740.287 L116.825 740.287 L116.825 748.759 Q117.844 748.412 118.862 748.25 Q119.881 748.065 120.899 748.065 Q126.686 748.065 130.066 751.236 Q133.445 754.407 133.445 759.824 Q133.445 765.402 129.973 768.504 Q126.501 771.583 120.182 771.583 Q118.006 771.583 115.737 771.213 Q113.492 770.842 111.084 770.101 L111.084 765.402 Q113.168 766.537 115.39 767.092 Q117.612 767.648 120.089 767.648 Q124.094 767.648 126.432 765.541 Q128.769 763.435 128.769 759.824 Q128.769 756.213 126.432 754.106 Q124.094 752 120.089 752 Q118.214 752 116.339 752.416 Q114.487 752.833 112.543 753.713 L112.543 736.352 Z" fill="#000000" fill-rule="nonzero" fill-opacity="1" /><path clip-path="url(#clip330)" d="M152.658 739.43 Q149.047 739.43 147.218 742.995 Q145.413 746.537 145.413 753.666 Q145.413 760.773 147.218 764.338 Q149.047 767.879 152.658 767.879 Q156.292 767.879 158.098 764.338 Q159.927 760.773 159.927 753.666 Q159.927 746.537 158.098 742.995 Q156.292 739.43 152.658 739.43 M152.658 735.727 Q158.468 735.727 161.524 740.333 Q164.603 744.916 164.603 753.666 Q164.603 762.393 161.524 767 Q158.468 771.583 152.658 771.583 Q146.848 771.583 143.769 767 Q140.714 762.393 140.714 753.666 Q140.714 744.916 143.769 740.333 Q146.848 735.727 152.658 735.727 Z" fill="#000000" fill-rule="nonzero" fill-opacity="1" /><path clip-path="url(#clip330)" d="M182.82 739.43 Q179.209 739.43 177.38 742.995 Q175.575 746.537 175.575 753.666 Q175.575 760.773 177.38 764.338 Q179.209 767.879 182.82 767.879 Q186.454 767.879 188.26 764.338 Q190.089 760.773 190.089 753.666 Q190.089 746.537 188.26 742.995 Q186.454 739.43 182.82 739.43 M182.82 735.727 Q188.63 735.727 191.686 740.333 Q194.765 744.916 194.765 753.666 Q194.765 762.393 191.686 767 Q188.63 771.583 182.82 771.583 Q177.01 771.583 173.931 767 Q170.876 762.393 170.876 753.666 Q170.876 744.916 173.931 740.333 Q177.01 735.727 182.82 735.727 Z" fill="#000000" fill-rule="nonzero" fill-opacity="1" /><path clip-path="url(#clip330)" d="M50.9921 436.904 L73.2142 436.904 L73.2142 438.895 L60.668 471.464 L55.7838 471.464 L67.5893 440.84 L50.9921 440.84 L50.9921 436.904 Z" fill="#000000" fill-rule="nonzero" fill-opacity="1" /><path clip-path="url(#clip330)" d="M95.1817 440.978 L83.3762 459.427 L95.1817 459.427 L95.1817 440.978 M93.9549 436.904 L99.8345 436.904 L99.8345 459.427 L104.765 459.427 L104.765 463.316 L99.8345 463.316 L99.8345 471.464 L95.1817 471.464 L95.1817 463.316 L79.5799 463.316 L79.5799 458.802 L93.9549 436.904 Z" fill="#000000" fill-rule="nonzero" fill-opacity="1" /><path clip-path="url(#clip330)" d="M122.496 439.983 Q118.885 439.983 117.057 443.548 Q115.251 447.09 115.251 454.219 Q115.251 461.326 117.057 464.89 Q118.885 468.432 122.496 468.432 Q126.131 468.432 127.936 464.89 Q129.765 461.326 129.765 454.219 Q129.765 447.09 127.936 443.548 Q126.131 439.983 122.496 439.983 M122.496 436.279 Q128.307 436.279 131.362 440.886 Q134.441 445.469 134.441 454.219 Q134.441 462.946 131.362 467.552 Q128.307 472.136 122.496 472.136 Q116.686 472.136 113.608 467.552 Q110.552 462.946 110.552 454.219 Q110.552 445.469 113.608 440.886 Q116.686 436.279 122.496 436.279 Z" fill="#000000" fill-rule="nonzero" fill-opacity="1" /><path clip-path="url(#clip330)" d="M152.658 439.983 Q149.047 439.983 147.218 443.548 Q145.413 447.09 145.413 454.219 Q145.413 461.326 147.218 464.89 Q149.047 468.432 152.658 468.432 Q156.292 468.432 158.098 464.89 Q159.927 461.326 159.927 454.219 Q159.927 447.09 158.098 443.548 Q156.292 439.983 152.658 439.983 M152.658 436.279 Q158.468 436.279 161.524 440.886 Q164.603 445.469 164.603 454.219 Q164.603 462.946 161.524 467.552 Q158.468 472.136 152.658 472.136 Q146.848 472.136 143.769 467.552 Q140.714 462.946 140.714 454.219 Q140.714 445.469 143.769 440.886 Q146.848 436.279 152.658 436.279 Z" fill="#000000" fill-rule="nonzero" fill-opacity="1" /><path clip-path="url(#clip330)" d="M182.82 439.983 Q179.209 439.983 177.38 443.548 Q175.575 447.09 175.575 454.219 Q175.575 461.326 177.38 464.89 Q179.209 468.432 182.82 468.432 Q186.454 468.432 188.26 464.89 Q190.089 461.326 190.089 454.219 Q190.089 447.09 188.26 443.548 Q186.454 439.983 182.82 439.983 M182.82 436.279 Q188.63 436.279 191.686 440.886 Q194.765 445.469 194.765 454.219 Q194.765 462.946 191.686 467.552 Q188.63 472.136 182.82 472.136 Q177.01 472.136 173.931 467.552 Q170.876 462.946 170.876 454.219 Q170.876 445.469 173.931 440.886 Q177.01 436.279 182.82 436.279 Z" fill="#000000" fill-rule="nonzero" fill-opacity="1" /><path clip-path="url(#clip330)" d="M50.9921 137.457 L73.2142 137.457 L73.2142 139.448 L60.668 172.017 L55.7838 172.017 L67.5893 141.392 L50.9921 141.392 L50.9921 137.457 Z" fill="#000000" fill-rule="nonzero" fill-opacity="1" /><path clip-path="url(#clip330)" d="M95.1817 141.531 L83.3762 159.98 L95.1817 159.98 L95.1817 141.531 M93.9549 137.457 L99.8345 137.457 L99.8345 159.98 L104.765 159.98 L104.765 163.869 L99.8345 163.869 L99.8345 172.017 L95.1817 172.017 L95.1817 163.869 L79.5799 163.869 L79.5799 159.355 L93.9549 137.457 Z" fill="#000000" fill-rule="nonzero" fill-opacity="1" /><path clip-path="url(#clip330)" d="M112.543 137.457 L130.899 137.457 L130.899 141.392 L116.825 141.392 L116.825 149.864 Q117.844 149.517 118.862 149.355 Q119.881 149.17 120.899 149.17 Q126.686 149.17 130.066 152.341 Q133.445 155.513 133.445 160.929 Q133.445 166.508 129.973 169.61 Q126.501 172.688 120.182 172.688 Q118.006 172.688 115.737 172.318 Q113.492 171.948 111.084 171.207 L111.084 166.508 Q113.168 167.642 115.39 168.198 Q117.612 168.753 120.089 168.753 Q124.094 168.753 126.432 166.647 Q128.769 164.54 128.769 160.929 Q128.769 157.318 126.432 155.212 Q124.094 153.105 120.089 153.105 Q118.214 153.105 116.339 153.522 Q114.487 153.939 112.543 154.818 L112.543 137.457 Z" fill="#000000" fill-rule="nonzero" fill-opacity="1" /><path clip-path="url(#clip330)" d="M152.658 140.536 Q149.047 140.536 147.218 144.101 Q145.413 147.642 145.413 154.772 Q145.413 161.878 147.218 165.443 Q149.047 168.985 152.658 168.985 Q156.292 168.985 158.098 165.443 Q159.927 161.878 159.927 154.772 Q159.927 147.642 158.098 144.101 Q156.292 140.536 152.658 140.536 M152.658 136.832 Q158.468 136.832 161.524 141.439 Q164.603 146.022 164.603 154.772 Q164.603 163.499 161.524 168.105 Q158.468 172.688 152.658 172.688 Q146.848 172.688 143.769 168.105 Q140.714 163.499 140.714 154.772 Q140.714 146.022 143.769 141.439 Q146.848 136.832 152.658 136.832 Z" fill="#000000" fill-rule="nonzero" fill-opacity="1" /><path clip-path="url(#clip330)" d="M182.82 140.536 Q179.209 140.536 177.38 144.101 Q175.575 147.642 175.575 154.772 Q175.575 161.878 177.38 165.443 Q179.209 168.985 182.82 168.985 Q186.454 168.985 188.26 165.443 Q190.089 161.878 190.089 154.772 Q190.089 147.642 188.26 144.101 Q186.454 140.536 182.82 140.536 M182.82 136.832 Q188.63 136.832 191.686 141.439 Q194.765 146.022 194.765 154.772 Q194.765 163.499 191.686 168.105 Q188.63 172.688 182.82 172.688 Q177.01 172.688 173.931 168.105 Q170.876 163.499 170.876 154.772 Q170.876 146.022 173.931 141.439 Q177.01 136.832 182.82 136.832 Z" fill="#000000" fill-rule="nonzero" fill-opacity="1" /><path clip-path="url(#clip330)" d="M1262.23 35.2602 Q1262.23 29.4732 1259.83 26.2904 Q1257.46 23.1075 1253.15 23.1075 Q1248.86 23.1075 1246.46 26.2904 Q1244.09 29.4732 1244.09 35.2602 Q1244.09 41.0183 1246.46 44.2012 Q1248.86 47.384 1253.15 47.384 Q1257.46 47.384 1259.83 44.2012 Q1262.23 41.0183 1262.23 35.2602 M1267.56 47.818 Q1267.56 56.0934 1263.88 60.1154 Q1260.21 64.1663 1252.63 64.1663 Q1249.82 64.1663 1247.33 63.7323 Q1244.84 63.3272 1242.5 62.4592 L1242.5 57.2798 Q1244.84 58.5529 1247.13 59.1606 Q1249.41 59.7682 1251.79 59.7682 Q1257.02 59.7682 1259.63 57.0194 Q1262.23 54.2995 1262.23 48.7729 L1262.23 46.1398 Q1260.58 49.0044 1258.01 50.4222 Q1255.43 51.84 1251.84 51.84 Q1245.88 51.84 1242.24 47.2972 Q1238.59 42.7544 1238.59 35.2602 Q1238.59 27.7371 1242.24 23.1943 Q1245.88 18.6515 1251.84 18.6515 Q1255.43 18.6515 1258.01 20.0693 Q1260.58 21.4872 1262.23 24.3517 L1262.23 19.4328 L1267.56 19.4328 L1267.56 47.818 Z" fill="#000000" fill-rule="nonzero" fill-opacity="1" /><path clip-path="url(#clip330)" d="M1299.85 24.3517 L1299.85 6.81709 L1305.17 6.81709 L1305.17 51.84 L1299.85 51.84 L1299.85 46.9789 Q1298.17 49.8724 1295.59 51.2902 Q1293.05 52.6791 1289.46 52.6791 Q1283.59 52.6791 1279.88 47.9916 Q1276.21 43.3042 1276.21 35.6653 Q1276.21 28.0265 1279.88 23.339 Q1283.59 18.6515 1289.46 18.6515 Q1293.05 18.6515 1295.59 20.0693 Q1298.17 21.4582 1299.85 24.3517 M1281.71 35.6653 Q1281.71 41.5391 1284.11 44.8956 Q1286.54 48.2231 1290.76 48.2231 Q1294.99 48.2231 1297.42 44.8956 Q1299.85 41.5391 1299.85 35.6653 Q1299.85 29.7915 1297.42 26.464 Q1294.99 23.1075 1290.76 23.1075 Q1286.54 23.1075 1284.11 26.464 Q1281.71 29.7915 1281.71 35.6653 Z" fill="#000000" fill-rule="nonzero" fill-opacity="1" /><path clip-path="url(#clip330)" d="M1321.29 46.9789 L1321.29 64.1663 L1315.94 64.1663 L1315.94 19.4328 L1321.29 19.4328 L1321.29 24.3517 Q1322.97 21.4582 1325.51 20.0693 Q1328.09 18.6515 1331.65 18.6515 Q1337.55 18.6515 1341.22 23.339 Q1344.93 28.0265 1344.93 35.6653 Q1344.93 43.3042 1341.22 47.9916 Q1337.55 52.6791 1331.65 52.6791 Q1328.09 52.6791 1325.51 51.2902 Q1322.97 49.8724 1321.29 46.9789 M1339.4 35.6653 Q1339.4 29.7915 1336.97 26.464 Q1334.57 23.1075 1330.35 23.1075 Q1326.12 23.1075 1323.69 26.464 Q1321.29 29.7915 1321.29 35.6653 Q1321.29 41.5391 1323.69 44.8956 Q1326.12 48.2231 1330.35 48.2231 Q1334.57 48.2231 1336.97 44.8956 Q1339.4 41.5391 1339.4 35.6653 Z" fill="#000000" fill-rule="nonzero" fill-opacity="1" /><polyline clip-path="url(#clip332)" style="stroke:#009af9; stroke-linecap:round; stroke-linejoin:round; stroke-width:4; stroke-opacity:1; fill:none" points="290.821,1399.24 415.938,1286.24 541.056,1447.38 666.173,1143.72 791.291,1147.8 916.408,1205.58 1041.53,1253.32 1166.64,1224.03 1291.76,1072.08 1416.88,884.73 1542,1167.22 1667.11,661.005 1792.23,145.256 1917.35,197.745 2042.46,639.228 2167.58,643.777 2292.7,253.36 "/>
<path clip-path="url(#clip330)" d="M301.498 255.881 L566.127 255.881 L566.127 152.201 L301.498 152.201  Z" fill="#ffffff" fill-rule="evenodd" fill-opacity="1"/>
<polyline clip-path="url(#clip330)" style="stroke:#000000; stroke-linecap:round; stroke-linejoin:round; stroke-width:4; stroke-opacity:1; fill:none" points="301.498,255.881 566.127,255.881 566.127,152.201 301.498,152.201 301.498,255.881 "/>
<polyline clip-path="url(#clip330)" style="stroke:#009af9; stroke-linecap:round; stroke-linejoin:round; stroke-width:4; stroke-opacity:1; fill:none" points="325.075,204.041 466.541,204.041 "/>
<path clip-path="url(#clip330)" d="M503.962 223.728 Q502.156 228.358 500.443 229.77 Q498.73 231.182 495.86 231.182 L492.457 231.182 L492.457 227.617 L494.957 227.617 Q496.716 227.617 497.688 226.784 Q498.661 225.95 499.841 222.848 L500.605 220.904 L490.119 195.395 L494.633 195.395 L502.735 215.673 L510.836 195.395 L515.35 195.395 L503.962 223.728 Z" fill="#000000" fill-rule="nonzero" fill-opacity="1" /><path clip-path="url(#clip330)" d="M522.642 217.385 L530.281 217.385 L530.281 191.02 L521.971 192.687 L521.971 188.427 L530.235 186.761 L534.91 186.761 L534.91 217.385 L542.549 217.385 L542.549 221.321 L522.642 221.321 L522.642 217.385 Z" fill="#000000" fill-rule="nonzero" fill-opacity="1" /></svg>
