<?xml version="1.0" encoding="utf-8"?>
<svg xmlns="http://www.w3.org/2000/svg" xmlns:xlink="http://www.w3.org/1999/xlink" width="600" height="400" viewBox="0 0 2400 1600">
<defs>
  <clipPath id="clip140">
    <rect x="0" y="0" width="2400" height="1600"/>
  </clipPath>
</defs>
<path clip-path="url(#clip140)" d="M0 1600 L2400 1600 L2400 0 L0 0  Z" fill="#ffffff" fill-rule="evenodd" fill-opacity="1"/>
<defs>
  <clipPath id="clip141">
    <rect x="480" y="0" width="1681" height="1600"/>
  </clipPath>
</defs>
<path clip-path="url(#clip140)" d="M230.765 1486.45 L2352.76 1486.45 L2352.76 106.192 L230.765 106.192  Z" fill="#ffffff" fill-rule="evenodd" fill-opacity="1"/>
<defs>
  <clipPath id="clip142">
    <rect x="230" y="106" width="2123" height="1381"/>
  </clipPath>
</defs>
<polyline clip-path="url(#clip142)" style="stroke:#000000; stroke-linecap:round; stroke-linejoin:round; stroke-width:2; stroke-opacity:0.1; fill:none" points="541.056,1486.45 541.056,106.192 "/>
<polyline clip-path="url(#clip142)" style="stroke:#000000; stroke-linecap:round; stroke-linejoin:round; stroke-width:2; stroke-opacity:0.1; fill:none" points="916.408,1486.45 916.408,106.192 "/>
<polyline clip-path="url(#clip142)" style="stroke:#000000; stroke-linecap:round; stroke-linejoin:round; stroke-width:2; stroke-opacity:0.1; fill:none" points="1291.76,1486.45 1291.76,106.192 "/>
<polyline clip-path="url(#clip142)" style="stroke:#000000; stroke-linecap:round; stroke-linejoin:round; stroke-width:2; stroke-opacity:0.1; fill:none" points="1667.11,1486.45 1667.11,106.192 "/>
<polyline clip-path="url(#clip142)" style="stroke:#000000; stroke-linecap:round; stroke-linejoin:round; stroke-width:2; stroke-opacity:0.1; fill:none" points="2042.46,1486.45 2042.46,106.192 "/>
<polyline clip-path="url(#clip142)" style="stroke:#000000; stroke-linecap:round; stroke-linejoin:round; stroke-width:2; stroke-opacity:0.1; fill:none" points="230.765,1462.69 2352.76,1462.69 "/>
<polyline clip-path="url(#clip142)" style="stroke:#000000; stroke-linecap:round; stroke-linejoin:round; stroke-width:2; stroke-opacity:0.1; fill:none" points="230.765,1254.92 2352.76,1254.92 "/>
<polyline clip-path="url(#clip142)" style="stroke:#000000; stroke-linecap:round; stroke-linejoin:round; stroke-width:2; stroke-opacity:0.1; fill:none" points="230.765,1047.15 2352.76,1047.15 "/>
<polyline clip-path="url(#clip142)" style="stroke:#000000; stroke-linecap:round; stroke-linejoin:round; stroke-width:2; stroke-opacity:0.1; fill:none" points="230.765,839.377 2352.76,839.377 "/>
<polyline clip-path="url(#clip142)" style="stroke:#000000; stroke-linecap:round; stroke-linejoin:round; stroke-width:2; stroke-opacity:0.1; fill:none" points="230.765,631.606 2352.76,631.606 "/>
<polyline clip-path="url(#clip142)" style="stroke:#000000; stroke-linecap:round; stroke-linejoin:round; stroke-width:2; stroke-opacity:0.1; fill:none" points="230.765,423.835 2352.76,423.835 "/>
<polyline clip-path="url(#clip142)" style="stroke:#000000; stroke-linecap:round; stroke-linejoin:round; stroke-width:2; stroke-opacity:0.1; fill:none" points="230.765,216.064 2352.76,216.064 "/>
<polyline clip-path="url(#clip140)" style="stroke:#000000; stroke-linecap:round; stroke-linejoin:round; stroke-width:4; stroke-opacity:1; fill:none" points="230.765,1486.45 2352.76,1486.45 "/>
<polyline clip-path="url(#clip140)" style="stroke:#000000; stroke-linecap:round; stroke-linejoin:round; stroke-width:4; stroke-opacity:1; fill:none" points="541.056,1486.45 541.056,1467.55 "/>
<polyline clip-path="url(#clip140)" style="stroke:#000000; stroke-linecap:round; stroke-linejoin:round; stroke-width:4; stroke-opacity:1; fill:none" points="916.408,1486.45 916.408,1467.55 "/>
<polyline clip-path="url(#clip140)" style="stroke:#000000; stroke-linecap:round; stroke-linejoin:round; stroke-width:4; stroke-opacity:1; fill:none" points="1291.76,1486.45 1291.76,1467.55 "/>
<polyline clip-path="url(#clip140)" style="stroke:#000000; stroke-linecap:round; stroke-linejoin:round; stroke-width:4; stroke-opacity:1; fill:none" points="1667.11,1486.45 1667.11,1467.55 "/>
<polyline clip-path="url(#clip140)" style="stroke:#000000; stroke-linecap:round; stroke-linejoin:round; stroke-width:4; stroke-opacity:1; fill:none" points="2042.46,1486.45 2042.46,1467.55 "/>
<path clip-path="url(#clip140)" d="M545.303 1530.21 Q548.66 1530.93 550.535 1533.2 Q552.433 1535.47 552.433 1538.8 Q552.433 1543.92 548.914 1546.72 Q545.396 1549.52 538.915 1549.52 Q536.739 1549.52 534.424 1549.08 Q532.132 1548.66 529.678 1547.81 L529.678 1543.29 Q531.623 1544.43 533.938 1545.01 Q536.252 1545.58 538.776 1545.58 Q543.174 1545.58 545.465 1543.85 Q547.78 1542.11 547.78 1538.8 Q547.78 1535.75 545.627 1534.03 Q543.498 1532.3 539.678 1532.3 L535.651 1532.3 L535.651 1528.45 L539.864 1528.45 Q543.313 1528.45 545.141 1527.09 Q546.97 1525.7 546.97 1523.11 Q546.97 1520.45 545.072 1519.03 Q543.197 1517.6 539.678 1517.6 Q537.757 1517.6 535.558 1518.01 Q533.359 1518.43 530.72 1519.31 L530.72 1515.14 Q533.382 1514.4 535.697 1514.03 Q538.035 1513.66 540.095 1513.66 Q545.419 1513.66 548.521 1516.09 Q551.623 1518.5 551.623 1522.62 Q551.623 1525.49 549.979 1527.48 Q548.336 1529.45 545.303 1530.21 Z" fill="#000000" fill-rule="nonzero" fill-opacity="1" /><path clip-path="url(#clip140)" d="M916.813 1529.7 Q913.665 1529.7 911.813 1531.86 Q909.984 1534.01 909.984 1537.76 Q909.984 1541.49 911.813 1543.66 Q913.665 1545.82 916.813 1545.82 Q919.961 1545.82 921.79 1543.66 Q923.642 1541.49 923.642 1537.76 Q923.642 1534.01 921.79 1531.86 Q919.961 1529.7 916.813 1529.7 M926.095 1515.05 L926.095 1519.31 Q924.336 1518.48 922.531 1518.04 Q920.748 1517.6 918.989 1517.6 Q914.359 1517.6 911.906 1520.72 Q909.475 1523.85 909.128 1530.17 Q910.494 1528.15 912.554 1527.09 Q914.614 1526 917.091 1526 Q922.299 1526 925.308 1529.17 Q928.341 1532.32 928.341 1537.76 Q928.341 1543.08 925.193 1546.3 Q922.044 1549.52 916.813 1549.52 Q910.818 1549.52 907.646 1544.94 Q904.475 1540.33 904.475 1531.6 Q904.475 1523.41 908.364 1518.55 Q912.253 1513.66 918.804 1513.66 Q920.563 1513.66 922.345 1514.01 Q924.151 1514.36 926.095 1515.05 Z" fill="#000000" fill-rule="nonzero" fill-opacity="1" /><path clip-path="url(#clip140)" d="M1282.06 1548.13 L1282.06 1543.87 Q1283.82 1544.7 1285.63 1545.14 Q1287.43 1545.58 1289.17 1545.58 Q1293.8 1545.58 1296.23 1542.48 Q1298.68 1539.36 1299.03 1533.01 Q1297.69 1535.01 1295.63 1536.07 Q1293.57 1537.13 1291.07 1537.13 Q1285.88 1537.13 1282.85 1534.01 Q1279.84 1530.86 1279.84 1525.42 Q1279.84 1520.1 1282.99 1516.88 Q1286.14 1513.66 1291.37 1513.66 Q1297.36 1513.66 1300.51 1518.27 Q1303.68 1522.85 1303.68 1531.6 Q1303.68 1539.77 1299.79 1544.66 Q1295.93 1549.52 1289.38 1549.52 Q1287.62 1549.52 1285.81 1549.17 Q1284.01 1548.82 1282.06 1548.13 M1291.37 1533.48 Q1294.51 1533.48 1296.34 1531.32 Q1298.2 1529.17 1298.2 1525.42 Q1298.2 1521.7 1296.34 1519.54 Q1294.51 1517.37 1291.37 1517.37 Q1288.22 1517.37 1286.37 1519.54 Q1284.54 1521.7 1284.54 1525.42 Q1284.54 1529.17 1286.37 1531.32 Q1288.22 1533.48 1291.37 1533.48 Z" fill="#000000" fill-rule="nonzero" fill-opacity="1" /><path clip-path="url(#clip140)" d="M1642.6 1544.91 L1650.24 1544.91 L1650.24 1518.55 L1641.93 1520.21 L1641.93 1515.95 L1650.19 1514.29 L1654.87 1514.29 L1654.87 1544.91 L1662.51 1544.91 L1662.51 1548.85 L1642.6 1548.85 L1642.6 1544.91 Z" fill="#000000" fill-rule="nonzero" fill-opacity="1" /><path clip-path="url(#clip140)" d="M1675.98 1544.91 L1692.3 1544.91 L1692.3 1548.85 L1670.35 1548.85 L1670.35 1544.91 Q1673.02 1542.16 1677.6 1537.53 Q1682.2 1532.88 1683.39 1531.53 Q1685.63 1529.01 1686.51 1527.27 Q1687.41 1525.51 1687.41 1523.82 Q1687.41 1521.07 1685.47 1519.33 Q1683.55 1517.6 1680.45 1517.6 Q1678.25 1517.6 1675.79 1518.36 Q1673.36 1519.13 1670.58 1520.68 L1670.58 1515.95 Q1673.41 1514.82 1675.86 1514.24 Q1678.32 1513.66 1680.35 1513.66 Q1685.72 1513.66 1688.92 1516.35 Q1692.11 1519.03 1692.11 1523.52 Q1692.11 1525.65 1691.3 1527.57 Q1690.52 1529.47 1688.41 1532.07 Q1687.83 1532.74 1684.73 1535.95 Q1681.63 1539.15 1675.98 1544.91 Z" fill="#000000" fill-rule="nonzero" fill-opacity="1" /><path clip-path="url(#clip140)" d="M2017.65 1544.91 L2025.29 1544.91 L2025.29 1518.55 L2016.98 1520.21 L2016.98 1515.95 L2025.24 1514.29 L2029.92 1514.29 L2029.92 1544.91 L2037.56 1544.91 L2037.56 1548.85 L2017.65 1548.85 L2017.65 1544.91 Z" fill="#000000" fill-rule="nonzero" fill-opacity="1" /><path clip-path="url(#clip140)" d="M2047.05 1514.29 L2065.4 1514.29 L2065.4 1518.22 L2051.33 1518.22 L2051.33 1526.7 Q2052.35 1526.35 2053.37 1526.19 Q2054.39 1526 2055.4 1526 Q2061.19 1526 2064.57 1529.17 Q2067.95 1532.34 2067.95 1537.76 Q2067.95 1543.34 2064.48 1546.44 Q2061.01 1549.52 2054.69 1549.52 Q2052.51 1549.52 2050.24 1549.15 Q2048 1548.78 2045.59 1548.04 L2045.59 1543.34 Q2047.67 1544.47 2049.9 1545.03 Q2052.12 1545.58 2054.59 1545.58 Q2058.6 1545.58 2060.94 1543.48 Q2063.27 1541.37 2063.27 1537.76 Q2063.27 1534.15 2060.94 1532.04 Q2058.6 1529.94 2054.59 1529.94 Q2052.72 1529.94 2050.84 1530.35 Q2048.99 1530.77 2047.05 1531.65 L2047.05 1514.29 Z" fill="#000000" fill-rule="nonzero" fill-opacity="1" /><polyline clip-path="url(#clip140)" style="stroke:#000000; stroke-linecap:round; stroke-linejoin:round; stroke-width:4; stroke-opacity:1; fill:none" points="230.765,1486.45 230.765,106.192 "/>
<polyline clip-path="url(#clip140)" style="stroke:#000000; stroke-linecap:round; stroke-linejoin:round; stroke-width:4; stroke-opacity:1; fill:none" points="230.765,1462.69 249.662,1462.69 "/>
<polyline clip-path="url(#clip140)" style="stroke:#000000; stroke-linecap:round; stroke-linejoin:round; stroke-width:4; stroke-opacity:1; fill:none" points="230.765,1254.92 249.662,1254.92 "/>
<polyline clip-path="url(#clip140)" style="stroke:#000000; stroke-linecap:round; stroke-linejoin:round; stroke-width:4; stroke-opacity:1; fill:none" points="230.765,1047.15 249.662,1047.15 "/>
<polyline clip-path="url(#clip140)" style="stroke:#000000; stroke-linecap:round; stroke-linejoin:round; stroke-width:4; stroke-opacity:1; fill:none" points="230.765,839.377 249.662,839.377 "/>
<polyline clip-path="url(#clip140)" style="stroke:#000000; stroke-linecap:round; stroke-linejoin:round; stroke-width:4; stroke-opacity:1; fill:none" points="230.765,631.606 249.662,631.606 "/>
<polyline clip-path="url(#clip140)" style="stroke:#000000; stroke-linecap:round; stroke-linejoin:round; stroke-width:4; stroke-opacity:1; fill:none" points="230.765,423.835 249.662,423.835 "/>
<polyline clip-path="url(#clip140)" style="stroke:#000000; stroke-linecap:round; stroke-linejoin:round; stroke-width:4; stroke-opacity:1; fill:none" points="230.765,216.064 249.662,216.064 "/>
<path clip-path="url(#clip140)" d="M50.9921 1445.41 L73.2142 1445.41 L73.2142 1447.4 L60.668 1479.97 L55.7838 1479.97 L67.5893 1449.35 L50.9921 1449.35 L50.9921 1445.41 Z" fill="#000000" fill-rule="nonzero" fill-opacity="1" /><path clip-path="url(#clip140)" d="M86.3623 1476.03 L102.682 1476.03 L102.682 1479.97 L80.7373 1479.97 L80.7373 1476.03 Q83.3994 1473.28 87.9827 1468.65 Q92.5891 1464 93.7697 1462.66 Q96.015 1460.13 96.8947 1458.4 Q97.7974 1456.64 97.7974 1454.95 Q97.7974 1452.19 95.853 1450.46 Q93.9317 1448.72 90.8299 1448.72 Q88.6308 1448.72 86.1771 1449.48 Q83.7466 1450.25 80.9688 1451.8 L80.9688 1447.08 Q83.7929 1445.94 86.2466 1445.36 Q88.7003 1444.79 90.7373 1444.79 Q96.1076 1444.79 99.3021 1447.47 Q102.496 1450.16 102.496 1454.65 Q102.496 1456.78 101.686 1458.7 Q100.899 1460.6 98.7928 1463.19 Q98.2141 1463.86 95.1123 1467.08 Q92.0104 1470.27 86.3623 1476.03 Z" fill="#000000" fill-rule="nonzero" fill-opacity="1" /><path clip-path="url(#clip140)" d="M122.496 1448.49 Q118.885 1448.49 117.057 1452.05 Q115.251 1455.6 115.251 1462.72 Q115.251 1469.83 117.057 1473.4 Q118.885 1476.94 122.496 1476.94 Q126.131 1476.94 127.936 1473.4 Q129.765 1469.83 129.765 1462.72 Q129.765 1455.6 127.936 1452.05 Q126.131 1448.49 122.496 1448.49 M122.496 1444.79 Q128.307 1444.79 131.362 1449.39 Q134.441 1453.97 134.441 1462.72 Q134.441 1471.45 131.362 1476.06 Q128.307 1480.64 122.496 1480.64 Q116.686 1480.64 113.608 1476.06 Q110.552 1471.45 110.552 1462.72 Q110.552 1453.97 113.608 1449.39 Q116.686 1444.79 122.496 1444.79 Z" fill="#000000" fill-rule="nonzero" fill-opacity="1" /><path clip-path="url(#clip140)" d="M152.658 1448.49 Q149.047 1448.49 147.218 1452.05 Q145.413 1455.6 145.413 1462.72 Q145.413 1469.83 147.218 1473.4 Q149.047 1476.94 152.658 1476.94 Q156.292 1476.94 158.098 1473.4 Q159.927 1469.83 159.927 1462.72 Q159.927 1455.6 158.098 1452.05 Q156.292 1448.49 152.658 1448.49 M152.658 1444.79 Q158.468 1444.79 161.524 1449.39 Q164.603 1453.97 164.603 1462.72 Q164.603 1471.45 161.524 1476.06 Q158.468 1480.64 152.658 1480.64 Q146.848 1480.64 143.769 1476.06 Q140.714 1471.45 140.714 1462.72 Q140.714 1453.97 143.769 1449.39 Q146.848 1444.79 152.658 1444.79 Z" fill="#000000" fill-rule="nonzero" fill-opacity="1" /><path clip-path="url(#clip140)" d="M182.82 1448.49 Q179.209 1448.49 177.38 1452.05 Q175.575 1455.6 175.575 1462.72 Q175.575 1469.83 177.38 1473.4 Q179.209 1476.94 182.82 1476.94 Q186.454 1476.94 188.26 1473.4 Q190.089 1469.83 190.089 1462.72 Q190.089 1455.6 188.26 1452.05 Q186.454 1448.49 182.82 1448.49 M182.82 1444.79 Q188.63 1444.79 191.686 1449.39 Q194.765 1453.97 194.765 1462.72 Q194.765 1471.45 191.686 1476.06 Q188.63 1480.64 182.82 1480.64 Q177.01 1480.64 173.931 1476.06 Q170.876 1471.45 170.876 1462.72 Q170.876 1453.97 173.931 1449.39 Q177.01 1444.79 182.82 1444.79 Z" fill="#000000" fill-rule="nonzero" fill-opacity="1" /><path clip-path="url(#clip140)" d="M50.9921 1237.64 L73.2142 1237.64 L73.2142 1239.63 L60.668 1272.2 L55.7838 1272.2 L67.5893 1241.57 L50.9921 1241.57 L50.9921 1237.64 Z" fill="#000000" fill-rule="nonzero" fill-opacity="1" /><path clip-path="url(#clip140)" d="M96.5011 1253.56 Q99.8576 1254.28 101.733 1256.55 Q103.631 1258.82 103.631 1262.15 Q103.631 1267.27 100.112 1270.07 Q96.5937 1272.87 90.1123 1272.87 Q87.9364 1272.87 85.6216 1272.43 Q83.3299 1272.01 80.8762 1271.16 L80.8762 1266.64 Q82.8207 1267.78 85.1355 1268.36 Q87.4503 1268.94 89.9734 1268.94 Q94.3715 1268.94 96.6632 1267.2 Q98.978 1265.46 98.978 1262.15 Q98.978 1259.1 96.8252 1257.38 Q94.6956 1255.65 90.8762 1255.65 L86.8484 1255.65 L86.8484 1251.81 L91.0614 1251.81 Q94.5104 1251.81 96.3391 1250.44 Q98.1678 1249.05 98.1678 1246.46 Q98.1678 1243.8 96.2697 1242.38 Q94.3947 1240.95 90.8762 1240.95 Q88.9549 1240.95 86.7558 1241.37 Q84.5568 1241.78 81.9179 1242.66 L81.9179 1238.5 Q84.5799 1237.75 86.8947 1237.38 Q89.2327 1237.01 91.2928 1237.01 Q96.6169 1237.01 99.7187 1239.44 Q102.821 1241.85 102.821 1245.97 Q102.821 1248.84 101.177 1250.83 Q99.5335 1252.8 96.5011 1253.56 Z" fill="#000000" fill-rule="nonzero" fill-opacity="1" /><path clip-path="url(#clip140)" d="M122.496 1240.72 Q118.885 1240.72 117.057 1244.28 Q115.251 1247.82 115.251 1254.95 Q115.251 1262.06 117.057 1265.62 Q118.885 1269.17 122.496 1269.17 Q126.131 1269.17 127.936 1265.62 Q129.765 1262.06 129.765 1254.95 Q129.765 1247.82 127.936 1244.28 Q126.131 1240.72 122.496 1240.72 M122.496 1237.01 Q128.307 1237.01 131.362 1241.62 Q134.441 1246.2 134.441 1254.95 Q134.441 1263.68 131.362 1268.29 Q128.307 1272.87 122.496 1272.87 Q116.686 1272.87 113.608 1268.29 Q110.552 1263.68 110.552 1254.95 Q110.552 1246.2 113.608 1241.62 Q116.686 1237.01 122.496 1237.01 Z" fill="#000000" fill-rule="nonzero" fill-opacity="1" /><path clip-path="url(#clip140)" d="M152.658 1240.72 Q149.047 1240.72 147.218 1244.28 Q145.413 1247.82 145.413 1254.95 Q145.413 1262.06 147.218 1265.62 Q149.047 1269.17 152.658 1269.17 Q156.292 1269.17 158.098 1265.62 Q159.927 1262.06 159.927 1254.95 Q159.927 1247.82 158.098 1244.28 Q156.292 1240.72 152.658 1240.72 M152.658 1237.01 Q158.468 1237.01 161.524 1241.62 Q164.603 1246.2 164.603 1254.95 Q164.603 1263.68 161.524 1268.29 Q158.468 1272.87 152.658 1272.87 Q146.848 1272.87 143.769 1268.29 Q140.714 1263.68 140.714 1254.95 Q140.714 1246.2 143.769 1241.62 Q146.848 1237.01 152.658 1237.01 Z" fill="#000000" fill-rule="nonzero" fill-opacity="1" /><path clip-path="url(#clip140)" d="M182.82 1240.72 Q179.209 1240.72 177.38 1244.28 Q175.575 1247.82 175.575 1254.95 Q175.575 1262.06 177.38 1265.62 Q179.209 1269.17 182.82 1269.17 Q186.454 1269.17 188.26 1265.62 Q190.089 1262.06 190.089 1254.95 Q190.089 1247.82 188.26 1244.28 Q186.454 1240.72 182.82 1240.72 M182.82 1237.01 Q188.63 1237.01 191.686 1241.62 Q194.765 1246.2 194.765 1254.95 Q194.765 1263.68 191.686 1268.29 Q188.63 1272.87 182.82 1272.87 Q177.01 1272.87 173.931 1268.29 Q170.876 1263.68 170.876 1254.95 Q170.876 1246.2 173.931 1241.62 Q177.01 1237.01 182.82 1237.01 Z" fill="#000000" fill-rule="nonzero" fill-opacity="1" /><path clip-path="url(#clip140)" d="M50.9921 1029.87 L73.2142 1029.87 L73.2142 1031.86 L60.668 1064.43 L55.7838 1064.43 L67.5893 1033.8 L50.9921 1033.8 L50.9921 1029.87 Z" fill="#000000" fill-rule="nonzero" fill-opacity="1" /><path clip-path="url(#clip140)" d="M95.1817 1033.94 L83.3762 1052.39 L95.1817 1052.39 L95.1817 1033.94 M93.9549 1029.87 L99.8345 1029.87 L99.8345 1052.39 L104.765 1052.39 L104.765 1056.28 L99.8345 1056.28 L99.8345 1064.43 L95.1817 1064.43 L95.1817 1056.28 L79.5799 1056.28 L79.5799 1051.77 L93.9549 1029.87 Z" fill="#000000" fill-rule="nonzero" fill-opacity="1" /><path clip-path="url(#clip140)" d="M122.496 1032.95 Q118.885 1032.95 117.057 1036.51 Q115.251 1040.05 115.251 1047.18 Q115.251 1054.29 117.057 1057.85 Q118.885 1061.4 122.496 1061.4 Q126.131 1061.4 127.936 1057.85 Q129.765 1054.29 129.765 1047.18 Q129.765 1040.05 127.936 1036.51 Q126.131 1032.95 122.496 1032.95 M122.496 1029.24 Q128.307 1029.24 131.362 1033.85 Q134.441 1038.43 134.441 1047.18 Q134.441 1055.91 131.362 1060.52 Q128.307 1065.1 122.496 1065.1 Q116.686 1065.1 113.608 1060.52 Q110.552 1055.91 110.552 1047.18 Q110.552 1038.43 113.608 1033.85 Q116.686 1029.24 122.496 1029.24 Z" fill="#000000" fill-rule="nonzero" fill-opacity="1" /><path clip-path="url(#clip140)" d="M152.658 1032.95 Q149.047 1032.95 147.218 1036.51 Q145.413 1040.05 145.413 1047.18 Q145.413 1054.29 147.218 1057.85 Q149.047 1061.4 152.658 1061.4 Q156.292 1061.4 158.098 1057.85 Q159.927 1054.29 159.927 1047.18 Q159.927 1040.05 158.098 1036.51 Q156.292 1032.95 152.658 1032.95 M152.658 1029.24 Q158.468 1029.24 161.524 1033.85 Q164.603 1038.43 164.603 1047.18 Q164.603 1055.91 161.524 1060.52 Q158.468 1065.1 152.658 1065.1 Q146.848 1065.1 143.769 1060.52 Q140.714 1055.91 140.714 1047.18 Q140.714 1038.43 143.769 1033.85 Q146.848 1029.24 152.658 1029.24 Z" fill="#000000" fill-rule="nonzero" fill-opacity="1" /><path clip-path="url(#clip140)" d="M182.82 1032.95 Q179.209 1032.95 177.38 1036.51 Q175.575 1040.05 175.575 1047.18 Q175.575 1054.29 177.38 1057.85 Q179.209 1061.4 182.82 1061.4 Q186.454 1061.4 188.26 1057.85 Q190.089 1054.29 190.089 1047.18 Q190.089 1040.05 188.26 1036.51 Q186.454 1032.95 182.82 1032.95 M182.82 1029.24 Q188.63 1029.24 191.686 1033.85 Q194.765 1038.43 194.765 1047.18 Q194.765 1055.91 191.686 1060.52 Q188.63 1065.1 182.82 1065.1 Q177.01 1065.1 173.931 1060.52 Q170.876 1055.91 170.876 1047.18 Q170.876 1038.43 173.931 1033.85 Q177.01 1029.24 182.82 1029.24 Z" fill="#000000" fill-rule="nonzero" fill-opacity="1" /><path clip-path="url(#clip140)" d="M50.9921 822.097 L73.2142 822.097 L73.2142 824.088 L60.668 856.657 L55.7838 856.657 L67.5893 826.032 L50.9921 826.032 L50.9921 822.097 Z" fill="#000000" fill-rule="nonzero" fill-opacity="1" /><path clip-path="url(#clip140)" d="M82.3808 822.097 L100.737 822.097 L100.737 826.032 L86.6632 826.032 L86.6632 834.504 Q87.6817 834.157 88.7003 833.995 Q89.7188 833.81 90.7373 833.81 Q96.5243 833.81 99.9039 836.981 Q103.284 840.152 103.284 845.569 Q103.284 851.148 99.8113 854.249 Q96.3391 857.328 90.0197 857.328 Q87.8438 857.328 85.5753 856.958 Q83.3299 856.587 80.9225 855.847 L80.9225 851.148 Q83.0058 852.282 85.2281 852.837 Q87.4503 853.393 89.9271 853.393 Q93.9317 853.393 96.2697 851.286 Q98.6076 849.18 98.6076 845.569 Q98.6076 841.958 96.2697 839.851 Q93.9317 837.745 89.9271 837.745 Q88.0521 837.745 86.1771 838.162 Q84.3253 838.578 82.3808 839.458 L82.3808 822.097 Z" fill="#000000" fill-rule="nonzero" fill-opacity="1" /><path clip-path="url(#clip140)" d="M122.496 825.175 Q118.885 825.175 117.057 828.74 Q115.251 832.282 115.251 839.412 Q115.251 846.518 117.057 850.083 Q118.885 853.624 122.496 853.624 Q126.131 853.624 127.936 850.083 Q129.765 846.518 129.765 839.412 Q129.765 832.282 127.936 828.74 Q126.131 825.175 122.496 825.175 M122.496 821.472 Q128.307 821.472 131.362 826.078 Q134.441 830.662 134.441 839.412 Q134.441 848.138 131.362 852.745 Q128.307 857.328 122.496 857.328 Q116.686 857.328 113.608 852.745 Q110.552 848.138 110.552 839.412 Q110.552 830.662 113.608 826.078 Q116.686 821.472 122.496 821.472 Z" fill="#000000" fill-rule="nonzero" fill-opacity="1" /><path clip-path="url(#clip140)" d="M152.658 825.175 Q149.047 825.175 147.218 828.74 Q145.413 832.282 145.413 839.412 Q145.413 846.518 147.218 850.083 Q149.047 853.624 152.658 853.624 Q156.292 853.624 158.098 850.083 Q159.927 846.518 159.927 839.412 Q159.927 832.282 158.098 828.74 Q156.292 825.175 152.658 825.175 M152.658 821.472 Q158.468 821.472 161.524 826.078 Q164.603 830.662 164.603 839.412 Q164.603 848.138 161.524 852.745 Q158.468 857.328 152.658 857.328 Q146.848 857.328 143.769 852.745 Q140.714 848.138 140.714 839.412 Q140.714 830.662 143.769 826.078 Q146.848 821.472 152.658 821.472 Z" fill="#000000" fill-rule="nonzero" fill-opacity="1" /><path clip-path="url(#clip140)" d="M182.82 825.175 Q179.209 825.175 177.38 828.74 Q175.575 832.282 175.575 839.412 Q175.575 846.518 177.38 850.083 Q179.209 853.624 182.82 853.624 Q186.454 853.624 188.26 850.083 Q190.089 846.518 190.089 839.412 Q190.089 832.282 188.26 828.74 Q186.454 825.175 182.82 825.175 M182.82 821.472 Q188.63 821.472 191.686 826.078 Q194.765 830.662 194.765 839.412 Q194.765 848.138 191.686 852.745 Q188.63 857.328 182.82 857.328 Q177.01 857.328 173.931 852.745 Q170.876 848.138 170.876 839.412 Q170.876 830.662 173.931 826.078 Q177.01 821.472 182.82 821.472 Z" fill="#000000" fill-rule="nonzero" fill-opacity="1" /><path clip-path="url(#clip140)" d="M50.9921 614.326 L73.2142 614.326 L73.2142 616.316 L60.668 648.886 L55.7838 648.886 L67.5893 618.261 L50.9921 618.261 L50.9921 614.326 Z" fill="#000000" fill-rule="nonzero" fill-opacity="1" /><path clip-path="url(#clip140)" d="M92.9132 629.742 Q89.7651 629.742 87.9132 631.895 Q86.0845 634.048 86.0845 637.798 Q86.0845 641.525 87.9132 643.701 Q89.7651 645.853 92.9132 645.853 Q96.0613 645.853 97.89 643.701 Q99.7419 641.525 99.7419 637.798 Q99.7419 634.048 97.89 631.895 Q96.0613 629.742 92.9132 629.742 M102.196 615.09 L102.196 619.349 Q100.436 618.515 98.6308 618.076 Q96.8484 617.636 95.0891 617.636 Q90.4595 617.636 88.0058 620.761 Q85.5753 623.886 85.2281 630.205 Q86.5938 628.191 88.654 627.127 Q90.7141 626.039 93.191 626.039 Q98.3993 626.039 101.409 629.21 Q104.441 632.358 104.441 637.798 Q104.441 643.122 101.293 646.339 Q98.1447 649.557 92.9132 649.557 Q86.9179 649.557 83.7466 644.974 Q80.5753 640.367 80.5753 631.64 Q80.5753 623.446 84.4642 618.585 Q88.353 613.701 94.9039 613.701 Q96.6632 613.701 98.4456 614.048 Q100.251 614.395 102.196 615.09 Z" fill="#000000" fill-rule="nonzero" fill-opacity="1" /><path clip-path="url(#clip140)" d="M122.496 617.404 Q118.885 617.404 117.057 620.969 Q115.251 624.511 115.251 631.64 Q115.251 638.747 117.057 642.312 Q118.885 645.853 122.496 645.853 Q126.131 645.853 127.936 642.312 Q129.765 638.747 129.765 631.64 Q129.765 624.511 127.936 620.969 Q126.131 617.404 122.496 617.404 M122.496 613.701 Q128.307 613.701 131.362 618.307 Q134.441 622.89 134.441 631.64 Q134.441 640.367 131.362 644.974 Q128.307 649.557 122.496 649.557 Q116.686 649.557 113.608 644.974 Q110.552 640.367 110.552 631.64 Q110.552 622.89 113.608 618.307 Q116.686 613.701 122.496 613.701 Z" fill="#000000" fill-rule="nonzero" fill-opacity="1" /><path clip-path="url(#clip140)" d="M152.658 617.404 Q149.047 617.404 147.218 620.969 Q145.413 624.511 145.413 631.64 Q145.413 638.747 147.218 642.312 Q149.047 645.853 152.658 645.853 Q156.292 645.853 158.098 642.312 Q159.927 638.747 159.927 631.64 Q159.927 624.511 158.098 620.969 Q156.292 617.404 152.658 617.404 M152.658 613.701 Q158.468 613.701 161.524 618.307 Q164.603 622.89 164.603 631.64 Q164.603 640.367 161.524 644.974 Q158.468 649.557 152.658 649.557 Q146.848 649.557 143.769 644.974 Q140.714 640.367 140.714 631.64 Q140.714 622.89 143.769 618.307 Q146.848 613.701 152.658 613.701 Z" fill="#000000" fill-rule="nonzero" fill-opacity="1" /><path clip-path="url(#clip140)" d="M182.82 617.404 Q179.209 617.404 177.38 620.969 Q175.575 624.511 175.575 631.64 Q175.575 638.747 177.38 642.312 Q179.209 645.853 182.82 645.853 Q186.454 645.853 188.26 642.312 Q190.089 638.747 190.089 631.64 Q190.089 624.511 188.26 620.969 Q186.454 617.404 182.82 617.404 M182.82 613.701 Q188.63 613.701 191.686 618.307 Q194.765 622.89 194.765 631.64 Q194.765 640.367 191.686 644.974 Q188.63 649.557 182.82 649.557 Q177.01 649.557 173.931 644.974 Q170.876 640.367 170.876 631.64 Q170.876 622.89 173.931 618.307 Q177.01 613.701 182.82 613.701 Z" fill="#000000" fill-rule="nonzero" fill-opacity="1" /><path clip-path="url(#clip140)" d="M50.9921 406.555 L73.2142 406.555 L73.2142 408.545 L60.668 441.115 L55.7838 441.115 L67.5893 410.49 L50.9921 410.49 L50.9921 406.555 Z" fill="#000000" fill-rule="nonzero" fill-opacity="1" /><path clip-path="url(#clip140)" d="M81.154 406.555 L103.376 406.555 L103.376 408.545 L90.8299 441.115 L85.9456 441.115 L97.7511 410.49 L81.154 410.49 L81.154 406.555 Z" fill="#000000" fill-rule="nonzero" fill-opacity="1" /><path clip-path="url(#clip140)" d="M122.496 409.633 Q118.885 409.633 117.057 413.198 Q115.251 416.74 115.251 423.869 Q115.251 430.976 117.057 434.541 Q118.885 438.082 122.496 438.082 Q126.131 438.082 127.936 434.541 Q129.765 430.976 129.765 423.869 Q129.765 416.74 127.936 413.198 Q126.131 409.633 122.496 409.633 M122.496 405.93 Q128.307 405.93 131.362 410.536 Q134.441 415.119 134.441 423.869 Q134.441 432.596 131.362 437.203 Q128.307 441.786 122.496 441.786 Q116.686 441.786 113.608 437.203 Q110.552 432.596 110.552 423.869 Q110.552 415.119 113.608 410.536 Q116.686 405.93 122.496 405.93 Z" fill="#000000" fill-rule="nonzero" fill-opacity="1" /><path clip-path="url(#clip140)" d="M152.658 409.633 Q149.047 409.633 147.218 413.198 Q145.413 416.74 145.413 423.869 Q145.413 430.976 147.218 434.541 Q149.047 438.082 152.658 438.082 Q156.292 438.082 158.098 434.541 Q159.927 430.976 159.927 423.869 Q159.927 416.74 158.098 413.198 Q156.292 409.633 152.658 409.633 M152.658 405.93 Q158.468 405.93 161.524 410.536 Q164.603 415.119 164.603 423.869 Q164.603 432.596 161.524 437.203 Q158.468 441.786 152.658 441.786 Q146.848 441.786 143.769 437.203 Q140.714 432.596 140.714 423.869 Q140.714 415.119 143.769 410.536 Q146.848 405.93 152.658 405.93 Z" fill="#000000" fill-rule="nonzero" fill-opacity="1" /><path clip-path="url(#clip140)" d="M182.82 409.633 Q179.209 409.633 177.38 413.198 Q175.575 416.74 175.575 423.869 Q175.575 430.976 177.38 434.541 Q179.209 438.082 182.82 438.082 Q186.454 438.082 188.26 434.541 Q190.089 430.976 190.089 423.869 Q190.089 416.74 188.26 413.198 Q186.454 409.633 182.82 409.633 M182.82 405.93 Q188.63 405.93 191.686 410.536 Q194.765 415.119 194.765 423.869 Q194.765 432.596 191.686 437.203 Q188.63 441.786 182.82 441.786 Q177.01 441.786 173.931 437.203 Q170.876 432.596 170.876 423.869 Q170.876 415.119 173.931 410.536 Q177.01 405.93 182.82 405.93 Z" fill="#000000" fill-rule="nonzero" fill-opacity="1" /><path clip-path="url(#clip140)" d="M50.9921 198.784 L73.2142 198.784 L73.2142 200.774 L60.668 233.344 L55.7838 233.344 L67.5893 202.719 L50.9921 202.719 L50.9921 198.784 Z" fill="#000000" fill-rule="nonzero" fill-opacity="1" /><path clip-path="url(#clip140)" d="M92.3345 216.932 Q89.0012 216.932 87.0799 218.714 Q85.1818 220.496 85.1818 223.621 Q85.1818 226.746 87.0799 228.529 Q89.0012 230.311 92.3345 230.311 Q95.6678 230.311 97.5891 228.529 Q99.5104 226.723 99.5104 223.621 Q99.5104 220.496 97.5891 218.714 Q95.691 216.932 92.3345 216.932 M87.6586 214.941 Q84.6494 214.2 82.9595 212.14 Q81.2929 210.08 81.2929 207.117 Q81.2929 202.973 84.2327 200.566 Q87.1956 198.159 92.3345 198.159 Q97.4965 198.159 100.436 200.566 Q103.376 202.973 103.376 207.117 Q103.376 210.08 101.686 212.14 Q100.02 214.2 97.0335 214.941 Q100.413 215.728 102.288 218.02 Q104.186 220.311 104.186 223.621 Q104.186 228.644 101.108 231.33 Q98.0521 234.015 92.3345 234.015 Q86.6169 234.015 83.5382 231.33 Q80.4827 228.644 80.4827 223.621 Q80.4827 220.311 82.3808 218.02 Q84.279 215.728 87.6586 214.941 M85.9456 207.557 Q85.9456 210.242 87.6123 211.746 Q89.3021 213.251 92.3345 213.251 Q95.3437 213.251 97.0335 211.746 Q98.7465 210.242 98.7465 207.557 Q98.7465 204.871 97.0335 203.367 Q95.3437 201.862 92.3345 201.862 Q89.3021 201.862 87.6123 203.367 Q85.9456 204.871 85.9456 207.557 Z" fill="#000000" fill-rule="nonzero" fill-opacity="1" /><path clip-path="url(#clip140)" d="M122.496 201.862 Q118.885 201.862 117.057 205.427 Q115.251 208.969 115.251 216.098 Q115.251 223.205 117.057 226.769 Q118.885 230.311 122.496 230.311 Q126.131 230.311 127.936 226.769 Q129.765 223.205 129.765 216.098 Q129.765 208.969 127.936 205.427 Q126.131 201.862 122.496 201.862 M122.496 198.159 Q128.307 198.159 131.362 202.765 Q134.441 207.348 134.441 216.098 Q134.441 224.825 131.362 229.432 Q128.307 234.015 122.496 234.015 Q116.686 234.015 113.608 229.432 Q110.552 224.825 110.552 216.098 Q110.552 207.348 113.608 202.765 Q116.686 198.159 122.496 198.159 Z" fill="#000000" fill-rule="nonzero" fill-opacity="1" /><path clip-path="url(#clip140)" d="M152.658 201.862 Q149.047 201.862 147.218 205.427 Q145.413 208.969 145.413 216.098 Q145.413 223.205 147.218 226.769 Q149.047 230.311 152.658 230.311 Q156.292 230.311 158.098 226.769 Q159.927 223.205 159.927 216.098 Q159.927 208.969 158.098 205.427 Q156.292 201.862 152.658 201.862 M152.658 198.159 Q158.468 198.159 161.524 202.765 Q164.603 207.348 164.603 216.098 Q164.603 224.825 161.524 229.432 Q158.468 234.015 152.658 234.015 Q146.848 234.015 143.769 229.432 Q140.714 224.825 140.714 216.098 Q140.714 207.348 143.769 202.765 Q146.848 198.159 152.658 198.159 Z" fill="#000000" fill-rule="nonzero" fill-opacity="1" /><path clip-path="url(#clip140)" d="M182.82 201.862 Q179.209 201.862 177.38 205.427 Q175.575 208.969 175.575 216.098 Q175.575 223.205 177.38 226.769 Q179.209 230.311 182.82 230.311 Q186.454 230.311 188.26 226.769 Q190.089 223.205 190.089 216.098 Q190.089 208.969 188.26 205.427 Q186.454 201.862 182.82 201.862 M182.82 198.159 Q188.63 198.159 191.686 202.765 Q194.765 207.348 194.765 216.098 Q194.765 224.825 191.686 229.432 Q188.63 234.015 182.82 234.015 Q177.01 234.015 173.931 229.432 Q170.876 224.825 170.876 216.098 Q170.876 207.348 173.931 202.765 Q177.01 198.159 182.82 198.159 Z" fill="#000000" fill-rule="nonzero" fill-opacity="1" /><path clip-path="url(#clip140)" d="M1262.23 35.2602 Q1262.23 29.4732 1259.83 26.2904 Q1257.46 23.1075 1253.15 23.1075 Q1248.86 23.1075 1246.46 26.2904 Q1244.09 29.4732 1244.09 35.2602 Q1244.09 41.0183 1246.46 44.2012 Q1248.86 47.384 1253.15 47.384 Q1257.46 47.384 1259.83 44.2012 Q1262.23 41.0183 1262.23 35.2602 M1267.56 47.818 Q1267.56 56.0934 1263.88 60.1154 Q1260.21 64.1663 1252.63 64.1663 Q1249.82 64.1663 1247.33 63.7323 Q1244.84 63.3272 1242.5 62.4592 L1242.5 57.2798 Q1244.84 58.5529 1247.13 59.1606 Q1249.41 59.7682 1251.79 59.7682 Q1257.02 59.7682 1259.63 57.0194 Q1262.23 54.2995 1262.23 48.7729 L1262.23 46.1398 Q1260.58 49.0044 1258.01 50.4222 Q1255.43 51.84 1251.84 51.84 Q1245.88 51.84 1242.24 47.2972 Q1238.59 42.7544 1238.59 35.2602 Q1238.59 27.7371 1242.24 23.1943 Q1245.88 18.6515 1251.84 18.6515 Q1255.43 18.6515 1258.01 20.0693 Q1260.58 21.4872 1262.23 24.3517 L1262.23 19.4328 L1267.56 19.4328 L1267.56 47.818 Z" fill="#000000" fill-rule="nonzero" fill-opacity="1" /><path clip-path="url(#clip140)" d="M1299.85 24.3517 L1299.85 6.81709 L1305.17 6.81709 L1305.17 51.84 L1299.85 51.84 L1299.85 46.9789 Q1298.17 49.8724 1295.59 51.2902 Q1293.05 52.6791 1289.46 52.6791 Q1283.59 52.6791 1279.88 47.9916 Q1276.21 43.3042 1276.21 35.6653 Q1276.21 28.0265 1279.88 23.339 Q1283.59 18.6515 1289.46 18.6515 Q1293.05 18.6515 1295.59 20.0693 Q1298.17 21.4582 1299.85 24.3517 M1281.71 35.6653 Q1281.71 41.5391 1284.11 44.8956 Q1286.54 48.2231 1290.76 48.2231 Q1294.99 48.2231 1297.42 44.8956 Q1299.85 41.5391 1299.85 35.6653 Q1299.85 29.7915 1297.42 26.464 Q1294.99 23.1075 1290.76 23.1075 Q1286.54 23.1075 1284.11 26.464 Q1281.71 29.7915 1281.71 35.6653 Z" fill="#000000" fill-rule="nonzero" fill-opacity="1" /><path clip-path="url(#clip140)" d="M1321.29 46.9789 L1321.29 64.1663 L1315.94 64.1663 L1315.94 19.4328 L1321.29 19.4328 L1321.29 24.3517 Q1322.97 21.4582 1325.51 20.0693 Q1328.09 18.6515 1331.65 18.6515 Q1337.55 18.6515 1341.22 23.339 Q1344.93 28.0265 1344.93 35.6653 Q1344.93 43.3042 1341.22 47.9916 Q1337.55 52.6791 1331.65 52.6791 Q1328.09 52.6791 1325.51 51.2902 Q1322.97 49.8724 1321.29 46.9789 M1339.4 35.6653 Q1339.4 29.7915 1336.97 26.464 Q1334.57 23.1075 1330.35 23.1075 Q1326.12 23.1075 1323.69 26.464 Q1321.29 29.7915 1321.29 35.6653 Q1321.29 41.5391 1323.69 44.8956 Q1326.12 48.2231 1330.35 48.2231 Q1334.57 48.2231 1336.97 44.8956 Q1339.4 41.5391 1339.4 35.6653 Z" fill="#000000" fill-rule="nonzero" fill-opacity="1" /><polyline clip-path="url(#clip142)" style="stroke:#009af9; stroke-linecap:round; stroke-linejoin:round; stroke-width:4; stroke-opacity:1; fill:none" points="290.821,1447.38 415.938,1319.66 541.056,1304.14 666.173,1267.3 791.291,1295.28 916.408,1216.04 1041.53,1260.72 1166.64,1154.95 1291.76,1192.99 1416.88,1023.53 1542,853.289 1667.11,789.079 1792.23,628.83 1917.35,571.185 2042.46,647.166 2167.58,356.176 2292.7,145.256 "/>
<path clip-path="url(#clip140)" d="M301.498 255.881 L566.127 255.881 L566.127 152.201 L301.498 152.201  Z" fill="#ffffff" fill-rule="evenodd" fill-opacity="1"/>
<polyline clip-path="url(#clip140)" style="stroke:#000000; stroke-linecap:round; stroke-linejoin:round; stroke-width:4; stroke-opacity:1; fill:none" points="301.498,255.881 566.127,255.881 566.127,152.201 301.498,152.201 301.498,255.881 "/>
<polyline clip-path="url(#clip140)" style="stroke:#009af9; stroke-linecap:round; stroke-linejoin:round; stroke-width:4; stroke-opacity:1; fill:none" points="325.075,204.041 466.541,204.041 "/>
<path clip-path="url(#clip140)" d="M503.962 223.728 Q502.156 228.358 500.443 229.77 Q498.73 231.182 495.86 231.182 L492.457 231.182 L492.457 227.617 L494.957 227.617 Q496.716 227.617 497.688 226.784 Q498.661 225.95 499.841 222.848 L500.605 220.904 L490.119 195.395 L494.633 195.395 L502.735 215.673 L510.836 195.395 L515.35 195.395 L503.962 223.728 Z" fill="#000000" fill-rule="nonzero" fill-opacity="1" /><path clip-path="url(#clip140)" d="M522.642 217.385 L530.281 217.385 L530.281 191.02 L521.971 192.687 L521.971 188.427 L530.235 186.761 L534.91 186.761 L534.91 217.385 L542.549 217.385 L542.549 221.321 L522.642 221.321 L522.642 217.385 Z" fill="#000000" fill-rule="nonzero" fill-opacity="1" /></svg>
