<?xml version="1.0" encoding="utf-8"?>
<svg xmlns="http://www.w3.org/2000/svg" xmlns:xlink="http://www.w3.org/1999/xlink" width="600" height="400" viewBox="0 0 2400 1600">
<defs>
  <clipPath id="clip790">
    <rect x="0" y="0" width="2400" height="1600"/>
  </clipPath>
</defs>
<path clip-path="url(#clip790)" d="M0 1600 L2400 1600 L2400 0 L0 0  Z" fill="#ffffff" fill-rule="evenodd" fill-opacity="1"/>
<defs>
  <clipPath id="clip791">
    <rect x="480" y="0" width="1681" height="1600"/>
  </clipPath>
</defs>
<path clip-path="url(#clip790)" d="M230.765 1486.45 L2352.76 1486.45 L2352.76 106.192 L230.765 106.192  Z" fill="#ffffff" fill-rule="evenodd" fill-opacity="1"/>
<defs>
  <clipPath id="clip792">
    <rect x="230" y="106" width="2123" height="1381"/>
  </clipPath>
</defs>
<polyline clip-path="url(#clip792)" style="stroke:#000000; stroke-linecap:round; stroke-linejoin:round; stroke-width:2; stroke-opacity:0.1; fill:none" points="541.056,1486.45 541.056,106.192 "/>
<polyline clip-path="url(#clip792)" style="stroke:#000000; stroke-linecap:round; stroke-linejoin:round; stroke-width:2; stroke-opacity:0.1; fill:none" points="916.408,1486.45 916.408,106.192 "/>
<polyline clip-path="url(#clip792)" style="stroke:#000000; stroke-linecap:round; stroke-linejoin:round; stroke-width:2; stroke-opacity:0.1; fill:none" points="1291.76,1486.45 1291.76,106.192 "/>
<polyline clip-path="url(#clip792)" style="stroke:#000000; stroke-linecap:round; stroke-linejoin:round; stroke-width:2; stroke-opacity:0.1; fill:none" points="1667.11,1486.45 1667.11,106.192 "/>
<polyline clip-path="url(#clip792)" style="stroke:#000000; stroke-linecap:round; stroke-linejoin:round; stroke-width:2; stroke-opacity:0.1; fill:none" points="2042.46,1486.45 2042.46,106.192 "/>
<polyline clip-path="url(#clip792)" style="stroke:#000000; stroke-linecap:round; stroke-linejoin:round; stroke-width:2; stroke-opacity:0.1; fill:none" points="230.765,1281.59 2352.76,1281.59 "/>
<polyline clip-path="url(#clip792)" style="stroke:#000000; stroke-linecap:round; stroke-linejoin:round; stroke-width:2; stroke-opacity:0.1; fill:none" points="230.765,994.758 2352.76,994.758 "/>
<polyline clip-path="url(#clip792)" style="stroke:#000000; stroke-linecap:round; stroke-linejoin:round; stroke-width:2; stroke-opacity:0.1; fill:none" points="230.765,707.922 2352.76,707.922 "/>
<polyline clip-path="url(#clip792)" style="stroke:#000000; stroke-linecap:round; stroke-linejoin:round; stroke-width:2; stroke-opacity:0.1; fill:none" points="230.765,421.087 2352.76,421.087 "/>
<polyline clip-path="url(#clip792)" style="stroke:#000000; stroke-linecap:round; stroke-linejoin:round; stroke-width:2; stroke-opacity:0.1; fill:none" points="230.765,134.252 2352.76,134.252 "/>
<polyline clip-path="url(#clip790)" style="stroke:#000000; stroke-linecap:round; stroke-linejoin:round; stroke-width:4; stroke-opacity:1; fill:none" points="230.765,1486.45 2352.76,1486.45 "/>
<polyline clip-path="url(#clip790)" style="stroke:#000000; stroke-linecap:round; stroke-linejoin:round; stroke-width:4; stroke-opacity:1; fill:none" points="541.056,1486.45 541.056,1467.55 "/>
<polyline clip-path="url(#clip790)" style="stroke:#000000; stroke-linecap:round; stroke-linejoin:round; stroke-width:4; stroke-opacity:1; fill:none" points="916.408,1486.45 916.408,1467.55 "/>
<polyline clip-path="url(#clip790)" style="stroke:#000000; stroke-linecap:round; stroke-linejoin:round; stroke-width:4; stroke-opacity:1; fill:none" points="1291.76,1486.45 1291.76,1467.55 "/>
<polyline clip-path="url(#clip790)" style="stroke:#000000; stroke-linecap:round; stroke-linejoin:round; stroke-width:4; stroke-opacity:1; fill:none" points="1667.11,1486.45 1667.11,1467.55 "/>
<polyline clip-path="url(#clip790)" style="stroke:#000000; stroke-linecap:round; stroke-linejoin:round; stroke-width:4; stroke-opacity:1; fill:none" points="2042.46,1486.45 2042.46,1467.55 "/>
<path clip-path="url(#clip790)" d="M545.303 1530.21 Q548.66 1530.93 550.535 1533.2 Q552.433 1535.47 552.433 1538.8 Q552.433 1543.92 548.914 1546.72 Q545.396 1549.52 538.915 1549.52 Q536.739 1549.52 534.424 1549.08 Q532.132 1548.66 529.678 1547.81 L529.678 1543.29 Q531.623 1544.43 533.938 1545.01 Q536.252 1545.58 538.776 1545.58 Q543.174 1545.58 545.465 1543.85 Q547.78 1542.11 547.78 1538.8 Q547.78 1535.75 545.627 1534.03 Q543.498 1532.3 539.678 1532.3 L535.651 1532.3 L535.651 1528.45 L539.864 1528.45 Q543.313 1528.45 545.141 1527.09 Q546.97 1525.7 546.97 1523.11 Q546.97 1520.45 545.072 1519.03 Q543.197 1517.6 539.678 1517.6 Q537.757 1517.6 535.558 1518.01 Q533.359 1518.43 530.72 1519.31 L530.72 1515.14 Q533.382 1514.4 535.697 1514.03 Q538.035 1513.66 540.095 1513.66 Q545.419 1513.66 548.521 1516.09 Q551.623 1518.5 551.623 1522.62 Q551.623 1525.49 549.979 1527.48 Q548.336 1529.45 545.303 1530.21 Z" fill="#000000" fill-rule="nonzero" fill-opacity="1" /><path clip-path="url(#clip790)" d="M916.813 1529.7 Q913.665 1529.7 911.813 1531.86 Q909.984 1534.01 909.984 1537.76 Q909.984 1541.49 911.813 1543.66 Q913.665 1545.82 916.813 1545.82 Q919.961 1545.82 921.79 1543.66 Q923.642 1541.49 923.642 1537.76 Q923.642 1534.01 921.79 1531.86 Q919.961 1529.7 916.813 1529.7 M926.095 1515.05 L926.095 1519.31 Q924.336 1518.48 922.531 1518.04 Q920.748 1517.6 918.989 1517.6 Q914.359 1517.6 911.906 1520.72 Q909.475 1523.85 909.128 1530.17 Q910.494 1528.15 912.554 1527.09 Q914.614 1526 917.091 1526 Q922.299 1526 925.308 1529.17 Q928.341 1532.32 928.341 1537.76 Q928.341 1543.08 925.193 1546.3 Q922.044 1549.52 916.813 1549.52 Q910.818 1549.52 907.646 1544.94 Q904.475 1540.33 904.475 1531.6 Q904.475 1523.41 908.364 1518.55 Q912.253 1513.66 918.804 1513.66 Q920.563 1513.66 922.345 1514.01 Q924.151 1514.36 926.095 1515.05 Z" fill="#000000" fill-rule="nonzero" fill-opacity="1" /><path clip-path="url(#clip790)" d="M1282.06 1548.13 L1282.06 1543.87 Q1283.82 1544.7 1285.63 1545.14 Q1287.43 1545.58 1289.17 1545.58 Q1293.8 1545.58 1296.23 1542.48 Q1298.68 1539.36 1299.03 1533.01 Q1297.69 1535.01 1295.63 1536.07 Q1293.57 1537.13 1291.07 1537.13 Q1285.88 1537.13 1282.85 1534.01 Q1279.84 1530.86 1279.84 1525.42 Q1279.84 1520.1 1282.99 1516.88 Q1286.14 1513.66 1291.37 1513.66 Q1297.36 1513.66 1300.51 1518.27 Q1303.68 1522.85 1303.68 1531.6 Q1303.68 1539.77 1299.79 1544.66 Q1295.93 1549.52 1289.38 1549.52 Q1287.62 1549.52 1285.81 1549.17 Q1284.01 1548.82 1282.06 1548.13 M1291.37 1533.48 Q1294.51 1533.48 1296.34 1531.32 Q1298.2 1529.17 1298.2 1525.42 Q1298.2 1521.7 1296.34 1519.54 Q1294.51 1517.37 1291.37 1517.37 Q1288.22 1517.37 1286.37 1519.54 Q1284.54 1521.7 1284.54 1525.42 Q1284.54 1529.17 1286.37 1531.32 Q1288.22 1533.48 1291.37 1533.48 Z" fill="#000000" fill-rule="nonzero" fill-opacity="1" /><path clip-path="url(#clip790)" d="M1642.6 1544.91 L1650.24 1544.91 L1650.24 1518.55 L1641.93 1520.21 L1641.93 1515.95 L1650.19 1514.29 L1654.87 1514.29 L1654.87 1544.91 L1662.51 1544.91 L1662.51 1548.85 L1642.6 1548.85 L1642.6 1544.91 Z" fill="#000000" fill-rule="nonzero" fill-opacity="1" /><path clip-path="url(#clip790)" d="M1675.98 1544.91 L1692.3 1544.91 L1692.3 1548.85 L1670.35 1548.85 L1670.35 1544.91 Q1673.02 1542.16 1677.6 1537.53 Q1682.2 1532.88 1683.39 1531.53 Q1685.63 1529.01 1686.51 1527.27 Q1687.41 1525.51 1687.41 1523.82 Q1687.41 1521.07 1685.47 1519.33 Q1683.55 1517.6 1680.45 1517.6 Q1678.25 1517.6 1675.79 1518.36 Q1673.36 1519.13 1670.58 1520.68 L1670.58 1515.95 Q1673.41 1514.82 1675.86 1514.24 Q1678.32 1513.66 1680.35 1513.66 Q1685.72 1513.66 1688.92 1516.35 Q1692.11 1519.03 1692.11 1523.52 Q1692.11 1525.65 1691.3 1527.57 Q1690.52 1529.47 1688.41 1532.07 Q1687.83 1532.74 1684.73 1535.95 Q1681.63 1539.15 1675.98 1544.91 Z" fill="#000000" fill-rule="nonzero" fill-opacity="1" /><path clip-path="url(#clip790)" d="M2017.65 1544.91 L2025.29 1544.91 L2025.29 1518.55 L2016.98 1520.21 L2016.98 1515.95 L2025.24 1514.29 L2029.92 1514.29 L2029.92 1544.91 L2037.56 1544.91 L2037.56 1548.85 L2017.65 1548.85 L2017.65 1544.91 Z" fill="#000000" fill-rule="nonzero" fill-opacity="1" /><path clip-path="url(#clip790)" d="M2047.05 1514.29 L2065.4 1514.29 L2065.4 1518.22 L2051.33 1518.22 L2051.33 1526.7 Q2052.35 1526.35 2053.37 1526.19 Q2054.39 1526 2055.4 1526 Q2061.19 1526 2064.57 1529.17 Q2067.95 1532.34 2067.95 1537.76 Q2067.95 1543.34 2064.48 1546.44 Q2061.01 1549.52 2054.69 1549.52 Q2052.51 1549.52 2050.24 1549.15 Q2048 1548.78 2045.59 1548.04 L2045.59 1543.34 Q2047.67 1544.47 2049.9 1545.03 Q2052.12 1545.58 2054.59 1545.58 Q2058.6 1545.58 2060.94 1543.48 Q2063.27 1541.37 2063.27 1537.76 Q2063.27 1534.15 2060.94 1532.04 Q2058.6 1529.94 2054.59 1529.94 Q2052.72 1529.94 2050.84 1530.35 Q2048.99 1530.77 2047.05 1531.65 L2047.05 1514.29 Z" fill="#000000" fill-rule="nonzero" fill-opacity="1" /><polyline clip-path="url(#clip790)" style="stroke:#000000; stroke-linecap:round; stroke-linejoin:round; stroke-width:4; stroke-opacity:1; fill:none" points="230.765,1486.45 230.765,106.192 "/>
<polyline clip-path="url(#clip790)" style="stroke:#000000; stroke-linecap:round; stroke-linejoin:round; stroke-width:4; stroke-opacity:1; fill:none" points="230.765,1281.59 249.662,1281.59 "/>
<polyline clip-path="url(#clip790)" style="stroke:#000000; stroke-linecap:round; stroke-linejoin:round; stroke-width:4; stroke-opacity:1; fill:none" points="230.765,994.758 249.662,994.758 "/>
<polyline clip-path="url(#clip790)" style="stroke:#000000; stroke-linecap:round; stroke-linejoin:round; stroke-width:4; stroke-opacity:1; fill:none" points="230.765,707.922 249.662,707.922 "/>
<polyline clip-path="url(#clip790)" style="stroke:#000000; stroke-linecap:round; stroke-linejoin:round; stroke-width:4; stroke-opacity:1; fill:none" points="230.765,421.087 249.662,421.087 "/>
<polyline clip-path="url(#clip790)" style="stroke:#000000; stroke-linecap:round; stroke-linejoin:round; stroke-width:4; stroke-opacity:1; fill:none" points="230.765,134.252 249.662,134.252 "/>
<path clip-path="url(#clip790)" d="M50.9921 1264.31 L73.2142 1264.31 L73.2142 1266.3 L60.668 1298.87 L55.7838 1298.87 L67.5893 1268.25 L50.9921 1268.25 L50.9921 1264.31 Z" fill="#000000" fill-rule="nonzero" fill-opacity="1" /><path clip-path="url(#clip790)" d="M96.5011 1280.24 Q99.8576 1280.96 101.733 1283.23 Q103.631 1285.49 103.631 1288.83 Q103.631 1293.94 100.112 1296.74 Q96.5937 1299.54 90.1123 1299.54 Q87.9364 1299.54 85.6216 1299.1 Q83.3299 1298.69 80.8762 1297.83 L80.8762 1293.32 Q82.8207 1294.45 85.1355 1295.03 Q87.4503 1295.61 89.9734 1295.61 Q94.3715 1295.61 96.6632 1293.87 Q98.978 1292.14 98.978 1288.83 Q98.978 1285.77 96.8252 1284.06 Q94.6956 1282.32 90.8762 1282.32 L86.8484 1282.32 L86.8484 1278.48 L91.0614 1278.48 Q94.5104 1278.48 96.3391 1277.11 Q98.1678 1275.73 98.1678 1273.13 Q98.1678 1270.47 96.2697 1269.06 Q94.3947 1267.62 90.8762 1267.62 Q88.9549 1267.62 86.7558 1268.04 Q84.5568 1268.46 81.9179 1269.34 L81.9179 1265.17 Q84.5799 1264.43 86.8947 1264.06 Q89.2327 1263.69 91.2928 1263.69 Q96.6169 1263.69 99.7187 1266.12 Q102.821 1268.53 102.821 1272.65 Q102.821 1275.52 101.177 1277.51 Q99.5335 1279.48 96.5011 1280.24 Z" fill="#000000" fill-rule="nonzero" fill-opacity="1" /><path clip-path="url(#clip790)" d="M122.496 1267.39 Q118.885 1267.39 117.057 1270.96 Q115.251 1274.5 115.251 1281.63 Q115.251 1288.73 117.057 1292.3 Q118.885 1295.84 122.496 1295.84 Q126.131 1295.84 127.936 1292.3 Q129.765 1288.73 129.765 1281.63 Q129.765 1274.5 127.936 1270.96 Q126.131 1267.39 122.496 1267.39 M122.496 1263.69 Q128.307 1263.69 131.362 1268.29 Q134.441 1272.88 134.441 1281.63 Q134.441 1290.35 131.362 1294.96 Q128.307 1299.54 122.496 1299.54 Q116.686 1299.54 113.608 1294.96 Q110.552 1290.35 110.552 1281.63 Q110.552 1272.88 113.608 1268.29 Q116.686 1263.69 122.496 1263.69 Z" fill="#000000" fill-rule="nonzero" fill-opacity="1" /><path clip-path="url(#clip790)" d="M152.658 1267.39 Q149.047 1267.39 147.218 1270.96 Q145.413 1274.5 145.413 1281.63 Q145.413 1288.73 147.218 1292.3 Q149.047 1295.84 152.658 1295.84 Q156.292 1295.84 158.098 1292.3 Q159.927 1288.73 159.927 1281.63 Q159.927 1274.5 158.098 1270.96 Q156.292 1267.39 152.658 1267.39 M152.658 1263.69 Q158.468 1263.69 161.524 1268.29 Q164.603 1272.88 164.603 1281.63 Q164.603 1290.35 161.524 1294.96 Q158.468 1299.54 152.658 1299.54 Q146.848 1299.54 143.769 1294.96 Q140.714 1290.35 140.714 1281.63 Q140.714 1272.88 143.769 1268.29 Q146.848 1263.69 152.658 1263.69 Z" fill="#000000" fill-rule="nonzero" fill-opacity="1" /><path clip-path="url(#clip790)" d="M182.82 1267.39 Q179.209 1267.39 177.38 1270.96 Q175.575 1274.5 175.575 1281.63 Q175.575 1288.73 177.38 1292.3 Q179.209 1295.84 182.82 1295.84 Q186.454 1295.84 188.26 1292.3 Q190.089 1288.73 190.089 1281.63 Q190.089 1274.5 188.26 1270.96 Q186.454 1267.39 182.82 1267.39 M182.82 1263.69 Q188.63 1263.69 191.686 1268.29 Q194.765 1272.88 194.765 1281.63 Q194.765 1290.35 191.686 1294.96 Q188.63 1299.54 182.82 1299.54 Q177.01 1299.54 173.931 1294.96 Q170.876 1290.35 170.876 1281.63 Q170.876 1272.88 173.931 1268.29 Q177.01 1263.69 182.82 1263.69 Z" fill="#000000" fill-rule="nonzero" fill-opacity="1" /><path clip-path="url(#clip790)" d="M50.9921 977.478 L73.2142 977.478 L73.2142 979.469 L60.668 1012.04 L55.7838 1012.04 L67.5893 981.413 L50.9921 981.413 L50.9921 977.478 Z" fill="#000000" fill-rule="nonzero" fill-opacity="1" /><path clip-path="url(#clip790)" d="M95.1817 981.552 L83.3762 1000 L95.1817 1000 L95.1817 981.552 M93.9549 977.478 L99.8345 977.478 L99.8345 1000 L104.765 1000 L104.765 1003.89 L99.8345 1003.89 L99.8345 1012.04 L95.1817 1012.04 L95.1817 1003.89 L79.5799 1003.89 L79.5799 999.376 L93.9549 977.478 Z" fill="#000000" fill-rule="nonzero" fill-opacity="1" /><path clip-path="url(#clip790)" d="M122.496 980.557 Q118.885 980.557 117.057 984.121 Q115.251 987.663 115.251 994.793 Q115.251 1001.9 117.057 1005.46 Q118.885 1009.01 122.496 1009.01 Q126.131 1009.01 127.936 1005.46 Q129.765 1001.9 129.765 994.793 Q129.765 987.663 127.936 984.121 Q126.131 980.557 122.496 980.557 M122.496 976.853 Q128.307 976.853 131.362 981.459 Q134.441 986.043 134.441 994.793 Q134.441 1003.52 131.362 1008.13 Q128.307 1012.71 122.496 1012.71 Q116.686 1012.71 113.608 1008.13 Q110.552 1003.52 110.552 994.793 Q110.552 986.043 113.608 981.459 Q116.686 976.853 122.496 976.853 Z" fill="#000000" fill-rule="nonzero" fill-opacity="1" /><path clip-path="url(#clip790)" d="M152.658 980.557 Q149.047 980.557 147.218 984.121 Q145.413 987.663 145.413 994.793 Q145.413 1001.9 147.218 1005.46 Q149.047 1009.01 152.658 1009.01 Q156.292 1009.01 158.098 1005.46 Q159.927 1001.9 159.927 994.793 Q159.927 987.663 158.098 984.121 Q156.292 980.557 152.658 980.557 M152.658 976.853 Q158.468 976.853 161.524 981.459 Q164.603 986.043 164.603 994.793 Q164.603 1003.52 161.524 1008.13 Q158.468 1012.71 152.658 1012.71 Q146.848 1012.71 143.769 1008.13 Q140.714 1003.52 140.714 994.793 Q140.714 986.043 143.769 981.459 Q146.848 976.853 152.658 976.853 Z" fill="#000000" fill-rule="nonzero" fill-opacity="1" /><path clip-path="url(#clip790)" d="M182.82 980.557 Q179.209 980.557 177.38 984.121 Q175.575 987.663 175.575 994.793 Q175.575 1001.9 177.38 1005.46 Q179.209 1009.01 182.82 1009.01 Q186.454 1009.01 188.26 1005.46 Q190.089 1001.9 190.089 994.793 Q190.089 987.663 188.26 984.121 Q186.454 980.557 182.82 980.557 M182.82 976.853 Q188.63 976.853 191.686 981.459 Q194.765 986.043 194.765 994.793 Q194.765 1003.52 191.686 1008.13 Q188.63 1012.71 182.82 1012.71 Q177.01 1012.71 173.931 1008.13 Q170.876 1003.52 170.876 994.793 Q170.876 986.043 173.931 981.459 Q177.01 976.853 182.82 976.853 Z" fill="#000000" fill-rule="nonzero" fill-opacity="1" /><path clip-path="url(#clip790)" d="M50.9921 690.642 L73.2142 690.642 L73.2142 692.633 L60.668 725.202 L55.7838 725.202 L67.5893 694.578 L50.9921 694.578 L50.9921 690.642 Z" fill="#000000" fill-rule="nonzero" fill-opacity="1" /><path clip-path="url(#clip790)" d="M82.3808 690.642 L100.737 690.642 L100.737 694.578 L86.6632 694.578 L86.6632 703.05 Q87.6817 702.703 88.7003 702.541 Q89.7188 702.355 90.7373 702.355 Q96.5243 702.355 99.9039 705.527 Q103.284 708.698 103.284 714.115 Q103.284 719.693 99.8113 722.795 Q96.3391 725.874 90.0197 725.874 Q87.8438 725.874 85.5753 725.503 Q83.3299 725.133 80.9225 724.392 L80.9225 719.693 Q83.0058 720.827 85.2281 721.383 Q87.4503 721.939 89.9271 721.939 Q93.9317 721.939 96.2697 719.832 Q98.6076 717.726 98.6076 714.115 Q98.6076 710.503 96.2697 708.397 Q93.9317 706.291 89.9271 706.291 Q88.0521 706.291 86.1771 706.707 Q84.3253 707.124 82.3808 708.003 L82.3808 690.642 Z" fill="#000000" fill-rule="nonzero" fill-opacity="1" /><path clip-path="url(#clip790)" d="M122.496 693.721 Q118.885 693.721 117.057 697.286 Q115.251 700.828 115.251 707.957 Q115.251 715.064 117.057 718.628 Q118.885 722.17 122.496 722.17 Q126.131 722.17 127.936 718.628 Q129.765 715.064 129.765 707.957 Q129.765 700.828 127.936 697.286 Q126.131 693.721 122.496 693.721 M122.496 690.017 Q128.307 690.017 131.362 694.624 Q134.441 699.207 134.441 707.957 Q134.441 716.684 131.362 721.29 Q128.307 725.874 122.496 725.874 Q116.686 725.874 113.608 721.29 Q110.552 716.684 110.552 707.957 Q110.552 699.207 113.608 694.624 Q116.686 690.017 122.496 690.017 Z" fill="#000000" fill-rule="nonzero" fill-opacity="1" /><path clip-path="url(#clip790)" d="M152.658 693.721 Q149.047 693.721 147.218 697.286 Q145.413 700.828 145.413 707.957 Q145.413 715.064 147.218 718.628 Q149.047 722.17 152.658 722.17 Q156.292 722.17 158.098 718.628 Q159.927 715.064 159.927 707.957 Q159.927 700.828 158.098 697.286 Q156.292 693.721 152.658 693.721 M152.658 690.017 Q158.468 690.017 161.524 694.624 Q164.603 699.207 164.603 707.957 Q164.603 716.684 161.524 721.29 Q158.468 725.874 152.658 725.874 Q146.848 725.874 143.769 721.29 Q140.714 716.684 140.714 707.957 Q140.714 699.207 143.769 694.624 Q146.848 690.017 152.658 690.017 Z" fill="#000000" fill-rule="nonzero" fill-opacity="1" /><path clip-path="url(#clip790)" d="M182.82 693.721 Q179.209 693.721 177.38 697.286 Q175.575 700.828 175.575 707.957 Q175.575 715.064 177.38 718.628 Q179.209 722.17 182.82 722.17 Q186.454 722.17 188.26 718.628 Q190.089 715.064 190.089 707.957 Q190.089 700.828 188.26 697.286 Q186.454 693.721 182.82 693.721 M182.82 690.017 Q188.63 690.017 191.686 694.624 Q194.765 699.207 194.765 707.957 Q194.765 716.684 191.686 721.29 Q188.63 725.874 182.82 725.874 Q177.01 725.874 173.931 721.29 Q170.876 716.684 170.876 707.957 Q170.876 699.207 173.931 694.624 Q177.01 690.017 182.82 690.017 Z" fill="#000000" fill-rule="nonzero" fill-opacity="1" /><path clip-path="url(#clip790)" d="M50.9921 403.807 L73.2142 403.807 L73.2142 405.798 L60.668 438.367 L55.7838 438.367 L67.5893 407.742 L50.9921 407.742 L50.9921 403.807 Z" fill="#000000" fill-rule="nonzero" fill-opacity="1" /><path clip-path="url(#clip790)" d="M92.9132 419.224 Q89.7651 419.224 87.9132 421.376 Q86.0845 423.529 86.0845 427.279 Q86.0845 431.006 87.9132 433.182 Q89.7651 435.335 92.9132 435.335 Q96.0613 435.335 97.89 433.182 Q99.7419 431.006 99.7419 427.279 Q99.7419 423.529 97.89 421.376 Q96.0613 419.224 92.9132 419.224 M102.196 404.571 L102.196 408.83 Q100.436 407.997 98.6308 407.557 Q96.8484 407.117 95.0891 407.117 Q90.4595 407.117 88.0058 410.242 Q85.5753 413.367 85.2281 419.687 Q86.5938 417.673 88.654 416.608 Q90.7141 415.52 93.191 415.52 Q98.3993 415.52 101.409 418.691 Q104.441 421.839 104.441 427.279 Q104.441 432.603 101.293 435.821 Q98.1447 439.038 92.9132 439.038 Q86.9179 439.038 83.7466 434.455 Q80.5753 429.849 80.5753 421.122 Q80.5753 412.927 84.4642 408.066 Q88.353 403.182 94.9039 403.182 Q96.6632 403.182 98.4456 403.529 Q100.251 403.877 102.196 404.571 Z" fill="#000000" fill-rule="nonzero" fill-opacity="1" /><path clip-path="url(#clip790)" d="M122.496 406.886 Q118.885 406.886 117.057 410.451 Q115.251 413.992 115.251 421.122 Q115.251 428.228 117.057 431.793 Q118.885 435.335 122.496 435.335 Q126.131 435.335 127.936 431.793 Q129.765 428.228 129.765 421.122 Q129.765 413.992 127.936 410.451 Q126.131 406.886 122.496 406.886 M122.496 403.182 Q128.307 403.182 131.362 407.789 Q134.441 412.372 134.441 421.122 Q134.441 429.849 131.362 434.455 Q128.307 439.038 122.496 439.038 Q116.686 439.038 113.608 434.455 Q110.552 429.849 110.552 421.122 Q110.552 412.372 113.608 407.789 Q116.686 403.182 122.496 403.182 Z" fill="#000000" fill-rule="nonzero" fill-opacity="1" /><path clip-path="url(#clip790)" d="M152.658 406.886 Q149.047 406.886 147.218 410.451 Q145.413 413.992 145.413 421.122 Q145.413 428.228 147.218 431.793 Q149.047 435.335 152.658 435.335 Q156.292 435.335 158.098 431.793 Q159.927 428.228 159.927 421.122 Q159.927 413.992 158.098 410.451 Q156.292 406.886 152.658 406.886 M152.658 403.182 Q158.468 403.182 161.524 407.789 Q164.603 412.372 164.603 421.122 Q164.603 429.849 161.524 434.455 Q158.468 439.038 152.658 439.038 Q146.848 439.038 143.769 434.455 Q140.714 429.849 140.714 421.122 Q140.714 412.372 143.769 407.789 Q146.848 403.182 152.658 403.182 Z" fill="#000000" fill-rule="nonzero" fill-opacity="1" /><path clip-path="url(#clip790)" d="M182.82 406.886 Q179.209 406.886 177.38 410.451 Q175.575 413.992 175.575 421.122 Q175.575 428.228 177.38 431.793 Q179.209 435.335 182.82 435.335 Q186.454 435.335 188.26 431.793 Q190.089 428.228 190.089 421.122 Q190.089 413.992 188.26 410.451 Q186.454 406.886 182.82 406.886 M182.82 403.182 Q188.63 403.182 191.686 407.789 Q194.765 412.372 194.765 421.122 Q194.765 429.849 191.686 434.455 Q188.63 439.038 182.82 439.038 Q177.01 439.038 173.931 434.455 Q170.876 429.849 170.876 421.122 Q170.876 412.372 173.931 407.789 Q177.01 403.182 182.82 403.182 Z" fill="#000000" fill-rule="nonzero" fill-opacity="1" /><path clip-path="url(#clip790)" d="M50.9921 116.972 L73.2142 116.972 L73.2142 118.962 L60.668 151.532 L55.7838 151.532 L67.5893 120.907 L50.9921 120.907 L50.9921 116.972 Z" fill="#000000" fill-rule="nonzero" fill-opacity="1" /><path clip-path="url(#clip790)" d="M81.154 116.972 L103.376 116.972 L103.376 118.962 L90.8299 151.532 L85.9456 151.532 L97.7511 120.907 L81.154 120.907 L81.154 116.972 Z" fill="#000000" fill-rule="nonzero" fill-opacity="1" /><path clip-path="url(#clip790)" d="M122.496 120.05 Q118.885 120.05 117.057 123.615 Q115.251 127.157 115.251 134.286 Q115.251 141.393 117.057 144.958 Q118.885 148.499 122.496 148.499 Q126.131 148.499 127.936 144.958 Q129.765 141.393 129.765 134.286 Q129.765 127.157 127.936 123.615 Q126.131 120.05 122.496 120.05 M122.496 116.347 Q128.307 116.347 131.362 120.953 Q134.441 125.536 134.441 134.286 Q134.441 143.013 131.362 147.62 Q128.307 152.203 122.496 152.203 Q116.686 152.203 113.608 147.62 Q110.552 143.013 110.552 134.286 Q110.552 125.536 113.608 120.953 Q116.686 116.347 122.496 116.347 Z" fill="#000000" fill-rule="nonzero" fill-opacity="1" /><path clip-path="url(#clip790)" d="M152.658 120.05 Q149.047 120.05 147.218 123.615 Q145.413 127.157 145.413 134.286 Q145.413 141.393 147.218 144.958 Q149.047 148.499 152.658 148.499 Q156.292 148.499 158.098 144.958 Q159.927 141.393 159.927 134.286 Q159.927 127.157 158.098 123.615 Q156.292 120.05 152.658 120.05 M152.658 116.347 Q158.468 116.347 161.524 120.953 Q164.603 125.536 164.603 134.286 Q164.603 143.013 161.524 147.62 Q158.468 152.203 152.658 152.203 Q146.848 152.203 143.769 147.62 Q140.714 143.013 140.714 134.286 Q140.714 125.536 143.769 120.953 Q146.848 116.347 152.658 116.347 Z" fill="#000000" fill-rule="nonzero" fill-opacity="1" /><path clip-path="url(#clip790)" d="M182.82 120.05 Q179.209 120.05 177.38 123.615 Q175.575 127.157 175.575 134.286 Q175.575 141.393 177.38 144.958 Q179.209 148.499 182.82 148.499 Q186.454 148.499 188.26 144.958 Q190.089 141.393 190.089 134.286 Q190.089 127.157 188.26 123.615 Q186.454 120.05 182.82 120.05 M182.82 116.347 Q188.63 116.347 191.686 120.953 Q194.765 125.536 194.765 134.286 Q194.765 143.013 191.686 147.62 Q188.63 152.203 182.82 152.203 Q177.01 152.203 173.931 147.62 Q170.876 143.013 170.876 134.286 Q170.876 125.536 173.931 120.953 Q177.01 116.347 182.82 116.347 Z" fill="#000000" fill-rule="nonzero" fill-opacity="1" /><path clip-path="url(#clip790)" d="M1262.23 35.2602 Q1262.23 29.4732 1259.83 26.2904 Q1257.46 23.1075 1253.15 23.1075 Q1248.86 23.1075 1246.46 26.2904 Q1244.09 29.4732 1244.09 35.2602 Q1244.09 41.0183 1246.46 44.2012 Q1248.86 47.384 1253.15 47.384 Q1257.46 47.384 1259.83 44.2012 Q1262.23 41.0183 1262.23 35.2602 M1267.56 47.818 Q1267.56 56.0934 1263.88 60.1154 Q1260.21 64.1663 1252.63 64.1663 Q1249.82 64.1663 1247.33 63.7323 Q1244.84 63.3272 1242.5 62.4592 L1242.5 57.2798 Q1244.84 58.5529 1247.13 59.1606 Q1249.41 59.7682 1251.79 59.7682 Q1257.02 59.7682 1259.63 57.0194 Q1262.23 54.2995 1262.23 48.7729 L1262.23 46.1398 Q1260.58 49.0044 1258.01 50.4222 Q1255.43 51.84 1251.84 51.84 Q1245.88 51.84 1242.24 47.2972 Q1238.59 42.7544 1238.59 35.2602 Q1238.59 27.7371 1242.24 23.1943 Q1245.88 18.6515 1251.84 18.6515 Q1255.43 18.6515 1258.01 20.0693 Q1260.58 21.4872 1262.23 24.3517 L1262.23 19.4328 L1267.56 19.4328 L1267.56 47.818 Z" fill="#000000" fill-rule="nonzero" fill-opacity="1" /><path clip-path="url(#clip790)" d="M1299.85 24.3517 L1299.85 6.81709 L1305.17 6.81709 L1305.17 51.84 L1299.85 51.84 L1299.85 46.9789 Q1298.17 49.8724 1295.59 51.2902 Q1293.05 52.6791 1289.46 52.6791 Q1283.59 52.6791 1279.88 47.9916 Q1276.21 43.3042 1276.21 35.6653 Q1276.21 28.0265 1279.88 23.339 Q1283.59 18.6515 1289.46 18.6515 Q1293.05 18.6515 1295.59 20.0693 Q1298.17 21.4582 1299.85 24.3517 M1281.71 35.6653 Q1281.71 41.5391 1284.11 44.8956 Q1286.54 48.2231 1290.76 48.2231 Q1294.99 48.2231 1297.42 44.8956 Q1299.85 41.5391 1299.85 35.6653 Q1299.85 29.7915 1297.42 26.464 Q1294.99 23.1075 1290.76 23.1075 Q1286.54 23.1075 1284.11 26.464 Q1281.71 29.7915 1281.71 35.6653 Z" fill="#000000" fill-rule="nonzero" fill-opacity="1" /><path clip-path="url(#clip790)" d="M1321.29 46.9789 L1321.29 64.1663 L1315.94 64.1663 L1315.94 19.4328 L1321.29 19.4328 L1321.29 24.3517 Q1322.97 21.4582 1325.51 20.0693 Q1328.09 18.6515 1331.65 18.6515 Q1337.55 18.6515 1341.22 23.339 Q1344.93 28.0265 1344.93 35.6653 Q1344.93 43.3042 1341.22 47.9916 Q1337.55 52.6791 1331.65 52.6791 Q1328.09 52.6791 1325.51 51.2902 Q1322.97 49.8724 1321.29 46.9789 M1339.4 35.6653 Q1339.4 29.7915 1336.97 26.464 Q1334.57 23.1075 1330.35 23.1075 Q1326.12 23.1075 1323.69 26.464 Q1321.29 29.7915 1321.29 35.6653 Q1321.29 41.5391 1323.69 44.8956 Q1326.12 48.2231 1330.35 48.2231 Q1334.57 48.2231 1336.97 44.8956 Q1339.4 41.5391 1339.4 35.6653 Z" fill="#000000" fill-rule="nonzero" fill-opacity="1" /><polyline clip-path="url(#clip792)" style="stroke:#009af9; stroke-linecap:round; stroke-linejoin:round; stroke-width:4; stroke-opacity:1; fill:none" points="290.821,1447.38 415.938,1276.92 541.056,1320.77 666.173,1445.47 791.291,1123.55 916.408,1341.38 1041.53,1194.68 1166.64,1333.74 1291.76,1294.52 1416.88,1123.88 1542,994.877 1667.11,950.769 1792.23,640.843 1917.35,593.449 2042.46,145.256 2167.58,201.948 2292.7,255.164 "/>
<path clip-path="url(#clip790)" d="M301.498 255.881 L566.127 255.881 L566.127 152.201 L301.498 152.201  Z" fill="#ffffff" fill-rule="evenodd" fill-opacity="1"/>
<polyline clip-path="url(#clip790)" style="stroke:#000000; stroke-linecap:round; stroke-linejoin:round; stroke-width:4; stroke-opacity:1; fill:none" points="301.498,255.881 566.127,255.881 566.127,152.201 301.498,152.201 301.498,255.881 "/>
<polyline clip-path="url(#clip790)" style="stroke:#009af9; stroke-linecap:round; stroke-linejoin:round; stroke-width:4; stroke-opacity:1; fill:none" points="325.075,204.041 466.541,204.041 "/>
<path clip-path="url(#clip790)" d="M503.962 223.728 Q502.156 228.358 500.443 229.77 Q498.73 231.182 495.86 231.182 L492.457 231.182 L492.457 227.617 L494.957 227.617 Q496.716 227.617 497.688 226.784 Q498.661 225.95 499.841 222.848 L500.605 220.904 L490.119 195.395 L494.633 195.395 L502.735 215.673 L510.836 195.395 L515.35 195.395 L503.962 223.728 Z" fill="#000000" fill-rule="nonzero" fill-opacity="1" /><path clip-path="url(#clip790)" d="M522.642 217.385 L530.281 217.385 L530.281 191.02 L521.971 192.687 L521.971 188.427 L530.235 186.761 L534.91 186.761 L534.91 217.385 L542.549 217.385 L542.549 221.321 L522.642 221.321 L522.642 217.385 Z" fill="#000000" fill-rule="nonzero" fill-opacity="1" /></svg>
