<?xml version="1.0" encoding="utf-8"?>
<svg xmlns="http://www.w3.org/2000/svg" xmlns:xlink="http://www.w3.org/1999/xlink" width="600" height="400" viewBox="0 0 2400 1600">
<defs>
  <clipPath id="clip970">
    <rect x="0" y="0" width="2400" height="1600"/>
  </clipPath>
</defs>
<path clip-path="url(#clip970)" d="M0 1600 L2400 1600 L2400 0 L0 0  Z" fill="#ffffff" fill-rule="evenodd" fill-opacity="1"/>
<defs>
  <clipPath id="clip971">
    <rect x="480" y="0" width="1681" height="1600"/>
  </clipPath>
</defs>
<path clip-path="url(#clip970)" d="M231.436 1486.45 L2352.76 1486.45 L2352.76 106.192 L231.436 106.192  Z" fill="#ffffff" fill-rule="evenodd" fill-opacity="1"/>
<defs>
  <clipPath id="clip972">
    <rect x="231" y="106" width="2122" height="1381"/>
  </clipPath>
</defs>
<polyline clip-path="url(#clip972)" style="stroke:#000000; stroke-linecap:round; stroke-linejoin:round; stroke-width:2; stroke-opacity:0.1; fill:none" points="541.629,1486.45 541.629,106.192 "/>
<polyline clip-path="url(#clip972)" style="stroke:#000000; stroke-linecap:round; stroke-linejoin:round; stroke-width:2; stroke-opacity:0.1; fill:none" points="916.862,1486.45 916.862,106.192 "/>
<polyline clip-path="url(#clip972)" style="stroke:#000000; stroke-linecap:round; stroke-linejoin:round; stroke-width:2; stroke-opacity:0.1; fill:none" points="1292.1,1486.45 1292.1,106.192 "/>
<polyline clip-path="url(#clip972)" style="stroke:#000000; stroke-linecap:round; stroke-linejoin:round; stroke-width:2; stroke-opacity:0.1; fill:none" points="1667.33,1486.45 1667.33,106.192 "/>
<polyline clip-path="url(#clip972)" style="stroke:#000000; stroke-linecap:round; stroke-linejoin:round; stroke-width:2; stroke-opacity:0.1; fill:none" points="2042.56,1486.45 2042.56,106.192 "/>
<polyline clip-path="url(#clip972)" style="stroke:#000000; stroke-linecap:round; stroke-linejoin:round; stroke-width:2; stroke-opacity:0.1; fill:none" points="231.436,1465.3 2352.76,1465.3 "/>
<polyline clip-path="url(#clip972)" style="stroke:#000000; stroke-linecap:round; stroke-linejoin:round; stroke-width:2; stroke-opacity:0.1; fill:none" points="231.436,1155.41 2352.76,1155.41 "/>
<polyline clip-path="url(#clip972)" style="stroke:#000000; stroke-linecap:round; stroke-linejoin:round; stroke-width:2; stroke-opacity:0.1; fill:none" points="231.436,845.522 2352.76,845.522 "/>
<polyline clip-path="url(#clip972)" style="stroke:#000000; stroke-linecap:round; stroke-linejoin:round; stroke-width:2; stroke-opacity:0.1; fill:none" points="231.436,535.632 2352.76,535.632 "/>
<polyline clip-path="url(#clip972)" style="stroke:#000000; stroke-linecap:round; stroke-linejoin:round; stroke-width:2; stroke-opacity:0.1; fill:none" points="231.436,225.742 2352.76,225.742 "/>
<polyline clip-path="url(#clip970)" style="stroke:#000000; stroke-linecap:round; stroke-linejoin:round; stroke-width:4; stroke-opacity:1; fill:none" points="231.436,1486.45 2352.76,1486.45 "/>
<polyline clip-path="url(#clip970)" style="stroke:#000000; stroke-linecap:round; stroke-linejoin:round; stroke-width:4; stroke-opacity:1; fill:none" points="541.629,1486.45 541.629,1467.55 "/>
<polyline clip-path="url(#clip970)" style="stroke:#000000; stroke-linecap:round; stroke-linejoin:round; stroke-width:4; stroke-opacity:1; fill:none" points="916.862,1486.45 916.862,1467.55 "/>
<polyline clip-path="url(#clip970)" style="stroke:#000000; stroke-linecap:round; stroke-linejoin:round; stroke-width:4; stroke-opacity:1; fill:none" points="1292.1,1486.45 1292.1,1467.55 "/>
<polyline clip-path="url(#clip970)" style="stroke:#000000; stroke-linecap:round; stroke-linejoin:round; stroke-width:4; stroke-opacity:1; fill:none" points="1667.33,1486.45 1667.33,1467.55 "/>
<polyline clip-path="url(#clip970)" style="stroke:#000000; stroke-linecap:round; stroke-linejoin:round; stroke-width:4; stroke-opacity:1; fill:none" points="2042.56,1486.45 2042.56,1467.55 "/>
<path clip-path="url(#clip970)" d="M545.876 1530.21 Q549.233 1530.93 551.108 1533.2 Q553.006 1535.47 553.006 1538.8 Q553.006 1543.92 549.488 1546.72 Q545.969 1549.52 539.488 1549.52 Q537.312 1549.52 534.997 1549.08 Q532.705 1548.66 530.252 1547.81 L530.252 1543.29 Q532.196 1544.43 534.511 1545.01 Q536.826 1545.58 539.349 1545.58 Q543.747 1545.58 546.039 1543.85 Q548.353 1542.11 548.353 1538.8 Q548.353 1535.75 546.201 1534.03 Q544.071 1532.3 540.252 1532.3 L536.224 1532.3 L536.224 1528.45 L540.437 1528.45 Q543.886 1528.45 545.714 1527.09 Q547.543 1525.7 547.543 1523.11 Q547.543 1520.45 545.645 1519.03 Q543.77 1517.6 540.252 1517.6 Q538.33 1517.6 536.131 1518.01 Q533.932 1518.43 531.293 1519.31 L531.293 1515.14 Q533.955 1514.4 536.27 1514.03 Q538.608 1513.66 540.668 1513.66 Q545.992 1513.66 549.094 1516.09 Q552.196 1518.5 552.196 1522.62 Q552.196 1525.49 550.552 1527.48 Q548.909 1529.45 545.876 1530.21 Z" fill="#000000" fill-rule="nonzero" fill-opacity="1" /><path clip-path="url(#clip970)" d="M917.267 1529.7 Q914.119 1529.7 912.267 1531.86 Q910.439 1534.01 910.439 1537.76 Q910.439 1541.49 912.267 1543.66 Q914.119 1545.82 917.267 1545.82 Q920.416 1545.82 922.244 1543.66 Q924.096 1541.49 924.096 1537.76 Q924.096 1534.01 922.244 1531.86 Q920.416 1529.7 917.267 1529.7 M926.55 1515.05 L926.55 1519.31 Q924.791 1518.48 922.985 1518.04 Q921.203 1517.6 919.443 1517.6 Q914.814 1517.6 912.36 1520.72 Q909.93 1523.85 909.582 1530.17 Q910.948 1528.15 913.008 1527.09 Q915.068 1526 917.545 1526 Q922.754 1526 925.763 1529.17 Q928.795 1532.32 928.795 1537.76 Q928.795 1543.08 925.647 1546.3 Q922.499 1549.52 917.267 1549.52 Q911.272 1549.52 908.101 1544.94 Q904.93 1540.33 904.93 1531.6 Q904.93 1523.41 908.818 1518.55 Q912.707 1513.66 919.258 1513.66 Q921.017 1513.66 922.8 1514.01 Q924.605 1514.36 926.55 1515.05 Z" fill="#000000" fill-rule="nonzero" fill-opacity="1" /><path clip-path="url(#clip970)" d="M1282.4 1548.13 L1282.4 1543.87 Q1284.16 1544.7 1285.96 1545.14 Q1287.77 1545.58 1289.5 1545.58 Q1294.13 1545.58 1296.56 1542.48 Q1299.02 1539.36 1299.36 1533.01 Q1298.02 1535.01 1295.96 1536.07 Q1293.9 1537.13 1291.4 1537.13 Q1286.22 1537.13 1283.18 1534.01 Q1280.17 1530.86 1280.17 1525.42 Q1280.17 1520.1 1283.32 1516.88 Q1286.47 1513.66 1291.7 1513.66 Q1297.7 1513.66 1300.85 1518.27 Q1304.02 1522.85 1304.02 1531.6 Q1304.02 1539.77 1300.13 1544.66 Q1296.26 1549.52 1289.71 1549.52 Q1287.95 1549.52 1286.15 1549.17 Q1284.34 1548.82 1282.4 1548.13 M1291.7 1533.48 Q1294.85 1533.48 1296.68 1531.32 Q1298.53 1529.17 1298.53 1525.42 Q1298.53 1521.7 1296.68 1519.54 Q1294.85 1517.37 1291.7 1517.37 Q1288.55 1517.37 1286.7 1519.54 Q1284.87 1521.7 1284.87 1525.42 Q1284.87 1529.17 1286.7 1531.32 Q1288.55 1533.48 1291.7 1533.48 Z" fill="#000000" fill-rule="nonzero" fill-opacity="1" /><path clip-path="url(#clip970)" d="M1642.82 1544.91 L1650.45 1544.91 L1650.45 1518.55 L1642.14 1520.21 L1642.14 1515.95 L1650.41 1514.29 L1655.08 1514.29 L1655.08 1544.91 L1662.72 1544.91 L1662.72 1548.85 L1642.82 1548.85 L1642.82 1544.91 Z" fill="#000000" fill-rule="nonzero" fill-opacity="1" /><path clip-path="url(#clip970)" d="M1676.2 1544.91 L1692.51 1544.91 L1692.51 1548.85 L1670.57 1548.85 L1670.57 1544.91 Q1673.23 1542.16 1677.82 1537.53 Q1682.42 1532.88 1683.6 1531.53 Q1685.85 1529.01 1686.73 1527.27 Q1687.63 1525.51 1687.63 1523.82 Q1687.63 1521.07 1685.69 1519.33 Q1683.76 1517.6 1680.66 1517.6 Q1678.46 1517.6 1676.01 1518.36 Q1673.58 1519.13 1670.8 1520.68 L1670.8 1515.95 Q1673.63 1514.82 1676.08 1514.24 Q1678.53 1513.66 1680.57 1513.66 Q1685.94 1513.66 1689.13 1516.35 Q1692.33 1519.03 1692.33 1523.52 Q1692.33 1525.65 1691.52 1527.57 Q1690.73 1529.47 1688.63 1532.07 Q1688.05 1532.74 1684.95 1535.95 Q1681.84 1539.15 1676.2 1544.91 Z" fill="#000000" fill-rule="nonzero" fill-opacity="1" /><path clip-path="url(#clip970)" d="M2017.75 1544.91 L2025.39 1544.91 L2025.39 1518.55 L2017.08 1520.21 L2017.08 1515.95 L2025.34 1514.29 L2030.02 1514.29 L2030.02 1544.91 L2037.66 1544.91 L2037.66 1548.85 L2017.75 1548.85 L2017.75 1544.91 Z" fill="#000000" fill-rule="nonzero" fill-opacity="1" /><path clip-path="url(#clip970)" d="M2047.15 1514.29 L2065.5 1514.29 L2065.5 1518.22 L2051.43 1518.22 L2051.43 1526.7 Q2052.45 1526.35 2053.47 1526.19 Q2054.48 1526 2055.5 1526 Q2061.29 1526 2064.67 1529.17 Q2068.05 1532.34 2068.05 1537.76 Q2068.05 1543.34 2064.58 1546.44 Q2061.1 1549.52 2054.79 1549.52 Q2052.61 1549.52 2050.34 1549.15 Q2048.1 1548.78 2045.69 1548.04 L2045.69 1543.34 Q2047.77 1544.47 2049.99 1545.03 Q2052.22 1545.58 2054.69 1545.58 Q2058.7 1545.58 2061.03 1543.48 Q2063.37 1541.37 2063.37 1537.76 Q2063.37 1534.15 2061.03 1532.04 Q2058.7 1529.94 2054.69 1529.94 Q2052.82 1529.94 2050.94 1530.35 Q2049.09 1530.77 2047.15 1531.65 L2047.15 1514.29 Z" fill="#000000" fill-rule="nonzero" fill-opacity="1" /><polyline clip-path="url(#clip970)" style="stroke:#000000; stroke-linecap:round; stroke-linejoin:round; stroke-width:4; stroke-opacity:1; fill:none" points="231.436,1486.45 231.436,106.192 "/>
<polyline clip-path="url(#clip970)" style="stroke:#000000; stroke-linecap:round; stroke-linejoin:round; stroke-width:4; stroke-opacity:1; fill:none" points="231.436,1465.3 250.333,1465.3 "/>
<polyline clip-path="url(#clip970)" style="stroke:#000000; stroke-linecap:round; stroke-linejoin:round; stroke-width:4; stroke-opacity:1; fill:none" points="231.436,1155.41 250.333,1155.41 "/>
<polyline clip-path="url(#clip970)" style="stroke:#000000; stroke-linecap:round; stroke-linejoin:round; stroke-width:4; stroke-opacity:1; fill:none" points="231.436,845.522 250.333,845.522 "/>
<polyline clip-path="url(#clip970)" style="stroke:#000000; stroke-linecap:round; stroke-linejoin:round; stroke-width:4; stroke-opacity:1; fill:none" points="231.436,535.632 250.333,535.632 "/>
<polyline clip-path="url(#clip970)" style="stroke:#000000; stroke-linecap:round; stroke-linejoin:round; stroke-width:4; stroke-opacity:1; fill:none" points="231.436,225.742 250.333,225.742 "/>
<path clip-path="url(#clip970)" d="M51.6634 1448.02 L73.8855 1448.02 L73.8855 1450.01 L61.3393 1482.58 L56.4551 1482.58 L68.2606 1451.96 L51.6634 1451.96 L51.6634 1448.02 Z" fill="#000000" fill-rule="nonzero" fill-opacity="1" /><path clip-path="url(#clip970)" d="M87.0336 1478.65 L103.353 1478.65 L103.353 1482.58 L81.4086 1482.58 L81.4086 1478.65 Q84.0707 1475.89 88.654 1471.26 Q93.2604 1466.61 94.441 1465.27 Q96.6863 1462.74 97.566 1461.01 Q98.4687 1459.25 98.4687 1457.56 Q98.4687 1454.8 96.5243 1453.07 Q94.603 1451.33 91.5012 1451.33 Q89.3021 1451.33 86.8484 1452.1 Q84.4179 1452.86 81.6401 1454.41 L81.6401 1449.69 Q84.4642 1448.55 86.9179 1447.98 Q89.3715 1447.4 91.4086 1447.4 Q96.7789 1447.4 99.9733 1450.08 Q103.168 1452.77 103.168 1457.26 Q103.168 1459.39 102.358 1461.31 Q101.571 1463.21 99.4641 1465.8 Q98.8854 1466.47 95.7836 1469.69 Q92.6817 1472.88 87.0336 1478.65 Z" fill="#000000" fill-rule="nonzero" fill-opacity="1" /><path clip-path="url(#clip970)" d="M123.168 1451.1 Q119.557 1451.1 117.728 1454.66 Q115.922 1458.21 115.922 1465.34 Q115.922 1472.44 117.728 1476.01 Q119.557 1479.55 123.168 1479.55 Q126.802 1479.55 128.607 1476.01 Q130.436 1472.44 130.436 1465.34 Q130.436 1458.21 128.607 1454.66 Q126.802 1451.1 123.168 1451.1 M123.168 1447.4 Q128.978 1447.4 132.033 1452 Q135.112 1456.59 135.112 1465.34 Q135.112 1474.06 132.033 1478.67 Q128.978 1483.25 123.168 1483.25 Q117.358 1483.25 114.279 1478.67 Q111.223 1474.06 111.223 1465.34 Q111.223 1456.59 114.279 1452 Q117.358 1447.4 123.168 1447.4 Z" fill="#000000" fill-rule="nonzero" fill-opacity="1" /><path clip-path="url(#clip970)" d="M153.33 1451.1 Q149.718 1451.1 147.89 1454.66 Q146.084 1458.21 146.084 1465.34 Q146.084 1472.44 147.89 1476.01 Q149.718 1479.55 153.33 1479.55 Q156.964 1479.55 158.769 1476.01 Q160.598 1472.44 160.598 1465.34 Q160.598 1458.21 158.769 1454.66 Q156.964 1451.1 153.33 1451.1 M153.33 1447.4 Q159.14 1447.4 162.195 1452 Q165.274 1456.59 165.274 1465.34 Q165.274 1474.06 162.195 1478.67 Q159.14 1483.25 153.33 1483.25 Q147.519 1483.25 144.441 1478.67 Q141.385 1474.06 141.385 1465.34 Q141.385 1456.59 144.441 1452 Q147.519 1447.4 153.33 1447.4 Z" fill="#000000" fill-rule="nonzero" fill-opacity="1" /><path clip-path="url(#clip970)" d="M183.491 1451.1 Q179.88 1451.1 178.052 1454.66 Q176.246 1458.21 176.246 1465.34 Q176.246 1472.44 178.052 1476.01 Q179.88 1479.55 183.491 1479.55 Q187.126 1479.55 188.931 1476.01 Q190.76 1472.44 190.76 1465.34 Q190.76 1458.21 188.931 1454.66 Q187.126 1451.1 183.491 1451.1 M183.491 1447.4 Q189.302 1447.4 192.357 1452 Q195.436 1456.59 195.436 1465.34 Q195.436 1474.06 192.357 1478.67 Q189.302 1483.25 183.491 1483.25 Q177.681 1483.25 174.603 1478.67 Q171.547 1474.06 171.547 1465.34 Q171.547 1456.59 174.603 1452 Q177.681 1447.4 183.491 1447.4 Z" fill="#000000" fill-rule="nonzero" fill-opacity="1" /><path clip-path="url(#clip970)" d="M51.6634 1138.13 L73.8855 1138.13 L73.8855 1140.12 L61.3393 1172.69 L56.4551 1172.69 L68.2606 1142.07 L51.6634 1142.07 L51.6634 1138.13 Z" fill="#000000" fill-rule="nonzero" fill-opacity="1" /><path clip-path="url(#clip970)" d="M95.853 1142.21 L84.0475 1160.65 L95.853 1160.65 L95.853 1142.21 M94.6262 1138.13 L100.506 1138.13 L100.506 1160.65 L105.436 1160.65 L105.436 1164.54 L100.506 1164.54 L100.506 1172.69 L95.853 1172.69 L95.853 1164.54 L80.2512 1164.54 L80.2512 1160.03 L94.6262 1138.13 Z" fill="#000000" fill-rule="nonzero" fill-opacity="1" /><path clip-path="url(#clip970)" d="M123.168 1141.21 Q119.557 1141.21 117.728 1144.78 Q115.922 1148.32 115.922 1155.45 Q115.922 1162.55 117.728 1166.12 Q119.557 1169.66 123.168 1169.66 Q126.802 1169.66 128.607 1166.12 Q130.436 1162.55 130.436 1155.45 Q130.436 1148.32 128.607 1144.78 Q126.802 1141.21 123.168 1141.21 M123.168 1137.51 Q128.978 1137.51 132.033 1142.11 Q135.112 1146.7 135.112 1155.45 Q135.112 1164.17 132.033 1168.78 Q128.978 1173.36 123.168 1173.36 Q117.358 1173.36 114.279 1168.78 Q111.223 1164.17 111.223 1155.45 Q111.223 1146.7 114.279 1142.11 Q117.358 1137.51 123.168 1137.51 Z" fill="#000000" fill-rule="nonzero" fill-opacity="1" /><path clip-path="url(#clip970)" d="M153.33 1141.21 Q149.718 1141.21 147.89 1144.78 Q146.084 1148.32 146.084 1155.45 Q146.084 1162.55 147.89 1166.12 Q149.718 1169.66 153.33 1169.66 Q156.964 1169.66 158.769 1166.12 Q160.598 1162.55 160.598 1155.45 Q160.598 1148.32 158.769 1144.78 Q156.964 1141.21 153.33 1141.21 M153.33 1137.51 Q159.14 1137.51 162.195 1142.11 Q165.274 1146.7 165.274 1155.45 Q165.274 1164.17 162.195 1168.78 Q159.14 1173.36 153.33 1173.36 Q147.519 1173.36 144.441 1168.78 Q141.385 1164.17 141.385 1155.45 Q141.385 1146.7 144.441 1142.11 Q147.519 1137.51 153.33 1137.51 Z" fill="#000000" fill-rule="nonzero" fill-opacity="1" /><path clip-path="url(#clip970)" d="M183.491 1141.21 Q179.88 1141.21 178.052 1144.78 Q176.246 1148.32 176.246 1155.45 Q176.246 1162.55 178.052 1166.12 Q179.88 1169.66 183.491 1169.66 Q187.126 1169.66 188.931 1166.12 Q190.76 1162.55 190.76 1155.45 Q190.76 1148.32 188.931 1144.78 Q187.126 1141.21 183.491 1141.21 M183.491 1137.51 Q189.302 1137.51 192.357 1142.11 Q195.436 1146.7 195.436 1155.45 Q195.436 1164.17 192.357 1168.78 Q189.302 1173.36 183.491 1173.36 Q177.681 1173.36 174.603 1168.78 Q171.547 1164.17 171.547 1155.45 Q171.547 1146.7 174.603 1142.11 Q177.681 1137.51 183.491 1137.51 Z" fill="#000000" fill-rule="nonzero" fill-opacity="1" /><path clip-path="url(#clip970)" d="M51.6634 828.242 L73.8855 828.242 L73.8855 830.232 L61.3393 862.802 L56.4551 862.802 L68.2606 832.177 L51.6634 832.177 L51.6634 828.242 Z" fill="#000000" fill-rule="nonzero" fill-opacity="1" /><path clip-path="url(#clip970)" d="M93.5845 843.658 Q90.4364 843.658 88.5845 845.811 Q86.7558 847.964 86.7558 851.714 Q86.7558 855.441 88.5845 857.617 Q90.4364 859.769 93.5845 859.769 Q96.7326 859.769 98.5613 857.617 Q100.413 855.441 100.413 851.714 Q100.413 847.964 98.5613 845.811 Q96.7326 843.658 93.5845 843.658 M102.867 829.006 L102.867 833.265 Q101.108 832.432 99.3021 831.992 Q97.5197 831.552 95.7604 831.552 Q91.1308 831.552 88.6771 834.677 Q86.2466 837.802 85.8993 844.121 Q87.2651 842.107 89.3253 841.043 Q91.3854 839.955 93.8623 839.955 Q99.0706 839.955 102.08 843.126 Q105.112 846.274 105.112 851.714 Q105.112 857.038 101.964 860.255 Q98.8159 863.473 93.5845 863.473 Q87.5892 863.473 84.4179 858.89 Q81.2466 854.283 81.2466 845.556 Q81.2466 837.362 85.1355 832.501 Q89.0243 827.617 95.5752 827.617 Q97.3345 827.617 99.1169 827.964 Q100.922 828.311 102.867 829.006 Z" fill="#000000" fill-rule="nonzero" fill-opacity="1" /><path clip-path="url(#clip970)" d="M123.168 831.32 Q119.557 831.32 117.728 834.885 Q115.922 838.427 115.922 845.556 Q115.922 852.663 117.728 856.228 Q119.557 859.769 123.168 859.769 Q126.802 859.769 128.607 856.228 Q130.436 852.663 130.436 845.556 Q130.436 838.427 128.607 834.885 Q126.802 831.32 123.168 831.32 M123.168 827.617 Q128.978 827.617 132.033 832.223 Q135.112 836.807 135.112 845.556 Q135.112 854.283 132.033 858.89 Q128.978 863.473 123.168 863.473 Q117.358 863.473 114.279 858.89 Q111.223 854.283 111.223 845.556 Q111.223 836.807 114.279 832.223 Q117.358 827.617 123.168 827.617 Z" fill="#000000" fill-rule="nonzero" fill-opacity="1" /><path clip-path="url(#clip970)" d="M153.33 831.32 Q149.718 831.32 147.89 834.885 Q146.084 838.427 146.084 845.556 Q146.084 852.663 147.89 856.228 Q149.718 859.769 153.33 859.769 Q156.964 859.769 158.769 856.228 Q160.598 852.663 160.598 845.556 Q160.598 838.427 158.769 834.885 Q156.964 831.32 153.33 831.32 M153.33 827.617 Q159.14 827.617 162.195 832.223 Q165.274 836.807 165.274 845.556 Q165.274 854.283 162.195 858.89 Q159.14 863.473 153.33 863.473 Q147.519 863.473 144.441 858.89 Q141.385 854.283 141.385 845.556 Q141.385 836.807 144.441 832.223 Q147.519 827.617 153.33 827.617 Z" fill="#000000" fill-rule="nonzero" fill-opacity="1" /><path clip-path="url(#clip970)" d="M183.491 831.32 Q179.88 831.32 178.052 834.885 Q176.246 838.427 176.246 845.556 Q176.246 852.663 178.052 856.228 Q179.88 859.769 183.491 859.769 Q187.126 859.769 188.931 856.228 Q190.76 852.663 190.76 845.556 Q190.76 838.427 188.931 834.885 Q187.126 831.32 183.491 831.32 M183.491 827.617 Q189.302 827.617 192.357 832.223 Q195.436 836.807 195.436 845.556 Q195.436 854.283 192.357 858.89 Q189.302 863.473 183.491 863.473 Q177.681 863.473 174.603 858.89 Q171.547 854.283 171.547 845.556 Q171.547 836.807 174.603 832.223 Q177.681 827.617 183.491 827.617 Z" fill="#000000" fill-rule="nonzero" fill-opacity="1" /><path clip-path="url(#clip970)" d="M51.6634 518.352 L73.8855 518.352 L73.8855 520.343 L61.3393 552.912 L56.4551 552.912 L68.2606 522.287 L51.6634 522.287 L51.6634 518.352 Z" fill="#000000" fill-rule="nonzero" fill-opacity="1" /><path clip-path="url(#clip970)" d="M93.0058 536.5 Q89.6725 536.5 87.7512 538.282 Q85.8531 540.065 85.8531 543.19 Q85.8531 546.315 87.7512 548.097 Q89.6725 549.88 93.0058 549.88 Q96.3391 549.88 98.2604 548.097 Q100.182 546.292 100.182 543.19 Q100.182 540.065 98.2604 538.282 Q96.3623 536.5 93.0058 536.5 M88.3299 534.509 Q85.3206 533.768 83.6308 531.708 Q81.9642 529.648 81.9642 526.685 Q81.9642 522.542 84.904 520.134 Q87.8669 517.727 93.0058 517.727 Q98.1678 517.727 101.108 520.134 Q104.047 522.542 104.047 526.685 Q104.047 529.648 102.358 531.708 Q100.691 533.768 97.7048 534.509 Q101.084 535.296 102.959 537.588 Q104.858 539.88 104.858 543.19 Q104.858 548.213 101.779 550.898 Q98.7234 553.583 93.0058 553.583 Q87.2882 553.583 84.2095 550.898 Q81.154 548.213 81.154 543.19 Q81.154 539.88 83.0521 537.588 Q84.9503 535.296 88.3299 534.509 M86.6169 527.125 Q86.6169 529.81 88.2836 531.315 Q89.9734 532.819 93.0058 532.819 Q96.015 532.819 97.7048 531.315 Q99.4178 529.81 99.4178 527.125 Q99.4178 524.44 97.7048 522.935 Q96.015 521.431 93.0058 521.431 Q89.9734 521.431 88.2836 522.935 Q86.6169 524.44 86.6169 527.125 Z" fill="#000000" fill-rule="nonzero" fill-opacity="1" /><path clip-path="url(#clip970)" d="M123.168 521.431 Q119.557 521.431 117.728 524.995 Q115.922 528.537 115.922 535.667 Q115.922 542.773 117.728 546.338 Q119.557 549.88 123.168 549.88 Q126.802 549.88 128.607 546.338 Q130.436 542.773 130.436 535.667 Q130.436 528.537 128.607 524.995 Q126.802 521.431 123.168 521.431 M123.168 517.727 Q128.978 517.727 132.033 522.333 Q135.112 526.917 135.112 535.667 Q135.112 544.393 132.033 549 Q128.978 553.583 123.168 553.583 Q117.358 553.583 114.279 549 Q111.223 544.393 111.223 535.667 Q111.223 526.917 114.279 522.333 Q117.358 517.727 123.168 517.727 Z" fill="#000000" fill-rule="nonzero" fill-opacity="1" /><path clip-path="url(#clip970)" d="M153.33 521.431 Q149.718 521.431 147.89 524.995 Q146.084 528.537 146.084 535.667 Q146.084 542.773 147.89 546.338 Q149.718 549.88 153.33 549.88 Q156.964 549.88 158.769 546.338 Q160.598 542.773 160.598 535.667 Q160.598 528.537 158.769 524.995 Q156.964 521.431 153.33 521.431 M153.33 517.727 Q159.14 517.727 162.195 522.333 Q165.274 526.917 165.274 535.667 Q165.274 544.393 162.195 549 Q159.14 553.583 153.33 553.583 Q147.519 553.583 144.441 549 Q141.385 544.393 141.385 535.667 Q141.385 526.917 144.441 522.333 Q147.519 517.727 153.33 517.727 Z" fill="#000000" fill-rule="nonzero" fill-opacity="1" /><path clip-path="url(#clip970)" d="M183.491 521.431 Q179.88 521.431 178.052 524.995 Q176.246 528.537 176.246 535.667 Q176.246 542.773 178.052 546.338 Q179.88 549.88 183.491 549.88 Q187.126 549.88 188.931 546.338 Q190.76 542.773 190.76 535.667 Q190.76 528.537 188.931 524.995 Q187.126 521.431 183.491 521.431 M183.491 517.727 Q189.302 517.727 192.357 522.333 Q195.436 526.917 195.436 535.667 Q195.436 544.393 192.357 549 Q189.302 553.583 183.491 553.583 Q177.681 553.583 174.603 549 Q171.547 544.393 171.547 535.667 Q171.547 526.917 174.603 522.333 Q177.681 517.727 183.491 517.727 Z" fill="#000000" fill-rule="nonzero" fill-opacity="1" /><path clip-path="url(#clip970)" d="M62.8439 226.61 Q59.5106 226.61 57.5893 228.392 Q55.6912 230.175 55.6912 233.3 Q55.6912 236.425 57.5893 238.207 Q59.5106 239.99 62.8439 239.99 Q66.1772 239.99 68.0985 238.207 Q70.0198 236.402 70.0198 233.3 Q70.0198 230.175 68.0985 228.392 Q66.2004 226.61 62.8439 226.61 M58.168 224.619 Q55.1588 223.879 53.469 221.818 Q51.8023 219.758 51.8023 216.795 Q51.8023 212.652 54.7421 210.244 Q57.7051 207.837 62.8439 207.837 Q68.0059 207.837 70.9457 210.244 Q73.8855 212.652 73.8855 216.795 Q73.8855 219.758 72.1957 221.818 Q70.5291 223.879 67.543 224.619 Q70.9226 225.406 72.7976 227.698 Q74.6957 229.99 74.6957 233.3 Q74.6957 238.323 71.617 241.008 Q68.5615 243.693 62.8439 243.693 Q57.1264 243.693 54.0477 241.008 Q50.9921 238.323 50.9921 233.3 Q50.9921 229.99 52.8903 227.698 Q54.7884 225.406 58.168 224.619 M56.4551 217.235 Q56.4551 219.92 58.1217 221.425 Q59.8115 222.93 62.8439 222.93 Q65.8532 222.93 67.543 221.425 Q69.2559 219.92 69.2559 217.235 Q69.2559 214.55 67.543 213.045 Q65.8532 211.541 62.8439 211.541 Q59.8115 211.541 58.1217 213.045 Q56.4551 214.55 56.4551 217.235 Z" fill="#000000" fill-rule="nonzero" fill-opacity="1" /><path clip-path="url(#clip970)" d="M93.0058 211.541 Q89.3947 211.541 87.566 215.106 Q85.7605 218.647 85.7605 225.777 Q85.7605 232.883 87.566 236.448 Q89.3947 239.99 93.0058 239.99 Q96.64 239.99 98.4456 236.448 Q100.274 232.883 100.274 225.777 Q100.274 218.647 98.4456 215.106 Q96.64 211.541 93.0058 211.541 M93.0058 207.837 Q98.8159 207.837 101.871 212.444 Q104.95 217.027 104.95 225.777 Q104.95 234.504 101.871 239.11 Q98.8159 243.693 93.0058 243.693 Q87.1956 243.693 84.1169 239.11 Q81.0614 234.504 81.0614 225.777 Q81.0614 217.027 84.1169 212.444 Q87.1956 207.837 93.0058 207.837 Z" fill="#000000" fill-rule="nonzero" fill-opacity="1" /><path clip-path="url(#clip970)" d="M123.168 211.541 Q119.557 211.541 117.728 215.106 Q115.922 218.647 115.922 225.777 Q115.922 232.883 117.728 236.448 Q119.557 239.99 123.168 239.99 Q126.802 239.99 128.607 236.448 Q130.436 232.883 130.436 225.777 Q130.436 218.647 128.607 215.106 Q126.802 211.541 123.168 211.541 M123.168 207.837 Q128.978 207.837 132.033 212.444 Q135.112 217.027 135.112 225.777 Q135.112 234.504 132.033 239.11 Q128.978 243.693 123.168 243.693 Q117.358 243.693 114.279 239.11 Q111.223 234.504 111.223 225.777 Q111.223 217.027 114.279 212.444 Q117.358 207.837 123.168 207.837 Z" fill="#000000" fill-rule="nonzero" fill-opacity="1" /><path clip-path="url(#clip970)" d="M153.33 211.541 Q149.718 211.541 147.89 215.106 Q146.084 218.647 146.084 225.777 Q146.084 232.883 147.89 236.448 Q149.718 239.99 153.33 239.99 Q156.964 239.99 158.769 236.448 Q160.598 232.883 160.598 225.777 Q160.598 218.647 158.769 215.106 Q156.964 211.541 153.33 211.541 M153.33 207.837 Q159.14 207.837 162.195 212.444 Q165.274 217.027 165.274 225.777 Q165.274 234.504 162.195 239.11 Q159.14 243.693 153.33 243.693 Q147.519 243.693 144.441 239.11 Q141.385 234.504 141.385 225.777 Q141.385 217.027 144.441 212.444 Q147.519 207.837 153.33 207.837 Z" fill="#000000" fill-rule="nonzero" fill-opacity="1" /><path clip-path="url(#clip970)" d="M183.491 211.541 Q179.88 211.541 178.052 215.106 Q176.246 218.647 176.246 225.777 Q176.246 232.883 178.052 236.448 Q179.88 239.99 183.491 239.99 Q187.126 239.99 188.931 236.448 Q190.76 232.883 190.76 225.777 Q190.76 218.647 188.931 215.106 Q187.126 211.541 183.491 211.541 M183.491 207.837 Q189.302 207.837 192.357 212.444 Q195.436 217.027 195.436 225.777 Q195.436 234.504 192.357 239.11 Q189.302 243.693 183.491 243.693 Q177.681 243.693 174.603 239.11 Q171.547 234.504 171.547 225.777 Q171.547 217.027 174.603 212.444 Q177.681 207.837 183.491 207.837 Z" fill="#000000" fill-rule="nonzero" fill-opacity="1" /><path clip-path="url(#clip970)" d="M1262.57 35.2602 Q1262.57 29.4732 1260.17 26.2904 Q1257.79 23.1075 1253.48 23.1075 Q1249.2 23.1075 1246.8 26.2904 Q1244.43 29.4732 1244.43 35.2602 Q1244.43 41.0183 1246.8 44.2012 Q1249.2 47.384 1253.48 47.384 Q1257.79 47.384 1260.17 44.2012 Q1262.57 41.0183 1262.57 35.2602 M1267.89 47.818 Q1267.89 56.0934 1264.22 60.1154 Q1260.54 64.1663 1252.96 64.1663 Q1250.15 64.1663 1247.67 63.7323 Q1245.18 63.3272 1242.83 62.4592 L1242.83 57.2798 Q1245.18 58.5529 1247.46 59.1606 Q1249.75 59.7682 1252.12 59.7682 Q1257.36 59.7682 1259.96 57.0194 Q1262.57 54.2995 1262.57 48.7729 L1262.57 46.1398 Q1260.92 49.0044 1258.34 50.4222 Q1255.77 51.84 1252.18 51.84 Q1246.22 51.84 1242.57 47.2972 Q1238.93 42.7544 1238.93 35.2602 Q1238.93 27.7371 1242.57 23.1943 Q1246.22 18.6515 1252.18 18.6515 Q1255.77 18.6515 1258.34 20.0693 Q1260.92 21.4872 1262.57 24.3517 L1262.57 19.4328 L1267.89 19.4328 L1267.89 47.818 Z" fill="#000000" fill-rule="nonzero" fill-opacity="1" /><path clip-path="url(#clip970)" d="M1300.18 24.3517 L1300.18 6.81709 L1305.51 6.81709 L1305.51 51.84 L1300.18 51.84 L1300.18 46.9789 Q1298.5 49.8724 1295.93 51.2902 Q1293.38 52.6791 1289.8 52.6791 Q1283.92 52.6791 1280.22 47.9916 Q1276.54 43.3042 1276.54 35.6653 Q1276.54 28.0265 1280.22 23.339 Q1283.92 18.6515 1289.8 18.6515 Q1293.38 18.6515 1295.93 20.0693 Q1298.5 21.4582 1300.18 24.3517 M1282.04 35.6653 Q1282.04 41.5391 1284.44 44.8956 Q1286.87 48.2231 1291.1 48.2231 Q1295.32 48.2231 1297.75 44.8956 Q1300.18 41.5391 1300.18 35.6653 Q1300.18 29.7915 1297.75 26.464 Q1295.32 23.1075 1291.1 23.1075 Q1286.87 23.1075 1284.44 26.464 Q1282.04 29.7915 1282.04 35.6653 Z" fill="#000000" fill-rule="nonzero" fill-opacity="1" /><path clip-path="url(#clip970)" d="M1321.62 46.9789 L1321.62 64.1663 L1316.27 64.1663 L1316.27 19.4328 L1321.62 19.4328 L1321.62 24.3517 Q1323.3 21.4582 1325.85 20.0693 Q1328.42 18.6515 1331.98 18.6515 Q1337.89 18.6515 1341.56 23.339 Q1345.26 28.0265 1345.26 35.6653 Q1345.26 43.3042 1341.56 47.9916 Q1337.89 52.6791 1331.98 52.6791 Q1328.42 52.6791 1325.85 51.2902 Q1323.3 49.8724 1321.62 46.9789 M1339.74 35.6653 Q1339.74 29.7915 1337.31 26.464 Q1334.91 23.1075 1330.68 23.1075 Q1326.46 23.1075 1324.03 26.464 Q1321.62 29.7915 1321.62 35.6653 Q1321.62 41.5391 1324.03 44.8956 Q1326.46 48.2231 1330.68 48.2231 Q1334.91 48.2231 1337.31 44.8956 Q1339.74 41.5391 1339.74 35.6653 Z" fill="#000000" fill-rule="nonzero" fill-opacity="1" /><polyline clip-path="url(#clip972)" style="stroke:#009af9; stroke-linecap:round; stroke-linejoin:round; stroke-width:4; stroke-opacity:1; fill:none" points="291.473,1399.91 416.551,1447.38 541.629,1253.69 666.707,145.256 791.785,551.407 916.862,654.454 1041.94,592.035 1167.02,878.6 1292.1,793.905 1417.17,860.315 1542.25,707.142 1667.33,899.733 1792.41,710.256 1917.49,554.051 2042.56,479.235 2167.64,426.154 2292.72,392.701 "/>
<path clip-path="url(#clip970)" d="M2017.48 1440.44 L2282.05 1440.44 L2282.05 1336.76 L2017.48 1336.76  Z" fill="#ffffff" fill-rule="evenodd" fill-opacity="1"/>
<polyline clip-path="url(#clip970)" style="stroke:#000000; stroke-linecap:round; stroke-linejoin:round; stroke-width:4; stroke-opacity:1; fill:none" points="2017.48,1440.44 2282.05,1440.44 2282.05,1336.76 2017.48,1336.76 2017.48,1440.44 "/>
<polyline clip-path="url(#clip970)" style="stroke:#009af9; stroke-linecap:round; stroke-linejoin:round; stroke-width:4; stroke-opacity:1; fill:none" points="2041.05,1388.6 2182.47,1388.6 "/>
<path clip-path="url(#clip970)" d="M2219.89 1408.29 Q2218.08 1412.92 2216.37 1414.33 Q2214.66 1415.74 2211.79 1415.74 L2208.38 1415.74 L2208.38 1412.18 L2210.88 1412.18 Q2212.64 1412.18 2213.61 1411.34 Q2214.59 1410.51 2215.77 1407.41 L2216.53 1405.46 L2206.04 1379.95 L2210.56 1379.95 L2218.66 1400.23 L2226.76 1379.95 L2231.28 1379.95 L2219.89 1408.29 Z" fill="#000000" fill-rule="nonzero" fill-opacity="1" /><path clip-path="url(#clip970)" d="M2238.57 1401.94 L2246.21 1401.94 L2246.21 1375.58 L2237.9 1377.25 L2237.9 1372.99 L2246.16 1371.32 L2250.84 1371.32 L2250.84 1401.94 L2258.48 1401.94 L2258.48 1405.88 L2238.57 1405.88 L2238.57 1401.94 Z" fill="#000000" fill-rule="nonzero" fill-opacity="1" /></svg>
