<?xml version="1.0" encoding="utf-8"?>
<svg xmlns="http://www.w3.org/2000/svg" xmlns:xlink="http://www.w3.org/1999/xlink" width="600" height="300" viewBox="0 0 2400 1200">
<defs>
  <clipPath id="clip910">
    <rect x="0" y="0" width="2400" height="1200"/>
  </clipPath>
</defs>
<path clip-path="url(#clip910)" d="M0 1200 L2400 1200 L2400 0 L0 0  Z" fill="#ffffff" fill-rule="evenodd" fill-opacity="1"/>
<defs>
  <clipPath id="clip911">
    <rect x="480" y="0" width="1681" height="1200"/>
  </clipPath>
</defs>
<path clip-path="url(#clip910)" d="M216.436 1099.09 L1168.64 1099.09 L1168.64 92.1521 L216.436 92.1521  Z" fill="#ffffff" fill-rule="evenodd" fill-opacity="1"/>
<defs>
  <clipPath id="clip912">
    <rect x="216" y="92" width="953" height="1008"/>
  </clipPath>
</defs>
<polyline clip-path="url(#clip912)" style="stroke:#000000; stroke-linecap:round; stroke-linejoin:round; stroke-width:2; stroke-opacity:0.1; fill:none" points="423.045,1099.09 423.045,92.1521 "/>
<polyline clip-path="url(#clip912)" style="stroke:#000000; stroke-linecap:round; stroke-linejoin:round; stroke-width:2; stroke-opacity:0.1; fill:none" points="647.621,1099.09 647.621,92.1521 "/>
<polyline clip-path="url(#clip912)" style="stroke:#000000; stroke-linecap:round; stroke-linejoin:round; stroke-width:2; stroke-opacity:0.1; fill:none" points="872.196,1099.09 872.196,92.1521 "/>
<polyline clip-path="url(#clip912)" style="stroke:#000000; stroke-linecap:round; stroke-linejoin:round; stroke-width:2; stroke-opacity:0.1; fill:none" points="1096.77,1099.09 1096.77,92.1521 "/>
<polyline clip-path="url(#clip912)" style="stroke:#000000; stroke-linecap:round; stroke-linejoin:round; stroke-width:2; stroke-opacity:0.1; fill:none" points="216.436,1086.42 1168.64,1086.42 "/>
<polyline clip-path="url(#clip912)" style="stroke:#000000; stroke-linecap:round; stroke-linejoin:round; stroke-width:2; stroke-opacity:0.1; fill:none" points="216.436,844.98 1168.64,844.98 "/>
<polyline clip-path="url(#clip912)" style="stroke:#000000; stroke-linecap:round; stroke-linejoin:round; stroke-width:2; stroke-opacity:0.1; fill:none" points="216.436,603.537 1168.64,603.537 "/>
<polyline clip-path="url(#clip912)" style="stroke:#000000; stroke-linecap:round; stroke-linejoin:round; stroke-width:2; stroke-opacity:0.1; fill:none" points="216.436,362.094 1168.64,362.094 "/>
<polyline clip-path="url(#clip912)" style="stroke:#000000; stroke-linecap:round; stroke-linejoin:round; stroke-width:2; stroke-opacity:0.1; fill:none" points="216.436,120.65 1168.64,120.65 "/>
<polyline clip-path="url(#clip910)" style="stroke:#000000; stroke-linecap:round; stroke-linejoin:round; stroke-width:4; stroke-opacity:1; fill:none" points="216.436,1099.09 1168.64,1099.09 "/>
<polyline clip-path="url(#clip910)" style="stroke:#000000; stroke-linecap:round; stroke-linejoin:round; stroke-width:4; stroke-opacity:1; fill:none" points="423.045,1099.09 423.045,1080.19 "/>
<polyline clip-path="url(#clip910)" style="stroke:#000000; stroke-linecap:round; stroke-linejoin:round; stroke-width:4; stroke-opacity:1; fill:none" points="647.621,1099.09 647.621,1080.19 "/>
<polyline clip-path="url(#clip910)" style="stroke:#000000; stroke-linecap:round; stroke-linejoin:round; stroke-width:4; stroke-opacity:1; fill:none" points="872.196,1099.09 872.196,1080.19 "/>
<polyline clip-path="url(#clip910)" style="stroke:#000000; stroke-linecap:round; stroke-linejoin:round; stroke-width:4; stroke-opacity:1; fill:none" points="1096.77,1099.09 1096.77,1080.19 "/>
<path clip-path="url(#clip910)" d="M413.323 1126.93 L431.679 1126.93 L431.679 1130.86 L417.605 1130.86 L417.605 1139.34 Q418.624 1138.99 419.642 1138.83 Q420.661 1138.64 421.679 1138.64 Q427.466 1138.64 430.846 1141.81 Q434.226 1144.98 434.226 1150.4 Q434.226 1155.98 430.754 1159.08 Q427.281 1162.16 420.962 1162.16 Q418.786 1162.16 416.517 1161.79 Q414.272 1161.42 411.865 1160.68 L411.865 1155.98 Q413.948 1157.11 416.17 1157.67 Q418.392 1158.22 420.869 1158.22 Q424.874 1158.22 427.212 1156.12 Q429.55 1154.01 429.55 1150.4 Q429.55 1146.79 427.212 1144.68 Q424.874 1142.58 420.869 1142.58 Q418.994 1142.58 417.119 1142.99 Q415.267 1143.41 413.323 1144.29 L413.323 1126.93 Z" fill="#000000" fill-rule="nonzero" fill-opacity="1" /><path clip-path="url(#clip910)" d="M622.308 1157.55 L629.947 1157.55 L629.947 1131.19 L621.637 1132.85 L621.637 1128.59 L629.901 1126.93 L634.577 1126.93 L634.577 1157.55 L642.216 1157.55 L642.216 1161.49 L622.308 1161.49 L622.308 1157.55 Z" fill="#000000" fill-rule="nonzero" fill-opacity="1" /><path clip-path="url(#clip910)" d="M661.66 1130.01 Q658.049 1130.01 656.22 1133.57 Q654.415 1137.11 654.415 1144.24 Q654.415 1151.35 656.22 1154.91 Q658.049 1158.46 661.66 1158.46 Q665.294 1158.46 667.1 1154.91 Q668.928 1151.35 668.928 1144.24 Q668.928 1137.11 667.1 1133.57 Q665.294 1130.01 661.66 1130.01 M661.66 1126.3 Q667.47 1126.3 670.526 1130.91 Q673.604 1135.49 673.604 1144.24 Q673.604 1152.97 670.526 1157.58 Q667.47 1162.16 661.66 1162.16 Q655.85 1162.16 652.771 1157.58 Q649.715 1152.97 649.715 1144.24 Q649.715 1135.49 652.771 1130.91 Q655.85 1126.3 661.66 1126.3 Z" fill="#000000" fill-rule="nonzero" fill-opacity="1" /><path clip-path="url(#clip910)" d="M847.381 1157.55 L855.02 1157.55 L855.02 1131.19 L846.71 1132.85 L846.71 1128.59 L854.974 1126.93 L859.65 1126.93 L859.65 1157.55 L867.289 1157.55 L867.289 1161.49 L847.381 1161.49 L847.381 1157.55 Z" fill="#000000" fill-rule="nonzero" fill-opacity="1" /><path clip-path="url(#clip910)" d="M876.779 1126.93 L895.136 1126.93 L895.136 1130.86 L881.062 1130.86 L881.062 1139.34 Q882.08 1138.99 883.099 1138.83 Q884.117 1138.64 885.136 1138.64 Q890.923 1138.64 894.302 1141.81 Q897.682 1144.98 897.682 1150.4 Q897.682 1155.98 894.21 1159.08 Q890.738 1162.16 884.418 1162.16 Q882.242 1162.16 879.974 1161.79 Q877.728 1161.42 875.321 1160.68 L875.321 1155.98 Q877.404 1157.11 879.626 1157.67 Q881.849 1158.22 884.326 1158.22 Q888.33 1158.22 890.668 1156.12 Q893.006 1154.01 893.006 1150.4 Q893.006 1146.79 890.668 1144.68 Q888.33 1142.58 884.326 1142.58 Q882.451 1142.58 880.576 1142.99 Q878.724 1143.41 876.779 1144.29 L876.779 1126.93 Z" fill="#000000" fill-rule="nonzero" fill-opacity="1" /><path clip-path="url(#clip910)" d="M1075.54 1157.55 L1091.86 1157.55 L1091.86 1161.49 L1069.92 1161.49 L1069.92 1157.55 Q1072.58 1154.8 1077.16 1150.17 Q1081.77 1145.52 1082.95 1144.17 Q1085.2 1141.65 1086.08 1139.91 Q1086.98 1138.15 1086.98 1136.46 Q1086.98 1133.71 1085.04 1131.97 Q1083.11 1130.24 1080.01 1130.24 Q1077.81 1130.24 1075.36 1131 Q1072.93 1131.77 1070.15 1133.32 L1070.15 1128.59 Q1072.98 1127.46 1075.43 1126.88 Q1077.88 1126.3 1079.92 1126.3 Q1085.29 1126.3 1088.48 1128.99 Q1091.68 1131.67 1091.68 1136.16 Q1091.68 1138.29 1090.87 1140.21 Q1090.08 1142.11 1087.98 1144.71 Q1087.4 1145.38 1084.29 1148.59 Q1081.19 1151.79 1075.54 1157.55 Z" fill="#000000" fill-rule="nonzero" fill-opacity="1" /><path clip-path="url(#clip910)" d="M1111.68 1130.01 Q1108.07 1130.01 1106.24 1133.57 Q1104.43 1137.11 1104.43 1144.24 Q1104.43 1151.35 1106.24 1154.91 Q1108.07 1158.46 1111.68 1158.46 Q1115.31 1158.46 1117.12 1154.91 Q1118.95 1151.35 1118.95 1144.24 Q1118.95 1137.11 1117.12 1133.57 Q1115.31 1130.01 1111.68 1130.01 M1111.68 1126.3 Q1117.49 1126.3 1120.54 1130.91 Q1123.62 1135.49 1123.62 1144.24 Q1123.62 1152.97 1120.54 1157.58 Q1117.49 1162.16 1111.68 1162.16 Q1105.87 1162.16 1102.79 1157.58 Q1099.73 1152.97 1099.73 1144.24 Q1099.73 1135.49 1102.79 1130.91 Q1105.87 1126.3 1111.68 1126.3 Z" fill="#000000" fill-rule="nonzero" fill-opacity="1" /><polyline clip-path="url(#clip910)" style="stroke:#000000; stroke-linecap:round; stroke-linejoin:round; stroke-width:4; stroke-opacity:1; fill:none" points="216.436,1099.09 216.436,92.1521 "/>
<polyline clip-path="url(#clip910)" style="stroke:#000000; stroke-linecap:round; stroke-linejoin:round; stroke-width:4; stroke-opacity:1; fill:none" points="216.436,1086.42 235.334,1086.42 "/>
<polyline clip-path="url(#clip910)" style="stroke:#000000; stroke-linecap:round; stroke-linejoin:round; stroke-width:4; stroke-opacity:1; fill:none" points="216.436,844.98 235.334,844.98 "/>
<polyline clip-path="url(#clip910)" style="stroke:#000000; stroke-linecap:round; stroke-linejoin:round; stroke-width:4; stroke-opacity:1; fill:none" points="216.436,603.537 235.334,603.537 "/>
<polyline clip-path="url(#clip910)" style="stroke:#000000; stroke-linecap:round; stroke-linejoin:round; stroke-width:4; stroke-opacity:1; fill:none" points="216.436,362.094 235.334,362.094 "/>
<polyline clip-path="url(#clip910)" style="stroke:#000000; stroke-linecap:round; stroke-linejoin:round; stroke-width:4; stroke-opacity:1; fill:none" points="216.436,120.65 235.334,120.65 "/>
<path clip-path="url(#clip910)" d="M62.9365 1072.22 Q59.3254 1072.22 57.4967 1075.79 Q55.6912 1079.33 55.6912 1086.46 Q55.6912 1093.56 57.4967 1097.13 Q59.3254 1100.67 62.9365 1100.67 Q66.5707 1100.67 68.3763 1097.13 Q70.205 1093.56 70.205 1086.46 Q70.205 1079.33 68.3763 1075.79 Q66.5707 1072.22 62.9365 1072.22 M62.9365 1068.52 Q68.7467 1068.52 71.8022 1073.12 Q74.8809 1077.71 74.8809 1086.46 Q74.8809 1095.18 71.8022 1099.79 Q68.7467 1104.37 62.9365 1104.37 Q57.1264 1104.37 54.0477 1099.79 Q50.9921 1095.18 50.9921 1086.46 Q50.9921 1077.71 54.0477 1073.12 Q57.1264 1068.52 62.9365 1068.52 Z" fill="#000000" fill-rule="nonzero" fill-opacity="1" /><path clip-path="url(#clip910)" d="M83.0984 1097.82 L87.9827 1097.82 L87.9827 1103.7 L83.0984 1103.7 L83.0984 1097.82 Z" fill="#000000" fill-rule="nonzero" fill-opacity="1" /><path clip-path="url(#clip910)" d="M108.168 1072.22 Q104.557 1072.22 102.728 1075.79 Q100.922 1079.33 100.922 1086.46 Q100.922 1093.56 102.728 1097.13 Q104.557 1100.67 108.168 1100.67 Q111.802 1100.67 113.608 1097.13 Q115.436 1093.56 115.436 1086.46 Q115.436 1079.33 113.608 1075.79 Q111.802 1072.22 108.168 1072.22 M108.168 1068.52 Q113.978 1068.52 117.033 1073.12 Q120.112 1077.71 120.112 1086.46 Q120.112 1095.18 117.033 1099.79 Q113.978 1104.37 108.168 1104.37 Q102.358 1104.37 99.2789 1099.79 Q96.2234 1095.18 96.2234 1086.46 Q96.2234 1077.71 99.2789 1073.12 Q102.358 1068.52 108.168 1068.52 Z" fill="#000000" fill-rule="nonzero" fill-opacity="1" /><path clip-path="url(#clip910)" d="M138.33 1072.22 Q134.719 1072.22 132.89 1075.79 Q131.084 1079.33 131.084 1086.46 Q131.084 1093.56 132.89 1097.13 Q134.719 1100.67 138.33 1100.67 Q141.964 1100.67 143.769 1097.13 Q145.598 1093.56 145.598 1086.46 Q145.598 1079.33 143.769 1075.79 Q141.964 1072.22 138.33 1072.22 M138.33 1068.52 Q144.14 1068.52 147.195 1073.12 Q150.274 1077.71 150.274 1086.46 Q150.274 1095.18 147.195 1099.79 Q144.14 1104.37 138.33 1104.37 Q132.519 1104.37 129.441 1099.79 Q126.385 1095.18 126.385 1086.46 Q126.385 1077.71 129.441 1073.12 Q132.519 1068.52 138.33 1068.52 Z" fill="#000000" fill-rule="nonzero" fill-opacity="1" /><path clip-path="url(#clip910)" d="M168.491 1072.22 Q164.88 1072.22 163.052 1075.79 Q161.246 1079.33 161.246 1086.46 Q161.246 1093.56 163.052 1097.13 Q164.88 1100.67 168.491 1100.67 Q172.126 1100.67 173.931 1097.13 Q175.76 1093.56 175.76 1086.46 Q175.76 1079.33 173.931 1075.79 Q172.126 1072.22 168.491 1072.22 M168.491 1068.52 Q174.302 1068.52 177.357 1073.12 Q180.436 1077.71 180.436 1086.46 Q180.436 1095.18 177.357 1099.79 Q174.302 1104.37 168.491 1104.37 Q162.681 1104.37 159.603 1099.79 Q156.547 1095.18 156.547 1086.46 Q156.547 1077.71 159.603 1073.12 Q162.681 1068.52 168.491 1068.52 Z" fill="#000000" fill-rule="nonzero" fill-opacity="1" /><path clip-path="url(#clip910)" d="M63.9319 830.779 Q60.3208 830.779 58.4921 834.344 Q56.6865 837.885 56.6865 845.015 Q56.6865 852.121 58.4921 855.686 Q60.3208 859.228 63.9319 859.228 Q67.5661 859.228 69.3717 855.686 Q71.2004 852.121 71.2004 845.015 Q71.2004 837.885 69.3717 834.344 Q67.5661 830.779 63.9319 830.779 M63.9319 827.075 Q69.742 827.075 72.7976 831.682 Q75.8763 836.265 75.8763 845.015 Q75.8763 853.742 72.7976 858.348 Q69.742 862.931 63.9319 862.931 Q58.1217 862.931 55.043 858.348 Q51.9875 853.742 51.9875 845.015 Q51.9875 836.265 55.043 831.682 Q58.1217 827.075 63.9319 827.075 Z" fill="#000000" fill-rule="nonzero" fill-opacity="1" /><path clip-path="url(#clip910)" d="M84.0938 856.381 L88.978 856.381 L88.978 862.26 L84.0938 862.26 L84.0938 856.381 Z" fill="#000000" fill-rule="nonzero" fill-opacity="1" /><path clip-path="url(#clip910)" d="M109.163 830.779 Q105.552 830.779 103.723 834.344 Q101.918 837.885 101.918 845.015 Q101.918 852.121 103.723 855.686 Q105.552 859.228 109.163 859.228 Q112.797 859.228 114.603 855.686 Q116.432 852.121 116.432 845.015 Q116.432 837.885 114.603 834.344 Q112.797 830.779 109.163 830.779 M109.163 827.075 Q114.973 827.075 118.029 831.682 Q121.107 836.265 121.107 845.015 Q121.107 853.742 118.029 858.348 Q114.973 862.931 109.163 862.931 Q103.353 862.931 100.274 858.348 Q97.2187 853.742 97.2187 845.015 Q97.2187 836.265 100.274 831.682 Q103.353 827.075 109.163 827.075 Z" fill="#000000" fill-rule="nonzero" fill-opacity="1" /><path clip-path="url(#clip910)" d="M139.325 830.779 Q135.714 830.779 133.885 834.344 Q132.08 837.885 132.08 845.015 Q132.08 852.121 133.885 855.686 Q135.714 859.228 139.325 859.228 Q142.959 859.228 144.765 855.686 Q146.593 852.121 146.593 845.015 Q146.593 837.885 144.765 834.344 Q142.959 830.779 139.325 830.779 M139.325 827.075 Q145.135 827.075 148.191 831.682 Q151.269 836.265 151.269 845.015 Q151.269 853.742 148.191 858.348 Q145.135 862.931 139.325 862.931 Q133.515 862.931 130.436 858.348 Q127.381 853.742 127.381 845.015 Q127.381 836.265 130.436 831.682 Q133.515 827.075 139.325 827.075 Z" fill="#000000" fill-rule="nonzero" fill-opacity="1" /><path clip-path="url(#clip910)" d="M159.533 827.7 L177.89 827.7 L177.89 831.635 L163.816 831.635 L163.816 840.108 Q164.834 839.76 165.853 839.598 Q166.871 839.413 167.89 839.413 Q173.677 839.413 177.056 842.584 Q180.436 845.756 180.436 851.172 Q180.436 856.751 176.964 859.853 Q173.491 862.931 167.172 862.931 Q164.996 862.931 162.728 862.561 Q160.482 862.191 158.075 861.45 L158.075 856.751 Q160.158 857.885 162.38 858.441 Q164.603 858.996 167.079 858.996 Q171.084 858.996 173.422 856.89 Q175.76 854.783 175.76 851.172 Q175.76 847.561 173.422 845.455 Q171.084 843.348 167.079 843.348 Q165.204 843.348 163.329 843.765 Q161.478 844.182 159.533 845.061 L159.533 827.7 Z" fill="#000000" fill-rule="nonzero" fill-opacity="1" /><path clip-path="url(#clip910)" d="M62.9365 589.336 Q59.3254 589.336 57.4967 592.9 Q55.6912 596.442 55.6912 603.572 Q55.6912 610.678 57.4967 614.243 Q59.3254 617.784 62.9365 617.784 Q66.5707 617.784 68.3763 614.243 Q70.205 610.678 70.205 603.572 Q70.205 596.442 68.3763 592.9 Q66.5707 589.336 62.9365 589.336 M62.9365 585.632 Q68.7467 585.632 71.8022 590.238 Q74.8809 594.822 74.8809 603.572 Q74.8809 612.298 71.8022 616.905 Q68.7467 621.488 62.9365 621.488 Q57.1264 621.488 54.0477 616.905 Q50.9921 612.298 50.9921 603.572 Q50.9921 594.822 54.0477 590.238 Q57.1264 585.632 62.9365 585.632 Z" fill="#000000" fill-rule="nonzero" fill-opacity="1" /><path clip-path="url(#clip910)" d="M83.0984 614.937 L87.9827 614.937 L87.9827 620.817 L83.0984 620.817 L83.0984 614.937 Z" fill="#000000" fill-rule="nonzero" fill-opacity="1" /><path clip-path="url(#clip910)" d="M108.168 589.336 Q104.557 589.336 102.728 592.9 Q100.922 596.442 100.922 603.572 Q100.922 610.678 102.728 614.243 Q104.557 617.784 108.168 617.784 Q111.802 617.784 113.608 614.243 Q115.436 610.678 115.436 603.572 Q115.436 596.442 113.608 592.9 Q111.802 589.336 108.168 589.336 M108.168 585.632 Q113.978 585.632 117.033 590.238 Q120.112 594.822 120.112 603.572 Q120.112 612.298 117.033 616.905 Q113.978 621.488 108.168 621.488 Q102.358 621.488 99.2789 616.905 Q96.2234 612.298 96.2234 603.572 Q96.2234 594.822 99.2789 590.238 Q102.358 585.632 108.168 585.632 Z" fill="#000000" fill-rule="nonzero" fill-opacity="1" /><path clip-path="url(#clip910)" d="M129.14 616.882 L136.779 616.882 L136.779 590.516 L128.469 592.183 L128.469 587.924 L136.732 586.257 L141.408 586.257 L141.408 616.882 L149.047 616.882 L149.047 620.817 L129.14 620.817 L129.14 616.882 Z" fill="#000000" fill-rule="nonzero" fill-opacity="1" /><path clip-path="url(#clip910)" d="M168.491 589.336 Q164.88 589.336 163.052 592.9 Q161.246 596.442 161.246 603.572 Q161.246 610.678 163.052 614.243 Q164.88 617.784 168.491 617.784 Q172.126 617.784 173.931 614.243 Q175.76 610.678 175.76 603.572 Q175.76 596.442 173.931 592.9 Q172.126 589.336 168.491 589.336 M168.491 585.632 Q174.302 585.632 177.357 590.238 Q180.436 594.822 180.436 603.572 Q180.436 612.298 177.357 616.905 Q174.302 621.488 168.491 621.488 Q162.681 621.488 159.603 616.905 Q156.547 612.298 156.547 603.572 Q156.547 594.822 159.603 590.238 Q162.681 585.632 168.491 585.632 Z" fill="#000000" fill-rule="nonzero" fill-opacity="1" /><path clip-path="url(#clip910)" d="M63.9319 347.892 Q60.3208 347.892 58.4921 351.457 Q56.6865 354.999 56.6865 362.128 Q56.6865 369.235 58.4921 372.8 Q60.3208 376.341 63.9319 376.341 Q67.5661 376.341 69.3717 372.8 Q71.2004 369.235 71.2004 362.128 Q71.2004 354.999 69.3717 351.457 Q67.5661 347.892 63.9319 347.892 M63.9319 344.189 Q69.742 344.189 72.7976 348.795 Q75.8763 353.378 75.8763 362.128 Q75.8763 370.855 72.7976 375.462 Q69.742 380.045 63.9319 380.045 Q58.1217 380.045 55.043 375.462 Q51.9875 370.855 51.9875 362.128 Q51.9875 353.378 55.043 348.795 Q58.1217 344.189 63.9319 344.189 Z" fill="#000000" fill-rule="nonzero" fill-opacity="1" /><path clip-path="url(#clip910)" d="M84.0938 373.494 L88.978 373.494 L88.978 379.374 L84.0938 379.374 L84.0938 373.494 Z" fill="#000000" fill-rule="nonzero" fill-opacity="1" /><path clip-path="url(#clip910)" d="M109.163 347.892 Q105.552 347.892 103.723 351.457 Q101.918 354.999 101.918 362.128 Q101.918 369.235 103.723 372.8 Q105.552 376.341 109.163 376.341 Q112.797 376.341 114.603 372.8 Q116.432 369.235 116.432 362.128 Q116.432 354.999 114.603 351.457 Q112.797 347.892 109.163 347.892 M109.163 344.189 Q114.973 344.189 118.029 348.795 Q121.107 353.378 121.107 362.128 Q121.107 370.855 118.029 375.462 Q114.973 380.045 109.163 380.045 Q103.353 380.045 100.274 375.462 Q97.2187 370.855 97.2187 362.128 Q97.2187 353.378 100.274 348.795 Q103.353 344.189 109.163 344.189 Z" fill="#000000" fill-rule="nonzero" fill-opacity="1" /><path clip-path="url(#clip910)" d="M130.135 375.438 L137.774 375.438 L137.774 349.073 L129.464 350.739 L129.464 346.48 L137.728 344.814 L142.404 344.814 L142.404 375.438 L150.043 375.438 L150.043 379.374 L130.135 379.374 L130.135 375.438 Z" fill="#000000" fill-rule="nonzero" fill-opacity="1" /><path clip-path="url(#clip910)" d="M159.533 344.814 L177.89 344.814 L177.89 348.749 L163.816 348.749 L163.816 357.221 Q164.834 356.874 165.853 356.712 Q166.871 356.526 167.89 356.526 Q173.677 356.526 177.056 359.698 Q180.436 362.869 180.436 368.286 Q180.436 373.864 176.964 376.966 Q173.491 380.045 167.172 380.045 Q164.996 380.045 162.728 379.675 Q160.482 379.304 158.075 378.563 L158.075 373.864 Q160.158 374.999 162.38 375.554 Q164.603 376.11 167.079 376.11 Q171.084 376.11 173.422 374.003 Q175.76 371.897 175.76 368.286 Q175.76 364.675 173.422 362.568 Q171.084 360.462 167.079 360.462 Q165.204 360.462 163.329 360.878 Q161.478 361.295 159.533 362.175 L159.533 344.814 Z" fill="#000000" fill-rule="nonzero" fill-opacity="1" /><path clip-path="url(#clip910)" d="M62.9365 106.449 Q59.3254 106.449 57.4967 110.014 Q55.6912 113.555 55.6912 120.685 Q55.6912 127.791 57.4967 131.356 Q59.3254 134.898 62.9365 134.898 Q66.5707 134.898 68.3763 131.356 Q70.205 127.791 70.205 120.685 Q70.205 113.555 68.3763 110.014 Q66.5707 106.449 62.9365 106.449 M62.9365 102.745 Q68.7467 102.745 71.8022 107.352 Q74.8809 111.935 74.8809 120.685 Q74.8809 129.412 71.8022 134.018 Q68.7467 138.602 62.9365 138.602 Q57.1264 138.602 54.0477 134.018 Q50.9921 129.412 50.9921 120.685 Q50.9921 111.935 54.0477 107.352 Q57.1264 102.745 62.9365 102.745 Z" fill="#000000" fill-rule="nonzero" fill-opacity="1" /><path clip-path="url(#clip910)" d="M83.0984 132.051 L87.9827 132.051 L87.9827 137.93 L83.0984 137.93 L83.0984 132.051 Z" fill="#000000" fill-rule="nonzero" fill-opacity="1" /><path clip-path="url(#clip910)" d="M108.168 106.449 Q104.557 106.449 102.728 110.014 Q100.922 113.555 100.922 120.685 Q100.922 127.791 102.728 131.356 Q104.557 134.898 108.168 134.898 Q111.802 134.898 113.608 131.356 Q115.436 127.791 115.436 120.685 Q115.436 113.555 113.608 110.014 Q111.802 106.449 108.168 106.449 M108.168 102.745 Q113.978 102.745 117.033 107.352 Q120.112 111.935 120.112 120.685 Q120.112 129.412 117.033 134.018 Q113.978 138.602 108.168 138.602 Q102.358 138.602 99.2789 134.018 Q96.2234 129.412 96.2234 120.685 Q96.2234 111.935 99.2789 107.352 Q102.358 102.745 108.168 102.745 Z" fill="#000000" fill-rule="nonzero" fill-opacity="1" /><path clip-path="url(#clip910)" d="M132.357 133.995 L148.677 133.995 L148.677 137.93 L126.732 137.93 L126.732 133.995 Q129.394 131.241 133.978 126.611 Q138.584 121.958 139.765 120.616 Q142.01 118.092 142.89 116.356 Q143.793 114.597 143.793 112.907 Q143.793 110.153 141.848 108.417 Q139.927 106.68 136.825 106.68 Q134.626 106.68 132.172 107.444 Q129.742 108.208 126.964 109.759 L126.964 105.037 Q129.788 103.903 132.242 103.324 Q134.695 102.745 136.732 102.745 Q142.103 102.745 145.297 105.43 Q148.492 108.116 148.492 112.606 Q148.492 114.736 147.681 116.657 Q146.894 118.555 144.788 121.148 Q144.209 121.819 141.107 125.037 Q138.006 128.231 132.357 133.995 Z" fill="#000000" fill-rule="nonzero" fill-opacity="1" /><path clip-path="url(#clip910)" d="M168.491 106.449 Q164.88 106.449 163.052 110.014 Q161.246 113.555 161.246 120.685 Q161.246 127.791 163.052 131.356 Q164.88 134.898 168.491 134.898 Q172.126 134.898 173.931 131.356 Q175.76 127.791 175.76 120.685 Q175.76 113.555 173.931 110.014 Q172.126 106.449 168.491 106.449 M168.491 102.745 Q174.302 102.745 177.357 107.352 Q180.436 111.935 180.436 120.685 Q180.436 129.412 177.357 134.018 Q174.302 138.602 168.491 138.602 Q162.681 138.602 159.603 134.018 Q156.547 129.412 156.547 120.685 Q156.547 111.935 159.603 107.352 Q162.681 102.745 168.491 102.745 Z" fill="#000000" fill-rule="nonzero" fill-opacity="1" /><path clip-path="url(#clip910)" d="M625.153 30.8748 L625.153 33.2186 L603.122 33.2186 Q603.435 38.1665 606.091 40.7706 Q608.773 43.3487 613.539 43.3487 Q616.299 43.3487 618.877 42.6716 Q621.481 41.9946 624.033 40.6404 L624.033 45.1716 Q621.455 46.2654 618.747 46.8383 Q616.039 47.4112 613.252 47.4112 Q606.273 47.4112 602.185 43.3487 Q598.122 39.2862 598.122 32.3592 Q598.122 25.1978 601.976 21.0051 Q605.856 16.7864 612.419 16.7864 Q618.304 16.7864 621.716 20.5884 Q625.153 24.3645 625.153 30.8748 M620.362 29.4686 Q620.309 25.5363 618.148 23.1926 Q616.013 20.8488 612.471 20.8488 Q608.461 20.8488 606.039 23.1145 Q603.643 25.3801 603.278 29.4946 L620.362 29.4686 Z" fill="#000000" fill-rule="nonzero" fill-opacity="1" /><path clip-path="url(#clip910)" d="M632.523 35.1456 L632.523 17.4895 L637.315 17.4895 L637.315 34.9634 Q637.315 39.104 638.929 41.1873 Q640.544 43.2446 643.773 43.2446 Q647.653 43.2446 649.893 40.7706 Q652.158 38.2967 652.158 34.0259 L652.158 17.4895 L656.95 17.4895 L656.95 46.656 L652.158 46.656 L652.158 42.1769 Q650.413 44.8331 648.096 46.1352 Q645.804 47.4112 642.757 47.4112 Q637.731 47.4112 635.127 44.2862 Q632.523 41.1612 632.523 35.1456 M644.58 16.7864 L644.58 16.7864 Z" fill="#000000" fill-rule="nonzero" fill-opacity="1" /><path clip-path="url(#clip910)" d="M683.721 21.9686 Q682.913 21.4999 681.95 21.2916 Q681.012 21.0572 679.866 21.0572 Q675.804 21.0572 673.616 23.7134 Q671.455 26.3436 671.455 31.2915 L671.455 46.656 L666.637 46.656 L666.637 17.4895 L671.455 17.4895 L671.455 22.0207 Q672.965 19.3645 675.387 18.0884 Q677.809 16.7864 681.273 16.7864 Q681.767 16.7864 682.366 16.8645 Q682.965 16.9166 683.695 17.0468 L683.721 21.9686 Z" fill="#000000" fill-rule="nonzero" fill-opacity="1" /><path clip-path="url(#clip910)" d="M688.747 17.4895 L693.538 17.4895 L693.538 46.656 L688.747 46.656 L688.747 17.4895 M688.747 6.13538 L693.538 6.13538 L693.538 12.2031 L688.747 12.2031 L688.747 6.13538 Z" fill="#000000" fill-rule="nonzero" fill-opacity="1" /><path clip-path="url(#clip910)" d="M724.502 32.0988 Q724.502 26.8124 722.314 23.8176 Q720.153 20.7968 716.351 20.7968 Q712.549 20.7968 710.361 23.8176 Q708.2 26.8124 708.2 32.0988 Q708.2 37.3852 710.361 40.406 Q712.549 43.4008 716.351 43.4008 Q720.153 43.4008 722.314 40.406 Q724.502 37.3852 724.502 32.0988 M708.2 21.9165 Q709.71 19.3124 712.002 18.0624 Q714.319 16.7864 717.523 16.7864 Q722.835 16.7864 726.142 21.0051 Q729.476 25.2238 729.476 32.0988 Q729.476 38.9737 726.142 43.1925 Q722.835 47.4112 717.523 47.4112 Q714.319 47.4112 712.002 46.1612 Q709.71 44.8852 708.2 42.281 L708.2 46.656 L703.382 46.656 L703.382 6.13538 L708.2 6.13538 L708.2 21.9165 Z" fill="#000000" fill-rule="nonzero" fill-opacity="1" /><path clip-path="url(#clip910)" d="M748.72 20.8488 Q744.866 20.8488 742.627 23.8697 Q740.387 26.8644 740.387 32.0988 Q740.387 37.3331 742.6 40.354 Q744.84 43.3487 748.72 43.3487 Q752.548 43.3487 754.788 40.3279 Q757.028 37.3071 757.028 32.0988 Q757.028 26.9165 754.788 23.8957 Q752.548 20.8488 748.72 20.8488 M748.72 16.7864 Q754.97 16.7864 758.538 20.8488 Q762.106 24.9113 762.106 32.0988 Q762.106 39.2602 758.538 43.3487 Q754.97 47.4112 748.72 47.4112 Q742.444 47.4112 738.877 43.3487 Q735.335 39.2602 735.335 32.0988 Q735.335 24.9113 738.877 20.8488 Q742.444 16.7864 748.72 16.7864 Z" fill="#000000" fill-rule="nonzero" fill-opacity="1" /><path clip-path="url(#clip910)" d="M786.949 21.9686 Q786.142 21.4999 785.178 21.2916 Q784.241 21.0572 783.095 21.0572 Q779.033 21.0572 776.845 23.7134 Q774.684 26.3436 774.684 31.2915 L774.684 46.656 L769.866 46.656 L769.866 17.4895 L774.684 17.4895 L774.684 22.0207 Q776.194 19.3645 778.616 18.0884 Q781.038 16.7864 784.501 16.7864 Q784.996 16.7864 785.595 16.8645 Q786.194 16.9166 786.923 17.0468 L786.949 21.9686 Z" fill="#000000" fill-rule="nonzero" fill-opacity="1" /><path clip-path="url(#clip912)" d="M243.385 1006.94 L288.3 1039.76 L333.215 1070.59 L378.13 1035.02 L423.045 993.39 L467.96 984.633 L512.875 1019.97 L557.79 1011.11 L602.706 1016.07 L647.621 1007.26 L692.536 1039.65 L737.451 1015.34 L782.366 1029.54 L827.281 1058.83 L872.196 1053.84 L917.111 1052.37 L962.026 1069.08 L1006.94 1037.16 L1051.86 1004.17 L1096.77 1017.33 L1141.69 1007.57 L1141.69 880.883 L1096.77 895.419 L1051.86 906.53 L1006.94 903.04 L962.026 905.51 L917.111 900.107 L872.196 889.934 L827.281 908.83 L782.366 931.272 L737.451 917.002 L692.536 907.369 L647.621 906.921 L602.706 920.311 L557.79 922.461 L512.875 948.208 L467.96 943.521 L423.045 949.504 L378.13 964.348 L333.215 988.963 L288.3 981.903 L243.385 1006.94  Z" fill="#009af9" fill-rule="evenodd" fill-opacity="0.1"/>
<polyline clip-path="url(#clip912)" style="stroke:#009af9; stroke-linecap:round; stroke-linejoin:round; stroke-width:4; stroke-opacity:1; fill:none" points="243.385,1006.94 288.3,1010.83 333.215,1029.78 378.13,999.684 423.045,971.447 467.96,964.077 512.875,984.089 557.79,966.785 602.706,968.19 647.621,957.092 692.536,973.509 737.451,966.173 782.366,980.405 827.281,983.829 872.196,971.886 917.111,976.24 962.026,987.296 1006.94,970.098 1051.86,955.351 1096.77,956.373 1141.69,944.224 "/>
<path clip-path="url(#clip912)" d="M243.385 1006.94 L288.3 120.65 L333.215 120.65 L378.13 120.65 L423.045 120.65 L467.96 120.65 L512.875 120.65 L557.79 120.65 L602.706 120.65 L647.621 120.65 L692.536 120.65 L737.451 120.65 L782.366 120.65 L827.281 120.65 L872.196 120.65 L917.111 120.65 L962.026 120.65 L1006.94 120.65 L1051.86 120.65 L1096.77 120.65 L1141.69 120.65 L1141.69 120.65 L1096.77 120.65 L1051.86 120.65 L1006.94 120.65 L962.026 120.65 L917.111 120.65 L872.196 120.65 L827.281 120.65 L782.366 120.65 L737.451 120.65 L692.536 120.65 L647.621 120.65 L602.706 120.65 L557.79 120.65 L512.875 120.65 L467.96 120.65 L423.045 120.65 L378.13 120.65 L333.215 120.65 L288.3 120.65 L243.385 1006.94  Z" fill="#e26f46" fill-rule="evenodd" fill-opacity="0.1"/>
<polyline clip-path="url(#clip912)" style="stroke:#e26f46; stroke-linecap:round; stroke-linejoin:round; stroke-width:4; stroke-opacity:1; fill:none" points="243.385,1006.94 288.3,120.65 333.215,120.65 378.13,120.65 423.045,120.65 467.96,120.65 512.875,120.65 557.79,120.65 602.706,120.65 647.621,120.65 692.536,120.65 737.451,120.65 782.366,120.65 827.281,120.65 872.196,120.65 917.111,120.65 962.026,120.65 1006.94,120.65 1051.86,120.65 1096.77,120.65 1141.69,120.65 "/>
<path clip-path="url(#clip910)" d="M1400.56 1099.09 L2352.76 1099.09 L2352.76 92.1521 L1400.56 92.1521  Z" fill="#ffffff" fill-rule="evenodd" fill-opacity="1"/>
<defs>
  <clipPath id="clip913">
    <rect x="1400" y="92" width="953" height="1008"/>
  </clipPath>
</defs>
<polyline clip-path="url(#clip913)" style="stroke:#000000; stroke-linecap:round; stroke-linejoin:round; stroke-width:2; stroke-opacity:0.1; fill:none" points="1607.17,1099.09 1607.17,92.1521 "/>
<polyline clip-path="url(#clip913)" style="stroke:#000000; stroke-linecap:round; stroke-linejoin:round; stroke-width:2; stroke-opacity:0.1; fill:none" points="1831.74,1099.09 1831.74,92.1521 "/>
<polyline clip-path="url(#clip913)" style="stroke:#000000; stroke-linecap:round; stroke-linejoin:round; stroke-width:2; stroke-opacity:0.1; fill:none" points="2056.32,1099.09 2056.32,92.1521 "/>
<polyline clip-path="url(#clip913)" style="stroke:#000000; stroke-linecap:round; stroke-linejoin:round; stroke-width:2; stroke-opacity:0.1; fill:none" points="2280.89,1099.09 2280.89,92.1521 "/>
<polyline clip-path="url(#clip913)" style="stroke:#000000; stroke-linecap:round; stroke-linejoin:round; stroke-width:2; stroke-opacity:0.1; fill:none" points="1400.56,1060.82 2352.76,1060.82 "/>
<polyline clip-path="url(#clip913)" style="stroke:#000000; stroke-linecap:round; stroke-linejoin:round; stroke-width:2; stroke-opacity:0.1; fill:none" points="1400.56,862.866 2352.76,862.866 "/>
<polyline clip-path="url(#clip913)" style="stroke:#000000; stroke-linecap:round; stroke-linejoin:round; stroke-width:2; stroke-opacity:0.1; fill:none" points="1400.56,664.907 2352.76,664.907 "/>
<polyline clip-path="url(#clip913)" style="stroke:#000000; stroke-linecap:round; stroke-linejoin:round; stroke-width:2; stroke-opacity:0.1; fill:none" points="1400.56,466.949 2352.76,466.949 "/>
<polyline clip-path="url(#clip913)" style="stroke:#000000; stroke-linecap:round; stroke-linejoin:round; stroke-width:2; stroke-opacity:0.1; fill:none" points="1400.56,268.991 2352.76,268.991 "/>
<polyline clip-path="url(#clip910)" style="stroke:#000000; stroke-linecap:round; stroke-linejoin:round; stroke-width:4; stroke-opacity:1; fill:none" points="1400.56,1099.09 2352.76,1099.09 "/>
<polyline clip-path="url(#clip910)" style="stroke:#000000; stroke-linecap:round; stroke-linejoin:round; stroke-width:4; stroke-opacity:1; fill:none" points="1607.17,1099.09 1607.17,1080.19 "/>
<polyline clip-path="url(#clip910)" style="stroke:#000000; stroke-linecap:round; stroke-linejoin:round; stroke-width:4; stroke-opacity:1; fill:none" points="1831.74,1099.09 1831.74,1080.19 "/>
<polyline clip-path="url(#clip910)" style="stroke:#000000; stroke-linecap:round; stroke-linejoin:round; stroke-width:4; stroke-opacity:1; fill:none" points="2056.32,1099.09 2056.32,1080.19 "/>
<polyline clip-path="url(#clip910)" style="stroke:#000000; stroke-linecap:round; stroke-linejoin:round; stroke-width:4; stroke-opacity:1; fill:none" points="2280.89,1099.09 2280.89,1080.19 "/>
<path clip-path="url(#clip910)" d="M1597.44 1126.93 L1615.8 1126.93 L1615.8 1130.86 L1601.73 1130.86 L1601.73 1139.34 Q1602.74 1138.99 1603.76 1138.83 Q1604.78 1138.64 1605.8 1138.64 Q1611.59 1138.64 1614.97 1141.81 Q1618.35 1144.98 1618.35 1150.4 Q1618.35 1155.98 1614.87 1159.08 Q1611.4 1162.16 1605.08 1162.16 Q1602.91 1162.16 1600.64 1161.79 Q1598.39 1161.42 1595.99 1160.68 L1595.99 1155.98 Q1598.07 1157.11 1600.29 1157.67 Q1602.51 1158.22 1604.99 1158.22 Q1608.99 1158.22 1611.33 1156.12 Q1613.67 1154.01 1613.67 1150.4 Q1613.67 1146.79 1611.33 1144.68 Q1608.99 1142.58 1604.99 1142.58 Q1603.11 1142.58 1601.24 1142.99 Q1599.39 1143.41 1597.44 1144.29 L1597.44 1126.93 Z" fill="#000000" fill-rule="nonzero" fill-opacity="1" /><path clip-path="url(#clip910)" d="M1806.43 1157.55 L1814.07 1157.55 L1814.07 1131.19 L1805.76 1132.85 L1805.76 1128.59 L1814.02 1126.93 L1818.7 1126.93 L1818.7 1157.55 L1826.34 1157.55 L1826.34 1161.49 L1806.43 1161.49 L1806.43 1157.55 Z" fill="#000000" fill-rule="nonzero" fill-opacity="1" /><path clip-path="url(#clip910)" d="M1845.78 1130.01 Q1842.17 1130.01 1840.34 1133.57 Q1838.53 1137.11 1838.53 1144.24 Q1838.53 1151.35 1840.34 1154.91 Q1842.17 1158.46 1845.78 1158.46 Q1849.41 1158.46 1851.22 1154.91 Q1853.05 1151.35 1853.05 1144.24 Q1853.05 1137.11 1851.22 1133.57 Q1849.41 1130.01 1845.78 1130.01 M1845.78 1126.3 Q1851.59 1126.3 1854.65 1130.91 Q1857.72 1135.49 1857.72 1144.24 Q1857.72 1152.97 1854.65 1157.58 Q1851.59 1162.16 1845.78 1162.16 Q1839.97 1162.16 1836.89 1157.58 Q1833.84 1152.97 1833.84 1144.24 Q1833.84 1135.49 1836.89 1130.91 Q1839.97 1126.3 1845.78 1126.3 Z" fill="#000000" fill-rule="nonzero" fill-opacity="1" /><path clip-path="url(#clip910)" d="M2031.5 1157.55 L2039.14 1157.55 L2039.14 1131.19 L2030.83 1132.85 L2030.83 1128.59 L2039.09 1126.93 L2043.77 1126.93 L2043.77 1157.55 L2051.41 1157.55 L2051.41 1161.49 L2031.5 1161.49 L2031.5 1157.55 Z" fill="#000000" fill-rule="nonzero" fill-opacity="1" /><path clip-path="url(#clip910)" d="M2060.9 1126.93 L2079.26 1126.93 L2079.26 1130.86 L2065.18 1130.86 L2065.18 1139.34 Q2066.2 1138.99 2067.22 1138.83 Q2068.24 1138.64 2069.26 1138.64 Q2075.04 1138.64 2078.42 1141.81 Q2081.8 1144.98 2081.8 1150.4 Q2081.8 1155.98 2078.33 1159.08 Q2074.86 1162.16 2068.54 1162.16 Q2066.36 1162.16 2064.09 1161.79 Q2061.85 1161.42 2059.44 1160.68 L2059.44 1155.98 Q2061.52 1157.11 2063.75 1157.67 Q2065.97 1158.22 2068.45 1158.22 Q2072.45 1158.22 2074.79 1156.12 Q2077.13 1154.01 2077.13 1150.4 Q2077.13 1146.79 2074.79 1144.68 Q2072.45 1142.58 2068.45 1142.58 Q2066.57 1142.58 2064.7 1142.99 Q2062.84 1143.41 2060.9 1144.29 L2060.9 1126.93 Z" fill="#000000" fill-rule="nonzero" fill-opacity="1" /><path clip-path="url(#clip910)" d="M2259.67 1157.55 L2275.98 1157.55 L2275.98 1161.49 L2254.04 1161.49 L2254.04 1157.55 Q2256.7 1154.8 2261.29 1150.17 Q2265.89 1145.52 2267.07 1144.17 Q2269.32 1141.65 2270.2 1139.91 Q2271.1 1138.15 2271.1 1136.46 Q2271.1 1133.71 2269.16 1131.97 Q2267.23 1130.24 2264.13 1130.24 Q2261.93 1130.24 2259.48 1131 Q2257.05 1131.77 2254.27 1133.32 L2254.27 1128.59 Q2257.1 1127.46 2259.55 1126.88 Q2262 1126.3 2264.04 1126.3 Q2269.41 1126.3 2272.6 1128.99 Q2275.8 1131.67 2275.8 1136.16 Q2275.8 1138.29 2274.99 1140.21 Q2274.2 1142.11 2272.1 1144.71 Q2271.52 1145.38 2268.42 1148.59 Q2265.31 1151.79 2259.67 1157.55 Z" fill="#000000" fill-rule="nonzero" fill-opacity="1" /><path clip-path="url(#clip910)" d="M2295.8 1130.01 Q2292.19 1130.01 2290.36 1133.57 Q2288.55 1137.11 2288.55 1144.24 Q2288.55 1151.35 2290.36 1154.91 Q2292.19 1158.46 2295.8 1158.46 Q2299.43 1158.46 2301.24 1154.91 Q2303.07 1151.35 2303.07 1144.24 Q2303.07 1137.11 2301.24 1133.57 Q2299.43 1130.01 2295.8 1130.01 M2295.8 1126.3 Q2301.61 1126.3 2304.66 1130.91 Q2307.74 1135.49 2307.74 1144.24 Q2307.74 1152.97 2304.66 1157.58 Q2301.61 1162.16 2295.8 1162.16 Q2289.99 1162.16 2286.91 1157.58 Q2283.85 1152.97 2283.85 1144.24 Q2283.85 1135.49 2286.91 1130.91 Q2289.99 1126.3 2295.8 1126.3 Z" fill="#000000" fill-rule="nonzero" fill-opacity="1" /><polyline clip-path="url(#clip910)" style="stroke:#000000; stroke-linecap:round; stroke-linejoin:round; stroke-width:4; stroke-opacity:1; fill:none" points="1400.56,1099.09 1400.56,92.1521 "/>
<polyline clip-path="url(#clip910)" style="stroke:#000000; stroke-linecap:round; stroke-linejoin:round; stroke-width:4; stroke-opacity:1; fill:none" points="1400.56,1060.82 1419.45,1060.82 "/>
<polyline clip-path="url(#clip910)" style="stroke:#000000; stroke-linecap:round; stroke-linejoin:round; stroke-width:4; stroke-opacity:1; fill:none" points="1400.56,862.866 1419.45,862.866 "/>
<polyline clip-path="url(#clip910)" style="stroke:#000000; stroke-linecap:round; stroke-linejoin:round; stroke-width:4; stroke-opacity:1; fill:none" points="1400.56,664.907 1419.45,664.907 "/>
<polyline clip-path="url(#clip910)" style="stroke:#000000; stroke-linecap:round; stroke-linejoin:round; stroke-width:4; stroke-opacity:1; fill:none" points="1400.56,466.949 1419.45,466.949 "/>
<polyline clip-path="url(#clip910)" style="stroke:#000000; stroke-linecap:round; stroke-linejoin:round; stroke-width:4; stroke-opacity:1; fill:none" points="1400.56,268.991 1419.45,268.991 "/>
<path clip-path="url(#clip910)" d="M1268.03 1074.17 L1275.67 1074.17 L1275.67 1047.8 L1267.36 1049.47 L1267.36 1045.21 L1275.62 1043.54 L1280.3 1043.54 L1280.3 1074.17 L1287.94 1074.17 L1287.94 1078.1 L1268.03 1078.1 L1268.03 1074.17 Z" fill="#000000" fill-rule="nonzero" fill-opacity="1" /><path clip-path="url(#clip910)" d="M1297.38 1072.22 L1302.26 1072.22 L1302.26 1078.1 L1297.38 1078.1 L1297.38 1072.22 Z" fill="#000000" fill-rule="nonzero" fill-opacity="1" /><path clip-path="url(#clip910)" d="M1322.45 1046.62 Q1318.84 1046.62 1317.01 1050.19 Q1315.2 1053.73 1315.2 1060.86 Q1315.2 1067.97 1317.01 1071.53 Q1318.84 1075.07 1322.45 1075.07 Q1326.08 1075.07 1327.89 1071.53 Q1329.72 1067.97 1329.72 1060.86 Q1329.72 1053.73 1327.89 1050.19 Q1326.08 1046.62 1322.45 1046.62 M1322.45 1042.92 Q1328.26 1042.92 1331.32 1047.53 Q1334.39 1052.11 1334.39 1060.86 Q1334.39 1069.59 1331.32 1074.19 Q1328.26 1078.78 1322.45 1078.78 Q1316.64 1078.78 1313.56 1074.19 Q1310.51 1069.59 1310.51 1060.86 Q1310.51 1052.11 1313.56 1047.53 Q1316.64 1042.92 1322.45 1042.92 Z" fill="#000000" fill-rule="nonzero" fill-opacity="1" /><path clip-path="url(#clip910)" d="M1352.61 1046.62 Q1349 1046.62 1347.17 1050.19 Q1345.37 1053.73 1345.37 1060.86 Q1345.37 1067.97 1347.17 1071.53 Q1349 1075.07 1352.61 1075.07 Q1356.25 1075.07 1358.05 1071.53 Q1359.88 1067.97 1359.88 1060.86 Q1359.88 1053.73 1358.05 1050.19 Q1356.25 1046.62 1352.61 1046.62 M1352.61 1042.92 Q1358.42 1042.92 1361.48 1047.53 Q1364.56 1052.11 1364.56 1060.86 Q1364.56 1069.59 1361.48 1074.19 Q1358.42 1078.78 1352.61 1078.78 Q1346.8 1078.78 1343.72 1074.19 Q1340.67 1069.59 1340.67 1060.86 Q1340.67 1052.11 1343.72 1047.53 Q1346.8 1042.92 1352.61 1042.92 Z" fill="#000000" fill-rule="nonzero" fill-opacity="1" /><path clip-path="url(#clip910)" d="M1269.63 876.211 L1277.27 876.211 L1277.27 849.845 L1268.95 851.512 L1268.95 847.252 L1277.22 845.586 L1281.89 845.586 L1281.89 876.211 L1289.53 876.211 L1289.53 880.146 L1269.63 880.146 L1269.63 876.211 Z" fill="#000000" fill-rule="nonzero" fill-opacity="1" /><path clip-path="url(#clip910)" d="M1298.98 874.266 L1303.86 874.266 L1303.86 880.146 L1298.98 880.146 L1298.98 874.266 Z" fill="#000000" fill-rule="nonzero" fill-opacity="1" /><path clip-path="url(#clip910)" d="M1324.05 848.664 Q1320.44 848.664 1318.61 852.229 Q1316.8 855.771 1316.8 862.9 Q1316.8 870.007 1318.61 873.572 Q1320.44 877.113 1324.05 877.113 Q1327.68 877.113 1329.49 873.572 Q1331.32 870.007 1331.32 862.9 Q1331.32 855.771 1329.49 852.229 Q1327.68 848.664 1324.05 848.664 M1324.05 844.961 Q1329.86 844.961 1332.91 849.567 Q1335.99 854.15 1335.99 862.9 Q1335.99 871.627 1332.91 876.234 Q1329.86 880.817 1324.05 880.817 Q1318.24 880.817 1315.16 876.234 Q1312.1 871.627 1312.1 862.9 Q1312.1 854.15 1315.16 849.567 Q1318.24 844.961 1324.05 844.961 Z" fill="#000000" fill-rule="nonzero" fill-opacity="1" /><path clip-path="url(#clip910)" d="M1348.24 876.211 L1364.56 876.211 L1364.56 880.146 L1342.61 880.146 L1342.61 876.211 Q1345.27 873.456 1349.86 868.826 Q1354.46 864.174 1355.64 862.831 Q1357.89 860.308 1358.77 858.572 Q1359.67 856.812 1359.67 855.123 Q1359.67 852.368 1357.73 850.632 Q1355.81 848.896 1352.7 848.896 Q1350.51 848.896 1348.05 849.66 Q1345.62 850.424 1342.84 851.975 L1342.84 847.252 Q1345.67 846.118 1348.12 845.539 Q1350.57 844.961 1352.61 844.961 Q1357.98 844.961 1361.18 847.646 Q1364.37 850.331 1364.37 854.822 Q1364.37 856.951 1363.56 858.873 Q1362.77 860.771 1360.67 863.363 Q1360.09 864.035 1356.99 867.252 Q1353.89 870.447 1348.24 876.211 Z" fill="#000000" fill-rule="nonzero" fill-opacity="1" /><path clip-path="url(#clip910)" d="M1267.54 678.252 L1275.18 678.252 L1275.18 651.887 L1266.87 653.553 L1266.87 649.294 L1275.14 647.627 L1279.81 647.627 L1279.81 678.252 L1287.45 678.252 L1287.45 682.187 L1267.54 682.187 L1267.54 678.252 Z" fill="#000000" fill-rule="nonzero" fill-opacity="1" /><path clip-path="url(#clip910)" d="M1296.89 676.308 L1301.78 676.308 L1301.78 682.187 L1296.89 682.187 L1296.89 676.308 Z" fill="#000000" fill-rule="nonzero" fill-opacity="1" /><path clip-path="url(#clip910)" d="M1321.96 650.706 Q1318.35 650.706 1316.52 654.271 Q1314.72 657.813 1314.72 664.942 Q1314.72 672.049 1316.52 675.613 Q1318.35 679.155 1321.96 679.155 Q1325.6 679.155 1327.4 675.613 Q1329.23 672.049 1329.23 664.942 Q1329.23 657.813 1327.4 654.271 Q1325.6 650.706 1321.96 650.706 M1321.96 647.002 Q1327.77 647.002 1330.83 651.609 Q1333.91 656.192 1333.91 664.942 Q1333.91 673.669 1330.83 678.275 Q1327.77 682.859 1321.96 682.859 Q1316.15 682.859 1313.08 678.275 Q1310.02 673.669 1310.02 664.942 Q1310.02 656.192 1313.08 651.609 Q1316.15 647.002 1321.96 647.002 Z" fill="#000000" fill-rule="nonzero" fill-opacity="1" /><path clip-path="url(#clip910)" d="M1354.97 651.701 L1343.17 670.15 L1354.97 670.15 L1354.97 651.701 M1353.75 647.627 L1359.63 647.627 L1359.63 670.15 L1364.56 670.15 L1364.56 674.039 L1359.63 674.039 L1359.63 682.187 L1354.97 682.187 L1354.97 674.039 L1339.37 674.039 L1339.37 669.525 L1353.75 647.627 Z" fill="#000000" fill-rule="nonzero" fill-opacity="1" /><path clip-path="url(#clip910)" d="M1267.87 480.294 L1275.51 480.294 L1275.51 453.928 L1267.2 455.595 L1267.2 451.336 L1275.46 449.669 L1280.14 449.669 L1280.14 480.294 L1287.77 480.294 L1287.77 484.229 L1267.87 484.229 L1267.87 480.294 Z" fill="#000000" fill-rule="nonzero" fill-opacity="1" /><path clip-path="url(#clip910)" d="M1297.22 478.349 L1302.1 478.349 L1302.1 484.229 L1297.22 484.229 L1297.22 478.349 Z" fill="#000000" fill-rule="nonzero" fill-opacity="1" /><path clip-path="url(#clip910)" d="M1322.29 452.748 Q1318.68 452.748 1316.85 456.313 Q1315.04 459.854 1315.04 466.984 Q1315.04 474.09 1316.85 477.655 Q1318.68 481.197 1322.29 481.197 Q1325.92 481.197 1327.73 477.655 Q1329.56 474.09 1329.56 466.984 Q1329.56 459.854 1327.73 456.313 Q1325.92 452.748 1322.29 452.748 M1322.29 449.044 Q1328.1 449.044 1331.15 453.651 Q1334.23 458.234 1334.23 466.984 Q1334.23 475.711 1331.15 480.317 Q1328.1 484.9 1322.29 484.9 Q1316.48 484.9 1313.4 480.317 Q1310.34 475.711 1310.34 466.984 Q1310.34 458.234 1313.4 453.651 Q1316.48 449.044 1322.29 449.044 Z" fill="#000000" fill-rule="nonzero" fill-opacity="1" /><path clip-path="url(#clip910)" d="M1353.03 465.086 Q1349.88 465.086 1348.03 467.238 Q1346.2 469.391 1346.2 473.141 Q1346.2 476.868 1348.03 479.044 Q1349.88 481.197 1353.03 481.197 Q1356.18 481.197 1358.01 479.044 Q1359.86 476.868 1359.86 473.141 Q1359.86 469.391 1358.01 467.238 Q1356.18 465.086 1353.03 465.086 M1362.31 450.433 L1362.31 454.692 Q1360.55 453.859 1358.75 453.419 Q1356.96 452.979 1355.2 452.979 Q1350.57 452.979 1348.12 456.104 Q1345.69 459.229 1345.34 465.549 Q1346.71 463.535 1348.77 462.47 Q1350.83 461.382 1353.31 461.382 Q1358.51 461.382 1361.52 464.553 Q1364.56 467.701 1364.56 473.141 Q1364.56 478.465 1361.41 481.683 Q1358.26 484.9 1353.03 484.9 Q1347.03 484.9 1343.86 480.317 Q1340.69 475.711 1340.69 466.984 Q1340.69 458.789 1344.58 453.928 Q1348.47 449.044 1355.02 449.044 Q1356.78 449.044 1358.56 449.391 Q1360.37 449.739 1362.31 450.433 Z" fill="#000000" fill-rule="nonzero" fill-opacity="1" /><path clip-path="url(#clip910)" d="M1268.12 282.336 L1275.76 282.336 L1275.76 255.97 L1267.45 257.637 L1267.45 253.377 L1275.71 251.711 L1280.39 251.711 L1280.39 282.336 L1288.03 282.336 L1288.03 286.271 L1268.12 286.271 L1268.12 282.336 Z" fill="#000000" fill-rule="nonzero" fill-opacity="1" /><path clip-path="url(#clip910)" d="M1297.47 280.391 L1302.36 280.391 L1302.36 286.271 L1297.47 286.271 L1297.47 280.391 Z" fill="#000000" fill-rule="nonzero" fill-opacity="1" /><path clip-path="url(#clip910)" d="M1322.54 254.789 Q1318.93 254.789 1317.1 258.354 Q1315.3 261.896 1315.3 269.025 Q1315.3 276.132 1317.1 279.697 Q1318.93 283.238 1322.54 283.238 Q1326.18 283.238 1327.98 279.697 Q1329.81 276.132 1329.81 269.025 Q1329.81 261.896 1327.98 258.354 Q1326.18 254.789 1322.54 254.789 M1322.54 251.086 Q1328.35 251.086 1331.41 255.692 Q1334.49 260.276 1334.49 269.025 Q1334.49 277.752 1331.41 282.359 Q1328.35 286.942 1322.54 286.942 Q1316.73 286.942 1313.65 282.359 Q1310.6 277.752 1310.6 269.025 Q1310.6 260.276 1313.65 255.692 Q1316.73 251.086 1322.54 251.086 Z" fill="#000000" fill-rule="nonzero" fill-opacity="1" /><path clip-path="url(#clip910)" d="M1352.7 269.859 Q1349.37 269.859 1347.45 271.641 Q1345.55 273.424 1345.55 276.549 Q1345.55 279.674 1347.45 281.456 Q1349.37 283.238 1352.7 283.238 Q1356.04 283.238 1357.96 281.456 Q1359.88 279.65 1359.88 276.549 Q1359.88 273.424 1357.96 271.641 Q1356.06 269.859 1352.7 269.859 M1348.03 267.868 Q1345.02 267.127 1343.33 265.067 Q1341.66 263.007 1341.66 260.044 Q1341.66 255.901 1344.6 253.493 Q1347.57 251.086 1352.7 251.086 Q1357.87 251.086 1360.81 253.493 Q1363.75 255.901 1363.75 260.044 Q1363.75 263.007 1362.06 265.067 Q1360.39 267.127 1357.4 267.868 Q1360.78 268.655 1362.66 270.947 Q1364.56 273.238 1364.56 276.549 Q1364.56 281.572 1361.48 284.257 Q1358.42 286.942 1352.7 286.942 Q1346.99 286.942 1343.91 284.257 Q1340.85 281.572 1340.85 276.549 Q1340.85 273.238 1342.75 270.947 Q1344.65 268.655 1348.03 267.868 M1346.32 260.484 Q1346.32 263.169 1347.98 264.674 Q1349.67 266.178 1352.7 266.178 Q1355.71 266.178 1357.4 264.674 Q1359.12 263.169 1359.12 260.484 Q1359.12 257.799 1357.4 256.294 Q1355.71 254.789 1352.7 254.789 Q1349.67 254.789 1347.98 256.294 Q1346.32 257.799 1346.32 260.484 Z" fill="#000000" fill-rule="nonzero" fill-opacity="1" /><path clip-path="url(#clip910)" d="M1735.94 31.7342 Q1735.94 26.5259 1733.78 23.6613 Q1731.64 20.7968 1727.76 20.7968 Q1723.91 20.7968 1721.75 23.6613 Q1719.61 26.5259 1719.61 31.7342 Q1719.61 36.9165 1721.75 39.781 Q1723.91 42.6456 1727.76 42.6456 Q1731.64 42.6456 1733.78 39.781 Q1735.94 36.9165 1735.94 31.7342 M1740.73 43.0362 Q1740.73 50.4841 1737.43 54.1039 Q1734.12 57.7497 1727.29 57.7497 Q1724.77 57.7497 1722.53 57.3591 Q1720.29 56.9945 1718.18 56.2132 L1718.18 51.5518 Q1720.29 52.6976 1722.35 53.2445 Q1724.4 53.7914 1726.54 53.7914 Q1731.25 53.7914 1733.6 51.3174 Q1735.94 48.8695 1735.94 43.8956 L1735.94 41.5258 Q1734.46 44.1039 1732.14 45.38 Q1729.82 46.656 1726.59 46.656 Q1721.23 46.656 1717.95 42.5675 Q1714.66 38.479 1714.66 31.7342 Q1714.66 24.9634 1717.95 20.8749 Q1721.23 16.7864 1726.59 16.7864 Q1729.82 16.7864 1732.14 18.0624 Q1734.46 19.3384 1735.94 21.9165 L1735.94 17.4895 L1740.73 17.4895 L1740.73 43.0362 Z" fill="#000000" fill-rule="nonzero" fill-opacity="1" /><path clip-path="url(#clip910)" d="M1769.79 21.9165 L1769.79 6.13538 L1774.59 6.13538 L1774.59 46.656 L1769.79 46.656 L1769.79 42.281 Q1768.28 44.8852 1765.97 46.1612 Q1763.67 47.4112 1760.45 47.4112 Q1755.16 47.4112 1751.83 43.1925 Q1748.52 38.9737 1748.52 32.0988 Q1748.52 25.2238 1751.83 21.0051 Q1755.16 16.7864 1760.45 16.7864 Q1763.67 16.7864 1765.97 18.0624 Q1768.28 19.3124 1769.79 21.9165 M1753.47 32.0988 Q1753.47 37.3852 1755.63 40.406 Q1757.82 43.4008 1761.62 43.4008 Q1765.42 43.4008 1767.61 40.406 Q1769.79 37.3852 1769.79 32.0988 Q1769.79 26.8124 1767.61 23.8176 Q1765.42 20.7968 1761.62 20.7968 Q1757.82 20.7968 1755.63 23.8176 Q1753.47 26.8124 1753.47 32.0988 Z" fill="#000000" fill-rule="nonzero" fill-opacity="1" /><path clip-path="url(#clip910)" d="M1789.09 42.281 L1789.09 57.7497 L1784.27 57.7497 L1784.27 17.4895 L1789.09 17.4895 L1789.09 21.9165 Q1790.6 19.3124 1792.89 18.0624 Q1795.21 16.7864 1798.41 16.7864 Q1803.73 16.7864 1807.03 21.0051 Q1810.37 25.2238 1810.37 32.0988 Q1810.37 38.9737 1807.03 43.1925 Q1803.73 47.4112 1798.41 47.4112 Q1795.21 47.4112 1792.89 46.1612 Q1790.6 44.8852 1789.09 42.281 M1805.39 32.0988 Q1805.39 26.8124 1803.21 23.8176 Q1801.04 20.7968 1797.24 20.7968 Q1793.44 20.7968 1791.25 23.8176 Q1789.09 26.8124 1789.09 32.0988 Q1789.09 37.3852 1791.25 40.406 Q1793.44 43.4008 1797.24 43.4008 Q1801.04 43.4008 1803.21 40.406 Q1805.39 37.3852 1805.39 32.0988 Z" fill="#000000" fill-rule="nonzero" fill-opacity="1" /><path clip-path="url(#clip910)" d="M1854.46 21.9165 L1854.46 6.13538 L1859.25 6.13538 L1859.25 46.656 L1854.46 46.656 L1854.46 42.281 Q1852.95 44.8852 1850.63 46.1612 Q1848.34 47.4112 1845.11 47.4112 Q1839.82 47.4112 1836.49 43.1925 Q1833.18 38.9737 1833.18 32.0988 Q1833.18 25.2238 1836.49 21.0051 Q1839.82 16.7864 1845.11 16.7864 Q1848.34 16.7864 1850.63 18.0624 Q1852.95 19.3124 1854.46 21.9165 M1838.13 32.0988 Q1838.13 37.3852 1840.29 40.406 Q1842.48 43.4008 1846.28 43.4008 Q1850.08 43.4008 1852.27 40.406 Q1854.46 37.3852 1854.46 32.0988 Q1854.46 26.8124 1852.27 23.8176 Q1850.08 20.7968 1846.28 20.7968 Q1842.48 20.7968 1840.29 23.8176 Q1838.13 26.8124 1838.13 32.0988 Z" fill="#000000" fill-rule="nonzero" fill-opacity="1" /><path clip-path="url(#clip910)" d="M1894.06 30.8748 L1894.06 33.2186 L1872.03 33.2186 Q1872.35 38.1665 1875 40.7706 Q1877.68 43.3487 1882.45 43.3487 Q1885.21 43.3487 1887.79 42.6716 Q1890.39 41.9946 1892.95 40.6404 L1892.95 45.1716 Q1890.37 46.2654 1887.66 46.8383 Q1884.95 47.4112 1882.16 47.4112 Q1875.18 47.4112 1871.1 43.3487 Q1867.03 39.2862 1867.03 32.3592 Q1867.03 25.1978 1870.89 21.0051 Q1874.77 16.7864 1881.33 16.7864 Q1887.22 16.7864 1890.63 20.5884 Q1894.06 24.3645 1894.06 30.8748 M1889.27 29.4686 Q1889.22 25.5363 1887.06 23.1926 Q1884.92 20.8488 1881.38 20.8488 Q1877.37 20.8488 1874.95 23.1145 Q1872.55 25.3801 1872.19 29.4946 L1889.27 29.4686 Z" fill="#000000" fill-rule="nonzero" fill-opacity="1" /><path clip-path="url(#clip910)" d="M1916.69 6.13538 L1916.69 10.1197 L1912.11 10.1197 Q1909.53 10.1197 1908.52 11.1614 Q1907.53 12.2031 1907.53 14.9114 L1907.53 17.4895 L1915.42 17.4895 L1915.42 21.2134 L1907.53 21.2134 L1907.53 46.656 L1902.71 46.656 L1902.71 21.2134 L1898.13 21.2134 L1898.13 17.4895 L1902.71 17.4895 L1902.71 15.4583 Q1902.71 10.5885 1904.98 8.37496 Q1907.24 6.13538 1912.16 6.13538 L1916.69 6.13538 Z" fill="#000000" fill-rule="nonzero" fill-opacity="1" /><path clip-path="url(#clip910)" d="M1920.71 6.13538 L1925.5 6.13538 L1925.5 46.656 L1920.71 46.656 L1920.71 6.13538 Z" fill="#000000" fill-rule="nonzero" fill-opacity="1" /><path clip-path="url(#clip910)" d="M1948.78 31.9946 Q1942.97 31.9946 1940.73 33.3227 Q1938.49 34.6509 1938.49 37.854 Q1938.49 40.406 1940.16 41.9164 Q1941.85 43.4008 1944.74 43.4008 Q1948.73 43.4008 1951.12 40.5883 Q1953.54 37.7498 1953.54 33.0623 L1953.54 31.9946 L1948.78 31.9946 M1958.34 30.0155 L1958.34 46.656 L1953.54 46.656 L1953.54 42.2289 Q1951.9 44.8852 1949.46 46.1612 Q1947.01 47.4112 1943.47 47.4112 Q1938.99 47.4112 1936.33 44.9112 Q1933.7 42.3852 1933.7 38.1665 Q1933.7 33.2446 1936.98 30.7446 Q1940.29 28.2446 1946.83 28.2446 L1953.54 28.2446 L1953.54 27.7759 Q1953.54 24.4686 1951.36 22.6718 Q1949.19 20.8488 1945.26 20.8488 Q1942.76 20.8488 1940.39 21.4478 Q1938.02 22.0468 1935.84 23.2447 L1935.84 18.8176 Q1938.47 17.802 1940.94 17.3072 Q1943.41 16.7864 1945.76 16.7864 Q1952.09 16.7864 1955.21 20.0676 Q1958.34 23.3488 1958.34 30.0155 Z" fill="#000000" fill-rule="nonzero" fill-opacity="1" /><path clip-path="url(#clip910)" d="M1972.94 9.20828 L1972.94 17.4895 L1982.81 17.4895 L1982.81 21.2134 L1972.94 21.2134 L1972.94 37.0467 Q1972.94 40.6144 1973.91 41.63 Q1974.9 42.6456 1977.89 42.6456 L1982.81 42.6456 L1982.81 46.656 L1977.89 46.656 Q1972.35 46.656 1970.24 44.5987 Q1968.13 42.5154 1968.13 37.0467 L1968.13 21.2134 L1964.61 21.2134 L1964.61 17.4895 L1968.13 17.4895 L1968.13 9.20828 L1972.94 9.20828 Z" fill="#000000" fill-rule="nonzero" fill-opacity="1" /><path clip-path="url(#clip910)" d="M2000.42 20.8488 Q1996.56 20.8488 1994.32 23.8697 Q1992.09 26.8644 1992.09 32.0988 Q1992.09 37.3331 1994.3 40.354 Q1996.54 43.3487 2000.42 43.3487 Q2004.25 43.3487 2006.49 40.3279 Q2008.73 37.3071 2008.73 32.0988 Q2008.73 26.9165 2006.49 23.8957 Q2004.25 20.8488 2000.42 20.8488 M2000.42 16.7864 Q2006.67 16.7864 2010.24 20.8488 Q2013.8 24.9113 2013.8 32.0988 Q2013.8 39.2602 2010.24 43.3487 Q2006.67 47.4112 2000.42 47.4112 Q1994.14 47.4112 1990.57 43.3487 Q1987.03 39.2602 1987.03 32.0988 Q1987.03 24.9113 1990.57 20.8488 Q1994.14 16.7864 2000.42 16.7864 Z" fill="#000000" fill-rule="nonzero" fill-opacity="1" /><path clip-path="url(#clip910)" d="M2038.65 21.9686 Q2037.84 21.4999 2036.88 21.2916 Q2035.94 21.0572 2034.79 21.0572 Q2030.73 21.0572 2028.54 23.7134 Q2026.38 26.3436 2026.38 31.2915 L2026.38 46.656 L2021.56 46.656 L2021.56 17.4895 L2026.38 17.4895 L2026.38 22.0207 Q2027.89 19.3645 2030.31 18.0884 Q2032.74 16.7864 2036.2 16.7864 Q2036.69 16.7864 2037.29 16.8645 Q2037.89 16.9166 2038.62 17.0468 L2038.65 21.9686 Z" fill="#000000" fill-rule="nonzero" fill-opacity="1" /><path clip-path="url(#clip913)" d="M1427.51 1060.82 L1472.42 1064.45 L1517.34 1058.22 L1562.25 1018.27 L1607.17 1024.89 L1652.08 1030.63 L1697 932.49 L1741.91 898.631 L1786.83 923.772 L1831.74 962.214 L1876.66 1006.43 L1921.57 1023.37 L1966.49 1048.8 L2011.4 1070.59 L2056.32 1010.07 L2101.23 951.198 L2146.15 928.571 L2191.06 858.73 L2235.98 817.584 L2280.89 861.82 L2325.81 904.654 L2325.81 511.433 L2280.89 608.507 L2235.98 603.236 L2191.06 611.324 L2146.15 631.694 L2101.23 632.682 L2056.32 666.895 L2011.4 688.853 L1966.49 663.792 L1921.57 642.274 L1876.66 621.675 L1831.74 620.798 L1786.83 677.37 L1741.91 746.928 L1697 792.955 L1652.08 888.041 L1607.17 912.392 L1562.25 946.164 L1517.34 989.984 L1472.42 1024.84 L1427.51 1060.82  Z" fill="#009af9" fill-rule="evenodd" fill-opacity="0.1"/>
<polyline clip-path="url(#clip913)" style="stroke:#009af9; stroke-linecap:round; stroke-linejoin:round; stroke-width:4; stroke-opacity:1; fill:none" points="1427.51,1060.82 1472.42,1044.65 1517.34,1024.1 1562.25,982.216 1607.17,968.642 1652.08,959.337 1697,862.722 1741.91,822.78 1786.83,800.571 1831.74,791.506 1876.66,814.052 1921.57,832.819 1966.49,856.295 2011.4,879.721 2056.32,838.482 2101.23,791.94 2146.15,780.133 2191.06,735.027 2235.98,710.41 2280.89,735.164 2325.81,708.043 "/>
<path clip-path="url(#clip913)" d="M1427.51 1060.82 L1472.42 1053.69 L1517.34 1025.33 L1562.25 1033.9 L1607.17 1014.36 L1652.08 1004.18 L1697 982.321 L1741.91 970.662 L1786.83 892.987 L1831.74 864.174 L1876.66 827.988 L1921.57 762.373 L1966.49 721.614 L2011.4 695.754 L2056.32 633.355 L2101.23 585.23 L2146.15 567.604 L2191.06 577.681 L2235.98 509.992 L2280.89 523.63 L2325.81 454.878 L2325.81 120.65 L2280.89 240.937 L2235.98 281.471 L2191.06 360.301 L2146.15 411.036 L2101.23 480.381 L2056.32 524.4 L2011.4 517.348 L1966.49 491.235 L1921.57 594.13 L1876.66 549.827 L1831.74 586.586 L1786.83 542.974 L1741.91 552.788 L1697 522.693 L1652.08 582.377 L1607.17 683.881 L1562.25 785.583 L1517.34 908.786 L1472.42 961.471 L1427.51 1060.82  Z" fill="#e26f46" fill-rule="evenodd" fill-opacity="0.1"/>
<polyline clip-path="url(#clip913)" style="stroke:#e26f46; stroke-linecap:round; stroke-linejoin:round; stroke-width:4; stroke-opacity:1; fill:none" points="1427.51,1060.82 1472.42,1007.58 1517.34,967.058 1562.25,909.741 1607.17,849.12 1652.08,793.279 1697,752.507 1741.91,761.725 1786.83,717.981 1831.74,725.38 1876.66,688.908 1921.57,678.251 1966.49,606.424 2011.4,606.551 2056.32,578.877 2101.23,532.806 2146.15,489.32 2191.06,468.991 2235.98,395.732 2280.89,382.284 2325.81,287.764 "/>
</svg>
