<?xml version="1.0" encoding="utf-8"?>
<svg xmlns="http://www.w3.org/2000/svg" xmlns:xlink="http://www.w3.org/1999/xlink" width="600" height="400" viewBox="0 0 2400 1600">
<defs>
  <clipPath id="clip570">
    <rect x="0" y="0" width="2400" height="1600"/>
  </clipPath>
</defs>
<path clip-path="url(#clip570)" d="M0 1600 L2400 1600 L2400 0 L0 0  Z" fill="#ffffff" fill-rule="evenodd" fill-opacity="1"/>
<defs>
  <clipPath id="clip571">
    <rect x="480" y="0" width="1681" height="1600"/>
  </clipPath>
</defs>
<path clip-path="url(#clip570)" d="M306.69 686.448 L2352.76 686.448 L2352.76 106.192 L306.69 106.192  Z" fill="#ffffff" fill-rule="evenodd" fill-opacity="1"/>
<defs>
  <clipPath id="clip572">
    <rect x="306" y="106" width="2047" height="581"/>
  </clipPath>
</defs>
<polyline clip-path="url(#clip572)" style="stroke:#000000; stroke-linecap:round; stroke-linejoin:round; stroke-width:2; stroke-opacity:0.1; fill:none" points="340.469,686.448 340.469,106.192 "/>
<polyline clip-path="url(#clip572)" style="stroke:#000000; stroke-linecap:round; stroke-linejoin:round; stroke-width:2; stroke-opacity:0.1; fill:none" points="823.032,686.448 823.032,106.192 "/>
<polyline clip-path="url(#clip572)" style="stroke:#000000; stroke-linecap:round; stroke-linejoin:round; stroke-width:2; stroke-opacity:0.1; fill:none" points="1305.59,686.448 1305.59,106.192 "/>
<polyline clip-path="url(#clip572)" style="stroke:#000000; stroke-linecap:round; stroke-linejoin:round; stroke-width:2; stroke-opacity:0.1; fill:none" points="1788.16,686.448 1788.16,106.192 "/>
<polyline clip-path="url(#clip572)" style="stroke:#000000; stroke-linecap:round; stroke-linejoin:round; stroke-width:2; stroke-opacity:0.1; fill:none" points="2270.72,686.448 2270.72,106.192 "/>
<polyline clip-path="url(#clip572)" style="stroke:#000000; stroke-linecap:round; stroke-linejoin:round; stroke-width:2; stroke-opacity:0.1; fill:none" points="306.69,668.31 2352.76,668.31 "/>
<polyline clip-path="url(#clip572)" style="stroke:#000000; stroke-linecap:round; stroke-linejoin:round; stroke-width:2; stroke-opacity:0.1; fill:none" points="306.69,553.612 2352.76,553.612 "/>
<polyline clip-path="url(#clip572)" style="stroke:#000000; stroke-linecap:round; stroke-linejoin:round; stroke-width:2; stroke-opacity:0.1; fill:none" points="306.69,438.914 2352.76,438.914 "/>
<polyline clip-path="url(#clip572)" style="stroke:#000000; stroke-linecap:round; stroke-linejoin:round; stroke-width:2; stroke-opacity:0.1; fill:none" points="306.69,324.216 2352.76,324.216 "/>
<polyline clip-path="url(#clip572)" style="stroke:#000000; stroke-linecap:round; stroke-linejoin:round; stroke-width:2; stroke-opacity:0.1; fill:none" points="306.69,209.518 2352.76,209.518 "/>
<polyline clip-path="url(#clip570)" style="stroke:#000000; stroke-linecap:round; stroke-linejoin:round; stroke-width:4; stroke-opacity:1; fill:none" points="306.69,686.448 2352.76,686.448 "/>
<polyline clip-path="url(#clip570)" style="stroke:#000000; stroke-linecap:round; stroke-linejoin:round; stroke-width:4; stroke-opacity:1; fill:none" points="340.469,686.448 340.469,667.55 "/>
<polyline clip-path="url(#clip570)" style="stroke:#000000; stroke-linecap:round; stroke-linejoin:round; stroke-width:4; stroke-opacity:1; fill:none" points="823.032,686.448 823.032,667.55 "/>
<polyline clip-path="url(#clip570)" style="stroke:#000000; stroke-linecap:round; stroke-linejoin:round; stroke-width:4; stroke-opacity:1; fill:none" points="1305.59,686.448 1305.59,667.55 "/>
<polyline clip-path="url(#clip570)" style="stroke:#000000; stroke-linecap:round; stroke-linejoin:round; stroke-width:4; stroke-opacity:1; fill:none" points="1788.16,686.448 1788.16,667.55 "/>
<polyline clip-path="url(#clip570)" style="stroke:#000000; stroke-linecap:round; stroke-linejoin:round; stroke-width:4; stroke-opacity:1; fill:none" points="2270.72,686.448 2270.72,667.55 "/>
<path clip-path="url(#clip570)" d="M340.469 717.367 Q336.858 717.367 335.03 720.931 Q333.224 724.473 333.224 731.603 Q333.224 738.709 335.03 742.274 Q336.858 745.815 340.469 745.815 Q344.104 745.815 345.909 742.274 Q347.738 738.709 347.738 731.603 Q347.738 724.473 345.909 720.931 Q344.104 717.367 340.469 717.367 M340.469 713.663 Q346.28 713.663 349.335 718.269 Q352.414 722.853 352.414 731.603 Q352.414 740.329 349.335 744.936 Q346.28 749.519 340.469 749.519 Q334.659 749.519 331.581 744.936 Q328.525 740.329 328.525 731.603 Q328.525 722.853 331.581 718.269 Q334.659 713.663 340.469 713.663 Z" fill="#000000" fill-rule="nonzero" fill-opacity="1" /><path clip-path="url(#clip570)" d="M801.805 744.913 L818.125 744.913 L818.125 748.848 L796.18 748.848 L796.18 744.913 Q798.842 742.158 803.426 737.528 Q808.032 732.876 809.213 731.533 Q811.458 729.01 812.338 727.274 Q813.241 725.515 813.241 723.825 Q813.241 721.07 811.296 719.334 Q809.375 717.598 806.273 717.598 Q804.074 717.598 801.62 718.362 Q799.19 719.126 796.412 720.677 L796.412 715.955 Q799.236 714.82 801.69 714.242 Q804.143 713.663 806.18 713.663 Q811.551 713.663 814.745 716.348 Q817.94 719.033 817.94 723.524 Q817.94 725.654 817.129 727.575 Q816.342 729.473 814.236 732.066 Q813.657 732.737 810.555 735.954 Q807.454 739.149 801.805 744.913 Z" fill="#000000" fill-rule="nonzero" fill-opacity="1" /><path clip-path="url(#clip570)" d="M837.939 717.367 Q834.328 717.367 832.5 720.931 Q830.694 724.473 830.694 731.603 Q830.694 738.709 832.5 742.274 Q834.328 745.815 837.939 745.815 Q841.574 745.815 843.379 742.274 Q845.208 738.709 845.208 731.603 Q845.208 724.473 843.379 720.931 Q841.574 717.367 837.939 717.367 M837.939 713.663 Q843.75 713.663 846.805 718.269 Q849.884 722.853 849.884 731.603 Q849.884 740.329 846.805 744.936 Q843.75 749.519 837.939 749.519 Q832.129 749.519 829.051 744.936 Q825.995 740.329 825.995 731.603 Q825.995 722.853 829.051 718.269 Q832.129 713.663 837.939 713.663 Z" fill="#000000" fill-rule="nonzero" fill-opacity="1" /><path clip-path="url(#clip570)" d="M1293.77 718.362 L1281.96 736.811 L1293.77 736.811 L1293.77 718.362 M1292.54 714.288 L1298.42 714.288 L1298.42 736.811 L1303.35 736.811 L1303.35 740.7 L1298.42 740.7 L1298.42 748.848 L1293.77 748.848 L1293.77 740.7 L1278.16 740.7 L1278.16 736.186 L1292.54 714.288 Z" fill="#000000" fill-rule="nonzero" fill-opacity="1" /><path clip-path="url(#clip570)" d="M1321.08 717.367 Q1317.47 717.367 1315.64 720.931 Q1313.84 724.473 1313.84 731.603 Q1313.84 738.709 1315.64 742.274 Q1317.47 745.815 1321.08 745.815 Q1324.72 745.815 1326.52 742.274 Q1328.35 738.709 1328.35 731.603 Q1328.35 724.473 1326.52 720.931 Q1324.72 717.367 1321.08 717.367 M1321.08 713.663 Q1326.89 713.663 1329.95 718.269 Q1333.03 722.853 1333.03 731.603 Q1333.03 740.329 1329.95 744.936 Q1326.89 749.519 1321.08 749.519 Q1315.27 749.519 1312.19 744.936 Q1309.14 740.329 1309.14 731.603 Q1309.14 722.853 1312.19 718.269 Q1315.27 713.663 1321.08 713.663 Z" fill="#000000" fill-rule="nonzero" fill-opacity="1" /><path clip-path="url(#clip570)" d="M1773.56 729.704 Q1770.41 729.704 1768.56 731.857 Q1766.73 734.01 1766.73 737.76 Q1766.73 741.487 1768.56 743.663 Q1770.41 745.815 1773.56 745.815 Q1776.71 745.815 1778.54 743.663 Q1780.39 741.487 1780.39 737.76 Q1780.39 734.01 1778.54 731.857 Q1776.71 729.704 1773.56 729.704 M1782.85 715.052 L1782.85 719.311 Q1781.09 718.478 1779.28 718.038 Q1777.5 717.598 1775.74 717.598 Q1771.11 717.598 1768.66 720.723 Q1766.22 723.848 1765.88 730.167 Q1767.24 728.154 1769.3 727.089 Q1771.36 726.001 1773.84 726.001 Q1779.05 726.001 1782.06 729.172 Q1785.09 732.32 1785.09 737.76 Q1785.09 743.084 1781.94 746.302 Q1778.79 749.519 1773.56 749.519 Q1767.57 749.519 1764.4 744.936 Q1761.22 740.329 1761.22 731.603 Q1761.22 723.408 1765.11 718.547 Q1769 713.663 1775.55 713.663 Q1777.31 713.663 1779.1 714.01 Q1780.9 714.357 1782.85 715.052 Z" fill="#000000" fill-rule="nonzero" fill-opacity="1" /><path clip-path="url(#clip570)" d="M1803.15 717.367 Q1799.53 717.367 1797.71 720.931 Q1795.9 724.473 1795.9 731.603 Q1795.9 738.709 1797.71 742.274 Q1799.53 745.815 1803.15 745.815 Q1806.78 745.815 1808.59 742.274 Q1810.41 738.709 1810.41 731.603 Q1810.41 724.473 1808.59 720.931 Q1806.78 717.367 1803.15 717.367 M1803.15 713.663 Q1808.96 713.663 1812.01 718.269 Q1815.09 722.853 1815.09 731.603 Q1815.09 740.329 1812.01 744.936 Q1808.96 749.519 1803.15 749.519 Q1797.34 749.519 1794.26 744.936 Q1791.2 740.329 1791.2 731.603 Q1791.2 722.853 1794.26 718.269 Q1797.34 713.663 1803.15 713.663 Z" fill="#000000" fill-rule="nonzero" fill-opacity="1" /><path clip-path="url(#clip570)" d="M2255.59 732.436 Q2252.26 732.436 2250.34 734.218 Q2248.44 736.001 2248.44 739.126 Q2248.44 742.251 2250.34 744.033 Q2252.26 745.815 2255.59 745.815 Q2258.93 745.815 2260.85 744.033 Q2262.77 742.228 2262.77 739.126 Q2262.77 736.001 2260.85 734.218 Q2258.95 732.436 2255.59 732.436 M2250.92 730.445 Q2247.91 729.704 2246.22 727.644 Q2244.55 725.584 2244.55 722.621 Q2244.55 718.478 2247.49 716.07 Q2250.45 713.663 2255.59 713.663 Q2260.76 713.663 2263.69 716.07 Q2266.63 718.478 2266.63 722.621 Q2266.63 725.584 2264.94 727.644 Q2263.28 729.704 2260.29 730.445 Q2263.67 731.232 2265.55 733.524 Q2267.44 735.816 2267.44 739.126 Q2267.44 744.149 2264.37 746.834 Q2261.31 749.519 2255.59 749.519 Q2249.88 749.519 2246.8 746.834 Q2243.74 744.149 2243.74 739.126 Q2243.74 735.816 2245.64 733.524 Q2247.54 731.232 2250.92 730.445 M2249.2 723.061 Q2249.2 725.746 2250.87 727.251 Q2252.56 728.755 2255.59 728.755 Q2258.6 728.755 2260.29 727.251 Q2262.01 725.746 2262.01 723.061 Q2262.01 720.376 2260.29 718.871 Q2258.6 717.367 2255.59 717.367 Q2252.56 717.367 2250.87 718.871 Q2249.2 720.376 2249.2 723.061 Z" fill="#000000" fill-rule="nonzero" fill-opacity="1" /><path clip-path="url(#clip570)" d="M2285.75 717.367 Q2282.14 717.367 2280.32 720.931 Q2278.51 724.473 2278.51 731.603 Q2278.51 738.709 2280.32 742.274 Q2282.14 745.815 2285.75 745.815 Q2289.39 745.815 2291.19 742.274 Q2293.02 738.709 2293.02 731.603 Q2293.02 724.473 2291.19 720.931 Q2289.39 717.367 2285.75 717.367 M2285.75 713.663 Q2291.57 713.663 2294.62 718.269 Q2297.7 722.853 2297.7 731.603 Q2297.7 740.329 2294.62 744.936 Q2291.57 749.519 2285.75 749.519 Q2279.94 749.519 2276.87 744.936 Q2273.81 740.329 2273.81 731.603 Q2273.81 722.853 2276.87 718.269 Q2279.94 713.663 2285.75 713.663 Z" fill="#000000" fill-rule="nonzero" fill-opacity="1" /><polyline clip-path="url(#clip570)" style="stroke:#000000; stroke-linecap:round; stroke-linejoin:round; stroke-width:4; stroke-opacity:1; fill:none" points="306.69,686.448 306.69,106.192 "/>
<polyline clip-path="url(#clip570)" style="stroke:#000000; stroke-linecap:round; stroke-linejoin:round; stroke-width:4; stroke-opacity:1; fill:none" points="306.69,668.31 325.588,668.31 "/>
<polyline clip-path="url(#clip570)" style="stroke:#000000; stroke-linecap:round; stroke-linejoin:round; stroke-width:4; stroke-opacity:1; fill:none" points="306.69,553.612 325.588,553.612 "/>
<polyline clip-path="url(#clip570)" style="stroke:#000000; stroke-linecap:round; stroke-linejoin:round; stroke-width:4; stroke-opacity:1; fill:none" points="306.69,438.914 325.588,438.914 "/>
<polyline clip-path="url(#clip570)" style="stroke:#000000; stroke-linecap:round; stroke-linejoin:round; stroke-width:4; stroke-opacity:1; fill:none" points="306.69,324.216 325.588,324.216 "/>
<polyline clip-path="url(#clip570)" style="stroke:#000000; stroke-linecap:round; stroke-linejoin:round; stroke-width:4; stroke-opacity:1; fill:none" points="306.69,209.518 325.588,209.518 "/>
<path clip-path="url(#clip570)" d="M51.6634 657.478 L73.8855 657.478 L73.8855 659.468 L61.3393 692.038 L56.4551 692.038 L68.2606 661.413 L51.6634 661.413 L51.6634 657.478 Z" fill="#000000" fill-rule="nonzero" fill-opacity="1" /><path clip-path="url(#clip570)" d="M83.0058 686.158 L87.8901 686.158 L87.8901 692.038 L83.0058 692.038 L83.0058 686.158 Z" fill="#000000" fill-rule="nonzero" fill-opacity="1" /><path clip-path="url(#clip570)" d="M102.103 688.102 L118.422 688.102 L118.422 692.038 L96.478 692.038 L96.478 688.102 Q99.14 685.348 103.723 680.718 Q108.33 676.065 109.51 674.723 Q111.756 672.2 112.635 670.464 Q113.538 668.704 113.538 667.015 Q113.538 664.26 111.594 662.524 Q109.672 660.788 106.571 660.788 Q104.371 660.788 101.918 661.552 Q99.4872 662.315 96.7095 663.866 L96.7095 659.144 Q99.5335 658.01 101.987 657.431 Q104.441 656.853 106.478 656.853 Q111.848 656.853 115.043 659.538 Q118.237 662.223 118.237 666.714 Q118.237 668.843 117.427 670.764 Q116.64 672.663 114.533 675.255 Q113.955 675.927 110.853 679.144 Q107.751 682.339 102.103 688.102 Z" fill="#000000" fill-rule="nonzero" fill-opacity="1" /><path clip-path="url(#clip570)" d="M138.237 660.556 Q134.626 660.556 132.797 664.121 Q130.992 667.663 130.992 674.792 Q130.992 681.899 132.797 685.463 Q134.626 689.005 138.237 689.005 Q141.871 689.005 143.677 685.463 Q145.506 681.899 145.506 674.792 Q145.506 667.663 143.677 664.121 Q141.871 660.556 138.237 660.556 M138.237 656.853 Q144.047 656.853 147.103 661.459 Q150.181 666.042 150.181 674.792 Q150.181 683.519 147.103 688.126 Q144.047 692.709 138.237 692.709 Q132.427 692.709 129.348 688.126 Q126.293 683.519 126.293 674.792 Q126.293 666.042 129.348 661.459 Q132.427 656.853 138.237 656.853 Z" fill="#000000" fill-rule="nonzero" fill-opacity="1" /><path clip-path="url(#clip570)" d="M186.57 666.575 L175.991 677.2 L186.57 687.778 L183.815 690.579 L173.191 679.954 L162.566 690.579 L159.834 687.778 L170.39 677.2 L159.834 666.575 L162.566 663.774 L173.191 674.399 L183.815 663.774 L186.57 666.575 Z" fill="#000000" fill-rule="nonzero" fill-opacity="1" /><path clip-path="url(#clip570)" d="M198.931 688.102 L206.57 688.102 L206.57 661.737 L198.26 663.403 L198.26 659.144 L206.524 657.478 L211.2 657.478 L211.2 688.102 L218.838 688.102 L218.838 692.038 L198.931 692.038 L198.931 688.102 Z" fill="#000000" fill-rule="nonzero" fill-opacity="1" /><path clip-path="url(#clip570)" d="M238.283 660.556 Q234.672 660.556 232.843 664.121 Q231.037 667.663 231.037 674.792 Q231.037 681.899 232.843 685.463 Q234.672 689.005 238.283 689.005 Q241.917 689.005 243.723 685.463 Q245.551 681.899 245.551 674.792 Q245.551 667.663 243.723 664.121 Q241.917 660.556 238.283 660.556 M238.283 656.853 Q244.093 656.853 247.148 661.459 Q250.227 666.042 250.227 674.792 Q250.227 683.519 247.148 688.126 Q244.093 692.709 238.283 692.709 Q232.473 692.709 229.394 688.126 Q226.338 683.519 226.338 674.792 Q226.338 666.042 229.394 661.459 Q232.473 656.853 238.283 656.853 Z" fill="#000000" fill-rule="nonzero" fill-opacity="1" /><path clip-path="url(#clip570)" d="M262.904 639.857 L253.312 654.847 L262.904 654.847 L262.904 639.857 M261.907 636.547 L266.684 636.547 L266.684 654.847 L270.69 654.847 L270.69 658.007 L266.684 658.007 L266.684 664.627 L262.904 664.627 L262.904 658.007 L250.227 658.007 L250.227 654.339 L261.907 636.547 Z" fill="#000000" fill-rule="nonzero" fill-opacity="1" /><path clip-path="url(#clip570)" d="M51.6634 542.779 L73.8855 542.779 L73.8855 544.77 L61.3393 577.339 L56.4551 577.339 L68.2606 546.715 L51.6634 546.715 L51.6634 542.779 Z" fill="#000000" fill-rule="nonzero" fill-opacity="1" /><path clip-path="url(#clip570)" d="M83.0058 571.46 L87.8901 571.46 L87.8901 577.339 L83.0058 577.339 L83.0058 571.46 Z" fill="#000000" fill-rule="nonzero" fill-opacity="1" /><path clip-path="url(#clip570)" d="M98.1215 542.779 L116.478 542.779 L116.478 546.715 L102.404 546.715 L102.404 555.187 Q103.422 554.84 104.441 554.678 Q105.459 554.492 106.478 554.492 Q112.265 554.492 115.645 557.664 Q119.024 560.835 119.024 566.252 Q119.024 571.83 115.552 574.932 Q112.08 578.011 105.76 578.011 Q103.584 578.011 101.316 577.64 Q99.0706 577.27 96.6632 576.529 L96.6632 571.83 Q98.7465 572.964 100.969 573.52 Q103.191 574.076 105.668 574.076 Q109.672 574.076 112.01 571.969 Q114.348 569.863 114.348 566.252 Q114.348 562.64 112.01 560.534 Q109.672 558.428 105.668 558.428 Q103.793 558.428 101.918 558.844 Q100.066 559.261 98.1215 560.14 L98.1215 542.779 Z" fill="#000000" fill-rule="nonzero" fill-opacity="1" /><path clip-path="url(#clip570)" d="M138.237 545.858 Q134.626 545.858 132.797 549.423 Q130.992 552.965 130.992 560.094 Q130.992 567.201 132.797 570.765 Q134.626 574.307 138.237 574.307 Q141.871 574.307 143.677 570.765 Q145.506 567.201 145.506 560.094 Q145.506 552.965 143.677 549.423 Q141.871 545.858 138.237 545.858 M138.237 542.154 Q144.047 542.154 147.103 546.761 Q150.181 551.344 150.181 560.094 Q150.181 568.821 147.103 573.427 Q144.047 578.011 138.237 578.011 Q132.427 578.011 129.348 573.427 Q126.293 568.821 126.293 560.094 Q126.293 551.344 129.348 546.761 Q132.427 542.154 138.237 542.154 Z" fill="#000000" fill-rule="nonzero" fill-opacity="1" /><path clip-path="url(#clip570)" d="M186.57 551.877 L175.991 562.502 L186.57 573.08 L183.815 575.881 L173.191 565.256 L162.566 575.881 L159.834 573.08 L170.39 562.502 L159.834 551.877 L162.566 549.076 L173.191 559.701 L183.815 549.076 L186.57 551.877 Z" fill="#000000" fill-rule="nonzero" fill-opacity="1" /><path clip-path="url(#clip570)" d="M198.931 573.404 L206.57 573.404 L206.57 547.039 L198.26 548.705 L198.26 544.446 L206.524 542.779 L211.2 542.779 L211.2 573.404 L218.838 573.404 L218.838 577.339 L198.931 577.339 L198.931 573.404 Z" fill="#000000" fill-rule="nonzero" fill-opacity="1" /><path clip-path="url(#clip570)" d="M238.283 545.858 Q234.672 545.858 232.843 549.423 Q231.037 552.965 231.037 560.094 Q231.037 567.201 232.843 570.765 Q234.672 574.307 238.283 574.307 Q241.917 574.307 243.723 570.765 Q245.551 567.201 245.551 560.094 Q245.551 552.965 243.723 549.423 Q241.917 545.858 238.283 545.858 M238.283 542.154 Q244.093 542.154 247.148 546.761 Q250.227 551.344 250.227 560.094 Q250.227 568.821 247.148 573.427 Q244.093 578.011 238.283 578.011 Q232.473 578.011 229.394 573.427 Q226.338 568.821 226.338 560.094 Q226.338 551.344 229.394 546.761 Q232.473 542.154 238.283 542.154 Z" fill="#000000" fill-rule="nonzero" fill-opacity="1" /><path clip-path="url(#clip570)" d="M262.904 525.159 L253.312 540.149 L262.904 540.149 L262.904 525.159 M261.907 521.849 L266.684 521.849 L266.684 540.149 L270.69 540.149 L270.69 543.309 L266.684 543.309 L266.684 549.929 L262.904 549.929 L262.904 543.309 L250.227 543.309 L250.227 539.641 L261.907 521.849 Z" fill="#000000" fill-rule="nonzero" fill-opacity="1" /><path clip-path="url(#clip570)" d="M51.6634 428.081 L73.8855 428.081 L73.8855 430.072 L61.3393 462.641 L56.4551 462.641 L68.2606 432.017 L51.6634 432.017 L51.6634 428.081 Z" fill="#000000" fill-rule="nonzero" fill-opacity="1" /><path clip-path="url(#clip570)" d="M83.0058 456.762 L87.8901 456.762 L87.8901 462.641 L83.0058 462.641 L83.0058 456.762 Z" fill="#000000" fill-rule="nonzero" fill-opacity="1" /><path clip-path="url(#clip570)" d="M108.075 446.229 Q104.742 446.229 102.821 448.012 Q100.922 449.794 100.922 452.919 Q100.922 456.044 102.821 457.827 Q104.742 459.609 108.075 459.609 Q111.408 459.609 113.33 457.827 Q115.251 456.021 115.251 452.919 Q115.251 449.794 113.33 448.012 Q111.432 446.229 108.075 446.229 M103.399 444.239 Q100.39 443.498 98.7002 441.438 Q97.0335 439.378 97.0335 436.415 Q97.0335 432.271 99.9733 429.864 Q102.936 427.456 108.075 427.456 Q113.237 427.456 116.177 429.864 Q119.117 432.271 119.117 436.415 Q119.117 439.378 117.427 441.438 Q115.76 443.498 112.774 444.239 Q116.154 445.026 118.029 447.317 Q119.927 449.609 119.927 452.919 Q119.927 457.942 116.848 460.628 Q113.793 463.313 108.075 463.313 Q102.358 463.313 99.2789 460.628 Q96.2234 457.942 96.2234 452.919 Q96.2234 449.609 98.1215 447.317 Q100.02 445.026 103.399 444.239 M101.686 436.855 Q101.686 439.54 103.353 441.044 Q105.043 442.549 108.075 442.549 Q111.084 442.549 112.774 441.044 Q114.487 439.54 114.487 436.855 Q114.487 434.169 112.774 432.665 Q111.084 431.16 108.075 431.16 Q105.043 431.16 103.353 432.665 Q101.686 434.169 101.686 436.855 Z" fill="#000000" fill-rule="nonzero" fill-opacity="1" /><path clip-path="url(#clip570)" d="M138.237 431.16 Q134.626 431.16 132.797 434.725 Q130.992 438.267 130.992 445.396 Q130.992 452.503 132.797 456.067 Q134.626 459.609 138.237 459.609 Q141.871 459.609 143.677 456.067 Q145.506 452.503 145.506 445.396 Q145.506 438.267 143.677 434.725 Q141.871 431.16 138.237 431.16 M138.237 427.456 Q144.047 427.456 147.103 432.063 Q150.181 436.646 150.181 445.396 Q150.181 454.123 147.103 458.729 Q144.047 463.313 138.237 463.313 Q132.427 463.313 129.348 458.729 Q126.293 454.123 126.293 445.396 Q126.293 436.646 129.348 432.063 Q132.427 427.456 138.237 427.456 Z" fill="#000000" fill-rule="nonzero" fill-opacity="1" /><path clip-path="url(#clip570)" d="M186.57 437.179 L175.991 447.804 L186.57 458.382 L183.815 461.183 L173.191 450.558 L162.566 461.183 L159.834 458.382 L170.39 447.804 L159.834 437.179 L162.566 434.378 L173.191 445.003 L183.815 434.378 L186.57 437.179 Z" fill="#000000" fill-rule="nonzero" fill-opacity="1" /><path clip-path="url(#clip570)" d="M198.931 458.706 L206.57 458.706 L206.57 432.341 L198.26 434.007 L198.26 429.748 L206.524 428.081 L211.2 428.081 L211.2 458.706 L218.838 458.706 L218.838 462.641 L198.931 462.641 L198.931 458.706 Z" fill="#000000" fill-rule="nonzero" fill-opacity="1" /><path clip-path="url(#clip570)" d="M238.283 431.16 Q234.672 431.16 232.843 434.725 Q231.037 438.267 231.037 445.396 Q231.037 452.503 232.843 456.067 Q234.672 459.609 238.283 459.609 Q241.917 459.609 243.723 456.067 Q245.551 452.503 245.551 445.396 Q245.551 438.267 243.723 434.725 Q241.917 431.16 238.283 431.16 M238.283 427.456 Q244.093 427.456 247.148 432.063 Q250.227 436.646 250.227 445.396 Q250.227 454.123 247.148 458.729 Q244.093 463.313 238.283 463.313 Q232.473 463.313 229.394 458.729 Q226.338 454.123 226.338 445.396 Q226.338 436.646 229.394 432.063 Q232.473 427.456 238.283 427.456 Z" fill="#000000" fill-rule="nonzero" fill-opacity="1" /><path clip-path="url(#clip570)" d="M262.904 410.461 L253.312 425.451 L262.904 425.451 L262.904 410.461 M261.907 407.151 L266.684 407.151 L266.684 425.451 L270.69 425.451 L270.69 428.611 L266.684 428.611 L266.684 435.231 L262.904 435.231 L262.904 428.611 L250.227 428.611 L250.227 424.943 L261.907 407.151 Z" fill="#000000" fill-rule="nonzero" fill-opacity="1" /><path clip-path="url(#clip570)" d="M62.8439 331.531 Q59.5106 331.531 57.5893 333.314 Q55.6912 335.096 55.6912 338.221 Q55.6912 341.346 57.5893 343.129 Q59.5106 344.911 62.8439 344.911 Q66.1772 344.911 68.0985 343.129 Q70.0198 341.323 70.0198 338.221 Q70.0198 335.096 68.0985 333.314 Q66.2004 331.531 62.8439 331.531 M58.168 329.541 Q55.1588 328.8 53.469 326.74 Q51.8023 324.68 51.8023 321.717 Q51.8023 317.573 54.7421 315.166 Q57.7051 312.758 62.8439 312.758 Q68.0059 312.758 70.9457 315.166 Q73.8855 317.573 73.8855 321.717 Q73.8855 324.68 72.1957 326.74 Q70.5291 328.8 67.543 329.541 Q70.9226 330.328 72.7976 332.619 Q74.6957 334.911 74.6957 338.221 Q74.6957 343.244 71.617 345.929 Q68.5615 348.615 62.8439 348.615 Q57.1264 348.615 54.0477 345.929 Q50.9921 343.244 50.9921 338.221 Q50.9921 334.911 52.8903 332.619 Q54.7884 330.328 58.168 329.541 M56.4551 322.156 Q56.4551 324.842 58.1217 326.346 Q59.8115 327.851 62.8439 327.851 Q65.8532 327.851 67.543 326.346 Q69.2559 324.842 69.2559 322.156 Q69.2559 319.471 67.543 317.967 Q65.8532 316.462 62.8439 316.462 Q59.8115 316.462 58.1217 317.967 Q56.4551 319.471 56.4551 322.156 Z" fill="#000000" fill-rule="nonzero" fill-opacity="1" /><path clip-path="url(#clip570)" d="M83.0058 342.064 L87.8901 342.064 L87.8901 347.943 L83.0058 347.943 L83.0058 342.064 Z" fill="#000000" fill-rule="nonzero" fill-opacity="1" /><path clip-path="url(#clip570)" d="M98.8854 344.008 L106.524 344.008 L106.524 317.643 L98.2141 319.309 L98.2141 315.05 L106.478 313.383 L111.154 313.383 L111.154 344.008 L118.793 344.008 L118.793 347.943 L98.8854 347.943 L98.8854 344.008 Z" fill="#000000" fill-rule="nonzero" fill-opacity="1" /><path clip-path="url(#clip570)" d="M138.237 316.462 Q134.626 316.462 132.797 320.027 Q130.992 323.568 130.992 330.698 Q130.992 337.805 132.797 341.369 Q134.626 344.911 138.237 344.911 Q141.871 344.911 143.677 341.369 Q145.506 337.805 145.506 330.698 Q145.506 323.568 143.677 320.027 Q141.871 316.462 138.237 316.462 M138.237 312.758 Q144.047 312.758 147.103 317.365 Q150.181 321.948 150.181 330.698 Q150.181 339.425 147.103 344.031 Q144.047 348.615 138.237 348.615 Q132.427 348.615 129.348 344.031 Q126.293 339.425 126.293 330.698 Q126.293 321.948 129.348 317.365 Q132.427 312.758 138.237 312.758 Z" fill="#000000" fill-rule="nonzero" fill-opacity="1" /><path clip-path="url(#clip570)" d="M186.57 322.481 L175.991 333.105 L186.57 343.684 L183.815 346.485 L173.191 335.86 L162.566 346.485 L159.834 343.684 L170.39 333.105 L159.834 322.481 L162.566 319.68 L173.191 330.305 L183.815 319.68 L186.57 322.481 Z" fill="#000000" fill-rule="nonzero" fill-opacity="1" /><path clip-path="url(#clip570)" d="M198.931 344.008 L206.57 344.008 L206.57 317.643 L198.26 319.309 L198.26 315.05 L206.524 313.383 L211.2 313.383 L211.2 344.008 L218.838 344.008 L218.838 347.943 L198.931 347.943 L198.931 344.008 Z" fill="#000000" fill-rule="nonzero" fill-opacity="1" /><path clip-path="url(#clip570)" d="M238.283 316.462 Q234.672 316.462 232.843 320.027 Q231.037 323.568 231.037 330.698 Q231.037 337.805 232.843 341.369 Q234.672 344.911 238.283 344.911 Q241.917 344.911 243.723 341.369 Q245.551 337.805 245.551 330.698 Q245.551 323.568 243.723 320.027 Q241.917 316.462 238.283 316.462 M238.283 312.758 Q244.093 312.758 247.148 317.365 Q250.227 321.948 250.227 330.698 Q250.227 339.425 247.148 344.031 Q244.093 348.615 238.283 348.615 Q232.473 348.615 229.394 344.031 Q226.338 339.425 226.338 330.698 Q226.338 321.948 229.394 317.365 Q232.473 312.758 238.283 312.758 Z" fill="#000000" fill-rule="nonzero" fill-opacity="1" /><path clip-path="url(#clip570)" d="M262.904 295.763 L253.312 310.753 L262.904 310.753 L262.904 295.763 M261.907 292.453 L266.684 292.453 L266.684 310.753 L270.69 310.753 L270.69 313.913 L266.684 313.913 L266.684 320.533 L262.904 320.533 L262.904 313.913 L250.227 313.913 L250.227 310.245 L261.907 292.453 Z" fill="#000000" fill-rule="nonzero" fill-opacity="1" /><path clip-path="url(#clip570)" d="M62.8439 216.833 Q59.5106 216.833 57.5893 218.616 Q55.6912 220.398 55.6912 223.523 Q55.6912 226.648 57.5893 228.43 Q59.5106 230.213 62.8439 230.213 Q66.1772 230.213 68.0985 228.43 Q70.0198 226.625 70.0198 223.523 Q70.0198 220.398 68.0985 218.616 Q66.2004 216.833 62.8439 216.833 M58.168 214.843 Q55.1588 214.102 53.469 212.042 Q51.8023 209.982 51.8023 207.019 Q51.8023 202.875 54.7421 200.468 Q57.7051 198.06 62.8439 198.06 Q68.0059 198.06 70.9457 200.468 Q73.8855 202.875 73.8855 207.019 Q73.8855 209.982 72.1957 212.042 Q70.5291 214.102 67.543 214.843 Q70.9226 215.63 72.7976 217.921 Q74.6957 220.213 74.6957 223.523 Q74.6957 228.546 71.617 231.231 Q68.5615 233.917 62.8439 233.917 Q57.1264 233.917 54.0477 231.231 Q50.9921 228.546 50.9921 223.523 Q50.9921 220.213 52.8903 217.921 Q54.7884 215.63 58.168 214.843 M56.4551 207.458 Q56.4551 210.144 58.1217 211.648 Q59.8115 213.153 62.8439 213.153 Q65.8532 213.153 67.543 211.648 Q69.2559 210.144 69.2559 207.458 Q69.2559 204.773 67.543 203.269 Q65.8532 201.764 62.8439 201.764 Q59.8115 201.764 58.1217 203.269 Q56.4551 204.773 56.4551 207.458 Z" fill="#000000" fill-rule="nonzero" fill-opacity="1" /><path clip-path="url(#clip570)" d="M83.0058 227.366 L87.8901 227.366 L87.8901 233.245 L83.0058 233.245 L83.0058 227.366 Z" fill="#000000" fill-rule="nonzero" fill-opacity="1" /><path clip-path="url(#clip570)" d="M110.922 202.759 L99.1169 221.208 L110.922 221.208 L110.922 202.759 M109.696 198.685 L115.575 198.685 L115.575 221.208 L120.506 221.208 L120.506 225.097 L115.575 225.097 L115.575 233.245 L110.922 233.245 L110.922 225.097 L95.3206 225.097 L95.3206 220.583 L109.696 198.685 Z" fill="#000000" fill-rule="nonzero" fill-opacity="1" /><path clip-path="url(#clip570)" d="M138.237 201.764 Q134.626 201.764 132.797 205.329 Q130.992 208.87 130.992 216 Q130.992 223.106 132.797 226.671 Q134.626 230.213 138.237 230.213 Q141.871 230.213 143.677 226.671 Q145.506 223.106 145.506 216 Q145.506 208.87 143.677 205.329 Q141.871 201.764 138.237 201.764 M138.237 198.06 Q144.047 198.06 147.103 202.667 Q150.181 207.25 150.181 216 Q150.181 224.727 147.103 229.333 Q144.047 233.917 138.237 233.917 Q132.427 233.917 129.348 229.333 Q126.293 224.727 126.293 216 Q126.293 207.25 129.348 202.667 Q132.427 198.06 138.237 198.06 Z" fill="#000000" fill-rule="nonzero" fill-opacity="1" /><path clip-path="url(#clip570)" d="M186.57 207.782 L175.991 218.407 L186.57 228.986 L183.815 231.787 L173.191 221.162 L162.566 231.787 L159.834 228.986 L170.39 218.407 L159.834 207.782 L162.566 204.982 L173.191 215.606 L183.815 204.982 L186.57 207.782 Z" fill="#000000" fill-rule="nonzero" fill-opacity="1" /><path clip-path="url(#clip570)" d="M198.931 229.31 L206.57 229.31 L206.57 202.945 L198.26 204.611 L198.26 200.352 L206.524 198.685 L211.2 198.685 L211.2 229.31 L218.838 229.31 L218.838 233.245 L198.931 233.245 L198.931 229.31 Z" fill="#000000" fill-rule="nonzero" fill-opacity="1" /><path clip-path="url(#clip570)" d="M238.283 201.764 Q234.672 201.764 232.843 205.329 Q231.037 208.87 231.037 216 Q231.037 223.106 232.843 226.671 Q234.672 230.213 238.283 230.213 Q241.917 230.213 243.723 226.671 Q245.551 223.106 245.551 216 Q245.551 208.87 243.723 205.329 Q241.917 201.764 238.283 201.764 M238.283 198.06 Q244.093 198.06 247.148 202.667 Q250.227 207.25 250.227 216 Q250.227 224.727 247.148 229.333 Q244.093 233.917 238.283 233.917 Q232.473 233.917 229.394 229.333 Q226.338 224.727 226.338 216 Q226.338 207.25 229.394 202.667 Q232.473 198.06 238.283 198.06 Z" fill="#000000" fill-rule="nonzero" fill-opacity="1" /><path clip-path="url(#clip570)" d="M262.904 181.065 L253.312 196.055 L262.904 196.055 L262.904 181.065 M261.907 177.755 L266.684 177.755 L266.684 196.055 L270.69 196.055 L270.69 199.215 L266.684 199.215 L266.684 205.835 L262.904 205.835 L262.904 199.215 L250.227 199.215 L250.227 195.547 L261.907 177.755 Z" fill="#000000" fill-rule="nonzero" fill-opacity="1" /><path clip-path="url(#clip570)" d="M1300.19 35.2602 Q1300.19 29.4732 1297.79 26.2904 Q1295.42 23.1075 1291.11 23.1075 Q1286.83 23.1075 1284.43 26.2904 Q1282.05 29.4732 1282.05 35.2602 Q1282.05 41.0183 1284.43 44.2012 Q1286.83 47.384 1291.11 47.384 Q1295.42 47.384 1297.79 44.2012 Q1300.19 41.0183 1300.19 35.2602 M1305.52 47.818 Q1305.52 56.0934 1301.84 60.1154 Q1298.17 64.1663 1290.59 64.1663 Q1287.78 64.1663 1285.29 63.7323 Q1282.8 63.3272 1280.46 62.4592 L1280.46 57.2798 Q1282.8 58.5529 1285.09 59.1606 Q1287.38 59.7682 1289.75 59.7682 Q1294.99 59.7682 1297.59 57.0194 Q1300.19 54.2995 1300.19 48.7729 L1300.19 46.1398 Q1298.55 49.0044 1295.97 50.4222 Q1293.4 51.84 1289.81 51.84 Q1283.85 51.84 1280.2 47.2972 Q1276.55 42.7544 1276.55 35.2602 Q1276.55 27.7371 1280.2 23.1943 Q1283.85 18.6515 1289.81 18.6515 Q1293.4 18.6515 1295.97 20.0693 Q1298.55 21.4872 1300.19 24.3517 L1300.19 19.4328 L1305.52 19.4328 L1305.52 47.818 Z" fill="#000000" fill-rule="nonzero" fill-opacity="1" /><path clip-path="url(#clip570)" d="M1337.81 24.3517 L1337.81 6.81709 L1343.13 6.81709 L1343.13 51.84 L1337.81 51.84 L1337.81 46.9789 Q1336.13 49.8724 1333.56 51.2902 Q1331.01 52.6791 1327.42 52.6791 Q1321.55 52.6791 1317.85 47.9916 Q1314.17 43.3042 1314.17 35.6653 Q1314.17 28.0265 1317.85 23.339 Q1321.55 18.6515 1327.42 18.6515 Q1331.01 18.6515 1333.56 20.0693 Q1336.13 21.4582 1337.81 24.3517 M1319.67 35.6653 Q1319.67 41.5391 1322.07 44.8956 Q1324.5 48.2231 1328.72 48.2231 Q1332.95 48.2231 1335.38 44.8956 Q1337.81 41.5391 1337.81 35.6653 Q1337.81 29.7915 1335.38 26.464 Q1332.95 23.1075 1328.72 23.1075 Q1324.5 23.1075 1322.07 26.464 Q1319.67 29.7915 1319.67 35.6653 Z" fill="#000000" fill-rule="nonzero" fill-opacity="1" /><path clip-path="url(#clip570)" d="M1359.25 46.9789 L1359.25 64.1663 L1353.9 64.1663 L1353.9 19.4328 L1359.25 19.4328 L1359.25 24.3517 Q1360.93 21.4582 1363.48 20.0693 Q1366.05 18.6515 1369.61 18.6515 Q1375.51 18.6515 1379.19 23.339 Q1382.89 28.0265 1382.89 35.6653 Q1382.89 43.3042 1379.19 47.9916 Q1375.51 52.6791 1369.61 52.6791 Q1366.05 52.6791 1363.48 51.2902 Q1360.93 49.8724 1359.25 46.9789 M1377.36 35.6653 Q1377.36 29.7915 1374.93 26.464 Q1372.53 23.1075 1368.31 23.1075 Q1364.08 23.1075 1361.65 26.464 Q1359.25 29.7915 1359.25 35.6653 Q1359.25 41.5391 1361.65 44.8956 Q1364.08 48.2231 1368.31 48.2231 Q1372.53 48.2231 1374.93 44.8956 Q1377.36 41.5391 1377.36 35.6653 Z" fill="#000000" fill-rule="nonzero" fill-opacity="1" /><polyline clip-path="url(#clip572)" style="stroke:#009af9; stroke-linecap:round; stroke-linejoin:round; stroke-width:4; stroke-opacity:1; fill:none" points="364.598,670.026 388.726,653.983 412.854,603.706 436.982,580.175 461.11,540.653 485.238,554.553 509.366,581.078 533.494,558.927 557.623,561.838 581.751,529.064 605.879,510.869 630.007,451.953 654.135,431.63 678.263,427.105 702.391,404.31 726.52,419.069 750.648,418.472 774.776,412.422 798.904,414.364 823.032,442.437 847.16,454.757 871.288,473.904 895.417,491.46 919.545,488.674 943.673,465.034 967.801,425.19 991.929,383.71 1016.06,384.427 1040.19,363.879 1064.31,342.282 1088.44,349.955 1112.57,331.977 1136.7,319.841 1160.83,284.516 1184.95,281.368 1209.08,238.027 1233.21,230.873 1257.34,263.052 1281.47,311.191 1305.59,308.692 1329.72,335.954 1353.85,332.07 1377.98,334.717 1402.11,350.962 1426.24,364.581 1450.36,378.973 1474.49,395.92 1498.62,396.681 1522.75,402.738 1546.88,396.752 1571,390.994 1595.13,407.378 1619.26,400.75 1643.39,399.224 1667.52,401.367 1691.64,387.649 1715.77,380.013 1739.9,363.676 1764.03,349.332 1788.16,335.478 1812.29,322.405 1836.41,301.416 1860.54,252.317 1884.67,240.994 1908.8,228.678 1932.93,214.97 1957.05,202.012 1981.18,189.634 2005.31,180.621 2029.44,157.954 2053.57,150.278 2077.7,138.73 2101.82,136.493 2125.95,122.614 2150.08,128.275 2174.21,127.28 2198.34,129.601 2222.46,136.322 2246.59,150.567 2270.72,129.341 2294.85,135.493 "/>
<path clip-path="url(#clip570)" d="M374.892 281.054 L987.136 281.054 L987.136 125.534 L374.892 125.534  Z" fill="#ffffff" fill-rule="evenodd" fill-opacity="1"/>
<polyline clip-path="url(#clip570)" style="stroke:#000000; stroke-linecap:round; stroke-linejoin:round; stroke-width:4; stroke-opacity:1; fill:none" points="374.892,281.054 987.136,281.054 987.136,125.534 374.892,125.534 374.892,281.054 "/>
<polyline clip-path="url(#clip570)" style="stroke:#009af9; stroke-linecap:round; stroke-linejoin:round; stroke-width:4; stroke-opacity:1; fill:none" points="397.626,177.374 534.031,177.374 "/>
<path clip-path="url(#clip570)" d="M573.269 158.636 L573.269 162.177 L569.195 162.177 Q566.904 162.177 566.001 163.103 Q565.121 164.029 565.121 166.437 L565.121 168.728 L572.135 168.728 L572.135 172.038 L565.121 172.038 L565.121 194.654 L560.839 194.654 L560.839 172.038 L556.765 172.038 L556.765 168.728 L560.839 168.728 L560.839 166.923 Q560.839 162.594 562.853 160.626 Q564.867 158.636 569.242 158.636 L573.269 158.636 Z" fill="#000000" fill-rule="nonzero" fill-opacity="1" /><path clip-path="url(#clip570)" d="M586.88 171.714 Q583.454 171.714 581.464 174.399 Q579.473 177.061 579.473 181.714 Q579.473 186.367 581.441 189.052 Q583.431 191.714 586.88 191.714 Q590.283 191.714 592.274 189.029 Q594.265 186.344 594.265 181.714 Q594.265 177.108 592.274 174.423 Q590.283 171.714 586.88 171.714 M586.88 168.103 Q592.436 168.103 595.607 171.714 Q598.778 175.325 598.778 181.714 Q598.778 188.08 595.607 191.714 Q592.436 195.325 586.88 195.325 Q581.302 195.325 578.13 191.714 Q574.982 188.08 574.982 181.714 Q574.982 175.325 578.13 171.714 Q581.302 168.103 586.88 168.103 Z" fill="#000000" fill-rule="nonzero" fill-opacity="1" /><path clip-path="url(#clip570)" d="M620.862 172.71 Q620.144 172.293 619.288 172.108 Q618.454 171.899 617.436 171.899 Q613.825 171.899 611.88 174.261 Q609.959 176.599 609.959 180.997 L609.959 194.654 L605.677 194.654 L605.677 168.728 L609.959 168.728 L609.959 172.756 Q611.301 170.395 613.454 169.261 Q615.607 168.103 618.686 168.103 Q619.126 168.103 619.658 168.173 Q620.19 168.219 620.838 168.335 L620.862 172.71 Z" fill="#000000" fill-rule="nonzero" fill-opacity="1" /><path clip-path="url(#clip570)" d="M622.852 168.728 L627.112 168.728 L632.436 188.96 L637.737 168.728 L642.76 168.728 L648.084 188.96 L653.385 168.728 L657.644 168.728 L650.861 194.654 L645.838 194.654 L640.26 173.404 L634.658 194.654 L629.635 194.654 L622.852 168.728 Z" fill="#000000" fill-rule="nonzero" fill-opacity="1" /><path clip-path="url(#clip570)" d="M675.884 181.622 Q670.722 181.622 668.732 182.802 Q666.741 183.983 666.741 186.83 Q666.741 189.098 668.222 190.441 Q669.727 191.76 672.297 191.76 Q675.838 191.76 677.968 189.26 Q680.121 186.737 680.121 182.571 L680.121 181.622 L675.884 181.622 M684.38 179.862 L684.38 194.654 L680.121 194.654 L680.121 190.719 Q678.662 193.08 676.486 194.214 Q674.31 195.325 671.162 195.325 Q667.181 195.325 664.82 193.103 Q662.482 190.858 662.482 187.108 Q662.482 182.733 665.398 180.511 Q668.338 178.288 674.148 178.288 L680.121 178.288 L680.121 177.872 Q680.121 174.932 678.176 173.335 Q676.255 171.714 672.759 171.714 Q670.537 171.714 668.431 172.247 Q666.324 172.779 664.38 173.844 L664.38 169.909 Q666.718 169.006 668.917 168.566 Q671.116 168.103 673.199 168.103 Q678.824 168.103 681.602 171.02 Q684.38 173.937 684.38 179.862 Z" fill="#000000" fill-rule="nonzero" fill-opacity="1" /><path clip-path="url(#clip570)" d="M708.176 172.71 Q707.458 172.293 706.602 172.108 Q705.769 171.899 704.75 171.899 Q701.139 171.899 699.195 174.261 Q697.273 176.599 697.273 180.997 L697.273 194.654 L692.991 194.654 L692.991 168.728 L697.273 168.728 L697.273 172.756 Q698.616 170.395 700.769 169.261 Q702.921 168.103 706 168.103 Q706.44 168.103 706.972 168.173 Q707.505 168.219 708.153 168.335 L708.176 172.71 Z" fill="#000000" fill-rule="nonzero" fill-opacity="1" /><path clip-path="url(#clip570)" d="M728.87 172.663 L728.87 158.636 L733.13 158.636 L733.13 194.654 L728.87 194.654 L728.87 190.765 Q727.528 193.08 725.468 194.214 Q723.431 195.325 720.56 195.325 Q715.861 195.325 712.898 191.575 Q709.958 187.825 709.958 181.714 Q709.958 175.603 712.898 171.853 Q715.861 168.103 720.56 168.103 Q723.431 168.103 725.468 169.237 Q727.528 170.349 728.87 172.663 M714.356 181.714 Q714.356 186.413 716.278 189.098 Q718.222 191.76 721.602 191.76 Q724.981 191.76 726.926 189.098 Q728.87 186.413 728.87 181.714 Q728.87 177.015 726.926 174.353 Q724.981 171.668 721.602 171.668 Q718.222 171.668 716.278 174.353 Q714.356 177.015 714.356 181.714 Z" fill="#000000" fill-rule="nonzero" fill-opacity="1" /><path clip-path="url(#clip570)" d="M756.972 158.636 L761.231 158.636 L761.231 194.654 L756.972 194.654 L756.972 158.636 Z" fill="#000000" fill-rule="nonzero" fill-opacity="1" /><path clip-path="url(#clip570)" d="M780.189 171.714 Q776.764 171.714 774.773 174.399 Q772.782 177.061 772.782 181.714 Q772.782 186.367 774.75 189.052 Q776.74 191.714 780.189 191.714 Q783.592 191.714 785.583 189.029 Q787.574 186.344 787.574 181.714 Q787.574 177.108 785.583 174.423 Q783.592 171.714 780.189 171.714 M780.189 168.103 Q785.745 168.103 788.916 171.714 Q792.088 175.325 792.088 181.714 Q792.088 188.08 788.916 191.714 Q785.745 195.325 780.189 195.325 Q774.611 195.325 771.44 191.714 Q768.291 188.08 768.291 181.714 Q768.291 175.325 771.44 171.714 Q774.611 168.103 780.189 168.103 Z" fill="#000000" fill-rule="nonzero" fill-opacity="1" /><path clip-path="url(#clip570)" d="M809.194 171.714 Q805.768 171.714 803.777 174.399 Q801.787 177.061 801.787 181.714 Q801.787 186.367 803.754 189.052 Q805.745 191.714 809.194 191.714 Q812.597 191.714 814.587 189.029 Q816.578 186.344 816.578 181.714 Q816.578 177.108 814.587 174.423 Q812.597 171.714 809.194 171.714 M809.194 168.103 Q814.749 168.103 817.921 171.714 Q821.092 175.325 821.092 181.714 Q821.092 188.08 817.921 191.714 Q814.749 195.325 809.194 195.325 Q803.615 195.325 800.444 191.714 Q797.296 188.08 797.296 181.714 Q797.296 175.325 800.444 171.714 Q803.615 168.103 809.194 168.103 Z" fill="#000000" fill-rule="nonzero" fill-opacity="1" /><path clip-path="url(#clip570)" d="M827.99 158.636 L832.273 158.636 L832.273 179.909 L844.981 168.728 L850.421 168.728 L836.671 180.858 L850.999 194.654 L845.444 194.654 L832.273 181.992 L832.273 194.654 L827.99 194.654 L827.99 158.636 Z" fill="#000000" fill-rule="nonzero" fill-opacity="1" /><path clip-path="url(#clip570)" d="M855.606 168.728 L859.865 168.728 L859.865 194.654 L855.606 194.654 L855.606 168.728 M855.606 158.636 L859.865 158.636 L859.865 164.029 L855.606 164.029 L855.606 158.636 Z" fill="#000000" fill-rule="nonzero" fill-opacity="1" /><path clip-path="url(#clip570)" d="M890.328 179.006 L890.328 194.654 L886.069 194.654 L886.069 179.145 Q886.069 175.464 884.633 173.636 Q883.198 171.807 880.328 171.807 Q876.879 171.807 874.888 174.006 Q872.897 176.205 872.897 180.001 L872.897 194.654 L868.615 194.654 L868.615 168.728 L872.897 168.728 L872.897 172.756 Q874.425 170.418 876.485 169.261 Q878.569 168.103 881.277 168.103 Q885.744 168.103 888.036 170.881 Q890.328 173.636 890.328 179.006 Z" fill="#000000" fill-rule="nonzero" fill-opacity="1" /><path clip-path="url(#clip570)" d="M915.883 181.39 Q915.883 176.761 913.962 174.214 Q912.064 171.668 908.615 171.668 Q905.189 171.668 903.268 174.214 Q901.369 176.761 901.369 181.39 Q901.369 185.997 903.268 188.543 Q905.189 191.089 908.615 191.089 Q912.064 191.089 913.962 188.543 Q915.883 185.997 915.883 181.39 M920.142 191.436 Q920.142 198.057 917.203 201.274 Q914.263 204.515 908.198 204.515 Q905.953 204.515 903.962 204.168 Q901.971 203.844 900.096 203.149 L900.096 199.006 Q901.971 200.024 903.8 200.51 Q905.629 200.997 907.527 200.997 Q911.717 200.997 913.8 198.797 Q915.883 196.622 915.883 192.2 L915.883 190.094 Q914.564 192.385 912.504 193.52 Q910.443 194.654 907.573 194.654 Q902.805 194.654 899.888 191.02 Q896.971 187.386 896.971 181.39 Q896.971 175.372 899.888 171.737 Q902.805 168.103 907.573 168.103 Q910.443 168.103 912.504 169.237 Q914.564 170.372 915.883 172.663 L915.883 168.728 L920.142 168.728 L920.142 191.436 Z" fill="#000000" fill-rule="nonzero" fill-opacity="1" /><polyline clip-path="url(#clip570)" style="stroke:#e26f46; stroke-linecap:round; stroke-linejoin:round; stroke-width:4; stroke-opacity:1; fill:none" points="397.626,229.214 534.031,229.214 "/>
<path clip-path="url(#clip570)" d="M575.538 233.554 Q575.538 228.855 573.593 226.193 Q571.672 223.508 568.292 223.508 Q564.913 223.508 562.968 226.193 Q561.047 228.855 561.047 233.554 Q561.047 238.253 562.968 240.938 Q564.913 243.6 568.292 243.6 Q571.672 243.6 573.593 240.938 Q575.538 238.253 575.538 233.554 M561.047 224.503 Q562.39 222.189 564.427 221.077 Q566.487 219.943 569.334 219.943 Q574.056 219.943 576.996 223.693 Q579.959 227.443 579.959 233.554 Q579.959 239.665 576.996 243.415 Q574.056 247.165 569.334 247.165 Q566.487 247.165 564.427 246.054 Q562.39 244.92 561.047 242.605 L561.047 246.494 L556.765 246.494 L556.765 210.476 L561.047 210.476 L561.047 224.503 Z" fill="#000000" fill-rule="nonzero" fill-opacity="1" /><path clip-path="url(#clip570)" d="M598.802 233.462 Q593.64 233.462 591.649 234.642 Q589.658 235.823 589.658 238.67 Q589.658 240.938 591.14 242.281 Q592.644 243.6 595.214 243.6 Q598.755 243.6 600.885 241.1 Q603.038 238.577 603.038 234.411 L603.038 233.462 L598.802 233.462 M607.297 231.702 L607.297 246.494 L603.038 246.494 L603.038 242.559 Q601.579 244.92 599.403 246.054 Q597.227 247.165 594.079 247.165 Q590.098 247.165 587.737 244.943 Q585.399 242.698 585.399 238.948 Q585.399 234.573 588.315 232.351 Q591.255 230.128 597.065 230.128 L603.038 230.128 L603.038 229.712 Q603.038 226.772 601.093 225.175 Q599.172 223.554 595.677 223.554 Q593.454 223.554 591.348 224.087 Q589.241 224.619 587.297 225.684 L587.297 221.749 Q589.635 220.846 591.834 220.406 Q594.033 219.943 596.116 219.943 Q601.741 219.943 604.519 222.86 Q607.297 225.777 607.297 231.702 Z" fill="#000000" fill-rule="nonzero" fill-opacity="1" /><path clip-path="url(#clip570)" d="M634.727 221.564 L634.727 225.545 Q632.922 224.55 631.093 224.064 Q629.288 223.554 627.436 223.554 Q623.292 223.554 621.001 226.193 Q618.709 228.809 618.709 233.554 Q618.709 238.3 621.001 240.938 Q623.292 243.554 627.436 243.554 Q629.288 243.554 631.093 243.068 Q632.922 242.559 634.727 241.563 L634.727 245.499 Q632.945 246.332 631.024 246.749 Q629.125 247.165 626.973 247.165 Q621.116 247.165 617.667 243.485 Q614.218 239.804 614.218 233.554 Q614.218 227.212 617.69 223.577 Q621.186 219.943 627.25 219.943 Q629.218 219.943 631.093 220.36 Q632.968 220.753 634.727 221.564 Z" fill="#000000" fill-rule="nonzero" fill-opacity="1" /><path clip-path="url(#clip570)" d="M641.973 210.476 L646.255 210.476 L646.255 231.749 L658.963 220.568 L664.403 220.568 L650.653 232.698 L664.982 246.494 L659.426 246.494 L646.255 233.832 L646.255 246.494 L641.973 246.494 L641.973 210.476 Z" fill="#000000" fill-rule="nonzero" fill-opacity="1" /><path clip-path="url(#clip570)" d="M667.111 220.568 L671.371 220.568 L676.695 240.8 L681.996 220.568 L687.019 220.568 L692.343 240.8 L697.644 220.568 L701.903 220.568 L695.12 246.494 L690.097 246.494 L684.519 225.244 L678.917 246.494 L673.894 246.494 L667.111 220.568 Z" fill="#000000" fill-rule="nonzero" fill-opacity="1" /><path clip-path="url(#clip570)" d="M720.143 233.462 Q714.981 233.462 712.991 234.642 Q711 235.823 711 238.67 Q711 240.938 712.482 242.281 Q713.986 243.6 716.556 243.6 Q720.097 243.6 722.227 241.1 Q724.38 238.577 724.38 234.411 L724.38 233.462 L720.143 233.462 M728.639 231.702 L728.639 246.494 L724.38 246.494 L724.38 242.559 Q722.921 244.92 720.745 246.054 Q718.569 247.165 715.421 247.165 Q711.44 247.165 709.079 244.943 Q706.741 242.698 706.741 238.948 Q706.741 234.573 709.657 232.351 Q712.597 230.128 718.407 230.128 L724.38 230.128 L724.38 229.712 Q724.38 226.772 722.435 225.175 Q720.514 223.554 717.019 223.554 Q714.796 223.554 712.69 224.087 Q710.583 224.619 708.639 225.684 L708.639 221.749 Q710.977 220.846 713.176 220.406 Q715.375 219.943 717.458 219.943 Q723.083 219.943 725.861 222.86 Q728.639 225.777 728.639 231.702 Z" fill="#000000" fill-rule="nonzero" fill-opacity="1" /><path clip-path="url(#clip570)" d="M752.435 224.55 Q751.717 224.133 750.861 223.948 Q750.028 223.739 749.009 223.739 Q745.398 223.739 743.454 226.101 Q741.532 228.439 741.532 232.837 L741.532 246.494 L737.25 246.494 L737.25 220.568 L741.532 220.568 L741.532 224.596 Q742.875 222.235 745.028 221.101 Q747.18 219.943 750.259 219.943 Q750.699 219.943 751.231 220.013 Q751.764 220.059 752.412 220.175 L752.435 224.55 Z" fill="#000000" fill-rule="nonzero" fill-opacity="1" /><path clip-path="url(#clip570)" d="M773.129 224.503 L773.129 210.476 L777.389 210.476 L777.389 246.494 L773.129 246.494 L773.129 242.605 Q771.787 244.92 769.727 246.054 Q767.69 247.165 764.819 247.165 Q760.12 247.165 757.157 243.415 Q754.217 239.665 754.217 233.554 Q754.217 227.443 757.157 223.693 Q760.12 219.943 764.819 219.943 Q767.69 219.943 769.727 221.077 Q771.787 222.189 773.129 224.503 M758.616 233.554 Q758.616 238.253 760.537 240.938 Q762.481 243.6 765.861 243.6 Q769.24 243.6 771.185 240.938 Q773.129 238.253 773.129 233.554 Q773.129 228.855 771.185 226.193 Q769.24 223.508 765.861 223.508 Q762.481 223.508 760.537 226.193 Q758.616 228.855 758.616 233.554 Z" fill="#000000" fill-rule="nonzero" fill-opacity="1" /><path clip-path="url(#clip570)" d="M801.231 210.476 L805.49 210.476 L805.49 246.494 L801.231 246.494 L801.231 210.476 Z" fill="#000000" fill-rule="nonzero" fill-opacity="1" /><path clip-path="url(#clip570)" d="M824.448 223.554 Q821.023 223.554 819.032 226.239 Q817.041 228.901 817.041 233.554 Q817.041 238.207 819.009 240.892 Q820.999 243.554 824.448 243.554 Q827.851 243.554 829.842 240.869 Q831.833 238.184 831.833 233.554 Q831.833 228.948 829.842 226.263 Q827.851 223.554 824.448 223.554 M824.448 219.943 Q830.004 219.943 833.175 223.554 Q836.347 227.165 836.347 233.554 Q836.347 239.92 833.175 243.554 Q830.004 247.165 824.448 247.165 Q818.87 247.165 815.699 243.554 Q812.55 239.92 812.55 233.554 Q812.55 227.165 815.699 223.554 Q818.87 219.943 824.448 219.943 Z" fill="#000000" fill-rule="nonzero" fill-opacity="1" /><path clip-path="url(#clip570)" d="M853.453 223.554 Q850.027 223.554 848.036 226.239 Q846.046 228.901 846.046 233.554 Q846.046 238.207 848.013 240.892 Q850.004 243.554 853.453 243.554 Q856.856 243.554 858.846 240.869 Q860.837 238.184 860.837 233.554 Q860.837 228.948 858.846 226.263 Q856.856 223.554 853.453 223.554 M853.453 219.943 Q859.008 219.943 862.18 223.554 Q865.351 227.165 865.351 233.554 Q865.351 239.92 862.18 243.554 Q859.008 247.165 853.453 247.165 Q847.874 247.165 844.703 243.554 Q841.555 239.92 841.555 233.554 Q841.555 227.165 844.703 223.554 Q847.874 219.943 853.453 219.943 Z" fill="#000000" fill-rule="nonzero" fill-opacity="1" /><path clip-path="url(#clip570)" d="M872.249 210.476 L876.532 210.476 L876.532 231.749 L889.24 220.568 L894.68 220.568 L880.93 232.698 L895.258 246.494 L889.703 246.494 L876.532 233.832 L876.532 246.494 L872.249 246.494 L872.249 210.476 Z" fill="#000000" fill-rule="nonzero" fill-opacity="1" /><path clip-path="url(#clip570)" d="M899.865 220.568 L904.124 220.568 L904.124 246.494 L899.865 246.494 L899.865 220.568 M899.865 210.476 L904.124 210.476 L904.124 215.869 L899.865 215.869 L899.865 210.476 Z" fill="#000000" fill-rule="nonzero" fill-opacity="1" /><path clip-path="url(#clip570)" d="M934.587 230.846 L934.587 246.494 L930.328 246.494 L930.328 230.985 Q930.328 227.304 928.892 225.476 Q927.457 223.647 924.587 223.647 Q921.138 223.647 919.147 225.846 Q917.156 228.045 917.156 231.841 L917.156 246.494 L912.874 246.494 L912.874 220.568 L917.156 220.568 L917.156 224.596 Q918.684 222.258 920.744 221.101 Q922.828 219.943 925.536 219.943 Q930.003 219.943 932.295 222.721 Q934.587 225.476 934.587 230.846 Z" fill="#000000" fill-rule="nonzero" fill-opacity="1" /><path clip-path="url(#clip570)" d="M960.142 233.23 Q960.142 228.601 958.221 226.054 Q956.323 223.508 952.874 223.508 Q949.448 223.508 947.527 226.054 Q945.628 228.601 945.628 233.23 Q945.628 237.837 947.527 240.383 Q949.448 242.929 952.874 242.929 Q956.323 242.929 958.221 240.383 Q960.142 237.837 960.142 233.23 M964.401 243.276 Q964.401 249.897 961.462 253.114 Q958.522 256.355 952.457 256.355 Q950.212 256.355 948.221 256.008 Q946.23 255.684 944.355 254.989 L944.355 250.846 Q946.23 251.864 948.059 252.35 Q949.888 252.837 951.786 252.837 Q955.976 252.837 958.059 250.637 Q960.142 248.462 960.142 244.04 L960.142 241.934 Q958.823 244.225 956.763 245.36 Q954.702 246.494 951.832 246.494 Q947.064 246.494 944.147 242.86 Q941.23 239.226 941.23 233.23 Q941.23 227.212 944.147 223.577 Q947.064 219.943 951.832 219.943 Q954.702 219.943 956.763 221.077 Q958.823 222.212 960.142 224.503 L960.142 220.568 L964.401 220.568 L964.401 243.276 Z" fill="#000000" fill-rule="nonzero" fill-opacity="1" /><path clip-path="url(#clip570)" d="M306.69 1486.45 L2352.76 1486.45 L2352.76 906.192 L306.69 906.192  Z" fill="#ffffff" fill-rule="evenodd" fill-opacity="1"/>
<defs>
  <clipPath id="clip573">
    <rect x="306" y="906" width="2047" height="581"/>
  </clipPath>
</defs>
<polyline clip-path="url(#clip573)" style="stroke:#000000; stroke-linecap:round; stroke-linejoin:round; stroke-width:2; stroke-opacity:0.1; fill:none" points="340.469,1486.45 340.469,906.192 "/>
<polyline clip-path="url(#clip573)" style="stroke:#000000; stroke-linecap:round; stroke-linejoin:round; stroke-width:2; stroke-opacity:0.1; fill:none" points="823.032,1486.45 823.032,906.192 "/>
<polyline clip-path="url(#clip573)" style="stroke:#000000; stroke-linecap:round; stroke-linejoin:round; stroke-width:2; stroke-opacity:0.1; fill:none" points="1305.59,1486.45 1305.59,906.192 "/>
<polyline clip-path="url(#clip573)" style="stroke:#000000; stroke-linecap:round; stroke-linejoin:round; stroke-width:2; stroke-opacity:0.1; fill:none" points="1788.16,1486.45 1788.16,906.192 "/>
<polyline clip-path="url(#clip573)" style="stroke:#000000; stroke-linecap:round; stroke-linejoin:round; stroke-width:2; stroke-opacity:0.1; fill:none" points="2270.72,1486.45 2270.72,906.192 "/>
<polyline clip-path="url(#clip573)" style="stroke:#000000; stroke-linecap:round; stroke-linejoin:round; stroke-width:2; stroke-opacity:0.1; fill:none" points="306.69,1424.55 2352.76,1424.55 "/>
<polyline clip-path="url(#clip573)" style="stroke:#000000; stroke-linecap:round; stroke-linejoin:round; stroke-width:2; stroke-opacity:0.1; fill:none" points="306.69,1317.31 2352.76,1317.31 "/>
<polyline clip-path="url(#clip573)" style="stroke:#000000; stroke-linecap:round; stroke-linejoin:round; stroke-width:2; stroke-opacity:0.1; fill:none" points="306.69,1210.08 2352.76,1210.08 "/>
<polyline clip-path="url(#clip573)" style="stroke:#000000; stroke-linecap:round; stroke-linejoin:round; stroke-width:2; stroke-opacity:0.1; fill:none" points="306.69,1102.84 2352.76,1102.84 "/>
<polyline clip-path="url(#clip573)" style="stroke:#000000; stroke-linecap:round; stroke-linejoin:round; stroke-width:2; stroke-opacity:0.1; fill:none" points="306.69,995.599 2352.76,995.599 "/>
<polyline clip-path="url(#clip570)" style="stroke:#000000; stroke-linecap:round; stroke-linejoin:round; stroke-width:4; stroke-opacity:1; fill:none" points="306.69,1486.45 2352.76,1486.45 "/>
<polyline clip-path="url(#clip570)" style="stroke:#000000; stroke-linecap:round; stroke-linejoin:round; stroke-width:4; stroke-opacity:1; fill:none" points="340.469,1486.45 340.469,1467.55 "/>
<polyline clip-path="url(#clip570)" style="stroke:#000000; stroke-linecap:round; stroke-linejoin:round; stroke-width:4; stroke-opacity:1; fill:none" points="823.032,1486.45 823.032,1467.55 "/>
<polyline clip-path="url(#clip570)" style="stroke:#000000; stroke-linecap:round; stroke-linejoin:round; stroke-width:4; stroke-opacity:1; fill:none" points="1305.59,1486.45 1305.59,1467.55 "/>
<polyline clip-path="url(#clip570)" style="stroke:#000000; stroke-linecap:round; stroke-linejoin:round; stroke-width:4; stroke-opacity:1; fill:none" points="1788.16,1486.45 1788.16,1467.55 "/>
<polyline clip-path="url(#clip570)" style="stroke:#000000; stroke-linecap:round; stroke-linejoin:round; stroke-width:4; stroke-opacity:1; fill:none" points="2270.72,1486.45 2270.72,1467.55 "/>
<path clip-path="url(#clip570)" d="M340.469 1517.37 Q336.858 1517.37 335.03 1520.93 Q333.224 1524.47 333.224 1531.6 Q333.224 1538.71 335.03 1542.27 Q336.858 1545.82 340.469 1545.82 Q344.104 1545.82 345.909 1542.27 Q347.738 1538.71 347.738 1531.6 Q347.738 1524.47 345.909 1520.93 Q344.104 1517.37 340.469 1517.37 M340.469 1513.66 Q346.28 1513.66 349.335 1518.27 Q352.414 1522.85 352.414 1531.6 Q352.414 1540.33 349.335 1544.94 Q346.28 1549.52 340.469 1549.52 Q334.659 1549.52 331.581 1544.94 Q328.525 1540.33 328.525 1531.6 Q328.525 1522.85 331.581 1518.27 Q334.659 1513.66 340.469 1513.66 Z" fill="#000000" fill-rule="nonzero" fill-opacity="1" /><path clip-path="url(#clip570)" d="M801.805 1544.91 L818.125 1544.91 L818.125 1548.85 L796.18 1548.85 L796.18 1544.91 Q798.842 1542.16 803.426 1537.53 Q808.032 1532.88 809.213 1531.53 Q811.458 1529.01 812.338 1527.27 Q813.241 1525.51 813.241 1523.82 Q813.241 1521.07 811.296 1519.33 Q809.375 1517.6 806.273 1517.6 Q804.074 1517.6 801.62 1518.36 Q799.19 1519.13 796.412 1520.68 L796.412 1515.95 Q799.236 1514.82 801.69 1514.24 Q804.143 1513.66 806.18 1513.66 Q811.551 1513.66 814.745 1516.35 Q817.94 1519.03 817.94 1523.52 Q817.94 1525.65 817.129 1527.57 Q816.342 1529.47 814.236 1532.07 Q813.657 1532.74 810.555 1535.95 Q807.454 1539.15 801.805 1544.91 Z" fill="#000000" fill-rule="nonzero" fill-opacity="1" /><path clip-path="url(#clip570)" d="M837.939 1517.37 Q834.328 1517.37 832.5 1520.93 Q830.694 1524.47 830.694 1531.6 Q830.694 1538.71 832.5 1542.27 Q834.328 1545.82 837.939 1545.82 Q841.574 1545.82 843.379 1542.27 Q845.208 1538.71 845.208 1531.6 Q845.208 1524.47 843.379 1520.93 Q841.574 1517.37 837.939 1517.37 M837.939 1513.66 Q843.75 1513.66 846.805 1518.27 Q849.884 1522.85 849.884 1531.6 Q849.884 1540.33 846.805 1544.94 Q843.75 1549.52 837.939 1549.52 Q832.129 1549.52 829.051 1544.94 Q825.995 1540.33 825.995 1531.6 Q825.995 1522.85 829.051 1518.27 Q832.129 1513.66 837.939 1513.66 Z" fill="#000000" fill-rule="nonzero" fill-opacity="1" /><path clip-path="url(#clip570)" d="M1293.77 1518.36 L1281.96 1536.81 L1293.77 1536.81 L1293.77 1518.36 M1292.54 1514.29 L1298.42 1514.29 L1298.42 1536.81 L1303.35 1536.81 L1303.35 1540.7 L1298.42 1540.7 L1298.42 1548.85 L1293.77 1548.85 L1293.77 1540.7 L1278.16 1540.7 L1278.16 1536.19 L1292.54 1514.29 Z" fill="#000000" fill-rule="nonzero" fill-opacity="1" /><path clip-path="url(#clip570)" d="M1321.08 1517.37 Q1317.47 1517.37 1315.64 1520.93 Q1313.84 1524.47 1313.84 1531.6 Q1313.84 1538.71 1315.64 1542.27 Q1317.47 1545.82 1321.08 1545.82 Q1324.72 1545.82 1326.52 1542.27 Q1328.35 1538.71 1328.35 1531.6 Q1328.35 1524.47 1326.52 1520.93 Q1324.72 1517.37 1321.08 1517.37 M1321.08 1513.66 Q1326.89 1513.66 1329.95 1518.27 Q1333.03 1522.85 1333.03 1531.6 Q1333.03 1540.33 1329.95 1544.94 Q1326.89 1549.52 1321.08 1549.52 Q1315.27 1549.52 1312.19 1544.94 Q1309.14 1540.33 1309.14 1531.6 Q1309.14 1522.85 1312.19 1518.27 Q1315.27 1513.66 1321.08 1513.66 Z" fill="#000000" fill-rule="nonzero" fill-opacity="1" /><path clip-path="url(#clip570)" d="M1773.56 1529.7 Q1770.41 1529.7 1768.56 1531.86 Q1766.73 1534.01 1766.73 1537.76 Q1766.73 1541.49 1768.56 1543.66 Q1770.41 1545.82 1773.56 1545.82 Q1776.71 1545.82 1778.54 1543.66 Q1780.39 1541.49 1780.39 1537.76 Q1780.39 1534.01 1778.54 1531.86 Q1776.71 1529.7 1773.56 1529.7 M1782.85 1515.05 L1782.85 1519.31 Q1781.09 1518.48 1779.28 1518.04 Q1777.5 1517.6 1775.74 1517.6 Q1771.11 1517.6 1768.66 1520.72 Q1766.22 1523.85 1765.88 1530.17 Q1767.24 1528.15 1769.3 1527.09 Q1771.36 1526 1773.84 1526 Q1779.05 1526 1782.06 1529.17 Q1785.09 1532.32 1785.09 1537.76 Q1785.09 1543.08 1781.94 1546.3 Q1778.79 1549.52 1773.56 1549.52 Q1767.57 1549.52 1764.4 1544.94 Q1761.22 1540.33 1761.22 1531.6 Q1761.22 1523.41 1765.11 1518.55 Q1769 1513.66 1775.55 1513.66 Q1777.31 1513.66 1779.1 1514.01 Q1780.9 1514.36 1782.85 1515.05 Z" fill="#000000" fill-rule="nonzero" fill-opacity="1" /><path clip-path="url(#clip570)" d="M1803.15 1517.37 Q1799.53 1517.37 1797.71 1520.93 Q1795.9 1524.47 1795.9 1531.6 Q1795.9 1538.71 1797.71 1542.27 Q1799.53 1545.82 1803.15 1545.82 Q1806.78 1545.82 1808.59 1542.27 Q1810.41 1538.71 1810.41 1531.6 Q1810.41 1524.47 1808.59 1520.93 Q1806.78 1517.37 1803.15 1517.37 M1803.15 1513.66 Q1808.96 1513.66 1812.01 1518.27 Q1815.09 1522.85 1815.09 1531.6 Q1815.09 1540.33 1812.01 1544.94 Q1808.96 1549.52 1803.15 1549.52 Q1797.34 1549.52 1794.26 1544.94 Q1791.2 1540.33 1791.2 1531.6 Q1791.2 1522.85 1794.26 1518.27 Q1797.34 1513.66 1803.15 1513.66 Z" fill="#000000" fill-rule="nonzero" fill-opacity="1" /><path clip-path="url(#clip570)" d="M2255.59 1532.44 Q2252.26 1532.44 2250.34 1534.22 Q2248.44 1536 2248.44 1539.13 Q2248.44 1542.25 2250.34 1544.03 Q2252.26 1545.82 2255.59 1545.82 Q2258.93 1545.82 2260.85 1544.03 Q2262.77 1542.23 2262.77 1539.13 Q2262.77 1536 2260.85 1534.22 Q2258.95 1532.44 2255.59 1532.44 M2250.92 1530.45 Q2247.91 1529.7 2246.22 1527.64 Q2244.55 1525.58 2244.55 1522.62 Q2244.55 1518.48 2247.49 1516.07 Q2250.45 1513.66 2255.59 1513.66 Q2260.76 1513.66 2263.69 1516.07 Q2266.63 1518.48 2266.63 1522.62 Q2266.63 1525.58 2264.94 1527.64 Q2263.28 1529.7 2260.29 1530.45 Q2263.67 1531.23 2265.55 1533.52 Q2267.44 1535.82 2267.44 1539.13 Q2267.44 1544.15 2264.37 1546.83 Q2261.31 1549.52 2255.59 1549.52 Q2249.88 1549.52 2246.8 1546.83 Q2243.74 1544.15 2243.74 1539.13 Q2243.74 1535.82 2245.64 1533.52 Q2247.54 1531.23 2250.92 1530.45 M2249.2 1523.06 Q2249.2 1525.75 2250.87 1527.25 Q2252.56 1528.76 2255.59 1528.76 Q2258.6 1528.76 2260.29 1527.25 Q2262.01 1525.75 2262.01 1523.06 Q2262.01 1520.38 2260.29 1518.87 Q2258.6 1517.37 2255.59 1517.37 Q2252.56 1517.37 2250.87 1518.87 Q2249.2 1520.38 2249.2 1523.06 Z" fill="#000000" fill-rule="nonzero" fill-opacity="1" /><path clip-path="url(#clip570)" d="M2285.75 1517.37 Q2282.14 1517.37 2280.32 1520.93 Q2278.51 1524.47 2278.51 1531.6 Q2278.51 1538.71 2280.32 1542.27 Q2282.14 1545.82 2285.75 1545.82 Q2289.39 1545.82 2291.19 1542.27 Q2293.02 1538.71 2293.02 1531.6 Q2293.02 1524.47 2291.19 1520.93 Q2289.39 1517.37 2285.75 1517.37 M2285.75 1513.66 Q2291.57 1513.66 2294.62 1518.27 Q2297.7 1522.85 2297.7 1531.6 Q2297.7 1540.33 2294.62 1544.94 Q2291.57 1549.52 2285.75 1549.52 Q2279.94 1549.52 2276.87 1544.94 Q2273.81 1540.33 2273.81 1531.6 Q2273.81 1522.85 2276.87 1518.27 Q2279.94 1513.66 2285.75 1513.66 Z" fill="#000000" fill-rule="nonzero" fill-opacity="1" /><polyline clip-path="url(#clip570)" style="stroke:#000000; stroke-linecap:round; stroke-linejoin:round; stroke-width:4; stroke-opacity:1; fill:none" points="306.69,1486.45 306.69,906.192 "/>
<polyline clip-path="url(#clip570)" style="stroke:#000000; stroke-linecap:round; stroke-linejoin:round; stroke-width:4; stroke-opacity:1; fill:none" points="306.69,1424.55 325.588,1424.55 "/>
<polyline clip-path="url(#clip570)" style="stroke:#000000; stroke-linecap:round; stroke-linejoin:round; stroke-width:4; stroke-opacity:1; fill:none" points="306.69,1317.31 325.588,1317.31 "/>
<polyline clip-path="url(#clip570)" style="stroke:#000000; stroke-linecap:round; stroke-linejoin:round; stroke-width:4; stroke-opacity:1; fill:none" points="306.69,1210.08 325.588,1210.08 "/>
<polyline clip-path="url(#clip570)" style="stroke:#000000; stroke-linecap:round; stroke-linejoin:round; stroke-width:4; stroke-opacity:1; fill:none" points="306.69,1102.84 325.588,1102.84 "/>
<polyline clip-path="url(#clip570)" style="stroke:#000000; stroke-linecap:round; stroke-linejoin:round; stroke-width:4; stroke-opacity:1; fill:none" points="306.69,995.599 325.588,995.599 "/>
<path clip-path="url(#clip570)" d="M142.265 1423.2 Q145.621 1423.92 147.496 1426.18 Q149.394 1428.45 149.394 1431.79 Q149.394 1436.9 145.876 1439.7 Q142.357 1442.5 135.876 1442.5 Q133.7 1442.5 131.385 1442.06 Q129.094 1441.65 126.64 1440.79 L126.64 1436.28 Q128.584 1437.41 130.899 1437.99 Q133.214 1438.57 135.737 1438.57 Q140.135 1438.57 142.427 1436.83 Q144.742 1435.1 144.742 1431.79 Q144.742 1428.73 142.589 1427.02 Q140.459 1425.28 136.64 1425.28 L132.612 1425.28 L132.612 1421.44 L136.825 1421.44 Q140.274 1421.44 142.103 1420.07 Q143.931 1418.68 143.931 1416.09 Q143.931 1413.43 142.033 1412.02 Q140.158 1410.58 136.64 1410.58 Q134.719 1410.58 132.519 1411 Q130.32 1411.42 127.682 1412.3 L127.682 1408.13 Q130.344 1407.39 132.658 1407.02 Q134.996 1406.65 137.056 1406.65 Q142.381 1406.65 145.482 1409.08 Q148.584 1411.49 148.584 1415.61 Q148.584 1418.48 146.941 1420.47 Q145.297 1422.43 142.265 1423.2 Z" fill="#000000" fill-rule="nonzero" fill-opacity="1" /><path clip-path="url(#clip570)" d="M168.26 1425.42 Q164.927 1425.42 163.005 1427.2 Q161.107 1428.99 161.107 1432.11 Q161.107 1435.24 163.005 1437.02 Q164.927 1438.8 168.26 1438.8 Q171.593 1438.8 173.515 1437.02 Q175.436 1435.21 175.436 1432.11 Q175.436 1428.99 173.515 1427.2 Q171.616 1425.42 168.26 1425.42 M163.584 1423.43 Q160.575 1422.69 158.885 1420.63 Q157.218 1418.57 157.218 1415.61 Q157.218 1411.46 160.158 1409.05 Q163.121 1406.65 168.26 1406.65 Q173.422 1406.65 176.362 1409.05 Q179.302 1411.46 179.302 1415.61 Q179.302 1418.57 177.612 1420.63 Q175.945 1422.69 172.959 1423.43 Q176.339 1424.22 178.214 1426.51 Q180.112 1428.8 180.112 1432.11 Q180.112 1437.13 177.033 1439.82 Q173.978 1442.5 168.26 1442.5 Q162.542 1442.5 159.464 1439.82 Q156.408 1437.13 156.408 1432.11 Q156.408 1428.8 158.306 1426.51 Q160.205 1424.22 163.584 1423.43 M161.871 1416.05 Q161.871 1418.73 163.538 1420.24 Q165.228 1421.74 168.26 1421.74 Q171.269 1421.74 172.959 1420.24 Q174.672 1418.73 174.672 1416.05 Q174.672 1413.36 172.959 1411.86 Q171.269 1410.35 168.26 1410.35 Q165.228 1410.35 163.538 1411.86 Q161.871 1413.36 161.871 1416.05 Z" fill="#000000" fill-rule="nonzero" fill-opacity="1" /><path clip-path="url(#clip570)" d="M198.422 1410.35 Q194.811 1410.35 192.982 1413.92 Q191.177 1417.46 191.177 1424.59 Q191.177 1431.69 192.982 1435.26 Q194.811 1438.8 198.422 1438.8 Q202.056 1438.8 203.862 1435.26 Q205.69 1431.69 205.69 1424.59 Q205.69 1417.46 203.862 1413.92 Q202.056 1410.35 198.422 1410.35 M198.422 1406.65 Q204.232 1406.65 207.288 1411.25 Q210.366 1415.84 210.366 1424.59 Q210.366 1433.31 207.288 1437.92 Q204.232 1442.5 198.422 1442.5 Q192.612 1442.5 189.533 1437.92 Q186.478 1433.31 186.478 1424.59 Q186.478 1415.84 189.533 1411.25 Q192.612 1406.65 198.422 1406.65 Z" fill="#000000" fill-rule="nonzero" fill-opacity="1" /><path clip-path="url(#clip570)" d="M228.584 1410.35 Q224.973 1410.35 223.144 1413.92 Q221.338 1417.46 221.338 1424.59 Q221.338 1431.69 223.144 1435.26 Q224.973 1438.8 228.584 1438.8 Q232.218 1438.8 234.024 1435.26 Q235.852 1431.69 235.852 1424.59 Q235.852 1417.46 234.024 1413.92 Q232.218 1410.35 228.584 1410.35 M228.584 1406.65 Q234.394 1406.65 237.449 1411.25 Q240.528 1415.84 240.528 1424.59 Q240.528 1433.31 237.449 1437.92 Q234.394 1442.5 228.584 1442.5 Q222.774 1442.5 219.695 1437.92 Q216.639 1433.31 216.639 1424.59 Q216.639 1415.84 219.695 1411.25 Q222.774 1406.65 228.584 1406.65 Z" fill="#000000" fill-rule="nonzero" fill-opacity="1" /><path clip-path="url(#clip570)" d="M258.746 1410.35 Q255.135 1410.35 253.306 1413.92 Q251.5 1417.46 251.5 1424.59 Q251.5 1431.69 253.306 1435.26 Q255.135 1438.8 258.746 1438.8 Q262.38 1438.8 264.185 1435.26 Q266.014 1431.69 266.014 1424.59 Q266.014 1417.46 264.185 1413.92 Q262.38 1410.35 258.746 1410.35 M258.746 1406.65 Q264.556 1406.65 267.611 1411.25 Q270.69 1415.84 270.69 1424.59 Q270.69 1433.31 267.611 1437.92 Q264.556 1442.5 258.746 1442.5 Q252.935 1442.5 249.857 1437.92 Q246.801 1433.31 246.801 1424.59 Q246.801 1415.84 249.857 1411.25 Q252.935 1406.65 258.746 1406.65 Z" fill="#000000" fill-rule="nonzero" fill-opacity="1" /><path clip-path="url(#clip570)" d="M140.945 1304.11 L129.14 1322.56 L140.945 1322.56 L140.945 1304.11 M139.719 1300.03 L145.598 1300.03 L145.598 1322.56 L150.529 1322.56 L150.529 1326.45 L145.598 1326.45 L145.598 1334.59 L140.945 1334.59 L140.945 1326.45 L125.344 1326.45 L125.344 1321.93 L139.719 1300.03 Z" fill="#000000" fill-rule="nonzero" fill-opacity="1" /><path clip-path="url(#clip570)" d="M168.26 1303.11 Q164.649 1303.11 162.82 1306.68 Q161.015 1310.22 161.015 1317.35 Q161.015 1324.46 162.82 1328.02 Q164.649 1331.56 168.26 1331.56 Q171.894 1331.56 173.7 1328.02 Q175.528 1324.46 175.528 1317.35 Q175.528 1310.22 173.7 1306.68 Q171.894 1303.11 168.26 1303.11 M168.26 1299.41 Q174.07 1299.41 177.126 1304.02 Q180.204 1308.6 180.204 1317.35 Q180.204 1326.08 177.126 1330.68 Q174.07 1335.27 168.26 1335.27 Q162.45 1335.27 159.371 1330.68 Q156.316 1326.08 156.316 1317.35 Q156.316 1308.6 159.371 1304.02 Q162.45 1299.41 168.26 1299.41 Z" fill="#000000" fill-rule="nonzero" fill-opacity="1" /><path clip-path="url(#clip570)" d="M198.422 1303.11 Q194.811 1303.11 192.982 1306.68 Q191.177 1310.22 191.177 1317.35 Q191.177 1324.46 192.982 1328.02 Q194.811 1331.56 198.422 1331.56 Q202.056 1331.56 203.862 1328.02 Q205.69 1324.46 205.69 1317.35 Q205.69 1310.22 203.862 1306.68 Q202.056 1303.11 198.422 1303.11 M198.422 1299.41 Q204.232 1299.41 207.288 1304.02 Q210.366 1308.6 210.366 1317.35 Q210.366 1326.08 207.288 1330.68 Q204.232 1335.27 198.422 1335.27 Q192.612 1335.27 189.533 1330.68 Q186.478 1326.08 186.478 1317.35 Q186.478 1308.6 189.533 1304.02 Q192.612 1299.41 198.422 1299.41 Z" fill="#000000" fill-rule="nonzero" fill-opacity="1" /><path clip-path="url(#clip570)" d="M228.584 1303.11 Q224.973 1303.11 223.144 1306.68 Q221.338 1310.22 221.338 1317.35 Q221.338 1324.46 223.144 1328.02 Q224.973 1331.56 228.584 1331.56 Q232.218 1331.56 234.024 1328.02 Q235.852 1324.46 235.852 1317.35 Q235.852 1310.22 234.024 1306.68 Q232.218 1303.11 228.584 1303.11 M228.584 1299.41 Q234.394 1299.41 237.449 1304.02 Q240.528 1308.6 240.528 1317.35 Q240.528 1326.08 237.449 1330.68 Q234.394 1335.27 228.584 1335.27 Q222.774 1335.27 219.695 1330.68 Q216.639 1326.08 216.639 1317.35 Q216.639 1308.6 219.695 1304.02 Q222.774 1299.41 228.584 1299.41 Z" fill="#000000" fill-rule="nonzero" fill-opacity="1" /><path clip-path="url(#clip570)" d="M258.746 1303.11 Q255.135 1303.11 253.306 1306.68 Q251.5 1310.22 251.5 1317.35 Q251.5 1324.46 253.306 1328.02 Q255.135 1331.56 258.746 1331.56 Q262.38 1331.56 264.185 1328.02 Q266.014 1324.46 266.014 1317.35 Q266.014 1310.22 264.185 1306.68 Q262.38 1303.11 258.746 1303.11 M258.746 1299.41 Q264.556 1299.41 267.611 1304.02 Q270.69 1308.6 270.69 1317.35 Q270.69 1326.08 267.611 1330.68 Q264.556 1335.27 258.746 1335.27 Q252.935 1335.27 249.857 1330.68 Q246.801 1326.08 246.801 1317.35 Q246.801 1308.6 249.857 1304.02 Q252.935 1299.41 258.746 1299.41 Z" fill="#000000" fill-rule="nonzero" fill-opacity="1" /><path clip-path="url(#clip570)" d="M140.945 1196.87 L129.14 1215.32 L140.945 1215.32 L140.945 1196.87 M139.719 1192.8 L145.598 1192.8 L145.598 1215.32 L150.529 1215.32 L150.529 1219.21 L145.598 1219.21 L145.598 1227.36 L140.945 1227.36 L140.945 1219.21 L125.344 1219.21 L125.344 1214.69 L139.719 1192.8 Z" fill="#000000" fill-rule="nonzero" fill-opacity="1" /><path clip-path="url(#clip570)" d="M162.288 1223.42 L178.607 1223.42 L178.607 1227.36 L156.663 1227.36 L156.663 1223.42 Q159.325 1220.67 163.908 1216.04 Q168.515 1211.38 169.695 1210.04 Q171.941 1207.52 172.82 1205.78 Q173.723 1204.02 173.723 1202.33 Q173.723 1199.58 171.779 1197.84 Q169.857 1196.11 166.755 1196.11 Q164.556 1196.11 162.103 1196.87 Q159.672 1197.63 156.894 1199.18 L156.894 1194.46 Q159.718 1193.33 162.172 1192.75 Q164.626 1192.17 166.663 1192.17 Q172.033 1192.17 175.228 1194.86 Q178.422 1197.54 178.422 1202.03 Q178.422 1204.16 177.612 1206.08 Q176.825 1207.98 174.718 1210.57 Q174.14 1211.24 171.038 1214.46 Q167.936 1217.66 162.288 1223.42 Z" fill="#000000" fill-rule="nonzero" fill-opacity="1" /><path clip-path="url(#clip570)" d="M198.422 1195.87 Q194.811 1195.87 192.982 1199.44 Q191.177 1202.98 191.177 1210.11 Q191.177 1217.22 192.982 1220.78 Q194.811 1224.32 198.422 1224.32 Q202.056 1224.32 203.862 1220.78 Q205.69 1217.22 205.69 1210.11 Q205.69 1202.98 203.862 1199.44 Q202.056 1195.87 198.422 1195.87 M198.422 1192.17 Q204.232 1192.17 207.288 1196.78 Q210.366 1201.36 210.366 1210.11 Q210.366 1218.84 207.288 1223.44 Q204.232 1228.03 198.422 1228.03 Q192.612 1228.03 189.533 1223.44 Q186.478 1218.84 186.478 1210.11 Q186.478 1201.36 189.533 1196.78 Q192.612 1192.17 198.422 1192.17 Z" fill="#000000" fill-rule="nonzero" fill-opacity="1" /><path clip-path="url(#clip570)" d="M228.584 1195.87 Q224.973 1195.87 223.144 1199.44 Q221.338 1202.98 221.338 1210.11 Q221.338 1217.22 223.144 1220.78 Q224.973 1224.32 228.584 1224.32 Q232.218 1224.32 234.024 1220.78 Q235.852 1217.22 235.852 1210.11 Q235.852 1202.98 234.024 1199.44 Q232.218 1195.87 228.584 1195.87 M228.584 1192.17 Q234.394 1192.17 237.449 1196.78 Q240.528 1201.36 240.528 1210.11 Q240.528 1218.84 237.449 1223.44 Q234.394 1228.03 228.584 1228.03 Q222.774 1228.03 219.695 1223.44 Q216.639 1218.84 216.639 1210.11 Q216.639 1201.36 219.695 1196.78 Q222.774 1192.17 228.584 1192.17 Z" fill="#000000" fill-rule="nonzero" fill-opacity="1" /><path clip-path="url(#clip570)" d="M258.746 1195.87 Q255.135 1195.87 253.306 1199.44 Q251.5 1202.98 251.5 1210.11 Q251.5 1217.22 253.306 1220.78 Q255.135 1224.32 258.746 1224.32 Q262.38 1224.32 264.185 1220.78 Q266.014 1217.22 266.014 1210.11 Q266.014 1202.98 264.185 1199.44 Q262.38 1195.87 258.746 1195.87 M258.746 1192.17 Q264.556 1192.17 267.611 1196.78 Q270.69 1201.36 270.69 1210.11 Q270.69 1218.84 267.611 1223.44 Q264.556 1228.03 258.746 1228.03 Q252.935 1228.03 249.857 1223.44 Q246.801 1218.84 246.801 1210.11 Q246.801 1201.36 249.857 1196.78 Q252.935 1192.17 258.746 1192.17 Z" fill="#000000" fill-rule="nonzero" fill-opacity="1" /><path clip-path="url(#clip570)" d="M140.945 1089.63 L129.14 1108.08 L140.945 1108.08 L140.945 1089.63 M139.719 1085.56 L145.598 1085.56 L145.598 1108.08 L150.529 1108.08 L150.529 1111.97 L145.598 1111.97 L145.598 1120.12 L140.945 1120.12 L140.945 1111.97 L125.344 1111.97 L125.344 1107.46 L139.719 1085.56 Z" fill="#000000" fill-rule="nonzero" fill-opacity="1" /><path clip-path="url(#clip570)" d="M171.107 1089.63 L159.302 1108.08 L171.107 1108.08 L171.107 1089.63 M169.88 1085.56 L175.76 1085.56 L175.76 1108.08 L180.691 1108.08 L180.691 1111.97 L175.76 1111.97 L175.76 1120.12 L171.107 1120.12 L171.107 1111.97 L155.505 1111.97 L155.505 1107.46 L169.88 1085.56 Z" fill="#000000" fill-rule="nonzero" fill-opacity="1" /><path clip-path="url(#clip570)" d="M198.422 1088.64 Q194.811 1088.64 192.982 1092.2 Q191.177 1095.74 191.177 1102.87 Q191.177 1109.98 192.982 1113.54 Q194.811 1117.08 198.422 1117.08 Q202.056 1117.08 203.862 1113.54 Q205.69 1109.98 205.69 1102.87 Q205.69 1095.74 203.862 1092.2 Q202.056 1088.64 198.422 1088.64 M198.422 1084.93 Q204.232 1084.93 207.288 1089.54 Q210.366 1094.12 210.366 1102.87 Q210.366 1111.6 207.288 1116.21 Q204.232 1120.79 198.422 1120.79 Q192.612 1120.79 189.533 1116.21 Q186.478 1111.6 186.478 1102.87 Q186.478 1094.12 189.533 1089.54 Q192.612 1084.93 198.422 1084.93 Z" fill="#000000" fill-rule="nonzero" fill-opacity="1" /><path clip-path="url(#clip570)" d="M228.584 1088.64 Q224.973 1088.64 223.144 1092.2 Q221.338 1095.74 221.338 1102.87 Q221.338 1109.98 223.144 1113.54 Q224.973 1117.08 228.584 1117.08 Q232.218 1117.08 234.024 1113.54 Q235.852 1109.98 235.852 1102.87 Q235.852 1095.74 234.024 1092.2 Q232.218 1088.64 228.584 1088.64 M228.584 1084.93 Q234.394 1084.93 237.449 1089.54 Q240.528 1094.12 240.528 1102.87 Q240.528 1111.6 237.449 1116.21 Q234.394 1120.79 228.584 1120.79 Q222.774 1120.79 219.695 1116.21 Q216.639 1111.6 216.639 1102.87 Q216.639 1094.12 219.695 1089.54 Q222.774 1084.93 228.584 1084.93 Z" fill="#000000" fill-rule="nonzero" fill-opacity="1" /><path clip-path="url(#clip570)" d="M258.746 1088.64 Q255.135 1088.64 253.306 1092.2 Q251.5 1095.74 251.5 1102.87 Q251.5 1109.98 253.306 1113.54 Q255.135 1117.08 258.746 1117.08 Q262.38 1117.08 264.185 1113.54 Q266.014 1109.98 266.014 1102.87 Q266.014 1095.74 264.185 1092.2 Q262.38 1088.64 258.746 1088.64 M258.746 1084.93 Q264.556 1084.93 267.611 1089.54 Q270.69 1094.12 270.69 1102.87 Q270.69 1111.6 267.611 1116.21 Q264.556 1120.79 258.746 1120.79 Q252.935 1120.79 249.857 1116.21 Q246.801 1111.6 246.801 1102.87 Q246.801 1094.12 249.857 1089.54 Q252.935 1084.93 258.746 1084.93 Z" fill="#000000" fill-rule="nonzero" fill-opacity="1" /><path clip-path="url(#clip570)" d="M140.945 982.393 L129.14 1000.84 L140.945 1000.84 L140.945 982.393 M139.719 978.319 L145.598 978.319 L145.598 1000.84 L150.529 1000.84 L150.529 1004.73 L145.598 1004.73 L145.598 1012.88 L140.945 1012.88 L140.945 1004.73 L125.344 1004.73 L125.344 1000.22 L139.719 978.319 Z" fill="#000000" fill-rule="nonzero" fill-opacity="1" /><path clip-path="url(#clip570)" d="M168.839 993.735 Q165.691 993.735 163.839 995.888 Q162.01 998.041 162.01 1001.79 Q162.01 1005.52 163.839 1007.69 Q165.691 1009.85 168.839 1009.85 Q171.987 1009.85 173.816 1007.69 Q175.667 1005.52 175.667 1001.79 Q175.667 998.041 173.816 995.888 Q171.987 993.735 168.839 993.735 M178.121 979.083 L178.121 983.342 Q176.362 982.509 174.556 982.069 Q172.774 981.629 171.015 981.629 Q166.385 981.629 163.931 984.754 Q161.501 987.879 161.154 994.198 Q162.519 992.185 164.579 991.12 Q166.64 990.032 169.116 990.032 Q174.325 990.032 177.334 993.203 Q180.366 996.351 180.366 1001.79 Q180.366 1007.11 177.218 1010.33 Q174.07 1013.55 168.839 1013.55 Q162.843 1013.55 159.672 1008.97 Q156.501 1004.36 156.501 995.634 Q156.501 987.439 160.39 982.578 Q164.279 977.694 170.829 977.694 Q172.589 977.694 174.371 978.041 Q176.177 978.388 178.121 979.083 Z" fill="#000000" fill-rule="nonzero" fill-opacity="1" /><path clip-path="url(#clip570)" d="M198.422 981.398 Q194.811 981.398 192.982 984.962 Q191.177 988.504 191.177 995.634 Q191.177 1002.74 192.982 1006.3 Q194.811 1009.85 198.422 1009.85 Q202.056 1009.85 203.862 1006.3 Q205.69 1002.74 205.69 995.634 Q205.69 988.504 203.862 984.962 Q202.056 981.398 198.422 981.398 M198.422 977.694 Q204.232 977.694 207.288 982.3 Q210.366 986.884 210.366 995.634 Q210.366 1004.36 207.288 1008.97 Q204.232 1013.55 198.422 1013.55 Q192.612 1013.55 189.533 1008.97 Q186.478 1004.36 186.478 995.634 Q186.478 986.884 189.533 982.3 Q192.612 977.694 198.422 977.694 Z" fill="#000000" fill-rule="nonzero" fill-opacity="1" /><path clip-path="url(#clip570)" d="M228.584 981.398 Q224.973 981.398 223.144 984.962 Q221.338 988.504 221.338 995.634 Q221.338 1002.74 223.144 1006.3 Q224.973 1009.85 228.584 1009.85 Q232.218 1009.85 234.024 1006.3 Q235.852 1002.74 235.852 995.634 Q235.852 988.504 234.024 984.962 Q232.218 981.398 228.584 981.398 M228.584 977.694 Q234.394 977.694 237.449 982.3 Q240.528 986.884 240.528 995.634 Q240.528 1004.36 237.449 1008.97 Q234.394 1013.55 228.584 1013.55 Q222.774 1013.55 219.695 1008.97 Q216.639 1004.36 216.639 995.634 Q216.639 986.884 219.695 982.3 Q222.774 977.694 228.584 977.694 Z" fill="#000000" fill-rule="nonzero" fill-opacity="1" /><path clip-path="url(#clip570)" d="M258.746 981.398 Q255.135 981.398 253.306 984.962 Q251.5 988.504 251.5 995.634 Q251.5 1002.74 253.306 1006.3 Q255.135 1009.85 258.746 1009.85 Q262.38 1009.85 264.185 1006.3 Q266.014 1002.74 266.014 995.634 Q266.014 988.504 264.185 984.962 Q262.38 981.398 258.746 981.398 M258.746 977.694 Q264.556 977.694 267.611 982.3 Q270.69 986.884 270.69 995.634 Q270.69 1004.36 267.611 1008.97 Q264.556 1013.55 258.746 1013.55 Q252.935 1013.55 249.857 1008.97 Q246.801 1004.36 246.801 995.634 Q246.801 986.884 249.857 982.3 Q252.935 977.694 258.746 977.694 Z" fill="#000000" fill-rule="nonzero" fill-opacity="1" /><path clip-path="url(#clip570)" d="M1167.67 820.677 L1167.67 825.654 Q1165.42 824.41 1163.13 823.802 Q1160.87 823.165 1158.56 823.165 Q1153.38 823.165 1150.51 826.464 Q1147.65 829.734 1147.65 835.665 Q1147.65 841.597 1150.51 844.896 Q1153.38 848.165 1158.56 848.165 Q1160.87 848.165 1163.13 847.558 Q1165.42 846.921 1167.67 845.677 L1167.67 850.596 Q1165.44 851.637 1163.04 852.158 Q1160.67 852.679 1157.98 852.679 Q1150.66 852.679 1146.35 848.078 Q1142.04 843.478 1142.04 835.665 Q1142.04 827.737 1146.38 823.194 Q1150.75 818.652 1158.33 818.652 Q1160.79 818.652 1163.13 819.172 Q1165.47 819.664 1167.67 820.677 Z" fill="#000000" fill-rule="nonzero" fill-opacity="1" /><path clip-path="url(#clip570)" d="M1189.49 823.165 Q1185.21 823.165 1182.72 826.522 Q1180.23 829.849 1180.23 835.665 Q1180.23 841.481 1182.69 844.838 Q1185.18 848.165 1189.49 848.165 Q1193.74 848.165 1196.23 844.809 Q1198.72 841.452 1198.72 835.665 Q1198.72 829.907 1196.23 826.551 Q1193.74 823.165 1189.49 823.165 M1189.49 818.652 Q1196.43 818.652 1200.4 823.165 Q1204.36 827.679 1204.36 835.665 Q1204.36 843.622 1200.4 848.165 Q1196.43 852.679 1189.49 852.679 Q1182.52 852.679 1178.55 848.165 Q1174.62 843.622 1174.62 835.665 Q1174.62 827.679 1178.55 823.165 Q1182.52 818.652 1189.49 818.652 Z" fill="#000000" fill-rule="nonzero" fill-opacity="1" /><path clip-path="url(#clip570)" d="M1240.13 832.28 L1240.13 851.84 L1234.8 851.84 L1234.8 832.454 Q1234.8 827.853 1233.01 825.567 Q1231.21 823.281 1227.63 823.281 Q1223.31 823.281 1220.83 826.03 Q1218.34 828.779 1218.34 833.524 L1218.34 851.84 L1212.98 851.84 L1212.98 819.433 L1218.34 819.433 L1218.34 824.467 Q1220.25 821.545 1222.82 820.098 Q1225.43 818.652 1228.81 818.652 Q1234.4 818.652 1237.26 822.124 Q1240.13 825.567 1240.13 832.28 Z" fill="#000000" fill-rule="nonzero" fill-opacity="1" /><path clip-path="url(#clip570)" d="M1271.4 820.388 L1271.4 825.422 Q1269.15 824.265 1266.72 823.686 Q1264.29 823.108 1261.68 823.108 Q1257.72 823.108 1255.72 824.323 Q1253.75 825.538 1253.75 827.969 Q1253.75 829.82 1255.17 830.891 Q1256.59 831.933 1260.87 832.888 L1262.69 833.293 Q1268.37 834.508 1270.74 836.736 Q1273.14 838.935 1273.14 842.899 Q1273.14 847.413 1269.55 850.046 Q1265.99 852.679 1259.74 852.679 Q1257.14 852.679 1254.3 852.158 Q1251.5 851.666 1248.37 850.654 L1248.37 845.156 Q1251.32 846.69 1254.19 847.471 Q1257.05 848.223 1259.86 848.223 Q1263.62 848.223 1265.65 846.95 Q1267.67 845.648 1267.67 843.304 Q1267.67 841.134 1266.2 839.977 Q1264.75 838.819 1259.8 837.749 L1257.95 837.315 Q1253 836.273 1250.8 834.132 Q1248.6 831.962 1248.6 828.2 Q1248.6 823.628 1251.84 821.14 Q1255.09 818.652 1261.05 818.652 Q1264 818.652 1266.6 819.086 Q1269.21 819.52 1271.4 820.388 Z" fill="#000000" fill-rule="nonzero" fill-opacity="1" /><path clip-path="url(#clip570)" d="M1281.07 839.051 L1281.07 819.433 L1286.39 819.433 L1286.39 838.848 Q1286.39 843.449 1288.19 845.764 Q1289.98 848.05 1293.57 848.05 Q1297.88 848.05 1300.37 845.301 Q1302.89 842.552 1302.89 837.807 L1302.89 819.433 L1308.21 819.433 L1308.21 851.84 L1302.89 851.84 L1302.89 846.863 Q1300.95 849.815 1298.37 851.261 Q1295.83 852.679 1292.44 852.679 Q1286.86 852.679 1283.96 849.207 Q1281.07 845.735 1281.07 839.051 M1294.47 818.652 L1294.47 818.652 Z" fill="#000000" fill-rule="nonzero" fill-opacity="1" /><path clip-path="url(#clip570)" d="M1344.41 825.654 Q1346.4 822.066 1349.18 820.359 Q1351.96 818.652 1355.72 818.652 Q1360.78 818.652 1363.53 822.211 Q1366.28 825.741 1366.28 832.28 L1366.28 851.84 L1360.93 851.84 L1360.93 832.454 Q1360.93 827.795 1359.28 825.538 Q1357.63 823.281 1354.25 823.281 Q1350.11 823.281 1347.71 826.03 Q1345.3 828.779 1345.3 833.524 L1345.3 851.84 L1339.95 851.84 L1339.95 832.454 Q1339.95 827.766 1338.3 825.538 Q1336.65 823.281 1333.21 823.281 Q1329.13 823.281 1326.73 826.059 Q1324.33 828.808 1324.33 833.524 L1324.33 851.84 L1318.97 851.84 L1318.97 819.433 L1324.33 819.433 L1324.33 824.467 Q1326.15 821.487 1328.7 820.069 Q1331.24 818.652 1334.74 818.652 Q1338.27 818.652 1340.73 820.445 Q1343.22 822.239 1344.41 825.654 Z" fill="#000000" fill-rule="nonzero" fill-opacity="1" /><path clip-path="url(#clip570)" d="M1382.05 846.979 L1382.05 864.166 L1376.7 864.166 L1376.7 819.433 L1382.05 819.433 L1382.05 824.352 Q1383.73 821.458 1386.28 820.069 Q1388.85 818.652 1392.41 818.652 Q1398.31 818.652 1401.99 823.339 Q1405.69 828.026 1405.69 835.665 Q1405.69 843.304 1401.99 847.992 Q1398.31 852.679 1392.41 852.679 Q1388.85 852.679 1386.28 851.29 Q1383.73 849.872 1382.05 846.979 M1400.17 835.665 Q1400.17 829.792 1397.73 826.464 Q1395.33 823.108 1391.11 823.108 Q1386.88 823.108 1384.45 826.464 Q1382.05 829.792 1382.05 835.665 Q1382.05 841.539 1384.45 844.896 Q1386.88 848.223 1391.11 848.223 Q1395.33 848.223 1397.73 844.896 Q1400.17 841.539 1400.17 835.665 Z" fill="#000000" fill-rule="nonzero" fill-opacity="1" /><path clip-path="url(#clip570)" d="M1419.78 810.231 L1419.78 819.433 L1430.75 819.433 L1430.75 823.57 L1419.78 823.57 L1419.78 841.163 Q1419.78 845.127 1420.85 846.256 Q1421.95 847.384 1425.28 847.384 L1430.75 847.384 L1430.75 851.84 L1425.28 851.84 Q1419.12 851.84 1416.77 849.554 Q1414.43 847.239 1414.43 841.163 L1414.43 823.57 L1410.52 823.57 L1410.52 819.433 L1414.43 819.433 L1414.43 810.231 L1419.78 810.231 Z" fill="#000000" fill-rule="nonzero" fill-opacity="1" /><path clip-path="url(#clip570)" d="M1437.75 819.433 L1443.08 819.433 L1443.08 851.84 L1437.75 851.84 L1437.75 819.433 M1437.75 806.817 L1443.08 806.817 L1443.08 813.559 L1437.75 813.559 L1437.75 806.817 Z" fill="#000000" fill-rule="nonzero" fill-opacity="1" /><path clip-path="url(#clip570)" d="M1466.77 823.165 Q1462.49 823.165 1460 826.522 Q1457.51 829.849 1457.51 835.665 Q1457.51 841.481 1459.97 844.838 Q1462.46 848.165 1466.77 848.165 Q1471.03 848.165 1473.52 844.809 Q1476 841.452 1476 835.665 Q1476 829.907 1473.52 826.551 Q1471.03 823.165 1466.77 823.165 M1466.77 818.652 Q1473.72 818.652 1477.68 823.165 Q1481.65 827.679 1481.65 835.665 Q1481.65 843.622 1477.68 848.165 Q1473.72 852.679 1466.77 852.679 Q1459.8 852.679 1455.84 848.165 Q1451.9 843.622 1451.9 835.665 Q1451.9 827.679 1455.84 823.165 Q1459.8 818.652 1466.77 818.652 Z" fill="#000000" fill-rule="nonzero" fill-opacity="1" /><path clip-path="url(#clip570)" d="M1517.41 832.28 L1517.41 851.84 L1512.09 851.84 L1512.09 832.454 Q1512.09 827.853 1510.29 825.567 Q1508.5 823.281 1504.91 823.281 Q1500.6 823.281 1498.11 826.03 Q1495.62 828.779 1495.62 833.524 L1495.62 851.84 L1490.27 851.84 L1490.27 819.433 L1495.62 819.433 L1495.62 824.467 Q1497.53 821.545 1500.11 820.098 Q1502.71 818.652 1506.1 818.652 Q1511.68 818.652 1514.55 822.124 Q1517.41 825.567 1517.41 832.28 Z" fill="#000000" fill-rule="nonzero" fill-opacity="1" /><polyline clip-path="url(#clip573)" style="stroke:#009af9; stroke-linecap:round; stroke-linejoin:round; stroke-width:4; stroke-opacity:1; fill:none" points="364.598,1470.03 388.726,1297.34 412.854,1307.25 436.982,1290.56 461.11,1265.59 485.238,1260.59 509.366,1269.61 533.494,1255.9 557.623,1254.06 581.751,1256.09 605.879,1244.4 630.007,1195.98 654.135,1178.04 678.263,1174.25 702.391,1158.87 726.52,1164.16 750.648,1152.43 774.776,1155.3 798.904,1156.29 823.032,1160.56 847.16,1160.2 871.288,1172.67 895.417,1181.48 919.545,1177.22 943.673,1165.63 967.801,1134.86 991.929,1105.67 1016.06,1106.95 1040.19,1080.94 1064.31,1079.56 1088.44,1074.1 1112.57,1051.92 1136.7,1048.94 1160.83,1020.13 1184.95,1013.04 1209.08,972.044 1233.21,960.903 1257.34,979.866 1281.47,1010.3 1305.59,1000.02 1329.72,1016.33 1353.85,1014.98 1377.98,1017.52 1402.11,1019.66 1426.24,1039.52 1450.36,1045.34 1474.49,1052.83 1498.62,1052.75 1522.75,1055.28 1546.88,1051.8 1571,1046.3 1595.13,1055.83 1619.26,1067.92 1643.39,1071.66 1667.52,1072.93 1691.64,1069.67 1715.77,1059.97 1739.9,1053.85 1764.03,1049.06 1788.16,1039.59 1812.29,1034.52 1836.41,1026.21 1860.54,1004.8 1884.67,997.278 1908.8,978.588 1932.93,977.878 1957.05,970.28 1981.18,970.998 2005.31,972.114 2029.44,964.499 2053.57,948.65 2077.7,942.769 2101.82,936.617 2125.95,924.558 2150.08,926.586 2174.21,926.7 2198.34,922.614 2222.46,930.401 2246.59,942.718 2270.72,927.603 2294.85,931.751 "/>
<path clip-path="url(#clip570)" d="M374.892 1081.05 L987.136 1081.05 L987.136 925.534 L374.892 925.534  Z" fill="#ffffff" fill-rule="evenodd" fill-opacity="1"/>
<polyline clip-path="url(#clip570)" style="stroke:#000000; stroke-linecap:round; stroke-linejoin:round; stroke-width:4; stroke-opacity:1; fill:none" points="374.892,1081.05 987.136,1081.05 987.136,925.534 374.892,925.534 374.892,1081.05 "/>
<polyline clip-path="url(#clip570)" style="stroke:#009af9; stroke-linecap:round; stroke-linejoin:round; stroke-width:4; stroke-opacity:1; fill:none" points="397.626,977.374 534.031,977.374 "/>
<path clip-path="url(#clip570)" d="M570.607 997.061 Q568.802 1001.69 567.089 1003.1 Q565.376 1004.52 562.505 1004.52 L559.103 1004.52 L559.103 1000.95 L561.603 1000.95 Q563.362 1000.95 564.334 1000.12 Q565.306 999.284 566.487 996.182 L567.251 994.237 L556.765 968.728 L561.279 968.728 L569.38 989.006 L577.482 968.728 L581.996 968.728 L570.607 997.061 Z" fill="#000000" fill-rule="nonzero" fill-opacity="1" /><path clip-path="url(#clip570)" d="M589.288 990.719 L596.927 990.719 L596.927 964.353 L588.616 966.02 L588.616 961.761 L596.88 960.094 L601.556 960.094 L601.556 990.719 L609.195 990.719 L609.195 994.654 L589.288 994.654 L589.288 990.719 Z" fill="#000000" fill-rule="nonzero" fill-opacity="1" /><polyline clip-path="url(#clip570)" style="stroke:#e26f46; stroke-linecap:round; stroke-linejoin:round; stroke-width:4; stroke-opacity:1; fill:none" points="397.626,1029.21 534.031,1029.21 "/>
<path clip-path="url(#clip570)" d="M575.538 1033.55 Q575.538 1028.86 573.593 1026.19 Q571.672 1023.51 568.292 1023.51 Q564.913 1023.51 562.968 1026.19 Q561.047 1028.86 561.047 1033.55 Q561.047 1038.25 562.968 1040.94 Q564.913 1043.6 568.292 1043.6 Q571.672 1043.6 573.593 1040.94 Q575.538 1038.25 575.538 1033.55 M561.047 1024.5 Q562.39 1022.19 564.427 1021.08 Q566.487 1019.94 569.334 1019.94 Q574.056 1019.94 576.996 1023.69 Q579.959 1027.44 579.959 1033.55 Q579.959 1039.67 576.996 1043.42 Q574.056 1047.17 569.334 1047.17 Q566.487 1047.17 564.427 1046.05 Q562.39 1044.92 561.047 1042.61 L561.047 1046.49 L556.765 1046.49 L556.765 1010.48 L561.047 1010.48 L561.047 1024.5 Z" fill="#000000" fill-rule="nonzero" fill-opacity="1" /><path clip-path="url(#clip570)" d="M598.802 1033.46 Q593.64 1033.46 591.649 1034.64 Q589.658 1035.82 589.658 1038.67 Q589.658 1040.94 591.14 1042.28 Q592.644 1043.6 595.214 1043.6 Q598.755 1043.6 600.885 1041.1 Q603.038 1038.58 603.038 1034.41 L603.038 1033.46 L598.802 1033.46 M607.297 1031.7 L607.297 1046.49 L603.038 1046.49 L603.038 1042.56 Q601.579 1044.92 599.403 1046.05 Q597.227 1047.17 594.079 1047.17 Q590.098 1047.17 587.737 1044.94 Q585.399 1042.7 585.399 1038.95 Q585.399 1034.57 588.315 1032.35 Q591.255 1030.13 597.065 1030.13 L603.038 1030.13 L603.038 1029.71 Q603.038 1026.77 601.093 1025.17 Q599.172 1023.55 595.677 1023.55 Q593.454 1023.55 591.348 1024.09 Q589.241 1024.62 587.297 1025.68 L587.297 1021.75 Q589.635 1020.85 591.834 1020.41 Q594.033 1019.94 596.116 1019.94 Q601.741 1019.94 604.519 1022.86 Q607.297 1025.78 607.297 1031.7 Z" fill="#000000" fill-rule="nonzero" fill-opacity="1" /><path clip-path="url(#clip570)" d="M634.727 1021.56 L634.727 1025.55 Q632.922 1024.55 631.093 1024.06 Q629.288 1023.55 627.436 1023.55 Q623.292 1023.55 621.001 1026.19 Q618.709 1028.81 618.709 1033.55 Q618.709 1038.3 621.001 1040.94 Q623.292 1043.55 627.436 1043.55 Q629.288 1043.55 631.093 1043.07 Q632.922 1042.56 634.727 1041.56 L634.727 1045.5 Q632.945 1046.33 631.024 1046.75 Q629.125 1047.17 626.973 1047.17 Q621.116 1047.17 617.667 1043.48 Q614.218 1039.8 614.218 1033.55 Q614.218 1027.21 617.69 1023.58 Q621.186 1019.94 627.25 1019.94 Q629.218 1019.94 631.093 1020.36 Q632.968 1020.75 634.727 1021.56 Z" fill="#000000" fill-rule="nonzero" fill-opacity="1" /><path clip-path="url(#clip570)" d="M641.973 1010.48 L646.255 1010.48 L646.255 1031.75 L658.963 1020.57 L664.403 1020.57 L650.653 1032.7 L664.982 1046.49 L659.426 1046.49 L646.255 1033.83 L646.255 1046.49 L641.973 1046.49 L641.973 1010.48 Z" fill="#000000" fill-rule="nonzero" fill-opacity="1" /><path clip-path="url(#clip570)" d="M667.111 1020.57 L671.371 1020.57 L676.695 1040.8 L681.996 1020.57 L687.019 1020.57 L692.343 1040.8 L697.644 1020.57 L701.903 1020.57 L695.12 1046.49 L690.097 1046.49 L684.519 1025.24 L678.917 1046.49 L673.894 1046.49 L667.111 1020.57 Z" fill="#000000" fill-rule="nonzero" fill-opacity="1" /><path clip-path="url(#clip570)" d="M720.143 1033.46 Q714.981 1033.46 712.991 1034.64 Q711 1035.82 711 1038.67 Q711 1040.94 712.482 1042.28 Q713.986 1043.6 716.556 1043.6 Q720.097 1043.6 722.227 1041.1 Q724.38 1038.58 724.38 1034.41 L724.38 1033.46 L720.143 1033.46 M728.639 1031.7 L728.639 1046.49 L724.38 1046.49 L724.38 1042.56 Q722.921 1044.92 720.745 1046.05 Q718.569 1047.17 715.421 1047.17 Q711.44 1047.17 709.079 1044.94 Q706.741 1042.7 706.741 1038.95 Q706.741 1034.57 709.657 1032.35 Q712.597 1030.13 718.407 1030.13 L724.38 1030.13 L724.38 1029.71 Q724.38 1026.77 722.435 1025.17 Q720.514 1023.55 717.019 1023.55 Q714.796 1023.55 712.69 1024.09 Q710.583 1024.62 708.639 1025.68 L708.639 1021.75 Q710.977 1020.85 713.176 1020.41 Q715.375 1019.94 717.458 1019.94 Q723.083 1019.94 725.861 1022.86 Q728.639 1025.78 728.639 1031.7 Z" fill="#000000" fill-rule="nonzero" fill-opacity="1" /><path clip-path="url(#clip570)" d="M752.435 1024.55 Q751.717 1024.13 750.861 1023.95 Q750.028 1023.74 749.009 1023.74 Q745.398 1023.74 743.454 1026.1 Q741.532 1028.44 741.532 1032.84 L741.532 1046.49 L737.25 1046.49 L737.25 1020.57 L741.532 1020.57 L741.532 1024.6 Q742.875 1022.23 745.028 1021.1 Q747.18 1019.94 750.259 1019.94 Q750.699 1019.94 751.231 1020.01 Q751.764 1020.06 752.412 1020.17 L752.435 1024.55 Z" fill="#000000" fill-rule="nonzero" fill-opacity="1" /><path clip-path="url(#clip570)" d="M773.129 1024.5 L773.129 1010.48 L777.389 1010.48 L777.389 1046.49 L773.129 1046.49 L773.129 1042.61 Q771.787 1044.92 769.727 1046.05 Q767.69 1047.17 764.819 1047.17 Q760.12 1047.17 757.157 1043.42 Q754.217 1039.67 754.217 1033.55 Q754.217 1027.44 757.157 1023.69 Q760.12 1019.94 764.819 1019.94 Q767.69 1019.94 769.727 1021.08 Q771.787 1022.19 773.129 1024.5 M758.616 1033.55 Q758.616 1038.25 760.537 1040.94 Q762.481 1043.6 765.861 1043.6 Q769.24 1043.6 771.185 1040.94 Q773.129 1038.25 773.129 1033.55 Q773.129 1028.86 771.185 1026.19 Q769.24 1023.51 765.861 1023.51 Q762.481 1023.51 760.537 1026.19 Q758.616 1028.86 758.616 1033.55 Z" fill="#000000" fill-rule="nonzero" fill-opacity="1" /><path clip-path="url(#clip570)" d="M801.231 1010.48 L805.49 1010.48 L805.49 1046.49 L801.231 1046.49 L801.231 1010.48 Z" fill="#000000" fill-rule="nonzero" fill-opacity="1" /><path clip-path="url(#clip570)" d="M824.448 1023.55 Q821.023 1023.55 819.032 1026.24 Q817.041 1028.9 817.041 1033.55 Q817.041 1038.21 819.009 1040.89 Q820.999 1043.55 824.448 1043.55 Q827.851 1043.55 829.842 1040.87 Q831.833 1038.18 831.833 1033.55 Q831.833 1028.95 829.842 1026.26 Q827.851 1023.55 824.448 1023.55 M824.448 1019.94 Q830.004 1019.94 833.175 1023.55 Q836.347 1027.17 836.347 1033.55 Q836.347 1039.92 833.175 1043.55 Q830.004 1047.17 824.448 1047.17 Q818.87 1047.17 815.699 1043.55 Q812.55 1039.92 812.55 1033.55 Q812.55 1027.17 815.699 1023.55 Q818.87 1019.94 824.448 1019.94 Z" fill="#000000" fill-rule="nonzero" fill-opacity="1" /><path clip-path="url(#clip570)" d="M853.453 1023.55 Q850.027 1023.55 848.036 1026.24 Q846.046 1028.9 846.046 1033.55 Q846.046 1038.21 848.013 1040.89 Q850.004 1043.55 853.453 1043.55 Q856.856 1043.55 858.846 1040.87 Q860.837 1038.18 860.837 1033.55 Q860.837 1028.95 858.846 1026.26 Q856.856 1023.55 853.453 1023.55 M853.453 1019.94 Q859.008 1019.94 862.18 1023.55 Q865.351 1027.17 865.351 1033.55 Q865.351 1039.92 862.18 1043.55 Q859.008 1047.17 853.453 1047.17 Q847.874 1047.17 844.703 1043.55 Q841.555 1039.92 841.555 1033.55 Q841.555 1027.17 844.703 1023.55 Q847.874 1019.94 853.453 1019.94 Z" fill="#000000" fill-rule="nonzero" fill-opacity="1" /><path clip-path="url(#clip570)" d="M872.249 1010.48 L876.532 1010.48 L876.532 1031.75 L889.24 1020.57 L894.68 1020.57 L880.93 1032.7 L895.258 1046.49 L889.703 1046.49 L876.532 1033.83 L876.532 1046.49 L872.249 1046.49 L872.249 1010.48 Z" fill="#000000" fill-rule="nonzero" fill-opacity="1" /><path clip-path="url(#clip570)" d="M899.865 1020.57 L904.124 1020.57 L904.124 1046.49 L899.865 1046.49 L899.865 1020.57 M899.865 1010.48 L904.124 1010.48 L904.124 1015.87 L899.865 1015.87 L899.865 1010.48 Z" fill="#000000" fill-rule="nonzero" fill-opacity="1" /><path clip-path="url(#clip570)" d="M934.587 1030.85 L934.587 1046.49 L930.328 1046.49 L930.328 1030.98 Q930.328 1027.3 928.892 1025.48 Q927.457 1023.65 924.587 1023.65 Q921.138 1023.65 919.147 1025.85 Q917.156 1028.05 917.156 1031.84 L917.156 1046.49 L912.874 1046.49 L912.874 1020.57 L917.156 1020.57 L917.156 1024.6 Q918.684 1022.26 920.744 1021.1 Q922.828 1019.94 925.536 1019.94 Q930.003 1019.94 932.295 1022.72 Q934.587 1025.48 934.587 1030.85 Z" fill="#000000" fill-rule="nonzero" fill-opacity="1" /><path clip-path="url(#clip570)" d="M960.142 1033.23 Q960.142 1028.6 958.221 1026.05 Q956.323 1023.51 952.874 1023.51 Q949.448 1023.51 947.527 1026.05 Q945.628 1028.6 945.628 1033.23 Q945.628 1037.84 947.527 1040.38 Q949.448 1042.93 952.874 1042.93 Q956.323 1042.93 958.221 1040.38 Q960.142 1037.84 960.142 1033.23 M964.401 1043.28 Q964.401 1049.9 961.462 1053.11 Q958.522 1056.36 952.457 1056.36 Q950.212 1056.36 948.221 1056.01 Q946.23 1055.68 944.355 1054.99 L944.355 1050.85 Q946.23 1051.86 948.059 1052.35 Q949.888 1052.84 951.786 1052.84 Q955.976 1052.84 958.059 1050.64 Q960.142 1048.46 960.142 1044.04 L960.142 1041.93 Q958.823 1044.23 956.763 1045.36 Q954.702 1046.49 951.832 1046.49 Q947.064 1046.49 944.147 1042.86 Q941.23 1039.23 941.23 1033.23 Q941.23 1027.21 944.147 1023.58 Q947.064 1019.94 951.832 1019.94 Q954.702 1019.94 956.763 1021.08 Q958.823 1022.21 960.142 1024.5 L960.142 1020.57 L964.401 1020.57 L964.401 1043.28 Z" fill="#000000" fill-rule="nonzero" fill-opacity="1" /></svg>
