<?xml version="1.0" encoding="utf-8"?>
<svg xmlns="http://www.w3.org/2000/svg" xmlns:xlink="http://www.w3.org/1999/xlink" width="600" height="400" viewBox="0 0 2400 1600">
<defs>
  <clipPath id="clip780">
    <rect x="0" y="0" width="2400" height="1600"/>
  </clipPath>
</defs>
<path clip-path="url(#clip780)" d="M0 1600 L2400 1600 L2400 0 L0 0  Z" fill="#ffffff" fill-rule="evenodd" fill-opacity="1"/>
<defs>
  <clipPath id="clip781">
    <rect x="480" y="0" width="1681" height="1600"/>
  </clipPath>
</defs>
<path clip-path="url(#clip780)" d="M294.704 1423.18 L2352.76 1423.18 L2352.76 47.2441 L294.704 47.2441  Z" fill="#ffffff" fill-rule="evenodd" fill-opacity="1"/>
<defs>
  <clipPath id="clip782">
    <rect x="294" y="47" width="2059" height="1377"/>
  </clipPath>
</defs>
<polyline clip-path="url(#clip782)" style="stroke:#000000; stroke-linecap:round; stroke-linejoin:round; stroke-width:2; stroke-opacity:0.1; fill:none" points="741.262,1423.18 741.262,47.2441 "/>
<polyline clip-path="url(#clip782)" style="stroke:#000000; stroke-linecap:round; stroke-linejoin:round; stroke-width:2; stroke-opacity:0.1; fill:none" points="1226.65,1423.18 1226.65,47.2441 "/>
<polyline clip-path="url(#clip782)" style="stroke:#000000; stroke-linecap:round; stroke-linejoin:round; stroke-width:2; stroke-opacity:0.1; fill:none" points="1712.04,1423.18 1712.04,47.2441 "/>
<polyline clip-path="url(#clip782)" style="stroke:#000000; stroke-linecap:round; stroke-linejoin:round; stroke-width:2; stroke-opacity:0.1; fill:none" points="2197.43,1423.18 2197.43,47.2441 "/>
<polyline clip-path="url(#clip782)" style="stroke:#000000; stroke-linecap:round; stroke-linejoin:round; stroke-width:2; stroke-opacity:0.1; fill:none" points="294.704,1216.46 2352.76,1216.46 "/>
<polyline clip-path="url(#clip782)" style="stroke:#000000; stroke-linecap:round; stroke-linejoin:round; stroke-width:2; stroke-opacity:0.1; fill:none" points="294.704,1007.32 2352.76,1007.32 "/>
<polyline clip-path="url(#clip782)" style="stroke:#000000; stroke-linecap:round; stroke-linejoin:round; stroke-width:2; stroke-opacity:0.1; fill:none" points="294.704,798.185 2352.76,798.185 "/>
<polyline clip-path="url(#clip782)" style="stroke:#000000; stroke-linecap:round; stroke-linejoin:round; stroke-width:2; stroke-opacity:0.1; fill:none" points="294.704,589.047 2352.76,589.047 "/>
<polyline clip-path="url(#clip782)" style="stroke:#000000; stroke-linecap:round; stroke-linejoin:round; stroke-width:2; stroke-opacity:0.1; fill:none" points="294.704,379.908 2352.76,379.908 "/>
<polyline clip-path="url(#clip782)" style="stroke:#000000; stroke-linecap:round; stroke-linejoin:round; stroke-width:2; stroke-opacity:0.1; fill:none" points="294.704,170.77 2352.76,170.77 "/>
<polyline clip-path="url(#clip780)" style="stroke:#000000; stroke-linecap:round; stroke-linejoin:round; stroke-width:4; stroke-opacity:1; fill:none" points="294.704,1423.18 2352.76,1423.18 "/>
<polyline clip-path="url(#clip780)" style="stroke:#000000; stroke-linecap:round; stroke-linejoin:round; stroke-width:4; stroke-opacity:1; fill:none" points="741.262,1423.18 741.262,1404.28 "/>
<polyline clip-path="url(#clip780)" style="stroke:#000000; stroke-linecap:round; stroke-linejoin:round; stroke-width:4; stroke-opacity:1; fill:none" points="1226.65,1423.18 1226.65,1404.28 "/>
<polyline clip-path="url(#clip780)" style="stroke:#000000; stroke-linecap:round; stroke-linejoin:round; stroke-width:4; stroke-opacity:1; fill:none" points="1712.04,1423.18 1712.04,1404.28 "/>
<polyline clip-path="url(#clip780)" style="stroke:#000000; stroke-linecap:round; stroke-linejoin:round; stroke-width:4; stroke-opacity:1; fill:none" points="2197.43,1423.18 2197.43,1404.28 "/>
<path clip-path="url(#clip780)" d="M731.54 1451.02 L749.897 1451.02 L749.897 1454.96 L735.823 1454.96 L735.823 1463.43 Q736.841 1463.08 737.86 1462.92 Q738.878 1462.73 739.897 1462.73 Q745.684 1462.73 749.063 1465.9 Q752.443 1469.08 752.443 1474.49 Q752.443 1480.07 748.971 1483.17 Q745.498 1486.25 739.179 1486.25 Q737.003 1486.25 734.735 1485.88 Q732.489 1485.51 730.082 1484.77 L730.082 1480.07 Q732.165 1481.2 734.387 1481.76 Q736.61 1482.32 739.086 1482.32 Q743.091 1482.32 745.429 1480.21 Q747.767 1478.1 747.767 1474.49 Q747.767 1470.88 745.429 1468.77 Q743.091 1466.67 739.086 1466.67 Q737.211 1466.67 735.336 1467.08 Q733.485 1467.5 731.54 1468.38 L731.54 1451.02 Z" fill="#000000" fill-rule="nonzero" fill-opacity="1" /><path clip-path="url(#clip780)" d="M1201.34 1481.64 L1208.98 1481.64 L1208.98 1455.28 L1200.67 1456.95 L1200.67 1452.69 L1208.93 1451.02 L1213.61 1451.02 L1213.61 1481.64 L1221.25 1481.64 L1221.25 1485.58 L1201.34 1485.58 L1201.34 1481.64 Z" fill="#000000" fill-rule="nonzero" fill-opacity="1" /><path clip-path="url(#clip780)" d="M1240.69 1454.1 Q1237.08 1454.1 1235.25 1457.66 Q1233.45 1461.2 1233.45 1468.33 Q1233.45 1475.44 1235.25 1479.01 Q1237.08 1482.55 1240.69 1482.55 Q1244.33 1482.55 1246.13 1479.01 Q1247.96 1475.44 1247.96 1468.33 Q1247.96 1461.2 1246.13 1457.66 Q1244.33 1454.1 1240.69 1454.1 M1240.69 1450.39 Q1246.5 1450.39 1249.56 1455 Q1252.64 1459.58 1252.64 1468.33 Q1252.64 1477.06 1249.56 1481.67 Q1246.5 1486.25 1240.69 1486.25 Q1234.88 1486.25 1231.8 1481.67 Q1228.75 1477.06 1228.75 1468.33 Q1228.75 1459.58 1231.8 1455 Q1234.88 1450.39 1240.69 1450.39 Z" fill="#000000" fill-rule="nonzero" fill-opacity="1" /><path clip-path="url(#clip780)" d="M1687.23 1481.64 L1694.87 1481.64 L1694.87 1455.28 L1686.56 1456.95 L1686.56 1452.69 L1694.82 1451.02 L1699.5 1451.02 L1699.5 1481.64 L1707.13 1481.64 L1707.13 1485.58 L1687.23 1485.58 L1687.23 1481.64 Z" fill="#000000" fill-rule="nonzero" fill-opacity="1" /><path clip-path="url(#clip780)" d="M1716.62 1451.02 L1734.98 1451.02 L1734.98 1454.96 L1720.91 1454.96 L1720.91 1463.43 Q1721.93 1463.08 1722.94 1462.92 Q1723.96 1462.73 1724.98 1462.73 Q1730.77 1462.73 1734.15 1465.9 Q1737.53 1469.08 1737.53 1474.49 Q1737.53 1480.07 1734.06 1483.17 Q1730.58 1486.25 1724.26 1486.25 Q1722.09 1486.25 1719.82 1485.88 Q1717.57 1485.51 1715.17 1484.77 L1715.17 1480.07 Q1717.25 1481.2 1719.47 1481.76 Q1721.69 1482.32 1724.17 1482.32 Q1728.18 1482.32 1730.51 1480.21 Q1732.85 1478.1 1732.85 1474.49 Q1732.85 1470.88 1730.51 1468.77 Q1728.18 1466.67 1724.17 1466.67 Q1722.3 1466.67 1720.42 1467.08 Q1718.57 1467.5 1716.62 1468.38 L1716.62 1451.02 Z" fill="#000000" fill-rule="nonzero" fill-opacity="1" /><path clip-path="url(#clip780)" d="M2176.2 1481.64 L2192.52 1481.64 L2192.52 1485.58 L2170.58 1485.58 L2170.58 1481.64 Q2173.24 1478.89 2177.82 1474.26 Q2182.43 1469.61 2183.61 1468.27 Q2185.86 1465.74 2186.74 1464.01 Q2187.64 1462.25 2187.64 1460.56 Q2187.64 1457.8 2185.7 1456.07 Q2183.77 1454.33 2180.67 1454.33 Q2178.47 1454.33 2176.02 1455.09 Q2173.59 1455.86 2170.81 1457.41 L2170.81 1452.69 Q2173.64 1451.55 2176.09 1450.97 Q2178.54 1450.39 2180.58 1450.39 Q2185.95 1450.39 2189.14 1453.08 Q2192.34 1455.77 2192.34 1460.26 Q2192.34 1462.39 2191.53 1464.31 Q2190.74 1466.2 2188.63 1468.8 Q2188.06 1469.47 2184.95 1472.69 Q2181.85 1475.88 2176.2 1481.64 Z" fill="#000000" fill-rule="nonzero" fill-opacity="1" /><path clip-path="url(#clip780)" d="M2212.34 1454.1 Q2208.73 1454.1 2206.9 1457.66 Q2205.09 1461.2 2205.09 1468.33 Q2205.09 1475.44 2206.9 1479.01 Q2208.73 1482.55 2212.34 1482.55 Q2215.97 1482.55 2217.78 1479.01 Q2219.61 1475.44 2219.61 1468.33 Q2219.61 1461.2 2217.78 1457.66 Q2215.97 1454.1 2212.34 1454.1 M2212.34 1450.39 Q2218.15 1450.39 2221.2 1455 Q2224.28 1459.58 2224.28 1468.33 Q2224.28 1477.06 2221.2 1481.67 Q2218.15 1486.25 2212.34 1486.25 Q2206.53 1486.25 2203.45 1481.67 Q2200.39 1477.06 2200.39 1468.33 Q2200.39 1459.58 2203.45 1455 Q2206.53 1450.39 2212.34 1450.39 Z" fill="#000000" fill-rule="nonzero" fill-opacity="1" /><path clip-path="url(#clip780)" d="M1195.24 1550.25 Q1195.24 1556.71 1197.88 1560.4 Q1200.55 1564.07 1205.2 1564.07 Q1209.85 1564.07 1212.52 1560.4 Q1215.19 1556.71 1215.19 1550.25 Q1215.19 1543.79 1212.52 1540.13 Q1209.85 1536.44 1205.2 1536.44 Q1200.55 1536.44 1197.88 1540.13 Q1195.24 1543.79 1195.24 1550.25 M1215.19 1562.7 Q1213.35 1565.88 1210.52 1567.44 Q1207.71 1568.97 1203.77 1568.97 Q1197.31 1568.97 1193.23 1563.81 Q1189.19 1558.65 1189.19 1550.25 Q1189.19 1541.85 1193.23 1536.69 Q1197.31 1531.54 1203.77 1531.54 Q1207.71 1531.54 1210.52 1533.1 Q1213.35 1534.62 1215.19 1537.81 L1215.19 1532.4 L1221.05 1532.4 L1221.05 1581.6 L1215.19 1581.6 L1215.19 1562.7 Z" fill="#000000" fill-rule="nonzero" fill-opacity="1" /><path clip-path="url(#clip780)" d="M1232.51 1553.98 L1232.51 1532.4 L1238.37 1532.4 L1238.37 1553.75 Q1238.37 1558.81 1240.34 1561.36 Q1242.31 1563.87 1246.26 1563.87 Q1251 1563.87 1253.74 1560.85 Q1256.51 1557.83 1256.51 1552.61 L1256.51 1532.4 L1262.36 1532.4 L1262.36 1568.04 L1256.51 1568.04 L1256.51 1562.57 Q1254.38 1565.82 1251.54 1567.41 Q1248.74 1568.97 1245.02 1568.97 Q1238.87 1568.97 1235.69 1565.15 Q1232.51 1561.33 1232.51 1553.98 M1247.25 1531.54 L1247.25 1531.54 Z" fill="#000000" fill-rule="nonzero" fill-opacity="1" /><path clip-path="url(#clip780)" d="M1290.63 1550.12 Q1283.53 1550.12 1280.79 1551.75 Q1278.06 1553.37 1278.06 1557.29 Q1278.06 1560.4 1280.09 1562.25 Q1282.16 1564.07 1285.69 1564.07 Q1290.56 1564.07 1293.49 1560.63 Q1296.45 1557.16 1296.45 1551.43 L1296.45 1550.12 L1290.63 1550.12 M1302.31 1547.71 L1302.31 1568.04 L1296.45 1568.04 L1296.45 1562.63 Q1294.45 1565.88 1291.46 1567.44 Q1288.46 1568.97 1284.14 1568.97 Q1278.66 1568.97 1275.41 1565.91 Q1272.2 1562.82 1272.2 1557.67 Q1272.2 1551.65 1276.21 1548.6 Q1280.25 1545.54 1288.24 1545.54 L1296.45 1545.54 L1296.45 1544.97 Q1296.45 1540.93 1293.78 1538.73 Q1291.14 1536.5 1286.33 1536.5 Q1283.28 1536.5 1280.38 1537.23 Q1277.48 1537.97 1274.81 1539.43 L1274.81 1534.02 Q1278.02 1532.78 1281.05 1532.17 Q1284.07 1531.54 1286.94 1531.54 Q1294.67 1531.54 1298.49 1535.55 Q1302.31 1539.56 1302.31 1547.71 Z" fill="#000000" fill-rule="nonzero" fill-opacity="1" /><path clip-path="url(#clip780)" d="M1335.03 1537.87 Q1334.04 1537.3 1332.86 1537.04 Q1331.72 1536.76 1330.32 1536.76 Q1325.35 1536.76 1322.68 1540 Q1320.04 1543.22 1320.04 1549.27 L1320.04 1568.04 L1314.15 1568.04 L1314.15 1532.4 L1320.04 1532.4 L1320.04 1537.93 Q1321.88 1534.69 1324.84 1533.13 Q1327.8 1531.54 1332.04 1531.54 Q1332.64 1531.54 1333.37 1531.63 Q1334.11 1531.7 1335 1531.85 L1335.03 1537.87 Z" fill="#000000" fill-rule="nonzero" fill-opacity="1" /><path clip-path="url(#clip780)" d="M1346.96 1522.27 L1346.96 1532.4 L1359.03 1532.4 L1359.03 1536.95 L1346.96 1536.95 L1346.96 1556.3 Q1346.96 1560.66 1348.14 1561.9 Q1349.35 1563.14 1353.01 1563.14 L1359.03 1563.14 L1359.03 1568.04 L1353.01 1568.04 Q1346.23 1568.04 1343.65 1565.53 Q1341.08 1562.98 1341.08 1556.3 L1341.08 1536.95 L1336.78 1536.95 L1336.78 1532.4 L1341.08 1532.4 L1341.08 1522.27 L1346.96 1522.27 Z" fill="#000000" fill-rule="nonzero" fill-opacity="1" /><path clip-path="url(#clip780)" d="M1397.22 1548.76 L1397.22 1551.62 L1370.3 1551.62 Q1370.68 1557.67 1373.92 1560.85 Q1377.2 1564 1383.03 1564 Q1386.4 1564 1389.55 1563.17 Q1392.73 1562.35 1395.85 1560.69 L1395.85 1566.23 Q1392.7 1567.57 1389.39 1568.27 Q1386.08 1568.97 1382.68 1568.97 Q1374.15 1568.97 1369.15 1564 Q1364.18 1559.04 1364.18 1550.57 Q1364.18 1541.82 1368.89 1536.69 Q1373.64 1531.54 1381.66 1531.54 Q1388.85 1531.54 1393.02 1536.18 Q1397.22 1540.8 1397.22 1548.76 M1391.37 1547.04 Q1391.3 1542.23 1388.66 1539.37 Q1386.05 1536.5 1381.72 1536.5 Q1376.82 1536.5 1373.86 1539.27 Q1370.93 1542.04 1370.49 1547.07 L1391.37 1547.04 Z" fill="#000000" fill-rule="nonzero" fill-opacity="1" /><path clip-path="url(#clip780)" d="M1427.49 1537.87 Q1426.5 1537.3 1425.33 1537.04 Q1424.18 1536.76 1422.78 1536.76 Q1417.82 1536.76 1415.14 1540 Q1412.5 1543.22 1412.5 1549.27 L1412.5 1568.04 L1406.61 1568.04 L1406.61 1532.4 L1412.5 1532.4 L1412.5 1537.93 Q1414.35 1534.69 1417.31 1533.13 Q1420.27 1531.54 1424.5 1531.54 Q1425.1 1531.54 1425.84 1531.63 Q1426.57 1531.7 1427.46 1531.85 L1427.49 1537.87 Z" fill="#000000" fill-rule="nonzero" fill-opacity="1" /><path clip-path="url(#clip780)" d="M1456.36 1533.45 L1456.36 1538.98 Q1453.88 1537.71 1451.2 1537.07 Q1448.53 1536.44 1445.66 1536.44 Q1441.3 1536.44 1439.11 1537.77 Q1436.94 1539.11 1436.94 1541.79 Q1436.94 1543.82 1438.5 1545 Q1440.06 1546.15 1444.77 1547.2 L1446.78 1547.64 Q1453.02 1548.98 1455.63 1551.43 Q1458.27 1553.85 1458.27 1558.21 Q1458.27 1563.17 1454.32 1566.07 Q1450.41 1568.97 1443.53 1568.97 Q1440.67 1568.97 1437.55 1568.39 Q1434.46 1567.85 1431.02 1566.74 L1431.02 1560.69 Q1434.27 1562.38 1437.42 1563.24 Q1440.57 1564.07 1443.66 1564.07 Q1447.8 1564.07 1450.03 1562.66 Q1452.25 1561.23 1452.25 1558.65 Q1452.25 1556.27 1450.63 1554.99 Q1449.04 1553.72 1443.6 1552.54 L1441.56 1552.07 Q1436.12 1550.92 1433.7 1548.56 Q1431.28 1546.18 1431.28 1542.04 Q1431.28 1537.01 1434.84 1534.27 Q1438.41 1531.54 1444.96 1531.54 Q1448.21 1531.54 1451.08 1532.01 Q1453.94 1532.49 1456.36 1533.45 Z" fill="#000000" fill-rule="nonzero" fill-opacity="1" /><polyline clip-path="url(#clip780)" style="stroke:#000000; stroke-linecap:round; stroke-linejoin:round; stroke-width:4; stroke-opacity:1; fill:none" points="294.704,1423.18 294.704,47.2441 "/>
<polyline clip-path="url(#clip780)" style="stroke:#000000; stroke-linecap:round; stroke-linejoin:round; stroke-width:4; stroke-opacity:1; fill:none" points="294.704,1216.46 313.601,1216.46 "/>
<polyline clip-path="url(#clip780)" style="stroke:#000000; stroke-linecap:round; stroke-linejoin:round; stroke-width:4; stroke-opacity:1; fill:none" points="294.704,1007.32 313.601,1007.32 "/>
<polyline clip-path="url(#clip780)" style="stroke:#000000; stroke-linecap:round; stroke-linejoin:round; stroke-width:4; stroke-opacity:1; fill:none" points="294.704,798.185 313.601,798.185 "/>
<polyline clip-path="url(#clip780)" style="stroke:#000000; stroke-linecap:round; stroke-linejoin:round; stroke-width:4; stroke-opacity:1; fill:none" points="294.704,589.047 313.601,589.047 "/>
<polyline clip-path="url(#clip780)" style="stroke:#000000; stroke-linecap:round; stroke-linejoin:round; stroke-width:4; stroke-opacity:1; fill:none" points="294.704,379.908 313.601,379.908 "/>
<polyline clip-path="url(#clip780)" style="stroke:#000000; stroke-linecap:round; stroke-linejoin:round; stroke-width:4; stroke-opacity:1; fill:none" points="294.704,170.77 313.601,170.77 "/>
<path clip-path="url(#clip780)" d="M114.931 1199.18 L137.154 1199.18 L137.154 1201.17 L124.607 1233.74 L119.723 1233.74 L131.529 1203.12 L114.931 1203.12 L114.931 1199.18 Z" fill="#000000" fill-rule="nonzero" fill-opacity="1" /><path clip-path="url(#clip780)" d="M159.121 1203.26 L147.316 1221.7 L159.121 1221.7 L159.121 1203.26 M157.894 1199.18 L163.774 1199.18 L163.774 1221.7 L168.704 1221.7 L168.704 1225.59 L163.774 1225.59 L163.774 1233.74 L159.121 1233.74 L159.121 1225.59 L143.519 1225.59 L143.519 1221.08 L157.894 1199.18 Z" fill="#000000" fill-rule="nonzero" fill-opacity="1" /><path clip-path="url(#clip780)" d="M186.436 1202.26 Q182.825 1202.26 180.996 1205.82 Q179.19 1209.37 179.19 1216.5 Q179.19 1223.6 180.996 1227.17 Q182.825 1230.71 186.436 1230.71 Q190.07 1230.71 191.875 1227.17 Q193.704 1223.6 193.704 1216.5 Q193.704 1209.37 191.875 1205.82 Q190.07 1202.26 186.436 1202.26 M186.436 1198.56 Q192.246 1198.56 195.301 1203.16 Q198.38 1207.75 198.38 1216.5 Q198.38 1225.22 195.301 1229.83 Q192.246 1234.41 186.436 1234.41 Q180.626 1234.41 177.547 1229.83 Q174.491 1225.22 174.491 1216.5 Q174.491 1207.75 177.547 1203.16 Q180.626 1198.56 186.436 1198.56 Z" fill="#000000" fill-rule="nonzero" fill-opacity="1" /><path clip-path="url(#clip780)" d="M216.598 1202.26 Q212.986 1202.26 211.158 1205.82 Q209.352 1209.37 209.352 1216.5 Q209.352 1223.6 211.158 1227.17 Q212.986 1230.71 216.598 1230.71 Q220.232 1230.71 222.037 1227.17 Q223.866 1223.6 223.866 1216.5 Q223.866 1209.37 222.037 1205.82 Q220.232 1202.26 216.598 1202.26 M216.598 1198.56 Q222.408 1198.56 225.463 1203.16 Q228.542 1207.75 228.542 1216.5 Q228.542 1225.22 225.463 1229.83 Q222.408 1234.41 216.598 1234.41 Q210.787 1234.41 207.709 1229.83 Q204.653 1225.22 204.653 1216.5 Q204.653 1207.75 207.709 1203.16 Q210.787 1198.56 216.598 1198.56 Z" fill="#000000" fill-rule="nonzero" fill-opacity="1" /><path clip-path="url(#clip780)" d="M246.759 1202.26 Q243.148 1202.26 241.32 1205.82 Q239.514 1209.37 239.514 1216.5 Q239.514 1223.6 241.32 1227.17 Q243.148 1230.71 246.759 1230.71 Q250.394 1230.71 252.199 1227.17 Q254.028 1223.6 254.028 1216.5 Q254.028 1209.37 252.199 1205.82 Q250.394 1202.26 246.759 1202.26 M246.759 1198.56 Q252.57 1198.56 255.625 1203.16 Q258.704 1207.75 258.704 1216.5 Q258.704 1225.22 255.625 1229.83 Q252.57 1234.41 246.759 1234.41 Q240.949 1234.41 237.871 1229.83 Q234.815 1225.22 234.815 1216.5 Q234.815 1207.75 237.871 1203.16 Q240.949 1198.56 246.759 1198.56 Z" fill="#000000" fill-rule="nonzero" fill-opacity="1" /><path clip-path="url(#clip780)" d="M114.931 990.043 L137.154 990.043 L137.154 992.034 L124.607 1024.6 L119.723 1024.6 L131.529 993.978 L114.931 993.978 L114.931 990.043 Z" fill="#000000" fill-rule="nonzero" fill-opacity="1" /><path clip-path="url(#clip780)" d="M156.853 1005.46 Q153.704 1005.46 151.853 1007.61 Q150.024 1009.77 150.024 1013.52 Q150.024 1017.24 151.853 1019.42 Q153.704 1021.57 156.853 1021.57 Q160.001 1021.57 161.829 1019.42 Q163.681 1017.24 163.681 1013.52 Q163.681 1009.77 161.829 1007.61 Q160.001 1005.46 156.853 1005.46 M166.135 990.807 L166.135 995.066 Q164.376 994.233 162.57 993.793 Q160.788 993.353 159.028 993.353 Q154.399 993.353 151.945 996.478 Q149.515 999.603 149.167 1005.92 Q150.533 1003.91 152.593 1002.84 Q154.653 1001.76 157.13 1001.76 Q162.339 1001.76 165.348 1004.93 Q168.38 1008.08 168.38 1013.52 Q168.38 1018.84 165.232 1022.06 Q162.084 1025.27 156.853 1025.27 Q150.857 1025.27 147.686 1020.69 Q144.515 1016.08 144.515 1007.36 Q144.515 999.163 148.403 994.302 Q152.292 989.418 158.843 989.418 Q160.603 989.418 162.385 989.765 Q164.19 990.112 166.135 990.807 Z" fill="#000000" fill-rule="nonzero" fill-opacity="1" /><path clip-path="url(#clip780)" d="M186.436 993.122 Q182.825 993.122 180.996 996.687 Q179.19 1000.23 179.19 1007.36 Q179.19 1014.46 180.996 1018.03 Q182.825 1021.57 186.436 1021.57 Q190.07 1021.57 191.875 1018.03 Q193.704 1014.46 193.704 1007.36 Q193.704 1000.23 191.875 996.687 Q190.07 993.122 186.436 993.122 M186.436 989.418 Q192.246 989.418 195.301 994.024 Q198.38 998.608 198.38 1007.36 Q198.38 1016.08 195.301 1020.69 Q192.246 1025.27 186.436 1025.27 Q180.626 1025.27 177.547 1020.69 Q174.491 1016.08 174.491 1007.36 Q174.491 998.608 177.547 994.024 Q180.626 989.418 186.436 989.418 Z" fill="#000000" fill-rule="nonzero" fill-opacity="1" /><path clip-path="url(#clip780)" d="M216.598 993.122 Q212.986 993.122 211.158 996.687 Q209.352 1000.23 209.352 1007.36 Q209.352 1014.46 211.158 1018.03 Q212.986 1021.57 216.598 1021.57 Q220.232 1021.57 222.037 1018.03 Q223.866 1014.46 223.866 1007.36 Q223.866 1000.23 222.037 996.687 Q220.232 993.122 216.598 993.122 M216.598 989.418 Q222.408 989.418 225.463 994.024 Q228.542 998.608 228.542 1007.36 Q228.542 1016.08 225.463 1020.69 Q222.408 1025.27 216.598 1025.27 Q210.787 1025.27 207.709 1020.69 Q204.653 1016.08 204.653 1007.36 Q204.653 998.608 207.709 994.024 Q210.787 989.418 216.598 989.418 Z" fill="#000000" fill-rule="nonzero" fill-opacity="1" /><path clip-path="url(#clip780)" d="M246.759 993.122 Q243.148 993.122 241.32 996.687 Q239.514 1000.23 239.514 1007.36 Q239.514 1014.46 241.32 1018.03 Q243.148 1021.57 246.759 1021.57 Q250.394 1021.57 252.199 1018.03 Q254.028 1014.46 254.028 1007.36 Q254.028 1000.23 252.199 996.687 Q250.394 993.122 246.759 993.122 M246.759 989.418 Q252.57 989.418 255.625 994.024 Q258.704 998.608 258.704 1007.36 Q258.704 1016.08 255.625 1020.69 Q252.57 1025.27 246.759 1025.27 Q240.949 1025.27 237.871 1020.69 Q234.815 1016.08 234.815 1007.36 Q234.815 998.608 237.871 994.024 Q240.949 989.418 246.759 989.418 Z" fill="#000000" fill-rule="nonzero" fill-opacity="1" /><path clip-path="url(#clip780)" d="M114.931 780.905 L137.154 780.905 L137.154 782.896 L124.607 815.465 L119.723 815.465 L131.529 784.84 L114.931 784.84 L114.931 780.905 Z" fill="#000000" fill-rule="nonzero" fill-opacity="1" /><path clip-path="url(#clip780)" d="M156.274 799.053 Q152.941 799.053 151.019 800.835 Q149.121 802.618 149.121 805.743 Q149.121 808.868 151.019 810.65 Q152.941 812.432 156.274 812.432 Q159.607 812.432 161.528 810.65 Q163.45 808.844 163.45 805.743 Q163.45 802.618 161.528 800.835 Q159.63 799.053 156.274 799.053 M151.598 797.062 Q148.589 796.321 146.899 794.261 Q145.232 792.201 145.232 789.238 Q145.232 785.095 148.172 782.687 Q151.135 780.28 156.274 780.28 Q161.436 780.28 164.376 782.687 Q167.315 785.095 167.315 789.238 Q167.315 792.201 165.626 794.261 Q163.959 796.321 160.973 797.062 Q164.352 797.849 166.227 800.141 Q168.126 802.432 168.126 805.743 Q168.126 810.766 165.047 813.451 Q161.991 816.136 156.274 816.136 Q150.556 816.136 147.478 813.451 Q144.422 810.766 144.422 805.743 Q144.422 802.432 146.32 800.141 Q148.218 797.849 151.598 797.062 M149.885 789.678 Q149.885 792.363 151.552 793.868 Q153.241 795.372 156.274 795.372 Q159.283 795.372 160.973 793.868 Q162.686 792.363 162.686 789.678 Q162.686 786.993 160.973 785.488 Q159.283 783.983 156.274 783.983 Q153.241 783.983 151.552 785.488 Q149.885 786.993 149.885 789.678 Z" fill="#000000" fill-rule="nonzero" fill-opacity="1" /><path clip-path="url(#clip780)" d="M186.436 783.983 Q182.825 783.983 180.996 787.548 Q179.19 791.09 179.19 798.219 Q179.19 805.326 180.996 808.891 Q182.825 812.432 186.436 812.432 Q190.07 812.432 191.875 808.891 Q193.704 805.326 193.704 798.219 Q193.704 791.09 191.875 787.548 Q190.07 783.983 186.436 783.983 M186.436 780.28 Q192.246 780.28 195.301 784.886 Q198.38 789.47 198.38 798.219 Q198.38 806.946 195.301 811.553 Q192.246 816.136 186.436 816.136 Q180.626 816.136 177.547 811.553 Q174.491 806.946 174.491 798.219 Q174.491 789.47 177.547 784.886 Q180.626 780.28 186.436 780.28 Z" fill="#000000" fill-rule="nonzero" fill-opacity="1" /><path clip-path="url(#clip780)" d="M216.598 783.983 Q212.986 783.983 211.158 787.548 Q209.352 791.09 209.352 798.219 Q209.352 805.326 211.158 808.891 Q212.986 812.432 216.598 812.432 Q220.232 812.432 222.037 808.891 Q223.866 805.326 223.866 798.219 Q223.866 791.09 222.037 787.548 Q220.232 783.983 216.598 783.983 M216.598 780.28 Q222.408 780.28 225.463 784.886 Q228.542 789.47 228.542 798.219 Q228.542 806.946 225.463 811.553 Q222.408 816.136 216.598 816.136 Q210.787 816.136 207.709 811.553 Q204.653 806.946 204.653 798.219 Q204.653 789.47 207.709 784.886 Q210.787 780.28 216.598 780.28 Z" fill="#000000" fill-rule="nonzero" fill-opacity="1" /><path clip-path="url(#clip780)" d="M246.759 783.983 Q243.148 783.983 241.32 787.548 Q239.514 791.09 239.514 798.219 Q239.514 805.326 241.32 808.891 Q243.148 812.432 246.759 812.432 Q250.394 812.432 252.199 808.891 Q254.028 805.326 254.028 798.219 Q254.028 791.09 252.199 787.548 Q250.394 783.983 246.759 783.983 M246.759 780.28 Q252.57 780.28 255.625 784.886 Q258.704 789.47 258.704 798.219 Q258.704 806.946 255.625 811.553 Q252.57 816.136 246.759 816.136 Q240.949 816.136 237.871 811.553 Q234.815 806.946 234.815 798.219 Q234.815 789.47 237.871 784.886 Q240.949 780.28 246.759 780.28 Z" fill="#000000" fill-rule="nonzero" fill-opacity="1" /><path clip-path="url(#clip780)" d="M126.112 589.915 Q122.779 589.915 120.857 591.697 Q118.959 593.479 118.959 596.604 Q118.959 599.729 120.857 601.512 Q122.779 603.294 126.112 603.294 Q129.445 603.294 131.367 601.512 Q133.288 599.706 133.288 596.604 Q133.288 593.479 131.367 591.697 Q129.468 589.915 126.112 589.915 M121.436 587.924 Q118.427 587.183 116.737 585.123 Q115.07 583.063 115.07 580.1 Q115.07 575.956 118.01 573.549 Q120.973 571.142 126.112 571.142 Q131.274 571.142 134.214 573.549 Q137.154 575.956 137.154 580.1 Q137.154 583.063 135.464 585.123 Q133.797 587.183 130.811 587.924 Q134.191 588.711 136.066 591.003 Q137.964 593.294 137.964 596.604 Q137.964 601.627 134.885 604.313 Q131.83 606.998 126.112 606.998 Q120.394 606.998 117.316 604.313 Q114.26 601.627 114.26 596.604 Q114.26 593.294 116.158 591.003 Q118.056 588.711 121.436 587.924 M119.723 580.54 Q119.723 583.225 121.39 584.729 Q123.08 586.234 126.112 586.234 Q129.121 586.234 130.811 584.729 Q132.524 583.225 132.524 580.54 Q132.524 577.854 130.811 576.35 Q129.121 574.845 126.112 574.845 Q123.08 574.845 121.39 576.35 Q119.723 577.854 119.723 580.54 Z" fill="#000000" fill-rule="nonzero" fill-opacity="1" /><path clip-path="url(#clip780)" d="M156.274 574.845 Q152.663 574.845 150.834 578.41 Q149.028 581.952 149.028 589.081 Q149.028 596.188 150.834 599.752 Q152.663 603.294 156.274 603.294 Q159.908 603.294 161.714 599.752 Q163.542 596.188 163.542 589.081 Q163.542 581.952 161.714 578.41 Q159.908 574.845 156.274 574.845 M156.274 571.142 Q162.084 571.142 165.14 575.748 Q168.218 580.331 168.218 589.081 Q168.218 597.808 165.14 602.415 Q162.084 606.998 156.274 606.998 Q150.464 606.998 147.385 602.415 Q144.329 597.808 144.329 589.081 Q144.329 580.331 147.385 575.748 Q150.464 571.142 156.274 571.142 Z" fill="#000000" fill-rule="nonzero" fill-opacity="1" /><path clip-path="url(#clip780)" d="M186.436 574.845 Q182.825 574.845 180.996 578.41 Q179.19 581.952 179.19 589.081 Q179.19 596.188 180.996 599.752 Q182.825 603.294 186.436 603.294 Q190.07 603.294 191.875 599.752 Q193.704 596.188 193.704 589.081 Q193.704 581.952 191.875 578.41 Q190.07 574.845 186.436 574.845 M186.436 571.142 Q192.246 571.142 195.301 575.748 Q198.38 580.331 198.38 589.081 Q198.38 597.808 195.301 602.415 Q192.246 606.998 186.436 606.998 Q180.626 606.998 177.547 602.415 Q174.491 597.808 174.491 589.081 Q174.491 580.331 177.547 575.748 Q180.626 571.142 186.436 571.142 Z" fill="#000000" fill-rule="nonzero" fill-opacity="1" /><path clip-path="url(#clip780)" d="M216.598 574.845 Q212.986 574.845 211.158 578.41 Q209.352 581.952 209.352 589.081 Q209.352 596.188 211.158 599.752 Q212.986 603.294 216.598 603.294 Q220.232 603.294 222.037 599.752 Q223.866 596.188 223.866 589.081 Q223.866 581.952 222.037 578.41 Q220.232 574.845 216.598 574.845 M216.598 571.142 Q222.408 571.142 225.463 575.748 Q228.542 580.331 228.542 589.081 Q228.542 597.808 225.463 602.415 Q222.408 606.998 216.598 606.998 Q210.787 606.998 207.709 602.415 Q204.653 597.808 204.653 589.081 Q204.653 580.331 207.709 575.748 Q210.787 571.142 216.598 571.142 Z" fill="#000000" fill-rule="nonzero" fill-opacity="1" /><path clip-path="url(#clip780)" d="M246.759 574.845 Q243.148 574.845 241.32 578.41 Q239.514 581.952 239.514 589.081 Q239.514 596.188 241.32 599.752 Q243.148 603.294 246.759 603.294 Q250.394 603.294 252.199 599.752 Q254.028 596.188 254.028 589.081 Q254.028 581.952 252.199 578.41 Q250.394 574.845 246.759 574.845 M246.759 571.142 Q252.57 571.142 255.625 575.748 Q258.704 580.331 258.704 589.081 Q258.704 597.808 255.625 602.415 Q252.57 606.998 246.759 606.998 Q240.949 606.998 237.871 602.415 Q234.815 597.808 234.815 589.081 Q234.815 580.331 237.871 575.748 Q240.949 571.142 246.759 571.142 Z" fill="#000000" fill-rule="nonzero" fill-opacity="1" /><path clip-path="url(#clip780)" d="M126.112 380.776 Q122.779 380.776 120.857 382.559 Q118.959 384.341 118.959 387.466 Q118.959 390.591 120.857 392.373 Q122.779 394.156 126.112 394.156 Q129.445 394.156 131.367 392.373 Q133.288 390.568 133.288 387.466 Q133.288 384.341 131.367 382.559 Q129.468 380.776 126.112 380.776 M121.436 378.786 Q118.427 378.045 116.737 375.985 Q115.07 373.924 115.07 370.962 Q115.07 366.818 118.01 364.411 Q120.973 362.003 126.112 362.003 Q131.274 362.003 134.214 364.411 Q137.154 366.818 137.154 370.962 Q137.154 373.924 135.464 375.985 Q133.797 378.045 130.811 378.786 Q134.191 379.573 136.066 381.864 Q137.964 384.156 137.964 387.466 Q137.964 392.489 134.885 395.174 Q131.83 397.86 126.112 397.86 Q120.394 397.86 117.316 395.174 Q114.26 392.489 114.26 387.466 Q114.26 384.156 116.158 381.864 Q118.056 379.573 121.436 378.786 M119.723 371.401 Q119.723 374.087 121.39 375.591 Q123.08 377.096 126.112 377.096 Q129.121 377.096 130.811 375.591 Q132.524 374.087 132.524 371.401 Q132.524 368.716 130.811 367.212 Q129.121 365.707 126.112 365.707 Q123.08 365.707 121.39 367.212 Q119.723 368.716 119.723 371.401 Z" fill="#000000" fill-rule="nonzero" fill-opacity="1" /><path clip-path="url(#clip780)" d="M150.302 393.253 L166.621 393.253 L166.621 397.188 L144.677 397.188 L144.677 393.253 Q147.339 390.498 151.922 385.869 Q156.528 381.216 157.709 379.874 Q159.954 377.35 160.834 375.614 Q161.737 373.855 161.737 372.165 Q161.737 369.411 159.792 367.675 Q157.871 365.938 154.769 365.938 Q152.57 365.938 150.116 366.702 Q147.686 367.466 144.908 369.017 L144.908 364.295 Q147.732 363.161 150.186 362.582 Q152.64 362.003 154.677 362.003 Q160.047 362.003 163.241 364.688 Q166.436 367.374 166.436 371.864 Q166.436 373.994 165.626 375.915 Q164.839 377.813 162.732 380.406 Q162.153 381.077 159.052 384.295 Q155.95 387.489 150.302 393.253 Z" fill="#000000" fill-rule="nonzero" fill-opacity="1" /><path clip-path="url(#clip780)" d="M186.436 365.707 Q182.825 365.707 180.996 369.272 Q179.19 372.813 179.19 379.943 Q179.19 387.049 180.996 390.614 Q182.825 394.156 186.436 394.156 Q190.07 394.156 191.875 390.614 Q193.704 387.049 193.704 379.943 Q193.704 372.813 191.875 369.272 Q190.07 365.707 186.436 365.707 M186.436 362.003 Q192.246 362.003 195.301 366.61 Q198.38 371.193 198.38 379.943 Q198.38 388.67 195.301 393.276 Q192.246 397.86 186.436 397.86 Q180.626 397.86 177.547 393.276 Q174.491 388.67 174.491 379.943 Q174.491 371.193 177.547 366.61 Q180.626 362.003 186.436 362.003 Z" fill="#000000" fill-rule="nonzero" fill-opacity="1" /><path clip-path="url(#clip780)" d="M216.598 365.707 Q212.986 365.707 211.158 369.272 Q209.352 372.813 209.352 379.943 Q209.352 387.049 211.158 390.614 Q212.986 394.156 216.598 394.156 Q220.232 394.156 222.037 390.614 Q223.866 387.049 223.866 379.943 Q223.866 372.813 222.037 369.272 Q220.232 365.707 216.598 365.707 M216.598 362.003 Q222.408 362.003 225.463 366.61 Q228.542 371.193 228.542 379.943 Q228.542 388.67 225.463 393.276 Q222.408 397.86 216.598 397.86 Q210.787 397.86 207.709 393.276 Q204.653 388.67 204.653 379.943 Q204.653 371.193 207.709 366.61 Q210.787 362.003 216.598 362.003 Z" fill="#000000" fill-rule="nonzero" fill-opacity="1" /><path clip-path="url(#clip780)" d="M246.759 365.707 Q243.148 365.707 241.32 369.272 Q239.514 372.813 239.514 379.943 Q239.514 387.049 241.32 390.614 Q243.148 394.156 246.759 394.156 Q250.394 394.156 252.199 390.614 Q254.028 387.049 254.028 379.943 Q254.028 372.813 252.199 369.272 Q250.394 365.707 246.759 365.707 M246.759 362.003 Q252.57 362.003 255.625 366.61 Q258.704 371.193 258.704 379.943 Q258.704 388.67 255.625 393.276 Q252.57 397.86 246.759 397.86 Q240.949 397.86 237.871 393.276 Q234.815 388.67 234.815 379.943 Q234.815 371.193 237.871 366.61 Q240.949 362.003 246.759 362.003 Z" fill="#000000" fill-rule="nonzero" fill-opacity="1" /><path clip-path="url(#clip780)" d="M126.112 171.638 Q122.779 171.638 120.857 173.42 Q118.959 175.203 118.959 178.328 Q118.959 181.453 120.857 183.235 Q122.779 185.018 126.112 185.018 Q129.445 185.018 131.367 183.235 Q133.288 181.43 133.288 178.328 Q133.288 175.203 131.367 173.42 Q129.468 171.638 126.112 171.638 M121.436 169.647 Q118.427 168.907 116.737 166.846 Q115.07 164.786 115.07 161.823 Q115.07 157.68 118.01 155.272 Q120.973 152.865 126.112 152.865 Q131.274 152.865 134.214 155.272 Q137.154 157.68 137.154 161.823 Q137.154 164.786 135.464 166.846 Q133.797 168.907 130.811 169.647 Q134.191 170.434 136.066 172.726 Q137.964 175.018 137.964 178.328 Q137.964 183.351 134.885 186.036 Q131.83 188.721 126.112 188.721 Q120.394 188.721 117.316 186.036 Q114.26 183.351 114.26 178.328 Q114.26 175.018 116.158 172.726 Q118.056 170.434 121.436 169.647 M119.723 162.263 Q119.723 164.948 121.39 166.453 Q123.08 167.958 126.112 167.958 Q129.121 167.958 130.811 166.453 Q132.524 164.948 132.524 162.263 Q132.524 159.578 130.811 158.073 Q129.121 156.569 126.112 156.569 Q123.08 156.569 121.39 158.073 Q119.723 159.578 119.723 162.263 Z" fill="#000000" fill-rule="nonzero" fill-opacity="1" /><path clip-path="url(#clip780)" d="M159.121 157.564 L147.316 176.013 L159.121 176.013 L159.121 157.564 M157.894 153.49 L163.774 153.49 L163.774 176.013 L168.704 176.013 L168.704 179.902 L163.774 179.902 L163.774 188.05 L159.121 188.05 L159.121 179.902 L143.519 179.902 L143.519 175.388 L157.894 153.49 Z" fill="#000000" fill-rule="nonzero" fill-opacity="1" /><path clip-path="url(#clip780)" d="M186.436 156.569 Q182.825 156.569 180.996 160.133 Q179.19 163.675 179.19 170.805 Q179.19 177.911 180.996 181.476 Q182.825 185.018 186.436 185.018 Q190.07 185.018 191.875 181.476 Q193.704 177.911 193.704 170.805 Q193.704 163.675 191.875 160.133 Q190.07 156.569 186.436 156.569 M186.436 152.865 Q192.246 152.865 195.301 157.471 Q198.38 162.055 198.38 170.805 Q198.38 179.532 195.301 184.138 Q192.246 188.721 186.436 188.721 Q180.626 188.721 177.547 184.138 Q174.491 179.532 174.491 170.805 Q174.491 162.055 177.547 157.471 Q180.626 152.865 186.436 152.865 Z" fill="#000000" fill-rule="nonzero" fill-opacity="1" /><path clip-path="url(#clip780)" d="M216.598 156.569 Q212.986 156.569 211.158 160.133 Q209.352 163.675 209.352 170.805 Q209.352 177.911 211.158 181.476 Q212.986 185.018 216.598 185.018 Q220.232 185.018 222.037 181.476 Q223.866 177.911 223.866 170.805 Q223.866 163.675 222.037 160.133 Q220.232 156.569 216.598 156.569 M216.598 152.865 Q222.408 152.865 225.463 157.471 Q228.542 162.055 228.542 170.805 Q228.542 179.532 225.463 184.138 Q222.408 188.721 216.598 188.721 Q210.787 188.721 207.709 184.138 Q204.653 179.532 204.653 170.805 Q204.653 162.055 207.709 157.471 Q210.787 152.865 216.598 152.865 Z" fill="#000000" fill-rule="nonzero" fill-opacity="1" /><path clip-path="url(#clip780)" d="M246.759 156.569 Q243.148 156.569 241.32 160.133 Q239.514 163.675 239.514 170.805 Q239.514 177.911 241.32 181.476 Q243.148 185.018 246.759 185.018 Q250.394 185.018 252.199 181.476 Q254.028 177.911 254.028 170.805 Q254.028 163.675 252.199 160.133 Q250.394 156.569 246.759 156.569 M246.759 152.865 Q252.57 152.865 255.625 157.471 Q258.704 162.055 258.704 170.805 Q258.704 179.532 255.625 184.138 Q252.57 188.721 246.759 188.721 Q240.949 188.721 237.871 184.138 Q234.815 179.532 234.815 170.805 Q234.815 162.055 237.871 157.471 Q240.949 152.865 246.759 152.865 Z" fill="#000000" fill-rule="nonzero" fill-opacity="1" /><path clip-path="url(#clip780)" d="M57.2247 767.136 L44.4614 767.136 L44.4614 777.639 L39.1779 777.639 L39.1779 760.77 L59.58 760.77 Q62.2218 764.494 63.5904 768.982 Q64.9272 773.47 64.9272 778.562 Q64.9272 789.702 58.4342 796.004 Q51.9093 802.275 40.2919 802.275 Q28.6427 802.275 22.1496 796.004 Q15.6248 789.702 15.6248 778.562 Q15.6248 773.915 16.7706 769.746 Q17.9164 765.545 20.1444 762.012 L26.9876 762.012 Q23.9639 765.576 22.4361 769.587 Q20.9083 773.597 20.9083 778.021 Q20.9083 786.742 25.7781 791.135 Q30.6479 795.495 40.2919 795.495 Q49.9041 795.495 54.7739 791.135 Q59.6436 786.742 59.6436 778.021 Q59.6436 774.616 59.0707 771.942 Q58.466 769.268 57.2247 767.136 Z" fill="#000000" fill-rule="nonzero" fill-opacity="1" /><path clip-path="url(#clip780)" d="M21.7677 742.596 L58.7206 742.596 L58.7206 734.83 Q58.7206 724.995 54.2646 720.444 Q49.8086 715.86 40.1964 715.86 Q30.6479 715.86 26.2237 720.444 Q21.7677 724.995 21.7677 734.83 L21.7677 742.596 M16.4842 749.026 L16.4842 735.817 Q16.4842 722.003 22.2451 715.542 Q27.9743 709.081 40.1964 709.081 Q52.4822 709.081 58.2432 715.574 Q64.0042 722.067 64.0042 735.817 L64.0042 749.026 L16.4842 749.026 Z" fill="#000000" fill-rule="nonzero" fill-opacity="1" /><path clip-path="url(#clip780)" d="M21.7677 692.403 L39.6235 692.403 L39.6235 684.318 Q39.6235 679.83 37.3 677.38 Q34.9765 674.929 30.6797 674.929 Q26.4147 674.929 24.0912 677.38 Q21.7677 679.83 21.7677 684.318 L21.7677 692.403 M16.4842 698.832 L16.4842 684.318 Q16.4842 676.329 20.1126 672.255 Q23.7092 668.149 30.6797 668.149 Q37.7138 668.149 41.3104 672.255 Q44.907 676.329 44.907 684.318 L44.907 692.403 L64.0042 692.403 L64.0042 698.832 L16.4842 698.832 Z" fill="#000000" fill-rule="nonzero" fill-opacity="1" /><path clip-path="url(#clip782)" d="M352.951 1381.47 L450.029 1383.83 L547.106 1246.83 L644.184 632.612 L741.262 904.665 L838.34 971.342 L935.418 1040.88 L1032.5 1041.33 L1129.57 1041.32 L1226.65 1045.44 L1323.73 1012 L1420.81 989.579 L1517.89 938.685 L1614.96 900.611 L1712.04 879.8 L1809.12 890.98 L1906.2 872.397 L2003.28 881.882 L2100.35 895.384 L2197.43 899.437 L2294.51 854.7 L2294.51 809.712 L2197.43 841.977 L2100.35 854.383 L2003.28 857.883 L1906.2 845.527 L1809.12 859.415 L1712.04 852.619 L1614.96 857.234 L1517.89 884.666 L1420.81 922.808 L1323.73 947.507 L1226.65 972.46 L1129.57 970.696 L1032.5 963.665 L935.418 935.955 L838.34 873.938 L741.262 822.13 L644.184 526.304 L547.106 1219.55 L450.029 1382.97 L352.951 1381.47  Z" fill="#009af9" fill-rule="evenodd" fill-opacity="0.1"/>
<polyline clip-path="url(#clip782)" style="stroke:#009af9; stroke-linecap:round; stroke-linejoin:round; stroke-width:4; stroke-opacity:1; fill:none" points="352.951,1381.47 450.029,1383.4 547.106,1233.19 644.184,579.458 741.262,863.397 838.34,922.64 935.418,988.419 1032.5,1002.5 1129.57,1006.01 1226.65,1008.95 1323.73,979.751 1420.81,956.193 1517.89,911.676 1614.96,878.922 1712.04,866.209 1809.12,875.197 1906.2,858.962 2003.28,869.883 2100.35,874.884 2197.43,870.707 2294.51,832.206 "/>
<path clip-path="url(#clip782)" d="M352.951 1381.47 L450.029 1384.24 L547.106 1233.4 L644.184 470.456 L741.262 368.094 L838.34 264.575 L935.418 196.7 L1032.5 166.509 L1129.57 142.917 L1226.65 131.14 L1323.73 116.368 L1420.81 115.309 L1517.89 122.454 L1614.96 138.01 L1712.04 150.186 L1809.12 163.478 L1906.2 172.076 L2003.28 174.702 L2100.35 188.813 L2197.43 182.5 L2294.51 188.887 L2294.51 98.913 L2197.43 97.5771 L2100.35 102.353 L2003.28 104.871 L1906.2 106.794 L1809.12 105.577 L1712.04 107.064 L1614.96 96.2913 L1517.89 86.2829 L1420.81 86.1857 L1323.73 92.9976 L1226.65 107.765 L1129.57 121.706 L1032.5 139.565 L935.418 170.621 L838.34 222.064 L741.262 318.972 L644.184 429.118 L547.106 1218.19 L450.029 1381.78 L352.951 1381.47  Z" fill="#e26f46" fill-rule="evenodd" fill-opacity="0.1"/>
<polyline clip-path="url(#clip782)" style="stroke:#e26f46; stroke-linecap:round; stroke-linejoin:round; stroke-width:4; stroke-opacity:1; fill:none" points="352.951,1381.47 450.029,1383.01 547.106,1225.8 644.184,449.787 741.262,343.533 838.34,243.32 935.418,183.66 1032.5,153.037 1129.57,132.311 1226.65,119.452 1323.73,104.683 1420.81,100.747 1517.89,104.368 1614.96,117.151 1712.04,128.625 1809.12,134.528 1906.2,139.435 2003.28,139.787 2100.35,145.583 2197.43,140.039 2294.51,143.9 "/>
<path clip-path="url(#clip780)" d="M1886.61 1377.32 L2284.15 1377.32 L2284.15 1221.8 L1886.61 1221.8  Z" fill="#ffffff" fill-rule="evenodd" fill-opacity="1"/>
<polyline clip-path="url(#clip780)" style="stroke:#000000; stroke-linecap:round; stroke-linejoin:round; stroke-width:4; stroke-opacity:1; fill:none" points="1886.61,1377.32 2284.15,1377.32 2284.15,1221.8 1886.61,1221.8 1886.61,1377.32 "/>
<polyline clip-path="url(#clip780)" style="stroke:#009af9; stroke-linecap:round; stroke-linejoin:round; stroke-width:4; stroke-opacity:1; fill:none" points="1909.48,1273.64 2046.68,1273.64 "/>
<path clip-path="url(#clip780)" d="M2088.32 1277.98 Q2088.32 1273.28 2086.38 1270.61 Q2084.46 1267.93 2081.08 1267.93 Q2077.7 1267.93 2075.76 1270.61 Q2073.83 1273.28 2073.83 1277.98 Q2073.83 1282.67 2075.76 1285.36 Q2077.7 1288.02 2081.08 1288.02 Q2084.46 1288.02 2086.38 1285.36 Q2088.32 1282.67 2088.32 1277.98 M2073.83 1268.92 Q2075.18 1266.61 2077.21 1265.5 Q2079.27 1264.36 2082.12 1264.36 Q2086.84 1264.36 2089.78 1268.11 Q2092.75 1271.86 2092.75 1277.98 Q2092.75 1284.09 2089.78 1287.84 Q2086.84 1291.59 2082.12 1291.59 Q2079.27 1291.59 2077.21 1290.48 Q2075.18 1289.34 2073.83 1287.03 L2073.83 1290.92 L2069.55 1290.92 L2069.55 1254.9 L2073.83 1254.9 L2073.83 1268.92 Z" fill="#000000" fill-rule="nonzero" fill-opacity="1" /><path clip-path="url(#clip780)" d="M2111.59 1277.88 Q2106.43 1277.88 2104.44 1279.06 Q2102.45 1280.24 2102.45 1283.09 Q2102.45 1285.36 2103.93 1286.7 Q2105.43 1288.02 2108 1288.02 Q2111.54 1288.02 2113.67 1285.52 Q2115.82 1283 2115.82 1278.83 L2115.82 1277.88 L2111.59 1277.88 M2120.08 1276.12 L2120.08 1290.92 L2115.82 1290.92 L2115.82 1286.98 Q2114.37 1289.34 2112.19 1290.48 Q2110.01 1291.59 2106.87 1291.59 Q2102.88 1291.59 2100.52 1289.36 Q2098.19 1287.12 2098.19 1283.37 Q2098.19 1278.99 2101.1 1276.77 Q2104.04 1274.55 2109.85 1274.55 L2115.82 1274.55 L2115.82 1274.13 Q2115.82 1271.19 2113.88 1269.6 Q2111.96 1267.98 2108.46 1267.98 Q2106.24 1267.98 2104.13 1268.51 Q2102.03 1269.04 2100.08 1270.11 L2100.08 1266.17 Q2102.42 1265.27 2104.62 1264.83 Q2106.82 1264.36 2108.9 1264.36 Q2114.53 1264.36 2117.31 1267.28 Q2120.08 1270.2 2120.08 1276.12 Z" fill="#000000" fill-rule="nonzero" fill-opacity="1" /><path clip-path="url(#clip780)" d="M2145.38 1265.75 L2145.38 1269.78 Q2143.58 1268.86 2141.63 1268.39 Q2139.69 1267.93 2137.61 1267.93 Q2134.44 1267.93 2132.84 1268.9 Q2131.26 1269.87 2131.26 1271.82 Q2131.26 1273.3 2132.4 1274.16 Q2133.53 1274.99 2136.96 1275.75 L2138.42 1276.08 Q2142.95 1277.05 2144.85 1278.83 Q2146.77 1280.59 2146.77 1283.76 Q2146.77 1287.37 2143.9 1289.48 Q2141.06 1291.59 2136.06 1291.59 Q2133.97 1291.59 2131.7 1291.17 Q2129.46 1290.78 2126.96 1289.97 L2126.96 1285.57 Q2129.32 1286.79 2131.61 1287.42 Q2133.9 1288.02 2136.15 1288.02 Q2139.16 1288.02 2140.78 1287 Q2142.4 1285.96 2142.4 1284.09 Q2142.4 1282.35 2141.22 1281.42 Q2140.06 1280.5 2136.1 1279.64 L2134.62 1279.3 Q2130.66 1278.46 2128.9 1276.75 Q2127.14 1275.01 2127.14 1272 Q2127.14 1268.35 2129.74 1266.36 Q2132.33 1264.36 2137.1 1264.36 Q2139.46 1264.36 2141.54 1264.71 Q2143.63 1265.06 2145.38 1265.75 Z" fill="#000000" fill-rule="nonzero" fill-opacity="1" /><path clip-path="url(#clip780)" d="M2175.73 1276.89 L2175.73 1278.97 L2156.15 1278.97 Q2156.43 1283.37 2158.79 1285.68 Q2161.17 1287.98 2165.41 1287.98 Q2167.86 1287.98 2170.15 1287.37 Q2172.47 1286.77 2174.74 1285.57 L2174.74 1289.6 Q2172.44 1290.57 2170.04 1291.08 Q2167.63 1291.59 2165.15 1291.59 Q2158.95 1291.59 2155.32 1287.98 Q2151.7 1284.36 2151.7 1278.21 Q2151.7 1271.84 2155.13 1268.11 Q2158.58 1264.36 2164.41 1264.36 Q2169.64 1264.36 2172.68 1267.74 Q2175.73 1271.1 2175.73 1276.89 M2171.47 1275.64 Q2171.43 1272.14 2169.51 1270.06 Q2167.61 1267.98 2164.46 1267.98 Q2160.89 1267.98 2158.74 1269.99 Q2156.61 1272 2156.29 1275.66 L2171.47 1275.64 Z" fill="#000000" fill-rule="nonzero" fill-opacity="1" /><path clip-path="url(#clip780)" d="M2182.72 1254.9 L2186.98 1254.9 L2186.98 1290.92 L2182.72 1290.92 L2182.72 1254.9 Z" fill="#000000" fill-rule="nonzero" fill-opacity="1" /><path clip-path="url(#clip780)" d="M2195.89 1264.99 L2200.15 1264.99 L2200.15 1290.92 L2195.89 1290.92 L2195.89 1264.99 M2195.89 1254.9 L2200.15 1254.9 L2200.15 1260.29 L2195.89 1260.29 L2195.89 1254.9 Z" fill="#000000" fill-rule="nonzero" fill-opacity="1" /><path clip-path="url(#clip780)" d="M2230.62 1275.27 L2230.62 1290.92 L2226.36 1290.92 L2226.36 1275.41 Q2226.36 1271.73 2224.92 1269.9 Q2223.49 1268.07 2220.62 1268.07 Q2217.17 1268.07 2215.18 1270.27 Q2213.19 1272.47 2213.19 1276.26 L2213.19 1290.92 L2208.9 1290.92 L2208.9 1264.99 L2213.19 1264.99 L2213.19 1269.02 Q2214.71 1266.68 2216.77 1265.52 Q2218.86 1264.36 2221.56 1264.36 Q2226.03 1264.36 2228.32 1267.14 Q2230.62 1269.9 2230.62 1275.27 Z" fill="#000000" fill-rule="nonzero" fill-opacity="1" /><path clip-path="url(#clip780)" d="M2261.29 1276.89 L2261.29 1278.97 L2241.7 1278.97 Q2241.98 1283.37 2244.34 1285.68 Q2246.73 1287.98 2250.96 1287.98 Q2253.42 1287.98 2255.71 1287.37 Q2258.02 1286.77 2260.29 1285.57 L2260.29 1289.6 Q2258 1290.57 2255.59 1291.08 Q2253.19 1291.59 2250.71 1291.59 Q2244.5 1291.59 2240.87 1287.98 Q2237.26 1284.36 2237.26 1278.21 Q2237.26 1271.84 2240.69 1268.11 Q2244.13 1264.36 2249.97 1264.36 Q2255.2 1264.36 2258.23 1267.74 Q2261.29 1271.1 2261.29 1276.89 M2257.03 1275.64 Q2256.98 1272.14 2255.06 1270.06 Q2253.16 1267.98 2250.01 1267.98 Q2246.45 1267.98 2244.3 1269.99 Q2242.17 1272 2241.84 1275.66 L2257.03 1275.64 Z" fill="#000000" fill-rule="nonzero" fill-opacity="1" /><polyline clip-path="url(#clip780)" style="stroke:#e26f46; stroke-linecap:round; stroke-linejoin:round; stroke-width:4; stroke-opacity:1; fill:none" points="1909.48,1325.48 2046.68,1325.48 "/>
<path clip-path="url(#clip780)" d="M2087.98 1317.59 L2087.98 1321.62 Q2086.17 1320.7 2084.23 1320.23 Q2082.28 1319.77 2080.2 1319.77 Q2077.03 1319.77 2075.43 1320.74 Q2073.86 1321.71 2073.86 1323.66 Q2073.86 1325.14 2074.99 1326 Q2076.13 1326.83 2079.55 1327.59 L2081.01 1327.92 Q2085.55 1328.89 2087.45 1330.67 Q2089.37 1332.43 2089.37 1335.6 Q2089.37 1339.21 2086.5 1341.32 Q2083.65 1343.43 2078.65 1343.43 Q2076.57 1343.43 2074.3 1343.01 Q2072.05 1342.62 2069.55 1341.81 L2069.55 1337.41 Q2071.91 1338.63 2074.2 1339.26 Q2076.5 1339.86 2078.74 1339.86 Q2081.75 1339.86 2083.37 1338.84 Q2084.99 1337.8 2084.99 1335.93 Q2084.99 1334.19 2083.81 1333.26 Q2082.65 1332.34 2078.7 1331.48 L2077.21 1331.14 Q2073.26 1330.3 2071.5 1328.59 Q2069.74 1326.85 2069.74 1323.84 Q2069.74 1320.19 2072.33 1318.2 Q2074.92 1316.2 2079.69 1316.2 Q2082.05 1316.2 2084.14 1316.55 Q2086.22 1316.9 2087.98 1317.59 Z" fill="#000000" fill-rule="nonzero" fill-opacity="1" /><path clip-path="url(#clip780)" d="M2117.7 1327.11 L2117.7 1342.76 L2113.44 1342.76 L2113.44 1327.25 Q2113.44 1323.57 2112.01 1321.74 Q2110.57 1319.91 2107.7 1319.91 Q2104.25 1319.91 2102.26 1322.11 Q2100.27 1324.31 2100.27 1328.1 L2100.27 1342.76 L2095.99 1342.76 L2095.99 1306.74 L2100.27 1306.74 L2100.27 1320.86 Q2101.8 1318.52 2103.86 1317.36 Q2105.94 1316.2 2108.65 1316.2 Q2113.12 1316.2 2115.41 1318.98 Q2117.7 1321.74 2117.7 1327.11 Z" fill="#000000" fill-rule="nonzero" fill-opacity="1" /><path clip-path="url(#clip780)" d="M2136.24 1319.82 Q2132.82 1319.82 2130.82 1322.5 Q2128.83 1325.16 2128.83 1329.82 Q2128.83 1334.47 2130.8 1337.15 Q2132.79 1339.82 2136.24 1339.82 Q2139.64 1339.82 2141.63 1337.13 Q2143.63 1334.45 2143.63 1329.82 Q2143.63 1325.21 2141.63 1322.52 Q2139.64 1319.82 2136.24 1319.82 M2136.24 1316.2 Q2141.8 1316.2 2144.97 1319.82 Q2148.14 1323.43 2148.14 1329.82 Q2148.14 1336.18 2144.97 1339.82 Q2141.8 1343.43 2136.24 1343.43 Q2130.66 1343.43 2127.49 1339.82 Q2124.34 1336.18 2124.34 1329.82 Q2124.34 1323.43 2127.49 1319.82 Q2130.66 1316.2 2136.24 1316.2 Z" fill="#000000" fill-rule="nonzero" fill-opacity="1" /><path clip-path="url(#clip780)" d="M2173.86 1317.82 L2173.86 1321.81 Q2172.05 1320.81 2170.22 1320.32 Q2168.42 1319.82 2166.57 1319.82 Q2162.42 1319.82 2160.13 1322.45 Q2157.84 1325.07 2157.84 1329.82 Q2157.84 1334.56 2160.13 1337.2 Q2162.42 1339.82 2166.57 1339.82 Q2168.42 1339.82 2170.22 1339.33 Q2172.05 1338.82 2173.86 1337.82 L2173.86 1341.76 Q2172.07 1342.59 2170.15 1343.01 Q2168.26 1343.43 2166.1 1343.43 Q2160.25 1343.43 2156.8 1339.75 Q2153.35 1336.07 2153.35 1329.82 Q2153.35 1323.47 2156.82 1319.84 Q2160.32 1316.2 2166.38 1316.2 Q2168.35 1316.2 2170.22 1316.62 Q2172.1 1317.01 2173.86 1317.82 Z" fill="#000000" fill-rule="nonzero" fill-opacity="1" /><path clip-path="url(#clip780)" d="M2181.1 1306.74 L2185.38 1306.74 L2185.38 1328.01 L2198.09 1316.83 L2203.53 1316.83 L2189.78 1328.96 L2204.11 1342.76 L2198.56 1342.76 L2185.38 1330.09 L2185.38 1342.76 L2181.1 1342.76 L2181.1 1306.74 Z" fill="#000000" fill-rule="nonzero" fill-opacity="1" /></svg>
