<?xml version="1.0" encoding="utf-8"?>
<svg xmlns="http://www.w3.org/2000/svg" xmlns:xlink="http://www.w3.org/1999/xlink" width="600" height="400" viewBox="0 0 2400 1600">
<defs>
  <clipPath id="clip330">
    <rect x="0" y="0" width="2400" height="1600"/>
  </clipPath>
</defs>
<path clip-path="url(#clip330)" d="M0 1600 L2400 1600 L2400 0 L0 0  Z" fill="#ffffff" fill-rule="evenodd" fill-opacity="1"/>
<defs>
  <clipPath id="clip331">
    <rect x="480" y="0" width="1681" height="1600"/>
  </clipPath>
</defs>
<path clip-path="url(#clip330)" d="M294.033 1423.18 L2352.76 1423.18 L2352.76 47.2441 L294.033 47.2441  Z" fill="#ffffff" fill-rule="evenodd" fill-opacity="1"/>
<defs>
  <clipPath id="clip332">
    <rect x="294" y="47" width="2060" height="1377"/>
  </clipPath>
</defs>
<polyline clip-path="url(#clip332)" style="stroke:#000000; stroke-linecap:round; stroke-linejoin:round; stroke-width:2; stroke-opacity:0.1; fill:none" points="740.737,1423.18 740.737,47.2441 "/>
<polyline clip-path="url(#clip332)" style="stroke:#000000; stroke-linecap:round; stroke-linejoin:round; stroke-width:2; stroke-opacity:0.1; fill:none" points="1226.28,1423.18 1226.28,47.2441 "/>
<polyline clip-path="url(#clip332)" style="stroke:#000000; stroke-linecap:round; stroke-linejoin:round; stroke-width:2; stroke-opacity:0.1; fill:none" points="1711.83,1423.18 1711.83,47.2441 "/>
<polyline clip-path="url(#clip332)" style="stroke:#000000; stroke-linecap:round; stroke-linejoin:round; stroke-width:2; stroke-opacity:0.1; fill:none" points="2197.38,1423.18 2197.38,47.2441 "/>
<polyline clip-path="url(#clip332)" style="stroke:#000000; stroke-linecap:round; stroke-linejoin:round; stroke-width:2; stroke-opacity:0.1; fill:none" points="294.033,1169.21 2352.76,1169.21 "/>
<polyline clip-path="url(#clip332)" style="stroke:#000000; stroke-linecap:round; stroke-linejoin:round; stroke-width:2; stroke-opacity:0.1; fill:none" points="294.033,815.233 2352.76,815.233 "/>
<polyline clip-path="url(#clip332)" style="stroke:#000000; stroke-linecap:round; stroke-linejoin:round; stroke-width:2; stroke-opacity:0.1; fill:none" points="294.033,461.254 2352.76,461.254 "/>
<polyline clip-path="url(#clip332)" style="stroke:#000000; stroke-linecap:round; stroke-linejoin:round; stroke-width:2; stroke-opacity:0.1; fill:none" points="294.033,107.276 2352.76,107.276 "/>
<polyline clip-path="url(#clip330)" style="stroke:#000000; stroke-linecap:round; stroke-linejoin:round; stroke-width:4; stroke-opacity:1; fill:none" points="294.033,1423.18 2352.76,1423.18 "/>
<polyline clip-path="url(#clip330)" style="stroke:#000000; stroke-linecap:round; stroke-linejoin:round; stroke-width:4; stroke-opacity:1; fill:none" points="740.737,1423.18 740.737,1404.28 "/>
<polyline clip-path="url(#clip330)" style="stroke:#000000; stroke-linecap:round; stroke-linejoin:round; stroke-width:4; stroke-opacity:1; fill:none" points="1226.28,1423.18 1226.28,1404.28 "/>
<polyline clip-path="url(#clip330)" style="stroke:#000000; stroke-linecap:round; stroke-linejoin:round; stroke-width:4; stroke-opacity:1; fill:none" points="1711.83,1423.18 1711.83,1404.28 "/>
<polyline clip-path="url(#clip330)" style="stroke:#000000; stroke-linecap:round; stroke-linejoin:round; stroke-width:4; stroke-opacity:1; fill:none" points="2197.38,1423.18 2197.38,1404.28 "/>
<path clip-path="url(#clip330)" d="M731.014 1451.02 L749.371 1451.02 L749.371 1454.96 L735.297 1454.96 L735.297 1463.43 Q736.315 1463.08 737.334 1462.92 Q738.352 1462.73 739.371 1462.73 Q745.158 1462.73 748.538 1465.9 Q751.917 1469.08 751.917 1474.49 Q751.917 1480.07 748.445 1483.17 Q744.973 1486.25 738.653 1486.25 Q736.477 1486.25 734.209 1485.88 Q731.964 1485.51 729.556 1484.77 L729.556 1480.07 Q731.639 1481.2 733.862 1481.76 Q736.084 1482.32 738.561 1482.32 Q742.565 1482.32 744.903 1480.21 Q747.241 1478.1 747.241 1474.49 Q747.241 1470.88 744.903 1468.77 Q742.565 1466.67 738.561 1466.67 Q736.686 1466.67 734.811 1467.08 Q732.959 1467.5 731.014 1468.38 L731.014 1451.02 Z" fill="#000000" fill-rule="nonzero" fill-opacity="1" /><path clip-path="url(#clip330)" d="M1200.97 1481.64 L1208.61 1481.64 L1208.61 1455.28 L1200.3 1456.95 L1200.3 1452.69 L1208.56 1451.02 L1213.24 1451.02 L1213.24 1481.64 L1220.88 1481.64 L1220.88 1485.58 L1200.97 1485.58 L1200.97 1481.64 Z" fill="#000000" fill-rule="nonzero" fill-opacity="1" /><path clip-path="url(#clip330)" d="M1240.32 1454.1 Q1236.71 1454.1 1234.88 1457.66 Q1233.08 1461.2 1233.08 1468.33 Q1233.08 1475.44 1234.88 1479.01 Q1236.71 1482.55 1240.32 1482.55 Q1243.96 1482.55 1245.76 1479.01 Q1247.59 1475.44 1247.59 1468.33 Q1247.59 1461.2 1245.76 1457.66 Q1243.96 1454.1 1240.32 1454.1 M1240.32 1450.39 Q1246.13 1450.39 1249.19 1455 Q1252.27 1459.58 1252.27 1468.33 Q1252.27 1477.06 1249.19 1481.67 Q1246.13 1486.25 1240.32 1486.25 Q1234.51 1486.25 1231.44 1481.67 Q1228.38 1477.06 1228.38 1468.33 Q1228.38 1459.58 1231.44 1455 Q1234.51 1450.39 1240.32 1450.39 Z" fill="#000000" fill-rule="nonzero" fill-opacity="1" /><path clip-path="url(#clip330)" d="M1687.02 1481.64 L1694.66 1481.64 L1694.66 1455.28 L1686.35 1456.95 L1686.35 1452.69 L1694.61 1451.02 L1699.29 1451.02 L1699.29 1481.64 L1706.93 1481.64 L1706.93 1485.58 L1687.02 1485.58 L1687.02 1481.64 Z" fill="#000000" fill-rule="nonzero" fill-opacity="1" /><path clip-path="url(#clip330)" d="M1716.42 1451.02 L1734.77 1451.02 L1734.77 1454.96 L1720.7 1454.96 L1720.7 1463.43 Q1721.72 1463.08 1722.74 1462.92 Q1723.75 1462.73 1724.77 1462.73 Q1730.56 1462.73 1733.94 1465.9 Q1737.32 1469.08 1737.32 1474.49 Q1737.32 1480.07 1733.85 1483.17 Q1730.37 1486.25 1724.05 1486.25 Q1721.88 1486.25 1719.61 1485.88 Q1717.36 1485.51 1714.96 1484.77 L1714.96 1480.07 Q1717.04 1481.2 1719.26 1481.76 Q1721.49 1482.32 1723.96 1482.32 Q1727.97 1482.32 1730.3 1480.21 Q1732.64 1478.1 1732.64 1474.49 Q1732.64 1470.88 1730.3 1468.77 Q1727.97 1466.67 1723.96 1466.67 Q1722.09 1466.67 1720.21 1467.08 Q1718.36 1467.5 1716.42 1468.38 L1716.42 1451.02 Z" fill="#000000" fill-rule="nonzero" fill-opacity="1" /><path clip-path="url(#clip330)" d="M2176.15 1481.64 L2192.47 1481.64 L2192.47 1485.58 L2170.53 1485.58 L2170.53 1481.64 Q2173.19 1478.89 2177.77 1474.26 Q2182.38 1469.61 2183.56 1468.27 Q2185.81 1465.74 2186.69 1464.01 Q2187.59 1462.25 2187.59 1460.56 Q2187.59 1457.8 2185.64 1456.07 Q2183.72 1454.33 2180.62 1454.33 Q2178.42 1454.33 2175.97 1455.09 Q2173.54 1455.86 2170.76 1457.41 L2170.76 1452.69 Q2173.58 1451.55 2176.04 1450.97 Q2178.49 1450.39 2180.53 1450.39 Q2185.9 1450.39 2189.09 1453.08 Q2192.29 1455.77 2192.29 1460.26 Q2192.29 1462.39 2191.48 1464.31 Q2190.69 1466.2 2188.58 1468.8 Q2188.01 1469.47 2184.9 1472.69 Q2181.8 1475.88 2176.15 1481.64 Z" fill="#000000" fill-rule="nonzero" fill-opacity="1" /><path clip-path="url(#clip330)" d="M2212.29 1454.1 Q2208.68 1454.1 2206.85 1457.66 Q2205.04 1461.2 2205.04 1468.33 Q2205.04 1475.44 2206.85 1479.01 Q2208.68 1482.55 2212.29 1482.55 Q2215.92 1482.55 2217.73 1479.01 Q2219.56 1475.44 2219.56 1468.33 Q2219.56 1461.2 2217.73 1457.66 Q2215.92 1454.1 2212.29 1454.1 M2212.29 1450.39 Q2218.1 1450.39 2221.15 1455 Q2224.23 1459.58 2224.23 1468.33 Q2224.23 1477.06 2221.15 1481.67 Q2218.1 1486.25 2212.29 1486.25 Q2206.48 1486.25 2203.4 1481.67 Q2200.34 1477.06 2200.34 1468.33 Q2200.34 1459.58 2203.4 1455 Q2206.48 1450.39 2212.29 1450.39 Z" fill="#000000" fill-rule="nonzero" fill-opacity="1" /><path clip-path="url(#clip330)" d="M1194.9 1550.25 Q1194.9 1556.71 1197.54 1560.4 Q1200.22 1564.07 1204.86 1564.07 Q1209.51 1564.07 1212.19 1560.4 Q1214.86 1556.71 1214.86 1550.25 Q1214.86 1543.79 1212.19 1540.13 Q1209.51 1536.44 1204.86 1536.44 Q1200.22 1536.44 1197.54 1540.13 Q1194.9 1543.79 1194.9 1550.25 M1214.86 1562.7 Q1213.01 1565.88 1210.18 1567.44 Q1207.38 1568.97 1203.43 1568.97 Q1196.97 1568.97 1192.9 1563.81 Q1188.86 1558.65 1188.86 1550.25 Q1188.86 1541.85 1192.9 1536.69 Q1196.97 1531.54 1203.43 1531.54 Q1207.38 1531.54 1210.18 1533.1 Q1213.01 1534.62 1214.86 1537.81 L1214.86 1532.4 L1220.72 1532.4 L1220.72 1581.6 L1214.86 1581.6 L1214.86 1562.7 Z" fill="#000000" fill-rule="nonzero" fill-opacity="1" /><path clip-path="url(#clip330)" d="M1232.17 1553.98 L1232.17 1532.4 L1238.03 1532.4 L1238.03 1553.75 Q1238.03 1558.81 1240 1561.36 Q1241.98 1563.87 1245.92 1563.87 Q1250.67 1563.87 1253.4 1560.85 Q1256.17 1557.83 1256.17 1552.61 L1256.17 1532.4 L1262.03 1532.4 L1262.03 1568.04 L1256.17 1568.04 L1256.17 1562.57 Q1254.04 1565.82 1251.21 1567.41 Q1248.41 1568.97 1244.68 1568.97 Q1238.54 1568.97 1235.36 1565.15 Q1232.17 1561.33 1232.17 1553.98 M1246.91 1531.54 L1246.91 1531.54 Z" fill="#000000" fill-rule="nonzero" fill-opacity="1" /><path clip-path="url(#clip330)" d="M1290.29 1550.12 Q1283.19 1550.12 1280.46 1551.75 Q1277.72 1553.37 1277.72 1557.29 Q1277.72 1560.4 1279.76 1562.25 Q1281.83 1564.07 1285.36 1564.07 Q1290.23 1564.07 1293.16 1560.63 Q1296.12 1557.16 1296.12 1551.43 L1296.12 1550.12 L1290.29 1550.12 M1301.97 1547.71 L1301.97 1568.04 L1296.12 1568.04 L1296.12 1562.63 Q1294.11 1565.88 1291.12 1567.44 Q1288.13 1568.97 1283.8 1568.97 Q1278.33 1568.97 1275.08 1565.91 Q1271.86 1562.82 1271.86 1557.67 Q1271.86 1551.65 1275.87 1548.6 Q1279.92 1545.54 1287.91 1545.54 L1296.12 1545.54 L1296.12 1544.97 Q1296.12 1540.93 1293.44 1538.73 Q1290.8 1536.5 1286 1536.5 Q1282.94 1536.5 1280.04 1537.23 Q1277.15 1537.97 1274.47 1539.43 L1274.47 1534.02 Q1277.69 1532.78 1280.71 1532.17 Q1283.74 1531.54 1286.6 1531.54 Q1294.33 1531.54 1298.15 1535.55 Q1301.97 1539.56 1301.97 1547.71 Z" fill="#000000" fill-rule="nonzero" fill-opacity="1" /><path clip-path="url(#clip330)" d="M1334.69 1537.87 Q1333.71 1537.3 1332.53 1537.04 Q1331.38 1536.76 1329.98 1536.76 Q1325.02 1536.76 1322.34 1540 Q1319.7 1543.22 1319.7 1549.27 L1319.7 1568.04 L1313.81 1568.04 L1313.81 1532.4 L1319.7 1532.4 L1319.7 1537.93 Q1321.55 1534.69 1324.51 1533.13 Q1327.47 1531.54 1331.7 1531.54 Q1332.31 1531.54 1333.04 1531.63 Q1333.77 1531.7 1334.66 1531.85 L1334.69 1537.87 Z" fill="#000000" fill-rule="nonzero" fill-opacity="1" /><path clip-path="url(#clip330)" d="M1346.63 1522.27 L1346.63 1532.4 L1358.69 1532.4 L1358.69 1536.95 L1346.63 1536.95 L1346.63 1556.3 Q1346.63 1560.66 1347.81 1561.9 Q1349.02 1563.14 1352.68 1563.14 L1358.69 1563.14 L1358.69 1568.04 L1352.68 1568.04 Q1345.9 1568.04 1343.32 1565.53 Q1340.74 1562.98 1340.74 1556.3 L1340.74 1536.95 L1336.44 1536.95 L1336.44 1532.4 L1340.74 1532.4 L1340.74 1522.27 L1346.63 1522.27 Z" fill="#000000" fill-rule="nonzero" fill-opacity="1" /><path clip-path="url(#clip330)" d="M1396.89 1548.76 L1396.89 1551.62 L1369.96 1551.62 Q1370.34 1557.67 1373.59 1560.85 Q1376.87 1564 1382.69 1564 Q1386.06 1564 1389.22 1563.17 Q1392.4 1562.35 1395.52 1560.69 L1395.52 1566.23 Q1392.37 1567.57 1389.06 1568.27 Q1385.75 1568.97 1382.34 1568.97 Q1373.81 1568.97 1368.81 1564 Q1363.85 1559.04 1363.85 1550.57 Q1363.85 1541.82 1368.56 1536.69 Q1373.3 1531.54 1381.32 1531.54 Q1388.52 1531.54 1392.68 1536.18 Q1396.89 1540.8 1396.89 1548.76 M1391.03 1547.04 Q1390.97 1542.23 1388.32 1539.37 Q1385.71 1536.5 1381.39 1536.5 Q1376.48 1536.5 1373.52 1539.27 Q1370.6 1542.04 1370.15 1547.07 L1391.03 1547.04 Z" fill="#000000" fill-rule="nonzero" fill-opacity="1" /><path clip-path="url(#clip330)" d="M1427.16 1537.87 Q1426.17 1537.3 1424.99 1537.04 Q1423.85 1536.76 1422.44 1536.76 Q1417.48 1536.76 1414.81 1540 Q1412.16 1543.22 1412.16 1549.27 L1412.16 1568.04 L1406.28 1568.04 L1406.28 1532.4 L1412.16 1532.4 L1412.16 1537.93 Q1414.01 1534.69 1416.97 1533.13 Q1419.93 1531.54 1424.16 1531.54 Q1424.77 1531.54 1425.5 1531.63 Q1426.23 1531.7 1427.12 1531.85 L1427.16 1537.87 Z" fill="#000000" fill-rule="nonzero" fill-opacity="1" /><path clip-path="url(#clip330)" d="M1456.02 1533.45 L1456.02 1538.98 Q1453.54 1537.71 1450.87 1537.07 Q1448.19 1536.44 1445.33 1536.44 Q1440.97 1536.44 1438.77 1537.77 Q1436.61 1539.11 1436.61 1541.79 Q1436.61 1543.82 1438.17 1545 Q1439.73 1546.15 1444.44 1547.2 L1446.44 1547.64 Q1452.68 1548.98 1455.29 1551.43 Q1457.93 1553.85 1457.93 1558.21 Q1457.93 1563.17 1453.99 1566.07 Q1450.07 1568.97 1443.2 1568.97 Q1440.33 1568.97 1437.21 1568.39 Q1434.13 1567.85 1430.69 1566.74 L1430.69 1560.69 Q1433.93 1562.38 1437.09 1563.24 Q1440.24 1564.07 1443.32 1564.07 Q1447.46 1564.07 1449.69 1562.66 Q1451.92 1561.23 1451.92 1558.65 Q1451.92 1556.27 1450.29 1554.99 Q1448.7 1553.72 1443.26 1552.54 L1441.22 1552.07 Q1435.78 1550.92 1433.36 1548.56 Q1430.94 1546.18 1430.94 1542.04 Q1430.94 1537.01 1434.51 1534.27 Q1438.07 1531.54 1444.63 1531.54 Q1447.88 1531.54 1450.74 1532.01 Q1453.6 1532.49 1456.02 1533.45 Z" fill="#000000" fill-rule="nonzero" fill-opacity="1" /><polyline clip-path="url(#clip330)" style="stroke:#000000; stroke-linecap:round; stroke-linejoin:round; stroke-width:4; stroke-opacity:1; fill:none" points="294.033,1423.18 294.033,47.2441 "/>
<polyline clip-path="url(#clip330)" style="stroke:#000000; stroke-linecap:round; stroke-linejoin:round; stroke-width:4; stroke-opacity:1; fill:none" points="294.033,1169.21 312.93,1169.21 "/>
<polyline clip-path="url(#clip330)" style="stroke:#000000; stroke-linecap:round; stroke-linejoin:round; stroke-width:4; stroke-opacity:1; fill:none" points="294.033,815.233 312.93,815.233 "/>
<polyline clip-path="url(#clip330)" style="stroke:#000000; stroke-linecap:round; stroke-linejoin:round; stroke-width:4; stroke-opacity:1; fill:none" points="294.033,461.254 312.93,461.254 "/>
<polyline clip-path="url(#clip330)" style="stroke:#000000; stroke-linecap:round; stroke-linejoin:round; stroke-width:4; stroke-opacity:1; fill:none" points="294.033,107.276 312.93,107.276 "/>
<path clip-path="url(#clip330)" d="M114.26 1151.93 L136.482 1151.93 L136.482 1153.92 L123.936 1186.49 L119.052 1186.49 L130.857 1155.87 L114.26 1155.87 L114.26 1151.93 Z" fill="#000000" fill-rule="nonzero" fill-opacity="1" /><path clip-path="url(#clip330)" d="M159.769 1167.86 Q163.126 1168.57 165.001 1170.84 Q166.899 1173.11 166.899 1176.44 Q166.899 1181.56 163.38 1184.36 Q159.862 1187.16 153.38 1187.16 Q151.204 1187.16 148.89 1186.72 Q146.598 1186.31 144.144 1185.45 L144.144 1180.94 Q146.089 1182.07 148.403 1182.65 Q150.718 1183.23 153.241 1183.23 Q157.64 1183.23 159.931 1181.49 Q162.246 1179.75 162.246 1176.44 Q162.246 1173.39 160.093 1171.68 Q157.964 1169.94 154.144 1169.94 L150.116 1169.94 L150.116 1166.1 L154.329 1166.1 Q157.778 1166.1 159.607 1164.73 Q161.436 1163.34 161.436 1160.75 Q161.436 1158.09 159.538 1156.68 Q157.663 1155.24 154.144 1155.24 Q152.223 1155.24 150.024 1155.66 Q147.825 1156.07 145.186 1156.95 L145.186 1152.79 Q147.848 1152.05 150.163 1151.68 Q152.501 1151.31 154.561 1151.31 Q159.885 1151.31 162.987 1153.74 Q166.089 1156.14 166.089 1160.26 Q166.089 1163.13 164.445 1165.13 Q162.802 1167.09 159.769 1167.86 Z" fill="#000000" fill-rule="nonzero" fill-opacity="1" /><path clip-path="url(#clip330)" d="M185.764 1155.01 Q182.153 1155.01 180.325 1158.57 Q178.519 1162.12 178.519 1169.25 Q178.519 1176.35 180.325 1179.92 Q182.153 1183.46 185.764 1183.46 Q189.399 1183.46 191.204 1179.92 Q193.033 1176.35 193.033 1169.25 Q193.033 1162.12 191.204 1158.57 Q189.399 1155.01 185.764 1155.01 M185.764 1151.31 Q191.575 1151.31 194.63 1155.91 Q197.709 1160.5 197.709 1169.25 Q197.709 1177.97 194.63 1182.58 Q191.575 1187.16 185.764 1187.16 Q179.954 1187.16 176.876 1182.58 Q173.82 1177.97 173.82 1169.25 Q173.82 1160.5 176.876 1155.91 Q179.954 1151.31 185.764 1151.31 Z" fill="#000000" fill-rule="nonzero" fill-opacity="1" /><path clip-path="url(#clip330)" d="M215.926 1155.01 Q212.315 1155.01 210.486 1158.57 Q208.681 1162.12 208.681 1169.25 Q208.681 1176.35 210.486 1179.92 Q212.315 1183.46 215.926 1183.46 Q219.561 1183.46 221.366 1179.92 Q223.195 1176.35 223.195 1169.25 Q223.195 1162.12 221.366 1158.57 Q219.561 1155.01 215.926 1155.01 M215.926 1151.31 Q221.736 1151.31 224.792 1155.91 Q227.871 1160.5 227.871 1169.25 Q227.871 1177.97 224.792 1182.58 Q221.736 1187.16 215.926 1187.16 Q210.116 1187.16 207.037 1182.58 Q203.982 1177.97 203.982 1169.25 Q203.982 1160.5 207.037 1155.91 Q210.116 1151.31 215.926 1151.31 Z" fill="#000000" fill-rule="nonzero" fill-opacity="1" /><path clip-path="url(#clip330)" d="M246.088 1155.01 Q242.477 1155.01 240.648 1158.57 Q238.843 1162.12 238.843 1169.25 Q238.843 1176.35 240.648 1179.92 Q242.477 1183.46 246.088 1183.46 Q249.722 1183.46 251.528 1179.92 Q253.357 1176.35 253.357 1169.25 Q253.357 1162.12 251.528 1158.57 Q249.722 1155.01 246.088 1155.01 M246.088 1151.31 Q251.898 1151.31 254.954 1155.91 Q258.033 1160.5 258.033 1169.25 Q258.033 1177.97 254.954 1182.58 Q251.898 1187.16 246.088 1187.16 Q240.278 1187.16 237.199 1182.58 Q234.144 1177.97 234.144 1169.25 Q234.144 1160.5 237.199 1155.91 Q240.278 1151.31 246.088 1151.31 Z" fill="#000000" fill-rule="nonzero" fill-opacity="1" /><path clip-path="url(#clip330)" d="M114.26 797.953 L136.482 797.953 L136.482 799.943 L123.936 832.513 L119.052 832.513 L130.857 801.888 L114.26 801.888 L114.26 797.953 Z" fill="#000000" fill-rule="nonzero" fill-opacity="1" /><path clip-path="url(#clip330)" d="M158.45 802.027 L146.644 820.476 L158.45 820.476 L158.45 802.027 M157.223 797.953 L163.102 797.953 L163.102 820.476 L168.033 820.476 L168.033 824.364 L163.102 824.364 L163.102 832.513 L158.45 832.513 L158.45 824.364 L142.848 824.364 L142.848 819.851 L157.223 797.953 Z" fill="#000000" fill-rule="nonzero" fill-opacity="1" /><path clip-path="url(#clip330)" d="M185.764 801.031 Q182.153 801.031 180.325 804.596 Q178.519 808.138 178.519 815.267 Q178.519 822.374 180.325 825.939 Q182.153 829.48 185.764 829.48 Q189.399 829.48 191.204 825.939 Q193.033 822.374 193.033 815.267 Q193.033 808.138 191.204 804.596 Q189.399 801.031 185.764 801.031 M185.764 797.328 Q191.575 797.328 194.63 801.934 Q197.709 806.517 197.709 815.267 Q197.709 823.994 194.63 828.601 Q191.575 833.184 185.764 833.184 Q179.954 833.184 176.876 828.601 Q173.82 823.994 173.82 815.267 Q173.82 806.517 176.876 801.934 Q179.954 797.328 185.764 797.328 Z" fill="#000000" fill-rule="nonzero" fill-opacity="1" /><path clip-path="url(#clip330)" d="M215.926 801.031 Q212.315 801.031 210.486 804.596 Q208.681 808.138 208.681 815.267 Q208.681 822.374 210.486 825.939 Q212.315 829.48 215.926 829.48 Q219.561 829.48 221.366 825.939 Q223.195 822.374 223.195 815.267 Q223.195 808.138 221.366 804.596 Q219.561 801.031 215.926 801.031 M215.926 797.328 Q221.736 797.328 224.792 801.934 Q227.871 806.517 227.871 815.267 Q227.871 823.994 224.792 828.601 Q221.736 833.184 215.926 833.184 Q210.116 833.184 207.037 828.601 Q203.982 823.994 203.982 815.267 Q203.982 806.517 207.037 801.934 Q210.116 797.328 215.926 797.328 Z" fill="#000000" fill-rule="nonzero" fill-opacity="1" /><path clip-path="url(#clip330)" d="M246.088 801.031 Q242.477 801.031 240.648 804.596 Q238.843 808.138 238.843 815.267 Q238.843 822.374 240.648 825.939 Q242.477 829.48 246.088 829.48 Q249.722 829.48 251.528 825.939 Q253.357 822.374 253.357 815.267 Q253.357 808.138 251.528 804.596 Q249.722 801.031 246.088 801.031 M246.088 797.328 Q251.898 797.328 254.954 801.934 Q258.033 806.517 258.033 815.267 Q258.033 823.994 254.954 828.601 Q251.898 833.184 246.088 833.184 Q240.278 833.184 237.199 828.601 Q234.144 823.994 234.144 815.267 Q234.144 806.517 237.199 801.934 Q240.278 797.328 246.088 797.328 Z" fill="#000000" fill-rule="nonzero" fill-opacity="1" /><path clip-path="url(#clip330)" d="M114.26 443.974 L136.482 443.974 L136.482 445.965 L123.936 478.534 L119.052 478.534 L130.857 447.909 L114.26 447.909 L114.26 443.974 Z" fill="#000000" fill-rule="nonzero" fill-opacity="1" /><path clip-path="url(#clip330)" d="M145.649 443.974 L164.005 443.974 L164.005 447.909 L149.931 447.909 L149.931 456.381 Q150.95 456.034 151.968 455.872 Q152.987 455.687 154.005 455.687 Q159.792 455.687 163.172 458.858 Q166.552 462.029 166.552 467.446 Q166.552 473.025 163.079 476.127 Q159.607 479.205 153.288 479.205 Q151.112 479.205 148.843 478.835 Q146.598 478.465 144.191 477.724 L144.191 473.025 Q146.274 474.159 148.496 474.715 Q150.718 475.27 153.195 475.27 Q157.2 475.27 159.538 473.164 Q161.876 471.057 161.876 467.446 Q161.876 463.835 159.538 461.729 Q157.2 459.622 153.195 459.622 Q151.32 459.622 149.445 460.039 Q147.593 460.455 145.649 461.335 L145.649 443.974 Z" fill="#000000" fill-rule="nonzero" fill-opacity="1" /><path clip-path="url(#clip330)" d="M185.764 447.053 Q182.153 447.053 180.325 450.618 Q178.519 454.159 178.519 461.289 Q178.519 468.395 180.325 471.96 Q182.153 475.502 185.764 475.502 Q189.399 475.502 191.204 471.96 Q193.033 468.395 193.033 461.289 Q193.033 454.159 191.204 450.618 Q189.399 447.053 185.764 447.053 M185.764 443.349 Q191.575 443.349 194.63 447.955 Q197.709 452.539 197.709 461.289 Q197.709 470.016 194.63 474.622 Q191.575 479.205 185.764 479.205 Q179.954 479.205 176.876 474.622 Q173.82 470.016 173.82 461.289 Q173.82 452.539 176.876 447.955 Q179.954 443.349 185.764 443.349 Z" fill="#000000" fill-rule="nonzero" fill-opacity="1" /><path clip-path="url(#clip330)" d="M215.926 447.053 Q212.315 447.053 210.486 450.618 Q208.681 454.159 208.681 461.289 Q208.681 468.395 210.486 471.96 Q212.315 475.502 215.926 475.502 Q219.561 475.502 221.366 471.96 Q223.195 468.395 223.195 461.289 Q223.195 454.159 221.366 450.618 Q219.561 447.053 215.926 447.053 M215.926 443.349 Q221.736 443.349 224.792 447.955 Q227.871 452.539 227.871 461.289 Q227.871 470.016 224.792 474.622 Q221.736 479.205 215.926 479.205 Q210.116 479.205 207.037 474.622 Q203.982 470.016 203.982 461.289 Q203.982 452.539 207.037 447.955 Q210.116 443.349 215.926 443.349 Z" fill="#000000" fill-rule="nonzero" fill-opacity="1" /><path clip-path="url(#clip330)" d="M246.088 447.053 Q242.477 447.053 240.648 450.618 Q238.843 454.159 238.843 461.289 Q238.843 468.395 240.648 471.96 Q242.477 475.502 246.088 475.502 Q249.722 475.502 251.528 471.96 Q253.357 468.395 253.357 461.289 Q253.357 454.159 251.528 450.618 Q249.722 447.053 246.088 447.053 M246.088 443.349 Q251.898 443.349 254.954 447.955 Q258.033 452.539 258.033 461.289 Q258.033 470.016 254.954 474.622 Q251.898 479.205 246.088 479.205 Q240.278 479.205 237.199 474.622 Q234.144 470.016 234.144 461.289 Q234.144 452.539 237.199 447.955 Q240.278 443.349 246.088 443.349 Z" fill="#000000" fill-rule="nonzero" fill-opacity="1" /><path clip-path="url(#clip330)" d="M114.26 89.9955 L136.482 89.9955 L136.482 91.9862 L123.936 124.556 L119.052 124.556 L130.857 93.9307 L114.26 93.9307 L114.26 89.9955 Z" fill="#000000" fill-rule="nonzero" fill-opacity="1" /><path clip-path="url(#clip330)" d="M156.181 105.412 Q153.033 105.412 151.181 107.565 Q149.353 109.718 149.353 113.468 Q149.353 117.194 151.181 119.37 Q153.033 121.523 156.181 121.523 Q159.329 121.523 161.158 119.37 Q163.01 117.194 163.01 113.468 Q163.01 109.718 161.158 107.565 Q159.329 105.412 156.181 105.412 M165.464 90.7594 L165.464 95.0186 Q163.704 94.1853 161.899 93.7455 Q160.116 93.3057 158.357 93.3057 Q153.728 93.3057 151.274 96.4307 Q148.843 99.5556 148.496 105.875 Q149.862 103.861 151.922 102.796 Q153.982 101.708 156.459 101.708 Q161.667 101.708 164.677 104.88 Q167.709 108.028 167.709 113.468 Q167.709 118.792 164.561 122.009 Q161.413 125.227 156.181 125.227 Q150.186 125.227 147.015 120.643 Q143.843 116.037 143.843 107.31 Q143.843 99.1158 147.732 94.2547 Q151.621 89.3705 158.172 89.3705 Q159.931 89.3705 161.714 89.7177 Q163.519 90.065 165.464 90.7594 Z" fill="#000000" fill-rule="nonzero" fill-opacity="1" /><path clip-path="url(#clip330)" d="M185.764 93.0742 Q182.153 93.0742 180.325 96.639 Q178.519 100.181 178.519 107.31 Q178.519 114.417 180.325 117.981 Q182.153 121.523 185.764 121.523 Q189.399 121.523 191.204 117.981 Q193.033 114.417 193.033 107.31 Q193.033 100.181 191.204 96.639 Q189.399 93.0742 185.764 93.0742 M185.764 89.3705 Q191.575 89.3705 194.63 93.977 Q197.709 98.5603 197.709 107.31 Q197.709 116.037 194.63 120.643 Q191.575 125.227 185.764 125.227 Q179.954 125.227 176.876 120.643 Q173.82 116.037 173.82 107.31 Q173.82 98.5603 176.876 93.977 Q179.954 89.3705 185.764 89.3705 Z" fill="#000000" fill-rule="nonzero" fill-opacity="1" /><path clip-path="url(#clip330)" d="M215.926 93.0742 Q212.315 93.0742 210.486 96.639 Q208.681 100.181 208.681 107.31 Q208.681 114.417 210.486 117.981 Q212.315 121.523 215.926 121.523 Q219.561 121.523 221.366 117.981 Q223.195 114.417 223.195 107.31 Q223.195 100.181 221.366 96.639 Q219.561 93.0742 215.926 93.0742 M215.926 89.3705 Q221.736 89.3705 224.792 93.977 Q227.871 98.5603 227.871 107.31 Q227.871 116.037 224.792 120.643 Q221.736 125.227 215.926 125.227 Q210.116 125.227 207.037 120.643 Q203.982 116.037 203.982 107.31 Q203.982 98.5603 207.037 93.977 Q210.116 89.3705 215.926 89.3705 Z" fill="#000000" fill-rule="nonzero" fill-opacity="1" /><path clip-path="url(#clip330)" d="M246.088 93.0742 Q242.477 93.0742 240.648 96.639 Q238.843 100.181 238.843 107.31 Q238.843 114.417 240.648 117.981 Q242.477 121.523 246.088 121.523 Q249.722 121.523 251.528 117.981 Q253.357 114.417 253.357 107.31 Q253.357 100.181 251.528 96.639 Q249.722 93.0742 246.088 93.0742 M246.088 89.3705 Q251.898 89.3705 254.954 93.977 Q258.033 98.5603 258.033 107.31 Q258.033 116.037 254.954 120.643 Q251.898 125.227 246.088 125.227 Q240.278 125.227 237.199 120.643 Q234.144 116.037 234.144 107.31 Q234.144 98.5603 237.199 93.977 Q240.278 89.3705 246.088 89.3705 Z" fill="#000000" fill-rule="nonzero" fill-opacity="1" /><path clip-path="url(#clip330)" d="M57.2247 767.136 L44.4614 767.136 L44.4614 777.639 L39.1779 777.639 L39.1779 760.77 L59.58 760.77 Q62.2218 764.494 63.5904 768.982 Q64.9272 773.47 64.9272 778.562 Q64.9272 789.702 58.4342 796.004 Q51.9093 802.275 40.2919 802.275 Q28.6427 802.275 22.1496 796.004 Q15.6248 789.702 15.6248 778.562 Q15.6248 773.915 16.7706 769.746 Q17.9164 765.545 20.1444 762.012 L26.9876 762.012 Q23.9639 765.576 22.4361 769.587 Q20.9083 773.597 20.9083 778.021 Q20.9083 786.742 25.7781 791.135 Q30.6479 795.495 40.2919 795.495 Q49.9041 795.495 54.7739 791.135 Q59.6436 786.742 59.6436 778.021 Q59.6436 774.616 59.0707 771.942 Q58.466 769.268 57.2247 767.136 Z" fill="#000000" fill-rule="nonzero" fill-opacity="1" /><path clip-path="url(#clip330)" d="M21.7677 742.596 L58.7206 742.596 L58.7206 734.83 Q58.7206 724.995 54.2646 720.444 Q49.8086 715.86 40.1964 715.86 Q30.6479 715.86 26.2237 720.444 Q21.7677 724.995 21.7677 734.83 L21.7677 742.596 M16.4842 749.026 L16.4842 735.817 Q16.4842 722.003 22.2451 715.542 Q27.9743 709.081 40.1964 709.081 Q52.4822 709.081 58.2432 715.574 Q64.0042 722.067 64.0042 735.817 L64.0042 749.026 L16.4842 749.026 Z" fill="#000000" fill-rule="nonzero" fill-opacity="1" /><path clip-path="url(#clip330)" d="M21.7677 692.403 L39.6235 692.403 L39.6235 684.318 Q39.6235 679.83 37.3 677.38 Q34.9765 674.929 30.6797 674.929 Q26.4147 674.929 24.0912 677.38 Q21.7677 679.83 21.7677 684.318 L21.7677 692.403 M16.4842 698.832 L16.4842 684.318 Q16.4842 676.329 20.1126 672.255 Q23.7092 668.149 30.6797 668.149 Q37.7138 668.149 41.3104 672.255 Q44.907 676.329 44.907 684.318 L44.907 692.403 L64.0042 692.403 L64.0042 698.832 L16.4842 698.832 Z" fill="#000000" fill-rule="nonzero" fill-opacity="1" /><path clip-path="url(#clip332)" d="M352.298 1373.81 L449.408 1384.24 L546.517 1362.51 L643.627 1307.5 L740.737 1269.36 L837.846 1183.35 L934.956 1201.5 L1032.07 1147.77 L1129.18 1084.82 L1226.28 1007.02 L1323.39 922.319 L1420.5 844.79 L1517.61 850.22 L1614.72 813.065 L1711.83 717.398 L1808.94 624.415 L1906.05 542.644 L2003.16 539.44 L2100.27 575.674 L2197.38 553.068 L2294.49 535.553 L2294.49 177.014 L2197.38 201.038 L2100.27 239.867 L2003.16 248.783 L1906.05 250.332 L1808.94 240.661 L1711.83 310.84 L1614.72 357.415 L1517.61 391.391 L1420.5 471.028 L1323.39 574.259 L1226.28 721.878 L1129.18 846.79 L1032.07 998.585 L934.956 1084.85 L837.846 1108.22 L740.737 1184.75 L643.627 1262.99 L546.517 1308.24 L449.408 1377.67 L352.298 1373.81  Z" fill="#009af9" fill-rule="evenodd" fill-opacity="0.1"/>
<polyline clip-path="url(#clip332)" style="stroke:#009af9; stroke-linecap:round; stroke-linejoin:round; stroke-width:4; stroke-opacity:1; fill:none" points="352.298,1373.81 449.408,1380.95 546.517,1335.38 643.627,1285.25 740.737,1227.06 837.846,1145.78 934.956,1143.18 1032.07,1073.18 1129.18,965.804 1226.28,864.451 1323.39,748.289 1420.5,657.909 1517.61,620.805 1614.72,585.24 1711.83,514.119 1808.94,432.538 1906.05,396.488 2003.16,394.111 2100.27,407.77 2197.38,377.053 2294.49,356.284 "/>
<path clip-path="url(#clip332)" d="M352.298 1373.81 L449.408 1378.84 L546.517 1368.29 L643.627 1352.37 L740.737 1320.82 L837.846 1307.36 L934.956 1285.76 L1032.07 1287.33 L1129.18 1209.23 L1226.28 1168.65 L1323.39 1079.82 L1420.5 980.099 L1517.61 960.368 L1614.72 952.599 L1711.83 871.984 L1808.94 771.604 L1906.05 711.83 L2003.16 637.762 L2100.27 577.907 L2197.38 508.806 L2294.49 458.202 L2294.49 86.1857 L2197.38 179.267 L2100.27 266.147 L2003.16 294.544 L1906.05 325.194 L1808.94 391.246 L1711.83 528.49 L1614.72 617.447 L1517.61 741.511 L1420.5 809.554 L1323.39 891.248 L1226.28 959.802 L1129.18 1025.58 L1032.07 1103.62 L934.956 1152.52 L837.846 1187.13 L740.737 1221.08 L643.627 1263.25 L546.517 1319.98 L449.408 1375.35 L352.298 1373.81  Z" fill="#e26f46" fill-rule="evenodd" fill-opacity="0.1"/>
<polyline clip-path="url(#clip332)" style="stroke:#e26f46; stroke-linecap:round; stroke-linejoin:round; stroke-width:4; stroke-opacity:1; fill:none" points="352.298,1373.81 449.408,1377.09 546.517,1344.14 643.627,1307.81 740.737,1270.95 837.846,1247.25 934.956,1219.14 1032.07,1195.48 1129.18,1117.41 1226.28,1064.23 1323.39,985.535 1420.5,894.827 1517.61,850.94 1614.72,785.023 1711.83,700.237 1808.94,581.425 1906.05,518.512 2003.16,466.153 2100.27,422.027 2197.38,344.036 2294.49,272.194 "/>
<path clip-path="url(#clip330)" d="M362.657 248.629 L760.264 248.629 L760.264 93.1086 L362.657 93.1086  Z" fill="#ffffff" fill-rule="evenodd" fill-opacity="1"/>
<polyline clip-path="url(#clip330)" style="stroke:#000000; stroke-linecap:round; stroke-linejoin:round; stroke-width:4; stroke-opacity:1; fill:none" points="362.657,248.629 760.264,248.629 760.264,93.1086 362.657,93.1086 362.657,248.629 "/>
<polyline clip-path="url(#clip330)" style="stroke:#009af9; stroke-linecap:round; stroke-linejoin:round; stroke-width:4; stroke-opacity:1; fill:none" points="385.531,144.949 522.78,144.949 "/>
<path clip-path="url(#clip330)" d="M564.427 149.289 Q564.427 144.59 562.483 141.928 Q560.562 139.243 557.182 139.243 Q553.802 139.243 551.858 141.928 Q549.937 144.59 549.937 149.289 Q549.937 153.988 551.858 156.673 Q553.802 159.335 557.182 159.335 Q560.562 159.335 562.483 156.673 Q564.427 153.988 564.427 149.289 M549.937 140.238 Q551.279 137.923 553.316 136.812 Q555.376 135.678 558.224 135.678 Q562.946 135.678 565.886 139.428 Q568.849 143.178 568.849 149.289 Q568.849 155.4 565.886 159.15 Q562.946 162.9 558.224 162.9 Q555.376 162.9 553.316 161.789 Q551.279 160.655 549.937 158.34 L549.937 162.229 L545.654 162.229 L545.654 126.21 L549.937 126.21 L549.937 140.238 Z" fill="#000000" fill-rule="nonzero" fill-opacity="1" /><path clip-path="url(#clip330)" d="M587.691 149.196 Q582.529 149.196 580.538 150.377 Q578.548 151.557 578.548 154.405 Q578.548 156.673 580.029 158.016 Q581.534 159.335 584.103 159.335 Q587.645 159.335 589.774 156.835 Q591.927 154.312 591.927 150.145 L591.927 149.196 L587.691 149.196 M596.186 147.437 L596.186 162.229 L591.927 162.229 L591.927 158.293 Q590.469 160.655 588.293 161.789 Q586.117 162.9 582.969 162.9 Q578.987 162.9 576.626 160.678 Q574.288 158.432 574.288 154.682 Q574.288 150.307 577.205 148.085 Q580.145 145.863 585.955 145.863 L591.927 145.863 L591.927 145.446 Q591.927 142.507 589.983 140.909 Q588.061 139.289 584.566 139.289 Q582.344 139.289 580.237 139.821 Q578.131 140.354 576.187 141.419 L576.187 137.483 Q578.524 136.581 580.724 136.141 Q582.923 135.678 585.006 135.678 Q590.631 135.678 593.409 138.594 Q596.186 141.511 596.186 147.437 Z" fill="#000000" fill-rule="nonzero" fill-opacity="1" /><path clip-path="url(#clip330)" d="M621.487 137.067 L621.487 141.094 Q619.682 140.169 617.737 139.706 Q615.793 139.243 613.709 139.243 Q610.538 139.243 608.941 140.215 Q607.367 141.187 607.367 143.131 Q607.367 144.613 608.501 145.469 Q609.635 146.303 613.061 147.067 L614.52 147.391 Q619.057 148.363 620.955 150.145 Q622.876 151.905 622.876 155.076 Q622.876 158.687 620.006 160.793 Q617.159 162.9 612.159 162.9 Q610.075 162.9 607.807 162.483 Q605.561 162.09 603.061 161.28 L603.061 156.881 Q605.422 158.108 607.714 158.733 Q610.006 159.335 612.251 159.335 Q615.26 159.335 616.881 158.317 Q618.501 157.275 618.501 155.4 Q618.501 153.664 617.321 152.738 Q616.163 151.812 612.205 150.956 L610.723 150.608 Q606.765 149.775 605.006 148.062 Q603.247 146.326 603.247 143.317 Q603.247 139.659 605.839 137.669 Q608.432 135.678 613.2 135.678 Q615.561 135.678 617.645 136.025 Q619.728 136.372 621.487 137.067 Z" fill="#000000" fill-rule="nonzero" fill-opacity="1" /><path clip-path="url(#clip330)" d="M651.834 148.201 L651.834 150.284 L632.251 150.284 Q632.529 154.682 634.89 156.997 Q637.274 159.289 641.51 159.289 Q643.964 159.289 646.256 158.687 Q648.57 158.085 650.839 156.881 L650.839 160.909 Q648.547 161.881 646.14 162.391 Q643.732 162.9 641.256 162.9 Q635.052 162.9 631.418 159.289 Q627.807 155.678 627.807 149.52 Q627.807 143.155 631.233 139.428 Q634.682 135.678 640.515 135.678 Q645.746 135.678 648.779 139.057 Q651.834 142.414 651.834 148.201 M647.575 146.951 Q647.529 143.456 645.607 141.372 Q643.709 139.289 640.561 139.289 Q636.996 139.289 634.844 141.303 Q632.714 143.317 632.39 146.974 L647.575 146.951 Z" fill="#000000" fill-rule="nonzero" fill-opacity="1" /><path clip-path="url(#clip330)" d="M658.825 126.21 L663.084 126.21 L663.084 162.229 L658.825 162.229 L658.825 126.21 Z" fill="#000000" fill-rule="nonzero" fill-opacity="1" /><path clip-path="url(#clip330)" d="M671.996 136.303 L676.255 136.303 L676.255 162.229 L671.996 162.229 L671.996 136.303 M671.996 126.21 L676.255 126.21 L676.255 131.604 L671.996 131.604 L671.996 126.21 Z" fill="#000000" fill-rule="nonzero" fill-opacity="1" /><path clip-path="url(#clip330)" d="M706.718 146.581 L706.718 162.229 L702.459 162.229 L702.459 146.719 Q702.459 143.039 701.024 141.21 Q699.589 139.382 696.718 139.382 Q693.269 139.382 691.279 141.581 Q689.288 143.78 689.288 147.576 L689.288 162.229 L685.005 162.229 L685.005 136.303 L689.288 136.303 L689.288 140.331 Q690.816 137.993 692.876 136.835 Q694.959 135.678 697.667 135.678 Q702.135 135.678 704.427 138.456 Q706.718 141.21 706.718 146.581 Z" fill="#000000" fill-rule="nonzero" fill-opacity="1" /><path clip-path="url(#clip330)" d="M737.389 148.201 L737.389 150.284 L717.806 150.284 Q718.084 154.682 720.445 156.997 Q722.829 159.289 727.065 159.289 Q729.519 159.289 731.811 158.687 Q734.125 158.085 736.394 156.881 L736.394 160.909 Q734.102 161.881 731.695 162.391 Q729.288 162.9 726.811 162.9 Q720.607 162.9 716.973 159.289 Q713.362 155.678 713.362 149.52 Q713.362 143.155 716.788 139.428 Q720.237 135.678 726.07 135.678 Q731.301 135.678 734.334 139.057 Q737.389 142.414 737.389 148.201 M733.13 146.951 Q733.084 143.456 731.163 141.372 Q729.264 139.289 726.116 139.289 Q722.551 139.289 720.399 141.303 Q718.269 143.317 717.945 146.974 L733.13 146.951 Z" fill="#000000" fill-rule="nonzero" fill-opacity="1" /><polyline clip-path="url(#clip330)" style="stroke:#e26f46; stroke-linecap:round; stroke-linejoin:round; stroke-width:4; stroke-opacity:1; fill:none" points="385.531,196.789 522.78,196.789 "/>
<path clip-path="url(#clip330)" d="M564.08 188.907 L564.08 192.934 Q562.275 192.009 560.33 191.546 Q558.386 191.083 556.302 191.083 Q553.131 191.083 551.534 192.055 Q549.96 193.027 549.96 194.971 Q549.96 196.453 551.094 197.309 Q552.228 198.143 555.654 198.907 L557.113 199.231 Q561.65 200.203 563.548 201.985 Q565.469 203.745 565.469 206.916 Q565.469 210.527 562.599 212.633 Q559.751 214.74 554.751 214.74 Q552.668 214.74 550.4 214.323 Q548.154 213.93 545.654 213.12 L545.654 208.721 Q548.015 209.948 550.307 210.573 Q552.599 211.175 554.844 211.175 Q557.853 211.175 559.474 210.157 Q561.094 209.115 561.094 207.24 Q561.094 205.504 559.913 204.578 Q558.756 203.652 554.798 202.796 L553.316 202.448 Q549.358 201.615 547.599 199.902 Q545.839 198.166 545.839 195.157 Q545.839 191.499 548.432 189.509 Q551.025 187.518 555.793 187.518 Q558.154 187.518 560.238 187.865 Q562.321 188.212 564.08 188.907 Z" fill="#000000" fill-rule="nonzero" fill-opacity="1" /><path clip-path="url(#clip330)" d="M593.802 198.421 L593.802 214.069 L589.543 214.069 L589.543 198.559 Q589.543 194.879 588.108 193.05 Q586.673 191.222 583.802 191.222 Q580.353 191.222 578.362 193.421 Q576.372 195.62 576.372 199.416 L576.372 214.069 L572.089 214.069 L572.089 178.05 L576.372 178.05 L576.372 192.171 Q577.899 189.833 579.96 188.675 Q582.043 187.518 584.751 187.518 Q589.219 187.518 591.511 190.296 Q593.802 193.05 593.802 198.421 Z" fill="#000000" fill-rule="nonzero" fill-opacity="1" /><path clip-path="url(#clip330)" d="M612.344 191.129 Q608.918 191.129 606.927 193.814 Q604.936 196.476 604.936 201.129 Q604.936 205.782 606.904 208.467 Q608.895 211.129 612.344 211.129 Q615.746 211.129 617.737 208.444 Q619.728 205.758 619.728 201.129 Q619.728 196.522 617.737 193.837 Q615.746 191.129 612.344 191.129 M612.344 187.518 Q617.899 187.518 621.071 191.129 Q624.242 194.74 624.242 201.129 Q624.242 207.495 621.071 211.129 Q617.899 214.74 612.344 214.74 Q606.765 214.74 603.594 211.129 Q600.446 207.495 600.446 201.129 Q600.446 194.74 603.594 191.129 Q606.765 187.518 612.344 187.518 Z" fill="#000000" fill-rule="nonzero" fill-opacity="1" /><path clip-path="url(#clip330)" d="M649.959 189.138 L649.959 193.12 Q648.154 192.124 646.325 191.638 Q644.519 191.129 642.668 191.129 Q638.524 191.129 636.232 193.768 Q633.941 196.384 633.941 201.129 Q633.941 205.874 636.232 208.513 Q638.524 211.129 642.668 211.129 Q644.519 211.129 646.325 210.643 Q648.154 210.133 649.959 209.138 L649.959 213.073 Q648.177 213.907 646.256 214.323 Q644.357 214.74 642.205 214.74 Q636.348 214.74 632.899 211.059 Q629.45 207.379 629.45 201.129 Q629.45 194.786 632.922 191.152 Q636.418 187.518 642.482 187.518 Q644.45 187.518 646.325 187.935 Q648.2 188.328 649.959 189.138 Z" fill="#000000" fill-rule="nonzero" fill-opacity="1" /><path clip-path="url(#clip330)" d="M657.205 178.05 L661.487 178.05 L661.487 199.323 L674.195 188.143 L679.635 188.143 L665.885 200.272 L680.214 214.069 L674.658 214.069 L661.487 201.407 L661.487 214.069 L657.205 214.069 L657.205 178.05 Z" fill="#000000" fill-rule="nonzero" fill-opacity="1" /></svg>
