<?xml version="1.0" encoding="utf-8"?>
<svg xmlns="http://www.w3.org/2000/svg" xmlns:xlink="http://www.w3.org/1999/xlink" width="600" height="400" viewBox="0 0 2400 1600">
<defs>
  <clipPath id="clip840">
    <rect x="0" y="0" width="2400" height="1600"/>
  </clipPath>
</defs>
<path clip-path="url(#clip840)" d="M0 1600 L2400 1600 L2400 0 L0 0  Z" fill="#ffffff" fill-rule="evenodd" fill-opacity="1"/>
<defs>
  <clipPath id="clip841">
    <rect x="480" y="0" width="1681" height="1600"/>
  </clipPath>
</defs>
<path clip-path="url(#clip840)" d="M278.107 1423.18 L2352.76 1423.18 L2352.76 47.2441 L278.107 47.2441  Z" fill="#ffffff" fill-rule="evenodd" fill-opacity="1"/>
<defs>
  <clipPath id="clip842">
    <rect x="278" y="47" width="2076" height="1377"/>
  </clipPath>
</defs>
<polyline clip-path="url(#clip842)" style="stroke:#000000; stroke-linecap:round; stroke-linejoin:round; stroke-width:2; stroke-opacity:0.1; fill:none" points="581.475,1423.18 581.475,47.2441 "/>
<polyline clip-path="url(#clip842)" style="stroke:#000000; stroke-linecap:round; stroke-linejoin:round; stroke-width:2; stroke-opacity:0.1; fill:none" points="948.453,1423.18 948.453,47.2441 "/>
<polyline clip-path="url(#clip842)" style="stroke:#000000; stroke-linecap:round; stroke-linejoin:round; stroke-width:2; stroke-opacity:0.1; fill:none" points="1315.43,1423.18 1315.43,47.2441 "/>
<polyline clip-path="url(#clip842)" style="stroke:#000000; stroke-linecap:round; stroke-linejoin:round; stroke-width:2; stroke-opacity:0.1; fill:none" points="1682.41,1423.18 1682.41,47.2441 "/>
<polyline clip-path="url(#clip842)" style="stroke:#000000; stroke-linecap:round; stroke-linejoin:round; stroke-width:2; stroke-opacity:0.1; fill:none" points="2049.39,1423.18 2049.39,47.2441 "/>
<polyline clip-path="url(#clip842)" style="stroke:#000000; stroke-linecap:round; stroke-linejoin:round; stroke-width:2; stroke-opacity:0.1; fill:none" points="278.107,1236.83 2352.76,1236.83 "/>
<polyline clip-path="url(#clip842)" style="stroke:#000000; stroke-linecap:round; stroke-linejoin:round; stroke-width:2; stroke-opacity:0.1; fill:none" points="278.107,896.396 2352.76,896.396 "/>
<polyline clip-path="url(#clip842)" style="stroke:#000000; stroke-linecap:round; stroke-linejoin:round; stroke-width:2; stroke-opacity:0.1; fill:none" points="278.107,555.964 2352.76,555.964 "/>
<polyline clip-path="url(#clip842)" style="stroke:#000000; stroke-linecap:round; stroke-linejoin:round; stroke-width:2; stroke-opacity:0.1; fill:none" points="278.107,215.533 2352.76,215.533 "/>
<polyline clip-path="url(#clip840)" style="stroke:#000000; stroke-linecap:round; stroke-linejoin:round; stroke-width:4; stroke-opacity:1; fill:none" points="278.107,1423.18 2352.76,1423.18 "/>
<polyline clip-path="url(#clip840)" style="stroke:#000000; stroke-linecap:round; stroke-linejoin:round; stroke-width:4; stroke-opacity:1; fill:none" points="581.475,1423.18 581.475,1404.28 "/>
<polyline clip-path="url(#clip840)" style="stroke:#000000; stroke-linecap:round; stroke-linejoin:round; stroke-width:4; stroke-opacity:1; fill:none" points="948.453,1423.18 948.453,1404.28 "/>
<polyline clip-path="url(#clip840)" style="stroke:#000000; stroke-linecap:round; stroke-linejoin:round; stroke-width:4; stroke-opacity:1; fill:none" points="1315.43,1423.18 1315.43,1404.28 "/>
<polyline clip-path="url(#clip840)" style="stroke:#000000; stroke-linecap:round; stroke-linejoin:round; stroke-width:4; stroke-opacity:1; fill:none" points="1682.41,1423.18 1682.41,1404.28 "/>
<polyline clip-path="url(#clip840)" style="stroke:#000000; stroke-linecap:round; stroke-linejoin:round; stroke-width:4; stroke-opacity:1; fill:none" points="2049.39,1423.18 2049.39,1404.28 "/>
<path clip-path="url(#clip840)" d="M585.723 1466.95 Q589.079 1467.66 590.954 1469.93 Q592.852 1472.2 592.852 1475.53 Q592.852 1480.65 589.334 1483.45 Q585.815 1486.25 579.334 1486.25 Q577.158 1486.25 574.843 1485.81 Q572.552 1485.39 570.098 1484.54 L570.098 1480.02 Q572.042 1481.16 574.357 1481.74 Q576.672 1482.32 579.195 1482.32 Q583.593 1482.32 585.885 1480.58 Q588.2 1478.84 588.2 1475.53 Q588.2 1472.48 586.047 1470.77 Q583.917 1469.03 580.098 1469.03 L576.07 1469.03 L576.07 1465.19 L580.283 1465.19 Q583.732 1465.19 585.561 1463.82 Q587.39 1462.43 587.39 1459.84 Q587.39 1457.18 585.491 1455.77 Q583.616 1454.33 580.098 1454.33 Q578.177 1454.33 575.978 1454.75 Q573.778 1455.16 571.14 1456.04 L571.14 1451.88 Q573.802 1451.14 576.116 1450.77 Q578.454 1450.39 580.515 1450.39 Q585.839 1450.39 588.94 1452.83 Q592.042 1455.23 592.042 1459.35 Q592.042 1462.22 590.399 1464.21 Q588.755 1466.18 585.723 1466.95 Z" fill="#000000" fill-rule="nonzero" fill-opacity="1" /><path clip-path="url(#clip840)" d="M948.858 1466.44 Q945.71 1466.44 943.858 1468.59 Q942.03 1470.74 942.03 1474.49 Q942.03 1478.22 943.858 1480.39 Q945.71 1482.55 948.858 1482.55 Q952.006 1482.55 953.835 1480.39 Q955.687 1478.22 955.687 1474.49 Q955.687 1470.74 953.835 1468.59 Q952.006 1466.44 948.858 1466.44 M958.141 1451.78 L958.141 1456.04 Q956.381 1455.21 954.576 1454.77 Q952.794 1454.33 951.034 1454.33 Q946.405 1454.33 943.951 1457.45 Q941.52 1460.58 941.173 1466.9 Q942.539 1464.89 944.599 1463.82 Q946.659 1462.73 949.136 1462.73 Q954.344 1462.73 957.354 1465.9 Q960.386 1469.05 960.386 1474.49 Q960.386 1479.82 957.238 1483.03 Q954.09 1486.25 948.858 1486.25 Q942.863 1486.25 939.692 1481.67 Q936.52 1477.06 936.52 1468.33 Q936.52 1460.14 940.409 1455.28 Q944.298 1450.39 950.849 1450.39 Q952.608 1450.39 954.391 1450.74 Q956.196 1451.09 958.141 1451.78 Z" fill="#000000" fill-rule="nonzero" fill-opacity="1" /><path clip-path="url(#clip840)" d="M1305.73 1484.86 L1305.73 1480.6 Q1307.49 1481.44 1309.3 1481.88 Q1311.1 1482.32 1312.84 1482.32 Q1317.47 1482.32 1319.9 1479.21 Q1322.35 1476.09 1322.7 1469.75 Q1321.36 1471.74 1319.3 1472.8 Q1317.24 1473.87 1314.74 1473.87 Q1309.55 1473.87 1306.52 1470.74 Q1303.51 1467.59 1303.51 1462.15 Q1303.51 1456.83 1306.66 1453.61 Q1309.81 1450.39 1315.04 1450.39 Q1321.03 1450.39 1324.18 1455 Q1327.35 1459.58 1327.35 1468.33 Q1327.35 1476.51 1323.46 1481.39 Q1319.6 1486.25 1313.05 1486.25 Q1311.29 1486.25 1309.48 1485.9 Q1307.68 1485.56 1305.73 1484.86 M1315.04 1470.21 Q1318.19 1470.21 1320.01 1468.06 Q1321.87 1465.9 1321.87 1462.15 Q1321.87 1458.43 1320.01 1456.27 Q1318.19 1454.1 1315.04 1454.1 Q1311.89 1454.1 1310.04 1456.27 Q1308.21 1458.43 1308.21 1462.15 Q1308.21 1465.9 1310.04 1468.06 Q1311.89 1470.21 1315.04 1470.21 Z" fill="#000000" fill-rule="nonzero" fill-opacity="1" /><path clip-path="url(#clip840)" d="M1657.9 1481.64 L1665.53 1481.64 L1665.53 1455.28 L1657.22 1456.95 L1657.22 1452.69 L1665.49 1451.02 L1670.16 1451.02 L1670.16 1481.64 L1677.8 1481.64 L1677.8 1485.58 L1657.9 1485.58 L1657.9 1481.64 Z" fill="#000000" fill-rule="nonzero" fill-opacity="1" /><path clip-path="url(#clip840)" d="M1691.28 1481.64 L1707.59 1481.64 L1707.59 1485.58 L1685.65 1485.58 L1685.65 1481.64 Q1688.31 1478.89 1692.9 1474.26 Q1697.5 1469.61 1698.68 1468.27 Q1700.93 1465.74 1701.81 1464.01 Q1702.71 1462.25 1702.71 1460.56 Q1702.71 1457.8 1700.77 1456.07 Q1698.84 1454.33 1695.74 1454.33 Q1693.54 1454.33 1691.09 1455.09 Q1688.66 1455.86 1685.88 1457.41 L1685.88 1452.69 Q1688.71 1451.55 1691.16 1450.97 Q1693.61 1450.39 1695.65 1450.39 Q1701.02 1450.39 1704.21 1453.08 Q1707.41 1455.77 1707.41 1460.26 Q1707.41 1462.39 1706.6 1464.31 Q1705.81 1466.2 1703.71 1468.8 Q1703.13 1469.47 1700.02 1472.69 Q1696.92 1475.88 1691.28 1481.64 Z" fill="#000000" fill-rule="nonzero" fill-opacity="1" /><path clip-path="url(#clip840)" d="M2024.57 1481.64 L2032.21 1481.64 L2032.21 1455.28 L2023.9 1456.95 L2023.9 1452.69 L2032.17 1451.02 L2036.84 1451.02 L2036.84 1481.64 L2044.48 1481.64 L2044.48 1485.58 L2024.57 1485.58 L2024.57 1481.64 Z" fill="#000000" fill-rule="nonzero" fill-opacity="1" /><path clip-path="url(#clip840)" d="M2053.97 1451.02 L2072.33 1451.02 L2072.33 1454.96 L2058.25 1454.96 L2058.25 1463.43 Q2059.27 1463.08 2060.29 1462.92 Q2061.31 1462.73 2062.33 1462.73 Q2068.11 1462.73 2071.49 1465.9 Q2074.87 1469.08 2074.87 1474.49 Q2074.87 1480.07 2071.4 1483.17 Q2067.93 1486.25 2061.61 1486.25 Q2059.43 1486.25 2057.17 1485.88 Q2054.92 1485.51 2052.51 1484.77 L2052.51 1480.07 Q2054.6 1481.2 2056.82 1481.76 Q2059.04 1482.32 2061.52 1482.32 Q2065.52 1482.32 2067.86 1480.21 Q2070.2 1478.1 2070.2 1474.49 Q2070.2 1470.88 2067.86 1468.77 Q2065.52 1466.67 2061.52 1466.67 Q2059.64 1466.67 2057.77 1467.08 Q2055.92 1467.5 2053.97 1468.38 L2053.97 1451.02 Z" fill="#000000" fill-rule="nonzero" fill-opacity="1" /><path clip-path="url(#clip840)" d="M1186.94 1550.25 Q1186.94 1556.71 1189.58 1560.4 Q1192.25 1564.07 1196.9 1564.07 Q1201.55 1564.07 1204.22 1560.4 Q1206.9 1556.71 1206.9 1550.25 Q1206.9 1543.79 1204.22 1540.13 Q1201.55 1536.44 1196.9 1536.44 Q1192.25 1536.44 1189.58 1540.13 Q1186.94 1543.79 1186.94 1550.25 M1206.9 1562.7 Q1205.05 1565.88 1202.22 1567.44 Q1199.42 1568.97 1195.47 1568.97 Q1189.01 1568.97 1184.93 1563.81 Q1180.89 1558.65 1180.89 1550.25 Q1180.89 1541.85 1184.93 1536.69 Q1189.01 1531.54 1195.47 1531.54 Q1199.42 1531.54 1202.22 1533.1 Q1205.05 1534.62 1206.9 1537.81 L1206.9 1532.4 L1212.75 1532.4 L1212.75 1581.6 L1206.9 1581.6 L1206.9 1562.7 Z" fill="#000000" fill-rule="nonzero" fill-opacity="1" /><path clip-path="url(#clip840)" d="M1224.21 1553.98 L1224.21 1532.4 L1230.07 1532.4 L1230.07 1553.75 Q1230.07 1558.81 1232.04 1561.36 Q1234.01 1563.87 1237.96 1563.87 Q1242.7 1563.87 1245.44 1560.85 Q1248.21 1557.83 1248.21 1552.61 L1248.21 1532.4 L1254.07 1532.4 L1254.07 1568.04 L1248.21 1568.04 L1248.21 1562.57 Q1246.08 1565.82 1243.24 1567.41 Q1240.44 1568.97 1236.72 1568.97 Q1230.58 1568.97 1227.39 1565.15 Q1224.21 1561.33 1224.21 1553.98 M1238.95 1531.54 L1238.95 1531.54 Z" fill="#000000" fill-rule="nonzero" fill-opacity="1" /><path clip-path="url(#clip840)" d="M1282.33 1550.12 Q1275.23 1550.12 1272.49 1551.75 Q1269.76 1553.37 1269.76 1557.29 Q1269.76 1560.4 1271.79 1562.25 Q1273.86 1564.07 1277.4 1564.07 Q1282.27 1564.07 1285.19 1560.63 Q1288.15 1557.16 1288.15 1551.43 L1288.15 1550.12 L1282.33 1550.12 M1294.01 1547.71 L1294.01 1568.04 L1288.15 1568.04 L1288.15 1562.63 Q1286.15 1565.88 1283.16 1567.44 Q1280.17 1568.97 1275.84 1568.97 Q1270.36 1568.97 1267.12 1565.91 Q1263.9 1562.82 1263.9 1557.67 Q1263.9 1551.65 1267.91 1548.6 Q1271.95 1545.54 1279.94 1545.54 L1288.15 1545.54 L1288.15 1544.97 Q1288.15 1540.93 1285.48 1538.73 Q1282.84 1536.5 1278.03 1536.5 Q1274.98 1536.5 1272.08 1537.23 Q1269.18 1537.97 1266.51 1539.43 L1266.51 1534.02 Q1269.73 1532.78 1272.75 1532.17 Q1275.77 1531.54 1278.64 1531.54 Q1286.37 1531.54 1290.19 1535.55 Q1294.01 1539.56 1294.01 1547.71 Z" fill="#000000" fill-rule="nonzero" fill-opacity="1" /><path clip-path="url(#clip840)" d="M1326.73 1537.87 Q1325.74 1537.3 1324.57 1537.04 Q1323.42 1536.76 1322.02 1536.76 Q1317.05 1536.76 1314.38 1540 Q1311.74 1543.22 1311.74 1549.27 L1311.74 1568.04 L1305.85 1568.04 L1305.85 1532.4 L1311.74 1532.4 L1311.74 1537.93 Q1313.59 1534.69 1316.55 1533.13 Q1319.51 1531.54 1323.74 1531.54 Q1324.34 1531.54 1325.08 1531.63 Q1325.81 1531.7 1326.7 1531.85 L1326.73 1537.87 Z" fill="#000000" fill-rule="nonzero" fill-opacity="1" /><path clip-path="url(#clip840)" d="M1338.67 1522.27 L1338.67 1532.4 L1350.73 1532.4 L1350.73 1536.95 L1338.67 1536.95 L1338.67 1556.3 Q1338.67 1560.66 1339.84 1561.9 Q1341.05 1563.14 1344.71 1563.14 L1350.73 1563.14 L1350.73 1568.04 L1344.71 1568.04 Q1337.93 1568.04 1335.36 1565.53 Q1332.78 1562.98 1332.78 1556.3 L1332.78 1536.95 L1328.48 1536.95 L1328.48 1532.4 L1332.78 1532.4 L1332.78 1522.27 L1338.67 1522.27 Z" fill="#000000" fill-rule="nonzero" fill-opacity="1" /><path clip-path="url(#clip840)" d="M1388.92 1548.76 L1388.92 1551.62 L1362 1551.62 Q1362.38 1557.67 1365.62 1560.85 Q1368.9 1564 1374.73 1564 Q1378.1 1564 1381.25 1563.17 Q1384.44 1562.35 1387.55 1560.69 L1387.55 1566.23 Q1384.4 1567.57 1381.09 1568.27 Q1377.78 1568.97 1374.38 1568.97 Q1365.85 1568.97 1360.85 1564 Q1355.89 1559.04 1355.89 1550.57 Q1355.89 1541.82 1360.6 1536.69 Q1365.34 1531.54 1373.36 1531.54 Q1380.55 1531.54 1384.72 1536.18 Q1388.92 1540.8 1388.92 1548.76 M1383.07 1547.04 Q1383 1542.23 1380.36 1539.37 Q1377.75 1536.5 1373.42 1536.5 Q1368.52 1536.5 1365.56 1539.27 Q1362.63 1542.04 1362.19 1547.07 L1383.07 1547.04 Z" fill="#000000" fill-rule="nonzero" fill-opacity="1" /><path clip-path="url(#clip840)" d="M1419.19 1537.87 Q1418.21 1537.3 1417.03 1537.04 Q1415.88 1536.76 1414.48 1536.76 Q1409.52 1536.76 1406.84 1540 Q1404.2 1543.22 1404.2 1549.27 L1404.2 1568.04 L1398.31 1568.04 L1398.31 1532.4 L1404.2 1532.4 L1404.2 1537.93 Q1406.05 1534.69 1409.01 1533.13 Q1411.97 1531.54 1416.2 1531.54 Q1416.81 1531.54 1417.54 1531.63 Q1418.27 1531.7 1419.16 1531.85 L1419.19 1537.87 Z" fill="#000000" fill-rule="nonzero" fill-opacity="1" /><path clip-path="url(#clip840)" d="M1448.06 1533.45 L1448.06 1538.98 Q1445.58 1537.71 1442.9 1537.07 Q1440.23 1536.44 1437.37 1536.44 Q1433.01 1536.44 1430.81 1537.77 Q1428.65 1539.11 1428.65 1541.79 Q1428.65 1543.82 1430.2 1545 Q1431.76 1546.15 1436.48 1547.2 L1438.48 1547.64 Q1444.72 1548.98 1447.33 1551.43 Q1449.97 1553.85 1449.97 1558.21 Q1449.97 1563.17 1446.02 1566.07 Q1442.11 1568.97 1435.23 1568.97 Q1432.37 1568.97 1429.25 1568.39 Q1426.16 1567.85 1422.73 1566.74 L1422.73 1560.69 Q1425.97 1562.38 1429.12 1563.24 Q1432.27 1564.07 1435.36 1564.07 Q1439.5 1564.07 1441.73 1562.66 Q1443.95 1561.23 1443.95 1558.65 Q1443.95 1556.27 1442.33 1554.99 Q1440.74 1553.72 1435.3 1552.54 L1433.26 1552.07 Q1427.82 1550.92 1425.4 1548.56 Q1422.98 1546.18 1422.98 1542.04 Q1422.98 1537.01 1426.54 1534.27 Q1430.11 1531.54 1436.67 1531.54 Q1439.91 1531.54 1442.78 1532.01 Q1445.64 1532.49 1448.06 1533.45 Z" fill="#000000" fill-rule="nonzero" fill-opacity="1" /><polyline clip-path="url(#clip840)" style="stroke:#000000; stroke-linecap:round; stroke-linejoin:round; stroke-width:4; stroke-opacity:1; fill:none" points="278.107,1423.18 278.107,47.2441 "/>
<polyline clip-path="url(#clip840)" style="stroke:#000000; stroke-linecap:round; stroke-linejoin:round; stroke-width:4; stroke-opacity:1; fill:none" points="278.107,1236.83 297.004,1236.83 "/>
<polyline clip-path="url(#clip840)" style="stroke:#000000; stroke-linecap:round; stroke-linejoin:round; stroke-width:4; stroke-opacity:1; fill:none" points="278.107,896.396 297.004,896.396 "/>
<polyline clip-path="url(#clip840)" style="stroke:#000000; stroke-linecap:round; stroke-linejoin:round; stroke-width:4; stroke-opacity:1; fill:none" points="278.107,555.964 297.004,555.964 "/>
<polyline clip-path="url(#clip840)" style="stroke:#000000; stroke-linecap:round; stroke-linejoin:round; stroke-width:4; stroke-opacity:1; fill:none" points="278.107,215.533 297.004,215.533 "/>
<path clip-path="url(#clip840)" d="M115.418 1250.17 L123.056 1250.17 L123.056 1223.81 L114.746 1225.47 L114.746 1221.21 L123.01 1219.55 L127.686 1219.55 L127.686 1250.17 L135.325 1250.17 L135.325 1254.11 L115.418 1254.11 L115.418 1250.17 Z" fill="#000000" fill-rule="nonzero" fill-opacity="1" /><path clip-path="url(#clip840)" d="M144.769 1248.23 L149.653 1248.23 L149.653 1254.11 L144.769 1254.11 L144.769 1248.23 Z" fill="#000000" fill-rule="nonzero" fill-opacity="1" /><path clip-path="url(#clip840)" d="M169.839 1222.63 Q166.227 1222.63 164.399 1226.19 Q162.593 1229.73 162.593 1236.86 Q162.593 1243.97 164.399 1247.53 Q166.227 1251.08 169.839 1251.08 Q173.473 1251.08 175.278 1247.53 Q177.107 1243.97 177.107 1236.86 Q177.107 1229.73 175.278 1226.19 Q173.473 1222.63 169.839 1222.63 M169.839 1218.92 Q175.649 1218.92 178.704 1223.53 Q181.783 1228.11 181.783 1236.86 Q181.783 1245.59 178.704 1250.2 Q175.649 1254.78 169.839 1254.78 Q164.028 1254.78 160.95 1250.2 Q157.894 1245.59 157.894 1236.86 Q157.894 1228.11 160.95 1223.53 Q164.028 1218.92 169.839 1218.92 Z" fill="#000000" fill-rule="nonzero" fill-opacity="1" /><path clip-path="url(#clip840)" d="M200 1222.63 Q196.389 1222.63 194.561 1226.19 Q192.755 1229.73 192.755 1236.86 Q192.755 1243.97 194.561 1247.53 Q196.389 1251.08 200 1251.08 Q203.635 1251.08 205.44 1247.53 Q207.269 1243.97 207.269 1236.86 Q207.269 1229.73 205.44 1226.19 Q203.635 1222.63 200 1222.63 M200 1218.92 Q205.811 1218.92 208.866 1223.53 Q211.945 1228.11 211.945 1236.86 Q211.945 1245.59 208.866 1250.2 Q205.811 1254.78 200 1254.78 Q194.19 1254.78 191.112 1250.2 Q188.056 1245.59 188.056 1236.86 Q188.056 1228.11 191.112 1223.53 Q194.19 1218.92 200 1218.92 Z" fill="#000000" fill-rule="nonzero" fill-opacity="1" /><path clip-path="url(#clip840)" d="M230.162 1222.63 Q226.551 1222.63 224.723 1226.19 Q222.917 1229.73 222.917 1236.86 Q222.917 1243.97 224.723 1247.53 Q226.551 1251.08 230.162 1251.08 Q233.797 1251.08 235.602 1247.53 Q237.431 1243.97 237.431 1236.86 Q237.431 1229.73 235.602 1226.19 Q233.797 1222.63 230.162 1222.63 M230.162 1218.92 Q235.972 1218.92 239.028 1223.53 Q242.107 1228.11 242.107 1236.86 Q242.107 1245.59 239.028 1250.2 Q235.972 1254.78 230.162 1254.78 Q224.352 1254.78 221.273 1250.2 Q218.218 1245.59 218.218 1236.86 Q218.218 1228.11 221.273 1223.53 Q224.352 1218.92 230.162 1218.92 Z" fill="#000000" fill-rule="nonzero" fill-opacity="1" /><path clip-path="url(#clip840)" d="M117.015 909.741 L124.654 909.741 L124.654 883.375 L116.343 885.042 L116.343 880.783 L124.607 879.116 L129.283 879.116 L129.283 909.741 L136.922 909.741 L136.922 913.676 L117.015 913.676 L117.015 909.741 Z" fill="#000000" fill-rule="nonzero" fill-opacity="1" /><path clip-path="url(#clip840)" d="M146.366 907.796 L151.251 907.796 L151.251 913.676 L146.366 913.676 L146.366 907.796 Z" fill="#000000" fill-rule="nonzero" fill-opacity="1" /><path clip-path="url(#clip840)" d="M171.436 882.195 Q167.825 882.195 165.996 885.759 Q164.19 889.301 164.19 896.431 Q164.19 903.537 165.996 907.102 Q167.825 910.644 171.436 910.644 Q175.07 910.644 176.876 907.102 Q178.704 903.537 178.704 896.431 Q178.704 889.301 176.876 885.759 Q175.07 882.195 171.436 882.195 M171.436 878.491 Q177.246 878.491 180.301 883.097 Q183.38 887.681 183.38 896.431 Q183.38 905.157 180.301 909.764 Q177.246 914.347 171.436 914.347 Q165.626 914.347 162.547 909.764 Q159.491 905.157 159.491 896.431 Q159.491 887.681 162.547 883.097 Q165.626 878.491 171.436 878.491 Z" fill="#000000" fill-rule="nonzero" fill-opacity="1" /><path clip-path="url(#clip840)" d="M201.598 882.195 Q197.987 882.195 196.158 885.759 Q194.352 889.301 194.352 896.431 Q194.352 903.537 196.158 907.102 Q197.987 910.644 201.598 910.644 Q205.232 910.644 207.037 907.102 Q208.866 903.537 208.866 896.431 Q208.866 889.301 207.037 885.759 Q205.232 882.195 201.598 882.195 M201.598 878.491 Q207.408 878.491 210.463 883.097 Q213.542 887.681 213.542 896.431 Q213.542 905.157 210.463 909.764 Q207.408 914.347 201.598 914.347 Q195.787 914.347 192.709 909.764 Q189.653 905.157 189.653 896.431 Q189.653 887.681 192.709 883.097 Q195.787 878.491 201.598 878.491 Z" fill="#000000" fill-rule="nonzero" fill-opacity="1" /><path clip-path="url(#clip840)" d="M225.787 909.741 L242.107 909.741 L242.107 913.676 L220.162 913.676 L220.162 909.741 Q222.824 906.986 227.408 902.357 Q232.014 897.704 233.195 896.361 Q235.44 893.838 236.32 892.102 Q237.222 890.343 237.222 888.653 Q237.222 885.898 235.278 884.162 Q233.357 882.426 230.255 882.426 Q228.056 882.426 225.602 883.19 Q223.172 883.954 220.394 885.505 L220.394 880.783 Q223.218 879.648 225.672 879.07 Q228.125 878.491 230.162 878.491 Q235.533 878.491 238.727 881.176 Q241.922 883.861 241.922 888.352 Q241.922 890.482 241.111 892.403 Q240.324 894.301 238.218 896.894 Q237.639 897.565 234.537 900.782 Q231.435 903.977 225.787 909.741 Z" fill="#000000" fill-rule="nonzero" fill-opacity="1" /><path clip-path="url(#clip840)" d="M114.931 569.309 L122.57 569.309 L122.57 542.944 L114.26 544.61 L114.26 540.351 L122.524 538.684 L127.2 538.684 L127.2 569.309 L134.839 569.309 L134.839 573.244 L114.931 573.244 L114.931 569.309 Z" fill="#000000" fill-rule="nonzero" fill-opacity="1" /><path clip-path="url(#clip840)" d="M144.283 567.365 L149.167 567.365 L149.167 573.244 L144.283 573.244 L144.283 567.365 Z" fill="#000000" fill-rule="nonzero" fill-opacity="1" /><path clip-path="url(#clip840)" d="M169.352 541.763 Q165.741 541.763 163.913 545.328 Q162.107 548.869 162.107 555.999 Q162.107 563.105 163.913 566.67 Q165.741 570.212 169.352 570.212 Q172.987 570.212 174.792 566.67 Q176.621 563.105 176.621 555.999 Q176.621 548.869 174.792 545.328 Q172.987 541.763 169.352 541.763 M169.352 538.059 Q175.163 538.059 178.218 542.666 Q181.297 547.249 181.297 555.999 Q181.297 564.726 178.218 569.332 Q175.163 573.916 169.352 573.916 Q163.542 573.916 160.464 569.332 Q157.408 564.726 157.408 555.999 Q157.408 547.249 160.464 542.666 Q163.542 538.059 169.352 538.059 Z" fill="#000000" fill-rule="nonzero" fill-opacity="1" /><path clip-path="url(#clip840)" d="M199.514 541.763 Q195.903 541.763 194.075 545.328 Q192.269 548.869 192.269 555.999 Q192.269 563.105 194.075 566.67 Q195.903 570.212 199.514 570.212 Q203.149 570.212 204.954 566.67 Q206.783 563.105 206.783 555.999 Q206.783 548.869 204.954 545.328 Q203.149 541.763 199.514 541.763 M199.514 538.059 Q205.324 538.059 208.38 542.666 Q211.459 547.249 211.459 555.999 Q211.459 564.726 208.38 569.332 Q205.324 573.916 199.514 573.916 Q193.704 573.916 190.625 569.332 Q187.57 564.726 187.57 555.999 Q187.57 547.249 190.625 542.666 Q193.704 538.059 199.514 538.059 Z" fill="#000000" fill-rule="nonzero" fill-opacity="1" /><path clip-path="url(#clip840)" d="M232.523 542.758 L220.718 561.207 L232.523 561.207 L232.523 542.758 M231.297 538.684 L237.176 538.684 L237.176 561.207 L242.107 561.207 L242.107 565.096 L237.176 565.096 L237.176 573.244 L232.523 573.244 L232.523 565.096 L216.922 565.096 L216.922 560.582 L231.297 538.684 Z" fill="#000000" fill-rule="nonzero" fill-opacity="1" /><path clip-path="url(#clip840)" d="M115.256 228.878 L122.894 228.878 L122.894 202.512 L114.584 204.179 L114.584 199.919 L122.848 198.253 L127.524 198.253 L127.524 228.878 L135.163 228.878 L135.163 232.813 L115.256 232.813 L115.256 228.878 Z" fill="#000000" fill-rule="nonzero" fill-opacity="1" /><path clip-path="url(#clip840)" d="M144.607 226.933 L149.491 226.933 L149.491 232.813 L144.607 232.813 L144.607 226.933 Z" fill="#000000" fill-rule="nonzero" fill-opacity="1" /><path clip-path="url(#clip840)" d="M169.677 201.331 Q166.065 201.331 164.237 204.896 Q162.431 208.438 162.431 215.567 Q162.431 222.674 164.237 226.239 Q166.065 229.78 169.677 229.78 Q173.311 229.78 175.116 226.239 Q176.945 222.674 176.945 215.567 Q176.945 208.438 175.116 204.896 Q173.311 201.331 169.677 201.331 M169.677 197.628 Q175.487 197.628 178.542 202.234 Q181.621 206.817 181.621 215.567 Q181.621 224.294 178.542 228.901 Q175.487 233.484 169.677 233.484 Q163.866 233.484 160.788 228.901 Q157.732 224.294 157.732 215.567 Q157.732 206.817 160.788 202.234 Q163.866 197.628 169.677 197.628 Z" fill="#000000" fill-rule="nonzero" fill-opacity="1" /><path clip-path="url(#clip840)" d="M199.838 201.331 Q196.227 201.331 194.399 204.896 Q192.593 208.438 192.593 215.567 Q192.593 222.674 194.399 226.239 Q196.227 229.78 199.838 229.78 Q203.473 229.78 205.278 226.239 Q207.107 222.674 207.107 215.567 Q207.107 208.438 205.278 204.896 Q203.473 201.331 199.838 201.331 M199.838 197.628 Q205.649 197.628 208.704 202.234 Q211.783 206.817 211.783 215.567 Q211.783 224.294 208.704 228.901 Q205.649 233.484 199.838 233.484 Q194.028 233.484 190.95 228.901 Q187.894 224.294 187.894 215.567 Q187.894 206.817 190.95 202.234 Q194.028 197.628 199.838 197.628 Z" fill="#000000" fill-rule="nonzero" fill-opacity="1" /><path clip-path="url(#clip840)" d="M230.579 213.669 Q227.431 213.669 225.579 215.822 Q223.75 217.975 223.75 221.725 Q223.75 225.452 225.579 227.628 Q227.431 229.78 230.579 229.78 Q233.727 229.78 235.556 227.628 Q237.408 225.452 237.408 221.725 Q237.408 217.975 235.556 215.822 Q233.727 213.669 230.579 213.669 M239.861 199.017 L239.861 203.276 Q238.102 202.442 236.297 202.003 Q234.514 201.563 232.755 201.563 Q228.125 201.563 225.672 204.688 Q223.241 207.813 222.894 214.132 Q224.26 212.118 226.32 211.054 Q228.38 209.966 230.857 209.966 Q236.065 209.966 239.074 213.137 Q242.107 216.285 242.107 221.725 Q242.107 227.049 238.959 230.266 Q235.81 233.484 230.579 233.484 Q224.584 233.484 221.412 228.901 Q218.241 224.294 218.241 215.567 Q218.241 207.373 222.13 202.512 Q226.019 197.628 232.57 197.628 Q234.329 197.628 236.111 197.975 Q237.917 198.322 239.861 199.017 Z" fill="#000000" fill-rule="nonzero" fill-opacity="1" /><path clip-path="url(#clip840)" d="M57.2247 896.821 L44.4614 896.821 L44.4614 907.325 L39.1779 907.325 L39.1779 890.456 L59.58 890.456 Q62.2218 894.18 63.5904 898.667 Q64.9272 903.155 64.9272 908.248 Q64.9272 919.388 58.4342 925.69 Q51.9093 931.96 40.2919 931.96 Q28.6427 931.96 22.1496 925.69 Q15.6248 919.388 15.6248 908.248 Q15.6248 903.601 16.7706 899.431 Q17.9164 895.23 20.1444 891.697 L26.9876 891.697 Q23.9639 895.262 22.4361 899.272 Q20.9083 903.283 20.9083 907.707 Q20.9083 916.428 25.7781 920.82 Q30.6479 925.181 40.2919 925.181 Q49.9041 925.181 54.7739 920.82 Q59.6436 916.428 59.6436 907.707 Q59.6436 904.301 59.0707 901.627 Q58.466 898.954 57.2247 896.821 Z" fill="#000000" fill-rule="nonzero" fill-opacity="1" /><path clip-path="url(#clip840)" d="M21.7677 872.282 L58.7206 872.282 L58.7206 864.515 Q58.7206 854.68 54.2646 850.129 Q49.8086 845.546 40.1964 845.546 Q30.6479 845.546 26.2237 850.129 Q21.7677 854.68 21.7677 864.515 L21.7677 872.282 M16.4842 878.711 L16.4842 865.502 Q16.4842 851.688 22.2451 845.227 Q27.9743 838.766 40.1964 838.766 Q52.4822 838.766 58.2432 845.259 Q64.0042 851.752 64.0042 865.502 L64.0042 878.711 L16.4842 878.711 Z" fill="#000000" fill-rule="nonzero" fill-opacity="1" /><path clip-path="url(#clip840)" d="M21.7677 822.088 L39.6235 822.088 L39.6235 814.004 Q39.6235 809.516 37.3 807.065 Q34.9765 804.614 30.6797 804.614 Q26.4147 804.614 24.0912 807.065 Q21.7677 809.516 21.7677 814.004 L21.7677 822.088 M16.4842 828.517 L16.4842 814.004 Q16.4842 806.015 20.1126 801.94 Q23.7092 797.835 30.6797 797.835 Q37.7138 797.835 41.3104 801.94 Q44.907 806.015 44.907 814.004 L44.907 822.088 L64.0042 822.088 L64.0042 828.517 L16.4842 828.517 Z" fill="#000000" fill-rule="nonzero" fill-opacity="1" /><path clip-path="url(#clip840)" d="M29.7248 743.09 L35.1993 743.09 Q33.8307 745.572 33.1623 748.087 Q32.4621 750.569 32.4621 753.116 Q32.4621 758.813 36.0905 761.964 Q39.6872 765.115 46.212 765.115 Q52.7369 765.115 56.3653 761.964 Q59.9619 758.813 59.9619 753.116 Q59.9619 750.569 59.2935 748.087 Q58.5933 745.572 57.2247 743.09 L62.6355 743.09 Q63.7814 745.54 64.3543 748.182 Q64.9272 750.792 64.9272 753.752 Q64.9272 761.805 59.8664 766.547 Q54.8057 771.29 46.212 771.29 Q37.491 771.29 32.4939 766.515 Q27.4968 761.709 27.4968 753.37 Q27.4968 750.665 28.0697 748.087 Q28.6108 745.508 29.7248 743.09 Z" fill="#000000" fill-rule="nonzero" fill-opacity="1" /><path clip-path="url(#clip840)" d="M42.4881 703.272 L64.0042 703.272 L64.0042 709.128 L42.679 709.128 Q37.6183 709.128 35.1038 711.102 Q32.5894 713.075 32.5894 717.022 Q32.5894 721.764 35.6131 724.502 Q38.6368 727.239 43.8567 727.239 L64.0042 727.239 L64.0042 733.127 L14.479 733.127 L14.479 727.239 L33.8944 727.239 Q30.6797 725.138 29.0883 722.305 Q27.4968 719.441 27.4968 715.717 Q27.4968 709.574 31.3163 706.423 Q35.1038 703.272 42.4881 703.272 Z" fill="#000000" fill-rule="nonzero" fill-opacity="1" /><path clip-path="url(#clip840)" d="M46.0847 675.39 Q46.0847 682.488 47.7079 685.225 Q49.3312 687.963 53.2461 687.963 Q56.3653 687.963 58.2114 685.925 Q60.0256 683.857 60.0256 680.324 Q60.0256 675.454 56.5881 672.526 Q53.1188 669.566 47.3897 669.566 L46.0847 669.566 L46.0847 675.39 M43.6657 663.709 L64.0042 663.709 L64.0042 669.566 L58.5933 669.566 Q61.8398 671.571 63.3994 674.563 Q64.9272 677.555 64.9272 681.883 Q64.9272 687.358 61.8716 690.604 Q58.7843 693.819 53.6281 693.819 Q47.6125 693.819 44.5569 689.809 Q41.5014 685.766 41.5014 677.777 L41.5014 669.566 L40.9285 669.566 Q36.8862 669.566 34.6901 672.239 Q32.4621 674.881 32.4621 679.687 Q32.4621 682.743 33.1941 685.639 Q33.9262 688.535 35.3903 691.209 L29.9795 691.209 Q28.7381 687.994 28.1334 684.971 Q27.4968 681.947 27.4968 679.082 Q27.4968 671.348 31.5072 667.529 Q35.5176 663.709 43.6657 663.709 Z" fill="#000000" fill-rule="nonzero" fill-opacity="1" /><path clip-path="url(#clip840)" d="M42.4881 622.014 L64.0042 622.014 L64.0042 627.87 L42.679 627.87 Q37.6183 627.87 35.1038 629.844 Q32.5894 631.817 32.5894 635.764 Q32.5894 640.506 35.6131 643.243 Q38.6368 645.981 43.8567 645.981 L64.0042 645.981 L64.0042 651.869 L28.3562 651.869 L28.3562 645.981 L33.8944 645.981 Q30.6797 643.88 29.0883 641.047 Q27.4968 638.183 27.4968 634.459 Q27.4968 628.316 31.3163 625.165 Q35.1038 622.014 42.4881 622.014 Z" fill="#000000" fill-rule="nonzero" fill-opacity="1" /><path clip-path="url(#clip840)" d="M45.7664 586.875 Q39.4007 586.875 35.8996 589.517 Q32.3984 592.127 32.3984 596.869 Q32.3984 601.58 35.8996 604.222 Q39.4007 606.832 45.7664 606.832 Q52.1003 606.832 55.6014 604.222 Q59.1026 601.58 59.1026 596.869 Q59.1026 592.127 55.6014 589.517 Q52.1003 586.875 45.7664 586.875 M59.58 581.019 Q68.683 581.019 73.1071 585.061 Q77.5631 589.103 77.5631 597.442 Q77.5631 600.53 77.0857 603.267 Q76.6401 606.004 75.6852 608.582 L69.9879 608.582 Q71.3884 606.004 72.0568 603.49 Q72.7252 600.975 72.7252 598.365 Q72.7252 592.604 69.7015 589.74 Q66.7096 586.875 60.6303 586.875 L57.7339 586.875 Q60.885 588.689 62.4446 591.522 Q64.0042 594.355 64.0042 598.302 Q64.0042 604.858 59.0071 608.869 Q54.01 612.879 45.7664 612.879 Q37.491 612.879 32.4939 608.869 Q27.4968 604.858 27.4968 598.302 Q27.4968 594.355 29.0564 591.522 Q30.616 588.689 33.7671 586.875 L28.3562 586.875 L28.3562 581.019 L59.58 581.019 Z" fill="#000000" fill-rule="nonzero" fill-opacity="1" /><path clip-path="url(#clip840)" d="M44.7161 538.464 L47.5806 538.464 L47.5806 565.391 Q53.6281 565.009 56.8109 561.762 Q59.9619 558.484 59.9619 552.659 Q59.9619 549.286 59.1344 546.135 Q58.3069 542.952 56.6518 539.833 L62.1899 539.833 Q63.5267 542.984 64.227 546.294 Q64.9272 549.604 64.9272 553.01 Q64.9272 561.54 59.9619 566.537 Q54.9967 571.502 46.5303 571.502 Q37.7774 571.502 32.6531 566.791 Q27.4968 562.049 27.4968 554.028 Q27.4968 546.835 32.1438 542.665 Q36.7589 538.464 44.7161 538.464 M42.9973 544.32 Q38.1912 544.384 35.3266 547.026 Q32.4621 549.636 32.4621 553.964 Q32.4621 558.866 35.2312 561.826 Q38.0002 564.754 43.0292 565.2 L42.9973 544.32 Z" fill="#000000" fill-rule="nonzero" fill-opacity="1" /><path clip-path="url(#clip842)" d="M336.823 1236.83 L459.149 1153.13 L581.475 315.627 L703.801 1324.92 L826.127 1094.52 L948.453 1295.47 L1070.78 1345.25 L1193.11 1359.41 L1315.43 1359.48 L1437.76 1384.24 L1560.08 1348.53 L1682.41 1330.64 L1804.74 1240.33 L1927.06 1238.08 L2049.39 1200.23 L2171.71 1285.21 L2294.04 1313.03 L2294.04 964.788 L2171.71 941 L2049.39 875.433 L1927.06 915.464 L1804.74 949.196 L1682.41 1052.76 L1560.08 1064.16 L1437.76 1103.26 L1315.43 1081.28 L1193.11 1096.31 L1070.78 1089.7 L948.453 1048.23 L826.127 864.507 L703.801 1011.73 L581.475 86.1857 L459.149 1143.05 L336.823 1236.83  Z" fill="#009af9" fill-rule="evenodd" fill-opacity="0.2"/>
<polyline clip-path="url(#clip842)" style="stroke:#009af9; stroke-linecap:round; stroke-linejoin:round; stroke-width:4; stroke-opacity:1; fill:none" points="336.823,1236.83 459.149,1148.09 581.475,200.906 703.801,1168.32 826.127,979.515 948.453,1171.85 1070.78,1217.48 1193.11,1227.86 1315.43,1220.38 1437.76,1243.75 1560.08,1206.34 1682.41,1191.7 1804.74,1094.76 1927.06,1076.77 2049.39,1037.83 2171.71,1113.11 2294.04,1138.91 "/>
</svg>
