<?xml version="1.0" encoding="utf-8"?>
<svg xmlns="http://www.w3.org/2000/svg" xmlns:xlink="http://www.w3.org/1999/xlink" width="600" height="400" viewBox="0 0 2400 1600">
<defs>
  <clipPath id="clip150">
    <rect x="0" y="0" width="2400" height="1600"/>
  </clipPath>
</defs>
<path clip-path="url(#clip150)" d="M0 1600 L2400 1600 L2400 0 L0 0  Z" fill="#ffffff" fill-rule="evenodd" fill-opacity="1"/>
<defs>
  <clipPath id="clip151">
    <rect x="202" y="47" width="2152" height="1440"/>
  </clipPath>
</defs>
<path clip-path="url(#clip150)" d="M202.177 1486.45 L2352.76 1486.45 L2352.76 47.2441 L202.177 47.2441  Z" fill="#ffffff" fill-rule="evenodd" fill-opacity="1"/>
<polyline clip-path="url(#clip151)" style="stroke:#000000; stroke-linecap:round; stroke-linejoin:round; stroke-width:2; stroke-opacity:0.1; fill:none" points="668.812,1486.45 668.812,47.2441 "/>
<polyline clip-path="url(#clip151)" style="stroke:#000000; stroke-linecap:round; stroke-linejoin:round; stroke-width:2; stroke-opacity:0.1; fill:none" points="1176.02,1486.45 1176.02,47.2441 "/>
<polyline clip-path="url(#clip151)" style="stroke:#000000; stroke-linecap:round; stroke-linejoin:round; stroke-width:2; stroke-opacity:0.1; fill:none" points="1683.24,1486.45 1683.24,47.2441 "/>
<polyline clip-path="url(#clip151)" style="stroke:#000000; stroke-linecap:round; stroke-linejoin:round; stroke-width:2; stroke-opacity:0.1; fill:none" points="2190.45,1486.45 2190.45,47.2441 "/>
<polyline clip-path="url(#clip151)" style="stroke:#000000; stroke-linecap:round; stroke-linejoin:round; stroke-width:2; stroke-opacity:0.1; fill:none" points="202.177,1262.53 2352.76,1262.53 "/>
<polyline clip-path="url(#clip151)" style="stroke:#000000; stroke-linecap:round; stroke-linejoin:round; stroke-width:2; stroke-opacity:0.1; fill:none" points="202.177,993.136 2352.76,993.136 "/>
<polyline clip-path="url(#clip151)" style="stroke:#000000; stroke-linecap:round; stroke-linejoin:round; stroke-width:2; stroke-opacity:0.1; fill:none" points="202.177,723.743 2352.76,723.743 "/>
<polyline clip-path="url(#clip151)" style="stroke:#000000; stroke-linecap:round; stroke-linejoin:round; stroke-width:2; stroke-opacity:0.1; fill:none" points="202.177,454.35 2352.76,454.35 "/>
<polyline clip-path="url(#clip151)" style="stroke:#000000; stroke-linecap:round; stroke-linejoin:round; stroke-width:2; stroke-opacity:0.1; fill:none" points="202.177,184.958 2352.76,184.958 "/>
<polyline clip-path="url(#clip150)" style="stroke:#000000; stroke-linecap:round; stroke-linejoin:round; stroke-width:4; stroke-opacity:1; fill:none" points="202.177,1486.45 2352.76,1486.45 "/>
<polyline clip-path="url(#clip150)" style="stroke:#000000; stroke-linecap:round; stroke-linejoin:round; stroke-width:4; stroke-opacity:1; fill:none" points="668.812,1486.45 668.812,1467.55 "/>
<polyline clip-path="url(#clip150)" style="stroke:#000000; stroke-linecap:round; stroke-linejoin:round; stroke-width:4; stroke-opacity:1; fill:none" points="1176.02,1486.45 1176.02,1467.55 "/>
<polyline clip-path="url(#clip150)" style="stroke:#000000; stroke-linecap:round; stroke-linejoin:round; stroke-width:4; stroke-opacity:1; fill:none" points="1683.24,1486.45 1683.24,1467.55 "/>
<polyline clip-path="url(#clip150)" style="stroke:#000000; stroke-linecap:round; stroke-linejoin:round; stroke-width:4; stroke-opacity:1; fill:none" points="2190.45,1486.45 2190.45,1467.55 "/>
<path clip-path="url(#clip150)" d="M659.09 1514.29 L677.446 1514.29 L677.446 1518.22 L663.372 1518.22 L663.372 1526.7 Q664.391 1526.35 665.409 1526.19 Q666.428 1526 667.446 1526 Q673.233 1526 676.613 1529.17 Q679.992 1532.34 679.992 1537.76 Q679.992 1543.34 676.52 1546.44 Q673.048 1549.52 666.728 1549.52 Q664.553 1549.52 662.284 1549.15 Q660.039 1548.78 657.631 1548.04 L657.631 1543.34 Q659.715 1544.47 661.937 1545.03 Q664.159 1545.58 666.636 1545.58 Q670.64 1545.58 672.978 1543.48 Q675.316 1541.37 675.316 1537.76 Q675.316 1534.15 672.978 1532.04 Q670.64 1529.94 666.636 1529.94 Q664.761 1529.94 662.886 1530.35 Q661.034 1530.77 659.09 1531.65 L659.09 1514.29 Z" fill="#000000" fill-rule="nonzero" fill-opacity="1" /><path clip-path="url(#clip150)" d="M1150.71 1544.91 L1158.35 1544.91 L1158.35 1518.55 L1150.04 1520.21 L1150.04 1515.95 L1158.3 1514.29 L1162.98 1514.29 L1162.98 1544.91 L1170.62 1544.91 L1170.62 1548.85 L1150.71 1548.85 L1150.71 1544.91 Z" fill="#000000" fill-rule="nonzero" fill-opacity="1" /><path clip-path="url(#clip150)" d="M1190.06 1517.37 Q1186.45 1517.37 1184.62 1520.93 Q1182.82 1524.47 1182.82 1531.6 Q1182.82 1538.71 1184.62 1542.27 Q1186.45 1545.82 1190.06 1545.82 Q1193.7 1545.82 1195.5 1542.27 Q1197.33 1538.71 1197.33 1531.6 Q1197.33 1524.47 1195.5 1520.93 Q1193.7 1517.37 1190.06 1517.37 M1190.06 1513.66 Q1195.87 1513.66 1198.93 1518.27 Q1202.01 1522.85 1202.01 1531.6 Q1202.01 1540.33 1198.93 1544.94 Q1195.87 1549.52 1190.06 1549.52 Q1184.25 1549.52 1181.17 1544.94 Q1178.12 1540.33 1178.12 1531.6 Q1178.12 1522.85 1181.17 1518.27 Q1184.25 1513.66 1190.06 1513.66 Z" fill="#000000" fill-rule="nonzero" fill-opacity="1" /><path clip-path="url(#clip150)" d="M1658.42 1544.91 L1666.06 1544.91 L1666.06 1518.55 L1657.75 1520.21 L1657.75 1515.95 L1666.01 1514.29 L1670.69 1514.29 L1670.69 1544.91 L1678.33 1544.91 L1678.33 1548.85 L1658.42 1548.85 L1658.42 1544.91 Z" fill="#000000" fill-rule="nonzero" fill-opacity="1" /><path clip-path="url(#clip150)" d="M1687.82 1514.29 L1706.18 1514.29 L1706.18 1518.22 L1692.1 1518.22 L1692.1 1526.7 Q1693.12 1526.35 1694.14 1526.19 Q1695.16 1526 1696.18 1526 Q1701.96 1526 1705.34 1529.17 Q1708.72 1532.34 1708.72 1537.76 Q1708.72 1543.34 1705.25 1546.44 Q1701.78 1549.52 1695.46 1549.52 Q1693.28 1549.52 1691.01 1549.15 Q1688.77 1548.78 1686.36 1548.04 L1686.36 1543.34 Q1688.44 1544.47 1690.67 1545.03 Q1692.89 1545.58 1695.37 1545.58 Q1699.37 1545.58 1701.71 1543.48 Q1704.05 1541.37 1704.05 1537.76 Q1704.05 1534.15 1701.71 1532.04 Q1699.37 1529.94 1695.37 1529.94 Q1693.49 1529.94 1691.62 1530.35 Q1689.76 1530.77 1687.82 1531.65 L1687.82 1514.29 Z" fill="#000000" fill-rule="nonzero" fill-opacity="1" /><path clip-path="url(#clip150)" d="M2169.22 1544.91 L2185.54 1544.91 L2185.54 1548.85 L2163.6 1548.85 L2163.6 1544.91 Q2166.26 1542.16 2170.84 1537.53 Q2175.45 1532.88 2176.63 1531.53 Q2178.87 1529.01 2179.75 1527.27 Q2180.66 1525.51 2180.66 1523.82 Q2180.66 1521.07 2178.71 1519.33 Q2176.79 1517.6 2173.69 1517.6 Q2171.49 1517.6 2169.04 1518.36 Q2166.61 1519.13 2163.83 1520.68 L2163.83 1515.95 Q2166.65 1514.82 2169.11 1514.24 Q2171.56 1513.66 2173.6 1513.66 Q2178.97 1513.66 2182.16 1516.35 Q2185.36 1519.03 2185.36 1523.52 Q2185.36 1525.65 2184.55 1527.57 Q2183.76 1529.47 2181.65 1532.07 Q2181.07 1532.74 2177.97 1535.95 Q2174.87 1539.15 2169.22 1544.91 Z" fill="#000000" fill-rule="nonzero" fill-opacity="1" /><path clip-path="url(#clip150)" d="M2205.36 1517.37 Q2201.74 1517.37 2199.92 1520.93 Q2198.11 1524.47 2198.11 1531.6 Q2198.11 1538.71 2199.92 1542.27 Q2201.74 1545.82 2205.36 1545.82 Q2208.99 1545.82 2210.8 1542.27 Q2212.62 1538.71 2212.62 1531.6 Q2212.62 1524.47 2210.8 1520.93 Q2208.99 1517.37 2205.36 1517.37 M2205.36 1513.66 Q2211.17 1513.66 2214.22 1518.27 Q2217.3 1522.85 2217.3 1531.6 Q2217.3 1540.33 2214.22 1544.94 Q2211.17 1549.52 2205.36 1549.52 Q2199.55 1549.52 2196.47 1544.94 Q2193.41 1540.33 2193.41 1531.6 Q2193.41 1522.85 2196.47 1518.27 Q2199.55 1513.66 2205.36 1513.66 Z" fill="#000000" fill-rule="nonzero" fill-opacity="1" /><polyline clip-path="url(#clip150)" style="stroke:#000000; stroke-linecap:round; stroke-linejoin:round; stroke-width:4; stroke-opacity:1; fill:none" points="202.177,1486.45 202.177,47.2441 "/>
<polyline clip-path="url(#clip150)" style="stroke:#000000; stroke-linecap:round; stroke-linejoin:round; stroke-width:4; stroke-opacity:1; fill:none" points="202.177,1262.53 221.074,1262.53 "/>
<polyline clip-path="url(#clip150)" style="stroke:#000000; stroke-linecap:round; stroke-linejoin:round; stroke-width:4; stroke-opacity:1; fill:none" points="202.177,993.136 221.074,993.136 "/>
<polyline clip-path="url(#clip150)" style="stroke:#000000; stroke-linecap:round; stroke-linejoin:round; stroke-width:4; stroke-opacity:1; fill:none" points="202.177,723.743 221.074,723.743 "/>
<polyline clip-path="url(#clip150)" style="stroke:#000000; stroke-linecap:round; stroke-linejoin:round; stroke-width:4; stroke-opacity:1; fill:none" points="202.177,454.35 221.074,454.35 "/>
<polyline clip-path="url(#clip150)" style="stroke:#000000; stroke-linecap:round; stroke-linejoin:round; stroke-width:4; stroke-opacity:1; fill:none" points="202.177,184.958 221.074,184.958 "/>
<path clip-path="url(#clip150)" d="M67.9133 1261.17 Q71.2698 1261.89 73.1448 1264.16 Q75.0429 1266.43 75.0429 1269.76 Q75.0429 1274.88 71.5244 1277.68 Q68.0059 1280.48 61.5245 1280.48 Q59.3486 1280.48 57.0338 1280.04 Q54.7421 1279.62 52.2884 1278.77 L52.2884 1274.25 Q54.2328 1275.39 56.5477 1275.97 Q58.8625 1276.54 61.3856 1276.54 Q65.7837 1276.54 68.0754 1274.81 Q70.3902 1273.07 70.3902 1269.76 Q70.3902 1266.71 68.2374 1264.99 Q66.1078 1263.26 62.2884 1263.26 L58.2606 1263.26 L58.2606 1259.42 L62.4735 1259.42 Q65.9226 1259.42 67.7513 1258.05 Q69.58 1256.66 69.58 1254.07 Q69.58 1251.41 67.6819 1249.99 Q65.8069 1248.56 62.2884 1248.56 Q60.3671 1248.56 58.168 1248.98 Q55.969 1249.39 53.3301 1250.27 L53.3301 1246.11 Q55.9921 1245.36 58.3069 1244.99 Q60.6449 1244.62 62.705 1244.62 Q68.0291 1244.62 71.1309 1247.05 Q74.2327 1249.46 74.2327 1253.58 Q74.2327 1256.45 72.5892 1258.44 Q70.9457 1260.41 67.9133 1261.17 Z" fill="#000000" fill-rule="nonzero" fill-opacity="1" /><path clip-path="url(#clip150)" d="M84.0475 1279.09 L84.0475 1274.83 Q85.8068 1275.67 87.6123 1276.1 Q89.4178 1276.54 91.1539 1276.54 Q95.7836 1276.54 98.2141 1273.44 Q100.668 1270.32 101.015 1263.98 Q99.6724 1265.97 97.6122 1267.03 Q95.5521 1268.1 93.0521 1268.1 Q87.8669 1268.1 84.8345 1264.97 Q81.8253 1261.82 81.8253 1256.38 Q81.8253 1251.06 84.9734 1247.84 Q88.1216 1244.62 93.353 1244.62 Q99.3483 1244.62 102.496 1249.23 Q105.668 1253.81 105.668 1262.56 Q105.668 1270.73 101.779 1275.62 Q97.9132 1280.48 91.3623 1280.48 Q89.603 1280.48 87.7975 1280.13 Q85.9919 1279.79 84.0475 1279.09 M93.353 1264.44 Q96.5011 1264.44 98.3298 1262.29 Q100.182 1260.13 100.182 1256.38 Q100.182 1252.66 98.3298 1250.5 Q96.5011 1248.33 93.353 1248.33 Q90.2049 1248.33 88.353 1250.5 Q86.5243 1252.66 86.5243 1256.38 Q86.5243 1260.13 88.353 1262.29 Q90.2049 1264.44 93.353 1264.44 Z" fill="#000000" fill-rule="nonzero" fill-opacity="1" /><path clip-path="url(#clip150)" d="M124.07 1248.33 Q120.459 1248.33 118.631 1251.89 Q116.825 1255.43 116.825 1262.56 Q116.825 1269.67 118.631 1273.23 Q120.459 1276.78 124.07 1276.78 Q127.705 1276.78 129.51 1273.23 Q131.339 1269.67 131.339 1262.56 Q131.339 1255.43 129.51 1251.89 Q127.705 1248.33 124.07 1248.33 M124.07 1244.62 Q129.881 1244.62 132.936 1249.23 Q136.015 1253.81 136.015 1262.56 Q136.015 1271.29 132.936 1275.9 Q129.881 1280.48 124.07 1280.48 Q118.26 1280.48 115.182 1275.9 Q112.126 1271.29 112.126 1262.56 Q112.126 1253.81 115.182 1249.23 Q118.26 1244.62 124.07 1244.62 Z" fill="#000000" fill-rule="nonzero" fill-opacity="1" /><path clip-path="url(#clip150)" d="M154.232 1248.33 Q150.621 1248.33 148.793 1251.89 Q146.987 1255.43 146.987 1262.56 Q146.987 1269.67 148.793 1273.23 Q150.621 1276.78 154.232 1276.78 Q157.867 1276.78 159.672 1273.23 Q161.501 1269.67 161.501 1262.56 Q161.501 1255.43 159.672 1251.89 Q157.867 1248.33 154.232 1248.33 M154.232 1244.62 Q160.042 1244.62 163.098 1249.23 Q166.177 1253.81 166.177 1262.56 Q166.177 1271.29 163.098 1275.9 Q160.042 1280.48 154.232 1280.48 Q148.422 1280.48 145.343 1275.9 Q142.288 1271.29 142.288 1262.56 Q142.288 1253.81 145.343 1249.23 Q148.422 1244.62 154.232 1244.62 Z" fill="#000000" fill-rule="nonzero" fill-opacity="1" /><path clip-path="url(#clip150)" d="M67.9133 991.782 Q71.2698 992.499 73.1448 994.768 Q75.0429 997.036 75.0429 1000.37 Q75.0429 1005.49 71.5244 1008.29 Q68.0059 1011.09 61.5245 1011.09 Q59.3486 1011.09 57.0338 1010.65 Q54.7421 1010.23 52.2884 1009.37 L52.2884 1004.86 Q54.2328 1005.99 56.5477 1006.57 Q58.8625 1007.15 61.3856 1007.15 Q65.7837 1007.15 68.0754 1005.42 Q70.3902 1003.68 70.3902 1000.37 Q70.3902 997.314 68.2374 995.601 Q66.1078 993.865 62.2884 993.865 L58.2606 993.865 L58.2606 990.022 L62.4735 990.022 Q65.9226 990.022 67.7513 988.657 Q69.58 987.268 69.58 984.675 Q69.58 982.013 67.6819 980.601 Q65.8069 979.166 62.2884 979.166 Q60.3671 979.166 58.168 979.583 Q55.969 979.999 53.3301 980.879 L53.3301 976.712 Q55.9921 975.972 58.3069 975.601 Q60.6449 975.231 62.705 975.231 Q68.0291 975.231 71.1309 977.661 Q74.2327 980.069 74.2327 984.189 Q74.2327 987.06 72.5892 989.05 Q70.9457 991.018 67.9133 991.782 Z" fill="#000000" fill-rule="nonzero" fill-opacity="1" /><path clip-path="url(#clip150)" d="M84.0475 1009.7 L84.0475 1005.44 Q85.8068 1006.27 87.6123 1006.71 Q89.4178 1007.15 91.1539 1007.15 Q95.7836 1007.15 98.2141 1004.05 Q100.668 1000.93 101.015 994.583 Q99.6724 996.573 97.6122 997.638 Q95.5521 998.703 93.0521 998.703 Q87.8669 998.703 84.8345 995.578 Q81.8253 992.43 81.8253 986.99 Q81.8253 981.666 84.9734 978.448 Q88.1216 975.231 93.353 975.231 Q99.3483 975.231 102.496 979.837 Q105.668 984.421 105.668 993.171 Q105.668 1001.34 101.779 1006.23 Q97.9132 1011.09 91.3623 1011.09 Q89.603 1011.09 87.7975 1010.74 Q85.9919 1010.39 84.0475 1009.7 M93.353 995.046 Q96.5011 995.046 98.3298 992.893 Q100.182 990.74 100.182 986.99 Q100.182 983.263 98.3298 981.11 Q96.5011 978.935 93.353 978.935 Q90.2049 978.935 88.353 981.11 Q86.5243 983.263 86.5243 986.99 Q86.5243 990.74 88.353 992.893 Q90.2049 995.046 93.353 995.046 Z" fill="#000000" fill-rule="nonzero" fill-opacity="1" /><path clip-path="url(#clip150)" d="M114.117 975.856 L132.473 975.856 L132.473 979.791 L118.399 979.791 L118.399 988.263 Q119.418 987.916 120.436 987.754 Q121.455 987.569 122.473 987.569 Q128.26 987.569 131.64 990.74 Q135.019 993.911 135.019 999.328 Q135.019 1004.91 131.547 1008.01 Q128.075 1011.09 121.756 1011.09 Q119.58 1011.09 117.311 1010.72 Q115.066 1010.35 112.658 1009.61 L112.658 1004.91 Q114.742 1006.04 116.964 1006.6 Q119.186 1007.15 121.663 1007.15 Q125.668 1007.15 128.006 1005.05 Q130.344 1002.94 130.344 999.328 Q130.344 995.717 128.006 993.61 Q125.668 991.504 121.663 991.504 Q119.788 991.504 117.913 991.921 Q116.061 992.337 114.117 993.217 L114.117 975.856 Z" fill="#000000" fill-rule="nonzero" fill-opacity="1" /><path clip-path="url(#clip150)" d="M154.232 978.935 Q150.621 978.935 148.793 982.499 Q146.987 986.041 146.987 993.171 Q146.987 1000.28 148.793 1003.84 Q150.621 1007.38 154.232 1007.38 Q157.867 1007.38 159.672 1003.84 Q161.501 1000.28 161.501 993.171 Q161.501 986.041 159.672 982.499 Q157.867 978.935 154.232 978.935 M154.232 975.231 Q160.042 975.231 163.098 979.837 Q166.177 984.421 166.177 993.171 Q166.177 1001.9 163.098 1006.5 Q160.042 1011.09 154.232 1011.09 Q148.422 1011.09 145.343 1006.5 Q142.288 1001.9 142.288 993.171 Q142.288 984.421 145.343 979.837 Q148.422 975.231 154.232 975.231 Z" fill="#000000" fill-rule="nonzero" fill-opacity="1" /><path clip-path="url(#clip150)" d="M66.5939 710.537 L54.7884 728.986 L66.5939 728.986 L66.5939 710.537 M65.367 706.463 L71.2466 706.463 L71.2466 728.986 L76.1772 728.986 L76.1772 732.875 L71.2466 732.875 L71.2466 741.023 L66.5939 741.023 L66.5939 732.875 L50.9921 732.875 L50.9921 728.361 L65.367 706.463 Z" fill="#000000" fill-rule="nonzero" fill-opacity="1" /><path clip-path="url(#clip150)" d="M93.9086 709.542 Q90.2975 709.542 88.4688 713.107 Q86.6632 716.648 86.6632 723.778 Q86.6632 730.884 88.4688 734.449 Q90.2975 737.991 93.9086 737.991 Q97.5428 737.991 99.3483 734.449 Q101.177 730.884 101.177 723.778 Q101.177 716.648 99.3483 713.107 Q97.5428 709.542 93.9086 709.542 M93.9086 705.838 Q99.7187 705.838 102.774 710.445 Q105.853 715.028 105.853 723.778 Q105.853 732.505 102.774 737.111 Q99.7187 741.694 93.9086 741.694 Q88.0984 741.694 85.0197 737.111 Q81.9642 732.505 81.9642 723.778 Q81.9642 715.028 85.0197 710.445 Q88.0984 705.838 93.9086 705.838 Z" fill="#000000" fill-rule="nonzero" fill-opacity="1" /><path clip-path="url(#clip150)" d="M124.07 709.542 Q120.459 709.542 118.631 713.107 Q116.825 716.648 116.825 723.778 Q116.825 730.884 118.631 734.449 Q120.459 737.991 124.07 737.991 Q127.705 737.991 129.51 734.449 Q131.339 730.884 131.339 723.778 Q131.339 716.648 129.51 713.107 Q127.705 709.542 124.07 709.542 M124.07 705.838 Q129.881 705.838 132.936 710.445 Q136.015 715.028 136.015 723.778 Q136.015 732.505 132.936 737.111 Q129.881 741.694 124.07 741.694 Q118.26 741.694 115.182 737.111 Q112.126 732.505 112.126 723.778 Q112.126 715.028 115.182 710.445 Q118.26 705.838 124.07 705.838 Z" fill="#000000" fill-rule="nonzero" fill-opacity="1" /><path clip-path="url(#clip150)" d="M154.232 709.542 Q150.621 709.542 148.793 713.107 Q146.987 716.648 146.987 723.778 Q146.987 730.884 148.793 734.449 Q150.621 737.991 154.232 737.991 Q157.867 737.991 159.672 734.449 Q161.501 730.884 161.501 723.778 Q161.501 716.648 159.672 713.107 Q157.867 709.542 154.232 709.542 M154.232 705.838 Q160.042 705.838 163.098 710.445 Q166.177 715.028 166.177 723.778 Q166.177 732.505 163.098 737.111 Q160.042 741.694 154.232 741.694 Q148.422 741.694 145.343 737.111 Q142.288 732.505 142.288 723.778 Q142.288 715.028 145.343 710.445 Q148.422 705.838 154.232 705.838 Z" fill="#000000" fill-rule="nonzero" fill-opacity="1" /><path clip-path="url(#clip150)" d="M66.5939 441.144 L54.7884 459.593 L66.5939 459.593 L66.5939 441.144 M65.367 437.07 L71.2466 437.07 L71.2466 459.593 L76.1772 459.593 L76.1772 463.482 L71.2466 463.482 L71.2466 471.63 L66.5939 471.63 L66.5939 463.482 L50.9921 463.482 L50.9921 458.968 L65.367 437.07 Z" fill="#000000" fill-rule="nonzero" fill-opacity="1" /><path clip-path="url(#clip150)" d="M93.9086 440.149 Q90.2975 440.149 88.4688 443.714 Q86.6632 447.256 86.6632 454.385 Q86.6632 461.492 88.4688 465.056 Q90.2975 468.598 93.9086 468.598 Q97.5428 468.598 99.3483 465.056 Q101.177 461.492 101.177 454.385 Q101.177 447.256 99.3483 443.714 Q97.5428 440.149 93.9086 440.149 M93.9086 436.445 Q99.7187 436.445 102.774 441.052 Q105.853 445.635 105.853 454.385 Q105.853 463.112 102.774 467.718 Q99.7187 472.302 93.9086 472.302 Q88.0984 472.302 85.0197 467.718 Q81.9642 463.112 81.9642 454.385 Q81.9642 445.635 85.0197 441.052 Q88.0984 436.445 93.9086 436.445 Z" fill="#000000" fill-rule="nonzero" fill-opacity="1" /><path clip-path="url(#clip150)" d="M114.117 437.07 L132.473 437.07 L132.473 441.006 L118.399 441.006 L118.399 449.478 Q119.418 449.131 120.436 448.968 Q121.455 448.783 122.473 448.783 Q128.26 448.783 131.64 451.955 Q135.019 455.126 135.019 460.543 Q135.019 466.121 131.547 469.223 Q128.075 472.302 121.756 472.302 Q119.58 472.302 117.311 471.931 Q115.066 471.561 112.658 470.82 L112.658 466.121 Q114.742 467.255 116.964 467.811 Q119.186 468.367 121.663 468.367 Q125.668 468.367 128.006 466.26 Q130.344 464.154 130.344 460.543 Q130.344 456.931 128.006 454.825 Q125.668 452.718 121.663 452.718 Q119.788 452.718 117.913 453.135 Q116.061 453.552 114.117 454.431 L114.117 437.07 Z" fill="#000000" fill-rule="nonzero" fill-opacity="1" /><path clip-path="url(#clip150)" d="M154.232 440.149 Q150.621 440.149 148.793 443.714 Q146.987 447.256 146.987 454.385 Q146.987 461.492 148.793 465.056 Q150.621 468.598 154.232 468.598 Q157.867 468.598 159.672 465.056 Q161.501 461.492 161.501 454.385 Q161.501 447.256 159.672 443.714 Q157.867 440.149 154.232 440.149 M154.232 436.445 Q160.042 436.445 163.098 441.052 Q166.177 445.635 166.177 454.385 Q166.177 463.112 163.098 467.718 Q160.042 472.302 154.232 472.302 Q148.422 472.302 145.343 467.718 Q142.288 463.112 142.288 454.385 Q142.288 445.635 145.343 441.052 Q148.422 436.445 154.232 436.445 Z" fill="#000000" fill-rule="nonzero" fill-opacity="1" /><path clip-path="url(#clip150)" d="M66.5939 171.752 L54.7884 190.201 L66.5939 190.201 L66.5939 171.752 M65.367 167.678 L71.2466 167.678 L71.2466 190.201 L76.1772 190.201 L76.1772 194.09 L71.2466 194.09 L71.2466 202.238 L66.5939 202.238 L66.5939 194.09 L50.9921 194.09 L50.9921 189.576 L65.367 167.678 Z" fill="#000000" fill-rule="nonzero" fill-opacity="1" /><path clip-path="url(#clip150)" d="M84.7188 198.302 L92.3576 198.302 L92.3576 171.937 L84.0475 173.604 L84.0475 169.344 L92.3113 167.678 L96.9872 167.678 L96.9872 198.302 L104.626 198.302 L104.626 202.238 L84.7188 202.238 L84.7188 198.302 Z" fill="#000000" fill-rule="nonzero" fill-opacity="1" /><path clip-path="url(#clip150)" d="M124.07 170.756 Q120.459 170.756 118.631 174.321 Q116.825 177.863 116.825 184.992 Q116.825 192.099 118.631 195.664 Q120.459 199.205 124.07 199.205 Q127.705 199.205 129.51 195.664 Q131.339 192.099 131.339 184.992 Q131.339 177.863 129.51 174.321 Q127.705 170.756 124.07 170.756 M124.07 167.053 Q129.881 167.053 132.936 171.659 Q136.015 176.242 136.015 184.992 Q136.015 193.719 132.936 198.326 Q129.881 202.909 124.07 202.909 Q118.26 202.909 115.182 198.326 Q112.126 193.719 112.126 184.992 Q112.126 176.242 115.182 171.659 Q118.26 167.053 124.07 167.053 Z" fill="#000000" fill-rule="nonzero" fill-opacity="1" /><path clip-path="url(#clip150)" d="M154.232 170.756 Q150.621 170.756 148.793 174.321 Q146.987 177.863 146.987 184.992 Q146.987 192.099 148.793 195.664 Q150.621 199.205 154.232 199.205 Q157.867 199.205 159.672 195.664 Q161.501 192.099 161.501 184.992 Q161.501 177.863 159.672 174.321 Q157.867 170.756 154.232 170.756 M154.232 167.053 Q160.042 167.053 163.098 171.659 Q166.177 176.242 166.177 184.992 Q166.177 193.719 163.098 198.326 Q160.042 202.909 154.232 202.909 Q148.422 202.909 145.343 198.326 Q142.288 193.719 142.288 184.992 Q142.288 176.242 145.343 171.659 Q148.422 167.053 154.232 167.053 Z" fill="#000000" fill-rule="nonzero" fill-opacity="1" /><polyline clip-path="url(#clip151)" style="stroke:#009af9; stroke-linecap:round; stroke-linejoin:round; stroke-width:4; stroke-opacity:1; fill:none" points="263.042,1445.72 364.485,1294.86 465.927,1321.8 567.369,1208.65 668.812,1332.57 770.254,1127.83 871.697,1084.73 973.139,1003.91 1074.58,1030.85 1176.02,853.052 1277.47,842.276 1378.91,853.052 1480.35,923.094 1581.79,524.393 1683.24,545.944 1784.68,519.005 1886.12,481.29 1987.56,201.121 2089.01,141.855 2190.45,87.9763 2291.89,87.9763 "/>
<path clip-path="url(#clip150)" d="M273.863 198.898 L924.451 198.898 L924.451 95.2176 L273.863 95.2176  Z" fill="#ffffff" fill-rule="evenodd" fill-opacity="1"/>
<polyline clip-path="url(#clip150)" style="stroke:#000000; stroke-linecap:round; stroke-linejoin:round; stroke-width:4; stroke-opacity:1; fill:none" points="273.863,198.898 924.451,198.898 924.451,95.2176 273.863,95.2176 273.863,198.898 "/>
<polyline clip-path="url(#clip150)" style="stroke:#009af9; stroke-linecap:round; stroke-linejoin:round; stroke-width:4; stroke-opacity:1; fill:none" points="297.758,147.058 441.13,147.058 "/>
<path clip-path="url(#clip150)" d="M465.025 129.778 L486.877 129.778 L486.877 133.713 L469.701 133.713 L469.701 143.944 L486.159 143.944 L486.159 147.879 L469.701 147.879 L469.701 160.402 L487.294 160.402 L487.294 164.338 L465.025 164.338 L465.025 129.778 Z" fill="#000000" fill-rule="nonzero" fill-opacity="1" /><path clip-path="url(#clip150)" d="M514.979 143.389 Q516.576 140.518 518.798 139.153 Q521.02 137.787 524.03 137.787 Q528.08 137.787 530.28 140.634 Q532.479 143.458 532.479 148.689 L532.479 164.338 L528.196 164.338 L528.196 148.828 Q528.196 145.102 526.877 143.296 Q525.557 141.49 522.849 141.49 Q519.539 141.49 517.618 143.69 Q515.696 145.889 515.696 149.685 L515.696 164.338 L511.414 164.338 L511.414 148.828 Q511.414 145.078 510.094 143.296 Q508.775 141.49 506.02 141.49 Q502.757 141.49 500.835 143.713 Q498.914 145.912 498.914 149.685 L498.914 164.338 L494.632 164.338 L494.632 138.412 L498.914 138.412 L498.914 142.44 Q500.372 140.055 502.409 138.921 Q504.446 137.787 507.247 137.787 Q510.071 137.787 512.039 139.222 Q514.03 140.657 514.979 143.389 Z" fill="#000000" fill-rule="nonzero" fill-opacity="1" /><path clip-path="url(#clip150)" d="M545.094 160.449 L545.094 174.199 L540.812 174.199 L540.812 138.412 L545.094 138.412 L545.094 142.347 Q546.437 140.032 548.474 138.921 Q550.534 137.787 553.381 137.787 Q558.103 137.787 561.043 141.537 Q564.006 145.287 564.006 151.398 Q564.006 157.509 561.043 161.259 Q558.103 165.009 553.381 165.009 Q550.534 165.009 548.474 163.898 Q546.437 162.763 545.094 160.449 M559.585 151.398 Q559.585 146.699 557.641 144.037 Q555.719 141.352 552.34 141.352 Q548.96 141.352 547.016 144.037 Q545.094 146.699 545.094 151.398 Q545.094 156.097 547.016 158.782 Q548.96 161.444 552.34 161.444 Q555.719 161.444 557.641 158.782 Q559.585 156.097 559.585 151.398 Z" fill="#000000" fill-rule="nonzero" fill-opacity="1" /><path clip-path="url(#clip150)" d="M571.066 128.319 L575.326 128.319 L575.326 164.338 L571.066 164.338 L571.066 128.319 Z" fill="#000000" fill-rule="nonzero" fill-opacity="1" /><path clip-path="url(#clip150)" d="M594.284 141.398 Q590.858 141.398 588.867 144.083 Q586.876 146.745 586.876 151.398 Q586.876 156.051 588.844 158.736 Q590.835 161.398 594.284 161.398 Q597.687 161.398 599.677 158.713 Q601.668 156.027 601.668 151.398 Q601.668 146.791 599.677 144.106 Q597.687 141.398 594.284 141.398 M594.284 137.787 Q599.839 137.787 603.011 141.398 Q606.182 145.009 606.182 151.398 Q606.182 157.764 603.011 161.398 Q599.839 165.009 594.284 165.009 Q588.705 165.009 585.534 161.398 Q582.386 157.764 582.386 151.398 Q582.386 145.009 585.534 141.398 Q588.705 137.787 594.284 137.787 Z" fill="#000000" fill-rule="nonzero" fill-opacity="1" /><path clip-path="url(#clip150)" d="M624.029 166.745 Q622.223 171.375 620.511 172.787 Q618.798 174.199 615.927 174.199 L612.524 174.199 L612.524 170.634 L615.024 170.634 Q616.784 170.634 617.756 169.8 Q618.728 168.967 619.909 165.865 L620.673 163.921 L610.187 138.412 L614.7 138.412 L622.802 158.689 L630.904 138.412 L635.418 138.412 L624.029 166.745 Z" fill="#000000" fill-rule="nonzero" fill-opacity="1" /><path clip-path="url(#clip150)" d="M663.473 150.31 L663.473 152.393 L643.89 152.393 Q644.168 156.791 646.529 159.106 Q648.913 161.398 653.149 161.398 Q655.603 161.398 657.895 160.796 Q660.209 160.194 662.478 158.99 L662.478 163.018 Q660.186 163.99 657.779 164.5 Q655.371 165.009 652.895 165.009 Q646.691 165.009 643.057 161.398 Q639.446 157.787 639.446 151.629 Q639.446 145.264 642.872 141.537 Q646.321 137.787 652.154 137.787 Q657.385 137.787 660.418 141.166 Q663.473 144.523 663.473 150.31 M659.214 149.06 Q659.168 145.565 657.246 143.481 Q655.348 141.398 652.2 141.398 Q648.635 141.398 646.483 143.412 Q644.353 145.426 644.029 149.083 L659.214 149.06 Z" fill="#000000" fill-rule="nonzero" fill-opacity="1" /><path clip-path="url(#clip150)" d="M687.524 142.347 L687.524 128.319 L691.783 128.319 L691.783 164.338 L687.524 164.338 L687.524 160.449 Q686.181 162.763 684.121 163.898 Q682.084 165.009 679.214 165.009 Q674.515 165.009 671.552 161.259 Q668.612 157.509 668.612 151.398 Q668.612 145.287 671.552 141.537 Q674.515 137.787 679.214 137.787 Q682.084 137.787 684.121 138.921 Q686.181 140.032 687.524 142.347 M673.01 151.398 Q673.01 156.097 674.932 158.782 Q676.876 161.444 680.256 161.444 Q683.635 161.444 685.58 158.782 Q687.524 156.097 687.524 151.398 Q687.524 146.699 685.58 144.037 Q683.635 141.352 680.256 141.352 Q676.876 141.352 674.932 144.037 Q673.01 146.699 673.01 151.398 Z" fill="#000000" fill-rule="nonzero" fill-opacity="1" /><path clip-path="url(#clip150)" d="M712.732 129.778 L717.454 129.778 L724.723 158.99 L731.968 129.778 L737.223 129.778 L744.491 158.99 L751.737 129.778 L756.482 129.778 L747.802 164.338 L741.922 164.338 L734.63 134.338 L727.269 164.338 L721.39 164.338 L712.732 129.778 Z" fill="#000000" fill-rule="nonzero" fill-opacity="1" /><path clip-path="url(#clip150)" d="M769.769 141.398 Q766.343 141.398 764.352 144.083 Q762.362 146.745 762.362 151.398 Q762.362 156.051 764.329 158.736 Q766.32 161.398 769.769 161.398 Q773.172 161.398 775.162 158.713 Q777.153 156.027 777.153 151.398 Q777.153 146.791 775.162 144.106 Q773.172 141.398 769.769 141.398 M769.769 137.787 Q775.325 137.787 778.496 141.398 Q781.667 145.009 781.667 151.398 Q781.667 157.764 778.496 161.398 Q775.325 165.009 769.769 165.009 Q764.19 165.009 761.019 161.398 Q757.871 157.764 757.871 151.398 Q757.871 145.009 761.019 141.398 Q764.19 137.787 769.769 137.787 Z" fill="#000000" fill-rule="nonzero" fill-opacity="1" /><path clip-path="url(#clip150)" d="M803.75 142.393 Q803.033 141.977 802.176 141.791 Q801.343 141.583 800.324 141.583 Q796.713 141.583 794.769 143.944 Q792.848 146.282 792.848 150.68 L792.848 164.338 L788.565 164.338 L788.565 138.412 L792.848 138.412 L792.848 142.44 Q794.19 140.078 796.343 138.944 Q798.496 137.787 801.574 137.787 Q802.014 137.787 802.547 137.856 Q803.079 137.903 803.727 138.018 L803.75 142.393 Z" fill="#000000" fill-rule="nonzero" fill-opacity="1" /><path clip-path="url(#clip150)" d="M808.056 128.319 L812.338 128.319 L812.338 149.592 L825.046 138.412 L830.486 138.412 L816.736 150.541 L831.065 164.338 L825.509 164.338 L812.338 151.676 L812.338 164.338 L808.056 164.338 L808.056 128.319 Z" fill="#000000" fill-rule="nonzero" fill-opacity="1" /><path clip-path="url(#clip150)" d="M856.157 150.31 L856.157 152.393 L836.574 152.393 Q836.852 156.791 839.213 159.106 Q841.597 161.398 845.833 161.398 Q848.287 161.398 850.579 160.796 Q852.894 160.194 855.162 158.99 L855.162 163.018 Q852.87 163.99 850.463 164.5 Q848.056 165.009 845.579 165.009 Q839.375 165.009 835.741 161.398 Q832.13 157.787 832.13 151.629 Q832.13 145.264 835.556 141.537 Q839.005 137.787 844.838 137.787 Q850.069 137.787 853.102 141.166 Q856.157 144.523 856.157 150.31 M851.898 149.06 Q851.852 145.565 849.931 143.481 Q848.032 141.398 844.884 141.398 Q841.32 141.398 839.167 143.412 Q837.037 145.426 836.713 149.083 L851.898 149.06 Z" fill="#000000" fill-rule="nonzero" fill-opacity="1" /><path clip-path="url(#clip150)" d="M878.171 142.393 Q877.454 141.977 876.597 141.791 Q875.764 141.583 874.745 141.583 Q871.134 141.583 869.19 143.944 Q867.268 146.282 867.268 150.68 L867.268 164.338 L862.986 164.338 L862.986 138.412 L867.268 138.412 L867.268 142.44 Q868.611 140.078 870.764 138.944 Q872.917 137.787 875.995 137.787 Q876.435 137.787 876.968 137.856 Q877.5 137.903 878.148 138.018 L878.171 142.393 Z" fill="#000000" fill-rule="nonzero" fill-opacity="1" /><path clip-path="url(#clip150)" d="M899.166 139.176 L899.166 143.203 Q897.361 142.277 895.416 141.815 Q893.472 141.352 891.389 141.352 Q888.217 141.352 886.62 142.324 Q885.046 143.296 885.046 145.24 Q885.046 146.722 886.18 147.578 Q887.315 148.412 890.741 149.176 L892.199 149.5 Q896.736 150.472 898.634 152.254 Q900.555 154.014 900.555 157.185 Q900.555 160.796 897.685 162.902 Q894.838 165.009 889.838 165.009 Q887.754 165.009 885.486 164.592 Q883.241 164.199 880.741 163.388 L880.741 158.99 Q883.102 160.217 885.393 160.842 Q887.685 161.444 889.93 161.444 Q892.94 161.444 894.56 160.426 Q896.18 159.384 896.18 157.509 Q896.18 155.773 895 154.847 Q893.842 153.921 889.884 153.064 L888.403 152.717 Q884.444 151.884 882.685 150.171 Q880.926 148.435 880.926 145.426 Q880.926 141.768 883.518 139.778 Q886.111 137.787 890.879 137.787 Q893.241 137.787 895.324 138.134 Q897.407 138.481 899.166 139.176 Z" fill="#000000" fill-rule="nonzero" fill-opacity="1" /></svg>
