<?xml version="1.0" encoding="utf-8"?>
<svg xmlns="http://www.w3.org/2000/svg" xmlns:xlink="http://www.w3.org/1999/xlink" width="600" height="400" viewBox="0 0 2400 1600">
<defs>
  <clipPath id="clip210">
    <rect x="0" y="0" width="2400" height="1600"/>
  </clipPath>
</defs>
<path clip-path="url(#clip210)" d="M0 1600 L2400 1600 L2400 0 L0 0  Z" fill="#ffffff" fill-rule="evenodd" fill-opacity="1"/>
<defs>
  <clipPath id="clip211">
    <rect x="278" y="47" width="2076" height="1377"/>
  </clipPath>
</defs>
<path clip-path="url(#clip210)" d="M278.107 1423.18 L2352.76 1423.18 L2352.76 47.2441 L278.107 47.2441  Z" fill="#ffffff" fill-rule="evenodd" fill-opacity="1"/>
<polyline clip-path="url(#clip211)" style="stroke:#000000; stroke-linecap:round; stroke-linejoin:round; stroke-width:2; stroke-opacity:0.1; fill:none" points="581.475,1423.18 581.475,47.2441 "/>
<polyline clip-path="url(#clip211)" style="stroke:#000000; stroke-linecap:round; stroke-linejoin:round; stroke-width:2; stroke-opacity:0.1; fill:none" points="948.453,1423.18 948.453,47.2441 "/>
<polyline clip-path="url(#clip211)" style="stroke:#000000; stroke-linecap:round; stroke-linejoin:round; stroke-width:2; stroke-opacity:0.1; fill:none" points="1315.43,1423.18 1315.43,47.2441 "/>
<polyline clip-path="url(#clip211)" style="stroke:#000000; stroke-linecap:round; stroke-linejoin:round; stroke-width:2; stroke-opacity:0.1; fill:none" points="1682.41,1423.18 1682.41,47.2441 "/>
<polyline clip-path="url(#clip211)" style="stroke:#000000; stroke-linecap:round; stroke-linejoin:round; stroke-width:2; stroke-opacity:0.1; fill:none" points="2049.39,1423.18 2049.39,47.2441 "/>
<polyline clip-path="url(#clip211)" style="stroke:#000000; stroke-linecap:round; stroke-linejoin:round; stroke-width:2; stroke-opacity:0.1; fill:none" points="278.107,1202.2 2352.76,1202.2 "/>
<polyline clip-path="url(#clip211)" style="stroke:#000000; stroke-linecap:round; stroke-linejoin:round; stroke-width:2; stroke-opacity:0.1; fill:none" points="278.107,929.135 2352.76,929.135 "/>
<polyline clip-path="url(#clip211)" style="stroke:#000000; stroke-linecap:round; stroke-linejoin:round; stroke-width:2; stroke-opacity:0.1; fill:none" points="278.107,656.073 2352.76,656.073 "/>
<polyline clip-path="url(#clip211)" style="stroke:#000000; stroke-linecap:round; stroke-linejoin:round; stroke-width:2; stroke-opacity:0.1; fill:none" points="278.107,383.01 2352.76,383.01 "/>
<polyline clip-path="url(#clip211)" style="stroke:#000000; stroke-linecap:round; stroke-linejoin:round; stroke-width:2; stroke-opacity:0.1; fill:none" points="278.107,109.948 2352.76,109.948 "/>
<polyline clip-path="url(#clip210)" style="stroke:#000000; stroke-linecap:round; stroke-linejoin:round; stroke-width:4; stroke-opacity:1; fill:none" points="278.107,1423.18 2352.76,1423.18 "/>
<polyline clip-path="url(#clip210)" style="stroke:#000000; stroke-linecap:round; stroke-linejoin:round; stroke-width:4; stroke-opacity:1; fill:none" points="581.475,1423.18 581.475,1404.28 "/>
<polyline clip-path="url(#clip210)" style="stroke:#000000; stroke-linecap:round; stroke-linejoin:round; stroke-width:4; stroke-opacity:1; fill:none" points="948.453,1423.18 948.453,1404.28 "/>
<polyline clip-path="url(#clip210)" style="stroke:#000000; stroke-linecap:round; stroke-linejoin:round; stroke-width:4; stroke-opacity:1; fill:none" points="1315.43,1423.18 1315.43,1404.28 "/>
<polyline clip-path="url(#clip210)" style="stroke:#000000; stroke-linecap:round; stroke-linejoin:round; stroke-width:4; stroke-opacity:1; fill:none" points="1682.41,1423.18 1682.41,1404.28 "/>
<polyline clip-path="url(#clip210)" style="stroke:#000000; stroke-linecap:round; stroke-linejoin:round; stroke-width:4; stroke-opacity:1; fill:none" points="2049.39,1423.18 2049.39,1404.28 "/>
<path clip-path="url(#clip210)" d="M585.723 1466.95 Q589.079 1467.66 590.954 1469.93 Q592.852 1472.2 592.852 1475.53 Q592.852 1480.65 589.334 1483.45 Q585.815 1486.25 579.334 1486.25 Q577.158 1486.25 574.843 1485.81 Q572.552 1485.39 570.098 1484.54 L570.098 1480.02 Q572.042 1481.16 574.357 1481.74 Q576.672 1482.32 579.195 1482.32 Q583.593 1482.32 585.885 1480.58 Q588.2 1478.84 588.2 1475.53 Q588.2 1472.48 586.047 1470.77 Q583.917 1469.03 580.098 1469.03 L576.07 1469.03 L576.07 1465.19 L580.283 1465.19 Q583.732 1465.19 585.561 1463.82 Q587.39 1462.43 587.39 1459.84 Q587.39 1457.18 585.491 1455.77 Q583.616 1454.33 580.098 1454.33 Q578.177 1454.33 575.978 1454.75 Q573.778 1455.16 571.14 1456.04 L571.14 1451.88 Q573.802 1451.14 576.116 1450.77 Q578.454 1450.39 580.515 1450.39 Q585.839 1450.39 588.94 1452.83 Q592.042 1455.23 592.042 1459.35 Q592.042 1462.22 590.399 1464.21 Q588.755 1466.18 585.723 1466.95 Z" fill="#000000" fill-rule="nonzero" fill-opacity="1" /><path clip-path="url(#clip210)" d="M948.858 1466.44 Q945.71 1466.44 943.858 1468.59 Q942.03 1470.74 942.03 1474.49 Q942.03 1478.22 943.858 1480.39 Q945.71 1482.55 948.858 1482.55 Q952.006 1482.55 953.835 1480.39 Q955.687 1478.22 955.687 1474.49 Q955.687 1470.74 953.835 1468.59 Q952.006 1466.44 948.858 1466.44 M958.141 1451.78 L958.141 1456.04 Q956.381 1455.21 954.576 1454.77 Q952.794 1454.33 951.034 1454.33 Q946.405 1454.33 943.951 1457.45 Q941.52 1460.58 941.173 1466.9 Q942.539 1464.89 944.599 1463.82 Q946.659 1462.73 949.136 1462.73 Q954.344 1462.73 957.354 1465.9 Q960.386 1469.05 960.386 1474.49 Q960.386 1479.82 957.238 1483.03 Q954.09 1486.25 948.858 1486.25 Q942.863 1486.25 939.692 1481.67 Q936.52 1477.06 936.52 1468.33 Q936.52 1460.14 940.409 1455.28 Q944.298 1450.39 950.849 1450.39 Q952.608 1450.39 954.391 1450.74 Q956.196 1451.09 958.141 1451.78 Z" fill="#000000" fill-rule="nonzero" fill-opacity="1" /><path clip-path="url(#clip210)" d="M1305.73 1484.86 L1305.73 1480.6 Q1307.49 1481.44 1309.3 1481.88 Q1311.1 1482.32 1312.84 1482.32 Q1317.47 1482.32 1319.9 1479.21 Q1322.35 1476.09 1322.7 1469.75 Q1321.36 1471.74 1319.3 1472.8 Q1317.24 1473.87 1314.74 1473.87 Q1309.55 1473.87 1306.52 1470.74 Q1303.51 1467.59 1303.51 1462.15 Q1303.51 1456.83 1306.66 1453.61 Q1309.81 1450.39 1315.04 1450.39 Q1321.03 1450.39 1324.18 1455 Q1327.35 1459.58 1327.35 1468.33 Q1327.35 1476.51 1323.46 1481.39 Q1319.6 1486.25 1313.05 1486.25 Q1311.29 1486.25 1309.48 1485.9 Q1307.68 1485.56 1305.73 1484.86 M1315.04 1470.21 Q1318.19 1470.21 1320.01 1468.06 Q1321.87 1465.9 1321.87 1462.15 Q1321.87 1458.43 1320.01 1456.27 Q1318.19 1454.1 1315.04 1454.1 Q1311.89 1454.1 1310.04 1456.27 Q1308.21 1458.43 1308.21 1462.15 Q1308.21 1465.9 1310.04 1468.06 Q1311.89 1470.21 1315.04 1470.21 Z" fill="#000000" fill-rule="nonzero" fill-opacity="1" /><path clip-path="url(#clip210)" d="M1657.9 1481.64 L1665.53 1481.64 L1665.53 1455.28 L1657.22 1456.95 L1657.22 1452.69 L1665.49 1451.02 L1670.16 1451.02 L1670.16 1481.64 L1677.8 1481.64 L1677.8 1485.58 L1657.9 1485.58 L1657.9 1481.64 Z" fill="#000000" fill-rule="nonzero" fill-opacity="1" /><path clip-path="url(#clip210)" d="M1691.28 1481.64 L1707.59 1481.64 L1707.59 1485.58 L1685.65 1485.58 L1685.65 1481.64 Q1688.31 1478.89 1692.9 1474.26 Q1697.5 1469.61 1698.68 1468.27 Q1700.93 1465.74 1701.81 1464.01 Q1702.71 1462.25 1702.71 1460.56 Q1702.71 1457.8 1700.77 1456.07 Q1698.84 1454.33 1695.74 1454.33 Q1693.54 1454.33 1691.09 1455.09 Q1688.66 1455.86 1685.88 1457.41 L1685.88 1452.69 Q1688.71 1451.55 1691.16 1450.97 Q1693.61 1450.39 1695.65 1450.39 Q1701.02 1450.39 1704.21 1453.08 Q1707.41 1455.77 1707.41 1460.26 Q1707.41 1462.39 1706.6 1464.31 Q1705.81 1466.2 1703.71 1468.8 Q1703.13 1469.47 1700.02 1472.69 Q1696.92 1475.88 1691.28 1481.64 Z" fill="#000000" fill-rule="nonzero" fill-opacity="1" /><path clip-path="url(#clip210)" d="M2024.57 1481.64 L2032.21 1481.64 L2032.21 1455.28 L2023.9 1456.95 L2023.9 1452.69 L2032.17 1451.02 L2036.84 1451.02 L2036.84 1481.64 L2044.48 1481.64 L2044.48 1485.58 L2024.57 1485.58 L2024.57 1481.64 Z" fill="#000000" fill-rule="nonzero" fill-opacity="1" /><path clip-path="url(#clip210)" d="M2053.97 1451.02 L2072.33 1451.02 L2072.33 1454.96 L2058.25 1454.96 L2058.25 1463.43 Q2059.27 1463.08 2060.29 1462.92 Q2061.31 1462.73 2062.33 1462.73 Q2068.11 1462.73 2071.49 1465.9 Q2074.87 1469.08 2074.87 1474.49 Q2074.87 1480.07 2071.4 1483.17 Q2067.93 1486.25 2061.61 1486.25 Q2059.43 1486.25 2057.17 1485.88 Q2054.92 1485.51 2052.51 1484.77 L2052.51 1480.07 Q2054.6 1481.2 2056.82 1481.76 Q2059.04 1482.32 2061.52 1482.32 Q2065.52 1482.32 2067.86 1480.21 Q2070.2 1478.1 2070.2 1474.49 Q2070.2 1470.88 2067.86 1468.77 Q2065.52 1466.67 2061.52 1466.67 Q2059.64 1466.67 2057.77 1467.08 Q2055.92 1467.5 2053.97 1468.38 L2053.97 1451.02 Z" fill="#000000" fill-rule="nonzero" fill-opacity="1" /><path clip-path="url(#clip210)" d="M1186.94 1550.25 Q1186.94 1556.71 1189.58 1560.4 Q1192.25 1564.07 1196.9 1564.07 Q1201.55 1564.07 1204.22 1560.4 Q1206.9 1556.71 1206.9 1550.25 Q1206.9 1543.79 1204.22 1540.13 Q1201.55 1536.44 1196.9 1536.44 Q1192.25 1536.44 1189.58 1540.13 Q1186.94 1543.79 1186.94 1550.25 M1206.9 1562.7 Q1205.05 1565.88 1202.22 1567.44 Q1199.42 1568.97 1195.47 1568.97 Q1189.01 1568.97 1184.93 1563.81 Q1180.89 1558.65 1180.89 1550.25 Q1180.89 1541.85 1184.93 1536.69 Q1189.01 1531.54 1195.47 1531.54 Q1199.42 1531.54 1202.22 1533.1 Q1205.05 1534.62 1206.9 1537.81 L1206.9 1532.4 L1212.75 1532.4 L1212.75 1581.6 L1206.9 1581.6 L1206.9 1562.7 Z" fill="#000000" fill-rule="nonzero" fill-opacity="1" /><path clip-path="url(#clip210)" d="M1224.21 1553.98 L1224.21 1532.4 L1230.07 1532.4 L1230.07 1553.75 Q1230.07 1558.81 1232.04 1561.36 Q1234.01 1563.87 1237.96 1563.87 Q1242.7 1563.87 1245.44 1560.85 Q1248.21 1557.83 1248.21 1552.61 L1248.21 1532.4 L1254.07 1532.4 L1254.07 1568.04 L1248.21 1568.04 L1248.21 1562.57 Q1246.08 1565.82 1243.24 1567.41 Q1240.44 1568.97 1236.72 1568.97 Q1230.58 1568.97 1227.39 1565.15 Q1224.21 1561.33 1224.21 1553.98 M1238.95 1531.54 L1238.95 1531.54 Z" fill="#000000" fill-rule="nonzero" fill-opacity="1" /><path clip-path="url(#clip210)" d="M1282.33 1550.12 Q1275.23 1550.12 1272.49 1551.75 Q1269.76 1553.37 1269.76 1557.29 Q1269.76 1560.4 1271.79 1562.25 Q1273.86 1564.07 1277.4 1564.07 Q1282.27 1564.07 1285.19 1560.63 Q1288.15 1557.16 1288.15 1551.43 L1288.15 1550.12 L1282.33 1550.12 M1294.01 1547.71 L1294.01 1568.04 L1288.15 1568.04 L1288.15 1562.63 Q1286.15 1565.88 1283.16 1567.44 Q1280.17 1568.97 1275.84 1568.97 Q1270.36 1568.97 1267.12 1565.91 Q1263.9 1562.82 1263.9 1557.67 Q1263.9 1551.65 1267.91 1548.6 Q1271.95 1545.54 1279.94 1545.54 L1288.15 1545.54 L1288.15 1544.97 Q1288.15 1540.93 1285.48 1538.73 Q1282.84 1536.5 1278.03 1536.5 Q1274.98 1536.5 1272.08 1537.23 Q1269.18 1537.97 1266.51 1539.43 L1266.51 1534.02 Q1269.73 1532.78 1272.75 1532.17 Q1275.77 1531.54 1278.64 1531.54 Q1286.37 1531.54 1290.19 1535.55 Q1294.01 1539.56 1294.01 1547.71 Z" fill="#000000" fill-rule="nonzero" fill-opacity="1" /><path clip-path="url(#clip210)" d="M1326.73 1537.87 Q1325.74 1537.3 1324.57 1537.04 Q1323.42 1536.76 1322.02 1536.76 Q1317.05 1536.76 1314.38 1540 Q1311.74 1543.22 1311.74 1549.27 L1311.74 1568.04 L1305.85 1568.04 L1305.85 1532.4 L1311.74 1532.4 L1311.74 1537.93 Q1313.59 1534.69 1316.55 1533.13 Q1319.51 1531.54 1323.74 1531.54 Q1324.34 1531.54 1325.08 1531.63 Q1325.81 1531.7 1326.7 1531.85 L1326.73 1537.87 Z" fill="#000000" fill-rule="nonzero" fill-opacity="1" /><path clip-path="url(#clip210)" d="M1338.67 1522.27 L1338.67 1532.4 L1350.73 1532.4 L1350.73 1536.95 L1338.67 1536.95 L1338.67 1556.3 Q1338.67 1560.66 1339.84 1561.9 Q1341.05 1563.14 1344.71 1563.14 L1350.73 1563.14 L1350.73 1568.04 L1344.71 1568.04 Q1337.93 1568.04 1335.36 1565.53 Q1332.78 1562.98 1332.78 1556.3 L1332.78 1536.95 L1328.48 1536.95 L1328.48 1532.4 L1332.78 1532.4 L1332.78 1522.27 L1338.67 1522.27 Z" fill="#000000" fill-rule="nonzero" fill-opacity="1" /><path clip-path="url(#clip210)" d="M1388.92 1548.76 L1388.92 1551.62 L1362 1551.62 Q1362.38 1557.67 1365.62 1560.85 Q1368.9 1564 1374.73 1564 Q1378.1 1564 1381.25 1563.17 Q1384.44 1562.35 1387.55 1560.69 L1387.55 1566.23 Q1384.4 1567.57 1381.09 1568.27 Q1377.78 1568.97 1374.38 1568.97 Q1365.85 1568.97 1360.85 1564 Q1355.89 1559.04 1355.89 1550.57 Q1355.89 1541.82 1360.6 1536.69 Q1365.34 1531.54 1373.36 1531.54 Q1380.55 1531.54 1384.72 1536.18 Q1388.92 1540.8 1388.92 1548.76 M1383.07 1547.04 Q1383 1542.23 1380.36 1539.37 Q1377.75 1536.5 1373.42 1536.5 Q1368.52 1536.5 1365.56 1539.27 Q1362.63 1542.04 1362.19 1547.07 L1383.07 1547.04 Z" fill="#000000" fill-rule="nonzero" fill-opacity="1" /><path clip-path="url(#clip210)" d="M1419.19 1537.87 Q1418.21 1537.3 1417.03 1537.04 Q1415.88 1536.76 1414.48 1536.76 Q1409.52 1536.76 1406.84 1540 Q1404.2 1543.22 1404.2 1549.27 L1404.2 1568.04 L1398.31 1568.04 L1398.31 1532.4 L1404.2 1532.4 L1404.2 1537.93 Q1406.05 1534.69 1409.01 1533.13 Q1411.97 1531.54 1416.2 1531.54 Q1416.81 1531.54 1417.54 1531.63 Q1418.27 1531.7 1419.16 1531.85 L1419.19 1537.87 Z" fill="#000000" fill-rule="nonzero" fill-opacity="1" /><path clip-path="url(#clip210)" d="M1448.06 1533.45 L1448.06 1538.98 Q1445.58 1537.71 1442.9 1537.07 Q1440.23 1536.44 1437.37 1536.44 Q1433.01 1536.44 1430.81 1537.77 Q1428.65 1539.11 1428.65 1541.79 Q1428.65 1543.82 1430.2 1545 Q1431.76 1546.15 1436.48 1547.2 L1438.48 1547.64 Q1444.72 1548.98 1447.33 1551.43 Q1449.97 1553.85 1449.97 1558.21 Q1449.97 1563.17 1446.02 1566.07 Q1442.11 1568.97 1435.23 1568.97 Q1432.37 1568.97 1429.25 1568.39 Q1426.16 1567.85 1422.73 1566.74 L1422.73 1560.69 Q1425.97 1562.38 1429.12 1563.24 Q1432.27 1564.07 1435.36 1564.07 Q1439.5 1564.07 1441.73 1562.66 Q1443.95 1561.23 1443.95 1558.65 Q1443.95 1556.27 1442.33 1554.99 Q1440.74 1553.72 1435.3 1552.54 L1433.26 1552.07 Q1427.82 1550.92 1425.4 1548.56 Q1422.98 1546.18 1422.98 1542.04 Q1422.98 1537.01 1426.54 1534.27 Q1430.11 1531.54 1436.67 1531.54 Q1439.91 1531.54 1442.78 1532.01 Q1445.64 1532.49 1448.06 1533.45 Z" fill="#000000" fill-rule="nonzero" fill-opacity="1" /><polyline clip-path="url(#clip210)" style="stroke:#000000; stroke-linecap:round; stroke-linejoin:round; stroke-width:4; stroke-opacity:1; fill:none" points="278.107,1423.18 278.107,47.2441 "/>
<polyline clip-path="url(#clip210)" style="stroke:#000000; stroke-linecap:round; stroke-linejoin:round; stroke-width:4; stroke-opacity:1; fill:none" points="278.107,1202.2 297.004,1202.2 "/>
<polyline clip-path="url(#clip210)" style="stroke:#000000; stroke-linecap:round; stroke-linejoin:round; stroke-width:4; stroke-opacity:1; fill:none" points="278.107,929.135 297.004,929.135 "/>
<polyline clip-path="url(#clip210)" style="stroke:#000000; stroke-linecap:round; stroke-linejoin:round; stroke-width:4; stroke-opacity:1; fill:none" points="278.107,656.073 297.004,656.073 "/>
<polyline clip-path="url(#clip210)" style="stroke:#000000; stroke-linecap:round; stroke-linejoin:round; stroke-width:4; stroke-opacity:1; fill:none" points="278.107,383.01 297.004,383.01 "/>
<polyline clip-path="url(#clip210)" style="stroke:#000000; stroke-linecap:round; stroke-linejoin:round; stroke-width:4; stroke-opacity:1; fill:none" points="278.107,109.948 297.004,109.948 "/>
<path clip-path="url(#clip210)" d="M117.015 1215.54 L124.654 1215.54 L124.654 1189.18 L116.343 1190.84 L116.343 1186.58 L124.607 1184.92 L129.283 1184.92 L129.283 1215.54 L136.922 1215.54 L136.922 1219.48 L117.015 1219.48 L117.015 1215.54 Z" fill="#000000" fill-rule="nonzero" fill-opacity="1" /><path clip-path="url(#clip210)" d="M146.366 1213.6 L151.251 1213.6 L151.251 1219.48 L146.366 1219.48 L146.366 1213.6 Z" fill="#000000" fill-rule="nonzero" fill-opacity="1" /><path clip-path="url(#clip210)" d="M171.436 1188 Q167.825 1188 165.996 1191.56 Q164.19 1195.1 164.19 1202.23 Q164.19 1209.34 165.996 1212.9 Q167.825 1216.44 171.436 1216.44 Q175.07 1216.44 176.876 1212.9 Q178.704 1209.34 178.704 1202.23 Q178.704 1195.1 176.876 1191.56 Q175.07 1188 171.436 1188 M171.436 1184.29 Q177.246 1184.29 180.301 1188.9 Q183.38 1193.48 183.38 1202.23 Q183.38 1210.96 180.301 1215.56 Q177.246 1220.15 171.436 1220.15 Q165.626 1220.15 162.547 1215.56 Q159.491 1210.96 159.491 1202.23 Q159.491 1193.48 162.547 1188.9 Q165.626 1184.29 171.436 1184.29 Z" fill="#000000" fill-rule="nonzero" fill-opacity="1" /><path clip-path="url(#clip210)" d="M201.598 1188 Q197.987 1188 196.158 1191.56 Q194.352 1195.1 194.352 1202.23 Q194.352 1209.34 196.158 1212.9 Q197.987 1216.44 201.598 1216.44 Q205.232 1216.44 207.037 1212.9 Q208.866 1209.34 208.866 1202.23 Q208.866 1195.1 207.037 1191.56 Q205.232 1188 201.598 1188 M201.598 1184.29 Q207.408 1184.29 210.463 1188.9 Q213.542 1193.48 213.542 1202.23 Q213.542 1210.96 210.463 1215.56 Q207.408 1220.15 201.598 1220.15 Q195.787 1220.15 192.709 1215.56 Q189.653 1210.96 189.653 1202.23 Q189.653 1193.48 192.709 1188.9 Q195.787 1184.29 201.598 1184.29 Z" fill="#000000" fill-rule="nonzero" fill-opacity="1" /><path clip-path="url(#clip210)" d="M225.787 1215.54 L242.107 1215.54 L242.107 1219.48 L220.162 1219.48 L220.162 1215.54 Q222.824 1212.79 227.408 1208.16 Q232.014 1203.5 233.195 1202.16 Q235.44 1199.64 236.32 1197.9 Q237.222 1196.14 237.222 1194.45 Q237.222 1191.7 235.278 1189.96 Q233.357 1188.23 230.255 1188.23 Q228.056 1188.23 225.602 1188.99 Q223.172 1189.75 220.394 1191.31 L220.394 1186.58 Q223.218 1185.45 225.672 1184.87 Q228.125 1184.29 230.162 1184.29 Q235.533 1184.29 238.727 1186.98 Q241.922 1189.66 241.922 1194.15 Q241.922 1196.28 241.111 1198.2 Q240.324 1200.1 238.218 1202.69 Q237.639 1203.37 234.537 1206.58 Q231.435 1209.78 225.787 1215.54 Z" fill="#000000" fill-rule="nonzero" fill-opacity="1" /><path clip-path="url(#clip210)" d="M116.413 942.48 L124.052 942.48 L124.052 916.114 L115.742 917.781 L115.742 913.521 L124.005 911.855 L128.681 911.855 L128.681 942.48 L136.32 942.48 L136.32 946.415 L116.413 946.415 L116.413 942.48 Z" fill="#000000" fill-rule="nonzero" fill-opacity="1" /><path clip-path="url(#clip210)" d="M145.765 940.535 L150.649 940.535 L150.649 946.415 L145.765 946.415 L145.765 940.535 Z" fill="#000000" fill-rule="nonzero" fill-opacity="1" /><path clip-path="url(#clip210)" d="M170.834 914.933 Q167.223 914.933 165.394 918.498 Q163.589 922.04 163.589 929.169 Q163.589 936.276 165.394 939.841 Q167.223 943.382 170.834 943.382 Q174.468 943.382 176.274 939.841 Q178.102 936.276 178.102 929.169 Q178.102 922.04 176.274 918.498 Q174.468 914.933 170.834 914.933 M170.834 911.23 Q176.644 911.23 179.7 915.836 Q182.778 920.419 182.778 929.169 Q182.778 937.896 179.7 942.503 Q176.644 947.086 170.834 947.086 Q165.024 947.086 161.945 942.503 Q158.89 937.896 158.89 929.169 Q158.89 920.419 161.945 915.836 Q165.024 911.23 170.834 911.23 Z" fill="#000000" fill-rule="nonzero" fill-opacity="1" /><path clip-path="url(#clip210)" d="M200.996 914.933 Q197.385 914.933 195.556 918.498 Q193.75 922.04 193.75 929.169 Q193.75 936.276 195.556 939.841 Q197.385 943.382 200.996 943.382 Q204.63 943.382 206.436 939.841 Q208.264 936.276 208.264 929.169 Q208.264 922.04 206.436 918.498 Q204.63 914.933 200.996 914.933 M200.996 911.23 Q206.806 911.23 209.861 915.836 Q212.94 920.419 212.94 929.169 Q212.94 937.896 209.861 942.503 Q206.806 947.086 200.996 947.086 Q195.186 947.086 192.107 942.503 Q189.051 937.896 189.051 929.169 Q189.051 920.419 192.107 915.836 Q195.186 911.23 200.996 911.23 Z" fill="#000000" fill-rule="nonzero" fill-opacity="1" /><path clip-path="url(#clip210)" d="M221.204 911.855 L239.56 911.855 L239.56 915.79 L225.486 915.79 L225.486 924.262 Q226.505 923.915 227.523 923.753 Q228.542 923.568 229.56 923.568 Q235.347 923.568 238.727 926.739 Q242.107 929.91 242.107 935.327 Q242.107 940.905 238.634 944.007 Q235.162 947.086 228.843 947.086 Q226.667 947.086 224.398 946.716 Q222.153 946.345 219.746 945.605 L219.746 940.905 Q221.829 942.04 224.051 942.595 Q226.273 943.151 228.75 943.151 Q232.755 943.151 235.093 941.044 Q237.431 938.938 237.431 935.327 Q237.431 931.716 235.093 929.609 Q232.755 927.503 228.75 927.503 Q226.875 927.503 225 927.919 Q223.148 928.336 221.204 929.216 L221.204 911.855 Z" fill="#000000" fill-rule="nonzero" fill-opacity="1" /><path clip-path="url(#clip210)" d="M115.51 669.417 L123.149 669.417 L123.149 643.052 L114.839 644.718 L114.839 640.459 L123.103 638.793 L127.779 638.793 L127.779 669.417 L135.417 669.417 L135.417 673.353 L115.51 673.353 L115.51 669.417 Z" fill="#000000" fill-rule="nonzero" fill-opacity="1" /><path clip-path="url(#clip210)" d="M144.862 667.473 L149.746 667.473 L149.746 673.353 L144.862 673.353 L144.862 667.473 Z" fill="#000000" fill-rule="nonzero" fill-opacity="1" /><path clip-path="url(#clip210)" d="M169.931 641.871 Q166.32 641.871 164.491 645.436 Q162.686 648.978 162.686 656.107 Q162.686 663.214 164.491 666.779 Q166.32 670.32 169.931 670.32 Q173.565 670.32 175.371 666.779 Q177.2 663.214 177.2 656.107 Q177.2 648.978 175.371 645.436 Q173.565 641.871 169.931 641.871 M169.931 638.168 Q175.741 638.168 178.797 642.774 Q181.876 647.357 181.876 656.107 Q181.876 664.834 178.797 669.441 Q175.741 674.024 169.931 674.024 Q164.121 674.024 161.042 669.441 Q157.987 664.834 157.987 656.107 Q157.987 647.357 161.042 642.774 Q164.121 638.168 169.931 638.168 Z" fill="#000000" fill-rule="nonzero" fill-opacity="1" /><path clip-path="url(#clip210)" d="M200.093 641.871 Q196.482 641.871 194.653 645.436 Q192.848 648.978 192.848 656.107 Q192.848 663.214 194.653 666.779 Q196.482 670.32 200.093 670.32 Q203.727 670.32 205.533 666.779 Q207.362 663.214 207.362 656.107 Q207.362 648.978 205.533 645.436 Q203.727 641.871 200.093 641.871 M200.093 638.168 Q205.903 638.168 208.959 642.774 Q212.037 647.357 212.037 656.107 Q212.037 664.834 208.959 669.441 Q205.903 674.024 200.093 674.024 Q194.283 674.024 191.204 669.441 Q188.149 664.834 188.149 656.107 Q188.149 647.357 191.204 642.774 Q194.283 638.168 200.093 638.168 Z" fill="#000000" fill-rule="nonzero" fill-opacity="1" /><path clip-path="url(#clip210)" d="M230.255 656.941 Q226.922 656.941 225 658.723 Q223.102 660.505 223.102 663.63 Q223.102 666.755 225 668.538 Q226.922 670.32 230.255 670.32 Q233.588 670.32 235.51 668.538 Q237.431 666.732 237.431 663.63 Q237.431 660.505 235.51 658.723 Q233.611 656.941 230.255 656.941 M225.579 654.95 Q222.57 654.209 220.88 652.149 Q219.213 650.089 219.213 647.126 Q219.213 642.982 222.153 640.575 Q225.116 638.168 230.255 638.168 Q235.417 638.168 238.357 640.575 Q241.297 642.982 241.297 647.126 Q241.297 650.089 239.607 652.149 Q237.94 654.209 234.954 654.95 Q238.334 655.737 240.209 658.029 Q242.107 660.32 242.107 663.63 Q242.107 668.654 239.028 671.339 Q235.972 674.024 230.255 674.024 Q224.537 674.024 221.459 671.339 Q218.403 668.654 218.403 663.63 Q218.403 660.32 220.301 658.029 Q222.199 655.737 225.579 654.95 M223.866 647.566 Q223.866 650.251 225.533 651.755 Q227.223 653.26 230.255 653.26 Q233.264 653.26 234.954 651.755 Q236.667 650.251 236.667 647.566 Q236.667 644.881 234.954 643.376 Q233.264 641.871 230.255 641.871 Q227.223 641.871 225.533 643.376 Q223.866 644.881 223.866 647.566 Z" fill="#000000" fill-rule="nonzero" fill-opacity="1" /><path clip-path="url(#clip210)" d="M116.644 396.355 L124.283 396.355 L124.283 369.99 L115.973 371.656 L115.973 367.397 L124.237 365.73 L128.913 365.73 L128.913 396.355 L136.552 396.355 L136.552 400.29 L116.644 400.29 L116.644 396.355 Z" fill="#000000" fill-rule="nonzero" fill-opacity="1" /><path clip-path="url(#clip210)" d="M145.996 394.411 L150.88 394.411 L150.88 400.29 L145.996 400.29 L145.996 394.411 Z" fill="#000000" fill-rule="nonzero" fill-opacity="1" /><path clip-path="url(#clip210)" d="M171.065 368.809 Q167.454 368.809 165.626 372.374 Q163.82 375.916 163.82 383.045 Q163.82 390.152 165.626 393.716 Q167.454 397.258 171.065 397.258 Q174.7 397.258 176.505 393.716 Q178.334 390.152 178.334 383.045 Q178.334 375.916 176.505 372.374 Q174.7 368.809 171.065 368.809 M171.065 365.105 Q176.876 365.105 179.931 369.712 Q183.01 374.295 183.01 383.045 Q183.01 391.772 179.931 396.378 Q176.876 400.962 171.065 400.962 Q165.255 400.962 162.177 396.378 Q159.121 391.772 159.121 383.045 Q159.121 374.295 162.177 369.712 Q165.255 365.105 171.065 365.105 Z" fill="#000000" fill-rule="nonzero" fill-opacity="1" /><path clip-path="url(#clip210)" d="M192.038 396.355 L199.676 396.355 L199.676 369.99 L191.366 371.656 L191.366 367.397 L199.63 365.73 L204.306 365.73 L204.306 396.355 L211.945 396.355 L211.945 400.29 L192.038 400.29 L192.038 396.355 Z" fill="#000000" fill-rule="nonzero" fill-opacity="1" /><path clip-path="url(#clip210)" d="M222.199 396.355 L229.838 396.355 L229.838 369.99 L221.528 371.656 L221.528 367.397 L229.792 365.73 L234.468 365.73 L234.468 396.355 L242.107 396.355 L242.107 400.29 L222.199 400.29 L222.199 396.355 Z" fill="#000000" fill-rule="nonzero" fill-opacity="1" /><path clip-path="url(#clip210)" d="M114.931 123.293 L122.57 123.293 L122.57 96.9276 L114.26 98.5942 L114.26 94.335 L122.524 92.6683 L127.2 92.6683 L127.2 123.293 L134.839 123.293 L134.839 127.228 L114.931 127.228 L114.931 123.293 Z" fill="#000000" fill-rule="nonzero" fill-opacity="1" /><path clip-path="url(#clip210)" d="M144.283 121.349 L149.167 121.349 L149.167 127.228 L144.283 127.228 L144.283 121.349 Z" fill="#000000" fill-rule="nonzero" fill-opacity="1" /><path clip-path="url(#clip210)" d="M169.352 95.747 Q165.741 95.747 163.913 99.3118 Q162.107 102.853 162.107 109.983 Q162.107 117.09 163.913 120.654 Q165.741 124.196 169.352 124.196 Q172.987 124.196 174.792 120.654 Q176.621 117.09 176.621 109.983 Q176.621 102.853 174.792 99.3118 Q172.987 95.747 169.352 95.747 M169.352 92.0434 Q175.163 92.0434 178.218 96.6498 Q181.297 101.233 181.297 109.983 Q181.297 118.71 178.218 123.316 Q175.163 127.9 169.352 127.9 Q163.542 127.9 160.464 123.316 Q157.408 118.71 157.408 109.983 Q157.408 101.233 160.464 96.6498 Q163.542 92.0434 169.352 92.0434 Z" fill="#000000" fill-rule="nonzero" fill-opacity="1" /><path clip-path="url(#clip210)" d="M190.325 123.293 L197.963 123.293 L197.963 96.9276 L189.653 98.5942 L189.653 94.335 L197.917 92.6683 L202.593 92.6683 L202.593 123.293 L210.232 123.293 L210.232 127.228 L190.325 127.228 L190.325 123.293 Z" fill="#000000" fill-rule="nonzero" fill-opacity="1" /><path clip-path="url(#clip210)" d="M232.523 96.7424 L220.718 115.191 L232.523 115.191 L232.523 96.7424 M231.297 92.6683 L237.176 92.6683 L237.176 115.191 L242.107 115.191 L242.107 119.08 L237.176 119.08 L237.176 127.228 L232.523 127.228 L232.523 119.08 L216.922 119.08 L216.922 114.566 L231.297 92.6683 Z" fill="#000000" fill-rule="nonzero" fill-opacity="1" /><path clip-path="url(#clip210)" d="M57.2247 896.821 L44.4614 896.821 L44.4614 907.325 L39.1779 907.325 L39.1779 890.456 L59.58 890.456 Q62.2218 894.18 63.5904 898.667 Q64.9272 903.155 64.9272 908.248 Q64.9272 919.388 58.4342 925.69 Q51.9093 931.96 40.2919 931.96 Q28.6427 931.96 22.1496 925.69 Q15.6248 919.388 15.6248 908.248 Q15.6248 903.601 16.7706 899.431 Q17.9164 895.23 20.1444 891.697 L26.9876 891.697 Q23.9639 895.262 22.4361 899.272 Q20.9083 903.283 20.9083 907.707 Q20.9083 916.428 25.7781 920.82 Q30.6479 925.181 40.2919 925.181 Q49.9041 925.181 54.7739 920.82 Q59.6436 916.428 59.6436 907.707 Q59.6436 904.301 59.0707 901.627 Q58.466 898.954 57.2247 896.821 Z" fill="#000000" fill-rule="nonzero" fill-opacity="1" /><path clip-path="url(#clip210)" d="M21.7677 872.282 L58.7206 872.282 L58.7206 864.515 Q58.7206 854.68 54.2646 850.129 Q49.8086 845.546 40.1964 845.546 Q30.6479 845.546 26.2237 850.129 Q21.7677 854.68 21.7677 864.515 L21.7677 872.282 M16.4842 878.711 L16.4842 865.502 Q16.4842 851.688 22.2451 845.227 Q27.9743 838.766 40.1964 838.766 Q52.4822 838.766 58.2432 845.259 Q64.0042 851.752 64.0042 865.502 L64.0042 878.711 L16.4842 878.711 Z" fill="#000000" fill-rule="nonzero" fill-opacity="1" /><path clip-path="url(#clip210)" d="M21.7677 822.088 L39.6235 822.088 L39.6235 814.004 Q39.6235 809.516 37.3 807.065 Q34.9765 804.614 30.6797 804.614 Q26.4147 804.614 24.0912 807.065 Q21.7677 809.516 21.7677 814.004 L21.7677 822.088 M16.4842 828.517 L16.4842 814.004 Q16.4842 806.015 20.1126 801.94 Q23.7092 797.835 30.6797 797.835 Q37.7138 797.835 41.3104 801.94 Q44.907 806.015 44.907 814.004 L44.907 822.088 L64.0042 822.088 L64.0042 828.517 L16.4842 828.517 Z" fill="#000000" fill-rule="nonzero" fill-opacity="1" /><path clip-path="url(#clip210)" d="M29.7248 743.09 L35.1993 743.09 Q33.8307 745.572 33.1623 748.087 Q32.4621 750.569 32.4621 753.116 Q32.4621 758.813 36.0905 761.964 Q39.6872 765.115 46.212 765.115 Q52.7369 765.115 56.3653 761.964 Q59.9619 758.813 59.9619 753.116 Q59.9619 750.569 59.2935 748.087 Q58.5933 745.572 57.2247 743.09 L62.6355 743.09 Q63.7814 745.54 64.3543 748.182 Q64.9272 750.792 64.9272 753.752 Q64.9272 761.805 59.8664 766.547 Q54.8057 771.29 46.212 771.29 Q37.491 771.29 32.4939 766.515 Q27.4968 761.709 27.4968 753.37 Q27.4968 750.665 28.0697 748.087 Q28.6108 745.508 29.7248 743.09 Z" fill="#000000" fill-rule="nonzero" fill-opacity="1" /><path clip-path="url(#clip210)" d="M42.4881 703.272 L64.0042 703.272 L64.0042 709.128 L42.679 709.128 Q37.6183 709.128 35.1038 711.102 Q32.5894 713.075 32.5894 717.022 Q32.5894 721.764 35.6131 724.502 Q38.6368 727.239 43.8567 727.239 L64.0042 727.239 L64.0042 733.127 L14.479 733.127 L14.479 727.239 L33.8944 727.239 Q30.6797 725.138 29.0883 722.305 Q27.4968 719.441 27.4968 715.717 Q27.4968 709.574 31.3163 706.423 Q35.1038 703.272 42.4881 703.272 Z" fill="#000000" fill-rule="nonzero" fill-opacity="1" /><path clip-path="url(#clip210)" d="M46.0847 675.39 Q46.0847 682.488 47.7079 685.225 Q49.3312 687.963 53.2461 687.963 Q56.3653 687.963 58.2114 685.925 Q60.0256 683.857 60.0256 680.324 Q60.0256 675.454 56.5881 672.526 Q53.1188 669.566 47.3897 669.566 L46.0847 669.566 L46.0847 675.39 M43.6657 663.709 L64.0042 663.709 L64.0042 669.566 L58.5933 669.566 Q61.8398 671.571 63.3994 674.563 Q64.9272 677.555 64.9272 681.883 Q64.9272 687.358 61.8716 690.604 Q58.7843 693.819 53.6281 693.819 Q47.6125 693.819 44.5569 689.809 Q41.5014 685.766 41.5014 677.777 L41.5014 669.566 L40.9285 669.566 Q36.8862 669.566 34.6901 672.239 Q32.4621 674.881 32.4621 679.687 Q32.4621 682.743 33.1941 685.639 Q33.9262 688.535 35.3903 691.209 L29.9795 691.209 Q28.7381 687.994 28.1334 684.971 Q27.4968 681.947 27.4968 679.082 Q27.4968 671.348 31.5072 667.529 Q35.5176 663.709 43.6657 663.709 Z" fill="#000000" fill-rule="nonzero" fill-opacity="1" /><path clip-path="url(#clip210)" d="M42.4881 622.014 L64.0042 622.014 L64.0042 627.87 L42.679 627.87 Q37.6183 627.87 35.1038 629.844 Q32.5894 631.817 32.5894 635.764 Q32.5894 640.506 35.6131 643.243 Q38.6368 645.981 43.8567 645.981 L64.0042 645.981 L64.0042 651.869 L28.3562 651.869 L28.3562 645.981 L33.8944 645.981 Q30.6797 643.88 29.0883 641.047 Q27.4968 638.183 27.4968 634.459 Q27.4968 628.316 31.3163 625.165 Q35.1038 622.014 42.4881 622.014 Z" fill="#000000" fill-rule="nonzero" fill-opacity="1" /><path clip-path="url(#clip210)" d="M45.7664 586.875 Q39.4007 586.875 35.8996 589.517 Q32.3984 592.127 32.3984 596.869 Q32.3984 601.58 35.8996 604.222 Q39.4007 606.832 45.7664 606.832 Q52.1003 606.832 55.6014 604.222 Q59.1026 601.58 59.1026 596.869 Q59.1026 592.127 55.6014 589.517 Q52.1003 586.875 45.7664 586.875 M59.58 581.019 Q68.683 581.019 73.1071 585.061 Q77.5631 589.103 77.5631 597.442 Q77.5631 600.53 77.0857 603.267 Q76.6401 606.004 75.6852 608.582 L69.9879 608.582 Q71.3884 606.004 72.0568 603.49 Q72.7252 600.975 72.7252 598.365 Q72.7252 592.604 69.7015 589.74 Q66.7096 586.875 60.6303 586.875 L57.7339 586.875 Q60.885 588.689 62.4446 591.522 Q64.0042 594.355 64.0042 598.302 Q64.0042 604.858 59.0071 608.869 Q54.01 612.879 45.7664 612.879 Q37.491 612.879 32.4939 608.869 Q27.4968 604.858 27.4968 598.302 Q27.4968 594.355 29.0564 591.522 Q30.616 588.689 33.7671 586.875 L28.3562 586.875 L28.3562 581.019 L59.58 581.019 Z" fill="#000000" fill-rule="nonzero" fill-opacity="1" /><path clip-path="url(#clip210)" d="M44.7161 538.464 L47.5806 538.464 L47.5806 565.391 Q53.6281 565.009 56.8109 561.762 Q59.9619 558.484 59.9619 552.659 Q59.9619 549.286 59.1344 546.135 Q58.3069 542.952 56.6518 539.833 L62.1899 539.833 Q63.5267 542.984 64.227 546.294 Q64.9272 549.604 64.9272 553.01 Q64.9272 561.54 59.9619 566.537 Q54.9967 571.502 46.5303 571.502 Q37.7774 571.502 32.6531 566.791 Q27.4968 562.049 27.4968 554.028 Q27.4968 546.835 32.1438 542.665 Q36.7589 538.464 44.7161 538.464 M42.9973 544.32 Q38.1912 544.384 35.3266 547.026 Q32.4621 549.636 32.4621 553.964 Q32.4621 558.866 35.2312 561.826 Q38.0002 564.754 43.0292 565.2 L42.9973 544.32 Z" fill="#000000" fill-rule="nonzero" fill-opacity="1" /><path clip-path="url(#clip211)" d="M336.823 1384.24 L459.149 1383.3 L581.475 836.478 L703.801 443.518 L826.127 500.108 L948.453 897.731 L1070.78 1046.9 L1193.11 1134.74 L1315.43 1153.28 L1437.76 1032.2 L1560.08 1111.86 L1682.41 1198.72 L1804.74 1205.43 L1927.06 1168.46 L2049.39 1314.19 L2171.71 1165.48 L2294.04 1084.19 L2294.04 212.744 L2171.71 304.135 L2049.39 498.554 L1927.06 369.013 L1804.74 394.718 L1682.41 440.144 L1560.08 417.402 L1437.76 399.221 L1315.43 564.317 L1193.11 609.341 L1070.78 516.763 L948.453 443.311 L826.127 95.1729 L703.801 86.1857 L581.475 557.893 L459.149 1158.02 L336.823 1384.24  Z" fill="#009af9" fill-rule="evenodd" fill-opacity="0.2"/>
<polyline clip-path="url(#clip211)" style="stroke:#009af9; stroke-linecap:round; stroke-linejoin:round; stroke-width:4; stroke-opacity:1; fill:none" points="336.823,1384.24 459.149,1270.66 581.475,697.185 703.801,264.852 826.127,297.641 948.453,670.521 1070.78,781.829 1193.11,872.041 1315.43,858.8 1437.76,715.71 1560.08,764.633 1682.41,819.43 1804.74,800.072 1927.06,768.737 2049.39,906.372 2171.71,734.809 2294.04,648.465 "/>
</svg>
