<?xml version="1.0" encoding="utf-8"?>
<svg xmlns="http://www.w3.org/2000/svg" xmlns:xlink="http://www.w3.org/1999/xlink" width="600" height="300" viewBox="0 0 2400 1200">
<defs>
  <clipPath id="clip980">
    <rect x="0" y="0" width="2400" height="1200"/>
  </clipPath>
</defs>
<path clip-path="url(#clip980)" d="M0 1200 L2400 1200 L2400 0 L0 0  Z" fill="#ffffff" fill-rule="evenodd" fill-opacity="1"/>
<defs>
  <clipPath id="clip981">
    <rect x="480" y="0" width="1681" height="1200"/>
  </clipPath>
</defs>
<path clip-path="url(#clip980)" d="M216.436 1099.09 L1153.8 1099.09 L1153.8 92.1521 L216.436 92.1521  Z" fill="#ffffff" fill-rule="evenodd" fill-opacity="1"/>
<defs>
  <clipPath id="clip982">
    <rect x="216" y="92" width="938" height="1008"/>
  </clipPath>
</defs>
<polyline clip-path="url(#clip982)" style="stroke:#000000; stroke-linecap:round; stroke-linejoin:round; stroke-width:2; stroke-opacity:0.1; fill:none" points="411.404,1099.09 411.404,92.1521 "/>
<polyline clip-path="url(#clip982)" style="stroke:#000000; stroke-linecap:round; stroke-linejoin:round; stroke-width:2; stroke-opacity:0.1; fill:none" points="621.952,1099.09 621.952,92.1521 "/>
<polyline clip-path="url(#clip982)" style="stroke:#000000; stroke-linecap:round; stroke-linejoin:round; stroke-width:2; stroke-opacity:0.1; fill:none" points="832.501,1099.09 832.501,92.1521 "/>
<polyline clip-path="url(#clip982)" style="stroke:#000000; stroke-linecap:round; stroke-linejoin:round; stroke-width:2; stroke-opacity:0.1; fill:none" points="1043.05,1099.09 1043.05,92.1521 "/>
<polyline clip-path="url(#clip982)" style="stroke:#000000; stroke-linecap:round; stroke-linejoin:round; stroke-width:2; stroke-opacity:0.1; fill:none" points="216.436,1075.97 1153.8,1075.97 "/>
<polyline clip-path="url(#clip982)" style="stroke:#000000; stroke-linecap:round; stroke-linejoin:round; stroke-width:2; stroke-opacity:0.1; fill:none" points="216.436,837.141 1153.8,837.141 "/>
<polyline clip-path="url(#clip982)" style="stroke:#000000; stroke-linecap:round; stroke-linejoin:round; stroke-width:2; stroke-opacity:0.1; fill:none" points="216.436,598.311 1153.8,598.311 "/>
<polyline clip-path="url(#clip982)" style="stroke:#000000; stroke-linecap:round; stroke-linejoin:round; stroke-width:2; stroke-opacity:0.1; fill:none" points="216.436,359.481 1153.8,359.481 "/>
<polyline clip-path="url(#clip982)" style="stroke:#000000; stroke-linecap:round; stroke-linejoin:round; stroke-width:2; stroke-opacity:0.1; fill:none" points="216.436,120.65 1153.8,120.65 "/>
<polyline clip-path="url(#clip980)" style="stroke:#000000; stroke-linecap:round; stroke-linejoin:round; stroke-width:4; stroke-opacity:1; fill:none" points="216.436,1099.09 1153.8,1099.09 "/>
<polyline clip-path="url(#clip980)" style="stroke:#000000; stroke-linecap:round; stroke-linejoin:round; stroke-width:4; stroke-opacity:1; fill:none" points="411.404,1099.09 411.404,1080.19 "/>
<polyline clip-path="url(#clip980)" style="stroke:#000000; stroke-linecap:round; stroke-linejoin:round; stroke-width:4; stroke-opacity:1; fill:none" points="621.952,1099.09 621.952,1080.19 "/>
<polyline clip-path="url(#clip980)" style="stroke:#000000; stroke-linecap:round; stroke-linejoin:round; stroke-width:4; stroke-opacity:1; fill:none" points="832.501,1099.09 832.501,1080.19 "/>
<polyline clip-path="url(#clip980)" style="stroke:#000000; stroke-linecap:round; stroke-linejoin:round; stroke-width:4; stroke-opacity:1; fill:none" points="1043.05,1099.09 1043.05,1080.19 "/>
<path clip-path="url(#clip980)" d="M401.682 1126.93 L420.038 1126.93 L420.038 1130.86 L405.964 1130.86 L405.964 1139.34 Q406.982 1138.99 408.001 1138.83 Q409.019 1138.64 410.038 1138.64 Q415.825 1138.64 419.205 1141.81 Q422.584 1144.98 422.584 1150.4 Q422.584 1155.98 419.112 1159.08 Q415.64 1162.16 409.32 1162.16 Q407.145 1162.16 404.876 1161.79 Q402.631 1161.42 400.223 1160.68 L400.223 1155.98 Q402.307 1157.11 404.529 1157.67 Q406.751 1158.22 409.228 1158.22 Q413.232 1158.22 415.57 1156.12 Q417.908 1154.01 417.908 1150.4 Q417.908 1146.79 415.57 1144.68 Q413.232 1142.58 409.228 1142.58 Q407.353 1142.58 405.478 1142.99 Q403.626 1143.41 401.682 1144.29 L401.682 1126.93 Z" fill="#000000" fill-rule="nonzero" fill-opacity="1" /><path clip-path="url(#clip980)" d="M596.64 1157.55 L604.279 1157.55 L604.279 1131.19 L595.969 1132.85 L595.969 1128.59 L604.232 1126.93 L608.908 1126.93 L608.908 1157.55 L616.547 1157.55 L616.547 1161.49 L596.64 1161.49 L596.64 1157.55 Z" fill="#000000" fill-rule="nonzero" fill-opacity="1" /><path clip-path="url(#clip980)" d="M635.991 1130.01 Q632.38 1130.01 630.552 1133.57 Q628.746 1137.11 628.746 1144.24 Q628.746 1151.35 630.552 1154.91 Q632.38 1158.46 635.991 1158.46 Q639.626 1158.46 641.431 1154.91 Q643.26 1151.35 643.26 1144.24 Q643.26 1137.11 641.431 1133.57 Q639.626 1130.01 635.991 1130.01 M635.991 1126.3 Q641.802 1126.3 644.857 1130.91 Q647.936 1135.49 647.936 1144.24 Q647.936 1152.97 644.857 1157.58 Q641.802 1162.16 635.991 1162.16 Q630.181 1162.16 627.103 1157.58 Q624.047 1152.97 624.047 1144.24 Q624.047 1135.49 627.103 1130.91 Q630.181 1126.3 635.991 1126.3 Z" fill="#000000" fill-rule="nonzero" fill-opacity="1" /><path clip-path="url(#clip980)" d="M807.686 1157.55 L815.325 1157.55 L815.325 1131.19 L807.015 1132.85 L807.015 1128.59 L815.279 1126.93 L819.954 1126.93 L819.954 1157.55 L827.593 1157.55 L827.593 1161.49 L807.686 1161.49 L807.686 1157.55 Z" fill="#000000" fill-rule="nonzero" fill-opacity="1" /><path clip-path="url(#clip980)" d="M837.084 1126.93 L855.44 1126.93 L855.44 1130.86 L841.366 1130.86 L841.366 1139.34 Q842.385 1138.99 843.403 1138.83 Q844.422 1138.64 845.44 1138.64 Q851.227 1138.64 854.607 1141.81 Q857.987 1144.98 857.987 1150.4 Q857.987 1155.98 854.514 1159.08 Q851.042 1162.16 844.723 1162.16 Q842.547 1162.16 840.278 1161.79 Q838.033 1161.42 835.626 1160.68 L835.626 1155.98 Q837.709 1157.11 839.931 1157.67 Q842.153 1158.22 844.63 1158.22 Q848.635 1158.22 850.973 1156.12 Q853.311 1154.01 853.311 1150.4 Q853.311 1146.79 850.973 1144.68 Q848.635 1142.58 844.63 1142.58 Q842.755 1142.58 840.88 1142.99 Q839.028 1143.41 837.084 1144.29 L837.084 1126.93 Z" fill="#000000" fill-rule="nonzero" fill-opacity="1" /><path clip-path="url(#clip980)" d="M1021.82 1157.55 L1038.14 1157.55 L1038.14 1161.49 L1016.2 1161.49 L1016.2 1157.55 Q1018.86 1154.8 1023.44 1150.17 Q1028.05 1145.52 1029.23 1144.17 Q1031.48 1141.65 1032.35 1139.91 Q1033.26 1138.15 1033.26 1136.46 Q1033.26 1133.71 1031.31 1131.97 Q1029.39 1130.24 1026.29 1130.24 Q1024.09 1130.24 1021.64 1131 Q1019.21 1131.77 1016.43 1133.32 L1016.43 1128.59 Q1019.25 1127.46 1021.71 1126.88 Q1024.16 1126.3 1026.2 1126.3 Q1031.57 1126.3 1034.76 1128.99 Q1037.96 1131.67 1037.96 1136.16 Q1037.96 1138.29 1037.15 1140.21 Q1036.36 1142.11 1034.25 1144.71 Q1033.67 1145.38 1030.57 1148.59 Q1027.47 1151.79 1021.82 1157.55 Z" fill="#000000" fill-rule="nonzero" fill-opacity="1" /><path clip-path="url(#clip980)" d="M1057.96 1130.01 Q1054.35 1130.01 1052.52 1133.57 Q1050.71 1137.11 1050.71 1144.24 Q1050.71 1151.35 1052.52 1154.91 Q1054.35 1158.46 1057.96 1158.46 Q1061.59 1158.46 1063.4 1154.91 Q1065.22 1151.35 1065.22 1144.24 Q1065.22 1137.11 1063.4 1133.57 Q1061.59 1130.01 1057.96 1130.01 M1057.96 1126.3 Q1063.77 1126.3 1066.82 1130.91 Q1069.9 1135.49 1069.9 1144.24 Q1069.9 1152.97 1066.82 1157.58 Q1063.77 1162.16 1057.96 1162.16 Q1052.15 1162.16 1049.07 1157.58 Q1046.01 1152.97 1046.01 1144.24 Q1046.01 1135.49 1049.07 1130.91 Q1052.15 1126.3 1057.96 1126.3 Z" fill="#000000" fill-rule="nonzero" fill-opacity="1" /><polyline clip-path="url(#clip980)" style="stroke:#000000; stroke-linecap:round; stroke-linejoin:round; stroke-width:4; stroke-opacity:1; fill:none" points="216.436,1099.09 216.436,92.1521 "/>
<polyline clip-path="url(#clip980)" style="stroke:#000000; stroke-linecap:round; stroke-linejoin:round; stroke-width:4; stroke-opacity:1; fill:none" points="216.436,1075.97 235.334,1075.97 "/>
<polyline clip-path="url(#clip980)" style="stroke:#000000; stroke-linecap:round; stroke-linejoin:round; stroke-width:4; stroke-opacity:1; fill:none" points="216.436,837.141 235.334,837.141 "/>
<polyline clip-path="url(#clip980)" style="stroke:#000000; stroke-linecap:round; stroke-linejoin:round; stroke-width:4; stroke-opacity:1; fill:none" points="216.436,598.311 235.334,598.311 "/>
<polyline clip-path="url(#clip980)" style="stroke:#000000; stroke-linecap:round; stroke-linejoin:round; stroke-width:4; stroke-opacity:1; fill:none" points="216.436,359.481 235.334,359.481 "/>
<polyline clip-path="url(#clip980)" style="stroke:#000000; stroke-linecap:round; stroke-linejoin:round; stroke-width:4; stroke-opacity:1; fill:none" points="216.436,120.65 235.334,120.65 "/>
<path clip-path="url(#clip980)" d="M62.9365 1061.77 Q59.3254 1061.77 57.4967 1065.34 Q55.6912 1068.88 55.6912 1076.01 Q55.6912 1083.11 57.4967 1086.68 Q59.3254 1090.22 62.9365 1090.22 Q66.5707 1090.22 68.3763 1086.68 Q70.205 1083.11 70.205 1076.01 Q70.205 1068.88 68.3763 1065.34 Q66.5707 1061.77 62.9365 1061.77 M62.9365 1058.07 Q68.7467 1058.07 71.8022 1062.67 Q74.8809 1067.26 74.8809 1076.01 Q74.8809 1084.73 71.8022 1089.34 Q68.7467 1093.92 62.9365 1093.92 Q57.1264 1093.92 54.0477 1089.34 Q50.9921 1084.73 50.9921 1076.01 Q50.9921 1067.26 54.0477 1062.67 Q57.1264 1058.07 62.9365 1058.07 Z" fill="#000000" fill-rule="nonzero" fill-opacity="1" /><path clip-path="url(#clip980)" d="M83.0984 1087.37 L87.9827 1087.37 L87.9827 1093.25 L83.0984 1093.25 L83.0984 1087.37 Z" fill="#000000" fill-rule="nonzero" fill-opacity="1" /><path clip-path="url(#clip980)" d="M108.168 1061.77 Q104.557 1061.77 102.728 1065.34 Q100.922 1068.88 100.922 1076.01 Q100.922 1083.11 102.728 1086.68 Q104.557 1090.22 108.168 1090.22 Q111.802 1090.22 113.608 1086.68 Q115.436 1083.11 115.436 1076.01 Q115.436 1068.88 113.608 1065.34 Q111.802 1061.77 108.168 1061.77 M108.168 1058.07 Q113.978 1058.07 117.033 1062.67 Q120.112 1067.26 120.112 1076.01 Q120.112 1084.73 117.033 1089.34 Q113.978 1093.92 108.168 1093.92 Q102.358 1093.92 99.2789 1089.34 Q96.2234 1084.73 96.2234 1076.01 Q96.2234 1067.26 99.2789 1062.67 Q102.358 1058.07 108.168 1058.07 Z" fill="#000000" fill-rule="nonzero" fill-opacity="1" /><path clip-path="url(#clip980)" d="M138.33 1061.77 Q134.719 1061.77 132.89 1065.34 Q131.084 1068.88 131.084 1076.01 Q131.084 1083.11 132.89 1086.68 Q134.719 1090.22 138.33 1090.22 Q141.964 1090.22 143.769 1086.68 Q145.598 1083.11 145.598 1076.01 Q145.598 1068.88 143.769 1065.34 Q141.964 1061.77 138.33 1061.77 M138.33 1058.07 Q144.14 1058.07 147.195 1062.67 Q150.274 1067.26 150.274 1076.01 Q150.274 1084.73 147.195 1089.34 Q144.14 1093.92 138.33 1093.92 Q132.519 1093.92 129.441 1089.34 Q126.385 1084.73 126.385 1076.01 Q126.385 1067.26 129.441 1062.67 Q132.519 1058.07 138.33 1058.07 Z" fill="#000000" fill-rule="nonzero" fill-opacity="1" /><path clip-path="url(#clip980)" d="M168.491 1061.77 Q164.88 1061.77 163.052 1065.34 Q161.246 1068.88 161.246 1076.01 Q161.246 1083.11 163.052 1086.68 Q164.88 1090.22 168.491 1090.22 Q172.126 1090.22 173.931 1086.68 Q175.76 1083.11 175.76 1076.01 Q175.76 1068.88 173.931 1065.34 Q172.126 1061.77 168.491 1061.77 M168.491 1058.07 Q174.302 1058.07 177.357 1062.67 Q180.436 1067.26 180.436 1076.01 Q180.436 1084.73 177.357 1089.34 Q174.302 1093.92 168.491 1093.92 Q162.681 1093.92 159.603 1089.34 Q156.547 1084.73 156.547 1076.01 Q156.547 1067.26 159.603 1062.67 Q162.681 1058.07 168.491 1058.07 Z" fill="#000000" fill-rule="nonzero" fill-opacity="1" /><path clip-path="url(#clip980)" d="M63.9319 822.94 Q60.3208 822.94 58.4921 826.505 Q56.6865 830.046 56.6865 837.176 Q56.6865 844.282 58.4921 847.847 Q60.3208 851.389 63.9319 851.389 Q67.5661 851.389 69.3717 847.847 Q71.2004 844.282 71.2004 837.176 Q71.2004 830.046 69.3717 826.505 Q67.5661 822.94 63.9319 822.94 M63.9319 819.236 Q69.742 819.236 72.7976 823.843 Q75.8763 828.426 75.8763 837.176 Q75.8763 845.903 72.7976 850.509 Q69.742 855.093 63.9319 855.093 Q58.1217 855.093 55.043 850.509 Q51.9875 845.903 51.9875 837.176 Q51.9875 828.426 55.043 823.843 Q58.1217 819.236 63.9319 819.236 Z" fill="#000000" fill-rule="nonzero" fill-opacity="1" /><path clip-path="url(#clip980)" d="M84.0938 848.542 L88.978 848.542 L88.978 854.421 L84.0938 854.421 L84.0938 848.542 Z" fill="#000000" fill-rule="nonzero" fill-opacity="1" /><path clip-path="url(#clip980)" d="M109.163 822.94 Q105.552 822.94 103.723 826.505 Q101.918 830.046 101.918 837.176 Q101.918 844.282 103.723 847.847 Q105.552 851.389 109.163 851.389 Q112.797 851.389 114.603 847.847 Q116.432 844.282 116.432 837.176 Q116.432 830.046 114.603 826.505 Q112.797 822.94 109.163 822.94 M109.163 819.236 Q114.973 819.236 118.029 823.843 Q121.107 828.426 121.107 837.176 Q121.107 845.903 118.029 850.509 Q114.973 855.093 109.163 855.093 Q103.353 855.093 100.274 850.509 Q97.2187 845.903 97.2187 837.176 Q97.2187 828.426 100.274 823.843 Q103.353 819.236 109.163 819.236 Z" fill="#000000" fill-rule="nonzero" fill-opacity="1" /><path clip-path="url(#clip980)" d="M139.325 822.94 Q135.714 822.94 133.885 826.505 Q132.08 830.046 132.08 837.176 Q132.08 844.282 133.885 847.847 Q135.714 851.389 139.325 851.389 Q142.959 851.389 144.765 847.847 Q146.593 844.282 146.593 837.176 Q146.593 830.046 144.765 826.505 Q142.959 822.94 139.325 822.94 M139.325 819.236 Q145.135 819.236 148.191 823.843 Q151.269 828.426 151.269 837.176 Q151.269 845.903 148.191 850.509 Q145.135 855.093 139.325 855.093 Q133.515 855.093 130.436 850.509 Q127.381 845.903 127.381 837.176 Q127.381 828.426 130.436 823.843 Q133.515 819.236 139.325 819.236 Z" fill="#000000" fill-rule="nonzero" fill-opacity="1" /><path clip-path="url(#clip980)" d="M159.533 819.861 L177.89 819.861 L177.89 823.796 L163.816 823.796 L163.816 832.269 Q164.834 831.921 165.853 831.759 Q166.871 831.574 167.89 831.574 Q173.677 831.574 177.056 834.745 Q180.436 837.917 180.436 843.333 Q180.436 848.912 176.964 852.014 Q173.491 855.093 167.172 855.093 Q164.996 855.093 162.728 854.722 Q160.482 854.352 158.075 853.611 L158.075 848.912 Q160.158 850.046 162.38 850.602 Q164.603 851.157 167.079 851.157 Q171.084 851.157 173.422 849.051 Q175.76 846.944 175.76 843.333 Q175.76 839.722 173.422 837.616 Q171.084 835.509 167.079 835.509 Q165.204 835.509 163.329 835.926 Q161.478 836.343 159.533 837.222 L159.533 819.861 Z" fill="#000000" fill-rule="nonzero" fill-opacity="1" /><path clip-path="url(#clip980)" d="M62.9365 584.11 Q59.3254 584.11 57.4967 587.674 Q55.6912 591.216 55.6912 598.346 Q55.6912 605.452 57.4967 609.017 Q59.3254 612.559 62.9365 612.559 Q66.5707 612.559 68.3763 609.017 Q70.205 605.452 70.205 598.346 Q70.205 591.216 68.3763 587.674 Q66.5707 584.11 62.9365 584.11 M62.9365 580.406 Q68.7467 580.406 71.8022 585.012 Q74.8809 589.596 74.8809 598.346 Q74.8809 607.072 71.8022 611.679 Q68.7467 616.262 62.9365 616.262 Q57.1264 616.262 54.0477 611.679 Q50.9921 607.072 50.9921 598.346 Q50.9921 589.596 54.0477 585.012 Q57.1264 580.406 62.9365 580.406 Z" fill="#000000" fill-rule="nonzero" fill-opacity="1" /><path clip-path="url(#clip980)" d="M83.0984 609.711 L87.9827 609.711 L87.9827 615.591 L83.0984 615.591 L83.0984 609.711 Z" fill="#000000" fill-rule="nonzero" fill-opacity="1" /><path clip-path="url(#clip980)" d="M108.168 584.11 Q104.557 584.11 102.728 587.674 Q100.922 591.216 100.922 598.346 Q100.922 605.452 102.728 609.017 Q104.557 612.559 108.168 612.559 Q111.802 612.559 113.608 609.017 Q115.436 605.452 115.436 598.346 Q115.436 591.216 113.608 587.674 Q111.802 584.11 108.168 584.11 M108.168 580.406 Q113.978 580.406 117.033 585.012 Q120.112 589.596 120.112 598.346 Q120.112 607.072 117.033 611.679 Q113.978 616.262 108.168 616.262 Q102.358 616.262 99.2789 611.679 Q96.2234 607.072 96.2234 598.346 Q96.2234 589.596 99.2789 585.012 Q102.358 580.406 108.168 580.406 Z" fill="#000000" fill-rule="nonzero" fill-opacity="1" /><path clip-path="url(#clip980)" d="M129.14 611.656 L136.779 611.656 L136.779 585.29 L128.469 586.957 L128.469 582.698 L136.732 581.031 L141.408 581.031 L141.408 611.656 L149.047 611.656 L149.047 615.591 L129.14 615.591 L129.14 611.656 Z" fill="#000000" fill-rule="nonzero" fill-opacity="1" /><path clip-path="url(#clip980)" d="M168.491 584.11 Q164.88 584.11 163.052 587.674 Q161.246 591.216 161.246 598.346 Q161.246 605.452 163.052 609.017 Q164.88 612.559 168.491 612.559 Q172.126 612.559 173.931 609.017 Q175.76 605.452 175.76 598.346 Q175.76 591.216 173.931 587.674 Q172.126 584.11 168.491 584.11 M168.491 580.406 Q174.302 580.406 177.357 585.012 Q180.436 589.596 180.436 598.346 Q180.436 607.072 177.357 611.679 Q174.302 616.262 168.491 616.262 Q162.681 616.262 159.603 611.679 Q156.547 607.072 156.547 598.346 Q156.547 589.596 159.603 585.012 Q162.681 580.406 168.491 580.406 Z" fill="#000000" fill-rule="nonzero" fill-opacity="1" /><path clip-path="url(#clip980)" d="M63.9319 345.279 Q60.3208 345.279 58.4921 348.844 Q56.6865 352.386 56.6865 359.515 Q56.6865 366.622 58.4921 370.187 Q60.3208 373.728 63.9319 373.728 Q67.5661 373.728 69.3717 370.187 Q71.2004 366.622 71.2004 359.515 Q71.2004 352.386 69.3717 348.844 Q67.5661 345.279 63.9319 345.279 M63.9319 341.576 Q69.742 341.576 72.7976 346.182 Q75.8763 350.765 75.8763 359.515 Q75.8763 368.242 72.7976 372.849 Q69.742 377.432 63.9319 377.432 Q58.1217 377.432 55.043 372.849 Q51.9875 368.242 51.9875 359.515 Q51.9875 350.765 55.043 346.182 Q58.1217 341.576 63.9319 341.576 Z" fill="#000000" fill-rule="nonzero" fill-opacity="1" /><path clip-path="url(#clip980)" d="M84.0938 370.881 L88.978 370.881 L88.978 376.761 L84.0938 376.761 L84.0938 370.881 Z" fill="#000000" fill-rule="nonzero" fill-opacity="1" /><path clip-path="url(#clip980)" d="M109.163 345.279 Q105.552 345.279 103.723 348.844 Q101.918 352.386 101.918 359.515 Q101.918 366.622 103.723 370.187 Q105.552 373.728 109.163 373.728 Q112.797 373.728 114.603 370.187 Q116.432 366.622 116.432 359.515 Q116.432 352.386 114.603 348.844 Q112.797 345.279 109.163 345.279 M109.163 341.576 Q114.973 341.576 118.029 346.182 Q121.107 350.765 121.107 359.515 Q121.107 368.242 118.029 372.849 Q114.973 377.432 109.163 377.432 Q103.353 377.432 100.274 372.849 Q97.2187 368.242 97.2187 359.515 Q97.2187 350.765 100.274 346.182 Q103.353 341.576 109.163 341.576 Z" fill="#000000" fill-rule="nonzero" fill-opacity="1" /><path clip-path="url(#clip980)" d="M130.135 372.825 L137.774 372.825 L137.774 346.46 L129.464 348.127 L129.464 343.867 L137.728 342.201 L142.404 342.201 L142.404 372.825 L150.043 372.825 L150.043 376.761 L130.135 376.761 L130.135 372.825 Z" fill="#000000" fill-rule="nonzero" fill-opacity="1" /><path clip-path="url(#clip980)" d="M159.533 342.201 L177.89 342.201 L177.89 346.136 L163.816 346.136 L163.816 354.608 Q164.834 354.261 165.853 354.099 Q166.871 353.914 167.89 353.914 Q173.677 353.914 177.056 357.085 Q180.436 360.256 180.436 365.673 Q180.436 371.251 176.964 374.353 Q173.491 377.432 167.172 377.432 Q164.996 377.432 162.728 377.062 Q160.482 376.691 158.075 375.95 L158.075 371.251 Q160.158 372.386 162.38 372.941 Q164.603 373.497 167.079 373.497 Q171.084 373.497 173.422 371.39 Q175.76 369.284 175.76 365.673 Q175.76 362.062 173.422 359.955 Q171.084 357.849 167.079 357.849 Q165.204 357.849 163.329 358.265 Q161.478 358.682 159.533 359.562 L159.533 342.201 Z" fill="#000000" fill-rule="nonzero" fill-opacity="1" /><path clip-path="url(#clip980)" d="M62.9365 106.449 Q59.3254 106.449 57.4967 110.014 Q55.6912 113.555 55.6912 120.685 Q55.6912 127.791 57.4967 131.356 Q59.3254 134.898 62.9365 134.898 Q66.5707 134.898 68.3763 131.356 Q70.205 127.791 70.205 120.685 Q70.205 113.555 68.3763 110.014 Q66.5707 106.449 62.9365 106.449 M62.9365 102.745 Q68.7467 102.745 71.8022 107.352 Q74.8809 111.935 74.8809 120.685 Q74.8809 129.412 71.8022 134.018 Q68.7467 138.602 62.9365 138.602 Q57.1264 138.602 54.0477 134.018 Q50.9921 129.412 50.9921 120.685 Q50.9921 111.935 54.0477 107.352 Q57.1264 102.745 62.9365 102.745 Z" fill="#000000" fill-rule="nonzero" fill-opacity="1" /><path clip-path="url(#clip980)" d="M83.0984 132.051 L87.9827 132.051 L87.9827 137.93 L83.0984 137.93 L83.0984 132.051 Z" fill="#000000" fill-rule="nonzero" fill-opacity="1" /><path clip-path="url(#clip980)" d="M108.168 106.449 Q104.557 106.449 102.728 110.014 Q100.922 113.555 100.922 120.685 Q100.922 127.791 102.728 131.356 Q104.557 134.898 108.168 134.898 Q111.802 134.898 113.608 131.356 Q115.436 127.791 115.436 120.685 Q115.436 113.555 113.608 110.014 Q111.802 106.449 108.168 106.449 M108.168 102.745 Q113.978 102.745 117.033 107.352 Q120.112 111.935 120.112 120.685 Q120.112 129.412 117.033 134.018 Q113.978 138.602 108.168 138.602 Q102.358 138.602 99.2789 134.018 Q96.2234 129.412 96.2234 120.685 Q96.2234 111.935 99.2789 107.352 Q102.358 102.745 108.168 102.745 Z" fill="#000000" fill-rule="nonzero" fill-opacity="1" /><path clip-path="url(#clip980)" d="M132.357 133.995 L148.677 133.995 L148.677 137.93 L126.732 137.93 L126.732 133.995 Q129.394 131.241 133.978 126.611 Q138.584 121.958 139.765 120.616 Q142.01 118.092 142.89 116.356 Q143.793 114.597 143.793 112.907 Q143.793 110.153 141.848 108.417 Q139.927 106.68 136.825 106.68 Q134.626 106.68 132.172 107.444 Q129.742 108.208 126.964 109.759 L126.964 105.037 Q129.788 103.903 132.242 103.324 Q134.695 102.745 136.732 102.745 Q142.103 102.745 145.297 105.43 Q148.492 108.116 148.492 112.606 Q148.492 114.736 147.681 116.657 Q146.894 118.555 144.788 121.148 Q144.209 121.819 141.107 125.037 Q138.006 128.231 132.357 133.995 Z" fill="#000000" fill-rule="nonzero" fill-opacity="1" /><path clip-path="url(#clip980)" d="M168.491 106.449 Q164.88 106.449 163.052 110.014 Q161.246 113.555 161.246 120.685 Q161.246 127.791 163.052 131.356 Q164.88 134.898 168.491 134.898 Q172.126 134.898 173.931 131.356 Q175.76 127.791 175.76 120.685 Q175.76 113.555 173.931 110.014 Q172.126 106.449 168.491 106.449 M168.491 102.745 Q174.302 102.745 177.357 107.352 Q180.436 111.935 180.436 120.685 Q180.436 129.412 177.357 134.018 Q174.302 138.602 168.491 138.602 Q162.681 138.602 159.603 134.018 Q156.547 129.412 156.547 120.685 Q156.547 111.935 159.603 107.352 Q162.681 102.745 168.491 102.745 Z" fill="#000000" fill-rule="nonzero" fill-opacity="1" /><path clip-path="url(#clip980)" d="M617.734 30.8748 L617.734 33.2186 L595.703 33.2186 Q596.016 38.1665 598.672 40.7706 Q601.354 43.3487 606.12 43.3487 Q608.88 43.3487 611.458 42.6716 Q614.062 41.9946 616.614 40.6404 L616.614 45.1716 Q614.036 46.2654 611.328 46.8383 Q608.62 47.4112 605.833 47.4112 Q598.854 47.4112 594.766 43.3487 Q590.703 39.2862 590.703 32.3592 Q590.703 25.1978 594.557 21.0051 Q598.437 16.7864 605 16.7864 Q610.885 16.7864 614.297 20.5884 Q617.734 24.3645 617.734 30.8748 M612.943 29.4686 Q612.891 25.5363 610.729 23.1926 Q608.594 20.8488 605.052 20.8488 Q601.042 20.8488 598.62 23.1145 Q596.224 25.3801 595.859 29.4946 L612.943 29.4686 Z" fill="#000000" fill-rule="nonzero" fill-opacity="1" /><path clip-path="url(#clip980)" d="M625.104 35.1456 L625.104 17.4895 L629.896 17.4895 L629.896 34.9634 Q629.896 39.104 631.51 41.1873 Q633.125 43.2446 636.354 43.2446 Q640.234 43.2446 642.474 40.7706 Q644.739 38.2967 644.739 34.0259 L644.739 17.4895 L649.531 17.4895 L649.531 46.656 L644.739 46.656 L644.739 42.1769 Q642.995 44.8331 640.677 46.1352 Q638.385 47.4112 635.338 47.4112 Q630.312 47.4112 627.708 44.2862 Q625.104 41.1612 625.104 35.1456 M637.161 16.7864 L637.161 16.7864 Z" fill="#000000" fill-rule="nonzero" fill-opacity="1" /><path clip-path="url(#clip980)" d="M676.302 21.9686 Q675.494 21.4999 674.531 21.2916 Q673.593 21.0572 672.448 21.0572 Q668.385 21.0572 666.198 23.7134 Q664.036 26.3436 664.036 31.2915 L664.036 46.656 L659.218 46.656 L659.218 17.4895 L664.036 17.4895 L664.036 22.0207 Q665.547 19.3645 667.968 18.0884 Q670.39 16.7864 673.854 16.7864 Q674.349 16.7864 674.948 16.8645 Q675.546 16.9166 676.276 17.0468 L676.302 21.9686 Z" fill="#000000" fill-rule="nonzero" fill-opacity="1" /><path clip-path="url(#clip980)" d="M681.328 17.4895 L686.119 17.4895 L686.119 46.656 L681.328 46.656 L681.328 17.4895 M681.328 6.13538 L686.119 6.13538 L686.119 12.2031 L681.328 12.2031 L681.328 6.13538 Z" fill="#000000" fill-rule="nonzero" fill-opacity="1" /><path clip-path="url(#clip980)" d="M717.083 32.0988 Q717.083 26.8124 714.895 23.8176 Q712.734 20.7968 708.932 20.7968 Q705.13 20.7968 702.942 23.8176 Q700.781 26.8124 700.781 32.0988 Q700.781 37.3852 702.942 40.406 Q705.13 43.4008 708.932 43.4008 Q712.734 43.4008 714.895 40.406 Q717.083 37.3852 717.083 32.0988 M700.781 21.9165 Q702.291 19.3124 704.583 18.0624 Q706.9 16.7864 710.104 16.7864 Q715.416 16.7864 718.723 21.0051 Q722.057 25.2238 722.057 32.0988 Q722.057 38.9737 718.723 43.1925 Q715.416 47.4112 710.104 47.4112 Q706.9 47.4112 704.583 46.1612 Q702.291 44.8852 700.781 42.281 L700.781 46.656 L695.963 46.656 L695.963 6.13538 L700.781 6.13538 L700.781 21.9165 Z" fill="#000000" fill-rule="nonzero" fill-opacity="1" /><path clip-path="url(#clip980)" d="M741.301 20.8488 Q737.447 20.8488 735.208 23.8697 Q732.968 26.8644 732.968 32.0988 Q732.968 37.3331 735.182 40.354 Q737.421 43.3487 741.301 43.3487 Q745.129 43.3487 747.369 40.3279 Q749.609 37.3071 749.609 32.0988 Q749.609 26.9165 747.369 23.8957 Q745.129 20.8488 741.301 20.8488 M741.301 16.7864 Q747.551 16.7864 751.119 20.8488 Q754.687 24.9113 754.687 32.0988 Q754.687 39.2602 751.119 43.3487 Q747.551 47.4112 741.301 47.4112 Q735.025 47.4112 731.458 43.3487 Q727.916 39.2602 727.916 32.0988 Q727.916 24.9113 731.458 20.8488 Q735.025 16.7864 741.301 16.7864 Z" fill="#000000" fill-rule="nonzero" fill-opacity="1" /><path clip-path="url(#clip980)" d="M779.53 21.9686 Q778.723 21.4999 777.759 21.2916 Q776.822 21.0572 775.676 21.0572 Q771.614 21.0572 769.426 23.7134 Q767.265 26.3436 767.265 31.2915 L767.265 46.656 L762.447 46.656 L762.447 17.4895 L767.265 17.4895 L767.265 22.0207 Q768.775 19.3645 771.197 18.0884 Q773.619 16.7864 777.082 16.7864 Q777.577 16.7864 778.176 16.8645 Q778.775 16.9166 779.504 17.0468 L779.53 21.9686 Z" fill="#000000" fill-rule="nonzero" fill-opacity="1" /><path clip-path="url(#clip982)" d="M242.965 997.352 L285.075 997.352 L327.184 1038.41 L369.294 1060.37 L411.404 1039.98 L453.513 1028.46 L495.623 1043.71 L537.733 1030.19 L579.842 1016.56 L621.952 1018.29 L664.062 1048.6 L706.172 1016.93 L748.281 1037.43 L790.391 1070.59 L832.501 1058.07 L874.61 1059.57 L916.72 1052.72 L958.83 994.228 L1000.94 979.984 L1043.05 986.201 L1085.16 1019.45 L1127.27 1020.12 L1127.27 925.056 L1085.16 923.943 L1043.05 932.576 L1000.94 948.242 L958.83 934.78 L916.72 953.136 L874.61 940.422 L832.501 922.51 L790.391 930.607 L748.281 951.455 L706.172 948.988 L664.062 928.088 L621.952 954.006 L579.842 992.576 L537.733 1003.36 L495.623 1019.12 L453.513 1011.44 L411.404 992.766 L369.294 1023.96 L327.184 1007.31 L285.075 997.352 L242.965 997.352  Z" fill="#009af9" fill-rule="evenodd" fill-opacity="0.1"/>
<polyline clip-path="url(#clip982)" style="stroke:#009af9; stroke-linecap:round; stroke-linejoin:round; stroke-width:4; stroke-opacity:1; fill:none" points="242.965,997.352 285.075,997.352 327.184,1022.86 369.294,1042.17 411.404,1016.37 453.513,1019.95 495.623,1031.42 537.733,1016.78 579.842,1004.57 621.952,986.146 664.062,988.344 706.172,982.96 748.281,994.441 790.391,1000.6 832.501,990.29 874.61,999.996 916.72,1002.93 958.83,964.504 1000.94,964.113 1043.05,959.389 1085.16,971.695 1127.27,972.589 "/>
<path clip-path="url(#clip982)" d="M242.965 997.352 L285.075 997.352 L327.184 120.65 L369.294 120.65 L411.404 120.65 L453.513 120.65 L495.623 120.65 L537.733 120.65 L579.842 120.65 L621.952 120.65 L664.062 120.65 L706.172 120.65 L748.281 120.65 L790.391 120.65 L832.501 120.65 L874.61 120.65 L916.72 120.65 L958.83 120.65 L1000.94 120.65 L1043.05 120.65 L1085.16 120.65 L1127.27 120.65 L1127.27 120.65 L1085.16 120.65 L1043.05 120.65 L1000.94 120.65 L958.83 120.65 L916.72 120.65 L874.61 120.65 L832.501 120.65 L790.391 120.65 L748.281 120.65 L706.172 120.65 L664.062 120.65 L621.952 120.65 L579.842 120.65 L537.733 120.65 L495.623 120.65 L453.513 120.65 L411.404 120.65 L369.294 120.65 L327.184 120.65 L285.075 997.352 L242.965 997.352  Z" fill="#e26f46" fill-rule="evenodd" fill-opacity="0.1"/>
<polyline clip-path="url(#clip982)" style="stroke:#e26f46; stroke-linecap:round; stroke-linejoin:round; stroke-width:4; stroke-opacity:1; fill:none" points="242.965,997.352 285.075,997.352 327.184,120.65 369.294,120.65 411.404,120.65 453.513,120.65 495.623,120.65 537.733,120.65 579.842,120.65 621.952,120.65 664.062,120.65 706.172,120.65 748.281,120.65 790.391,120.65 832.501,120.65 874.61,120.65 916.72,120.65 958.83,120.65 1000.94,120.65 1043.05,120.65 1085.16,120.65 1127.27,120.65 "/>
<path clip-path="url(#clip980)" d="M1415.39 1099.09 L2352.76 1099.09 L2352.76 92.1521 L1415.39 92.1521  Z" fill="#ffffff" fill-rule="evenodd" fill-opacity="1"/>
<defs>
  <clipPath id="clip983">
    <rect x="1415" y="92" width="938" height="1008"/>
  </clipPath>
</defs>
<polyline clip-path="url(#clip983)" style="stroke:#000000; stroke-linecap:round; stroke-linejoin:round; stroke-width:2; stroke-opacity:0.1; fill:none" points="1610.36,1099.09 1610.36,92.1521 "/>
<polyline clip-path="url(#clip983)" style="stroke:#000000; stroke-linecap:round; stroke-linejoin:round; stroke-width:2; stroke-opacity:0.1; fill:none" points="1820.91,1099.09 1820.91,92.1521 "/>
<polyline clip-path="url(#clip983)" style="stroke:#000000; stroke-linecap:round; stroke-linejoin:round; stroke-width:2; stroke-opacity:0.1; fill:none" points="2031.46,1099.09 2031.46,92.1521 "/>
<polyline clip-path="url(#clip983)" style="stroke:#000000; stroke-linecap:round; stroke-linejoin:round; stroke-width:2; stroke-opacity:0.1; fill:none" points="2242.01,1099.09 2242.01,92.1521 "/>
<polyline clip-path="url(#clip983)" style="stroke:#000000; stroke-linecap:round; stroke-linejoin:round; stroke-width:2; stroke-opacity:0.1; fill:none" points="1415.39,999.42 2352.76,999.42 "/>
<polyline clip-path="url(#clip983)" style="stroke:#000000; stroke-linecap:round; stroke-linejoin:round; stroke-width:2; stroke-opacity:0.1; fill:none" points="1415.39,841.562 2352.76,841.562 "/>
<polyline clip-path="url(#clip983)" style="stroke:#000000; stroke-linecap:round; stroke-linejoin:round; stroke-width:2; stroke-opacity:0.1; fill:none" points="1415.39,683.704 2352.76,683.704 "/>
<polyline clip-path="url(#clip983)" style="stroke:#000000; stroke-linecap:round; stroke-linejoin:round; stroke-width:2; stroke-opacity:0.1; fill:none" points="1415.39,525.846 2352.76,525.846 "/>
<polyline clip-path="url(#clip983)" style="stroke:#000000; stroke-linecap:round; stroke-linejoin:round; stroke-width:2; stroke-opacity:0.1; fill:none" points="1415.39,367.988 2352.76,367.988 "/>
<polyline clip-path="url(#clip983)" style="stroke:#000000; stroke-linecap:round; stroke-linejoin:round; stroke-width:2; stroke-opacity:0.1; fill:none" points="1415.39,210.13 2352.76,210.13 "/>
<polyline clip-path="url(#clip980)" style="stroke:#000000; stroke-linecap:round; stroke-linejoin:round; stroke-width:4; stroke-opacity:1; fill:none" points="1415.39,1099.09 2352.76,1099.09 "/>
<polyline clip-path="url(#clip980)" style="stroke:#000000; stroke-linecap:round; stroke-linejoin:round; stroke-width:4; stroke-opacity:1; fill:none" points="1610.36,1099.09 1610.36,1080.19 "/>
<polyline clip-path="url(#clip980)" style="stroke:#000000; stroke-linecap:round; stroke-linejoin:round; stroke-width:4; stroke-opacity:1; fill:none" points="1820.91,1099.09 1820.91,1080.19 "/>
<polyline clip-path="url(#clip980)" style="stroke:#000000; stroke-linecap:round; stroke-linejoin:round; stroke-width:4; stroke-opacity:1; fill:none" points="2031.46,1099.09 2031.46,1080.19 "/>
<polyline clip-path="url(#clip980)" style="stroke:#000000; stroke-linecap:round; stroke-linejoin:round; stroke-width:4; stroke-opacity:1; fill:none" points="2242.01,1099.09 2242.01,1080.19 "/>
<path clip-path="url(#clip980)" d="M1600.64 1126.93 L1619 1126.93 L1619 1130.86 L1604.92 1130.86 L1604.92 1139.34 Q1605.94 1138.99 1606.96 1138.83 Q1607.98 1138.64 1609 1138.64 Q1614.78 1138.64 1618.16 1141.81 Q1621.54 1144.98 1621.54 1150.4 Q1621.54 1155.98 1618.07 1159.08 Q1614.6 1162.16 1608.28 1162.16 Q1606.1 1162.16 1603.83 1161.79 Q1601.59 1161.42 1599.18 1160.68 L1599.18 1155.98 Q1601.26 1157.11 1603.49 1157.67 Q1605.71 1158.22 1608.19 1158.22 Q1612.19 1158.22 1614.53 1156.12 Q1616.87 1154.01 1616.87 1150.4 Q1616.87 1146.79 1614.53 1144.68 Q1612.19 1142.58 1608.19 1142.58 Q1606.31 1142.58 1604.44 1142.99 Q1602.58 1143.41 1600.64 1144.29 L1600.64 1126.93 Z" fill="#000000" fill-rule="nonzero" fill-opacity="1" /><path clip-path="url(#clip980)" d="M1795.6 1157.55 L1803.24 1157.55 L1803.24 1131.19 L1794.93 1132.85 L1794.93 1128.59 L1803.19 1126.93 L1807.87 1126.93 L1807.87 1157.55 L1815.51 1157.55 L1815.51 1161.49 L1795.6 1161.49 L1795.6 1157.55 Z" fill="#000000" fill-rule="nonzero" fill-opacity="1" /><path clip-path="url(#clip980)" d="M1834.95 1130.01 Q1831.34 1130.01 1829.51 1133.57 Q1827.7 1137.11 1827.7 1144.24 Q1827.7 1151.35 1829.51 1154.91 Q1831.34 1158.46 1834.95 1158.46 Q1838.58 1158.46 1840.39 1154.91 Q1842.22 1151.35 1842.22 1144.24 Q1842.22 1137.11 1840.39 1133.57 Q1838.58 1130.01 1834.95 1130.01 M1834.95 1126.3 Q1840.76 1126.3 1843.82 1130.91 Q1846.89 1135.49 1846.89 1144.24 Q1846.89 1152.97 1843.82 1157.58 Q1840.76 1162.16 1834.95 1162.16 Q1829.14 1162.16 1826.06 1157.58 Q1823.01 1152.97 1823.01 1144.24 Q1823.01 1135.49 1826.06 1130.91 Q1829.14 1126.3 1834.95 1126.3 Z" fill="#000000" fill-rule="nonzero" fill-opacity="1" /><path clip-path="url(#clip980)" d="M2006.64 1157.55 L2014.28 1157.55 L2014.28 1131.19 L2005.97 1132.85 L2005.97 1128.59 L2014.24 1126.93 L2018.91 1126.93 L2018.91 1157.55 L2026.55 1157.55 L2026.55 1161.49 L2006.64 1161.49 L2006.64 1157.55 Z" fill="#000000" fill-rule="nonzero" fill-opacity="1" /><path clip-path="url(#clip980)" d="M2036.04 1126.93 L2054.4 1126.93 L2054.4 1130.86 L2040.32 1130.86 L2040.32 1139.34 Q2041.34 1138.99 2042.36 1138.83 Q2043.38 1138.64 2044.4 1138.64 Q2050.19 1138.64 2053.57 1141.81 Q2056.94 1144.98 2056.94 1150.4 Q2056.94 1155.98 2053.47 1159.08 Q2050 1162.16 2043.68 1162.16 Q2041.51 1162.16 2039.24 1161.79 Q2036.99 1161.42 2034.58 1160.68 L2034.58 1155.98 Q2036.67 1157.11 2038.89 1157.67 Q2041.11 1158.22 2043.59 1158.22 Q2047.59 1158.22 2049.93 1156.12 Q2052.27 1154.01 2052.27 1150.4 Q2052.27 1146.79 2049.93 1144.68 Q2047.59 1142.58 2043.59 1142.58 Q2041.71 1142.58 2039.84 1142.99 Q2037.99 1143.41 2036.04 1144.29 L2036.04 1126.93 Z" fill="#000000" fill-rule="nonzero" fill-opacity="1" /><path clip-path="url(#clip980)" d="M2220.78 1157.55 L2237.1 1157.55 L2237.1 1161.49 L2215.16 1161.49 L2215.16 1157.55 Q2217.82 1154.8 2222.4 1150.17 Q2227.01 1145.52 2228.19 1144.17 Q2230.43 1141.65 2231.31 1139.91 Q2232.22 1138.15 2232.22 1136.46 Q2232.22 1133.71 2230.27 1131.97 Q2228.35 1130.24 2225.25 1130.24 Q2223.05 1130.24 2220.6 1131 Q2218.16 1131.77 2215.39 1133.32 L2215.39 1128.59 Q2218.21 1127.46 2220.66 1126.88 Q2223.12 1126.3 2225.16 1126.3 Q2230.53 1126.3 2233.72 1128.99 Q2236.91 1131.67 2236.91 1136.16 Q2236.91 1138.29 2236.1 1140.21 Q2235.32 1142.11 2233.21 1144.71 Q2232.63 1145.38 2229.53 1148.59 Q2226.43 1151.79 2220.78 1157.55 Z" fill="#000000" fill-rule="nonzero" fill-opacity="1" /><path clip-path="url(#clip980)" d="M2256.91 1130.01 Q2253.3 1130.01 2251.47 1133.57 Q2249.67 1137.11 2249.67 1144.24 Q2249.67 1151.35 2251.47 1154.91 Q2253.3 1158.46 2256.91 1158.46 Q2260.55 1158.46 2262.35 1154.91 Q2264.18 1151.35 2264.18 1144.24 Q2264.18 1137.11 2262.35 1133.57 Q2260.55 1130.01 2256.91 1130.01 M2256.91 1126.3 Q2262.72 1126.3 2265.78 1130.91 Q2268.86 1135.49 2268.86 1144.24 Q2268.86 1152.97 2265.78 1157.58 Q2262.72 1162.16 2256.91 1162.16 Q2251.1 1162.16 2248.03 1157.58 Q2244.97 1152.97 2244.97 1144.24 Q2244.97 1135.49 2248.03 1130.91 Q2251.1 1126.3 2256.91 1126.3 Z" fill="#000000" fill-rule="nonzero" fill-opacity="1" /><polyline clip-path="url(#clip980)" style="stroke:#000000; stroke-linecap:round; stroke-linejoin:round; stroke-width:4; stroke-opacity:1; fill:none" points="1415.39,1099.09 1415.39,92.1521 "/>
<polyline clip-path="url(#clip980)" style="stroke:#000000; stroke-linecap:round; stroke-linejoin:round; stroke-width:4; stroke-opacity:1; fill:none" points="1415.39,999.42 1434.29,999.42 "/>
<polyline clip-path="url(#clip980)" style="stroke:#000000; stroke-linecap:round; stroke-linejoin:round; stroke-width:4; stroke-opacity:1; fill:none" points="1415.39,841.562 1434.29,841.562 "/>
<polyline clip-path="url(#clip980)" style="stroke:#000000; stroke-linecap:round; stroke-linejoin:round; stroke-width:4; stroke-opacity:1; fill:none" points="1415.39,683.704 1434.29,683.704 "/>
<polyline clip-path="url(#clip980)" style="stroke:#000000; stroke-linecap:round; stroke-linejoin:round; stroke-width:4; stroke-opacity:1; fill:none" points="1415.39,525.846 1434.29,525.846 "/>
<polyline clip-path="url(#clip980)" style="stroke:#000000; stroke-linecap:round; stroke-linejoin:round; stroke-width:4; stroke-opacity:1; fill:none" points="1415.39,367.988 1434.29,367.988 "/>
<polyline clip-path="url(#clip980)" style="stroke:#000000; stroke-linecap:round; stroke-linejoin:round; stroke-width:4; stroke-opacity:1; fill:none" points="1415.39,210.13 1434.29,210.13 "/>
<path clip-path="url(#clip980)" d="M1252.71 1012.77 L1260.34 1012.77 L1260.34 986.4 L1252.03 988.066 L1252.03 983.807 L1260.3 982.14 L1264.97 982.14 L1264.97 1012.77 L1272.61 1012.77 L1272.61 1016.7 L1252.71 1016.7 L1252.71 1012.77 Z" fill="#000000" fill-rule="nonzero" fill-opacity="1" /><path clip-path="url(#clip980)" d="M1282.06 1010.82 L1286.94 1010.82 L1286.94 1016.7 L1282.06 1016.7 L1282.06 1010.82 Z" fill="#000000" fill-rule="nonzero" fill-opacity="1" /><path clip-path="url(#clip980)" d="M1307.13 985.219 Q1303.51 985.219 1301.69 988.784 Q1299.88 992.325 1299.88 999.455 Q1299.88 1006.56 1301.69 1010.13 Q1303.51 1013.67 1307.13 1013.67 Q1310.76 1013.67 1312.57 1010.13 Q1314.39 1006.56 1314.39 999.455 Q1314.39 992.325 1312.57 988.784 Q1310.76 985.219 1307.13 985.219 M1307.13 981.515 Q1312.94 981.515 1315.99 986.122 Q1319.07 990.705 1319.07 999.455 Q1319.07 1008.18 1315.99 1012.79 Q1312.94 1017.37 1307.13 1017.37 Q1301.32 1017.37 1298.24 1012.79 Q1295.18 1008.18 1295.18 999.455 Q1295.18 990.705 1298.24 986.122 Q1301.32 981.515 1307.13 981.515 Z" fill="#000000" fill-rule="nonzero" fill-opacity="1" /><path clip-path="url(#clip980)" d="M1337.29 985.219 Q1333.68 985.219 1331.85 988.784 Q1330.04 992.325 1330.04 999.455 Q1330.04 1006.56 1331.85 1010.13 Q1333.68 1013.67 1337.29 1013.67 Q1340.92 1013.67 1342.73 1010.13 Q1344.56 1006.56 1344.56 999.455 Q1344.56 992.325 1342.73 988.784 Q1340.92 985.219 1337.29 985.219 M1337.29 981.515 Q1343.1 981.515 1346.15 986.122 Q1349.23 990.705 1349.23 999.455 Q1349.23 1008.18 1346.15 1012.79 Q1343.1 1017.37 1337.29 1017.37 Q1331.48 1017.37 1328.4 1012.79 Q1325.34 1008.18 1325.34 999.455 Q1325.34 990.705 1328.4 986.122 Q1331.48 981.515 1337.29 981.515 Z" fill="#000000" fill-rule="nonzero" fill-opacity="1" /><path clip-path="url(#clip980)" d="M1367.45 985.219 Q1363.84 985.219 1362.01 988.784 Q1360.2 992.325 1360.2 999.455 Q1360.2 1006.56 1362.01 1010.13 Q1363.84 1013.67 1367.45 1013.67 Q1371.08 1013.67 1372.89 1010.13 Q1374.72 1006.56 1374.72 999.455 Q1374.72 992.325 1372.89 988.784 Q1371.08 985.219 1367.45 985.219 M1367.45 981.515 Q1373.26 981.515 1376.32 986.122 Q1379.39 990.705 1379.39 999.455 Q1379.39 1008.18 1376.32 1012.79 Q1373.26 1017.37 1367.45 1017.37 Q1361.64 1017.37 1358.56 1012.79 Q1355.51 1008.18 1355.51 999.455 Q1355.51 990.705 1358.56 986.122 Q1361.64 981.515 1367.45 981.515 Z" fill="#000000" fill-rule="nonzero" fill-opacity="1" /><path clip-path="url(#clip980)" d="M1253.7 854.907 L1261.34 854.907 L1261.34 828.541 L1253.03 830.208 L1253.03 825.949 L1261.29 824.282 L1265.97 824.282 L1265.97 854.907 L1273.61 854.907 L1273.61 858.842 L1253.7 858.842 L1253.7 854.907 Z" fill="#000000" fill-rule="nonzero" fill-opacity="1" /><path clip-path="url(#clip980)" d="M1283.05 852.963 L1287.94 852.963 L1287.94 858.842 L1283.05 858.842 L1283.05 852.963 Z" fill="#000000" fill-rule="nonzero" fill-opacity="1" /><path clip-path="url(#clip980)" d="M1308.12 827.361 Q1304.51 827.361 1302.68 830.926 Q1300.88 834.467 1300.88 841.597 Q1300.88 848.703 1302.68 852.268 Q1304.51 855.81 1308.12 855.81 Q1311.76 855.81 1313.56 852.268 Q1315.39 848.703 1315.39 841.597 Q1315.39 834.467 1313.56 830.926 Q1311.76 827.361 1308.12 827.361 M1308.12 823.657 Q1313.93 823.657 1316.99 828.264 Q1320.07 832.847 1320.07 841.597 Q1320.07 850.324 1316.99 854.93 Q1313.93 859.513 1308.12 859.513 Q1302.31 859.513 1299.23 854.93 Q1296.18 850.324 1296.18 841.597 Q1296.18 832.847 1299.23 828.264 Q1302.31 823.657 1308.12 823.657 Z" fill="#000000" fill-rule="nonzero" fill-opacity="1" /><path clip-path="url(#clip980)" d="M1332.31 854.907 L1348.63 854.907 L1348.63 858.842 L1326.69 858.842 L1326.69 854.907 Q1329.35 852.152 1333.93 847.523 Q1338.54 842.87 1339.72 841.527 Q1341.96 839.004 1342.84 837.268 Q1343.75 835.509 1343.75 833.819 Q1343.75 831.065 1341.8 829.328 Q1339.88 827.592 1336.78 827.592 Q1334.58 827.592 1332.13 828.356 Q1329.7 829.12 1326.92 830.671 L1326.92 825.949 Q1329.74 824.815 1332.2 824.236 Q1334.65 823.657 1336.69 823.657 Q1342.06 823.657 1345.25 826.342 Q1348.45 829.027 1348.45 833.518 Q1348.45 835.648 1347.64 837.569 Q1346.85 839.467 1344.74 842.06 Q1344.16 842.731 1341.06 845.949 Q1337.96 849.143 1332.31 854.907 Z" fill="#000000" fill-rule="nonzero" fill-opacity="1" /><path clip-path="url(#clip980)" d="M1358.49 824.282 L1376.85 824.282 L1376.85 828.217 L1362.77 828.217 L1362.77 836.689 Q1363.79 836.342 1364.81 836.18 Q1365.83 835.995 1366.85 835.995 Q1372.63 835.995 1376.01 839.166 Q1379.39 842.338 1379.39 847.754 Q1379.39 853.333 1375.92 856.435 Q1372.45 859.513 1366.13 859.513 Q1363.95 859.513 1361.69 859.143 Q1359.44 858.773 1357.03 858.032 L1357.03 853.333 Q1359.12 854.467 1361.34 855.023 Q1363.56 855.578 1366.04 855.578 Q1370.04 855.578 1372.38 853.472 Q1374.72 851.365 1374.72 847.754 Q1374.72 844.143 1372.38 842.037 Q1370.04 839.93 1366.04 839.93 Q1364.16 839.93 1362.29 840.347 Q1360.44 840.764 1358.49 841.643 L1358.49 824.282 Z" fill="#000000" fill-rule="nonzero" fill-opacity="1" /><path clip-path="url(#clip980)" d="M1252.71 697.049 L1260.34 697.049 L1260.34 670.683 L1252.03 672.35 L1252.03 668.091 L1260.3 666.424 L1264.97 666.424 L1264.97 697.049 L1272.61 697.049 L1272.61 700.984 L1252.71 700.984 L1252.71 697.049 Z" fill="#000000" fill-rule="nonzero" fill-opacity="1" /><path clip-path="url(#clip980)" d="M1282.06 695.104 L1286.94 695.104 L1286.94 700.984 L1282.06 700.984 L1282.06 695.104 Z" fill="#000000" fill-rule="nonzero" fill-opacity="1" /><path clip-path="url(#clip980)" d="M1307.13 669.503 Q1303.51 669.503 1301.69 673.067 Q1299.88 676.609 1299.88 683.739 Q1299.88 690.845 1301.69 694.41 Q1303.51 697.952 1307.13 697.952 Q1310.76 697.952 1312.57 694.41 Q1314.39 690.845 1314.39 683.739 Q1314.39 676.609 1312.57 673.067 Q1310.76 669.503 1307.13 669.503 M1307.13 665.799 Q1312.94 665.799 1315.99 670.405 Q1319.07 674.989 1319.07 683.739 Q1319.07 692.466 1315.99 697.072 Q1312.94 701.655 1307.13 701.655 Q1301.32 701.655 1298.24 697.072 Q1295.18 692.466 1295.18 683.739 Q1295.18 674.989 1298.24 670.405 Q1301.32 665.799 1307.13 665.799 Z" fill="#000000" fill-rule="nonzero" fill-opacity="1" /><path clip-path="url(#clip980)" d="M1327.33 666.424 L1345.69 666.424 L1345.69 670.359 L1331.62 670.359 L1331.62 678.831 Q1332.64 678.484 1333.65 678.322 Q1334.67 678.137 1335.69 678.137 Q1341.48 678.137 1344.86 681.308 Q1348.24 684.479 1348.24 689.896 Q1348.24 695.475 1344.76 698.577 Q1341.29 701.655 1334.97 701.655 Q1332.8 701.655 1330.53 701.285 Q1328.28 700.915 1325.88 700.174 L1325.88 695.475 Q1327.96 696.609 1330.18 697.165 Q1332.4 697.72 1334.88 697.72 Q1338.89 697.72 1341.22 695.614 Q1343.56 693.507 1343.56 689.896 Q1343.56 686.285 1341.22 684.179 Q1338.89 682.072 1334.88 682.072 Q1333.01 682.072 1331.13 682.489 Q1329.28 682.905 1327.33 683.785 L1327.33 666.424 Z" fill="#000000" fill-rule="nonzero" fill-opacity="1" /><path clip-path="url(#clip980)" d="M1367.45 669.503 Q1363.84 669.503 1362.01 673.067 Q1360.2 676.609 1360.2 683.739 Q1360.2 690.845 1362.01 694.41 Q1363.84 697.952 1367.45 697.952 Q1371.08 697.952 1372.89 694.41 Q1374.72 690.845 1374.72 683.739 Q1374.72 676.609 1372.89 673.067 Q1371.08 669.503 1367.45 669.503 M1367.45 665.799 Q1373.26 665.799 1376.32 670.405 Q1379.39 674.989 1379.39 683.739 Q1379.39 692.466 1376.32 697.072 Q1373.26 701.655 1367.45 701.655 Q1361.64 701.655 1358.56 697.072 Q1355.51 692.466 1355.51 683.739 Q1355.51 674.989 1358.56 670.405 Q1361.64 665.799 1367.45 665.799 Z" fill="#000000" fill-rule="nonzero" fill-opacity="1" /><path clip-path="url(#clip980)" d="M1253.7 539.191 L1261.34 539.191 L1261.34 512.825 L1253.03 514.492 L1253.03 510.233 L1261.29 508.566 L1265.97 508.566 L1265.97 539.191 L1273.61 539.191 L1273.61 543.126 L1253.7 543.126 L1253.7 539.191 Z" fill="#000000" fill-rule="nonzero" fill-opacity="1" /><path clip-path="url(#clip980)" d="M1283.05 537.246 L1287.94 537.246 L1287.94 543.126 L1283.05 543.126 L1283.05 537.246 Z" fill="#000000" fill-rule="nonzero" fill-opacity="1" /><path clip-path="url(#clip980)" d="M1308.12 511.645 Q1304.51 511.645 1302.68 515.209 Q1300.88 518.751 1300.88 525.881 Q1300.88 532.987 1302.68 536.552 Q1304.51 540.093 1308.12 540.093 Q1311.76 540.093 1313.56 536.552 Q1315.39 532.987 1315.39 525.881 Q1315.39 518.751 1313.56 515.209 Q1311.76 511.645 1308.12 511.645 M1308.12 507.941 Q1313.93 507.941 1316.99 512.547 Q1320.07 517.131 1320.07 525.881 Q1320.07 534.607 1316.99 539.214 Q1313.93 543.797 1308.12 543.797 Q1302.31 543.797 1299.23 539.214 Q1296.18 534.607 1296.18 525.881 Q1296.18 517.131 1299.23 512.547 Q1302.31 507.941 1308.12 507.941 Z" fill="#000000" fill-rule="nonzero" fill-opacity="1" /><path clip-path="url(#clip980)" d="M1327.1 508.566 L1349.32 508.566 L1349.32 510.557 L1336.78 543.126 L1331.89 543.126 L1343.7 512.501 L1327.1 512.501 L1327.1 508.566 Z" fill="#000000" fill-rule="nonzero" fill-opacity="1" /><path clip-path="url(#clip980)" d="M1358.49 508.566 L1376.85 508.566 L1376.85 512.501 L1362.77 512.501 L1362.77 520.973 Q1363.79 520.626 1364.81 520.464 Q1365.83 520.279 1366.85 520.279 Q1372.63 520.279 1376.01 523.45 Q1379.39 526.621 1379.39 532.038 Q1379.39 537.617 1375.92 540.718 Q1372.45 543.797 1366.13 543.797 Q1363.95 543.797 1361.69 543.427 Q1359.44 543.056 1357.03 542.316 L1357.03 537.617 Q1359.12 538.751 1361.34 539.306 Q1363.56 539.862 1366.04 539.862 Q1370.04 539.862 1372.38 537.756 Q1374.72 535.649 1374.72 532.038 Q1374.72 528.427 1372.38 526.32 Q1370.04 524.214 1366.04 524.214 Q1364.16 524.214 1362.29 524.631 Q1360.44 525.047 1358.49 525.927 L1358.49 508.566 Z" fill="#000000" fill-rule="nonzero" fill-opacity="1" /><path clip-path="url(#clip980)" d="M1252.71 381.333 L1260.34 381.333 L1260.34 354.967 L1252.03 356.634 L1252.03 352.374 L1260.3 350.708 L1264.97 350.708 L1264.97 381.333 L1272.61 381.333 L1272.61 385.268 L1252.71 385.268 L1252.71 381.333 Z" fill="#000000" fill-rule="nonzero" fill-opacity="1" /><path clip-path="url(#clip980)" d="M1282.06 379.388 L1286.94 379.388 L1286.94 385.268 L1282.06 385.268 L1282.06 379.388 Z" fill="#000000" fill-rule="nonzero" fill-opacity="1" /><path clip-path="url(#clip980)" d="M1297.94 381.333 L1305.58 381.333 L1305.58 354.967 L1297.27 356.634 L1297.27 352.374 L1305.53 350.708 L1310.2 350.708 L1310.2 381.333 L1317.84 381.333 L1317.84 385.268 L1297.94 385.268 L1297.94 381.333 Z" fill="#000000" fill-rule="nonzero" fill-opacity="1" /><path clip-path="url(#clip980)" d="M1337.29 353.786 Q1333.68 353.786 1331.85 357.351 Q1330.04 360.893 1330.04 368.022 Q1330.04 375.129 1331.85 378.694 Q1333.68 382.235 1337.29 382.235 Q1340.92 382.235 1342.73 378.694 Q1344.56 375.129 1344.56 368.022 Q1344.56 360.893 1342.73 357.351 Q1340.92 353.786 1337.29 353.786 M1337.29 350.083 Q1343.1 350.083 1346.15 354.689 Q1349.23 359.272 1349.23 368.022 Q1349.23 376.749 1346.15 381.356 Q1343.1 385.939 1337.29 385.939 Q1331.48 385.939 1328.4 381.356 Q1325.34 376.749 1325.34 368.022 Q1325.34 359.272 1328.4 354.689 Q1331.48 350.083 1337.29 350.083 Z" fill="#000000" fill-rule="nonzero" fill-opacity="1" /><path clip-path="url(#clip980)" d="M1367.45 353.786 Q1363.84 353.786 1362.01 357.351 Q1360.2 360.893 1360.2 368.022 Q1360.2 375.129 1362.01 378.694 Q1363.84 382.235 1367.45 382.235 Q1371.08 382.235 1372.89 378.694 Q1374.72 375.129 1374.72 368.022 Q1374.72 360.893 1372.89 357.351 Q1371.08 353.786 1367.45 353.786 M1367.45 350.083 Q1373.26 350.083 1376.32 354.689 Q1379.39 359.272 1379.39 368.022 Q1379.39 376.749 1376.32 381.356 Q1373.26 385.939 1367.45 385.939 Q1361.64 385.939 1358.56 381.356 Q1355.51 376.749 1355.51 368.022 Q1355.51 359.272 1358.56 354.689 Q1361.64 350.083 1367.45 350.083 Z" fill="#000000" fill-rule="nonzero" fill-opacity="1" /><path clip-path="url(#clip980)" d="M1253.7 223.474 L1261.34 223.474 L1261.34 197.109 L1253.03 198.775 L1253.03 194.516 L1261.29 192.85 L1265.97 192.85 L1265.97 223.474 L1273.61 223.474 L1273.61 227.41 L1253.7 227.41 L1253.7 223.474 Z" fill="#000000" fill-rule="nonzero" fill-opacity="1" /><path clip-path="url(#clip980)" d="M1283.05 221.53 L1287.94 221.53 L1287.94 227.41 L1283.05 227.41 L1283.05 221.53 Z" fill="#000000" fill-rule="nonzero" fill-opacity="1" /><path clip-path="url(#clip980)" d="M1298.93 223.474 L1306.57 223.474 L1306.57 197.109 L1298.26 198.775 L1298.26 194.516 L1306.52 192.85 L1311.2 192.85 L1311.2 223.474 L1318.84 223.474 L1318.84 227.41 L1298.93 227.41 L1298.93 223.474 Z" fill="#000000" fill-rule="nonzero" fill-opacity="1" /><path clip-path="url(#clip980)" d="M1332.31 223.474 L1348.63 223.474 L1348.63 227.41 L1326.69 227.41 L1326.69 223.474 Q1329.35 220.72 1333.93 216.09 Q1338.54 211.437 1339.72 210.095 Q1341.96 207.572 1342.84 205.836 Q1343.75 204.076 1343.75 202.387 Q1343.75 199.632 1341.8 197.896 Q1339.88 196.16 1336.78 196.16 Q1334.58 196.16 1332.13 196.924 Q1329.7 197.688 1326.92 199.238 L1326.92 194.516 Q1329.74 193.382 1332.2 192.803 Q1334.65 192.225 1336.69 192.225 Q1342.06 192.225 1345.25 194.91 Q1348.45 197.595 1348.45 202.086 Q1348.45 204.215 1347.64 206.137 Q1346.85 208.035 1344.74 210.627 Q1344.16 211.299 1341.06 214.516 Q1337.96 217.711 1332.31 223.474 Z" fill="#000000" fill-rule="nonzero" fill-opacity="1" /><path clip-path="url(#clip980)" d="M1358.49 192.85 L1376.85 192.85 L1376.85 196.785 L1362.77 196.785 L1362.77 205.257 Q1363.79 204.91 1364.81 204.748 Q1365.83 204.562 1366.85 204.562 Q1372.63 204.562 1376.01 207.734 Q1379.39 210.905 1379.39 216.322 Q1379.39 221.9 1375.92 225.002 Q1372.45 228.081 1366.13 228.081 Q1363.95 228.081 1361.69 227.711 Q1359.44 227.34 1357.03 226.599 L1357.03 221.9 Q1359.12 223.035 1361.34 223.59 Q1363.56 224.146 1366.04 224.146 Q1370.04 224.146 1372.38 222.039 Q1374.72 219.933 1374.72 216.322 Q1374.72 212.711 1372.38 210.604 Q1370.04 208.498 1366.04 208.498 Q1364.16 208.498 1362.29 208.914 Q1360.44 209.331 1358.49 210.211 L1358.49 192.85 Z" fill="#000000" fill-rule="nonzero" fill-opacity="1" /><path clip-path="url(#clip980)" d="M1743.36 31.7342 Q1743.36 26.5259 1741.2 23.6613 Q1739.06 20.7968 1735.18 20.7968 Q1731.33 20.7968 1729.17 23.6613 Q1727.03 26.5259 1727.03 31.7342 Q1727.03 36.9165 1729.17 39.781 Q1731.33 42.6456 1735.18 42.6456 Q1739.06 42.6456 1741.2 39.781 Q1743.36 36.9165 1743.36 31.7342 M1748.15 43.0362 Q1748.15 50.4841 1744.84 54.1039 Q1741.54 57.7497 1734.71 57.7497 Q1732.19 57.7497 1729.95 57.3591 Q1727.71 56.9945 1725.6 56.2132 L1725.6 51.5518 Q1727.71 52.6976 1729.77 53.2445 Q1731.82 53.7914 1733.96 53.7914 Q1738.67 53.7914 1741.02 51.3174 Q1743.36 48.8695 1743.36 43.8956 L1743.36 41.5258 Q1741.88 44.1039 1739.56 45.38 Q1737.24 46.656 1734.01 46.656 Q1728.65 46.656 1725.36 42.5675 Q1722.08 38.479 1722.08 31.7342 Q1722.08 24.9634 1725.36 20.8749 Q1728.65 16.7864 1734.01 16.7864 Q1737.24 16.7864 1739.56 18.0624 Q1741.88 19.3384 1743.36 21.9165 L1743.36 17.4895 L1748.15 17.4895 L1748.15 43.0362 Z" fill="#000000" fill-rule="nonzero" fill-opacity="1" /><path clip-path="url(#clip980)" d="M1777.21 21.9165 L1777.21 6.13538 L1782.01 6.13538 L1782.01 46.656 L1777.21 46.656 L1777.21 42.281 Q1775.7 44.8852 1773.39 46.1612 Q1771.09 47.4112 1767.86 47.4112 Q1762.58 47.4112 1759.25 43.1925 Q1755.94 38.9737 1755.94 32.0988 Q1755.94 25.2238 1759.25 21.0051 Q1762.58 16.7864 1767.86 16.7864 Q1771.09 16.7864 1773.39 18.0624 Q1775.7 19.3124 1777.21 21.9165 M1760.89 32.0988 Q1760.89 37.3852 1763.05 40.406 Q1765.23 43.4008 1769.04 43.4008 Q1772.84 43.4008 1775.03 40.406 Q1777.21 37.3852 1777.21 32.0988 Q1777.21 26.8124 1775.03 23.8176 Q1772.84 20.7968 1769.04 20.7968 Q1765.23 20.7968 1763.05 23.8176 Q1760.89 26.8124 1760.89 32.0988 Z" fill="#000000" fill-rule="nonzero" fill-opacity="1" /><path clip-path="url(#clip980)" d="M1796.51 42.281 L1796.51 57.7497 L1791.69 57.7497 L1791.69 17.4895 L1796.51 17.4895 L1796.51 21.9165 Q1798.02 19.3124 1800.31 18.0624 Q1802.63 16.7864 1805.83 16.7864 Q1811.15 16.7864 1814.45 21.0051 Q1817.79 25.2238 1817.79 32.0988 Q1817.79 38.9737 1814.45 43.1925 Q1811.15 47.4112 1805.83 47.4112 Q1802.63 47.4112 1800.31 46.1612 Q1798.02 44.8852 1796.51 42.281 M1812.81 32.0988 Q1812.81 26.8124 1810.62 23.8176 Q1808.46 20.7968 1804.66 20.7968 Q1800.86 20.7968 1798.67 23.8176 Q1796.51 26.8124 1796.51 32.0988 Q1796.51 37.3852 1798.67 40.406 Q1800.86 43.4008 1804.66 43.4008 Q1808.46 43.4008 1810.62 40.406 Q1812.81 37.3852 1812.81 32.0988 Z" fill="#000000" fill-rule="nonzero" fill-opacity="1" /><path clip-path="url(#clip980)" d="M1861.87 21.9165 L1861.87 6.13538 L1866.67 6.13538 L1866.67 46.656 L1861.87 46.656 L1861.87 42.281 Q1860.36 44.8852 1858.05 46.1612 Q1855.75 47.4112 1852.53 47.4112 Q1847.24 47.4112 1843.91 43.1925 Q1840.6 38.9737 1840.6 32.0988 Q1840.6 25.2238 1843.91 21.0051 Q1847.24 16.7864 1852.53 16.7864 Q1855.75 16.7864 1858.05 18.0624 Q1860.36 19.3124 1861.87 21.9165 M1845.55 32.0988 Q1845.55 37.3852 1847.71 40.406 Q1849.9 43.4008 1853.7 43.4008 Q1857.5 43.4008 1859.69 40.406 Q1861.87 37.3852 1861.87 32.0988 Q1861.87 26.8124 1859.69 23.8176 Q1857.5 20.7968 1853.7 20.7968 Q1849.9 20.7968 1847.71 23.8176 Q1845.55 26.8124 1845.55 32.0988 Z" fill="#000000" fill-rule="nonzero" fill-opacity="1" /><path clip-path="url(#clip980)" d="M1901.48 30.8748 L1901.48 33.2186 L1879.45 33.2186 Q1879.77 38.1665 1882.42 40.7706 Q1885.1 43.3487 1889.87 43.3487 Q1892.63 43.3487 1895.21 42.6716 Q1897.81 41.9946 1900.36 40.6404 L1900.36 45.1716 Q1897.79 46.2654 1895.08 46.8383 Q1892.37 47.4112 1889.58 47.4112 Q1882.6 47.4112 1878.52 43.3487 Q1874.45 39.2862 1874.45 32.3592 Q1874.45 25.1978 1878.31 21.0051 Q1882.19 16.7864 1888.75 16.7864 Q1894.63 16.7864 1898.05 20.5884 Q1901.48 24.3645 1901.48 30.8748 M1896.69 29.4686 Q1896.64 25.5363 1894.48 23.1926 Q1892.34 20.8488 1888.8 20.8488 Q1884.79 20.8488 1882.37 23.1145 Q1879.97 25.3801 1879.61 29.4946 L1896.69 29.4686 Z" fill="#000000" fill-rule="nonzero" fill-opacity="1" /><path clip-path="url(#clip980)" d="M1924.11 6.13538 L1924.11 10.1197 L1919.53 10.1197 Q1916.95 10.1197 1915.94 11.1614 Q1914.95 12.2031 1914.95 14.9114 L1914.95 17.4895 L1922.84 17.4895 L1922.84 21.2134 L1914.95 21.2134 L1914.95 46.656 L1910.13 46.656 L1910.13 21.2134 L1905.55 21.2134 L1905.55 17.4895 L1910.13 17.4895 L1910.13 15.4583 Q1910.13 10.5885 1912.4 8.37496 Q1914.66 6.13538 1919.58 6.13538 L1924.11 6.13538 Z" fill="#000000" fill-rule="nonzero" fill-opacity="1" /><path clip-path="url(#clip980)" d="M1928.12 6.13538 L1932.92 6.13538 L1932.92 46.656 L1928.12 46.656 L1928.12 6.13538 Z" fill="#000000" fill-rule="nonzero" fill-opacity="1" /><path clip-path="url(#clip980)" d="M1956.2 31.9946 Q1950.39 31.9946 1948.15 33.3227 Q1945.91 34.6509 1945.91 37.854 Q1945.91 40.406 1947.58 41.9164 Q1949.27 43.4008 1952.16 43.4008 Q1956.14 43.4008 1958.54 40.5883 Q1960.96 37.7498 1960.96 33.0623 L1960.96 31.9946 L1956.2 31.9946 M1965.75 30.0155 L1965.75 46.656 L1960.96 46.656 L1960.96 42.2289 Q1959.32 44.8852 1956.87 46.1612 Q1954.43 47.4112 1950.88 47.4112 Q1946.41 47.4112 1943.75 44.9112 Q1941.12 42.3852 1941.12 38.1665 Q1941.12 33.2446 1944.4 30.7446 Q1947.71 28.2446 1954.24 28.2446 L1960.96 28.2446 L1960.96 27.7759 Q1960.96 24.4686 1958.78 22.6718 Q1956.61 20.8488 1952.68 20.8488 Q1950.18 20.8488 1947.81 21.4478 Q1945.44 22.0468 1943.25 23.2447 L1943.25 18.8176 Q1945.88 17.802 1948.36 17.3072 Q1950.83 16.7864 1953.18 16.7864 Q1959.5 16.7864 1962.63 20.0676 Q1965.75 23.3488 1965.75 30.0155 Z" fill="#000000" fill-rule="nonzero" fill-opacity="1" /><path clip-path="url(#clip980)" d="M1980.36 9.20828 L1980.36 17.4895 L1990.23 17.4895 L1990.23 21.2134 L1980.36 21.2134 L1980.36 37.0467 Q1980.36 40.6144 1981.33 41.63 Q1982.32 42.6456 1985.31 42.6456 L1990.23 42.6456 L1990.23 46.656 L1985.31 46.656 Q1979.76 46.656 1977.66 44.5987 Q1975.55 42.5154 1975.55 37.0467 L1975.55 21.2134 L1972.03 21.2134 L1972.03 17.4895 L1975.55 17.4895 L1975.55 9.20828 L1980.36 9.20828 Z" fill="#000000" fill-rule="nonzero" fill-opacity="1" /><path clip-path="url(#clip980)" d="M2007.84 20.8488 Q2003.98 20.8488 2001.74 23.8697 Q1999.5 26.8644 1999.5 32.0988 Q1999.5 37.3331 2001.72 40.354 Q2003.96 43.3487 2007.84 43.3487 Q2011.67 43.3487 2013.91 40.3279 Q2016.14 37.3071 2016.14 32.0988 Q2016.14 26.9165 2013.91 23.8957 Q2011.67 20.8488 2007.84 20.8488 M2007.84 16.7864 Q2014.09 16.7864 2017.66 20.8488 Q2021.22 24.9113 2021.22 32.0988 Q2021.22 39.2602 2017.66 43.3487 Q2014.09 47.4112 2007.84 47.4112 Q2001.56 47.4112 1997.99 43.3487 Q1994.45 39.2602 1994.45 32.0988 Q1994.45 24.9113 1997.99 20.8488 Q2001.56 16.7864 2007.84 16.7864 Z" fill="#000000" fill-rule="nonzero" fill-opacity="1" /><path clip-path="url(#clip980)" d="M2046.07 21.9686 Q2045.26 21.4999 2044.3 21.2916 Q2043.36 21.0572 2042.21 21.0572 Q2038.15 21.0572 2035.96 23.7134 Q2033.8 26.3436 2033.8 31.2915 L2033.8 46.656 L2028.98 46.656 L2028.98 17.4895 L2033.8 17.4895 L2033.8 22.0207 Q2035.31 19.3645 2037.73 18.0884 Q2040.15 16.7864 2043.62 16.7864 Q2044.11 16.7864 2044.71 16.8645 Q2045.31 16.9166 2046.04 17.0468 L2046.07 21.9686 Z" fill="#000000" fill-rule="nonzero" fill-opacity="1" /><path clip-path="url(#clip983)" d="M1526.14 1009.85 L1568.25 980.948 L1610.36 946.486 L1652.47 942.521 L1694.58 940.815 L1736.69 911.477 L1778.8 904.706 L1820.91 863.774 L1863.02 833.437 L1905.13 832.048 L1947.24 773.996 L1989.35 751.623 L2031.46 743.831 L2073.57 734.109 L2115.68 716.09 L2157.79 696.045 L2199.9 695.372 L2242.01 675.463 L2284.12 688.664 L2326.23 682.643 L2326.23 418.101 L2284.12 441.958 L2242.01 476.024 L2199.9 531.082 L2157.79 554.865 L2115.68 575.523 L2073.57 596.267 L2031.46 634.503 L1989.35 646.008 L1947.24 699.369 L1905.13 693.705 L1863.02 780.727 L1820.91 831.598 L1778.8 833.106 L1736.69 826.923 L1694.58 786.02 L1652.47 813.173 L1610.36 818.225 L1568.25 891.201 L1526.14 940.477  Z" fill="#009af9" fill-rule="evenodd" fill-opacity="0.1"/>
<polyline clip-path="url(#clip983)" style="stroke:#009af9; stroke-linecap:round; stroke-linejoin:round; stroke-width:4; stroke-opacity:1; fill:none" points="1526.14,975.163 1568.25,936.075 1610.36,882.355 1652.47,877.847 1694.58,863.418 1736.69,869.2 1778.8,868.906 1820.91,847.686 1863.02,807.082 1905.13,762.877 1947.24,736.682 1989.35,698.815 2031.46,689.167 2073.57,665.188 2115.68,645.806 2157.79,625.455 2199.9,613.227 2242.01,575.743 2284.12,565.311 2326.23,550.372 "/>
<path clip-path="url(#clip983)" d="M1526.14 1016.83 L1568.25 1043.98 L1610.36 1052.03 L1652.47 1048.75 L1694.58 1066.98 L1736.69 1070.59 L1778.8 1046.82 L1820.91 1026.77 L1863.02 1026.28 L1905.13 996.327 L1947.24 954.067 L1989.35 909.51 L2031.46 880.192 L2073.57 829.835 L2115.68 759.723 L2157.79 737.256 L2199.9 710.013 L2242.01 732.491 L2284.12 758.801 L2326.23 763.16 L2326.23 120.65 L2284.12 170.792 L2242.01 252.641 L2199.9 290.36 L2157.79 325.418 L2115.68 384.442 L2073.57 468.498 L2031.46 521.052 L1989.35 555.092 L1947.24 530.298 L1905.13 528.531 L1863.02 549.699 L1820.91 582.199 L1778.8 606.186 L1736.69 668.07 L1694.58 687.782 L1652.47 744.643 L1610.36 835.865 L1568.25 921.676 L1526.14 933.768  Z" fill="#e26f46" fill-rule="evenodd" fill-opacity="0.1"/>
<polyline clip-path="url(#clip983)" style="stroke:#e26f46; stroke-linecap:round; stroke-linejoin:round; stroke-width:4; stroke-opacity:1; fill:none" points="1526.14,975.301 1568.25,982.83 1610.36,943.946 1652.47,896.696 1694.58,877.38 1736.69,869.33 1778.8,826.502 1820.91,804.486 1863.02,787.988 1905.13,762.429 1947.24,742.183 1989.35,732.301 2031.46,700.622 2073.57,649.166 2115.68,572.082 2157.79,531.337 2199.9,500.186 2242.01,492.566 2284.12,464.796 2326.23,441.905 "/>
</svg>
