<?xml version="1.0" encoding="utf-8"?>
<svg xmlns="http://www.w3.org/2000/svg" xmlns:xlink="http://www.w3.org/1999/xlink" width="600" height="400" viewBox="0 0 2400 1600">
<defs>
  <clipPath id="clip920">
    <rect x="0" y="0" width="2400" height="1600"/>
  </clipPath>
</defs>
<path clip-path="url(#clip920)" d="M0 1600 L2400 1600 L2400 0 L0 0  Z" fill="#ffffff" fill-rule="evenodd" fill-opacity="1"/>
<defs>
  <clipPath id="clip921">
    <rect x="480" y="0" width="1681" height="1600"/>
  </clipPath>
</defs>
<path clip-path="url(#clip920)" d="M230.765 1486.45 L2352.76 1486.45 L2352.76 106.192 L230.765 106.192  Z" fill="#ffffff" fill-rule="evenodd" fill-opacity="1"/>
<defs>
  <clipPath id="clip922">
    <rect x="230" y="106" width="2123" height="1381"/>
  </clipPath>
</defs>
<polyline clip-path="url(#clip922)" style="stroke:#000000; stroke-linecap:round; stroke-linejoin:round; stroke-width:2; stroke-opacity:0.1; fill:none" points="541.056,1486.45 541.056,106.192 "/>
<polyline clip-path="url(#clip922)" style="stroke:#000000; stroke-linecap:round; stroke-linejoin:round; stroke-width:2; stroke-opacity:0.1; fill:none" points="916.408,1486.45 916.408,106.192 "/>
<polyline clip-path="url(#clip922)" style="stroke:#000000; stroke-linecap:round; stroke-linejoin:round; stroke-width:2; stroke-opacity:0.1; fill:none" points="1291.76,1486.45 1291.76,106.192 "/>
<polyline clip-path="url(#clip922)" style="stroke:#000000; stroke-linecap:round; stroke-linejoin:round; stroke-width:2; stroke-opacity:0.1; fill:none" points="1667.11,1486.45 1667.11,106.192 "/>
<polyline clip-path="url(#clip922)" style="stroke:#000000; stroke-linecap:round; stroke-linejoin:round; stroke-width:2; stroke-opacity:0.1; fill:none" points="2042.46,1486.45 2042.46,106.192 "/>
<polyline clip-path="url(#clip922)" style="stroke:#000000; stroke-linecap:round; stroke-linejoin:round; stroke-width:2; stroke-opacity:0.1; fill:none" points="230.765,1298.71 2352.76,1298.71 "/>
<polyline clip-path="url(#clip922)" style="stroke:#000000; stroke-linecap:round; stroke-linejoin:round; stroke-width:2; stroke-opacity:0.1; fill:none" points="230.765,1072.25 2352.76,1072.25 "/>
<polyline clip-path="url(#clip922)" style="stroke:#000000; stroke-linecap:round; stroke-linejoin:round; stroke-width:2; stroke-opacity:0.1; fill:none" points="230.765,845.798 2352.76,845.798 "/>
<polyline clip-path="url(#clip922)" style="stroke:#000000; stroke-linecap:round; stroke-linejoin:round; stroke-width:2; stroke-opacity:0.1; fill:none" points="230.765,619.342 2352.76,619.342 "/>
<polyline clip-path="url(#clip922)" style="stroke:#000000; stroke-linecap:round; stroke-linejoin:round; stroke-width:2; stroke-opacity:0.1; fill:none" points="230.765,392.886 2352.76,392.886 "/>
<polyline clip-path="url(#clip922)" style="stroke:#000000; stroke-linecap:round; stroke-linejoin:round; stroke-width:2; stroke-opacity:0.1; fill:none" points="230.765,166.43 2352.76,166.43 "/>
<polyline clip-path="url(#clip920)" style="stroke:#000000; stroke-linecap:round; stroke-linejoin:round; stroke-width:4; stroke-opacity:1; fill:none" points="230.765,1486.45 2352.76,1486.45 "/>
<polyline clip-path="url(#clip920)" style="stroke:#000000; stroke-linecap:round; stroke-linejoin:round; stroke-width:4; stroke-opacity:1; fill:none" points="541.056,1486.45 541.056,1467.55 "/>
<polyline clip-path="url(#clip920)" style="stroke:#000000; stroke-linecap:round; stroke-linejoin:round; stroke-width:4; stroke-opacity:1; fill:none" points="916.408,1486.45 916.408,1467.55 "/>
<polyline clip-path="url(#clip920)" style="stroke:#000000; stroke-linecap:round; stroke-linejoin:round; stroke-width:4; stroke-opacity:1; fill:none" points="1291.76,1486.45 1291.76,1467.55 "/>
<polyline clip-path="url(#clip920)" style="stroke:#000000; stroke-linecap:round; stroke-linejoin:round; stroke-width:4; stroke-opacity:1; fill:none" points="1667.11,1486.45 1667.11,1467.55 "/>
<polyline clip-path="url(#clip920)" style="stroke:#000000; stroke-linecap:round; stroke-linejoin:round; stroke-width:4; stroke-opacity:1; fill:none" points="2042.46,1486.45 2042.46,1467.55 "/>
<path clip-path="url(#clip920)" d="M545.303 1530.21 Q548.66 1530.93 550.535 1533.2 Q552.433 1535.47 552.433 1538.8 Q552.433 1543.92 548.914 1546.72 Q545.396 1549.52 538.915 1549.52 Q536.739 1549.52 534.424 1549.08 Q532.132 1548.66 529.678 1547.81 L529.678 1543.29 Q531.623 1544.43 533.938 1545.01 Q536.252 1545.58 538.776 1545.58 Q543.174 1545.58 545.465 1543.85 Q547.78 1542.11 547.78 1538.8 Q547.78 1535.75 545.627 1534.03 Q543.498 1532.3 539.678 1532.3 L535.651 1532.3 L535.651 1528.45 L539.864 1528.45 Q543.313 1528.45 545.141 1527.09 Q546.97 1525.7 546.97 1523.11 Q546.97 1520.45 545.072 1519.03 Q543.197 1517.6 539.678 1517.6 Q537.757 1517.6 535.558 1518.01 Q533.359 1518.43 530.72 1519.31 L530.72 1515.14 Q533.382 1514.4 535.697 1514.03 Q538.035 1513.66 540.095 1513.66 Q545.419 1513.66 548.521 1516.09 Q551.623 1518.5 551.623 1522.62 Q551.623 1525.49 549.979 1527.48 Q548.336 1529.45 545.303 1530.21 Z" fill="#000000" fill-rule="nonzero" fill-opacity="1" /><path clip-path="url(#clip920)" d="M916.813 1529.7 Q913.665 1529.7 911.813 1531.86 Q909.984 1534.01 909.984 1537.76 Q909.984 1541.49 911.813 1543.66 Q913.665 1545.82 916.813 1545.82 Q919.961 1545.82 921.79 1543.66 Q923.642 1541.49 923.642 1537.76 Q923.642 1534.01 921.79 1531.86 Q919.961 1529.7 916.813 1529.7 M926.095 1515.05 L926.095 1519.31 Q924.336 1518.48 922.531 1518.04 Q920.748 1517.6 918.989 1517.6 Q914.359 1517.6 911.906 1520.72 Q909.475 1523.85 909.128 1530.17 Q910.494 1528.15 912.554 1527.09 Q914.614 1526 917.091 1526 Q922.299 1526 925.308 1529.17 Q928.341 1532.32 928.341 1537.76 Q928.341 1543.08 925.193 1546.3 Q922.044 1549.52 916.813 1549.52 Q910.818 1549.52 907.646 1544.94 Q904.475 1540.33 904.475 1531.6 Q904.475 1523.41 908.364 1518.55 Q912.253 1513.66 918.804 1513.66 Q920.563 1513.66 922.345 1514.01 Q924.151 1514.36 926.095 1515.05 Z" fill="#000000" fill-rule="nonzero" fill-opacity="1" /><path clip-path="url(#clip920)" d="M1282.06 1548.13 L1282.06 1543.87 Q1283.82 1544.7 1285.63 1545.14 Q1287.43 1545.58 1289.17 1545.58 Q1293.8 1545.58 1296.23 1542.48 Q1298.68 1539.36 1299.03 1533.01 Q1297.69 1535.01 1295.63 1536.07 Q1293.57 1537.13 1291.07 1537.13 Q1285.88 1537.13 1282.85 1534.01 Q1279.84 1530.86 1279.84 1525.42 Q1279.84 1520.1 1282.99 1516.88 Q1286.14 1513.66 1291.37 1513.66 Q1297.36 1513.66 1300.51 1518.27 Q1303.68 1522.85 1303.68 1531.6 Q1303.68 1539.77 1299.79 1544.66 Q1295.93 1549.52 1289.38 1549.52 Q1287.62 1549.52 1285.81 1549.17 Q1284.01 1548.82 1282.06 1548.13 M1291.37 1533.48 Q1294.51 1533.48 1296.34 1531.32 Q1298.2 1529.17 1298.2 1525.42 Q1298.2 1521.7 1296.34 1519.54 Q1294.51 1517.37 1291.37 1517.37 Q1288.22 1517.37 1286.37 1519.54 Q1284.54 1521.7 1284.54 1525.42 Q1284.54 1529.17 1286.37 1531.32 Q1288.22 1533.48 1291.37 1533.48 Z" fill="#000000" fill-rule="nonzero" fill-opacity="1" /><path clip-path="url(#clip920)" d="M1642.6 1544.91 L1650.24 1544.91 L1650.24 1518.55 L1641.93 1520.21 L1641.93 1515.95 L1650.19 1514.29 L1654.87 1514.29 L1654.87 1544.91 L1662.51 1544.91 L1662.51 1548.85 L1642.6 1548.85 L1642.6 1544.91 Z" fill="#000000" fill-rule="nonzero" fill-opacity="1" /><path clip-path="url(#clip920)" d="M1675.98 1544.91 L1692.3 1544.91 L1692.3 1548.85 L1670.35 1548.85 L1670.35 1544.91 Q1673.02 1542.16 1677.6 1537.53 Q1682.2 1532.88 1683.39 1531.53 Q1685.63 1529.01 1686.51 1527.27 Q1687.41 1525.51 1687.41 1523.82 Q1687.41 1521.07 1685.47 1519.33 Q1683.55 1517.6 1680.45 1517.6 Q1678.25 1517.6 1675.79 1518.36 Q1673.36 1519.13 1670.58 1520.68 L1670.58 1515.95 Q1673.41 1514.82 1675.86 1514.24 Q1678.32 1513.66 1680.35 1513.66 Q1685.72 1513.66 1688.92 1516.35 Q1692.11 1519.03 1692.11 1523.52 Q1692.11 1525.65 1691.3 1527.57 Q1690.52 1529.47 1688.41 1532.07 Q1687.83 1532.74 1684.73 1535.95 Q1681.63 1539.15 1675.98 1544.91 Z" fill="#000000" fill-rule="nonzero" fill-opacity="1" /><path clip-path="url(#clip920)" d="M2017.65 1544.91 L2025.29 1544.91 L2025.29 1518.55 L2016.98 1520.21 L2016.98 1515.95 L2025.24 1514.29 L2029.92 1514.29 L2029.92 1544.91 L2037.56 1544.91 L2037.56 1548.85 L2017.65 1548.85 L2017.65 1544.91 Z" fill="#000000" fill-rule="nonzero" fill-opacity="1" /><path clip-path="url(#clip920)" d="M2047.05 1514.29 L2065.4 1514.29 L2065.4 1518.22 L2051.33 1518.22 L2051.33 1526.7 Q2052.35 1526.35 2053.37 1526.19 Q2054.39 1526 2055.4 1526 Q2061.19 1526 2064.57 1529.17 Q2067.95 1532.34 2067.95 1537.76 Q2067.95 1543.34 2064.48 1546.44 Q2061.01 1549.52 2054.69 1549.52 Q2052.51 1549.52 2050.24 1549.15 Q2048 1548.78 2045.59 1548.04 L2045.59 1543.34 Q2047.67 1544.47 2049.9 1545.03 Q2052.12 1545.58 2054.59 1545.58 Q2058.6 1545.58 2060.94 1543.48 Q2063.27 1541.37 2063.27 1537.76 Q2063.27 1534.15 2060.94 1532.04 Q2058.6 1529.94 2054.59 1529.94 Q2052.72 1529.94 2050.84 1530.35 Q2048.99 1530.77 2047.05 1531.65 L2047.05 1514.29 Z" fill="#000000" fill-rule="nonzero" fill-opacity="1" /><polyline clip-path="url(#clip920)" style="stroke:#000000; stroke-linecap:round; stroke-linejoin:round; stroke-width:4; stroke-opacity:1; fill:none" points="230.765,1486.45 230.765,106.192 "/>
<polyline clip-path="url(#clip920)" style="stroke:#000000; stroke-linecap:round; stroke-linejoin:round; stroke-width:4; stroke-opacity:1; fill:none" points="230.765,1298.71 249.662,1298.71 "/>
<polyline clip-path="url(#clip920)" style="stroke:#000000; stroke-linecap:round; stroke-linejoin:round; stroke-width:4; stroke-opacity:1; fill:none" points="230.765,1072.25 249.662,1072.25 "/>
<polyline clip-path="url(#clip920)" style="stroke:#000000; stroke-linecap:round; stroke-linejoin:round; stroke-width:4; stroke-opacity:1; fill:none" points="230.765,845.798 249.662,845.798 "/>
<polyline clip-path="url(#clip920)" style="stroke:#000000; stroke-linecap:round; stroke-linejoin:round; stroke-width:4; stroke-opacity:1; fill:none" points="230.765,619.342 249.662,619.342 "/>
<polyline clip-path="url(#clip920)" style="stroke:#000000; stroke-linecap:round; stroke-linejoin:round; stroke-width:4; stroke-opacity:1; fill:none" points="230.765,392.886 249.662,392.886 "/>
<polyline clip-path="url(#clip920)" style="stroke:#000000; stroke-linecap:round; stroke-linejoin:round; stroke-width:4; stroke-opacity:1; fill:none" points="230.765,166.43 249.662,166.43 "/>
<path clip-path="url(#clip920)" d="M50.9921 1281.43 L73.2142 1281.43 L73.2142 1283.42 L60.668 1315.99 L55.7838 1315.99 L67.5893 1285.36 L50.9921 1285.36 L50.9921 1281.43 Z" fill="#000000" fill-rule="nonzero" fill-opacity="1" /><path clip-path="url(#clip920)" d="M96.5011 1297.35 Q99.8576 1298.07 101.733 1300.34 Q103.631 1302.61 103.631 1305.94 Q103.631 1311.06 100.112 1313.86 Q96.5937 1316.66 90.1123 1316.66 Q87.9364 1316.66 85.6216 1316.22 Q83.3299 1315.8 80.8762 1314.95 L80.8762 1310.43 Q82.8207 1311.57 85.1355 1312.15 Q87.4503 1312.73 89.9734 1312.73 Q94.3715 1312.73 96.6632 1310.99 Q98.978 1309.25 98.978 1305.94 Q98.978 1302.89 96.8252 1301.17 Q94.6956 1299.44 90.8762 1299.44 L86.8484 1299.44 L86.8484 1295.6 L91.0614 1295.6 Q94.5104 1295.6 96.3391 1294.23 Q98.1678 1292.84 98.1678 1290.25 Q98.1678 1287.59 96.2697 1286.17 Q94.3947 1284.74 90.8762 1284.74 Q88.9549 1284.74 86.7558 1285.16 Q84.5568 1285.57 81.9179 1286.45 L81.9179 1282.29 Q84.5799 1281.54 86.8947 1281.17 Q89.2327 1280.8 91.2928 1280.8 Q96.6169 1280.8 99.7187 1283.23 Q102.821 1285.64 102.821 1289.76 Q102.821 1292.63 101.177 1294.62 Q99.5335 1296.59 96.5011 1297.35 Z" fill="#000000" fill-rule="nonzero" fill-opacity="1" /><path clip-path="url(#clip920)" d="M122.496 1284.51 Q118.885 1284.51 117.057 1288.07 Q115.251 1291.61 115.251 1298.74 Q115.251 1305.85 117.057 1309.42 Q118.885 1312.96 122.496 1312.96 Q126.131 1312.96 127.936 1309.42 Q129.765 1305.85 129.765 1298.74 Q129.765 1291.61 127.936 1288.07 Q126.131 1284.51 122.496 1284.51 M122.496 1280.8 Q128.307 1280.8 131.362 1285.41 Q134.441 1289.99 134.441 1298.74 Q134.441 1307.47 131.362 1312.08 Q128.307 1316.66 122.496 1316.66 Q116.686 1316.66 113.608 1312.08 Q110.552 1307.47 110.552 1298.74 Q110.552 1289.99 113.608 1285.41 Q116.686 1280.8 122.496 1280.8 Z" fill="#000000" fill-rule="nonzero" fill-opacity="1" /><path clip-path="url(#clip920)" d="M152.658 1284.51 Q149.047 1284.51 147.218 1288.07 Q145.413 1291.61 145.413 1298.74 Q145.413 1305.85 147.218 1309.42 Q149.047 1312.96 152.658 1312.96 Q156.292 1312.96 158.098 1309.42 Q159.927 1305.85 159.927 1298.74 Q159.927 1291.61 158.098 1288.07 Q156.292 1284.51 152.658 1284.51 M152.658 1280.8 Q158.468 1280.8 161.524 1285.41 Q164.603 1289.99 164.603 1298.74 Q164.603 1307.47 161.524 1312.08 Q158.468 1316.66 152.658 1316.66 Q146.848 1316.66 143.769 1312.08 Q140.714 1307.47 140.714 1298.74 Q140.714 1289.99 143.769 1285.41 Q146.848 1280.8 152.658 1280.8 Z" fill="#000000" fill-rule="nonzero" fill-opacity="1" /><path clip-path="url(#clip920)" d="M182.82 1284.51 Q179.209 1284.51 177.38 1288.07 Q175.575 1291.61 175.575 1298.74 Q175.575 1305.85 177.38 1309.42 Q179.209 1312.96 182.82 1312.96 Q186.454 1312.96 188.26 1309.42 Q190.089 1305.85 190.089 1298.74 Q190.089 1291.61 188.26 1288.07 Q186.454 1284.51 182.82 1284.51 M182.82 1280.8 Q188.63 1280.8 191.686 1285.41 Q194.765 1289.99 194.765 1298.74 Q194.765 1307.47 191.686 1312.08 Q188.63 1316.66 182.82 1316.66 Q177.01 1316.66 173.931 1312.08 Q170.876 1307.47 170.876 1298.74 Q170.876 1289.99 173.931 1285.41 Q177.01 1280.8 182.82 1280.8 Z" fill="#000000" fill-rule="nonzero" fill-opacity="1" /><path clip-path="url(#clip920)" d="M50.9921 1054.97 L73.2142 1054.97 L73.2142 1056.96 L60.668 1089.53 L55.7838 1089.53 L67.5893 1058.91 L50.9921 1058.91 L50.9921 1054.97 Z" fill="#000000" fill-rule="nonzero" fill-opacity="1" /><path clip-path="url(#clip920)" d="M95.1817 1059.05 L83.3762 1077.5 L95.1817 1077.5 L95.1817 1059.05 M93.9549 1054.97 L99.8345 1054.97 L99.8345 1077.5 L104.765 1077.5 L104.765 1081.39 L99.8345 1081.39 L99.8345 1089.53 L95.1817 1089.53 L95.1817 1081.39 L79.5799 1081.39 L79.5799 1076.87 L93.9549 1054.97 Z" fill="#000000" fill-rule="nonzero" fill-opacity="1" /><path clip-path="url(#clip920)" d="M122.496 1058.05 Q118.885 1058.05 117.057 1061.62 Q115.251 1065.16 115.251 1072.29 Q115.251 1079.39 117.057 1082.96 Q118.885 1086.5 122.496 1086.5 Q126.131 1086.5 127.936 1082.96 Q129.765 1079.39 129.765 1072.29 Q129.765 1065.16 127.936 1061.62 Q126.131 1058.05 122.496 1058.05 M122.496 1054.35 Q128.307 1054.35 131.362 1058.95 Q134.441 1063.54 134.441 1072.29 Q134.441 1081.01 131.362 1085.62 Q128.307 1090.2 122.496 1090.2 Q116.686 1090.2 113.608 1085.62 Q110.552 1081.01 110.552 1072.29 Q110.552 1063.54 113.608 1058.95 Q116.686 1054.35 122.496 1054.35 Z" fill="#000000" fill-rule="nonzero" fill-opacity="1" /><path clip-path="url(#clip920)" d="M152.658 1058.05 Q149.047 1058.05 147.218 1061.62 Q145.413 1065.16 145.413 1072.29 Q145.413 1079.39 147.218 1082.96 Q149.047 1086.5 152.658 1086.5 Q156.292 1086.5 158.098 1082.96 Q159.927 1079.39 159.927 1072.29 Q159.927 1065.16 158.098 1061.62 Q156.292 1058.05 152.658 1058.05 M152.658 1054.35 Q158.468 1054.35 161.524 1058.95 Q164.603 1063.54 164.603 1072.29 Q164.603 1081.01 161.524 1085.62 Q158.468 1090.2 152.658 1090.2 Q146.848 1090.2 143.769 1085.62 Q140.714 1081.01 140.714 1072.29 Q140.714 1063.54 143.769 1058.95 Q146.848 1054.35 152.658 1054.35 Z" fill="#000000" fill-rule="nonzero" fill-opacity="1" /><path clip-path="url(#clip920)" d="M182.82 1058.05 Q179.209 1058.05 177.38 1061.62 Q175.575 1065.16 175.575 1072.29 Q175.575 1079.39 177.38 1082.96 Q179.209 1086.5 182.82 1086.5 Q186.454 1086.5 188.26 1082.96 Q190.089 1079.39 190.089 1072.29 Q190.089 1065.16 188.26 1061.62 Q186.454 1058.05 182.82 1058.05 M182.82 1054.35 Q188.63 1054.35 191.686 1058.95 Q194.765 1063.54 194.765 1072.29 Q194.765 1081.01 191.686 1085.62 Q188.63 1090.2 182.82 1090.2 Q177.01 1090.2 173.931 1085.62 Q170.876 1081.01 170.876 1072.29 Q170.876 1063.54 173.931 1058.95 Q177.01 1054.35 182.82 1054.35 Z" fill="#000000" fill-rule="nonzero" fill-opacity="1" /><path clip-path="url(#clip920)" d="M50.9921 828.518 L73.2142 828.518 L73.2142 830.508 L60.668 863.078 L55.7838 863.078 L67.5893 832.453 L50.9921 832.453 L50.9921 828.518 Z" fill="#000000" fill-rule="nonzero" fill-opacity="1" /><path clip-path="url(#clip920)" d="M82.3808 828.518 L100.737 828.518 L100.737 832.453 L86.6632 832.453 L86.6632 840.925 Q87.6817 840.578 88.7003 840.416 Q89.7188 840.23 90.7373 840.23 Q96.5243 840.23 99.9039 843.402 Q103.284 846.573 103.284 851.99 Q103.284 857.568 99.8113 860.67 Q96.3391 863.749 90.0197 863.749 Q87.8438 863.749 85.5753 863.379 Q83.3299 863.008 80.9225 862.267 L80.9225 857.568 Q83.0058 858.703 85.2281 859.258 Q87.4503 859.814 89.9271 859.814 Q93.9317 859.814 96.2697 857.707 Q98.6076 855.601 98.6076 851.99 Q98.6076 848.379 96.2697 846.272 Q93.9317 844.166 89.9271 844.166 Q88.0521 844.166 86.1771 844.582 Q84.3253 844.999 82.3808 845.879 L82.3808 828.518 Z" fill="#000000" fill-rule="nonzero" fill-opacity="1" /><path clip-path="url(#clip920)" d="M122.496 831.596 Q118.885 831.596 117.057 835.161 Q115.251 838.703 115.251 845.832 Q115.251 852.939 117.057 856.504 Q118.885 860.045 122.496 860.045 Q126.131 860.045 127.936 856.504 Q129.765 852.939 129.765 845.832 Q129.765 838.703 127.936 835.161 Q126.131 831.596 122.496 831.596 M122.496 827.893 Q128.307 827.893 131.362 832.499 Q134.441 837.082 134.441 845.832 Q134.441 854.559 131.362 859.166 Q128.307 863.749 122.496 863.749 Q116.686 863.749 113.608 859.166 Q110.552 854.559 110.552 845.832 Q110.552 837.082 113.608 832.499 Q116.686 827.893 122.496 827.893 Z" fill="#000000" fill-rule="nonzero" fill-opacity="1" /><path clip-path="url(#clip920)" d="M152.658 831.596 Q149.047 831.596 147.218 835.161 Q145.413 838.703 145.413 845.832 Q145.413 852.939 147.218 856.504 Q149.047 860.045 152.658 860.045 Q156.292 860.045 158.098 856.504 Q159.927 852.939 159.927 845.832 Q159.927 838.703 158.098 835.161 Q156.292 831.596 152.658 831.596 M152.658 827.893 Q158.468 827.893 161.524 832.499 Q164.603 837.082 164.603 845.832 Q164.603 854.559 161.524 859.166 Q158.468 863.749 152.658 863.749 Q146.848 863.749 143.769 859.166 Q140.714 854.559 140.714 845.832 Q140.714 837.082 143.769 832.499 Q146.848 827.893 152.658 827.893 Z" fill="#000000" fill-rule="nonzero" fill-opacity="1" /><path clip-path="url(#clip920)" d="M182.82 831.596 Q179.209 831.596 177.38 835.161 Q175.575 838.703 175.575 845.832 Q175.575 852.939 177.38 856.504 Q179.209 860.045 182.82 860.045 Q186.454 860.045 188.26 856.504 Q190.089 852.939 190.089 845.832 Q190.089 838.703 188.26 835.161 Q186.454 831.596 182.82 831.596 M182.82 827.893 Q188.63 827.893 191.686 832.499 Q194.765 837.082 194.765 845.832 Q194.765 854.559 191.686 859.166 Q188.63 863.749 182.82 863.749 Q177.01 863.749 173.931 859.166 Q170.876 854.559 170.876 845.832 Q170.876 837.082 173.931 832.499 Q177.01 827.893 182.82 827.893 Z" fill="#000000" fill-rule="nonzero" fill-opacity="1" /><path clip-path="url(#clip920)" d="M50.9921 602.062 L73.2142 602.062 L73.2142 604.053 L60.668 636.622 L55.7838 636.622 L67.5893 605.997 L50.9921 605.997 L50.9921 602.062 Z" fill="#000000" fill-rule="nonzero" fill-opacity="1" /><path clip-path="url(#clip920)" d="M92.9132 617.478 Q89.7651 617.478 87.9132 619.631 Q86.0845 621.784 86.0845 625.534 Q86.0845 629.261 87.9132 631.437 Q89.7651 633.589 92.9132 633.589 Q96.0613 633.589 97.89 631.437 Q99.7419 629.261 99.7419 625.534 Q99.7419 621.784 97.89 619.631 Q96.0613 617.478 92.9132 617.478 M102.196 602.826 L102.196 607.085 Q100.436 606.252 98.6308 605.812 Q96.8484 605.372 95.0891 605.372 Q90.4595 605.372 88.0058 608.497 Q85.5753 611.622 85.2281 617.941 Q86.5938 615.927 88.654 614.863 Q90.7141 613.775 93.191 613.775 Q98.3993 613.775 101.409 616.946 Q104.441 620.094 104.441 625.534 Q104.441 630.858 101.293 634.076 Q98.1447 637.293 92.9132 637.293 Q86.9179 637.293 83.7466 632.71 Q80.5753 628.103 80.5753 619.377 Q80.5753 611.182 84.4642 606.321 Q88.353 601.437 94.9039 601.437 Q96.6632 601.437 98.4456 601.784 Q100.251 602.131 102.196 602.826 Z" fill="#000000" fill-rule="nonzero" fill-opacity="1" /><path clip-path="url(#clip920)" d="M122.496 605.141 Q118.885 605.141 117.057 608.705 Q115.251 612.247 115.251 619.377 Q115.251 626.483 117.057 630.048 Q118.885 633.589 122.496 633.589 Q126.131 633.589 127.936 630.048 Q129.765 626.483 129.765 619.377 Q129.765 612.247 127.936 608.705 Q126.131 605.141 122.496 605.141 M122.496 601.437 Q128.307 601.437 131.362 606.043 Q134.441 610.627 134.441 619.377 Q134.441 628.103 131.362 632.71 Q128.307 637.293 122.496 637.293 Q116.686 637.293 113.608 632.71 Q110.552 628.103 110.552 619.377 Q110.552 610.627 113.608 606.043 Q116.686 601.437 122.496 601.437 Z" fill="#000000" fill-rule="nonzero" fill-opacity="1" /><path clip-path="url(#clip920)" d="M152.658 605.141 Q149.047 605.141 147.218 608.705 Q145.413 612.247 145.413 619.377 Q145.413 626.483 147.218 630.048 Q149.047 633.589 152.658 633.589 Q156.292 633.589 158.098 630.048 Q159.927 626.483 159.927 619.377 Q159.927 612.247 158.098 608.705 Q156.292 605.141 152.658 605.141 M152.658 601.437 Q158.468 601.437 161.524 606.043 Q164.603 610.627 164.603 619.377 Q164.603 628.103 161.524 632.71 Q158.468 637.293 152.658 637.293 Q146.848 637.293 143.769 632.71 Q140.714 628.103 140.714 619.377 Q140.714 610.627 143.769 606.043 Q146.848 601.437 152.658 601.437 Z" fill="#000000" fill-rule="nonzero" fill-opacity="1" /><path clip-path="url(#clip920)" d="M182.82 605.141 Q179.209 605.141 177.38 608.705 Q175.575 612.247 175.575 619.377 Q175.575 626.483 177.38 630.048 Q179.209 633.589 182.82 633.589 Q186.454 633.589 188.26 630.048 Q190.089 626.483 190.089 619.377 Q190.089 612.247 188.26 608.705 Q186.454 605.141 182.82 605.141 M182.82 601.437 Q188.63 601.437 191.686 606.043 Q194.765 610.627 194.765 619.377 Q194.765 628.103 191.686 632.71 Q188.63 637.293 182.82 637.293 Q177.01 637.293 173.931 632.71 Q170.876 628.103 170.876 619.377 Q170.876 610.627 173.931 606.043 Q177.01 601.437 182.82 601.437 Z" fill="#000000" fill-rule="nonzero" fill-opacity="1" /><path clip-path="url(#clip920)" d="M50.9921 375.606 L73.2142 375.606 L73.2142 377.597 L60.668 410.166 L55.7838 410.166 L67.5893 379.541 L50.9921 379.541 L50.9921 375.606 Z" fill="#000000" fill-rule="nonzero" fill-opacity="1" /><path clip-path="url(#clip920)" d="M81.154 375.606 L103.376 375.606 L103.376 377.597 L90.8299 410.166 L85.9456 410.166 L97.7511 379.541 L81.154 379.541 L81.154 375.606 Z" fill="#000000" fill-rule="nonzero" fill-opacity="1" /><path clip-path="url(#clip920)" d="M122.496 378.685 Q118.885 378.685 117.057 382.25 Q115.251 385.791 115.251 392.921 Q115.251 400.027 117.057 403.592 Q118.885 407.134 122.496 407.134 Q126.131 407.134 127.936 403.592 Q129.765 400.027 129.765 392.921 Q129.765 385.791 127.936 382.25 Q126.131 378.685 122.496 378.685 M122.496 374.981 Q128.307 374.981 131.362 379.588 Q134.441 384.171 134.441 392.921 Q134.441 401.648 131.362 406.254 Q128.307 410.837 122.496 410.837 Q116.686 410.837 113.608 406.254 Q110.552 401.648 110.552 392.921 Q110.552 384.171 113.608 379.588 Q116.686 374.981 122.496 374.981 Z" fill="#000000" fill-rule="nonzero" fill-opacity="1" /><path clip-path="url(#clip920)" d="M152.658 378.685 Q149.047 378.685 147.218 382.25 Q145.413 385.791 145.413 392.921 Q145.413 400.027 147.218 403.592 Q149.047 407.134 152.658 407.134 Q156.292 407.134 158.098 403.592 Q159.927 400.027 159.927 392.921 Q159.927 385.791 158.098 382.25 Q156.292 378.685 152.658 378.685 M152.658 374.981 Q158.468 374.981 161.524 379.588 Q164.603 384.171 164.603 392.921 Q164.603 401.648 161.524 406.254 Q158.468 410.837 152.658 410.837 Q146.848 410.837 143.769 406.254 Q140.714 401.648 140.714 392.921 Q140.714 384.171 143.769 379.588 Q146.848 374.981 152.658 374.981 Z" fill="#000000" fill-rule="nonzero" fill-opacity="1" /><path clip-path="url(#clip920)" d="M182.82 378.685 Q179.209 378.685 177.38 382.25 Q175.575 385.791 175.575 392.921 Q175.575 400.027 177.38 403.592 Q179.209 407.134 182.82 407.134 Q186.454 407.134 188.26 403.592 Q190.089 400.027 190.089 392.921 Q190.089 385.791 188.26 382.25 Q186.454 378.685 182.82 378.685 M182.82 374.981 Q188.63 374.981 191.686 379.588 Q194.765 384.171 194.765 392.921 Q194.765 401.648 191.686 406.254 Q188.63 410.837 182.82 410.837 Q177.01 410.837 173.931 406.254 Q170.876 401.648 170.876 392.921 Q170.876 384.171 173.931 379.588 Q177.01 374.981 182.82 374.981 Z" fill="#000000" fill-rule="nonzero" fill-opacity="1" /><path clip-path="url(#clip920)" d="M50.9921 149.15 L73.2142 149.15 L73.2142 151.141 L60.668 183.71 L55.7838 183.71 L67.5893 153.085 L50.9921 153.085 L50.9921 149.15 Z" fill="#000000" fill-rule="nonzero" fill-opacity="1" /><path clip-path="url(#clip920)" d="M92.3345 167.298 Q89.0012 167.298 87.0799 169.081 Q85.1818 170.863 85.1818 173.988 Q85.1818 177.113 87.0799 178.896 Q89.0012 180.678 92.3345 180.678 Q95.6678 180.678 97.5891 178.896 Q99.5104 177.09 99.5104 173.988 Q99.5104 170.863 97.5891 169.081 Q95.691 167.298 92.3345 167.298 M87.6586 165.308 Q84.6494 164.567 82.9595 162.507 Q81.2929 160.447 81.2929 157.484 Q81.2929 153.34 84.2327 150.933 Q87.1956 148.525 92.3345 148.525 Q97.4965 148.525 100.436 150.933 Q103.376 153.34 103.376 157.484 Q103.376 160.447 101.686 162.507 Q100.02 164.567 97.0335 165.308 Q100.413 166.095 102.288 168.386 Q104.186 170.678 104.186 173.988 Q104.186 179.011 101.108 181.696 Q98.0521 184.382 92.3345 184.382 Q86.6169 184.382 83.5382 181.696 Q80.4827 179.011 80.4827 173.988 Q80.4827 170.678 82.3808 168.386 Q84.279 166.095 87.6586 165.308 M85.9456 157.923 Q85.9456 160.609 87.6123 162.113 Q89.3021 163.618 92.3345 163.618 Q95.3437 163.618 97.0335 162.113 Q98.7465 160.609 98.7465 157.923 Q98.7465 155.238 97.0335 153.734 Q95.3437 152.229 92.3345 152.229 Q89.3021 152.229 87.6123 153.734 Q85.9456 155.238 85.9456 157.923 Z" fill="#000000" fill-rule="nonzero" fill-opacity="1" /><path clip-path="url(#clip920)" d="M122.496 152.229 Q118.885 152.229 117.057 155.794 Q115.251 159.335 115.251 166.465 Q115.251 173.571 117.057 177.136 Q118.885 180.678 122.496 180.678 Q126.131 180.678 127.936 177.136 Q129.765 173.571 129.765 166.465 Q129.765 159.335 127.936 155.794 Q126.131 152.229 122.496 152.229 M122.496 148.525 Q128.307 148.525 131.362 153.132 Q134.441 157.715 134.441 166.465 Q134.441 175.192 131.362 179.798 Q128.307 184.382 122.496 184.382 Q116.686 184.382 113.608 179.798 Q110.552 175.192 110.552 166.465 Q110.552 157.715 113.608 153.132 Q116.686 148.525 122.496 148.525 Z" fill="#000000" fill-rule="nonzero" fill-opacity="1" /><path clip-path="url(#clip920)" d="M152.658 152.229 Q149.047 152.229 147.218 155.794 Q145.413 159.335 145.413 166.465 Q145.413 173.571 147.218 177.136 Q149.047 180.678 152.658 180.678 Q156.292 180.678 158.098 177.136 Q159.927 173.571 159.927 166.465 Q159.927 159.335 158.098 155.794 Q156.292 152.229 152.658 152.229 M152.658 148.525 Q158.468 148.525 161.524 153.132 Q164.603 157.715 164.603 166.465 Q164.603 175.192 161.524 179.798 Q158.468 184.382 152.658 184.382 Q146.848 184.382 143.769 179.798 Q140.714 175.192 140.714 166.465 Q140.714 157.715 143.769 153.132 Q146.848 148.525 152.658 148.525 Z" fill="#000000" fill-rule="nonzero" fill-opacity="1" /><path clip-path="url(#clip920)" d="M182.82 152.229 Q179.209 152.229 177.38 155.794 Q175.575 159.335 175.575 166.465 Q175.575 173.571 177.38 177.136 Q179.209 180.678 182.82 180.678 Q186.454 180.678 188.26 177.136 Q190.089 173.571 190.089 166.465 Q190.089 159.335 188.26 155.794 Q186.454 152.229 182.82 152.229 M182.82 148.525 Q188.63 148.525 191.686 153.132 Q194.765 157.715 194.765 166.465 Q194.765 175.192 191.686 179.798 Q188.63 184.382 182.82 184.382 Q177.01 184.382 173.931 179.798 Q170.876 175.192 170.876 166.465 Q170.876 157.715 173.931 153.132 Q177.01 148.525 182.82 148.525 Z" fill="#000000" fill-rule="nonzero" fill-opacity="1" /><path clip-path="url(#clip920)" d="M1262.23 35.2602 Q1262.23 29.4732 1259.83 26.2904 Q1257.46 23.1075 1253.15 23.1075 Q1248.86 23.1075 1246.46 26.2904 Q1244.09 29.4732 1244.09 35.2602 Q1244.09 41.0183 1246.46 44.2012 Q1248.86 47.384 1253.15 47.384 Q1257.46 47.384 1259.83 44.2012 Q1262.23 41.0183 1262.23 35.2602 M1267.56 47.818 Q1267.56 56.0934 1263.88 60.1154 Q1260.21 64.1663 1252.63 64.1663 Q1249.82 64.1663 1247.33 63.7323 Q1244.84 63.3272 1242.5 62.4592 L1242.5 57.2798 Q1244.84 58.5529 1247.13 59.1606 Q1249.41 59.7682 1251.79 59.7682 Q1257.02 59.7682 1259.63 57.0194 Q1262.23 54.2995 1262.23 48.7729 L1262.23 46.1398 Q1260.58 49.0044 1258.01 50.4222 Q1255.43 51.84 1251.84 51.84 Q1245.88 51.84 1242.24 47.2972 Q1238.59 42.7544 1238.59 35.2602 Q1238.59 27.7371 1242.24 23.1943 Q1245.88 18.6515 1251.84 18.6515 Q1255.43 18.6515 1258.01 20.0693 Q1260.58 21.4872 1262.23 24.3517 L1262.23 19.4328 L1267.56 19.4328 L1267.56 47.818 Z" fill="#000000" fill-rule="nonzero" fill-opacity="1" /><path clip-path="url(#clip920)" d="M1299.85 24.3517 L1299.85 6.81709 L1305.17 6.81709 L1305.17 51.84 L1299.85 51.84 L1299.85 46.9789 Q1298.17 49.8724 1295.59 51.2902 Q1293.05 52.6791 1289.46 52.6791 Q1283.59 52.6791 1279.88 47.9916 Q1276.21 43.3042 1276.21 35.6653 Q1276.21 28.0265 1279.88 23.339 Q1283.59 18.6515 1289.46 18.6515 Q1293.05 18.6515 1295.59 20.0693 Q1298.17 21.4582 1299.85 24.3517 M1281.71 35.6653 Q1281.71 41.5391 1284.11 44.8956 Q1286.54 48.2231 1290.76 48.2231 Q1294.99 48.2231 1297.42 44.8956 Q1299.85 41.5391 1299.85 35.6653 Q1299.85 29.7915 1297.42 26.464 Q1294.99 23.1075 1290.76 23.1075 Q1286.54 23.1075 1284.11 26.464 Q1281.71 29.7915 1281.71 35.6653 Z" fill="#000000" fill-rule="nonzero" fill-opacity="1" /><path clip-path="url(#clip920)" d="M1321.29 46.9789 L1321.29 64.1663 L1315.94 64.1663 L1315.94 19.4328 L1321.29 19.4328 L1321.29 24.3517 Q1322.97 21.4582 1325.51 20.0693 Q1328.09 18.6515 1331.65 18.6515 Q1337.55 18.6515 1341.22 23.339 Q1344.93 28.0265 1344.93 35.6653 Q1344.93 43.3042 1341.22 47.9916 Q1337.55 52.6791 1331.65 52.6791 Q1328.09 52.6791 1325.51 51.2902 Q1322.97 49.8724 1321.29 46.9789 M1339.4 35.6653 Q1339.4 29.7915 1336.97 26.464 Q1334.57 23.1075 1330.35 23.1075 Q1326.12 23.1075 1323.69 26.464 Q1321.29 29.7915 1321.29 35.6653 Q1321.29 41.5391 1323.69 44.8956 Q1326.12 48.2231 1330.35 48.2231 Q1334.57 48.2231 1336.97 44.8956 Q1339.4 41.5391 1339.4 35.6653 Z" fill="#000000" fill-rule="nonzero" fill-opacity="1" /><polyline clip-path="url(#clip922)" style="stroke:#009af9; stroke-linecap:round; stroke-linejoin:round; stroke-width:4; stroke-opacity:1; fill:none" points="290.821,1429.6 415.938,1447.38 541.056,1413.32 666.173,1205.69 791.291,1123.31 916.408,959.879 1041.53,873.503 1166.64,885.974 1291.76,848.199 1416.88,646.465 1542,432.574 1667.11,471.469 1792.23,404.587 1917.35,264.391 2042.46,325.665 2167.58,298.569 2292.7,145.256 "/>
<path clip-path="url(#clip920)" d="M301.498 255.881 L566.127 255.881 L566.127 152.201 L301.498 152.201  Z" fill="#ffffff" fill-rule="evenodd" fill-opacity="1"/>
<polyline clip-path="url(#clip920)" style="stroke:#000000; stroke-linecap:round; stroke-linejoin:round; stroke-width:4; stroke-opacity:1; fill:none" points="301.498,255.881 566.127,255.881 566.127,152.201 301.498,152.201 301.498,255.881 "/>
<polyline clip-path="url(#clip920)" style="stroke:#009af9; stroke-linecap:round; stroke-linejoin:round; stroke-width:4; stroke-opacity:1; fill:none" points="325.075,204.041 466.541,204.041 "/>
<path clip-path="url(#clip920)" d="M503.962 223.728 Q502.156 228.358 500.443 229.77 Q498.73 231.182 495.86 231.182 L492.457 231.182 L492.457 227.617 L494.957 227.617 Q496.716 227.617 497.688 226.784 Q498.661 225.95 499.841 222.848 L500.605 220.904 L490.119 195.395 L494.633 195.395 L502.735 215.673 L510.836 195.395 L515.35 195.395 L503.962 223.728 Z" fill="#000000" fill-rule="nonzero" fill-opacity="1" /><path clip-path="url(#clip920)" d="M522.642 217.385 L530.281 217.385 L530.281 191.02 L521.971 192.687 L521.971 188.427 L530.235 186.761 L534.91 186.761 L534.91 217.385 L542.549 217.385 L542.549 221.321 L522.642 221.321 L522.642 217.385 Z" fill="#000000" fill-rule="nonzero" fill-opacity="1" /></svg>
