<?xml version="1.0" encoding="utf-8"?>
<svg xmlns="http://www.w3.org/2000/svg" xmlns:xlink="http://www.w3.org/1999/xlink" width="600" height="400" viewBox="0 0 2400 1600">
<defs>
  <clipPath id="clip050">
    <rect x="0" y="0" width="2400" height="1600"/>
  </clipPath>
</defs>
<path clip-path="url(#clip050)" d="M0 1600 L2400 1600 L2400 0 L0 0  Z" fill="#ffffff" fill-rule="evenodd" fill-opacity="1"/>
<defs>
  <clipPath id="clip051">
    <rect x="480" y="0" width="1681" height="1600"/>
  </clipPath>
</defs>
<path clip-path="url(#clip050)" d="M230.765 1486.45 L2352.76 1486.45 L2352.76 106.192 L230.765 106.192  Z" fill="#ffffff" fill-rule="evenodd" fill-opacity="1"/>
<defs>
  <clipPath id="clip052">
    <rect x="230" y="106" width="2123" height="1381"/>
  </clipPath>
</defs>
<polyline clip-path="url(#clip052)" style="stroke:#000000; stroke-linecap:round; stroke-linejoin:round; stroke-width:2; stroke-opacity:0.1; fill:none" points="541.056,1486.45 541.056,106.192 "/>
<polyline clip-path="url(#clip052)" style="stroke:#000000; stroke-linecap:round; stroke-linejoin:round; stroke-width:2; stroke-opacity:0.1; fill:none" points="916.408,1486.45 916.408,106.192 "/>
<polyline clip-path="url(#clip052)" style="stroke:#000000; stroke-linecap:round; stroke-linejoin:round; stroke-width:2; stroke-opacity:0.1; fill:none" points="1291.76,1486.45 1291.76,106.192 "/>
<polyline clip-path="url(#clip052)" style="stroke:#000000; stroke-linecap:round; stroke-linejoin:round; stroke-width:2; stroke-opacity:0.1; fill:none" points="1667.11,1486.45 1667.11,106.192 "/>
<polyline clip-path="url(#clip052)" style="stroke:#000000; stroke-linecap:round; stroke-linejoin:round; stroke-width:2; stroke-opacity:0.1; fill:none" points="2042.46,1486.45 2042.46,106.192 "/>
<polyline clip-path="url(#clip052)" style="stroke:#000000; stroke-linecap:round; stroke-linejoin:round; stroke-width:2; stroke-opacity:0.1; fill:none" points="230.765,1317.43 2352.76,1317.43 "/>
<polyline clip-path="url(#clip052)" style="stroke:#000000; stroke-linecap:round; stroke-linejoin:round; stroke-width:2; stroke-opacity:0.1; fill:none" points="230.765,1092.58 2352.76,1092.58 "/>
<polyline clip-path="url(#clip052)" style="stroke:#000000; stroke-linecap:round; stroke-linejoin:round; stroke-width:2; stroke-opacity:0.1; fill:none" points="230.765,867.743 2352.76,867.743 "/>
<polyline clip-path="url(#clip052)" style="stroke:#000000; stroke-linecap:round; stroke-linejoin:round; stroke-width:2; stroke-opacity:0.1; fill:none" points="230.765,642.901 2352.76,642.901 "/>
<polyline clip-path="url(#clip052)" style="stroke:#000000; stroke-linecap:round; stroke-linejoin:round; stroke-width:2; stroke-opacity:0.1; fill:none" points="230.765,418.06 2352.76,418.06 "/>
<polyline clip-path="url(#clip052)" style="stroke:#000000; stroke-linecap:round; stroke-linejoin:round; stroke-width:2; stroke-opacity:0.1; fill:none" points="230.765,193.218 2352.76,193.218 "/>
<polyline clip-path="url(#clip050)" style="stroke:#000000; stroke-linecap:round; stroke-linejoin:round; stroke-width:4; stroke-opacity:1; fill:none" points="230.765,1486.45 2352.76,1486.45 "/>
<polyline clip-path="url(#clip050)" style="stroke:#000000; stroke-linecap:round; stroke-linejoin:round; stroke-width:4; stroke-opacity:1; fill:none" points="541.056,1486.45 541.056,1467.55 "/>
<polyline clip-path="url(#clip050)" style="stroke:#000000; stroke-linecap:round; stroke-linejoin:round; stroke-width:4; stroke-opacity:1; fill:none" points="916.408,1486.45 916.408,1467.55 "/>
<polyline clip-path="url(#clip050)" style="stroke:#000000; stroke-linecap:round; stroke-linejoin:round; stroke-width:4; stroke-opacity:1; fill:none" points="1291.76,1486.45 1291.76,1467.55 "/>
<polyline clip-path="url(#clip050)" style="stroke:#000000; stroke-linecap:round; stroke-linejoin:round; stroke-width:4; stroke-opacity:1; fill:none" points="1667.11,1486.45 1667.11,1467.55 "/>
<polyline clip-path="url(#clip050)" style="stroke:#000000; stroke-linecap:round; stroke-linejoin:round; stroke-width:4; stroke-opacity:1; fill:none" points="2042.46,1486.45 2042.46,1467.55 "/>
<path clip-path="url(#clip050)" d="M545.303 1530.21 Q548.66 1530.93 550.535 1533.2 Q552.433 1535.47 552.433 1538.8 Q552.433 1543.92 548.914 1546.72 Q545.396 1549.52 538.915 1549.52 Q536.739 1549.52 534.424 1549.08 Q532.132 1548.66 529.678 1547.81 L529.678 1543.29 Q531.623 1544.43 533.938 1545.01 Q536.252 1545.58 538.776 1545.58 Q543.174 1545.58 545.465 1543.85 Q547.78 1542.11 547.78 1538.8 Q547.78 1535.75 545.627 1534.03 Q543.498 1532.3 539.678 1532.3 L535.651 1532.3 L535.651 1528.45 L539.864 1528.45 Q543.313 1528.45 545.141 1527.09 Q546.97 1525.7 546.97 1523.11 Q546.97 1520.45 545.072 1519.03 Q543.197 1517.6 539.678 1517.6 Q537.757 1517.6 535.558 1518.01 Q533.359 1518.43 530.72 1519.31 L530.72 1515.14 Q533.382 1514.4 535.697 1514.03 Q538.035 1513.66 540.095 1513.66 Q545.419 1513.66 548.521 1516.09 Q551.623 1518.5 551.623 1522.62 Q551.623 1525.49 549.979 1527.48 Q548.336 1529.45 545.303 1530.21 Z" fill="#000000" fill-rule="nonzero" fill-opacity="1" /><path clip-path="url(#clip050)" d="M916.813 1529.7 Q913.665 1529.7 911.813 1531.86 Q909.984 1534.01 909.984 1537.76 Q909.984 1541.49 911.813 1543.66 Q913.665 1545.82 916.813 1545.82 Q919.961 1545.82 921.79 1543.66 Q923.642 1541.49 923.642 1537.76 Q923.642 1534.01 921.79 1531.86 Q919.961 1529.7 916.813 1529.7 M926.095 1515.05 L926.095 1519.31 Q924.336 1518.48 922.531 1518.04 Q920.748 1517.6 918.989 1517.6 Q914.359 1517.6 911.906 1520.72 Q909.475 1523.85 909.128 1530.17 Q910.494 1528.15 912.554 1527.09 Q914.614 1526 917.091 1526 Q922.299 1526 925.308 1529.17 Q928.341 1532.32 928.341 1537.76 Q928.341 1543.08 925.193 1546.3 Q922.044 1549.52 916.813 1549.52 Q910.818 1549.52 907.646 1544.94 Q904.475 1540.33 904.475 1531.6 Q904.475 1523.41 908.364 1518.55 Q912.253 1513.66 918.804 1513.66 Q920.563 1513.66 922.345 1514.01 Q924.151 1514.36 926.095 1515.05 Z" fill="#000000" fill-rule="nonzero" fill-opacity="1" /><path clip-path="url(#clip050)" d="M1282.06 1548.13 L1282.06 1543.87 Q1283.82 1544.7 1285.63 1545.14 Q1287.43 1545.58 1289.17 1545.58 Q1293.8 1545.58 1296.23 1542.48 Q1298.68 1539.36 1299.03 1533.01 Q1297.69 1535.01 1295.63 1536.07 Q1293.57 1537.13 1291.07 1537.13 Q1285.88 1537.13 1282.85 1534.01 Q1279.84 1530.86 1279.84 1525.42 Q1279.84 1520.1 1282.99 1516.88 Q1286.14 1513.66 1291.37 1513.66 Q1297.36 1513.66 1300.51 1518.27 Q1303.68 1522.85 1303.68 1531.6 Q1303.68 1539.77 1299.79 1544.66 Q1295.93 1549.52 1289.38 1549.52 Q1287.62 1549.52 1285.81 1549.17 Q1284.01 1548.82 1282.06 1548.13 M1291.37 1533.48 Q1294.51 1533.48 1296.34 1531.32 Q1298.2 1529.17 1298.2 1525.42 Q1298.2 1521.7 1296.34 1519.54 Q1294.51 1517.37 1291.37 1517.37 Q1288.22 1517.37 1286.37 1519.54 Q1284.54 1521.7 1284.54 1525.42 Q1284.54 1529.17 1286.37 1531.32 Q1288.22 1533.48 1291.37 1533.48 Z" fill="#000000" fill-rule="nonzero" fill-opacity="1" /><path clip-path="url(#clip050)" d="M1642.6 1544.91 L1650.24 1544.91 L1650.24 1518.55 L1641.93 1520.21 L1641.93 1515.95 L1650.19 1514.29 L1654.87 1514.29 L1654.87 1544.91 L1662.51 1544.91 L1662.51 1548.85 L1642.6 1548.85 L1642.6 1544.91 Z" fill="#000000" fill-rule="nonzero" fill-opacity="1" /><path clip-path="url(#clip050)" d="M1675.98 1544.91 L1692.3 1544.91 L1692.3 1548.85 L1670.35 1548.85 L1670.35 1544.91 Q1673.02 1542.16 1677.6 1537.53 Q1682.2 1532.88 1683.39 1531.53 Q1685.63 1529.01 1686.51 1527.27 Q1687.41 1525.51 1687.41 1523.82 Q1687.41 1521.07 1685.47 1519.33 Q1683.55 1517.6 1680.45 1517.6 Q1678.25 1517.6 1675.79 1518.36 Q1673.36 1519.13 1670.58 1520.68 L1670.58 1515.95 Q1673.41 1514.82 1675.86 1514.24 Q1678.32 1513.66 1680.35 1513.66 Q1685.72 1513.66 1688.92 1516.35 Q1692.11 1519.03 1692.11 1523.52 Q1692.11 1525.65 1691.3 1527.57 Q1690.52 1529.47 1688.41 1532.07 Q1687.83 1532.74 1684.73 1535.95 Q1681.63 1539.15 1675.98 1544.91 Z" fill="#000000" fill-rule="nonzero" fill-opacity="1" /><path clip-path="url(#clip050)" d="M2017.65 1544.91 L2025.29 1544.91 L2025.29 1518.55 L2016.98 1520.21 L2016.98 1515.95 L2025.24 1514.29 L2029.92 1514.29 L2029.92 1544.91 L2037.56 1544.91 L2037.56 1548.85 L2017.65 1548.85 L2017.65 1544.91 Z" fill="#000000" fill-rule="nonzero" fill-opacity="1" /><path clip-path="url(#clip050)" d="M2047.05 1514.29 L2065.4 1514.29 L2065.4 1518.22 L2051.33 1518.22 L2051.33 1526.7 Q2052.35 1526.35 2053.37 1526.19 Q2054.39 1526 2055.4 1526 Q2061.19 1526 2064.57 1529.17 Q2067.95 1532.34 2067.95 1537.76 Q2067.95 1543.34 2064.48 1546.44 Q2061.01 1549.52 2054.69 1549.52 Q2052.51 1549.52 2050.24 1549.15 Q2048 1548.78 2045.59 1548.04 L2045.59 1543.34 Q2047.67 1544.47 2049.9 1545.03 Q2052.12 1545.58 2054.59 1545.58 Q2058.6 1545.58 2060.94 1543.48 Q2063.27 1541.37 2063.27 1537.76 Q2063.27 1534.15 2060.94 1532.04 Q2058.6 1529.94 2054.59 1529.94 Q2052.72 1529.94 2050.84 1530.35 Q2048.99 1530.77 2047.05 1531.65 L2047.05 1514.29 Z" fill="#000000" fill-rule="nonzero" fill-opacity="1" /><polyline clip-path="url(#clip050)" style="stroke:#000000; stroke-linecap:round; stroke-linejoin:round; stroke-width:4; stroke-opacity:1; fill:none" points="230.765,1486.45 230.765,106.192 "/>
<polyline clip-path="url(#clip050)" style="stroke:#000000; stroke-linecap:round; stroke-linejoin:round; stroke-width:4; stroke-opacity:1; fill:none" points="230.765,1317.43 249.662,1317.43 "/>
<polyline clip-path="url(#clip050)" style="stroke:#000000; stroke-linecap:round; stroke-linejoin:round; stroke-width:4; stroke-opacity:1; fill:none" points="230.765,1092.58 249.662,1092.58 "/>
<polyline clip-path="url(#clip050)" style="stroke:#000000; stroke-linecap:round; stroke-linejoin:round; stroke-width:4; stroke-opacity:1; fill:none" points="230.765,867.743 249.662,867.743 "/>
<polyline clip-path="url(#clip050)" style="stroke:#000000; stroke-linecap:round; stroke-linejoin:round; stroke-width:4; stroke-opacity:1; fill:none" points="230.765,642.901 249.662,642.901 "/>
<polyline clip-path="url(#clip050)" style="stroke:#000000; stroke-linecap:round; stroke-linejoin:round; stroke-width:4; stroke-opacity:1; fill:none" points="230.765,418.06 249.662,418.06 "/>
<polyline clip-path="url(#clip050)" style="stroke:#000000; stroke-linecap:round; stroke-linejoin:round; stroke-width:4; stroke-opacity:1; fill:none" points="230.765,193.218 249.662,193.218 "/>
<path clip-path="url(#clip050)" d="M50.9921 1300.15 L73.2142 1300.15 L73.2142 1302.14 L60.668 1334.71 L55.7838 1334.71 L67.5893 1304.08 L50.9921 1304.08 L50.9921 1300.15 Z" fill="#000000" fill-rule="nonzero" fill-opacity="1" /><path clip-path="url(#clip050)" d="M96.5011 1316.07 Q99.8576 1316.79 101.733 1319.06 Q103.631 1321.33 103.631 1324.66 Q103.631 1329.78 100.112 1332.58 Q96.5937 1335.38 90.1123 1335.38 Q87.9364 1335.38 85.6216 1334.94 Q83.3299 1334.52 80.8762 1333.66 L80.8762 1329.15 Q82.8207 1330.28 85.1355 1330.86 Q87.4503 1331.44 89.9734 1331.44 Q94.3715 1331.44 96.6632 1329.71 Q98.978 1327.97 98.978 1324.66 Q98.978 1321.6 96.8252 1319.89 Q94.6956 1318.15 90.8762 1318.15 L86.8484 1318.15 L86.8484 1314.31 L91.0614 1314.31 Q94.5104 1314.31 96.3391 1312.95 Q98.1678 1311.56 98.1678 1308.97 Q98.1678 1306.3 96.2697 1304.89 Q94.3947 1303.46 90.8762 1303.46 Q88.9549 1303.46 86.7558 1303.87 Q84.5568 1304.29 81.9179 1305.17 L81.9179 1301 Q84.5799 1300.26 86.8947 1299.89 Q89.2327 1299.52 91.2928 1299.52 Q96.6169 1299.52 99.7187 1301.95 Q102.821 1304.36 102.821 1308.48 Q102.821 1311.35 101.177 1313.34 Q99.5335 1315.31 96.5011 1316.07 Z" fill="#000000" fill-rule="nonzero" fill-opacity="1" /><path clip-path="url(#clip050)" d="M122.496 1303.22 Q118.885 1303.22 117.057 1306.79 Q115.251 1310.33 115.251 1317.46 Q115.251 1324.57 117.057 1328.13 Q118.885 1331.67 122.496 1331.67 Q126.131 1331.67 127.936 1328.13 Q129.765 1324.57 129.765 1317.46 Q129.765 1310.33 127.936 1306.79 Q126.131 1303.22 122.496 1303.22 M122.496 1299.52 Q128.307 1299.52 131.362 1304.13 Q134.441 1308.71 134.441 1317.46 Q134.441 1326.19 131.362 1330.79 Q128.307 1335.38 122.496 1335.38 Q116.686 1335.38 113.608 1330.79 Q110.552 1326.19 110.552 1317.46 Q110.552 1308.71 113.608 1304.13 Q116.686 1299.52 122.496 1299.52 Z" fill="#000000" fill-rule="nonzero" fill-opacity="1" /><path clip-path="url(#clip050)" d="M152.658 1303.22 Q149.047 1303.22 147.218 1306.79 Q145.413 1310.33 145.413 1317.46 Q145.413 1324.57 147.218 1328.13 Q149.047 1331.67 152.658 1331.67 Q156.292 1331.67 158.098 1328.13 Q159.927 1324.57 159.927 1317.46 Q159.927 1310.33 158.098 1306.79 Q156.292 1303.22 152.658 1303.22 M152.658 1299.52 Q158.468 1299.52 161.524 1304.13 Q164.603 1308.71 164.603 1317.46 Q164.603 1326.19 161.524 1330.79 Q158.468 1335.38 152.658 1335.38 Q146.848 1335.38 143.769 1330.79 Q140.714 1326.19 140.714 1317.46 Q140.714 1308.71 143.769 1304.13 Q146.848 1299.52 152.658 1299.52 Z" fill="#000000" fill-rule="nonzero" fill-opacity="1" /><path clip-path="url(#clip050)" d="M182.82 1303.22 Q179.209 1303.22 177.38 1306.79 Q175.575 1310.33 175.575 1317.46 Q175.575 1324.57 177.38 1328.13 Q179.209 1331.67 182.82 1331.67 Q186.454 1331.67 188.26 1328.13 Q190.089 1324.57 190.089 1317.46 Q190.089 1310.33 188.26 1306.79 Q186.454 1303.22 182.82 1303.22 M182.82 1299.52 Q188.63 1299.52 191.686 1304.13 Q194.765 1308.71 194.765 1317.46 Q194.765 1326.19 191.686 1330.79 Q188.63 1335.38 182.82 1335.38 Q177.01 1335.38 173.931 1330.79 Q170.876 1326.19 170.876 1317.46 Q170.876 1308.71 173.931 1304.13 Q177.01 1299.52 182.82 1299.52 Z" fill="#000000" fill-rule="nonzero" fill-opacity="1" /><path clip-path="url(#clip050)" d="M50.9921 1075.3 L73.2142 1075.3 L73.2142 1077.29 L60.668 1109.86 L55.7838 1109.86 L67.5893 1079.24 L50.9921 1079.24 L50.9921 1075.3 Z" fill="#000000" fill-rule="nonzero" fill-opacity="1" /><path clip-path="url(#clip050)" d="M95.1817 1079.38 L83.3762 1097.83 L95.1817 1097.83 L95.1817 1079.38 M93.9549 1075.3 L99.8345 1075.3 L99.8345 1097.83 L104.765 1097.83 L104.765 1101.72 L99.8345 1101.72 L99.8345 1109.86 L95.1817 1109.86 L95.1817 1101.72 L79.5799 1101.72 L79.5799 1097.2 L93.9549 1075.3 Z" fill="#000000" fill-rule="nonzero" fill-opacity="1" /><path clip-path="url(#clip050)" d="M122.496 1078.38 Q118.885 1078.38 117.057 1081.95 Q115.251 1085.49 115.251 1092.62 Q115.251 1099.73 117.057 1103.29 Q118.885 1106.83 122.496 1106.83 Q126.131 1106.83 127.936 1103.29 Q129.765 1099.73 129.765 1092.62 Q129.765 1085.49 127.936 1081.95 Q126.131 1078.38 122.496 1078.38 M122.496 1074.68 Q128.307 1074.68 131.362 1079.29 Q134.441 1083.87 134.441 1092.62 Q134.441 1101.35 131.362 1105.95 Q128.307 1110.54 122.496 1110.54 Q116.686 1110.54 113.608 1105.95 Q110.552 1101.35 110.552 1092.62 Q110.552 1083.87 113.608 1079.29 Q116.686 1074.68 122.496 1074.68 Z" fill="#000000" fill-rule="nonzero" fill-opacity="1" /><path clip-path="url(#clip050)" d="M152.658 1078.38 Q149.047 1078.38 147.218 1081.95 Q145.413 1085.49 145.413 1092.62 Q145.413 1099.73 147.218 1103.29 Q149.047 1106.83 152.658 1106.83 Q156.292 1106.83 158.098 1103.29 Q159.927 1099.73 159.927 1092.62 Q159.927 1085.49 158.098 1081.95 Q156.292 1078.38 152.658 1078.38 M152.658 1074.68 Q158.468 1074.68 161.524 1079.29 Q164.603 1083.87 164.603 1092.62 Q164.603 1101.35 161.524 1105.95 Q158.468 1110.54 152.658 1110.54 Q146.848 1110.54 143.769 1105.95 Q140.714 1101.35 140.714 1092.62 Q140.714 1083.87 143.769 1079.29 Q146.848 1074.68 152.658 1074.68 Z" fill="#000000" fill-rule="nonzero" fill-opacity="1" /><path clip-path="url(#clip050)" d="M182.82 1078.38 Q179.209 1078.38 177.38 1081.95 Q175.575 1085.49 175.575 1092.62 Q175.575 1099.73 177.38 1103.29 Q179.209 1106.83 182.82 1106.83 Q186.454 1106.83 188.26 1103.29 Q190.089 1099.73 190.089 1092.62 Q190.089 1085.49 188.26 1081.95 Q186.454 1078.38 182.82 1078.38 M182.82 1074.68 Q188.63 1074.68 191.686 1079.29 Q194.765 1083.87 194.765 1092.62 Q194.765 1101.35 191.686 1105.95 Q188.63 1110.54 182.82 1110.54 Q177.01 1110.54 173.931 1105.95 Q170.876 1101.35 170.876 1092.62 Q170.876 1083.87 173.931 1079.29 Q177.01 1074.68 182.82 1074.68 Z" fill="#000000" fill-rule="nonzero" fill-opacity="1" /><path clip-path="url(#clip050)" d="M50.9921 850.463 L73.2142 850.463 L73.2142 852.453 L60.668 885.023 L55.7838 885.023 L67.5893 854.398 L50.9921 854.398 L50.9921 850.463 Z" fill="#000000" fill-rule="nonzero" fill-opacity="1" /><path clip-path="url(#clip050)" d="M82.3808 850.463 L100.737 850.463 L100.737 854.398 L86.6632 854.398 L86.6632 862.87 Q87.6817 862.523 88.7003 862.361 Q89.7188 862.176 90.7373 862.176 Q96.5243 862.176 99.9039 865.347 Q103.284 868.518 103.284 873.935 Q103.284 879.513 99.8113 882.615 Q96.3391 885.694 90.0197 885.694 Q87.8438 885.694 85.5753 885.324 Q83.3299 884.953 80.9225 884.212 L80.9225 879.513 Q83.0058 880.648 85.2281 881.203 Q87.4503 881.759 89.9271 881.759 Q93.9317 881.759 96.2697 879.652 Q98.6076 877.546 98.6076 873.935 Q98.6076 870.324 96.2697 868.217 Q93.9317 866.111 89.9271 866.111 Q88.0521 866.111 86.1771 866.527 Q84.3253 866.944 82.3808 867.824 L82.3808 850.463 Z" fill="#000000" fill-rule="nonzero" fill-opacity="1" /><path clip-path="url(#clip050)" d="M122.496 853.541 Q118.885 853.541 117.057 857.106 Q115.251 860.648 115.251 867.777 Q115.251 874.884 117.057 878.449 Q118.885 881.99 122.496 881.99 Q126.131 881.99 127.936 878.449 Q129.765 874.884 129.765 867.777 Q129.765 860.648 127.936 857.106 Q126.131 853.541 122.496 853.541 M122.496 849.838 Q128.307 849.838 131.362 854.444 Q134.441 859.027 134.441 867.777 Q134.441 876.504 131.362 881.111 Q128.307 885.694 122.496 885.694 Q116.686 885.694 113.608 881.111 Q110.552 876.504 110.552 867.777 Q110.552 859.027 113.608 854.444 Q116.686 849.838 122.496 849.838 Z" fill="#000000" fill-rule="nonzero" fill-opacity="1" /><path clip-path="url(#clip050)" d="M152.658 853.541 Q149.047 853.541 147.218 857.106 Q145.413 860.648 145.413 867.777 Q145.413 874.884 147.218 878.449 Q149.047 881.99 152.658 881.99 Q156.292 881.99 158.098 878.449 Q159.927 874.884 159.927 867.777 Q159.927 860.648 158.098 857.106 Q156.292 853.541 152.658 853.541 M152.658 849.838 Q158.468 849.838 161.524 854.444 Q164.603 859.027 164.603 867.777 Q164.603 876.504 161.524 881.111 Q158.468 885.694 152.658 885.694 Q146.848 885.694 143.769 881.111 Q140.714 876.504 140.714 867.777 Q140.714 859.027 143.769 854.444 Q146.848 849.838 152.658 849.838 Z" fill="#000000" fill-rule="nonzero" fill-opacity="1" /><path clip-path="url(#clip050)" d="M182.82 853.541 Q179.209 853.541 177.38 857.106 Q175.575 860.648 175.575 867.777 Q175.575 874.884 177.38 878.449 Q179.209 881.99 182.82 881.99 Q186.454 881.99 188.26 878.449 Q190.089 874.884 190.089 867.777 Q190.089 860.648 188.26 857.106 Q186.454 853.541 182.82 853.541 M182.82 849.838 Q188.63 849.838 191.686 854.444 Q194.765 859.027 194.765 867.777 Q194.765 876.504 191.686 881.111 Q188.63 885.694 182.82 885.694 Q177.01 885.694 173.931 881.111 Q170.876 876.504 170.876 867.777 Q170.876 859.027 173.931 854.444 Q177.01 849.838 182.82 849.838 Z" fill="#000000" fill-rule="nonzero" fill-opacity="1" /><path clip-path="url(#clip050)" d="M50.9921 625.621 L73.2142 625.621 L73.2142 627.612 L60.668 660.181 L55.7838 660.181 L67.5893 629.556 L50.9921 629.556 L50.9921 625.621 Z" fill="#000000" fill-rule="nonzero" fill-opacity="1" /><path clip-path="url(#clip050)" d="M92.9132 641.038 Q89.7651 641.038 87.9132 643.19 Q86.0845 645.343 86.0845 649.093 Q86.0845 652.82 87.9132 654.996 Q89.7651 657.149 92.9132 657.149 Q96.0613 657.149 97.89 654.996 Q99.7419 652.82 99.7419 649.093 Q99.7419 645.343 97.89 643.19 Q96.0613 641.038 92.9132 641.038 M102.196 626.385 L102.196 630.644 Q100.436 629.811 98.6308 629.371 Q96.8484 628.931 95.0891 628.931 Q90.4595 628.931 88.0058 632.056 Q85.5753 635.181 85.2281 641.501 Q86.5938 639.487 88.654 638.422 Q90.7141 637.334 93.191 637.334 Q98.3993 637.334 101.409 640.505 Q104.441 643.653 104.441 649.093 Q104.441 654.417 101.293 657.635 Q98.1447 660.852 92.9132 660.852 Q86.9179 660.852 83.7466 656.269 Q80.5753 651.663 80.5753 642.936 Q80.5753 634.741 84.4642 629.88 Q88.353 624.996 94.9039 624.996 Q96.6632 624.996 98.4456 625.343 Q100.251 625.691 102.196 626.385 Z" fill="#000000" fill-rule="nonzero" fill-opacity="1" /><path clip-path="url(#clip050)" d="M122.496 628.7 Q118.885 628.7 117.057 632.265 Q115.251 635.806 115.251 642.936 Q115.251 650.042 117.057 653.607 Q118.885 657.149 122.496 657.149 Q126.131 657.149 127.936 653.607 Q129.765 650.042 129.765 642.936 Q129.765 635.806 127.936 632.265 Q126.131 628.7 122.496 628.7 M122.496 624.996 Q128.307 624.996 131.362 629.603 Q134.441 634.186 134.441 642.936 Q134.441 651.663 131.362 656.269 Q128.307 660.852 122.496 660.852 Q116.686 660.852 113.608 656.269 Q110.552 651.663 110.552 642.936 Q110.552 634.186 113.608 629.603 Q116.686 624.996 122.496 624.996 Z" fill="#000000" fill-rule="nonzero" fill-opacity="1" /><path clip-path="url(#clip050)" d="M152.658 628.7 Q149.047 628.7 147.218 632.265 Q145.413 635.806 145.413 642.936 Q145.413 650.042 147.218 653.607 Q149.047 657.149 152.658 657.149 Q156.292 657.149 158.098 653.607 Q159.927 650.042 159.927 642.936 Q159.927 635.806 158.098 632.265 Q156.292 628.7 152.658 628.7 M152.658 624.996 Q158.468 624.996 161.524 629.603 Q164.603 634.186 164.603 642.936 Q164.603 651.663 161.524 656.269 Q158.468 660.852 152.658 660.852 Q146.848 660.852 143.769 656.269 Q140.714 651.663 140.714 642.936 Q140.714 634.186 143.769 629.603 Q146.848 624.996 152.658 624.996 Z" fill="#000000" fill-rule="nonzero" fill-opacity="1" /><path clip-path="url(#clip050)" d="M182.82 628.7 Q179.209 628.7 177.38 632.265 Q175.575 635.806 175.575 642.936 Q175.575 650.042 177.38 653.607 Q179.209 657.149 182.82 657.149 Q186.454 657.149 188.26 653.607 Q190.089 650.042 190.089 642.936 Q190.089 635.806 188.26 632.265 Q186.454 628.7 182.82 628.7 M182.82 624.996 Q188.63 624.996 191.686 629.603 Q194.765 634.186 194.765 642.936 Q194.765 651.663 191.686 656.269 Q188.63 660.852 182.82 660.852 Q177.01 660.852 173.931 656.269 Q170.876 651.663 170.876 642.936 Q170.876 634.186 173.931 629.603 Q177.01 624.996 182.82 624.996 Z" fill="#000000" fill-rule="nonzero" fill-opacity="1" /><path clip-path="url(#clip050)" d="M50.9921 400.78 L73.2142 400.78 L73.2142 402.77 L60.668 435.34 L55.7838 435.34 L67.5893 404.715 L50.9921 404.715 L50.9921 400.78 Z" fill="#000000" fill-rule="nonzero" fill-opacity="1" /><path clip-path="url(#clip050)" d="M81.154 400.78 L103.376 400.78 L103.376 402.77 L90.8299 435.34 L85.9456 435.34 L97.7511 404.715 L81.154 404.715 L81.154 400.78 Z" fill="#000000" fill-rule="nonzero" fill-opacity="1" /><path clip-path="url(#clip050)" d="M122.496 403.858 Q118.885 403.858 117.057 407.423 Q115.251 410.965 115.251 418.094 Q115.251 425.201 117.057 428.766 Q118.885 432.307 122.496 432.307 Q126.131 432.307 127.936 428.766 Q129.765 425.201 129.765 418.094 Q129.765 410.965 127.936 407.423 Q126.131 403.858 122.496 403.858 M122.496 400.155 Q128.307 400.155 131.362 404.761 Q134.441 409.344 134.441 418.094 Q134.441 426.821 131.362 431.428 Q128.307 436.011 122.496 436.011 Q116.686 436.011 113.608 431.428 Q110.552 426.821 110.552 418.094 Q110.552 409.344 113.608 404.761 Q116.686 400.155 122.496 400.155 Z" fill="#000000" fill-rule="nonzero" fill-opacity="1" /><path clip-path="url(#clip050)" d="M152.658 403.858 Q149.047 403.858 147.218 407.423 Q145.413 410.965 145.413 418.094 Q145.413 425.201 147.218 428.766 Q149.047 432.307 152.658 432.307 Q156.292 432.307 158.098 428.766 Q159.927 425.201 159.927 418.094 Q159.927 410.965 158.098 407.423 Q156.292 403.858 152.658 403.858 M152.658 400.155 Q158.468 400.155 161.524 404.761 Q164.603 409.344 164.603 418.094 Q164.603 426.821 161.524 431.428 Q158.468 436.011 152.658 436.011 Q146.848 436.011 143.769 431.428 Q140.714 426.821 140.714 418.094 Q140.714 409.344 143.769 404.761 Q146.848 400.155 152.658 400.155 Z" fill="#000000" fill-rule="nonzero" fill-opacity="1" /><path clip-path="url(#clip050)" d="M182.82 403.858 Q179.209 403.858 177.38 407.423 Q175.575 410.965 175.575 418.094 Q175.575 425.201 177.38 428.766 Q179.209 432.307 182.82 432.307 Q186.454 432.307 188.26 428.766 Q190.089 425.201 190.089 418.094 Q190.089 410.965 188.26 407.423 Q186.454 403.858 182.82 403.858 M182.82 400.155 Q188.63 400.155 191.686 404.761 Q194.765 409.344 194.765 418.094 Q194.765 426.821 191.686 431.428 Q188.63 436.011 182.82 436.011 Q177.01 436.011 173.931 431.428 Q170.876 426.821 170.876 418.094 Q170.876 409.344 173.931 404.761 Q177.01 400.155 182.82 400.155 Z" fill="#000000" fill-rule="nonzero" fill-opacity="1" /><path clip-path="url(#clip050)" d="M50.9921 175.938 L73.2142 175.938 L73.2142 177.929 L60.668 210.498 L55.7838 210.498 L67.5893 179.873 L50.9921 179.873 L50.9921 175.938 Z" fill="#000000" fill-rule="nonzero" fill-opacity="1" /><path clip-path="url(#clip050)" d="M92.3345 194.086 Q89.0012 194.086 87.0799 195.869 Q85.1818 197.651 85.1818 200.776 Q85.1818 203.901 87.0799 205.683 Q89.0012 207.466 92.3345 207.466 Q95.6678 207.466 97.5891 205.683 Q99.5104 203.878 99.5104 200.776 Q99.5104 197.651 97.5891 195.869 Q95.691 194.086 92.3345 194.086 M87.6586 192.095 Q84.6494 191.355 82.9595 189.295 Q81.2929 187.234 81.2929 184.271 Q81.2929 180.128 84.2327 177.721 Q87.1956 175.313 92.3345 175.313 Q97.4965 175.313 100.436 177.721 Q103.376 180.128 103.376 184.271 Q103.376 187.234 101.686 189.295 Q100.02 191.355 97.0335 192.095 Q100.413 192.882 102.288 195.174 Q104.186 197.466 104.186 200.776 Q104.186 205.799 101.108 208.484 Q98.0521 211.169 92.3345 211.169 Q86.6169 211.169 83.5382 208.484 Q80.4827 205.799 80.4827 200.776 Q80.4827 197.466 82.3808 195.174 Q84.279 192.882 87.6586 192.095 M85.9456 184.711 Q85.9456 187.396 87.6123 188.901 Q89.3021 190.406 92.3345 190.406 Q95.3437 190.406 97.0335 188.901 Q98.7465 187.396 98.7465 184.711 Q98.7465 182.026 97.0335 180.521 Q95.3437 179.017 92.3345 179.017 Q89.3021 179.017 87.6123 180.521 Q85.9456 182.026 85.9456 184.711 Z" fill="#000000" fill-rule="nonzero" fill-opacity="1" /><path clip-path="url(#clip050)" d="M122.496 179.017 Q118.885 179.017 117.057 182.582 Q115.251 186.123 115.251 193.253 Q115.251 200.359 117.057 203.924 Q118.885 207.466 122.496 207.466 Q126.131 207.466 127.936 203.924 Q129.765 200.359 129.765 193.253 Q129.765 186.123 127.936 182.582 Q126.131 179.017 122.496 179.017 M122.496 175.313 Q128.307 175.313 131.362 179.92 Q134.441 184.503 134.441 193.253 Q134.441 201.98 131.362 206.586 Q128.307 211.169 122.496 211.169 Q116.686 211.169 113.608 206.586 Q110.552 201.98 110.552 193.253 Q110.552 184.503 113.608 179.92 Q116.686 175.313 122.496 175.313 Z" fill="#000000" fill-rule="nonzero" fill-opacity="1" /><path clip-path="url(#clip050)" d="M152.658 179.017 Q149.047 179.017 147.218 182.582 Q145.413 186.123 145.413 193.253 Q145.413 200.359 147.218 203.924 Q149.047 207.466 152.658 207.466 Q156.292 207.466 158.098 203.924 Q159.927 200.359 159.927 193.253 Q159.927 186.123 158.098 182.582 Q156.292 179.017 152.658 179.017 M152.658 175.313 Q158.468 175.313 161.524 179.92 Q164.603 184.503 164.603 193.253 Q164.603 201.98 161.524 206.586 Q158.468 211.169 152.658 211.169 Q146.848 211.169 143.769 206.586 Q140.714 201.98 140.714 193.253 Q140.714 184.503 143.769 179.92 Q146.848 175.313 152.658 175.313 Z" fill="#000000" fill-rule="nonzero" fill-opacity="1" /><path clip-path="url(#clip050)" d="M182.82 179.017 Q179.209 179.017 177.38 182.582 Q175.575 186.123 175.575 193.253 Q175.575 200.359 177.38 203.924 Q179.209 207.466 182.82 207.466 Q186.454 207.466 188.26 203.924 Q190.089 200.359 190.089 193.253 Q190.089 186.123 188.26 182.582 Q186.454 179.017 182.82 179.017 M182.82 175.313 Q188.63 175.313 191.686 179.92 Q194.765 184.503 194.765 193.253 Q194.765 201.98 191.686 206.586 Q188.63 211.169 182.82 211.169 Q177.01 211.169 173.931 206.586 Q170.876 201.98 170.876 193.253 Q170.876 184.503 173.931 179.92 Q177.01 175.313 182.82 175.313 Z" fill="#000000" fill-rule="nonzero" fill-opacity="1" /><path clip-path="url(#clip050)" d="M1262.23 35.2602 Q1262.23 29.4732 1259.83 26.2904 Q1257.46 23.1075 1253.15 23.1075 Q1248.86 23.1075 1246.46 26.2904 Q1244.09 29.4732 1244.09 35.2602 Q1244.09 41.0183 1246.46 44.2012 Q1248.86 47.384 1253.15 47.384 Q1257.46 47.384 1259.83 44.2012 Q1262.23 41.0183 1262.23 35.2602 M1267.56 47.818 Q1267.56 56.0934 1263.88 60.1154 Q1260.21 64.1663 1252.63 64.1663 Q1249.82 64.1663 1247.33 63.7323 Q1244.84 63.3272 1242.5 62.4592 L1242.5 57.2798 Q1244.84 58.5529 1247.13 59.1606 Q1249.41 59.7682 1251.79 59.7682 Q1257.02 59.7682 1259.63 57.0194 Q1262.23 54.2995 1262.23 48.7729 L1262.23 46.1398 Q1260.58 49.0044 1258.01 50.4222 Q1255.43 51.84 1251.84 51.84 Q1245.88 51.84 1242.24 47.2972 Q1238.59 42.7544 1238.59 35.2602 Q1238.59 27.7371 1242.24 23.1943 Q1245.88 18.6515 1251.84 18.6515 Q1255.43 18.6515 1258.01 20.0693 Q1260.58 21.4872 1262.23 24.3517 L1262.23 19.4328 L1267.56 19.4328 L1267.56 47.818 Z" fill="#000000" fill-rule="nonzero" fill-opacity="1" /><path clip-path="url(#clip050)" d="M1299.85 24.3517 L1299.85 6.81709 L1305.17 6.81709 L1305.17 51.84 L1299.85 51.84 L1299.85 46.9789 Q1298.17 49.8724 1295.59 51.2902 Q1293.05 52.6791 1289.46 52.6791 Q1283.59 52.6791 1279.88 47.9916 Q1276.21 43.3042 1276.21 35.6653 Q1276.21 28.0265 1279.88 23.339 Q1283.59 18.6515 1289.46 18.6515 Q1293.05 18.6515 1295.59 20.0693 Q1298.17 21.4582 1299.85 24.3517 M1281.71 35.6653 Q1281.71 41.5391 1284.11 44.8956 Q1286.54 48.2231 1290.76 48.2231 Q1294.99 48.2231 1297.42 44.8956 Q1299.85 41.5391 1299.85 35.6653 Q1299.85 29.7915 1297.42 26.464 Q1294.99 23.1075 1290.76 23.1075 Q1286.54 23.1075 1284.11 26.464 Q1281.71 29.7915 1281.71 35.6653 Z" fill="#000000" fill-rule="nonzero" fill-opacity="1" /><path clip-path="url(#clip050)" d="M1321.29 46.9789 L1321.29 64.1663 L1315.94 64.1663 L1315.94 19.4328 L1321.29 19.4328 L1321.29 24.3517 Q1322.97 21.4582 1325.51 20.0693 Q1328.09 18.6515 1331.65 18.6515 Q1337.55 18.6515 1341.22 23.339 Q1344.93 28.0265 1344.93 35.6653 Q1344.93 43.3042 1341.22 47.9916 Q1337.55 52.6791 1331.65 52.6791 Q1328.09 52.6791 1325.51 51.2902 Q1322.97 49.8724 1321.29 46.9789 M1339.4 35.6653 Q1339.4 29.7915 1336.97 26.464 Q1334.57 23.1075 1330.35 23.1075 Q1326.12 23.1075 1323.69 26.464 Q1321.29 29.7915 1321.29 35.6653 Q1321.29 41.5391 1323.69 44.8956 Q1326.12 48.2231 1330.35 48.2231 Q1334.57 48.2231 1336.97 44.8956 Q1339.4 41.5391 1339.4 35.6653 Z" fill="#000000" fill-rule="nonzero" fill-opacity="1" /><polyline clip-path="url(#clip052)" style="stroke:#009af9; stroke-linecap:round; stroke-linejoin:round; stroke-width:4; stroke-opacity:1; fill:none" points="290.821,1447.38 415.938,1135.71 541.056,1113.97 666.173,1052.68 791.291,980.543 916.408,960.625 1041.53,904.614 1166.64,778.701 1291.76,714.497 1416.88,584.632 1542,412.287 1667.11,468.394 1792.23,389.989 1917.35,308.648 2042.46,145.256 2167.58,347.597 2292.7,154.933 "/>
<path clip-path="url(#clip050)" d="M301.498 255.881 L566.127 255.881 L566.127 152.201 L301.498 152.201  Z" fill="#ffffff" fill-rule="evenodd" fill-opacity="1"/>
<polyline clip-path="url(#clip050)" style="stroke:#000000; stroke-linecap:round; stroke-linejoin:round; stroke-width:4; stroke-opacity:1; fill:none" points="301.498,255.881 566.127,255.881 566.127,152.201 301.498,152.201 301.498,255.881 "/>
<polyline clip-path="url(#clip050)" style="stroke:#009af9; stroke-linecap:round; stroke-linejoin:round; stroke-width:4; stroke-opacity:1; fill:none" points="325.075,204.041 466.541,204.041 "/>
<path clip-path="url(#clip050)" d="M503.962 223.728 Q502.156 228.358 500.443 229.77 Q498.73 231.182 495.86 231.182 L492.457 231.182 L492.457 227.617 L494.957 227.617 Q496.716 227.617 497.688 226.784 Q498.661 225.95 499.841 222.848 L500.605 220.904 L490.119 195.395 L494.633 195.395 L502.735 215.673 L510.836 195.395 L515.35 195.395 L503.962 223.728 Z" fill="#000000" fill-rule="nonzero" fill-opacity="1" /><path clip-path="url(#clip050)" d="M522.642 217.385 L530.281 217.385 L530.281 191.02 L521.971 192.687 L521.971 188.427 L530.235 186.761 L534.91 186.761 L534.91 217.385 L542.549 217.385 L542.549 221.321 L522.642 221.321 L522.642 217.385 Z" fill="#000000" fill-rule="nonzero" fill-opacity="1" /></svg>
