<?xml version="1.0" encoding="utf-8"?>
<svg xmlns="http://www.w3.org/2000/svg" xmlns:xlink="http://www.w3.org/1999/xlink" width="600" height="400" viewBox="0 0 2400 1600">
<defs>
  <clipPath id="clip350">
    <rect x="0" y="0" width="2400" height="1600"/>
  </clipPath>
</defs>
<path clip-path="url(#clip350)" d="M0 1600 L2400 1600 L2400 0 L0 0  Z" fill="#ffffff" fill-rule="evenodd" fill-opacity="1"/>
<defs>
  <clipPath id="clip351">
    <rect x="480" y="0" width="1681" height="1600"/>
  </clipPath>
</defs>
<path clip-path="url(#clip350)" d="M230.765 1486.45 L2352.76 1486.45 L2352.76 106.192 L230.765 106.192  Z" fill="#ffffff" fill-rule="evenodd" fill-opacity="1"/>
<defs>
  <clipPath id="clip352">
    <rect x="230" y="106" width="2123" height="1381"/>
  </clipPath>
</defs>
<polyline clip-path="url(#clip352)" style="stroke:#000000; stroke-linecap:round; stroke-linejoin:round; stroke-width:2; stroke-opacity:0.1; fill:none" points="541.056,1486.45 541.056,106.192 "/>
<polyline clip-path="url(#clip352)" style="stroke:#000000; stroke-linecap:round; stroke-linejoin:round; stroke-width:2; stroke-opacity:0.1; fill:none" points="916.408,1486.45 916.408,106.192 "/>
<polyline clip-path="url(#clip352)" style="stroke:#000000; stroke-linecap:round; stroke-linejoin:round; stroke-width:2; stroke-opacity:0.1; fill:none" points="1291.76,1486.45 1291.76,106.192 "/>
<polyline clip-path="url(#clip352)" style="stroke:#000000; stroke-linecap:round; stroke-linejoin:round; stroke-width:2; stroke-opacity:0.1; fill:none" points="1667.11,1486.45 1667.11,106.192 "/>
<polyline clip-path="url(#clip352)" style="stroke:#000000; stroke-linecap:round; stroke-linejoin:round; stroke-width:2; stroke-opacity:0.1; fill:none" points="2042.46,1486.45 2042.46,106.192 "/>
<polyline clip-path="url(#clip352)" style="stroke:#000000; stroke-linecap:round; stroke-linejoin:round; stroke-width:2; stroke-opacity:0.1; fill:none" points="230.765,1467.85 2352.76,1467.85 "/>
<polyline clip-path="url(#clip352)" style="stroke:#000000; stroke-linecap:round; stroke-linejoin:round; stroke-width:2; stroke-opacity:0.1; fill:none" points="230.765,1247.77 2352.76,1247.77 "/>
<polyline clip-path="url(#clip352)" style="stroke:#000000; stroke-linecap:round; stroke-linejoin:round; stroke-width:2; stroke-opacity:0.1; fill:none" points="230.765,1027.69 2352.76,1027.69 "/>
<polyline clip-path="url(#clip352)" style="stroke:#000000; stroke-linecap:round; stroke-linejoin:round; stroke-width:2; stroke-opacity:0.1; fill:none" points="230.765,807.613 2352.76,807.613 "/>
<polyline clip-path="url(#clip352)" style="stroke:#000000; stroke-linecap:round; stroke-linejoin:round; stroke-width:2; stroke-opacity:0.1; fill:none" points="230.765,587.533 2352.76,587.533 "/>
<polyline clip-path="url(#clip352)" style="stroke:#000000; stroke-linecap:round; stroke-linejoin:round; stroke-width:2; stroke-opacity:0.1; fill:none" points="230.765,367.453 2352.76,367.453 "/>
<polyline clip-path="url(#clip352)" style="stroke:#000000; stroke-linecap:round; stroke-linejoin:round; stroke-width:2; stroke-opacity:0.1; fill:none" points="230.765,147.374 2352.76,147.374 "/>
<polyline clip-path="url(#clip350)" style="stroke:#000000; stroke-linecap:round; stroke-linejoin:round; stroke-width:4; stroke-opacity:1; fill:none" points="230.765,1486.45 2352.76,1486.45 "/>
<polyline clip-path="url(#clip350)" style="stroke:#000000; stroke-linecap:round; stroke-linejoin:round; stroke-width:4; stroke-opacity:1; fill:none" points="541.056,1486.45 541.056,1467.55 "/>
<polyline clip-path="url(#clip350)" style="stroke:#000000; stroke-linecap:round; stroke-linejoin:round; stroke-width:4; stroke-opacity:1; fill:none" points="916.408,1486.45 916.408,1467.55 "/>
<polyline clip-path="url(#clip350)" style="stroke:#000000; stroke-linecap:round; stroke-linejoin:round; stroke-width:4; stroke-opacity:1; fill:none" points="1291.76,1486.45 1291.76,1467.55 "/>
<polyline clip-path="url(#clip350)" style="stroke:#000000; stroke-linecap:round; stroke-linejoin:round; stroke-width:4; stroke-opacity:1; fill:none" points="1667.11,1486.45 1667.11,1467.55 "/>
<polyline clip-path="url(#clip350)" style="stroke:#000000; stroke-linecap:round; stroke-linejoin:round; stroke-width:4; stroke-opacity:1; fill:none" points="2042.46,1486.45 2042.46,1467.55 "/>
<path clip-path="url(#clip350)" d="M545.303 1530.21 Q548.66 1530.93 550.535 1533.2 Q552.433 1535.47 552.433 1538.8 Q552.433 1543.92 548.914 1546.72 Q545.396 1549.52 538.915 1549.52 Q536.739 1549.52 534.424 1549.08 Q532.132 1548.66 529.678 1547.81 L529.678 1543.29 Q531.623 1544.43 533.938 1545.01 Q536.252 1545.58 538.776 1545.58 Q543.174 1545.58 545.465 1543.85 Q547.78 1542.11 547.78 1538.8 Q547.78 1535.75 545.627 1534.03 Q543.498 1532.3 539.678 1532.3 L535.651 1532.3 L535.651 1528.45 L539.864 1528.45 Q543.313 1528.45 545.141 1527.09 Q546.97 1525.7 546.97 1523.11 Q546.97 1520.45 545.072 1519.03 Q543.197 1517.6 539.678 1517.6 Q537.757 1517.6 535.558 1518.01 Q533.359 1518.43 530.72 1519.31 L530.72 1515.14 Q533.382 1514.4 535.697 1514.03 Q538.035 1513.66 540.095 1513.66 Q545.419 1513.66 548.521 1516.09 Q551.623 1518.5 551.623 1522.62 Q551.623 1525.49 549.979 1527.48 Q548.336 1529.45 545.303 1530.21 Z" fill="#000000" fill-rule="nonzero" fill-opacity="1" /><path clip-path="url(#clip350)" d="M916.813 1529.7 Q913.665 1529.7 911.813 1531.86 Q909.984 1534.01 909.984 1537.76 Q909.984 1541.49 911.813 1543.66 Q913.665 1545.82 916.813 1545.82 Q919.961 1545.82 921.79 1543.66 Q923.642 1541.49 923.642 1537.76 Q923.642 1534.01 921.79 1531.86 Q919.961 1529.7 916.813 1529.7 M926.095 1515.05 L926.095 1519.31 Q924.336 1518.48 922.531 1518.04 Q920.748 1517.6 918.989 1517.6 Q914.359 1517.6 911.906 1520.72 Q909.475 1523.85 909.128 1530.17 Q910.494 1528.15 912.554 1527.09 Q914.614 1526 917.091 1526 Q922.299 1526 925.308 1529.17 Q928.341 1532.32 928.341 1537.76 Q928.341 1543.08 925.193 1546.3 Q922.044 1549.52 916.813 1549.52 Q910.818 1549.52 907.646 1544.94 Q904.475 1540.33 904.475 1531.6 Q904.475 1523.41 908.364 1518.55 Q912.253 1513.66 918.804 1513.66 Q920.563 1513.66 922.345 1514.01 Q924.151 1514.36 926.095 1515.05 Z" fill="#000000" fill-rule="nonzero" fill-opacity="1" /><path clip-path="url(#clip350)" d="M1282.06 1548.13 L1282.06 1543.87 Q1283.82 1544.7 1285.63 1545.14 Q1287.43 1545.58 1289.17 1545.58 Q1293.8 1545.58 1296.23 1542.48 Q1298.68 1539.36 1299.03 1533.01 Q1297.69 1535.01 1295.63 1536.07 Q1293.57 1537.13 1291.07 1537.13 Q1285.88 1537.13 1282.85 1534.01 Q1279.84 1530.86 1279.84 1525.42 Q1279.84 1520.1 1282.99 1516.88 Q1286.14 1513.66 1291.37 1513.66 Q1297.36 1513.66 1300.51 1518.27 Q1303.68 1522.85 1303.68 1531.6 Q1303.68 1539.77 1299.79 1544.66 Q1295.93 1549.52 1289.38 1549.52 Q1287.62 1549.52 1285.81 1549.17 Q1284.01 1548.82 1282.06 1548.13 M1291.37 1533.48 Q1294.51 1533.48 1296.34 1531.32 Q1298.2 1529.17 1298.2 1525.42 Q1298.2 1521.7 1296.34 1519.54 Q1294.51 1517.37 1291.37 1517.37 Q1288.22 1517.37 1286.37 1519.54 Q1284.54 1521.7 1284.54 1525.42 Q1284.54 1529.17 1286.37 1531.32 Q1288.22 1533.48 1291.37 1533.48 Z" fill="#000000" fill-rule="nonzero" fill-opacity="1" /><path clip-path="url(#clip350)" d="M1642.6 1544.91 L1650.24 1544.91 L1650.24 1518.55 L1641.93 1520.21 L1641.93 1515.95 L1650.19 1514.29 L1654.87 1514.29 L1654.87 1544.91 L1662.51 1544.91 L1662.51 1548.85 L1642.6 1548.85 L1642.6 1544.91 Z" fill="#000000" fill-rule="nonzero" fill-opacity="1" /><path clip-path="url(#clip350)" d="M1675.98 1544.91 L1692.3 1544.91 L1692.3 1548.85 L1670.35 1548.85 L1670.35 1544.91 Q1673.02 1542.16 1677.6 1537.53 Q1682.2 1532.88 1683.39 1531.53 Q1685.63 1529.01 1686.51 1527.27 Q1687.41 1525.51 1687.41 1523.82 Q1687.41 1521.07 1685.47 1519.33 Q1683.55 1517.6 1680.45 1517.6 Q1678.25 1517.6 1675.79 1518.36 Q1673.36 1519.13 1670.58 1520.68 L1670.58 1515.95 Q1673.41 1514.82 1675.86 1514.24 Q1678.32 1513.66 1680.35 1513.66 Q1685.72 1513.66 1688.92 1516.35 Q1692.11 1519.03 1692.11 1523.52 Q1692.11 1525.65 1691.3 1527.57 Q1690.52 1529.47 1688.41 1532.07 Q1687.83 1532.74 1684.73 1535.95 Q1681.63 1539.15 1675.98 1544.91 Z" fill="#000000" fill-rule="nonzero" fill-opacity="1" /><path clip-path="url(#clip350)" d="M2017.65 1544.91 L2025.29 1544.91 L2025.29 1518.55 L2016.98 1520.21 L2016.98 1515.95 L2025.24 1514.29 L2029.92 1514.29 L2029.92 1544.91 L2037.56 1544.91 L2037.56 1548.85 L2017.65 1548.85 L2017.65 1544.91 Z" fill="#000000" fill-rule="nonzero" fill-opacity="1" /><path clip-path="url(#clip350)" d="M2047.05 1514.29 L2065.4 1514.29 L2065.4 1518.22 L2051.33 1518.22 L2051.33 1526.7 Q2052.35 1526.35 2053.37 1526.19 Q2054.39 1526 2055.4 1526 Q2061.19 1526 2064.57 1529.17 Q2067.95 1532.34 2067.95 1537.76 Q2067.95 1543.34 2064.48 1546.44 Q2061.01 1549.52 2054.69 1549.52 Q2052.51 1549.52 2050.24 1549.15 Q2048 1548.78 2045.59 1548.04 L2045.59 1543.34 Q2047.67 1544.47 2049.9 1545.03 Q2052.12 1545.58 2054.59 1545.58 Q2058.6 1545.58 2060.94 1543.48 Q2063.27 1541.37 2063.27 1537.76 Q2063.27 1534.15 2060.94 1532.04 Q2058.6 1529.94 2054.59 1529.94 Q2052.72 1529.94 2050.84 1530.35 Q2048.99 1530.77 2047.05 1531.65 L2047.05 1514.29 Z" fill="#000000" fill-rule="nonzero" fill-opacity="1" /><polyline clip-path="url(#clip350)" style="stroke:#000000; stroke-linecap:round; stroke-linejoin:round; stroke-width:4; stroke-opacity:1; fill:none" points="230.765,1486.45 230.765,106.192 "/>
<polyline clip-path="url(#clip350)" style="stroke:#000000; stroke-linecap:round; stroke-linejoin:round; stroke-width:4; stroke-opacity:1; fill:none" points="230.765,1467.85 249.662,1467.85 "/>
<polyline clip-path="url(#clip350)" style="stroke:#000000; stroke-linecap:round; stroke-linejoin:round; stroke-width:4; stroke-opacity:1; fill:none" points="230.765,1247.77 249.662,1247.77 "/>
<polyline clip-path="url(#clip350)" style="stroke:#000000; stroke-linecap:round; stroke-linejoin:round; stroke-width:4; stroke-opacity:1; fill:none" points="230.765,1027.69 249.662,1027.69 "/>
<polyline clip-path="url(#clip350)" style="stroke:#000000; stroke-linecap:round; stroke-linejoin:round; stroke-width:4; stroke-opacity:1; fill:none" points="230.765,807.613 249.662,807.613 "/>
<polyline clip-path="url(#clip350)" style="stroke:#000000; stroke-linecap:round; stroke-linejoin:round; stroke-width:4; stroke-opacity:1; fill:none" points="230.765,587.533 249.662,587.533 "/>
<polyline clip-path="url(#clip350)" style="stroke:#000000; stroke-linecap:round; stroke-linejoin:round; stroke-width:4; stroke-opacity:1; fill:none" points="230.765,367.453 249.662,367.453 "/>
<polyline clip-path="url(#clip350)" style="stroke:#000000; stroke-linecap:round; stroke-linejoin:round; stroke-width:4; stroke-opacity:1; fill:none" points="230.765,147.374 249.662,147.374 "/>
<path clip-path="url(#clip350)" d="M50.9921 1450.57 L73.2142 1450.57 L73.2142 1452.56 L60.668 1485.13 L55.7838 1485.13 L67.5893 1454.51 L50.9921 1454.51 L50.9921 1450.57 Z" fill="#000000" fill-rule="nonzero" fill-opacity="1" /><path clip-path="url(#clip350)" d="M86.3623 1481.2 L102.682 1481.2 L102.682 1485.13 L80.7373 1485.13 L80.7373 1481.2 Q83.3994 1478.44 87.9827 1473.81 Q92.5891 1469.16 93.7697 1467.82 Q96.015 1465.29 96.8947 1463.56 Q97.7974 1461.8 97.7974 1460.11 Q97.7974 1457.35 95.853 1455.62 Q93.9317 1453.88 90.8299 1453.88 Q88.6308 1453.88 86.1771 1454.65 Q83.7466 1455.41 80.9688 1456.96 L80.9688 1452.24 Q83.7929 1451.1 86.2466 1450.53 Q88.7003 1449.95 90.7373 1449.95 Q96.1076 1449.95 99.3021 1452.63 Q102.496 1455.32 102.496 1459.81 Q102.496 1461.94 101.686 1463.86 Q100.899 1465.76 98.7928 1468.35 Q98.2141 1469.02 95.1123 1472.24 Q92.0104 1475.43 86.3623 1481.2 Z" fill="#000000" fill-rule="nonzero" fill-opacity="1" /><path clip-path="url(#clip350)" d="M122.496 1453.65 Q118.885 1453.65 117.057 1457.22 Q115.251 1460.76 115.251 1467.89 Q115.251 1474.99 117.057 1478.56 Q118.885 1482.1 122.496 1482.1 Q126.131 1482.1 127.936 1478.56 Q129.765 1474.99 129.765 1467.89 Q129.765 1460.76 127.936 1457.22 Q126.131 1453.65 122.496 1453.65 M122.496 1449.95 Q128.307 1449.95 131.362 1454.55 Q134.441 1459.14 134.441 1467.89 Q134.441 1476.61 131.362 1481.22 Q128.307 1485.8 122.496 1485.8 Q116.686 1485.8 113.608 1481.22 Q110.552 1476.61 110.552 1467.89 Q110.552 1459.14 113.608 1454.55 Q116.686 1449.95 122.496 1449.95 Z" fill="#000000" fill-rule="nonzero" fill-opacity="1" /><path clip-path="url(#clip350)" d="M152.658 1453.65 Q149.047 1453.65 147.218 1457.22 Q145.413 1460.76 145.413 1467.89 Q145.413 1474.99 147.218 1478.56 Q149.047 1482.1 152.658 1482.1 Q156.292 1482.1 158.098 1478.56 Q159.927 1474.99 159.927 1467.89 Q159.927 1460.76 158.098 1457.22 Q156.292 1453.65 152.658 1453.65 M152.658 1449.95 Q158.468 1449.95 161.524 1454.55 Q164.603 1459.14 164.603 1467.89 Q164.603 1476.61 161.524 1481.22 Q158.468 1485.8 152.658 1485.8 Q146.848 1485.8 143.769 1481.22 Q140.714 1476.61 140.714 1467.89 Q140.714 1459.14 143.769 1454.55 Q146.848 1449.95 152.658 1449.95 Z" fill="#000000" fill-rule="nonzero" fill-opacity="1" /><path clip-path="url(#clip350)" d="M182.82 1453.65 Q179.209 1453.65 177.38 1457.22 Q175.575 1460.76 175.575 1467.89 Q175.575 1474.99 177.38 1478.56 Q179.209 1482.1 182.82 1482.1 Q186.454 1482.1 188.26 1478.56 Q190.089 1474.99 190.089 1467.89 Q190.089 1460.76 188.26 1457.22 Q186.454 1453.65 182.82 1453.65 M182.82 1449.95 Q188.63 1449.95 191.686 1454.55 Q194.765 1459.14 194.765 1467.89 Q194.765 1476.61 191.686 1481.22 Q188.63 1485.8 182.82 1485.8 Q177.01 1485.8 173.931 1481.22 Q170.876 1476.61 170.876 1467.89 Q170.876 1459.14 173.931 1454.55 Q177.01 1449.95 182.82 1449.95 Z" fill="#000000" fill-rule="nonzero" fill-opacity="1" /><path clip-path="url(#clip350)" d="M50.9921 1230.49 L73.2142 1230.49 L73.2142 1232.48 L60.668 1265.05 L55.7838 1265.05 L67.5893 1234.43 L50.9921 1234.43 L50.9921 1230.49 Z" fill="#000000" fill-rule="nonzero" fill-opacity="1" /><path clip-path="url(#clip350)" d="M96.5011 1246.42 Q99.8576 1247.14 101.733 1249.4 Q103.631 1251.67 103.631 1255.01 Q103.631 1260.12 100.112 1262.92 Q96.5937 1265.72 90.1123 1265.72 Q87.9364 1265.72 85.6216 1265.28 Q83.3299 1264.87 80.8762 1264.01 L80.8762 1259.5 Q82.8207 1260.63 85.1355 1261.21 Q87.4503 1261.79 89.9734 1261.79 Q94.3715 1261.79 96.6632 1260.05 Q98.978 1258.32 98.978 1255.01 Q98.978 1251.95 96.8252 1250.24 Q94.6956 1248.5 90.8762 1248.5 L86.8484 1248.5 L86.8484 1244.66 L91.0614 1244.66 Q94.5104 1244.66 96.3391 1243.29 Q98.1678 1241.9 98.1678 1239.31 Q98.1678 1236.65 96.2697 1235.24 Q94.3947 1233.8 90.8762 1233.8 Q88.9549 1233.8 86.7558 1234.22 Q84.5568 1234.64 81.9179 1235.52 L81.9179 1231.35 Q84.5799 1230.61 86.8947 1230.24 Q89.2327 1229.87 91.2928 1229.87 Q96.6169 1229.87 99.7187 1232.3 Q102.821 1234.71 102.821 1238.83 Q102.821 1241.7 101.177 1243.69 Q99.5335 1245.65 96.5011 1246.42 Z" fill="#000000" fill-rule="nonzero" fill-opacity="1" /><path clip-path="url(#clip350)" d="M122.496 1233.57 Q118.885 1233.57 117.057 1237.14 Q115.251 1240.68 115.251 1247.81 Q115.251 1254.91 117.057 1258.48 Q118.885 1262.02 122.496 1262.02 Q126.131 1262.02 127.936 1258.48 Q129.765 1254.91 129.765 1247.81 Q129.765 1240.68 127.936 1237.14 Q126.131 1233.57 122.496 1233.57 M122.496 1229.87 Q128.307 1229.87 131.362 1234.47 Q134.441 1239.06 134.441 1247.81 Q134.441 1256.53 131.362 1261.14 Q128.307 1265.72 122.496 1265.72 Q116.686 1265.72 113.608 1261.14 Q110.552 1256.53 110.552 1247.81 Q110.552 1239.06 113.608 1234.47 Q116.686 1229.87 122.496 1229.87 Z" fill="#000000" fill-rule="nonzero" fill-opacity="1" /><path clip-path="url(#clip350)" d="M152.658 1233.57 Q149.047 1233.57 147.218 1237.14 Q145.413 1240.68 145.413 1247.81 Q145.413 1254.91 147.218 1258.48 Q149.047 1262.02 152.658 1262.02 Q156.292 1262.02 158.098 1258.48 Q159.927 1254.91 159.927 1247.81 Q159.927 1240.68 158.098 1237.14 Q156.292 1233.57 152.658 1233.57 M152.658 1229.87 Q158.468 1229.87 161.524 1234.47 Q164.603 1239.06 164.603 1247.81 Q164.603 1256.53 161.524 1261.14 Q158.468 1265.72 152.658 1265.72 Q146.848 1265.72 143.769 1261.14 Q140.714 1256.53 140.714 1247.81 Q140.714 1239.06 143.769 1234.47 Q146.848 1229.87 152.658 1229.87 Z" fill="#000000" fill-rule="nonzero" fill-opacity="1" /><path clip-path="url(#clip350)" d="M182.82 1233.57 Q179.209 1233.57 177.38 1237.14 Q175.575 1240.68 175.575 1247.81 Q175.575 1254.91 177.38 1258.48 Q179.209 1262.02 182.82 1262.02 Q186.454 1262.02 188.26 1258.48 Q190.089 1254.91 190.089 1247.81 Q190.089 1240.68 188.26 1237.14 Q186.454 1233.57 182.82 1233.57 M182.82 1229.87 Q188.63 1229.87 191.686 1234.47 Q194.765 1239.06 194.765 1247.81 Q194.765 1256.53 191.686 1261.14 Q188.63 1265.72 182.82 1265.72 Q177.01 1265.72 173.931 1261.14 Q170.876 1256.53 170.876 1247.81 Q170.876 1239.06 173.931 1234.47 Q177.01 1229.87 182.82 1229.87 Z" fill="#000000" fill-rule="nonzero" fill-opacity="1" /><path clip-path="url(#clip350)" d="M50.9921 1010.41 L73.2142 1010.41 L73.2142 1012.4 L60.668 1044.97 L55.7838 1044.97 L67.5893 1014.35 L50.9921 1014.35 L50.9921 1010.41 Z" fill="#000000" fill-rule="nonzero" fill-opacity="1" /><path clip-path="url(#clip350)" d="M95.1817 1014.49 L83.3762 1032.94 L95.1817 1032.94 L95.1817 1014.49 M93.9549 1010.41 L99.8345 1010.41 L99.8345 1032.94 L104.765 1032.94 L104.765 1036.82 L99.8345 1036.82 L99.8345 1044.97 L95.1817 1044.97 L95.1817 1036.82 L79.5799 1036.82 L79.5799 1032.31 L93.9549 1010.41 Z" fill="#000000" fill-rule="nonzero" fill-opacity="1" /><path clip-path="url(#clip350)" d="M122.496 1013.49 Q118.885 1013.49 117.057 1017.06 Q115.251 1020.6 115.251 1027.73 Q115.251 1034.83 117.057 1038.4 Q118.885 1041.94 122.496 1041.94 Q126.131 1041.94 127.936 1038.4 Q129.765 1034.83 129.765 1027.73 Q129.765 1020.6 127.936 1017.06 Q126.131 1013.49 122.496 1013.49 M122.496 1009.79 Q128.307 1009.79 131.362 1014.39 Q134.441 1018.98 134.441 1027.73 Q134.441 1036.45 131.362 1041.06 Q128.307 1045.64 122.496 1045.64 Q116.686 1045.64 113.608 1041.06 Q110.552 1036.45 110.552 1027.73 Q110.552 1018.98 113.608 1014.39 Q116.686 1009.79 122.496 1009.79 Z" fill="#000000" fill-rule="nonzero" fill-opacity="1" /><path clip-path="url(#clip350)" d="M152.658 1013.49 Q149.047 1013.49 147.218 1017.06 Q145.413 1020.6 145.413 1027.73 Q145.413 1034.83 147.218 1038.4 Q149.047 1041.94 152.658 1041.94 Q156.292 1041.94 158.098 1038.4 Q159.927 1034.83 159.927 1027.73 Q159.927 1020.6 158.098 1017.06 Q156.292 1013.49 152.658 1013.49 M152.658 1009.79 Q158.468 1009.79 161.524 1014.39 Q164.603 1018.98 164.603 1027.73 Q164.603 1036.45 161.524 1041.06 Q158.468 1045.64 152.658 1045.64 Q146.848 1045.64 143.769 1041.06 Q140.714 1036.45 140.714 1027.73 Q140.714 1018.98 143.769 1014.39 Q146.848 1009.79 152.658 1009.79 Z" fill="#000000" fill-rule="nonzero" fill-opacity="1" /><path clip-path="url(#clip350)" d="M182.82 1013.49 Q179.209 1013.49 177.38 1017.06 Q175.575 1020.6 175.575 1027.73 Q175.575 1034.83 177.38 1038.4 Q179.209 1041.94 182.82 1041.94 Q186.454 1041.94 188.26 1038.4 Q190.089 1034.83 190.089 1027.73 Q190.089 1020.6 188.26 1017.06 Q186.454 1013.49 182.82 1013.49 M182.82 1009.79 Q188.63 1009.79 191.686 1014.39 Q194.765 1018.98 194.765 1027.73 Q194.765 1036.45 191.686 1041.06 Q188.63 1045.64 182.82 1045.64 Q177.01 1045.64 173.931 1041.06 Q170.876 1036.45 170.876 1027.73 Q170.876 1018.98 173.931 1014.39 Q177.01 1009.79 182.82 1009.79 Z" fill="#000000" fill-rule="nonzero" fill-opacity="1" /><path clip-path="url(#clip350)" d="M50.9921 790.333 L73.2142 790.333 L73.2142 792.324 L60.668 824.893 L55.7838 824.893 L67.5893 794.268 L50.9921 794.268 L50.9921 790.333 Z" fill="#000000" fill-rule="nonzero" fill-opacity="1" /><path clip-path="url(#clip350)" d="M82.3808 790.333 L100.737 790.333 L100.737 794.268 L86.6632 794.268 L86.6632 802.74 Q87.6817 802.393 88.7003 802.231 Q89.7188 802.046 90.7373 802.046 Q96.5243 802.046 99.9039 805.217 Q103.284 808.389 103.284 813.805 Q103.284 819.384 99.8113 822.486 Q96.3391 825.564 90.0197 825.564 Q87.8438 825.564 85.5753 825.194 Q83.3299 824.824 80.9225 824.083 L80.9225 819.384 Q83.0058 820.518 85.2281 821.074 Q87.4503 821.629 89.9271 821.629 Q93.9317 821.629 96.2697 819.523 Q98.6076 817.416 98.6076 813.805 Q98.6076 810.194 96.2697 808.088 Q93.9317 805.981 89.9271 805.981 Q88.0521 805.981 86.1771 806.398 Q84.3253 806.814 82.3808 807.694 L82.3808 790.333 Z" fill="#000000" fill-rule="nonzero" fill-opacity="1" /><path clip-path="url(#clip350)" d="M122.496 793.412 Q118.885 793.412 117.057 796.977 Q115.251 800.518 115.251 807.648 Q115.251 814.754 117.057 818.319 Q118.885 821.861 122.496 821.861 Q126.131 821.861 127.936 818.319 Q129.765 814.754 129.765 807.648 Q129.765 800.518 127.936 796.977 Q126.131 793.412 122.496 793.412 M122.496 789.708 Q128.307 789.708 131.362 794.315 Q134.441 798.898 134.441 807.648 Q134.441 816.375 131.362 820.981 Q128.307 825.564 122.496 825.564 Q116.686 825.564 113.608 820.981 Q110.552 816.375 110.552 807.648 Q110.552 798.898 113.608 794.315 Q116.686 789.708 122.496 789.708 Z" fill="#000000" fill-rule="nonzero" fill-opacity="1" /><path clip-path="url(#clip350)" d="M152.658 793.412 Q149.047 793.412 147.218 796.977 Q145.413 800.518 145.413 807.648 Q145.413 814.754 147.218 818.319 Q149.047 821.861 152.658 821.861 Q156.292 821.861 158.098 818.319 Q159.927 814.754 159.927 807.648 Q159.927 800.518 158.098 796.977 Q156.292 793.412 152.658 793.412 M152.658 789.708 Q158.468 789.708 161.524 794.315 Q164.603 798.898 164.603 807.648 Q164.603 816.375 161.524 820.981 Q158.468 825.564 152.658 825.564 Q146.848 825.564 143.769 820.981 Q140.714 816.375 140.714 807.648 Q140.714 798.898 143.769 794.315 Q146.848 789.708 152.658 789.708 Z" fill="#000000" fill-rule="nonzero" fill-opacity="1" /><path clip-path="url(#clip350)" d="M182.82 793.412 Q179.209 793.412 177.38 796.977 Q175.575 800.518 175.575 807.648 Q175.575 814.754 177.38 818.319 Q179.209 821.861 182.82 821.861 Q186.454 821.861 188.26 818.319 Q190.089 814.754 190.089 807.648 Q190.089 800.518 188.26 796.977 Q186.454 793.412 182.82 793.412 M182.82 789.708 Q188.63 789.708 191.686 794.315 Q194.765 798.898 194.765 807.648 Q194.765 816.375 191.686 820.981 Q188.63 825.564 182.82 825.564 Q177.01 825.564 173.931 820.981 Q170.876 816.375 170.876 807.648 Q170.876 798.898 173.931 794.315 Q177.01 789.708 182.82 789.708 Z" fill="#000000" fill-rule="nonzero" fill-opacity="1" /><path clip-path="url(#clip350)" d="M50.9921 570.253 L73.2142 570.253 L73.2142 572.244 L60.668 604.813 L55.7838 604.813 L67.5893 574.188 L50.9921 574.188 L50.9921 570.253 Z" fill="#000000" fill-rule="nonzero" fill-opacity="1" /><path clip-path="url(#clip350)" d="M92.9132 585.67 Q89.7651 585.67 87.9132 587.823 Q86.0845 589.975 86.0845 593.725 Q86.0845 597.452 87.9132 599.628 Q89.7651 601.781 92.9132 601.781 Q96.0613 601.781 97.89 599.628 Q99.7419 597.452 99.7419 593.725 Q99.7419 589.975 97.89 587.823 Q96.0613 585.67 92.9132 585.67 M102.196 571.017 L102.196 575.276 Q100.436 574.443 98.6308 574.003 Q96.8484 573.563 95.0891 573.563 Q90.4595 573.563 88.0058 576.688 Q85.5753 579.813 85.2281 586.133 Q86.5938 584.119 88.654 583.054 Q90.7141 581.966 93.191 581.966 Q98.3993 581.966 101.409 585.137 Q104.441 588.286 104.441 593.725 Q104.441 599.049 101.293 602.267 Q98.1447 605.485 92.9132 605.485 Q86.9179 605.485 83.7466 600.901 Q80.5753 596.295 80.5753 587.568 Q80.5753 579.374 84.4642 574.512 Q88.353 569.628 94.9039 569.628 Q96.6632 569.628 98.4456 569.975 Q100.251 570.323 102.196 571.017 Z" fill="#000000" fill-rule="nonzero" fill-opacity="1" /><path clip-path="url(#clip350)" d="M122.496 573.332 Q118.885 573.332 117.057 576.897 Q115.251 580.438 115.251 587.568 Q115.251 594.674 117.057 598.239 Q118.885 601.781 122.496 601.781 Q126.131 601.781 127.936 598.239 Q129.765 594.674 129.765 587.568 Q129.765 580.438 127.936 576.897 Q126.131 573.332 122.496 573.332 M122.496 569.628 Q128.307 569.628 131.362 574.235 Q134.441 578.818 134.441 587.568 Q134.441 596.295 131.362 600.901 Q128.307 605.485 122.496 605.485 Q116.686 605.485 113.608 600.901 Q110.552 596.295 110.552 587.568 Q110.552 578.818 113.608 574.235 Q116.686 569.628 122.496 569.628 Z" fill="#000000" fill-rule="nonzero" fill-opacity="1" /><path clip-path="url(#clip350)" d="M152.658 573.332 Q149.047 573.332 147.218 576.897 Q145.413 580.438 145.413 587.568 Q145.413 594.674 147.218 598.239 Q149.047 601.781 152.658 601.781 Q156.292 601.781 158.098 598.239 Q159.927 594.674 159.927 587.568 Q159.927 580.438 158.098 576.897 Q156.292 573.332 152.658 573.332 M152.658 569.628 Q158.468 569.628 161.524 574.235 Q164.603 578.818 164.603 587.568 Q164.603 596.295 161.524 600.901 Q158.468 605.485 152.658 605.485 Q146.848 605.485 143.769 600.901 Q140.714 596.295 140.714 587.568 Q140.714 578.818 143.769 574.235 Q146.848 569.628 152.658 569.628 Z" fill="#000000" fill-rule="nonzero" fill-opacity="1" /><path clip-path="url(#clip350)" d="M182.82 573.332 Q179.209 573.332 177.38 576.897 Q175.575 580.438 175.575 587.568 Q175.575 594.674 177.38 598.239 Q179.209 601.781 182.82 601.781 Q186.454 601.781 188.26 598.239 Q190.089 594.674 190.089 587.568 Q190.089 580.438 188.26 576.897 Q186.454 573.332 182.82 573.332 M182.82 569.628 Q188.63 569.628 191.686 574.235 Q194.765 578.818 194.765 587.568 Q194.765 596.295 191.686 600.901 Q188.63 605.485 182.82 605.485 Q177.01 605.485 173.931 600.901 Q170.876 596.295 170.876 587.568 Q170.876 578.818 173.931 574.235 Q177.01 569.628 182.82 569.628 Z" fill="#000000" fill-rule="nonzero" fill-opacity="1" /><path clip-path="url(#clip350)" d="M50.9921 350.173 L73.2142 350.173 L73.2142 352.164 L60.668 384.733 L55.7838 384.733 L67.5893 354.109 L50.9921 354.109 L50.9921 350.173 Z" fill="#000000" fill-rule="nonzero" fill-opacity="1" /><path clip-path="url(#clip350)" d="M81.154 350.173 L103.376 350.173 L103.376 352.164 L90.8299 384.733 L85.9456 384.733 L97.7511 354.109 L81.154 354.109 L81.154 350.173 Z" fill="#000000" fill-rule="nonzero" fill-opacity="1" /><path clip-path="url(#clip350)" d="M122.496 353.252 Q118.885 353.252 117.057 356.817 Q115.251 360.359 115.251 367.488 Q115.251 374.595 117.057 378.159 Q118.885 381.701 122.496 381.701 Q126.131 381.701 127.936 378.159 Q129.765 374.595 129.765 367.488 Q129.765 360.359 127.936 356.817 Q126.131 353.252 122.496 353.252 M122.496 349.548 Q128.307 349.548 131.362 354.155 Q134.441 358.738 134.441 367.488 Q134.441 376.215 131.362 380.821 Q128.307 385.405 122.496 385.405 Q116.686 385.405 113.608 380.821 Q110.552 376.215 110.552 367.488 Q110.552 358.738 113.608 354.155 Q116.686 349.548 122.496 349.548 Z" fill="#000000" fill-rule="nonzero" fill-opacity="1" /><path clip-path="url(#clip350)" d="M152.658 353.252 Q149.047 353.252 147.218 356.817 Q145.413 360.359 145.413 367.488 Q145.413 374.595 147.218 378.159 Q149.047 381.701 152.658 381.701 Q156.292 381.701 158.098 378.159 Q159.927 374.595 159.927 367.488 Q159.927 360.359 158.098 356.817 Q156.292 353.252 152.658 353.252 M152.658 349.548 Q158.468 349.548 161.524 354.155 Q164.603 358.738 164.603 367.488 Q164.603 376.215 161.524 380.821 Q158.468 385.405 152.658 385.405 Q146.848 385.405 143.769 380.821 Q140.714 376.215 140.714 367.488 Q140.714 358.738 143.769 354.155 Q146.848 349.548 152.658 349.548 Z" fill="#000000" fill-rule="nonzero" fill-opacity="1" /><path clip-path="url(#clip350)" d="M182.82 353.252 Q179.209 353.252 177.38 356.817 Q175.575 360.359 175.575 367.488 Q175.575 374.595 177.38 378.159 Q179.209 381.701 182.82 381.701 Q186.454 381.701 188.26 378.159 Q190.089 374.595 190.089 367.488 Q190.089 360.359 188.26 356.817 Q186.454 353.252 182.82 353.252 M182.82 349.548 Q188.63 349.548 191.686 354.155 Q194.765 358.738 194.765 367.488 Q194.765 376.215 191.686 380.821 Q188.63 385.405 182.82 385.405 Q177.01 385.405 173.931 380.821 Q170.876 376.215 170.876 367.488 Q170.876 358.738 173.931 354.155 Q177.01 349.548 182.82 349.548 Z" fill="#000000" fill-rule="nonzero" fill-opacity="1" /><path clip-path="url(#clip350)" d="M50.9921 130.094 L73.2142 130.094 L73.2142 132.084 L60.668 164.654 L55.7838 164.654 L67.5893 134.029 L50.9921 134.029 L50.9921 130.094 Z" fill="#000000" fill-rule="nonzero" fill-opacity="1" /><path clip-path="url(#clip350)" d="M92.3345 148.242 Q89.0012 148.242 87.0799 150.024 Q85.1818 151.806 85.1818 154.931 Q85.1818 158.056 87.0799 159.839 Q89.0012 161.621 92.3345 161.621 Q95.6678 161.621 97.5891 159.839 Q99.5104 158.033 99.5104 154.931 Q99.5104 151.806 97.5891 150.024 Q95.691 148.242 92.3345 148.242 M87.6586 146.251 Q84.6494 145.51 82.9595 143.45 Q81.2929 141.39 81.2929 138.427 Q81.2929 134.283 84.2327 131.876 Q87.1956 129.469 92.3345 129.469 Q97.4965 129.469 100.436 131.876 Q103.376 134.283 103.376 138.427 Q103.376 141.39 101.686 143.45 Q100.02 145.51 97.0335 146.251 Q100.413 147.038 102.288 149.33 Q104.186 151.621 104.186 154.931 Q104.186 159.955 101.108 162.64 Q98.0521 165.325 92.3345 165.325 Q86.6169 165.325 83.5382 162.64 Q80.4827 159.955 80.4827 154.931 Q80.4827 151.621 82.3808 149.33 Q84.279 147.038 87.6586 146.251 M85.9456 138.867 Q85.9456 141.552 87.6123 143.056 Q89.3021 144.561 92.3345 144.561 Q95.3437 144.561 97.0335 143.056 Q98.7465 141.552 98.7465 138.867 Q98.7465 136.182 97.0335 134.677 Q95.3437 133.172 92.3345 133.172 Q89.3021 133.172 87.6123 134.677 Q85.9456 136.182 85.9456 138.867 Z" fill="#000000" fill-rule="nonzero" fill-opacity="1" /><path clip-path="url(#clip350)" d="M122.496 133.172 Q118.885 133.172 117.057 136.737 Q115.251 140.279 115.251 147.408 Q115.251 154.515 117.057 158.08 Q118.885 161.621 122.496 161.621 Q126.131 161.621 127.936 158.08 Q129.765 154.515 129.765 147.408 Q129.765 140.279 127.936 136.737 Q126.131 133.172 122.496 133.172 M122.496 129.469 Q128.307 129.469 131.362 134.075 Q134.441 138.658 134.441 147.408 Q134.441 156.135 131.362 160.742 Q128.307 165.325 122.496 165.325 Q116.686 165.325 113.608 160.742 Q110.552 156.135 110.552 147.408 Q110.552 138.658 113.608 134.075 Q116.686 129.469 122.496 129.469 Z" fill="#000000" fill-rule="nonzero" fill-opacity="1" /><path clip-path="url(#clip350)" d="M152.658 133.172 Q149.047 133.172 147.218 136.737 Q145.413 140.279 145.413 147.408 Q145.413 154.515 147.218 158.08 Q149.047 161.621 152.658 161.621 Q156.292 161.621 158.098 158.08 Q159.927 154.515 159.927 147.408 Q159.927 140.279 158.098 136.737 Q156.292 133.172 152.658 133.172 M152.658 129.469 Q158.468 129.469 161.524 134.075 Q164.603 138.658 164.603 147.408 Q164.603 156.135 161.524 160.742 Q158.468 165.325 152.658 165.325 Q146.848 165.325 143.769 160.742 Q140.714 156.135 140.714 147.408 Q140.714 138.658 143.769 134.075 Q146.848 129.469 152.658 129.469 Z" fill="#000000" fill-rule="nonzero" fill-opacity="1" /><path clip-path="url(#clip350)" d="M182.82 133.172 Q179.209 133.172 177.38 136.737 Q175.575 140.279 175.575 147.408 Q175.575 154.515 177.38 158.08 Q179.209 161.621 182.82 161.621 Q186.454 161.621 188.26 158.08 Q190.089 154.515 190.089 147.408 Q190.089 140.279 188.26 136.737 Q186.454 133.172 182.82 133.172 M182.82 129.469 Q188.63 129.469 191.686 134.075 Q194.765 138.658 194.765 147.408 Q194.765 156.135 191.686 160.742 Q188.63 165.325 182.82 165.325 Q177.01 165.325 173.931 160.742 Q170.876 156.135 170.876 147.408 Q170.876 138.658 173.931 134.075 Q177.01 129.469 182.82 129.469 Z" fill="#000000" fill-rule="nonzero" fill-opacity="1" /><path clip-path="url(#clip350)" d="M1262.23 35.2602 Q1262.23 29.4732 1259.83 26.2904 Q1257.46 23.1075 1253.15 23.1075 Q1248.86 23.1075 1246.46 26.2904 Q1244.09 29.4732 1244.09 35.2602 Q1244.09 41.0183 1246.46 44.2012 Q1248.86 47.384 1253.15 47.384 Q1257.46 47.384 1259.83 44.2012 Q1262.23 41.0183 1262.23 35.2602 M1267.56 47.818 Q1267.56 56.0934 1263.88 60.1154 Q1260.21 64.1663 1252.63 64.1663 Q1249.82 64.1663 1247.33 63.7323 Q1244.84 63.3272 1242.5 62.4592 L1242.5 57.2798 Q1244.84 58.5529 1247.13 59.1606 Q1249.41 59.7682 1251.79 59.7682 Q1257.02 59.7682 1259.63 57.0194 Q1262.23 54.2995 1262.23 48.7729 L1262.23 46.1398 Q1260.58 49.0044 1258.01 50.4222 Q1255.43 51.84 1251.84 51.84 Q1245.88 51.84 1242.24 47.2972 Q1238.59 42.7544 1238.59 35.2602 Q1238.59 27.7371 1242.24 23.1943 Q1245.88 18.6515 1251.84 18.6515 Q1255.43 18.6515 1258.01 20.0693 Q1260.58 21.4872 1262.23 24.3517 L1262.23 19.4328 L1267.56 19.4328 L1267.56 47.818 Z" fill="#000000" fill-rule="nonzero" fill-opacity="1" /><path clip-path="url(#clip350)" d="M1299.85 24.3517 L1299.85 6.81709 L1305.17 6.81709 L1305.17 51.84 L1299.85 51.84 L1299.85 46.9789 Q1298.17 49.8724 1295.59 51.2902 Q1293.05 52.6791 1289.46 52.6791 Q1283.59 52.6791 1279.88 47.9916 Q1276.21 43.3042 1276.21 35.6653 Q1276.21 28.0265 1279.88 23.339 Q1283.59 18.6515 1289.46 18.6515 Q1293.05 18.6515 1295.59 20.0693 Q1298.17 21.4582 1299.85 24.3517 M1281.71 35.6653 Q1281.71 41.5391 1284.11 44.8956 Q1286.54 48.2231 1290.76 48.2231 Q1294.99 48.2231 1297.42 44.8956 Q1299.85 41.5391 1299.85 35.6653 Q1299.85 29.7915 1297.42 26.464 Q1294.99 23.1075 1290.76 23.1075 Q1286.54 23.1075 1284.11 26.464 Q1281.71 29.7915 1281.71 35.6653 Z" fill="#000000" fill-rule="nonzero" fill-opacity="1" /><path clip-path="url(#clip350)" d="M1321.29 46.9789 L1321.29 64.1663 L1315.94 64.1663 L1315.94 19.4328 L1321.29 19.4328 L1321.29 24.3517 Q1322.97 21.4582 1325.51 20.0693 Q1328.09 18.6515 1331.65 18.6515 Q1337.55 18.6515 1341.22 23.339 Q1344.93 28.0265 1344.93 35.6653 Q1344.93 43.3042 1341.22 47.9916 Q1337.55 52.6791 1331.65 52.6791 Q1328.09 52.6791 1325.51 51.2902 Q1322.97 49.8724 1321.29 46.9789 M1339.4 35.6653 Q1339.4 29.7915 1336.97 26.464 Q1334.57 23.1075 1330.35 23.1075 Q1326.12 23.1075 1323.69 26.464 Q1321.29 29.7915 1321.29 35.6653 Q1321.29 41.5391 1323.69 44.8956 Q1326.12 48.2231 1330.35 48.2231 Q1334.57 48.2231 1336.97 44.8956 Q1339.4 41.5391 1339.4 35.6653 Z" fill="#000000" fill-rule="nonzero" fill-opacity="1" /><polyline clip-path="url(#clip352)" style="stroke:#009af9; stroke-linecap:round; stroke-linejoin:round; stroke-width:4; stroke-opacity:1; fill:none" points="290.821,1374.98 415.938,1390.55 541.056,1447.38 666.173,1371.39 791.291,1208.57 916.408,1436.61 1041.53,1293.12 1166.64,1249.43 1291.76,1028.76 1416.88,820.911 1542,613.543 1667.11,385.241 1792.23,337.073 1917.35,212.107 2042.46,205.878 2167.58,145.256 2292.7,196.474 "/>
<path clip-path="url(#clip350)" d="M301.498 255.881 L566.127 255.881 L566.127 152.201 L301.498 152.201  Z" fill="#ffffff" fill-rule="evenodd" fill-opacity="1"/>
<polyline clip-path="url(#clip350)" style="stroke:#000000; stroke-linecap:round; stroke-linejoin:round; stroke-width:4; stroke-opacity:1; fill:none" points="301.498,255.881 566.127,255.881 566.127,152.201 301.498,152.201 301.498,255.881 "/>
<polyline clip-path="url(#clip350)" style="stroke:#009af9; stroke-linecap:round; stroke-linejoin:round; stroke-width:4; stroke-opacity:1; fill:none" points="325.075,204.041 466.541,204.041 "/>
<path clip-path="url(#clip350)" d="M503.962 223.728 Q502.156 228.358 500.443 229.77 Q498.73 231.182 495.86 231.182 L492.457 231.182 L492.457 227.617 L494.957 227.617 Q496.716 227.617 497.688 226.784 Q498.661 225.95 499.841 222.848 L500.605 220.904 L490.119 195.395 L494.633 195.395 L502.735 215.673 L510.836 195.395 L515.35 195.395 L503.962 223.728 Z" fill="#000000" fill-rule="nonzero" fill-opacity="1" /><path clip-path="url(#clip350)" d="M522.642 217.385 L530.281 217.385 L530.281 191.02 L521.971 192.687 L521.971 188.427 L530.235 186.761 L534.91 186.761 L534.91 217.385 L542.549 217.385 L542.549 221.321 L522.642 221.321 L522.642 217.385 Z" fill="#000000" fill-rule="nonzero" fill-opacity="1" /></svg>
