<?xml version="1.0" encoding="utf-8"?>
<svg xmlns="http://www.w3.org/2000/svg" xmlns:xlink="http://www.w3.org/1999/xlink" width="600" height="300" viewBox="0 0 2400 1200">
<defs>
  <clipPath id="clip740">
    <rect x="0" y="0" width="2400" height="1200"/>
  </clipPath>
</defs>
<path clip-path="url(#clip740)" d="M0 1200 L2400 1200 L2400 0 L0 0  Z" fill="#ffffff" fill-rule="evenodd" fill-opacity="1"/>
<defs>
  <clipPath id="clip741">
    <rect x="480" y="0" width="1681" height="1200"/>
  </clipPath>
</defs>
<path clip-path="url(#clip740)" d="M216.436 1099.09 L1168.64 1099.09 L1168.64 92.1521 L216.436 92.1521  Z" fill="#ffffff" fill-rule="evenodd" fill-opacity="1"/>
<defs>
  <clipPath id="clip742">
    <rect x="216" y="92" width="953" height="1008"/>
  </clipPath>
</defs>
<polyline clip-path="url(#clip742)" style="stroke:#000000; stroke-linecap:round; stroke-linejoin:round; stroke-width:2; stroke-opacity:0.1; fill:none" points="414.49,1099.09 414.49,92.1521 "/>
<polyline clip-path="url(#clip742)" style="stroke:#000000; stroke-linecap:round; stroke-linejoin:round; stroke-width:2; stroke-opacity:0.1; fill:none" points="628.371,1099.09 628.371,92.1521 "/>
<polyline clip-path="url(#clip742)" style="stroke:#000000; stroke-linecap:round; stroke-linejoin:round; stroke-width:2; stroke-opacity:0.1; fill:none" points="842.253,1099.09 842.253,92.1521 "/>
<polyline clip-path="url(#clip742)" style="stroke:#000000; stroke-linecap:round; stroke-linejoin:round; stroke-width:2; stroke-opacity:0.1; fill:none" points="1056.13,1099.09 1056.13,92.1521 "/>
<polyline clip-path="url(#clip742)" style="stroke:#000000; stroke-linecap:round; stroke-linejoin:round; stroke-width:2; stroke-opacity:0.1; fill:none" points="216.436,1073.07 1168.64,1073.07 "/>
<polyline clip-path="url(#clip742)" style="stroke:#000000; stroke-linecap:round; stroke-linejoin:round; stroke-width:2; stroke-opacity:0.1; fill:none" points="216.436,834.968 1168.64,834.968 "/>
<polyline clip-path="url(#clip742)" style="stroke:#000000; stroke-linecap:round; stroke-linejoin:round; stroke-width:2; stroke-opacity:0.1; fill:none" points="216.436,596.862 1168.64,596.862 "/>
<polyline clip-path="url(#clip742)" style="stroke:#000000; stroke-linecap:round; stroke-linejoin:round; stroke-width:2; stroke-opacity:0.1; fill:none" points="216.436,358.756 1168.64,358.756 "/>
<polyline clip-path="url(#clip742)" style="stroke:#000000; stroke-linecap:round; stroke-linejoin:round; stroke-width:2; stroke-opacity:0.1; fill:none" points="216.436,120.65 1168.64,120.65 "/>
<polyline clip-path="url(#clip740)" style="stroke:#000000; stroke-linecap:round; stroke-linejoin:round; stroke-width:4; stroke-opacity:1; fill:none" points="216.436,1099.09 1168.64,1099.09 "/>
<polyline clip-path="url(#clip740)" style="stroke:#000000; stroke-linecap:round; stroke-linejoin:round; stroke-width:4; stroke-opacity:1; fill:none" points="414.49,1099.09 414.49,1080.19 "/>
<polyline clip-path="url(#clip740)" style="stroke:#000000; stroke-linecap:round; stroke-linejoin:round; stroke-width:4; stroke-opacity:1; fill:none" points="628.371,1099.09 628.371,1080.19 "/>
<polyline clip-path="url(#clip740)" style="stroke:#000000; stroke-linecap:round; stroke-linejoin:round; stroke-width:4; stroke-opacity:1; fill:none" points="842.253,1099.09 842.253,1080.19 "/>
<polyline clip-path="url(#clip740)" style="stroke:#000000; stroke-linecap:round; stroke-linejoin:round; stroke-width:4; stroke-opacity:1; fill:none" points="1056.13,1099.09 1056.13,1080.19 "/>
<path clip-path="url(#clip740)" d="M404.768 1126.93 L423.124 1126.93 L423.124 1130.86 L409.05 1130.86 L409.05 1139.34 Q410.069 1138.99 411.087 1138.83 Q412.106 1138.64 413.124 1138.64 Q418.911 1138.64 422.291 1141.81 Q425.67 1144.98 425.67 1150.4 Q425.67 1155.98 422.198 1159.08 Q418.726 1162.16 412.407 1162.16 Q410.231 1162.16 407.962 1161.79 Q405.717 1161.42 403.309 1160.68 L403.309 1155.98 Q405.393 1157.11 407.615 1157.67 Q409.837 1158.22 412.314 1158.22 Q416.319 1158.22 418.657 1156.12 Q420.995 1154.01 420.995 1150.4 Q420.995 1146.79 418.657 1144.68 Q416.319 1142.58 412.314 1142.58 Q410.439 1142.58 408.564 1142.99 Q406.712 1143.41 404.768 1144.29 L404.768 1126.93 Z" fill="#000000" fill-rule="nonzero" fill-opacity="1" /><path clip-path="url(#clip740)" d="M603.059 1157.55 L610.698 1157.55 L610.698 1131.19 L602.388 1132.85 L602.388 1128.59 L610.651 1126.93 L615.327 1126.93 L615.327 1157.55 L622.966 1157.55 L622.966 1161.49 L603.059 1161.49 L603.059 1157.55 Z" fill="#000000" fill-rule="nonzero" fill-opacity="1" /><path clip-path="url(#clip740)" d="M642.411 1130.01 Q638.799 1130.01 636.971 1133.57 Q635.165 1137.11 635.165 1144.24 Q635.165 1151.35 636.971 1154.91 Q638.799 1158.46 642.411 1158.46 Q646.045 1158.46 647.85 1154.91 Q649.679 1151.35 649.679 1144.24 Q649.679 1137.11 647.85 1133.57 Q646.045 1130.01 642.411 1130.01 M642.411 1126.3 Q648.221 1126.3 651.276 1130.91 Q654.355 1135.49 654.355 1144.24 Q654.355 1152.97 651.276 1157.58 Q648.221 1162.16 642.411 1162.16 Q636.6 1162.16 633.522 1157.58 Q630.466 1152.97 630.466 1144.24 Q630.466 1135.49 633.522 1130.91 Q636.6 1126.3 642.411 1126.3 Z" fill="#000000" fill-rule="nonzero" fill-opacity="1" /><path clip-path="url(#clip740)" d="M817.438 1157.55 L825.077 1157.55 L825.077 1131.19 L816.767 1132.85 L816.767 1128.59 L825.03 1126.93 L829.706 1126.93 L829.706 1157.55 L837.345 1157.55 L837.345 1161.49 L817.438 1161.49 L817.438 1157.55 Z" fill="#000000" fill-rule="nonzero" fill-opacity="1" /><path clip-path="url(#clip740)" d="M846.836 1126.93 L865.192 1126.93 L865.192 1130.86 L851.118 1130.86 L851.118 1139.34 Q852.137 1138.99 853.155 1138.83 Q854.174 1138.64 855.192 1138.64 Q860.979 1138.64 864.359 1141.81 Q867.739 1144.98 867.739 1150.4 Q867.739 1155.98 864.266 1159.08 Q860.794 1162.16 854.475 1162.16 Q852.299 1162.16 850.03 1161.79 Q847.785 1161.42 845.378 1160.68 L845.378 1155.98 Q847.461 1157.11 849.683 1157.67 Q851.905 1158.22 854.382 1158.22 Q858.387 1158.22 860.725 1156.12 Q863.063 1154.01 863.063 1150.4 Q863.063 1146.79 860.725 1144.68 Q858.387 1142.58 854.382 1142.58 Q852.507 1142.58 850.632 1142.99 Q848.78 1143.41 846.836 1144.29 L846.836 1126.93 Z" fill="#000000" fill-rule="nonzero" fill-opacity="1" /><path clip-path="url(#clip740)" d="M1034.91 1157.55 L1051.23 1157.55 L1051.23 1161.49 L1029.28 1161.49 L1029.28 1157.55 Q1031.94 1154.8 1036.53 1150.17 Q1041.13 1145.52 1042.31 1144.17 Q1044.56 1141.65 1045.44 1139.91 Q1046.34 1138.15 1046.34 1136.46 Q1046.34 1133.71 1044.4 1131.97 Q1042.48 1130.24 1039.37 1130.24 Q1037.18 1130.24 1034.72 1131 Q1032.29 1131.77 1029.51 1133.32 L1029.51 1128.59 Q1032.34 1127.46 1034.79 1126.88 Q1037.25 1126.3 1039.28 1126.3 Q1044.65 1126.3 1047.85 1128.99 Q1051.04 1131.67 1051.04 1136.16 Q1051.04 1138.29 1050.23 1140.21 Q1049.44 1142.11 1047.34 1144.71 Q1046.76 1145.38 1043.66 1148.59 Q1040.56 1151.79 1034.91 1157.55 Z" fill="#000000" fill-rule="nonzero" fill-opacity="1" /><path clip-path="url(#clip740)" d="M1071.04 1130.01 Q1067.43 1130.01 1065.6 1133.57 Q1063.8 1137.11 1063.8 1144.24 Q1063.8 1151.35 1065.6 1154.91 Q1067.43 1158.46 1071.04 1158.46 Q1074.68 1158.46 1076.48 1154.91 Q1078.31 1151.35 1078.31 1144.24 Q1078.31 1137.11 1076.48 1133.57 Q1074.68 1130.01 1071.04 1130.01 M1071.04 1126.3 Q1076.85 1126.3 1079.91 1130.91 Q1082.99 1135.49 1082.99 1144.24 Q1082.99 1152.97 1079.91 1157.58 Q1076.85 1162.16 1071.04 1162.16 Q1065.23 1162.16 1062.15 1157.58 Q1059.1 1152.97 1059.1 1144.24 Q1059.1 1135.49 1062.15 1130.91 Q1065.23 1126.3 1071.04 1126.3 Z" fill="#000000" fill-rule="nonzero" fill-opacity="1" /><polyline clip-path="url(#clip740)" style="stroke:#000000; stroke-linecap:round; stroke-linejoin:round; stroke-width:4; stroke-opacity:1; fill:none" points="216.436,1099.09 216.436,92.1521 "/>
<polyline clip-path="url(#clip740)" style="stroke:#000000; stroke-linecap:round; stroke-linejoin:round; stroke-width:4; stroke-opacity:1; fill:none" points="216.436,1073.07 235.334,1073.07 "/>
<polyline clip-path="url(#clip740)" style="stroke:#000000; stroke-linecap:round; stroke-linejoin:round; stroke-width:4; stroke-opacity:1; fill:none" points="216.436,834.968 235.334,834.968 "/>
<polyline clip-path="url(#clip740)" style="stroke:#000000; stroke-linecap:round; stroke-linejoin:round; stroke-width:4; stroke-opacity:1; fill:none" points="216.436,596.862 235.334,596.862 "/>
<polyline clip-path="url(#clip740)" style="stroke:#000000; stroke-linecap:round; stroke-linejoin:round; stroke-width:4; stroke-opacity:1; fill:none" points="216.436,358.756 235.334,358.756 "/>
<polyline clip-path="url(#clip740)" style="stroke:#000000; stroke-linecap:round; stroke-linejoin:round; stroke-width:4; stroke-opacity:1; fill:none" points="216.436,120.65 235.334,120.65 "/>
<path clip-path="url(#clip740)" d="M62.9365 1058.87 Q59.3254 1058.87 57.4967 1062.44 Q55.6912 1065.98 55.6912 1073.11 Q55.6912 1080.22 57.4967 1083.78 Q59.3254 1087.32 62.9365 1087.32 Q66.5707 1087.32 68.3763 1083.78 Q70.205 1080.22 70.205 1073.11 Q70.205 1065.98 68.3763 1062.44 Q66.5707 1058.87 62.9365 1058.87 M62.9365 1055.17 Q68.7467 1055.17 71.8022 1059.78 Q74.8809 1064.36 74.8809 1073.11 Q74.8809 1081.84 71.8022 1086.44 Q68.7467 1091.03 62.9365 1091.03 Q57.1264 1091.03 54.0477 1086.44 Q50.9921 1081.84 50.9921 1073.11 Q50.9921 1064.36 54.0477 1059.78 Q57.1264 1055.17 62.9365 1055.17 Z" fill="#000000" fill-rule="nonzero" fill-opacity="1" /><path clip-path="url(#clip740)" d="M83.0984 1084.47 L87.9827 1084.47 L87.9827 1090.35 L83.0984 1090.35 L83.0984 1084.47 Z" fill="#000000" fill-rule="nonzero" fill-opacity="1" /><path clip-path="url(#clip740)" d="M108.168 1058.87 Q104.557 1058.87 102.728 1062.44 Q100.922 1065.98 100.922 1073.11 Q100.922 1080.22 102.728 1083.78 Q104.557 1087.32 108.168 1087.32 Q111.802 1087.32 113.608 1083.78 Q115.436 1080.22 115.436 1073.11 Q115.436 1065.98 113.608 1062.44 Q111.802 1058.87 108.168 1058.87 M108.168 1055.17 Q113.978 1055.17 117.033 1059.78 Q120.112 1064.36 120.112 1073.11 Q120.112 1081.84 117.033 1086.44 Q113.978 1091.03 108.168 1091.03 Q102.358 1091.03 99.2789 1086.44 Q96.2234 1081.84 96.2234 1073.11 Q96.2234 1064.36 99.2789 1059.78 Q102.358 1055.17 108.168 1055.17 Z" fill="#000000" fill-rule="nonzero" fill-opacity="1" /><path clip-path="url(#clip740)" d="M138.33 1058.87 Q134.719 1058.87 132.89 1062.44 Q131.084 1065.98 131.084 1073.11 Q131.084 1080.22 132.89 1083.78 Q134.719 1087.32 138.33 1087.32 Q141.964 1087.32 143.769 1083.78 Q145.598 1080.22 145.598 1073.11 Q145.598 1065.98 143.769 1062.44 Q141.964 1058.87 138.33 1058.87 M138.33 1055.17 Q144.14 1055.17 147.195 1059.78 Q150.274 1064.36 150.274 1073.11 Q150.274 1081.84 147.195 1086.44 Q144.14 1091.03 138.33 1091.03 Q132.519 1091.03 129.441 1086.44 Q126.385 1081.84 126.385 1073.11 Q126.385 1064.36 129.441 1059.78 Q132.519 1055.17 138.33 1055.17 Z" fill="#000000" fill-rule="nonzero" fill-opacity="1" /><path clip-path="url(#clip740)" d="M168.491 1058.87 Q164.88 1058.87 163.052 1062.44 Q161.246 1065.98 161.246 1073.11 Q161.246 1080.22 163.052 1083.78 Q164.88 1087.32 168.491 1087.32 Q172.126 1087.32 173.931 1083.78 Q175.76 1080.22 175.76 1073.11 Q175.76 1065.98 173.931 1062.44 Q172.126 1058.87 168.491 1058.87 M168.491 1055.17 Q174.302 1055.17 177.357 1059.78 Q180.436 1064.36 180.436 1073.11 Q180.436 1081.84 177.357 1086.44 Q174.302 1091.03 168.491 1091.03 Q162.681 1091.03 159.603 1086.44 Q156.547 1081.84 156.547 1073.11 Q156.547 1064.36 159.603 1059.78 Q162.681 1055.17 168.491 1055.17 Z" fill="#000000" fill-rule="nonzero" fill-opacity="1" /><path clip-path="url(#clip740)" d="M63.9319 820.767 Q60.3208 820.767 58.4921 824.332 Q56.6865 827.874 56.6865 835.003 Q56.6865 842.11 58.4921 845.674 Q60.3208 849.216 63.9319 849.216 Q67.5661 849.216 69.3717 845.674 Q71.2004 842.11 71.2004 835.003 Q71.2004 827.874 69.3717 824.332 Q67.5661 820.767 63.9319 820.767 M63.9319 817.064 Q69.742 817.064 72.7976 821.67 Q75.8763 826.253 75.8763 835.003 Q75.8763 843.73 72.7976 848.336 Q69.742 852.92 63.9319 852.92 Q58.1217 852.92 55.043 848.336 Q51.9875 843.73 51.9875 835.003 Q51.9875 826.253 55.043 821.67 Q58.1217 817.064 63.9319 817.064 Z" fill="#000000" fill-rule="nonzero" fill-opacity="1" /><path clip-path="url(#clip740)" d="M84.0938 846.369 L88.978 846.369 L88.978 852.248 L84.0938 852.248 L84.0938 846.369 Z" fill="#000000" fill-rule="nonzero" fill-opacity="1" /><path clip-path="url(#clip740)" d="M109.163 820.767 Q105.552 820.767 103.723 824.332 Q101.918 827.874 101.918 835.003 Q101.918 842.11 103.723 845.674 Q105.552 849.216 109.163 849.216 Q112.797 849.216 114.603 845.674 Q116.432 842.11 116.432 835.003 Q116.432 827.874 114.603 824.332 Q112.797 820.767 109.163 820.767 M109.163 817.064 Q114.973 817.064 118.029 821.67 Q121.107 826.253 121.107 835.003 Q121.107 843.73 118.029 848.336 Q114.973 852.92 109.163 852.92 Q103.353 852.92 100.274 848.336 Q97.2187 843.73 97.2187 835.003 Q97.2187 826.253 100.274 821.67 Q103.353 817.064 109.163 817.064 Z" fill="#000000" fill-rule="nonzero" fill-opacity="1" /><path clip-path="url(#clip740)" d="M139.325 820.767 Q135.714 820.767 133.885 824.332 Q132.08 827.874 132.08 835.003 Q132.08 842.11 133.885 845.674 Q135.714 849.216 139.325 849.216 Q142.959 849.216 144.765 845.674 Q146.593 842.11 146.593 835.003 Q146.593 827.874 144.765 824.332 Q142.959 820.767 139.325 820.767 M139.325 817.064 Q145.135 817.064 148.191 821.67 Q151.269 826.253 151.269 835.003 Q151.269 843.73 148.191 848.336 Q145.135 852.92 139.325 852.92 Q133.515 852.92 130.436 848.336 Q127.381 843.73 127.381 835.003 Q127.381 826.253 130.436 821.67 Q133.515 817.064 139.325 817.064 Z" fill="#000000" fill-rule="nonzero" fill-opacity="1" /><path clip-path="url(#clip740)" d="M159.533 817.688 L177.89 817.688 L177.89 821.624 L163.816 821.624 L163.816 830.096 Q164.834 829.749 165.853 829.587 Q166.871 829.401 167.89 829.401 Q173.677 829.401 177.056 832.573 Q180.436 835.744 180.436 841.161 Q180.436 846.739 176.964 849.841 Q173.491 852.92 167.172 852.92 Q164.996 852.92 162.728 852.549 Q160.482 852.179 158.075 851.438 L158.075 846.739 Q160.158 847.874 162.38 848.429 Q164.603 848.985 167.079 848.985 Q171.084 848.985 173.422 846.878 Q175.76 844.772 175.76 841.161 Q175.76 837.55 173.422 835.443 Q171.084 833.337 167.079 833.337 Q165.204 833.337 163.329 833.753 Q161.478 834.17 159.533 835.05 L159.533 817.688 Z" fill="#000000" fill-rule="nonzero" fill-opacity="1" /><path clip-path="url(#clip740)" d="M62.9365 582.661 Q59.3254 582.661 57.4967 586.226 Q55.6912 589.768 55.6912 596.897 Q55.6912 604.004 57.4967 607.568 Q59.3254 611.11 62.9365 611.11 Q66.5707 611.11 68.3763 607.568 Q70.205 604.004 70.205 596.897 Q70.205 589.768 68.3763 586.226 Q66.5707 582.661 62.9365 582.661 M62.9365 578.957 Q68.7467 578.957 71.8022 583.564 Q74.8809 588.147 74.8809 596.897 Q74.8809 605.624 71.8022 610.23 Q68.7467 614.814 62.9365 614.814 Q57.1264 614.814 54.0477 610.23 Q50.9921 605.624 50.9921 596.897 Q50.9921 588.147 54.0477 583.564 Q57.1264 578.957 62.9365 578.957 Z" fill="#000000" fill-rule="nonzero" fill-opacity="1" /><path clip-path="url(#clip740)" d="M83.0984 608.263 L87.9827 608.263 L87.9827 614.142 L83.0984 614.142 L83.0984 608.263 Z" fill="#000000" fill-rule="nonzero" fill-opacity="1" /><path clip-path="url(#clip740)" d="M108.168 582.661 Q104.557 582.661 102.728 586.226 Q100.922 589.768 100.922 596.897 Q100.922 604.004 102.728 607.568 Q104.557 611.11 108.168 611.11 Q111.802 611.11 113.608 607.568 Q115.436 604.004 115.436 596.897 Q115.436 589.768 113.608 586.226 Q111.802 582.661 108.168 582.661 M108.168 578.957 Q113.978 578.957 117.033 583.564 Q120.112 588.147 120.112 596.897 Q120.112 605.624 117.033 610.23 Q113.978 614.814 108.168 614.814 Q102.358 614.814 99.2789 610.23 Q96.2234 605.624 96.2234 596.897 Q96.2234 588.147 99.2789 583.564 Q102.358 578.957 108.168 578.957 Z" fill="#000000" fill-rule="nonzero" fill-opacity="1" /><path clip-path="url(#clip740)" d="M129.14 610.207 L136.779 610.207 L136.779 583.842 L128.469 585.508 L128.469 581.249 L136.732 579.582 L141.408 579.582 L141.408 610.207 L149.047 610.207 L149.047 614.142 L129.14 614.142 L129.14 610.207 Z" fill="#000000" fill-rule="nonzero" fill-opacity="1" /><path clip-path="url(#clip740)" d="M168.491 582.661 Q164.88 582.661 163.052 586.226 Q161.246 589.768 161.246 596.897 Q161.246 604.004 163.052 607.568 Q164.88 611.11 168.491 611.11 Q172.126 611.11 173.931 607.568 Q175.76 604.004 175.76 596.897 Q175.76 589.768 173.931 586.226 Q172.126 582.661 168.491 582.661 M168.491 578.957 Q174.302 578.957 177.357 583.564 Q180.436 588.147 180.436 596.897 Q180.436 605.624 177.357 610.23 Q174.302 614.814 168.491 614.814 Q162.681 614.814 159.603 610.23 Q156.547 605.624 156.547 596.897 Q156.547 588.147 159.603 583.564 Q162.681 578.957 168.491 578.957 Z" fill="#000000" fill-rule="nonzero" fill-opacity="1" /><path clip-path="url(#clip740)" d="M63.9319 344.555 Q60.3208 344.555 58.4921 348.12 Q56.6865 351.662 56.6865 358.791 Q56.6865 365.898 58.4921 369.462 Q60.3208 373.004 63.9319 373.004 Q67.5661 373.004 69.3717 369.462 Q71.2004 365.898 71.2004 358.791 Q71.2004 351.662 69.3717 348.12 Q67.5661 344.555 63.9319 344.555 M63.9319 340.851 Q69.742 340.851 72.7976 345.458 Q75.8763 350.041 75.8763 358.791 Q75.8763 367.518 72.7976 372.124 Q69.742 376.708 63.9319 376.708 Q58.1217 376.708 55.043 372.124 Q51.9875 367.518 51.9875 358.791 Q51.9875 350.041 55.043 345.458 Q58.1217 340.851 63.9319 340.851 Z" fill="#000000" fill-rule="nonzero" fill-opacity="1" /><path clip-path="url(#clip740)" d="M84.0938 370.157 L88.978 370.157 L88.978 376.036 L84.0938 376.036 L84.0938 370.157 Z" fill="#000000" fill-rule="nonzero" fill-opacity="1" /><path clip-path="url(#clip740)" d="M109.163 344.555 Q105.552 344.555 103.723 348.12 Q101.918 351.662 101.918 358.791 Q101.918 365.898 103.723 369.462 Q105.552 373.004 109.163 373.004 Q112.797 373.004 114.603 369.462 Q116.432 365.898 116.432 358.791 Q116.432 351.662 114.603 348.12 Q112.797 344.555 109.163 344.555 M109.163 340.851 Q114.973 340.851 118.029 345.458 Q121.107 350.041 121.107 358.791 Q121.107 367.518 118.029 372.124 Q114.973 376.708 109.163 376.708 Q103.353 376.708 100.274 372.124 Q97.2187 367.518 97.2187 358.791 Q97.2187 350.041 100.274 345.458 Q103.353 340.851 109.163 340.851 Z" fill="#000000" fill-rule="nonzero" fill-opacity="1" /><path clip-path="url(#clip740)" d="M130.135 372.101 L137.774 372.101 L137.774 345.736 L129.464 347.402 L129.464 343.143 L137.728 341.476 L142.404 341.476 L142.404 372.101 L150.043 372.101 L150.043 376.036 L130.135 376.036 L130.135 372.101 Z" fill="#000000" fill-rule="nonzero" fill-opacity="1" /><path clip-path="url(#clip740)" d="M159.533 341.476 L177.89 341.476 L177.89 345.412 L163.816 345.412 L163.816 353.884 Q164.834 353.536 165.853 353.374 Q166.871 353.189 167.89 353.189 Q173.677 353.189 177.056 356.361 Q180.436 359.532 180.436 364.948 Q180.436 370.527 176.964 373.629 Q173.491 376.708 167.172 376.708 Q164.996 376.708 162.728 376.337 Q160.482 375.967 158.075 375.226 L158.075 370.527 Q160.158 371.661 162.38 372.217 Q164.603 372.772 167.079 372.772 Q171.084 372.772 173.422 370.666 Q175.76 368.56 175.76 364.948 Q175.76 361.337 173.422 359.231 Q171.084 357.124 167.079 357.124 Q165.204 357.124 163.329 357.541 Q161.478 357.958 159.533 358.837 L159.533 341.476 Z" fill="#000000" fill-rule="nonzero" fill-opacity="1" /><path clip-path="url(#clip740)" d="M62.9365 106.449 Q59.3254 106.449 57.4967 110.014 Q55.6912 113.555 55.6912 120.685 Q55.6912 127.791 57.4967 131.356 Q59.3254 134.898 62.9365 134.898 Q66.5707 134.898 68.3763 131.356 Q70.205 127.791 70.205 120.685 Q70.205 113.555 68.3763 110.014 Q66.5707 106.449 62.9365 106.449 M62.9365 102.745 Q68.7467 102.745 71.8022 107.352 Q74.8809 111.935 74.8809 120.685 Q74.8809 129.412 71.8022 134.018 Q68.7467 138.602 62.9365 138.602 Q57.1264 138.602 54.0477 134.018 Q50.9921 129.412 50.9921 120.685 Q50.9921 111.935 54.0477 107.352 Q57.1264 102.745 62.9365 102.745 Z" fill="#000000" fill-rule="nonzero" fill-opacity="1" /><path clip-path="url(#clip740)" d="M83.0984 132.051 L87.9827 132.051 L87.9827 137.93 L83.0984 137.93 L83.0984 132.051 Z" fill="#000000" fill-rule="nonzero" fill-opacity="1" /><path clip-path="url(#clip740)" d="M108.168 106.449 Q104.557 106.449 102.728 110.014 Q100.922 113.555 100.922 120.685 Q100.922 127.791 102.728 131.356 Q104.557 134.898 108.168 134.898 Q111.802 134.898 113.608 131.356 Q115.436 127.791 115.436 120.685 Q115.436 113.555 113.608 110.014 Q111.802 106.449 108.168 106.449 M108.168 102.745 Q113.978 102.745 117.033 107.352 Q120.112 111.935 120.112 120.685 Q120.112 129.412 117.033 134.018 Q113.978 138.602 108.168 138.602 Q102.358 138.602 99.2789 134.018 Q96.2234 129.412 96.2234 120.685 Q96.2234 111.935 99.2789 107.352 Q102.358 102.745 108.168 102.745 Z" fill="#000000" fill-rule="nonzero" fill-opacity="1" /><path clip-path="url(#clip740)" d="M132.357 133.995 L148.677 133.995 L148.677 137.93 L126.732 137.93 L126.732 133.995 Q129.394 131.241 133.978 126.611 Q138.584 121.958 139.765 120.616 Q142.01 118.092 142.89 116.356 Q143.793 114.597 143.793 112.907 Q143.793 110.153 141.848 108.417 Q139.927 106.68 136.825 106.68 Q134.626 106.68 132.172 107.444 Q129.742 108.208 126.964 109.759 L126.964 105.037 Q129.788 103.903 132.242 103.324 Q134.695 102.745 136.732 102.745 Q142.103 102.745 145.297 105.43 Q148.492 108.116 148.492 112.606 Q148.492 114.736 147.681 116.657 Q146.894 118.555 144.788 121.148 Q144.209 121.819 141.107 125.037 Q138.006 128.231 132.357 133.995 Z" fill="#000000" fill-rule="nonzero" fill-opacity="1" /><path clip-path="url(#clip740)" d="M168.491 106.449 Q164.88 106.449 163.052 110.014 Q161.246 113.555 161.246 120.685 Q161.246 127.791 163.052 131.356 Q164.88 134.898 168.491 134.898 Q172.126 134.898 173.931 131.356 Q175.76 127.791 175.76 120.685 Q175.76 113.555 173.931 110.014 Q172.126 106.449 168.491 106.449 M168.491 102.745 Q174.302 102.745 177.357 107.352 Q180.436 111.935 180.436 120.685 Q180.436 129.412 177.357 134.018 Q174.302 138.602 168.491 138.602 Q162.681 138.602 159.603 134.018 Q156.547 129.412 156.547 120.685 Q156.547 111.935 159.603 107.352 Q162.681 102.745 168.491 102.745 Z" fill="#000000" fill-rule="nonzero" fill-opacity="1" /><path clip-path="url(#clip740)" d="M625.153 30.8748 L625.153 33.2186 L603.122 33.2186 Q603.435 38.1665 606.091 40.7706 Q608.773 43.3487 613.539 43.3487 Q616.299 43.3487 618.877 42.6716 Q621.481 41.9946 624.033 40.6404 L624.033 45.1716 Q621.455 46.2654 618.747 46.8383 Q616.039 47.4112 613.252 47.4112 Q606.273 47.4112 602.185 43.3487 Q598.122 39.2862 598.122 32.3592 Q598.122 25.1978 601.976 21.0051 Q605.856 16.7864 612.419 16.7864 Q618.304 16.7864 621.716 20.5884 Q625.153 24.3645 625.153 30.8748 M620.362 29.4686 Q620.309 25.5363 618.148 23.1926 Q616.013 20.8488 612.471 20.8488 Q608.461 20.8488 606.039 23.1145 Q603.643 25.3801 603.278 29.4946 L620.362 29.4686 Z" fill="#000000" fill-rule="nonzero" fill-opacity="1" /><path clip-path="url(#clip740)" d="M632.523 35.1456 L632.523 17.4895 L637.315 17.4895 L637.315 34.9634 Q637.315 39.104 638.929 41.1873 Q640.544 43.2446 643.773 43.2446 Q647.653 43.2446 649.893 40.7706 Q652.158 38.2967 652.158 34.0259 L652.158 17.4895 L656.95 17.4895 L656.95 46.656 L652.158 46.656 L652.158 42.1769 Q650.413 44.8331 648.096 46.1352 Q645.804 47.4112 642.757 47.4112 Q637.731 47.4112 635.127 44.2862 Q632.523 41.1612 632.523 35.1456 M644.58 16.7864 L644.58 16.7864 Z" fill="#000000" fill-rule="nonzero" fill-opacity="1" /><path clip-path="url(#clip740)" d="M683.721 21.9686 Q682.913 21.4999 681.95 21.2916 Q681.012 21.0572 679.866 21.0572 Q675.804 21.0572 673.616 23.7134 Q671.455 26.3436 671.455 31.2915 L671.455 46.656 L666.637 46.656 L666.637 17.4895 L671.455 17.4895 L671.455 22.0207 Q672.965 19.3645 675.387 18.0884 Q677.809 16.7864 681.273 16.7864 Q681.767 16.7864 682.366 16.8645 Q682.965 16.9166 683.695 17.0468 L683.721 21.9686 Z" fill="#000000" fill-rule="nonzero" fill-opacity="1" /><path clip-path="url(#clip740)" d="M688.747 17.4895 L693.538 17.4895 L693.538 46.656 L688.747 46.656 L688.747 17.4895 M688.747 6.13538 L693.538 6.13538 L693.538 12.2031 L688.747 12.2031 L688.747 6.13538 Z" fill="#000000" fill-rule="nonzero" fill-opacity="1" /><path clip-path="url(#clip740)" d="M724.502 32.0988 Q724.502 26.8124 722.314 23.8176 Q720.153 20.7968 716.351 20.7968 Q712.549 20.7968 710.361 23.8176 Q708.2 26.8124 708.2 32.0988 Q708.2 37.3852 710.361 40.406 Q712.549 43.4008 716.351 43.4008 Q720.153 43.4008 722.314 40.406 Q724.502 37.3852 724.502 32.0988 M708.2 21.9165 Q709.71 19.3124 712.002 18.0624 Q714.319 16.7864 717.523 16.7864 Q722.835 16.7864 726.142 21.0051 Q729.476 25.2238 729.476 32.0988 Q729.476 38.9737 726.142 43.1925 Q722.835 47.4112 717.523 47.4112 Q714.319 47.4112 712.002 46.1612 Q709.71 44.8852 708.2 42.281 L708.2 46.656 L703.382 46.656 L703.382 6.13538 L708.2 6.13538 L708.2 21.9165 Z" fill="#000000" fill-rule="nonzero" fill-opacity="1" /><path clip-path="url(#clip740)" d="M748.72 20.8488 Q744.866 20.8488 742.627 23.8697 Q740.387 26.8644 740.387 32.0988 Q740.387 37.3331 742.6 40.354 Q744.84 43.3487 748.72 43.3487 Q752.548 43.3487 754.788 40.3279 Q757.028 37.3071 757.028 32.0988 Q757.028 26.9165 754.788 23.8957 Q752.548 20.8488 748.72 20.8488 M748.72 16.7864 Q754.97 16.7864 758.538 20.8488 Q762.106 24.9113 762.106 32.0988 Q762.106 39.2602 758.538 43.3487 Q754.97 47.4112 748.72 47.4112 Q742.444 47.4112 738.877 43.3487 Q735.335 39.2602 735.335 32.0988 Q735.335 24.9113 738.877 20.8488 Q742.444 16.7864 748.72 16.7864 Z" fill="#000000" fill-rule="nonzero" fill-opacity="1" /><path clip-path="url(#clip740)" d="M786.949 21.9686 Q786.142 21.4999 785.178 21.2916 Q784.241 21.0572 783.095 21.0572 Q779.033 21.0572 776.845 23.7134 Q774.684 26.3436 774.684 31.2915 L774.684 46.656 L769.866 46.656 L769.866 17.4895 L774.684 17.4895 L774.684 22.0207 Q776.194 19.3645 778.616 18.0884 Q781.038 16.7864 784.501 16.7864 Q784.996 16.7864 785.595 16.8645 Q786.194 16.9166 786.923 17.0468 L786.949 21.9686 Z" fill="#000000" fill-rule="nonzero" fill-opacity="1" /><path clip-path="url(#clip742)" d="M243.385 994.693 L286.161 994.693 L328.937 1070.59 L371.714 1035.64 L414.49 1051.34 L457.266 1051.38 L500.042 999.696 L542.819 1019.28 L585.595 1004.89 L628.371 941.113 L671.148 975.08 L713.924 960.091 L756.7 976.722 L799.476 981.541 L842.253 1003.67 L885.029 1009.2 L927.805 988.587 L970.581 981.434 L1013.36 1002.88 L1056.13 978.718 L1098.91 1015.49 L1141.69 1027.95 L1141.69 856.251 L1098.91 861.068 L1056.13 894.061 L1013.36 964.121 L970.581 893.438 L927.805 937.521 L885.029 983.617 L842.253 957.077 L799.476 946.84 L756.7 902.958 L713.924 941.281 L671.148 929.764 L628.371 902.375 L585.595 892.362 L542.819 901.106 L500.042 951.345 L457.266 939.586 L414.49 939.292 L371.714 960.949 L328.937 965.167 L286.161 994.693 L243.385 994.693  Z" fill="#009af9" fill-rule="evenodd" fill-opacity="0.1"/>
<polyline clip-path="url(#clip742)" style="stroke:#009af9; stroke-linecap:round; stroke-linejoin:round; stroke-width:4; stroke-opacity:1; fill:none" points="243.385,994.693 286.161,994.693 328.937,1017.88 371.714,998.296 414.49,995.314 457.266,995.484 500.042,975.52 542.819,960.192 585.595,948.627 628.371,921.744 671.148,952.422 713.924,950.686 756.7,939.84 799.476,964.19 842.253,980.374 885.029,996.41 927.805,963.054 970.581,937.436 1013.36,983.501 1056.13,936.39 1098.91,938.279 1141.69,942.1 "/>
<path clip-path="url(#clip742)" d="M243.385 994.693 L286.161 994.693 L328.937 120.65 L371.714 120.65 L414.49 120.65 L457.266 120.65 L500.042 120.65 L542.819 120.65 L585.595 120.65 L628.371 120.65 L671.148 120.65 L713.924 120.65 L756.7 120.65 L799.476 120.65 L842.253 120.65 L885.029 120.65 L927.805 120.65 L970.581 120.65 L1013.36 120.65 L1056.13 120.65 L1098.91 120.65 L1141.69 120.65 L1141.69 120.65 L1098.91 120.65 L1056.13 120.65 L1013.36 120.65 L970.581 120.65 L927.805 120.65 L885.029 120.65 L842.253 120.65 L799.476 120.65 L756.7 120.65 L713.924 120.65 L671.148 120.65 L628.371 120.65 L585.595 120.65 L542.819 120.65 L500.042 120.65 L457.266 120.65 L414.49 120.65 L371.714 120.65 L328.937 120.65 L286.161 994.693 L243.385 994.693  Z" fill="#e26f46" fill-rule="evenodd" fill-opacity="0.1"/>
<polyline clip-path="url(#clip742)" style="stroke:#e26f46; stroke-linecap:round; stroke-linejoin:round; stroke-width:4; stroke-opacity:1; fill:none" points="243.385,994.693 286.161,994.693 328.937,120.65 371.714,120.65 414.49,120.65 457.266,120.65 500.042,120.65 542.819,120.65 585.595,120.65 628.371,120.65 671.148,120.65 713.924,120.65 756.7,120.65 799.476,120.65 842.253,120.65 885.029,120.65 927.805,120.65 970.581,120.65 1013.36,120.65 1056.13,120.65 1098.91,120.65 1141.69,120.65 "/>
<path clip-path="url(#clip740)" d="M1400.56 1099.09 L2352.76 1099.09 L2352.76 92.1521 L1400.56 92.1521  Z" fill="#ffffff" fill-rule="evenodd" fill-opacity="1"/>
<defs>
  <clipPath id="clip743">
    <rect x="1400" y="92" width="953" height="1008"/>
  </clipPath>
</defs>
<polyline clip-path="url(#clip743)" style="stroke:#000000; stroke-linecap:round; stroke-linejoin:round; stroke-width:2; stroke-opacity:0.1; fill:none" points="1598.61,1099.09 1598.61,92.1521 "/>
<polyline clip-path="url(#clip743)" style="stroke:#000000; stroke-linecap:round; stroke-linejoin:round; stroke-width:2; stroke-opacity:0.1; fill:none" points="1812.49,1099.09 1812.49,92.1521 "/>
<polyline clip-path="url(#clip743)" style="stroke:#000000; stroke-linecap:round; stroke-linejoin:round; stroke-width:2; stroke-opacity:0.1; fill:none" points="2026.37,1099.09 2026.37,92.1521 "/>
<polyline clip-path="url(#clip743)" style="stroke:#000000; stroke-linecap:round; stroke-linejoin:round; stroke-width:2; stroke-opacity:0.1; fill:none" points="2240.25,1099.09 2240.25,92.1521 "/>
<polyline clip-path="url(#clip743)" style="stroke:#000000; stroke-linecap:round; stroke-linejoin:round; stroke-width:2; stroke-opacity:0.1; fill:none" points="1400.56,1013.27 2352.76,1013.27 "/>
<polyline clip-path="url(#clip743)" style="stroke:#000000; stroke-linecap:round; stroke-linejoin:round; stroke-width:2; stroke-opacity:0.1; fill:none" points="1400.56,828.046 2352.76,828.046 "/>
<polyline clip-path="url(#clip743)" style="stroke:#000000; stroke-linecap:round; stroke-linejoin:round; stroke-width:2; stroke-opacity:0.1; fill:none" points="1400.56,642.822 2352.76,642.822 "/>
<polyline clip-path="url(#clip743)" style="stroke:#000000; stroke-linecap:round; stroke-linejoin:round; stroke-width:2; stroke-opacity:0.1; fill:none" points="1400.56,457.598 2352.76,457.598 "/>
<polyline clip-path="url(#clip743)" style="stroke:#000000; stroke-linecap:round; stroke-linejoin:round; stroke-width:2; stroke-opacity:0.1; fill:none" points="1400.56,272.373 2352.76,272.373 "/>
<polyline clip-path="url(#clip740)" style="stroke:#000000; stroke-linecap:round; stroke-linejoin:round; stroke-width:4; stroke-opacity:1; fill:none" points="1400.56,1099.09 2352.76,1099.09 "/>
<polyline clip-path="url(#clip740)" style="stroke:#000000; stroke-linecap:round; stroke-linejoin:round; stroke-width:4; stroke-opacity:1; fill:none" points="1598.61,1099.09 1598.61,1080.19 "/>
<polyline clip-path="url(#clip740)" style="stroke:#000000; stroke-linecap:round; stroke-linejoin:round; stroke-width:4; stroke-opacity:1; fill:none" points="1812.49,1099.09 1812.49,1080.19 "/>
<polyline clip-path="url(#clip740)" style="stroke:#000000; stroke-linecap:round; stroke-linejoin:round; stroke-width:4; stroke-opacity:1; fill:none" points="2026.37,1099.09 2026.37,1080.19 "/>
<polyline clip-path="url(#clip740)" style="stroke:#000000; stroke-linecap:round; stroke-linejoin:round; stroke-width:4; stroke-opacity:1; fill:none" points="2240.25,1099.09 2240.25,1080.19 "/>
<path clip-path="url(#clip740)" d="M1588.89 1126.93 L1607.24 1126.93 L1607.24 1130.86 L1593.17 1130.86 L1593.17 1139.34 Q1594.19 1138.99 1595.21 1138.83 Q1596.23 1138.64 1597.24 1138.64 Q1603.03 1138.64 1606.41 1141.81 Q1609.79 1144.98 1609.79 1150.4 Q1609.79 1155.98 1606.32 1159.08 Q1602.85 1162.16 1596.53 1162.16 Q1594.35 1162.16 1592.08 1161.79 Q1589.84 1161.42 1587.43 1160.68 L1587.43 1155.98 Q1589.51 1157.11 1591.74 1157.67 Q1593.96 1158.22 1596.43 1158.22 Q1600.44 1158.22 1602.78 1156.12 Q1605.12 1154.01 1605.12 1150.4 Q1605.12 1146.79 1602.78 1144.68 Q1600.44 1142.58 1596.43 1142.58 Q1594.56 1142.58 1592.68 1142.99 Q1590.83 1143.41 1588.89 1144.29 L1588.89 1126.93 Z" fill="#000000" fill-rule="nonzero" fill-opacity="1" /><path clip-path="url(#clip740)" d="M1787.18 1157.55 L1794.82 1157.55 L1794.82 1131.19 L1786.51 1132.85 L1786.51 1128.59 L1794.77 1126.93 L1799.45 1126.93 L1799.45 1157.55 L1807.09 1157.55 L1807.09 1161.49 L1787.18 1161.49 L1787.18 1157.55 Z" fill="#000000" fill-rule="nonzero" fill-opacity="1" /><path clip-path="url(#clip740)" d="M1826.53 1130.01 Q1822.92 1130.01 1821.09 1133.57 Q1819.29 1137.11 1819.29 1144.24 Q1819.29 1151.35 1821.09 1154.91 Q1822.92 1158.46 1826.53 1158.46 Q1830.17 1158.46 1831.97 1154.91 Q1833.8 1151.35 1833.8 1144.24 Q1833.8 1137.11 1831.97 1133.57 Q1830.17 1130.01 1826.53 1130.01 M1826.53 1126.3 Q1832.34 1126.3 1835.4 1130.91 Q1838.48 1135.49 1838.48 1144.24 Q1838.48 1152.97 1835.4 1157.58 Q1832.34 1162.16 1826.53 1162.16 Q1820.72 1162.16 1817.64 1157.58 Q1814.59 1152.97 1814.59 1144.24 Q1814.59 1135.49 1817.64 1130.91 Q1820.72 1126.3 1826.53 1126.3 Z" fill="#000000" fill-rule="nonzero" fill-opacity="1" /><path clip-path="url(#clip740)" d="M2001.56 1157.55 L2009.2 1157.55 L2009.2 1131.19 L2000.89 1132.85 L2000.89 1128.59 L2009.15 1126.93 L2013.83 1126.93 L2013.83 1157.55 L2021.47 1157.55 L2021.47 1161.49 L2001.56 1161.49 L2001.56 1157.55 Z" fill="#000000" fill-rule="nonzero" fill-opacity="1" /><path clip-path="url(#clip740)" d="M2030.96 1126.93 L2049.31 1126.93 L2049.31 1130.86 L2035.24 1130.86 L2035.24 1139.34 Q2036.26 1138.99 2037.28 1138.83 Q2038.29 1138.64 2039.31 1138.64 Q2045.1 1138.64 2048.48 1141.81 Q2051.86 1144.98 2051.86 1150.4 Q2051.86 1155.98 2048.39 1159.08 Q2044.91 1162.16 2038.6 1162.16 Q2036.42 1162.16 2034.15 1161.79 Q2031.91 1161.42 2029.5 1160.68 L2029.5 1155.98 Q2031.58 1157.11 2033.8 1157.67 Q2036.03 1158.22 2038.5 1158.22 Q2042.51 1158.22 2044.85 1156.12 Q2047.18 1154.01 2047.18 1150.4 Q2047.18 1146.79 2044.85 1144.68 Q2042.51 1142.58 2038.5 1142.58 Q2036.63 1142.58 2034.75 1142.99 Q2032.9 1143.41 2030.96 1144.29 L2030.96 1126.93 Z" fill="#000000" fill-rule="nonzero" fill-opacity="1" /><path clip-path="url(#clip740)" d="M2219.03 1157.55 L2235.35 1157.55 L2235.35 1161.49 L2213.4 1161.49 L2213.4 1157.55 Q2216.06 1154.8 2220.65 1150.17 Q2225.25 1145.52 2226.43 1144.17 Q2228.68 1141.65 2229.56 1139.91 Q2230.46 1138.15 2230.46 1136.46 Q2230.46 1133.71 2228.52 1131.97 Q2226.6 1130.24 2223.5 1130.24 Q2221.3 1130.24 2218.84 1131 Q2216.41 1131.77 2213.63 1133.32 L2213.63 1128.59 Q2216.46 1127.46 2218.91 1126.88 Q2221.37 1126.3 2223.4 1126.3 Q2228.77 1126.3 2231.97 1128.99 Q2235.16 1131.67 2235.16 1136.16 Q2235.16 1138.29 2234.35 1140.21 Q2233.56 1142.11 2231.46 1144.71 Q2230.88 1145.38 2227.78 1148.59 Q2224.68 1151.79 2219.03 1157.55 Z" fill="#000000" fill-rule="nonzero" fill-opacity="1" /><path clip-path="url(#clip740)" d="M2255.16 1130.01 Q2251.55 1130.01 2249.72 1133.57 Q2247.92 1137.11 2247.92 1144.24 Q2247.92 1151.35 2249.72 1154.91 Q2251.55 1158.46 2255.16 1158.46 Q2258.8 1158.46 2260.6 1154.91 Q2262.43 1151.35 2262.43 1144.24 Q2262.43 1137.11 2260.6 1133.57 Q2258.8 1130.01 2255.16 1130.01 M2255.16 1126.3 Q2260.97 1126.3 2264.03 1130.91 Q2267.11 1135.49 2267.11 1144.24 Q2267.11 1152.97 2264.03 1157.58 Q2260.97 1162.16 2255.16 1162.16 Q2249.35 1162.16 2246.27 1157.58 Q2243.22 1152.97 2243.22 1144.24 Q2243.22 1135.49 2246.27 1130.91 Q2249.35 1126.3 2255.16 1126.3 Z" fill="#000000" fill-rule="nonzero" fill-opacity="1" /><polyline clip-path="url(#clip740)" style="stroke:#000000; stroke-linecap:round; stroke-linejoin:round; stroke-width:4; stroke-opacity:1; fill:none" points="1400.56,1099.09 1400.56,92.1521 "/>
<polyline clip-path="url(#clip740)" style="stroke:#000000; stroke-linecap:round; stroke-linejoin:round; stroke-width:4; stroke-opacity:1; fill:none" points="1400.56,1013.27 1419.45,1013.27 "/>
<polyline clip-path="url(#clip740)" style="stroke:#000000; stroke-linecap:round; stroke-linejoin:round; stroke-width:4; stroke-opacity:1; fill:none" points="1400.56,828.046 1419.45,828.046 "/>
<polyline clip-path="url(#clip740)" style="stroke:#000000; stroke-linecap:round; stroke-linejoin:round; stroke-width:4; stroke-opacity:1; fill:none" points="1400.56,642.822 1419.45,642.822 "/>
<polyline clip-path="url(#clip740)" style="stroke:#000000; stroke-linecap:round; stroke-linejoin:round; stroke-width:4; stroke-opacity:1; fill:none" points="1400.56,457.598 1419.45,457.598 "/>
<polyline clip-path="url(#clip740)" style="stroke:#000000; stroke-linecap:round; stroke-linejoin:round; stroke-width:4; stroke-opacity:1; fill:none" points="1400.56,272.373 1419.45,272.373 "/>
<path clip-path="url(#clip740)" d="M1268.03 1026.62 L1275.67 1026.62 L1275.67 1000.25 L1267.36 1001.92 L1267.36 997.657 L1275.62 995.99 L1280.3 995.99 L1280.3 1026.62 L1287.94 1026.62 L1287.94 1030.55 L1268.03 1030.55 L1268.03 1026.62 Z" fill="#000000" fill-rule="nonzero" fill-opacity="1" /><path clip-path="url(#clip740)" d="M1297.38 1024.67 L1302.26 1024.67 L1302.26 1030.55 L1297.38 1030.55 L1297.38 1024.67 Z" fill="#000000" fill-rule="nonzero" fill-opacity="1" /><path clip-path="url(#clip740)" d="M1322.45 999.069 Q1318.84 999.069 1317.01 1002.63 Q1315.2 1006.18 1315.2 1013.31 Q1315.2 1020.41 1317.01 1023.98 Q1318.84 1027.52 1322.45 1027.52 Q1326.08 1027.52 1327.89 1023.98 Q1329.72 1020.41 1329.72 1013.31 Q1329.72 1006.18 1327.89 1002.63 Q1326.08 999.069 1322.45 999.069 M1322.45 995.365 Q1328.26 995.365 1331.32 999.972 Q1334.39 1004.56 1334.39 1013.31 Q1334.39 1022.03 1331.32 1026.64 Q1328.26 1031.22 1322.45 1031.22 Q1316.64 1031.22 1313.56 1026.64 Q1310.51 1022.03 1310.51 1013.31 Q1310.51 1004.56 1313.56 999.972 Q1316.64 995.365 1322.45 995.365 Z" fill="#000000" fill-rule="nonzero" fill-opacity="1" /><path clip-path="url(#clip740)" d="M1352.61 999.069 Q1349 999.069 1347.17 1002.63 Q1345.37 1006.18 1345.37 1013.31 Q1345.37 1020.41 1347.17 1023.98 Q1349 1027.52 1352.61 1027.52 Q1356.25 1027.52 1358.05 1023.98 Q1359.88 1020.41 1359.88 1013.31 Q1359.88 1006.18 1358.05 1002.63 Q1356.25 999.069 1352.61 999.069 M1352.61 995.365 Q1358.42 995.365 1361.48 999.972 Q1364.56 1004.56 1364.56 1013.31 Q1364.56 1022.03 1361.48 1026.64 Q1358.42 1031.22 1352.61 1031.22 Q1346.8 1031.22 1343.72 1026.64 Q1340.67 1022.03 1340.67 1013.31 Q1340.67 1004.56 1343.72 999.972 Q1346.8 995.365 1352.61 995.365 Z" fill="#000000" fill-rule="nonzero" fill-opacity="1" /><path clip-path="url(#clip740)" d="M1269.63 841.391 L1277.27 841.391 L1277.27 815.025 L1268.95 816.692 L1268.95 812.433 L1277.22 810.766 L1281.89 810.766 L1281.89 841.391 L1289.53 841.391 L1289.53 845.326 L1269.63 845.326 L1269.63 841.391 Z" fill="#000000" fill-rule="nonzero" fill-opacity="1" /><path clip-path="url(#clip740)" d="M1298.98 839.447 L1303.86 839.447 L1303.86 845.326 L1298.98 845.326 L1298.98 839.447 Z" fill="#000000" fill-rule="nonzero" fill-opacity="1" /><path clip-path="url(#clip740)" d="M1324.05 813.845 Q1320.44 813.845 1318.61 817.41 Q1316.8 820.951 1316.8 828.081 Q1316.8 835.187 1318.61 838.752 Q1320.44 842.294 1324.05 842.294 Q1327.68 842.294 1329.49 838.752 Q1331.32 835.187 1331.32 828.081 Q1331.32 820.951 1329.49 817.41 Q1327.68 813.845 1324.05 813.845 M1324.05 810.141 Q1329.86 810.141 1332.91 814.748 Q1335.99 819.331 1335.99 828.081 Q1335.99 836.808 1332.91 841.414 Q1329.86 845.997 1324.05 845.997 Q1318.24 845.997 1315.16 841.414 Q1312.1 836.808 1312.1 828.081 Q1312.1 819.331 1315.16 814.748 Q1318.24 810.141 1324.05 810.141 Z" fill="#000000" fill-rule="nonzero" fill-opacity="1" /><path clip-path="url(#clip740)" d="M1348.24 841.391 L1364.56 841.391 L1364.56 845.326 L1342.61 845.326 L1342.61 841.391 Q1345.27 838.636 1349.86 834.007 Q1354.46 829.354 1355.64 828.011 Q1357.89 825.488 1358.77 823.752 Q1359.67 821.993 1359.67 820.303 Q1359.67 817.549 1357.73 815.812 Q1355.81 814.076 1352.7 814.076 Q1350.51 814.076 1348.05 814.84 Q1345.62 815.604 1342.84 817.155 L1342.84 812.433 Q1345.67 811.299 1348.12 810.72 Q1350.57 810.141 1352.61 810.141 Q1357.98 810.141 1361.18 812.826 Q1364.37 815.511 1364.37 820.002 Q1364.37 822.132 1363.56 824.053 Q1362.77 825.951 1360.67 828.544 Q1360.09 829.215 1356.99 832.433 Q1353.89 835.627 1348.24 841.391 Z" fill="#000000" fill-rule="nonzero" fill-opacity="1" /><path clip-path="url(#clip740)" d="M1267.54 656.167 L1275.18 656.167 L1275.18 629.801 L1266.87 631.468 L1266.87 627.209 L1275.14 625.542 L1279.81 625.542 L1279.81 656.167 L1287.45 656.167 L1287.45 660.102 L1267.54 660.102 L1267.54 656.167 Z" fill="#000000" fill-rule="nonzero" fill-opacity="1" /><path clip-path="url(#clip740)" d="M1296.89 654.222 L1301.78 654.222 L1301.78 660.102 L1296.89 660.102 L1296.89 654.222 Z" fill="#000000" fill-rule="nonzero" fill-opacity="1" /><path clip-path="url(#clip740)" d="M1321.96 628.621 Q1318.35 628.621 1316.52 632.185 Q1314.72 635.727 1314.72 642.857 Q1314.72 649.963 1316.52 653.528 Q1318.35 657.069 1321.96 657.069 Q1325.6 657.069 1327.4 653.528 Q1329.23 649.963 1329.23 642.857 Q1329.23 635.727 1327.4 632.185 Q1325.6 628.621 1321.96 628.621 M1321.96 624.917 Q1327.77 624.917 1330.83 629.523 Q1333.91 634.107 1333.91 642.857 Q1333.91 651.583 1330.83 656.19 Q1327.77 660.773 1321.96 660.773 Q1316.15 660.773 1313.08 656.19 Q1310.02 651.583 1310.02 642.857 Q1310.02 634.107 1313.08 629.523 Q1316.15 624.917 1321.96 624.917 Z" fill="#000000" fill-rule="nonzero" fill-opacity="1" /><path clip-path="url(#clip740)" d="M1354.97 629.616 L1343.17 648.065 L1354.97 648.065 L1354.97 629.616 M1353.75 625.542 L1359.63 625.542 L1359.63 648.065 L1364.56 648.065 L1364.56 651.954 L1359.63 651.954 L1359.63 660.102 L1354.97 660.102 L1354.97 651.954 L1339.37 651.954 L1339.37 647.44 L1353.75 625.542 Z" fill="#000000" fill-rule="nonzero" fill-opacity="1" /><path clip-path="url(#clip740)" d="M1267.87 470.942 L1275.51 470.942 L1275.51 444.577 L1267.2 446.243 L1267.2 441.984 L1275.46 440.318 L1280.14 440.318 L1280.14 470.942 L1287.77 470.942 L1287.77 474.878 L1267.87 474.878 L1267.87 470.942 Z" fill="#000000" fill-rule="nonzero" fill-opacity="1" /><path clip-path="url(#clip740)" d="M1297.22 468.998 L1302.1 468.998 L1302.1 474.878 L1297.22 474.878 L1297.22 468.998 Z" fill="#000000" fill-rule="nonzero" fill-opacity="1" /><path clip-path="url(#clip740)" d="M1322.29 443.396 Q1318.68 443.396 1316.85 446.961 Q1315.04 450.503 1315.04 457.632 Q1315.04 464.739 1316.85 468.304 Q1318.68 471.845 1322.29 471.845 Q1325.92 471.845 1327.73 468.304 Q1329.56 464.739 1329.56 457.632 Q1329.56 450.503 1327.73 446.961 Q1325.92 443.396 1322.29 443.396 M1322.29 439.693 Q1328.1 439.693 1331.15 444.299 Q1334.23 448.882 1334.23 457.632 Q1334.23 466.359 1331.15 470.966 Q1328.1 475.549 1322.29 475.549 Q1316.48 475.549 1313.4 470.966 Q1310.34 466.359 1310.34 457.632 Q1310.34 448.882 1313.4 444.299 Q1316.48 439.693 1322.29 439.693 Z" fill="#000000" fill-rule="nonzero" fill-opacity="1" /><path clip-path="url(#clip740)" d="M1353.03 455.734 Q1349.88 455.734 1348.03 457.887 Q1346.2 460.04 1346.2 463.79 Q1346.2 467.517 1348.03 469.692 Q1349.88 471.845 1353.03 471.845 Q1356.18 471.845 1358.01 469.692 Q1359.86 467.517 1359.86 463.79 Q1359.86 460.04 1358.01 457.887 Q1356.18 455.734 1353.03 455.734 M1362.31 441.081 L1362.31 445.341 Q1360.55 444.507 1358.75 444.068 Q1356.96 443.628 1355.2 443.628 Q1350.57 443.628 1348.12 446.753 Q1345.69 449.878 1345.34 456.197 Q1346.71 454.183 1348.77 453.118 Q1350.83 452.03 1353.31 452.03 Q1358.51 452.03 1361.52 455.202 Q1364.56 458.35 1364.56 463.79 Q1364.56 469.114 1361.41 472.331 Q1358.26 475.549 1353.03 475.549 Q1347.03 475.549 1343.86 470.966 Q1340.69 466.359 1340.69 457.632 Q1340.69 449.438 1344.58 444.577 Q1348.47 439.693 1355.02 439.693 Q1356.78 439.693 1358.56 440.04 Q1360.37 440.387 1362.31 441.081 Z" fill="#000000" fill-rule="nonzero" fill-opacity="1" /><path clip-path="url(#clip740)" d="M1268.12 285.718 L1275.76 285.718 L1275.76 259.353 L1267.45 261.019 L1267.45 256.76 L1275.71 255.093 L1280.39 255.093 L1280.39 285.718 L1288.03 285.718 L1288.03 289.653 L1268.12 289.653 L1268.12 285.718 Z" fill="#000000" fill-rule="nonzero" fill-opacity="1" /><path clip-path="url(#clip740)" d="M1297.47 283.774 L1302.36 283.774 L1302.36 289.653 L1297.47 289.653 L1297.47 283.774 Z" fill="#000000" fill-rule="nonzero" fill-opacity="1" /><path clip-path="url(#clip740)" d="M1322.54 258.172 Q1318.93 258.172 1317.1 261.737 Q1315.3 265.278 1315.3 272.408 Q1315.3 279.514 1317.1 283.079 Q1318.93 286.621 1322.54 286.621 Q1326.18 286.621 1327.98 283.079 Q1329.81 279.514 1329.81 272.408 Q1329.81 265.278 1327.98 261.737 Q1326.18 258.172 1322.54 258.172 M1322.54 254.468 Q1328.35 254.468 1331.41 259.075 Q1334.49 263.658 1334.49 272.408 Q1334.49 281.135 1331.41 285.741 Q1328.35 290.325 1322.54 290.325 Q1316.73 290.325 1313.65 285.741 Q1310.6 281.135 1310.6 272.408 Q1310.6 263.658 1313.65 259.075 Q1316.73 254.468 1322.54 254.468 Z" fill="#000000" fill-rule="nonzero" fill-opacity="1" /><path clip-path="url(#clip740)" d="M1352.7 273.241 Q1349.37 273.241 1347.45 275.024 Q1345.55 276.806 1345.55 279.931 Q1345.55 283.056 1347.45 284.839 Q1349.37 286.621 1352.7 286.621 Q1356.04 286.621 1357.96 284.839 Q1359.88 283.033 1359.88 279.931 Q1359.88 276.806 1357.96 275.024 Q1356.06 273.241 1352.7 273.241 M1348.03 271.251 Q1345.02 270.51 1343.33 268.45 Q1341.66 266.39 1341.66 263.427 Q1341.66 259.283 1344.6 256.876 Q1347.57 254.468 1352.7 254.468 Q1357.87 254.468 1360.81 256.876 Q1363.75 259.283 1363.75 263.427 Q1363.75 266.39 1362.06 268.45 Q1360.39 270.51 1357.4 271.251 Q1360.78 272.038 1362.66 274.329 Q1364.56 276.621 1364.56 279.931 Q1364.56 284.954 1361.48 287.639 Q1358.42 290.325 1352.7 290.325 Q1346.99 290.325 1343.91 287.639 Q1340.85 284.954 1340.85 279.931 Q1340.85 276.621 1342.75 274.329 Q1344.65 272.038 1348.03 271.251 M1346.32 263.866 Q1346.32 266.552 1347.98 268.056 Q1349.67 269.561 1352.7 269.561 Q1355.71 269.561 1357.4 268.056 Q1359.12 266.552 1359.12 263.866 Q1359.12 261.181 1357.4 259.677 Q1355.71 258.172 1352.7 258.172 Q1349.67 258.172 1347.98 259.677 Q1346.32 261.181 1346.32 263.866 Z" fill="#000000" fill-rule="nonzero" fill-opacity="1" /><path clip-path="url(#clip740)" d="M1735.94 31.7342 Q1735.94 26.5259 1733.78 23.6613 Q1731.64 20.7968 1727.76 20.7968 Q1723.91 20.7968 1721.75 23.6613 Q1719.61 26.5259 1719.61 31.7342 Q1719.61 36.9165 1721.75 39.781 Q1723.91 42.6456 1727.76 42.6456 Q1731.64 42.6456 1733.78 39.781 Q1735.94 36.9165 1735.94 31.7342 M1740.73 43.0362 Q1740.73 50.4841 1737.43 54.1039 Q1734.12 57.7497 1727.29 57.7497 Q1724.77 57.7497 1722.53 57.3591 Q1720.29 56.9945 1718.18 56.2132 L1718.18 51.5518 Q1720.29 52.6976 1722.35 53.2445 Q1724.4 53.7914 1726.54 53.7914 Q1731.25 53.7914 1733.6 51.3174 Q1735.94 48.8695 1735.94 43.8956 L1735.94 41.5258 Q1734.46 44.1039 1732.14 45.38 Q1729.82 46.656 1726.59 46.656 Q1721.23 46.656 1717.95 42.5675 Q1714.66 38.479 1714.66 31.7342 Q1714.66 24.9634 1717.95 20.8749 Q1721.23 16.7864 1726.59 16.7864 Q1729.82 16.7864 1732.14 18.0624 Q1734.46 19.3384 1735.94 21.9165 L1735.94 17.4895 L1740.73 17.4895 L1740.73 43.0362 Z" fill="#000000" fill-rule="nonzero" fill-opacity="1" /><path clip-path="url(#clip740)" d="M1769.79 21.9165 L1769.79 6.13538 L1774.59 6.13538 L1774.59 46.656 L1769.79 46.656 L1769.79 42.281 Q1768.28 44.8852 1765.97 46.1612 Q1763.67 47.4112 1760.45 47.4112 Q1755.16 47.4112 1751.83 43.1925 Q1748.52 38.9737 1748.52 32.0988 Q1748.52 25.2238 1751.83 21.0051 Q1755.16 16.7864 1760.45 16.7864 Q1763.67 16.7864 1765.97 18.0624 Q1768.28 19.3124 1769.79 21.9165 M1753.47 32.0988 Q1753.47 37.3852 1755.63 40.406 Q1757.82 43.4008 1761.62 43.4008 Q1765.42 43.4008 1767.61 40.406 Q1769.79 37.3852 1769.79 32.0988 Q1769.79 26.8124 1767.61 23.8176 Q1765.42 20.7968 1761.62 20.7968 Q1757.82 20.7968 1755.63 23.8176 Q1753.47 26.8124 1753.47 32.0988 Z" fill="#000000" fill-rule="nonzero" fill-opacity="1" /><path clip-path="url(#clip740)" d="M1789.09 42.281 L1789.09 57.7497 L1784.27 57.7497 L1784.27 17.4895 L1789.09 17.4895 L1789.09 21.9165 Q1790.6 19.3124 1792.89 18.0624 Q1795.21 16.7864 1798.41 16.7864 Q1803.73 16.7864 1807.03 21.0051 Q1810.37 25.2238 1810.37 32.0988 Q1810.37 38.9737 1807.03 43.1925 Q1803.73 47.4112 1798.41 47.4112 Q1795.21 47.4112 1792.89 46.1612 Q1790.6 44.8852 1789.09 42.281 M1805.39 32.0988 Q1805.39 26.8124 1803.21 23.8176 Q1801.04 20.7968 1797.24 20.7968 Q1793.44 20.7968 1791.25 23.8176 Q1789.09 26.8124 1789.09 32.0988 Q1789.09 37.3852 1791.25 40.406 Q1793.44 43.4008 1797.24 43.4008 Q1801.04 43.4008 1803.21 40.406 Q1805.39 37.3852 1805.39 32.0988 Z" fill="#000000" fill-rule="nonzero" fill-opacity="1" /><path clip-path="url(#clip740)" d="M1854.46 21.9165 L1854.46 6.13538 L1859.25 6.13538 L1859.25 46.656 L1854.46 46.656 L1854.46 42.281 Q1852.95 44.8852 1850.63 46.1612 Q1848.34 47.4112 1845.11 47.4112 Q1839.82 47.4112 1836.49 43.1925 Q1833.18 38.9737 1833.18 32.0988 Q1833.18 25.2238 1836.49 21.0051 Q1839.82 16.7864 1845.11 16.7864 Q1848.34 16.7864 1850.63 18.0624 Q1852.95 19.3124 1854.46 21.9165 M1838.13 32.0988 Q1838.13 37.3852 1840.29 40.406 Q1842.48 43.4008 1846.28 43.4008 Q1850.08 43.4008 1852.27 40.406 Q1854.46 37.3852 1854.46 32.0988 Q1854.46 26.8124 1852.27 23.8176 Q1850.08 20.7968 1846.28 20.7968 Q1842.48 20.7968 1840.29 23.8176 Q1838.13 26.8124 1838.13 32.0988 Z" fill="#000000" fill-rule="nonzero" fill-opacity="1" /><path clip-path="url(#clip740)" d="M1894.06 30.8748 L1894.06 33.2186 L1872.03 33.2186 Q1872.35 38.1665 1875 40.7706 Q1877.68 43.3487 1882.45 43.3487 Q1885.21 43.3487 1887.79 42.6716 Q1890.39 41.9946 1892.95 40.6404 L1892.95 45.1716 Q1890.37 46.2654 1887.66 46.8383 Q1884.95 47.4112 1882.16 47.4112 Q1875.18 47.4112 1871.1 43.3487 Q1867.03 39.2862 1867.03 32.3592 Q1867.03 25.1978 1870.89 21.0051 Q1874.77 16.7864 1881.33 16.7864 Q1887.22 16.7864 1890.63 20.5884 Q1894.06 24.3645 1894.06 30.8748 M1889.27 29.4686 Q1889.22 25.5363 1887.06 23.1926 Q1884.92 20.8488 1881.38 20.8488 Q1877.37 20.8488 1874.95 23.1145 Q1872.55 25.3801 1872.19 29.4946 L1889.27 29.4686 Z" fill="#000000" fill-rule="nonzero" fill-opacity="1" /><path clip-path="url(#clip740)" d="M1916.69 6.13538 L1916.69 10.1197 L1912.11 10.1197 Q1909.53 10.1197 1908.52 11.1614 Q1907.53 12.2031 1907.53 14.9114 L1907.53 17.4895 L1915.42 17.4895 L1915.42 21.2134 L1907.53 21.2134 L1907.53 46.656 L1902.71 46.656 L1902.71 21.2134 L1898.13 21.2134 L1898.13 17.4895 L1902.71 17.4895 L1902.71 15.4583 Q1902.71 10.5885 1904.98 8.37496 Q1907.24 6.13538 1912.16 6.13538 L1916.69 6.13538 Z" fill="#000000" fill-rule="nonzero" fill-opacity="1" /><path clip-path="url(#clip740)" d="M1920.71 6.13538 L1925.5 6.13538 L1925.5 46.656 L1920.71 46.656 L1920.71 6.13538 Z" fill="#000000" fill-rule="nonzero" fill-opacity="1" /><path clip-path="url(#clip740)" d="M1948.78 31.9946 Q1942.97 31.9946 1940.73 33.3227 Q1938.49 34.6509 1938.49 37.854 Q1938.49 40.406 1940.16 41.9164 Q1941.85 43.4008 1944.74 43.4008 Q1948.73 43.4008 1951.12 40.5883 Q1953.54 37.7498 1953.54 33.0623 L1953.54 31.9946 L1948.78 31.9946 M1958.34 30.0155 L1958.34 46.656 L1953.54 46.656 L1953.54 42.2289 Q1951.9 44.8852 1949.46 46.1612 Q1947.01 47.4112 1943.47 47.4112 Q1938.99 47.4112 1936.33 44.9112 Q1933.7 42.3852 1933.7 38.1665 Q1933.7 33.2446 1936.98 30.7446 Q1940.29 28.2446 1946.83 28.2446 L1953.54 28.2446 L1953.54 27.7759 Q1953.54 24.4686 1951.36 22.6718 Q1949.19 20.8488 1945.26 20.8488 Q1942.76 20.8488 1940.39 21.4478 Q1938.02 22.0468 1935.84 23.2447 L1935.84 18.8176 Q1938.47 17.802 1940.94 17.3072 Q1943.41 16.7864 1945.76 16.7864 Q1952.09 16.7864 1955.21 20.0676 Q1958.34 23.3488 1958.34 30.0155 Z" fill="#000000" fill-rule="nonzero" fill-opacity="1" /><path clip-path="url(#clip740)" d="M1972.94 9.20828 L1972.94 17.4895 L1982.81 17.4895 L1982.81 21.2134 L1972.94 21.2134 L1972.94 37.0467 Q1972.94 40.6144 1973.91 41.63 Q1974.9 42.6456 1977.89 42.6456 L1982.81 42.6456 L1982.81 46.656 L1977.89 46.656 Q1972.35 46.656 1970.24 44.5987 Q1968.13 42.5154 1968.13 37.0467 L1968.13 21.2134 L1964.61 21.2134 L1964.61 17.4895 L1968.13 17.4895 L1968.13 9.20828 L1972.94 9.20828 Z" fill="#000000" fill-rule="nonzero" fill-opacity="1" /><path clip-path="url(#clip740)" d="M2000.42 20.8488 Q1996.56 20.8488 1994.32 23.8697 Q1992.09 26.8644 1992.09 32.0988 Q1992.09 37.3331 1994.3 40.354 Q1996.54 43.3487 2000.42 43.3487 Q2004.25 43.3487 2006.49 40.3279 Q2008.73 37.3071 2008.73 32.0988 Q2008.73 26.9165 2006.49 23.8957 Q2004.25 20.8488 2000.42 20.8488 M2000.42 16.7864 Q2006.67 16.7864 2010.24 20.8488 Q2013.8 24.9113 2013.8 32.0988 Q2013.8 39.2602 2010.24 43.3487 Q2006.67 47.4112 2000.42 47.4112 Q1994.14 47.4112 1990.57 43.3487 Q1987.03 39.2602 1987.03 32.0988 Q1987.03 24.9113 1990.57 20.8488 Q1994.14 16.7864 2000.42 16.7864 Z" fill="#000000" fill-rule="nonzero" fill-opacity="1" /><path clip-path="url(#clip740)" d="M2038.65 21.9686 Q2037.84 21.4999 2036.88 21.2916 Q2035.94 21.0572 2034.79 21.0572 Q2030.73 21.0572 2028.54 23.7134 Q2026.38 26.3436 2026.38 31.2915 L2026.38 46.656 L2021.56 46.656 L2021.56 17.4895 L2026.38 17.4895 L2026.38 22.0207 Q2027.89 19.3645 2030.31 18.0884 Q2032.74 16.7864 2036.2 16.7864 Q2036.69 16.7864 2037.29 16.8645 Q2037.89 16.9166 2038.62 17.0468 L2038.65 21.9686 Z" fill="#000000" fill-rule="nonzero" fill-opacity="1" /><path clip-path="url(#clip743)" d="M1513.06 1060.26 L1555.83 1042.56 L1598.61 1070.59 L1641.39 1018.79 L1684.16 969.137 L1726.94 965.754 L1769.72 932.265 L1812.49 915.89 L1855.27 910.88 L1898.04 902.384 L1940.82 938.497 L1983.6 956.395 L2026.37 996.015 L2069.15 1021.15 L2111.93 1019.55 L2154.7 990.643 L2197.48 955.777 L2240.25 943.4 L2283.03 977.048 L2325.81 956.903 L2325.81 353.228 L2283.03 408.113 L2240.25 443.562 L2197.48 459.846 L2154.7 452.748 L2111.93 539.215 L2069.15 585.568 L2026.37 598.739 L1983.6 638.121 L1940.82 630.434 L1898.04 678.16 L1855.27 701.346 L1812.49 712.435 L1769.72 710.828 L1726.94 794.639 L1684.16 864.661 L1641.39 896.456 L1598.61 881.56 L1555.83 904.536 L1513.06 927.325  Z" fill="#009af9" fill-rule="evenodd" fill-opacity="0.1"/>
<polyline clip-path="url(#clip743)" style="stroke:#009af9; stroke-linecap:round; stroke-linejoin:round; stroke-width:4; stroke-opacity:1; fill:none" points="1513.06,993.791 1555.83,973.549 1598.61,976.075 1641.39,957.62 1684.16,916.899 1726.94,880.197 1769.72,821.546 1812.49,814.162 1855.27,806.113 1898.04,790.272 1940.82,784.465 1983.6,797.258 2026.37,797.377 2069.15,803.357 2111.93,779.384 2154.7,721.695 2197.48,707.812 2240.25,693.481 2283.03,692.58 2325.81,655.066 "/>
<path clip-path="url(#clip743)" d="M1513.06 982.507 L1555.83 990.331 L1598.61 974.359 L1641.39 975.142 L1684.16 1002.94 L1726.94 1023.85 L1769.72 995.203 L1812.49 980.963 L1855.27 979.283 L1898.04 947.998 L1940.82 922.574 L1983.6 916.544 L2026.37 869.341 L2069.15 814.754 L2111.93 756.451 L2154.7 761.736 L2197.48 731.784 L2240.25 719.218 L2283.03 690.861 L2325.81 647.117 L2325.81 120.65 L2283.03 205.196 L2240.25 235.038 L2197.48 279.779 L2154.7 301.056 L2111.93 324.555 L2069.15 349.671 L2026.37 338.002 L1983.6 397.344 L1940.82 492.031 L1898.04 540.002 L1855.27 565.767 L1812.49 614.264 L1769.72 629.611 L1726.94 714.356 L1684.16 774.708 L1641.39 793.356 L1598.61 858.78 L1555.83 887.561 L1513.06 951.505  Z" fill="#e26f46" fill-rule="evenodd" fill-opacity="0.1"/>
<polyline clip-path="url(#clip743)" style="stroke:#e26f46; stroke-linecap:round; stroke-linejoin:round; stroke-width:4; stroke-opacity:1; fill:none" points="1513.06,967.006 1555.83,938.946 1598.61,916.569 1641.39,884.249 1684.16,888.826 1726.94,869.105 1769.72,812.407 1812.49,797.613 1855.27,772.525 1898.04,744 1940.82,707.303 1983.6,656.944 2026.37,603.671 2069.15,582.213 2111.93,540.503 2154.7,531.396 2197.48,505.782 2240.25,477.128 2283.03,448.029 2325.81,383.884 "/>
</svg>
