<?xml version="1.0" encoding="utf-8"?>
<svg xmlns="http://www.w3.org/2000/svg" xmlns:xlink="http://www.w3.org/1999/xlink" width="600" height="400" viewBox="0 0 2400 1600">
<defs>
  <clipPath id="clip520">
    <rect x="0" y="0" width="2400" height="1600"/>
  </clipPath>
</defs>
<path clip-path="url(#clip520)" d="M0 1600 L2400 1600 L2400 0 L0 0  Z" fill="#ffffff" fill-rule="evenodd" fill-opacity="1"/>
<defs>
  <clipPath id="clip521">
    <rect x="480" y="0" width="1681" height="1600"/>
  </clipPath>
</defs>
<path clip-path="url(#clip520)" d="M202.177 1486.45 L2352.76 1486.45 L2352.76 47.2441 L202.177 47.2441  Z" fill="#ffffff" fill-rule="evenodd" fill-opacity="1"/>
<defs>
  <clipPath id="clip522">
    <rect x="202" y="47" width="2152" height="1440"/>
  </clipPath>
</defs>
<polyline clip-path="url(#clip522)" style="stroke:#000000; stroke-linecap:round; stroke-linejoin:round; stroke-width:2; stroke-opacity:0.1; fill:none" points="668.812,1486.45 668.812,47.2441 "/>
<polyline clip-path="url(#clip522)" style="stroke:#000000; stroke-linecap:round; stroke-linejoin:round; stroke-width:2; stroke-opacity:0.1; fill:none" points="1176.02,1486.45 1176.02,47.2441 "/>
<polyline clip-path="url(#clip522)" style="stroke:#000000; stroke-linecap:round; stroke-linejoin:round; stroke-width:2; stroke-opacity:0.1; fill:none" points="1683.24,1486.45 1683.24,47.2441 "/>
<polyline clip-path="url(#clip522)" style="stroke:#000000; stroke-linecap:round; stroke-linejoin:round; stroke-width:2; stroke-opacity:0.1; fill:none" points="2190.45,1486.45 2190.45,47.2441 "/>
<polyline clip-path="url(#clip522)" style="stroke:#000000; stroke-linecap:round; stroke-linejoin:round; stroke-width:2; stroke-opacity:0.1; fill:none" points="202.177,1439.49 2352.76,1439.49 "/>
<polyline clip-path="url(#clip522)" style="stroke:#000000; stroke-linecap:round; stroke-linejoin:round; stroke-width:2; stroke-opacity:0.1; fill:none" points="202.177,1128.08 2352.76,1128.08 "/>
<polyline clip-path="url(#clip522)" style="stroke:#000000; stroke-linecap:round; stroke-linejoin:round; stroke-width:2; stroke-opacity:0.1; fill:none" points="202.177,816.671 2352.76,816.671 "/>
<polyline clip-path="url(#clip522)" style="stroke:#000000; stroke-linecap:round; stroke-linejoin:round; stroke-width:2; stroke-opacity:0.1; fill:none" points="202.177,505.263 2352.76,505.263 "/>
<polyline clip-path="url(#clip522)" style="stroke:#000000; stroke-linecap:round; stroke-linejoin:round; stroke-width:2; stroke-opacity:0.1; fill:none" points="202.177,193.855 2352.76,193.855 "/>
<polyline clip-path="url(#clip520)" style="stroke:#000000; stroke-linecap:round; stroke-linejoin:round; stroke-width:4; stroke-opacity:1; fill:none" points="202.177,1486.45 2352.76,1486.45 "/>
<polyline clip-path="url(#clip520)" style="stroke:#000000; stroke-linecap:round; stroke-linejoin:round; stroke-width:4; stroke-opacity:1; fill:none" points="668.812,1486.45 668.812,1467.55 "/>
<polyline clip-path="url(#clip520)" style="stroke:#000000; stroke-linecap:round; stroke-linejoin:round; stroke-width:4; stroke-opacity:1; fill:none" points="1176.02,1486.45 1176.02,1467.55 "/>
<polyline clip-path="url(#clip520)" style="stroke:#000000; stroke-linecap:round; stroke-linejoin:round; stroke-width:4; stroke-opacity:1; fill:none" points="1683.24,1486.45 1683.24,1467.55 "/>
<polyline clip-path="url(#clip520)" style="stroke:#000000; stroke-linecap:round; stroke-linejoin:round; stroke-width:4; stroke-opacity:1; fill:none" points="2190.45,1486.45 2190.45,1467.55 "/>
<path clip-path="url(#clip520)" d="M659.09 1514.29 L677.446 1514.29 L677.446 1518.22 L663.372 1518.22 L663.372 1526.7 Q664.391 1526.35 665.409 1526.19 Q666.428 1526 667.446 1526 Q673.233 1526 676.613 1529.17 Q679.992 1532.34 679.992 1537.76 Q679.992 1543.34 676.52 1546.44 Q673.048 1549.52 666.728 1549.52 Q664.553 1549.52 662.284 1549.15 Q660.039 1548.78 657.631 1548.04 L657.631 1543.34 Q659.715 1544.47 661.937 1545.03 Q664.159 1545.58 666.636 1545.58 Q670.64 1545.58 672.978 1543.48 Q675.316 1541.37 675.316 1537.76 Q675.316 1534.15 672.978 1532.04 Q670.64 1529.94 666.636 1529.94 Q664.761 1529.94 662.886 1530.35 Q661.034 1530.77 659.09 1531.65 L659.09 1514.29 Z" fill="#000000" fill-rule="nonzero" fill-opacity="1" /><path clip-path="url(#clip520)" d="M1150.71 1544.91 L1158.35 1544.91 L1158.35 1518.55 L1150.04 1520.21 L1150.04 1515.95 L1158.3 1514.29 L1162.98 1514.29 L1162.98 1544.91 L1170.62 1544.91 L1170.62 1548.85 L1150.71 1548.85 L1150.71 1544.91 Z" fill="#000000" fill-rule="nonzero" fill-opacity="1" /><path clip-path="url(#clip520)" d="M1190.06 1517.37 Q1186.45 1517.37 1184.62 1520.93 Q1182.82 1524.47 1182.82 1531.6 Q1182.82 1538.71 1184.62 1542.27 Q1186.45 1545.82 1190.06 1545.82 Q1193.7 1545.82 1195.5 1542.27 Q1197.33 1538.71 1197.33 1531.6 Q1197.33 1524.47 1195.5 1520.93 Q1193.7 1517.37 1190.06 1517.37 M1190.06 1513.66 Q1195.87 1513.66 1198.93 1518.27 Q1202.01 1522.85 1202.01 1531.6 Q1202.01 1540.33 1198.93 1544.94 Q1195.87 1549.52 1190.06 1549.52 Q1184.25 1549.52 1181.17 1544.94 Q1178.12 1540.33 1178.12 1531.6 Q1178.12 1522.85 1181.17 1518.27 Q1184.25 1513.66 1190.06 1513.66 Z" fill="#000000" fill-rule="nonzero" fill-opacity="1" /><path clip-path="url(#clip520)" d="M1658.42 1544.91 L1666.06 1544.91 L1666.06 1518.55 L1657.75 1520.21 L1657.75 1515.95 L1666.01 1514.29 L1670.69 1514.29 L1670.69 1544.91 L1678.33 1544.91 L1678.33 1548.85 L1658.42 1548.85 L1658.42 1544.91 Z" fill="#000000" fill-rule="nonzero" fill-opacity="1" /><path clip-path="url(#clip520)" d="M1687.82 1514.29 L1706.18 1514.29 L1706.18 1518.22 L1692.1 1518.22 L1692.1 1526.7 Q1693.12 1526.35 1694.14 1526.19 Q1695.16 1526 1696.18 1526 Q1701.96 1526 1705.34 1529.17 Q1708.72 1532.34 1708.72 1537.76 Q1708.72 1543.34 1705.25 1546.44 Q1701.78 1549.52 1695.46 1549.52 Q1693.28 1549.52 1691.01 1549.15 Q1688.77 1548.78 1686.36 1548.04 L1686.36 1543.34 Q1688.44 1544.47 1690.67 1545.03 Q1692.89 1545.58 1695.37 1545.58 Q1699.37 1545.58 1701.71 1543.48 Q1704.05 1541.37 1704.05 1537.76 Q1704.05 1534.15 1701.71 1532.04 Q1699.37 1529.94 1695.37 1529.94 Q1693.49 1529.94 1691.62 1530.35 Q1689.76 1530.77 1687.82 1531.65 L1687.82 1514.29 Z" fill="#000000" fill-rule="nonzero" fill-opacity="1" /><path clip-path="url(#clip520)" d="M2169.22 1544.91 L2185.54 1544.91 L2185.54 1548.85 L2163.6 1548.85 L2163.6 1544.91 Q2166.26 1542.16 2170.84 1537.53 Q2175.45 1532.88 2176.63 1531.53 Q2178.87 1529.01 2179.75 1527.27 Q2180.66 1525.51 2180.66 1523.82 Q2180.66 1521.07 2178.71 1519.33 Q2176.79 1517.6 2173.69 1517.6 Q2171.49 1517.6 2169.04 1518.36 Q2166.61 1519.13 2163.83 1520.68 L2163.83 1515.95 Q2166.65 1514.82 2169.11 1514.24 Q2171.56 1513.66 2173.6 1513.66 Q2178.97 1513.66 2182.16 1516.35 Q2185.36 1519.03 2185.36 1523.52 Q2185.36 1525.65 2184.55 1527.57 Q2183.76 1529.47 2181.65 1532.07 Q2181.07 1532.74 2177.97 1535.95 Q2174.87 1539.15 2169.22 1544.91 Z" fill="#000000" fill-rule="nonzero" fill-opacity="1" /><path clip-path="url(#clip520)" d="M2205.36 1517.37 Q2201.74 1517.37 2199.92 1520.93 Q2198.11 1524.47 2198.11 1531.6 Q2198.11 1538.71 2199.92 1542.27 Q2201.74 1545.82 2205.36 1545.82 Q2208.99 1545.82 2210.8 1542.27 Q2212.62 1538.71 2212.62 1531.6 Q2212.62 1524.47 2210.8 1520.93 Q2208.99 1517.37 2205.36 1517.37 M2205.36 1513.66 Q2211.17 1513.66 2214.22 1518.27 Q2217.3 1522.85 2217.3 1531.6 Q2217.3 1540.33 2214.22 1544.94 Q2211.17 1549.52 2205.36 1549.52 Q2199.55 1549.52 2196.47 1544.94 Q2193.41 1540.33 2193.41 1531.6 Q2193.41 1522.85 2196.47 1518.27 Q2199.55 1513.66 2205.36 1513.66 Z" fill="#000000" fill-rule="nonzero" fill-opacity="1" /><polyline clip-path="url(#clip520)" style="stroke:#000000; stroke-linecap:round; stroke-linejoin:round; stroke-width:4; stroke-opacity:1; fill:none" points="202.177,1486.45 202.177,47.2441 "/>
<polyline clip-path="url(#clip520)" style="stroke:#000000; stroke-linecap:round; stroke-linejoin:round; stroke-width:4; stroke-opacity:1; fill:none" points="202.177,1439.49 221.074,1439.49 "/>
<polyline clip-path="url(#clip520)" style="stroke:#000000; stroke-linecap:round; stroke-linejoin:round; stroke-width:4; stroke-opacity:1; fill:none" points="202.177,1128.08 221.074,1128.08 "/>
<polyline clip-path="url(#clip520)" style="stroke:#000000; stroke-linecap:round; stroke-linejoin:round; stroke-width:4; stroke-opacity:1; fill:none" points="202.177,816.671 221.074,816.671 "/>
<polyline clip-path="url(#clip520)" style="stroke:#000000; stroke-linecap:round; stroke-linejoin:round; stroke-width:4; stroke-opacity:1; fill:none" points="202.177,505.263 221.074,505.263 "/>
<polyline clip-path="url(#clip520)" style="stroke:#000000; stroke-linecap:round; stroke-linejoin:round; stroke-width:4; stroke-opacity:1; fill:none" points="202.177,193.855 221.074,193.855 "/>
<path clip-path="url(#clip520)" d="M67.9133 1438.13 Q71.2698 1438.85 73.1448 1441.12 Q75.0429 1443.39 75.0429 1446.72 Q75.0429 1451.84 71.5244 1454.64 Q68.0059 1457.44 61.5245 1457.44 Q59.3486 1457.44 57.0338 1457 Q54.7421 1456.58 52.2884 1455.73 L52.2884 1451.21 Q54.2328 1452.35 56.5477 1452.92 Q58.8625 1453.5 61.3856 1453.5 Q65.7837 1453.5 68.0754 1451.77 Q70.3902 1450.03 70.3902 1446.72 Q70.3902 1443.67 68.2374 1441.95 Q66.1078 1440.22 62.2884 1440.22 L58.2606 1440.22 L58.2606 1436.37 L62.4735 1436.37 Q65.9226 1436.37 67.7513 1435.01 Q69.58 1433.62 69.58 1431.03 Q69.58 1428.36 67.6819 1426.95 Q65.8069 1425.52 62.2884 1425.52 Q60.3671 1425.52 58.168 1425.93 Q55.969 1426.35 53.3301 1427.23 L53.3301 1423.06 Q55.9921 1422.32 58.3069 1421.95 Q60.6449 1421.58 62.705 1421.58 Q68.0291 1421.58 71.1309 1424.01 Q74.2327 1426.42 74.2327 1430.54 Q74.2327 1433.41 72.5892 1435.4 Q70.9457 1437.37 67.9133 1438.13 Z" fill="#000000" fill-rule="nonzero" fill-opacity="1" /><path clip-path="url(#clip520)" d="M93.9086 1440.36 Q90.5752 1440.36 88.654 1442.14 Q86.7558 1443.92 86.7558 1447.05 Q86.7558 1450.17 88.654 1451.95 Q90.5752 1453.74 93.9086 1453.74 Q97.2419 1453.74 99.1632 1451.95 Q101.084 1450.15 101.084 1447.05 Q101.084 1443.92 99.1632 1442.14 Q97.265 1440.36 93.9086 1440.36 M89.2327 1438.36 Q86.2234 1437.62 84.5336 1435.56 Q82.867 1433.5 82.867 1430.54 Q82.867 1426.4 85.8068 1423.99 Q88.7697 1421.58 93.9086 1421.58 Q99.0706 1421.58 102.01 1423.99 Q104.95 1426.4 104.95 1430.54 Q104.95 1433.5 103.26 1435.56 Q101.594 1437.62 98.6076 1438.36 Q101.987 1439.15 103.862 1441.44 Q105.76 1443.74 105.76 1447.05 Q105.76 1452.07 102.682 1454.75 Q99.6261 1457.44 93.9086 1457.44 Q88.191 1457.44 85.1123 1454.75 Q82.0568 1452.07 82.0568 1447.05 Q82.0568 1443.74 83.9549 1441.44 Q85.8531 1439.15 89.2327 1438.36 M87.5197 1430.98 Q87.5197 1433.67 89.1864 1435.17 Q90.8762 1436.68 93.9086 1436.68 Q96.9178 1436.68 98.6076 1435.17 Q100.321 1433.67 100.321 1430.98 Q100.321 1428.3 98.6076 1426.79 Q96.9178 1425.29 93.9086 1425.29 Q90.8762 1425.29 89.1864 1426.79 Q87.5197 1428.3 87.5197 1430.98 Z" fill="#000000" fill-rule="nonzero" fill-opacity="1" /><path clip-path="url(#clip520)" d="M114.117 1422.21 L132.473 1422.21 L132.473 1426.14 L118.399 1426.14 L118.399 1434.61 Q119.418 1434.27 120.436 1434.11 Q121.455 1433.92 122.473 1433.92 Q128.26 1433.92 131.64 1437.09 Q135.019 1440.26 135.019 1445.68 Q135.019 1451.26 131.547 1454.36 Q128.075 1457.44 121.756 1457.44 Q119.58 1457.44 117.311 1457.07 Q115.066 1456.7 112.658 1455.96 L112.658 1451.26 Q114.742 1452.39 116.964 1452.95 Q119.186 1453.5 121.663 1453.5 Q125.668 1453.5 128.006 1451.4 Q130.344 1449.29 130.344 1445.68 Q130.344 1442.07 128.006 1439.96 Q125.668 1437.86 121.663 1437.86 Q119.788 1437.86 117.913 1438.27 Q116.061 1438.69 114.117 1439.57 L114.117 1422.21 Z" fill="#000000" fill-rule="nonzero" fill-opacity="1" /><path clip-path="url(#clip520)" d="M154.232 1425.29 Q150.621 1425.29 148.793 1428.85 Q146.987 1432.39 146.987 1439.52 Q146.987 1446.63 148.793 1450.19 Q150.621 1453.74 154.232 1453.74 Q157.867 1453.74 159.672 1450.19 Q161.501 1446.63 161.501 1439.52 Q161.501 1432.39 159.672 1428.85 Q157.867 1425.29 154.232 1425.29 M154.232 1421.58 Q160.042 1421.58 163.098 1426.19 Q166.177 1430.77 166.177 1439.52 Q166.177 1448.25 163.098 1452.86 Q160.042 1457.44 154.232 1457.44 Q148.422 1457.44 145.343 1452.86 Q142.288 1448.25 142.288 1439.52 Q142.288 1430.77 145.343 1426.19 Q148.422 1421.58 154.232 1421.58 Z" fill="#000000" fill-rule="nonzero" fill-opacity="1" /><path clip-path="url(#clip520)" d="M67.9133 1126.73 Q71.2698 1127.44 73.1448 1129.71 Q75.0429 1131.98 75.0429 1135.31 Q75.0429 1140.43 71.5244 1143.23 Q68.0059 1146.03 61.5245 1146.03 Q59.3486 1146.03 57.0338 1145.59 Q54.7421 1145.17 52.2884 1144.32 L52.2884 1139.8 Q54.2328 1140.94 56.5477 1141.52 Q58.8625 1142.1 61.3856 1142.1 Q65.7837 1142.1 68.0754 1140.36 Q70.3902 1138.62 70.3902 1135.31 Q70.3902 1132.26 68.2374 1130.54 Q66.1078 1128.81 62.2884 1128.81 L58.2606 1128.81 L58.2606 1124.97 L62.4735 1124.97 Q65.9226 1124.97 67.7513 1123.6 Q69.58 1122.21 69.58 1119.62 Q69.58 1116.96 67.6819 1115.54 Q65.8069 1114.11 62.2884 1114.11 Q60.3671 1114.11 58.168 1114.53 Q55.969 1114.94 53.3301 1115.82 L53.3301 1111.66 Q55.9921 1110.92 58.3069 1110.54 Q60.6449 1110.17 62.705 1110.17 Q68.0291 1110.17 71.1309 1112.6 Q74.2327 1115.01 74.2327 1119.13 Q74.2327 1122 72.5892 1123.99 Q70.9457 1125.96 67.9133 1126.73 Z" fill="#000000" fill-rule="nonzero" fill-opacity="1" /><path clip-path="url(#clip520)" d="M84.0475 1144.64 L84.0475 1140.38 Q85.8068 1141.22 87.6123 1141.66 Q89.4178 1142.1 91.1539 1142.1 Q95.7836 1142.1 98.2141 1138.99 Q100.668 1135.87 101.015 1129.53 Q99.6724 1131.52 97.6122 1132.58 Q95.5521 1133.65 93.0521 1133.65 Q87.8669 1133.65 84.8345 1130.52 Q81.8253 1127.37 81.8253 1121.93 Q81.8253 1116.61 84.9734 1113.39 Q88.1216 1110.17 93.353 1110.17 Q99.3483 1110.17 102.496 1114.78 Q105.668 1119.36 105.668 1128.11 Q105.668 1136.29 101.779 1141.17 Q97.9132 1146.03 91.3623 1146.03 Q89.603 1146.03 87.7975 1145.68 Q85.9919 1145.34 84.0475 1144.64 M93.353 1129.99 Q96.5011 1129.99 98.3298 1127.84 Q100.182 1125.68 100.182 1121.93 Q100.182 1118.21 98.3298 1116.05 Q96.5011 1113.88 93.353 1113.88 Q90.2049 1113.88 88.353 1116.05 Q86.5243 1118.21 86.5243 1121.93 Q86.5243 1125.68 88.353 1127.84 Q90.2049 1129.99 93.353 1129.99 Z" fill="#000000" fill-rule="nonzero" fill-opacity="1" /><path clip-path="url(#clip520)" d="M124.07 1113.88 Q120.459 1113.88 118.631 1117.44 Q116.825 1120.98 116.825 1128.11 Q116.825 1135.22 118.631 1138.79 Q120.459 1142.33 124.07 1142.33 Q127.705 1142.33 129.51 1138.79 Q131.339 1135.22 131.339 1128.11 Q131.339 1120.98 129.51 1117.44 Q127.705 1113.88 124.07 1113.88 M124.07 1110.17 Q129.881 1110.17 132.936 1114.78 Q136.015 1119.36 136.015 1128.11 Q136.015 1136.84 132.936 1141.45 Q129.881 1146.03 124.07 1146.03 Q118.26 1146.03 115.182 1141.45 Q112.126 1136.84 112.126 1128.11 Q112.126 1119.36 115.182 1114.78 Q118.26 1110.17 124.07 1110.17 Z" fill="#000000" fill-rule="nonzero" fill-opacity="1" /><path clip-path="url(#clip520)" d="M154.232 1113.88 Q150.621 1113.88 148.793 1117.44 Q146.987 1120.98 146.987 1128.11 Q146.987 1135.22 148.793 1138.79 Q150.621 1142.33 154.232 1142.33 Q157.867 1142.33 159.672 1138.79 Q161.501 1135.22 161.501 1128.11 Q161.501 1120.98 159.672 1117.44 Q157.867 1113.88 154.232 1113.88 M154.232 1110.17 Q160.042 1110.17 163.098 1114.78 Q166.177 1119.36 166.177 1128.11 Q166.177 1136.84 163.098 1141.45 Q160.042 1146.03 154.232 1146.03 Q148.422 1146.03 145.343 1141.45 Q142.288 1136.84 142.288 1128.11 Q142.288 1119.36 145.343 1114.78 Q148.422 1110.17 154.232 1110.17 Z" fill="#000000" fill-rule="nonzero" fill-opacity="1" /><path clip-path="url(#clip520)" d="M67.9133 815.317 Q71.2698 816.035 73.1448 818.303 Q75.0429 820.572 75.0429 823.905 Q75.0429 829.021 71.5244 831.822 Q68.0059 834.623 61.5245 834.623 Q59.3486 834.623 57.0338 834.183 Q54.7421 833.766 52.2884 832.91 L52.2884 828.396 Q54.2328 829.53 56.5477 830.109 Q58.8625 830.687 61.3856 830.687 Q65.7837 830.687 68.0754 828.951 Q70.3902 827.215 70.3902 823.905 Q70.3902 820.85 68.2374 819.137 Q66.1078 817.4 62.2884 817.4 L58.2606 817.4 L58.2606 813.558 L62.4735 813.558 Q65.9226 813.558 67.7513 812.192 Q69.58 810.803 69.58 808.211 Q69.58 805.549 67.6819 804.137 Q65.8069 802.701 62.2884 802.701 Q60.3671 802.701 58.168 803.118 Q55.969 803.535 53.3301 804.414 L53.3301 800.248 Q55.9921 799.507 58.3069 799.137 Q60.6449 798.766 62.705 798.766 Q68.0291 798.766 71.1309 801.197 Q74.2327 803.604 74.2327 807.725 Q74.2327 810.595 72.5892 812.586 Q70.9457 814.553 67.9133 815.317 Z" fill="#000000" fill-rule="nonzero" fill-opacity="1" /><path clip-path="url(#clip520)" d="M84.0475 833.234 L84.0475 828.974 Q85.8068 829.808 87.6123 830.248 Q89.4178 830.687 91.1539 830.687 Q95.7836 830.687 98.2141 827.586 Q100.668 824.461 101.015 818.118 Q99.6724 820.109 97.6122 821.174 Q95.5521 822.238 93.0521 822.238 Q87.8669 822.238 84.8345 819.113 Q81.8253 815.965 81.8253 810.525 Q81.8253 805.201 84.9734 801.984 Q88.1216 798.766 93.353 798.766 Q99.3483 798.766 102.496 803.373 Q105.668 807.956 105.668 816.706 Q105.668 824.877 101.779 829.761 Q97.9132 834.623 91.3623 834.623 Q89.603 834.623 87.7975 834.275 Q85.9919 833.928 84.0475 833.234 M93.353 818.581 Q96.5011 818.581 98.3298 816.428 Q100.182 814.275 100.182 810.525 Q100.182 806.799 98.3298 804.646 Q96.5011 802.47 93.353 802.47 Q90.2049 802.47 88.353 804.646 Q86.5243 806.799 86.5243 810.525 Q86.5243 814.275 88.353 816.428 Q90.2049 818.581 93.353 818.581 Z" fill="#000000" fill-rule="nonzero" fill-opacity="1" /><path clip-path="url(#clip520)" d="M114.117 799.391 L132.473 799.391 L132.473 803.326 L118.399 803.326 L118.399 811.799 Q119.418 811.451 120.436 811.289 Q121.455 811.104 122.473 811.104 Q128.26 811.104 131.64 814.275 Q135.019 817.447 135.019 822.863 Q135.019 828.442 131.547 831.544 Q128.075 834.623 121.756 834.623 Q119.58 834.623 117.311 834.252 Q115.066 833.882 112.658 833.141 L112.658 828.442 Q114.742 829.576 116.964 830.132 Q119.186 830.687 121.663 830.687 Q125.668 830.687 128.006 828.581 Q130.344 826.474 130.344 822.863 Q130.344 819.252 128.006 817.146 Q125.668 815.039 121.663 815.039 Q119.788 815.039 117.913 815.456 Q116.061 815.873 114.117 816.752 L114.117 799.391 Z" fill="#000000" fill-rule="nonzero" fill-opacity="1" /><path clip-path="url(#clip520)" d="M154.232 802.47 Q150.621 802.47 148.793 806.035 Q146.987 809.576 146.987 816.706 Q146.987 823.812 148.793 827.377 Q150.621 830.919 154.232 830.919 Q157.867 830.919 159.672 827.377 Q161.501 823.812 161.501 816.706 Q161.501 809.576 159.672 806.035 Q157.867 802.47 154.232 802.47 M154.232 798.766 Q160.042 798.766 163.098 803.373 Q166.177 807.956 166.177 816.706 Q166.177 825.433 163.098 830.039 Q160.042 834.623 154.232 834.623 Q148.422 834.623 145.343 830.039 Q142.288 825.433 142.288 816.706 Q142.288 807.956 145.343 803.373 Q148.422 798.766 154.232 798.766 Z" fill="#000000" fill-rule="nonzero" fill-opacity="1" /><path clip-path="url(#clip520)" d="M66.5939 492.057 L54.7884 510.506 L66.5939 510.506 L66.5939 492.057 M65.367 487.983 L71.2466 487.983 L71.2466 510.506 L76.1772 510.506 L76.1772 514.395 L71.2466 514.395 L71.2466 522.543 L66.5939 522.543 L66.5939 514.395 L50.9921 514.395 L50.9921 509.881 L65.367 487.983 Z" fill="#000000" fill-rule="nonzero" fill-opacity="1" /><path clip-path="url(#clip520)" d="M93.9086 491.062 Q90.2975 491.062 88.4688 494.627 Q86.6632 498.168 86.6632 505.298 Q86.6632 512.404 88.4688 515.969 Q90.2975 519.511 93.9086 519.511 Q97.5428 519.511 99.3483 515.969 Q101.177 512.404 101.177 505.298 Q101.177 498.168 99.3483 494.627 Q97.5428 491.062 93.9086 491.062 M93.9086 487.358 Q99.7187 487.358 102.774 491.965 Q105.853 496.548 105.853 505.298 Q105.853 514.025 102.774 518.631 Q99.7187 523.214 93.9086 523.214 Q88.0984 523.214 85.0197 518.631 Q81.9642 514.025 81.9642 505.298 Q81.9642 496.548 85.0197 491.965 Q88.0984 487.358 93.9086 487.358 Z" fill="#000000" fill-rule="nonzero" fill-opacity="1" /><path clip-path="url(#clip520)" d="M124.07 491.062 Q120.459 491.062 118.631 494.627 Q116.825 498.168 116.825 505.298 Q116.825 512.404 118.631 515.969 Q120.459 519.511 124.07 519.511 Q127.705 519.511 129.51 515.969 Q131.339 512.404 131.339 505.298 Q131.339 498.168 129.51 494.627 Q127.705 491.062 124.07 491.062 M124.07 487.358 Q129.881 487.358 132.936 491.965 Q136.015 496.548 136.015 505.298 Q136.015 514.025 132.936 518.631 Q129.881 523.214 124.07 523.214 Q118.26 523.214 115.182 518.631 Q112.126 514.025 112.126 505.298 Q112.126 496.548 115.182 491.965 Q118.26 487.358 124.07 487.358 Z" fill="#000000" fill-rule="nonzero" fill-opacity="1" /><path clip-path="url(#clip520)" d="M154.232 491.062 Q150.621 491.062 148.793 494.627 Q146.987 498.168 146.987 505.298 Q146.987 512.404 148.793 515.969 Q150.621 519.511 154.232 519.511 Q157.867 519.511 159.672 515.969 Q161.501 512.404 161.501 505.298 Q161.501 498.168 159.672 494.627 Q157.867 491.062 154.232 491.062 M154.232 487.358 Q160.042 487.358 163.098 491.965 Q166.177 496.548 166.177 505.298 Q166.177 514.025 163.098 518.631 Q160.042 523.214 154.232 523.214 Q148.422 523.214 145.343 518.631 Q142.288 514.025 142.288 505.298 Q142.288 496.548 145.343 491.965 Q148.422 487.358 154.232 487.358 Z" fill="#000000" fill-rule="nonzero" fill-opacity="1" /><path clip-path="url(#clip520)" d="M66.5939 180.649 L54.7884 199.098 L66.5939 199.098 L66.5939 180.649 M65.367 176.575 L71.2466 176.575 L71.2466 199.098 L76.1772 199.098 L76.1772 202.987 L71.2466 202.987 L71.2466 211.135 L66.5939 211.135 L66.5939 202.987 L50.9921 202.987 L50.9921 198.473 L65.367 176.575 Z" fill="#000000" fill-rule="nonzero" fill-opacity="1" /><path clip-path="url(#clip520)" d="M93.9086 179.654 Q90.2975 179.654 88.4688 183.219 Q86.6632 186.76 86.6632 193.89 Q86.6632 200.996 88.4688 204.561 Q90.2975 208.103 93.9086 208.103 Q97.5428 208.103 99.3483 204.561 Q101.177 200.996 101.177 193.89 Q101.177 186.76 99.3483 183.219 Q97.5428 179.654 93.9086 179.654 M93.9086 175.95 Q99.7187 175.95 102.774 180.556 Q105.853 185.14 105.853 193.89 Q105.853 202.617 102.774 207.223 Q99.7187 211.806 93.9086 211.806 Q88.0984 211.806 85.0197 207.223 Q81.9642 202.617 81.9642 193.89 Q81.9642 185.14 85.0197 180.556 Q88.0984 175.95 93.9086 175.95 Z" fill="#000000" fill-rule="nonzero" fill-opacity="1" /><path clip-path="url(#clip520)" d="M114.117 176.575 L132.473 176.575 L132.473 180.51 L118.399 180.51 L118.399 188.982 Q119.418 188.635 120.436 188.473 Q121.455 188.288 122.473 188.288 Q128.26 188.288 131.64 191.459 Q135.019 194.63 135.019 200.047 Q135.019 205.626 131.547 208.728 Q128.075 211.806 121.756 211.806 Q119.58 211.806 117.311 211.436 Q115.066 211.066 112.658 210.325 L112.658 205.626 Q114.742 206.76 116.964 207.316 Q119.186 207.871 121.663 207.871 Q125.668 207.871 128.006 205.765 Q130.344 203.658 130.344 200.047 Q130.344 196.436 128.006 194.33 Q125.668 192.223 121.663 192.223 Q119.788 192.223 117.913 192.64 Q116.061 193.056 114.117 193.936 L114.117 176.575 Z" fill="#000000" fill-rule="nonzero" fill-opacity="1" /><path clip-path="url(#clip520)" d="M154.232 179.654 Q150.621 179.654 148.793 183.219 Q146.987 186.76 146.987 193.89 Q146.987 200.996 148.793 204.561 Q150.621 208.103 154.232 208.103 Q157.867 208.103 159.672 204.561 Q161.501 200.996 161.501 193.89 Q161.501 186.76 159.672 183.219 Q157.867 179.654 154.232 179.654 M154.232 175.95 Q160.042 175.95 163.098 180.556 Q166.177 185.14 166.177 193.89 Q166.177 202.617 163.098 207.223 Q160.042 211.806 154.232 211.806 Q148.422 211.806 145.343 207.223 Q142.288 202.617 142.288 193.89 Q142.288 185.14 145.343 180.556 Q148.422 175.95 154.232 175.95 Z" fill="#000000" fill-rule="nonzero" fill-opacity="1" /><polyline clip-path="url(#clip522)" style="stroke:#009af9; stroke-linecap:round; stroke-linejoin:round; stroke-width:4; stroke-opacity:1; fill:none" points="263.042,1339.84 364.485,1358.52 465.927,1408.35 567.369,1445.72 668.812,1402.12 770.254,1233.96 871.697,1034.66 973.139,972.375 1074.58,1078.25 1176.02,1134.31 1277.47,1159.22 1378.91,1015.97 1480.35,1078.25 1581.79,829.128 1683.24,642.283 1784.68,586.229 1886.12,629.826 1987.56,629.826 2089.01,343.331 2190.45,343.331 2291.89,87.9763 "/>
<path clip-path="url(#clip520)" d="M273.863 198.898 L924.451 198.898 L924.451 95.2176 L273.863 95.2176  Z" fill="#ffffff" fill-rule="evenodd" fill-opacity="1"/>
<polyline clip-path="url(#clip520)" style="stroke:#000000; stroke-linecap:round; stroke-linejoin:round; stroke-width:4; stroke-opacity:1; fill:none" points="273.863,198.898 924.451,198.898 924.451,95.2176 273.863,95.2176 273.863,198.898 "/>
<polyline clip-path="url(#clip520)" style="stroke:#009af9; stroke-linecap:round; stroke-linejoin:round; stroke-width:4; stroke-opacity:1; fill:none" points="297.758,147.058 441.13,147.058 "/>
<path clip-path="url(#clip520)" d="M465.025 129.778 L486.877 129.778 L486.877 133.713 L469.701 133.713 L469.701 143.944 L486.159 143.944 L486.159 147.879 L469.701 147.879 L469.701 160.402 L487.294 160.402 L487.294 164.338 L465.025 164.338 L465.025 129.778 Z" fill="#000000" fill-rule="nonzero" fill-opacity="1" /><path clip-path="url(#clip520)" d="M514.979 143.389 Q516.576 140.518 518.798 139.153 Q521.02 137.787 524.03 137.787 Q528.08 137.787 530.28 140.634 Q532.479 143.458 532.479 148.689 L532.479 164.338 L528.196 164.338 L528.196 148.828 Q528.196 145.102 526.877 143.296 Q525.557 141.49 522.849 141.49 Q519.539 141.49 517.618 143.69 Q515.696 145.889 515.696 149.685 L515.696 164.338 L511.414 164.338 L511.414 148.828 Q511.414 145.078 510.094 143.296 Q508.775 141.49 506.02 141.49 Q502.757 141.49 500.835 143.713 Q498.914 145.912 498.914 149.685 L498.914 164.338 L494.632 164.338 L494.632 138.412 L498.914 138.412 L498.914 142.44 Q500.372 140.055 502.409 138.921 Q504.446 137.787 507.247 137.787 Q510.071 137.787 512.039 139.222 Q514.03 140.657 514.979 143.389 Z" fill="#000000" fill-rule="nonzero" fill-opacity="1" /><path clip-path="url(#clip520)" d="M545.094 160.449 L545.094 174.199 L540.812 174.199 L540.812 138.412 L545.094 138.412 L545.094 142.347 Q546.437 140.032 548.474 138.921 Q550.534 137.787 553.381 137.787 Q558.103 137.787 561.043 141.537 Q564.006 145.287 564.006 151.398 Q564.006 157.509 561.043 161.259 Q558.103 165.009 553.381 165.009 Q550.534 165.009 548.474 163.898 Q546.437 162.763 545.094 160.449 M559.585 151.398 Q559.585 146.699 557.641 144.037 Q555.719 141.352 552.34 141.352 Q548.96 141.352 547.016 144.037 Q545.094 146.699 545.094 151.398 Q545.094 156.097 547.016 158.782 Q548.96 161.444 552.34 161.444 Q555.719 161.444 557.641 158.782 Q559.585 156.097 559.585 151.398 Z" fill="#000000" fill-rule="nonzero" fill-opacity="1" /><path clip-path="url(#clip520)" d="M571.066 128.319 L575.326 128.319 L575.326 164.338 L571.066 164.338 L571.066 128.319 Z" fill="#000000" fill-rule="nonzero" fill-opacity="1" /><path clip-path="url(#clip520)" d="M594.284 141.398 Q590.858 141.398 588.867 144.083 Q586.876 146.745 586.876 151.398 Q586.876 156.051 588.844 158.736 Q590.835 161.398 594.284 161.398 Q597.687 161.398 599.677 158.713 Q601.668 156.027 601.668 151.398 Q601.668 146.791 599.677 144.106 Q597.687 141.398 594.284 141.398 M594.284 137.787 Q599.839 137.787 603.011 141.398 Q606.182 145.009 606.182 151.398 Q606.182 157.764 603.011 161.398 Q599.839 165.009 594.284 165.009 Q588.705 165.009 585.534 161.398 Q582.386 157.764 582.386 151.398 Q582.386 145.009 585.534 141.398 Q588.705 137.787 594.284 137.787 Z" fill="#000000" fill-rule="nonzero" fill-opacity="1" /><path clip-path="url(#clip520)" d="M624.029 166.745 Q622.223 171.375 620.511 172.787 Q618.798 174.199 615.927 174.199 L612.524 174.199 L612.524 170.634 L615.024 170.634 Q616.784 170.634 617.756 169.8 Q618.728 168.967 619.909 165.865 L620.673 163.921 L610.187 138.412 L614.7 138.412 L622.802 158.689 L630.904 138.412 L635.418 138.412 L624.029 166.745 Z" fill="#000000" fill-rule="nonzero" fill-opacity="1" /><path clip-path="url(#clip520)" d="M663.473 150.31 L663.473 152.393 L643.89 152.393 Q644.168 156.791 646.529 159.106 Q648.913 161.398 653.149 161.398 Q655.603 161.398 657.895 160.796 Q660.209 160.194 662.478 158.99 L662.478 163.018 Q660.186 163.99 657.779 164.5 Q655.371 165.009 652.895 165.009 Q646.691 165.009 643.057 161.398 Q639.446 157.787 639.446 151.629 Q639.446 145.264 642.872 141.537 Q646.321 137.787 652.154 137.787 Q657.385 137.787 660.418 141.166 Q663.473 144.523 663.473 150.31 M659.214 149.06 Q659.168 145.565 657.246 143.481 Q655.348 141.398 652.2 141.398 Q648.635 141.398 646.483 143.412 Q644.353 145.426 644.029 149.083 L659.214 149.06 Z" fill="#000000" fill-rule="nonzero" fill-opacity="1" /><path clip-path="url(#clip520)" d="M687.524 142.347 L687.524 128.319 L691.783 128.319 L691.783 164.338 L687.524 164.338 L687.524 160.449 Q686.181 162.763 684.121 163.898 Q682.084 165.009 679.214 165.009 Q674.515 165.009 671.552 161.259 Q668.612 157.509 668.612 151.398 Q668.612 145.287 671.552 141.537 Q674.515 137.787 679.214 137.787 Q682.084 137.787 684.121 138.921 Q686.181 140.032 687.524 142.347 M673.01 151.398 Q673.01 156.097 674.932 158.782 Q676.876 161.444 680.256 161.444 Q683.635 161.444 685.58 158.782 Q687.524 156.097 687.524 151.398 Q687.524 146.699 685.58 144.037 Q683.635 141.352 680.256 141.352 Q676.876 141.352 674.932 144.037 Q673.01 146.699 673.01 151.398 Z" fill="#000000" fill-rule="nonzero" fill-opacity="1" /><path clip-path="url(#clip520)" d="M712.732 129.778 L717.454 129.778 L724.723 158.99 L731.968 129.778 L737.223 129.778 L744.491 158.99 L751.737 129.778 L756.482 129.778 L747.802 164.338 L741.922 164.338 L734.63 134.338 L727.269 164.338 L721.39 164.338 L712.732 129.778 Z" fill="#000000" fill-rule="nonzero" fill-opacity="1" /><path clip-path="url(#clip520)" d="M769.769 141.398 Q766.343 141.398 764.352 144.083 Q762.362 146.745 762.362 151.398 Q762.362 156.051 764.329 158.736 Q766.32 161.398 769.769 161.398 Q773.172 161.398 775.162 158.713 Q777.153 156.027 777.153 151.398 Q777.153 146.791 775.162 144.106 Q773.172 141.398 769.769 141.398 M769.769 137.787 Q775.325 137.787 778.496 141.398 Q781.667 145.009 781.667 151.398 Q781.667 157.764 778.496 161.398 Q775.325 165.009 769.769 165.009 Q764.19 165.009 761.019 161.398 Q757.871 157.764 757.871 151.398 Q757.871 145.009 761.019 141.398 Q764.19 137.787 769.769 137.787 Z" fill="#000000" fill-rule="nonzero" fill-opacity="1" /><path clip-path="url(#clip520)" d="M803.75 142.393 Q803.033 141.977 802.176 141.791 Q801.343 141.583 800.324 141.583 Q796.713 141.583 794.769 143.944 Q792.848 146.282 792.848 150.68 L792.848 164.338 L788.565 164.338 L788.565 138.412 L792.848 138.412 L792.848 142.44 Q794.19 140.078 796.343 138.944 Q798.496 137.787 801.574 137.787 Q802.014 137.787 802.547 137.856 Q803.079 137.903 803.727 138.018 L803.75 142.393 Z" fill="#000000" fill-rule="nonzero" fill-opacity="1" /><path clip-path="url(#clip520)" d="M808.056 128.319 L812.338 128.319 L812.338 149.592 L825.046 138.412 L830.486 138.412 L816.736 150.541 L831.065 164.338 L825.509 164.338 L812.338 151.676 L812.338 164.338 L808.056 164.338 L808.056 128.319 Z" fill="#000000" fill-rule="nonzero" fill-opacity="1" /><path clip-path="url(#clip520)" d="M856.157 150.31 L856.157 152.393 L836.574 152.393 Q836.852 156.791 839.213 159.106 Q841.597 161.398 845.833 161.398 Q848.287 161.398 850.579 160.796 Q852.894 160.194 855.162 158.99 L855.162 163.018 Q852.87 163.99 850.463 164.5 Q848.056 165.009 845.579 165.009 Q839.375 165.009 835.741 161.398 Q832.13 157.787 832.13 151.629 Q832.13 145.264 835.556 141.537 Q839.005 137.787 844.838 137.787 Q850.069 137.787 853.102 141.166 Q856.157 144.523 856.157 150.31 M851.898 149.06 Q851.852 145.565 849.931 143.481 Q848.032 141.398 844.884 141.398 Q841.32 141.398 839.167 143.412 Q837.037 145.426 836.713 149.083 L851.898 149.06 Z" fill="#000000" fill-rule="nonzero" fill-opacity="1" /><path clip-path="url(#clip520)" d="M878.171 142.393 Q877.454 141.977 876.597 141.791 Q875.764 141.583 874.745 141.583 Q871.134 141.583 869.19 143.944 Q867.268 146.282 867.268 150.68 L867.268 164.338 L862.986 164.338 L862.986 138.412 L867.268 138.412 L867.268 142.44 Q868.611 140.078 870.764 138.944 Q872.917 137.787 875.995 137.787 Q876.435 137.787 876.968 137.856 Q877.5 137.903 878.148 138.018 L878.171 142.393 Z" fill="#000000" fill-rule="nonzero" fill-opacity="1" /><path clip-path="url(#clip520)" d="M899.166 139.176 L899.166 143.203 Q897.361 142.277 895.416 141.815 Q893.472 141.352 891.389 141.352 Q888.217 141.352 886.62 142.324 Q885.046 143.296 885.046 145.24 Q885.046 146.722 886.18 147.578 Q887.315 148.412 890.741 149.176 L892.199 149.5 Q896.736 150.472 898.634 152.254 Q900.555 154.014 900.555 157.185 Q900.555 160.796 897.685 162.902 Q894.838 165.009 889.838 165.009 Q887.754 165.009 885.486 164.592 Q883.241 164.199 880.741 163.388 L880.741 158.99 Q883.102 160.217 885.393 160.842 Q887.685 161.444 889.93 161.444 Q892.94 161.444 894.56 160.426 Q896.18 159.384 896.18 157.509 Q896.18 155.773 895 154.847 Q893.842 153.921 889.884 153.064 L888.403 152.717 Q884.444 151.884 882.685 150.171 Q880.926 148.435 880.926 145.426 Q880.926 141.768 883.518 139.778 Q886.111 137.787 890.879 137.787 Q893.241 137.787 895.324 138.134 Q897.407 138.481 899.166 139.176 Z" fill="#000000" fill-rule="nonzero" fill-opacity="1" /></svg>
