<?xml version="1.0" encoding="utf-8"?>
<svg xmlns="http://www.w3.org/2000/svg" xmlns:xlink="http://www.w3.org/1999/xlink" width="600" height="400" viewBox="0 0 2400 1600">
<defs>
  <clipPath id="clip070">
    <rect x="0" y="0" width="2400" height="1600"/>
  </clipPath>
</defs>
<path clip-path="url(#clip070)" d="M0 1600 L2400 1600 L2400 0 L0 0  Z" fill="#ffffff" fill-rule="evenodd" fill-opacity="1"/>
<defs>
  <clipPath id="clip071">
    <rect x="480" y="0" width="1681" height="1600"/>
  </clipPath>
</defs>
<path clip-path="url(#clip070)" d="M230.765 1486.45 L2352.76 1486.45 L2352.76 106.192 L230.765 106.192  Z" fill="#ffffff" fill-rule="evenodd" fill-opacity="1"/>
<defs>
  <clipPath id="clip072">
    <rect x="230" y="106" width="2123" height="1381"/>
  </clipPath>
</defs>
<polyline clip-path="url(#clip072)" style="stroke:#000000; stroke-linecap:round; stroke-linejoin:round; stroke-width:2; stroke-opacity:0.1; fill:none" points="541.056,1486.45 541.056,106.192 "/>
<polyline clip-path="url(#clip072)" style="stroke:#000000; stroke-linecap:round; stroke-linejoin:round; stroke-width:2; stroke-opacity:0.1; fill:none" points="916.408,1486.45 916.408,106.192 "/>
<polyline clip-path="url(#clip072)" style="stroke:#000000; stroke-linecap:round; stroke-linejoin:round; stroke-width:2; stroke-opacity:0.1; fill:none" points="1291.76,1486.45 1291.76,106.192 "/>
<polyline clip-path="url(#clip072)" style="stroke:#000000; stroke-linecap:round; stroke-linejoin:round; stroke-width:2; stroke-opacity:0.1; fill:none" points="1667.11,1486.45 1667.11,106.192 "/>
<polyline clip-path="url(#clip072)" style="stroke:#000000; stroke-linecap:round; stroke-linejoin:round; stroke-width:2; stroke-opacity:0.1; fill:none" points="2042.46,1486.45 2042.46,106.192 "/>
<polyline clip-path="url(#clip072)" style="stroke:#000000; stroke-linecap:round; stroke-linejoin:round; stroke-width:2; stroke-opacity:0.1; fill:none" points="230.765,1282.57 2352.76,1282.57 "/>
<polyline clip-path="url(#clip072)" style="stroke:#000000; stroke-linecap:round; stroke-linejoin:round; stroke-width:2; stroke-opacity:0.1; fill:none" points="230.765,1030.54 2352.76,1030.54 "/>
<polyline clip-path="url(#clip072)" style="stroke:#000000; stroke-linecap:round; stroke-linejoin:round; stroke-width:2; stroke-opacity:0.1; fill:none" points="230.765,778.502 2352.76,778.502 "/>
<polyline clip-path="url(#clip072)" style="stroke:#000000; stroke-linecap:round; stroke-linejoin:round; stroke-width:2; stroke-opacity:0.1; fill:none" points="230.765,526.467 2352.76,526.467 "/>
<polyline clip-path="url(#clip072)" style="stroke:#000000; stroke-linecap:round; stroke-linejoin:round; stroke-width:2; stroke-opacity:0.1; fill:none" points="230.765,274.432 2352.76,274.432 "/>
<polyline clip-path="url(#clip070)" style="stroke:#000000; stroke-linecap:round; stroke-linejoin:round; stroke-width:4; stroke-opacity:1; fill:none" points="230.765,1486.45 2352.76,1486.45 "/>
<polyline clip-path="url(#clip070)" style="stroke:#000000; stroke-linecap:round; stroke-linejoin:round; stroke-width:4; stroke-opacity:1; fill:none" points="541.056,1486.45 541.056,1467.55 "/>
<polyline clip-path="url(#clip070)" style="stroke:#000000; stroke-linecap:round; stroke-linejoin:round; stroke-width:4; stroke-opacity:1; fill:none" points="916.408,1486.45 916.408,1467.55 "/>
<polyline clip-path="url(#clip070)" style="stroke:#000000; stroke-linecap:round; stroke-linejoin:round; stroke-width:4; stroke-opacity:1; fill:none" points="1291.76,1486.45 1291.76,1467.55 "/>
<polyline clip-path="url(#clip070)" style="stroke:#000000; stroke-linecap:round; stroke-linejoin:round; stroke-width:4; stroke-opacity:1; fill:none" points="1667.11,1486.45 1667.11,1467.55 "/>
<polyline clip-path="url(#clip070)" style="stroke:#000000; stroke-linecap:round; stroke-linejoin:round; stroke-width:4; stroke-opacity:1; fill:none" points="2042.46,1486.45 2042.46,1467.55 "/>
<path clip-path="url(#clip070)" d="M545.303 1530.21 Q548.66 1530.93 550.535 1533.2 Q552.433 1535.47 552.433 1538.8 Q552.433 1543.92 548.914 1546.72 Q545.396 1549.52 538.915 1549.52 Q536.739 1549.52 534.424 1549.08 Q532.132 1548.66 529.678 1547.81 L529.678 1543.29 Q531.623 1544.43 533.938 1545.01 Q536.252 1545.58 538.776 1545.58 Q543.174 1545.58 545.465 1543.85 Q547.78 1542.11 547.78 1538.8 Q547.78 1535.75 545.627 1534.03 Q543.498 1532.3 539.678 1532.3 L535.651 1532.3 L535.651 1528.45 L539.864 1528.45 Q543.313 1528.45 545.141 1527.09 Q546.97 1525.7 546.97 1523.11 Q546.97 1520.45 545.072 1519.03 Q543.197 1517.6 539.678 1517.6 Q537.757 1517.6 535.558 1518.01 Q533.359 1518.43 530.72 1519.31 L530.72 1515.14 Q533.382 1514.4 535.697 1514.03 Q538.035 1513.66 540.095 1513.66 Q545.419 1513.66 548.521 1516.09 Q551.623 1518.5 551.623 1522.62 Q551.623 1525.49 549.979 1527.48 Q548.336 1529.45 545.303 1530.21 Z" fill="#000000" fill-rule="nonzero" fill-opacity="1" /><path clip-path="url(#clip070)" d="M916.813 1529.7 Q913.665 1529.7 911.813 1531.86 Q909.984 1534.01 909.984 1537.76 Q909.984 1541.49 911.813 1543.66 Q913.665 1545.82 916.813 1545.82 Q919.961 1545.82 921.79 1543.66 Q923.642 1541.49 923.642 1537.76 Q923.642 1534.01 921.79 1531.86 Q919.961 1529.7 916.813 1529.7 M926.095 1515.05 L926.095 1519.31 Q924.336 1518.48 922.531 1518.04 Q920.748 1517.6 918.989 1517.6 Q914.359 1517.6 911.906 1520.72 Q909.475 1523.85 909.128 1530.17 Q910.494 1528.15 912.554 1527.09 Q914.614 1526 917.091 1526 Q922.299 1526 925.308 1529.17 Q928.341 1532.32 928.341 1537.76 Q928.341 1543.08 925.193 1546.3 Q922.044 1549.52 916.813 1549.52 Q910.818 1549.52 907.646 1544.94 Q904.475 1540.33 904.475 1531.6 Q904.475 1523.41 908.364 1518.55 Q912.253 1513.66 918.804 1513.66 Q920.563 1513.66 922.345 1514.01 Q924.151 1514.36 926.095 1515.05 Z" fill="#000000" fill-rule="nonzero" fill-opacity="1" /><path clip-path="url(#clip070)" d="M1282.06 1548.13 L1282.06 1543.87 Q1283.82 1544.7 1285.63 1545.14 Q1287.43 1545.58 1289.17 1545.58 Q1293.8 1545.58 1296.23 1542.48 Q1298.68 1539.36 1299.03 1533.01 Q1297.69 1535.01 1295.63 1536.07 Q1293.57 1537.13 1291.07 1537.13 Q1285.88 1537.13 1282.85 1534.01 Q1279.84 1530.86 1279.84 1525.42 Q1279.84 1520.1 1282.99 1516.88 Q1286.14 1513.66 1291.37 1513.66 Q1297.36 1513.66 1300.51 1518.27 Q1303.68 1522.85 1303.68 1531.6 Q1303.68 1539.77 1299.79 1544.66 Q1295.93 1549.52 1289.38 1549.52 Q1287.62 1549.52 1285.81 1549.17 Q1284.01 1548.82 1282.06 1548.13 M1291.37 1533.48 Q1294.51 1533.48 1296.34 1531.32 Q1298.2 1529.17 1298.2 1525.42 Q1298.2 1521.7 1296.34 1519.54 Q1294.51 1517.37 1291.37 1517.37 Q1288.22 1517.37 1286.37 1519.54 Q1284.54 1521.7 1284.54 1525.42 Q1284.54 1529.17 1286.37 1531.32 Q1288.22 1533.48 1291.37 1533.48 Z" fill="#000000" fill-rule="nonzero" fill-opacity="1" /><path clip-path="url(#clip070)" d="M1642.6 1544.91 L1650.24 1544.91 L1650.24 1518.55 L1641.93 1520.21 L1641.93 1515.95 L1650.19 1514.29 L1654.87 1514.29 L1654.87 1544.91 L1662.51 1544.91 L1662.51 1548.85 L1642.6 1548.85 L1642.6 1544.91 Z" fill="#000000" fill-rule="nonzero" fill-opacity="1" /><path clip-path="url(#clip070)" d="M1675.98 1544.91 L1692.3 1544.91 L1692.3 1548.85 L1670.35 1548.85 L1670.35 1544.91 Q1673.02 1542.16 1677.6 1537.53 Q1682.2 1532.88 1683.39 1531.53 Q1685.63 1529.01 1686.51 1527.27 Q1687.41 1525.51 1687.41 1523.82 Q1687.41 1521.07 1685.47 1519.33 Q1683.55 1517.6 1680.45 1517.6 Q1678.25 1517.6 1675.79 1518.36 Q1673.36 1519.13 1670.58 1520.68 L1670.58 1515.95 Q1673.41 1514.82 1675.86 1514.24 Q1678.32 1513.66 1680.35 1513.66 Q1685.72 1513.66 1688.92 1516.35 Q1692.11 1519.03 1692.11 1523.52 Q1692.11 1525.65 1691.3 1527.57 Q1690.52 1529.47 1688.41 1532.07 Q1687.83 1532.74 1684.73 1535.95 Q1681.63 1539.15 1675.98 1544.91 Z" fill="#000000" fill-rule="nonzero" fill-opacity="1" /><path clip-path="url(#clip070)" d="M2017.65 1544.91 L2025.29 1544.91 L2025.29 1518.55 L2016.98 1520.21 L2016.98 1515.95 L2025.24 1514.29 L2029.92 1514.29 L2029.92 1544.91 L2037.56 1544.91 L2037.56 1548.85 L2017.65 1548.85 L2017.65 1544.91 Z" fill="#000000" fill-rule="nonzero" fill-opacity="1" /><path clip-path="url(#clip070)" d="M2047.05 1514.29 L2065.4 1514.29 L2065.4 1518.22 L2051.33 1518.22 L2051.33 1526.7 Q2052.35 1526.35 2053.37 1526.19 Q2054.39 1526 2055.4 1526 Q2061.19 1526 2064.57 1529.17 Q2067.95 1532.34 2067.95 1537.76 Q2067.95 1543.34 2064.48 1546.44 Q2061.01 1549.52 2054.69 1549.52 Q2052.51 1549.52 2050.24 1549.15 Q2048 1548.78 2045.59 1548.04 L2045.59 1543.34 Q2047.67 1544.47 2049.9 1545.03 Q2052.12 1545.58 2054.59 1545.58 Q2058.6 1545.58 2060.94 1543.48 Q2063.27 1541.37 2063.27 1537.76 Q2063.27 1534.15 2060.94 1532.04 Q2058.6 1529.94 2054.59 1529.94 Q2052.72 1529.94 2050.84 1530.35 Q2048.99 1530.77 2047.05 1531.65 L2047.05 1514.29 Z" fill="#000000" fill-rule="nonzero" fill-opacity="1" /><polyline clip-path="url(#clip070)" style="stroke:#000000; stroke-linecap:round; stroke-linejoin:round; stroke-width:4; stroke-opacity:1; fill:none" points="230.765,1486.45 230.765,106.192 "/>
<polyline clip-path="url(#clip070)" style="stroke:#000000; stroke-linecap:round; stroke-linejoin:round; stroke-width:4; stroke-opacity:1; fill:none" points="230.765,1282.57 249.662,1282.57 "/>
<polyline clip-path="url(#clip070)" style="stroke:#000000; stroke-linecap:round; stroke-linejoin:round; stroke-width:4; stroke-opacity:1; fill:none" points="230.765,1030.54 249.662,1030.54 "/>
<polyline clip-path="url(#clip070)" style="stroke:#000000; stroke-linecap:round; stroke-linejoin:round; stroke-width:4; stroke-opacity:1; fill:none" points="230.765,778.502 249.662,778.502 "/>
<polyline clip-path="url(#clip070)" style="stroke:#000000; stroke-linecap:round; stroke-linejoin:round; stroke-width:4; stroke-opacity:1; fill:none" points="230.765,526.467 249.662,526.467 "/>
<polyline clip-path="url(#clip070)" style="stroke:#000000; stroke-linecap:round; stroke-linejoin:round; stroke-width:4; stroke-opacity:1; fill:none" points="230.765,274.432 249.662,274.432 "/>
<path clip-path="url(#clip070)" d="M50.9921 1265.29 L73.2142 1265.29 L73.2142 1267.28 L60.668 1299.85 L55.7838 1299.85 L67.5893 1269.23 L50.9921 1269.23 L50.9921 1265.29 Z" fill="#000000" fill-rule="nonzero" fill-opacity="1" /><path clip-path="url(#clip070)" d="M86.3623 1295.92 L102.682 1295.92 L102.682 1299.85 L80.7373 1299.85 L80.7373 1295.92 Q83.3994 1293.16 87.9827 1288.53 Q92.5891 1283.88 93.7697 1282.54 Q96.015 1280.01 96.8947 1278.28 Q97.7974 1276.52 97.7974 1274.83 Q97.7974 1272.07 95.853 1270.34 Q93.9317 1268.6 90.8299 1268.6 Q88.6308 1268.6 86.1771 1269.37 Q83.7466 1270.13 80.9688 1271.68 L80.9688 1266.96 Q83.7929 1265.82 86.2466 1265.25 Q88.7003 1264.67 90.7373 1264.67 Q96.1076 1264.67 99.3021 1267.35 Q102.496 1270.04 102.496 1274.53 Q102.496 1276.66 101.686 1278.58 Q100.899 1280.48 98.7928 1283.07 Q98.2141 1283.74 95.1123 1286.96 Q92.0104 1290.15 86.3623 1295.92 Z" fill="#000000" fill-rule="nonzero" fill-opacity="1" /><path clip-path="url(#clip070)" d="M122.496 1268.37 Q118.885 1268.37 117.057 1271.94 Q115.251 1275.48 115.251 1282.61 Q115.251 1289.71 117.057 1293.28 Q118.885 1296.82 122.496 1296.82 Q126.131 1296.82 127.936 1293.28 Q129.765 1289.71 129.765 1282.61 Q129.765 1275.48 127.936 1271.94 Q126.131 1268.37 122.496 1268.37 M122.496 1264.67 Q128.307 1264.67 131.362 1269.27 Q134.441 1273.86 134.441 1282.61 Q134.441 1291.33 131.362 1295.94 Q128.307 1300.52 122.496 1300.52 Q116.686 1300.52 113.608 1295.94 Q110.552 1291.33 110.552 1282.61 Q110.552 1273.86 113.608 1269.27 Q116.686 1264.67 122.496 1264.67 Z" fill="#000000" fill-rule="nonzero" fill-opacity="1" /><path clip-path="url(#clip070)" d="M152.658 1268.37 Q149.047 1268.37 147.218 1271.94 Q145.413 1275.48 145.413 1282.61 Q145.413 1289.71 147.218 1293.28 Q149.047 1296.82 152.658 1296.82 Q156.292 1296.82 158.098 1293.28 Q159.927 1289.71 159.927 1282.61 Q159.927 1275.48 158.098 1271.94 Q156.292 1268.37 152.658 1268.37 M152.658 1264.67 Q158.468 1264.67 161.524 1269.27 Q164.603 1273.86 164.603 1282.61 Q164.603 1291.33 161.524 1295.94 Q158.468 1300.52 152.658 1300.52 Q146.848 1300.52 143.769 1295.94 Q140.714 1291.33 140.714 1282.61 Q140.714 1273.86 143.769 1269.27 Q146.848 1264.67 152.658 1264.67 Z" fill="#000000" fill-rule="nonzero" fill-opacity="1" /><path clip-path="url(#clip070)" d="M182.82 1268.37 Q179.209 1268.37 177.38 1271.94 Q175.575 1275.48 175.575 1282.61 Q175.575 1289.71 177.38 1293.28 Q179.209 1296.82 182.82 1296.82 Q186.454 1296.82 188.26 1293.28 Q190.089 1289.71 190.089 1282.61 Q190.089 1275.48 188.26 1271.94 Q186.454 1268.37 182.82 1268.37 M182.82 1264.67 Q188.63 1264.67 191.686 1269.27 Q194.765 1273.86 194.765 1282.61 Q194.765 1291.33 191.686 1295.94 Q188.63 1300.52 182.82 1300.52 Q177.01 1300.52 173.931 1295.94 Q170.876 1291.33 170.876 1282.61 Q170.876 1273.86 173.931 1269.27 Q177.01 1264.67 182.82 1264.67 Z" fill="#000000" fill-rule="nonzero" fill-opacity="1" /><path clip-path="url(#clip070)" d="M50.9921 1013.26 L73.2142 1013.26 L73.2142 1015.25 L60.668 1047.82 L55.7838 1047.82 L67.5893 1017.19 L50.9921 1017.19 L50.9921 1013.26 Z" fill="#000000" fill-rule="nonzero" fill-opacity="1" /><path clip-path="url(#clip070)" d="M96.5011 1029.18 Q99.8576 1029.9 101.733 1032.17 Q103.631 1034.44 103.631 1037.77 Q103.631 1042.89 100.112 1045.69 Q96.5937 1048.49 90.1123 1048.49 Q87.9364 1048.49 85.6216 1048.05 Q83.3299 1047.63 80.8762 1046.78 L80.8762 1042.26 Q82.8207 1043.4 85.1355 1043.97 Q87.4503 1044.55 89.9734 1044.55 Q94.3715 1044.55 96.6632 1042.82 Q98.978 1041.08 98.978 1037.77 Q98.978 1034.72 96.8252 1033 Q94.6956 1031.27 90.8762 1031.27 L86.8484 1031.27 L86.8484 1027.42 L91.0614 1027.42 Q94.5104 1027.42 96.3391 1026.06 Q98.1678 1024.67 98.1678 1022.08 Q98.1678 1019.41 96.2697 1018 Q94.3947 1016.57 90.8762 1016.57 Q88.9549 1016.57 86.7558 1016.98 Q84.5568 1017.4 81.9179 1018.28 L81.9179 1014.11 Q84.5799 1013.37 86.8947 1013 Q89.2327 1012.63 91.2928 1012.63 Q96.6169 1012.63 99.7187 1015.06 Q102.821 1017.47 102.821 1021.59 Q102.821 1024.46 101.177 1026.45 Q99.5335 1028.42 96.5011 1029.18 Z" fill="#000000" fill-rule="nonzero" fill-opacity="1" /><path clip-path="url(#clip070)" d="M122.496 1016.34 Q118.885 1016.34 117.057 1019.9 Q115.251 1023.44 115.251 1030.57 Q115.251 1037.68 117.057 1041.24 Q118.885 1044.78 122.496 1044.78 Q126.131 1044.78 127.936 1041.24 Q129.765 1037.68 129.765 1030.57 Q129.765 1023.44 127.936 1019.9 Q126.131 1016.34 122.496 1016.34 M122.496 1012.63 Q128.307 1012.63 131.362 1017.24 Q134.441 1021.82 134.441 1030.57 Q134.441 1039.3 131.362 1043.9 Q128.307 1048.49 122.496 1048.49 Q116.686 1048.49 113.608 1043.9 Q110.552 1039.3 110.552 1030.57 Q110.552 1021.82 113.608 1017.24 Q116.686 1012.63 122.496 1012.63 Z" fill="#000000" fill-rule="nonzero" fill-opacity="1" /><path clip-path="url(#clip070)" d="M152.658 1016.34 Q149.047 1016.34 147.218 1019.9 Q145.413 1023.44 145.413 1030.57 Q145.413 1037.68 147.218 1041.24 Q149.047 1044.78 152.658 1044.78 Q156.292 1044.78 158.098 1041.24 Q159.927 1037.68 159.927 1030.57 Q159.927 1023.44 158.098 1019.9 Q156.292 1016.34 152.658 1016.34 M152.658 1012.63 Q158.468 1012.63 161.524 1017.24 Q164.603 1021.82 164.603 1030.57 Q164.603 1039.3 161.524 1043.9 Q158.468 1048.49 152.658 1048.49 Q146.848 1048.49 143.769 1043.9 Q140.714 1039.3 140.714 1030.57 Q140.714 1021.82 143.769 1017.24 Q146.848 1012.63 152.658 1012.63 Z" fill="#000000" fill-rule="nonzero" fill-opacity="1" /><path clip-path="url(#clip070)" d="M182.82 1016.34 Q179.209 1016.34 177.38 1019.9 Q175.575 1023.44 175.575 1030.57 Q175.575 1037.68 177.38 1041.24 Q179.209 1044.78 182.82 1044.78 Q186.454 1044.78 188.26 1041.24 Q190.089 1037.68 190.089 1030.57 Q190.089 1023.44 188.26 1019.9 Q186.454 1016.34 182.82 1016.34 M182.82 1012.63 Q188.63 1012.63 191.686 1017.24 Q194.765 1021.82 194.765 1030.57 Q194.765 1039.3 191.686 1043.9 Q188.63 1048.49 182.82 1048.49 Q177.01 1048.49 173.931 1043.9 Q170.876 1039.3 170.876 1030.57 Q170.876 1021.82 173.931 1017.24 Q177.01 1012.63 182.82 1012.63 Z" fill="#000000" fill-rule="nonzero" fill-opacity="1" /><path clip-path="url(#clip070)" d="M50.9921 761.222 L73.2142 761.222 L73.2142 763.213 L60.668 795.782 L55.7838 795.782 L67.5893 765.157 L50.9921 765.157 L50.9921 761.222 Z" fill="#000000" fill-rule="nonzero" fill-opacity="1" /><path clip-path="url(#clip070)" d="M95.1817 765.296 L83.3762 783.745 L95.1817 783.745 L95.1817 765.296 M93.9549 761.222 L99.8345 761.222 L99.8345 783.745 L104.765 783.745 L104.765 787.634 L99.8345 787.634 L99.8345 795.782 L95.1817 795.782 L95.1817 787.634 L79.5799 787.634 L79.5799 783.12 L93.9549 761.222 Z" fill="#000000" fill-rule="nonzero" fill-opacity="1" /><path clip-path="url(#clip070)" d="M122.496 764.301 Q118.885 764.301 117.057 767.865 Q115.251 771.407 115.251 778.537 Q115.251 785.643 117.057 789.208 Q118.885 792.75 122.496 792.75 Q126.131 792.75 127.936 789.208 Q129.765 785.643 129.765 778.537 Q129.765 771.407 127.936 767.865 Q126.131 764.301 122.496 764.301 M122.496 760.597 Q128.307 760.597 131.362 765.203 Q134.441 769.787 134.441 778.537 Q134.441 787.263 131.362 791.87 Q128.307 796.453 122.496 796.453 Q116.686 796.453 113.608 791.87 Q110.552 787.263 110.552 778.537 Q110.552 769.787 113.608 765.203 Q116.686 760.597 122.496 760.597 Z" fill="#000000" fill-rule="nonzero" fill-opacity="1" /><path clip-path="url(#clip070)" d="M152.658 764.301 Q149.047 764.301 147.218 767.865 Q145.413 771.407 145.413 778.537 Q145.413 785.643 147.218 789.208 Q149.047 792.75 152.658 792.75 Q156.292 792.75 158.098 789.208 Q159.927 785.643 159.927 778.537 Q159.927 771.407 158.098 767.865 Q156.292 764.301 152.658 764.301 M152.658 760.597 Q158.468 760.597 161.524 765.203 Q164.603 769.787 164.603 778.537 Q164.603 787.263 161.524 791.87 Q158.468 796.453 152.658 796.453 Q146.848 796.453 143.769 791.87 Q140.714 787.263 140.714 778.537 Q140.714 769.787 143.769 765.203 Q146.848 760.597 152.658 760.597 Z" fill="#000000" fill-rule="nonzero" fill-opacity="1" /><path clip-path="url(#clip070)" d="M182.82 764.301 Q179.209 764.301 177.38 767.865 Q175.575 771.407 175.575 778.537 Q175.575 785.643 177.38 789.208 Q179.209 792.75 182.82 792.75 Q186.454 792.75 188.26 789.208 Q190.089 785.643 190.089 778.537 Q190.089 771.407 188.26 767.865 Q186.454 764.301 182.82 764.301 M182.82 760.597 Q188.63 760.597 191.686 765.203 Q194.765 769.787 194.765 778.537 Q194.765 787.263 191.686 791.87 Q188.63 796.453 182.82 796.453 Q177.01 796.453 173.931 791.87 Q170.876 787.263 170.876 778.537 Q170.876 769.787 173.931 765.203 Q177.01 760.597 182.82 760.597 Z" fill="#000000" fill-rule="nonzero" fill-opacity="1" /><path clip-path="url(#clip070)" d="M50.9921 509.187 L73.2142 509.187 L73.2142 511.178 L60.668 543.747 L55.7838 543.747 L67.5893 513.122 L50.9921 513.122 L50.9921 509.187 Z" fill="#000000" fill-rule="nonzero" fill-opacity="1" /><path clip-path="url(#clip070)" d="M82.3808 509.187 L100.737 509.187 L100.737 513.122 L86.6632 513.122 L86.6632 521.594 Q87.6817 521.247 88.7003 521.085 Q89.7188 520.9 90.7373 520.9 Q96.5243 520.9 99.9039 524.071 Q103.284 527.242 103.284 532.659 Q103.284 538.238 99.8113 541.34 Q96.3391 544.418 90.0197 544.418 Q87.8438 544.418 85.5753 544.048 Q83.3299 543.677 80.9225 542.937 L80.9225 538.238 Q83.0058 539.372 85.2281 539.927 Q87.4503 540.483 89.9271 540.483 Q93.9317 540.483 96.2697 538.377 Q98.6076 536.27 98.6076 532.659 Q98.6076 529.048 96.2697 526.941 Q93.9317 524.835 89.9271 524.835 Q88.0521 524.835 86.1771 525.252 Q84.3253 525.668 82.3808 526.548 L82.3808 509.187 Z" fill="#000000" fill-rule="nonzero" fill-opacity="1" /><path clip-path="url(#clip070)" d="M122.496 512.266 Q118.885 512.266 117.057 515.83 Q115.251 519.372 115.251 526.502 Q115.251 533.608 117.057 537.173 Q118.885 540.715 122.496 540.715 Q126.131 540.715 127.936 537.173 Q129.765 533.608 129.765 526.502 Q129.765 519.372 127.936 515.83 Q126.131 512.266 122.496 512.266 M122.496 508.562 Q128.307 508.562 131.362 513.168 Q134.441 517.752 134.441 526.502 Q134.441 535.228 131.362 539.835 Q128.307 544.418 122.496 544.418 Q116.686 544.418 113.608 539.835 Q110.552 535.228 110.552 526.502 Q110.552 517.752 113.608 513.168 Q116.686 508.562 122.496 508.562 Z" fill="#000000" fill-rule="nonzero" fill-opacity="1" /><path clip-path="url(#clip070)" d="M152.658 512.266 Q149.047 512.266 147.218 515.83 Q145.413 519.372 145.413 526.502 Q145.413 533.608 147.218 537.173 Q149.047 540.715 152.658 540.715 Q156.292 540.715 158.098 537.173 Q159.927 533.608 159.927 526.502 Q159.927 519.372 158.098 515.83 Q156.292 512.266 152.658 512.266 M152.658 508.562 Q158.468 508.562 161.524 513.168 Q164.603 517.752 164.603 526.502 Q164.603 535.228 161.524 539.835 Q158.468 544.418 152.658 544.418 Q146.848 544.418 143.769 539.835 Q140.714 535.228 140.714 526.502 Q140.714 517.752 143.769 513.168 Q146.848 508.562 152.658 508.562 Z" fill="#000000" fill-rule="nonzero" fill-opacity="1" /><path clip-path="url(#clip070)" d="M182.82 512.266 Q179.209 512.266 177.38 515.83 Q175.575 519.372 175.575 526.502 Q175.575 533.608 177.38 537.173 Q179.209 540.715 182.82 540.715 Q186.454 540.715 188.26 537.173 Q190.089 533.608 190.089 526.502 Q190.089 519.372 188.26 515.83 Q186.454 512.266 182.82 512.266 M182.82 508.562 Q188.63 508.562 191.686 513.168 Q194.765 517.752 194.765 526.502 Q194.765 535.228 191.686 539.835 Q188.63 544.418 182.82 544.418 Q177.01 544.418 173.931 539.835 Q170.876 535.228 170.876 526.502 Q170.876 517.752 173.931 513.168 Q177.01 508.562 182.82 508.562 Z" fill="#000000" fill-rule="nonzero" fill-opacity="1" /><path clip-path="url(#clip070)" d="M50.9921 257.152 L73.2142 257.152 L73.2142 259.143 L60.668 291.712 L55.7838 291.712 L67.5893 261.087 L50.9921 261.087 L50.9921 257.152 Z" fill="#000000" fill-rule="nonzero" fill-opacity="1" /><path clip-path="url(#clip070)" d="M92.9132 272.568 Q89.7651 272.568 87.9132 274.721 Q86.0845 276.874 86.0845 280.624 Q86.0845 284.351 87.9132 286.527 Q89.7651 288.679 92.9132 288.679 Q96.0613 288.679 97.89 286.527 Q99.7419 284.351 99.7419 280.624 Q99.7419 276.874 97.89 274.721 Q96.0613 272.568 92.9132 272.568 M102.196 257.916 L102.196 262.175 Q100.436 261.342 98.6308 260.902 Q96.8484 260.462 95.0891 260.462 Q90.4595 260.462 88.0058 263.587 Q85.5753 266.712 85.2281 273.031 Q86.5938 271.018 88.654 269.953 Q90.7141 268.865 93.191 268.865 Q98.3993 268.865 101.409 272.036 Q104.441 275.184 104.441 280.624 Q104.441 285.948 101.293 289.166 Q98.1447 292.383 92.9132 292.383 Q86.9179 292.383 83.7466 287.8 Q80.5753 283.193 80.5753 274.467 Q80.5753 266.272 84.4642 261.411 Q88.353 256.527 94.9039 256.527 Q96.6632 256.527 98.4456 256.874 Q100.251 257.221 102.196 257.916 Z" fill="#000000" fill-rule="nonzero" fill-opacity="1" /><path clip-path="url(#clip070)" d="M122.496 260.231 Q118.885 260.231 117.057 263.795 Q115.251 267.337 115.251 274.467 Q115.251 281.573 117.057 285.138 Q118.885 288.679 122.496 288.679 Q126.131 288.679 127.936 285.138 Q129.765 281.573 129.765 274.467 Q129.765 267.337 127.936 263.795 Q126.131 260.231 122.496 260.231 M122.496 256.527 Q128.307 256.527 131.362 261.133 Q134.441 265.717 134.441 274.467 Q134.441 283.193 131.362 287.8 Q128.307 292.383 122.496 292.383 Q116.686 292.383 113.608 287.8 Q110.552 283.193 110.552 274.467 Q110.552 265.717 113.608 261.133 Q116.686 256.527 122.496 256.527 Z" fill="#000000" fill-rule="nonzero" fill-opacity="1" /><path clip-path="url(#clip070)" d="M152.658 260.231 Q149.047 260.231 147.218 263.795 Q145.413 267.337 145.413 274.467 Q145.413 281.573 147.218 285.138 Q149.047 288.679 152.658 288.679 Q156.292 288.679 158.098 285.138 Q159.927 281.573 159.927 274.467 Q159.927 267.337 158.098 263.795 Q156.292 260.231 152.658 260.231 M152.658 256.527 Q158.468 256.527 161.524 261.133 Q164.603 265.717 164.603 274.467 Q164.603 283.193 161.524 287.8 Q158.468 292.383 152.658 292.383 Q146.848 292.383 143.769 287.8 Q140.714 283.193 140.714 274.467 Q140.714 265.717 143.769 261.133 Q146.848 256.527 152.658 256.527 Z" fill="#000000" fill-rule="nonzero" fill-opacity="1" /><path clip-path="url(#clip070)" d="M182.82 260.231 Q179.209 260.231 177.38 263.795 Q175.575 267.337 175.575 274.467 Q175.575 281.573 177.38 285.138 Q179.209 288.679 182.82 288.679 Q186.454 288.679 188.26 285.138 Q190.089 281.573 190.089 274.467 Q190.089 267.337 188.26 263.795 Q186.454 260.231 182.82 260.231 M182.82 256.527 Q188.63 256.527 191.686 261.133 Q194.765 265.717 194.765 274.467 Q194.765 283.193 191.686 287.8 Q188.63 292.383 182.82 292.383 Q177.01 292.383 173.931 287.8 Q170.876 283.193 170.876 274.467 Q170.876 265.717 173.931 261.133 Q177.01 256.527 182.82 256.527 Z" fill="#000000" fill-rule="nonzero" fill-opacity="1" /><path clip-path="url(#clip070)" d="M1262.23 35.2602 Q1262.23 29.4732 1259.83 26.2904 Q1257.46 23.1075 1253.15 23.1075 Q1248.86 23.1075 1246.46 26.2904 Q1244.09 29.4732 1244.09 35.2602 Q1244.09 41.0183 1246.46 44.2012 Q1248.86 47.384 1253.15 47.384 Q1257.46 47.384 1259.83 44.2012 Q1262.23 41.0183 1262.23 35.2602 M1267.56 47.818 Q1267.56 56.0934 1263.88 60.1154 Q1260.21 64.1663 1252.63 64.1663 Q1249.82 64.1663 1247.33 63.7323 Q1244.84 63.3272 1242.5 62.4592 L1242.5 57.2798 Q1244.84 58.5529 1247.13 59.1606 Q1249.41 59.7682 1251.79 59.7682 Q1257.02 59.7682 1259.63 57.0194 Q1262.23 54.2995 1262.23 48.7729 L1262.23 46.1398 Q1260.58 49.0044 1258.01 50.4222 Q1255.43 51.84 1251.84 51.84 Q1245.88 51.84 1242.24 47.2972 Q1238.59 42.7544 1238.59 35.2602 Q1238.59 27.7371 1242.24 23.1943 Q1245.88 18.6515 1251.84 18.6515 Q1255.43 18.6515 1258.01 20.0693 Q1260.58 21.4872 1262.23 24.3517 L1262.23 19.4328 L1267.56 19.4328 L1267.56 47.818 Z" fill="#000000" fill-rule="nonzero" fill-opacity="1" /><path clip-path="url(#clip070)" d="M1299.85 24.3517 L1299.85 6.81709 L1305.17 6.81709 L1305.17 51.84 L1299.85 51.84 L1299.85 46.9789 Q1298.17 49.8724 1295.59 51.2902 Q1293.05 52.6791 1289.46 52.6791 Q1283.59 52.6791 1279.88 47.9916 Q1276.21 43.3042 1276.21 35.6653 Q1276.21 28.0265 1279.88 23.339 Q1283.59 18.6515 1289.46 18.6515 Q1293.05 18.6515 1295.59 20.0693 Q1298.17 21.4582 1299.85 24.3517 M1281.71 35.6653 Q1281.71 41.5391 1284.11 44.8956 Q1286.54 48.2231 1290.76 48.2231 Q1294.99 48.2231 1297.42 44.8956 Q1299.85 41.5391 1299.85 35.6653 Q1299.85 29.7915 1297.42 26.464 Q1294.99 23.1075 1290.76 23.1075 Q1286.54 23.1075 1284.11 26.464 Q1281.71 29.7915 1281.71 35.6653 Z" fill="#000000" fill-rule="nonzero" fill-opacity="1" /><path clip-path="url(#clip070)" d="M1321.29 46.9789 L1321.29 64.1663 L1315.94 64.1663 L1315.94 19.4328 L1321.29 19.4328 L1321.29 24.3517 Q1322.97 21.4582 1325.51 20.0693 Q1328.09 18.6515 1331.65 18.6515 Q1337.55 18.6515 1341.22 23.339 Q1344.93 28.0265 1344.93 35.6653 Q1344.93 43.3042 1341.22 47.9916 Q1337.55 52.6791 1331.65 52.6791 Q1328.09 52.6791 1325.51 51.2902 Q1322.97 49.8724 1321.29 46.9789 M1339.4 35.6653 Q1339.4 29.7915 1336.97 26.464 Q1334.57 23.1075 1330.35 23.1075 Q1326.12 23.1075 1323.69 26.464 Q1321.29 29.7915 1321.29 35.6653 Q1321.29 41.5391 1323.69 44.8956 Q1326.12 48.2231 1330.35 48.2231 Q1334.57 48.2231 1336.97 44.8956 Q1339.4 41.5391 1339.4 35.6653 Z" fill="#000000" fill-rule="nonzero" fill-opacity="1" /><polyline clip-path="url(#clip072)" style="stroke:#009af9; stroke-linecap:round; stroke-linejoin:round; stroke-width:4; stroke-opacity:1; fill:none" points="290.821,1176.21 415.938,1342.53 541.056,1221 666.173,1188 791.291,1284.63 916.408,1202.67 1041.53,1437.97 1166.64,1447.38 1291.76,1058.64 1416.88,873.918 1542,874.636 1667.11,863.651 1792.23,805.403 1917.35,276.541 2042.46,195.897 2167.58,206.804 2292.7,145.256 "/>
<path clip-path="url(#clip070)" d="M301.498 255.881 L566.127 255.881 L566.127 152.201 L301.498 152.201  Z" fill="#ffffff" fill-rule="evenodd" fill-opacity="1"/>
<polyline clip-path="url(#clip070)" style="stroke:#000000; stroke-linecap:round; stroke-linejoin:round; stroke-width:4; stroke-opacity:1; fill:none" points="301.498,255.881 566.127,255.881 566.127,152.201 301.498,152.201 301.498,255.881 "/>
<polyline clip-path="url(#clip070)" style="stroke:#009af9; stroke-linecap:round; stroke-linejoin:round; stroke-width:4; stroke-opacity:1; fill:none" points="325.075,204.041 466.541,204.041 "/>
<path clip-path="url(#clip070)" d="M503.962 223.728 Q502.156 228.358 500.443 229.77 Q498.73 231.182 495.86 231.182 L492.457 231.182 L492.457 227.617 L494.957 227.617 Q496.716 227.617 497.688 226.784 Q498.661 225.95 499.841 222.848 L500.605 220.904 L490.119 195.395 L494.633 195.395 L502.735 215.673 L510.836 195.395 L515.35 195.395 L503.962 223.728 Z" fill="#000000" fill-rule="nonzero" fill-opacity="1" /><path clip-path="url(#clip070)" d="M522.642 217.385 L530.281 217.385 L530.281 191.02 L521.971 192.687 L521.971 188.427 L530.235 186.761 L534.91 186.761 L534.91 217.385 L542.549 217.385 L542.549 221.321 L522.642 221.321 L522.642 217.385 Z" fill="#000000" fill-rule="nonzero" fill-opacity="1" /></svg>
