<?xml version="1.0" encoding="utf-8"?>
<svg xmlns="http://www.w3.org/2000/svg" xmlns:xlink="http://www.w3.org/1999/xlink" width="600" height="400" viewBox="0 0 2400 1600">
<defs>
  <clipPath id="clip700">
    <rect x="0" y="0" width="2400" height="1600"/>
  </clipPath>
</defs>
<path clip-path="url(#clip700)" d="M0 1600 L2400 1600 L2400 0 L0 0  Z" fill="#ffffff" fill-rule="evenodd" fill-opacity="1"/>
<defs>
  <clipPath id="clip701">
    <rect x="480" y="0" width="1681" height="1600"/>
  </clipPath>
</defs>
<path clip-path="url(#clip700)" d="M230.765 1486.45 L2352.76 1486.45 L2352.76 106.192 L230.765 106.192  Z" fill="#ffffff" fill-rule="evenodd" fill-opacity="1"/>
<defs>
  <clipPath id="clip702">
    <rect x="230" y="106" width="2123" height="1381"/>
  </clipPath>
</defs>
<polyline clip-path="url(#clip702)" style="stroke:#000000; stroke-linecap:round; stroke-linejoin:round; stroke-width:2; stroke-opacity:0.1; fill:none" points="541.056,1486.45 541.056,106.192 "/>
<polyline clip-path="url(#clip702)" style="stroke:#000000; stroke-linecap:round; stroke-linejoin:round; stroke-width:2; stroke-opacity:0.1; fill:none" points="916.408,1486.45 916.408,106.192 "/>
<polyline clip-path="url(#clip702)" style="stroke:#000000; stroke-linecap:round; stroke-linejoin:round; stroke-width:2; stroke-opacity:0.1; fill:none" points="1291.76,1486.45 1291.76,106.192 "/>
<polyline clip-path="url(#clip702)" style="stroke:#000000; stroke-linecap:round; stroke-linejoin:round; stroke-width:2; stroke-opacity:0.1; fill:none" points="1667.11,1486.45 1667.11,106.192 "/>
<polyline clip-path="url(#clip702)" style="stroke:#000000; stroke-linecap:round; stroke-linejoin:round; stroke-width:2; stroke-opacity:0.1; fill:none" points="2042.46,1486.45 2042.46,106.192 "/>
<polyline clip-path="url(#clip702)" style="stroke:#000000; stroke-linecap:round; stroke-linejoin:round; stroke-width:2; stroke-opacity:0.1; fill:none" points="230.765,1264.96 2352.76,1264.96 "/>
<polyline clip-path="url(#clip702)" style="stroke:#000000; stroke-linecap:round; stroke-linejoin:round; stroke-width:2; stroke-opacity:0.1; fill:none" points="230.765,958.184 2352.76,958.184 "/>
<polyline clip-path="url(#clip702)" style="stroke:#000000; stroke-linecap:round; stroke-linejoin:round; stroke-width:2; stroke-opacity:0.1; fill:none" points="230.765,651.403 2352.76,651.403 "/>
<polyline clip-path="url(#clip702)" style="stroke:#000000; stroke-linecap:round; stroke-linejoin:round; stroke-width:2; stroke-opacity:0.1; fill:none" points="230.765,344.622 2352.76,344.622 "/>
<polyline clip-path="url(#clip700)" style="stroke:#000000; stroke-linecap:round; stroke-linejoin:round; stroke-width:4; stroke-opacity:1; fill:none" points="230.765,1486.45 2352.76,1486.45 "/>
<polyline clip-path="url(#clip700)" style="stroke:#000000; stroke-linecap:round; stroke-linejoin:round; stroke-width:4; stroke-opacity:1; fill:none" points="541.056,1486.45 541.056,1467.55 "/>
<polyline clip-path="url(#clip700)" style="stroke:#000000; stroke-linecap:round; stroke-linejoin:round; stroke-width:4; stroke-opacity:1; fill:none" points="916.408,1486.45 916.408,1467.55 "/>
<polyline clip-path="url(#clip700)" style="stroke:#000000; stroke-linecap:round; stroke-linejoin:round; stroke-width:4; stroke-opacity:1; fill:none" points="1291.76,1486.45 1291.76,1467.55 "/>
<polyline clip-path="url(#clip700)" style="stroke:#000000; stroke-linecap:round; stroke-linejoin:round; stroke-width:4; stroke-opacity:1; fill:none" points="1667.11,1486.45 1667.11,1467.55 "/>
<polyline clip-path="url(#clip700)" style="stroke:#000000; stroke-linecap:round; stroke-linejoin:round; stroke-width:4; stroke-opacity:1; fill:none" points="2042.46,1486.45 2042.46,1467.55 "/>
<path clip-path="url(#clip700)" d="M545.303 1530.21 Q548.66 1530.93 550.535 1533.2 Q552.433 1535.47 552.433 1538.8 Q552.433 1543.92 548.914 1546.72 Q545.396 1549.52 538.915 1549.52 Q536.739 1549.52 534.424 1549.08 Q532.132 1548.66 529.678 1547.81 L529.678 1543.29 Q531.623 1544.43 533.938 1545.01 Q536.252 1545.58 538.776 1545.58 Q543.174 1545.58 545.465 1543.85 Q547.78 1542.11 547.78 1538.8 Q547.78 1535.75 545.627 1534.03 Q543.498 1532.3 539.678 1532.3 L535.651 1532.3 L535.651 1528.45 L539.864 1528.45 Q543.313 1528.45 545.141 1527.09 Q546.97 1525.7 546.97 1523.11 Q546.97 1520.45 545.072 1519.03 Q543.197 1517.6 539.678 1517.6 Q537.757 1517.6 535.558 1518.01 Q533.359 1518.43 530.72 1519.31 L530.72 1515.14 Q533.382 1514.4 535.697 1514.03 Q538.035 1513.66 540.095 1513.66 Q545.419 1513.66 548.521 1516.09 Q551.623 1518.5 551.623 1522.62 Q551.623 1525.49 549.979 1527.48 Q548.336 1529.45 545.303 1530.21 Z" fill="#000000" fill-rule="nonzero" fill-opacity="1" /><path clip-path="url(#clip700)" d="M916.813 1529.7 Q913.665 1529.7 911.813 1531.86 Q909.984 1534.01 909.984 1537.76 Q909.984 1541.49 911.813 1543.66 Q913.665 1545.82 916.813 1545.82 Q919.961 1545.82 921.79 1543.66 Q923.642 1541.49 923.642 1537.76 Q923.642 1534.01 921.79 1531.86 Q919.961 1529.7 916.813 1529.7 M926.095 1515.05 L926.095 1519.31 Q924.336 1518.48 922.531 1518.04 Q920.748 1517.6 918.989 1517.6 Q914.359 1517.6 911.906 1520.72 Q909.475 1523.85 909.128 1530.17 Q910.494 1528.15 912.554 1527.09 Q914.614 1526 917.091 1526 Q922.299 1526 925.308 1529.17 Q928.341 1532.32 928.341 1537.76 Q928.341 1543.08 925.193 1546.3 Q922.044 1549.52 916.813 1549.52 Q910.818 1549.52 907.646 1544.94 Q904.475 1540.33 904.475 1531.6 Q904.475 1523.41 908.364 1518.55 Q912.253 1513.66 918.804 1513.66 Q920.563 1513.66 922.345 1514.01 Q924.151 1514.36 926.095 1515.05 Z" fill="#000000" fill-rule="nonzero" fill-opacity="1" /><path clip-path="url(#clip700)" d="M1282.06 1548.13 L1282.06 1543.87 Q1283.82 1544.7 1285.63 1545.14 Q1287.43 1545.58 1289.17 1545.58 Q1293.8 1545.58 1296.23 1542.48 Q1298.68 1539.36 1299.03 1533.01 Q1297.69 1535.01 1295.63 1536.07 Q1293.57 1537.13 1291.07 1537.13 Q1285.88 1537.13 1282.85 1534.01 Q1279.84 1530.86 1279.84 1525.42 Q1279.84 1520.1 1282.99 1516.88 Q1286.14 1513.66 1291.37 1513.66 Q1297.36 1513.66 1300.51 1518.27 Q1303.68 1522.85 1303.68 1531.6 Q1303.68 1539.77 1299.79 1544.66 Q1295.93 1549.52 1289.38 1549.52 Q1287.62 1549.52 1285.81 1549.17 Q1284.01 1548.82 1282.06 1548.13 M1291.37 1533.48 Q1294.51 1533.48 1296.34 1531.32 Q1298.2 1529.17 1298.2 1525.42 Q1298.2 1521.7 1296.34 1519.54 Q1294.51 1517.37 1291.37 1517.37 Q1288.22 1517.37 1286.37 1519.54 Q1284.54 1521.7 1284.54 1525.42 Q1284.54 1529.17 1286.37 1531.32 Q1288.22 1533.48 1291.37 1533.48 Z" fill="#000000" fill-rule="nonzero" fill-opacity="1" /><path clip-path="url(#clip700)" d="M1642.6 1544.91 L1650.24 1544.91 L1650.24 1518.55 L1641.93 1520.21 L1641.93 1515.95 L1650.19 1514.29 L1654.87 1514.29 L1654.87 1544.91 L1662.51 1544.91 L1662.51 1548.85 L1642.6 1548.85 L1642.6 1544.91 Z" fill="#000000" fill-rule="nonzero" fill-opacity="1" /><path clip-path="url(#clip700)" d="M1675.98 1544.91 L1692.3 1544.91 L1692.3 1548.85 L1670.35 1548.85 L1670.35 1544.91 Q1673.02 1542.16 1677.6 1537.53 Q1682.2 1532.88 1683.39 1531.53 Q1685.63 1529.01 1686.51 1527.27 Q1687.41 1525.51 1687.41 1523.82 Q1687.41 1521.07 1685.47 1519.33 Q1683.55 1517.6 1680.45 1517.6 Q1678.25 1517.6 1675.79 1518.36 Q1673.36 1519.13 1670.58 1520.68 L1670.58 1515.95 Q1673.41 1514.82 1675.86 1514.24 Q1678.32 1513.66 1680.35 1513.66 Q1685.72 1513.66 1688.92 1516.35 Q1692.11 1519.03 1692.11 1523.52 Q1692.11 1525.65 1691.3 1527.57 Q1690.52 1529.47 1688.41 1532.07 Q1687.83 1532.74 1684.73 1535.95 Q1681.63 1539.15 1675.98 1544.91 Z" fill="#000000" fill-rule="nonzero" fill-opacity="1" /><path clip-path="url(#clip700)" d="M2017.65 1544.91 L2025.29 1544.91 L2025.29 1518.55 L2016.98 1520.21 L2016.98 1515.95 L2025.24 1514.29 L2029.92 1514.29 L2029.92 1544.91 L2037.56 1544.91 L2037.56 1548.85 L2017.65 1548.85 L2017.65 1544.91 Z" fill="#000000" fill-rule="nonzero" fill-opacity="1" /><path clip-path="url(#clip700)" d="M2047.05 1514.29 L2065.4 1514.29 L2065.4 1518.22 L2051.33 1518.22 L2051.33 1526.7 Q2052.35 1526.35 2053.37 1526.19 Q2054.39 1526 2055.4 1526 Q2061.19 1526 2064.57 1529.17 Q2067.95 1532.34 2067.95 1537.76 Q2067.95 1543.34 2064.48 1546.44 Q2061.01 1549.52 2054.69 1549.52 Q2052.51 1549.52 2050.24 1549.15 Q2048 1548.78 2045.59 1548.04 L2045.59 1543.34 Q2047.67 1544.47 2049.9 1545.03 Q2052.12 1545.58 2054.59 1545.58 Q2058.6 1545.58 2060.94 1543.48 Q2063.27 1541.37 2063.27 1537.76 Q2063.27 1534.15 2060.94 1532.04 Q2058.6 1529.94 2054.59 1529.94 Q2052.72 1529.94 2050.84 1530.35 Q2048.99 1530.77 2047.05 1531.65 L2047.05 1514.29 Z" fill="#000000" fill-rule="nonzero" fill-opacity="1" /><polyline clip-path="url(#clip700)" style="stroke:#000000; stroke-linecap:round; stroke-linejoin:round; stroke-width:4; stroke-opacity:1; fill:none" points="230.765,1486.45 230.765,106.192 "/>
<polyline clip-path="url(#clip700)" style="stroke:#000000; stroke-linecap:round; stroke-linejoin:round; stroke-width:4; stroke-opacity:1; fill:none" points="230.765,1264.96 249.662,1264.96 "/>
<polyline clip-path="url(#clip700)" style="stroke:#000000; stroke-linecap:round; stroke-linejoin:round; stroke-width:4; stroke-opacity:1; fill:none" points="230.765,958.184 249.662,958.184 "/>
<polyline clip-path="url(#clip700)" style="stroke:#000000; stroke-linecap:round; stroke-linejoin:round; stroke-width:4; stroke-opacity:1; fill:none" points="230.765,651.403 249.662,651.403 "/>
<polyline clip-path="url(#clip700)" style="stroke:#000000; stroke-linecap:round; stroke-linejoin:round; stroke-width:4; stroke-opacity:1; fill:none" points="230.765,344.622 249.662,344.622 "/>
<path clip-path="url(#clip700)" d="M50.9921 1247.68 L73.2142 1247.68 L73.2142 1249.68 L60.668 1282.24 L55.7838 1282.24 L67.5893 1251.62 L50.9921 1251.62 L50.9921 1247.68 Z" fill="#000000" fill-rule="nonzero" fill-opacity="1" /><path clip-path="url(#clip700)" d="M86.3623 1278.31 L102.682 1278.31 L102.682 1282.24 L80.7373 1282.24 L80.7373 1278.31 Q83.3994 1275.55 87.9827 1270.93 Q92.5891 1266.27 93.7697 1264.93 Q96.015 1262.41 96.8947 1260.67 Q97.7974 1258.91 97.7974 1257.22 Q97.7974 1254.47 95.853 1252.73 Q93.9317 1250.99 90.8299 1250.99 Q88.6308 1250.99 86.1771 1251.76 Q83.7466 1252.52 80.9688 1254.07 L80.9688 1249.35 Q83.7929 1248.22 86.2466 1247.64 Q88.7003 1247.06 90.7373 1247.06 Q96.1076 1247.06 99.3021 1249.74 Q102.496 1252.43 102.496 1256.92 Q102.496 1259.05 101.686 1260.97 Q100.899 1262.87 98.7928 1265.46 Q98.2141 1266.13 95.1123 1269.35 Q92.0104 1272.55 86.3623 1278.31 Z" fill="#000000" fill-rule="nonzero" fill-opacity="1" /><path clip-path="url(#clip700)" d="M122.496 1250.76 Q118.885 1250.76 117.057 1254.33 Q115.251 1257.87 115.251 1265 Q115.251 1272.11 117.057 1275.67 Q118.885 1279.21 122.496 1279.21 Q126.131 1279.21 127.936 1275.67 Q129.765 1272.11 129.765 1265 Q129.765 1257.87 127.936 1254.33 Q126.131 1250.76 122.496 1250.76 M122.496 1247.06 Q128.307 1247.06 131.362 1251.67 Q134.441 1256.25 134.441 1265 Q134.441 1273.73 131.362 1278.33 Q128.307 1282.92 122.496 1282.92 Q116.686 1282.92 113.608 1278.33 Q110.552 1273.73 110.552 1265 Q110.552 1256.25 113.608 1251.67 Q116.686 1247.06 122.496 1247.06 Z" fill="#000000" fill-rule="nonzero" fill-opacity="1" /><path clip-path="url(#clip700)" d="M152.658 1250.76 Q149.047 1250.76 147.218 1254.33 Q145.413 1257.87 145.413 1265 Q145.413 1272.11 147.218 1275.67 Q149.047 1279.21 152.658 1279.21 Q156.292 1279.21 158.098 1275.67 Q159.927 1272.11 159.927 1265 Q159.927 1257.87 158.098 1254.33 Q156.292 1250.76 152.658 1250.76 M152.658 1247.06 Q158.468 1247.06 161.524 1251.67 Q164.603 1256.25 164.603 1265 Q164.603 1273.73 161.524 1278.33 Q158.468 1282.92 152.658 1282.92 Q146.848 1282.92 143.769 1278.33 Q140.714 1273.73 140.714 1265 Q140.714 1256.25 143.769 1251.67 Q146.848 1247.06 152.658 1247.06 Z" fill="#000000" fill-rule="nonzero" fill-opacity="1" /><path clip-path="url(#clip700)" d="M182.82 1250.76 Q179.209 1250.76 177.38 1254.33 Q175.575 1257.87 175.575 1265 Q175.575 1272.11 177.38 1275.67 Q179.209 1279.21 182.82 1279.21 Q186.454 1279.21 188.26 1275.67 Q190.089 1272.11 190.089 1265 Q190.089 1257.87 188.26 1254.33 Q186.454 1250.76 182.82 1250.76 M182.82 1247.06 Q188.63 1247.06 191.686 1251.67 Q194.765 1256.25 194.765 1265 Q194.765 1273.73 191.686 1278.33 Q188.63 1282.92 182.82 1282.92 Q177.01 1282.92 173.931 1278.33 Q170.876 1273.73 170.876 1265 Q170.876 1256.25 173.931 1251.67 Q177.01 1247.06 182.82 1247.06 Z" fill="#000000" fill-rule="nonzero" fill-opacity="1" /><path clip-path="url(#clip700)" d="M50.9921 940.904 L73.2142 940.904 L73.2142 942.894 L60.668 975.464 L55.7838 975.464 L67.5893 944.839 L50.9921 944.839 L50.9921 940.904 Z" fill="#000000" fill-rule="nonzero" fill-opacity="1" /><path clip-path="url(#clip700)" d="M86.3623 971.528 L102.682 971.528 L102.682 975.464 L80.7373 975.464 L80.7373 971.528 Q83.3994 968.774 87.9827 964.144 Q92.5891 959.492 93.7697 958.149 Q96.015 955.626 96.8947 953.89 Q97.7974 952.13 97.7974 950.441 Q97.7974 947.686 95.853 945.95 Q93.9317 944.214 90.8299 944.214 Q88.6308 944.214 86.1771 944.978 Q83.7466 945.742 80.9688 947.292 L80.9688 942.57 Q83.7929 941.436 86.2466 940.857 Q88.7003 940.279 90.7373 940.279 Q96.1076 940.279 99.3021 942.964 Q102.496 945.649 102.496 950.14 Q102.496 952.269 101.686 954.191 Q100.899 956.089 98.7928 958.681 Q98.2141 959.353 95.1123 962.57 Q92.0104 965.765 86.3623 971.528 Z" fill="#000000" fill-rule="nonzero" fill-opacity="1" /><path clip-path="url(#clip700)" d="M112.543 940.904 L130.899 940.904 L130.899 944.839 L116.825 944.839 L116.825 953.311 Q117.844 952.964 118.862 952.802 Q119.881 952.617 120.899 952.617 Q126.686 952.617 130.066 955.788 Q133.445 958.959 133.445 964.376 Q133.445 969.954 129.973 973.056 Q126.501 976.135 120.182 976.135 Q118.006 976.135 115.737 975.765 Q113.492 975.394 111.084 974.653 L111.084 969.954 Q113.168 971.089 115.39 971.644 Q117.612 972.2 120.089 972.2 Q124.094 972.2 126.432 970.093 Q128.769 967.987 128.769 964.376 Q128.769 960.765 126.432 958.658 Q124.094 956.552 120.089 956.552 Q118.214 956.552 116.339 956.968 Q114.487 957.385 112.543 958.265 L112.543 940.904 Z" fill="#000000" fill-rule="nonzero" fill-opacity="1" /><path clip-path="url(#clip700)" d="M152.658 943.982 Q149.047 943.982 147.218 947.547 Q145.413 951.089 145.413 958.218 Q145.413 965.325 147.218 968.89 Q149.047 972.431 152.658 972.431 Q156.292 972.431 158.098 968.89 Q159.927 965.325 159.927 958.218 Q159.927 951.089 158.098 947.547 Q156.292 943.982 152.658 943.982 M152.658 940.279 Q158.468 940.279 161.524 944.885 Q164.603 949.468 164.603 958.218 Q164.603 966.945 161.524 971.552 Q158.468 976.135 152.658 976.135 Q146.848 976.135 143.769 971.552 Q140.714 966.945 140.714 958.218 Q140.714 949.468 143.769 944.885 Q146.848 940.279 152.658 940.279 Z" fill="#000000" fill-rule="nonzero" fill-opacity="1" /><path clip-path="url(#clip700)" d="M182.82 943.982 Q179.209 943.982 177.38 947.547 Q175.575 951.089 175.575 958.218 Q175.575 965.325 177.38 968.89 Q179.209 972.431 182.82 972.431 Q186.454 972.431 188.26 968.89 Q190.089 965.325 190.089 958.218 Q190.089 951.089 188.26 947.547 Q186.454 943.982 182.82 943.982 M182.82 940.279 Q188.63 940.279 191.686 944.885 Q194.765 949.468 194.765 958.218 Q194.765 966.945 191.686 971.552 Q188.63 976.135 182.82 976.135 Q177.01 976.135 173.931 971.552 Q170.876 966.945 170.876 958.218 Q170.876 949.468 173.931 944.885 Q177.01 940.279 182.82 940.279 Z" fill="#000000" fill-rule="nonzero" fill-opacity="1" /><path clip-path="url(#clip700)" d="M50.9921 634.123 L73.2142 634.123 L73.2142 636.113 L60.668 668.683 L55.7838 668.683 L67.5893 638.058 L50.9921 638.058 L50.9921 634.123 Z" fill="#000000" fill-rule="nonzero" fill-opacity="1" /><path clip-path="url(#clip700)" d="M96.5011 650.048 Q99.8576 650.766 101.733 653.035 Q103.631 655.303 103.631 658.636 Q103.631 663.752 100.112 666.553 Q96.5937 669.354 90.1123 669.354 Q87.9364 669.354 85.6216 668.914 Q83.3299 668.497 80.8762 667.641 L80.8762 663.127 Q82.8207 664.261 85.1355 664.84 Q87.4503 665.419 89.9734 665.419 Q94.3715 665.419 96.6632 663.683 Q98.978 661.947 98.978 658.636 Q98.978 655.581 96.8252 653.868 Q94.6956 652.132 90.8762 652.132 L86.8484 652.132 L86.8484 648.289 L91.0614 648.289 Q94.5104 648.289 96.3391 646.924 Q98.1678 645.535 98.1678 642.942 Q98.1678 640.28 96.2697 638.868 Q94.3947 637.433 90.8762 637.433 Q88.9549 637.433 86.7558 637.849 Q84.5568 638.266 81.9179 639.146 L81.9179 634.979 Q84.5799 634.238 86.8947 633.868 Q89.2327 633.498 91.2928 633.498 Q96.6169 633.498 99.7187 635.928 Q102.821 638.336 102.821 642.456 Q102.821 645.326 101.177 647.317 Q99.5335 649.285 96.5011 650.048 Z" fill="#000000" fill-rule="nonzero" fill-opacity="1" /><path clip-path="url(#clip700)" d="M122.496 637.201 Q118.885 637.201 117.057 640.766 Q115.251 644.308 115.251 651.437 Q115.251 658.544 117.057 662.109 Q118.885 665.65 122.496 665.65 Q126.131 665.65 127.936 662.109 Q129.765 658.544 129.765 651.437 Q129.765 644.308 127.936 640.766 Q126.131 637.201 122.496 637.201 M122.496 633.498 Q128.307 633.498 131.362 638.104 Q134.441 642.687 134.441 651.437 Q134.441 660.164 131.362 664.771 Q128.307 669.354 122.496 669.354 Q116.686 669.354 113.608 664.771 Q110.552 660.164 110.552 651.437 Q110.552 642.687 113.608 638.104 Q116.686 633.498 122.496 633.498 Z" fill="#000000" fill-rule="nonzero" fill-opacity="1" /><path clip-path="url(#clip700)" d="M152.658 637.201 Q149.047 637.201 147.218 640.766 Q145.413 644.308 145.413 651.437 Q145.413 658.544 147.218 662.109 Q149.047 665.65 152.658 665.65 Q156.292 665.65 158.098 662.109 Q159.927 658.544 159.927 651.437 Q159.927 644.308 158.098 640.766 Q156.292 637.201 152.658 637.201 M152.658 633.498 Q158.468 633.498 161.524 638.104 Q164.603 642.687 164.603 651.437 Q164.603 660.164 161.524 664.771 Q158.468 669.354 152.658 669.354 Q146.848 669.354 143.769 664.771 Q140.714 660.164 140.714 651.437 Q140.714 642.687 143.769 638.104 Q146.848 633.498 152.658 633.498 Z" fill="#000000" fill-rule="nonzero" fill-opacity="1" /><path clip-path="url(#clip700)" d="M182.82 637.201 Q179.209 637.201 177.38 640.766 Q175.575 644.308 175.575 651.437 Q175.575 658.544 177.38 662.109 Q179.209 665.65 182.82 665.65 Q186.454 665.65 188.26 662.109 Q190.089 658.544 190.089 651.437 Q190.089 644.308 188.26 640.766 Q186.454 637.201 182.82 637.201 M182.82 633.498 Q188.63 633.498 191.686 638.104 Q194.765 642.687 194.765 651.437 Q194.765 660.164 191.686 664.771 Q188.63 669.354 182.82 669.354 Q177.01 669.354 173.931 664.771 Q170.876 660.164 170.876 651.437 Q170.876 642.687 173.931 638.104 Q177.01 633.498 182.82 633.498 Z" fill="#000000" fill-rule="nonzero" fill-opacity="1" /><path clip-path="url(#clip700)" d="M50.9921 327.342 L73.2142 327.342 L73.2142 329.332 L60.668 361.902 L55.7838 361.902 L67.5893 331.277 L50.9921 331.277 L50.9921 327.342 Z" fill="#000000" fill-rule="nonzero" fill-opacity="1" /><path clip-path="url(#clip700)" d="M96.5011 343.267 Q99.8576 343.985 101.733 346.254 Q103.631 348.522 103.631 351.855 Q103.631 356.971 100.112 359.772 Q96.5937 362.573 90.1123 362.573 Q87.9364 362.573 85.6216 362.133 Q83.3299 361.716 80.8762 360.86 L80.8762 356.346 Q82.8207 357.48 85.1355 358.059 Q87.4503 358.638 89.9734 358.638 Q94.3715 358.638 96.6632 356.902 Q98.978 355.166 98.978 351.855 Q98.978 348.8 96.8252 347.087 Q94.6956 345.351 90.8762 345.351 L86.8484 345.351 L86.8484 341.508 L91.0614 341.508 Q94.5104 341.508 96.3391 340.143 Q98.1678 338.754 98.1678 336.161 Q98.1678 333.499 96.2697 332.087 Q94.3947 330.652 90.8762 330.652 Q88.9549 330.652 86.7558 331.068 Q84.5568 331.485 81.9179 332.365 L81.9179 328.198 Q84.5799 327.457 86.8947 327.087 Q89.2327 326.717 91.2928 326.717 Q96.6169 326.717 99.7187 329.147 Q102.821 331.555 102.821 335.675 Q102.821 338.545 101.177 340.536 Q99.5335 342.504 96.5011 343.267 Z" fill="#000000" fill-rule="nonzero" fill-opacity="1" /><path clip-path="url(#clip700)" d="M112.543 327.342 L130.899 327.342 L130.899 331.277 L116.825 331.277 L116.825 339.749 Q117.844 339.402 118.862 339.24 Q119.881 339.055 120.899 339.055 Q126.686 339.055 130.066 342.226 Q133.445 345.397 133.445 350.814 Q133.445 356.392 129.973 359.494 Q126.501 362.573 120.182 362.573 Q118.006 362.573 115.737 362.203 Q113.492 361.832 111.084 361.091 L111.084 356.392 Q113.168 357.527 115.39 358.082 Q117.612 358.638 120.089 358.638 Q124.094 358.638 126.432 356.531 Q128.769 354.425 128.769 350.814 Q128.769 347.203 126.432 345.096 Q124.094 342.99 120.089 342.99 Q118.214 342.99 116.339 343.406 Q114.487 343.823 112.543 344.703 L112.543 327.342 Z" fill="#000000" fill-rule="nonzero" fill-opacity="1" /><path clip-path="url(#clip700)" d="M152.658 330.42 Q149.047 330.42 147.218 333.985 Q145.413 337.527 145.413 344.656 Q145.413 351.763 147.218 355.328 Q149.047 358.869 152.658 358.869 Q156.292 358.869 158.098 355.328 Q159.927 351.763 159.927 344.656 Q159.927 337.527 158.098 333.985 Q156.292 330.42 152.658 330.42 M152.658 326.717 Q158.468 326.717 161.524 331.323 Q164.603 335.906 164.603 344.656 Q164.603 353.383 161.524 357.99 Q158.468 362.573 152.658 362.573 Q146.848 362.573 143.769 357.99 Q140.714 353.383 140.714 344.656 Q140.714 335.906 143.769 331.323 Q146.848 326.717 152.658 326.717 Z" fill="#000000" fill-rule="nonzero" fill-opacity="1" /><path clip-path="url(#clip700)" d="M182.82 330.42 Q179.209 330.42 177.38 333.985 Q175.575 337.527 175.575 344.656 Q175.575 351.763 177.38 355.328 Q179.209 358.869 182.82 358.869 Q186.454 358.869 188.26 355.328 Q190.089 351.763 190.089 344.656 Q190.089 337.527 188.26 333.985 Q186.454 330.42 182.82 330.42 M182.82 326.717 Q188.63 326.717 191.686 331.323 Q194.765 335.906 194.765 344.656 Q194.765 353.383 191.686 357.99 Q188.63 362.573 182.82 362.573 Q177.01 362.573 173.931 357.99 Q170.876 353.383 170.876 344.656 Q170.876 335.906 173.931 331.323 Q177.01 326.717 182.82 326.717 Z" fill="#000000" fill-rule="nonzero" fill-opacity="1" /><path clip-path="url(#clip700)" d="M1262.23 35.2602 Q1262.23 29.4732 1259.83 26.2904 Q1257.46 23.1075 1253.15 23.1075 Q1248.86 23.1075 1246.46 26.2904 Q1244.09 29.4732 1244.09 35.2602 Q1244.09 41.0183 1246.46 44.2012 Q1248.86 47.384 1253.15 47.384 Q1257.46 47.384 1259.83 44.2012 Q1262.23 41.0183 1262.23 35.2602 M1267.56 47.818 Q1267.56 56.0934 1263.88 60.1154 Q1260.21 64.1663 1252.63 64.1663 Q1249.82 64.1663 1247.33 63.7323 Q1244.84 63.3272 1242.5 62.4592 L1242.5 57.2798 Q1244.84 58.5529 1247.13 59.1606 Q1249.41 59.7682 1251.79 59.7682 Q1257.02 59.7682 1259.63 57.0194 Q1262.23 54.2995 1262.23 48.7729 L1262.23 46.1398 Q1260.58 49.0044 1258.01 50.4222 Q1255.43 51.84 1251.84 51.84 Q1245.88 51.84 1242.24 47.2972 Q1238.59 42.7544 1238.59 35.2602 Q1238.59 27.7371 1242.24 23.1943 Q1245.88 18.6515 1251.84 18.6515 Q1255.43 18.6515 1258.01 20.0693 Q1260.58 21.4872 1262.23 24.3517 L1262.23 19.4328 L1267.56 19.4328 L1267.56 47.818 Z" fill="#000000" fill-rule="nonzero" fill-opacity="1" /><path clip-path="url(#clip700)" d="M1299.85 24.3517 L1299.85 6.81709 L1305.17 6.81709 L1305.17 51.84 L1299.85 51.84 L1299.85 46.9789 Q1298.17 49.8724 1295.59 51.2902 Q1293.05 52.6791 1289.46 52.6791 Q1283.59 52.6791 1279.88 47.9916 Q1276.21 43.3042 1276.21 35.6653 Q1276.21 28.0265 1279.88 23.339 Q1283.59 18.6515 1289.46 18.6515 Q1293.05 18.6515 1295.59 20.0693 Q1298.17 21.4582 1299.85 24.3517 M1281.71 35.6653 Q1281.71 41.5391 1284.11 44.8956 Q1286.54 48.2231 1290.76 48.2231 Q1294.99 48.2231 1297.42 44.8956 Q1299.85 41.5391 1299.85 35.6653 Q1299.85 29.7915 1297.42 26.464 Q1294.99 23.1075 1290.76 23.1075 Q1286.54 23.1075 1284.11 26.464 Q1281.71 29.7915 1281.71 35.6653 Z" fill="#000000" fill-rule="nonzero" fill-opacity="1" /><path clip-path="url(#clip700)" d="M1321.29 46.9789 L1321.29 64.1663 L1315.94 64.1663 L1315.94 19.4328 L1321.29 19.4328 L1321.29 24.3517 Q1322.97 21.4582 1325.51 20.0693 Q1328.09 18.6515 1331.65 18.6515 Q1337.55 18.6515 1341.22 23.339 Q1344.93 28.0265 1344.93 35.6653 Q1344.93 43.3042 1341.22 47.9916 Q1337.55 52.6791 1331.65 52.6791 Q1328.09 52.6791 1325.51 51.2902 Q1322.97 49.8724 1321.29 46.9789 M1339.4 35.6653 Q1339.4 29.7915 1336.97 26.464 Q1334.57 23.1075 1330.35 23.1075 Q1326.12 23.1075 1323.69 26.464 Q1321.29 29.7915 1321.29 35.6653 Q1321.29 41.5391 1323.69 44.8956 Q1326.12 48.2231 1330.35 48.2231 Q1334.57 48.2231 1336.97 44.8956 Q1339.4 41.5391 1339.4 35.6653 Z" fill="#000000" fill-rule="nonzero" fill-opacity="1" /><polyline clip-path="url(#clip702)" style="stroke:#009af9; stroke-linecap:round; stroke-linejoin:round; stroke-width:4; stroke-opacity:1; fill:none" points="290.821,1006.04 415.938,783.012 541.056,549.383 666.173,145.256 791.291,199.512 916.408,812.923 1041.53,453.957 1166.64,624.172 1291.76,919.423 1416.88,928.727 1542,1070.36 1667.11,1021.65 1792.23,1447.38 1917.35,1230.09 2042.46,1178.3 2167.58,1055.24 2292.7,631.538 "/>
<path clip-path="url(#clip700)" d="M2017.39 255.881 L2282.02 255.881 L2282.02 152.201 L2017.39 152.201  Z" fill="#ffffff" fill-rule="evenodd" fill-opacity="1"/>
<polyline clip-path="url(#clip700)" style="stroke:#000000; stroke-linecap:round; stroke-linejoin:round; stroke-width:4; stroke-opacity:1; fill:none" points="2017.39,255.881 2282.02,255.881 2282.02,152.201 2017.39,152.201 2017.39,255.881 "/>
<polyline clip-path="url(#clip700)" style="stroke:#009af9; stroke-linecap:round; stroke-linejoin:round; stroke-width:4; stroke-opacity:1; fill:none" points="2040.97,204.041 2182.44,204.041 "/>
<path clip-path="url(#clip700)" d="M2219.86 223.728 Q2218.05 228.358 2216.34 229.77 Q2214.63 231.182 2211.76 231.182 L2208.35 231.182 L2208.35 227.617 L2210.85 227.617 Q2212.61 227.617 2213.58 226.784 Q2214.56 225.95 2215.74 222.848 L2216.5 220.904 L2206.01 195.395 L2210.53 195.395 L2218.63 215.673 L2226.73 195.395 L2231.25 195.395 L2219.86 223.728 Z" fill="#000000" fill-rule="nonzero" fill-opacity="1" /><path clip-path="url(#clip700)" d="M2238.54 217.385 L2246.18 217.385 L2246.18 191.02 L2237.87 192.687 L2237.87 188.427 L2246.13 186.761 L2250.81 186.761 L2250.81 217.385 L2258.45 217.385 L2258.45 221.321 L2238.54 221.321 L2238.54 217.385 Z" fill="#000000" fill-rule="nonzero" fill-opacity="1" /></svg>
