<?xml version="1.0" encoding="utf-8"?>
<svg xmlns="http://www.w3.org/2000/svg" xmlns:xlink="http://www.w3.org/1999/xlink" width="600" height="300" viewBox="0 0 2400 1200">
<defs>
  <clipPath id="clip130">
    <rect x="0" y="0" width="2400" height="1200"/>
  </clipPath>
</defs>
<path clip-path="url(#clip130)" d="M0 1200 L2400 1200 L2400 0 L0 0  Z" fill="#ffffff" fill-rule="evenodd" fill-opacity="1"/>
<defs>
  <clipPath id="clip131">
    <rect x="480" y="0" width="1681" height="1200"/>
  </clipPath>
</defs>
<path clip-path="url(#clip130)" d="M216.436 1099.09 L1153.8 1099.09 L1153.8 92.1521 L216.436 92.1521  Z" fill="#ffffff" fill-rule="evenodd" fill-opacity="1"/>
<defs>
  <clipPath id="clip132">
    <rect x="216" y="92" width="938" height="1008"/>
  </clipPath>
</defs>
<polyline clip-path="url(#clip132)" style="stroke:#000000; stroke-linecap:round; stroke-linejoin:round; stroke-width:2; stroke-opacity:0.1; fill:none" points="411.404,1099.09 411.404,92.1521 "/>
<polyline clip-path="url(#clip132)" style="stroke:#000000; stroke-linecap:round; stroke-linejoin:round; stroke-width:2; stroke-opacity:0.1; fill:none" points="621.952,1099.09 621.952,92.1521 "/>
<polyline clip-path="url(#clip132)" style="stroke:#000000; stroke-linecap:round; stroke-linejoin:round; stroke-width:2; stroke-opacity:0.1; fill:none" points="832.501,1099.09 832.501,92.1521 "/>
<polyline clip-path="url(#clip132)" style="stroke:#000000; stroke-linecap:round; stroke-linejoin:round; stroke-width:2; stroke-opacity:0.1; fill:none" points="1043.05,1099.09 1043.05,92.1521 "/>
<polyline clip-path="url(#clip132)" style="stroke:#000000; stroke-linecap:round; stroke-linejoin:round; stroke-width:2; stroke-opacity:0.1; fill:none" points="216.436,1086.29 1153.8,1086.29 "/>
<polyline clip-path="url(#clip132)" style="stroke:#000000; stroke-linecap:round; stroke-linejoin:round; stroke-width:2; stroke-opacity:0.1; fill:none" points="216.436,844.88 1153.8,844.88 "/>
<polyline clip-path="url(#clip132)" style="stroke:#000000; stroke-linecap:round; stroke-linejoin:round; stroke-width:2; stroke-opacity:0.1; fill:none" points="216.436,603.47 1153.8,603.47 "/>
<polyline clip-path="url(#clip132)" style="stroke:#000000; stroke-linecap:round; stroke-linejoin:round; stroke-width:2; stroke-opacity:0.1; fill:none" points="216.436,362.06 1153.8,362.06 "/>
<polyline clip-path="url(#clip132)" style="stroke:#000000; stroke-linecap:round; stroke-linejoin:round; stroke-width:2; stroke-opacity:0.1; fill:none" points="216.436,120.65 1153.8,120.65 "/>
<polyline clip-path="url(#clip130)" style="stroke:#000000; stroke-linecap:round; stroke-linejoin:round; stroke-width:4; stroke-opacity:1; fill:none" points="216.436,1099.09 1153.8,1099.09 "/>
<polyline clip-path="url(#clip130)" style="stroke:#000000; stroke-linecap:round; stroke-linejoin:round; stroke-width:4; stroke-opacity:1; fill:none" points="411.404,1099.09 411.404,1080.19 "/>
<polyline clip-path="url(#clip130)" style="stroke:#000000; stroke-linecap:round; stroke-linejoin:round; stroke-width:4; stroke-opacity:1; fill:none" points="621.952,1099.09 621.952,1080.19 "/>
<polyline clip-path="url(#clip130)" style="stroke:#000000; stroke-linecap:round; stroke-linejoin:round; stroke-width:4; stroke-opacity:1; fill:none" points="832.501,1099.09 832.501,1080.19 "/>
<polyline clip-path="url(#clip130)" style="stroke:#000000; stroke-linecap:round; stroke-linejoin:round; stroke-width:4; stroke-opacity:1; fill:none" points="1043.05,1099.09 1043.05,1080.19 "/>
<path clip-path="url(#clip130)" d="M401.682 1126.93 L420.038 1126.93 L420.038 1130.86 L405.964 1130.86 L405.964 1139.34 Q406.982 1138.99 408.001 1138.83 Q409.019 1138.64 410.038 1138.64 Q415.825 1138.64 419.205 1141.81 Q422.584 1144.98 422.584 1150.4 Q422.584 1155.98 419.112 1159.08 Q415.64 1162.16 409.32 1162.16 Q407.145 1162.16 404.876 1161.79 Q402.631 1161.42 400.223 1160.68 L400.223 1155.98 Q402.307 1157.11 404.529 1157.67 Q406.751 1158.22 409.228 1158.22 Q413.232 1158.22 415.57 1156.12 Q417.908 1154.01 417.908 1150.4 Q417.908 1146.79 415.57 1144.68 Q413.232 1142.58 409.228 1142.58 Q407.353 1142.58 405.478 1142.99 Q403.626 1143.41 401.682 1144.29 L401.682 1126.93 Z" fill="#000000" fill-rule="nonzero" fill-opacity="1" /><path clip-path="url(#clip130)" d="M596.64 1157.55 L604.279 1157.55 L604.279 1131.19 L595.969 1132.85 L595.969 1128.59 L604.232 1126.93 L608.908 1126.93 L608.908 1157.55 L616.547 1157.55 L616.547 1161.49 L596.64 1161.49 L596.64 1157.55 Z" fill="#000000" fill-rule="nonzero" fill-opacity="1" /><path clip-path="url(#clip130)" d="M635.991 1130.01 Q632.38 1130.01 630.552 1133.57 Q628.746 1137.11 628.746 1144.24 Q628.746 1151.35 630.552 1154.91 Q632.38 1158.46 635.991 1158.46 Q639.626 1158.46 641.431 1154.91 Q643.26 1151.35 643.26 1144.24 Q643.26 1137.11 641.431 1133.57 Q639.626 1130.01 635.991 1130.01 M635.991 1126.3 Q641.802 1126.3 644.857 1130.91 Q647.936 1135.49 647.936 1144.24 Q647.936 1152.97 644.857 1157.58 Q641.802 1162.16 635.991 1162.16 Q630.181 1162.16 627.103 1157.58 Q624.047 1152.97 624.047 1144.24 Q624.047 1135.49 627.103 1130.91 Q630.181 1126.3 635.991 1126.3 Z" fill="#000000" fill-rule="nonzero" fill-opacity="1" /><path clip-path="url(#clip130)" d="M807.686 1157.55 L815.325 1157.55 L815.325 1131.19 L807.015 1132.85 L807.015 1128.59 L815.279 1126.93 L819.954 1126.93 L819.954 1157.55 L827.593 1157.55 L827.593 1161.49 L807.686 1161.49 L807.686 1157.55 Z" fill="#000000" fill-rule="nonzero" fill-opacity="1" /><path clip-path="url(#clip130)" d="M837.084 1126.93 L855.44 1126.93 L855.44 1130.86 L841.366 1130.86 L841.366 1139.34 Q842.385 1138.99 843.403 1138.83 Q844.422 1138.64 845.44 1138.64 Q851.227 1138.64 854.607 1141.81 Q857.987 1144.98 857.987 1150.4 Q857.987 1155.98 854.514 1159.08 Q851.042 1162.16 844.723 1162.16 Q842.547 1162.16 840.278 1161.79 Q838.033 1161.42 835.626 1160.68 L835.626 1155.98 Q837.709 1157.11 839.931 1157.67 Q842.153 1158.22 844.63 1158.22 Q848.635 1158.22 850.973 1156.12 Q853.311 1154.01 853.311 1150.4 Q853.311 1146.79 850.973 1144.68 Q848.635 1142.58 844.63 1142.58 Q842.755 1142.58 840.88 1142.99 Q839.028 1143.41 837.084 1144.29 L837.084 1126.93 Z" fill="#000000" fill-rule="nonzero" fill-opacity="1" /><path clip-path="url(#clip130)" d="M1021.82 1157.55 L1038.14 1157.55 L1038.14 1161.49 L1016.2 1161.49 L1016.2 1157.55 Q1018.86 1154.8 1023.44 1150.17 Q1028.05 1145.52 1029.23 1144.17 Q1031.48 1141.65 1032.35 1139.91 Q1033.26 1138.15 1033.26 1136.46 Q1033.26 1133.71 1031.31 1131.97 Q1029.39 1130.24 1026.29 1130.24 Q1024.09 1130.24 1021.64 1131 Q1019.21 1131.77 1016.43 1133.32 L1016.43 1128.59 Q1019.25 1127.46 1021.71 1126.88 Q1024.16 1126.3 1026.2 1126.3 Q1031.57 1126.3 1034.76 1128.99 Q1037.96 1131.67 1037.96 1136.16 Q1037.96 1138.29 1037.15 1140.21 Q1036.36 1142.11 1034.25 1144.71 Q1033.67 1145.38 1030.57 1148.59 Q1027.47 1151.79 1021.82 1157.55 Z" fill="#000000" fill-rule="nonzero" fill-opacity="1" /><path clip-path="url(#clip130)" d="M1057.96 1130.01 Q1054.35 1130.01 1052.52 1133.57 Q1050.71 1137.11 1050.71 1144.24 Q1050.71 1151.35 1052.52 1154.91 Q1054.35 1158.46 1057.96 1158.46 Q1061.59 1158.46 1063.4 1154.91 Q1065.22 1151.35 1065.22 1144.24 Q1065.22 1137.11 1063.4 1133.57 Q1061.59 1130.01 1057.96 1130.01 M1057.96 1126.3 Q1063.77 1126.3 1066.82 1130.91 Q1069.9 1135.49 1069.9 1144.24 Q1069.9 1152.97 1066.82 1157.58 Q1063.77 1162.16 1057.96 1162.16 Q1052.15 1162.16 1049.07 1157.58 Q1046.01 1152.97 1046.01 1144.24 Q1046.01 1135.49 1049.07 1130.91 Q1052.15 1126.3 1057.96 1126.3 Z" fill="#000000" fill-rule="nonzero" fill-opacity="1" /><polyline clip-path="url(#clip130)" style="stroke:#000000; stroke-linecap:round; stroke-linejoin:round; stroke-width:4; stroke-opacity:1; fill:none" points="216.436,1099.09 216.436,92.1521 "/>
<polyline clip-path="url(#clip130)" style="stroke:#000000; stroke-linecap:round; stroke-linejoin:round; stroke-width:4; stroke-opacity:1; fill:none" points="216.436,1086.29 235.334,1086.29 "/>
<polyline clip-path="url(#clip130)" style="stroke:#000000; stroke-linecap:round; stroke-linejoin:round; stroke-width:4; stroke-opacity:1; fill:none" points="216.436,844.88 235.334,844.88 "/>
<polyline clip-path="url(#clip130)" style="stroke:#000000; stroke-linecap:round; stroke-linejoin:round; stroke-width:4; stroke-opacity:1; fill:none" points="216.436,603.47 235.334,603.47 "/>
<polyline clip-path="url(#clip130)" style="stroke:#000000; stroke-linecap:round; stroke-linejoin:round; stroke-width:4; stroke-opacity:1; fill:none" points="216.436,362.06 235.334,362.06 "/>
<polyline clip-path="url(#clip130)" style="stroke:#000000; stroke-linecap:round; stroke-linejoin:round; stroke-width:4; stroke-opacity:1; fill:none" points="216.436,120.65 235.334,120.65 "/>
<path clip-path="url(#clip130)" d="M62.9365 1072.09 Q59.3254 1072.09 57.4967 1075.65 Q55.6912 1079.19 55.6912 1086.32 Q55.6912 1093.43 57.4967 1097 Q59.3254 1100.54 62.9365 1100.54 Q66.5707 1100.54 68.3763 1097 Q70.205 1093.43 70.205 1086.32 Q70.205 1079.19 68.3763 1075.65 Q66.5707 1072.09 62.9365 1072.09 M62.9365 1068.38 Q68.7467 1068.38 71.8022 1072.99 Q74.8809 1077.57 74.8809 1086.32 Q74.8809 1095.05 71.8022 1099.66 Q68.7467 1104.24 62.9365 1104.24 Q57.1264 1104.24 54.0477 1099.66 Q50.9921 1095.05 50.9921 1086.32 Q50.9921 1077.57 54.0477 1072.99 Q57.1264 1068.38 62.9365 1068.38 Z" fill="#000000" fill-rule="nonzero" fill-opacity="1" /><path clip-path="url(#clip130)" d="M83.0984 1097.69 L87.9827 1097.69 L87.9827 1103.57 L83.0984 1103.57 L83.0984 1097.69 Z" fill="#000000" fill-rule="nonzero" fill-opacity="1" /><path clip-path="url(#clip130)" d="M108.168 1072.09 Q104.557 1072.09 102.728 1075.65 Q100.922 1079.19 100.922 1086.32 Q100.922 1093.43 102.728 1097 Q104.557 1100.54 108.168 1100.54 Q111.802 1100.54 113.608 1097 Q115.436 1093.43 115.436 1086.32 Q115.436 1079.19 113.608 1075.65 Q111.802 1072.09 108.168 1072.09 M108.168 1068.38 Q113.978 1068.38 117.033 1072.99 Q120.112 1077.57 120.112 1086.32 Q120.112 1095.05 117.033 1099.66 Q113.978 1104.24 108.168 1104.24 Q102.358 1104.24 99.2789 1099.66 Q96.2234 1095.05 96.2234 1086.32 Q96.2234 1077.57 99.2789 1072.99 Q102.358 1068.38 108.168 1068.38 Z" fill="#000000" fill-rule="nonzero" fill-opacity="1" /><path clip-path="url(#clip130)" d="M138.33 1072.09 Q134.719 1072.09 132.89 1075.65 Q131.084 1079.19 131.084 1086.32 Q131.084 1093.43 132.89 1097 Q134.719 1100.54 138.33 1100.54 Q141.964 1100.54 143.769 1097 Q145.598 1093.43 145.598 1086.32 Q145.598 1079.19 143.769 1075.65 Q141.964 1072.09 138.33 1072.09 M138.33 1068.38 Q144.14 1068.38 147.195 1072.99 Q150.274 1077.57 150.274 1086.32 Q150.274 1095.05 147.195 1099.66 Q144.14 1104.24 138.33 1104.24 Q132.519 1104.24 129.441 1099.66 Q126.385 1095.05 126.385 1086.32 Q126.385 1077.57 129.441 1072.99 Q132.519 1068.38 138.33 1068.38 Z" fill="#000000" fill-rule="nonzero" fill-opacity="1" /><path clip-path="url(#clip130)" d="M168.491 1072.09 Q164.88 1072.09 163.052 1075.65 Q161.246 1079.19 161.246 1086.32 Q161.246 1093.43 163.052 1097 Q164.88 1100.54 168.491 1100.54 Q172.126 1100.54 173.931 1097 Q175.76 1093.43 175.76 1086.32 Q175.76 1079.19 173.931 1075.65 Q172.126 1072.09 168.491 1072.09 M168.491 1068.38 Q174.302 1068.38 177.357 1072.99 Q180.436 1077.57 180.436 1086.32 Q180.436 1095.05 177.357 1099.66 Q174.302 1104.24 168.491 1104.24 Q162.681 1104.24 159.603 1099.66 Q156.547 1095.05 156.547 1086.32 Q156.547 1077.57 159.603 1072.99 Q162.681 1068.38 168.491 1068.38 Z" fill="#000000" fill-rule="nonzero" fill-opacity="1" /><path clip-path="url(#clip130)" d="M63.9319 830.678 Q60.3208 830.678 58.4921 834.243 Q56.6865 837.785 56.6865 844.914 Q56.6865 852.021 58.4921 855.586 Q60.3208 859.127 63.9319 859.127 Q67.5661 859.127 69.3717 855.586 Q71.2004 852.021 71.2004 844.914 Q71.2004 837.785 69.3717 834.243 Q67.5661 830.678 63.9319 830.678 M63.9319 826.975 Q69.742 826.975 72.7976 831.581 Q75.8763 836.164 75.8763 844.914 Q75.8763 853.641 72.7976 858.248 Q69.742 862.831 63.9319 862.831 Q58.1217 862.831 55.043 858.248 Q51.9875 853.641 51.9875 844.914 Q51.9875 836.164 55.043 831.581 Q58.1217 826.975 63.9319 826.975 Z" fill="#000000" fill-rule="nonzero" fill-opacity="1" /><path clip-path="url(#clip130)" d="M84.0938 856.28 L88.978 856.28 L88.978 862.16 L84.0938 862.16 L84.0938 856.28 Z" fill="#000000" fill-rule="nonzero" fill-opacity="1" /><path clip-path="url(#clip130)" d="M109.163 830.678 Q105.552 830.678 103.723 834.243 Q101.918 837.785 101.918 844.914 Q101.918 852.021 103.723 855.586 Q105.552 859.127 109.163 859.127 Q112.797 859.127 114.603 855.586 Q116.432 852.021 116.432 844.914 Q116.432 837.785 114.603 834.243 Q112.797 830.678 109.163 830.678 M109.163 826.975 Q114.973 826.975 118.029 831.581 Q121.107 836.164 121.107 844.914 Q121.107 853.641 118.029 858.248 Q114.973 862.831 109.163 862.831 Q103.353 862.831 100.274 858.248 Q97.2187 853.641 97.2187 844.914 Q97.2187 836.164 100.274 831.581 Q103.353 826.975 109.163 826.975 Z" fill="#000000" fill-rule="nonzero" fill-opacity="1" /><path clip-path="url(#clip130)" d="M139.325 830.678 Q135.714 830.678 133.885 834.243 Q132.08 837.785 132.08 844.914 Q132.08 852.021 133.885 855.586 Q135.714 859.127 139.325 859.127 Q142.959 859.127 144.765 855.586 Q146.593 852.021 146.593 844.914 Q146.593 837.785 144.765 834.243 Q142.959 830.678 139.325 830.678 M139.325 826.975 Q145.135 826.975 148.191 831.581 Q151.269 836.164 151.269 844.914 Q151.269 853.641 148.191 858.248 Q145.135 862.831 139.325 862.831 Q133.515 862.831 130.436 858.248 Q127.381 853.641 127.381 844.914 Q127.381 836.164 130.436 831.581 Q133.515 826.975 139.325 826.975 Z" fill="#000000" fill-rule="nonzero" fill-opacity="1" /><path clip-path="url(#clip130)" d="M159.533 827.6 L177.89 827.6 L177.89 831.535 L163.816 831.535 L163.816 840.007 Q164.834 839.66 165.853 839.498 Q166.871 839.313 167.89 839.313 Q173.677 839.313 177.056 842.484 Q180.436 845.655 180.436 851.072 Q180.436 856.65 176.964 859.752 Q173.491 862.831 167.172 862.831 Q164.996 862.831 162.728 862.461 Q160.482 862.09 158.075 861.349 L158.075 856.65 Q160.158 857.785 162.38 858.34 Q164.603 858.896 167.079 858.896 Q171.084 858.896 173.422 856.789 Q175.76 854.683 175.76 851.072 Q175.76 847.461 173.422 845.354 Q171.084 843.248 167.079 843.248 Q165.204 843.248 163.329 843.664 Q161.478 844.081 159.533 844.961 L159.533 827.6 Z" fill="#000000" fill-rule="nonzero" fill-opacity="1" /><path clip-path="url(#clip130)" d="M62.9365 589.269 Q59.3254 589.269 57.4967 592.833 Q55.6912 596.375 55.6912 603.505 Q55.6912 610.611 57.4967 614.176 Q59.3254 617.717 62.9365 617.717 Q66.5707 617.717 68.3763 614.176 Q70.205 610.611 70.205 603.505 Q70.205 596.375 68.3763 592.833 Q66.5707 589.269 62.9365 589.269 M62.9365 585.565 Q68.7467 585.565 71.8022 590.171 Q74.8809 594.755 74.8809 603.505 Q74.8809 612.231 71.8022 616.838 Q68.7467 621.421 62.9365 621.421 Q57.1264 621.421 54.0477 616.838 Q50.9921 612.231 50.9921 603.505 Q50.9921 594.755 54.0477 590.171 Q57.1264 585.565 62.9365 585.565 Z" fill="#000000" fill-rule="nonzero" fill-opacity="1" /><path clip-path="url(#clip130)" d="M83.0984 614.87 L87.9827 614.87 L87.9827 620.75 L83.0984 620.75 L83.0984 614.87 Z" fill="#000000" fill-rule="nonzero" fill-opacity="1" /><path clip-path="url(#clip130)" d="M108.168 589.269 Q104.557 589.269 102.728 592.833 Q100.922 596.375 100.922 603.505 Q100.922 610.611 102.728 614.176 Q104.557 617.717 108.168 617.717 Q111.802 617.717 113.608 614.176 Q115.436 610.611 115.436 603.505 Q115.436 596.375 113.608 592.833 Q111.802 589.269 108.168 589.269 M108.168 585.565 Q113.978 585.565 117.033 590.171 Q120.112 594.755 120.112 603.505 Q120.112 612.231 117.033 616.838 Q113.978 621.421 108.168 621.421 Q102.358 621.421 99.2789 616.838 Q96.2234 612.231 96.2234 603.505 Q96.2234 594.755 99.2789 590.171 Q102.358 585.565 108.168 585.565 Z" fill="#000000" fill-rule="nonzero" fill-opacity="1" /><path clip-path="url(#clip130)" d="M129.14 616.815 L136.779 616.815 L136.779 590.449 L128.469 592.116 L128.469 587.857 L136.732 586.19 L141.408 586.19 L141.408 616.815 L149.047 616.815 L149.047 620.75 L129.14 620.75 L129.14 616.815 Z" fill="#000000" fill-rule="nonzero" fill-opacity="1" /><path clip-path="url(#clip130)" d="M168.491 589.269 Q164.88 589.269 163.052 592.833 Q161.246 596.375 161.246 603.505 Q161.246 610.611 163.052 614.176 Q164.88 617.717 168.491 617.717 Q172.126 617.717 173.931 614.176 Q175.76 610.611 175.76 603.505 Q175.76 596.375 173.931 592.833 Q172.126 589.269 168.491 589.269 M168.491 585.565 Q174.302 585.565 177.357 590.171 Q180.436 594.755 180.436 603.505 Q180.436 612.231 177.357 616.838 Q174.302 621.421 168.491 621.421 Q162.681 621.421 159.603 616.838 Q156.547 612.231 156.547 603.505 Q156.547 594.755 159.603 590.171 Q162.681 585.565 168.491 585.565 Z" fill="#000000" fill-rule="nonzero" fill-opacity="1" /><path clip-path="url(#clip130)" d="M63.9319 347.859 Q60.3208 347.859 58.4921 351.424 Q56.6865 354.965 56.6865 362.095 Q56.6865 369.201 58.4921 372.766 Q60.3208 376.308 63.9319 376.308 Q67.5661 376.308 69.3717 372.766 Q71.2004 369.201 71.2004 362.095 Q71.2004 354.965 69.3717 351.424 Q67.5661 347.859 63.9319 347.859 M63.9319 344.155 Q69.742 344.155 72.7976 348.762 Q75.8763 353.345 75.8763 362.095 Q75.8763 370.822 72.7976 375.428 Q69.742 380.011 63.9319 380.011 Q58.1217 380.011 55.043 375.428 Q51.9875 370.822 51.9875 362.095 Q51.9875 353.345 55.043 348.762 Q58.1217 344.155 63.9319 344.155 Z" fill="#000000" fill-rule="nonzero" fill-opacity="1" /><path clip-path="url(#clip130)" d="M84.0938 373.46 L88.978 373.46 L88.978 379.34 L84.0938 379.34 L84.0938 373.46 Z" fill="#000000" fill-rule="nonzero" fill-opacity="1" /><path clip-path="url(#clip130)" d="M109.163 347.859 Q105.552 347.859 103.723 351.424 Q101.918 354.965 101.918 362.095 Q101.918 369.201 103.723 372.766 Q105.552 376.308 109.163 376.308 Q112.797 376.308 114.603 372.766 Q116.432 369.201 116.432 362.095 Q116.432 354.965 114.603 351.424 Q112.797 347.859 109.163 347.859 M109.163 344.155 Q114.973 344.155 118.029 348.762 Q121.107 353.345 121.107 362.095 Q121.107 370.822 118.029 375.428 Q114.973 380.011 109.163 380.011 Q103.353 380.011 100.274 375.428 Q97.2187 370.822 97.2187 362.095 Q97.2187 353.345 100.274 348.762 Q103.353 344.155 109.163 344.155 Z" fill="#000000" fill-rule="nonzero" fill-opacity="1" /><path clip-path="url(#clip130)" d="M130.135 375.405 L137.774 375.405 L137.774 349.039 L129.464 350.706 L129.464 346.447 L137.728 344.78 L142.404 344.78 L142.404 375.405 L150.043 375.405 L150.043 379.34 L130.135 379.34 L130.135 375.405 Z" fill="#000000" fill-rule="nonzero" fill-opacity="1" /><path clip-path="url(#clip130)" d="M159.533 344.78 L177.89 344.78 L177.89 348.715 L163.816 348.715 L163.816 357.187 Q164.834 356.84 165.853 356.678 Q166.871 356.493 167.89 356.493 Q173.677 356.493 177.056 359.664 Q180.436 362.836 180.436 368.252 Q180.436 373.831 176.964 376.933 Q173.491 380.011 167.172 380.011 Q164.996 380.011 162.728 379.641 Q160.482 379.271 158.075 378.53 L158.075 373.831 Q160.158 374.965 162.38 375.521 Q164.603 376.076 167.079 376.076 Q171.084 376.076 173.422 373.97 Q175.76 371.863 175.76 368.252 Q175.76 364.641 173.422 362.535 Q171.084 360.428 167.079 360.428 Q165.204 360.428 163.329 360.845 Q161.478 361.261 159.533 362.141 L159.533 344.78 Z" fill="#000000" fill-rule="nonzero" fill-opacity="1" /><path clip-path="url(#clip130)" d="M62.9365 106.449 Q59.3254 106.449 57.4967 110.014 Q55.6912 113.555 55.6912 120.685 Q55.6912 127.791 57.4967 131.356 Q59.3254 134.898 62.9365 134.898 Q66.5707 134.898 68.3763 131.356 Q70.205 127.791 70.205 120.685 Q70.205 113.555 68.3763 110.014 Q66.5707 106.449 62.9365 106.449 M62.9365 102.745 Q68.7467 102.745 71.8022 107.352 Q74.8809 111.935 74.8809 120.685 Q74.8809 129.412 71.8022 134.018 Q68.7467 138.602 62.9365 138.602 Q57.1264 138.602 54.0477 134.018 Q50.9921 129.412 50.9921 120.685 Q50.9921 111.935 54.0477 107.352 Q57.1264 102.745 62.9365 102.745 Z" fill="#000000" fill-rule="nonzero" fill-opacity="1" /><path clip-path="url(#clip130)" d="M83.0984 132.051 L87.9827 132.051 L87.9827 137.93 L83.0984 137.93 L83.0984 132.051 Z" fill="#000000" fill-rule="nonzero" fill-opacity="1" /><path clip-path="url(#clip130)" d="M108.168 106.449 Q104.557 106.449 102.728 110.014 Q100.922 113.555 100.922 120.685 Q100.922 127.791 102.728 131.356 Q104.557 134.898 108.168 134.898 Q111.802 134.898 113.608 131.356 Q115.436 127.791 115.436 120.685 Q115.436 113.555 113.608 110.014 Q111.802 106.449 108.168 106.449 M108.168 102.745 Q113.978 102.745 117.033 107.352 Q120.112 111.935 120.112 120.685 Q120.112 129.412 117.033 134.018 Q113.978 138.602 108.168 138.602 Q102.358 138.602 99.2789 134.018 Q96.2234 129.412 96.2234 120.685 Q96.2234 111.935 99.2789 107.352 Q102.358 102.745 108.168 102.745 Z" fill="#000000" fill-rule="nonzero" fill-opacity="1" /><path clip-path="url(#clip130)" d="M132.357 133.995 L148.677 133.995 L148.677 137.93 L126.732 137.93 L126.732 133.995 Q129.394 131.241 133.978 126.611 Q138.584 121.958 139.765 120.616 Q142.01 118.092 142.89 116.356 Q143.793 114.597 143.793 112.907 Q143.793 110.153 141.848 108.417 Q139.927 106.68 136.825 106.68 Q134.626 106.68 132.172 107.444 Q129.742 108.208 126.964 109.759 L126.964 105.037 Q129.788 103.903 132.242 103.324 Q134.695 102.745 136.732 102.745 Q142.103 102.745 145.297 105.43 Q148.492 108.116 148.492 112.606 Q148.492 114.736 147.681 116.657 Q146.894 118.555 144.788 121.148 Q144.209 121.819 141.107 125.037 Q138.006 128.231 132.357 133.995 Z" fill="#000000" fill-rule="nonzero" fill-opacity="1" /><path clip-path="url(#clip130)" d="M168.491 106.449 Q164.88 106.449 163.052 110.014 Q161.246 113.555 161.246 120.685 Q161.246 127.791 163.052 131.356 Q164.88 134.898 168.491 134.898 Q172.126 134.898 173.931 131.356 Q175.76 127.791 175.76 120.685 Q175.76 113.555 173.931 110.014 Q172.126 106.449 168.491 106.449 M168.491 102.745 Q174.302 102.745 177.357 107.352 Q180.436 111.935 180.436 120.685 Q180.436 129.412 177.357 134.018 Q174.302 138.602 168.491 138.602 Q162.681 138.602 159.603 134.018 Q156.547 129.412 156.547 120.685 Q156.547 111.935 159.603 107.352 Q162.681 102.745 168.491 102.745 Z" fill="#000000" fill-rule="nonzero" fill-opacity="1" /><path clip-path="url(#clip130)" d="M617.734 30.8748 L617.734 33.2186 L595.703 33.2186 Q596.016 38.1665 598.672 40.7706 Q601.354 43.3487 606.12 43.3487 Q608.88 43.3487 611.458 42.6716 Q614.062 41.9946 616.614 40.6404 L616.614 45.1716 Q614.036 46.2654 611.328 46.8383 Q608.62 47.4112 605.833 47.4112 Q598.854 47.4112 594.766 43.3487 Q590.703 39.2862 590.703 32.3592 Q590.703 25.1978 594.557 21.0051 Q598.437 16.7864 605 16.7864 Q610.885 16.7864 614.297 20.5884 Q617.734 24.3645 617.734 30.8748 M612.943 29.4686 Q612.891 25.5363 610.729 23.1926 Q608.594 20.8488 605.052 20.8488 Q601.042 20.8488 598.62 23.1145 Q596.224 25.3801 595.859 29.4946 L612.943 29.4686 Z" fill="#000000" fill-rule="nonzero" fill-opacity="1" /><path clip-path="url(#clip130)" d="M625.104 35.1456 L625.104 17.4895 L629.896 17.4895 L629.896 34.9634 Q629.896 39.104 631.51 41.1873 Q633.125 43.2446 636.354 43.2446 Q640.234 43.2446 642.474 40.7706 Q644.739 38.2967 644.739 34.0259 L644.739 17.4895 L649.531 17.4895 L649.531 46.656 L644.739 46.656 L644.739 42.1769 Q642.995 44.8331 640.677 46.1352 Q638.385 47.4112 635.338 47.4112 Q630.312 47.4112 627.708 44.2862 Q625.104 41.1612 625.104 35.1456 M637.161 16.7864 L637.161 16.7864 Z" fill="#000000" fill-rule="nonzero" fill-opacity="1" /><path clip-path="url(#clip130)" d="M676.302 21.9686 Q675.494 21.4999 674.531 21.2916 Q673.593 21.0572 672.448 21.0572 Q668.385 21.0572 666.198 23.7134 Q664.036 26.3436 664.036 31.2915 L664.036 46.656 L659.218 46.656 L659.218 17.4895 L664.036 17.4895 L664.036 22.0207 Q665.547 19.3645 667.968 18.0884 Q670.39 16.7864 673.854 16.7864 Q674.349 16.7864 674.948 16.8645 Q675.546 16.9166 676.276 17.0468 L676.302 21.9686 Z" fill="#000000" fill-rule="nonzero" fill-opacity="1" /><path clip-path="url(#clip130)" d="M681.328 17.4895 L686.119 17.4895 L686.119 46.656 L681.328 46.656 L681.328 17.4895 M681.328 6.13538 L686.119 6.13538 L686.119 12.2031 L681.328 12.2031 L681.328 6.13538 Z" fill="#000000" fill-rule="nonzero" fill-opacity="1" /><path clip-path="url(#clip130)" d="M717.083 32.0988 Q717.083 26.8124 714.895 23.8176 Q712.734 20.7968 708.932 20.7968 Q705.13 20.7968 702.942 23.8176 Q700.781 26.8124 700.781 32.0988 Q700.781 37.3852 702.942 40.406 Q705.13 43.4008 708.932 43.4008 Q712.734 43.4008 714.895 40.406 Q717.083 37.3852 717.083 32.0988 M700.781 21.9165 Q702.291 19.3124 704.583 18.0624 Q706.9 16.7864 710.104 16.7864 Q715.416 16.7864 718.723 21.0051 Q722.057 25.2238 722.057 32.0988 Q722.057 38.9737 718.723 43.1925 Q715.416 47.4112 710.104 47.4112 Q706.9 47.4112 704.583 46.1612 Q702.291 44.8852 700.781 42.281 L700.781 46.656 L695.963 46.656 L695.963 6.13538 L700.781 6.13538 L700.781 21.9165 Z" fill="#000000" fill-rule="nonzero" fill-opacity="1" /><path clip-path="url(#clip130)" d="M741.301 20.8488 Q737.447 20.8488 735.208 23.8697 Q732.968 26.8644 732.968 32.0988 Q732.968 37.3331 735.182 40.354 Q737.421 43.3487 741.301 43.3487 Q745.129 43.3487 747.369 40.3279 Q749.609 37.3071 749.609 32.0988 Q749.609 26.9165 747.369 23.8957 Q745.129 20.8488 741.301 20.8488 M741.301 16.7864 Q747.551 16.7864 751.119 20.8488 Q754.687 24.9113 754.687 32.0988 Q754.687 39.2602 751.119 43.3487 Q747.551 47.4112 741.301 47.4112 Q735.025 47.4112 731.458 43.3487 Q727.916 39.2602 727.916 32.0988 Q727.916 24.9113 731.458 20.8488 Q735.025 16.7864 741.301 16.7864 Z" fill="#000000" fill-rule="nonzero" fill-opacity="1" /><path clip-path="url(#clip130)" d="M779.53 21.9686 Q778.723 21.4999 777.759 21.2916 Q776.822 21.0572 775.676 21.0572 Q771.614 21.0572 769.426 23.7134 Q767.265 26.3436 767.265 31.2915 L767.265 46.656 L762.447 46.656 L762.447 17.4895 L767.265 17.4895 L767.265 22.0207 Q768.775 19.3645 771.197 18.0884 Q773.619 16.7864 777.082 16.7864 Q777.577 16.7864 778.176 16.8645 Q778.775 16.9166 779.504 17.0468 L779.53 21.9686 Z" fill="#000000" fill-rule="nonzero" fill-opacity="1" /><path clip-path="url(#clip132)" d="M242.965 1006.82 L285.075 1006.82 L327.184 1060.45 L369.294 1045.84 L411.404 1062.86 L453.513 1057.85 L495.623 1009.17 L537.733 1037.7 L579.842 1045.94 L621.952 1070.59 L664.062 1011.14 L706.172 988.038 L748.281 978.073 L790.391 933.594 L832.501 959.603 L874.61 986.98 L916.72 996.128 L958.83 1007.45 L1000.94 989.464 L1043.05 1013.44 L1085.16 1013.57 L1127.27 1002.35 L1127.27 916.434 L1085.16 904.619 L1043.05 905.091 L1000.94 873.81 L958.83 806.619 L916.72 823.638 L874.61 811.051 L832.501 822.95 L790.391 856.86 L748.281 824.734 L706.172 830.007 L664.062 869.86 L621.952 882.586 L579.842 945.676 L537.733 941.287 L495.623 917.477 L453.513 921.009 L411.404 928.074 L369.294 950.888 L327.184 972.959 L285.075 1006.82 L242.965 1006.82  Z" fill="#009af9" fill-rule="evenodd" fill-opacity="0.1"/>
<polyline clip-path="url(#clip132)" style="stroke:#009af9; stroke-linecap:round; stroke-linejoin:round; stroke-width:4; stroke-opacity:1; fill:none" points="242.965,1006.82 285.075,1006.82 327.184,1016.71 369.294,998.364 411.404,995.469 453.513,989.429 495.623,963.322 537.733,989.495 579.842,995.811 621.952,976.588 664.062,940.502 706.172,909.023 748.281,901.404 790.391,895.227 832.501,891.277 874.61,899.015 916.72,909.883 958.83,907.036 1000.94,931.637 1043.05,959.265 1085.16,959.096 1127.27,959.393 "/>
<path clip-path="url(#clip132)" d="M242.965 1006.82 L285.075 1006.82 L327.184 120.65 L369.294 120.65 L411.404 120.65 L453.513 120.65 L495.623 120.65 L537.733 120.65 L579.842 120.65 L621.952 120.65 L664.062 120.65 L706.172 120.65 L748.281 120.65 L790.391 120.65 L832.501 120.65 L874.61 120.65 L916.72 120.65 L958.83 120.65 L1000.94 120.65 L1043.05 120.65 L1085.16 120.65 L1127.27 120.65 L1127.27 120.65 L1085.16 120.65 L1043.05 120.65 L1000.94 120.65 L958.83 120.65 L916.72 120.65 L874.61 120.65 L832.501 120.65 L790.391 120.65 L748.281 120.65 L706.172 120.65 L664.062 120.65 L621.952 120.65 L579.842 120.65 L537.733 120.65 L495.623 120.65 L453.513 120.65 L411.404 120.65 L369.294 120.65 L327.184 120.65 L285.075 1006.82 L242.965 1006.82  Z" fill="#e26f46" fill-rule="evenodd" fill-opacity="0.1"/>
<polyline clip-path="url(#clip132)" style="stroke:#e26f46; stroke-linecap:round; stroke-linejoin:round; stroke-width:4; stroke-opacity:1; fill:none" points="242.965,1006.82 285.075,1006.82 327.184,120.65 369.294,120.65 411.404,120.65 453.513,120.65 495.623,120.65 537.733,120.65 579.842,120.65 621.952,120.65 664.062,120.65 706.172,120.65 748.281,120.65 790.391,120.65 832.501,120.65 874.61,120.65 916.72,120.65 958.83,120.65 1000.94,120.65 1043.05,120.65 1085.16,120.65 1127.27,120.65 "/>
<path clip-path="url(#clip130)" d="M1415.39 1099.09 L2352.76 1099.09 L2352.76 92.1521 L1415.39 92.1521  Z" fill="#ffffff" fill-rule="evenodd" fill-opacity="1"/>
<defs>
  <clipPath id="clip133">
    <rect x="1415" y="92" width="938" height="1008"/>
  </clipPath>
</defs>
<polyline clip-path="url(#clip133)" style="stroke:#000000; stroke-linecap:round; stroke-linejoin:round; stroke-width:2; stroke-opacity:0.1; fill:none" points="1610.36,1099.09 1610.36,92.1521 "/>
<polyline clip-path="url(#clip133)" style="stroke:#000000; stroke-linecap:round; stroke-linejoin:round; stroke-width:2; stroke-opacity:0.1; fill:none" points="1820.91,1099.09 1820.91,92.1521 "/>
<polyline clip-path="url(#clip133)" style="stroke:#000000; stroke-linecap:round; stroke-linejoin:round; stroke-width:2; stroke-opacity:0.1; fill:none" points="2031.46,1099.09 2031.46,92.1521 "/>
<polyline clip-path="url(#clip133)" style="stroke:#000000; stroke-linecap:round; stroke-linejoin:round; stroke-width:2; stroke-opacity:0.1; fill:none" points="2242.01,1099.09 2242.01,92.1521 "/>
<polyline clip-path="url(#clip133)" style="stroke:#000000; stroke-linecap:round; stroke-linejoin:round; stroke-width:2; stroke-opacity:0.1; fill:none" points="1415.39,1062.49 2352.76,1062.49 "/>
<polyline clip-path="url(#clip133)" style="stroke:#000000; stroke-linecap:round; stroke-linejoin:round; stroke-width:2; stroke-opacity:0.1; fill:none" points="1415.39,850.762 2352.76,850.762 "/>
<polyline clip-path="url(#clip133)" style="stroke:#000000; stroke-linecap:round; stroke-linejoin:round; stroke-width:2; stroke-opacity:0.1; fill:none" points="1415.39,639.031 2352.76,639.031 "/>
<polyline clip-path="url(#clip133)" style="stroke:#000000; stroke-linecap:round; stroke-linejoin:round; stroke-width:2; stroke-opacity:0.1; fill:none" points="1415.39,427.299 2352.76,427.299 "/>
<polyline clip-path="url(#clip133)" style="stroke:#000000; stroke-linecap:round; stroke-linejoin:round; stroke-width:2; stroke-opacity:0.1; fill:none" points="1415.39,215.568 2352.76,215.568 "/>
<polyline clip-path="url(#clip130)" style="stroke:#000000; stroke-linecap:round; stroke-linejoin:round; stroke-width:4; stroke-opacity:1; fill:none" points="1415.39,1099.09 2352.76,1099.09 "/>
<polyline clip-path="url(#clip130)" style="stroke:#000000; stroke-linecap:round; stroke-linejoin:round; stroke-width:4; stroke-opacity:1; fill:none" points="1610.36,1099.09 1610.36,1080.19 "/>
<polyline clip-path="url(#clip130)" style="stroke:#000000; stroke-linecap:round; stroke-linejoin:round; stroke-width:4; stroke-opacity:1; fill:none" points="1820.91,1099.09 1820.91,1080.19 "/>
<polyline clip-path="url(#clip130)" style="stroke:#000000; stroke-linecap:round; stroke-linejoin:round; stroke-width:4; stroke-opacity:1; fill:none" points="2031.46,1099.09 2031.46,1080.19 "/>
<polyline clip-path="url(#clip130)" style="stroke:#000000; stroke-linecap:round; stroke-linejoin:round; stroke-width:4; stroke-opacity:1; fill:none" points="2242.01,1099.09 2242.01,1080.19 "/>
<path clip-path="url(#clip130)" d="M1600.64 1126.93 L1619 1126.93 L1619 1130.86 L1604.92 1130.86 L1604.92 1139.34 Q1605.94 1138.99 1606.96 1138.83 Q1607.98 1138.64 1609 1138.64 Q1614.78 1138.64 1618.16 1141.81 Q1621.54 1144.98 1621.54 1150.4 Q1621.54 1155.98 1618.07 1159.08 Q1614.6 1162.16 1608.28 1162.16 Q1606.1 1162.16 1603.83 1161.79 Q1601.59 1161.42 1599.18 1160.68 L1599.18 1155.98 Q1601.26 1157.11 1603.49 1157.67 Q1605.71 1158.22 1608.19 1158.22 Q1612.19 1158.22 1614.53 1156.12 Q1616.87 1154.01 1616.87 1150.4 Q1616.87 1146.79 1614.53 1144.68 Q1612.19 1142.58 1608.19 1142.58 Q1606.31 1142.58 1604.44 1142.99 Q1602.58 1143.41 1600.64 1144.29 L1600.64 1126.93 Z" fill="#000000" fill-rule="nonzero" fill-opacity="1" /><path clip-path="url(#clip130)" d="M1795.6 1157.55 L1803.24 1157.55 L1803.24 1131.19 L1794.93 1132.85 L1794.93 1128.59 L1803.19 1126.93 L1807.87 1126.93 L1807.87 1157.55 L1815.51 1157.55 L1815.51 1161.49 L1795.6 1161.49 L1795.6 1157.55 Z" fill="#000000" fill-rule="nonzero" fill-opacity="1" /><path clip-path="url(#clip130)" d="M1834.95 1130.01 Q1831.34 1130.01 1829.51 1133.57 Q1827.7 1137.11 1827.7 1144.24 Q1827.7 1151.35 1829.51 1154.91 Q1831.34 1158.46 1834.95 1158.46 Q1838.58 1158.46 1840.39 1154.91 Q1842.22 1151.35 1842.22 1144.24 Q1842.22 1137.11 1840.39 1133.57 Q1838.58 1130.01 1834.95 1130.01 M1834.95 1126.3 Q1840.76 1126.3 1843.82 1130.91 Q1846.89 1135.49 1846.89 1144.24 Q1846.89 1152.97 1843.82 1157.58 Q1840.76 1162.16 1834.95 1162.16 Q1829.14 1162.16 1826.06 1157.58 Q1823.01 1152.97 1823.01 1144.24 Q1823.01 1135.49 1826.06 1130.91 Q1829.14 1126.3 1834.95 1126.3 Z" fill="#000000" fill-rule="nonzero" fill-opacity="1" /><path clip-path="url(#clip130)" d="M2006.64 1157.55 L2014.28 1157.55 L2014.28 1131.19 L2005.97 1132.85 L2005.97 1128.59 L2014.24 1126.93 L2018.91 1126.93 L2018.91 1157.55 L2026.55 1157.55 L2026.55 1161.49 L2006.64 1161.49 L2006.64 1157.55 Z" fill="#000000" fill-rule="nonzero" fill-opacity="1" /><path clip-path="url(#clip130)" d="M2036.04 1126.93 L2054.4 1126.93 L2054.4 1130.86 L2040.32 1130.86 L2040.32 1139.34 Q2041.34 1138.99 2042.36 1138.83 Q2043.38 1138.64 2044.4 1138.64 Q2050.19 1138.64 2053.57 1141.81 Q2056.94 1144.98 2056.94 1150.4 Q2056.94 1155.98 2053.47 1159.08 Q2050 1162.16 2043.68 1162.16 Q2041.51 1162.16 2039.24 1161.79 Q2036.99 1161.42 2034.58 1160.68 L2034.58 1155.98 Q2036.67 1157.11 2038.89 1157.67 Q2041.11 1158.22 2043.59 1158.22 Q2047.59 1158.22 2049.93 1156.12 Q2052.27 1154.01 2052.27 1150.4 Q2052.27 1146.79 2049.93 1144.68 Q2047.59 1142.58 2043.59 1142.58 Q2041.71 1142.58 2039.84 1142.99 Q2037.99 1143.41 2036.04 1144.29 L2036.04 1126.93 Z" fill="#000000" fill-rule="nonzero" fill-opacity="1" /><path clip-path="url(#clip130)" d="M2220.78 1157.55 L2237.1 1157.55 L2237.1 1161.49 L2215.16 1161.49 L2215.16 1157.55 Q2217.82 1154.8 2222.4 1150.17 Q2227.01 1145.52 2228.19 1144.17 Q2230.43 1141.65 2231.31 1139.91 Q2232.22 1138.15 2232.22 1136.46 Q2232.22 1133.71 2230.27 1131.97 Q2228.35 1130.24 2225.25 1130.24 Q2223.05 1130.24 2220.6 1131 Q2218.16 1131.77 2215.39 1133.32 L2215.39 1128.59 Q2218.21 1127.46 2220.66 1126.88 Q2223.12 1126.3 2225.16 1126.3 Q2230.53 1126.3 2233.72 1128.99 Q2236.91 1131.67 2236.91 1136.16 Q2236.91 1138.29 2236.1 1140.21 Q2235.32 1142.11 2233.21 1144.71 Q2232.63 1145.38 2229.53 1148.59 Q2226.43 1151.79 2220.78 1157.55 Z" fill="#000000" fill-rule="nonzero" fill-opacity="1" /><path clip-path="url(#clip130)" d="M2256.91 1130.01 Q2253.3 1130.01 2251.47 1133.57 Q2249.67 1137.11 2249.67 1144.24 Q2249.67 1151.35 2251.47 1154.91 Q2253.3 1158.46 2256.91 1158.46 Q2260.55 1158.46 2262.35 1154.91 Q2264.18 1151.35 2264.18 1144.24 Q2264.18 1137.11 2262.35 1133.57 Q2260.55 1130.01 2256.91 1130.01 M2256.91 1126.3 Q2262.72 1126.3 2265.78 1130.91 Q2268.86 1135.49 2268.86 1144.24 Q2268.86 1152.97 2265.78 1157.58 Q2262.72 1162.16 2256.91 1162.16 Q2251.1 1162.16 2248.03 1157.58 Q2244.97 1152.97 2244.97 1144.24 Q2244.97 1135.49 2248.03 1130.91 Q2251.1 1126.3 2256.91 1126.3 Z" fill="#000000" fill-rule="nonzero" fill-opacity="1" /><polyline clip-path="url(#clip130)" style="stroke:#000000; stroke-linecap:round; stroke-linejoin:round; stroke-width:4; stroke-opacity:1; fill:none" points="1415.39,1099.09 1415.39,92.1521 "/>
<polyline clip-path="url(#clip130)" style="stroke:#000000; stroke-linecap:round; stroke-linejoin:round; stroke-width:4; stroke-opacity:1; fill:none" points="1415.39,1062.49 1434.29,1062.49 "/>
<polyline clip-path="url(#clip130)" style="stroke:#000000; stroke-linecap:round; stroke-linejoin:round; stroke-width:4; stroke-opacity:1; fill:none" points="1415.39,850.762 1434.29,850.762 "/>
<polyline clip-path="url(#clip130)" style="stroke:#000000; stroke-linecap:round; stroke-linejoin:round; stroke-width:4; stroke-opacity:1; fill:none" points="1415.39,639.031 1434.29,639.031 "/>
<polyline clip-path="url(#clip130)" style="stroke:#000000; stroke-linecap:round; stroke-linejoin:round; stroke-width:4; stroke-opacity:1; fill:none" points="1415.39,427.299 1434.29,427.299 "/>
<polyline clip-path="url(#clip130)" style="stroke:#000000; stroke-linecap:round; stroke-linejoin:round; stroke-width:4; stroke-opacity:1; fill:none" points="1415.39,215.568 1434.29,215.568 "/>
<path clip-path="url(#clip130)" d="M1252.71 1075.84 L1260.34 1075.84 L1260.34 1049.47 L1252.03 1051.14 L1252.03 1046.88 L1260.3 1045.21 L1264.97 1045.21 L1264.97 1075.84 L1272.61 1075.84 L1272.61 1079.77 L1252.71 1079.77 L1252.71 1075.84 Z" fill="#000000" fill-rule="nonzero" fill-opacity="1" /><path clip-path="url(#clip130)" d="M1282.06 1073.89 L1286.94 1073.89 L1286.94 1079.77 L1282.06 1079.77 L1282.06 1073.89 Z" fill="#000000" fill-rule="nonzero" fill-opacity="1" /><path clip-path="url(#clip130)" d="M1307.13 1048.29 Q1303.51 1048.29 1301.69 1051.86 Q1299.88 1055.4 1299.88 1062.53 Q1299.88 1069.63 1301.69 1073.2 Q1303.51 1076.74 1307.13 1076.74 Q1310.76 1076.74 1312.57 1073.2 Q1314.39 1069.63 1314.39 1062.53 Q1314.39 1055.4 1312.57 1051.86 Q1310.76 1048.29 1307.13 1048.29 M1307.13 1044.59 Q1312.94 1044.59 1315.99 1049.19 Q1319.07 1053.78 1319.07 1062.53 Q1319.07 1071.25 1315.99 1075.86 Q1312.94 1080.44 1307.13 1080.44 Q1301.32 1080.44 1298.24 1075.86 Q1295.18 1071.25 1295.18 1062.53 Q1295.18 1053.78 1298.24 1049.19 Q1301.32 1044.59 1307.13 1044.59 Z" fill="#000000" fill-rule="nonzero" fill-opacity="1" /><path clip-path="url(#clip130)" d="M1337.29 1048.29 Q1333.68 1048.29 1331.85 1051.86 Q1330.04 1055.4 1330.04 1062.53 Q1330.04 1069.63 1331.85 1073.2 Q1333.68 1076.74 1337.29 1076.74 Q1340.92 1076.74 1342.73 1073.2 Q1344.56 1069.63 1344.56 1062.53 Q1344.56 1055.4 1342.73 1051.86 Q1340.92 1048.29 1337.29 1048.29 M1337.29 1044.59 Q1343.1 1044.59 1346.15 1049.19 Q1349.23 1053.78 1349.23 1062.53 Q1349.23 1071.25 1346.15 1075.86 Q1343.1 1080.44 1337.29 1080.44 Q1331.48 1080.44 1328.4 1075.86 Q1325.34 1071.25 1325.34 1062.53 Q1325.34 1053.78 1328.4 1049.19 Q1331.48 1044.59 1337.29 1044.59 Z" fill="#000000" fill-rule="nonzero" fill-opacity="1" /><path clip-path="url(#clip130)" d="M1367.45 1048.29 Q1363.84 1048.29 1362.01 1051.86 Q1360.2 1055.4 1360.2 1062.53 Q1360.2 1069.63 1362.01 1073.2 Q1363.84 1076.74 1367.45 1076.74 Q1371.08 1076.74 1372.89 1073.2 Q1374.72 1069.63 1374.72 1062.53 Q1374.72 1055.4 1372.89 1051.86 Q1371.08 1048.29 1367.45 1048.29 M1367.45 1044.59 Q1373.26 1044.59 1376.32 1049.19 Q1379.39 1053.78 1379.39 1062.53 Q1379.39 1071.25 1376.32 1075.86 Q1373.26 1080.44 1367.45 1080.44 Q1361.64 1080.44 1358.56 1075.86 Q1355.51 1071.25 1355.51 1062.53 Q1355.51 1053.78 1358.56 1049.19 Q1361.64 1044.59 1367.45 1044.59 Z" fill="#000000" fill-rule="nonzero" fill-opacity="1" /><path clip-path="url(#clip130)" d="M1253.7 864.107 L1261.34 864.107 L1261.34 837.741 L1253.03 839.408 L1253.03 835.149 L1261.29 833.482 L1265.97 833.482 L1265.97 864.107 L1273.61 864.107 L1273.61 868.042 L1253.7 868.042 L1253.7 864.107 Z" fill="#000000" fill-rule="nonzero" fill-opacity="1" /><path clip-path="url(#clip130)" d="M1283.05 862.162 L1287.94 862.162 L1287.94 868.042 L1283.05 868.042 L1283.05 862.162 Z" fill="#000000" fill-rule="nonzero" fill-opacity="1" /><path clip-path="url(#clip130)" d="M1308.12 836.561 Q1304.51 836.561 1302.68 840.125 Q1300.88 843.667 1300.88 850.797 Q1300.88 857.903 1302.68 861.468 Q1304.51 865.01 1308.12 865.01 Q1311.76 865.01 1313.56 861.468 Q1315.39 857.903 1315.39 850.797 Q1315.39 843.667 1313.56 840.125 Q1311.76 836.561 1308.12 836.561 M1308.12 832.857 Q1313.93 832.857 1316.99 837.463 Q1320.07 842.047 1320.07 850.797 Q1320.07 859.523 1316.99 864.13 Q1313.93 868.713 1308.12 868.713 Q1302.31 868.713 1299.23 864.13 Q1296.18 859.523 1296.18 850.797 Q1296.18 842.047 1299.23 837.463 Q1302.31 832.857 1308.12 832.857 Z" fill="#000000" fill-rule="nonzero" fill-opacity="1" /><path clip-path="url(#clip130)" d="M1332.31 864.107 L1348.63 864.107 L1348.63 868.042 L1326.69 868.042 L1326.69 864.107 Q1329.35 861.352 1333.93 856.723 Q1338.54 852.07 1339.72 850.727 Q1341.96 848.204 1342.84 846.468 Q1343.75 844.709 1343.75 843.019 Q1343.75 840.264 1341.8 838.528 Q1339.88 836.792 1336.78 836.792 Q1334.58 836.792 1332.13 837.556 Q1329.7 838.32 1326.92 839.871 L1326.92 835.149 Q1329.74 834.014 1332.2 833.436 Q1334.65 832.857 1336.69 832.857 Q1342.06 832.857 1345.25 835.542 Q1348.45 838.227 1348.45 842.718 Q1348.45 844.848 1347.64 846.769 Q1346.85 848.667 1344.74 851.26 Q1344.16 851.931 1341.06 855.148 Q1337.96 858.343 1332.31 864.107 Z" fill="#000000" fill-rule="nonzero" fill-opacity="1" /><path clip-path="url(#clip130)" d="M1358.49 833.482 L1376.85 833.482 L1376.85 837.417 L1362.77 837.417 L1362.77 845.889 Q1363.79 845.542 1364.81 845.38 Q1365.83 845.195 1366.85 845.195 Q1372.63 845.195 1376.01 848.366 Q1379.39 851.537 1379.39 856.954 Q1379.39 862.533 1375.92 865.635 Q1372.45 868.713 1366.13 868.713 Q1363.95 868.713 1361.69 868.343 Q1359.44 867.972 1357.03 867.232 L1357.03 862.533 Q1359.12 863.667 1361.34 864.223 Q1363.56 864.778 1366.04 864.778 Q1370.04 864.778 1372.38 862.672 Q1374.72 860.565 1374.72 856.954 Q1374.72 853.343 1372.38 851.236 Q1370.04 849.13 1366.04 849.13 Q1364.16 849.13 1362.29 849.547 Q1360.44 849.963 1358.49 850.843 L1358.49 833.482 Z" fill="#000000" fill-rule="nonzero" fill-opacity="1" /><path clip-path="url(#clip130)" d="M1252.71 652.375 L1260.34 652.375 L1260.34 626.01 L1252.03 627.677 L1252.03 623.417 L1260.3 621.751 L1264.97 621.751 L1264.97 652.375 L1272.61 652.375 L1272.61 656.311 L1252.71 656.311 L1252.71 652.375 Z" fill="#000000" fill-rule="nonzero" fill-opacity="1" /><path clip-path="url(#clip130)" d="M1282.06 650.431 L1286.94 650.431 L1286.94 656.311 L1282.06 656.311 L1282.06 650.431 Z" fill="#000000" fill-rule="nonzero" fill-opacity="1" /><path clip-path="url(#clip130)" d="M1307.13 624.829 Q1303.51 624.829 1301.69 628.394 Q1299.88 631.936 1299.88 639.065 Q1299.88 646.172 1301.69 649.737 Q1303.51 653.278 1307.13 653.278 Q1310.76 653.278 1312.57 649.737 Q1314.39 646.172 1314.39 639.065 Q1314.39 631.936 1312.57 628.394 Q1310.76 624.829 1307.13 624.829 M1307.13 621.126 Q1312.94 621.126 1315.99 625.732 Q1319.07 630.315 1319.07 639.065 Q1319.07 647.792 1315.99 652.399 Q1312.94 656.982 1307.13 656.982 Q1301.32 656.982 1298.24 652.399 Q1295.18 647.792 1295.18 639.065 Q1295.18 630.315 1298.24 625.732 Q1301.32 621.126 1307.13 621.126 Z" fill="#000000" fill-rule="nonzero" fill-opacity="1" /><path clip-path="url(#clip130)" d="M1327.33 621.751 L1345.69 621.751 L1345.69 625.686 L1331.62 625.686 L1331.62 634.158 Q1332.64 633.811 1333.65 633.649 Q1334.67 633.464 1335.69 633.464 Q1341.48 633.464 1344.86 636.635 Q1348.24 639.806 1348.24 645.223 Q1348.24 650.801 1344.76 653.903 Q1341.29 656.982 1334.97 656.982 Q1332.8 656.982 1330.53 656.612 Q1328.28 656.241 1325.88 655.5 L1325.88 650.801 Q1327.96 651.936 1330.18 652.491 Q1332.4 653.047 1334.88 653.047 Q1338.89 653.047 1341.22 650.94 Q1343.56 648.834 1343.56 645.223 Q1343.56 641.612 1341.22 639.505 Q1338.89 637.399 1334.88 637.399 Q1333.01 637.399 1331.13 637.815 Q1329.28 638.232 1327.33 639.112 L1327.33 621.751 Z" fill="#000000" fill-rule="nonzero" fill-opacity="1" /><path clip-path="url(#clip130)" d="M1367.45 624.829 Q1363.84 624.829 1362.01 628.394 Q1360.2 631.936 1360.2 639.065 Q1360.2 646.172 1362.01 649.737 Q1363.84 653.278 1367.45 653.278 Q1371.08 653.278 1372.89 649.737 Q1374.72 646.172 1374.72 639.065 Q1374.72 631.936 1372.89 628.394 Q1371.08 624.829 1367.45 624.829 M1367.45 621.126 Q1373.26 621.126 1376.32 625.732 Q1379.39 630.315 1379.39 639.065 Q1379.39 647.792 1376.32 652.399 Q1373.26 656.982 1367.45 656.982 Q1361.64 656.982 1358.56 652.399 Q1355.51 647.792 1355.51 639.065 Q1355.51 630.315 1358.56 625.732 Q1361.64 621.126 1367.45 621.126 Z" fill="#000000" fill-rule="nonzero" fill-opacity="1" /><path clip-path="url(#clip130)" d="M1253.7 440.644 L1261.34 440.644 L1261.34 414.279 L1253.03 415.945 L1253.03 411.686 L1261.29 410.019 L1265.97 410.019 L1265.97 440.644 L1273.61 440.644 L1273.61 444.579 L1253.7 444.579 L1253.7 440.644 Z" fill="#000000" fill-rule="nonzero" fill-opacity="1" /><path clip-path="url(#clip130)" d="M1283.05 438.7 L1287.94 438.7 L1287.94 444.579 L1283.05 444.579 L1283.05 438.7 Z" fill="#000000" fill-rule="nonzero" fill-opacity="1" /><path clip-path="url(#clip130)" d="M1308.12 413.098 Q1304.51 413.098 1302.68 416.663 Q1300.88 420.204 1300.88 427.334 Q1300.88 434.44 1302.68 438.005 Q1304.51 441.547 1308.12 441.547 Q1311.76 441.547 1313.56 438.005 Q1315.39 434.44 1315.39 427.334 Q1315.39 420.204 1313.56 416.663 Q1311.76 413.098 1308.12 413.098 M1308.12 409.394 Q1313.93 409.394 1316.99 414.001 Q1320.07 418.584 1320.07 427.334 Q1320.07 436.061 1316.99 440.667 Q1313.93 445.251 1308.12 445.251 Q1302.31 445.251 1299.23 440.667 Q1296.18 436.061 1296.18 427.334 Q1296.18 418.584 1299.23 414.001 Q1302.31 409.394 1308.12 409.394 Z" fill="#000000" fill-rule="nonzero" fill-opacity="1" /><path clip-path="url(#clip130)" d="M1327.1 410.019 L1349.32 410.019 L1349.32 412.01 L1336.78 444.579 L1331.89 444.579 L1343.7 413.954 L1327.1 413.954 L1327.1 410.019 Z" fill="#000000" fill-rule="nonzero" fill-opacity="1" /><path clip-path="url(#clip130)" d="M1358.49 410.019 L1376.85 410.019 L1376.85 413.954 L1362.77 413.954 L1362.77 422.427 Q1363.79 422.079 1364.81 421.917 Q1365.83 421.732 1366.85 421.732 Q1372.63 421.732 1376.01 424.903 Q1379.39 428.075 1379.39 433.491 Q1379.39 439.07 1375.92 442.172 Q1372.45 445.251 1366.13 445.251 Q1363.95 445.251 1361.69 444.88 Q1359.44 444.51 1357.03 443.769 L1357.03 439.07 Q1359.12 440.204 1361.34 440.76 Q1363.56 441.315 1366.04 441.315 Q1370.04 441.315 1372.38 439.209 Q1374.72 437.102 1374.72 433.491 Q1374.72 429.88 1372.38 427.774 Q1370.04 425.667 1366.04 425.667 Q1364.16 425.667 1362.29 426.084 Q1360.44 426.501 1358.49 427.38 L1358.49 410.019 Z" fill="#000000" fill-rule="nonzero" fill-opacity="1" /><path clip-path="url(#clip130)" d="M1252.71 228.913 L1260.34 228.913 L1260.34 202.547 L1252.03 204.214 L1252.03 199.955 L1260.3 198.288 L1264.97 198.288 L1264.97 228.913 L1272.61 228.913 L1272.61 232.848 L1252.71 232.848 L1252.71 228.913 Z" fill="#000000" fill-rule="nonzero" fill-opacity="1" /><path clip-path="url(#clip130)" d="M1282.06 226.968 L1286.94 226.968 L1286.94 232.848 L1282.06 232.848 L1282.06 226.968 Z" fill="#000000" fill-rule="nonzero" fill-opacity="1" /><path clip-path="url(#clip130)" d="M1297.94 228.913 L1305.58 228.913 L1305.58 202.547 L1297.27 204.214 L1297.27 199.955 L1305.53 198.288 L1310.2 198.288 L1310.2 228.913 L1317.84 228.913 L1317.84 232.848 L1297.94 232.848 L1297.94 228.913 Z" fill="#000000" fill-rule="nonzero" fill-opacity="1" /><path clip-path="url(#clip130)" d="M1337.29 201.367 Q1333.68 201.367 1331.85 204.931 Q1330.04 208.473 1330.04 215.603 Q1330.04 222.709 1331.85 226.274 Q1333.68 229.816 1337.29 229.816 Q1340.92 229.816 1342.73 226.274 Q1344.56 222.709 1344.56 215.603 Q1344.56 208.473 1342.73 204.931 Q1340.92 201.367 1337.29 201.367 M1337.29 197.663 Q1343.1 197.663 1346.15 202.269 Q1349.23 206.853 1349.23 215.603 Q1349.23 224.33 1346.15 228.936 Q1343.1 233.519 1337.29 233.519 Q1331.48 233.519 1328.4 228.936 Q1325.34 224.33 1325.34 215.603 Q1325.34 206.853 1328.4 202.269 Q1331.48 197.663 1337.29 197.663 Z" fill="#000000" fill-rule="nonzero" fill-opacity="1" /><path clip-path="url(#clip130)" d="M1367.45 201.367 Q1363.84 201.367 1362.01 204.931 Q1360.2 208.473 1360.2 215.603 Q1360.2 222.709 1362.01 226.274 Q1363.84 229.816 1367.45 229.816 Q1371.08 229.816 1372.89 226.274 Q1374.72 222.709 1374.72 215.603 Q1374.72 208.473 1372.89 204.931 Q1371.08 201.367 1367.45 201.367 M1367.45 197.663 Q1373.26 197.663 1376.32 202.269 Q1379.39 206.853 1379.39 215.603 Q1379.39 224.33 1376.32 228.936 Q1373.26 233.519 1367.45 233.519 Q1361.64 233.519 1358.56 228.936 Q1355.51 224.33 1355.51 215.603 Q1355.51 206.853 1358.56 202.269 Q1361.64 197.663 1367.45 197.663 Z" fill="#000000" fill-rule="nonzero" fill-opacity="1" /><path clip-path="url(#clip130)" d="M1743.36 31.7342 Q1743.36 26.5259 1741.2 23.6613 Q1739.06 20.7968 1735.18 20.7968 Q1731.33 20.7968 1729.17 23.6613 Q1727.03 26.5259 1727.03 31.7342 Q1727.03 36.9165 1729.17 39.781 Q1731.33 42.6456 1735.18 42.6456 Q1739.06 42.6456 1741.2 39.781 Q1743.36 36.9165 1743.36 31.7342 M1748.15 43.0362 Q1748.15 50.4841 1744.84 54.1039 Q1741.54 57.7497 1734.71 57.7497 Q1732.19 57.7497 1729.95 57.3591 Q1727.71 56.9945 1725.6 56.2132 L1725.6 51.5518 Q1727.71 52.6976 1729.77 53.2445 Q1731.82 53.7914 1733.96 53.7914 Q1738.67 53.7914 1741.02 51.3174 Q1743.36 48.8695 1743.36 43.8956 L1743.36 41.5258 Q1741.88 44.1039 1739.56 45.38 Q1737.24 46.656 1734.01 46.656 Q1728.65 46.656 1725.36 42.5675 Q1722.08 38.479 1722.08 31.7342 Q1722.08 24.9634 1725.36 20.8749 Q1728.65 16.7864 1734.01 16.7864 Q1737.24 16.7864 1739.56 18.0624 Q1741.88 19.3384 1743.36 21.9165 L1743.36 17.4895 L1748.15 17.4895 L1748.15 43.0362 Z" fill="#000000" fill-rule="nonzero" fill-opacity="1" /><path clip-path="url(#clip130)" d="M1777.21 21.9165 L1777.21 6.13538 L1782.01 6.13538 L1782.01 46.656 L1777.21 46.656 L1777.21 42.281 Q1775.7 44.8852 1773.39 46.1612 Q1771.09 47.4112 1767.86 47.4112 Q1762.58 47.4112 1759.25 43.1925 Q1755.94 38.9737 1755.94 32.0988 Q1755.94 25.2238 1759.25 21.0051 Q1762.58 16.7864 1767.86 16.7864 Q1771.09 16.7864 1773.39 18.0624 Q1775.7 19.3124 1777.21 21.9165 M1760.89 32.0988 Q1760.89 37.3852 1763.05 40.406 Q1765.23 43.4008 1769.04 43.4008 Q1772.84 43.4008 1775.03 40.406 Q1777.21 37.3852 1777.21 32.0988 Q1777.21 26.8124 1775.03 23.8176 Q1772.84 20.7968 1769.04 20.7968 Q1765.23 20.7968 1763.05 23.8176 Q1760.89 26.8124 1760.89 32.0988 Z" fill="#000000" fill-rule="nonzero" fill-opacity="1" /><path clip-path="url(#clip130)" d="M1796.51 42.281 L1796.51 57.7497 L1791.69 57.7497 L1791.69 17.4895 L1796.51 17.4895 L1796.51 21.9165 Q1798.02 19.3124 1800.31 18.0624 Q1802.63 16.7864 1805.83 16.7864 Q1811.15 16.7864 1814.45 21.0051 Q1817.79 25.2238 1817.79 32.0988 Q1817.79 38.9737 1814.45 43.1925 Q1811.15 47.4112 1805.83 47.4112 Q1802.63 47.4112 1800.31 46.1612 Q1798.02 44.8852 1796.51 42.281 M1812.81 32.0988 Q1812.81 26.8124 1810.62 23.8176 Q1808.46 20.7968 1804.66 20.7968 Q1800.86 20.7968 1798.67 23.8176 Q1796.51 26.8124 1796.51 32.0988 Q1796.51 37.3852 1798.67 40.406 Q1800.86 43.4008 1804.66 43.4008 Q1808.46 43.4008 1810.62 40.406 Q1812.81 37.3852 1812.81 32.0988 Z" fill="#000000" fill-rule="nonzero" fill-opacity="1" /><path clip-path="url(#clip130)" d="M1861.87 21.9165 L1861.87 6.13538 L1866.67 6.13538 L1866.67 46.656 L1861.87 46.656 L1861.87 42.281 Q1860.36 44.8852 1858.05 46.1612 Q1855.75 47.4112 1852.53 47.4112 Q1847.24 47.4112 1843.91 43.1925 Q1840.6 38.9737 1840.6 32.0988 Q1840.6 25.2238 1843.91 21.0051 Q1847.24 16.7864 1852.53 16.7864 Q1855.75 16.7864 1858.05 18.0624 Q1860.36 19.3124 1861.87 21.9165 M1845.55 32.0988 Q1845.55 37.3852 1847.71 40.406 Q1849.9 43.4008 1853.7 43.4008 Q1857.5 43.4008 1859.69 40.406 Q1861.87 37.3852 1861.87 32.0988 Q1861.87 26.8124 1859.69 23.8176 Q1857.5 20.7968 1853.7 20.7968 Q1849.9 20.7968 1847.71 23.8176 Q1845.55 26.8124 1845.55 32.0988 Z" fill="#000000" fill-rule="nonzero" fill-opacity="1" /><path clip-path="url(#clip130)" d="M1901.48 30.8748 L1901.48 33.2186 L1879.45 33.2186 Q1879.77 38.1665 1882.42 40.7706 Q1885.1 43.3487 1889.87 43.3487 Q1892.63 43.3487 1895.21 42.6716 Q1897.81 41.9946 1900.36 40.6404 L1900.36 45.1716 Q1897.79 46.2654 1895.08 46.8383 Q1892.37 47.4112 1889.58 47.4112 Q1882.6 47.4112 1878.52 43.3487 Q1874.45 39.2862 1874.45 32.3592 Q1874.45 25.1978 1878.31 21.0051 Q1882.19 16.7864 1888.75 16.7864 Q1894.63 16.7864 1898.05 20.5884 Q1901.48 24.3645 1901.48 30.8748 M1896.69 29.4686 Q1896.64 25.5363 1894.48 23.1926 Q1892.34 20.8488 1888.8 20.8488 Q1884.79 20.8488 1882.37 23.1145 Q1879.97 25.3801 1879.61 29.4946 L1896.69 29.4686 Z" fill="#000000" fill-rule="nonzero" fill-opacity="1" /><path clip-path="url(#clip130)" d="M1924.11 6.13538 L1924.11 10.1197 L1919.53 10.1197 Q1916.95 10.1197 1915.94 11.1614 Q1914.95 12.2031 1914.95 14.9114 L1914.95 17.4895 L1922.84 17.4895 L1922.84 21.2134 L1914.95 21.2134 L1914.95 46.656 L1910.13 46.656 L1910.13 21.2134 L1905.55 21.2134 L1905.55 17.4895 L1910.13 17.4895 L1910.13 15.4583 Q1910.13 10.5885 1912.4 8.37496 Q1914.66 6.13538 1919.58 6.13538 L1924.11 6.13538 Z" fill="#000000" fill-rule="nonzero" fill-opacity="1" /><path clip-path="url(#clip130)" d="M1928.12 6.13538 L1932.92 6.13538 L1932.92 46.656 L1928.12 46.656 L1928.12 6.13538 Z" fill="#000000" fill-rule="nonzero" fill-opacity="1" /><path clip-path="url(#clip130)" d="M1956.2 31.9946 Q1950.39 31.9946 1948.15 33.3227 Q1945.91 34.6509 1945.91 37.854 Q1945.91 40.406 1947.58 41.9164 Q1949.27 43.4008 1952.16 43.4008 Q1956.14 43.4008 1958.54 40.5883 Q1960.96 37.7498 1960.96 33.0623 L1960.96 31.9946 L1956.2 31.9946 M1965.75 30.0155 L1965.75 46.656 L1960.96 46.656 L1960.96 42.2289 Q1959.32 44.8852 1956.87 46.1612 Q1954.43 47.4112 1950.88 47.4112 Q1946.41 47.4112 1943.75 44.9112 Q1941.12 42.3852 1941.12 38.1665 Q1941.12 33.2446 1944.4 30.7446 Q1947.71 28.2446 1954.24 28.2446 L1960.96 28.2446 L1960.96 27.7759 Q1960.96 24.4686 1958.78 22.6718 Q1956.61 20.8488 1952.68 20.8488 Q1950.18 20.8488 1947.81 21.4478 Q1945.44 22.0468 1943.25 23.2447 L1943.25 18.8176 Q1945.88 17.802 1948.36 17.3072 Q1950.83 16.7864 1953.18 16.7864 Q1959.5 16.7864 1962.63 20.0676 Q1965.75 23.3488 1965.75 30.0155 Z" fill="#000000" fill-rule="nonzero" fill-opacity="1" /><path clip-path="url(#clip130)" d="M1980.36 9.20828 L1980.36 17.4895 L1990.23 17.4895 L1990.23 21.2134 L1980.36 21.2134 L1980.36 37.0467 Q1980.36 40.6144 1981.33 41.63 Q1982.32 42.6456 1985.31 42.6456 L1990.23 42.6456 L1990.23 46.656 L1985.31 46.656 Q1979.76 46.656 1977.66 44.5987 Q1975.55 42.5154 1975.55 37.0467 L1975.55 21.2134 L1972.03 21.2134 L1972.03 17.4895 L1975.55 17.4895 L1975.55 9.20828 L1980.36 9.20828 Z" fill="#000000" fill-rule="nonzero" fill-opacity="1" /><path clip-path="url(#clip130)" d="M2007.84 20.8488 Q2003.98 20.8488 2001.74 23.8697 Q1999.5 26.8644 1999.5 32.0988 Q1999.5 37.3331 2001.72 40.354 Q2003.96 43.3487 2007.84 43.3487 Q2011.67 43.3487 2013.91 40.3279 Q2016.14 37.3071 2016.14 32.0988 Q2016.14 26.9165 2013.91 23.8957 Q2011.67 20.8488 2007.84 20.8488 M2007.84 16.7864 Q2014.09 16.7864 2017.66 20.8488 Q2021.22 24.9113 2021.22 32.0988 Q2021.22 39.2602 2017.66 43.3487 Q2014.09 47.4112 2007.84 47.4112 Q2001.56 47.4112 1997.99 43.3487 Q1994.45 39.2602 1994.45 32.0988 Q1994.45 24.9113 1997.99 20.8488 Q2001.56 16.7864 2007.84 16.7864 Z" fill="#000000" fill-rule="nonzero" fill-opacity="1" /><path clip-path="url(#clip130)" d="M2046.07 21.9686 Q2045.26 21.4999 2044.3 21.2916 Q2043.36 21.0572 2042.21 21.0572 Q2038.15 21.0572 2035.96 23.7134 Q2033.8 26.3436 2033.8 31.2915 L2033.8 46.656 L2028.98 46.656 L2028.98 17.4895 L2033.8 17.4895 L2033.8 22.0207 Q2035.31 19.3645 2037.73 18.0884 Q2040.15 16.7864 2043.62 16.7864 Q2044.11 16.7864 2044.71 16.8645 Q2045.31 16.9166 2046.04 17.0468 L2046.07 21.9686 Z" fill="#000000" fill-rule="nonzero" fill-opacity="1" /><path clip-path="url(#clip133)" d="M1526.14 1040.72 L1568.25 1070.56 L1610.36 1042.49 L1652.47 1028.71 L1694.58 962.56 L1736.69 917.404 L1778.8 889.171 L1820.91 878.157 L1863.02 839.904 L1905.13 793.767 L1947.24 773.416 L1989.35 724.827 L2031.46 694.75 L2073.57 689.021 L2115.68 683.181 L2157.79 690.761 L2199.9 679.891 L2242.01 683.54 L2284.12 656.04 L2326.23 676.617 L2326.23 328.776 L2284.12 363.218 L2242.01 376.603 L2199.9 414.028 L2157.79 482.856 L2115.68 532.624 L2073.57 549.494 L2031.46 585.207 L1989.35 612.776 L1947.24 612.922 L1905.13 687.894 L1863.02 737.41 L1820.91 713.285 L1778.8 694.129 L1736.69 714.667 L1694.58 758.373 L1652.47 822.492 L1610.36 881.517 L1568.25 939.852 L1526.14 998.552  Z" fill="#009af9" fill-rule="evenodd" fill-opacity="0.1"/>
<polyline clip-path="url(#clip133)" style="stroke:#009af9; stroke-linecap:round; stroke-linejoin:round; stroke-width:4; stroke-opacity:1; fill:none" points="1526.14,1019.64 1568.25,1005.21 1610.36,962.004 1652.47,925.599 1694.58,860.467 1736.69,816.036 1778.8,791.65 1820.91,795.721 1863.02,788.657 1905.13,740.831 1947.24,693.169 1989.35,668.802 2031.46,639.978 2073.57,619.258 2115.68,607.903 2157.79,586.808 2199.9,546.96 2242.01,530.071 2284.12,509.629 2326.23,502.697 "/>
<path clip-path="url(#clip133)" d="M1526.14 1070.59 L1568.25 1068.38 L1610.36 1070.57 L1652.47 1043.27 L1694.58 1064.79 L1736.69 1048.35 L1778.8 1031.15 L1820.91 1040.5 L1863.02 965.844 L1905.13 935.235 L1947.24 892.682 L1989.35 853.958 L2031.46 867.268 L2073.57 839.148 L2115.68 811.156 L2157.79 842.58 L2199.9 818.287 L2242.01 740.07 L2284.12 756.446 L2326.23 765.402 L2326.23 120.65 L2284.12 123.699 L2242.01 205.656 L2199.9 240.538 L2157.79 237.559 L2115.68 300.853 L2073.57 356.18 L2031.46 408.184 L1989.35 425.87 L1947.24 467.638 L1905.13 551.85 L1863.02 554.141 L1820.91 588.511 L1778.8 642.098 L1736.69 663.156 L1694.58 713.206 L1652.47 787.633 L1610.36 832.143 L1568.25 912.59 L1526.14 973.535  Z" fill="#e26f46" fill-rule="evenodd" fill-opacity="0.1"/>
<polyline clip-path="url(#clip133)" style="stroke:#e26f46; stroke-linecap:round; stroke-linejoin:round; stroke-width:4; stroke-opacity:1; fill:none" points="1526.14,1022.06 1568.25,990.487 1610.36,951.354 1652.47,915.451 1694.58,888.998 1736.69,855.751 1778.8,836.622 1820.91,814.506 1863.02,759.992 1905.13,743.543 1947.24,680.16 1989.35,639.914 2031.46,637.726 2073.57,597.664 2115.68,556.005 2157.79,540.07 2199.9,529.413 2242.01,472.863 2284.12,440.073 2326.23,443.026 "/>
</svg>
