<?xml version="1.0" encoding="utf-8"?>
<svg xmlns="http://www.w3.org/2000/svg" xmlns:xlink="http://www.w3.org/1999/xlink" width="600" height="400" viewBox="0 0 2400 1600">
<defs>
  <clipPath id="clip770">
    <rect x="0" y="0" width="2400" height="1600"/>
  </clipPath>
</defs>
<path clip-path="url(#clip770)" d="M0 1600 L2400 1600 L2400 0 L0 0  Z" fill="#ffffff" fill-rule="evenodd" fill-opacity="1"/>
<defs>
  <clipPath id="clip771">
    <rect x="480" y="0" width="1681" height="1600"/>
  </clipPath>
</defs>
<path clip-path="url(#clip770)" d="M230.765 1486.45 L2352.76 1486.45 L2352.76 106.192 L230.765 106.192  Z" fill="#ffffff" fill-rule="evenodd" fill-opacity="1"/>
<defs>
  <clipPath id="clip772">
    <rect x="230" y="106" width="2123" height="1381"/>
  </clipPath>
</defs>
<polyline clip-path="url(#clip772)" style="stroke:#000000; stroke-linecap:round; stroke-linejoin:round; stroke-width:2; stroke-opacity:0.1; fill:none" points="541.056,1486.45 541.056,106.192 "/>
<polyline clip-path="url(#clip772)" style="stroke:#000000; stroke-linecap:round; stroke-linejoin:round; stroke-width:2; stroke-opacity:0.1; fill:none" points="916.408,1486.45 916.408,106.192 "/>
<polyline clip-path="url(#clip772)" style="stroke:#000000; stroke-linecap:round; stroke-linejoin:round; stroke-width:2; stroke-opacity:0.1; fill:none" points="1291.76,1486.45 1291.76,106.192 "/>
<polyline clip-path="url(#clip772)" style="stroke:#000000; stroke-linecap:round; stroke-linejoin:round; stroke-width:2; stroke-opacity:0.1; fill:none" points="1667.11,1486.45 1667.11,106.192 "/>
<polyline clip-path="url(#clip772)" style="stroke:#000000; stroke-linecap:round; stroke-linejoin:round; stroke-width:2; stroke-opacity:0.1; fill:none" points="2042.46,1486.45 2042.46,106.192 "/>
<polyline clip-path="url(#clip772)" style="stroke:#000000; stroke-linecap:round; stroke-linejoin:round; stroke-width:2; stroke-opacity:0.1; fill:none" points="230.765,1390.73 2352.76,1390.73 "/>
<polyline clip-path="url(#clip772)" style="stroke:#000000; stroke-linecap:round; stroke-linejoin:round; stroke-width:2; stroke-opacity:0.1; fill:none" points="230.765,1106.68 2352.76,1106.68 "/>
<polyline clip-path="url(#clip772)" style="stroke:#000000; stroke-linecap:round; stroke-linejoin:round; stroke-width:2; stroke-opacity:0.1; fill:none" points="230.765,822.625 2352.76,822.625 "/>
<polyline clip-path="url(#clip772)" style="stroke:#000000; stroke-linecap:round; stroke-linejoin:round; stroke-width:2; stroke-opacity:0.1; fill:none" points="230.765,538.572 2352.76,538.572 "/>
<polyline clip-path="url(#clip772)" style="stroke:#000000; stroke-linecap:round; stroke-linejoin:round; stroke-width:2; stroke-opacity:0.1; fill:none" points="230.765,254.519 2352.76,254.519 "/>
<polyline clip-path="url(#clip770)" style="stroke:#000000; stroke-linecap:round; stroke-linejoin:round; stroke-width:4; stroke-opacity:1; fill:none" points="230.765,1486.45 2352.76,1486.45 "/>
<polyline clip-path="url(#clip770)" style="stroke:#000000; stroke-linecap:round; stroke-linejoin:round; stroke-width:4; stroke-opacity:1; fill:none" points="541.056,1486.45 541.056,1467.55 "/>
<polyline clip-path="url(#clip770)" style="stroke:#000000; stroke-linecap:round; stroke-linejoin:round; stroke-width:4; stroke-opacity:1; fill:none" points="916.408,1486.45 916.408,1467.55 "/>
<polyline clip-path="url(#clip770)" style="stroke:#000000; stroke-linecap:round; stroke-linejoin:round; stroke-width:4; stroke-opacity:1; fill:none" points="1291.76,1486.45 1291.76,1467.55 "/>
<polyline clip-path="url(#clip770)" style="stroke:#000000; stroke-linecap:round; stroke-linejoin:round; stroke-width:4; stroke-opacity:1; fill:none" points="1667.11,1486.45 1667.11,1467.55 "/>
<polyline clip-path="url(#clip770)" style="stroke:#000000; stroke-linecap:round; stroke-linejoin:round; stroke-width:4; stroke-opacity:1; fill:none" points="2042.46,1486.45 2042.46,1467.55 "/>
<path clip-path="url(#clip770)" d="M545.303 1530.21 Q548.66 1530.93 550.535 1533.2 Q552.433 1535.47 552.433 1538.8 Q552.433 1543.92 548.914 1546.72 Q545.396 1549.52 538.915 1549.52 Q536.739 1549.52 534.424 1549.08 Q532.132 1548.66 529.678 1547.81 L529.678 1543.29 Q531.623 1544.43 533.938 1545.01 Q536.252 1545.58 538.776 1545.58 Q543.174 1545.58 545.465 1543.85 Q547.78 1542.11 547.78 1538.8 Q547.78 1535.75 545.627 1534.03 Q543.498 1532.3 539.678 1532.3 L535.651 1532.3 L535.651 1528.45 L539.864 1528.45 Q543.313 1528.45 545.141 1527.09 Q546.97 1525.7 546.97 1523.11 Q546.97 1520.45 545.072 1519.03 Q543.197 1517.6 539.678 1517.6 Q537.757 1517.6 535.558 1518.01 Q533.359 1518.43 530.72 1519.31 L530.72 1515.14 Q533.382 1514.4 535.697 1514.03 Q538.035 1513.66 540.095 1513.66 Q545.419 1513.66 548.521 1516.09 Q551.623 1518.5 551.623 1522.62 Q551.623 1525.49 549.979 1527.48 Q548.336 1529.45 545.303 1530.21 Z" fill="#000000" fill-rule="nonzero" fill-opacity="1" /><path clip-path="url(#clip770)" d="M916.813 1529.7 Q913.665 1529.7 911.813 1531.86 Q909.984 1534.01 909.984 1537.76 Q909.984 1541.49 911.813 1543.66 Q913.665 1545.82 916.813 1545.82 Q919.961 1545.82 921.79 1543.66 Q923.642 1541.49 923.642 1537.76 Q923.642 1534.01 921.79 1531.86 Q919.961 1529.7 916.813 1529.7 M926.095 1515.05 L926.095 1519.31 Q924.336 1518.48 922.531 1518.04 Q920.748 1517.6 918.989 1517.6 Q914.359 1517.6 911.906 1520.72 Q909.475 1523.85 909.128 1530.17 Q910.494 1528.15 912.554 1527.09 Q914.614 1526 917.091 1526 Q922.299 1526 925.308 1529.17 Q928.341 1532.32 928.341 1537.76 Q928.341 1543.08 925.193 1546.3 Q922.044 1549.52 916.813 1549.52 Q910.818 1549.52 907.646 1544.94 Q904.475 1540.33 904.475 1531.6 Q904.475 1523.41 908.364 1518.55 Q912.253 1513.66 918.804 1513.66 Q920.563 1513.66 922.345 1514.01 Q924.151 1514.36 926.095 1515.05 Z" fill="#000000" fill-rule="nonzero" fill-opacity="1" /><path clip-path="url(#clip770)" d="M1282.06 1548.13 L1282.06 1543.87 Q1283.82 1544.7 1285.63 1545.14 Q1287.43 1545.58 1289.17 1545.58 Q1293.8 1545.58 1296.23 1542.48 Q1298.68 1539.36 1299.03 1533.01 Q1297.69 1535.01 1295.63 1536.07 Q1293.57 1537.13 1291.07 1537.13 Q1285.88 1537.13 1282.85 1534.01 Q1279.84 1530.86 1279.84 1525.42 Q1279.84 1520.1 1282.99 1516.88 Q1286.14 1513.66 1291.37 1513.66 Q1297.36 1513.66 1300.51 1518.27 Q1303.68 1522.85 1303.68 1531.6 Q1303.68 1539.77 1299.79 1544.66 Q1295.93 1549.52 1289.38 1549.52 Q1287.62 1549.52 1285.81 1549.17 Q1284.01 1548.82 1282.06 1548.13 M1291.37 1533.48 Q1294.51 1533.48 1296.34 1531.32 Q1298.2 1529.17 1298.2 1525.42 Q1298.2 1521.7 1296.34 1519.54 Q1294.51 1517.37 1291.37 1517.37 Q1288.22 1517.37 1286.37 1519.54 Q1284.54 1521.7 1284.54 1525.42 Q1284.54 1529.17 1286.37 1531.32 Q1288.22 1533.48 1291.37 1533.48 Z" fill="#000000" fill-rule="nonzero" fill-opacity="1" /><path clip-path="url(#clip770)" d="M1642.6 1544.91 L1650.24 1544.91 L1650.24 1518.55 L1641.93 1520.21 L1641.93 1515.95 L1650.19 1514.29 L1654.87 1514.29 L1654.87 1544.91 L1662.51 1544.91 L1662.51 1548.85 L1642.6 1548.85 L1642.6 1544.91 Z" fill="#000000" fill-rule="nonzero" fill-opacity="1" /><path clip-path="url(#clip770)" d="M1675.98 1544.91 L1692.3 1544.91 L1692.3 1548.85 L1670.35 1548.85 L1670.35 1544.91 Q1673.02 1542.16 1677.6 1537.53 Q1682.2 1532.88 1683.39 1531.53 Q1685.63 1529.01 1686.51 1527.27 Q1687.41 1525.51 1687.41 1523.82 Q1687.41 1521.07 1685.47 1519.33 Q1683.55 1517.6 1680.45 1517.6 Q1678.25 1517.6 1675.79 1518.36 Q1673.36 1519.13 1670.58 1520.68 L1670.58 1515.95 Q1673.41 1514.82 1675.86 1514.24 Q1678.32 1513.66 1680.35 1513.66 Q1685.72 1513.66 1688.92 1516.35 Q1692.11 1519.03 1692.11 1523.52 Q1692.11 1525.65 1691.3 1527.57 Q1690.52 1529.47 1688.41 1532.07 Q1687.83 1532.74 1684.73 1535.95 Q1681.63 1539.15 1675.98 1544.91 Z" fill="#000000" fill-rule="nonzero" fill-opacity="1" /><path clip-path="url(#clip770)" d="M2017.65 1544.91 L2025.29 1544.91 L2025.29 1518.55 L2016.98 1520.21 L2016.98 1515.95 L2025.24 1514.29 L2029.92 1514.29 L2029.92 1544.91 L2037.56 1544.91 L2037.56 1548.85 L2017.65 1548.85 L2017.65 1544.91 Z" fill="#000000" fill-rule="nonzero" fill-opacity="1" /><path clip-path="url(#clip770)" d="M2047.05 1514.29 L2065.4 1514.29 L2065.4 1518.22 L2051.33 1518.22 L2051.33 1526.7 Q2052.35 1526.35 2053.37 1526.19 Q2054.39 1526 2055.4 1526 Q2061.19 1526 2064.57 1529.17 Q2067.95 1532.34 2067.95 1537.76 Q2067.95 1543.34 2064.48 1546.44 Q2061.01 1549.52 2054.69 1549.52 Q2052.51 1549.52 2050.24 1549.15 Q2048 1548.78 2045.59 1548.04 L2045.59 1543.34 Q2047.67 1544.47 2049.9 1545.03 Q2052.12 1545.58 2054.59 1545.58 Q2058.6 1545.58 2060.94 1543.48 Q2063.27 1541.37 2063.27 1537.76 Q2063.27 1534.15 2060.94 1532.04 Q2058.6 1529.94 2054.59 1529.94 Q2052.72 1529.94 2050.84 1530.35 Q2048.99 1530.77 2047.05 1531.65 L2047.05 1514.29 Z" fill="#000000" fill-rule="nonzero" fill-opacity="1" /><polyline clip-path="url(#clip770)" style="stroke:#000000; stroke-linecap:round; stroke-linejoin:round; stroke-width:4; stroke-opacity:1; fill:none" points="230.765,1486.45 230.765,106.192 "/>
<polyline clip-path="url(#clip770)" style="stroke:#000000; stroke-linecap:round; stroke-linejoin:round; stroke-width:4; stroke-opacity:1; fill:none" points="230.765,1390.73 249.662,1390.73 "/>
<polyline clip-path="url(#clip770)" style="stroke:#000000; stroke-linecap:round; stroke-linejoin:round; stroke-width:4; stroke-opacity:1; fill:none" points="230.765,1106.68 249.662,1106.68 "/>
<polyline clip-path="url(#clip770)" style="stroke:#000000; stroke-linecap:round; stroke-linejoin:round; stroke-width:4; stroke-opacity:1; fill:none" points="230.765,822.625 249.662,822.625 "/>
<polyline clip-path="url(#clip770)" style="stroke:#000000; stroke-linecap:round; stroke-linejoin:round; stroke-width:4; stroke-opacity:1; fill:none" points="230.765,538.572 249.662,538.572 "/>
<polyline clip-path="url(#clip770)" style="stroke:#000000; stroke-linecap:round; stroke-linejoin:round; stroke-width:4; stroke-opacity:1; fill:none" points="230.765,254.519 249.662,254.519 "/>
<path clip-path="url(#clip770)" d="M50.9921 1373.45 L73.2142 1373.45 L73.2142 1375.44 L60.668 1408.01 L55.7838 1408.01 L67.5893 1377.39 L50.9921 1377.39 L50.9921 1373.45 Z" fill="#000000" fill-rule="nonzero" fill-opacity="1" /><path clip-path="url(#clip770)" d="M86.3623 1404.08 L102.682 1404.08 L102.682 1408.01 L80.7373 1408.01 L80.7373 1404.08 Q83.3994 1401.32 87.9827 1396.69 Q92.5891 1392.04 93.7697 1390.7 Q96.015 1388.17 96.8947 1386.44 Q97.7974 1384.68 97.7974 1382.99 Q97.7974 1380.23 95.853 1378.5 Q93.9317 1376.76 90.8299 1376.76 Q88.6308 1376.76 86.1771 1377.52 Q83.7466 1378.29 80.9688 1379.84 L80.9688 1375.12 Q83.7929 1373.98 86.2466 1373.4 Q88.7003 1372.83 90.7373 1372.83 Q96.1076 1372.83 99.3021 1375.51 Q102.496 1378.2 102.496 1382.69 Q102.496 1384.82 101.686 1386.74 Q100.899 1388.64 98.7928 1391.23 Q98.2141 1391.9 95.1123 1395.12 Q92.0104 1398.31 86.3623 1404.08 Z" fill="#000000" fill-rule="nonzero" fill-opacity="1" /><path clip-path="url(#clip770)" d="M122.496 1376.53 Q118.885 1376.53 117.057 1380.09 Q115.251 1383.64 115.251 1390.77 Q115.251 1397.87 117.057 1401.44 Q118.885 1404.98 122.496 1404.98 Q126.131 1404.98 127.936 1401.44 Q129.765 1397.87 129.765 1390.77 Q129.765 1383.64 127.936 1380.09 Q126.131 1376.53 122.496 1376.53 M122.496 1372.83 Q128.307 1372.83 131.362 1377.43 Q134.441 1382.02 134.441 1390.77 Q134.441 1399.49 131.362 1404.1 Q128.307 1408.68 122.496 1408.68 Q116.686 1408.68 113.608 1404.1 Q110.552 1399.49 110.552 1390.77 Q110.552 1382.02 113.608 1377.43 Q116.686 1372.83 122.496 1372.83 Z" fill="#000000" fill-rule="nonzero" fill-opacity="1" /><path clip-path="url(#clip770)" d="M152.658 1376.53 Q149.047 1376.53 147.218 1380.09 Q145.413 1383.64 145.413 1390.77 Q145.413 1397.87 147.218 1401.44 Q149.047 1404.98 152.658 1404.98 Q156.292 1404.98 158.098 1401.44 Q159.927 1397.87 159.927 1390.77 Q159.927 1383.64 158.098 1380.09 Q156.292 1376.53 152.658 1376.53 M152.658 1372.83 Q158.468 1372.83 161.524 1377.43 Q164.603 1382.02 164.603 1390.77 Q164.603 1399.49 161.524 1404.1 Q158.468 1408.68 152.658 1408.68 Q146.848 1408.68 143.769 1404.1 Q140.714 1399.49 140.714 1390.77 Q140.714 1382.02 143.769 1377.43 Q146.848 1372.83 152.658 1372.83 Z" fill="#000000" fill-rule="nonzero" fill-opacity="1" /><path clip-path="url(#clip770)" d="M182.82 1376.53 Q179.209 1376.53 177.38 1380.09 Q175.575 1383.64 175.575 1390.77 Q175.575 1397.87 177.38 1401.44 Q179.209 1404.98 182.82 1404.98 Q186.454 1404.98 188.26 1401.44 Q190.089 1397.87 190.089 1390.77 Q190.089 1383.64 188.26 1380.09 Q186.454 1376.53 182.82 1376.53 M182.82 1372.83 Q188.63 1372.83 191.686 1377.43 Q194.765 1382.02 194.765 1390.77 Q194.765 1399.49 191.686 1404.1 Q188.63 1408.68 182.82 1408.68 Q177.01 1408.68 173.931 1404.1 Q170.876 1399.49 170.876 1390.77 Q170.876 1382.02 173.931 1377.43 Q177.01 1372.83 182.82 1372.83 Z" fill="#000000" fill-rule="nonzero" fill-opacity="1" /><path clip-path="url(#clip770)" d="M50.9921 1089.4 L73.2142 1089.4 L73.2142 1091.39 L60.668 1123.96 L55.7838 1123.96 L67.5893 1093.33 L50.9921 1093.33 L50.9921 1089.4 Z" fill="#000000" fill-rule="nonzero" fill-opacity="1" /><path clip-path="url(#clip770)" d="M96.5011 1105.32 Q99.8576 1106.04 101.733 1108.31 Q103.631 1110.58 103.631 1113.91 Q103.631 1119.03 100.112 1121.83 Q96.5937 1124.63 90.1123 1124.63 Q87.9364 1124.63 85.6216 1124.19 Q83.3299 1123.77 80.8762 1122.92 L80.8762 1118.4 Q82.8207 1119.54 85.1355 1120.12 Q87.4503 1120.69 89.9734 1120.69 Q94.3715 1120.69 96.6632 1118.96 Q98.978 1117.22 98.978 1113.91 Q98.978 1110.86 96.8252 1109.14 Q94.6956 1107.41 90.8762 1107.41 L86.8484 1107.41 L86.8484 1103.56 L91.0614 1103.56 Q94.5104 1103.56 96.3391 1102.2 Q98.1678 1100.81 98.1678 1098.22 Q98.1678 1095.56 96.2697 1094.14 Q94.3947 1092.71 90.8762 1092.71 Q88.9549 1092.71 86.7558 1093.12 Q84.5568 1093.54 81.9179 1094.42 L81.9179 1090.25 Q84.5799 1089.51 86.8947 1089.14 Q89.2327 1088.77 91.2928 1088.77 Q96.6169 1088.77 99.7187 1091.2 Q102.821 1093.61 102.821 1097.73 Q102.821 1100.6 101.177 1102.59 Q99.5335 1104.56 96.5011 1105.32 Z" fill="#000000" fill-rule="nonzero" fill-opacity="1" /><path clip-path="url(#clip770)" d="M122.496 1092.48 Q118.885 1092.48 117.057 1096.04 Q115.251 1099.58 115.251 1106.71 Q115.251 1113.82 117.057 1117.38 Q118.885 1120.93 122.496 1120.93 Q126.131 1120.93 127.936 1117.38 Q129.765 1113.82 129.765 1106.71 Q129.765 1099.58 127.936 1096.04 Q126.131 1092.48 122.496 1092.48 M122.496 1088.77 Q128.307 1088.77 131.362 1093.38 Q134.441 1097.96 134.441 1106.71 Q134.441 1115.44 131.362 1120.05 Q128.307 1124.63 122.496 1124.63 Q116.686 1124.63 113.608 1120.05 Q110.552 1115.44 110.552 1106.71 Q110.552 1097.96 113.608 1093.38 Q116.686 1088.77 122.496 1088.77 Z" fill="#000000" fill-rule="nonzero" fill-opacity="1" /><path clip-path="url(#clip770)" d="M152.658 1092.48 Q149.047 1092.48 147.218 1096.04 Q145.413 1099.58 145.413 1106.71 Q145.413 1113.82 147.218 1117.38 Q149.047 1120.93 152.658 1120.93 Q156.292 1120.93 158.098 1117.38 Q159.927 1113.82 159.927 1106.71 Q159.927 1099.58 158.098 1096.04 Q156.292 1092.48 152.658 1092.48 M152.658 1088.77 Q158.468 1088.77 161.524 1093.38 Q164.603 1097.96 164.603 1106.71 Q164.603 1115.44 161.524 1120.05 Q158.468 1124.63 152.658 1124.63 Q146.848 1124.63 143.769 1120.05 Q140.714 1115.44 140.714 1106.71 Q140.714 1097.96 143.769 1093.38 Q146.848 1088.77 152.658 1088.77 Z" fill="#000000" fill-rule="nonzero" fill-opacity="1" /><path clip-path="url(#clip770)" d="M182.82 1092.48 Q179.209 1092.48 177.38 1096.04 Q175.575 1099.58 175.575 1106.71 Q175.575 1113.82 177.38 1117.38 Q179.209 1120.93 182.82 1120.93 Q186.454 1120.93 188.26 1117.38 Q190.089 1113.82 190.089 1106.71 Q190.089 1099.58 188.26 1096.04 Q186.454 1092.48 182.82 1092.48 M182.82 1088.77 Q188.63 1088.77 191.686 1093.38 Q194.765 1097.96 194.765 1106.71 Q194.765 1115.44 191.686 1120.05 Q188.63 1124.63 182.82 1124.63 Q177.01 1124.63 173.931 1120.05 Q170.876 1115.44 170.876 1106.71 Q170.876 1097.96 173.931 1093.38 Q177.01 1088.77 182.82 1088.77 Z" fill="#000000" fill-rule="nonzero" fill-opacity="1" /><path clip-path="url(#clip770)" d="M50.9921 805.345 L73.2142 805.345 L73.2142 807.336 L60.668 839.905 L55.7838 839.905 L67.5893 809.28 L50.9921 809.28 L50.9921 805.345 Z" fill="#000000" fill-rule="nonzero" fill-opacity="1" /><path clip-path="url(#clip770)" d="M95.1817 809.419 L83.3762 827.868 L95.1817 827.868 L95.1817 809.419 M93.9549 805.345 L99.8345 805.345 L99.8345 827.868 L104.765 827.868 L104.765 831.757 L99.8345 831.757 L99.8345 839.905 L95.1817 839.905 L95.1817 831.757 L79.5799 831.757 L79.5799 827.243 L93.9549 805.345 Z" fill="#000000" fill-rule="nonzero" fill-opacity="1" /><path clip-path="url(#clip770)" d="M122.496 808.424 Q118.885 808.424 117.057 811.989 Q115.251 815.53 115.251 822.66 Q115.251 829.766 117.057 833.331 Q118.885 836.873 122.496 836.873 Q126.131 836.873 127.936 833.331 Q129.765 829.766 129.765 822.66 Q129.765 815.53 127.936 811.989 Q126.131 808.424 122.496 808.424 M122.496 804.72 Q128.307 804.72 131.362 809.327 Q134.441 813.91 134.441 822.66 Q134.441 831.387 131.362 835.993 Q128.307 840.576 122.496 840.576 Q116.686 840.576 113.608 835.993 Q110.552 831.387 110.552 822.66 Q110.552 813.91 113.608 809.327 Q116.686 804.72 122.496 804.72 Z" fill="#000000" fill-rule="nonzero" fill-opacity="1" /><path clip-path="url(#clip770)" d="M152.658 808.424 Q149.047 808.424 147.218 811.989 Q145.413 815.53 145.413 822.66 Q145.413 829.766 147.218 833.331 Q149.047 836.873 152.658 836.873 Q156.292 836.873 158.098 833.331 Q159.927 829.766 159.927 822.66 Q159.927 815.53 158.098 811.989 Q156.292 808.424 152.658 808.424 M152.658 804.72 Q158.468 804.72 161.524 809.327 Q164.603 813.91 164.603 822.66 Q164.603 831.387 161.524 835.993 Q158.468 840.576 152.658 840.576 Q146.848 840.576 143.769 835.993 Q140.714 831.387 140.714 822.66 Q140.714 813.91 143.769 809.327 Q146.848 804.72 152.658 804.72 Z" fill="#000000" fill-rule="nonzero" fill-opacity="1" /><path clip-path="url(#clip770)" d="M182.82 808.424 Q179.209 808.424 177.38 811.989 Q175.575 815.53 175.575 822.66 Q175.575 829.766 177.38 833.331 Q179.209 836.873 182.82 836.873 Q186.454 836.873 188.26 833.331 Q190.089 829.766 190.089 822.66 Q190.089 815.53 188.26 811.989 Q186.454 808.424 182.82 808.424 M182.82 804.72 Q188.63 804.72 191.686 809.327 Q194.765 813.91 194.765 822.66 Q194.765 831.387 191.686 835.993 Q188.63 840.576 182.82 840.576 Q177.01 840.576 173.931 835.993 Q170.876 831.387 170.876 822.66 Q170.876 813.91 173.931 809.327 Q177.01 804.72 182.82 804.72 Z" fill="#000000" fill-rule="nonzero" fill-opacity="1" /><path clip-path="url(#clip770)" d="M50.9921 521.292 L73.2142 521.292 L73.2142 523.283 L60.668 555.852 L55.7838 555.852 L67.5893 525.227 L50.9921 525.227 L50.9921 521.292 Z" fill="#000000" fill-rule="nonzero" fill-opacity="1" /><path clip-path="url(#clip770)" d="M82.3808 521.292 L100.737 521.292 L100.737 525.227 L86.6632 525.227 L86.6632 533.699 Q87.6817 533.352 88.7003 533.19 Q89.7188 533.005 90.7373 533.005 Q96.5243 533.005 99.9039 536.176 Q103.284 539.348 103.284 544.764 Q103.284 550.343 99.8113 553.445 Q96.3391 556.523 90.0197 556.523 Q87.8438 556.523 85.5753 556.153 Q83.3299 555.783 80.9225 555.042 L80.9225 550.343 Q83.0058 551.477 85.2281 552.033 Q87.4503 552.588 89.9271 552.588 Q93.9317 552.588 96.2697 550.482 Q98.6076 548.375 98.6076 544.764 Q98.6076 541.153 96.2697 539.047 Q93.9317 536.94 89.9271 536.94 Q88.0521 536.94 86.1771 537.357 Q84.3253 537.774 82.3808 538.653 L82.3808 521.292 Z" fill="#000000" fill-rule="nonzero" fill-opacity="1" /><path clip-path="url(#clip770)" d="M122.496 524.371 Q118.885 524.371 117.057 527.936 Q115.251 531.477 115.251 538.607 Q115.251 545.713 117.057 549.278 Q118.885 552.82 122.496 552.82 Q126.131 552.82 127.936 549.278 Q129.765 545.713 129.765 538.607 Q129.765 531.477 127.936 527.936 Q126.131 524.371 122.496 524.371 M122.496 520.667 Q128.307 520.667 131.362 525.274 Q134.441 529.857 134.441 538.607 Q134.441 547.334 131.362 551.94 Q128.307 556.523 122.496 556.523 Q116.686 556.523 113.608 551.94 Q110.552 547.334 110.552 538.607 Q110.552 529.857 113.608 525.274 Q116.686 520.667 122.496 520.667 Z" fill="#000000" fill-rule="nonzero" fill-opacity="1" /><path clip-path="url(#clip770)" d="M152.658 524.371 Q149.047 524.371 147.218 527.936 Q145.413 531.477 145.413 538.607 Q145.413 545.713 147.218 549.278 Q149.047 552.82 152.658 552.82 Q156.292 552.82 158.098 549.278 Q159.927 545.713 159.927 538.607 Q159.927 531.477 158.098 527.936 Q156.292 524.371 152.658 524.371 M152.658 520.667 Q158.468 520.667 161.524 525.274 Q164.603 529.857 164.603 538.607 Q164.603 547.334 161.524 551.94 Q158.468 556.523 152.658 556.523 Q146.848 556.523 143.769 551.94 Q140.714 547.334 140.714 538.607 Q140.714 529.857 143.769 525.274 Q146.848 520.667 152.658 520.667 Z" fill="#000000" fill-rule="nonzero" fill-opacity="1" /><path clip-path="url(#clip770)" d="M182.82 524.371 Q179.209 524.371 177.38 527.936 Q175.575 531.477 175.575 538.607 Q175.575 545.713 177.38 549.278 Q179.209 552.82 182.82 552.82 Q186.454 552.82 188.26 549.278 Q190.089 545.713 190.089 538.607 Q190.089 531.477 188.26 527.936 Q186.454 524.371 182.82 524.371 M182.82 520.667 Q188.63 520.667 191.686 525.274 Q194.765 529.857 194.765 538.607 Q194.765 547.334 191.686 551.94 Q188.63 556.523 182.82 556.523 Q177.01 556.523 173.931 551.94 Q170.876 547.334 170.876 538.607 Q170.876 529.857 173.931 525.274 Q177.01 520.667 182.82 520.667 Z" fill="#000000" fill-rule="nonzero" fill-opacity="1" /><path clip-path="url(#clip770)" d="M50.9921 237.239 L73.2142 237.239 L73.2142 239.23 L60.668 271.799 L55.7838 271.799 L67.5893 241.174 L50.9921 241.174 L50.9921 237.239 Z" fill="#000000" fill-rule="nonzero" fill-opacity="1" /><path clip-path="url(#clip770)" d="M92.9132 252.656 Q89.7651 252.656 87.9132 254.809 Q86.0845 256.961 86.0845 260.711 Q86.0845 264.438 87.9132 266.614 Q89.7651 268.767 92.9132 268.767 Q96.0613 268.767 97.89 266.614 Q99.7419 264.438 99.7419 260.711 Q99.7419 256.961 97.89 254.809 Q96.0613 252.656 92.9132 252.656 M102.196 238.003 L102.196 242.262 Q100.436 241.429 98.6308 240.989 Q96.8484 240.549 95.0891 240.549 Q90.4595 240.549 88.0058 243.674 Q85.5753 246.799 85.2281 253.119 Q86.5938 251.105 88.654 250.04 Q90.7141 248.952 93.191 248.952 Q98.3993 248.952 101.409 252.123 Q104.441 255.271 104.441 260.711 Q104.441 266.035 101.293 269.253 Q98.1447 272.47 92.9132 272.47 Q86.9179 272.47 83.7466 267.887 Q80.5753 263.281 80.5753 254.554 Q80.5753 246.359 84.4642 241.498 Q88.353 236.614 94.9039 236.614 Q96.6632 236.614 98.4456 236.961 Q100.251 237.309 102.196 238.003 Z" fill="#000000" fill-rule="nonzero" fill-opacity="1" /><path clip-path="url(#clip770)" d="M122.496 240.318 Q118.885 240.318 117.057 243.883 Q115.251 247.424 115.251 254.554 Q115.251 261.66 117.057 265.225 Q118.885 268.767 122.496 268.767 Q126.131 268.767 127.936 265.225 Q129.765 261.66 129.765 254.554 Q129.765 247.424 127.936 243.883 Q126.131 240.318 122.496 240.318 M122.496 236.614 Q128.307 236.614 131.362 241.221 Q134.441 245.804 134.441 254.554 Q134.441 263.281 131.362 267.887 Q128.307 272.47 122.496 272.47 Q116.686 272.47 113.608 267.887 Q110.552 263.281 110.552 254.554 Q110.552 245.804 113.608 241.221 Q116.686 236.614 122.496 236.614 Z" fill="#000000" fill-rule="nonzero" fill-opacity="1" /><path clip-path="url(#clip770)" d="M152.658 240.318 Q149.047 240.318 147.218 243.883 Q145.413 247.424 145.413 254.554 Q145.413 261.66 147.218 265.225 Q149.047 268.767 152.658 268.767 Q156.292 268.767 158.098 265.225 Q159.927 261.66 159.927 254.554 Q159.927 247.424 158.098 243.883 Q156.292 240.318 152.658 240.318 M152.658 236.614 Q158.468 236.614 161.524 241.221 Q164.603 245.804 164.603 254.554 Q164.603 263.281 161.524 267.887 Q158.468 272.47 152.658 272.47 Q146.848 272.47 143.769 267.887 Q140.714 263.281 140.714 254.554 Q140.714 245.804 143.769 241.221 Q146.848 236.614 152.658 236.614 Z" fill="#000000" fill-rule="nonzero" fill-opacity="1" /><path clip-path="url(#clip770)" d="M182.82 240.318 Q179.209 240.318 177.38 243.883 Q175.575 247.424 175.575 254.554 Q175.575 261.66 177.38 265.225 Q179.209 268.767 182.82 268.767 Q186.454 268.767 188.26 265.225 Q190.089 261.66 190.089 254.554 Q190.089 247.424 188.26 243.883 Q186.454 240.318 182.82 240.318 M182.82 236.614 Q188.63 236.614 191.686 241.221 Q194.765 245.804 194.765 254.554 Q194.765 263.281 191.686 267.887 Q188.63 272.47 182.82 272.47 Q177.01 272.47 173.931 267.887 Q170.876 263.281 170.876 254.554 Q170.876 245.804 173.931 241.221 Q177.01 236.614 182.82 236.614 Z" fill="#000000" fill-rule="nonzero" fill-opacity="1" /><path clip-path="url(#clip770)" d="M1262.23 35.2602 Q1262.23 29.4732 1259.83 26.2904 Q1257.46 23.1075 1253.15 23.1075 Q1248.86 23.1075 1246.46 26.2904 Q1244.09 29.4732 1244.09 35.2602 Q1244.09 41.0183 1246.46 44.2012 Q1248.86 47.384 1253.15 47.384 Q1257.46 47.384 1259.83 44.2012 Q1262.23 41.0183 1262.23 35.2602 M1267.56 47.818 Q1267.56 56.0934 1263.88 60.1154 Q1260.21 64.1663 1252.63 64.1663 Q1249.82 64.1663 1247.33 63.7323 Q1244.84 63.3272 1242.5 62.4592 L1242.5 57.2798 Q1244.84 58.5529 1247.13 59.1606 Q1249.41 59.7682 1251.79 59.7682 Q1257.02 59.7682 1259.63 57.0194 Q1262.23 54.2995 1262.23 48.7729 L1262.23 46.1398 Q1260.58 49.0044 1258.01 50.4222 Q1255.43 51.84 1251.84 51.84 Q1245.88 51.84 1242.24 47.2972 Q1238.59 42.7544 1238.59 35.2602 Q1238.59 27.7371 1242.24 23.1943 Q1245.88 18.6515 1251.84 18.6515 Q1255.43 18.6515 1258.01 20.0693 Q1260.58 21.4872 1262.23 24.3517 L1262.23 19.4328 L1267.56 19.4328 L1267.56 47.818 Z" fill="#000000" fill-rule="nonzero" fill-opacity="1" /><path clip-path="url(#clip770)" d="M1299.85 24.3517 L1299.85 6.81709 L1305.17 6.81709 L1305.17 51.84 L1299.85 51.84 L1299.85 46.9789 Q1298.17 49.8724 1295.59 51.2902 Q1293.05 52.6791 1289.46 52.6791 Q1283.59 52.6791 1279.88 47.9916 Q1276.21 43.3042 1276.21 35.6653 Q1276.21 28.0265 1279.88 23.339 Q1283.59 18.6515 1289.46 18.6515 Q1293.05 18.6515 1295.59 20.0693 Q1298.17 21.4582 1299.85 24.3517 M1281.71 35.6653 Q1281.71 41.5391 1284.11 44.8956 Q1286.54 48.2231 1290.76 48.2231 Q1294.99 48.2231 1297.42 44.8956 Q1299.85 41.5391 1299.85 35.6653 Q1299.85 29.7915 1297.42 26.464 Q1294.99 23.1075 1290.76 23.1075 Q1286.54 23.1075 1284.11 26.464 Q1281.71 29.7915 1281.71 35.6653 Z" fill="#000000" fill-rule="nonzero" fill-opacity="1" /><path clip-path="url(#clip770)" d="M1321.29 46.9789 L1321.29 64.1663 L1315.94 64.1663 L1315.94 19.4328 L1321.29 19.4328 L1321.29 24.3517 Q1322.97 21.4582 1325.51 20.0693 Q1328.09 18.6515 1331.65 18.6515 Q1337.55 18.6515 1341.22 23.339 Q1344.93 28.0265 1344.93 35.6653 Q1344.93 43.3042 1341.22 47.9916 Q1337.55 52.6791 1331.65 52.6791 Q1328.09 52.6791 1325.51 51.2902 Q1322.97 49.8724 1321.29 46.9789 M1339.4 35.6653 Q1339.4 29.7915 1336.97 26.464 Q1334.57 23.1075 1330.35 23.1075 Q1326.12 23.1075 1323.69 26.464 Q1321.29 29.7915 1321.29 35.6653 Q1321.29 41.5391 1323.69 44.8956 Q1326.12 48.2231 1330.35 48.2231 Q1334.57 48.2231 1336.97 44.8956 Q1339.4 41.5391 1339.4 35.6653 Z" fill="#000000" fill-rule="nonzero" fill-opacity="1" /><polyline clip-path="url(#clip772)" style="stroke:#009af9; stroke-linecap:round; stroke-linejoin:round; stroke-width:4; stroke-opacity:1; fill:none" points="290.821,1270.86 415.938,1193.05 541.056,1360.43 666.173,1447.38 791.291,1366.69 916.408,1147.78 1041.53,960.806 1166.64,716.282 1291.76,786.042 1416.88,766.389 1542,608.094 1667.11,463.667 1792.23,635.052 1917.35,192.266 2042.46,254.765 2167.58,145.256 2292.7,201.663 "/>
<path clip-path="url(#clip770)" d="M301.498 255.881 L566.127 255.881 L566.127 152.201 L301.498 152.201  Z" fill="#ffffff" fill-rule="evenodd" fill-opacity="1"/>
<polyline clip-path="url(#clip770)" style="stroke:#000000; stroke-linecap:round; stroke-linejoin:round; stroke-width:4; stroke-opacity:1; fill:none" points="301.498,255.881 566.127,255.881 566.127,152.201 301.498,152.201 301.498,255.881 "/>
<polyline clip-path="url(#clip770)" style="stroke:#009af9; stroke-linecap:round; stroke-linejoin:round; stroke-width:4; stroke-opacity:1; fill:none" points="325.075,204.041 466.541,204.041 "/>
<path clip-path="url(#clip770)" d="M503.962 223.728 Q502.156 228.358 500.443 229.77 Q498.73 231.182 495.86 231.182 L492.457 231.182 L492.457 227.617 L494.957 227.617 Q496.716 227.617 497.688 226.784 Q498.661 225.95 499.841 222.848 L500.605 220.904 L490.119 195.395 L494.633 195.395 L502.735 215.673 L510.836 195.395 L515.35 195.395 L503.962 223.728 Z" fill="#000000" fill-rule="nonzero" fill-opacity="1" /><path clip-path="url(#clip770)" d="M522.642 217.385 L530.281 217.385 L530.281 191.02 L521.971 192.687 L521.971 188.427 L530.235 186.761 L534.91 186.761 L534.91 217.385 L542.549 217.385 L542.549 221.321 L522.642 221.321 L522.642 217.385 Z" fill="#000000" fill-rule="nonzero" fill-opacity="1" /></svg>
