<?xml version="1.0" encoding="utf-8"?>
<svg xmlns="http://www.w3.org/2000/svg" xmlns:xlink="http://www.w3.org/1999/xlink" width="600" height="300" viewBox="0 0 2400 1200">
<defs>
  <clipPath id="clip610">
    <rect x="0" y="0" width="2400" height="1200"/>
  </clipPath>
</defs>
<path clip-path="url(#clip610)" d="M0 1200 L2400 1200 L2400 0 L0 0  Z" fill="#ffffff" fill-rule="evenodd" fill-opacity="1"/>
<defs>
  <clipPath id="clip611">
    <rect x="480" y="0" width="1681" height="1200"/>
  </clipPath>
</defs>
<path clip-path="url(#clip610)" d="M216.436 1099.09 L1153.8 1099.09 L1153.8 92.1521 L216.436 92.1521  Z" fill="#ffffff" fill-rule="evenodd" fill-opacity="1"/>
<defs>
  <clipPath id="clip612">
    <rect x="216" y="92" width="938" height="1008"/>
  </clipPath>
</defs>
<polyline clip-path="url(#clip612)" style="stroke:#000000; stroke-linecap:round; stroke-linejoin:round; stroke-width:2; stroke-opacity:0.1; fill:none" points="411.404,1099.09 411.404,92.1521 "/>
<polyline clip-path="url(#clip612)" style="stroke:#000000; stroke-linecap:round; stroke-linejoin:round; stroke-width:2; stroke-opacity:0.1; fill:none" points="621.952,1099.09 621.952,92.1521 "/>
<polyline clip-path="url(#clip612)" style="stroke:#000000; stroke-linecap:round; stroke-linejoin:round; stroke-width:2; stroke-opacity:0.1; fill:none" points="832.501,1099.09 832.501,92.1521 "/>
<polyline clip-path="url(#clip612)" style="stroke:#000000; stroke-linecap:round; stroke-linejoin:round; stroke-width:2; stroke-opacity:0.1; fill:none" points="1043.05,1099.09 1043.05,92.1521 "/>
<polyline clip-path="url(#clip612)" style="stroke:#000000; stroke-linecap:round; stroke-linejoin:round; stroke-width:2; stroke-opacity:0.1; fill:none" points="216.436,1053.2 1153.8,1053.2 "/>
<polyline clip-path="url(#clip612)" style="stroke:#000000; stroke-linecap:round; stroke-linejoin:round; stroke-width:2; stroke-opacity:0.1; fill:none" points="216.436,820.066 1153.8,820.066 "/>
<polyline clip-path="url(#clip612)" style="stroke:#000000; stroke-linecap:round; stroke-linejoin:round; stroke-width:2; stroke-opacity:0.1; fill:none" points="216.436,586.927 1153.8,586.927 "/>
<polyline clip-path="url(#clip612)" style="stroke:#000000; stroke-linecap:round; stroke-linejoin:round; stroke-width:2; stroke-opacity:0.1; fill:none" points="216.436,353.789 1153.8,353.789 "/>
<polyline clip-path="url(#clip612)" style="stroke:#000000; stroke-linecap:round; stroke-linejoin:round; stroke-width:2; stroke-opacity:0.1; fill:none" points="216.436,120.65 1153.8,120.65 "/>
<polyline clip-path="url(#clip610)" style="stroke:#000000; stroke-linecap:round; stroke-linejoin:round; stroke-width:4; stroke-opacity:1; fill:none" points="216.436,1099.09 1153.8,1099.09 "/>
<polyline clip-path="url(#clip610)" style="stroke:#000000; stroke-linecap:round; stroke-linejoin:round; stroke-width:4; stroke-opacity:1; fill:none" points="411.404,1099.09 411.404,1080.19 "/>
<polyline clip-path="url(#clip610)" style="stroke:#000000; stroke-linecap:round; stroke-linejoin:round; stroke-width:4; stroke-opacity:1; fill:none" points="621.952,1099.09 621.952,1080.19 "/>
<polyline clip-path="url(#clip610)" style="stroke:#000000; stroke-linecap:round; stroke-linejoin:round; stroke-width:4; stroke-opacity:1; fill:none" points="832.501,1099.09 832.501,1080.19 "/>
<polyline clip-path="url(#clip610)" style="stroke:#000000; stroke-linecap:round; stroke-linejoin:round; stroke-width:4; stroke-opacity:1; fill:none" points="1043.05,1099.09 1043.05,1080.19 "/>
<path clip-path="url(#clip610)" d="M401.682 1126.93 L420.038 1126.93 L420.038 1130.86 L405.964 1130.86 L405.964 1139.34 Q406.982 1138.99 408.001 1138.83 Q409.019 1138.64 410.038 1138.64 Q415.825 1138.64 419.205 1141.81 Q422.584 1144.98 422.584 1150.4 Q422.584 1155.98 419.112 1159.08 Q415.64 1162.16 409.32 1162.16 Q407.145 1162.16 404.876 1161.79 Q402.631 1161.42 400.223 1160.68 L400.223 1155.98 Q402.307 1157.11 404.529 1157.67 Q406.751 1158.22 409.228 1158.22 Q413.232 1158.22 415.57 1156.12 Q417.908 1154.01 417.908 1150.4 Q417.908 1146.79 415.57 1144.68 Q413.232 1142.58 409.228 1142.58 Q407.353 1142.58 405.478 1142.99 Q403.626 1143.41 401.682 1144.29 L401.682 1126.93 Z" fill="#000000" fill-rule="nonzero" fill-opacity="1" /><path clip-path="url(#clip610)" d="M596.64 1157.55 L604.279 1157.55 L604.279 1131.19 L595.969 1132.85 L595.969 1128.59 L604.232 1126.93 L608.908 1126.93 L608.908 1157.55 L616.547 1157.55 L616.547 1161.49 L596.64 1161.49 L596.64 1157.55 Z" fill="#000000" fill-rule="nonzero" fill-opacity="1" /><path clip-path="url(#clip610)" d="M635.991 1130.01 Q632.38 1130.01 630.552 1133.57 Q628.746 1137.11 628.746 1144.24 Q628.746 1151.35 630.552 1154.91 Q632.38 1158.46 635.991 1158.46 Q639.626 1158.46 641.431 1154.91 Q643.26 1151.35 643.26 1144.24 Q643.26 1137.11 641.431 1133.57 Q639.626 1130.01 635.991 1130.01 M635.991 1126.3 Q641.802 1126.3 644.857 1130.91 Q647.936 1135.49 647.936 1144.24 Q647.936 1152.97 644.857 1157.58 Q641.802 1162.16 635.991 1162.16 Q630.181 1162.16 627.103 1157.58 Q624.047 1152.97 624.047 1144.24 Q624.047 1135.49 627.103 1130.91 Q630.181 1126.3 635.991 1126.3 Z" fill="#000000" fill-rule="nonzero" fill-opacity="1" /><path clip-path="url(#clip610)" d="M807.686 1157.55 L815.325 1157.55 L815.325 1131.19 L807.015 1132.85 L807.015 1128.59 L815.279 1126.93 L819.954 1126.93 L819.954 1157.55 L827.593 1157.55 L827.593 1161.49 L807.686 1161.49 L807.686 1157.55 Z" fill="#000000" fill-rule="nonzero" fill-opacity="1" /><path clip-path="url(#clip610)" d="M837.084 1126.93 L855.44 1126.93 L855.44 1130.86 L841.366 1130.86 L841.366 1139.34 Q842.385 1138.99 843.403 1138.83 Q844.422 1138.64 845.44 1138.64 Q851.227 1138.64 854.607 1141.81 Q857.987 1144.98 857.987 1150.4 Q857.987 1155.98 854.514 1159.08 Q851.042 1162.16 844.723 1162.16 Q842.547 1162.16 840.278 1161.79 Q838.033 1161.42 835.626 1160.68 L835.626 1155.98 Q837.709 1157.11 839.931 1157.67 Q842.153 1158.22 844.63 1158.22 Q848.635 1158.22 850.973 1156.12 Q853.311 1154.01 853.311 1150.4 Q853.311 1146.79 850.973 1144.68 Q848.635 1142.58 844.63 1142.58 Q842.755 1142.58 840.88 1142.99 Q839.028 1143.41 837.084 1144.29 L837.084 1126.93 Z" fill="#000000" fill-rule="nonzero" fill-opacity="1" /><path clip-path="url(#clip610)" d="M1021.82 1157.55 L1038.14 1157.55 L1038.14 1161.49 L1016.2 1161.49 L1016.2 1157.55 Q1018.86 1154.8 1023.44 1150.17 Q1028.05 1145.52 1029.23 1144.17 Q1031.48 1141.65 1032.35 1139.91 Q1033.26 1138.15 1033.26 1136.46 Q1033.26 1133.71 1031.31 1131.97 Q1029.39 1130.24 1026.29 1130.24 Q1024.09 1130.24 1021.64 1131 Q1019.21 1131.77 1016.43 1133.32 L1016.43 1128.59 Q1019.25 1127.46 1021.71 1126.88 Q1024.16 1126.3 1026.2 1126.3 Q1031.57 1126.3 1034.76 1128.99 Q1037.96 1131.67 1037.96 1136.16 Q1037.96 1138.29 1037.15 1140.21 Q1036.36 1142.11 1034.25 1144.71 Q1033.67 1145.38 1030.57 1148.59 Q1027.47 1151.79 1021.82 1157.55 Z" fill="#000000" fill-rule="nonzero" fill-opacity="1" /><path clip-path="url(#clip610)" d="M1057.96 1130.01 Q1054.35 1130.01 1052.52 1133.57 Q1050.71 1137.11 1050.71 1144.24 Q1050.71 1151.35 1052.52 1154.91 Q1054.35 1158.46 1057.96 1158.46 Q1061.59 1158.46 1063.4 1154.91 Q1065.22 1151.35 1065.22 1144.24 Q1065.22 1137.11 1063.4 1133.57 Q1061.59 1130.01 1057.96 1130.01 M1057.96 1126.3 Q1063.77 1126.3 1066.82 1130.91 Q1069.9 1135.49 1069.9 1144.24 Q1069.9 1152.97 1066.82 1157.58 Q1063.77 1162.16 1057.96 1162.16 Q1052.15 1162.16 1049.07 1157.58 Q1046.01 1152.97 1046.01 1144.24 Q1046.01 1135.49 1049.07 1130.91 Q1052.15 1126.3 1057.96 1126.3 Z" fill="#000000" fill-rule="nonzero" fill-opacity="1" /><polyline clip-path="url(#clip610)" style="stroke:#000000; stroke-linecap:round; stroke-linejoin:round; stroke-width:4; stroke-opacity:1; fill:none" points="216.436,1099.09 216.436,92.1521 "/>
<polyline clip-path="url(#clip610)" style="stroke:#000000; stroke-linecap:round; stroke-linejoin:round; stroke-width:4; stroke-opacity:1; fill:none" points="216.436,1053.2 235.334,1053.2 "/>
<polyline clip-path="url(#clip610)" style="stroke:#000000; stroke-linecap:round; stroke-linejoin:round; stroke-width:4; stroke-opacity:1; fill:none" points="216.436,820.066 235.334,820.066 "/>
<polyline clip-path="url(#clip610)" style="stroke:#000000; stroke-linecap:round; stroke-linejoin:round; stroke-width:4; stroke-opacity:1; fill:none" points="216.436,586.927 235.334,586.927 "/>
<polyline clip-path="url(#clip610)" style="stroke:#000000; stroke-linecap:round; stroke-linejoin:round; stroke-width:4; stroke-opacity:1; fill:none" points="216.436,353.789 235.334,353.789 "/>
<polyline clip-path="url(#clip610)" style="stroke:#000000; stroke-linecap:round; stroke-linejoin:round; stroke-width:4; stroke-opacity:1; fill:none" points="216.436,120.65 235.334,120.65 "/>
<path clip-path="url(#clip610)" d="M62.9365 1039 Q59.3254 1039 57.4967 1042.57 Q55.6912 1046.11 55.6912 1053.24 Q55.6912 1060.35 57.4967 1063.91 Q59.3254 1067.45 62.9365 1067.45 Q66.5707 1067.45 68.3763 1063.91 Q70.205 1060.35 70.205 1053.24 Q70.205 1046.11 68.3763 1042.57 Q66.5707 1039 62.9365 1039 M62.9365 1035.3 Q68.7467 1035.3 71.8022 1039.91 Q74.8809 1044.49 74.8809 1053.24 Q74.8809 1061.97 71.8022 1066.57 Q68.7467 1071.16 62.9365 1071.16 Q57.1264 1071.16 54.0477 1066.57 Q50.9921 1061.97 50.9921 1053.24 Q50.9921 1044.49 54.0477 1039.91 Q57.1264 1035.3 62.9365 1035.3 Z" fill="#000000" fill-rule="nonzero" fill-opacity="1" /><path clip-path="url(#clip610)" d="M83.0984 1064.6 L87.9827 1064.6 L87.9827 1070.48 L83.0984 1070.48 L83.0984 1064.6 Z" fill="#000000" fill-rule="nonzero" fill-opacity="1" /><path clip-path="url(#clip610)" d="M108.168 1039 Q104.557 1039 102.728 1042.57 Q100.922 1046.11 100.922 1053.24 Q100.922 1060.35 102.728 1063.91 Q104.557 1067.45 108.168 1067.45 Q111.802 1067.45 113.608 1063.91 Q115.436 1060.35 115.436 1053.24 Q115.436 1046.11 113.608 1042.57 Q111.802 1039 108.168 1039 M108.168 1035.3 Q113.978 1035.3 117.033 1039.91 Q120.112 1044.49 120.112 1053.24 Q120.112 1061.97 117.033 1066.57 Q113.978 1071.16 108.168 1071.16 Q102.358 1071.16 99.2789 1066.57 Q96.2234 1061.97 96.2234 1053.24 Q96.2234 1044.49 99.2789 1039.91 Q102.358 1035.3 108.168 1035.3 Z" fill="#000000" fill-rule="nonzero" fill-opacity="1" /><path clip-path="url(#clip610)" d="M138.33 1039 Q134.719 1039 132.89 1042.57 Q131.084 1046.11 131.084 1053.24 Q131.084 1060.35 132.89 1063.91 Q134.719 1067.45 138.33 1067.45 Q141.964 1067.45 143.769 1063.91 Q145.598 1060.35 145.598 1053.24 Q145.598 1046.11 143.769 1042.57 Q141.964 1039 138.33 1039 M138.33 1035.3 Q144.14 1035.3 147.195 1039.91 Q150.274 1044.49 150.274 1053.24 Q150.274 1061.97 147.195 1066.57 Q144.14 1071.16 138.33 1071.16 Q132.519 1071.16 129.441 1066.57 Q126.385 1061.97 126.385 1053.24 Q126.385 1044.49 129.441 1039.91 Q132.519 1035.3 138.33 1035.3 Z" fill="#000000" fill-rule="nonzero" fill-opacity="1" /><path clip-path="url(#clip610)" d="M168.491 1039 Q164.88 1039 163.052 1042.57 Q161.246 1046.11 161.246 1053.24 Q161.246 1060.35 163.052 1063.91 Q164.88 1067.45 168.491 1067.45 Q172.126 1067.45 173.931 1063.91 Q175.76 1060.35 175.76 1053.24 Q175.76 1046.11 173.931 1042.57 Q172.126 1039 168.491 1039 M168.491 1035.3 Q174.302 1035.3 177.357 1039.91 Q180.436 1044.49 180.436 1053.24 Q180.436 1061.97 177.357 1066.57 Q174.302 1071.16 168.491 1071.16 Q162.681 1071.16 159.603 1066.57 Q156.547 1061.97 156.547 1053.24 Q156.547 1044.49 159.603 1039.91 Q162.681 1035.3 168.491 1035.3 Z" fill="#000000" fill-rule="nonzero" fill-opacity="1" /><path clip-path="url(#clip610)" d="M63.9319 805.864 Q60.3208 805.864 58.4921 809.429 Q56.6865 812.971 56.6865 820.1 Q56.6865 827.207 58.4921 830.772 Q60.3208 834.313 63.9319 834.313 Q67.5661 834.313 69.3717 830.772 Q71.2004 827.207 71.2004 820.1 Q71.2004 812.971 69.3717 809.429 Q67.5661 805.864 63.9319 805.864 M63.9319 802.161 Q69.742 802.161 72.7976 806.767 Q75.8763 811.35 75.8763 820.1 Q75.8763 828.827 72.7976 833.434 Q69.742 838.017 63.9319 838.017 Q58.1217 838.017 55.043 833.434 Q51.9875 828.827 51.9875 820.1 Q51.9875 811.35 55.043 806.767 Q58.1217 802.161 63.9319 802.161 Z" fill="#000000" fill-rule="nonzero" fill-opacity="1" /><path clip-path="url(#clip610)" d="M84.0938 831.466 L88.978 831.466 L88.978 837.346 L84.0938 837.346 L84.0938 831.466 Z" fill="#000000" fill-rule="nonzero" fill-opacity="1" /><path clip-path="url(#clip610)" d="M109.163 805.864 Q105.552 805.864 103.723 809.429 Q101.918 812.971 101.918 820.1 Q101.918 827.207 103.723 830.772 Q105.552 834.313 109.163 834.313 Q112.797 834.313 114.603 830.772 Q116.432 827.207 116.432 820.1 Q116.432 812.971 114.603 809.429 Q112.797 805.864 109.163 805.864 M109.163 802.161 Q114.973 802.161 118.029 806.767 Q121.107 811.35 121.107 820.1 Q121.107 828.827 118.029 833.434 Q114.973 838.017 109.163 838.017 Q103.353 838.017 100.274 833.434 Q97.2187 828.827 97.2187 820.1 Q97.2187 811.35 100.274 806.767 Q103.353 802.161 109.163 802.161 Z" fill="#000000" fill-rule="nonzero" fill-opacity="1" /><path clip-path="url(#clip610)" d="M139.325 805.864 Q135.714 805.864 133.885 809.429 Q132.08 812.971 132.08 820.1 Q132.08 827.207 133.885 830.772 Q135.714 834.313 139.325 834.313 Q142.959 834.313 144.765 830.772 Q146.593 827.207 146.593 820.1 Q146.593 812.971 144.765 809.429 Q142.959 805.864 139.325 805.864 M139.325 802.161 Q145.135 802.161 148.191 806.767 Q151.269 811.35 151.269 820.1 Q151.269 828.827 148.191 833.434 Q145.135 838.017 139.325 838.017 Q133.515 838.017 130.436 833.434 Q127.381 828.827 127.381 820.1 Q127.381 811.35 130.436 806.767 Q133.515 802.161 139.325 802.161 Z" fill="#000000" fill-rule="nonzero" fill-opacity="1" /><path clip-path="url(#clip610)" d="M159.533 802.786 L177.89 802.786 L177.89 806.721 L163.816 806.721 L163.816 815.193 Q164.834 814.846 165.853 814.684 Q166.871 814.499 167.89 814.499 Q173.677 814.499 177.056 817.67 Q180.436 820.841 180.436 826.258 Q180.436 831.836 176.964 834.938 Q173.491 838.017 167.172 838.017 Q164.996 838.017 162.728 837.647 Q160.482 837.276 158.075 836.536 L158.075 831.836 Q160.158 832.971 162.38 833.526 Q164.603 834.082 167.079 834.082 Q171.084 834.082 173.422 831.975 Q175.76 829.869 175.76 826.258 Q175.76 822.647 173.422 820.54 Q171.084 818.434 167.079 818.434 Q165.204 818.434 163.329 818.85 Q161.478 819.267 159.533 820.147 L159.533 802.786 Z" fill="#000000" fill-rule="nonzero" fill-opacity="1" /><path clip-path="url(#clip610)" d="M62.9365 572.726 Q59.3254 572.726 57.4967 576.291 Q55.6912 579.832 55.6912 586.962 Q55.6912 594.068 57.4967 597.633 Q59.3254 601.175 62.9365 601.175 Q66.5707 601.175 68.3763 597.633 Q70.205 594.068 70.205 586.962 Q70.205 579.832 68.3763 576.291 Q66.5707 572.726 62.9365 572.726 M62.9365 569.022 Q68.7467 569.022 71.8022 573.629 Q74.8809 578.212 74.8809 586.962 Q74.8809 595.689 71.8022 600.295 Q68.7467 604.879 62.9365 604.879 Q57.1264 604.879 54.0477 600.295 Q50.9921 595.689 50.9921 586.962 Q50.9921 578.212 54.0477 573.629 Q57.1264 569.022 62.9365 569.022 Z" fill="#000000" fill-rule="nonzero" fill-opacity="1" /><path clip-path="url(#clip610)" d="M83.0984 598.328 L87.9827 598.328 L87.9827 604.207 L83.0984 604.207 L83.0984 598.328 Z" fill="#000000" fill-rule="nonzero" fill-opacity="1" /><path clip-path="url(#clip610)" d="M108.168 572.726 Q104.557 572.726 102.728 576.291 Q100.922 579.832 100.922 586.962 Q100.922 594.068 102.728 597.633 Q104.557 601.175 108.168 601.175 Q111.802 601.175 113.608 597.633 Q115.436 594.068 115.436 586.962 Q115.436 579.832 113.608 576.291 Q111.802 572.726 108.168 572.726 M108.168 569.022 Q113.978 569.022 117.033 573.629 Q120.112 578.212 120.112 586.962 Q120.112 595.689 117.033 600.295 Q113.978 604.879 108.168 604.879 Q102.358 604.879 99.2789 600.295 Q96.2234 595.689 96.2234 586.962 Q96.2234 578.212 99.2789 573.629 Q102.358 569.022 108.168 569.022 Z" fill="#000000" fill-rule="nonzero" fill-opacity="1" /><path clip-path="url(#clip610)" d="M129.14 600.272 L136.779 600.272 L136.779 573.906 L128.469 575.573 L128.469 571.314 L136.732 569.647 L141.408 569.647 L141.408 600.272 L149.047 600.272 L149.047 604.207 L129.14 604.207 L129.14 600.272 Z" fill="#000000" fill-rule="nonzero" fill-opacity="1" /><path clip-path="url(#clip610)" d="M168.491 572.726 Q164.88 572.726 163.052 576.291 Q161.246 579.832 161.246 586.962 Q161.246 594.068 163.052 597.633 Q164.88 601.175 168.491 601.175 Q172.126 601.175 173.931 597.633 Q175.76 594.068 175.76 586.962 Q175.76 579.832 173.931 576.291 Q172.126 572.726 168.491 572.726 M168.491 569.022 Q174.302 569.022 177.357 573.629 Q180.436 578.212 180.436 586.962 Q180.436 595.689 177.357 600.295 Q174.302 604.879 168.491 604.879 Q162.681 604.879 159.603 600.295 Q156.547 595.689 156.547 586.962 Q156.547 578.212 159.603 573.629 Q162.681 569.022 168.491 569.022 Z" fill="#000000" fill-rule="nonzero" fill-opacity="1" /><path clip-path="url(#clip610)" d="M63.9319 339.587 Q60.3208 339.587 58.4921 343.152 Q56.6865 346.694 56.6865 353.823 Q56.6865 360.93 58.4921 364.495 Q60.3208 368.036 63.9319 368.036 Q67.5661 368.036 69.3717 364.495 Q71.2004 360.93 71.2004 353.823 Q71.2004 346.694 69.3717 343.152 Q67.5661 339.587 63.9319 339.587 M63.9319 335.884 Q69.742 335.884 72.7976 340.49 Q75.8763 345.074 75.8763 353.823 Q75.8763 362.55 72.7976 367.157 Q69.742 371.74 63.9319 371.74 Q58.1217 371.74 55.043 367.157 Q51.9875 362.55 51.9875 353.823 Q51.9875 345.074 55.043 340.49 Q58.1217 335.884 63.9319 335.884 Z" fill="#000000" fill-rule="nonzero" fill-opacity="1" /><path clip-path="url(#clip610)" d="M84.0938 365.189 L88.978 365.189 L88.978 371.069 L84.0938 371.069 L84.0938 365.189 Z" fill="#000000" fill-rule="nonzero" fill-opacity="1" /><path clip-path="url(#clip610)" d="M109.163 339.587 Q105.552 339.587 103.723 343.152 Q101.918 346.694 101.918 353.823 Q101.918 360.93 103.723 364.495 Q105.552 368.036 109.163 368.036 Q112.797 368.036 114.603 364.495 Q116.432 360.93 116.432 353.823 Q116.432 346.694 114.603 343.152 Q112.797 339.587 109.163 339.587 M109.163 335.884 Q114.973 335.884 118.029 340.49 Q121.107 345.074 121.107 353.823 Q121.107 362.55 118.029 367.157 Q114.973 371.74 109.163 371.74 Q103.353 371.74 100.274 367.157 Q97.2187 362.55 97.2187 353.823 Q97.2187 345.074 100.274 340.49 Q103.353 335.884 109.163 335.884 Z" fill="#000000" fill-rule="nonzero" fill-opacity="1" /><path clip-path="url(#clip610)" d="M130.135 367.134 L137.774 367.134 L137.774 340.768 L129.464 342.435 L129.464 338.175 L137.728 336.509 L142.404 336.509 L142.404 367.134 L150.043 367.134 L150.043 371.069 L130.135 371.069 L130.135 367.134 Z" fill="#000000" fill-rule="nonzero" fill-opacity="1" /><path clip-path="url(#clip610)" d="M159.533 336.509 L177.89 336.509 L177.89 340.444 L163.816 340.444 L163.816 348.916 Q164.834 348.569 165.853 348.407 Q166.871 348.222 167.89 348.222 Q173.677 348.222 177.056 351.393 Q180.436 354.564 180.436 359.981 Q180.436 365.56 176.964 368.661 Q173.491 371.74 167.172 371.74 Q164.996 371.74 162.728 371.37 Q160.482 370.999 158.075 370.259 L158.075 365.56 Q160.158 366.694 162.38 367.249 Q164.603 367.805 167.079 367.805 Q171.084 367.805 173.422 365.698 Q175.76 363.592 175.76 359.981 Q175.76 356.37 173.422 354.263 Q171.084 352.157 167.079 352.157 Q165.204 352.157 163.329 352.573 Q161.478 352.99 159.533 353.87 L159.533 336.509 Z" fill="#000000" fill-rule="nonzero" fill-opacity="1" /><path clip-path="url(#clip610)" d="M62.9365 106.449 Q59.3254 106.449 57.4967 110.014 Q55.6912 113.555 55.6912 120.685 Q55.6912 127.791 57.4967 131.356 Q59.3254 134.898 62.9365 134.898 Q66.5707 134.898 68.3763 131.356 Q70.205 127.791 70.205 120.685 Q70.205 113.555 68.3763 110.014 Q66.5707 106.449 62.9365 106.449 M62.9365 102.745 Q68.7467 102.745 71.8022 107.352 Q74.8809 111.935 74.8809 120.685 Q74.8809 129.412 71.8022 134.018 Q68.7467 138.602 62.9365 138.602 Q57.1264 138.602 54.0477 134.018 Q50.9921 129.412 50.9921 120.685 Q50.9921 111.935 54.0477 107.352 Q57.1264 102.745 62.9365 102.745 Z" fill="#000000" fill-rule="nonzero" fill-opacity="1" /><path clip-path="url(#clip610)" d="M83.0984 132.051 L87.9827 132.051 L87.9827 137.93 L83.0984 137.93 L83.0984 132.051 Z" fill="#000000" fill-rule="nonzero" fill-opacity="1" /><path clip-path="url(#clip610)" d="M108.168 106.449 Q104.557 106.449 102.728 110.014 Q100.922 113.555 100.922 120.685 Q100.922 127.791 102.728 131.356 Q104.557 134.898 108.168 134.898 Q111.802 134.898 113.608 131.356 Q115.436 127.791 115.436 120.685 Q115.436 113.555 113.608 110.014 Q111.802 106.449 108.168 106.449 M108.168 102.745 Q113.978 102.745 117.033 107.352 Q120.112 111.935 120.112 120.685 Q120.112 129.412 117.033 134.018 Q113.978 138.602 108.168 138.602 Q102.358 138.602 99.2789 134.018 Q96.2234 129.412 96.2234 120.685 Q96.2234 111.935 99.2789 107.352 Q102.358 102.745 108.168 102.745 Z" fill="#000000" fill-rule="nonzero" fill-opacity="1" /><path clip-path="url(#clip610)" d="M132.357 133.995 L148.677 133.995 L148.677 137.93 L126.732 137.93 L126.732 133.995 Q129.394 131.241 133.978 126.611 Q138.584 121.958 139.765 120.616 Q142.01 118.092 142.89 116.356 Q143.793 114.597 143.793 112.907 Q143.793 110.153 141.848 108.417 Q139.927 106.68 136.825 106.68 Q134.626 106.68 132.172 107.444 Q129.742 108.208 126.964 109.759 L126.964 105.037 Q129.788 103.903 132.242 103.324 Q134.695 102.745 136.732 102.745 Q142.103 102.745 145.297 105.43 Q148.492 108.116 148.492 112.606 Q148.492 114.736 147.681 116.657 Q146.894 118.555 144.788 121.148 Q144.209 121.819 141.107 125.037 Q138.006 128.231 132.357 133.995 Z" fill="#000000" fill-rule="nonzero" fill-opacity="1" /><path clip-path="url(#clip610)" d="M168.491 106.449 Q164.88 106.449 163.052 110.014 Q161.246 113.555 161.246 120.685 Q161.246 127.791 163.052 131.356 Q164.88 134.898 168.491 134.898 Q172.126 134.898 173.931 131.356 Q175.76 127.791 175.76 120.685 Q175.76 113.555 173.931 110.014 Q172.126 106.449 168.491 106.449 M168.491 102.745 Q174.302 102.745 177.357 107.352 Q180.436 111.935 180.436 120.685 Q180.436 129.412 177.357 134.018 Q174.302 138.602 168.491 138.602 Q162.681 138.602 159.603 134.018 Q156.547 129.412 156.547 120.685 Q156.547 111.935 159.603 107.352 Q162.681 102.745 168.491 102.745 Z" fill="#000000" fill-rule="nonzero" fill-opacity="1" /><path clip-path="url(#clip610)" d="M617.734 30.8748 L617.734 33.2186 L595.703 33.2186 Q596.016 38.1665 598.672 40.7706 Q601.354 43.3487 606.12 43.3487 Q608.88 43.3487 611.458 42.6716 Q614.062 41.9946 616.614 40.6404 L616.614 45.1716 Q614.036 46.2654 611.328 46.8383 Q608.62 47.4112 605.833 47.4112 Q598.854 47.4112 594.766 43.3487 Q590.703 39.2862 590.703 32.3592 Q590.703 25.1978 594.557 21.0051 Q598.437 16.7864 605 16.7864 Q610.885 16.7864 614.297 20.5884 Q617.734 24.3645 617.734 30.8748 M612.943 29.4686 Q612.891 25.5363 610.729 23.1926 Q608.594 20.8488 605.052 20.8488 Q601.042 20.8488 598.62 23.1145 Q596.224 25.3801 595.859 29.4946 L612.943 29.4686 Z" fill="#000000" fill-rule="nonzero" fill-opacity="1" /><path clip-path="url(#clip610)" d="M625.104 35.1456 L625.104 17.4895 L629.896 17.4895 L629.896 34.9634 Q629.896 39.104 631.51 41.1873 Q633.125 43.2446 636.354 43.2446 Q640.234 43.2446 642.474 40.7706 Q644.739 38.2967 644.739 34.0259 L644.739 17.4895 L649.531 17.4895 L649.531 46.656 L644.739 46.656 L644.739 42.1769 Q642.995 44.8331 640.677 46.1352 Q638.385 47.4112 635.338 47.4112 Q630.312 47.4112 627.708 44.2862 Q625.104 41.1612 625.104 35.1456 M637.161 16.7864 L637.161 16.7864 Z" fill="#000000" fill-rule="nonzero" fill-opacity="1" /><path clip-path="url(#clip610)" d="M676.302 21.9686 Q675.494 21.4999 674.531 21.2916 Q673.593 21.0572 672.448 21.0572 Q668.385 21.0572 666.198 23.7134 Q664.036 26.3436 664.036 31.2915 L664.036 46.656 L659.218 46.656 L659.218 17.4895 L664.036 17.4895 L664.036 22.0207 Q665.547 19.3645 667.968 18.0884 Q670.39 16.7864 673.854 16.7864 Q674.349 16.7864 674.948 16.8645 Q675.546 16.9166 676.276 17.0468 L676.302 21.9686 Z" fill="#000000" fill-rule="nonzero" fill-opacity="1" /><path clip-path="url(#clip610)" d="M681.328 17.4895 L686.119 17.4895 L686.119 46.656 L681.328 46.656 L681.328 17.4895 M681.328 6.13538 L686.119 6.13538 L686.119 12.2031 L681.328 12.2031 L681.328 6.13538 Z" fill="#000000" fill-rule="nonzero" fill-opacity="1" /><path clip-path="url(#clip610)" d="M717.083 32.0988 Q717.083 26.8124 714.895 23.8176 Q712.734 20.7968 708.932 20.7968 Q705.13 20.7968 702.942 23.8176 Q700.781 26.8124 700.781 32.0988 Q700.781 37.3852 702.942 40.406 Q705.13 43.4008 708.932 43.4008 Q712.734 43.4008 714.895 40.406 Q717.083 37.3852 717.083 32.0988 M700.781 21.9165 Q702.291 19.3124 704.583 18.0624 Q706.9 16.7864 710.104 16.7864 Q715.416 16.7864 718.723 21.0051 Q722.057 25.2238 722.057 32.0988 Q722.057 38.9737 718.723 43.1925 Q715.416 47.4112 710.104 47.4112 Q706.9 47.4112 704.583 46.1612 Q702.291 44.8852 700.781 42.281 L700.781 46.656 L695.963 46.656 L695.963 6.13538 L700.781 6.13538 L700.781 21.9165 Z" fill="#000000" fill-rule="nonzero" fill-opacity="1" /><path clip-path="url(#clip610)" d="M741.301 20.8488 Q737.447 20.8488 735.208 23.8697 Q732.968 26.8644 732.968 32.0988 Q732.968 37.3331 735.182 40.354 Q737.421 43.3487 741.301 43.3487 Q745.129 43.3487 747.369 40.3279 Q749.609 37.3071 749.609 32.0988 Q749.609 26.9165 747.369 23.8957 Q745.129 20.8488 741.301 20.8488 M741.301 16.7864 Q747.551 16.7864 751.119 20.8488 Q754.687 24.9113 754.687 32.0988 Q754.687 39.2602 751.119 43.3487 Q747.551 47.4112 741.301 47.4112 Q735.025 47.4112 731.458 43.3487 Q727.916 39.2602 727.916 32.0988 Q727.916 24.9113 731.458 20.8488 Q735.025 16.7864 741.301 16.7864 Z" fill="#000000" fill-rule="nonzero" fill-opacity="1" /><path clip-path="url(#clip610)" d="M779.53 21.9686 Q778.723 21.4999 777.759 21.2916 Q776.822 21.0572 775.676 21.0572 Q771.614 21.0572 769.426 23.7134 Q767.265 26.3436 767.265 31.2915 L767.265 46.656 L762.447 46.656 L762.447 17.4895 L767.265 17.4895 L767.265 22.0207 Q768.775 19.3645 771.197 18.0884 Q773.619 16.7864 777.082 16.7864 Q777.577 16.7864 778.176 16.8645 Q778.775 16.9166 779.504 17.0468 L779.53 21.9686 Z" fill="#000000" fill-rule="nonzero" fill-opacity="1" /><path clip-path="url(#clip612)" d="M242.965 976.458 L285.075 976.458 L327.184 998.437 L369.294 1007.87 L411.404 1061.56 L453.513 1061.68 L495.623 1029.75 L537.733 1040.27 L579.842 1067.32 L621.952 1068.97 L664.062 1070.59 L706.172 1052.9 L748.281 1063.58 L790.391 1019.5 L832.501 1006.51 L874.61 1040.89 L916.72 1026.46 L958.83 1029.96 L1000.94 976.856 L1043.05 1007.63 L1085.16 1028.47 L1127.27 1031.41 L1127.27 902.867 L1085.16 875.958 L1043.05 889.647 L1000.94 915.479 L958.83 915.874 L916.72 922.58 L874.61 922.913 L832.501 941.472 L790.391 981.92 L748.281 976.241 L706.172 979.616 L664.062 967.258 L621.952 976.406 L579.842 928.428 L537.733 891.533 L495.623 927.888 L453.513 935.415 L411.404 944.058 L369.294 984.276 L327.184 964.938 L285.075 976.458 L242.965 976.458  Z" fill="#009af9" fill-rule="evenodd" fill-opacity="0.1"/>
<polyline clip-path="url(#clip612)" style="stroke:#009af9; stroke-linecap:round; stroke-linejoin:round; stroke-width:4; stroke-opacity:1; fill:none" points="242.965,976.458 285.075,976.458 327.184,981.688 369.294,996.072 411.404,1002.81 453.513,998.547 495.623,978.817 537.733,965.9 579.842,997.874 621.952,1022.69 664.062,1018.92 706.172,1016.26 748.281,1019.91 790.391,1000.71 832.501,973.989 874.61,981.9 916.72,974.522 958.83,972.916 1000.94,946.168 1043.05,948.637 1085.16,952.215 1127.27,967.137 "/>
<path clip-path="url(#clip612)" d="M242.965 976.458 L285.075 976.458 L327.184 120.65 L369.294 120.65 L411.404 120.65 L453.513 120.65 L495.623 120.65 L537.733 120.65 L579.842 120.65 L621.952 120.65 L664.062 120.65 L706.172 120.65 L748.281 120.65 L790.391 120.65 L832.501 120.65 L874.61 120.65 L916.72 120.65 L958.83 120.65 L1000.94 120.65 L1043.05 120.65 L1085.16 120.65 L1127.27 120.65 L1127.27 120.65 L1085.16 120.65 L1043.05 120.65 L1000.94 120.65 L958.83 120.65 L916.72 120.65 L874.61 120.65 L832.501 120.65 L790.391 120.65 L748.281 120.65 L706.172 120.65 L664.062 120.65 L621.952 120.65 L579.842 120.65 L537.733 120.65 L495.623 120.65 L453.513 120.65 L411.404 120.65 L369.294 120.65 L327.184 120.65 L285.075 976.458 L242.965 976.458  Z" fill="#e26f46" fill-rule="evenodd" fill-opacity="0.1"/>
<polyline clip-path="url(#clip612)" style="stroke:#e26f46; stroke-linecap:round; stroke-linejoin:round; stroke-width:4; stroke-opacity:1; fill:none" points="242.965,976.458 285.075,976.458 327.184,120.65 369.294,120.65 411.404,120.65 453.513,120.65 495.623,120.65 537.733,120.65 579.842,120.65 621.952,120.65 664.062,120.65 706.172,120.65 748.281,120.65 790.391,120.65 832.501,120.65 874.61,120.65 916.72,120.65 958.83,120.65 1000.94,120.65 1043.05,120.65 1085.16,120.65 1127.27,120.65 "/>
<path clip-path="url(#clip610)" d="M1415.39 1099.09 L2352.76 1099.09 L2352.76 92.1521 L1415.39 92.1521  Z" fill="#ffffff" fill-rule="evenodd" fill-opacity="1"/>
<defs>
  <clipPath id="clip613">
    <rect x="1415" y="92" width="938" height="1008"/>
  </clipPath>
</defs>
<polyline clip-path="url(#clip613)" style="stroke:#000000; stroke-linecap:round; stroke-linejoin:round; stroke-width:2; stroke-opacity:0.1; fill:none" points="1610.36,1099.09 1610.36,92.1521 "/>
<polyline clip-path="url(#clip613)" style="stroke:#000000; stroke-linecap:round; stroke-linejoin:round; stroke-width:2; stroke-opacity:0.1; fill:none" points="1820.91,1099.09 1820.91,92.1521 "/>
<polyline clip-path="url(#clip613)" style="stroke:#000000; stroke-linecap:round; stroke-linejoin:round; stroke-width:2; stroke-opacity:0.1; fill:none" points="2031.46,1099.09 2031.46,92.1521 "/>
<polyline clip-path="url(#clip613)" style="stroke:#000000; stroke-linecap:round; stroke-linejoin:round; stroke-width:2; stroke-opacity:0.1; fill:none" points="2242.01,1099.09 2242.01,92.1521 "/>
<polyline clip-path="url(#clip613)" style="stroke:#000000; stroke-linecap:round; stroke-linejoin:round; stroke-width:2; stroke-opacity:0.1; fill:none" points="1415.39,1049.52 2352.76,1049.52 "/>
<polyline clip-path="url(#clip613)" style="stroke:#000000; stroke-linecap:round; stroke-linejoin:round; stroke-width:2; stroke-opacity:0.1; fill:none" points="1415.39,831.452 2352.76,831.452 "/>
<polyline clip-path="url(#clip613)" style="stroke:#000000; stroke-linecap:round; stroke-linejoin:round; stroke-width:2; stroke-opacity:0.1; fill:none" points="1415.39,613.385 2352.76,613.385 "/>
<polyline clip-path="url(#clip613)" style="stroke:#000000; stroke-linecap:round; stroke-linejoin:round; stroke-width:2; stroke-opacity:0.1; fill:none" points="1415.39,395.318 2352.76,395.318 "/>
<polyline clip-path="url(#clip613)" style="stroke:#000000; stroke-linecap:round; stroke-linejoin:round; stroke-width:2; stroke-opacity:0.1; fill:none" points="1415.39,177.251 2352.76,177.251 "/>
<polyline clip-path="url(#clip610)" style="stroke:#000000; stroke-linecap:round; stroke-linejoin:round; stroke-width:4; stroke-opacity:1; fill:none" points="1415.39,1099.09 2352.76,1099.09 "/>
<polyline clip-path="url(#clip610)" style="stroke:#000000; stroke-linecap:round; stroke-linejoin:round; stroke-width:4; stroke-opacity:1; fill:none" points="1610.36,1099.09 1610.36,1080.19 "/>
<polyline clip-path="url(#clip610)" style="stroke:#000000; stroke-linecap:round; stroke-linejoin:round; stroke-width:4; stroke-opacity:1; fill:none" points="1820.91,1099.09 1820.91,1080.19 "/>
<polyline clip-path="url(#clip610)" style="stroke:#000000; stroke-linecap:round; stroke-linejoin:round; stroke-width:4; stroke-opacity:1; fill:none" points="2031.46,1099.09 2031.46,1080.19 "/>
<polyline clip-path="url(#clip610)" style="stroke:#000000; stroke-linecap:round; stroke-linejoin:round; stroke-width:4; stroke-opacity:1; fill:none" points="2242.01,1099.09 2242.01,1080.19 "/>
<path clip-path="url(#clip610)" d="M1600.64 1126.93 L1619 1126.93 L1619 1130.86 L1604.92 1130.86 L1604.92 1139.34 Q1605.94 1138.99 1606.96 1138.83 Q1607.98 1138.64 1609 1138.64 Q1614.78 1138.64 1618.16 1141.81 Q1621.54 1144.98 1621.54 1150.4 Q1621.54 1155.98 1618.07 1159.08 Q1614.6 1162.16 1608.28 1162.16 Q1606.1 1162.16 1603.83 1161.79 Q1601.59 1161.42 1599.18 1160.68 L1599.18 1155.98 Q1601.26 1157.11 1603.49 1157.67 Q1605.71 1158.22 1608.19 1158.22 Q1612.19 1158.22 1614.53 1156.12 Q1616.87 1154.01 1616.87 1150.4 Q1616.87 1146.79 1614.53 1144.68 Q1612.19 1142.58 1608.19 1142.58 Q1606.31 1142.58 1604.44 1142.99 Q1602.58 1143.41 1600.64 1144.29 L1600.64 1126.93 Z" fill="#000000" fill-rule="nonzero" fill-opacity="1" /><path clip-path="url(#clip610)" d="M1795.6 1157.55 L1803.24 1157.55 L1803.24 1131.19 L1794.93 1132.85 L1794.93 1128.59 L1803.19 1126.93 L1807.87 1126.93 L1807.87 1157.55 L1815.51 1157.55 L1815.51 1161.49 L1795.6 1161.49 L1795.6 1157.55 Z" fill="#000000" fill-rule="nonzero" fill-opacity="1" /><path clip-path="url(#clip610)" d="M1834.95 1130.01 Q1831.34 1130.01 1829.51 1133.57 Q1827.7 1137.11 1827.7 1144.24 Q1827.7 1151.35 1829.51 1154.91 Q1831.34 1158.46 1834.95 1158.46 Q1838.58 1158.46 1840.39 1154.91 Q1842.22 1151.35 1842.22 1144.24 Q1842.22 1137.11 1840.39 1133.57 Q1838.58 1130.01 1834.95 1130.01 M1834.95 1126.3 Q1840.76 1126.3 1843.82 1130.91 Q1846.89 1135.49 1846.89 1144.24 Q1846.89 1152.97 1843.82 1157.58 Q1840.76 1162.16 1834.95 1162.16 Q1829.14 1162.16 1826.06 1157.58 Q1823.01 1152.97 1823.01 1144.24 Q1823.01 1135.49 1826.06 1130.91 Q1829.14 1126.3 1834.95 1126.3 Z" fill="#000000" fill-rule="nonzero" fill-opacity="1" /><path clip-path="url(#clip610)" d="M2006.64 1157.55 L2014.28 1157.55 L2014.28 1131.19 L2005.97 1132.85 L2005.97 1128.59 L2014.24 1126.93 L2018.91 1126.93 L2018.91 1157.55 L2026.55 1157.55 L2026.55 1161.49 L2006.64 1161.49 L2006.64 1157.55 Z" fill="#000000" fill-rule="nonzero" fill-opacity="1" /><path clip-path="url(#clip610)" d="M2036.04 1126.93 L2054.4 1126.93 L2054.4 1130.86 L2040.32 1130.86 L2040.32 1139.34 Q2041.34 1138.99 2042.36 1138.83 Q2043.38 1138.64 2044.4 1138.64 Q2050.19 1138.64 2053.57 1141.81 Q2056.94 1144.98 2056.94 1150.4 Q2056.94 1155.98 2053.47 1159.08 Q2050 1162.16 2043.68 1162.16 Q2041.51 1162.16 2039.24 1161.79 Q2036.99 1161.42 2034.58 1160.68 L2034.58 1155.98 Q2036.67 1157.11 2038.89 1157.67 Q2041.11 1158.22 2043.59 1158.22 Q2047.59 1158.22 2049.93 1156.12 Q2052.27 1154.01 2052.27 1150.4 Q2052.27 1146.79 2049.93 1144.68 Q2047.59 1142.58 2043.59 1142.58 Q2041.71 1142.58 2039.84 1142.99 Q2037.99 1143.41 2036.04 1144.29 L2036.04 1126.93 Z" fill="#000000" fill-rule="nonzero" fill-opacity="1" /><path clip-path="url(#clip610)" d="M2220.78 1157.55 L2237.1 1157.55 L2237.1 1161.49 L2215.16 1161.49 L2215.16 1157.55 Q2217.82 1154.8 2222.4 1150.17 Q2227.01 1145.52 2228.19 1144.17 Q2230.43 1141.65 2231.31 1139.91 Q2232.22 1138.15 2232.22 1136.46 Q2232.22 1133.71 2230.27 1131.97 Q2228.35 1130.24 2225.25 1130.24 Q2223.05 1130.24 2220.6 1131 Q2218.16 1131.77 2215.39 1133.32 L2215.39 1128.59 Q2218.21 1127.46 2220.66 1126.88 Q2223.12 1126.3 2225.16 1126.3 Q2230.53 1126.3 2233.72 1128.99 Q2236.91 1131.67 2236.91 1136.16 Q2236.91 1138.29 2236.1 1140.21 Q2235.32 1142.11 2233.21 1144.71 Q2232.63 1145.38 2229.53 1148.59 Q2226.43 1151.79 2220.78 1157.55 Z" fill="#000000" fill-rule="nonzero" fill-opacity="1" /><path clip-path="url(#clip610)" d="M2256.91 1130.01 Q2253.3 1130.01 2251.47 1133.57 Q2249.67 1137.11 2249.67 1144.24 Q2249.67 1151.35 2251.47 1154.91 Q2253.3 1158.46 2256.91 1158.46 Q2260.55 1158.46 2262.35 1154.91 Q2264.18 1151.35 2264.18 1144.24 Q2264.18 1137.11 2262.35 1133.57 Q2260.55 1130.01 2256.91 1130.01 M2256.91 1126.3 Q2262.72 1126.3 2265.78 1130.91 Q2268.86 1135.49 2268.86 1144.24 Q2268.86 1152.97 2265.78 1157.58 Q2262.72 1162.16 2256.91 1162.16 Q2251.1 1162.16 2248.03 1157.58 Q2244.97 1152.97 2244.97 1144.24 Q2244.97 1135.49 2248.03 1130.91 Q2251.1 1126.3 2256.91 1126.3 Z" fill="#000000" fill-rule="nonzero" fill-opacity="1" /><polyline clip-path="url(#clip610)" style="stroke:#000000; stroke-linecap:round; stroke-linejoin:round; stroke-width:4; stroke-opacity:1; fill:none" points="1415.39,1099.09 1415.39,92.1521 "/>
<polyline clip-path="url(#clip610)" style="stroke:#000000; stroke-linecap:round; stroke-linejoin:round; stroke-width:4; stroke-opacity:1; fill:none" points="1415.39,1049.52 1434.29,1049.52 "/>
<polyline clip-path="url(#clip610)" style="stroke:#000000; stroke-linecap:round; stroke-linejoin:round; stroke-width:4; stroke-opacity:1; fill:none" points="1415.39,831.452 1434.29,831.452 "/>
<polyline clip-path="url(#clip610)" style="stroke:#000000; stroke-linecap:round; stroke-linejoin:round; stroke-width:4; stroke-opacity:1; fill:none" points="1415.39,613.385 1434.29,613.385 "/>
<polyline clip-path="url(#clip610)" style="stroke:#000000; stroke-linecap:round; stroke-linejoin:round; stroke-width:4; stroke-opacity:1; fill:none" points="1415.39,395.318 1434.29,395.318 "/>
<polyline clip-path="url(#clip610)" style="stroke:#000000; stroke-linecap:round; stroke-linejoin:round; stroke-width:4; stroke-opacity:1; fill:none" points="1415.39,177.251 1434.29,177.251 "/>
<path clip-path="url(#clip610)" d="M1252.71 1062.86 L1260.34 1062.86 L1260.34 1036.5 L1252.03 1038.17 L1252.03 1033.91 L1260.3 1032.24 L1264.97 1032.24 L1264.97 1062.86 L1272.61 1062.86 L1272.61 1066.8 L1252.71 1066.8 L1252.71 1062.86 Z" fill="#000000" fill-rule="nonzero" fill-opacity="1" /><path clip-path="url(#clip610)" d="M1282.06 1060.92 L1286.94 1060.92 L1286.94 1066.8 L1282.06 1066.8 L1282.06 1060.92 Z" fill="#000000" fill-rule="nonzero" fill-opacity="1" /><path clip-path="url(#clip610)" d="M1307.13 1035.32 Q1303.51 1035.32 1301.69 1038.88 Q1299.88 1042.42 1299.88 1049.55 Q1299.88 1056.66 1301.69 1060.23 Q1303.51 1063.77 1307.13 1063.77 Q1310.76 1063.77 1312.57 1060.23 Q1314.39 1056.66 1314.39 1049.55 Q1314.39 1042.42 1312.57 1038.88 Q1310.76 1035.32 1307.13 1035.32 M1307.13 1031.61 Q1312.94 1031.61 1315.99 1036.22 Q1319.07 1040.8 1319.07 1049.55 Q1319.07 1058.28 1315.99 1062.89 Q1312.94 1067.47 1307.13 1067.47 Q1301.32 1067.47 1298.24 1062.89 Q1295.18 1058.28 1295.18 1049.55 Q1295.18 1040.8 1298.24 1036.22 Q1301.32 1031.61 1307.13 1031.61 Z" fill="#000000" fill-rule="nonzero" fill-opacity="1" /><path clip-path="url(#clip610)" d="M1337.29 1035.32 Q1333.68 1035.32 1331.85 1038.88 Q1330.04 1042.42 1330.04 1049.55 Q1330.04 1056.66 1331.85 1060.23 Q1333.68 1063.77 1337.29 1063.77 Q1340.92 1063.77 1342.73 1060.23 Q1344.56 1056.66 1344.56 1049.55 Q1344.56 1042.42 1342.73 1038.88 Q1340.92 1035.32 1337.29 1035.32 M1337.29 1031.61 Q1343.1 1031.61 1346.15 1036.22 Q1349.23 1040.8 1349.23 1049.55 Q1349.23 1058.28 1346.15 1062.89 Q1343.1 1067.47 1337.29 1067.47 Q1331.48 1067.47 1328.4 1062.89 Q1325.34 1058.28 1325.34 1049.55 Q1325.34 1040.8 1328.4 1036.22 Q1331.48 1031.61 1337.29 1031.61 Z" fill="#000000" fill-rule="nonzero" fill-opacity="1" /><path clip-path="url(#clip610)" d="M1367.45 1035.32 Q1363.84 1035.32 1362.01 1038.88 Q1360.2 1042.42 1360.2 1049.55 Q1360.2 1056.66 1362.01 1060.23 Q1363.84 1063.77 1367.45 1063.77 Q1371.08 1063.77 1372.89 1060.23 Q1374.72 1056.66 1374.72 1049.55 Q1374.72 1042.42 1372.89 1038.88 Q1371.08 1035.32 1367.45 1035.32 M1367.45 1031.61 Q1373.26 1031.61 1376.32 1036.22 Q1379.39 1040.8 1379.39 1049.55 Q1379.39 1058.28 1376.32 1062.89 Q1373.26 1067.47 1367.45 1067.47 Q1361.64 1067.47 1358.56 1062.89 Q1355.51 1058.28 1355.51 1049.55 Q1355.51 1040.8 1358.56 1036.22 Q1361.64 1031.61 1367.45 1031.61 Z" fill="#000000" fill-rule="nonzero" fill-opacity="1" /><path clip-path="url(#clip610)" d="M1253.7 844.797 L1261.34 844.797 L1261.34 818.432 L1253.03 820.098 L1253.03 815.839 L1261.29 814.172 L1265.97 814.172 L1265.97 844.797 L1273.61 844.797 L1273.61 848.732 L1253.7 848.732 L1253.7 844.797 Z" fill="#000000" fill-rule="nonzero" fill-opacity="1" /><path clip-path="url(#clip610)" d="M1283.05 842.853 L1287.94 842.853 L1287.94 848.732 L1283.05 848.732 L1283.05 842.853 Z" fill="#000000" fill-rule="nonzero" fill-opacity="1" /><path clip-path="url(#clip610)" d="M1308.12 817.251 Q1304.51 817.251 1302.68 820.816 Q1300.88 824.358 1300.88 831.487 Q1300.88 838.594 1302.68 842.158 Q1304.51 845.7 1308.12 845.7 Q1311.76 845.7 1313.56 842.158 Q1315.39 838.594 1315.39 831.487 Q1315.39 824.358 1313.56 820.816 Q1311.76 817.251 1308.12 817.251 M1308.12 813.547 Q1313.93 813.547 1316.99 818.154 Q1320.07 822.737 1320.07 831.487 Q1320.07 840.214 1316.99 844.82 Q1313.93 849.404 1308.12 849.404 Q1302.31 849.404 1299.23 844.82 Q1296.18 840.214 1296.18 831.487 Q1296.18 822.737 1299.23 818.154 Q1302.31 813.547 1308.12 813.547 Z" fill="#000000" fill-rule="nonzero" fill-opacity="1" /><path clip-path="url(#clip610)" d="M1332.31 844.797 L1348.63 844.797 L1348.63 848.732 L1326.69 848.732 L1326.69 844.797 Q1329.35 842.043 1333.93 837.413 Q1338.54 832.76 1339.72 831.418 Q1341.96 828.895 1342.84 827.158 Q1343.75 825.399 1343.75 823.709 Q1343.75 820.955 1341.8 819.219 Q1339.88 817.483 1336.78 817.483 Q1334.58 817.483 1332.13 818.246 Q1329.7 819.01 1326.92 820.561 L1326.92 815.839 Q1329.74 814.705 1332.2 814.126 Q1334.65 813.547 1336.69 813.547 Q1342.06 813.547 1345.25 816.233 Q1348.45 818.918 1348.45 823.408 Q1348.45 825.538 1347.64 827.459 Q1346.85 829.358 1344.74 831.95 Q1344.16 832.621 1341.06 835.839 Q1337.96 839.033 1332.31 844.797 Z" fill="#000000" fill-rule="nonzero" fill-opacity="1" /><path clip-path="url(#clip610)" d="M1358.49 814.172 L1376.85 814.172 L1376.85 818.108 L1362.77 818.108 L1362.77 826.58 Q1363.79 826.233 1364.81 826.07 Q1365.83 825.885 1366.85 825.885 Q1372.63 825.885 1376.01 829.057 Q1379.39 832.228 1379.39 837.645 Q1379.39 843.223 1375.92 846.325 Q1372.45 849.404 1366.13 849.404 Q1363.95 849.404 1361.69 849.033 Q1359.44 848.663 1357.03 847.922 L1357.03 843.223 Q1359.12 844.357 1361.34 844.913 Q1363.56 845.469 1366.04 845.469 Q1370.04 845.469 1372.38 843.362 Q1374.72 841.256 1374.72 837.645 Q1374.72 834.033 1372.38 831.927 Q1370.04 829.82 1366.04 829.82 Q1364.16 829.82 1362.29 830.237 Q1360.44 830.654 1358.49 831.533 L1358.49 814.172 Z" fill="#000000" fill-rule="nonzero" fill-opacity="1" /><path clip-path="url(#clip610)" d="M1252.71 626.73 L1260.34 626.73 L1260.34 600.364 L1252.03 602.031 L1252.03 597.772 L1260.3 596.105 L1264.97 596.105 L1264.97 626.73 L1272.61 626.73 L1272.61 630.665 L1252.71 630.665 L1252.71 626.73 Z" fill="#000000" fill-rule="nonzero" fill-opacity="1" /><path clip-path="url(#clip610)" d="M1282.06 624.786 L1286.94 624.786 L1286.94 630.665 L1282.06 630.665 L1282.06 624.786 Z" fill="#000000" fill-rule="nonzero" fill-opacity="1" /><path clip-path="url(#clip610)" d="M1307.13 599.184 Q1303.51 599.184 1301.69 602.749 Q1299.88 606.29 1299.88 613.42 Q1299.88 620.526 1301.69 624.091 Q1303.51 627.633 1307.13 627.633 Q1310.76 627.633 1312.57 624.091 Q1314.39 620.526 1314.39 613.42 Q1314.39 606.29 1312.57 602.749 Q1310.76 599.184 1307.13 599.184 M1307.13 595.48 Q1312.94 595.48 1315.99 600.087 Q1319.07 604.67 1319.07 613.42 Q1319.07 622.147 1315.99 626.753 Q1312.94 631.336 1307.13 631.336 Q1301.32 631.336 1298.24 626.753 Q1295.18 622.147 1295.18 613.42 Q1295.18 604.67 1298.24 600.087 Q1301.32 595.48 1307.13 595.48 Z" fill="#000000" fill-rule="nonzero" fill-opacity="1" /><path clip-path="url(#clip610)" d="M1327.33 596.105 L1345.69 596.105 L1345.69 600.04 L1331.62 600.04 L1331.62 608.512 Q1332.64 608.165 1333.65 608.003 Q1334.67 607.818 1335.69 607.818 Q1341.48 607.818 1344.86 610.989 Q1348.24 614.161 1348.24 619.577 Q1348.24 625.156 1344.76 628.258 Q1341.29 631.336 1334.97 631.336 Q1332.8 631.336 1330.53 630.966 Q1328.28 630.596 1325.88 629.855 L1325.88 625.156 Q1327.96 626.29 1330.18 626.846 Q1332.4 627.401 1334.88 627.401 Q1338.89 627.401 1341.22 625.295 Q1343.56 623.188 1343.56 619.577 Q1343.56 615.966 1341.22 613.86 Q1338.89 611.753 1334.88 611.753 Q1333.01 611.753 1331.13 612.17 Q1329.28 612.587 1327.33 613.466 L1327.33 596.105 Z" fill="#000000" fill-rule="nonzero" fill-opacity="1" /><path clip-path="url(#clip610)" d="M1367.45 599.184 Q1363.84 599.184 1362.01 602.749 Q1360.2 606.29 1360.2 613.42 Q1360.2 620.526 1362.01 624.091 Q1363.84 627.633 1367.45 627.633 Q1371.08 627.633 1372.89 624.091 Q1374.72 620.526 1374.72 613.42 Q1374.72 606.29 1372.89 602.749 Q1371.08 599.184 1367.45 599.184 M1367.45 595.48 Q1373.26 595.48 1376.32 600.087 Q1379.39 604.67 1379.39 613.42 Q1379.39 622.147 1376.32 626.753 Q1373.26 631.336 1367.45 631.336 Q1361.64 631.336 1358.56 626.753 Q1355.51 622.147 1355.51 613.42 Q1355.51 604.67 1358.56 600.087 Q1361.64 595.48 1367.45 595.48 Z" fill="#000000" fill-rule="nonzero" fill-opacity="1" /><path clip-path="url(#clip610)" d="M1253.7 408.663 L1261.34 408.663 L1261.34 382.297 L1253.03 383.964 L1253.03 379.704 L1261.29 378.038 L1265.97 378.038 L1265.97 408.663 L1273.61 408.663 L1273.61 412.598 L1253.7 412.598 L1253.7 408.663 Z" fill="#000000" fill-rule="nonzero" fill-opacity="1" /><path clip-path="url(#clip610)" d="M1283.05 406.718 L1287.94 406.718 L1287.94 412.598 L1283.05 412.598 L1283.05 406.718 Z" fill="#000000" fill-rule="nonzero" fill-opacity="1" /><path clip-path="url(#clip610)" d="M1308.12 381.117 Q1304.51 381.117 1302.68 384.681 Q1300.88 388.223 1300.88 395.353 Q1300.88 402.459 1302.68 406.024 Q1304.51 409.565 1308.12 409.565 Q1311.76 409.565 1313.56 406.024 Q1315.39 402.459 1315.39 395.353 Q1315.39 388.223 1313.56 384.681 Q1311.76 381.117 1308.12 381.117 M1308.12 377.413 Q1313.93 377.413 1316.99 382.019 Q1320.07 386.603 1320.07 395.353 Q1320.07 404.079 1316.99 408.686 Q1313.93 413.269 1308.12 413.269 Q1302.31 413.269 1299.23 408.686 Q1296.18 404.079 1296.18 395.353 Q1296.18 386.603 1299.23 382.019 Q1302.31 377.413 1308.12 377.413 Z" fill="#000000" fill-rule="nonzero" fill-opacity="1" /><path clip-path="url(#clip610)" d="M1327.1 378.038 L1349.32 378.038 L1349.32 380.029 L1336.78 412.598 L1331.89 412.598 L1343.7 381.973 L1327.1 381.973 L1327.1 378.038 Z" fill="#000000" fill-rule="nonzero" fill-opacity="1" /><path clip-path="url(#clip610)" d="M1358.49 378.038 L1376.85 378.038 L1376.85 381.973 L1362.77 381.973 L1362.77 390.445 Q1363.79 390.098 1364.81 389.936 Q1365.83 389.751 1366.85 389.751 Q1372.63 389.751 1376.01 392.922 Q1379.39 396.093 1379.39 401.51 Q1379.39 407.089 1375.92 410.19 Q1372.45 413.269 1366.13 413.269 Q1363.95 413.269 1361.69 412.899 Q1359.44 412.528 1357.03 411.788 L1357.03 407.089 Q1359.12 408.223 1361.34 408.778 Q1363.56 409.334 1366.04 409.334 Q1370.04 409.334 1372.38 407.227 Q1374.72 405.121 1374.72 401.51 Q1374.72 397.899 1372.38 395.792 Q1370.04 393.686 1366.04 393.686 Q1364.16 393.686 1362.29 394.103 Q1360.44 394.519 1358.49 395.399 L1358.49 378.038 Z" fill="#000000" fill-rule="nonzero" fill-opacity="1" /><path clip-path="url(#clip610)" d="M1252.71 190.595 L1260.34 190.595 L1260.34 164.23 L1252.03 165.896 L1252.03 161.637 L1260.3 159.971 L1264.97 159.971 L1264.97 190.595 L1272.61 190.595 L1272.61 194.531 L1252.71 194.531 L1252.71 190.595 Z" fill="#000000" fill-rule="nonzero" fill-opacity="1" /><path clip-path="url(#clip610)" d="M1282.06 188.651 L1286.94 188.651 L1286.94 194.531 L1282.06 194.531 L1282.06 188.651 Z" fill="#000000" fill-rule="nonzero" fill-opacity="1" /><path clip-path="url(#clip610)" d="M1297.94 190.595 L1305.58 190.595 L1305.58 164.23 L1297.27 165.896 L1297.27 161.637 L1305.53 159.971 L1310.2 159.971 L1310.2 190.595 L1317.84 190.595 L1317.84 194.531 L1297.94 194.531 L1297.94 190.595 Z" fill="#000000" fill-rule="nonzero" fill-opacity="1" /><path clip-path="url(#clip610)" d="M1337.29 163.049 Q1333.68 163.049 1331.85 166.614 Q1330.04 170.156 1330.04 177.285 Q1330.04 184.392 1331.85 187.957 Q1333.68 191.498 1337.29 191.498 Q1340.92 191.498 1342.73 187.957 Q1344.56 184.392 1344.56 177.285 Q1344.56 170.156 1342.73 166.614 Q1340.92 163.049 1337.29 163.049 M1337.29 159.346 Q1343.1 159.346 1346.15 163.952 Q1349.23 168.535 1349.23 177.285 Q1349.23 186.012 1346.15 190.619 Q1343.1 195.202 1337.29 195.202 Q1331.48 195.202 1328.4 190.619 Q1325.34 186.012 1325.34 177.285 Q1325.34 168.535 1328.4 163.952 Q1331.48 159.346 1337.29 159.346 Z" fill="#000000" fill-rule="nonzero" fill-opacity="1" /><path clip-path="url(#clip610)" d="M1367.45 163.049 Q1363.84 163.049 1362.01 166.614 Q1360.2 170.156 1360.2 177.285 Q1360.2 184.392 1362.01 187.957 Q1363.84 191.498 1367.45 191.498 Q1371.08 191.498 1372.89 187.957 Q1374.72 184.392 1374.72 177.285 Q1374.72 170.156 1372.89 166.614 Q1371.08 163.049 1367.45 163.049 M1367.45 159.346 Q1373.26 159.346 1376.32 163.952 Q1379.39 168.535 1379.39 177.285 Q1379.39 186.012 1376.32 190.619 Q1373.26 195.202 1367.45 195.202 Q1361.64 195.202 1358.56 190.619 Q1355.51 186.012 1355.51 177.285 Q1355.51 168.535 1358.56 163.952 Q1361.64 159.346 1367.45 159.346 Z" fill="#000000" fill-rule="nonzero" fill-opacity="1" /><path clip-path="url(#clip610)" d="M1743.36 31.7342 Q1743.36 26.5259 1741.2 23.6613 Q1739.06 20.7968 1735.18 20.7968 Q1731.33 20.7968 1729.17 23.6613 Q1727.03 26.5259 1727.03 31.7342 Q1727.03 36.9165 1729.17 39.781 Q1731.33 42.6456 1735.18 42.6456 Q1739.06 42.6456 1741.2 39.781 Q1743.36 36.9165 1743.36 31.7342 M1748.15 43.0362 Q1748.15 50.4841 1744.84 54.1039 Q1741.54 57.7497 1734.71 57.7497 Q1732.19 57.7497 1729.95 57.3591 Q1727.71 56.9945 1725.6 56.2132 L1725.6 51.5518 Q1727.71 52.6976 1729.77 53.2445 Q1731.82 53.7914 1733.96 53.7914 Q1738.67 53.7914 1741.02 51.3174 Q1743.36 48.8695 1743.36 43.8956 L1743.36 41.5258 Q1741.88 44.1039 1739.56 45.38 Q1737.24 46.656 1734.01 46.656 Q1728.65 46.656 1725.36 42.5675 Q1722.08 38.479 1722.08 31.7342 Q1722.08 24.9634 1725.36 20.8749 Q1728.65 16.7864 1734.01 16.7864 Q1737.24 16.7864 1739.56 18.0624 Q1741.88 19.3384 1743.36 21.9165 L1743.36 17.4895 L1748.15 17.4895 L1748.15 43.0362 Z" fill="#000000" fill-rule="nonzero" fill-opacity="1" /><path clip-path="url(#clip610)" d="M1777.21 21.9165 L1777.21 6.13538 L1782.01 6.13538 L1782.01 46.656 L1777.21 46.656 L1777.21 42.281 Q1775.7 44.8852 1773.39 46.1612 Q1771.09 47.4112 1767.86 47.4112 Q1762.58 47.4112 1759.25 43.1925 Q1755.94 38.9737 1755.94 32.0988 Q1755.94 25.2238 1759.25 21.0051 Q1762.58 16.7864 1767.86 16.7864 Q1771.09 16.7864 1773.39 18.0624 Q1775.7 19.3124 1777.21 21.9165 M1760.89 32.0988 Q1760.89 37.3852 1763.05 40.406 Q1765.23 43.4008 1769.04 43.4008 Q1772.84 43.4008 1775.03 40.406 Q1777.21 37.3852 1777.21 32.0988 Q1777.21 26.8124 1775.03 23.8176 Q1772.84 20.7968 1769.04 20.7968 Q1765.23 20.7968 1763.05 23.8176 Q1760.89 26.8124 1760.89 32.0988 Z" fill="#000000" fill-rule="nonzero" fill-opacity="1" /><path clip-path="url(#clip610)" d="M1796.51 42.281 L1796.51 57.7497 L1791.69 57.7497 L1791.69 17.4895 L1796.51 17.4895 L1796.51 21.9165 Q1798.02 19.3124 1800.31 18.0624 Q1802.63 16.7864 1805.83 16.7864 Q1811.15 16.7864 1814.45 21.0051 Q1817.79 25.2238 1817.79 32.0988 Q1817.79 38.9737 1814.45 43.1925 Q1811.15 47.4112 1805.83 47.4112 Q1802.63 47.4112 1800.31 46.1612 Q1798.02 44.8852 1796.51 42.281 M1812.81 32.0988 Q1812.81 26.8124 1810.62 23.8176 Q1808.46 20.7968 1804.66 20.7968 Q1800.86 20.7968 1798.67 23.8176 Q1796.51 26.8124 1796.51 32.0988 Q1796.51 37.3852 1798.67 40.406 Q1800.86 43.4008 1804.66 43.4008 Q1808.46 43.4008 1810.62 40.406 Q1812.81 37.3852 1812.81 32.0988 Z" fill="#000000" fill-rule="nonzero" fill-opacity="1" /><path clip-path="url(#clip610)" d="M1861.87 21.9165 L1861.87 6.13538 L1866.67 6.13538 L1866.67 46.656 L1861.87 46.656 L1861.87 42.281 Q1860.36 44.8852 1858.05 46.1612 Q1855.75 47.4112 1852.53 47.4112 Q1847.24 47.4112 1843.91 43.1925 Q1840.6 38.9737 1840.6 32.0988 Q1840.6 25.2238 1843.91 21.0051 Q1847.24 16.7864 1852.53 16.7864 Q1855.75 16.7864 1858.05 18.0624 Q1860.36 19.3124 1861.87 21.9165 M1845.55 32.0988 Q1845.55 37.3852 1847.71 40.406 Q1849.9 43.4008 1853.7 43.4008 Q1857.5 43.4008 1859.69 40.406 Q1861.87 37.3852 1861.87 32.0988 Q1861.87 26.8124 1859.69 23.8176 Q1857.5 20.7968 1853.7 20.7968 Q1849.9 20.7968 1847.71 23.8176 Q1845.55 26.8124 1845.55 32.0988 Z" fill="#000000" fill-rule="nonzero" fill-opacity="1" /><path clip-path="url(#clip610)" d="M1901.48 30.8748 L1901.48 33.2186 L1879.45 33.2186 Q1879.77 38.1665 1882.42 40.7706 Q1885.1 43.3487 1889.87 43.3487 Q1892.63 43.3487 1895.21 42.6716 Q1897.81 41.9946 1900.36 40.6404 L1900.36 45.1716 Q1897.79 46.2654 1895.08 46.8383 Q1892.37 47.4112 1889.58 47.4112 Q1882.6 47.4112 1878.52 43.3487 Q1874.45 39.2862 1874.45 32.3592 Q1874.45 25.1978 1878.31 21.0051 Q1882.19 16.7864 1888.75 16.7864 Q1894.63 16.7864 1898.05 20.5884 Q1901.48 24.3645 1901.48 30.8748 M1896.69 29.4686 Q1896.64 25.5363 1894.48 23.1926 Q1892.34 20.8488 1888.8 20.8488 Q1884.79 20.8488 1882.37 23.1145 Q1879.97 25.3801 1879.61 29.4946 L1896.69 29.4686 Z" fill="#000000" fill-rule="nonzero" fill-opacity="1" /><path clip-path="url(#clip610)" d="M1924.11 6.13538 L1924.11 10.1197 L1919.53 10.1197 Q1916.95 10.1197 1915.94 11.1614 Q1914.95 12.2031 1914.95 14.9114 L1914.95 17.4895 L1922.84 17.4895 L1922.84 21.2134 L1914.95 21.2134 L1914.95 46.656 L1910.13 46.656 L1910.13 21.2134 L1905.55 21.2134 L1905.55 17.4895 L1910.13 17.4895 L1910.13 15.4583 Q1910.13 10.5885 1912.4 8.37496 Q1914.66 6.13538 1919.58 6.13538 L1924.11 6.13538 Z" fill="#000000" fill-rule="nonzero" fill-opacity="1" /><path clip-path="url(#clip610)" d="M1928.12 6.13538 L1932.92 6.13538 L1932.92 46.656 L1928.12 46.656 L1928.12 6.13538 Z" fill="#000000" fill-rule="nonzero" fill-opacity="1" /><path clip-path="url(#clip610)" d="M1956.2 31.9946 Q1950.39 31.9946 1948.15 33.3227 Q1945.91 34.6509 1945.91 37.854 Q1945.91 40.406 1947.58 41.9164 Q1949.27 43.4008 1952.16 43.4008 Q1956.14 43.4008 1958.54 40.5883 Q1960.96 37.7498 1960.96 33.0623 L1960.96 31.9946 L1956.2 31.9946 M1965.75 30.0155 L1965.75 46.656 L1960.96 46.656 L1960.96 42.2289 Q1959.32 44.8852 1956.87 46.1612 Q1954.43 47.4112 1950.88 47.4112 Q1946.41 47.4112 1943.75 44.9112 Q1941.12 42.3852 1941.12 38.1665 Q1941.12 33.2446 1944.4 30.7446 Q1947.71 28.2446 1954.24 28.2446 L1960.96 28.2446 L1960.96 27.7759 Q1960.96 24.4686 1958.78 22.6718 Q1956.61 20.8488 1952.68 20.8488 Q1950.18 20.8488 1947.81 21.4478 Q1945.44 22.0468 1943.25 23.2447 L1943.25 18.8176 Q1945.88 17.802 1948.36 17.3072 Q1950.83 16.7864 1953.18 16.7864 Q1959.5 16.7864 1962.63 20.0676 Q1965.75 23.3488 1965.75 30.0155 Z" fill="#000000" fill-rule="nonzero" fill-opacity="1" /><path clip-path="url(#clip610)" d="M1980.36 9.20828 L1980.36 17.4895 L1990.23 17.4895 L1990.23 21.2134 L1980.36 21.2134 L1980.36 37.0467 Q1980.36 40.6144 1981.33 41.63 Q1982.32 42.6456 1985.31 42.6456 L1990.23 42.6456 L1990.23 46.656 L1985.31 46.656 Q1979.76 46.656 1977.66 44.5987 Q1975.55 42.5154 1975.55 37.0467 L1975.55 21.2134 L1972.03 21.2134 L1972.03 17.4895 L1975.55 17.4895 L1975.55 9.20828 L1980.36 9.20828 Z" fill="#000000" fill-rule="nonzero" fill-opacity="1" /><path clip-path="url(#clip610)" d="M2007.84 20.8488 Q2003.98 20.8488 2001.74 23.8697 Q1999.5 26.8644 1999.5 32.0988 Q1999.5 37.3331 2001.72 40.354 Q2003.96 43.3487 2007.84 43.3487 Q2011.67 43.3487 2013.91 40.3279 Q2016.14 37.3071 2016.14 32.0988 Q2016.14 26.9165 2013.91 23.8957 Q2011.67 20.8488 2007.84 20.8488 M2007.84 16.7864 Q2014.09 16.7864 2017.66 20.8488 Q2021.22 24.9113 2021.22 32.0988 Q2021.22 39.2602 2017.66 43.3487 Q2014.09 47.4112 2007.84 47.4112 Q2001.56 47.4112 1997.99 43.3487 Q1994.45 39.2602 1994.45 32.0988 Q1994.45 24.9113 1997.99 20.8488 Q2001.56 16.7864 2007.84 16.7864 Z" fill="#000000" fill-rule="nonzero" fill-opacity="1" /><path clip-path="url(#clip610)" d="M2046.07 21.9686 Q2045.26 21.4999 2044.3 21.2916 Q2043.36 21.0572 2042.21 21.0572 Q2038.15 21.0572 2035.96 23.7134 Q2033.8 26.3436 2033.8 31.2915 L2033.8 46.656 L2028.98 46.656 L2028.98 17.4895 L2033.8 17.4895 L2033.8 22.0207 Q2035.31 19.3645 2037.73 18.0884 Q2040.15 16.7864 2043.62 16.7864 Q2044.11 16.7864 2044.71 16.8645 Q2045.31 16.9166 2046.04 17.0468 L2046.07 21.9686 Z" fill="#000000" fill-rule="nonzero" fill-opacity="1" /><path clip-path="url(#clip613)" d="M1526.14 1050.74 L1568.25 1062.11 L1610.36 1070.59 L1652.47 1039.75 L1694.58 996.536 L1736.69 1039 L1778.8 992.011 L1820.91 932.377 L1863.02 905.285 L1905.13 902.787 L1947.24 855.609 L1989.35 826.694 L2031.46 794.651 L2073.57 801.527 L2115.68 799.763 L2157.79 775.65 L2199.9 767.627 L2242.01 738.278 L2284.12 721.472 L2326.23 685.78 L2326.23 426.091 L2284.12 436.787 L2242.01 456.66 L2199.9 446.147 L2157.79 466.626 L2115.68 543.514 L2073.57 559.965 L2031.46 611.491 L1989.35 609.658 L1947.24 606.051 L1905.13 619.409 L1863.02 696.784 L1820.91 728.402 L1778.8 732.66 L1736.69 738.889 L1694.58 742.945 L1652.47 739.528 L1610.36 808.82 L1568.25 876.027 L1526.14 974.447  Z" fill="#009af9" fill-rule="evenodd" fill-opacity="0.1"/>
<polyline clip-path="url(#clip613)" style="stroke:#009af9; stroke-linecap:round; stroke-linejoin:round; stroke-width:4; stroke-opacity:1; fill:none" points="1526.14,1012.59 1568.25,969.068 1610.36,939.705 1652.47,889.637 1694.58,869.741 1736.69,888.945 1778.8,862.336 1820.91,830.39 1863.02,801.034 1905.13,761.098 1947.24,730.83 1989.35,718.176 2031.46,703.071 2073.57,680.746 2115.68,671.639 2157.79,621.138 2199.9,606.887 2242.01,597.469 2284.12,579.129 2326.23,555.935 "/>
<path clip-path="url(#clip613)" d="M1526.14 1042.86 L1568.25 1024.69 L1610.36 1018.03 L1652.47 923.857 L1694.58 902.714 L1736.69 845.551 L1778.8 841.887 L1820.91 828.005 L1863.02 821.965 L1905.13 815.599 L1947.24 809.466 L1989.35 783.465 L2031.46 753.204 L2073.57 676.436 L2115.68 680.784 L2157.79 662.956 L2199.9 637.2 L2242.01 614.223 L2284.12 587.701 L2326.23 546.916 L2326.23 120.65 L2284.12 152.457 L2242.01 178.011 L2199.9 226.933 L2157.79 265.402 L2115.68 341.322 L2073.57 394.773 L2031.46 400.771 L1989.35 492.941 L1947.24 582.42 L1905.13 636.709 L1863.02 696.695 L1820.91 662.872 L1778.8 753.376 L1736.69 755.994 L1694.58 798.167 L1652.47 830.676 L1610.36 886.003 L1568.25 938.816 L1526.14 984.227  Z" fill="#e26f46" fill-rule="evenodd" fill-opacity="0.1"/>
<polyline clip-path="url(#clip613)" style="stroke:#e26f46; stroke-linecap:round; stroke-linejoin:round; stroke-width:4; stroke-opacity:1; fill:none" points="1526.14,1013.54 1568.25,981.754 1610.36,952.017 1652.47,877.266 1694.58,850.44 1736.69,800.773 1778.8,797.632 1820.91,745.438 1863.02,759.33 1905.13,726.154 1947.24,695.943 1989.35,638.203 2031.46,576.988 2073.57,535.604 2115.68,511.053 2157.79,464.179 2199.9,432.067 2242.01,396.117 2284.12,370.079 2326.23,333.783 "/>
</svg>
