<?xml version="1.0" encoding="utf-8"?>
<svg xmlns="http://www.w3.org/2000/svg" xmlns:xlink="http://www.w3.org/1999/xlink" width="600" height="400" viewBox="0 0 2400 1600">
<defs>
  <clipPath id="clip090">
    <rect x="0" y="0" width="2400" height="1600"/>
  </clipPath>
</defs>
<path clip-path="url(#clip090)" d="M0 1600 L2400 1600 L2400 0 L0 0  Z" fill="#ffffff" fill-rule="evenodd" fill-opacity="1"/>
<defs>
  <clipPath id="clip091">
    <rect x="480" y="0" width="1681" height="1600"/>
  </clipPath>
</defs>
<path clip-path="url(#clip090)" d="M202.177 1486.45 L2352.76 1486.45 L2352.76 47.2441 L202.177 47.2441  Z" fill="#ffffff" fill-rule="evenodd" fill-opacity="1"/>
<defs>
  <clipPath id="clip092">
    <rect x="202" y="47" width="2152" height="1440"/>
  </clipPath>
</defs>
<polyline clip-path="url(#clip092)" style="stroke:#000000; stroke-linecap:round; stroke-linejoin:round; stroke-width:2; stroke-opacity:0.1; fill:none" points="668.812,1486.45 668.812,47.2441 "/>
<polyline clip-path="url(#clip092)" style="stroke:#000000; stroke-linecap:round; stroke-linejoin:round; stroke-width:2; stroke-opacity:0.1; fill:none" points="1176.02,1486.45 1176.02,47.2441 "/>
<polyline clip-path="url(#clip092)" style="stroke:#000000; stroke-linecap:round; stroke-linejoin:round; stroke-width:2; stroke-opacity:0.1; fill:none" points="1683.24,1486.45 1683.24,47.2441 "/>
<polyline clip-path="url(#clip092)" style="stroke:#000000; stroke-linecap:round; stroke-linejoin:round; stroke-width:2; stroke-opacity:0.1; fill:none" points="2190.45,1486.45 2190.45,47.2441 "/>
<polyline clip-path="url(#clip092)" style="stroke:#000000; stroke-linecap:round; stroke-linejoin:round; stroke-width:2; stroke-opacity:0.1; fill:none" points="202.177,1439.94 2352.76,1439.94 "/>
<polyline clip-path="url(#clip092)" style="stroke:#000000; stroke-linecap:round; stroke-linejoin:round; stroke-width:2; stroke-opacity:0.1; fill:none" points="202.177,1151.06 2352.76,1151.06 "/>
<polyline clip-path="url(#clip092)" style="stroke:#000000; stroke-linecap:round; stroke-linejoin:round; stroke-width:2; stroke-opacity:0.1; fill:none" points="202.177,862.177 2352.76,862.177 "/>
<polyline clip-path="url(#clip092)" style="stroke:#000000; stroke-linecap:round; stroke-linejoin:round; stroke-width:2; stroke-opacity:0.1; fill:none" points="202.177,573.296 2352.76,573.296 "/>
<polyline clip-path="url(#clip092)" style="stroke:#000000; stroke-linecap:round; stroke-linejoin:round; stroke-width:2; stroke-opacity:0.1; fill:none" points="202.177,284.415 2352.76,284.415 "/>
<polyline clip-path="url(#clip090)" style="stroke:#000000; stroke-linecap:round; stroke-linejoin:round; stroke-width:4; stroke-opacity:1; fill:none" points="202.177,1486.45 2352.76,1486.45 "/>
<polyline clip-path="url(#clip090)" style="stroke:#000000; stroke-linecap:round; stroke-linejoin:round; stroke-width:4; stroke-opacity:1; fill:none" points="668.812,1486.45 668.812,1467.55 "/>
<polyline clip-path="url(#clip090)" style="stroke:#000000; stroke-linecap:round; stroke-linejoin:round; stroke-width:4; stroke-opacity:1; fill:none" points="1176.02,1486.45 1176.02,1467.55 "/>
<polyline clip-path="url(#clip090)" style="stroke:#000000; stroke-linecap:round; stroke-linejoin:round; stroke-width:4; stroke-opacity:1; fill:none" points="1683.24,1486.45 1683.24,1467.55 "/>
<polyline clip-path="url(#clip090)" style="stroke:#000000; stroke-linecap:round; stroke-linejoin:round; stroke-width:4; stroke-opacity:1; fill:none" points="2190.45,1486.45 2190.45,1467.55 "/>
<path clip-path="url(#clip090)" d="M659.09 1514.29 L677.446 1514.29 L677.446 1518.22 L663.372 1518.22 L663.372 1526.7 Q664.391 1526.35 665.409 1526.19 Q666.428 1526 667.446 1526 Q673.233 1526 676.613 1529.17 Q679.992 1532.34 679.992 1537.76 Q679.992 1543.34 676.52 1546.44 Q673.048 1549.52 666.728 1549.52 Q664.553 1549.52 662.284 1549.15 Q660.039 1548.78 657.631 1548.04 L657.631 1543.34 Q659.715 1544.47 661.937 1545.03 Q664.159 1545.58 666.636 1545.58 Q670.64 1545.58 672.978 1543.48 Q675.316 1541.37 675.316 1537.76 Q675.316 1534.15 672.978 1532.04 Q670.64 1529.94 666.636 1529.94 Q664.761 1529.94 662.886 1530.35 Q661.034 1530.77 659.09 1531.65 L659.09 1514.29 Z" fill="#000000" fill-rule="nonzero" fill-opacity="1" /><path clip-path="url(#clip090)" d="M1150.71 1544.91 L1158.35 1544.91 L1158.35 1518.55 L1150.04 1520.21 L1150.04 1515.95 L1158.3 1514.29 L1162.98 1514.29 L1162.98 1544.91 L1170.62 1544.91 L1170.62 1548.85 L1150.71 1548.85 L1150.71 1544.91 Z" fill="#000000" fill-rule="nonzero" fill-opacity="1" /><path clip-path="url(#clip090)" d="M1190.06 1517.37 Q1186.45 1517.37 1184.62 1520.93 Q1182.82 1524.47 1182.82 1531.6 Q1182.82 1538.71 1184.62 1542.27 Q1186.45 1545.82 1190.06 1545.82 Q1193.7 1545.82 1195.5 1542.27 Q1197.33 1538.71 1197.33 1531.6 Q1197.33 1524.47 1195.5 1520.93 Q1193.7 1517.37 1190.06 1517.37 M1190.06 1513.66 Q1195.87 1513.66 1198.93 1518.27 Q1202.01 1522.85 1202.01 1531.6 Q1202.01 1540.33 1198.93 1544.94 Q1195.87 1549.52 1190.06 1549.52 Q1184.25 1549.52 1181.17 1544.94 Q1178.12 1540.33 1178.12 1531.6 Q1178.12 1522.85 1181.17 1518.27 Q1184.25 1513.66 1190.06 1513.66 Z" fill="#000000" fill-rule="nonzero" fill-opacity="1" /><path clip-path="url(#clip090)" d="M1658.42 1544.91 L1666.06 1544.91 L1666.06 1518.55 L1657.75 1520.21 L1657.75 1515.95 L1666.01 1514.29 L1670.69 1514.29 L1670.69 1544.91 L1678.33 1544.91 L1678.33 1548.85 L1658.42 1548.85 L1658.42 1544.91 Z" fill="#000000" fill-rule="nonzero" fill-opacity="1" /><path clip-path="url(#clip090)" d="M1687.82 1514.29 L1706.18 1514.29 L1706.18 1518.22 L1692.1 1518.22 L1692.1 1526.7 Q1693.12 1526.35 1694.14 1526.19 Q1695.16 1526 1696.18 1526 Q1701.96 1526 1705.34 1529.17 Q1708.72 1532.34 1708.72 1537.76 Q1708.72 1543.34 1705.25 1546.44 Q1701.78 1549.52 1695.46 1549.52 Q1693.28 1549.52 1691.01 1549.15 Q1688.77 1548.78 1686.36 1548.04 L1686.36 1543.34 Q1688.44 1544.47 1690.67 1545.03 Q1692.89 1545.58 1695.37 1545.58 Q1699.37 1545.58 1701.71 1543.48 Q1704.05 1541.37 1704.05 1537.76 Q1704.05 1534.15 1701.71 1532.04 Q1699.37 1529.94 1695.37 1529.94 Q1693.49 1529.94 1691.62 1530.35 Q1689.76 1530.77 1687.82 1531.65 L1687.82 1514.29 Z" fill="#000000" fill-rule="nonzero" fill-opacity="1" /><path clip-path="url(#clip090)" d="M2169.22 1544.91 L2185.54 1544.91 L2185.54 1548.85 L2163.6 1548.85 L2163.6 1544.91 Q2166.26 1542.16 2170.84 1537.53 Q2175.45 1532.88 2176.63 1531.53 Q2178.87 1529.01 2179.75 1527.27 Q2180.66 1525.51 2180.66 1523.82 Q2180.66 1521.07 2178.71 1519.33 Q2176.79 1517.6 2173.69 1517.6 Q2171.49 1517.6 2169.04 1518.36 Q2166.61 1519.13 2163.83 1520.68 L2163.83 1515.95 Q2166.65 1514.82 2169.11 1514.24 Q2171.56 1513.66 2173.6 1513.66 Q2178.97 1513.66 2182.16 1516.35 Q2185.36 1519.03 2185.36 1523.52 Q2185.36 1525.65 2184.55 1527.57 Q2183.76 1529.47 2181.65 1532.07 Q2181.07 1532.74 2177.97 1535.95 Q2174.87 1539.15 2169.22 1544.91 Z" fill="#000000" fill-rule="nonzero" fill-opacity="1" /><path clip-path="url(#clip090)" d="M2205.36 1517.37 Q2201.74 1517.37 2199.92 1520.93 Q2198.11 1524.47 2198.11 1531.6 Q2198.11 1538.71 2199.92 1542.27 Q2201.74 1545.82 2205.36 1545.82 Q2208.99 1545.82 2210.8 1542.27 Q2212.62 1538.71 2212.62 1531.6 Q2212.62 1524.47 2210.8 1520.93 Q2208.99 1517.37 2205.36 1517.37 M2205.36 1513.66 Q2211.17 1513.66 2214.22 1518.27 Q2217.3 1522.85 2217.3 1531.6 Q2217.3 1540.33 2214.22 1544.94 Q2211.17 1549.52 2205.36 1549.52 Q2199.55 1549.52 2196.47 1544.94 Q2193.41 1540.33 2193.41 1531.6 Q2193.41 1522.85 2196.47 1518.27 Q2199.55 1513.66 2205.36 1513.66 Z" fill="#000000" fill-rule="nonzero" fill-opacity="1" /><polyline clip-path="url(#clip090)" style="stroke:#000000; stroke-linecap:round; stroke-linejoin:round; stroke-width:4; stroke-opacity:1; fill:none" points="202.177,1486.45 202.177,47.2441 "/>
<polyline clip-path="url(#clip090)" style="stroke:#000000; stroke-linecap:round; stroke-linejoin:round; stroke-width:4; stroke-opacity:1; fill:none" points="202.177,1439.94 221.074,1439.94 "/>
<polyline clip-path="url(#clip090)" style="stroke:#000000; stroke-linecap:round; stroke-linejoin:round; stroke-width:4; stroke-opacity:1; fill:none" points="202.177,1151.06 221.074,1151.06 "/>
<polyline clip-path="url(#clip090)" style="stroke:#000000; stroke-linecap:round; stroke-linejoin:round; stroke-width:4; stroke-opacity:1; fill:none" points="202.177,862.177 221.074,862.177 "/>
<polyline clip-path="url(#clip090)" style="stroke:#000000; stroke-linecap:round; stroke-linejoin:round; stroke-width:4; stroke-opacity:1; fill:none" points="202.177,573.296 221.074,573.296 "/>
<polyline clip-path="url(#clip090)" style="stroke:#000000; stroke-linecap:round; stroke-linejoin:round; stroke-width:4; stroke-opacity:1; fill:none" points="202.177,284.415 221.074,284.415 "/>
<path clip-path="url(#clip090)" d="M67.9133 1438.58 Q71.2698 1439.3 73.1448 1441.57 Q75.0429 1443.84 75.0429 1447.17 Q75.0429 1452.29 71.5244 1455.09 Q68.0059 1457.89 61.5245 1457.89 Q59.3486 1457.89 57.0338 1457.45 Q54.7421 1457.03 52.2884 1456.18 L52.2884 1451.66 Q54.2328 1452.8 56.5477 1453.38 Q58.8625 1453.95 61.3856 1453.95 Q65.7837 1453.95 68.0754 1452.22 Q70.3902 1450.48 70.3902 1447.17 Q70.3902 1444.12 68.2374 1442.4 Q66.1078 1440.67 62.2884 1440.67 L58.2606 1440.67 L58.2606 1436.82 L62.4735 1436.82 Q65.9226 1436.82 67.7513 1435.46 Q69.58 1434.07 69.58 1431.48 Q69.58 1428.82 67.6819 1427.4 Q65.8069 1425.97 62.2884 1425.97 Q60.3671 1425.97 58.168 1426.38 Q55.969 1426.8 53.3301 1427.68 L53.3301 1423.51 Q55.9921 1422.77 58.3069 1422.4 Q60.6449 1422.03 62.705 1422.03 Q68.0291 1422.03 71.1309 1424.46 Q74.2327 1426.87 74.2327 1430.99 Q74.2327 1433.86 72.5892 1435.85 Q70.9457 1437.82 67.9133 1438.58 Z" fill="#000000" fill-rule="nonzero" fill-opacity="1" /><path clip-path="url(#clip090)" d="M93.9086 1440.81 Q90.5752 1440.81 88.654 1442.59 Q86.7558 1444.37 86.7558 1447.5 Q86.7558 1450.62 88.654 1452.4 Q90.5752 1454.19 93.9086 1454.19 Q97.2419 1454.19 99.1632 1452.4 Q101.084 1450.6 101.084 1447.5 Q101.084 1444.37 99.1632 1442.59 Q97.265 1440.81 93.9086 1440.81 M89.2327 1438.82 Q86.2234 1438.07 84.5336 1436.01 Q82.867 1433.95 82.867 1430.99 Q82.867 1426.85 85.8068 1424.44 Q88.7697 1422.03 93.9086 1422.03 Q99.0706 1422.03 102.01 1424.44 Q104.95 1426.85 104.95 1430.99 Q104.95 1433.95 103.26 1436.01 Q101.594 1438.07 98.6076 1438.82 Q101.987 1439.6 103.862 1441.89 Q105.76 1444.19 105.76 1447.5 Q105.76 1452.52 102.682 1455.2 Q99.6261 1457.89 93.9086 1457.89 Q88.191 1457.89 85.1123 1455.2 Q82.0568 1452.52 82.0568 1447.5 Q82.0568 1444.19 83.9549 1441.89 Q85.8531 1439.6 89.2327 1438.82 M87.5197 1431.43 Q87.5197 1434.12 89.1864 1435.62 Q90.8762 1437.13 93.9086 1437.13 Q96.9178 1437.13 98.6076 1435.62 Q100.321 1434.12 100.321 1431.43 Q100.321 1428.75 98.6076 1427.24 Q96.9178 1425.74 93.9086 1425.74 Q90.8762 1425.74 89.1864 1427.24 Q87.5197 1428.75 87.5197 1431.43 Z" fill="#000000" fill-rule="nonzero" fill-opacity="1" /><path clip-path="url(#clip090)" d="M114.117 1422.66 L132.473 1422.66 L132.473 1426.59 L118.399 1426.59 L118.399 1435.07 Q119.418 1434.72 120.436 1434.56 Q121.455 1434.37 122.473 1434.37 Q128.26 1434.37 131.64 1437.54 Q135.019 1440.71 135.019 1446.13 Q135.019 1451.71 131.547 1454.81 Q128.075 1457.89 121.756 1457.89 Q119.58 1457.89 117.311 1457.52 Q115.066 1457.15 112.658 1456.41 L112.658 1451.71 Q114.742 1452.84 116.964 1453.4 Q119.186 1453.95 121.663 1453.95 Q125.668 1453.95 128.006 1451.85 Q130.344 1449.74 130.344 1446.13 Q130.344 1442.52 128.006 1440.41 Q125.668 1438.31 121.663 1438.31 Q119.788 1438.31 117.913 1438.72 Q116.061 1439.14 114.117 1440.02 L114.117 1422.66 Z" fill="#000000" fill-rule="nonzero" fill-opacity="1" /><path clip-path="url(#clip090)" d="M154.232 1425.74 Q150.621 1425.74 148.793 1429.3 Q146.987 1432.84 146.987 1439.97 Q146.987 1447.08 148.793 1450.64 Q150.621 1454.19 154.232 1454.19 Q157.867 1454.19 159.672 1450.64 Q161.501 1447.08 161.501 1439.97 Q161.501 1432.84 159.672 1429.3 Q157.867 1425.74 154.232 1425.74 M154.232 1422.03 Q160.042 1422.03 163.098 1426.64 Q166.177 1431.22 166.177 1439.97 Q166.177 1448.7 163.098 1453.31 Q160.042 1457.89 154.232 1457.89 Q148.422 1457.89 145.343 1453.31 Q142.288 1448.7 142.288 1439.97 Q142.288 1431.22 145.343 1426.64 Q148.422 1422.03 154.232 1422.03 Z" fill="#000000" fill-rule="nonzero" fill-opacity="1" /><path clip-path="url(#clip090)" d="M67.9133 1149.7 Q71.2698 1150.42 73.1448 1152.69 Q75.0429 1154.96 75.0429 1158.29 Q75.0429 1163.41 71.5244 1166.21 Q68.0059 1169.01 61.5245 1169.01 Q59.3486 1169.01 57.0338 1168.57 Q54.7421 1168.15 52.2884 1167.3 L52.2884 1162.78 Q54.2328 1163.92 56.5477 1164.49 Q58.8625 1165.07 61.3856 1165.07 Q65.7837 1165.07 68.0754 1163.34 Q70.3902 1161.6 70.3902 1158.29 Q70.3902 1155.24 68.2374 1153.52 Q66.1078 1151.79 62.2884 1151.79 L58.2606 1151.79 L58.2606 1147.94 L62.4735 1147.94 Q65.9226 1147.94 67.7513 1146.58 Q69.58 1145.19 69.58 1142.6 Q69.58 1139.93 67.6819 1138.52 Q65.8069 1137.09 62.2884 1137.09 Q60.3671 1137.09 58.168 1137.5 Q55.969 1137.92 53.3301 1138.8 L53.3301 1134.63 Q55.9921 1133.89 58.3069 1133.52 Q60.6449 1133.15 62.705 1133.15 Q68.0291 1133.15 71.1309 1135.58 Q74.2327 1137.99 74.2327 1142.11 Q74.2327 1144.98 72.5892 1146.97 Q70.9457 1148.94 67.9133 1149.7 Z" fill="#000000" fill-rule="nonzero" fill-opacity="1" /><path clip-path="url(#clip090)" d="M84.0475 1167.62 L84.0475 1163.36 Q85.8068 1164.19 87.6123 1164.63 Q89.4178 1165.07 91.1539 1165.07 Q95.7836 1165.07 98.2141 1161.97 Q100.668 1158.85 101.015 1152.5 Q99.6724 1154.49 97.6122 1155.56 Q95.5521 1156.62 93.0521 1156.62 Q87.8669 1156.62 84.8345 1153.5 Q81.8253 1150.35 81.8253 1144.91 Q81.8253 1139.59 84.9734 1136.37 Q88.1216 1133.15 93.353 1133.15 Q99.3483 1133.15 102.496 1137.76 Q105.668 1142.34 105.668 1151.09 Q105.668 1159.26 101.779 1164.15 Q97.9132 1169.01 91.3623 1169.01 Q89.603 1169.01 87.7975 1168.66 Q85.9919 1168.31 84.0475 1167.62 M93.353 1152.97 Q96.5011 1152.97 98.3298 1150.81 Q100.182 1148.66 100.182 1144.91 Q100.182 1141.18 98.3298 1139.03 Q96.5011 1136.86 93.353 1136.86 Q90.2049 1136.86 88.353 1139.03 Q86.5243 1141.18 86.5243 1144.91 Q86.5243 1148.66 88.353 1150.81 Q90.2049 1152.97 93.353 1152.97 Z" fill="#000000" fill-rule="nonzero" fill-opacity="1" /><path clip-path="url(#clip090)" d="M124.07 1136.86 Q120.459 1136.86 118.631 1140.42 Q116.825 1143.96 116.825 1151.09 Q116.825 1158.2 118.631 1161.76 Q120.459 1165.3 124.07 1165.3 Q127.705 1165.3 129.51 1161.76 Q131.339 1158.2 131.339 1151.09 Q131.339 1143.96 129.51 1140.42 Q127.705 1136.86 124.07 1136.86 M124.07 1133.15 Q129.881 1133.15 132.936 1137.76 Q136.015 1142.34 136.015 1151.09 Q136.015 1159.82 132.936 1164.43 Q129.881 1169.01 124.07 1169.01 Q118.26 1169.01 115.182 1164.43 Q112.126 1159.82 112.126 1151.09 Q112.126 1142.34 115.182 1137.76 Q118.26 1133.15 124.07 1133.15 Z" fill="#000000" fill-rule="nonzero" fill-opacity="1" /><path clip-path="url(#clip090)" d="M154.232 1136.86 Q150.621 1136.86 148.793 1140.42 Q146.987 1143.96 146.987 1151.09 Q146.987 1158.2 148.793 1161.76 Q150.621 1165.3 154.232 1165.3 Q157.867 1165.3 159.672 1161.76 Q161.501 1158.2 161.501 1151.09 Q161.501 1143.96 159.672 1140.42 Q157.867 1136.86 154.232 1136.86 M154.232 1133.15 Q160.042 1133.15 163.098 1137.76 Q166.177 1142.34 166.177 1151.09 Q166.177 1159.82 163.098 1164.43 Q160.042 1169.01 154.232 1169.01 Q148.422 1169.01 145.343 1164.43 Q142.288 1159.82 142.288 1151.09 Q142.288 1142.34 145.343 1137.76 Q148.422 1133.15 154.232 1133.15 Z" fill="#000000" fill-rule="nonzero" fill-opacity="1" /><path clip-path="url(#clip090)" d="M67.9133 860.822 Q71.2698 861.54 73.1448 863.809 Q75.0429 866.077 75.0429 869.41 Q75.0429 874.526 71.5244 877.327 Q68.0059 880.128 61.5245 880.128 Q59.3486 880.128 57.0338 879.688 Q54.7421 879.271 52.2884 878.415 L52.2884 873.901 Q54.2328 875.035 56.5477 875.614 Q58.8625 876.193 61.3856 876.193 Q65.7837 876.193 68.0754 874.457 Q70.3902 872.721 70.3902 869.41 Q70.3902 866.355 68.2374 864.642 Q66.1078 862.906 62.2884 862.906 L58.2606 862.906 L58.2606 859.063 L62.4735 859.063 Q65.9226 859.063 67.7513 857.697 Q69.58 856.309 69.58 853.716 Q69.58 851.054 67.6819 849.642 Q65.8069 848.207 62.2884 848.207 Q60.3671 848.207 58.168 848.623 Q55.969 849.04 53.3301 849.92 L53.3301 845.753 Q55.9921 845.012 58.3069 844.642 Q60.6449 844.272 62.705 844.272 Q68.0291 844.272 71.1309 846.702 Q74.2327 849.11 74.2327 853.23 Q74.2327 856.1 72.5892 858.091 Q70.9457 860.059 67.9133 860.822 Z" fill="#000000" fill-rule="nonzero" fill-opacity="1" /><path clip-path="url(#clip090)" d="M84.0475 878.739 L84.0475 874.48 Q85.8068 875.313 87.6123 875.753 Q89.4178 876.193 91.1539 876.193 Q95.7836 876.193 98.2141 873.091 Q100.668 869.966 101.015 863.623 Q99.6724 865.614 97.6122 866.679 Q95.5521 867.744 93.0521 867.744 Q87.8669 867.744 84.8345 864.619 Q81.8253 861.471 81.8253 856.031 Q81.8253 850.707 84.9734 847.489 Q88.1216 844.272 93.353 844.272 Q99.3483 844.272 102.496 848.878 Q105.668 853.461 105.668 862.211 Q105.668 870.383 101.779 875.267 Q97.9132 880.128 91.3623 880.128 Q89.603 880.128 87.7975 879.781 Q85.9919 879.433 84.0475 878.739 M93.353 864.086 Q96.5011 864.086 98.3298 861.934 Q100.182 859.781 100.182 856.031 Q100.182 852.304 98.3298 850.151 Q96.5011 847.975 93.353 847.975 Q90.2049 847.975 88.353 850.151 Q86.5243 852.304 86.5243 856.031 Q86.5243 859.781 88.353 861.934 Q90.2049 864.086 93.353 864.086 Z" fill="#000000" fill-rule="nonzero" fill-opacity="1" /><path clip-path="url(#clip090)" d="M114.117 844.897 L132.473 844.897 L132.473 848.832 L118.399 848.832 L118.399 857.304 Q119.418 856.957 120.436 856.795 Q121.455 856.61 122.473 856.61 Q128.26 856.61 131.64 859.781 Q135.019 862.952 135.019 868.369 Q135.019 873.947 131.547 877.049 Q128.075 880.128 121.756 880.128 Q119.58 880.128 117.311 879.758 Q115.066 879.387 112.658 878.646 L112.658 873.947 Q114.742 875.082 116.964 875.637 Q119.186 876.193 121.663 876.193 Q125.668 876.193 128.006 874.086 Q130.344 871.98 130.344 868.369 Q130.344 864.758 128.006 862.651 Q125.668 860.545 121.663 860.545 Q119.788 860.545 117.913 860.961 Q116.061 861.378 114.117 862.258 L114.117 844.897 Z" fill="#000000" fill-rule="nonzero" fill-opacity="1" /><path clip-path="url(#clip090)" d="M154.232 847.975 Q150.621 847.975 148.793 851.54 Q146.987 855.082 146.987 862.211 Q146.987 869.318 148.793 872.883 Q150.621 876.424 154.232 876.424 Q157.867 876.424 159.672 872.883 Q161.501 869.318 161.501 862.211 Q161.501 855.082 159.672 851.54 Q157.867 847.975 154.232 847.975 M154.232 844.272 Q160.042 844.272 163.098 848.878 Q166.177 853.461 166.177 862.211 Q166.177 870.938 163.098 875.545 Q160.042 880.128 154.232 880.128 Q148.422 880.128 145.343 875.545 Q142.288 870.938 142.288 862.211 Q142.288 853.461 145.343 848.878 Q148.422 844.272 154.232 844.272 Z" fill="#000000" fill-rule="nonzero" fill-opacity="1" /><path clip-path="url(#clip090)" d="M66.5939 560.09 L54.7884 578.539 L66.5939 578.539 L66.5939 560.09 M65.367 556.016 L71.2466 556.016 L71.2466 578.539 L76.1772 578.539 L76.1772 582.428 L71.2466 582.428 L71.2466 590.576 L66.5939 590.576 L66.5939 582.428 L50.9921 582.428 L50.9921 577.914 L65.367 556.016 Z" fill="#000000" fill-rule="nonzero" fill-opacity="1" /><path clip-path="url(#clip090)" d="M93.9086 559.095 Q90.2975 559.095 88.4688 562.659 Q86.6632 566.201 86.6632 573.331 Q86.6632 580.437 88.4688 584.002 Q90.2975 587.544 93.9086 587.544 Q97.5428 587.544 99.3483 584.002 Q101.177 580.437 101.177 573.331 Q101.177 566.201 99.3483 562.659 Q97.5428 559.095 93.9086 559.095 M93.9086 555.391 Q99.7187 555.391 102.774 559.997 Q105.853 564.581 105.853 573.331 Q105.853 582.057 102.774 586.664 Q99.7187 591.247 93.9086 591.247 Q88.0984 591.247 85.0197 586.664 Q81.9642 582.057 81.9642 573.331 Q81.9642 564.581 85.0197 559.997 Q88.0984 555.391 93.9086 555.391 Z" fill="#000000" fill-rule="nonzero" fill-opacity="1" /><path clip-path="url(#clip090)" d="M124.07 559.095 Q120.459 559.095 118.631 562.659 Q116.825 566.201 116.825 573.331 Q116.825 580.437 118.631 584.002 Q120.459 587.544 124.07 587.544 Q127.705 587.544 129.51 584.002 Q131.339 580.437 131.339 573.331 Q131.339 566.201 129.51 562.659 Q127.705 559.095 124.07 559.095 M124.07 555.391 Q129.881 555.391 132.936 559.997 Q136.015 564.581 136.015 573.331 Q136.015 582.057 132.936 586.664 Q129.881 591.247 124.07 591.247 Q118.26 591.247 115.182 586.664 Q112.126 582.057 112.126 573.331 Q112.126 564.581 115.182 559.997 Q118.26 555.391 124.07 555.391 Z" fill="#000000" fill-rule="nonzero" fill-opacity="1" /><path clip-path="url(#clip090)" d="M154.232 559.095 Q150.621 559.095 148.793 562.659 Q146.987 566.201 146.987 573.331 Q146.987 580.437 148.793 584.002 Q150.621 587.544 154.232 587.544 Q157.867 587.544 159.672 584.002 Q161.501 580.437 161.501 573.331 Q161.501 566.201 159.672 562.659 Q157.867 559.095 154.232 559.095 M154.232 555.391 Q160.042 555.391 163.098 559.997 Q166.177 564.581 166.177 573.331 Q166.177 582.057 163.098 586.664 Q160.042 591.247 154.232 591.247 Q148.422 591.247 145.343 586.664 Q142.288 582.057 142.288 573.331 Q142.288 564.581 145.343 559.997 Q148.422 555.391 154.232 555.391 Z" fill="#000000" fill-rule="nonzero" fill-opacity="1" /><path clip-path="url(#clip090)" d="M66.5939 271.209 L54.7884 289.658 L66.5939 289.658 L66.5939 271.209 M65.367 267.135 L71.2466 267.135 L71.2466 289.658 L76.1772 289.658 L76.1772 293.547 L71.2466 293.547 L71.2466 301.695 L66.5939 301.695 L66.5939 293.547 L50.9921 293.547 L50.9921 289.033 L65.367 267.135 Z" fill="#000000" fill-rule="nonzero" fill-opacity="1" /><path clip-path="url(#clip090)" d="M93.9086 270.214 Q90.2975 270.214 88.4688 273.779 Q86.6632 277.32 86.6632 284.45 Q86.6632 291.556 88.4688 295.121 Q90.2975 298.663 93.9086 298.663 Q97.5428 298.663 99.3483 295.121 Q101.177 291.556 101.177 284.45 Q101.177 277.32 99.3483 273.779 Q97.5428 270.214 93.9086 270.214 M93.9086 266.51 Q99.7187 266.51 102.774 271.117 Q105.853 275.7 105.853 284.45 Q105.853 293.177 102.774 297.783 Q99.7187 302.366 93.9086 302.366 Q88.0984 302.366 85.0197 297.783 Q81.9642 293.177 81.9642 284.45 Q81.9642 275.7 85.0197 271.117 Q88.0984 266.51 93.9086 266.51 Z" fill="#000000" fill-rule="nonzero" fill-opacity="1" /><path clip-path="url(#clip090)" d="M114.117 267.135 L132.473 267.135 L132.473 271.07 L118.399 271.07 L118.399 279.543 Q119.418 279.195 120.436 279.033 Q121.455 278.848 122.473 278.848 Q128.26 278.848 131.64 282.019 Q135.019 285.191 135.019 290.607 Q135.019 296.186 131.547 299.288 Q128.075 302.366 121.756 302.366 Q119.58 302.366 117.311 301.996 Q115.066 301.626 112.658 300.885 L112.658 296.186 Q114.742 297.32 116.964 297.876 Q119.186 298.431 121.663 298.431 Q125.668 298.431 128.006 296.325 Q130.344 294.218 130.344 290.607 Q130.344 286.996 128.006 284.89 Q125.668 282.783 121.663 282.783 Q119.788 282.783 117.913 283.2 Q116.061 283.617 114.117 284.496 L114.117 267.135 Z" fill="#000000" fill-rule="nonzero" fill-opacity="1" /><path clip-path="url(#clip090)" d="M154.232 270.214 Q150.621 270.214 148.793 273.779 Q146.987 277.32 146.987 284.45 Q146.987 291.556 148.793 295.121 Q150.621 298.663 154.232 298.663 Q157.867 298.663 159.672 295.121 Q161.501 291.556 161.501 284.45 Q161.501 277.32 159.672 273.779 Q157.867 270.214 154.232 270.214 M154.232 266.51 Q160.042 266.51 163.098 271.117 Q166.177 275.7 166.177 284.45 Q166.177 293.177 163.098 297.783 Q160.042 302.366 154.232 302.366 Q148.422 302.366 145.343 297.783 Q142.288 293.177 142.288 284.45 Q142.288 275.7 145.343 271.117 Q148.422 266.51 154.232 266.51 Z" fill="#000000" fill-rule="nonzero" fill-opacity="1" /><polyline clip-path="url(#clip092)" style="stroke:#009af9; stroke-linecap:round; stroke-linejoin:round; stroke-width:4; stroke-opacity:1; fill:none" points="263.042,1347.5 364.485,1445.72 465.927,1341.72 567.369,1301.28 668.812,1249.28 770.254,1220.39 871.697,1283.94 973.139,1197.28 1074.58,1243.5 1176.02,1151.06 1277.47,983.507 1378.91,1075.95 1480.35,706.181 1581.79,677.293 1683.24,434.633 1784.68,486.632 1886.12,423.078 1987.56,87.9763 2089.01,232.417 2190.45,186.196 2291.89,371.079 "/>
<path clip-path="url(#clip090)" d="M273.863 198.898 L924.451 198.898 L924.451 95.2176 L273.863 95.2176  Z" fill="#ffffff" fill-rule="evenodd" fill-opacity="1"/>
<polyline clip-path="url(#clip090)" style="stroke:#000000; stroke-linecap:round; stroke-linejoin:round; stroke-width:4; stroke-opacity:1; fill:none" points="273.863,198.898 924.451,198.898 924.451,95.2176 273.863,95.2176 273.863,198.898 "/>
<polyline clip-path="url(#clip090)" style="stroke:#009af9; stroke-linecap:round; stroke-linejoin:round; stroke-width:4; stroke-opacity:1; fill:none" points="297.758,147.058 441.13,147.058 "/>
<path clip-path="url(#clip090)" d="M465.025 129.778 L486.877 129.778 L486.877 133.713 L469.701 133.713 L469.701 143.944 L486.159 143.944 L486.159 147.879 L469.701 147.879 L469.701 160.402 L487.294 160.402 L487.294 164.338 L465.025 164.338 L465.025 129.778 Z" fill="#000000" fill-rule="nonzero" fill-opacity="1" /><path clip-path="url(#clip090)" d="M514.979 143.389 Q516.576 140.518 518.798 139.153 Q521.02 137.787 524.03 137.787 Q528.08 137.787 530.28 140.634 Q532.479 143.458 532.479 148.689 L532.479 164.338 L528.196 164.338 L528.196 148.828 Q528.196 145.102 526.877 143.296 Q525.557 141.49 522.849 141.49 Q519.539 141.49 517.618 143.69 Q515.696 145.889 515.696 149.685 L515.696 164.338 L511.414 164.338 L511.414 148.828 Q511.414 145.078 510.094 143.296 Q508.775 141.49 506.02 141.49 Q502.757 141.49 500.835 143.713 Q498.914 145.912 498.914 149.685 L498.914 164.338 L494.632 164.338 L494.632 138.412 L498.914 138.412 L498.914 142.44 Q500.372 140.055 502.409 138.921 Q504.446 137.787 507.247 137.787 Q510.071 137.787 512.039 139.222 Q514.03 140.657 514.979 143.389 Z" fill="#000000" fill-rule="nonzero" fill-opacity="1" /><path clip-path="url(#clip090)" d="M545.094 160.449 L545.094 174.199 L540.812 174.199 L540.812 138.412 L545.094 138.412 L545.094 142.347 Q546.437 140.032 548.474 138.921 Q550.534 137.787 553.381 137.787 Q558.103 137.787 561.043 141.537 Q564.006 145.287 564.006 151.398 Q564.006 157.509 561.043 161.259 Q558.103 165.009 553.381 165.009 Q550.534 165.009 548.474 163.898 Q546.437 162.763 545.094 160.449 M559.585 151.398 Q559.585 146.699 557.641 144.037 Q555.719 141.352 552.34 141.352 Q548.96 141.352 547.016 144.037 Q545.094 146.699 545.094 151.398 Q545.094 156.097 547.016 158.782 Q548.96 161.444 552.34 161.444 Q555.719 161.444 557.641 158.782 Q559.585 156.097 559.585 151.398 Z" fill="#000000" fill-rule="nonzero" fill-opacity="1" /><path clip-path="url(#clip090)" d="M571.066 128.319 L575.326 128.319 L575.326 164.338 L571.066 164.338 L571.066 128.319 Z" fill="#000000" fill-rule="nonzero" fill-opacity="1" /><path clip-path="url(#clip090)" d="M594.284 141.398 Q590.858 141.398 588.867 144.083 Q586.876 146.745 586.876 151.398 Q586.876 156.051 588.844 158.736 Q590.835 161.398 594.284 161.398 Q597.687 161.398 599.677 158.713 Q601.668 156.027 601.668 151.398 Q601.668 146.791 599.677 144.106 Q597.687 141.398 594.284 141.398 M594.284 137.787 Q599.839 137.787 603.011 141.398 Q606.182 145.009 606.182 151.398 Q606.182 157.764 603.011 161.398 Q599.839 165.009 594.284 165.009 Q588.705 165.009 585.534 161.398 Q582.386 157.764 582.386 151.398 Q582.386 145.009 585.534 141.398 Q588.705 137.787 594.284 137.787 Z" fill="#000000" fill-rule="nonzero" fill-opacity="1" /><path clip-path="url(#clip090)" d="M624.029 166.745 Q622.223 171.375 620.511 172.787 Q618.798 174.199 615.927 174.199 L612.524 174.199 L612.524 170.634 L615.024 170.634 Q616.784 170.634 617.756 169.8 Q618.728 168.967 619.909 165.865 L620.673 163.921 L610.187 138.412 L614.7 138.412 L622.802 158.689 L630.904 138.412 L635.418 138.412 L624.029 166.745 Z" fill="#000000" fill-rule="nonzero" fill-opacity="1" /><path clip-path="url(#clip090)" d="M663.473 150.31 L663.473 152.393 L643.89 152.393 Q644.168 156.791 646.529 159.106 Q648.913 161.398 653.149 161.398 Q655.603 161.398 657.895 160.796 Q660.209 160.194 662.478 158.99 L662.478 163.018 Q660.186 163.99 657.779 164.5 Q655.371 165.009 652.895 165.009 Q646.691 165.009 643.057 161.398 Q639.446 157.787 639.446 151.629 Q639.446 145.264 642.872 141.537 Q646.321 137.787 652.154 137.787 Q657.385 137.787 660.418 141.166 Q663.473 144.523 663.473 150.31 M659.214 149.06 Q659.168 145.565 657.246 143.481 Q655.348 141.398 652.2 141.398 Q648.635 141.398 646.483 143.412 Q644.353 145.426 644.029 149.083 L659.214 149.06 Z" fill="#000000" fill-rule="nonzero" fill-opacity="1" /><path clip-path="url(#clip090)" d="M687.524 142.347 L687.524 128.319 L691.783 128.319 L691.783 164.338 L687.524 164.338 L687.524 160.449 Q686.181 162.763 684.121 163.898 Q682.084 165.009 679.214 165.009 Q674.515 165.009 671.552 161.259 Q668.612 157.509 668.612 151.398 Q668.612 145.287 671.552 141.537 Q674.515 137.787 679.214 137.787 Q682.084 137.787 684.121 138.921 Q686.181 140.032 687.524 142.347 M673.01 151.398 Q673.01 156.097 674.932 158.782 Q676.876 161.444 680.256 161.444 Q683.635 161.444 685.58 158.782 Q687.524 156.097 687.524 151.398 Q687.524 146.699 685.58 144.037 Q683.635 141.352 680.256 141.352 Q676.876 141.352 674.932 144.037 Q673.01 146.699 673.01 151.398 Z" fill="#000000" fill-rule="nonzero" fill-opacity="1" /><path clip-path="url(#clip090)" d="M712.732 129.778 L717.454 129.778 L724.723 158.99 L731.968 129.778 L737.223 129.778 L744.491 158.99 L751.737 129.778 L756.482 129.778 L747.802 164.338 L741.922 164.338 L734.63 134.338 L727.269 164.338 L721.39 164.338 L712.732 129.778 Z" fill="#000000" fill-rule="nonzero" fill-opacity="1" /><path clip-path="url(#clip090)" d="M769.769 141.398 Q766.343 141.398 764.352 144.083 Q762.362 146.745 762.362 151.398 Q762.362 156.051 764.329 158.736 Q766.32 161.398 769.769 161.398 Q773.172 161.398 775.162 158.713 Q777.153 156.027 777.153 151.398 Q777.153 146.791 775.162 144.106 Q773.172 141.398 769.769 141.398 M769.769 137.787 Q775.325 137.787 778.496 141.398 Q781.667 145.009 781.667 151.398 Q781.667 157.764 778.496 161.398 Q775.325 165.009 769.769 165.009 Q764.19 165.009 761.019 161.398 Q757.871 157.764 757.871 151.398 Q757.871 145.009 761.019 141.398 Q764.19 137.787 769.769 137.787 Z" fill="#000000" fill-rule="nonzero" fill-opacity="1" /><path clip-path="url(#clip090)" d="M803.75 142.393 Q803.033 141.977 802.176 141.791 Q801.343 141.583 800.324 141.583 Q796.713 141.583 794.769 143.944 Q792.848 146.282 792.848 150.68 L792.848 164.338 L788.565 164.338 L788.565 138.412 L792.848 138.412 L792.848 142.44 Q794.19 140.078 796.343 138.944 Q798.496 137.787 801.574 137.787 Q802.014 137.787 802.547 137.856 Q803.079 137.903 803.727 138.018 L803.75 142.393 Z" fill="#000000" fill-rule="nonzero" fill-opacity="1" /><path clip-path="url(#clip090)" d="M808.056 128.319 L812.338 128.319 L812.338 149.592 L825.046 138.412 L830.486 138.412 L816.736 150.541 L831.065 164.338 L825.509 164.338 L812.338 151.676 L812.338 164.338 L808.056 164.338 L808.056 128.319 Z" fill="#000000" fill-rule="nonzero" fill-opacity="1" /><path clip-path="url(#clip090)" d="M856.157 150.31 L856.157 152.393 L836.574 152.393 Q836.852 156.791 839.213 159.106 Q841.597 161.398 845.833 161.398 Q848.287 161.398 850.579 160.796 Q852.894 160.194 855.162 158.99 L855.162 163.018 Q852.87 163.99 850.463 164.5 Q848.056 165.009 845.579 165.009 Q839.375 165.009 835.741 161.398 Q832.13 157.787 832.13 151.629 Q832.13 145.264 835.556 141.537 Q839.005 137.787 844.838 137.787 Q850.069 137.787 853.102 141.166 Q856.157 144.523 856.157 150.31 M851.898 149.06 Q851.852 145.565 849.931 143.481 Q848.032 141.398 844.884 141.398 Q841.32 141.398 839.167 143.412 Q837.037 145.426 836.713 149.083 L851.898 149.06 Z" fill="#000000" fill-rule="nonzero" fill-opacity="1" /><path clip-path="url(#clip090)" d="M878.171 142.393 Q877.454 141.977 876.597 141.791 Q875.764 141.583 874.745 141.583 Q871.134 141.583 869.19 143.944 Q867.268 146.282 867.268 150.68 L867.268 164.338 L862.986 164.338 L862.986 138.412 L867.268 138.412 L867.268 142.44 Q868.611 140.078 870.764 138.944 Q872.917 137.787 875.995 137.787 Q876.435 137.787 876.968 137.856 Q877.5 137.903 878.148 138.018 L878.171 142.393 Z" fill="#000000" fill-rule="nonzero" fill-opacity="1" /><path clip-path="url(#clip090)" d="M899.166 139.176 L899.166 143.203 Q897.361 142.277 895.416 141.815 Q893.472 141.352 891.389 141.352 Q888.217 141.352 886.62 142.324 Q885.046 143.296 885.046 145.24 Q885.046 146.722 886.18 147.578 Q887.315 148.412 890.741 149.176 L892.199 149.5 Q896.736 150.472 898.634 152.254 Q900.555 154.014 900.555 157.185 Q900.555 160.796 897.685 162.902 Q894.838 165.009 889.838 165.009 Q887.754 165.009 885.486 164.592 Q883.241 164.199 880.741 163.388 L880.741 158.99 Q883.102 160.217 885.393 160.842 Q887.685 161.444 889.93 161.444 Q892.94 161.444 894.56 160.426 Q896.18 159.384 896.18 157.509 Q896.18 155.773 895 154.847 Q893.842 153.921 889.884 153.064 L888.403 152.717 Q884.444 151.884 882.685 150.171 Q880.926 148.435 880.926 145.426 Q880.926 141.768 883.518 139.778 Q886.111 137.787 890.879 137.787 Q893.241 137.787 895.324 138.134 Q897.407 138.481 899.166 139.176 Z" fill="#000000" fill-rule="nonzero" fill-opacity="1" /></svg>
