<?xml version="1.0" encoding="utf-8"?>
<svg xmlns="http://www.w3.org/2000/svg" xmlns:xlink="http://www.w3.org/1999/xlink" width="600" height="400" viewBox="0 0 2400 1600">
<defs>
  <clipPath id="clip100">
    <rect x="0" y="0" width="2400" height="1600"/>
  </clipPath>
</defs>
<path clip-path="url(#clip100)" d="M0 1600 L2400 1600 L2400 0 L0 0  Z" fill="#ffffff" fill-rule="evenodd" fill-opacity="1"/>
<defs>
  <clipPath id="clip101">
    <rect x="480" y="0" width="1681" height="1600"/>
  </clipPath>
</defs>
<path clip-path="url(#clip100)" d="M202.177 1486.45 L2352.76 1486.45 L2352.76 47.2441 L202.177 47.2441  Z" fill="#ffffff" fill-rule="evenodd" fill-opacity="1"/>
<defs>
  <clipPath id="clip102">
    <rect x="202" y="47" width="2152" height="1440"/>
  </clipPath>
</defs>
<polyline clip-path="url(#clip102)" style="stroke:#000000; stroke-linecap:round; stroke-linejoin:round; stroke-width:2; stroke-opacity:0.1; fill:none" points="668.812,1486.45 668.812,47.2441 "/>
<polyline clip-path="url(#clip102)" style="stroke:#000000; stroke-linecap:round; stroke-linejoin:round; stroke-width:2; stroke-opacity:0.1; fill:none" points="1176.02,1486.45 1176.02,47.2441 "/>
<polyline clip-path="url(#clip102)" style="stroke:#000000; stroke-linecap:round; stroke-linejoin:round; stroke-width:2; stroke-opacity:0.1; fill:none" points="1683.24,1486.45 1683.24,47.2441 "/>
<polyline clip-path="url(#clip102)" style="stroke:#000000; stroke-linecap:round; stroke-linejoin:round; stroke-width:2; stroke-opacity:0.1; fill:none" points="2190.45,1486.45 2190.45,47.2441 "/>
<polyline clip-path="url(#clip102)" style="stroke:#000000; stroke-linecap:round; stroke-linejoin:round; stroke-width:2; stroke-opacity:0.1; fill:none" points="202.177,1213.91 2352.76,1213.91 "/>
<polyline clip-path="url(#clip102)" style="stroke:#000000; stroke-linecap:round; stroke-linejoin:round; stroke-width:2; stroke-opacity:0.1; fill:none" points="202.177,882.751 2352.76,882.751 "/>
<polyline clip-path="url(#clip102)" style="stroke:#000000; stroke-linecap:round; stroke-linejoin:round; stroke-width:2; stroke-opacity:0.1; fill:none" points="202.177,551.595 2352.76,551.595 "/>
<polyline clip-path="url(#clip102)" style="stroke:#000000; stroke-linecap:round; stroke-linejoin:round; stroke-width:2; stroke-opacity:0.1; fill:none" points="202.177,220.439 2352.76,220.439 "/>
<polyline clip-path="url(#clip100)" style="stroke:#000000; stroke-linecap:round; stroke-linejoin:round; stroke-width:4; stroke-opacity:1; fill:none" points="202.177,1486.45 2352.76,1486.45 "/>
<polyline clip-path="url(#clip100)" style="stroke:#000000; stroke-linecap:round; stroke-linejoin:round; stroke-width:4; stroke-opacity:1; fill:none" points="668.812,1486.45 668.812,1467.55 "/>
<polyline clip-path="url(#clip100)" style="stroke:#000000; stroke-linecap:round; stroke-linejoin:round; stroke-width:4; stroke-opacity:1; fill:none" points="1176.02,1486.45 1176.02,1467.55 "/>
<polyline clip-path="url(#clip100)" style="stroke:#000000; stroke-linecap:round; stroke-linejoin:round; stroke-width:4; stroke-opacity:1; fill:none" points="1683.24,1486.45 1683.24,1467.55 "/>
<polyline clip-path="url(#clip100)" style="stroke:#000000; stroke-linecap:round; stroke-linejoin:round; stroke-width:4; stroke-opacity:1; fill:none" points="2190.45,1486.45 2190.45,1467.55 "/>
<path clip-path="url(#clip100)" d="M659.09 1514.29 L677.446 1514.29 L677.446 1518.22 L663.372 1518.22 L663.372 1526.7 Q664.391 1526.35 665.409 1526.19 Q666.428 1526 667.446 1526 Q673.233 1526 676.613 1529.17 Q679.992 1532.34 679.992 1537.76 Q679.992 1543.34 676.52 1546.44 Q673.048 1549.52 666.728 1549.52 Q664.553 1549.52 662.284 1549.15 Q660.039 1548.78 657.631 1548.04 L657.631 1543.34 Q659.715 1544.47 661.937 1545.03 Q664.159 1545.58 666.636 1545.58 Q670.64 1545.58 672.978 1543.48 Q675.316 1541.37 675.316 1537.76 Q675.316 1534.15 672.978 1532.04 Q670.64 1529.94 666.636 1529.94 Q664.761 1529.94 662.886 1530.35 Q661.034 1530.77 659.09 1531.65 L659.09 1514.29 Z" fill="#000000" fill-rule="nonzero" fill-opacity="1" /><path clip-path="url(#clip100)" d="M1150.71 1544.91 L1158.35 1544.91 L1158.35 1518.55 L1150.04 1520.21 L1150.04 1515.95 L1158.3 1514.29 L1162.98 1514.29 L1162.98 1544.91 L1170.62 1544.91 L1170.62 1548.85 L1150.71 1548.85 L1150.71 1544.91 Z" fill="#000000" fill-rule="nonzero" fill-opacity="1" /><path clip-path="url(#clip100)" d="M1190.06 1517.37 Q1186.45 1517.37 1184.62 1520.93 Q1182.82 1524.47 1182.82 1531.6 Q1182.82 1538.71 1184.62 1542.27 Q1186.45 1545.82 1190.06 1545.82 Q1193.7 1545.82 1195.5 1542.27 Q1197.33 1538.71 1197.33 1531.6 Q1197.33 1524.47 1195.5 1520.93 Q1193.7 1517.37 1190.06 1517.37 M1190.06 1513.66 Q1195.87 1513.66 1198.93 1518.27 Q1202.01 1522.85 1202.01 1531.6 Q1202.01 1540.33 1198.93 1544.94 Q1195.87 1549.52 1190.06 1549.52 Q1184.25 1549.52 1181.17 1544.94 Q1178.12 1540.33 1178.12 1531.6 Q1178.12 1522.85 1181.17 1518.27 Q1184.25 1513.66 1190.06 1513.66 Z" fill="#000000" fill-rule="nonzero" fill-opacity="1" /><path clip-path="url(#clip100)" d="M1658.42 1544.91 L1666.06 1544.91 L1666.06 1518.55 L1657.75 1520.21 L1657.75 1515.95 L1666.01 1514.29 L1670.69 1514.29 L1670.69 1544.91 L1678.33 1544.91 L1678.33 1548.85 L1658.42 1548.85 L1658.42 1544.91 Z" fill="#000000" fill-rule="nonzero" fill-opacity="1" /><path clip-path="url(#clip100)" d="M1687.82 1514.29 L1706.18 1514.29 L1706.18 1518.22 L1692.1 1518.22 L1692.1 1526.7 Q1693.12 1526.35 1694.14 1526.19 Q1695.16 1526 1696.18 1526 Q1701.96 1526 1705.34 1529.17 Q1708.72 1532.34 1708.72 1537.76 Q1708.72 1543.34 1705.25 1546.44 Q1701.78 1549.52 1695.46 1549.52 Q1693.28 1549.52 1691.01 1549.15 Q1688.77 1548.78 1686.36 1548.04 L1686.36 1543.34 Q1688.44 1544.47 1690.67 1545.03 Q1692.89 1545.58 1695.37 1545.58 Q1699.37 1545.58 1701.71 1543.48 Q1704.05 1541.37 1704.05 1537.76 Q1704.05 1534.15 1701.71 1532.04 Q1699.37 1529.94 1695.37 1529.94 Q1693.49 1529.94 1691.62 1530.35 Q1689.76 1530.77 1687.82 1531.65 L1687.82 1514.29 Z" fill="#000000" fill-rule="nonzero" fill-opacity="1" /><path clip-path="url(#clip100)" d="M2169.22 1544.91 L2185.54 1544.91 L2185.54 1548.85 L2163.6 1548.85 L2163.6 1544.91 Q2166.26 1542.16 2170.84 1537.53 Q2175.45 1532.88 2176.63 1531.53 Q2178.87 1529.01 2179.75 1527.27 Q2180.66 1525.51 2180.66 1523.82 Q2180.66 1521.07 2178.71 1519.33 Q2176.79 1517.6 2173.69 1517.6 Q2171.49 1517.6 2169.04 1518.36 Q2166.61 1519.13 2163.83 1520.68 L2163.83 1515.95 Q2166.65 1514.82 2169.11 1514.24 Q2171.56 1513.66 2173.6 1513.66 Q2178.97 1513.66 2182.16 1516.35 Q2185.36 1519.03 2185.36 1523.52 Q2185.36 1525.65 2184.55 1527.57 Q2183.76 1529.47 2181.65 1532.07 Q2181.07 1532.74 2177.97 1535.95 Q2174.87 1539.15 2169.22 1544.91 Z" fill="#000000" fill-rule="nonzero" fill-opacity="1" /><path clip-path="url(#clip100)" d="M2205.36 1517.37 Q2201.74 1517.37 2199.92 1520.93 Q2198.11 1524.47 2198.11 1531.6 Q2198.11 1538.71 2199.92 1542.27 Q2201.74 1545.82 2205.36 1545.82 Q2208.99 1545.82 2210.8 1542.27 Q2212.62 1538.71 2212.62 1531.6 Q2212.62 1524.47 2210.8 1520.93 Q2208.99 1517.37 2205.36 1517.37 M2205.36 1513.66 Q2211.17 1513.66 2214.22 1518.27 Q2217.3 1522.85 2217.3 1531.6 Q2217.3 1540.33 2214.22 1544.94 Q2211.17 1549.52 2205.36 1549.52 Q2199.55 1549.52 2196.47 1544.94 Q2193.41 1540.33 2193.41 1531.6 Q2193.41 1522.85 2196.47 1518.27 Q2199.55 1513.66 2205.36 1513.66 Z" fill="#000000" fill-rule="nonzero" fill-opacity="1" /><polyline clip-path="url(#clip100)" style="stroke:#000000; stroke-linecap:round; stroke-linejoin:round; stroke-width:4; stroke-opacity:1; fill:none" points="202.177,1486.45 202.177,47.2441 "/>
<polyline clip-path="url(#clip100)" style="stroke:#000000; stroke-linecap:round; stroke-linejoin:round; stroke-width:4; stroke-opacity:1; fill:none" points="202.177,1213.91 221.074,1213.91 "/>
<polyline clip-path="url(#clip100)" style="stroke:#000000; stroke-linecap:round; stroke-linejoin:round; stroke-width:4; stroke-opacity:1; fill:none" points="202.177,882.751 221.074,882.751 "/>
<polyline clip-path="url(#clip100)" style="stroke:#000000; stroke-linecap:round; stroke-linejoin:round; stroke-width:4; stroke-opacity:1; fill:none" points="202.177,551.595 221.074,551.595 "/>
<polyline clip-path="url(#clip100)" style="stroke:#000000; stroke-linecap:round; stroke-linejoin:round; stroke-width:4; stroke-opacity:1; fill:none" points="202.177,220.439 221.074,220.439 "/>
<path clip-path="url(#clip100)" d="M67.9133 1212.55 Q71.2698 1213.27 73.1448 1215.54 Q75.0429 1217.81 75.0429 1221.14 Q75.0429 1226.26 71.5244 1229.06 Q68.0059 1231.86 61.5245 1231.86 Q59.3486 1231.86 57.0338 1231.42 Q54.7421 1231 52.2884 1230.14 L52.2884 1225.63 Q54.2328 1226.77 56.5477 1227.34 Q58.8625 1227.92 61.3856 1227.92 Q65.7837 1227.92 68.0754 1226.19 Q70.3902 1224.45 70.3902 1221.14 Q70.3902 1218.08 68.2374 1216.37 Q66.1078 1214.64 62.2884 1214.64 L58.2606 1214.64 L58.2606 1210.79 L62.4735 1210.79 Q65.9226 1210.79 67.7513 1209.43 Q69.58 1208.04 69.58 1205.45 Q69.58 1202.78 67.6819 1201.37 Q65.8069 1199.94 62.2884 1199.94 Q60.3671 1199.94 58.168 1200.35 Q55.969 1200.77 53.3301 1201.65 L53.3301 1197.48 Q55.9921 1196.74 58.3069 1196.37 Q60.6449 1196 62.705 1196 Q68.0291 1196 71.1309 1198.43 Q74.2327 1200.84 74.2327 1204.96 Q74.2327 1207.83 72.5892 1209.82 Q70.9457 1211.79 67.9133 1212.55 Z" fill="#000000" fill-rule="nonzero" fill-opacity="1" /><path clip-path="url(#clip100)" d="M84.0475 1230.47 L84.0475 1226.21 Q85.8068 1227.04 87.6123 1227.48 Q89.4178 1227.92 91.1539 1227.92 Q95.7836 1227.92 98.2141 1224.82 Q100.668 1221.7 101.015 1215.35 Q99.6724 1217.34 97.6122 1218.41 Q95.5521 1219.47 93.0521 1219.47 Q87.8669 1219.47 84.8345 1216.35 Q81.8253 1213.2 81.8253 1207.76 Q81.8253 1202.44 84.9734 1199.22 Q88.1216 1196 93.353 1196 Q99.3483 1196 102.496 1200.61 Q105.668 1205.19 105.668 1213.94 Q105.668 1222.11 101.779 1227 Q97.9132 1231.86 91.3623 1231.86 Q89.603 1231.86 87.7975 1231.51 Q85.9919 1231.16 84.0475 1230.47 M93.353 1215.82 Q96.5011 1215.82 98.3298 1213.66 Q100.182 1211.51 100.182 1207.76 Q100.182 1204.03 98.3298 1201.88 Q96.5011 1199.71 93.353 1199.71 Q90.2049 1199.71 88.353 1201.88 Q86.5243 1204.03 86.5243 1207.76 Q86.5243 1211.51 88.353 1213.66 Q90.2049 1215.82 93.353 1215.82 Z" fill="#000000" fill-rule="nonzero" fill-opacity="1" /><path clip-path="url(#clip100)" d="M124.07 1199.71 Q120.459 1199.71 118.631 1203.27 Q116.825 1206.81 116.825 1213.94 Q116.825 1221.05 118.631 1224.61 Q120.459 1228.15 124.07 1228.15 Q127.705 1228.15 129.51 1224.61 Q131.339 1221.05 131.339 1213.94 Q131.339 1206.81 129.51 1203.27 Q127.705 1199.71 124.07 1199.71 M124.07 1196 Q129.881 1196 132.936 1200.61 Q136.015 1205.19 136.015 1213.94 Q136.015 1222.67 132.936 1227.27 Q129.881 1231.86 124.07 1231.86 Q118.26 1231.86 115.182 1227.27 Q112.126 1222.67 112.126 1213.94 Q112.126 1205.19 115.182 1200.61 Q118.26 1196 124.07 1196 Z" fill="#000000" fill-rule="nonzero" fill-opacity="1" /><path clip-path="url(#clip100)" d="M154.232 1199.71 Q150.621 1199.71 148.793 1203.27 Q146.987 1206.81 146.987 1213.94 Q146.987 1221.05 148.793 1224.61 Q150.621 1228.15 154.232 1228.15 Q157.867 1228.15 159.672 1224.61 Q161.501 1221.05 161.501 1213.94 Q161.501 1206.81 159.672 1203.27 Q157.867 1199.71 154.232 1199.71 M154.232 1196 Q160.042 1196 163.098 1200.61 Q166.177 1205.19 166.177 1213.94 Q166.177 1222.67 163.098 1227.27 Q160.042 1231.86 154.232 1231.86 Q148.422 1231.86 145.343 1227.27 Q142.288 1222.67 142.288 1213.94 Q142.288 1205.19 145.343 1200.61 Q148.422 1196 154.232 1196 Z" fill="#000000" fill-rule="nonzero" fill-opacity="1" /><path clip-path="url(#clip100)" d="M67.9133 881.396 Q71.2698 882.114 73.1448 884.383 Q75.0429 886.651 75.0429 889.984 Q75.0429 895.1 71.5244 897.901 Q68.0059 900.702 61.5245 900.702 Q59.3486 900.702 57.0338 900.262 Q54.7421 899.845 52.2884 898.989 L52.2884 894.475 Q54.2328 895.609 56.5477 896.188 Q58.8625 896.767 61.3856 896.767 Q65.7837 896.767 68.0754 895.031 Q70.3902 893.294 70.3902 889.984 Q70.3902 886.929 68.2374 885.216 Q66.1078 883.48 62.2884 883.48 L58.2606 883.48 L58.2606 879.637 L62.4735 879.637 Q65.9226 879.637 67.7513 878.271 Q69.58 876.883 69.58 874.29 Q69.58 871.628 67.6819 870.216 Q65.8069 868.781 62.2884 868.781 Q60.3671 868.781 58.168 869.197 Q55.969 869.614 53.3301 870.494 L53.3301 866.327 Q55.9921 865.586 58.3069 865.216 Q60.6449 864.846 62.705 864.846 Q68.0291 864.846 71.1309 867.276 Q74.2327 869.684 74.2327 873.804 Q74.2327 876.674 72.5892 878.665 Q70.9457 880.633 67.9133 881.396 Z" fill="#000000" fill-rule="nonzero" fill-opacity="1" /><path clip-path="url(#clip100)" d="M84.0475 899.313 L84.0475 895.054 Q85.8068 895.887 87.6123 896.327 Q89.4178 896.767 91.1539 896.767 Q95.7836 896.767 98.2141 893.665 Q100.668 890.54 101.015 884.197 Q99.6724 886.188 97.6122 887.253 Q95.5521 888.318 93.0521 888.318 Q87.8669 888.318 84.8345 885.193 Q81.8253 882.045 81.8253 876.605 Q81.8253 871.281 84.9734 868.063 Q88.1216 864.846 93.353 864.846 Q99.3483 864.846 102.496 869.452 Q105.668 874.035 105.668 882.785 Q105.668 890.957 101.779 895.841 Q97.9132 900.702 91.3623 900.702 Q89.603 900.702 87.7975 900.355 Q85.9919 900.007 84.0475 899.313 M93.353 884.66 Q96.5011 884.66 98.3298 882.508 Q100.182 880.355 100.182 876.605 Q100.182 872.878 98.3298 870.725 Q96.5011 868.549 93.353 868.549 Q90.2049 868.549 88.353 870.725 Q86.5243 872.878 86.5243 876.605 Q86.5243 880.355 88.353 882.508 Q90.2049 884.66 93.353 884.66 Z" fill="#000000" fill-rule="nonzero" fill-opacity="1" /><path clip-path="url(#clip100)" d="M114.117 865.471 L132.473 865.471 L132.473 869.406 L118.399 869.406 L118.399 877.878 Q119.418 877.531 120.436 877.369 Q121.455 877.183 122.473 877.183 Q128.26 877.183 131.64 880.355 Q135.019 883.526 135.019 888.943 Q135.019 894.521 131.547 897.623 Q128.075 900.702 121.756 900.702 Q119.58 900.702 117.311 900.331 Q115.066 899.961 112.658 899.22 L112.658 894.521 Q114.742 895.656 116.964 896.211 Q119.186 896.767 121.663 896.767 Q125.668 896.767 128.006 894.66 Q130.344 892.554 130.344 888.943 Q130.344 885.332 128.006 883.225 Q125.668 881.119 121.663 881.119 Q119.788 881.119 117.913 881.535 Q116.061 881.952 114.117 882.832 L114.117 865.471 Z" fill="#000000" fill-rule="nonzero" fill-opacity="1" /><path clip-path="url(#clip100)" d="M154.232 868.549 Q150.621 868.549 148.793 872.114 Q146.987 875.656 146.987 882.785 Q146.987 889.892 148.793 893.457 Q150.621 896.998 154.232 896.998 Q157.867 896.998 159.672 893.457 Q161.501 889.892 161.501 882.785 Q161.501 875.656 159.672 872.114 Q157.867 868.549 154.232 868.549 M154.232 864.846 Q160.042 864.846 163.098 869.452 Q166.177 874.035 166.177 882.785 Q166.177 891.512 163.098 896.119 Q160.042 900.702 154.232 900.702 Q148.422 900.702 145.343 896.119 Q142.288 891.512 142.288 882.785 Q142.288 874.035 145.343 869.452 Q148.422 864.846 154.232 864.846 Z" fill="#000000" fill-rule="nonzero" fill-opacity="1" /><path clip-path="url(#clip100)" d="M66.5939 538.389 L54.7884 556.838 L66.5939 556.838 L66.5939 538.389 M65.367 534.315 L71.2466 534.315 L71.2466 556.838 L76.1772 556.838 L76.1772 560.727 L71.2466 560.727 L71.2466 568.875 L66.5939 568.875 L66.5939 560.727 L50.9921 560.727 L50.9921 556.213 L65.367 534.315 Z" fill="#000000" fill-rule="nonzero" fill-opacity="1" /><path clip-path="url(#clip100)" d="M93.9086 537.393 Q90.2975 537.393 88.4688 540.958 Q86.6632 544.5 86.6632 551.629 Q86.6632 558.736 88.4688 562.301 Q90.2975 565.842 93.9086 565.842 Q97.5428 565.842 99.3483 562.301 Q101.177 558.736 101.177 551.629 Q101.177 544.5 99.3483 540.958 Q97.5428 537.393 93.9086 537.393 M93.9086 533.69 Q99.7187 533.69 102.774 538.296 Q105.853 542.879 105.853 551.629 Q105.853 560.356 102.774 564.963 Q99.7187 569.546 93.9086 569.546 Q88.0984 569.546 85.0197 564.963 Q81.9642 560.356 81.9642 551.629 Q81.9642 542.879 85.0197 538.296 Q88.0984 533.69 93.9086 533.69 Z" fill="#000000" fill-rule="nonzero" fill-opacity="1" /><path clip-path="url(#clip100)" d="M124.07 537.393 Q120.459 537.393 118.631 540.958 Q116.825 544.5 116.825 551.629 Q116.825 558.736 118.631 562.301 Q120.459 565.842 124.07 565.842 Q127.705 565.842 129.51 562.301 Q131.339 558.736 131.339 551.629 Q131.339 544.5 129.51 540.958 Q127.705 537.393 124.07 537.393 M124.07 533.69 Q129.881 533.69 132.936 538.296 Q136.015 542.879 136.015 551.629 Q136.015 560.356 132.936 564.963 Q129.881 569.546 124.07 569.546 Q118.26 569.546 115.182 564.963 Q112.126 560.356 112.126 551.629 Q112.126 542.879 115.182 538.296 Q118.26 533.69 124.07 533.69 Z" fill="#000000" fill-rule="nonzero" fill-opacity="1" /><path clip-path="url(#clip100)" d="M154.232 537.393 Q150.621 537.393 148.793 540.958 Q146.987 544.5 146.987 551.629 Q146.987 558.736 148.793 562.301 Q150.621 565.842 154.232 565.842 Q157.867 565.842 159.672 562.301 Q161.501 558.736 161.501 551.629 Q161.501 544.5 159.672 540.958 Q157.867 537.393 154.232 537.393 M154.232 533.69 Q160.042 533.69 163.098 538.296 Q166.177 542.879 166.177 551.629 Q166.177 560.356 163.098 564.963 Q160.042 569.546 154.232 569.546 Q148.422 569.546 145.343 564.963 Q142.288 560.356 142.288 551.629 Q142.288 542.879 145.343 538.296 Q148.422 533.69 154.232 533.69 Z" fill="#000000" fill-rule="nonzero" fill-opacity="1" /><path clip-path="url(#clip100)" d="M66.5939 207.233 L54.7884 225.682 L66.5939 225.682 L66.5939 207.233 M65.367 203.159 L71.2466 203.159 L71.2466 225.682 L76.1772 225.682 L76.1772 229.571 L71.2466 229.571 L71.2466 237.719 L66.5939 237.719 L66.5939 229.571 L50.9921 229.571 L50.9921 225.057 L65.367 203.159 Z" fill="#000000" fill-rule="nonzero" fill-opacity="1" /><path clip-path="url(#clip100)" d="M93.9086 206.237 Q90.2975 206.237 88.4688 209.802 Q86.6632 213.344 86.6632 220.473 Q86.6632 227.58 88.4688 231.145 Q90.2975 234.686 93.9086 234.686 Q97.5428 234.686 99.3483 231.145 Q101.177 227.58 101.177 220.473 Q101.177 213.344 99.3483 209.802 Q97.5428 206.237 93.9086 206.237 M93.9086 202.534 Q99.7187 202.534 102.774 207.14 Q105.853 211.723 105.853 220.473 Q105.853 229.2 102.774 233.807 Q99.7187 238.39 93.9086 238.39 Q88.0984 238.39 85.0197 233.807 Q81.9642 229.2 81.9642 220.473 Q81.9642 211.723 85.0197 207.14 Q88.0984 202.534 93.9086 202.534 Z" fill="#000000" fill-rule="nonzero" fill-opacity="1" /><path clip-path="url(#clip100)" d="M114.117 203.159 L132.473 203.159 L132.473 207.094 L118.399 207.094 L118.399 215.566 Q119.418 215.219 120.436 215.057 Q121.455 214.872 122.473 214.872 Q128.26 214.872 131.64 218.043 Q135.019 221.214 135.019 226.631 Q135.019 232.209 131.547 235.311 Q128.075 238.39 121.756 238.39 Q119.58 238.39 117.311 238.02 Q115.066 237.649 112.658 236.908 L112.658 232.209 Q114.742 233.344 116.964 233.899 Q119.186 234.455 121.663 234.455 Q125.668 234.455 128.006 232.348 Q130.344 230.242 130.344 226.631 Q130.344 223.02 128.006 220.913 Q125.668 218.807 121.663 218.807 Q119.788 218.807 117.913 219.223 Q116.061 219.64 114.117 220.52 L114.117 203.159 Z" fill="#000000" fill-rule="nonzero" fill-opacity="1" /><path clip-path="url(#clip100)" d="M154.232 206.237 Q150.621 206.237 148.793 209.802 Q146.987 213.344 146.987 220.473 Q146.987 227.58 148.793 231.145 Q150.621 234.686 154.232 234.686 Q157.867 234.686 159.672 231.145 Q161.501 227.58 161.501 220.473 Q161.501 213.344 159.672 209.802 Q157.867 206.237 154.232 206.237 M154.232 202.534 Q160.042 202.534 163.098 207.14 Q166.177 211.723 166.177 220.473 Q166.177 229.2 163.098 233.807 Q160.042 238.39 154.232 238.39 Q148.422 238.39 145.343 233.807 Q142.288 229.2 142.288 220.473 Q142.288 211.723 145.343 207.14 Q148.422 202.534 154.232 202.534 Z" fill="#000000" fill-rule="nonzero" fill-opacity="1" /><polyline clip-path="url(#clip102)" style="stroke:#009af9; stroke-linecap:round; stroke-linejoin:round; stroke-width:4; stroke-opacity:1; fill:none" points="263.042,1439.09 364.485,1445.72 465.927,1313.25 567.369,1432.47 668.812,1313.25 770.254,1160.92 871.697,1180.79 973.139,1141.05 1074.58,611.203 1176.02,829.766 1277.47,551.595 1378.91,783.404 1480.35,525.102 1581.79,948.982 1683.24,836.389 1784.68,637.695 1886.12,333.032 1987.56,425.755 2089.01,458.871 2190.45,220.439 2291.89,87.9763 "/>
<path clip-path="url(#clip100)" d="M273.863 198.898 L924.451 198.898 L924.451 95.2176 L273.863 95.2176  Z" fill="#ffffff" fill-rule="evenodd" fill-opacity="1"/>
<polyline clip-path="url(#clip100)" style="stroke:#000000; stroke-linecap:round; stroke-linejoin:round; stroke-width:4; stroke-opacity:1; fill:none" points="273.863,198.898 924.451,198.898 924.451,95.2176 273.863,95.2176 273.863,198.898 "/>
<polyline clip-path="url(#clip100)" style="stroke:#009af9; stroke-linecap:round; stroke-linejoin:round; stroke-width:4; stroke-opacity:1; fill:none" points="297.758,147.058 441.13,147.058 "/>
<path clip-path="url(#clip100)" d="M465.025 129.778 L486.877 129.778 L486.877 133.713 L469.701 133.713 L469.701 143.944 L486.159 143.944 L486.159 147.879 L469.701 147.879 L469.701 160.402 L487.294 160.402 L487.294 164.338 L465.025 164.338 L465.025 129.778 Z" fill="#000000" fill-rule="nonzero" fill-opacity="1" /><path clip-path="url(#clip100)" d="M514.979 143.389 Q516.576 140.518 518.798 139.153 Q521.02 137.787 524.03 137.787 Q528.08 137.787 530.28 140.634 Q532.479 143.458 532.479 148.689 L532.479 164.338 L528.196 164.338 L528.196 148.828 Q528.196 145.102 526.877 143.296 Q525.557 141.49 522.849 141.49 Q519.539 141.49 517.618 143.69 Q515.696 145.889 515.696 149.685 L515.696 164.338 L511.414 164.338 L511.414 148.828 Q511.414 145.078 510.094 143.296 Q508.775 141.49 506.02 141.49 Q502.757 141.49 500.835 143.713 Q498.914 145.912 498.914 149.685 L498.914 164.338 L494.632 164.338 L494.632 138.412 L498.914 138.412 L498.914 142.44 Q500.372 140.055 502.409 138.921 Q504.446 137.787 507.247 137.787 Q510.071 137.787 512.039 139.222 Q514.03 140.657 514.979 143.389 Z" fill="#000000" fill-rule="nonzero" fill-opacity="1" /><path clip-path="url(#clip100)" d="M545.094 160.449 L545.094 174.199 L540.812 174.199 L540.812 138.412 L545.094 138.412 L545.094 142.347 Q546.437 140.032 548.474 138.921 Q550.534 137.787 553.381 137.787 Q558.103 137.787 561.043 141.537 Q564.006 145.287 564.006 151.398 Q564.006 157.509 561.043 161.259 Q558.103 165.009 553.381 165.009 Q550.534 165.009 548.474 163.898 Q546.437 162.763 545.094 160.449 M559.585 151.398 Q559.585 146.699 557.641 144.037 Q555.719 141.352 552.34 141.352 Q548.96 141.352 547.016 144.037 Q545.094 146.699 545.094 151.398 Q545.094 156.097 547.016 158.782 Q548.96 161.444 552.34 161.444 Q555.719 161.444 557.641 158.782 Q559.585 156.097 559.585 151.398 Z" fill="#000000" fill-rule="nonzero" fill-opacity="1" /><path clip-path="url(#clip100)" d="M571.066 128.319 L575.326 128.319 L575.326 164.338 L571.066 164.338 L571.066 128.319 Z" fill="#000000" fill-rule="nonzero" fill-opacity="1" /><path clip-path="url(#clip100)" d="M594.284 141.398 Q590.858 141.398 588.867 144.083 Q586.876 146.745 586.876 151.398 Q586.876 156.051 588.844 158.736 Q590.835 161.398 594.284 161.398 Q597.687 161.398 599.677 158.713 Q601.668 156.027 601.668 151.398 Q601.668 146.791 599.677 144.106 Q597.687 141.398 594.284 141.398 M594.284 137.787 Q599.839 137.787 603.011 141.398 Q606.182 145.009 606.182 151.398 Q606.182 157.764 603.011 161.398 Q599.839 165.009 594.284 165.009 Q588.705 165.009 585.534 161.398 Q582.386 157.764 582.386 151.398 Q582.386 145.009 585.534 141.398 Q588.705 137.787 594.284 137.787 Z" fill="#000000" fill-rule="nonzero" fill-opacity="1" /><path clip-path="url(#clip100)" d="M624.029 166.745 Q622.223 171.375 620.511 172.787 Q618.798 174.199 615.927 174.199 L612.524 174.199 L612.524 170.634 L615.024 170.634 Q616.784 170.634 617.756 169.8 Q618.728 168.967 619.909 165.865 L620.673 163.921 L610.187 138.412 L614.7 138.412 L622.802 158.689 L630.904 138.412 L635.418 138.412 L624.029 166.745 Z" fill="#000000" fill-rule="nonzero" fill-opacity="1" /><path clip-path="url(#clip100)" d="M663.473 150.31 L663.473 152.393 L643.89 152.393 Q644.168 156.791 646.529 159.106 Q648.913 161.398 653.149 161.398 Q655.603 161.398 657.895 160.796 Q660.209 160.194 662.478 158.99 L662.478 163.018 Q660.186 163.99 657.779 164.5 Q655.371 165.009 652.895 165.009 Q646.691 165.009 643.057 161.398 Q639.446 157.787 639.446 151.629 Q639.446 145.264 642.872 141.537 Q646.321 137.787 652.154 137.787 Q657.385 137.787 660.418 141.166 Q663.473 144.523 663.473 150.31 M659.214 149.06 Q659.168 145.565 657.246 143.481 Q655.348 141.398 652.2 141.398 Q648.635 141.398 646.483 143.412 Q644.353 145.426 644.029 149.083 L659.214 149.06 Z" fill="#000000" fill-rule="nonzero" fill-opacity="1" /><path clip-path="url(#clip100)" d="M687.524 142.347 L687.524 128.319 L691.783 128.319 L691.783 164.338 L687.524 164.338 L687.524 160.449 Q686.181 162.763 684.121 163.898 Q682.084 165.009 679.214 165.009 Q674.515 165.009 671.552 161.259 Q668.612 157.509 668.612 151.398 Q668.612 145.287 671.552 141.537 Q674.515 137.787 679.214 137.787 Q682.084 137.787 684.121 138.921 Q686.181 140.032 687.524 142.347 M673.01 151.398 Q673.01 156.097 674.932 158.782 Q676.876 161.444 680.256 161.444 Q683.635 161.444 685.58 158.782 Q687.524 156.097 687.524 151.398 Q687.524 146.699 685.58 144.037 Q683.635 141.352 680.256 141.352 Q676.876 141.352 674.932 144.037 Q673.01 146.699 673.01 151.398 Z" fill="#000000" fill-rule="nonzero" fill-opacity="1" /><path clip-path="url(#clip100)" d="M712.732 129.778 L717.454 129.778 L724.723 158.99 L731.968 129.778 L737.223 129.778 L744.491 158.99 L751.737 129.778 L756.482 129.778 L747.802 164.338 L741.922 164.338 L734.63 134.338 L727.269 164.338 L721.39 164.338 L712.732 129.778 Z" fill="#000000" fill-rule="nonzero" fill-opacity="1" /><path clip-path="url(#clip100)" d="M769.769 141.398 Q766.343 141.398 764.352 144.083 Q762.362 146.745 762.362 151.398 Q762.362 156.051 764.329 158.736 Q766.32 161.398 769.769 161.398 Q773.172 161.398 775.162 158.713 Q777.153 156.027 777.153 151.398 Q777.153 146.791 775.162 144.106 Q773.172 141.398 769.769 141.398 M769.769 137.787 Q775.325 137.787 778.496 141.398 Q781.667 145.009 781.667 151.398 Q781.667 157.764 778.496 161.398 Q775.325 165.009 769.769 165.009 Q764.19 165.009 761.019 161.398 Q757.871 157.764 757.871 151.398 Q757.871 145.009 761.019 141.398 Q764.19 137.787 769.769 137.787 Z" fill="#000000" fill-rule="nonzero" fill-opacity="1" /><path clip-path="url(#clip100)" d="M803.75 142.393 Q803.033 141.977 802.176 141.791 Q801.343 141.583 800.324 141.583 Q796.713 141.583 794.769 143.944 Q792.848 146.282 792.848 150.68 L792.848 164.338 L788.565 164.338 L788.565 138.412 L792.848 138.412 L792.848 142.44 Q794.19 140.078 796.343 138.944 Q798.496 137.787 801.574 137.787 Q802.014 137.787 802.547 137.856 Q803.079 137.903 803.727 138.018 L803.75 142.393 Z" fill="#000000" fill-rule="nonzero" fill-opacity="1" /><path clip-path="url(#clip100)" d="M808.056 128.319 L812.338 128.319 L812.338 149.592 L825.046 138.412 L830.486 138.412 L816.736 150.541 L831.065 164.338 L825.509 164.338 L812.338 151.676 L812.338 164.338 L808.056 164.338 L808.056 128.319 Z" fill="#000000" fill-rule="nonzero" fill-opacity="1" /><path clip-path="url(#clip100)" d="M856.157 150.31 L856.157 152.393 L836.574 152.393 Q836.852 156.791 839.213 159.106 Q841.597 161.398 845.833 161.398 Q848.287 161.398 850.579 160.796 Q852.894 160.194 855.162 158.99 L855.162 163.018 Q852.87 163.99 850.463 164.5 Q848.056 165.009 845.579 165.009 Q839.375 165.009 835.741 161.398 Q832.13 157.787 832.13 151.629 Q832.13 145.264 835.556 141.537 Q839.005 137.787 844.838 137.787 Q850.069 137.787 853.102 141.166 Q856.157 144.523 856.157 150.31 M851.898 149.06 Q851.852 145.565 849.931 143.481 Q848.032 141.398 844.884 141.398 Q841.32 141.398 839.167 143.412 Q837.037 145.426 836.713 149.083 L851.898 149.06 Z" fill="#000000" fill-rule="nonzero" fill-opacity="1" /><path clip-path="url(#clip100)" d="M878.171 142.393 Q877.454 141.977 876.597 141.791 Q875.764 141.583 874.745 141.583 Q871.134 141.583 869.19 143.944 Q867.268 146.282 867.268 150.68 L867.268 164.338 L862.986 164.338 L862.986 138.412 L867.268 138.412 L867.268 142.44 Q868.611 140.078 870.764 138.944 Q872.917 137.787 875.995 137.787 Q876.435 137.787 876.968 137.856 Q877.5 137.903 878.148 138.018 L878.171 142.393 Z" fill="#000000" fill-rule="nonzero" fill-opacity="1" /><path clip-path="url(#clip100)" d="M899.166 139.176 L899.166 143.203 Q897.361 142.277 895.416 141.815 Q893.472 141.352 891.389 141.352 Q888.217 141.352 886.62 142.324 Q885.046 143.296 885.046 145.24 Q885.046 146.722 886.18 147.578 Q887.315 148.412 890.741 149.176 L892.199 149.5 Q896.736 150.472 898.634 152.254 Q900.555 154.014 900.555 157.185 Q900.555 160.796 897.685 162.902 Q894.838 165.009 889.838 165.009 Q887.754 165.009 885.486 164.592 Q883.241 164.199 880.741 163.388 L880.741 158.99 Q883.102 160.217 885.393 160.842 Q887.685 161.444 889.93 161.444 Q892.94 161.444 894.56 160.426 Q896.18 159.384 896.18 157.509 Q896.18 155.773 895 154.847 Q893.842 153.921 889.884 153.064 L888.403 152.717 Q884.444 151.884 882.685 150.171 Q880.926 148.435 880.926 145.426 Q880.926 141.768 883.518 139.778 Q886.111 137.787 890.879 137.787 Q893.241 137.787 895.324 138.134 Q897.407 138.481 899.166 139.176 Z" fill="#000000" fill-rule="nonzero" fill-opacity="1" /></svg>
