<?xml version="1.0" encoding="utf-8"?>
<svg xmlns="http://www.w3.org/2000/svg" xmlns:xlink="http://www.w3.org/1999/xlink" width="600" height="400" viewBox="0 0 2400 1600">
<defs>
  <clipPath id="clip480">
    <rect x="0" y="0" width="2400" height="1600"/>
  </clipPath>
</defs>
<path clip-path="url(#clip480)" d="M0 1600 L2400 1600 L2400 0 L0 0  Z" fill="#ffffff" fill-rule="evenodd" fill-opacity="1"/>
<defs>
  <clipPath id="clip481">
    <rect x="480" y="0" width="1681" height="1600"/>
  </clipPath>
</defs>
<path clip-path="url(#clip480)" d="M230.765 1486.45 L2352.76 1486.45 L2352.76 106.192 L230.765 106.192  Z" fill="#ffffff" fill-rule="evenodd" fill-opacity="1"/>
<defs>
  <clipPath id="clip482">
    <rect x="230" y="106" width="2123" height="1381"/>
  </clipPath>
</defs>
<polyline clip-path="url(#clip482)" style="stroke:#000000; stroke-linecap:round; stroke-linejoin:round; stroke-width:2; stroke-opacity:0.1; fill:none" points="541.056,1486.45 541.056,106.192 "/>
<polyline clip-path="url(#clip482)" style="stroke:#000000; stroke-linecap:round; stroke-linejoin:round; stroke-width:2; stroke-opacity:0.1; fill:none" points="916.408,1486.45 916.408,106.192 "/>
<polyline clip-path="url(#clip482)" style="stroke:#000000; stroke-linecap:round; stroke-linejoin:round; stroke-width:2; stroke-opacity:0.1; fill:none" points="1291.76,1486.45 1291.76,106.192 "/>
<polyline clip-path="url(#clip482)" style="stroke:#000000; stroke-linecap:round; stroke-linejoin:round; stroke-width:2; stroke-opacity:0.1; fill:none" points="1667.11,1486.45 1667.11,106.192 "/>
<polyline clip-path="url(#clip482)" style="stroke:#000000; stroke-linecap:round; stroke-linejoin:round; stroke-width:2; stroke-opacity:0.1; fill:none" points="2042.46,1486.45 2042.46,106.192 "/>
<polyline clip-path="url(#clip482)" style="stroke:#000000; stroke-linecap:round; stroke-linejoin:round; stroke-width:2; stroke-opacity:0.1; fill:none" points="230.765,1290.86 2352.76,1290.86 "/>
<polyline clip-path="url(#clip482)" style="stroke:#000000; stroke-linecap:round; stroke-linejoin:round; stroke-width:2; stroke-opacity:0.1; fill:none" points="230.765,1020.06 2352.76,1020.06 "/>
<polyline clip-path="url(#clip482)" style="stroke:#000000; stroke-linecap:round; stroke-linejoin:round; stroke-width:2; stroke-opacity:0.1; fill:none" points="230.765,749.259 2352.76,749.259 "/>
<polyline clip-path="url(#clip482)" style="stroke:#000000; stroke-linecap:round; stroke-linejoin:round; stroke-width:2; stroke-opacity:0.1; fill:none" points="230.765,478.458 2352.76,478.458 "/>
<polyline clip-path="url(#clip482)" style="stroke:#000000; stroke-linecap:round; stroke-linejoin:round; stroke-width:2; stroke-opacity:0.1; fill:none" points="230.765,207.657 2352.76,207.657 "/>
<polyline clip-path="url(#clip480)" style="stroke:#000000; stroke-linecap:round; stroke-linejoin:round; stroke-width:4; stroke-opacity:1; fill:none" points="230.765,1486.45 2352.76,1486.45 "/>
<polyline clip-path="url(#clip480)" style="stroke:#000000; stroke-linecap:round; stroke-linejoin:round; stroke-width:4; stroke-opacity:1; fill:none" points="541.056,1486.45 541.056,1467.55 "/>
<polyline clip-path="url(#clip480)" style="stroke:#000000; stroke-linecap:round; stroke-linejoin:round; stroke-width:4; stroke-opacity:1; fill:none" points="916.408,1486.45 916.408,1467.55 "/>
<polyline clip-path="url(#clip480)" style="stroke:#000000; stroke-linecap:round; stroke-linejoin:round; stroke-width:4; stroke-opacity:1; fill:none" points="1291.76,1486.45 1291.76,1467.55 "/>
<polyline clip-path="url(#clip480)" style="stroke:#000000; stroke-linecap:round; stroke-linejoin:round; stroke-width:4; stroke-opacity:1; fill:none" points="1667.11,1486.45 1667.11,1467.55 "/>
<polyline clip-path="url(#clip480)" style="stroke:#000000; stroke-linecap:round; stroke-linejoin:round; stroke-width:4; stroke-opacity:1; fill:none" points="2042.46,1486.45 2042.46,1467.55 "/>
<path clip-path="url(#clip480)" d="M545.303 1530.21 Q548.66 1530.93 550.535 1533.2 Q552.433 1535.47 552.433 1538.8 Q552.433 1543.92 548.914 1546.72 Q545.396 1549.52 538.915 1549.52 Q536.739 1549.52 534.424 1549.08 Q532.132 1548.66 529.678 1547.81 L529.678 1543.29 Q531.623 1544.43 533.938 1545.01 Q536.252 1545.58 538.776 1545.58 Q543.174 1545.58 545.465 1543.85 Q547.78 1542.11 547.78 1538.8 Q547.78 1535.75 545.627 1534.03 Q543.498 1532.3 539.678 1532.3 L535.651 1532.3 L535.651 1528.45 L539.864 1528.45 Q543.313 1528.45 545.141 1527.09 Q546.97 1525.7 546.97 1523.11 Q546.97 1520.45 545.072 1519.03 Q543.197 1517.6 539.678 1517.6 Q537.757 1517.6 535.558 1518.01 Q533.359 1518.43 530.72 1519.31 L530.72 1515.14 Q533.382 1514.4 535.697 1514.03 Q538.035 1513.66 540.095 1513.66 Q545.419 1513.66 548.521 1516.09 Q551.623 1518.5 551.623 1522.62 Q551.623 1525.49 549.979 1527.48 Q548.336 1529.45 545.303 1530.21 Z" fill="#000000" fill-rule="nonzero" fill-opacity="1" /><path clip-path="url(#clip480)" d="M916.813 1529.7 Q913.665 1529.7 911.813 1531.86 Q909.984 1534.01 909.984 1537.76 Q909.984 1541.49 911.813 1543.66 Q913.665 1545.82 916.813 1545.82 Q919.961 1545.82 921.79 1543.66 Q923.642 1541.49 923.642 1537.76 Q923.642 1534.01 921.79 1531.86 Q919.961 1529.7 916.813 1529.7 M926.095 1515.05 L926.095 1519.31 Q924.336 1518.48 922.531 1518.04 Q920.748 1517.6 918.989 1517.6 Q914.359 1517.6 911.906 1520.72 Q909.475 1523.85 909.128 1530.17 Q910.494 1528.15 912.554 1527.09 Q914.614 1526 917.091 1526 Q922.299 1526 925.308 1529.17 Q928.341 1532.32 928.341 1537.76 Q928.341 1543.08 925.193 1546.3 Q922.044 1549.52 916.813 1549.52 Q910.818 1549.52 907.646 1544.94 Q904.475 1540.33 904.475 1531.6 Q904.475 1523.41 908.364 1518.55 Q912.253 1513.66 918.804 1513.66 Q920.563 1513.66 922.345 1514.01 Q924.151 1514.36 926.095 1515.05 Z" fill="#000000" fill-rule="nonzero" fill-opacity="1" /><path clip-path="url(#clip480)" d="M1282.06 1548.13 L1282.06 1543.87 Q1283.82 1544.7 1285.63 1545.14 Q1287.43 1545.58 1289.17 1545.58 Q1293.8 1545.58 1296.23 1542.48 Q1298.68 1539.36 1299.03 1533.01 Q1297.69 1535.01 1295.63 1536.07 Q1293.57 1537.13 1291.07 1537.13 Q1285.88 1537.13 1282.85 1534.01 Q1279.84 1530.86 1279.84 1525.42 Q1279.84 1520.1 1282.99 1516.88 Q1286.14 1513.66 1291.37 1513.66 Q1297.36 1513.66 1300.51 1518.27 Q1303.68 1522.85 1303.68 1531.6 Q1303.68 1539.77 1299.79 1544.66 Q1295.93 1549.52 1289.38 1549.52 Q1287.62 1549.52 1285.81 1549.17 Q1284.01 1548.82 1282.06 1548.13 M1291.37 1533.48 Q1294.51 1533.48 1296.34 1531.32 Q1298.2 1529.17 1298.2 1525.42 Q1298.2 1521.7 1296.34 1519.54 Q1294.51 1517.37 1291.37 1517.37 Q1288.22 1517.37 1286.37 1519.54 Q1284.54 1521.7 1284.54 1525.42 Q1284.54 1529.17 1286.37 1531.32 Q1288.22 1533.48 1291.37 1533.48 Z" fill="#000000" fill-rule="nonzero" fill-opacity="1" /><path clip-path="url(#clip480)" d="M1642.6 1544.91 L1650.24 1544.91 L1650.24 1518.55 L1641.93 1520.21 L1641.93 1515.95 L1650.19 1514.29 L1654.87 1514.29 L1654.87 1544.91 L1662.51 1544.91 L1662.51 1548.85 L1642.6 1548.85 L1642.6 1544.91 Z" fill="#000000" fill-rule="nonzero" fill-opacity="1" /><path clip-path="url(#clip480)" d="M1675.98 1544.91 L1692.3 1544.91 L1692.3 1548.85 L1670.35 1548.85 L1670.35 1544.91 Q1673.02 1542.16 1677.6 1537.53 Q1682.2 1532.88 1683.39 1531.53 Q1685.63 1529.01 1686.51 1527.27 Q1687.41 1525.51 1687.41 1523.82 Q1687.41 1521.07 1685.47 1519.33 Q1683.55 1517.6 1680.45 1517.6 Q1678.25 1517.6 1675.79 1518.36 Q1673.36 1519.13 1670.58 1520.68 L1670.58 1515.95 Q1673.41 1514.82 1675.86 1514.24 Q1678.32 1513.66 1680.35 1513.66 Q1685.72 1513.66 1688.92 1516.35 Q1692.11 1519.03 1692.11 1523.52 Q1692.11 1525.65 1691.3 1527.57 Q1690.52 1529.47 1688.41 1532.07 Q1687.83 1532.74 1684.73 1535.95 Q1681.63 1539.15 1675.98 1544.91 Z" fill="#000000" fill-rule="nonzero" fill-opacity="1" /><path clip-path="url(#clip480)" d="M2017.65 1544.91 L2025.29 1544.91 L2025.29 1518.55 L2016.98 1520.21 L2016.98 1515.95 L2025.24 1514.29 L2029.92 1514.29 L2029.92 1544.91 L2037.56 1544.91 L2037.56 1548.85 L2017.65 1548.85 L2017.65 1544.91 Z" fill="#000000" fill-rule="nonzero" fill-opacity="1" /><path clip-path="url(#clip480)" d="M2047.05 1514.29 L2065.4 1514.29 L2065.4 1518.22 L2051.33 1518.22 L2051.33 1526.7 Q2052.35 1526.35 2053.37 1526.19 Q2054.39 1526 2055.4 1526 Q2061.19 1526 2064.57 1529.17 Q2067.95 1532.34 2067.95 1537.76 Q2067.95 1543.34 2064.48 1546.44 Q2061.01 1549.52 2054.69 1549.52 Q2052.51 1549.52 2050.24 1549.15 Q2048 1548.78 2045.59 1548.04 L2045.59 1543.34 Q2047.67 1544.47 2049.9 1545.03 Q2052.12 1545.58 2054.59 1545.58 Q2058.6 1545.58 2060.94 1543.48 Q2063.27 1541.37 2063.27 1537.76 Q2063.27 1534.15 2060.94 1532.04 Q2058.6 1529.94 2054.59 1529.94 Q2052.72 1529.94 2050.84 1530.35 Q2048.99 1530.77 2047.05 1531.65 L2047.05 1514.29 Z" fill="#000000" fill-rule="nonzero" fill-opacity="1" /><polyline clip-path="url(#clip480)" style="stroke:#000000; stroke-linecap:round; stroke-linejoin:round; stroke-width:4; stroke-opacity:1; fill:none" points="230.765,1486.45 230.765,106.192 "/>
<polyline clip-path="url(#clip480)" style="stroke:#000000; stroke-linecap:round; stroke-linejoin:round; stroke-width:4; stroke-opacity:1; fill:none" points="230.765,1290.86 249.662,1290.86 "/>
<polyline clip-path="url(#clip480)" style="stroke:#000000; stroke-linecap:round; stroke-linejoin:round; stroke-width:4; stroke-opacity:1; fill:none" points="230.765,1020.06 249.662,1020.06 "/>
<polyline clip-path="url(#clip480)" style="stroke:#000000; stroke-linecap:round; stroke-linejoin:round; stroke-width:4; stroke-opacity:1; fill:none" points="230.765,749.259 249.662,749.259 "/>
<polyline clip-path="url(#clip480)" style="stroke:#000000; stroke-linecap:round; stroke-linejoin:round; stroke-width:4; stroke-opacity:1; fill:none" points="230.765,478.458 249.662,478.458 "/>
<polyline clip-path="url(#clip480)" style="stroke:#000000; stroke-linecap:round; stroke-linejoin:round; stroke-width:4; stroke-opacity:1; fill:none" points="230.765,207.657 249.662,207.657 "/>
<path clip-path="url(#clip480)" d="M50.9921 1273.58 L73.2142 1273.58 L73.2142 1275.57 L60.668 1308.14 L55.7838 1308.14 L67.5893 1277.52 L50.9921 1277.52 L50.9921 1273.58 Z" fill="#000000" fill-rule="nonzero" fill-opacity="1" /><path clip-path="url(#clip480)" d="M96.5011 1289.51 Q99.8576 1290.22 101.733 1292.49 Q103.631 1294.76 103.631 1298.09 Q103.631 1303.21 100.112 1306.01 Q96.5937 1308.81 90.1123 1308.81 Q87.9364 1308.81 85.6216 1308.37 Q83.3299 1307.96 80.8762 1307.1 L80.8762 1302.59 Q82.8207 1303.72 85.1355 1304.3 Q87.4503 1304.88 89.9734 1304.88 Q94.3715 1304.88 96.6632 1303.14 Q98.978 1301.41 98.978 1298.09 Q98.978 1295.04 96.8252 1293.33 Q94.6956 1291.59 90.8762 1291.59 L86.8484 1291.59 L86.8484 1287.75 L91.0614 1287.75 Q94.5104 1287.75 96.3391 1286.38 Q98.1678 1284.99 98.1678 1282.4 Q98.1678 1279.74 96.2697 1278.33 Q94.3947 1276.89 90.8762 1276.89 Q88.9549 1276.89 86.7558 1277.31 Q84.5568 1277.72 81.9179 1278.6 L81.9179 1274.44 Q84.5799 1273.7 86.8947 1273.33 Q89.2327 1272.96 91.2928 1272.96 Q96.6169 1272.96 99.7187 1275.39 Q102.821 1277.79 102.821 1281.91 Q102.821 1284.78 101.177 1286.78 Q99.5335 1288.74 96.5011 1289.51 Z" fill="#000000" fill-rule="nonzero" fill-opacity="1" /><path clip-path="url(#clip480)" d="M122.496 1276.66 Q118.885 1276.66 117.057 1280.22 Q115.251 1283.77 115.251 1290.9 Q115.251 1298 117.057 1301.57 Q118.885 1305.11 122.496 1305.11 Q126.131 1305.11 127.936 1301.57 Q129.765 1298 129.765 1290.9 Q129.765 1283.77 127.936 1280.22 Q126.131 1276.66 122.496 1276.66 M122.496 1272.96 Q128.307 1272.96 131.362 1277.56 Q134.441 1282.15 134.441 1290.9 Q134.441 1299.62 131.362 1304.23 Q128.307 1308.81 122.496 1308.81 Q116.686 1308.81 113.608 1304.23 Q110.552 1299.62 110.552 1290.9 Q110.552 1282.15 113.608 1277.56 Q116.686 1272.96 122.496 1272.96 Z" fill="#000000" fill-rule="nonzero" fill-opacity="1" /><path clip-path="url(#clip480)" d="M152.658 1276.66 Q149.047 1276.66 147.218 1280.22 Q145.413 1283.77 145.413 1290.9 Q145.413 1298 147.218 1301.57 Q149.047 1305.11 152.658 1305.11 Q156.292 1305.11 158.098 1301.57 Q159.927 1298 159.927 1290.9 Q159.927 1283.77 158.098 1280.22 Q156.292 1276.66 152.658 1276.66 M152.658 1272.96 Q158.468 1272.96 161.524 1277.56 Q164.603 1282.15 164.603 1290.9 Q164.603 1299.62 161.524 1304.23 Q158.468 1308.81 152.658 1308.81 Q146.848 1308.81 143.769 1304.23 Q140.714 1299.62 140.714 1290.9 Q140.714 1282.15 143.769 1277.56 Q146.848 1272.96 152.658 1272.96 Z" fill="#000000" fill-rule="nonzero" fill-opacity="1" /><path clip-path="url(#clip480)" d="M182.82 1276.66 Q179.209 1276.66 177.38 1280.22 Q175.575 1283.77 175.575 1290.9 Q175.575 1298 177.38 1301.57 Q179.209 1305.11 182.82 1305.11 Q186.454 1305.11 188.26 1301.57 Q190.089 1298 190.089 1290.9 Q190.089 1283.77 188.26 1280.22 Q186.454 1276.66 182.82 1276.66 M182.82 1272.96 Q188.63 1272.96 191.686 1277.56 Q194.765 1282.15 194.765 1290.9 Q194.765 1299.62 191.686 1304.23 Q188.63 1308.81 182.82 1308.81 Q177.01 1308.81 173.931 1304.23 Q170.876 1299.62 170.876 1290.9 Q170.876 1282.15 173.931 1277.56 Q177.01 1272.96 182.82 1272.96 Z" fill="#000000" fill-rule="nonzero" fill-opacity="1" /><path clip-path="url(#clip480)" d="M50.9921 1002.78 L73.2142 1002.78 L73.2142 1004.77 L60.668 1037.34 L55.7838 1037.34 L67.5893 1006.72 L50.9921 1006.72 L50.9921 1002.78 Z" fill="#000000" fill-rule="nonzero" fill-opacity="1" /><path clip-path="url(#clip480)" d="M95.1817 1006.85 L83.3762 1025.3 L95.1817 1025.3 L95.1817 1006.85 M93.9549 1002.78 L99.8345 1002.78 L99.8345 1025.3 L104.765 1025.3 L104.765 1029.19 L99.8345 1029.19 L99.8345 1037.34 L95.1817 1037.34 L95.1817 1029.19 L79.5799 1029.19 L79.5799 1024.68 L93.9549 1002.78 Z" fill="#000000" fill-rule="nonzero" fill-opacity="1" /><path clip-path="url(#clip480)" d="M122.496 1005.86 Q118.885 1005.86 117.057 1009.42 Q115.251 1012.97 115.251 1020.09 Q115.251 1027.2 117.057 1030.77 Q118.885 1034.31 122.496 1034.31 Q126.131 1034.31 127.936 1030.77 Q129.765 1027.2 129.765 1020.09 Q129.765 1012.97 127.936 1009.42 Q126.131 1005.86 122.496 1005.86 M122.496 1002.16 Q128.307 1002.16 131.362 1006.76 Q134.441 1011.34 134.441 1020.09 Q134.441 1028.82 131.362 1033.43 Q128.307 1038.01 122.496 1038.01 Q116.686 1038.01 113.608 1033.43 Q110.552 1028.82 110.552 1020.09 Q110.552 1011.34 113.608 1006.76 Q116.686 1002.16 122.496 1002.16 Z" fill="#000000" fill-rule="nonzero" fill-opacity="1" /><path clip-path="url(#clip480)" d="M152.658 1005.86 Q149.047 1005.86 147.218 1009.42 Q145.413 1012.97 145.413 1020.09 Q145.413 1027.2 147.218 1030.77 Q149.047 1034.31 152.658 1034.31 Q156.292 1034.31 158.098 1030.77 Q159.927 1027.2 159.927 1020.09 Q159.927 1012.97 158.098 1009.42 Q156.292 1005.86 152.658 1005.86 M152.658 1002.16 Q158.468 1002.16 161.524 1006.76 Q164.603 1011.34 164.603 1020.09 Q164.603 1028.82 161.524 1033.43 Q158.468 1038.01 152.658 1038.01 Q146.848 1038.01 143.769 1033.43 Q140.714 1028.82 140.714 1020.09 Q140.714 1011.34 143.769 1006.76 Q146.848 1002.16 152.658 1002.16 Z" fill="#000000" fill-rule="nonzero" fill-opacity="1" /><path clip-path="url(#clip480)" d="M182.82 1005.86 Q179.209 1005.86 177.38 1009.42 Q175.575 1012.97 175.575 1020.09 Q175.575 1027.2 177.38 1030.77 Q179.209 1034.31 182.82 1034.31 Q186.454 1034.31 188.26 1030.77 Q190.089 1027.2 190.089 1020.09 Q190.089 1012.97 188.26 1009.42 Q186.454 1005.86 182.82 1005.86 M182.82 1002.16 Q188.63 1002.16 191.686 1006.76 Q194.765 1011.34 194.765 1020.09 Q194.765 1028.82 191.686 1033.43 Q188.63 1038.01 182.82 1038.01 Q177.01 1038.01 173.931 1033.43 Q170.876 1028.82 170.876 1020.09 Q170.876 1011.34 173.931 1006.76 Q177.01 1002.16 182.82 1002.16 Z" fill="#000000" fill-rule="nonzero" fill-opacity="1" /><path clip-path="url(#clip480)" d="M50.9921 731.979 L73.2142 731.979 L73.2142 733.97 L60.668 766.539 L55.7838 766.539 L67.5893 735.914 L50.9921 735.914 L50.9921 731.979 Z" fill="#000000" fill-rule="nonzero" fill-opacity="1" /><path clip-path="url(#clip480)" d="M82.3808 731.979 L100.737 731.979 L100.737 735.914 L86.6632 735.914 L86.6632 744.387 Q87.6817 744.039 88.7003 743.877 Q89.7188 743.692 90.7373 743.692 Q96.5243 743.692 99.9039 746.863 Q103.284 750.035 103.284 755.451 Q103.284 761.03 99.8113 764.132 Q96.3391 767.211 90.0197 767.211 Q87.8438 767.211 85.5753 766.84 Q83.3299 766.47 80.9225 765.729 L80.9225 761.03 Q83.0058 762.164 85.2281 762.72 Q87.4503 763.275 89.9271 763.275 Q93.9317 763.275 96.2697 761.169 Q98.6076 759.062 98.6076 755.451 Q98.6076 751.84 96.2697 749.734 Q93.9317 747.627 89.9271 747.627 Q88.0521 747.627 86.1771 748.044 Q84.3253 748.461 82.3808 749.34 L82.3808 731.979 Z" fill="#000000" fill-rule="nonzero" fill-opacity="1" /><path clip-path="url(#clip480)" d="M122.496 735.058 Q118.885 735.058 117.057 738.623 Q115.251 742.164 115.251 749.294 Q115.251 756.4 117.057 759.965 Q118.885 763.507 122.496 763.507 Q126.131 763.507 127.936 759.965 Q129.765 756.4 129.765 749.294 Q129.765 742.164 127.936 738.623 Q126.131 735.058 122.496 735.058 M122.496 731.354 Q128.307 731.354 131.362 735.961 Q134.441 740.544 134.441 749.294 Q134.441 758.021 131.362 762.627 Q128.307 767.211 122.496 767.211 Q116.686 767.211 113.608 762.627 Q110.552 758.021 110.552 749.294 Q110.552 740.544 113.608 735.961 Q116.686 731.354 122.496 731.354 Z" fill="#000000" fill-rule="nonzero" fill-opacity="1" /><path clip-path="url(#clip480)" d="M152.658 735.058 Q149.047 735.058 147.218 738.623 Q145.413 742.164 145.413 749.294 Q145.413 756.4 147.218 759.965 Q149.047 763.507 152.658 763.507 Q156.292 763.507 158.098 759.965 Q159.927 756.4 159.927 749.294 Q159.927 742.164 158.098 738.623 Q156.292 735.058 152.658 735.058 M152.658 731.354 Q158.468 731.354 161.524 735.961 Q164.603 740.544 164.603 749.294 Q164.603 758.021 161.524 762.627 Q158.468 767.211 152.658 767.211 Q146.848 767.211 143.769 762.627 Q140.714 758.021 140.714 749.294 Q140.714 740.544 143.769 735.961 Q146.848 731.354 152.658 731.354 Z" fill="#000000" fill-rule="nonzero" fill-opacity="1" /><path clip-path="url(#clip480)" d="M182.82 735.058 Q179.209 735.058 177.38 738.623 Q175.575 742.164 175.575 749.294 Q175.575 756.4 177.38 759.965 Q179.209 763.507 182.82 763.507 Q186.454 763.507 188.26 759.965 Q190.089 756.4 190.089 749.294 Q190.089 742.164 188.26 738.623 Q186.454 735.058 182.82 735.058 M182.82 731.354 Q188.63 731.354 191.686 735.961 Q194.765 740.544 194.765 749.294 Q194.765 758.021 191.686 762.627 Q188.63 767.211 182.82 767.211 Q177.01 767.211 173.931 762.627 Q170.876 758.021 170.876 749.294 Q170.876 740.544 173.931 735.961 Q177.01 731.354 182.82 731.354 Z" fill="#000000" fill-rule="nonzero" fill-opacity="1" /><path clip-path="url(#clip480)" d="M50.9921 461.178 L73.2142 461.178 L73.2142 463.169 L60.668 495.738 L55.7838 495.738 L67.5893 465.114 L50.9921 465.114 L50.9921 461.178 Z" fill="#000000" fill-rule="nonzero" fill-opacity="1" /><path clip-path="url(#clip480)" d="M92.9132 476.595 Q89.7651 476.595 87.9132 478.748 Q86.0845 480.9 86.0845 484.65 Q86.0845 488.377 87.9132 490.553 Q89.7651 492.706 92.9132 492.706 Q96.0613 492.706 97.89 490.553 Q99.7419 488.377 99.7419 484.65 Q99.7419 480.9 97.89 478.748 Q96.0613 476.595 92.9132 476.595 M102.196 461.942 L102.196 466.201 Q100.436 465.368 98.6308 464.928 Q96.8484 464.489 95.0891 464.489 Q90.4595 464.489 88.0058 467.614 Q85.5753 470.739 85.2281 477.058 Q86.5938 475.044 88.654 473.979 Q90.7141 472.891 93.191 472.891 Q98.3993 472.891 101.409 476.063 Q104.441 479.211 104.441 484.65 Q104.441 489.975 101.293 493.192 Q98.1447 496.41 92.9132 496.41 Q86.9179 496.41 83.7466 491.826 Q80.5753 487.22 80.5753 478.493 Q80.5753 470.299 84.4642 465.438 Q88.353 460.553 94.9039 460.553 Q96.6632 460.553 98.4456 460.901 Q100.251 461.248 102.196 461.942 Z" fill="#000000" fill-rule="nonzero" fill-opacity="1" /><path clip-path="url(#clip480)" d="M122.496 464.257 Q118.885 464.257 117.057 467.822 Q115.251 471.364 115.251 478.493 Q115.251 485.6 117.057 489.164 Q118.885 492.706 122.496 492.706 Q126.131 492.706 127.936 489.164 Q129.765 485.6 129.765 478.493 Q129.765 471.364 127.936 467.822 Q126.131 464.257 122.496 464.257 M122.496 460.553 Q128.307 460.553 131.362 465.16 Q134.441 469.743 134.441 478.493 Q134.441 487.22 131.362 491.826 Q128.307 496.41 122.496 496.41 Q116.686 496.41 113.608 491.826 Q110.552 487.22 110.552 478.493 Q110.552 469.743 113.608 465.16 Q116.686 460.553 122.496 460.553 Z" fill="#000000" fill-rule="nonzero" fill-opacity="1" /><path clip-path="url(#clip480)" d="M152.658 464.257 Q149.047 464.257 147.218 467.822 Q145.413 471.364 145.413 478.493 Q145.413 485.6 147.218 489.164 Q149.047 492.706 152.658 492.706 Q156.292 492.706 158.098 489.164 Q159.927 485.6 159.927 478.493 Q159.927 471.364 158.098 467.822 Q156.292 464.257 152.658 464.257 M152.658 460.553 Q158.468 460.553 161.524 465.16 Q164.603 469.743 164.603 478.493 Q164.603 487.22 161.524 491.826 Q158.468 496.41 152.658 496.41 Q146.848 496.41 143.769 491.826 Q140.714 487.22 140.714 478.493 Q140.714 469.743 143.769 465.16 Q146.848 460.553 152.658 460.553 Z" fill="#000000" fill-rule="nonzero" fill-opacity="1" /><path clip-path="url(#clip480)" d="M182.82 464.257 Q179.209 464.257 177.38 467.822 Q175.575 471.364 175.575 478.493 Q175.575 485.6 177.38 489.164 Q179.209 492.706 182.82 492.706 Q186.454 492.706 188.26 489.164 Q190.089 485.6 190.089 478.493 Q190.089 471.364 188.26 467.822 Q186.454 464.257 182.82 464.257 M182.82 460.553 Q188.63 460.553 191.686 465.16 Q194.765 469.743 194.765 478.493 Q194.765 487.22 191.686 491.826 Q188.63 496.41 182.82 496.41 Q177.01 496.41 173.931 491.826 Q170.876 487.22 170.876 478.493 Q170.876 469.743 173.931 465.16 Q177.01 460.553 182.82 460.553 Z" fill="#000000" fill-rule="nonzero" fill-opacity="1" /><path clip-path="url(#clip480)" d="M50.9921 190.377 L73.2142 190.377 L73.2142 192.368 L60.668 224.937 L55.7838 224.937 L67.5893 194.313 L50.9921 194.313 L50.9921 190.377 Z" fill="#000000" fill-rule="nonzero" fill-opacity="1" /><path clip-path="url(#clip480)" d="M81.154 190.377 L103.376 190.377 L103.376 192.368 L90.8299 224.937 L85.9456 224.937 L97.7511 194.313 L81.154 194.313 L81.154 190.377 Z" fill="#000000" fill-rule="nonzero" fill-opacity="1" /><path clip-path="url(#clip480)" d="M122.496 193.456 Q118.885 193.456 117.057 197.021 Q115.251 200.563 115.251 207.692 Q115.251 214.799 117.057 218.363 Q118.885 221.905 122.496 221.905 Q126.131 221.905 127.936 218.363 Q129.765 214.799 129.765 207.692 Q129.765 200.563 127.936 197.021 Q126.131 193.456 122.496 193.456 M122.496 189.752 Q128.307 189.752 131.362 194.359 Q134.441 198.942 134.441 207.692 Q134.441 216.419 131.362 221.025 Q128.307 225.609 122.496 225.609 Q116.686 225.609 113.608 221.025 Q110.552 216.419 110.552 207.692 Q110.552 198.942 113.608 194.359 Q116.686 189.752 122.496 189.752 Z" fill="#000000" fill-rule="nonzero" fill-opacity="1" /><path clip-path="url(#clip480)" d="M152.658 193.456 Q149.047 193.456 147.218 197.021 Q145.413 200.563 145.413 207.692 Q145.413 214.799 147.218 218.363 Q149.047 221.905 152.658 221.905 Q156.292 221.905 158.098 218.363 Q159.927 214.799 159.927 207.692 Q159.927 200.563 158.098 197.021 Q156.292 193.456 152.658 193.456 M152.658 189.752 Q158.468 189.752 161.524 194.359 Q164.603 198.942 164.603 207.692 Q164.603 216.419 161.524 221.025 Q158.468 225.609 152.658 225.609 Q146.848 225.609 143.769 221.025 Q140.714 216.419 140.714 207.692 Q140.714 198.942 143.769 194.359 Q146.848 189.752 152.658 189.752 Z" fill="#000000" fill-rule="nonzero" fill-opacity="1" /><path clip-path="url(#clip480)" d="M182.82 193.456 Q179.209 193.456 177.38 197.021 Q175.575 200.563 175.575 207.692 Q175.575 214.799 177.38 218.363 Q179.209 221.905 182.82 221.905 Q186.454 221.905 188.26 218.363 Q190.089 214.799 190.089 207.692 Q190.089 200.563 188.26 197.021 Q186.454 193.456 182.82 193.456 M182.82 189.752 Q188.63 189.752 191.686 194.359 Q194.765 198.942 194.765 207.692 Q194.765 216.419 191.686 221.025 Q188.63 225.609 182.82 225.609 Q177.01 225.609 173.931 221.025 Q170.876 216.419 170.876 207.692 Q170.876 198.942 173.931 194.359 Q177.01 189.752 182.82 189.752 Z" fill="#000000" fill-rule="nonzero" fill-opacity="1" /><path clip-path="url(#clip480)" d="M1262.23 35.2602 Q1262.23 29.4732 1259.83 26.2904 Q1257.46 23.1075 1253.15 23.1075 Q1248.86 23.1075 1246.46 26.2904 Q1244.09 29.4732 1244.09 35.2602 Q1244.09 41.0183 1246.46 44.2012 Q1248.86 47.384 1253.15 47.384 Q1257.46 47.384 1259.83 44.2012 Q1262.23 41.0183 1262.23 35.2602 M1267.56 47.818 Q1267.56 56.0934 1263.88 60.1154 Q1260.21 64.1663 1252.63 64.1663 Q1249.82 64.1663 1247.33 63.7323 Q1244.84 63.3272 1242.5 62.4592 L1242.5 57.2798 Q1244.84 58.5529 1247.13 59.1606 Q1249.41 59.7682 1251.79 59.7682 Q1257.02 59.7682 1259.63 57.0194 Q1262.23 54.2995 1262.23 48.7729 L1262.23 46.1398 Q1260.58 49.0044 1258.01 50.4222 Q1255.43 51.84 1251.84 51.84 Q1245.88 51.84 1242.24 47.2972 Q1238.59 42.7544 1238.59 35.2602 Q1238.59 27.7371 1242.24 23.1943 Q1245.88 18.6515 1251.84 18.6515 Q1255.43 18.6515 1258.01 20.0693 Q1260.58 21.4872 1262.23 24.3517 L1262.23 19.4328 L1267.56 19.4328 L1267.56 47.818 Z" fill="#000000" fill-rule="nonzero" fill-opacity="1" /><path clip-path="url(#clip480)" d="M1299.85 24.3517 L1299.85 6.81709 L1305.17 6.81709 L1305.17 51.84 L1299.85 51.84 L1299.85 46.9789 Q1298.17 49.8724 1295.59 51.2902 Q1293.05 52.6791 1289.46 52.6791 Q1283.59 52.6791 1279.88 47.9916 Q1276.21 43.3042 1276.21 35.6653 Q1276.21 28.0265 1279.88 23.339 Q1283.59 18.6515 1289.46 18.6515 Q1293.05 18.6515 1295.59 20.0693 Q1298.17 21.4582 1299.85 24.3517 M1281.71 35.6653 Q1281.71 41.5391 1284.11 44.8956 Q1286.54 48.2231 1290.76 48.2231 Q1294.99 48.2231 1297.42 44.8956 Q1299.85 41.5391 1299.85 35.6653 Q1299.85 29.7915 1297.42 26.464 Q1294.99 23.1075 1290.76 23.1075 Q1286.54 23.1075 1284.11 26.464 Q1281.71 29.7915 1281.71 35.6653 Z" fill="#000000" fill-rule="nonzero" fill-opacity="1" /><path clip-path="url(#clip480)" d="M1321.29 46.9789 L1321.29 64.1663 L1315.94 64.1663 L1315.94 19.4328 L1321.29 19.4328 L1321.29 24.3517 Q1322.97 21.4582 1325.51 20.0693 Q1328.09 18.6515 1331.65 18.6515 Q1337.55 18.6515 1341.22 23.339 Q1344.93 28.0265 1344.93 35.6653 Q1344.93 43.3042 1341.22 47.9916 Q1337.55 52.6791 1331.65 52.6791 Q1328.09 52.6791 1325.51 51.2902 Q1322.97 49.8724 1321.29 46.9789 M1339.4 35.6653 Q1339.4 29.7915 1336.97 26.464 Q1334.57 23.1075 1330.35 23.1075 Q1326.12 23.1075 1323.69 26.464 Q1321.29 29.7915 1321.29 35.6653 Q1321.29 41.5391 1323.69 44.8956 Q1326.12 48.2231 1330.35 48.2231 Q1334.57 48.2231 1336.97 44.8956 Q1339.4 41.5391 1339.4 35.6653 Z" fill="#000000" fill-rule="nonzero" fill-opacity="1" /><polyline clip-path="url(#clip482)" style="stroke:#009af9; stroke-linecap:round; stroke-linejoin:round; stroke-width:4; stroke-opacity:1; fill:none" points="290.821,1447.38 415.938,1349.88 541.056,1064.8 666.173,1346.35 791.291,1162.94 916.408,778.672 1041.53,1003.43 1166.64,958.582 1291.76,1061.64 1416.88,1165.07 1542,1048.22 1667.11,801.796 1792.23,893.524 1917.35,655.67 2042.46,558.167 2167.58,145.256 2292.7,227.893 "/>
<path clip-path="url(#clip480)" d="M301.498 255.881 L566.127 255.881 L566.127 152.201 L301.498 152.201  Z" fill="#ffffff" fill-rule="evenodd" fill-opacity="1"/>
<polyline clip-path="url(#clip480)" style="stroke:#000000; stroke-linecap:round; stroke-linejoin:round; stroke-width:4; stroke-opacity:1; fill:none" points="301.498,255.881 566.127,255.881 566.127,152.201 301.498,152.201 301.498,255.881 "/>
<polyline clip-path="url(#clip480)" style="stroke:#009af9; stroke-linecap:round; stroke-linejoin:round; stroke-width:4; stroke-opacity:1; fill:none" points="325.075,204.041 466.541,204.041 "/>
<path clip-path="url(#clip480)" d="M503.962 223.728 Q502.156 228.358 500.443 229.77 Q498.73 231.182 495.86 231.182 L492.457 231.182 L492.457 227.617 L494.957 227.617 Q496.716 227.617 497.688 226.784 Q498.661 225.95 499.841 222.848 L500.605 220.904 L490.119 195.395 L494.633 195.395 L502.735 215.673 L510.836 195.395 L515.35 195.395 L503.962 223.728 Z" fill="#000000" fill-rule="nonzero" fill-opacity="1" /><path clip-path="url(#clip480)" d="M522.642 217.385 L530.281 217.385 L530.281 191.02 L521.971 192.687 L521.971 188.427 L530.235 186.761 L534.91 186.761 L534.91 217.385 L542.549 217.385 L542.549 221.321 L522.642 221.321 L522.642 217.385 Z" fill="#000000" fill-rule="nonzero" fill-opacity="1" /></svg>
