<?xml version="1.0" encoding="utf-8"?>
<svg xmlns="http://www.w3.org/2000/svg" xmlns:xlink="http://www.w3.org/1999/xlink" width="600" height="400" viewBox="0 0 2400 1600">
<defs>
  <clipPath id="clip400">
    <rect x="0" y="0" width="2400" height="1600"/>
  </clipPath>
</defs>
<path clip-path="url(#clip400)" d="M0 1600 L2400 1600 L2400 0 L0 0  Z" fill="#ffffff" fill-rule="evenodd" fill-opacity="1"/>
<defs>
  <clipPath id="clip401">
    <rect x="480" y="0" width="1681" height="1600"/>
  </clipPath>
</defs>
<path clip-path="url(#clip400)" d="M200.88 1486.45 L2352.76 1486.45 L2352.76 47.2441 L200.88 47.2441  Z" fill="#ffffff" fill-rule="evenodd" fill-opacity="1"/>
<defs>
  <clipPath id="clip402">
    <rect x="200" y="47" width="2153" height="1440"/>
  </clipPath>
</defs>
<polyline clip-path="url(#clip402)" style="stroke:#000000; stroke-linecap:round; stroke-linejoin:round; stroke-width:2; stroke-opacity:0.1; fill:none" points="667.797,1486.45 667.797,47.2441 "/>
<polyline clip-path="url(#clip402)" style="stroke:#000000; stroke-linecap:round; stroke-linejoin:round; stroke-width:2; stroke-opacity:0.1; fill:none" points="1175.31,1486.45 1175.31,47.2441 "/>
<polyline clip-path="url(#clip402)" style="stroke:#000000; stroke-linecap:round; stroke-linejoin:round; stroke-width:2; stroke-opacity:0.1; fill:none" points="1682.83,1486.45 1682.83,47.2441 "/>
<polyline clip-path="url(#clip402)" style="stroke:#000000; stroke-linecap:round; stroke-linejoin:round; stroke-width:2; stroke-opacity:0.1; fill:none" points="2190.35,1486.45 2190.35,47.2441 "/>
<polyline clip-path="url(#clip402)" style="stroke:#000000; stroke-linecap:round; stroke-linejoin:round; stroke-width:2; stroke-opacity:0.1; fill:none" points="200.88,1364.66 2352.76,1364.66 "/>
<polyline clip-path="url(#clip402)" style="stroke:#000000; stroke-linecap:round; stroke-linejoin:round; stroke-width:2; stroke-opacity:0.1; fill:none" points="200.88,1162.01 2352.76,1162.01 "/>
<polyline clip-path="url(#clip402)" style="stroke:#000000; stroke-linecap:round; stroke-linejoin:round; stroke-width:2; stroke-opacity:0.1; fill:none" points="200.88,959.361 2352.76,959.361 "/>
<polyline clip-path="url(#clip402)" style="stroke:#000000; stroke-linecap:round; stroke-linejoin:round; stroke-width:2; stroke-opacity:0.1; fill:none" points="200.88,756.714 2352.76,756.714 "/>
<polyline clip-path="url(#clip402)" style="stroke:#000000; stroke-linecap:round; stroke-linejoin:round; stroke-width:2; stroke-opacity:0.1; fill:none" points="200.88,554.066 2352.76,554.066 "/>
<polyline clip-path="url(#clip402)" style="stroke:#000000; stroke-linecap:round; stroke-linejoin:round; stroke-width:2; stroke-opacity:0.1; fill:none" points="200.88,351.418 2352.76,351.418 "/>
<polyline clip-path="url(#clip402)" style="stroke:#000000; stroke-linecap:round; stroke-linejoin:round; stroke-width:2; stroke-opacity:0.1; fill:none" points="200.88,148.771 2352.76,148.771 "/>
<polyline clip-path="url(#clip400)" style="stroke:#000000; stroke-linecap:round; stroke-linejoin:round; stroke-width:4; stroke-opacity:1; fill:none" points="200.88,1486.45 2352.76,1486.45 "/>
<polyline clip-path="url(#clip400)" style="stroke:#000000; stroke-linecap:round; stroke-linejoin:round; stroke-width:4; stroke-opacity:1; fill:none" points="667.797,1486.45 667.797,1467.55 "/>
<polyline clip-path="url(#clip400)" style="stroke:#000000; stroke-linecap:round; stroke-linejoin:round; stroke-width:4; stroke-opacity:1; fill:none" points="1175.31,1486.45 1175.31,1467.55 "/>
<polyline clip-path="url(#clip400)" style="stroke:#000000; stroke-linecap:round; stroke-linejoin:round; stroke-width:4; stroke-opacity:1; fill:none" points="1682.83,1486.45 1682.83,1467.55 "/>
<polyline clip-path="url(#clip400)" style="stroke:#000000; stroke-linecap:round; stroke-linejoin:round; stroke-width:4; stroke-opacity:1; fill:none" points="2190.35,1486.45 2190.35,1467.55 "/>
<path clip-path="url(#clip400)" d="M658.075 1514.29 L676.431 1514.29 L676.431 1518.22 L662.357 1518.22 L662.357 1526.7 Q663.376 1526.35 664.394 1526.19 Q665.413 1526 666.431 1526 Q672.218 1526 675.598 1529.17 Q678.977 1532.34 678.977 1537.76 Q678.977 1543.34 675.505 1546.44 Q672.033 1549.52 665.713 1549.52 Q663.538 1549.52 661.269 1549.15 Q659.024 1548.78 656.616 1548.04 L656.616 1543.34 Q658.7 1544.47 660.922 1545.03 Q663.144 1545.58 665.621 1545.58 Q669.625 1545.58 671.963 1543.48 Q674.301 1541.37 674.301 1537.76 Q674.301 1534.15 671.963 1532.04 Q669.625 1529.94 665.621 1529.94 Q663.746 1529.94 661.871 1530.35 Q660.019 1530.77 658.075 1531.65 L658.075 1514.29 Z" fill="#000000" fill-rule="nonzero" fill-opacity="1" /><path clip-path="url(#clip400)" d="M1150 1544.91 L1157.64 1544.91 L1157.64 1518.55 L1149.33 1520.21 L1149.33 1515.95 L1157.59 1514.29 L1162.27 1514.29 L1162.27 1544.91 L1169.91 1544.91 L1169.91 1548.85 L1150 1548.85 L1150 1544.91 Z" fill="#000000" fill-rule="nonzero" fill-opacity="1" /><path clip-path="url(#clip400)" d="M1189.35 1517.37 Q1185.74 1517.37 1183.91 1520.93 Q1182.11 1524.47 1182.11 1531.6 Q1182.11 1538.71 1183.91 1542.27 Q1185.74 1545.82 1189.35 1545.82 Q1192.99 1545.82 1194.79 1542.27 Q1196.62 1538.71 1196.62 1531.6 Q1196.62 1524.47 1194.79 1520.93 Q1192.99 1517.37 1189.35 1517.37 M1189.35 1513.66 Q1195.16 1513.66 1198.22 1518.27 Q1201.3 1522.85 1201.3 1531.6 Q1201.3 1540.33 1198.22 1544.94 Q1195.16 1549.52 1189.35 1549.52 Q1183.54 1549.52 1180.47 1544.94 Q1177.41 1540.33 1177.41 1531.6 Q1177.41 1522.85 1180.47 1518.27 Q1183.54 1513.66 1189.35 1513.66 Z" fill="#000000" fill-rule="nonzero" fill-opacity="1" /><path clip-path="url(#clip400)" d="M1658.02 1544.91 L1665.66 1544.91 L1665.66 1518.55 L1657.35 1520.21 L1657.35 1515.95 L1665.61 1514.29 L1670.29 1514.29 L1670.29 1544.91 L1677.93 1544.91 L1677.93 1548.85 L1658.02 1548.85 L1658.02 1544.91 Z" fill="#000000" fill-rule="nonzero" fill-opacity="1" /><path clip-path="url(#clip400)" d="M1687.42 1514.29 L1705.77 1514.29 L1705.77 1518.22 L1691.7 1518.22 L1691.7 1526.7 Q1692.72 1526.35 1693.74 1526.19 Q1694.75 1526 1695.77 1526 Q1701.56 1526 1704.94 1529.17 Q1708.32 1532.34 1708.32 1537.76 Q1708.32 1543.34 1704.85 1546.44 Q1701.37 1549.52 1695.05 1549.52 Q1692.88 1549.52 1690.61 1549.15 Q1688.36 1548.78 1685.96 1548.04 L1685.96 1543.34 Q1688.04 1544.47 1690.26 1545.03 Q1692.49 1545.58 1694.96 1545.58 Q1698.97 1545.58 1701.3 1543.48 Q1703.64 1541.37 1703.64 1537.76 Q1703.64 1534.15 1701.3 1532.04 Q1698.97 1529.94 1694.96 1529.94 Q1693.09 1529.94 1691.21 1530.35 Q1689.36 1530.77 1687.42 1531.65 L1687.42 1514.29 Z" fill="#000000" fill-rule="nonzero" fill-opacity="1" /><path clip-path="url(#clip400)" d="M2169.12 1544.91 L2185.44 1544.91 L2185.44 1548.85 L2163.5 1548.85 L2163.5 1544.91 Q2166.16 1542.16 2170.74 1537.53 Q2175.35 1532.88 2176.53 1531.53 Q2178.78 1529.01 2179.66 1527.27 Q2180.56 1525.51 2180.56 1523.82 Q2180.56 1521.07 2178.61 1519.33 Q2176.69 1517.6 2173.59 1517.6 Q2171.39 1517.6 2168.94 1518.36 Q2166.51 1519.13 2163.73 1520.68 L2163.73 1515.95 Q2166.55 1514.82 2169.01 1514.24 Q2171.46 1513.66 2173.5 1513.66 Q2178.87 1513.66 2182.06 1516.35 Q2185.26 1519.03 2185.26 1523.52 Q2185.26 1525.65 2184.45 1527.57 Q2183.66 1529.47 2181.55 1532.07 Q2180.98 1532.74 2177.87 1535.95 Q2174.77 1539.15 2169.12 1544.91 Z" fill="#000000" fill-rule="nonzero" fill-opacity="1" /><path clip-path="url(#clip400)" d="M2205.26 1517.37 Q2201.65 1517.37 2199.82 1520.93 Q2198.01 1524.47 2198.01 1531.6 Q2198.01 1538.71 2199.82 1542.27 Q2201.65 1545.82 2205.26 1545.82 Q2208.89 1545.82 2210.7 1542.27 Q2212.53 1538.71 2212.53 1531.6 Q2212.53 1524.47 2210.7 1520.93 Q2208.89 1517.37 2205.26 1517.37 M2205.26 1513.66 Q2211.07 1513.66 2214.12 1518.27 Q2217.2 1522.85 2217.2 1531.6 Q2217.2 1540.33 2214.12 1544.94 Q2211.07 1549.52 2205.26 1549.52 Q2199.45 1549.52 2196.37 1544.94 Q2193.31 1540.33 2193.31 1531.6 Q2193.31 1522.85 2196.37 1518.27 Q2199.45 1513.66 2205.26 1513.66 Z" fill="#000000" fill-rule="nonzero" fill-opacity="1" /><polyline clip-path="url(#clip400)" style="stroke:#000000; stroke-linecap:round; stroke-linejoin:round; stroke-width:4; stroke-opacity:1; fill:none" points="200.88,1486.45 200.88,47.2441 "/>
<polyline clip-path="url(#clip400)" style="stroke:#000000; stroke-linecap:round; stroke-linejoin:round; stroke-width:4; stroke-opacity:1; fill:none" points="200.88,1364.66 219.778,1364.66 "/>
<polyline clip-path="url(#clip400)" style="stroke:#000000; stroke-linecap:round; stroke-linejoin:round; stroke-width:4; stroke-opacity:1; fill:none" points="200.88,1162.01 219.778,1162.01 "/>
<polyline clip-path="url(#clip400)" style="stroke:#000000; stroke-linecap:round; stroke-linejoin:round; stroke-width:4; stroke-opacity:1; fill:none" points="200.88,959.361 219.778,959.361 "/>
<polyline clip-path="url(#clip400)" style="stroke:#000000; stroke-linecap:round; stroke-linejoin:round; stroke-width:4; stroke-opacity:1; fill:none" points="200.88,756.714 219.778,756.714 "/>
<polyline clip-path="url(#clip400)" style="stroke:#000000; stroke-linecap:round; stroke-linejoin:round; stroke-width:4; stroke-opacity:1; fill:none" points="200.88,554.066 219.778,554.066 "/>
<polyline clip-path="url(#clip400)" style="stroke:#000000; stroke-linecap:round; stroke-linejoin:round; stroke-width:4; stroke-opacity:1; fill:none" points="200.88,351.418 219.778,351.418 "/>
<polyline clip-path="url(#clip400)" style="stroke:#000000; stroke-linecap:round; stroke-linejoin:round; stroke-width:4; stroke-opacity:1; fill:none" points="200.88,148.771 219.778,148.771 "/>
<path clip-path="url(#clip400)" d="M66.617 1363.3 Q69.9735 1364.02 71.8485 1366.29 Q73.7466 1368.56 73.7466 1371.89 Q73.7466 1377.01 70.2281 1379.81 Q66.7096 1382.61 60.2282 1382.61 Q58.0523 1382.61 55.7375 1382.17 Q53.4458 1381.75 50.9921 1380.89 L50.9921 1376.38 Q52.9366 1377.52 55.2514 1378.09 Q57.5662 1378.67 60.0893 1378.67 Q64.4874 1378.67 66.7791 1376.94 Q69.0939 1375.2 69.0939 1371.89 Q69.0939 1368.83 66.9411 1367.12 Q64.8115 1365.39 60.9921 1365.39 L56.9643 1365.39 L56.9643 1361.54 L61.1773 1361.54 Q64.6263 1361.54 66.455 1360.18 Q68.2837 1358.79 68.2837 1356.2 Q68.2837 1353.53 66.3856 1352.12 Q64.5106 1350.69 60.9921 1350.69 Q59.0708 1350.69 56.8717 1351.1 Q54.6727 1351.52 52.0338 1352.4 L52.0338 1348.23 Q54.6958 1347.49 57.0106 1347.12 Q59.3486 1346.75 61.4087 1346.75 Q66.7328 1346.75 69.8346 1349.18 Q72.9365 1351.59 72.9365 1355.71 Q72.9365 1358.58 71.2929 1360.57 Q69.6494 1362.54 66.617 1363.3 Z" fill="#000000" fill-rule="nonzero" fill-opacity="1" /><path clip-path="url(#clip400)" d="M92.6123 1365.52 Q89.279 1365.52 87.3577 1367.31 Q85.4595 1369.09 85.4595 1372.21 Q85.4595 1375.34 87.3577 1377.12 Q89.279 1378.9 92.6123 1378.9 Q95.9456 1378.9 97.8669 1377.12 Q99.7882 1375.32 99.7882 1372.21 Q99.7882 1369.09 97.8669 1367.31 Q95.9687 1365.52 92.6123 1365.52 M87.9364 1363.53 Q84.9271 1362.79 83.2373 1360.73 Q81.5707 1358.67 81.5707 1355.71 Q81.5707 1351.57 84.5105 1349.16 Q87.4734 1346.75 92.6123 1346.75 Q97.7743 1346.75 100.714 1349.16 Q103.654 1351.57 103.654 1355.71 Q103.654 1358.67 101.964 1360.73 Q100.297 1362.79 97.3113 1363.53 Q100.691 1364.32 102.566 1366.61 Q104.464 1368.9 104.464 1372.21 Q104.464 1377.24 101.385 1379.92 Q98.3298 1382.61 92.6123 1382.61 Q86.8947 1382.61 83.816 1379.92 Q80.7605 1377.24 80.7605 1372.21 Q80.7605 1368.9 82.6586 1366.61 Q84.5568 1364.32 87.9364 1363.53 M86.2234 1356.15 Q86.2234 1358.83 87.8901 1360.34 Q89.5799 1361.84 92.6123 1361.84 Q95.6215 1361.84 97.3113 1360.34 Q99.0243 1358.83 99.0243 1356.15 Q99.0243 1353.46 97.3113 1351.96 Q95.6215 1350.46 92.6123 1350.46 Q89.5799 1350.46 87.8901 1351.96 Q86.2234 1353.46 86.2234 1356.15 Z" fill="#000000" fill-rule="nonzero" fill-opacity="1" /><path clip-path="url(#clip400)" d="M111.594 1347.38 L133.816 1347.38 L133.816 1349.37 L121.27 1381.94 L116.385 1381.94 L128.191 1351.31 L111.594 1351.31 L111.594 1347.38 Z" fill="#000000" fill-rule="nonzero" fill-opacity="1" /><path clip-path="url(#clip400)" d="M152.936 1350.46 Q149.325 1350.46 147.496 1354.02 Q145.691 1357.56 145.691 1364.69 Q145.691 1371.8 147.496 1375.36 Q149.325 1378.9 152.936 1378.9 Q156.57 1378.9 158.376 1375.36 Q160.205 1371.8 160.205 1364.69 Q160.205 1357.56 158.376 1354.02 Q156.57 1350.46 152.936 1350.46 M152.936 1346.75 Q158.746 1346.75 161.802 1351.36 Q164.88 1355.94 164.88 1364.69 Q164.88 1373.42 161.802 1378.02 Q158.746 1382.61 152.936 1382.61 Q147.126 1382.61 144.047 1378.02 Q140.992 1373.42 140.992 1364.69 Q140.992 1355.94 144.047 1351.36 Q147.126 1346.75 152.936 1346.75 Z" fill="#000000" fill-rule="nonzero" fill-opacity="1" /><path clip-path="url(#clip400)" d="M66.617 1160.65 Q69.9735 1161.37 71.8485 1163.64 Q73.7466 1165.91 73.7466 1169.24 Q73.7466 1174.36 70.2281 1177.16 Q66.7096 1179.96 60.2282 1179.96 Q58.0523 1179.96 55.7375 1179.52 Q53.4458 1179.1 50.9921 1178.25 L50.9921 1173.73 Q52.9366 1174.87 55.2514 1175.45 Q57.5662 1176.03 60.0893 1176.03 Q64.4874 1176.03 66.7791 1174.29 Q69.0939 1172.55 69.0939 1169.24 Q69.0939 1166.19 66.9411 1164.47 Q64.8115 1162.74 60.9921 1162.74 L56.9643 1162.74 L56.9643 1158.9 L61.1773 1158.9 Q64.6263 1158.9 66.455 1157.53 Q68.2837 1156.14 68.2837 1153.55 Q68.2837 1150.89 66.3856 1149.47 Q64.5106 1148.04 60.9921 1148.04 Q59.0708 1148.04 56.8717 1148.46 Q54.6727 1148.87 52.0338 1149.75 L52.0338 1145.59 Q54.6958 1144.84 57.0106 1144.47 Q59.3486 1144.1 61.4087 1144.1 Q66.7328 1144.1 69.8346 1146.53 Q72.9365 1148.94 72.9365 1153.06 Q72.9365 1155.93 71.2929 1157.92 Q69.6494 1159.89 66.617 1160.65 Z" fill="#000000" fill-rule="nonzero" fill-opacity="1" /><path clip-path="url(#clip400)" d="M92.6123 1162.88 Q89.279 1162.88 87.3577 1164.66 Q85.4595 1166.44 85.4595 1169.57 Q85.4595 1172.69 87.3577 1174.47 Q89.279 1176.26 92.6123 1176.26 Q95.9456 1176.26 97.8669 1174.47 Q99.7882 1172.67 99.7882 1169.57 Q99.7882 1166.44 97.8669 1164.66 Q95.9687 1162.88 92.6123 1162.88 M87.9364 1160.89 Q84.9271 1160.15 83.2373 1158.09 Q81.5707 1156.03 81.5707 1153.06 Q81.5707 1148.92 84.5105 1146.51 Q87.4734 1144.1 92.6123 1144.1 Q97.7743 1144.1 100.714 1146.51 Q103.654 1148.92 103.654 1153.06 Q103.654 1156.03 101.964 1158.09 Q100.297 1160.15 97.3113 1160.89 Q100.691 1161.67 102.566 1163.96 Q104.464 1166.26 104.464 1169.57 Q104.464 1174.59 101.385 1177.28 Q98.3298 1179.96 92.6123 1179.96 Q86.8947 1179.96 83.816 1177.28 Q80.7605 1174.59 80.7605 1169.57 Q80.7605 1166.26 82.6586 1163.96 Q84.5568 1161.67 87.9364 1160.89 M86.2234 1153.5 Q86.2234 1156.19 87.8901 1157.69 Q89.5799 1159.2 92.6123 1159.2 Q95.6215 1159.2 97.3113 1157.69 Q99.0243 1156.19 99.0243 1153.5 Q99.0243 1150.82 97.3113 1149.31 Q95.6215 1147.81 92.6123 1147.81 Q89.5799 1147.81 87.8901 1149.31 Q86.2234 1150.82 86.2234 1153.5 Z" fill="#000000" fill-rule="nonzero" fill-opacity="1" /><path clip-path="url(#clip400)" d="M122.774 1162.88 Q119.441 1162.88 117.52 1164.66 Q115.621 1166.44 115.621 1169.57 Q115.621 1172.69 117.52 1174.47 Q119.441 1176.26 122.774 1176.26 Q126.107 1176.26 128.029 1174.47 Q129.95 1172.67 129.95 1169.57 Q129.95 1166.44 128.029 1164.66 Q126.131 1162.88 122.774 1162.88 M118.098 1160.89 Q115.089 1160.15 113.399 1158.09 Q111.733 1156.03 111.733 1153.06 Q111.733 1148.92 114.672 1146.51 Q117.635 1144.1 122.774 1144.1 Q127.936 1144.1 130.876 1146.51 Q133.816 1148.92 133.816 1153.06 Q133.816 1156.03 132.126 1158.09 Q130.459 1160.15 127.473 1160.89 Q130.853 1161.67 132.728 1163.96 Q134.626 1166.26 134.626 1169.57 Q134.626 1174.59 131.547 1177.28 Q128.492 1179.96 122.774 1179.96 Q117.057 1179.96 113.978 1177.28 Q110.922 1174.59 110.922 1169.57 Q110.922 1166.26 112.82 1163.96 Q114.719 1161.67 118.098 1160.89 M116.385 1153.5 Q116.385 1156.19 118.052 1157.69 Q119.742 1159.2 122.774 1159.2 Q125.783 1159.2 127.473 1157.69 Q129.186 1156.19 129.186 1153.5 Q129.186 1150.82 127.473 1149.31 Q125.783 1147.81 122.774 1147.81 Q119.742 1147.81 118.052 1149.31 Q116.385 1150.82 116.385 1153.5 Z" fill="#000000" fill-rule="nonzero" fill-opacity="1" /><path clip-path="url(#clip400)" d="M152.936 1147.81 Q149.325 1147.81 147.496 1151.37 Q145.691 1154.91 145.691 1162.04 Q145.691 1169.15 147.496 1172.71 Q149.325 1176.26 152.936 1176.26 Q156.57 1176.26 158.376 1172.71 Q160.205 1169.15 160.205 1162.04 Q160.205 1154.91 158.376 1151.37 Q156.57 1147.81 152.936 1147.81 M152.936 1144.1 Q158.746 1144.1 161.802 1148.71 Q164.88 1153.29 164.88 1162.04 Q164.88 1170.77 161.802 1175.38 Q158.746 1179.96 152.936 1179.96 Q147.126 1179.96 144.047 1175.38 Q140.992 1170.77 140.992 1162.04 Q140.992 1153.29 144.047 1148.71 Q147.126 1144.1 152.936 1144.1 Z" fill="#000000" fill-rule="nonzero" fill-opacity="1" /><path clip-path="url(#clip400)" d="M66.617 958.007 Q69.9735 958.725 71.8485 960.993 Q73.7466 963.262 73.7466 966.595 Q73.7466 971.711 70.2281 974.512 Q66.7096 977.313 60.2282 977.313 Q58.0523 977.313 55.7375 976.873 Q53.4458 976.456 50.9921 975.6 L50.9921 971.086 Q52.9366 972.22 55.2514 972.799 Q57.5662 973.377 60.0893 973.377 Q64.4874 973.377 66.7791 971.641 Q69.0939 969.905 69.0939 966.595 Q69.0939 963.539 66.9411 961.827 Q64.8115 960.09 60.9921 960.09 L56.9643 960.09 L56.9643 956.248 L61.1773 956.248 Q64.6263 956.248 66.455 954.882 Q68.2837 953.493 68.2837 950.901 Q68.2837 948.239 66.3856 946.827 Q64.5106 945.391 60.9921 945.391 Q59.0708 945.391 56.8717 945.808 Q54.6727 946.225 52.0338 947.104 L52.0338 942.938 Q54.6958 942.197 57.0106 941.827 Q59.3486 941.456 61.4087 941.456 Q66.7328 941.456 69.8346 943.887 Q72.9365 946.294 72.9365 950.415 Q72.9365 953.285 71.2929 955.276 Q69.6494 957.243 66.617 958.007 Z" fill="#000000" fill-rule="nonzero" fill-opacity="1" /><path clip-path="url(#clip400)" d="M92.6123 960.229 Q89.279 960.229 87.3577 962.012 Q85.4595 963.794 85.4595 966.919 Q85.4595 970.044 87.3577 971.826 Q89.279 973.609 92.6123 973.609 Q95.9456 973.609 97.8669 971.826 Q99.7882 970.021 99.7882 966.919 Q99.7882 963.794 97.8669 962.012 Q95.9687 960.229 92.6123 960.229 M87.9364 958.239 Q84.9271 957.498 83.2373 955.438 Q81.5707 953.378 81.5707 950.415 Q81.5707 946.271 84.5105 943.864 Q87.4734 941.456 92.6123 941.456 Q97.7743 941.456 100.714 943.864 Q103.654 946.271 103.654 950.415 Q103.654 953.378 101.964 955.438 Q100.297 957.498 97.3113 958.239 Q100.691 959.026 102.566 961.317 Q104.464 963.609 104.464 966.919 Q104.464 971.942 101.385 974.627 Q98.3298 977.313 92.6123 977.313 Q86.8947 977.313 83.816 974.627 Q80.7605 971.942 80.7605 966.919 Q80.7605 963.609 82.6586 961.317 Q84.5568 959.026 87.9364 958.239 M86.2234 950.854 Q86.2234 953.54 87.8901 955.044 Q89.5799 956.549 92.6123 956.549 Q95.6215 956.549 97.3113 955.044 Q99.0243 953.54 99.0243 950.854 Q99.0243 948.169 97.3113 946.665 Q95.6215 945.16 92.6123 945.16 Q89.5799 945.16 87.8901 946.665 Q86.2234 948.169 86.2234 950.854 Z" fill="#000000" fill-rule="nonzero" fill-opacity="1" /><path clip-path="url(#clip400)" d="M112.913 975.924 L112.913 971.664 Q114.672 972.498 116.478 972.938 Q118.283 973.377 120.02 973.377 Q124.649 973.377 127.08 970.276 Q129.533 967.151 129.881 960.808 Q128.538 962.799 126.478 963.864 Q124.418 964.928 121.918 964.928 Q116.733 964.928 113.7 961.803 Q110.691 958.655 110.691 953.215 Q110.691 947.891 113.839 944.674 Q116.987 941.456 122.219 941.456 Q128.214 941.456 131.362 946.063 Q134.533 950.646 134.533 959.396 Q134.533 967.567 130.644 972.451 Q126.779 977.313 120.228 977.313 Q118.469 977.313 116.663 976.965 Q114.858 976.618 112.913 975.924 M122.219 961.271 Q125.367 961.271 127.195 959.118 Q129.047 956.965 129.047 953.215 Q129.047 949.489 127.195 947.336 Q125.367 945.16 122.219 945.16 Q119.07 945.16 117.219 947.336 Q115.39 949.489 115.39 953.215 Q115.39 956.965 117.219 959.118 Q119.07 961.271 122.219 961.271 Z" fill="#000000" fill-rule="nonzero" fill-opacity="1" /><path clip-path="url(#clip400)" d="M152.936 945.16 Q149.325 945.16 147.496 948.725 Q145.691 952.266 145.691 959.396 Q145.691 966.502 147.496 970.067 Q149.325 973.609 152.936 973.609 Q156.57 973.609 158.376 970.067 Q160.205 966.502 160.205 959.396 Q160.205 952.266 158.376 948.725 Q156.57 945.16 152.936 945.16 M152.936 941.456 Q158.746 941.456 161.802 946.063 Q164.88 950.646 164.88 959.396 Q164.88 968.123 161.802 972.729 Q158.746 977.313 152.936 977.313 Q147.126 977.313 144.047 972.729 Q140.992 968.123 140.992 959.396 Q140.992 950.646 144.047 946.063 Q147.126 941.456 152.936 941.456 Z" fill="#000000" fill-rule="nonzero" fill-opacity="1" /><path clip-path="url(#clip400)" d="M66.617 755.359 Q69.9735 756.077 71.8485 758.346 Q73.7466 760.614 73.7466 763.947 Q73.7466 769.063 70.2281 771.864 Q66.7096 774.665 60.2282 774.665 Q58.0523 774.665 55.7375 774.225 Q53.4458 773.808 50.9921 772.952 L50.9921 768.438 Q52.9366 769.572 55.2514 770.151 Q57.5662 770.73 60.0893 770.73 Q64.4874 770.73 66.7791 768.994 Q69.0939 767.258 69.0939 763.947 Q69.0939 760.892 66.9411 759.179 Q64.8115 757.443 60.9921 757.443 L56.9643 757.443 L56.9643 753.6 L61.1773 753.6 Q64.6263 753.6 66.455 752.234 Q68.2837 750.846 68.2837 748.253 Q68.2837 745.591 66.3856 744.179 Q64.5106 742.744 60.9921 742.744 Q59.0708 742.744 56.8717 743.16 Q54.6727 743.577 52.0338 744.457 L52.0338 740.29 Q54.6958 739.549 57.0106 739.179 Q59.3486 738.809 61.4087 738.809 Q66.7328 738.809 69.8346 741.239 Q72.9365 743.647 72.9365 747.767 Q72.9365 750.637 71.2929 752.628 Q69.6494 754.596 66.617 755.359 Z" fill="#000000" fill-rule="nonzero" fill-opacity="1" /><path clip-path="url(#clip400)" d="M82.7512 773.276 L82.7512 769.017 Q84.5105 769.85 86.316 770.29 Q88.1216 770.73 89.8577 770.73 Q94.4873 770.73 96.9178 767.628 Q99.3715 764.503 99.7187 758.16 Q98.3761 760.151 96.316 761.216 Q94.2558 762.281 91.7558 762.281 Q86.5706 762.281 83.5382 759.156 Q80.529 756.008 80.529 750.568 Q80.529 745.244 83.6771 742.026 Q86.8253 738.809 92.0567 738.809 Q98.0521 738.809 101.2 743.415 Q104.371 747.998 104.371 756.748 Q104.371 764.92 100.483 769.804 Q96.6169 774.665 90.066 774.665 Q88.3067 774.665 86.5012 774.318 Q84.6956 773.97 82.7512 773.276 M92.0567 758.623 Q95.2049 758.623 97.0335 756.471 Q98.8854 754.318 98.8854 750.568 Q98.8854 746.841 97.0335 744.688 Q95.2049 742.512 92.0567 742.512 Q88.9086 742.512 87.0567 744.688 Q85.2281 746.841 85.2281 750.568 Q85.2281 754.318 87.0567 756.471 Q88.9086 758.623 92.0567 758.623 Z" fill="#000000" fill-rule="nonzero" fill-opacity="1" /><path clip-path="url(#clip400)" d="M122.774 742.512 Q119.163 742.512 117.334 746.077 Q115.529 749.619 115.529 756.748 Q115.529 763.855 117.334 767.42 Q119.163 770.961 122.774 770.961 Q126.408 770.961 128.214 767.42 Q130.043 763.855 130.043 756.748 Q130.043 749.619 128.214 746.077 Q126.408 742.512 122.774 742.512 M122.774 738.809 Q128.584 738.809 131.64 743.415 Q134.719 747.998 134.719 756.748 Q134.719 765.475 131.64 770.082 Q128.584 774.665 122.774 774.665 Q116.964 774.665 113.885 770.082 Q110.83 765.475 110.83 756.748 Q110.83 747.998 113.885 743.415 Q116.964 738.809 122.774 738.809 Z" fill="#000000" fill-rule="nonzero" fill-opacity="1" /><path clip-path="url(#clip400)" d="M152.936 742.512 Q149.325 742.512 147.496 746.077 Q145.691 749.619 145.691 756.748 Q145.691 763.855 147.496 767.42 Q149.325 770.961 152.936 770.961 Q156.57 770.961 158.376 767.42 Q160.205 763.855 160.205 756.748 Q160.205 749.619 158.376 746.077 Q156.57 742.512 152.936 742.512 M152.936 738.809 Q158.746 738.809 161.802 743.415 Q164.88 747.998 164.88 756.748 Q164.88 765.475 161.802 770.082 Q158.746 774.665 152.936 774.665 Q147.126 774.665 144.047 770.082 Q140.992 765.475 140.992 756.748 Q140.992 747.998 144.047 743.415 Q147.126 738.809 152.936 738.809 Z" fill="#000000" fill-rule="nonzero" fill-opacity="1" /><path clip-path="url(#clip400)" d="M66.617 552.712 Q69.9735 553.429 71.8485 555.698 Q73.7466 557.966 73.7466 561.3 Q73.7466 566.415 70.2281 569.216 Q66.7096 572.017 60.2282 572.017 Q58.0523 572.017 55.7375 571.577 Q53.4458 571.161 50.9921 570.304 L50.9921 565.79 Q52.9366 566.925 55.2514 567.503 Q57.5662 568.082 60.0893 568.082 Q64.4874 568.082 66.7791 566.346 Q69.0939 564.61 69.0939 561.3 Q69.0939 558.244 66.9411 556.531 Q64.8115 554.795 60.9921 554.795 L56.9643 554.795 L56.9643 550.953 L61.1773 550.953 Q64.6263 550.953 66.455 549.587 Q68.2837 548.198 68.2837 545.605 Q68.2837 542.943 66.3856 541.531 Q64.5106 540.096 60.9921 540.096 Q59.0708 540.096 56.8717 540.513 Q54.6727 540.929 52.0338 541.809 L52.0338 537.642 Q54.6958 536.902 57.0106 536.531 Q59.3486 536.161 61.4087 536.161 Q66.7328 536.161 69.8346 538.591 Q72.9365 540.999 72.9365 545.119 Q72.9365 547.99 71.2929 549.98 Q69.6494 551.948 66.617 552.712 Z" fill="#000000" fill-rule="nonzero" fill-opacity="1" /><path clip-path="url(#clip400)" d="M82.7512 570.628 L82.7512 566.369 Q84.5105 567.202 86.316 567.642 Q88.1216 568.082 89.8577 568.082 Q94.4873 568.082 96.9178 564.98 Q99.3715 561.855 99.7187 555.513 Q98.3761 557.503 96.316 558.568 Q94.2558 559.633 91.7558 559.633 Q86.5706 559.633 83.5382 556.508 Q80.529 553.36 80.529 547.92 Q80.529 542.596 83.6771 539.379 Q86.8253 536.161 92.0567 536.161 Q98.0521 536.161 101.2 540.767 Q104.371 545.351 104.371 554.101 Q104.371 562.272 100.483 567.156 Q96.6169 572.017 90.066 572.017 Q88.3067 572.017 86.5012 571.67 Q84.6956 571.323 82.7512 570.628 M92.0567 555.976 Q95.2049 555.976 97.0335 553.823 Q98.8854 551.67 98.8854 547.92 Q98.8854 544.193 97.0335 542.041 Q95.2049 539.865 92.0567 539.865 Q88.9086 539.865 87.0567 542.041 Q85.2281 544.193 85.2281 547.92 Q85.2281 551.67 87.0567 553.823 Q88.9086 555.976 92.0567 555.976 Z" fill="#000000" fill-rule="nonzero" fill-opacity="1" /><path clip-path="url(#clip400)" d="M113.584 567.411 L121.223 567.411 L121.223 541.045 L112.913 542.712 L112.913 538.453 L121.177 536.786 L125.853 536.786 L125.853 567.411 L133.492 567.411 L133.492 571.346 L113.584 571.346 L113.584 567.411 Z" fill="#000000" fill-rule="nonzero" fill-opacity="1" /><path clip-path="url(#clip400)" d="M152.936 539.865 Q149.325 539.865 147.496 543.429 Q145.691 546.971 145.691 554.101 Q145.691 561.207 147.496 564.772 Q149.325 568.314 152.936 568.314 Q156.57 568.314 158.376 564.772 Q160.205 561.207 160.205 554.101 Q160.205 546.971 158.376 543.429 Q156.57 539.865 152.936 539.865 M152.936 536.161 Q158.746 536.161 161.802 540.767 Q164.88 545.351 164.88 554.101 Q164.88 562.827 161.802 567.434 Q158.746 572.017 152.936 572.017 Q147.126 572.017 144.047 567.434 Q140.992 562.827 140.992 554.101 Q140.992 545.351 144.047 540.767 Q147.126 536.161 152.936 536.161 Z" fill="#000000" fill-rule="nonzero" fill-opacity="1" /><path clip-path="url(#clip400)" d="M66.617 350.064 Q69.9735 350.782 71.8485 353.05 Q73.7466 355.319 73.7466 358.652 Q73.7466 363.768 70.2281 366.569 Q66.7096 369.37 60.2282 369.37 Q58.0523 369.37 55.7375 368.93 Q53.4458 368.513 50.9921 367.657 L50.9921 363.143 Q52.9366 364.277 55.2514 364.856 Q57.5662 365.434 60.0893 365.434 Q64.4874 365.434 66.7791 363.698 Q69.0939 361.962 69.0939 358.652 Q69.0939 355.596 66.9411 353.884 Q64.8115 352.147 60.9921 352.147 L56.9643 352.147 L56.9643 348.305 L61.1773 348.305 Q64.6263 348.305 66.455 346.939 Q68.2837 345.55 68.2837 342.958 Q68.2837 340.296 66.3856 338.884 Q64.5106 337.448 60.9921 337.448 Q59.0708 337.448 56.8717 337.865 Q54.6727 338.282 52.0338 339.161 L52.0338 334.995 Q54.6958 334.254 57.0106 333.884 Q59.3486 333.513 61.4087 333.513 Q66.7328 333.513 69.8346 335.944 Q72.9365 338.351 72.9365 342.472 Q72.9365 345.342 71.2929 347.333 Q69.6494 349.3 66.617 350.064 Z" fill="#000000" fill-rule="nonzero" fill-opacity="1" /><path clip-path="url(#clip400)" d="M82.7512 367.981 L82.7512 363.721 Q84.5105 364.555 86.316 364.995 Q88.1216 365.434 89.8577 365.434 Q94.4873 365.434 96.9178 362.333 Q99.3715 359.208 99.7187 352.865 Q98.3761 354.856 96.316 355.921 Q94.2558 356.985 91.7558 356.985 Q86.5706 356.985 83.5382 353.86 Q80.529 350.712 80.529 345.272 Q80.529 339.948 83.6771 336.731 Q86.8253 333.513 92.0567 333.513 Q98.0521 333.513 101.2 338.12 Q104.371 342.703 104.371 351.453 Q104.371 359.624 100.483 364.508 Q96.6169 369.37 90.066 369.37 Q88.3067 369.37 86.5012 369.022 Q84.6956 368.675 82.7512 367.981 M92.0567 353.328 Q95.2049 353.328 97.0335 351.175 Q98.8854 349.022 98.8854 345.272 Q98.8854 341.546 97.0335 339.393 Q95.2049 337.217 92.0567 337.217 Q88.9086 337.217 87.0567 339.393 Q85.2281 341.546 85.2281 345.272 Q85.2281 349.022 87.0567 351.175 Q88.9086 353.328 92.0567 353.328 Z" fill="#000000" fill-rule="nonzero" fill-opacity="1" /><path clip-path="url(#clip400)" d="M116.802 364.763 L133.121 364.763 L133.121 368.698 L111.177 368.698 L111.177 364.763 Q113.839 362.008 118.422 357.379 Q123.029 352.726 124.209 351.384 Q126.455 348.86 127.334 347.124 Q128.237 345.365 128.237 343.675 Q128.237 340.921 126.293 339.185 Q124.371 337.448 121.27 337.448 Q119.07 337.448 116.617 338.212 Q114.186 338.976 111.408 340.527 L111.408 335.805 Q114.233 334.671 116.686 334.092 Q119.14 333.513 121.177 333.513 Q126.547 333.513 129.742 336.198 Q132.936 338.884 132.936 343.374 Q132.936 345.504 132.126 347.425 Q131.339 349.323 129.232 351.916 Q128.654 352.587 125.552 355.805 Q122.45 358.999 116.802 364.763 Z" fill="#000000" fill-rule="nonzero" fill-opacity="1" /><path clip-path="url(#clip400)" d="M152.936 337.217 Q149.325 337.217 147.496 340.782 Q145.691 344.323 145.691 351.453 Q145.691 358.559 147.496 362.124 Q149.325 365.666 152.936 365.666 Q156.57 365.666 158.376 362.124 Q160.205 358.559 160.205 351.453 Q160.205 344.323 158.376 340.782 Q156.57 337.217 152.936 337.217 M152.936 333.513 Q158.746 333.513 161.802 338.12 Q164.88 342.703 164.88 351.453 Q164.88 360.18 161.802 364.786 Q158.746 369.37 152.936 369.37 Q147.126 369.37 144.047 364.786 Q140.992 360.18 140.992 351.453 Q140.992 342.703 144.047 338.12 Q147.126 333.513 152.936 333.513 Z" fill="#000000" fill-rule="nonzero" fill-opacity="1" /><path clip-path="url(#clip400)" d="M66.617 147.416 Q69.9735 148.134 71.8485 150.403 Q73.7466 152.671 73.7466 156.004 Q73.7466 161.12 70.2281 163.921 Q66.7096 166.722 60.2282 166.722 Q58.0523 166.722 55.7375 166.282 Q53.4458 165.865 50.9921 165.009 L50.9921 160.495 Q52.9366 161.629 55.2514 162.208 Q57.5662 162.787 60.0893 162.787 Q64.4874 162.787 66.7791 161.051 Q69.0939 159.315 69.0939 156.004 Q69.0939 152.949 66.9411 151.236 Q64.8115 149.5 60.9921 149.5 L56.9643 149.5 L56.9643 145.657 L61.1773 145.657 Q64.6263 145.657 66.455 144.291 Q68.2837 142.903 68.2837 140.31 Q68.2837 137.648 66.3856 136.236 Q64.5106 134.801 60.9921 134.801 Q59.0708 134.801 56.8717 135.217 Q54.6727 135.634 52.0338 136.514 L52.0338 132.347 Q54.6958 131.606 57.0106 131.236 Q59.3486 130.866 61.4087 130.866 Q66.7328 130.866 69.8346 133.296 Q72.9365 135.704 72.9365 139.824 Q72.9365 142.694 71.2929 144.685 Q69.6494 146.653 66.617 147.416 Z" fill="#000000" fill-rule="nonzero" fill-opacity="1" /><path clip-path="url(#clip400)" d="M82.7512 165.333 L82.7512 161.074 Q84.5105 161.907 86.316 162.347 Q88.1216 162.787 89.8577 162.787 Q94.4873 162.787 96.9178 159.685 Q99.3715 156.56 99.7187 150.217 Q98.3761 152.208 96.316 153.273 Q94.2558 154.338 91.7558 154.338 Q86.5706 154.338 83.5382 151.213 Q80.529 148.065 80.529 142.625 Q80.529 137.301 83.6771 134.083 Q86.8253 130.866 92.0567 130.866 Q98.0521 130.866 101.2 135.472 Q104.371 140.055 104.371 148.805 Q104.371 156.977 100.483 161.861 Q96.6169 166.722 90.066 166.722 Q88.3067 166.722 86.5012 166.375 Q84.6956 166.027 82.7512 165.333 M92.0567 150.68 Q95.2049 150.68 97.0335 148.528 Q98.8854 146.375 98.8854 142.625 Q98.8854 138.898 97.0335 136.745 Q95.2049 134.569 92.0567 134.569 Q88.9086 134.569 87.0567 136.745 Q85.2281 138.898 85.2281 142.625 Q85.2281 146.375 87.0567 148.528 Q88.9086 150.68 92.0567 150.68 Z" fill="#000000" fill-rule="nonzero" fill-opacity="1" /><path clip-path="url(#clip400)" d="M126.941 147.416 Q130.297 148.134 132.172 150.403 Q134.07 152.671 134.07 156.004 Q134.07 161.12 130.552 163.921 Q127.033 166.722 120.552 166.722 Q118.376 166.722 116.061 166.282 Q113.77 165.865 111.316 165.009 L111.316 160.495 Q113.26 161.629 115.575 162.208 Q117.89 162.787 120.413 162.787 Q124.811 162.787 127.103 161.051 Q129.418 159.315 129.418 156.004 Q129.418 152.949 127.265 151.236 Q125.135 149.5 121.316 149.5 L117.288 149.5 L117.288 145.657 L121.501 145.657 Q124.95 145.657 126.779 144.291 Q128.607 142.903 128.607 140.31 Q128.607 137.648 126.709 136.236 Q124.834 134.801 121.316 134.801 Q119.395 134.801 117.195 135.217 Q114.996 135.634 112.358 136.514 L112.358 132.347 Q115.02 131.606 117.334 131.236 Q119.672 130.866 121.732 130.866 Q127.057 130.866 130.158 133.296 Q133.26 135.704 133.26 139.824 Q133.26 142.694 131.617 144.685 Q129.973 146.653 126.941 147.416 Z" fill="#000000" fill-rule="nonzero" fill-opacity="1" /><path clip-path="url(#clip400)" d="M152.936 134.569 Q149.325 134.569 147.496 138.134 Q145.691 141.676 145.691 148.805 Q145.691 155.912 147.496 159.477 Q149.325 163.018 152.936 163.018 Q156.57 163.018 158.376 159.477 Q160.205 155.912 160.205 148.805 Q160.205 141.676 158.376 138.134 Q156.57 134.569 152.936 134.569 M152.936 130.866 Q158.746 130.866 161.802 135.472 Q164.88 140.055 164.88 148.805 Q164.88 157.532 161.802 162.139 Q158.746 166.722 152.936 166.722 Q147.126 166.722 144.047 162.139 Q140.992 157.532 140.992 148.805 Q140.992 140.055 144.047 135.472 Q147.126 130.866 152.936 130.866 Z" fill="#000000" fill-rule="nonzero" fill-opacity="1" /><polyline clip-path="url(#clip402)" style="stroke:#009af9; stroke-linecap:round; stroke-linejoin:round; stroke-width:4; stroke-opacity:1; fill:none" points="261.783,1445.72 363.286,1405.19 464.79,1080.95 566.293,858.037 667.797,1121.48 769.3,1202.54 870.804,1141.74 972.307,1020.16 1073.81,1222.8 1175.31,1040.42 1276.82,858.037 1378.32,1182.27 1479.83,979.626 1581.33,148.771 1682.83,87.9763 1784.34,270.359 1885.84,797.243 1987.34,736.449 2088.85,655.39 2190.35,655.39 2291.85,371.683 "/>
<path clip-path="url(#clip400)" d="M272.61 198.898 L923.327 198.898 L923.327 95.2176 L272.61 95.2176  Z" fill="#ffffff" fill-rule="evenodd" fill-opacity="1"/>
<polyline clip-path="url(#clip400)" style="stroke:#000000; stroke-linecap:round; stroke-linejoin:round; stroke-width:4; stroke-opacity:1; fill:none" points="272.61,198.898 923.327,198.898 923.327,95.2176 272.61,95.2176 272.61,198.898 "/>
<polyline clip-path="url(#clip400)" style="stroke:#009af9; stroke-linecap:round; stroke-linejoin:round; stroke-width:4; stroke-opacity:1; fill:none" points="296.519,147.058 439.978,147.058 "/>
<path clip-path="url(#clip400)" d="M463.887 129.778 L485.739 129.778 L485.739 133.713 L468.563 133.713 L468.563 143.944 L485.022 143.944 L485.022 147.879 L468.563 147.879 L468.563 160.402 L486.156 160.402 L486.156 164.338 L463.887 164.338 L463.887 129.778 Z" fill="#000000" fill-rule="nonzero" fill-opacity="1" /><path clip-path="url(#clip400)" d="M513.841 143.389 Q515.438 140.518 517.66 139.153 Q519.882 137.787 522.892 137.787 Q526.943 137.787 529.142 140.634 Q531.341 143.458 531.341 148.689 L531.341 164.338 L527.058 164.338 L527.058 148.828 Q527.058 145.102 525.739 143.296 Q524.419 141.49 521.711 141.49 Q518.401 141.49 516.48 143.69 Q514.558 145.889 514.558 149.685 L514.558 164.338 L510.276 164.338 L510.276 148.828 Q510.276 145.078 508.957 143.296 Q507.637 141.49 504.883 141.49 Q501.619 141.49 499.697 143.713 Q497.776 145.912 497.776 149.685 L497.776 164.338 L493.494 164.338 L493.494 138.412 L497.776 138.412 L497.776 142.44 Q499.234 140.055 501.271 138.921 Q503.308 137.787 506.109 137.787 Q508.933 137.787 510.901 139.222 Q512.892 140.657 513.841 143.389 Z" fill="#000000" fill-rule="nonzero" fill-opacity="1" /><path clip-path="url(#clip400)" d="M543.956 160.449 L543.956 174.199 L539.674 174.199 L539.674 138.412 L543.956 138.412 L543.956 142.347 Q545.299 140.032 547.336 138.921 Q549.396 137.787 552.243 137.787 Q556.966 137.787 559.905 141.537 Q562.868 145.287 562.868 151.398 Q562.868 157.509 559.905 161.259 Q556.966 165.009 552.243 165.009 Q549.396 165.009 547.336 163.898 Q545.299 162.763 543.956 160.449 M558.447 151.398 Q558.447 146.699 556.503 144.037 Q554.581 141.352 551.202 141.352 Q547.822 141.352 545.878 144.037 Q543.956 146.699 543.956 151.398 Q543.956 156.097 545.878 158.782 Q547.822 161.444 551.202 161.444 Q554.581 161.444 556.503 158.782 Q558.447 156.097 558.447 151.398 Z" fill="#000000" fill-rule="nonzero" fill-opacity="1" /><path clip-path="url(#clip400)" d="M569.929 128.319 L574.188 128.319 L574.188 164.338 L569.929 164.338 L569.929 128.319 Z" fill="#000000" fill-rule="nonzero" fill-opacity="1" /><path clip-path="url(#clip400)" d="M593.146 141.398 Q589.72 141.398 587.729 144.083 Q585.739 146.745 585.739 151.398 Q585.739 156.051 587.706 158.736 Q589.697 161.398 593.146 161.398 Q596.549 161.398 598.539 158.713 Q600.53 156.027 600.53 151.398 Q600.53 146.791 598.539 144.106 Q596.549 141.398 593.146 141.398 M593.146 137.787 Q598.702 137.787 601.873 141.398 Q605.044 145.009 605.044 151.398 Q605.044 157.764 601.873 161.398 Q598.702 165.009 593.146 165.009 Q587.567 165.009 584.396 161.398 Q581.248 157.764 581.248 151.398 Q581.248 145.009 584.396 141.398 Q587.567 137.787 593.146 137.787 Z" fill="#000000" fill-rule="nonzero" fill-opacity="1" /><path clip-path="url(#clip400)" d="M622.891 166.745 Q621.086 171.375 619.373 172.787 Q617.66 174.199 614.789 174.199 L611.387 174.199 L611.387 170.634 L613.887 170.634 Q615.646 170.634 616.618 169.8 Q617.59 168.967 618.771 165.865 L619.535 163.921 L609.049 138.412 L613.563 138.412 L621.664 158.689 L629.766 138.412 L634.28 138.412 L622.891 166.745 Z" fill="#000000" fill-rule="nonzero" fill-opacity="1" /><path clip-path="url(#clip400)" d="M662.335 150.31 L662.335 152.393 L642.752 152.393 Q643.03 156.791 645.391 159.106 Q647.775 161.398 652.011 161.398 Q654.465 161.398 656.757 160.796 Q659.072 160.194 661.34 158.99 L661.34 163.018 Q659.048 163.99 656.641 164.5 Q654.234 165.009 651.757 165.009 Q645.553 165.009 641.919 161.398 Q638.308 157.787 638.308 151.629 Q638.308 145.264 641.734 141.537 Q645.183 137.787 651.016 137.787 Q656.247 137.787 659.28 141.166 Q662.335 144.523 662.335 150.31 M658.076 149.06 Q658.03 145.565 656.109 143.481 Q654.21 141.398 651.062 141.398 Q647.498 141.398 645.345 143.412 Q643.215 145.426 642.891 149.083 L658.076 149.06 Z" fill="#000000" fill-rule="nonzero" fill-opacity="1" /><path clip-path="url(#clip400)" d="M686.386 142.347 L686.386 128.319 L690.645 128.319 L690.645 164.338 L686.386 164.338 L686.386 160.449 Q685.044 162.763 682.983 163.898 Q680.946 165.009 678.076 165.009 Q673.377 165.009 670.414 161.259 Q667.474 157.509 667.474 151.398 Q667.474 145.287 670.414 141.537 Q673.377 137.787 678.076 137.787 Q680.946 137.787 682.983 138.921 Q685.044 140.032 686.386 142.347 M671.872 151.398 Q671.872 156.097 673.794 158.782 Q675.738 161.444 679.118 161.444 Q682.497 161.444 684.442 158.782 Q686.386 156.097 686.386 151.398 Q686.386 146.699 684.442 144.037 Q682.497 141.352 679.118 141.352 Q675.738 141.352 673.794 144.037 Q671.872 146.699 671.872 151.398 Z" fill="#000000" fill-rule="nonzero" fill-opacity="1" /><path clip-path="url(#clip400)" d="M711.594 129.778 L716.317 129.778 L723.585 158.99 L730.83 129.778 L736.085 129.778 L743.354 158.99 L750.599 129.778 L755.344 129.778 L746.664 164.338 L740.784 164.338 L733.492 134.338 L726.131 164.338 L720.252 164.338 L711.594 129.778 Z" fill="#000000" fill-rule="nonzero" fill-opacity="1" /><path clip-path="url(#clip400)" d="M768.631 141.398 Q765.205 141.398 763.215 144.083 Q761.224 146.745 761.224 151.398 Q761.224 156.051 763.191 158.736 Q765.182 161.398 768.631 161.398 Q772.034 161.398 774.025 158.713 Q776.015 156.027 776.015 151.398 Q776.015 146.791 774.025 144.106 Q772.034 141.398 768.631 141.398 M768.631 137.787 Q774.187 137.787 777.358 141.398 Q780.529 145.009 780.529 151.398 Q780.529 157.764 777.358 161.398 Q774.187 165.009 768.631 165.009 Q763.052 165.009 759.881 161.398 Q756.733 157.764 756.733 151.398 Q756.733 145.009 759.881 141.398 Q763.052 137.787 768.631 137.787 Z" fill="#000000" fill-rule="nonzero" fill-opacity="1" /><path clip-path="url(#clip400)" d="M802.612 142.393 Q801.895 141.977 801.038 141.791 Q800.205 141.583 799.187 141.583 Q795.575 141.583 793.631 143.944 Q791.71 146.282 791.71 150.68 L791.71 164.338 L787.427 164.338 L787.427 138.412 L791.71 138.412 L791.71 142.44 Q793.052 140.078 795.205 138.944 Q797.358 137.787 800.437 137.787 Q800.876 137.787 801.409 137.856 Q801.941 137.903 802.589 138.018 L802.612 142.393 Z" fill="#000000" fill-rule="nonzero" fill-opacity="1" /><path clip-path="url(#clip400)" d="M806.918 128.319 L811.2 128.319 L811.2 149.592 L823.909 138.412 L829.348 138.412 L815.598 150.541 L829.927 164.338 L824.372 164.338 L811.2 151.676 L811.2 164.338 L806.918 164.338 L806.918 128.319 Z" fill="#000000" fill-rule="nonzero" fill-opacity="1" /><path clip-path="url(#clip400)" d="M855.02 150.31 L855.02 152.393 L835.436 152.393 Q835.714 156.791 838.075 159.106 Q840.459 161.398 844.696 161.398 Q847.149 161.398 849.441 160.796 Q851.756 160.194 854.024 158.99 L854.024 163.018 Q851.733 163.99 849.325 164.5 Q846.918 165.009 844.441 165.009 Q838.237 165.009 834.603 161.398 Q830.992 157.787 830.992 151.629 Q830.992 145.264 834.418 141.537 Q837.867 137.787 843.7 137.787 Q848.932 137.787 851.964 141.166 Q855.02 144.523 855.02 150.31 M850.76 149.06 Q850.714 145.565 848.793 143.481 Q846.895 141.398 843.746 141.398 Q840.182 141.398 838.029 143.412 Q835.899 145.426 835.575 149.083 L850.76 149.06 Z" fill="#000000" fill-rule="nonzero" fill-opacity="1" /><path clip-path="url(#clip400)" d="M877.033 142.393 Q876.316 141.977 875.459 141.791 Q874.626 141.583 873.607 141.583 Q869.996 141.583 868.052 143.944 Q866.131 146.282 866.131 150.68 L866.131 164.338 L861.848 164.338 L861.848 138.412 L866.131 138.412 L866.131 142.44 Q867.473 140.078 869.626 138.944 Q871.779 137.787 874.857 137.787 Q875.297 137.787 875.83 137.856 Q876.362 137.903 877.01 138.018 L877.033 142.393 Z" fill="#000000" fill-rule="nonzero" fill-opacity="1" /><path clip-path="url(#clip400)" d="M898.029 139.176 L898.029 143.203 Q896.223 142.277 894.279 141.815 Q892.334 141.352 890.251 141.352 Q887.08 141.352 885.482 142.324 Q883.908 143.296 883.908 145.24 Q883.908 146.722 885.043 147.578 Q886.177 148.412 889.603 149.176 L891.061 149.5 Q895.598 150.472 897.496 152.254 Q899.417 154.014 899.417 157.185 Q899.417 160.796 896.547 162.902 Q893.7 165.009 888.7 165.009 Q886.617 165.009 884.348 164.592 Q882.103 164.199 879.603 163.388 L879.603 158.99 Q881.964 160.217 884.256 160.842 Q886.547 161.444 888.793 161.444 Q891.802 161.444 893.422 160.426 Q895.043 159.384 895.043 157.509 Q895.043 155.773 893.862 154.847 Q892.705 153.921 888.746 153.064 L887.265 152.717 Q883.306 151.884 881.547 150.171 Q879.788 148.435 879.788 145.426 Q879.788 141.768 882.381 139.778 Q884.973 137.787 889.742 137.787 Q892.103 137.787 894.186 138.134 Q896.269 138.481 898.029 139.176 Z" fill="#000000" fill-rule="nonzero" fill-opacity="1" /></svg>
