<?xml version="1.0" encoding="utf-8"?>
<svg xmlns="http://www.w3.org/2000/svg" xmlns:xlink="http://www.w3.org/1999/xlink" width="600" height="400" viewBox="0 0 2400 1600">
<defs>
  <clipPath id="clip110">
    <rect x="0" y="0" width="2400" height="1600"/>
  </clipPath>
</defs>
<path clip-path="url(#clip110)" d="M0 1600 L2400 1600 L2400 0 L0 0  Z" fill="#ffffff" fill-rule="evenodd" fill-opacity="1"/>
<defs>
  <clipPath id="clip111">
    <rect x="480" y="0" width="1681" height="1600"/>
  </clipPath>
</defs>
<path clip-path="url(#clip110)" d="M200.88 1486.45 L2352.76 1486.45 L2352.76 47.2441 L200.88 47.2441  Z" fill="#ffffff" fill-rule="evenodd" fill-opacity="1"/>
<defs>
  <clipPath id="clip112">
    <rect x="200" y="47" width="2153" height="1440"/>
  </clipPath>
</defs>
<polyline clip-path="url(#clip112)" style="stroke:#000000; stroke-linecap:round; stroke-linejoin:round; stroke-width:2; stroke-opacity:0.1; fill:none" points="667.797,1486.45 667.797,47.2441 "/>
<polyline clip-path="url(#clip112)" style="stroke:#000000; stroke-linecap:round; stroke-linejoin:round; stroke-width:2; stroke-opacity:0.1; fill:none" points="1175.31,1486.45 1175.31,47.2441 "/>
<polyline clip-path="url(#clip112)" style="stroke:#000000; stroke-linecap:round; stroke-linejoin:round; stroke-width:2; stroke-opacity:0.1; fill:none" points="1682.83,1486.45 1682.83,47.2441 "/>
<polyline clip-path="url(#clip112)" style="stroke:#000000; stroke-linecap:round; stroke-linejoin:round; stroke-width:2; stroke-opacity:0.1; fill:none" points="2190.35,1486.45 2190.35,47.2441 "/>
<polyline clip-path="url(#clip112)" style="stroke:#000000; stroke-linecap:round; stroke-linejoin:round; stroke-width:2; stroke-opacity:0.1; fill:none" points="200.88,1369.22 2352.76,1369.22 "/>
<polyline clip-path="url(#clip112)" style="stroke:#000000; stroke-linecap:round; stroke-linejoin:round; stroke-width:2; stroke-opacity:0.1; fill:none" points="200.88,1177.99 2352.76,1177.99 "/>
<polyline clip-path="url(#clip112)" style="stroke:#000000; stroke-linecap:round; stroke-linejoin:round; stroke-width:2; stroke-opacity:0.1; fill:none" points="200.88,986.762 2352.76,986.762 "/>
<polyline clip-path="url(#clip112)" style="stroke:#000000; stroke-linecap:round; stroke-linejoin:round; stroke-width:2; stroke-opacity:0.1; fill:none" points="200.88,795.531 2352.76,795.531 "/>
<polyline clip-path="url(#clip112)" style="stroke:#000000; stroke-linecap:round; stroke-linejoin:round; stroke-width:2; stroke-opacity:0.1; fill:none" points="200.88,604.3 2352.76,604.3 "/>
<polyline clip-path="url(#clip112)" style="stroke:#000000; stroke-linecap:round; stroke-linejoin:round; stroke-width:2; stroke-opacity:0.1; fill:none" points="200.88,413.069 2352.76,413.069 "/>
<polyline clip-path="url(#clip112)" style="stroke:#000000; stroke-linecap:round; stroke-linejoin:round; stroke-width:2; stroke-opacity:0.1; fill:none" points="200.88,221.838 2352.76,221.838 "/>
<polyline clip-path="url(#clip110)" style="stroke:#000000; stroke-linecap:round; stroke-linejoin:round; stroke-width:4; stroke-opacity:1; fill:none" points="200.88,1486.45 2352.76,1486.45 "/>
<polyline clip-path="url(#clip110)" style="stroke:#000000; stroke-linecap:round; stroke-linejoin:round; stroke-width:4; stroke-opacity:1; fill:none" points="667.797,1486.45 667.797,1467.55 "/>
<polyline clip-path="url(#clip110)" style="stroke:#000000; stroke-linecap:round; stroke-linejoin:round; stroke-width:4; stroke-opacity:1; fill:none" points="1175.31,1486.45 1175.31,1467.55 "/>
<polyline clip-path="url(#clip110)" style="stroke:#000000; stroke-linecap:round; stroke-linejoin:round; stroke-width:4; stroke-opacity:1; fill:none" points="1682.83,1486.45 1682.83,1467.55 "/>
<polyline clip-path="url(#clip110)" style="stroke:#000000; stroke-linecap:round; stroke-linejoin:round; stroke-width:4; stroke-opacity:1; fill:none" points="2190.35,1486.45 2190.35,1467.55 "/>
<path clip-path="url(#clip110)" d="M658.075 1514.29 L676.431 1514.29 L676.431 1518.22 L662.357 1518.22 L662.357 1526.7 Q663.376 1526.35 664.394 1526.19 Q665.413 1526 666.431 1526 Q672.218 1526 675.598 1529.17 Q678.977 1532.34 678.977 1537.76 Q678.977 1543.34 675.505 1546.44 Q672.033 1549.52 665.713 1549.52 Q663.538 1549.52 661.269 1549.15 Q659.024 1548.78 656.616 1548.04 L656.616 1543.34 Q658.7 1544.47 660.922 1545.03 Q663.144 1545.58 665.621 1545.58 Q669.625 1545.58 671.963 1543.48 Q674.301 1541.37 674.301 1537.76 Q674.301 1534.15 671.963 1532.04 Q669.625 1529.94 665.621 1529.94 Q663.746 1529.94 661.871 1530.35 Q660.019 1530.77 658.075 1531.65 L658.075 1514.29 Z" fill="#000000" fill-rule="nonzero" fill-opacity="1" /><path clip-path="url(#clip110)" d="M1150 1544.91 L1157.64 1544.91 L1157.64 1518.55 L1149.33 1520.21 L1149.33 1515.95 L1157.59 1514.29 L1162.27 1514.29 L1162.27 1544.91 L1169.91 1544.91 L1169.91 1548.85 L1150 1548.85 L1150 1544.91 Z" fill="#000000" fill-rule="nonzero" fill-opacity="1" /><path clip-path="url(#clip110)" d="M1189.35 1517.37 Q1185.74 1517.37 1183.91 1520.93 Q1182.11 1524.47 1182.11 1531.6 Q1182.11 1538.71 1183.91 1542.27 Q1185.74 1545.82 1189.35 1545.82 Q1192.99 1545.82 1194.79 1542.27 Q1196.62 1538.71 1196.62 1531.6 Q1196.62 1524.47 1194.79 1520.93 Q1192.99 1517.37 1189.35 1517.37 M1189.35 1513.66 Q1195.16 1513.66 1198.22 1518.27 Q1201.3 1522.85 1201.3 1531.6 Q1201.3 1540.33 1198.22 1544.94 Q1195.16 1549.52 1189.35 1549.52 Q1183.54 1549.52 1180.47 1544.94 Q1177.41 1540.33 1177.41 1531.6 Q1177.41 1522.85 1180.47 1518.27 Q1183.54 1513.66 1189.35 1513.66 Z" fill="#000000" fill-rule="nonzero" fill-opacity="1" /><path clip-path="url(#clip110)" d="M1658.02 1544.91 L1665.66 1544.91 L1665.66 1518.55 L1657.35 1520.21 L1657.35 1515.95 L1665.61 1514.29 L1670.29 1514.29 L1670.29 1544.91 L1677.93 1544.91 L1677.93 1548.85 L1658.02 1548.85 L1658.02 1544.91 Z" fill="#000000" fill-rule="nonzero" fill-opacity="1" /><path clip-path="url(#clip110)" d="M1687.42 1514.29 L1705.77 1514.29 L1705.77 1518.22 L1691.7 1518.22 L1691.7 1526.7 Q1692.72 1526.35 1693.74 1526.19 Q1694.75 1526 1695.77 1526 Q1701.56 1526 1704.94 1529.17 Q1708.32 1532.34 1708.32 1537.76 Q1708.32 1543.34 1704.85 1546.44 Q1701.37 1549.52 1695.05 1549.52 Q1692.88 1549.52 1690.61 1549.15 Q1688.36 1548.78 1685.96 1548.04 L1685.96 1543.34 Q1688.04 1544.47 1690.26 1545.03 Q1692.49 1545.58 1694.96 1545.58 Q1698.97 1545.58 1701.3 1543.48 Q1703.64 1541.37 1703.64 1537.76 Q1703.64 1534.15 1701.3 1532.04 Q1698.97 1529.94 1694.96 1529.94 Q1693.09 1529.94 1691.21 1530.35 Q1689.36 1530.77 1687.42 1531.65 L1687.42 1514.29 Z" fill="#000000" fill-rule="nonzero" fill-opacity="1" /><path clip-path="url(#clip110)" d="M2169.12 1544.91 L2185.44 1544.91 L2185.44 1548.85 L2163.5 1548.85 L2163.5 1544.91 Q2166.16 1542.16 2170.74 1537.53 Q2175.35 1532.88 2176.53 1531.53 Q2178.78 1529.01 2179.66 1527.27 Q2180.56 1525.51 2180.56 1523.82 Q2180.56 1521.07 2178.61 1519.33 Q2176.69 1517.6 2173.59 1517.6 Q2171.39 1517.6 2168.94 1518.36 Q2166.51 1519.13 2163.73 1520.68 L2163.73 1515.95 Q2166.55 1514.82 2169.01 1514.24 Q2171.46 1513.66 2173.5 1513.66 Q2178.87 1513.66 2182.06 1516.35 Q2185.26 1519.03 2185.26 1523.52 Q2185.26 1525.65 2184.45 1527.57 Q2183.66 1529.47 2181.55 1532.07 Q2180.98 1532.74 2177.87 1535.95 Q2174.77 1539.15 2169.12 1544.91 Z" fill="#000000" fill-rule="nonzero" fill-opacity="1" /><path clip-path="url(#clip110)" d="M2205.26 1517.37 Q2201.65 1517.37 2199.82 1520.93 Q2198.01 1524.47 2198.01 1531.6 Q2198.01 1538.71 2199.82 1542.27 Q2201.65 1545.82 2205.26 1545.82 Q2208.89 1545.82 2210.7 1542.27 Q2212.53 1538.71 2212.53 1531.6 Q2212.53 1524.47 2210.7 1520.93 Q2208.89 1517.37 2205.26 1517.37 M2205.26 1513.66 Q2211.07 1513.66 2214.12 1518.27 Q2217.2 1522.85 2217.2 1531.6 Q2217.2 1540.33 2214.12 1544.94 Q2211.07 1549.52 2205.26 1549.52 Q2199.45 1549.52 2196.37 1544.94 Q2193.31 1540.33 2193.31 1531.6 Q2193.31 1522.85 2196.37 1518.27 Q2199.45 1513.66 2205.26 1513.66 Z" fill="#000000" fill-rule="nonzero" fill-opacity="1" /><polyline clip-path="url(#clip110)" style="stroke:#000000; stroke-linecap:round; stroke-linejoin:round; stroke-width:4; stroke-opacity:1; fill:none" points="200.88,1486.45 200.88,47.2441 "/>
<polyline clip-path="url(#clip110)" style="stroke:#000000; stroke-linecap:round; stroke-linejoin:round; stroke-width:4; stroke-opacity:1; fill:none" points="200.88,1369.22 219.778,1369.22 "/>
<polyline clip-path="url(#clip110)" style="stroke:#000000; stroke-linecap:round; stroke-linejoin:round; stroke-width:4; stroke-opacity:1; fill:none" points="200.88,1177.99 219.778,1177.99 "/>
<polyline clip-path="url(#clip110)" style="stroke:#000000; stroke-linecap:round; stroke-linejoin:round; stroke-width:4; stroke-opacity:1; fill:none" points="200.88,986.762 219.778,986.762 "/>
<polyline clip-path="url(#clip110)" style="stroke:#000000; stroke-linecap:round; stroke-linejoin:round; stroke-width:4; stroke-opacity:1; fill:none" points="200.88,795.531 219.778,795.531 "/>
<polyline clip-path="url(#clip110)" style="stroke:#000000; stroke-linecap:round; stroke-linejoin:round; stroke-width:4; stroke-opacity:1; fill:none" points="200.88,604.3 219.778,604.3 "/>
<polyline clip-path="url(#clip110)" style="stroke:#000000; stroke-linecap:round; stroke-linejoin:round; stroke-width:4; stroke-opacity:1; fill:none" points="200.88,413.069 219.778,413.069 "/>
<polyline clip-path="url(#clip110)" style="stroke:#000000; stroke-linecap:round; stroke-linejoin:round; stroke-width:4; stroke-opacity:1; fill:none" points="200.88,221.838 219.778,221.838 "/>
<path clip-path="url(#clip110)" d="M66.617 1367.87 Q69.9735 1368.59 71.8485 1370.86 Q73.7466 1373.12 73.7466 1376.46 Q73.7466 1381.57 70.2281 1384.37 Q66.7096 1387.17 60.2282 1387.17 Q58.0523 1387.17 55.7375 1386.73 Q53.4458 1386.32 50.9921 1385.46 L50.9921 1380.95 Q52.9366 1382.08 55.2514 1382.66 Q57.5662 1383.24 60.0893 1383.24 Q64.4874 1383.24 66.7791 1381.5 Q69.0939 1379.77 69.0939 1376.46 Q69.0939 1373.4 66.9411 1371.69 Q64.8115 1369.95 60.9921 1369.95 L56.9643 1369.95 L56.9643 1366.11 L61.1773 1366.11 Q64.6263 1366.11 66.455 1364.74 Q68.2837 1363.36 68.2837 1360.76 Q68.2837 1358.1 66.3856 1356.69 Q64.5106 1355.25 60.9921 1355.25 Q59.0708 1355.25 56.8717 1355.67 Q54.6727 1356.09 52.0338 1356.97 L52.0338 1352.8 Q54.6958 1352.06 57.0106 1351.69 Q59.3486 1351.32 61.4087 1351.32 Q66.7328 1351.32 69.8346 1353.75 Q72.9365 1356.16 72.9365 1360.28 Q72.9365 1363.15 71.2929 1365.14 Q69.6494 1367.11 66.617 1367.87 Z" fill="#000000" fill-rule="nonzero" fill-opacity="1" /><path clip-path="url(#clip110)" d="M92.6123 1370.09 Q89.279 1370.09 87.3577 1371.87 Q85.4595 1373.66 85.4595 1376.78 Q85.4595 1379.91 87.3577 1381.69 Q89.279 1383.47 92.6123 1383.47 Q95.9456 1383.47 97.8669 1381.69 Q99.7882 1379.88 99.7882 1376.78 Q99.7882 1373.66 97.8669 1371.87 Q95.9687 1370.09 92.6123 1370.09 M87.9364 1368.1 Q84.9271 1367.36 83.2373 1365.3 Q81.5707 1363.24 81.5707 1360.28 Q81.5707 1356.13 84.5105 1353.73 Q87.4734 1351.32 92.6123 1351.32 Q97.7743 1351.32 100.714 1353.73 Q103.654 1356.13 103.654 1360.28 Q103.654 1363.24 101.964 1365.3 Q100.297 1367.36 97.3113 1368.1 Q100.691 1368.89 102.566 1371.18 Q104.464 1373.47 104.464 1376.78 Q104.464 1381.8 101.385 1384.49 Q98.3298 1387.17 92.6123 1387.17 Q86.8947 1387.17 83.816 1384.49 Q80.7605 1381.8 80.7605 1376.78 Q80.7605 1373.47 82.6586 1371.18 Q84.5568 1368.89 87.9364 1368.1 M86.2234 1360.72 Q86.2234 1363.4 87.8901 1364.91 Q89.5799 1366.41 92.6123 1366.41 Q95.6215 1366.41 97.3113 1364.91 Q99.0243 1363.4 99.0243 1360.72 Q99.0243 1358.03 97.3113 1356.53 Q95.6215 1355.02 92.6123 1355.02 Q89.5799 1355.02 87.8901 1356.53 Q86.2234 1358.03 86.2234 1360.72 Z" fill="#000000" fill-rule="nonzero" fill-opacity="1" /><path clip-path="url(#clip110)" d="M112.82 1351.94 L131.177 1351.94 L131.177 1355.88 L117.103 1355.88 L117.103 1364.35 Q118.121 1364 119.14 1363.84 Q120.158 1363.66 121.177 1363.66 Q126.964 1363.66 130.344 1366.83 Q133.723 1370 133.723 1375.42 Q133.723 1380.99 130.251 1384.1 Q126.779 1387.17 120.459 1387.17 Q118.283 1387.17 116.015 1386.8 Q113.77 1386.43 111.362 1385.69 L111.362 1380.99 Q113.445 1382.13 115.668 1382.68 Q117.89 1383.24 120.367 1383.24 Q124.371 1383.24 126.709 1381.13 Q129.047 1379.03 129.047 1375.42 Q129.047 1371.8 126.709 1369.7 Q124.371 1367.59 120.367 1367.59 Q118.492 1367.59 116.617 1368.01 Q114.765 1368.42 112.82 1369.3 L112.82 1351.94 Z" fill="#000000" fill-rule="nonzero" fill-opacity="1" /><path clip-path="url(#clip110)" d="M152.936 1355.02 Q149.325 1355.02 147.496 1358.59 Q145.691 1362.13 145.691 1369.26 Q145.691 1376.36 147.496 1379.93 Q149.325 1383.47 152.936 1383.47 Q156.57 1383.47 158.376 1379.93 Q160.205 1376.36 160.205 1369.26 Q160.205 1362.13 158.376 1358.59 Q156.57 1355.02 152.936 1355.02 M152.936 1351.32 Q158.746 1351.32 161.802 1355.92 Q164.88 1360.51 164.88 1369.26 Q164.88 1377.98 161.802 1382.59 Q158.746 1387.17 152.936 1387.17 Q147.126 1387.17 144.047 1382.59 Q140.992 1377.98 140.992 1369.26 Q140.992 1360.51 144.047 1355.92 Q147.126 1351.32 152.936 1351.32 Z" fill="#000000" fill-rule="nonzero" fill-opacity="1" /><path clip-path="url(#clip110)" d="M66.617 1176.64 Q69.9735 1177.36 71.8485 1179.62 Q73.7466 1181.89 73.7466 1185.23 Q73.7466 1190.34 70.2281 1193.14 Q66.7096 1195.94 60.2282 1195.94 Q58.0523 1195.94 55.7375 1195.5 Q53.4458 1195.09 50.9921 1194.23 L50.9921 1189.72 Q52.9366 1190.85 55.2514 1191.43 Q57.5662 1192.01 60.0893 1192.01 Q64.4874 1192.01 66.7791 1190.27 Q69.0939 1188.54 69.0939 1185.23 Q69.0939 1182.17 66.9411 1180.46 Q64.8115 1178.72 60.9921 1178.72 L56.9643 1178.72 L56.9643 1174.88 L61.1773 1174.88 Q64.6263 1174.88 66.455 1173.51 Q68.2837 1172.12 68.2837 1169.53 Q68.2837 1166.87 66.3856 1165.46 Q64.5106 1164.02 60.9921 1164.02 Q59.0708 1164.02 56.8717 1164.44 Q54.6727 1164.86 52.0338 1165.74 L52.0338 1161.57 Q54.6958 1160.83 57.0106 1160.46 Q59.3486 1160.09 61.4087 1160.09 Q66.7328 1160.09 69.8346 1162.52 Q72.9365 1164.93 72.9365 1169.05 Q72.9365 1171.92 71.2929 1173.91 Q69.6494 1175.87 66.617 1176.64 Z" fill="#000000" fill-rule="nonzero" fill-opacity="1" /><path clip-path="url(#clip110)" d="M92.6123 1178.86 Q89.279 1178.86 87.3577 1180.64 Q85.4595 1182.43 85.4595 1185.55 Q85.4595 1188.68 87.3577 1190.46 Q89.279 1192.24 92.6123 1192.24 Q95.9456 1192.24 97.8669 1190.46 Q99.7882 1188.65 99.7882 1185.55 Q99.7882 1182.43 97.8669 1180.64 Q95.9687 1178.86 92.6123 1178.86 M87.9364 1176.87 Q84.9271 1176.13 83.2373 1174.07 Q81.5707 1172.01 81.5707 1169.05 Q81.5707 1164.9 84.5105 1162.49 Q87.4734 1160.09 92.6123 1160.09 Q97.7743 1160.09 100.714 1162.49 Q103.654 1164.9 103.654 1169.05 Q103.654 1172.01 101.964 1174.07 Q100.297 1176.13 97.3113 1176.87 Q100.691 1177.66 102.566 1179.95 Q104.464 1182.24 104.464 1185.55 Q104.464 1190.57 101.385 1193.26 Q98.3298 1195.94 92.6123 1195.94 Q86.8947 1195.94 83.816 1193.26 Q80.7605 1190.57 80.7605 1185.55 Q80.7605 1182.24 82.6586 1179.95 Q84.5568 1177.66 87.9364 1176.87 M86.2234 1169.49 Q86.2234 1172.17 87.8901 1173.68 Q89.5799 1175.18 92.6123 1175.18 Q95.6215 1175.18 97.3113 1173.68 Q99.0243 1172.17 99.0243 1169.49 Q99.0243 1166.8 97.3113 1165.3 Q95.6215 1163.79 92.6123 1163.79 Q89.5799 1163.79 87.8901 1165.3 Q86.2234 1166.8 86.2234 1169.49 Z" fill="#000000" fill-rule="nonzero" fill-opacity="1" /><path clip-path="url(#clip110)" d="M123.353 1176.13 Q120.205 1176.13 118.353 1178.28 Q116.524 1180.43 116.524 1184.18 Q116.524 1187.91 118.353 1190.09 Q120.205 1192.24 123.353 1192.24 Q126.501 1192.24 128.33 1190.09 Q130.182 1187.91 130.182 1184.18 Q130.182 1180.43 128.33 1178.28 Q126.501 1176.13 123.353 1176.13 M132.635 1161.48 L132.635 1165.74 Q130.876 1164.9 129.07 1164.46 Q127.288 1164.02 125.529 1164.02 Q120.899 1164.02 118.445 1167.15 Q116.015 1170.27 115.668 1176.59 Q117.033 1174.58 119.094 1173.51 Q121.154 1172.43 123.631 1172.43 Q128.839 1172.43 131.848 1175.6 Q134.881 1178.74 134.881 1184.18 Q134.881 1189.51 131.732 1192.73 Q128.584 1195.94 123.353 1195.94 Q117.358 1195.94 114.186 1191.36 Q111.015 1186.75 111.015 1178.03 Q111.015 1169.83 114.904 1164.97 Q118.793 1160.09 125.344 1160.09 Q127.103 1160.09 128.885 1160.43 Q130.691 1160.78 132.635 1161.48 Z" fill="#000000" fill-rule="nonzero" fill-opacity="1" /><path clip-path="url(#clip110)" d="M152.936 1163.79 Q149.325 1163.79 147.496 1167.36 Q145.691 1170.9 145.691 1178.03 Q145.691 1185.13 147.496 1188.7 Q149.325 1192.24 152.936 1192.24 Q156.57 1192.24 158.376 1188.7 Q160.205 1185.13 160.205 1178.03 Q160.205 1170.9 158.376 1167.36 Q156.57 1163.79 152.936 1163.79 M152.936 1160.09 Q158.746 1160.09 161.802 1164.69 Q164.88 1169.28 164.88 1178.03 Q164.88 1186.75 161.802 1191.36 Q158.746 1195.94 152.936 1195.94 Q147.126 1195.94 144.047 1191.36 Q140.992 1186.75 140.992 1178.03 Q140.992 1169.28 144.047 1164.69 Q147.126 1160.09 152.936 1160.09 Z" fill="#000000" fill-rule="nonzero" fill-opacity="1" /><path clip-path="url(#clip110)" d="M66.617 985.407 Q69.9735 986.125 71.8485 988.393 Q73.7466 990.662 73.7466 993.995 Q73.7466 999.111 70.2281 1001.91 Q66.7096 1004.71 60.2282 1004.71 Q58.0523 1004.71 55.7375 1004.27 Q53.4458 1003.86 50.9921 1003 L50.9921 998.486 Q52.9366 999.62 55.2514 1000.2 Q57.5662 1000.78 60.0893 1000.78 Q64.4874 1000.78 66.7791 999.042 Q69.0939 997.305 69.0939 993.995 Q69.0939 990.94 66.9411 989.227 Q64.8115 987.491 60.9921 987.491 L56.9643 987.491 L56.9643 983.648 L61.1773 983.648 Q64.6263 983.648 66.455 982.282 Q68.2837 980.893 68.2837 978.301 Q68.2837 975.639 66.3856 974.227 Q64.5106 972.792 60.9921 972.792 Q59.0708 972.792 56.8717 973.208 Q54.6727 973.625 52.0338 974.505 L52.0338 970.338 Q54.6958 969.597 57.0106 969.227 Q59.3486 968.857 61.4087 968.857 Q66.7328 968.857 69.8346 971.287 Q72.9365 973.694 72.9365 977.815 Q72.9365 980.685 71.2929 982.676 Q69.6494 984.643 66.617 985.407 Z" fill="#000000" fill-rule="nonzero" fill-opacity="1" /><path clip-path="url(#clip110)" d="M92.6123 987.63 Q89.279 987.63 87.3577 989.412 Q85.4595 991.194 85.4595 994.319 Q85.4595 997.444 87.3577 999.227 Q89.279 1001.01 92.6123 1001.01 Q95.9456 1001.01 97.8669 999.227 Q99.7882 997.421 99.7882 994.319 Q99.7882 991.194 97.8669 989.412 Q95.9687 987.63 92.6123 987.63 M87.9364 985.639 Q84.9271 984.898 83.2373 982.838 Q81.5707 980.778 81.5707 977.815 Q81.5707 973.671 84.5105 971.264 Q87.4734 968.857 92.6123 968.857 Q97.7743 968.857 100.714 971.264 Q103.654 973.671 103.654 977.815 Q103.654 980.778 101.964 982.838 Q100.297 984.898 97.3113 985.639 Q100.691 986.426 102.566 988.718 Q104.464 991.009 104.464 994.319 Q104.464 999.342 101.385 1002.03 Q98.3298 1004.71 92.6123 1004.71 Q86.8947 1004.71 83.816 1002.03 Q80.7605 999.342 80.7605 994.319 Q80.7605 991.009 82.6586 988.718 Q84.5568 986.426 87.9364 985.639 M86.2234 978.255 Q86.2234 980.94 87.8901 982.444 Q89.5799 983.949 92.6123 983.949 Q95.6215 983.949 97.3113 982.444 Q99.0243 980.94 99.0243 978.255 Q99.0243 975.569 97.3113 974.065 Q95.6215 972.56 92.6123 972.56 Q89.5799 972.56 87.8901 974.065 Q86.2234 975.569 86.2234 978.255 Z" fill="#000000" fill-rule="nonzero" fill-opacity="1" /><path clip-path="url(#clip110)" d="M111.594 969.482 L133.816 969.482 L133.816 971.472 L121.27 1004.04 L116.385 1004.04 L128.191 973.417 L111.594 973.417 L111.594 969.482 Z" fill="#000000" fill-rule="nonzero" fill-opacity="1" /><path clip-path="url(#clip110)" d="M152.936 972.56 Q149.325 972.56 147.496 976.125 Q145.691 979.667 145.691 986.796 Q145.691 993.903 147.496 997.467 Q149.325 1001.01 152.936 1001.01 Q156.57 1001.01 158.376 997.467 Q160.205 993.903 160.205 986.796 Q160.205 979.667 158.376 976.125 Q156.57 972.56 152.936 972.56 M152.936 968.857 Q158.746 968.857 161.802 973.463 Q164.88 978.046 164.88 986.796 Q164.88 995.523 161.802 1000.13 Q158.746 1004.71 152.936 1004.71 Q147.126 1004.71 144.047 1000.13 Q140.992 995.523 140.992 986.796 Q140.992 978.046 144.047 973.463 Q147.126 968.857 152.936 968.857 Z" fill="#000000" fill-rule="nonzero" fill-opacity="1" /><path clip-path="url(#clip110)" d="M66.617 794.176 Q69.9735 794.894 71.8485 797.163 Q73.7466 799.431 73.7466 802.764 Q73.7466 807.88 70.2281 810.681 Q66.7096 813.482 60.2282 813.482 Q58.0523 813.482 55.7375 813.042 Q53.4458 812.625 50.9921 811.769 L50.9921 807.255 Q52.9366 808.389 55.2514 808.968 Q57.5662 809.547 60.0893 809.547 Q64.4874 809.547 66.7791 807.811 Q69.0939 806.075 69.0939 802.764 Q69.0939 799.709 66.9411 797.996 Q64.8115 796.26 60.9921 796.26 L56.9643 796.26 L56.9643 792.417 L61.1773 792.417 Q64.6263 792.417 66.455 791.051 Q68.2837 789.663 68.2837 787.07 Q68.2837 784.408 66.3856 782.996 Q64.5106 781.561 60.9921 781.561 Q59.0708 781.561 56.8717 781.977 Q54.6727 782.394 52.0338 783.274 L52.0338 779.107 Q54.6958 778.366 57.0106 777.996 Q59.3486 777.626 61.4087 777.626 Q66.7328 777.626 69.8346 780.056 Q72.9365 782.464 72.9365 786.584 Q72.9365 789.454 71.2929 791.445 Q69.6494 793.413 66.617 794.176 Z" fill="#000000" fill-rule="nonzero" fill-opacity="1" /><path clip-path="url(#clip110)" d="M92.6123 796.399 Q89.279 796.399 87.3577 798.181 Q85.4595 799.963 85.4595 803.088 Q85.4595 806.213 87.3577 807.996 Q89.279 809.778 92.6123 809.778 Q95.9456 809.778 97.8669 807.996 Q99.7882 806.19 99.7882 803.088 Q99.7882 799.963 97.8669 798.181 Q95.9687 796.399 92.6123 796.399 M87.9364 794.408 Q84.9271 793.667 83.2373 791.607 Q81.5707 789.547 81.5707 786.584 Q81.5707 782.44 84.5105 780.033 Q87.4734 777.626 92.6123 777.626 Q97.7743 777.626 100.714 780.033 Q103.654 782.44 103.654 786.584 Q103.654 789.547 101.964 791.607 Q100.297 793.667 97.3113 794.408 Q100.691 795.195 102.566 797.487 Q104.464 799.778 104.464 803.088 Q104.464 808.112 101.385 810.797 Q98.3298 813.482 92.6123 813.482 Q86.8947 813.482 83.816 810.797 Q80.7605 808.112 80.7605 803.088 Q80.7605 799.778 82.6586 797.487 Q84.5568 795.195 87.9364 794.408 M86.2234 787.024 Q86.2234 789.709 87.8901 791.214 Q89.5799 792.718 92.6123 792.718 Q95.6215 792.718 97.3113 791.214 Q99.0243 789.709 99.0243 787.024 Q99.0243 784.339 97.3113 782.834 Q95.6215 781.329 92.6123 781.329 Q89.5799 781.329 87.8901 782.834 Q86.2234 784.339 86.2234 787.024 Z" fill="#000000" fill-rule="nonzero" fill-opacity="1" /><path clip-path="url(#clip110)" d="M122.774 796.399 Q119.441 796.399 117.52 798.181 Q115.621 799.963 115.621 803.088 Q115.621 806.213 117.52 807.996 Q119.441 809.778 122.774 809.778 Q126.107 809.778 128.029 807.996 Q129.95 806.19 129.95 803.088 Q129.95 799.963 128.029 798.181 Q126.131 796.399 122.774 796.399 M118.098 794.408 Q115.089 793.667 113.399 791.607 Q111.733 789.547 111.733 786.584 Q111.733 782.44 114.672 780.033 Q117.635 777.626 122.774 777.626 Q127.936 777.626 130.876 780.033 Q133.816 782.44 133.816 786.584 Q133.816 789.547 132.126 791.607 Q130.459 793.667 127.473 794.408 Q130.853 795.195 132.728 797.487 Q134.626 799.778 134.626 803.088 Q134.626 808.112 131.547 810.797 Q128.492 813.482 122.774 813.482 Q117.057 813.482 113.978 810.797 Q110.922 808.112 110.922 803.088 Q110.922 799.778 112.82 797.487 Q114.719 795.195 118.098 794.408 M116.385 787.024 Q116.385 789.709 118.052 791.214 Q119.742 792.718 122.774 792.718 Q125.783 792.718 127.473 791.214 Q129.186 789.709 129.186 787.024 Q129.186 784.339 127.473 782.834 Q125.783 781.329 122.774 781.329 Q119.742 781.329 118.052 782.834 Q116.385 784.339 116.385 787.024 Z" fill="#000000" fill-rule="nonzero" fill-opacity="1" /><path clip-path="url(#clip110)" d="M152.936 781.329 Q149.325 781.329 147.496 784.894 Q145.691 788.436 145.691 795.565 Q145.691 802.672 147.496 806.237 Q149.325 809.778 152.936 809.778 Q156.57 809.778 158.376 806.237 Q160.205 802.672 160.205 795.565 Q160.205 788.436 158.376 784.894 Q156.57 781.329 152.936 781.329 M152.936 777.626 Q158.746 777.626 161.802 782.232 Q164.88 786.815 164.88 795.565 Q164.88 804.292 161.802 808.899 Q158.746 813.482 152.936 813.482 Q147.126 813.482 144.047 808.899 Q140.992 804.292 140.992 795.565 Q140.992 786.815 144.047 782.232 Q147.126 777.626 152.936 777.626 Z" fill="#000000" fill-rule="nonzero" fill-opacity="1" /><path clip-path="url(#clip110)" d="M66.617 602.946 Q69.9735 603.663 71.8485 605.932 Q73.7466 608.2 73.7466 611.533 Q73.7466 616.649 70.2281 619.45 Q66.7096 622.251 60.2282 622.251 Q58.0523 622.251 55.7375 621.811 Q53.4458 621.395 50.9921 620.538 L50.9921 616.024 Q52.9366 617.158 55.2514 617.737 Q57.5662 618.316 60.0893 618.316 Q64.4874 618.316 66.7791 616.58 Q69.0939 614.844 69.0939 611.533 Q69.0939 608.478 66.9411 606.765 Q64.8115 605.029 60.9921 605.029 L56.9643 605.029 L56.9643 601.186 L61.1773 601.186 Q64.6263 601.186 66.455 599.821 Q68.2837 598.432 68.2837 595.839 Q68.2837 593.177 66.3856 591.765 Q64.5106 590.33 60.9921 590.33 Q59.0708 590.33 56.8717 590.747 Q54.6727 591.163 52.0338 592.043 L52.0338 587.876 Q54.6958 587.135 57.0106 586.765 Q59.3486 586.395 61.4087 586.395 Q66.7328 586.395 69.8346 588.825 Q72.9365 591.233 72.9365 595.353 Q72.9365 598.223 71.2929 600.214 Q69.6494 602.182 66.617 602.946 Z" fill="#000000" fill-rule="nonzero" fill-opacity="1" /><path clip-path="url(#clip110)" d="M92.6123 605.168 Q89.279 605.168 87.3577 606.95 Q85.4595 608.733 85.4595 611.858 Q85.4595 614.983 87.3577 616.765 Q89.279 618.547 92.6123 618.547 Q95.9456 618.547 97.8669 616.765 Q99.7882 614.959 99.7882 611.858 Q99.7882 608.733 97.8669 606.95 Q95.9687 605.168 92.6123 605.168 M87.9364 603.177 Q84.9271 602.436 83.2373 600.376 Q81.5707 598.316 81.5707 595.353 Q81.5707 591.21 84.5105 588.802 Q87.4734 586.395 92.6123 586.395 Q97.7743 586.395 100.714 588.802 Q103.654 591.21 103.654 595.353 Q103.654 598.316 101.964 600.376 Q100.297 602.436 97.3113 603.177 Q100.691 603.964 102.566 606.256 Q104.464 608.547 104.464 611.858 Q104.464 616.881 101.385 619.566 Q98.3298 622.251 92.6123 622.251 Q86.8947 622.251 83.816 619.566 Q80.7605 616.881 80.7605 611.858 Q80.7605 608.547 82.6586 606.256 Q84.5568 603.964 87.9364 603.177 M86.2234 595.793 Q86.2234 598.478 87.8901 599.983 Q89.5799 601.487 92.6123 601.487 Q95.6215 601.487 97.3113 599.983 Q99.0243 598.478 99.0243 595.793 Q99.0243 593.108 97.3113 591.603 Q95.6215 590.098 92.6123 590.098 Q89.5799 590.098 87.8901 591.603 Q86.2234 593.108 86.2234 595.793 Z" fill="#000000" fill-rule="nonzero" fill-opacity="1" /><path clip-path="url(#clip110)" d="M112.913 620.862 L112.913 616.603 Q114.672 617.436 116.478 617.876 Q118.283 618.316 120.02 618.316 Q124.649 618.316 127.08 615.214 Q129.533 612.089 129.881 605.746 Q128.538 607.737 126.478 608.802 Q124.418 609.867 121.918 609.867 Q116.733 609.867 113.7 606.742 Q110.691 603.594 110.691 598.154 Q110.691 592.83 113.839 589.612 Q116.987 586.395 122.219 586.395 Q128.214 586.395 131.362 591.001 Q134.533 595.584 134.533 604.334 Q134.533 612.506 130.644 617.39 Q126.779 622.251 120.228 622.251 Q118.469 622.251 116.663 621.904 Q114.858 621.557 112.913 620.862 M122.219 606.209 Q125.367 606.209 127.195 604.057 Q129.047 601.904 129.047 598.154 Q129.047 594.427 127.195 592.274 Q125.367 590.098 122.219 590.098 Q119.07 590.098 117.219 592.274 Q115.39 594.427 115.39 598.154 Q115.39 601.904 117.219 604.057 Q119.07 606.209 122.219 606.209 Z" fill="#000000" fill-rule="nonzero" fill-opacity="1" /><path clip-path="url(#clip110)" d="M152.936 590.098 Q149.325 590.098 147.496 593.663 Q145.691 597.205 145.691 604.334 Q145.691 611.441 147.496 615.006 Q149.325 618.547 152.936 618.547 Q156.57 618.547 158.376 615.006 Q160.205 611.441 160.205 604.334 Q160.205 597.205 158.376 593.663 Q156.57 590.098 152.936 590.098 M152.936 586.395 Q158.746 586.395 161.802 591.001 Q164.88 595.584 164.88 604.334 Q164.88 613.061 161.802 617.668 Q158.746 622.251 152.936 622.251 Q147.126 622.251 144.047 617.668 Q140.992 613.061 140.992 604.334 Q140.992 595.584 144.047 591.001 Q147.126 586.395 152.936 586.395 Z" fill="#000000" fill-rule="nonzero" fill-opacity="1" /><path clip-path="url(#clip110)" d="M66.617 411.715 Q69.9735 412.432 71.8485 414.701 Q73.7466 416.969 73.7466 420.303 Q73.7466 425.418 70.2281 428.219 Q66.7096 431.02 60.2282 431.02 Q58.0523 431.02 55.7375 430.58 Q53.4458 430.164 50.9921 429.307 L50.9921 424.793 Q52.9366 425.928 55.2514 426.506 Q57.5662 427.085 60.0893 427.085 Q64.4874 427.085 66.7791 425.349 Q69.0939 423.613 69.0939 420.303 Q69.0939 417.247 66.9411 415.534 Q64.8115 413.798 60.9921 413.798 L56.9643 413.798 L56.9643 409.955 L61.1773 409.955 Q64.6263 409.955 66.455 408.59 Q68.2837 407.201 68.2837 404.608 Q68.2837 401.946 66.3856 400.534 Q64.5106 399.099 60.9921 399.099 Q59.0708 399.099 56.8717 399.516 Q54.6727 399.932 52.0338 400.812 L52.0338 396.645 Q54.6958 395.905 57.0106 395.534 Q59.3486 395.164 61.4087 395.164 Q66.7328 395.164 69.8346 397.594 Q72.9365 400.002 72.9365 404.122 Q72.9365 406.992 71.2929 408.983 Q69.6494 410.951 66.617 411.715 Z" fill="#000000" fill-rule="nonzero" fill-opacity="1" /><path clip-path="url(#clip110)" d="M82.7512 429.631 L82.7512 425.372 Q84.5105 426.205 86.316 426.645 Q88.1216 427.085 89.8577 427.085 Q94.4873 427.085 96.9178 423.983 Q99.3715 420.858 99.7187 414.516 Q98.3761 416.506 96.316 417.571 Q94.2558 418.636 91.7558 418.636 Q86.5706 418.636 83.5382 415.511 Q80.529 412.363 80.529 406.923 Q80.529 401.599 83.6771 398.381 Q86.8253 395.164 92.0567 395.164 Q98.0521 395.164 101.2 399.77 Q104.371 404.354 104.371 413.104 Q104.371 421.275 100.483 426.159 Q96.6169 431.02 90.066 431.02 Q88.3067 431.02 86.5012 430.673 Q84.6956 430.326 82.7512 429.631 M92.0567 414.979 Q95.2049 414.979 97.0335 412.826 Q98.8854 410.673 98.8854 406.923 Q98.8854 403.196 97.0335 401.043 Q95.2049 398.868 92.0567 398.868 Q88.9086 398.868 87.0567 401.043 Q85.2281 403.196 85.2281 406.923 Q85.2281 410.673 87.0567 412.826 Q88.9086 414.979 92.0567 414.979 Z" fill="#000000" fill-rule="nonzero" fill-opacity="1" /><path clip-path="url(#clip110)" d="M122.774 398.868 Q119.163 398.868 117.334 402.432 Q115.529 405.974 115.529 413.104 Q115.529 420.21 117.334 423.775 Q119.163 427.316 122.774 427.316 Q126.408 427.316 128.214 423.775 Q130.043 420.21 130.043 413.104 Q130.043 405.974 128.214 402.432 Q126.408 398.868 122.774 398.868 M122.774 395.164 Q128.584 395.164 131.64 399.77 Q134.719 404.354 134.719 413.104 Q134.719 421.83 131.64 426.437 Q128.584 431.02 122.774 431.02 Q116.964 431.02 113.885 426.437 Q110.83 421.83 110.83 413.104 Q110.83 404.354 113.885 399.77 Q116.964 395.164 122.774 395.164 Z" fill="#000000" fill-rule="nonzero" fill-opacity="1" /><path clip-path="url(#clip110)" d="M152.936 398.868 Q149.325 398.868 147.496 402.432 Q145.691 405.974 145.691 413.104 Q145.691 420.21 147.496 423.775 Q149.325 427.316 152.936 427.316 Q156.57 427.316 158.376 423.775 Q160.205 420.21 160.205 413.104 Q160.205 405.974 158.376 402.432 Q156.57 398.868 152.936 398.868 M152.936 395.164 Q158.746 395.164 161.802 399.77 Q164.88 404.354 164.88 413.104 Q164.88 421.83 161.802 426.437 Q158.746 431.02 152.936 431.02 Q147.126 431.02 144.047 426.437 Q140.992 421.83 140.992 413.104 Q140.992 404.354 144.047 399.77 Q147.126 395.164 152.936 395.164 Z" fill="#000000" fill-rule="nonzero" fill-opacity="1" /><path clip-path="url(#clip110)" d="M66.617 220.484 Q69.9735 221.201 71.8485 223.47 Q73.7466 225.738 73.7466 229.072 Q73.7466 234.187 70.2281 236.988 Q66.7096 239.789 60.2282 239.789 Q58.0523 239.789 55.7375 239.349 Q53.4458 238.933 50.9921 238.076 L50.9921 233.562 Q52.9366 234.697 55.2514 235.275 Q57.5662 235.854 60.0893 235.854 Q64.4874 235.854 66.7791 234.118 Q69.0939 232.382 69.0939 229.072 Q69.0939 226.016 66.9411 224.303 Q64.8115 222.567 60.9921 222.567 L56.9643 222.567 L56.9643 218.725 L61.1773 218.725 Q64.6263 218.725 66.455 217.359 Q68.2837 215.97 68.2837 213.377 Q68.2837 210.715 66.3856 209.303 Q64.5106 207.868 60.9921 207.868 Q59.0708 207.868 56.8717 208.285 Q54.6727 208.701 52.0338 209.581 L52.0338 205.414 Q54.6958 204.674 57.0106 204.303 Q59.3486 203.933 61.4087 203.933 Q66.7328 203.933 69.8346 206.363 Q72.9365 208.771 72.9365 212.891 Q72.9365 215.762 71.2929 217.752 Q69.6494 219.72 66.617 220.484 Z" fill="#000000" fill-rule="nonzero" fill-opacity="1" /><path clip-path="url(#clip110)" d="M82.7512 238.4 L82.7512 234.141 Q84.5105 234.974 86.316 235.414 Q88.1216 235.854 89.8577 235.854 Q94.4873 235.854 96.9178 232.752 Q99.3715 229.627 99.7187 223.285 Q98.3761 225.275 96.316 226.34 Q94.2558 227.405 91.7558 227.405 Q86.5706 227.405 83.5382 224.28 Q80.529 221.132 80.529 215.692 Q80.529 210.368 83.6771 207.15 Q86.8253 203.933 92.0567 203.933 Q98.0521 203.933 101.2 208.539 Q104.371 213.123 104.371 221.873 Q104.371 230.044 100.483 234.928 Q96.6169 239.789 90.066 239.789 Q88.3067 239.789 86.5012 239.442 Q84.6956 239.095 82.7512 238.4 M92.0567 223.748 Q95.2049 223.748 97.0335 221.595 Q98.8854 219.442 98.8854 215.692 Q98.8854 211.965 97.0335 209.813 Q95.2049 207.637 92.0567 207.637 Q88.9086 207.637 87.0567 209.813 Q85.2281 211.965 85.2281 215.692 Q85.2281 219.442 87.0567 221.595 Q88.9086 223.748 92.0567 223.748 Z" fill="#000000" fill-rule="nonzero" fill-opacity="1" /><path clip-path="url(#clip110)" d="M113.584 235.183 L121.223 235.183 L121.223 208.817 L112.913 210.484 L112.913 206.225 L121.177 204.558 L125.853 204.558 L125.853 235.183 L133.492 235.183 L133.492 239.118 L113.584 239.118 L113.584 235.183 Z" fill="#000000" fill-rule="nonzero" fill-opacity="1" /><path clip-path="url(#clip110)" d="M152.936 207.637 Q149.325 207.637 147.496 211.201 Q145.691 214.743 145.691 221.873 Q145.691 228.979 147.496 232.544 Q149.325 236.086 152.936 236.086 Q156.57 236.086 158.376 232.544 Q160.205 228.979 160.205 221.873 Q160.205 214.743 158.376 211.201 Q156.57 207.637 152.936 207.637 M152.936 203.933 Q158.746 203.933 161.802 208.539 Q164.88 213.123 164.88 221.873 Q164.88 230.599 161.802 235.206 Q158.746 239.789 152.936 239.789 Q147.126 239.789 144.047 235.206 Q140.992 230.599 140.992 221.873 Q140.992 213.123 144.047 208.539 Q147.126 203.933 152.936 203.933 Z" fill="#000000" fill-rule="nonzero" fill-opacity="1" /><polyline clip-path="url(#clip112)" style="stroke:#009af9; stroke-linecap:round; stroke-linejoin:round; stroke-width:4; stroke-opacity:1; fill:none" points="261.783,1063.25 363.286,1063.25 464.79,1005.88 566.293,1044.13 667.797,546.93 769.3,623.423 870.804,374.823 972.307,240.961 1073.81,355.7 1175.31,87.9763 1276.82,279.207 1378.32,719.038 1479.83,1139.75 1581.33,852.9 1682.83,1445.72 1784.34,1139.75 1885.84,1235.36 1987.34,1063.25 2088.85,1177.99 2190.35,489.561 2291.85,451.315 "/>
<path clip-path="url(#clip110)" d="M1630.31 198.898 L2281.03 198.898 L2281.03 95.2176 L1630.31 95.2176  Z" fill="#ffffff" fill-rule="evenodd" fill-opacity="1"/>
<polyline clip-path="url(#clip110)" style="stroke:#000000; stroke-linecap:round; stroke-linejoin:round; stroke-width:4; stroke-opacity:1; fill:none" points="1630.31,198.898 2281.03,198.898 2281.03,95.2176 1630.31,95.2176 1630.31,198.898 "/>
<polyline clip-path="url(#clip110)" style="stroke:#009af9; stroke-linecap:round; stroke-linejoin:round; stroke-width:4; stroke-opacity:1; fill:none" points="1654.22,147.058 1797.68,147.058 "/>
<path clip-path="url(#clip110)" d="M1821.59 129.778 L1843.44 129.778 L1843.44 133.713 L1826.26 133.713 L1826.26 143.944 L1842.72 143.944 L1842.72 147.879 L1826.26 147.879 L1826.26 160.402 L1843.86 160.402 L1843.86 164.338 L1821.59 164.338 L1821.59 129.778 Z" fill="#000000" fill-rule="nonzero" fill-opacity="1" /><path clip-path="url(#clip110)" d="M1871.54 143.389 Q1873.14 140.518 1875.36 139.153 Q1877.58 137.787 1880.59 137.787 Q1884.64 137.787 1886.84 140.634 Q1889.04 143.458 1889.04 148.689 L1889.04 164.338 L1884.76 164.338 L1884.76 148.828 Q1884.76 145.102 1883.44 143.296 Q1882.12 141.49 1879.41 141.49 Q1876.1 141.49 1874.18 143.69 Q1872.26 145.889 1872.26 149.685 L1872.26 164.338 L1867.98 164.338 L1867.98 148.828 Q1867.98 145.078 1866.66 143.296 Q1865.34 141.49 1862.58 141.49 Q1859.32 141.49 1857.4 143.713 Q1855.48 145.912 1855.48 149.685 L1855.48 164.338 L1851.19 164.338 L1851.19 138.412 L1855.48 138.412 L1855.48 142.44 Q1856.93 140.055 1858.97 138.921 Q1861.01 137.787 1863.81 137.787 Q1866.63 137.787 1868.6 139.222 Q1870.59 140.657 1871.54 143.389 Z" fill="#000000" fill-rule="nonzero" fill-opacity="1" /><path clip-path="url(#clip110)" d="M1901.66 160.449 L1901.66 174.199 L1897.37 174.199 L1897.37 138.412 L1901.66 138.412 L1901.66 142.347 Q1903 140.032 1905.04 138.921 Q1907.1 137.787 1909.94 137.787 Q1914.67 137.787 1917.6 141.537 Q1920.57 145.287 1920.57 151.398 Q1920.57 157.509 1917.6 161.259 Q1914.67 165.009 1909.94 165.009 Q1907.1 165.009 1905.04 163.898 Q1903 162.763 1901.66 160.449 M1916.15 151.398 Q1916.15 146.699 1914.2 144.037 Q1912.28 141.352 1908.9 141.352 Q1905.52 141.352 1903.58 144.037 Q1901.66 146.699 1901.66 151.398 Q1901.66 156.097 1903.58 158.782 Q1905.52 161.444 1908.9 161.444 Q1912.28 161.444 1914.2 158.782 Q1916.15 156.097 1916.15 151.398 Z" fill="#000000" fill-rule="nonzero" fill-opacity="1" /><path clip-path="url(#clip110)" d="M1927.63 128.319 L1931.89 128.319 L1931.89 164.338 L1927.63 164.338 L1927.63 128.319 Z" fill="#000000" fill-rule="nonzero" fill-opacity="1" /><path clip-path="url(#clip110)" d="M1950.85 141.398 Q1947.42 141.398 1945.43 144.083 Q1943.44 146.745 1943.44 151.398 Q1943.44 156.051 1945.41 158.736 Q1947.4 161.398 1950.85 161.398 Q1954.25 161.398 1956.24 158.713 Q1958.23 156.027 1958.23 151.398 Q1958.23 146.791 1956.24 144.106 Q1954.25 141.398 1950.85 141.398 M1950.85 137.787 Q1956.4 137.787 1959.57 141.398 Q1962.74 145.009 1962.74 151.398 Q1962.74 157.764 1959.57 161.398 Q1956.4 165.009 1950.85 165.009 Q1945.27 165.009 1942.1 161.398 Q1938.95 157.764 1938.95 151.398 Q1938.95 145.009 1942.1 141.398 Q1945.27 137.787 1950.85 137.787 Z" fill="#000000" fill-rule="nonzero" fill-opacity="1" /><path clip-path="url(#clip110)" d="M1980.59 166.745 Q1978.79 171.375 1977.07 172.787 Q1975.36 174.199 1972.49 174.199 L1969.09 174.199 L1969.09 170.634 L1971.59 170.634 Q1973.35 170.634 1974.32 169.8 Q1975.29 168.967 1976.47 165.865 L1977.23 163.921 L1966.75 138.412 L1971.26 138.412 L1979.36 158.689 L1987.47 138.412 L1991.98 138.412 L1980.59 166.745 Z" fill="#000000" fill-rule="nonzero" fill-opacity="1" /><path clip-path="url(#clip110)" d="M2020.03 150.31 L2020.03 152.393 L2000.45 152.393 Q2000.73 156.791 2003.09 159.106 Q2005.47 161.398 2009.71 161.398 Q2012.16 161.398 2014.46 160.796 Q2016.77 160.194 2019.04 158.99 L2019.04 163.018 Q2016.75 163.99 2014.34 164.5 Q2011.93 165.009 2009.46 165.009 Q2003.25 165.009 1999.62 161.398 Q1996.01 157.787 1996.01 151.629 Q1996.01 145.264 1999.43 141.537 Q2002.88 137.787 2008.72 137.787 Q2013.95 137.787 2016.98 141.166 Q2020.03 144.523 2020.03 150.31 M2015.78 149.06 Q2015.73 145.565 2013.81 143.481 Q2011.91 141.398 2008.76 141.398 Q2005.2 141.398 2003.04 143.412 Q2000.91 145.426 2000.59 149.083 L2015.78 149.06 Z" fill="#000000" fill-rule="nonzero" fill-opacity="1" /><path clip-path="url(#clip110)" d="M2044.09 142.347 L2044.09 128.319 L2048.34 128.319 L2048.34 164.338 L2044.09 164.338 L2044.09 160.449 Q2042.74 162.763 2040.68 163.898 Q2038.65 165.009 2035.78 165.009 Q2031.08 165.009 2028.11 161.259 Q2025.17 157.509 2025.17 151.398 Q2025.17 145.287 2028.11 141.537 Q2031.08 137.787 2035.78 137.787 Q2038.65 137.787 2040.68 138.921 Q2042.74 140.032 2044.09 142.347 M2029.57 151.398 Q2029.57 156.097 2031.49 158.782 Q2033.44 161.444 2036.82 161.444 Q2040.2 161.444 2042.14 158.782 Q2044.09 156.097 2044.09 151.398 Q2044.09 146.699 2042.14 144.037 Q2040.2 141.352 2036.82 141.352 Q2033.44 141.352 2031.49 144.037 Q2029.57 146.699 2029.57 151.398 Z" fill="#000000" fill-rule="nonzero" fill-opacity="1" /><path clip-path="url(#clip110)" d="M2069.29 129.778 L2074.02 129.778 L2081.28 158.99 L2088.53 129.778 L2093.78 129.778 L2101.05 158.99 L2108.3 129.778 L2113.04 129.778 L2104.36 164.338 L2098.48 164.338 L2091.19 134.338 L2083.83 164.338 L2077.95 164.338 L2069.29 129.778 Z" fill="#000000" fill-rule="nonzero" fill-opacity="1" /><path clip-path="url(#clip110)" d="M2126.33 141.398 Q2122.9 141.398 2120.91 144.083 Q2118.92 146.745 2118.92 151.398 Q2118.92 156.051 2120.89 158.736 Q2122.88 161.398 2126.33 161.398 Q2129.73 161.398 2131.72 158.713 Q2133.71 156.027 2133.71 151.398 Q2133.71 146.791 2131.72 144.106 Q2129.73 141.398 2126.33 141.398 M2126.33 137.787 Q2131.89 137.787 2135.06 141.398 Q2138.23 145.009 2138.23 151.398 Q2138.23 157.764 2135.06 161.398 Q2131.89 165.009 2126.33 165.009 Q2120.75 165.009 2117.58 161.398 Q2114.43 157.764 2114.43 151.398 Q2114.43 145.009 2117.58 141.398 Q2120.75 137.787 2126.33 137.787 Z" fill="#000000" fill-rule="nonzero" fill-opacity="1" /><path clip-path="url(#clip110)" d="M2160.31 142.393 Q2159.59 141.977 2158.74 141.791 Q2157.9 141.583 2156.89 141.583 Q2153.27 141.583 2151.33 143.944 Q2149.41 146.282 2149.41 150.68 L2149.41 164.338 L2145.13 164.338 L2145.13 138.412 L2149.41 138.412 L2149.41 142.44 Q2150.75 140.078 2152.9 138.944 Q2155.06 137.787 2158.14 137.787 Q2158.58 137.787 2159.11 137.856 Q2159.64 137.903 2160.29 138.018 L2160.31 142.393 Z" fill="#000000" fill-rule="nonzero" fill-opacity="1" /><path clip-path="url(#clip110)" d="M2164.62 128.319 L2168.9 128.319 L2168.9 149.592 L2181.61 138.412 L2187.05 138.412 L2173.3 150.541 L2187.63 164.338 L2182.07 164.338 L2168.9 151.676 L2168.9 164.338 L2164.62 164.338 L2164.62 128.319 Z" fill="#000000" fill-rule="nonzero" fill-opacity="1" /><path clip-path="url(#clip110)" d="M2212.72 150.31 L2212.72 152.393 L2193.14 152.393 Q2193.41 156.791 2195.77 159.106 Q2198.16 161.398 2202.4 161.398 Q2204.85 161.398 2207.14 160.796 Q2209.46 160.194 2211.72 158.99 L2211.72 163.018 Q2209.43 163.99 2207.02 164.5 Q2204.62 165.009 2202.14 165.009 Q2195.94 165.009 2192.3 161.398 Q2188.69 157.787 2188.69 151.629 Q2188.69 145.264 2192.12 141.537 Q2195.57 137.787 2201.4 137.787 Q2206.63 137.787 2209.66 141.166 Q2212.72 144.523 2212.72 150.31 M2208.46 149.06 Q2208.41 145.565 2206.49 143.481 Q2204.59 141.398 2201.45 141.398 Q2197.88 141.398 2195.73 143.412 Q2193.6 145.426 2193.27 149.083 L2208.46 149.06 Z" fill="#000000" fill-rule="nonzero" fill-opacity="1" /><path clip-path="url(#clip110)" d="M2234.73 142.393 Q2234.02 141.977 2233.16 141.791 Q2232.33 141.583 2231.31 141.583 Q2227.7 141.583 2225.75 143.944 Q2223.83 146.282 2223.83 150.68 L2223.83 164.338 L2219.55 164.338 L2219.55 138.412 L2223.83 138.412 L2223.83 142.44 Q2225.17 140.078 2227.33 138.944 Q2229.48 137.787 2232.56 137.787 Q2233 137.787 2233.53 137.856 Q2234.06 137.903 2234.71 138.018 L2234.73 142.393 Z" fill="#000000" fill-rule="nonzero" fill-opacity="1" /><path clip-path="url(#clip110)" d="M2255.73 139.176 L2255.73 143.203 Q2253.92 142.277 2251.98 141.815 Q2250.03 141.352 2247.95 141.352 Q2244.78 141.352 2243.18 142.324 Q2241.61 143.296 2241.61 145.24 Q2241.61 146.722 2242.74 147.578 Q2243.88 148.412 2247.3 149.176 L2248.76 149.5 Q2253.3 150.472 2255.2 152.254 Q2257.12 154.014 2257.12 157.185 Q2257.12 160.796 2254.25 162.902 Q2251.4 165.009 2246.4 165.009 Q2244.32 165.009 2242.05 164.592 Q2239.8 164.199 2237.3 163.388 L2237.3 158.99 Q2239.66 160.217 2241.96 160.842 Q2244.25 161.444 2246.49 161.444 Q2249.5 161.444 2251.12 160.426 Q2252.74 159.384 2252.74 157.509 Q2252.74 155.773 2251.56 154.847 Q2250.4 153.921 2246.45 153.064 L2244.96 152.717 Q2241.01 151.884 2239.25 150.171 Q2237.49 148.435 2237.49 145.426 Q2237.49 141.768 2240.08 139.778 Q2242.67 137.787 2247.44 137.787 Q2249.8 137.787 2251.89 138.134 Q2253.97 138.481 2255.73 139.176 Z" fill="#000000" fill-rule="nonzero" fill-opacity="1" /></svg>
