<?xml version="1.0" encoding="utf-8"?>
<svg xmlns="http://www.w3.org/2000/svg" xmlns:xlink="http://www.w3.org/1999/xlink" width="600" height="400" viewBox="0 0 2400 1600">
<defs>
  <clipPath id="clip160">
    <rect x="0" y="0" width="2400" height="1600"/>
  </clipPath>
</defs>
<path clip-path="url(#clip160)" d="M0 1600 L2400 1600 L2400 0 L0 0  Z" fill="#ffffff" fill-rule="evenodd" fill-opacity="1"/>
<defs>
  <clipPath id="clip161">
    <rect x="480" y="0" width="1681" height="1600"/>
  </clipPath>
</defs>
<path clip-path="url(#clip160)" d="M230.765 1486.45 L2352.76 1486.45 L2352.76 106.192 L230.765 106.192  Z" fill="#ffffff" fill-rule="evenodd" fill-opacity="1"/>
<defs>
  <clipPath id="clip162">
    <rect x="230" y="106" width="2123" height="1381"/>
  </clipPath>
</defs>
<polyline clip-path="url(#clip162)" style="stroke:#000000; stroke-linecap:round; stroke-linejoin:round; stroke-width:2; stroke-opacity:0.1; fill:none" points="541.056,1486.45 541.056,106.192 "/>
<polyline clip-path="url(#clip162)" style="stroke:#000000; stroke-linecap:round; stroke-linejoin:round; stroke-width:2; stroke-opacity:0.1; fill:none" points="916.408,1486.45 916.408,106.192 "/>
<polyline clip-path="url(#clip162)" style="stroke:#000000; stroke-linecap:round; stroke-linejoin:round; stroke-width:2; stroke-opacity:0.1; fill:none" points="1291.76,1486.45 1291.76,106.192 "/>
<polyline clip-path="url(#clip162)" style="stroke:#000000; stroke-linecap:round; stroke-linejoin:round; stroke-width:2; stroke-opacity:0.1; fill:none" points="1667.11,1486.45 1667.11,106.192 "/>
<polyline clip-path="url(#clip162)" style="stroke:#000000; stroke-linecap:round; stroke-linejoin:round; stroke-width:2; stroke-opacity:0.1; fill:none" points="2042.46,1486.45 2042.46,106.192 "/>
<polyline clip-path="url(#clip162)" style="stroke:#000000; stroke-linecap:round; stroke-linejoin:round; stroke-width:2; stroke-opacity:0.1; fill:none" points="230.765,1411.62 2352.76,1411.62 "/>
<polyline clip-path="url(#clip162)" style="stroke:#000000; stroke-linecap:round; stroke-linejoin:round; stroke-width:2; stroke-opacity:0.1; fill:none" points="230.765,1182.39 2352.76,1182.39 "/>
<polyline clip-path="url(#clip162)" style="stroke:#000000; stroke-linecap:round; stroke-linejoin:round; stroke-width:2; stroke-opacity:0.1; fill:none" points="230.765,953.148 2352.76,953.148 "/>
<polyline clip-path="url(#clip162)" style="stroke:#000000; stroke-linecap:round; stroke-linejoin:round; stroke-width:2; stroke-opacity:0.1; fill:none" points="230.765,723.911 2352.76,723.911 "/>
<polyline clip-path="url(#clip162)" style="stroke:#000000; stroke-linecap:round; stroke-linejoin:round; stroke-width:2; stroke-opacity:0.1; fill:none" points="230.765,494.674 2352.76,494.674 "/>
<polyline clip-path="url(#clip162)" style="stroke:#000000; stroke-linecap:round; stroke-linejoin:round; stroke-width:2; stroke-opacity:0.1; fill:none" points="230.765,265.436 2352.76,265.436 "/>
<polyline clip-path="url(#clip160)" style="stroke:#000000; stroke-linecap:round; stroke-linejoin:round; stroke-width:4; stroke-opacity:1; fill:none" points="230.765,1486.45 2352.76,1486.45 "/>
<polyline clip-path="url(#clip160)" style="stroke:#000000; stroke-linecap:round; stroke-linejoin:round; stroke-width:4; stroke-opacity:1; fill:none" points="541.056,1486.45 541.056,1467.55 "/>
<polyline clip-path="url(#clip160)" style="stroke:#000000; stroke-linecap:round; stroke-linejoin:round; stroke-width:4; stroke-opacity:1; fill:none" points="916.408,1486.45 916.408,1467.55 "/>
<polyline clip-path="url(#clip160)" style="stroke:#000000; stroke-linecap:round; stroke-linejoin:round; stroke-width:4; stroke-opacity:1; fill:none" points="1291.76,1486.45 1291.76,1467.55 "/>
<polyline clip-path="url(#clip160)" style="stroke:#000000; stroke-linecap:round; stroke-linejoin:round; stroke-width:4; stroke-opacity:1; fill:none" points="1667.11,1486.45 1667.11,1467.55 "/>
<polyline clip-path="url(#clip160)" style="stroke:#000000; stroke-linecap:round; stroke-linejoin:round; stroke-width:4; stroke-opacity:1; fill:none" points="2042.46,1486.45 2042.46,1467.55 "/>
<path clip-path="url(#clip160)" d="M545.303 1530.21 Q548.66 1530.93 550.535 1533.2 Q552.433 1535.47 552.433 1538.8 Q552.433 1543.92 548.914 1546.72 Q545.396 1549.52 538.915 1549.52 Q536.739 1549.52 534.424 1549.08 Q532.132 1548.66 529.678 1547.81 L529.678 1543.29 Q531.623 1544.43 533.938 1545.01 Q536.252 1545.58 538.776 1545.58 Q543.174 1545.58 545.465 1543.85 Q547.78 1542.11 547.78 1538.8 Q547.78 1535.75 545.627 1534.03 Q543.498 1532.3 539.678 1532.3 L535.651 1532.3 L535.651 1528.45 L539.864 1528.45 Q543.313 1528.45 545.141 1527.09 Q546.97 1525.7 546.97 1523.11 Q546.97 1520.45 545.072 1519.03 Q543.197 1517.6 539.678 1517.6 Q537.757 1517.6 535.558 1518.01 Q533.359 1518.43 530.72 1519.31 L530.72 1515.14 Q533.382 1514.4 535.697 1514.03 Q538.035 1513.66 540.095 1513.66 Q545.419 1513.66 548.521 1516.09 Q551.623 1518.5 551.623 1522.62 Q551.623 1525.49 549.979 1527.48 Q548.336 1529.45 545.303 1530.21 Z" fill="#000000" fill-rule="nonzero" fill-opacity="1" /><path clip-path="url(#clip160)" d="M916.813 1529.7 Q913.665 1529.7 911.813 1531.86 Q909.984 1534.01 909.984 1537.76 Q909.984 1541.49 911.813 1543.66 Q913.665 1545.82 916.813 1545.82 Q919.961 1545.82 921.79 1543.66 Q923.642 1541.49 923.642 1537.76 Q923.642 1534.01 921.79 1531.86 Q919.961 1529.7 916.813 1529.7 M926.095 1515.05 L926.095 1519.31 Q924.336 1518.48 922.531 1518.04 Q920.748 1517.6 918.989 1517.6 Q914.359 1517.6 911.906 1520.72 Q909.475 1523.85 909.128 1530.17 Q910.494 1528.15 912.554 1527.09 Q914.614 1526 917.091 1526 Q922.299 1526 925.308 1529.17 Q928.341 1532.32 928.341 1537.76 Q928.341 1543.08 925.193 1546.3 Q922.044 1549.52 916.813 1549.52 Q910.818 1549.52 907.646 1544.94 Q904.475 1540.33 904.475 1531.6 Q904.475 1523.41 908.364 1518.55 Q912.253 1513.66 918.804 1513.66 Q920.563 1513.66 922.345 1514.01 Q924.151 1514.36 926.095 1515.05 Z" fill="#000000" fill-rule="nonzero" fill-opacity="1" /><path clip-path="url(#clip160)" d="M1282.06 1548.13 L1282.06 1543.87 Q1283.82 1544.7 1285.63 1545.14 Q1287.43 1545.58 1289.17 1545.58 Q1293.8 1545.58 1296.23 1542.48 Q1298.68 1539.36 1299.03 1533.01 Q1297.69 1535.01 1295.63 1536.07 Q1293.57 1537.13 1291.07 1537.13 Q1285.88 1537.13 1282.85 1534.01 Q1279.84 1530.86 1279.84 1525.42 Q1279.84 1520.1 1282.99 1516.88 Q1286.14 1513.66 1291.37 1513.66 Q1297.36 1513.66 1300.51 1518.27 Q1303.68 1522.85 1303.68 1531.6 Q1303.68 1539.77 1299.79 1544.66 Q1295.93 1549.52 1289.38 1549.52 Q1287.62 1549.52 1285.81 1549.17 Q1284.01 1548.82 1282.06 1548.13 M1291.37 1533.48 Q1294.51 1533.48 1296.34 1531.32 Q1298.2 1529.17 1298.2 1525.42 Q1298.2 1521.7 1296.34 1519.54 Q1294.51 1517.37 1291.37 1517.37 Q1288.22 1517.37 1286.37 1519.54 Q1284.54 1521.7 1284.54 1525.42 Q1284.54 1529.17 1286.37 1531.32 Q1288.22 1533.48 1291.37 1533.48 Z" fill="#000000" fill-rule="nonzero" fill-opacity="1" /><path clip-path="url(#clip160)" d="M1642.6 1544.91 L1650.24 1544.91 L1650.24 1518.55 L1641.93 1520.21 L1641.93 1515.95 L1650.19 1514.29 L1654.87 1514.29 L1654.87 1544.91 L1662.51 1544.91 L1662.51 1548.85 L1642.6 1548.85 L1642.6 1544.91 Z" fill="#000000" fill-rule="nonzero" fill-opacity="1" /><path clip-path="url(#clip160)" d="M1675.98 1544.91 L1692.3 1544.91 L1692.3 1548.85 L1670.35 1548.85 L1670.35 1544.91 Q1673.02 1542.16 1677.6 1537.53 Q1682.2 1532.88 1683.39 1531.53 Q1685.63 1529.01 1686.51 1527.27 Q1687.41 1525.51 1687.41 1523.82 Q1687.41 1521.07 1685.47 1519.33 Q1683.55 1517.6 1680.45 1517.6 Q1678.25 1517.6 1675.79 1518.36 Q1673.36 1519.13 1670.58 1520.68 L1670.58 1515.95 Q1673.41 1514.82 1675.86 1514.24 Q1678.32 1513.66 1680.35 1513.66 Q1685.72 1513.66 1688.92 1516.35 Q1692.11 1519.03 1692.11 1523.52 Q1692.11 1525.65 1691.3 1527.57 Q1690.52 1529.47 1688.41 1532.07 Q1687.83 1532.74 1684.73 1535.95 Q1681.63 1539.15 1675.98 1544.91 Z" fill="#000000" fill-rule="nonzero" fill-opacity="1" /><path clip-path="url(#clip160)" d="M2017.65 1544.91 L2025.29 1544.91 L2025.29 1518.55 L2016.98 1520.21 L2016.98 1515.95 L2025.24 1514.29 L2029.92 1514.29 L2029.92 1544.91 L2037.56 1544.91 L2037.56 1548.85 L2017.65 1548.85 L2017.65 1544.91 Z" fill="#000000" fill-rule="nonzero" fill-opacity="1" /><path clip-path="url(#clip160)" d="M2047.05 1514.29 L2065.4 1514.29 L2065.4 1518.22 L2051.33 1518.22 L2051.33 1526.7 Q2052.35 1526.35 2053.37 1526.19 Q2054.39 1526 2055.4 1526 Q2061.19 1526 2064.57 1529.17 Q2067.95 1532.34 2067.95 1537.76 Q2067.95 1543.34 2064.48 1546.44 Q2061.01 1549.52 2054.69 1549.52 Q2052.51 1549.52 2050.24 1549.15 Q2048 1548.78 2045.59 1548.04 L2045.59 1543.34 Q2047.67 1544.47 2049.9 1545.03 Q2052.12 1545.58 2054.59 1545.58 Q2058.6 1545.58 2060.94 1543.48 Q2063.27 1541.37 2063.27 1537.76 Q2063.27 1534.15 2060.94 1532.04 Q2058.6 1529.94 2054.59 1529.94 Q2052.72 1529.94 2050.84 1530.35 Q2048.99 1530.77 2047.05 1531.65 L2047.05 1514.29 Z" fill="#000000" fill-rule="nonzero" fill-opacity="1" /><polyline clip-path="url(#clip160)" style="stroke:#000000; stroke-linecap:round; stroke-linejoin:round; stroke-width:4; stroke-opacity:1; fill:none" points="230.765,1486.45 230.765,106.192 "/>
<polyline clip-path="url(#clip160)" style="stroke:#000000; stroke-linecap:round; stroke-linejoin:round; stroke-width:4; stroke-opacity:1; fill:none" points="230.765,1411.62 249.662,1411.62 "/>
<polyline clip-path="url(#clip160)" style="stroke:#000000; stroke-linecap:round; stroke-linejoin:round; stroke-width:4; stroke-opacity:1; fill:none" points="230.765,1182.39 249.662,1182.39 "/>
<polyline clip-path="url(#clip160)" style="stroke:#000000; stroke-linecap:round; stroke-linejoin:round; stroke-width:4; stroke-opacity:1; fill:none" points="230.765,953.148 249.662,953.148 "/>
<polyline clip-path="url(#clip160)" style="stroke:#000000; stroke-linecap:round; stroke-linejoin:round; stroke-width:4; stroke-opacity:1; fill:none" points="230.765,723.911 249.662,723.911 "/>
<polyline clip-path="url(#clip160)" style="stroke:#000000; stroke-linecap:round; stroke-linejoin:round; stroke-width:4; stroke-opacity:1; fill:none" points="230.765,494.674 249.662,494.674 "/>
<polyline clip-path="url(#clip160)" style="stroke:#000000; stroke-linecap:round; stroke-linejoin:round; stroke-width:4; stroke-opacity:1; fill:none" points="230.765,265.436 249.662,265.436 "/>
<path clip-path="url(#clip160)" d="M50.9921 1394.34 L73.2142 1394.34 L73.2142 1396.33 L60.668 1428.9 L55.7838 1428.9 L67.5893 1398.28 L50.9921 1398.28 L50.9921 1394.34 Z" fill="#000000" fill-rule="nonzero" fill-opacity="1" /><path clip-path="url(#clip160)" d="M86.3623 1424.97 L102.682 1424.97 L102.682 1428.9 L80.7373 1428.9 L80.7373 1424.97 Q83.3994 1422.21 87.9827 1417.58 Q92.5891 1412.93 93.7697 1411.59 Q96.015 1409.07 96.8947 1407.33 Q97.7974 1405.57 97.7974 1403.88 Q97.7974 1401.13 95.853 1399.39 Q93.9317 1397.65 90.8299 1397.65 Q88.6308 1397.65 86.1771 1398.42 Q83.7466 1399.18 80.9688 1400.73 L80.9688 1396.01 Q83.7929 1394.88 86.2466 1394.3 Q88.7003 1393.72 90.7373 1393.72 Q96.1076 1393.72 99.3021 1396.4 Q102.496 1399.09 102.496 1403.58 Q102.496 1405.71 101.686 1407.63 Q100.899 1409.53 98.7928 1412.12 Q98.2141 1412.79 95.1123 1416.01 Q92.0104 1419.2 86.3623 1424.97 Z" fill="#000000" fill-rule="nonzero" fill-opacity="1" /><path clip-path="url(#clip160)" d="M112.543 1394.34 L130.899 1394.34 L130.899 1398.28 L116.825 1398.28 L116.825 1406.75 Q117.844 1406.4 118.862 1406.24 Q119.881 1406.06 120.899 1406.06 Q126.686 1406.06 130.066 1409.23 Q133.445 1412.4 133.445 1417.82 Q133.445 1423.39 129.973 1426.5 Q126.501 1429.57 120.182 1429.57 Q118.006 1429.57 115.737 1429.2 Q113.492 1428.83 111.084 1428.09 L111.084 1423.39 Q113.168 1424.53 115.39 1425.08 Q117.612 1425.64 120.089 1425.64 Q124.094 1425.64 126.432 1423.53 Q128.769 1421.43 128.769 1417.82 Q128.769 1414.2 126.432 1412.1 Q124.094 1409.99 120.089 1409.99 Q118.214 1409.99 116.339 1410.41 Q114.487 1410.82 112.543 1411.7 L112.543 1394.34 Z" fill="#000000" fill-rule="nonzero" fill-opacity="1" /><path clip-path="url(#clip160)" d="M152.658 1397.42 Q149.047 1397.42 147.218 1400.99 Q145.413 1404.53 145.413 1411.66 Q145.413 1418.76 147.218 1422.33 Q149.047 1425.87 152.658 1425.87 Q156.292 1425.87 158.098 1422.33 Q159.927 1418.76 159.927 1411.66 Q159.927 1404.53 158.098 1400.99 Q156.292 1397.42 152.658 1397.42 M152.658 1393.72 Q158.468 1393.72 161.524 1398.32 Q164.603 1402.91 164.603 1411.66 Q164.603 1420.38 161.524 1424.99 Q158.468 1429.57 152.658 1429.57 Q146.848 1429.57 143.769 1424.99 Q140.714 1420.38 140.714 1411.66 Q140.714 1402.91 143.769 1398.32 Q146.848 1393.72 152.658 1393.72 Z" fill="#000000" fill-rule="nonzero" fill-opacity="1" /><path clip-path="url(#clip160)" d="M182.82 1397.42 Q179.209 1397.42 177.38 1400.99 Q175.575 1404.53 175.575 1411.66 Q175.575 1418.76 177.38 1422.33 Q179.209 1425.87 182.82 1425.87 Q186.454 1425.87 188.26 1422.33 Q190.089 1418.76 190.089 1411.66 Q190.089 1404.53 188.26 1400.99 Q186.454 1397.42 182.82 1397.42 M182.82 1393.72 Q188.63 1393.72 191.686 1398.32 Q194.765 1402.91 194.765 1411.66 Q194.765 1420.38 191.686 1424.99 Q188.63 1429.57 182.82 1429.57 Q177.01 1429.57 173.931 1424.99 Q170.876 1420.38 170.876 1411.66 Q170.876 1402.91 173.931 1398.32 Q177.01 1393.72 182.82 1393.72 Z" fill="#000000" fill-rule="nonzero" fill-opacity="1" /><path clip-path="url(#clip160)" d="M50.9921 1165.11 L73.2142 1165.11 L73.2142 1167.1 L60.668 1199.67 L55.7838 1199.67 L67.5893 1169.04 L50.9921 1169.04 L50.9921 1165.11 Z" fill="#000000" fill-rule="nonzero" fill-opacity="1" /><path clip-path="url(#clip160)" d="M96.5011 1181.03 Q99.8576 1181.75 101.733 1184.02 Q103.631 1186.29 103.631 1189.62 Q103.631 1194.74 100.112 1197.54 Q96.5937 1200.34 90.1123 1200.34 Q87.9364 1200.34 85.6216 1199.9 Q83.3299 1199.48 80.8762 1198.62 L80.8762 1194.11 Q82.8207 1195.24 85.1355 1195.82 Q87.4503 1196.4 89.9734 1196.4 Q94.3715 1196.4 96.6632 1194.67 Q98.978 1192.93 98.978 1189.62 Q98.978 1186.56 96.8252 1184.85 Q94.6956 1183.11 90.8762 1183.11 L86.8484 1183.11 L86.8484 1179.27 L91.0614 1179.27 Q94.5104 1179.27 96.3391 1177.91 Q98.1678 1176.52 98.1678 1173.93 Q98.1678 1171.26 96.2697 1169.85 Q94.3947 1168.42 90.8762 1168.42 Q88.9549 1168.42 86.7558 1168.83 Q84.5568 1169.25 81.9179 1170.13 L81.9179 1165.96 Q84.5799 1165.22 86.8947 1164.85 Q89.2327 1164.48 91.2928 1164.48 Q96.6169 1164.48 99.7187 1166.91 Q102.821 1169.32 102.821 1173.44 Q102.821 1176.31 101.177 1178.3 Q99.5335 1180.27 96.5011 1181.03 Z" fill="#000000" fill-rule="nonzero" fill-opacity="1" /><path clip-path="url(#clip160)" d="M122.496 1168.18 Q118.885 1168.18 117.057 1171.75 Q115.251 1175.29 115.251 1182.42 Q115.251 1189.53 117.057 1193.09 Q118.885 1196.63 122.496 1196.63 Q126.131 1196.63 127.936 1193.09 Q129.765 1189.53 129.765 1182.42 Q129.765 1175.29 127.936 1171.75 Q126.131 1168.18 122.496 1168.18 M122.496 1164.48 Q128.307 1164.48 131.362 1169.09 Q134.441 1173.67 134.441 1182.42 Q134.441 1191.15 131.362 1195.75 Q128.307 1200.34 122.496 1200.34 Q116.686 1200.34 113.608 1195.75 Q110.552 1191.15 110.552 1182.42 Q110.552 1173.67 113.608 1169.09 Q116.686 1164.48 122.496 1164.48 Z" fill="#000000" fill-rule="nonzero" fill-opacity="1" /><path clip-path="url(#clip160)" d="M152.658 1168.18 Q149.047 1168.18 147.218 1171.75 Q145.413 1175.29 145.413 1182.42 Q145.413 1189.53 147.218 1193.09 Q149.047 1196.63 152.658 1196.63 Q156.292 1196.63 158.098 1193.09 Q159.927 1189.53 159.927 1182.42 Q159.927 1175.29 158.098 1171.75 Q156.292 1168.18 152.658 1168.18 M152.658 1164.48 Q158.468 1164.48 161.524 1169.09 Q164.603 1173.67 164.603 1182.42 Q164.603 1191.15 161.524 1195.75 Q158.468 1200.34 152.658 1200.34 Q146.848 1200.34 143.769 1195.75 Q140.714 1191.15 140.714 1182.42 Q140.714 1173.67 143.769 1169.09 Q146.848 1164.48 152.658 1164.48 Z" fill="#000000" fill-rule="nonzero" fill-opacity="1" /><path clip-path="url(#clip160)" d="M182.82 1168.18 Q179.209 1168.18 177.38 1171.75 Q175.575 1175.29 175.575 1182.42 Q175.575 1189.53 177.38 1193.09 Q179.209 1196.63 182.82 1196.63 Q186.454 1196.63 188.26 1193.09 Q190.089 1189.53 190.089 1182.42 Q190.089 1175.29 188.26 1171.75 Q186.454 1168.18 182.82 1168.18 M182.82 1164.48 Q188.63 1164.48 191.686 1169.09 Q194.765 1173.67 194.765 1182.42 Q194.765 1191.15 191.686 1195.75 Q188.63 1200.34 182.82 1200.34 Q177.01 1200.34 173.931 1195.75 Q170.876 1191.15 170.876 1182.42 Q170.876 1173.67 173.931 1169.09 Q177.01 1164.48 182.82 1164.48 Z" fill="#000000" fill-rule="nonzero" fill-opacity="1" /><path clip-path="url(#clip160)" d="M50.9921 935.868 L73.2142 935.868 L73.2142 937.859 L60.668 970.428 L55.7838 970.428 L67.5893 939.803 L50.9921 939.803 L50.9921 935.868 Z" fill="#000000" fill-rule="nonzero" fill-opacity="1" /><path clip-path="url(#clip160)" d="M96.5011 951.794 Q99.8576 952.512 101.733 954.78 Q103.631 957.049 103.631 960.382 Q103.631 965.498 100.112 968.299 Q96.5937 971.1 90.1123 971.1 Q87.9364 971.1 85.6216 970.66 Q83.3299 970.243 80.8762 969.387 L80.8762 964.873 Q82.8207 966.007 85.1355 966.586 Q87.4503 967.164 89.9734 967.164 Q94.3715 967.164 96.6632 965.428 Q98.978 963.692 98.978 960.382 Q98.978 957.327 96.8252 955.614 Q94.6956 953.877 90.8762 953.877 L86.8484 953.877 L86.8484 950.035 L91.0614 950.035 Q94.5104 950.035 96.3391 948.669 Q98.1678 947.28 98.1678 944.688 Q98.1678 942.026 96.2697 940.614 Q94.3947 939.178 90.8762 939.178 Q88.9549 939.178 86.7558 939.595 Q84.5568 940.012 81.9179 940.891 L81.9179 936.725 Q84.5799 935.984 86.8947 935.614 Q89.2327 935.243 91.2928 935.243 Q96.6169 935.243 99.7187 937.674 Q102.821 940.081 102.821 944.202 Q102.821 947.072 101.177 949.063 Q99.5335 951.03 96.5011 951.794 Z" fill="#000000" fill-rule="nonzero" fill-opacity="1" /><path clip-path="url(#clip160)" d="M112.543 935.868 L130.899 935.868 L130.899 939.803 L116.825 939.803 L116.825 948.276 Q117.844 947.928 118.862 947.766 Q119.881 947.581 120.899 947.581 Q126.686 947.581 130.066 950.752 Q133.445 953.924 133.445 959.34 Q133.445 964.919 129.973 968.021 Q126.501 971.1 120.182 971.1 Q118.006 971.1 115.737 970.729 Q113.492 970.359 111.084 969.618 L111.084 964.919 Q113.168 966.053 115.39 966.609 Q117.612 967.164 120.089 967.164 Q124.094 967.164 126.432 965.058 Q128.769 962.952 128.769 959.34 Q128.769 955.729 126.432 953.623 Q124.094 951.516 120.089 951.516 Q118.214 951.516 116.339 951.933 Q114.487 952.35 112.543 953.229 L112.543 935.868 Z" fill="#000000" fill-rule="nonzero" fill-opacity="1" /><path clip-path="url(#clip160)" d="M152.658 938.947 Q149.047 938.947 147.218 942.512 Q145.413 946.053 145.413 953.183 Q145.413 960.289 147.218 963.854 Q149.047 967.396 152.658 967.396 Q156.292 967.396 158.098 963.854 Q159.927 960.289 159.927 953.183 Q159.927 946.053 158.098 942.512 Q156.292 938.947 152.658 938.947 M152.658 935.243 Q158.468 935.243 161.524 939.85 Q164.603 944.433 164.603 953.183 Q164.603 961.91 161.524 966.516 Q158.468 971.1 152.658 971.1 Q146.848 971.1 143.769 966.516 Q140.714 961.91 140.714 953.183 Q140.714 944.433 143.769 939.85 Q146.848 935.243 152.658 935.243 Z" fill="#000000" fill-rule="nonzero" fill-opacity="1" /><path clip-path="url(#clip160)" d="M182.82 938.947 Q179.209 938.947 177.38 942.512 Q175.575 946.053 175.575 953.183 Q175.575 960.289 177.38 963.854 Q179.209 967.396 182.82 967.396 Q186.454 967.396 188.26 963.854 Q190.089 960.289 190.089 953.183 Q190.089 946.053 188.26 942.512 Q186.454 938.947 182.82 938.947 M182.82 935.243 Q188.63 935.243 191.686 939.85 Q194.765 944.433 194.765 953.183 Q194.765 961.91 191.686 966.516 Q188.63 971.1 182.82 971.1 Q177.01 971.1 173.931 966.516 Q170.876 961.91 170.876 953.183 Q170.876 944.433 173.931 939.85 Q177.01 935.243 182.82 935.243 Z" fill="#000000" fill-rule="nonzero" fill-opacity="1" /><path clip-path="url(#clip160)" d="M50.9921 706.631 L73.2142 706.631 L73.2142 708.622 L60.668 741.191 L55.7838 741.191 L67.5893 710.566 L50.9921 710.566 L50.9921 706.631 Z" fill="#000000" fill-rule="nonzero" fill-opacity="1" /><path clip-path="url(#clip160)" d="M95.1817 710.705 L83.3762 729.154 L95.1817 729.154 L95.1817 710.705 M93.9549 706.631 L99.8345 706.631 L99.8345 729.154 L104.765 729.154 L104.765 733.043 L99.8345 733.043 L99.8345 741.191 L95.1817 741.191 L95.1817 733.043 L79.5799 733.043 L79.5799 728.529 L93.9549 706.631 Z" fill="#000000" fill-rule="nonzero" fill-opacity="1" /><path clip-path="url(#clip160)" d="M122.496 709.71 Q118.885 709.71 117.057 713.274 Q115.251 716.816 115.251 723.946 Q115.251 731.052 117.057 734.617 Q118.885 738.159 122.496 738.159 Q126.131 738.159 127.936 734.617 Q129.765 731.052 129.765 723.946 Q129.765 716.816 127.936 713.274 Q126.131 709.71 122.496 709.71 M122.496 706.006 Q128.307 706.006 131.362 710.612 Q134.441 715.196 134.441 723.946 Q134.441 732.672 131.362 737.279 Q128.307 741.862 122.496 741.862 Q116.686 741.862 113.608 737.279 Q110.552 732.672 110.552 723.946 Q110.552 715.196 113.608 710.612 Q116.686 706.006 122.496 706.006 Z" fill="#000000" fill-rule="nonzero" fill-opacity="1" /><path clip-path="url(#clip160)" d="M152.658 709.71 Q149.047 709.71 147.218 713.274 Q145.413 716.816 145.413 723.946 Q145.413 731.052 147.218 734.617 Q149.047 738.159 152.658 738.159 Q156.292 738.159 158.098 734.617 Q159.927 731.052 159.927 723.946 Q159.927 716.816 158.098 713.274 Q156.292 709.71 152.658 709.71 M152.658 706.006 Q158.468 706.006 161.524 710.612 Q164.603 715.196 164.603 723.946 Q164.603 732.672 161.524 737.279 Q158.468 741.862 152.658 741.862 Q146.848 741.862 143.769 737.279 Q140.714 732.672 140.714 723.946 Q140.714 715.196 143.769 710.612 Q146.848 706.006 152.658 706.006 Z" fill="#000000" fill-rule="nonzero" fill-opacity="1" /><path clip-path="url(#clip160)" d="M182.82 709.71 Q179.209 709.71 177.38 713.274 Q175.575 716.816 175.575 723.946 Q175.575 731.052 177.38 734.617 Q179.209 738.159 182.82 738.159 Q186.454 738.159 188.26 734.617 Q190.089 731.052 190.089 723.946 Q190.089 716.816 188.26 713.274 Q186.454 709.71 182.82 709.71 M182.82 706.006 Q188.63 706.006 191.686 710.612 Q194.765 715.196 194.765 723.946 Q194.765 732.672 191.686 737.279 Q188.63 741.862 182.82 741.862 Q177.01 741.862 173.931 737.279 Q170.876 732.672 170.876 723.946 Q170.876 715.196 173.931 710.612 Q177.01 706.006 182.82 706.006 Z" fill="#000000" fill-rule="nonzero" fill-opacity="1" /><path clip-path="url(#clip160)" d="M50.9921 477.394 L73.2142 477.394 L73.2142 479.384 L60.668 511.954 L55.7838 511.954 L67.5893 481.329 L50.9921 481.329 L50.9921 477.394 Z" fill="#000000" fill-rule="nonzero" fill-opacity="1" /><path clip-path="url(#clip160)" d="M95.1817 481.468 L83.3762 499.917 L95.1817 499.917 L95.1817 481.468 M93.9549 477.394 L99.8345 477.394 L99.8345 499.917 L104.765 499.917 L104.765 503.806 L99.8345 503.806 L99.8345 511.954 L95.1817 511.954 L95.1817 503.806 L79.5799 503.806 L79.5799 499.292 L93.9549 477.394 Z" fill="#000000" fill-rule="nonzero" fill-opacity="1" /><path clip-path="url(#clip160)" d="M112.543 477.394 L130.899 477.394 L130.899 481.329 L116.825 481.329 L116.825 489.801 Q117.844 489.454 118.862 489.292 Q119.881 489.107 120.899 489.107 Q126.686 489.107 130.066 492.278 Q133.445 495.449 133.445 500.866 Q133.445 506.444 129.973 509.546 Q126.501 512.625 120.182 512.625 Q118.006 512.625 115.737 512.255 Q113.492 511.884 111.084 511.143 L111.084 506.444 Q113.168 507.579 115.39 508.134 Q117.612 508.69 120.089 508.69 Q124.094 508.69 126.432 506.583 Q128.769 504.477 128.769 500.866 Q128.769 497.255 126.432 495.148 Q124.094 493.042 120.089 493.042 Q118.214 493.042 116.339 493.458 Q114.487 493.875 112.543 494.755 L112.543 477.394 Z" fill="#000000" fill-rule="nonzero" fill-opacity="1" /><path clip-path="url(#clip160)" d="M152.658 480.472 Q149.047 480.472 147.218 484.037 Q145.413 487.579 145.413 494.708 Q145.413 501.815 147.218 505.38 Q149.047 508.921 152.658 508.921 Q156.292 508.921 158.098 505.38 Q159.927 501.815 159.927 494.708 Q159.927 487.579 158.098 484.037 Q156.292 480.472 152.658 480.472 M152.658 476.769 Q158.468 476.769 161.524 481.375 Q164.603 485.958 164.603 494.708 Q164.603 503.435 161.524 508.042 Q158.468 512.625 152.658 512.625 Q146.848 512.625 143.769 508.042 Q140.714 503.435 140.714 494.708 Q140.714 485.958 143.769 481.375 Q146.848 476.769 152.658 476.769 Z" fill="#000000" fill-rule="nonzero" fill-opacity="1" /><path clip-path="url(#clip160)" d="M182.82 480.472 Q179.209 480.472 177.38 484.037 Q175.575 487.579 175.575 494.708 Q175.575 501.815 177.38 505.38 Q179.209 508.921 182.82 508.921 Q186.454 508.921 188.26 505.38 Q190.089 501.815 190.089 494.708 Q190.089 487.579 188.26 484.037 Q186.454 480.472 182.82 480.472 M182.82 476.769 Q188.63 476.769 191.686 481.375 Q194.765 485.958 194.765 494.708 Q194.765 503.435 191.686 508.042 Q188.63 512.625 182.82 512.625 Q177.01 512.625 173.931 508.042 Q170.876 503.435 170.876 494.708 Q170.876 485.958 173.931 481.375 Q177.01 476.769 182.82 476.769 Z" fill="#000000" fill-rule="nonzero" fill-opacity="1" /><path clip-path="url(#clip160)" d="M50.9921 248.156 L73.2142 248.156 L73.2142 250.147 L60.668 282.716 L55.7838 282.716 L67.5893 252.091 L50.9921 252.091 L50.9921 248.156 Z" fill="#000000" fill-rule="nonzero" fill-opacity="1" /><path clip-path="url(#clip160)" d="M82.3808 248.156 L100.737 248.156 L100.737 252.091 L86.6632 252.091 L86.6632 260.564 Q87.6817 260.216 88.7003 260.054 Q89.7188 259.869 90.7373 259.869 Q96.5243 259.869 99.9039 263.04 Q103.284 266.212 103.284 271.628 Q103.284 277.207 99.8113 280.309 Q96.3391 283.388 90.0197 283.388 Q87.8438 283.388 85.5753 283.017 Q83.3299 282.647 80.9225 281.906 L80.9225 277.207 Q83.0058 278.341 85.2281 278.897 Q87.4503 279.452 89.9271 279.452 Q93.9317 279.452 96.2697 277.346 Q98.6076 275.239 98.6076 271.628 Q98.6076 268.017 96.2697 265.911 Q93.9317 263.804 89.9271 263.804 Q88.0521 263.804 86.1771 264.221 Q84.3253 264.638 82.3808 265.517 L82.3808 248.156 Z" fill="#000000" fill-rule="nonzero" fill-opacity="1" /><path clip-path="url(#clip160)" d="M122.496 251.235 Q118.885 251.235 117.057 254.8 Q115.251 258.341 115.251 265.471 Q115.251 272.577 117.057 276.142 Q118.885 279.684 122.496 279.684 Q126.131 279.684 127.936 276.142 Q129.765 272.577 129.765 265.471 Q129.765 258.341 127.936 254.8 Q126.131 251.235 122.496 251.235 M122.496 247.531 Q128.307 247.531 131.362 252.138 Q134.441 256.721 134.441 265.471 Q134.441 274.198 131.362 278.804 Q128.307 283.388 122.496 283.388 Q116.686 283.388 113.608 278.804 Q110.552 274.198 110.552 265.471 Q110.552 256.721 113.608 252.138 Q116.686 247.531 122.496 247.531 Z" fill="#000000" fill-rule="nonzero" fill-opacity="1" /><path clip-path="url(#clip160)" d="M152.658 251.235 Q149.047 251.235 147.218 254.8 Q145.413 258.341 145.413 265.471 Q145.413 272.577 147.218 276.142 Q149.047 279.684 152.658 279.684 Q156.292 279.684 158.098 276.142 Q159.927 272.577 159.927 265.471 Q159.927 258.341 158.098 254.8 Q156.292 251.235 152.658 251.235 M152.658 247.531 Q158.468 247.531 161.524 252.138 Q164.603 256.721 164.603 265.471 Q164.603 274.198 161.524 278.804 Q158.468 283.388 152.658 283.388 Q146.848 283.388 143.769 278.804 Q140.714 274.198 140.714 265.471 Q140.714 256.721 143.769 252.138 Q146.848 247.531 152.658 247.531 Z" fill="#000000" fill-rule="nonzero" fill-opacity="1" /><path clip-path="url(#clip160)" d="M182.82 251.235 Q179.209 251.235 177.38 254.8 Q175.575 258.341 175.575 265.471 Q175.575 272.577 177.38 276.142 Q179.209 279.684 182.82 279.684 Q186.454 279.684 188.26 276.142 Q190.089 272.577 190.089 265.471 Q190.089 258.341 188.26 254.8 Q186.454 251.235 182.82 251.235 M182.82 247.531 Q188.63 247.531 191.686 252.138 Q194.765 256.721 194.765 265.471 Q194.765 274.198 191.686 278.804 Q188.63 283.388 182.82 283.388 Q177.01 283.388 173.931 278.804 Q170.876 274.198 170.876 265.471 Q170.876 256.721 173.931 252.138 Q177.01 247.531 182.82 247.531 Z" fill="#000000" fill-rule="nonzero" fill-opacity="1" /><path clip-path="url(#clip160)" d="M1262.23 35.2602 Q1262.23 29.4732 1259.83 26.2904 Q1257.46 23.1075 1253.15 23.1075 Q1248.86 23.1075 1246.46 26.2904 Q1244.09 29.4732 1244.09 35.2602 Q1244.09 41.0183 1246.46 44.2012 Q1248.86 47.384 1253.15 47.384 Q1257.46 47.384 1259.83 44.2012 Q1262.23 41.0183 1262.23 35.2602 M1267.56 47.818 Q1267.56 56.0934 1263.88 60.1154 Q1260.21 64.1663 1252.63 64.1663 Q1249.82 64.1663 1247.33 63.7323 Q1244.84 63.3272 1242.5 62.4592 L1242.5 57.2798 Q1244.84 58.5529 1247.13 59.1606 Q1249.41 59.7682 1251.79 59.7682 Q1257.02 59.7682 1259.63 57.0194 Q1262.23 54.2995 1262.23 48.7729 L1262.23 46.1398 Q1260.58 49.0044 1258.01 50.4222 Q1255.43 51.84 1251.84 51.84 Q1245.88 51.84 1242.24 47.2972 Q1238.59 42.7544 1238.59 35.2602 Q1238.59 27.7371 1242.24 23.1943 Q1245.88 18.6515 1251.84 18.6515 Q1255.43 18.6515 1258.01 20.0693 Q1260.58 21.4872 1262.23 24.3517 L1262.23 19.4328 L1267.56 19.4328 L1267.56 47.818 Z" fill="#000000" fill-rule="nonzero" fill-opacity="1" /><path clip-path="url(#clip160)" d="M1299.85 24.3517 L1299.85 6.81709 L1305.17 6.81709 L1305.17 51.84 L1299.85 51.84 L1299.85 46.9789 Q1298.17 49.8724 1295.59 51.2902 Q1293.05 52.6791 1289.46 52.6791 Q1283.59 52.6791 1279.88 47.9916 Q1276.21 43.3042 1276.21 35.6653 Q1276.21 28.0265 1279.88 23.339 Q1283.59 18.6515 1289.46 18.6515 Q1293.05 18.6515 1295.59 20.0693 Q1298.17 21.4582 1299.85 24.3517 M1281.71 35.6653 Q1281.71 41.5391 1284.11 44.8956 Q1286.54 48.2231 1290.76 48.2231 Q1294.99 48.2231 1297.42 44.8956 Q1299.85 41.5391 1299.85 35.6653 Q1299.85 29.7915 1297.42 26.464 Q1294.99 23.1075 1290.76 23.1075 Q1286.54 23.1075 1284.11 26.464 Q1281.71 29.7915 1281.71 35.6653 Z" fill="#000000" fill-rule="nonzero" fill-opacity="1" /><path clip-path="url(#clip160)" d="M1321.29 46.9789 L1321.29 64.1663 L1315.94 64.1663 L1315.94 19.4328 L1321.29 19.4328 L1321.29 24.3517 Q1322.97 21.4582 1325.51 20.0693 Q1328.09 18.6515 1331.65 18.6515 Q1337.55 18.6515 1341.22 23.339 Q1344.93 28.0265 1344.93 35.6653 Q1344.93 43.3042 1341.22 47.9916 Q1337.55 52.6791 1331.65 52.6791 Q1328.09 52.6791 1325.51 51.2902 Q1322.97 49.8724 1321.29 46.9789 M1339.4 35.6653 Q1339.4 29.7915 1336.97 26.464 Q1334.57 23.1075 1330.35 23.1075 Q1326.12 23.1075 1323.69 26.464 Q1321.29 29.7915 1321.29 35.6653 Q1321.29 41.5391 1323.69 44.8956 Q1326.12 48.2231 1330.35 48.2231 Q1334.57 48.2231 1336.97 44.8956 Q1339.4 41.5391 1339.4 35.6653 Z" fill="#000000" fill-rule="nonzero" fill-opacity="1" /><polyline clip-path="url(#clip162)" style="stroke:#009af9; stroke-linecap:round; stroke-linejoin:round; stroke-width:4; stroke-opacity:1; fill:none" points="290.821,1447.38 415.938,1366.82 541.056,1331.35 666.173,1079.47 791.291,1186.18 916.408,1174.63 1041.53,1150.36 1166.64,916.788 1291.76,702.312 1416.88,732.625 1542,386.917 1667.11,406.019 1792.23,510.417 1917.35,386.963 2042.46,578.261 2167.58,513.129 2292.7,145.256 "/>
<path clip-path="url(#clip160)" d="M301.498 255.881 L566.127 255.881 L566.127 152.201 L301.498 152.201  Z" fill="#ffffff" fill-rule="evenodd" fill-opacity="1"/>
<polyline clip-path="url(#clip160)" style="stroke:#000000; stroke-linecap:round; stroke-linejoin:round; stroke-width:4; stroke-opacity:1; fill:none" points="301.498,255.881 566.127,255.881 566.127,152.201 301.498,152.201 301.498,255.881 "/>
<polyline clip-path="url(#clip160)" style="stroke:#009af9; stroke-linecap:round; stroke-linejoin:round; stroke-width:4; stroke-opacity:1; fill:none" points="325.075,204.041 466.541,204.041 "/>
<path clip-path="url(#clip160)" d="M503.962 223.728 Q502.156 228.358 500.443 229.77 Q498.73 231.182 495.86 231.182 L492.457 231.182 L492.457 227.617 L494.957 227.617 Q496.716 227.617 497.688 226.784 Q498.661 225.95 499.841 222.848 L500.605 220.904 L490.119 195.395 L494.633 195.395 L502.735 215.673 L510.836 195.395 L515.35 195.395 L503.962 223.728 Z" fill="#000000" fill-rule="nonzero" fill-opacity="1" /><path clip-path="url(#clip160)" d="M522.642 217.385 L530.281 217.385 L530.281 191.02 L521.971 192.687 L521.971 188.427 L530.235 186.761 L534.91 186.761 L534.91 217.385 L542.549 217.385 L542.549 221.321 L522.642 221.321 L522.642 217.385 Z" fill="#000000" fill-rule="nonzero" fill-opacity="1" /></svg>
