<?xml version="1.0" encoding="utf-8"?>
<svg xmlns="http://www.w3.org/2000/svg" xmlns:xlink="http://www.w3.org/1999/xlink" width="600" height="400" viewBox="0 0 2400 1600">
<defs>
  <clipPath id="clip850">
    <rect x="0" y="0" width="2400" height="1600"/>
  </clipPath>
</defs>
<path clip-path="url(#clip850)" d="M0 1600 L2400 1600 L2400 0 L0 0  Z" fill="#ffffff" fill-rule="evenodd" fill-opacity="1"/>
<defs>
  <clipPath id="clip851">
    <rect x="480" y="0" width="1681" height="1600"/>
  </clipPath>
</defs>
<path clip-path="url(#clip850)" d="M200.88 1486.45 L2352.76 1486.45 L2352.76 47.2441 L200.88 47.2441  Z" fill="#ffffff" fill-rule="evenodd" fill-opacity="1"/>
<defs>
  <clipPath id="clip852">
    <rect x="200" y="47" width="2153" height="1440"/>
  </clipPath>
</defs>
<polyline clip-path="url(#clip852)" style="stroke:#000000; stroke-linecap:round; stroke-linejoin:round; stroke-width:2; stroke-opacity:0.1; fill:none" points="667.797,1486.45 667.797,47.2441 "/>
<polyline clip-path="url(#clip852)" style="stroke:#000000; stroke-linecap:round; stroke-linejoin:round; stroke-width:2; stroke-opacity:0.1; fill:none" points="1175.31,1486.45 1175.31,47.2441 "/>
<polyline clip-path="url(#clip852)" style="stroke:#000000; stroke-linecap:round; stroke-linejoin:round; stroke-width:2; stroke-opacity:0.1; fill:none" points="1682.83,1486.45 1682.83,47.2441 "/>
<polyline clip-path="url(#clip852)" style="stroke:#000000; stroke-linecap:round; stroke-linejoin:round; stroke-width:2; stroke-opacity:0.1; fill:none" points="2190.35,1486.45 2190.35,47.2441 "/>
<polyline clip-path="url(#clip852)" style="stroke:#000000; stroke-linecap:round; stroke-linejoin:round; stroke-width:2; stroke-opacity:0.1; fill:none" points="200.88,1283.78 2352.76,1283.78 "/>
<polyline clip-path="url(#clip852)" style="stroke:#000000; stroke-linecap:round; stroke-linejoin:round; stroke-width:2; stroke-opacity:0.1; fill:none" points="200.88,972.375 2352.76,972.375 "/>
<polyline clip-path="url(#clip852)" style="stroke:#000000; stroke-linecap:round; stroke-linejoin:round; stroke-width:2; stroke-opacity:0.1; fill:none" points="200.88,660.967 2352.76,660.967 "/>
<polyline clip-path="url(#clip852)" style="stroke:#000000; stroke-linecap:round; stroke-linejoin:round; stroke-width:2; stroke-opacity:0.1; fill:none" points="200.88,349.559 2352.76,349.559 "/>
<polyline clip-path="url(#clip850)" style="stroke:#000000; stroke-linecap:round; stroke-linejoin:round; stroke-width:4; stroke-opacity:1; fill:none" points="200.88,1486.45 2352.76,1486.45 "/>
<polyline clip-path="url(#clip850)" style="stroke:#000000; stroke-linecap:round; stroke-linejoin:round; stroke-width:4; stroke-opacity:1; fill:none" points="667.797,1486.45 667.797,1467.55 "/>
<polyline clip-path="url(#clip850)" style="stroke:#000000; stroke-linecap:round; stroke-linejoin:round; stroke-width:4; stroke-opacity:1; fill:none" points="1175.31,1486.45 1175.31,1467.55 "/>
<polyline clip-path="url(#clip850)" style="stroke:#000000; stroke-linecap:round; stroke-linejoin:round; stroke-width:4; stroke-opacity:1; fill:none" points="1682.83,1486.45 1682.83,1467.55 "/>
<polyline clip-path="url(#clip850)" style="stroke:#000000; stroke-linecap:round; stroke-linejoin:round; stroke-width:4; stroke-opacity:1; fill:none" points="2190.35,1486.45 2190.35,1467.55 "/>
<path clip-path="url(#clip850)" d="M658.075 1514.29 L676.431 1514.29 L676.431 1518.22 L662.357 1518.22 L662.357 1526.7 Q663.376 1526.35 664.394 1526.19 Q665.413 1526 666.431 1526 Q672.218 1526 675.598 1529.17 Q678.977 1532.34 678.977 1537.76 Q678.977 1543.34 675.505 1546.44 Q672.033 1549.52 665.713 1549.52 Q663.538 1549.52 661.269 1549.15 Q659.024 1548.78 656.616 1548.04 L656.616 1543.34 Q658.7 1544.47 660.922 1545.03 Q663.144 1545.58 665.621 1545.58 Q669.625 1545.58 671.963 1543.48 Q674.301 1541.37 674.301 1537.76 Q674.301 1534.15 671.963 1532.04 Q669.625 1529.94 665.621 1529.94 Q663.746 1529.94 661.871 1530.35 Q660.019 1530.77 658.075 1531.65 L658.075 1514.29 Z" fill="#000000" fill-rule="nonzero" fill-opacity="1" /><path clip-path="url(#clip850)" d="M1150 1544.91 L1157.64 1544.91 L1157.64 1518.55 L1149.33 1520.21 L1149.33 1515.95 L1157.59 1514.29 L1162.27 1514.29 L1162.27 1544.91 L1169.91 1544.91 L1169.91 1548.85 L1150 1548.85 L1150 1544.91 Z" fill="#000000" fill-rule="nonzero" fill-opacity="1" /><path clip-path="url(#clip850)" d="M1189.35 1517.37 Q1185.74 1517.37 1183.91 1520.93 Q1182.11 1524.47 1182.11 1531.6 Q1182.11 1538.71 1183.91 1542.27 Q1185.74 1545.82 1189.35 1545.82 Q1192.99 1545.82 1194.79 1542.27 Q1196.62 1538.71 1196.62 1531.6 Q1196.62 1524.47 1194.79 1520.93 Q1192.99 1517.37 1189.35 1517.37 M1189.35 1513.66 Q1195.16 1513.66 1198.22 1518.27 Q1201.3 1522.85 1201.3 1531.6 Q1201.3 1540.33 1198.22 1544.94 Q1195.16 1549.52 1189.35 1549.52 Q1183.54 1549.52 1180.47 1544.94 Q1177.41 1540.33 1177.41 1531.6 Q1177.41 1522.85 1180.47 1518.27 Q1183.54 1513.66 1189.35 1513.66 Z" fill="#000000" fill-rule="nonzero" fill-opacity="1" /><path clip-path="url(#clip850)" d="M1658.02 1544.91 L1665.66 1544.91 L1665.66 1518.55 L1657.35 1520.21 L1657.35 1515.95 L1665.61 1514.29 L1670.29 1514.29 L1670.29 1544.91 L1677.93 1544.91 L1677.93 1548.85 L1658.02 1548.85 L1658.02 1544.91 Z" fill="#000000" fill-rule="nonzero" fill-opacity="1" /><path clip-path="url(#clip850)" d="M1687.42 1514.29 L1705.77 1514.29 L1705.77 1518.22 L1691.7 1518.22 L1691.7 1526.7 Q1692.72 1526.35 1693.74 1526.19 Q1694.75 1526 1695.77 1526 Q1701.56 1526 1704.94 1529.17 Q1708.32 1532.34 1708.32 1537.76 Q1708.32 1543.34 1704.85 1546.44 Q1701.37 1549.52 1695.05 1549.52 Q1692.88 1549.52 1690.61 1549.15 Q1688.36 1548.78 1685.96 1548.04 L1685.96 1543.34 Q1688.04 1544.47 1690.26 1545.03 Q1692.49 1545.58 1694.96 1545.58 Q1698.97 1545.58 1701.3 1543.48 Q1703.64 1541.37 1703.64 1537.76 Q1703.64 1534.15 1701.3 1532.04 Q1698.97 1529.94 1694.96 1529.94 Q1693.09 1529.94 1691.21 1530.35 Q1689.36 1530.77 1687.42 1531.65 L1687.42 1514.29 Z" fill="#000000" fill-rule="nonzero" fill-opacity="1" /><path clip-path="url(#clip850)" d="M2169.12 1544.91 L2185.44 1544.91 L2185.44 1548.85 L2163.5 1548.85 L2163.5 1544.91 Q2166.16 1542.16 2170.74 1537.53 Q2175.35 1532.88 2176.53 1531.53 Q2178.78 1529.01 2179.66 1527.27 Q2180.56 1525.51 2180.56 1523.82 Q2180.56 1521.07 2178.61 1519.33 Q2176.69 1517.6 2173.59 1517.6 Q2171.39 1517.6 2168.94 1518.36 Q2166.51 1519.13 2163.73 1520.68 L2163.73 1515.95 Q2166.55 1514.82 2169.01 1514.24 Q2171.46 1513.66 2173.5 1513.66 Q2178.87 1513.66 2182.06 1516.35 Q2185.26 1519.03 2185.26 1523.52 Q2185.26 1525.65 2184.45 1527.57 Q2183.66 1529.47 2181.55 1532.07 Q2180.98 1532.74 2177.87 1535.95 Q2174.77 1539.15 2169.12 1544.91 Z" fill="#000000" fill-rule="nonzero" fill-opacity="1" /><path clip-path="url(#clip850)" d="M2205.26 1517.37 Q2201.65 1517.37 2199.82 1520.93 Q2198.01 1524.47 2198.01 1531.6 Q2198.01 1538.71 2199.82 1542.27 Q2201.65 1545.82 2205.26 1545.82 Q2208.89 1545.82 2210.7 1542.27 Q2212.53 1538.71 2212.53 1531.6 Q2212.53 1524.47 2210.7 1520.93 Q2208.89 1517.37 2205.26 1517.37 M2205.26 1513.66 Q2211.07 1513.66 2214.12 1518.27 Q2217.2 1522.85 2217.2 1531.6 Q2217.2 1540.33 2214.12 1544.94 Q2211.07 1549.52 2205.26 1549.52 Q2199.45 1549.52 2196.37 1544.94 Q2193.31 1540.33 2193.31 1531.6 Q2193.31 1522.85 2196.37 1518.27 Q2199.45 1513.66 2205.26 1513.66 Z" fill="#000000" fill-rule="nonzero" fill-opacity="1" /><polyline clip-path="url(#clip850)" style="stroke:#000000; stroke-linecap:round; stroke-linejoin:round; stroke-width:4; stroke-opacity:1; fill:none" points="200.88,1486.45 200.88,47.2441 "/>
<polyline clip-path="url(#clip850)" style="stroke:#000000; stroke-linecap:round; stroke-linejoin:round; stroke-width:4; stroke-opacity:1; fill:none" points="200.88,1283.78 219.778,1283.78 "/>
<polyline clip-path="url(#clip850)" style="stroke:#000000; stroke-linecap:round; stroke-linejoin:round; stroke-width:4; stroke-opacity:1; fill:none" points="200.88,972.375 219.778,972.375 "/>
<polyline clip-path="url(#clip850)" style="stroke:#000000; stroke-linecap:round; stroke-linejoin:round; stroke-width:4; stroke-opacity:1; fill:none" points="200.88,660.967 219.778,660.967 "/>
<polyline clip-path="url(#clip850)" style="stroke:#000000; stroke-linecap:round; stroke-linejoin:round; stroke-width:4; stroke-opacity:1; fill:none" points="200.88,349.559 219.778,349.559 "/>
<path clip-path="url(#clip850)" d="M67.6124 1282.43 Q70.9689 1283.15 72.8439 1285.42 Q74.742 1287.68 74.742 1291.02 Q74.742 1296.13 71.2235 1298.93 Q67.705 1301.73 61.2236 1301.73 Q59.0476 1301.73 56.7328 1301.29 Q54.4412 1300.88 51.9875 1300.02 L51.9875 1295.51 Q53.9319 1296.64 56.2467 1297.22 Q58.5615 1297.8 61.0847 1297.8 Q65.4828 1297.8 67.7744 1296.06 Q70.0892 1294.33 70.0892 1291.02 Q70.0892 1287.96 67.9365 1286.25 Q65.8069 1284.51 61.9874 1284.51 L57.9597 1284.51 L57.9597 1280.67 L62.1726 1280.67 Q65.6217 1280.67 67.4504 1279.3 Q69.2791 1277.92 69.2791 1275.32 Q69.2791 1272.66 67.3809 1271.25 Q65.5059 1269.81 61.9874 1269.81 Q60.0662 1269.81 57.8671 1270.23 Q55.668 1270.65 53.0292 1271.53 L53.0292 1267.36 Q55.6912 1266.62 58.006 1266.25 Q60.3439 1265.88 62.4041 1265.88 Q67.7281 1265.88 70.83 1268.31 Q73.9318 1270.72 73.9318 1274.84 Q73.9318 1277.71 72.2883 1279.7 Q70.6448 1281.67 67.6124 1282.43 Z" fill="#000000" fill-rule="nonzero" fill-opacity="1" /><path clip-path="url(#clip850)" d="M93.6076 1284.65 Q90.2743 1284.65 88.353 1286.43 Q86.4549 1288.22 86.4549 1291.34 Q86.4549 1294.47 88.353 1296.25 Q90.2743 1298.03 93.6076 1298.03 Q96.941 1298.03 98.8622 1296.25 Q100.784 1294.44 100.784 1291.34 Q100.784 1288.22 98.8622 1286.43 Q96.9641 1284.65 93.6076 1284.65 M88.9317 1282.66 Q85.9225 1281.92 84.2327 1279.86 Q82.566 1277.8 82.566 1274.84 Q82.566 1270.69 85.5058 1268.29 Q88.4688 1265.88 93.6076 1265.88 Q98.7696 1265.88 101.709 1268.29 Q104.649 1270.69 104.649 1274.84 Q104.649 1277.8 102.959 1279.86 Q101.293 1281.92 98.3067 1282.66 Q101.686 1283.45 103.561 1285.74 Q105.459 1288.03 105.459 1291.34 Q105.459 1296.36 102.381 1299.05 Q99.3252 1301.73 93.6076 1301.73 Q87.8901 1301.73 84.8114 1299.05 Q81.7559 1296.36 81.7559 1291.34 Q81.7559 1288.03 83.654 1285.74 Q85.5521 1283.45 88.9317 1282.66 M87.2188 1275.28 Q87.2188 1277.96 88.8854 1279.47 Q90.5752 1280.97 93.6076 1280.97 Q96.6169 1280.97 98.3067 1279.47 Q100.02 1277.96 100.02 1275.28 Q100.02 1272.59 98.3067 1271.09 Q96.6169 1269.58 93.6076 1269.58 Q90.5752 1269.58 88.8854 1271.09 Q87.2188 1272.59 87.2188 1275.28 Z" fill="#000000" fill-rule="nonzero" fill-opacity="1" /><path clip-path="url(#clip850)" d="M112.589 1266.5 L134.811 1266.5 L134.811 1268.49 L122.265 1301.06 L117.381 1301.06 L129.186 1270.44 L112.589 1270.44 L112.589 1266.5 Z" fill="#000000" fill-rule="nonzero" fill-opacity="1" /><path clip-path="url(#clip850)" d="M143.978 1266.5 L162.334 1266.5 L162.334 1270.44 L148.26 1270.44 L148.26 1278.91 Q149.279 1278.56 150.297 1278.4 Q151.316 1278.22 152.334 1278.22 Q158.121 1278.22 161.501 1281.39 Q164.88 1284.56 164.88 1289.98 Q164.88 1295.55 161.408 1298.66 Q157.936 1301.73 151.617 1301.73 Q149.441 1301.73 147.172 1301.36 Q144.927 1300.99 142.519 1300.25 L142.519 1295.55 Q144.603 1296.69 146.825 1297.24 Q149.047 1297.8 151.524 1297.8 Q155.529 1297.8 157.867 1295.69 Q160.205 1293.59 160.205 1289.98 Q160.205 1286.36 157.867 1284.26 Q155.529 1282.15 151.524 1282.15 Q149.649 1282.15 147.774 1282.57 Q145.922 1282.98 143.978 1283.86 L143.978 1266.5 Z" fill="#000000" fill-rule="nonzero" fill-opacity="1" /><path clip-path="url(#clip850)" d="M66.617 971.021 Q69.9735 971.739 71.8485 974.007 Q73.7466 976.276 73.7466 979.609 Q73.7466 984.725 70.2281 987.526 Q66.7096 990.327 60.2282 990.327 Q58.0523 990.327 55.7375 989.887 Q53.4458 989.47 50.9921 988.614 L50.9921 984.1 Q52.9366 985.234 55.2514 985.813 Q57.5662 986.391 60.0893 986.391 Q64.4874 986.391 66.7791 984.655 Q69.0939 982.919 69.0939 979.609 Q69.0939 976.554 66.9411 974.841 Q64.8115 973.105 60.9921 973.105 L56.9643 973.105 L56.9643 969.262 L61.1773 969.262 Q64.6263 969.262 66.455 967.896 Q68.2837 966.507 68.2837 963.915 Q68.2837 961.253 66.3856 959.841 Q64.5106 958.406 60.9921 958.406 Q59.0708 958.406 56.8717 958.822 Q54.6727 959.239 52.0338 960.118 L52.0338 955.952 Q54.6958 955.211 57.0106 954.841 Q59.3486 954.47 61.4087 954.47 Q66.7328 954.47 69.8346 956.901 Q72.9365 959.308 72.9365 963.429 Q72.9365 966.299 71.2929 968.29 Q69.6494 970.257 66.617 971.021 Z" fill="#000000" fill-rule="nonzero" fill-opacity="1" /><path clip-path="url(#clip850)" d="M82.7512 988.938 L82.7512 984.679 Q84.5105 985.512 86.316 985.952 Q88.1216 986.391 89.8577 986.391 Q94.4873 986.391 96.9178 983.29 Q99.3715 980.165 99.7187 973.822 Q98.3761 975.813 96.316 976.878 Q94.2558 977.942 91.7558 977.942 Q86.5706 977.942 83.5382 974.817 Q80.529 971.669 80.529 966.23 Q80.529 960.905 83.6771 957.688 Q86.8253 954.47 92.0567 954.47 Q98.0521 954.47 101.2 959.077 Q104.371 963.66 104.371 972.41 Q104.371 980.581 100.483 985.466 Q96.6169 990.327 90.066 990.327 Q88.3067 990.327 86.5012 989.979 Q84.6956 989.632 82.7512 988.938 M92.0567 974.285 Q95.2049 974.285 97.0335 972.132 Q98.8854 969.98 98.8854 966.23 Q98.8854 962.503 97.0335 960.35 Q95.2049 958.174 92.0567 958.174 Q88.9086 958.174 87.0567 960.35 Q85.2281 962.503 85.2281 966.23 Q85.2281 969.98 87.0567 972.132 Q88.9086 974.285 92.0567 974.285 Z" fill="#000000" fill-rule="nonzero" fill-opacity="1" /><path clip-path="url(#clip850)" d="M122.774 958.174 Q119.163 958.174 117.334 961.739 Q115.529 965.28 115.529 972.41 Q115.529 979.517 117.334 983.081 Q119.163 986.623 122.774 986.623 Q126.408 986.623 128.214 983.081 Q130.043 979.517 130.043 972.41 Q130.043 965.28 128.214 961.739 Q126.408 958.174 122.774 958.174 M122.774 954.47 Q128.584 954.47 131.64 959.077 Q134.719 963.66 134.719 972.41 Q134.719 981.137 131.64 985.743 Q128.584 990.327 122.774 990.327 Q116.964 990.327 113.885 985.743 Q110.83 981.137 110.83 972.41 Q110.83 963.66 113.885 959.077 Q116.964 954.47 122.774 954.47 Z" fill="#000000" fill-rule="nonzero" fill-opacity="1" /><path clip-path="url(#clip850)" d="M152.936 958.174 Q149.325 958.174 147.496 961.739 Q145.691 965.28 145.691 972.41 Q145.691 979.517 147.496 983.081 Q149.325 986.623 152.936 986.623 Q156.57 986.623 158.376 983.081 Q160.205 979.517 160.205 972.41 Q160.205 965.28 158.376 961.739 Q156.57 958.174 152.936 958.174 M152.936 954.47 Q158.746 954.47 161.802 959.077 Q164.88 963.66 164.88 972.41 Q164.88 981.137 161.802 985.743 Q158.746 990.327 152.936 990.327 Q147.126 990.327 144.047 985.743 Q140.992 981.137 140.992 972.41 Q140.992 963.66 144.047 959.077 Q147.126 954.47 152.936 954.47 Z" fill="#000000" fill-rule="nonzero" fill-opacity="1" /><path clip-path="url(#clip850)" d="M67.6124 659.613 Q70.9689 660.331 72.8439 662.599 Q74.742 664.868 74.742 668.201 Q74.742 673.317 71.2235 676.118 Q67.705 678.919 61.2236 678.919 Q59.0476 678.919 56.7328 678.479 Q54.4412 678.062 51.9875 677.206 L51.9875 672.692 Q53.9319 673.826 56.2467 674.405 Q58.5615 674.983 61.0847 674.983 Q65.4828 674.983 67.7744 673.247 Q70.0892 671.511 70.0892 668.201 Q70.0892 665.145 67.9365 663.432 Q65.8069 661.696 61.9874 661.696 L57.9597 661.696 L57.9597 657.854 L62.1726 657.854 Q65.6217 657.854 67.4504 656.488 Q69.2791 655.099 69.2791 652.507 Q69.2791 649.845 67.3809 648.433 Q65.5059 646.997 61.9874 646.997 Q60.0662 646.997 57.8671 647.414 Q55.668 647.831 53.0292 648.71 L53.0292 644.544 Q55.6912 643.803 58.006 643.433 Q60.3439 643.062 62.4041 643.062 Q67.7281 643.062 70.83 645.493 Q73.9318 647.9 73.9318 652.021 Q73.9318 654.891 72.2883 656.882 Q70.6448 658.849 67.6124 659.613 Z" fill="#000000" fill-rule="nonzero" fill-opacity="1" /><path clip-path="url(#clip850)" d="M83.7466 677.53 L83.7466 673.27 Q85.5058 674.104 87.3114 674.544 Q89.1169 674.983 90.853 674.983 Q95.4826 674.983 97.9132 671.882 Q100.367 668.757 100.714 662.414 Q99.3715 664.405 97.3113 665.47 Q95.2511 666.534 92.7512 666.534 Q87.566 666.534 84.5336 663.409 Q81.5244 660.261 81.5244 654.821 Q81.5244 649.497 84.6725 646.28 Q87.8206 643.062 93.0521 643.062 Q99.0474 643.062 102.196 647.669 Q105.367 652.252 105.367 661.002 Q105.367 669.173 101.478 674.057 Q97.6122 678.919 91.0614 678.919 Q89.3021 678.919 87.4966 678.571 Q85.691 678.224 83.7466 677.53 M93.0521 662.877 Q96.2002 662.877 98.0289 660.724 Q99.8808 658.571 99.8808 654.821 Q99.8808 651.095 98.0289 648.942 Q96.2002 646.766 93.0521 646.766 Q89.904 646.766 88.0521 648.942 Q86.2234 651.095 86.2234 654.821 Q86.2234 658.571 88.0521 660.724 Q89.904 662.877 93.0521 662.877 Z" fill="#000000" fill-rule="nonzero" fill-opacity="1" /><path clip-path="url(#clip850)" d="M117.797 674.312 L134.117 674.312 L134.117 678.247 L112.172 678.247 L112.172 674.312 Q114.834 671.557 119.418 666.928 Q124.024 662.275 125.205 660.933 Q127.45 658.409 128.33 656.673 Q129.232 654.914 129.232 653.224 Q129.232 650.47 127.288 648.733 Q125.367 646.997 122.265 646.997 Q120.066 646.997 117.612 647.761 Q115.182 648.525 112.404 650.076 L112.404 645.354 Q115.228 644.22 117.682 643.641 Q120.135 643.062 122.172 643.062 Q127.543 643.062 130.737 645.747 Q133.931 648.433 133.931 652.923 Q133.931 655.053 133.121 656.974 Q132.334 658.872 130.228 661.465 Q129.649 662.136 126.547 665.354 Q123.445 668.548 117.797 674.312 Z" fill="#000000" fill-rule="nonzero" fill-opacity="1" /><path clip-path="url(#clip850)" d="M143.978 643.687 L162.334 643.687 L162.334 647.622 L148.26 647.622 L148.26 656.095 Q149.279 655.747 150.297 655.585 Q151.316 655.4 152.334 655.4 Q158.121 655.4 161.501 658.571 Q164.88 661.743 164.88 667.159 Q164.88 672.738 161.408 675.84 Q157.936 678.919 151.617 678.919 Q149.441 678.919 147.172 678.548 Q144.927 678.178 142.519 677.437 L142.519 672.738 Q144.603 673.872 146.825 674.428 Q149.047 674.983 151.524 674.983 Q155.529 674.983 157.867 672.877 Q160.205 670.77 160.205 667.159 Q160.205 663.548 157.867 661.442 Q155.529 659.335 151.524 659.335 Q149.649 659.335 147.774 659.752 Q145.922 660.169 143.978 661.048 L143.978 643.687 Z" fill="#000000" fill-rule="nonzero" fill-opacity="1" /><path clip-path="url(#clip850)" d="M66.617 348.205 Q69.9735 348.923 71.8485 351.191 Q73.7466 353.46 73.7466 356.793 Q73.7466 361.909 70.2281 364.709 Q66.7096 367.51 60.2282 367.51 Q58.0523 367.51 55.7375 367.071 Q53.4458 366.654 50.9921 365.797 L50.9921 361.284 Q52.9366 362.418 55.2514 362.997 Q57.5662 363.575 60.0893 363.575 Q64.4874 363.575 66.7791 361.839 Q69.0939 360.103 69.0939 356.793 Q69.0939 353.737 66.9411 352.024 Q64.8115 350.288 60.9921 350.288 L56.9643 350.288 L56.9643 346.446 L61.1773 346.446 Q64.6263 346.446 66.455 345.08 Q68.2837 343.691 68.2837 341.098 Q68.2837 338.436 66.3856 337.024 Q64.5106 335.589 60.9921 335.589 Q59.0708 335.589 56.8717 336.006 Q54.6727 336.423 52.0338 337.302 L52.0338 333.136 Q54.6958 332.395 57.0106 332.024 Q59.3486 331.654 61.4087 331.654 Q66.7328 331.654 69.8346 334.085 Q72.9365 336.492 72.9365 340.612 Q72.9365 343.483 71.2929 345.473 Q69.6494 347.441 66.617 348.205 Z" fill="#000000" fill-rule="nonzero" fill-opacity="1" /><path clip-path="url(#clip850)" d="M82.7512 366.122 L82.7512 361.862 Q84.5105 362.696 86.316 363.135 Q88.1216 363.575 89.8577 363.575 Q94.4873 363.575 96.9178 360.473 Q99.3715 357.348 99.7187 351.006 Q98.3761 352.997 96.316 354.061 Q94.2558 355.126 91.7558 355.126 Q86.5706 355.126 83.5382 352.001 Q80.529 348.853 80.529 343.413 Q80.529 338.089 83.6771 334.872 Q86.8253 331.654 92.0567 331.654 Q98.0521 331.654 101.2 336.261 Q104.371 340.844 104.371 349.594 Q104.371 357.765 100.483 362.649 Q96.6169 367.51 90.066 367.51 Q88.3067 367.51 86.5012 367.163 Q84.6956 366.816 82.7512 366.122 M92.0567 351.469 Q95.2049 351.469 97.0335 349.316 Q98.8854 347.163 98.8854 343.413 Q98.8854 339.686 97.0335 337.534 Q95.2049 335.358 92.0567 335.358 Q88.9086 335.358 87.0567 337.534 Q85.2281 339.686 85.2281 343.413 Q85.2281 347.163 87.0567 349.316 Q88.9086 351.469 92.0567 351.469 Z" fill="#000000" fill-rule="nonzero" fill-opacity="1" /><path clip-path="url(#clip850)" d="M112.82 332.279 L131.177 332.279 L131.177 336.214 L117.103 336.214 L117.103 344.686 Q118.121 344.339 119.14 344.177 Q120.158 343.992 121.177 343.992 Q126.964 343.992 130.344 347.163 Q133.723 350.335 133.723 355.751 Q133.723 361.33 130.251 364.432 Q126.779 367.51 120.459 367.51 Q118.283 367.51 116.015 367.14 Q113.77 366.77 111.362 366.029 L111.362 361.33 Q113.445 362.464 115.668 363.02 Q117.89 363.575 120.367 363.575 Q124.371 363.575 126.709 361.469 Q129.047 359.362 129.047 355.751 Q129.047 352.14 126.709 350.034 Q124.371 347.927 120.367 347.927 Q118.492 347.927 116.617 348.344 Q114.765 348.76 112.82 349.64 L112.82 332.279 Z" fill="#000000" fill-rule="nonzero" fill-opacity="1" /><path clip-path="url(#clip850)" d="M152.936 335.358 Q149.325 335.358 147.496 338.923 Q145.691 342.464 145.691 349.594 Q145.691 356.7 147.496 360.265 Q149.325 363.807 152.936 363.807 Q156.57 363.807 158.376 360.265 Q160.205 356.7 160.205 349.594 Q160.205 342.464 158.376 338.923 Q156.57 335.358 152.936 335.358 M152.936 331.654 Q158.746 331.654 161.802 336.261 Q164.88 340.844 164.88 349.594 Q164.88 358.321 161.802 362.927 Q158.746 367.51 152.936 367.51 Q147.126 367.51 144.047 362.927 Q140.992 358.321 140.992 349.594 Q140.992 340.844 144.047 336.261 Q147.126 331.654 152.936 331.654 Z" fill="#000000" fill-rule="nonzero" fill-opacity="1" /><polyline clip-path="url(#clip852)" style="stroke:#009af9; stroke-linecap:round; stroke-linejoin:round; stroke-width:4; stroke-opacity:1; fill:none" points="261.783,1395.89 363.286,1221.5 464.79,1171.68 566.293,1395.89 667.797,1445.72 769.3,1346.07 870.804,1296.24 972.307,1146.76 1073.81,1084.48 1175.31,897.637 1276.82,660.967 1378.32,723.249 1479.83,1072.03 1581.33,1034.66 1682.83,972.375 1784.34,1047.11 1885.84,449.21 1987.34,87.9763 2088.85,187.627 2190.35,87.9763 2291.85,262.365 "/>
<path clip-path="url(#clip850)" d="M272.61 198.898 L923.327 198.898 L923.327 95.2176 L272.61 95.2176  Z" fill="#ffffff" fill-rule="evenodd" fill-opacity="1"/>
<polyline clip-path="url(#clip850)" style="stroke:#000000; stroke-linecap:round; stroke-linejoin:round; stroke-width:4; stroke-opacity:1; fill:none" points="272.61,198.898 923.327,198.898 923.327,95.2176 272.61,95.2176 272.61,198.898 "/>
<polyline clip-path="url(#clip850)" style="stroke:#009af9; stroke-linecap:round; stroke-linejoin:round; stroke-width:4; stroke-opacity:1; fill:none" points="296.519,147.058 439.978,147.058 "/>
<path clip-path="url(#clip850)" d="M463.887 129.778 L485.739 129.778 L485.739 133.713 L468.563 133.713 L468.563 143.944 L485.022 143.944 L485.022 147.879 L468.563 147.879 L468.563 160.402 L486.156 160.402 L486.156 164.338 L463.887 164.338 L463.887 129.778 Z" fill="#000000" fill-rule="nonzero" fill-opacity="1" /><path clip-path="url(#clip850)" d="M513.841 143.389 Q515.438 140.518 517.66 139.153 Q519.882 137.787 522.892 137.787 Q526.943 137.787 529.142 140.634 Q531.341 143.458 531.341 148.689 L531.341 164.338 L527.058 164.338 L527.058 148.828 Q527.058 145.102 525.739 143.296 Q524.419 141.49 521.711 141.49 Q518.401 141.49 516.48 143.69 Q514.558 145.889 514.558 149.685 L514.558 164.338 L510.276 164.338 L510.276 148.828 Q510.276 145.078 508.957 143.296 Q507.637 141.49 504.883 141.49 Q501.619 141.49 499.697 143.713 Q497.776 145.912 497.776 149.685 L497.776 164.338 L493.494 164.338 L493.494 138.412 L497.776 138.412 L497.776 142.44 Q499.234 140.055 501.271 138.921 Q503.308 137.787 506.109 137.787 Q508.933 137.787 510.901 139.222 Q512.892 140.657 513.841 143.389 Z" fill="#000000" fill-rule="nonzero" fill-opacity="1" /><path clip-path="url(#clip850)" d="M543.956 160.449 L543.956 174.199 L539.674 174.199 L539.674 138.412 L543.956 138.412 L543.956 142.347 Q545.299 140.032 547.336 138.921 Q549.396 137.787 552.243 137.787 Q556.966 137.787 559.905 141.537 Q562.868 145.287 562.868 151.398 Q562.868 157.509 559.905 161.259 Q556.966 165.009 552.243 165.009 Q549.396 165.009 547.336 163.898 Q545.299 162.763 543.956 160.449 M558.447 151.398 Q558.447 146.699 556.503 144.037 Q554.581 141.352 551.202 141.352 Q547.822 141.352 545.878 144.037 Q543.956 146.699 543.956 151.398 Q543.956 156.097 545.878 158.782 Q547.822 161.444 551.202 161.444 Q554.581 161.444 556.503 158.782 Q558.447 156.097 558.447 151.398 Z" fill="#000000" fill-rule="nonzero" fill-opacity="1" /><path clip-path="url(#clip850)" d="M569.929 128.319 L574.188 128.319 L574.188 164.338 L569.929 164.338 L569.929 128.319 Z" fill="#000000" fill-rule="nonzero" fill-opacity="1" /><path clip-path="url(#clip850)" d="M593.146 141.398 Q589.72 141.398 587.729 144.083 Q585.739 146.745 585.739 151.398 Q585.739 156.051 587.706 158.736 Q589.697 161.398 593.146 161.398 Q596.549 161.398 598.539 158.713 Q600.53 156.027 600.53 151.398 Q600.53 146.791 598.539 144.106 Q596.549 141.398 593.146 141.398 M593.146 137.787 Q598.702 137.787 601.873 141.398 Q605.044 145.009 605.044 151.398 Q605.044 157.764 601.873 161.398 Q598.702 165.009 593.146 165.009 Q587.567 165.009 584.396 161.398 Q581.248 157.764 581.248 151.398 Q581.248 145.009 584.396 141.398 Q587.567 137.787 593.146 137.787 Z" fill="#000000" fill-rule="nonzero" fill-opacity="1" /><path clip-path="url(#clip850)" d="M622.891 166.745 Q621.086 171.375 619.373 172.787 Q617.66 174.199 614.789 174.199 L611.387 174.199 L611.387 170.634 L613.887 170.634 Q615.646 170.634 616.618 169.8 Q617.59 168.967 618.771 165.865 L619.535 163.921 L609.049 138.412 L613.563 138.412 L621.664 158.689 L629.766 138.412 L634.28 138.412 L622.891 166.745 Z" fill="#000000" fill-rule="nonzero" fill-opacity="1" /><path clip-path="url(#clip850)" d="M662.335 150.31 L662.335 152.393 L642.752 152.393 Q643.03 156.791 645.391 159.106 Q647.775 161.398 652.011 161.398 Q654.465 161.398 656.757 160.796 Q659.072 160.194 661.34 158.99 L661.34 163.018 Q659.048 163.99 656.641 164.5 Q654.234 165.009 651.757 165.009 Q645.553 165.009 641.919 161.398 Q638.308 157.787 638.308 151.629 Q638.308 145.264 641.734 141.537 Q645.183 137.787 651.016 137.787 Q656.247 137.787 659.28 141.166 Q662.335 144.523 662.335 150.31 M658.076 149.06 Q658.03 145.565 656.109 143.481 Q654.21 141.398 651.062 141.398 Q647.498 141.398 645.345 143.412 Q643.215 145.426 642.891 149.083 L658.076 149.06 Z" fill="#000000" fill-rule="nonzero" fill-opacity="1" /><path clip-path="url(#clip850)" d="M686.386 142.347 L686.386 128.319 L690.645 128.319 L690.645 164.338 L686.386 164.338 L686.386 160.449 Q685.044 162.763 682.983 163.898 Q680.946 165.009 678.076 165.009 Q673.377 165.009 670.414 161.259 Q667.474 157.509 667.474 151.398 Q667.474 145.287 670.414 141.537 Q673.377 137.787 678.076 137.787 Q680.946 137.787 682.983 138.921 Q685.044 140.032 686.386 142.347 M671.872 151.398 Q671.872 156.097 673.794 158.782 Q675.738 161.444 679.118 161.444 Q682.497 161.444 684.442 158.782 Q686.386 156.097 686.386 151.398 Q686.386 146.699 684.442 144.037 Q682.497 141.352 679.118 141.352 Q675.738 141.352 673.794 144.037 Q671.872 146.699 671.872 151.398 Z" fill="#000000" fill-rule="nonzero" fill-opacity="1" /><path clip-path="url(#clip850)" d="M711.594 129.778 L716.317 129.778 L723.585 158.99 L730.83 129.778 L736.085 129.778 L743.354 158.99 L750.599 129.778 L755.344 129.778 L746.664 164.338 L740.784 164.338 L733.492 134.338 L726.131 164.338 L720.252 164.338 L711.594 129.778 Z" fill="#000000" fill-rule="nonzero" fill-opacity="1" /><path clip-path="url(#clip850)" d="M768.631 141.398 Q765.205 141.398 763.215 144.083 Q761.224 146.745 761.224 151.398 Q761.224 156.051 763.191 158.736 Q765.182 161.398 768.631 161.398 Q772.034 161.398 774.025 158.713 Q776.015 156.027 776.015 151.398 Q776.015 146.791 774.025 144.106 Q772.034 141.398 768.631 141.398 M768.631 137.787 Q774.187 137.787 777.358 141.398 Q780.529 145.009 780.529 151.398 Q780.529 157.764 777.358 161.398 Q774.187 165.009 768.631 165.009 Q763.052 165.009 759.881 161.398 Q756.733 157.764 756.733 151.398 Q756.733 145.009 759.881 141.398 Q763.052 137.787 768.631 137.787 Z" fill="#000000" fill-rule="nonzero" fill-opacity="1" /><path clip-path="url(#clip850)" d="M802.612 142.393 Q801.895 141.977 801.038 141.791 Q800.205 141.583 799.187 141.583 Q795.575 141.583 793.631 143.944 Q791.71 146.282 791.71 150.68 L791.71 164.338 L787.427 164.338 L787.427 138.412 L791.71 138.412 L791.71 142.44 Q793.052 140.078 795.205 138.944 Q797.358 137.787 800.437 137.787 Q800.876 137.787 801.409 137.856 Q801.941 137.903 802.589 138.018 L802.612 142.393 Z" fill="#000000" fill-rule="nonzero" fill-opacity="1" /><path clip-path="url(#clip850)" d="M806.918 128.319 L811.2 128.319 L811.2 149.592 L823.909 138.412 L829.348 138.412 L815.598 150.541 L829.927 164.338 L824.372 164.338 L811.2 151.676 L811.2 164.338 L806.918 164.338 L806.918 128.319 Z" fill="#000000" fill-rule="nonzero" fill-opacity="1" /><path clip-path="url(#clip850)" d="M855.02 150.31 L855.02 152.393 L835.436 152.393 Q835.714 156.791 838.075 159.106 Q840.459 161.398 844.696 161.398 Q847.149 161.398 849.441 160.796 Q851.756 160.194 854.024 158.99 L854.024 163.018 Q851.733 163.99 849.325 164.5 Q846.918 165.009 844.441 165.009 Q838.237 165.009 834.603 161.398 Q830.992 157.787 830.992 151.629 Q830.992 145.264 834.418 141.537 Q837.867 137.787 843.7 137.787 Q848.932 137.787 851.964 141.166 Q855.02 144.523 855.02 150.31 M850.76 149.06 Q850.714 145.565 848.793 143.481 Q846.895 141.398 843.746 141.398 Q840.182 141.398 838.029 143.412 Q835.899 145.426 835.575 149.083 L850.76 149.06 Z" fill="#000000" fill-rule="nonzero" fill-opacity="1" /><path clip-path="url(#clip850)" d="M877.033 142.393 Q876.316 141.977 875.459 141.791 Q874.626 141.583 873.607 141.583 Q869.996 141.583 868.052 143.944 Q866.131 146.282 866.131 150.68 L866.131 164.338 L861.848 164.338 L861.848 138.412 L866.131 138.412 L866.131 142.44 Q867.473 140.078 869.626 138.944 Q871.779 137.787 874.857 137.787 Q875.297 137.787 875.83 137.856 Q876.362 137.903 877.01 138.018 L877.033 142.393 Z" fill="#000000" fill-rule="nonzero" fill-opacity="1" /><path clip-path="url(#clip850)" d="M898.029 139.176 L898.029 143.203 Q896.223 142.277 894.279 141.815 Q892.334 141.352 890.251 141.352 Q887.08 141.352 885.482 142.324 Q883.908 143.296 883.908 145.24 Q883.908 146.722 885.043 147.578 Q886.177 148.412 889.603 149.176 L891.061 149.5 Q895.598 150.472 897.496 152.254 Q899.417 154.014 899.417 157.185 Q899.417 160.796 896.547 162.902 Q893.7 165.009 888.7 165.009 Q886.617 165.009 884.348 164.592 Q882.103 164.199 879.603 163.388 L879.603 158.99 Q881.964 160.217 884.256 160.842 Q886.547 161.444 888.793 161.444 Q891.802 161.444 893.422 160.426 Q895.043 159.384 895.043 157.509 Q895.043 155.773 893.862 154.847 Q892.705 153.921 888.746 153.064 L887.265 152.717 Q883.306 151.884 881.547 150.171 Q879.788 148.435 879.788 145.426 Q879.788 141.768 882.381 139.778 Q884.973 137.787 889.742 137.787 Q892.103 137.787 894.186 138.134 Q896.269 138.481 898.029 139.176 Z" fill="#000000" fill-rule="nonzero" fill-opacity="1" /></svg>
