<?xml version="1.0" encoding="utf-8"?>
<svg xmlns="http://www.w3.org/2000/svg" xmlns:xlink="http://www.w3.org/1999/xlink" width="600" height="400" viewBox="0 0 2400 1600">
<defs>
  <clipPath id="clip850">
    <rect x="0" y="0" width="2400" height="1600"/>
  </clipPath>
</defs>
<path clip-path="url(#clip850)" d="M0 1600 L2400 1600 L2400 0 L0 0  Z" fill="#ffffff" fill-rule="evenodd" fill-opacity="1"/>
<defs>
  <clipPath id="clip851">
    <rect x="480" y="0" width="1681" height="1600"/>
  </clipPath>
</defs>
<path clip-path="url(#clip850)" d="M202.177 1486.45 L2352.76 1486.45 L2352.76 47.2441 L202.177 47.2441  Z" fill="#ffffff" fill-rule="evenodd" fill-opacity="1"/>
<defs>
  <clipPath id="clip852">
    <rect x="202" y="47" width="2152" height="1440"/>
  </clipPath>
</defs>
<polyline clip-path="url(#clip852)" style="stroke:#000000; stroke-linecap:round; stroke-linejoin:round; stroke-width:2; stroke-opacity:0.1; fill:none" points="668.812,1486.45 668.812,47.2441 "/>
<polyline clip-path="url(#clip852)" style="stroke:#000000; stroke-linecap:round; stroke-linejoin:round; stroke-width:2; stroke-opacity:0.1; fill:none" points="1176.02,1486.45 1176.02,47.2441 "/>
<polyline clip-path="url(#clip852)" style="stroke:#000000; stroke-linecap:round; stroke-linejoin:round; stroke-width:2; stroke-opacity:0.1; fill:none" points="1683.24,1486.45 1683.24,47.2441 "/>
<polyline clip-path="url(#clip852)" style="stroke:#000000; stroke-linecap:round; stroke-linejoin:round; stroke-width:2; stroke-opacity:0.1; fill:none" points="2190.45,1486.45 2190.45,47.2441 "/>
<polyline clip-path="url(#clip852)" style="stroke:#000000; stroke-linecap:round; stroke-linejoin:round; stroke-width:2; stroke-opacity:0.1; fill:none" points="202.177,1221.62 2352.76,1221.62 "/>
<polyline clip-path="url(#clip852)" style="stroke:#000000; stroke-linecap:round; stroke-linejoin:round; stroke-width:2; stroke-opacity:0.1; fill:none" points="202.177,892.074 2352.76,892.074 "/>
<polyline clip-path="url(#clip852)" style="stroke:#000000; stroke-linecap:round; stroke-linejoin:round; stroke-width:2; stroke-opacity:0.1; fill:none" points="202.177,562.526 2352.76,562.526 "/>
<polyline clip-path="url(#clip852)" style="stroke:#000000; stroke-linecap:round; stroke-linejoin:round; stroke-width:2; stroke-opacity:0.1; fill:none" points="202.177,232.978 2352.76,232.978 "/>
<polyline clip-path="url(#clip850)" style="stroke:#000000; stroke-linecap:round; stroke-linejoin:round; stroke-width:4; stroke-opacity:1; fill:none" points="202.177,1486.45 2352.76,1486.45 "/>
<polyline clip-path="url(#clip850)" style="stroke:#000000; stroke-linecap:round; stroke-linejoin:round; stroke-width:4; stroke-opacity:1; fill:none" points="668.812,1486.45 668.812,1467.55 "/>
<polyline clip-path="url(#clip850)" style="stroke:#000000; stroke-linecap:round; stroke-linejoin:round; stroke-width:4; stroke-opacity:1; fill:none" points="1176.02,1486.45 1176.02,1467.55 "/>
<polyline clip-path="url(#clip850)" style="stroke:#000000; stroke-linecap:round; stroke-linejoin:round; stroke-width:4; stroke-opacity:1; fill:none" points="1683.24,1486.45 1683.24,1467.55 "/>
<polyline clip-path="url(#clip850)" style="stroke:#000000; stroke-linecap:round; stroke-linejoin:round; stroke-width:4; stroke-opacity:1; fill:none" points="2190.45,1486.45 2190.45,1467.55 "/>
<path clip-path="url(#clip850)" d="M659.09 1514.29 L677.446 1514.29 L677.446 1518.22 L663.372 1518.22 L663.372 1526.7 Q664.391 1526.35 665.409 1526.19 Q666.428 1526 667.446 1526 Q673.233 1526 676.613 1529.17 Q679.992 1532.34 679.992 1537.76 Q679.992 1543.34 676.52 1546.44 Q673.048 1549.52 666.728 1549.52 Q664.553 1549.52 662.284 1549.15 Q660.039 1548.78 657.631 1548.04 L657.631 1543.34 Q659.715 1544.47 661.937 1545.03 Q664.159 1545.58 666.636 1545.58 Q670.64 1545.58 672.978 1543.48 Q675.316 1541.37 675.316 1537.76 Q675.316 1534.15 672.978 1532.04 Q670.64 1529.94 666.636 1529.94 Q664.761 1529.94 662.886 1530.35 Q661.034 1530.77 659.09 1531.65 L659.09 1514.29 Z" fill="#000000" fill-rule="nonzero" fill-opacity="1" /><path clip-path="url(#clip850)" d="M1150.71 1544.91 L1158.35 1544.91 L1158.35 1518.55 L1150.04 1520.21 L1150.04 1515.95 L1158.3 1514.29 L1162.98 1514.29 L1162.98 1544.91 L1170.62 1544.91 L1170.62 1548.85 L1150.71 1548.85 L1150.71 1544.91 Z" fill="#000000" fill-rule="nonzero" fill-opacity="1" /><path clip-path="url(#clip850)" d="M1190.06 1517.37 Q1186.45 1517.37 1184.62 1520.93 Q1182.82 1524.47 1182.82 1531.6 Q1182.82 1538.71 1184.62 1542.27 Q1186.45 1545.82 1190.06 1545.82 Q1193.7 1545.82 1195.5 1542.27 Q1197.33 1538.71 1197.33 1531.6 Q1197.33 1524.47 1195.5 1520.93 Q1193.7 1517.37 1190.06 1517.37 M1190.06 1513.66 Q1195.87 1513.66 1198.93 1518.27 Q1202.01 1522.85 1202.01 1531.6 Q1202.01 1540.33 1198.93 1544.94 Q1195.87 1549.52 1190.06 1549.52 Q1184.25 1549.52 1181.17 1544.94 Q1178.12 1540.33 1178.12 1531.6 Q1178.12 1522.85 1181.17 1518.27 Q1184.25 1513.66 1190.06 1513.66 Z" fill="#000000" fill-rule="nonzero" fill-opacity="1" /><path clip-path="url(#clip850)" d="M1658.42 1544.91 L1666.06 1544.91 L1666.06 1518.55 L1657.75 1520.21 L1657.75 1515.95 L1666.01 1514.29 L1670.69 1514.29 L1670.69 1544.91 L1678.33 1544.91 L1678.33 1548.85 L1658.42 1548.85 L1658.42 1544.91 Z" fill="#000000" fill-rule="nonzero" fill-opacity="1" /><path clip-path="url(#clip850)" d="M1687.82 1514.29 L1706.18 1514.29 L1706.18 1518.22 L1692.1 1518.22 L1692.1 1526.7 Q1693.12 1526.35 1694.14 1526.19 Q1695.16 1526 1696.18 1526 Q1701.96 1526 1705.34 1529.17 Q1708.72 1532.34 1708.72 1537.76 Q1708.72 1543.34 1705.25 1546.44 Q1701.78 1549.52 1695.46 1549.52 Q1693.28 1549.52 1691.01 1549.15 Q1688.77 1548.78 1686.36 1548.04 L1686.36 1543.34 Q1688.44 1544.47 1690.67 1545.03 Q1692.89 1545.58 1695.37 1545.58 Q1699.37 1545.58 1701.71 1543.48 Q1704.05 1541.37 1704.05 1537.76 Q1704.05 1534.15 1701.71 1532.04 Q1699.37 1529.94 1695.37 1529.94 Q1693.49 1529.94 1691.62 1530.35 Q1689.76 1530.77 1687.82 1531.65 L1687.82 1514.29 Z" fill="#000000" fill-rule="nonzero" fill-opacity="1" /><path clip-path="url(#clip850)" d="M2169.22 1544.91 L2185.54 1544.91 L2185.54 1548.85 L2163.6 1548.85 L2163.6 1544.91 Q2166.26 1542.16 2170.84 1537.53 Q2175.45 1532.88 2176.63 1531.53 Q2178.87 1529.01 2179.75 1527.27 Q2180.66 1525.51 2180.66 1523.82 Q2180.66 1521.07 2178.71 1519.33 Q2176.79 1517.6 2173.69 1517.6 Q2171.49 1517.6 2169.04 1518.36 Q2166.61 1519.13 2163.83 1520.68 L2163.83 1515.95 Q2166.65 1514.82 2169.11 1514.24 Q2171.56 1513.66 2173.6 1513.66 Q2178.97 1513.66 2182.16 1516.35 Q2185.36 1519.03 2185.36 1523.52 Q2185.36 1525.65 2184.55 1527.57 Q2183.76 1529.47 2181.65 1532.07 Q2181.07 1532.74 2177.97 1535.95 Q2174.87 1539.15 2169.22 1544.91 Z" fill="#000000" fill-rule="nonzero" fill-opacity="1" /><path clip-path="url(#clip850)" d="M2205.36 1517.37 Q2201.74 1517.37 2199.92 1520.93 Q2198.11 1524.47 2198.11 1531.6 Q2198.11 1538.71 2199.92 1542.27 Q2201.74 1545.82 2205.36 1545.82 Q2208.99 1545.82 2210.8 1542.27 Q2212.62 1538.71 2212.62 1531.6 Q2212.62 1524.47 2210.8 1520.93 Q2208.99 1517.37 2205.36 1517.37 M2205.36 1513.66 Q2211.17 1513.66 2214.22 1518.27 Q2217.3 1522.85 2217.3 1531.6 Q2217.3 1540.33 2214.22 1544.94 Q2211.17 1549.52 2205.36 1549.52 Q2199.55 1549.52 2196.47 1544.94 Q2193.41 1540.33 2193.41 1531.6 Q2193.41 1522.85 2196.47 1518.27 Q2199.55 1513.66 2205.36 1513.66 Z" fill="#000000" fill-rule="nonzero" fill-opacity="1" /><polyline clip-path="url(#clip850)" style="stroke:#000000; stroke-linecap:round; stroke-linejoin:round; stroke-width:4; stroke-opacity:1; fill:none" points="202.177,1486.45 202.177,47.2441 "/>
<polyline clip-path="url(#clip850)" style="stroke:#000000; stroke-linecap:round; stroke-linejoin:round; stroke-width:4; stroke-opacity:1; fill:none" points="202.177,1221.62 221.074,1221.62 "/>
<polyline clip-path="url(#clip850)" style="stroke:#000000; stroke-linecap:round; stroke-linejoin:round; stroke-width:4; stroke-opacity:1; fill:none" points="202.177,892.074 221.074,892.074 "/>
<polyline clip-path="url(#clip850)" style="stroke:#000000; stroke-linecap:round; stroke-linejoin:round; stroke-width:4; stroke-opacity:1; fill:none" points="202.177,562.526 221.074,562.526 "/>
<polyline clip-path="url(#clip850)" style="stroke:#000000; stroke-linecap:round; stroke-linejoin:round; stroke-width:4; stroke-opacity:1; fill:none" points="202.177,232.978 221.074,232.978 "/>
<path clip-path="url(#clip850)" d="M67.9133 1220.27 Q71.2698 1220.99 73.1448 1223.25 Q75.0429 1225.52 75.0429 1228.86 Q75.0429 1233.97 71.5244 1236.77 Q68.0059 1239.57 61.5245 1239.57 Q59.3486 1239.57 57.0338 1239.13 Q54.7421 1238.72 52.2884 1237.86 L52.2884 1233.35 Q54.2328 1234.48 56.5477 1235.06 Q58.8625 1235.64 61.3856 1235.64 Q65.7837 1235.64 68.0754 1233.9 Q70.3902 1232.17 70.3902 1228.86 Q70.3902 1225.8 68.2374 1224.09 Q66.1078 1222.35 62.2884 1222.35 L58.2606 1222.35 L58.2606 1218.51 L62.4735 1218.51 Q65.9226 1218.51 67.7513 1217.14 Q69.58 1215.75 69.58 1213.16 Q69.58 1210.5 67.6819 1209.09 Q65.8069 1207.65 62.2884 1207.65 Q60.3671 1207.65 58.168 1208.07 Q55.969 1208.49 53.3301 1209.37 L53.3301 1205.2 Q55.9921 1204.46 58.3069 1204.09 Q60.6449 1203.72 62.705 1203.72 Q68.0291 1203.72 71.1309 1206.15 Q74.2327 1208.56 74.2327 1212.68 Q74.2327 1215.55 72.5892 1217.54 Q70.9457 1219.5 67.9133 1220.27 Z" fill="#000000" fill-rule="nonzero" fill-opacity="1" /><path clip-path="url(#clip850)" d="M84.0475 1238.19 L84.0475 1233.93 Q85.8068 1234.76 87.6123 1235.2 Q89.4178 1235.64 91.1539 1235.64 Q95.7836 1235.64 98.2141 1232.54 Q100.668 1229.41 101.015 1223.07 Q99.6724 1225.06 97.6122 1226.13 Q95.5521 1227.19 93.0521 1227.19 Q87.8669 1227.19 84.8345 1224.06 Q81.8253 1220.92 81.8253 1215.48 Q81.8253 1210.15 84.9734 1206.94 Q88.1216 1203.72 93.353 1203.72 Q99.3483 1203.72 102.496 1208.32 Q105.668 1212.91 105.668 1221.66 Q105.668 1229.83 101.779 1234.71 Q97.9132 1239.57 91.3623 1239.57 Q89.603 1239.57 87.7975 1239.23 Q85.9919 1238.88 84.0475 1238.19 M93.353 1223.53 Q96.5011 1223.53 98.3298 1221.38 Q100.182 1219.23 100.182 1215.48 Q100.182 1211.75 98.3298 1209.6 Q96.5011 1207.42 93.353 1207.42 Q90.2049 1207.42 88.353 1209.6 Q86.5243 1211.75 86.5243 1215.48 Q86.5243 1219.23 88.353 1221.38 Q90.2049 1223.53 93.353 1223.53 Z" fill="#000000" fill-rule="nonzero" fill-opacity="1" /><path clip-path="url(#clip850)" d="M124.07 1207.42 Q120.459 1207.42 118.631 1210.99 Q116.825 1214.53 116.825 1221.66 Q116.825 1228.76 118.631 1232.33 Q120.459 1235.87 124.07 1235.87 Q127.705 1235.87 129.51 1232.33 Q131.339 1228.76 131.339 1221.66 Q131.339 1214.53 129.51 1210.99 Q127.705 1207.42 124.07 1207.42 M124.07 1203.72 Q129.881 1203.72 132.936 1208.32 Q136.015 1212.91 136.015 1221.66 Q136.015 1230.38 132.936 1234.99 Q129.881 1239.57 124.07 1239.57 Q118.26 1239.57 115.182 1234.99 Q112.126 1230.38 112.126 1221.66 Q112.126 1212.91 115.182 1208.32 Q118.26 1203.72 124.07 1203.72 Z" fill="#000000" fill-rule="nonzero" fill-opacity="1" /><path clip-path="url(#clip850)" d="M154.232 1207.42 Q150.621 1207.42 148.793 1210.99 Q146.987 1214.53 146.987 1221.66 Q146.987 1228.76 148.793 1232.33 Q150.621 1235.87 154.232 1235.87 Q157.867 1235.87 159.672 1232.33 Q161.501 1228.76 161.501 1221.66 Q161.501 1214.53 159.672 1210.99 Q157.867 1207.42 154.232 1207.42 M154.232 1203.72 Q160.042 1203.72 163.098 1208.32 Q166.177 1212.91 166.177 1221.66 Q166.177 1230.38 163.098 1234.99 Q160.042 1239.57 154.232 1239.57 Q148.422 1239.57 145.343 1234.99 Q142.288 1230.38 142.288 1221.66 Q142.288 1212.91 145.343 1208.32 Q148.422 1203.72 154.232 1203.72 Z" fill="#000000" fill-rule="nonzero" fill-opacity="1" /><path clip-path="url(#clip850)" d="M67.9133 890.72 Q71.2698 891.438 73.1448 893.706 Q75.0429 895.975 75.0429 899.308 Q75.0429 904.424 71.5244 907.225 Q68.0059 910.026 61.5245 910.026 Q59.3486 910.026 57.0338 909.586 Q54.7421 909.169 52.2884 908.313 L52.2884 903.799 Q54.2328 904.933 56.5477 905.512 Q58.8625 906.091 61.3856 906.091 Q65.7837 906.091 68.0754 904.354 Q70.3902 902.618 70.3902 899.308 Q70.3902 896.253 68.2374 894.54 Q66.1078 892.804 62.2884 892.804 L58.2606 892.804 L58.2606 888.961 L62.4735 888.961 Q65.9226 888.961 67.7513 887.595 Q69.58 886.206 69.58 883.614 Q69.58 880.952 67.6819 879.54 Q65.8069 878.105 62.2884 878.105 Q60.3671 878.105 58.168 878.521 Q55.969 878.938 53.3301 879.817 L53.3301 875.651 Q55.9921 874.91 58.3069 874.54 Q60.6449 874.169 62.705 874.169 Q68.0291 874.169 71.1309 876.6 Q74.2327 879.007 74.2327 883.128 Q74.2327 885.998 72.5892 887.989 Q70.9457 889.956 67.9133 890.72 Z" fill="#000000" fill-rule="nonzero" fill-opacity="1" /><path clip-path="url(#clip850)" d="M84.0475 908.637 L84.0475 904.378 Q85.8068 905.211 87.6123 905.651 Q89.4178 906.091 91.1539 906.091 Q95.7836 906.091 98.2141 902.989 Q100.668 899.864 101.015 893.521 Q99.6724 895.512 97.6122 896.577 Q95.5521 897.641 93.0521 897.641 Q87.8669 897.641 84.8345 894.516 Q81.8253 891.368 81.8253 885.929 Q81.8253 880.605 84.9734 877.387 Q88.1216 874.169 93.353 874.169 Q99.3483 874.169 102.496 878.776 Q105.668 883.359 105.668 892.109 Q105.668 900.28 101.779 905.165 Q97.9132 910.026 91.3623 910.026 Q89.603 910.026 87.7975 909.678 Q85.9919 909.331 84.0475 908.637 M93.353 893.984 Q96.5011 893.984 98.3298 891.831 Q100.182 889.679 100.182 885.929 Q100.182 882.202 98.3298 880.049 Q96.5011 877.873 93.353 877.873 Q90.2049 877.873 88.353 880.049 Q86.5243 882.202 86.5243 885.929 Q86.5243 889.679 88.353 891.831 Q90.2049 893.984 93.353 893.984 Z" fill="#000000" fill-rule="nonzero" fill-opacity="1" /><path clip-path="url(#clip850)" d="M114.117 874.794 L132.473 874.794 L132.473 878.73 L118.399 878.73 L118.399 887.202 Q119.418 886.854 120.436 886.692 Q121.455 886.507 122.473 886.507 Q128.26 886.507 131.64 889.679 Q135.019 892.85 135.019 898.266 Q135.019 903.845 131.547 906.947 Q128.075 910.026 121.756 910.026 Q119.58 910.026 117.311 909.655 Q115.066 909.285 112.658 908.544 L112.658 903.845 Q114.742 904.979 116.964 905.535 Q119.186 906.091 121.663 906.091 Q125.668 906.091 128.006 903.984 Q130.344 901.878 130.344 898.266 Q130.344 894.655 128.006 892.549 Q125.668 890.442 121.663 890.442 Q119.788 890.442 117.913 890.859 Q116.061 891.276 114.117 892.155 L114.117 874.794 Z" fill="#000000" fill-rule="nonzero" fill-opacity="1" /><path clip-path="url(#clip850)" d="M154.232 877.873 Q150.621 877.873 148.793 881.438 Q146.987 884.98 146.987 892.109 Q146.987 899.216 148.793 902.78 Q150.621 906.322 154.232 906.322 Q157.867 906.322 159.672 902.78 Q161.501 899.216 161.501 892.109 Q161.501 884.98 159.672 881.438 Q157.867 877.873 154.232 877.873 M154.232 874.169 Q160.042 874.169 163.098 878.776 Q166.177 883.359 166.177 892.109 Q166.177 900.836 163.098 905.442 Q160.042 910.026 154.232 910.026 Q148.422 910.026 145.343 905.442 Q142.288 900.836 142.288 892.109 Q142.288 883.359 145.343 878.776 Q148.422 874.169 154.232 874.169 Z" fill="#000000" fill-rule="nonzero" fill-opacity="1" /><path clip-path="url(#clip850)" d="M66.5939 549.32 L54.7884 567.769 L66.5939 567.769 L66.5939 549.32 M65.367 545.246 L71.2466 545.246 L71.2466 567.769 L76.1772 567.769 L76.1772 571.658 L71.2466 571.658 L71.2466 579.806 L66.5939 579.806 L66.5939 571.658 L50.9921 571.658 L50.9921 567.144 L65.367 545.246 Z" fill="#000000" fill-rule="nonzero" fill-opacity="1" /><path clip-path="url(#clip850)" d="M93.9086 548.325 Q90.2975 548.325 88.4688 551.889 Q86.6632 555.431 86.6632 562.561 Q86.6632 569.667 88.4688 573.232 Q90.2975 576.774 93.9086 576.774 Q97.5428 576.774 99.3483 573.232 Q101.177 569.667 101.177 562.561 Q101.177 555.431 99.3483 551.889 Q97.5428 548.325 93.9086 548.325 M93.9086 544.621 Q99.7187 544.621 102.774 549.227 Q105.853 553.811 105.853 562.561 Q105.853 571.288 102.774 575.894 Q99.7187 580.477 93.9086 580.477 Q88.0984 580.477 85.0197 575.894 Q81.9642 571.288 81.9642 562.561 Q81.9642 553.811 85.0197 549.227 Q88.0984 544.621 93.9086 544.621 Z" fill="#000000" fill-rule="nonzero" fill-opacity="1" /><path clip-path="url(#clip850)" d="M124.07 548.325 Q120.459 548.325 118.631 551.889 Q116.825 555.431 116.825 562.561 Q116.825 569.667 118.631 573.232 Q120.459 576.774 124.07 576.774 Q127.705 576.774 129.51 573.232 Q131.339 569.667 131.339 562.561 Q131.339 555.431 129.51 551.889 Q127.705 548.325 124.07 548.325 M124.07 544.621 Q129.881 544.621 132.936 549.227 Q136.015 553.811 136.015 562.561 Q136.015 571.288 132.936 575.894 Q129.881 580.477 124.07 580.477 Q118.26 580.477 115.182 575.894 Q112.126 571.288 112.126 562.561 Q112.126 553.811 115.182 549.227 Q118.26 544.621 124.07 544.621 Z" fill="#000000" fill-rule="nonzero" fill-opacity="1" /><path clip-path="url(#clip850)" d="M154.232 548.325 Q150.621 548.325 148.793 551.889 Q146.987 555.431 146.987 562.561 Q146.987 569.667 148.793 573.232 Q150.621 576.774 154.232 576.774 Q157.867 576.774 159.672 573.232 Q161.501 569.667 161.501 562.561 Q161.501 555.431 159.672 551.889 Q157.867 548.325 154.232 548.325 M154.232 544.621 Q160.042 544.621 163.098 549.227 Q166.177 553.811 166.177 562.561 Q166.177 571.288 163.098 575.894 Q160.042 580.477 154.232 580.477 Q148.422 580.477 145.343 575.894 Q142.288 571.288 142.288 562.561 Q142.288 553.811 145.343 549.227 Q148.422 544.621 154.232 544.621 Z" fill="#000000" fill-rule="nonzero" fill-opacity="1" /><path clip-path="url(#clip850)" d="M66.5939 219.772 L54.7884 238.221 L66.5939 238.221 L66.5939 219.772 M65.367 215.698 L71.2466 215.698 L71.2466 238.221 L76.1772 238.221 L76.1772 242.109 L71.2466 242.109 L71.2466 250.258 L66.5939 250.258 L66.5939 242.109 L50.9921 242.109 L50.9921 237.596 L65.367 215.698 Z" fill="#000000" fill-rule="nonzero" fill-opacity="1" /><path clip-path="url(#clip850)" d="M93.9086 218.776 Q90.2975 218.776 88.4688 222.341 Q86.6632 225.883 86.6632 233.012 Q86.6632 240.119 88.4688 243.684 Q90.2975 247.225 93.9086 247.225 Q97.5428 247.225 99.3483 243.684 Q101.177 240.119 101.177 233.012 Q101.177 225.883 99.3483 222.341 Q97.5428 218.776 93.9086 218.776 M93.9086 215.073 Q99.7187 215.073 102.774 219.679 Q105.853 224.262 105.853 233.012 Q105.853 241.739 102.774 246.346 Q99.7187 250.929 93.9086 250.929 Q88.0984 250.929 85.0197 246.346 Q81.9642 241.739 81.9642 233.012 Q81.9642 224.262 85.0197 219.679 Q88.0984 215.073 93.9086 215.073 Z" fill="#000000" fill-rule="nonzero" fill-opacity="1" /><path clip-path="url(#clip850)" d="M114.117 215.698 L132.473 215.698 L132.473 219.633 L118.399 219.633 L118.399 228.105 Q119.418 227.758 120.436 227.596 Q121.455 227.41 122.473 227.41 Q128.26 227.41 131.64 230.582 Q135.019 233.753 135.019 239.17 Q135.019 244.748 131.547 247.85 Q128.075 250.929 121.756 250.929 Q119.58 250.929 117.311 250.558 Q115.066 250.188 112.658 249.447 L112.658 244.748 Q114.742 245.883 116.964 246.438 Q119.186 246.994 121.663 246.994 Q125.668 246.994 128.006 244.887 Q130.344 242.781 130.344 239.17 Q130.344 235.559 128.006 233.452 Q125.668 231.346 121.663 231.346 Q119.788 231.346 117.913 231.762 Q116.061 232.179 114.117 233.059 L114.117 215.698 Z" fill="#000000" fill-rule="nonzero" fill-opacity="1" /><path clip-path="url(#clip850)" d="M154.232 218.776 Q150.621 218.776 148.793 222.341 Q146.987 225.883 146.987 233.012 Q146.987 240.119 148.793 243.684 Q150.621 247.225 154.232 247.225 Q157.867 247.225 159.672 243.684 Q161.501 240.119 161.501 233.012 Q161.501 225.883 159.672 222.341 Q157.867 218.776 154.232 218.776 M154.232 215.073 Q160.042 215.073 163.098 219.679 Q166.177 224.262 166.177 233.012 Q166.177 241.739 163.098 246.346 Q160.042 250.929 154.232 250.929 Q148.422 250.929 145.343 246.346 Q142.288 241.739 142.288 233.012 Q142.288 224.262 145.343 219.679 Q148.422 215.073 154.232 215.073 Z" fill="#000000" fill-rule="nonzero" fill-opacity="1" /><polyline clip-path="url(#clip852)" style="stroke:#009af9; stroke-linecap:round; stroke-linejoin:round; stroke-width:4; stroke-opacity:1; fill:none" points="263.042,1445.72 364.485,1392.99 465.927,1346.85 567.369,1366.62 668.812,1327.08 770.254,1313.9 871.697,1076.62 973.139,990.939 1074.58,720.709 1176.02,628.436 1277.47,285.705 1378.91,371.388 1480.35,140.704 1581.79,272.523 1683.24,120.931 1784.68,272.523 1886.12,305.478 1987.56,87.9763 2089.01,252.75 2190.45,318.66 2291.89,114.34 "/>
<path clip-path="url(#clip850)" d="M273.863 198.898 L924.451 198.898 L924.451 95.2176 L273.863 95.2176  Z" fill="#ffffff" fill-rule="evenodd" fill-opacity="1"/>
<polyline clip-path="url(#clip850)" style="stroke:#000000; stroke-linecap:round; stroke-linejoin:round; stroke-width:4; stroke-opacity:1; fill:none" points="273.863,198.898 924.451,198.898 924.451,95.2176 273.863,95.2176 273.863,198.898 "/>
<polyline clip-path="url(#clip850)" style="stroke:#009af9; stroke-linecap:round; stroke-linejoin:round; stroke-width:4; stroke-opacity:1; fill:none" points="297.758,147.058 441.13,147.058 "/>
<path clip-path="url(#clip850)" d="M465.025 129.778 L486.877 129.778 L486.877 133.713 L469.701 133.713 L469.701 143.944 L486.159 143.944 L486.159 147.879 L469.701 147.879 L469.701 160.402 L487.294 160.402 L487.294 164.338 L465.025 164.338 L465.025 129.778 Z" fill="#000000" fill-rule="nonzero" fill-opacity="1" /><path clip-path="url(#clip850)" d="M514.979 143.389 Q516.576 140.518 518.798 139.153 Q521.02 137.787 524.03 137.787 Q528.08 137.787 530.28 140.634 Q532.479 143.458 532.479 148.689 L532.479 164.338 L528.196 164.338 L528.196 148.828 Q528.196 145.102 526.877 143.296 Q525.557 141.49 522.849 141.49 Q519.539 141.49 517.618 143.69 Q515.696 145.889 515.696 149.685 L515.696 164.338 L511.414 164.338 L511.414 148.828 Q511.414 145.078 510.094 143.296 Q508.775 141.49 506.02 141.49 Q502.757 141.49 500.835 143.713 Q498.914 145.912 498.914 149.685 L498.914 164.338 L494.632 164.338 L494.632 138.412 L498.914 138.412 L498.914 142.44 Q500.372 140.055 502.409 138.921 Q504.446 137.787 507.247 137.787 Q510.071 137.787 512.039 139.222 Q514.03 140.657 514.979 143.389 Z" fill="#000000" fill-rule="nonzero" fill-opacity="1" /><path clip-path="url(#clip850)" d="M545.094 160.449 L545.094 174.199 L540.812 174.199 L540.812 138.412 L545.094 138.412 L545.094 142.347 Q546.437 140.032 548.474 138.921 Q550.534 137.787 553.381 137.787 Q558.103 137.787 561.043 141.537 Q564.006 145.287 564.006 151.398 Q564.006 157.509 561.043 161.259 Q558.103 165.009 553.381 165.009 Q550.534 165.009 548.474 163.898 Q546.437 162.763 545.094 160.449 M559.585 151.398 Q559.585 146.699 557.641 144.037 Q555.719 141.352 552.34 141.352 Q548.96 141.352 547.016 144.037 Q545.094 146.699 545.094 151.398 Q545.094 156.097 547.016 158.782 Q548.96 161.444 552.34 161.444 Q555.719 161.444 557.641 158.782 Q559.585 156.097 559.585 151.398 Z" fill="#000000" fill-rule="nonzero" fill-opacity="1" /><path clip-path="url(#clip850)" d="M571.066 128.319 L575.326 128.319 L575.326 164.338 L571.066 164.338 L571.066 128.319 Z" fill="#000000" fill-rule="nonzero" fill-opacity="1" /><path clip-path="url(#clip850)" d="M594.284 141.398 Q590.858 141.398 588.867 144.083 Q586.876 146.745 586.876 151.398 Q586.876 156.051 588.844 158.736 Q590.835 161.398 594.284 161.398 Q597.687 161.398 599.677 158.713 Q601.668 156.027 601.668 151.398 Q601.668 146.791 599.677 144.106 Q597.687 141.398 594.284 141.398 M594.284 137.787 Q599.839 137.787 603.011 141.398 Q606.182 145.009 606.182 151.398 Q606.182 157.764 603.011 161.398 Q599.839 165.009 594.284 165.009 Q588.705 165.009 585.534 161.398 Q582.386 157.764 582.386 151.398 Q582.386 145.009 585.534 141.398 Q588.705 137.787 594.284 137.787 Z" fill="#000000" fill-rule="nonzero" fill-opacity="1" /><path clip-path="url(#clip850)" d="M624.029 166.745 Q622.223 171.375 620.511 172.787 Q618.798 174.199 615.927 174.199 L612.524 174.199 L612.524 170.634 L615.024 170.634 Q616.784 170.634 617.756 169.8 Q618.728 168.967 619.909 165.865 L620.673 163.921 L610.187 138.412 L614.7 138.412 L622.802 158.689 L630.904 138.412 L635.418 138.412 L624.029 166.745 Z" fill="#000000" fill-rule="nonzero" fill-opacity="1" /><path clip-path="url(#clip850)" d="M663.473 150.31 L663.473 152.393 L643.89 152.393 Q644.168 156.791 646.529 159.106 Q648.913 161.398 653.149 161.398 Q655.603 161.398 657.895 160.796 Q660.209 160.194 662.478 158.99 L662.478 163.018 Q660.186 163.99 657.779 164.5 Q655.371 165.009 652.895 165.009 Q646.691 165.009 643.057 161.398 Q639.446 157.787 639.446 151.629 Q639.446 145.264 642.872 141.537 Q646.321 137.787 652.154 137.787 Q657.385 137.787 660.418 141.166 Q663.473 144.523 663.473 150.31 M659.214 149.06 Q659.168 145.565 657.246 143.481 Q655.348 141.398 652.2 141.398 Q648.635 141.398 646.483 143.412 Q644.353 145.426 644.029 149.083 L659.214 149.06 Z" fill="#000000" fill-rule="nonzero" fill-opacity="1" /><path clip-path="url(#clip850)" d="M687.524 142.347 L687.524 128.319 L691.783 128.319 L691.783 164.338 L687.524 164.338 L687.524 160.449 Q686.181 162.763 684.121 163.898 Q682.084 165.009 679.214 165.009 Q674.515 165.009 671.552 161.259 Q668.612 157.509 668.612 151.398 Q668.612 145.287 671.552 141.537 Q674.515 137.787 679.214 137.787 Q682.084 137.787 684.121 138.921 Q686.181 140.032 687.524 142.347 M673.01 151.398 Q673.01 156.097 674.932 158.782 Q676.876 161.444 680.256 161.444 Q683.635 161.444 685.58 158.782 Q687.524 156.097 687.524 151.398 Q687.524 146.699 685.58 144.037 Q683.635 141.352 680.256 141.352 Q676.876 141.352 674.932 144.037 Q673.01 146.699 673.01 151.398 Z" fill="#000000" fill-rule="nonzero" fill-opacity="1" /><path clip-path="url(#clip850)" d="M712.732 129.778 L717.454 129.778 L724.723 158.99 L731.968 129.778 L737.223 129.778 L744.491 158.99 L751.737 129.778 L756.482 129.778 L747.802 164.338 L741.922 164.338 L734.63 134.338 L727.269 164.338 L721.39 164.338 L712.732 129.778 Z" fill="#000000" fill-rule="nonzero" fill-opacity="1" /><path clip-path="url(#clip850)" d="M769.769 141.398 Q766.343 141.398 764.352 144.083 Q762.362 146.745 762.362 151.398 Q762.362 156.051 764.329 158.736 Q766.32 161.398 769.769 161.398 Q773.172 161.398 775.162 158.713 Q777.153 156.027 777.153 151.398 Q777.153 146.791 775.162 144.106 Q773.172 141.398 769.769 141.398 M769.769 137.787 Q775.325 137.787 778.496 141.398 Q781.667 145.009 781.667 151.398 Q781.667 157.764 778.496 161.398 Q775.325 165.009 769.769 165.009 Q764.19 165.009 761.019 161.398 Q757.871 157.764 757.871 151.398 Q757.871 145.009 761.019 141.398 Q764.19 137.787 769.769 137.787 Z" fill="#000000" fill-rule="nonzero" fill-opacity="1" /><path clip-path="url(#clip850)" d="M803.75 142.393 Q803.033 141.977 802.176 141.791 Q801.343 141.583 800.324 141.583 Q796.713 141.583 794.769 143.944 Q792.848 146.282 792.848 150.68 L792.848 164.338 L788.565 164.338 L788.565 138.412 L792.848 138.412 L792.848 142.44 Q794.19 140.078 796.343 138.944 Q798.496 137.787 801.574 137.787 Q802.014 137.787 802.547 137.856 Q803.079 137.903 803.727 138.018 L803.75 142.393 Z" fill="#000000" fill-rule="nonzero" fill-opacity="1" /><path clip-path="url(#clip850)" d="M808.056 128.319 L812.338 128.319 L812.338 149.592 L825.046 138.412 L830.486 138.412 L816.736 150.541 L831.065 164.338 L825.509 164.338 L812.338 151.676 L812.338 164.338 L808.056 164.338 L808.056 128.319 Z" fill="#000000" fill-rule="nonzero" fill-opacity="1" /><path clip-path="url(#clip850)" d="M856.157 150.31 L856.157 152.393 L836.574 152.393 Q836.852 156.791 839.213 159.106 Q841.597 161.398 845.833 161.398 Q848.287 161.398 850.579 160.796 Q852.894 160.194 855.162 158.99 L855.162 163.018 Q852.87 163.99 850.463 164.5 Q848.056 165.009 845.579 165.009 Q839.375 165.009 835.741 161.398 Q832.13 157.787 832.13 151.629 Q832.13 145.264 835.556 141.537 Q839.005 137.787 844.838 137.787 Q850.069 137.787 853.102 141.166 Q856.157 144.523 856.157 150.31 M851.898 149.06 Q851.852 145.565 849.931 143.481 Q848.032 141.398 844.884 141.398 Q841.32 141.398 839.167 143.412 Q837.037 145.426 836.713 149.083 L851.898 149.06 Z" fill="#000000" fill-rule="nonzero" fill-opacity="1" /><path clip-path="url(#clip850)" d="M878.171 142.393 Q877.454 141.977 876.597 141.791 Q875.764 141.583 874.745 141.583 Q871.134 141.583 869.19 143.944 Q867.268 146.282 867.268 150.68 L867.268 164.338 L862.986 164.338 L862.986 138.412 L867.268 138.412 L867.268 142.44 Q868.611 140.078 870.764 138.944 Q872.917 137.787 875.995 137.787 Q876.435 137.787 876.968 137.856 Q877.5 137.903 878.148 138.018 L878.171 142.393 Z" fill="#000000" fill-rule="nonzero" fill-opacity="1" /><path clip-path="url(#clip850)" d="M899.166 139.176 L899.166 143.203 Q897.361 142.277 895.416 141.815 Q893.472 141.352 891.389 141.352 Q888.217 141.352 886.62 142.324 Q885.046 143.296 885.046 145.24 Q885.046 146.722 886.18 147.578 Q887.315 148.412 890.741 149.176 L892.199 149.5 Q896.736 150.472 898.634 152.254 Q900.555 154.014 900.555 157.185 Q900.555 160.796 897.685 162.902 Q894.838 165.009 889.838 165.009 Q887.754 165.009 885.486 164.592 Q883.241 164.199 880.741 163.388 L880.741 158.99 Q883.102 160.217 885.393 160.842 Q887.685 161.444 889.93 161.444 Q892.94 161.444 894.56 160.426 Q896.18 159.384 896.18 157.509 Q896.18 155.773 895 154.847 Q893.842 153.921 889.884 153.064 L888.403 152.717 Q884.444 151.884 882.685 150.171 Q880.926 148.435 880.926 145.426 Q880.926 141.768 883.518 139.778 Q886.111 137.787 890.879 137.787 Q893.241 137.787 895.324 138.134 Q897.407 138.481 899.166 139.176 Z" fill="#000000" fill-rule="nonzero" fill-opacity="1" /></svg>
