<?xml version="1.0" encoding="utf-8"?>
<svg xmlns="http://www.w3.org/2000/svg" xmlns:xlink="http://www.w3.org/1999/xlink" width="600" height="300" viewBox="0 0 2400 1200">
<defs>
  <clipPath id="clip120">
    <rect x="0" y="0" width="2400" height="1200"/>
  </clipPath>
</defs>
<path clip-path="url(#clip120)" d="M0 1200 L2400 1200 L2400 0 L0 0  Z" fill="#ffffff" fill-rule="evenodd" fill-opacity="1"/>
<defs>
  <clipPath id="clip121">
    <rect x="480" y="0" width="1681" height="1200"/>
  </clipPath>
</defs>
<path clip-path="url(#clip120)" d="M216.436 1099.09 L1153.8 1099.09 L1153.8 92.1521 L216.436 92.1521  Z" fill="#ffffff" fill-rule="evenodd" fill-opacity="1"/>
<defs>
  <clipPath id="clip122">
    <rect x="216" y="92" width="938" height="1008"/>
  </clipPath>
</defs>
<polyline clip-path="url(#clip122)" style="stroke:#000000; stroke-linecap:round; stroke-linejoin:round; stroke-width:2; stroke-opacity:0.1; fill:none" points="411.404,1099.09 411.404,92.1521 "/>
<polyline clip-path="url(#clip122)" style="stroke:#000000; stroke-linecap:round; stroke-linejoin:round; stroke-width:2; stroke-opacity:0.1; fill:none" points="621.952,1099.09 621.952,92.1521 "/>
<polyline clip-path="url(#clip122)" style="stroke:#000000; stroke-linecap:round; stroke-linejoin:round; stroke-width:2; stroke-opacity:0.1; fill:none" points="832.501,1099.09 832.501,92.1521 "/>
<polyline clip-path="url(#clip122)" style="stroke:#000000; stroke-linecap:round; stroke-linejoin:round; stroke-width:2; stroke-opacity:0.1; fill:none" points="1043.05,1099.09 1043.05,92.1521 "/>
<polyline clip-path="url(#clip122)" style="stroke:#000000; stroke-linecap:round; stroke-linejoin:round; stroke-width:2; stroke-opacity:0.1; fill:none" points="216.436,1087.05 1153.8,1087.05 "/>
<polyline clip-path="url(#clip122)" style="stroke:#000000; stroke-linecap:round; stroke-linejoin:round; stroke-width:2; stroke-opacity:0.1; fill:none" points="216.436,845.449 1153.8,845.449 "/>
<polyline clip-path="url(#clip122)" style="stroke:#000000; stroke-linecap:round; stroke-linejoin:round; stroke-width:2; stroke-opacity:0.1; fill:none" points="216.436,603.85 1153.8,603.85 "/>
<polyline clip-path="url(#clip122)" style="stroke:#000000; stroke-linecap:round; stroke-linejoin:round; stroke-width:2; stroke-opacity:0.1; fill:none" points="216.436,362.25 1153.8,362.25 "/>
<polyline clip-path="url(#clip122)" style="stroke:#000000; stroke-linecap:round; stroke-linejoin:round; stroke-width:2; stroke-opacity:0.1; fill:none" points="216.436,120.65 1153.8,120.65 "/>
<polyline clip-path="url(#clip120)" style="stroke:#000000; stroke-linecap:round; stroke-linejoin:round; stroke-width:4; stroke-opacity:1; fill:none" points="216.436,1099.09 1153.8,1099.09 "/>
<polyline clip-path="url(#clip120)" style="stroke:#000000; stroke-linecap:round; stroke-linejoin:round; stroke-width:4; stroke-opacity:1; fill:none" points="411.404,1099.09 411.404,1080.19 "/>
<polyline clip-path="url(#clip120)" style="stroke:#000000; stroke-linecap:round; stroke-linejoin:round; stroke-width:4; stroke-opacity:1; fill:none" points="621.952,1099.09 621.952,1080.19 "/>
<polyline clip-path="url(#clip120)" style="stroke:#000000; stroke-linecap:round; stroke-linejoin:round; stroke-width:4; stroke-opacity:1; fill:none" points="832.501,1099.09 832.501,1080.19 "/>
<polyline clip-path="url(#clip120)" style="stroke:#000000; stroke-linecap:round; stroke-linejoin:round; stroke-width:4; stroke-opacity:1; fill:none" points="1043.05,1099.09 1043.05,1080.19 "/>
<path clip-path="url(#clip120)" d="M401.682 1126.93 L420.038 1126.93 L420.038 1130.86 L405.964 1130.86 L405.964 1139.34 Q406.982 1138.99 408.001 1138.83 Q409.019 1138.64 410.038 1138.64 Q415.825 1138.64 419.205 1141.81 Q422.584 1144.98 422.584 1150.4 Q422.584 1155.98 419.112 1159.08 Q415.64 1162.16 409.32 1162.16 Q407.145 1162.16 404.876 1161.79 Q402.631 1161.42 400.223 1160.68 L400.223 1155.98 Q402.307 1157.11 404.529 1157.67 Q406.751 1158.22 409.228 1158.22 Q413.232 1158.22 415.57 1156.12 Q417.908 1154.01 417.908 1150.4 Q417.908 1146.79 415.57 1144.68 Q413.232 1142.58 409.228 1142.58 Q407.353 1142.58 405.478 1142.99 Q403.626 1143.41 401.682 1144.29 L401.682 1126.93 Z" fill="#000000" fill-rule="nonzero" fill-opacity="1" /><path clip-path="url(#clip120)" d="M596.64 1157.55 L604.279 1157.55 L604.279 1131.19 L595.969 1132.85 L595.969 1128.59 L604.232 1126.93 L608.908 1126.93 L608.908 1157.55 L616.547 1157.55 L616.547 1161.49 L596.64 1161.49 L596.64 1157.55 Z" fill="#000000" fill-rule="nonzero" fill-opacity="1" /><path clip-path="url(#clip120)" d="M635.991 1130.01 Q632.38 1130.01 630.552 1133.57 Q628.746 1137.11 628.746 1144.24 Q628.746 1151.35 630.552 1154.91 Q632.38 1158.46 635.991 1158.46 Q639.626 1158.46 641.431 1154.91 Q643.26 1151.35 643.26 1144.24 Q643.26 1137.11 641.431 1133.57 Q639.626 1130.01 635.991 1130.01 M635.991 1126.3 Q641.802 1126.3 644.857 1130.91 Q647.936 1135.49 647.936 1144.24 Q647.936 1152.97 644.857 1157.58 Q641.802 1162.16 635.991 1162.16 Q630.181 1162.16 627.103 1157.58 Q624.047 1152.97 624.047 1144.24 Q624.047 1135.49 627.103 1130.91 Q630.181 1126.3 635.991 1126.3 Z" fill="#000000" fill-rule="nonzero" fill-opacity="1" /><path clip-path="url(#clip120)" d="M807.686 1157.55 L815.325 1157.55 L815.325 1131.19 L807.015 1132.85 L807.015 1128.59 L815.279 1126.93 L819.954 1126.93 L819.954 1157.55 L827.593 1157.55 L827.593 1161.49 L807.686 1161.49 L807.686 1157.55 Z" fill="#000000" fill-rule="nonzero" fill-opacity="1" /><path clip-path="url(#clip120)" d="M837.084 1126.93 L855.44 1126.93 L855.44 1130.86 L841.366 1130.86 L841.366 1139.34 Q842.385 1138.99 843.403 1138.83 Q844.422 1138.64 845.44 1138.64 Q851.227 1138.64 854.607 1141.81 Q857.987 1144.98 857.987 1150.4 Q857.987 1155.98 854.514 1159.08 Q851.042 1162.16 844.723 1162.16 Q842.547 1162.16 840.278 1161.79 Q838.033 1161.42 835.626 1160.68 L835.626 1155.98 Q837.709 1157.11 839.931 1157.67 Q842.153 1158.22 844.63 1158.22 Q848.635 1158.22 850.973 1156.12 Q853.311 1154.01 853.311 1150.4 Q853.311 1146.79 850.973 1144.68 Q848.635 1142.58 844.63 1142.58 Q842.755 1142.58 840.88 1142.99 Q839.028 1143.41 837.084 1144.29 L837.084 1126.93 Z" fill="#000000" fill-rule="nonzero" fill-opacity="1" /><path clip-path="url(#clip120)" d="M1021.82 1157.55 L1038.14 1157.55 L1038.14 1161.49 L1016.2 1161.49 L1016.2 1157.55 Q1018.86 1154.8 1023.44 1150.17 Q1028.05 1145.52 1029.23 1144.17 Q1031.48 1141.65 1032.35 1139.91 Q1033.26 1138.15 1033.26 1136.46 Q1033.26 1133.71 1031.31 1131.97 Q1029.39 1130.24 1026.29 1130.24 Q1024.09 1130.24 1021.64 1131 Q1019.21 1131.77 1016.43 1133.32 L1016.43 1128.59 Q1019.25 1127.46 1021.71 1126.88 Q1024.16 1126.3 1026.2 1126.3 Q1031.57 1126.3 1034.76 1128.99 Q1037.96 1131.67 1037.96 1136.16 Q1037.96 1138.29 1037.15 1140.21 Q1036.36 1142.11 1034.25 1144.71 Q1033.67 1145.38 1030.57 1148.59 Q1027.47 1151.79 1021.82 1157.55 Z" fill="#000000" fill-rule="nonzero" fill-opacity="1" /><path clip-path="url(#clip120)" d="M1057.96 1130.01 Q1054.35 1130.01 1052.52 1133.57 Q1050.71 1137.11 1050.71 1144.24 Q1050.71 1151.35 1052.52 1154.91 Q1054.35 1158.46 1057.96 1158.46 Q1061.59 1158.46 1063.4 1154.91 Q1065.22 1151.35 1065.22 1144.24 Q1065.22 1137.11 1063.4 1133.57 Q1061.59 1130.01 1057.96 1130.01 M1057.96 1126.3 Q1063.77 1126.3 1066.82 1130.91 Q1069.9 1135.49 1069.9 1144.24 Q1069.9 1152.97 1066.82 1157.58 Q1063.77 1162.16 1057.96 1162.16 Q1052.15 1162.16 1049.07 1157.58 Q1046.01 1152.97 1046.01 1144.24 Q1046.01 1135.49 1049.07 1130.91 Q1052.15 1126.3 1057.96 1126.3 Z" fill="#000000" fill-rule="nonzero" fill-opacity="1" /><polyline clip-path="url(#clip120)" style="stroke:#000000; stroke-linecap:round; stroke-linejoin:round; stroke-width:4; stroke-opacity:1; fill:none" points="216.436,1099.09 216.436,92.1521 "/>
<polyline clip-path="url(#clip120)" style="stroke:#000000; stroke-linecap:round; stroke-linejoin:round; stroke-width:4; stroke-opacity:1; fill:none" points="216.436,1087.05 235.334,1087.05 "/>
<polyline clip-path="url(#clip120)" style="stroke:#000000; stroke-linecap:round; stroke-linejoin:round; stroke-width:4; stroke-opacity:1; fill:none" points="216.436,845.449 235.334,845.449 "/>
<polyline clip-path="url(#clip120)" style="stroke:#000000; stroke-linecap:round; stroke-linejoin:round; stroke-width:4; stroke-opacity:1; fill:none" points="216.436,603.85 235.334,603.85 "/>
<polyline clip-path="url(#clip120)" style="stroke:#000000; stroke-linecap:round; stroke-linejoin:round; stroke-width:4; stroke-opacity:1; fill:none" points="216.436,362.25 235.334,362.25 "/>
<polyline clip-path="url(#clip120)" style="stroke:#000000; stroke-linecap:round; stroke-linejoin:round; stroke-width:4; stroke-opacity:1; fill:none" points="216.436,120.65 235.334,120.65 "/>
<path clip-path="url(#clip120)" d="M62.9365 1072.85 Q59.3254 1072.85 57.4967 1076.41 Q55.6912 1079.95 55.6912 1087.08 Q55.6912 1094.19 57.4967 1097.75 Q59.3254 1101.3 62.9365 1101.3 Q66.5707 1101.3 68.3763 1097.75 Q70.205 1094.19 70.205 1087.08 Q70.205 1079.95 68.3763 1076.41 Q66.5707 1072.85 62.9365 1072.85 M62.9365 1069.14 Q68.7467 1069.14 71.8022 1073.75 Q74.8809 1078.33 74.8809 1087.08 Q74.8809 1095.81 71.8022 1100.42 Q68.7467 1105 62.9365 1105 Q57.1264 1105 54.0477 1100.42 Q50.9921 1095.81 50.9921 1087.08 Q50.9921 1078.33 54.0477 1073.75 Q57.1264 1069.14 62.9365 1069.14 Z" fill="#000000" fill-rule="nonzero" fill-opacity="1" /><path clip-path="url(#clip120)" d="M83.0984 1098.45 L87.9827 1098.45 L87.9827 1104.33 L83.0984 1104.33 L83.0984 1098.45 Z" fill="#000000" fill-rule="nonzero" fill-opacity="1" /><path clip-path="url(#clip120)" d="M108.168 1072.85 Q104.557 1072.85 102.728 1076.41 Q100.922 1079.95 100.922 1087.08 Q100.922 1094.19 102.728 1097.75 Q104.557 1101.3 108.168 1101.3 Q111.802 1101.3 113.608 1097.75 Q115.436 1094.19 115.436 1087.08 Q115.436 1079.95 113.608 1076.41 Q111.802 1072.85 108.168 1072.85 M108.168 1069.14 Q113.978 1069.14 117.033 1073.75 Q120.112 1078.33 120.112 1087.08 Q120.112 1095.81 117.033 1100.42 Q113.978 1105 108.168 1105 Q102.358 1105 99.2789 1100.42 Q96.2234 1095.81 96.2234 1087.08 Q96.2234 1078.33 99.2789 1073.75 Q102.358 1069.14 108.168 1069.14 Z" fill="#000000" fill-rule="nonzero" fill-opacity="1" /><path clip-path="url(#clip120)" d="M138.33 1072.85 Q134.719 1072.85 132.89 1076.41 Q131.084 1079.95 131.084 1087.08 Q131.084 1094.19 132.89 1097.75 Q134.719 1101.3 138.33 1101.3 Q141.964 1101.3 143.769 1097.75 Q145.598 1094.19 145.598 1087.08 Q145.598 1079.95 143.769 1076.41 Q141.964 1072.85 138.33 1072.85 M138.33 1069.14 Q144.14 1069.14 147.195 1073.75 Q150.274 1078.33 150.274 1087.08 Q150.274 1095.81 147.195 1100.42 Q144.14 1105 138.33 1105 Q132.519 1105 129.441 1100.42 Q126.385 1095.81 126.385 1087.08 Q126.385 1078.33 129.441 1073.75 Q132.519 1069.14 138.33 1069.14 Z" fill="#000000" fill-rule="nonzero" fill-opacity="1" /><path clip-path="url(#clip120)" d="M168.491 1072.85 Q164.88 1072.85 163.052 1076.41 Q161.246 1079.95 161.246 1087.08 Q161.246 1094.19 163.052 1097.75 Q164.88 1101.3 168.491 1101.3 Q172.126 1101.3 173.931 1097.75 Q175.76 1094.19 175.76 1087.08 Q175.76 1079.95 173.931 1076.41 Q172.126 1072.85 168.491 1072.85 M168.491 1069.14 Q174.302 1069.14 177.357 1073.75 Q180.436 1078.33 180.436 1087.08 Q180.436 1095.81 177.357 1100.42 Q174.302 1105 168.491 1105 Q162.681 1105 159.603 1100.42 Q156.547 1095.81 156.547 1087.08 Q156.547 1078.33 159.603 1073.75 Q162.681 1069.14 168.491 1069.14 Z" fill="#000000" fill-rule="nonzero" fill-opacity="1" /><path clip-path="url(#clip120)" d="M63.9319 831.248 Q60.3208 831.248 58.4921 834.813 Q56.6865 838.354 56.6865 845.484 Q56.6865 852.59 58.4921 856.155 Q60.3208 859.697 63.9319 859.697 Q67.5661 859.697 69.3717 856.155 Q71.2004 852.59 71.2004 845.484 Q71.2004 838.354 69.3717 834.813 Q67.5661 831.248 63.9319 831.248 M63.9319 827.544 Q69.742 827.544 72.7976 832.151 Q75.8763 836.734 75.8763 845.484 Q75.8763 854.211 72.7976 858.817 Q69.742 863.401 63.9319 863.401 Q58.1217 863.401 55.043 858.817 Q51.9875 854.211 51.9875 845.484 Q51.9875 836.734 55.043 832.151 Q58.1217 827.544 63.9319 827.544 Z" fill="#000000" fill-rule="nonzero" fill-opacity="1" /><path clip-path="url(#clip120)" d="M84.0938 856.85 L88.978 856.85 L88.978 862.729 L84.0938 862.729 L84.0938 856.85 Z" fill="#000000" fill-rule="nonzero" fill-opacity="1" /><path clip-path="url(#clip120)" d="M109.163 831.248 Q105.552 831.248 103.723 834.813 Q101.918 838.354 101.918 845.484 Q101.918 852.59 103.723 856.155 Q105.552 859.697 109.163 859.697 Q112.797 859.697 114.603 856.155 Q116.432 852.59 116.432 845.484 Q116.432 838.354 114.603 834.813 Q112.797 831.248 109.163 831.248 M109.163 827.544 Q114.973 827.544 118.029 832.151 Q121.107 836.734 121.107 845.484 Q121.107 854.211 118.029 858.817 Q114.973 863.401 109.163 863.401 Q103.353 863.401 100.274 858.817 Q97.2187 854.211 97.2187 845.484 Q97.2187 836.734 100.274 832.151 Q103.353 827.544 109.163 827.544 Z" fill="#000000" fill-rule="nonzero" fill-opacity="1" /><path clip-path="url(#clip120)" d="M139.325 831.248 Q135.714 831.248 133.885 834.813 Q132.08 838.354 132.08 845.484 Q132.08 852.59 133.885 856.155 Q135.714 859.697 139.325 859.697 Q142.959 859.697 144.765 856.155 Q146.593 852.59 146.593 845.484 Q146.593 838.354 144.765 834.813 Q142.959 831.248 139.325 831.248 M139.325 827.544 Q145.135 827.544 148.191 832.151 Q151.269 836.734 151.269 845.484 Q151.269 854.211 148.191 858.817 Q145.135 863.401 139.325 863.401 Q133.515 863.401 130.436 858.817 Q127.381 854.211 127.381 845.484 Q127.381 836.734 130.436 832.151 Q133.515 827.544 139.325 827.544 Z" fill="#000000" fill-rule="nonzero" fill-opacity="1" /><path clip-path="url(#clip120)" d="M159.533 828.169 L177.89 828.169 L177.89 832.104 L163.816 832.104 L163.816 840.577 Q164.834 840.229 165.853 840.067 Q166.871 839.882 167.89 839.882 Q173.677 839.882 177.056 843.053 Q180.436 846.225 180.436 851.641 Q180.436 857.22 176.964 860.322 Q173.491 863.401 167.172 863.401 Q164.996 863.401 162.728 863.03 Q160.482 862.66 158.075 861.919 L158.075 857.22 Q160.158 858.354 162.38 858.91 Q164.603 859.465 167.079 859.465 Q171.084 859.465 173.422 857.359 Q175.76 855.252 175.76 851.641 Q175.76 848.03 173.422 845.924 Q171.084 843.817 167.079 843.817 Q165.204 843.817 163.329 844.234 Q161.478 844.651 159.533 845.53 L159.533 828.169 Z" fill="#000000" fill-rule="nonzero" fill-opacity="1" /><path clip-path="url(#clip120)" d="M62.9365 589.648 Q59.3254 589.648 57.4967 593.213 Q55.6912 596.755 55.6912 603.884 Q55.6912 610.991 57.4967 614.556 Q59.3254 618.097 62.9365 618.097 Q66.5707 618.097 68.3763 614.556 Q70.205 610.991 70.205 603.884 Q70.205 596.755 68.3763 593.213 Q66.5707 589.648 62.9365 589.648 M62.9365 585.945 Q68.7467 585.945 71.8022 590.551 Q74.8809 595.134 74.8809 603.884 Q74.8809 612.611 71.8022 617.218 Q68.7467 621.801 62.9365 621.801 Q57.1264 621.801 54.0477 617.218 Q50.9921 612.611 50.9921 603.884 Q50.9921 595.134 54.0477 590.551 Q57.1264 585.945 62.9365 585.945 Z" fill="#000000" fill-rule="nonzero" fill-opacity="1" /><path clip-path="url(#clip120)" d="M83.0984 615.25 L87.9827 615.25 L87.9827 621.13 L83.0984 621.13 L83.0984 615.25 Z" fill="#000000" fill-rule="nonzero" fill-opacity="1" /><path clip-path="url(#clip120)" d="M108.168 589.648 Q104.557 589.648 102.728 593.213 Q100.922 596.755 100.922 603.884 Q100.922 610.991 102.728 614.556 Q104.557 618.097 108.168 618.097 Q111.802 618.097 113.608 614.556 Q115.436 610.991 115.436 603.884 Q115.436 596.755 113.608 593.213 Q111.802 589.648 108.168 589.648 M108.168 585.945 Q113.978 585.945 117.033 590.551 Q120.112 595.134 120.112 603.884 Q120.112 612.611 117.033 617.218 Q113.978 621.801 108.168 621.801 Q102.358 621.801 99.2789 617.218 Q96.2234 612.611 96.2234 603.884 Q96.2234 595.134 99.2789 590.551 Q102.358 585.945 108.168 585.945 Z" fill="#000000" fill-rule="nonzero" fill-opacity="1" /><path clip-path="url(#clip120)" d="M129.14 617.194 L136.779 617.194 L136.779 590.829 L128.469 592.496 L128.469 588.236 L136.732 586.57 L141.408 586.57 L141.408 617.194 L149.047 617.194 L149.047 621.13 L129.14 621.13 L129.14 617.194 Z" fill="#000000" fill-rule="nonzero" fill-opacity="1" /><path clip-path="url(#clip120)" d="M168.491 589.648 Q164.88 589.648 163.052 593.213 Q161.246 596.755 161.246 603.884 Q161.246 610.991 163.052 614.556 Q164.88 618.097 168.491 618.097 Q172.126 618.097 173.931 614.556 Q175.76 610.991 175.76 603.884 Q175.76 596.755 173.931 593.213 Q172.126 589.648 168.491 589.648 M168.491 585.945 Q174.302 585.945 177.357 590.551 Q180.436 595.134 180.436 603.884 Q180.436 612.611 177.357 617.218 Q174.302 621.801 168.491 621.801 Q162.681 621.801 159.603 617.218 Q156.547 612.611 156.547 603.884 Q156.547 595.134 159.603 590.551 Q162.681 585.945 168.491 585.945 Z" fill="#000000" fill-rule="nonzero" fill-opacity="1" /><path clip-path="url(#clip120)" d="M63.9319 348.049 Q60.3208 348.049 58.4921 351.613 Q56.6865 355.155 56.6865 362.285 Q56.6865 369.391 58.4921 372.956 Q60.3208 376.498 63.9319 376.498 Q67.5661 376.498 69.3717 372.956 Q71.2004 369.391 71.2004 362.285 Q71.2004 355.155 69.3717 351.613 Q67.5661 348.049 63.9319 348.049 M63.9319 344.345 Q69.742 344.345 72.7976 348.951 Q75.8763 353.535 75.8763 362.285 Q75.8763 371.011 72.7976 375.618 Q69.742 380.201 63.9319 380.201 Q58.1217 380.201 55.043 375.618 Q51.9875 371.011 51.9875 362.285 Q51.9875 353.535 55.043 348.951 Q58.1217 344.345 63.9319 344.345 Z" fill="#000000" fill-rule="nonzero" fill-opacity="1" /><path clip-path="url(#clip120)" d="M84.0938 373.65 L88.978 373.65 L88.978 379.53 L84.0938 379.53 L84.0938 373.65 Z" fill="#000000" fill-rule="nonzero" fill-opacity="1" /><path clip-path="url(#clip120)" d="M109.163 348.049 Q105.552 348.049 103.723 351.613 Q101.918 355.155 101.918 362.285 Q101.918 369.391 103.723 372.956 Q105.552 376.498 109.163 376.498 Q112.797 376.498 114.603 372.956 Q116.432 369.391 116.432 362.285 Q116.432 355.155 114.603 351.613 Q112.797 348.049 109.163 348.049 M109.163 344.345 Q114.973 344.345 118.029 348.951 Q121.107 353.535 121.107 362.285 Q121.107 371.011 118.029 375.618 Q114.973 380.201 109.163 380.201 Q103.353 380.201 100.274 375.618 Q97.2187 371.011 97.2187 362.285 Q97.2187 353.535 100.274 348.951 Q103.353 344.345 109.163 344.345 Z" fill="#000000" fill-rule="nonzero" fill-opacity="1" /><path clip-path="url(#clip120)" d="M130.135 375.595 L137.774 375.595 L137.774 349.229 L129.464 350.896 L129.464 346.637 L137.728 344.97 L142.404 344.97 L142.404 375.595 L150.043 375.595 L150.043 379.53 L130.135 379.53 L130.135 375.595 Z" fill="#000000" fill-rule="nonzero" fill-opacity="1" /><path clip-path="url(#clip120)" d="M159.533 344.97 L177.89 344.97 L177.89 348.905 L163.816 348.905 L163.816 357.377 Q164.834 357.03 165.853 356.868 Q166.871 356.683 167.89 356.683 Q173.677 356.683 177.056 359.854 Q180.436 363.025 180.436 368.442 Q180.436 374.021 176.964 377.123 Q173.491 380.201 167.172 380.201 Q164.996 380.201 162.728 379.831 Q160.482 379.461 158.075 378.72 L158.075 374.021 Q160.158 375.155 162.38 375.711 Q164.603 376.266 167.079 376.266 Q171.084 376.266 173.422 374.16 Q175.76 372.053 175.76 368.442 Q175.76 364.831 173.422 362.724 Q171.084 360.618 167.079 360.618 Q165.204 360.618 163.329 361.035 Q161.478 361.451 159.533 362.331 L159.533 344.97 Z" fill="#000000" fill-rule="nonzero" fill-opacity="1" /><path clip-path="url(#clip120)" d="M62.9365 106.449 Q59.3254 106.449 57.4967 110.014 Q55.6912 113.555 55.6912 120.685 Q55.6912 127.791 57.4967 131.356 Q59.3254 134.898 62.9365 134.898 Q66.5707 134.898 68.3763 131.356 Q70.205 127.791 70.205 120.685 Q70.205 113.555 68.3763 110.014 Q66.5707 106.449 62.9365 106.449 M62.9365 102.745 Q68.7467 102.745 71.8022 107.352 Q74.8809 111.935 74.8809 120.685 Q74.8809 129.412 71.8022 134.018 Q68.7467 138.602 62.9365 138.602 Q57.1264 138.602 54.0477 134.018 Q50.9921 129.412 50.9921 120.685 Q50.9921 111.935 54.0477 107.352 Q57.1264 102.745 62.9365 102.745 Z" fill="#000000" fill-rule="nonzero" fill-opacity="1" /><path clip-path="url(#clip120)" d="M83.0984 132.051 L87.9827 132.051 L87.9827 137.93 L83.0984 137.93 L83.0984 132.051 Z" fill="#000000" fill-rule="nonzero" fill-opacity="1" /><path clip-path="url(#clip120)" d="M108.168 106.449 Q104.557 106.449 102.728 110.014 Q100.922 113.555 100.922 120.685 Q100.922 127.791 102.728 131.356 Q104.557 134.898 108.168 134.898 Q111.802 134.898 113.608 131.356 Q115.436 127.791 115.436 120.685 Q115.436 113.555 113.608 110.014 Q111.802 106.449 108.168 106.449 M108.168 102.745 Q113.978 102.745 117.033 107.352 Q120.112 111.935 120.112 120.685 Q120.112 129.412 117.033 134.018 Q113.978 138.602 108.168 138.602 Q102.358 138.602 99.2789 134.018 Q96.2234 129.412 96.2234 120.685 Q96.2234 111.935 99.2789 107.352 Q102.358 102.745 108.168 102.745 Z" fill="#000000" fill-rule="nonzero" fill-opacity="1" /><path clip-path="url(#clip120)" d="M132.357 133.995 L148.677 133.995 L148.677 137.93 L126.732 137.93 L126.732 133.995 Q129.394 131.241 133.978 126.611 Q138.584 121.958 139.765 120.616 Q142.01 118.092 142.89 116.356 Q143.793 114.597 143.793 112.907 Q143.793 110.153 141.848 108.417 Q139.927 106.68 136.825 106.68 Q134.626 106.68 132.172 107.444 Q129.742 108.208 126.964 109.759 L126.964 105.037 Q129.788 103.903 132.242 103.324 Q134.695 102.745 136.732 102.745 Q142.103 102.745 145.297 105.43 Q148.492 108.116 148.492 112.606 Q148.492 114.736 147.681 116.657 Q146.894 118.555 144.788 121.148 Q144.209 121.819 141.107 125.037 Q138.006 128.231 132.357 133.995 Z" fill="#000000" fill-rule="nonzero" fill-opacity="1" /><path clip-path="url(#clip120)" d="M168.491 106.449 Q164.88 106.449 163.052 110.014 Q161.246 113.555 161.246 120.685 Q161.246 127.791 163.052 131.356 Q164.88 134.898 168.491 134.898 Q172.126 134.898 173.931 131.356 Q175.76 127.791 175.76 120.685 Q175.76 113.555 173.931 110.014 Q172.126 106.449 168.491 106.449 M168.491 102.745 Q174.302 102.745 177.357 107.352 Q180.436 111.935 180.436 120.685 Q180.436 129.412 177.357 134.018 Q174.302 138.602 168.491 138.602 Q162.681 138.602 159.603 134.018 Q156.547 129.412 156.547 120.685 Q156.547 111.935 159.603 107.352 Q162.681 102.745 168.491 102.745 Z" fill="#000000" fill-rule="nonzero" fill-opacity="1" /><path clip-path="url(#clip120)" d="M617.734 30.8748 L617.734 33.2186 L595.703 33.2186 Q596.016 38.1665 598.672 40.7706 Q601.354 43.3487 606.12 43.3487 Q608.88 43.3487 611.458 42.6716 Q614.062 41.9946 616.614 40.6404 L616.614 45.1716 Q614.036 46.2654 611.328 46.8383 Q608.62 47.4112 605.833 47.4112 Q598.854 47.4112 594.766 43.3487 Q590.703 39.2862 590.703 32.3592 Q590.703 25.1978 594.557 21.0051 Q598.437 16.7864 605 16.7864 Q610.885 16.7864 614.297 20.5884 Q617.734 24.3645 617.734 30.8748 M612.943 29.4686 Q612.891 25.5363 610.729 23.1926 Q608.594 20.8488 605.052 20.8488 Q601.042 20.8488 598.62 23.1145 Q596.224 25.3801 595.859 29.4946 L612.943 29.4686 Z" fill="#000000" fill-rule="nonzero" fill-opacity="1" /><path clip-path="url(#clip120)" d="M625.104 35.1456 L625.104 17.4895 L629.896 17.4895 L629.896 34.9634 Q629.896 39.104 631.51 41.1873 Q633.125 43.2446 636.354 43.2446 Q640.234 43.2446 642.474 40.7706 Q644.739 38.2967 644.739 34.0259 L644.739 17.4895 L649.531 17.4895 L649.531 46.656 L644.739 46.656 L644.739 42.1769 Q642.995 44.8331 640.677 46.1352 Q638.385 47.4112 635.338 47.4112 Q630.312 47.4112 627.708 44.2862 Q625.104 41.1612 625.104 35.1456 M637.161 16.7864 L637.161 16.7864 Z" fill="#000000" fill-rule="nonzero" fill-opacity="1" /><path clip-path="url(#clip120)" d="M676.302 21.9686 Q675.494 21.4999 674.531 21.2916 Q673.593 21.0572 672.448 21.0572 Q668.385 21.0572 666.198 23.7134 Q664.036 26.3436 664.036 31.2915 L664.036 46.656 L659.218 46.656 L659.218 17.4895 L664.036 17.4895 L664.036 22.0207 Q665.547 19.3645 667.968 18.0884 Q670.39 16.7864 673.854 16.7864 Q674.349 16.7864 674.948 16.8645 Q675.546 16.9166 676.276 17.0468 L676.302 21.9686 Z" fill="#000000" fill-rule="nonzero" fill-opacity="1" /><path clip-path="url(#clip120)" d="M681.328 17.4895 L686.119 17.4895 L686.119 46.656 L681.328 46.656 L681.328 17.4895 M681.328 6.13538 L686.119 6.13538 L686.119 12.2031 L681.328 12.2031 L681.328 6.13538 Z" fill="#000000" fill-rule="nonzero" fill-opacity="1" /><path clip-path="url(#clip120)" d="M717.083 32.0988 Q717.083 26.8124 714.895 23.8176 Q712.734 20.7968 708.932 20.7968 Q705.13 20.7968 702.942 23.8176 Q700.781 26.8124 700.781 32.0988 Q700.781 37.3852 702.942 40.406 Q705.13 43.4008 708.932 43.4008 Q712.734 43.4008 714.895 40.406 Q717.083 37.3852 717.083 32.0988 M700.781 21.9165 Q702.291 19.3124 704.583 18.0624 Q706.9 16.7864 710.104 16.7864 Q715.416 16.7864 718.723 21.0051 Q722.057 25.2238 722.057 32.0988 Q722.057 38.9737 718.723 43.1925 Q715.416 47.4112 710.104 47.4112 Q706.9 47.4112 704.583 46.1612 Q702.291 44.8852 700.781 42.281 L700.781 46.656 L695.963 46.656 L695.963 6.13538 L700.781 6.13538 L700.781 21.9165 Z" fill="#000000" fill-rule="nonzero" fill-opacity="1" /><path clip-path="url(#clip120)" d="M741.301 20.8488 Q737.447 20.8488 735.208 23.8697 Q732.968 26.8644 732.968 32.0988 Q732.968 37.3331 735.182 40.354 Q737.421 43.3487 741.301 43.3487 Q745.129 43.3487 747.369 40.3279 Q749.609 37.3071 749.609 32.0988 Q749.609 26.9165 747.369 23.8957 Q745.129 20.8488 741.301 20.8488 M741.301 16.7864 Q747.551 16.7864 751.119 20.8488 Q754.687 24.9113 754.687 32.0988 Q754.687 39.2602 751.119 43.3487 Q747.551 47.4112 741.301 47.4112 Q735.025 47.4112 731.458 43.3487 Q727.916 39.2602 727.916 32.0988 Q727.916 24.9113 731.458 20.8488 Q735.025 16.7864 741.301 16.7864 Z" fill="#000000" fill-rule="nonzero" fill-opacity="1" /><path clip-path="url(#clip120)" d="M779.53 21.9686 Q778.723 21.4999 777.759 21.2916 Q776.822 21.0572 775.676 21.0572 Q771.614 21.0572 769.426 23.7134 Q767.265 26.3436 767.265 31.2915 L767.265 46.656 L762.447 46.656 L762.447 17.4895 L767.265 17.4895 L767.265 22.0207 Q768.775 19.3645 771.197 18.0884 Q773.619 16.7864 777.082 16.7864 Q777.577 16.7864 778.176 16.8645 Q778.775 16.9166 779.504 17.0468 L779.53 21.9686 Z" fill="#000000" fill-rule="nonzero" fill-opacity="1" /><path clip-path="url(#clip122)" d="M242.965 1007.52 L285.075 1007.52 L327.184 1034.13 L369.294 1037.81 L411.404 1056.04 L453.513 1068.29 L495.623 1070.59 L537.733 1037.37 L579.842 1010.24 L621.952 997.439 L664.062 1000.66 L706.172 1003.01 L748.281 965.083 L790.391 954.947 L832.501 960.339 L874.61 947.244 L916.72 929.38 L958.83 917.268 L1000.94 924.288 L1043.05 950.588 L1085.16 939.476 L1127.27 961.277 L1127.27 866.557 L1085.16 867.472 L1043.05 879.162 L1000.94 870.232 L958.83 858.455 L916.72 895.926 L874.61 903.834 L832.501 886.323 L790.391 891.671 L748.281 867.26 L706.172 839.475 L664.062 879.364 L621.952 912.23 L579.842 935.791 L537.733 964.675 L495.623 986.015 L453.513 986.764 L411.404 1013.63 L369.294 1008.91 L327.184 977.229 L285.075 1007.52 L242.965 1007.52  Z" fill="#009af9" fill-rule="evenodd" fill-opacity="0.1"/>
<polyline clip-path="url(#clip122)" style="stroke:#009af9; stroke-linecap:round; stroke-linejoin:round; stroke-width:4; stroke-opacity:1; fill:none" points="242.965,1007.52 285.075,1007.52 327.184,1005.68 369.294,1023.36 411.404,1034.84 453.513,1027.53 495.623,1028.3 537.733,1001.02 579.842,973.017 621.952,954.835 664.062,940.012 706.172,921.242 748.281,916.171 790.391,923.309 832.501,923.331 874.61,925.539 916.72,912.653 958.83,887.861 1000.94,897.26 1043.05,914.875 1085.16,903.474 1127.27,913.917 "/>
<path clip-path="url(#clip122)" d="M242.965 1007.52 L285.075 1007.52 L327.184 120.65 L369.294 120.65 L411.404 120.65 L453.513 120.65 L495.623 120.65 L537.733 120.65 L579.842 120.65 L621.952 120.65 L664.062 120.65 L706.172 120.65 L748.281 120.65 L790.391 120.65 L832.501 120.65 L874.61 120.65 L916.72 120.65 L958.83 120.65 L1000.94 120.65 L1043.05 120.65 L1085.16 120.65 L1127.27 120.65 L1127.27 120.65 L1085.16 120.65 L1043.05 120.65 L1000.94 120.65 L958.83 120.65 L916.72 120.65 L874.61 120.65 L832.501 120.65 L790.391 120.65 L748.281 120.65 L706.172 120.65 L664.062 120.65 L621.952 120.65 L579.842 120.65 L537.733 120.65 L495.623 120.65 L453.513 120.65 L411.404 120.65 L369.294 120.65 L327.184 120.65 L285.075 1007.52 L242.965 1007.52  Z" fill="#e26f46" fill-rule="evenodd" fill-opacity="0.1"/>
<polyline clip-path="url(#clip122)" style="stroke:#e26f46; stroke-linecap:round; stroke-linejoin:round; stroke-width:4; stroke-opacity:1; fill:none" points="242.965,1007.52 285.075,1007.52 327.184,120.65 369.294,120.65 411.404,120.65 453.513,120.65 495.623,120.65 537.733,120.65 579.842,120.65 621.952,120.65 664.062,120.65 706.172,120.65 748.281,120.65 790.391,120.65 832.501,120.65 874.61,120.65 916.72,120.65 958.83,120.65 1000.94,120.65 1043.05,120.65 1085.16,120.65 1127.27,120.65 "/>
<path clip-path="url(#clip120)" d="M1415.39 1099.09 L2352.76 1099.09 L2352.76 92.1521 L1415.39 92.1521  Z" fill="#ffffff" fill-rule="evenodd" fill-opacity="1"/>
<defs>
  <clipPath id="clip123">
    <rect x="1415" y="92" width="938" height="1008"/>
  </clipPath>
</defs>
<polyline clip-path="url(#clip123)" style="stroke:#000000; stroke-linecap:round; stroke-linejoin:round; stroke-width:2; stroke-opacity:0.1; fill:none" points="1610.36,1099.09 1610.36,92.1521 "/>
<polyline clip-path="url(#clip123)" style="stroke:#000000; stroke-linecap:round; stroke-linejoin:round; stroke-width:2; stroke-opacity:0.1; fill:none" points="1820.91,1099.09 1820.91,92.1521 "/>
<polyline clip-path="url(#clip123)" style="stroke:#000000; stroke-linecap:round; stroke-linejoin:round; stroke-width:2; stroke-opacity:0.1; fill:none" points="2031.46,1099.09 2031.46,92.1521 "/>
<polyline clip-path="url(#clip123)" style="stroke:#000000; stroke-linecap:round; stroke-linejoin:round; stroke-width:2; stroke-opacity:0.1; fill:none" points="2242.01,1099.09 2242.01,92.1521 "/>
<polyline clip-path="url(#clip123)" style="stroke:#000000; stroke-linecap:round; stroke-linejoin:round; stroke-width:2; stroke-opacity:0.1; fill:none" points="1415.39,1041.8 2352.76,1041.8 "/>
<polyline clip-path="url(#clip123)" style="stroke:#000000; stroke-linecap:round; stroke-linejoin:round; stroke-width:2; stroke-opacity:0.1; fill:none" points="1415.39,835.413 2352.76,835.413 "/>
<polyline clip-path="url(#clip123)" style="stroke:#000000; stroke-linecap:round; stroke-linejoin:round; stroke-width:2; stroke-opacity:0.1; fill:none" points="1415.39,629.026 2352.76,629.026 "/>
<polyline clip-path="url(#clip123)" style="stroke:#000000; stroke-linecap:round; stroke-linejoin:round; stroke-width:2; stroke-opacity:0.1; fill:none" points="1415.39,422.64 2352.76,422.64 "/>
<polyline clip-path="url(#clip123)" style="stroke:#000000; stroke-linecap:round; stroke-linejoin:round; stroke-width:2; stroke-opacity:0.1; fill:none" points="1415.39,216.253 2352.76,216.253 "/>
<polyline clip-path="url(#clip120)" style="stroke:#000000; stroke-linecap:round; stroke-linejoin:round; stroke-width:4; stroke-opacity:1; fill:none" points="1415.39,1099.09 2352.76,1099.09 "/>
<polyline clip-path="url(#clip120)" style="stroke:#000000; stroke-linecap:round; stroke-linejoin:round; stroke-width:4; stroke-opacity:1; fill:none" points="1610.36,1099.09 1610.36,1080.19 "/>
<polyline clip-path="url(#clip120)" style="stroke:#000000; stroke-linecap:round; stroke-linejoin:round; stroke-width:4; stroke-opacity:1; fill:none" points="1820.91,1099.09 1820.91,1080.19 "/>
<polyline clip-path="url(#clip120)" style="stroke:#000000; stroke-linecap:round; stroke-linejoin:round; stroke-width:4; stroke-opacity:1; fill:none" points="2031.46,1099.09 2031.46,1080.19 "/>
<polyline clip-path="url(#clip120)" style="stroke:#000000; stroke-linecap:round; stroke-linejoin:round; stroke-width:4; stroke-opacity:1; fill:none" points="2242.01,1099.09 2242.01,1080.19 "/>
<path clip-path="url(#clip120)" d="M1600.64 1126.93 L1619 1126.93 L1619 1130.86 L1604.92 1130.86 L1604.92 1139.34 Q1605.94 1138.99 1606.96 1138.83 Q1607.98 1138.64 1609 1138.64 Q1614.78 1138.64 1618.16 1141.81 Q1621.54 1144.98 1621.54 1150.4 Q1621.54 1155.98 1618.07 1159.08 Q1614.6 1162.16 1608.28 1162.16 Q1606.1 1162.16 1603.83 1161.79 Q1601.59 1161.42 1599.18 1160.68 L1599.18 1155.98 Q1601.26 1157.11 1603.49 1157.67 Q1605.71 1158.22 1608.19 1158.22 Q1612.19 1158.22 1614.53 1156.12 Q1616.87 1154.01 1616.87 1150.4 Q1616.87 1146.79 1614.53 1144.68 Q1612.19 1142.58 1608.19 1142.58 Q1606.31 1142.58 1604.44 1142.99 Q1602.58 1143.41 1600.64 1144.29 L1600.64 1126.93 Z" fill="#000000" fill-rule="nonzero" fill-opacity="1" /><path clip-path="url(#clip120)" d="M1795.6 1157.55 L1803.24 1157.55 L1803.24 1131.19 L1794.93 1132.85 L1794.93 1128.59 L1803.19 1126.93 L1807.87 1126.93 L1807.87 1157.55 L1815.51 1157.55 L1815.51 1161.49 L1795.6 1161.49 L1795.6 1157.55 Z" fill="#000000" fill-rule="nonzero" fill-opacity="1" /><path clip-path="url(#clip120)" d="M1834.95 1130.01 Q1831.34 1130.01 1829.51 1133.57 Q1827.7 1137.11 1827.7 1144.24 Q1827.7 1151.35 1829.51 1154.91 Q1831.34 1158.46 1834.95 1158.46 Q1838.58 1158.46 1840.39 1154.91 Q1842.22 1151.35 1842.22 1144.24 Q1842.22 1137.11 1840.39 1133.57 Q1838.58 1130.01 1834.95 1130.01 M1834.95 1126.3 Q1840.76 1126.3 1843.82 1130.91 Q1846.89 1135.49 1846.89 1144.24 Q1846.89 1152.97 1843.82 1157.58 Q1840.76 1162.16 1834.95 1162.16 Q1829.14 1162.16 1826.06 1157.58 Q1823.01 1152.97 1823.01 1144.24 Q1823.01 1135.49 1826.06 1130.91 Q1829.14 1126.3 1834.95 1126.3 Z" fill="#000000" fill-rule="nonzero" fill-opacity="1" /><path clip-path="url(#clip120)" d="M2006.64 1157.55 L2014.28 1157.55 L2014.28 1131.19 L2005.97 1132.85 L2005.97 1128.59 L2014.24 1126.93 L2018.91 1126.93 L2018.91 1157.55 L2026.55 1157.55 L2026.55 1161.49 L2006.64 1161.49 L2006.64 1157.55 Z" fill="#000000" fill-rule="nonzero" fill-opacity="1" /><path clip-path="url(#clip120)" d="M2036.04 1126.93 L2054.4 1126.93 L2054.4 1130.86 L2040.32 1130.86 L2040.32 1139.34 Q2041.34 1138.99 2042.36 1138.83 Q2043.38 1138.64 2044.4 1138.64 Q2050.19 1138.64 2053.57 1141.81 Q2056.94 1144.98 2056.94 1150.4 Q2056.94 1155.98 2053.47 1159.08 Q2050 1162.16 2043.68 1162.16 Q2041.51 1162.16 2039.24 1161.79 Q2036.99 1161.42 2034.58 1160.68 L2034.58 1155.98 Q2036.67 1157.11 2038.89 1157.67 Q2041.11 1158.22 2043.59 1158.22 Q2047.59 1158.22 2049.93 1156.12 Q2052.27 1154.01 2052.27 1150.4 Q2052.27 1146.79 2049.93 1144.68 Q2047.59 1142.58 2043.59 1142.58 Q2041.71 1142.58 2039.84 1142.99 Q2037.99 1143.41 2036.04 1144.29 L2036.04 1126.93 Z" fill="#000000" fill-rule="nonzero" fill-opacity="1" /><path clip-path="url(#clip120)" d="M2220.78 1157.55 L2237.1 1157.55 L2237.1 1161.49 L2215.16 1161.49 L2215.16 1157.55 Q2217.82 1154.8 2222.4 1150.17 Q2227.01 1145.52 2228.19 1144.17 Q2230.43 1141.65 2231.31 1139.91 Q2232.22 1138.15 2232.22 1136.46 Q2232.22 1133.71 2230.27 1131.97 Q2228.35 1130.24 2225.25 1130.24 Q2223.05 1130.24 2220.6 1131 Q2218.16 1131.77 2215.39 1133.32 L2215.39 1128.59 Q2218.21 1127.46 2220.66 1126.88 Q2223.12 1126.3 2225.16 1126.3 Q2230.53 1126.3 2233.72 1128.99 Q2236.91 1131.67 2236.91 1136.16 Q2236.91 1138.29 2236.1 1140.21 Q2235.32 1142.11 2233.21 1144.71 Q2232.63 1145.38 2229.53 1148.59 Q2226.43 1151.79 2220.78 1157.55 Z" fill="#000000" fill-rule="nonzero" fill-opacity="1" /><path clip-path="url(#clip120)" d="M2256.91 1130.01 Q2253.3 1130.01 2251.47 1133.57 Q2249.67 1137.11 2249.67 1144.24 Q2249.67 1151.35 2251.47 1154.91 Q2253.3 1158.46 2256.91 1158.46 Q2260.55 1158.46 2262.35 1154.91 Q2264.18 1151.35 2264.18 1144.24 Q2264.18 1137.11 2262.35 1133.57 Q2260.55 1130.01 2256.91 1130.01 M2256.91 1126.3 Q2262.72 1126.3 2265.78 1130.91 Q2268.86 1135.49 2268.86 1144.24 Q2268.86 1152.97 2265.78 1157.58 Q2262.72 1162.16 2256.91 1162.16 Q2251.1 1162.16 2248.03 1157.58 Q2244.97 1152.97 2244.97 1144.24 Q2244.97 1135.49 2248.03 1130.91 Q2251.1 1126.3 2256.91 1126.3 Z" fill="#000000" fill-rule="nonzero" fill-opacity="1" /><polyline clip-path="url(#clip120)" style="stroke:#000000; stroke-linecap:round; stroke-linejoin:round; stroke-width:4; stroke-opacity:1; fill:none" points="1415.39,1099.09 1415.39,92.1521 "/>
<polyline clip-path="url(#clip120)" style="stroke:#000000; stroke-linecap:round; stroke-linejoin:round; stroke-width:4; stroke-opacity:1; fill:none" points="1415.39,1041.8 1434.29,1041.8 "/>
<polyline clip-path="url(#clip120)" style="stroke:#000000; stroke-linecap:round; stroke-linejoin:round; stroke-width:4; stroke-opacity:1; fill:none" points="1415.39,835.413 1434.29,835.413 "/>
<polyline clip-path="url(#clip120)" style="stroke:#000000; stroke-linecap:round; stroke-linejoin:round; stroke-width:4; stroke-opacity:1; fill:none" points="1415.39,629.026 1434.29,629.026 "/>
<polyline clip-path="url(#clip120)" style="stroke:#000000; stroke-linecap:round; stroke-linejoin:round; stroke-width:4; stroke-opacity:1; fill:none" points="1415.39,422.64 1434.29,422.64 "/>
<polyline clip-path="url(#clip120)" style="stroke:#000000; stroke-linecap:round; stroke-linejoin:round; stroke-width:4; stroke-opacity:1; fill:none" points="1415.39,216.253 1434.29,216.253 "/>
<path clip-path="url(#clip120)" d="M1252.71 1055.14 L1260.34 1055.14 L1260.34 1028.78 L1252.03 1030.45 L1252.03 1026.19 L1260.3 1024.52 L1264.97 1024.52 L1264.97 1055.14 L1272.61 1055.14 L1272.61 1059.08 L1252.71 1059.08 L1252.71 1055.14 Z" fill="#000000" fill-rule="nonzero" fill-opacity="1" /><path clip-path="url(#clip120)" d="M1282.06 1053.2 L1286.94 1053.2 L1286.94 1059.08 L1282.06 1059.08 L1282.06 1053.2 Z" fill="#000000" fill-rule="nonzero" fill-opacity="1" /><path clip-path="url(#clip120)" d="M1307.13 1027.6 Q1303.51 1027.6 1301.69 1031.16 Q1299.88 1034.7 1299.88 1041.83 Q1299.88 1048.94 1301.69 1052.51 Q1303.51 1056.05 1307.13 1056.05 Q1310.76 1056.05 1312.57 1052.51 Q1314.39 1048.94 1314.39 1041.83 Q1314.39 1034.7 1312.57 1031.16 Q1310.76 1027.6 1307.13 1027.6 M1307.13 1023.89 Q1312.94 1023.89 1315.99 1028.5 Q1319.07 1033.08 1319.07 1041.83 Q1319.07 1050.56 1315.99 1055.17 Q1312.94 1059.75 1307.13 1059.75 Q1301.32 1059.75 1298.24 1055.17 Q1295.18 1050.56 1295.18 1041.83 Q1295.18 1033.08 1298.24 1028.5 Q1301.32 1023.89 1307.13 1023.89 Z" fill="#000000" fill-rule="nonzero" fill-opacity="1" /><path clip-path="url(#clip120)" d="M1337.29 1027.6 Q1333.68 1027.6 1331.85 1031.16 Q1330.04 1034.7 1330.04 1041.83 Q1330.04 1048.94 1331.85 1052.51 Q1333.68 1056.05 1337.29 1056.05 Q1340.92 1056.05 1342.73 1052.51 Q1344.56 1048.94 1344.56 1041.83 Q1344.56 1034.7 1342.73 1031.16 Q1340.92 1027.6 1337.29 1027.6 M1337.29 1023.89 Q1343.1 1023.89 1346.15 1028.5 Q1349.23 1033.08 1349.23 1041.83 Q1349.23 1050.56 1346.15 1055.17 Q1343.1 1059.75 1337.29 1059.75 Q1331.48 1059.75 1328.4 1055.17 Q1325.34 1050.56 1325.34 1041.83 Q1325.34 1033.08 1328.4 1028.5 Q1331.48 1023.89 1337.29 1023.89 Z" fill="#000000" fill-rule="nonzero" fill-opacity="1" /><path clip-path="url(#clip120)" d="M1367.45 1027.6 Q1363.84 1027.6 1362.01 1031.16 Q1360.2 1034.7 1360.2 1041.83 Q1360.2 1048.94 1362.01 1052.51 Q1363.84 1056.05 1367.45 1056.05 Q1371.08 1056.05 1372.89 1052.51 Q1374.72 1048.94 1374.72 1041.83 Q1374.72 1034.7 1372.89 1031.16 Q1371.08 1027.6 1367.45 1027.6 M1367.45 1023.89 Q1373.26 1023.89 1376.32 1028.5 Q1379.39 1033.08 1379.39 1041.83 Q1379.39 1050.56 1376.32 1055.17 Q1373.26 1059.75 1367.45 1059.75 Q1361.64 1059.75 1358.56 1055.17 Q1355.51 1050.56 1355.51 1041.83 Q1355.51 1033.08 1358.56 1028.5 Q1361.64 1023.89 1367.45 1023.89 Z" fill="#000000" fill-rule="nonzero" fill-opacity="1" /><path clip-path="url(#clip120)" d="M1253.7 848.758 L1261.34 848.758 L1261.34 822.392 L1253.03 824.059 L1253.03 819.8 L1261.29 818.133 L1265.97 818.133 L1265.97 848.758 L1273.61 848.758 L1273.61 852.693 L1253.7 852.693 L1253.7 848.758 Z" fill="#000000" fill-rule="nonzero" fill-opacity="1" /><path clip-path="url(#clip120)" d="M1283.05 846.813 L1287.94 846.813 L1287.94 852.693 L1283.05 852.693 L1283.05 846.813 Z" fill="#000000" fill-rule="nonzero" fill-opacity="1" /><path clip-path="url(#clip120)" d="M1308.12 821.212 Q1304.51 821.212 1302.68 824.776 Q1300.88 828.318 1300.88 835.448 Q1300.88 842.554 1302.68 846.119 Q1304.51 849.661 1308.12 849.661 Q1311.76 849.661 1313.56 846.119 Q1315.39 842.554 1315.39 835.448 Q1315.39 828.318 1313.56 824.776 Q1311.76 821.212 1308.12 821.212 M1308.12 817.508 Q1313.93 817.508 1316.99 822.114 Q1320.07 826.698 1320.07 835.448 Q1320.07 844.175 1316.99 848.781 Q1313.93 853.364 1308.12 853.364 Q1302.31 853.364 1299.23 848.781 Q1296.18 844.175 1296.18 835.448 Q1296.18 826.698 1299.23 822.114 Q1302.31 817.508 1308.12 817.508 Z" fill="#000000" fill-rule="nonzero" fill-opacity="1" /><path clip-path="url(#clip120)" d="M1332.31 848.758 L1348.63 848.758 L1348.63 852.693 L1326.69 852.693 L1326.69 848.758 Q1329.35 846.003 1333.93 841.374 Q1338.54 836.721 1339.72 835.378 Q1341.96 832.855 1342.84 831.119 Q1343.75 829.36 1343.75 827.67 Q1343.75 824.915 1341.8 823.179 Q1339.88 821.443 1336.78 821.443 Q1334.58 821.443 1332.13 822.207 Q1329.7 822.971 1326.92 824.522 L1326.92 819.8 Q1329.74 818.665 1332.2 818.087 Q1334.65 817.508 1336.69 817.508 Q1342.06 817.508 1345.25 820.193 Q1348.45 822.878 1348.45 827.369 Q1348.45 829.499 1347.64 831.42 Q1346.85 833.318 1344.74 835.911 Q1344.16 836.582 1341.06 839.8 Q1337.96 842.994 1332.31 848.758 Z" fill="#000000" fill-rule="nonzero" fill-opacity="1" /><path clip-path="url(#clip120)" d="M1358.49 818.133 L1376.85 818.133 L1376.85 822.068 L1362.77 822.068 L1362.77 830.54 Q1363.79 830.193 1364.81 830.031 Q1365.83 829.846 1366.85 829.846 Q1372.63 829.846 1376.01 833.017 Q1379.39 836.188 1379.39 841.605 Q1379.39 847.184 1375.92 850.286 Q1372.45 853.364 1366.13 853.364 Q1363.95 853.364 1361.69 852.994 Q1359.44 852.624 1357.03 851.883 L1357.03 847.184 Q1359.12 848.318 1361.34 848.874 Q1363.56 849.429 1366.04 849.429 Q1370.04 849.429 1372.38 847.323 Q1374.72 845.216 1374.72 841.605 Q1374.72 837.994 1372.38 835.888 Q1370.04 833.781 1366.04 833.781 Q1364.16 833.781 1362.29 834.198 Q1360.44 834.614 1358.49 835.494 L1358.49 818.133 Z" fill="#000000" fill-rule="nonzero" fill-opacity="1" /><path clip-path="url(#clip120)" d="M1252.71 642.371 L1260.34 642.371 L1260.34 616.006 L1252.03 617.672 L1252.03 613.413 L1260.3 611.746 L1264.97 611.746 L1264.97 642.371 L1272.61 642.371 L1272.61 646.306 L1252.71 646.306 L1252.71 642.371 Z" fill="#000000" fill-rule="nonzero" fill-opacity="1" /><path clip-path="url(#clip120)" d="M1282.06 640.427 L1286.94 640.427 L1286.94 646.306 L1282.06 646.306 L1282.06 640.427 Z" fill="#000000" fill-rule="nonzero" fill-opacity="1" /><path clip-path="url(#clip120)" d="M1307.13 614.825 Q1303.51 614.825 1301.69 618.39 Q1299.88 621.931 1299.88 629.061 Q1299.88 636.167 1301.69 639.732 Q1303.51 643.274 1307.13 643.274 Q1310.76 643.274 1312.57 639.732 Q1314.39 636.167 1314.39 629.061 Q1314.39 621.931 1312.57 618.39 Q1310.76 614.825 1307.13 614.825 M1307.13 611.121 Q1312.94 611.121 1315.99 615.728 Q1319.07 620.311 1319.07 629.061 Q1319.07 637.788 1315.99 642.394 Q1312.94 646.978 1307.13 646.978 Q1301.32 646.978 1298.24 642.394 Q1295.18 637.788 1295.18 629.061 Q1295.18 620.311 1298.24 615.728 Q1301.32 611.121 1307.13 611.121 Z" fill="#000000" fill-rule="nonzero" fill-opacity="1" /><path clip-path="url(#clip120)" d="M1327.33 611.746 L1345.69 611.746 L1345.69 615.681 L1331.62 615.681 L1331.62 624.154 Q1332.64 623.806 1333.65 623.644 Q1334.67 623.459 1335.69 623.459 Q1341.48 623.459 1344.86 626.631 Q1348.24 629.802 1348.24 635.218 Q1348.24 640.797 1344.76 643.899 Q1341.29 646.978 1334.97 646.978 Q1332.8 646.978 1330.53 646.607 Q1328.28 646.237 1325.88 645.496 L1325.88 640.797 Q1327.96 641.931 1330.18 642.487 Q1332.4 643.042 1334.88 643.042 Q1338.89 643.042 1341.22 640.936 Q1343.56 638.83 1343.56 635.218 Q1343.56 631.607 1341.22 629.501 Q1338.89 627.394 1334.88 627.394 Q1333.01 627.394 1331.13 627.811 Q1329.28 628.228 1327.33 629.107 L1327.33 611.746 Z" fill="#000000" fill-rule="nonzero" fill-opacity="1" /><path clip-path="url(#clip120)" d="M1367.45 614.825 Q1363.84 614.825 1362.01 618.39 Q1360.2 621.931 1360.2 629.061 Q1360.2 636.167 1362.01 639.732 Q1363.84 643.274 1367.45 643.274 Q1371.08 643.274 1372.89 639.732 Q1374.72 636.167 1374.72 629.061 Q1374.72 621.931 1372.89 618.39 Q1371.08 614.825 1367.45 614.825 M1367.45 611.121 Q1373.26 611.121 1376.32 615.728 Q1379.39 620.311 1379.39 629.061 Q1379.39 637.788 1376.32 642.394 Q1373.26 646.978 1367.45 646.978 Q1361.64 646.978 1358.56 642.394 Q1355.51 637.788 1355.51 629.061 Q1355.51 620.311 1358.56 615.728 Q1361.64 611.121 1367.45 611.121 Z" fill="#000000" fill-rule="nonzero" fill-opacity="1" /><path clip-path="url(#clip120)" d="M1253.7 435.985 L1261.34 435.985 L1261.34 409.619 L1253.03 411.286 L1253.03 407.026 L1261.29 405.36 L1265.97 405.36 L1265.97 435.985 L1273.61 435.985 L1273.61 439.92 L1253.7 439.92 L1253.7 435.985 Z" fill="#000000" fill-rule="nonzero" fill-opacity="1" /><path clip-path="url(#clip120)" d="M1283.05 434.04 L1287.94 434.04 L1287.94 439.92 L1283.05 439.92 L1283.05 434.04 Z" fill="#000000" fill-rule="nonzero" fill-opacity="1" /><path clip-path="url(#clip120)" d="M1308.12 408.438 Q1304.51 408.438 1302.68 412.003 Q1300.88 415.545 1300.88 422.674 Q1300.88 429.781 1302.68 433.346 Q1304.51 436.887 1308.12 436.887 Q1311.76 436.887 1313.56 433.346 Q1315.39 429.781 1315.39 422.674 Q1315.39 415.545 1313.56 412.003 Q1311.76 408.438 1308.12 408.438 M1308.12 404.735 Q1313.93 404.735 1316.99 409.341 Q1320.07 413.924 1320.07 422.674 Q1320.07 431.401 1316.99 436.008 Q1313.93 440.591 1308.12 440.591 Q1302.31 440.591 1299.23 436.008 Q1296.18 431.401 1296.18 422.674 Q1296.18 413.924 1299.23 409.341 Q1302.31 404.735 1308.12 404.735 Z" fill="#000000" fill-rule="nonzero" fill-opacity="1" /><path clip-path="url(#clip120)" d="M1327.1 405.36 L1349.32 405.36 L1349.32 407.35 L1336.78 439.92 L1331.89 439.92 L1343.7 409.295 L1327.1 409.295 L1327.1 405.36 Z" fill="#000000" fill-rule="nonzero" fill-opacity="1" /><path clip-path="url(#clip120)" d="M1358.49 405.36 L1376.85 405.36 L1376.85 409.295 L1362.77 409.295 L1362.77 417.767 Q1363.79 417.42 1364.81 417.258 Q1365.83 417.073 1366.85 417.073 Q1372.63 417.073 1376.01 420.244 Q1379.39 423.415 1379.39 428.832 Q1379.39 434.41 1375.92 437.512 Q1372.45 440.591 1366.13 440.591 Q1363.95 440.591 1361.69 440.221 Q1359.44 439.85 1357.03 439.11 L1357.03 434.41 Q1359.12 435.545 1361.34 436.1 Q1363.56 436.656 1366.04 436.656 Q1370.04 436.656 1372.38 434.549 Q1374.72 432.443 1374.72 428.832 Q1374.72 425.221 1372.38 423.114 Q1370.04 421.008 1366.04 421.008 Q1364.16 421.008 1362.29 421.424 Q1360.44 421.841 1358.49 422.721 L1358.49 405.36 Z" fill="#000000" fill-rule="nonzero" fill-opacity="1" /><path clip-path="url(#clip120)" d="M1252.71 229.598 L1260.34 229.598 L1260.34 203.232 L1252.03 204.899 L1252.03 200.64 L1260.3 198.973 L1264.97 198.973 L1264.97 229.598 L1272.61 229.598 L1272.61 233.533 L1252.71 233.533 L1252.71 229.598 Z" fill="#000000" fill-rule="nonzero" fill-opacity="1" /><path clip-path="url(#clip120)" d="M1282.06 227.653 L1286.94 227.653 L1286.94 233.533 L1282.06 233.533 L1282.06 227.653 Z" fill="#000000" fill-rule="nonzero" fill-opacity="1" /><path clip-path="url(#clip120)" d="M1297.94 229.598 L1305.58 229.598 L1305.58 203.232 L1297.27 204.899 L1297.27 200.64 L1305.53 198.973 L1310.2 198.973 L1310.2 229.598 L1317.84 229.598 L1317.84 233.533 L1297.94 233.533 L1297.94 229.598 Z" fill="#000000" fill-rule="nonzero" fill-opacity="1" /><path clip-path="url(#clip120)" d="M1337.29 202.052 Q1333.68 202.052 1331.85 205.617 Q1330.04 209.158 1330.04 216.288 Q1330.04 223.394 1331.85 226.959 Q1333.68 230.501 1337.29 230.501 Q1340.92 230.501 1342.73 226.959 Q1344.56 223.394 1344.56 216.288 Q1344.56 209.158 1342.73 205.617 Q1340.92 202.052 1337.29 202.052 M1337.29 198.348 Q1343.1 198.348 1346.15 202.954 Q1349.23 207.538 1349.23 216.288 Q1349.23 225.015 1346.15 229.621 Q1343.1 234.204 1337.29 234.204 Q1331.48 234.204 1328.4 229.621 Q1325.34 225.015 1325.34 216.288 Q1325.34 207.538 1328.4 202.954 Q1331.48 198.348 1337.29 198.348 Z" fill="#000000" fill-rule="nonzero" fill-opacity="1" /><path clip-path="url(#clip120)" d="M1367.45 202.052 Q1363.84 202.052 1362.01 205.617 Q1360.2 209.158 1360.2 216.288 Q1360.2 223.394 1362.01 226.959 Q1363.84 230.501 1367.45 230.501 Q1371.08 230.501 1372.89 226.959 Q1374.72 223.394 1374.72 216.288 Q1374.72 209.158 1372.89 205.617 Q1371.08 202.052 1367.45 202.052 M1367.45 198.348 Q1373.26 198.348 1376.32 202.954 Q1379.39 207.538 1379.39 216.288 Q1379.39 225.015 1376.32 229.621 Q1373.26 234.204 1367.45 234.204 Q1361.64 234.204 1358.56 229.621 Q1355.51 225.015 1355.51 216.288 Q1355.51 207.538 1358.56 202.954 Q1361.64 198.348 1367.45 198.348 Z" fill="#000000" fill-rule="nonzero" fill-opacity="1" /><path clip-path="url(#clip120)" d="M1743.36 31.7342 Q1743.36 26.5259 1741.2 23.6613 Q1739.06 20.7968 1735.18 20.7968 Q1731.33 20.7968 1729.17 23.6613 Q1727.03 26.5259 1727.03 31.7342 Q1727.03 36.9165 1729.17 39.781 Q1731.33 42.6456 1735.18 42.6456 Q1739.06 42.6456 1741.2 39.781 Q1743.36 36.9165 1743.36 31.7342 M1748.15 43.0362 Q1748.15 50.4841 1744.84 54.1039 Q1741.54 57.7497 1734.71 57.7497 Q1732.19 57.7497 1729.95 57.3591 Q1727.71 56.9945 1725.6 56.2132 L1725.6 51.5518 Q1727.71 52.6976 1729.77 53.2445 Q1731.82 53.7914 1733.96 53.7914 Q1738.67 53.7914 1741.02 51.3174 Q1743.36 48.8695 1743.36 43.8956 L1743.36 41.5258 Q1741.88 44.1039 1739.56 45.38 Q1737.24 46.656 1734.01 46.656 Q1728.65 46.656 1725.36 42.5675 Q1722.08 38.479 1722.08 31.7342 Q1722.08 24.9634 1725.36 20.8749 Q1728.65 16.7864 1734.01 16.7864 Q1737.24 16.7864 1739.56 18.0624 Q1741.88 19.3384 1743.36 21.9165 L1743.36 17.4895 L1748.15 17.4895 L1748.15 43.0362 Z" fill="#000000" fill-rule="nonzero" fill-opacity="1" /><path clip-path="url(#clip120)" d="M1777.21 21.9165 L1777.21 6.13538 L1782.01 6.13538 L1782.01 46.656 L1777.21 46.656 L1777.21 42.281 Q1775.7 44.8852 1773.39 46.1612 Q1771.09 47.4112 1767.86 47.4112 Q1762.58 47.4112 1759.25 43.1925 Q1755.94 38.9737 1755.94 32.0988 Q1755.94 25.2238 1759.25 21.0051 Q1762.58 16.7864 1767.86 16.7864 Q1771.09 16.7864 1773.39 18.0624 Q1775.7 19.3124 1777.21 21.9165 M1760.89 32.0988 Q1760.89 37.3852 1763.05 40.406 Q1765.23 43.4008 1769.04 43.4008 Q1772.84 43.4008 1775.03 40.406 Q1777.21 37.3852 1777.21 32.0988 Q1777.21 26.8124 1775.03 23.8176 Q1772.84 20.7968 1769.04 20.7968 Q1765.23 20.7968 1763.05 23.8176 Q1760.89 26.8124 1760.89 32.0988 Z" fill="#000000" fill-rule="nonzero" fill-opacity="1" /><path clip-path="url(#clip120)" d="M1796.51 42.281 L1796.51 57.7497 L1791.69 57.7497 L1791.69 17.4895 L1796.51 17.4895 L1796.51 21.9165 Q1798.02 19.3124 1800.31 18.0624 Q1802.63 16.7864 1805.83 16.7864 Q1811.15 16.7864 1814.45 21.0051 Q1817.79 25.2238 1817.79 32.0988 Q1817.79 38.9737 1814.45 43.1925 Q1811.15 47.4112 1805.83 47.4112 Q1802.63 47.4112 1800.31 46.1612 Q1798.02 44.8852 1796.51 42.281 M1812.81 32.0988 Q1812.81 26.8124 1810.62 23.8176 Q1808.46 20.7968 1804.66 20.7968 Q1800.86 20.7968 1798.67 23.8176 Q1796.51 26.8124 1796.51 32.0988 Q1796.51 37.3852 1798.67 40.406 Q1800.86 43.4008 1804.66 43.4008 Q1808.46 43.4008 1810.62 40.406 Q1812.81 37.3852 1812.81 32.0988 Z" fill="#000000" fill-rule="nonzero" fill-opacity="1" /><path clip-path="url(#clip120)" d="M1861.87 21.9165 L1861.87 6.13538 L1866.67 6.13538 L1866.67 46.656 L1861.87 46.656 L1861.87 42.281 Q1860.36 44.8852 1858.05 46.1612 Q1855.75 47.4112 1852.53 47.4112 Q1847.24 47.4112 1843.91 43.1925 Q1840.6 38.9737 1840.6 32.0988 Q1840.6 25.2238 1843.91 21.0051 Q1847.24 16.7864 1852.53 16.7864 Q1855.75 16.7864 1858.05 18.0624 Q1860.36 19.3124 1861.87 21.9165 M1845.55 32.0988 Q1845.55 37.3852 1847.71 40.406 Q1849.9 43.4008 1853.7 43.4008 Q1857.5 43.4008 1859.69 40.406 Q1861.87 37.3852 1861.87 32.0988 Q1861.87 26.8124 1859.69 23.8176 Q1857.5 20.7968 1853.7 20.7968 Q1849.9 20.7968 1847.71 23.8176 Q1845.55 26.8124 1845.55 32.0988 Z" fill="#000000" fill-rule="nonzero" fill-opacity="1" /><path clip-path="url(#clip120)" d="M1901.48 30.8748 L1901.48 33.2186 L1879.45 33.2186 Q1879.77 38.1665 1882.42 40.7706 Q1885.1 43.3487 1889.87 43.3487 Q1892.63 43.3487 1895.21 42.6716 Q1897.81 41.9946 1900.36 40.6404 L1900.36 45.1716 Q1897.79 46.2654 1895.08 46.8383 Q1892.37 47.4112 1889.58 47.4112 Q1882.6 47.4112 1878.52 43.3487 Q1874.45 39.2862 1874.45 32.3592 Q1874.45 25.1978 1878.31 21.0051 Q1882.19 16.7864 1888.75 16.7864 Q1894.63 16.7864 1898.05 20.5884 Q1901.48 24.3645 1901.48 30.8748 M1896.69 29.4686 Q1896.64 25.5363 1894.48 23.1926 Q1892.34 20.8488 1888.8 20.8488 Q1884.79 20.8488 1882.37 23.1145 Q1879.97 25.3801 1879.61 29.4946 L1896.69 29.4686 Z" fill="#000000" fill-rule="nonzero" fill-opacity="1" /><path clip-path="url(#clip120)" d="M1924.11 6.13538 L1924.11 10.1197 L1919.53 10.1197 Q1916.95 10.1197 1915.94 11.1614 Q1914.95 12.2031 1914.95 14.9114 L1914.95 17.4895 L1922.84 17.4895 L1922.84 21.2134 L1914.95 21.2134 L1914.95 46.656 L1910.13 46.656 L1910.13 21.2134 L1905.55 21.2134 L1905.55 17.4895 L1910.13 17.4895 L1910.13 15.4583 Q1910.13 10.5885 1912.4 8.37496 Q1914.66 6.13538 1919.58 6.13538 L1924.11 6.13538 Z" fill="#000000" fill-rule="nonzero" fill-opacity="1" /><path clip-path="url(#clip120)" d="M1928.12 6.13538 L1932.92 6.13538 L1932.92 46.656 L1928.12 46.656 L1928.12 6.13538 Z" fill="#000000" fill-rule="nonzero" fill-opacity="1" /><path clip-path="url(#clip120)" d="M1956.2 31.9946 Q1950.39 31.9946 1948.15 33.3227 Q1945.91 34.6509 1945.91 37.854 Q1945.91 40.406 1947.58 41.9164 Q1949.27 43.4008 1952.16 43.4008 Q1956.14 43.4008 1958.54 40.5883 Q1960.96 37.7498 1960.96 33.0623 L1960.96 31.9946 L1956.2 31.9946 M1965.75 30.0155 L1965.75 46.656 L1960.96 46.656 L1960.96 42.2289 Q1959.32 44.8852 1956.87 46.1612 Q1954.43 47.4112 1950.88 47.4112 Q1946.41 47.4112 1943.75 44.9112 Q1941.12 42.3852 1941.12 38.1665 Q1941.12 33.2446 1944.4 30.7446 Q1947.71 28.2446 1954.24 28.2446 L1960.96 28.2446 L1960.96 27.7759 Q1960.96 24.4686 1958.78 22.6718 Q1956.61 20.8488 1952.68 20.8488 Q1950.18 20.8488 1947.81 21.4478 Q1945.44 22.0468 1943.25 23.2447 L1943.25 18.8176 Q1945.88 17.802 1948.36 17.3072 Q1950.83 16.7864 1953.18 16.7864 Q1959.5 16.7864 1962.63 20.0676 Q1965.75 23.3488 1965.75 30.0155 Z" fill="#000000" fill-rule="nonzero" fill-opacity="1" /><path clip-path="url(#clip120)" d="M1980.36 9.20828 L1980.36 17.4895 L1990.23 17.4895 L1990.23 21.2134 L1980.36 21.2134 L1980.36 37.0467 Q1980.36 40.6144 1981.33 41.63 Q1982.32 42.6456 1985.31 42.6456 L1990.23 42.6456 L1990.23 46.656 L1985.31 46.656 Q1979.76 46.656 1977.66 44.5987 Q1975.55 42.5154 1975.55 37.0467 L1975.55 21.2134 L1972.03 21.2134 L1972.03 17.4895 L1975.55 17.4895 L1975.55 9.20828 L1980.36 9.20828 Z" fill="#000000" fill-rule="nonzero" fill-opacity="1" /><path clip-path="url(#clip120)" d="M2007.84 20.8488 Q2003.98 20.8488 2001.74 23.8697 Q1999.5 26.8644 1999.5 32.0988 Q1999.5 37.3331 2001.72 40.354 Q2003.96 43.3487 2007.84 43.3487 Q2011.67 43.3487 2013.91 40.3279 Q2016.14 37.3071 2016.14 32.0988 Q2016.14 26.9165 2013.91 23.8957 Q2011.67 20.8488 2007.84 20.8488 M2007.84 16.7864 Q2014.09 16.7864 2017.66 20.8488 Q2021.22 24.9113 2021.22 32.0988 Q2021.22 39.2602 2017.66 43.3487 Q2014.09 47.4112 2007.84 47.4112 Q2001.56 47.4112 1997.99 43.3487 Q1994.45 39.2602 1994.45 32.0988 Q1994.45 24.9113 1997.99 20.8488 Q2001.56 16.7864 2007.84 16.7864 Z" fill="#000000" fill-rule="nonzero" fill-opacity="1" /><path clip-path="url(#clip120)" d="M2046.07 21.9686 Q2045.26 21.4999 2044.3 21.2916 Q2043.36 21.0572 2042.21 21.0572 Q2038.15 21.0572 2035.96 23.7134 Q2033.8 26.3436 2033.8 31.2915 L2033.8 46.656 L2028.98 46.656 L2028.98 17.4895 L2033.8 17.4895 L2033.8 22.0207 Q2035.31 19.3645 2037.73 18.0884 Q2040.15 16.7864 2043.62 16.7864 Q2044.11 16.7864 2044.71 16.8645 Q2045.31 16.9166 2046.04 17.0468 L2046.07 21.9686 Z" fill="#000000" fill-rule="nonzero" fill-opacity="1" /><path clip-path="url(#clip123)" d="M1526.14 1042.26 L1568.25 1051.74 L1610.36 1056.6 L1652.47 1070.59 L1694.58 992.888 L1736.69 978.678 L1778.8 972.12 L1820.91 923.393 L1863.02 905.014 L1905.13 874.628 L1947.24 910.632 L1989.35 851.327 L2031.46 800.453 L2073.57 767.709 L2115.68 768.079 L2157.79 836.454 L2199.9 827.54 L2242.01 797.11 L2284.12 819.893 L2326.23 771.948 L2326.23 595.01 L2284.12 580.874 L2242.01 636.502 L2199.9 607.163 L2157.79 644.407 L2115.68 655.77 L2073.57 666.458 L2031.46 684.322 L1989.35 739.449 L1947.24 738.984 L1905.13 812.779 L1863.02 793.827 L1820.91 799.609 L1778.8 844.967 L1736.69 907.247 L1694.58 916.947 L1652.47 938.654 L1610.36 939.529 L1568.25 959.05 L1526.14 991.256  Z" fill="#009af9" fill-rule="evenodd" fill-opacity="0.1"/>
<polyline clip-path="url(#clip123)" style="stroke:#009af9; stroke-linecap:round; stroke-linejoin:round; stroke-width:4; stroke-opacity:1; fill:none" points="1526.14,1016.76 1568.25,1005.4 1610.36,998.063 1652.47,1004.62 1694.58,954.917 1736.69,942.962 1778.8,908.543 1820.91,861.501 1863.02,849.421 1905.13,843.703 1947.24,824.808 1989.35,795.388 2031.46,742.388 2073.57,717.083 2115.68,711.924 2157.79,740.431 2199.9,717.351 2242.01,716.806 2284.12,700.383 2326.23,683.479 "/>
<path clip-path="url(#clip123)" d="M1526.14 1046.37 L1568.25 1061.45 L1610.36 1069.43 L1652.47 1050.91 L1694.58 1030.47 L1736.69 1041.83 L1778.8 990.282 L1820.91 963.519 L1863.02 898.237 L1905.13 829.947 L1947.24 800.88 L1989.35 734.179 L2031.46 692.96 L2073.57 653.136 L2115.68 578.6 L2157.79 570.727 L2199.9 539.368 L2242.01 488.953 L2284.12 472.367 L2326.23 418.873 L2326.23 120.65 L2284.12 152.565 L2242.01 226.673 L2199.9 276.834 L2157.79 315.308 L2115.68 359.502 L2073.57 412.421 L2031.46 505.056 L1989.35 585.108 L1947.24 642.243 L1905.13 696.974 L1863.02 714.126 L1820.91 737.522 L1778.8 753.589 L1736.69 776.353 L1694.58 788.846 L1652.47 865.19 L1610.36 915.772 L1568.25 955.981 L1526.14 1023.49  Z" fill="#e26f46" fill-rule="evenodd" fill-opacity="0.1"/>
<polyline clip-path="url(#clip123)" style="stroke:#e26f46; stroke-linecap:round; stroke-linejoin:round; stroke-width:4; stroke-opacity:1; fill:none" points="1526.14,1034.93 1568.25,1008.71 1610.36,992.6 1652.47,958.052 1694.58,909.657 1736.69,909.09 1778.8,871.935 1820.91,850.521 1863.02,806.181 1905.13,763.461 1947.24,721.561 1989.35,659.644 2031.46,599.008 2073.57,532.778 2115.68,469.051 2157.79,443.018 2199.9,408.101 2242.01,357.813 2284.12,312.466 2326.23,269.761 "/>
</svg>
