<?xml version="1.0" encoding="utf-8"?>
<svg xmlns="http://www.w3.org/2000/svg" xmlns:xlink="http://www.w3.org/1999/xlink" width="600" height="400" viewBox="0 0 2400 1600">
<defs>
  <clipPath id="clip260">
    <rect x="0" y="0" width="2400" height="1600"/>
  </clipPath>
</defs>
<path clip-path="url(#clip260)" d="M0 1600 L2400 1600 L2400 0 L0 0  Z" fill="#ffffff" fill-rule="evenodd" fill-opacity="1"/>
<defs>
  <clipPath id="clip261">
    <rect x="480" y="0" width="1681" height="1600"/>
  </clipPath>
</defs>
<path clip-path="url(#clip260)" d="M230.765 1486.45 L2352.76 1486.45 L2352.76 106.192 L230.765 106.192  Z" fill="#ffffff" fill-rule="evenodd" fill-opacity="1"/>
<defs>
  <clipPath id="clip262">
    <rect x="230" y="106" width="2123" height="1381"/>
  </clipPath>
</defs>
<polyline clip-path="url(#clip262)" style="stroke:#000000; stroke-linecap:round; stroke-linejoin:round; stroke-width:2; stroke-opacity:0.1; fill:none" points="541.056,1486.45 541.056,106.192 "/>
<polyline clip-path="url(#clip262)" style="stroke:#000000; stroke-linecap:round; stroke-linejoin:round; stroke-width:2; stroke-opacity:0.1; fill:none" points="916.408,1486.45 916.408,106.192 "/>
<polyline clip-path="url(#clip262)" style="stroke:#000000; stroke-linecap:round; stroke-linejoin:round; stroke-width:2; stroke-opacity:0.1; fill:none" points="1291.76,1486.45 1291.76,106.192 "/>
<polyline clip-path="url(#clip262)" style="stroke:#000000; stroke-linecap:round; stroke-linejoin:round; stroke-width:2; stroke-opacity:0.1; fill:none" points="1667.11,1486.45 1667.11,106.192 "/>
<polyline clip-path="url(#clip262)" style="stroke:#000000; stroke-linecap:round; stroke-linejoin:round; stroke-width:2; stroke-opacity:0.1; fill:none" points="2042.46,1486.45 2042.46,106.192 "/>
<polyline clip-path="url(#clip262)" style="stroke:#000000; stroke-linecap:round; stroke-linejoin:round; stroke-width:2; stroke-opacity:0.1; fill:none" points="230.765,1321.25 2352.76,1321.25 "/>
<polyline clip-path="url(#clip262)" style="stroke:#000000; stroke-linecap:round; stroke-linejoin:round; stroke-width:2; stroke-opacity:0.1; fill:none" points="230.765,1111.09 2352.76,1111.09 "/>
<polyline clip-path="url(#clip262)" style="stroke:#000000; stroke-linecap:round; stroke-linejoin:round; stroke-width:2; stroke-opacity:0.1; fill:none" points="230.765,900.919 2352.76,900.919 "/>
<polyline clip-path="url(#clip262)" style="stroke:#000000; stroke-linecap:round; stroke-linejoin:round; stroke-width:2; stroke-opacity:0.1; fill:none" points="230.765,690.753 2352.76,690.753 "/>
<polyline clip-path="url(#clip262)" style="stroke:#000000; stroke-linecap:round; stroke-linejoin:round; stroke-width:2; stroke-opacity:0.1; fill:none" points="230.765,480.586 2352.76,480.586 "/>
<polyline clip-path="url(#clip262)" style="stroke:#000000; stroke-linecap:round; stroke-linejoin:round; stroke-width:2; stroke-opacity:0.1; fill:none" points="230.765,270.42 2352.76,270.42 "/>
<polyline clip-path="url(#clip260)" style="stroke:#000000; stroke-linecap:round; stroke-linejoin:round; stroke-width:4; stroke-opacity:1; fill:none" points="230.765,1486.45 2352.76,1486.45 "/>
<polyline clip-path="url(#clip260)" style="stroke:#000000; stroke-linecap:round; stroke-linejoin:round; stroke-width:4; stroke-opacity:1; fill:none" points="541.056,1486.45 541.056,1467.55 "/>
<polyline clip-path="url(#clip260)" style="stroke:#000000; stroke-linecap:round; stroke-linejoin:round; stroke-width:4; stroke-opacity:1; fill:none" points="916.408,1486.45 916.408,1467.55 "/>
<polyline clip-path="url(#clip260)" style="stroke:#000000; stroke-linecap:round; stroke-linejoin:round; stroke-width:4; stroke-opacity:1; fill:none" points="1291.76,1486.45 1291.76,1467.55 "/>
<polyline clip-path="url(#clip260)" style="stroke:#000000; stroke-linecap:round; stroke-linejoin:round; stroke-width:4; stroke-opacity:1; fill:none" points="1667.11,1486.45 1667.11,1467.55 "/>
<polyline clip-path="url(#clip260)" style="stroke:#000000; stroke-linecap:round; stroke-linejoin:round; stroke-width:4; stroke-opacity:1; fill:none" points="2042.46,1486.45 2042.46,1467.55 "/>
<path clip-path="url(#clip260)" d="M545.303 1530.21 Q548.66 1530.93 550.535 1533.2 Q552.433 1535.47 552.433 1538.8 Q552.433 1543.92 548.914 1546.72 Q545.396 1549.52 538.915 1549.52 Q536.739 1549.52 534.424 1549.08 Q532.132 1548.66 529.678 1547.81 L529.678 1543.29 Q531.623 1544.43 533.938 1545.01 Q536.252 1545.58 538.776 1545.58 Q543.174 1545.58 545.465 1543.85 Q547.78 1542.11 547.78 1538.8 Q547.78 1535.75 545.627 1534.03 Q543.498 1532.3 539.678 1532.3 L535.651 1532.3 L535.651 1528.45 L539.864 1528.45 Q543.313 1528.45 545.141 1527.09 Q546.97 1525.7 546.97 1523.11 Q546.97 1520.45 545.072 1519.03 Q543.197 1517.6 539.678 1517.6 Q537.757 1517.6 535.558 1518.01 Q533.359 1518.43 530.72 1519.31 L530.72 1515.14 Q533.382 1514.4 535.697 1514.03 Q538.035 1513.66 540.095 1513.66 Q545.419 1513.66 548.521 1516.09 Q551.623 1518.5 551.623 1522.62 Q551.623 1525.49 549.979 1527.48 Q548.336 1529.45 545.303 1530.21 Z" fill="#000000" fill-rule="nonzero" fill-opacity="1" /><path clip-path="url(#clip260)" d="M916.813 1529.7 Q913.665 1529.7 911.813 1531.86 Q909.984 1534.01 909.984 1537.76 Q909.984 1541.49 911.813 1543.66 Q913.665 1545.82 916.813 1545.82 Q919.961 1545.82 921.79 1543.66 Q923.642 1541.49 923.642 1537.76 Q923.642 1534.01 921.79 1531.86 Q919.961 1529.7 916.813 1529.7 M926.095 1515.05 L926.095 1519.31 Q924.336 1518.48 922.531 1518.04 Q920.748 1517.6 918.989 1517.6 Q914.359 1517.6 911.906 1520.72 Q909.475 1523.85 909.128 1530.17 Q910.494 1528.15 912.554 1527.09 Q914.614 1526 917.091 1526 Q922.299 1526 925.308 1529.17 Q928.341 1532.32 928.341 1537.76 Q928.341 1543.08 925.193 1546.3 Q922.044 1549.52 916.813 1549.52 Q910.818 1549.52 907.646 1544.94 Q904.475 1540.33 904.475 1531.6 Q904.475 1523.41 908.364 1518.55 Q912.253 1513.66 918.804 1513.66 Q920.563 1513.66 922.345 1514.01 Q924.151 1514.36 926.095 1515.05 Z" fill="#000000" fill-rule="nonzero" fill-opacity="1" /><path clip-path="url(#clip260)" d="M1282.06 1548.13 L1282.06 1543.87 Q1283.82 1544.7 1285.63 1545.14 Q1287.43 1545.58 1289.17 1545.58 Q1293.8 1545.58 1296.23 1542.48 Q1298.68 1539.36 1299.03 1533.01 Q1297.69 1535.01 1295.63 1536.07 Q1293.57 1537.13 1291.07 1537.13 Q1285.88 1537.13 1282.85 1534.01 Q1279.84 1530.86 1279.84 1525.42 Q1279.84 1520.1 1282.99 1516.88 Q1286.14 1513.66 1291.37 1513.66 Q1297.36 1513.66 1300.51 1518.27 Q1303.68 1522.85 1303.68 1531.6 Q1303.68 1539.77 1299.79 1544.66 Q1295.93 1549.52 1289.38 1549.52 Q1287.62 1549.52 1285.81 1549.17 Q1284.01 1548.82 1282.06 1548.13 M1291.37 1533.48 Q1294.51 1533.48 1296.34 1531.32 Q1298.2 1529.17 1298.2 1525.42 Q1298.2 1521.7 1296.34 1519.54 Q1294.51 1517.37 1291.37 1517.37 Q1288.22 1517.37 1286.37 1519.54 Q1284.54 1521.7 1284.54 1525.42 Q1284.54 1529.17 1286.37 1531.32 Q1288.22 1533.48 1291.37 1533.48 Z" fill="#000000" fill-rule="nonzero" fill-opacity="1" /><path clip-path="url(#clip260)" d="M1642.6 1544.91 L1650.24 1544.91 L1650.24 1518.55 L1641.93 1520.21 L1641.93 1515.95 L1650.19 1514.29 L1654.87 1514.29 L1654.87 1544.91 L1662.51 1544.91 L1662.51 1548.85 L1642.6 1548.85 L1642.6 1544.91 Z" fill="#000000" fill-rule="nonzero" fill-opacity="1" /><path clip-path="url(#clip260)" d="M1675.98 1544.91 L1692.3 1544.91 L1692.3 1548.85 L1670.35 1548.85 L1670.35 1544.91 Q1673.02 1542.16 1677.6 1537.53 Q1682.2 1532.88 1683.39 1531.53 Q1685.63 1529.01 1686.51 1527.27 Q1687.41 1525.51 1687.41 1523.82 Q1687.41 1521.07 1685.47 1519.33 Q1683.55 1517.6 1680.45 1517.6 Q1678.25 1517.6 1675.79 1518.36 Q1673.36 1519.13 1670.58 1520.68 L1670.58 1515.95 Q1673.41 1514.82 1675.86 1514.24 Q1678.32 1513.66 1680.35 1513.66 Q1685.72 1513.66 1688.92 1516.35 Q1692.11 1519.03 1692.11 1523.52 Q1692.11 1525.65 1691.3 1527.57 Q1690.52 1529.47 1688.41 1532.07 Q1687.83 1532.74 1684.73 1535.95 Q1681.63 1539.15 1675.98 1544.91 Z" fill="#000000" fill-rule="nonzero" fill-opacity="1" /><path clip-path="url(#clip260)" d="M2017.65 1544.91 L2025.29 1544.91 L2025.29 1518.55 L2016.98 1520.21 L2016.98 1515.95 L2025.24 1514.29 L2029.92 1514.29 L2029.92 1544.91 L2037.56 1544.91 L2037.56 1548.85 L2017.65 1548.85 L2017.65 1544.91 Z" fill="#000000" fill-rule="nonzero" fill-opacity="1" /><path clip-path="url(#clip260)" d="M2047.05 1514.29 L2065.4 1514.29 L2065.4 1518.22 L2051.33 1518.22 L2051.33 1526.7 Q2052.35 1526.35 2053.37 1526.19 Q2054.39 1526 2055.4 1526 Q2061.19 1526 2064.57 1529.17 Q2067.95 1532.34 2067.95 1537.76 Q2067.95 1543.34 2064.48 1546.44 Q2061.01 1549.52 2054.69 1549.52 Q2052.51 1549.52 2050.24 1549.15 Q2048 1548.78 2045.59 1548.04 L2045.59 1543.34 Q2047.67 1544.47 2049.9 1545.03 Q2052.12 1545.58 2054.59 1545.58 Q2058.6 1545.58 2060.94 1543.48 Q2063.27 1541.37 2063.27 1537.76 Q2063.27 1534.15 2060.94 1532.04 Q2058.6 1529.94 2054.59 1529.94 Q2052.72 1529.94 2050.84 1530.35 Q2048.99 1530.77 2047.05 1531.65 L2047.05 1514.29 Z" fill="#000000" fill-rule="nonzero" fill-opacity="1" /><polyline clip-path="url(#clip260)" style="stroke:#000000; stroke-linecap:round; stroke-linejoin:round; stroke-width:4; stroke-opacity:1; fill:none" points="230.765,1486.45 230.765,106.192 "/>
<polyline clip-path="url(#clip260)" style="stroke:#000000; stroke-linecap:round; stroke-linejoin:round; stroke-width:4; stroke-opacity:1; fill:none" points="230.765,1321.25 249.662,1321.25 "/>
<polyline clip-path="url(#clip260)" style="stroke:#000000; stroke-linecap:round; stroke-linejoin:round; stroke-width:4; stroke-opacity:1; fill:none" points="230.765,1111.09 249.662,1111.09 "/>
<polyline clip-path="url(#clip260)" style="stroke:#000000; stroke-linecap:round; stroke-linejoin:round; stroke-width:4; stroke-opacity:1; fill:none" points="230.765,900.919 249.662,900.919 "/>
<polyline clip-path="url(#clip260)" style="stroke:#000000; stroke-linecap:round; stroke-linejoin:round; stroke-width:4; stroke-opacity:1; fill:none" points="230.765,690.753 249.662,690.753 "/>
<polyline clip-path="url(#clip260)" style="stroke:#000000; stroke-linecap:round; stroke-linejoin:round; stroke-width:4; stroke-opacity:1; fill:none" points="230.765,480.586 249.662,480.586 "/>
<polyline clip-path="url(#clip260)" style="stroke:#000000; stroke-linecap:round; stroke-linejoin:round; stroke-width:4; stroke-opacity:1; fill:none" points="230.765,270.42 249.662,270.42 "/>
<path clip-path="url(#clip260)" d="M50.9921 1303.97 L73.2142 1303.97 L73.2142 1305.96 L60.668 1338.53 L55.7838 1338.53 L67.5893 1307.91 L50.9921 1307.91 L50.9921 1303.97 Z" fill="#000000" fill-rule="nonzero" fill-opacity="1" /><path clip-path="url(#clip260)" d="M96.5011 1319.9 Q99.8576 1320.61 101.733 1322.88 Q103.631 1325.15 103.631 1328.49 Q103.631 1333.6 100.112 1336.4 Q96.5937 1339.2 90.1123 1339.2 Q87.9364 1339.2 85.6216 1338.76 Q83.3299 1338.35 80.8762 1337.49 L80.8762 1332.98 Q82.8207 1334.11 85.1355 1334.69 Q87.4503 1335.27 89.9734 1335.27 Q94.3715 1335.27 96.6632 1333.53 Q98.978 1331.8 98.978 1328.49 Q98.978 1325.43 96.8252 1323.72 Q94.6956 1321.98 90.8762 1321.98 L86.8484 1321.98 L86.8484 1318.14 L91.0614 1318.14 Q94.5104 1318.14 96.3391 1316.77 Q98.1678 1315.38 98.1678 1312.79 Q98.1678 1310.13 96.2697 1308.72 Q94.3947 1307.28 90.8762 1307.28 Q88.9549 1307.28 86.7558 1307.7 Q84.5568 1308.11 81.9179 1308.99 L81.9179 1304.83 Q84.5799 1304.09 86.8947 1303.72 Q89.2327 1303.35 91.2928 1303.35 Q96.6169 1303.35 99.7187 1305.78 Q102.821 1308.18 102.821 1312.3 Q102.821 1315.17 101.177 1317.17 Q99.5335 1319.13 96.5011 1319.9 Z" fill="#000000" fill-rule="nonzero" fill-opacity="1" /><path clip-path="url(#clip260)" d="M122.496 1307.05 Q118.885 1307.05 117.057 1310.61 Q115.251 1314.16 115.251 1321.29 Q115.251 1328.39 117.057 1331.96 Q118.885 1335.5 122.496 1335.5 Q126.131 1335.5 127.936 1331.96 Q129.765 1328.39 129.765 1321.29 Q129.765 1314.16 127.936 1310.61 Q126.131 1307.05 122.496 1307.05 M122.496 1303.35 Q128.307 1303.35 131.362 1307.95 Q134.441 1312.54 134.441 1321.29 Q134.441 1330.01 131.362 1334.62 Q128.307 1339.2 122.496 1339.2 Q116.686 1339.2 113.608 1334.62 Q110.552 1330.01 110.552 1321.29 Q110.552 1312.54 113.608 1307.95 Q116.686 1303.35 122.496 1303.35 Z" fill="#000000" fill-rule="nonzero" fill-opacity="1" /><path clip-path="url(#clip260)" d="M152.658 1307.05 Q149.047 1307.05 147.218 1310.61 Q145.413 1314.16 145.413 1321.29 Q145.413 1328.39 147.218 1331.96 Q149.047 1335.5 152.658 1335.5 Q156.292 1335.5 158.098 1331.96 Q159.927 1328.39 159.927 1321.29 Q159.927 1314.16 158.098 1310.61 Q156.292 1307.05 152.658 1307.05 M152.658 1303.35 Q158.468 1303.35 161.524 1307.95 Q164.603 1312.54 164.603 1321.29 Q164.603 1330.01 161.524 1334.62 Q158.468 1339.2 152.658 1339.2 Q146.848 1339.2 143.769 1334.62 Q140.714 1330.01 140.714 1321.29 Q140.714 1312.54 143.769 1307.95 Q146.848 1303.35 152.658 1303.35 Z" fill="#000000" fill-rule="nonzero" fill-opacity="1" /><path clip-path="url(#clip260)" d="M182.82 1307.05 Q179.209 1307.05 177.38 1310.61 Q175.575 1314.16 175.575 1321.29 Q175.575 1328.39 177.38 1331.96 Q179.209 1335.5 182.82 1335.5 Q186.454 1335.5 188.26 1331.96 Q190.089 1328.39 190.089 1321.29 Q190.089 1314.16 188.26 1310.61 Q186.454 1307.05 182.82 1307.05 M182.82 1303.35 Q188.63 1303.35 191.686 1307.95 Q194.765 1312.54 194.765 1321.29 Q194.765 1330.01 191.686 1334.62 Q188.63 1339.2 182.82 1339.2 Q177.01 1339.2 173.931 1334.62 Q170.876 1330.01 170.876 1321.29 Q170.876 1312.54 173.931 1307.95 Q177.01 1303.35 182.82 1303.35 Z" fill="#000000" fill-rule="nonzero" fill-opacity="1" /><path clip-path="url(#clip260)" d="M50.9921 1093.81 L73.2142 1093.81 L73.2142 1095.8 L60.668 1128.37 L55.7838 1128.37 L67.5893 1097.74 L50.9921 1097.74 L50.9921 1093.81 Z" fill="#000000" fill-rule="nonzero" fill-opacity="1" /><path clip-path="url(#clip260)" d="M95.1817 1097.88 L83.3762 1116.33 L95.1817 1116.33 L95.1817 1097.88 M93.9549 1093.81 L99.8345 1093.81 L99.8345 1116.33 L104.765 1116.33 L104.765 1120.22 L99.8345 1120.22 L99.8345 1128.37 L95.1817 1128.37 L95.1817 1120.22 L79.5799 1120.22 L79.5799 1115.7 L93.9549 1093.81 Z" fill="#000000" fill-rule="nonzero" fill-opacity="1" /><path clip-path="url(#clip260)" d="M122.496 1096.88 Q118.885 1096.88 117.057 1100.45 Q115.251 1103.99 115.251 1111.12 Q115.251 1118.23 117.057 1121.79 Q118.885 1125.33 122.496 1125.33 Q126.131 1125.33 127.936 1121.79 Q129.765 1118.23 129.765 1111.12 Q129.765 1103.99 127.936 1100.45 Q126.131 1096.88 122.496 1096.88 M122.496 1093.18 Q128.307 1093.18 131.362 1097.79 Q134.441 1102.37 134.441 1111.12 Q134.441 1119.85 131.362 1124.45 Q128.307 1129.04 122.496 1129.04 Q116.686 1129.04 113.608 1124.45 Q110.552 1119.85 110.552 1111.12 Q110.552 1102.37 113.608 1097.79 Q116.686 1093.18 122.496 1093.18 Z" fill="#000000" fill-rule="nonzero" fill-opacity="1" /><path clip-path="url(#clip260)" d="M152.658 1096.88 Q149.047 1096.88 147.218 1100.45 Q145.413 1103.99 145.413 1111.12 Q145.413 1118.23 147.218 1121.79 Q149.047 1125.33 152.658 1125.33 Q156.292 1125.33 158.098 1121.79 Q159.927 1118.23 159.927 1111.12 Q159.927 1103.99 158.098 1100.45 Q156.292 1096.88 152.658 1096.88 M152.658 1093.18 Q158.468 1093.18 161.524 1097.79 Q164.603 1102.37 164.603 1111.12 Q164.603 1119.85 161.524 1124.45 Q158.468 1129.04 152.658 1129.04 Q146.848 1129.04 143.769 1124.45 Q140.714 1119.85 140.714 1111.12 Q140.714 1102.37 143.769 1097.79 Q146.848 1093.18 152.658 1093.18 Z" fill="#000000" fill-rule="nonzero" fill-opacity="1" /><path clip-path="url(#clip260)" d="M182.82 1096.88 Q179.209 1096.88 177.38 1100.45 Q175.575 1103.99 175.575 1111.12 Q175.575 1118.23 177.38 1121.79 Q179.209 1125.33 182.82 1125.33 Q186.454 1125.33 188.26 1121.79 Q190.089 1118.23 190.089 1111.12 Q190.089 1103.99 188.26 1100.45 Q186.454 1096.88 182.82 1096.88 M182.82 1093.18 Q188.63 1093.18 191.686 1097.79 Q194.765 1102.37 194.765 1111.12 Q194.765 1119.85 191.686 1124.45 Q188.63 1129.04 182.82 1129.04 Q177.01 1129.04 173.931 1124.45 Q170.876 1119.85 170.876 1111.12 Q170.876 1102.37 173.931 1097.79 Q177.01 1093.18 182.82 1093.18 Z" fill="#000000" fill-rule="nonzero" fill-opacity="1" /><path clip-path="url(#clip260)" d="M50.9921 883.639 L73.2142 883.639 L73.2142 885.63 L60.668 918.199 L55.7838 918.199 L67.5893 887.574 L50.9921 887.574 L50.9921 883.639 Z" fill="#000000" fill-rule="nonzero" fill-opacity="1" /><path clip-path="url(#clip260)" d="M82.3808 883.639 L100.737 883.639 L100.737 887.574 L86.6632 887.574 L86.6632 896.046 Q87.6817 895.699 88.7003 895.537 Q89.7188 895.352 90.7373 895.352 Q96.5243 895.352 99.9039 898.523 Q103.284 901.694 103.284 907.111 Q103.284 912.69 99.8113 915.791 Q96.3391 918.87 90.0197 918.87 Q87.8438 918.87 85.5753 918.5 Q83.3299 918.129 80.9225 917.389 L80.9225 912.69 Q83.0058 913.824 85.2281 914.379 Q87.4503 914.935 89.9271 914.935 Q93.9317 914.935 96.2697 912.828 Q98.6076 910.722 98.6076 907.111 Q98.6076 903.5 96.2697 901.393 Q93.9317 899.287 89.9271 899.287 Q88.0521 899.287 86.1771 899.704 Q84.3253 900.12 82.3808 901 L82.3808 883.639 Z" fill="#000000" fill-rule="nonzero" fill-opacity="1" /><path clip-path="url(#clip260)" d="M122.496 886.717 Q118.885 886.717 117.057 890.282 Q115.251 893.824 115.251 900.954 Q115.251 908.06 117.057 911.625 Q118.885 915.166 122.496 915.166 Q126.131 915.166 127.936 911.625 Q129.765 908.06 129.765 900.954 Q129.765 893.824 127.936 890.282 Q126.131 886.717 122.496 886.717 M122.496 883.014 Q128.307 883.014 131.362 887.62 Q134.441 892.204 134.441 900.954 Q134.441 909.68 131.362 914.287 Q128.307 918.87 122.496 918.87 Q116.686 918.87 113.608 914.287 Q110.552 909.68 110.552 900.954 Q110.552 892.204 113.608 887.62 Q116.686 883.014 122.496 883.014 Z" fill="#000000" fill-rule="nonzero" fill-opacity="1" /><path clip-path="url(#clip260)" d="M152.658 886.717 Q149.047 886.717 147.218 890.282 Q145.413 893.824 145.413 900.954 Q145.413 908.06 147.218 911.625 Q149.047 915.166 152.658 915.166 Q156.292 915.166 158.098 911.625 Q159.927 908.06 159.927 900.954 Q159.927 893.824 158.098 890.282 Q156.292 886.717 152.658 886.717 M152.658 883.014 Q158.468 883.014 161.524 887.62 Q164.603 892.204 164.603 900.954 Q164.603 909.68 161.524 914.287 Q158.468 918.87 152.658 918.87 Q146.848 918.87 143.769 914.287 Q140.714 909.68 140.714 900.954 Q140.714 892.204 143.769 887.62 Q146.848 883.014 152.658 883.014 Z" fill="#000000" fill-rule="nonzero" fill-opacity="1" /><path clip-path="url(#clip260)" d="M182.82 886.717 Q179.209 886.717 177.38 890.282 Q175.575 893.824 175.575 900.954 Q175.575 908.06 177.38 911.625 Q179.209 915.166 182.82 915.166 Q186.454 915.166 188.26 911.625 Q190.089 908.06 190.089 900.954 Q190.089 893.824 188.26 890.282 Q186.454 886.717 182.82 886.717 M182.82 883.014 Q188.63 883.014 191.686 887.62 Q194.765 892.204 194.765 900.954 Q194.765 909.68 191.686 914.287 Q188.63 918.87 182.82 918.87 Q177.01 918.87 173.931 914.287 Q170.876 909.68 170.876 900.954 Q170.876 892.204 173.931 887.62 Q177.01 883.014 182.82 883.014 Z" fill="#000000" fill-rule="nonzero" fill-opacity="1" /><path clip-path="url(#clip260)" d="M50.9921 673.473 L73.2142 673.473 L73.2142 675.463 L60.668 708.033 L55.7838 708.033 L67.5893 677.408 L50.9921 677.408 L50.9921 673.473 Z" fill="#000000" fill-rule="nonzero" fill-opacity="1" /><path clip-path="url(#clip260)" d="M92.9132 688.889 Q89.7651 688.889 87.9132 691.042 Q86.0845 693.195 86.0845 696.945 Q86.0845 700.671 87.9132 702.847 Q89.7651 705 92.9132 705 Q96.0613 705 97.89 702.847 Q99.7419 700.671 99.7419 696.945 Q99.7419 693.195 97.89 691.042 Q96.0613 688.889 92.9132 688.889 M102.196 674.236 L102.196 678.496 Q100.436 677.662 98.6308 677.223 Q96.8484 676.783 95.0891 676.783 Q90.4595 676.783 88.0058 679.908 Q85.5753 683.033 85.2281 689.352 Q86.5938 687.338 88.654 686.273 Q90.7141 685.185 93.191 685.185 Q98.3993 685.185 101.409 688.357 Q104.441 691.505 104.441 696.945 Q104.441 702.269 101.293 705.486 Q98.1447 708.704 92.9132 708.704 Q86.9179 708.704 83.7466 704.121 Q80.5753 699.514 80.5753 690.787 Q80.5753 682.593 84.4642 677.732 Q88.353 672.848 94.9039 672.848 Q96.6632 672.848 98.4456 673.195 Q100.251 673.542 102.196 674.236 Z" fill="#000000" fill-rule="nonzero" fill-opacity="1" /><path clip-path="url(#clip260)" d="M122.496 676.551 Q118.885 676.551 117.057 680.116 Q115.251 683.658 115.251 690.787 Q115.251 697.894 117.057 701.459 Q118.885 705 122.496 705 Q126.131 705 127.936 701.459 Q129.765 697.894 129.765 690.787 Q129.765 683.658 127.936 680.116 Q126.131 676.551 122.496 676.551 M122.496 672.848 Q128.307 672.848 131.362 677.454 Q134.441 682.037 134.441 690.787 Q134.441 699.514 131.362 704.121 Q128.307 708.704 122.496 708.704 Q116.686 708.704 113.608 704.121 Q110.552 699.514 110.552 690.787 Q110.552 682.037 113.608 677.454 Q116.686 672.848 122.496 672.848 Z" fill="#000000" fill-rule="nonzero" fill-opacity="1" /><path clip-path="url(#clip260)" d="M152.658 676.551 Q149.047 676.551 147.218 680.116 Q145.413 683.658 145.413 690.787 Q145.413 697.894 147.218 701.459 Q149.047 705 152.658 705 Q156.292 705 158.098 701.459 Q159.927 697.894 159.927 690.787 Q159.927 683.658 158.098 680.116 Q156.292 676.551 152.658 676.551 M152.658 672.848 Q158.468 672.848 161.524 677.454 Q164.603 682.037 164.603 690.787 Q164.603 699.514 161.524 704.121 Q158.468 708.704 152.658 708.704 Q146.848 708.704 143.769 704.121 Q140.714 699.514 140.714 690.787 Q140.714 682.037 143.769 677.454 Q146.848 672.848 152.658 672.848 Z" fill="#000000" fill-rule="nonzero" fill-opacity="1" /><path clip-path="url(#clip260)" d="M182.82 676.551 Q179.209 676.551 177.38 680.116 Q175.575 683.658 175.575 690.787 Q175.575 697.894 177.38 701.459 Q179.209 705 182.82 705 Q186.454 705 188.26 701.459 Q190.089 697.894 190.089 690.787 Q190.089 683.658 188.26 680.116 Q186.454 676.551 182.82 676.551 M182.82 672.848 Q188.63 672.848 191.686 677.454 Q194.765 682.037 194.765 690.787 Q194.765 699.514 191.686 704.121 Q188.63 708.704 182.82 708.704 Q177.01 708.704 173.931 704.121 Q170.876 699.514 170.876 690.787 Q170.876 682.037 173.931 677.454 Q177.01 672.848 182.82 672.848 Z" fill="#000000" fill-rule="nonzero" fill-opacity="1" /><path clip-path="url(#clip260)" d="M50.9921 463.306 L73.2142 463.306 L73.2142 465.297 L60.668 497.866 L55.7838 497.866 L67.5893 467.241 L50.9921 467.241 L50.9921 463.306 Z" fill="#000000" fill-rule="nonzero" fill-opacity="1" /><path clip-path="url(#clip260)" d="M81.154 463.306 L103.376 463.306 L103.376 465.297 L90.8299 497.866 L85.9456 497.866 L97.7511 467.241 L81.154 467.241 L81.154 463.306 Z" fill="#000000" fill-rule="nonzero" fill-opacity="1" /><path clip-path="url(#clip260)" d="M122.496 466.385 Q118.885 466.385 117.057 469.95 Q115.251 473.491 115.251 480.621 Q115.251 487.727 117.057 491.292 Q118.885 494.834 122.496 494.834 Q126.131 494.834 127.936 491.292 Q129.765 487.727 129.765 480.621 Q129.765 473.491 127.936 469.95 Q126.131 466.385 122.496 466.385 M122.496 462.681 Q128.307 462.681 131.362 467.288 Q134.441 471.871 134.441 480.621 Q134.441 489.348 131.362 493.954 Q128.307 498.538 122.496 498.538 Q116.686 498.538 113.608 493.954 Q110.552 489.348 110.552 480.621 Q110.552 471.871 113.608 467.288 Q116.686 462.681 122.496 462.681 Z" fill="#000000" fill-rule="nonzero" fill-opacity="1" /><path clip-path="url(#clip260)" d="M152.658 466.385 Q149.047 466.385 147.218 469.95 Q145.413 473.491 145.413 480.621 Q145.413 487.727 147.218 491.292 Q149.047 494.834 152.658 494.834 Q156.292 494.834 158.098 491.292 Q159.927 487.727 159.927 480.621 Q159.927 473.491 158.098 469.95 Q156.292 466.385 152.658 466.385 M152.658 462.681 Q158.468 462.681 161.524 467.288 Q164.603 471.871 164.603 480.621 Q164.603 489.348 161.524 493.954 Q158.468 498.538 152.658 498.538 Q146.848 498.538 143.769 493.954 Q140.714 489.348 140.714 480.621 Q140.714 471.871 143.769 467.288 Q146.848 462.681 152.658 462.681 Z" fill="#000000" fill-rule="nonzero" fill-opacity="1" /><path clip-path="url(#clip260)" d="M182.82 466.385 Q179.209 466.385 177.38 469.95 Q175.575 473.491 175.575 480.621 Q175.575 487.727 177.38 491.292 Q179.209 494.834 182.82 494.834 Q186.454 494.834 188.26 491.292 Q190.089 487.727 190.089 480.621 Q190.089 473.491 188.26 469.95 Q186.454 466.385 182.82 466.385 M182.82 462.681 Q188.63 462.681 191.686 467.288 Q194.765 471.871 194.765 480.621 Q194.765 489.348 191.686 493.954 Q188.63 498.538 182.82 498.538 Q177.01 498.538 173.931 493.954 Q170.876 489.348 170.876 480.621 Q170.876 471.871 173.931 467.288 Q177.01 462.681 182.82 462.681 Z" fill="#000000" fill-rule="nonzero" fill-opacity="1" /><path clip-path="url(#clip260)" d="M50.9921 253.14 L73.2142 253.14 L73.2142 255.131 L60.668 287.7 L55.7838 287.7 L67.5893 257.075 L50.9921 257.075 L50.9921 253.14 Z" fill="#000000" fill-rule="nonzero" fill-opacity="1" /><path clip-path="url(#clip260)" d="M92.3345 271.288 Q89.0012 271.288 87.0799 273.071 Q85.1818 274.853 85.1818 277.978 Q85.1818 281.103 87.0799 282.885 Q89.0012 284.668 92.3345 284.668 Q95.6678 284.668 97.5891 282.885 Q99.5104 281.08 99.5104 277.978 Q99.5104 274.853 97.5891 273.071 Q95.691 271.288 92.3345 271.288 M87.6586 269.297 Q84.6494 268.557 82.9595 266.496 Q81.2929 264.436 81.2929 261.473 Q81.2929 257.33 84.2327 254.922 Q87.1956 252.515 92.3345 252.515 Q97.4965 252.515 100.436 254.922 Q103.376 257.33 103.376 261.473 Q103.376 264.436 101.686 266.496 Q100.02 268.557 97.0335 269.297 Q100.413 270.084 102.288 272.376 Q104.186 274.668 104.186 277.978 Q104.186 283.001 101.108 285.686 Q98.0521 288.371 92.3345 288.371 Q86.6169 288.371 83.5382 285.686 Q80.4827 283.001 80.4827 277.978 Q80.4827 274.668 82.3808 272.376 Q84.279 270.084 87.6586 269.297 M85.9456 261.913 Q85.9456 264.598 87.6123 266.103 Q89.3021 267.608 92.3345 267.608 Q95.3437 267.608 97.0335 266.103 Q98.7465 264.598 98.7465 261.913 Q98.7465 259.228 97.0335 257.723 Q95.3437 256.219 92.3345 256.219 Q89.3021 256.219 87.6123 257.723 Q85.9456 259.228 85.9456 261.913 Z" fill="#000000" fill-rule="nonzero" fill-opacity="1" /><path clip-path="url(#clip260)" d="M122.496 256.219 Q118.885 256.219 117.057 259.784 Q115.251 263.325 115.251 270.455 Q115.251 277.561 117.057 281.126 Q118.885 284.668 122.496 284.668 Q126.131 284.668 127.936 281.126 Q129.765 277.561 129.765 270.455 Q129.765 263.325 127.936 259.784 Q126.131 256.219 122.496 256.219 M122.496 252.515 Q128.307 252.515 131.362 257.122 Q134.441 261.705 134.441 270.455 Q134.441 279.182 131.362 283.788 Q128.307 288.371 122.496 288.371 Q116.686 288.371 113.608 283.788 Q110.552 279.182 110.552 270.455 Q110.552 261.705 113.608 257.122 Q116.686 252.515 122.496 252.515 Z" fill="#000000" fill-rule="nonzero" fill-opacity="1" /><path clip-path="url(#clip260)" d="M152.658 256.219 Q149.047 256.219 147.218 259.784 Q145.413 263.325 145.413 270.455 Q145.413 277.561 147.218 281.126 Q149.047 284.668 152.658 284.668 Q156.292 284.668 158.098 281.126 Q159.927 277.561 159.927 270.455 Q159.927 263.325 158.098 259.784 Q156.292 256.219 152.658 256.219 M152.658 252.515 Q158.468 252.515 161.524 257.122 Q164.603 261.705 164.603 270.455 Q164.603 279.182 161.524 283.788 Q158.468 288.371 152.658 288.371 Q146.848 288.371 143.769 283.788 Q140.714 279.182 140.714 270.455 Q140.714 261.705 143.769 257.122 Q146.848 252.515 152.658 252.515 Z" fill="#000000" fill-rule="nonzero" fill-opacity="1" /><path clip-path="url(#clip260)" d="M182.82 256.219 Q179.209 256.219 177.38 259.784 Q175.575 263.325 175.575 270.455 Q175.575 277.561 177.38 281.126 Q179.209 284.668 182.82 284.668 Q186.454 284.668 188.26 281.126 Q190.089 277.561 190.089 270.455 Q190.089 263.325 188.26 259.784 Q186.454 256.219 182.82 256.219 M182.82 252.515 Q188.63 252.515 191.686 257.122 Q194.765 261.705 194.765 270.455 Q194.765 279.182 191.686 283.788 Q188.63 288.371 182.82 288.371 Q177.01 288.371 173.931 283.788 Q170.876 279.182 170.876 270.455 Q170.876 261.705 173.931 257.122 Q177.01 252.515 182.82 252.515 Z" fill="#000000" fill-rule="nonzero" fill-opacity="1" /><path clip-path="url(#clip260)" d="M1262.23 35.2602 Q1262.23 29.4732 1259.83 26.2904 Q1257.46 23.1075 1253.15 23.1075 Q1248.86 23.1075 1246.46 26.2904 Q1244.09 29.4732 1244.09 35.2602 Q1244.09 41.0183 1246.46 44.2012 Q1248.86 47.384 1253.15 47.384 Q1257.46 47.384 1259.83 44.2012 Q1262.23 41.0183 1262.23 35.2602 M1267.56 47.818 Q1267.56 56.0934 1263.88 60.1154 Q1260.21 64.1663 1252.63 64.1663 Q1249.82 64.1663 1247.33 63.7323 Q1244.84 63.3272 1242.5 62.4592 L1242.5 57.2798 Q1244.84 58.5529 1247.13 59.1606 Q1249.41 59.7682 1251.79 59.7682 Q1257.02 59.7682 1259.63 57.0194 Q1262.23 54.2995 1262.23 48.7729 L1262.23 46.1398 Q1260.58 49.0044 1258.01 50.4222 Q1255.43 51.84 1251.84 51.84 Q1245.88 51.84 1242.24 47.2972 Q1238.59 42.7544 1238.59 35.2602 Q1238.59 27.7371 1242.24 23.1943 Q1245.88 18.6515 1251.84 18.6515 Q1255.43 18.6515 1258.01 20.0693 Q1260.58 21.4872 1262.23 24.3517 L1262.23 19.4328 L1267.56 19.4328 L1267.56 47.818 Z" fill="#000000" fill-rule="nonzero" fill-opacity="1" /><path clip-path="url(#clip260)" d="M1299.85 24.3517 L1299.85 6.81709 L1305.17 6.81709 L1305.17 51.84 L1299.85 51.84 L1299.85 46.9789 Q1298.17 49.8724 1295.59 51.2902 Q1293.05 52.6791 1289.46 52.6791 Q1283.59 52.6791 1279.88 47.9916 Q1276.21 43.3042 1276.21 35.6653 Q1276.21 28.0265 1279.88 23.339 Q1283.59 18.6515 1289.46 18.6515 Q1293.05 18.6515 1295.59 20.0693 Q1298.17 21.4582 1299.85 24.3517 M1281.71 35.6653 Q1281.71 41.5391 1284.11 44.8956 Q1286.54 48.2231 1290.76 48.2231 Q1294.99 48.2231 1297.42 44.8956 Q1299.85 41.5391 1299.85 35.6653 Q1299.85 29.7915 1297.42 26.464 Q1294.99 23.1075 1290.76 23.1075 Q1286.54 23.1075 1284.11 26.464 Q1281.71 29.7915 1281.71 35.6653 Z" fill="#000000" fill-rule="nonzero" fill-opacity="1" /><path clip-path="url(#clip260)" d="M1321.29 46.9789 L1321.29 64.1663 L1315.94 64.1663 L1315.94 19.4328 L1321.29 19.4328 L1321.29 24.3517 Q1322.97 21.4582 1325.51 20.0693 Q1328.09 18.6515 1331.65 18.6515 Q1337.55 18.6515 1341.22 23.339 Q1344.93 28.0265 1344.93 35.6653 Q1344.93 43.3042 1341.22 47.9916 Q1337.55 52.6791 1331.65 52.6791 Q1328.09 52.6791 1325.51 51.2902 Q1322.97 49.8724 1321.29 46.9789 M1339.4 35.6653 Q1339.4 29.7915 1336.97 26.464 Q1334.57 23.1075 1330.35 23.1075 Q1326.12 23.1075 1323.69 26.464 Q1321.29 29.7915 1321.29 35.6653 Q1321.29 41.5391 1323.69 44.8956 Q1326.12 48.2231 1330.35 48.2231 Q1334.57 48.2231 1336.97 44.8956 Q1339.4 41.5391 1339.4 35.6653 Z" fill="#000000" fill-rule="nonzero" fill-opacity="1" /><polyline clip-path="url(#clip262)" style="stroke:#009af9; stroke-linecap:round; stroke-linejoin:round; stroke-width:4; stroke-opacity:1; fill:none" points="290.821,1442.73 415.938,1433.85 541.056,1447.38 666.173,1360.5 791.291,1239.49 916.408,1183.16 1041.53,1064.36 1166.64,1014.48 1291.76,1091.05 1416.88,879.753 1542,623.143 1667.11,684.045 1792.23,482.538 1917.35,300.24 2042.46,162.154 2167.58,145.256 2292.7,246.617 "/>
<path clip-path="url(#clip260)" d="M301.498 255.881 L566.127 255.881 L566.127 152.201 L301.498 152.201  Z" fill="#ffffff" fill-rule="evenodd" fill-opacity="1"/>
<polyline clip-path="url(#clip260)" style="stroke:#000000; stroke-linecap:round; stroke-linejoin:round; stroke-width:4; stroke-opacity:1; fill:none" points="301.498,255.881 566.127,255.881 566.127,152.201 301.498,152.201 301.498,255.881 "/>
<polyline clip-path="url(#clip260)" style="stroke:#009af9; stroke-linecap:round; stroke-linejoin:round; stroke-width:4; stroke-opacity:1; fill:none" points="325.075,204.041 466.541,204.041 "/>
<path clip-path="url(#clip260)" d="M503.962 223.728 Q502.156 228.358 500.443 229.77 Q498.73 231.182 495.86 231.182 L492.457 231.182 L492.457 227.617 L494.957 227.617 Q496.716 227.617 497.688 226.784 Q498.661 225.95 499.841 222.848 L500.605 220.904 L490.119 195.395 L494.633 195.395 L502.735 215.673 L510.836 195.395 L515.35 195.395 L503.962 223.728 Z" fill="#000000" fill-rule="nonzero" fill-opacity="1" /><path clip-path="url(#clip260)" d="M522.642 217.385 L530.281 217.385 L530.281 191.02 L521.971 192.687 L521.971 188.427 L530.235 186.761 L534.91 186.761 L534.91 217.385 L542.549 217.385 L542.549 221.321 L522.642 221.321 L522.642 217.385 Z" fill="#000000" fill-rule="nonzero" fill-opacity="1" /></svg>
