<?xml version="1.0" encoding="utf-8"?>
<svg xmlns="http://www.w3.org/2000/svg" xmlns:xlink="http://www.w3.org/1999/xlink" width="600" height="300" viewBox="0 0 2400 1200">
<defs>
  <clipPath id="clip350">
    <rect x="0" y="0" width="2400" height="1200"/>
  </clipPath>
</defs>
<path clip-path="url(#clip350)" d="M0 1200 L2400 1200 L2400 0 L0 0  Z" fill="#ffffff" fill-rule="evenodd" fill-opacity="1"/>
<defs>
  <clipPath id="clip351">
    <rect x="480" y="0" width="1681" height="1200"/>
  </clipPath>
</defs>
<path clip-path="url(#clip350)" d="M216.436 1099.09 L1168.92 1099.09 L1168.92 92.1521 L216.436 92.1521  Z" fill="#ffffff" fill-rule="evenodd" fill-opacity="1"/>
<defs>
  <clipPath id="clip352">
    <rect x="216" y="92" width="953" height="1008"/>
  </clipPath>
</defs>
<polyline clip-path="url(#clip352)" style="stroke:#000000; stroke-linecap:round; stroke-linejoin:round; stroke-width:2; stroke-opacity:0.1; fill:none" points="414.55,1099.09 414.55,92.1521 "/>
<polyline clip-path="url(#clip352)" style="stroke:#000000; stroke-linecap:round; stroke-linejoin:round; stroke-width:2; stroke-opacity:0.1; fill:none" points="628.496,1099.09 628.496,92.1521 "/>
<polyline clip-path="url(#clip352)" style="stroke:#000000; stroke-linecap:round; stroke-linejoin:round; stroke-width:2; stroke-opacity:0.1; fill:none" points="842.443,1099.09 842.443,92.1521 "/>
<polyline clip-path="url(#clip352)" style="stroke:#000000; stroke-linecap:round; stroke-linejoin:round; stroke-width:2; stroke-opacity:0.1; fill:none" points="1056.39,1099.09 1056.39,92.1521 "/>
<polyline clip-path="url(#clip352)" style="stroke:#000000; stroke-linecap:round; stroke-linejoin:round; stroke-width:2; stroke-opacity:0.1; fill:none" points="216.436,1076.19 1168.92,1076.19 "/>
<polyline clip-path="url(#clip352)" style="stroke:#000000; stroke-linecap:round; stroke-linejoin:round; stroke-width:2; stroke-opacity:0.1; fill:none" points="216.436,837.309 1168.92,837.309 "/>
<polyline clip-path="url(#clip352)" style="stroke:#000000; stroke-linecap:round; stroke-linejoin:round; stroke-width:2; stroke-opacity:0.1; fill:none" points="216.436,598.423 1168.92,598.423 "/>
<polyline clip-path="url(#clip352)" style="stroke:#000000; stroke-linecap:round; stroke-linejoin:round; stroke-width:2; stroke-opacity:0.1; fill:none" points="216.436,359.536 1168.92,359.536 "/>
<polyline clip-path="url(#clip352)" style="stroke:#000000; stroke-linecap:round; stroke-linejoin:round; stroke-width:2; stroke-opacity:0.1; fill:none" points="216.436,120.65 1168.92,120.65 "/>
<polyline clip-path="url(#clip350)" style="stroke:#000000; stroke-linecap:round; stroke-linejoin:round; stroke-width:4; stroke-opacity:1; fill:none" points="216.436,1099.09 1168.92,1099.09 "/>
<polyline clip-path="url(#clip350)" style="stroke:#000000; stroke-linecap:round; stroke-linejoin:round; stroke-width:4; stroke-opacity:1; fill:none" points="414.55,1099.09 414.55,1080.19 "/>
<polyline clip-path="url(#clip350)" style="stroke:#000000; stroke-linecap:round; stroke-linejoin:round; stroke-width:4; stroke-opacity:1; fill:none" points="628.496,1099.09 628.496,1080.19 "/>
<polyline clip-path="url(#clip350)" style="stroke:#000000; stroke-linecap:round; stroke-linejoin:round; stroke-width:4; stroke-opacity:1; fill:none" points="842.443,1099.09 842.443,1080.19 "/>
<polyline clip-path="url(#clip350)" style="stroke:#000000; stroke-linecap:round; stroke-linejoin:round; stroke-width:4; stroke-opacity:1; fill:none" points="1056.39,1099.09 1056.39,1080.19 "/>
<path clip-path="url(#clip350)" d="M404.828 1126.93 L423.184 1126.93 L423.184 1130.86 L409.11 1130.86 L409.11 1139.34 Q410.129 1138.99 411.147 1138.83 Q412.166 1138.64 413.184 1138.64 Q418.971 1138.64 422.351 1141.81 Q425.731 1144.98 425.731 1150.4 Q425.731 1155.98 422.258 1159.08 Q418.786 1162.16 412.467 1162.16 Q410.291 1162.16 408.022 1161.79 Q405.777 1161.42 403.37 1160.68 L403.37 1155.98 Q405.453 1157.11 407.675 1157.67 Q409.897 1158.22 412.374 1158.22 Q416.379 1158.22 418.717 1156.12 Q421.055 1154.01 421.055 1150.4 Q421.055 1146.79 418.717 1144.68 Q416.379 1142.58 412.374 1142.58 Q410.499 1142.58 408.624 1142.99 Q406.772 1143.41 404.828 1144.29 L404.828 1126.93 Z" fill="#000000" fill-rule="nonzero" fill-opacity="1" /><path clip-path="url(#clip350)" d="M603.184 1157.55 L610.823 1157.55 L610.823 1131.19 L602.513 1132.85 L602.513 1128.59 L610.777 1126.93 L615.453 1126.93 L615.453 1157.55 L623.091 1157.55 L623.091 1161.49 L603.184 1161.49 L603.184 1157.55 Z" fill="#000000" fill-rule="nonzero" fill-opacity="1" /><path clip-path="url(#clip350)" d="M642.536 1130.01 Q638.925 1130.01 637.096 1133.57 Q635.29 1137.11 635.29 1144.24 Q635.29 1151.35 637.096 1154.91 Q638.925 1158.46 642.536 1158.46 Q646.17 1158.46 647.976 1154.91 Q649.804 1151.35 649.804 1144.24 Q649.804 1137.11 647.976 1133.57 Q646.17 1130.01 642.536 1130.01 M642.536 1126.3 Q648.346 1126.3 651.401 1130.91 Q654.48 1135.49 654.48 1144.24 Q654.48 1152.97 651.401 1157.58 Q648.346 1162.16 642.536 1162.16 Q636.726 1162.16 633.647 1157.58 Q630.591 1152.97 630.591 1144.24 Q630.591 1135.49 633.647 1130.91 Q636.726 1126.3 642.536 1126.3 Z" fill="#000000" fill-rule="nonzero" fill-opacity="1" /><path clip-path="url(#clip350)" d="M817.628 1157.55 L825.267 1157.55 L825.267 1131.19 L816.957 1132.85 L816.957 1128.59 L825.221 1126.93 L829.897 1126.93 L829.897 1157.55 L837.535 1157.55 L837.535 1161.49 L817.628 1161.49 L817.628 1157.55 Z" fill="#000000" fill-rule="nonzero" fill-opacity="1" /><path clip-path="url(#clip350)" d="M847.026 1126.93 L865.382 1126.93 L865.382 1130.86 L851.308 1130.86 L851.308 1139.34 Q852.327 1138.99 853.345 1138.83 Q854.364 1138.64 855.382 1138.64 Q861.169 1138.64 864.549 1141.81 Q867.929 1144.98 867.929 1150.4 Q867.929 1155.98 864.457 1159.08 Q860.984 1162.16 854.665 1162.16 Q852.489 1162.16 850.22 1161.79 Q847.975 1161.42 845.568 1160.68 L845.568 1155.98 Q847.651 1157.11 849.873 1157.67 Q852.095 1158.22 854.572 1158.22 Q858.577 1158.22 860.915 1156.12 Q863.253 1154.01 863.253 1150.4 Q863.253 1146.79 860.915 1144.68 Q858.577 1142.58 854.572 1142.58 Q852.697 1142.58 850.822 1142.99 Q848.97 1143.41 847.026 1144.29 L847.026 1126.93 Z" fill="#000000" fill-rule="nonzero" fill-opacity="1" /><path clip-path="url(#clip350)" d="M1035.16 1157.55 L1051.48 1157.55 L1051.48 1161.49 L1029.54 1161.49 L1029.54 1157.55 Q1032.2 1154.8 1036.78 1150.17 Q1041.39 1145.52 1042.57 1144.17 Q1044.82 1141.65 1045.69 1139.91 Q1046.6 1138.15 1046.6 1136.46 Q1046.6 1133.71 1044.65 1131.97 Q1042.73 1130.24 1039.63 1130.24 Q1037.43 1130.24 1034.98 1131 Q1032.55 1131.77 1029.77 1133.32 L1029.77 1128.59 Q1032.59 1127.46 1035.05 1126.88 Q1037.5 1126.3 1039.54 1126.3 Q1044.91 1126.3 1048.1 1128.99 Q1051.3 1131.67 1051.3 1136.16 Q1051.3 1138.29 1050.49 1140.21 Q1049.7 1142.11 1047.59 1144.71 Q1047.01 1145.38 1043.91 1148.59 Q1040.81 1151.79 1035.16 1157.55 Z" fill="#000000" fill-rule="nonzero" fill-opacity="1" /><path clip-path="url(#clip350)" d="M1071.3 1130.01 Q1067.69 1130.01 1065.86 1133.57 Q1064.05 1137.11 1064.05 1144.24 Q1064.05 1151.35 1065.86 1154.91 Q1067.69 1158.46 1071.3 1158.46 Q1074.93 1158.46 1076.74 1154.91 Q1078.56 1151.35 1078.56 1144.24 Q1078.56 1137.11 1076.74 1133.57 Q1074.93 1130.01 1071.3 1130.01 M1071.3 1126.3 Q1077.11 1126.3 1080.16 1130.91 Q1083.24 1135.49 1083.24 1144.24 Q1083.24 1152.97 1080.16 1157.58 Q1077.11 1162.16 1071.3 1162.16 Q1065.49 1162.16 1062.41 1157.58 Q1059.35 1152.97 1059.35 1144.24 Q1059.35 1135.49 1062.41 1130.91 Q1065.49 1126.3 1071.3 1126.3 Z" fill="#000000" fill-rule="nonzero" fill-opacity="1" /><polyline clip-path="url(#clip350)" style="stroke:#000000; stroke-linecap:round; stroke-linejoin:round; stroke-width:4; stroke-opacity:1; fill:none" points="216.436,1099.09 216.436,92.1521 "/>
<polyline clip-path="url(#clip350)" style="stroke:#000000; stroke-linecap:round; stroke-linejoin:round; stroke-width:4; stroke-opacity:1; fill:none" points="216.436,1076.19 235.334,1076.19 "/>
<polyline clip-path="url(#clip350)" style="stroke:#000000; stroke-linecap:round; stroke-linejoin:round; stroke-width:4; stroke-opacity:1; fill:none" points="216.436,837.309 235.334,837.309 "/>
<polyline clip-path="url(#clip350)" style="stroke:#000000; stroke-linecap:round; stroke-linejoin:round; stroke-width:4; stroke-opacity:1; fill:none" points="216.436,598.423 235.334,598.423 "/>
<polyline clip-path="url(#clip350)" style="stroke:#000000; stroke-linecap:round; stroke-linejoin:round; stroke-width:4; stroke-opacity:1; fill:none" points="216.436,359.536 235.334,359.536 "/>
<polyline clip-path="url(#clip350)" style="stroke:#000000; stroke-linecap:round; stroke-linejoin:round; stroke-width:4; stroke-opacity:1; fill:none" points="216.436,120.65 235.334,120.65 "/>
<path clip-path="url(#clip350)" d="M62.9365 1061.99 Q59.3254 1061.99 57.4967 1065.56 Q55.6912 1069.1 55.6912 1076.23 Q55.6912 1083.34 57.4967 1086.9 Q59.3254 1090.44 62.9365 1090.44 Q66.5707 1090.44 68.3763 1086.9 Q70.205 1083.34 70.205 1076.23 Q70.205 1069.1 68.3763 1065.56 Q66.5707 1061.99 62.9365 1061.99 M62.9365 1058.29 Q68.7467 1058.29 71.8022 1062.9 Q74.8809 1067.48 74.8809 1076.23 Q74.8809 1084.96 71.8022 1089.56 Q68.7467 1094.15 62.9365 1094.15 Q57.1264 1094.15 54.0477 1089.56 Q50.9921 1084.96 50.9921 1076.23 Q50.9921 1067.48 54.0477 1062.9 Q57.1264 1058.29 62.9365 1058.29 Z" fill="#000000" fill-rule="nonzero" fill-opacity="1" /><path clip-path="url(#clip350)" d="M83.0984 1087.6 L87.9827 1087.6 L87.9827 1093.47 L83.0984 1093.47 L83.0984 1087.6 Z" fill="#000000" fill-rule="nonzero" fill-opacity="1" /><path clip-path="url(#clip350)" d="M108.168 1061.99 Q104.557 1061.99 102.728 1065.56 Q100.922 1069.1 100.922 1076.23 Q100.922 1083.34 102.728 1086.9 Q104.557 1090.44 108.168 1090.44 Q111.802 1090.44 113.608 1086.9 Q115.436 1083.34 115.436 1076.23 Q115.436 1069.1 113.608 1065.56 Q111.802 1061.99 108.168 1061.99 M108.168 1058.29 Q113.978 1058.29 117.033 1062.9 Q120.112 1067.48 120.112 1076.23 Q120.112 1084.96 117.033 1089.56 Q113.978 1094.15 108.168 1094.15 Q102.358 1094.15 99.2789 1089.56 Q96.2234 1084.96 96.2234 1076.23 Q96.2234 1067.48 99.2789 1062.9 Q102.358 1058.29 108.168 1058.29 Z" fill="#000000" fill-rule="nonzero" fill-opacity="1" /><path clip-path="url(#clip350)" d="M138.33 1061.99 Q134.719 1061.99 132.89 1065.56 Q131.084 1069.1 131.084 1076.23 Q131.084 1083.34 132.89 1086.9 Q134.719 1090.44 138.33 1090.44 Q141.964 1090.44 143.769 1086.9 Q145.598 1083.34 145.598 1076.23 Q145.598 1069.1 143.769 1065.56 Q141.964 1061.99 138.33 1061.99 M138.33 1058.29 Q144.14 1058.29 147.195 1062.9 Q150.274 1067.48 150.274 1076.23 Q150.274 1084.96 147.195 1089.56 Q144.14 1094.15 138.33 1094.15 Q132.519 1094.15 129.441 1089.56 Q126.385 1084.96 126.385 1076.23 Q126.385 1067.48 129.441 1062.9 Q132.519 1058.29 138.33 1058.29 Z" fill="#000000" fill-rule="nonzero" fill-opacity="1" /><path clip-path="url(#clip350)" d="M168.491 1061.99 Q164.88 1061.99 163.052 1065.56 Q161.246 1069.1 161.246 1076.23 Q161.246 1083.34 163.052 1086.9 Q164.88 1090.44 168.491 1090.44 Q172.126 1090.44 173.931 1086.9 Q175.76 1083.34 175.76 1076.23 Q175.76 1069.1 173.931 1065.56 Q172.126 1061.99 168.491 1061.99 M168.491 1058.29 Q174.302 1058.29 177.357 1062.9 Q180.436 1067.48 180.436 1076.23 Q180.436 1084.96 177.357 1089.56 Q174.302 1094.15 168.491 1094.15 Q162.681 1094.15 159.603 1089.56 Q156.547 1084.96 156.547 1076.23 Q156.547 1067.48 159.603 1062.9 Q162.681 1058.29 168.491 1058.29 Z" fill="#000000" fill-rule="nonzero" fill-opacity="1" /><path clip-path="url(#clip350)" d="M63.9319 823.107 Q60.3208 823.107 58.4921 826.672 Q56.6865 830.214 56.6865 837.344 Q56.6865 844.45 58.4921 848.015 Q60.3208 851.556 63.9319 851.556 Q67.5661 851.556 69.3717 848.015 Q71.2004 844.45 71.2004 837.344 Q71.2004 830.214 69.3717 826.672 Q67.5661 823.107 63.9319 823.107 M63.9319 819.404 Q69.742 819.404 72.7976 824.01 Q75.8763 828.594 75.8763 837.344 Q75.8763 846.07 72.7976 850.677 Q69.742 855.26 63.9319 855.26 Q58.1217 855.26 55.043 850.677 Q51.9875 846.07 51.9875 837.344 Q51.9875 828.594 55.043 824.01 Q58.1217 819.404 63.9319 819.404 Z" fill="#000000" fill-rule="nonzero" fill-opacity="1" /><path clip-path="url(#clip350)" d="M84.0938 848.709 L88.978 848.709 L88.978 854.589 L84.0938 854.589 L84.0938 848.709 Z" fill="#000000" fill-rule="nonzero" fill-opacity="1" /><path clip-path="url(#clip350)" d="M109.163 823.107 Q105.552 823.107 103.723 826.672 Q101.918 830.214 101.918 837.344 Q101.918 844.45 103.723 848.015 Q105.552 851.556 109.163 851.556 Q112.797 851.556 114.603 848.015 Q116.432 844.45 116.432 837.344 Q116.432 830.214 114.603 826.672 Q112.797 823.107 109.163 823.107 M109.163 819.404 Q114.973 819.404 118.029 824.01 Q121.107 828.594 121.107 837.344 Q121.107 846.07 118.029 850.677 Q114.973 855.26 109.163 855.26 Q103.353 855.26 100.274 850.677 Q97.2187 846.07 97.2187 837.344 Q97.2187 828.594 100.274 824.01 Q103.353 819.404 109.163 819.404 Z" fill="#000000" fill-rule="nonzero" fill-opacity="1" /><path clip-path="url(#clip350)" d="M139.325 823.107 Q135.714 823.107 133.885 826.672 Q132.08 830.214 132.08 837.344 Q132.08 844.45 133.885 848.015 Q135.714 851.556 139.325 851.556 Q142.959 851.556 144.765 848.015 Q146.593 844.45 146.593 837.344 Q146.593 830.214 144.765 826.672 Q142.959 823.107 139.325 823.107 M139.325 819.404 Q145.135 819.404 148.191 824.01 Q151.269 828.594 151.269 837.344 Q151.269 846.07 148.191 850.677 Q145.135 855.26 139.325 855.26 Q133.515 855.26 130.436 850.677 Q127.381 846.07 127.381 837.344 Q127.381 828.594 130.436 824.01 Q133.515 819.404 139.325 819.404 Z" fill="#000000" fill-rule="nonzero" fill-opacity="1" /><path clip-path="url(#clip350)" d="M159.533 820.029 L177.89 820.029 L177.89 823.964 L163.816 823.964 L163.816 832.436 Q164.834 832.089 165.853 831.927 Q166.871 831.742 167.89 831.742 Q173.677 831.742 177.056 834.913 Q180.436 838.084 180.436 843.501 Q180.436 849.08 176.964 852.181 Q173.491 855.26 167.172 855.26 Q164.996 855.26 162.728 854.89 Q160.482 854.519 158.075 853.779 L158.075 849.08 Q160.158 850.214 162.38 850.769 Q164.603 851.325 167.079 851.325 Q171.084 851.325 173.422 849.218 Q175.76 847.112 175.76 843.501 Q175.76 839.89 173.422 837.783 Q171.084 835.677 167.079 835.677 Q165.204 835.677 163.329 836.094 Q161.478 836.51 159.533 837.39 L159.533 820.029 Z" fill="#000000" fill-rule="nonzero" fill-opacity="1" /><path clip-path="url(#clip350)" d="M62.9365 584.221 Q59.3254 584.221 57.4967 587.786 Q55.6912 591.328 55.6912 598.457 Q55.6912 605.564 57.4967 609.129 Q59.3254 612.67 62.9365 612.67 Q66.5707 612.67 68.3763 609.129 Q70.205 605.564 70.205 598.457 Q70.205 591.328 68.3763 587.786 Q66.5707 584.221 62.9365 584.221 M62.9365 580.518 Q68.7467 580.518 71.8022 585.124 Q74.8809 589.707 74.8809 598.457 Q74.8809 607.184 71.8022 611.791 Q68.7467 616.374 62.9365 616.374 Q57.1264 616.374 54.0477 611.791 Q50.9921 607.184 50.9921 598.457 Q50.9921 589.707 54.0477 585.124 Q57.1264 580.518 62.9365 580.518 Z" fill="#000000" fill-rule="nonzero" fill-opacity="1" /><path clip-path="url(#clip350)" d="M83.0984 609.823 L87.9827 609.823 L87.9827 615.703 L83.0984 615.703 L83.0984 609.823 Z" fill="#000000" fill-rule="nonzero" fill-opacity="1" /><path clip-path="url(#clip350)" d="M108.168 584.221 Q104.557 584.221 102.728 587.786 Q100.922 591.328 100.922 598.457 Q100.922 605.564 102.728 609.129 Q104.557 612.67 108.168 612.67 Q111.802 612.67 113.608 609.129 Q115.436 605.564 115.436 598.457 Q115.436 591.328 113.608 587.786 Q111.802 584.221 108.168 584.221 M108.168 580.518 Q113.978 580.518 117.033 585.124 Q120.112 589.707 120.112 598.457 Q120.112 607.184 117.033 611.791 Q113.978 616.374 108.168 616.374 Q102.358 616.374 99.2789 611.791 Q96.2234 607.184 96.2234 598.457 Q96.2234 589.707 99.2789 585.124 Q102.358 580.518 108.168 580.518 Z" fill="#000000" fill-rule="nonzero" fill-opacity="1" /><path clip-path="url(#clip350)" d="M129.14 611.767 L136.779 611.767 L136.779 585.402 L128.469 587.069 L128.469 582.809 L136.732 581.143 L141.408 581.143 L141.408 611.767 L149.047 611.767 L149.047 615.703 L129.14 615.703 L129.14 611.767 Z" fill="#000000" fill-rule="nonzero" fill-opacity="1" /><path clip-path="url(#clip350)" d="M168.491 584.221 Q164.88 584.221 163.052 587.786 Q161.246 591.328 161.246 598.457 Q161.246 605.564 163.052 609.129 Q164.88 612.67 168.491 612.67 Q172.126 612.67 173.931 609.129 Q175.76 605.564 175.76 598.457 Q175.76 591.328 173.931 587.786 Q172.126 584.221 168.491 584.221 M168.491 580.518 Q174.302 580.518 177.357 585.124 Q180.436 589.707 180.436 598.457 Q180.436 607.184 177.357 611.791 Q174.302 616.374 168.491 616.374 Q162.681 616.374 159.603 611.791 Q156.547 607.184 156.547 598.457 Q156.547 589.707 159.603 585.124 Q162.681 580.518 168.491 580.518 Z" fill="#000000" fill-rule="nonzero" fill-opacity="1" /><path clip-path="url(#clip350)" d="M63.9319 345.335 Q60.3208 345.335 58.4921 348.9 Q56.6865 352.442 56.6865 359.571 Q56.6865 366.678 58.4921 370.242 Q60.3208 373.784 63.9319 373.784 Q67.5661 373.784 69.3717 370.242 Q71.2004 366.678 71.2004 359.571 Q71.2004 352.442 69.3717 348.9 Q67.5661 345.335 63.9319 345.335 M63.9319 341.631 Q69.742 341.631 72.7976 346.238 Q75.8763 350.821 75.8763 359.571 Q75.8763 368.298 72.7976 372.904 Q69.742 377.488 63.9319 377.488 Q58.1217 377.488 55.043 372.904 Q51.9875 368.298 51.9875 359.571 Q51.9875 350.821 55.043 346.238 Q58.1217 341.631 63.9319 341.631 Z" fill="#000000" fill-rule="nonzero" fill-opacity="1" /><path clip-path="url(#clip350)" d="M84.0938 370.937 L88.978 370.937 L88.978 376.816 L84.0938 376.816 L84.0938 370.937 Z" fill="#000000" fill-rule="nonzero" fill-opacity="1" /><path clip-path="url(#clip350)" d="M109.163 345.335 Q105.552 345.335 103.723 348.9 Q101.918 352.442 101.918 359.571 Q101.918 366.678 103.723 370.242 Q105.552 373.784 109.163 373.784 Q112.797 373.784 114.603 370.242 Q116.432 366.678 116.432 359.571 Q116.432 352.442 114.603 348.9 Q112.797 345.335 109.163 345.335 M109.163 341.631 Q114.973 341.631 118.029 346.238 Q121.107 350.821 121.107 359.571 Q121.107 368.298 118.029 372.904 Q114.973 377.488 109.163 377.488 Q103.353 377.488 100.274 372.904 Q97.2187 368.298 97.2187 359.571 Q97.2187 350.821 100.274 346.238 Q103.353 341.631 109.163 341.631 Z" fill="#000000" fill-rule="nonzero" fill-opacity="1" /><path clip-path="url(#clip350)" d="M130.135 372.881 L137.774 372.881 L137.774 346.516 L129.464 348.182 L129.464 343.923 L137.728 342.256 L142.404 342.256 L142.404 372.881 L150.043 372.881 L150.043 376.816 L130.135 376.816 L130.135 372.881 Z" fill="#000000" fill-rule="nonzero" fill-opacity="1" /><path clip-path="url(#clip350)" d="M159.533 342.256 L177.89 342.256 L177.89 346.192 L163.816 346.192 L163.816 354.664 Q164.834 354.317 165.853 354.155 Q166.871 353.969 167.89 353.969 Q173.677 353.969 177.056 357.141 Q180.436 360.312 180.436 365.729 Q180.436 371.307 176.964 374.409 Q173.491 377.488 167.172 377.488 Q164.996 377.488 162.728 377.117 Q160.482 376.747 158.075 376.006 L158.075 371.307 Q160.158 372.441 162.38 372.997 Q164.603 373.553 167.079 373.553 Q171.084 373.553 173.422 371.446 Q175.76 369.34 175.76 365.729 Q175.76 362.117 173.422 360.011 Q171.084 357.905 167.079 357.905 Q165.204 357.905 163.329 358.321 Q161.478 358.738 159.533 359.617 L159.533 342.256 Z" fill="#000000" fill-rule="nonzero" fill-opacity="1" /><path clip-path="url(#clip350)" d="M62.9365 106.449 Q59.3254 106.449 57.4967 110.014 Q55.6912 113.555 55.6912 120.685 Q55.6912 127.791 57.4967 131.356 Q59.3254 134.898 62.9365 134.898 Q66.5707 134.898 68.3763 131.356 Q70.205 127.791 70.205 120.685 Q70.205 113.555 68.3763 110.014 Q66.5707 106.449 62.9365 106.449 M62.9365 102.745 Q68.7467 102.745 71.8022 107.352 Q74.8809 111.935 74.8809 120.685 Q74.8809 129.412 71.8022 134.018 Q68.7467 138.602 62.9365 138.602 Q57.1264 138.602 54.0477 134.018 Q50.9921 129.412 50.9921 120.685 Q50.9921 111.935 54.0477 107.352 Q57.1264 102.745 62.9365 102.745 Z" fill="#000000" fill-rule="nonzero" fill-opacity="1" /><path clip-path="url(#clip350)" d="M83.0984 132.051 L87.9827 132.051 L87.9827 137.93 L83.0984 137.93 L83.0984 132.051 Z" fill="#000000" fill-rule="nonzero" fill-opacity="1" /><path clip-path="url(#clip350)" d="M108.168 106.449 Q104.557 106.449 102.728 110.014 Q100.922 113.555 100.922 120.685 Q100.922 127.791 102.728 131.356 Q104.557 134.898 108.168 134.898 Q111.802 134.898 113.608 131.356 Q115.436 127.791 115.436 120.685 Q115.436 113.555 113.608 110.014 Q111.802 106.449 108.168 106.449 M108.168 102.745 Q113.978 102.745 117.033 107.352 Q120.112 111.935 120.112 120.685 Q120.112 129.412 117.033 134.018 Q113.978 138.602 108.168 138.602 Q102.358 138.602 99.2789 134.018 Q96.2234 129.412 96.2234 120.685 Q96.2234 111.935 99.2789 107.352 Q102.358 102.745 108.168 102.745 Z" fill="#000000" fill-rule="nonzero" fill-opacity="1" /><path clip-path="url(#clip350)" d="M132.357 133.995 L148.677 133.995 L148.677 137.93 L126.732 137.93 L126.732 133.995 Q129.394 131.241 133.978 126.611 Q138.584 121.958 139.765 120.616 Q142.01 118.092 142.89 116.356 Q143.793 114.597 143.793 112.907 Q143.793 110.153 141.848 108.417 Q139.927 106.68 136.825 106.68 Q134.626 106.68 132.172 107.444 Q129.742 108.208 126.964 109.759 L126.964 105.037 Q129.788 103.903 132.242 103.324 Q134.695 102.745 136.732 102.745 Q142.103 102.745 145.297 105.43 Q148.492 108.116 148.492 112.606 Q148.492 114.736 147.681 116.657 Q146.894 118.555 144.788 121.148 Q144.209 121.819 141.107 125.037 Q138.006 128.231 132.357 133.995 Z" fill="#000000" fill-rule="nonzero" fill-opacity="1" /><path clip-path="url(#clip350)" d="M168.491 106.449 Q164.88 106.449 163.052 110.014 Q161.246 113.555 161.246 120.685 Q161.246 127.791 163.052 131.356 Q164.88 134.898 168.491 134.898 Q172.126 134.898 173.931 131.356 Q175.76 127.791 175.76 120.685 Q175.76 113.555 173.931 110.014 Q172.126 106.449 168.491 106.449 M168.491 102.745 Q174.302 102.745 177.357 107.352 Q180.436 111.935 180.436 120.685 Q180.436 129.412 177.357 134.018 Q174.302 138.602 168.491 138.602 Q162.681 138.602 159.603 134.018 Q156.547 129.412 156.547 120.685 Q156.547 111.935 159.603 107.352 Q162.681 102.745 168.491 102.745 Z" fill="#000000" fill-rule="nonzero" fill-opacity="1" /><path clip-path="url(#clip350)" d="M625.298 30.8748 L625.298 33.2186 L603.267 33.2186 Q603.579 38.1665 606.235 40.7706 Q608.918 43.3487 613.683 43.3487 Q616.444 43.3487 619.022 42.6716 Q621.626 41.9946 624.178 40.6404 L624.178 45.1716 Q621.6 46.2654 618.892 46.8383 Q616.183 47.4112 613.397 47.4112 Q606.418 47.4112 602.329 43.3487 Q598.267 39.2862 598.267 32.3592 Q598.267 25.1978 602.121 21.0051 Q606.001 16.7864 612.564 16.7864 Q618.449 16.7864 621.86 20.5884 Q625.298 24.3645 625.298 30.8748 M620.506 29.4686 Q620.454 25.5363 618.293 23.1926 Q616.157 20.8488 612.616 20.8488 Q608.605 20.8488 606.183 23.1145 Q603.788 25.3801 603.423 29.4946 L620.506 29.4686 Z" fill="#000000" fill-rule="nonzero" fill-opacity="1" /><path clip-path="url(#clip350)" d="M632.668 35.1456 L632.668 17.4895 L637.459 17.4895 L637.459 34.9634 Q637.459 39.104 639.074 41.1873 Q640.688 43.2446 643.918 43.2446 Q647.798 43.2446 650.037 40.7706 Q652.303 38.2967 652.303 34.0259 L652.303 17.4895 L657.095 17.4895 L657.095 46.656 L652.303 46.656 L652.303 42.1769 Q650.558 44.8331 648.24 46.1352 Q645.949 47.4112 642.902 47.4112 Q637.876 47.4112 635.272 44.2862 Q632.668 41.1612 632.668 35.1456 M644.725 16.7864 L644.725 16.7864 Z" fill="#000000" fill-rule="nonzero" fill-opacity="1" /><path clip-path="url(#clip350)" d="M683.865 21.9686 Q683.058 21.4999 682.094 21.2916 Q681.157 21.0572 680.011 21.0572 Q675.949 21.0572 673.761 23.7134 Q671.6 26.3436 671.6 31.2915 L671.6 46.656 L666.782 46.656 L666.782 17.4895 L671.6 17.4895 L671.6 22.0207 Q673.11 19.3645 675.532 18.0884 Q677.954 16.7864 681.417 16.7864 Q681.912 16.7864 682.511 16.8645 Q683.11 16.9166 683.839 17.0468 L683.865 21.9686 Z" fill="#000000" fill-rule="nonzero" fill-opacity="1" /><path clip-path="url(#clip350)" d="M688.891 17.4895 L693.683 17.4895 L693.683 46.656 L688.891 46.656 L688.891 17.4895 M688.891 6.13538 L693.683 6.13538 L693.683 12.2031 L688.891 12.2031 L688.891 6.13538 Z" fill="#000000" fill-rule="nonzero" fill-opacity="1" /><path clip-path="url(#clip350)" d="M724.646 32.0988 Q724.646 26.8124 722.459 23.8176 Q720.297 20.7968 716.495 20.7968 Q712.693 20.7968 710.506 23.8176 Q708.344 26.8124 708.344 32.0988 Q708.344 37.3852 710.506 40.406 Q712.693 43.4008 716.495 43.4008 Q720.297 43.4008 722.459 40.406 Q724.646 37.3852 724.646 32.0988 M708.344 21.9165 Q709.855 19.3124 712.146 18.0624 Q714.464 16.7864 717.667 16.7864 Q722.98 16.7864 726.287 21.0051 Q729.62 25.2238 729.62 32.0988 Q729.62 38.9737 726.287 43.1925 Q722.98 47.4112 717.667 47.4112 Q714.464 47.4112 712.146 46.1612 Q709.855 44.8852 708.344 42.281 L708.344 46.656 L703.527 46.656 L703.527 6.13538 L708.344 6.13538 L708.344 21.9165 Z" fill="#000000" fill-rule="nonzero" fill-opacity="1" /><path clip-path="url(#clip350)" d="M748.865 20.8488 Q745.011 20.8488 742.771 23.8697 Q740.532 26.8644 740.532 32.0988 Q740.532 37.3331 742.745 40.354 Q744.985 43.3487 748.865 43.3487 Q752.693 43.3487 754.933 40.3279 Q757.172 37.3071 757.172 32.0988 Q757.172 26.9165 754.933 23.8957 Q752.693 20.8488 748.865 20.8488 M748.865 16.7864 Q755.115 16.7864 758.683 20.8488 Q762.25 24.9113 762.25 32.0988 Q762.25 39.2602 758.683 43.3487 Q755.115 47.4112 748.865 47.4112 Q742.589 47.4112 739.021 43.3487 Q735.48 39.2602 735.48 32.0988 Q735.48 24.9113 739.021 20.8488 Q742.589 16.7864 748.865 16.7864 Z" fill="#000000" fill-rule="nonzero" fill-opacity="1" /><path clip-path="url(#clip350)" d="M787.094 21.9686 Q786.287 21.4999 785.323 21.2916 Q784.386 21.0572 783.24 21.0572 Q779.177 21.0572 776.99 23.7134 Q774.828 26.3436 774.828 31.2915 L774.828 46.656 L770.011 46.656 L770.011 17.4895 L774.828 17.4895 L774.828 22.0207 Q776.339 19.3645 778.761 18.0884 Q781.182 16.7864 784.646 16.7864 Q785.141 16.7864 785.74 16.8645 Q786.339 16.9166 787.068 17.0468 L787.094 21.9686 Z" fill="#000000" fill-rule="nonzero" fill-opacity="1" /><path clip-path="url(#clip352)" d="M243.393 997.557 L286.182 997.557 L328.972 1070.59 L371.761 1055.83 L414.55 1044.77 L457.339 1050.98 L500.129 1042.52 L542.918 1044.8 L585.707 1040.1 L628.496 984.214 L671.286 961.412 L714.075 972.15 L756.864 1018.54 L799.653 985.164 L842.443 1025.15 L885.232 1054 L928.021 1021.6 L970.811 1009.47 L1013.6 1003.08 L1056.39 975.123 L1099.18 1036.32 L1141.97 1008.06 L1141.97 890.539 L1099.18 858.247 L1056.39 854.765 L1013.6 887.63 L970.811 888.528 L928.021 897.369 L885.232 883.057 L842.443 891.027 L799.653 904.777 L756.864 918.727 L714.075 912.224 L671.286 938.202 L628.496 932.342 L585.707 904.463 L542.918 917.265 L500.129 906.906 L457.339 934.782 L414.55 941.232 L371.761 968.373 L328.972 950.732 L286.182 997.557 L243.393 997.557  Z" fill="#009af9" fill-rule="evenodd" fill-opacity="0.1"/>
<polyline clip-path="url(#clip352)" style="stroke:#009af9; stroke-linecap:round; stroke-linejoin:round; stroke-width:4; stroke-opacity:1; fill:none" points="243.393,997.557 286.182,997.557 328.972,1010.66 371.761,1012.1 414.55,992.999 457.339,992.883 500.129,974.712 542.918,981.034 585.707,972.282 628.496,958.278 671.286,949.807 714.075,942.187 756.864,968.633 799.653,944.97 842.443,958.09 885.232,968.526 928.021,959.484 970.811,949 1013.6,945.353 1056.39,914.944 1099.18,947.284 1141.97,949.298 "/>
<path clip-path="url(#clip352)" d="M243.393 997.557 L286.182 997.557 L328.972 120.65 L371.761 120.65 L414.55 120.65 L457.339 120.65 L500.129 120.65 L542.918 120.65 L585.707 120.65 L628.496 120.65 L671.286 120.65 L714.075 120.65 L756.864 120.65 L799.653 120.65 L842.443 120.65 L885.232 120.65 L928.021 120.65 L970.811 120.65 L1013.6 120.65 L1056.39 120.65 L1099.18 120.65 L1141.97 120.65 L1141.97 120.65 L1099.18 120.65 L1056.39 120.65 L1013.6 120.65 L970.811 120.65 L928.021 120.65 L885.232 120.65 L842.443 120.65 L799.653 120.65 L756.864 120.65 L714.075 120.65 L671.286 120.65 L628.496 120.65 L585.707 120.65 L542.918 120.65 L500.129 120.65 L457.339 120.65 L414.55 120.65 L371.761 120.65 L328.972 120.65 L286.182 997.557 L243.393 997.557  Z" fill="#e26f46" fill-rule="evenodd" fill-opacity="0.1"/>
<polyline clip-path="url(#clip352)" style="stroke:#e26f46; stroke-linecap:round; stroke-linejoin:round; stroke-width:4; stroke-opacity:1; fill:none" points="243.393,997.557 286.182,997.557 328.972,120.65 371.761,120.65 414.55,120.65 457.339,120.65 500.129,120.65 542.918,120.65 585.707,120.65 628.496,120.65 671.286,120.65 714.075,120.65 756.864,120.65 799.653,120.65 842.443,120.65 885.232,120.65 928.021,120.65 970.811,120.65 1013.6,120.65 1056.39,120.65 1099.18,120.65 1141.97,120.65 "/>
<path clip-path="url(#clip350)" d="M1400.27 1099.09 L2352.76 1099.09 L2352.76 92.1521 L1400.27 92.1521  Z" fill="#ffffff" fill-rule="evenodd" fill-opacity="1"/>
<defs>
  <clipPath id="clip353">
    <rect x="1400" y="92" width="953" height="1008"/>
  </clipPath>
</defs>
<polyline clip-path="url(#clip353)" style="stroke:#000000; stroke-linecap:round; stroke-linejoin:round; stroke-width:2; stroke-opacity:0.1; fill:none" points="1598.38,1099.09 1598.38,92.1521 "/>
<polyline clip-path="url(#clip353)" style="stroke:#000000; stroke-linecap:round; stroke-linejoin:round; stroke-width:2; stroke-opacity:0.1; fill:none" points="1812.33,1099.09 1812.33,92.1521 "/>
<polyline clip-path="url(#clip353)" style="stroke:#000000; stroke-linecap:round; stroke-linejoin:round; stroke-width:2; stroke-opacity:0.1; fill:none" points="2026.27,1099.09 2026.27,92.1521 "/>
<polyline clip-path="url(#clip353)" style="stroke:#000000; stroke-linecap:round; stroke-linejoin:round; stroke-width:2; stroke-opacity:0.1; fill:none" points="2240.22,1099.09 2240.22,92.1521 "/>
<polyline clip-path="url(#clip353)" style="stroke:#000000; stroke-linecap:round; stroke-linejoin:round; stroke-width:2; stroke-opacity:0.1; fill:none" points="1400.27,901.832 2352.76,901.832 "/>
<polyline clip-path="url(#clip353)" style="stroke:#000000; stroke-linecap:round; stroke-linejoin:round; stroke-width:2; stroke-opacity:0.1; fill:none" points="1400.27,698.501 2352.76,698.501 "/>
<polyline clip-path="url(#clip353)" style="stroke:#000000; stroke-linecap:round; stroke-linejoin:round; stroke-width:2; stroke-opacity:0.1; fill:none" points="1400.27,495.169 2352.76,495.169 "/>
<polyline clip-path="url(#clip353)" style="stroke:#000000; stroke-linecap:round; stroke-linejoin:round; stroke-width:2; stroke-opacity:0.1; fill:none" points="1400.27,291.838 2352.76,291.838 "/>
<polyline clip-path="url(#clip350)" style="stroke:#000000; stroke-linecap:round; stroke-linejoin:round; stroke-width:4; stroke-opacity:1; fill:none" points="1400.27,1099.09 2352.76,1099.09 "/>
<polyline clip-path="url(#clip350)" style="stroke:#000000; stroke-linecap:round; stroke-linejoin:round; stroke-width:4; stroke-opacity:1; fill:none" points="1598.38,1099.09 1598.38,1080.19 "/>
<polyline clip-path="url(#clip350)" style="stroke:#000000; stroke-linecap:round; stroke-linejoin:round; stroke-width:4; stroke-opacity:1; fill:none" points="1812.33,1099.09 1812.33,1080.19 "/>
<polyline clip-path="url(#clip350)" style="stroke:#000000; stroke-linecap:round; stroke-linejoin:round; stroke-width:4; stroke-opacity:1; fill:none" points="2026.27,1099.09 2026.27,1080.19 "/>
<polyline clip-path="url(#clip350)" style="stroke:#000000; stroke-linecap:round; stroke-linejoin:round; stroke-width:4; stroke-opacity:1; fill:none" points="2240.22,1099.09 2240.22,1080.19 "/>
<path clip-path="url(#clip350)" d="M1588.66 1126.93 L1607.02 1126.93 L1607.02 1130.86 L1592.94 1130.86 L1592.94 1139.34 Q1593.96 1138.99 1594.98 1138.83 Q1596 1138.64 1597.02 1138.64 Q1602.8 1138.64 1606.18 1141.81 Q1609.56 1144.98 1609.56 1150.4 Q1609.56 1155.98 1606.09 1159.08 Q1602.62 1162.16 1596.3 1162.16 Q1594.12 1162.16 1591.85 1161.79 Q1589.61 1161.42 1587.2 1160.68 L1587.2 1155.98 Q1589.28 1157.11 1591.51 1157.67 Q1593.73 1158.22 1596.21 1158.22 Q1600.21 1158.22 1602.55 1156.12 Q1604.89 1154.01 1604.89 1150.4 Q1604.89 1146.79 1602.55 1144.68 Q1600.21 1142.58 1596.21 1142.58 Q1594.33 1142.58 1592.46 1142.99 Q1590.6 1143.41 1588.66 1144.29 L1588.66 1126.93 Z" fill="#000000" fill-rule="nonzero" fill-opacity="1" /><path clip-path="url(#clip350)" d="M1787.02 1157.55 L1794.65 1157.55 L1794.65 1131.19 L1786.34 1132.85 L1786.34 1128.59 L1794.61 1126.93 L1799.28 1126.93 L1799.28 1157.55 L1806.92 1157.55 L1806.92 1161.49 L1787.02 1161.49 L1787.02 1157.55 Z" fill="#000000" fill-rule="nonzero" fill-opacity="1" /><path clip-path="url(#clip350)" d="M1826.37 1130.01 Q1822.76 1130.01 1820.93 1133.57 Q1819.12 1137.11 1819.12 1144.24 Q1819.12 1151.35 1820.93 1154.91 Q1822.76 1158.46 1826.37 1158.46 Q1830 1158.46 1831.81 1154.91 Q1833.64 1151.35 1833.64 1144.24 Q1833.64 1137.11 1831.81 1133.57 Q1830 1130.01 1826.37 1130.01 M1826.37 1126.3 Q1832.18 1126.3 1835.23 1130.91 Q1838.31 1135.49 1838.31 1144.24 Q1838.31 1152.97 1835.23 1157.58 Q1832.18 1162.16 1826.37 1162.16 Q1820.56 1162.16 1817.48 1157.58 Q1814.42 1152.97 1814.42 1144.24 Q1814.42 1135.49 1817.48 1130.91 Q1820.56 1126.3 1826.37 1126.3 Z" fill="#000000" fill-rule="nonzero" fill-opacity="1" /><path clip-path="url(#clip350)" d="M2001.46 1157.55 L2009.1 1157.55 L2009.1 1131.19 L2000.79 1132.85 L2000.79 1128.59 L2009.05 1126.93 L2013.73 1126.93 L2013.73 1157.55 L2021.37 1157.55 L2021.37 1161.49 L2001.46 1161.49 L2001.46 1157.55 Z" fill="#000000" fill-rule="nonzero" fill-opacity="1" /><path clip-path="url(#clip350)" d="M2030.86 1126.93 L2049.21 1126.93 L2049.21 1130.86 L2035.14 1130.86 L2035.14 1139.34 Q2036.16 1138.99 2037.18 1138.83 Q2038.2 1138.64 2039.21 1138.64 Q2045 1138.64 2048.38 1141.81 Q2051.76 1144.98 2051.76 1150.4 Q2051.76 1155.98 2048.29 1159.08 Q2044.82 1162.16 2038.5 1162.16 Q2036.32 1162.16 2034.05 1161.79 Q2031.81 1161.42 2029.4 1160.68 L2029.4 1155.98 Q2031.48 1157.11 2033.7 1157.67 Q2035.93 1158.22 2038.4 1158.22 Q2042.41 1158.22 2044.75 1156.12 Q2047.08 1154.01 2047.08 1150.4 Q2047.08 1146.79 2044.75 1144.68 Q2042.41 1142.58 2038.4 1142.58 Q2036.53 1142.58 2034.65 1142.99 Q2032.8 1143.41 2030.86 1144.29 L2030.86 1126.93 Z" fill="#000000" fill-rule="nonzero" fill-opacity="1" /><path clip-path="url(#clip350)" d="M2218.99 1157.55 L2235.31 1157.55 L2235.31 1161.49 L2213.37 1161.49 L2213.37 1157.55 Q2216.03 1154.8 2220.61 1150.17 Q2225.22 1145.52 2226.4 1144.17 Q2228.65 1141.65 2229.53 1139.91 Q2230.43 1138.15 2230.43 1136.46 Q2230.43 1133.71 2228.48 1131.97 Q2226.56 1130.24 2223.46 1130.24 Q2221.26 1130.24 2218.81 1131 Q2216.38 1131.77 2213.6 1133.32 L2213.6 1128.59 Q2216.42 1127.46 2218.88 1126.88 Q2221.33 1126.3 2223.37 1126.3 Q2228.74 1126.3 2231.93 1128.99 Q2235.13 1131.67 2235.13 1136.16 Q2235.13 1138.29 2234.32 1140.21 Q2233.53 1142.11 2231.42 1144.71 Q2230.85 1145.38 2227.74 1148.59 Q2224.64 1151.79 2218.99 1157.55 Z" fill="#000000" fill-rule="nonzero" fill-opacity="1" /><path clip-path="url(#clip350)" d="M2255.13 1130.01 Q2251.52 1130.01 2249.69 1133.57 Q2247.88 1137.11 2247.88 1144.24 Q2247.88 1151.35 2249.69 1154.91 Q2251.52 1158.46 2255.13 1158.46 Q2258.76 1158.46 2260.57 1154.91 Q2262.4 1151.35 2262.4 1144.24 Q2262.4 1137.11 2260.57 1133.57 Q2258.76 1130.01 2255.13 1130.01 M2255.13 1126.3 Q2260.94 1126.3 2263.99 1130.91 Q2267.07 1135.49 2267.07 1144.24 Q2267.07 1152.97 2263.99 1157.58 Q2260.94 1162.16 2255.13 1162.16 Q2249.32 1162.16 2246.24 1157.58 Q2243.18 1152.97 2243.18 1144.24 Q2243.18 1135.49 2246.24 1130.91 Q2249.32 1126.3 2255.13 1126.3 Z" fill="#000000" fill-rule="nonzero" fill-opacity="1" /><polyline clip-path="url(#clip350)" style="stroke:#000000; stroke-linecap:round; stroke-linejoin:round; stroke-width:4; stroke-opacity:1; fill:none" points="1400.27,1099.09 1400.27,92.1521 "/>
<polyline clip-path="url(#clip350)" style="stroke:#000000; stroke-linecap:round; stroke-linejoin:round; stroke-width:4; stroke-opacity:1; fill:none" points="1400.27,901.832 1419.16,901.832 "/>
<polyline clip-path="url(#clip350)" style="stroke:#000000; stroke-linecap:round; stroke-linejoin:round; stroke-width:4; stroke-opacity:1; fill:none" points="1400.27,698.501 1419.16,698.501 "/>
<polyline clip-path="url(#clip350)" style="stroke:#000000; stroke-linecap:round; stroke-linejoin:round; stroke-width:4; stroke-opacity:1; fill:none" points="1400.27,495.169 1419.16,495.169 "/>
<polyline clip-path="url(#clip350)" style="stroke:#000000; stroke-linecap:round; stroke-linejoin:round; stroke-width:4; stroke-opacity:1; fill:none" points="1400.27,291.838 1419.16,291.838 "/>
<path clip-path="url(#clip350)" d="M1269.34 915.177 L1276.98 915.177 L1276.98 888.811 L1268.67 890.478 L1268.67 886.218 L1276.93 884.552 L1281.61 884.552 L1281.61 915.177 L1289.24 915.177 L1289.24 919.112 L1269.34 919.112 L1269.34 915.177 Z" fill="#000000" fill-rule="nonzero" fill-opacity="1" /><path clip-path="url(#clip350)" d="M1298.69 913.232 L1303.57 913.232 L1303.57 919.112 L1298.69 919.112 L1298.69 913.232 Z" fill="#000000" fill-rule="nonzero" fill-opacity="1" /><path clip-path="url(#clip350)" d="M1323.76 887.63 Q1320.15 887.63 1318.32 891.195 Q1316.51 894.737 1316.51 901.866 Q1316.51 908.973 1318.32 912.538 Q1320.15 916.079 1323.76 916.079 Q1327.39 916.079 1329.2 912.538 Q1331.03 908.973 1331.03 901.866 Q1331.03 894.737 1329.2 891.195 Q1327.39 887.63 1323.76 887.63 M1323.76 883.927 Q1329.57 883.927 1332.62 888.533 Q1335.7 893.117 1335.7 901.866 Q1335.7 910.593 1332.62 915.2 Q1329.57 919.783 1323.76 919.783 Q1317.95 919.783 1314.87 915.2 Q1311.81 910.593 1311.81 901.866 Q1311.81 893.117 1314.87 888.533 Q1317.95 883.927 1323.76 883.927 Z" fill="#000000" fill-rule="nonzero" fill-opacity="1" /><path clip-path="url(#clip350)" d="M1347.95 915.177 L1364.27 915.177 L1364.27 919.112 L1342.32 919.112 L1342.32 915.177 Q1344.98 912.422 1349.57 907.792 Q1354.17 903.14 1355.35 901.797 Q1357.6 899.274 1358.48 897.538 Q1359.38 895.779 1359.38 894.089 Q1359.38 891.334 1357.44 889.598 Q1355.52 887.862 1352.42 887.862 Q1350.22 887.862 1347.76 888.626 Q1345.33 889.39 1342.55 890.941 L1342.55 886.218 Q1345.38 885.084 1347.83 884.505 Q1350.29 883.927 1352.32 883.927 Q1357.69 883.927 1360.89 886.612 Q1364.08 889.297 1364.08 893.788 Q1364.08 895.917 1363.27 897.839 Q1362.48 899.737 1360.38 902.329 Q1359.8 903.001 1356.7 906.218 Q1353.6 909.413 1347.95 915.177 Z" fill="#000000" fill-rule="nonzero" fill-opacity="1" /><path clip-path="url(#clip350)" d="M1268.74 711.845 L1276.37 711.845 L1276.37 685.48 L1268.06 687.146 L1268.06 682.887 L1276.33 681.221 L1281 681.221 L1281 711.845 L1288.64 711.845 L1288.64 715.781 L1268.74 715.781 L1268.74 711.845 Z" fill="#000000" fill-rule="nonzero" fill-opacity="1" /><path clip-path="url(#clip350)" d="M1298.09 709.901 L1302.97 709.901 L1302.97 715.781 L1298.09 715.781 L1298.09 709.901 Z" fill="#000000" fill-rule="nonzero" fill-opacity="1" /><path clip-path="url(#clip350)" d="M1323.16 684.299 Q1319.54 684.299 1317.72 687.864 Q1315.91 691.406 1315.91 698.535 Q1315.91 705.642 1317.72 709.206 Q1319.54 712.748 1323.16 712.748 Q1326.79 712.748 1328.6 709.206 Q1330.42 705.642 1330.42 698.535 Q1330.42 691.406 1328.6 687.864 Q1326.79 684.299 1323.16 684.299 M1323.16 680.596 Q1328.97 680.596 1332.02 685.202 Q1335.1 689.785 1335.1 698.535 Q1335.1 707.262 1332.02 711.869 Q1328.97 716.452 1323.16 716.452 Q1317.35 716.452 1314.27 711.869 Q1311.21 707.262 1311.21 698.535 Q1311.21 689.785 1314.27 685.202 Q1317.35 680.596 1323.16 680.596 Z" fill="#000000" fill-rule="nonzero" fill-opacity="1" /><path clip-path="url(#clip350)" d="M1343.36 681.221 L1361.72 681.221 L1361.72 685.156 L1347.65 685.156 L1347.65 693.628 Q1348.67 693.281 1349.68 693.119 Q1350.7 692.933 1351.72 692.933 Q1357.51 692.933 1360.89 696.105 Q1364.27 699.276 1364.27 704.693 Q1364.27 710.271 1360.79 713.373 Q1357.32 716.452 1351 716.452 Q1348.83 716.452 1346.56 716.081 Q1344.31 715.711 1341.91 714.97 L1341.91 710.271 Q1343.99 711.406 1346.21 711.961 Q1348.43 712.517 1350.91 712.517 Q1354.92 712.517 1357.25 710.41 Q1359.59 708.304 1359.59 704.693 Q1359.59 701.082 1357.25 698.975 Q1354.92 696.869 1350.91 696.869 Q1349.04 696.869 1347.16 697.285 Q1345.31 697.702 1343.36 698.582 L1343.36 681.221 Z" fill="#000000" fill-rule="nonzero" fill-opacity="1" /><path clip-path="url(#clip350)" d="M1267.83 508.514 L1275.47 508.514 L1275.47 482.149 L1267.16 483.815 L1267.16 479.556 L1275.42 477.889 L1280.1 477.889 L1280.1 508.514 L1287.74 508.514 L1287.74 512.449 L1267.83 512.449 L1267.83 508.514 Z" fill="#000000" fill-rule="nonzero" fill-opacity="1" /><path clip-path="url(#clip350)" d="M1297.18 506.57 L1302.07 506.57 L1302.07 512.449 L1297.18 512.449 L1297.18 506.57 Z" fill="#000000" fill-rule="nonzero" fill-opacity="1" /><path clip-path="url(#clip350)" d="M1322.25 480.968 Q1318.64 480.968 1316.81 484.533 Q1315.01 488.074 1315.01 495.204 Q1315.01 502.31 1316.81 505.875 Q1318.64 509.417 1322.25 509.417 Q1325.89 509.417 1327.69 505.875 Q1329.52 502.31 1329.52 495.204 Q1329.52 488.074 1327.69 484.533 Q1325.89 480.968 1322.25 480.968 M1322.25 477.264 Q1328.06 477.264 1331.12 481.871 Q1334.2 486.454 1334.2 495.204 Q1334.2 503.931 1331.12 508.537 Q1328.06 513.121 1322.25 513.121 Q1316.44 513.121 1313.36 508.537 Q1310.31 503.931 1310.31 495.204 Q1310.31 486.454 1313.36 481.871 Q1316.44 477.264 1322.25 477.264 Z" fill="#000000" fill-rule="nonzero" fill-opacity="1" /><path clip-path="url(#clip350)" d="M1352.42 496.037 Q1349.08 496.037 1347.16 497.82 Q1345.26 499.602 1345.26 502.727 Q1345.26 505.852 1347.16 507.635 Q1349.08 509.417 1352.42 509.417 Q1355.75 509.417 1357.67 507.635 Q1359.59 505.829 1359.59 502.727 Q1359.59 499.602 1357.67 497.82 Q1355.77 496.037 1352.42 496.037 M1347.74 494.047 Q1344.73 493.306 1343.04 491.246 Q1341.37 489.186 1341.37 486.223 Q1341.37 482.079 1344.31 479.672 Q1347.28 477.264 1352.42 477.264 Q1357.58 477.264 1360.52 479.672 Q1363.46 482.079 1363.46 486.223 Q1363.46 489.186 1361.77 491.246 Q1360.1 493.306 1357.11 494.047 Q1360.49 494.834 1362.37 497.125 Q1364.27 499.417 1364.27 502.727 Q1364.27 507.75 1361.19 510.435 Q1358.13 513.121 1352.42 513.121 Q1346.7 513.121 1343.62 510.435 Q1340.56 507.75 1340.56 502.727 Q1340.56 499.417 1342.46 497.125 Q1344.36 494.834 1347.74 494.047 M1346.03 486.662 Q1346.03 489.348 1347.69 490.852 Q1349.38 492.357 1352.42 492.357 Q1355.42 492.357 1357.11 490.852 Q1358.83 489.348 1358.83 486.662 Q1358.83 483.977 1357.11 482.473 Q1355.42 480.968 1352.42 480.968 Q1349.38 480.968 1347.69 482.473 Q1346.03 483.977 1346.03 486.662 Z" fill="#000000" fill-rule="nonzero" fill-opacity="1" /><path clip-path="url(#clip350)" d="M1268.97 305.183 L1276.61 305.183 L1276.61 278.817 L1268.3 280.484 L1268.3 276.225 L1276.56 274.558 L1281.24 274.558 L1281.24 305.183 L1288.87 305.183 L1288.87 309.118 L1268.97 309.118 L1268.97 305.183 Z" fill="#000000" fill-rule="nonzero" fill-opacity="1" /><path clip-path="url(#clip350)" d="M1298.32 303.238 L1303.2 303.238 L1303.2 309.118 L1298.32 309.118 L1298.32 303.238 Z" fill="#000000" fill-rule="nonzero" fill-opacity="1" /><path clip-path="url(#clip350)" d="M1314.2 305.183 L1321.84 305.183 L1321.84 278.817 L1313.53 280.484 L1313.53 276.225 L1321.79 274.558 L1326.47 274.558 L1326.47 305.183 L1334.11 305.183 L1334.11 309.118 L1314.2 309.118 L1314.2 305.183 Z" fill="#000000" fill-rule="nonzero" fill-opacity="1" /><path clip-path="url(#clip350)" d="M1344.36 305.183 L1352 305.183 L1352 278.817 L1343.69 280.484 L1343.69 276.225 L1351.95 274.558 L1356.63 274.558 L1356.63 305.183 L1364.27 305.183 L1364.27 309.118 L1344.36 309.118 L1344.36 305.183 Z" fill="#000000" fill-rule="nonzero" fill-opacity="1" /><path clip-path="url(#clip350)" d="M1735.8 31.7342 Q1735.8 26.5259 1733.63 23.6613 Q1731.5 20.7968 1727.62 20.7968 Q1723.76 20.7968 1721.6 23.6613 Q1719.47 26.5259 1719.47 31.7342 Q1719.47 36.9165 1721.6 39.781 Q1723.76 42.6456 1727.62 42.6456 Q1731.5 42.6456 1733.63 39.781 Q1735.8 36.9165 1735.8 31.7342 M1740.59 43.0362 Q1740.59 50.4841 1737.28 54.1039 Q1733.97 57.7497 1727.15 57.7497 Q1724.62 57.7497 1722.38 57.3591 Q1720.15 56.9945 1718.04 56.2132 L1718.04 51.5518 Q1720.15 52.6976 1722.2 53.2445 Q1724.26 53.7914 1726.4 53.7914 Q1731.11 53.7914 1733.45 51.3174 Q1735.8 48.8695 1735.8 43.8956 L1735.8 41.5258 Q1734.31 44.1039 1731.99 45.38 Q1729.68 46.656 1726.45 46.656 Q1721.08 46.656 1717.8 42.5675 Q1714.52 38.479 1714.52 31.7342 Q1714.52 24.9634 1717.8 20.8749 Q1721.08 16.7864 1726.45 16.7864 Q1729.68 16.7864 1731.99 18.0624 Q1734.31 19.3384 1735.8 21.9165 L1735.8 17.4895 L1740.59 17.4895 L1740.59 43.0362 Z" fill="#000000" fill-rule="nonzero" fill-opacity="1" /><path clip-path="url(#clip350)" d="M1769.65 21.9165 L1769.65 6.13538 L1774.44 6.13538 L1774.44 46.656 L1769.65 46.656 L1769.65 42.281 Q1768.14 44.8852 1765.82 46.1612 Q1763.53 47.4112 1760.3 47.4112 Q1755.01 47.4112 1751.68 43.1925 Q1748.37 38.9737 1748.37 32.0988 Q1748.37 25.2238 1751.68 21.0051 Q1755.01 16.7864 1760.3 16.7864 Q1763.53 16.7864 1765.82 18.0624 Q1768.14 19.3124 1769.65 21.9165 M1753.32 32.0988 Q1753.32 37.3852 1755.48 40.406 Q1757.67 43.4008 1761.47 43.4008 Q1765.28 43.4008 1767.46 40.406 Q1769.65 37.3852 1769.65 32.0988 Q1769.65 26.8124 1767.46 23.8176 Q1765.28 20.7968 1761.47 20.7968 Q1757.67 20.7968 1755.48 23.8176 Q1753.32 26.8124 1753.32 32.0988 Z" fill="#000000" fill-rule="nonzero" fill-opacity="1" /><path clip-path="url(#clip350)" d="M1788.95 42.281 L1788.95 57.7497 L1784.13 57.7497 L1784.13 17.4895 L1788.95 17.4895 L1788.95 21.9165 Q1790.46 19.3124 1792.75 18.0624 Q1795.07 16.7864 1798.27 16.7864 Q1803.58 16.7864 1806.89 21.0051 Q1810.22 25.2238 1810.22 32.0988 Q1810.22 38.9737 1806.89 43.1925 Q1803.58 47.4112 1798.27 47.4112 Q1795.07 47.4112 1792.75 46.1612 Q1790.46 44.8852 1788.95 42.281 M1805.25 32.0988 Q1805.25 26.8124 1803.06 23.8176 Q1800.9 20.7968 1797.1 20.7968 Q1793.3 20.7968 1791.11 23.8176 Q1788.95 26.8124 1788.95 32.0988 Q1788.95 37.3852 1791.11 40.406 Q1793.3 43.4008 1797.1 43.4008 Q1800.9 43.4008 1803.06 40.406 Q1805.25 37.3852 1805.25 32.0988 Z" fill="#000000" fill-rule="nonzero" fill-opacity="1" /><path clip-path="url(#clip350)" d="M1854.31 21.9165 L1854.31 6.13538 L1859.1 6.13538 L1859.1 46.656 L1854.31 46.656 L1854.31 42.281 Q1852.8 44.8852 1850.48 46.1612 Q1848.19 47.4112 1844.96 47.4112 Q1839.68 47.4112 1836.34 43.1925 Q1833.04 38.9737 1833.04 32.0988 Q1833.04 25.2238 1836.34 21.0051 Q1839.68 16.7864 1844.96 16.7864 Q1848.19 16.7864 1850.48 18.0624 Q1852.8 19.3124 1854.31 21.9165 M1837.98 32.0988 Q1837.98 37.3852 1840.14 40.406 Q1842.33 43.4008 1846.13 43.4008 Q1849.94 43.4008 1852.12 40.406 Q1854.31 37.3852 1854.31 32.0988 Q1854.31 26.8124 1852.12 23.8176 Q1849.94 20.7968 1846.13 20.7968 Q1842.33 20.7968 1840.14 23.8176 Q1837.98 26.8124 1837.98 32.0988 Z" fill="#000000" fill-rule="nonzero" fill-opacity="1" /><path clip-path="url(#clip350)" d="M1893.92 30.8748 L1893.92 33.2186 L1871.89 33.2186 Q1872.2 38.1665 1874.86 40.7706 Q1877.54 43.3487 1882.31 43.3487 Q1885.07 43.3487 1887.64 42.6716 Q1890.25 41.9946 1892.8 40.6404 L1892.8 45.1716 Q1890.22 46.2654 1887.51 46.8383 Q1884.81 47.4112 1882.02 47.4112 Q1875.04 47.4112 1870.95 43.3487 Q1866.89 39.2862 1866.89 32.3592 Q1866.89 25.1978 1870.74 21.0051 Q1874.62 16.7864 1881.19 16.7864 Q1887.07 16.7864 1890.48 20.5884 Q1893.92 24.3645 1893.92 30.8748 M1889.13 29.4686 Q1889.08 25.5363 1886.92 23.1926 Q1884.78 20.8488 1881.24 20.8488 Q1877.23 20.8488 1874.81 23.1145 Q1872.41 25.3801 1872.05 29.4946 L1889.13 29.4686 Z" fill="#000000" fill-rule="nonzero" fill-opacity="1" /><path clip-path="url(#clip350)" d="M1916.55 6.13538 L1916.55 10.1197 L1911.97 10.1197 Q1909.39 10.1197 1908.37 11.1614 Q1907.38 12.2031 1907.38 14.9114 L1907.38 17.4895 L1915.27 17.4895 L1915.27 21.2134 L1907.38 21.2134 L1907.38 46.656 L1902.57 46.656 L1902.57 21.2134 L1897.98 21.2134 L1897.98 17.4895 L1902.57 17.4895 L1902.57 15.4583 Q1902.57 10.5885 1904.83 8.37496 Q1907.1 6.13538 1912.02 6.13538 L1916.55 6.13538 Z" fill="#000000" fill-rule="nonzero" fill-opacity="1" /><path clip-path="url(#clip350)" d="M1920.56 6.13538 L1925.35 6.13538 L1925.35 46.656 L1920.56 46.656 L1920.56 6.13538 Z" fill="#000000" fill-rule="nonzero" fill-opacity="1" /><path clip-path="url(#clip350)" d="M1948.63 31.9946 Q1942.83 31.9946 1940.59 33.3227 Q1938.35 34.6509 1938.35 37.854 Q1938.35 40.406 1940.01 41.9164 Q1941.71 43.4008 1944.6 43.4008 Q1948.58 43.4008 1950.98 40.5883 Q1953.4 37.7498 1953.4 33.0623 L1953.4 31.9946 L1948.63 31.9946 M1958.19 30.0155 L1958.19 46.656 L1953.4 46.656 L1953.4 42.2289 Q1951.76 44.8852 1949.31 46.1612 Q1946.86 47.4112 1943.32 47.4112 Q1938.84 47.4112 1936.19 44.9112 Q1933.56 42.3852 1933.56 38.1665 Q1933.56 33.2446 1936.84 30.7446 Q1940.14 28.2446 1946.68 28.2446 L1953.4 28.2446 L1953.4 27.7759 Q1953.4 24.4686 1951.21 22.6718 Q1949.05 20.8488 1945.12 20.8488 Q1942.62 20.8488 1940.25 21.4478 Q1937.88 22.0468 1935.69 23.2447 L1935.69 18.8176 Q1938.32 17.802 1940.79 17.3072 Q1943.27 16.7864 1945.61 16.7864 Q1951.94 16.7864 1955.07 20.0676 Q1958.19 23.3488 1958.19 30.0155 Z" fill="#000000" fill-rule="nonzero" fill-opacity="1" /><path clip-path="url(#clip350)" d="M1972.8 9.20828 L1972.8 17.4895 L1982.67 17.4895 L1982.67 21.2134 L1972.8 21.2134 L1972.8 37.0467 Q1972.8 40.6144 1973.76 41.63 Q1974.75 42.6456 1977.75 42.6456 L1982.67 42.6456 L1982.67 46.656 L1977.75 46.656 Q1972.2 46.656 1970.09 44.5987 Q1967.98 42.5154 1967.98 37.0467 L1967.98 21.2134 L1964.47 21.2134 L1964.47 17.4895 L1967.98 17.4895 L1967.98 9.20828 L1972.8 9.20828 Z" fill="#000000" fill-rule="nonzero" fill-opacity="1" /><path clip-path="url(#clip350)" d="M2000.27 20.8488 Q1996.42 20.8488 1994.18 23.8697 Q1991.94 26.8644 1991.94 32.0988 Q1991.94 37.3331 1994.15 40.354 Q1996.39 43.3487 2000.27 43.3487 Q2004.1 43.3487 2006.34 40.3279 Q2008.58 37.3071 2008.58 32.0988 Q2008.58 26.9165 2006.34 23.8957 Q2004.1 20.8488 2000.27 20.8488 M2000.27 16.7864 Q2006.52 16.7864 2010.09 20.8488 Q2013.66 24.9113 2013.66 32.0988 Q2013.66 39.2602 2010.09 43.3487 Q2006.52 47.4112 2000.27 47.4112 Q1994 47.4112 1990.43 43.3487 Q1986.89 39.2602 1986.89 32.0988 Q1986.89 24.9113 1990.43 20.8488 Q1994 16.7864 2000.27 16.7864 Z" fill="#000000" fill-rule="nonzero" fill-opacity="1" /><path clip-path="url(#clip350)" d="M2038.5 21.9686 Q2037.7 21.4999 2036.73 21.2916 Q2035.79 21.0572 2034.65 21.0572 Q2030.59 21.0572 2028.4 23.7134 Q2026.24 26.3436 2026.24 31.2915 L2026.24 46.656 L2021.42 46.656 L2021.42 17.4895 L2026.24 17.4895 L2026.24 22.0207 Q2027.75 19.3645 2030.17 18.0884 Q2032.59 16.7864 2036.05 16.7864 Q2036.55 16.7864 2037.15 16.8645 Q2037.75 16.9166 2038.48 17.0468 L2038.5 21.9686 Z" fill="#000000" fill-rule="nonzero" fill-opacity="1" /><path clip-path="url(#clip353)" d="M1512.8 1050.86 L1555.59 1046.6 L1598.38 972.606 L1641.17 956.483 L1683.96 924.704 L1726.75 879.29 L1769.54 855.417 L1812.33 834.191 L1855.12 819.625 L1897.91 799.861 L1940.7 796.48 L1983.48 824.092 L2026.27 820.692 L2069.06 760.43 L2111.85 690.325 L2154.64 614.272 L2197.43 602.663 L2240.22 614.927 L2283.01 605.672 L2325.8 595.999 L2325.8 190.29 L2283.01 230.52 L2240.22 299.295 L2197.43 353.675 L2154.64 343.429 L2111.85 369.602 L2069.06 332.912 L2026.27 387.16 L1983.48 425.801 L1940.7 459.335 L1897.91 509.359 L1855.12 586.656 L1812.33 609.421 L1769.54 642.036 L1726.75 689.86 L1683.96 742.064 L1641.17 807.05 L1598.38 855.782 L1555.59 900.11 L1512.8 967.303  Z" fill="#009af9" fill-rule="evenodd" fill-opacity="0.1"/>
<polyline clip-path="url(#clip353)" style="stroke:#009af9; stroke-linecap:round; stroke-linejoin:round; stroke-width:4; stroke-opacity:1; fill:none" points="1512.8,1009.08 1555.59,973.355 1598.38,914.194 1641.17,881.766 1683.96,833.384 1726.75,784.575 1769.54,748.726 1812.33,721.806 1855.12,703.141 1897.91,654.61 1940.7,627.907 1983.48,624.947 2026.27,603.926 2069.06,546.671 2111.85,529.964 2154.64,478.85 2197.43,478.169 2240.22,457.111 2283.01,418.096 2325.8,393.145 "/>
<path clip-path="url(#clip353)" d="M1512.8 1070.59 L1555.59 1038.41 L1598.38 1041.75 L1641.17 981.939 L1683.96 926.788 L1726.75 937.914 L1769.54 936.15 L1812.33 948.46 L1855.12 905.643 L1897.91 903.747 L1940.7 881.404 L1983.48 858.571 L2026.27 814.679 L2069.06 786.509 L2111.85 768.495 L2154.64 744.589 L2197.43 706.633 L2240.22 642.398 L2283.01 607.192 L2325.8 590.262 L2325.8 120.65 L2283.01 212.937 L2240.22 334.71 L2197.43 416.199 L2154.64 443.318 L2111.85 471.392 L2069.06 469.886 L2026.27 484.318 L1983.48 509.546 L1940.7 555.45 L1897.91 605.953 L1855.12 670.029 L1812.33 744.156 L1769.54 809.553 L1726.75 879.3 L1683.96 909.467 L1641.17 890.054 L1598.38 896.624 L1555.59 951.757 L1512.8 981.551  Z" fill="#e26f46" fill-rule="evenodd" fill-opacity="0.1"/>
<polyline clip-path="url(#clip353)" style="stroke:#e26f46; stroke-linecap:round; stroke-linejoin:round; stroke-width:4; stroke-opacity:1; fill:none" points="1512.8,1026.07 1555.59,995.084 1598.38,969.188 1641.17,935.997 1683.96,918.128 1726.75,908.607 1769.54,872.851 1812.33,846.308 1855.12,787.836 1897.91,754.85 1940.7,718.427 1983.48,684.058 2026.27,649.499 2069.06,628.198 2111.85,619.943 2154.64,593.953 2197.43,561.416 2240.22,488.554 2283.01,410.064 2325.8,355.456 "/>
</svg>
