<?xml version="1.0" encoding="utf-8"?>
<svg xmlns="http://www.w3.org/2000/svg" xmlns:xlink="http://www.w3.org/1999/xlink" width="600" height="300" viewBox="0 0 2400 1200">
<defs>
  <clipPath id="clip970">
    <rect x="0" y="0" width="2400" height="1200"/>
  </clipPath>
</defs>
<path clip-path="url(#clip970)" d="M0 1200 L2400 1200 L2400 0 L0 0  Z" fill="#ffffff" fill-rule="evenodd" fill-opacity="1"/>
<defs>
  <clipPath id="clip971">
    <rect x="480" y="0" width="1681" height="1200"/>
  </clipPath>
</defs>
<path clip-path="url(#clip970)" d="M216.436 1099.09 L1153.8 1099.09 L1153.8 92.1521 L216.436 92.1521  Z" fill="#ffffff" fill-rule="evenodd" fill-opacity="1"/>
<defs>
  <clipPath id="clip972">
    <rect x="216" y="92" width="938" height="1008"/>
  </clipPath>
</defs>
<polyline clip-path="url(#clip972)" style="stroke:#000000; stroke-linecap:round; stroke-linejoin:round; stroke-width:2; stroke-opacity:0.1; fill:none" points="411.404,1099.09 411.404,92.1521 "/>
<polyline clip-path="url(#clip972)" style="stroke:#000000; stroke-linecap:round; stroke-linejoin:round; stroke-width:2; stroke-opacity:0.1; fill:none" points="621.952,1099.09 621.952,92.1521 "/>
<polyline clip-path="url(#clip972)" style="stroke:#000000; stroke-linecap:round; stroke-linejoin:round; stroke-width:2; stroke-opacity:0.1; fill:none" points="832.501,1099.09 832.501,92.1521 "/>
<polyline clip-path="url(#clip972)" style="stroke:#000000; stroke-linecap:round; stroke-linejoin:round; stroke-width:2; stroke-opacity:0.1; fill:none" points="1043.05,1099.09 1043.05,92.1521 "/>
<polyline clip-path="url(#clip972)" style="stroke:#000000; stroke-linecap:round; stroke-linejoin:round; stroke-width:2; stroke-opacity:0.1; fill:none" points="216.436,872.114 1153.8,872.114 "/>
<polyline clip-path="url(#clip972)" style="stroke:#000000; stroke-linecap:round; stroke-linejoin:round; stroke-width:2; stroke-opacity:0.1; fill:none" points="216.436,621.626 1153.8,621.626 "/>
<polyline clip-path="url(#clip972)" style="stroke:#000000; stroke-linecap:round; stroke-linejoin:round; stroke-width:2; stroke-opacity:0.1; fill:none" points="216.436,371.138 1153.8,371.138 "/>
<polyline clip-path="url(#clip972)" style="stroke:#000000; stroke-linecap:round; stroke-linejoin:round; stroke-width:2; stroke-opacity:0.1; fill:none" points="216.436,120.65 1153.8,120.65 "/>
<polyline clip-path="url(#clip970)" style="stroke:#000000; stroke-linecap:round; stroke-linejoin:round; stroke-width:4; stroke-opacity:1; fill:none" points="216.436,1099.09 1153.8,1099.09 "/>
<polyline clip-path="url(#clip970)" style="stroke:#000000; stroke-linecap:round; stroke-linejoin:round; stroke-width:4; stroke-opacity:1; fill:none" points="411.404,1099.09 411.404,1080.19 "/>
<polyline clip-path="url(#clip970)" style="stroke:#000000; stroke-linecap:round; stroke-linejoin:round; stroke-width:4; stroke-opacity:1; fill:none" points="621.952,1099.09 621.952,1080.19 "/>
<polyline clip-path="url(#clip970)" style="stroke:#000000; stroke-linecap:round; stroke-linejoin:round; stroke-width:4; stroke-opacity:1; fill:none" points="832.501,1099.09 832.501,1080.19 "/>
<polyline clip-path="url(#clip970)" style="stroke:#000000; stroke-linecap:round; stroke-linejoin:round; stroke-width:4; stroke-opacity:1; fill:none" points="1043.05,1099.09 1043.05,1080.19 "/>
<path clip-path="url(#clip970)" d="M401.682 1126.93 L420.038 1126.93 L420.038 1130.86 L405.964 1130.86 L405.964 1139.34 Q406.982 1138.99 408.001 1138.83 Q409.019 1138.64 410.038 1138.64 Q415.825 1138.64 419.205 1141.81 Q422.584 1144.98 422.584 1150.4 Q422.584 1155.98 419.112 1159.08 Q415.64 1162.16 409.32 1162.16 Q407.145 1162.16 404.876 1161.79 Q402.631 1161.42 400.223 1160.68 L400.223 1155.98 Q402.307 1157.11 404.529 1157.67 Q406.751 1158.22 409.228 1158.22 Q413.232 1158.22 415.57 1156.12 Q417.908 1154.01 417.908 1150.4 Q417.908 1146.79 415.57 1144.68 Q413.232 1142.58 409.228 1142.58 Q407.353 1142.58 405.478 1142.99 Q403.626 1143.41 401.682 1144.29 L401.682 1126.93 Z" fill="#000000" fill-rule="nonzero" fill-opacity="1" /><path clip-path="url(#clip970)" d="M596.64 1157.55 L604.279 1157.55 L604.279 1131.19 L595.969 1132.85 L595.969 1128.59 L604.232 1126.93 L608.908 1126.93 L608.908 1157.55 L616.547 1157.55 L616.547 1161.49 L596.64 1161.49 L596.64 1157.55 Z" fill="#000000" fill-rule="nonzero" fill-opacity="1" /><path clip-path="url(#clip970)" d="M635.991 1130.01 Q632.38 1130.01 630.552 1133.57 Q628.746 1137.11 628.746 1144.24 Q628.746 1151.35 630.552 1154.91 Q632.38 1158.46 635.991 1158.46 Q639.626 1158.46 641.431 1154.91 Q643.26 1151.35 643.26 1144.24 Q643.26 1137.11 641.431 1133.57 Q639.626 1130.01 635.991 1130.01 M635.991 1126.3 Q641.802 1126.3 644.857 1130.91 Q647.936 1135.49 647.936 1144.24 Q647.936 1152.97 644.857 1157.58 Q641.802 1162.16 635.991 1162.16 Q630.181 1162.16 627.103 1157.58 Q624.047 1152.97 624.047 1144.24 Q624.047 1135.49 627.103 1130.91 Q630.181 1126.3 635.991 1126.3 Z" fill="#000000" fill-rule="nonzero" fill-opacity="1" /><path clip-path="url(#clip970)" d="M807.686 1157.55 L815.325 1157.55 L815.325 1131.19 L807.015 1132.85 L807.015 1128.59 L815.279 1126.93 L819.954 1126.93 L819.954 1157.55 L827.593 1157.55 L827.593 1161.49 L807.686 1161.49 L807.686 1157.55 Z" fill="#000000" fill-rule="nonzero" fill-opacity="1" /><path clip-path="url(#clip970)" d="M837.084 1126.93 L855.44 1126.93 L855.44 1130.86 L841.366 1130.86 L841.366 1139.34 Q842.385 1138.99 843.403 1138.83 Q844.422 1138.64 845.44 1138.64 Q851.227 1138.64 854.607 1141.81 Q857.987 1144.98 857.987 1150.4 Q857.987 1155.98 854.514 1159.08 Q851.042 1162.16 844.723 1162.16 Q842.547 1162.16 840.278 1161.79 Q838.033 1161.42 835.626 1160.68 L835.626 1155.98 Q837.709 1157.11 839.931 1157.67 Q842.153 1158.22 844.63 1158.22 Q848.635 1158.22 850.973 1156.12 Q853.311 1154.01 853.311 1150.4 Q853.311 1146.79 850.973 1144.68 Q848.635 1142.58 844.63 1142.58 Q842.755 1142.58 840.88 1142.99 Q839.028 1143.41 837.084 1144.29 L837.084 1126.93 Z" fill="#000000" fill-rule="nonzero" fill-opacity="1" /><path clip-path="url(#clip970)" d="M1021.82 1157.55 L1038.14 1157.55 L1038.14 1161.49 L1016.2 1161.49 L1016.2 1157.55 Q1018.86 1154.8 1023.44 1150.17 Q1028.05 1145.52 1029.23 1144.17 Q1031.48 1141.65 1032.35 1139.91 Q1033.26 1138.15 1033.26 1136.46 Q1033.26 1133.71 1031.31 1131.97 Q1029.39 1130.24 1026.29 1130.24 Q1024.09 1130.24 1021.64 1131 Q1019.21 1131.77 1016.43 1133.32 L1016.43 1128.59 Q1019.25 1127.46 1021.71 1126.88 Q1024.16 1126.3 1026.2 1126.3 Q1031.57 1126.3 1034.76 1128.99 Q1037.96 1131.67 1037.96 1136.16 Q1037.96 1138.29 1037.15 1140.21 Q1036.36 1142.11 1034.25 1144.71 Q1033.67 1145.38 1030.57 1148.59 Q1027.47 1151.79 1021.82 1157.55 Z" fill="#000000" fill-rule="nonzero" fill-opacity="1" /><path clip-path="url(#clip970)" d="M1057.96 1130.01 Q1054.35 1130.01 1052.52 1133.57 Q1050.71 1137.11 1050.71 1144.24 Q1050.71 1151.35 1052.52 1154.91 Q1054.35 1158.46 1057.96 1158.46 Q1061.59 1158.46 1063.4 1154.91 Q1065.22 1151.35 1065.22 1144.24 Q1065.22 1137.11 1063.4 1133.57 Q1061.59 1130.01 1057.96 1130.01 M1057.96 1126.3 Q1063.77 1126.3 1066.82 1130.91 Q1069.9 1135.49 1069.9 1144.24 Q1069.9 1152.97 1066.82 1157.58 Q1063.77 1162.16 1057.96 1162.16 Q1052.15 1162.16 1049.07 1157.58 Q1046.01 1152.97 1046.01 1144.24 Q1046.01 1135.49 1049.07 1130.91 Q1052.15 1126.3 1057.96 1126.3 Z" fill="#000000" fill-rule="nonzero" fill-opacity="1" /><polyline clip-path="url(#clip970)" style="stroke:#000000; stroke-linecap:round; stroke-linejoin:round; stroke-width:4; stroke-opacity:1; fill:none" points="216.436,1099.09 216.436,92.1521 "/>
<polyline clip-path="url(#clip970)" style="stroke:#000000; stroke-linecap:round; stroke-linejoin:round; stroke-width:4; stroke-opacity:1; fill:none" points="216.436,872.114 235.334,872.114 "/>
<polyline clip-path="url(#clip970)" style="stroke:#000000; stroke-linecap:round; stroke-linejoin:round; stroke-width:4; stroke-opacity:1; fill:none" points="216.436,621.626 235.334,621.626 "/>
<polyline clip-path="url(#clip970)" style="stroke:#000000; stroke-linecap:round; stroke-linejoin:round; stroke-width:4; stroke-opacity:1; fill:none" points="216.436,371.138 235.334,371.138 "/>
<polyline clip-path="url(#clip970)" style="stroke:#000000; stroke-linecap:round; stroke-linejoin:round; stroke-width:4; stroke-opacity:1; fill:none" points="216.436,120.65 235.334,120.65 "/>
<path clip-path="url(#clip970)" d="M63.9319 857.912 Q60.3208 857.912 58.4921 861.477 Q56.6865 865.019 56.6865 872.149 Q56.6865 879.255 58.4921 882.82 Q60.3208 886.361 63.9319 886.361 Q67.5661 886.361 69.3717 882.82 Q71.2004 879.255 71.2004 872.149 Q71.2004 865.019 69.3717 861.477 Q67.5661 857.912 63.9319 857.912 M63.9319 854.209 Q69.742 854.209 72.7976 858.815 Q75.8763 863.399 75.8763 872.149 Q75.8763 880.875 72.7976 885.482 Q69.742 890.065 63.9319 890.065 Q58.1217 890.065 55.043 885.482 Q51.9875 880.875 51.9875 872.149 Q51.9875 863.399 55.043 858.815 Q58.1217 854.209 63.9319 854.209 Z" fill="#000000" fill-rule="nonzero" fill-opacity="1" /><path clip-path="url(#clip970)" d="M84.0938 883.514 L88.978 883.514 L88.978 889.394 L84.0938 889.394 L84.0938 883.514 Z" fill="#000000" fill-rule="nonzero" fill-opacity="1" /><path clip-path="url(#clip970)" d="M109.163 857.912 Q105.552 857.912 103.723 861.477 Q101.918 865.019 101.918 872.149 Q101.918 879.255 103.723 882.82 Q105.552 886.361 109.163 886.361 Q112.797 886.361 114.603 882.82 Q116.432 879.255 116.432 872.149 Q116.432 865.019 114.603 861.477 Q112.797 857.912 109.163 857.912 M109.163 854.209 Q114.973 854.209 118.029 858.815 Q121.107 863.399 121.107 872.149 Q121.107 880.875 118.029 885.482 Q114.973 890.065 109.163 890.065 Q103.353 890.065 100.274 885.482 Q97.2187 880.875 97.2187 872.149 Q97.2187 863.399 100.274 858.815 Q103.353 854.209 109.163 854.209 Z" fill="#000000" fill-rule="nonzero" fill-opacity="1" /><path clip-path="url(#clip970)" d="M139.325 857.912 Q135.714 857.912 133.885 861.477 Q132.08 865.019 132.08 872.149 Q132.08 879.255 133.885 882.82 Q135.714 886.361 139.325 886.361 Q142.959 886.361 144.765 882.82 Q146.593 879.255 146.593 872.149 Q146.593 865.019 144.765 861.477 Q142.959 857.912 139.325 857.912 M139.325 854.209 Q145.135 854.209 148.191 858.815 Q151.269 863.399 151.269 872.149 Q151.269 880.875 148.191 885.482 Q145.135 890.065 139.325 890.065 Q133.515 890.065 130.436 885.482 Q127.381 880.875 127.381 872.149 Q127.381 863.399 130.436 858.815 Q133.515 854.209 139.325 854.209 Z" fill="#000000" fill-rule="nonzero" fill-opacity="1" /><path clip-path="url(#clip970)" d="M159.533 854.834 L177.89 854.834 L177.89 858.769 L163.816 858.769 L163.816 867.241 Q164.834 866.894 165.853 866.732 Q166.871 866.547 167.89 866.547 Q173.677 866.547 177.056 869.718 Q180.436 872.889 180.436 878.306 Q180.436 883.885 176.964 886.986 Q173.491 890.065 167.172 890.065 Q164.996 890.065 162.728 889.695 Q160.482 889.324 158.075 888.584 L158.075 883.885 Q160.158 885.019 162.38 885.574 Q164.603 886.13 167.079 886.13 Q171.084 886.13 173.422 884.023 Q175.76 881.917 175.76 878.306 Q175.76 874.695 173.422 872.588 Q171.084 870.482 167.079 870.482 Q165.204 870.482 163.329 870.899 Q161.478 871.315 159.533 872.195 L159.533 854.834 Z" fill="#000000" fill-rule="nonzero" fill-opacity="1" /><path clip-path="url(#clip970)" d="M62.9365 607.425 Q59.3254 607.425 57.4967 610.989 Q55.6912 614.531 55.6912 621.661 Q55.6912 628.767 57.4967 632.332 Q59.3254 635.874 62.9365 635.874 Q66.5707 635.874 68.3763 632.332 Q70.205 628.767 70.205 621.661 Q70.205 614.531 68.3763 610.989 Q66.5707 607.425 62.9365 607.425 M62.9365 603.721 Q68.7467 603.721 71.8022 608.327 Q74.8809 612.911 74.8809 621.661 Q74.8809 630.387 71.8022 634.994 Q68.7467 639.577 62.9365 639.577 Q57.1264 639.577 54.0477 634.994 Q50.9921 630.387 50.9921 621.661 Q50.9921 612.911 54.0477 608.327 Q57.1264 603.721 62.9365 603.721 Z" fill="#000000" fill-rule="nonzero" fill-opacity="1" /><path clip-path="url(#clip970)" d="M83.0984 633.026 L87.9827 633.026 L87.9827 638.906 L83.0984 638.906 L83.0984 633.026 Z" fill="#000000" fill-rule="nonzero" fill-opacity="1" /><path clip-path="url(#clip970)" d="M108.168 607.425 Q104.557 607.425 102.728 610.989 Q100.922 614.531 100.922 621.661 Q100.922 628.767 102.728 632.332 Q104.557 635.874 108.168 635.874 Q111.802 635.874 113.608 632.332 Q115.436 628.767 115.436 621.661 Q115.436 614.531 113.608 610.989 Q111.802 607.425 108.168 607.425 M108.168 603.721 Q113.978 603.721 117.033 608.327 Q120.112 612.911 120.112 621.661 Q120.112 630.387 117.033 634.994 Q113.978 639.577 108.168 639.577 Q102.358 639.577 99.2789 634.994 Q96.2234 630.387 96.2234 621.661 Q96.2234 612.911 99.2789 608.327 Q102.358 603.721 108.168 603.721 Z" fill="#000000" fill-rule="nonzero" fill-opacity="1" /><path clip-path="url(#clip970)" d="M129.14 634.971 L136.779 634.971 L136.779 608.605 L128.469 610.272 L128.469 606.013 L136.732 604.346 L141.408 604.346 L141.408 634.971 L149.047 634.971 L149.047 638.906 L129.14 638.906 L129.14 634.971 Z" fill="#000000" fill-rule="nonzero" fill-opacity="1" /><path clip-path="url(#clip970)" d="M168.491 607.425 Q164.88 607.425 163.052 610.989 Q161.246 614.531 161.246 621.661 Q161.246 628.767 163.052 632.332 Q164.88 635.874 168.491 635.874 Q172.126 635.874 173.931 632.332 Q175.76 628.767 175.76 621.661 Q175.76 614.531 173.931 610.989 Q172.126 607.425 168.491 607.425 M168.491 603.721 Q174.302 603.721 177.357 608.327 Q180.436 612.911 180.436 621.661 Q180.436 630.387 177.357 634.994 Q174.302 639.577 168.491 639.577 Q162.681 639.577 159.603 634.994 Q156.547 630.387 156.547 621.661 Q156.547 612.911 159.603 608.327 Q162.681 603.721 168.491 603.721 Z" fill="#000000" fill-rule="nonzero" fill-opacity="1" /><path clip-path="url(#clip970)" d="M63.9319 356.937 Q60.3208 356.937 58.4921 360.502 Q56.6865 364.043 56.6865 371.173 Q56.6865 378.279 58.4921 381.844 Q60.3208 385.386 63.9319 385.386 Q67.5661 385.386 69.3717 381.844 Q71.2004 378.279 71.2004 371.173 Q71.2004 364.043 69.3717 360.502 Q67.5661 356.937 63.9319 356.937 M63.9319 353.233 Q69.742 353.233 72.7976 357.84 Q75.8763 362.423 75.8763 371.173 Q75.8763 379.9 72.7976 384.506 Q69.742 389.089 63.9319 389.089 Q58.1217 389.089 55.043 384.506 Q51.9875 379.9 51.9875 371.173 Q51.9875 362.423 55.043 357.84 Q58.1217 353.233 63.9319 353.233 Z" fill="#000000" fill-rule="nonzero" fill-opacity="1" /><path clip-path="url(#clip970)" d="M84.0938 382.539 L88.978 382.539 L88.978 388.418 L84.0938 388.418 L84.0938 382.539 Z" fill="#000000" fill-rule="nonzero" fill-opacity="1" /><path clip-path="url(#clip970)" d="M109.163 356.937 Q105.552 356.937 103.723 360.502 Q101.918 364.043 101.918 371.173 Q101.918 378.279 103.723 381.844 Q105.552 385.386 109.163 385.386 Q112.797 385.386 114.603 381.844 Q116.432 378.279 116.432 371.173 Q116.432 364.043 114.603 360.502 Q112.797 356.937 109.163 356.937 M109.163 353.233 Q114.973 353.233 118.029 357.84 Q121.107 362.423 121.107 371.173 Q121.107 379.9 118.029 384.506 Q114.973 389.089 109.163 389.089 Q103.353 389.089 100.274 384.506 Q97.2187 379.9 97.2187 371.173 Q97.2187 362.423 100.274 357.84 Q103.353 353.233 109.163 353.233 Z" fill="#000000" fill-rule="nonzero" fill-opacity="1" /><path clip-path="url(#clip970)" d="M130.135 384.483 L137.774 384.483 L137.774 358.117 L129.464 359.784 L129.464 355.525 L137.728 353.858 L142.404 353.858 L142.404 384.483 L150.043 384.483 L150.043 388.418 L130.135 388.418 L130.135 384.483 Z" fill="#000000" fill-rule="nonzero" fill-opacity="1" /><path clip-path="url(#clip970)" d="M159.533 353.858 L177.89 353.858 L177.89 357.793 L163.816 357.793 L163.816 366.265 Q164.834 365.918 165.853 365.756 Q166.871 365.571 167.89 365.571 Q173.677 365.571 177.056 368.742 Q180.436 371.914 180.436 377.33 Q180.436 382.909 176.964 386.011 Q173.491 389.089 167.172 389.089 Q164.996 389.089 162.728 388.719 Q160.482 388.349 158.075 387.608 L158.075 382.909 Q160.158 384.043 162.38 384.599 Q164.603 385.154 167.079 385.154 Q171.084 385.154 173.422 383.048 Q175.76 380.941 175.76 377.33 Q175.76 373.719 173.422 371.613 Q171.084 369.506 167.079 369.506 Q165.204 369.506 163.329 369.923 Q161.478 370.34 159.533 371.219 L159.533 353.858 Z" fill="#000000" fill-rule="nonzero" fill-opacity="1" /><path clip-path="url(#clip970)" d="M62.9365 106.449 Q59.3254 106.449 57.4967 110.014 Q55.6912 113.555 55.6912 120.685 Q55.6912 127.791 57.4967 131.356 Q59.3254 134.898 62.9365 134.898 Q66.5707 134.898 68.3763 131.356 Q70.205 127.791 70.205 120.685 Q70.205 113.555 68.3763 110.014 Q66.5707 106.449 62.9365 106.449 M62.9365 102.745 Q68.7467 102.745 71.8022 107.352 Q74.8809 111.935 74.8809 120.685 Q74.8809 129.412 71.8022 134.018 Q68.7467 138.602 62.9365 138.602 Q57.1264 138.602 54.0477 134.018 Q50.9921 129.412 50.9921 120.685 Q50.9921 111.935 54.0477 107.352 Q57.1264 102.745 62.9365 102.745 Z" fill="#000000" fill-rule="nonzero" fill-opacity="1" /><path clip-path="url(#clip970)" d="M83.0984 132.051 L87.9827 132.051 L87.9827 137.93 L83.0984 137.93 L83.0984 132.051 Z" fill="#000000" fill-rule="nonzero" fill-opacity="1" /><path clip-path="url(#clip970)" d="M108.168 106.449 Q104.557 106.449 102.728 110.014 Q100.922 113.555 100.922 120.685 Q100.922 127.791 102.728 131.356 Q104.557 134.898 108.168 134.898 Q111.802 134.898 113.608 131.356 Q115.436 127.791 115.436 120.685 Q115.436 113.555 113.608 110.014 Q111.802 106.449 108.168 106.449 M108.168 102.745 Q113.978 102.745 117.033 107.352 Q120.112 111.935 120.112 120.685 Q120.112 129.412 117.033 134.018 Q113.978 138.602 108.168 138.602 Q102.358 138.602 99.2789 134.018 Q96.2234 129.412 96.2234 120.685 Q96.2234 111.935 99.2789 107.352 Q102.358 102.745 108.168 102.745 Z" fill="#000000" fill-rule="nonzero" fill-opacity="1" /><path clip-path="url(#clip970)" d="M132.357 133.995 L148.677 133.995 L148.677 137.93 L126.732 137.93 L126.732 133.995 Q129.394 131.241 133.978 126.611 Q138.584 121.958 139.765 120.616 Q142.01 118.092 142.89 116.356 Q143.793 114.597 143.793 112.907 Q143.793 110.153 141.848 108.417 Q139.927 106.68 136.825 106.68 Q134.626 106.68 132.172 107.444 Q129.742 108.208 126.964 109.759 L126.964 105.037 Q129.788 103.903 132.242 103.324 Q134.695 102.745 136.732 102.745 Q142.103 102.745 145.297 105.43 Q148.492 108.116 148.492 112.606 Q148.492 114.736 147.681 116.657 Q146.894 118.555 144.788 121.148 Q144.209 121.819 141.107 125.037 Q138.006 128.231 132.357 133.995 Z" fill="#000000" fill-rule="nonzero" fill-opacity="1" /><path clip-path="url(#clip970)" d="M168.491 106.449 Q164.88 106.449 163.052 110.014 Q161.246 113.555 161.246 120.685 Q161.246 127.791 163.052 131.356 Q164.88 134.898 168.491 134.898 Q172.126 134.898 173.931 131.356 Q175.76 127.791 175.76 120.685 Q175.76 113.555 173.931 110.014 Q172.126 106.449 168.491 106.449 M168.491 102.745 Q174.302 102.745 177.357 107.352 Q180.436 111.935 180.436 120.685 Q180.436 129.412 177.357 134.018 Q174.302 138.602 168.491 138.602 Q162.681 138.602 159.603 134.018 Q156.547 129.412 156.547 120.685 Q156.547 111.935 159.603 107.352 Q162.681 102.745 168.491 102.745 Z" fill="#000000" fill-rule="nonzero" fill-opacity="1" /><path clip-path="url(#clip970)" d="M617.734 30.8748 L617.734 33.2186 L595.703 33.2186 Q596.016 38.1665 598.672 40.7706 Q601.354 43.3487 606.12 43.3487 Q608.88 43.3487 611.458 42.6716 Q614.062 41.9946 616.614 40.6404 L616.614 45.1716 Q614.036 46.2654 611.328 46.8383 Q608.62 47.4112 605.833 47.4112 Q598.854 47.4112 594.766 43.3487 Q590.703 39.2862 590.703 32.3592 Q590.703 25.1978 594.557 21.0051 Q598.437 16.7864 605 16.7864 Q610.885 16.7864 614.297 20.5884 Q617.734 24.3645 617.734 30.8748 M612.943 29.4686 Q612.891 25.5363 610.729 23.1926 Q608.594 20.8488 605.052 20.8488 Q601.042 20.8488 598.62 23.1145 Q596.224 25.3801 595.859 29.4946 L612.943 29.4686 Z" fill="#000000" fill-rule="nonzero" fill-opacity="1" /><path clip-path="url(#clip970)" d="M625.104 35.1456 L625.104 17.4895 L629.896 17.4895 L629.896 34.9634 Q629.896 39.104 631.51 41.1873 Q633.125 43.2446 636.354 43.2446 Q640.234 43.2446 642.474 40.7706 Q644.739 38.2967 644.739 34.0259 L644.739 17.4895 L649.531 17.4895 L649.531 46.656 L644.739 46.656 L644.739 42.1769 Q642.995 44.8331 640.677 46.1352 Q638.385 47.4112 635.338 47.4112 Q630.312 47.4112 627.708 44.2862 Q625.104 41.1612 625.104 35.1456 M637.161 16.7864 L637.161 16.7864 Z" fill="#000000" fill-rule="nonzero" fill-opacity="1" /><path clip-path="url(#clip970)" d="M676.302 21.9686 Q675.494 21.4999 674.531 21.2916 Q673.593 21.0572 672.448 21.0572 Q668.385 21.0572 666.198 23.7134 Q664.036 26.3436 664.036 31.2915 L664.036 46.656 L659.218 46.656 L659.218 17.4895 L664.036 17.4895 L664.036 22.0207 Q665.547 19.3645 667.968 18.0884 Q670.39 16.7864 673.854 16.7864 Q674.349 16.7864 674.948 16.8645 Q675.546 16.9166 676.276 17.0468 L676.302 21.9686 Z" fill="#000000" fill-rule="nonzero" fill-opacity="1" /><path clip-path="url(#clip970)" d="M681.328 17.4895 L686.119 17.4895 L686.119 46.656 L681.328 46.656 L681.328 17.4895 M681.328 6.13538 L686.119 6.13538 L686.119 12.2031 L681.328 12.2031 L681.328 6.13538 Z" fill="#000000" fill-rule="nonzero" fill-opacity="1" /><path clip-path="url(#clip970)" d="M717.083 32.0988 Q717.083 26.8124 714.895 23.8176 Q712.734 20.7968 708.932 20.7968 Q705.13 20.7968 702.942 23.8176 Q700.781 26.8124 700.781 32.0988 Q700.781 37.3852 702.942 40.406 Q705.13 43.4008 708.932 43.4008 Q712.734 43.4008 714.895 40.406 Q717.083 37.3852 717.083 32.0988 M700.781 21.9165 Q702.291 19.3124 704.583 18.0624 Q706.9 16.7864 710.104 16.7864 Q715.416 16.7864 718.723 21.0051 Q722.057 25.2238 722.057 32.0988 Q722.057 38.9737 718.723 43.1925 Q715.416 47.4112 710.104 47.4112 Q706.9 47.4112 704.583 46.1612 Q702.291 44.8852 700.781 42.281 L700.781 46.656 L695.963 46.656 L695.963 6.13538 L700.781 6.13538 L700.781 21.9165 Z" fill="#000000" fill-rule="nonzero" fill-opacity="1" /><path clip-path="url(#clip970)" d="M741.301 20.8488 Q737.447 20.8488 735.208 23.8697 Q732.968 26.8644 732.968 32.0988 Q732.968 37.3331 735.182 40.354 Q737.421 43.3487 741.301 43.3487 Q745.129 43.3487 747.369 40.3279 Q749.609 37.3071 749.609 32.0988 Q749.609 26.9165 747.369 23.8957 Q745.129 20.8488 741.301 20.8488 M741.301 16.7864 Q747.551 16.7864 751.119 20.8488 Q754.687 24.9113 754.687 32.0988 Q754.687 39.2602 751.119 43.3487 Q747.551 47.4112 741.301 47.4112 Q735.025 47.4112 731.458 43.3487 Q727.916 39.2602 727.916 32.0988 Q727.916 24.9113 731.458 20.8488 Q735.025 16.7864 741.301 16.7864 Z" fill="#000000" fill-rule="nonzero" fill-opacity="1" /><path clip-path="url(#clip970)" d="M779.53 21.9686 Q778.723 21.4999 777.759 21.2916 Q776.822 21.0572 775.676 21.0572 Q771.614 21.0572 769.426 23.7134 Q767.265 26.3436 767.265 31.2915 L767.265 46.656 L762.447 46.656 L762.447 17.4895 L767.265 17.4895 L767.265 22.0207 Q768.775 19.3645 771.197 18.0884 Q773.619 16.7864 777.082 16.7864 Q777.577 16.7864 778.176 16.8645 Q778.775 16.9166 779.504 17.0468 L779.53 21.9686 Z" fill="#000000" fill-rule="nonzero" fill-opacity="1" /><path clip-path="url(#clip972)" d="M242.965 1040.14 L285.075 1040.14 L327.184 1069.4 L369.294 1067.41 L411.404 1070.59 L453.513 1053.56 L495.623 1016.49 L537.733 1009.56 L579.842 1004.69 L621.952 1028.1 L664.062 1043.47 L706.172 1026.07 L748.281 1025.99 L790.391 1030.99 L832.501 1047.91 L874.61 1033.34 L916.72 1037.89 L958.83 984.816 L1000.94 995.736 L1043.05 1016.48 L1085.16 1033.8 L1127.27 991.421 L1127.27 933.375 L1085.16 925.79 L1043.05 908.144 L1000.94 934.4 L958.83 928.434 L916.72 942.066 L874.61 935.715 L832.501 914.98 L790.391 905.937 L748.281 911.868 L706.172 917.176 L664.062 939.165 L621.952 989.167 L579.842 966.528 L537.733 946.257 L495.623 989.45 L453.513 980.919 L411.404 950.746 L369.294 980.056 L327.184 985.977 L285.075 1040.14 L242.965 1040.14  Z" fill="#009af9" fill-rule="evenodd" fill-opacity="0.1"/>
<polyline clip-path="url(#clip972)" style="stroke:#009af9; stroke-linecap:round; stroke-linejoin:round; stroke-width:4; stroke-opacity:1; fill:none" points="242.965,1040.14 285.075,1040.14 327.184,1027.69 369.294,1023.73 411.404,1010.67 453.513,1017.24 495.623,1002.97 537.733,977.907 579.842,985.607 621.952,1008.63 664.062,991.319 706.172,971.625 748.281,968.928 790.391,968.465 832.501,981.444 874.61,984.525 916.72,989.978 958.83,956.625 1000.94,965.068 1043.05,962.311 1085.16,979.794 1127.27,962.398 "/>
<path clip-path="url(#clip972)" d="M242.965 1040.14 L285.075 1040.14 L327.184 120.65 L369.294 120.65 L411.404 120.65 L453.513 120.65 L495.623 120.65 L537.733 120.65 L579.842 120.65 L621.952 120.65 L664.062 120.65 L706.172 120.65 L748.281 120.65 L790.391 120.65 L832.501 120.65 L874.61 120.65 L916.72 120.65 L958.83 120.65 L1000.94 120.65 L1043.05 120.65 L1085.16 120.65 L1127.27 120.65 L1127.27 120.65 L1085.16 120.65 L1043.05 120.65 L1000.94 120.65 L958.83 120.65 L916.72 120.65 L874.61 120.65 L832.501 120.65 L790.391 120.65 L748.281 120.65 L706.172 120.65 L664.062 120.65 L621.952 120.65 L579.842 120.65 L537.733 120.65 L495.623 120.65 L453.513 120.65 L411.404 120.65 L369.294 120.65 L327.184 120.65 L285.075 1040.14 L242.965 1040.14  Z" fill="#e26f46" fill-rule="evenodd" fill-opacity="0.1"/>
<polyline clip-path="url(#clip972)" style="stroke:#e26f46; stroke-linecap:round; stroke-linejoin:round; stroke-width:4; stroke-opacity:1; fill:none" points="242.965,1040.14 285.075,1040.14 327.184,120.65 369.294,120.65 411.404,120.65 453.513,120.65 495.623,120.65 537.733,120.65 579.842,120.65 621.952,120.65 664.062,120.65 706.172,120.65 748.281,120.65 790.391,120.65 832.501,120.65 874.61,120.65 916.72,120.65 958.83,120.65 1000.94,120.65 1043.05,120.65 1085.16,120.65 1127.27,120.65 "/>
<path clip-path="url(#clip970)" d="M1415.39 1099.09 L2352.76 1099.09 L2352.76 92.1521 L1415.39 92.1521  Z" fill="#ffffff" fill-rule="evenodd" fill-opacity="1"/>
<defs>
  <clipPath id="clip973">
    <rect x="1415" y="92" width="938" height="1008"/>
  </clipPath>
</defs>
<polyline clip-path="url(#clip973)" style="stroke:#000000; stroke-linecap:round; stroke-linejoin:round; stroke-width:2; stroke-opacity:0.1; fill:none" points="1610.36,1099.09 1610.36,92.1521 "/>
<polyline clip-path="url(#clip973)" style="stroke:#000000; stroke-linecap:round; stroke-linejoin:round; stroke-width:2; stroke-opacity:0.1; fill:none" points="1820.91,1099.09 1820.91,92.1521 "/>
<polyline clip-path="url(#clip973)" style="stroke:#000000; stroke-linecap:round; stroke-linejoin:round; stroke-width:2; stroke-opacity:0.1; fill:none" points="2031.46,1099.09 2031.46,92.1521 "/>
<polyline clip-path="url(#clip973)" style="stroke:#000000; stroke-linecap:round; stroke-linejoin:round; stroke-width:2; stroke-opacity:0.1; fill:none" points="2242.01,1099.09 2242.01,92.1521 "/>
<polyline clip-path="url(#clip973)" style="stroke:#000000; stroke-linecap:round; stroke-linejoin:round; stroke-width:2; stroke-opacity:0.1; fill:none" points="1415.39,1042.01 2352.76,1042.01 "/>
<polyline clip-path="url(#clip973)" style="stroke:#000000; stroke-linecap:round; stroke-linejoin:round; stroke-width:2; stroke-opacity:0.1; fill:none" points="1415.39,828.587 2352.76,828.587 "/>
<polyline clip-path="url(#clip973)" style="stroke:#000000; stroke-linecap:round; stroke-linejoin:round; stroke-width:2; stroke-opacity:0.1; fill:none" points="1415.39,615.16 2352.76,615.16 "/>
<polyline clip-path="url(#clip973)" style="stroke:#000000; stroke-linecap:round; stroke-linejoin:round; stroke-width:2; stroke-opacity:0.1; fill:none" points="1415.39,401.733 2352.76,401.733 "/>
<polyline clip-path="url(#clip973)" style="stroke:#000000; stroke-linecap:round; stroke-linejoin:round; stroke-width:2; stroke-opacity:0.1; fill:none" points="1415.39,188.306 2352.76,188.306 "/>
<polyline clip-path="url(#clip970)" style="stroke:#000000; stroke-linecap:round; stroke-linejoin:round; stroke-width:4; stroke-opacity:1; fill:none" points="1415.39,1099.09 2352.76,1099.09 "/>
<polyline clip-path="url(#clip970)" style="stroke:#000000; stroke-linecap:round; stroke-linejoin:round; stroke-width:4; stroke-opacity:1; fill:none" points="1610.36,1099.09 1610.36,1080.19 "/>
<polyline clip-path="url(#clip970)" style="stroke:#000000; stroke-linecap:round; stroke-linejoin:round; stroke-width:4; stroke-opacity:1; fill:none" points="1820.91,1099.09 1820.91,1080.19 "/>
<polyline clip-path="url(#clip970)" style="stroke:#000000; stroke-linecap:round; stroke-linejoin:round; stroke-width:4; stroke-opacity:1; fill:none" points="2031.46,1099.09 2031.46,1080.19 "/>
<polyline clip-path="url(#clip970)" style="stroke:#000000; stroke-linecap:round; stroke-linejoin:round; stroke-width:4; stroke-opacity:1; fill:none" points="2242.01,1099.09 2242.01,1080.19 "/>
<path clip-path="url(#clip970)" d="M1600.64 1126.93 L1619 1126.93 L1619 1130.86 L1604.92 1130.86 L1604.92 1139.34 Q1605.94 1138.99 1606.96 1138.83 Q1607.98 1138.64 1609 1138.64 Q1614.78 1138.64 1618.16 1141.81 Q1621.54 1144.98 1621.54 1150.4 Q1621.54 1155.98 1618.07 1159.08 Q1614.6 1162.16 1608.28 1162.16 Q1606.1 1162.16 1603.83 1161.79 Q1601.59 1161.42 1599.18 1160.68 L1599.18 1155.98 Q1601.26 1157.11 1603.49 1157.67 Q1605.71 1158.22 1608.19 1158.22 Q1612.19 1158.22 1614.53 1156.12 Q1616.87 1154.01 1616.87 1150.4 Q1616.87 1146.79 1614.53 1144.68 Q1612.19 1142.58 1608.19 1142.58 Q1606.31 1142.58 1604.44 1142.99 Q1602.58 1143.41 1600.64 1144.29 L1600.64 1126.93 Z" fill="#000000" fill-rule="nonzero" fill-opacity="1" /><path clip-path="url(#clip970)" d="M1795.6 1157.55 L1803.24 1157.55 L1803.24 1131.19 L1794.93 1132.85 L1794.93 1128.59 L1803.19 1126.93 L1807.87 1126.93 L1807.87 1157.55 L1815.51 1157.55 L1815.51 1161.49 L1795.6 1161.49 L1795.6 1157.55 Z" fill="#000000" fill-rule="nonzero" fill-opacity="1" /><path clip-path="url(#clip970)" d="M1834.95 1130.01 Q1831.34 1130.01 1829.51 1133.57 Q1827.7 1137.11 1827.7 1144.24 Q1827.7 1151.35 1829.51 1154.91 Q1831.34 1158.46 1834.95 1158.46 Q1838.58 1158.46 1840.39 1154.91 Q1842.22 1151.35 1842.22 1144.24 Q1842.22 1137.11 1840.39 1133.57 Q1838.58 1130.01 1834.95 1130.01 M1834.95 1126.3 Q1840.76 1126.3 1843.82 1130.91 Q1846.89 1135.49 1846.89 1144.24 Q1846.89 1152.97 1843.82 1157.58 Q1840.76 1162.16 1834.95 1162.16 Q1829.14 1162.16 1826.06 1157.58 Q1823.01 1152.97 1823.01 1144.24 Q1823.01 1135.49 1826.06 1130.91 Q1829.14 1126.3 1834.95 1126.3 Z" fill="#000000" fill-rule="nonzero" fill-opacity="1" /><path clip-path="url(#clip970)" d="M2006.64 1157.55 L2014.28 1157.55 L2014.28 1131.19 L2005.97 1132.85 L2005.97 1128.59 L2014.24 1126.93 L2018.91 1126.93 L2018.91 1157.55 L2026.55 1157.55 L2026.55 1161.49 L2006.64 1161.49 L2006.64 1157.55 Z" fill="#000000" fill-rule="nonzero" fill-opacity="1" /><path clip-path="url(#clip970)" d="M2036.04 1126.93 L2054.4 1126.93 L2054.4 1130.86 L2040.32 1130.86 L2040.32 1139.34 Q2041.34 1138.99 2042.36 1138.83 Q2043.38 1138.64 2044.4 1138.64 Q2050.19 1138.64 2053.57 1141.81 Q2056.94 1144.98 2056.94 1150.4 Q2056.94 1155.98 2053.47 1159.08 Q2050 1162.16 2043.68 1162.16 Q2041.51 1162.16 2039.24 1161.79 Q2036.99 1161.42 2034.58 1160.68 L2034.58 1155.98 Q2036.67 1157.11 2038.89 1157.67 Q2041.11 1158.22 2043.59 1158.22 Q2047.59 1158.22 2049.93 1156.12 Q2052.27 1154.01 2052.27 1150.4 Q2052.27 1146.79 2049.93 1144.68 Q2047.59 1142.58 2043.59 1142.58 Q2041.71 1142.58 2039.84 1142.99 Q2037.99 1143.41 2036.04 1144.29 L2036.04 1126.93 Z" fill="#000000" fill-rule="nonzero" fill-opacity="1" /><path clip-path="url(#clip970)" d="M2220.78 1157.55 L2237.1 1157.55 L2237.1 1161.49 L2215.16 1161.49 L2215.16 1157.55 Q2217.82 1154.8 2222.4 1150.17 Q2227.01 1145.52 2228.19 1144.17 Q2230.43 1141.65 2231.31 1139.91 Q2232.22 1138.15 2232.22 1136.46 Q2232.22 1133.71 2230.27 1131.97 Q2228.35 1130.24 2225.25 1130.24 Q2223.05 1130.24 2220.6 1131 Q2218.16 1131.77 2215.39 1133.32 L2215.39 1128.59 Q2218.21 1127.46 2220.66 1126.88 Q2223.12 1126.3 2225.16 1126.3 Q2230.53 1126.3 2233.72 1128.99 Q2236.91 1131.67 2236.91 1136.16 Q2236.91 1138.29 2236.1 1140.21 Q2235.32 1142.11 2233.21 1144.71 Q2232.63 1145.38 2229.53 1148.59 Q2226.43 1151.79 2220.78 1157.55 Z" fill="#000000" fill-rule="nonzero" fill-opacity="1" /><path clip-path="url(#clip970)" d="M2256.91 1130.01 Q2253.3 1130.01 2251.47 1133.57 Q2249.67 1137.11 2249.67 1144.24 Q2249.67 1151.35 2251.47 1154.91 Q2253.3 1158.46 2256.91 1158.46 Q2260.55 1158.46 2262.35 1154.91 Q2264.18 1151.35 2264.18 1144.24 Q2264.18 1137.11 2262.35 1133.57 Q2260.55 1130.01 2256.91 1130.01 M2256.91 1126.3 Q2262.72 1126.3 2265.78 1130.91 Q2268.86 1135.49 2268.86 1144.24 Q2268.86 1152.97 2265.78 1157.58 Q2262.72 1162.16 2256.91 1162.16 Q2251.1 1162.16 2248.03 1157.58 Q2244.97 1152.97 2244.97 1144.24 Q2244.97 1135.49 2248.03 1130.91 Q2251.1 1126.3 2256.91 1126.3 Z" fill="#000000" fill-rule="nonzero" fill-opacity="1" /><polyline clip-path="url(#clip970)" style="stroke:#000000; stroke-linecap:round; stroke-linejoin:round; stroke-width:4; stroke-opacity:1; fill:none" points="1415.39,1099.09 1415.39,92.1521 "/>
<polyline clip-path="url(#clip970)" style="stroke:#000000; stroke-linecap:round; stroke-linejoin:round; stroke-width:4; stroke-opacity:1; fill:none" points="1415.39,1042.01 1434.29,1042.01 "/>
<polyline clip-path="url(#clip970)" style="stroke:#000000; stroke-linecap:round; stroke-linejoin:round; stroke-width:4; stroke-opacity:1; fill:none" points="1415.39,828.587 1434.29,828.587 "/>
<polyline clip-path="url(#clip970)" style="stroke:#000000; stroke-linecap:round; stroke-linejoin:round; stroke-width:4; stroke-opacity:1; fill:none" points="1415.39,615.16 1434.29,615.16 "/>
<polyline clip-path="url(#clip970)" style="stroke:#000000; stroke-linecap:round; stroke-linejoin:round; stroke-width:4; stroke-opacity:1; fill:none" points="1415.39,401.733 1434.29,401.733 "/>
<polyline clip-path="url(#clip970)" style="stroke:#000000; stroke-linecap:round; stroke-linejoin:round; stroke-width:4; stroke-opacity:1; fill:none" points="1415.39,188.306 1434.29,188.306 "/>
<path clip-path="url(#clip970)" d="M1252.71 1055.36 L1260.34 1055.36 L1260.34 1028.99 L1252.03 1030.66 L1252.03 1026.4 L1260.3 1024.73 L1264.97 1024.73 L1264.97 1055.36 L1272.61 1055.36 L1272.61 1059.29 L1252.71 1059.29 L1252.71 1055.36 Z" fill="#000000" fill-rule="nonzero" fill-opacity="1" /><path clip-path="url(#clip970)" d="M1282.06 1053.41 L1286.94 1053.41 L1286.94 1059.29 L1282.06 1059.29 L1282.06 1053.41 Z" fill="#000000" fill-rule="nonzero" fill-opacity="1" /><path clip-path="url(#clip970)" d="M1307.13 1027.81 Q1303.51 1027.81 1301.69 1031.38 Q1299.88 1034.92 1299.88 1042.05 Q1299.88 1049.15 1301.69 1052.72 Q1303.51 1056.26 1307.13 1056.26 Q1310.76 1056.26 1312.57 1052.72 Q1314.39 1049.15 1314.39 1042.05 Q1314.39 1034.92 1312.57 1031.38 Q1310.76 1027.81 1307.13 1027.81 M1307.13 1024.11 Q1312.94 1024.11 1315.99 1028.72 Q1319.07 1033.3 1319.07 1042.05 Q1319.07 1050.78 1315.99 1055.38 Q1312.94 1059.97 1307.13 1059.97 Q1301.32 1059.97 1298.24 1055.38 Q1295.18 1050.78 1295.18 1042.05 Q1295.18 1033.3 1298.24 1028.72 Q1301.32 1024.11 1307.13 1024.11 Z" fill="#000000" fill-rule="nonzero" fill-opacity="1" /><path clip-path="url(#clip970)" d="M1337.29 1027.81 Q1333.68 1027.81 1331.85 1031.38 Q1330.04 1034.92 1330.04 1042.05 Q1330.04 1049.15 1331.85 1052.72 Q1333.68 1056.26 1337.29 1056.26 Q1340.92 1056.26 1342.73 1052.72 Q1344.56 1049.15 1344.56 1042.05 Q1344.56 1034.92 1342.73 1031.38 Q1340.92 1027.81 1337.29 1027.81 M1337.29 1024.11 Q1343.1 1024.11 1346.15 1028.72 Q1349.23 1033.3 1349.23 1042.05 Q1349.23 1050.78 1346.15 1055.38 Q1343.1 1059.97 1337.29 1059.97 Q1331.48 1059.97 1328.4 1055.38 Q1325.34 1050.78 1325.34 1042.05 Q1325.34 1033.3 1328.4 1028.72 Q1331.48 1024.11 1337.29 1024.11 Z" fill="#000000" fill-rule="nonzero" fill-opacity="1" /><path clip-path="url(#clip970)" d="M1367.45 1027.81 Q1363.84 1027.81 1362.01 1031.38 Q1360.2 1034.92 1360.2 1042.05 Q1360.2 1049.15 1362.01 1052.72 Q1363.84 1056.26 1367.45 1056.26 Q1371.08 1056.26 1372.89 1052.72 Q1374.72 1049.15 1374.72 1042.05 Q1374.72 1034.92 1372.89 1031.38 Q1371.08 1027.81 1367.45 1027.81 M1367.45 1024.11 Q1373.26 1024.11 1376.32 1028.72 Q1379.39 1033.3 1379.39 1042.05 Q1379.39 1050.78 1376.32 1055.38 Q1373.26 1059.97 1367.45 1059.97 Q1361.64 1059.97 1358.56 1055.38 Q1355.51 1050.78 1355.51 1042.05 Q1355.51 1033.3 1358.56 1028.72 Q1361.64 1024.11 1367.45 1024.11 Z" fill="#000000" fill-rule="nonzero" fill-opacity="1" /><path clip-path="url(#clip970)" d="M1253.7 841.932 L1261.34 841.932 L1261.34 815.566 L1253.03 817.233 L1253.03 812.973 L1261.29 811.307 L1265.97 811.307 L1265.97 841.932 L1273.61 841.932 L1273.61 845.867 L1253.7 845.867 L1253.7 841.932 Z" fill="#000000" fill-rule="nonzero" fill-opacity="1" /><path clip-path="url(#clip970)" d="M1283.05 839.987 L1287.94 839.987 L1287.94 845.867 L1283.05 845.867 L1283.05 839.987 Z" fill="#000000" fill-rule="nonzero" fill-opacity="1" /><path clip-path="url(#clip970)" d="M1308.12 814.386 Q1304.51 814.386 1302.68 817.95 Q1300.88 821.492 1300.88 828.622 Q1300.88 835.728 1302.68 839.293 Q1304.51 842.834 1308.12 842.834 Q1311.76 842.834 1313.56 839.293 Q1315.39 835.728 1315.39 828.622 Q1315.39 821.492 1313.56 817.95 Q1311.76 814.386 1308.12 814.386 M1308.12 810.682 Q1313.93 810.682 1316.99 815.288 Q1320.07 819.872 1320.07 828.622 Q1320.07 837.348 1316.99 841.955 Q1313.93 846.538 1308.12 846.538 Q1302.31 846.538 1299.23 841.955 Q1296.18 837.348 1296.18 828.622 Q1296.18 819.872 1299.23 815.288 Q1302.31 810.682 1308.12 810.682 Z" fill="#000000" fill-rule="nonzero" fill-opacity="1" /><path clip-path="url(#clip970)" d="M1332.31 841.932 L1348.63 841.932 L1348.63 845.867 L1326.69 845.867 L1326.69 841.932 Q1329.35 839.177 1333.93 834.547 Q1338.54 829.895 1339.72 828.552 Q1341.96 826.029 1342.84 824.293 Q1343.75 822.534 1343.75 820.844 Q1343.75 818.089 1341.8 816.353 Q1339.88 814.617 1336.78 814.617 Q1334.58 814.617 1332.13 815.381 Q1329.7 816.145 1326.92 817.696 L1326.92 812.973 Q1329.74 811.839 1332.2 811.261 Q1334.65 810.682 1336.69 810.682 Q1342.06 810.682 1345.25 813.367 Q1348.45 816.052 1348.45 820.543 Q1348.45 822.672 1347.64 824.594 Q1346.85 826.492 1344.74 829.084 Q1344.16 829.756 1341.06 832.973 Q1337.96 836.168 1332.31 841.932 Z" fill="#000000" fill-rule="nonzero" fill-opacity="1" /><path clip-path="url(#clip970)" d="M1358.49 811.307 L1376.85 811.307 L1376.85 815.242 L1362.77 815.242 L1362.77 823.714 Q1363.79 823.367 1364.81 823.205 Q1365.83 823.02 1366.85 823.02 Q1372.63 823.02 1376.01 826.191 Q1379.39 829.362 1379.39 834.779 Q1379.39 840.358 1375.92 843.459 Q1372.45 846.538 1366.13 846.538 Q1363.95 846.538 1361.69 846.168 Q1359.44 845.797 1357.03 845.057 L1357.03 840.358 Q1359.12 841.492 1361.34 842.047 Q1363.56 842.603 1366.04 842.603 Q1370.04 842.603 1372.38 840.496 Q1374.72 838.39 1374.72 834.779 Q1374.72 831.168 1372.38 829.061 Q1370.04 826.955 1366.04 826.955 Q1364.16 826.955 1362.29 827.372 Q1360.44 827.788 1358.49 828.668 L1358.49 811.307 Z" fill="#000000" fill-rule="nonzero" fill-opacity="1" /><path clip-path="url(#clip970)" d="M1252.71 628.505 L1260.34 628.505 L1260.34 602.139 L1252.03 603.806 L1252.03 599.546 L1260.3 597.88 L1264.97 597.88 L1264.97 628.505 L1272.61 628.505 L1272.61 632.44 L1252.71 632.44 L1252.71 628.505 Z" fill="#000000" fill-rule="nonzero" fill-opacity="1" /><path clip-path="url(#clip970)" d="M1282.06 626.56 L1286.94 626.56 L1286.94 632.44 L1282.06 632.44 L1282.06 626.56 Z" fill="#000000" fill-rule="nonzero" fill-opacity="1" /><path clip-path="url(#clip970)" d="M1307.13 600.959 Q1303.51 600.959 1301.69 604.523 Q1299.88 608.065 1299.88 615.195 Q1299.88 622.301 1301.69 625.866 Q1303.51 629.407 1307.13 629.407 Q1310.76 629.407 1312.57 625.866 Q1314.39 622.301 1314.39 615.195 Q1314.39 608.065 1312.57 604.523 Q1310.76 600.959 1307.13 600.959 M1307.13 597.255 Q1312.94 597.255 1315.99 601.861 Q1319.07 606.445 1319.07 615.195 Q1319.07 623.921 1315.99 628.528 Q1312.94 633.111 1307.13 633.111 Q1301.32 633.111 1298.24 628.528 Q1295.18 623.921 1295.18 615.195 Q1295.18 606.445 1298.24 601.861 Q1301.32 597.255 1307.13 597.255 Z" fill="#000000" fill-rule="nonzero" fill-opacity="1" /><path clip-path="url(#clip970)" d="M1327.33 597.88 L1345.69 597.88 L1345.69 601.815 L1331.62 601.815 L1331.62 610.287 Q1332.64 609.94 1333.65 609.778 Q1334.67 609.593 1335.69 609.593 Q1341.48 609.593 1344.86 612.764 Q1348.24 615.935 1348.24 621.352 Q1348.24 626.931 1344.76 630.032 Q1341.29 633.111 1334.97 633.111 Q1332.8 633.111 1330.53 632.741 Q1328.28 632.37 1325.88 631.63 L1325.88 626.931 Q1327.96 628.065 1330.18 628.62 Q1332.4 629.176 1334.88 629.176 Q1338.89 629.176 1341.22 627.069 Q1343.56 624.963 1343.56 621.352 Q1343.56 617.741 1341.22 615.634 Q1338.89 613.528 1334.88 613.528 Q1333.01 613.528 1331.13 613.945 Q1329.28 614.361 1327.33 615.241 L1327.33 597.88 Z" fill="#000000" fill-rule="nonzero" fill-opacity="1" /><path clip-path="url(#clip970)" d="M1367.45 600.959 Q1363.84 600.959 1362.01 604.523 Q1360.2 608.065 1360.2 615.195 Q1360.2 622.301 1362.01 625.866 Q1363.84 629.407 1367.45 629.407 Q1371.08 629.407 1372.89 625.866 Q1374.72 622.301 1374.72 615.195 Q1374.72 608.065 1372.89 604.523 Q1371.08 600.959 1367.45 600.959 M1367.45 597.255 Q1373.26 597.255 1376.32 601.861 Q1379.39 606.445 1379.39 615.195 Q1379.39 623.921 1376.32 628.528 Q1373.26 633.111 1367.45 633.111 Q1361.64 633.111 1358.56 628.528 Q1355.51 623.921 1355.51 615.195 Q1355.51 606.445 1358.56 601.861 Q1361.64 597.255 1367.45 597.255 Z" fill="#000000" fill-rule="nonzero" fill-opacity="1" /><path clip-path="url(#clip970)" d="M1253.7 415.078 L1261.34 415.078 L1261.34 388.712 L1253.03 390.379 L1253.03 386.12 L1261.29 384.453 L1265.97 384.453 L1265.97 415.078 L1273.61 415.078 L1273.61 419.013 L1253.7 419.013 L1253.7 415.078 Z" fill="#000000" fill-rule="nonzero" fill-opacity="1" /><path clip-path="url(#clip970)" d="M1283.05 413.133 L1287.94 413.133 L1287.94 419.013 L1283.05 419.013 L1283.05 413.133 Z" fill="#000000" fill-rule="nonzero" fill-opacity="1" /><path clip-path="url(#clip970)" d="M1308.12 387.532 Q1304.51 387.532 1302.68 391.096 Q1300.88 394.638 1300.88 401.768 Q1300.88 408.874 1302.68 412.439 Q1304.51 415.98 1308.12 415.98 Q1311.76 415.98 1313.56 412.439 Q1315.39 408.874 1315.39 401.768 Q1315.39 394.638 1313.56 391.096 Q1311.76 387.532 1308.12 387.532 M1308.12 383.828 Q1313.93 383.828 1316.99 388.434 Q1320.07 393.018 1320.07 401.768 Q1320.07 410.494 1316.99 415.101 Q1313.93 419.684 1308.12 419.684 Q1302.31 419.684 1299.23 415.101 Q1296.18 410.494 1296.18 401.768 Q1296.18 393.018 1299.23 388.434 Q1302.31 383.828 1308.12 383.828 Z" fill="#000000" fill-rule="nonzero" fill-opacity="1" /><path clip-path="url(#clip970)" d="M1327.1 384.453 L1349.32 384.453 L1349.32 386.444 L1336.78 419.013 L1331.89 419.013 L1343.7 388.388 L1327.1 388.388 L1327.1 384.453 Z" fill="#000000" fill-rule="nonzero" fill-opacity="1" /><path clip-path="url(#clip970)" d="M1358.49 384.453 L1376.85 384.453 L1376.85 388.388 L1362.77 388.388 L1362.77 396.86 Q1363.79 396.513 1364.81 396.351 Q1365.83 396.166 1366.85 396.166 Q1372.63 396.166 1376.01 399.337 Q1379.39 402.508 1379.39 407.925 Q1379.39 413.504 1375.92 416.605 Q1372.45 419.684 1366.13 419.684 Q1363.95 419.684 1361.69 419.314 Q1359.44 418.943 1357.03 418.203 L1357.03 413.504 Q1359.12 414.638 1361.34 415.193 Q1363.56 415.749 1366.04 415.749 Q1370.04 415.749 1372.38 413.643 Q1374.72 411.536 1374.72 407.925 Q1374.72 404.314 1372.38 402.207 Q1370.04 400.101 1366.04 400.101 Q1364.16 400.101 1362.29 400.518 Q1360.44 400.934 1358.49 401.814 L1358.49 384.453 Z" fill="#000000" fill-rule="nonzero" fill-opacity="1" /><path clip-path="url(#clip970)" d="M1252.71 201.651 L1260.34 201.651 L1260.34 175.285 L1252.03 176.952 L1252.03 172.693 L1260.3 171.026 L1264.97 171.026 L1264.97 201.651 L1272.61 201.651 L1272.61 205.586 L1252.71 205.586 L1252.71 201.651 Z" fill="#000000" fill-rule="nonzero" fill-opacity="1" /><path clip-path="url(#clip970)" d="M1282.06 199.706 L1286.94 199.706 L1286.94 205.586 L1282.06 205.586 L1282.06 199.706 Z" fill="#000000" fill-rule="nonzero" fill-opacity="1" /><path clip-path="url(#clip970)" d="M1297.94 201.651 L1305.58 201.651 L1305.58 175.285 L1297.27 176.952 L1297.27 172.693 L1305.53 171.026 L1310.2 171.026 L1310.2 201.651 L1317.84 201.651 L1317.84 205.586 L1297.94 205.586 L1297.94 201.651 Z" fill="#000000" fill-rule="nonzero" fill-opacity="1" /><path clip-path="url(#clip970)" d="M1337.29 174.105 Q1333.68 174.105 1331.85 177.669 Q1330.04 181.211 1330.04 188.341 Q1330.04 195.447 1331.85 199.012 Q1333.68 202.553 1337.29 202.553 Q1340.92 202.553 1342.73 199.012 Q1344.56 195.447 1344.56 188.341 Q1344.56 181.211 1342.73 177.669 Q1340.92 174.105 1337.29 174.105 M1337.29 170.401 Q1343.1 170.401 1346.15 175.007 Q1349.23 179.591 1349.23 188.341 Q1349.23 197.067 1346.15 201.674 Q1343.1 206.257 1337.29 206.257 Q1331.48 206.257 1328.4 201.674 Q1325.34 197.067 1325.34 188.341 Q1325.34 179.591 1328.4 175.007 Q1331.48 170.401 1337.29 170.401 Z" fill="#000000" fill-rule="nonzero" fill-opacity="1" /><path clip-path="url(#clip970)" d="M1367.45 174.105 Q1363.84 174.105 1362.01 177.669 Q1360.2 181.211 1360.2 188.341 Q1360.2 195.447 1362.01 199.012 Q1363.84 202.553 1367.45 202.553 Q1371.08 202.553 1372.89 199.012 Q1374.72 195.447 1374.72 188.341 Q1374.72 181.211 1372.89 177.669 Q1371.08 174.105 1367.45 174.105 M1367.45 170.401 Q1373.26 170.401 1376.32 175.007 Q1379.39 179.591 1379.39 188.341 Q1379.39 197.067 1376.32 201.674 Q1373.26 206.257 1367.45 206.257 Q1361.64 206.257 1358.56 201.674 Q1355.51 197.067 1355.51 188.341 Q1355.51 179.591 1358.56 175.007 Q1361.64 170.401 1367.45 170.401 Z" fill="#000000" fill-rule="nonzero" fill-opacity="1" /><path clip-path="url(#clip970)" d="M1743.36 31.7342 Q1743.36 26.5259 1741.2 23.6613 Q1739.06 20.7968 1735.18 20.7968 Q1731.33 20.7968 1729.17 23.6613 Q1727.03 26.5259 1727.03 31.7342 Q1727.03 36.9165 1729.17 39.781 Q1731.33 42.6456 1735.18 42.6456 Q1739.06 42.6456 1741.2 39.781 Q1743.36 36.9165 1743.36 31.7342 M1748.15 43.0362 Q1748.15 50.4841 1744.84 54.1039 Q1741.54 57.7497 1734.71 57.7497 Q1732.19 57.7497 1729.95 57.3591 Q1727.71 56.9945 1725.6 56.2132 L1725.6 51.5518 Q1727.71 52.6976 1729.77 53.2445 Q1731.82 53.7914 1733.96 53.7914 Q1738.67 53.7914 1741.02 51.3174 Q1743.36 48.8695 1743.36 43.8956 L1743.36 41.5258 Q1741.88 44.1039 1739.56 45.38 Q1737.24 46.656 1734.01 46.656 Q1728.65 46.656 1725.36 42.5675 Q1722.08 38.479 1722.08 31.7342 Q1722.08 24.9634 1725.36 20.8749 Q1728.65 16.7864 1734.01 16.7864 Q1737.24 16.7864 1739.56 18.0624 Q1741.88 19.3384 1743.36 21.9165 L1743.36 17.4895 L1748.15 17.4895 L1748.15 43.0362 Z" fill="#000000" fill-rule="nonzero" fill-opacity="1" /><path clip-path="url(#clip970)" d="M1777.21 21.9165 L1777.21 6.13538 L1782.01 6.13538 L1782.01 46.656 L1777.21 46.656 L1777.21 42.281 Q1775.7 44.8852 1773.39 46.1612 Q1771.09 47.4112 1767.86 47.4112 Q1762.58 47.4112 1759.25 43.1925 Q1755.94 38.9737 1755.94 32.0988 Q1755.94 25.2238 1759.25 21.0051 Q1762.58 16.7864 1767.86 16.7864 Q1771.09 16.7864 1773.39 18.0624 Q1775.7 19.3124 1777.21 21.9165 M1760.89 32.0988 Q1760.89 37.3852 1763.05 40.406 Q1765.23 43.4008 1769.04 43.4008 Q1772.84 43.4008 1775.03 40.406 Q1777.21 37.3852 1777.21 32.0988 Q1777.21 26.8124 1775.03 23.8176 Q1772.84 20.7968 1769.04 20.7968 Q1765.23 20.7968 1763.05 23.8176 Q1760.89 26.8124 1760.89 32.0988 Z" fill="#000000" fill-rule="nonzero" fill-opacity="1" /><path clip-path="url(#clip970)" d="M1796.51 42.281 L1796.51 57.7497 L1791.69 57.7497 L1791.69 17.4895 L1796.51 17.4895 L1796.51 21.9165 Q1798.02 19.3124 1800.31 18.0624 Q1802.63 16.7864 1805.83 16.7864 Q1811.15 16.7864 1814.45 21.0051 Q1817.79 25.2238 1817.79 32.0988 Q1817.79 38.9737 1814.45 43.1925 Q1811.15 47.4112 1805.83 47.4112 Q1802.63 47.4112 1800.31 46.1612 Q1798.02 44.8852 1796.51 42.281 M1812.81 32.0988 Q1812.81 26.8124 1810.62 23.8176 Q1808.46 20.7968 1804.66 20.7968 Q1800.86 20.7968 1798.67 23.8176 Q1796.51 26.8124 1796.51 32.0988 Q1796.51 37.3852 1798.67 40.406 Q1800.86 43.4008 1804.66 43.4008 Q1808.46 43.4008 1810.62 40.406 Q1812.81 37.3852 1812.81 32.0988 Z" fill="#000000" fill-rule="nonzero" fill-opacity="1" /><path clip-path="url(#clip970)" d="M1861.87 21.9165 L1861.87 6.13538 L1866.67 6.13538 L1866.67 46.656 L1861.87 46.656 L1861.87 42.281 Q1860.36 44.8852 1858.05 46.1612 Q1855.75 47.4112 1852.53 47.4112 Q1847.24 47.4112 1843.91 43.1925 Q1840.6 38.9737 1840.6 32.0988 Q1840.6 25.2238 1843.91 21.0051 Q1847.24 16.7864 1852.53 16.7864 Q1855.75 16.7864 1858.05 18.0624 Q1860.36 19.3124 1861.87 21.9165 M1845.55 32.0988 Q1845.55 37.3852 1847.71 40.406 Q1849.9 43.4008 1853.7 43.4008 Q1857.5 43.4008 1859.69 40.406 Q1861.87 37.3852 1861.87 32.0988 Q1861.87 26.8124 1859.69 23.8176 Q1857.5 20.7968 1853.7 20.7968 Q1849.9 20.7968 1847.71 23.8176 Q1845.55 26.8124 1845.55 32.0988 Z" fill="#000000" fill-rule="nonzero" fill-opacity="1" /><path clip-path="url(#clip970)" d="M1901.48 30.8748 L1901.48 33.2186 L1879.45 33.2186 Q1879.77 38.1665 1882.42 40.7706 Q1885.1 43.3487 1889.87 43.3487 Q1892.63 43.3487 1895.21 42.6716 Q1897.81 41.9946 1900.36 40.6404 L1900.36 45.1716 Q1897.79 46.2654 1895.08 46.8383 Q1892.37 47.4112 1889.58 47.4112 Q1882.6 47.4112 1878.52 43.3487 Q1874.45 39.2862 1874.45 32.3592 Q1874.45 25.1978 1878.31 21.0051 Q1882.19 16.7864 1888.75 16.7864 Q1894.63 16.7864 1898.05 20.5884 Q1901.48 24.3645 1901.48 30.8748 M1896.69 29.4686 Q1896.64 25.5363 1894.48 23.1926 Q1892.34 20.8488 1888.8 20.8488 Q1884.79 20.8488 1882.37 23.1145 Q1879.97 25.3801 1879.61 29.4946 L1896.69 29.4686 Z" fill="#000000" fill-rule="nonzero" fill-opacity="1" /><path clip-path="url(#clip970)" d="M1924.11 6.13538 L1924.11 10.1197 L1919.53 10.1197 Q1916.95 10.1197 1915.94 11.1614 Q1914.95 12.2031 1914.95 14.9114 L1914.95 17.4895 L1922.84 17.4895 L1922.84 21.2134 L1914.95 21.2134 L1914.95 46.656 L1910.13 46.656 L1910.13 21.2134 L1905.55 21.2134 L1905.55 17.4895 L1910.13 17.4895 L1910.13 15.4583 Q1910.13 10.5885 1912.4 8.37496 Q1914.66 6.13538 1919.58 6.13538 L1924.11 6.13538 Z" fill="#000000" fill-rule="nonzero" fill-opacity="1" /><path clip-path="url(#clip970)" d="M1928.12 6.13538 L1932.92 6.13538 L1932.92 46.656 L1928.12 46.656 L1928.12 6.13538 Z" fill="#000000" fill-rule="nonzero" fill-opacity="1" /><path clip-path="url(#clip970)" d="M1956.2 31.9946 Q1950.39 31.9946 1948.15 33.3227 Q1945.91 34.6509 1945.91 37.854 Q1945.91 40.406 1947.58 41.9164 Q1949.27 43.4008 1952.16 43.4008 Q1956.14 43.4008 1958.54 40.5883 Q1960.96 37.7498 1960.96 33.0623 L1960.96 31.9946 L1956.2 31.9946 M1965.75 30.0155 L1965.75 46.656 L1960.96 46.656 L1960.96 42.2289 Q1959.32 44.8852 1956.87 46.1612 Q1954.43 47.4112 1950.88 47.4112 Q1946.41 47.4112 1943.75 44.9112 Q1941.12 42.3852 1941.12 38.1665 Q1941.12 33.2446 1944.4 30.7446 Q1947.71 28.2446 1954.24 28.2446 L1960.96 28.2446 L1960.96 27.7759 Q1960.96 24.4686 1958.78 22.6718 Q1956.61 20.8488 1952.68 20.8488 Q1950.18 20.8488 1947.81 21.4478 Q1945.44 22.0468 1943.25 23.2447 L1943.25 18.8176 Q1945.88 17.802 1948.36 17.3072 Q1950.83 16.7864 1953.18 16.7864 Q1959.5 16.7864 1962.63 20.0676 Q1965.75 23.3488 1965.75 30.0155 Z" fill="#000000" fill-rule="nonzero" fill-opacity="1" /><path clip-path="url(#clip970)" d="M1980.36 9.20828 L1980.36 17.4895 L1990.23 17.4895 L1990.23 21.2134 L1980.36 21.2134 L1980.36 37.0467 Q1980.36 40.6144 1981.33 41.63 Q1982.32 42.6456 1985.31 42.6456 L1990.23 42.6456 L1990.23 46.656 L1985.31 46.656 Q1979.76 46.656 1977.66 44.5987 Q1975.55 42.5154 1975.55 37.0467 L1975.55 21.2134 L1972.03 21.2134 L1972.03 17.4895 L1975.55 17.4895 L1975.55 9.20828 L1980.36 9.20828 Z" fill="#000000" fill-rule="nonzero" fill-opacity="1" /><path clip-path="url(#clip970)" d="M2007.84 20.8488 Q2003.98 20.8488 2001.74 23.8697 Q1999.5 26.8644 1999.5 32.0988 Q1999.5 37.3331 2001.72 40.354 Q2003.96 43.3487 2007.84 43.3487 Q2011.67 43.3487 2013.91 40.3279 Q2016.14 37.3071 2016.14 32.0988 Q2016.14 26.9165 2013.91 23.8957 Q2011.67 20.8488 2007.84 20.8488 M2007.84 16.7864 Q2014.09 16.7864 2017.66 20.8488 Q2021.22 24.9113 2021.22 32.0988 Q2021.22 39.2602 2017.66 43.3487 Q2014.09 47.4112 2007.84 47.4112 Q2001.56 47.4112 1997.99 43.3487 Q1994.45 39.2602 1994.45 32.0988 Q1994.45 24.9113 1997.99 20.8488 Q2001.56 16.7864 2007.84 16.7864 Z" fill="#000000" fill-rule="nonzero" fill-opacity="1" /><path clip-path="url(#clip970)" d="M2046.07 21.9686 Q2045.26 21.4999 2044.3 21.2916 Q2043.36 21.0572 2042.21 21.0572 Q2038.15 21.0572 2035.96 23.7134 Q2033.8 26.3436 2033.8 31.2915 L2033.8 46.656 L2028.98 46.656 L2028.98 17.4895 L2033.8 17.4895 L2033.8 22.0207 Q2035.31 19.3645 2037.73 18.0884 Q2040.15 16.7864 2043.62 16.7864 Q2044.11 16.7864 2044.71 16.8645 Q2045.31 16.9166 2046.04 17.0468 L2046.07 21.9686 Z" fill="#000000" fill-rule="nonzero" fill-opacity="1" /><path clip-path="url(#clip973)" d="M1526.14 1054.36 L1568.25 1049.37 L1610.36 1022.73 L1652.47 1011.04 L1694.58 955.282 L1736.69 920.465 L1778.8 874.409 L1820.91 860.933 L1863.02 840.497 L1905.13 830.797 L1947.24 801.637 L1989.35 794.657 L2031.46 803.797 L2073.57 867.161 L2115.68 856.346 L2157.79 808.317 L2199.9 723.512 L2242.01 632.599 L2284.12 531.581 L2326.23 484.004 L2326.23 120.65 L2284.12 161.897 L2242.01 233.621 L2199.9 300.627 L2157.79 385.17 L2115.68 469.764 L2073.57 493.371 L2031.46 542.795 L1989.35 572.001 L1947.24 618.162 L1905.13 625.986 L1863.02 651.65 L1820.91 704.192 L1778.8 715.808 L1736.69 733.107 L1694.58 789.07 L1652.47 838.91 L1610.36 854.652 L1568.25 913.365 L1526.14 979.804  Z" fill="#009af9" fill-rule="evenodd" fill-opacity="0.1"/>
<polyline clip-path="url(#clip973)" style="stroke:#009af9; stroke-linecap:round; stroke-linejoin:round; stroke-width:4; stroke-opacity:1; fill:none" points="1526.14,1017.08 1568.25,981.365 1610.36,938.692 1652.47,924.976 1694.58,872.176 1736.69,826.786 1778.8,795.109 1820.91,782.563 1863.02,746.074 1905.13,728.391 1947.24,709.9 1989.35,683.329 2031.46,673.296 2073.57,680.266 2115.68,663.055 2157.79,596.743 2199.9,512.069 2242.01,433.11 2284.12,346.739 2326.23,302.327 "/>
<path clip-path="url(#clip973)" d="M1526.14 1070.59 L1568.25 1019.35 L1610.36 988.917 L1652.47 950.191 L1694.58 943.317 L1736.69 909.867 L1778.8 903.43 L1820.91 900.342 L1863.02 889.916 L1905.13 898.845 L1947.24 855.604 L1989.35 808.362 L2031.46 733.148 L2073.57 736.57 L2115.68 707.492 L2157.79 694.308 L2199.9 634.544 L2242.01 595.743 L2284.12 510.221 L2326.23 522.796 L2326.23 259.107 L2284.12 300.6 L2242.01 325.093 L2199.9 363.07 L2157.79 400.461 L2115.68 411.245 L2073.57 442.751 L2031.46 448.618 L1989.35 477.55 L1947.24 532.452 L1905.13 570.651 L1863.02 608.372 L1820.91 657.155 L1778.8 680.536 L1736.69 664.176 L1694.58 709.258 L1652.47 770.655 L1610.36 884.451 L1568.25 930.675 L1526.14 942.348  Z" fill="#e26f46" fill-rule="evenodd" fill-opacity="0.1"/>
<polyline clip-path="url(#clip973)" style="stroke:#e26f46; stroke-linecap:round; stroke-linejoin:round; stroke-width:4; stroke-opacity:1; fill:none" points="1526.14,1006.47 1568.25,975.012 1610.36,936.684 1652.47,860.423 1694.58,826.288 1736.69,787.021 1778.8,791.983 1820.91,778.749 1863.02,749.144 1905.13,734.748 1947.24,694.028 1989.35,642.956 2031.46,590.883 2073.57,589.661 2115.68,559.368 2157.79,547.385 2199.9,498.807 2242.01,460.418 2284.12,405.41 2326.23,390.952 "/>
</svg>
