<?xml version="1.0" encoding="utf-8"?>
<svg xmlns="http://www.w3.org/2000/svg" xmlns:xlink="http://www.w3.org/1999/xlink" width="600" height="400" viewBox="0 0 2400 1600">
<defs>
  <clipPath id="clip200">
    <rect x="0" y="0" width="2400" height="1600"/>
  </clipPath>
</defs>
<path clip-path="url(#clip200)" d="M0 1600 L2400 1600 L2400 0 L0 0  Z" fill="#ffffff" fill-rule="evenodd" fill-opacity="1"/>
<defs>
  <clipPath id="clip201">
    <rect x="480" y="0" width="1681" height="1600"/>
  </clipPath>
</defs>
<path clip-path="url(#clip200)" d="M230.765 1486.45 L2352.76 1486.45 L2352.76 106.192 L230.765 106.192  Z" fill="#ffffff" fill-rule="evenodd" fill-opacity="1"/>
<defs>
  <clipPath id="clip202">
    <rect x="230" y="106" width="2123" height="1381"/>
  </clipPath>
</defs>
<polyline clip-path="url(#clip202)" style="stroke:#000000; stroke-linecap:round; stroke-linejoin:round; stroke-width:2; stroke-opacity:0.1; fill:none" points="541.056,1486.45 541.056,106.192 "/>
<polyline clip-path="url(#clip202)" style="stroke:#000000; stroke-linecap:round; stroke-linejoin:round; stroke-width:2; stroke-opacity:0.1; fill:none" points="916.408,1486.45 916.408,106.192 "/>
<polyline clip-path="url(#clip202)" style="stroke:#000000; stroke-linecap:round; stroke-linejoin:round; stroke-width:2; stroke-opacity:0.1; fill:none" points="1291.76,1486.45 1291.76,106.192 "/>
<polyline clip-path="url(#clip202)" style="stroke:#000000; stroke-linecap:round; stroke-linejoin:round; stroke-width:2; stroke-opacity:0.1; fill:none" points="1667.11,1486.45 1667.11,106.192 "/>
<polyline clip-path="url(#clip202)" style="stroke:#000000; stroke-linecap:round; stroke-linejoin:round; stroke-width:2; stroke-opacity:0.1; fill:none" points="2042.46,1486.45 2042.46,106.192 "/>
<polyline clip-path="url(#clip202)" style="stroke:#000000; stroke-linecap:round; stroke-linejoin:round; stroke-width:2; stroke-opacity:0.1; fill:none" points="230.765,1463.95 2352.76,1463.95 "/>
<polyline clip-path="url(#clip202)" style="stroke:#000000; stroke-linecap:round; stroke-linejoin:round; stroke-width:2; stroke-opacity:0.1; fill:none" points="230.765,1259.42 2352.76,1259.42 "/>
<polyline clip-path="url(#clip202)" style="stroke:#000000; stroke-linecap:round; stroke-linejoin:round; stroke-width:2; stroke-opacity:0.1; fill:none" points="230.765,1054.88 2352.76,1054.88 "/>
<polyline clip-path="url(#clip202)" style="stroke:#000000; stroke-linecap:round; stroke-linejoin:round; stroke-width:2; stroke-opacity:0.1; fill:none" points="230.765,850.349 2352.76,850.349 "/>
<polyline clip-path="url(#clip202)" style="stroke:#000000; stroke-linecap:round; stroke-linejoin:round; stroke-width:2; stroke-opacity:0.1; fill:none" points="230.765,645.814 2352.76,645.814 "/>
<polyline clip-path="url(#clip202)" style="stroke:#000000; stroke-linecap:round; stroke-linejoin:round; stroke-width:2; stroke-opacity:0.1; fill:none" points="230.765,441.279 2352.76,441.279 "/>
<polyline clip-path="url(#clip202)" style="stroke:#000000; stroke-linecap:round; stroke-linejoin:round; stroke-width:2; stroke-opacity:0.1; fill:none" points="230.765,236.744 2352.76,236.744 "/>
<polyline clip-path="url(#clip200)" style="stroke:#000000; stroke-linecap:round; stroke-linejoin:round; stroke-width:4; stroke-opacity:1; fill:none" points="230.765,1486.45 2352.76,1486.45 "/>
<polyline clip-path="url(#clip200)" style="stroke:#000000; stroke-linecap:round; stroke-linejoin:round; stroke-width:4; stroke-opacity:1; fill:none" points="541.056,1486.45 541.056,1467.55 "/>
<polyline clip-path="url(#clip200)" style="stroke:#000000; stroke-linecap:round; stroke-linejoin:round; stroke-width:4; stroke-opacity:1; fill:none" points="916.408,1486.45 916.408,1467.55 "/>
<polyline clip-path="url(#clip200)" style="stroke:#000000; stroke-linecap:round; stroke-linejoin:round; stroke-width:4; stroke-opacity:1; fill:none" points="1291.76,1486.45 1291.76,1467.55 "/>
<polyline clip-path="url(#clip200)" style="stroke:#000000; stroke-linecap:round; stroke-linejoin:round; stroke-width:4; stroke-opacity:1; fill:none" points="1667.11,1486.45 1667.11,1467.55 "/>
<polyline clip-path="url(#clip200)" style="stroke:#000000; stroke-linecap:round; stroke-linejoin:round; stroke-width:4; stroke-opacity:1; fill:none" points="2042.46,1486.45 2042.46,1467.55 "/>
<path clip-path="url(#clip200)" d="M545.303 1530.21 Q548.66 1530.93 550.535 1533.2 Q552.433 1535.47 552.433 1538.8 Q552.433 1543.92 548.914 1546.72 Q545.396 1549.52 538.915 1549.52 Q536.739 1549.52 534.424 1549.08 Q532.132 1548.66 529.678 1547.81 L529.678 1543.29 Q531.623 1544.43 533.938 1545.01 Q536.252 1545.58 538.776 1545.58 Q543.174 1545.58 545.465 1543.85 Q547.78 1542.11 547.78 1538.8 Q547.78 1535.75 545.627 1534.03 Q543.498 1532.3 539.678 1532.3 L535.651 1532.3 L535.651 1528.45 L539.864 1528.45 Q543.313 1528.45 545.141 1527.09 Q546.97 1525.7 546.97 1523.11 Q546.97 1520.45 545.072 1519.03 Q543.197 1517.6 539.678 1517.6 Q537.757 1517.6 535.558 1518.01 Q533.359 1518.43 530.72 1519.31 L530.72 1515.14 Q533.382 1514.4 535.697 1514.03 Q538.035 1513.66 540.095 1513.66 Q545.419 1513.66 548.521 1516.09 Q551.623 1518.5 551.623 1522.62 Q551.623 1525.49 549.979 1527.48 Q548.336 1529.45 545.303 1530.21 Z" fill="#000000" fill-rule="nonzero" fill-opacity="1" /><path clip-path="url(#clip200)" d="M916.813 1529.7 Q913.665 1529.7 911.813 1531.86 Q909.984 1534.01 909.984 1537.76 Q909.984 1541.49 911.813 1543.66 Q913.665 1545.82 916.813 1545.82 Q919.961 1545.82 921.79 1543.66 Q923.642 1541.49 923.642 1537.76 Q923.642 1534.01 921.79 1531.86 Q919.961 1529.7 916.813 1529.7 M926.095 1515.05 L926.095 1519.31 Q924.336 1518.48 922.531 1518.04 Q920.748 1517.6 918.989 1517.6 Q914.359 1517.6 911.906 1520.72 Q909.475 1523.85 909.128 1530.17 Q910.494 1528.15 912.554 1527.09 Q914.614 1526 917.091 1526 Q922.299 1526 925.308 1529.17 Q928.341 1532.32 928.341 1537.76 Q928.341 1543.08 925.193 1546.3 Q922.044 1549.52 916.813 1549.52 Q910.818 1549.52 907.646 1544.94 Q904.475 1540.33 904.475 1531.6 Q904.475 1523.41 908.364 1518.55 Q912.253 1513.66 918.804 1513.66 Q920.563 1513.66 922.345 1514.01 Q924.151 1514.36 926.095 1515.05 Z" fill="#000000" fill-rule="nonzero" fill-opacity="1" /><path clip-path="url(#clip200)" d="M1282.06 1548.13 L1282.06 1543.87 Q1283.82 1544.7 1285.63 1545.14 Q1287.43 1545.58 1289.17 1545.58 Q1293.8 1545.58 1296.23 1542.48 Q1298.68 1539.36 1299.03 1533.01 Q1297.69 1535.01 1295.63 1536.07 Q1293.57 1537.13 1291.07 1537.13 Q1285.88 1537.13 1282.85 1534.01 Q1279.84 1530.86 1279.84 1525.42 Q1279.84 1520.1 1282.99 1516.88 Q1286.14 1513.66 1291.37 1513.66 Q1297.36 1513.66 1300.51 1518.27 Q1303.68 1522.85 1303.68 1531.6 Q1303.68 1539.77 1299.79 1544.66 Q1295.93 1549.52 1289.38 1549.52 Q1287.62 1549.52 1285.81 1549.17 Q1284.01 1548.82 1282.06 1548.13 M1291.37 1533.48 Q1294.51 1533.48 1296.34 1531.32 Q1298.2 1529.17 1298.2 1525.42 Q1298.2 1521.7 1296.34 1519.54 Q1294.51 1517.37 1291.37 1517.37 Q1288.22 1517.37 1286.37 1519.54 Q1284.54 1521.7 1284.54 1525.42 Q1284.54 1529.17 1286.37 1531.32 Q1288.22 1533.48 1291.37 1533.48 Z" fill="#000000" fill-rule="nonzero" fill-opacity="1" /><path clip-path="url(#clip200)" d="M1642.6 1544.91 L1650.24 1544.91 L1650.24 1518.55 L1641.93 1520.21 L1641.93 1515.95 L1650.19 1514.29 L1654.87 1514.29 L1654.87 1544.91 L1662.51 1544.91 L1662.51 1548.85 L1642.6 1548.85 L1642.6 1544.91 Z" fill="#000000" fill-rule="nonzero" fill-opacity="1" /><path clip-path="url(#clip200)" d="M1675.98 1544.91 L1692.3 1544.91 L1692.3 1548.85 L1670.35 1548.85 L1670.35 1544.91 Q1673.02 1542.16 1677.6 1537.53 Q1682.2 1532.88 1683.39 1531.53 Q1685.63 1529.01 1686.51 1527.27 Q1687.41 1525.51 1687.41 1523.82 Q1687.41 1521.07 1685.47 1519.33 Q1683.55 1517.6 1680.45 1517.6 Q1678.25 1517.6 1675.79 1518.36 Q1673.36 1519.13 1670.58 1520.68 L1670.58 1515.95 Q1673.41 1514.82 1675.86 1514.24 Q1678.32 1513.66 1680.35 1513.66 Q1685.72 1513.66 1688.92 1516.35 Q1692.11 1519.03 1692.11 1523.52 Q1692.11 1525.65 1691.3 1527.57 Q1690.52 1529.47 1688.41 1532.07 Q1687.83 1532.74 1684.73 1535.95 Q1681.63 1539.15 1675.98 1544.91 Z" fill="#000000" fill-rule="nonzero" fill-opacity="1" /><path clip-path="url(#clip200)" d="M2017.65 1544.91 L2025.29 1544.91 L2025.29 1518.55 L2016.98 1520.21 L2016.98 1515.95 L2025.24 1514.29 L2029.92 1514.29 L2029.92 1544.91 L2037.56 1544.91 L2037.56 1548.85 L2017.65 1548.85 L2017.65 1544.91 Z" fill="#000000" fill-rule="nonzero" fill-opacity="1" /><path clip-path="url(#clip200)" d="M2047.05 1514.29 L2065.4 1514.29 L2065.4 1518.22 L2051.33 1518.22 L2051.33 1526.7 Q2052.35 1526.35 2053.37 1526.19 Q2054.39 1526 2055.4 1526 Q2061.19 1526 2064.57 1529.17 Q2067.95 1532.34 2067.95 1537.76 Q2067.95 1543.34 2064.48 1546.44 Q2061.01 1549.52 2054.69 1549.52 Q2052.51 1549.52 2050.24 1549.15 Q2048 1548.78 2045.59 1548.04 L2045.59 1543.34 Q2047.67 1544.47 2049.9 1545.03 Q2052.12 1545.58 2054.59 1545.58 Q2058.6 1545.58 2060.94 1543.48 Q2063.27 1541.37 2063.27 1537.76 Q2063.27 1534.15 2060.94 1532.04 Q2058.6 1529.94 2054.59 1529.94 Q2052.72 1529.94 2050.84 1530.35 Q2048.99 1530.77 2047.05 1531.65 L2047.05 1514.29 Z" fill="#000000" fill-rule="nonzero" fill-opacity="1" /><polyline clip-path="url(#clip200)" style="stroke:#000000; stroke-linecap:round; stroke-linejoin:round; stroke-width:4; stroke-opacity:1; fill:none" points="230.765,1486.45 230.765,106.192 "/>
<polyline clip-path="url(#clip200)" style="stroke:#000000; stroke-linecap:round; stroke-linejoin:round; stroke-width:4; stroke-opacity:1; fill:none" points="230.765,1463.95 249.662,1463.95 "/>
<polyline clip-path="url(#clip200)" style="stroke:#000000; stroke-linecap:round; stroke-linejoin:round; stroke-width:4; stroke-opacity:1; fill:none" points="230.765,1259.42 249.662,1259.42 "/>
<polyline clip-path="url(#clip200)" style="stroke:#000000; stroke-linecap:round; stroke-linejoin:round; stroke-width:4; stroke-opacity:1; fill:none" points="230.765,1054.88 249.662,1054.88 "/>
<polyline clip-path="url(#clip200)" style="stroke:#000000; stroke-linecap:round; stroke-linejoin:round; stroke-width:4; stroke-opacity:1; fill:none" points="230.765,850.349 249.662,850.349 "/>
<polyline clip-path="url(#clip200)" style="stroke:#000000; stroke-linecap:round; stroke-linejoin:round; stroke-width:4; stroke-opacity:1; fill:none" points="230.765,645.814 249.662,645.814 "/>
<polyline clip-path="url(#clip200)" style="stroke:#000000; stroke-linecap:round; stroke-linejoin:round; stroke-width:4; stroke-opacity:1; fill:none" points="230.765,441.279 249.662,441.279 "/>
<polyline clip-path="url(#clip200)" style="stroke:#000000; stroke-linecap:round; stroke-linejoin:round; stroke-width:4; stroke-opacity:1; fill:none" points="230.765,236.744 249.662,236.744 "/>
<path clip-path="url(#clip200)" d="M50.9921 1446.67 L73.2142 1446.67 L73.2142 1448.67 L60.668 1481.23 L55.7838 1481.23 L67.5893 1450.61 L50.9921 1450.61 L50.9921 1446.67 Z" fill="#000000" fill-rule="nonzero" fill-opacity="1" /><path clip-path="url(#clip200)" d="M86.3623 1477.3 L102.682 1477.3 L102.682 1481.23 L80.7373 1481.23 L80.7373 1477.3 Q83.3994 1474.54 87.9827 1469.92 Q92.5891 1465.26 93.7697 1463.92 Q96.015 1461.4 96.8947 1459.66 Q97.7974 1457.9 97.7974 1456.21 Q97.7974 1453.46 95.853 1451.72 Q93.9317 1449.98 90.8299 1449.98 Q88.6308 1449.98 86.1771 1450.75 Q83.7466 1451.51 80.9688 1453.06 L80.9688 1448.34 Q83.7929 1447.21 86.2466 1446.63 Q88.7003 1446.05 90.7373 1446.05 Q96.1076 1446.05 99.3021 1448.73 Q102.496 1451.42 102.496 1455.91 Q102.496 1458.04 101.686 1459.96 Q100.899 1461.86 98.7928 1464.45 Q98.2141 1465.12 95.1123 1468.34 Q92.0104 1471.54 86.3623 1477.3 Z" fill="#000000" fill-rule="nonzero" fill-opacity="1" /><path clip-path="url(#clip200)" d="M122.496 1449.75 Q118.885 1449.75 117.057 1453.32 Q115.251 1456.86 115.251 1463.99 Q115.251 1471.1 117.057 1474.66 Q118.885 1478.2 122.496 1478.2 Q126.131 1478.2 127.936 1474.66 Q129.765 1471.1 129.765 1463.99 Q129.765 1456.86 127.936 1453.32 Q126.131 1449.75 122.496 1449.75 M122.496 1446.05 Q128.307 1446.05 131.362 1450.66 Q134.441 1455.24 134.441 1463.99 Q134.441 1472.72 131.362 1477.32 Q128.307 1481.91 122.496 1481.91 Q116.686 1481.91 113.608 1477.32 Q110.552 1472.72 110.552 1463.99 Q110.552 1455.24 113.608 1450.66 Q116.686 1446.05 122.496 1446.05 Z" fill="#000000" fill-rule="nonzero" fill-opacity="1" /><path clip-path="url(#clip200)" d="M152.658 1449.75 Q149.047 1449.75 147.218 1453.32 Q145.413 1456.86 145.413 1463.99 Q145.413 1471.1 147.218 1474.66 Q149.047 1478.2 152.658 1478.2 Q156.292 1478.2 158.098 1474.66 Q159.927 1471.1 159.927 1463.99 Q159.927 1456.86 158.098 1453.32 Q156.292 1449.75 152.658 1449.75 M152.658 1446.05 Q158.468 1446.05 161.524 1450.66 Q164.603 1455.24 164.603 1463.99 Q164.603 1472.72 161.524 1477.32 Q158.468 1481.91 152.658 1481.91 Q146.848 1481.91 143.769 1477.32 Q140.714 1472.72 140.714 1463.99 Q140.714 1455.24 143.769 1450.66 Q146.848 1446.05 152.658 1446.05 Z" fill="#000000" fill-rule="nonzero" fill-opacity="1" /><path clip-path="url(#clip200)" d="M182.82 1449.75 Q179.209 1449.75 177.38 1453.32 Q175.575 1456.86 175.575 1463.99 Q175.575 1471.1 177.38 1474.66 Q179.209 1478.2 182.82 1478.2 Q186.454 1478.2 188.26 1474.66 Q190.089 1471.1 190.089 1463.99 Q190.089 1456.86 188.26 1453.32 Q186.454 1449.75 182.82 1449.75 M182.82 1446.05 Q188.63 1446.05 191.686 1450.66 Q194.765 1455.24 194.765 1463.99 Q194.765 1472.72 191.686 1477.32 Q188.63 1481.91 182.82 1481.91 Q177.01 1481.91 173.931 1477.32 Q170.876 1472.72 170.876 1463.99 Q170.876 1455.24 173.931 1450.66 Q177.01 1446.05 182.82 1446.05 Z" fill="#000000" fill-rule="nonzero" fill-opacity="1" /><path clip-path="url(#clip200)" d="M50.9921 1242.14 L73.2142 1242.14 L73.2142 1244.13 L60.668 1276.7 L55.7838 1276.7 L67.5893 1246.07 L50.9921 1246.07 L50.9921 1242.14 Z" fill="#000000" fill-rule="nonzero" fill-opacity="1" /><path clip-path="url(#clip200)" d="M96.5011 1258.07 Q99.8576 1258.78 101.733 1261.05 Q103.631 1263.32 103.631 1266.65 Q103.631 1271.77 100.112 1274.57 Q96.5937 1277.37 90.1123 1277.37 Q87.9364 1277.37 85.6216 1276.93 Q83.3299 1276.51 80.8762 1275.66 L80.8762 1271.14 Q82.8207 1272.28 85.1355 1272.86 Q87.4503 1273.44 89.9734 1273.44 Q94.3715 1273.44 96.6632 1271.7 Q98.978 1269.96 98.978 1266.65 Q98.978 1263.6 96.8252 1261.88 Q94.6956 1260.15 90.8762 1260.15 L86.8484 1260.15 L86.8484 1256.31 L91.0614 1256.31 Q94.5104 1256.31 96.3391 1254.94 Q98.1678 1253.55 98.1678 1250.96 Q98.1678 1248.3 96.2697 1246.88 Q94.3947 1245.45 90.8762 1245.45 Q88.9549 1245.45 86.7558 1245.87 Q84.5568 1246.28 81.9179 1247.16 L81.9179 1243 Q84.5799 1242.26 86.8947 1241.88 Q89.2327 1241.51 91.2928 1241.51 Q96.6169 1241.51 99.7187 1243.94 Q102.821 1246.35 102.821 1250.47 Q102.821 1253.34 101.177 1255.33 Q99.5335 1257.3 96.5011 1258.07 Z" fill="#000000" fill-rule="nonzero" fill-opacity="1" /><path clip-path="url(#clip200)" d="M122.496 1245.22 Q118.885 1245.22 117.057 1248.78 Q115.251 1252.32 115.251 1259.45 Q115.251 1266.56 117.057 1270.13 Q118.885 1273.67 122.496 1273.67 Q126.131 1273.67 127.936 1270.13 Q129.765 1266.56 129.765 1259.45 Q129.765 1252.32 127.936 1248.78 Q126.131 1245.22 122.496 1245.22 M122.496 1241.51 Q128.307 1241.51 131.362 1246.12 Q134.441 1250.7 134.441 1259.45 Q134.441 1268.18 131.362 1272.79 Q128.307 1277.37 122.496 1277.37 Q116.686 1277.37 113.608 1272.79 Q110.552 1268.18 110.552 1259.45 Q110.552 1250.7 113.608 1246.12 Q116.686 1241.51 122.496 1241.51 Z" fill="#000000" fill-rule="nonzero" fill-opacity="1" /><path clip-path="url(#clip200)" d="M152.658 1245.22 Q149.047 1245.22 147.218 1248.78 Q145.413 1252.32 145.413 1259.45 Q145.413 1266.56 147.218 1270.13 Q149.047 1273.67 152.658 1273.67 Q156.292 1273.67 158.098 1270.13 Q159.927 1266.56 159.927 1259.45 Q159.927 1252.32 158.098 1248.78 Q156.292 1245.22 152.658 1245.22 M152.658 1241.51 Q158.468 1241.51 161.524 1246.12 Q164.603 1250.7 164.603 1259.45 Q164.603 1268.18 161.524 1272.79 Q158.468 1277.37 152.658 1277.37 Q146.848 1277.37 143.769 1272.79 Q140.714 1268.18 140.714 1259.45 Q140.714 1250.7 143.769 1246.12 Q146.848 1241.51 152.658 1241.51 Z" fill="#000000" fill-rule="nonzero" fill-opacity="1" /><path clip-path="url(#clip200)" d="M182.82 1245.22 Q179.209 1245.22 177.38 1248.78 Q175.575 1252.32 175.575 1259.45 Q175.575 1266.56 177.38 1270.13 Q179.209 1273.67 182.82 1273.67 Q186.454 1273.67 188.26 1270.13 Q190.089 1266.56 190.089 1259.45 Q190.089 1252.32 188.26 1248.78 Q186.454 1245.22 182.82 1245.22 M182.82 1241.51 Q188.63 1241.51 191.686 1246.12 Q194.765 1250.7 194.765 1259.45 Q194.765 1268.18 191.686 1272.79 Q188.63 1277.37 182.82 1277.37 Q177.01 1277.37 173.931 1272.79 Q170.876 1268.18 170.876 1259.45 Q170.876 1250.7 173.931 1246.12 Q177.01 1241.51 182.82 1241.51 Z" fill="#000000" fill-rule="nonzero" fill-opacity="1" /><path clip-path="url(#clip200)" d="M50.9921 1037.6 L73.2142 1037.6 L73.2142 1039.59 L60.668 1072.16 L55.7838 1072.16 L67.5893 1041.54 L50.9921 1041.54 L50.9921 1037.6 Z" fill="#000000" fill-rule="nonzero" fill-opacity="1" /><path clip-path="url(#clip200)" d="M95.1817 1041.68 L83.3762 1060.13 L95.1817 1060.13 L95.1817 1041.68 M93.9549 1037.6 L99.8345 1037.6 L99.8345 1060.13 L104.765 1060.13 L104.765 1064.02 L99.8345 1064.02 L99.8345 1072.16 L95.1817 1072.16 L95.1817 1064.02 L79.5799 1064.02 L79.5799 1059.5 L93.9549 1037.6 Z" fill="#000000" fill-rule="nonzero" fill-opacity="1" /><path clip-path="url(#clip200)" d="M122.496 1040.68 Q118.885 1040.68 117.057 1044.25 Q115.251 1047.79 115.251 1054.92 Q115.251 1062.03 117.057 1065.59 Q118.885 1069.13 122.496 1069.13 Q126.131 1069.13 127.936 1065.59 Q129.765 1062.03 129.765 1054.92 Q129.765 1047.79 127.936 1044.25 Q126.131 1040.68 122.496 1040.68 M122.496 1036.98 Q128.307 1036.98 131.362 1041.59 Q134.441 1046.17 134.441 1054.92 Q134.441 1063.65 131.362 1068.25 Q128.307 1072.84 122.496 1072.84 Q116.686 1072.84 113.608 1068.25 Q110.552 1063.65 110.552 1054.92 Q110.552 1046.17 113.608 1041.59 Q116.686 1036.98 122.496 1036.98 Z" fill="#000000" fill-rule="nonzero" fill-opacity="1" /><path clip-path="url(#clip200)" d="M152.658 1040.68 Q149.047 1040.68 147.218 1044.25 Q145.413 1047.79 145.413 1054.92 Q145.413 1062.03 147.218 1065.59 Q149.047 1069.13 152.658 1069.13 Q156.292 1069.13 158.098 1065.59 Q159.927 1062.03 159.927 1054.92 Q159.927 1047.79 158.098 1044.25 Q156.292 1040.68 152.658 1040.68 M152.658 1036.98 Q158.468 1036.98 161.524 1041.59 Q164.603 1046.17 164.603 1054.92 Q164.603 1063.65 161.524 1068.25 Q158.468 1072.84 152.658 1072.84 Q146.848 1072.84 143.769 1068.25 Q140.714 1063.65 140.714 1054.92 Q140.714 1046.17 143.769 1041.59 Q146.848 1036.98 152.658 1036.98 Z" fill="#000000" fill-rule="nonzero" fill-opacity="1" /><path clip-path="url(#clip200)" d="M182.82 1040.68 Q179.209 1040.68 177.38 1044.25 Q175.575 1047.79 175.575 1054.92 Q175.575 1062.03 177.38 1065.59 Q179.209 1069.13 182.82 1069.13 Q186.454 1069.13 188.26 1065.59 Q190.089 1062.03 190.089 1054.92 Q190.089 1047.79 188.26 1044.25 Q186.454 1040.68 182.82 1040.68 M182.82 1036.98 Q188.63 1036.98 191.686 1041.59 Q194.765 1046.17 194.765 1054.92 Q194.765 1063.65 191.686 1068.25 Q188.63 1072.84 182.82 1072.84 Q177.01 1072.84 173.931 1068.25 Q170.876 1063.65 170.876 1054.92 Q170.876 1046.17 173.931 1041.59 Q177.01 1036.98 182.82 1036.98 Z" fill="#000000" fill-rule="nonzero" fill-opacity="1" /><path clip-path="url(#clip200)" d="M50.9921 833.069 L73.2142 833.069 L73.2142 835.06 L60.668 867.629 L55.7838 867.629 L67.5893 837.004 L50.9921 837.004 L50.9921 833.069 Z" fill="#000000" fill-rule="nonzero" fill-opacity="1" /><path clip-path="url(#clip200)" d="M82.3808 833.069 L100.737 833.069 L100.737 837.004 L86.6632 837.004 L86.6632 845.476 Q87.6817 845.129 88.7003 844.967 Q89.7188 844.782 90.7373 844.782 Q96.5243 844.782 99.9039 847.953 Q103.284 851.125 103.284 856.541 Q103.284 862.12 99.8113 865.222 Q96.3391 868.3 90.0197 868.3 Q87.8438 868.3 85.5753 867.93 Q83.3299 867.56 80.9225 866.819 L80.9225 862.12 Q83.0058 863.254 85.2281 863.81 Q87.4503 864.365 89.9271 864.365 Q93.9317 864.365 96.2697 862.259 Q98.6076 860.152 98.6076 856.541 Q98.6076 852.93 96.2697 850.824 Q93.9317 848.717 89.9271 848.717 Q88.0521 848.717 86.1771 849.134 Q84.3253 849.55 82.3808 850.43 L82.3808 833.069 Z" fill="#000000" fill-rule="nonzero" fill-opacity="1" /><path clip-path="url(#clip200)" d="M122.496 836.148 Q118.885 836.148 117.057 839.713 Q115.251 843.254 115.251 850.384 Q115.251 857.49 117.057 861.055 Q118.885 864.597 122.496 864.597 Q126.131 864.597 127.936 861.055 Q129.765 857.49 129.765 850.384 Q129.765 843.254 127.936 839.713 Q126.131 836.148 122.496 836.148 M122.496 832.444 Q128.307 832.444 131.362 837.051 Q134.441 841.634 134.441 850.384 Q134.441 859.111 131.362 863.717 Q128.307 868.3 122.496 868.3 Q116.686 868.3 113.608 863.717 Q110.552 859.111 110.552 850.384 Q110.552 841.634 113.608 837.051 Q116.686 832.444 122.496 832.444 Z" fill="#000000" fill-rule="nonzero" fill-opacity="1" /><path clip-path="url(#clip200)" d="M152.658 836.148 Q149.047 836.148 147.218 839.713 Q145.413 843.254 145.413 850.384 Q145.413 857.49 147.218 861.055 Q149.047 864.597 152.658 864.597 Q156.292 864.597 158.098 861.055 Q159.927 857.49 159.927 850.384 Q159.927 843.254 158.098 839.713 Q156.292 836.148 152.658 836.148 M152.658 832.444 Q158.468 832.444 161.524 837.051 Q164.603 841.634 164.603 850.384 Q164.603 859.111 161.524 863.717 Q158.468 868.3 152.658 868.3 Q146.848 868.3 143.769 863.717 Q140.714 859.111 140.714 850.384 Q140.714 841.634 143.769 837.051 Q146.848 832.444 152.658 832.444 Z" fill="#000000" fill-rule="nonzero" fill-opacity="1" /><path clip-path="url(#clip200)" d="M182.82 836.148 Q179.209 836.148 177.38 839.713 Q175.575 843.254 175.575 850.384 Q175.575 857.49 177.38 861.055 Q179.209 864.597 182.82 864.597 Q186.454 864.597 188.26 861.055 Q190.089 857.49 190.089 850.384 Q190.089 843.254 188.26 839.713 Q186.454 836.148 182.82 836.148 M182.82 832.444 Q188.63 832.444 191.686 837.051 Q194.765 841.634 194.765 850.384 Q194.765 859.111 191.686 863.717 Q188.63 868.3 182.82 868.3 Q177.01 868.3 173.931 863.717 Q170.876 859.111 170.876 850.384 Q170.876 841.634 173.931 837.051 Q177.01 832.444 182.82 832.444 Z" fill="#000000" fill-rule="nonzero" fill-opacity="1" /><path clip-path="url(#clip200)" d="M50.9921 628.534 L73.2142 628.534 L73.2142 630.525 L60.668 663.094 L55.7838 663.094 L67.5893 632.469 L50.9921 632.469 L50.9921 628.534 Z" fill="#000000" fill-rule="nonzero" fill-opacity="1" /><path clip-path="url(#clip200)" d="M92.9132 643.951 Q89.7651 643.951 87.9132 646.103 Q86.0845 648.256 86.0845 652.006 Q86.0845 655.733 87.9132 657.909 Q89.7651 660.062 92.9132 660.062 Q96.0613 660.062 97.89 657.909 Q99.7419 655.733 99.7419 652.006 Q99.7419 648.256 97.89 646.103 Q96.0613 643.951 92.9132 643.951 M102.196 629.298 L102.196 633.557 Q100.436 632.724 98.6308 632.284 Q96.8484 631.844 95.0891 631.844 Q90.4595 631.844 88.0058 634.969 Q85.5753 638.094 85.2281 644.413 Q86.5938 642.4 88.654 641.335 Q90.7141 640.247 93.191 640.247 Q98.3993 640.247 101.409 643.418 Q104.441 646.566 104.441 652.006 Q104.441 657.33 101.293 660.548 Q98.1447 663.765 92.9132 663.765 Q86.9179 663.765 83.7466 659.182 Q80.5753 654.575 80.5753 645.849 Q80.5753 637.654 84.4642 632.793 Q88.353 627.909 94.9039 627.909 Q96.6632 627.909 98.4456 628.256 Q100.251 628.603 102.196 629.298 Z" fill="#000000" fill-rule="nonzero" fill-opacity="1" /><path clip-path="url(#clip200)" d="M122.496 631.613 Q118.885 631.613 117.057 635.177 Q115.251 638.719 115.251 645.849 Q115.251 652.955 117.057 656.52 Q118.885 660.062 122.496 660.062 Q126.131 660.062 127.936 656.52 Q129.765 652.955 129.765 645.849 Q129.765 638.719 127.936 635.177 Q126.131 631.613 122.496 631.613 M122.496 627.909 Q128.307 627.909 131.362 632.515 Q134.441 637.099 134.441 645.849 Q134.441 654.575 131.362 659.182 Q128.307 663.765 122.496 663.765 Q116.686 663.765 113.608 659.182 Q110.552 654.575 110.552 645.849 Q110.552 637.099 113.608 632.515 Q116.686 627.909 122.496 627.909 Z" fill="#000000" fill-rule="nonzero" fill-opacity="1" /><path clip-path="url(#clip200)" d="M152.658 631.613 Q149.047 631.613 147.218 635.177 Q145.413 638.719 145.413 645.849 Q145.413 652.955 147.218 656.52 Q149.047 660.062 152.658 660.062 Q156.292 660.062 158.098 656.52 Q159.927 652.955 159.927 645.849 Q159.927 638.719 158.098 635.177 Q156.292 631.613 152.658 631.613 M152.658 627.909 Q158.468 627.909 161.524 632.515 Q164.603 637.099 164.603 645.849 Q164.603 654.575 161.524 659.182 Q158.468 663.765 152.658 663.765 Q146.848 663.765 143.769 659.182 Q140.714 654.575 140.714 645.849 Q140.714 637.099 143.769 632.515 Q146.848 627.909 152.658 627.909 Z" fill="#000000" fill-rule="nonzero" fill-opacity="1" /><path clip-path="url(#clip200)" d="M182.82 631.613 Q179.209 631.613 177.38 635.177 Q175.575 638.719 175.575 645.849 Q175.575 652.955 177.38 656.52 Q179.209 660.062 182.82 660.062 Q186.454 660.062 188.26 656.52 Q190.089 652.955 190.089 645.849 Q190.089 638.719 188.26 635.177 Q186.454 631.613 182.82 631.613 M182.82 627.909 Q188.63 627.909 191.686 632.515 Q194.765 637.099 194.765 645.849 Q194.765 654.575 191.686 659.182 Q188.63 663.765 182.82 663.765 Q177.01 663.765 173.931 659.182 Q170.876 654.575 170.876 645.849 Q170.876 637.099 173.931 632.515 Q177.01 627.909 182.82 627.909 Z" fill="#000000" fill-rule="nonzero" fill-opacity="1" /><path clip-path="url(#clip200)" d="M50.9921 423.999 L73.2142 423.999 L73.2142 425.99 L60.668 458.559 L55.7838 458.559 L67.5893 427.934 L50.9921 427.934 L50.9921 423.999 Z" fill="#000000" fill-rule="nonzero" fill-opacity="1" /><path clip-path="url(#clip200)" d="M81.154 423.999 L103.376 423.999 L103.376 425.99 L90.8299 458.559 L85.9456 458.559 L97.7511 427.934 L81.154 427.934 L81.154 423.999 Z" fill="#000000" fill-rule="nonzero" fill-opacity="1" /><path clip-path="url(#clip200)" d="M122.496 427.077 Q118.885 427.077 117.057 430.642 Q115.251 434.184 115.251 441.313 Q115.251 448.42 117.057 451.985 Q118.885 455.526 122.496 455.526 Q126.131 455.526 127.936 451.985 Q129.765 448.42 129.765 441.313 Q129.765 434.184 127.936 430.642 Q126.131 427.077 122.496 427.077 M122.496 423.374 Q128.307 423.374 131.362 427.98 Q134.441 432.564 134.441 441.313 Q134.441 450.04 131.362 454.647 Q128.307 459.23 122.496 459.23 Q116.686 459.23 113.608 454.647 Q110.552 450.04 110.552 441.313 Q110.552 432.564 113.608 427.98 Q116.686 423.374 122.496 423.374 Z" fill="#000000" fill-rule="nonzero" fill-opacity="1" /><path clip-path="url(#clip200)" d="M152.658 427.077 Q149.047 427.077 147.218 430.642 Q145.413 434.184 145.413 441.313 Q145.413 448.42 147.218 451.985 Q149.047 455.526 152.658 455.526 Q156.292 455.526 158.098 451.985 Q159.927 448.42 159.927 441.313 Q159.927 434.184 158.098 430.642 Q156.292 427.077 152.658 427.077 M152.658 423.374 Q158.468 423.374 161.524 427.98 Q164.603 432.564 164.603 441.313 Q164.603 450.04 161.524 454.647 Q158.468 459.23 152.658 459.23 Q146.848 459.23 143.769 454.647 Q140.714 450.04 140.714 441.313 Q140.714 432.564 143.769 427.98 Q146.848 423.374 152.658 423.374 Z" fill="#000000" fill-rule="nonzero" fill-opacity="1" /><path clip-path="url(#clip200)" d="M182.82 427.077 Q179.209 427.077 177.38 430.642 Q175.575 434.184 175.575 441.313 Q175.575 448.42 177.38 451.985 Q179.209 455.526 182.82 455.526 Q186.454 455.526 188.26 451.985 Q190.089 448.42 190.089 441.313 Q190.089 434.184 188.26 430.642 Q186.454 427.077 182.82 427.077 M182.82 423.374 Q188.63 423.374 191.686 427.98 Q194.765 432.564 194.765 441.313 Q194.765 450.04 191.686 454.647 Q188.63 459.23 182.82 459.23 Q177.01 459.23 173.931 454.647 Q170.876 450.04 170.876 441.313 Q170.876 432.564 173.931 427.98 Q177.01 423.374 182.82 423.374 Z" fill="#000000" fill-rule="nonzero" fill-opacity="1" /><path clip-path="url(#clip200)" d="M50.9921 219.464 L73.2142 219.464 L73.2142 221.454 L60.668 254.024 L55.7838 254.024 L67.5893 223.399 L50.9921 223.399 L50.9921 219.464 Z" fill="#000000" fill-rule="nonzero" fill-opacity="1" /><path clip-path="url(#clip200)" d="M92.3345 237.612 Q89.0012 237.612 87.0799 239.394 Q85.1818 241.176 85.1818 244.301 Q85.1818 247.426 87.0799 249.209 Q89.0012 250.991 92.3345 250.991 Q95.6678 250.991 97.5891 249.209 Q99.5104 247.403 99.5104 244.301 Q99.5104 241.176 97.5891 239.394 Q95.691 237.612 92.3345 237.612 M87.6586 235.621 Q84.6494 234.88 82.9595 232.82 Q81.2929 230.76 81.2929 227.797 Q81.2929 223.653 84.2327 221.246 Q87.1956 218.839 92.3345 218.839 Q97.4965 218.839 100.436 221.246 Q103.376 223.653 103.376 227.797 Q103.376 230.76 101.686 232.82 Q100.02 234.88 97.0335 235.621 Q100.413 236.408 102.288 238.7 Q104.186 240.991 104.186 244.301 Q104.186 249.325 101.108 252.01 Q98.0521 254.695 92.3345 254.695 Q86.6169 254.695 83.5382 252.01 Q80.4827 249.325 80.4827 244.301 Q80.4827 240.991 82.3808 238.7 Q84.279 236.408 87.6586 235.621 M85.9456 228.237 Q85.9456 230.922 87.6123 232.427 Q89.3021 233.931 92.3345 233.931 Q95.3437 233.931 97.0335 232.427 Q98.7465 230.922 98.7465 228.237 Q98.7465 225.552 97.0335 224.047 Q95.3437 222.542 92.3345 222.542 Q89.3021 222.542 87.6123 224.047 Q85.9456 225.552 85.9456 228.237 Z" fill="#000000" fill-rule="nonzero" fill-opacity="1" /><path clip-path="url(#clip200)" d="M122.496 222.542 Q118.885 222.542 117.057 226.107 Q115.251 229.649 115.251 236.778 Q115.251 243.885 117.057 247.45 Q118.885 250.991 122.496 250.991 Q126.131 250.991 127.936 247.45 Q129.765 243.885 129.765 236.778 Q129.765 229.649 127.936 226.107 Q126.131 222.542 122.496 222.542 M122.496 218.839 Q128.307 218.839 131.362 223.445 Q134.441 228.028 134.441 236.778 Q134.441 245.505 131.362 250.112 Q128.307 254.695 122.496 254.695 Q116.686 254.695 113.608 250.112 Q110.552 245.505 110.552 236.778 Q110.552 228.028 113.608 223.445 Q116.686 218.839 122.496 218.839 Z" fill="#000000" fill-rule="nonzero" fill-opacity="1" /><path clip-path="url(#clip200)" d="M152.658 222.542 Q149.047 222.542 147.218 226.107 Q145.413 229.649 145.413 236.778 Q145.413 243.885 147.218 247.45 Q149.047 250.991 152.658 250.991 Q156.292 250.991 158.098 247.45 Q159.927 243.885 159.927 236.778 Q159.927 229.649 158.098 226.107 Q156.292 222.542 152.658 222.542 M152.658 218.839 Q158.468 218.839 161.524 223.445 Q164.603 228.028 164.603 236.778 Q164.603 245.505 161.524 250.112 Q158.468 254.695 152.658 254.695 Q146.848 254.695 143.769 250.112 Q140.714 245.505 140.714 236.778 Q140.714 228.028 143.769 223.445 Q146.848 218.839 152.658 218.839 Z" fill="#000000" fill-rule="nonzero" fill-opacity="1" /><path clip-path="url(#clip200)" d="M182.82 222.542 Q179.209 222.542 177.38 226.107 Q175.575 229.649 175.575 236.778 Q175.575 243.885 177.38 247.45 Q179.209 250.991 182.82 250.991 Q186.454 250.991 188.26 247.45 Q190.089 243.885 190.089 236.778 Q190.089 229.649 188.26 226.107 Q186.454 222.542 182.82 222.542 M182.82 218.839 Q188.63 218.839 191.686 223.445 Q194.765 228.028 194.765 236.778 Q194.765 245.505 191.686 250.112 Q188.63 254.695 182.82 254.695 Q177.01 254.695 173.931 250.112 Q170.876 245.505 170.876 236.778 Q170.876 228.028 173.931 223.445 Q177.01 218.839 182.82 218.839 Z" fill="#000000" fill-rule="nonzero" fill-opacity="1" /><path clip-path="url(#clip200)" d="M1262.23 35.2602 Q1262.23 29.4732 1259.83 26.2904 Q1257.46 23.1075 1253.15 23.1075 Q1248.86 23.1075 1246.46 26.2904 Q1244.09 29.4732 1244.09 35.2602 Q1244.09 41.0183 1246.46 44.2012 Q1248.86 47.384 1253.15 47.384 Q1257.46 47.384 1259.83 44.2012 Q1262.23 41.0183 1262.23 35.2602 M1267.56 47.818 Q1267.56 56.0934 1263.88 60.1154 Q1260.21 64.1663 1252.63 64.1663 Q1249.82 64.1663 1247.33 63.7323 Q1244.84 63.3272 1242.5 62.4592 L1242.5 57.2798 Q1244.84 58.5529 1247.13 59.1606 Q1249.41 59.7682 1251.79 59.7682 Q1257.02 59.7682 1259.63 57.0194 Q1262.23 54.2995 1262.23 48.7729 L1262.23 46.1398 Q1260.58 49.0044 1258.01 50.4222 Q1255.43 51.84 1251.84 51.84 Q1245.88 51.84 1242.24 47.2972 Q1238.59 42.7544 1238.59 35.2602 Q1238.59 27.7371 1242.24 23.1943 Q1245.88 18.6515 1251.84 18.6515 Q1255.43 18.6515 1258.01 20.0693 Q1260.58 21.4872 1262.23 24.3517 L1262.23 19.4328 L1267.56 19.4328 L1267.56 47.818 Z" fill="#000000" fill-rule="nonzero" fill-opacity="1" /><path clip-path="url(#clip200)" d="M1299.85 24.3517 L1299.85 6.81709 L1305.17 6.81709 L1305.17 51.84 L1299.85 51.84 L1299.85 46.9789 Q1298.17 49.8724 1295.59 51.2902 Q1293.05 52.6791 1289.46 52.6791 Q1283.59 52.6791 1279.88 47.9916 Q1276.21 43.3042 1276.21 35.6653 Q1276.21 28.0265 1279.88 23.339 Q1283.59 18.6515 1289.46 18.6515 Q1293.05 18.6515 1295.59 20.0693 Q1298.17 21.4582 1299.85 24.3517 M1281.71 35.6653 Q1281.71 41.5391 1284.11 44.8956 Q1286.54 48.2231 1290.76 48.2231 Q1294.99 48.2231 1297.42 44.8956 Q1299.85 41.5391 1299.85 35.6653 Q1299.85 29.7915 1297.42 26.464 Q1294.99 23.1075 1290.76 23.1075 Q1286.54 23.1075 1284.11 26.464 Q1281.71 29.7915 1281.71 35.6653 Z" fill="#000000" fill-rule="nonzero" fill-opacity="1" /><path clip-path="url(#clip200)" d="M1321.29 46.9789 L1321.29 64.1663 L1315.94 64.1663 L1315.94 19.4328 L1321.29 19.4328 L1321.29 24.3517 Q1322.97 21.4582 1325.51 20.0693 Q1328.09 18.6515 1331.65 18.6515 Q1337.55 18.6515 1341.22 23.339 Q1344.93 28.0265 1344.93 35.6653 Q1344.93 43.3042 1341.22 47.9916 Q1337.55 52.6791 1331.65 52.6791 Q1328.09 52.6791 1325.51 51.2902 Q1322.97 49.8724 1321.29 46.9789 M1339.4 35.6653 Q1339.4 29.7915 1336.97 26.464 Q1334.57 23.1075 1330.35 23.1075 Q1326.12 23.1075 1323.69 26.464 Q1321.29 29.7915 1321.29 35.6653 Q1321.29 41.5391 1323.69 44.8956 Q1326.12 48.2231 1330.35 48.2231 Q1334.57 48.2231 1336.97 44.8956 Q1339.4 41.5391 1339.4 35.6653 Z" fill="#000000" fill-rule="nonzero" fill-opacity="1" /><polyline clip-path="url(#clip202)" style="stroke:#009af9; stroke-linecap:round; stroke-linejoin:round; stroke-width:4; stroke-opacity:1; fill:none" points="290.821,1377.64 415.938,1218.2 541.056,1447.38 666.173,1214.84 791.291,1164.47 916.408,940.509 1041.53,849.599 1166.64,1099.6 1291.76,970.426 1416.88,907.41 1542,869.443 1667.11,608.753 1792.23,508.767 1917.35,513.828 2042.46,471.572 2167.58,275.032 2292.7,145.256 "/>
<path clip-path="url(#clip200)" d="M301.498 255.881 L566.127 255.881 L566.127 152.201 L301.498 152.201  Z" fill="#ffffff" fill-rule="evenodd" fill-opacity="1"/>
<polyline clip-path="url(#clip200)" style="stroke:#000000; stroke-linecap:round; stroke-linejoin:round; stroke-width:4; stroke-opacity:1; fill:none" points="301.498,255.881 566.127,255.881 566.127,152.201 301.498,152.201 301.498,255.881 "/>
<polyline clip-path="url(#clip200)" style="stroke:#009af9; stroke-linecap:round; stroke-linejoin:round; stroke-width:4; stroke-opacity:1; fill:none" points="325.075,204.041 466.541,204.041 "/>
<path clip-path="url(#clip200)" d="M503.962 223.728 Q502.156 228.358 500.443 229.77 Q498.73 231.182 495.86 231.182 L492.457 231.182 L492.457 227.617 L494.957 227.617 Q496.716 227.617 497.688 226.784 Q498.661 225.95 499.841 222.848 L500.605 220.904 L490.119 195.395 L494.633 195.395 L502.735 215.673 L510.836 195.395 L515.35 195.395 L503.962 223.728 Z" fill="#000000" fill-rule="nonzero" fill-opacity="1" /><path clip-path="url(#clip200)" d="M522.642 217.385 L530.281 217.385 L530.281 191.02 L521.971 192.687 L521.971 188.427 L530.235 186.761 L534.91 186.761 L534.91 217.385 L542.549 217.385 L542.549 221.321 L522.642 221.321 L522.642 217.385 Z" fill="#000000" fill-rule="nonzero" fill-opacity="1" /></svg>
