<?xml version="1.0" encoding="utf-8"?>
<svg xmlns="http://www.w3.org/2000/svg" xmlns:xlink="http://www.w3.org/1999/xlink" width="600" height="300" viewBox="0 0 2400 1200">
<defs>
  <clipPath id="clip790">
    <rect x="0" y="0" width="2400" height="1200"/>
  </clipPath>
</defs>
<path clip-path="url(#clip790)" d="M0 1200 L2400 1200 L2400 0 L0 0  Z" fill="#ffffff" fill-rule="evenodd" fill-opacity="1"/>
<defs>
  <clipPath id="clip791">
    <rect x="480" y="0" width="1681" height="1200"/>
  </clipPath>
</defs>
<path clip-path="url(#clip790)" d="M216.436 1099.09 L1153.8 1099.09 L1153.8 92.1521 L216.436 92.1521  Z" fill="#ffffff" fill-rule="evenodd" fill-opacity="1"/>
<defs>
  <clipPath id="clip792">
    <rect x="216" y="92" width="938" height="1008"/>
  </clipPath>
</defs>
<polyline clip-path="url(#clip792)" style="stroke:#000000; stroke-linecap:round; stroke-linejoin:round; stroke-width:2; stroke-opacity:0.1; fill:none" points="411.404,1099.09 411.404,92.1521 "/>
<polyline clip-path="url(#clip792)" style="stroke:#000000; stroke-linecap:round; stroke-linejoin:round; stroke-width:2; stroke-opacity:0.1; fill:none" points="621.952,1099.09 621.952,92.1521 "/>
<polyline clip-path="url(#clip792)" style="stroke:#000000; stroke-linecap:round; stroke-linejoin:round; stroke-width:2; stroke-opacity:0.1; fill:none" points="832.501,1099.09 832.501,92.1521 "/>
<polyline clip-path="url(#clip792)" style="stroke:#000000; stroke-linecap:round; stroke-linejoin:round; stroke-width:2; stroke-opacity:0.1; fill:none" points="1043.05,1099.09 1043.05,92.1521 "/>
<polyline clip-path="url(#clip792)" style="stroke:#000000; stroke-linecap:round; stroke-linejoin:round; stroke-width:2; stroke-opacity:0.1; fill:none" points="216.436,863.836 1153.8,863.836 "/>
<polyline clip-path="url(#clip792)" style="stroke:#000000; stroke-linecap:round; stroke-linejoin:round; stroke-width:2; stroke-opacity:0.1; fill:none" points="216.436,616.108 1153.8,616.108 "/>
<polyline clip-path="url(#clip792)" style="stroke:#000000; stroke-linecap:round; stroke-linejoin:round; stroke-width:2; stroke-opacity:0.1; fill:none" points="216.436,368.379 1153.8,368.379 "/>
<polyline clip-path="url(#clip792)" style="stroke:#000000; stroke-linecap:round; stroke-linejoin:round; stroke-width:2; stroke-opacity:0.1; fill:none" points="216.436,120.65 1153.8,120.65 "/>
<polyline clip-path="url(#clip790)" style="stroke:#000000; stroke-linecap:round; stroke-linejoin:round; stroke-width:4; stroke-opacity:1; fill:none" points="216.436,1099.09 1153.8,1099.09 "/>
<polyline clip-path="url(#clip790)" style="stroke:#000000; stroke-linecap:round; stroke-linejoin:round; stroke-width:4; stroke-opacity:1; fill:none" points="411.404,1099.09 411.404,1080.19 "/>
<polyline clip-path="url(#clip790)" style="stroke:#000000; stroke-linecap:round; stroke-linejoin:round; stroke-width:4; stroke-opacity:1; fill:none" points="621.952,1099.09 621.952,1080.19 "/>
<polyline clip-path="url(#clip790)" style="stroke:#000000; stroke-linecap:round; stroke-linejoin:round; stroke-width:4; stroke-opacity:1; fill:none" points="832.501,1099.09 832.501,1080.19 "/>
<polyline clip-path="url(#clip790)" style="stroke:#000000; stroke-linecap:round; stroke-linejoin:round; stroke-width:4; stroke-opacity:1; fill:none" points="1043.05,1099.09 1043.05,1080.19 "/>
<path clip-path="url(#clip790)" d="M401.682 1126.93 L420.038 1126.93 L420.038 1130.86 L405.964 1130.86 L405.964 1139.34 Q406.982 1138.99 408.001 1138.83 Q409.019 1138.64 410.038 1138.64 Q415.825 1138.64 419.205 1141.81 Q422.584 1144.98 422.584 1150.4 Q422.584 1155.98 419.112 1159.08 Q415.64 1162.16 409.32 1162.16 Q407.145 1162.16 404.876 1161.79 Q402.631 1161.42 400.223 1160.68 L400.223 1155.98 Q402.307 1157.11 404.529 1157.67 Q406.751 1158.22 409.228 1158.22 Q413.232 1158.22 415.57 1156.12 Q417.908 1154.01 417.908 1150.4 Q417.908 1146.79 415.57 1144.68 Q413.232 1142.58 409.228 1142.58 Q407.353 1142.58 405.478 1142.99 Q403.626 1143.41 401.682 1144.29 L401.682 1126.93 Z" fill="#000000" fill-rule="nonzero" fill-opacity="1" /><path clip-path="url(#clip790)" d="M596.64 1157.55 L604.279 1157.55 L604.279 1131.19 L595.969 1132.85 L595.969 1128.59 L604.232 1126.93 L608.908 1126.93 L608.908 1157.55 L616.547 1157.55 L616.547 1161.49 L596.64 1161.49 L596.64 1157.55 Z" fill="#000000" fill-rule="nonzero" fill-opacity="1" /><path clip-path="url(#clip790)" d="M635.991 1130.01 Q632.38 1130.01 630.552 1133.57 Q628.746 1137.11 628.746 1144.24 Q628.746 1151.35 630.552 1154.91 Q632.38 1158.46 635.991 1158.46 Q639.626 1158.46 641.431 1154.91 Q643.26 1151.35 643.26 1144.24 Q643.26 1137.11 641.431 1133.57 Q639.626 1130.01 635.991 1130.01 M635.991 1126.3 Q641.802 1126.3 644.857 1130.91 Q647.936 1135.49 647.936 1144.24 Q647.936 1152.97 644.857 1157.58 Q641.802 1162.16 635.991 1162.16 Q630.181 1162.16 627.103 1157.58 Q624.047 1152.97 624.047 1144.24 Q624.047 1135.49 627.103 1130.91 Q630.181 1126.3 635.991 1126.3 Z" fill="#000000" fill-rule="nonzero" fill-opacity="1" /><path clip-path="url(#clip790)" d="M807.686 1157.55 L815.325 1157.55 L815.325 1131.19 L807.015 1132.85 L807.015 1128.59 L815.279 1126.93 L819.954 1126.93 L819.954 1157.55 L827.593 1157.55 L827.593 1161.49 L807.686 1161.49 L807.686 1157.55 Z" fill="#000000" fill-rule="nonzero" fill-opacity="1" /><path clip-path="url(#clip790)" d="M837.084 1126.93 L855.44 1126.93 L855.44 1130.86 L841.366 1130.86 L841.366 1139.34 Q842.385 1138.99 843.403 1138.83 Q844.422 1138.64 845.44 1138.64 Q851.227 1138.64 854.607 1141.81 Q857.987 1144.98 857.987 1150.4 Q857.987 1155.98 854.514 1159.08 Q851.042 1162.16 844.723 1162.16 Q842.547 1162.16 840.278 1161.79 Q838.033 1161.42 835.626 1160.68 L835.626 1155.98 Q837.709 1157.11 839.931 1157.67 Q842.153 1158.22 844.63 1158.22 Q848.635 1158.22 850.973 1156.12 Q853.311 1154.01 853.311 1150.4 Q853.311 1146.79 850.973 1144.68 Q848.635 1142.58 844.63 1142.58 Q842.755 1142.58 840.88 1142.99 Q839.028 1143.41 837.084 1144.29 L837.084 1126.93 Z" fill="#000000" fill-rule="nonzero" fill-opacity="1" /><path clip-path="url(#clip790)" d="M1021.82 1157.55 L1038.14 1157.55 L1038.14 1161.49 L1016.2 1161.49 L1016.2 1157.55 Q1018.86 1154.8 1023.44 1150.17 Q1028.05 1145.52 1029.23 1144.17 Q1031.48 1141.65 1032.35 1139.91 Q1033.26 1138.15 1033.26 1136.46 Q1033.26 1133.71 1031.31 1131.97 Q1029.39 1130.24 1026.29 1130.24 Q1024.09 1130.24 1021.64 1131 Q1019.21 1131.77 1016.43 1133.32 L1016.43 1128.59 Q1019.25 1127.46 1021.71 1126.88 Q1024.16 1126.3 1026.2 1126.3 Q1031.57 1126.3 1034.76 1128.99 Q1037.96 1131.67 1037.96 1136.16 Q1037.96 1138.29 1037.15 1140.21 Q1036.36 1142.11 1034.25 1144.71 Q1033.67 1145.38 1030.57 1148.59 Q1027.47 1151.79 1021.82 1157.55 Z" fill="#000000" fill-rule="nonzero" fill-opacity="1" /><path clip-path="url(#clip790)" d="M1057.96 1130.01 Q1054.35 1130.01 1052.52 1133.57 Q1050.71 1137.11 1050.71 1144.24 Q1050.71 1151.35 1052.52 1154.91 Q1054.35 1158.46 1057.96 1158.46 Q1061.59 1158.46 1063.4 1154.91 Q1065.22 1151.35 1065.22 1144.24 Q1065.22 1137.11 1063.4 1133.57 Q1061.59 1130.01 1057.96 1130.01 M1057.96 1126.3 Q1063.77 1126.3 1066.82 1130.91 Q1069.9 1135.49 1069.9 1144.24 Q1069.9 1152.97 1066.82 1157.58 Q1063.77 1162.16 1057.96 1162.16 Q1052.15 1162.16 1049.07 1157.58 Q1046.01 1152.97 1046.01 1144.24 Q1046.01 1135.49 1049.07 1130.91 Q1052.15 1126.3 1057.96 1126.3 Z" fill="#000000" fill-rule="nonzero" fill-opacity="1" /><polyline clip-path="url(#clip790)" style="stroke:#000000; stroke-linecap:round; stroke-linejoin:round; stroke-width:4; stroke-opacity:1; fill:none" points="216.436,1099.09 216.436,92.1521 "/>
<polyline clip-path="url(#clip790)" style="stroke:#000000; stroke-linecap:round; stroke-linejoin:round; stroke-width:4; stroke-opacity:1; fill:none" points="216.436,863.836 235.334,863.836 "/>
<polyline clip-path="url(#clip790)" style="stroke:#000000; stroke-linecap:round; stroke-linejoin:round; stroke-width:4; stroke-opacity:1; fill:none" points="216.436,616.108 235.334,616.108 "/>
<polyline clip-path="url(#clip790)" style="stroke:#000000; stroke-linecap:round; stroke-linejoin:round; stroke-width:4; stroke-opacity:1; fill:none" points="216.436,368.379 235.334,368.379 "/>
<polyline clip-path="url(#clip790)" style="stroke:#000000; stroke-linecap:round; stroke-linejoin:round; stroke-width:4; stroke-opacity:1; fill:none" points="216.436,120.65 235.334,120.65 "/>
<path clip-path="url(#clip790)" d="M63.9319 849.635 Q60.3208 849.635 58.4921 853.2 Q56.6865 856.741 56.6865 863.871 Q56.6865 870.977 58.4921 874.542 Q60.3208 878.084 63.9319 878.084 Q67.5661 878.084 69.3717 874.542 Q71.2004 870.977 71.2004 863.871 Q71.2004 856.741 69.3717 853.2 Q67.5661 849.635 63.9319 849.635 M63.9319 845.931 Q69.742 845.931 72.7976 850.538 Q75.8763 855.121 75.8763 863.871 Q75.8763 872.598 72.7976 877.204 Q69.742 881.788 63.9319 881.788 Q58.1217 881.788 55.043 877.204 Q51.9875 872.598 51.9875 863.871 Q51.9875 855.121 55.043 850.538 Q58.1217 845.931 63.9319 845.931 Z" fill="#000000" fill-rule="nonzero" fill-opacity="1" /><path clip-path="url(#clip790)" d="M84.0938 875.237 L88.978 875.237 L88.978 881.116 L84.0938 881.116 L84.0938 875.237 Z" fill="#000000" fill-rule="nonzero" fill-opacity="1" /><path clip-path="url(#clip790)" d="M109.163 849.635 Q105.552 849.635 103.723 853.2 Q101.918 856.741 101.918 863.871 Q101.918 870.977 103.723 874.542 Q105.552 878.084 109.163 878.084 Q112.797 878.084 114.603 874.542 Q116.432 870.977 116.432 863.871 Q116.432 856.741 114.603 853.2 Q112.797 849.635 109.163 849.635 M109.163 845.931 Q114.973 845.931 118.029 850.538 Q121.107 855.121 121.107 863.871 Q121.107 872.598 118.029 877.204 Q114.973 881.788 109.163 881.788 Q103.353 881.788 100.274 877.204 Q97.2187 872.598 97.2187 863.871 Q97.2187 855.121 100.274 850.538 Q103.353 845.931 109.163 845.931 Z" fill="#000000" fill-rule="nonzero" fill-opacity="1" /><path clip-path="url(#clip790)" d="M139.325 849.635 Q135.714 849.635 133.885 853.2 Q132.08 856.741 132.08 863.871 Q132.08 870.977 133.885 874.542 Q135.714 878.084 139.325 878.084 Q142.959 878.084 144.765 874.542 Q146.593 870.977 146.593 863.871 Q146.593 856.741 144.765 853.2 Q142.959 849.635 139.325 849.635 M139.325 845.931 Q145.135 845.931 148.191 850.538 Q151.269 855.121 151.269 863.871 Q151.269 872.598 148.191 877.204 Q145.135 881.788 139.325 881.788 Q133.515 881.788 130.436 877.204 Q127.381 872.598 127.381 863.871 Q127.381 855.121 130.436 850.538 Q133.515 845.931 139.325 845.931 Z" fill="#000000" fill-rule="nonzero" fill-opacity="1" /><path clip-path="url(#clip790)" d="M159.533 846.556 L177.89 846.556 L177.89 850.491 L163.816 850.491 L163.816 858.964 Q164.834 858.616 165.853 858.454 Q166.871 858.269 167.89 858.269 Q173.677 858.269 177.056 861.44 Q180.436 864.612 180.436 870.028 Q180.436 875.607 176.964 878.709 Q173.491 881.788 167.172 881.788 Q164.996 881.788 162.728 881.417 Q160.482 881.047 158.075 880.306 L158.075 875.607 Q160.158 876.741 162.38 877.297 Q164.603 877.852 167.079 877.852 Q171.084 877.852 173.422 875.746 Q175.76 873.639 175.76 870.028 Q175.76 866.417 173.422 864.311 Q171.084 862.204 167.079 862.204 Q165.204 862.204 163.329 862.621 Q161.478 863.038 159.533 863.917 L159.533 846.556 Z" fill="#000000" fill-rule="nonzero" fill-opacity="1" /><path clip-path="url(#clip790)" d="M62.9365 601.906 Q59.3254 601.906 57.4967 605.471 Q55.6912 609.013 55.6912 616.142 Q55.6912 623.249 57.4967 626.814 Q59.3254 630.355 62.9365 630.355 Q66.5707 630.355 68.3763 626.814 Q70.205 623.249 70.205 616.142 Q70.205 609.013 68.3763 605.471 Q66.5707 601.906 62.9365 601.906 M62.9365 598.203 Q68.7467 598.203 71.8022 602.809 Q74.8809 607.392 74.8809 616.142 Q74.8809 624.869 71.8022 629.476 Q68.7467 634.059 62.9365 634.059 Q57.1264 634.059 54.0477 629.476 Q50.9921 624.869 50.9921 616.142 Q50.9921 607.392 54.0477 602.809 Q57.1264 598.203 62.9365 598.203 Z" fill="#000000" fill-rule="nonzero" fill-opacity="1" /><path clip-path="url(#clip790)" d="M83.0984 627.508 L87.9827 627.508 L87.9827 633.388 L83.0984 633.388 L83.0984 627.508 Z" fill="#000000" fill-rule="nonzero" fill-opacity="1" /><path clip-path="url(#clip790)" d="M108.168 601.906 Q104.557 601.906 102.728 605.471 Q100.922 609.013 100.922 616.142 Q100.922 623.249 102.728 626.814 Q104.557 630.355 108.168 630.355 Q111.802 630.355 113.608 626.814 Q115.436 623.249 115.436 616.142 Q115.436 609.013 113.608 605.471 Q111.802 601.906 108.168 601.906 M108.168 598.203 Q113.978 598.203 117.033 602.809 Q120.112 607.392 120.112 616.142 Q120.112 624.869 117.033 629.476 Q113.978 634.059 108.168 634.059 Q102.358 634.059 99.2789 629.476 Q96.2234 624.869 96.2234 616.142 Q96.2234 607.392 99.2789 602.809 Q102.358 598.203 108.168 598.203 Z" fill="#000000" fill-rule="nonzero" fill-opacity="1" /><path clip-path="url(#clip790)" d="M129.14 629.452 L136.779 629.452 L136.779 603.087 L128.469 604.753 L128.469 600.494 L136.732 598.828 L141.408 598.828 L141.408 629.452 L149.047 629.452 L149.047 633.388 L129.14 633.388 L129.14 629.452 Z" fill="#000000" fill-rule="nonzero" fill-opacity="1" /><path clip-path="url(#clip790)" d="M168.491 601.906 Q164.88 601.906 163.052 605.471 Q161.246 609.013 161.246 616.142 Q161.246 623.249 163.052 626.814 Q164.88 630.355 168.491 630.355 Q172.126 630.355 173.931 626.814 Q175.76 623.249 175.76 616.142 Q175.76 609.013 173.931 605.471 Q172.126 601.906 168.491 601.906 M168.491 598.203 Q174.302 598.203 177.357 602.809 Q180.436 607.392 180.436 616.142 Q180.436 624.869 177.357 629.476 Q174.302 634.059 168.491 634.059 Q162.681 634.059 159.603 629.476 Q156.547 624.869 156.547 616.142 Q156.547 607.392 159.603 602.809 Q162.681 598.203 168.491 598.203 Z" fill="#000000" fill-rule="nonzero" fill-opacity="1" /><path clip-path="url(#clip790)" d="M63.9319 354.178 Q60.3208 354.178 58.4921 357.742 Q56.6865 361.284 56.6865 368.414 Q56.6865 375.52 58.4921 379.085 Q60.3208 382.627 63.9319 382.627 Q67.5661 382.627 69.3717 379.085 Q71.2004 375.52 71.2004 368.414 Q71.2004 361.284 69.3717 357.742 Q67.5661 354.178 63.9319 354.178 M63.9319 350.474 Q69.742 350.474 72.7976 355.08 Q75.8763 359.664 75.8763 368.414 Q75.8763 377.14 72.7976 381.747 Q69.742 386.33 63.9319 386.33 Q58.1217 386.33 55.043 381.747 Q51.9875 377.14 51.9875 368.414 Q51.9875 359.664 55.043 355.08 Q58.1217 350.474 63.9319 350.474 Z" fill="#000000" fill-rule="nonzero" fill-opacity="1" /><path clip-path="url(#clip790)" d="M84.0938 379.779 L88.978 379.779 L88.978 385.659 L84.0938 385.659 L84.0938 379.779 Z" fill="#000000" fill-rule="nonzero" fill-opacity="1" /><path clip-path="url(#clip790)" d="M109.163 354.178 Q105.552 354.178 103.723 357.742 Q101.918 361.284 101.918 368.414 Q101.918 375.52 103.723 379.085 Q105.552 382.627 109.163 382.627 Q112.797 382.627 114.603 379.085 Q116.432 375.52 116.432 368.414 Q116.432 361.284 114.603 357.742 Q112.797 354.178 109.163 354.178 M109.163 350.474 Q114.973 350.474 118.029 355.08 Q121.107 359.664 121.107 368.414 Q121.107 377.14 118.029 381.747 Q114.973 386.33 109.163 386.33 Q103.353 386.33 100.274 381.747 Q97.2187 377.14 97.2187 368.414 Q97.2187 359.664 100.274 355.08 Q103.353 350.474 109.163 350.474 Z" fill="#000000" fill-rule="nonzero" fill-opacity="1" /><path clip-path="url(#clip790)" d="M130.135 381.724 L137.774 381.724 L137.774 355.358 L129.464 357.025 L129.464 352.766 L137.728 351.099 L142.404 351.099 L142.404 381.724 L150.043 381.724 L150.043 385.659 L130.135 385.659 L130.135 381.724 Z" fill="#000000" fill-rule="nonzero" fill-opacity="1" /><path clip-path="url(#clip790)" d="M159.533 351.099 L177.89 351.099 L177.89 355.034 L163.816 355.034 L163.816 363.506 Q164.834 363.159 165.853 362.997 Q166.871 362.812 167.89 362.812 Q173.677 362.812 177.056 365.983 Q180.436 369.154 180.436 374.571 Q180.436 380.15 176.964 383.252 Q173.491 386.33 167.172 386.33 Q164.996 386.33 162.728 385.96 Q160.482 385.59 158.075 384.849 L158.075 380.15 Q160.158 381.284 162.38 381.84 Q164.603 382.395 167.079 382.395 Q171.084 382.395 173.422 380.289 Q175.76 378.182 175.76 374.571 Q175.76 370.96 173.422 368.853 Q171.084 366.747 167.079 366.747 Q165.204 366.747 163.329 367.164 Q161.478 367.58 159.533 368.46 L159.533 351.099 Z" fill="#000000" fill-rule="nonzero" fill-opacity="1" /><path clip-path="url(#clip790)" d="M62.9365 106.449 Q59.3254 106.449 57.4967 110.014 Q55.6912 113.555 55.6912 120.685 Q55.6912 127.791 57.4967 131.356 Q59.3254 134.898 62.9365 134.898 Q66.5707 134.898 68.3763 131.356 Q70.205 127.791 70.205 120.685 Q70.205 113.555 68.3763 110.014 Q66.5707 106.449 62.9365 106.449 M62.9365 102.745 Q68.7467 102.745 71.8022 107.352 Q74.8809 111.935 74.8809 120.685 Q74.8809 129.412 71.8022 134.018 Q68.7467 138.602 62.9365 138.602 Q57.1264 138.602 54.0477 134.018 Q50.9921 129.412 50.9921 120.685 Q50.9921 111.935 54.0477 107.352 Q57.1264 102.745 62.9365 102.745 Z" fill="#000000" fill-rule="nonzero" fill-opacity="1" /><path clip-path="url(#clip790)" d="M83.0984 132.051 L87.9827 132.051 L87.9827 137.93 L83.0984 137.93 L83.0984 132.051 Z" fill="#000000" fill-rule="nonzero" fill-opacity="1" /><path clip-path="url(#clip790)" d="M108.168 106.449 Q104.557 106.449 102.728 110.014 Q100.922 113.555 100.922 120.685 Q100.922 127.791 102.728 131.356 Q104.557 134.898 108.168 134.898 Q111.802 134.898 113.608 131.356 Q115.436 127.791 115.436 120.685 Q115.436 113.555 113.608 110.014 Q111.802 106.449 108.168 106.449 M108.168 102.745 Q113.978 102.745 117.033 107.352 Q120.112 111.935 120.112 120.685 Q120.112 129.412 117.033 134.018 Q113.978 138.602 108.168 138.602 Q102.358 138.602 99.2789 134.018 Q96.2234 129.412 96.2234 120.685 Q96.2234 111.935 99.2789 107.352 Q102.358 102.745 108.168 102.745 Z" fill="#000000" fill-rule="nonzero" fill-opacity="1" /><path clip-path="url(#clip790)" d="M132.357 133.995 L148.677 133.995 L148.677 137.93 L126.732 137.93 L126.732 133.995 Q129.394 131.241 133.978 126.611 Q138.584 121.958 139.765 120.616 Q142.01 118.092 142.89 116.356 Q143.793 114.597 143.793 112.907 Q143.793 110.153 141.848 108.417 Q139.927 106.68 136.825 106.68 Q134.626 106.68 132.172 107.444 Q129.742 108.208 126.964 109.759 L126.964 105.037 Q129.788 103.903 132.242 103.324 Q134.695 102.745 136.732 102.745 Q142.103 102.745 145.297 105.43 Q148.492 108.116 148.492 112.606 Q148.492 114.736 147.681 116.657 Q146.894 118.555 144.788 121.148 Q144.209 121.819 141.107 125.037 Q138.006 128.231 132.357 133.995 Z" fill="#000000" fill-rule="nonzero" fill-opacity="1" /><path clip-path="url(#clip790)" d="M168.491 106.449 Q164.88 106.449 163.052 110.014 Q161.246 113.555 161.246 120.685 Q161.246 127.791 163.052 131.356 Q164.88 134.898 168.491 134.898 Q172.126 134.898 173.931 131.356 Q175.76 127.791 175.76 120.685 Q175.76 113.555 173.931 110.014 Q172.126 106.449 168.491 106.449 M168.491 102.745 Q174.302 102.745 177.357 107.352 Q180.436 111.935 180.436 120.685 Q180.436 129.412 177.357 134.018 Q174.302 138.602 168.491 138.602 Q162.681 138.602 159.603 134.018 Q156.547 129.412 156.547 120.685 Q156.547 111.935 159.603 107.352 Q162.681 102.745 168.491 102.745 Z" fill="#000000" fill-rule="nonzero" fill-opacity="1" /><path clip-path="url(#clip790)" d="M617.734 30.8748 L617.734 33.2186 L595.703 33.2186 Q596.016 38.1665 598.672 40.7706 Q601.354 43.3487 606.12 43.3487 Q608.88 43.3487 611.458 42.6716 Q614.062 41.9946 616.614 40.6404 L616.614 45.1716 Q614.036 46.2654 611.328 46.8383 Q608.62 47.4112 605.833 47.4112 Q598.854 47.4112 594.766 43.3487 Q590.703 39.2862 590.703 32.3592 Q590.703 25.1978 594.557 21.0051 Q598.437 16.7864 605 16.7864 Q610.885 16.7864 614.297 20.5884 Q617.734 24.3645 617.734 30.8748 M612.943 29.4686 Q612.891 25.5363 610.729 23.1926 Q608.594 20.8488 605.052 20.8488 Q601.042 20.8488 598.62 23.1145 Q596.224 25.3801 595.859 29.4946 L612.943 29.4686 Z" fill="#000000" fill-rule="nonzero" fill-opacity="1" /><path clip-path="url(#clip790)" d="M625.104 35.1456 L625.104 17.4895 L629.896 17.4895 L629.896 34.9634 Q629.896 39.104 631.51 41.1873 Q633.125 43.2446 636.354 43.2446 Q640.234 43.2446 642.474 40.7706 Q644.739 38.2967 644.739 34.0259 L644.739 17.4895 L649.531 17.4895 L649.531 46.656 L644.739 46.656 L644.739 42.1769 Q642.995 44.8331 640.677 46.1352 Q638.385 47.4112 635.338 47.4112 Q630.312 47.4112 627.708 44.2862 Q625.104 41.1612 625.104 35.1456 M637.161 16.7864 L637.161 16.7864 Z" fill="#000000" fill-rule="nonzero" fill-opacity="1" /><path clip-path="url(#clip790)" d="M676.302 21.9686 Q675.494 21.4999 674.531 21.2916 Q673.593 21.0572 672.448 21.0572 Q668.385 21.0572 666.198 23.7134 Q664.036 26.3436 664.036 31.2915 L664.036 46.656 L659.218 46.656 L659.218 17.4895 L664.036 17.4895 L664.036 22.0207 Q665.547 19.3645 667.968 18.0884 Q670.39 16.7864 673.854 16.7864 Q674.349 16.7864 674.948 16.8645 Q675.546 16.9166 676.276 17.0468 L676.302 21.9686 Z" fill="#000000" fill-rule="nonzero" fill-opacity="1" /><path clip-path="url(#clip790)" d="M681.328 17.4895 L686.119 17.4895 L686.119 46.656 L681.328 46.656 L681.328 17.4895 M681.328 6.13538 L686.119 6.13538 L686.119 12.2031 L681.328 12.2031 L681.328 6.13538 Z" fill="#000000" fill-rule="nonzero" fill-opacity="1" /><path clip-path="url(#clip790)" d="M717.083 32.0988 Q717.083 26.8124 714.895 23.8176 Q712.734 20.7968 708.932 20.7968 Q705.13 20.7968 702.942 23.8176 Q700.781 26.8124 700.781 32.0988 Q700.781 37.3852 702.942 40.406 Q705.13 43.4008 708.932 43.4008 Q712.734 43.4008 714.895 40.406 Q717.083 37.3852 717.083 32.0988 M700.781 21.9165 Q702.291 19.3124 704.583 18.0624 Q706.9 16.7864 710.104 16.7864 Q715.416 16.7864 718.723 21.0051 Q722.057 25.2238 722.057 32.0988 Q722.057 38.9737 718.723 43.1925 Q715.416 47.4112 710.104 47.4112 Q706.9 47.4112 704.583 46.1612 Q702.291 44.8852 700.781 42.281 L700.781 46.656 L695.963 46.656 L695.963 6.13538 L700.781 6.13538 L700.781 21.9165 Z" fill="#000000" fill-rule="nonzero" fill-opacity="1" /><path clip-path="url(#clip790)" d="M741.301 20.8488 Q737.447 20.8488 735.208 23.8697 Q732.968 26.8644 732.968 32.0988 Q732.968 37.3331 735.182 40.354 Q737.421 43.3487 741.301 43.3487 Q745.129 43.3487 747.369 40.3279 Q749.609 37.3071 749.609 32.0988 Q749.609 26.9165 747.369 23.8957 Q745.129 20.8488 741.301 20.8488 M741.301 16.7864 Q747.551 16.7864 751.119 20.8488 Q754.687 24.9113 754.687 32.0988 Q754.687 39.2602 751.119 43.3487 Q747.551 47.4112 741.301 47.4112 Q735.025 47.4112 731.458 43.3487 Q727.916 39.2602 727.916 32.0988 Q727.916 24.9113 731.458 20.8488 Q735.025 16.7864 741.301 16.7864 Z" fill="#000000" fill-rule="nonzero" fill-opacity="1" /><path clip-path="url(#clip790)" d="M779.53 21.9686 Q778.723 21.4999 777.759 21.2916 Q776.822 21.0572 775.676 21.0572 Q771.614 21.0572 769.426 23.7134 Q767.265 26.3436 767.265 31.2915 L767.265 46.656 L762.447 46.656 L762.447 17.4895 L767.265 17.4895 L767.265 22.0207 Q768.775 19.3645 771.197 18.0884 Q773.619 16.7864 777.082 16.7864 Q777.577 16.7864 778.176 16.8645 Q778.775 16.9166 779.504 17.0468 L779.53 21.9686 Z" fill="#000000" fill-rule="nonzero" fill-opacity="1" /><path clip-path="url(#clip792)" d="M242.965 1030.02 L285.075 1030.02 L327.184 1034.36 L369.294 1062.88 L411.404 1058.33 L453.513 1046.07 L495.623 1070.59 L537.733 1045.11 L579.842 1048 L621.952 1029.52 L664.062 1019.33 L706.172 1004.36 L748.281 982.823 L790.391 1016.5 L832.501 1007.66 L874.61 1044.85 L916.72 1040.83 L958.83 1047.9 L1000.94 1003.91 L1043.05 1010.14 L1085.16 1009.16 L1127.27 1037.54 L1127.27 950.707 L1085.16 967.534 L1043.05 987.38 L1000.94 934.496 L958.83 934.153 L916.72 950.919 L874.61 968.877 L832.501 970.385 L790.391 956.321 L748.281 956.586 L706.172 966.582 L664.062 944.372 L621.952 914.472 L579.842 922.531 L537.733 938.053 L495.623 947.259 L453.513 990.305 L411.404 951.734 L369.294 970.077 L327.184 1006.3 L285.075 1030.02 L242.965 1030.02  Z" fill="#009af9" fill-rule="evenodd" fill-opacity="0.1"/>
<polyline clip-path="url(#clip792)" style="stroke:#009af9; stroke-linecap:round; stroke-linejoin:round; stroke-width:4; stroke-opacity:1; fill:none" points="242.965,1030.02 285.075,1030.02 327.184,1020.33 369.294,1016.48 411.404,1005.03 453.513,1018.19 495.623,1008.92 537.733,991.583 579.842,985.265 621.952,971.994 664.062,981.851 706.172,985.471 748.281,969.704 790.391,986.411 832.501,989.02 874.61,1006.86 916.72,995.874 958.83,991.028 1000.94,969.203 1043.05,998.759 1085.16,988.346 1127.27,994.124 "/>
<path clip-path="url(#clip792)" d="M242.965 1030.02 L285.075 1030.02 L327.184 120.65 L369.294 120.65 L411.404 120.65 L453.513 120.65 L495.623 120.65 L537.733 120.65 L579.842 120.65 L621.952 120.65 L664.062 120.65 L706.172 120.65 L748.281 120.65 L790.391 120.65 L832.501 120.65 L874.61 120.65 L916.72 120.65 L958.83 120.65 L1000.94 120.65 L1043.05 120.65 L1085.16 120.65 L1127.27 120.65 L1127.27 120.65 L1085.16 120.65 L1043.05 120.65 L1000.94 120.65 L958.83 120.65 L916.72 120.65 L874.61 120.65 L832.501 120.65 L790.391 120.65 L748.281 120.65 L706.172 120.65 L664.062 120.65 L621.952 120.65 L579.842 120.65 L537.733 120.65 L495.623 120.65 L453.513 120.65 L411.404 120.65 L369.294 120.65 L327.184 120.65 L285.075 1030.02 L242.965 1030.02  Z" fill="#e26f46" fill-rule="evenodd" fill-opacity="0.1"/>
<polyline clip-path="url(#clip792)" style="stroke:#e26f46; stroke-linecap:round; stroke-linejoin:round; stroke-width:4; stroke-opacity:1; fill:none" points="242.965,1030.02 285.075,1030.02 327.184,120.65 369.294,120.65 411.404,120.65 453.513,120.65 495.623,120.65 537.733,120.65 579.842,120.65 621.952,120.65 664.062,120.65 706.172,120.65 748.281,120.65 790.391,120.65 832.501,120.65 874.61,120.65 916.72,120.65 958.83,120.65 1000.94,120.65 1043.05,120.65 1085.16,120.65 1127.27,120.65 "/>
<path clip-path="url(#clip790)" d="M1415.39 1099.09 L2352.76 1099.09 L2352.76 92.1521 L1415.39 92.1521  Z" fill="#ffffff" fill-rule="evenodd" fill-opacity="1"/>
<defs>
  <clipPath id="clip793">
    <rect x="1415" y="92" width="938" height="1008"/>
  </clipPath>
</defs>
<polyline clip-path="url(#clip793)" style="stroke:#000000; stroke-linecap:round; stroke-linejoin:round; stroke-width:2; stroke-opacity:0.1; fill:none" points="1610.36,1099.09 1610.36,92.1521 "/>
<polyline clip-path="url(#clip793)" style="stroke:#000000; stroke-linecap:round; stroke-linejoin:round; stroke-width:2; stroke-opacity:0.1; fill:none" points="1820.91,1099.09 1820.91,92.1521 "/>
<polyline clip-path="url(#clip793)" style="stroke:#000000; stroke-linecap:round; stroke-linejoin:round; stroke-width:2; stroke-opacity:0.1; fill:none" points="2031.46,1099.09 2031.46,92.1521 "/>
<polyline clip-path="url(#clip793)" style="stroke:#000000; stroke-linecap:round; stroke-linejoin:round; stroke-width:2; stroke-opacity:0.1; fill:none" points="2242.01,1099.09 2242.01,92.1521 "/>
<polyline clip-path="url(#clip793)" style="stroke:#000000; stroke-linecap:round; stroke-linejoin:round; stroke-width:2; stroke-opacity:0.1; fill:none" points="1415.39,1009.69 2352.76,1009.69 "/>
<polyline clip-path="url(#clip793)" style="stroke:#000000; stroke-linecap:round; stroke-linejoin:round; stroke-width:2; stroke-opacity:0.1; fill:none" points="1415.39,780.987 2352.76,780.987 "/>
<polyline clip-path="url(#clip793)" style="stroke:#000000; stroke-linecap:round; stroke-linejoin:round; stroke-width:2; stroke-opacity:0.1; fill:none" points="1415.39,552.288 2352.76,552.288 "/>
<polyline clip-path="url(#clip793)" style="stroke:#000000; stroke-linecap:round; stroke-linejoin:round; stroke-width:2; stroke-opacity:0.1; fill:none" points="1415.39,323.59 2352.76,323.59 "/>
<polyline clip-path="url(#clip793)" style="stroke:#000000; stroke-linecap:round; stroke-linejoin:round; stroke-width:2; stroke-opacity:0.1; fill:none" points="1415.39,94.8917 2352.76,94.8917 "/>
<polyline clip-path="url(#clip790)" style="stroke:#000000; stroke-linecap:round; stroke-linejoin:round; stroke-width:4; stroke-opacity:1; fill:none" points="1415.39,1099.09 2352.76,1099.09 "/>
<polyline clip-path="url(#clip790)" style="stroke:#000000; stroke-linecap:round; stroke-linejoin:round; stroke-width:4; stroke-opacity:1; fill:none" points="1610.36,1099.09 1610.36,1080.19 "/>
<polyline clip-path="url(#clip790)" style="stroke:#000000; stroke-linecap:round; stroke-linejoin:round; stroke-width:4; stroke-opacity:1; fill:none" points="1820.91,1099.09 1820.91,1080.19 "/>
<polyline clip-path="url(#clip790)" style="stroke:#000000; stroke-linecap:round; stroke-linejoin:round; stroke-width:4; stroke-opacity:1; fill:none" points="2031.46,1099.09 2031.46,1080.19 "/>
<polyline clip-path="url(#clip790)" style="stroke:#000000; stroke-linecap:round; stroke-linejoin:round; stroke-width:4; stroke-opacity:1; fill:none" points="2242.01,1099.09 2242.01,1080.19 "/>
<path clip-path="url(#clip790)" d="M1600.64 1126.93 L1619 1126.93 L1619 1130.86 L1604.92 1130.86 L1604.92 1139.34 Q1605.94 1138.99 1606.96 1138.83 Q1607.98 1138.64 1609 1138.64 Q1614.78 1138.64 1618.16 1141.81 Q1621.54 1144.98 1621.54 1150.4 Q1621.54 1155.98 1618.07 1159.08 Q1614.6 1162.16 1608.28 1162.16 Q1606.1 1162.16 1603.83 1161.79 Q1601.59 1161.42 1599.18 1160.68 L1599.18 1155.98 Q1601.26 1157.11 1603.49 1157.67 Q1605.71 1158.22 1608.19 1158.22 Q1612.19 1158.22 1614.53 1156.12 Q1616.87 1154.01 1616.87 1150.4 Q1616.87 1146.79 1614.53 1144.68 Q1612.19 1142.58 1608.19 1142.58 Q1606.31 1142.58 1604.44 1142.99 Q1602.58 1143.41 1600.64 1144.29 L1600.64 1126.93 Z" fill="#000000" fill-rule="nonzero" fill-opacity="1" /><path clip-path="url(#clip790)" d="M1795.6 1157.55 L1803.24 1157.55 L1803.24 1131.19 L1794.93 1132.85 L1794.93 1128.59 L1803.19 1126.93 L1807.87 1126.93 L1807.87 1157.55 L1815.51 1157.55 L1815.51 1161.49 L1795.6 1161.49 L1795.6 1157.55 Z" fill="#000000" fill-rule="nonzero" fill-opacity="1" /><path clip-path="url(#clip790)" d="M1834.95 1130.01 Q1831.34 1130.01 1829.51 1133.57 Q1827.7 1137.11 1827.7 1144.24 Q1827.7 1151.35 1829.51 1154.91 Q1831.34 1158.46 1834.95 1158.46 Q1838.58 1158.46 1840.39 1154.91 Q1842.22 1151.35 1842.22 1144.24 Q1842.22 1137.11 1840.39 1133.57 Q1838.58 1130.01 1834.95 1130.01 M1834.95 1126.3 Q1840.76 1126.3 1843.82 1130.91 Q1846.89 1135.49 1846.89 1144.24 Q1846.89 1152.97 1843.82 1157.58 Q1840.76 1162.16 1834.95 1162.16 Q1829.14 1162.16 1826.06 1157.58 Q1823.01 1152.97 1823.01 1144.24 Q1823.01 1135.49 1826.06 1130.91 Q1829.14 1126.3 1834.95 1126.3 Z" fill="#000000" fill-rule="nonzero" fill-opacity="1" /><path clip-path="url(#clip790)" d="M2006.64 1157.55 L2014.28 1157.55 L2014.28 1131.19 L2005.97 1132.85 L2005.97 1128.59 L2014.24 1126.93 L2018.91 1126.93 L2018.91 1157.55 L2026.55 1157.55 L2026.55 1161.49 L2006.64 1161.49 L2006.64 1157.55 Z" fill="#000000" fill-rule="nonzero" fill-opacity="1" /><path clip-path="url(#clip790)" d="M2036.04 1126.93 L2054.4 1126.93 L2054.4 1130.86 L2040.32 1130.86 L2040.32 1139.34 Q2041.34 1138.99 2042.36 1138.83 Q2043.38 1138.64 2044.4 1138.64 Q2050.19 1138.64 2053.57 1141.81 Q2056.94 1144.98 2056.94 1150.4 Q2056.94 1155.98 2053.47 1159.08 Q2050 1162.16 2043.68 1162.16 Q2041.51 1162.16 2039.24 1161.79 Q2036.99 1161.42 2034.58 1160.68 L2034.58 1155.98 Q2036.67 1157.11 2038.89 1157.67 Q2041.11 1158.22 2043.59 1158.22 Q2047.59 1158.22 2049.93 1156.12 Q2052.27 1154.01 2052.27 1150.4 Q2052.27 1146.79 2049.93 1144.68 Q2047.59 1142.58 2043.59 1142.58 Q2041.71 1142.58 2039.84 1142.99 Q2037.99 1143.41 2036.04 1144.29 L2036.04 1126.93 Z" fill="#000000" fill-rule="nonzero" fill-opacity="1" /><path clip-path="url(#clip790)" d="M2220.78 1157.55 L2237.1 1157.55 L2237.1 1161.49 L2215.16 1161.49 L2215.16 1157.55 Q2217.82 1154.8 2222.4 1150.17 Q2227.01 1145.52 2228.19 1144.17 Q2230.43 1141.65 2231.31 1139.91 Q2232.22 1138.15 2232.22 1136.46 Q2232.22 1133.71 2230.27 1131.97 Q2228.35 1130.24 2225.25 1130.24 Q2223.05 1130.24 2220.6 1131 Q2218.16 1131.77 2215.39 1133.32 L2215.39 1128.59 Q2218.21 1127.46 2220.66 1126.88 Q2223.12 1126.3 2225.16 1126.3 Q2230.53 1126.3 2233.72 1128.99 Q2236.91 1131.67 2236.91 1136.16 Q2236.91 1138.29 2236.1 1140.21 Q2235.32 1142.11 2233.21 1144.71 Q2232.63 1145.38 2229.53 1148.59 Q2226.43 1151.79 2220.78 1157.55 Z" fill="#000000" fill-rule="nonzero" fill-opacity="1" /><path clip-path="url(#clip790)" d="M2256.91 1130.01 Q2253.3 1130.01 2251.47 1133.57 Q2249.67 1137.11 2249.67 1144.24 Q2249.67 1151.35 2251.47 1154.91 Q2253.3 1158.46 2256.91 1158.46 Q2260.55 1158.46 2262.35 1154.91 Q2264.18 1151.35 2264.18 1144.24 Q2264.18 1137.11 2262.35 1133.57 Q2260.55 1130.01 2256.91 1130.01 M2256.91 1126.3 Q2262.72 1126.3 2265.78 1130.91 Q2268.86 1135.49 2268.86 1144.24 Q2268.86 1152.97 2265.78 1157.58 Q2262.72 1162.16 2256.91 1162.16 Q2251.1 1162.16 2248.03 1157.58 Q2244.97 1152.97 2244.97 1144.24 Q2244.97 1135.49 2248.03 1130.91 Q2251.1 1126.3 2256.91 1126.3 Z" fill="#000000" fill-rule="nonzero" fill-opacity="1" /><polyline clip-path="url(#clip790)" style="stroke:#000000; stroke-linecap:round; stroke-linejoin:round; stroke-width:4; stroke-opacity:1; fill:none" points="1415.39,1099.09 1415.39,92.1521 "/>
<polyline clip-path="url(#clip790)" style="stroke:#000000; stroke-linecap:round; stroke-linejoin:round; stroke-width:4; stroke-opacity:1; fill:none" points="1415.39,1009.69 1434.29,1009.69 "/>
<polyline clip-path="url(#clip790)" style="stroke:#000000; stroke-linecap:round; stroke-linejoin:round; stroke-width:4; stroke-opacity:1; fill:none" points="1415.39,780.987 1434.29,780.987 "/>
<polyline clip-path="url(#clip790)" style="stroke:#000000; stroke-linecap:round; stroke-linejoin:round; stroke-width:4; stroke-opacity:1; fill:none" points="1415.39,552.288 1434.29,552.288 "/>
<polyline clip-path="url(#clip790)" style="stroke:#000000; stroke-linecap:round; stroke-linejoin:round; stroke-width:4; stroke-opacity:1; fill:none" points="1415.39,323.59 1434.29,323.59 "/>
<polyline clip-path="url(#clip790)" style="stroke:#000000; stroke-linecap:round; stroke-linejoin:round; stroke-width:4; stroke-opacity:1; fill:none" points="1415.39,94.8917 1434.29,94.8917 "/>
<path clip-path="url(#clip790)" d="M1252.71 1023.03 L1260.34 1023.03 L1260.34 996.664 L1252.03 998.331 L1252.03 994.072 L1260.3 992.405 L1264.97 992.405 L1264.97 1023.03 L1272.61 1023.03 L1272.61 1026.97 L1252.71 1026.97 L1252.71 1023.03 Z" fill="#000000" fill-rule="nonzero" fill-opacity="1" /><path clip-path="url(#clip790)" d="M1282.06 1021.09 L1286.94 1021.09 L1286.94 1026.97 L1282.06 1026.97 L1282.06 1021.09 Z" fill="#000000" fill-rule="nonzero" fill-opacity="1" /><path clip-path="url(#clip790)" d="M1307.13 995.484 Q1303.51 995.484 1301.69 999.049 Q1299.88 1002.59 1299.88 1009.72 Q1299.88 1016.83 1301.69 1020.39 Q1303.51 1023.93 1307.13 1023.93 Q1310.76 1023.93 1312.57 1020.39 Q1314.39 1016.83 1314.39 1009.72 Q1314.39 1002.59 1312.57 999.049 Q1310.76 995.484 1307.13 995.484 M1307.13 991.78 Q1312.94 991.78 1315.99 996.387 Q1319.07 1000.97 1319.07 1009.72 Q1319.07 1018.45 1315.99 1023.05 Q1312.94 1027.64 1307.13 1027.64 Q1301.32 1027.64 1298.24 1023.05 Q1295.18 1018.45 1295.18 1009.72 Q1295.18 1000.97 1298.24 996.387 Q1301.32 991.78 1307.13 991.78 Z" fill="#000000" fill-rule="nonzero" fill-opacity="1" /><path clip-path="url(#clip790)" d="M1337.29 995.484 Q1333.68 995.484 1331.85 999.049 Q1330.04 1002.59 1330.04 1009.72 Q1330.04 1016.83 1331.85 1020.39 Q1333.68 1023.93 1337.29 1023.93 Q1340.92 1023.93 1342.73 1020.39 Q1344.56 1016.83 1344.56 1009.72 Q1344.56 1002.59 1342.73 999.049 Q1340.92 995.484 1337.29 995.484 M1337.29 991.78 Q1343.1 991.78 1346.15 996.387 Q1349.23 1000.97 1349.23 1009.72 Q1349.23 1018.45 1346.15 1023.05 Q1343.1 1027.64 1337.29 1027.64 Q1331.48 1027.64 1328.4 1023.05 Q1325.34 1018.45 1325.34 1009.72 Q1325.34 1000.97 1328.4 996.387 Q1331.48 991.78 1337.29 991.78 Z" fill="#000000" fill-rule="nonzero" fill-opacity="1" /><path clip-path="url(#clip790)" d="M1367.45 995.484 Q1363.84 995.484 1362.01 999.049 Q1360.2 1002.59 1360.2 1009.72 Q1360.2 1016.83 1362.01 1020.39 Q1363.84 1023.93 1367.45 1023.93 Q1371.08 1023.93 1372.89 1020.39 Q1374.72 1016.83 1374.72 1009.72 Q1374.72 1002.59 1372.89 999.049 Q1371.08 995.484 1367.45 995.484 M1367.45 991.78 Q1373.26 991.78 1376.32 996.387 Q1379.39 1000.97 1379.39 1009.72 Q1379.39 1018.45 1376.32 1023.05 Q1373.26 1027.64 1367.45 1027.64 Q1361.64 1027.64 1358.56 1023.05 Q1355.51 1018.45 1355.51 1009.72 Q1355.51 1000.97 1358.56 996.387 Q1361.64 991.78 1367.45 991.78 Z" fill="#000000" fill-rule="nonzero" fill-opacity="1" /><path clip-path="url(#clip790)" d="M1253.7 794.332 L1261.34 794.332 L1261.34 767.966 L1253.03 769.633 L1253.03 765.374 L1261.29 763.707 L1265.97 763.707 L1265.97 794.332 L1273.61 794.332 L1273.61 798.267 L1253.7 798.267 L1253.7 794.332 Z" fill="#000000" fill-rule="nonzero" fill-opacity="1" /><path clip-path="url(#clip790)" d="M1283.05 792.387 L1287.94 792.387 L1287.94 798.267 L1283.05 798.267 L1283.05 792.387 Z" fill="#000000" fill-rule="nonzero" fill-opacity="1" /><path clip-path="url(#clip790)" d="M1308.12 766.786 Q1304.51 766.786 1302.68 770.35 Q1300.88 773.892 1300.88 781.022 Q1300.88 788.128 1302.68 791.693 Q1304.51 795.234 1308.12 795.234 Q1311.76 795.234 1313.56 791.693 Q1315.39 788.128 1315.39 781.022 Q1315.39 773.892 1313.56 770.35 Q1311.76 766.786 1308.12 766.786 M1308.12 763.082 Q1313.93 763.082 1316.99 767.688 Q1320.07 772.272 1320.07 781.022 Q1320.07 789.748 1316.99 794.355 Q1313.93 798.938 1308.12 798.938 Q1302.31 798.938 1299.23 794.355 Q1296.18 789.748 1296.18 781.022 Q1296.18 772.272 1299.23 767.688 Q1302.31 763.082 1308.12 763.082 Z" fill="#000000" fill-rule="nonzero" fill-opacity="1" /><path clip-path="url(#clip790)" d="M1332.31 794.332 L1348.63 794.332 L1348.63 798.267 L1326.69 798.267 L1326.69 794.332 Q1329.35 791.577 1333.93 786.947 Q1338.54 782.295 1339.72 780.952 Q1341.96 778.429 1342.84 776.693 Q1343.75 774.934 1343.75 773.244 Q1343.75 770.489 1341.8 768.753 Q1339.88 767.017 1336.78 767.017 Q1334.58 767.017 1332.13 767.781 Q1329.7 768.545 1326.92 770.096 L1326.92 765.374 Q1329.74 764.239 1332.2 763.661 Q1334.65 763.082 1336.69 763.082 Q1342.06 763.082 1345.25 765.767 Q1348.45 768.452 1348.45 772.943 Q1348.45 775.073 1347.64 776.994 Q1346.85 778.892 1344.74 781.485 Q1344.16 782.156 1341.06 785.373 Q1337.96 788.568 1332.31 794.332 Z" fill="#000000" fill-rule="nonzero" fill-opacity="1" /><path clip-path="url(#clip790)" d="M1358.49 763.707 L1376.85 763.707 L1376.85 767.642 L1362.77 767.642 L1362.77 776.114 Q1363.79 775.767 1364.81 775.605 Q1365.83 775.42 1366.85 775.42 Q1372.63 775.42 1376.01 778.591 Q1379.39 781.762 1379.39 787.179 Q1379.39 792.758 1375.92 795.859 Q1372.45 798.938 1366.13 798.938 Q1363.95 798.938 1361.69 798.568 Q1359.44 798.197 1357.03 797.457 L1357.03 792.758 Q1359.12 793.892 1361.34 794.447 Q1363.56 795.003 1366.04 795.003 Q1370.04 795.003 1372.38 792.897 Q1374.72 790.79 1374.72 787.179 Q1374.72 783.568 1372.38 781.461 Q1370.04 779.355 1366.04 779.355 Q1364.16 779.355 1362.29 779.772 Q1360.44 780.188 1358.49 781.068 L1358.49 763.707 Z" fill="#000000" fill-rule="nonzero" fill-opacity="1" /><path clip-path="url(#clip790)" d="M1252.71 565.633 L1260.34 565.633 L1260.34 539.268 L1252.03 540.934 L1252.03 536.675 L1260.3 535.008 L1264.97 535.008 L1264.97 565.633 L1272.61 565.633 L1272.61 569.568 L1252.71 569.568 L1252.71 565.633 Z" fill="#000000" fill-rule="nonzero" fill-opacity="1" /><path clip-path="url(#clip790)" d="M1282.06 563.689 L1286.94 563.689 L1286.94 569.568 L1282.06 569.568 L1282.06 563.689 Z" fill="#000000" fill-rule="nonzero" fill-opacity="1" /><path clip-path="url(#clip790)" d="M1307.13 538.087 Q1303.51 538.087 1301.69 541.652 Q1299.88 545.194 1299.88 552.323 Q1299.88 559.43 1301.69 562.994 Q1303.51 566.536 1307.13 566.536 Q1310.76 566.536 1312.57 562.994 Q1314.39 559.43 1314.39 552.323 Q1314.39 545.194 1312.57 541.652 Q1310.76 538.087 1307.13 538.087 M1307.13 534.383 Q1312.94 534.383 1315.99 538.99 Q1319.07 543.573 1319.07 552.323 Q1319.07 561.05 1315.99 565.656 Q1312.94 570.24 1307.13 570.24 Q1301.32 570.24 1298.24 565.656 Q1295.18 561.05 1295.18 552.323 Q1295.18 543.573 1298.24 538.99 Q1301.32 534.383 1307.13 534.383 Z" fill="#000000" fill-rule="nonzero" fill-opacity="1" /><path clip-path="url(#clip790)" d="M1327.33 535.008 L1345.69 535.008 L1345.69 538.944 L1331.62 538.944 L1331.62 547.416 Q1332.64 547.069 1333.65 546.907 Q1334.67 546.721 1335.69 546.721 Q1341.48 546.721 1344.86 549.893 Q1348.24 553.064 1348.24 558.481 Q1348.24 564.059 1344.76 567.161 Q1341.29 570.24 1334.97 570.24 Q1332.8 570.24 1330.53 569.869 Q1328.28 569.499 1325.88 568.758 L1325.88 564.059 Q1327.96 565.194 1330.18 565.749 Q1332.4 566.305 1334.88 566.305 Q1338.89 566.305 1341.22 564.198 Q1343.56 562.092 1343.56 558.481 Q1343.56 554.869 1341.22 552.763 Q1338.89 550.657 1334.88 550.657 Q1333.01 550.657 1331.13 551.073 Q1329.28 551.49 1327.33 552.369 L1327.33 535.008 Z" fill="#000000" fill-rule="nonzero" fill-opacity="1" /><path clip-path="url(#clip790)" d="M1367.45 538.087 Q1363.84 538.087 1362.01 541.652 Q1360.2 545.194 1360.2 552.323 Q1360.2 559.43 1362.01 562.994 Q1363.84 566.536 1367.45 566.536 Q1371.08 566.536 1372.89 562.994 Q1374.72 559.43 1374.72 552.323 Q1374.72 545.194 1372.89 541.652 Q1371.08 538.087 1367.45 538.087 M1367.45 534.383 Q1373.26 534.383 1376.32 538.99 Q1379.39 543.573 1379.39 552.323 Q1379.39 561.05 1376.32 565.656 Q1373.26 570.24 1367.45 570.24 Q1361.64 570.24 1358.56 565.656 Q1355.51 561.05 1355.51 552.323 Q1355.51 543.573 1358.56 538.99 Q1361.64 534.383 1367.45 534.383 Z" fill="#000000" fill-rule="nonzero" fill-opacity="1" /><path clip-path="url(#clip790)" d="M1253.7 336.935 L1261.34 336.935 L1261.34 310.569 L1253.03 312.236 L1253.03 307.977 L1261.29 306.31 L1265.97 306.31 L1265.97 336.935 L1273.61 336.935 L1273.61 340.87 L1253.7 340.87 L1253.7 336.935 Z" fill="#000000" fill-rule="nonzero" fill-opacity="1" /><path clip-path="url(#clip790)" d="M1283.05 334.991 L1287.94 334.991 L1287.94 340.87 L1283.05 340.87 L1283.05 334.991 Z" fill="#000000" fill-rule="nonzero" fill-opacity="1" /><path clip-path="url(#clip790)" d="M1308.12 309.389 Q1304.51 309.389 1302.68 312.954 Q1300.88 316.495 1300.88 323.625 Q1300.88 330.731 1302.68 334.296 Q1304.51 337.838 1308.12 337.838 Q1311.76 337.838 1313.56 334.296 Q1315.39 330.731 1315.39 323.625 Q1315.39 316.495 1313.56 312.954 Q1311.76 309.389 1308.12 309.389 M1308.12 305.685 Q1313.93 305.685 1316.99 310.292 Q1320.07 314.875 1320.07 323.625 Q1320.07 332.352 1316.99 336.958 Q1313.93 341.541 1308.12 341.541 Q1302.31 341.541 1299.23 336.958 Q1296.18 332.352 1296.18 323.625 Q1296.18 314.875 1299.23 310.292 Q1302.31 305.685 1308.12 305.685 Z" fill="#000000" fill-rule="nonzero" fill-opacity="1" /><path clip-path="url(#clip790)" d="M1327.1 306.31 L1349.32 306.31 L1349.32 308.301 L1336.78 340.87 L1331.89 340.87 L1343.7 310.245 L1327.1 310.245 L1327.1 306.31 Z" fill="#000000" fill-rule="nonzero" fill-opacity="1" /><path clip-path="url(#clip790)" d="M1358.49 306.31 L1376.85 306.31 L1376.85 310.245 L1362.77 310.245 L1362.77 318.717 Q1363.79 318.37 1364.81 318.208 Q1365.83 318.023 1366.85 318.023 Q1372.63 318.023 1376.01 321.194 Q1379.39 324.366 1379.39 329.782 Q1379.39 335.361 1375.92 338.463 Q1372.45 341.541 1366.13 341.541 Q1363.95 341.541 1361.69 341.171 Q1359.44 340.801 1357.03 340.06 L1357.03 335.361 Q1359.12 336.495 1361.34 337.051 Q1363.56 337.606 1366.04 337.606 Q1370.04 337.606 1372.38 335.5 Q1374.72 333.393 1374.72 329.782 Q1374.72 326.171 1372.38 324.065 Q1370.04 321.958 1366.04 321.958 Q1364.16 321.958 1362.29 322.375 Q1360.44 322.792 1358.49 323.671 L1358.49 306.31 Z" fill="#000000" fill-rule="nonzero" fill-opacity="1" /><path clip-path="url(#clip790)" d="M1252.71 108.237 L1260.34 108.237 L1260.34 81.871 L1252.03 83.5376 L1252.03 79.2784 L1260.3 77.6117 L1264.97 77.6117 L1264.97 108.237 L1272.61 108.237 L1272.61 112.172 L1252.71 112.172 L1252.71 108.237 Z" fill="#000000" fill-rule="nonzero" fill-opacity="1" /><path clip-path="url(#clip790)" d="M1282.06 106.292 L1286.94 106.292 L1286.94 112.172 L1282.06 112.172 L1282.06 106.292 Z" fill="#000000" fill-rule="nonzero" fill-opacity="1" /><path clip-path="url(#clip790)" d="M1297.94 108.237 L1305.58 108.237 L1305.58 81.871 L1297.27 83.5376 L1297.27 79.2784 L1305.53 77.6117 L1310.2 77.6117 L1310.2 108.237 L1317.84 108.237 L1317.84 112.172 L1297.94 112.172 L1297.94 108.237 Z" fill="#000000" fill-rule="nonzero" fill-opacity="1" /><path clip-path="url(#clip790)" d="M1337.29 80.6904 Q1333.68 80.6904 1331.85 84.2552 Q1330.04 87.7969 1330.04 94.9265 Q1330.04 102.033 1331.85 105.598 Q1333.68 109.139 1337.29 109.139 Q1340.92 109.139 1342.73 105.598 Q1344.56 102.033 1344.56 94.9265 Q1344.56 87.7969 1342.73 84.2552 Q1340.92 80.6904 1337.29 80.6904 M1337.29 76.9867 Q1343.1 76.9867 1346.15 81.5932 Q1349.23 86.1765 1349.23 94.9265 Q1349.23 103.653 1346.15 108.26 Q1343.1 112.843 1337.29 112.843 Q1331.48 112.843 1328.4 108.26 Q1325.34 103.653 1325.34 94.9265 Q1325.34 86.1765 1328.4 81.5932 Q1331.48 76.9867 1337.29 76.9867 Z" fill="#000000" fill-rule="nonzero" fill-opacity="1" /><path clip-path="url(#clip790)" d="M1367.45 80.6904 Q1363.84 80.6904 1362.01 84.2552 Q1360.2 87.7969 1360.2 94.9265 Q1360.2 102.033 1362.01 105.598 Q1363.84 109.139 1367.45 109.139 Q1371.08 109.139 1372.89 105.598 Q1374.72 102.033 1374.72 94.9265 Q1374.72 87.7969 1372.89 84.2552 Q1371.08 80.6904 1367.45 80.6904 M1367.45 76.9867 Q1373.26 76.9867 1376.32 81.5932 Q1379.39 86.1765 1379.39 94.9265 Q1379.39 103.653 1376.32 108.26 Q1373.26 112.843 1367.45 112.843 Q1361.64 112.843 1358.56 108.26 Q1355.51 103.653 1355.51 94.9265 Q1355.51 86.1765 1358.56 81.5932 Q1361.64 76.9867 1367.45 76.9867 Z" fill="#000000" fill-rule="nonzero" fill-opacity="1" /><path clip-path="url(#clip790)" d="M1743.36 31.7342 Q1743.36 26.5259 1741.2 23.6613 Q1739.06 20.7968 1735.18 20.7968 Q1731.33 20.7968 1729.17 23.6613 Q1727.03 26.5259 1727.03 31.7342 Q1727.03 36.9165 1729.17 39.781 Q1731.33 42.6456 1735.18 42.6456 Q1739.06 42.6456 1741.2 39.781 Q1743.36 36.9165 1743.36 31.7342 M1748.15 43.0362 Q1748.15 50.4841 1744.84 54.1039 Q1741.54 57.7497 1734.71 57.7497 Q1732.19 57.7497 1729.95 57.3591 Q1727.71 56.9945 1725.6 56.2132 L1725.6 51.5518 Q1727.71 52.6976 1729.77 53.2445 Q1731.82 53.7914 1733.96 53.7914 Q1738.67 53.7914 1741.02 51.3174 Q1743.36 48.8695 1743.36 43.8956 L1743.36 41.5258 Q1741.88 44.1039 1739.56 45.38 Q1737.24 46.656 1734.01 46.656 Q1728.65 46.656 1725.36 42.5675 Q1722.08 38.479 1722.08 31.7342 Q1722.08 24.9634 1725.36 20.8749 Q1728.65 16.7864 1734.01 16.7864 Q1737.24 16.7864 1739.56 18.0624 Q1741.88 19.3384 1743.36 21.9165 L1743.36 17.4895 L1748.15 17.4895 L1748.15 43.0362 Z" fill="#000000" fill-rule="nonzero" fill-opacity="1" /><path clip-path="url(#clip790)" d="M1777.21 21.9165 L1777.21 6.13538 L1782.01 6.13538 L1782.01 46.656 L1777.21 46.656 L1777.21 42.281 Q1775.7 44.8852 1773.39 46.1612 Q1771.09 47.4112 1767.86 47.4112 Q1762.58 47.4112 1759.25 43.1925 Q1755.94 38.9737 1755.94 32.0988 Q1755.94 25.2238 1759.25 21.0051 Q1762.58 16.7864 1767.86 16.7864 Q1771.09 16.7864 1773.39 18.0624 Q1775.7 19.3124 1777.21 21.9165 M1760.89 32.0988 Q1760.89 37.3852 1763.05 40.406 Q1765.23 43.4008 1769.04 43.4008 Q1772.84 43.4008 1775.03 40.406 Q1777.21 37.3852 1777.21 32.0988 Q1777.21 26.8124 1775.03 23.8176 Q1772.84 20.7968 1769.04 20.7968 Q1765.23 20.7968 1763.05 23.8176 Q1760.89 26.8124 1760.89 32.0988 Z" fill="#000000" fill-rule="nonzero" fill-opacity="1" /><path clip-path="url(#clip790)" d="M1796.51 42.281 L1796.51 57.7497 L1791.69 57.7497 L1791.69 17.4895 L1796.51 17.4895 L1796.51 21.9165 Q1798.02 19.3124 1800.31 18.0624 Q1802.63 16.7864 1805.83 16.7864 Q1811.15 16.7864 1814.45 21.0051 Q1817.79 25.2238 1817.79 32.0988 Q1817.79 38.9737 1814.45 43.1925 Q1811.15 47.4112 1805.83 47.4112 Q1802.63 47.4112 1800.31 46.1612 Q1798.02 44.8852 1796.51 42.281 M1812.81 32.0988 Q1812.81 26.8124 1810.62 23.8176 Q1808.46 20.7968 1804.66 20.7968 Q1800.86 20.7968 1798.67 23.8176 Q1796.51 26.8124 1796.51 32.0988 Q1796.51 37.3852 1798.67 40.406 Q1800.86 43.4008 1804.66 43.4008 Q1808.46 43.4008 1810.62 40.406 Q1812.81 37.3852 1812.81 32.0988 Z" fill="#000000" fill-rule="nonzero" fill-opacity="1" /><path clip-path="url(#clip790)" d="M1861.87 21.9165 L1861.87 6.13538 L1866.67 6.13538 L1866.67 46.656 L1861.87 46.656 L1861.87 42.281 Q1860.36 44.8852 1858.05 46.1612 Q1855.75 47.4112 1852.53 47.4112 Q1847.24 47.4112 1843.91 43.1925 Q1840.6 38.9737 1840.6 32.0988 Q1840.6 25.2238 1843.91 21.0051 Q1847.24 16.7864 1852.53 16.7864 Q1855.75 16.7864 1858.05 18.0624 Q1860.36 19.3124 1861.87 21.9165 M1845.55 32.0988 Q1845.55 37.3852 1847.71 40.406 Q1849.9 43.4008 1853.7 43.4008 Q1857.5 43.4008 1859.69 40.406 Q1861.87 37.3852 1861.87 32.0988 Q1861.87 26.8124 1859.69 23.8176 Q1857.5 20.7968 1853.7 20.7968 Q1849.9 20.7968 1847.71 23.8176 Q1845.55 26.8124 1845.55 32.0988 Z" fill="#000000" fill-rule="nonzero" fill-opacity="1" /><path clip-path="url(#clip790)" d="M1901.48 30.8748 L1901.48 33.2186 L1879.45 33.2186 Q1879.77 38.1665 1882.42 40.7706 Q1885.1 43.3487 1889.87 43.3487 Q1892.63 43.3487 1895.21 42.6716 Q1897.81 41.9946 1900.36 40.6404 L1900.36 45.1716 Q1897.79 46.2654 1895.08 46.8383 Q1892.37 47.4112 1889.58 47.4112 Q1882.6 47.4112 1878.52 43.3487 Q1874.45 39.2862 1874.45 32.3592 Q1874.45 25.1978 1878.31 21.0051 Q1882.19 16.7864 1888.75 16.7864 Q1894.63 16.7864 1898.05 20.5884 Q1901.48 24.3645 1901.48 30.8748 M1896.69 29.4686 Q1896.64 25.5363 1894.48 23.1926 Q1892.34 20.8488 1888.8 20.8488 Q1884.79 20.8488 1882.37 23.1145 Q1879.97 25.3801 1879.61 29.4946 L1896.69 29.4686 Z" fill="#000000" fill-rule="nonzero" fill-opacity="1" /><path clip-path="url(#clip790)" d="M1924.11 6.13538 L1924.11 10.1197 L1919.53 10.1197 Q1916.95 10.1197 1915.94 11.1614 Q1914.95 12.2031 1914.95 14.9114 L1914.95 17.4895 L1922.84 17.4895 L1922.84 21.2134 L1914.95 21.2134 L1914.95 46.656 L1910.13 46.656 L1910.13 21.2134 L1905.55 21.2134 L1905.55 17.4895 L1910.13 17.4895 L1910.13 15.4583 Q1910.13 10.5885 1912.4 8.37496 Q1914.66 6.13538 1919.58 6.13538 L1924.11 6.13538 Z" fill="#000000" fill-rule="nonzero" fill-opacity="1" /><path clip-path="url(#clip790)" d="M1928.12 6.13538 L1932.92 6.13538 L1932.92 46.656 L1928.12 46.656 L1928.12 6.13538 Z" fill="#000000" fill-rule="nonzero" fill-opacity="1" /><path clip-path="url(#clip790)" d="M1956.2 31.9946 Q1950.39 31.9946 1948.15 33.3227 Q1945.91 34.6509 1945.91 37.854 Q1945.91 40.406 1947.58 41.9164 Q1949.27 43.4008 1952.16 43.4008 Q1956.14 43.4008 1958.54 40.5883 Q1960.96 37.7498 1960.96 33.0623 L1960.96 31.9946 L1956.2 31.9946 M1965.75 30.0155 L1965.75 46.656 L1960.96 46.656 L1960.96 42.2289 Q1959.32 44.8852 1956.87 46.1612 Q1954.43 47.4112 1950.88 47.4112 Q1946.41 47.4112 1943.75 44.9112 Q1941.12 42.3852 1941.12 38.1665 Q1941.12 33.2446 1944.4 30.7446 Q1947.71 28.2446 1954.24 28.2446 L1960.96 28.2446 L1960.96 27.7759 Q1960.96 24.4686 1958.78 22.6718 Q1956.61 20.8488 1952.68 20.8488 Q1950.18 20.8488 1947.81 21.4478 Q1945.44 22.0468 1943.25 23.2447 L1943.25 18.8176 Q1945.88 17.802 1948.36 17.3072 Q1950.83 16.7864 1953.18 16.7864 Q1959.5 16.7864 1962.63 20.0676 Q1965.75 23.3488 1965.75 30.0155 Z" fill="#000000" fill-rule="nonzero" fill-opacity="1" /><path clip-path="url(#clip790)" d="M1980.36 9.20828 L1980.36 17.4895 L1990.23 17.4895 L1990.23 21.2134 L1980.36 21.2134 L1980.36 37.0467 Q1980.36 40.6144 1981.33 41.63 Q1982.32 42.6456 1985.31 42.6456 L1990.23 42.6456 L1990.23 46.656 L1985.31 46.656 Q1979.76 46.656 1977.66 44.5987 Q1975.55 42.5154 1975.55 37.0467 L1975.55 21.2134 L1972.03 21.2134 L1972.03 17.4895 L1975.55 17.4895 L1975.55 9.20828 L1980.36 9.20828 Z" fill="#000000" fill-rule="nonzero" fill-opacity="1" /><path clip-path="url(#clip790)" d="M2007.84 20.8488 Q2003.98 20.8488 2001.74 23.8697 Q1999.5 26.8644 1999.5 32.0988 Q1999.5 37.3331 2001.72 40.354 Q2003.96 43.3487 2007.84 43.3487 Q2011.67 43.3487 2013.91 40.3279 Q2016.14 37.3071 2016.14 32.0988 Q2016.14 26.9165 2013.91 23.8957 Q2011.67 20.8488 2007.84 20.8488 M2007.84 16.7864 Q2014.09 16.7864 2017.66 20.8488 Q2021.22 24.9113 2021.22 32.0988 Q2021.22 39.2602 2017.66 43.3487 Q2014.09 47.4112 2007.84 47.4112 Q2001.56 47.4112 1997.99 43.3487 Q1994.45 39.2602 1994.45 32.0988 Q1994.45 24.9113 1997.99 20.8488 Q2001.56 16.7864 2007.84 16.7864 Z" fill="#000000" fill-rule="nonzero" fill-opacity="1" /><path clip-path="url(#clip790)" d="M2046.07 21.9686 Q2045.26 21.4999 2044.3 21.2916 Q2043.36 21.0572 2042.21 21.0572 Q2038.15 21.0572 2035.96 23.7134 Q2033.8 26.3436 2033.8 31.2915 L2033.8 46.656 L2028.98 46.656 L2028.98 17.4895 L2033.8 17.4895 L2033.8 22.0207 Q2035.31 19.3645 2037.73 18.0884 Q2040.15 16.7864 2043.62 16.7864 Q2044.11 16.7864 2044.71 16.8645 Q2045.31 16.9166 2046.04 17.0468 L2046.07 21.9686 Z" fill="#000000" fill-rule="nonzero" fill-opacity="1" /><path clip-path="url(#clip793)" d="M1526.14 1034.93 L1568.25 1018.73 L1610.36 1007.63 L1652.47 1008.23 L1694.58 1003.33 L1736.69 1030.22 L1778.8 996.127 L1820.91 948.07 L1863.02 949.753 L1905.13 886.848 L1947.24 840.158 L1989.35 851.075 L2031.46 816.081 L2073.57 750.322 L2115.68 711.465 L2157.79 664.888 L2199.9 702.154 L2242.01 640.916 L2284.12 560.619 L2326.23 503.508 L2326.23 172.972 L2284.12 257.282 L2242.01 334.371 L2199.9 375.766 L2157.79 387.947 L2115.68 465.208 L2073.57 451.212 L2031.46 508.273 L1989.35 569.022 L1947.24 600.987 L1905.13 691.118 L1863.02 734.212 L1820.91 778.888 L1778.8 792.746 L1736.69 808.771 L1694.58 851.528 L1652.47 851.893 L1610.36 939.958 L1568.25 995.926 L1526.14 972.31  Z" fill="#009af9" fill-rule="evenodd" fill-opacity="0.1"/>
<polyline clip-path="url(#clip793)" style="stroke:#009af9; stroke-linecap:round; stroke-linejoin:round; stroke-width:4; stroke-opacity:1; fill:none" points="1526.14,1003.62 1568.25,1007.33 1610.36,973.796 1652.47,930.063 1694.58,927.431 1736.69,919.494 1778.8,894.436 1820.91,863.479 1863.02,841.982 1905.13,788.983 1947.24,720.572 1989.35,710.048 2031.46,662.177 2073.57,600.767 2115.68,588.336 2157.79,526.417 2199.9,538.96 2242.01,487.644 2284.12,408.951 2326.23,338.24 "/>
<path clip-path="url(#clip793)" d="M1526.14 1026.19 L1568.25 1070.59 L1610.36 1018.26 L1652.47 1024.45 L1694.58 1014.57 L1736.69 990.019 L1778.8 1020.86 L1820.91 1006.16 L1863.02 983.726 L1905.13 981.601 L1947.24 999.058 L1989.35 962.138 L2031.46 893.798 L2073.57 930.584 L2115.68 952.859 L2157.79 929.138 L2199.9 922.829 L2242.01 872.033 L2284.12 848.161 L2326.23 828.596 L2326.23 120.65 L2284.12 131.626 L2242.01 180.695 L2199.9 240.884 L2157.79 269.886 L2115.68 360.423 L2073.57 441.941 L2031.46 544.334 L1989.35 550.826 L1947.24 563.446 L1905.13 577.701 L1863.02 645.384 L1820.91 681.915 L1778.8 748.901 L1736.69 748.199 L1694.58 782.569 L1652.47 828.772 L1610.36 863.886 L1568.25 887.682 L1526.14 954.211  Z" fill="#e26f46" fill-rule="evenodd" fill-opacity="0.1"/>
<polyline clip-path="url(#clip793)" style="stroke:#e26f46; stroke-linecap:round; stroke-linejoin:round; stroke-width:4; stroke-opacity:1; fill:none" points="1526.14,990.201 1568.25,979.136 1610.36,941.072 1652.47,926.61 1694.58,898.57 1736.69,869.109 1778.8,884.882 1820.91,844.038 1863.02,814.555 1905.13,779.651 1947.24,781.252 1989.35,756.482 2031.46,719.066 2073.57,686.262 2115.68,656.641 2157.79,599.512 2199.9,581.856 2242.01,526.364 2284.12,489.894 2326.23,474.623 "/>
</svg>
