<?xml version="1.0" encoding="utf-8"?>
<svg xmlns="http://www.w3.org/2000/svg" xmlns:xlink="http://www.w3.org/1999/xlink" width="600" height="400" viewBox="0 0 2400 1600">
<defs>
  <clipPath id="clip980">
    <rect x="0" y="0" width="2400" height="1600"/>
  </clipPath>
</defs>
<path clip-path="url(#clip980)" d="M0 1600 L2400 1600 L2400 0 L0 0  Z" fill="#ffffff" fill-rule="evenodd" fill-opacity="1"/>
<defs>
  <clipPath id="clip981">
    <rect x="480" y="0" width="1681" height="1600"/>
  </clipPath>
</defs>
<path clip-path="url(#clip980)" d="M230.765 1486.45 L2352.76 1486.45 L2352.76 106.192 L230.765 106.192  Z" fill="#ffffff" fill-rule="evenodd" fill-opacity="1"/>
<defs>
  <clipPath id="clip982">
    <rect x="230" y="106" width="2123" height="1381"/>
  </clipPath>
</defs>
<polyline clip-path="url(#clip982)" style="stroke:#000000; stroke-linecap:round; stroke-linejoin:round; stroke-width:2; stroke-opacity:0.1; fill:none" points="541.056,1486.45 541.056,106.192 "/>
<polyline clip-path="url(#clip982)" style="stroke:#000000; stroke-linecap:round; stroke-linejoin:round; stroke-width:2; stroke-opacity:0.1; fill:none" points="916.408,1486.45 916.408,106.192 "/>
<polyline clip-path="url(#clip982)" style="stroke:#000000; stroke-linecap:round; stroke-linejoin:round; stroke-width:2; stroke-opacity:0.1; fill:none" points="1291.76,1486.45 1291.76,106.192 "/>
<polyline clip-path="url(#clip982)" style="stroke:#000000; stroke-linecap:round; stroke-linejoin:round; stroke-width:2; stroke-opacity:0.1; fill:none" points="1667.11,1486.45 1667.11,106.192 "/>
<polyline clip-path="url(#clip982)" style="stroke:#000000; stroke-linecap:round; stroke-linejoin:round; stroke-width:2; stroke-opacity:0.1; fill:none" points="2042.46,1486.45 2042.46,106.192 "/>
<polyline clip-path="url(#clip982)" style="stroke:#000000; stroke-linecap:round; stroke-linejoin:round; stroke-width:2; stroke-opacity:0.1; fill:none" points="230.765,1292.57 2352.76,1292.57 "/>
<polyline clip-path="url(#clip982)" style="stroke:#000000; stroke-linecap:round; stroke-linejoin:round; stroke-width:2; stroke-opacity:0.1; fill:none" points="230.765,1024.72 2352.76,1024.72 "/>
<polyline clip-path="url(#clip982)" style="stroke:#000000; stroke-linecap:round; stroke-linejoin:round; stroke-width:2; stroke-opacity:0.1; fill:none" points="230.765,756.866 2352.76,756.866 "/>
<polyline clip-path="url(#clip982)" style="stroke:#000000; stroke-linecap:round; stroke-linejoin:round; stroke-width:2; stroke-opacity:0.1; fill:none" points="230.765,489.016 2352.76,489.016 "/>
<polyline clip-path="url(#clip982)" style="stroke:#000000; stroke-linecap:round; stroke-linejoin:round; stroke-width:2; stroke-opacity:0.1; fill:none" points="230.765,221.166 2352.76,221.166 "/>
<polyline clip-path="url(#clip980)" style="stroke:#000000; stroke-linecap:round; stroke-linejoin:round; stroke-width:4; stroke-opacity:1; fill:none" points="230.765,1486.45 2352.76,1486.45 "/>
<polyline clip-path="url(#clip980)" style="stroke:#000000; stroke-linecap:round; stroke-linejoin:round; stroke-width:4; stroke-opacity:1; fill:none" points="541.056,1486.45 541.056,1467.55 "/>
<polyline clip-path="url(#clip980)" style="stroke:#000000; stroke-linecap:round; stroke-linejoin:round; stroke-width:4; stroke-opacity:1; fill:none" points="916.408,1486.45 916.408,1467.55 "/>
<polyline clip-path="url(#clip980)" style="stroke:#000000; stroke-linecap:round; stroke-linejoin:round; stroke-width:4; stroke-opacity:1; fill:none" points="1291.76,1486.45 1291.76,1467.55 "/>
<polyline clip-path="url(#clip980)" style="stroke:#000000; stroke-linecap:round; stroke-linejoin:round; stroke-width:4; stroke-opacity:1; fill:none" points="1667.11,1486.45 1667.11,1467.55 "/>
<polyline clip-path="url(#clip980)" style="stroke:#000000; stroke-linecap:round; stroke-linejoin:round; stroke-width:4; stroke-opacity:1; fill:none" points="2042.46,1486.45 2042.46,1467.55 "/>
<path clip-path="url(#clip980)" d="M545.303 1530.21 Q548.66 1530.93 550.535 1533.2 Q552.433 1535.47 552.433 1538.8 Q552.433 1543.92 548.914 1546.72 Q545.396 1549.52 538.915 1549.52 Q536.739 1549.52 534.424 1549.08 Q532.132 1548.66 529.678 1547.81 L529.678 1543.29 Q531.623 1544.43 533.938 1545.01 Q536.252 1545.58 538.776 1545.58 Q543.174 1545.58 545.465 1543.85 Q547.78 1542.11 547.78 1538.8 Q547.78 1535.75 545.627 1534.03 Q543.498 1532.3 539.678 1532.3 L535.651 1532.3 L535.651 1528.45 L539.864 1528.45 Q543.313 1528.45 545.141 1527.09 Q546.97 1525.7 546.97 1523.11 Q546.97 1520.45 545.072 1519.03 Q543.197 1517.6 539.678 1517.6 Q537.757 1517.6 535.558 1518.01 Q533.359 1518.43 530.72 1519.31 L530.72 1515.14 Q533.382 1514.4 535.697 1514.03 Q538.035 1513.66 540.095 1513.66 Q545.419 1513.66 548.521 1516.09 Q551.623 1518.5 551.623 1522.62 Q551.623 1525.49 549.979 1527.48 Q548.336 1529.45 545.303 1530.21 Z" fill="#000000" fill-rule="nonzero" fill-opacity="1" /><path clip-path="url(#clip980)" d="M916.813 1529.7 Q913.665 1529.7 911.813 1531.86 Q909.984 1534.01 909.984 1537.76 Q909.984 1541.49 911.813 1543.66 Q913.665 1545.82 916.813 1545.82 Q919.961 1545.82 921.79 1543.66 Q923.642 1541.49 923.642 1537.76 Q923.642 1534.01 921.79 1531.86 Q919.961 1529.7 916.813 1529.7 M926.095 1515.05 L926.095 1519.31 Q924.336 1518.48 922.531 1518.04 Q920.748 1517.6 918.989 1517.6 Q914.359 1517.6 911.906 1520.72 Q909.475 1523.85 909.128 1530.17 Q910.494 1528.15 912.554 1527.09 Q914.614 1526 917.091 1526 Q922.299 1526 925.308 1529.17 Q928.341 1532.32 928.341 1537.76 Q928.341 1543.08 925.193 1546.3 Q922.044 1549.52 916.813 1549.52 Q910.818 1549.52 907.646 1544.94 Q904.475 1540.33 904.475 1531.6 Q904.475 1523.41 908.364 1518.55 Q912.253 1513.66 918.804 1513.66 Q920.563 1513.66 922.345 1514.01 Q924.151 1514.36 926.095 1515.05 Z" fill="#000000" fill-rule="nonzero" fill-opacity="1" /><path clip-path="url(#clip980)" d="M1282.06 1548.13 L1282.06 1543.87 Q1283.82 1544.7 1285.63 1545.14 Q1287.43 1545.58 1289.17 1545.58 Q1293.8 1545.58 1296.23 1542.48 Q1298.68 1539.36 1299.03 1533.01 Q1297.69 1535.01 1295.63 1536.07 Q1293.57 1537.13 1291.07 1537.13 Q1285.88 1537.13 1282.85 1534.01 Q1279.84 1530.86 1279.84 1525.42 Q1279.84 1520.1 1282.99 1516.88 Q1286.14 1513.66 1291.37 1513.66 Q1297.36 1513.66 1300.51 1518.27 Q1303.68 1522.85 1303.68 1531.6 Q1303.68 1539.77 1299.79 1544.66 Q1295.93 1549.52 1289.38 1549.52 Q1287.62 1549.52 1285.81 1549.17 Q1284.01 1548.82 1282.06 1548.13 M1291.37 1533.48 Q1294.51 1533.48 1296.34 1531.32 Q1298.2 1529.17 1298.2 1525.42 Q1298.2 1521.7 1296.34 1519.54 Q1294.51 1517.37 1291.37 1517.37 Q1288.22 1517.37 1286.37 1519.54 Q1284.54 1521.7 1284.54 1525.42 Q1284.54 1529.17 1286.37 1531.32 Q1288.22 1533.48 1291.37 1533.48 Z" fill="#000000" fill-rule="nonzero" fill-opacity="1" /><path clip-path="url(#clip980)" d="M1642.6 1544.91 L1650.24 1544.91 L1650.24 1518.55 L1641.93 1520.21 L1641.93 1515.95 L1650.19 1514.29 L1654.87 1514.29 L1654.87 1544.91 L1662.51 1544.91 L1662.51 1548.85 L1642.6 1548.85 L1642.6 1544.91 Z" fill="#000000" fill-rule="nonzero" fill-opacity="1" /><path clip-path="url(#clip980)" d="M1675.98 1544.91 L1692.3 1544.91 L1692.3 1548.85 L1670.35 1548.85 L1670.35 1544.91 Q1673.02 1542.16 1677.6 1537.53 Q1682.2 1532.88 1683.39 1531.53 Q1685.63 1529.01 1686.51 1527.27 Q1687.41 1525.51 1687.41 1523.82 Q1687.41 1521.07 1685.47 1519.33 Q1683.55 1517.6 1680.45 1517.6 Q1678.25 1517.6 1675.79 1518.36 Q1673.36 1519.13 1670.58 1520.68 L1670.58 1515.95 Q1673.41 1514.82 1675.86 1514.24 Q1678.32 1513.66 1680.35 1513.66 Q1685.72 1513.66 1688.92 1516.35 Q1692.11 1519.03 1692.11 1523.52 Q1692.11 1525.65 1691.3 1527.57 Q1690.52 1529.47 1688.41 1532.07 Q1687.83 1532.74 1684.73 1535.95 Q1681.63 1539.15 1675.98 1544.91 Z" fill="#000000" fill-rule="nonzero" fill-opacity="1" /><path clip-path="url(#clip980)" d="M2017.65 1544.91 L2025.29 1544.91 L2025.29 1518.55 L2016.98 1520.21 L2016.98 1515.95 L2025.24 1514.29 L2029.92 1514.29 L2029.92 1544.91 L2037.56 1544.91 L2037.56 1548.85 L2017.65 1548.85 L2017.65 1544.91 Z" fill="#000000" fill-rule="nonzero" fill-opacity="1" /><path clip-path="url(#clip980)" d="M2047.05 1514.29 L2065.4 1514.29 L2065.4 1518.22 L2051.33 1518.22 L2051.33 1526.7 Q2052.35 1526.35 2053.37 1526.19 Q2054.39 1526 2055.4 1526 Q2061.19 1526 2064.57 1529.17 Q2067.95 1532.34 2067.95 1537.76 Q2067.95 1543.34 2064.48 1546.44 Q2061.01 1549.52 2054.69 1549.52 Q2052.51 1549.52 2050.24 1549.15 Q2048 1548.78 2045.59 1548.04 L2045.59 1543.34 Q2047.67 1544.47 2049.9 1545.03 Q2052.12 1545.58 2054.59 1545.58 Q2058.6 1545.58 2060.94 1543.48 Q2063.27 1541.37 2063.27 1537.76 Q2063.27 1534.15 2060.94 1532.04 Q2058.6 1529.94 2054.59 1529.94 Q2052.72 1529.94 2050.84 1530.35 Q2048.99 1530.77 2047.05 1531.65 L2047.05 1514.29 Z" fill="#000000" fill-rule="nonzero" fill-opacity="1" /><polyline clip-path="url(#clip980)" style="stroke:#000000; stroke-linecap:round; stroke-linejoin:round; stroke-width:4; stroke-opacity:1; fill:none" points="230.765,1486.45 230.765,106.192 "/>
<polyline clip-path="url(#clip980)" style="stroke:#000000; stroke-linecap:round; stroke-linejoin:round; stroke-width:4; stroke-opacity:1; fill:none" points="230.765,1292.57 249.662,1292.57 "/>
<polyline clip-path="url(#clip980)" style="stroke:#000000; stroke-linecap:round; stroke-linejoin:round; stroke-width:4; stroke-opacity:1; fill:none" points="230.765,1024.72 249.662,1024.72 "/>
<polyline clip-path="url(#clip980)" style="stroke:#000000; stroke-linecap:round; stroke-linejoin:round; stroke-width:4; stroke-opacity:1; fill:none" points="230.765,756.866 249.662,756.866 "/>
<polyline clip-path="url(#clip980)" style="stroke:#000000; stroke-linecap:round; stroke-linejoin:round; stroke-width:4; stroke-opacity:1; fill:none" points="230.765,489.016 249.662,489.016 "/>
<polyline clip-path="url(#clip980)" style="stroke:#000000; stroke-linecap:round; stroke-linejoin:round; stroke-width:4; stroke-opacity:1; fill:none" points="230.765,221.166 249.662,221.166 "/>
<path clip-path="url(#clip980)" d="M50.9921 1275.29 L73.2142 1275.29 L73.2142 1277.28 L60.668 1309.85 L55.7838 1309.85 L67.5893 1279.22 L50.9921 1279.22 L50.9921 1275.29 Z" fill="#000000" fill-rule="nonzero" fill-opacity="1" /><path clip-path="url(#clip980)" d="M96.5011 1291.21 Q99.8576 1291.93 101.733 1294.2 Q103.631 1296.47 103.631 1299.8 Q103.631 1304.92 100.112 1307.72 Q96.5937 1310.52 90.1123 1310.52 Q87.9364 1310.52 85.6216 1310.08 Q83.3299 1309.66 80.8762 1308.81 L80.8762 1304.29 Q82.8207 1305.43 85.1355 1306 Q87.4503 1306.58 89.9734 1306.58 Q94.3715 1306.58 96.6632 1304.85 Q98.978 1303.11 98.978 1299.8 Q98.978 1296.74 96.8252 1295.03 Q94.6956 1293.3 90.8762 1293.3 L86.8484 1293.3 L86.8484 1289.45 L91.0614 1289.45 Q94.5104 1289.45 96.3391 1288.09 Q98.1678 1286.7 98.1678 1284.11 Q98.1678 1281.44 96.2697 1280.03 Q94.3947 1278.6 90.8762 1278.6 Q88.9549 1278.6 86.7558 1279.01 Q84.5568 1279.43 81.9179 1280.31 L81.9179 1276.14 Q84.5799 1275.4 86.8947 1275.03 Q89.2327 1274.66 91.2928 1274.66 Q96.6169 1274.66 99.7187 1277.09 Q102.821 1279.5 102.821 1283.62 Q102.821 1286.49 101.177 1288.48 Q99.5335 1290.45 96.5011 1291.21 Z" fill="#000000" fill-rule="nonzero" fill-opacity="1" /><path clip-path="url(#clip980)" d="M122.496 1278.37 Q118.885 1278.37 117.057 1281.93 Q115.251 1285.47 115.251 1292.6 Q115.251 1299.71 117.057 1303.27 Q118.885 1306.81 122.496 1306.81 Q126.131 1306.81 127.936 1303.27 Q129.765 1299.71 129.765 1292.6 Q129.765 1285.47 127.936 1281.93 Q126.131 1278.37 122.496 1278.37 M122.496 1274.66 Q128.307 1274.66 131.362 1279.27 Q134.441 1283.85 134.441 1292.6 Q134.441 1301.33 131.362 1305.93 Q128.307 1310.52 122.496 1310.52 Q116.686 1310.52 113.608 1305.93 Q110.552 1301.33 110.552 1292.6 Q110.552 1283.85 113.608 1279.27 Q116.686 1274.66 122.496 1274.66 Z" fill="#000000" fill-rule="nonzero" fill-opacity="1" /><path clip-path="url(#clip980)" d="M152.658 1278.37 Q149.047 1278.37 147.218 1281.93 Q145.413 1285.47 145.413 1292.6 Q145.413 1299.71 147.218 1303.27 Q149.047 1306.81 152.658 1306.81 Q156.292 1306.81 158.098 1303.27 Q159.927 1299.71 159.927 1292.6 Q159.927 1285.47 158.098 1281.93 Q156.292 1278.37 152.658 1278.37 M152.658 1274.66 Q158.468 1274.66 161.524 1279.27 Q164.603 1283.85 164.603 1292.6 Q164.603 1301.33 161.524 1305.93 Q158.468 1310.52 152.658 1310.52 Q146.848 1310.52 143.769 1305.93 Q140.714 1301.33 140.714 1292.6 Q140.714 1283.85 143.769 1279.27 Q146.848 1274.66 152.658 1274.66 Z" fill="#000000" fill-rule="nonzero" fill-opacity="1" /><path clip-path="url(#clip980)" d="M182.82 1278.37 Q179.209 1278.37 177.38 1281.93 Q175.575 1285.47 175.575 1292.6 Q175.575 1299.71 177.38 1303.27 Q179.209 1306.81 182.82 1306.81 Q186.454 1306.81 188.26 1303.27 Q190.089 1299.71 190.089 1292.6 Q190.089 1285.47 188.26 1281.93 Q186.454 1278.37 182.82 1278.37 M182.82 1274.66 Q188.63 1274.66 191.686 1279.27 Q194.765 1283.85 194.765 1292.6 Q194.765 1301.33 191.686 1305.93 Q188.63 1310.52 182.82 1310.52 Q177.01 1310.52 173.931 1305.93 Q170.876 1301.33 170.876 1292.6 Q170.876 1283.85 173.931 1279.27 Q177.01 1274.66 182.82 1274.66 Z" fill="#000000" fill-rule="nonzero" fill-opacity="1" /><path clip-path="url(#clip980)" d="M50.9921 1007.44 L73.2142 1007.44 L73.2142 1009.43 L60.668 1042 L55.7838 1042 L67.5893 1011.37 L50.9921 1011.37 L50.9921 1007.44 Z" fill="#000000" fill-rule="nonzero" fill-opacity="1" /><path clip-path="url(#clip980)" d="M95.1817 1011.51 L83.3762 1029.96 L95.1817 1029.96 L95.1817 1011.51 M93.9549 1007.44 L99.8345 1007.44 L99.8345 1029.96 L104.765 1029.96 L104.765 1033.85 L99.8345 1033.85 L99.8345 1042 L95.1817 1042 L95.1817 1033.85 L79.5799 1033.85 L79.5799 1029.33 L93.9549 1007.44 Z" fill="#000000" fill-rule="nonzero" fill-opacity="1" /><path clip-path="url(#clip980)" d="M122.496 1010.52 Q118.885 1010.52 117.057 1014.08 Q115.251 1017.62 115.251 1024.75 Q115.251 1031.86 117.057 1035.42 Q118.885 1038.96 122.496 1038.96 Q126.131 1038.96 127.936 1035.42 Q129.765 1031.86 129.765 1024.75 Q129.765 1017.62 127.936 1014.08 Q126.131 1010.52 122.496 1010.52 M122.496 1006.81 Q128.307 1006.81 131.362 1011.42 Q134.441 1016 134.441 1024.75 Q134.441 1033.48 131.362 1038.08 Q128.307 1042.67 122.496 1042.67 Q116.686 1042.67 113.608 1038.08 Q110.552 1033.48 110.552 1024.75 Q110.552 1016 113.608 1011.42 Q116.686 1006.81 122.496 1006.81 Z" fill="#000000" fill-rule="nonzero" fill-opacity="1" /><path clip-path="url(#clip980)" d="M152.658 1010.52 Q149.047 1010.52 147.218 1014.08 Q145.413 1017.62 145.413 1024.75 Q145.413 1031.86 147.218 1035.42 Q149.047 1038.96 152.658 1038.96 Q156.292 1038.96 158.098 1035.42 Q159.927 1031.86 159.927 1024.75 Q159.927 1017.62 158.098 1014.08 Q156.292 1010.52 152.658 1010.52 M152.658 1006.81 Q158.468 1006.81 161.524 1011.42 Q164.603 1016 164.603 1024.75 Q164.603 1033.48 161.524 1038.08 Q158.468 1042.67 152.658 1042.67 Q146.848 1042.67 143.769 1038.08 Q140.714 1033.48 140.714 1024.75 Q140.714 1016 143.769 1011.42 Q146.848 1006.81 152.658 1006.81 Z" fill="#000000" fill-rule="nonzero" fill-opacity="1" /><path clip-path="url(#clip980)" d="M182.82 1010.52 Q179.209 1010.52 177.38 1014.08 Q175.575 1017.62 175.575 1024.75 Q175.575 1031.86 177.38 1035.42 Q179.209 1038.96 182.82 1038.96 Q186.454 1038.96 188.26 1035.42 Q190.089 1031.86 190.089 1024.75 Q190.089 1017.62 188.26 1014.08 Q186.454 1010.52 182.82 1010.52 M182.82 1006.81 Q188.63 1006.81 191.686 1011.42 Q194.765 1016 194.765 1024.75 Q194.765 1033.48 191.686 1038.08 Q188.63 1042.67 182.82 1042.67 Q177.01 1042.67 173.931 1038.08 Q170.876 1033.48 170.876 1024.75 Q170.876 1016 173.931 1011.42 Q177.01 1006.81 182.82 1006.81 Z" fill="#000000" fill-rule="nonzero" fill-opacity="1" /><path clip-path="url(#clip980)" d="M50.9921 739.586 L73.2142 739.586 L73.2142 741.577 L60.668 774.146 L55.7838 774.146 L67.5893 743.522 L50.9921 743.522 L50.9921 739.586 Z" fill="#000000" fill-rule="nonzero" fill-opacity="1" /><path clip-path="url(#clip980)" d="M82.3808 739.586 L100.737 739.586 L100.737 743.522 L86.6632 743.522 L86.6632 751.994 Q87.6817 751.647 88.7003 751.485 Q89.7188 751.299 90.7373 751.299 Q96.5243 751.299 99.9039 754.471 Q103.284 757.642 103.284 763.059 Q103.284 768.637 99.8113 771.739 Q96.3391 774.818 90.0197 774.818 Q87.8438 774.818 85.5753 774.447 Q83.3299 774.077 80.9225 773.336 L80.9225 768.637 Q83.0058 769.771 85.2281 770.327 Q87.4503 770.883 89.9271 770.883 Q93.9317 770.883 96.2697 768.776 Q98.6076 766.67 98.6076 763.059 Q98.6076 759.447 96.2697 757.341 Q93.9317 755.234 89.9271 755.234 Q88.0521 755.234 86.1771 755.651 Q84.3253 756.068 82.3808 756.947 L82.3808 739.586 Z" fill="#000000" fill-rule="nonzero" fill-opacity="1" /><path clip-path="url(#clip980)" d="M122.496 742.665 Q118.885 742.665 117.057 746.23 Q115.251 749.772 115.251 756.901 Q115.251 764.008 117.057 767.572 Q118.885 771.114 122.496 771.114 Q126.131 771.114 127.936 767.572 Q129.765 764.008 129.765 756.901 Q129.765 749.772 127.936 746.23 Q126.131 742.665 122.496 742.665 M122.496 738.961 Q128.307 738.961 131.362 743.568 Q134.441 748.151 134.441 756.901 Q134.441 765.628 131.362 770.234 Q128.307 774.818 122.496 774.818 Q116.686 774.818 113.608 770.234 Q110.552 765.628 110.552 756.901 Q110.552 748.151 113.608 743.568 Q116.686 738.961 122.496 738.961 Z" fill="#000000" fill-rule="nonzero" fill-opacity="1" /><path clip-path="url(#clip980)" d="M152.658 742.665 Q149.047 742.665 147.218 746.23 Q145.413 749.772 145.413 756.901 Q145.413 764.008 147.218 767.572 Q149.047 771.114 152.658 771.114 Q156.292 771.114 158.098 767.572 Q159.927 764.008 159.927 756.901 Q159.927 749.772 158.098 746.23 Q156.292 742.665 152.658 742.665 M152.658 738.961 Q158.468 738.961 161.524 743.568 Q164.603 748.151 164.603 756.901 Q164.603 765.628 161.524 770.234 Q158.468 774.818 152.658 774.818 Q146.848 774.818 143.769 770.234 Q140.714 765.628 140.714 756.901 Q140.714 748.151 143.769 743.568 Q146.848 738.961 152.658 738.961 Z" fill="#000000" fill-rule="nonzero" fill-opacity="1" /><path clip-path="url(#clip980)" d="M182.82 742.665 Q179.209 742.665 177.38 746.23 Q175.575 749.772 175.575 756.901 Q175.575 764.008 177.38 767.572 Q179.209 771.114 182.82 771.114 Q186.454 771.114 188.26 767.572 Q190.089 764.008 190.089 756.901 Q190.089 749.772 188.26 746.23 Q186.454 742.665 182.82 742.665 M182.82 738.961 Q188.63 738.961 191.686 743.568 Q194.765 748.151 194.765 756.901 Q194.765 765.628 191.686 770.234 Q188.63 774.818 182.82 774.818 Q177.01 774.818 173.931 770.234 Q170.876 765.628 170.876 756.901 Q170.876 748.151 173.931 743.568 Q177.01 738.961 182.82 738.961 Z" fill="#000000" fill-rule="nonzero" fill-opacity="1" /><path clip-path="url(#clip980)" d="M50.9921 471.736 L73.2142 471.736 L73.2142 473.727 L60.668 506.296 L55.7838 506.296 L67.5893 475.671 L50.9921 475.671 L50.9921 471.736 Z" fill="#000000" fill-rule="nonzero" fill-opacity="1" /><path clip-path="url(#clip980)" d="M92.9132 487.153 Q89.7651 487.153 87.9132 489.306 Q86.0845 491.458 86.0845 495.208 Q86.0845 498.935 87.9132 501.111 Q89.7651 503.264 92.9132 503.264 Q96.0613 503.264 97.89 501.111 Q99.7419 498.935 99.7419 495.208 Q99.7419 491.458 97.89 489.306 Q96.0613 487.153 92.9132 487.153 M102.196 472.5 L102.196 476.759 Q100.436 475.926 98.6308 475.486 Q96.8484 475.046 95.0891 475.046 Q90.4595 475.046 88.0058 478.171 Q85.5753 481.296 85.2281 487.616 Q86.5938 485.602 88.654 484.537 Q90.7141 483.449 93.191 483.449 Q98.3993 483.449 101.409 486.62 Q104.441 489.769 104.441 495.208 Q104.441 500.532 101.293 503.75 Q98.1447 506.968 92.9132 506.968 Q86.9179 506.968 83.7466 502.384 Q80.5753 497.778 80.5753 489.051 Q80.5753 480.857 84.4642 475.996 Q88.353 471.111 94.9039 471.111 Q96.6632 471.111 98.4456 471.459 Q100.251 471.806 102.196 472.5 Z" fill="#000000" fill-rule="nonzero" fill-opacity="1" /><path clip-path="url(#clip980)" d="M122.496 474.815 Q118.885 474.815 117.057 478.38 Q115.251 481.921 115.251 489.051 Q115.251 496.157 117.057 499.722 Q118.885 503.264 122.496 503.264 Q126.131 503.264 127.936 499.722 Q129.765 496.157 129.765 489.051 Q129.765 481.921 127.936 478.38 Q126.131 474.815 122.496 474.815 M122.496 471.111 Q128.307 471.111 131.362 475.718 Q134.441 480.301 134.441 489.051 Q134.441 497.778 131.362 502.384 Q128.307 506.968 122.496 506.968 Q116.686 506.968 113.608 502.384 Q110.552 497.778 110.552 489.051 Q110.552 480.301 113.608 475.718 Q116.686 471.111 122.496 471.111 Z" fill="#000000" fill-rule="nonzero" fill-opacity="1" /><path clip-path="url(#clip980)" d="M152.658 474.815 Q149.047 474.815 147.218 478.38 Q145.413 481.921 145.413 489.051 Q145.413 496.157 147.218 499.722 Q149.047 503.264 152.658 503.264 Q156.292 503.264 158.098 499.722 Q159.927 496.157 159.927 489.051 Q159.927 481.921 158.098 478.38 Q156.292 474.815 152.658 474.815 M152.658 471.111 Q158.468 471.111 161.524 475.718 Q164.603 480.301 164.603 489.051 Q164.603 497.778 161.524 502.384 Q158.468 506.968 152.658 506.968 Q146.848 506.968 143.769 502.384 Q140.714 497.778 140.714 489.051 Q140.714 480.301 143.769 475.718 Q146.848 471.111 152.658 471.111 Z" fill="#000000" fill-rule="nonzero" fill-opacity="1" /><path clip-path="url(#clip980)" d="M182.82 474.815 Q179.209 474.815 177.38 478.38 Q175.575 481.921 175.575 489.051 Q175.575 496.157 177.38 499.722 Q179.209 503.264 182.82 503.264 Q186.454 503.264 188.26 499.722 Q190.089 496.157 190.089 489.051 Q190.089 481.921 188.26 478.38 Q186.454 474.815 182.82 474.815 M182.82 471.111 Q188.63 471.111 191.686 475.718 Q194.765 480.301 194.765 489.051 Q194.765 497.778 191.686 502.384 Q188.63 506.968 182.82 506.968 Q177.01 506.968 173.931 502.384 Q170.876 497.778 170.876 489.051 Q170.876 480.301 173.931 475.718 Q177.01 471.111 182.82 471.111 Z" fill="#000000" fill-rule="nonzero" fill-opacity="1" /><path clip-path="url(#clip980)" d="M50.9921 203.886 L73.2142 203.886 L73.2142 205.877 L60.668 238.446 L55.7838 238.446 L67.5893 207.821 L50.9921 207.821 L50.9921 203.886 Z" fill="#000000" fill-rule="nonzero" fill-opacity="1" /><path clip-path="url(#clip980)" d="M81.154 203.886 L103.376 203.886 L103.376 205.877 L90.8299 238.446 L85.9456 238.446 L97.7511 207.821 L81.154 207.821 L81.154 203.886 Z" fill="#000000" fill-rule="nonzero" fill-opacity="1" /><path clip-path="url(#clip980)" d="M122.496 206.965 Q118.885 206.965 117.057 210.53 Q115.251 214.071 115.251 221.201 Q115.251 228.307 117.057 231.872 Q118.885 235.414 122.496 235.414 Q126.131 235.414 127.936 231.872 Q129.765 228.307 129.765 221.201 Q129.765 214.071 127.936 210.53 Q126.131 206.965 122.496 206.965 M122.496 203.261 Q128.307 203.261 131.362 207.868 Q134.441 212.451 134.441 221.201 Q134.441 229.928 131.362 234.534 Q128.307 239.117 122.496 239.117 Q116.686 239.117 113.608 234.534 Q110.552 229.928 110.552 221.201 Q110.552 212.451 113.608 207.868 Q116.686 203.261 122.496 203.261 Z" fill="#000000" fill-rule="nonzero" fill-opacity="1" /><path clip-path="url(#clip980)" d="M152.658 206.965 Q149.047 206.965 147.218 210.53 Q145.413 214.071 145.413 221.201 Q145.413 228.307 147.218 231.872 Q149.047 235.414 152.658 235.414 Q156.292 235.414 158.098 231.872 Q159.927 228.307 159.927 221.201 Q159.927 214.071 158.098 210.53 Q156.292 206.965 152.658 206.965 M152.658 203.261 Q158.468 203.261 161.524 207.868 Q164.603 212.451 164.603 221.201 Q164.603 229.928 161.524 234.534 Q158.468 239.117 152.658 239.117 Q146.848 239.117 143.769 234.534 Q140.714 229.928 140.714 221.201 Q140.714 212.451 143.769 207.868 Q146.848 203.261 152.658 203.261 Z" fill="#000000" fill-rule="nonzero" fill-opacity="1" /><path clip-path="url(#clip980)" d="M182.82 206.965 Q179.209 206.965 177.38 210.53 Q175.575 214.071 175.575 221.201 Q175.575 228.307 177.38 231.872 Q179.209 235.414 182.82 235.414 Q186.454 235.414 188.26 231.872 Q190.089 228.307 190.089 221.201 Q190.089 214.071 188.26 210.53 Q186.454 206.965 182.82 206.965 M182.82 203.261 Q188.63 203.261 191.686 207.868 Q194.765 212.451 194.765 221.201 Q194.765 229.928 191.686 234.534 Q188.63 239.117 182.82 239.117 Q177.01 239.117 173.931 234.534 Q170.876 229.928 170.876 221.201 Q170.876 212.451 173.931 207.868 Q177.01 203.261 182.82 203.261 Z" fill="#000000" fill-rule="nonzero" fill-opacity="1" /><path clip-path="url(#clip980)" d="M1262.23 35.2602 Q1262.23 29.4732 1259.83 26.2904 Q1257.46 23.1075 1253.15 23.1075 Q1248.86 23.1075 1246.46 26.2904 Q1244.09 29.4732 1244.09 35.2602 Q1244.09 41.0183 1246.46 44.2012 Q1248.86 47.384 1253.15 47.384 Q1257.46 47.384 1259.83 44.2012 Q1262.23 41.0183 1262.23 35.2602 M1267.56 47.818 Q1267.56 56.0934 1263.88 60.1154 Q1260.21 64.1663 1252.63 64.1663 Q1249.82 64.1663 1247.33 63.7323 Q1244.84 63.3272 1242.5 62.4592 L1242.5 57.2798 Q1244.84 58.5529 1247.13 59.1606 Q1249.41 59.7682 1251.79 59.7682 Q1257.02 59.7682 1259.63 57.0194 Q1262.23 54.2995 1262.23 48.7729 L1262.23 46.1398 Q1260.58 49.0044 1258.01 50.4222 Q1255.43 51.84 1251.84 51.84 Q1245.88 51.84 1242.24 47.2972 Q1238.59 42.7544 1238.59 35.2602 Q1238.59 27.7371 1242.24 23.1943 Q1245.88 18.6515 1251.84 18.6515 Q1255.43 18.6515 1258.01 20.0693 Q1260.58 21.4872 1262.23 24.3517 L1262.23 19.4328 L1267.56 19.4328 L1267.56 47.818 Z" fill="#000000" fill-rule="nonzero" fill-opacity="1" /><path clip-path="url(#clip980)" d="M1299.85 24.3517 L1299.85 6.81709 L1305.17 6.81709 L1305.17 51.84 L1299.85 51.84 L1299.85 46.9789 Q1298.17 49.8724 1295.59 51.2902 Q1293.05 52.6791 1289.46 52.6791 Q1283.59 52.6791 1279.88 47.9916 Q1276.21 43.3042 1276.21 35.6653 Q1276.21 28.0265 1279.88 23.339 Q1283.59 18.6515 1289.46 18.6515 Q1293.05 18.6515 1295.59 20.0693 Q1298.17 21.4582 1299.85 24.3517 M1281.71 35.6653 Q1281.71 41.5391 1284.11 44.8956 Q1286.54 48.2231 1290.76 48.2231 Q1294.99 48.2231 1297.42 44.8956 Q1299.85 41.5391 1299.85 35.6653 Q1299.85 29.7915 1297.42 26.464 Q1294.99 23.1075 1290.76 23.1075 Q1286.54 23.1075 1284.11 26.464 Q1281.71 29.7915 1281.71 35.6653 Z" fill="#000000" fill-rule="nonzero" fill-opacity="1" /><path clip-path="url(#clip980)" d="M1321.29 46.9789 L1321.29 64.1663 L1315.94 64.1663 L1315.94 19.4328 L1321.29 19.4328 L1321.29 24.3517 Q1322.97 21.4582 1325.51 20.0693 Q1328.09 18.6515 1331.65 18.6515 Q1337.55 18.6515 1341.22 23.339 Q1344.93 28.0265 1344.93 35.6653 Q1344.93 43.3042 1341.22 47.9916 Q1337.55 52.6791 1331.65 52.6791 Q1328.09 52.6791 1325.51 51.2902 Q1322.97 49.8724 1321.29 46.9789 M1339.4 35.6653 Q1339.4 29.7915 1336.97 26.464 Q1334.57 23.1075 1330.35 23.1075 Q1326.12 23.1075 1323.69 26.464 Q1321.29 29.7915 1321.29 35.6653 Q1321.29 41.5391 1323.69 44.8956 Q1326.12 48.2231 1330.35 48.2231 Q1334.57 48.2231 1336.97 44.8956 Q1339.4 41.5391 1339.4 35.6653 Z" fill="#000000" fill-rule="nonzero" fill-opacity="1" /><polyline clip-path="url(#clip982)" style="stroke:#009af9; stroke-linecap:round; stroke-linejoin:round; stroke-width:4; stroke-opacity:1; fill:none" points="290.821,1447.38 415.938,1274.5 541.056,1272.8 666.173,1320 791.291,1144.32 916.408,908.052 1041.53,642.648 1166.64,600.315 1291.76,414.507 1416.88,276.494 1542,321.176 1667.11,405.937 1792.23,236.079 1917.35,159.208 2042.46,145.256 2167.58,391.78 2292.7,305.391 "/>
<path clip-path="url(#clip980)" d="M301.498 255.881 L566.127 255.881 L566.127 152.201 L301.498 152.201  Z" fill="#ffffff" fill-rule="evenodd" fill-opacity="1"/>
<polyline clip-path="url(#clip980)" style="stroke:#000000; stroke-linecap:round; stroke-linejoin:round; stroke-width:4; stroke-opacity:1; fill:none" points="301.498,255.881 566.127,255.881 566.127,152.201 301.498,152.201 301.498,255.881 "/>
<polyline clip-path="url(#clip980)" style="stroke:#009af9; stroke-linecap:round; stroke-linejoin:round; stroke-width:4; stroke-opacity:1; fill:none" points="325.075,204.041 466.541,204.041 "/>
<path clip-path="url(#clip980)" d="M503.962 223.728 Q502.156 228.358 500.443 229.77 Q498.73 231.182 495.86 231.182 L492.457 231.182 L492.457 227.617 L494.957 227.617 Q496.716 227.617 497.688 226.784 Q498.661 225.95 499.841 222.848 L500.605 220.904 L490.119 195.395 L494.633 195.395 L502.735 215.673 L510.836 195.395 L515.35 195.395 L503.962 223.728 Z" fill="#000000" fill-rule="nonzero" fill-opacity="1" /><path clip-path="url(#clip980)" d="M522.642 217.385 L530.281 217.385 L530.281 191.02 L521.971 192.687 L521.971 188.427 L530.235 186.761 L534.91 186.761 L534.91 217.385 L542.549 217.385 L542.549 221.321 L522.642 221.321 L522.642 217.385 Z" fill="#000000" fill-rule="nonzero" fill-opacity="1" /></svg>
