<?xml version="1.0" encoding="utf-8"?>
<svg xmlns="http://www.w3.org/2000/svg" xmlns:xlink="http://www.w3.org/1999/xlink" width="600" height="400" viewBox="0 0 2400 1600">
<defs>
  <clipPath id="clip600">
    <rect x="0" y="0" width="2400" height="1600"/>
  </clipPath>
</defs>
<path clip-path="url(#clip600)" d="M0 1600 L2400 1600 L2400 0 L0 0  Z" fill="#ffffff" fill-rule="evenodd" fill-opacity="1"/>
<defs>
  <clipPath id="clip601">
    <rect x="480" y="0" width="1681" height="1600"/>
  </clipPath>
</defs>
<path clip-path="url(#clip600)" d="M200.88 1486.45 L2352.76 1486.45 L2352.76 47.2441 L200.88 47.2441  Z" fill="#ffffff" fill-rule="evenodd" fill-opacity="1"/>
<defs>
  <clipPath id="clip602">
    <rect x="200" y="47" width="2153" height="1440"/>
  </clipPath>
</defs>
<polyline clip-path="url(#clip602)" style="stroke:#000000; stroke-linecap:round; stroke-linejoin:round; stroke-width:2; stroke-opacity:0.1; fill:none" points="667.797,1486.45 667.797,47.2441 "/>
<polyline clip-path="url(#clip602)" style="stroke:#000000; stroke-linecap:round; stroke-linejoin:round; stroke-width:2; stroke-opacity:0.1; fill:none" points="1175.31,1486.45 1175.31,47.2441 "/>
<polyline clip-path="url(#clip602)" style="stroke:#000000; stroke-linecap:round; stroke-linejoin:round; stroke-width:2; stroke-opacity:0.1; fill:none" points="1682.83,1486.45 1682.83,47.2441 "/>
<polyline clip-path="url(#clip602)" style="stroke:#000000; stroke-linecap:round; stroke-linejoin:round; stroke-width:2; stroke-opacity:0.1; fill:none" points="2190.35,1486.45 2190.35,47.2441 "/>
<polyline clip-path="url(#clip602)" style="stroke:#000000; stroke-linecap:round; stroke-linejoin:round; stroke-width:2; stroke-opacity:0.1; fill:none" points="200.88,1334.12 2352.76,1334.12 "/>
<polyline clip-path="url(#clip602)" style="stroke:#000000; stroke-linecap:round; stroke-linejoin:round; stroke-width:2; stroke-opacity:0.1; fill:none" points="200.88,1055.13 2352.76,1055.13 "/>
<polyline clip-path="url(#clip602)" style="stroke:#000000; stroke-linecap:round; stroke-linejoin:round; stroke-width:2; stroke-opacity:0.1; fill:none" points="200.88,776.146 2352.76,776.146 "/>
<polyline clip-path="url(#clip602)" style="stroke:#000000; stroke-linecap:round; stroke-linejoin:round; stroke-width:2; stroke-opacity:0.1; fill:none" points="200.88,497.158 2352.76,497.158 "/>
<polyline clip-path="url(#clip602)" style="stroke:#000000; stroke-linecap:round; stroke-linejoin:round; stroke-width:2; stroke-opacity:0.1; fill:none" points="200.88,218.17 2352.76,218.17 "/>
<polyline clip-path="url(#clip600)" style="stroke:#000000; stroke-linecap:round; stroke-linejoin:round; stroke-width:4; stroke-opacity:1; fill:none" points="200.88,1486.45 2352.76,1486.45 "/>
<polyline clip-path="url(#clip600)" style="stroke:#000000; stroke-linecap:round; stroke-linejoin:round; stroke-width:4; stroke-opacity:1; fill:none" points="667.797,1486.45 667.797,1467.55 "/>
<polyline clip-path="url(#clip600)" style="stroke:#000000; stroke-linecap:round; stroke-linejoin:round; stroke-width:4; stroke-opacity:1; fill:none" points="1175.31,1486.45 1175.31,1467.55 "/>
<polyline clip-path="url(#clip600)" style="stroke:#000000; stroke-linecap:round; stroke-linejoin:round; stroke-width:4; stroke-opacity:1; fill:none" points="1682.83,1486.45 1682.83,1467.55 "/>
<polyline clip-path="url(#clip600)" style="stroke:#000000; stroke-linecap:round; stroke-linejoin:round; stroke-width:4; stroke-opacity:1; fill:none" points="2190.35,1486.45 2190.35,1467.55 "/>
<path clip-path="url(#clip600)" d="M658.075 1514.29 L676.431 1514.29 L676.431 1518.22 L662.357 1518.22 L662.357 1526.7 Q663.376 1526.35 664.394 1526.19 Q665.413 1526 666.431 1526 Q672.218 1526 675.598 1529.17 Q678.977 1532.34 678.977 1537.76 Q678.977 1543.34 675.505 1546.44 Q672.033 1549.52 665.713 1549.52 Q663.538 1549.52 661.269 1549.15 Q659.024 1548.78 656.616 1548.04 L656.616 1543.34 Q658.7 1544.47 660.922 1545.03 Q663.144 1545.58 665.621 1545.58 Q669.625 1545.58 671.963 1543.48 Q674.301 1541.37 674.301 1537.76 Q674.301 1534.15 671.963 1532.04 Q669.625 1529.94 665.621 1529.94 Q663.746 1529.94 661.871 1530.35 Q660.019 1530.77 658.075 1531.65 L658.075 1514.29 Z" fill="#000000" fill-rule="nonzero" fill-opacity="1" /><path clip-path="url(#clip600)" d="M1150 1544.91 L1157.64 1544.91 L1157.64 1518.55 L1149.33 1520.21 L1149.33 1515.95 L1157.59 1514.29 L1162.27 1514.29 L1162.27 1544.91 L1169.91 1544.91 L1169.91 1548.85 L1150 1548.85 L1150 1544.91 Z" fill="#000000" fill-rule="nonzero" fill-opacity="1" /><path clip-path="url(#clip600)" d="M1189.35 1517.37 Q1185.74 1517.37 1183.91 1520.93 Q1182.11 1524.47 1182.11 1531.6 Q1182.11 1538.71 1183.91 1542.27 Q1185.74 1545.82 1189.35 1545.82 Q1192.99 1545.82 1194.79 1542.27 Q1196.62 1538.71 1196.62 1531.6 Q1196.62 1524.47 1194.79 1520.93 Q1192.99 1517.37 1189.35 1517.37 M1189.35 1513.66 Q1195.16 1513.66 1198.22 1518.27 Q1201.3 1522.85 1201.3 1531.6 Q1201.3 1540.33 1198.22 1544.94 Q1195.16 1549.52 1189.35 1549.52 Q1183.54 1549.52 1180.47 1544.94 Q1177.41 1540.33 1177.41 1531.6 Q1177.41 1522.85 1180.47 1518.27 Q1183.54 1513.66 1189.35 1513.66 Z" fill="#000000" fill-rule="nonzero" fill-opacity="1" /><path clip-path="url(#clip600)" d="M1658.02 1544.91 L1665.66 1544.91 L1665.66 1518.55 L1657.35 1520.21 L1657.35 1515.95 L1665.61 1514.29 L1670.29 1514.29 L1670.29 1544.91 L1677.93 1544.91 L1677.93 1548.85 L1658.02 1548.85 L1658.02 1544.91 Z" fill="#000000" fill-rule="nonzero" fill-opacity="1" /><path clip-path="url(#clip600)" d="M1687.42 1514.29 L1705.77 1514.29 L1705.77 1518.22 L1691.7 1518.22 L1691.7 1526.7 Q1692.72 1526.35 1693.74 1526.19 Q1694.75 1526 1695.77 1526 Q1701.56 1526 1704.94 1529.17 Q1708.32 1532.34 1708.32 1537.76 Q1708.32 1543.34 1704.85 1546.44 Q1701.37 1549.52 1695.05 1549.52 Q1692.88 1549.52 1690.61 1549.15 Q1688.36 1548.78 1685.96 1548.04 L1685.96 1543.34 Q1688.04 1544.47 1690.26 1545.03 Q1692.49 1545.58 1694.96 1545.58 Q1698.97 1545.58 1701.3 1543.48 Q1703.64 1541.37 1703.64 1537.76 Q1703.64 1534.15 1701.3 1532.04 Q1698.97 1529.94 1694.96 1529.94 Q1693.09 1529.94 1691.21 1530.35 Q1689.36 1530.77 1687.42 1531.65 L1687.42 1514.29 Z" fill="#000000" fill-rule="nonzero" fill-opacity="1" /><path clip-path="url(#clip600)" d="M2169.12 1544.91 L2185.44 1544.91 L2185.44 1548.85 L2163.5 1548.85 L2163.5 1544.91 Q2166.16 1542.16 2170.74 1537.53 Q2175.35 1532.88 2176.53 1531.53 Q2178.78 1529.01 2179.66 1527.27 Q2180.56 1525.51 2180.56 1523.82 Q2180.56 1521.07 2178.61 1519.33 Q2176.69 1517.6 2173.59 1517.6 Q2171.39 1517.6 2168.94 1518.36 Q2166.51 1519.13 2163.73 1520.68 L2163.73 1515.95 Q2166.55 1514.82 2169.01 1514.24 Q2171.46 1513.66 2173.5 1513.66 Q2178.87 1513.66 2182.06 1516.35 Q2185.26 1519.03 2185.26 1523.52 Q2185.26 1525.65 2184.45 1527.57 Q2183.66 1529.47 2181.55 1532.07 Q2180.98 1532.74 2177.87 1535.95 Q2174.77 1539.15 2169.12 1544.91 Z" fill="#000000" fill-rule="nonzero" fill-opacity="1" /><path clip-path="url(#clip600)" d="M2205.26 1517.37 Q2201.65 1517.37 2199.82 1520.93 Q2198.01 1524.47 2198.01 1531.6 Q2198.01 1538.71 2199.82 1542.27 Q2201.65 1545.82 2205.26 1545.82 Q2208.89 1545.82 2210.7 1542.27 Q2212.53 1538.71 2212.53 1531.6 Q2212.53 1524.47 2210.7 1520.93 Q2208.89 1517.37 2205.26 1517.37 M2205.26 1513.66 Q2211.07 1513.66 2214.12 1518.27 Q2217.2 1522.85 2217.2 1531.6 Q2217.2 1540.33 2214.12 1544.94 Q2211.07 1549.52 2205.26 1549.52 Q2199.45 1549.52 2196.37 1544.94 Q2193.31 1540.33 2193.31 1531.6 Q2193.31 1522.85 2196.37 1518.27 Q2199.45 1513.66 2205.26 1513.66 Z" fill="#000000" fill-rule="nonzero" fill-opacity="1" /><polyline clip-path="url(#clip600)" style="stroke:#000000; stroke-linecap:round; stroke-linejoin:round; stroke-width:4; stroke-opacity:1; fill:none" points="200.88,1486.45 200.88,47.2441 "/>
<polyline clip-path="url(#clip600)" style="stroke:#000000; stroke-linecap:round; stroke-linejoin:round; stroke-width:4; stroke-opacity:1; fill:none" points="200.88,1334.12 219.778,1334.12 "/>
<polyline clip-path="url(#clip600)" style="stroke:#000000; stroke-linecap:round; stroke-linejoin:round; stroke-width:4; stroke-opacity:1; fill:none" points="200.88,1055.13 219.778,1055.13 "/>
<polyline clip-path="url(#clip600)" style="stroke:#000000; stroke-linecap:round; stroke-linejoin:round; stroke-width:4; stroke-opacity:1; fill:none" points="200.88,776.146 219.778,776.146 "/>
<polyline clip-path="url(#clip600)" style="stroke:#000000; stroke-linecap:round; stroke-linejoin:round; stroke-width:4; stroke-opacity:1; fill:none" points="200.88,497.158 219.778,497.158 "/>
<polyline clip-path="url(#clip600)" style="stroke:#000000; stroke-linecap:round; stroke-linejoin:round; stroke-width:4; stroke-opacity:1; fill:none" points="200.88,218.17 219.778,218.17 "/>
<path clip-path="url(#clip600)" d="M66.617 1332.77 Q69.9735 1333.48 71.8485 1335.75 Q73.7466 1338.02 73.7466 1341.35 Q73.7466 1346.47 70.2281 1349.27 Q66.7096 1352.07 60.2282 1352.07 Q58.0523 1352.07 55.7375 1351.63 Q53.4458 1351.22 50.9921 1350.36 L50.9921 1345.85 Q52.9366 1346.98 55.2514 1347.56 Q57.5662 1348.14 60.0893 1348.14 Q64.4874 1348.14 66.7791 1346.4 Q69.0939 1344.66 69.0939 1341.35 Q69.0939 1338.3 66.9411 1336.59 Q64.8115 1334.85 60.9921 1334.85 L56.9643 1334.85 L56.9643 1331.01 L61.1773 1331.01 Q64.6263 1331.01 66.455 1329.64 Q68.2837 1328.25 68.2837 1325.66 Q68.2837 1323 66.3856 1321.59 Q64.5106 1320.15 60.9921 1320.15 Q59.0708 1320.15 56.8717 1320.57 Q54.6727 1320.98 52.0338 1321.86 L52.0338 1317.7 Q54.6958 1316.96 57.0106 1316.59 Q59.3486 1316.22 61.4087 1316.22 Q66.7328 1316.22 69.8346 1318.65 Q72.9365 1321.05 72.9365 1325.17 Q72.9365 1328.04 71.2929 1330.04 Q69.6494 1332 66.617 1332.77 Z" fill="#000000" fill-rule="nonzero" fill-opacity="1" /><path clip-path="url(#clip600)" d="M92.6123 1334.99 Q89.279 1334.99 87.3577 1336.77 Q85.4595 1338.55 85.4595 1341.68 Q85.4595 1344.8 87.3577 1346.59 Q89.279 1348.37 92.6123 1348.37 Q95.9456 1348.37 97.8669 1346.59 Q99.7882 1344.78 99.7882 1341.68 Q99.7882 1338.55 97.8669 1336.77 Q95.9687 1334.99 92.6123 1334.99 M87.9364 1333 Q84.9271 1332.26 83.2373 1330.2 Q81.5707 1328.14 81.5707 1325.17 Q81.5707 1321.03 84.5105 1318.62 Q87.4734 1316.22 92.6123 1316.22 Q97.7743 1316.22 100.714 1318.62 Q103.654 1321.03 103.654 1325.17 Q103.654 1328.14 101.964 1330.2 Q100.297 1332.26 97.3113 1333 Q100.691 1333.79 102.566 1336.08 Q104.464 1338.37 104.464 1341.68 Q104.464 1346.7 101.385 1349.39 Q98.3298 1352.07 92.6123 1352.07 Q86.8947 1352.07 83.816 1349.39 Q80.7605 1346.7 80.7605 1341.68 Q80.7605 1338.37 82.6586 1336.08 Q84.5568 1333.79 87.9364 1333 M86.2234 1325.61 Q86.2234 1328.3 87.8901 1329.8 Q89.5799 1331.31 92.6123 1331.31 Q95.6215 1331.31 97.3113 1329.8 Q99.0243 1328.3 99.0243 1325.61 Q99.0243 1322.93 97.3113 1321.42 Q95.6215 1319.92 92.6123 1319.92 Q89.5799 1319.92 87.8901 1321.42 Q86.2234 1322.93 86.2234 1325.61 Z" fill="#000000" fill-rule="nonzero" fill-opacity="1" /><path clip-path="url(#clip600)" d="M111.594 1316.84 L133.816 1316.84 L133.816 1318.83 L121.27 1351.4 L116.385 1351.4 L128.191 1320.78 L111.594 1320.78 L111.594 1316.84 Z" fill="#000000" fill-rule="nonzero" fill-opacity="1" /><path clip-path="url(#clip600)" d="M152.936 1319.92 Q149.325 1319.92 147.496 1323.48 Q145.691 1327.03 145.691 1334.16 Q145.691 1341.26 147.496 1344.83 Q149.325 1348.37 152.936 1348.37 Q156.57 1348.37 158.376 1344.83 Q160.205 1341.26 160.205 1334.16 Q160.205 1327.03 158.376 1323.48 Q156.57 1319.92 152.936 1319.92 M152.936 1316.22 Q158.746 1316.22 161.802 1320.82 Q164.88 1325.41 164.88 1334.16 Q164.88 1342.88 161.802 1347.49 Q158.746 1352.07 152.936 1352.07 Q147.126 1352.07 144.047 1347.49 Q140.992 1342.88 140.992 1334.16 Q140.992 1325.41 144.047 1320.82 Q147.126 1316.22 152.936 1316.22 Z" fill="#000000" fill-rule="nonzero" fill-opacity="1" /><path clip-path="url(#clip600)" d="M66.617 1053.78 Q69.9735 1054.5 71.8485 1056.77 Q73.7466 1059.03 73.7466 1062.37 Q73.7466 1067.48 70.2281 1070.28 Q66.7096 1073.08 60.2282 1073.08 Q58.0523 1073.08 55.7375 1072.64 Q53.4458 1072.23 50.9921 1071.37 L50.9921 1066.86 Q52.9366 1067.99 55.2514 1068.57 Q57.5662 1069.15 60.0893 1069.15 Q64.4874 1069.15 66.7791 1067.41 Q69.0939 1065.68 69.0939 1062.37 Q69.0939 1059.31 66.9411 1057.6 Q64.8115 1055.86 60.9921 1055.86 L56.9643 1055.86 L56.9643 1052.02 L61.1773 1052.02 Q64.6263 1052.02 66.455 1050.65 Q68.2837 1049.27 68.2837 1046.67 Q68.2837 1044.01 66.3856 1042.6 Q64.5106 1041.16 60.9921 1041.16 Q59.0708 1041.16 56.8717 1041.58 Q54.6727 1042 52.0338 1042.88 L52.0338 1038.71 Q54.6958 1037.97 57.0106 1037.6 Q59.3486 1037.23 61.4087 1037.23 Q66.7328 1037.23 69.8346 1039.66 Q72.9365 1042.07 72.9365 1046.19 Q72.9365 1049.06 71.2929 1051.05 Q69.6494 1053.02 66.617 1053.78 Z" fill="#000000" fill-rule="nonzero" fill-opacity="1" /><path clip-path="url(#clip600)" d="M82.7512 1071.7 L82.7512 1067.44 Q84.5105 1068.27 86.316 1068.71 Q88.1216 1069.15 89.8577 1069.15 Q94.4873 1069.15 96.9178 1066.05 Q99.3715 1062.92 99.7187 1056.58 Q98.3761 1058.57 96.316 1059.64 Q94.2558 1060.7 91.7558 1060.7 Q86.5706 1060.7 83.5382 1057.58 Q80.529 1054.43 80.529 1048.99 Q80.529 1043.66 83.6771 1040.45 Q86.8253 1037.23 92.0567 1037.23 Q98.0521 1037.23 101.2 1041.83 Q104.371 1046.42 104.371 1055.17 Q104.371 1063.34 100.483 1068.22 Q96.6169 1073.08 90.066 1073.08 Q88.3067 1073.08 86.5012 1072.74 Q84.6956 1072.39 82.7512 1071.7 M92.0567 1057.04 Q95.2049 1057.04 97.0335 1054.89 Q98.8854 1052.74 98.8854 1048.99 Q98.8854 1045.26 97.0335 1043.11 Q95.2049 1040.93 92.0567 1040.93 Q88.9086 1040.93 87.0567 1043.11 Q85.2281 1045.26 85.2281 1048.99 Q85.2281 1052.74 87.0567 1054.89 Q88.9086 1057.04 92.0567 1057.04 Z" fill="#000000" fill-rule="nonzero" fill-opacity="1" /><path clip-path="url(#clip600)" d="M122.774 1040.93 Q119.163 1040.93 117.334 1044.5 Q115.529 1048.04 115.529 1055.17 Q115.529 1062.27 117.334 1065.84 Q119.163 1069.38 122.774 1069.38 Q126.408 1069.38 128.214 1065.84 Q130.043 1062.27 130.043 1055.17 Q130.043 1048.04 128.214 1044.5 Q126.408 1040.93 122.774 1040.93 M122.774 1037.23 Q128.584 1037.23 131.64 1041.83 Q134.719 1046.42 134.719 1055.17 Q134.719 1063.89 131.64 1068.5 Q128.584 1073.08 122.774 1073.08 Q116.964 1073.08 113.885 1068.5 Q110.83 1063.89 110.83 1055.17 Q110.83 1046.42 113.885 1041.83 Q116.964 1037.23 122.774 1037.23 Z" fill="#000000" fill-rule="nonzero" fill-opacity="1" /><path clip-path="url(#clip600)" d="M152.936 1040.93 Q149.325 1040.93 147.496 1044.5 Q145.691 1048.04 145.691 1055.17 Q145.691 1062.27 147.496 1065.84 Q149.325 1069.38 152.936 1069.38 Q156.57 1069.38 158.376 1065.84 Q160.205 1062.27 160.205 1055.17 Q160.205 1048.04 158.376 1044.5 Q156.57 1040.93 152.936 1040.93 M152.936 1037.23 Q158.746 1037.23 161.802 1041.83 Q164.88 1046.42 164.88 1055.17 Q164.88 1063.89 161.802 1068.5 Q158.746 1073.08 152.936 1073.08 Q147.126 1073.08 144.047 1068.5 Q140.992 1063.89 140.992 1055.17 Q140.992 1046.42 144.047 1041.83 Q147.126 1037.23 152.936 1037.23 Z" fill="#000000" fill-rule="nonzero" fill-opacity="1" /><path clip-path="url(#clip600)" d="M66.617 774.791 Q69.9735 775.509 71.8485 777.778 Q73.7466 780.046 73.7466 783.379 Q73.7466 788.495 70.2281 791.296 Q66.7096 794.097 60.2282 794.097 Q58.0523 794.097 55.7375 793.657 Q53.4458 793.24 50.9921 792.384 L50.9921 787.87 Q52.9366 789.004 55.2514 789.583 Q57.5662 790.162 60.0893 790.162 Q64.4874 790.162 66.7791 788.426 Q69.0939 786.689 69.0939 783.379 Q69.0939 780.324 66.9411 778.611 Q64.8115 776.875 60.9921 776.875 L56.9643 776.875 L56.9643 773.032 L61.1773 773.032 Q64.6263 773.032 66.455 771.666 Q68.2837 770.278 68.2837 767.685 Q68.2837 765.023 66.3856 763.611 Q64.5106 762.176 60.9921 762.176 Q59.0708 762.176 56.8717 762.592 Q54.6727 763.009 52.0338 763.889 L52.0338 759.722 Q54.6958 758.981 57.0106 758.611 Q59.3486 758.241 61.4087 758.241 Q66.7328 758.241 69.8346 760.671 Q72.9365 763.079 72.9365 767.199 Q72.9365 770.069 71.2929 772.06 Q69.6494 774.028 66.617 774.791 Z" fill="#000000" fill-rule="nonzero" fill-opacity="1" /><path clip-path="url(#clip600)" d="M82.7512 792.708 L82.7512 788.449 Q84.5105 789.282 86.316 789.722 Q88.1216 790.162 89.8577 790.162 Q94.4873 790.162 96.9178 787.06 Q99.3715 783.935 99.7187 777.592 Q98.3761 779.583 96.316 780.648 Q94.2558 781.713 91.7558 781.713 Q86.5706 781.713 83.5382 778.588 Q80.529 775.44 80.529 770 Q80.529 764.676 83.6771 761.458 Q86.8253 758.241 92.0567 758.241 Q98.0521 758.241 101.2 762.847 Q104.371 767.43 104.371 776.18 Q104.371 784.352 100.483 789.236 Q96.6169 794.097 90.066 794.097 Q88.3067 794.097 86.5012 793.75 Q84.6956 793.402 82.7512 792.708 M92.0567 778.055 Q95.2049 778.055 97.0335 775.903 Q98.8854 773.75 98.8854 770 Q98.8854 766.273 97.0335 764.12 Q95.2049 761.944 92.0567 761.944 Q88.9086 761.944 87.0567 764.12 Q85.2281 766.273 85.2281 770 Q85.2281 773.75 87.0567 775.903 Q88.9086 778.055 92.0567 778.055 Z" fill="#000000" fill-rule="nonzero" fill-opacity="1" /><path clip-path="url(#clip600)" d="M126.941 774.791 Q130.297 775.509 132.172 777.778 Q134.07 780.046 134.07 783.379 Q134.07 788.495 130.552 791.296 Q127.033 794.097 120.552 794.097 Q118.376 794.097 116.061 793.657 Q113.77 793.24 111.316 792.384 L111.316 787.87 Q113.26 789.004 115.575 789.583 Q117.89 790.162 120.413 790.162 Q124.811 790.162 127.103 788.426 Q129.418 786.689 129.418 783.379 Q129.418 780.324 127.265 778.611 Q125.135 776.875 121.316 776.875 L117.288 776.875 L117.288 773.032 L121.501 773.032 Q124.95 773.032 126.779 771.666 Q128.607 770.278 128.607 767.685 Q128.607 765.023 126.709 763.611 Q124.834 762.176 121.316 762.176 Q119.395 762.176 117.195 762.592 Q114.996 763.009 112.358 763.889 L112.358 759.722 Q115.02 758.981 117.334 758.611 Q119.672 758.241 121.732 758.241 Q127.057 758.241 130.158 760.671 Q133.26 763.079 133.26 767.199 Q133.26 770.069 131.617 772.06 Q129.973 774.028 126.941 774.791 Z" fill="#000000" fill-rule="nonzero" fill-opacity="1" /><path clip-path="url(#clip600)" d="M152.936 761.944 Q149.325 761.944 147.496 765.509 Q145.691 769.051 145.691 776.18 Q145.691 783.287 147.496 786.852 Q149.325 790.393 152.936 790.393 Q156.57 790.393 158.376 786.852 Q160.205 783.287 160.205 776.18 Q160.205 769.051 158.376 765.509 Q156.57 761.944 152.936 761.944 M152.936 758.241 Q158.746 758.241 161.802 762.847 Q164.88 767.43 164.88 776.18 Q164.88 784.907 161.802 789.514 Q158.746 794.097 152.936 794.097 Q147.126 794.097 144.047 789.514 Q140.992 784.907 140.992 776.18 Q140.992 767.43 144.047 762.847 Q147.126 758.241 152.936 758.241 Z" fill="#000000" fill-rule="nonzero" fill-opacity="1" /><path clip-path="url(#clip600)" d="M66.617 495.804 Q69.9735 496.521 71.8485 498.79 Q73.7466 501.058 73.7466 504.392 Q73.7466 509.507 70.2281 512.308 Q66.7096 515.109 60.2282 515.109 Q58.0523 515.109 55.7375 514.669 Q53.4458 514.253 50.9921 513.396 L50.9921 508.882 Q52.9366 510.017 55.2514 510.595 Q57.5662 511.174 60.0893 511.174 Q64.4874 511.174 66.7791 509.438 Q69.0939 507.702 69.0939 504.392 Q69.0939 501.336 66.9411 499.623 Q64.8115 497.887 60.9921 497.887 L56.9643 497.887 L56.9643 494.045 L61.1773 494.045 Q64.6263 494.045 66.455 492.679 Q68.2837 491.29 68.2837 488.697 Q68.2837 486.035 66.3856 484.623 Q64.5106 483.188 60.9921 483.188 Q59.0708 483.188 56.8717 483.605 Q54.6727 484.022 52.0338 484.901 L52.0338 480.734 Q54.6958 479.994 57.0106 479.623 Q59.3486 479.253 61.4087 479.253 Q66.7328 479.253 69.8346 481.684 Q72.9365 484.091 72.9365 488.211 Q72.9365 491.082 71.2929 493.072 Q69.6494 495.04 66.617 495.804 Z" fill="#000000" fill-rule="nonzero" fill-opacity="1" /><path clip-path="url(#clip600)" d="M82.7512 513.72 L82.7512 509.461 Q84.5105 510.295 86.316 510.734 Q88.1216 511.174 89.8577 511.174 Q94.4873 511.174 96.9178 508.072 Q99.3715 504.947 99.7187 498.605 Q98.3761 500.595 96.316 501.66 Q94.2558 502.725 91.7558 502.725 Q86.5706 502.725 83.5382 499.6 Q80.529 496.452 80.529 491.012 Q80.529 485.688 83.6771 482.471 Q86.8253 479.253 92.0567 479.253 Q98.0521 479.253 101.2 483.859 Q104.371 488.443 104.371 497.193 Q104.371 505.364 100.483 510.248 Q96.6169 515.109 90.066 515.109 Q88.3067 515.109 86.5012 514.762 Q84.6956 514.415 82.7512 513.72 M92.0567 499.068 Q95.2049 499.068 97.0335 496.915 Q98.8854 494.762 98.8854 491.012 Q98.8854 487.285 97.0335 485.133 Q95.2049 482.957 92.0567 482.957 Q88.9086 482.957 87.0567 485.133 Q85.2281 487.285 85.2281 491.012 Q85.2281 494.762 87.0567 496.915 Q88.9086 499.068 92.0567 499.068 Z" fill="#000000" fill-rule="nonzero" fill-opacity="1" /><path clip-path="url(#clip600)" d="M123.353 495.295 Q120.205 495.295 118.353 497.447 Q116.524 499.6 116.524 503.35 Q116.524 507.077 118.353 509.253 Q120.205 511.406 123.353 511.406 Q126.501 511.406 128.33 509.253 Q130.182 507.077 130.182 503.35 Q130.182 499.6 128.33 497.447 Q126.501 495.295 123.353 495.295 M132.635 480.642 L132.635 484.901 Q130.876 484.068 129.07 483.628 Q127.288 483.188 125.529 483.188 Q120.899 483.188 118.445 486.313 Q116.015 489.438 115.668 495.758 Q117.033 493.744 119.094 492.679 Q121.154 491.591 123.631 491.591 Q128.839 491.591 131.848 494.762 Q134.881 497.91 134.881 503.35 Q134.881 508.674 131.732 511.892 Q128.584 515.109 123.353 515.109 Q117.358 515.109 114.186 510.526 Q111.015 505.92 111.015 497.193 Q111.015 488.998 114.904 484.137 Q118.793 479.253 125.344 479.253 Q127.103 479.253 128.885 479.6 Q130.691 479.947 132.635 480.642 Z" fill="#000000" fill-rule="nonzero" fill-opacity="1" /><path clip-path="url(#clip600)" d="M152.936 482.957 Q149.325 482.957 147.496 486.522 Q145.691 490.063 145.691 497.193 Q145.691 504.299 147.496 507.864 Q149.325 511.406 152.936 511.406 Q156.57 511.406 158.376 507.864 Q160.205 504.299 160.205 497.193 Q160.205 490.063 158.376 486.522 Q156.57 482.957 152.936 482.957 M152.936 479.253 Q158.746 479.253 161.802 483.859 Q164.88 488.443 164.88 497.193 Q164.88 505.92 161.802 510.526 Q158.746 515.109 152.936 515.109 Q147.126 515.109 144.047 510.526 Q140.992 505.92 140.992 497.193 Q140.992 488.443 144.047 483.859 Q147.126 479.253 152.936 479.253 Z" fill="#000000" fill-rule="nonzero" fill-opacity="1" /><path clip-path="url(#clip600)" d="M66.617 216.816 Q69.9735 217.534 71.8485 219.802 Q73.7466 222.071 73.7466 225.404 Q73.7466 230.52 70.2281 233.321 Q66.7096 236.122 60.2282 236.122 Q58.0523 236.122 55.7375 235.682 Q53.4458 235.265 50.9921 234.409 L50.9921 229.895 Q52.9366 231.029 55.2514 231.608 Q57.5662 232.187 60.0893 232.187 Q64.4874 232.187 66.7791 230.45 Q69.0939 228.714 69.0939 225.404 Q69.0939 222.349 66.9411 220.636 Q64.8115 218.9 60.9921 218.9 L56.9643 218.9 L56.9643 215.057 L61.1773 215.057 Q64.6263 215.057 66.455 213.691 Q68.2837 212.302 68.2837 209.71 Q68.2837 207.048 66.3856 205.636 Q64.5106 204.201 60.9921 204.201 Q59.0708 204.201 56.8717 204.617 Q54.6727 205.034 52.0338 205.914 L52.0338 201.747 Q54.6958 201.006 57.0106 200.636 Q59.3486 200.265 61.4087 200.265 Q66.7328 200.265 69.8346 202.696 Q72.9365 205.103 72.9365 209.224 Q72.9365 212.094 71.2929 214.085 Q69.6494 216.052 66.617 216.816 Z" fill="#000000" fill-rule="nonzero" fill-opacity="1" /><path clip-path="url(#clip600)" d="M82.7512 234.733 L82.7512 230.474 Q84.5105 231.307 86.316 231.747 Q88.1216 232.187 89.8577 232.187 Q94.4873 232.187 96.9178 229.085 Q99.3715 225.96 99.7187 219.617 Q98.3761 221.608 96.316 222.673 Q94.2558 223.738 91.7558 223.738 Q86.5706 223.738 83.5382 220.613 Q80.529 217.464 80.529 212.025 Q80.529 206.701 83.6771 203.483 Q86.8253 200.265 92.0567 200.265 Q98.0521 200.265 101.2 204.872 Q104.371 209.455 104.371 218.205 Q104.371 226.376 100.483 231.261 Q96.6169 236.122 90.066 236.122 Q88.3067 236.122 86.5012 235.775 Q84.6956 235.427 82.7512 234.733 M92.0567 220.08 Q95.2049 220.08 97.0335 217.927 Q98.8854 215.775 98.8854 212.025 Q98.8854 208.298 97.0335 206.145 Q95.2049 203.969 92.0567 203.969 Q88.9086 203.969 87.0567 206.145 Q85.2281 208.298 85.2281 212.025 Q85.2281 215.775 87.0567 217.927 Q88.9086 220.08 92.0567 220.08 Z" fill="#000000" fill-rule="nonzero" fill-opacity="1" /><path clip-path="url(#clip600)" d="M112.913 234.733 L112.913 230.474 Q114.672 231.307 116.478 231.747 Q118.283 232.187 120.02 232.187 Q124.649 232.187 127.08 229.085 Q129.533 225.96 129.881 219.617 Q128.538 221.608 126.478 222.673 Q124.418 223.738 121.918 223.738 Q116.733 223.738 113.7 220.613 Q110.691 217.464 110.691 212.025 Q110.691 206.701 113.839 203.483 Q116.987 200.265 122.219 200.265 Q128.214 200.265 131.362 204.872 Q134.533 209.455 134.533 218.205 Q134.533 226.376 130.644 231.261 Q126.779 236.122 120.228 236.122 Q118.469 236.122 116.663 235.775 Q114.858 235.427 112.913 234.733 M122.219 220.08 Q125.367 220.08 127.195 217.927 Q129.047 215.775 129.047 212.025 Q129.047 208.298 127.195 206.145 Q125.367 203.969 122.219 203.969 Q119.07 203.969 117.219 206.145 Q115.39 208.298 115.39 212.025 Q115.39 215.775 117.219 217.927 Q119.07 220.08 122.219 220.08 Z" fill="#000000" fill-rule="nonzero" fill-opacity="1" /><path clip-path="url(#clip600)" d="M152.936 203.969 Q149.325 203.969 147.496 207.534 Q145.691 211.076 145.691 218.205 Q145.691 225.312 147.496 228.876 Q149.325 232.418 152.936 232.418 Q156.57 232.418 158.376 228.876 Q160.205 225.312 160.205 218.205 Q160.205 211.076 158.376 207.534 Q156.57 203.969 152.936 203.969 M152.936 200.265 Q158.746 200.265 161.802 204.872 Q164.88 209.455 164.88 218.205 Q164.88 226.932 161.802 231.538 Q158.746 236.122 152.936 236.122 Q147.126 236.122 144.047 231.538 Q140.992 226.932 140.992 218.205 Q140.992 209.455 144.047 204.872 Q147.126 200.265 152.936 200.265 Z" fill="#000000" fill-rule="nonzero" fill-opacity="1" /><polyline clip-path="url(#clip602)" style="stroke:#009af9; stroke-linecap:round; stroke-linejoin:round; stroke-width:4; stroke-opacity:1; fill:none" points="261.783,1371.32 363.286,1371.32 464.79,1371.32 566.293,1306.22 667.797,1315.52 769.3,1185.33 870.804,1306.22 972.307,1269.02 1073.81,1399.22 1175.31,1315.52 1276.82,1445.72 1378.32,1296.92 1479.83,1259.72 1581.33,1278.32 1682.83,1222.53 1784.34,1138.83 1885.84,1036.53 1987.34,952.838 2088.85,673.85 2190.35,608.753 2291.85,87.9763 "/>
<path clip-path="url(#clip600)" d="M272.61 198.898 L923.327 198.898 L923.327 95.2176 L272.61 95.2176  Z" fill="#ffffff" fill-rule="evenodd" fill-opacity="1"/>
<polyline clip-path="url(#clip600)" style="stroke:#000000; stroke-linecap:round; stroke-linejoin:round; stroke-width:4; stroke-opacity:1; fill:none" points="272.61,198.898 923.327,198.898 923.327,95.2176 272.61,95.2176 272.61,198.898 "/>
<polyline clip-path="url(#clip600)" style="stroke:#009af9; stroke-linecap:round; stroke-linejoin:round; stroke-width:4; stroke-opacity:1; fill:none" points="296.519,147.058 439.978,147.058 "/>
<path clip-path="url(#clip600)" d="M463.887 129.778 L485.739 129.778 L485.739 133.713 L468.563 133.713 L468.563 143.944 L485.022 143.944 L485.022 147.879 L468.563 147.879 L468.563 160.402 L486.156 160.402 L486.156 164.338 L463.887 164.338 L463.887 129.778 Z" fill="#000000" fill-rule="nonzero" fill-opacity="1" /><path clip-path="url(#clip600)" d="M513.841 143.389 Q515.438 140.518 517.66 139.153 Q519.882 137.787 522.892 137.787 Q526.943 137.787 529.142 140.634 Q531.341 143.458 531.341 148.689 L531.341 164.338 L527.058 164.338 L527.058 148.828 Q527.058 145.102 525.739 143.296 Q524.419 141.49 521.711 141.49 Q518.401 141.49 516.48 143.69 Q514.558 145.889 514.558 149.685 L514.558 164.338 L510.276 164.338 L510.276 148.828 Q510.276 145.078 508.957 143.296 Q507.637 141.49 504.883 141.49 Q501.619 141.49 499.697 143.713 Q497.776 145.912 497.776 149.685 L497.776 164.338 L493.494 164.338 L493.494 138.412 L497.776 138.412 L497.776 142.44 Q499.234 140.055 501.271 138.921 Q503.308 137.787 506.109 137.787 Q508.933 137.787 510.901 139.222 Q512.892 140.657 513.841 143.389 Z" fill="#000000" fill-rule="nonzero" fill-opacity="1" /><path clip-path="url(#clip600)" d="M543.956 160.449 L543.956 174.199 L539.674 174.199 L539.674 138.412 L543.956 138.412 L543.956 142.347 Q545.299 140.032 547.336 138.921 Q549.396 137.787 552.243 137.787 Q556.966 137.787 559.905 141.537 Q562.868 145.287 562.868 151.398 Q562.868 157.509 559.905 161.259 Q556.966 165.009 552.243 165.009 Q549.396 165.009 547.336 163.898 Q545.299 162.763 543.956 160.449 M558.447 151.398 Q558.447 146.699 556.503 144.037 Q554.581 141.352 551.202 141.352 Q547.822 141.352 545.878 144.037 Q543.956 146.699 543.956 151.398 Q543.956 156.097 545.878 158.782 Q547.822 161.444 551.202 161.444 Q554.581 161.444 556.503 158.782 Q558.447 156.097 558.447 151.398 Z" fill="#000000" fill-rule="nonzero" fill-opacity="1" /><path clip-path="url(#clip600)" d="M569.929 128.319 L574.188 128.319 L574.188 164.338 L569.929 164.338 L569.929 128.319 Z" fill="#000000" fill-rule="nonzero" fill-opacity="1" /><path clip-path="url(#clip600)" d="M593.146 141.398 Q589.72 141.398 587.729 144.083 Q585.739 146.745 585.739 151.398 Q585.739 156.051 587.706 158.736 Q589.697 161.398 593.146 161.398 Q596.549 161.398 598.539 158.713 Q600.53 156.027 600.53 151.398 Q600.53 146.791 598.539 144.106 Q596.549 141.398 593.146 141.398 M593.146 137.787 Q598.702 137.787 601.873 141.398 Q605.044 145.009 605.044 151.398 Q605.044 157.764 601.873 161.398 Q598.702 165.009 593.146 165.009 Q587.567 165.009 584.396 161.398 Q581.248 157.764 581.248 151.398 Q581.248 145.009 584.396 141.398 Q587.567 137.787 593.146 137.787 Z" fill="#000000" fill-rule="nonzero" fill-opacity="1" /><path clip-path="url(#clip600)" d="M622.891 166.745 Q621.086 171.375 619.373 172.787 Q617.66 174.199 614.789 174.199 L611.387 174.199 L611.387 170.634 L613.887 170.634 Q615.646 170.634 616.618 169.8 Q617.59 168.967 618.771 165.865 L619.535 163.921 L609.049 138.412 L613.563 138.412 L621.664 158.689 L629.766 138.412 L634.28 138.412 L622.891 166.745 Z" fill="#000000" fill-rule="nonzero" fill-opacity="1" /><path clip-path="url(#clip600)" d="M662.335 150.31 L662.335 152.393 L642.752 152.393 Q643.03 156.791 645.391 159.106 Q647.775 161.398 652.011 161.398 Q654.465 161.398 656.757 160.796 Q659.072 160.194 661.34 158.99 L661.34 163.018 Q659.048 163.99 656.641 164.5 Q654.234 165.009 651.757 165.009 Q645.553 165.009 641.919 161.398 Q638.308 157.787 638.308 151.629 Q638.308 145.264 641.734 141.537 Q645.183 137.787 651.016 137.787 Q656.247 137.787 659.28 141.166 Q662.335 144.523 662.335 150.31 M658.076 149.06 Q658.03 145.565 656.109 143.481 Q654.21 141.398 651.062 141.398 Q647.498 141.398 645.345 143.412 Q643.215 145.426 642.891 149.083 L658.076 149.06 Z" fill="#000000" fill-rule="nonzero" fill-opacity="1" /><path clip-path="url(#clip600)" d="M686.386 142.347 L686.386 128.319 L690.645 128.319 L690.645 164.338 L686.386 164.338 L686.386 160.449 Q685.044 162.763 682.983 163.898 Q680.946 165.009 678.076 165.009 Q673.377 165.009 670.414 161.259 Q667.474 157.509 667.474 151.398 Q667.474 145.287 670.414 141.537 Q673.377 137.787 678.076 137.787 Q680.946 137.787 682.983 138.921 Q685.044 140.032 686.386 142.347 M671.872 151.398 Q671.872 156.097 673.794 158.782 Q675.738 161.444 679.118 161.444 Q682.497 161.444 684.442 158.782 Q686.386 156.097 686.386 151.398 Q686.386 146.699 684.442 144.037 Q682.497 141.352 679.118 141.352 Q675.738 141.352 673.794 144.037 Q671.872 146.699 671.872 151.398 Z" fill="#000000" fill-rule="nonzero" fill-opacity="1" /><path clip-path="url(#clip600)" d="M711.594 129.778 L716.317 129.778 L723.585 158.99 L730.83 129.778 L736.085 129.778 L743.354 158.99 L750.599 129.778 L755.344 129.778 L746.664 164.338 L740.784 164.338 L733.492 134.338 L726.131 164.338 L720.252 164.338 L711.594 129.778 Z" fill="#000000" fill-rule="nonzero" fill-opacity="1" /><path clip-path="url(#clip600)" d="M768.631 141.398 Q765.205 141.398 763.215 144.083 Q761.224 146.745 761.224 151.398 Q761.224 156.051 763.191 158.736 Q765.182 161.398 768.631 161.398 Q772.034 161.398 774.025 158.713 Q776.015 156.027 776.015 151.398 Q776.015 146.791 774.025 144.106 Q772.034 141.398 768.631 141.398 M768.631 137.787 Q774.187 137.787 777.358 141.398 Q780.529 145.009 780.529 151.398 Q780.529 157.764 777.358 161.398 Q774.187 165.009 768.631 165.009 Q763.052 165.009 759.881 161.398 Q756.733 157.764 756.733 151.398 Q756.733 145.009 759.881 141.398 Q763.052 137.787 768.631 137.787 Z" fill="#000000" fill-rule="nonzero" fill-opacity="1" /><path clip-path="url(#clip600)" d="M802.612 142.393 Q801.895 141.977 801.038 141.791 Q800.205 141.583 799.187 141.583 Q795.575 141.583 793.631 143.944 Q791.71 146.282 791.71 150.68 L791.71 164.338 L787.427 164.338 L787.427 138.412 L791.71 138.412 L791.71 142.44 Q793.052 140.078 795.205 138.944 Q797.358 137.787 800.437 137.787 Q800.876 137.787 801.409 137.856 Q801.941 137.903 802.589 138.018 L802.612 142.393 Z" fill="#000000" fill-rule="nonzero" fill-opacity="1" /><path clip-path="url(#clip600)" d="M806.918 128.319 L811.2 128.319 L811.2 149.592 L823.909 138.412 L829.348 138.412 L815.598 150.541 L829.927 164.338 L824.372 164.338 L811.2 151.676 L811.2 164.338 L806.918 164.338 L806.918 128.319 Z" fill="#000000" fill-rule="nonzero" fill-opacity="1" /><path clip-path="url(#clip600)" d="M855.02 150.31 L855.02 152.393 L835.436 152.393 Q835.714 156.791 838.075 159.106 Q840.459 161.398 844.696 161.398 Q847.149 161.398 849.441 160.796 Q851.756 160.194 854.024 158.99 L854.024 163.018 Q851.733 163.99 849.325 164.5 Q846.918 165.009 844.441 165.009 Q838.237 165.009 834.603 161.398 Q830.992 157.787 830.992 151.629 Q830.992 145.264 834.418 141.537 Q837.867 137.787 843.7 137.787 Q848.932 137.787 851.964 141.166 Q855.02 144.523 855.02 150.31 M850.76 149.06 Q850.714 145.565 848.793 143.481 Q846.895 141.398 843.746 141.398 Q840.182 141.398 838.029 143.412 Q835.899 145.426 835.575 149.083 L850.76 149.06 Z" fill="#000000" fill-rule="nonzero" fill-opacity="1" /><path clip-path="url(#clip600)" d="M877.033 142.393 Q876.316 141.977 875.459 141.791 Q874.626 141.583 873.607 141.583 Q869.996 141.583 868.052 143.944 Q866.131 146.282 866.131 150.68 L866.131 164.338 L861.848 164.338 L861.848 138.412 L866.131 138.412 L866.131 142.44 Q867.473 140.078 869.626 138.944 Q871.779 137.787 874.857 137.787 Q875.297 137.787 875.83 137.856 Q876.362 137.903 877.01 138.018 L877.033 142.393 Z" fill="#000000" fill-rule="nonzero" fill-opacity="1" /><path clip-path="url(#clip600)" d="M898.029 139.176 L898.029 143.203 Q896.223 142.277 894.279 141.815 Q892.334 141.352 890.251 141.352 Q887.08 141.352 885.482 142.324 Q883.908 143.296 883.908 145.24 Q883.908 146.722 885.043 147.578 Q886.177 148.412 889.603 149.176 L891.061 149.5 Q895.598 150.472 897.496 152.254 Q899.417 154.014 899.417 157.185 Q899.417 160.796 896.547 162.902 Q893.7 165.009 888.7 165.009 Q886.617 165.009 884.348 164.592 Q882.103 164.199 879.603 163.388 L879.603 158.99 Q881.964 160.217 884.256 160.842 Q886.547 161.444 888.793 161.444 Q891.802 161.444 893.422 160.426 Q895.043 159.384 895.043 157.509 Q895.043 155.773 893.862 154.847 Q892.705 153.921 888.746 153.064 L887.265 152.717 Q883.306 151.884 881.547 150.171 Q879.788 148.435 879.788 145.426 Q879.788 141.768 882.381 139.778 Q884.973 137.787 889.742 137.787 Q892.103 137.787 894.186 138.134 Q896.269 138.481 898.029 139.176 Z" fill="#000000" fill-rule="nonzero" fill-opacity="1" /></svg>
