<?xml version="1.0" encoding="utf-8"?>
<svg xmlns="http://www.w3.org/2000/svg" xmlns:xlink="http://www.w3.org/1999/xlink" width="600" height="400" viewBox="0 0 2400 1600">
<defs>
  <clipPath id="clip200">
    <rect x="0" y="0" width="2400" height="1600"/>
  </clipPath>
</defs>
<path clip-path="url(#clip200)" d="M0 1600 L2400 1600 L2400 0 L0 0  Z" fill="#ffffff" fill-rule="evenodd" fill-opacity="1"/>
<defs>
  <clipPath id="clip201">
    <rect x="480" y="0" width="1681" height="1600"/>
  </clipPath>
</defs>
<path clip-path="url(#clip200)" d="M230.765 1486.45 L2352.76 1486.45 L2352.76 106.192 L230.765 106.192  Z" fill="#ffffff" fill-rule="evenodd" fill-opacity="1"/>
<defs>
  <clipPath id="clip202">
    <rect x="230" y="106" width="2123" height="1381"/>
  </clipPath>
</defs>
<polyline clip-path="url(#clip202)" style="stroke:#000000; stroke-linecap:round; stroke-linejoin:round; stroke-width:2; stroke-opacity:0.1; fill:none" points="541.056,1486.45 541.056,106.192 "/>
<polyline clip-path="url(#clip202)" style="stroke:#000000; stroke-linecap:round; stroke-linejoin:round; stroke-width:2; stroke-opacity:0.1; fill:none" points="916.408,1486.45 916.408,106.192 "/>
<polyline clip-path="url(#clip202)" style="stroke:#000000; stroke-linecap:round; stroke-linejoin:round; stroke-width:2; stroke-opacity:0.1; fill:none" points="1291.76,1486.45 1291.76,106.192 "/>
<polyline clip-path="url(#clip202)" style="stroke:#000000; stroke-linecap:round; stroke-linejoin:round; stroke-width:2; stroke-opacity:0.1; fill:none" points="1667.11,1486.45 1667.11,106.192 "/>
<polyline clip-path="url(#clip202)" style="stroke:#000000; stroke-linecap:round; stroke-linejoin:round; stroke-width:2; stroke-opacity:0.1; fill:none" points="2042.46,1486.45 2042.46,106.192 "/>
<polyline clip-path="url(#clip202)" style="stroke:#000000; stroke-linecap:round; stroke-linejoin:round; stroke-width:2; stroke-opacity:0.1; fill:none" points="230.765,1298.64 2352.76,1298.64 "/>
<polyline clip-path="url(#clip202)" style="stroke:#000000; stroke-linecap:round; stroke-linejoin:round; stroke-width:2; stroke-opacity:0.1; fill:none" points="230.765,1080.15 2352.76,1080.15 "/>
<polyline clip-path="url(#clip202)" style="stroke:#000000; stroke-linecap:round; stroke-linejoin:round; stroke-width:2; stroke-opacity:0.1; fill:none" points="230.765,861.666 2352.76,861.666 "/>
<polyline clip-path="url(#clip202)" style="stroke:#000000; stroke-linecap:round; stroke-linejoin:round; stroke-width:2; stroke-opacity:0.1; fill:none" points="230.765,643.179 2352.76,643.179 "/>
<polyline clip-path="url(#clip202)" style="stroke:#000000; stroke-linecap:round; stroke-linejoin:round; stroke-width:2; stroke-opacity:0.1; fill:none" points="230.765,424.693 2352.76,424.693 "/>
<polyline clip-path="url(#clip202)" style="stroke:#000000; stroke-linecap:round; stroke-linejoin:round; stroke-width:2; stroke-opacity:0.1; fill:none" points="230.765,206.206 2352.76,206.206 "/>
<polyline clip-path="url(#clip200)" style="stroke:#000000; stroke-linecap:round; stroke-linejoin:round; stroke-width:4; stroke-opacity:1; fill:none" points="230.765,1486.45 2352.76,1486.45 "/>
<polyline clip-path="url(#clip200)" style="stroke:#000000; stroke-linecap:round; stroke-linejoin:round; stroke-width:4; stroke-opacity:1; fill:none" points="541.056,1486.45 541.056,1467.55 "/>
<polyline clip-path="url(#clip200)" style="stroke:#000000; stroke-linecap:round; stroke-linejoin:round; stroke-width:4; stroke-opacity:1; fill:none" points="916.408,1486.45 916.408,1467.55 "/>
<polyline clip-path="url(#clip200)" style="stroke:#000000; stroke-linecap:round; stroke-linejoin:round; stroke-width:4; stroke-opacity:1; fill:none" points="1291.76,1486.45 1291.76,1467.55 "/>
<polyline clip-path="url(#clip200)" style="stroke:#000000; stroke-linecap:round; stroke-linejoin:round; stroke-width:4; stroke-opacity:1; fill:none" points="1667.11,1486.45 1667.11,1467.55 "/>
<polyline clip-path="url(#clip200)" style="stroke:#000000; stroke-linecap:round; stroke-linejoin:round; stroke-width:4; stroke-opacity:1; fill:none" points="2042.46,1486.45 2042.46,1467.55 "/>
<path clip-path="url(#clip200)" d="M545.303 1530.21 Q548.66 1530.93 550.535 1533.2 Q552.433 1535.47 552.433 1538.8 Q552.433 1543.92 548.914 1546.72 Q545.396 1549.52 538.915 1549.52 Q536.739 1549.52 534.424 1549.08 Q532.132 1548.66 529.678 1547.81 L529.678 1543.29 Q531.623 1544.43 533.938 1545.01 Q536.252 1545.58 538.776 1545.58 Q543.174 1545.58 545.465 1543.85 Q547.78 1542.11 547.78 1538.8 Q547.78 1535.75 545.627 1534.03 Q543.498 1532.3 539.678 1532.3 L535.651 1532.3 L535.651 1528.45 L539.864 1528.45 Q543.313 1528.45 545.141 1527.09 Q546.97 1525.7 546.97 1523.11 Q546.97 1520.45 545.072 1519.03 Q543.197 1517.6 539.678 1517.6 Q537.757 1517.6 535.558 1518.01 Q533.359 1518.43 530.72 1519.31 L530.72 1515.14 Q533.382 1514.4 535.697 1514.03 Q538.035 1513.66 540.095 1513.66 Q545.419 1513.66 548.521 1516.09 Q551.623 1518.5 551.623 1522.62 Q551.623 1525.49 549.979 1527.48 Q548.336 1529.45 545.303 1530.21 Z" fill="#000000" fill-rule="nonzero" fill-opacity="1" /><path clip-path="url(#clip200)" d="M916.813 1529.7 Q913.665 1529.7 911.813 1531.86 Q909.984 1534.01 909.984 1537.76 Q909.984 1541.49 911.813 1543.66 Q913.665 1545.82 916.813 1545.82 Q919.961 1545.82 921.79 1543.66 Q923.642 1541.49 923.642 1537.76 Q923.642 1534.01 921.79 1531.86 Q919.961 1529.7 916.813 1529.7 M926.095 1515.05 L926.095 1519.31 Q924.336 1518.48 922.531 1518.04 Q920.748 1517.6 918.989 1517.6 Q914.359 1517.6 911.906 1520.72 Q909.475 1523.85 909.128 1530.17 Q910.494 1528.15 912.554 1527.09 Q914.614 1526 917.091 1526 Q922.299 1526 925.308 1529.17 Q928.341 1532.32 928.341 1537.76 Q928.341 1543.08 925.193 1546.3 Q922.044 1549.52 916.813 1549.52 Q910.818 1549.52 907.646 1544.94 Q904.475 1540.33 904.475 1531.6 Q904.475 1523.41 908.364 1518.55 Q912.253 1513.66 918.804 1513.66 Q920.563 1513.66 922.345 1514.01 Q924.151 1514.36 926.095 1515.05 Z" fill="#000000" fill-rule="nonzero" fill-opacity="1" /><path clip-path="url(#clip200)" d="M1282.06 1548.13 L1282.06 1543.87 Q1283.82 1544.7 1285.63 1545.14 Q1287.43 1545.58 1289.17 1545.58 Q1293.8 1545.58 1296.23 1542.48 Q1298.68 1539.36 1299.03 1533.01 Q1297.69 1535.01 1295.63 1536.07 Q1293.57 1537.13 1291.07 1537.13 Q1285.88 1537.13 1282.85 1534.01 Q1279.84 1530.86 1279.84 1525.42 Q1279.84 1520.1 1282.99 1516.88 Q1286.14 1513.66 1291.37 1513.66 Q1297.36 1513.66 1300.51 1518.27 Q1303.68 1522.85 1303.68 1531.6 Q1303.68 1539.77 1299.79 1544.66 Q1295.93 1549.52 1289.38 1549.52 Q1287.62 1549.52 1285.81 1549.17 Q1284.01 1548.82 1282.06 1548.13 M1291.37 1533.48 Q1294.51 1533.48 1296.34 1531.32 Q1298.2 1529.17 1298.2 1525.42 Q1298.2 1521.7 1296.34 1519.54 Q1294.51 1517.37 1291.37 1517.37 Q1288.22 1517.37 1286.37 1519.54 Q1284.54 1521.7 1284.54 1525.42 Q1284.54 1529.17 1286.37 1531.32 Q1288.22 1533.48 1291.37 1533.48 Z" fill="#000000" fill-rule="nonzero" fill-opacity="1" /><path clip-path="url(#clip200)" d="M1642.6 1544.91 L1650.24 1544.91 L1650.24 1518.55 L1641.93 1520.21 L1641.93 1515.95 L1650.19 1514.29 L1654.87 1514.29 L1654.87 1544.91 L1662.51 1544.91 L1662.51 1548.85 L1642.6 1548.85 L1642.6 1544.91 Z" fill="#000000" fill-rule="nonzero" fill-opacity="1" /><path clip-path="url(#clip200)" d="M1675.98 1544.91 L1692.3 1544.91 L1692.3 1548.85 L1670.35 1548.85 L1670.35 1544.91 Q1673.02 1542.16 1677.6 1537.53 Q1682.2 1532.88 1683.39 1531.53 Q1685.63 1529.01 1686.51 1527.27 Q1687.41 1525.51 1687.41 1523.82 Q1687.41 1521.07 1685.47 1519.33 Q1683.55 1517.6 1680.45 1517.6 Q1678.25 1517.6 1675.79 1518.36 Q1673.36 1519.13 1670.58 1520.68 L1670.58 1515.95 Q1673.41 1514.82 1675.86 1514.24 Q1678.32 1513.66 1680.35 1513.66 Q1685.72 1513.66 1688.92 1516.35 Q1692.11 1519.03 1692.11 1523.52 Q1692.11 1525.65 1691.3 1527.57 Q1690.52 1529.47 1688.41 1532.07 Q1687.83 1532.74 1684.73 1535.95 Q1681.63 1539.15 1675.98 1544.91 Z" fill="#000000" fill-rule="nonzero" fill-opacity="1" /><path clip-path="url(#clip200)" d="M2017.65 1544.91 L2025.29 1544.91 L2025.29 1518.55 L2016.98 1520.21 L2016.98 1515.95 L2025.24 1514.29 L2029.92 1514.29 L2029.92 1544.91 L2037.56 1544.91 L2037.56 1548.85 L2017.65 1548.85 L2017.65 1544.91 Z" fill="#000000" fill-rule="nonzero" fill-opacity="1" /><path clip-path="url(#clip200)" d="M2047.05 1514.29 L2065.4 1514.29 L2065.4 1518.22 L2051.33 1518.22 L2051.33 1526.7 Q2052.35 1526.35 2053.37 1526.19 Q2054.39 1526 2055.4 1526 Q2061.19 1526 2064.57 1529.17 Q2067.95 1532.34 2067.95 1537.76 Q2067.95 1543.34 2064.48 1546.44 Q2061.01 1549.52 2054.69 1549.52 Q2052.51 1549.52 2050.24 1549.15 Q2048 1548.78 2045.59 1548.04 L2045.59 1543.34 Q2047.67 1544.47 2049.9 1545.03 Q2052.12 1545.58 2054.59 1545.58 Q2058.6 1545.58 2060.94 1543.48 Q2063.27 1541.37 2063.27 1537.76 Q2063.27 1534.15 2060.94 1532.04 Q2058.6 1529.94 2054.59 1529.94 Q2052.72 1529.94 2050.84 1530.35 Q2048.99 1530.77 2047.05 1531.65 L2047.05 1514.29 Z" fill="#000000" fill-rule="nonzero" fill-opacity="1" /><polyline clip-path="url(#clip200)" style="stroke:#000000; stroke-linecap:round; stroke-linejoin:round; stroke-width:4; stroke-opacity:1; fill:none" points="230.765,1486.45 230.765,106.192 "/>
<polyline clip-path="url(#clip200)" style="stroke:#000000; stroke-linecap:round; stroke-linejoin:round; stroke-width:4; stroke-opacity:1; fill:none" points="230.765,1298.64 249.662,1298.64 "/>
<polyline clip-path="url(#clip200)" style="stroke:#000000; stroke-linecap:round; stroke-linejoin:round; stroke-width:4; stroke-opacity:1; fill:none" points="230.765,1080.15 249.662,1080.15 "/>
<polyline clip-path="url(#clip200)" style="stroke:#000000; stroke-linecap:round; stroke-linejoin:round; stroke-width:4; stroke-opacity:1; fill:none" points="230.765,861.666 249.662,861.666 "/>
<polyline clip-path="url(#clip200)" style="stroke:#000000; stroke-linecap:round; stroke-linejoin:round; stroke-width:4; stroke-opacity:1; fill:none" points="230.765,643.179 249.662,643.179 "/>
<polyline clip-path="url(#clip200)" style="stroke:#000000; stroke-linecap:round; stroke-linejoin:round; stroke-width:4; stroke-opacity:1; fill:none" points="230.765,424.693 249.662,424.693 "/>
<polyline clip-path="url(#clip200)" style="stroke:#000000; stroke-linecap:round; stroke-linejoin:round; stroke-width:4; stroke-opacity:1; fill:none" points="230.765,206.206 249.662,206.206 "/>
<path clip-path="url(#clip200)" d="M50.9921 1281.36 L73.2142 1281.36 L73.2142 1283.35 L60.668 1315.92 L55.7838 1315.92 L67.5893 1285.29 L50.9921 1285.29 L50.9921 1281.36 Z" fill="#000000" fill-rule="nonzero" fill-opacity="1" /><path clip-path="url(#clip200)" d="M96.5011 1297.28 Q99.8576 1298 101.733 1300.27 Q103.631 1302.54 103.631 1305.87 Q103.631 1310.99 100.112 1313.79 Q96.5937 1316.59 90.1123 1316.59 Q87.9364 1316.59 85.6216 1316.15 Q83.3299 1315.73 80.8762 1314.88 L80.8762 1310.36 Q82.8207 1311.5 85.1355 1312.08 Q87.4503 1312.66 89.9734 1312.66 Q94.3715 1312.66 96.6632 1310.92 Q98.978 1309.18 98.978 1305.87 Q98.978 1302.82 96.8252 1301.1 Q94.6956 1299.37 90.8762 1299.37 L86.8484 1299.37 L86.8484 1295.53 L91.0614 1295.53 Q94.5104 1295.53 96.3391 1294.16 Q98.1678 1292.77 98.1678 1290.18 Q98.1678 1287.52 96.2697 1286.1 Q94.3947 1284.67 90.8762 1284.67 Q88.9549 1284.67 86.7558 1285.09 Q84.5568 1285.5 81.9179 1286.38 L81.9179 1282.22 Q84.5799 1281.47 86.8947 1281.1 Q89.2327 1280.73 91.2928 1280.73 Q96.6169 1280.73 99.7187 1283.16 Q102.821 1285.57 102.821 1289.69 Q102.821 1292.56 101.177 1294.55 Q99.5335 1296.52 96.5011 1297.28 Z" fill="#000000" fill-rule="nonzero" fill-opacity="1" /><path clip-path="url(#clip200)" d="M122.496 1284.44 Q118.885 1284.44 117.057 1288 Q115.251 1291.54 115.251 1298.67 Q115.251 1305.78 117.057 1309.34 Q118.885 1312.89 122.496 1312.89 Q126.131 1312.89 127.936 1309.34 Q129.765 1305.78 129.765 1298.67 Q129.765 1291.54 127.936 1288 Q126.131 1284.44 122.496 1284.44 M122.496 1280.73 Q128.307 1280.73 131.362 1285.34 Q134.441 1289.92 134.441 1298.67 Q134.441 1307.4 131.362 1312.01 Q128.307 1316.59 122.496 1316.59 Q116.686 1316.59 113.608 1312.01 Q110.552 1307.4 110.552 1298.67 Q110.552 1289.92 113.608 1285.34 Q116.686 1280.73 122.496 1280.73 Z" fill="#000000" fill-rule="nonzero" fill-opacity="1" /><path clip-path="url(#clip200)" d="M152.658 1284.44 Q149.047 1284.44 147.218 1288 Q145.413 1291.54 145.413 1298.67 Q145.413 1305.78 147.218 1309.34 Q149.047 1312.89 152.658 1312.89 Q156.292 1312.89 158.098 1309.34 Q159.927 1305.78 159.927 1298.67 Q159.927 1291.54 158.098 1288 Q156.292 1284.44 152.658 1284.44 M152.658 1280.73 Q158.468 1280.73 161.524 1285.34 Q164.603 1289.92 164.603 1298.67 Q164.603 1307.4 161.524 1312.01 Q158.468 1316.59 152.658 1316.59 Q146.848 1316.59 143.769 1312.01 Q140.714 1307.4 140.714 1298.67 Q140.714 1289.92 143.769 1285.34 Q146.848 1280.73 152.658 1280.73 Z" fill="#000000" fill-rule="nonzero" fill-opacity="1" /><path clip-path="url(#clip200)" d="M182.82 1284.44 Q179.209 1284.44 177.38 1288 Q175.575 1291.54 175.575 1298.67 Q175.575 1305.78 177.38 1309.34 Q179.209 1312.89 182.82 1312.89 Q186.454 1312.89 188.26 1309.34 Q190.089 1305.78 190.089 1298.67 Q190.089 1291.54 188.26 1288 Q186.454 1284.44 182.82 1284.44 M182.82 1280.73 Q188.63 1280.73 191.686 1285.34 Q194.765 1289.92 194.765 1298.67 Q194.765 1307.4 191.686 1312.01 Q188.63 1316.59 182.82 1316.59 Q177.01 1316.59 173.931 1312.01 Q170.876 1307.4 170.876 1298.67 Q170.876 1289.92 173.931 1285.34 Q177.01 1280.73 182.82 1280.73 Z" fill="#000000" fill-rule="nonzero" fill-opacity="1" /><path clip-path="url(#clip200)" d="M50.9921 1062.87 L73.2142 1062.87 L73.2142 1064.86 L60.668 1097.43 L55.7838 1097.43 L67.5893 1066.81 L50.9921 1066.81 L50.9921 1062.87 Z" fill="#000000" fill-rule="nonzero" fill-opacity="1" /><path clip-path="url(#clip200)" d="M95.1817 1066.95 L83.3762 1085.4 L95.1817 1085.4 L95.1817 1066.95 M93.9549 1062.87 L99.8345 1062.87 L99.8345 1085.4 L104.765 1085.4 L104.765 1089.28 L99.8345 1089.28 L99.8345 1097.43 L95.1817 1097.43 L95.1817 1089.28 L79.5799 1089.28 L79.5799 1084.77 L93.9549 1062.87 Z" fill="#000000" fill-rule="nonzero" fill-opacity="1" /><path clip-path="url(#clip200)" d="M122.496 1065.95 Q118.885 1065.95 117.057 1069.52 Q115.251 1073.06 115.251 1080.19 Q115.251 1087.29 117.057 1090.86 Q118.885 1094.4 122.496 1094.4 Q126.131 1094.4 127.936 1090.86 Q129.765 1087.29 129.765 1080.19 Q129.765 1073.06 127.936 1069.52 Q126.131 1065.95 122.496 1065.95 M122.496 1062.25 Q128.307 1062.25 131.362 1066.85 Q134.441 1071.44 134.441 1080.19 Q134.441 1088.91 131.362 1093.52 Q128.307 1098.1 122.496 1098.1 Q116.686 1098.1 113.608 1093.52 Q110.552 1088.91 110.552 1080.19 Q110.552 1071.44 113.608 1066.85 Q116.686 1062.25 122.496 1062.25 Z" fill="#000000" fill-rule="nonzero" fill-opacity="1" /><path clip-path="url(#clip200)" d="M152.658 1065.95 Q149.047 1065.95 147.218 1069.52 Q145.413 1073.06 145.413 1080.19 Q145.413 1087.29 147.218 1090.86 Q149.047 1094.4 152.658 1094.4 Q156.292 1094.4 158.098 1090.86 Q159.927 1087.29 159.927 1080.19 Q159.927 1073.06 158.098 1069.52 Q156.292 1065.95 152.658 1065.95 M152.658 1062.25 Q158.468 1062.25 161.524 1066.85 Q164.603 1071.44 164.603 1080.19 Q164.603 1088.91 161.524 1093.52 Q158.468 1098.1 152.658 1098.1 Q146.848 1098.1 143.769 1093.52 Q140.714 1088.91 140.714 1080.19 Q140.714 1071.44 143.769 1066.85 Q146.848 1062.25 152.658 1062.25 Z" fill="#000000" fill-rule="nonzero" fill-opacity="1" /><path clip-path="url(#clip200)" d="M182.82 1065.95 Q179.209 1065.95 177.38 1069.52 Q175.575 1073.06 175.575 1080.19 Q175.575 1087.29 177.38 1090.86 Q179.209 1094.4 182.82 1094.4 Q186.454 1094.4 188.26 1090.86 Q190.089 1087.29 190.089 1080.19 Q190.089 1073.06 188.26 1069.52 Q186.454 1065.95 182.82 1065.95 M182.82 1062.25 Q188.63 1062.25 191.686 1066.85 Q194.765 1071.44 194.765 1080.19 Q194.765 1088.91 191.686 1093.52 Q188.63 1098.1 182.82 1098.1 Q177.01 1098.1 173.931 1093.52 Q170.876 1088.91 170.876 1080.19 Q170.876 1071.44 173.931 1066.85 Q177.01 1062.25 182.82 1062.25 Z" fill="#000000" fill-rule="nonzero" fill-opacity="1" /><path clip-path="url(#clip200)" d="M50.9921 844.386 L73.2142 844.386 L73.2142 846.377 L60.668 878.946 L55.7838 878.946 L67.5893 848.321 L50.9921 848.321 L50.9921 844.386 Z" fill="#000000" fill-rule="nonzero" fill-opacity="1" /><path clip-path="url(#clip200)" d="M82.3808 844.386 L100.737 844.386 L100.737 848.321 L86.6632 848.321 L86.6632 856.793 Q87.6817 856.446 88.7003 856.284 Q89.7188 856.099 90.7373 856.099 Q96.5243 856.099 99.9039 859.27 Q103.284 862.441 103.284 867.858 Q103.284 873.437 99.8113 876.538 Q96.3391 879.617 90.0197 879.617 Q87.8438 879.617 85.5753 879.247 Q83.3299 878.876 80.9225 878.136 L80.9225 873.437 Q83.0058 874.571 85.2281 875.126 Q87.4503 875.682 89.9271 875.682 Q93.9317 875.682 96.2697 873.576 Q98.6076 871.469 98.6076 867.858 Q98.6076 864.247 96.2697 862.14 Q93.9317 860.034 89.9271 860.034 Q88.0521 860.034 86.1771 860.451 Q84.3253 860.867 82.3808 861.747 L82.3808 844.386 Z" fill="#000000" fill-rule="nonzero" fill-opacity="1" /><path clip-path="url(#clip200)" d="M122.496 847.465 Q118.885 847.465 117.057 851.029 Q115.251 854.571 115.251 861.701 Q115.251 868.807 117.057 872.372 Q118.885 875.913 122.496 875.913 Q126.131 875.913 127.936 872.372 Q129.765 868.807 129.765 861.701 Q129.765 854.571 127.936 851.029 Q126.131 847.465 122.496 847.465 M122.496 843.761 Q128.307 843.761 131.362 848.367 Q134.441 852.951 134.441 861.701 Q134.441 870.427 131.362 875.034 Q128.307 879.617 122.496 879.617 Q116.686 879.617 113.608 875.034 Q110.552 870.427 110.552 861.701 Q110.552 852.951 113.608 848.367 Q116.686 843.761 122.496 843.761 Z" fill="#000000" fill-rule="nonzero" fill-opacity="1" /><path clip-path="url(#clip200)" d="M152.658 847.465 Q149.047 847.465 147.218 851.029 Q145.413 854.571 145.413 861.701 Q145.413 868.807 147.218 872.372 Q149.047 875.913 152.658 875.913 Q156.292 875.913 158.098 872.372 Q159.927 868.807 159.927 861.701 Q159.927 854.571 158.098 851.029 Q156.292 847.465 152.658 847.465 M152.658 843.761 Q158.468 843.761 161.524 848.367 Q164.603 852.951 164.603 861.701 Q164.603 870.427 161.524 875.034 Q158.468 879.617 152.658 879.617 Q146.848 879.617 143.769 875.034 Q140.714 870.427 140.714 861.701 Q140.714 852.951 143.769 848.367 Q146.848 843.761 152.658 843.761 Z" fill="#000000" fill-rule="nonzero" fill-opacity="1" /><path clip-path="url(#clip200)" d="M182.82 847.465 Q179.209 847.465 177.38 851.029 Q175.575 854.571 175.575 861.701 Q175.575 868.807 177.38 872.372 Q179.209 875.913 182.82 875.913 Q186.454 875.913 188.26 872.372 Q190.089 868.807 190.089 861.701 Q190.089 854.571 188.26 851.029 Q186.454 847.465 182.82 847.465 M182.82 843.761 Q188.63 843.761 191.686 848.367 Q194.765 852.951 194.765 861.701 Q194.765 870.427 191.686 875.034 Q188.63 879.617 182.82 879.617 Q177.01 879.617 173.931 875.034 Q170.876 870.427 170.876 861.701 Q170.876 852.951 173.931 848.367 Q177.01 843.761 182.82 843.761 Z" fill="#000000" fill-rule="nonzero" fill-opacity="1" /><path clip-path="url(#clip200)" d="M50.9921 625.899 L73.2142 625.899 L73.2142 627.89 L60.668 660.459 L55.7838 660.459 L67.5893 629.834 L50.9921 629.834 L50.9921 625.899 Z" fill="#000000" fill-rule="nonzero" fill-opacity="1" /><path clip-path="url(#clip200)" d="M92.9132 641.316 Q89.7651 641.316 87.9132 643.469 Q86.0845 645.621 86.0845 649.371 Q86.0845 653.098 87.9132 655.274 Q89.7651 657.427 92.9132 657.427 Q96.0613 657.427 97.89 655.274 Q99.7419 653.098 99.7419 649.371 Q99.7419 645.621 97.89 643.469 Q96.0613 641.316 92.9132 641.316 M102.196 626.663 L102.196 630.922 Q100.436 630.089 98.6308 629.649 Q96.8484 629.209 95.0891 629.209 Q90.4595 629.209 88.0058 632.334 Q85.5753 635.459 85.2281 641.779 Q86.5938 639.765 88.654 638.7 Q90.7141 637.612 93.191 637.612 Q98.3993 637.612 101.409 640.783 Q104.441 643.932 104.441 649.371 Q104.441 654.695 101.293 657.913 Q98.1447 661.131 92.9132 661.131 Q86.9179 661.131 83.7466 656.547 Q80.5753 651.941 80.5753 643.214 Q80.5753 635.02 84.4642 630.159 Q88.353 625.274 94.9039 625.274 Q96.6632 625.274 98.4456 625.621 Q100.251 625.969 102.196 626.663 Z" fill="#000000" fill-rule="nonzero" fill-opacity="1" /><path clip-path="url(#clip200)" d="M122.496 628.978 Q118.885 628.978 117.057 632.543 Q115.251 636.084 115.251 643.214 Q115.251 650.32 117.057 653.885 Q118.885 657.427 122.496 657.427 Q126.131 657.427 127.936 653.885 Q129.765 650.32 129.765 643.214 Q129.765 636.084 127.936 632.543 Q126.131 628.978 122.496 628.978 M122.496 625.274 Q128.307 625.274 131.362 629.881 Q134.441 634.464 134.441 643.214 Q134.441 651.941 131.362 656.547 Q128.307 661.131 122.496 661.131 Q116.686 661.131 113.608 656.547 Q110.552 651.941 110.552 643.214 Q110.552 634.464 113.608 629.881 Q116.686 625.274 122.496 625.274 Z" fill="#000000" fill-rule="nonzero" fill-opacity="1" /><path clip-path="url(#clip200)" d="M152.658 628.978 Q149.047 628.978 147.218 632.543 Q145.413 636.084 145.413 643.214 Q145.413 650.32 147.218 653.885 Q149.047 657.427 152.658 657.427 Q156.292 657.427 158.098 653.885 Q159.927 650.32 159.927 643.214 Q159.927 636.084 158.098 632.543 Q156.292 628.978 152.658 628.978 M152.658 625.274 Q158.468 625.274 161.524 629.881 Q164.603 634.464 164.603 643.214 Q164.603 651.941 161.524 656.547 Q158.468 661.131 152.658 661.131 Q146.848 661.131 143.769 656.547 Q140.714 651.941 140.714 643.214 Q140.714 634.464 143.769 629.881 Q146.848 625.274 152.658 625.274 Z" fill="#000000" fill-rule="nonzero" fill-opacity="1" /><path clip-path="url(#clip200)" d="M182.82 628.978 Q179.209 628.978 177.38 632.543 Q175.575 636.084 175.575 643.214 Q175.575 650.32 177.38 653.885 Q179.209 657.427 182.82 657.427 Q186.454 657.427 188.26 653.885 Q190.089 650.32 190.089 643.214 Q190.089 636.084 188.26 632.543 Q186.454 628.978 182.82 628.978 M182.82 625.274 Q188.63 625.274 191.686 629.881 Q194.765 634.464 194.765 643.214 Q194.765 651.941 191.686 656.547 Q188.63 661.131 182.82 661.131 Q177.01 661.131 173.931 656.547 Q170.876 651.941 170.876 643.214 Q170.876 634.464 173.931 629.881 Q177.01 625.274 182.82 625.274 Z" fill="#000000" fill-rule="nonzero" fill-opacity="1" /><path clip-path="url(#clip200)" d="M50.9921 407.413 L73.2142 407.413 L73.2142 409.403 L60.668 441.973 L55.7838 441.973 L67.5893 411.348 L50.9921 411.348 L50.9921 407.413 Z" fill="#000000" fill-rule="nonzero" fill-opacity="1" /><path clip-path="url(#clip200)" d="M81.154 407.413 L103.376 407.413 L103.376 409.403 L90.8299 441.973 L85.9456 441.973 L97.7511 411.348 L81.154 411.348 L81.154 407.413 Z" fill="#000000" fill-rule="nonzero" fill-opacity="1" /><path clip-path="url(#clip200)" d="M122.496 410.491 Q118.885 410.491 117.057 414.056 Q115.251 417.598 115.251 424.727 Q115.251 431.834 117.057 435.399 Q118.885 438.94 122.496 438.94 Q126.131 438.94 127.936 435.399 Q129.765 431.834 129.765 424.727 Q129.765 417.598 127.936 414.056 Q126.131 410.491 122.496 410.491 M122.496 406.788 Q128.307 406.788 131.362 411.394 Q134.441 415.977 134.441 424.727 Q134.441 433.454 131.362 438.061 Q128.307 442.644 122.496 442.644 Q116.686 442.644 113.608 438.061 Q110.552 433.454 110.552 424.727 Q110.552 415.977 113.608 411.394 Q116.686 406.788 122.496 406.788 Z" fill="#000000" fill-rule="nonzero" fill-opacity="1" /><path clip-path="url(#clip200)" d="M152.658 410.491 Q149.047 410.491 147.218 414.056 Q145.413 417.598 145.413 424.727 Q145.413 431.834 147.218 435.399 Q149.047 438.94 152.658 438.94 Q156.292 438.94 158.098 435.399 Q159.927 431.834 159.927 424.727 Q159.927 417.598 158.098 414.056 Q156.292 410.491 152.658 410.491 M152.658 406.788 Q158.468 406.788 161.524 411.394 Q164.603 415.977 164.603 424.727 Q164.603 433.454 161.524 438.061 Q158.468 442.644 152.658 442.644 Q146.848 442.644 143.769 438.061 Q140.714 433.454 140.714 424.727 Q140.714 415.977 143.769 411.394 Q146.848 406.788 152.658 406.788 Z" fill="#000000" fill-rule="nonzero" fill-opacity="1" /><path clip-path="url(#clip200)" d="M182.82 410.491 Q179.209 410.491 177.38 414.056 Q175.575 417.598 175.575 424.727 Q175.575 431.834 177.38 435.399 Q179.209 438.94 182.82 438.94 Q186.454 438.94 188.26 435.399 Q190.089 431.834 190.089 424.727 Q190.089 417.598 188.26 414.056 Q186.454 410.491 182.82 410.491 M182.82 406.788 Q188.63 406.788 191.686 411.394 Q194.765 415.977 194.765 424.727 Q194.765 433.454 191.686 438.061 Q188.63 442.644 182.82 442.644 Q177.01 442.644 173.931 438.061 Q170.876 433.454 170.876 424.727 Q170.876 415.977 173.931 411.394 Q177.01 406.788 182.82 406.788 Z" fill="#000000" fill-rule="nonzero" fill-opacity="1" /><path clip-path="url(#clip200)" d="M50.9921 188.926 L73.2142 188.926 L73.2142 190.917 L60.668 223.486 L55.7838 223.486 L67.5893 192.861 L50.9921 192.861 L50.9921 188.926 Z" fill="#000000" fill-rule="nonzero" fill-opacity="1" /><path clip-path="url(#clip200)" d="M92.3345 207.074 Q89.0012 207.074 87.0799 208.857 Q85.1818 210.639 85.1818 213.764 Q85.1818 216.889 87.0799 218.671 Q89.0012 220.454 92.3345 220.454 Q95.6678 220.454 97.5891 218.671 Q99.5104 216.866 99.5104 213.764 Q99.5104 210.639 97.5891 208.857 Q95.691 207.074 92.3345 207.074 M87.6586 205.083 Q84.6494 204.343 82.9595 202.283 Q81.2929 200.222 81.2929 197.259 Q81.2929 193.116 84.2327 190.709 Q87.1956 188.301 92.3345 188.301 Q97.4965 188.301 100.436 190.709 Q103.376 193.116 103.376 197.259 Q103.376 200.222 101.686 202.283 Q100.02 204.343 97.0335 205.083 Q100.413 205.87 102.288 208.162 Q104.186 210.454 104.186 213.764 Q104.186 218.787 101.108 221.472 Q98.0521 224.157 92.3345 224.157 Q86.6169 224.157 83.5382 221.472 Q80.4827 218.787 80.4827 213.764 Q80.4827 210.454 82.3808 208.162 Q84.279 205.87 87.6586 205.083 M85.9456 197.699 Q85.9456 200.384 87.6123 201.889 Q89.3021 203.394 92.3345 203.394 Q95.3437 203.394 97.0335 201.889 Q98.7465 200.384 98.7465 197.699 Q98.7465 195.014 97.0335 193.509 Q95.3437 192.005 92.3345 192.005 Q89.3021 192.005 87.6123 193.509 Q85.9456 195.014 85.9456 197.699 Z" fill="#000000" fill-rule="nonzero" fill-opacity="1" /><path clip-path="url(#clip200)" d="M122.496 192.005 Q118.885 192.005 117.057 195.57 Q115.251 199.111 115.251 206.241 Q115.251 213.347 117.057 216.912 Q118.885 220.454 122.496 220.454 Q126.131 220.454 127.936 216.912 Q129.765 213.347 129.765 206.241 Q129.765 199.111 127.936 195.57 Q126.131 192.005 122.496 192.005 M122.496 188.301 Q128.307 188.301 131.362 192.908 Q134.441 197.491 134.441 206.241 Q134.441 214.968 131.362 219.574 Q128.307 224.157 122.496 224.157 Q116.686 224.157 113.608 219.574 Q110.552 214.968 110.552 206.241 Q110.552 197.491 113.608 192.908 Q116.686 188.301 122.496 188.301 Z" fill="#000000" fill-rule="nonzero" fill-opacity="1" /><path clip-path="url(#clip200)" d="M152.658 192.005 Q149.047 192.005 147.218 195.57 Q145.413 199.111 145.413 206.241 Q145.413 213.347 147.218 216.912 Q149.047 220.454 152.658 220.454 Q156.292 220.454 158.098 216.912 Q159.927 213.347 159.927 206.241 Q159.927 199.111 158.098 195.57 Q156.292 192.005 152.658 192.005 M152.658 188.301 Q158.468 188.301 161.524 192.908 Q164.603 197.491 164.603 206.241 Q164.603 214.968 161.524 219.574 Q158.468 224.157 152.658 224.157 Q146.848 224.157 143.769 219.574 Q140.714 214.968 140.714 206.241 Q140.714 197.491 143.769 192.908 Q146.848 188.301 152.658 188.301 Z" fill="#000000" fill-rule="nonzero" fill-opacity="1" /><path clip-path="url(#clip200)" d="M182.82 192.005 Q179.209 192.005 177.38 195.57 Q175.575 199.111 175.575 206.241 Q175.575 213.347 177.38 216.912 Q179.209 220.454 182.82 220.454 Q186.454 220.454 188.26 216.912 Q190.089 213.347 190.089 206.241 Q190.089 199.111 188.26 195.57 Q186.454 192.005 182.82 192.005 M182.82 188.301 Q188.63 188.301 191.686 192.908 Q194.765 197.491 194.765 206.241 Q194.765 214.968 191.686 219.574 Q188.63 224.157 182.82 224.157 Q177.01 224.157 173.931 219.574 Q170.876 214.968 170.876 206.241 Q170.876 197.491 173.931 192.908 Q177.01 188.301 182.82 188.301 Z" fill="#000000" fill-rule="nonzero" fill-opacity="1" /><path clip-path="url(#clip200)" d="M1262.23 35.2602 Q1262.23 29.4732 1259.83 26.2904 Q1257.46 23.1075 1253.15 23.1075 Q1248.86 23.1075 1246.46 26.2904 Q1244.09 29.4732 1244.09 35.2602 Q1244.09 41.0183 1246.46 44.2012 Q1248.86 47.384 1253.15 47.384 Q1257.46 47.384 1259.83 44.2012 Q1262.23 41.0183 1262.23 35.2602 M1267.56 47.818 Q1267.56 56.0934 1263.88 60.1154 Q1260.21 64.1663 1252.63 64.1663 Q1249.82 64.1663 1247.33 63.7323 Q1244.84 63.3272 1242.5 62.4592 L1242.5 57.2798 Q1244.84 58.5529 1247.13 59.1606 Q1249.41 59.7682 1251.79 59.7682 Q1257.02 59.7682 1259.63 57.0194 Q1262.23 54.2995 1262.23 48.7729 L1262.23 46.1398 Q1260.58 49.0044 1258.01 50.4222 Q1255.43 51.84 1251.84 51.84 Q1245.88 51.84 1242.24 47.2972 Q1238.59 42.7544 1238.59 35.2602 Q1238.59 27.7371 1242.24 23.1943 Q1245.88 18.6515 1251.84 18.6515 Q1255.43 18.6515 1258.01 20.0693 Q1260.58 21.4872 1262.23 24.3517 L1262.23 19.4328 L1267.56 19.4328 L1267.56 47.818 Z" fill="#000000" fill-rule="nonzero" fill-opacity="1" /><path clip-path="url(#clip200)" d="M1299.85 24.3517 L1299.85 6.81709 L1305.17 6.81709 L1305.17 51.84 L1299.85 51.84 L1299.85 46.9789 Q1298.17 49.8724 1295.59 51.2902 Q1293.05 52.6791 1289.46 52.6791 Q1283.59 52.6791 1279.88 47.9916 Q1276.21 43.3042 1276.21 35.6653 Q1276.21 28.0265 1279.88 23.339 Q1283.59 18.6515 1289.46 18.6515 Q1293.05 18.6515 1295.59 20.0693 Q1298.17 21.4582 1299.85 24.3517 M1281.71 35.6653 Q1281.71 41.5391 1284.11 44.8956 Q1286.54 48.2231 1290.76 48.2231 Q1294.99 48.2231 1297.42 44.8956 Q1299.85 41.5391 1299.85 35.6653 Q1299.85 29.7915 1297.42 26.464 Q1294.99 23.1075 1290.76 23.1075 Q1286.54 23.1075 1284.11 26.464 Q1281.71 29.7915 1281.71 35.6653 Z" fill="#000000" fill-rule="nonzero" fill-opacity="1" /><path clip-path="url(#clip200)" d="M1321.29 46.9789 L1321.29 64.1663 L1315.94 64.1663 L1315.94 19.4328 L1321.29 19.4328 L1321.29 24.3517 Q1322.97 21.4582 1325.51 20.0693 Q1328.09 18.6515 1331.65 18.6515 Q1337.55 18.6515 1341.22 23.339 Q1344.93 28.0265 1344.93 35.6653 Q1344.93 43.3042 1341.22 47.9916 Q1337.55 52.6791 1331.65 52.6791 Q1328.09 52.6791 1325.51 51.2902 Q1322.97 49.8724 1321.29 46.9789 M1339.4 35.6653 Q1339.4 29.7915 1336.97 26.464 Q1334.57 23.1075 1330.35 23.1075 Q1326.12 23.1075 1323.69 26.464 Q1321.29 29.7915 1321.29 35.6653 Q1321.29 41.5391 1323.69 44.8956 Q1326.12 48.2231 1330.35 48.2231 Q1334.57 48.2231 1336.97 44.8956 Q1339.4 41.5391 1339.4 35.6653 Z" fill="#000000" fill-rule="nonzero" fill-opacity="1" /><polyline clip-path="url(#clip202)" style="stroke:#009af9; stroke-linecap:round; stroke-linejoin:round; stroke-width:4; stroke-opacity:1; fill:none" points="290.821,1424.92 415.938,1447.38 541.056,1282.34 666.173,1224.42 791.291,1065.68 916.408,1104.7 1041.53,1214.47 1166.64,1142.11 1291.76,1079.05 1416.88,789.893 1542,847.224 1667.11,584.421 1792.23,529.804 1917.35,526.626 2042.46,428.903 2167.58,156.32 2292.7,145.256 "/>
<path clip-path="url(#clip200)" d="M301.498 255.881 L566.127 255.881 L566.127 152.201 L301.498 152.201  Z" fill="#ffffff" fill-rule="evenodd" fill-opacity="1"/>
<polyline clip-path="url(#clip200)" style="stroke:#000000; stroke-linecap:round; stroke-linejoin:round; stroke-width:4; stroke-opacity:1; fill:none" points="301.498,255.881 566.127,255.881 566.127,152.201 301.498,152.201 301.498,255.881 "/>
<polyline clip-path="url(#clip200)" style="stroke:#009af9; stroke-linecap:round; stroke-linejoin:round; stroke-width:4; stroke-opacity:1; fill:none" points="325.075,204.041 466.541,204.041 "/>
<path clip-path="url(#clip200)" d="M503.962 223.728 Q502.156 228.358 500.443 229.77 Q498.73 231.182 495.86 231.182 L492.457 231.182 L492.457 227.617 L494.957 227.617 Q496.716 227.617 497.688 226.784 Q498.661 225.95 499.841 222.848 L500.605 220.904 L490.119 195.395 L494.633 195.395 L502.735 215.673 L510.836 195.395 L515.35 195.395 L503.962 223.728 Z" fill="#000000" fill-rule="nonzero" fill-opacity="1" /><path clip-path="url(#clip200)" d="M522.642 217.385 L530.281 217.385 L530.281 191.02 L521.971 192.687 L521.971 188.427 L530.235 186.761 L534.91 186.761 L534.91 217.385 L542.549 217.385 L542.549 221.321 L522.642 221.321 L522.642 217.385 Z" fill="#000000" fill-rule="nonzero" fill-opacity="1" /></svg>
