<?xml version="1.0" encoding="utf-8"?>
<svg xmlns="http://www.w3.org/2000/svg" xmlns:xlink="http://www.w3.org/1999/xlink" width="600" height="400" viewBox="0 0 2400 1600">
<defs>
  <clipPath id="clip880">
    <rect x="0" y="0" width="2400" height="1600"/>
  </clipPath>
</defs>
<path clip-path="url(#clip880)" d="M0 1600 L2400 1600 L2400 0 L0 0  Z" fill="#ffffff" fill-rule="evenodd" fill-opacity="1"/>
<defs>
  <clipPath id="clip881">
    <rect x="480" y="0" width="1681" height="1600"/>
  </clipPath>
</defs>
<path clip-path="url(#clip880)" d="M230.765 1486.45 L2352.76 1486.45 L2352.76 106.192 L230.765 106.192  Z" fill="#ffffff" fill-rule="evenodd" fill-opacity="1"/>
<defs>
  <clipPath id="clip882">
    <rect x="230" y="106" width="2123" height="1381"/>
  </clipPath>
</defs>
<polyline clip-path="url(#clip882)" style="stroke:#000000; stroke-linecap:round; stroke-linejoin:round; stroke-width:2; stroke-opacity:0.1; fill:none" points="541.056,1486.45 541.056,106.192 "/>
<polyline clip-path="url(#clip882)" style="stroke:#000000; stroke-linecap:round; stroke-linejoin:round; stroke-width:2; stroke-opacity:0.1; fill:none" points="916.408,1486.45 916.408,106.192 "/>
<polyline clip-path="url(#clip882)" style="stroke:#000000; stroke-linecap:round; stroke-linejoin:round; stroke-width:2; stroke-opacity:0.1; fill:none" points="1291.76,1486.45 1291.76,106.192 "/>
<polyline clip-path="url(#clip882)" style="stroke:#000000; stroke-linecap:round; stroke-linejoin:round; stroke-width:2; stroke-opacity:0.1; fill:none" points="1667.11,1486.45 1667.11,106.192 "/>
<polyline clip-path="url(#clip882)" style="stroke:#000000; stroke-linecap:round; stroke-linejoin:round; stroke-width:2; stroke-opacity:0.1; fill:none" points="2042.46,1486.45 2042.46,106.192 "/>
<polyline clip-path="url(#clip882)" style="stroke:#000000; stroke-linecap:round; stroke-linejoin:round; stroke-width:2; stroke-opacity:0.1; fill:none" points="230.765,1346.63 2352.76,1346.63 "/>
<polyline clip-path="url(#clip882)" style="stroke:#000000; stroke-linecap:round; stroke-linejoin:round; stroke-width:2; stroke-opacity:0.1; fill:none" points="230.765,1021.54 2352.76,1021.54 "/>
<polyline clip-path="url(#clip882)" style="stroke:#000000; stroke-linecap:round; stroke-linejoin:round; stroke-width:2; stroke-opacity:0.1; fill:none" points="230.765,696.453 2352.76,696.453 "/>
<polyline clip-path="url(#clip882)" style="stroke:#000000; stroke-linecap:round; stroke-linejoin:round; stroke-width:2; stroke-opacity:0.1; fill:none" points="230.765,371.362 2352.76,371.362 "/>
<polyline clip-path="url(#clip880)" style="stroke:#000000; stroke-linecap:round; stroke-linejoin:round; stroke-width:4; stroke-opacity:1; fill:none" points="230.765,1486.45 2352.76,1486.45 "/>
<polyline clip-path="url(#clip880)" style="stroke:#000000; stroke-linecap:round; stroke-linejoin:round; stroke-width:4; stroke-opacity:1; fill:none" points="541.056,1486.45 541.056,1467.55 "/>
<polyline clip-path="url(#clip880)" style="stroke:#000000; stroke-linecap:round; stroke-linejoin:round; stroke-width:4; stroke-opacity:1; fill:none" points="916.408,1486.45 916.408,1467.55 "/>
<polyline clip-path="url(#clip880)" style="stroke:#000000; stroke-linecap:round; stroke-linejoin:round; stroke-width:4; stroke-opacity:1; fill:none" points="1291.76,1486.45 1291.76,1467.55 "/>
<polyline clip-path="url(#clip880)" style="stroke:#000000; stroke-linecap:round; stroke-linejoin:round; stroke-width:4; stroke-opacity:1; fill:none" points="1667.11,1486.45 1667.11,1467.55 "/>
<polyline clip-path="url(#clip880)" style="stroke:#000000; stroke-linecap:round; stroke-linejoin:round; stroke-width:4; stroke-opacity:1; fill:none" points="2042.46,1486.45 2042.46,1467.55 "/>
<path clip-path="url(#clip880)" d="M545.303 1530.21 Q548.66 1530.93 550.535 1533.2 Q552.433 1535.47 552.433 1538.8 Q552.433 1543.92 548.914 1546.72 Q545.396 1549.52 538.915 1549.52 Q536.739 1549.52 534.424 1549.08 Q532.132 1548.66 529.678 1547.81 L529.678 1543.29 Q531.623 1544.43 533.938 1545.01 Q536.252 1545.58 538.776 1545.58 Q543.174 1545.58 545.465 1543.85 Q547.78 1542.11 547.78 1538.8 Q547.78 1535.75 545.627 1534.03 Q543.498 1532.3 539.678 1532.3 L535.651 1532.3 L535.651 1528.45 L539.864 1528.45 Q543.313 1528.45 545.141 1527.09 Q546.97 1525.7 546.97 1523.11 Q546.97 1520.45 545.072 1519.03 Q543.197 1517.6 539.678 1517.6 Q537.757 1517.6 535.558 1518.01 Q533.359 1518.43 530.72 1519.31 L530.72 1515.14 Q533.382 1514.4 535.697 1514.03 Q538.035 1513.66 540.095 1513.66 Q545.419 1513.66 548.521 1516.09 Q551.623 1518.5 551.623 1522.62 Q551.623 1525.49 549.979 1527.48 Q548.336 1529.45 545.303 1530.21 Z" fill="#000000" fill-rule="nonzero" fill-opacity="1" /><path clip-path="url(#clip880)" d="M916.813 1529.7 Q913.665 1529.7 911.813 1531.86 Q909.984 1534.01 909.984 1537.76 Q909.984 1541.49 911.813 1543.66 Q913.665 1545.82 916.813 1545.82 Q919.961 1545.82 921.79 1543.66 Q923.642 1541.49 923.642 1537.76 Q923.642 1534.01 921.79 1531.86 Q919.961 1529.7 916.813 1529.7 M926.095 1515.05 L926.095 1519.31 Q924.336 1518.48 922.531 1518.04 Q920.748 1517.6 918.989 1517.6 Q914.359 1517.6 911.906 1520.72 Q909.475 1523.85 909.128 1530.17 Q910.494 1528.15 912.554 1527.09 Q914.614 1526 917.091 1526 Q922.299 1526 925.308 1529.17 Q928.341 1532.32 928.341 1537.76 Q928.341 1543.08 925.193 1546.3 Q922.044 1549.52 916.813 1549.52 Q910.818 1549.52 907.646 1544.94 Q904.475 1540.33 904.475 1531.6 Q904.475 1523.41 908.364 1518.55 Q912.253 1513.66 918.804 1513.66 Q920.563 1513.66 922.345 1514.01 Q924.151 1514.36 926.095 1515.05 Z" fill="#000000" fill-rule="nonzero" fill-opacity="1" /><path clip-path="url(#clip880)" d="M1282.06 1548.13 L1282.06 1543.87 Q1283.82 1544.7 1285.63 1545.14 Q1287.43 1545.58 1289.17 1545.58 Q1293.8 1545.58 1296.23 1542.48 Q1298.68 1539.36 1299.03 1533.01 Q1297.69 1535.01 1295.63 1536.07 Q1293.57 1537.13 1291.07 1537.13 Q1285.88 1537.13 1282.85 1534.01 Q1279.84 1530.86 1279.84 1525.42 Q1279.84 1520.1 1282.99 1516.88 Q1286.14 1513.66 1291.37 1513.66 Q1297.36 1513.66 1300.51 1518.27 Q1303.68 1522.85 1303.68 1531.6 Q1303.68 1539.77 1299.79 1544.66 Q1295.93 1549.52 1289.38 1549.52 Q1287.62 1549.52 1285.81 1549.17 Q1284.01 1548.82 1282.06 1548.13 M1291.37 1533.48 Q1294.51 1533.48 1296.34 1531.32 Q1298.2 1529.17 1298.2 1525.42 Q1298.2 1521.7 1296.34 1519.54 Q1294.51 1517.37 1291.37 1517.37 Q1288.22 1517.37 1286.37 1519.54 Q1284.54 1521.7 1284.54 1525.42 Q1284.54 1529.17 1286.37 1531.32 Q1288.22 1533.48 1291.37 1533.48 Z" fill="#000000" fill-rule="nonzero" fill-opacity="1" /><path clip-path="url(#clip880)" d="M1642.6 1544.91 L1650.24 1544.91 L1650.24 1518.55 L1641.93 1520.21 L1641.93 1515.95 L1650.19 1514.29 L1654.87 1514.29 L1654.87 1544.91 L1662.51 1544.91 L1662.51 1548.85 L1642.6 1548.85 L1642.6 1544.91 Z" fill="#000000" fill-rule="nonzero" fill-opacity="1" /><path clip-path="url(#clip880)" d="M1675.98 1544.91 L1692.3 1544.91 L1692.3 1548.85 L1670.35 1548.85 L1670.35 1544.91 Q1673.02 1542.16 1677.6 1537.53 Q1682.2 1532.88 1683.39 1531.53 Q1685.63 1529.01 1686.51 1527.27 Q1687.41 1525.51 1687.41 1523.82 Q1687.41 1521.07 1685.47 1519.33 Q1683.55 1517.6 1680.45 1517.6 Q1678.25 1517.6 1675.79 1518.36 Q1673.36 1519.13 1670.58 1520.68 L1670.58 1515.95 Q1673.41 1514.82 1675.86 1514.24 Q1678.32 1513.66 1680.35 1513.66 Q1685.72 1513.66 1688.92 1516.35 Q1692.11 1519.03 1692.11 1523.52 Q1692.11 1525.65 1691.3 1527.57 Q1690.52 1529.47 1688.41 1532.07 Q1687.83 1532.74 1684.73 1535.95 Q1681.63 1539.15 1675.98 1544.91 Z" fill="#000000" fill-rule="nonzero" fill-opacity="1" /><path clip-path="url(#clip880)" d="M2017.65 1544.91 L2025.29 1544.91 L2025.29 1518.55 L2016.98 1520.21 L2016.98 1515.95 L2025.24 1514.29 L2029.92 1514.29 L2029.92 1544.91 L2037.56 1544.91 L2037.56 1548.85 L2017.65 1548.85 L2017.65 1544.91 Z" fill="#000000" fill-rule="nonzero" fill-opacity="1" /><path clip-path="url(#clip880)" d="M2047.05 1514.29 L2065.4 1514.29 L2065.4 1518.22 L2051.33 1518.22 L2051.33 1526.7 Q2052.35 1526.35 2053.37 1526.19 Q2054.39 1526 2055.4 1526 Q2061.19 1526 2064.57 1529.17 Q2067.95 1532.34 2067.95 1537.76 Q2067.95 1543.34 2064.48 1546.44 Q2061.01 1549.52 2054.69 1549.52 Q2052.51 1549.52 2050.24 1549.15 Q2048 1548.78 2045.59 1548.04 L2045.59 1543.34 Q2047.67 1544.47 2049.9 1545.03 Q2052.12 1545.58 2054.59 1545.58 Q2058.6 1545.58 2060.94 1543.48 Q2063.27 1541.37 2063.27 1537.76 Q2063.27 1534.15 2060.94 1532.04 Q2058.6 1529.94 2054.59 1529.94 Q2052.72 1529.94 2050.84 1530.35 Q2048.99 1530.77 2047.05 1531.65 L2047.05 1514.29 Z" fill="#000000" fill-rule="nonzero" fill-opacity="1" /><polyline clip-path="url(#clip880)" style="stroke:#000000; stroke-linecap:round; stroke-linejoin:round; stroke-width:4; stroke-opacity:1; fill:none" points="230.765,1486.45 230.765,106.192 "/>
<polyline clip-path="url(#clip880)" style="stroke:#000000; stroke-linecap:round; stroke-linejoin:round; stroke-width:4; stroke-opacity:1; fill:none" points="230.765,1346.63 249.662,1346.63 "/>
<polyline clip-path="url(#clip880)" style="stroke:#000000; stroke-linecap:round; stroke-linejoin:round; stroke-width:4; stroke-opacity:1; fill:none" points="230.765,1021.54 249.662,1021.54 "/>
<polyline clip-path="url(#clip880)" style="stroke:#000000; stroke-linecap:round; stroke-linejoin:round; stroke-width:4; stroke-opacity:1; fill:none" points="230.765,696.453 249.662,696.453 "/>
<polyline clip-path="url(#clip880)" style="stroke:#000000; stroke-linecap:round; stroke-linejoin:round; stroke-width:4; stroke-opacity:1; fill:none" points="230.765,371.362 249.662,371.362 "/>
<path clip-path="url(#clip880)" d="M50.9921 1329.35 L73.2142 1329.35 L73.2142 1331.35 L60.668 1363.91 L55.7838 1363.91 L67.5893 1333.29 L50.9921 1333.29 L50.9921 1329.35 Z" fill="#000000" fill-rule="nonzero" fill-opacity="1" /><path clip-path="url(#clip880)" d="M86.3623 1359.98 L102.682 1359.98 L102.682 1363.91 L80.7373 1363.91 L80.7373 1359.98 Q83.3994 1357.22 87.9827 1352.6 Q92.5891 1347.94 93.7697 1346.6 Q96.015 1344.08 96.8947 1342.34 Q97.7974 1340.58 97.7974 1338.89 Q97.7974 1336.14 95.853 1334.4 Q93.9317 1332.66 90.8299 1332.66 Q88.6308 1332.66 86.1771 1333.43 Q83.7466 1334.19 80.9688 1335.74 L80.9688 1331.02 Q83.7929 1329.89 86.2466 1329.31 Q88.7003 1328.73 90.7373 1328.73 Q96.1076 1328.73 99.3021 1331.41 Q102.496 1334.1 102.496 1338.59 Q102.496 1340.72 101.686 1342.64 Q100.899 1344.54 98.7928 1347.13 Q98.2141 1347.8 95.1123 1351.02 Q92.0104 1354.22 86.3623 1359.98 Z" fill="#000000" fill-rule="nonzero" fill-opacity="1" /><path clip-path="url(#clip880)" d="M122.496 1332.43 Q118.885 1332.43 117.057 1336 Q115.251 1339.54 115.251 1346.67 Q115.251 1353.78 117.057 1357.34 Q118.885 1360.88 122.496 1360.88 Q126.131 1360.88 127.936 1357.34 Q129.765 1353.78 129.765 1346.67 Q129.765 1339.54 127.936 1336 Q126.131 1332.43 122.496 1332.43 M122.496 1328.73 Q128.307 1328.73 131.362 1333.34 Q134.441 1337.92 134.441 1346.67 Q134.441 1355.4 131.362 1360 Q128.307 1364.59 122.496 1364.59 Q116.686 1364.59 113.608 1360 Q110.552 1355.4 110.552 1346.67 Q110.552 1337.92 113.608 1333.34 Q116.686 1328.73 122.496 1328.73 Z" fill="#000000" fill-rule="nonzero" fill-opacity="1" /><path clip-path="url(#clip880)" d="M152.658 1332.43 Q149.047 1332.43 147.218 1336 Q145.413 1339.54 145.413 1346.67 Q145.413 1353.78 147.218 1357.34 Q149.047 1360.88 152.658 1360.88 Q156.292 1360.88 158.098 1357.34 Q159.927 1353.78 159.927 1346.67 Q159.927 1339.54 158.098 1336 Q156.292 1332.43 152.658 1332.43 M152.658 1328.73 Q158.468 1328.73 161.524 1333.34 Q164.603 1337.92 164.603 1346.67 Q164.603 1355.4 161.524 1360 Q158.468 1364.59 152.658 1364.59 Q146.848 1364.59 143.769 1360 Q140.714 1355.4 140.714 1346.67 Q140.714 1337.92 143.769 1333.34 Q146.848 1328.73 152.658 1328.73 Z" fill="#000000" fill-rule="nonzero" fill-opacity="1" /><path clip-path="url(#clip880)" d="M182.82 1332.43 Q179.209 1332.43 177.38 1336 Q175.575 1339.54 175.575 1346.67 Q175.575 1353.78 177.38 1357.34 Q179.209 1360.88 182.82 1360.88 Q186.454 1360.88 188.26 1357.34 Q190.089 1353.78 190.089 1346.67 Q190.089 1339.54 188.26 1336 Q186.454 1332.43 182.82 1332.43 M182.82 1328.73 Q188.63 1328.73 191.686 1333.34 Q194.765 1337.92 194.765 1346.67 Q194.765 1355.4 191.686 1360 Q188.63 1364.59 182.82 1364.59 Q177.01 1364.59 173.931 1360 Q170.876 1355.4 170.876 1346.67 Q170.876 1337.92 173.931 1333.34 Q177.01 1328.73 182.82 1328.73 Z" fill="#000000" fill-rule="nonzero" fill-opacity="1" /><path clip-path="url(#clip880)" d="M50.9921 1004.26 L73.2142 1004.26 L73.2142 1006.25 L60.668 1038.82 L55.7838 1038.82 L67.5893 1008.2 L50.9921 1008.2 L50.9921 1004.26 Z" fill="#000000" fill-rule="nonzero" fill-opacity="1" /><path clip-path="url(#clip880)" d="M95.1817 1008.34 L83.3762 1026.79 L95.1817 1026.79 L95.1817 1008.34 M93.9549 1004.26 L99.8345 1004.26 L99.8345 1026.79 L104.765 1026.79 L104.765 1030.68 L99.8345 1030.68 L99.8345 1038.82 L95.1817 1038.82 L95.1817 1030.68 L79.5799 1030.68 L79.5799 1026.16 L93.9549 1004.26 Z" fill="#000000" fill-rule="nonzero" fill-opacity="1" /><path clip-path="url(#clip880)" d="M122.496 1007.34 Q118.885 1007.34 117.057 1010.91 Q115.251 1014.45 115.251 1021.58 Q115.251 1028.68 117.057 1032.25 Q118.885 1035.79 122.496 1035.79 Q126.131 1035.79 127.936 1032.25 Q129.765 1028.68 129.765 1021.58 Q129.765 1014.45 127.936 1010.91 Q126.131 1007.34 122.496 1007.34 M122.496 1003.64 Q128.307 1003.64 131.362 1008.25 Q134.441 1012.83 134.441 1021.58 Q134.441 1030.31 131.362 1034.91 Q128.307 1039.49 122.496 1039.49 Q116.686 1039.49 113.608 1034.91 Q110.552 1030.31 110.552 1021.58 Q110.552 1012.83 113.608 1008.25 Q116.686 1003.64 122.496 1003.64 Z" fill="#000000" fill-rule="nonzero" fill-opacity="1" /><path clip-path="url(#clip880)" d="M152.658 1007.34 Q149.047 1007.34 147.218 1010.91 Q145.413 1014.45 145.413 1021.58 Q145.413 1028.68 147.218 1032.25 Q149.047 1035.79 152.658 1035.79 Q156.292 1035.79 158.098 1032.25 Q159.927 1028.68 159.927 1021.58 Q159.927 1014.45 158.098 1010.91 Q156.292 1007.34 152.658 1007.34 M152.658 1003.64 Q158.468 1003.64 161.524 1008.25 Q164.603 1012.83 164.603 1021.58 Q164.603 1030.31 161.524 1034.91 Q158.468 1039.49 152.658 1039.49 Q146.848 1039.49 143.769 1034.91 Q140.714 1030.31 140.714 1021.58 Q140.714 1012.83 143.769 1008.25 Q146.848 1003.64 152.658 1003.64 Z" fill="#000000" fill-rule="nonzero" fill-opacity="1" /><path clip-path="url(#clip880)" d="M182.82 1007.34 Q179.209 1007.34 177.38 1010.91 Q175.575 1014.45 175.575 1021.58 Q175.575 1028.68 177.38 1032.25 Q179.209 1035.79 182.82 1035.79 Q186.454 1035.79 188.26 1032.25 Q190.089 1028.68 190.089 1021.58 Q190.089 1014.45 188.26 1010.91 Q186.454 1007.34 182.82 1007.34 M182.82 1003.64 Q188.63 1003.64 191.686 1008.25 Q194.765 1012.83 194.765 1021.58 Q194.765 1030.31 191.686 1034.91 Q188.63 1039.49 182.82 1039.49 Q177.01 1039.49 173.931 1034.91 Q170.876 1030.31 170.876 1021.58 Q170.876 1012.83 173.931 1008.25 Q177.01 1003.64 182.82 1003.64 Z" fill="#000000" fill-rule="nonzero" fill-opacity="1" /><path clip-path="url(#clip880)" d="M50.9921 679.173 L73.2142 679.173 L73.2142 681.164 L60.668 713.733 L55.7838 713.733 L67.5893 683.108 L50.9921 683.108 L50.9921 679.173 Z" fill="#000000" fill-rule="nonzero" fill-opacity="1" /><path clip-path="url(#clip880)" d="M92.9132 694.589 Q89.7651 694.589 87.9132 696.742 Q86.0845 698.895 86.0845 702.645 Q86.0845 706.372 87.9132 708.548 Q89.7651 710.7 92.9132 710.7 Q96.0613 710.7 97.89 708.548 Q99.7419 706.372 99.7419 702.645 Q99.7419 698.895 97.89 696.742 Q96.0613 694.589 92.9132 694.589 M102.196 679.937 L102.196 684.196 Q100.436 683.363 98.6308 682.923 Q96.8484 682.483 95.0891 682.483 Q90.4595 682.483 88.0058 685.608 Q85.5753 688.733 85.2281 695.052 Q86.5938 693.038 88.654 691.974 Q90.7141 690.886 93.191 690.886 Q98.3993 690.886 101.409 694.057 Q104.441 697.205 104.441 702.645 Q104.441 707.969 101.293 711.187 Q98.1447 714.404 92.9132 714.404 Q86.9179 714.404 83.7466 709.821 Q80.5753 705.214 80.5753 696.488 Q80.5753 688.293 84.4642 683.432 Q88.353 678.548 94.9039 678.548 Q96.6632 678.548 98.4456 678.895 Q100.251 679.242 102.196 679.937 Z" fill="#000000" fill-rule="nonzero" fill-opacity="1" /><path clip-path="url(#clip880)" d="M122.496 682.251 Q118.885 682.251 117.057 685.816 Q115.251 689.358 115.251 696.488 Q115.251 703.594 117.057 707.159 Q118.885 710.7 122.496 710.7 Q126.131 710.7 127.936 707.159 Q129.765 703.594 129.765 696.488 Q129.765 689.358 127.936 685.816 Q126.131 682.251 122.496 682.251 M122.496 678.548 Q128.307 678.548 131.362 683.154 Q134.441 687.738 134.441 696.488 Q134.441 705.214 131.362 709.821 Q128.307 714.404 122.496 714.404 Q116.686 714.404 113.608 709.821 Q110.552 705.214 110.552 696.488 Q110.552 687.738 113.608 683.154 Q116.686 678.548 122.496 678.548 Z" fill="#000000" fill-rule="nonzero" fill-opacity="1" /><path clip-path="url(#clip880)" d="M152.658 682.251 Q149.047 682.251 147.218 685.816 Q145.413 689.358 145.413 696.488 Q145.413 703.594 147.218 707.159 Q149.047 710.7 152.658 710.7 Q156.292 710.7 158.098 707.159 Q159.927 703.594 159.927 696.488 Q159.927 689.358 158.098 685.816 Q156.292 682.251 152.658 682.251 M152.658 678.548 Q158.468 678.548 161.524 683.154 Q164.603 687.738 164.603 696.488 Q164.603 705.214 161.524 709.821 Q158.468 714.404 152.658 714.404 Q146.848 714.404 143.769 709.821 Q140.714 705.214 140.714 696.488 Q140.714 687.738 143.769 683.154 Q146.848 678.548 152.658 678.548 Z" fill="#000000" fill-rule="nonzero" fill-opacity="1" /><path clip-path="url(#clip880)" d="M182.82 682.251 Q179.209 682.251 177.38 685.816 Q175.575 689.358 175.575 696.488 Q175.575 703.594 177.38 707.159 Q179.209 710.7 182.82 710.7 Q186.454 710.7 188.26 707.159 Q190.089 703.594 190.089 696.488 Q190.089 689.358 188.26 685.816 Q186.454 682.251 182.82 682.251 M182.82 678.548 Q188.63 678.548 191.686 683.154 Q194.765 687.738 194.765 696.488 Q194.765 705.214 191.686 709.821 Q188.63 714.404 182.82 714.404 Q177.01 714.404 173.931 709.821 Q170.876 705.214 170.876 696.488 Q170.876 687.738 173.931 683.154 Q177.01 678.548 182.82 678.548 Z" fill="#000000" fill-rule="nonzero" fill-opacity="1" /><path clip-path="url(#clip880)" d="M50.9921 354.082 L73.2142 354.082 L73.2142 356.073 L60.668 388.642 L55.7838 388.642 L67.5893 358.017 L50.9921 358.017 L50.9921 354.082 Z" fill="#000000" fill-rule="nonzero" fill-opacity="1" /><path clip-path="url(#clip880)" d="M92.3345 372.23 Q89.0012 372.23 87.0799 374.012 Q85.1818 375.795 85.1818 378.92 Q85.1818 382.045 87.0799 383.827 Q89.0012 385.61 92.3345 385.61 Q95.6678 385.61 97.5891 383.827 Q99.5104 382.022 99.5104 378.92 Q99.5104 375.795 97.5891 374.012 Q95.691 372.23 92.3345 372.23 M87.6586 370.239 Q84.6494 369.499 82.9595 367.438 Q81.2929 365.378 81.2929 362.415 Q81.2929 358.272 84.2327 355.864 Q87.1956 353.457 92.3345 353.457 Q97.4965 353.457 100.436 355.864 Q103.376 358.272 103.376 362.415 Q103.376 365.378 101.686 367.438 Q100.02 369.499 97.0335 370.239 Q100.413 371.026 102.288 373.318 Q104.186 375.61 104.186 378.92 Q104.186 383.943 101.108 386.628 Q98.0521 389.313 92.3345 389.313 Q86.6169 389.313 83.5382 386.628 Q80.4827 383.943 80.4827 378.92 Q80.4827 375.61 82.3808 373.318 Q84.279 371.026 87.6586 370.239 M85.9456 362.855 Q85.9456 365.54 87.6123 367.045 Q89.3021 368.549 92.3345 368.549 Q95.3437 368.549 97.0335 367.045 Q98.7465 365.54 98.7465 362.855 Q98.7465 360.17 97.0335 358.665 Q95.3437 357.161 92.3345 357.161 Q89.3021 357.161 87.6123 358.665 Q85.9456 360.17 85.9456 362.855 Z" fill="#000000" fill-rule="nonzero" fill-opacity="1" /><path clip-path="url(#clip880)" d="M122.496 357.161 Q118.885 357.161 117.057 360.725 Q115.251 364.267 115.251 371.397 Q115.251 378.503 117.057 382.068 Q118.885 385.61 122.496 385.61 Q126.131 385.61 127.936 382.068 Q129.765 378.503 129.765 371.397 Q129.765 364.267 127.936 360.725 Q126.131 357.161 122.496 357.161 M122.496 353.457 Q128.307 353.457 131.362 358.063 Q134.441 362.647 134.441 371.397 Q134.441 380.123 131.362 384.73 Q128.307 389.313 122.496 389.313 Q116.686 389.313 113.608 384.73 Q110.552 380.123 110.552 371.397 Q110.552 362.647 113.608 358.063 Q116.686 353.457 122.496 353.457 Z" fill="#000000" fill-rule="nonzero" fill-opacity="1" /><path clip-path="url(#clip880)" d="M152.658 357.161 Q149.047 357.161 147.218 360.725 Q145.413 364.267 145.413 371.397 Q145.413 378.503 147.218 382.068 Q149.047 385.61 152.658 385.61 Q156.292 385.61 158.098 382.068 Q159.927 378.503 159.927 371.397 Q159.927 364.267 158.098 360.725 Q156.292 357.161 152.658 357.161 M152.658 353.457 Q158.468 353.457 161.524 358.063 Q164.603 362.647 164.603 371.397 Q164.603 380.123 161.524 384.73 Q158.468 389.313 152.658 389.313 Q146.848 389.313 143.769 384.73 Q140.714 380.123 140.714 371.397 Q140.714 362.647 143.769 358.063 Q146.848 353.457 152.658 353.457 Z" fill="#000000" fill-rule="nonzero" fill-opacity="1" /><path clip-path="url(#clip880)" d="M182.82 357.161 Q179.209 357.161 177.38 360.725 Q175.575 364.267 175.575 371.397 Q175.575 378.503 177.38 382.068 Q179.209 385.61 182.82 385.61 Q186.454 385.61 188.26 382.068 Q190.089 378.503 190.089 371.397 Q190.089 364.267 188.26 360.725 Q186.454 357.161 182.82 357.161 M182.82 353.457 Q188.63 353.457 191.686 358.063 Q194.765 362.647 194.765 371.397 Q194.765 380.123 191.686 384.73 Q188.63 389.313 182.82 389.313 Q177.01 389.313 173.931 384.73 Q170.876 380.123 170.876 371.397 Q170.876 362.647 173.931 358.063 Q177.01 353.457 182.82 353.457 Z" fill="#000000" fill-rule="nonzero" fill-opacity="1" /><path clip-path="url(#clip880)" d="M1262.23 35.2602 Q1262.23 29.4732 1259.83 26.2904 Q1257.46 23.1075 1253.15 23.1075 Q1248.86 23.1075 1246.46 26.2904 Q1244.09 29.4732 1244.09 35.2602 Q1244.09 41.0183 1246.46 44.2012 Q1248.86 47.384 1253.15 47.384 Q1257.46 47.384 1259.83 44.2012 Q1262.23 41.0183 1262.23 35.2602 M1267.56 47.818 Q1267.56 56.0934 1263.88 60.1154 Q1260.21 64.1663 1252.63 64.1663 Q1249.82 64.1663 1247.33 63.7323 Q1244.84 63.3272 1242.5 62.4592 L1242.5 57.2798 Q1244.84 58.5529 1247.13 59.1606 Q1249.41 59.7682 1251.79 59.7682 Q1257.02 59.7682 1259.63 57.0194 Q1262.23 54.2995 1262.23 48.7729 L1262.23 46.1398 Q1260.58 49.0044 1258.01 50.4222 Q1255.43 51.84 1251.84 51.84 Q1245.88 51.84 1242.24 47.2972 Q1238.59 42.7544 1238.59 35.2602 Q1238.59 27.7371 1242.24 23.1943 Q1245.88 18.6515 1251.84 18.6515 Q1255.43 18.6515 1258.01 20.0693 Q1260.58 21.4872 1262.23 24.3517 L1262.23 19.4328 L1267.56 19.4328 L1267.56 47.818 Z" fill="#000000" fill-rule="nonzero" fill-opacity="1" /><path clip-path="url(#clip880)" d="M1299.85 24.3517 L1299.85 6.81709 L1305.17 6.81709 L1305.17 51.84 L1299.85 51.84 L1299.85 46.9789 Q1298.17 49.8724 1295.59 51.2902 Q1293.05 52.6791 1289.46 52.6791 Q1283.59 52.6791 1279.88 47.9916 Q1276.21 43.3042 1276.21 35.6653 Q1276.21 28.0265 1279.88 23.339 Q1283.59 18.6515 1289.46 18.6515 Q1293.05 18.6515 1295.59 20.0693 Q1298.17 21.4582 1299.85 24.3517 M1281.71 35.6653 Q1281.71 41.5391 1284.11 44.8956 Q1286.54 48.2231 1290.76 48.2231 Q1294.99 48.2231 1297.42 44.8956 Q1299.85 41.5391 1299.85 35.6653 Q1299.85 29.7915 1297.42 26.464 Q1294.99 23.1075 1290.76 23.1075 Q1286.54 23.1075 1284.11 26.464 Q1281.71 29.7915 1281.71 35.6653 Z" fill="#000000" fill-rule="nonzero" fill-opacity="1" /><path clip-path="url(#clip880)" d="M1321.29 46.9789 L1321.29 64.1663 L1315.94 64.1663 L1315.94 19.4328 L1321.29 19.4328 L1321.29 24.3517 Q1322.97 21.4582 1325.51 20.0693 Q1328.09 18.6515 1331.65 18.6515 Q1337.55 18.6515 1341.22 23.339 Q1344.93 28.0265 1344.93 35.6653 Q1344.93 43.3042 1341.22 47.9916 Q1337.55 52.6791 1331.65 52.6791 Q1328.09 52.6791 1325.51 51.2902 Q1322.97 49.8724 1321.29 46.9789 M1339.4 35.6653 Q1339.4 29.7915 1336.97 26.464 Q1334.57 23.1075 1330.35 23.1075 Q1326.12 23.1075 1323.69 26.464 Q1321.29 29.7915 1321.29 35.6653 Q1321.29 41.5391 1323.69 44.8956 Q1326.12 48.2231 1330.35 48.2231 Q1334.57 48.2231 1336.97 44.8956 Q1339.4 41.5391 1339.4 35.6653 Z" fill="#000000" fill-rule="nonzero" fill-opacity="1" /><polyline clip-path="url(#clip882)" style="stroke:#009af9; stroke-linecap:round; stroke-linejoin:round; stroke-width:4; stroke-opacity:1; fill:none" points="290.821,1278.04 415.938,1447.38 541.056,1342.12 666.173,1260.38 791.291,1141.85 916.408,1024.38 1041.53,1050.87 1166.64,1015.7 1291.76,858.897 1416.88,636.352 1542,441.52 1667.11,481.951 1792.23,433.598 1917.35,351.584 2042.46,205.62 2167.58,239.103 2292.7,145.256 "/>
<path clip-path="url(#clip880)" d="M301.498 255.881 L566.127 255.881 L566.127 152.201 L301.498 152.201  Z" fill="#ffffff" fill-rule="evenodd" fill-opacity="1"/>
<polyline clip-path="url(#clip880)" style="stroke:#000000; stroke-linecap:round; stroke-linejoin:round; stroke-width:4; stroke-opacity:1; fill:none" points="301.498,255.881 566.127,255.881 566.127,152.201 301.498,152.201 301.498,255.881 "/>
<polyline clip-path="url(#clip880)" style="stroke:#009af9; stroke-linecap:round; stroke-linejoin:round; stroke-width:4; stroke-opacity:1; fill:none" points="325.075,204.041 466.541,204.041 "/>
<path clip-path="url(#clip880)" d="M503.962 223.728 Q502.156 228.358 500.443 229.77 Q498.73 231.182 495.86 231.182 L492.457 231.182 L492.457 227.617 L494.957 227.617 Q496.716 227.617 497.688 226.784 Q498.661 225.95 499.841 222.848 L500.605 220.904 L490.119 195.395 L494.633 195.395 L502.735 215.673 L510.836 195.395 L515.35 195.395 L503.962 223.728 Z" fill="#000000" fill-rule="nonzero" fill-opacity="1" /><path clip-path="url(#clip880)" d="M522.642 217.385 L530.281 217.385 L530.281 191.02 L521.971 192.687 L521.971 188.427 L530.235 186.761 L534.91 186.761 L534.91 217.385 L542.549 217.385 L542.549 221.321 L522.642 221.321 L522.642 217.385 Z" fill="#000000" fill-rule="nonzero" fill-opacity="1" /></svg>
