<?xml version="1.0" encoding="utf-8"?>
<svg xmlns="http://www.w3.org/2000/svg" xmlns:xlink="http://www.w3.org/1999/xlink" width="600" height="400" viewBox="0 0 2400 1600">
<defs>
  <clipPath id="clip590">
    <rect x="0" y="0" width="2400" height="1600"/>
  </clipPath>
</defs>
<path clip-path="url(#clip590)" d="M0 1600 L2400 1600 L2400 0 L0 0  Z" fill="#ffffff" fill-rule="evenodd" fill-opacity="1"/>
<defs>
  <clipPath id="clip591">
    <rect x="480" y="0" width="1681" height="1600"/>
  </clipPath>
</defs>
<path clip-path="url(#clip590)" d="M200.88 1486.45 L2352.76 1486.45 L2352.76 47.2441 L200.88 47.2441  Z" fill="#ffffff" fill-rule="evenodd" fill-opacity="1"/>
<defs>
  <clipPath id="clip592">
    <rect x="200" y="47" width="2153" height="1440"/>
  </clipPath>
</defs>
<polyline clip-path="url(#clip592)" style="stroke:#000000; stroke-linecap:round; stroke-linejoin:round; stroke-width:2; stroke-opacity:0.1; fill:none" points="667.797,1486.45 667.797,47.2441 "/>
<polyline clip-path="url(#clip592)" style="stroke:#000000; stroke-linecap:round; stroke-linejoin:round; stroke-width:2; stroke-opacity:0.1; fill:none" points="1175.31,1486.45 1175.31,47.2441 "/>
<polyline clip-path="url(#clip592)" style="stroke:#000000; stroke-linecap:round; stroke-linejoin:round; stroke-width:2; stroke-opacity:0.1; fill:none" points="1682.83,1486.45 1682.83,47.2441 "/>
<polyline clip-path="url(#clip592)" style="stroke:#000000; stroke-linecap:round; stroke-linejoin:round; stroke-width:2; stroke-opacity:0.1; fill:none" points="2190.35,1486.45 2190.35,47.2441 "/>
<polyline clip-path="url(#clip592)" style="stroke:#000000; stroke-linecap:round; stroke-linejoin:round; stroke-width:2; stroke-opacity:0.1; fill:none" points="200.88,1268.07 2352.76,1268.07 "/>
<polyline clip-path="url(#clip592)" style="stroke:#000000; stroke-linecap:round; stroke-linejoin:round; stroke-width:2; stroke-opacity:0.1; fill:none" points="200.88,1014.28 2352.76,1014.28 "/>
<polyline clip-path="url(#clip592)" style="stroke:#000000; stroke-linecap:round; stroke-linejoin:round; stroke-width:2; stroke-opacity:0.1; fill:none" points="200.88,760.501 2352.76,760.501 "/>
<polyline clip-path="url(#clip592)" style="stroke:#000000; stroke-linecap:round; stroke-linejoin:round; stroke-width:2; stroke-opacity:0.1; fill:none" points="200.88,506.718 2352.76,506.718 "/>
<polyline clip-path="url(#clip592)" style="stroke:#000000; stroke-linecap:round; stroke-linejoin:round; stroke-width:2; stroke-opacity:0.1; fill:none" points="200.88,252.935 2352.76,252.935 "/>
<polyline clip-path="url(#clip590)" style="stroke:#000000; stroke-linecap:round; stroke-linejoin:round; stroke-width:4; stroke-opacity:1; fill:none" points="200.88,1486.45 2352.76,1486.45 "/>
<polyline clip-path="url(#clip590)" style="stroke:#000000; stroke-linecap:round; stroke-linejoin:round; stroke-width:4; stroke-opacity:1; fill:none" points="667.797,1486.45 667.797,1467.55 "/>
<polyline clip-path="url(#clip590)" style="stroke:#000000; stroke-linecap:round; stroke-linejoin:round; stroke-width:4; stroke-opacity:1; fill:none" points="1175.31,1486.45 1175.31,1467.55 "/>
<polyline clip-path="url(#clip590)" style="stroke:#000000; stroke-linecap:round; stroke-linejoin:round; stroke-width:4; stroke-opacity:1; fill:none" points="1682.83,1486.45 1682.83,1467.55 "/>
<polyline clip-path="url(#clip590)" style="stroke:#000000; stroke-linecap:round; stroke-linejoin:round; stroke-width:4; stroke-opacity:1; fill:none" points="2190.35,1486.45 2190.35,1467.55 "/>
<path clip-path="url(#clip590)" d="M658.075 1514.29 L676.431 1514.29 L676.431 1518.22 L662.357 1518.22 L662.357 1526.7 Q663.376 1526.35 664.394 1526.19 Q665.413 1526 666.431 1526 Q672.218 1526 675.598 1529.17 Q678.977 1532.34 678.977 1537.76 Q678.977 1543.34 675.505 1546.44 Q672.033 1549.52 665.713 1549.52 Q663.538 1549.52 661.269 1549.15 Q659.024 1548.78 656.616 1548.04 L656.616 1543.34 Q658.7 1544.47 660.922 1545.03 Q663.144 1545.58 665.621 1545.58 Q669.625 1545.58 671.963 1543.48 Q674.301 1541.37 674.301 1537.76 Q674.301 1534.15 671.963 1532.04 Q669.625 1529.94 665.621 1529.94 Q663.746 1529.94 661.871 1530.35 Q660.019 1530.77 658.075 1531.65 L658.075 1514.29 Z" fill="#000000" fill-rule="nonzero" fill-opacity="1" /><path clip-path="url(#clip590)" d="M1150 1544.91 L1157.64 1544.91 L1157.64 1518.55 L1149.33 1520.21 L1149.33 1515.95 L1157.59 1514.29 L1162.27 1514.29 L1162.27 1544.91 L1169.91 1544.91 L1169.91 1548.85 L1150 1548.85 L1150 1544.91 Z" fill="#000000" fill-rule="nonzero" fill-opacity="1" /><path clip-path="url(#clip590)" d="M1189.35 1517.37 Q1185.74 1517.37 1183.91 1520.93 Q1182.11 1524.47 1182.11 1531.6 Q1182.11 1538.71 1183.91 1542.27 Q1185.74 1545.82 1189.35 1545.82 Q1192.99 1545.82 1194.79 1542.27 Q1196.62 1538.71 1196.62 1531.6 Q1196.62 1524.47 1194.79 1520.93 Q1192.99 1517.37 1189.35 1517.37 M1189.35 1513.66 Q1195.16 1513.66 1198.22 1518.27 Q1201.3 1522.85 1201.3 1531.6 Q1201.3 1540.33 1198.22 1544.94 Q1195.16 1549.52 1189.35 1549.52 Q1183.54 1549.52 1180.47 1544.94 Q1177.41 1540.33 1177.41 1531.6 Q1177.41 1522.85 1180.47 1518.27 Q1183.54 1513.66 1189.35 1513.66 Z" fill="#000000" fill-rule="nonzero" fill-opacity="1" /><path clip-path="url(#clip590)" d="M1658.02 1544.91 L1665.66 1544.91 L1665.66 1518.55 L1657.35 1520.21 L1657.35 1515.95 L1665.61 1514.29 L1670.29 1514.29 L1670.29 1544.91 L1677.93 1544.91 L1677.93 1548.85 L1658.02 1548.85 L1658.02 1544.91 Z" fill="#000000" fill-rule="nonzero" fill-opacity="1" /><path clip-path="url(#clip590)" d="M1687.42 1514.29 L1705.77 1514.29 L1705.77 1518.22 L1691.7 1518.22 L1691.7 1526.7 Q1692.72 1526.35 1693.74 1526.19 Q1694.75 1526 1695.77 1526 Q1701.56 1526 1704.94 1529.17 Q1708.32 1532.34 1708.32 1537.76 Q1708.32 1543.34 1704.85 1546.44 Q1701.37 1549.52 1695.05 1549.52 Q1692.88 1549.52 1690.61 1549.15 Q1688.36 1548.78 1685.96 1548.04 L1685.96 1543.34 Q1688.04 1544.47 1690.26 1545.03 Q1692.49 1545.58 1694.96 1545.58 Q1698.97 1545.58 1701.3 1543.48 Q1703.64 1541.37 1703.64 1537.76 Q1703.64 1534.15 1701.3 1532.04 Q1698.97 1529.94 1694.96 1529.94 Q1693.09 1529.94 1691.21 1530.35 Q1689.36 1530.77 1687.42 1531.65 L1687.42 1514.29 Z" fill="#000000" fill-rule="nonzero" fill-opacity="1" /><path clip-path="url(#clip590)" d="M2169.12 1544.91 L2185.44 1544.91 L2185.44 1548.85 L2163.5 1548.85 L2163.5 1544.91 Q2166.16 1542.16 2170.74 1537.53 Q2175.35 1532.88 2176.53 1531.53 Q2178.78 1529.01 2179.66 1527.27 Q2180.56 1525.51 2180.56 1523.82 Q2180.56 1521.07 2178.61 1519.33 Q2176.69 1517.6 2173.59 1517.6 Q2171.39 1517.6 2168.94 1518.36 Q2166.51 1519.13 2163.73 1520.68 L2163.73 1515.95 Q2166.55 1514.82 2169.01 1514.24 Q2171.46 1513.66 2173.5 1513.66 Q2178.87 1513.66 2182.06 1516.35 Q2185.26 1519.03 2185.26 1523.52 Q2185.26 1525.65 2184.45 1527.57 Q2183.66 1529.47 2181.55 1532.07 Q2180.98 1532.74 2177.87 1535.95 Q2174.77 1539.15 2169.12 1544.91 Z" fill="#000000" fill-rule="nonzero" fill-opacity="1" /><path clip-path="url(#clip590)" d="M2205.26 1517.37 Q2201.65 1517.37 2199.82 1520.93 Q2198.01 1524.47 2198.01 1531.6 Q2198.01 1538.71 2199.82 1542.27 Q2201.65 1545.82 2205.26 1545.82 Q2208.89 1545.82 2210.7 1542.27 Q2212.53 1538.71 2212.53 1531.6 Q2212.53 1524.47 2210.7 1520.93 Q2208.89 1517.37 2205.26 1517.37 M2205.26 1513.66 Q2211.07 1513.66 2214.12 1518.27 Q2217.2 1522.85 2217.2 1531.6 Q2217.2 1540.33 2214.12 1544.94 Q2211.07 1549.52 2205.26 1549.52 Q2199.45 1549.52 2196.37 1544.94 Q2193.31 1540.33 2193.31 1531.6 Q2193.31 1522.85 2196.37 1518.27 Q2199.45 1513.66 2205.26 1513.66 Z" fill="#000000" fill-rule="nonzero" fill-opacity="1" /><polyline clip-path="url(#clip590)" style="stroke:#000000; stroke-linecap:round; stroke-linejoin:round; stroke-width:4; stroke-opacity:1; fill:none" points="200.88,1486.45 200.88,47.2441 "/>
<polyline clip-path="url(#clip590)" style="stroke:#000000; stroke-linecap:round; stroke-linejoin:round; stroke-width:4; stroke-opacity:1; fill:none" points="200.88,1268.07 219.778,1268.07 "/>
<polyline clip-path="url(#clip590)" style="stroke:#000000; stroke-linecap:round; stroke-linejoin:round; stroke-width:4; stroke-opacity:1; fill:none" points="200.88,1014.28 219.778,1014.28 "/>
<polyline clip-path="url(#clip590)" style="stroke:#000000; stroke-linecap:round; stroke-linejoin:round; stroke-width:4; stroke-opacity:1; fill:none" points="200.88,760.501 219.778,760.501 "/>
<polyline clip-path="url(#clip590)" style="stroke:#000000; stroke-linecap:round; stroke-linejoin:round; stroke-width:4; stroke-opacity:1; fill:none" points="200.88,506.718 219.778,506.718 "/>
<polyline clip-path="url(#clip590)" style="stroke:#000000; stroke-linecap:round; stroke-linejoin:round; stroke-width:4; stroke-opacity:1; fill:none" points="200.88,252.935 219.778,252.935 "/>
<path clip-path="url(#clip590)" d="M66.617 1266.71 Q69.9735 1267.43 71.8485 1269.7 Q73.7466 1271.97 73.7466 1275.3 Q73.7466 1280.42 70.2281 1283.22 Q66.7096 1286.02 60.2282 1286.02 Q58.0523 1286.02 55.7375 1285.58 Q53.4458 1285.16 50.9921 1284.31 L50.9921 1279.79 Q52.9366 1280.93 55.2514 1281.5 Q57.5662 1282.08 60.0893 1282.08 Q64.4874 1282.08 66.7791 1280.35 Q69.0939 1278.61 69.0939 1275.3 Q69.0939 1272.25 66.9411 1270.53 Q64.8115 1268.8 60.9921 1268.8 L56.9643 1268.8 L56.9643 1264.95 L61.1773 1264.95 Q64.6263 1264.95 66.455 1263.59 Q68.2837 1262.2 68.2837 1259.61 Q68.2837 1256.94 66.3856 1255.53 Q64.5106 1254.1 60.9921 1254.1 Q59.0708 1254.1 56.8717 1254.51 Q54.6727 1254.93 52.0338 1255.81 L52.0338 1251.64 Q54.6958 1250.9 57.0106 1250.53 Q59.3486 1250.16 61.4087 1250.16 Q66.7328 1250.16 69.8346 1252.59 Q72.9365 1255 72.9365 1259.12 Q72.9365 1261.99 71.2929 1263.98 Q69.6494 1265.95 66.617 1266.71 Z" fill="#000000" fill-rule="nonzero" fill-opacity="1" /><path clip-path="url(#clip590)" d="M92.6123 1268.94 Q89.279 1268.94 87.3577 1270.72 Q85.4595 1272.5 85.4595 1275.63 Q85.4595 1278.75 87.3577 1280.53 Q89.279 1282.32 92.6123 1282.32 Q95.9456 1282.32 97.8669 1280.53 Q99.7882 1278.73 99.7882 1275.63 Q99.7882 1272.5 97.8669 1270.72 Q95.9687 1268.94 92.6123 1268.94 M87.9364 1266.94 Q84.9271 1266.2 83.2373 1264.14 Q81.5707 1262.08 81.5707 1259.12 Q81.5707 1254.98 84.5105 1252.57 Q87.4734 1250.16 92.6123 1250.16 Q97.7743 1250.16 100.714 1252.57 Q103.654 1254.98 103.654 1259.12 Q103.654 1262.08 101.964 1264.14 Q100.297 1266.2 97.3113 1266.94 Q100.691 1267.73 102.566 1270.02 Q104.464 1272.32 104.464 1275.63 Q104.464 1280.65 101.385 1283.33 Q98.3298 1286.02 92.6123 1286.02 Q86.8947 1286.02 83.816 1283.33 Q80.7605 1280.65 80.7605 1275.63 Q80.7605 1272.32 82.6586 1270.02 Q84.5568 1267.73 87.9364 1266.94 M86.2234 1259.56 Q86.2234 1262.25 87.8901 1263.75 Q89.5799 1265.26 92.6123 1265.26 Q95.6215 1265.26 97.3113 1263.75 Q99.0243 1262.25 99.0243 1259.56 Q99.0243 1256.88 97.3113 1255.37 Q95.6215 1253.87 92.6123 1253.87 Q89.5799 1253.87 87.8901 1255.37 Q86.2234 1256.88 86.2234 1259.56 Z" fill="#000000" fill-rule="nonzero" fill-opacity="1" /><path clip-path="url(#clip590)" d="M122.774 1268.94 Q119.441 1268.94 117.52 1270.72 Q115.621 1272.5 115.621 1275.63 Q115.621 1278.75 117.52 1280.53 Q119.441 1282.32 122.774 1282.32 Q126.107 1282.32 128.029 1280.53 Q129.95 1278.73 129.95 1275.63 Q129.95 1272.5 128.029 1270.72 Q126.131 1268.94 122.774 1268.94 M118.098 1266.94 Q115.089 1266.2 113.399 1264.14 Q111.733 1262.08 111.733 1259.12 Q111.733 1254.98 114.672 1252.57 Q117.635 1250.16 122.774 1250.16 Q127.936 1250.16 130.876 1252.57 Q133.816 1254.98 133.816 1259.12 Q133.816 1262.08 132.126 1264.14 Q130.459 1266.2 127.473 1266.94 Q130.853 1267.73 132.728 1270.02 Q134.626 1272.32 134.626 1275.63 Q134.626 1280.65 131.547 1283.33 Q128.492 1286.02 122.774 1286.02 Q117.057 1286.02 113.978 1283.33 Q110.922 1280.65 110.922 1275.63 Q110.922 1272.32 112.82 1270.02 Q114.719 1267.73 118.098 1266.94 M116.385 1259.56 Q116.385 1262.25 118.052 1263.75 Q119.742 1265.26 122.774 1265.26 Q125.783 1265.26 127.473 1263.75 Q129.186 1262.25 129.186 1259.56 Q129.186 1256.88 127.473 1255.37 Q125.783 1253.87 122.774 1253.87 Q119.742 1253.87 118.052 1255.37 Q116.385 1256.88 116.385 1259.56 Z" fill="#000000" fill-rule="nonzero" fill-opacity="1" /><path clip-path="url(#clip590)" d="M152.936 1253.87 Q149.325 1253.87 147.496 1257.43 Q145.691 1260.97 145.691 1268.1 Q145.691 1275.21 147.496 1278.77 Q149.325 1282.32 152.936 1282.32 Q156.57 1282.32 158.376 1278.77 Q160.205 1275.21 160.205 1268.1 Q160.205 1260.97 158.376 1257.43 Q156.57 1253.87 152.936 1253.87 M152.936 1250.16 Q158.746 1250.16 161.802 1254.77 Q164.88 1259.35 164.88 1268.1 Q164.88 1276.83 161.802 1281.44 Q158.746 1286.02 152.936 1286.02 Q147.126 1286.02 144.047 1281.44 Q140.992 1276.83 140.992 1268.1 Q140.992 1259.35 144.047 1254.77 Q147.126 1250.16 152.936 1250.16 Z" fill="#000000" fill-rule="nonzero" fill-opacity="1" /><path clip-path="url(#clip590)" d="M66.617 1012.93 Q69.9735 1013.65 71.8485 1015.92 Q73.7466 1018.18 73.7466 1021.52 Q73.7466 1026.63 70.2281 1029.43 Q66.7096 1032.24 60.2282 1032.24 Q58.0523 1032.24 55.7375 1031.8 Q53.4458 1031.38 50.9921 1030.52 L50.9921 1026.01 Q52.9366 1027.14 55.2514 1027.72 Q57.5662 1028.3 60.0893 1028.3 Q64.4874 1028.3 66.7791 1026.56 Q69.0939 1024.83 69.0939 1021.52 Q69.0939 1018.46 66.9411 1016.75 Q64.8115 1015.01 60.9921 1015.01 L56.9643 1015.01 L56.9643 1011.17 L61.1773 1011.17 Q64.6263 1011.17 66.455 1009.81 Q68.2837 1008.42 68.2837 1005.82 Q68.2837 1003.16 66.3856 1001.75 Q64.5106 1000.31 60.9921 1000.31 Q59.0708 1000.31 56.8717 1000.73 Q54.6727 1001.15 52.0338 1002.03 L52.0338 997.861 Q54.6958 997.12 57.0106 996.75 Q59.3486 996.379 61.4087 996.379 Q66.7328 996.379 69.8346 998.81 Q72.9365 1001.22 72.9365 1005.34 Q72.9365 1008.21 71.2929 1010.2 Q69.6494 1012.17 66.617 1012.93 Z" fill="#000000" fill-rule="nonzero" fill-opacity="1" /><path clip-path="url(#clip590)" d="M82.7512 1030.85 L82.7512 1026.59 Q84.5105 1027.42 86.316 1027.86 Q88.1216 1028.3 89.8577 1028.3 Q94.4873 1028.3 96.9178 1025.2 Q99.3715 1022.07 99.7187 1015.73 Q98.3761 1017.72 96.316 1018.79 Q94.2558 1019.85 91.7558 1019.85 Q86.5706 1019.85 83.5382 1016.73 Q80.529 1013.58 80.529 1008.14 Q80.529 1002.81 83.6771 999.597 Q86.8253 996.379 92.0567 996.379 Q98.0521 996.379 101.2 1000.99 Q104.371 1005.57 104.371 1014.32 Q104.371 1022.49 100.483 1027.37 Q96.6169 1032.24 90.066 1032.24 Q88.3067 1032.24 86.5012 1031.89 Q84.6956 1031.54 82.7512 1030.85 M92.0567 1016.19 Q95.2049 1016.19 97.0335 1014.04 Q98.8854 1011.89 98.8854 1008.14 Q98.8854 1004.41 97.0335 1002.26 Q95.2049 1000.08 92.0567 1000.08 Q88.9086 1000.08 87.0567 1002.26 Q85.2281 1004.41 85.2281 1008.14 Q85.2281 1011.89 87.0567 1014.04 Q88.9086 1016.19 92.0567 1016.19 Z" fill="#000000" fill-rule="nonzero" fill-opacity="1" /><path clip-path="url(#clip590)" d="M122.774 1000.08 Q119.163 1000.08 117.334 1003.65 Q115.529 1007.19 115.529 1014.32 Q115.529 1021.43 117.334 1024.99 Q119.163 1028.53 122.774 1028.53 Q126.408 1028.53 128.214 1024.99 Q130.043 1021.43 130.043 1014.32 Q130.043 1007.19 128.214 1003.65 Q126.408 1000.08 122.774 1000.08 M122.774 996.379 Q128.584 996.379 131.64 1000.99 Q134.719 1005.57 134.719 1014.32 Q134.719 1023.05 131.64 1027.65 Q128.584 1032.24 122.774 1032.24 Q116.964 1032.24 113.885 1027.65 Q110.83 1023.05 110.83 1014.32 Q110.83 1005.57 113.885 1000.99 Q116.964 996.379 122.774 996.379 Z" fill="#000000" fill-rule="nonzero" fill-opacity="1" /><path clip-path="url(#clip590)" d="M152.936 1000.08 Q149.325 1000.08 147.496 1003.65 Q145.691 1007.19 145.691 1014.32 Q145.691 1021.43 147.496 1024.99 Q149.325 1028.53 152.936 1028.53 Q156.57 1028.53 158.376 1024.99 Q160.205 1021.43 160.205 1014.32 Q160.205 1007.19 158.376 1003.65 Q156.57 1000.08 152.936 1000.08 M152.936 996.379 Q158.746 996.379 161.802 1000.99 Q164.88 1005.57 164.88 1014.32 Q164.88 1023.05 161.802 1027.65 Q158.746 1032.24 152.936 1032.24 Q147.126 1032.24 144.047 1027.65 Q140.992 1023.05 140.992 1014.32 Q140.992 1005.57 144.047 1000.99 Q147.126 996.379 152.936 996.379 Z" fill="#000000" fill-rule="nonzero" fill-opacity="1" /><path clip-path="url(#clip590)" d="M66.617 759.147 Q69.9735 759.865 71.8485 762.133 Q73.7466 764.402 73.7466 767.735 Q73.7466 772.851 70.2281 775.652 Q66.7096 778.453 60.2282 778.453 Q58.0523 778.453 55.7375 778.013 Q53.4458 777.596 50.9921 776.74 L50.9921 772.226 Q52.9366 773.36 55.2514 773.939 Q57.5662 774.518 60.0893 774.518 Q64.4874 774.518 66.7791 772.781 Q69.0939 771.045 69.0939 767.735 Q69.0939 764.68 66.9411 762.967 Q64.8115 761.231 60.9921 761.231 L56.9643 761.231 L56.9643 757.388 L61.1773 757.388 Q64.6263 757.388 66.455 756.022 Q68.2837 754.633 68.2837 752.041 Q68.2837 749.379 66.3856 747.967 Q64.5106 746.532 60.9921 746.532 Q59.0708 746.532 56.8717 746.948 Q54.6727 747.365 52.0338 748.245 L52.0338 744.078 Q54.6958 743.337 57.0106 742.967 Q59.3486 742.596 61.4087 742.596 Q66.7328 742.596 69.8346 745.027 Q72.9365 747.434 72.9365 751.555 Q72.9365 754.425 71.2929 756.416 Q69.6494 758.383 66.617 759.147 Z" fill="#000000" fill-rule="nonzero" fill-opacity="1" /><path clip-path="url(#clip590)" d="M82.7512 777.064 L82.7512 772.805 Q84.5105 773.638 86.316 774.078 Q88.1216 774.518 89.8577 774.518 Q94.4873 774.518 96.9178 771.416 Q99.3715 768.291 99.7187 761.948 Q98.3761 763.939 96.316 765.004 Q94.2558 766.069 91.7558 766.069 Q86.5706 766.069 83.5382 762.944 Q80.529 759.795 80.529 754.356 Q80.529 749.032 83.6771 745.814 Q86.8253 742.596 92.0567 742.596 Q98.0521 742.596 101.2 747.203 Q104.371 751.786 104.371 760.536 Q104.371 768.707 100.483 773.592 Q96.6169 778.453 90.066 778.453 Q88.3067 778.453 86.5012 778.105 Q84.6956 777.758 82.7512 777.064 M92.0567 762.411 Q95.2049 762.411 97.0335 760.258 Q98.8854 758.106 98.8854 754.356 Q98.8854 750.629 97.0335 748.476 Q95.2049 746.3 92.0567 746.3 Q88.9086 746.3 87.0567 748.476 Q85.2281 750.629 85.2281 754.356 Q85.2281 758.106 87.0567 760.258 Q88.9086 762.411 92.0567 762.411 Z" fill="#000000" fill-rule="nonzero" fill-opacity="1" /><path clip-path="url(#clip590)" d="M116.802 773.846 L133.121 773.846 L133.121 777.781 L111.177 777.781 L111.177 773.846 Q113.839 771.092 118.422 766.462 Q123.029 761.809 124.209 760.467 Q126.455 757.944 127.334 756.207 Q128.237 754.448 128.237 752.758 Q128.237 750.004 126.293 748.268 Q124.371 746.532 121.27 746.532 Q119.07 746.532 116.617 747.295 Q114.186 748.059 111.408 749.61 L111.408 744.888 Q114.233 743.754 116.686 743.175 Q119.14 742.596 121.177 742.596 Q126.547 742.596 129.742 745.282 Q132.936 747.967 132.936 752.457 Q132.936 754.587 132.126 756.508 Q131.339 758.407 129.232 760.999 Q128.654 761.67 125.552 764.888 Q122.45 768.082 116.802 773.846 Z" fill="#000000" fill-rule="nonzero" fill-opacity="1" /><path clip-path="url(#clip590)" d="M152.936 746.3 Q149.325 746.3 147.496 749.865 Q145.691 753.407 145.691 760.536 Q145.691 767.643 147.496 771.207 Q149.325 774.749 152.936 774.749 Q156.57 774.749 158.376 771.207 Q160.205 767.643 160.205 760.536 Q160.205 753.407 158.376 749.865 Q156.57 746.3 152.936 746.3 M152.936 742.596 Q158.746 742.596 161.802 747.203 Q164.88 751.786 164.88 760.536 Q164.88 769.263 161.802 773.869 Q158.746 778.453 152.936 778.453 Q147.126 778.453 144.047 773.869 Q140.992 769.263 140.992 760.536 Q140.992 751.786 144.047 747.203 Q147.126 742.596 152.936 742.596 Z" fill="#000000" fill-rule="nonzero" fill-opacity="1" /><path clip-path="url(#clip590)" d="M66.617 505.364 Q69.9735 506.082 71.8485 508.35 Q73.7466 510.619 73.7466 513.952 Q73.7466 519.068 70.2281 521.869 Q66.7096 524.67 60.2282 524.67 Q58.0523 524.67 55.7375 524.23 Q53.4458 523.813 50.9921 522.957 L50.9921 518.443 Q52.9366 519.577 55.2514 520.156 Q57.5662 520.734 60.0893 520.734 Q64.4874 520.734 66.7791 518.998 Q69.0939 517.262 69.0939 513.952 Q69.0939 510.897 66.9411 509.184 Q64.8115 507.448 60.9921 507.448 L56.9643 507.448 L56.9643 503.605 L61.1773 503.605 Q64.6263 503.605 66.455 502.239 Q68.2837 500.85 68.2837 498.258 Q68.2837 495.596 66.3856 494.184 Q64.5106 492.749 60.9921 492.749 Q59.0708 492.749 56.8717 493.165 Q54.6727 493.582 52.0338 494.461 L52.0338 490.295 Q54.6958 489.554 57.0106 489.184 Q59.3486 488.813 61.4087 488.813 Q66.7328 488.813 69.8346 491.244 Q72.9365 493.651 72.9365 497.772 Q72.9365 500.642 71.2929 502.633 Q69.6494 504.6 66.617 505.364 Z" fill="#000000" fill-rule="nonzero" fill-opacity="1" /><path clip-path="url(#clip590)" d="M82.7512 523.281 L82.7512 519.022 Q84.5105 519.855 86.316 520.295 Q88.1216 520.734 89.8577 520.734 Q94.4873 520.734 96.9178 517.633 Q99.3715 514.508 99.7187 508.165 Q98.3761 510.156 96.316 511.221 Q94.2558 512.285 91.7558 512.285 Q86.5706 512.285 83.5382 509.16 Q80.529 506.012 80.529 500.573 Q80.529 495.248 83.6771 492.031 Q86.8253 488.813 92.0567 488.813 Q98.0521 488.813 101.2 493.42 Q104.371 498.003 104.371 506.753 Q104.371 514.924 100.483 519.809 Q96.6169 524.67 90.066 524.67 Q88.3067 524.67 86.5012 524.322 Q84.6956 523.975 82.7512 523.281 M92.0567 508.628 Q95.2049 508.628 97.0335 506.475 Q98.8854 504.323 98.8854 500.573 Q98.8854 496.846 97.0335 494.693 Q95.2049 492.517 92.0567 492.517 Q88.9086 492.517 87.0567 494.693 Q85.2281 496.846 85.2281 500.573 Q85.2281 504.323 87.0567 506.475 Q88.9086 508.628 92.0567 508.628 Z" fill="#000000" fill-rule="nonzero" fill-opacity="1" /><path clip-path="url(#clip590)" d="M125.621 493.512 L113.816 511.961 L125.621 511.961 L125.621 493.512 M124.395 489.438 L130.274 489.438 L130.274 511.961 L135.205 511.961 L135.205 515.85 L130.274 515.85 L130.274 523.998 L125.621 523.998 L125.621 515.85 L110.02 515.85 L110.02 511.336 L124.395 489.438 Z" fill="#000000" fill-rule="nonzero" fill-opacity="1" /><path clip-path="url(#clip590)" d="M152.936 492.517 Q149.325 492.517 147.496 496.082 Q145.691 499.623 145.691 506.753 Q145.691 513.86 147.496 517.424 Q149.325 520.966 152.936 520.966 Q156.57 520.966 158.376 517.424 Q160.205 513.86 160.205 506.753 Q160.205 499.623 158.376 496.082 Q156.57 492.517 152.936 492.517 M152.936 488.813 Q158.746 488.813 161.802 493.42 Q164.88 498.003 164.88 506.753 Q164.88 515.48 161.802 520.086 Q158.746 524.67 152.936 524.67 Q147.126 524.67 144.047 520.086 Q140.992 515.48 140.992 506.753 Q140.992 498.003 144.047 493.42 Q147.126 488.813 152.936 488.813 Z" fill="#000000" fill-rule="nonzero" fill-opacity="1" /><path clip-path="url(#clip590)" d="M66.617 251.581 Q69.9735 252.299 71.8485 254.567 Q73.7466 256.836 73.7466 260.169 Q73.7466 265.285 70.2281 268.086 Q66.7096 270.887 60.2282 270.887 Q58.0523 270.887 55.7375 270.447 Q53.4458 270.03 50.9921 269.174 L50.9921 264.66 Q52.9366 265.794 55.2514 266.373 Q57.5662 266.951 60.0893 266.951 Q64.4874 266.951 66.7791 265.215 Q69.0939 263.479 69.0939 260.169 Q69.0939 257.113 66.9411 255.401 Q64.8115 253.664 60.9921 253.664 L56.9643 253.664 L56.9643 249.822 L61.1773 249.822 Q64.6263 249.822 66.455 248.456 Q68.2837 247.067 68.2837 244.475 Q68.2837 241.813 66.3856 240.401 Q64.5106 238.965 60.9921 238.965 Q59.0708 238.965 56.8717 239.382 Q54.6727 239.799 52.0338 240.678 L52.0338 236.512 Q54.6958 235.771 57.0106 235.401 Q59.3486 235.03 61.4087 235.03 Q66.7328 235.03 69.8346 237.461 Q72.9365 239.868 72.9365 243.989 Q72.9365 246.859 71.2929 248.85 Q69.6494 250.817 66.617 251.581 Z" fill="#000000" fill-rule="nonzero" fill-opacity="1" /><path clip-path="url(#clip590)" d="M82.7512 269.498 L82.7512 265.238 Q84.5105 266.072 86.316 266.512 Q88.1216 266.951 89.8577 266.951 Q94.4873 266.951 96.9178 263.85 Q99.3715 260.725 99.7187 254.382 Q98.3761 256.373 96.316 257.438 Q94.2558 258.502 91.7558 258.502 Q86.5706 258.502 83.5382 255.377 Q80.529 252.229 80.529 246.789 Q80.529 241.465 83.6771 238.248 Q86.8253 235.03 92.0567 235.03 Q98.0521 235.03 101.2 239.637 Q104.371 244.22 104.371 252.97 Q104.371 261.141 100.483 266.025 Q96.6169 270.887 90.066 270.887 Q88.3067 270.887 86.5012 270.539 Q84.6956 270.192 82.7512 269.498 M92.0567 254.845 Q95.2049 254.845 97.0335 252.692 Q98.8854 250.539 98.8854 246.789 Q98.8854 243.063 97.0335 240.91 Q95.2049 238.734 92.0567 238.734 Q88.9086 238.734 87.0567 240.91 Q85.2281 243.063 85.2281 246.789 Q85.2281 250.539 87.0567 252.692 Q88.9086 254.845 92.0567 254.845 Z" fill="#000000" fill-rule="nonzero" fill-opacity="1" /><path clip-path="url(#clip590)" d="M123.353 251.072 Q120.205 251.072 118.353 253.225 Q116.524 255.377 116.524 259.127 Q116.524 262.854 118.353 265.03 Q120.205 267.183 123.353 267.183 Q126.501 267.183 128.33 265.03 Q130.182 262.854 130.182 259.127 Q130.182 255.377 128.33 253.225 Q126.501 251.072 123.353 251.072 M132.635 236.419 L132.635 240.678 Q130.876 239.845 129.07 239.405 Q127.288 238.965 125.529 238.965 Q120.899 238.965 118.445 242.09 Q116.015 245.215 115.668 251.535 Q117.033 249.521 119.094 248.456 Q121.154 247.368 123.631 247.368 Q128.839 247.368 131.848 250.539 Q134.881 253.688 134.881 259.127 Q134.881 264.451 131.732 267.669 Q128.584 270.887 123.353 270.887 Q117.358 270.887 114.186 266.303 Q111.015 261.697 111.015 252.97 Q111.015 244.776 114.904 239.915 Q118.793 235.03 125.344 235.03 Q127.103 235.03 128.885 235.377 Q130.691 235.725 132.635 236.419 Z" fill="#000000" fill-rule="nonzero" fill-opacity="1" /><path clip-path="url(#clip590)" d="M152.936 238.734 Q149.325 238.734 147.496 242.299 Q145.691 245.84 145.691 252.97 Q145.691 260.076 147.496 263.641 Q149.325 267.183 152.936 267.183 Q156.57 267.183 158.376 263.641 Q160.205 260.076 160.205 252.97 Q160.205 245.84 158.376 242.299 Q156.57 238.734 152.936 238.734 M152.936 235.03 Q158.746 235.03 161.802 239.637 Q164.88 244.22 164.88 252.97 Q164.88 261.697 161.802 266.303 Q158.746 270.887 152.936 270.887 Q147.126 270.887 144.047 266.303 Q140.992 261.697 140.992 252.97 Q140.992 244.22 144.047 239.637 Q147.126 235.03 152.936 235.03 Z" fill="#000000" fill-rule="nonzero" fill-opacity="1" /><polyline clip-path="url(#clip592)" style="stroke:#009af9; stroke-linecap:round; stroke-linejoin:round; stroke-width:4; stroke-opacity:1; fill:none" points="261.783,1445.72 363.286,1445.72 464.79,1344.2 566.293,1318.82 667.797,1204.62 769.3,1306.14 870.804,1433.03 972.307,1255.38 1073.81,1356.89 1175.31,1052.35 1276.82,747.812 1378.32,455.962 1479.83,671.677 1581.33,836.636 1682.83,811.258 1784.34,887.393 1885.84,620.921 1987.34,367.138 2088.85,164.111 2190.35,595.542 2291.85,87.9763 "/>
<path clip-path="url(#clip590)" d="M272.61 198.898 L923.327 198.898 L923.327 95.2176 L272.61 95.2176  Z" fill="#ffffff" fill-rule="evenodd" fill-opacity="1"/>
<polyline clip-path="url(#clip590)" style="stroke:#000000; stroke-linecap:round; stroke-linejoin:round; stroke-width:4; stroke-opacity:1; fill:none" points="272.61,198.898 923.327,198.898 923.327,95.2176 272.61,95.2176 272.61,198.898 "/>
<polyline clip-path="url(#clip590)" style="stroke:#009af9; stroke-linecap:round; stroke-linejoin:round; stroke-width:4; stroke-opacity:1; fill:none" points="296.519,147.058 439.978,147.058 "/>
<path clip-path="url(#clip590)" d="M463.887 129.778 L485.739 129.778 L485.739 133.713 L468.563 133.713 L468.563 143.944 L485.022 143.944 L485.022 147.879 L468.563 147.879 L468.563 160.402 L486.156 160.402 L486.156 164.338 L463.887 164.338 L463.887 129.778 Z" fill="#000000" fill-rule="nonzero" fill-opacity="1" /><path clip-path="url(#clip590)" d="M513.841 143.389 Q515.438 140.518 517.66 139.153 Q519.882 137.787 522.892 137.787 Q526.943 137.787 529.142 140.634 Q531.341 143.458 531.341 148.689 L531.341 164.338 L527.058 164.338 L527.058 148.828 Q527.058 145.102 525.739 143.296 Q524.419 141.49 521.711 141.49 Q518.401 141.49 516.48 143.69 Q514.558 145.889 514.558 149.685 L514.558 164.338 L510.276 164.338 L510.276 148.828 Q510.276 145.078 508.957 143.296 Q507.637 141.49 504.883 141.49 Q501.619 141.49 499.697 143.713 Q497.776 145.912 497.776 149.685 L497.776 164.338 L493.494 164.338 L493.494 138.412 L497.776 138.412 L497.776 142.44 Q499.234 140.055 501.271 138.921 Q503.308 137.787 506.109 137.787 Q508.933 137.787 510.901 139.222 Q512.892 140.657 513.841 143.389 Z" fill="#000000" fill-rule="nonzero" fill-opacity="1" /><path clip-path="url(#clip590)" d="M543.956 160.449 L543.956 174.199 L539.674 174.199 L539.674 138.412 L543.956 138.412 L543.956 142.347 Q545.299 140.032 547.336 138.921 Q549.396 137.787 552.243 137.787 Q556.966 137.787 559.905 141.537 Q562.868 145.287 562.868 151.398 Q562.868 157.509 559.905 161.259 Q556.966 165.009 552.243 165.009 Q549.396 165.009 547.336 163.898 Q545.299 162.763 543.956 160.449 M558.447 151.398 Q558.447 146.699 556.503 144.037 Q554.581 141.352 551.202 141.352 Q547.822 141.352 545.878 144.037 Q543.956 146.699 543.956 151.398 Q543.956 156.097 545.878 158.782 Q547.822 161.444 551.202 161.444 Q554.581 161.444 556.503 158.782 Q558.447 156.097 558.447 151.398 Z" fill="#000000" fill-rule="nonzero" fill-opacity="1" /><path clip-path="url(#clip590)" d="M569.929 128.319 L574.188 128.319 L574.188 164.338 L569.929 164.338 L569.929 128.319 Z" fill="#000000" fill-rule="nonzero" fill-opacity="1" /><path clip-path="url(#clip590)" d="M593.146 141.398 Q589.72 141.398 587.729 144.083 Q585.739 146.745 585.739 151.398 Q585.739 156.051 587.706 158.736 Q589.697 161.398 593.146 161.398 Q596.549 161.398 598.539 158.713 Q600.53 156.027 600.53 151.398 Q600.53 146.791 598.539 144.106 Q596.549 141.398 593.146 141.398 M593.146 137.787 Q598.702 137.787 601.873 141.398 Q605.044 145.009 605.044 151.398 Q605.044 157.764 601.873 161.398 Q598.702 165.009 593.146 165.009 Q587.567 165.009 584.396 161.398 Q581.248 157.764 581.248 151.398 Q581.248 145.009 584.396 141.398 Q587.567 137.787 593.146 137.787 Z" fill="#000000" fill-rule="nonzero" fill-opacity="1" /><path clip-path="url(#clip590)" d="M622.891 166.745 Q621.086 171.375 619.373 172.787 Q617.66 174.199 614.789 174.199 L611.387 174.199 L611.387 170.634 L613.887 170.634 Q615.646 170.634 616.618 169.8 Q617.59 168.967 618.771 165.865 L619.535 163.921 L609.049 138.412 L613.563 138.412 L621.664 158.689 L629.766 138.412 L634.28 138.412 L622.891 166.745 Z" fill="#000000" fill-rule="nonzero" fill-opacity="1" /><path clip-path="url(#clip590)" d="M662.335 150.31 L662.335 152.393 L642.752 152.393 Q643.03 156.791 645.391 159.106 Q647.775 161.398 652.011 161.398 Q654.465 161.398 656.757 160.796 Q659.072 160.194 661.34 158.99 L661.34 163.018 Q659.048 163.99 656.641 164.5 Q654.234 165.009 651.757 165.009 Q645.553 165.009 641.919 161.398 Q638.308 157.787 638.308 151.629 Q638.308 145.264 641.734 141.537 Q645.183 137.787 651.016 137.787 Q656.247 137.787 659.28 141.166 Q662.335 144.523 662.335 150.31 M658.076 149.06 Q658.03 145.565 656.109 143.481 Q654.21 141.398 651.062 141.398 Q647.498 141.398 645.345 143.412 Q643.215 145.426 642.891 149.083 L658.076 149.06 Z" fill="#000000" fill-rule="nonzero" fill-opacity="1" /><path clip-path="url(#clip590)" d="M686.386 142.347 L686.386 128.319 L690.645 128.319 L690.645 164.338 L686.386 164.338 L686.386 160.449 Q685.044 162.763 682.983 163.898 Q680.946 165.009 678.076 165.009 Q673.377 165.009 670.414 161.259 Q667.474 157.509 667.474 151.398 Q667.474 145.287 670.414 141.537 Q673.377 137.787 678.076 137.787 Q680.946 137.787 682.983 138.921 Q685.044 140.032 686.386 142.347 M671.872 151.398 Q671.872 156.097 673.794 158.782 Q675.738 161.444 679.118 161.444 Q682.497 161.444 684.442 158.782 Q686.386 156.097 686.386 151.398 Q686.386 146.699 684.442 144.037 Q682.497 141.352 679.118 141.352 Q675.738 141.352 673.794 144.037 Q671.872 146.699 671.872 151.398 Z" fill="#000000" fill-rule="nonzero" fill-opacity="1" /><path clip-path="url(#clip590)" d="M711.594 129.778 L716.317 129.778 L723.585 158.99 L730.83 129.778 L736.085 129.778 L743.354 158.99 L750.599 129.778 L755.344 129.778 L746.664 164.338 L740.784 164.338 L733.492 134.338 L726.131 164.338 L720.252 164.338 L711.594 129.778 Z" fill="#000000" fill-rule="nonzero" fill-opacity="1" /><path clip-path="url(#clip590)" d="M768.631 141.398 Q765.205 141.398 763.215 144.083 Q761.224 146.745 761.224 151.398 Q761.224 156.051 763.191 158.736 Q765.182 161.398 768.631 161.398 Q772.034 161.398 774.025 158.713 Q776.015 156.027 776.015 151.398 Q776.015 146.791 774.025 144.106 Q772.034 141.398 768.631 141.398 M768.631 137.787 Q774.187 137.787 777.358 141.398 Q780.529 145.009 780.529 151.398 Q780.529 157.764 777.358 161.398 Q774.187 165.009 768.631 165.009 Q763.052 165.009 759.881 161.398 Q756.733 157.764 756.733 151.398 Q756.733 145.009 759.881 141.398 Q763.052 137.787 768.631 137.787 Z" fill="#000000" fill-rule="nonzero" fill-opacity="1" /><path clip-path="url(#clip590)" d="M802.612 142.393 Q801.895 141.977 801.038 141.791 Q800.205 141.583 799.187 141.583 Q795.575 141.583 793.631 143.944 Q791.71 146.282 791.71 150.68 L791.71 164.338 L787.427 164.338 L787.427 138.412 L791.71 138.412 L791.71 142.44 Q793.052 140.078 795.205 138.944 Q797.358 137.787 800.437 137.787 Q800.876 137.787 801.409 137.856 Q801.941 137.903 802.589 138.018 L802.612 142.393 Z" fill="#000000" fill-rule="nonzero" fill-opacity="1" /><path clip-path="url(#clip590)" d="M806.918 128.319 L811.2 128.319 L811.2 149.592 L823.909 138.412 L829.348 138.412 L815.598 150.541 L829.927 164.338 L824.372 164.338 L811.2 151.676 L811.2 164.338 L806.918 164.338 L806.918 128.319 Z" fill="#000000" fill-rule="nonzero" fill-opacity="1" /><path clip-path="url(#clip590)" d="M855.02 150.31 L855.02 152.393 L835.436 152.393 Q835.714 156.791 838.075 159.106 Q840.459 161.398 844.696 161.398 Q847.149 161.398 849.441 160.796 Q851.756 160.194 854.024 158.99 L854.024 163.018 Q851.733 163.99 849.325 164.5 Q846.918 165.009 844.441 165.009 Q838.237 165.009 834.603 161.398 Q830.992 157.787 830.992 151.629 Q830.992 145.264 834.418 141.537 Q837.867 137.787 843.7 137.787 Q848.932 137.787 851.964 141.166 Q855.02 144.523 855.02 150.31 M850.76 149.06 Q850.714 145.565 848.793 143.481 Q846.895 141.398 843.746 141.398 Q840.182 141.398 838.029 143.412 Q835.899 145.426 835.575 149.083 L850.76 149.06 Z" fill="#000000" fill-rule="nonzero" fill-opacity="1" /><path clip-path="url(#clip590)" d="M877.033 142.393 Q876.316 141.977 875.459 141.791 Q874.626 141.583 873.607 141.583 Q869.996 141.583 868.052 143.944 Q866.131 146.282 866.131 150.68 L866.131 164.338 L861.848 164.338 L861.848 138.412 L866.131 138.412 L866.131 142.44 Q867.473 140.078 869.626 138.944 Q871.779 137.787 874.857 137.787 Q875.297 137.787 875.83 137.856 Q876.362 137.903 877.01 138.018 L877.033 142.393 Z" fill="#000000" fill-rule="nonzero" fill-opacity="1" /><path clip-path="url(#clip590)" d="M898.029 139.176 L898.029 143.203 Q896.223 142.277 894.279 141.815 Q892.334 141.352 890.251 141.352 Q887.08 141.352 885.482 142.324 Q883.908 143.296 883.908 145.24 Q883.908 146.722 885.043 147.578 Q886.177 148.412 889.603 149.176 L891.061 149.5 Q895.598 150.472 897.496 152.254 Q899.417 154.014 899.417 157.185 Q899.417 160.796 896.547 162.902 Q893.7 165.009 888.7 165.009 Q886.617 165.009 884.348 164.592 Q882.103 164.199 879.603 163.388 L879.603 158.99 Q881.964 160.217 884.256 160.842 Q886.547 161.444 888.793 161.444 Q891.802 161.444 893.422 160.426 Q895.043 159.384 895.043 157.509 Q895.043 155.773 893.862 154.847 Q892.705 153.921 888.746 153.064 L887.265 152.717 Q883.306 151.884 881.547 150.171 Q879.788 148.435 879.788 145.426 Q879.788 141.768 882.381 139.778 Q884.973 137.787 889.742 137.787 Q892.103 137.787 894.186 138.134 Q896.269 138.481 898.029 139.176 Z" fill="#000000" fill-rule="nonzero" fill-opacity="1" /></svg>
