<?xml version="1.0" encoding="utf-8"?>
<svg xmlns="http://www.w3.org/2000/svg" xmlns:xlink="http://www.w3.org/1999/xlink" width="600" height="300" viewBox="0 0 2400 1200">
<defs>
  <clipPath id="clip010">
    <rect x="0" y="0" width="2400" height="1200"/>
  </clipPath>
</defs>
<path clip-path="url(#clip010)" d="M0 1200 L2400 1200 L2400 0 L0 0  Z" fill="#ffffff" fill-rule="evenodd" fill-opacity="1"/>
<defs>
  <clipPath id="clip011">
    <rect x="480" y="0" width="1681" height="1200"/>
  </clipPath>
</defs>
<path clip-path="url(#clip010)" d="M216.436 1099.09 L1153.25 1099.09 L1153.25 92.1521 L216.436 92.1521  Z" fill="#ffffff" fill-rule="evenodd" fill-opacity="1"/>
<defs>
  <clipPath id="clip012">
    <rect x="216" y="92" width="938" height="1008"/>
  </clipPath>
</defs>
<polyline clip-path="url(#clip012)" style="stroke:#000000; stroke-linecap:round; stroke-linejoin:round; stroke-width:2; stroke-opacity:0.1; fill:none" points="411.291,1099.09 411.291,92.1521 "/>
<polyline clip-path="url(#clip012)" style="stroke:#000000; stroke-linecap:round; stroke-linejoin:round; stroke-width:2; stroke-opacity:0.1; fill:none" points="621.717,1099.09 621.717,92.1521 "/>
<polyline clip-path="url(#clip012)" style="stroke:#000000; stroke-linecap:round; stroke-linejoin:round; stroke-width:2; stroke-opacity:0.1; fill:none" points="832.143,1099.09 832.143,92.1521 "/>
<polyline clip-path="url(#clip012)" style="stroke:#000000; stroke-linecap:round; stroke-linejoin:round; stroke-width:2; stroke-opacity:0.1; fill:none" points="1042.57,1099.09 1042.57,92.1521 "/>
<polyline clip-path="url(#clip012)" style="stroke:#000000; stroke-linecap:round; stroke-linejoin:round; stroke-width:2; stroke-opacity:0.1; fill:none" points="216.436,1096.94 1153.25,1096.94 "/>
<polyline clip-path="url(#clip012)" style="stroke:#000000; stroke-linecap:round; stroke-linejoin:round; stroke-width:2; stroke-opacity:0.1; fill:none" points="216.436,852.864 1153.25,852.864 "/>
<polyline clip-path="url(#clip012)" style="stroke:#000000; stroke-linecap:round; stroke-linejoin:round; stroke-width:2; stroke-opacity:0.1; fill:none" points="216.436,608.793 1153.25,608.793 "/>
<polyline clip-path="url(#clip012)" style="stroke:#000000; stroke-linecap:round; stroke-linejoin:round; stroke-width:2; stroke-opacity:0.1; fill:none" points="216.436,364.722 1153.25,364.722 "/>
<polyline clip-path="url(#clip012)" style="stroke:#000000; stroke-linecap:round; stroke-linejoin:round; stroke-width:2; stroke-opacity:0.1; fill:none" points="216.436,120.65 1153.25,120.65 "/>
<polyline clip-path="url(#clip010)" style="stroke:#000000; stroke-linecap:round; stroke-linejoin:round; stroke-width:4; stroke-opacity:1; fill:none" points="216.436,1099.09 1153.25,1099.09 "/>
<polyline clip-path="url(#clip010)" style="stroke:#000000; stroke-linecap:round; stroke-linejoin:round; stroke-width:4; stroke-opacity:1; fill:none" points="411.291,1099.09 411.291,1080.19 "/>
<polyline clip-path="url(#clip010)" style="stroke:#000000; stroke-linecap:round; stroke-linejoin:round; stroke-width:4; stroke-opacity:1; fill:none" points="621.717,1099.09 621.717,1080.19 "/>
<polyline clip-path="url(#clip010)" style="stroke:#000000; stroke-linecap:round; stroke-linejoin:round; stroke-width:4; stroke-opacity:1; fill:none" points="832.143,1099.09 832.143,1080.19 "/>
<polyline clip-path="url(#clip010)" style="stroke:#000000; stroke-linecap:round; stroke-linejoin:round; stroke-width:4; stroke-opacity:1; fill:none" points="1042.57,1099.09 1042.57,1080.19 "/>
<path clip-path="url(#clip010)" d="M401.568 1126.93 L419.925 1126.93 L419.925 1130.86 L405.851 1130.86 L405.851 1139.34 Q406.869 1138.99 407.888 1138.83 Q408.906 1138.64 409.925 1138.64 Q415.712 1138.64 419.091 1141.81 Q422.471 1144.98 422.471 1150.4 Q422.471 1155.98 418.999 1159.08 Q415.527 1162.16 409.207 1162.16 Q407.031 1162.16 404.763 1161.79 Q402.517 1161.42 400.11 1160.68 L400.11 1155.98 Q402.193 1157.11 404.416 1157.67 Q406.638 1158.22 409.115 1158.22 Q413.119 1158.22 415.457 1156.12 Q417.795 1154.01 417.795 1150.4 Q417.795 1146.79 415.457 1144.68 Q413.119 1142.58 409.115 1142.58 Q407.24 1142.58 405.365 1142.99 Q403.513 1143.41 401.568 1144.29 L401.568 1126.93 Z" fill="#000000" fill-rule="nonzero" fill-opacity="1" /><path clip-path="url(#clip010)" d="M596.404 1157.55 L604.043 1157.55 L604.043 1131.19 L595.733 1132.85 L595.733 1128.59 L603.997 1126.93 L608.673 1126.93 L608.673 1157.55 L616.312 1157.55 L616.312 1161.49 L596.404 1161.49 L596.404 1157.55 Z" fill="#000000" fill-rule="nonzero" fill-opacity="1" /><path clip-path="url(#clip010)" d="M635.756 1130.01 Q632.145 1130.01 630.316 1133.57 Q628.511 1137.11 628.511 1144.24 Q628.511 1151.35 630.316 1154.91 Q632.145 1158.46 635.756 1158.46 Q639.39 1158.46 641.196 1154.91 Q643.025 1151.35 643.025 1144.24 Q643.025 1137.11 641.196 1133.57 Q639.39 1130.01 635.756 1130.01 M635.756 1126.3 Q641.566 1126.3 644.622 1130.91 Q647.701 1135.49 647.701 1144.24 Q647.701 1152.97 644.622 1157.58 Q641.566 1162.16 635.756 1162.16 Q629.946 1162.16 626.867 1157.58 Q623.812 1152.97 623.812 1144.24 Q623.812 1135.49 626.867 1130.91 Q629.946 1126.3 635.756 1126.3 Z" fill="#000000" fill-rule="nonzero" fill-opacity="1" /><path clip-path="url(#clip010)" d="M807.328 1157.55 L814.967 1157.55 L814.967 1131.19 L806.657 1132.85 L806.657 1128.59 L814.921 1126.93 L819.597 1126.93 L819.597 1157.55 L827.236 1157.55 L827.236 1161.49 L807.328 1161.49 L807.328 1157.55 Z" fill="#000000" fill-rule="nonzero" fill-opacity="1" /><path clip-path="url(#clip010)" d="M836.726 1126.93 L855.083 1126.93 L855.083 1130.86 L841.009 1130.86 L841.009 1139.34 Q842.027 1138.99 843.046 1138.83 Q844.064 1138.64 845.083 1138.64 Q850.87 1138.64 854.249 1141.81 Q857.629 1144.98 857.629 1150.4 Q857.629 1155.98 854.157 1159.08 Q850.685 1162.16 844.365 1162.16 Q842.189 1162.16 839.921 1161.79 Q837.675 1161.42 835.268 1160.68 L835.268 1155.98 Q837.351 1157.11 839.574 1157.67 Q841.796 1158.22 844.273 1158.22 Q848.277 1158.22 850.615 1156.12 Q852.953 1154.01 852.953 1150.4 Q852.953 1146.79 850.615 1144.68 Q848.277 1142.58 844.273 1142.58 Q842.398 1142.58 840.523 1142.99 Q838.671 1143.41 836.726 1144.29 L836.726 1126.93 Z" fill="#000000" fill-rule="nonzero" fill-opacity="1" /><path clip-path="url(#clip010)" d="M1021.34 1157.55 L1037.66 1157.55 L1037.66 1161.49 L1015.72 1161.49 L1015.72 1157.55 Q1018.38 1154.8 1022.96 1150.17 Q1027.57 1145.52 1028.75 1144.17 Q1031 1141.65 1031.87 1139.91 Q1032.78 1138.15 1032.78 1136.46 Q1032.78 1133.71 1030.83 1131.97 Q1028.91 1130.24 1025.81 1130.24 Q1023.61 1130.24 1021.16 1131 Q1018.73 1131.77 1015.95 1133.32 L1015.95 1128.59 Q1018.77 1127.46 1021.23 1126.88 Q1023.68 1126.3 1025.72 1126.3 Q1031.09 1126.3 1034.28 1128.99 Q1037.48 1131.67 1037.48 1136.16 Q1037.48 1138.29 1036.67 1140.21 Q1035.88 1142.11 1033.77 1144.71 Q1033.19 1145.38 1030.09 1148.59 Q1026.99 1151.79 1021.34 1157.55 Z" fill="#000000" fill-rule="nonzero" fill-opacity="1" /><path clip-path="url(#clip010)" d="M1057.48 1130.01 Q1053.87 1130.01 1052.04 1133.57 Q1050.23 1137.11 1050.23 1144.24 Q1050.23 1151.35 1052.04 1154.91 Q1053.87 1158.46 1057.48 1158.46 Q1061.11 1158.46 1062.92 1154.91 Q1064.75 1151.35 1064.75 1144.24 Q1064.75 1137.11 1062.92 1133.57 Q1061.11 1130.01 1057.48 1130.01 M1057.48 1126.3 Q1063.29 1126.3 1066.34 1130.91 Q1069.42 1135.49 1069.42 1144.24 Q1069.42 1152.97 1066.34 1157.58 Q1063.29 1162.16 1057.48 1162.16 Q1051.67 1162.16 1048.59 1157.58 Q1045.53 1152.97 1045.53 1144.24 Q1045.53 1135.49 1048.59 1130.91 Q1051.67 1126.3 1057.48 1126.3 Z" fill="#000000" fill-rule="nonzero" fill-opacity="1" /><polyline clip-path="url(#clip010)" style="stroke:#000000; stroke-linecap:round; stroke-linejoin:round; stroke-width:4; stroke-opacity:1; fill:none" points="216.436,1099.09 216.436,92.1521 "/>
<polyline clip-path="url(#clip010)" style="stroke:#000000; stroke-linecap:round; stroke-linejoin:round; stroke-width:4; stroke-opacity:1; fill:none" points="216.436,1096.94 235.334,1096.94 "/>
<polyline clip-path="url(#clip010)" style="stroke:#000000; stroke-linecap:round; stroke-linejoin:round; stroke-width:4; stroke-opacity:1; fill:none" points="216.436,852.864 235.334,852.864 "/>
<polyline clip-path="url(#clip010)" style="stroke:#000000; stroke-linecap:round; stroke-linejoin:round; stroke-width:4; stroke-opacity:1; fill:none" points="216.436,608.793 235.334,608.793 "/>
<polyline clip-path="url(#clip010)" style="stroke:#000000; stroke-linecap:round; stroke-linejoin:round; stroke-width:4; stroke-opacity:1; fill:none" points="216.436,364.722 235.334,364.722 "/>
<polyline clip-path="url(#clip010)" style="stroke:#000000; stroke-linecap:round; stroke-linejoin:round; stroke-width:4; stroke-opacity:1; fill:none" points="216.436,120.65 235.334,120.65 "/>
<path clip-path="url(#clip010)" d="M62.9365 1082.73 Q59.3254 1082.73 57.4967 1086.3 Q55.6912 1089.84 55.6912 1096.97 Q55.6912 1104.08 57.4967 1107.64 Q59.3254 1111.18 62.9365 1111.18 Q66.5707 1111.18 68.3763 1107.64 Q70.205 1104.08 70.205 1096.97 Q70.205 1089.84 68.3763 1086.3 Q66.5707 1082.73 62.9365 1082.73 M62.9365 1079.03 Q68.7467 1079.03 71.8022 1083.64 Q74.8809 1088.22 74.8809 1096.97 Q74.8809 1105.7 71.8022 1110.3 Q68.7467 1114.89 62.9365 1114.89 Q57.1264 1114.89 54.0477 1110.3 Q50.9921 1105.7 50.9921 1096.97 Q50.9921 1088.22 54.0477 1083.64 Q57.1264 1079.03 62.9365 1079.03 Z" fill="#000000" fill-rule="nonzero" fill-opacity="1" /><path clip-path="url(#clip010)" d="M83.0984 1108.34 L87.9827 1108.34 L87.9827 1114.22 L83.0984 1114.22 L83.0984 1108.34 Z" fill="#000000" fill-rule="nonzero" fill-opacity="1" /><path clip-path="url(#clip010)" d="M108.168 1082.73 Q104.557 1082.73 102.728 1086.3 Q100.922 1089.84 100.922 1096.97 Q100.922 1104.08 102.728 1107.64 Q104.557 1111.18 108.168 1111.18 Q111.802 1111.18 113.608 1107.64 Q115.436 1104.08 115.436 1096.97 Q115.436 1089.84 113.608 1086.3 Q111.802 1082.73 108.168 1082.73 M108.168 1079.03 Q113.978 1079.03 117.033 1083.64 Q120.112 1088.22 120.112 1096.97 Q120.112 1105.7 117.033 1110.3 Q113.978 1114.89 108.168 1114.89 Q102.358 1114.89 99.2789 1110.3 Q96.2234 1105.7 96.2234 1096.97 Q96.2234 1088.22 99.2789 1083.64 Q102.358 1079.03 108.168 1079.03 Z" fill="#000000" fill-rule="nonzero" fill-opacity="1" /><path clip-path="url(#clip010)" d="M138.33 1082.73 Q134.719 1082.73 132.89 1086.3 Q131.084 1089.84 131.084 1096.97 Q131.084 1104.08 132.89 1107.64 Q134.719 1111.18 138.33 1111.18 Q141.964 1111.18 143.769 1107.64 Q145.598 1104.08 145.598 1096.97 Q145.598 1089.84 143.769 1086.3 Q141.964 1082.73 138.33 1082.73 M138.33 1079.03 Q144.14 1079.03 147.195 1083.64 Q150.274 1088.22 150.274 1096.97 Q150.274 1105.7 147.195 1110.3 Q144.14 1114.89 138.33 1114.89 Q132.519 1114.89 129.441 1110.3 Q126.385 1105.7 126.385 1096.97 Q126.385 1088.22 129.441 1083.64 Q132.519 1079.03 138.33 1079.03 Z" fill="#000000" fill-rule="nonzero" fill-opacity="1" /><path clip-path="url(#clip010)" d="M168.491 1082.73 Q164.88 1082.73 163.052 1086.3 Q161.246 1089.84 161.246 1096.97 Q161.246 1104.08 163.052 1107.64 Q164.88 1111.18 168.491 1111.18 Q172.126 1111.18 173.931 1107.64 Q175.76 1104.08 175.76 1096.97 Q175.76 1089.84 173.931 1086.3 Q172.126 1082.73 168.491 1082.73 M168.491 1079.03 Q174.302 1079.03 177.357 1083.64 Q180.436 1088.22 180.436 1096.97 Q180.436 1105.7 177.357 1110.3 Q174.302 1114.89 168.491 1114.89 Q162.681 1114.89 159.603 1110.3 Q156.547 1105.7 156.547 1096.97 Q156.547 1088.22 159.603 1083.64 Q162.681 1079.03 168.491 1079.03 Z" fill="#000000" fill-rule="nonzero" fill-opacity="1" /><path clip-path="url(#clip010)" d="M63.9319 838.663 Q60.3208 838.663 58.4921 842.228 Q56.6865 845.77 56.6865 852.899 Q56.6865 860.006 58.4921 863.57 Q60.3208 867.112 63.9319 867.112 Q67.5661 867.112 69.3717 863.57 Q71.2004 860.006 71.2004 852.899 Q71.2004 845.77 69.3717 842.228 Q67.5661 838.663 63.9319 838.663 M63.9319 834.959 Q69.742 834.959 72.7976 839.566 Q75.8763 844.149 75.8763 852.899 Q75.8763 861.626 72.7976 866.232 Q69.742 870.816 63.9319 870.816 Q58.1217 870.816 55.043 866.232 Q51.9875 861.626 51.9875 852.899 Q51.9875 844.149 55.043 839.566 Q58.1217 834.959 63.9319 834.959 Z" fill="#000000" fill-rule="nonzero" fill-opacity="1" /><path clip-path="url(#clip010)" d="M84.0938 864.265 L88.978 864.265 L88.978 870.144 L84.0938 870.144 L84.0938 864.265 Z" fill="#000000" fill-rule="nonzero" fill-opacity="1" /><path clip-path="url(#clip010)" d="M109.163 838.663 Q105.552 838.663 103.723 842.228 Q101.918 845.77 101.918 852.899 Q101.918 860.006 103.723 863.57 Q105.552 867.112 109.163 867.112 Q112.797 867.112 114.603 863.57 Q116.432 860.006 116.432 852.899 Q116.432 845.77 114.603 842.228 Q112.797 838.663 109.163 838.663 M109.163 834.959 Q114.973 834.959 118.029 839.566 Q121.107 844.149 121.107 852.899 Q121.107 861.626 118.029 866.232 Q114.973 870.816 109.163 870.816 Q103.353 870.816 100.274 866.232 Q97.2187 861.626 97.2187 852.899 Q97.2187 844.149 100.274 839.566 Q103.353 834.959 109.163 834.959 Z" fill="#000000" fill-rule="nonzero" fill-opacity="1" /><path clip-path="url(#clip010)" d="M139.325 838.663 Q135.714 838.663 133.885 842.228 Q132.08 845.77 132.08 852.899 Q132.08 860.006 133.885 863.57 Q135.714 867.112 139.325 867.112 Q142.959 867.112 144.765 863.57 Q146.593 860.006 146.593 852.899 Q146.593 845.77 144.765 842.228 Q142.959 838.663 139.325 838.663 M139.325 834.959 Q145.135 834.959 148.191 839.566 Q151.269 844.149 151.269 852.899 Q151.269 861.626 148.191 866.232 Q145.135 870.816 139.325 870.816 Q133.515 870.816 130.436 866.232 Q127.381 861.626 127.381 852.899 Q127.381 844.149 130.436 839.566 Q133.515 834.959 139.325 834.959 Z" fill="#000000" fill-rule="nonzero" fill-opacity="1" /><path clip-path="url(#clip010)" d="M159.533 835.584 L177.89 835.584 L177.89 839.52 L163.816 839.52 L163.816 847.992 Q164.834 847.645 165.853 847.482 Q166.871 847.297 167.89 847.297 Q173.677 847.297 177.056 850.469 Q180.436 853.64 180.436 859.056 Q180.436 864.635 176.964 867.737 Q173.491 870.816 167.172 870.816 Q164.996 870.816 162.728 870.445 Q160.482 870.075 158.075 869.334 L158.075 864.635 Q160.158 865.769 162.38 866.325 Q164.603 866.881 167.079 866.881 Q171.084 866.881 173.422 864.774 Q175.76 862.668 175.76 859.056 Q175.76 855.445 173.422 853.339 Q171.084 851.232 167.079 851.232 Q165.204 851.232 163.329 851.649 Q161.478 852.066 159.533 852.945 L159.533 835.584 Z" fill="#000000" fill-rule="nonzero" fill-opacity="1" /><path clip-path="url(#clip010)" d="M62.9365 594.592 Q59.3254 594.592 57.4967 598.157 Q55.6912 601.698 55.6912 608.828 Q55.6912 615.934 57.4967 619.499 Q59.3254 623.041 62.9365 623.041 Q66.5707 623.041 68.3763 619.499 Q70.205 615.934 70.205 608.828 Q70.205 601.698 68.3763 598.157 Q66.5707 594.592 62.9365 594.592 M62.9365 590.888 Q68.7467 590.888 71.8022 595.494 Q74.8809 600.078 74.8809 608.828 Q74.8809 617.555 71.8022 622.161 Q68.7467 626.744 62.9365 626.744 Q57.1264 626.744 54.0477 622.161 Q50.9921 617.555 50.9921 608.828 Q50.9921 600.078 54.0477 595.494 Q57.1264 590.888 62.9365 590.888 Z" fill="#000000" fill-rule="nonzero" fill-opacity="1" /><path clip-path="url(#clip010)" d="M83.0984 620.193 L87.9827 620.193 L87.9827 626.073 L83.0984 626.073 L83.0984 620.193 Z" fill="#000000" fill-rule="nonzero" fill-opacity="1" /><path clip-path="url(#clip010)" d="M108.168 594.592 Q104.557 594.592 102.728 598.157 Q100.922 601.698 100.922 608.828 Q100.922 615.934 102.728 619.499 Q104.557 623.041 108.168 623.041 Q111.802 623.041 113.608 619.499 Q115.436 615.934 115.436 608.828 Q115.436 601.698 113.608 598.157 Q111.802 594.592 108.168 594.592 M108.168 590.888 Q113.978 590.888 117.033 595.494 Q120.112 600.078 120.112 608.828 Q120.112 617.555 117.033 622.161 Q113.978 626.744 108.168 626.744 Q102.358 626.744 99.2789 622.161 Q96.2234 617.555 96.2234 608.828 Q96.2234 600.078 99.2789 595.494 Q102.358 590.888 108.168 590.888 Z" fill="#000000" fill-rule="nonzero" fill-opacity="1" /><path clip-path="url(#clip010)" d="M129.14 622.138 L136.779 622.138 L136.779 595.772 L128.469 597.439 L128.469 593.18 L136.732 591.513 L141.408 591.513 L141.408 622.138 L149.047 622.138 L149.047 626.073 L129.14 626.073 L129.14 622.138 Z" fill="#000000" fill-rule="nonzero" fill-opacity="1" /><path clip-path="url(#clip010)" d="M168.491 594.592 Q164.88 594.592 163.052 598.157 Q161.246 601.698 161.246 608.828 Q161.246 615.934 163.052 619.499 Q164.88 623.041 168.491 623.041 Q172.126 623.041 173.931 619.499 Q175.76 615.934 175.76 608.828 Q175.76 601.698 173.931 598.157 Q172.126 594.592 168.491 594.592 M168.491 590.888 Q174.302 590.888 177.357 595.494 Q180.436 600.078 180.436 608.828 Q180.436 617.555 177.357 622.161 Q174.302 626.744 168.491 626.744 Q162.681 626.744 159.603 622.161 Q156.547 617.555 156.547 608.828 Q156.547 600.078 159.603 595.494 Q162.681 590.888 168.491 590.888 Z" fill="#000000" fill-rule="nonzero" fill-opacity="1" /><path clip-path="url(#clip010)" d="M63.9319 350.52 Q60.3208 350.52 58.4921 354.085 Q56.6865 357.627 56.6865 364.756 Q56.6865 371.863 58.4921 375.428 Q60.3208 378.969 63.9319 378.969 Q67.5661 378.969 69.3717 375.428 Q71.2004 371.863 71.2004 364.756 Q71.2004 357.627 69.3717 354.085 Q67.5661 350.52 63.9319 350.52 M63.9319 346.817 Q69.742 346.817 72.7976 351.423 Q75.8763 356.006 75.8763 364.756 Q75.8763 373.483 72.7976 378.09 Q69.742 382.673 63.9319 382.673 Q58.1217 382.673 55.043 378.09 Q51.9875 373.483 51.9875 364.756 Q51.9875 356.006 55.043 351.423 Q58.1217 346.817 63.9319 346.817 Z" fill="#000000" fill-rule="nonzero" fill-opacity="1" /><path clip-path="url(#clip010)" d="M84.0938 376.122 L88.978 376.122 L88.978 382.002 L84.0938 382.002 L84.0938 376.122 Z" fill="#000000" fill-rule="nonzero" fill-opacity="1" /><path clip-path="url(#clip010)" d="M109.163 350.52 Q105.552 350.52 103.723 354.085 Q101.918 357.627 101.918 364.756 Q101.918 371.863 103.723 375.428 Q105.552 378.969 109.163 378.969 Q112.797 378.969 114.603 375.428 Q116.432 371.863 116.432 364.756 Q116.432 357.627 114.603 354.085 Q112.797 350.52 109.163 350.52 M109.163 346.817 Q114.973 346.817 118.029 351.423 Q121.107 356.006 121.107 364.756 Q121.107 373.483 118.029 378.09 Q114.973 382.673 109.163 382.673 Q103.353 382.673 100.274 378.09 Q97.2187 373.483 97.2187 364.756 Q97.2187 356.006 100.274 351.423 Q103.353 346.817 109.163 346.817 Z" fill="#000000" fill-rule="nonzero" fill-opacity="1" /><path clip-path="url(#clip010)" d="M130.135 378.067 L137.774 378.067 L137.774 351.701 L129.464 353.368 L129.464 349.108 L137.728 347.442 L142.404 347.442 L142.404 378.067 L150.043 378.067 L150.043 382.002 L130.135 382.002 L130.135 378.067 Z" fill="#000000" fill-rule="nonzero" fill-opacity="1" /><path clip-path="url(#clip010)" d="M159.533 347.442 L177.89 347.442 L177.89 351.377 L163.816 351.377 L163.816 359.849 Q164.834 359.502 165.853 359.34 Q166.871 359.155 167.89 359.155 Q173.677 359.155 177.056 362.326 Q180.436 365.497 180.436 370.914 Q180.436 376.492 176.964 379.594 Q173.491 382.673 167.172 382.673 Q164.996 382.673 162.728 382.303 Q160.482 381.932 158.075 381.191 L158.075 376.492 Q160.158 377.627 162.38 378.182 Q164.603 378.738 167.079 378.738 Q171.084 378.738 173.422 376.631 Q175.76 374.525 175.76 370.914 Q175.76 367.303 173.422 365.196 Q171.084 363.09 167.079 363.09 Q165.204 363.09 163.329 363.506 Q161.478 363.923 159.533 364.803 L159.533 347.442 Z" fill="#000000" fill-rule="nonzero" fill-opacity="1" /><path clip-path="url(#clip010)" d="M62.9365 106.449 Q59.3254 106.449 57.4967 110.014 Q55.6912 113.555 55.6912 120.685 Q55.6912 127.791 57.4967 131.356 Q59.3254 134.898 62.9365 134.898 Q66.5707 134.898 68.3763 131.356 Q70.205 127.791 70.205 120.685 Q70.205 113.555 68.3763 110.014 Q66.5707 106.449 62.9365 106.449 M62.9365 102.745 Q68.7467 102.745 71.8022 107.352 Q74.8809 111.935 74.8809 120.685 Q74.8809 129.412 71.8022 134.018 Q68.7467 138.602 62.9365 138.602 Q57.1264 138.602 54.0477 134.018 Q50.9921 129.412 50.9921 120.685 Q50.9921 111.935 54.0477 107.352 Q57.1264 102.745 62.9365 102.745 Z" fill="#000000" fill-rule="nonzero" fill-opacity="1" /><path clip-path="url(#clip010)" d="M83.0984 132.051 L87.9827 132.051 L87.9827 137.93 L83.0984 137.93 L83.0984 132.051 Z" fill="#000000" fill-rule="nonzero" fill-opacity="1" /><path clip-path="url(#clip010)" d="M108.168 106.449 Q104.557 106.449 102.728 110.014 Q100.922 113.555 100.922 120.685 Q100.922 127.791 102.728 131.356 Q104.557 134.898 108.168 134.898 Q111.802 134.898 113.608 131.356 Q115.436 127.791 115.436 120.685 Q115.436 113.555 113.608 110.014 Q111.802 106.449 108.168 106.449 M108.168 102.745 Q113.978 102.745 117.033 107.352 Q120.112 111.935 120.112 120.685 Q120.112 129.412 117.033 134.018 Q113.978 138.602 108.168 138.602 Q102.358 138.602 99.2789 134.018 Q96.2234 129.412 96.2234 120.685 Q96.2234 111.935 99.2789 107.352 Q102.358 102.745 108.168 102.745 Z" fill="#000000" fill-rule="nonzero" fill-opacity="1" /><path clip-path="url(#clip010)" d="M132.357 133.995 L148.677 133.995 L148.677 137.93 L126.732 137.93 L126.732 133.995 Q129.394 131.241 133.978 126.611 Q138.584 121.958 139.765 120.616 Q142.01 118.092 142.89 116.356 Q143.793 114.597 143.793 112.907 Q143.793 110.153 141.848 108.417 Q139.927 106.68 136.825 106.68 Q134.626 106.68 132.172 107.444 Q129.742 108.208 126.964 109.759 L126.964 105.037 Q129.788 103.903 132.242 103.324 Q134.695 102.745 136.732 102.745 Q142.103 102.745 145.297 105.43 Q148.492 108.116 148.492 112.606 Q148.492 114.736 147.681 116.657 Q146.894 118.555 144.788 121.148 Q144.209 121.819 141.107 125.037 Q138.006 128.231 132.357 133.995 Z" fill="#000000" fill-rule="nonzero" fill-opacity="1" /><path clip-path="url(#clip010)" d="M168.491 106.449 Q164.88 106.449 163.052 110.014 Q161.246 113.555 161.246 120.685 Q161.246 127.791 163.052 131.356 Q164.88 134.898 168.491 134.898 Q172.126 134.898 173.931 131.356 Q175.76 127.791 175.76 120.685 Q175.76 113.555 173.931 110.014 Q172.126 106.449 168.491 106.449 M168.491 102.745 Q174.302 102.745 177.357 107.352 Q180.436 111.935 180.436 120.685 Q180.436 129.412 177.357 134.018 Q174.302 138.602 168.491 138.602 Q162.681 138.602 159.603 134.018 Q156.547 129.412 156.547 120.685 Q156.547 111.935 159.603 107.352 Q162.681 102.745 168.491 102.745 Z" fill="#000000" fill-rule="nonzero" fill-opacity="1" /><path clip-path="url(#clip010)" d="M617.462 30.8748 L617.462 33.2186 L595.431 33.2186 Q595.744 38.1665 598.4 40.7706 Q601.082 43.3487 605.848 43.3487 Q608.608 43.3487 611.186 42.6716 Q613.79 41.9946 616.342 40.6404 L616.342 45.1716 Q613.764 46.2654 611.056 46.8383 Q608.348 47.4112 605.561 47.4112 Q598.582 47.4112 594.494 43.3487 Q590.431 39.2862 590.431 32.3592 Q590.431 25.1978 594.285 21.0051 Q598.166 16.7864 604.728 16.7864 Q610.613 16.7864 614.025 20.5884 Q617.462 24.3645 617.462 30.8748 M612.671 29.4686 Q612.619 25.5363 610.457 23.1926 Q608.322 20.8488 604.78 20.8488 Q600.77 20.8488 598.348 23.1145 Q595.952 25.3801 595.587 29.4946 L612.671 29.4686 Z" fill="#000000" fill-rule="nonzero" fill-opacity="1" /><path clip-path="url(#clip010)" d="M624.832 35.1456 L624.832 17.4895 L629.624 17.4895 L629.624 34.9634 Q629.624 39.104 631.238 41.1873 Q632.853 43.2446 636.082 43.2446 Q639.962 43.2446 642.202 40.7706 Q644.467 38.2967 644.467 34.0259 L644.467 17.4895 L649.259 17.4895 L649.259 46.656 L644.467 46.656 L644.467 42.1769 Q642.723 44.8331 640.405 46.1352 Q638.113 47.4112 635.066 47.4112 Q630.04 47.4112 627.436 44.2862 Q624.832 41.1612 624.832 35.1456 M636.889 16.7864 L636.889 16.7864 Z" fill="#000000" fill-rule="nonzero" fill-opacity="1" /><path clip-path="url(#clip010)" d="M676.03 21.9686 Q675.222 21.4999 674.259 21.2916 Q673.321 21.0572 672.176 21.0572 Q668.113 21.0572 665.926 23.7134 Q663.764 26.3436 663.764 31.2915 L663.764 46.656 L658.946 46.656 L658.946 17.4895 L663.764 17.4895 L663.764 22.0207 Q665.275 19.3645 667.696 18.0884 Q670.118 16.7864 673.582 16.7864 Q674.077 16.7864 674.676 16.8645 Q675.274 16.9166 676.004 17.0468 L676.03 21.9686 Z" fill="#000000" fill-rule="nonzero" fill-opacity="1" /><path clip-path="url(#clip010)" d="M681.056 17.4895 L685.847 17.4895 L685.847 46.656 L681.056 46.656 L681.056 17.4895 M681.056 6.13538 L685.847 6.13538 L685.847 12.2031 L681.056 12.2031 L681.056 6.13538 Z" fill="#000000" fill-rule="nonzero" fill-opacity="1" /><path clip-path="url(#clip010)" d="M716.811 32.0988 Q716.811 26.8124 714.623 23.8176 Q712.462 20.7968 708.66 20.7968 Q704.858 20.7968 702.67 23.8176 Q700.509 26.8124 700.509 32.0988 Q700.509 37.3852 702.67 40.406 Q704.858 43.4008 708.66 43.4008 Q712.462 43.4008 714.623 40.406 Q716.811 37.3852 716.811 32.0988 M700.509 21.9165 Q702.019 19.3124 704.311 18.0624 Q706.628 16.7864 709.832 16.7864 Q715.144 16.7864 718.451 21.0051 Q721.785 25.2238 721.785 32.0988 Q721.785 38.9737 718.451 43.1925 Q715.144 47.4112 709.832 47.4112 Q706.628 47.4112 704.311 46.1612 Q702.019 44.8852 700.509 42.281 L700.509 46.656 L695.691 46.656 L695.691 6.13538 L700.509 6.13538 L700.509 21.9165 Z" fill="#000000" fill-rule="nonzero" fill-opacity="1" /><path clip-path="url(#clip010)" d="M741.029 20.8488 Q737.175 20.8488 734.936 23.8697 Q732.696 26.8644 732.696 32.0988 Q732.696 37.3331 734.91 40.354 Q737.149 43.3487 741.029 43.3487 Q744.857 43.3487 747.097 40.3279 Q749.337 37.3071 749.337 32.0988 Q749.337 26.9165 747.097 23.8957 Q744.857 20.8488 741.029 20.8488 M741.029 16.7864 Q747.279 16.7864 750.847 20.8488 Q754.415 24.9113 754.415 32.0988 Q754.415 39.2602 750.847 43.3487 Q747.279 47.4112 741.029 47.4112 Q734.753 47.4112 731.186 43.3487 Q727.644 39.2602 727.644 32.0988 Q727.644 24.9113 731.186 20.8488 Q734.753 16.7864 741.029 16.7864 Z" fill="#000000" fill-rule="nonzero" fill-opacity="1" /><path clip-path="url(#clip010)" d="M779.258 21.9686 Q778.451 21.4999 777.487 21.2916 Q776.55 21.0572 775.404 21.0572 Q771.342 21.0572 769.154 23.7134 Q766.993 26.3436 766.993 31.2915 L766.993 46.656 L762.175 46.656 L762.175 17.4895 L766.993 17.4895 L766.993 22.0207 Q768.503 19.3645 770.925 18.0884 Q773.347 16.7864 776.81 16.7864 Q777.305 16.7864 777.904 16.8645 Q778.503 16.9166 779.232 17.0468 L779.258 21.9686 Z" fill="#000000" fill-rule="nonzero" fill-opacity="1" /><path clip-path="url(#clip012)" d="M242.95 1016.59 L285.035 1016.59 L327.12 1021.2 L369.205 1040.33 L411.291 1009.06 L453.376 1070.59 L495.461 1009.46 L537.546 991.145 L579.632 991.177 L621.717 1030.94 L663.802 1032.43 L705.887 998.66 L747.973 992.806 L790.058 1015.05 L832.143 983.983 L874.228 977.82 L916.314 945.666 L958.399 932.072 L1000.48 957.19 L1042.57 959.804 L1084.65 986.595 L1126.74 984.391 L1126.74 900.092 L1084.65 876.021 L1042.57 853.77 L1000.48 860.812 L958.399 856.233 L916.314 859.742 L874.228 861.606 L832.143 909.424 L790.058 895.601 L747.973 895.378 L705.887 902.985 L663.802 882.328 L621.717 883.902 L579.632 915.706 L537.546 948.64 L495.461 959.554 L453.376 941.279 L411.291 920.193 L369.205 943.559 L327.12 946.189 L285.035 1016.59 L242.95 1016.59  Z" fill="#009af9" fill-rule="evenodd" fill-opacity="0.1"/>
<polyline clip-path="url(#clip012)" style="stroke:#009af9; stroke-linecap:round; stroke-linejoin:round; stroke-width:4; stroke-opacity:1; fill:none" points="242.95,1016.59 285.035,1016.59 327.12,983.694 369.205,991.946 411.291,964.628 453.376,1005.93 495.461,984.506 537.546,969.892 579.632,953.441 621.717,957.422 663.802,957.377 705.887,950.823 747.973,944.092 790.058,955.326 832.143,946.704 874.228,919.713 916.314,902.704 958.399,894.153 1000.48,909.001 1042.57,906.787 1084.65,931.308 1126.74,942.241 "/>
<path clip-path="url(#clip012)" d="M242.95 1016.59 L285.035 1016.59 L327.12 120.65 L369.205 120.65 L411.291 120.65 L453.376 120.65 L495.461 120.65 L537.546 120.65 L579.632 120.65 L621.717 120.65 L663.802 120.65 L705.887 120.65 L747.973 120.65 L790.058 120.65 L832.143 120.65 L874.228 120.65 L916.314 120.65 L958.399 120.65 L1000.48 120.65 L1042.57 120.65 L1084.65 120.65 L1126.74 120.65 L1126.74 120.65 L1084.65 120.65 L1042.57 120.65 L1000.48 120.65 L958.399 120.65 L916.314 120.65 L874.228 120.65 L832.143 120.65 L790.058 120.65 L747.973 120.65 L705.887 120.65 L663.802 120.65 L621.717 120.65 L579.632 120.65 L537.546 120.65 L495.461 120.65 L453.376 120.65 L411.291 120.65 L369.205 120.65 L327.12 120.65 L285.035 1016.59 L242.95 1016.59  Z" fill="#e26f46" fill-rule="evenodd" fill-opacity="0.1"/>
<polyline clip-path="url(#clip012)" style="stroke:#e26f46; stroke-linecap:round; stroke-linejoin:round; stroke-width:4; stroke-opacity:1; fill:none" points="242.95,1016.59 285.035,1016.59 327.12,120.65 369.205,120.65 411.291,120.65 453.376,120.65 495.461,120.65 537.546,120.65 579.632,120.65 621.717,120.65 663.802,120.65 705.887,120.65 747.973,120.65 790.058,120.65 832.143,120.65 874.228,120.65 916.314,120.65 958.399,120.65 1000.48,120.65 1042.57,120.65 1084.65,120.65 1126.74,120.65 "/>
<path clip-path="url(#clip010)" d="M1415.94 1099.09 L2352.76 1099.09 L2352.76 92.1521 L1415.94 92.1521  Z" fill="#ffffff" fill-rule="evenodd" fill-opacity="1"/>
<defs>
  <clipPath id="clip013">
    <rect x="1415" y="92" width="938" height="1008"/>
  </clipPath>
</defs>
<polyline clip-path="url(#clip013)" style="stroke:#000000; stroke-linecap:round; stroke-linejoin:round; stroke-width:2; stroke-opacity:0.1; fill:none" points="1610.79,1099.09 1610.79,92.1521 "/>
<polyline clip-path="url(#clip013)" style="stroke:#000000; stroke-linecap:round; stroke-linejoin:round; stroke-width:2; stroke-opacity:0.1; fill:none" points="1821.22,1099.09 1821.22,92.1521 "/>
<polyline clip-path="url(#clip013)" style="stroke:#000000; stroke-linecap:round; stroke-linejoin:round; stroke-width:2; stroke-opacity:0.1; fill:none" points="2031.65,1099.09 2031.65,92.1521 "/>
<polyline clip-path="url(#clip013)" style="stroke:#000000; stroke-linecap:round; stroke-linejoin:round; stroke-width:2; stroke-opacity:0.1; fill:none" points="2242.07,1099.09 2242.07,92.1521 "/>
<polyline clip-path="url(#clip013)" style="stroke:#000000; stroke-linecap:round; stroke-linejoin:round; stroke-width:2; stroke-opacity:0.1; fill:none" points="1415.94,1010.83 2352.76,1010.83 "/>
<polyline clip-path="url(#clip013)" style="stroke:#000000; stroke-linecap:round; stroke-linejoin:round; stroke-width:2; stroke-opacity:0.1; fill:none" points="1415.94,798.181 2352.76,798.181 "/>
<polyline clip-path="url(#clip013)" style="stroke:#000000; stroke-linecap:round; stroke-linejoin:round; stroke-width:2; stroke-opacity:0.1; fill:none" points="1415.94,585.535 2352.76,585.535 "/>
<polyline clip-path="url(#clip013)" style="stroke:#000000; stroke-linecap:round; stroke-linejoin:round; stroke-width:2; stroke-opacity:0.1; fill:none" points="1415.94,372.889 2352.76,372.889 "/>
<polyline clip-path="url(#clip013)" style="stroke:#000000; stroke-linecap:round; stroke-linejoin:round; stroke-width:2; stroke-opacity:0.1; fill:none" points="1415.94,160.243 2352.76,160.243 "/>
<polyline clip-path="url(#clip010)" style="stroke:#000000; stroke-linecap:round; stroke-linejoin:round; stroke-width:4; stroke-opacity:1; fill:none" points="1415.94,1099.09 2352.76,1099.09 "/>
<polyline clip-path="url(#clip010)" style="stroke:#000000; stroke-linecap:round; stroke-linejoin:round; stroke-width:4; stroke-opacity:1; fill:none" points="1610.79,1099.09 1610.79,1080.19 "/>
<polyline clip-path="url(#clip010)" style="stroke:#000000; stroke-linecap:round; stroke-linejoin:round; stroke-width:4; stroke-opacity:1; fill:none" points="1821.22,1099.09 1821.22,1080.19 "/>
<polyline clip-path="url(#clip010)" style="stroke:#000000; stroke-linecap:round; stroke-linejoin:round; stroke-width:4; stroke-opacity:1; fill:none" points="2031.65,1099.09 2031.65,1080.19 "/>
<polyline clip-path="url(#clip010)" style="stroke:#000000; stroke-linecap:round; stroke-linejoin:round; stroke-width:4; stroke-opacity:1; fill:none" points="2242.07,1099.09 2242.07,1080.19 "/>
<path clip-path="url(#clip010)" d="M1601.07 1126.93 L1619.43 1126.93 L1619.43 1130.86 L1605.35 1130.86 L1605.35 1139.34 Q1606.37 1138.99 1607.39 1138.83 Q1608.41 1138.64 1609.43 1138.64 Q1615.21 1138.64 1618.59 1141.81 Q1621.97 1144.98 1621.97 1150.4 Q1621.97 1155.98 1618.5 1159.08 Q1615.03 1162.16 1608.71 1162.16 Q1606.53 1162.16 1604.27 1161.79 Q1602.02 1161.42 1599.61 1160.68 L1599.61 1155.98 Q1601.7 1157.11 1603.92 1157.67 Q1606.14 1158.22 1608.62 1158.22 Q1612.62 1158.22 1614.96 1156.12 Q1617.3 1154.01 1617.3 1150.4 Q1617.3 1146.79 1614.96 1144.68 Q1612.62 1142.58 1608.62 1142.58 Q1606.74 1142.58 1604.87 1142.99 Q1603.02 1143.41 1601.07 1144.29 L1601.07 1126.93 Z" fill="#000000" fill-rule="nonzero" fill-opacity="1" /><path clip-path="url(#clip010)" d="M1795.91 1157.55 L1803.55 1157.55 L1803.55 1131.19 L1795.24 1132.85 L1795.24 1128.59 L1803.5 1126.93 L1808.18 1126.93 L1808.18 1157.55 L1815.81 1157.55 L1815.81 1161.49 L1795.91 1161.49 L1795.91 1157.55 Z" fill="#000000" fill-rule="nonzero" fill-opacity="1" /><path clip-path="url(#clip010)" d="M1835.26 1130.01 Q1831.65 1130.01 1829.82 1133.57 Q1828.01 1137.11 1828.01 1144.24 Q1828.01 1151.35 1829.82 1154.91 Q1831.65 1158.46 1835.26 1158.46 Q1838.89 1158.46 1840.7 1154.91 Q1842.53 1151.35 1842.53 1144.24 Q1842.53 1137.11 1840.7 1133.57 Q1838.89 1130.01 1835.26 1130.01 M1835.26 1126.3 Q1841.07 1126.3 1844.12 1130.91 Q1847.2 1135.49 1847.2 1144.24 Q1847.2 1152.97 1844.12 1157.58 Q1841.07 1162.16 1835.26 1162.16 Q1829.45 1162.16 1826.37 1157.58 Q1823.31 1152.97 1823.31 1144.24 Q1823.31 1135.49 1826.37 1130.91 Q1829.45 1126.3 1835.26 1126.3 Z" fill="#000000" fill-rule="nonzero" fill-opacity="1" /><path clip-path="url(#clip010)" d="M2006.83 1157.55 L2014.47 1157.55 L2014.47 1131.19 L2006.16 1132.85 L2006.16 1128.59 L2014.42 1126.93 L2019.1 1126.93 L2019.1 1157.55 L2026.74 1157.55 L2026.74 1161.49 L2006.83 1161.49 L2006.83 1157.55 Z" fill="#000000" fill-rule="nonzero" fill-opacity="1" /><path clip-path="url(#clip010)" d="M2036.23 1126.93 L2054.59 1126.93 L2054.59 1130.86 L2040.51 1130.86 L2040.51 1139.34 Q2041.53 1138.99 2042.55 1138.83 Q2043.57 1138.64 2044.59 1138.64 Q2050.37 1138.64 2053.75 1141.81 Q2057.13 1144.98 2057.13 1150.4 Q2057.13 1155.98 2053.66 1159.08 Q2050.19 1162.16 2043.87 1162.16 Q2041.69 1162.16 2039.42 1161.79 Q2037.18 1161.42 2034.77 1160.68 L2034.77 1155.98 Q2036.85 1157.11 2039.08 1157.67 Q2041.3 1158.22 2043.77 1158.22 Q2047.78 1158.22 2050.12 1156.12 Q2052.46 1154.01 2052.46 1150.4 Q2052.46 1146.79 2050.12 1144.68 Q2047.78 1142.58 2043.77 1142.58 Q2041.9 1142.58 2040.03 1142.99 Q2038.17 1143.41 2036.23 1144.29 L2036.23 1126.93 Z" fill="#000000" fill-rule="nonzero" fill-opacity="1" /><path clip-path="url(#clip010)" d="M2220.84 1157.55 L2237.16 1157.55 L2237.16 1161.49 L2215.22 1161.49 L2215.22 1157.55 Q2217.88 1154.8 2222.47 1150.17 Q2227.07 1145.52 2228.25 1144.17 Q2230.5 1141.65 2231.38 1139.91 Q2232.28 1138.15 2232.28 1136.46 Q2232.28 1133.71 2230.34 1131.97 Q2228.41 1130.24 2225.31 1130.24 Q2223.11 1130.24 2220.66 1131 Q2218.23 1131.77 2215.45 1133.32 L2215.45 1128.59 Q2218.28 1127.46 2220.73 1126.88 Q2223.18 1126.3 2225.22 1126.3 Q2230.59 1126.3 2233.78 1128.99 Q2236.98 1131.67 2236.98 1136.16 Q2236.98 1138.29 2236.17 1140.21 Q2235.38 1142.11 2233.28 1144.71 Q2232.7 1145.38 2229.59 1148.59 Q2226.49 1151.79 2220.84 1157.55 Z" fill="#000000" fill-rule="nonzero" fill-opacity="1" /><path clip-path="url(#clip010)" d="M2256.98 1130.01 Q2253.37 1130.01 2251.54 1133.57 Q2249.73 1137.11 2249.73 1144.24 Q2249.73 1151.35 2251.54 1154.91 Q2253.37 1158.46 2256.98 1158.46 Q2260.61 1158.46 2262.42 1154.91 Q2264.25 1151.35 2264.25 1144.24 Q2264.25 1137.11 2262.42 1133.57 Q2260.61 1130.01 2256.98 1130.01 M2256.98 1126.3 Q2262.79 1126.3 2265.84 1130.91 Q2268.92 1135.49 2268.92 1144.24 Q2268.92 1152.97 2265.84 1157.58 Q2262.79 1162.16 2256.98 1162.16 Q2251.17 1162.16 2248.09 1157.58 Q2245.03 1152.97 2245.03 1144.24 Q2245.03 1135.49 2248.09 1130.91 Q2251.17 1126.3 2256.98 1126.3 Z" fill="#000000" fill-rule="nonzero" fill-opacity="1" /><polyline clip-path="url(#clip010)" style="stroke:#000000; stroke-linecap:round; stroke-linejoin:round; stroke-width:4; stroke-opacity:1; fill:none" points="1415.94,1099.09 1415.94,92.1521 "/>
<polyline clip-path="url(#clip010)" style="stroke:#000000; stroke-linecap:round; stroke-linejoin:round; stroke-width:4; stroke-opacity:1; fill:none" points="1415.94,1010.83 1434.84,1010.83 "/>
<polyline clip-path="url(#clip010)" style="stroke:#000000; stroke-linecap:round; stroke-linejoin:round; stroke-width:4; stroke-opacity:1; fill:none" points="1415.94,798.181 1434.84,798.181 "/>
<polyline clip-path="url(#clip010)" style="stroke:#000000; stroke-linecap:round; stroke-linejoin:round; stroke-width:4; stroke-opacity:1; fill:none" points="1415.94,585.535 1434.84,585.535 "/>
<polyline clip-path="url(#clip010)" style="stroke:#000000; stroke-linecap:round; stroke-linejoin:round; stroke-width:4; stroke-opacity:1; fill:none" points="1415.94,372.889 1434.84,372.889 "/>
<polyline clip-path="url(#clip010)" style="stroke:#000000; stroke-linecap:round; stroke-linejoin:round; stroke-width:4; stroke-opacity:1; fill:none" points="1415.94,160.243 1434.84,160.243 "/>
<path clip-path="url(#clip010)" d="M1263.43 996.626 Q1259.82 996.626 1257.99 1000.19 Q1256.19 1003.73 1256.19 1010.86 Q1256.19 1017.97 1257.99 1021.53 Q1259.82 1025.08 1263.43 1025.08 Q1267.07 1025.08 1268.87 1021.53 Q1270.7 1017.97 1270.7 1010.86 Q1270.7 1003.73 1268.87 1000.19 Q1267.07 996.626 1263.43 996.626 M1263.43 992.923 Q1269.24 992.923 1272.3 997.529 Q1275.38 1002.11 1275.38 1010.86 Q1275.38 1019.59 1272.3 1024.2 Q1269.24 1028.78 1263.43 1028.78 Q1257.62 1028.78 1254.55 1024.2 Q1251.49 1019.59 1251.49 1010.86 Q1251.49 1002.11 1254.55 997.529 Q1257.62 992.923 1263.43 992.923 Z" fill="#000000" fill-rule="nonzero" fill-opacity="1" /><path clip-path="url(#clip010)" d="M1283.6 1022.23 L1288.48 1022.23 L1288.48 1028.11 L1283.6 1028.11 L1283.6 1022.23 Z" fill="#000000" fill-rule="nonzero" fill-opacity="1" /><path clip-path="url(#clip010)" d="M1298.8 1027.39 L1298.8 1023.13 Q1300.56 1023.96 1302.37 1024.4 Q1304.17 1024.84 1305.91 1024.84 Q1310.54 1024.84 1312.97 1021.74 Q1315.42 1018.62 1315.77 1012.27 Q1314.43 1014.27 1312.37 1015.33 Q1310.31 1016.39 1307.81 1016.39 Q1302.62 1016.39 1299.59 1013.27 Q1296.58 1010.12 1296.58 1004.68 Q1296.58 999.358 1299.73 996.14 Q1302.88 992.923 1308.11 992.923 Q1314.11 992.923 1317.25 997.529 Q1320.42 1002.11 1320.42 1010.86 Q1320.42 1019.03 1316.54 1023.92 Q1312.67 1028.78 1306.12 1028.78 Q1304.36 1028.78 1302.55 1028.43 Q1300.75 1028.08 1298.8 1027.39 M1308.11 1012.74 Q1311.26 1012.74 1313.09 1010.58 Q1314.94 1008.43 1314.94 1004.68 Q1314.94 1000.96 1313.09 998.802 Q1311.26 996.626 1308.11 996.626 Q1304.96 996.626 1303.11 998.802 Q1301.28 1000.96 1301.28 1004.68 Q1301.28 1008.43 1303.11 1010.58 Q1304.96 1012.74 1308.11 1012.74 Z" fill="#000000" fill-rule="nonzero" fill-opacity="1" /><path clip-path="url(#clip010)" d="M1327.65 993.548 L1349.87 993.548 L1349.87 995.538 L1337.32 1028.11 L1332.44 1028.11 L1344.24 997.483 L1327.65 997.483 L1327.65 993.548 Z" fill="#000000" fill-rule="nonzero" fill-opacity="1" /><path clip-path="url(#clip010)" d="M1359.04 993.548 L1377.39 993.548 L1377.39 997.483 L1363.32 997.483 L1363.32 1005.95 Q1364.34 1005.61 1365.35 1005.45 Q1366.37 1005.26 1367.39 1005.26 Q1373.18 1005.26 1376.56 1008.43 Q1379.94 1011.6 1379.94 1017.02 Q1379.94 1022.6 1376.47 1025.7 Q1372.99 1028.78 1366.67 1028.78 Q1364.5 1028.78 1362.23 1028.41 Q1359.98 1028.04 1357.58 1027.3 L1357.58 1022.6 Q1359.66 1023.73 1361.88 1024.29 Q1364.1 1024.84 1366.58 1024.84 Q1370.59 1024.84 1372.92 1022.74 Q1375.26 1020.63 1375.26 1017.02 Q1375.26 1013.41 1372.92 1011.3 Q1370.59 1009.2 1366.58 1009.2 Q1364.71 1009.2 1362.83 1009.61 Q1360.98 1010.03 1359.04 1010.91 L1359.04 993.548 Z" fill="#000000" fill-rule="nonzero" fill-opacity="1" /><path clip-path="url(#clip010)" d="M1253.25 811.526 L1260.89 811.526 L1260.89 785.161 L1252.58 786.827 L1252.58 782.568 L1260.84 780.901 L1265.52 780.901 L1265.52 811.526 L1273.16 811.526 L1273.16 815.461 L1253.25 815.461 L1253.25 811.526 Z" fill="#000000" fill-rule="nonzero" fill-opacity="1" /><path clip-path="url(#clip010)" d="M1282.6 809.582 L1287.48 809.582 L1287.48 815.461 L1282.6 815.461 L1282.6 809.582 Z" fill="#000000" fill-rule="nonzero" fill-opacity="1" /><path clip-path="url(#clip010)" d="M1307.67 783.98 Q1304.06 783.98 1302.23 787.545 Q1300.42 791.087 1300.42 798.216 Q1300.42 805.323 1302.23 808.887 Q1304.06 812.429 1307.67 812.429 Q1311.3 812.429 1313.11 808.887 Q1314.94 805.323 1314.94 798.216 Q1314.94 791.087 1313.11 787.545 Q1311.3 783.98 1307.67 783.98 M1307.67 780.276 Q1313.48 780.276 1316.54 784.883 Q1319.61 789.466 1319.61 798.216 Q1319.61 806.943 1316.54 811.549 Q1313.48 816.133 1307.67 816.133 Q1301.86 816.133 1298.78 811.549 Q1295.73 806.943 1295.73 798.216 Q1295.73 789.466 1298.78 784.883 Q1301.86 780.276 1307.67 780.276 Z" fill="#000000" fill-rule="nonzero" fill-opacity="1" /><path clip-path="url(#clip010)" d="M1337.83 783.98 Q1334.22 783.98 1332.39 787.545 Q1330.59 791.087 1330.59 798.216 Q1330.59 805.323 1332.39 808.887 Q1334.22 812.429 1337.83 812.429 Q1341.47 812.429 1343.27 808.887 Q1345.1 805.323 1345.1 798.216 Q1345.1 791.087 1343.27 787.545 Q1341.47 783.98 1337.83 783.98 M1337.83 780.276 Q1343.64 780.276 1346.7 784.883 Q1349.78 789.466 1349.78 798.216 Q1349.78 806.943 1346.7 811.549 Q1343.64 816.133 1337.83 816.133 Q1332.02 816.133 1328.94 811.549 Q1325.89 806.943 1325.89 798.216 Q1325.89 789.466 1328.94 784.883 Q1332.02 780.276 1337.83 780.276 Z" fill="#000000" fill-rule="nonzero" fill-opacity="1" /><path clip-path="url(#clip010)" d="M1367.99 783.98 Q1364.38 783.98 1362.55 787.545 Q1360.75 791.087 1360.75 798.216 Q1360.75 805.323 1362.55 808.887 Q1364.38 812.429 1367.99 812.429 Q1371.63 812.429 1373.43 808.887 Q1375.26 805.323 1375.26 798.216 Q1375.26 791.087 1373.43 787.545 Q1371.63 783.98 1367.99 783.98 M1367.99 780.276 Q1373.8 780.276 1376.86 784.883 Q1379.94 789.466 1379.94 798.216 Q1379.94 806.943 1376.86 811.549 Q1373.8 816.133 1367.99 816.133 Q1362.18 816.133 1359.1 811.549 Q1356.05 806.943 1356.05 798.216 Q1356.05 789.466 1359.1 784.883 Q1362.18 780.276 1367.99 780.276 Z" fill="#000000" fill-rule="nonzero" fill-opacity="1" /><path clip-path="url(#clip010)" d="M1254.24 598.88 L1261.88 598.88 L1261.88 572.515 L1253.57 574.181 L1253.57 569.922 L1261.84 568.255 L1266.51 568.255 L1266.51 598.88 L1274.15 598.88 L1274.15 602.815 L1254.24 602.815 L1254.24 598.88 Z" fill="#000000" fill-rule="nonzero" fill-opacity="1" /><path clip-path="url(#clip010)" d="M1283.6 596.936 L1288.48 596.936 L1288.48 602.815 L1283.6 602.815 L1283.6 596.936 Z" fill="#000000" fill-rule="nonzero" fill-opacity="1" /><path clip-path="url(#clip010)" d="M1308.67 571.334 Q1305.05 571.334 1303.23 574.899 Q1301.42 578.44 1301.42 585.57 Q1301.42 592.677 1303.23 596.241 Q1305.05 599.783 1308.67 599.783 Q1312.3 599.783 1314.11 596.241 Q1315.93 592.677 1315.93 585.57 Q1315.93 578.44 1314.11 574.899 Q1312.3 571.334 1308.67 571.334 M1308.67 567.63 Q1314.48 567.63 1317.53 572.237 Q1320.61 576.82 1320.61 585.57 Q1320.61 594.297 1317.53 598.903 Q1314.48 603.487 1308.67 603.487 Q1302.86 603.487 1299.78 598.903 Q1296.72 594.297 1296.72 585.57 Q1296.72 576.82 1299.78 572.237 Q1302.86 567.63 1308.67 567.63 Z" fill="#000000" fill-rule="nonzero" fill-opacity="1" /><path clip-path="url(#clip010)" d="M1332.86 598.88 L1349.17 598.88 L1349.17 602.815 L1327.23 602.815 L1327.23 598.88 Q1329.89 596.126 1334.48 591.496 Q1339.08 586.843 1340.26 585.501 Q1342.51 582.977 1343.39 581.241 Q1344.29 579.482 1344.29 577.792 Q1344.29 575.038 1342.35 573.302 Q1340.42 571.566 1337.32 571.566 Q1335.12 571.566 1332.67 572.329 Q1330.24 573.093 1327.46 574.644 L1327.46 569.922 Q1330.29 568.788 1332.74 568.209 Q1335.19 567.63 1337.23 567.63 Q1342.6 567.63 1345.79 570.316 Q1348.99 573.001 1348.99 577.491 Q1348.99 579.621 1348.18 581.542 Q1347.39 583.44 1345.29 586.033 Q1344.71 586.704 1341.61 589.922 Q1338.5 593.116 1332.86 598.88 Z" fill="#000000" fill-rule="nonzero" fill-opacity="1" /><path clip-path="url(#clip010)" d="M1359.04 568.255 L1377.39 568.255 L1377.39 572.191 L1363.32 572.191 L1363.32 580.663 Q1364.34 580.315 1365.35 580.153 Q1366.37 579.968 1367.39 579.968 Q1373.18 579.968 1376.56 583.14 Q1379.94 586.311 1379.94 591.727 Q1379.94 597.306 1376.47 600.408 Q1372.99 603.487 1366.67 603.487 Q1364.5 603.487 1362.23 603.116 Q1359.98 602.746 1357.58 602.005 L1357.58 597.306 Q1359.66 598.44 1361.88 598.996 Q1364.1 599.551 1366.58 599.551 Q1370.59 599.551 1372.92 597.445 Q1375.26 595.339 1375.26 591.727 Q1375.26 588.116 1372.92 586.01 Q1370.59 583.903 1366.58 583.903 Q1364.71 583.903 1362.83 584.32 Q1360.98 584.737 1359.04 585.616 L1359.04 568.255 Z" fill="#000000" fill-rule="nonzero" fill-opacity="1" /><path clip-path="url(#clip010)" d="M1253.25 386.234 L1260.89 386.234 L1260.89 359.868 L1252.58 361.535 L1252.58 357.276 L1260.84 355.609 L1265.52 355.609 L1265.52 386.234 L1273.16 386.234 L1273.16 390.169 L1253.25 390.169 L1253.25 386.234 Z" fill="#000000" fill-rule="nonzero" fill-opacity="1" /><path clip-path="url(#clip010)" d="M1282.6 384.29 L1287.48 384.29 L1287.48 390.169 L1282.6 390.169 L1282.6 384.29 Z" fill="#000000" fill-rule="nonzero" fill-opacity="1" /><path clip-path="url(#clip010)" d="M1307.67 358.688 Q1304.06 358.688 1302.23 362.253 Q1300.42 365.794 1300.42 372.924 Q1300.42 380.03 1302.23 383.595 Q1304.06 387.137 1307.67 387.137 Q1311.3 387.137 1313.11 383.595 Q1314.94 380.03 1314.94 372.924 Q1314.94 365.794 1313.11 362.253 Q1311.3 358.688 1307.67 358.688 M1307.67 354.984 Q1313.48 354.984 1316.54 359.591 Q1319.61 364.174 1319.61 372.924 Q1319.61 381.651 1316.54 386.257 Q1313.48 390.84 1307.67 390.84 Q1301.86 390.84 1298.78 386.257 Q1295.73 381.651 1295.73 372.924 Q1295.73 364.174 1298.78 359.591 Q1301.86 354.984 1307.67 354.984 Z" fill="#000000" fill-rule="nonzero" fill-opacity="1" /><path clip-path="url(#clip010)" d="M1327.88 355.609 L1346.23 355.609 L1346.23 359.544 L1332.16 359.544 L1332.16 368.017 Q1333.18 367.669 1334.2 367.507 Q1335.22 367.322 1336.23 367.322 Q1342.02 367.322 1345.4 370.493 Q1348.78 373.665 1348.78 379.081 Q1348.78 384.66 1345.31 387.762 Q1341.84 390.84 1335.52 390.84 Q1333.34 390.84 1331.07 390.47 Q1328.83 390.1 1326.42 389.359 L1326.42 384.66 Q1328.5 385.794 1330.73 386.35 Q1332.95 386.905 1335.42 386.905 Q1339.43 386.905 1341.77 384.799 Q1344.11 382.692 1344.11 379.081 Q1344.11 375.47 1341.77 373.364 Q1339.43 371.257 1335.42 371.257 Q1333.55 371.257 1331.67 371.674 Q1329.82 372.091 1327.88 372.97 L1327.88 355.609 Z" fill="#000000" fill-rule="nonzero" fill-opacity="1" /><path clip-path="url(#clip010)" d="M1367.99 358.688 Q1364.38 358.688 1362.55 362.253 Q1360.75 365.794 1360.75 372.924 Q1360.75 380.03 1362.55 383.595 Q1364.38 387.137 1367.99 387.137 Q1371.63 387.137 1373.43 383.595 Q1375.26 380.03 1375.26 372.924 Q1375.26 365.794 1373.43 362.253 Q1371.63 358.688 1367.99 358.688 M1367.99 354.984 Q1373.8 354.984 1376.86 359.591 Q1379.94 364.174 1379.94 372.924 Q1379.94 381.651 1376.86 386.257 Q1373.8 390.84 1367.99 390.84 Q1362.18 390.84 1359.1 386.257 Q1356.05 381.651 1356.05 372.924 Q1356.05 364.174 1359.1 359.591 Q1362.18 354.984 1367.99 354.984 Z" fill="#000000" fill-rule="nonzero" fill-opacity="1" /><path clip-path="url(#clip010)" d="M1254.24 173.588 L1261.88 173.588 L1261.88 147.222 L1253.57 148.889 L1253.57 144.63 L1261.84 142.963 L1266.51 142.963 L1266.51 173.588 L1274.15 173.588 L1274.15 177.523 L1254.24 177.523 L1254.24 173.588 Z" fill="#000000" fill-rule="nonzero" fill-opacity="1" /><path clip-path="url(#clip010)" d="M1283.6 171.643 L1288.48 171.643 L1288.48 177.523 L1283.6 177.523 L1283.6 171.643 Z" fill="#000000" fill-rule="nonzero" fill-opacity="1" /><path clip-path="url(#clip010)" d="M1308.67 146.042 Q1305.05 146.042 1303.23 149.607 Q1301.42 153.148 1301.42 160.278 Q1301.42 167.384 1303.23 170.949 Q1305.05 174.491 1308.67 174.491 Q1312.3 174.491 1314.11 170.949 Q1315.93 167.384 1315.93 160.278 Q1315.93 153.148 1314.11 149.607 Q1312.3 146.042 1308.67 146.042 M1308.67 142.338 Q1314.48 142.338 1317.53 146.945 Q1320.61 151.528 1320.61 160.278 Q1320.61 169.005 1317.53 173.611 Q1314.48 178.194 1308.67 178.194 Q1302.86 178.194 1299.78 173.611 Q1296.72 169.005 1296.72 160.278 Q1296.72 151.528 1299.78 146.945 Q1302.86 142.338 1308.67 142.338 Z" fill="#000000" fill-rule="nonzero" fill-opacity="1" /><path clip-path="url(#clip010)" d="M1327.65 142.963 L1349.87 142.963 L1349.87 144.954 L1337.32 177.523 L1332.44 177.523 L1344.24 146.898 L1327.65 146.898 L1327.65 142.963 Z" fill="#000000" fill-rule="nonzero" fill-opacity="1" /><path clip-path="url(#clip010)" d="M1359.04 142.963 L1377.39 142.963 L1377.39 146.898 L1363.32 146.898 L1363.32 155.37 Q1364.34 155.023 1365.35 154.861 Q1366.37 154.676 1367.39 154.676 Q1373.18 154.676 1376.56 157.847 Q1379.94 161.019 1379.94 166.435 Q1379.94 172.014 1376.47 175.116 Q1372.99 178.194 1366.67 178.194 Q1364.5 178.194 1362.23 177.824 Q1359.98 177.454 1357.58 176.713 L1357.58 172.014 Q1359.66 173.148 1361.88 173.704 Q1364.1 174.259 1366.58 174.259 Q1370.59 174.259 1372.92 172.153 Q1375.26 170.046 1375.26 166.435 Q1375.26 162.824 1372.92 160.718 Q1370.59 158.611 1366.58 158.611 Q1364.71 158.611 1362.83 159.028 Q1360.98 159.444 1359.04 160.324 L1359.04 142.963 Z" fill="#000000" fill-rule="nonzero" fill-opacity="1" /><path clip-path="url(#clip010)" d="M1743.63 31.7342 Q1743.63 26.5259 1741.47 23.6613 Q1739.33 20.7968 1735.45 20.7968 Q1731.6 20.7968 1729.44 23.6613 Q1727.3 26.5259 1727.3 31.7342 Q1727.3 36.9165 1729.44 39.781 Q1731.6 42.6456 1735.45 42.6456 Q1739.33 42.6456 1741.47 39.781 Q1743.63 36.9165 1743.63 31.7342 M1748.42 43.0362 Q1748.42 50.4841 1745.12 54.1039 Q1741.81 57.7497 1734.99 57.7497 Q1732.46 57.7497 1730.22 57.3591 Q1727.98 56.9945 1725.87 56.2132 L1725.87 51.5518 Q1727.98 52.6976 1730.04 53.2445 Q1732.1 53.7914 1734.23 53.7914 Q1738.94 53.7914 1741.29 51.3174 Q1743.63 48.8695 1743.63 43.8956 L1743.63 41.5258 Q1742.15 44.1039 1739.83 45.38 Q1737.51 46.656 1734.28 46.656 Q1728.92 46.656 1725.64 42.5675 Q1722.36 38.479 1722.36 31.7342 Q1722.36 24.9634 1725.64 20.8749 Q1728.92 16.7864 1734.28 16.7864 Q1737.51 16.7864 1739.83 18.0624 Q1742.15 19.3384 1743.63 21.9165 L1743.63 17.4895 L1748.42 17.4895 L1748.42 43.0362 Z" fill="#000000" fill-rule="nonzero" fill-opacity="1" /><path clip-path="url(#clip010)" d="M1777.49 21.9165 L1777.49 6.13538 L1782.28 6.13538 L1782.28 46.656 L1777.49 46.656 L1777.49 42.281 Q1775.98 44.8852 1773.66 46.1612 Q1771.37 47.4112 1768.14 47.4112 Q1762.85 47.4112 1759.52 43.1925 Q1756.21 38.9737 1756.21 32.0988 Q1756.21 25.2238 1759.52 21.0051 Q1762.85 16.7864 1768.14 16.7864 Q1771.37 16.7864 1773.66 18.0624 Q1775.98 19.3124 1777.49 21.9165 M1761.16 32.0988 Q1761.16 37.3852 1763.32 40.406 Q1765.51 43.4008 1769.31 43.4008 Q1773.11 43.4008 1775.3 40.406 Q1777.49 37.3852 1777.49 32.0988 Q1777.49 26.8124 1775.3 23.8176 Q1773.11 20.7968 1769.31 20.7968 Q1765.51 20.7968 1763.32 23.8176 Q1761.16 26.8124 1761.16 32.0988 Z" fill="#000000" fill-rule="nonzero" fill-opacity="1" /><path clip-path="url(#clip010)" d="M1796.78 42.281 L1796.78 57.7497 L1791.96 57.7497 L1791.96 17.4895 L1796.78 17.4895 L1796.78 21.9165 Q1798.29 19.3124 1800.58 18.0624 Q1802.9 16.7864 1806.11 16.7864 Q1811.42 16.7864 1814.73 21.0051 Q1818.06 25.2238 1818.06 32.0988 Q1818.06 38.9737 1814.73 43.1925 Q1811.42 47.4112 1806.11 47.4112 Q1802.9 47.4112 1800.58 46.1612 Q1798.29 44.8852 1796.78 42.281 M1813.08 32.0988 Q1813.08 26.8124 1810.9 23.8176 Q1808.74 20.7968 1804.93 20.7968 Q1801.13 20.7968 1798.94 23.8176 Q1796.78 26.8124 1796.78 32.0988 Q1796.78 37.3852 1798.94 40.406 Q1801.13 43.4008 1804.93 43.4008 Q1808.74 43.4008 1810.9 40.406 Q1813.08 37.3852 1813.08 32.0988 Z" fill="#000000" fill-rule="nonzero" fill-opacity="1" /><path clip-path="url(#clip010)" d="M1862.15 21.9165 L1862.15 6.13538 L1866.94 6.13538 L1866.94 46.656 L1862.15 46.656 L1862.15 42.281 Q1860.64 44.8852 1858.32 46.1612 Q1856.03 47.4112 1852.8 47.4112 Q1847.51 47.4112 1844.18 43.1925 Q1840.87 38.9737 1840.87 32.0988 Q1840.87 25.2238 1844.18 21.0051 Q1847.51 16.7864 1852.8 16.7864 Q1856.03 16.7864 1858.32 18.0624 Q1860.64 19.3124 1862.15 21.9165 M1845.82 32.0988 Q1845.82 37.3852 1847.98 40.406 Q1850.17 43.4008 1853.97 43.4008 Q1857.77 43.4008 1859.96 40.406 Q1862.15 37.3852 1862.15 32.0988 Q1862.15 26.8124 1859.96 23.8176 Q1857.77 20.7968 1853.97 20.7968 Q1850.17 20.7968 1847.98 23.8176 Q1845.82 26.8124 1845.82 32.0988 Z" fill="#000000" fill-rule="nonzero" fill-opacity="1" /><path clip-path="url(#clip010)" d="M1901.76 30.8748 L1901.76 33.2186 L1879.72 33.2186 Q1880.04 38.1665 1882.69 40.7706 Q1885.38 43.3487 1890.14 43.3487 Q1892.9 43.3487 1895.48 42.6716 Q1898.08 41.9946 1900.64 40.6404 L1900.64 45.1716 Q1898.06 46.2654 1895.35 46.8383 Q1892.64 47.4112 1889.85 47.4112 Q1882.88 47.4112 1878.79 43.3487 Q1874.72 39.2862 1874.72 32.3592 Q1874.72 25.1978 1878.58 21.0051 Q1882.46 16.7864 1889.02 16.7864 Q1894.91 16.7864 1898.32 20.5884 Q1901.76 24.3645 1901.76 30.8748 M1896.96 29.4686 Q1896.91 25.5363 1894.75 23.1926 Q1892.62 20.8488 1889.07 20.8488 Q1885.06 20.8488 1882.64 23.1145 Q1880.25 25.3801 1879.88 29.4946 L1896.96 29.4686 Z" fill="#000000" fill-rule="nonzero" fill-opacity="1" /><path clip-path="url(#clip010)" d="M1924.39 6.13538 L1924.39 10.1197 L1919.8 10.1197 Q1917.22 10.1197 1916.21 11.1614 Q1915.22 12.2031 1915.22 14.9114 L1915.22 17.4895 L1923.11 17.4895 L1923.11 21.2134 L1915.22 21.2134 L1915.22 46.656 L1910.4 46.656 L1910.4 21.2134 L1905.82 21.2134 L1905.82 17.4895 L1910.4 17.4895 L1910.4 15.4583 Q1910.4 10.5885 1912.67 8.37496 Q1914.93 6.13538 1919.85 6.13538 L1924.39 6.13538 Z" fill="#000000" fill-rule="nonzero" fill-opacity="1" /><path clip-path="url(#clip010)" d="M1928.4 6.13538 L1933.19 6.13538 L1933.19 46.656 L1928.4 46.656 L1928.4 6.13538 Z" fill="#000000" fill-rule="nonzero" fill-opacity="1" /><path clip-path="url(#clip010)" d="M1956.47 31.9946 Q1950.66 31.9946 1948.42 33.3227 Q1946.18 34.6509 1946.18 37.854 Q1946.18 40.406 1947.85 41.9164 Q1949.54 43.4008 1952.43 43.4008 Q1956.42 43.4008 1958.81 40.5883 Q1961.23 37.7498 1961.23 33.0623 L1961.23 31.9946 L1956.47 31.9946 M1966.03 30.0155 L1966.03 46.656 L1961.23 46.656 L1961.23 42.2289 Q1959.59 44.8852 1957.15 46.1612 Q1954.7 47.4112 1951.16 47.4112 Q1946.68 47.4112 1944.02 44.9112 Q1941.39 42.3852 1941.39 38.1665 Q1941.39 33.2446 1944.67 30.7446 Q1947.98 28.2446 1954.52 28.2446 L1961.23 28.2446 L1961.23 27.7759 Q1961.23 24.4686 1959.05 22.6718 Q1956.89 20.8488 1952.95 20.8488 Q1950.45 20.8488 1948.08 21.4478 Q1945.71 22.0468 1943.53 23.2447 L1943.53 18.8176 Q1946.16 17.802 1948.63 17.3072 Q1951.1 16.7864 1953.45 16.7864 Q1959.78 16.7864 1962.9 20.0676 Q1966.03 23.3488 1966.03 30.0155 Z" fill="#000000" fill-rule="nonzero" fill-opacity="1" /><path clip-path="url(#clip010)" d="M1980.64 9.20828 L1980.64 17.4895 L1990.51 17.4895 L1990.51 21.2134 L1980.64 21.2134 L1980.64 37.0467 Q1980.64 40.6144 1981.6 41.63 Q1982.59 42.6456 1985.58 42.6456 L1990.51 42.6456 L1990.51 46.656 L1985.58 46.656 Q1980.04 46.656 1977.93 44.5987 Q1975.82 42.5154 1975.82 37.0467 L1975.82 21.2134 L1972.3 21.2134 L1972.3 17.4895 L1975.82 17.4895 L1975.82 9.20828 L1980.64 9.20828 Z" fill="#000000" fill-rule="nonzero" fill-opacity="1" /><path clip-path="url(#clip010)" d="M2008.11 20.8488 Q2004.26 20.8488 2002.02 23.8697 Q1999.78 26.8644 1999.78 32.0988 Q1999.78 37.3331 2001.99 40.354 Q2004.23 43.3487 2008.11 43.3487 Q2011.94 43.3487 2014.18 40.3279 Q2016.42 37.3071 2016.42 32.0988 Q2016.42 26.9165 2014.18 23.8957 Q2011.94 20.8488 2008.11 20.8488 M2008.11 16.7864 Q2014.36 16.7864 2017.93 20.8488 Q2021.49 24.9113 2021.49 32.0988 Q2021.49 39.2602 2017.93 43.3487 Q2014.36 47.4112 2008.11 47.4112 Q2001.83 47.4112 1998.27 43.3487 Q1994.72 39.2602 1994.72 32.0988 Q1994.72 24.9113 1998.27 20.8488 Q2001.83 16.7864 2008.11 16.7864 Z" fill="#000000" fill-rule="nonzero" fill-opacity="1" /><path clip-path="url(#clip010)" d="M2046.34 21.9686 Q2045.53 21.4999 2044.57 21.2916 Q2043.63 21.0572 2042.48 21.0572 Q2038.42 21.0572 2036.23 23.7134 Q2034.07 26.3436 2034.07 31.2915 L2034.07 46.656 L2029.26 46.656 L2029.26 17.4895 L2034.07 17.4895 L2034.07 22.0207 Q2035.58 19.3645 2038.01 18.0884 Q2040.43 16.7864 2043.89 16.7864 Q2044.39 16.7864 2044.98 16.8645 Q2045.58 16.9166 2046.31 17.0468 L2046.34 21.9686 Z" fill="#000000" fill-rule="nonzero" fill-opacity="1" /><path clip-path="url(#clip013)" d="M1526.62 812.065 L1568.71 829.177 L1610.79 886.384 L1652.88 935.336 L1694.96 926.52 L1737.05 951.839 L1779.13 953.658 L1821.22 982.932 L1863.3 1040.81 L1905.39 1061.08 L1947.47 1070.59 L1989.56 1047.4 L2031.65 1041.74 L2073.73 1033.49 L2115.82 1064.96 L2157.9 1030.32 L2199.99 1030.64 L2242.07 1015.47 L2284.16 1007.18 L2326.24 974.56 L2326.24 230.686 L2284.16 221.715 L2242.07 210.812 L2199.99 218.934 L2157.9 247.386 L2115.82 278.003 L2073.73 317.033 L2031.65 317.197 L1989.56 340.002 L1947.47 394.85 L1905.39 424.835 L1863.3 444.899 L1821.22 469.232 L1779.13 482.389 L1737.05 572.019 L1694.96 617.417 L1652.88 657.806 L1610.79 673.137 L1568.71 712.57 L1526.62 742.406  Z" fill="#009af9" fill-rule="evenodd" fill-opacity="0.1"/>
<polyline clip-path="url(#clip013)" style="stroke:#009af9; stroke-linecap:round; stroke-linejoin:round; stroke-width:4; stroke-opacity:1; fill:none" points="1526.62,777.236 1568.71,770.874 1610.79,779.761 1652.88,796.571 1694.96,771.969 1737.05,761.929 1779.13,718.024 1821.22,726.082 1863.3,742.856 1905.39,742.957 1947.47,732.72 1989.56,693.7 2031.65,679.47 2073.73,675.259 2115.82,671.479 2157.9,638.855 2199.99,624.786 2242.07,613.142 2284.16,614.449 2326.24,602.623 "/>
<path clip-path="url(#clip013)" d="M1526.62 814.52 L1568.71 823.91 L1610.79 818.615 L1652.88 819.035 L1694.96 835.361 L1737.05 816.593 L1779.13 781.412 L1821.22 710.545 L1863.3 673.751 L1905.39 643.329 L1947.47 611.812 L1989.56 594.885 L2031.65 581.371 L2073.73 529.155 L2115.82 492.056 L2157.9 463.196 L2199.99 455.245 L2242.07 442.409 L2284.16 390.43 L2326.24 385.193 L2326.24 120.65 L2284.16 129.387 L2242.07 147.641 L2199.99 143.062 L2157.9 173.435 L2115.82 263.347 L2073.73 272.511 L2031.65 275.625 L1989.56 277.5 L1947.47 306.206 L1905.39 362.804 L1863.3 357.502 L1821.22 457.249 L1779.13 491.292 L1737.05 536.322 L1694.96 593.614 L1652.88 693.832 L1610.79 746.672 L1568.71 749.176 L1526.62 731.025  Z" fill="#e26f46" fill-rule="evenodd" fill-opacity="0.1"/>
<polyline clip-path="url(#clip013)" style="stroke:#e26f46; stroke-linecap:round; stroke-linejoin:round; stroke-width:4; stroke-opacity:1; fill:none" points="1526.62,772.773 1568.71,786.543 1610.79,782.643 1652.88,756.434 1694.96,714.488 1737.05,676.457 1779.13,636.352 1821.22,583.897 1863.3,515.627 1905.39,503.067 1947.47,459.009 1989.56,436.192 2031.65,428.498 2073.73,400.833 2115.82,377.702 2157.9,318.315 2199.99,299.153 2242.07,295.025 2284.16,259.908 2326.24,252.922 "/>
</svg>
