<?xml version="1.0" encoding="utf-8"?>
<svg xmlns="http://www.w3.org/2000/svg" xmlns:xlink="http://www.w3.org/1999/xlink" width="600" height="300" viewBox="0 0 2400 1200">
<defs>
  <clipPath id="clip230">
    <rect x="0" y="0" width="2400" height="1200"/>
  </clipPath>
</defs>
<path clip-path="url(#clip230)" d="M0 1200 L2400 1200 L2400 0 L0 0  Z" fill="#ffffff" fill-rule="evenodd" fill-opacity="1"/>
<defs>
  <clipPath id="clip231">
    <rect x="480" y="0" width="1681" height="1200"/>
  </clipPath>
</defs>
<path clip-path="url(#clip230)" d="M216.436 1099.09 L1153.8 1099.09 L1153.8 92.1521 L216.436 92.1521  Z" fill="#ffffff" fill-rule="evenodd" fill-opacity="1"/>
<defs>
  <clipPath id="clip232">
    <rect x="216" y="92" width="938" height="1008"/>
  </clipPath>
</defs>
<polyline clip-path="url(#clip232)" style="stroke:#000000; stroke-linecap:round; stroke-linejoin:round; stroke-width:2; stroke-opacity:0.1; fill:none" points="411.404,1099.09 411.404,92.1521 "/>
<polyline clip-path="url(#clip232)" style="stroke:#000000; stroke-linecap:round; stroke-linejoin:round; stroke-width:2; stroke-opacity:0.1; fill:none" points="621.952,1099.09 621.952,92.1521 "/>
<polyline clip-path="url(#clip232)" style="stroke:#000000; stroke-linecap:round; stroke-linejoin:round; stroke-width:2; stroke-opacity:0.1; fill:none" points="832.501,1099.09 832.501,92.1521 "/>
<polyline clip-path="url(#clip232)" style="stroke:#000000; stroke-linecap:round; stroke-linejoin:round; stroke-width:2; stroke-opacity:0.1; fill:none" points="1043.05,1099.09 1043.05,92.1521 "/>
<polyline clip-path="url(#clip232)" style="stroke:#000000; stroke-linecap:round; stroke-linejoin:round; stroke-width:2; stroke-opacity:0.1; fill:none" points="216.436,1083.75 1153.8,1083.75 "/>
<polyline clip-path="url(#clip232)" style="stroke:#000000; stroke-linecap:round; stroke-linejoin:round; stroke-width:2; stroke-opacity:0.1; fill:none" points="216.436,842.973 1153.8,842.973 "/>
<polyline clip-path="url(#clip232)" style="stroke:#000000; stroke-linecap:round; stroke-linejoin:round; stroke-width:2; stroke-opacity:0.1; fill:none" points="216.436,602.199 1153.8,602.199 "/>
<polyline clip-path="url(#clip232)" style="stroke:#000000; stroke-linecap:round; stroke-linejoin:round; stroke-width:2; stroke-opacity:0.1; fill:none" points="216.436,361.424 1153.8,361.424 "/>
<polyline clip-path="url(#clip232)" style="stroke:#000000; stroke-linecap:round; stroke-linejoin:round; stroke-width:2; stroke-opacity:0.1; fill:none" points="216.436,120.65 1153.8,120.65 "/>
<polyline clip-path="url(#clip230)" style="stroke:#000000; stroke-linecap:round; stroke-linejoin:round; stroke-width:4; stroke-opacity:1; fill:none" points="216.436,1099.09 1153.8,1099.09 "/>
<polyline clip-path="url(#clip230)" style="stroke:#000000; stroke-linecap:round; stroke-linejoin:round; stroke-width:4; stroke-opacity:1; fill:none" points="411.404,1099.09 411.404,1080.19 "/>
<polyline clip-path="url(#clip230)" style="stroke:#000000; stroke-linecap:round; stroke-linejoin:round; stroke-width:4; stroke-opacity:1; fill:none" points="621.952,1099.09 621.952,1080.19 "/>
<polyline clip-path="url(#clip230)" style="stroke:#000000; stroke-linecap:round; stroke-linejoin:round; stroke-width:4; stroke-opacity:1; fill:none" points="832.501,1099.09 832.501,1080.19 "/>
<polyline clip-path="url(#clip230)" style="stroke:#000000; stroke-linecap:round; stroke-linejoin:round; stroke-width:4; stroke-opacity:1; fill:none" points="1043.05,1099.09 1043.05,1080.19 "/>
<path clip-path="url(#clip230)" d="M401.682 1126.93 L420.038 1126.93 L420.038 1130.86 L405.964 1130.86 L405.964 1139.34 Q406.982 1138.99 408.001 1138.83 Q409.019 1138.64 410.038 1138.64 Q415.825 1138.64 419.205 1141.81 Q422.584 1144.98 422.584 1150.4 Q422.584 1155.98 419.112 1159.08 Q415.64 1162.16 409.32 1162.16 Q407.145 1162.16 404.876 1161.79 Q402.631 1161.42 400.223 1160.68 L400.223 1155.98 Q402.307 1157.11 404.529 1157.67 Q406.751 1158.22 409.228 1158.22 Q413.232 1158.22 415.57 1156.12 Q417.908 1154.01 417.908 1150.4 Q417.908 1146.79 415.57 1144.68 Q413.232 1142.58 409.228 1142.58 Q407.353 1142.58 405.478 1142.99 Q403.626 1143.41 401.682 1144.29 L401.682 1126.93 Z" fill="#000000" fill-rule="nonzero" fill-opacity="1" /><path clip-path="url(#clip230)" d="M596.64 1157.55 L604.279 1157.55 L604.279 1131.19 L595.969 1132.85 L595.969 1128.59 L604.232 1126.93 L608.908 1126.93 L608.908 1157.55 L616.547 1157.55 L616.547 1161.49 L596.64 1161.49 L596.64 1157.55 Z" fill="#000000" fill-rule="nonzero" fill-opacity="1" /><path clip-path="url(#clip230)" d="M635.991 1130.01 Q632.38 1130.01 630.552 1133.57 Q628.746 1137.11 628.746 1144.24 Q628.746 1151.35 630.552 1154.91 Q632.38 1158.46 635.991 1158.46 Q639.626 1158.46 641.431 1154.91 Q643.26 1151.35 643.26 1144.24 Q643.26 1137.11 641.431 1133.57 Q639.626 1130.01 635.991 1130.01 M635.991 1126.3 Q641.802 1126.3 644.857 1130.91 Q647.936 1135.49 647.936 1144.24 Q647.936 1152.97 644.857 1157.58 Q641.802 1162.16 635.991 1162.16 Q630.181 1162.16 627.103 1157.58 Q624.047 1152.97 624.047 1144.24 Q624.047 1135.49 627.103 1130.91 Q630.181 1126.3 635.991 1126.3 Z" fill="#000000" fill-rule="nonzero" fill-opacity="1" /><path clip-path="url(#clip230)" d="M807.686 1157.55 L815.325 1157.55 L815.325 1131.19 L807.015 1132.85 L807.015 1128.59 L815.279 1126.93 L819.954 1126.93 L819.954 1157.55 L827.593 1157.55 L827.593 1161.49 L807.686 1161.49 L807.686 1157.55 Z" fill="#000000" fill-rule="nonzero" fill-opacity="1" /><path clip-path="url(#clip230)" d="M837.084 1126.93 L855.44 1126.93 L855.44 1130.86 L841.366 1130.86 L841.366 1139.34 Q842.385 1138.99 843.403 1138.83 Q844.422 1138.64 845.44 1138.64 Q851.227 1138.64 854.607 1141.81 Q857.987 1144.98 857.987 1150.4 Q857.987 1155.98 854.514 1159.08 Q851.042 1162.16 844.723 1162.16 Q842.547 1162.16 840.278 1161.79 Q838.033 1161.42 835.626 1160.68 L835.626 1155.98 Q837.709 1157.11 839.931 1157.67 Q842.153 1158.22 844.63 1158.22 Q848.635 1158.22 850.973 1156.12 Q853.311 1154.01 853.311 1150.4 Q853.311 1146.79 850.973 1144.68 Q848.635 1142.58 844.63 1142.58 Q842.755 1142.58 840.88 1142.99 Q839.028 1143.41 837.084 1144.29 L837.084 1126.93 Z" fill="#000000" fill-rule="nonzero" fill-opacity="1" /><path clip-path="url(#clip230)" d="M1021.82 1157.55 L1038.14 1157.55 L1038.14 1161.49 L1016.2 1161.49 L1016.2 1157.55 Q1018.86 1154.8 1023.44 1150.17 Q1028.05 1145.52 1029.23 1144.17 Q1031.48 1141.65 1032.35 1139.91 Q1033.26 1138.15 1033.26 1136.46 Q1033.26 1133.71 1031.31 1131.97 Q1029.39 1130.24 1026.29 1130.24 Q1024.09 1130.24 1021.64 1131 Q1019.21 1131.77 1016.43 1133.32 L1016.43 1128.59 Q1019.25 1127.46 1021.71 1126.88 Q1024.16 1126.3 1026.2 1126.3 Q1031.57 1126.3 1034.76 1128.99 Q1037.96 1131.67 1037.96 1136.16 Q1037.96 1138.29 1037.15 1140.21 Q1036.36 1142.11 1034.25 1144.71 Q1033.67 1145.38 1030.57 1148.59 Q1027.47 1151.79 1021.82 1157.55 Z" fill="#000000" fill-rule="nonzero" fill-opacity="1" /><path clip-path="url(#clip230)" d="M1057.96 1130.01 Q1054.35 1130.01 1052.52 1133.57 Q1050.71 1137.11 1050.71 1144.24 Q1050.71 1151.35 1052.52 1154.91 Q1054.35 1158.46 1057.96 1158.46 Q1061.59 1158.46 1063.4 1154.91 Q1065.22 1151.35 1065.22 1144.24 Q1065.22 1137.11 1063.4 1133.57 Q1061.59 1130.01 1057.96 1130.01 M1057.96 1126.3 Q1063.77 1126.3 1066.82 1130.91 Q1069.9 1135.49 1069.9 1144.24 Q1069.9 1152.97 1066.82 1157.58 Q1063.77 1162.16 1057.96 1162.16 Q1052.15 1162.16 1049.07 1157.58 Q1046.01 1152.97 1046.01 1144.24 Q1046.01 1135.49 1049.07 1130.91 Q1052.15 1126.3 1057.96 1126.3 Z" fill="#000000" fill-rule="nonzero" fill-opacity="1" /><polyline clip-path="url(#clip230)" style="stroke:#000000; stroke-linecap:round; stroke-linejoin:round; stroke-width:4; stroke-opacity:1; fill:none" points="216.436,1099.09 216.436,92.1521 "/>
<polyline clip-path="url(#clip230)" style="stroke:#000000; stroke-linecap:round; stroke-linejoin:round; stroke-width:4; stroke-opacity:1; fill:none" points="216.436,1083.75 235.334,1083.75 "/>
<polyline clip-path="url(#clip230)" style="stroke:#000000; stroke-linecap:round; stroke-linejoin:round; stroke-width:4; stroke-opacity:1; fill:none" points="216.436,842.973 235.334,842.973 "/>
<polyline clip-path="url(#clip230)" style="stroke:#000000; stroke-linecap:round; stroke-linejoin:round; stroke-width:4; stroke-opacity:1; fill:none" points="216.436,602.199 235.334,602.199 "/>
<polyline clip-path="url(#clip230)" style="stroke:#000000; stroke-linecap:round; stroke-linejoin:round; stroke-width:4; stroke-opacity:1; fill:none" points="216.436,361.424 235.334,361.424 "/>
<polyline clip-path="url(#clip230)" style="stroke:#000000; stroke-linecap:round; stroke-linejoin:round; stroke-width:4; stroke-opacity:1; fill:none" points="216.436,120.65 235.334,120.65 "/>
<path clip-path="url(#clip230)" d="M62.9365 1069.55 Q59.3254 1069.55 57.4967 1073.11 Q55.6912 1076.65 55.6912 1083.78 Q55.6912 1090.89 57.4967 1094.45 Q59.3254 1097.99 62.9365 1097.99 Q66.5707 1097.99 68.3763 1094.45 Q70.205 1090.89 70.205 1083.78 Q70.205 1076.65 68.3763 1073.11 Q66.5707 1069.55 62.9365 1069.55 M62.9365 1065.84 Q68.7467 1065.84 71.8022 1070.45 Q74.8809 1075.03 74.8809 1083.78 Q74.8809 1092.51 71.8022 1097.11 Q68.7467 1101.7 62.9365 1101.7 Q57.1264 1101.7 54.0477 1097.11 Q50.9921 1092.51 50.9921 1083.78 Q50.9921 1075.03 54.0477 1070.45 Q57.1264 1065.84 62.9365 1065.84 Z" fill="#000000" fill-rule="nonzero" fill-opacity="1" /><path clip-path="url(#clip230)" d="M83.0984 1095.15 L87.9827 1095.15 L87.9827 1101.03 L83.0984 1101.03 L83.0984 1095.15 Z" fill="#000000" fill-rule="nonzero" fill-opacity="1" /><path clip-path="url(#clip230)" d="M108.168 1069.55 Q104.557 1069.55 102.728 1073.11 Q100.922 1076.65 100.922 1083.78 Q100.922 1090.89 102.728 1094.45 Q104.557 1097.99 108.168 1097.99 Q111.802 1097.99 113.608 1094.45 Q115.436 1090.89 115.436 1083.78 Q115.436 1076.65 113.608 1073.11 Q111.802 1069.55 108.168 1069.55 M108.168 1065.84 Q113.978 1065.84 117.033 1070.45 Q120.112 1075.03 120.112 1083.78 Q120.112 1092.51 117.033 1097.11 Q113.978 1101.7 108.168 1101.7 Q102.358 1101.7 99.2789 1097.11 Q96.2234 1092.51 96.2234 1083.78 Q96.2234 1075.03 99.2789 1070.45 Q102.358 1065.84 108.168 1065.84 Z" fill="#000000" fill-rule="nonzero" fill-opacity="1" /><path clip-path="url(#clip230)" d="M138.33 1069.55 Q134.719 1069.55 132.89 1073.11 Q131.084 1076.65 131.084 1083.78 Q131.084 1090.89 132.89 1094.45 Q134.719 1097.99 138.33 1097.99 Q141.964 1097.99 143.769 1094.45 Q145.598 1090.89 145.598 1083.78 Q145.598 1076.65 143.769 1073.11 Q141.964 1069.55 138.33 1069.55 M138.33 1065.84 Q144.14 1065.84 147.195 1070.45 Q150.274 1075.03 150.274 1083.78 Q150.274 1092.51 147.195 1097.11 Q144.14 1101.7 138.33 1101.7 Q132.519 1101.7 129.441 1097.11 Q126.385 1092.51 126.385 1083.78 Q126.385 1075.03 129.441 1070.45 Q132.519 1065.84 138.33 1065.84 Z" fill="#000000" fill-rule="nonzero" fill-opacity="1" /><path clip-path="url(#clip230)" d="M168.491 1069.55 Q164.88 1069.55 163.052 1073.11 Q161.246 1076.65 161.246 1083.78 Q161.246 1090.89 163.052 1094.45 Q164.88 1097.99 168.491 1097.99 Q172.126 1097.99 173.931 1094.45 Q175.76 1090.89 175.76 1083.78 Q175.76 1076.65 173.931 1073.11 Q172.126 1069.55 168.491 1069.55 M168.491 1065.84 Q174.302 1065.84 177.357 1070.45 Q180.436 1075.03 180.436 1083.78 Q180.436 1092.51 177.357 1097.11 Q174.302 1101.7 168.491 1101.7 Q162.681 1101.7 159.603 1097.11 Q156.547 1092.51 156.547 1083.78 Q156.547 1075.03 159.603 1070.45 Q162.681 1065.84 168.491 1065.84 Z" fill="#000000" fill-rule="nonzero" fill-opacity="1" /><path clip-path="url(#clip230)" d="M63.9319 828.771 Q60.3208 828.771 58.4921 832.336 Q56.6865 835.878 56.6865 843.007 Q56.6865 850.114 58.4921 853.679 Q60.3208 857.22 63.9319 857.22 Q67.5661 857.22 69.3717 853.679 Q71.2004 850.114 71.2004 843.007 Q71.2004 835.878 69.3717 832.336 Q67.5661 828.771 63.9319 828.771 M63.9319 825.068 Q69.742 825.068 72.7976 829.674 Q75.8763 834.258 75.8763 843.007 Q75.8763 851.734 72.7976 856.341 Q69.742 860.924 63.9319 860.924 Q58.1217 860.924 55.043 856.341 Q51.9875 851.734 51.9875 843.007 Q51.9875 834.258 55.043 829.674 Q58.1217 825.068 63.9319 825.068 Z" fill="#000000" fill-rule="nonzero" fill-opacity="1" /><path clip-path="url(#clip230)" d="M84.0938 854.373 L88.978 854.373 L88.978 860.253 L84.0938 860.253 L84.0938 854.373 Z" fill="#000000" fill-rule="nonzero" fill-opacity="1" /><path clip-path="url(#clip230)" d="M109.163 828.771 Q105.552 828.771 103.723 832.336 Q101.918 835.878 101.918 843.007 Q101.918 850.114 103.723 853.679 Q105.552 857.22 109.163 857.22 Q112.797 857.22 114.603 853.679 Q116.432 850.114 116.432 843.007 Q116.432 835.878 114.603 832.336 Q112.797 828.771 109.163 828.771 M109.163 825.068 Q114.973 825.068 118.029 829.674 Q121.107 834.258 121.107 843.007 Q121.107 851.734 118.029 856.341 Q114.973 860.924 109.163 860.924 Q103.353 860.924 100.274 856.341 Q97.2187 851.734 97.2187 843.007 Q97.2187 834.258 100.274 829.674 Q103.353 825.068 109.163 825.068 Z" fill="#000000" fill-rule="nonzero" fill-opacity="1" /><path clip-path="url(#clip230)" d="M139.325 828.771 Q135.714 828.771 133.885 832.336 Q132.08 835.878 132.08 843.007 Q132.08 850.114 133.885 853.679 Q135.714 857.22 139.325 857.22 Q142.959 857.22 144.765 853.679 Q146.593 850.114 146.593 843.007 Q146.593 835.878 144.765 832.336 Q142.959 828.771 139.325 828.771 M139.325 825.068 Q145.135 825.068 148.191 829.674 Q151.269 834.258 151.269 843.007 Q151.269 851.734 148.191 856.341 Q145.135 860.924 139.325 860.924 Q133.515 860.924 130.436 856.341 Q127.381 851.734 127.381 843.007 Q127.381 834.258 130.436 829.674 Q133.515 825.068 139.325 825.068 Z" fill="#000000" fill-rule="nonzero" fill-opacity="1" /><path clip-path="url(#clip230)" d="M159.533 825.693 L177.89 825.693 L177.89 829.628 L163.816 829.628 L163.816 838.1 Q164.834 837.753 165.853 837.591 Q166.871 837.406 167.89 837.406 Q173.677 837.406 177.056 840.577 Q180.436 843.748 180.436 849.165 Q180.436 854.744 176.964 857.845 Q173.491 860.924 167.172 860.924 Q164.996 860.924 162.728 860.554 Q160.482 860.183 158.075 859.443 L158.075 854.744 Q160.158 855.878 162.38 856.433 Q164.603 856.989 167.079 856.989 Q171.084 856.989 173.422 854.882 Q175.76 852.776 175.76 849.165 Q175.76 845.554 173.422 843.447 Q171.084 841.341 167.079 841.341 Q165.204 841.341 163.329 841.757 Q161.478 842.174 159.533 843.054 L159.533 825.693 Z" fill="#000000" fill-rule="nonzero" fill-opacity="1" /><path clip-path="url(#clip230)" d="M62.9365 587.997 Q59.3254 587.997 57.4967 591.562 Q55.6912 595.104 55.6912 602.233 Q55.6912 609.34 57.4967 612.905 Q59.3254 616.446 62.9365 616.446 Q66.5707 616.446 68.3763 612.905 Q70.205 609.34 70.205 602.233 Q70.205 595.104 68.3763 591.562 Q66.5707 587.997 62.9365 587.997 M62.9365 584.294 Q68.7467 584.294 71.8022 588.9 Q74.8809 593.483 74.8809 602.233 Q74.8809 610.96 71.8022 615.567 Q68.7467 620.15 62.9365 620.15 Q57.1264 620.15 54.0477 615.567 Q50.9921 610.96 50.9921 602.233 Q50.9921 593.483 54.0477 588.9 Q57.1264 584.294 62.9365 584.294 Z" fill="#000000" fill-rule="nonzero" fill-opacity="1" /><path clip-path="url(#clip230)" d="M83.0984 613.599 L87.9827 613.599 L87.9827 619.479 L83.0984 619.479 L83.0984 613.599 Z" fill="#000000" fill-rule="nonzero" fill-opacity="1" /><path clip-path="url(#clip230)" d="M108.168 587.997 Q104.557 587.997 102.728 591.562 Q100.922 595.104 100.922 602.233 Q100.922 609.34 102.728 612.905 Q104.557 616.446 108.168 616.446 Q111.802 616.446 113.608 612.905 Q115.436 609.34 115.436 602.233 Q115.436 595.104 113.608 591.562 Q111.802 587.997 108.168 587.997 M108.168 584.294 Q113.978 584.294 117.033 588.9 Q120.112 593.483 120.112 602.233 Q120.112 610.96 117.033 615.567 Q113.978 620.15 108.168 620.15 Q102.358 620.15 99.2789 615.567 Q96.2234 610.96 96.2234 602.233 Q96.2234 593.483 99.2789 588.9 Q102.358 584.294 108.168 584.294 Z" fill="#000000" fill-rule="nonzero" fill-opacity="1" /><path clip-path="url(#clip230)" d="M129.14 615.543 L136.779 615.543 L136.779 589.178 L128.469 590.844 L128.469 586.585 L136.732 584.919 L141.408 584.919 L141.408 615.543 L149.047 615.543 L149.047 619.479 L129.14 619.479 L129.14 615.543 Z" fill="#000000" fill-rule="nonzero" fill-opacity="1" /><path clip-path="url(#clip230)" d="M168.491 587.997 Q164.88 587.997 163.052 591.562 Q161.246 595.104 161.246 602.233 Q161.246 609.34 163.052 612.905 Q164.88 616.446 168.491 616.446 Q172.126 616.446 173.931 612.905 Q175.76 609.34 175.76 602.233 Q175.76 595.104 173.931 591.562 Q172.126 587.997 168.491 587.997 M168.491 584.294 Q174.302 584.294 177.357 588.9 Q180.436 593.483 180.436 602.233 Q180.436 610.96 177.357 615.567 Q174.302 620.15 168.491 620.15 Q162.681 620.15 159.603 615.567 Q156.547 610.96 156.547 602.233 Q156.547 593.483 159.603 588.9 Q162.681 584.294 168.491 584.294 Z" fill="#000000" fill-rule="nonzero" fill-opacity="1" /><path clip-path="url(#clip230)" d="M63.9319 347.223 Q60.3208 347.223 58.4921 350.788 Q56.6865 354.33 56.6865 361.459 Q56.6865 368.566 58.4921 372.13 Q60.3208 375.672 63.9319 375.672 Q67.5661 375.672 69.3717 372.13 Q71.2004 368.566 71.2004 361.459 Q71.2004 354.33 69.3717 350.788 Q67.5661 347.223 63.9319 347.223 M63.9319 343.519 Q69.742 343.519 72.7976 348.126 Q75.8763 352.709 75.8763 361.459 Q75.8763 370.186 72.7976 374.792 Q69.742 379.376 63.9319 379.376 Q58.1217 379.376 55.043 374.792 Q51.9875 370.186 51.9875 361.459 Q51.9875 352.709 55.043 348.126 Q58.1217 343.519 63.9319 343.519 Z" fill="#000000" fill-rule="nonzero" fill-opacity="1" /><path clip-path="url(#clip230)" d="M84.0938 372.825 L88.978 372.825 L88.978 378.704 L84.0938 378.704 L84.0938 372.825 Z" fill="#000000" fill-rule="nonzero" fill-opacity="1" /><path clip-path="url(#clip230)" d="M109.163 347.223 Q105.552 347.223 103.723 350.788 Q101.918 354.33 101.918 361.459 Q101.918 368.566 103.723 372.13 Q105.552 375.672 109.163 375.672 Q112.797 375.672 114.603 372.13 Q116.432 368.566 116.432 361.459 Q116.432 354.33 114.603 350.788 Q112.797 347.223 109.163 347.223 M109.163 343.519 Q114.973 343.519 118.029 348.126 Q121.107 352.709 121.107 361.459 Q121.107 370.186 118.029 374.792 Q114.973 379.376 109.163 379.376 Q103.353 379.376 100.274 374.792 Q97.2187 370.186 97.2187 361.459 Q97.2187 352.709 100.274 348.126 Q103.353 343.519 109.163 343.519 Z" fill="#000000" fill-rule="nonzero" fill-opacity="1" /><path clip-path="url(#clip230)" d="M130.135 374.769 L137.774 374.769 L137.774 348.404 L129.464 350.07 L129.464 345.811 L137.728 344.144 L142.404 344.144 L142.404 374.769 L150.043 374.769 L150.043 378.704 L130.135 378.704 L130.135 374.769 Z" fill="#000000" fill-rule="nonzero" fill-opacity="1" /><path clip-path="url(#clip230)" d="M159.533 344.144 L177.89 344.144 L177.89 348.08 L163.816 348.08 L163.816 356.552 Q164.834 356.205 165.853 356.043 Q166.871 355.857 167.89 355.857 Q173.677 355.857 177.056 359.029 Q180.436 362.2 180.436 367.617 Q180.436 373.195 176.964 376.297 Q173.491 379.376 167.172 379.376 Q164.996 379.376 162.728 379.005 Q160.482 378.635 158.075 377.894 L158.075 373.195 Q160.158 374.329 162.38 374.885 Q164.603 375.441 167.079 375.441 Q171.084 375.441 173.422 373.334 Q175.76 371.228 175.76 367.617 Q175.76 364.005 173.422 361.899 Q171.084 359.793 167.079 359.793 Q165.204 359.793 163.329 360.209 Q161.478 360.626 159.533 361.505 L159.533 344.144 Z" fill="#000000" fill-rule="nonzero" fill-opacity="1" /><path clip-path="url(#clip230)" d="M62.9365 106.449 Q59.3254 106.449 57.4967 110.014 Q55.6912 113.555 55.6912 120.685 Q55.6912 127.791 57.4967 131.356 Q59.3254 134.898 62.9365 134.898 Q66.5707 134.898 68.3763 131.356 Q70.205 127.791 70.205 120.685 Q70.205 113.555 68.3763 110.014 Q66.5707 106.449 62.9365 106.449 M62.9365 102.745 Q68.7467 102.745 71.8022 107.352 Q74.8809 111.935 74.8809 120.685 Q74.8809 129.412 71.8022 134.018 Q68.7467 138.602 62.9365 138.602 Q57.1264 138.602 54.0477 134.018 Q50.9921 129.412 50.9921 120.685 Q50.9921 111.935 54.0477 107.352 Q57.1264 102.745 62.9365 102.745 Z" fill="#000000" fill-rule="nonzero" fill-opacity="1" /><path clip-path="url(#clip230)" d="M83.0984 132.051 L87.9827 132.051 L87.9827 137.93 L83.0984 137.93 L83.0984 132.051 Z" fill="#000000" fill-rule="nonzero" fill-opacity="1" /><path clip-path="url(#clip230)" d="M108.168 106.449 Q104.557 106.449 102.728 110.014 Q100.922 113.555 100.922 120.685 Q100.922 127.791 102.728 131.356 Q104.557 134.898 108.168 134.898 Q111.802 134.898 113.608 131.356 Q115.436 127.791 115.436 120.685 Q115.436 113.555 113.608 110.014 Q111.802 106.449 108.168 106.449 M108.168 102.745 Q113.978 102.745 117.033 107.352 Q120.112 111.935 120.112 120.685 Q120.112 129.412 117.033 134.018 Q113.978 138.602 108.168 138.602 Q102.358 138.602 99.2789 134.018 Q96.2234 129.412 96.2234 120.685 Q96.2234 111.935 99.2789 107.352 Q102.358 102.745 108.168 102.745 Z" fill="#000000" fill-rule="nonzero" fill-opacity="1" /><path clip-path="url(#clip230)" d="M132.357 133.995 L148.677 133.995 L148.677 137.93 L126.732 137.93 L126.732 133.995 Q129.394 131.241 133.978 126.611 Q138.584 121.958 139.765 120.616 Q142.01 118.092 142.89 116.356 Q143.793 114.597 143.793 112.907 Q143.793 110.153 141.848 108.417 Q139.927 106.68 136.825 106.68 Q134.626 106.68 132.172 107.444 Q129.742 108.208 126.964 109.759 L126.964 105.037 Q129.788 103.903 132.242 103.324 Q134.695 102.745 136.732 102.745 Q142.103 102.745 145.297 105.43 Q148.492 108.116 148.492 112.606 Q148.492 114.736 147.681 116.657 Q146.894 118.555 144.788 121.148 Q144.209 121.819 141.107 125.037 Q138.006 128.231 132.357 133.995 Z" fill="#000000" fill-rule="nonzero" fill-opacity="1" /><path clip-path="url(#clip230)" d="M168.491 106.449 Q164.88 106.449 163.052 110.014 Q161.246 113.555 161.246 120.685 Q161.246 127.791 163.052 131.356 Q164.88 134.898 168.491 134.898 Q172.126 134.898 173.931 131.356 Q175.76 127.791 175.76 120.685 Q175.76 113.555 173.931 110.014 Q172.126 106.449 168.491 106.449 M168.491 102.745 Q174.302 102.745 177.357 107.352 Q180.436 111.935 180.436 120.685 Q180.436 129.412 177.357 134.018 Q174.302 138.602 168.491 138.602 Q162.681 138.602 159.603 134.018 Q156.547 129.412 156.547 120.685 Q156.547 111.935 159.603 107.352 Q162.681 102.745 168.491 102.745 Z" fill="#000000" fill-rule="nonzero" fill-opacity="1" /><path clip-path="url(#clip230)" d="M617.734 30.8748 L617.734 33.2186 L595.703 33.2186 Q596.016 38.1665 598.672 40.7706 Q601.354 43.3487 606.12 43.3487 Q608.88 43.3487 611.458 42.6716 Q614.062 41.9946 616.614 40.6404 L616.614 45.1716 Q614.036 46.2654 611.328 46.8383 Q608.62 47.4112 605.833 47.4112 Q598.854 47.4112 594.766 43.3487 Q590.703 39.2862 590.703 32.3592 Q590.703 25.1978 594.557 21.0051 Q598.437 16.7864 605 16.7864 Q610.885 16.7864 614.297 20.5884 Q617.734 24.3645 617.734 30.8748 M612.943 29.4686 Q612.891 25.5363 610.729 23.1926 Q608.594 20.8488 605.052 20.8488 Q601.042 20.8488 598.62 23.1145 Q596.224 25.3801 595.859 29.4946 L612.943 29.4686 Z" fill="#000000" fill-rule="nonzero" fill-opacity="1" /><path clip-path="url(#clip230)" d="M625.104 35.1456 L625.104 17.4895 L629.896 17.4895 L629.896 34.9634 Q629.896 39.104 631.51 41.1873 Q633.125 43.2446 636.354 43.2446 Q640.234 43.2446 642.474 40.7706 Q644.739 38.2967 644.739 34.0259 L644.739 17.4895 L649.531 17.4895 L649.531 46.656 L644.739 46.656 L644.739 42.1769 Q642.995 44.8331 640.677 46.1352 Q638.385 47.4112 635.338 47.4112 Q630.312 47.4112 627.708 44.2862 Q625.104 41.1612 625.104 35.1456 M637.161 16.7864 L637.161 16.7864 Z" fill="#000000" fill-rule="nonzero" fill-opacity="1" /><path clip-path="url(#clip230)" d="M676.302 21.9686 Q675.494 21.4999 674.531 21.2916 Q673.593 21.0572 672.448 21.0572 Q668.385 21.0572 666.198 23.7134 Q664.036 26.3436 664.036 31.2915 L664.036 46.656 L659.218 46.656 L659.218 17.4895 L664.036 17.4895 L664.036 22.0207 Q665.547 19.3645 667.968 18.0884 Q670.39 16.7864 673.854 16.7864 Q674.349 16.7864 674.948 16.8645 Q675.546 16.9166 676.276 17.0468 L676.302 21.9686 Z" fill="#000000" fill-rule="nonzero" fill-opacity="1" /><path clip-path="url(#clip230)" d="M681.328 17.4895 L686.119 17.4895 L686.119 46.656 L681.328 46.656 L681.328 17.4895 M681.328 6.13538 L686.119 6.13538 L686.119 12.2031 L681.328 12.2031 L681.328 6.13538 Z" fill="#000000" fill-rule="nonzero" fill-opacity="1" /><path clip-path="url(#clip230)" d="M717.083 32.0988 Q717.083 26.8124 714.895 23.8176 Q712.734 20.7968 708.932 20.7968 Q705.13 20.7968 702.942 23.8176 Q700.781 26.8124 700.781 32.0988 Q700.781 37.3852 702.942 40.406 Q705.13 43.4008 708.932 43.4008 Q712.734 43.4008 714.895 40.406 Q717.083 37.3852 717.083 32.0988 M700.781 21.9165 Q702.291 19.3124 704.583 18.0624 Q706.9 16.7864 710.104 16.7864 Q715.416 16.7864 718.723 21.0051 Q722.057 25.2238 722.057 32.0988 Q722.057 38.9737 718.723 43.1925 Q715.416 47.4112 710.104 47.4112 Q706.9 47.4112 704.583 46.1612 Q702.291 44.8852 700.781 42.281 L700.781 46.656 L695.963 46.656 L695.963 6.13538 L700.781 6.13538 L700.781 21.9165 Z" fill="#000000" fill-rule="nonzero" fill-opacity="1" /><path clip-path="url(#clip230)" d="M741.301 20.8488 Q737.447 20.8488 735.208 23.8697 Q732.968 26.8644 732.968 32.0988 Q732.968 37.3331 735.182 40.354 Q737.421 43.3487 741.301 43.3487 Q745.129 43.3487 747.369 40.3279 Q749.609 37.3071 749.609 32.0988 Q749.609 26.9165 747.369 23.8957 Q745.129 20.8488 741.301 20.8488 M741.301 16.7864 Q747.551 16.7864 751.119 20.8488 Q754.687 24.9113 754.687 32.0988 Q754.687 39.2602 751.119 43.3487 Q747.551 47.4112 741.301 47.4112 Q735.025 47.4112 731.458 43.3487 Q727.916 39.2602 727.916 32.0988 Q727.916 24.9113 731.458 20.8488 Q735.025 16.7864 741.301 16.7864 Z" fill="#000000" fill-rule="nonzero" fill-opacity="1" /><path clip-path="url(#clip230)" d="M779.53 21.9686 Q778.723 21.4999 777.759 21.2916 Q776.822 21.0572 775.676 21.0572 Q771.614 21.0572 769.426 23.7134 Q767.265 26.3436 767.265 31.2915 L767.265 46.656 L762.447 46.656 L762.447 17.4895 L767.265 17.4895 L767.265 22.0207 Q768.775 19.3645 771.197 18.0884 Q773.619 16.7864 777.082 16.7864 Q777.577 16.7864 778.176 16.8645 Q778.775 16.9166 779.504 17.0468 L779.53 21.9686 Z" fill="#000000" fill-rule="nonzero" fill-opacity="1" /><path clip-path="url(#clip232)" d="M242.965 1004.49 L285.075 1004.49 L327.184 1015.7 L369.294 1008.05 L411.404 1024.15 L453.513 1035.47 L495.623 1007.07 L537.733 1015.94 L579.842 1010.87 L621.952 1049.28 L664.062 1048.27 L706.172 1056.92 L748.281 1036.16 L790.391 1041.09 L832.501 1063.55 L874.61 1070.59 L916.72 1022.17 L958.83 1024.06 L1000.94 1016.15 L1043.05 1021.95 L1085.16 1031.83 L1127.27 1008.58 L1127.27 916.258 L1085.16 930.264 L1043.05 965.991 L1000.94 938.878 L958.83 965.365 L916.72 985.646 L874.61 995.686 L832.501 969.212 L790.391 994.947 L748.281 954.3 L706.172 944.736 L664.062 947.857 L621.952 935.255 L579.842 928.83 L537.733 908.9 L495.623 906.107 L453.513 919.095 L411.404 934.602 L369.294 933.766 L327.184 996.403 L285.075 1004.49 L242.965 1004.49  Z" fill="#009af9" fill-rule="evenodd" fill-opacity="0.1"/>
<polyline clip-path="url(#clip232)" style="stroke:#009af9; stroke-linecap:round; stroke-linejoin:round; stroke-width:4; stroke-opacity:1; fill:none" points="242.965,1004.49 285.075,1004.49 327.184,1006.05 369.294,970.906 411.404,979.376 453.513,977.281 495.623,956.588 537.733,962.419 579.842,969.848 621.952,992.269 664.062,998.063 706.172,1000.83 748.281,995.228 790.391,1018.02 832.501,1016.38 874.61,1033.14 916.72,1003.91 958.83,994.714 1000.94,977.512 1043.05,993.973 1085.16,981.049 1127.27,962.42 "/>
<path clip-path="url(#clip232)" d="M242.965 1004.49 L285.075 1004.49 L327.184 120.65 L369.294 120.65 L411.404 120.65 L453.513 120.65 L495.623 120.65 L537.733 120.65 L579.842 120.65 L621.952 120.65 L664.062 120.65 L706.172 120.65 L748.281 120.65 L790.391 120.65 L832.501 120.65 L874.61 120.65 L916.72 120.65 L958.83 120.65 L1000.94 120.65 L1043.05 120.65 L1085.16 120.65 L1127.27 120.65 L1127.27 120.65 L1085.16 120.65 L1043.05 120.65 L1000.94 120.65 L958.83 120.65 L916.72 120.65 L874.61 120.65 L832.501 120.65 L790.391 120.65 L748.281 120.65 L706.172 120.65 L664.062 120.65 L621.952 120.65 L579.842 120.65 L537.733 120.65 L495.623 120.65 L453.513 120.65 L411.404 120.65 L369.294 120.65 L327.184 120.65 L285.075 1004.49 L242.965 1004.49  Z" fill="#e26f46" fill-rule="evenodd" fill-opacity="0.1"/>
<polyline clip-path="url(#clip232)" style="stroke:#e26f46; stroke-linecap:round; stroke-linejoin:round; stroke-width:4; stroke-opacity:1; fill:none" points="242.965,1004.49 285.075,1004.49 327.184,120.65 369.294,120.65 411.404,120.65 453.513,120.65 495.623,120.65 537.733,120.65 579.842,120.65 621.952,120.65 664.062,120.65 706.172,120.65 748.281,120.65 790.391,120.65 832.501,120.65 874.61,120.65 916.72,120.65 958.83,120.65 1000.94,120.65 1043.05,120.65 1085.16,120.65 1127.27,120.65 "/>
<path clip-path="url(#clip230)" d="M1415.39 1099.09 L2352.76 1099.09 L2352.76 92.1521 L1415.39 92.1521  Z" fill="#ffffff" fill-rule="evenodd" fill-opacity="1"/>
<defs>
  <clipPath id="clip233">
    <rect x="1415" y="92" width="938" height="1008"/>
  </clipPath>
</defs>
<polyline clip-path="url(#clip233)" style="stroke:#000000; stroke-linecap:round; stroke-linejoin:round; stroke-width:2; stroke-opacity:0.1; fill:none" points="1610.36,1099.09 1610.36,92.1521 "/>
<polyline clip-path="url(#clip233)" style="stroke:#000000; stroke-linecap:round; stroke-linejoin:round; stroke-width:2; stroke-opacity:0.1; fill:none" points="1820.91,1099.09 1820.91,92.1521 "/>
<polyline clip-path="url(#clip233)" style="stroke:#000000; stroke-linecap:round; stroke-linejoin:round; stroke-width:2; stroke-opacity:0.1; fill:none" points="2031.46,1099.09 2031.46,92.1521 "/>
<polyline clip-path="url(#clip233)" style="stroke:#000000; stroke-linecap:round; stroke-linejoin:round; stroke-width:2; stroke-opacity:0.1; fill:none" points="2242.01,1099.09 2242.01,92.1521 "/>
<polyline clip-path="url(#clip233)" style="stroke:#000000; stroke-linecap:round; stroke-linejoin:round; stroke-width:2; stroke-opacity:0.1; fill:none" points="1415.39,1009.66 2352.76,1009.66 "/>
<polyline clip-path="url(#clip233)" style="stroke:#000000; stroke-linecap:round; stroke-linejoin:round; stroke-width:2; stroke-opacity:0.1; fill:none" points="1415.39,789.498 2352.76,789.498 "/>
<polyline clip-path="url(#clip233)" style="stroke:#000000; stroke-linecap:round; stroke-linejoin:round; stroke-width:2; stroke-opacity:0.1; fill:none" points="1415.39,569.333 2352.76,569.333 "/>
<polyline clip-path="url(#clip233)" style="stroke:#000000; stroke-linecap:round; stroke-linejoin:round; stroke-width:2; stroke-opacity:0.1; fill:none" points="1415.39,349.168 2352.76,349.168 "/>
<polyline clip-path="url(#clip233)" style="stroke:#000000; stroke-linecap:round; stroke-linejoin:round; stroke-width:2; stroke-opacity:0.1; fill:none" points="1415.39,129.003 2352.76,129.003 "/>
<polyline clip-path="url(#clip230)" style="stroke:#000000; stroke-linecap:round; stroke-linejoin:round; stroke-width:4; stroke-opacity:1; fill:none" points="1415.39,1099.09 2352.76,1099.09 "/>
<polyline clip-path="url(#clip230)" style="stroke:#000000; stroke-linecap:round; stroke-linejoin:round; stroke-width:4; stroke-opacity:1; fill:none" points="1610.36,1099.09 1610.36,1080.19 "/>
<polyline clip-path="url(#clip230)" style="stroke:#000000; stroke-linecap:round; stroke-linejoin:round; stroke-width:4; stroke-opacity:1; fill:none" points="1820.91,1099.09 1820.91,1080.19 "/>
<polyline clip-path="url(#clip230)" style="stroke:#000000; stroke-linecap:round; stroke-linejoin:round; stroke-width:4; stroke-opacity:1; fill:none" points="2031.46,1099.09 2031.46,1080.19 "/>
<polyline clip-path="url(#clip230)" style="stroke:#000000; stroke-linecap:round; stroke-linejoin:round; stroke-width:4; stroke-opacity:1; fill:none" points="2242.01,1099.09 2242.01,1080.19 "/>
<path clip-path="url(#clip230)" d="M1600.64 1126.93 L1619 1126.93 L1619 1130.86 L1604.92 1130.86 L1604.92 1139.34 Q1605.94 1138.99 1606.96 1138.83 Q1607.98 1138.64 1609 1138.64 Q1614.78 1138.64 1618.16 1141.81 Q1621.54 1144.98 1621.54 1150.4 Q1621.54 1155.98 1618.07 1159.08 Q1614.6 1162.16 1608.28 1162.16 Q1606.1 1162.16 1603.83 1161.79 Q1601.59 1161.42 1599.18 1160.68 L1599.18 1155.98 Q1601.26 1157.11 1603.49 1157.67 Q1605.71 1158.22 1608.19 1158.22 Q1612.19 1158.22 1614.53 1156.12 Q1616.87 1154.01 1616.87 1150.4 Q1616.87 1146.79 1614.53 1144.68 Q1612.19 1142.58 1608.19 1142.58 Q1606.31 1142.58 1604.44 1142.99 Q1602.58 1143.41 1600.64 1144.29 L1600.64 1126.93 Z" fill="#000000" fill-rule="nonzero" fill-opacity="1" /><path clip-path="url(#clip230)" d="M1795.6 1157.55 L1803.24 1157.55 L1803.24 1131.19 L1794.93 1132.85 L1794.93 1128.59 L1803.19 1126.93 L1807.87 1126.93 L1807.87 1157.55 L1815.51 1157.55 L1815.51 1161.49 L1795.6 1161.49 L1795.6 1157.55 Z" fill="#000000" fill-rule="nonzero" fill-opacity="1" /><path clip-path="url(#clip230)" d="M1834.95 1130.01 Q1831.34 1130.01 1829.51 1133.57 Q1827.7 1137.11 1827.7 1144.24 Q1827.7 1151.35 1829.51 1154.91 Q1831.34 1158.46 1834.95 1158.46 Q1838.58 1158.46 1840.39 1154.91 Q1842.22 1151.35 1842.22 1144.24 Q1842.22 1137.11 1840.39 1133.57 Q1838.58 1130.01 1834.95 1130.01 M1834.95 1126.3 Q1840.76 1126.3 1843.82 1130.91 Q1846.89 1135.49 1846.89 1144.24 Q1846.89 1152.97 1843.82 1157.58 Q1840.76 1162.16 1834.95 1162.16 Q1829.14 1162.16 1826.06 1157.58 Q1823.01 1152.97 1823.01 1144.24 Q1823.01 1135.49 1826.06 1130.91 Q1829.14 1126.3 1834.95 1126.3 Z" fill="#000000" fill-rule="nonzero" fill-opacity="1" /><path clip-path="url(#clip230)" d="M2006.64 1157.55 L2014.28 1157.55 L2014.28 1131.19 L2005.97 1132.85 L2005.97 1128.59 L2014.24 1126.93 L2018.91 1126.93 L2018.91 1157.55 L2026.55 1157.55 L2026.55 1161.49 L2006.64 1161.49 L2006.64 1157.55 Z" fill="#000000" fill-rule="nonzero" fill-opacity="1" /><path clip-path="url(#clip230)" d="M2036.04 1126.93 L2054.4 1126.93 L2054.4 1130.86 L2040.32 1130.86 L2040.32 1139.34 Q2041.34 1138.99 2042.36 1138.83 Q2043.38 1138.64 2044.4 1138.64 Q2050.19 1138.64 2053.57 1141.81 Q2056.94 1144.98 2056.94 1150.4 Q2056.94 1155.98 2053.47 1159.08 Q2050 1162.16 2043.68 1162.16 Q2041.51 1162.16 2039.24 1161.79 Q2036.99 1161.42 2034.58 1160.68 L2034.58 1155.98 Q2036.67 1157.11 2038.89 1157.67 Q2041.11 1158.22 2043.59 1158.22 Q2047.59 1158.22 2049.93 1156.12 Q2052.27 1154.01 2052.27 1150.4 Q2052.27 1146.79 2049.93 1144.68 Q2047.59 1142.58 2043.59 1142.58 Q2041.71 1142.58 2039.84 1142.99 Q2037.99 1143.41 2036.04 1144.29 L2036.04 1126.93 Z" fill="#000000" fill-rule="nonzero" fill-opacity="1" /><path clip-path="url(#clip230)" d="M2220.78 1157.55 L2237.1 1157.55 L2237.1 1161.49 L2215.16 1161.49 L2215.16 1157.55 Q2217.82 1154.8 2222.4 1150.17 Q2227.01 1145.52 2228.19 1144.17 Q2230.43 1141.65 2231.31 1139.91 Q2232.22 1138.15 2232.22 1136.46 Q2232.22 1133.71 2230.27 1131.97 Q2228.35 1130.24 2225.25 1130.24 Q2223.05 1130.24 2220.6 1131 Q2218.16 1131.77 2215.39 1133.32 L2215.39 1128.59 Q2218.21 1127.46 2220.66 1126.88 Q2223.12 1126.3 2225.16 1126.3 Q2230.53 1126.3 2233.72 1128.99 Q2236.91 1131.67 2236.91 1136.16 Q2236.91 1138.29 2236.1 1140.21 Q2235.32 1142.11 2233.21 1144.71 Q2232.63 1145.38 2229.53 1148.59 Q2226.43 1151.79 2220.78 1157.55 Z" fill="#000000" fill-rule="nonzero" fill-opacity="1" /><path clip-path="url(#clip230)" d="M2256.91 1130.01 Q2253.3 1130.01 2251.47 1133.57 Q2249.67 1137.11 2249.67 1144.24 Q2249.67 1151.35 2251.47 1154.91 Q2253.3 1158.46 2256.91 1158.46 Q2260.55 1158.46 2262.35 1154.91 Q2264.18 1151.35 2264.18 1144.24 Q2264.18 1137.11 2262.35 1133.57 Q2260.55 1130.01 2256.91 1130.01 M2256.91 1126.3 Q2262.72 1126.3 2265.78 1130.91 Q2268.86 1135.49 2268.86 1144.24 Q2268.86 1152.97 2265.78 1157.58 Q2262.72 1162.16 2256.91 1162.16 Q2251.1 1162.16 2248.03 1157.58 Q2244.97 1152.97 2244.97 1144.24 Q2244.97 1135.49 2248.03 1130.91 Q2251.1 1126.3 2256.91 1126.3 Z" fill="#000000" fill-rule="nonzero" fill-opacity="1" /><polyline clip-path="url(#clip230)" style="stroke:#000000; stroke-linecap:round; stroke-linejoin:round; stroke-width:4; stroke-opacity:1; fill:none" points="1415.39,1099.09 1415.39,92.1521 "/>
<polyline clip-path="url(#clip230)" style="stroke:#000000; stroke-linecap:round; stroke-linejoin:round; stroke-width:4; stroke-opacity:1; fill:none" points="1415.39,1009.66 1434.29,1009.66 "/>
<polyline clip-path="url(#clip230)" style="stroke:#000000; stroke-linecap:round; stroke-linejoin:round; stroke-width:4; stroke-opacity:1; fill:none" points="1415.39,789.498 1434.29,789.498 "/>
<polyline clip-path="url(#clip230)" style="stroke:#000000; stroke-linecap:round; stroke-linejoin:round; stroke-width:4; stroke-opacity:1; fill:none" points="1415.39,569.333 1434.29,569.333 "/>
<polyline clip-path="url(#clip230)" style="stroke:#000000; stroke-linecap:round; stroke-linejoin:round; stroke-width:4; stroke-opacity:1; fill:none" points="1415.39,349.168 1434.29,349.168 "/>
<polyline clip-path="url(#clip230)" style="stroke:#000000; stroke-linecap:round; stroke-linejoin:round; stroke-width:4; stroke-opacity:1; fill:none" points="1415.39,129.003 1434.29,129.003 "/>
<path clip-path="url(#clip230)" d="M1252.71 1023.01 L1260.34 1023.01 L1260.34 996.643 L1252.03 998.309 L1252.03 994.05 L1260.3 992.383 L1264.97 992.383 L1264.97 1023.01 L1272.61 1023.01 L1272.61 1026.94 L1252.71 1026.94 L1252.71 1023.01 Z" fill="#000000" fill-rule="nonzero" fill-opacity="1" /><path clip-path="url(#clip230)" d="M1282.06 1021.06 L1286.94 1021.06 L1286.94 1026.94 L1282.06 1026.94 L1282.06 1021.06 Z" fill="#000000" fill-rule="nonzero" fill-opacity="1" /><path clip-path="url(#clip230)" d="M1307.13 995.462 Q1303.51 995.462 1301.69 999.027 Q1299.88 1002.57 1299.88 1009.7 Q1299.88 1016.8 1301.69 1020.37 Q1303.51 1023.91 1307.13 1023.91 Q1310.76 1023.91 1312.57 1020.37 Q1314.39 1016.8 1314.39 1009.7 Q1314.39 1002.57 1312.57 999.027 Q1310.76 995.462 1307.13 995.462 M1307.13 991.758 Q1312.94 991.758 1315.99 996.365 Q1319.07 1000.95 1319.07 1009.7 Q1319.07 1018.43 1315.99 1023.03 Q1312.94 1027.61 1307.13 1027.61 Q1301.32 1027.61 1298.24 1023.03 Q1295.18 1018.43 1295.18 1009.7 Q1295.18 1000.95 1298.24 996.365 Q1301.32 991.758 1307.13 991.758 Z" fill="#000000" fill-rule="nonzero" fill-opacity="1" /><path clip-path="url(#clip230)" d="M1337.29 995.462 Q1333.68 995.462 1331.85 999.027 Q1330.04 1002.57 1330.04 1009.7 Q1330.04 1016.8 1331.85 1020.37 Q1333.68 1023.91 1337.29 1023.91 Q1340.92 1023.91 1342.73 1020.37 Q1344.56 1016.8 1344.56 1009.7 Q1344.56 1002.57 1342.73 999.027 Q1340.92 995.462 1337.29 995.462 M1337.29 991.758 Q1343.1 991.758 1346.15 996.365 Q1349.23 1000.95 1349.23 1009.7 Q1349.23 1018.43 1346.15 1023.03 Q1343.1 1027.61 1337.29 1027.61 Q1331.48 1027.61 1328.4 1023.03 Q1325.34 1018.43 1325.34 1009.7 Q1325.34 1000.95 1328.4 996.365 Q1331.48 991.758 1337.29 991.758 Z" fill="#000000" fill-rule="nonzero" fill-opacity="1" /><path clip-path="url(#clip230)" d="M1367.45 995.462 Q1363.84 995.462 1362.01 999.027 Q1360.2 1002.57 1360.2 1009.7 Q1360.2 1016.8 1362.01 1020.37 Q1363.84 1023.91 1367.45 1023.91 Q1371.08 1023.91 1372.89 1020.37 Q1374.72 1016.8 1374.72 1009.7 Q1374.72 1002.57 1372.89 999.027 Q1371.08 995.462 1367.45 995.462 M1367.45 991.758 Q1373.26 991.758 1376.32 996.365 Q1379.39 1000.95 1379.39 1009.7 Q1379.39 1018.43 1376.32 1023.03 Q1373.26 1027.61 1367.45 1027.61 Q1361.64 1027.61 1358.56 1023.03 Q1355.51 1018.43 1355.51 1009.7 Q1355.51 1000.95 1358.56 996.365 Q1361.64 991.758 1367.45 991.758 Z" fill="#000000" fill-rule="nonzero" fill-opacity="1" /><path clip-path="url(#clip230)" d="M1253.7 802.843 L1261.34 802.843 L1261.34 776.478 L1253.03 778.144 L1253.03 773.885 L1261.29 772.218 L1265.97 772.218 L1265.97 802.843 L1273.61 802.843 L1273.61 806.778 L1253.7 806.778 L1253.7 802.843 Z" fill="#000000" fill-rule="nonzero" fill-opacity="1" /><path clip-path="url(#clip230)" d="M1283.05 800.899 L1287.94 800.899 L1287.94 806.778 L1283.05 806.778 L1283.05 800.899 Z" fill="#000000" fill-rule="nonzero" fill-opacity="1" /><path clip-path="url(#clip230)" d="M1308.12 775.297 Q1304.51 775.297 1302.68 778.862 Q1300.88 782.403 1300.88 789.533 Q1300.88 796.639 1302.68 800.204 Q1304.51 803.746 1308.12 803.746 Q1311.76 803.746 1313.56 800.204 Q1315.39 796.639 1315.39 789.533 Q1315.39 782.403 1313.56 778.862 Q1311.76 775.297 1308.12 775.297 M1308.12 771.593 Q1313.93 771.593 1316.99 776.2 Q1320.07 780.783 1320.07 789.533 Q1320.07 798.26 1316.99 802.866 Q1313.93 807.45 1308.12 807.45 Q1302.31 807.45 1299.23 802.866 Q1296.18 798.26 1296.18 789.533 Q1296.18 780.783 1299.23 776.2 Q1302.31 771.593 1308.12 771.593 Z" fill="#000000" fill-rule="nonzero" fill-opacity="1" /><path clip-path="url(#clip230)" d="M1332.31 802.843 L1348.63 802.843 L1348.63 806.778 L1326.69 806.778 L1326.69 802.843 Q1329.35 800.088 1333.93 795.459 Q1338.54 790.806 1339.72 789.464 Q1341.96 786.94 1342.84 785.204 Q1343.75 783.445 1343.75 781.755 Q1343.75 779.001 1341.8 777.265 Q1339.88 775.528 1336.78 775.528 Q1334.58 775.528 1332.13 776.292 Q1329.7 777.056 1326.92 778.607 L1326.92 773.885 Q1329.74 772.751 1332.2 772.172 Q1334.65 771.593 1336.69 771.593 Q1342.06 771.593 1345.25 774.278 Q1348.45 776.964 1348.45 781.454 Q1348.45 783.584 1347.64 785.505 Q1346.85 787.403 1344.74 789.996 Q1344.16 790.667 1341.06 793.885 Q1337.96 797.079 1332.31 802.843 Z" fill="#000000" fill-rule="nonzero" fill-opacity="1" /><path clip-path="url(#clip230)" d="M1358.49 772.218 L1376.85 772.218 L1376.85 776.153 L1362.77 776.153 L1362.77 784.626 Q1363.79 784.278 1364.81 784.116 Q1365.83 783.931 1366.85 783.931 Q1372.63 783.931 1376.01 787.102 Q1379.39 790.274 1379.39 795.69 Q1379.39 801.269 1375.92 804.371 Q1372.45 807.45 1366.13 807.45 Q1363.95 807.45 1361.69 807.079 Q1359.44 806.709 1357.03 805.968 L1357.03 801.269 Q1359.12 802.403 1361.34 802.959 Q1363.56 803.514 1366.04 803.514 Q1370.04 803.514 1372.38 801.408 Q1374.72 799.301 1374.72 795.69 Q1374.72 792.079 1372.38 789.973 Q1370.04 787.866 1366.04 787.866 Q1364.16 787.866 1362.29 788.283 Q1360.44 788.7 1358.49 789.579 L1358.49 772.218 Z" fill="#000000" fill-rule="nonzero" fill-opacity="1" /><path clip-path="url(#clip230)" d="M1252.71 582.678 L1260.34 582.678 L1260.34 556.312 L1252.03 557.979 L1252.03 553.72 L1260.3 552.053 L1264.97 552.053 L1264.97 582.678 L1272.61 582.678 L1272.61 586.613 L1252.71 586.613 L1252.71 582.678 Z" fill="#000000" fill-rule="nonzero" fill-opacity="1" /><path clip-path="url(#clip230)" d="M1282.06 580.733 L1286.94 580.733 L1286.94 586.613 L1282.06 586.613 L1282.06 580.733 Z" fill="#000000" fill-rule="nonzero" fill-opacity="1" /><path clip-path="url(#clip230)" d="M1307.13 555.132 Q1303.51 555.132 1301.69 558.697 Q1299.88 562.238 1299.88 569.368 Q1299.88 576.474 1301.69 580.039 Q1303.51 583.581 1307.13 583.581 Q1310.76 583.581 1312.57 580.039 Q1314.39 576.474 1314.39 569.368 Q1314.39 562.238 1312.57 558.697 Q1310.76 555.132 1307.13 555.132 M1307.13 551.428 Q1312.94 551.428 1315.99 556.035 Q1319.07 560.618 1319.07 569.368 Q1319.07 578.095 1315.99 582.701 Q1312.94 587.284 1307.13 587.284 Q1301.32 587.284 1298.24 582.701 Q1295.18 578.095 1295.18 569.368 Q1295.18 560.618 1298.24 556.035 Q1301.32 551.428 1307.13 551.428 Z" fill="#000000" fill-rule="nonzero" fill-opacity="1" /><path clip-path="url(#clip230)" d="M1327.33 552.053 L1345.69 552.053 L1345.69 555.988 L1331.62 555.988 L1331.62 564.46 Q1332.64 564.113 1333.65 563.951 Q1334.67 563.766 1335.69 563.766 Q1341.48 563.766 1344.86 566.937 Q1348.24 570.109 1348.24 575.525 Q1348.24 581.104 1344.76 584.206 Q1341.29 587.284 1334.97 587.284 Q1332.8 587.284 1330.53 586.914 Q1328.28 586.544 1325.88 585.803 L1325.88 581.104 Q1327.96 582.238 1330.18 582.794 Q1332.4 583.349 1334.88 583.349 Q1338.89 583.349 1341.22 581.243 Q1343.56 579.136 1343.56 575.525 Q1343.56 571.914 1341.22 569.808 Q1338.89 567.701 1334.88 567.701 Q1333.01 567.701 1331.13 568.118 Q1329.28 568.534 1327.33 569.414 L1327.33 552.053 Z" fill="#000000" fill-rule="nonzero" fill-opacity="1" /><path clip-path="url(#clip230)" d="M1367.45 555.132 Q1363.84 555.132 1362.01 558.697 Q1360.2 562.238 1360.2 569.368 Q1360.2 576.474 1362.01 580.039 Q1363.84 583.581 1367.45 583.581 Q1371.08 583.581 1372.89 580.039 Q1374.72 576.474 1374.72 569.368 Q1374.72 562.238 1372.89 558.697 Q1371.08 555.132 1367.45 555.132 M1367.45 551.428 Q1373.26 551.428 1376.32 556.035 Q1379.39 560.618 1379.39 569.368 Q1379.39 578.095 1376.32 582.701 Q1373.26 587.284 1367.45 587.284 Q1361.64 587.284 1358.56 582.701 Q1355.51 578.095 1355.51 569.368 Q1355.51 560.618 1358.56 556.035 Q1361.64 551.428 1367.45 551.428 Z" fill="#000000" fill-rule="nonzero" fill-opacity="1" /><path clip-path="url(#clip230)" d="M1253.7 362.513 L1261.34 362.513 L1261.34 336.147 L1253.03 337.814 L1253.03 333.554 L1261.29 331.888 L1265.97 331.888 L1265.97 362.513 L1273.61 362.513 L1273.61 366.448 L1253.7 366.448 L1253.7 362.513 Z" fill="#000000" fill-rule="nonzero" fill-opacity="1" /><path clip-path="url(#clip230)" d="M1283.05 360.568 L1287.94 360.568 L1287.94 366.448 L1283.05 366.448 L1283.05 360.568 Z" fill="#000000" fill-rule="nonzero" fill-opacity="1" /><path clip-path="url(#clip230)" d="M1308.12 334.967 Q1304.51 334.967 1302.68 338.531 Q1300.88 342.073 1300.88 349.203 Q1300.88 356.309 1302.68 359.874 Q1304.51 363.415 1308.12 363.415 Q1311.76 363.415 1313.56 359.874 Q1315.39 356.309 1315.39 349.203 Q1315.39 342.073 1313.56 338.531 Q1311.76 334.967 1308.12 334.967 M1308.12 331.263 Q1313.93 331.263 1316.99 335.869 Q1320.07 340.453 1320.07 349.203 Q1320.07 357.929 1316.99 362.536 Q1313.93 367.119 1308.12 367.119 Q1302.31 367.119 1299.23 362.536 Q1296.18 357.929 1296.18 349.203 Q1296.18 340.453 1299.23 335.869 Q1302.31 331.263 1308.12 331.263 Z" fill="#000000" fill-rule="nonzero" fill-opacity="1" /><path clip-path="url(#clip230)" d="M1327.1 331.888 L1349.32 331.888 L1349.32 333.879 L1336.78 366.448 L1331.89 366.448 L1343.7 335.823 L1327.1 335.823 L1327.1 331.888 Z" fill="#000000" fill-rule="nonzero" fill-opacity="1" /><path clip-path="url(#clip230)" d="M1358.49 331.888 L1376.85 331.888 L1376.85 335.823 L1362.77 335.823 L1362.77 344.295 Q1363.79 343.948 1364.81 343.786 Q1365.83 343.601 1366.85 343.601 Q1372.63 343.601 1376.01 346.772 Q1379.39 349.943 1379.39 355.36 Q1379.39 360.939 1375.92 364.04 Q1372.45 367.119 1366.13 367.119 Q1363.95 367.119 1361.69 366.749 Q1359.44 366.378 1357.03 365.638 L1357.03 360.939 Q1359.12 362.073 1361.34 362.628 Q1363.56 363.184 1366.04 363.184 Q1370.04 363.184 1372.38 361.077 Q1374.72 358.971 1374.72 355.36 Q1374.72 351.749 1372.38 349.642 Q1370.04 347.536 1366.04 347.536 Q1364.16 347.536 1362.29 347.953 Q1360.44 348.369 1358.49 349.249 L1358.49 331.888 Z" fill="#000000" fill-rule="nonzero" fill-opacity="1" /><path clip-path="url(#clip230)" d="M1252.71 142.347 L1260.34 142.347 L1260.34 115.982 L1252.03 117.649 L1252.03 113.389 L1260.3 111.723 L1264.97 111.723 L1264.97 142.347 L1272.61 142.347 L1272.61 146.283 L1252.71 146.283 L1252.71 142.347 Z" fill="#000000" fill-rule="nonzero" fill-opacity="1" /><path clip-path="url(#clip230)" d="M1282.06 140.403 L1286.94 140.403 L1286.94 146.283 L1282.06 146.283 L1282.06 140.403 Z" fill="#000000" fill-rule="nonzero" fill-opacity="1" /><path clip-path="url(#clip230)" d="M1297.94 142.347 L1305.58 142.347 L1305.58 115.982 L1297.27 117.649 L1297.27 113.389 L1305.53 111.723 L1310.2 111.723 L1310.2 142.347 L1317.84 142.347 L1317.84 146.283 L1297.94 146.283 L1297.94 142.347 Z" fill="#000000" fill-rule="nonzero" fill-opacity="1" /><path clip-path="url(#clip230)" d="M1337.29 114.801 Q1333.68 114.801 1331.85 118.366 Q1330.04 121.908 1330.04 129.037 Q1330.04 136.144 1331.85 139.709 Q1333.68 143.25 1337.29 143.25 Q1340.92 143.25 1342.73 139.709 Q1344.56 136.144 1344.56 129.037 Q1344.56 121.908 1342.73 118.366 Q1340.92 114.801 1337.29 114.801 M1337.29 111.098 Q1343.1 111.098 1346.15 115.704 Q1349.23 120.287 1349.23 129.037 Q1349.23 137.764 1346.15 142.371 Q1343.1 146.954 1337.29 146.954 Q1331.48 146.954 1328.4 142.371 Q1325.34 137.764 1325.34 129.037 Q1325.34 120.287 1328.4 115.704 Q1331.48 111.098 1337.29 111.098 Z" fill="#000000" fill-rule="nonzero" fill-opacity="1" /><path clip-path="url(#clip230)" d="M1367.45 114.801 Q1363.84 114.801 1362.01 118.366 Q1360.2 121.908 1360.2 129.037 Q1360.2 136.144 1362.01 139.709 Q1363.84 143.25 1367.45 143.25 Q1371.08 143.25 1372.89 139.709 Q1374.72 136.144 1374.72 129.037 Q1374.72 121.908 1372.89 118.366 Q1371.08 114.801 1367.45 114.801 M1367.45 111.098 Q1373.26 111.098 1376.32 115.704 Q1379.39 120.287 1379.39 129.037 Q1379.39 137.764 1376.32 142.371 Q1373.26 146.954 1367.45 146.954 Q1361.64 146.954 1358.56 142.371 Q1355.51 137.764 1355.51 129.037 Q1355.51 120.287 1358.56 115.704 Q1361.64 111.098 1367.45 111.098 Z" fill="#000000" fill-rule="nonzero" fill-opacity="1" /><path clip-path="url(#clip230)" d="M1743.36 31.7342 Q1743.36 26.5259 1741.2 23.6613 Q1739.06 20.7968 1735.18 20.7968 Q1731.33 20.7968 1729.17 23.6613 Q1727.03 26.5259 1727.03 31.7342 Q1727.03 36.9165 1729.17 39.781 Q1731.33 42.6456 1735.18 42.6456 Q1739.06 42.6456 1741.2 39.781 Q1743.36 36.9165 1743.36 31.7342 M1748.15 43.0362 Q1748.15 50.4841 1744.84 54.1039 Q1741.54 57.7497 1734.71 57.7497 Q1732.19 57.7497 1729.95 57.3591 Q1727.71 56.9945 1725.6 56.2132 L1725.6 51.5518 Q1727.71 52.6976 1729.77 53.2445 Q1731.82 53.7914 1733.96 53.7914 Q1738.67 53.7914 1741.02 51.3174 Q1743.36 48.8695 1743.36 43.8956 L1743.36 41.5258 Q1741.88 44.1039 1739.56 45.38 Q1737.24 46.656 1734.01 46.656 Q1728.65 46.656 1725.36 42.5675 Q1722.08 38.479 1722.08 31.7342 Q1722.08 24.9634 1725.36 20.8749 Q1728.65 16.7864 1734.01 16.7864 Q1737.24 16.7864 1739.56 18.0624 Q1741.88 19.3384 1743.36 21.9165 L1743.36 17.4895 L1748.15 17.4895 L1748.15 43.0362 Z" fill="#000000" fill-rule="nonzero" fill-opacity="1" /><path clip-path="url(#clip230)" d="M1777.21 21.9165 L1777.21 6.13538 L1782.01 6.13538 L1782.01 46.656 L1777.21 46.656 L1777.21 42.281 Q1775.7 44.8852 1773.39 46.1612 Q1771.09 47.4112 1767.86 47.4112 Q1762.58 47.4112 1759.25 43.1925 Q1755.94 38.9737 1755.94 32.0988 Q1755.94 25.2238 1759.25 21.0051 Q1762.58 16.7864 1767.86 16.7864 Q1771.09 16.7864 1773.39 18.0624 Q1775.7 19.3124 1777.21 21.9165 M1760.89 32.0988 Q1760.89 37.3852 1763.05 40.406 Q1765.23 43.4008 1769.04 43.4008 Q1772.84 43.4008 1775.03 40.406 Q1777.21 37.3852 1777.21 32.0988 Q1777.21 26.8124 1775.03 23.8176 Q1772.84 20.7968 1769.04 20.7968 Q1765.23 20.7968 1763.05 23.8176 Q1760.89 26.8124 1760.89 32.0988 Z" fill="#000000" fill-rule="nonzero" fill-opacity="1" /><path clip-path="url(#clip230)" d="M1796.51 42.281 L1796.51 57.7497 L1791.69 57.7497 L1791.69 17.4895 L1796.51 17.4895 L1796.51 21.9165 Q1798.02 19.3124 1800.31 18.0624 Q1802.63 16.7864 1805.83 16.7864 Q1811.15 16.7864 1814.45 21.0051 Q1817.79 25.2238 1817.79 32.0988 Q1817.79 38.9737 1814.45 43.1925 Q1811.15 47.4112 1805.83 47.4112 Q1802.63 47.4112 1800.31 46.1612 Q1798.02 44.8852 1796.51 42.281 M1812.81 32.0988 Q1812.81 26.8124 1810.62 23.8176 Q1808.46 20.7968 1804.66 20.7968 Q1800.86 20.7968 1798.67 23.8176 Q1796.51 26.8124 1796.51 32.0988 Q1796.51 37.3852 1798.67 40.406 Q1800.86 43.4008 1804.66 43.4008 Q1808.46 43.4008 1810.62 40.406 Q1812.81 37.3852 1812.81 32.0988 Z" fill="#000000" fill-rule="nonzero" fill-opacity="1" /><path clip-path="url(#clip230)" d="M1861.87 21.9165 L1861.87 6.13538 L1866.67 6.13538 L1866.67 46.656 L1861.87 46.656 L1861.87 42.281 Q1860.36 44.8852 1858.05 46.1612 Q1855.75 47.4112 1852.53 47.4112 Q1847.24 47.4112 1843.91 43.1925 Q1840.6 38.9737 1840.6 32.0988 Q1840.6 25.2238 1843.91 21.0051 Q1847.24 16.7864 1852.53 16.7864 Q1855.75 16.7864 1858.05 18.0624 Q1860.36 19.3124 1861.87 21.9165 M1845.55 32.0988 Q1845.55 37.3852 1847.71 40.406 Q1849.9 43.4008 1853.7 43.4008 Q1857.5 43.4008 1859.69 40.406 Q1861.87 37.3852 1861.87 32.0988 Q1861.87 26.8124 1859.69 23.8176 Q1857.5 20.7968 1853.7 20.7968 Q1849.9 20.7968 1847.71 23.8176 Q1845.55 26.8124 1845.55 32.0988 Z" fill="#000000" fill-rule="nonzero" fill-opacity="1" /><path clip-path="url(#clip230)" d="M1901.48 30.8748 L1901.48 33.2186 L1879.45 33.2186 Q1879.77 38.1665 1882.42 40.7706 Q1885.1 43.3487 1889.87 43.3487 Q1892.63 43.3487 1895.21 42.6716 Q1897.81 41.9946 1900.36 40.6404 L1900.36 45.1716 Q1897.79 46.2654 1895.08 46.8383 Q1892.37 47.4112 1889.58 47.4112 Q1882.6 47.4112 1878.52 43.3487 Q1874.45 39.2862 1874.45 32.3592 Q1874.45 25.1978 1878.31 21.0051 Q1882.19 16.7864 1888.75 16.7864 Q1894.63 16.7864 1898.05 20.5884 Q1901.48 24.3645 1901.48 30.8748 M1896.69 29.4686 Q1896.64 25.5363 1894.48 23.1926 Q1892.34 20.8488 1888.8 20.8488 Q1884.79 20.8488 1882.37 23.1145 Q1879.97 25.3801 1879.61 29.4946 L1896.69 29.4686 Z" fill="#000000" fill-rule="nonzero" fill-opacity="1" /><path clip-path="url(#clip230)" d="M1924.11 6.13538 L1924.11 10.1197 L1919.53 10.1197 Q1916.95 10.1197 1915.94 11.1614 Q1914.95 12.2031 1914.95 14.9114 L1914.95 17.4895 L1922.84 17.4895 L1922.84 21.2134 L1914.95 21.2134 L1914.95 46.656 L1910.13 46.656 L1910.13 21.2134 L1905.55 21.2134 L1905.55 17.4895 L1910.13 17.4895 L1910.13 15.4583 Q1910.13 10.5885 1912.4 8.37496 Q1914.66 6.13538 1919.58 6.13538 L1924.11 6.13538 Z" fill="#000000" fill-rule="nonzero" fill-opacity="1" /><path clip-path="url(#clip230)" d="M1928.12 6.13538 L1932.92 6.13538 L1932.92 46.656 L1928.12 46.656 L1928.12 6.13538 Z" fill="#000000" fill-rule="nonzero" fill-opacity="1" /><path clip-path="url(#clip230)" d="M1956.2 31.9946 Q1950.39 31.9946 1948.15 33.3227 Q1945.91 34.6509 1945.91 37.854 Q1945.91 40.406 1947.58 41.9164 Q1949.27 43.4008 1952.16 43.4008 Q1956.14 43.4008 1958.54 40.5883 Q1960.96 37.7498 1960.96 33.0623 L1960.96 31.9946 L1956.2 31.9946 M1965.75 30.0155 L1965.75 46.656 L1960.96 46.656 L1960.96 42.2289 Q1959.32 44.8852 1956.87 46.1612 Q1954.43 47.4112 1950.88 47.4112 Q1946.41 47.4112 1943.75 44.9112 Q1941.12 42.3852 1941.12 38.1665 Q1941.12 33.2446 1944.4 30.7446 Q1947.71 28.2446 1954.24 28.2446 L1960.96 28.2446 L1960.96 27.7759 Q1960.96 24.4686 1958.78 22.6718 Q1956.61 20.8488 1952.68 20.8488 Q1950.18 20.8488 1947.81 21.4478 Q1945.44 22.0468 1943.25 23.2447 L1943.25 18.8176 Q1945.88 17.802 1948.36 17.3072 Q1950.83 16.7864 1953.18 16.7864 Q1959.5 16.7864 1962.63 20.0676 Q1965.75 23.3488 1965.75 30.0155 Z" fill="#000000" fill-rule="nonzero" fill-opacity="1" /><path clip-path="url(#clip230)" d="M1980.36 9.20828 L1980.36 17.4895 L1990.23 17.4895 L1990.23 21.2134 L1980.36 21.2134 L1980.36 37.0467 Q1980.36 40.6144 1981.33 41.63 Q1982.32 42.6456 1985.31 42.6456 L1990.23 42.6456 L1990.23 46.656 L1985.31 46.656 Q1979.76 46.656 1977.66 44.5987 Q1975.55 42.5154 1975.55 37.0467 L1975.55 21.2134 L1972.03 21.2134 L1972.03 17.4895 L1975.55 17.4895 L1975.55 9.20828 L1980.36 9.20828 Z" fill="#000000" fill-rule="nonzero" fill-opacity="1" /><path clip-path="url(#clip230)" d="M2007.84 20.8488 Q2003.98 20.8488 2001.74 23.8697 Q1999.5 26.8644 1999.5 32.0988 Q1999.5 37.3331 2001.72 40.354 Q2003.96 43.3487 2007.84 43.3487 Q2011.67 43.3487 2013.91 40.3279 Q2016.14 37.3071 2016.14 32.0988 Q2016.14 26.9165 2013.91 23.8957 Q2011.67 20.8488 2007.84 20.8488 M2007.84 16.7864 Q2014.09 16.7864 2017.66 20.8488 Q2021.22 24.9113 2021.22 32.0988 Q2021.22 39.2602 2017.66 43.3487 Q2014.09 47.4112 2007.84 47.4112 Q2001.56 47.4112 1997.99 43.3487 Q1994.45 39.2602 1994.45 32.0988 Q1994.45 24.9113 1997.99 20.8488 Q2001.56 16.7864 2007.84 16.7864 Z" fill="#000000" fill-rule="nonzero" fill-opacity="1" /><path clip-path="url(#clip230)" d="M2046.07 21.9686 Q2045.26 21.4999 2044.3 21.2916 Q2043.36 21.0572 2042.21 21.0572 Q2038.15 21.0572 2035.96 23.7134 Q2033.8 26.3436 2033.8 31.2915 L2033.8 46.656 L2028.98 46.656 L2028.98 17.4895 L2033.8 17.4895 L2033.8 22.0207 Q2035.31 19.3645 2037.73 18.0884 Q2040.15 16.7864 2043.62 16.7864 Q2044.11 16.7864 2044.71 16.8645 Q2045.31 16.9166 2046.04 17.0468 L2046.07 21.9686 Z" fill="#000000" fill-rule="nonzero" fill-opacity="1" /><path clip-path="url(#clip233)" d="M1526.14 960.534 L1568.25 992.635 L1610.36 961.067 L1652.47 979.638 L1694.58 942.418 L1736.69 875.519 L1778.8 867.156 L1820.91 880.022 L1863.02 861.836 L1905.13 824.055 L1947.24 781.759 L1989.35 809.278 L2031.46 766.324 L2073.57 732.916 L2115.68 725.742 L2157.79 738.677 L2199.9 703.567 L2242.01 645.543 L2284.12 662.662 L2326.23 626.386 L2326.23 120.65 L2284.12 133.054 L2242.01 208.455 L2199.9 166.106 L2157.79 145.534 L2115.68 179.91 L2073.57 183.713 L2031.46 258.078 L1989.35 379.451 L1947.24 455.702 L1905.13 547.67 L1863.02 570.489 L1820.91 579.861 L1778.8 643.378 L1736.69 690.329 L1694.58 688.614 L1652.47 751.386 L1610.36 827.204 L1568.25 849.719 L1526.14 927.472  Z" fill="#009af9" fill-rule="evenodd" fill-opacity="0.1"/>
<polyline clip-path="url(#clip233)" style="stroke:#009af9; stroke-linecap:round; stroke-linejoin:round; stroke-width:4; stroke-opacity:1; fill:none" points="1526.14,944.003 1568.25,921.177 1610.36,894.136 1652.47,865.512 1694.58,815.516 1736.69,782.924 1778.8,755.267 1820.91,729.941 1863.02,716.163 1905.13,685.862 1947.24,618.731 1989.35,594.364 2031.46,512.201 2073.57,458.315 2115.68,452.826 2157.79,442.105 2199.9,434.836 2242.01,426.999 2284.12,397.858 2326.23,373.518 "/>
<path clip-path="url(#clip233)" d="M1526.14 1036.1 L1568.25 1044.3 L1610.36 1070.59 L1652.47 1033.72 L1694.58 1054.92 L1736.69 1029.99 L1778.8 975.944 L1820.91 957.662 L1863.02 988.939 L1905.13 946.142 L1947.24 990.097 L1989.35 1037.84 L2031.46 1027.34 L2073.57 976.524 L2115.68 950.92 L2157.79 933.679 L2199.9 971.493 L2242.01 962.487 L2284.12 1001.75 L2326.23 956.495 L2326.23 142.297 L2284.12 217.949 L2242.01 332.489 L2199.9 405.316 L2157.79 480.685 L2115.68 546.278 L2073.57 538.656 L2031.46 613.193 L1989.35 639.009 L1947.24 683.171 L1905.13 766.446 L1863.02 802.709 L1820.91 774.25 L1778.8 839.555 L1736.69 865.979 L1694.58 910.459 L1652.47 896.07 L1610.36 886.654 L1568.25 934.107 L1526.14 971.992  Z" fill="#e26f46" fill-rule="evenodd" fill-opacity="0.1"/>
<polyline clip-path="url(#clip233)" style="stroke:#e26f46; stroke-linecap:round; stroke-linejoin:round; stroke-width:4; stroke-opacity:1; fill:none" points="1526.14,1004.05 1568.25,989.205 1610.36,978.622 1652.47,964.894 1694.58,982.689 1736.69,947.985 1778.8,907.749 1820.91,865.956 1863.02,895.824 1905.13,856.294 1947.24,836.634 1989.35,838.425 2031.46,820.268 2073.57,757.59 2115.68,748.599 2157.79,707.182 2199.9,688.405 2242.01,647.488 2284.12,609.848 2326.23,549.396 "/>
</svg>
