<?xml version="1.0" encoding="utf-8"?>
<svg xmlns="http://www.w3.org/2000/svg" xmlns:xlink="http://www.w3.org/1999/xlink" width="600" height="400" viewBox="0 0 2400 1600">
<defs>
  <clipPath id="clip010">
    <rect x="0" y="0" width="2400" height="1600"/>
  </clipPath>
</defs>
<path clip-path="url(#clip010)" d="M0 1600 L2400 1600 L2400 0 L0 0  Z" fill="#ffffff" fill-rule="evenodd" fill-opacity="1"/>
<defs>
  <clipPath id="clip011">
    <rect x="480" y="0" width="1681" height="1600"/>
  </clipPath>
</defs>
<path clip-path="url(#clip010)" d="M202.177 1486.45 L2352.76 1486.45 L2352.76 47.2441 L202.177 47.2441  Z" fill="#ffffff" fill-rule="evenodd" fill-opacity="1"/>
<defs>
  <clipPath id="clip012">
    <rect x="202" y="47" width="2152" height="1440"/>
  </clipPath>
</defs>
<polyline clip-path="url(#clip012)" style="stroke:#000000; stroke-linecap:round; stroke-linejoin:round; stroke-width:2; stroke-opacity:0.1; fill:none" points="668.812,1486.45 668.812,47.2441 "/>
<polyline clip-path="url(#clip012)" style="stroke:#000000; stroke-linecap:round; stroke-linejoin:round; stroke-width:2; stroke-opacity:0.1; fill:none" points="1176.02,1486.45 1176.02,47.2441 "/>
<polyline clip-path="url(#clip012)" style="stroke:#000000; stroke-linecap:round; stroke-linejoin:round; stroke-width:2; stroke-opacity:0.1; fill:none" points="1683.24,1486.45 1683.24,47.2441 "/>
<polyline clip-path="url(#clip012)" style="stroke:#000000; stroke-linecap:round; stroke-linejoin:round; stroke-width:2; stroke-opacity:0.1; fill:none" points="2190.45,1486.45 2190.45,47.2441 "/>
<polyline clip-path="url(#clip012)" style="stroke:#000000; stroke-linecap:round; stroke-linejoin:round; stroke-width:2; stroke-opacity:0.1; fill:none" points="202.177,1305.95 2352.76,1305.95 "/>
<polyline clip-path="url(#clip012)" style="stroke:#000000; stroke-linecap:round; stroke-linejoin:round; stroke-width:2; stroke-opacity:0.1; fill:none" points="202.177,1106.28 2352.76,1106.28 "/>
<polyline clip-path="url(#clip012)" style="stroke:#000000; stroke-linecap:round; stroke-linejoin:round; stroke-width:2; stroke-opacity:0.1; fill:none" points="202.177,906.613 2352.76,906.613 "/>
<polyline clip-path="url(#clip012)" style="stroke:#000000; stroke-linecap:round; stroke-linejoin:round; stroke-width:2; stroke-opacity:0.1; fill:none" points="202.177,706.946 2352.76,706.946 "/>
<polyline clip-path="url(#clip012)" style="stroke:#000000; stroke-linecap:round; stroke-linejoin:round; stroke-width:2; stroke-opacity:0.1; fill:none" points="202.177,507.278 2352.76,507.278 "/>
<polyline clip-path="url(#clip012)" style="stroke:#000000; stroke-linecap:round; stroke-linejoin:round; stroke-width:2; stroke-opacity:0.1; fill:none" points="202.177,307.611 2352.76,307.611 "/>
<polyline clip-path="url(#clip012)" style="stroke:#000000; stroke-linecap:round; stroke-linejoin:round; stroke-width:2; stroke-opacity:0.1; fill:none" points="202.177,107.943 2352.76,107.943 "/>
<polyline clip-path="url(#clip010)" style="stroke:#000000; stroke-linecap:round; stroke-linejoin:round; stroke-width:4; stroke-opacity:1; fill:none" points="202.177,1486.45 2352.76,1486.45 "/>
<polyline clip-path="url(#clip010)" style="stroke:#000000; stroke-linecap:round; stroke-linejoin:round; stroke-width:4; stroke-opacity:1; fill:none" points="668.812,1486.45 668.812,1467.55 "/>
<polyline clip-path="url(#clip010)" style="stroke:#000000; stroke-linecap:round; stroke-linejoin:round; stroke-width:4; stroke-opacity:1; fill:none" points="1176.02,1486.45 1176.02,1467.55 "/>
<polyline clip-path="url(#clip010)" style="stroke:#000000; stroke-linecap:round; stroke-linejoin:round; stroke-width:4; stroke-opacity:1; fill:none" points="1683.24,1486.45 1683.24,1467.55 "/>
<polyline clip-path="url(#clip010)" style="stroke:#000000; stroke-linecap:round; stroke-linejoin:round; stroke-width:4; stroke-opacity:1; fill:none" points="2190.45,1486.45 2190.45,1467.55 "/>
<path clip-path="url(#clip010)" d="M659.09 1514.29 L677.446 1514.29 L677.446 1518.22 L663.372 1518.22 L663.372 1526.7 Q664.391 1526.35 665.409 1526.19 Q666.428 1526 667.446 1526 Q673.233 1526 676.613 1529.17 Q679.992 1532.34 679.992 1537.76 Q679.992 1543.34 676.52 1546.44 Q673.048 1549.52 666.728 1549.52 Q664.553 1549.52 662.284 1549.15 Q660.039 1548.78 657.631 1548.04 L657.631 1543.34 Q659.715 1544.47 661.937 1545.03 Q664.159 1545.58 666.636 1545.58 Q670.64 1545.58 672.978 1543.48 Q675.316 1541.37 675.316 1537.76 Q675.316 1534.15 672.978 1532.04 Q670.64 1529.94 666.636 1529.94 Q664.761 1529.94 662.886 1530.35 Q661.034 1530.77 659.09 1531.65 L659.09 1514.29 Z" fill="#000000" fill-rule="nonzero" fill-opacity="1" /><path clip-path="url(#clip010)" d="M1150.71 1544.91 L1158.35 1544.91 L1158.35 1518.55 L1150.04 1520.21 L1150.04 1515.95 L1158.3 1514.29 L1162.98 1514.29 L1162.98 1544.91 L1170.62 1544.91 L1170.62 1548.85 L1150.71 1548.85 L1150.71 1544.91 Z" fill="#000000" fill-rule="nonzero" fill-opacity="1" /><path clip-path="url(#clip010)" d="M1190.06 1517.37 Q1186.45 1517.37 1184.62 1520.93 Q1182.82 1524.47 1182.82 1531.6 Q1182.82 1538.71 1184.62 1542.27 Q1186.45 1545.82 1190.06 1545.82 Q1193.7 1545.82 1195.5 1542.27 Q1197.33 1538.71 1197.33 1531.6 Q1197.33 1524.47 1195.5 1520.93 Q1193.7 1517.37 1190.06 1517.37 M1190.06 1513.66 Q1195.87 1513.66 1198.93 1518.27 Q1202.01 1522.85 1202.01 1531.6 Q1202.01 1540.33 1198.93 1544.94 Q1195.87 1549.52 1190.06 1549.52 Q1184.25 1549.52 1181.17 1544.94 Q1178.12 1540.33 1178.12 1531.6 Q1178.12 1522.85 1181.17 1518.27 Q1184.25 1513.66 1190.06 1513.66 Z" fill="#000000" fill-rule="nonzero" fill-opacity="1" /><path clip-path="url(#clip010)" d="M1658.42 1544.91 L1666.06 1544.91 L1666.06 1518.55 L1657.75 1520.21 L1657.75 1515.95 L1666.01 1514.29 L1670.69 1514.29 L1670.69 1544.91 L1678.33 1544.91 L1678.33 1548.85 L1658.42 1548.85 L1658.42 1544.91 Z" fill="#000000" fill-rule="nonzero" fill-opacity="1" /><path clip-path="url(#clip010)" d="M1687.82 1514.29 L1706.18 1514.29 L1706.18 1518.22 L1692.1 1518.22 L1692.1 1526.7 Q1693.12 1526.35 1694.14 1526.19 Q1695.16 1526 1696.18 1526 Q1701.96 1526 1705.34 1529.17 Q1708.72 1532.34 1708.72 1537.76 Q1708.72 1543.34 1705.25 1546.44 Q1701.78 1549.52 1695.46 1549.52 Q1693.28 1549.52 1691.01 1549.15 Q1688.77 1548.78 1686.36 1548.04 L1686.36 1543.34 Q1688.44 1544.47 1690.67 1545.03 Q1692.89 1545.58 1695.37 1545.58 Q1699.37 1545.58 1701.71 1543.48 Q1704.05 1541.37 1704.05 1537.76 Q1704.05 1534.15 1701.71 1532.04 Q1699.37 1529.94 1695.37 1529.94 Q1693.49 1529.94 1691.62 1530.35 Q1689.76 1530.77 1687.82 1531.65 L1687.82 1514.29 Z" fill="#000000" fill-rule="nonzero" fill-opacity="1" /><path clip-path="url(#clip010)" d="M2169.22 1544.91 L2185.54 1544.91 L2185.54 1548.85 L2163.6 1548.85 L2163.6 1544.91 Q2166.26 1542.16 2170.84 1537.53 Q2175.45 1532.88 2176.63 1531.53 Q2178.87 1529.01 2179.75 1527.27 Q2180.66 1525.51 2180.66 1523.82 Q2180.66 1521.07 2178.71 1519.33 Q2176.79 1517.6 2173.69 1517.6 Q2171.49 1517.6 2169.04 1518.36 Q2166.61 1519.13 2163.83 1520.68 L2163.83 1515.95 Q2166.65 1514.82 2169.11 1514.24 Q2171.56 1513.66 2173.6 1513.66 Q2178.97 1513.66 2182.16 1516.35 Q2185.36 1519.03 2185.36 1523.52 Q2185.36 1525.65 2184.55 1527.57 Q2183.76 1529.47 2181.65 1532.07 Q2181.07 1532.74 2177.97 1535.95 Q2174.87 1539.15 2169.22 1544.91 Z" fill="#000000" fill-rule="nonzero" fill-opacity="1" /><path clip-path="url(#clip010)" d="M2205.36 1517.37 Q2201.74 1517.37 2199.92 1520.93 Q2198.11 1524.47 2198.11 1531.6 Q2198.11 1538.71 2199.92 1542.27 Q2201.74 1545.82 2205.36 1545.82 Q2208.99 1545.82 2210.8 1542.27 Q2212.62 1538.71 2212.62 1531.6 Q2212.62 1524.47 2210.8 1520.93 Q2208.99 1517.37 2205.36 1517.37 M2205.36 1513.66 Q2211.17 1513.66 2214.22 1518.27 Q2217.3 1522.85 2217.3 1531.6 Q2217.3 1540.33 2214.22 1544.94 Q2211.17 1549.52 2205.36 1549.52 Q2199.55 1549.52 2196.47 1544.94 Q2193.41 1540.33 2193.41 1531.6 Q2193.41 1522.85 2196.47 1518.27 Q2199.55 1513.66 2205.36 1513.66 Z" fill="#000000" fill-rule="nonzero" fill-opacity="1" /><polyline clip-path="url(#clip010)" style="stroke:#000000; stroke-linecap:round; stroke-linejoin:round; stroke-width:4; stroke-opacity:1; fill:none" points="202.177,1486.45 202.177,47.2441 "/>
<polyline clip-path="url(#clip010)" style="stroke:#000000; stroke-linecap:round; stroke-linejoin:round; stroke-width:4; stroke-opacity:1; fill:none" points="202.177,1305.95 221.074,1305.95 "/>
<polyline clip-path="url(#clip010)" style="stroke:#000000; stroke-linecap:round; stroke-linejoin:round; stroke-width:4; stroke-opacity:1; fill:none" points="202.177,1106.28 221.074,1106.28 "/>
<polyline clip-path="url(#clip010)" style="stroke:#000000; stroke-linecap:round; stroke-linejoin:round; stroke-width:4; stroke-opacity:1; fill:none" points="202.177,906.613 221.074,906.613 "/>
<polyline clip-path="url(#clip010)" style="stroke:#000000; stroke-linecap:round; stroke-linejoin:round; stroke-width:4; stroke-opacity:1; fill:none" points="202.177,706.946 221.074,706.946 "/>
<polyline clip-path="url(#clip010)" style="stroke:#000000; stroke-linecap:round; stroke-linejoin:round; stroke-width:4; stroke-opacity:1; fill:none" points="202.177,507.278 221.074,507.278 "/>
<polyline clip-path="url(#clip010)" style="stroke:#000000; stroke-linecap:round; stroke-linejoin:round; stroke-width:4; stroke-opacity:1; fill:none" points="202.177,307.611 221.074,307.611 "/>
<polyline clip-path="url(#clip010)" style="stroke:#000000; stroke-linecap:round; stroke-linejoin:round; stroke-width:4; stroke-opacity:1; fill:none" points="202.177,107.943 221.074,107.943 "/>
<path clip-path="url(#clip010)" d="M67.9133 1304.59 Q71.2698 1305.31 73.1448 1307.58 Q75.0429 1309.85 75.0429 1313.18 Q75.0429 1318.3 71.5244 1321.1 Q68.0059 1323.9 61.5245 1323.9 Q59.3486 1323.9 57.0338 1323.46 Q54.7421 1323.04 52.2884 1322.19 L52.2884 1317.67 Q54.2328 1318.81 56.5477 1319.39 Q58.8625 1319.96 61.3856 1319.96 Q65.7837 1319.96 68.0754 1318.23 Q70.3902 1316.49 70.3902 1313.18 Q70.3902 1310.13 68.2374 1308.41 Q66.1078 1306.68 62.2884 1306.68 L58.2606 1306.68 L58.2606 1302.83 L62.4735 1302.83 Q65.9226 1302.83 67.7513 1301.47 Q69.58 1300.08 69.58 1297.49 Q69.58 1294.83 67.6819 1293.41 Q65.8069 1291.98 62.2884 1291.98 Q60.3671 1291.98 58.168 1292.4 Q55.969 1292.81 53.3301 1293.69 L53.3301 1289.52 Q55.9921 1288.78 58.3069 1288.41 Q60.6449 1288.04 62.705 1288.04 Q68.0291 1288.04 71.1309 1290.47 Q74.2327 1292.88 74.2327 1297 Q74.2327 1299.87 72.5892 1301.86 Q70.9457 1303.83 67.9133 1304.59 Z" fill="#000000" fill-rule="nonzero" fill-opacity="1" /><path clip-path="url(#clip010)" d="M93.9086 1306.82 Q90.5752 1306.82 88.654 1308.6 Q86.7558 1310.38 86.7558 1313.51 Q86.7558 1316.63 88.654 1318.41 Q90.5752 1320.2 93.9086 1320.2 Q97.2419 1320.2 99.1632 1318.41 Q101.084 1316.61 101.084 1313.51 Q101.084 1310.38 99.1632 1308.6 Q97.265 1306.82 93.9086 1306.82 M89.2327 1304.83 Q86.2234 1304.08 84.5336 1302.02 Q82.867 1299.96 82.867 1297 Q82.867 1292.86 85.8068 1290.45 Q88.7697 1288.04 93.9086 1288.04 Q99.0706 1288.04 102.01 1290.45 Q104.95 1292.86 104.95 1297 Q104.95 1299.96 103.26 1302.02 Q101.594 1304.08 98.6076 1304.83 Q101.987 1305.61 103.862 1307.9 Q105.76 1310.2 105.76 1313.51 Q105.76 1318.53 102.682 1321.21 Q99.6261 1323.9 93.9086 1323.9 Q88.191 1323.9 85.1123 1321.21 Q82.0568 1318.53 82.0568 1313.51 Q82.0568 1310.2 83.9549 1307.9 Q85.8531 1305.61 89.2327 1304.83 M87.5197 1297.44 Q87.5197 1300.13 89.1864 1301.63 Q90.8762 1303.14 93.9086 1303.14 Q96.9178 1303.14 98.6076 1301.63 Q100.321 1300.13 100.321 1297.44 Q100.321 1294.76 98.6076 1293.25 Q96.9178 1291.75 93.9086 1291.75 Q90.8762 1291.75 89.1864 1293.25 Q87.5197 1294.76 87.5197 1297.44 Z" fill="#000000" fill-rule="nonzero" fill-opacity="1" /><path clip-path="url(#clip010)" d="M124.07 1306.82 Q120.737 1306.82 118.816 1308.6 Q116.918 1310.38 116.918 1313.51 Q116.918 1316.63 118.816 1318.41 Q120.737 1320.2 124.07 1320.2 Q127.404 1320.2 129.325 1318.41 Q131.246 1316.61 131.246 1313.51 Q131.246 1310.38 129.325 1308.6 Q127.427 1306.82 124.07 1306.82 M119.395 1304.83 Q116.385 1304.08 114.695 1302.02 Q113.029 1299.96 113.029 1297 Q113.029 1292.86 115.969 1290.45 Q118.932 1288.04 124.07 1288.04 Q129.232 1288.04 132.172 1290.45 Q135.112 1292.86 135.112 1297 Q135.112 1299.96 133.422 1302.02 Q131.756 1304.08 128.769 1304.83 Q132.149 1305.61 134.024 1307.9 Q135.922 1310.2 135.922 1313.51 Q135.922 1318.53 132.844 1321.21 Q129.788 1323.9 124.07 1323.9 Q118.353 1323.9 115.274 1321.21 Q112.219 1318.53 112.219 1313.51 Q112.219 1310.2 114.117 1307.9 Q116.015 1305.61 119.395 1304.83 M117.682 1297.44 Q117.682 1300.13 119.348 1301.63 Q121.038 1303.14 124.07 1303.14 Q127.08 1303.14 128.769 1301.63 Q130.482 1300.13 130.482 1297.44 Q130.482 1294.76 128.769 1293.25 Q127.08 1291.75 124.07 1291.75 Q121.038 1291.75 119.348 1293.25 Q117.682 1294.76 117.682 1297.44 Z" fill="#000000" fill-rule="nonzero" fill-opacity="1" /><path clip-path="url(#clip010)" d="M154.232 1291.75 Q150.621 1291.75 148.793 1295.31 Q146.987 1298.85 146.987 1305.98 Q146.987 1313.09 148.793 1316.65 Q150.621 1320.2 154.232 1320.2 Q157.867 1320.2 159.672 1316.65 Q161.501 1313.09 161.501 1305.98 Q161.501 1298.85 159.672 1295.31 Q157.867 1291.75 154.232 1291.75 M154.232 1288.04 Q160.042 1288.04 163.098 1292.65 Q166.177 1297.23 166.177 1305.98 Q166.177 1314.71 163.098 1319.32 Q160.042 1323.9 154.232 1323.9 Q148.422 1323.9 145.343 1319.32 Q142.288 1314.71 142.288 1305.98 Q142.288 1297.23 145.343 1292.65 Q148.422 1288.04 154.232 1288.04 Z" fill="#000000" fill-rule="nonzero" fill-opacity="1" /><path clip-path="url(#clip010)" d="M67.9133 1104.93 Q71.2698 1105.64 73.1448 1107.91 Q75.0429 1110.18 75.0429 1113.51 Q75.0429 1118.63 71.5244 1121.43 Q68.0059 1124.23 61.5245 1124.23 Q59.3486 1124.23 57.0338 1123.79 Q54.7421 1123.38 52.2884 1122.52 L52.2884 1118.01 Q54.2328 1119.14 56.5477 1119.72 Q58.8625 1120.3 61.3856 1120.3 Q65.7837 1120.3 68.0754 1118.56 Q70.3902 1116.82 70.3902 1113.51 Q70.3902 1110.46 68.2374 1108.75 Q66.1078 1107.01 62.2884 1107.01 L58.2606 1107.01 L58.2606 1103.17 L62.4735 1103.17 Q65.9226 1103.17 67.7513 1101.8 Q69.58 1100.41 69.58 1097.82 Q69.58 1095.16 67.6819 1093.75 Q65.8069 1092.31 62.2884 1092.31 Q60.3671 1092.31 58.168 1092.73 Q55.969 1093.14 53.3301 1094.02 L53.3301 1089.86 Q55.9921 1089.12 58.3069 1088.75 Q60.6449 1088.38 62.705 1088.38 Q68.0291 1088.38 71.1309 1090.81 Q74.2327 1093.21 74.2327 1097.33 Q74.2327 1100.2 72.5892 1102.2 Q70.9457 1104.16 67.9133 1104.93 Z" fill="#000000" fill-rule="nonzero" fill-opacity="1" /><path clip-path="url(#clip010)" d="M84.0475 1122.84 L84.0475 1118.58 Q85.8068 1119.42 87.6123 1119.86 Q89.4178 1120.3 91.1539 1120.3 Q95.7836 1120.3 98.2141 1117.2 Q100.668 1114.07 101.015 1107.73 Q99.6724 1109.72 97.6122 1110.78 Q95.5521 1111.85 93.0521 1111.85 Q87.8669 1111.85 84.8345 1108.72 Q81.8253 1105.57 81.8253 1100.14 Q81.8253 1094.81 84.9734 1091.59 Q88.1216 1088.38 93.353 1088.38 Q99.3483 1088.38 102.496 1092.98 Q105.668 1097.57 105.668 1106.32 Q105.668 1114.49 101.779 1119.37 Q97.9132 1124.23 91.3623 1124.23 Q89.603 1124.23 87.7975 1123.88 Q85.9919 1123.54 84.0475 1122.84 M93.353 1108.19 Q96.5011 1108.19 98.3298 1106.04 Q100.182 1103.89 100.182 1100.14 Q100.182 1096.41 98.3298 1094.26 Q96.5011 1092.08 93.353 1092.08 Q90.2049 1092.08 88.353 1094.26 Q86.5243 1096.41 86.5243 1100.14 Q86.5243 1103.89 88.353 1106.04 Q90.2049 1108.19 93.353 1108.19 Z" fill="#000000" fill-rule="nonzero" fill-opacity="1" /><path clip-path="url(#clip010)" d="M124.07 1092.08 Q120.459 1092.08 118.631 1095.64 Q116.825 1099.19 116.825 1106.32 Q116.825 1113.42 118.631 1116.99 Q120.459 1120.53 124.07 1120.53 Q127.705 1120.53 129.51 1116.99 Q131.339 1113.42 131.339 1106.32 Q131.339 1099.19 129.51 1095.64 Q127.705 1092.08 124.07 1092.08 M124.07 1088.38 Q129.881 1088.38 132.936 1092.98 Q136.015 1097.57 136.015 1106.32 Q136.015 1115.04 132.936 1119.65 Q129.881 1124.23 124.07 1124.23 Q118.26 1124.23 115.182 1119.65 Q112.126 1115.04 112.126 1106.32 Q112.126 1097.57 115.182 1092.98 Q118.26 1088.38 124.07 1088.38 Z" fill="#000000" fill-rule="nonzero" fill-opacity="1" /><path clip-path="url(#clip010)" d="M154.232 1092.08 Q150.621 1092.08 148.793 1095.64 Q146.987 1099.19 146.987 1106.32 Q146.987 1113.42 148.793 1116.99 Q150.621 1120.53 154.232 1120.53 Q157.867 1120.53 159.672 1116.99 Q161.501 1113.42 161.501 1106.32 Q161.501 1099.19 159.672 1095.64 Q157.867 1092.08 154.232 1092.08 M154.232 1088.38 Q160.042 1088.38 163.098 1092.98 Q166.177 1097.57 166.177 1106.32 Q166.177 1115.04 163.098 1119.65 Q160.042 1124.23 154.232 1124.23 Q148.422 1124.23 145.343 1119.65 Q142.288 1115.04 142.288 1106.32 Q142.288 1097.57 145.343 1092.98 Q148.422 1088.38 154.232 1088.38 Z" fill="#000000" fill-rule="nonzero" fill-opacity="1" /><path clip-path="url(#clip010)" d="M67.9133 905.259 Q71.2698 905.977 73.1448 908.245 Q75.0429 910.514 75.0429 913.847 Q75.0429 918.963 71.5244 921.764 Q68.0059 924.565 61.5245 924.565 Q59.3486 924.565 57.0338 924.125 Q54.7421 923.708 52.2884 922.852 L52.2884 918.338 Q54.2328 919.472 56.5477 920.051 Q58.8625 920.629 61.3856 920.629 Q65.7837 920.629 68.0754 918.893 Q70.3902 917.157 70.3902 913.847 Q70.3902 910.791 68.2374 909.079 Q66.1078 907.342 62.2884 907.342 L58.2606 907.342 L58.2606 903.5 L62.4735 903.5 Q65.9226 903.5 67.7513 902.134 Q69.58 900.745 69.58 898.153 Q69.58 895.491 67.6819 894.079 Q65.8069 892.643 62.2884 892.643 Q60.3671 892.643 58.168 893.06 Q55.969 893.477 53.3301 894.356 L53.3301 890.19 Q55.9921 889.449 58.3069 889.079 Q60.6449 888.708 62.705 888.708 Q68.0291 888.708 71.1309 891.139 Q74.2327 893.546 74.2327 897.667 Q74.2327 900.537 72.5892 902.528 Q70.9457 904.495 67.9133 905.259 Z" fill="#000000" fill-rule="nonzero" fill-opacity="1" /><path clip-path="url(#clip010)" d="M84.0475 923.176 L84.0475 918.916 Q85.8068 919.75 87.6123 920.19 Q89.4178 920.629 91.1539 920.629 Q95.7836 920.629 98.2141 917.528 Q100.668 914.403 101.015 908.06 Q99.6724 910.051 97.6122 911.116 Q95.5521 912.18 93.0521 912.18 Q87.8669 912.18 84.8345 909.055 Q81.8253 905.907 81.8253 900.467 Q81.8253 895.143 84.9734 891.926 Q88.1216 888.708 93.353 888.708 Q99.3483 888.708 102.496 893.315 Q105.668 897.898 105.668 906.648 Q105.668 914.819 101.779 919.703 Q97.9132 924.565 91.3623 924.565 Q89.603 924.565 87.7975 924.217 Q85.9919 923.87 84.0475 923.176 M93.353 908.523 Q96.5011 908.523 98.3298 906.37 Q100.182 904.217 100.182 900.467 Q100.182 896.741 98.3298 894.588 Q96.5011 892.412 93.353 892.412 Q90.2049 892.412 88.353 894.588 Q86.5243 896.741 86.5243 900.467 Q86.5243 904.217 88.353 906.37 Q90.2049 908.523 93.353 908.523 Z" fill="#000000" fill-rule="nonzero" fill-opacity="1" /><path clip-path="url(#clip010)" d="M118.098 919.958 L134.418 919.958 L134.418 923.893 L112.473 923.893 L112.473 919.958 Q115.135 917.203 119.719 912.574 Q124.325 907.921 125.506 906.579 Q127.751 904.055 128.631 902.319 Q129.533 900.56 129.533 898.87 Q129.533 896.116 127.589 894.38 Q125.668 892.643 122.566 892.643 Q120.367 892.643 117.913 893.407 Q115.483 894.171 112.705 895.722 L112.705 891 Q115.529 889.866 117.983 889.287 Q120.436 888.708 122.473 888.708 Q127.844 888.708 131.038 891.393 Q134.232 894.079 134.232 898.569 Q134.232 900.699 133.422 902.62 Q132.635 904.518 130.529 907.111 Q129.95 907.782 126.848 911 Q123.746 914.194 118.098 919.958 Z" fill="#000000" fill-rule="nonzero" fill-opacity="1" /><path clip-path="url(#clip010)" d="M154.232 892.412 Q150.621 892.412 148.793 895.977 Q146.987 899.518 146.987 906.648 Q146.987 913.754 148.793 917.319 Q150.621 920.861 154.232 920.861 Q157.867 920.861 159.672 917.319 Q161.501 913.754 161.501 906.648 Q161.501 899.518 159.672 895.977 Q157.867 892.412 154.232 892.412 M154.232 888.708 Q160.042 888.708 163.098 893.315 Q166.177 897.898 166.177 906.648 Q166.177 915.375 163.098 919.981 Q160.042 924.565 154.232 924.565 Q148.422 924.565 145.343 919.981 Q142.288 915.375 142.288 906.648 Q142.288 897.898 145.343 893.315 Q148.422 888.708 154.232 888.708 Z" fill="#000000" fill-rule="nonzero" fill-opacity="1" /><path clip-path="url(#clip010)" d="M67.9133 705.592 Q71.2698 706.309 73.1448 708.578 Q75.0429 710.846 75.0429 714.179 Q75.0429 719.295 71.5244 722.096 Q68.0059 724.897 61.5245 724.897 Q59.3486 724.897 57.0338 724.457 Q54.7421 724.041 52.2884 723.184 L52.2884 718.67 Q54.2328 719.804 56.5477 720.383 Q58.8625 720.962 61.3856 720.962 Q65.7837 720.962 68.0754 719.226 Q70.3902 717.49 70.3902 714.179 Q70.3902 711.124 68.2374 709.411 Q66.1078 707.675 62.2884 707.675 L58.2606 707.675 L58.2606 703.832 L62.4735 703.832 Q65.9226 703.832 67.7513 702.467 Q69.58 701.078 69.58 698.485 Q69.58 695.823 67.6819 694.411 Q65.8069 692.976 62.2884 692.976 Q60.3671 692.976 58.168 693.393 Q55.969 693.809 53.3301 694.689 L53.3301 690.522 Q55.9921 689.781 58.3069 689.411 Q60.6449 689.041 62.705 689.041 Q68.0291 689.041 71.1309 691.471 Q74.2327 693.879 74.2327 697.999 Q74.2327 700.869 72.5892 702.86 Q70.9457 704.828 67.9133 705.592 Z" fill="#000000" fill-rule="nonzero" fill-opacity="1" /><path clip-path="url(#clip010)" d="M84.0475 723.508 L84.0475 719.249 Q85.8068 720.082 87.6123 720.522 Q89.4178 720.962 91.1539 720.962 Q95.7836 720.962 98.2141 717.86 Q100.668 714.735 101.015 708.392 Q99.6724 710.383 97.6122 711.448 Q95.5521 712.513 93.0521 712.513 Q87.8669 712.513 84.8345 709.388 Q81.8253 706.24 81.8253 700.8 Q81.8253 695.476 84.9734 692.258 Q88.1216 689.041 93.353 689.041 Q99.3483 689.041 102.496 693.647 Q105.668 698.23 105.668 706.98 Q105.668 715.152 101.779 720.036 Q97.9132 724.897 91.3623 724.897 Q89.603 724.897 87.7975 724.55 Q85.9919 724.203 84.0475 723.508 M93.353 708.855 Q96.5011 708.855 98.3298 706.703 Q100.182 704.55 100.182 700.8 Q100.182 697.073 98.3298 694.92 Q96.5011 692.744 93.353 692.744 Q90.2049 692.744 88.353 694.92 Q86.5243 697.073 86.5243 700.8 Q86.5243 704.55 88.353 706.703 Q90.2049 708.855 93.353 708.855 Z" fill="#000000" fill-rule="nonzero" fill-opacity="1" /><path clip-path="url(#clip010)" d="M126.918 693.74 L115.112 712.189 L126.918 712.189 L126.918 693.74 M125.691 689.666 L131.57 689.666 L131.57 712.189 L136.501 712.189 L136.501 716.078 L131.57 716.078 L131.57 724.226 L126.918 724.226 L126.918 716.078 L111.316 716.078 L111.316 711.564 L125.691 689.666 Z" fill="#000000" fill-rule="nonzero" fill-opacity="1" /><path clip-path="url(#clip010)" d="M154.232 692.744 Q150.621 692.744 148.793 696.309 Q146.987 699.851 146.987 706.98 Q146.987 714.087 148.793 717.652 Q150.621 721.193 154.232 721.193 Q157.867 721.193 159.672 717.652 Q161.501 714.087 161.501 706.98 Q161.501 699.851 159.672 696.309 Q157.867 692.744 154.232 692.744 M154.232 689.041 Q160.042 689.041 163.098 693.647 Q166.177 698.23 166.177 706.98 Q166.177 715.707 163.098 720.314 Q160.042 724.897 154.232 724.897 Q148.422 724.897 145.343 720.314 Q142.288 715.707 142.288 706.98 Q142.288 698.23 145.343 693.647 Q148.422 689.041 154.232 689.041 Z" fill="#000000" fill-rule="nonzero" fill-opacity="1" /><path clip-path="url(#clip010)" d="M67.9133 505.924 Q71.2698 506.642 73.1448 508.91 Q75.0429 511.179 75.0429 514.512 Q75.0429 519.628 71.5244 522.429 Q68.0059 525.229 61.5245 525.229 Q59.3486 525.229 57.0338 524.79 Q54.7421 524.373 52.2884 523.516 L52.2884 519.003 Q54.2328 520.137 56.5477 520.716 Q58.8625 521.294 61.3856 521.294 Q65.7837 521.294 68.0754 519.558 Q70.3902 517.822 70.3902 514.512 Q70.3902 511.456 68.2374 509.743 Q66.1078 508.007 62.2884 508.007 L58.2606 508.007 L58.2606 504.165 L62.4735 504.165 Q65.9226 504.165 67.7513 502.799 Q69.58 501.41 69.58 498.818 Q69.58 496.156 67.6819 494.743 Q65.8069 493.308 62.2884 493.308 Q60.3671 493.308 58.168 493.725 Q55.969 494.142 53.3301 495.021 L53.3301 490.855 Q55.9921 490.114 58.3069 489.744 Q60.6449 489.373 62.705 489.373 Q68.0291 489.373 71.1309 491.804 Q74.2327 494.211 74.2327 498.331 Q74.2327 501.202 72.5892 503.193 Q70.9457 505.16 67.9133 505.924 Z" fill="#000000" fill-rule="nonzero" fill-opacity="1" /><path clip-path="url(#clip010)" d="M84.0475 523.841 L84.0475 519.581 Q85.8068 520.415 87.6123 520.854 Q89.4178 521.294 91.1539 521.294 Q95.7836 521.294 98.2141 518.192 Q100.668 515.067 101.015 508.725 Q99.6724 510.716 97.6122 511.78 Q95.5521 512.845 93.0521 512.845 Q87.8669 512.845 84.8345 509.72 Q81.8253 506.572 81.8253 501.132 Q81.8253 495.808 84.9734 492.591 Q88.1216 489.373 93.353 489.373 Q99.3483 489.373 102.496 493.98 Q105.668 498.563 105.668 507.313 Q105.668 515.484 101.779 520.368 Q97.9132 525.229 91.3623 525.229 Q89.603 525.229 87.7975 524.882 Q85.9919 524.535 84.0475 523.841 M93.353 509.188 Q96.5011 509.188 98.3298 507.035 Q100.182 504.882 100.182 501.132 Q100.182 497.406 98.3298 495.253 Q96.5011 493.077 93.353 493.077 Q90.2049 493.077 88.353 495.253 Q86.5243 497.406 86.5243 501.132 Q86.5243 504.882 88.353 507.035 Q90.2049 509.188 93.353 509.188 Z" fill="#000000" fill-rule="nonzero" fill-opacity="1" /><path clip-path="url(#clip010)" d="M124.649 505.415 Q121.501 505.415 119.649 507.568 Q117.82 509.72 117.82 513.47 Q117.82 517.197 119.649 519.373 Q121.501 521.526 124.649 521.526 Q127.797 521.526 129.626 519.373 Q131.478 517.197 131.478 513.47 Q131.478 509.72 129.626 507.568 Q127.797 505.415 124.649 505.415 M133.931 490.762 L133.931 495.021 Q132.172 494.188 130.367 493.748 Q128.584 493.308 126.825 493.308 Q122.195 493.308 119.742 496.433 Q117.311 499.558 116.964 505.878 Q118.33 503.864 120.39 502.799 Q122.45 501.711 124.927 501.711 Q130.135 501.711 133.144 504.882 Q136.177 508.03 136.177 513.47 Q136.177 518.794 133.029 522.012 Q129.881 525.229 124.649 525.229 Q118.654 525.229 115.483 520.646 Q112.311 516.04 112.311 507.313 Q112.311 499.118 116.2 494.257 Q120.089 489.373 126.64 489.373 Q128.399 489.373 130.182 489.72 Q131.987 490.068 133.931 490.762 Z" fill="#000000" fill-rule="nonzero" fill-opacity="1" /><path clip-path="url(#clip010)" d="M154.232 493.077 Q150.621 493.077 148.793 496.642 Q146.987 500.183 146.987 507.313 Q146.987 514.419 148.793 517.984 Q150.621 521.526 154.232 521.526 Q157.867 521.526 159.672 517.984 Q161.501 514.419 161.501 507.313 Q161.501 500.183 159.672 496.642 Q157.867 493.077 154.232 493.077 M154.232 489.373 Q160.042 489.373 163.098 493.98 Q166.177 498.563 166.177 507.313 Q166.177 516.04 163.098 520.646 Q160.042 525.229 154.232 525.229 Q148.422 525.229 145.343 520.646 Q142.288 516.04 142.288 507.313 Q142.288 498.563 145.343 493.98 Q148.422 489.373 154.232 489.373 Z" fill="#000000" fill-rule="nonzero" fill-opacity="1" /><path clip-path="url(#clip010)" d="M67.9133 306.256 Q71.2698 306.974 73.1448 309.243 Q75.0429 311.511 75.0429 314.844 Q75.0429 319.96 71.5244 322.761 Q68.0059 325.562 61.5245 325.562 Q59.3486 325.562 57.0338 325.122 Q54.7421 324.705 52.2884 323.849 L52.2884 319.335 Q54.2328 320.469 56.5477 321.048 Q58.8625 321.627 61.3856 321.627 Q65.7837 321.627 68.0754 319.891 Q70.3902 318.155 70.3902 314.844 Q70.3902 311.789 68.2374 310.076 Q66.1078 308.34 62.2884 308.34 L58.2606 308.34 L58.2606 304.497 L62.4735 304.497 Q65.9226 304.497 67.7513 303.131 Q69.58 301.743 69.58 299.15 Q69.58 296.488 67.6819 295.076 Q65.8069 293.641 62.2884 293.641 Q60.3671 293.641 58.168 294.057 Q55.969 294.474 53.3301 295.354 L53.3301 291.187 Q55.9921 290.446 58.3069 290.076 Q60.6449 289.706 62.705 289.706 Q68.0291 289.706 71.1309 292.136 Q74.2327 294.544 74.2327 298.664 Q74.2327 301.534 72.5892 303.525 Q70.9457 305.493 67.9133 306.256 Z" fill="#000000" fill-rule="nonzero" fill-opacity="1" /><path clip-path="url(#clip010)" d="M84.0475 324.173 L84.0475 319.914 Q85.8068 320.747 87.6123 321.187 Q89.4178 321.627 91.1539 321.627 Q95.7836 321.627 98.2141 318.525 Q100.668 315.4 101.015 309.057 Q99.6724 311.048 97.6122 312.113 Q95.5521 313.178 93.0521 313.178 Q87.8669 313.178 84.8345 310.053 Q81.8253 306.905 81.8253 301.465 Q81.8253 296.141 84.9734 292.923 Q88.1216 289.706 93.353 289.706 Q99.3483 289.706 102.496 294.312 Q105.668 298.895 105.668 307.645 Q105.668 315.817 101.779 320.701 Q97.9132 325.562 91.3623 325.562 Q89.603 325.562 87.7975 325.215 Q85.9919 324.867 84.0475 324.173 M93.353 309.52 Q96.5011 309.52 98.3298 307.368 Q100.182 305.215 100.182 301.465 Q100.182 297.738 98.3298 295.585 Q96.5011 293.409 93.353 293.409 Q90.2049 293.409 88.353 295.585 Q86.5243 297.738 86.5243 301.465 Q86.5243 305.215 88.353 307.368 Q90.2049 309.52 93.353 309.52 Z" fill="#000000" fill-rule="nonzero" fill-opacity="1" /><path clip-path="url(#clip010)" d="M124.07 308.479 Q120.737 308.479 118.816 310.261 Q116.918 312.043 116.918 315.168 Q116.918 318.293 118.816 320.076 Q120.737 321.858 124.07 321.858 Q127.404 321.858 129.325 320.076 Q131.246 318.27 131.246 315.168 Q131.246 312.043 129.325 310.261 Q127.427 308.479 124.07 308.479 M119.395 306.488 Q116.385 305.747 114.695 303.687 Q113.029 301.627 113.029 298.664 Q113.029 294.52 115.969 292.113 Q118.932 289.706 124.07 289.706 Q129.232 289.706 132.172 292.113 Q135.112 294.52 135.112 298.664 Q135.112 301.627 133.422 303.687 Q131.756 305.747 128.769 306.488 Q132.149 307.275 134.024 309.567 Q135.922 311.858 135.922 315.168 Q135.922 320.192 132.844 322.877 Q129.788 325.562 124.07 325.562 Q118.353 325.562 115.274 322.877 Q112.219 320.192 112.219 315.168 Q112.219 311.858 114.117 309.567 Q116.015 307.275 119.395 306.488 M117.682 299.104 Q117.682 301.789 119.348 303.293 Q121.038 304.798 124.07 304.798 Q127.08 304.798 128.769 303.293 Q130.482 301.789 130.482 299.104 Q130.482 296.419 128.769 294.914 Q127.08 293.409 124.07 293.409 Q121.038 293.409 119.348 294.914 Q117.682 296.419 117.682 299.104 Z" fill="#000000" fill-rule="nonzero" fill-opacity="1" /><path clip-path="url(#clip010)" d="M154.232 293.409 Q150.621 293.409 148.793 296.974 Q146.987 300.516 146.987 307.645 Q146.987 314.752 148.793 318.317 Q150.621 321.858 154.232 321.858 Q157.867 321.858 159.672 318.317 Q161.501 314.752 161.501 307.645 Q161.501 300.516 159.672 296.974 Q157.867 293.409 154.232 293.409 M154.232 289.706 Q160.042 289.706 163.098 294.312 Q166.177 298.895 166.177 307.645 Q166.177 316.372 163.098 320.979 Q160.042 325.562 154.232 325.562 Q148.422 325.562 145.343 320.979 Q142.288 316.372 142.288 307.645 Q142.288 298.895 145.343 294.312 Q148.422 289.706 154.232 289.706 Z" fill="#000000" fill-rule="nonzero" fill-opacity="1" /><path clip-path="url(#clip010)" d="M66.5939 94.7371 L54.7884 113.186 L66.5939 113.186 L66.5939 94.7371 M65.367 90.663 L71.2466 90.663 L71.2466 113.186 L76.1772 113.186 L76.1772 117.075 L71.2466 117.075 L71.2466 125.223 L66.5939 125.223 L66.5939 117.075 L50.9921 117.075 L50.9921 112.561 L65.367 90.663 Z" fill="#000000" fill-rule="nonzero" fill-opacity="1" /><path clip-path="url(#clip010)" d="M93.9086 93.7417 Q90.2975 93.7417 88.4688 97.3065 Q86.6632 100.848 86.6632 107.978 Q86.6632 115.084 88.4688 118.649 Q90.2975 122.191 93.9086 122.191 Q97.5428 122.191 99.3483 118.649 Q101.177 115.084 101.177 107.978 Q101.177 100.848 99.3483 97.3065 Q97.5428 93.7417 93.9086 93.7417 M93.9086 90.038 Q99.7187 90.038 102.774 94.6445 Q105.853 99.2278 105.853 107.978 Q105.853 116.705 102.774 121.311 Q99.7187 125.894 93.9086 125.894 Q88.0984 125.894 85.0197 121.311 Q81.9642 116.705 81.9642 107.978 Q81.9642 99.2278 85.0197 94.6445 Q88.0984 90.038 93.9086 90.038 Z" fill="#000000" fill-rule="nonzero" fill-opacity="1" /><path clip-path="url(#clip010)" d="M124.07 93.7417 Q120.459 93.7417 118.631 97.3065 Q116.825 100.848 116.825 107.978 Q116.825 115.084 118.631 118.649 Q120.459 122.191 124.07 122.191 Q127.705 122.191 129.51 118.649 Q131.339 115.084 131.339 107.978 Q131.339 100.848 129.51 97.3065 Q127.705 93.7417 124.07 93.7417 M124.07 90.038 Q129.881 90.038 132.936 94.6445 Q136.015 99.2278 136.015 107.978 Q136.015 116.705 132.936 121.311 Q129.881 125.894 124.07 125.894 Q118.26 125.894 115.182 121.311 Q112.126 116.705 112.126 107.978 Q112.126 99.2278 115.182 94.6445 Q118.26 90.038 124.07 90.038 Z" fill="#000000" fill-rule="nonzero" fill-opacity="1" /><path clip-path="url(#clip010)" d="M154.232 93.7417 Q150.621 93.7417 148.793 97.3065 Q146.987 100.848 146.987 107.978 Q146.987 115.084 148.793 118.649 Q150.621 122.191 154.232 122.191 Q157.867 122.191 159.672 118.649 Q161.501 115.084 161.501 107.978 Q161.501 100.848 159.672 97.3065 Q157.867 93.7417 154.232 93.7417 M154.232 90.038 Q160.042 90.038 163.098 94.6445 Q166.177 99.2278 166.177 107.978 Q166.177 116.705 163.098 121.311 Q160.042 125.894 154.232 125.894 Q148.422 125.894 145.343 121.311 Q142.288 116.705 142.288 107.978 Q142.288 99.2278 145.343 94.6445 Q148.422 90.038 154.232 90.038 Z" fill="#000000" fill-rule="nonzero" fill-opacity="1" /><polyline clip-path="url(#clip012)" style="stroke:#009af9; stroke-linecap:round; stroke-linejoin:round; stroke-width:4; stroke-opacity:1; fill:none" points="263.042,1445.72 364.485,1445.72 465.927,1425.75 567.369,1295.97 668.812,1146.21 770.254,1046.38 871.697,1156.2 973.139,996.464 1074.58,756.863 1176.02,317.594 1277.47,237.727 1378.91,367.511 1480.35,726.912 1581.79,457.361 1683.24,397.461 1784.68,87.9763 1886.12,287.644 1987.56,297.627 2089.01,387.478 2190.45,87.9763 2291.89,167.843 "/>
<path clip-path="url(#clip010)" d="M273.863 198.898 L924.451 198.898 L924.451 95.2176 L273.863 95.2176  Z" fill="#ffffff" fill-rule="evenodd" fill-opacity="1"/>
<polyline clip-path="url(#clip010)" style="stroke:#000000; stroke-linecap:round; stroke-linejoin:round; stroke-width:4; stroke-opacity:1; fill:none" points="273.863,198.898 924.451,198.898 924.451,95.2176 273.863,95.2176 273.863,198.898 "/>
<polyline clip-path="url(#clip010)" style="stroke:#009af9; stroke-linecap:round; stroke-linejoin:round; stroke-width:4; stroke-opacity:1; fill:none" points="297.758,147.058 441.13,147.058 "/>
<path clip-path="url(#clip010)" d="M465.025 129.778 L486.877 129.778 L486.877 133.713 L469.701 133.713 L469.701 143.944 L486.159 143.944 L486.159 147.879 L469.701 147.879 L469.701 160.402 L487.294 160.402 L487.294 164.338 L465.025 164.338 L465.025 129.778 Z" fill="#000000" fill-rule="nonzero" fill-opacity="1" /><path clip-path="url(#clip010)" d="M514.979 143.389 Q516.576 140.518 518.798 139.153 Q521.02 137.787 524.03 137.787 Q528.08 137.787 530.28 140.634 Q532.479 143.458 532.479 148.689 L532.479 164.338 L528.196 164.338 L528.196 148.828 Q528.196 145.102 526.877 143.296 Q525.557 141.49 522.849 141.49 Q519.539 141.49 517.618 143.69 Q515.696 145.889 515.696 149.685 L515.696 164.338 L511.414 164.338 L511.414 148.828 Q511.414 145.078 510.094 143.296 Q508.775 141.49 506.02 141.49 Q502.757 141.49 500.835 143.713 Q498.914 145.912 498.914 149.685 L498.914 164.338 L494.632 164.338 L494.632 138.412 L498.914 138.412 L498.914 142.44 Q500.372 140.055 502.409 138.921 Q504.446 137.787 507.247 137.787 Q510.071 137.787 512.039 139.222 Q514.03 140.657 514.979 143.389 Z" fill="#000000" fill-rule="nonzero" fill-opacity="1" /><path clip-path="url(#clip010)" d="M545.094 160.449 L545.094 174.199 L540.812 174.199 L540.812 138.412 L545.094 138.412 L545.094 142.347 Q546.437 140.032 548.474 138.921 Q550.534 137.787 553.381 137.787 Q558.103 137.787 561.043 141.537 Q564.006 145.287 564.006 151.398 Q564.006 157.509 561.043 161.259 Q558.103 165.009 553.381 165.009 Q550.534 165.009 548.474 163.898 Q546.437 162.763 545.094 160.449 M559.585 151.398 Q559.585 146.699 557.641 144.037 Q555.719 141.352 552.34 141.352 Q548.96 141.352 547.016 144.037 Q545.094 146.699 545.094 151.398 Q545.094 156.097 547.016 158.782 Q548.96 161.444 552.34 161.444 Q555.719 161.444 557.641 158.782 Q559.585 156.097 559.585 151.398 Z" fill="#000000" fill-rule="nonzero" fill-opacity="1" /><path clip-path="url(#clip010)" d="M571.066 128.319 L575.326 128.319 L575.326 164.338 L571.066 164.338 L571.066 128.319 Z" fill="#000000" fill-rule="nonzero" fill-opacity="1" /><path clip-path="url(#clip010)" d="M594.284 141.398 Q590.858 141.398 588.867 144.083 Q586.876 146.745 586.876 151.398 Q586.876 156.051 588.844 158.736 Q590.835 161.398 594.284 161.398 Q597.687 161.398 599.677 158.713 Q601.668 156.027 601.668 151.398 Q601.668 146.791 599.677 144.106 Q597.687 141.398 594.284 141.398 M594.284 137.787 Q599.839 137.787 603.011 141.398 Q606.182 145.009 606.182 151.398 Q606.182 157.764 603.011 161.398 Q599.839 165.009 594.284 165.009 Q588.705 165.009 585.534 161.398 Q582.386 157.764 582.386 151.398 Q582.386 145.009 585.534 141.398 Q588.705 137.787 594.284 137.787 Z" fill="#000000" fill-rule="nonzero" fill-opacity="1" /><path clip-path="url(#clip010)" d="M624.029 166.745 Q622.223 171.375 620.511 172.787 Q618.798 174.199 615.927 174.199 L612.524 174.199 L612.524 170.634 L615.024 170.634 Q616.784 170.634 617.756 169.8 Q618.728 168.967 619.909 165.865 L620.673 163.921 L610.187 138.412 L614.7 138.412 L622.802 158.689 L630.904 138.412 L635.418 138.412 L624.029 166.745 Z" fill="#000000" fill-rule="nonzero" fill-opacity="1" /><path clip-path="url(#clip010)" d="M663.473 150.31 L663.473 152.393 L643.89 152.393 Q644.168 156.791 646.529 159.106 Q648.913 161.398 653.149 161.398 Q655.603 161.398 657.895 160.796 Q660.209 160.194 662.478 158.99 L662.478 163.018 Q660.186 163.99 657.779 164.5 Q655.371 165.009 652.895 165.009 Q646.691 165.009 643.057 161.398 Q639.446 157.787 639.446 151.629 Q639.446 145.264 642.872 141.537 Q646.321 137.787 652.154 137.787 Q657.385 137.787 660.418 141.166 Q663.473 144.523 663.473 150.31 M659.214 149.06 Q659.168 145.565 657.246 143.481 Q655.348 141.398 652.2 141.398 Q648.635 141.398 646.483 143.412 Q644.353 145.426 644.029 149.083 L659.214 149.06 Z" fill="#000000" fill-rule="nonzero" fill-opacity="1" /><path clip-path="url(#clip010)" d="M687.524 142.347 L687.524 128.319 L691.783 128.319 L691.783 164.338 L687.524 164.338 L687.524 160.449 Q686.181 162.763 684.121 163.898 Q682.084 165.009 679.214 165.009 Q674.515 165.009 671.552 161.259 Q668.612 157.509 668.612 151.398 Q668.612 145.287 671.552 141.537 Q674.515 137.787 679.214 137.787 Q682.084 137.787 684.121 138.921 Q686.181 140.032 687.524 142.347 M673.01 151.398 Q673.01 156.097 674.932 158.782 Q676.876 161.444 680.256 161.444 Q683.635 161.444 685.58 158.782 Q687.524 156.097 687.524 151.398 Q687.524 146.699 685.58 144.037 Q683.635 141.352 680.256 141.352 Q676.876 141.352 674.932 144.037 Q673.01 146.699 673.01 151.398 Z" fill="#000000" fill-rule="nonzero" fill-opacity="1" /><path clip-path="url(#clip010)" d="M712.732 129.778 L717.454 129.778 L724.723 158.99 L731.968 129.778 L737.223 129.778 L744.491 158.99 L751.737 129.778 L756.482 129.778 L747.802 164.338 L741.922 164.338 L734.63 134.338 L727.269 164.338 L721.39 164.338 L712.732 129.778 Z" fill="#000000" fill-rule="nonzero" fill-opacity="1" /><path clip-path="url(#clip010)" d="M769.769 141.398 Q766.343 141.398 764.352 144.083 Q762.362 146.745 762.362 151.398 Q762.362 156.051 764.329 158.736 Q766.32 161.398 769.769 161.398 Q773.172 161.398 775.162 158.713 Q777.153 156.027 777.153 151.398 Q777.153 146.791 775.162 144.106 Q773.172 141.398 769.769 141.398 M769.769 137.787 Q775.325 137.787 778.496 141.398 Q781.667 145.009 781.667 151.398 Q781.667 157.764 778.496 161.398 Q775.325 165.009 769.769 165.009 Q764.19 165.009 761.019 161.398 Q757.871 157.764 757.871 151.398 Q757.871 145.009 761.019 141.398 Q764.19 137.787 769.769 137.787 Z" fill="#000000" fill-rule="nonzero" fill-opacity="1" /><path clip-path="url(#clip010)" d="M803.75 142.393 Q803.033 141.977 802.176 141.791 Q801.343 141.583 800.324 141.583 Q796.713 141.583 794.769 143.944 Q792.848 146.282 792.848 150.68 L792.848 164.338 L788.565 164.338 L788.565 138.412 L792.848 138.412 L792.848 142.44 Q794.19 140.078 796.343 138.944 Q798.496 137.787 801.574 137.787 Q802.014 137.787 802.547 137.856 Q803.079 137.903 803.727 138.018 L803.75 142.393 Z" fill="#000000" fill-rule="nonzero" fill-opacity="1" /><path clip-path="url(#clip010)" d="M808.056 128.319 L812.338 128.319 L812.338 149.592 L825.046 138.412 L830.486 138.412 L816.736 150.541 L831.065 164.338 L825.509 164.338 L812.338 151.676 L812.338 164.338 L808.056 164.338 L808.056 128.319 Z" fill="#000000" fill-rule="nonzero" fill-opacity="1" /><path clip-path="url(#clip010)" d="M856.157 150.31 L856.157 152.393 L836.574 152.393 Q836.852 156.791 839.213 159.106 Q841.597 161.398 845.833 161.398 Q848.287 161.398 850.579 160.796 Q852.894 160.194 855.162 158.99 L855.162 163.018 Q852.87 163.99 850.463 164.5 Q848.056 165.009 845.579 165.009 Q839.375 165.009 835.741 161.398 Q832.13 157.787 832.13 151.629 Q832.13 145.264 835.556 141.537 Q839.005 137.787 844.838 137.787 Q850.069 137.787 853.102 141.166 Q856.157 144.523 856.157 150.31 M851.898 149.06 Q851.852 145.565 849.931 143.481 Q848.032 141.398 844.884 141.398 Q841.32 141.398 839.167 143.412 Q837.037 145.426 836.713 149.083 L851.898 149.06 Z" fill="#000000" fill-rule="nonzero" fill-opacity="1" /><path clip-path="url(#clip010)" d="M878.171 142.393 Q877.454 141.977 876.597 141.791 Q875.764 141.583 874.745 141.583 Q871.134 141.583 869.19 143.944 Q867.268 146.282 867.268 150.68 L867.268 164.338 L862.986 164.338 L862.986 138.412 L867.268 138.412 L867.268 142.44 Q868.611 140.078 870.764 138.944 Q872.917 137.787 875.995 137.787 Q876.435 137.787 876.968 137.856 Q877.5 137.903 878.148 138.018 L878.171 142.393 Z" fill="#000000" fill-rule="nonzero" fill-opacity="1" /><path clip-path="url(#clip010)" d="M899.166 139.176 L899.166 143.203 Q897.361 142.277 895.416 141.815 Q893.472 141.352 891.389 141.352 Q888.217 141.352 886.62 142.324 Q885.046 143.296 885.046 145.24 Q885.046 146.722 886.18 147.578 Q887.315 148.412 890.741 149.176 L892.199 149.5 Q896.736 150.472 898.634 152.254 Q900.555 154.014 900.555 157.185 Q900.555 160.796 897.685 162.902 Q894.838 165.009 889.838 165.009 Q887.754 165.009 885.486 164.592 Q883.241 164.199 880.741 163.388 L880.741 158.99 Q883.102 160.217 885.393 160.842 Q887.685 161.444 889.93 161.444 Q892.94 161.444 894.56 160.426 Q896.18 159.384 896.18 157.509 Q896.18 155.773 895 154.847 Q893.842 153.921 889.884 153.064 L888.403 152.717 Q884.444 151.884 882.685 150.171 Q880.926 148.435 880.926 145.426 Q880.926 141.768 883.518 139.778 Q886.111 137.787 890.879 137.787 Q893.241 137.787 895.324 138.134 Q897.407 138.481 899.166 139.176 Z" fill="#000000" fill-rule="nonzero" fill-opacity="1" /></svg>
