<?xml version="1.0" encoding="utf-8"?>
<svg xmlns="http://www.w3.org/2000/svg" xmlns:xlink="http://www.w3.org/1999/xlink" width="600" height="400" viewBox="0 0 2400 1600">
<defs>
  <clipPath id="clip470">
    <rect x="0" y="0" width="2400" height="1600"/>
  </clipPath>
</defs>
<path clip-path="url(#clip470)" d="M0 1600 L2400 1600 L2400 0 L0 0  Z" fill="#ffffff" fill-rule="evenodd" fill-opacity="1"/>
<defs>
  <clipPath id="clip471">
    <rect x="480" y="0" width="1681" height="1600"/>
  </clipPath>
</defs>
<path clip-path="url(#clip470)" d="M202.177 1486.45 L2352.76 1486.45 L2352.76 47.2441 L202.177 47.2441  Z" fill="#ffffff" fill-rule="evenodd" fill-opacity="1"/>
<defs>
  <clipPath id="clip472">
    <rect x="202" y="47" width="2152" height="1440"/>
  </clipPath>
</defs>
<polyline clip-path="url(#clip472)" style="stroke:#000000; stroke-linecap:round; stroke-linejoin:round; stroke-width:2; stroke-opacity:0.1; fill:none" points="668.812,1486.45 668.812,47.2441 "/>
<polyline clip-path="url(#clip472)" style="stroke:#000000; stroke-linecap:round; stroke-linejoin:round; stroke-width:2; stroke-opacity:0.1; fill:none" points="1176.02,1486.45 1176.02,47.2441 "/>
<polyline clip-path="url(#clip472)" style="stroke:#000000; stroke-linecap:round; stroke-linejoin:round; stroke-width:2; stroke-opacity:0.1; fill:none" points="1683.24,1486.45 1683.24,47.2441 "/>
<polyline clip-path="url(#clip472)" style="stroke:#000000; stroke-linecap:round; stroke-linejoin:round; stroke-width:2; stroke-opacity:0.1; fill:none" points="2190.45,1486.45 2190.45,47.2441 "/>
<polyline clip-path="url(#clip472)" style="stroke:#000000; stroke-linecap:round; stroke-linejoin:round; stroke-width:2; stroke-opacity:0.1; fill:none" points="202.177,1320.14 2352.76,1320.14 "/>
<polyline clip-path="url(#clip472)" style="stroke:#000000; stroke-linecap:round; stroke-linejoin:round; stroke-width:2; stroke-opacity:0.1; fill:none" points="202.177,1123.94 2352.76,1123.94 "/>
<polyline clip-path="url(#clip472)" style="stroke:#000000; stroke-linecap:round; stroke-linejoin:round; stroke-width:2; stroke-opacity:0.1; fill:none" points="202.177,927.734 2352.76,927.734 "/>
<polyline clip-path="url(#clip472)" style="stroke:#000000; stroke-linecap:round; stroke-linejoin:round; stroke-width:2; stroke-opacity:0.1; fill:none" points="202.177,731.529 2352.76,731.529 "/>
<polyline clip-path="url(#clip472)" style="stroke:#000000; stroke-linecap:round; stroke-linejoin:round; stroke-width:2; stroke-opacity:0.1; fill:none" points="202.177,535.324 2352.76,535.324 "/>
<polyline clip-path="url(#clip472)" style="stroke:#000000; stroke-linecap:round; stroke-linejoin:round; stroke-width:2; stroke-opacity:0.1; fill:none" points="202.177,339.119 2352.76,339.119 "/>
<polyline clip-path="url(#clip472)" style="stroke:#000000; stroke-linecap:round; stroke-linejoin:round; stroke-width:2; stroke-opacity:0.1; fill:none" points="202.177,142.914 2352.76,142.914 "/>
<polyline clip-path="url(#clip470)" style="stroke:#000000; stroke-linecap:round; stroke-linejoin:round; stroke-width:4; stroke-opacity:1; fill:none" points="202.177,1486.45 2352.76,1486.45 "/>
<polyline clip-path="url(#clip470)" style="stroke:#000000; stroke-linecap:round; stroke-linejoin:round; stroke-width:4; stroke-opacity:1; fill:none" points="668.812,1486.45 668.812,1467.55 "/>
<polyline clip-path="url(#clip470)" style="stroke:#000000; stroke-linecap:round; stroke-linejoin:round; stroke-width:4; stroke-opacity:1; fill:none" points="1176.02,1486.45 1176.02,1467.55 "/>
<polyline clip-path="url(#clip470)" style="stroke:#000000; stroke-linecap:round; stroke-linejoin:round; stroke-width:4; stroke-opacity:1; fill:none" points="1683.24,1486.45 1683.24,1467.55 "/>
<polyline clip-path="url(#clip470)" style="stroke:#000000; stroke-linecap:round; stroke-linejoin:round; stroke-width:4; stroke-opacity:1; fill:none" points="2190.45,1486.45 2190.45,1467.55 "/>
<path clip-path="url(#clip470)" d="M659.09 1514.29 L677.446 1514.29 L677.446 1518.22 L663.372 1518.22 L663.372 1526.7 Q664.391 1526.35 665.409 1526.19 Q666.428 1526 667.446 1526 Q673.233 1526 676.613 1529.17 Q679.992 1532.34 679.992 1537.76 Q679.992 1543.34 676.52 1546.44 Q673.048 1549.52 666.728 1549.52 Q664.553 1549.52 662.284 1549.15 Q660.039 1548.78 657.631 1548.04 L657.631 1543.34 Q659.715 1544.47 661.937 1545.03 Q664.159 1545.58 666.636 1545.58 Q670.64 1545.58 672.978 1543.48 Q675.316 1541.37 675.316 1537.76 Q675.316 1534.15 672.978 1532.04 Q670.64 1529.94 666.636 1529.94 Q664.761 1529.94 662.886 1530.35 Q661.034 1530.77 659.09 1531.65 L659.09 1514.29 Z" fill="#000000" fill-rule="nonzero" fill-opacity="1" /><path clip-path="url(#clip470)" d="M1150.71 1544.91 L1158.35 1544.91 L1158.35 1518.55 L1150.04 1520.21 L1150.04 1515.95 L1158.3 1514.29 L1162.98 1514.29 L1162.98 1544.91 L1170.62 1544.91 L1170.62 1548.85 L1150.71 1548.85 L1150.71 1544.91 Z" fill="#000000" fill-rule="nonzero" fill-opacity="1" /><path clip-path="url(#clip470)" d="M1190.06 1517.37 Q1186.45 1517.37 1184.62 1520.93 Q1182.82 1524.47 1182.82 1531.6 Q1182.82 1538.71 1184.62 1542.27 Q1186.45 1545.82 1190.06 1545.82 Q1193.7 1545.82 1195.5 1542.27 Q1197.33 1538.71 1197.33 1531.6 Q1197.33 1524.47 1195.5 1520.93 Q1193.7 1517.37 1190.06 1517.37 M1190.06 1513.66 Q1195.87 1513.66 1198.93 1518.27 Q1202.01 1522.85 1202.01 1531.6 Q1202.01 1540.33 1198.93 1544.94 Q1195.87 1549.52 1190.06 1549.52 Q1184.25 1549.52 1181.17 1544.94 Q1178.12 1540.33 1178.12 1531.6 Q1178.12 1522.85 1181.17 1518.27 Q1184.25 1513.66 1190.06 1513.66 Z" fill="#000000" fill-rule="nonzero" fill-opacity="1" /><path clip-path="url(#clip470)" d="M1658.42 1544.91 L1666.06 1544.91 L1666.06 1518.55 L1657.75 1520.21 L1657.75 1515.95 L1666.01 1514.29 L1670.69 1514.29 L1670.69 1544.91 L1678.33 1544.91 L1678.33 1548.85 L1658.42 1548.85 L1658.42 1544.91 Z" fill="#000000" fill-rule="nonzero" fill-opacity="1" /><path clip-path="url(#clip470)" d="M1687.82 1514.29 L1706.18 1514.29 L1706.18 1518.22 L1692.1 1518.22 L1692.1 1526.7 Q1693.12 1526.35 1694.14 1526.19 Q1695.16 1526 1696.18 1526 Q1701.96 1526 1705.34 1529.17 Q1708.72 1532.34 1708.72 1537.76 Q1708.72 1543.34 1705.25 1546.44 Q1701.78 1549.52 1695.46 1549.52 Q1693.28 1549.52 1691.01 1549.15 Q1688.77 1548.78 1686.36 1548.04 L1686.36 1543.34 Q1688.44 1544.47 1690.67 1545.03 Q1692.89 1545.58 1695.37 1545.58 Q1699.37 1545.58 1701.71 1543.48 Q1704.05 1541.37 1704.05 1537.76 Q1704.05 1534.15 1701.71 1532.04 Q1699.37 1529.94 1695.37 1529.94 Q1693.49 1529.94 1691.62 1530.35 Q1689.76 1530.77 1687.82 1531.65 L1687.82 1514.29 Z" fill="#000000" fill-rule="nonzero" fill-opacity="1" /><path clip-path="url(#clip470)" d="M2169.22 1544.91 L2185.54 1544.91 L2185.54 1548.85 L2163.6 1548.85 L2163.6 1544.91 Q2166.26 1542.16 2170.84 1537.53 Q2175.45 1532.88 2176.63 1531.53 Q2178.87 1529.01 2179.75 1527.27 Q2180.66 1525.51 2180.66 1523.82 Q2180.66 1521.07 2178.71 1519.33 Q2176.79 1517.6 2173.69 1517.6 Q2171.49 1517.6 2169.04 1518.36 Q2166.61 1519.13 2163.83 1520.68 L2163.83 1515.95 Q2166.65 1514.82 2169.11 1514.24 Q2171.56 1513.66 2173.6 1513.66 Q2178.97 1513.66 2182.16 1516.35 Q2185.36 1519.03 2185.36 1523.52 Q2185.36 1525.65 2184.55 1527.57 Q2183.76 1529.47 2181.65 1532.07 Q2181.07 1532.74 2177.97 1535.95 Q2174.87 1539.15 2169.22 1544.91 Z" fill="#000000" fill-rule="nonzero" fill-opacity="1" /><path clip-path="url(#clip470)" d="M2205.36 1517.37 Q2201.74 1517.37 2199.92 1520.93 Q2198.11 1524.47 2198.11 1531.6 Q2198.11 1538.71 2199.92 1542.27 Q2201.74 1545.82 2205.36 1545.82 Q2208.99 1545.82 2210.8 1542.27 Q2212.62 1538.71 2212.62 1531.6 Q2212.62 1524.47 2210.8 1520.93 Q2208.99 1517.37 2205.36 1517.37 M2205.36 1513.66 Q2211.17 1513.66 2214.22 1518.27 Q2217.3 1522.85 2217.3 1531.6 Q2217.3 1540.33 2214.22 1544.94 Q2211.17 1549.52 2205.36 1549.52 Q2199.55 1549.52 2196.47 1544.94 Q2193.41 1540.33 2193.41 1531.6 Q2193.41 1522.85 2196.47 1518.27 Q2199.55 1513.66 2205.36 1513.66 Z" fill="#000000" fill-rule="nonzero" fill-opacity="1" /><polyline clip-path="url(#clip470)" style="stroke:#000000; stroke-linecap:round; stroke-linejoin:round; stroke-width:4; stroke-opacity:1; fill:none" points="202.177,1486.45 202.177,47.2441 "/>
<polyline clip-path="url(#clip470)" style="stroke:#000000; stroke-linecap:round; stroke-linejoin:round; stroke-width:4; stroke-opacity:1; fill:none" points="202.177,1320.14 221.074,1320.14 "/>
<polyline clip-path="url(#clip470)" style="stroke:#000000; stroke-linecap:round; stroke-linejoin:round; stroke-width:4; stroke-opacity:1; fill:none" points="202.177,1123.94 221.074,1123.94 "/>
<polyline clip-path="url(#clip470)" style="stroke:#000000; stroke-linecap:round; stroke-linejoin:round; stroke-width:4; stroke-opacity:1; fill:none" points="202.177,927.734 221.074,927.734 "/>
<polyline clip-path="url(#clip470)" style="stroke:#000000; stroke-linecap:round; stroke-linejoin:round; stroke-width:4; stroke-opacity:1; fill:none" points="202.177,731.529 221.074,731.529 "/>
<polyline clip-path="url(#clip470)" style="stroke:#000000; stroke-linecap:round; stroke-linejoin:round; stroke-width:4; stroke-opacity:1; fill:none" points="202.177,535.324 221.074,535.324 "/>
<polyline clip-path="url(#clip470)" style="stroke:#000000; stroke-linecap:round; stroke-linejoin:round; stroke-width:4; stroke-opacity:1; fill:none" points="202.177,339.119 221.074,339.119 "/>
<polyline clip-path="url(#clip470)" style="stroke:#000000; stroke-linecap:round; stroke-linejoin:round; stroke-width:4; stroke-opacity:1; fill:none" points="202.177,142.914 221.074,142.914 "/>
<path clip-path="url(#clip470)" d="M68.9087 1318.79 Q72.2652 1319.51 74.1402 1321.78 Q76.0383 1324.04 76.0383 1327.38 Q76.0383 1332.49 72.5198 1335.29 Q69.0013 1338.1 62.5198 1338.1 Q60.3439 1338.1 58.0291 1337.66 Q55.7375 1337.24 53.2838 1336.38 L53.2838 1331.87 Q55.2282 1333 57.543 1333.58 Q59.8578 1334.16 62.381 1334.16 Q66.7791 1334.16 69.0707 1332.42 Q71.3855 1330.69 71.3855 1327.38 Q71.3855 1324.32 69.2328 1322.61 Q67.1032 1320.87 63.2837 1320.87 L59.256 1320.87 L59.256 1317.03 L63.4689 1317.03 Q66.918 1317.03 68.7467 1315.67 Q70.5754 1314.28 70.5754 1311.68 Q70.5754 1309.02 68.6772 1307.61 Q66.8022 1306.17 63.2837 1306.17 Q61.3624 1306.17 59.1634 1306.59 Q56.9643 1307.01 54.3254 1307.89 L54.3254 1303.72 Q56.9875 1302.98 59.3023 1302.61 Q61.6402 1302.24 63.7004 1302.24 Q69.0244 1302.24 72.1263 1304.67 Q75.2281 1307.08 75.2281 1311.2 Q75.2281 1314.07 73.5846 1316.06 Q71.9411 1318.03 68.9087 1318.79 Z" fill="#000000" fill-rule="nonzero" fill-opacity="1" /><path clip-path="url(#clip470)" d="M94.9039 1321.01 Q91.5706 1321.01 89.6493 1322.79 Q87.7512 1324.58 87.7512 1327.7 Q87.7512 1330.83 89.6493 1332.61 Q91.5706 1334.39 94.9039 1334.39 Q98.2372 1334.39 100.159 1332.61 Q102.08 1330.8 102.08 1327.7 Q102.08 1324.58 100.159 1322.79 Q98.2604 1321.01 94.9039 1321.01 M90.228 1319.02 Q87.2188 1318.28 85.529 1316.22 Q83.8623 1314.16 83.8623 1311.2 Q83.8623 1307.05 86.8021 1304.65 Q89.7651 1302.24 94.9039 1302.24 Q100.066 1302.24 103.006 1304.65 Q105.946 1307.05 105.946 1311.2 Q105.946 1314.16 104.256 1316.22 Q102.589 1318.28 99.603 1319.02 Q102.983 1319.81 104.858 1322.1 Q106.756 1324.39 106.756 1327.7 Q106.756 1332.73 103.677 1335.41 Q100.621 1338.1 94.9039 1338.1 Q89.1864 1338.1 86.1077 1335.41 Q83.0521 1332.73 83.0521 1327.7 Q83.0521 1324.39 84.9503 1322.1 Q86.8484 1319.81 90.228 1319.02 M88.5151 1311.64 Q88.5151 1314.32 90.1817 1315.83 Q91.8715 1317.33 94.9039 1317.33 Q97.9132 1317.33 99.603 1315.83 Q101.316 1314.32 101.316 1311.64 Q101.316 1308.95 99.603 1307.45 Q97.9132 1305.94 94.9039 1305.94 Q91.8715 1305.94 90.1817 1307.45 Q88.5151 1308.95 88.5151 1311.64 Z" fill="#000000" fill-rule="nonzero" fill-opacity="1" /><path clip-path="url(#clip470)" d="M113.885 1302.86 L136.107 1302.86 L136.107 1304.86 L123.561 1337.42 L118.677 1337.42 L130.482 1306.8 L113.885 1306.8 L113.885 1302.86 Z" fill="#000000" fill-rule="nonzero" fill-opacity="1" /><path clip-path="url(#clip470)" d="M145.274 1302.86 L163.63 1302.86 L163.63 1306.8 L149.556 1306.8 L149.556 1315.27 Q150.575 1314.92 151.593 1314.76 Q152.612 1314.58 153.63 1314.58 Q159.417 1314.58 162.797 1317.75 Q166.177 1320.92 166.177 1326.34 Q166.177 1331.92 162.704 1335.02 Q159.232 1338.1 152.913 1338.1 Q150.737 1338.1 148.468 1337.73 Q146.223 1337.35 143.816 1336.61 L143.816 1331.92 Q145.899 1333.05 148.121 1333.6 Q150.343 1334.16 152.82 1334.16 Q156.825 1334.16 159.163 1332.05 Q161.501 1329.95 161.501 1326.34 Q161.501 1322.73 159.163 1320.62 Q156.825 1318.51 152.82 1318.51 Q150.945 1318.51 149.07 1318.93 Q147.218 1319.35 145.274 1320.23 L145.274 1302.86 Z" fill="#000000" fill-rule="nonzero" fill-opacity="1" /><path clip-path="url(#clip470)" d="M67.9133 1122.59 Q71.2698 1123.3 73.1448 1125.57 Q75.0429 1127.84 75.0429 1131.17 Q75.0429 1136.29 71.5244 1139.09 Q68.0059 1141.89 61.5245 1141.89 Q59.3486 1141.89 57.0338 1141.45 Q54.7421 1141.03 52.2884 1140.18 L52.2884 1135.66 Q54.2328 1136.8 56.5477 1137.38 Q58.8625 1137.96 61.3856 1137.96 Q65.7837 1137.96 68.0754 1136.22 Q70.3902 1134.48 70.3902 1131.17 Q70.3902 1128.12 68.2374 1126.4 Q66.1078 1124.67 62.2884 1124.67 L58.2606 1124.67 L58.2606 1120.83 L62.4735 1120.83 Q65.9226 1120.83 67.7513 1119.46 Q69.58 1118.07 69.58 1115.48 Q69.58 1112.82 67.6819 1111.4 Q65.8069 1109.97 62.2884 1109.97 Q60.3671 1109.97 58.168 1110.39 Q55.969 1110.8 53.3301 1111.68 L53.3301 1107.52 Q55.9921 1106.78 58.3069 1106.4 Q60.6449 1106.03 62.705 1106.03 Q68.0291 1106.03 71.1309 1108.46 Q74.2327 1110.87 74.2327 1114.99 Q74.2327 1117.86 72.5892 1119.85 Q70.9457 1121.82 67.9133 1122.59 Z" fill="#000000" fill-rule="nonzero" fill-opacity="1" /><path clip-path="url(#clip470)" d="M84.0475 1140.5 L84.0475 1136.24 Q85.8068 1137.08 87.6123 1137.52 Q89.4178 1137.96 91.1539 1137.96 Q95.7836 1137.96 98.2141 1134.85 Q100.668 1131.73 101.015 1125.39 Q99.6724 1127.38 97.6122 1128.44 Q95.5521 1129.51 93.0521 1129.51 Q87.8669 1129.51 84.8345 1126.38 Q81.8253 1123.23 81.8253 1117.79 Q81.8253 1112.47 84.9734 1109.25 Q88.1216 1106.03 93.353 1106.03 Q99.3483 1106.03 102.496 1110.64 Q105.668 1115.22 105.668 1123.97 Q105.668 1132.15 101.779 1137.03 Q97.9132 1141.89 91.3623 1141.89 Q89.603 1141.89 87.7975 1141.54 Q85.9919 1141.2 84.0475 1140.5 M93.353 1125.85 Q96.5011 1125.85 98.3298 1123.7 Q100.182 1121.54 100.182 1117.79 Q100.182 1114.07 98.3298 1111.91 Q96.5011 1109.74 93.353 1109.74 Q90.2049 1109.74 88.353 1111.91 Q86.5243 1114.07 86.5243 1117.79 Q86.5243 1121.54 88.353 1123.7 Q90.2049 1125.85 93.353 1125.85 Z" fill="#000000" fill-rule="nonzero" fill-opacity="1" /><path clip-path="url(#clip470)" d="M124.07 1109.74 Q120.459 1109.74 118.631 1113.3 Q116.825 1116.84 116.825 1123.97 Q116.825 1131.08 118.631 1134.65 Q120.459 1138.19 124.07 1138.19 Q127.705 1138.19 129.51 1134.65 Q131.339 1131.08 131.339 1123.97 Q131.339 1116.84 129.51 1113.3 Q127.705 1109.74 124.07 1109.74 M124.07 1106.03 Q129.881 1106.03 132.936 1110.64 Q136.015 1115.22 136.015 1123.97 Q136.015 1132.7 132.936 1137.31 Q129.881 1141.89 124.07 1141.89 Q118.26 1141.89 115.182 1137.31 Q112.126 1132.7 112.126 1123.97 Q112.126 1115.22 115.182 1110.64 Q118.26 1106.03 124.07 1106.03 Z" fill="#000000" fill-rule="nonzero" fill-opacity="1" /><path clip-path="url(#clip470)" d="M154.232 1109.74 Q150.621 1109.74 148.793 1113.3 Q146.987 1116.84 146.987 1123.97 Q146.987 1131.08 148.793 1134.65 Q150.621 1138.19 154.232 1138.19 Q157.867 1138.19 159.672 1134.65 Q161.501 1131.08 161.501 1123.97 Q161.501 1116.84 159.672 1113.3 Q157.867 1109.74 154.232 1109.74 M154.232 1106.03 Q160.042 1106.03 163.098 1110.64 Q166.177 1115.22 166.177 1123.97 Q166.177 1132.7 163.098 1137.31 Q160.042 1141.89 154.232 1141.89 Q148.422 1141.89 145.343 1137.31 Q142.288 1132.7 142.288 1123.97 Q142.288 1115.22 145.343 1110.64 Q148.422 1106.03 154.232 1106.03 Z" fill="#000000" fill-rule="nonzero" fill-opacity="1" /><path clip-path="url(#clip470)" d="M68.9087 926.38 Q72.2652 927.098 74.1402 929.366 Q76.0383 931.635 76.0383 934.968 Q76.0383 940.084 72.5198 942.885 Q69.0013 945.685 62.5198 945.685 Q60.3439 945.685 58.0291 945.246 Q55.7375 944.829 53.2838 943.973 L53.2838 939.459 Q55.2282 940.593 57.543 941.172 Q59.8578 941.75 62.381 941.75 Q66.7791 941.75 69.0707 940.014 Q71.3855 938.278 71.3855 934.968 Q71.3855 931.912 69.2328 930.199 Q67.1032 928.463 63.2837 928.463 L59.256 928.463 L59.256 924.621 L63.4689 924.621 Q66.918 924.621 68.7467 923.255 Q70.5754 921.866 70.5754 919.274 Q70.5754 916.612 68.6772 915.2 Q66.8022 913.764 63.2837 913.764 Q61.3624 913.764 59.1634 914.181 Q56.9643 914.598 54.3254 915.477 L54.3254 911.311 Q56.9875 910.57 59.3023 910.2 Q61.6402 909.829 63.7004 909.829 Q69.0244 909.829 72.1263 912.26 Q75.2281 914.667 75.2281 918.787 Q75.2281 921.658 73.5846 923.649 Q71.9411 925.616 68.9087 926.38 Z" fill="#000000" fill-rule="nonzero" fill-opacity="1" /><path clip-path="url(#clip470)" d="M85.0429 944.297 L85.0429 940.037 Q86.8021 940.871 88.6077 941.31 Q90.4132 941.75 92.1493 941.75 Q96.7789 941.75 99.2095 938.648 Q101.663 935.523 102.01 929.181 Q100.668 931.172 98.6076 932.236 Q96.5474 933.301 94.0475 933.301 Q88.8623 933.301 85.8299 930.176 Q82.8207 927.028 82.8207 921.588 Q82.8207 916.264 85.9688 913.047 Q89.1169 909.829 94.3484 909.829 Q100.344 909.829 103.492 914.436 Q106.663 919.019 106.663 927.769 Q106.663 935.94 102.774 940.824 Q98.9085 945.685 92.3576 945.685 Q90.5984 945.685 88.7928 945.338 Q86.9873 944.991 85.0429 944.297 M94.3484 929.644 Q97.4965 929.644 99.3252 927.491 Q101.177 925.338 101.177 921.588 Q101.177 917.862 99.3252 915.709 Q97.4965 913.533 94.3484 913.533 Q91.2002 913.533 89.3484 915.709 Q87.5197 917.862 87.5197 921.588 Q87.5197 925.338 89.3484 927.491 Q91.2002 929.644 94.3484 929.644 Z" fill="#000000" fill-rule="nonzero" fill-opacity="1" /><path clip-path="url(#clip470)" d="M119.094 941.079 L135.413 941.079 L135.413 945.014 L113.469 945.014 L113.469 941.079 Q116.131 938.324 120.714 933.695 Q125.32 929.042 126.501 927.699 Q128.746 925.176 129.626 923.44 Q130.529 921.681 130.529 919.991 Q130.529 917.237 128.584 915.5 Q126.663 913.764 123.561 913.764 Q121.362 913.764 118.908 914.528 Q116.478 915.292 113.7 916.843 L113.7 912.121 Q116.524 910.987 118.978 910.408 Q121.432 909.829 123.469 909.829 Q128.839 909.829 132.033 912.514 Q135.228 915.2 135.228 919.69 Q135.228 921.82 134.418 923.741 Q133.631 925.639 131.524 928.232 Q130.945 928.903 127.844 932.121 Q124.742 935.315 119.094 941.079 Z" fill="#000000" fill-rule="nonzero" fill-opacity="1" /><path clip-path="url(#clip470)" d="M145.274 910.454 L163.63 910.454 L163.63 914.389 L149.556 914.389 L149.556 922.862 Q150.575 922.514 151.593 922.352 Q152.612 922.167 153.63 922.167 Q159.417 922.167 162.797 925.338 Q166.177 928.51 166.177 933.926 Q166.177 939.505 162.704 942.607 Q159.232 945.685 152.913 945.685 Q150.737 945.685 148.468 945.315 Q146.223 944.945 143.816 944.204 L143.816 939.505 Q145.899 940.639 148.121 941.195 Q150.343 941.75 152.82 941.75 Q156.825 941.75 159.163 939.644 Q161.501 937.537 161.501 933.926 Q161.501 930.315 159.163 928.209 Q156.825 926.102 152.82 926.102 Q150.945 926.102 149.07 926.519 Q147.218 926.936 145.274 927.815 L145.274 910.454 Z" fill="#000000" fill-rule="nonzero" fill-opacity="1" /><path clip-path="url(#clip470)" d="M67.9133 730.175 Q71.2698 730.892 73.1448 733.161 Q75.0429 735.43 75.0429 738.763 Q75.0429 743.879 71.5244 746.679 Q68.0059 749.48 61.5245 749.48 Q59.3486 749.48 57.0338 749.041 Q54.7421 748.624 52.2884 747.767 L52.2884 743.254 Q54.2328 744.388 56.5477 744.966 Q58.8625 745.545 61.3856 745.545 Q65.7837 745.545 68.0754 743.809 Q70.3902 742.073 70.3902 738.763 Q70.3902 735.707 68.2374 733.994 Q66.1078 732.258 62.2884 732.258 L58.2606 732.258 L58.2606 728.416 L62.4735 728.416 Q65.9226 728.416 67.7513 727.05 Q69.58 725.661 69.58 723.068 Q69.58 720.406 67.6819 718.994 Q65.8069 717.559 62.2884 717.559 Q60.3671 717.559 58.168 717.976 Q55.969 718.393 53.3301 719.272 L53.3301 715.106 Q55.9921 714.365 58.3069 713.994 Q60.6449 713.624 62.705 713.624 Q68.0291 713.624 71.1309 716.055 Q74.2327 718.462 74.2327 722.582 Q74.2327 725.453 72.5892 727.443 Q70.9457 729.411 67.9133 730.175 Z" fill="#000000" fill-rule="nonzero" fill-opacity="1" /><path clip-path="url(#clip470)" d="M84.0475 748.091 L84.0475 743.832 Q85.8068 744.666 87.6123 745.105 Q89.4178 745.545 91.1539 745.545 Q95.7836 745.545 98.2141 742.443 Q100.668 739.318 101.015 732.976 Q99.6724 734.967 97.6122 736.031 Q95.5521 737.096 93.0521 737.096 Q87.8669 737.096 84.8345 733.971 Q81.8253 730.823 81.8253 725.383 Q81.8253 720.059 84.9734 716.842 Q88.1216 713.624 93.353 713.624 Q99.3483 713.624 102.496 718.231 Q105.668 722.814 105.668 731.564 Q105.668 739.735 101.779 744.619 Q97.9132 749.48 91.3623 749.48 Q89.603 749.48 87.7975 749.133 Q85.9919 748.786 84.0475 748.091 M93.353 733.439 Q96.5011 733.439 98.3298 731.286 Q100.182 729.133 100.182 725.383 Q100.182 721.656 98.3298 719.504 Q96.5011 717.328 93.353 717.328 Q90.2049 717.328 88.353 719.504 Q86.5243 721.656 86.5243 725.383 Q86.5243 729.133 88.353 731.286 Q90.2049 733.439 93.353 733.439 Z" fill="#000000" fill-rule="nonzero" fill-opacity="1" /><path clip-path="url(#clip470)" d="M114.117 714.249 L132.473 714.249 L132.473 718.184 L118.399 718.184 L118.399 726.656 Q119.418 726.309 120.436 726.147 Q121.455 725.962 122.473 725.962 Q128.26 725.962 131.64 729.133 Q135.019 732.305 135.019 737.721 Q135.019 743.3 131.547 746.402 Q128.075 749.48 121.756 749.48 Q119.58 749.48 117.311 749.11 Q115.066 748.74 112.658 747.999 L112.658 743.3 Q114.742 744.434 116.964 744.99 Q119.186 745.545 121.663 745.545 Q125.668 745.545 128.006 743.439 Q130.344 741.332 130.344 737.721 Q130.344 734.11 128.006 732.004 Q125.668 729.897 121.663 729.897 Q119.788 729.897 117.913 730.314 Q116.061 730.73 114.117 731.61 L114.117 714.249 Z" fill="#000000" fill-rule="nonzero" fill-opacity="1" /><path clip-path="url(#clip470)" d="M154.232 717.328 Q150.621 717.328 148.793 720.893 Q146.987 724.434 146.987 731.564 Q146.987 738.67 148.793 742.235 Q150.621 745.777 154.232 745.777 Q157.867 745.777 159.672 742.235 Q161.501 738.67 161.501 731.564 Q161.501 724.434 159.672 720.893 Q157.867 717.328 154.232 717.328 M154.232 713.624 Q160.042 713.624 163.098 718.231 Q166.177 722.814 166.177 731.564 Q166.177 740.291 163.098 744.897 Q160.042 749.48 154.232 749.48 Q148.422 749.48 145.343 744.897 Q142.288 740.291 142.288 731.564 Q142.288 722.814 145.343 718.231 Q148.422 713.624 154.232 713.624 Z" fill="#000000" fill-rule="nonzero" fill-opacity="1" /><path clip-path="url(#clip470)" d="M68.9087 533.97 Q72.2652 534.687 74.1402 536.956 Q76.0383 539.224 76.0383 542.558 Q76.0383 547.673 72.5198 550.474 Q69.0013 553.275 62.5198 553.275 Q60.3439 553.275 58.0291 552.835 Q55.7375 552.419 53.2838 551.562 L53.2838 547.048 Q55.2282 548.183 57.543 548.761 Q59.8578 549.34 62.381 549.34 Q66.7791 549.34 69.0707 547.604 Q71.3855 545.868 71.3855 542.558 Q71.3855 539.502 69.2328 537.789 Q67.1032 536.053 63.2837 536.053 L59.256 536.053 L59.256 532.211 L63.4689 532.211 Q66.918 532.211 68.7467 530.845 Q70.5754 529.456 70.5754 526.863 Q70.5754 524.201 68.6772 522.789 Q66.8022 521.354 63.2837 521.354 Q61.3624 521.354 59.1634 521.771 Q56.9643 522.187 54.3254 523.067 L54.3254 518.9 Q56.9875 518.16 59.3023 517.789 Q61.6402 517.419 63.7004 517.419 Q69.0244 517.419 72.1263 519.849 Q75.2281 522.257 75.2281 526.377 Q75.2281 529.248 73.5846 531.238 Q71.9411 533.206 68.9087 533.97 Z" fill="#000000" fill-rule="nonzero" fill-opacity="1" /><path clip-path="url(#clip470)" d="M85.0429 551.886 L85.0429 547.627 Q86.8021 548.46 88.6077 548.9 Q90.4132 549.34 92.1493 549.34 Q96.7789 549.34 99.2095 546.238 Q101.663 543.113 102.01 536.771 Q100.668 538.761 98.6076 539.826 Q96.5474 540.891 94.0475 540.891 Q88.8623 540.891 85.8299 537.766 Q82.8207 534.618 82.8207 529.178 Q82.8207 523.854 85.9688 520.637 Q89.1169 517.419 94.3484 517.419 Q100.344 517.419 103.492 522.025 Q106.663 526.609 106.663 535.359 Q106.663 543.53 102.774 548.414 Q98.9085 553.275 92.3576 553.275 Q90.5984 553.275 88.7928 552.928 Q86.9873 552.581 85.0429 551.886 M94.3484 537.234 Q97.4965 537.234 99.3252 535.081 Q101.177 532.928 101.177 529.178 Q101.177 525.451 99.3252 523.299 Q97.4965 521.123 94.3484 521.123 Q91.2002 521.123 89.3484 523.299 Q87.5197 525.451 87.5197 529.178 Q87.5197 532.928 89.3484 535.081 Q91.2002 537.234 94.3484 537.234 Z" fill="#000000" fill-rule="nonzero" fill-opacity="1" /><path clip-path="url(#clip470)" d="M113.885 518.044 L136.107 518.044 L136.107 520.035 L123.561 552.604 L118.677 552.604 L130.482 521.979 L113.885 521.979 L113.885 518.044 Z" fill="#000000" fill-rule="nonzero" fill-opacity="1" /><path clip-path="url(#clip470)" d="M145.274 518.044 L163.63 518.044 L163.63 521.979 L149.556 521.979 L149.556 530.451 Q150.575 530.104 151.593 529.942 Q152.612 529.757 153.63 529.757 Q159.417 529.757 162.797 532.928 Q166.177 536.099 166.177 541.516 Q166.177 547.095 162.704 550.197 Q159.232 553.275 152.913 553.275 Q150.737 553.275 148.468 552.905 Q146.223 552.535 143.816 551.794 L143.816 547.095 Q145.899 548.229 148.121 548.785 Q150.343 549.34 152.82 549.34 Q156.825 549.34 159.163 547.234 Q161.501 545.127 161.501 541.516 Q161.501 537.905 159.163 535.798 Q156.825 533.692 152.82 533.692 Q150.945 533.692 149.07 534.109 Q147.218 534.525 145.274 535.405 L145.274 518.044 Z" fill="#000000" fill-rule="nonzero" fill-opacity="1" /><path clip-path="url(#clip470)" d="M66.5939 325.913 L54.7884 344.362 L66.5939 344.362 L66.5939 325.913 M65.367 321.839 L71.2466 321.839 L71.2466 344.362 L76.1772 344.362 L76.1772 348.251 L71.2466 348.251 L71.2466 356.399 L66.5939 356.399 L66.5939 348.251 L50.9921 348.251 L50.9921 343.737 L65.367 321.839 Z" fill="#000000" fill-rule="nonzero" fill-opacity="1" /><path clip-path="url(#clip470)" d="M93.9086 324.918 Q90.2975 324.918 88.4688 328.482 Q86.6632 332.024 86.6632 339.154 Q86.6632 346.26 88.4688 349.825 Q90.2975 353.366 93.9086 353.366 Q97.5428 353.366 99.3483 349.825 Q101.177 346.26 101.177 339.154 Q101.177 332.024 99.3483 328.482 Q97.5428 324.918 93.9086 324.918 M93.9086 321.214 Q99.7187 321.214 102.774 325.82 Q105.853 330.404 105.853 339.154 Q105.853 347.88 102.774 352.487 Q99.7187 357.07 93.9086 357.07 Q88.0984 357.07 85.0197 352.487 Q81.9642 347.88 81.9642 339.154 Q81.9642 330.404 85.0197 325.82 Q88.0984 321.214 93.9086 321.214 Z" fill="#000000" fill-rule="nonzero" fill-opacity="1" /><path clip-path="url(#clip470)" d="M124.07 324.918 Q120.459 324.918 118.631 328.482 Q116.825 332.024 116.825 339.154 Q116.825 346.26 118.631 349.825 Q120.459 353.366 124.07 353.366 Q127.705 353.366 129.51 349.825 Q131.339 346.26 131.339 339.154 Q131.339 332.024 129.51 328.482 Q127.705 324.918 124.07 324.918 M124.07 321.214 Q129.881 321.214 132.936 325.82 Q136.015 330.404 136.015 339.154 Q136.015 347.88 132.936 352.487 Q129.881 357.07 124.07 357.07 Q118.26 357.07 115.182 352.487 Q112.126 347.88 112.126 339.154 Q112.126 330.404 115.182 325.82 Q118.26 321.214 124.07 321.214 Z" fill="#000000" fill-rule="nonzero" fill-opacity="1" /><path clip-path="url(#clip470)" d="M154.232 324.918 Q150.621 324.918 148.793 328.482 Q146.987 332.024 146.987 339.154 Q146.987 346.26 148.793 349.825 Q150.621 353.366 154.232 353.366 Q157.867 353.366 159.672 349.825 Q161.501 346.26 161.501 339.154 Q161.501 332.024 159.672 328.482 Q157.867 324.918 154.232 324.918 M154.232 321.214 Q160.042 321.214 163.098 325.82 Q166.177 330.404 166.177 339.154 Q166.177 347.88 163.098 352.487 Q160.042 357.07 154.232 357.07 Q148.422 357.07 145.343 352.487 Q142.288 347.88 142.288 339.154 Q142.288 330.404 145.343 325.82 Q148.422 321.214 154.232 321.214 Z" fill="#000000" fill-rule="nonzero" fill-opacity="1" /><path clip-path="url(#clip470)" d="M67.5893 129.708 L55.7838 148.157 L67.5893 148.157 L67.5893 129.708 M66.3624 125.634 L72.242 125.634 L72.242 148.157 L77.1725 148.157 L77.1725 152.046 L72.242 152.046 L72.242 160.194 L67.5893 160.194 L67.5893 152.046 L51.9875 152.046 L51.9875 147.532 L66.3624 125.634 Z" fill="#000000" fill-rule="nonzero" fill-opacity="1" /><path clip-path="url(#clip470)" d="M94.9039 128.712 Q91.2928 128.712 89.4641 132.277 Q87.6586 135.819 87.6586 142.948 Q87.6586 150.055 89.4641 153.62 Q91.2928 157.161 94.9039 157.161 Q98.5382 157.161 100.344 153.62 Q102.172 150.055 102.172 142.948 Q102.172 135.819 100.344 132.277 Q98.5382 128.712 94.9039 128.712 M94.9039 125.009 Q100.714 125.009 103.77 129.615 Q106.848 134.198 106.848 142.948 Q106.848 151.675 103.77 156.282 Q100.714 160.865 94.9039 160.865 Q89.0938 160.865 86.0151 156.282 Q82.9595 151.675 82.9595 142.948 Q82.9595 134.198 86.0151 129.615 Q89.0938 125.009 94.9039 125.009 Z" fill="#000000" fill-rule="nonzero" fill-opacity="1" /><path clip-path="url(#clip470)" d="M119.094 156.259 L135.413 156.259 L135.413 160.194 L113.469 160.194 L113.469 156.259 Q116.131 153.504 120.714 148.874 Q125.32 144.222 126.501 142.879 Q128.746 140.356 129.626 138.62 Q130.529 136.861 130.529 135.171 Q130.529 132.416 128.584 130.68 Q126.663 128.944 123.561 128.944 Q121.362 128.944 118.908 129.708 Q116.478 130.472 113.7 132.023 L113.7 127.3 Q116.524 126.166 118.978 125.587 Q121.432 125.009 123.469 125.009 Q128.839 125.009 132.033 127.694 Q135.228 130.379 135.228 134.87 Q135.228 136.999 134.418 138.921 Q133.631 140.819 131.524 143.411 Q130.945 144.083 127.844 147.3 Q124.742 150.495 119.094 156.259 Z" fill="#000000" fill-rule="nonzero" fill-opacity="1" /><path clip-path="url(#clip470)" d="M145.274 125.634 L163.63 125.634 L163.63 129.569 L149.556 129.569 L149.556 138.041 Q150.575 137.694 151.593 137.532 Q152.612 137.347 153.63 137.347 Q159.417 137.347 162.797 140.518 Q166.177 143.689 166.177 149.106 Q166.177 154.684 162.704 157.786 Q159.232 160.865 152.913 160.865 Q150.737 160.865 148.468 160.495 Q146.223 160.124 143.816 159.384 L143.816 154.684 Q145.899 155.819 148.121 156.374 Q150.343 156.93 152.82 156.93 Q156.825 156.93 159.163 154.823 Q161.501 152.717 161.501 149.106 Q161.501 145.495 159.163 143.388 Q156.825 141.282 152.82 141.282 Q150.945 141.282 149.07 141.698 Q147.218 142.115 145.274 142.995 L145.274 125.634 Z" fill="#000000" fill-rule="nonzero" fill-opacity="1" /><polyline clip-path="url(#clip472)" style="stroke:#009af9; stroke-linecap:round; stroke-linejoin:round; stroke-width:4; stroke-opacity:1; fill:none" points="263.042,1390.78 364.485,1390.78 465.927,1194.57 567.369,1202.42 668.812,1445.72 770.254,1414.32 871.697,1273.06 973.139,1249.51 1074.58,1053.31 1176.02,1131.79 1277.47,880.645 1378.91,755.074 1480.35,849.252 1581.79,637.351 1683.24,872.797 1784.68,723.681 1886.12,551.02 1987.56,590.261 2089.01,441.145 2190.45,551.02 2291.89,87.9763 "/>
<path clip-path="url(#clip470)" d="M273.863 198.898 L924.451 198.898 L924.451 95.2176 L273.863 95.2176  Z" fill="#ffffff" fill-rule="evenodd" fill-opacity="1"/>
<polyline clip-path="url(#clip470)" style="stroke:#000000; stroke-linecap:round; stroke-linejoin:round; stroke-width:4; stroke-opacity:1; fill:none" points="273.863,198.898 924.451,198.898 924.451,95.2176 273.863,95.2176 273.863,198.898 "/>
<polyline clip-path="url(#clip470)" style="stroke:#009af9; stroke-linecap:round; stroke-linejoin:round; stroke-width:4; stroke-opacity:1; fill:none" points="297.758,147.058 441.13,147.058 "/>
<path clip-path="url(#clip470)" d="M465.025 129.778 L486.877 129.778 L486.877 133.713 L469.701 133.713 L469.701 143.944 L486.159 143.944 L486.159 147.879 L469.701 147.879 L469.701 160.402 L487.294 160.402 L487.294 164.338 L465.025 164.338 L465.025 129.778 Z" fill="#000000" fill-rule="nonzero" fill-opacity="1" /><path clip-path="url(#clip470)" d="M514.979 143.389 Q516.576 140.518 518.798 139.153 Q521.02 137.787 524.03 137.787 Q528.08 137.787 530.28 140.634 Q532.479 143.458 532.479 148.689 L532.479 164.338 L528.196 164.338 L528.196 148.828 Q528.196 145.102 526.877 143.296 Q525.557 141.49 522.849 141.49 Q519.539 141.49 517.618 143.69 Q515.696 145.889 515.696 149.685 L515.696 164.338 L511.414 164.338 L511.414 148.828 Q511.414 145.078 510.094 143.296 Q508.775 141.49 506.02 141.49 Q502.757 141.49 500.835 143.713 Q498.914 145.912 498.914 149.685 L498.914 164.338 L494.632 164.338 L494.632 138.412 L498.914 138.412 L498.914 142.44 Q500.372 140.055 502.409 138.921 Q504.446 137.787 507.247 137.787 Q510.071 137.787 512.039 139.222 Q514.03 140.657 514.979 143.389 Z" fill="#000000" fill-rule="nonzero" fill-opacity="1" /><path clip-path="url(#clip470)" d="M545.094 160.449 L545.094 174.199 L540.812 174.199 L540.812 138.412 L545.094 138.412 L545.094 142.347 Q546.437 140.032 548.474 138.921 Q550.534 137.787 553.381 137.787 Q558.103 137.787 561.043 141.537 Q564.006 145.287 564.006 151.398 Q564.006 157.509 561.043 161.259 Q558.103 165.009 553.381 165.009 Q550.534 165.009 548.474 163.898 Q546.437 162.763 545.094 160.449 M559.585 151.398 Q559.585 146.699 557.641 144.037 Q555.719 141.352 552.34 141.352 Q548.96 141.352 547.016 144.037 Q545.094 146.699 545.094 151.398 Q545.094 156.097 547.016 158.782 Q548.96 161.444 552.34 161.444 Q555.719 161.444 557.641 158.782 Q559.585 156.097 559.585 151.398 Z" fill="#000000" fill-rule="nonzero" fill-opacity="1" /><path clip-path="url(#clip470)" d="M571.066 128.319 L575.326 128.319 L575.326 164.338 L571.066 164.338 L571.066 128.319 Z" fill="#000000" fill-rule="nonzero" fill-opacity="1" /><path clip-path="url(#clip470)" d="M594.284 141.398 Q590.858 141.398 588.867 144.083 Q586.876 146.745 586.876 151.398 Q586.876 156.051 588.844 158.736 Q590.835 161.398 594.284 161.398 Q597.687 161.398 599.677 158.713 Q601.668 156.027 601.668 151.398 Q601.668 146.791 599.677 144.106 Q597.687 141.398 594.284 141.398 M594.284 137.787 Q599.839 137.787 603.011 141.398 Q606.182 145.009 606.182 151.398 Q606.182 157.764 603.011 161.398 Q599.839 165.009 594.284 165.009 Q588.705 165.009 585.534 161.398 Q582.386 157.764 582.386 151.398 Q582.386 145.009 585.534 141.398 Q588.705 137.787 594.284 137.787 Z" fill="#000000" fill-rule="nonzero" fill-opacity="1" /><path clip-path="url(#clip470)" d="M624.029 166.745 Q622.223 171.375 620.511 172.787 Q618.798 174.199 615.927 174.199 L612.524 174.199 L612.524 170.634 L615.024 170.634 Q616.784 170.634 617.756 169.8 Q618.728 168.967 619.909 165.865 L620.673 163.921 L610.187 138.412 L614.7 138.412 L622.802 158.689 L630.904 138.412 L635.418 138.412 L624.029 166.745 Z" fill="#000000" fill-rule="nonzero" fill-opacity="1" /><path clip-path="url(#clip470)" d="M663.473 150.31 L663.473 152.393 L643.89 152.393 Q644.168 156.791 646.529 159.106 Q648.913 161.398 653.149 161.398 Q655.603 161.398 657.895 160.796 Q660.209 160.194 662.478 158.99 L662.478 163.018 Q660.186 163.99 657.779 164.5 Q655.371 165.009 652.895 165.009 Q646.691 165.009 643.057 161.398 Q639.446 157.787 639.446 151.629 Q639.446 145.264 642.872 141.537 Q646.321 137.787 652.154 137.787 Q657.385 137.787 660.418 141.166 Q663.473 144.523 663.473 150.31 M659.214 149.06 Q659.168 145.565 657.246 143.481 Q655.348 141.398 652.2 141.398 Q648.635 141.398 646.483 143.412 Q644.353 145.426 644.029 149.083 L659.214 149.06 Z" fill="#000000" fill-rule="nonzero" fill-opacity="1" /><path clip-path="url(#clip470)" d="M687.524 142.347 L687.524 128.319 L691.783 128.319 L691.783 164.338 L687.524 164.338 L687.524 160.449 Q686.181 162.763 684.121 163.898 Q682.084 165.009 679.214 165.009 Q674.515 165.009 671.552 161.259 Q668.612 157.509 668.612 151.398 Q668.612 145.287 671.552 141.537 Q674.515 137.787 679.214 137.787 Q682.084 137.787 684.121 138.921 Q686.181 140.032 687.524 142.347 M673.01 151.398 Q673.01 156.097 674.932 158.782 Q676.876 161.444 680.256 161.444 Q683.635 161.444 685.58 158.782 Q687.524 156.097 687.524 151.398 Q687.524 146.699 685.58 144.037 Q683.635 141.352 680.256 141.352 Q676.876 141.352 674.932 144.037 Q673.01 146.699 673.01 151.398 Z" fill="#000000" fill-rule="nonzero" fill-opacity="1" /><path clip-path="url(#clip470)" d="M712.732 129.778 L717.454 129.778 L724.723 158.99 L731.968 129.778 L737.223 129.778 L744.491 158.99 L751.737 129.778 L756.482 129.778 L747.802 164.338 L741.922 164.338 L734.63 134.338 L727.269 164.338 L721.39 164.338 L712.732 129.778 Z" fill="#000000" fill-rule="nonzero" fill-opacity="1" /><path clip-path="url(#clip470)" d="M769.769 141.398 Q766.343 141.398 764.352 144.083 Q762.362 146.745 762.362 151.398 Q762.362 156.051 764.329 158.736 Q766.32 161.398 769.769 161.398 Q773.172 161.398 775.162 158.713 Q777.153 156.027 777.153 151.398 Q777.153 146.791 775.162 144.106 Q773.172 141.398 769.769 141.398 M769.769 137.787 Q775.325 137.787 778.496 141.398 Q781.667 145.009 781.667 151.398 Q781.667 157.764 778.496 161.398 Q775.325 165.009 769.769 165.009 Q764.19 165.009 761.019 161.398 Q757.871 157.764 757.871 151.398 Q757.871 145.009 761.019 141.398 Q764.19 137.787 769.769 137.787 Z" fill="#000000" fill-rule="nonzero" fill-opacity="1" /><path clip-path="url(#clip470)" d="M803.75 142.393 Q803.033 141.977 802.176 141.791 Q801.343 141.583 800.324 141.583 Q796.713 141.583 794.769 143.944 Q792.848 146.282 792.848 150.68 L792.848 164.338 L788.565 164.338 L788.565 138.412 L792.848 138.412 L792.848 142.44 Q794.19 140.078 796.343 138.944 Q798.496 137.787 801.574 137.787 Q802.014 137.787 802.547 137.856 Q803.079 137.903 803.727 138.018 L803.75 142.393 Z" fill="#000000" fill-rule="nonzero" fill-opacity="1" /><path clip-path="url(#clip470)" d="M808.056 128.319 L812.338 128.319 L812.338 149.592 L825.046 138.412 L830.486 138.412 L816.736 150.541 L831.065 164.338 L825.509 164.338 L812.338 151.676 L812.338 164.338 L808.056 164.338 L808.056 128.319 Z" fill="#000000" fill-rule="nonzero" fill-opacity="1" /><path clip-path="url(#clip470)" d="M856.157 150.31 L856.157 152.393 L836.574 152.393 Q836.852 156.791 839.213 159.106 Q841.597 161.398 845.833 161.398 Q848.287 161.398 850.579 160.796 Q852.894 160.194 855.162 158.99 L855.162 163.018 Q852.87 163.99 850.463 164.5 Q848.056 165.009 845.579 165.009 Q839.375 165.009 835.741 161.398 Q832.13 157.787 832.13 151.629 Q832.13 145.264 835.556 141.537 Q839.005 137.787 844.838 137.787 Q850.069 137.787 853.102 141.166 Q856.157 144.523 856.157 150.31 M851.898 149.06 Q851.852 145.565 849.931 143.481 Q848.032 141.398 844.884 141.398 Q841.32 141.398 839.167 143.412 Q837.037 145.426 836.713 149.083 L851.898 149.06 Z" fill="#000000" fill-rule="nonzero" fill-opacity="1" /><path clip-path="url(#clip470)" d="M878.171 142.393 Q877.454 141.977 876.597 141.791 Q875.764 141.583 874.745 141.583 Q871.134 141.583 869.19 143.944 Q867.268 146.282 867.268 150.68 L867.268 164.338 L862.986 164.338 L862.986 138.412 L867.268 138.412 L867.268 142.44 Q868.611 140.078 870.764 138.944 Q872.917 137.787 875.995 137.787 Q876.435 137.787 876.968 137.856 Q877.5 137.903 878.148 138.018 L878.171 142.393 Z" fill="#000000" fill-rule="nonzero" fill-opacity="1" /><path clip-path="url(#clip470)" d="M899.166 139.176 L899.166 143.203 Q897.361 142.277 895.416 141.815 Q893.472 141.352 891.389 141.352 Q888.217 141.352 886.62 142.324 Q885.046 143.296 885.046 145.24 Q885.046 146.722 886.18 147.578 Q887.315 148.412 890.741 149.176 L892.199 149.5 Q896.736 150.472 898.634 152.254 Q900.555 154.014 900.555 157.185 Q900.555 160.796 897.685 162.902 Q894.838 165.009 889.838 165.009 Q887.754 165.009 885.486 164.592 Q883.241 164.199 880.741 163.388 L880.741 158.99 Q883.102 160.217 885.393 160.842 Q887.685 161.444 889.93 161.444 Q892.94 161.444 894.56 160.426 Q896.18 159.384 896.18 157.509 Q896.18 155.773 895 154.847 Q893.842 153.921 889.884 153.064 L888.403 152.717 Q884.444 151.884 882.685 150.171 Q880.926 148.435 880.926 145.426 Q880.926 141.768 883.518 139.778 Q886.111 137.787 890.879 137.787 Q893.241 137.787 895.324 138.134 Q897.407 138.481 899.166 139.176 Z" fill="#000000" fill-rule="nonzero" fill-opacity="1" /></svg>
