<?xml version="1.0" encoding="utf-8"?>
<svg xmlns="http://www.w3.org/2000/svg" xmlns:xlink="http://www.w3.org/1999/xlink" width="600" height="400" viewBox="0 0 2400 1600">
<defs>
  <clipPath id="clip650">
    <rect x="0" y="0" width="2400" height="1600"/>
  </clipPath>
</defs>
<path clip-path="url(#clip650)" d="M0 1600 L2400 1600 L2400 0 L0 0  Z" fill="#ffffff" fill-rule="evenodd" fill-opacity="1"/>
<defs>
  <clipPath id="clip651">
    <rect x="480" y="0" width="1681" height="1600"/>
  </clipPath>
</defs>
<path clip-path="url(#clip650)" d="M230.765 1486.45 L2352.76 1486.45 L2352.76 106.192 L230.765 106.192  Z" fill="#ffffff" fill-rule="evenodd" fill-opacity="1"/>
<defs>
  <clipPath id="clip652">
    <rect x="230" y="106" width="2123" height="1381"/>
  </clipPath>
</defs>
<polyline clip-path="url(#clip652)" style="stroke:#000000; stroke-linecap:round; stroke-linejoin:round; stroke-width:2; stroke-opacity:0.1; fill:none" points="541.056,1486.45 541.056,106.192 "/>
<polyline clip-path="url(#clip652)" style="stroke:#000000; stroke-linecap:round; stroke-linejoin:round; stroke-width:2; stroke-opacity:0.1; fill:none" points="916.408,1486.45 916.408,106.192 "/>
<polyline clip-path="url(#clip652)" style="stroke:#000000; stroke-linecap:round; stroke-linejoin:round; stroke-width:2; stroke-opacity:0.1; fill:none" points="1291.76,1486.45 1291.76,106.192 "/>
<polyline clip-path="url(#clip652)" style="stroke:#000000; stroke-linecap:round; stroke-linejoin:round; stroke-width:2; stroke-opacity:0.1; fill:none" points="1667.11,1486.45 1667.11,106.192 "/>
<polyline clip-path="url(#clip652)" style="stroke:#000000; stroke-linecap:round; stroke-linejoin:round; stroke-width:2; stroke-opacity:0.1; fill:none" points="2042.46,1486.45 2042.46,106.192 "/>
<polyline clip-path="url(#clip652)" style="stroke:#000000; stroke-linecap:round; stroke-linejoin:round; stroke-width:2; stroke-opacity:0.1; fill:none" points="230.765,1372.54 2352.76,1372.54 "/>
<polyline clip-path="url(#clip652)" style="stroke:#000000; stroke-linecap:round; stroke-linejoin:round; stroke-width:2; stroke-opacity:0.1; fill:none" points="230.765,1132.66 2352.76,1132.66 "/>
<polyline clip-path="url(#clip652)" style="stroke:#000000; stroke-linecap:round; stroke-linejoin:round; stroke-width:2; stroke-opacity:0.1; fill:none" points="230.765,892.78 2352.76,892.78 "/>
<polyline clip-path="url(#clip652)" style="stroke:#000000; stroke-linecap:round; stroke-linejoin:round; stroke-width:2; stroke-opacity:0.1; fill:none" points="230.765,652.899 2352.76,652.899 "/>
<polyline clip-path="url(#clip652)" style="stroke:#000000; stroke-linecap:round; stroke-linejoin:round; stroke-width:2; stroke-opacity:0.1; fill:none" points="230.765,413.019 2352.76,413.019 "/>
<polyline clip-path="url(#clip652)" style="stroke:#000000; stroke-linecap:round; stroke-linejoin:round; stroke-width:2; stroke-opacity:0.1; fill:none" points="230.765,173.138 2352.76,173.138 "/>
<polyline clip-path="url(#clip650)" style="stroke:#000000; stroke-linecap:round; stroke-linejoin:round; stroke-width:4; stroke-opacity:1; fill:none" points="230.765,1486.45 2352.76,1486.45 "/>
<polyline clip-path="url(#clip650)" style="stroke:#000000; stroke-linecap:round; stroke-linejoin:round; stroke-width:4; stroke-opacity:1; fill:none" points="541.056,1486.45 541.056,1467.55 "/>
<polyline clip-path="url(#clip650)" style="stroke:#000000; stroke-linecap:round; stroke-linejoin:round; stroke-width:4; stroke-opacity:1; fill:none" points="916.408,1486.45 916.408,1467.55 "/>
<polyline clip-path="url(#clip650)" style="stroke:#000000; stroke-linecap:round; stroke-linejoin:round; stroke-width:4; stroke-opacity:1; fill:none" points="1291.76,1486.45 1291.76,1467.55 "/>
<polyline clip-path="url(#clip650)" style="stroke:#000000; stroke-linecap:round; stroke-linejoin:round; stroke-width:4; stroke-opacity:1; fill:none" points="1667.11,1486.45 1667.11,1467.55 "/>
<polyline clip-path="url(#clip650)" style="stroke:#000000; stroke-linecap:round; stroke-linejoin:round; stroke-width:4; stroke-opacity:1; fill:none" points="2042.46,1486.45 2042.46,1467.55 "/>
<path clip-path="url(#clip650)" d="M545.303 1530.21 Q548.66 1530.93 550.535 1533.2 Q552.433 1535.47 552.433 1538.8 Q552.433 1543.92 548.914 1546.72 Q545.396 1549.52 538.915 1549.52 Q536.739 1549.52 534.424 1549.08 Q532.132 1548.66 529.678 1547.81 L529.678 1543.29 Q531.623 1544.43 533.938 1545.01 Q536.252 1545.58 538.776 1545.58 Q543.174 1545.58 545.465 1543.85 Q547.78 1542.11 547.78 1538.8 Q547.78 1535.75 545.627 1534.03 Q543.498 1532.3 539.678 1532.3 L535.651 1532.3 L535.651 1528.45 L539.864 1528.45 Q543.313 1528.45 545.141 1527.09 Q546.97 1525.7 546.97 1523.11 Q546.97 1520.45 545.072 1519.03 Q543.197 1517.6 539.678 1517.6 Q537.757 1517.6 535.558 1518.01 Q533.359 1518.43 530.72 1519.31 L530.72 1515.14 Q533.382 1514.4 535.697 1514.03 Q538.035 1513.66 540.095 1513.66 Q545.419 1513.66 548.521 1516.09 Q551.623 1518.5 551.623 1522.62 Q551.623 1525.49 549.979 1527.48 Q548.336 1529.45 545.303 1530.21 Z" fill="#000000" fill-rule="nonzero" fill-opacity="1" /><path clip-path="url(#clip650)" d="M916.813 1529.7 Q913.665 1529.7 911.813 1531.86 Q909.984 1534.01 909.984 1537.76 Q909.984 1541.49 911.813 1543.66 Q913.665 1545.82 916.813 1545.82 Q919.961 1545.82 921.79 1543.66 Q923.642 1541.49 923.642 1537.76 Q923.642 1534.01 921.79 1531.86 Q919.961 1529.7 916.813 1529.7 M926.095 1515.05 L926.095 1519.31 Q924.336 1518.48 922.531 1518.04 Q920.748 1517.6 918.989 1517.6 Q914.359 1517.6 911.906 1520.72 Q909.475 1523.85 909.128 1530.17 Q910.494 1528.15 912.554 1527.09 Q914.614 1526 917.091 1526 Q922.299 1526 925.308 1529.17 Q928.341 1532.32 928.341 1537.76 Q928.341 1543.08 925.193 1546.3 Q922.044 1549.52 916.813 1549.52 Q910.818 1549.52 907.646 1544.94 Q904.475 1540.33 904.475 1531.6 Q904.475 1523.41 908.364 1518.55 Q912.253 1513.66 918.804 1513.66 Q920.563 1513.66 922.345 1514.01 Q924.151 1514.36 926.095 1515.05 Z" fill="#000000" fill-rule="nonzero" fill-opacity="1" /><path clip-path="url(#clip650)" d="M1282.06 1548.13 L1282.06 1543.87 Q1283.82 1544.7 1285.63 1545.14 Q1287.43 1545.58 1289.17 1545.58 Q1293.8 1545.58 1296.23 1542.48 Q1298.68 1539.36 1299.03 1533.01 Q1297.69 1535.01 1295.63 1536.07 Q1293.57 1537.13 1291.07 1537.13 Q1285.88 1537.13 1282.85 1534.01 Q1279.84 1530.86 1279.84 1525.42 Q1279.84 1520.1 1282.99 1516.88 Q1286.14 1513.66 1291.37 1513.66 Q1297.36 1513.66 1300.51 1518.27 Q1303.68 1522.85 1303.68 1531.6 Q1303.68 1539.77 1299.79 1544.66 Q1295.93 1549.52 1289.38 1549.52 Q1287.62 1549.52 1285.81 1549.17 Q1284.01 1548.82 1282.06 1548.13 M1291.37 1533.48 Q1294.51 1533.48 1296.34 1531.32 Q1298.2 1529.17 1298.2 1525.42 Q1298.2 1521.7 1296.34 1519.54 Q1294.51 1517.37 1291.37 1517.37 Q1288.22 1517.37 1286.37 1519.54 Q1284.54 1521.7 1284.54 1525.42 Q1284.54 1529.17 1286.37 1531.32 Q1288.22 1533.48 1291.37 1533.48 Z" fill="#000000" fill-rule="nonzero" fill-opacity="1" /><path clip-path="url(#clip650)" d="M1642.6 1544.91 L1650.24 1544.91 L1650.24 1518.55 L1641.93 1520.21 L1641.93 1515.95 L1650.19 1514.29 L1654.87 1514.29 L1654.87 1544.91 L1662.51 1544.91 L1662.51 1548.85 L1642.6 1548.85 L1642.6 1544.91 Z" fill="#000000" fill-rule="nonzero" fill-opacity="1" /><path clip-path="url(#clip650)" d="M1675.98 1544.91 L1692.3 1544.91 L1692.3 1548.85 L1670.35 1548.85 L1670.35 1544.91 Q1673.02 1542.16 1677.6 1537.53 Q1682.2 1532.88 1683.39 1531.53 Q1685.63 1529.01 1686.51 1527.27 Q1687.41 1525.51 1687.41 1523.82 Q1687.41 1521.07 1685.47 1519.33 Q1683.55 1517.6 1680.45 1517.6 Q1678.25 1517.6 1675.79 1518.36 Q1673.36 1519.13 1670.58 1520.68 L1670.58 1515.95 Q1673.41 1514.82 1675.86 1514.24 Q1678.32 1513.66 1680.35 1513.66 Q1685.72 1513.66 1688.92 1516.35 Q1692.11 1519.03 1692.11 1523.52 Q1692.11 1525.65 1691.3 1527.57 Q1690.52 1529.47 1688.41 1532.07 Q1687.83 1532.74 1684.73 1535.95 Q1681.63 1539.15 1675.98 1544.91 Z" fill="#000000" fill-rule="nonzero" fill-opacity="1" /><path clip-path="url(#clip650)" d="M2017.65 1544.91 L2025.29 1544.91 L2025.29 1518.55 L2016.98 1520.21 L2016.98 1515.95 L2025.24 1514.29 L2029.92 1514.29 L2029.92 1544.91 L2037.56 1544.91 L2037.56 1548.85 L2017.65 1548.85 L2017.65 1544.91 Z" fill="#000000" fill-rule="nonzero" fill-opacity="1" /><path clip-path="url(#clip650)" d="M2047.05 1514.29 L2065.4 1514.29 L2065.4 1518.22 L2051.33 1518.22 L2051.33 1526.7 Q2052.35 1526.35 2053.37 1526.19 Q2054.39 1526 2055.4 1526 Q2061.19 1526 2064.57 1529.17 Q2067.95 1532.34 2067.95 1537.76 Q2067.95 1543.34 2064.48 1546.44 Q2061.01 1549.52 2054.69 1549.52 Q2052.51 1549.52 2050.24 1549.15 Q2048 1548.78 2045.59 1548.04 L2045.59 1543.34 Q2047.67 1544.47 2049.9 1545.03 Q2052.12 1545.58 2054.59 1545.58 Q2058.6 1545.58 2060.94 1543.48 Q2063.27 1541.37 2063.27 1537.76 Q2063.27 1534.15 2060.94 1532.04 Q2058.6 1529.94 2054.59 1529.94 Q2052.72 1529.94 2050.84 1530.35 Q2048.99 1530.77 2047.05 1531.65 L2047.05 1514.29 Z" fill="#000000" fill-rule="nonzero" fill-opacity="1" /><polyline clip-path="url(#clip650)" style="stroke:#000000; stroke-linecap:round; stroke-linejoin:round; stroke-width:4; stroke-opacity:1; fill:none" points="230.765,1486.45 230.765,106.192 "/>
<polyline clip-path="url(#clip650)" style="stroke:#000000; stroke-linecap:round; stroke-linejoin:round; stroke-width:4; stroke-opacity:1; fill:none" points="230.765,1372.54 249.662,1372.54 "/>
<polyline clip-path="url(#clip650)" style="stroke:#000000; stroke-linecap:round; stroke-linejoin:round; stroke-width:4; stroke-opacity:1; fill:none" points="230.765,1132.66 249.662,1132.66 "/>
<polyline clip-path="url(#clip650)" style="stroke:#000000; stroke-linecap:round; stroke-linejoin:round; stroke-width:4; stroke-opacity:1; fill:none" points="230.765,892.78 249.662,892.78 "/>
<polyline clip-path="url(#clip650)" style="stroke:#000000; stroke-linecap:round; stroke-linejoin:round; stroke-width:4; stroke-opacity:1; fill:none" points="230.765,652.899 249.662,652.899 "/>
<polyline clip-path="url(#clip650)" style="stroke:#000000; stroke-linecap:round; stroke-linejoin:round; stroke-width:4; stroke-opacity:1; fill:none" points="230.765,413.019 249.662,413.019 "/>
<polyline clip-path="url(#clip650)" style="stroke:#000000; stroke-linecap:round; stroke-linejoin:round; stroke-width:4; stroke-opacity:1; fill:none" points="230.765,173.138 249.662,173.138 "/>
<path clip-path="url(#clip650)" d="M50.9921 1355.26 L73.2142 1355.26 L73.2142 1357.25 L60.668 1389.82 L55.7838 1389.82 L67.5893 1359.2 L50.9921 1359.2 L50.9921 1355.26 Z" fill="#000000" fill-rule="nonzero" fill-opacity="1" /><path clip-path="url(#clip650)" d="M86.3623 1385.89 L102.682 1385.89 L102.682 1389.82 L80.7373 1389.82 L80.7373 1385.89 Q83.3994 1383.13 87.9827 1378.5 Q92.5891 1373.85 93.7697 1372.51 Q96.015 1369.98 96.8947 1368.25 Q97.7974 1366.49 97.7974 1364.8 Q97.7974 1362.04 95.853 1360.31 Q93.9317 1358.57 90.8299 1358.57 Q88.6308 1358.57 86.1771 1359.34 Q83.7466 1360.1 80.9688 1361.65 L80.9688 1356.93 Q83.7929 1355.79 86.2466 1355.21 Q88.7003 1354.64 90.7373 1354.64 Q96.1076 1354.64 99.3021 1357.32 Q102.496 1360.01 102.496 1364.5 Q102.496 1366.63 101.686 1368.55 Q100.899 1370.45 98.7928 1373.04 Q98.2141 1373.71 95.1123 1376.93 Q92.0104 1380.12 86.3623 1385.89 Z" fill="#000000" fill-rule="nonzero" fill-opacity="1" /><path clip-path="url(#clip650)" d="M112.543 1355.26 L130.899 1355.26 L130.899 1359.2 L116.825 1359.2 L116.825 1367.67 Q117.844 1367.32 118.862 1367.16 Q119.881 1366.97 120.899 1366.97 Q126.686 1366.97 130.066 1370.15 Q133.445 1373.32 133.445 1378.73 Q133.445 1384.31 129.973 1387.41 Q126.501 1390.49 120.182 1390.49 Q118.006 1390.49 115.737 1390.12 Q113.492 1389.75 111.084 1389.01 L111.084 1384.31 Q113.168 1385.45 115.39 1386 Q117.612 1386.56 120.089 1386.56 Q124.094 1386.56 126.432 1384.45 Q128.769 1382.34 128.769 1378.73 Q128.769 1375.12 126.432 1373.02 Q124.094 1370.91 120.089 1370.91 Q118.214 1370.91 116.339 1371.33 Q114.487 1371.74 112.543 1372.62 L112.543 1355.26 Z" fill="#000000" fill-rule="nonzero" fill-opacity="1" /><path clip-path="url(#clip650)" d="M152.658 1358.34 Q149.047 1358.34 147.218 1361.9 Q145.413 1365.45 145.413 1372.58 Q145.413 1379.68 147.218 1383.25 Q149.047 1386.79 152.658 1386.79 Q156.292 1386.79 158.098 1383.25 Q159.927 1379.68 159.927 1372.58 Q159.927 1365.45 158.098 1361.9 Q156.292 1358.34 152.658 1358.34 M152.658 1354.64 Q158.468 1354.64 161.524 1359.24 Q164.603 1363.83 164.603 1372.58 Q164.603 1381.3 161.524 1385.91 Q158.468 1390.49 152.658 1390.49 Q146.848 1390.49 143.769 1385.91 Q140.714 1381.3 140.714 1372.58 Q140.714 1363.83 143.769 1359.24 Q146.848 1354.64 152.658 1354.64 Z" fill="#000000" fill-rule="nonzero" fill-opacity="1" /><path clip-path="url(#clip650)" d="M182.82 1358.34 Q179.209 1358.34 177.38 1361.9 Q175.575 1365.45 175.575 1372.58 Q175.575 1379.68 177.38 1383.25 Q179.209 1386.79 182.82 1386.79 Q186.454 1386.79 188.26 1383.25 Q190.089 1379.68 190.089 1372.58 Q190.089 1365.45 188.26 1361.9 Q186.454 1358.34 182.82 1358.34 M182.82 1354.64 Q188.63 1354.64 191.686 1359.24 Q194.765 1363.83 194.765 1372.58 Q194.765 1381.3 191.686 1385.91 Q188.63 1390.49 182.82 1390.49 Q177.01 1390.49 173.931 1385.91 Q170.876 1381.3 170.876 1372.58 Q170.876 1363.83 173.931 1359.24 Q177.01 1354.64 182.82 1354.64 Z" fill="#000000" fill-rule="nonzero" fill-opacity="1" /><path clip-path="url(#clip650)" d="M50.9921 1115.38 L73.2142 1115.38 L73.2142 1117.37 L60.668 1149.94 L55.7838 1149.94 L67.5893 1119.32 L50.9921 1119.32 L50.9921 1115.38 Z" fill="#000000" fill-rule="nonzero" fill-opacity="1" /><path clip-path="url(#clip650)" d="M86.3623 1146.01 L102.682 1146.01 L102.682 1149.94 L80.7373 1149.94 L80.7373 1146.01 Q83.3994 1143.25 87.9827 1138.62 Q92.5891 1133.97 93.7697 1132.63 Q96.015 1130.1 96.8947 1128.37 Q97.7974 1126.61 97.7974 1124.92 Q97.7974 1122.16 95.853 1120.43 Q93.9317 1118.69 90.8299 1118.69 Q88.6308 1118.69 86.1771 1119.45 Q83.7466 1120.22 80.9688 1121.77 L80.9688 1117.05 Q83.7929 1115.91 86.2466 1115.33 Q88.7003 1114.76 90.7373 1114.76 Q96.1076 1114.76 99.3021 1117.44 Q102.496 1120.13 102.496 1124.62 Q102.496 1126.75 101.686 1128.67 Q100.899 1130.57 98.7928 1133.16 Q98.2141 1133.83 95.1123 1137.05 Q92.0104 1140.24 86.3623 1146.01 Z" fill="#000000" fill-rule="nonzero" fill-opacity="1" /><path clip-path="url(#clip650)" d="M111.316 1115.38 L133.538 1115.38 L133.538 1117.37 L120.992 1149.94 L116.108 1149.94 L127.913 1119.32 L111.316 1119.32 L111.316 1115.38 Z" fill="#000000" fill-rule="nonzero" fill-opacity="1" /><path clip-path="url(#clip650)" d="M142.705 1115.38 L161.061 1115.38 L161.061 1119.32 L146.987 1119.32 L146.987 1127.79 Q148.005 1127.44 149.024 1127.28 Q150.043 1127.09 151.061 1127.09 Q156.848 1127.09 160.228 1130.26 Q163.607 1133.44 163.607 1138.85 Q163.607 1144.43 160.135 1147.53 Q156.663 1150.61 150.343 1150.61 Q148.168 1150.61 145.899 1150.24 Q143.654 1149.87 141.246 1149.13 L141.246 1144.43 Q143.33 1145.57 145.552 1146.12 Q147.774 1146.68 150.251 1146.68 Q154.255 1146.68 156.593 1144.57 Q158.931 1142.46 158.931 1138.85 Q158.931 1135.24 156.593 1133.14 Q154.255 1131.03 150.251 1131.03 Q148.376 1131.03 146.501 1131.45 Q144.649 1131.86 142.705 1132.74 L142.705 1115.38 Z" fill="#000000" fill-rule="nonzero" fill-opacity="1" /><path clip-path="url(#clip650)" d="M182.82 1118.46 Q179.209 1118.46 177.38 1122.02 Q175.575 1125.57 175.575 1132.7 Q175.575 1139.8 177.38 1143.37 Q179.209 1146.91 182.82 1146.91 Q186.454 1146.91 188.26 1143.37 Q190.089 1139.8 190.089 1132.7 Q190.089 1125.57 188.26 1122.02 Q186.454 1118.46 182.82 1118.46 M182.82 1114.76 Q188.63 1114.76 191.686 1119.36 Q194.765 1123.95 194.765 1132.7 Q194.765 1141.42 191.686 1146.03 Q188.63 1150.61 182.82 1150.61 Q177.01 1150.61 173.931 1146.03 Q170.876 1141.42 170.876 1132.7 Q170.876 1123.95 173.931 1119.36 Q177.01 1114.76 182.82 1114.76 Z" fill="#000000" fill-rule="nonzero" fill-opacity="1" /><path clip-path="url(#clip650)" d="M50.9921 875.5 L73.2142 875.5 L73.2142 877.491 L60.668 910.06 L55.7838 910.06 L67.5893 879.435 L50.9921 879.435 L50.9921 875.5 Z" fill="#000000" fill-rule="nonzero" fill-opacity="1" /><path clip-path="url(#clip650)" d="M96.5011 891.426 Q99.8576 892.144 101.733 894.412 Q103.631 896.681 103.631 900.014 Q103.631 905.13 100.112 907.93 Q96.5937 910.731 90.1123 910.731 Q87.9364 910.731 85.6216 910.292 Q83.3299 909.875 80.8762 909.018 L80.8762 904.505 Q82.8207 905.639 85.1355 906.218 Q87.4503 906.796 89.9734 906.796 Q94.3715 906.796 96.6632 905.06 Q98.978 903.324 98.978 900.014 Q98.978 896.958 96.8252 895.245 Q94.6956 893.509 90.8762 893.509 L86.8484 893.509 L86.8484 889.667 L91.0614 889.667 Q94.5104 889.667 96.3391 888.301 Q98.1678 886.912 98.1678 884.319 Q98.1678 881.657 96.2697 880.245 Q94.3947 878.81 90.8762 878.81 Q88.9549 878.81 86.7558 879.227 Q84.5568 879.644 81.9179 880.523 L81.9179 876.357 Q84.5799 875.616 86.8947 875.245 Q89.2327 874.875 91.2928 874.875 Q96.6169 874.875 99.7187 877.306 Q102.821 879.713 102.821 883.833 Q102.821 886.704 101.177 888.694 Q99.5335 890.662 96.5011 891.426 Z" fill="#000000" fill-rule="nonzero" fill-opacity="1" /><path clip-path="url(#clip650)" d="M122.496 878.579 Q118.885 878.579 117.057 882.144 Q115.251 885.685 115.251 892.815 Q115.251 899.921 117.057 903.486 Q118.885 907.028 122.496 907.028 Q126.131 907.028 127.936 903.486 Q129.765 899.921 129.765 892.815 Q129.765 885.685 127.936 882.144 Q126.131 878.579 122.496 878.579 M122.496 874.875 Q128.307 874.875 131.362 879.482 Q134.441 884.065 134.441 892.815 Q134.441 901.542 131.362 906.148 Q128.307 910.731 122.496 910.731 Q116.686 910.731 113.608 906.148 Q110.552 901.542 110.552 892.815 Q110.552 884.065 113.608 879.482 Q116.686 874.875 122.496 874.875 Z" fill="#000000" fill-rule="nonzero" fill-opacity="1" /><path clip-path="url(#clip650)" d="M152.658 878.579 Q149.047 878.579 147.218 882.144 Q145.413 885.685 145.413 892.815 Q145.413 899.921 147.218 903.486 Q149.047 907.028 152.658 907.028 Q156.292 907.028 158.098 903.486 Q159.927 899.921 159.927 892.815 Q159.927 885.685 158.098 882.144 Q156.292 878.579 152.658 878.579 M152.658 874.875 Q158.468 874.875 161.524 879.482 Q164.603 884.065 164.603 892.815 Q164.603 901.542 161.524 906.148 Q158.468 910.731 152.658 910.731 Q146.848 910.731 143.769 906.148 Q140.714 901.542 140.714 892.815 Q140.714 884.065 143.769 879.482 Q146.848 874.875 152.658 874.875 Z" fill="#000000" fill-rule="nonzero" fill-opacity="1" /><path clip-path="url(#clip650)" d="M182.82 878.579 Q179.209 878.579 177.38 882.144 Q175.575 885.685 175.575 892.815 Q175.575 899.921 177.38 903.486 Q179.209 907.028 182.82 907.028 Q186.454 907.028 188.26 903.486 Q190.089 899.921 190.089 892.815 Q190.089 885.685 188.26 882.144 Q186.454 878.579 182.82 878.579 M182.82 874.875 Q188.63 874.875 191.686 879.482 Q194.765 884.065 194.765 892.815 Q194.765 901.542 191.686 906.148 Q188.63 910.731 182.82 910.731 Q177.01 910.731 173.931 906.148 Q170.876 901.542 170.876 892.815 Q170.876 884.065 173.931 879.482 Q177.01 874.875 182.82 874.875 Z" fill="#000000" fill-rule="nonzero" fill-opacity="1" /><path clip-path="url(#clip650)" d="M50.9921 635.619 L73.2142 635.619 L73.2142 637.61 L60.668 670.179 L55.7838 670.179 L67.5893 639.555 L50.9921 639.555 L50.9921 635.619 Z" fill="#000000" fill-rule="nonzero" fill-opacity="1" /><path clip-path="url(#clip650)" d="M96.5011 651.545 Q99.8576 652.263 101.733 654.531 Q103.631 656.8 103.631 660.133 Q103.631 665.249 100.112 668.05 Q96.5937 670.851 90.1123 670.851 Q87.9364 670.851 85.6216 670.411 Q83.3299 669.994 80.8762 669.138 L80.8762 664.624 Q82.8207 665.758 85.1355 666.337 Q87.4503 666.916 89.9734 666.916 Q94.3715 666.916 96.6632 665.179 Q98.978 663.443 98.978 660.133 Q98.978 657.078 96.8252 655.365 Q94.6956 653.629 90.8762 653.629 L86.8484 653.629 L86.8484 649.786 L91.0614 649.786 Q94.5104 649.786 96.3391 648.42 Q98.1678 647.031 98.1678 644.439 Q98.1678 641.777 96.2697 640.365 Q94.3947 638.93 90.8762 638.93 Q88.9549 638.93 86.7558 639.346 Q84.5568 639.763 81.9179 640.643 L81.9179 636.476 Q84.5799 635.735 86.8947 635.365 Q89.2327 634.994 91.2928 634.994 Q96.6169 634.994 99.7187 637.425 Q102.821 639.832 102.821 643.953 Q102.821 646.823 101.177 648.814 Q99.5335 650.781 96.5011 651.545 Z" fill="#000000" fill-rule="nonzero" fill-opacity="1" /><path clip-path="url(#clip650)" d="M116.524 666.244 L132.844 666.244 L132.844 670.179 L110.899 670.179 L110.899 666.244 Q113.561 663.49 118.145 658.86 Q122.751 654.207 123.932 652.865 Q126.177 650.342 127.057 648.606 Q127.959 646.846 127.959 645.156 Q127.959 642.402 126.015 640.666 Q124.094 638.93 120.992 638.93 Q118.793 638.93 116.339 639.694 Q113.908 640.457 111.131 642.008 L111.131 637.286 Q113.955 636.152 116.408 635.573 Q118.862 634.994 120.899 634.994 Q126.27 634.994 129.464 637.68 Q132.658 640.365 132.658 644.856 Q132.658 646.985 131.848 648.906 Q131.061 650.805 128.955 653.397 Q128.376 654.068 125.274 657.286 Q122.172 660.48 116.524 666.244 Z" fill="#000000" fill-rule="nonzero" fill-opacity="1" /><path clip-path="url(#clip650)" d="M142.705 635.619 L161.061 635.619 L161.061 639.555 L146.987 639.555 L146.987 648.027 Q148.005 647.68 149.024 647.518 Q150.043 647.332 151.061 647.332 Q156.848 647.332 160.228 650.504 Q163.607 653.675 163.607 659.092 Q163.607 664.67 160.135 667.772 Q156.663 670.851 150.343 670.851 Q148.168 670.851 145.899 670.48 Q143.654 670.11 141.246 669.369 L141.246 664.67 Q143.33 665.804 145.552 666.36 Q147.774 666.916 150.251 666.916 Q154.255 666.916 156.593 664.809 Q158.931 662.703 158.931 659.092 Q158.931 655.48 156.593 653.374 Q154.255 651.268 150.251 651.268 Q148.376 651.268 146.501 651.684 Q144.649 652.101 142.705 652.98 L142.705 635.619 Z" fill="#000000" fill-rule="nonzero" fill-opacity="1" /><path clip-path="url(#clip650)" d="M182.82 638.698 Q179.209 638.698 177.38 642.263 Q175.575 645.805 175.575 652.934 Q175.575 660.041 177.38 663.605 Q179.209 667.147 182.82 667.147 Q186.454 667.147 188.26 663.605 Q190.089 660.041 190.089 652.934 Q190.089 645.805 188.26 642.263 Q186.454 638.698 182.82 638.698 M182.82 634.994 Q188.63 634.994 191.686 639.601 Q194.765 644.184 194.765 652.934 Q194.765 661.661 191.686 666.267 Q188.63 670.851 182.82 670.851 Q177.01 670.851 173.931 666.267 Q170.876 661.661 170.876 652.934 Q170.876 644.184 173.931 639.601 Q177.01 634.994 182.82 634.994 Z" fill="#000000" fill-rule="nonzero" fill-opacity="1" /><path clip-path="url(#clip650)" d="M50.9921 395.739 L73.2142 395.739 L73.2142 397.73 L60.668 430.299 L55.7838 430.299 L67.5893 399.674 L50.9921 399.674 L50.9921 395.739 Z" fill="#000000" fill-rule="nonzero" fill-opacity="1" /><path clip-path="url(#clip650)" d="M96.5011 411.665 Q99.8576 412.382 101.733 414.651 Q103.631 416.919 103.631 420.253 Q103.631 425.368 100.112 428.169 Q96.5937 430.97 90.1123 430.97 Q87.9364 430.97 85.6216 430.53 Q83.3299 430.114 80.8762 429.257 L80.8762 424.743 Q82.8207 425.878 85.1355 426.456 Q87.4503 427.035 89.9734 427.035 Q94.3715 427.035 96.6632 425.299 Q98.978 423.563 98.978 420.253 Q98.978 417.197 96.8252 415.484 Q94.6956 413.748 90.8762 413.748 L86.8484 413.748 L86.8484 409.905 L91.0614 409.905 Q94.5104 409.905 96.3391 408.54 Q98.1678 407.151 98.1678 404.558 Q98.1678 401.896 96.2697 400.484 Q94.3947 399.049 90.8762 399.049 Q88.9549 399.049 86.7558 399.466 Q84.5568 399.882 81.9179 400.762 L81.9179 396.595 Q84.5799 395.855 86.8947 395.484 Q89.2327 395.114 91.2928 395.114 Q96.6169 395.114 99.7187 397.544 Q102.821 399.952 102.821 404.072 Q102.821 406.943 101.177 408.933 Q99.5335 410.901 96.5011 411.665 Z" fill="#000000" fill-rule="nonzero" fill-opacity="1" /><path clip-path="url(#clip650)" d="M112.543 395.739 L130.899 395.739 L130.899 399.674 L116.825 399.674 L116.825 408.146 Q117.844 407.799 118.862 407.637 Q119.881 407.452 120.899 407.452 Q126.686 407.452 130.066 410.623 Q133.445 413.794 133.445 419.211 Q133.445 424.79 129.973 427.891 Q126.501 430.97 120.182 430.97 Q118.006 430.97 115.737 430.6 Q113.492 430.229 111.084 429.489 L111.084 424.79 Q113.168 425.924 115.39 426.479 Q117.612 427.035 120.089 427.035 Q124.094 427.035 126.432 424.929 Q128.769 422.822 128.769 419.211 Q128.769 415.6 126.432 413.493 Q124.094 411.387 120.089 411.387 Q118.214 411.387 116.339 411.804 Q114.487 412.22 112.543 413.1 L112.543 395.739 Z" fill="#000000" fill-rule="nonzero" fill-opacity="1" /><path clip-path="url(#clip650)" d="M152.658 398.818 Q149.047 398.818 147.218 402.382 Q145.413 405.924 145.413 413.054 Q145.413 420.16 147.218 423.725 Q149.047 427.266 152.658 427.266 Q156.292 427.266 158.098 423.725 Q159.927 420.16 159.927 413.054 Q159.927 405.924 158.098 402.382 Q156.292 398.818 152.658 398.818 M152.658 395.114 Q158.468 395.114 161.524 399.72 Q164.603 404.304 164.603 413.054 Q164.603 421.78 161.524 426.387 Q158.468 430.97 152.658 430.97 Q146.848 430.97 143.769 426.387 Q140.714 421.78 140.714 413.054 Q140.714 404.304 143.769 399.72 Q146.848 395.114 152.658 395.114 Z" fill="#000000" fill-rule="nonzero" fill-opacity="1" /><path clip-path="url(#clip650)" d="M182.82 398.818 Q179.209 398.818 177.38 402.382 Q175.575 405.924 175.575 413.054 Q175.575 420.16 177.38 423.725 Q179.209 427.266 182.82 427.266 Q186.454 427.266 188.26 423.725 Q190.089 420.16 190.089 413.054 Q190.089 405.924 188.26 402.382 Q186.454 398.818 182.82 398.818 M182.82 395.114 Q188.63 395.114 191.686 399.72 Q194.765 404.304 194.765 413.054 Q194.765 421.78 191.686 426.387 Q188.63 430.97 182.82 430.97 Q177.01 430.97 173.931 426.387 Q170.876 421.78 170.876 413.054 Q170.876 404.304 173.931 399.72 Q177.01 395.114 182.82 395.114 Z" fill="#000000" fill-rule="nonzero" fill-opacity="1" /><path clip-path="url(#clip650)" d="M50.9921 155.858 L73.2142 155.858 L73.2142 157.849 L60.668 190.418 L55.7838 190.418 L67.5893 159.793 L50.9921 159.793 L50.9921 155.858 Z" fill="#000000" fill-rule="nonzero" fill-opacity="1" /><path clip-path="url(#clip650)" d="M96.5011 171.784 Q99.8576 172.502 101.733 174.77 Q103.631 177.039 103.631 180.372 Q103.631 185.488 100.112 188.289 Q96.5937 191.09 90.1123 191.09 Q87.9364 191.09 85.6216 190.65 Q83.3299 190.233 80.8762 189.377 L80.8762 184.863 Q82.8207 185.997 85.1355 186.576 Q87.4503 187.154 89.9734 187.154 Q94.3715 187.154 96.6632 185.418 Q98.978 183.682 98.978 180.372 Q98.978 177.316 96.8252 175.604 Q94.6956 173.867 90.8762 173.867 L86.8484 173.867 L86.8484 170.025 L91.0614 170.025 Q94.5104 170.025 96.3391 168.659 Q98.1678 167.27 98.1678 164.678 Q98.1678 162.016 96.2697 160.604 Q94.3947 159.168 90.8762 159.168 Q88.9549 159.168 86.7558 159.585 Q84.5568 160.002 81.9179 160.881 L81.9179 156.715 Q84.5799 155.974 86.8947 155.604 Q89.2327 155.233 91.2928 155.233 Q96.6169 155.233 99.7187 157.664 Q102.821 160.071 102.821 164.192 Q102.821 167.062 101.177 169.053 Q99.5335 171.02 96.5011 171.784 Z" fill="#000000" fill-rule="nonzero" fill-opacity="1" /><path clip-path="url(#clip650)" d="M111.316 155.858 L133.538 155.858 L133.538 157.849 L120.992 190.418 L116.108 190.418 L127.913 159.793 L111.316 159.793 L111.316 155.858 Z" fill="#000000" fill-rule="nonzero" fill-opacity="1" /><path clip-path="url(#clip650)" d="M142.705 155.858 L161.061 155.858 L161.061 159.793 L146.987 159.793 L146.987 168.266 Q148.005 167.918 149.024 167.756 Q150.043 167.571 151.061 167.571 Q156.848 167.571 160.228 170.742 Q163.607 173.914 163.607 179.33 Q163.607 184.909 160.135 188.011 Q156.663 191.09 150.343 191.09 Q148.168 191.09 145.899 190.719 Q143.654 190.349 141.246 189.608 L141.246 184.909 Q143.33 186.043 145.552 186.599 Q147.774 187.154 150.251 187.154 Q154.255 187.154 156.593 185.048 Q158.931 182.941 158.931 179.33 Q158.931 175.719 156.593 173.613 Q154.255 171.506 150.251 171.506 Q148.376 171.506 146.501 171.923 Q144.649 172.34 142.705 173.219 L142.705 155.858 Z" fill="#000000" fill-rule="nonzero" fill-opacity="1" /><path clip-path="url(#clip650)" d="M182.82 158.937 Q179.209 158.937 177.38 162.502 Q175.575 166.043 175.575 173.173 Q175.575 180.279 177.38 183.844 Q179.209 187.386 182.82 187.386 Q186.454 187.386 188.26 183.844 Q190.089 180.279 190.089 173.173 Q190.089 166.043 188.26 162.502 Q186.454 158.937 182.82 158.937 M182.82 155.233 Q188.63 155.233 191.686 159.84 Q194.765 164.423 194.765 173.173 Q194.765 181.9 191.686 186.506 Q188.63 191.09 182.82 191.09 Q177.01 191.09 173.931 186.506 Q170.876 181.9 170.876 173.173 Q170.876 164.423 173.931 159.84 Q177.01 155.233 182.82 155.233 Z" fill="#000000" fill-rule="nonzero" fill-opacity="1" /><path clip-path="url(#clip650)" d="M1262.23 35.2602 Q1262.23 29.4732 1259.83 26.2904 Q1257.46 23.1075 1253.15 23.1075 Q1248.86 23.1075 1246.46 26.2904 Q1244.09 29.4732 1244.09 35.2602 Q1244.09 41.0183 1246.46 44.2012 Q1248.86 47.384 1253.15 47.384 Q1257.46 47.384 1259.83 44.2012 Q1262.23 41.0183 1262.23 35.2602 M1267.56 47.818 Q1267.56 56.0934 1263.88 60.1154 Q1260.21 64.1663 1252.63 64.1663 Q1249.82 64.1663 1247.33 63.7323 Q1244.84 63.3272 1242.5 62.4592 L1242.5 57.2798 Q1244.84 58.5529 1247.13 59.1606 Q1249.41 59.7682 1251.79 59.7682 Q1257.02 59.7682 1259.63 57.0194 Q1262.23 54.2995 1262.23 48.7729 L1262.23 46.1398 Q1260.58 49.0044 1258.01 50.4222 Q1255.43 51.84 1251.84 51.84 Q1245.88 51.84 1242.24 47.2972 Q1238.59 42.7544 1238.59 35.2602 Q1238.59 27.7371 1242.24 23.1943 Q1245.88 18.6515 1251.84 18.6515 Q1255.43 18.6515 1258.01 20.0693 Q1260.58 21.4872 1262.23 24.3517 L1262.23 19.4328 L1267.56 19.4328 L1267.56 47.818 Z" fill="#000000" fill-rule="nonzero" fill-opacity="1" /><path clip-path="url(#clip650)" d="M1299.85 24.3517 L1299.85 6.81709 L1305.17 6.81709 L1305.17 51.84 L1299.85 51.84 L1299.85 46.9789 Q1298.17 49.8724 1295.59 51.2902 Q1293.05 52.6791 1289.46 52.6791 Q1283.59 52.6791 1279.88 47.9916 Q1276.21 43.3042 1276.21 35.6653 Q1276.21 28.0265 1279.88 23.339 Q1283.59 18.6515 1289.46 18.6515 Q1293.05 18.6515 1295.59 20.0693 Q1298.17 21.4582 1299.85 24.3517 M1281.71 35.6653 Q1281.71 41.5391 1284.11 44.8956 Q1286.54 48.2231 1290.76 48.2231 Q1294.99 48.2231 1297.42 44.8956 Q1299.85 41.5391 1299.85 35.6653 Q1299.85 29.7915 1297.42 26.464 Q1294.99 23.1075 1290.76 23.1075 Q1286.54 23.1075 1284.11 26.464 Q1281.71 29.7915 1281.71 35.6653 Z" fill="#000000" fill-rule="nonzero" fill-opacity="1" /><path clip-path="url(#clip650)" d="M1321.29 46.9789 L1321.29 64.1663 L1315.94 64.1663 L1315.94 19.4328 L1321.29 19.4328 L1321.29 24.3517 Q1322.97 21.4582 1325.51 20.0693 Q1328.09 18.6515 1331.65 18.6515 Q1337.55 18.6515 1341.22 23.339 Q1344.93 28.0265 1344.93 35.6653 Q1344.93 43.3042 1341.22 47.9916 Q1337.55 52.6791 1331.65 52.6791 Q1328.09 52.6791 1325.51 51.2902 Q1322.97 49.8724 1321.29 46.9789 M1339.4 35.6653 Q1339.4 29.7915 1336.97 26.464 Q1334.57 23.1075 1330.35 23.1075 Q1326.12 23.1075 1323.69 26.464 Q1321.29 29.7915 1321.29 35.6653 Q1321.29 41.5391 1323.69 44.8956 Q1326.12 48.2231 1330.35 48.2231 Q1334.57 48.2231 1336.97 44.8956 Q1339.4 41.5391 1339.4 35.6653 Z" fill="#000000" fill-rule="nonzero" fill-opacity="1" /><polyline clip-path="url(#clip652)" style="stroke:#009af9; stroke-linecap:round; stroke-linejoin:round; stroke-width:4; stroke-opacity:1; fill:none" points="290.821,1447.38 415.938,1356.2 541.056,300.501 666.173,145.256 791.291,348.994 916.408,698.936 1041.53,498.55 1166.64,1092.02 1291.76,749.694 1416.88,171.993 1542,429.048 1667.11,532.515 1792.23,763.106 1917.35,1188.62 2042.46,957.947 2167.58,751.63 2292.7,924.676 "/>
<path clip-path="url(#clip650)" d="M2017.39 255.881 L2282.02 255.881 L2282.02 152.201 L2017.39 152.201  Z" fill="#ffffff" fill-rule="evenodd" fill-opacity="1"/>
<polyline clip-path="url(#clip650)" style="stroke:#000000; stroke-linecap:round; stroke-linejoin:round; stroke-width:4; stroke-opacity:1; fill:none" points="2017.39,255.881 2282.02,255.881 2282.02,152.201 2017.39,152.201 2017.39,255.881 "/>
<polyline clip-path="url(#clip650)" style="stroke:#009af9; stroke-linecap:round; stroke-linejoin:round; stroke-width:4; stroke-opacity:1; fill:none" points="2040.97,204.041 2182.44,204.041 "/>
<path clip-path="url(#clip650)" d="M2219.86 223.728 Q2218.05 228.358 2216.34 229.77 Q2214.63 231.182 2211.76 231.182 L2208.35 231.182 L2208.35 227.617 L2210.85 227.617 Q2212.61 227.617 2213.58 226.784 Q2214.56 225.95 2215.74 222.848 L2216.5 220.904 L2206.01 195.395 L2210.53 195.395 L2218.63 215.673 L2226.73 195.395 L2231.25 195.395 L2219.86 223.728 Z" fill="#000000" fill-rule="nonzero" fill-opacity="1" /><path clip-path="url(#clip650)" d="M2238.54 217.385 L2246.18 217.385 L2246.18 191.02 L2237.87 192.687 L2237.87 188.427 L2246.13 186.761 L2250.81 186.761 L2250.81 217.385 L2258.45 217.385 L2258.45 221.321 L2238.54 221.321 L2238.54 217.385 Z" fill="#000000" fill-rule="nonzero" fill-opacity="1" /></svg>
