<?xml version="1.0" encoding="utf-8"?>
<svg xmlns="http://www.w3.org/2000/svg" xmlns:xlink="http://www.w3.org/1999/xlink" width="600" height="400" viewBox="0 0 2400 1600">
<defs>
  <clipPath id="clip730">
    <rect x="0" y="0" width="2400" height="1600"/>
  </clipPath>
</defs>
<path clip-path="url(#clip730)" d="M0 1600 L2400 1600 L2400 0 L0 0  Z" fill="#ffffff" fill-rule="evenodd" fill-opacity="1"/>
<defs>
  <clipPath id="clip731">
    <rect x="480" y="0" width="1681" height="1600"/>
  </clipPath>
</defs>
<path clip-path="url(#clip730)" d="M230.765 1486.45 L2352.76 1486.45 L2352.76 106.192 L230.765 106.192  Z" fill="#ffffff" fill-rule="evenodd" fill-opacity="1"/>
<defs>
  <clipPath id="clip732">
    <rect x="230" y="106" width="2123" height="1381"/>
  </clipPath>
</defs>
<polyline clip-path="url(#clip732)" style="stroke:#000000; stroke-linecap:round; stroke-linejoin:round; stroke-width:2; stroke-opacity:0.1; fill:none" points="541.056,1486.45 541.056,106.192 "/>
<polyline clip-path="url(#clip732)" style="stroke:#000000; stroke-linecap:round; stroke-linejoin:round; stroke-width:2; stroke-opacity:0.1; fill:none" points="916.408,1486.45 916.408,106.192 "/>
<polyline clip-path="url(#clip732)" style="stroke:#000000; stroke-linecap:round; stroke-linejoin:round; stroke-width:2; stroke-opacity:0.1; fill:none" points="1291.76,1486.45 1291.76,106.192 "/>
<polyline clip-path="url(#clip732)" style="stroke:#000000; stroke-linecap:round; stroke-linejoin:round; stroke-width:2; stroke-opacity:0.1; fill:none" points="1667.11,1486.45 1667.11,106.192 "/>
<polyline clip-path="url(#clip732)" style="stroke:#000000; stroke-linecap:round; stroke-linejoin:round; stroke-width:2; stroke-opacity:0.1; fill:none" points="2042.46,1486.45 2042.46,106.192 "/>
<polyline clip-path="url(#clip732)" style="stroke:#000000; stroke-linecap:round; stroke-linejoin:round; stroke-width:2; stroke-opacity:0.1; fill:none" points="230.765,1322.6 2352.76,1322.6 "/>
<polyline clip-path="url(#clip732)" style="stroke:#000000; stroke-linecap:round; stroke-linejoin:round; stroke-width:2; stroke-opacity:0.1; fill:none" points="230.765,1112.29 2352.76,1112.29 "/>
<polyline clip-path="url(#clip732)" style="stroke:#000000; stroke-linecap:round; stroke-linejoin:round; stroke-width:2; stroke-opacity:0.1; fill:none" points="230.765,901.987 2352.76,901.987 "/>
<polyline clip-path="url(#clip732)" style="stroke:#000000; stroke-linecap:round; stroke-linejoin:round; stroke-width:2; stroke-opacity:0.1; fill:none" points="230.765,691.683 2352.76,691.683 "/>
<polyline clip-path="url(#clip732)" style="stroke:#000000; stroke-linecap:round; stroke-linejoin:round; stroke-width:2; stroke-opacity:0.1; fill:none" points="230.765,481.379 2352.76,481.379 "/>
<polyline clip-path="url(#clip732)" style="stroke:#000000; stroke-linecap:round; stroke-linejoin:round; stroke-width:2; stroke-opacity:0.1; fill:none" points="230.765,271.075 2352.76,271.075 "/>
<polyline clip-path="url(#clip730)" style="stroke:#000000; stroke-linecap:round; stroke-linejoin:round; stroke-width:4; stroke-opacity:1; fill:none" points="230.765,1486.45 2352.76,1486.45 "/>
<polyline clip-path="url(#clip730)" style="stroke:#000000; stroke-linecap:round; stroke-linejoin:round; stroke-width:4; stroke-opacity:1; fill:none" points="541.056,1486.45 541.056,1467.55 "/>
<polyline clip-path="url(#clip730)" style="stroke:#000000; stroke-linecap:round; stroke-linejoin:round; stroke-width:4; stroke-opacity:1; fill:none" points="916.408,1486.45 916.408,1467.55 "/>
<polyline clip-path="url(#clip730)" style="stroke:#000000; stroke-linecap:round; stroke-linejoin:round; stroke-width:4; stroke-opacity:1; fill:none" points="1291.76,1486.45 1291.76,1467.55 "/>
<polyline clip-path="url(#clip730)" style="stroke:#000000; stroke-linecap:round; stroke-linejoin:round; stroke-width:4; stroke-opacity:1; fill:none" points="1667.11,1486.45 1667.11,1467.55 "/>
<polyline clip-path="url(#clip730)" style="stroke:#000000; stroke-linecap:round; stroke-linejoin:round; stroke-width:4; stroke-opacity:1; fill:none" points="2042.46,1486.45 2042.46,1467.55 "/>
<path clip-path="url(#clip730)" d="M545.303 1530.21 Q548.66 1530.93 550.535 1533.2 Q552.433 1535.47 552.433 1538.8 Q552.433 1543.92 548.914 1546.72 Q545.396 1549.52 538.915 1549.52 Q536.739 1549.52 534.424 1549.08 Q532.132 1548.66 529.678 1547.81 L529.678 1543.29 Q531.623 1544.43 533.938 1545.01 Q536.252 1545.58 538.776 1545.58 Q543.174 1545.58 545.465 1543.85 Q547.78 1542.11 547.78 1538.8 Q547.78 1535.75 545.627 1534.03 Q543.498 1532.3 539.678 1532.3 L535.651 1532.3 L535.651 1528.45 L539.864 1528.45 Q543.313 1528.45 545.141 1527.09 Q546.97 1525.7 546.97 1523.11 Q546.97 1520.45 545.072 1519.03 Q543.197 1517.6 539.678 1517.6 Q537.757 1517.6 535.558 1518.01 Q533.359 1518.43 530.72 1519.31 L530.72 1515.14 Q533.382 1514.4 535.697 1514.03 Q538.035 1513.66 540.095 1513.66 Q545.419 1513.66 548.521 1516.09 Q551.623 1518.5 551.623 1522.62 Q551.623 1525.49 549.979 1527.48 Q548.336 1529.45 545.303 1530.21 Z" fill="#000000" fill-rule="nonzero" fill-opacity="1" /><path clip-path="url(#clip730)" d="M916.813 1529.7 Q913.665 1529.7 911.813 1531.86 Q909.984 1534.01 909.984 1537.76 Q909.984 1541.49 911.813 1543.66 Q913.665 1545.82 916.813 1545.82 Q919.961 1545.82 921.79 1543.66 Q923.642 1541.49 923.642 1537.76 Q923.642 1534.01 921.79 1531.86 Q919.961 1529.7 916.813 1529.7 M926.095 1515.05 L926.095 1519.31 Q924.336 1518.48 922.531 1518.04 Q920.748 1517.6 918.989 1517.6 Q914.359 1517.6 911.906 1520.72 Q909.475 1523.85 909.128 1530.17 Q910.494 1528.15 912.554 1527.09 Q914.614 1526 917.091 1526 Q922.299 1526 925.308 1529.17 Q928.341 1532.32 928.341 1537.76 Q928.341 1543.08 925.193 1546.3 Q922.044 1549.52 916.813 1549.52 Q910.818 1549.52 907.646 1544.94 Q904.475 1540.33 904.475 1531.6 Q904.475 1523.41 908.364 1518.55 Q912.253 1513.66 918.804 1513.66 Q920.563 1513.66 922.345 1514.01 Q924.151 1514.36 926.095 1515.05 Z" fill="#000000" fill-rule="nonzero" fill-opacity="1" /><path clip-path="url(#clip730)" d="M1282.06 1548.13 L1282.06 1543.87 Q1283.82 1544.7 1285.63 1545.14 Q1287.43 1545.58 1289.17 1545.58 Q1293.8 1545.58 1296.23 1542.48 Q1298.68 1539.36 1299.03 1533.01 Q1297.69 1535.01 1295.63 1536.07 Q1293.57 1537.13 1291.07 1537.13 Q1285.88 1537.13 1282.85 1534.01 Q1279.84 1530.86 1279.84 1525.42 Q1279.84 1520.1 1282.99 1516.88 Q1286.14 1513.66 1291.37 1513.66 Q1297.36 1513.66 1300.51 1518.27 Q1303.68 1522.85 1303.68 1531.6 Q1303.68 1539.77 1299.79 1544.66 Q1295.93 1549.52 1289.38 1549.52 Q1287.62 1549.52 1285.81 1549.17 Q1284.01 1548.82 1282.06 1548.13 M1291.37 1533.48 Q1294.51 1533.48 1296.34 1531.32 Q1298.2 1529.17 1298.2 1525.42 Q1298.2 1521.7 1296.34 1519.54 Q1294.51 1517.37 1291.37 1517.37 Q1288.22 1517.37 1286.37 1519.54 Q1284.54 1521.7 1284.54 1525.42 Q1284.54 1529.17 1286.37 1531.32 Q1288.22 1533.48 1291.37 1533.48 Z" fill="#000000" fill-rule="nonzero" fill-opacity="1" /><path clip-path="url(#clip730)" d="M1642.6 1544.91 L1650.24 1544.91 L1650.24 1518.55 L1641.93 1520.21 L1641.93 1515.95 L1650.19 1514.29 L1654.87 1514.29 L1654.87 1544.91 L1662.51 1544.91 L1662.51 1548.85 L1642.6 1548.85 L1642.6 1544.91 Z" fill="#000000" fill-rule="nonzero" fill-opacity="1" /><path clip-path="url(#clip730)" d="M1675.98 1544.91 L1692.3 1544.91 L1692.3 1548.85 L1670.35 1548.85 L1670.35 1544.91 Q1673.02 1542.16 1677.6 1537.53 Q1682.2 1532.88 1683.39 1531.53 Q1685.63 1529.01 1686.51 1527.27 Q1687.41 1525.51 1687.41 1523.82 Q1687.41 1521.07 1685.47 1519.33 Q1683.55 1517.6 1680.45 1517.6 Q1678.25 1517.6 1675.79 1518.36 Q1673.36 1519.13 1670.58 1520.68 L1670.58 1515.95 Q1673.41 1514.82 1675.86 1514.24 Q1678.32 1513.66 1680.35 1513.66 Q1685.72 1513.66 1688.92 1516.35 Q1692.11 1519.03 1692.11 1523.52 Q1692.11 1525.65 1691.3 1527.57 Q1690.52 1529.47 1688.41 1532.07 Q1687.83 1532.74 1684.73 1535.95 Q1681.63 1539.15 1675.98 1544.91 Z" fill="#000000" fill-rule="nonzero" fill-opacity="1" /><path clip-path="url(#clip730)" d="M2017.65 1544.91 L2025.29 1544.91 L2025.29 1518.55 L2016.98 1520.21 L2016.98 1515.95 L2025.24 1514.29 L2029.92 1514.29 L2029.92 1544.91 L2037.56 1544.91 L2037.56 1548.85 L2017.65 1548.85 L2017.65 1544.91 Z" fill="#000000" fill-rule="nonzero" fill-opacity="1" /><path clip-path="url(#clip730)" d="M2047.05 1514.29 L2065.4 1514.29 L2065.4 1518.22 L2051.33 1518.22 L2051.33 1526.7 Q2052.35 1526.35 2053.37 1526.19 Q2054.39 1526 2055.4 1526 Q2061.19 1526 2064.57 1529.17 Q2067.95 1532.34 2067.95 1537.76 Q2067.95 1543.34 2064.48 1546.44 Q2061.01 1549.52 2054.69 1549.52 Q2052.51 1549.52 2050.24 1549.15 Q2048 1548.78 2045.59 1548.04 L2045.59 1543.34 Q2047.67 1544.47 2049.9 1545.03 Q2052.12 1545.58 2054.59 1545.58 Q2058.6 1545.58 2060.94 1543.48 Q2063.27 1541.37 2063.27 1537.76 Q2063.27 1534.15 2060.94 1532.04 Q2058.6 1529.94 2054.59 1529.94 Q2052.72 1529.94 2050.84 1530.35 Q2048.99 1530.77 2047.05 1531.65 L2047.05 1514.29 Z" fill="#000000" fill-rule="nonzero" fill-opacity="1" /><polyline clip-path="url(#clip730)" style="stroke:#000000; stroke-linecap:round; stroke-linejoin:round; stroke-width:4; stroke-opacity:1; fill:none" points="230.765,1486.45 230.765,106.192 "/>
<polyline clip-path="url(#clip730)" style="stroke:#000000; stroke-linecap:round; stroke-linejoin:round; stroke-width:4; stroke-opacity:1; fill:none" points="230.765,1322.6 249.662,1322.6 "/>
<polyline clip-path="url(#clip730)" style="stroke:#000000; stroke-linecap:round; stroke-linejoin:round; stroke-width:4; stroke-opacity:1; fill:none" points="230.765,1112.29 249.662,1112.29 "/>
<polyline clip-path="url(#clip730)" style="stroke:#000000; stroke-linecap:round; stroke-linejoin:round; stroke-width:4; stroke-opacity:1; fill:none" points="230.765,901.987 249.662,901.987 "/>
<polyline clip-path="url(#clip730)" style="stroke:#000000; stroke-linecap:round; stroke-linejoin:round; stroke-width:4; stroke-opacity:1; fill:none" points="230.765,691.683 249.662,691.683 "/>
<polyline clip-path="url(#clip730)" style="stroke:#000000; stroke-linecap:round; stroke-linejoin:round; stroke-width:4; stroke-opacity:1; fill:none" points="230.765,481.379 249.662,481.379 "/>
<polyline clip-path="url(#clip730)" style="stroke:#000000; stroke-linecap:round; stroke-linejoin:round; stroke-width:4; stroke-opacity:1; fill:none" points="230.765,271.075 249.662,271.075 "/>
<path clip-path="url(#clip730)" d="M50.9921 1305.32 L73.2142 1305.32 L73.2142 1307.31 L60.668 1339.88 L55.7838 1339.88 L67.5893 1309.25 L50.9921 1309.25 L50.9921 1305.32 Z" fill="#000000" fill-rule="nonzero" fill-opacity="1" /><path clip-path="url(#clip730)" d="M86.3623 1335.94 L102.682 1335.94 L102.682 1339.88 L80.7373 1339.88 L80.7373 1335.94 Q83.3994 1333.19 87.9827 1328.56 Q92.5891 1323.9 93.7697 1322.56 Q96.015 1320.04 96.8947 1318.3 Q97.7974 1316.54 97.7974 1314.85 Q97.7974 1312.1 95.853 1310.36 Q93.9317 1308.63 90.8299 1308.63 Q88.6308 1308.63 86.1771 1309.39 Q83.7466 1310.15 80.9688 1311.7 L80.9688 1306.98 Q83.7929 1305.85 86.2466 1305.27 Q88.7003 1304.69 90.7373 1304.69 Q96.1076 1304.69 99.3021 1307.38 Q102.496 1310.06 102.496 1314.55 Q102.496 1316.68 101.686 1318.6 Q100.899 1320.5 98.7928 1323.09 Q98.2141 1323.76 95.1123 1326.98 Q92.0104 1330.18 86.3623 1335.94 Z" fill="#000000" fill-rule="nonzero" fill-opacity="1" /><path clip-path="url(#clip730)" d="M112.543 1305.32 L130.899 1305.32 L130.899 1309.25 L116.825 1309.25 L116.825 1317.72 Q117.844 1317.38 118.862 1317.21 Q119.881 1317.03 120.899 1317.03 Q126.686 1317.03 130.066 1320.2 Q133.445 1323.37 133.445 1328.79 Q133.445 1334.37 129.973 1337.47 Q126.501 1340.55 120.182 1340.55 Q118.006 1340.55 115.737 1340.18 Q113.492 1339.81 111.084 1339.07 L111.084 1334.37 Q113.168 1335.5 115.39 1336.06 Q117.612 1336.61 120.089 1336.61 Q124.094 1336.61 126.432 1334.5 Q128.769 1332.4 128.769 1328.79 Q128.769 1325.18 126.432 1323.07 Q124.094 1320.96 120.089 1320.96 Q118.214 1320.96 116.339 1321.38 Q114.487 1321.8 112.543 1322.68 L112.543 1305.32 Z" fill="#000000" fill-rule="nonzero" fill-opacity="1" /><path clip-path="url(#clip730)" d="M152.658 1308.39 Q149.047 1308.39 147.218 1311.96 Q145.413 1315.5 145.413 1322.63 Q145.413 1329.74 147.218 1333.3 Q149.047 1336.84 152.658 1336.84 Q156.292 1336.84 158.098 1333.3 Q159.927 1329.74 159.927 1322.63 Q159.927 1315.5 158.098 1311.96 Q156.292 1308.39 152.658 1308.39 M152.658 1304.69 Q158.468 1304.69 161.524 1309.3 Q164.603 1313.88 164.603 1322.63 Q164.603 1331.36 161.524 1335.96 Q158.468 1340.55 152.658 1340.55 Q146.848 1340.55 143.769 1335.96 Q140.714 1331.36 140.714 1322.63 Q140.714 1313.88 143.769 1309.3 Q146.848 1304.69 152.658 1304.69 Z" fill="#000000" fill-rule="nonzero" fill-opacity="1" /><path clip-path="url(#clip730)" d="M182.82 1308.39 Q179.209 1308.39 177.38 1311.96 Q175.575 1315.5 175.575 1322.63 Q175.575 1329.74 177.38 1333.3 Q179.209 1336.84 182.82 1336.84 Q186.454 1336.84 188.26 1333.3 Q190.089 1329.74 190.089 1322.63 Q190.089 1315.5 188.26 1311.96 Q186.454 1308.39 182.82 1308.39 M182.82 1304.69 Q188.63 1304.69 191.686 1309.3 Q194.765 1313.88 194.765 1322.63 Q194.765 1331.36 191.686 1335.96 Q188.63 1340.55 182.82 1340.55 Q177.01 1340.55 173.931 1335.96 Q170.876 1331.36 170.876 1322.63 Q170.876 1313.88 173.931 1309.3 Q177.01 1304.69 182.82 1304.69 Z" fill="#000000" fill-rule="nonzero" fill-opacity="1" /><path clip-path="url(#clip730)" d="M50.9921 1095.01 L73.2142 1095.01 L73.2142 1097 L60.668 1129.57 L55.7838 1129.57 L67.5893 1098.95 L50.9921 1098.95 L50.9921 1095.01 Z" fill="#000000" fill-rule="nonzero" fill-opacity="1" /><path clip-path="url(#clip730)" d="M96.5011 1110.94 Q99.8576 1111.65 101.733 1113.92 Q103.631 1116.19 103.631 1119.52 Q103.631 1124.64 100.112 1127.44 Q96.5937 1130.24 90.1123 1130.24 Q87.9364 1130.24 85.6216 1129.8 Q83.3299 1129.39 80.8762 1128.53 L80.8762 1124.02 Q82.8207 1125.15 85.1355 1125.73 Q87.4503 1126.31 89.9734 1126.31 Q94.3715 1126.31 96.6632 1124.57 Q98.978 1122.84 98.978 1119.52 Q98.978 1116.47 96.8252 1114.76 Q94.6956 1113.02 90.8762 1113.02 L86.8484 1113.02 L86.8484 1109.18 L91.0614 1109.18 Q94.5104 1109.18 96.3391 1107.81 Q98.1678 1106.42 98.1678 1103.83 Q98.1678 1101.17 96.2697 1099.76 Q94.3947 1098.32 90.8762 1098.32 Q88.9549 1098.32 86.7558 1098.74 Q84.5568 1099.15 81.9179 1100.03 L81.9179 1095.87 Q84.5799 1095.13 86.8947 1094.76 Q89.2327 1094.39 91.2928 1094.39 Q96.6169 1094.39 99.7187 1096.82 Q102.821 1099.22 102.821 1103.34 Q102.821 1106.21 101.177 1108.21 Q99.5335 1110.17 96.5011 1110.94 Z" fill="#000000" fill-rule="nonzero" fill-opacity="1" /><path clip-path="url(#clip730)" d="M122.496 1098.09 Q118.885 1098.09 117.057 1101.65 Q115.251 1105.2 115.251 1112.33 Q115.251 1119.43 117.057 1123 Q118.885 1126.54 122.496 1126.54 Q126.131 1126.54 127.936 1123 Q129.765 1119.43 129.765 1112.33 Q129.765 1105.2 127.936 1101.65 Q126.131 1098.09 122.496 1098.09 M122.496 1094.39 Q128.307 1094.39 131.362 1098.99 Q134.441 1103.58 134.441 1112.33 Q134.441 1121.05 131.362 1125.66 Q128.307 1130.24 122.496 1130.24 Q116.686 1130.24 113.608 1125.66 Q110.552 1121.05 110.552 1112.33 Q110.552 1103.58 113.608 1098.99 Q116.686 1094.39 122.496 1094.39 Z" fill="#000000" fill-rule="nonzero" fill-opacity="1" /><path clip-path="url(#clip730)" d="M152.658 1098.09 Q149.047 1098.09 147.218 1101.65 Q145.413 1105.2 145.413 1112.33 Q145.413 1119.43 147.218 1123 Q149.047 1126.54 152.658 1126.54 Q156.292 1126.54 158.098 1123 Q159.927 1119.43 159.927 1112.33 Q159.927 1105.2 158.098 1101.65 Q156.292 1098.09 152.658 1098.09 M152.658 1094.39 Q158.468 1094.39 161.524 1098.99 Q164.603 1103.58 164.603 1112.33 Q164.603 1121.05 161.524 1125.66 Q158.468 1130.24 152.658 1130.24 Q146.848 1130.24 143.769 1125.66 Q140.714 1121.05 140.714 1112.33 Q140.714 1103.58 143.769 1098.99 Q146.848 1094.39 152.658 1094.39 Z" fill="#000000" fill-rule="nonzero" fill-opacity="1" /><path clip-path="url(#clip730)" d="M182.82 1098.09 Q179.209 1098.09 177.38 1101.65 Q175.575 1105.2 175.575 1112.33 Q175.575 1119.43 177.38 1123 Q179.209 1126.54 182.82 1126.54 Q186.454 1126.54 188.26 1123 Q190.089 1119.43 190.089 1112.33 Q190.089 1105.2 188.26 1101.65 Q186.454 1098.09 182.82 1098.09 M182.82 1094.39 Q188.63 1094.39 191.686 1098.99 Q194.765 1103.58 194.765 1112.33 Q194.765 1121.05 191.686 1125.66 Q188.63 1130.24 182.82 1130.24 Q177.01 1130.24 173.931 1125.66 Q170.876 1121.05 170.876 1112.33 Q170.876 1103.58 173.931 1098.99 Q177.01 1094.39 182.82 1094.39 Z" fill="#000000" fill-rule="nonzero" fill-opacity="1" /><path clip-path="url(#clip730)" d="M50.9921 884.707 L73.2142 884.707 L73.2142 886.698 L60.668 919.267 L55.7838 919.267 L67.5893 888.642 L50.9921 888.642 L50.9921 884.707 Z" fill="#000000" fill-rule="nonzero" fill-opacity="1" /><path clip-path="url(#clip730)" d="M96.5011 900.633 Q99.8576 901.351 101.733 903.619 Q103.631 905.888 103.631 909.221 Q103.631 914.337 100.112 917.137 Q96.5937 919.938 90.1123 919.938 Q87.9364 919.938 85.6216 919.499 Q83.3299 919.082 80.8762 918.225 L80.8762 913.712 Q82.8207 914.846 85.1355 915.425 Q87.4503 916.003 89.9734 916.003 Q94.3715 916.003 96.6632 914.267 Q98.978 912.531 98.978 909.221 Q98.978 906.165 96.8252 904.452 Q94.6956 902.716 90.8762 902.716 L86.8484 902.716 L86.8484 898.874 L91.0614 898.874 Q94.5104 898.874 96.3391 897.508 Q98.1678 896.119 98.1678 893.526 Q98.1678 890.864 96.2697 889.452 Q94.3947 888.017 90.8762 888.017 Q88.9549 888.017 86.7558 888.434 Q84.5568 888.851 81.9179 889.73 L81.9179 885.564 Q84.5799 884.823 86.8947 884.452 Q89.2327 884.082 91.2928 884.082 Q96.6169 884.082 99.7187 886.513 Q102.821 888.92 102.821 893.04 Q102.821 895.911 101.177 897.901 Q99.5335 899.869 96.5011 900.633 Z" fill="#000000" fill-rule="nonzero" fill-opacity="1" /><path clip-path="url(#clip730)" d="M112.543 884.707 L130.899 884.707 L130.899 888.642 L116.825 888.642 L116.825 897.114 Q117.844 896.767 118.862 896.605 Q119.881 896.42 120.899 896.42 Q126.686 896.42 130.066 899.591 Q133.445 902.763 133.445 908.179 Q133.445 913.758 129.973 916.86 Q126.501 919.938 120.182 919.938 Q118.006 919.938 115.737 919.568 Q113.492 919.198 111.084 918.457 L111.084 913.758 Q113.168 914.892 115.39 915.448 Q117.612 916.003 120.089 916.003 Q124.094 916.003 126.432 913.897 Q128.769 911.79 128.769 908.179 Q128.769 904.568 126.432 902.462 Q124.094 900.355 120.089 900.355 Q118.214 900.355 116.339 900.772 Q114.487 901.188 112.543 902.068 L112.543 884.707 Z" fill="#000000" fill-rule="nonzero" fill-opacity="1" /><path clip-path="url(#clip730)" d="M152.658 887.786 Q149.047 887.786 147.218 891.351 Q145.413 894.892 145.413 902.022 Q145.413 909.128 147.218 912.693 Q149.047 916.235 152.658 916.235 Q156.292 916.235 158.098 912.693 Q159.927 909.128 159.927 902.022 Q159.927 894.892 158.098 891.351 Q156.292 887.786 152.658 887.786 M152.658 884.082 Q158.468 884.082 161.524 888.689 Q164.603 893.272 164.603 902.022 Q164.603 910.749 161.524 915.355 Q158.468 919.938 152.658 919.938 Q146.848 919.938 143.769 915.355 Q140.714 910.749 140.714 902.022 Q140.714 893.272 143.769 888.689 Q146.848 884.082 152.658 884.082 Z" fill="#000000" fill-rule="nonzero" fill-opacity="1" /><path clip-path="url(#clip730)" d="M182.82 887.786 Q179.209 887.786 177.38 891.351 Q175.575 894.892 175.575 902.022 Q175.575 909.128 177.38 912.693 Q179.209 916.235 182.82 916.235 Q186.454 916.235 188.26 912.693 Q190.089 909.128 190.089 902.022 Q190.089 894.892 188.26 891.351 Q186.454 887.786 182.82 887.786 M182.82 884.082 Q188.63 884.082 191.686 888.689 Q194.765 893.272 194.765 902.022 Q194.765 910.749 191.686 915.355 Q188.63 919.938 182.82 919.938 Q177.01 919.938 173.931 915.355 Q170.876 910.749 170.876 902.022 Q170.876 893.272 173.931 888.689 Q177.01 884.082 182.82 884.082 Z" fill="#000000" fill-rule="nonzero" fill-opacity="1" /><path clip-path="url(#clip730)" d="M50.9921 674.403 L73.2142 674.403 L73.2142 676.394 L60.668 708.963 L55.7838 708.963 L67.5893 678.338 L50.9921 678.338 L50.9921 674.403 Z" fill="#000000" fill-rule="nonzero" fill-opacity="1" /><path clip-path="url(#clip730)" d="M95.1817 678.477 L83.3762 696.926 L95.1817 696.926 L95.1817 678.477 M93.9549 674.403 L99.8345 674.403 L99.8345 696.926 L104.765 696.926 L104.765 700.815 L99.8345 700.815 L99.8345 708.963 L95.1817 708.963 L95.1817 700.815 L79.5799 700.815 L79.5799 696.301 L93.9549 674.403 Z" fill="#000000" fill-rule="nonzero" fill-opacity="1" /><path clip-path="url(#clip730)" d="M122.496 677.482 Q118.885 677.482 117.057 681.046 Q115.251 684.588 115.251 691.718 Q115.251 698.824 117.057 702.389 Q118.885 705.931 122.496 705.931 Q126.131 705.931 127.936 702.389 Q129.765 698.824 129.765 691.718 Q129.765 684.588 127.936 681.046 Q126.131 677.482 122.496 677.482 M122.496 673.778 Q128.307 673.778 131.362 678.384 Q134.441 682.968 134.441 691.718 Q134.441 700.444 131.362 705.051 Q128.307 709.634 122.496 709.634 Q116.686 709.634 113.608 705.051 Q110.552 700.444 110.552 691.718 Q110.552 682.968 113.608 678.384 Q116.686 673.778 122.496 673.778 Z" fill="#000000" fill-rule="nonzero" fill-opacity="1" /><path clip-path="url(#clip730)" d="M152.658 677.482 Q149.047 677.482 147.218 681.046 Q145.413 684.588 145.413 691.718 Q145.413 698.824 147.218 702.389 Q149.047 705.931 152.658 705.931 Q156.292 705.931 158.098 702.389 Q159.927 698.824 159.927 691.718 Q159.927 684.588 158.098 681.046 Q156.292 677.482 152.658 677.482 M152.658 673.778 Q158.468 673.778 161.524 678.384 Q164.603 682.968 164.603 691.718 Q164.603 700.444 161.524 705.051 Q158.468 709.634 152.658 709.634 Q146.848 709.634 143.769 705.051 Q140.714 700.444 140.714 691.718 Q140.714 682.968 143.769 678.384 Q146.848 673.778 152.658 673.778 Z" fill="#000000" fill-rule="nonzero" fill-opacity="1" /><path clip-path="url(#clip730)" d="M182.82 677.482 Q179.209 677.482 177.38 681.046 Q175.575 684.588 175.575 691.718 Q175.575 698.824 177.38 702.389 Q179.209 705.931 182.82 705.931 Q186.454 705.931 188.26 702.389 Q190.089 698.824 190.089 691.718 Q190.089 684.588 188.26 681.046 Q186.454 677.482 182.82 677.482 M182.82 673.778 Q188.63 673.778 191.686 678.384 Q194.765 682.968 194.765 691.718 Q194.765 700.444 191.686 705.051 Q188.63 709.634 182.82 709.634 Q177.01 709.634 173.931 705.051 Q170.876 700.444 170.876 691.718 Q170.876 682.968 173.931 678.384 Q177.01 673.778 182.82 673.778 Z" fill="#000000" fill-rule="nonzero" fill-opacity="1" /><path clip-path="url(#clip730)" d="M50.9921 464.099 L73.2142 464.099 L73.2142 466.09 L60.668 498.659 L55.7838 498.659 L67.5893 468.034 L50.9921 468.034 L50.9921 464.099 Z" fill="#000000" fill-rule="nonzero" fill-opacity="1" /><path clip-path="url(#clip730)" d="M95.1817 468.173 L83.3762 486.622 L95.1817 486.622 L95.1817 468.173 M93.9549 464.099 L99.8345 464.099 L99.8345 486.622 L104.765 486.622 L104.765 490.511 L99.8345 490.511 L99.8345 498.659 L95.1817 498.659 L95.1817 490.511 L79.5799 490.511 L79.5799 485.997 L93.9549 464.099 Z" fill="#000000" fill-rule="nonzero" fill-opacity="1" /><path clip-path="url(#clip730)" d="M112.543 464.099 L130.899 464.099 L130.899 468.034 L116.825 468.034 L116.825 476.506 Q117.844 476.159 118.862 475.997 Q119.881 475.812 120.899 475.812 Q126.686 475.812 130.066 478.983 Q133.445 482.154 133.445 487.571 Q133.445 493.15 129.973 496.251 Q126.501 499.33 120.182 499.33 Q118.006 499.33 115.737 498.96 Q113.492 498.589 111.084 497.849 L111.084 493.15 Q113.168 494.284 115.39 494.839 Q117.612 495.395 120.089 495.395 Q124.094 495.395 126.432 493.288 Q128.769 491.182 128.769 487.571 Q128.769 483.96 126.432 481.853 Q124.094 479.747 120.089 479.747 Q118.214 479.747 116.339 480.164 Q114.487 480.58 112.543 481.46 L112.543 464.099 Z" fill="#000000" fill-rule="nonzero" fill-opacity="1" /><path clip-path="url(#clip730)" d="M152.658 467.178 Q149.047 467.178 147.218 470.742 Q145.413 474.284 145.413 481.414 Q145.413 488.52 147.218 492.085 Q149.047 495.626 152.658 495.626 Q156.292 495.626 158.098 492.085 Q159.927 488.52 159.927 481.414 Q159.927 474.284 158.098 470.742 Q156.292 467.178 152.658 467.178 M152.658 463.474 Q158.468 463.474 161.524 468.08 Q164.603 472.664 164.603 481.414 Q164.603 490.14 161.524 494.747 Q158.468 499.33 152.658 499.33 Q146.848 499.33 143.769 494.747 Q140.714 490.14 140.714 481.414 Q140.714 472.664 143.769 468.08 Q146.848 463.474 152.658 463.474 Z" fill="#000000" fill-rule="nonzero" fill-opacity="1" /><path clip-path="url(#clip730)" d="M182.82 467.178 Q179.209 467.178 177.38 470.742 Q175.575 474.284 175.575 481.414 Q175.575 488.52 177.38 492.085 Q179.209 495.626 182.82 495.626 Q186.454 495.626 188.26 492.085 Q190.089 488.52 190.089 481.414 Q190.089 474.284 188.26 470.742 Q186.454 467.178 182.82 467.178 M182.82 463.474 Q188.63 463.474 191.686 468.08 Q194.765 472.664 194.765 481.414 Q194.765 490.14 191.686 494.747 Q188.63 499.33 182.82 499.33 Q177.01 499.33 173.931 494.747 Q170.876 490.14 170.876 481.414 Q170.876 472.664 173.931 468.08 Q177.01 463.474 182.82 463.474 Z" fill="#000000" fill-rule="nonzero" fill-opacity="1" /><path clip-path="url(#clip730)" d="M50.9921 253.795 L73.2142 253.795 L73.2142 255.785 L60.668 288.355 L55.7838 288.355 L67.5893 257.73 L50.9921 257.73 L50.9921 253.795 Z" fill="#000000" fill-rule="nonzero" fill-opacity="1" /><path clip-path="url(#clip730)" d="M82.3808 253.795 L100.737 253.795 L100.737 257.73 L86.6632 257.73 L86.6632 266.202 Q87.6817 265.855 88.7003 265.693 Q89.7188 265.508 90.7373 265.508 Q96.5243 265.508 99.9039 268.679 Q103.284 271.85 103.284 277.267 Q103.284 282.845 99.8113 285.947 Q96.3391 289.026 90.0197 289.026 Q87.8438 289.026 85.5753 288.656 Q83.3299 288.285 80.9225 287.545 L80.9225 282.845 Q83.0058 283.98 85.2281 284.535 Q87.4503 285.091 89.9271 285.091 Q93.9317 285.091 96.2697 282.984 Q98.6076 280.878 98.6076 277.267 Q98.6076 273.656 96.2697 271.549 Q93.9317 269.443 89.9271 269.443 Q88.0521 269.443 86.1771 269.859 Q84.3253 270.276 82.3808 271.156 L82.3808 253.795 Z" fill="#000000" fill-rule="nonzero" fill-opacity="1" /><path clip-path="url(#clip730)" d="M122.496 256.873 Q118.885 256.873 117.057 260.438 Q115.251 263.98 115.251 271.109 Q115.251 278.216 117.057 281.781 Q118.885 285.322 122.496 285.322 Q126.131 285.322 127.936 281.781 Q129.765 278.216 129.765 271.109 Q129.765 263.98 127.936 260.438 Q126.131 256.873 122.496 256.873 M122.496 253.17 Q128.307 253.17 131.362 257.776 Q134.441 262.359 134.441 271.109 Q134.441 279.836 131.362 284.443 Q128.307 289.026 122.496 289.026 Q116.686 289.026 113.608 284.443 Q110.552 279.836 110.552 271.109 Q110.552 262.359 113.608 257.776 Q116.686 253.17 122.496 253.17 Z" fill="#000000" fill-rule="nonzero" fill-opacity="1" /><path clip-path="url(#clip730)" d="M152.658 256.873 Q149.047 256.873 147.218 260.438 Q145.413 263.98 145.413 271.109 Q145.413 278.216 147.218 281.781 Q149.047 285.322 152.658 285.322 Q156.292 285.322 158.098 281.781 Q159.927 278.216 159.927 271.109 Q159.927 263.98 158.098 260.438 Q156.292 256.873 152.658 256.873 M152.658 253.17 Q158.468 253.17 161.524 257.776 Q164.603 262.359 164.603 271.109 Q164.603 279.836 161.524 284.443 Q158.468 289.026 152.658 289.026 Q146.848 289.026 143.769 284.443 Q140.714 279.836 140.714 271.109 Q140.714 262.359 143.769 257.776 Q146.848 253.17 152.658 253.17 Z" fill="#000000" fill-rule="nonzero" fill-opacity="1" /><path clip-path="url(#clip730)" d="M182.82 256.873 Q179.209 256.873 177.38 260.438 Q175.575 263.98 175.575 271.109 Q175.575 278.216 177.38 281.781 Q179.209 285.322 182.82 285.322 Q186.454 285.322 188.26 281.781 Q190.089 278.216 190.089 271.109 Q190.089 263.98 188.26 260.438 Q186.454 256.873 182.82 256.873 M182.82 253.17 Q188.63 253.17 191.686 257.776 Q194.765 262.359 194.765 271.109 Q194.765 279.836 191.686 284.443 Q188.63 289.026 182.82 289.026 Q177.01 289.026 173.931 284.443 Q170.876 279.836 170.876 271.109 Q170.876 262.359 173.931 257.776 Q177.01 253.17 182.82 253.17 Z" fill="#000000" fill-rule="nonzero" fill-opacity="1" /><path clip-path="url(#clip730)" d="M1262.23 35.2602 Q1262.23 29.4732 1259.83 26.2904 Q1257.46 23.1075 1253.15 23.1075 Q1248.86 23.1075 1246.46 26.2904 Q1244.09 29.4732 1244.09 35.2602 Q1244.09 41.0183 1246.46 44.2012 Q1248.86 47.384 1253.15 47.384 Q1257.46 47.384 1259.83 44.2012 Q1262.23 41.0183 1262.23 35.2602 M1267.56 47.818 Q1267.56 56.0934 1263.88 60.1154 Q1260.21 64.1663 1252.63 64.1663 Q1249.82 64.1663 1247.33 63.7323 Q1244.84 63.3272 1242.5 62.4592 L1242.5 57.2798 Q1244.84 58.5529 1247.13 59.1606 Q1249.41 59.7682 1251.79 59.7682 Q1257.02 59.7682 1259.63 57.0194 Q1262.23 54.2995 1262.23 48.7729 L1262.23 46.1398 Q1260.58 49.0044 1258.01 50.4222 Q1255.43 51.84 1251.84 51.84 Q1245.88 51.84 1242.24 47.2972 Q1238.59 42.7544 1238.59 35.2602 Q1238.59 27.7371 1242.24 23.1943 Q1245.88 18.6515 1251.84 18.6515 Q1255.43 18.6515 1258.01 20.0693 Q1260.58 21.4872 1262.23 24.3517 L1262.23 19.4328 L1267.56 19.4328 L1267.56 47.818 Z" fill="#000000" fill-rule="nonzero" fill-opacity="1" /><path clip-path="url(#clip730)" d="M1299.85 24.3517 L1299.85 6.81709 L1305.17 6.81709 L1305.17 51.84 L1299.85 51.84 L1299.85 46.9789 Q1298.17 49.8724 1295.59 51.2902 Q1293.05 52.6791 1289.46 52.6791 Q1283.59 52.6791 1279.88 47.9916 Q1276.21 43.3042 1276.21 35.6653 Q1276.21 28.0265 1279.88 23.339 Q1283.59 18.6515 1289.46 18.6515 Q1293.05 18.6515 1295.59 20.0693 Q1298.17 21.4582 1299.85 24.3517 M1281.71 35.6653 Q1281.71 41.5391 1284.11 44.8956 Q1286.54 48.2231 1290.76 48.2231 Q1294.99 48.2231 1297.42 44.8956 Q1299.85 41.5391 1299.85 35.6653 Q1299.85 29.7915 1297.42 26.464 Q1294.99 23.1075 1290.76 23.1075 Q1286.54 23.1075 1284.11 26.464 Q1281.71 29.7915 1281.71 35.6653 Z" fill="#000000" fill-rule="nonzero" fill-opacity="1" /><path clip-path="url(#clip730)" d="M1321.29 46.9789 L1321.29 64.1663 L1315.94 64.1663 L1315.94 19.4328 L1321.29 19.4328 L1321.29 24.3517 Q1322.97 21.4582 1325.51 20.0693 Q1328.09 18.6515 1331.65 18.6515 Q1337.55 18.6515 1341.22 23.339 Q1344.93 28.0265 1344.93 35.6653 Q1344.93 43.3042 1341.22 47.9916 Q1337.55 52.6791 1331.65 52.6791 Q1328.09 52.6791 1325.51 51.2902 Q1322.97 49.8724 1321.29 46.9789 M1339.4 35.6653 Q1339.4 29.7915 1336.97 26.464 Q1334.57 23.1075 1330.35 23.1075 Q1326.12 23.1075 1323.69 26.464 Q1321.29 29.7915 1321.29 35.6653 Q1321.29 41.5391 1323.69 44.8956 Q1326.12 48.2231 1330.35 48.2231 Q1334.57 48.2231 1336.97 44.8956 Q1339.4 41.5391 1339.4 35.6653 Z" fill="#000000" fill-rule="nonzero" fill-opacity="1" /><polyline clip-path="url(#clip732)" style="stroke:#009af9; stroke-linecap:round; stroke-linejoin:round; stroke-width:4; stroke-opacity:1; fill:none" points="290.821,1355.4 415.938,1133.18 541.056,995.876 666.173,1447.38 791.291,1148.4 916.408,981.431 1041.53,663.748 1166.64,844.82 1291.76,1035.55 1416.88,748.728 1542,732.403 1667.11,880.189 1792.23,634.722 1917.35,687.184 2042.46,562.881 2167.58,392.723 2292.7,145.256 "/>
<path clip-path="url(#clip730)" d="M301.498 255.881 L566.127 255.881 L566.127 152.201 L301.498 152.201  Z" fill="#ffffff" fill-rule="evenodd" fill-opacity="1"/>
<polyline clip-path="url(#clip730)" style="stroke:#000000; stroke-linecap:round; stroke-linejoin:round; stroke-width:4; stroke-opacity:1; fill:none" points="301.498,255.881 566.127,255.881 566.127,152.201 301.498,152.201 301.498,255.881 "/>
<polyline clip-path="url(#clip730)" style="stroke:#009af9; stroke-linecap:round; stroke-linejoin:round; stroke-width:4; stroke-opacity:1; fill:none" points="325.075,204.041 466.541,204.041 "/>
<path clip-path="url(#clip730)" d="M503.962 223.728 Q502.156 228.358 500.443 229.77 Q498.73 231.182 495.86 231.182 L492.457 231.182 L492.457 227.617 L494.957 227.617 Q496.716 227.617 497.688 226.784 Q498.661 225.95 499.841 222.848 L500.605 220.904 L490.119 195.395 L494.633 195.395 L502.735 215.673 L510.836 195.395 L515.35 195.395 L503.962 223.728 Z" fill="#000000" fill-rule="nonzero" fill-opacity="1" /><path clip-path="url(#clip730)" d="M522.642 217.385 L530.281 217.385 L530.281 191.02 L521.971 192.687 L521.971 188.427 L530.235 186.761 L534.91 186.761 L534.91 217.385 L542.549 217.385 L542.549 221.321 L522.642 221.321 L522.642 217.385 Z" fill="#000000" fill-rule="nonzero" fill-opacity="1" /></svg>
