<?xml version="1.0" encoding="utf-8"?>
<svg xmlns="http://www.w3.org/2000/svg" xmlns:xlink="http://www.w3.org/1999/xlink" width="600" height="300" viewBox="0 0 2400 1200">
<defs>
  <clipPath id="clip860">
    <rect x="0" y="0" width="2400" height="1200"/>
  </clipPath>
</defs>
<path clip-path="url(#clip860)" d="M0 1200 L2400 1200 L2400 0 L0 0  Z" fill="#ffffff" fill-rule="evenodd" fill-opacity="1"/>
<defs>
  <clipPath id="clip861">
    <rect x="480" y="0" width="1681" height="1200"/>
  </clipPath>
</defs>
<path clip-path="url(#clip860)" d="M216.436 1099.09 L1153.8 1099.09 L1153.8 92.1521 L216.436 92.1521  Z" fill="#ffffff" fill-rule="evenodd" fill-opacity="1"/>
<defs>
  <clipPath id="clip862">
    <rect x="216" y="92" width="938" height="1008"/>
  </clipPath>
</defs>
<polyline clip-path="url(#clip862)" style="stroke:#000000; stroke-linecap:round; stroke-linejoin:round; stroke-width:2; stroke-opacity:0.1; fill:none" points="411.404,1099.09 411.404,92.1521 "/>
<polyline clip-path="url(#clip862)" style="stroke:#000000; stroke-linecap:round; stroke-linejoin:round; stroke-width:2; stroke-opacity:0.1; fill:none" points="621.952,1099.09 621.952,92.1521 "/>
<polyline clip-path="url(#clip862)" style="stroke:#000000; stroke-linecap:round; stroke-linejoin:round; stroke-width:2; stroke-opacity:0.1; fill:none" points="832.501,1099.09 832.501,92.1521 "/>
<polyline clip-path="url(#clip862)" style="stroke:#000000; stroke-linecap:round; stroke-linejoin:round; stroke-width:2; stroke-opacity:0.1; fill:none" points="1043.05,1099.09 1043.05,92.1521 "/>
<polyline clip-path="url(#clip862)" style="stroke:#000000; stroke-linecap:round; stroke-linejoin:round; stroke-width:2; stroke-opacity:0.1; fill:none" points="216.436,1054.68 1153.8,1054.68 "/>
<polyline clip-path="url(#clip862)" style="stroke:#000000; stroke-linecap:round; stroke-linejoin:round; stroke-width:2; stroke-opacity:0.1; fill:none" points="216.436,821.174 1153.8,821.174 "/>
<polyline clip-path="url(#clip862)" style="stroke:#000000; stroke-linecap:round; stroke-linejoin:round; stroke-width:2; stroke-opacity:0.1; fill:none" points="216.436,587.666 1153.8,587.666 "/>
<polyline clip-path="url(#clip862)" style="stroke:#000000; stroke-linecap:round; stroke-linejoin:round; stroke-width:2; stroke-opacity:0.1; fill:none" points="216.436,354.158 1153.8,354.158 "/>
<polyline clip-path="url(#clip862)" style="stroke:#000000; stroke-linecap:round; stroke-linejoin:round; stroke-width:2; stroke-opacity:0.1; fill:none" points="216.436,120.65 1153.8,120.65 "/>
<polyline clip-path="url(#clip860)" style="stroke:#000000; stroke-linecap:round; stroke-linejoin:round; stroke-width:4; stroke-opacity:1; fill:none" points="216.436,1099.09 1153.8,1099.09 "/>
<polyline clip-path="url(#clip860)" style="stroke:#000000; stroke-linecap:round; stroke-linejoin:round; stroke-width:4; stroke-opacity:1; fill:none" points="411.404,1099.09 411.404,1080.19 "/>
<polyline clip-path="url(#clip860)" style="stroke:#000000; stroke-linecap:round; stroke-linejoin:round; stroke-width:4; stroke-opacity:1; fill:none" points="621.952,1099.09 621.952,1080.19 "/>
<polyline clip-path="url(#clip860)" style="stroke:#000000; stroke-linecap:round; stroke-linejoin:round; stroke-width:4; stroke-opacity:1; fill:none" points="832.501,1099.09 832.501,1080.19 "/>
<polyline clip-path="url(#clip860)" style="stroke:#000000; stroke-linecap:round; stroke-linejoin:round; stroke-width:4; stroke-opacity:1; fill:none" points="1043.05,1099.09 1043.05,1080.19 "/>
<path clip-path="url(#clip860)" d="M401.682 1126.93 L420.038 1126.93 L420.038 1130.86 L405.964 1130.86 L405.964 1139.34 Q406.982 1138.99 408.001 1138.83 Q409.019 1138.64 410.038 1138.64 Q415.825 1138.64 419.205 1141.81 Q422.584 1144.98 422.584 1150.4 Q422.584 1155.98 419.112 1159.08 Q415.64 1162.16 409.32 1162.16 Q407.145 1162.16 404.876 1161.79 Q402.631 1161.42 400.223 1160.68 L400.223 1155.98 Q402.307 1157.11 404.529 1157.67 Q406.751 1158.22 409.228 1158.22 Q413.232 1158.22 415.57 1156.12 Q417.908 1154.01 417.908 1150.4 Q417.908 1146.79 415.57 1144.68 Q413.232 1142.58 409.228 1142.58 Q407.353 1142.58 405.478 1142.99 Q403.626 1143.41 401.682 1144.29 L401.682 1126.93 Z" fill="#000000" fill-rule="nonzero" fill-opacity="1" /><path clip-path="url(#clip860)" d="M596.64 1157.55 L604.279 1157.55 L604.279 1131.19 L595.969 1132.85 L595.969 1128.59 L604.232 1126.93 L608.908 1126.93 L608.908 1157.55 L616.547 1157.55 L616.547 1161.49 L596.64 1161.49 L596.64 1157.55 Z" fill="#000000" fill-rule="nonzero" fill-opacity="1" /><path clip-path="url(#clip860)" d="M635.991 1130.01 Q632.38 1130.01 630.552 1133.57 Q628.746 1137.11 628.746 1144.24 Q628.746 1151.35 630.552 1154.91 Q632.38 1158.46 635.991 1158.46 Q639.626 1158.46 641.431 1154.91 Q643.26 1151.35 643.26 1144.24 Q643.26 1137.11 641.431 1133.57 Q639.626 1130.01 635.991 1130.01 M635.991 1126.3 Q641.802 1126.3 644.857 1130.91 Q647.936 1135.49 647.936 1144.24 Q647.936 1152.97 644.857 1157.58 Q641.802 1162.16 635.991 1162.16 Q630.181 1162.16 627.103 1157.58 Q624.047 1152.97 624.047 1144.24 Q624.047 1135.49 627.103 1130.91 Q630.181 1126.3 635.991 1126.3 Z" fill="#000000" fill-rule="nonzero" fill-opacity="1" /><path clip-path="url(#clip860)" d="M807.686 1157.55 L815.325 1157.55 L815.325 1131.19 L807.015 1132.85 L807.015 1128.59 L815.279 1126.93 L819.954 1126.93 L819.954 1157.55 L827.593 1157.55 L827.593 1161.49 L807.686 1161.49 L807.686 1157.55 Z" fill="#000000" fill-rule="nonzero" fill-opacity="1" /><path clip-path="url(#clip860)" d="M837.084 1126.93 L855.44 1126.93 L855.44 1130.86 L841.366 1130.86 L841.366 1139.34 Q842.385 1138.99 843.403 1138.83 Q844.422 1138.64 845.44 1138.64 Q851.227 1138.64 854.607 1141.81 Q857.987 1144.98 857.987 1150.4 Q857.987 1155.98 854.514 1159.08 Q851.042 1162.16 844.723 1162.16 Q842.547 1162.16 840.278 1161.79 Q838.033 1161.42 835.626 1160.68 L835.626 1155.98 Q837.709 1157.11 839.931 1157.67 Q842.153 1158.22 844.63 1158.22 Q848.635 1158.22 850.973 1156.12 Q853.311 1154.01 853.311 1150.4 Q853.311 1146.79 850.973 1144.68 Q848.635 1142.58 844.63 1142.58 Q842.755 1142.58 840.88 1142.99 Q839.028 1143.41 837.084 1144.29 L837.084 1126.93 Z" fill="#000000" fill-rule="nonzero" fill-opacity="1" /><path clip-path="url(#clip860)" d="M1021.82 1157.55 L1038.14 1157.55 L1038.14 1161.49 L1016.2 1161.49 L1016.2 1157.55 Q1018.86 1154.8 1023.44 1150.17 Q1028.05 1145.52 1029.23 1144.17 Q1031.48 1141.65 1032.35 1139.91 Q1033.26 1138.15 1033.26 1136.46 Q1033.26 1133.71 1031.31 1131.97 Q1029.39 1130.24 1026.29 1130.24 Q1024.09 1130.24 1021.64 1131 Q1019.21 1131.77 1016.43 1133.32 L1016.43 1128.59 Q1019.25 1127.46 1021.71 1126.88 Q1024.16 1126.3 1026.2 1126.3 Q1031.57 1126.3 1034.76 1128.99 Q1037.96 1131.67 1037.96 1136.16 Q1037.96 1138.29 1037.15 1140.21 Q1036.36 1142.11 1034.25 1144.71 Q1033.67 1145.38 1030.57 1148.59 Q1027.47 1151.79 1021.82 1157.55 Z" fill="#000000" fill-rule="nonzero" fill-opacity="1" /><path clip-path="url(#clip860)" d="M1057.96 1130.01 Q1054.35 1130.01 1052.52 1133.57 Q1050.71 1137.11 1050.71 1144.24 Q1050.71 1151.35 1052.52 1154.91 Q1054.35 1158.46 1057.96 1158.46 Q1061.59 1158.46 1063.4 1154.91 Q1065.22 1151.35 1065.22 1144.24 Q1065.22 1137.11 1063.4 1133.57 Q1061.59 1130.01 1057.96 1130.01 M1057.96 1126.3 Q1063.77 1126.3 1066.82 1130.91 Q1069.9 1135.49 1069.9 1144.24 Q1069.9 1152.97 1066.82 1157.58 Q1063.77 1162.16 1057.96 1162.16 Q1052.15 1162.16 1049.07 1157.58 Q1046.01 1152.97 1046.01 1144.24 Q1046.01 1135.49 1049.07 1130.91 Q1052.15 1126.3 1057.96 1126.3 Z" fill="#000000" fill-rule="nonzero" fill-opacity="1" /><polyline clip-path="url(#clip860)" style="stroke:#000000; stroke-linecap:round; stroke-linejoin:round; stroke-width:4; stroke-opacity:1; fill:none" points="216.436,1099.09 216.436,92.1521 "/>
<polyline clip-path="url(#clip860)" style="stroke:#000000; stroke-linecap:round; stroke-linejoin:round; stroke-width:4; stroke-opacity:1; fill:none" points="216.436,1054.68 235.334,1054.68 "/>
<polyline clip-path="url(#clip860)" style="stroke:#000000; stroke-linecap:round; stroke-linejoin:round; stroke-width:4; stroke-opacity:1; fill:none" points="216.436,821.174 235.334,821.174 "/>
<polyline clip-path="url(#clip860)" style="stroke:#000000; stroke-linecap:round; stroke-linejoin:round; stroke-width:4; stroke-opacity:1; fill:none" points="216.436,587.666 235.334,587.666 "/>
<polyline clip-path="url(#clip860)" style="stroke:#000000; stroke-linecap:round; stroke-linejoin:round; stroke-width:4; stroke-opacity:1; fill:none" points="216.436,354.158 235.334,354.158 "/>
<polyline clip-path="url(#clip860)" style="stroke:#000000; stroke-linecap:round; stroke-linejoin:round; stroke-width:4; stroke-opacity:1; fill:none" points="216.436,120.65 235.334,120.65 "/>
<path clip-path="url(#clip860)" d="M62.9365 1040.48 Q59.3254 1040.48 57.4967 1044.05 Q55.6912 1047.59 55.6912 1054.72 Q55.6912 1061.82 57.4967 1065.39 Q59.3254 1068.93 62.9365 1068.93 Q66.5707 1068.93 68.3763 1065.39 Q70.205 1061.82 70.205 1054.72 Q70.205 1047.59 68.3763 1044.05 Q66.5707 1040.48 62.9365 1040.48 M62.9365 1036.78 Q68.7467 1036.78 71.8022 1041.38 Q74.8809 1045.97 74.8809 1054.72 Q74.8809 1063.44 71.8022 1068.05 Q68.7467 1072.63 62.9365 1072.63 Q57.1264 1072.63 54.0477 1068.05 Q50.9921 1063.44 50.9921 1054.72 Q50.9921 1045.97 54.0477 1041.38 Q57.1264 1036.78 62.9365 1036.78 Z" fill="#000000" fill-rule="nonzero" fill-opacity="1" /><path clip-path="url(#clip860)" d="M83.0984 1066.08 L87.9827 1066.08 L87.9827 1071.96 L83.0984 1071.96 L83.0984 1066.08 Z" fill="#000000" fill-rule="nonzero" fill-opacity="1" /><path clip-path="url(#clip860)" d="M108.168 1040.48 Q104.557 1040.48 102.728 1044.05 Q100.922 1047.59 100.922 1054.72 Q100.922 1061.82 102.728 1065.39 Q104.557 1068.93 108.168 1068.93 Q111.802 1068.93 113.608 1065.39 Q115.436 1061.82 115.436 1054.72 Q115.436 1047.59 113.608 1044.05 Q111.802 1040.48 108.168 1040.48 M108.168 1036.78 Q113.978 1036.78 117.033 1041.38 Q120.112 1045.97 120.112 1054.72 Q120.112 1063.44 117.033 1068.05 Q113.978 1072.63 108.168 1072.63 Q102.358 1072.63 99.2789 1068.05 Q96.2234 1063.44 96.2234 1054.72 Q96.2234 1045.97 99.2789 1041.38 Q102.358 1036.78 108.168 1036.78 Z" fill="#000000" fill-rule="nonzero" fill-opacity="1" /><path clip-path="url(#clip860)" d="M138.33 1040.48 Q134.719 1040.48 132.89 1044.05 Q131.084 1047.59 131.084 1054.72 Q131.084 1061.82 132.89 1065.39 Q134.719 1068.93 138.33 1068.93 Q141.964 1068.93 143.769 1065.39 Q145.598 1061.82 145.598 1054.72 Q145.598 1047.59 143.769 1044.05 Q141.964 1040.48 138.33 1040.48 M138.33 1036.78 Q144.14 1036.78 147.195 1041.38 Q150.274 1045.97 150.274 1054.72 Q150.274 1063.44 147.195 1068.05 Q144.14 1072.63 138.33 1072.63 Q132.519 1072.63 129.441 1068.05 Q126.385 1063.44 126.385 1054.72 Q126.385 1045.97 129.441 1041.38 Q132.519 1036.78 138.33 1036.78 Z" fill="#000000" fill-rule="nonzero" fill-opacity="1" /><path clip-path="url(#clip860)" d="M168.491 1040.48 Q164.88 1040.48 163.052 1044.05 Q161.246 1047.59 161.246 1054.72 Q161.246 1061.82 163.052 1065.39 Q164.88 1068.93 168.491 1068.93 Q172.126 1068.93 173.931 1065.39 Q175.76 1061.82 175.76 1054.72 Q175.76 1047.59 173.931 1044.05 Q172.126 1040.48 168.491 1040.48 M168.491 1036.78 Q174.302 1036.78 177.357 1041.38 Q180.436 1045.97 180.436 1054.72 Q180.436 1063.44 177.357 1068.05 Q174.302 1072.63 168.491 1072.63 Q162.681 1072.63 159.603 1068.05 Q156.547 1063.44 156.547 1054.72 Q156.547 1045.97 159.603 1041.38 Q162.681 1036.78 168.491 1036.78 Z" fill="#000000" fill-rule="nonzero" fill-opacity="1" /><path clip-path="url(#clip860)" d="M63.9319 806.972 Q60.3208 806.972 58.4921 810.537 Q56.6865 814.079 56.6865 821.208 Q56.6865 828.315 58.4921 831.88 Q60.3208 835.421 63.9319 835.421 Q67.5661 835.421 69.3717 831.88 Q71.2004 828.315 71.2004 821.208 Q71.2004 814.079 69.3717 810.537 Q67.5661 806.972 63.9319 806.972 M63.9319 803.269 Q69.742 803.269 72.7976 807.875 Q75.8763 812.459 75.8763 821.208 Q75.8763 829.935 72.7976 834.542 Q69.742 839.125 63.9319 839.125 Q58.1217 839.125 55.043 834.542 Q51.9875 829.935 51.9875 821.208 Q51.9875 812.459 55.043 807.875 Q58.1217 803.269 63.9319 803.269 Z" fill="#000000" fill-rule="nonzero" fill-opacity="1" /><path clip-path="url(#clip860)" d="M84.0938 832.574 L88.978 832.574 L88.978 838.454 L84.0938 838.454 L84.0938 832.574 Z" fill="#000000" fill-rule="nonzero" fill-opacity="1" /><path clip-path="url(#clip860)" d="M109.163 806.972 Q105.552 806.972 103.723 810.537 Q101.918 814.079 101.918 821.208 Q101.918 828.315 103.723 831.88 Q105.552 835.421 109.163 835.421 Q112.797 835.421 114.603 831.88 Q116.432 828.315 116.432 821.208 Q116.432 814.079 114.603 810.537 Q112.797 806.972 109.163 806.972 M109.163 803.269 Q114.973 803.269 118.029 807.875 Q121.107 812.459 121.107 821.208 Q121.107 829.935 118.029 834.542 Q114.973 839.125 109.163 839.125 Q103.353 839.125 100.274 834.542 Q97.2187 829.935 97.2187 821.208 Q97.2187 812.459 100.274 807.875 Q103.353 803.269 109.163 803.269 Z" fill="#000000" fill-rule="nonzero" fill-opacity="1" /><path clip-path="url(#clip860)" d="M139.325 806.972 Q135.714 806.972 133.885 810.537 Q132.08 814.079 132.08 821.208 Q132.08 828.315 133.885 831.88 Q135.714 835.421 139.325 835.421 Q142.959 835.421 144.765 831.88 Q146.593 828.315 146.593 821.208 Q146.593 814.079 144.765 810.537 Q142.959 806.972 139.325 806.972 M139.325 803.269 Q145.135 803.269 148.191 807.875 Q151.269 812.459 151.269 821.208 Q151.269 829.935 148.191 834.542 Q145.135 839.125 139.325 839.125 Q133.515 839.125 130.436 834.542 Q127.381 829.935 127.381 821.208 Q127.381 812.459 130.436 807.875 Q133.515 803.269 139.325 803.269 Z" fill="#000000" fill-rule="nonzero" fill-opacity="1" /><path clip-path="url(#clip860)" d="M159.533 803.894 L177.89 803.894 L177.89 807.829 L163.816 807.829 L163.816 816.301 Q164.834 815.954 165.853 815.792 Q166.871 815.607 167.89 815.607 Q173.677 815.607 177.056 818.778 Q180.436 821.949 180.436 827.366 Q180.436 832.945 176.964 836.046 Q173.491 839.125 167.172 839.125 Q164.996 839.125 162.728 838.755 Q160.482 838.384 158.075 837.644 L158.075 832.945 Q160.158 834.079 162.38 834.634 Q164.603 835.19 167.079 835.19 Q171.084 835.19 173.422 833.083 Q175.76 830.977 175.76 827.366 Q175.76 823.755 173.422 821.648 Q171.084 819.542 167.079 819.542 Q165.204 819.542 163.329 819.958 Q161.478 820.375 159.533 821.255 L159.533 803.894 Z" fill="#000000" fill-rule="nonzero" fill-opacity="1" /><path clip-path="url(#clip860)" d="M62.9365 573.465 Q59.3254 573.465 57.4967 577.029 Q55.6912 580.571 55.6912 587.701 Q55.6912 594.807 57.4967 598.372 Q59.3254 601.914 62.9365 601.914 Q66.5707 601.914 68.3763 598.372 Q70.205 594.807 70.205 587.701 Q70.205 580.571 68.3763 577.029 Q66.5707 573.465 62.9365 573.465 M62.9365 569.761 Q68.7467 569.761 71.8022 574.367 Q74.8809 578.951 74.8809 587.701 Q74.8809 596.427 71.8022 601.034 Q68.7467 605.617 62.9365 605.617 Q57.1264 605.617 54.0477 601.034 Q50.9921 596.427 50.9921 587.701 Q50.9921 578.951 54.0477 574.367 Q57.1264 569.761 62.9365 569.761 Z" fill="#000000" fill-rule="nonzero" fill-opacity="1" /><path clip-path="url(#clip860)" d="M83.0984 599.066 L87.9827 599.066 L87.9827 604.946 L83.0984 604.946 L83.0984 599.066 Z" fill="#000000" fill-rule="nonzero" fill-opacity="1" /><path clip-path="url(#clip860)" d="M108.168 573.465 Q104.557 573.465 102.728 577.029 Q100.922 580.571 100.922 587.701 Q100.922 594.807 102.728 598.372 Q104.557 601.914 108.168 601.914 Q111.802 601.914 113.608 598.372 Q115.436 594.807 115.436 587.701 Q115.436 580.571 113.608 577.029 Q111.802 573.465 108.168 573.465 M108.168 569.761 Q113.978 569.761 117.033 574.367 Q120.112 578.951 120.112 587.701 Q120.112 596.427 117.033 601.034 Q113.978 605.617 108.168 605.617 Q102.358 605.617 99.2789 601.034 Q96.2234 596.427 96.2234 587.701 Q96.2234 578.951 99.2789 574.367 Q102.358 569.761 108.168 569.761 Z" fill="#000000" fill-rule="nonzero" fill-opacity="1" /><path clip-path="url(#clip860)" d="M129.14 601.011 L136.779 601.011 L136.779 574.645 L128.469 576.312 L128.469 572.053 L136.732 570.386 L141.408 570.386 L141.408 601.011 L149.047 601.011 L149.047 604.946 L129.14 604.946 L129.14 601.011 Z" fill="#000000" fill-rule="nonzero" fill-opacity="1" /><path clip-path="url(#clip860)" d="M168.491 573.465 Q164.88 573.465 163.052 577.029 Q161.246 580.571 161.246 587.701 Q161.246 594.807 163.052 598.372 Q164.88 601.914 168.491 601.914 Q172.126 601.914 173.931 598.372 Q175.76 594.807 175.76 587.701 Q175.76 580.571 173.931 577.029 Q172.126 573.465 168.491 573.465 M168.491 569.761 Q174.302 569.761 177.357 574.367 Q180.436 578.951 180.436 587.701 Q180.436 596.427 177.357 601.034 Q174.302 605.617 168.491 605.617 Q162.681 605.617 159.603 601.034 Q156.547 596.427 156.547 587.701 Q156.547 578.951 159.603 574.367 Q162.681 569.761 168.491 569.761 Z" fill="#000000" fill-rule="nonzero" fill-opacity="1" /><path clip-path="url(#clip860)" d="M63.9319 339.957 Q60.3208 339.957 58.4921 343.522 Q56.6865 347.063 56.6865 354.193 Q56.6865 361.299 58.4921 364.864 Q60.3208 368.406 63.9319 368.406 Q67.5661 368.406 69.3717 364.864 Q71.2004 361.299 71.2004 354.193 Q71.2004 347.063 69.3717 343.522 Q67.5661 339.957 63.9319 339.957 M63.9319 336.253 Q69.742 336.253 72.7976 340.86 Q75.8763 345.443 75.8763 354.193 Q75.8763 362.92 72.7976 367.526 Q69.742 372.109 63.9319 372.109 Q58.1217 372.109 55.043 367.526 Q51.9875 362.92 51.9875 354.193 Q51.9875 345.443 55.043 340.86 Q58.1217 336.253 63.9319 336.253 Z" fill="#000000" fill-rule="nonzero" fill-opacity="1" /><path clip-path="url(#clip860)" d="M84.0938 365.559 L88.978 365.559 L88.978 371.438 L84.0938 371.438 L84.0938 365.559 Z" fill="#000000" fill-rule="nonzero" fill-opacity="1" /><path clip-path="url(#clip860)" d="M109.163 339.957 Q105.552 339.957 103.723 343.522 Q101.918 347.063 101.918 354.193 Q101.918 361.299 103.723 364.864 Q105.552 368.406 109.163 368.406 Q112.797 368.406 114.603 364.864 Q116.432 361.299 116.432 354.193 Q116.432 347.063 114.603 343.522 Q112.797 339.957 109.163 339.957 M109.163 336.253 Q114.973 336.253 118.029 340.86 Q121.107 345.443 121.107 354.193 Q121.107 362.92 118.029 367.526 Q114.973 372.109 109.163 372.109 Q103.353 372.109 100.274 367.526 Q97.2187 362.92 97.2187 354.193 Q97.2187 345.443 100.274 340.86 Q103.353 336.253 109.163 336.253 Z" fill="#000000" fill-rule="nonzero" fill-opacity="1" /><path clip-path="url(#clip860)" d="M130.135 367.503 L137.774 367.503 L137.774 341.137 L129.464 342.804 L129.464 338.545 L137.728 336.878 L142.404 336.878 L142.404 367.503 L150.043 367.503 L150.043 371.438 L130.135 371.438 L130.135 367.503 Z" fill="#000000" fill-rule="nonzero" fill-opacity="1" /><path clip-path="url(#clip860)" d="M159.533 336.878 L177.89 336.878 L177.89 340.813 L163.816 340.813 L163.816 349.285 Q164.834 348.938 165.853 348.776 Q166.871 348.591 167.89 348.591 Q173.677 348.591 177.056 351.762 Q180.436 354.934 180.436 360.35 Q180.436 365.929 176.964 369.031 Q173.491 372.109 167.172 372.109 Q164.996 372.109 162.728 371.739 Q160.482 371.369 158.075 370.628 L158.075 365.929 Q160.158 367.063 162.38 367.619 Q164.603 368.174 167.079 368.174 Q171.084 368.174 173.422 366.068 Q175.76 363.961 175.76 360.35 Q175.76 356.739 173.422 354.633 Q171.084 352.526 167.079 352.526 Q165.204 352.526 163.329 352.943 Q161.478 353.36 159.533 354.239 L159.533 336.878 Z" fill="#000000" fill-rule="nonzero" fill-opacity="1" /><path clip-path="url(#clip860)" d="M62.9365 106.449 Q59.3254 106.449 57.4967 110.014 Q55.6912 113.555 55.6912 120.685 Q55.6912 127.791 57.4967 131.356 Q59.3254 134.898 62.9365 134.898 Q66.5707 134.898 68.3763 131.356 Q70.205 127.791 70.205 120.685 Q70.205 113.555 68.3763 110.014 Q66.5707 106.449 62.9365 106.449 M62.9365 102.745 Q68.7467 102.745 71.8022 107.352 Q74.8809 111.935 74.8809 120.685 Q74.8809 129.412 71.8022 134.018 Q68.7467 138.602 62.9365 138.602 Q57.1264 138.602 54.0477 134.018 Q50.9921 129.412 50.9921 120.685 Q50.9921 111.935 54.0477 107.352 Q57.1264 102.745 62.9365 102.745 Z" fill="#000000" fill-rule="nonzero" fill-opacity="1" /><path clip-path="url(#clip860)" d="M83.0984 132.051 L87.9827 132.051 L87.9827 137.93 L83.0984 137.93 L83.0984 132.051 Z" fill="#000000" fill-rule="nonzero" fill-opacity="1" /><path clip-path="url(#clip860)" d="M108.168 106.449 Q104.557 106.449 102.728 110.014 Q100.922 113.555 100.922 120.685 Q100.922 127.791 102.728 131.356 Q104.557 134.898 108.168 134.898 Q111.802 134.898 113.608 131.356 Q115.436 127.791 115.436 120.685 Q115.436 113.555 113.608 110.014 Q111.802 106.449 108.168 106.449 M108.168 102.745 Q113.978 102.745 117.033 107.352 Q120.112 111.935 120.112 120.685 Q120.112 129.412 117.033 134.018 Q113.978 138.602 108.168 138.602 Q102.358 138.602 99.2789 134.018 Q96.2234 129.412 96.2234 120.685 Q96.2234 111.935 99.2789 107.352 Q102.358 102.745 108.168 102.745 Z" fill="#000000" fill-rule="nonzero" fill-opacity="1" /><path clip-path="url(#clip860)" d="M132.357 133.995 L148.677 133.995 L148.677 137.93 L126.732 137.93 L126.732 133.995 Q129.394 131.241 133.978 126.611 Q138.584 121.958 139.765 120.616 Q142.01 118.092 142.89 116.356 Q143.793 114.597 143.793 112.907 Q143.793 110.153 141.848 108.417 Q139.927 106.68 136.825 106.68 Q134.626 106.68 132.172 107.444 Q129.742 108.208 126.964 109.759 L126.964 105.037 Q129.788 103.903 132.242 103.324 Q134.695 102.745 136.732 102.745 Q142.103 102.745 145.297 105.43 Q148.492 108.116 148.492 112.606 Q148.492 114.736 147.681 116.657 Q146.894 118.555 144.788 121.148 Q144.209 121.819 141.107 125.037 Q138.006 128.231 132.357 133.995 Z" fill="#000000" fill-rule="nonzero" fill-opacity="1" /><path clip-path="url(#clip860)" d="M168.491 106.449 Q164.88 106.449 163.052 110.014 Q161.246 113.555 161.246 120.685 Q161.246 127.791 163.052 131.356 Q164.88 134.898 168.491 134.898 Q172.126 134.898 173.931 131.356 Q175.76 127.791 175.76 120.685 Q175.76 113.555 173.931 110.014 Q172.126 106.449 168.491 106.449 M168.491 102.745 Q174.302 102.745 177.357 107.352 Q180.436 111.935 180.436 120.685 Q180.436 129.412 177.357 134.018 Q174.302 138.602 168.491 138.602 Q162.681 138.602 159.603 134.018 Q156.547 129.412 156.547 120.685 Q156.547 111.935 159.603 107.352 Q162.681 102.745 168.491 102.745 Z" fill="#000000" fill-rule="nonzero" fill-opacity="1" /><path clip-path="url(#clip860)" d="M617.734 30.8748 L617.734 33.2186 L595.703 33.2186 Q596.016 38.1665 598.672 40.7706 Q601.354 43.3487 606.12 43.3487 Q608.88 43.3487 611.458 42.6716 Q614.062 41.9946 616.614 40.6404 L616.614 45.1716 Q614.036 46.2654 611.328 46.8383 Q608.62 47.4112 605.833 47.4112 Q598.854 47.4112 594.766 43.3487 Q590.703 39.2862 590.703 32.3592 Q590.703 25.1978 594.557 21.0051 Q598.437 16.7864 605 16.7864 Q610.885 16.7864 614.297 20.5884 Q617.734 24.3645 617.734 30.8748 M612.943 29.4686 Q612.891 25.5363 610.729 23.1926 Q608.594 20.8488 605.052 20.8488 Q601.042 20.8488 598.62 23.1145 Q596.224 25.3801 595.859 29.4946 L612.943 29.4686 Z" fill="#000000" fill-rule="nonzero" fill-opacity="1" /><path clip-path="url(#clip860)" d="M625.104 35.1456 L625.104 17.4895 L629.896 17.4895 L629.896 34.9634 Q629.896 39.104 631.51 41.1873 Q633.125 43.2446 636.354 43.2446 Q640.234 43.2446 642.474 40.7706 Q644.739 38.2967 644.739 34.0259 L644.739 17.4895 L649.531 17.4895 L649.531 46.656 L644.739 46.656 L644.739 42.1769 Q642.995 44.8331 640.677 46.1352 Q638.385 47.4112 635.338 47.4112 Q630.312 47.4112 627.708 44.2862 Q625.104 41.1612 625.104 35.1456 M637.161 16.7864 L637.161 16.7864 Z" fill="#000000" fill-rule="nonzero" fill-opacity="1" /><path clip-path="url(#clip860)" d="M676.302 21.9686 Q675.494 21.4999 674.531 21.2916 Q673.593 21.0572 672.448 21.0572 Q668.385 21.0572 666.198 23.7134 Q664.036 26.3436 664.036 31.2915 L664.036 46.656 L659.218 46.656 L659.218 17.4895 L664.036 17.4895 L664.036 22.0207 Q665.547 19.3645 667.968 18.0884 Q670.39 16.7864 673.854 16.7864 Q674.349 16.7864 674.948 16.8645 Q675.546 16.9166 676.276 17.0468 L676.302 21.9686 Z" fill="#000000" fill-rule="nonzero" fill-opacity="1" /><path clip-path="url(#clip860)" d="M681.328 17.4895 L686.119 17.4895 L686.119 46.656 L681.328 46.656 L681.328 17.4895 M681.328 6.13538 L686.119 6.13538 L686.119 12.2031 L681.328 12.2031 L681.328 6.13538 Z" fill="#000000" fill-rule="nonzero" fill-opacity="1" /><path clip-path="url(#clip860)" d="M717.083 32.0988 Q717.083 26.8124 714.895 23.8176 Q712.734 20.7968 708.932 20.7968 Q705.13 20.7968 702.942 23.8176 Q700.781 26.8124 700.781 32.0988 Q700.781 37.3852 702.942 40.406 Q705.13 43.4008 708.932 43.4008 Q712.734 43.4008 714.895 40.406 Q717.083 37.3852 717.083 32.0988 M700.781 21.9165 Q702.291 19.3124 704.583 18.0624 Q706.9 16.7864 710.104 16.7864 Q715.416 16.7864 718.723 21.0051 Q722.057 25.2238 722.057 32.0988 Q722.057 38.9737 718.723 43.1925 Q715.416 47.4112 710.104 47.4112 Q706.9 47.4112 704.583 46.1612 Q702.291 44.8852 700.781 42.281 L700.781 46.656 L695.963 46.656 L695.963 6.13538 L700.781 6.13538 L700.781 21.9165 Z" fill="#000000" fill-rule="nonzero" fill-opacity="1" /><path clip-path="url(#clip860)" d="M741.301 20.8488 Q737.447 20.8488 735.208 23.8697 Q732.968 26.8644 732.968 32.0988 Q732.968 37.3331 735.182 40.354 Q737.421 43.3487 741.301 43.3487 Q745.129 43.3487 747.369 40.3279 Q749.609 37.3071 749.609 32.0988 Q749.609 26.9165 747.369 23.8957 Q745.129 20.8488 741.301 20.8488 M741.301 16.7864 Q747.551 16.7864 751.119 20.8488 Q754.687 24.9113 754.687 32.0988 Q754.687 39.2602 751.119 43.3487 Q747.551 47.4112 741.301 47.4112 Q735.025 47.4112 731.458 43.3487 Q727.916 39.2602 727.916 32.0988 Q727.916 24.9113 731.458 20.8488 Q735.025 16.7864 741.301 16.7864 Z" fill="#000000" fill-rule="nonzero" fill-opacity="1" /><path clip-path="url(#clip860)" d="M779.53 21.9686 Q778.723 21.4999 777.759 21.2916 Q776.822 21.0572 775.676 21.0572 Q771.614 21.0572 769.426 23.7134 Q767.265 26.3436 767.265 31.2915 L767.265 46.656 L762.447 46.656 L762.447 17.4895 L767.265 17.4895 L767.265 22.0207 Q768.775 19.3645 771.197 18.0884 Q773.619 16.7864 777.082 16.7864 Q777.577 16.7864 778.176 16.8645 Q778.775 16.9166 779.504 17.0468 L779.53 21.9686 Z" fill="#000000" fill-rule="nonzero" fill-opacity="1" /><path clip-path="url(#clip862)" d="M242.965 977.814 L285.075 977.814 L327.184 991.53 L369.294 1007.53 L411.404 965.352 L453.513 938.251 L495.623 964.856 L537.733 1020.84 L579.842 998.537 L621.952 963.179 L664.062 978.233 L706.172 986.353 L748.281 997.559 L790.391 1022.16 L832.501 1031.03 L874.61 1008.72 L916.72 1050 L958.83 1070.59 L1000.94 1046.38 L1043.05 987.642 L1085.16 973.561 L1127.27 982.771 L1127.27 831.533 L1085.16 822.675 L1043.05 821.751 L1000.94 836.722 L958.83 845.846 L916.72 853.918 L874.61 864.384 L832.501 891.454 L790.391 907.763 L748.281 915.174 L706.172 939.404 L664.062 934.384 L621.952 950.687 L579.842 914.334 L537.733 893.023 L495.623 923.026 L453.513 908.886 L411.404 942.984 L369.294 950.442 L327.184 932.48 L285.075 977.814 L242.965 977.814  Z" fill="#009af9" fill-rule="evenodd" fill-opacity="0.1"/>
<polyline clip-path="url(#clip862)" style="stroke:#009af9; stroke-linecap:round; stroke-linejoin:round; stroke-width:4; stroke-opacity:1; fill:none" points="242.965,977.814 285.075,977.814 327.184,962.005 369.294,978.985 411.404,954.168 453.513,923.568 495.623,943.941 537.733,956.93 579.842,956.435 621.952,956.933 664.062,956.309 706.172,962.879 748.281,956.366 790.391,964.962 832.501,961.243 874.61,936.551 916.72,951.957 958.83,958.218 1000.94,941.55 1043.05,904.696 1085.16,898.118 1127.27,907.152 "/>
<path clip-path="url(#clip862)" d="M242.965 977.814 L285.075 977.814 L327.184 120.65 L369.294 120.65 L411.404 120.65 L453.513 120.65 L495.623 120.65 L537.733 120.65 L579.842 120.65 L621.952 120.65 L664.062 120.65 L706.172 120.65 L748.281 120.65 L790.391 120.65 L832.501 120.65 L874.61 120.65 L916.72 120.65 L958.83 120.65 L1000.94 120.65 L1043.05 120.65 L1085.16 120.65 L1127.27 120.65 L1127.27 120.65 L1085.16 120.65 L1043.05 120.65 L1000.94 120.65 L958.83 120.65 L916.72 120.65 L874.61 120.65 L832.501 120.65 L790.391 120.65 L748.281 120.65 L706.172 120.65 L664.062 120.65 L621.952 120.65 L579.842 120.65 L537.733 120.65 L495.623 120.65 L453.513 120.65 L411.404 120.65 L369.294 120.65 L327.184 120.65 L285.075 977.814 L242.965 977.814  Z" fill="#e26f46" fill-rule="evenodd" fill-opacity="0.1"/>
<polyline clip-path="url(#clip862)" style="stroke:#e26f46; stroke-linecap:round; stroke-linejoin:round; stroke-width:4; stroke-opacity:1; fill:none" points="242.965,977.814 285.075,977.814 327.184,120.65 369.294,120.65 411.404,120.65 453.513,120.65 495.623,120.65 537.733,120.65 579.842,120.65 621.952,120.65 664.062,120.65 706.172,120.65 748.281,120.65 790.391,120.65 832.501,120.65 874.61,120.65 916.72,120.65 958.83,120.65 1000.94,120.65 1043.05,120.65 1085.16,120.65 1127.27,120.65 "/>
<path clip-path="url(#clip860)" d="M1415.39 1099.09 L2352.76 1099.09 L2352.76 92.1521 L1415.39 92.1521  Z" fill="#ffffff" fill-rule="evenodd" fill-opacity="1"/>
<defs>
  <clipPath id="clip863">
    <rect x="1415" y="92" width="938" height="1008"/>
  </clipPath>
</defs>
<polyline clip-path="url(#clip863)" style="stroke:#000000; stroke-linecap:round; stroke-linejoin:round; stroke-width:2; stroke-opacity:0.1; fill:none" points="1610.36,1099.09 1610.36,92.1521 "/>
<polyline clip-path="url(#clip863)" style="stroke:#000000; stroke-linecap:round; stroke-linejoin:round; stroke-width:2; stroke-opacity:0.1; fill:none" points="1820.91,1099.09 1820.91,92.1521 "/>
<polyline clip-path="url(#clip863)" style="stroke:#000000; stroke-linecap:round; stroke-linejoin:round; stroke-width:2; stroke-opacity:0.1; fill:none" points="2031.46,1099.09 2031.46,92.1521 "/>
<polyline clip-path="url(#clip863)" style="stroke:#000000; stroke-linecap:round; stroke-linejoin:round; stroke-width:2; stroke-opacity:0.1; fill:none" points="2242.01,1099.09 2242.01,92.1521 "/>
<polyline clip-path="url(#clip863)" style="stroke:#000000; stroke-linecap:round; stroke-linejoin:round; stroke-width:2; stroke-opacity:0.1; fill:none" points="1415.39,1039.36 2352.76,1039.36 "/>
<polyline clip-path="url(#clip863)" style="stroke:#000000; stroke-linecap:round; stroke-linejoin:round; stroke-width:2; stroke-opacity:0.1; fill:none" points="1415.39,845.737 2352.76,845.737 "/>
<polyline clip-path="url(#clip863)" style="stroke:#000000; stroke-linecap:round; stroke-linejoin:round; stroke-width:2; stroke-opacity:0.1; fill:none" points="1415.39,652.118 2352.76,652.118 "/>
<polyline clip-path="url(#clip863)" style="stroke:#000000; stroke-linecap:round; stroke-linejoin:round; stroke-width:2; stroke-opacity:0.1; fill:none" points="1415.39,458.499 2352.76,458.499 "/>
<polyline clip-path="url(#clip863)" style="stroke:#000000; stroke-linecap:round; stroke-linejoin:round; stroke-width:2; stroke-opacity:0.1; fill:none" points="1415.39,264.88 2352.76,264.88 "/>
<polyline clip-path="url(#clip860)" style="stroke:#000000; stroke-linecap:round; stroke-linejoin:round; stroke-width:4; stroke-opacity:1; fill:none" points="1415.39,1099.09 2352.76,1099.09 "/>
<polyline clip-path="url(#clip860)" style="stroke:#000000; stroke-linecap:round; stroke-linejoin:round; stroke-width:4; stroke-opacity:1; fill:none" points="1610.36,1099.09 1610.36,1080.19 "/>
<polyline clip-path="url(#clip860)" style="stroke:#000000; stroke-linecap:round; stroke-linejoin:round; stroke-width:4; stroke-opacity:1; fill:none" points="1820.91,1099.09 1820.91,1080.19 "/>
<polyline clip-path="url(#clip860)" style="stroke:#000000; stroke-linecap:round; stroke-linejoin:round; stroke-width:4; stroke-opacity:1; fill:none" points="2031.46,1099.09 2031.46,1080.19 "/>
<polyline clip-path="url(#clip860)" style="stroke:#000000; stroke-linecap:round; stroke-linejoin:round; stroke-width:4; stroke-opacity:1; fill:none" points="2242.01,1099.09 2242.01,1080.19 "/>
<path clip-path="url(#clip860)" d="M1600.64 1126.93 L1619 1126.93 L1619 1130.86 L1604.92 1130.86 L1604.92 1139.34 Q1605.94 1138.99 1606.96 1138.83 Q1607.98 1138.64 1609 1138.64 Q1614.78 1138.64 1618.16 1141.81 Q1621.54 1144.98 1621.54 1150.4 Q1621.54 1155.98 1618.07 1159.08 Q1614.6 1162.16 1608.28 1162.16 Q1606.1 1162.16 1603.83 1161.79 Q1601.59 1161.42 1599.18 1160.68 L1599.18 1155.98 Q1601.26 1157.11 1603.49 1157.67 Q1605.71 1158.22 1608.19 1158.22 Q1612.19 1158.22 1614.53 1156.12 Q1616.87 1154.01 1616.87 1150.4 Q1616.87 1146.79 1614.53 1144.68 Q1612.19 1142.58 1608.19 1142.58 Q1606.31 1142.58 1604.44 1142.99 Q1602.58 1143.41 1600.64 1144.29 L1600.64 1126.93 Z" fill="#000000" fill-rule="nonzero" fill-opacity="1" /><path clip-path="url(#clip860)" d="M1795.6 1157.55 L1803.24 1157.55 L1803.24 1131.19 L1794.93 1132.85 L1794.93 1128.59 L1803.19 1126.93 L1807.87 1126.93 L1807.87 1157.55 L1815.51 1157.55 L1815.51 1161.49 L1795.6 1161.49 L1795.6 1157.55 Z" fill="#000000" fill-rule="nonzero" fill-opacity="1" /><path clip-path="url(#clip860)" d="M1834.95 1130.01 Q1831.34 1130.01 1829.51 1133.57 Q1827.7 1137.11 1827.7 1144.24 Q1827.7 1151.35 1829.51 1154.91 Q1831.34 1158.46 1834.95 1158.46 Q1838.58 1158.46 1840.39 1154.91 Q1842.22 1151.35 1842.22 1144.24 Q1842.22 1137.11 1840.39 1133.57 Q1838.58 1130.01 1834.95 1130.01 M1834.95 1126.3 Q1840.76 1126.3 1843.82 1130.91 Q1846.89 1135.49 1846.89 1144.24 Q1846.89 1152.97 1843.82 1157.58 Q1840.76 1162.16 1834.95 1162.16 Q1829.14 1162.16 1826.06 1157.58 Q1823.01 1152.97 1823.01 1144.24 Q1823.01 1135.49 1826.06 1130.91 Q1829.14 1126.3 1834.95 1126.3 Z" fill="#000000" fill-rule="nonzero" fill-opacity="1" /><path clip-path="url(#clip860)" d="M2006.64 1157.55 L2014.28 1157.55 L2014.28 1131.19 L2005.97 1132.85 L2005.97 1128.59 L2014.24 1126.93 L2018.91 1126.93 L2018.91 1157.55 L2026.55 1157.55 L2026.55 1161.49 L2006.64 1161.49 L2006.64 1157.55 Z" fill="#000000" fill-rule="nonzero" fill-opacity="1" /><path clip-path="url(#clip860)" d="M2036.04 1126.93 L2054.4 1126.93 L2054.4 1130.86 L2040.32 1130.86 L2040.32 1139.34 Q2041.34 1138.99 2042.36 1138.83 Q2043.38 1138.64 2044.4 1138.64 Q2050.19 1138.64 2053.57 1141.81 Q2056.94 1144.98 2056.94 1150.4 Q2056.94 1155.98 2053.47 1159.08 Q2050 1162.16 2043.68 1162.16 Q2041.51 1162.16 2039.24 1161.79 Q2036.99 1161.42 2034.58 1160.68 L2034.58 1155.98 Q2036.67 1157.11 2038.89 1157.67 Q2041.11 1158.22 2043.59 1158.22 Q2047.59 1158.22 2049.93 1156.12 Q2052.27 1154.01 2052.27 1150.4 Q2052.27 1146.79 2049.93 1144.68 Q2047.59 1142.58 2043.59 1142.58 Q2041.71 1142.58 2039.84 1142.99 Q2037.99 1143.41 2036.04 1144.29 L2036.04 1126.93 Z" fill="#000000" fill-rule="nonzero" fill-opacity="1" /><path clip-path="url(#clip860)" d="M2220.78 1157.55 L2237.1 1157.55 L2237.1 1161.49 L2215.16 1161.49 L2215.16 1157.55 Q2217.82 1154.8 2222.4 1150.17 Q2227.01 1145.52 2228.19 1144.17 Q2230.43 1141.65 2231.31 1139.91 Q2232.22 1138.15 2232.22 1136.46 Q2232.22 1133.71 2230.27 1131.97 Q2228.35 1130.24 2225.25 1130.24 Q2223.05 1130.24 2220.6 1131 Q2218.16 1131.77 2215.39 1133.32 L2215.39 1128.59 Q2218.21 1127.46 2220.66 1126.88 Q2223.12 1126.3 2225.16 1126.3 Q2230.53 1126.3 2233.72 1128.99 Q2236.91 1131.67 2236.91 1136.16 Q2236.91 1138.29 2236.1 1140.21 Q2235.32 1142.11 2233.21 1144.71 Q2232.63 1145.38 2229.53 1148.59 Q2226.43 1151.79 2220.78 1157.55 Z" fill="#000000" fill-rule="nonzero" fill-opacity="1" /><path clip-path="url(#clip860)" d="M2256.91 1130.01 Q2253.3 1130.01 2251.47 1133.57 Q2249.67 1137.11 2249.67 1144.24 Q2249.67 1151.35 2251.47 1154.91 Q2253.3 1158.46 2256.91 1158.46 Q2260.55 1158.46 2262.35 1154.91 Q2264.18 1151.35 2264.18 1144.24 Q2264.18 1137.11 2262.35 1133.57 Q2260.55 1130.01 2256.91 1130.01 M2256.91 1126.3 Q2262.72 1126.3 2265.78 1130.91 Q2268.86 1135.49 2268.86 1144.24 Q2268.86 1152.97 2265.78 1157.58 Q2262.72 1162.16 2256.91 1162.16 Q2251.1 1162.16 2248.03 1157.58 Q2244.97 1152.97 2244.97 1144.24 Q2244.97 1135.49 2248.03 1130.91 Q2251.1 1126.3 2256.91 1126.3 Z" fill="#000000" fill-rule="nonzero" fill-opacity="1" /><polyline clip-path="url(#clip860)" style="stroke:#000000; stroke-linecap:round; stroke-linejoin:round; stroke-width:4; stroke-opacity:1; fill:none" points="1415.39,1099.09 1415.39,92.1521 "/>
<polyline clip-path="url(#clip860)" style="stroke:#000000; stroke-linecap:round; stroke-linejoin:round; stroke-width:4; stroke-opacity:1; fill:none" points="1415.39,1039.36 1434.29,1039.36 "/>
<polyline clip-path="url(#clip860)" style="stroke:#000000; stroke-linecap:round; stroke-linejoin:round; stroke-width:4; stroke-opacity:1; fill:none" points="1415.39,845.737 1434.29,845.737 "/>
<polyline clip-path="url(#clip860)" style="stroke:#000000; stroke-linecap:round; stroke-linejoin:round; stroke-width:4; stroke-opacity:1; fill:none" points="1415.39,652.118 1434.29,652.118 "/>
<polyline clip-path="url(#clip860)" style="stroke:#000000; stroke-linecap:round; stroke-linejoin:round; stroke-width:4; stroke-opacity:1; fill:none" points="1415.39,458.499 1434.29,458.499 "/>
<polyline clip-path="url(#clip860)" style="stroke:#000000; stroke-linecap:round; stroke-linejoin:round; stroke-width:4; stroke-opacity:1; fill:none" points="1415.39,264.88 1434.29,264.88 "/>
<path clip-path="url(#clip860)" d="M1252.71 1052.7 L1260.34 1052.7 L1260.34 1026.34 L1252.03 1028 L1252.03 1023.74 L1260.3 1022.08 L1264.97 1022.08 L1264.97 1052.7 L1272.61 1052.7 L1272.61 1056.64 L1252.71 1056.64 L1252.71 1052.7 Z" fill="#000000" fill-rule="nonzero" fill-opacity="1" /><path clip-path="url(#clip860)" d="M1282.06 1050.76 L1286.94 1050.76 L1286.94 1056.64 L1282.06 1056.64 L1282.06 1050.76 Z" fill="#000000" fill-rule="nonzero" fill-opacity="1" /><path clip-path="url(#clip860)" d="M1307.13 1025.15 Q1303.51 1025.15 1301.69 1028.72 Q1299.88 1032.26 1299.88 1039.39 Q1299.88 1046.5 1301.69 1050.06 Q1303.51 1053.6 1307.13 1053.6 Q1310.76 1053.6 1312.57 1050.06 Q1314.39 1046.5 1314.39 1039.39 Q1314.39 1032.26 1312.57 1028.72 Q1310.76 1025.15 1307.13 1025.15 M1307.13 1021.45 Q1312.94 1021.45 1315.99 1026.06 Q1319.07 1030.64 1319.07 1039.39 Q1319.07 1048.12 1315.99 1052.72 Q1312.94 1057.31 1307.13 1057.31 Q1301.32 1057.31 1298.24 1052.72 Q1295.18 1048.12 1295.18 1039.39 Q1295.18 1030.64 1298.24 1026.06 Q1301.32 1021.45 1307.13 1021.45 Z" fill="#000000" fill-rule="nonzero" fill-opacity="1" /><path clip-path="url(#clip860)" d="M1337.29 1025.15 Q1333.68 1025.15 1331.85 1028.72 Q1330.04 1032.26 1330.04 1039.39 Q1330.04 1046.5 1331.85 1050.06 Q1333.68 1053.6 1337.29 1053.6 Q1340.92 1053.6 1342.73 1050.06 Q1344.56 1046.5 1344.56 1039.39 Q1344.56 1032.26 1342.73 1028.72 Q1340.92 1025.15 1337.29 1025.15 M1337.29 1021.45 Q1343.1 1021.45 1346.15 1026.06 Q1349.23 1030.64 1349.23 1039.39 Q1349.23 1048.12 1346.15 1052.72 Q1343.1 1057.31 1337.29 1057.31 Q1331.48 1057.31 1328.4 1052.72 Q1325.34 1048.12 1325.34 1039.39 Q1325.34 1030.64 1328.4 1026.06 Q1331.48 1021.45 1337.29 1021.45 Z" fill="#000000" fill-rule="nonzero" fill-opacity="1" /><path clip-path="url(#clip860)" d="M1367.45 1025.15 Q1363.84 1025.15 1362.01 1028.72 Q1360.2 1032.26 1360.2 1039.39 Q1360.2 1046.5 1362.01 1050.06 Q1363.84 1053.6 1367.45 1053.6 Q1371.08 1053.6 1372.89 1050.06 Q1374.72 1046.5 1374.72 1039.39 Q1374.72 1032.26 1372.89 1028.72 Q1371.08 1025.15 1367.45 1025.15 M1367.45 1021.45 Q1373.26 1021.45 1376.32 1026.06 Q1379.39 1030.64 1379.39 1039.39 Q1379.39 1048.12 1376.32 1052.72 Q1373.26 1057.31 1367.45 1057.31 Q1361.64 1057.31 1358.56 1052.72 Q1355.51 1048.12 1355.51 1039.39 Q1355.51 1030.64 1358.56 1026.06 Q1361.64 1021.45 1367.45 1021.45 Z" fill="#000000" fill-rule="nonzero" fill-opacity="1" /><path clip-path="url(#clip860)" d="M1253.7 859.082 L1261.34 859.082 L1261.34 832.716 L1253.03 834.383 L1253.03 830.124 L1261.29 828.457 L1265.97 828.457 L1265.97 859.082 L1273.61 859.082 L1273.61 863.017 L1253.7 863.017 L1253.7 859.082 Z" fill="#000000" fill-rule="nonzero" fill-opacity="1" /><path clip-path="url(#clip860)" d="M1283.05 857.137 L1287.94 857.137 L1287.94 863.017 L1283.05 863.017 L1283.05 857.137 Z" fill="#000000" fill-rule="nonzero" fill-opacity="1" /><path clip-path="url(#clip860)" d="M1308.12 831.536 Q1304.51 831.536 1302.68 835.1 Q1300.88 838.642 1300.88 845.772 Q1300.88 852.878 1302.68 856.443 Q1304.51 859.985 1308.12 859.985 Q1311.76 859.985 1313.56 856.443 Q1315.39 852.878 1315.39 845.772 Q1315.39 838.642 1313.56 835.1 Q1311.76 831.536 1308.12 831.536 M1308.12 827.832 Q1313.93 827.832 1316.99 832.438 Q1320.07 837.022 1320.07 845.772 Q1320.07 854.498 1316.99 859.105 Q1313.93 863.688 1308.12 863.688 Q1302.31 863.688 1299.23 859.105 Q1296.18 854.498 1296.18 845.772 Q1296.18 837.022 1299.23 832.438 Q1302.31 827.832 1308.12 827.832 Z" fill="#000000" fill-rule="nonzero" fill-opacity="1" /><path clip-path="url(#clip860)" d="M1332.31 859.082 L1348.63 859.082 L1348.63 863.017 L1326.69 863.017 L1326.69 859.082 Q1329.35 856.327 1333.93 851.698 Q1338.54 847.045 1339.72 845.702 Q1341.96 843.179 1342.84 841.443 Q1343.75 839.684 1343.75 837.994 Q1343.75 835.239 1341.8 833.503 Q1339.88 831.767 1336.78 831.767 Q1334.58 831.767 1332.13 832.531 Q1329.7 833.295 1326.92 834.846 L1326.92 830.124 Q1329.74 828.989 1332.2 828.411 Q1334.65 827.832 1336.69 827.832 Q1342.06 827.832 1345.25 830.517 Q1348.45 833.202 1348.45 837.693 Q1348.45 839.823 1347.64 841.744 Q1346.85 843.642 1344.74 846.235 Q1344.16 846.906 1341.06 850.124 Q1337.96 853.318 1332.31 859.082 Z" fill="#000000" fill-rule="nonzero" fill-opacity="1" /><path clip-path="url(#clip860)" d="M1358.49 828.457 L1376.85 828.457 L1376.85 832.392 L1362.77 832.392 L1362.77 840.864 Q1363.79 840.517 1364.81 840.355 Q1365.83 840.17 1366.85 840.17 Q1372.63 840.17 1376.01 843.341 Q1379.39 846.512 1379.39 851.929 Q1379.39 857.508 1375.92 860.61 Q1372.45 863.688 1366.13 863.688 Q1363.95 863.688 1361.69 863.318 Q1359.44 862.948 1357.03 862.207 L1357.03 857.508 Q1359.12 858.642 1361.34 859.198 Q1363.56 859.753 1366.04 859.753 Q1370.04 859.753 1372.38 857.647 Q1374.72 855.54 1374.72 851.929 Q1374.72 848.318 1372.38 846.212 Q1370.04 844.105 1366.04 844.105 Q1364.16 844.105 1362.29 844.522 Q1360.44 844.938 1358.49 845.818 L1358.49 828.457 Z" fill="#000000" fill-rule="nonzero" fill-opacity="1" /><path clip-path="url(#clip860)" d="M1252.71 665.463 L1260.34 665.463 L1260.34 639.097 L1252.03 640.764 L1252.03 636.505 L1260.3 634.838 L1264.97 634.838 L1264.97 665.463 L1272.61 665.463 L1272.61 669.398 L1252.71 669.398 L1252.71 665.463 Z" fill="#000000" fill-rule="nonzero" fill-opacity="1" /><path clip-path="url(#clip860)" d="M1282.06 663.518 L1286.94 663.518 L1286.94 669.398 L1282.06 669.398 L1282.06 663.518 Z" fill="#000000" fill-rule="nonzero" fill-opacity="1" /><path clip-path="url(#clip860)" d="M1307.13 637.917 Q1303.51 637.917 1301.69 641.482 Q1299.88 645.023 1299.88 652.153 Q1299.88 659.259 1301.69 662.824 Q1303.51 666.366 1307.13 666.366 Q1310.76 666.366 1312.57 662.824 Q1314.39 659.259 1314.39 652.153 Q1314.39 645.023 1312.57 641.482 Q1310.76 637.917 1307.13 637.917 M1307.13 634.213 Q1312.94 634.213 1315.99 638.819 Q1319.07 643.403 1319.07 652.153 Q1319.07 660.88 1315.99 665.486 Q1312.94 670.069 1307.13 670.069 Q1301.32 670.069 1298.24 665.486 Q1295.18 660.88 1295.18 652.153 Q1295.18 643.403 1298.24 638.819 Q1301.32 634.213 1307.13 634.213 Z" fill="#000000" fill-rule="nonzero" fill-opacity="1" /><path clip-path="url(#clip860)" d="M1327.33 634.838 L1345.69 634.838 L1345.69 638.773 L1331.62 638.773 L1331.62 647.245 Q1332.64 646.898 1333.65 646.736 Q1334.67 646.551 1335.69 646.551 Q1341.48 646.551 1344.86 649.722 Q1348.24 652.893 1348.24 658.31 Q1348.24 663.889 1344.76 666.991 Q1341.29 670.069 1334.97 670.069 Q1332.8 670.069 1330.53 669.699 Q1328.28 669.329 1325.88 668.588 L1325.88 663.889 Q1327.96 665.023 1330.18 665.579 Q1332.4 666.134 1334.88 666.134 Q1338.89 666.134 1341.22 664.028 Q1343.56 661.921 1343.56 658.31 Q1343.56 654.699 1341.22 652.593 Q1338.89 650.486 1334.88 650.486 Q1333.01 650.486 1331.13 650.903 Q1329.28 651.319 1327.33 652.199 L1327.33 634.838 Z" fill="#000000" fill-rule="nonzero" fill-opacity="1" /><path clip-path="url(#clip860)" d="M1367.45 637.917 Q1363.84 637.917 1362.01 641.482 Q1360.2 645.023 1360.2 652.153 Q1360.2 659.259 1362.01 662.824 Q1363.84 666.366 1367.45 666.366 Q1371.08 666.366 1372.89 662.824 Q1374.72 659.259 1374.72 652.153 Q1374.72 645.023 1372.89 641.482 Q1371.08 637.917 1367.45 637.917 M1367.45 634.213 Q1373.26 634.213 1376.32 638.819 Q1379.39 643.403 1379.39 652.153 Q1379.39 660.88 1376.32 665.486 Q1373.26 670.069 1367.45 670.069 Q1361.64 670.069 1358.56 665.486 Q1355.51 660.88 1355.51 652.153 Q1355.51 643.403 1358.56 638.819 Q1361.64 634.213 1367.45 634.213 Z" fill="#000000" fill-rule="nonzero" fill-opacity="1" /><path clip-path="url(#clip860)" d="M1253.7 471.844 L1261.34 471.844 L1261.34 445.478 L1253.03 447.145 L1253.03 442.886 L1261.29 441.219 L1265.97 441.219 L1265.97 471.844 L1273.61 471.844 L1273.61 475.779 L1253.7 475.779 L1253.7 471.844 Z" fill="#000000" fill-rule="nonzero" fill-opacity="1" /><path clip-path="url(#clip860)" d="M1283.05 469.899 L1287.94 469.899 L1287.94 475.779 L1283.05 475.779 L1283.05 469.899 Z" fill="#000000" fill-rule="nonzero" fill-opacity="1" /><path clip-path="url(#clip860)" d="M1308.12 444.298 Q1304.51 444.298 1302.68 447.863 Q1300.88 451.404 1300.88 458.534 Q1300.88 465.64 1302.68 469.205 Q1304.51 472.747 1308.12 472.747 Q1311.76 472.747 1313.56 469.205 Q1315.39 465.64 1315.39 458.534 Q1315.39 451.404 1313.56 447.863 Q1311.76 444.298 1308.12 444.298 M1308.12 440.594 Q1313.93 440.594 1316.99 445.201 Q1320.07 449.784 1320.07 458.534 Q1320.07 467.261 1316.99 471.867 Q1313.93 476.45 1308.12 476.45 Q1302.31 476.45 1299.23 471.867 Q1296.18 467.261 1296.18 458.534 Q1296.18 449.784 1299.23 445.201 Q1302.31 440.594 1308.12 440.594 Z" fill="#000000" fill-rule="nonzero" fill-opacity="1" /><path clip-path="url(#clip860)" d="M1327.1 441.219 L1349.32 441.219 L1349.32 443.21 L1336.78 475.779 L1331.89 475.779 L1343.7 445.154 L1327.1 445.154 L1327.1 441.219 Z" fill="#000000" fill-rule="nonzero" fill-opacity="1" /><path clip-path="url(#clip860)" d="M1358.49 441.219 L1376.85 441.219 L1376.85 445.154 L1362.77 445.154 L1362.77 453.626 Q1363.79 453.279 1364.81 453.117 Q1365.83 452.932 1366.85 452.932 Q1372.63 452.932 1376.01 456.103 Q1379.39 459.275 1379.39 464.691 Q1379.39 470.27 1375.92 473.372 Q1372.45 476.45 1366.13 476.45 Q1363.95 476.45 1361.69 476.08 Q1359.44 475.71 1357.03 474.969 L1357.03 470.27 Q1359.12 471.404 1361.34 471.96 Q1363.56 472.515 1366.04 472.515 Q1370.04 472.515 1372.38 470.409 Q1374.72 468.302 1374.72 464.691 Q1374.72 461.08 1372.38 458.974 Q1370.04 456.867 1366.04 456.867 Q1364.16 456.867 1362.29 457.284 Q1360.44 457.7 1358.49 458.58 L1358.49 441.219 Z" fill="#000000" fill-rule="nonzero" fill-opacity="1" /><path clip-path="url(#clip860)" d="M1252.71 278.225 L1260.34 278.225 L1260.34 251.859 L1252.03 253.526 L1252.03 249.267 L1260.3 247.6 L1264.97 247.6 L1264.97 278.225 L1272.61 278.225 L1272.61 282.16 L1252.71 282.16 L1252.71 278.225 Z" fill="#000000" fill-rule="nonzero" fill-opacity="1" /><path clip-path="url(#clip860)" d="M1282.06 276.281 L1286.94 276.281 L1286.94 282.16 L1282.06 282.16 L1282.06 276.281 Z" fill="#000000" fill-rule="nonzero" fill-opacity="1" /><path clip-path="url(#clip860)" d="M1297.94 278.225 L1305.58 278.225 L1305.58 251.859 L1297.27 253.526 L1297.27 249.267 L1305.53 247.6 L1310.2 247.6 L1310.2 278.225 L1317.84 278.225 L1317.84 282.16 L1297.94 282.16 L1297.94 278.225 Z" fill="#000000" fill-rule="nonzero" fill-opacity="1" /><path clip-path="url(#clip860)" d="M1337.29 250.679 Q1333.68 250.679 1331.85 254.244 Q1330.04 257.785 1330.04 264.915 Q1330.04 272.021 1331.85 275.586 Q1333.68 279.128 1337.29 279.128 Q1340.92 279.128 1342.73 275.586 Q1344.56 272.021 1344.56 264.915 Q1344.56 257.785 1342.73 254.244 Q1340.92 250.679 1337.29 250.679 M1337.29 246.975 Q1343.1 246.975 1346.15 251.582 Q1349.23 256.165 1349.23 264.915 Q1349.23 273.642 1346.15 278.248 Q1343.1 282.831 1337.29 282.831 Q1331.48 282.831 1328.4 278.248 Q1325.34 273.642 1325.34 264.915 Q1325.34 256.165 1328.4 251.582 Q1331.48 246.975 1337.29 246.975 Z" fill="#000000" fill-rule="nonzero" fill-opacity="1" /><path clip-path="url(#clip860)" d="M1367.45 250.679 Q1363.84 250.679 1362.01 254.244 Q1360.2 257.785 1360.2 264.915 Q1360.2 272.021 1362.01 275.586 Q1363.84 279.128 1367.45 279.128 Q1371.08 279.128 1372.89 275.586 Q1374.72 272.021 1374.72 264.915 Q1374.72 257.785 1372.89 254.244 Q1371.08 250.679 1367.45 250.679 M1367.45 246.975 Q1373.26 246.975 1376.32 251.582 Q1379.39 256.165 1379.39 264.915 Q1379.39 273.642 1376.32 278.248 Q1373.26 282.831 1367.45 282.831 Q1361.64 282.831 1358.56 278.248 Q1355.51 273.642 1355.51 264.915 Q1355.51 256.165 1358.56 251.582 Q1361.64 246.975 1367.45 246.975 Z" fill="#000000" fill-rule="nonzero" fill-opacity="1" /><path clip-path="url(#clip860)" d="M1743.36 31.7342 Q1743.36 26.5259 1741.2 23.6613 Q1739.06 20.7968 1735.18 20.7968 Q1731.33 20.7968 1729.17 23.6613 Q1727.03 26.5259 1727.03 31.7342 Q1727.03 36.9165 1729.17 39.781 Q1731.33 42.6456 1735.18 42.6456 Q1739.06 42.6456 1741.2 39.781 Q1743.36 36.9165 1743.36 31.7342 M1748.15 43.0362 Q1748.15 50.4841 1744.84 54.1039 Q1741.54 57.7497 1734.71 57.7497 Q1732.19 57.7497 1729.95 57.3591 Q1727.71 56.9945 1725.6 56.2132 L1725.6 51.5518 Q1727.71 52.6976 1729.77 53.2445 Q1731.82 53.7914 1733.96 53.7914 Q1738.67 53.7914 1741.02 51.3174 Q1743.36 48.8695 1743.36 43.8956 L1743.36 41.5258 Q1741.88 44.1039 1739.56 45.38 Q1737.24 46.656 1734.01 46.656 Q1728.65 46.656 1725.36 42.5675 Q1722.08 38.479 1722.08 31.7342 Q1722.08 24.9634 1725.36 20.8749 Q1728.65 16.7864 1734.01 16.7864 Q1737.24 16.7864 1739.56 18.0624 Q1741.88 19.3384 1743.36 21.9165 L1743.36 17.4895 L1748.15 17.4895 L1748.15 43.0362 Z" fill="#000000" fill-rule="nonzero" fill-opacity="1" /><path clip-path="url(#clip860)" d="M1777.21 21.9165 L1777.21 6.13538 L1782.01 6.13538 L1782.01 46.656 L1777.21 46.656 L1777.21 42.281 Q1775.7 44.8852 1773.39 46.1612 Q1771.09 47.4112 1767.86 47.4112 Q1762.58 47.4112 1759.25 43.1925 Q1755.94 38.9737 1755.94 32.0988 Q1755.94 25.2238 1759.25 21.0051 Q1762.58 16.7864 1767.86 16.7864 Q1771.09 16.7864 1773.39 18.0624 Q1775.7 19.3124 1777.21 21.9165 M1760.89 32.0988 Q1760.89 37.3852 1763.05 40.406 Q1765.23 43.4008 1769.04 43.4008 Q1772.84 43.4008 1775.03 40.406 Q1777.21 37.3852 1777.21 32.0988 Q1777.21 26.8124 1775.03 23.8176 Q1772.84 20.7968 1769.04 20.7968 Q1765.23 20.7968 1763.05 23.8176 Q1760.89 26.8124 1760.89 32.0988 Z" fill="#000000" fill-rule="nonzero" fill-opacity="1" /><path clip-path="url(#clip860)" d="M1796.51 42.281 L1796.51 57.7497 L1791.69 57.7497 L1791.69 17.4895 L1796.51 17.4895 L1796.51 21.9165 Q1798.02 19.3124 1800.31 18.0624 Q1802.63 16.7864 1805.83 16.7864 Q1811.15 16.7864 1814.45 21.0051 Q1817.79 25.2238 1817.79 32.0988 Q1817.79 38.9737 1814.45 43.1925 Q1811.15 47.4112 1805.83 47.4112 Q1802.63 47.4112 1800.31 46.1612 Q1798.02 44.8852 1796.51 42.281 M1812.81 32.0988 Q1812.81 26.8124 1810.62 23.8176 Q1808.46 20.7968 1804.66 20.7968 Q1800.86 20.7968 1798.67 23.8176 Q1796.51 26.8124 1796.51 32.0988 Q1796.51 37.3852 1798.67 40.406 Q1800.86 43.4008 1804.66 43.4008 Q1808.46 43.4008 1810.62 40.406 Q1812.81 37.3852 1812.81 32.0988 Z" fill="#000000" fill-rule="nonzero" fill-opacity="1" /><path clip-path="url(#clip860)" d="M1861.87 21.9165 L1861.87 6.13538 L1866.67 6.13538 L1866.67 46.656 L1861.87 46.656 L1861.87 42.281 Q1860.36 44.8852 1858.05 46.1612 Q1855.75 47.4112 1852.53 47.4112 Q1847.24 47.4112 1843.91 43.1925 Q1840.6 38.9737 1840.6 32.0988 Q1840.6 25.2238 1843.91 21.0051 Q1847.24 16.7864 1852.53 16.7864 Q1855.75 16.7864 1858.05 18.0624 Q1860.36 19.3124 1861.87 21.9165 M1845.55 32.0988 Q1845.55 37.3852 1847.71 40.406 Q1849.9 43.4008 1853.7 43.4008 Q1857.5 43.4008 1859.69 40.406 Q1861.87 37.3852 1861.87 32.0988 Q1861.87 26.8124 1859.69 23.8176 Q1857.5 20.7968 1853.7 20.7968 Q1849.9 20.7968 1847.71 23.8176 Q1845.55 26.8124 1845.55 32.0988 Z" fill="#000000" fill-rule="nonzero" fill-opacity="1" /><path clip-path="url(#clip860)" d="M1901.48 30.8748 L1901.48 33.2186 L1879.45 33.2186 Q1879.77 38.1665 1882.42 40.7706 Q1885.1 43.3487 1889.87 43.3487 Q1892.63 43.3487 1895.21 42.6716 Q1897.81 41.9946 1900.36 40.6404 L1900.36 45.1716 Q1897.79 46.2654 1895.08 46.8383 Q1892.37 47.4112 1889.58 47.4112 Q1882.6 47.4112 1878.52 43.3487 Q1874.45 39.2862 1874.45 32.3592 Q1874.45 25.1978 1878.31 21.0051 Q1882.19 16.7864 1888.75 16.7864 Q1894.63 16.7864 1898.05 20.5884 Q1901.48 24.3645 1901.48 30.8748 M1896.69 29.4686 Q1896.64 25.5363 1894.48 23.1926 Q1892.34 20.8488 1888.8 20.8488 Q1884.79 20.8488 1882.37 23.1145 Q1879.97 25.3801 1879.61 29.4946 L1896.69 29.4686 Z" fill="#000000" fill-rule="nonzero" fill-opacity="1" /><path clip-path="url(#clip860)" d="M1924.11 6.13538 L1924.11 10.1197 L1919.53 10.1197 Q1916.95 10.1197 1915.94 11.1614 Q1914.95 12.2031 1914.95 14.9114 L1914.95 17.4895 L1922.84 17.4895 L1922.84 21.2134 L1914.95 21.2134 L1914.95 46.656 L1910.13 46.656 L1910.13 21.2134 L1905.55 21.2134 L1905.55 17.4895 L1910.13 17.4895 L1910.13 15.4583 Q1910.13 10.5885 1912.4 8.37496 Q1914.66 6.13538 1919.58 6.13538 L1924.11 6.13538 Z" fill="#000000" fill-rule="nonzero" fill-opacity="1" /><path clip-path="url(#clip860)" d="M1928.12 6.13538 L1932.92 6.13538 L1932.92 46.656 L1928.12 46.656 L1928.12 6.13538 Z" fill="#000000" fill-rule="nonzero" fill-opacity="1" /><path clip-path="url(#clip860)" d="M1956.2 31.9946 Q1950.39 31.9946 1948.15 33.3227 Q1945.91 34.6509 1945.91 37.854 Q1945.91 40.406 1947.58 41.9164 Q1949.27 43.4008 1952.16 43.4008 Q1956.14 43.4008 1958.54 40.5883 Q1960.96 37.7498 1960.96 33.0623 L1960.96 31.9946 L1956.2 31.9946 M1965.75 30.0155 L1965.75 46.656 L1960.96 46.656 L1960.96 42.2289 Q1959.32 44.8852 1956.87 46.1612 Q1954.43 47.4112 1950.88 47.4112 Q1946.41 47.4112 1943.75 44.9112 Q1941.12 42.3852 1941.12 38.1665 Q1941.12 33.2446 1944.4 30.7446 Q1947.71 28.2446 1954.24 28.2446 L1960.96 28.2446 L1960.96 27.7759 Q1960.96 24.4686 1958.78 22.6718 Q1956.61 20.8488 1952.68 20.8488 Q1950.18 20.8488 1947.81 21.4478 Q1945.44 22.0468 1943.25 23.2447 L1943.25 18.8176 Q1945.88 17.802 1948.36 17.3072 Q1950.83 16.7864 1953.18 16.7864 Q1959.5 16.7864 1962.63 20.0676 Q1965.75 23.3488 1965.75 30.0155 Z" fill="#000000" fill-rule="nonzero" fill-opacity="1" /><path clip-path="url(#clip860)" d="M1980.36 9.20828 L1980.36 17.4895 L1990.23 17.4895 L1990.23 21.2134 L1980.36 21.2134 L1980.36 37.0467 Q1980.36 40.6144 1981.33 41.63 Q1982.32 42.6456 1985.31 42.6456 L1990.23 42.6456 L1990.23 46.656 L1985.31 46.656 Q1979.76 46.656 1977.66 44.5987 Q1975.55 42.5154 1975.55 37.0467 L1975.55 21.2134 L1972.03 21.2134 L1972.03 17.4895 L1975.55 17.4895 L1975.55 9.20828 L1980.36 9.20828 Z" fill="#000000" fill-rule="nonzero" fill-opacity="1" /><path clip-path="url(#clip860)" d="M2007.84 20.8488 Q2003.98 20.8488 2001.74 23.8697 Q1999.5 26.8644 1999.5 32.0988 Q1999.5 37.3331 2001.72 40.354 Q2003.96 43.3487 2007.84 43.3487 Q2011.67 43.3487 2013.91 40.3279 Q2016.14 37.3071 2016.14 32.0988 Q2016.14 26.9165 2013.91 23.8957 Q2011.67 20.8488 2007.84 20.8488 M2007.84 16.7864 Q2014.09 16.7864 2017.66 20.8488 Q2021.22 24.9113 2021.22 32.0988 Q2021.22 39.2602 2017.66 43.3487 Q2014.09 47.4112 2007.84 47.4112 Q2001.56 47.4112 1997.99 43.3487 Q1994.45 39.2602 1994.45 32.0988 Q1994.45 24.9113 1997.99 20.8488 Q2001.56 16.7864 2007.84 16.7864 Z" fill="#000000" fill-rule="nonzero" fill-opacity="1" /><path clip-path="url(#clip860)" d="M2046.07 21.9686 Q2045.26 21.4999 2044.3 21.2916 Q2043.36 21.0572 2042.21 21.0572 Q2038.15 21.0572 2035.96 23.7134 Q2033.8 26.3436 2033.8 31.2915 L2033.8 46.656 L2028.98 46.656 L2028.98 17.4895 L2033.8 17.4895 L2033.8 22.0207 Q2035.31 19.3645 2037.73 18.0884 Q2040.15 16.7864 2043.62 16.7864 Q2044.11 16.7864 2044.71 16.8645 Q2045.31 16.9166 2046.04 17.0468 L2046.07 21.9686 Z" fill="#000000" fill-rule="nonzero" fill-opacity="1" /><path clip-path="url(#clip863)" d="M1526.14 1070.59 L1568.25 1032.32 L1610.36 977.625 L1652.47 935.782 L1694.58 902.738 L1736.69 899.903 L1778.8 872.845 L1820.91 854.843 L1863.02 838.125 L1905.13 825.586 L1947.24 832.173 L1989.35 817.923 L2031.46 770.882 L2073.57 735.016 L2115.68 681.926 L2157.79 638.572 L2199.9 616.06 L2242.01 590.527 L2284.12 556.999 L2326.23 524.948 L2326.23 134.446 L2284.12 202.152 L2242.01 280.401 L2199.9 319.675 L2157.79 393.639 L2115.68 437.637 L2073.57 496.662 L2031.46 521.23 L1989.35 543.623 L1947.24 621.453 L1905.13 621.515 L1863.02 680.89 L1820.91 752.258 L1778.8 737.518 L1736.69 749.834 L1694.58 793.615 L1652.47 833.234 L1610.36 900.029 L1568.25 938.246 L1526.14 984.736  Z" fill="#009af9" fill-rule="evenodd" fill-opacity="0.1"/>
<polyline clip-path="url(#clip863)" style="stroke:#009af9; stroke-linecap:round; stroke-linejoin:round; stroke-width:4; stroke-opacity:1; fill:none" points="1526.14,1027.66 1568.25,985.282 1610.36,938.827 1652.47,884.508 1694.58,848.177 1736.69,824.869 1778.8,805.181 1820.91,803.551 1863.02,759.507 1905.13,723.551 1947.24,726.813 1989.35,680.773 2031.46,646.056 2073.57,615.839 2115.68,559.782 2157.79,516.105 2199.9,467.867 2242.01,435.464 2284.12,379.576 2326.23,329.697 "/>
<path clip-path="url(#clip863)" d="M1526.14 1024.35 L1568.25 1009.88 L1610.36 998.114 L1652.47 948.947 L1694.58 981.28 L1736.69 935.392 L1778.8 928.624 L1820.91 881.972 L1863.02 841.561 L1905.13 814.468 L1947.24 760.216 L1989.35 734.503 L2031.46 703.392 L2073.57 663.315 L2115.68 621.307 L2157.79 584.009 L2199.9 597.017 L2242.01 580.159 L2284.12 525.557 L2326.23 486.226 L2326.23 120.65 L2284.12 152.558 L2242.01 170.175 L2199.9 209.99 L2157.79 254.132 L2115.68 312.402 L2073.57 406.948 L2031.46 449.132 L1989.35 521.718 L1947.24 593.676 L1905.13 637.159 L1863.02 670.254 L1820.91 694.518 L1778.8 717.598 L1736.69 745.708 L1694.58 787.403 L1652.47 863.842 L1610.36 914.994 L1568.25 952.978 L1526.14 1004.9  Z" fill="#e26f46" fill-rule="evenodd" fill-opacity="0.1"/>
<polyline clip-path="url(#clip863)" style="stroke:#e26f46; stroke-linecap:round; stroke-linejoin:round; stroke-width:4; stroke-opacity:1; fill:none" points="1526.14,1014.63 1568.25,981.428 1610.36,956.554 1652.47,906.395 1694.58,884.342 1736.69,840.55 1778.8,823.111 1820.91,788.245 1863.02,755.907 1905.13,725.814 1947.24,676.946 1989.35,628.11 2031.46,576.262 2073.57,535.131 2115.68,466.854 2157.79,419.071 2199.9,403.504 2242.01,375.167 2284.12,339.058 2326.23,303.438 "/>
</svg>
