<?xml version="1.0" encoding="utf-8"?>
<svg xmlns="http://www.w3.org/2000/svg" xmlns:xlink="http://www.w3.org/1999/xlink" width="600" height="400" viewBox="0 0 2400 1600">
<defs>
  <clipPath id="clip030">
    <rect x="0" y="0" width="2400" height="1600"/>
  </clipPath>
</defs>
<path clip-path="url(#clip030)" d="M0 1600 L2400 1600 L2400 0 L0 0  Z" fill="#ffffff" fill-rule="evenodd" fill-opacity="1"/>
<defs>
  <clipPath id="clip031">
    <rect x="480" y="0" width="1681" height="1600"/>
  </clipPath>
</defs>
<path clip-path="url(#clip030)" d="M230.765 1486.45 L2352.76 1486.45 L2352.76 106.192 L230.765 106.192  Z" fill="#ffffff" fill-rule="evenodd" fill-opacity="1"/>
<defs>
  <clipPath id="clip032">
    <rect x="230" y="106" width="2123" height="1381"/>
  </clipPath>
</defs>
<polyline clip-path="url(#clip032)" style="stroke:#000000; stroke-linecap:round; stroke-linejoin:round; stroke-width:2; stroke-opacity:0.1; fill:none" points="541.056,1486.45 541.056,106.192 "/>
<polyline clip-path="url(#clip032)" style="stroke:#000000; stroke-linecap:round; stroke-linejoin:round; stroke-width:2; stroke-opacity:0.1; fill:none" points="916.408,1486.45 916.408,106.192 "/>
<polyline clip-path="url(#clip032)" style="stroke:#000000; stroke-linecap:round; stroke-linejoin:round; stroke-width:2; stroke-opacity:0.1; fill:none" points="1291.76,1486.45 1291.76,106.192 "/>
<polyline clip-path="url(#clip032)" style="stroke:#000000; stroke-linecap:round; stroke-linejoin:round; stroke-width:2; stroke-opacity:0.1; fill:none" points="1667.11,1486.45 1667.11,106.192 "/>
<polyline clip-path="url(#clip032)" style="stroke:#000000; stroke-linecap:round; stroke-linejoin:round; stroke-width:2; stroke-opacity:0.1; fill:none" points="2042.46,1486.45 2042.46,106.192 "/>
<polyline clip-path="url(#clip032)" style="stroke:#000000; stroke-linecap:round; stroke-linejoin:round; stroke-width:2; stroke-opacity:0.1; fill:none" points="230.765,1250.33 2352.76,1250.33 "/>
<polyline clip-path="url(#clip032)" style="stroke:#000000; stroke-linecap:round; stroke-linejoin:round; stroke-width:2; stroke-opacity:0.1; fill:none" points="230.765,909.408 2352.76,909.408 "/>
<polyline clip-path="url(#clip032)" style="stroke:#000000; stroke-linecap:round; stroke-linejoin:round; stroke-width:2; stroke-opacity:0.1; fill:none" points="230.765,568.485 2352.76,568.485 "/>
<polyline clip-path="url(#clip032)" style="stroke:#000000; stroke-linecap:round; stroke-linejoin:round; stroke-width:2; stroke-opacity:0.1; fill:none" points="230.765,227.562 2352.76,227.562 "/>
<polyline clip-path="url(#clip030)" style="stroke:#000000; stroke-linecap:round; stroke-linejoin:round; stroke-width:4; stroke-opacity:1; fill:none" points="230.765,1486.45 2352.76,1486.45 "/>
<polyline clip-path="url(#clip030)" style="stroke:#000000; stroke-linecap:round; stroke-linejoin:round; stroke-width:4; stroke-opacity:1; fill:none" points="541.056,1486.45 541.056,1467.55 "/>
<polyline clip-path="url(#clip030)" style="stroke:#000000; stroke-linecap:round; stroke-linejoin:round; stroke-width:4; stroke-opacity:1; fill:none" points="916.408,1486.45 916.408,1467.55 "/>
<polyline clip-path="url(#clip030)" style="stroke:#000000; stroke-linecap:round; stroke-linejoin:round; stroke-width:4; stroke-opacity:1; fill:none" points="1291.76,1486.45 1291.76,1467.55 "/>
<polyline clip-path="url(#clip030)" style="stroke:#000000; stroke-linecap:round; stroke-linejoin:round; stroke-width:4; stroke-opacity:1; fill:none" points="1667.11,1486.45 1667.11,1467.55 "/>
<polyline clip-path="url(#clip030)" style="stroke:#000000; stroke-linecap:round; stroke-linejoin:round; stroke-width:4; stroke-opacity:1; fill:none" points="2042.46,1486.45 2042.46,1467.55 "/>
<path clip-path="url(#clip030)" d="M545.303 1530.21 Q548.66 1530.93 550.535 1533.2 Q552.433 1535.47 552.433 1538.8 Q552.433 1543.92 548.914 1546.72 Q545.396 1549.52 538.915 1549.52 Q536.739 1549.52 534.424 1549.08 Q532.132 1548.66 529.678 1547.81 L529.678 1543.29 Q531.623 1544.43 533.938 1545.01 Q536.252 1545.58 538.776 1545.58 Q543.174 1545.58 545.465 1543.85 Q547.78 1542.11 547.78 1538.8 Q547.78 1535.75 545.627 1534.03 Q543.498 1532.3 539.678 1532.3 L535.651 1532.3 L535.651 1528.45 L539.864 1528.45 Q543.313 1528.45 545.141 1527.09 Q546.97 1525.7 546.97 1523.11 Q546.97 1520.45 545.072 1519.03 Q543.197 1517.6 539.678 1517.6 Q537.757 1517.6 535.558 1518.01 Q533.359 1518.43 530.72 1519.31 L530.72 1515.14 Q533.382 1514.4 535.697 1514.03 Q538.035 1513.66 540.095 1513.66 Q545.419 1513.66 548.521 1516.09 Q551.623 1518.5 551.623 1522.62 Q551.623 1525.49 549.979 1527.48 Q548.336 1529.45 545.303 1530.21 Z" fill="#000000" fill-rule="nonzero" fill-opacity="1" /><path clip-path="url(#clip030)" d="M916.813 1529.7 Q913.665 1529.7 911.813 1531.86 Q909.984 1534.01 909.984 1537.76 Q909.984 1541.49 911.813 1543.66 Q913.665 1545.82 916.813 1545.82 Q919.961 1545.82 921.79 1543.66 Q923.642 1541.49 923.642 1537.76 Q923.642 1534.01 921.79 1531.86 Q919.961 1529.7 916.813 1529.7 M926.095 1515.05 L926.095 1519.31 Q924.336 1518.48 922.531 1518.04 Q920.748 1517.6 918.989 1517.6 Q914.359 1517.6 911.906 1520.72 Q909.475 1523.85 909.128 1530.17 Q910.494 1528.15 912.554 1527.09 Q914.614 1526 917.091 1526 Q922.299 1526 925.308 1529.17 Q928.341 1532.32 928.341 1537.76 Q928.341 1543.08 925.193 1546.3 Q922.044 1549.52 916.813 1549.52 Q910.818 1549.52 907.646 1544.94 Q904.475 1540.33 904.475 1531.6 Q904.475 1523.41 908.364 1518.55 Q912.253 1513.66 918.804 1513.66 Q920.563 1513.66 922.345 1514.01 Q924.151 1514.36 926.095 1515.05 Z" fill="#000000" fill-rule="nonzero" fill-opacity="1" /><path clip-path="url(#clip030)" d="M1282.06 1548.13 L1282.06 1543.87 Q1283.82 1544.7 1285.63 1545.14 Q1287.43 1545.58 1289.17 1545.58 Q1293.8 1545.58 1296.23 1542.48 Q1298.68 1539.36 1299.03 1533.01 Q1297.69 1535.01 1295.63 1536.07 Q1293.57 1537.13 1291.07 1537.13 Q1285.88 1537.13 1282.85 1534.01 Q1279.84 1530.86 1279.84 1525.42 Q1279.84 1520.1 1282.99 1516.88 Q1286.14 1513.66 1291.37 1513.66 Q1297.36 1513.66 1300.51 1518.27 Q1303.68 1522.85 1303.68 1531.6 Q1303.68 1539.77 1299.79 1544.66 Q1295.93 1549.52 1289.38 1549.52 Q1287.62 1549.52 1285.81 1549.17 Q1284.01 1548.82 1282.06 1548.13 M1291.37 1533.48 Q1294.51 1533.48 1296.34 1531.32 Q1298.2 1529.17 1298.2 1525.42 Q1298.2 1521.7 1296.34 1519.54 Q1294.51 1517.37 1291.37 1517.37 Q1288.22 1517.37 1286.37 1519.54 Q1284.54 1521.7 1284.54 1525.42 Q1284.54 1529.17 1286.37 1531.32 Q1288.22 1533.48 1291.37 1533.48 Z" fill="#000000" fill-rule="nonzero" fill-opacity="1" /><path clip-path="url(#clip030)" d="M1642.6 1544.91 L1650.24 1544.91 L1650.24 1518.55 L1641.93 1520.21 L1641.93 1515.95 L1650.19 1514.29 L1654.87 1514.29 L1654.87 1544.91 L1662.51 1544.91 L1662.51 1548.85 L1642.6 1548.85 L1642.6 1544.91 Z" fill="#000000" fill-rule="nonzero" fill-opacity="1" /><path clip-path="url(#clip030)" d="M1675.98 1544.91 L1692.3 1544.91 L1692.3 1548.85 L1670.35 1548.85 L1670.35 1544.91 Q1673.02 1542.16 1677.6 1537.53 Q1682.2 1532.88 1683.39 1531.53 Q1685.63 1529.01 1686.51 1527.27 Q1687.41 1525.51 1687.41 1523.82 Q1687.41 1521.07 1685.47 1519.33 Q1683.55 1517.6 1680.45 1517.6 Q1678.25 1517.6 1675.79 1518.36 Q1673.36 1519.13 1670.58 1520.68 L1670.58 1515.95 Q1673.41 1514.82 1675.86 1514.24 Q1678.32 1513.66 1680.35 1513.66 Q1685.72 1513.66 1688.92 1516.35 Q1692.11 1519.03 1692.11 1523.52 Q1692.11 1525.65 1691.3 1527.57 Q1690.52 1529.47 1688.41 1532.07 Q1687.83 1532.74 1684.73 1535.95 Q1681.63 1539.15 1675.98 1544.91 Z" fill="#000000" fill-rule="nonzero" fill-opacity="1" /><path clip-path="url(#clip030)" d="M2017.65 1544.91 L2025.29 1544.91 L2025.29 1518.55 L2016.98 1520.21 L2016.98 1515.95 L2025.24 1514.29 L2029.92 1514.29 L2029.92 1544.91 L2037.56 1544.91 L2037.56 1548.85 L2017.65 1548.85 L2017.65 1544.91 Z" fill="#000000" fill-rule="nonzero" fill-opacity="1" /><path clip-path="url(#clip030)" d="M2047.05 1514.29 L2065.4 1514.29 L2065.4 1518.22 L2051.33 1518.22 L2051.33 1526.7 Q2052.35 1526.35 2053.37 1526.19 Q2054.39 1526 2055.4 1526 Q2061.19 1526 2064.57 1529.17 Q2067.95 1532.34 2067.95 1537.76 Q2067.95 1543.34 2064.48 1546.44 Q2061.01 1549.52 2054.69 1549.52 Q2052.51 1549.52 2050.24 1549.15 Q2048 1548.78 2045.59 1548.04 L2045.59 1543.34 Q2047.67 1544.47 2049.9 1545.03 Q2052.12 1545.58 2054.59 1545.58 Q2058.6 1545.58 2060.94 1543.48 Q2063.27 1541.37 2063.27 1537.76 Q2063.27 1534.15 2060.94 1532.04 Q2058.6 1529.94 2054.59 1529.94 Q2052.72 1529.94 2050.84 1530.35 Q2048.99 1530.77 2047.05 1531.65 L2047.05 1514.29 Z" fill="#000000" fill-rule="nonzero" fill-opacity="1" /><polyline clip-path="url(#clip030)" style="stroke:#000000; stroke-linecap:round; stroke-linejoin:round; stroke-width:4; stroke-opacity:1; fill:none" points="230.765,1486.45 230.765,106.192 "/>
<polyline clip-path="url(#clip030)" style="stroke:#000000; stroke-linecap:round; stroke-linejoin:round; stroke-width:4; stroke-opacity:1; fill:none" points="230.765,1250.33 249.662,1250.33 "/>
<polyline clip-path="url(#clip030)" style="stroke:#000000; stroke-linecap:round; stroke-linejoin:round; stroke-width:4; stroke-opacity:1; fill:none" points="230.765,909.408 249.662,909.408 "/>
<polyline clip-path="url(#clip030)" style="stroke:#000000; stroke-linecap:round; stroke-linejoin:round; stroke-width:4; stroke-opacity:1; fill:none" points="230.765,568.485 249.662,568.485 "/>
<polyline clip-path="url(#clip030)" style="stroke:#000000; stroke-linecap:round; stroke-linejoin:round; stroke-width:4; stroke-opacity:1; fill:none" points="230.765,227.562 249.662,227.562 "/>
<path clip-path="url(#clip030)" d="M50.9921 1233.05 L73.2142 1233.05 L73.2142 1235.04 L60.668 1267.61 L55.7838 1267.61 L67.5893 1236.99 L50.9921 1236.99 L50.9921 1233.05 Z" fill="#000000" fill-rule="nonzero" fill-opacity="1" /><path clip-path="url(#clip030)" d="M96.5011 1248.98 Q99.8576 1249.69 101.733 1251.96 Q103.631 1254.23 103.631 1257.56 Q103.631 1262.68 100.112 1265.48 Q96.5937 1268.28 90.1123 1268.28 Q87.9364 1268.28 85.6216 1267.84 Q83.3299 1267.43 80.8762 1266.57 L80.8762 1262.06 Q82.8207 1263.19 85.1355 1263.77 Q87.4503 1264.35 89.9734 1264.35 Q94.3715 1264.35 96.6632 1262.61 Q98.978 1260.87 98.978 1257.56 Q98.978 1254.51 96.8252 1252.8 Q94.6956 1251.06 90.8762 1251.06 L86.8484 1251.06 L86.8484 1247.22 L91.0614 1247.22 Q94.5104 1247.22 96.3391 1245.85 Q98.1678 1244.46 98.1678 1241.87 Q98.1678 1239.21 96.2697 1237.8 Q94.3947 1236.36 90.8762 1236.36 Q88.9549 1236.36 86.7558 1236.78 Q84.5568 1237.19 81.9179 1238.07 L81.9179 1233.91 Q84.5799 1233.17 86.8947 1232.8 Q89.2327 1232.43 91.2928 1232.43 Q96.6169 1232.43 99.7187 1234.86 Q102.821 1237.26 102.821 1241.38 Q102.821 1244.25 101.177 1246.25 Q99.5335 1248.21 96.5011 1248.98 Z" fill="#000000" fill-rule="nonzero" fill-opacity="1" /><path clip-path="url(#clip030)" d="M122.496 1236.13 Q118.885 1236.13 117.057 1239.69 Q115.251 1243.24 115.251 1250.37 Q115.251 1257.47 117.057 1261.04 Q118.885 1264.58 122.496 1264.58 Q126.131 1264.58 127.936 1261.04 Q129.765 1257.47 129.765 1250.37 Q129.765 1243.24 127.936 1239.69 Q126.131 1236.13 122.496 1236.13 M122.496 1232.43 Q128.307 1232.43 131.362 1237.03 Q134.441 1241.62 134.441 1250.37 Q134.441 1259.09 131.362 1263.7 Q128.307 1268.28 122.496 1268.28 Q116.686 1268.28 113.608 1263.7 Q110.552 1259.09 110.552 1250.37 Q110.552 1241.62 113.608 1237.03 Q116.686 1232.43 122.496 1232.43 Z" fill="#000000" fill-rule="nonzero" fill-opacity="1" /><path clip-path="url(#clip030)" d="M152.658 1236.13 Q149.047 1236.13 147.218 1239.69 Q145.413 1243.24 145.413 1250.37 Q145.413 1257.47 147.218 1261.04 Q149.047 1264.58 152.658 1264.58 Q156.292 1264.58 158.098 1261.04 Q159.927 1257.47 159.927 1250.37 Q159.927 1243.24 158.098 1239.69 Q156.292 1236.13 152.658 1236.13 M152.658 1232.43 Q158.468 1232.43 161.524 1237.03 Q164.603 1241.62 164.603 1250.37 Q164.603 1259.09 161.524 1263.7 Q158.468 1268.28 152.658 1268.28 Q146.848 1268.28 143.769 1263.7 Q140.714 1259.09 140.714 1250.37 Q140.714 1241.62 143.769 1237.03 Q146.848 1232.43 152.658 1232.43 Z" fill="#000000" fill-rule="nonzero" fill-opacity="1" /><path clip-path="url(#clip030)" d="M182.82 1236.13 Q179.209 1236.13 177.38 1239.69 Q175.575 1243.24 175.575 1250.37 Q175.575 1257.47 177.38 1261.04 Q179.209 1264.58 182.82 1264.58 Q186.454 1264.58 188.26 1261.04 Q190.089 1257.47 190.089 1250.37 Q190.089 1243.24 188.26 1239.69 Q186.454 1236.13 182.82 1236.13 M182.82 1232.43 Q188.63 1232.43 191.686 1237.03 Q194.765 1241.62 194.765 1250.37 Q194.765 1259.09 191.686 1263.7 Q188.63 1268.28 182.82 1268.28 Q177.01 1268.28 173.931 1263.7 Q170.876 1259.09 170.876 1250.37 Q170.876 1241.62 173.931 1237.03 Q177.01 1232.43 182.82 1232.43 Z" fill="#000000" fill-rule="nonzero" fill-opacity="1" /><path clip-path="url(#clip030)" d="M50.9921 892.128 L73.2142 892.128 L73.2142 894.119 L60.668 926.688 L55.7838 926.688 L67.5893 896.063 L50.9921 896.063 L50.9921 892.128 Z" fill="#000000" fill-rule="nonzero" fill-opacity="1" /><path clip-path="url(#clip030)" d="M95.1817 896.202 L83.3762 914.651 L95.1817 914.651 L95.1817 896.202 M93.9549 892.128 L99.8345 892.128 L99.8345 914.651 L104.765 914.651 L104.765 918.54 L99.8345 918.54 L99.8345 926.688 L95.1817 926.688 L95.1817 918.54 L79.5799 918.54 L79.5799 914.026 L93.9549 892.128 Z" fill="#000000" fill-rule="nonzero" fill-opacity="1" /><path clip-path="url(#clip030)" d="M122.496 895.207 Q118.885 895.207 117.057 898.771 Q115.251 902.313 115.251 909.443 Q115.251 916.549 117.057 920.114 Q118.885 923.656 122.496 923.656 Q126.131 923.656 127.936 920.114 Q129.765 916.549 129.765 909.443 Q129.765 902.313 127.936 898.771 Q126.131 895.207 122.496 895.207 M122.496 891.503 Q128.307 891.503 131.362 896.109 Q134.441 900.693 134.441 909.443 Q134.441 918.169 131.362 922.776 Q128.307 927.359 122.496 927.359 Q116.686 927.359 113.608 922.776 Q110.552 918.169 110.552 909.443 Q110.552 900.693 113.608 896.109 Q116.686 891.503 122.496 891.503 Z" fill="#000000" fill-rule="nonzero" fill-opacity="1" /><path clip-path="url(#clip030)" d="M152.658 895.207 Q149.047 895.207 147.218 898.771 Q145.413 902.313 145.413 909.443 Q145.413 916.549 147.218 920.114 Q149.047 923.656 152.658 923.656 Q156.292 923.656 158.098 920.114 Q159.927 916.549 159.927 909.443 Q159.927 902.313 158.098 898.771 Q156.292 895.207 152.658 895.207 M152.658 891.503 Q158.468 891.503 161.524 896.109 Q164.603 900.693 164.603 909.443 Q164.603 918.169 161.524 922.776 Q158.468 927.359 152.658 927.359 Q146.848 927.359 143.769 922.776 Q140.714 918.169 140.714 909.443 Q140.714 900.693 143.769 896.109 Q146.848 891.503 152.658 891.503 Z" fill="#000000" fill-rule="nonzero" fill-opacity="1" /><path clip-path="url(#clip030)" d="M182.82 895.207 Q179.209 895.207 177.38 898.771 Q175.575 902.313 175.575 909.443 Q175.575 916.549 177.38 920.114 Q179.209 923.656 182.82 923.656 Q186.454 923.656 188.26 920.114 Q190.089 916.549 190.089 909.443 Q190.089 902.313 188.26 898.771 Q186.454 895.207 182.82 895.207 M182.82 891.503 Q188.63 891.503 191.686 896.109 Q194.765 900.693 194.765 909.443 Q194.765 918.169 191.686 922.776 Q188.63 927.359 182.82 927.359 Q177.01 927.359 173.931 922.776 Q170.876 918.169 170.876 909.443 Q170.876 900.693 173.931 896.109 Q177.01 891.503 182.82 891.503 Z" fill="#000000" fill-rule="nonzero" fill-opacity="1" /><path clip-path="url(#clip030)" d="M50.9921 551.205 L73.2142 551.205 L73.2142 553.196 L60.668 585.765 L55.7838 585.765 L67.5893 555.14 L50.9921 555.14 L50.9921 551.205 Z" fill="#000000" fill-rule="nonzero" fill-opacity="1" /><path clip-path="url(#clip030)" d="M82.3808 551.205 L100.737 551.205 L100.737 555.14 L86.6632 555.14 L86.6632 563.612 Q87.6817 563.265 88.7003 563.103 Q89.7188 562.918 90.7373 562.918 Q96.5243 562.918 99.9039 566.089 Q103.284 569.261 103.284 574.677 Q103.284 580.256 99.8113 583.358 Q96.3391 586.436 90.0197 586.436 Q87.8438 586.436 85.5753 586.066 Q83.3299 585.696 80.9225 584.955 L80.9225 580.256 Q83.0058 581.39 85.2281 581.946 Q87.4503 582.501 89.9271 582.501 Q93.9317 582.501 96.2697 580.395 Q98.6076 578.288 98.6076 574.677 Q98.6076 571.066 96.2697 568.96 Q93.9317 566.853 89.9271 566.853 Q88.0521 566.853 86.1771 567.27 Q84.3253 567.687 82.3808 568.566 L82.3808 551.205 Z" fill="#000000" fill-rule="nonzero" fill-opacity="1" /><path clip-path="url(#clip030)" d="M122.496 554.284 Q118.885 554.284 117.057 557.849 Q115.251 561.39 115.251 568.52 Q115.251 575.626 117.057 579.191 Q118.885 582.733 122.496 582.733 Q126.131 582.733 127.936 579.191 Q129.765 575.626 129.765 568.52 Q129.765 561.39 127.936 557.849 Q126.131 554.284 122.496 554.284 M122.496 550.58 Q128.307 550.58 131.362 555.187 Q134.441 559.77 134.441 568.52 Q134.441 577.247 131.362 581.853 Q128.307 586.436 122.496 586.436 Q116.686 586.436 113.608 581.853 Q110.552 577.247 110.552 568.52 Q110.552 559.77 113.608 555.187 Q116.686 550.58 122.496 550.58 Z" fill="#000000" fill-rule="nonzero" fill-opacity="1" /><path clip-path="url(#clip030)" d="M152.658 554.284 Q149.047 554.284 147.218 557.849 Q145.413 561.39 145.413 568.52 Q145.413 575.626 147.218 579.191 Q149.047 582.733 152.658 582.733 Q156.292 582.733 158.098 579.191 Q159.927 575.626 159.927 568.52 Q159.927 561.39 158.098 557.849 Q156.292 554.284 152.658 554.284 M152.658 550.58 Q158.468 550.58 161.524 555.187 Q164.603 559.77 164.603 568.52 Q164.603 577.247 161.524 581.853 Q158.468 586.436 152.658 586.436 Q146.848 586.436 143.769 581.853 Q140.714 577.247 140.714 568.52 Q140.714 559.77 143.769 555.187 Q146.848 550.58 152.658 550.58 Z" fill="#000000" fill-rule="nonzero" fill-opacity="1" /><path clip-path="url(#clip030)" d="M182.82 554.284 Q179.209 554.284 177.38 557.849 Q175.575 561.39 175.575 568.52 Q175.575 575.626 177.38 579.191 Q179.209 582.733 182.82 582.733 Q186.454 582.733 188.26 579.191 Q190.089 575.626 190.089 568.52 Q190.089 561.39 188.26 557.849 Q186.454 554.284 182.82 554.284 M182.82 550.58 Q188.63 550.58 191.686 555.187 Q194.765 559.77 194.765 568.52 Q194.765 577.247 191.686 581.853 Q188.63 586.436 182.82 586.436 Q177.01 586.436 173.931 581.853 Q170.876 577.247 170.876 568.52 Q170.876 559.77 173.931 555.187 Q177.01 550.58 182.82 550.58 Z" fill="#000000" fill-rule="nonzero" fill-opacity="1" /><path clip-path="url(#clip030)" d="M50.9921 210.282 L73.2142 210.282 L73.2142 212.273 L60.668 244.842 L55.7838 244.842 L67.5893 214.218 L50.9921 214.218 L50.9921 210.282 Z" fill="#000000" fill-rule="nonzero" fill-opacity="1" /><path clip-path="url(#clip030)" d="M92.9132 225.699 Q89.7651 225.699 87.9132 227.852 Q86.0845 230.004 86.0845 233.754 Q86.0845 237.481 87.9132 239.657 Q89.7651 241.81 92.9132 241.81 Q96.0613 241.81 97.89 239.657 Q99.7419 237.481 99.7419 233.754 Q99.7419 230.004 97.89 227.852 Q96.0613 225.699 92.9132 225.699 M102.196 211.046 L102.196 215.305 Q100.436 214.472 98.6308 214.032 Q96.8484 213.593 95.0891 213.593 Q90.4595 213.593 88.0058 216.718 Q85.5753 219.843 85.2281 226.162 Q86.5938 224.148 88.654 223.083 Q90.7141 221.995 93.191 221.995 Q98.3993 221.995 101.409 225.167 Q104.441 228.315 104.441 233.754 Q104.441 239.079 101.293 242.296 Q98.1447 245.514 92.9132 245.514 Q86.9179 245.514 83.7466 240.93 Q80.5753 236.324 80.5753 227.597 Q80.5753 219.403 84.4642 214.542 Q88.353 209.657 94.9039 209.657 Q96.6632 209.657 98.4456 210.005 Q100.251 210.352 102.196 211.046 Z" fill="#000000" fill-rule="nonzero" fill-opacity="1" /><path clip-path="url(#clip030)" d="M122.496 213.361 Q118.885 213.361 117.057 216.926 Q115.251 220.468 115.251 227.597 Q115.251 234.704 117.057 238.268 Q118.885 241.81 122.496 241.81 Q126.131 241.81 127.936 238.268 Q129.765 234.704 129.765 227.597 Q129.765 220.468 127.936 216.926 Q126.131 213.361 122.496 213.361 M122.496 209.657 Q128.307 209.657 131.362 214.264 Q134.441 218.847 134.441 227.597 Q134.441 236.324 131.362 240.93 Q128.307 245.514 122.496 245.514 Q116.686 245.514 113.608 240.93 Q110.552 236.324 110.552 227.597 Q110.552 218.847 113.608 214.264 Q116.686 209.657 122.496 209.657 Z" fill="#000000" fill-rule="nonzero" fill-opacity="1" /><path clip-path="url(#clip030)" d="M152.658 213.361 Q149.047 213.361 147.218 216.926 Q145.413 220.468 145.413 227.597 Q145.413 234.704 147.218 238.268 Q149.047 241.81 152.658 241.81 Q156.292 241.81 158.098 238.268 Q159.927 234.704 159.927 227.597 Q159.927 220.468 158.098 216.926 Q156.292 213.361 152.658 213.361 M152.658 209.657 Q158.468 209.657 161.524 214.264 Q164.603 218.847 164.603 227.597 Q164.603 236.324 161.524 240.93 Q158.468 245.514 152.658 245.514 Q146.848 245.514 143.769 240.93 Q140.714 236.324 140.714 227.597 Q140.714 218.847 143.769 214.264 Q146.848 209.657 152.658 209.657 Z" fill="#000000" fill-rule="nonzero" fill-opacity="1" /><path clip-path="url(#clip030)" d="M182.82 213.361 Q179.209 213.361 177.38 216.926 Q175.575 220.468 175.575 227.597 Q175.575 234.704 177.38 238.268 Q179.209 241.81 182.82 241.81 Q186.454 241.81 188.26 238.268 Q190.089 234.704 190.089 227.597 Q190.089 220.468 188.26 216.926 Q186.454 213.361 182.82 213.361 M182.82 209.657 Q188.63 209.657 191.686 214.264 Q194.765 218.847 194.765 227.597 Q194.765 236.324 191.686 240.93 Q188.63 245.514 182.82 245.514 Q177.01 245.514 173.931 240.93 Q170.876 236.324 170.876 227.597 Q170.876 218.847 173.931 214.264 Q177.01 209.657 182.82 209.657 Z" fill="#000000" fill-rule="nonzero" fill-opacity="1" /><path clip-path="url(#clip030)" d="M1262.23 35.2602 Q1262.23 29.4732 1259.83 26.2904 Q1257.46 23.1075 1253.15 23.1075 Q1248.86 23.1075 1246.46 26.2904 Q1244.09 29.4732 1244.09 35.2602 Q1244.09 41.0183 1246.46 44.2012 Q1248.86 47.384 1253.15 47.384 Q1257.46 47.384 1259.83 44.2012 Q1262.23 41.0183 1262.23 35.2602 M1267.56 47.818 Q1267.56 56.0934 1263.88 60.1154 Q1260.21 64.1663 1252.63 64.1663 Q1249.82 64.1663 1247.33 63.7323 Q1244.84 63.3272 1242.5 62.4592 L1242.5 57.2798 Q1244.84 58.5529 1247.13 59.1606 Q1249.41 59.7682 1251.79 59.7682 Q1257.02 59.7682 1259.63 57.0194 Q1262.23 54.2995 1262.23 48.7729 L1262.23 46.1398 Q1260.58 49.0044 1258.01 50.4222 Q1255.43 51.84 1251.84 51.84 Q1245.88 51.84 1242.24 47.2972 Q1238.59 42.7544 1238.59 35.2602 Q1238.59 27.7371 1242.24 23.1943 Q1245.88 18.6515 1251.84 18.6515 Q1255.43 18.6515 1258.01 20.0693 Q1260.58 21.4872 1262.23 24.3517 L1262.23 19.4328 L1267.56 19.4328 L1267.56 47.818 Z" fill="#000000" fill-rule="nonzero" fill-opacity="1" /><path clip-path="url(#clip030)" d="M1299.85 24.3517 L1299.85 6.81709 L1305.17 6.81709 L1305.17 51.84 L1299.85 51.84 L1299.85 46.9789 Q1298.17 49.8724 1295.59 51.2902 Q1293.05 52.6791 1289.46 52.6791 Q1283.59 52.6791 1279.88 47.9916 Q1276.21 43.3042 1276.21 35.6653 Q1276.21 28.0265 1279.88 23.339 Q1283.59 18.6515 1289.46 18.6515 Q1293.05 18.6515 1295.59 20.0693 Q1298.17 21.4582 1299.85 24.3517 M1281.71 35.6653 Q1281.71 41.5391 1284.11 44.8956 Q1286.54 48.2231 1290.76 48.2231 Q1294.99 48.2231 1297.42 44.8956 Q1299.85 41.5391 1299.85 35.6653 Q1299.85 29.7915 1297.42 26.464 Q1294.99 23.1075 1290.76 23.1075 Q1286.54 23.1075 1284.11 26.464 Q1281.71 29.7915 1281.71 35.6653 Z" fill="#000000" fill-rule="nonzero" fill-opacity="1" /><path clip-path="url(#clip030)" d="M1321.29 46.9789 L1321.29 64.1663 L1315.94 64.1663 L1315.94 19.4328 L1321.29 19.4328 L1321.29 24.3517 Q1322.97 21.4582 1325.51 20.0693 Q1328.09 18.6515 1331.65 18.6515 Q1337.55 18.6515 1341.22 23.339 Q1344.93 28.0265 1344.93 35.6653 Q1344.93 43.3042 1341.22 47.9916 Q1337.55 52.6791 1331.65 52.6791 Q1328.09 52.6791 1325.51 51.2902 Q1322.97 49.8724 1321.29 46.9789 M1339.4 35.6653 Q1339.4 29.7915 1336.97 26.464 Q1334.57 23.1075 1330.35 23.1075 Q1326.12 23.1075 1323.69 26.464 Q1321.29 29.7915 1321.29 35.6653 Q1321.29 41.5391 1323.69 44.8956 Q1326.12 48.2231 1330.35 48.2231 Q1334.57 48.2231 1336.97 44.8956 Q1339.4 41.5391 1339.4 35.6653 Z" fill="#000000" fill-rule="nonzero" fill-opacity="1" /><polyline clip-path="url(#clip032)" style="stroke:#009af9; stroke-linecap:round; stroke-linejoin:round; stroke-width:4; stroke-opacity:1; fill:none" points="290.821,1447.38 415.938,1314.57 541.056,1284.56 666.173,1426.97 791.291,1089.48 916.408,966.488 1041.53,629.783 1166.64,811.143 1291.76,709.877 1416.88,710.891 1542,672.874 1667.11,828.931 1792.23,871.528 1917.35,860.152 2042.46,510.57 2167.58,360.318 2292.7,145.256 "/>
<path clip-path="url(#clip030)" d="M301.498 255.881 L566.127 255.881 L566.127 152.201 L301.498 152.201  Z" fill="#ffffff" fill-rule="evenodd" fill-opacity="1"/>
<polyline clip-path="url(#clip030)" style="stroke:#000000; stroke-linecap:round; stroke-linejoin:round; stroke-width:4; stroke-opacity:1; fill:none" points="301.498,255.881 566.127,255.881 566.127,152.201 301.498,152.201 301.498,255.881 "/>
<polyline clip-path="url(#clip030)" style="stroke:#009af9; stroke-linecap:round; stroke-linejoin:round; stroke-width:4; stroke-opacity:1; fill:none" points="325.075,204.041 466.541,204.041 "/>
<path clip-path="url(#clip030)" d="M503.962 223.728 Q502.156 228.358 500.443 229.77 Q498.73 231.182 495.86 231.182 L492.457 231.182 L492.457 227.617 L494.957 227.617 Q496.716 227.617 497.688 226.784 Q498.661 225.95 499.841 222.848 L500.605 220.904 L490.119 195.395 L494.633 195.395 L502.735 215.673 L510.836 195.395 L515.35 195.395 L503.962 223.728 Z" fill="#000000" fill-rule="nonzero" fill-opacity="1" /><path clip-path="url(#clip030)" d="M522.642 217.385 L530.281 217.385 L530.281 191.02 L521.971 192.687 L521.971 188.427 L530.235 186.761 L534.91 186.761 L534.91 217.385 L542.549 217.385 L542.549 221.321 L522.642 221.321 L522.642 217.385 Z" fill="#000000" fill-rule="nonzero" fill-opacity="1" /></svg>
