<?xml version="1.0" encoding="utf-8"?>
<svg xmlns="http://www.w3.org/2000/svg" xmlns:xlink="http://www.w3.org/1999/xlink" width="600" height="400" viewBox="0 0 2400 1600">
<defs>
  <clipPath id="clip020">
    <rect x="0" y="0" width="2400" height="1600"/>
  </clipPath>
</defs>
<path clip-path="url(#clip020)" d="M0 1600 L2400 1600 L2400 0 L0 0  Z" fill="#ffffff" fill-rule="evenodd" fill-opacity="1"/>
<defs>
  <clipPath id="clip021">
    <rect x="480" y="0" width="1681" height="1600"/>
  </clipPath>
</defs>
<path clip-path="url(#clip020)" d="M200.88 1486.45 L2352.76 1486.45 L2352.76 47.2441 L200.88 47.2441  Z" fill="#ffffff" fill-rule="evenodd" fill-opacity="1"/>
<defs>
  <clipPath id="clip022">
    <rect x="200" y="47" width="2153" height="1440"/>
  </clipPath>
</defs>
<polyline clip-path="url(#clip022)" style="stroke:#000000; stroke-linecap:round; stroke-linejoin:round; stroke-width:2; stroke-opacity:0.1; fill:none" points="667.797,1486.45 667.797,47.2441 "/>
<polyline clip-path="url(#clip022)" style="stroke:#000000; stroke-linecap:round; stroke-linejoin:round; stroke-width:2; stroke-opacity:0.1; fill:none" points="1175.31,1486.45 1175.31,47.2441 "/>
<polyline clip-path="url(#clip022)" style="stroke:#000000; stroke-linecap:round; stroke-linejoin:round; stroke-width:2; stroke-opacity:0.1; fill:none" points="1682.83,1486.45 1682.83,47.2441 "/>
<polyline clip-path="url(#clip022)" style="stroke:#000000; stroke-linecap:round; stroke-linejoin:round; stroke-width:2; stroke-opacity:0.1; fill:none" points="2190.35,1486.45 2190.35,47.2441 "/>
<polyline clip-path="url(#clip022)" style="stroke:#000000; stroke-linecap:round; stroke-linejoin:round; stroke-width:2; stroke-opacity:0.1; fill:none" points="200.88,1359.51 2352.76,1359.51 "/>
<polyline clip-path="url(#clip022)" style="stroke:#000000; stroke-linecap:round; stroke-linejoin:round; stroke-width:2; stroke-opacity:0.1; fill:none" points="200.88,1144 2352.76,1144 "/>
<polyline clip-path="url(#clip022)" style="stroke:#000000; stroke-linecap:round; stroke-linejoin:round; stroke-width:2; stroke-opacity:0.1; fill:none" points="200.88,928.482 2352.76,928.482 "/>
<polyline clip-path="url(#clip022)" style="stroke:#000000; stroke-linecap:round; stroke-linejoin:round; stroke-width:2; stroke-opacity:0.1; fill:none" points="200.88,712.967 2352.76,712.967 "/>
<polyline clip-path="url(#clip022)" style="stroke:#000000; stroke-linecap:round; stroke-linejoin:round; stroke-width:2; stroke-opacity:0.1; fill:none" points="200.88,497.453 2352.76,497.453 "/>
<polyline clip-path="url(#clip022)" style="stroke:#000000; stroke-linecap:round; stroke-linejoin:round; stroke-width:2; stroke-opacity:0.1; fill:none" points="200.88,281.939 2352.76,281.939 "/>
<polyline clip-path="url(#clip022)" style="stroke:#000000; stroke-linecap:round; stroke-linejoin:round; stroke-width:2; stroke-opacity:0.1; fill:none" points="200.88,66.4249 2352.76,66.4249 "/>
<polyline clip-path="url(#clip020)" style="stroke:#000000; stroke-linecap:round; stroke-linejoin:round; stroke-width:4; stroke-opacity:1; fill:none" points="200.88,1486.45 2352.76,1486.45 "/>
<polyline clip-path="url(#clip020)" style="stroke:#000000; stroke-linecap:round; stroke-linejoin:round; stroke-width:4; stroke-opacity:1; fill:none" points="667.797,1486.45 667.797,1467.55 "/>
<polyline clip-path="url(#clip020)" style="stroke:#000000; stroke-linecap:round; stroke-linejoin:round; stroke-width:4; stroke-opacity:1; fill:none" points="1175.31,1486.45 1175.31,1467.55 "/>
<polyline clip-path="url(#clip020)" style="stroke:#000000; stroke-linecap:round; stroke-linejoin:round; stroke-width:4; stroke-opacity:1; fill:none" points="1682.83,1486.45 1682.83,1467.55 "/>
<polyline clip-path="url(#clip020)" style="stroke:#000000; stroke-linecap:round; stroke-linejoin:round; stroke-width:4; stroke-opacity:1; fill:none" points="2190.35,1486.45 2190.35,1467.55 "/>
<path clip-path="url(#clip020)" d="M658.075 1514.29 L676.431 1514.29 L676.431 1518.22 L662.357 1518.22 L662.357 1526.7 Q663.376 1526.35 664.394 1526.19 Q665.413 1526 666.431 1526 Q672.218 1526 675.598 1529.17 Q678.977 1532.34 678.977 1537.76 Q678.977 1543.34 675.505 1546.44 Q672.033 1549.52 665.713 1549.52 Q663.538 1549.52 661.269 1549.15 Q659.024 1548.78 656.616 1548.04 L656.616 1543.34 Q658.7 1544.47 660.922 1545.03 Q663.144 1545.58 665.621 1545.58 Q669.625 1545.58 671.963 1543.48 Q674.301 1541.37 674.301 1537.76 Q674.301 1534.15 671.963 1532.04 Q669.625 1529.94 665.621 1529.94 Q663.746 1529.94 661.871 1530.35 Q660.019 1530.77 658.075 1531.65 L658.075 1514.29 Z" fill="#000000" fill-rule="nonzero" fill-opacity="1" /><path clip-path="url(#clip020)" d="M1150 1544.91 L1157.64 1544.91 L1157.64 1518.55 L1149.33 1520.21 L1149.33 1515.95 L1157.59 1514.29 L1162.27 1514.29 L1162.27 1544.91 L1169.91 1544.91 L1169.91 1548.85 L1150 1548.85 L1150 1544.91 Z" fill="#000000" fill-rule="nonzero" fill-opacity="1" /><path clip-path="url(#clip020)" d="M1189.35 1517.37 Q1185.74 1517.37 1183.91 1520.93 Q1182.11 1524.47 1182.11 1531.6 Q1182.11 1538.71 1183.91 1542.27 Q1185.74 1545.82 1189.35 1545.82 Q1192.99 1545.82 1194.79 1542.27 Q1196.62 1538.71 1196.62 1531.6 Q1196.62 1524.47 1194.79 1520.93 Q1192.99 1517.37 1189.35 1517.37 M1189.35 1513.66 Q1195.16 1513.66 1198.22 1518.27 Q1201.3 1522.85 1201.3 1531.6 Q1201.3 1540.33 1198.22 1544.94 Q1195.16 1549.52 1189.35 1549.52 Q1183.54 1549.52 1180.47 1544.94 Q1177.41 1540.33 1177.41 1531.6 Q1177.41 1522.85 1180.47 1518.27 Q1183.54 1513.66 1189.35 1513.66 Z" fill="#000000" fill-rule="nonzero" fill-opacity="1" /><path clip-path="url(#clip020)" d="M1658.02 1544.91 L1665.66 1544.91 L1665.66 1518.55 L1657.35 1520.21 L1657.35 1515.95 L1665.61 1514.29 L1670.29 1514.29 L1670.29 1544.91 L1677.93 1544.91 L1677.93 1548.85 L1658.02 1548.85 L1658.02 1544.91 Z" fill="#000000" fill-rule="nonzero" fill-opacity="1" /><path clip-path="url(#clip020)" d="M1687.42 1514.29 L1705.77 1514.29 L1705.77 1518.22 L1691.7 1518.22 L1691.7 1526.7 Q1692.72 1526.35 1693.74 1526.19 Q1694.75 1526 1695.77 1526 Q1701.56 1526 1704.94 1529.17 Q1708.32 1532.34 1708.32 1537.76 Q1708.32 1543.34 1704.85 1546.44 Q1701.37 1549.52 1695.05 1549.52 Q1692.88 1549.52 1690.61 1549.15 Q1688.36 1548.78 1685.96 1548.04 L1685.96 1543.34 Q1688.04 1544.47 1690.26 1545.03 Q1692.49 1545.58 1694.96 1545.58 Q1698.97 1545.58 1701.3 1543.48 Q1703.64 1541.37 1703.64 1537.76 Q1703.64 1534.15 1701.3 1532.04 Q1698.97 1529.94 1694.96 1529.94 Q1693.09 1529.94 1691.21 1530.35 Q1689.36 1530.77 1687.42 1531.65 L1687.42 1514.29 Z" fill="#000000" fill-rule="nonzero" fill-opacity="1" /><path clip-path="url(#clip020)" d="M2169.12 1544.91 L2185.44 1544.91 L2185.44 1548.85 L2163.5 1548.85 L2163.5 1544.91 Q2166.16 1542.16 2170.74 1537.53 Q2175.35 1532.88 2176.53 1531.53 Q2178.78 1529.01 2179.66 1527.27 Q2180.56 1525.51 2180.56 1523.82 Q2180.56 1521.07 2178.61 1519.33 Q2176.69 1517.6 2173.59 1517.6 Q2171.39 1517.6 2168.94 1518.36 Q2166.51 1519.13 2163.73 1520.68 L2163.73 1515.95 Q2166.55 1514.82 2169.01 1514.24 Q2171.46 1513.66 2173.5 1513.66 Q2178.87 1513.66 2182.06 1516.35 Q2185.26 1519.03 2185.26 1523.52 Q2185.26 1525.65 2184.45 1527.57 Q2183.66 1529.47 2181.55 1532.07 Q2180.98 1532.74 2177.87 1535.95 Q2174.77 1539.15 2169.12 1544.91 Z" fill="#000000" fill-rule="nonzero" fill-opacity="1" /><path clip-path="url(#clip020)" d="M2205.26 1517.37 Q2201.65 1517.37 2199.82 1520.93 Q2198.01 1524.47 2198.01 1531.6 Q2198.01 1538.71 2199.82 1542.27 Q2201.65 1545.82 2205.26 1545.82 Q2208.89 1545.82 2210.7 1542.27 Q2212.53 1538.71 2212.53 1531.6 Q2212.53 1524.47 2210.7 1520.93 Q2208.89 1517.37 2205.26 1517.37 M2205.26 1513.66 Q2211.07 1513.66 2214.12 1518.27 Q2217.2 1522.85 2217.2 1531.6 Q2217.2 1540.33 2214.12 1544.94 Q2211.07 1549.52 2205.26 1549.52 Q2199.45 1549.52 2196.37 1544.94 Q2193.31 1540.33 2193.31 1531.6 Q2193.31 1522.85 2196.37 1518.27 Q2199.45 1513.66 2205.26 1513.66 Z" fill="#000000" fill-rule="nonzero" fill-opacity="1" /><polyline clip-path="url(#clip020)" style="stroke:#000000; stroke-linecap:round; stroke-linejoin:round; stroke-width:4; stroke-opacity:1; fill:none" points="200.88,1486.45 200.88,47.2441 "/>
<polyline clip-path="url(#clip020)" style="stroke:#000000; stroke-linecap:round; stroke-linejoin:round; stroke-width:4; stroke-opacity:1; fill:none" points="200.88,1359.51 219.778,1359.51 "/>
<polyline clip-path="url(#clip020)" style="stroke:#000000; stroke-linecap:round; stroke-linejoin:round; stroke-width:4; stroke-opacity:1; fill:none" points="200.88,1144 219.778,1144 "/>
<polyline clip-path="url(#clip020)" style="stroke:#000000; stroke-linecap:round; stroke-linejoin:round; stroke-width:4; stroke-opacity:1; fill:none" points="200.88,928.482 219.778,928.482 "/>
<polyline clip-path="url(#clip020)" style="stroke:#000000; stroke-linecap:round; stroke-linejoin:round; stroke-width:4; stroke-opacity:1; fill:none" points="200.88,712.967 219.778,712.967 "/>
<polyline clip-path="url(#clip020)" style="stroke:#000000; stroke-linecap:round; stroke-linejoin:round; stroke-width:4; stroke-opacity:1; fill:none" points="200.88,497.453 219.778,497.453 "/>
<polyline clip-path="url(#clip020)" style="stroke:#000000; stroke-linecap:round; stroke-linejoin:round; stroke-width:4; stroke-opacity:1; fill:none" points="200.88,281.939 219.778,281.939 "/>
<polyline clip-path="url(#clip020)" style="stroke:#000000; stroke-linecap:round; stroke-linejoin:round; stroke-width:4; stroke-opacity:1; fill:none" points="200.88,66.4249 219.778,66.4249 "/>
<path clip-path="url(#clip020)" d="M66.617 1358.16 Q69.9735 1358.87 71.8485 1361.14 Q73.7466 1363.41 73.7466 1366.74 Q73.7466 1371.86 70.2281 1374.66 Q66.7096 1377.46 60.2282 1377.46 Q58.0523 1377.46 55.7375 1377.02 Q53.4458 1376.6 50.9921 1375.75 L50.9921 1371.23 Q52.9366 1372.37 55.2514 1372.95 Q57.5662 1373.53 60.0893 1373.53 Q64.4874 1373.53 66.7791 1371.79 Q69.0939 1370.05 69.0939 1366.74 Q69.0939 1363.69 66.9411 1361.98 Q64.8115 1360.24 60.9921 1360.24 L56.9643 1360.24 L56.9643 1356.4 L61.1773 1356.4 Q64.6263 1356.4 66.455 1355.03 Q68.2837 1353.64 68.2837 1351.05 Q68.2837 1348.39 66.3856 1346.98 Q64.5106 1345.54 60.9921 1345.54 Q59.0708 1345.54 56.8717 1345.96 Q54.6727 1346.37 52.0338 1347.25 L52.0338 1343.09 Q54.6958 1342.35 57.0106 1341.98 Q59.3486 1341.61 61.4087 1341.61 Q66.7328 1341.61 69.8346 1344.04 Q72.9365 1346.44 72.9365 1350.56 Q72.9365 1353.43 71.2929 1355.42 Q69.6494 1357.39 66.617 1358.16 Z" fill="#000000" fill-rule="nonzero" fill-opacity="1" /><path clip-path="url(#clip020)" d="M92.6123 1360.38 Q89.279 1360.38 87.3577 1362.16 Q85.4595 1363.94 85.4595 1367.07 Q85.4595 1370.19 87.3577 1371.98 Q89.279 1373.76 92.6123 1373.76 Q95.9456 1373.76 97.8669 1371.98 Q99.7882 1370.17 99.7882 1367.07 Q99.7882 1363.94 97.8669 1362.16 Q95.9687 1360.38 92.6123 1360.38 M87.9364 1358.39 Q84.9271 1357.65 83.2373 1355.59 Q81.5707 1353.53 81.5707 1350.56 Q81.5707 1346.42 84.5105 1344.01 Q87.4734 1341.61 92.6123 1341.61 Q97.7743 1341.61 100.714 1344.01 Q103.654 1346.42 103.654 1350.56 Q103.654 1353.53 101.964 1355.59 Q100.297 1357.65 97.3113 1358.39 Q100.691 1359.17 102.566 1361.47 Q104.464 1363.76 104.464 1367.07 Q104.464 1372.09 101.385 1374.78 Q98.3298 1377.46 92.6123 1377.46 Q86.8947 1377.46 83.816 1374.78 Q80.7605 1372.09 80.7605 1367.07 Q80.7605 1363.76 82.6586 1361.47 Q84.5568 1359.17 87.9364 1358.39 M86.2234 1351 Q86.2234 1353.69 87.8901 1355.19 Q89.5799 1356.7 92.6123 1356.7 Q95.6215 1356.7 97.3113 1355.19 Q99.0243 1353.69 99.0243 1351 Q99.0243 1348.32 97.3113 1346.81 Q95.6215 1345.31 92.6123 1345.31 Q89.5799 1345.31 87.8901 1346.81 Q86.2234 1348.32 86.2234 1351 Z" fill="#000000" fill-rule="nonzero" fill-opacity="1" /><path clip-path="url(#clip020)" d="M111.594 1342.23 L133.816 1342.23 L133.816 1344.22 L121.27 1376.79 L116.385 1376.79 L128.191 1346.17 L111.594 1346.17 L111.594 1342.23 Z" fill="#000000" fill-rule="nonzero" fill-opacity="1" /><path clip-path="url(#clip020)" d="M152.936 1345.31 Q149.325 1345.31 147.496 1348.87 Q145.691 1352.42 145.691 1359.54 Q145.691 1366.65 147.496 1370.22 Q149.325 1373.76 152.936 1373.76 Q156.57 1373.76 158.376 1370.22 Q160.205 1366.65 160.205 1359.54 Q160.205 1352.42 158.376 1348.87 Q156.57 1345.31 152.936 1345.31 M152.936 1341.61 Q158.746 1341.61 161.802 1346.21 Q164.88 1350.79 164.88 1359.54 Q164.88 1368.27 161.802 1372.88 Q158.746 1377.46 152.936 1377.46 Q147.126 1377.46 144.047 1372.88 Q140.992 1368.27 140.992 1359.54 Q140.992 1350.79 144.047 1346.21 Q147.126 1341.61 152.936 1341.61 Z" fill="#000000" fill-rule="nonzero" fill-opacity="1" /><path clip-path="url(#clip020)" d="M66.617 1142.64 Q69.9735 1143.36 71.8485 1145.63 Q73.7466 1147.9 73.7466 1151.23 Q73.7466 1156.35 70.2281 1159.15 Q66.7096 1161.95 60.2282 1161.95 Q58.0523 1161.95 55.7375 1161.51 Q53.4458 1161.09 50.9921 1160.23 L50.9921 1155.72 Q52.9366 1156.85 55.2514 1157.43 Q57.5662 1158.01 60.0893 1158.01 Q64.4874 1158.01 66.7791 1156.28 Q69.0939 1154.54 69.0939 1151.23 Q69.0939 1148.17 66.9411 1146.46 Q64.8115 1144.72 60.9921 1144.72 L56.9643 1144.72 L56.9643 1140.88 L61.1773 1140.88 Q64.6263 1140.88 66.455 1139.52 Q68.2837 1138.13 68.2837 1135.54 Q68.2837 1132.87 66.3856 1131.46 Q64.5106 1130.03 60.9921 1130.03 Q59.0708 1130.03 56.8717 1130.44 Q54.6727 1130.86 52.0338 1131.74 L52.0338 1127.57 Q54.6958 1126.83 57.0106 1126.46 Q59.3486 1126.09 61.4087 1126.09 Q66.7328 1126.09 69.8346 1128.52 Q72.9365 1130.93 72.9365 1135.05 Q72.9365 1137.92 71.2929 1139.91 Q69.6494 1141.88 66.617 1142.64 Z" fill="#000000" fill-rule="nonzero" fill-opacity="1" /><path clip-path="url(#clip020)" d="M92.6123 1144.86 Q89.279 1144.86 87.3577 1146.65 Q85.4595 1148.43 85.4595 1151.55 Q85.4595 1154.68 87.3577 1156.46 Q89.279 1158.24 92.6123 1158.24 Q95.9456 1158.24 97.8669 1156.46 Q99.7882 1154.66 99.7882 1151.55 Q99.7882 1148.43 97.8669 1146.65 Q95.9687 1144.86 92.6123 1144.86 M87.9364 1142.87 Q84.9271 1142.13 83.2373 1140.07 Q81.5707 1138.01 81.5707 1135.05 Q81.5707 1130.91 84.5105 1128.5 Q87.4734 1126.09 92.6123 1126.09 Q97.7743 1126.09 100.714 1128.5 Q103.654 1130.91 103.654 1135.05 Q103.654 1138.01 101.964 1140.07 Q100.297 1142.13 97.3113 1142.87 Q100.691 1143.66 102.566 1145.95 Q104.464 1148.24 104.464 1151.55 Q104.464 1156.58 101.385 1159.26 Q98.3298 1161.95 92.6123 1161.95 Q86.8947 1161.95 83.816 1159.26 Q80.7605 1156.58 80.7605 1151.55 Q80.7605 1148.24 82.6586 1145.95 Q84.5568 1143.66 87.9364 1142.87 M86.2234 1135.49 Q86.2234 1138.17 87.8901 1139.68 Q89.5799 1141.18 92.6123 1141.18 Q95.6215 1141.18 97.3113 1139.68 Q99.0243 1138.17 99.0243 1135.49 Q99.0243 1132.8 97.3113 1131.3 Q95.6215 1129.79 92.6123 1129.79 Q89.5799 1129.79 87.8901 1131.3 Q86.2234 1132.8 86.2234 1135.49 Z" fill="#000000" fill-rule="nonzero" fill-opacity="1" /><path clip-path="url(#clip020)" d="M122.774 1144.86 Q119.441 1144.86 117.52 1146.65 Q115.621 1148.43 115.621 1151.55 Q115.621 1154.68 117.52 1156.46 Q119.441 1158.24 122.774 1158.24 Q126.107 1158.24 128.029 1156.46 Q129.95 1154.66 129.95 1151.55 Q129.95 1148.43 128.029 1146.65 Q126.131 1144.86 122.774 1144.86 M118.098 1142.87 Q115.089 1142.13 113.399 1140.07 Q111.733 1138.01 111.733 1135.05 Q111.733 1130.91 114.672 1128.5 Q117.635 1126.09 122.774 1126.09 Q127.936 1126.09 130.876 1128.5 Q133.816 1130.91 133.816 1135.05 Q133.816 1138.01 132.126 1140.07 Q130.459 1142.13 127.473 1142.87 Q130.853 1143.66 132.728 1145.95 Q134.626 1148.24 134.626 1151.55 Q134.626 1156.58 131.547 1159.26 Q128.492 1161.95 122.774 1161.95 Q117.057 1161.95 113.978 1159.26 Q110.922 1156.58 110.922 1151.55 Q110.922 1148.24 112.82 1145.95 Q114.719 1143.66 118.098 1142.87 M116.385 1135.49 Q116.385 1138.17 118.052 1139.68 Q119.742 1141.18 122.774 1141.18 Q125.783 1141.18 127.473 1139.68 Q129.186 1138.17 129.186 1135.49 Q129.186 1132.8 127.473 1131.3 Q125.783 1129.79 122.774 1129.79 Q119.742 1129.79 118.052 1131.3 Q116.385 1132.8 116.385 1135.49 Z" fill="#000000" fill-rule="nonzero" fill-opacity="1" /><path clip-path="url(#clip020)" d="M152.936 1129.79 Q149.325 1129.79 147.496 1133.36 Q145.691 1136.9 145.691 1144.03 Q145.691 1151.14 147.496 1154.7 Q149.325 1158.24 152.936 1158.24 Q156.57 1158.24 158.376 1154.7 Q160.205 1151.14 160.205 1144.03 Q160.205 1136.9 158.376 1133.36 Q156.57 1129.79 152.936 1129.79 M152.936 1126.09 Q158.746 1126.09 161.802 1130.7 Q164.88 1135.28 164.88 1144.03 Q164.88 1152.76 161.802 1157.36 Q158.746 1161.95 152.936 1161.95 Q147.126 1161.95 144.047 1157.36 Q140.992 1152.76 140.992 1144.03 Q140.992 1135.28 144.047 1130.7 Q147.126 1126.09 152.936 1126.09 Z" fill="#000000" fill-rule="nonzero" fill-opacity="1" /><path clip-path="url(#clip020)" d="M66.617 927.127 Q69.9735 927.845 71.8485 930.114 Q73.7466 932.382 73.7466 935.715 Q73.7466 940.831 70.2281 943.632 Q66.7096 946.433 60.2282 946.433 Q58.0523 946.433 55.7375 945.993 Q53.4458 945.576 50.9921 944.72 L50.9921 940.206 Q52.9366 941.34 55.2514 941.919 Q57.5662 942.498 60.0893 942.498 Q64.4874 942.498 66.7791 940.762 Q69.0939 939.026 69.0939 935.715 Q69.0939 932.66 66.9411 930.947 Q64.8115 929.211 60.9921 929.211 L56.9643 929.211 L56.9643 925.368 L61.1773 925.368 Q64.6263 925.368 66.455 924.002 Q68.2837 922.614 68.2837 920.021 Q68.2837 917.359 66.3856 915.947 Q64.5106 914.512 60.9921 914.512 Q59.0708 914.512 56.8717 914.928 Q54.6727 915.345 52.0338 916.225 L52.0338 912.058 Q54.6958 911.317 57.0106 910.947 Q59.3486 910.577 61.4087 910.577 Q66.7328 910.577 69.8346 913.007 Q72.9365 915.415 72.9365 919.535 Q72.9365 922.405 71.2929 924.396 Q69.6494 926.364 66.617 927.127 Z" fill="#000000" fill-rule="nonzero" fill-opacity="1" /><path clip-path="url(#clip020)" d="M92.6123 929.35 Q89.279 929.35 87.3577 931.132 Q85.4595 932.914 85.4595 936.039 Q85.4595 939.164 87.3577 940.947 Q89.279 942.729 92.6123 942.729 Q95.9456 942.729 97.8669 940.947 Q99.7882 939.141 99.7882 936.039 Q99.7882 932.914 97.8669 931.132 Q95.9687 929.35 92.6123 929.35 M87.9364 927.359 Q84.9271 926.618 83.2373 924.558 Q81.5707 922.498 81.5707 919.535 Q81.5707 915.391 84.5105 912.984 Q87.4734 910.577 92.6123 910.577 Q97.7743 910.577 100.714 912.984 Q103.654 915.391 103.654 919.535 Q103.654 922.498 101.964 924.558 Q100.297 926.618 97.3113 927.359 Q100.691 928.146 102.566 930.438 Q104.464 932.729 104.464 936.039 Q104.464 941.063 101.385 943.748 Q98.3298 946.433 92.6123 946.433 Q86.8947 946.433 83.816 943.748 Q80.7605 941.063 80.7605 936.039 Q80.7605 932.729 82.6586 930.438 Q84.5568 928.146 87.9364 927.359 M86.2234 919.975 Q86.2234 922.66 87.8901 924.165 Q89.5799 925.669 92.6123 925.669 Q95.6215 925.669 97.3113 924.165 Q99.0243 922.66 99.0243 919.975 Q99.0243 917.29 97.3113 915.785 Q95.6215 914.28 92.6123 914.28 Q89.5799 914.28 87.8901 915.785 Q86.2234 917.29 86.2234 919.975 Z" fill="#000000" fill-rule="nonzero" fill-opacity="1" /><path clip-path="url(#clip020)" d="M112.913 945.044 L112.913 940.785 Q114.672 941.618 116.478 942.058 Q118.283 942.498 120.02 942.498 Q124.649 942.498 127.08 939.396 Q129.533 936.271 129.881 929.928 Q128.538 931.919 126.478 932.984 Q124.418 934.049 121.918 934.049 Q116.733 934.049 113.7 930.924 Q110.691 927.776 110.691 922.336 Q110.691 917.012 113.839 913.794 Q116.987 910.577 122.219 910.577 Q128.214 910.577 131.362 915.183 Q134.533 919.766 134.533 928.516 Q134.533 936.688 130.644 941.572 Q126.779 946.433 120.228 946.433 Q118.469 946.433 116.663 946.086 Q114.858 945.738 112.913 945.044 M122.219 930.391 Q125.367 930.391 127.195 928.239 Q129.047 926.086 129.047 922.336 Q129.047 918.609 127.195 916.456 Q125.367 914.28 122.219 914.28 Q119.07 914.28 117.219 916.456 Q115.39 918.609 115.39 922.336 Q115.39 926.086 117.219 928.239 Q119.07 930.391 122.219 930.391 Z" fill="#000000" fill-rule="nonzero" fill-opacity="1" /><path clip-path="url(#clip020)" d="M152.936 914.28 Q149.325 914.28 147.496 917.845 Q145.691 921.387 145.691 928.516 Q145.691 935.623 147.496 939.188 Q149.325 942.729 152.936 942.729 Q156.57 942.729 158.376 939.188 Q160.205 935.623 160.205 928.516 Q160.205 921.387 158.376 917.845 Q156.57 914.28 152.936 914.28 M152.936 910.577 Q158.746 910.577 161.802 915.183 Q164.88 919.766 164.88 928.516 Q164.88 937.243 161.802 941.85 Q158.746 946.433 152.936 946.433 Q147.126 946.433 144.047 941.85 Q140.992 937.243 140.992 928.516 Q140.992 919.766 144.047 915.183 Q147.126 910.577 152.936 910.577 Z" fill="#000000" fill-rule="nonzero" fill-opacity="1" /><path clip-path="url(#clip020)" d="M66.617 711.613 Q69.9735 712.331 71.8485 714.599 Q73.7466 716.868 73.7466 720.201 Q73.7466 725.317 70.2281 728.118 Q66.7096 730.919 60.2282 730.919 Q58.0523 730.919 55.7375 730.479 Q53.4458 730.062 50.9921 729.206 L50.9921 724.692 Q52.9366 725.826 55.2514 726.405 Q57.5662 726.984 60.0893 726.984 Q64.4874 726.984 66.7791 725.247 Q69.0939 723.511 69.0939 720.201 Q69.0939 717.146 66.9411 715.433 Q64.8115 713.697 60.9921 713.697 L56.9643 713.697 L56.9643 709.854 L61.1773 709.854 Q64.6263 709.854 66.455 708.488 Q68.2837 707.099 68.2837 704.507 Q68.2837 701.845 66.3856 700.433 Q64.5106 698.998 60.9921 698.998 Q59.0708 698.998 56.8717 699.414 Q54.6727 699.831 52.0338 700.711 L52.0338 696.544 Q54.6958 695.803 57.0106 695.433 Q59.3486 695.062 61.4087 695.062 Q66.7328 695.062 69.8346 697.493 Q72.9365 699.9 72.9365 704.021 Q72.9365 706.891 71.2929 708.882 Q69.6494 710.849 66.617 711.613 Z" fill="#000000" fill-rule="nonzero" fill-opacity="1" /><path clip-path="url(#clip020)" d="M82.7512 729.53 L82.7512 725.271 Q84.5105 726.104 86.316 726.544 Q88.1216 726.984 89.8577 726.984 Q94.4873 726.984 96.9178 723.882 Q99.3715 720.757 99.7187 714.414 Q98.3761 716.405 96.316 717.47 Q94.2558 718.535 91.7558 718.535 Q86.5706 718.535 83.5382 715.41 Q80.529 712.261 80.529 706.822 Q80.529 701.498 83.6771 698.28 Q86.8253 695.062 92.0567 695.062 Q98.0521 695.062 101.2 699.669 Q104.371 704.252 104.371 713.002 Q104.371 721.173 100.483 726.058 Q96.6169 730.919 90.066 730.919 Q88.3067 730.919 86.5012 730.572 Q84.6956 730.224 82.7512 729.53 M92.0567 714.877 Q95.2049 714.877 97.0335 712.724 Q98.8854 710.572 98.8854 706.822 Q98.8854 703.095 97.0335 700.942 Q95.2049 698.766 92.0567 698.766 Q88.9086 698.766 87.0567 700.942 Q85.2281 703.095 85.2281 706.822 Q85.2281 710.572 87.0567 712.724 Q88.9086 714.877 92.0567 714.877 Z" fill="#000000" fill-rule="nonzero" fill-opacity="1" /><path clip-path="url(#clip020)" d="M122.774 698.766 Q119.163 698.766 117.334 702.331 Q115.529 705.873 115.529 713.002 Q115.529 720.109 117.334 723.673 Q119.163 727.215 122.774 727.215 Q126.408 727.215 128.214 723.673 Q130.043 720.109 130.043 713.002 Q130.043 705.873 128.214 702.331 Q126.408 698.766 122.774 698.766 M122.774 695.062 Q128.584 695.062 131.64 699.669 Q134.719 704.252 134.719 713.002 Q134.719 721.729 131.64 726.335 Q128.584 730.919 122.774 730.919 Q116.964 730.919 113.885 726.335 Q110.83 721.729 110.83 713.002 Q110.83 704.252 113.885 699.669 Q116.964 695.062 122.774 695.062 Z" fill="#000000" fill-rule="nonzero" fill-opacity="1" /><path clip-path="url(#clip020)" d="M152.936 698.766 Q149.325 698.766 147.496 702.331 Q145.691 705.873 145.691 713.002 Q145.691 720.109 147.496 723.673 Q149.325 727.215 152.936 727.215 Q156.57 727.215 158.376 723.673 Q160.205 720.109 160.205 713.002 Q160.205 705.873 158.376 702.331 Q156.57 698.766 152.936 698.766 M152.936 695.062 Q158.746 695.062 161.802 699.669 Q164.88 704.252 164.88 713.002 Q164.88 721.729 161.802 726.335 Q158.746 730.919 152.936 730.919 Q147.126 730.919 144.047 726.335 Q140.992 721.729 140.992 713.002 Q140.992 704.252 144.047 699.669 Q147.126 695.062 152.936 695.062 Z" fill="#000000" fill-rule="nonzero" fill-opacity="1" /><path clip-path="url(#clip020)" d="M66.617 496.099 Q69.9735 496.817 71.8485 499.085 Q73.7466 501.354 73.7466 504.687 Q73.7466 509.803 70.2281 512.604 Q66.7096 515.405 60.2282 515.405 Q58.0523 515.405 55.7375 514.965 Q53.4458 514.548 50.9921 513.692 L50.9921 509.178 Q52.9366 510.312 55.2514 510.891 Q57.5662 511.469 60.0893 511.469 Q64.4874 511.469 66.7791 509.733 Q69.0939 507.997 69.0939 504.687 Q69.0939 501.631 66.9411 499.919 Q64.8115 498.182 60.9921 498.182 L56.9643 498.182 L56.9643 494.34 L61.1773 494.34 Q64.6263 494.34 66.455 492.974 Q68.2837 491.585 68.2837 488.993 Q68.2837 486.331 66.3856 484.919 Q64.5106 483.483 60.9921 483.483 Q59.0708 483.483 56.8717 483.9 Q54.6727 484.317 52.0338 485.196 L52.0338 481.03 Q54.6958 480.289 57.0106 479.919 Q59.3486 479.548 61.4087 479.548 Q66.7328 479.548 69.8346 481.979 Q72.9365 484.386 72.9365 488.507 Q72.9365 491.377 71.2929 493.368 Q69.6494 495.335 66.617 496.099 Z" fill="#000000" fill-rule="nonzero" fill-opacity="1" /><path clip-path="url(#clip020)" d="M82.7512 514.016 L82.7512 509.756 Q84.5105 510.59 86.316 511.03 Q88.1216 511.469 89.8577 511.469 Q94.4873 511.469 96.9178 508.368 Q99.3715 505.243 99.7187 498.9 Q98.3761 500.891 96.316 501.956 Q94.2558 503.02 91.7558 503.02 Q86.5706 503.02 83.5382 499.895 Q80.529 496.747 80.529 491.307 Q80.529 485.983 83.6771 482.766 Q86.8253 479.548 92.0567 479.548 Q98.0521 479.548 101.2 484.155 Q104.371 488.738 104.371 497.488 Q104.371 505.659 100.483 510.543 Q96.6169 515.405 90.066 515.405 Q88.3067 515.405 86.5012 515.057 Q84.6956 514.71 82.7512 514.016 M92.0567 499.363 Q95.2049 499.363 97.0335 497.21 Q98.8854 495.057 98.8854 491.307 Q98.8854 487.581 97.0335 485.428 Q95.2049 483.252 92.0567 483.252 Q88.9086 483.252 87.0567 485.428 Q85.2281 487.581 85.2281 491.307 Q85.2281 495.057 87.0567 497.21 Q88.9086 499.363 92.0567 499.363 Z" fill="#000000" fill-rule="nonzero" fill-opacity="1" /><path clip-path="url(#clip020)" d="M113.584 510.798 L121.223 510.798 L121.223 484.432 L112.913 486.099 L112.913 481.84 L121.177 480.173 L125.853 480.173 L125.853 510.798 L133.492 510.798 L133.492 514.733 L113.584 514.733 L113.584 510.798 Z" fill="#000000" fill-rule="nonzero" fill-opacity="1" /><path clip-path="url(#clip020)" d="M152.936 483.252 Q149.325 483.252 147.496 486.817 Q145.691 490.358 145.691 497.488 Q145.691 504.594 147.496 508.159 Q149.325 511.701 152.936 511.701 Q156.57 511.701 158.376 508.159 Q160.205 504.594 160.205 497.488 Q160.205 490.358 158.376 486.817 Q156.57 483.252 152.936 483.252 M152.936 479.548 Q158.746 479.548 161.802 484.155 Q164.88 488.738 164.88 497.488 Q164.88 506.215 161.802 510.821 Q158.746 515.405 152.936 515.405 Q147.126 515.405 144.047 510.821 Q140.992 506.215 140.992 497.488 Q140.992 488.738 144.047 484.155 Q147.126 479.548 152.936 479.548 Z" fill="#000000" fill-rule="nonzero" fill-opacity="1" /><path clip-path="url(#clip020)" d="M66.617 280.585 Q69.9735 281.302 71.8485 283.571 Q73.7466 285.839 73.7466 289.173 Q73.7466 294.289 70.2281 297.089 Q66.7096 299.89 60.2282 299.89 Q58.0523 299.89 55.7375 299.451 Q53.4458 299.034 50.9921 298.177 L50.9921 293.664 Q52.9366 294.798 55.2514 295.376 Q57.5662 295.955 60.0893 295.955 Q64.4874 295.955 66.7791 294.219 Q69.0939 292.483 69.0939 289.173 Q69.0939 286.117 66.9411 284.404 Q64.8115 282.668 60.9921 282.668 L56.9643 282.668 L56.9643 278.826 L61.1773 278.826 Q64.6263 278.826 66.455 277.46 Q68.2837 276.071 68.2837 273.478 Q68.2837 270.816 66.3856 269.404 Q64.5106 267.969 60.9921 267.969 Q59.0708 267.969 56.8717 268.386 Q54.6727 268.803 52.0338 269.682 L52.0338 265.516 Q54.6958 264.775 57.0106 264.404 Q59.3486 264.034 61.4087 264.034 Q66.7328 264.034 69.8346 266.465 Q72.9365 268.872 72.9365 272.992 Q72.9365 275.863 71.2929 277.853 Q69.6494 279.821 66.617 280.585 Z" fill="#000000" fill-rule="nonzero" fill-opacity="1" /><path clip-path="url(#clip020)" d="M82.7512 298.501 L82.7512 294.242 Q84.5105 295.076 86.316 295.515 Q88.1216 295.955 89.8577 295.955 Q94.4873 295.955 96.9178 292.853 Q99.3715 289.728 99.7187 283.386 Q98.3761 285.377 96.316 286.441 Q94.2558 287.506 91.7558 287.506 Q86.5706 287.506 83.5382 284.381 Q80.529 281.233 80.529 275.793 Q80.529 270.469 83.6771 267.252 Q86.8253 264.034 92.0567 264.034 Q98.0521 264.034 101.2 268.641 Q104.371 273.224 104.371 281.974 Q104.371 290.145 100.483 295.029 Q96.6169 299.89 90.066 299.89 Q88.3067 299.89 86.5012 299.543 Q84.6956 299.196 82.7512 298.501 M92.0567 283.849 Q95.2049 283.849 97.0335 281.696 Q98.8854 279.543 98.8854 275.793 Q98.8854 272.066 97.0335 269.914 Q95.2049 267.738 92.0567 267.738 Q88.9086 267.738 87.0567 269.914 Q85.2281 272.066 85.2281 275.793 Q85.2281 279.543 87.0567 281.696 Q88.9086 283.849 92.0567 283.849 Z" fill="#000000" fill-rule="nonzero" fill-opacity="1" /><path clip-path="url(#clip020)" d="M116.802 295.284 L133.121 295.284 L133.121 299.219 L111.177 299.219 L111.177 295.284 Q113.839 292.529 118.422 287.9 Q123.029 283.247 124.209 281.904 Q126.455 279.381 127.334 277.645 Q128.237 275.886 128.237 274.196 Q128.237 271.441 126.293 269.705 Q124.371 267.969 121.27 267.969 Q119.07 267.969 116.617 268.733 Q114.186 269.497 111.408 271.048 L111.408 266.326 Q114.233 265.191 116.686 264.613 Q119.14 264.034 121.177 264.034 Q126.547 264.034 129.742 266.719 Q132.936 269.404 132.936 273.895 Q132.936 276.025 132.126 277.946 Q131.339 279.844 129.232 282.437 Q128.654 283.108 125.552 286.326 Q122.45 289.52 116.802 295.284 Z" fill="#000000" fill-rule="nonzero" fill-opacity="1" /><path clip-path="url(#clip020)" d="M152.936 267.738 Q149.325 267.738 147.496 271.303 Q145.691 274.844 145.691 281.974 Q145.691 289.08 147.496 292.645 Q149.325 296.187 152.936 296.187 Q156.57 296.187 158.376 292.645 Q160.205 289.08 160.205 281.974 Q160.205 274.844 158.376 271.303 Q156.57 267.738 152.936 267.738 M152.936 264.034 Q158.746 264.034 161.802 268.641 Q164.88 273.224 164.88 281.974 Q164.88 290.701 161.802 295.307 Q158.746 299.89 152.936 299.89 Q147.126 299.89 144.047 295.307 Q140.992 290.701 140.992 281.974 Q140.992 273.224 144.047 268.641 Q147.126 264.034 152.936 264.034 Z" fill="#000000" fill-rule="nonzero" fill-opacity="1" /><path clip-path="url(#clip020)" d="M66.617 65.0707 Q69.9735 65.7883 71.8485 68.0568 Q73.7466 70.3253 73.7466 73.6586 Q73.7466 78.7743 70.2281 81.5752 Q66.7096 84.3762 60.2282 84.3762 Q58.0523 84.3762 55.7375 83.9363 Q53.4458 83.5197 50.9921 82.6632 L50.9921 78.1493 Q52.9366 79.2836 55.2514 79.8623 Q57.5662 80.441 60.0893 80.441 Q64.4874 80.441 66.7791 78.7049 Q69.0939 76.9688 69.0939 73.6586 Q69.0939 70.6031 66.9411 68.8901 Q64.8115 67.154 60.9921 67.154 L56.9643 67.154 L56.9643 63.3114 L61.1773 63.3114 Q64.6263 63.3114 66.455 61.9457 Q68.2837 60.5568 68.2837 57.9643 Q68.2837 55.3022 66.3856 53.8902 Q64.5106 52.455 60.9921 52.455 Q59.0708 52.455 56.8717 52.8717 Q54.6727 53.2884 52.0338 54.168 L52.0338 50.0013 Q54.6958 49.2606 57.0106 48.8902 Q59.3486 48.5199 61.4087 48.5199 Q66.7328 48.5199 69.8346 50.9504 Q72.9365 53.3578 72.9365 57.4781 Q72.9365 60.3485 71.2929 62.3392 Q69.6494 64.3068 66.617 65.0707 Z" fill="#000000" fill-rule="nonzero" fill-opacity="1" /><path clip-path="url(#clip020)" d="M82.7512 82.9873 L82.7512 78.728 Q84.5105 79.5614 86.316 80.0012 Q88.1216 80.441 89.8577 80.441 Q94.4873 80.441 96.9178 77.3392 Q99.3715 74.2142 99.7187 67.8716 Q98.3761 69.8623 96.316 70.9271 Q94.2558 71.992 91.7558 71.992 Q86.5706 71.992 83.5382 68.867 Q80.529 65.7188 80.529 60.2791 Q80.529 54.955 83.6771 51.7374 Q86.8253 48.5199 92.0567 48.5199 Q98.0521 48.5199 101.2 53.1263 Q104.371 57.7096 104.371 66.4596 Q104.371 74.6308 100.483 79.5151 Q96.6169 84.3762 90.066 84.3762 Q88.3067 84.3762 86.5012 84.0289 Q84.6956 83.6817 82.7512 82.9873 M92.0567 68.3346 Q95.2049 68.3346 97.0335 66.1818 Q98.8854 64.029 98.8854 60.2791 Q98.8854 56.5522 97.0335 54.3995 Q95.2049 52.2235 92.0567 52.2235 Q88.9086 52.2235 87.0567 54.3995 Q85.2281 56.5522 85.2281 60.2791 Q85.2281 64.029 87.0567 66.1818 Q88.9086 68.3346 92.0567 68.3346 Z" fill="#000000" fill-rule="nonzero" fill-opacity="1" /><path clip-path="url(#clip020)" d="M126.941 65.0707 Q130.297 65.7883 132.172 68.0568 Q134.07 70.3253 134.07 73.6586 Q134.07 78.7743 130.552 81.5752 Q127.033 84.3762 120.552 84.3762 Q118.376 84.3762 116.061 83.9363 Q113.77 83.5197 111.316 82.6632 L111.316 78.1493 Q113.26 79.2836 115.575 79.8623 Q117.89 80.441 120.413 80.441 Q124.811 80.441 127.103 78.7049 Q129.418 76.9688 129.418 73.6586 Q129.418 70.6031 127.265 68.8901 Q125.135 67.154 121.316 67.154 L117.288 67.154 L117.288 63.3114 L121.501 63.3114 Q124.95 63.3114 126.779 61.9457 Q128.607 60.5568 128.607 57.9643 Q128.607 55.3022 126.709 53.8902 Q124.834 52.455 121.316 52.455 Q119.395 52.455 117.195 52.8717 Q114.996 53.2884 112.358 54.168 L112.358 50.0013 Q115.02 49.2606 117.334 48.8902 Q119.672 48.5199 121.732 48.5199 Q127.057 48.5199 130.158 50.9504 Q133.26 53.3578 133.26 57.4781 Q133.26 60.3485 131.617 62.3392 Q129.973 64.3068 126.941 65.0707 Z" fill="#000000" fill-rule="nonzero" fill-opacity="1" /><path clip-path="url(#clip020)" d="M152.936 52.2235 Q149.325 52.2235 147.496 55.7883 Q145.691 59.33 145.691 66.4596 Q145.691 73.566 147.496 77.1308 Q149.325 80.6725 152.936 80.6725 Q156.57 80.6725 158.376 77.1308 Q160.205 73.566 160.205 66.4596 Q160.205 59.33 158.376 55.7883 Q156.57 52.2235 152.936 52.2235 M152.936 48.5199 Q158.746 48.5199 161.802 53.1263 Q164.88 57.7096 164.88 66.4596 Q164.88 75.1864 161.802 79.7928 Q158.746 84.3762 152.936 84.3762 Q147.126 84.3762 144.047 79.7928 Q140.992 75.1864 140.992 66.4596 Q140.992 57.7096 144.047 53.1263 Q147.126 48.5199 152.936 48.5199 Z" fill="#000000" fill-rule="nonzero" fill-opacity="1" /><polyline clip-path="url(#clip022)" style="stroke:#009af9; stroke-linecap:round; stroke-linejoin:round; stroke-width:4; stroke-opacity:1; fill:none" points="261.783,1445.72 363.286,1445.72 464.79,1445.72 566.293,1251.75 667.797,928.482 769.3,1014.69 870.804,411.248 972.307,346.593 1073.81,669.865 1175.31,1294.86 1276.82,906.93 1378.32,260.388 1479.83,1014.69 1581.33,497.453 1682.83,109.528 1784.34,87.9763 1885.84,842.276 1987.34,605.21 2088.85,368.145 2190.35,1445.72 2291.85,540.556 "/>
<path clip-path="url(#clip020)" d="M272.61 198.898 L923.327 198.898 L923.327 95.2176 L272.61 95.2176  Z" fill="#ffffff" fill-rule="evenodd" fill-opacity="1"/>
<polyline clip-path="url(#clip020)" style="stroke:#000000; stroke-linecap:round; stroke-linejoin:round; stroke-width:4; stroke-opacity:1; fill:none" points="272.61,198.898 923.327,198.898 923.327,95.2176 272.61,95.2176 272.61,198.898 "/>
<polyline clip-path="url(#clip020)" style="stroke:#009af9; stroke-linecap:round; stroke-linejoin:round; stroke-width:4; stroke-opacity:1; fill:none" points="296.519,147.058 439.978,147.058 "/>
<path clip-path="url(#clip020)" d="M463.887 129.778 L485.739 129.778 L485.739 133.713 L468.563 133.713 L468.563 143.944 L485.022 143.944 L485.022 147.879 L468.563 147.879 L468.563 160.402 L486.156 160.402 L486.156 164.338 L463.887 164.338 L463.887 129.778 Z" fill="#000000" fill-rule="nonzero" fill-opacity="1" /><path clip-path="url(#clip020)" d="M513.841 143.389 Q515.438 140.518 517.66 139.153 Q519.882 137.787 522.892 137.787 Q526.943 137.787 529.142 140.634 Q531.341 143.458 531.341 148.689 L531.341 164.338 L527.058 164.338 L527.058 148.828 Q527.058 145.102 525.739 143.296 Q524.419 141.49 521.711 141.49 Q518.401 141.49 516.48 143.69 Q514.558 145.889 514.558 149.685 L514.558 164.338 L510.276 164.338 L510.276 148.828 Q510.276 145.078 508.957 143.296 Q507.637 141.49 504.883 141.49 Q501.619 141.49 499.697 143.713 Q497.776 145.912 497.776 149.685 L497.776 164.338 L493.494 164.338 L493.494 138.412 L497.776 138.412 L497.776 142.44 Q499.234 140.055 501.271 138.921 Q503.308 137.787 506.109 137.787 Q508.933 137.787 510.901 139.222 Q512.892 140.657 513.841 143.389 Z" fill="#000000" fill-rule="nonzero" fill-opacity="1" /><path clip-path="url(#clip020)" d="M543.956 160.449 L543.956 174.199 L539.674 174.199 L539.674 138.412 L543.956 138.412 L543.956 142.347 Q545.299 140.032 547.336 138.921 Q549.396 137.787 552.243 137.787 Q556.966 137.787 559.905 141.537 Q562.868 145.287 562.868 151.398 Q562.868 157.509 559.905 161.259 Q556.966 165.009 552.243 165.009 Q549.396 165.009 547.336 163.898 Q545.299 162.763 543.956 160.449 M558.447 151.398 Q558.447 146.699 556.503 144.037 Q554.581 141.352 551.202 141.352 Q547.822 141.352 545.878 144.037 Q543.956 146.699 543.956 151.398 Q543.956 156.097 545.878 158.782 Q547.822 161.444 551.202 161.444 Q554.581 161.444 556.503 158.782 Q558.447 156.097 558.447 151.398 Z" fill="#000000" fill-rule="nonzero" fill-opacity="1" /><path clip-path="url(#clip020)" d="M569.929 128.319 L574.188 128.319 L574.188 164.338 L569.929 164.338 L569.929 128.319 Z" fill="#000000" fill-rule="nonzero" fill-opacity="1" /><path clip-path="url(#clip020)" d="M593.146 141.398 Q589.72 141.398 587.729 144.083 Q585.739 146.745 585.739 151.398 Q585.739 156.051 587.706 158.736 Q589.697 161.398 593.146 161.398 Q596.549 161.398 598.539 158.713 Q600.53 156.027 600.53 151.398 Q600.53 146.791 598.539 144.106 Q596.549 141.398 593.146 141.398 M593.146 137.787 Q598.702 137.787 601.873 141.398 Q605.044 145.009 605.044 151.398 Q605.044 157.764 601.873 161.398 Q598.702 165.009 593.146 165.009 Q587.567 165.009 584.396 161.398 Q581.248 157.764 581.248 151.398 Q581.248 145.009 584.396 141.398 Q587.567 137.787 593.146 137.787 Z" fill="#000000" fill-rule="nonzero" fill-opacity="1" /><path clip-path="url(#clip020)" d="M622.891 166.745 Q621.086 171.375 619.373 172.787 Q617.66 174.199 614.789 174.199 L611.387 174.199 L611.387 170.634 L613.887 170.634 Q615.646 170.634 616.618 169.8 Q617.59 168.967 618.771 165.865 L619.535 163.921 L609.049 138.412 L613.563 138.412 L621.664 158.689 L629.766 138.412 L634.28 138.412 L622.891 166.745 Z" fill="#000000" fill-rule="nonzero" fill-opacity="1" /><path clip-path="url(#clip020)" d="M662.335 150.31 L662.335 152.393 L642.752 152.393 Q643.03 156.791 645.391 159.106 Q647.775 161.398 652.011 161.398 Q654.465 161.398 656.757 160.796 Q659.072 160.194 661.34 158.99 L661.34 163.018 Q659.048 163.99 656.641 164.5 Q654.234 165.009 651.757 165.009 Q645.553 165.009 641.919 161.398 Q638.308 157.787 638.308 151.629 Q638.308 145.264 641.734 141.537 Q645.183 137.787 651.016 137.787 Q656.247 137.787 659.28 141.166 Q662.335 144.523 662.335 150.31 M658.076 149.06 Q658.03 145.565 656.109 143.481 Q654.21 141.398 651.062 141.398 Q647.498 141.398 645.345 143.412 Q643.215 145.426 642.891 149.083 L658.076 149.06 Z" fill="#000000" fill-rule="nonzero" fill-opacity="1" /><path clip-path="url(#clip020)" d="M686.386 142.347 L686.386 128.319 L690.645 128.319 L690.645 164.338 L686.386 164.338 L686.386 160.449 Q685.044 162.763 682.983 163.898 Q680.946 165.009 678.076 165.009 Q673.377 165.009 670.414 161.259 Q667.474 157.509 667.474 151.398 Q667.474 145.287 670.414 141.537 Q673.377 137.787 678.076 137.787 Q680.946 137.787 682.983 138.921 Q685.044 140.032 686.386 142.347 M671.872 151.398 Q671.872 156.097 673.794 158.782 Q675.738 161.444 679.118 161.444 Q682.497 161.444 684.442 158.782 Q686.386 156.097 686.386 151.398 Q686.386 146.699 684.442 144.037 Q682.497 141.352 679.118 141.352 Q675.738 141.352 673.794 144.037 Q671.872 146.699 671.872 151.398 Z" fill="#000000" fill-rule="nonzero" fill-opacity="1" /><path clip-path="url(#clip020)" d="M711.594 129.778 L716.317 129.778 L723.585 158.99 L730.83 129.778 L736.085 129.778 L743.354 158.99 L750.599 129.778 L755.344 129.778 L746.664 164.338 L740.784 164.338 L733.492 134.338 L726.131 164.338 L720.252 164.338 L711.594 129.778 Z" fill="#000000" fill-rule="nonzero" fill-opacity="1" /><path clip-path="url(#clip020)" d="M768.631 141.398 Q765.205 141.398 763.215 144.083 Q761.224 146.745 761.224 151.398 Q761.224 156.051 763.191 158.736 Q765.182 161.398 768.631 161.398 Q772.034 161.398 774.025 158.713 Q776.015 156.027 776.015 151.398 Q776.015 146.791 774.025 144.106 Q772.034 141.398 768.631 141.398 M768.631 137.787 Q774.187 137.787 777.358 141.398 Q780.529 145.009 780.529 151.398 Q780.529 157.764 777.358 161.398 Q774.187 165.009 768.631 165.009 Q763.052 165.009 759.881 161.398 Q756.733 157.764 756.733 151.398 Q756.733 145.009 759.881 141.398 Q763.052 137.787 768.631 137.787 Z" fill="#000000" fill-rule="nonzero" fill-opacity="1" /><path clip-path="url(#clip020)" d="M802.612 142.393 Q801.895 141.977 801.038 141.791 Q800.205 141.583 799.187 141.583 Q795.575 141.583 793.631 143.944 Q791.71 146.282 791.71 150.68 L791.71 164.338 L787.427 164.338 L787.427 138.412 L791.71 138.412 L791.71 142.44 Q793.052 140.078 795.205 138.944 Q797.358 137.787 800.437 137.787 Q800.876 137.787 801.409 137.856 Q801.941 137.903 802.589 138.018 L802.612 142.393 Z" fill="#000000" fill-rule="nonzero" fill-opacity="1" /><path clip-path="url(#clip020)" d="M806.918 128.319 L811.2 128.319 L811.2 149.592 L823.909 138.412 L829.348 138.412 L815.598 150.541 L829.927 164.338 L824.372 164.338 L811.2 151.676 L811.2 164.338 L806.918 164.338 L806.918 128.319 Z" fill="#000000" fill-rule="nonzero" fill-opacity="1" /><path clip-path="url(#clip020)" d="M855.02 150.31 L855.02 152.393 L835.436 152.393 Q835.714 156.791 838.075 159.106 Q840.459 161.398 844.696 161.398 Q847.149 161.398 849.441 160.796 Q851.756 160.194 854.024 158.99 L854.024 163.018 Q851.733 163.99 849.325 164.5 Q846.918 165.009 844.441 165.009 Q838.237 165.009 834.603 161.398 Q830.992 157.787 830.992 151.629 Q830.992 145.264 834.418 141.537 Q837.867 137.787 843.7 137.787 Q848.932 137.787 851.964 141.166 Q855.02 144.523 855.02 150.31 M850.76 149.06 Q850.714 145.565 848.793 143.481 Q846.895 141.398 843.746 141.398 Q840.182 141.398 838.029 143.412 Q835.899 145.426 835.575 149.083 L850.76 149.06 Z" fill="#000000" fill-rule="nonzero" fill-opacity="1" /><path clip-path="url(#clip020)" d="M877.033 142.393 Q876.316 141.977 875.459 141.791 Q874.626 141.583 873.607 141.583 Q869.996 141.583 868.052 143.944 Q866.131 146.282 866.131 150.68 L866.131 164.338 L861.848 164.338 L861.848 138.412 L866.131 138.412 L866.131 142.44 Q867.473 140.078 869.626 138.944 Q871.779 137.787 874.857 137.787 Q875.297 137.787 875.83 137.856 Q876.362 137.903 877.01 138.018 L877.033 142.393 Z" fill="#000000" fill-rule="nonzero" fill-opacity="1" /><path clip-path="url(#clip020)" d="M898.029 139.176 L898.029 143.203 Q896.223 142.277 894.279 141.815 Q892.334 141.352 890.251 141.352 Q887.08 141.352 885.482 142.324 Q883.908 143.296 883.908 145.24 Q883.908 146.722 885.043 147.578 Q886.177 148.412 889.603 149.176 L891.061 149.5 Q895.598 150.472 897.496 152.254 Q899.417 154.014 899.417 157.185 Q899.417 160.796 896.547 162.902 Q893.7 165.009 888.7 165.009 Q886.617 165.009 884.348 164.592 Q882.103 164.199 879.603 163.388 L879.603 158.99 Q881.964 160.217 884.256 160.842 Q886.547 161.444 888.793 161.444 Q891.802 161.444 893.422 160.426 Q895.043 159.384 895.043 157.509 Q895.043 155.773 893.862 154.847 Q892.705 153.921 888.746 153.064 L887.265 152.717 Q883.306 151.884 881.547 150.171 Q879.788 148.435 879.788 145.426 Q879.788 141.768 882.381 139.778 Q884.973 137.787 889.742 137.787 Q892.103 137.787 894.186 138.134 Q896.269 138.481 898.029 139.176 Z" fill="#000000" fill-rule="nonzero" fill-opacity="1" /></svg>
