<?xml version="1.0" encoding="utf-8"?>
<svg xmlns="http://www.w3.org/2000/svg" xmlns:xlink="http://www.w3.org/1999/xlink" width="600" height="300" viewBox="0 0 2400 1200">
<defs>
  <clipPath id="clip940">
    <rect x="0" y="0" width="2400" height="1200"/>
  </clipPath>
</defs>
<path clip-path="url(#clip940)" d="M0 1200 L2400 1200 L2400 0 L0 0  Z" fill="#ffffff" fill-rule="evenodd" fill-opacity="1"/>
<defs>
  <clipPath id="clip941">
    <rect x="480" y="0" width="1681" height="1200"/>
  </clipPath>
</defs>
<path clip-path="url(#clip940)" d="M216.436 1099.09 L1168.64 1099.09 L1168.64 92.1521 L216.436 92.1521  Z" fill="#ffffff" fill-rule="evenodd" fill-opacity="1"/>
<defs>
  <clipPath id="clip942">
    <rect x="216" y="92" width="953" height="1008"/>
  </clipPath>
</defs>
<polyline clip-path="url(#clip942)" style="stroke:#000000; stroke-linecap:round; stroke-linejoin:round; stroke-width:2; stroke-opacity:0.1; fill:none" points="414.49,1099.09 414.49,92.1521 "/>
<polyline clip-path="url(#clip942)" style="stroke:#000000; stroke-linecap:round; stroke-linejoin:round; stroke-width:2; stroke-opacity:0.1; fill:none" points="628.371,1099.09 628.371,92.1521 "/>
<polyline clip-path="url(#clip942)" style="stroke:#000000; stroke-linecap:round; stroke-linejoin:round; stroke-width:2; stroke-opacity:0.1; fill:none" points="842.253,1099.09 842.253,92.1521 "/>
<polyline clip-path="url(#clip942)" style="stroke:#000000; stroke-linecap:round; stroke-linejoin:round; stroke-width:2; stroke-opacity:0.1; fill:none" points="1056.13,1099.09 1056.13,92.1521 "/>
<polyline clip-path="url(#clip942)" style="stroke:#000000; stroke-linecap:round; stroke-linejoin:round; stroke-width:2; stroke-opacity:0.1; fill:none" points="216.436,878.96 1168.64,878.96 "/>
<polyline clip-path="url(#clip942)" style="stroke:#000000; stroke-linecap:round; stroke-linejoin:round; stroke-width:2; stroke-opacity:0.1; fill:none" points="216.436,626.19 1168.64,626.19 "/>
<polyline clip-path="url(#clip942)" style="stroke:#000000; stroke-linecap:round; stroke-linejoin:round; stroke-width:2; stroke-opacity:0.1; fill:none" points="216.436,373.42 1168.64,373.42 "/>
<polyline clip-path="url(#clip942)" style="stroke:#000000; stroke-linecap:round; stroke-linejoin:round; stroke-width:2; stroke-opacity:0.1; fill:none" points="216.436,120.65 1168.64,120.65 "/>
<polyline clip-path="url(#clip940)" style="stroke:#000000; stroke-linecap:round; stroke-linejoin:round; stroke-width:4; stroke-opacity:1; fill:none" points="216.436,1099.09 1168.64,1099.09 "/>
<polyline clip-path="url(#clip940)" style="stroke:#000000; stroke-linecap:round; stroke-linejoin:round; stroke-width:4; stroke-opacity:1; fill:none" points="414.49,1099.09 414.49,1080.19 "/>
<polyline clip-path="url(#clip940)" style="stroke:#000000; stroke-linecap:round; stroke-linejoin:round; stroke-width:4; stroke-opacity:1; fill:none" points="628.371,1099.09 628.371,1080.19 "/>
<polyline clip-path="url(#clip940)" style="stroke:#000000; stroke-linecap:round; stroke-linejoin:round; stroke-width:4; stroke-opacity:1; fill:none" points="842.253,1099.09 842.253,1080.19 "/>
<polyline clip-path="url(#clip940)" style="stroke:#000000; stroke-linecap:round; stroke-linejoin:round; stroke-width:4; stroke-opacity:1; fill:none" points="1056.13,1099.09 1056.13,1080.19 "/>
<path clip-path="url(#clip940)" d="M404.768 1126.93 L423.124 1126.93 L423.124 1130.86 L409.05 1130.86 L409.05 1139.34 Q410.069 1138.99 411.087 1138.83 Q412.106 1138.64 413.124 1138.64 Q418.911 1138.64 422.291 1141.81 Q425.67 1144.98 425.67 1150.4 Q425.67 1155.98 422.198 1159.08 Q418.726 1162.16 412.407 1162.16 Q410.231 1162.16 407.962 1161.79 Q405.717 1161.42 403.309 1160.68 L403.309 1155.98 Q405.393 1157.11 407.615 1157.67 Q409.837 1158.22 412.314 1158.22 Q416.319 1158.22 418.657 1156.12 Q420.995 1154.01 420.995 1150.4 Q420.995 1146.79 418.657 1144.68 Q416.319 1142.58 412.314 1142.58 Q410.439 1142.58 408.564 1142.99 Q406.712 1143.41 404.768 1144.29 L404.768 1126.93 Z" fill="#000000" fill-rule="nonzero" fill-opacity="1" /><path clip-path="url(#clip940)" d="M603.059 1157.55 L610.698 1157.55 L610.698 1131.19 L602.388 1132.85 L602.388 1128.59 L610.651 1126.93 L615.327 1126.93 L615.327 1157.55 L622.966 1157.55 L622.966 1161.49 L603.059 1161.49 L603.059 1157.55 Z" fill="#000000" fill-rule="nonzero" fill-opacity="1" /><path clip-path="url(#clip940)" d="M642.411 1130.01 Q638.799 1130.01 636.971 1133.57 Q635.165 1137.11 635.165 1144.24 Q635.165 1151.35 636.971 1154.91 Q638.799 1158.46 642.411 1158.46 Q646.045 1158.46 647.85 1154.91 Q649.679 1151.35 649.679 1144.24 Q649.679 1137.11 647.85 1133.57 Q646.045 1130.01 642.411 1130.01 M642.411 1126.3 Q648.221 1126.3 651.276 1130.91 Q654.355 1135.49 654.355 1144.24 Q654.355 1152.97 651.276 1157.58 Q648.221 1162.16 642.411 1162.16 Q636.6 1162.16 633.522 1157.58 Q630.466 1152.97 630.466 1144.24 Q630.466 1135.49 633.522 1130.91 Q636.6 1126.3 642.411 1126.3 Z" fill="#000000" fill-rule="nonzero" fill-opacity="1" /><path clip-path="url(#clip940)" d="M817.438 1157.55 L825.077 1157.55 L825.077 1131.19 L816.767 1132.85 L816.767 1128.59 L825.03 1126.93 L829.706 1126.93 L829.706 1157.55 L837.345 1157.55 L837.345 1161.49 L817.438 1161.49 L817.438 1157.55 Z" fill="#000000" fill-rule="nonzero" fill-opacity="1" /><path clip-path="url(#clip940)" d="M846.836 1126.93 L865.192 1126.93 L865.192 1130.86 L851.118 1130.86 L851.118 1139.34 Q852.137 1138.99 853.155 1138.83 Q854.174 1138.64 855.192 1138.64 Q860.979 1138.64 864.359 1141.81 Q867.739 1144.98 867.739 1150.4 Q867.739 1155.98 864.266 1159.08 Q860.794 1162.16 854.475 1162.16 Q852.299 1162.16 850.03 1161.79 Q847.785 1161.42 845.378 1160.68 L845.378 1155.98 Q847.461 1157.11 849.683 1157.67 Q851.905 1158.22 854.382 1158.22 Q858.387 1158.22 860.725 1156.12 Q863.063 1154.01 863.063 1150.4 Q863.063 1146.79 860.725 1144.68 Q858.387 1142.58 854.382 1142.58 Q852.507 1142.58 850.632 1142.99 Q848.78 1143.41 846.836 1144.29 L846.836 1126.93 Z" fill="#000000" fill-rule="nonzero" fill-opacity="1" /><path clip-path="url(#clip940)" d="M1034.91 1157.55 L1051.23 1157.55 L1051.23 1161.49 L1029.28 1161.49 L1029.28 1157.55 Q1031.94 1154.8 1036.53 1150.17 Q1041.13 1145.52 1042.31 1144.17 Q1044.56 1141.65 1045.44 1139.91 Q1046.34 1138.15 1046.34 1136.46 Q1046.34 1133.71 1044.4 1131.97 Q1042.48 1130.24 1039.37 1130.24 Q1037.18 1130.24 1034.72 1131 Q1032.29 1131.77 1029.51 1133.32 L1029.51 1128.59 Q1032.34 1127.46 1034.79 1126.88 Q1037.25 1126.3 1039.28 1126.3 Q1044.65 1126.3 1047.85 1128.99 Q1051.04 1131.67 1051.04 1136.16 Q1051.04 1138.29 1050.23 1140.21 Q1049.44 1142.11 1047.34 1144.71 Q1046.76 1145.38 1043.66 1148.59 Q1040.56 1151.79 1034.91 1157.55 Z" fill="#000000" fill-rule="nonzero" fill-opacity="1" /><path clip-path="url(#clip940)" d="M1071.04 1130.01 Q1067.43 1130.01 1065.6 1133.57 Q1063.8 1137.11 1063.8 1144.24 Q1063.8 1151.35 1065.6 1154.91 Q1067.43 1158.46 1071.04 1158.46 Q1074.68 1158.46 1076.48 1154.91 Q1078.31 1151.35 1078.31 1144.24 Q1078.31 1137.11 1076.48 1133.57 Q1074.68 1130.01 1071.04 1130.01 M1071.04 1126.3 Q1076.85 1126.3 1079.91 1130.91 Q1082.99 1135.49 1082.99 1144.24 Q1082.99 1152.97 1079.91 1157.58 Q1076.85 1162.16 1071.04 1162.16 Q1065.23 1162.16 1062.15 1157.58 Q1059.1 1152.97 1059.1 1144.24 Q1059.1 1135.49 1062.15 1130.91 Q1065.23 1126.3 1071.04 1126.3 Z" fill="#000000" fill-rule="nonzero" fill-opacity="1" /><polyline clip-path="url(#clip940)" style="stroke:#000000; stroke-linecap:round; stroke-linejoin:round; stroke-width:4; stroke-opacity:1; fill:none" points="216.436,1099.09 216.436,92.1521 "/>
<polyline clip-path="url(#clip940)" style="stroke:#000000; stroke-linecap:round; stroke-linejoin:round; stroke-width:4; stroke-opacity:1; fill:none" points="216.436,878.96 235.334,878.96 "/>
<polyline clip-path="url(#clip940)" style="stroke:#000000; stroke-linecap:round; stroke-linejoin:round; stroke-width:4; stroke-opacity:1; fill:none" points="216.436,626.19 235.334,626.19 "/>
<polyline clip-path="url(#clip940)" style="stroke:#000000; stroke-linecap:round; stroke-linejoin:round; stroke-width:4; stroke-opacity:1; fill:none" points="216.436,373.42 235.334,373.42 "/>
<polyline clip-path="url(#clip940)" style="stroke:#000000; stroke-linecap:round; stroke-linejoin:round; stroke-width:4; stroke-opacity:1; fill:none" points="216.436,120.65 235.334,120.65 "/>
<path clip-path="url(#clip940)" d="M63.9319 864.759 Q60.3208 864.759 58.4921 868.324 Q56.6865 871.865 56.6865 878.995 Q56.6865 886.102 58.4921 889.666 Q60.3208 893.208 63.9319 893.208 Q67.5661 893.208 69.3717 889.666 Q71.2004 886.102 71.2004 878.995 Q71.2004 871.865 69.3717 868.324 Q67.5661 864.759 63.9319 864.759 M63.9319 861.055 Q69.742 861.055 72.7976 865.662 Q75.8763 870.245 75.8763 878.995 Q75.8763 887.722 72.7976 892.328 Q69.742 896.912 63.9319 896.912 Q58.1217 896.912 55.043 892.328 Q51.9875 887.722 51.9875 878.995 Q51.9875 870.245 55.043 865.662 Q58.1217 861.055 63.9319 861.055 Z" fill="#000000" fill-rule="nonzero" fill-opacity="1" /><path clip-path="url(#clip940)" d="M84.0938 890.361 L88.978 890.361 L88.978 896.24 L84.0938 896.24 L84.0938 890.361 Z" fill="#000000" fill-rule="nonzero" fill-opacity="1" /><path clip-path="url(#clip940)" d="M109.163 864.759 Q105.552 864.759 103.723 868.324 Q101.918 871.865 101.918 878.995 Q101.918 886.102 103.723 889.666 Q105.552 893.208 109.163 893.208 Q112.797 893.208 114.603 889.666 Q116.432 886.102 116.432 878.995 Q116.432 871.865 114.603 868.324 Q112.797 864.759 109.163 864.759 M109.163 861.055 Q114.973 861.055 118.029 865.662 Q121.107 870.245 121.107 878.995 Q121.107 887.722 118.029 892.328 Q114.973 896.912 109.163 896.912 Q103.353 896.912 100.274 892.328 Q97.2187 887.722 97.2187 878.995 Q97.2187 870.245 100.274 865.662 Q103.353 861.055 109.163 861.055 Z" fill="#000000" fill-rule="nonzero" fill-opacity="1" /><path clip-path="url(#clip940)" d="M139.325 864.759 Q135.714 864.759 133.885 868.324 Q132.08 871.865 132.08 878.995 Q132.08 886.102 133.885 889.666 Q135.714 893.208 139.325 893.208 Q142.959 893.208 144.765 889.666 Q146.593 886.102 146.593 878.995 Q146.593 871.865 144.765 868.324 Q142.959 864.759 139.325 864.759 M139.325 861.055 Q145.135 861.055 148.191 865.662 Q151.269 870.245 151.269 878.995 Q151.269 887.722 148.191 892.328 Q145.135 896.912 139.325 896.912 Q133.515 896.912 130.436 892.328 Q127.381 887.722 127.381 878.995 Q127.381 870.245 130.436 865.662 Q133.515 861.055 139.325 861.055 Z" fill="#000000" fill-rule="nonzero" fill-opacity="1" /><path clip-path="url(#clip940)" d="M159.533 861.68 L177.89 861.68 L177.89 865.616 L163.816 865.616 L163.816 874.088 Q164.834 873.74 165.853 873.578 Q166.871 873.393 167.89 873.393 Q173.677 873.393 177.056 876.565 Q180.436 879.736 180.436 885.152 Q180.436 890.731 176.964 893.833 Q173.491 896.912 167.172 896.912 Q164.996 896.912 162.728 896.541 Q160.482 896.171 158.075 895.43 L158.075 890.731 Q160.158 891.865 162.38 892.421 Q164.603 892.976 167.079 892.976 Q171.084 892.976 173.422 890.87 Q175.76 888.764 175.76 885.152 Q175.76 881.541 173.422 879.435 Q171.084 877.328 167.079 877.328 Q165.204 877.328 163.329 877.745 Q161.478 878.162 159.533 879.041 L159.533 861.68 Z" fill="#000000" fill-rule="nonzero" fill-opacity="1" /><path clip-path="url(#clip940)" d="M62.9365 611.989 Q59.3254 611.989 57.4967 615.554 Q55.6912 619.095 55.6912 626.225 Q55.6912 633.332 57.4967 636.896 Q59.3254 640.438 62.9365 640.438 Q66.5707 640.438 68.3763 636.896 Q70.205 633.332 70.205 626.225 Q70.205 619.095 68.3763 615.554 Q66.5707 611.989 62.9365 611.989 M62.9365 608.285 Q68.7467 608.285 71.8022 612.892 Q74.8809 617.475 74.8809 626.225 Q74.8809 634.952 71.8022 639.558 Q68.7467 644.142 62.9365 644.142 Q57.1264 644.142 54.0477 639.558 Q50.9921 634.952 50.9921 626.225 Q50.9921 617.475 54.0477 612.892 Q57.1264 608.285 62.9365 608.285 Z" fill="#000000" fill-rule="nonzero" fill-opacity="1" /><path clip-path="url(#clip940)" d="M83.0984 637.591 L87.9827 637.591 L87.9827 643.47 L83.0984 643.47 L83.0984 637.591 Z" fill="#000000" fill-rule="nonzero" fill-opacity="1" /><path clip-path="url(#clip940)" d="M108.168 611.989 Q104.557 611.989 102.728 615.554 Q100.922 619.095 100.922 626.225 Q100.922 633.332 102.728 636.896 Q104.557 640.438 108.168 640.438 Q111.802 640.438 113.608 636.896 Q115.436 633.332 115.436 626.225 Q115.436 619.095 113.608 615.554 Q111.802 611.989 108.168 611.989 M108.168 608.285 Q113.978 608.285 117.033 612.892 Q120.112 617.475 120.112 626.225 Q120.112 634.952 117.033 639.558 Q113.978 644.142 108.168 644.142 Q102.358 644.142 99.2789 639.558 Q96.2234 634.952 96.2234 626.225 Q96.2234 617.475 99.2789 612.892 Q102.358 608.285 108.168 608.285 Z" fill="#000000" fill-rule="nonzero" fill-opacity="1" /><path clip-path="url(#clip940)" d="M129.14 639.535 L136.779 639.535 L136.779 613.17 L128.469 614.836 L128.469 610.577 L136.732 608.91 L141.408 608.91 L141.408 639.535 L149.047 639.535 L149.047 643.47 L129.14 643.47 L129.14 639.535 Z" fill="#000000" fill-rule="nonzero" fill-opacity="1" /><path clip-path="url(#clip940)" d="M168.491 611.989 Q164.88 611.989 163.052 615.554 Q161.246 619.095 161.246 626.225 Q161.246 633.332 163.052 636.896 Q164.88 640.438 168.491 640.438 Q172.126 640.438 173.931 636.896 Q175.76 633.332 175.76 626.225 Q175.76 619.095 173.931 615.554 Q172.126 611.989 168.491 611.989 M168.491 608.285 Q174.302 608.285 177.357 612.892 Q180.436 617.475 180.436 626.225 Q180.436 634.952 177.357 639.558 Q174.302 644.142 168.491 644.142 Q162.681 644.142 159.603 639.558 Q156.547 634.952 156.547 626.225 Q156.547 617.475 159.603 612.892 Q162.681 608.285 168.491 608.285 Z" fill="#000000" fill-rule="nonzero" fill-opacity="1" /><path clip-path="url(#clip940)" d="M63.9319 359.219 Q60.3208 359.219 58.4921 362.784 Q56.6865 366.325 56.6865 373.455 Q56.6865 380.561 58.4921 384.126 Q60.3208 387.668 63.9319 387.668 Q67.5661 387.668 69.3717 384.126 Q71.2004 380.561 71.2004 373.455 Q71.2004 366.325 69.3717 362.784 Q67.5661 359.219 63.9319 359.219 M63.9319 355.515 Q69.742 355.515 72.7976 360.122 Q75.8763 364.705 75.8763 373.455 Q75.8763 382.182 72.7976 386.788 Q69.742 391.372 63.9319 391.372 Q58.1217 391.372 55.043 386.788 Q51.9875 382.182 51.9875 373.455 Q51.9875 364.705 55.043 360.122 Q58.1217 355.515 63.9319 355.515 Z" fill="#000000" fill-rule="nonzero" fill-opacity="1" /><path clip-path="url(#clip940)" d="M84.0938 384.821 L88.978 384.821 L88.978 390.7 L84.0938 390.7 L84.0938 384.821 Z" fill="#000000" fill-rule="nonzero" fill-opacity="1" /><path clip-path="url(#clip940)" d="M109.163 359.219 Q105.552 359.219 103.723 362.784 Q101.918 366.325 101.918 373.455 Q101.918 380.561 103.723 384.126 Q105.552 387.668 109.163 387.668 Q112.797 387.668 114.603 384.126 Q116.432 380.561 116.432 373.455 Q116.432 366.325 114.603 362.784 Q112.797 359.219 109.163 359.219 M109.163 355.515 Q114.973 355.515 118.029 360.122 Q121.107 364.705 121.107 373.455 Q121.107 382.182 118.029 386.788 Q114.973 391.372 109.163 391.372 Q103.353 391.372 100.274 386.788 Q97.2187 382.182 97.2187 373.455 Q97.2187 364.705 100.274 360.122 Q103.353 355.515 109.163 355.515 Z" fill="#000000" fill-rule="nonzero" fill-opacity="1" /><path clip-path="url(#clip940)" d="M130.135 386.765 L137.774 386.765 L137.774 360.4 L129.464 362.066 L129.464 357.807 L137.728 356.14 L142.404 356.14 L142.404 386.765 L150.043 386.765 L150.043 390.7 L130.135 390.7 L130.135 386.765 Z" fill="#000000" fill-rule="nonzero" fill-opacity="1" /><path clip-path="url(#clip940)" d="M159.533 356.14 L177.89 356.14 L177.89 360.075 L163.816 360.075 L163.816 368.548 Q164.834 368.2 165.853 368.038 Q166.871 367.853 167.89 367.853 Q173.677 367.853 177.056 371.025 Q180.436 374.196 180.436 379.612 Q180.436 385.191 176.964 388.293 Q173.491 391.372 167.172 391.372 Q164.996 391.372 162.728 391.001 Q160.482 390.631 158.075 389.89 L158.075 385.191 Q160.158 386.325 162.38 386.881 Q164.603 387.436 167.079 387.436 Q171.084 387.436 173.422 385.33 Q175.76 383.224 175.76 379.612 Q175.76 376.001 173.422 373.895 Q171.084 371.788 167.079 371.788 Q165.204 371.788 163.329 372.205 Q161.478 372.622 159.533 373.501 L159.533 356.14 Z" fill="#000000" fill-rule="nonzero" fill-opacity="1" /><path clip-path="url(#clip940)" d="M62.9365 106.449 Q59.3254 106.449 57.4967 110.014 Q55.6912 113.555 55.6912 120.685 Q55.6912 127.791 57.4967 131.356 Q59.3254 134.898 62.9365 134.898 Q66.5707 134.898 68.3763 131.356 Q70.205 127.791 70.205 120.685 Q70.205 113.555 68.3763 110.014 Q66.5707 106.449 62.9365 106.449 M62.9365 102.745 Q68.7467 102.745 71.8022 107.352 Q74.8809 111.935 74.8809 120.685 Q74.8809 129.412 71.8022 134.018 Q68.7467 138.602 62.9365 138.602 Q57.1264 138.602 54.0477 134.018 Q50.9921 129.412 50.9921 120.685 Q50.9921 111.935 54.0477 107.352 Q57.1264 102.745 62.9365 102.745 Z" fill="#000000" fill-rule="nonzero" fill-opacity="1" /><path clip-path="url(#clip940)" d="M83.0984 132.051 L87.9827 132.051 L87.9827 137.93 L83.0984 137.93 L83.0984 132.051 Z" fill="#000000" fill-rule="nonzero" fill-opacity="1" /><path clip-path="url(#clip940)" d="M108.168 106.449 Q104.557 106.449 102.728 110.014 Q100.922 113.555 100.922 120.685 Q100.922 127.791 102.728 131.356 Q104.557 134.898 108.168 134.898 Q111.802 134.898 113.608 131.356 Q115.436 127.791 115.436 120.685 Q115.436 113.555 113.608 110.014 Q111.802 106.449 108.168 106.449 M108.168 102.745 Q113.978 102.745 117.033 107.352 Q120.112 111.935 120.112 120.685 Q120.112 129.412 117.033 134.018 Q113.978 138.602 108.168 138.602 Q102.358 138.602 99.2789 134.018 Q96.2234 129.412 96.2234 120.685 Q96.2234 111.935 99.2789 107.352 Q102.358 102.745 108.168 102.745 Z" fill="#000000" fill-rule="nonzero" fill-opacity="1" /><path clip-path="url(#clip940)" d="M132.357 133.995 L148.677 133.995 L148.677 137.93 L126.732 137.93 L126.732 133.995 Q129.394 131.241 133.978 126.611 Q138.584 121.958 139.765 120.616 Q142.01 118.092 142.89 116.356 Q143.793 114.597 143.793 112.907 Q143.793 110.153 141.848 108.417 Q139.927 106.68 136.825 106.68 Q134.626 106.68 132.172 107.444 Q129.742 108.208 126.964 109.759 L126.964 105.037 Q129.788 103.903 132.242 103.324 Q134.695 102.745 136.732 102.745 Q142.103 102.745 145.297 105.43 Q148.492 108.116 148.492 112.606 Q148.492 114.736 147.681 116.657 Q146.894 118.555 144.788 121.148 Q144.209 121.819 141.107 125.037 Q138.006 128.231 132.357 133.995 Z" fill="#000000" fill-rule="nonzero" fill-opacity="1" /><path clip-path="url(#clip940)" d="M168.491 106.449 Q164.88 106.449 163.052 110.014 Q161.246 113.555 161.246 120.685 Q161.246 127.791 163.052 131.356 Q164.88 134.898 168.491 134.898 Q172.126 134.898 173.931 131.356 Q175.76 127.791 175.76 120.685 Q175.76 113.555 173.931 110.014 Q172.126 106.449 168.491 106.449 M168.491 102.745 Q174.302 102.745 177.357 107.352 Q180.436 111.935 180.436 120.685 Q180.436 129.412 177.357 134.018 Q174.302 138.602 168.491 138.602 Q162.681 138.602 159.603 134.018 Q156.547 129.412 156.547 120.685 Q156.547 111.935 159.603 107.352 Q162.681 102.745 168.491 102.745 Z" fill="#000000" fill-rule="nonzero" fill-opacity="1" /><path clip-path="url(#clip940)" d="M625.153 30.8748 L625.153 33.2186 L603.122 33.2186 Q603.435 38.1665 606.091 40.7706 Q608.773 43.3487 613.539 43.3487 Q616.299 43.3487 618.877 42.6716 Q621.481 41.9946 624.033 40.6404 L624.033 45.1716 Q621.455 46.2654 618.747 46.8383 Q616.039 47.4112 613.252 47.4112 Q606.273 47.4112 602.185 43.3487 Q598.122 39.2862 598.122 32.3592 Q598.122 25.1978 601.976 21.0051 Q605.856 16.7864 612.419 16.7864 Q618.304 16.7864 621.716 20.5884 Q625.153 24.3645 625.153 30.8748 M620.362 29.4686 Q620.309 25.5363 618.148 23.1926 Q616.013 20.8488 612.471 20.8488 Q608.461 20.8488 606.039 23.1145 Q603.643 25.3801 603.278 29.4946 L620.362 29.4686 Z" fill="#000000" fill-rule="nonzero" fill-opacity="1" /><path clip-path="url(#clip940)" d="M632.523 35.1456 L632.523 17.4895 L637.315 17.4895 L637.315 34.9634 Q637.315 39.104 638.929 41.1873 Q640.544 43.2446 643.773 43.2446 Q647.653 43.2446 649.893 40.7706 Q652.158 38.2967 652.158 34.0259 L652.158 17.4895 L656.95 17.4895 L656.95 46.656 L652.158 46.656 L652.158 42.1769 Q650.413 44.8331 648.096 46.1352 Q645.804 47.4112 642.757 47.4112 Q637.731 47.4112 635.127 44.2862 Q632.523 41.1612 632.523 35.1456 M644.58 16.7864 L644.58 16.7864 Z" fill="#000000" fill-rule="nonzero" fill-opacity="1" /><path clip-path="url(#clip940)" d="M683.721 21.9686 Q682.913 21.4999 681.95 21.2916 Q681.012 21.0572 679.866 21.0572 Q675.804 21.0572 673.616 23.7134 Q671.455 26.3436 671.455 31.2915 L671.455 46.656 L666.637 46.656 L666.637 17.4895 L671.455 17.4895 L671.455 22.0207 Q672.965 19.3645 675.387 18.0884 Q677.809 16.7864 681.273 16.7864 Q681.767 16.7864 682.366 16.8645 Q682.965 16.9166 683.695 17.0468 L683.721 21.9686 Z" fill="#000000" fill-rule="nonzero" fill-opacity="1" /><path clip-path="url(#clip940)" d="M688.747 17.4895 L693.538 17.4895 L693.538 46.656 L688.747 46.656 L688.747 17.4895 M688.747 6.13538 L693.538 6.13538 L693.538 12.2031 L688.747 12.2031 L688.747 6.13538 Z" fill="#000000" fill-rule="nonzero" fill-opacity="1" /><path clip-path="url(#clip940)" d="M724.502 32.0988 Q724.502 26.8124 722.314 23.8176 Q720.153 20.7968 716.351 20.7968 Q712.549 20.7968 710.361 23.8176 Q708.2 26.8124 708.2 32.0988 Q708.2 37.3852 710.361 40.406 Q712.549 43.4008 716.351 43.4008 Q720.153 43.4008 722.314 40.406 Q724.502 37.3852 724.502 32.0988 M708.2 21.9165 Q709.71 19.3124 712.002 18.0624 Q714.319 16.7864 717.523 16.7864 Q722.835 16.7864 726.142 21.0051 Q729.476 25.2238 729.476 32.0988 Q729.476 38.9737 726.142 43.1925 Q722.835 47.4112 717.523 47.4112 Q714.319 47.4112 712.002 46.1612 Q709.71 44.8852 708.2 42.281 L708.2 46.656 L703.382 46.656 L703.382 6.13538 L708.2 6.13538 L708.2 21.9165 Z" fill="#000000" fill-rule="nonzero" fill-opacity="1" /><path clip-path="url(#clip940)" d="M748.72 20.8488 Q744.866 20.8488 742.627 23.8697 Q740.387 26.8644 740.387 32.0988 Q740.387 37.3331 742.6 40.354 Q744.84 43.3487 748.72 43.3487 Q752.548 43.3487 754.788 40.3279 Q757.028 37.3071 757.028 32.0988 Q757.028 26.9165 754.788 23.8957 Q752.548 20.8488 748.72 20.8488 M748.72 16.7864 Q754.97 16.7864 758.538 20.8488 Q762.106 24.9113 762.106 32.0988 Q762.106 39.2602 758.538 43.3487 Q754.97 47.4112 748.72 47.4112 Q742.444 47.4112 738.877 43.3487 Q735.335 39.2602 735.335 32.0988 Q735.335 24.9113 738.877 20.8488 Q742.444 16.7864 748.72 16.7864 Z" fill="#000000" fill-rule="nonzero" fill-opacity="1" /><path clip-path="url(#clip940)" d="M786.949 21.9686 Q786.142 21.4999 785.178 21.2916 Q784.241 21.0572 783.095 21.0572 Q779.033 21.0572 776.845 23.7134 Q774.684 26.3436 774.684 31.2915 L774.684 46.656 L769.866 46.656 L769.866 17.4895 L774.684 17.4895 L774.684 22.0207 Q776.194 19.3645 778.616 18.0884 Q781.038 16.7864 784.501 16.7864 Q784.996 16.7864 785.595 16.8645 Q786.194 16.9166 786.923 17.0468 L786.949 21.9686 Z" fill="#000000" fill-rule="nonzero" fill-opacity="1" /><path clip-path="url(#clip942)" d="M243.385 1048.52 L286.161 1048.52 L328.937 1066.04 L371.714 1060.64 L414.49 1061.83 L457.266 1025.36 L500.042 1018.45 L542.819 1068.93 L585.595 1070.59 L628.371 1062.09 L671.148 1026.69 L713.924 1018.97 L756.7 1060.64 L799.476 1029.32 L842.253 1044.26 L885.029 1027.04 L927.805 1025.01 L970.581 1011.87 L1013.36 1008.66 L1056.13 1051.64 L1098.91 1055.25 L1141.69 1057.93 L1141.69 947.156 L1098.91 895.357 L1056.13 874.989 L1013.36 886.357 L970.581 902.833 L927.805 935.446 L885.029 908.732 L842.253 911.706 L799.476 907.643 L756.7 909.901 L713.924 920.26 L671.148 952.891 L628.371 969.855 L585.595 957.123 L542.819 943.992 L500.042 957.834 L457.266 1003.04 L414.49 983.746 L371.714 1006.78 L328.937 1010.43 L286.161 1048.52 L243.385 1048.52  Z" fill="#009af9" fill-rule="evenodd" fill-opacity="0.1"/>
<polyline clip-path="url(#clip942)" style="stroke:#009af9; stroke-linecap:round; stroke-linejoin:round; stroke-width:4; stroke-opacity:1; fill:none" points="243.385,1048.52 286.161,1048.52 328.937,1038.23 371.714,1033.71 414.49,1022.79 457.266,1014.2 500.042,988.141 542.819,1006.46 585.595,1013.86 628.371,1015.97 671.148,989.792 713.924,969.615 756.7,985.273 799.476,968.48 842.253,977.981 885.029,967.885 927.805,980.226 970.581,957.351 1013.36,947.509 1056.13,963.316 1098.91,975.304 1141.69,1002.54 "/>
<path clip-path="url(#clip942)" d="M243.385 1048.52 L286.161 1048.52 L328.937 120.65 L371.714 120.65 L414.49 120.65 L457.266 120.65 L500.042 120.65 L542.819 120.65 L585.595 120.65 L628.371 120.65 L671.148 120.65 L713.924 120.65 L756.7 120.65 L799.476 120.65 L842.253 120.65 L885.029 120.65 L927.805 120.65 L970.581 120.65 L1013.36 120.65 L1056.13 120.65 L1098.91 120.65 L1141.69 120.65 L1141.69 120.65 L1098.91 120.65 L1056.13 120.65 L1013.36 120.65 L970.581 120.65 L927.805 120.65 L885.029 120.65 L842.253 120.65 L799.476 120.65 L756.7 120.65 L713.924 120.65 L671.148 120.65 L628.371 120.65 L585.595 120.65 L542.819 120.65 L500.042 120.65 L457.266 120.65 L414.49 120.65 L371.714 120.65 L328.937 120.65 L286.161 1048.52 L243.385 1048.52  Z" fill="#e26f46" fill-rule="evenodd" fill-opacity="0.1"/>
<polyline clip-path="url(#clip942)" style="stroke:#e26f46; stroke-linecap:round; stroke-linejoin:round; stroke-width:4; stroke-opacity:1; fill:none" points="243.385,1048.52 286.161,1048.52 328.937,120.65 371.714,120.65 414.49,120.65 457.266,120.65 500.042,120.65 542.819,120.65 585.595,120.65 628.371,120.65 671.148,120.65 713.924,120.65 756.7,120.65 799.476,120.65 842.253,120.65 885.029,120.65 927.805,120.65 970.581,120.65 1013.36,120.65 1056.13,120.65 1098.91,120.65 1141.69,120.65 "/>
<path clip-path="url(#clip940)" d="M1400.56 1099.09 L2352.76 1099.09 L2352.76 92.1521 L1400.56 92.1521  Z" fill="#ffffff" fill-rule="evenodd" fill-opacity="1"/>
<defs>
  <clipPath id="clip943">
    <rect x="1400" y="92" width="953" height="1008"/>
  </clipPath>
</defs>
<polyline clip-path="url(#clip943)" style="stroke:#000000; stroke-linecap:round; stroke-linejoin:round; stroke-width:2; stroke-opacity:0.1; fill:none" points="1598.61,1099.09 1598.61,92.1521 "/>
<polyline clip-path="url(#clip943)" style="stroke:#000000; stroke-linecap:round; stroke-linejoin:round; stroke-width:2; stroke-opacity:0.1; fill:none" points="1812.49,1099.09 1812.49,92.1521 "/>
<polyline clip-path="url(#clip943)" style="stroke:#000000; stroke-linecap:round; stroke-linejoin:round; stroke-width:2; stroke-opacity:0.1; fill:none" points="2026.37,1099.09 2026.37,92.1521 "/>
<polyline clip-path="url(#clip943)" style="stroke:#000000; stroke-linecap:round; stroke-linejoin:round; stroke-width:2; stroke-opacity:0.1; fill:none" points="2240.25,1099.09 2240.25,92.1521 "/>
<polyline clip-path="url(#clip943)" style="stroke:#000000; stroke-linecap:round; stroke-linejoin:round; stroke-width:2; stroke-opacity:0.1; fill:none" points="1400.56,924.716 2352.76,924.716 "/>
<polyline clip-path="url(#clip943)" style="stroke:#000000; stroke-linecap:round; stroke-linejoin:round; stroke-width:2; stroke-opacity:0.1; fill:none" points="1400.56,724.81 2352.76,724.81 "/>
<polyline clip-path="url(#clip943)" style="stroke:#000000; stroke-linecap:round; stroke-linejoin:round; stroke-width:2; stroke-opacity:0.1; fill:none" points="1400.56,524.903 2352.76,524.903 "/>
<polyline clip-path="url(#clip943)" style="stroke:#000000; stroke-linecap:round; stroke-linejoin:round; stroke-width:2; stroke-opacity:0.1; fill:none" points="1400.56,324.997 2352.76,324.997 "/>
<polyline clip-path="url(#clip943)" style="stroke:#000000; stroke-linecap:round; stroke-linejoin:round; stroke-width:2; stroke-opacity:0.1; fill:none" points="1400.56,125.091 2352.76,125.091 "/>
<polyline clip-path="url(#clip940)" style="stroke:#000000; stroke-linecap:round; stroke-linejoin:round; stroke-width:4; stroke-opacity:1; fill:none" points="1400.56,1099.09 2352.76,1099.09 "/>
<polyline clip-path="url(#clip940)" style="stroke:#000000; stroke-linecap:round; stroke-linejoin:round; stroke-width:4; stroke-opacity:1; fill:none" points="1598.61,1099.09 1598.61,1080.19 "/>
<polyline clip-path="url(#clip940)" style="stroke:#000000; stroke-linecap:round; stroke-linejoin:round; stroke-width:4; stroke-opacity:1; fill:none" points="1812.49,1099.09 1812.49,1080.19 "/>
<polyline clip-path="url(#clip940)" style="stroke:#000000; stroke-linecap:round; stroke-linejoin:round; stroke-width:4; stroke-opacity:1; fill:none" points="2026.37,1099.09 2026.37,1080.19 "/>
<polyline clip-path="url(#clip940)" style="stroke:#000000; stroke-linecap:round; stroke-linejoin:round; stroke-width:4; stroke-opacity:1; fill:none" points="2240.25,1099.09 2240.25,1080.19 "/>
<path clip-path="url(#clip940)" d="M1588.89 1126.93 L1607.24 1126.93 L1607.24 1130.86 L1593.17 1130.86 L1593.17 1139.34 Q1594.19 1138.99 1595.21 1138.83 Q1596.23 1138.64 1597.24 1138.64 Q1603.03 1138.64 1606.41 1141.81 Q1609.79 1144.98 1609.79 1150.4 Q1609.79 1155.98 1606.32 1159.08 Q1602.85 1162.16 1596.53 1162.16 Q1594.35 1162.16 1592.08 1161.79 Q1589.84 1161.42 1587.43 1160.68 L1587.43 1155.98 Q1589.51 1157.11 1591.74 1157.67 Q1593.96 1158.22 1596.43 1158.22 Q1600.44 1158.22 1602.78 1156.12 Q1605.12 1154.01 1605.12 1150.4 Q1605.12 1146.79 1602.78 1144.68 Q1600.44 1142.58 1596.43 1142.58 Q1594.56 1142.58 1592.68 1142.99 Q1590.83 1143.41 1588.89 1144.29 L1588.89 1126.93 Z" fill="#000000" fill-rule="nonzero" fill-opacity="1" /><path clip-path="url(#clip940)" d="M1787.18 1157.55 L1794.82 1157.55 L1794.82 1131.19 L1786.51 1132.85 L1786.51 1128.59 L1794.77 1126.93 L1799.45 1126.93 L1799.45 1157.55 L1807.09 1157.55 L1807.09 1161.49 L1787.18 1161.49 L1787.18 1157.55 Z" fill="#000000" fill-rule="nonzero" fill-opacity="1" /><path clip-path="url(#clip940)" d="M1826.53 1130.01 Q1822.92 1130.01 1821.09 1133.57 Q1819.29 1137.11 1819.29 1144.24 Q1819.29 1151.35 1821.09 1154.91 Q1822.92 1158.46 1826.53 1158.46 Q1830.17 1158.46 1831.97 1154.91 Q1833.8 1151.35 1833.8 1144.24 Q1833.8 1137.11 1831.97 1133.57 Q1830.17 1130.01 1826.53 1130.01 M1826.53 1126.3 Q1832.34 1126.3 1835.4 1130.91 Q1838.48 1135.49 1838.48 1144.24 Q1838.48 1152.97 1835.4 1157.58 Q1832.34 1162.16 1826.53 1162.16 Q1820.72 1162.16 1817.64 1157.58 Q1814.59 1152.97 1814.59 1144.24 Q1814.59 1135.49 1817.64 1130.91 Q1820.72 1126.3 1826.53 1126.3 Z" fill="#000000" fill-rule="nonzero" fill-opacity="1" /><path clip-path="url(#clip940)" d="M2001.56 1157.55 L2009.2 1157.55 L2009.2 1131.19 L2000.89 1132.85 L2000.89 1128.59 L2009.15 1126.93 L2013.83 1126.93 L2013.83 1157.55 L2021.47 1157.55 L2021.47 1161.49 L2001.56 1161.49 L2001.56 1157.55 Z" fill="#000000" fill-rule="nonzero" fill-opacity="1" /><path clip-path="url(#clip940)" d="M2030.96 1126.93 L2049.31 1126.93 L2049.31 1130.86 L2035.24 1130.86 L2035.24 1139.34 Q2036.26 1138.99 2037.28 1138.83 Q2038.29 1138.64 2039.31 1138.64 Q2045.1 1138.64 2048.48 1141.81 Q2051.86 1144.98 2051.86 1150.4 Q2051.86 1155.98 2048.39 1159.08 Q2044.91 1162.16 2038.6 1162.16 Q2036.42 1162.16 2034.15 1161.79 Q2031.91 1161.42 2029.5 1160.68 L2029.5 1155.98 Q2031.58 1157.11 2033.8 1157.67 Q2036.03 1158.22 2038.5 1158.22 Q2042.51 1158.22 2044.85 1156.12 Q2047.18 1154.01 2047.18 1150.4 Q2047.18 1146.79 2044.85 1144.68 Q2042.51 1142.58 2038.5 1142.58 Q2036.63 1142.58 2034.75 1142.99 Q2032.9 1143.41 2030.96 1144.29 L2030.96 1126.93 Z" fill="#000000" fill-rule="nonzero" fill-opacity="1" /><path clip-path="url(#clip940)" d="M2219.03 1157.55 L2235.35 1157.55 L2235.35 1161.49 L2213.4 1161.49 L2213.4 1157.55 Q2216.06 1154.8 2220.65 1150.17 Q2225.25 1145.52 2226.43 1144.17 Q2228.68 1141.65 2229.56 1139.91 Q2230.46 1138.15 2230.46 1136.46 Q2230.46 1133.71 2228.52 1131.97 Q2226.6 1130.24 2223.5 1130.24 Q2221.3 1130.24 2218.84 1131 Q2216.41 1131.77 2213.63 1133.32 L2213.63 1128.59 Q2216.46 1127.46 2218.91 1126.88 Q2221.37 1126.3 2223.4 1126.3 Q2228.77 1126.3 2231.97 1128.99 Q2235.16 1131.67 2235.16 1136.16 Q2235.16 1138.29 2234.35 1140.21 Q2233.56 1142.11 2231.46 1144.71 Q2230.88 1145.38 2227.78 1148.59 Q2224.68 1151.79 2219.03 1157.55 Z" fill="#000000" fill-rule="nonzero" fill-opacity="1" /><path clip-path="url(#clip940)" d="M2255.16 1130.01 Q2251.55 1130.01 2249.72 1133.57 Q2247.92 1137.11 2247.92 1144.24 Q2247.92 1151.35 2249.72 1154.91 Q2251.55 1158.46 2255.16 1158.46 Q2258.8 1158.46 2260.6 1154.91 Q2262.43 1151.35 2262.43 1144.24 Q2262.43 1137.11 2260.6 1133.57 Q2258.8 1130.01 2255.16 1130.01 M2255.16 1126.3 Q2260.97 1126.3 2264.03 1130.91 Q2267.11 1135.49 2267.11 1144.24 Q2267.11 1152.97 2264.03 1157.58 Q2260.97 1162.16 2255.16 1162.16 Q2249.35 1162.16 2246.27 1157.58 Q2243.22 1152.97 2243.22 1144.24 Q2243.22 1135.49 2246.27 1130.91 Q2249.35 1126.3 2255.16 1126.3 Z" fill="#000000" fill-rule="nonzero" fill-opacity="1" /><polyline clip-path="url(#clip940)" style="stroke:#000000; stroke-linecap:round; stroke-linejoin:round; stroke-width:4; stroke-opacity:1; fill:none" points="1400.56,1099.09 1400.56,92.1521 "/>
<polyline clip-path="url(#clip940)" style="stroke:#000000; stroke-linecap:round; stroke-linejoin:round; stroke-width:4; stroke-opacity:1; fill:none" points="1400.56,924.716 1419.45,924.716 "/>
<polyline clip-path="url(#clip940)" style="stroke:#000000; stroke-linecap:round; stroke-linejoin:round; stroke-width:4; stroke-opacity:1; fill:none" points="1400.56,724.81 1419.45,724.81 "/>
<polyline clip-path="url(#clip940)" style="stroke:#000000; stroke-linecap:round; stroke-linejoin:round; stroke-width:4; stroke-opacity:1; fill:none" points="1400.56,524.903 1419.45,524.903 "/>
<polyline clip-path="url(#clip940)" style="stroke:#000000; stroke-linecap:round; stroke-linejoin:round; stroke-width:4; stroke-opacity:1; fill:none" points="1400.56,324.997 1419.45,324.997 "/>
<polyline clip-path="url(#clip940)" style="stroke:#000000; stroke-linecap:round; stroke-linejoin:round; stroke-width:4; stroke-opacity:1; fill:none" points="1400.56,125.091 1419.45,125.091 "/>
<path clip-path="url(#clip940)" d="M1269.63 938.06 L1277.27 938.06 L1277.27 911.695 L1268.95 913.361 L1268.95 909.102 L1277.22 907.436 L1281.89 907.436 L1281.89 938.06 L1289.53 938.06 L1289.53 941.996 L1269.63 941.996 L1269.63 938.06 Z" fill="#000000" fill-rule="nonzero" fill-opacity="1" /><path clip-path="url(#clip940)" d="M1298.98 936.116 L1303.86 936.116 L1303.86 941.996 L1298.98 941.996 L1298.98 936.116 Z" fill="#000000" fill-rule="nonzero" fill-opacity="1" /><path clip-path="url(#clip940)" d="M1324.05 910.514 Q1320.44 910.514 1318.61 914.079 Q1316.8 917.621 1316.8 924.75 Q1316.8 931.857 1318.61 935.422 Q1320.44 938.963 1324.05 938.963 Q1327.68 938.963 1329.49 935.422 Q1331.32 931.857 1331.32 924.75 Q1331.32 917.621 1329.49 914.079 Q1327.68 910.514 1324.05 910.514 M1324.05 906.811 Q1329.86 906.811 1332.91 911.417 Q1335.99 916 1335.99 924.75 Q1335.99 933.477 1332.91 938.084 Q1329.86 942.667 1324.05 942.667 Q1318.24 942.667 1315.16 938.084 Q1312.1 933.477 1312.1 924.75 Q1312.1 916 1315.16 911.417 Q1318.24 906.811 1324.05 906.811 Z" fill="#000000" fill-rule="nonzero" fill-opacity="1" /><path clip-path="url(#clip940)" d="M1348.24 938.06 L1364.56 938.06 L1364.56 941.996 L1342.61 941.996 L1342.61 938.06 Q1345.27 935.306 1349.86 930.676 Q1354.46 926.023 1355.64 924.681 Q1357.89 922.158 1358.77 920.422 Q1359.67 918.662 1359.67 916.973 Q1359.67 914.218 1357.73 912.482 Q1355.81 910.746 1352.7 910.746 Q1350.51 910.746 1348.05 911.51 Q1345.62 912.274 1342.84 913.824 L1342.84 909.102 Q1345.67 907.968 1348.12 907.389 Q1350.57 906.811 1352.61 906.811 Q1357.98 906.811 1361.18 909.496 Q1364.37 912.181 1364.37 916.672 Q1364.37 918.801 1363.56 920.723 Q1362.77 922.621 1360.67 925.213 Q1360.09 925.885 1356.99 929.102 Q1353.89 932.297 1348.24 938.06 Z" fill="#000000" fill-rule="nonzero" fill-opacity="1" /><path clip-path="url(#clip940)" d="M1269.02 738.154 L1276.66 738.154 L1276.66 711.789 L1268.35 713.455 L1268.35 709.196 L1276.62 707.53 L1281.29 707.53 L1281.29 738.154 L1288.93 738.154 L1288.93 742.09 L1269.02 742.09 L1269.02 738.154 Z" fill="#000000" fill-rule="nonzero" fill-opacity="1" /><path clip-path="url(#clip940)" d="M1298.38 736.21 L1303.26 736.21 L1303.26 742.09 L1298.38 742.09 L1298.38 736.21 Z" fill="#000000" fill-rule="nonzero" fill-opacity="1" /><path clip-path="url(#clip940)" d="M1323.45 710.608 Q1319.83 710.608 1318.01 714.173 Q1316.2 717.715 1316.2 724.844 Q1316.2 731.951 1318.01 735.515 Q1319.83 739.057 1323.45 739.057 Q1327.08 739.057 1328.89 735.515 Q1330.71 731.951 1330.71 724.844 Q1330.71 717.715 1328.89 714.173 Q1327.08 710.608 1323.45 710.608 M1323.45 706.905 Q1329.26 706.905 1332.31 711.511 Q1335.39 716.094 1335.39 724.844 Q1335.39 733.571 1332.31 738.178 Q1329.26 742.761 1323.45 742.761 Q1317.64 742.761 1314.56 738.178 Q1311.5 733.571 1311.5 724.844 Q1311.5 716.094 1314.56 711.511 Q1317.64 706.905 1323.45 706.905 Z" fill="#000000" fill-rule="nonzero" fill-opacity="1" /><path clip-path="url(#clip940)" d="M1343.65 707.53 L1362.01 707.53 L1362.01 711.465 L1347.94 711.465 L1347.94 719.937 Q1348.95 719.59 1349.97 719.428 Q1350.99 719.242 1352.01 719.242 Q1357.8 719.242 1361.18 722.414 Q1364.56 725.585 1364.56 731.002 Q1364.56 736.58 1361.08 739.682 Q1357.61 742.761 1351.29 742.761 Q1349.12 742.761 1346.85 742.39 Q1344.6 742.02 1342.2 741.279 L1342.2 736.58 Q1344.28 737.715 1346.5 738.27 Q1348.72 738.826 1351.2 738.826 Q1355.2 738.826 1357.54 736.719 Q1359.88 734.613 1359.88 731.002 Q1359.88 727.391 1357.54 725.284 Q1355.2 723.178 1351.2 723.178 Q1349.32 723.178 1347.45 723.594 Q1345.6 724.011 1343.65 724.891 L1343.65 707.53 Z" fill="#000000" fill-rule="nonzero" fill-opacity="1" /><path clip-path="url(#clip940)" d="M1268.12 538.248 L1275.76 538.248 L1275.76 511.883 L1267.45 513.549 L1267.45 509.29 L1275.71 507.623 L1280.39 507.623 L1280.39 538.248 L1288.03 538.248 L1288.03 542.183 L1268.12 542.183 L1268.12 538.248 Z" fill="#000000" fill-rule="nonzero" fill-opacity="1" /><path clip-path="url(#clip940)" d="M1297.47 536.304 L1302.36 536.304 L1302.36 542.183 L1297.47 542.183 L1297.47 536.304 Z" fill="#000000" fill-rule="nonzero" fill-opacity="1" /><path clip-path="url(#clip940)" d="M1322.54 510.702 Q1318.93 510.702 1317.1 514.267 Q1315.3 517.809 1315.3 524.938 Q1315.3 532.045 1317.1 535.609 Q1318.93 539.151 1322.54 539.151 Q1326.18 539.151 1327.98 535.609 Q1329.81 532.045 1329.81 524.938 Q1329.81 517.809 1327.98 514.267 Q1326.18 510.702 1322.54 510.702 M1322.54 506.998 Q1328.35 506.998 1331.41 511.605 Q1334.49 516.188 1334.49 524.938 Q1334.49 533.665 1331.41 538.271 Q1328.35 542.855 1322.54 542.855 Q1316.73 542.855 1313.65 538.271 Q1310.6 533.665 1310.6 524.938 Q1310.6 516.188 1313.65 511.605 Q1316.73 506.998 1322.54 506.998 Z" fill="#000000" fill-rule="nonzero" fill-opacity="1" /><path clip-path="url(#clip940)" d="M1352.7 525.771 Q1349.37 525.771 1347.45 527.554 Q1345.55 529.336 1345.55 532.461 Q1345.55 535.586 1347.45 537.369 Q1349.37 539.151 1352.7 539.151 Q1356.04 539.151 1357.96 537.369 Q1359.88 535.563 1359.88 532.461 Q1359.88 529.336 1357.96 527.554 Q1356.06 525.771 1352.7 525.771 M1348.03 523.781 Q1345.02 523.04 1343.33 520.98 Q1341.66 518.92 1341.66 515.957 Q1341.66 511.813 1344.6 509.406 Q1347.57 506.998 1352.7 506.998 Q1357.87 506.998 1360.81 509.406 Q1363.75 511.813 1363.75 515.957 Q1363.75 518.92 1362.06 520.98 Q1360.39 523.04 1357.4 523.781 Q1360.78 524.568 1362.66 526.859 Q1364.56 529.151 1364.56 532.461 Q1364.56 537.484 1361.48 540.17 Q1358.42 542.855 1352.7 542.855 Q1346.99 542.855 1343.91 540.17 Q1340.85 537.484 1340.85 532.461 Q1340.85 529.151 1342.75 526.859 Q1344.65 524.568 1348.03 523.781 M1346.32 516.397 Q1346.32 519.082 1347.98 520.586 Q1349.67 522.091 1352.7 522.091 Q1355.71 522.091 1357.4 520.586 Q1359.12 519.082 1359.12 516.397 Q1359.12 513.711 1357.4 512.207 Q1355.71 510.702 1352.7 510.702 Q1349.67 510.702 1347.98 512.207 Q1346.32 513.711 1346.32 516.397 Z" fill="#000000" fill-rule="nonzero" fill-opacity="1" /><path clip-path="url(#clip940)" d="M1269.26 338.342 L1276.89 338.342 L1276.89 311.977 L1268.58 313.643 L1268.58 309.384 L1276.85 307.717 L1281.52 307.717 L1281.52 338.342 L1289.16 338.342 L1289.16 342.277 L1269.26 342.277 L1269.26 338.342 Z" fill="#000000" fill-rule="nonzero" fill-opacity="1" /><path clip-path="url(#clip940)" d="M1298.61 336.398 L1303.49 336.398 L1303.49 342.277 L1298.61 342.277 L1298.61 336.398 Z" fill="#000000" fill-rule="nonzero" fill-opacity="1" /><path clip-path="url(#clip940)" d="M1314.49 338.342 L1322.13 338.342 L1322.13 311.977 L1313.82 313.643 L1313.82 309.384 L1322.08 307.717 L1326.76 307.717 L1326.76 338.342 L1334.39 338.342 L1334.39 342.277 L1314.49 342.277 L1314.49 338.342 Z" fill="#000000" fill-rule="nonzero" fill-opacity="1" /><path clip-path="url(#clip940)" d="M1344.65 338.342 L1352.29 338.342 L1352.29 311.977 L1343.98 313.643 L1343.98 309.384 L1352.24 307.717 L1356.92 307.717 L1356.92 338.342 L1364.56 338.342 L1364.56 342.277 L1344.65 342.277 L1344.65 338.342 Z" fill="#000000" fill-rule="nonzero" fill-opacity="1" /><path clip-path="url(#clip940)" d="M1267.54 138.436 L1275.18 138.436 L1275.18 112.071 L1266.87 113.737 L1266.87 109.478 L1275.14 107.811 L1279.81 107.811 L1279.81 138.436 L1287.45 138.436 L1287.45 142.371 L1267.54 142.371 L1267.54 138.436 Z" fill="#000000" fill-rule="nonzero" fill-opacity="1" /><path clip-path="url(#clip940)" d="M1296.89 136.492 L1301.78 136.492 L1301.78 142.371 L1296.89 142.371 L1296.89 136.492 Z" fill="#000000" fill-rule="nonzero" fill-opacity="1" /><path clip-path="url(#clip940)" d="M1312.77 138.436 L1320.41 138.436 L1320.41 112.071 L1312.1 113.737 L1312.1 109.478 L1320.37 107.811 L1325.04 107.811 L1325.04 138.436 L1332.68 138.436 L1332.68 142.371 L1312.77 142.371 L1312.77 138.436 Z" fill="#000000" fill-rule="nonzero" fill-opacity="1" /><path clip-path="url(#clip940)" d="M1354.97 111.885 L1343.17 130.334 L1354.97 130.334 L1354.97 111.885 M1353.75 107.811 L1359.63 107.811 L1359.63 130.334 L1364.56 130.334 L1364.56 134.223 L1359.63 134.223 L1359.63 142.371 L1354.97 142.371 L1354.97 134.223 L1339.37 134.223 L1339.37 129.709 L1353.75 107.811 Z" fill="#000000" fill-rule="nonzero" fill-opacity="1" /><path clip-path="url(#clip940)" d="M1735.94 31.7342 Q1735.94 26.5259 1733.78 23.6613 Q1731.64 20.7968 1727.76 20.7968 Q1723.91 20.7968 1721.75 23.6613 Q1719.61 26.5259 1719.61 31.7342 Q1719.61 36.9165 1721.75 39.781 Q1723.91 42.6456 1727.76 42.6456 Q1731.64 42.6456 1733.78 39.781 Q1735.94 36.9165 1735.94 31.7342 M1740.73 43.0362 Q1740.73 50.4841 1737.43 54.1039 Q1734.12 57.7497 1727.29 57.7497 Q1724.77 57.7497 1722.53 57.3591 Q1720.29 56.9945 1718.18 56.2132 L1718.18 51.5518 Q1720.29 52.6976 1722.35 53.2445 Q1724.4 53.7914 1726.54 53.7914 Q1731.25 53.7914 1733.6 51.3174 Q1735.94 48.8695 1735.94 43.8956 L1735.94 41.5258 Q1734.46 44.1039 1732.14 45.38 Q1729.82 46.656 1726.59 46.656 Q1721.23 46.656 1717.95 42.5675 Q1714.66 38.479 1714.66 31.7342 Q1714.66 24.9634 1717.95 20.8749 Q1721.23 16.7864 1726.59 16.7864 Q1729.82 16.7864 1732.14 18.0624 Q1734.46 19.3384 1735.94 21.9165 L1735.94 17.4895 L1740.73 17.4895 L1740.73 43.0362 Z" fill="#000000" fill-rule="nonzero" fill-opacity="1" /><path clip-path="url(#clip940)" d="M1769.79 21.9165 L1769.79 6.13538 L1774.59 6.13538 L1774.59 46.656 L1769.79 46.656 L1769.79 42.281 Q1768.28 44.8852 1765.97 46.1612 Q1763.67 47.4112 1760.45 47.4112 Q1755.16 47.4112 1751.83 43.1925 Q1748.52 38.9737 1748.52 32.0988 Q1748.52 25.2238 1751.83 21.0051 Q1755.16 16.7864 1760.45 16.7864 Q1763.67 16.7864 1765.97 18.0624 Q1768.28 19.3124 1769.79 21.9165 M1753.47 32.0988 Q1753.47 37.3852 1755.63 40.406 Q1757.82 43.4008 1761.62 43.4008 Q1765.42 43.4008 1767.61 40.406 Q1769.79 37.3852 1769.79 32.0988 Q1769.79 26.8124 1767.61 23.8176 Q1765.42 20.7968 1761.62 20.7968 Q1757.82 20.7968 1755.63 23.8176 Q1753.47 26.8124 1753.47 32.0988 Z" fill="#000000" fill-rule="nonzero" fill-opacity="1" /><path clip-path="url(#clip940)" d="M1789.09 42.281 L1789.09 57.7497 L1784.27 57.7497 L1784.27 17.4895 L1789.09 17.4895 L1789.09 21.9165 Q1790.6 19.3124 1792.89 18.0624 Q1795.21 16.7864 1798.41 16.7864 Q1803.73 16.7864 1807.03 21.0051 Q1810.37 25.2238 1810.37 32.0988 Q1810.37 38.9737 1807.03 43.1925 Q1803.73 47.4112 1798.41 47.4112 Q1795.21 47.4112 1792.89 46.1612 Q1790.6 44.8852 1789.09 42.281 M1805.39 32.0988 Q1805.39 26.8124 1803.21 23.8176 Q1801.04 20.7968 1797.24 20.7968 Q1793.44 20.7968 1791.25 23.8176 Q1789.09 26.8124 1789.09 32.0988 Q1789.09 37.3852 1791.25 40.406 Q1793.44 43.4008 1797.24 43.4008 Q1801.04 43.4008 1803.21 40.406 Q1805.39 37.3852 1805.39 32.0988 Z" fill="#000000" fill-rule="nonzero" fill-opacity="1" /><path clip-path="url(#clip940)" d="M1854.46 21.9165 L1854.46 6.13538 L1859.25 6.13538 L1859.25 46.656 L1854.46 46.656 L1854.46 42.281 Q1852.95 44.8852 1850.63 46.1612 Q1848.34 47.4112 1845.11 47.4112 Q1839.82 47.4112 1836.49 43.1925 Q1833.18 38.9737 1833.18 32.0988 Q1833.18 25.2238 1836.49 21.0051 Q1839.82 16.7864 1845.11 16.7864 Q1848.34 16.7864 1850.63 18.0624 Q1852.95 19.3124 1854.46 21.9165 M1838.13 32.0988 Q1838.13 37.3852 1840.29 40.406 Q1842.48 43.4008 1846.28 43.4008 Q1850.08 43.4008 1852.27 40.406 Q1854.46 37.3852 1854.46 32.0988 Q1854.46 26.8124 1852.27 23.8176 Q1850.08 20.7968 1846.28 20.7968 Q1842.48 20.7968 1840.29 23.8176 Q1838.13 26.8124 1838.13 32.0988 Z" fill="#000000" fill-rule="nonzero" fill-opacity="1" /><path clip-path="url(#clip940)" d="M1894.06 30.8748 L1894.06 33.2186 L1872.03 33.2186 Q1872.35 38.1665 1875 40.7706 Q1877.68 43.3487 1882.45 43.3487 Q1885.21 43.3487 1887.79 42.6716 Q1890.39 41.9946 1892.95 40.6404 L1892.95 45.1716 Q1890.37 46.2654 1887.66 46.8383 Q1884.95 47.4112 1882.16 47.4112 Q1875.18 47.4112 1871.1 43.3487 Q1867.03 39.2862 1867.03 32.3592 Q1867.03 25.1978 1870.89 21.0051 Q1874.77 16.7864 1881.33 16.7864 Q1887.22 16.7864 1890.63 20.5884 Q1894.06 24.3645 1894.06 30.8748 M1889.27 29.4686 Q1889.22 25.5363 1887.06 23.1926 Q1884.92 20.8488 1881.38 20.8488 Q1877.37 20.8488 1874.95 23.1145 Q1872.55 25.3801 1872.19 29.4946 L1889.27 29.4686 Z" fill="#000000" fill-rule="nonzero" fill-opacity="1" /><path clip-path="url(#clip940)" d="M1916.69 6.13538 L1916.69 10.1197 L1912.11 10.1197 Q1909.53 10.1197 1908.52 11.1614 Q1907.53 12.2031 1907.53 14.9114 L1907.53 17.4895 L1915.42 17.4895 L1915.42 21.2134 L1907.53 21.2134 L1907.53 46.656 L1902.71 46.656 L1902.71 21.2134 L1898.13 21.2134 L1898.13 17.4895 L1902.71 17.4895 L1902.71 15.4583 Q1902.71 10.5885 1904.98 8.37496 Q1907.24 6.13538 1912.16 6.13538 L1916.69 6.13538 Z" fill="#000000" fill-rule="nonzero" fill-opacity="1" /><path clip-path="url(#clip940)" d="M1920.71 6.13538 L1925.5 6.13538 L1925.5 46.656 L1920.71 46.656 L1920.71 6.13538 Z" fill="#000000" fill-rule="nonzero" fill-opacity="1" /><path clip-path="url(#clip940)" d="M1948.78 31.9946 Q1942.97 31.9946 1940.73 33.3227 Q1938.49 34.6509 1938.49 37.854 Q1938.49 40.406 1940.16 41.9164 Q1941.85 43.4008 1944.74 43.4008 Q1948.73 43.4008 1951.12 40.5883 Q1953.54 37.7498 1953.54 33.0623 L1953.54 31.9946 L1948.78 31.9946 M1958.34 30.0155 L1958.34 46.656 L1953.54 46.656 L1953.54 42.2289 Q1951.9 44.8852 1949.46 46.1612 Q1947.01 47.4112 1943.47 47.4112 Q1938.99 47.4112 1936.33 44.9112 Q1933.7 42.3852 1933.7 38.1665 Q1933.7 33.2446 1936.98 30.7446 Q1940.29 28.2446 1946.83 28.2446 L1953.54 28.2446 L1953.54 27.7759 Q1953.54 24.4686 1951.36 22.6718 Q1949.19 20.8488 1945.26 20.8488 Q1942.76 20.8488 1940.39 21.4478 Q1938.02 22.0468 1935.84 23.2447 L1935.84 18.8176 Q1938.47 17.802 1940.94 17.3072 Q1943.41 16.7864 1945.76 16.7864 Q1952.09 16.7864 1955.21 20.0676 Q1958.34 23.3488 1958.34 30.0155 Z" fill="#000000" fill-rule="nonzero" fill-opacity="1" /><path clip-path="url(#clip940)" d="M1972.94 9.20828 L1972.94 17.4895 L1982.81 17.4895 L1982.81 21.2134 L1972.94 21.2134 L1972.94 37.0467 Q1972.94 40.6144 1973.91 41.63 Q1974.9 42.6456 1977.89 42.6456 L1982.81 42.6456 L1982.81 46.656 L1977.89 46.656 Q1972.35 46.656 1970.24 44.5987 Q1968.13 42.5154 1968.13 37.0467 L1968.13 21.2134 L1964.61 21.2134 L1964.61 17.4895 L1968.13 17.4895 L1968.13 9.20828 L1972.94 9.20828 Z" fill="#000000" fill-rule="nonzero" fill-opacity="1" /><path clip-path="url(#clip940)" d="M2000.42 20.8488 Q1996.56 20.8488 1994.32 23.8697 Q1992.09 26.8644 1992.09 32.0988 Q1992.09 37.3331 1994.3 40.354 Q1996.54 43.3487 2000.42 43.3487 Q2004.25 43.3487 2006.49 40.3279 Q2008.73 37.3071 2008.73 32.0988 Q2008.73 26.9165 2006.49 23.8957 Q2004.25 20.8488 2000.42 20.8488 M2000.42 16.7864 Q2006.67 16.7864 2010.24 20.8488 Q2013.8 24.9113 2013.8 32.0988 Q2013.8 39.2602 2010.24 43.3487 Q2006.67 47.4112 2000.42 47.4112 Q1994.14 47.4112 1990.57 43.3487 Q1987.03 39.2602 1987.03 32.0988 Q1987.03 24.9113 1990.57 20.8488 Q1994.14 16.7864 2000.42 16.7864 Z" fill="#000000" fill-rule="nonzero" fill-opacity="1" /><path clip-path="url(#clip940)" d="M2038.65 21.9686 Q2037.84 21.4999 2036.88 21.2916 Q2035.94 21.0572 2034.79 21.0572 Q2030.73 21.0572 2028.54 23.7134 Q2026.38 26.3436 2026.38 31.2915 L2026.38 46.656 L2021.56 46.656 L2021.56 17.4895 L2026.38 17.4895 L2026.38 22.0207 Q2027.89 19.3645 2030.31 18.0884 Q2032.74 16.7864 2036.2 16.7864 Q2036.69 16.7864 2037.29 16.8645 Q2037.89 16.9166 2038.62 17.0468 L2038.65 21.9686 Z" fill="#000000" fill-rule="nonzero" fill-opacity="1" /><path clip-path="url(#clip943)" d="M1513.06 1047.89 L1555.83 1058.3 L1598.61 1069.21 L1641.39 1070.59 L1684.16 1061.41 L1726.94 1035.12 L1769.72 1045.49 L1812.49 1012.15 L1855.27 974.181 L1898.04 948.768 L1940.82 895.839 L1983.6 853.099 L2026.37 829.005 L2069.15 813.914 L2111.93 776.963 L2154.7 727.552 L2197.48 711.475 L2240.25 661.939 L2283.03 647.44 L2325.81 649.181 L2325.81 194.55 L2283.03 266.403 L2240.25 310.616 L2197.48 385.074 L2154.7 456.861 L2111.93 528.07 L2069.15 572.293 L2026.37 627.317 L1983.6 695.844 L1940.82 753.343 L1898.04 772.724 L1855.27 776.943 L1812.49 785.716 L1769.72 787.224 L1726.94 806.122 L1684.16 873.403 L1641.39 918.499 L1598.61 936.203 L1555.83 999.883 L1513.06 1027.89  Z" fill="#009af9" fill-rule="evenodd" fill-opacity="0.1"/>
<polyline clip-path="url(#clip943)" style="stroke:#009af9; stroke-linecap:round; stroke-linejoin:round; stroke-width:4; stroke-opacity:1; fill:none" points="1513.06,1037.89 1555.83,1029.09 1598.61,1002.71 1641.39,994.544 1684.16,967.405 1726.94,920.62 1769.72,916.356 1812.49,898.935 1855.27,875.562 1898.04,860.746 1940.82,824.591 1983.6,774.471 2026.37,728.161 2069.15,693.103 2111.93,652.516 2154.7,592.206 2197.48,548.275 2240.25,486.277 2283.03,456.922 2325.81,421.865 "/>
<path clip-path="url(#clip943)" d="M1513.06 1052.09 L1555.83 1032.96 L1598.61 942.356 L1641.39 921.999 L1684.16 914.754 L1726.94 913.462 L1769.72 886.883 L1812.49 860.63 L1855.27 817.286 L1898.04 814.269 L1940.82 804.183 L1983.6 736.637 L2026.37 683.847 L2069.15 653.821 L2111.93 674.012 L2154.7 635.021 L2197.48 585.02 L2240.25 561.404 L2283.03 560.402 L2325.81 570.592 L2325.81 120.65 L2283.03 155.149 L2240.25 182.316 L2197.48 254.16 L2154.7 274.299 L2111.93 294.924 L2069.15 339.984 L2026.37 352.567 L1983.6 406.399 L1940.82 424.273 L1898.04 470.464 L1855.27 528.434 L1812.49 585.204 L1769.72 636.81 L1726.94 699.18 L1684.16 770.219 L1641.39 850.999 L1598.61 891.854 L1555.83 924.383 L1513.06 981.254  Z" fill="#e26f46" fill-rule="evenodd" fill-opacity="0.1"/>
<polyline clip-path="url(#clip943)" style="stroke:#e26f46; stroke-linecap:round; stroke-linejoin:round; stroke-width:4; stroke-opacity:1; fill:none" points="1513.06,1016.67 1555.83,978.669 1598.61,917.105 1641.39,886.499 1684.16,842.486 1726.94,806.321 1769.72,761.846 1812.49,722.917 1855.27,672.86 1898.04,642.366 1940.82,614.228 1983.6,571.518 2026.37,518.207 2069.15,496.903 2111.93,484.468 2154.7,454.66 2197.48,419.59 2240.25,371.86 2283.03,357.776 2325.81,345.621 "/>
</svg>
