<?xml version="1.0" encoding="utf-8"?>
<svg xmlns="http://www.w3.org/2000/svg" xmlns:xlink="http://www.w3.org/1999/xlink" width="600" height="300" viewBox="0 0 2400 1200">
<defs>
  <clipPath id="clip140">
    <rect x="0" y="0" width="2400" height="1200"/>
  </clipPath>
</defs>
<path clip-path="url(#clip140)" d="M0 1200 L2400 1200 L2400 0 L0 0  Z" fill="#ffffff" fill-rule="evenodd" fill-opacity="1"/>
<defs>
  <clipPath id="clip141">
    <rect x="480" y="0" width="1681" height="1200"/>
  </clipPath>
</defs>
<path clip-path="url(#clip140)" d="M216.436 1099.09 L1168.64 1099.09 L1168.64 92.1521 L216.436 92.1521  Z" fill="#ffffff" fill-rule="evenodd" fill-opacity="1"/>
<defs>
  <clipPath id="clip142">
    <rect x="216" y="92" width="953" height="1008"/>
  </clipPath>
</defs>
<polyline clip-path="url(#clip142)" style="stroke:#000000; stroke-linecap:round; stroke-linejoin:round; stroke-width:2; stroke-opacity:0.1; fill:none" points="414.49,1099.09 414.49,92.1521 "/>
<polyline clip-path="url(#clip142)" style="stroke:#000000; stroke-linecap:round; stroke-linejoin:round; stroke-width:2; stroke-opacity:0.1; fill:none" points="628.371,1099.09 628.371,92.1521 "/>
<polyline clip-path="url(#clip142)" style="stroke:#000000; stroke-linecap:round; stroke-linejoin:round; stroke-width:2; stroke-opacity:0.1; fill:none" points="842.253,1099.09 842.253,92.1521 "/>
<polyline clip-path="url(#clip142)" style="stroke:#000000; stroke-linecap:round; stroke-linejoin:round; stroke-width:2; stroke-opacity:0.1; fill:none" points="1056.13,1099.09 1056.13,92.1521 "/>
<polyline clip-path="url(#clip142)" style="stroke:#000000; stroke-linecap:round; stroke-linejoin:round; stroke-width:2; stroke-opacity:0.1; fill:none" points="216.436,1067.71 1168.64,1067.71 "/>
<polyline clip-path="url(#clip142)" style="stroke:#000000; stroke-linecap:round; stroke-linejoin:round; stroke-width:2; stroke-opacity:0.1; fill:none" points="216.436,830.943 1168.64,830.943 "/>
<polyline clip-path="url(#clip142)" style="stroke:#000000; stroke-linecap:round; stroke-linejoin:round; stroke-width:2; stroke-opacity:0.1; fill:none" points="216.436,594.179 1168.64,594.179 "/>
<polyline clip-path="url(#clip142)" style="stroke:#000000; stroke-linecap:round; stroke-linejoin:round; stroke-width:2; stroke-opacity:0.1; fill:none" points="216.436,357.415 1168.64,357.415 "/>
<polyline clip-path="url(#clip142)" style="stroke:#000000; stroke-linecap:round; stroke-linejoin:round; stroke-width:2; stroke-opacity:0.1; fill:none" points="216.436,120.65 1168.64,120.65 "/>
<polyline clip-path="url(#clip140)" style="stroke:#000000; stroke-linecap:round; stroke-linejoin:round; stroke-width:4; stroke-opacity:1; fill:none" points="216.436,1099.09 1168.64,1099.09 "/>
<polyline clip-path="url(#clip140)" style="stroke:#000000; stroke-linecap:round; stroke-linejoin:round; stroke-width:4; stroke-opacity:1; fill:none" points="414.49,1099.09 414.49,1080.19 "/>
<polyline clip-path="url(#clip140)" style="stroke:#000000; stroke-linecap:round; stroke-linejoin:round; stroke-width:4; stroke-opacity:1; fill:none" points="628.371,1099.09 628.371,1080.19 "/>
<polyline clip-path="url(#clip140)" style="stroke:#000000; stroke-linecap:round; stroke-linejoin:round; stroke-width:4; stroke-opacity:1; fill:none" points="842.253,1099.09 842.253,1080.19 "/>
<polyline clip-path="url(#clip140)" style="stroke:#000000; stroke-linecap:round; stroke-linejoin:round; stroke-width:4; stroke-opacity:1; fill:none" points="1056.13,1099.09 1056.13,1080.19 "/>
<path clip-path="url(#clip140)" d="M404.768 1126.93 L423.124 1126.93 L423.124 1130.86 L409.05 1130.86 L409.05 1139.34 Q410.069 1138.99 411.087 1138.83 Q412.106 1138.64 413.124 1138.64 Q418.911 1138.64 422.291 1141.81 Q425.67 1144.98 425.67 1150.4 Q425.67 1155.98 422.198 1159.08 Q418.726 1162.16 412.407 1162.16 Q410.231 1162.16 407.962 1161.79 Q405.717 1161.42 403.309 1160.68 L403.309 1155.98 Q405.393 1157.11 407.615 1157.67 Q409.837 1158.22 412.314 1158.22 Q416.319 1158.22 418.657 1156.12 Q420.995 1154.01 420.995 1150.4 Q420.995 1146.79 418.657 1144.68 Q416.319 1142.58 412.314 1142.58 Q410.439 1142.58 408.564 1142.99 Q406.712 1143.41 404.768 1144.29 L404.768 1126.93 Z" fill="#000000" fill-rule="nonzero" fill-opacity="1" /><path clip-path="url(#clip140)" d="M603.059 1157.55 L610.698 1157.55 L610.698 1131.19 L602.388 1132.85 L602.388 1128.59 L610.651 1126.93 L615.327 1126.93 L615.327 1157.55 L622.966 1157.55 L622.966 1161.49 L603.059 1161.49 L603.059 1157.55 Z" fill="#000000" fill-rule="nonzero" fill-opacity="1" /><path clip-path="url(#clip140)" d="M642.411 1130.01 Q638.799 1130.01 636.971 1133.57 Q635.165 1137.11 635.165 1144.24 Q635.165 1151.35 636.971 1154.91 Q638.799 1158.46 642.411 1158.46 Q646.045 1158.46 647.85 1154.91 Q649.679 1151.35 649.679 1144.24 Q649.679 1137.11 647.85 1133.57 Q646.045 1130.01 642.411 1130.01 M642.411 1126.3 Q648.221 1126.3 651.276 1130.91 Q654.355 1135.49 654.355 1144.24 Q654.355 1152.97 651.276 1157.58 Q648.221 1162.16 642.411 1162.16 Q636.6 1162.16 633.522 1157.58 Q630.466 1152.97 630.466 1144.24 Q630.466 1135.49 633.522 1130.91 Q636.6 1126.3 642.411 1126.3 Z" fill="#000000" fill-rule="nonzero" fill-opacity="1" /><path clip-path="url(#clip140)" d="M817.438 1157.55 L825.077 1157.55 L825.077 1131.19 L816.767 1132.85 L816.767 1128.59 L825.03 1126.93 L829.706 1126.93 L829.706 1157.55 L837.345 1157.55 L837.345 1161.49 L817.438 1161.49 L817.438 1157.55 Z" fill="#000000" fill-rule="nonzero" fill-opacity="1" /><path clip-path="url(#clip140)" d="M846.836 1126.93 L865.192 1126.93 L865.192 1130.86 L851.118 1130.86 L851.118 1139.34 Q852.137 1138.99 853.155 1138.83 Q854.174 1138.64 855.192 1138.64 Q860.979 1138.64 864.359 1141.81 Q867.739 1144.98 867.739 1150.4 Q867.739 1155.98 864.266 1159.08 Q860.794 1162.16 854.475 1162.16 Q852.299 1162.16 850.03 1161.79 Q847.785 1161.42 845.378 1160.68 L845.378 1155.98 Q847.461 1157.11 849.683 1157.67 Q851.905 1158.22 854.382 1158.22 Q858.387 1158.22 860.725 1156.12 Q863.063 1154.01 863.063 1150.4 Q863.063 1146.79 860.725 1144.68 Q858.387 1142.58 854.382 1142.58 Q852.507 1142.58 850.632 1142.99 Q848.78 1143.41 846.836 1144.29 L846.836 1126.93 Z" fill="#000000" fill-rule="nonzero" fill-opacity="1" /><path clip-path="url(#clip140)" d="M1034.91 1157.55 L1051.23 1157.55 L1051.23 1161.49 L1029.28 1161.49 L1029.28 1157.55 Q1031.94 1154.8 1036.53 1150.17 Q1041.13 1145.52 1042.31 1144.17 Q1044.56 1141.65 1045.44 1139.91 Q1046.34 1138.15 1046.34 1136.46 Q1046.34 1133.71 1044.4 1131.97 Q1042.48 1130.24 1039.37 1130.24 Q1037.18 1130.24 1034.72 1131 Q1032.29 1131.77 1029.51 1133.32 L1029.51 1128.59 Q1032.34 1127.46 1034.79 1126.88 Q1037.25 1126.3 1039.28 1126.3 Q1044.65 1126.3 1047.85 1128.99 Q1051.04 1131.67 1051.04 1136.16 Q1051.04 1138.29 1050.23 1140.21 Q1049.44 1142.11 1047.34 1144.71 Q1046.76 1145.38 1043.66 1148.59 Q1040.56 1151.79 1034.91 1157.55 Z" fill="#000000" fill-rule="nonzero" fill-opacity="1" /><path clip-path="url(#clip140)" d="M1071.04 1130.01 Q1067.43 1130.01 1065.6 1133.57 Q1063.8 1137.11 1063.8 1144.24 Q1063.8 1151.35 1065.6 1154.91 Q1067.43 1158.46 1071.04 1158.46 Q1074.68 1158.46 1076.48 1154.91 Q1078.31 1151.35 1078.31 1144.24 Q1078.31 1137.11 1076.48 1133.57 Q1074.68 1130.01 1071.04 1130.01 M1071.04 1126.3 Q1076.85 1126.3 1079.91 1130.91 Q1082.99 1135.49 1082.99 1144.24 Q1082.99 1152.97 1079.91 1157.58 Q1076.85 1162.16 1071.04 1162.16 Q1065.23 1162.16 1062.15 1157.58 Q1059.1 1152.97 1059.1 1144.24 Q1059.1 1135.49 1062.15 1130.91 Q1065.23 1126.3 1071.04 1126.3 Z" fill="#000000" fill-rule="nonzero" fill-opacity="1" /><polyline clip-path="url(#clip140)" style="stroke:#000000; stroke-linecap:round; stroke-linejoin:round; stroke-width:4; stroke-opacity:1; fill:none" points="216.436,1099.09 216.436,92.1521 "/>
<polyline clip-path="url(#clip140)" style="stroke:#000000; stroke-linecap:round; stroke-linejoin:round; stroke-width:4; stroke-opacity:1; fill:none" points="216.436,1067.71 235.334,1067.71 "/>
<polyline clip-path="url(#clip140)" style="stroke:#000000; stroke-linecap:round; stroke-linejoin:round; stroke-width:4; stroke-opacity:1; fill:none" points="216.436,830.943 235.334,830.943 "/>
<polyline clip-path="url(#clip140)" style="stroke:#000000; stroke-linecap:round; stroke-linejoin:round; stroke-width:4; stroke-opacity:1; fill:none" points="216.436,594.179 235.334,594.179 "/>
<polyline clip-path="url(#clip140)" style="stroke:#000000; stroke-linecap:round; stroke-linejoin:round; stroke-width:4; stroke-opacity:1; fill:none" points="216.436,357.415 235.334,357.415 "/>
<polyline clip-path="url(#clip140)" style="stroke:#000000; stroke-linecap:round; stroke-linejoin:round; stroke-width:4; stroke-opacity:1; fill:none" points="216.436,120.65 235.334,120.65 "/>
<path clip-path="url(#clip140)" d="M62.9365 1053.51 Q59.3254 1053.51 57.4967 1057.07 Q55.6912 1060.61 55.6912 1067.74 Q55.6912 1074.85 57.4967 1078.41 Q59.3254 1081.96 62.9365 1081.96 Q66.5707 1081.96 68.3763 1078.41 Q70.205 1074.85 70.205 1067.74 Q70.205 1060.61 68.3763 1057.07 Q66.5707 1053.51 62.9365 1053.51 M62.9365 1049.8 Q68.7467 1049.8 71.8022 1054.41 Q74.8809 1058.99 74.8809 1067.74 Q74.8809 1076.47 71.8022 1081.08 Q68.7467 1085.66 62.9365 1085.66 Q57.1264 1085.66 54.0477 1081.08 Q50.9921 1076.47 50.9921 1067.74 Q50.9921 1058.99 54.0477 1054.41 Q57.1264 1049.8 62.9365 1049.8 Z" fill="#000000" fill-rule="nonzero" fill-opacity="1" /><path clip-path="url(#clip140)" d="M83.0984 1079.11 L87.9827 1079.11 L87.9827 1084.99 L83.0984 1084.99 L83.0984 1079.11 Z" fill="#000000" fill-rule="nonzero" fill-opacity="1" /><path clip-path="url(#clip140)" d="M108.168 1053.51 Q104.557 1053.51 102.728 1057.07 Q100.922 1060.61 100.922 1067.74 Q100.922 1074.85 102.728 1078.41 Q104.557 1081.96 108.168 1081.96 Q111.802 1081.96 113.608 1078.41 Q115.436 1074.85 115.436 1067.74 Q115.436 1060.61 113.608 1057.07 Q111.802 1053.51 108.168 1053.51 M108.168 1049.8 Q113.978 1049.8 117.033 1054.41 Q120.112 1058.99 120.112 1067.74 Q120.112 1076.47 117.033 1081.08 Q113.978 1085.66 108.168 1085.66 Q102.358 1085.66 99.2789 1081.08 Q96.2234 1076.47 96.2234 1067.74 Q96.2234 1058.99 99.2789 1054.41 Q102.358 1049.8 108.168 1049.8 Z" fill="#000000" fill-rule="nonzero" fill-opacity="1" /><path clip-path="url(#clip140)" d="M138.33 1053.51 Q134.719 1053.51 132.89 1057.07 Q131.084 1060.61 131.084 1067.74 Q131.084 1074.85 132.89 1078.41 Q134.719 1081.96 138.33 1081.96 Q141.964 1081.96 143.769 1078.41 Q145.598 1074.85 145.598 1067.74 Q145.598 1060.61 143.769 1057.07 Q141.964 1053.51 138.33 1053.51 M138.33 1049.8 Q144.14 1049.8 147.195 1054.41 Q150.274 1058.99 150.274 1067.74 Q150.274 1076.47 147.195 1081.08 Q144.14 1085.66 138.33 1085.66 Q132.519 1085.66 129.441 1081.08 Q126.385 1076.47 126.385 1067.74 Q126.385 1058.99 129.441 1054.41 Q132.519 1049.8 138.33 1049.8 Z" fill="#000000" fill-rule="nonzero" fill-opacity="1" /><path clip-path="url(#clip140)" d="M168.491 1053.51 Q164.88 1053.51 163.052 1057.07 Q161.246 1060.61 161.246 1067.74 Q161.246 1074.85 163.052 1078.41 Q164.88 1081.96 168.491 1081.96 Q172.126 1081.96 173.931 1078.41 Q175.76 1074.85 175.76 1067.74 Q175.76 1060.61 173.931 1057.07 Q172.126 1053.51 168.491 1053.51 M168.491 1049.8 Q174.302 1049.8 177.357 1054.41 Q180.436 1058.99 180.436 1067.74 Q180.436 1076.47 177.357 1081.08 Q174.302 1085.66 168.491 1085.66 Q162.681 1085.66 159.603 1081.08 Q156.547 1076.47 156.547 1067.74 Q156.547 1058.99 159.603 1054.41 Q162.681 1049.8 168.491 1049.8 Z" fill="#000000" fill-rule="nonzero" fill-opacity="1" /><path clip-path="url(#clip140)" d="M63.9319 816.742 Q60.3208 816.742 58.4921 820.307 Q56.6865 823.848 56.6865 830.978 Q56.6865 838.084 58.4921 841.649 Q60.3208 845.191 63.9319 845.191 Q67.5661 845.191 69.3717 841.649 Q71.2004 838.084 71.2004 830.978 Q71.2004 823.848 69.3717 820.307 Q67.5661 816.742 63.9319 816.742 M63.9319 813.038 Q69.742 813.038 72.7976 817.645 Q75.8763 822.228 75.8763 830.978 Q75.8763 839.705 72.7976 844.311 Q69.742 848.895 63.9319 848.895 Q58.1217 848.895 55.043 844.311 Q51.9875 839.705 51.9875 830.978 Q51.9875 822.228 55.043 817.645 Q58.1217 813.038 63.9319 813.038 Z" fill="#000000" fill-rule="nonzero" fill-opacity="1" /><path clip-path="url(#clip140)" d="M84.0938 842.344 L88.978 842.344 L88.978 848.223 L84.0938 848.223 L84.0938 842.344 Z" fill="#000000" fill-rule="nonzero" fill-opacity="1" /><path clip-path="url(#clip140)" d="M109.163 816.742 Q105.552 816.742 103.723 820.307 Q101.918 823.848 101.918 830.978 Q101.918 838.084 103.723 841.649 Q105.552 845.191 109.163 845.191 Q112.797 845.191 114.603 841.649 Q116.432 838.084 116.432 830.978 Q116.432 823.848 114.603 820.307 Q112.797 816.742 109.163 816.742 M109.163 813.038 Q114.973 813.038 118.029 817.645 Q121.107 822.228 121.107 830.978 Q121.107 839.705 118.029 844.311 Q114.973 848.895 109.163 848.895 Q103.353 848.895 100.274 844.311 Q97.2187 839.705 97.2187 830.978 Q97.2187 822.228 100.274 817.645 Q103.353 813.038 109.163 813.038 Z" fill="#000000" fill-rule="nonzero" fill-opacity="1" /><path clip-path="url(#clip140)" d="M139.325 816.742 Q135.714 816.742 133.885 820.307 Q132.08 823.848 132.08 830.978 Q132.08 838.084 133.885 841.649 Q135.714 845.191 139.325 845.191 Q142.959 845.191 144.765 841.649 Q146.593 838.084 146.593 830.978 Q146.593 823.848 144.765 820.307 Q142.959 816.742 139.325 816.742 M139.325 813.038 Q145.135 813.038 148.191 817.645 Q151.269 822.228 151.269 830.978 Q151.269 839.705 148.191 844.311 Q145.135 848.895 139.325 848.895 Q133.515 848.895 130.436 844.311 Q127.381 839.705 127.381 830.978 Q127.381 822.228 130.436 817.645 Q133.515 813.038 139.325 813.038 Z" fill="#000000" fill-rule="nonzero" fill-opacity="1" /><path clip-path="url(#clip140)" d="M159.533 813.663 L177.89 813.663 L177.89 817.598 L163.816 817.598 L163.816 826.071 Q164.834 825.723 165.853 825.561 Q166.871 825.376 167.89 825.376 Q173.677 825.376 177.056 828.547 Q180.436 831.719 180.436 837.135 Q180.436 842.714 176.964 845.816 Q173.491 848.895 167.172 848.895 Q164.996 848.895 162.728 848.524 Q160.482 848.154 158.075 847.413 L158.075 842.714 Q160.158 843.848 162.38 844.404 Q164.603 844.959 167.079 844.959 Q171.084 844.959 173.422 842.853 Q175.76 840.746 175.76 837.135 Q175.76 833.524 173.422 831.418 Q171.084 829.311 167.079 829.311 Q165.204 829.311 163.329 829.728 Q161.478 830.145 159.533 831.024 L159.533 813.663 Z" fill="#000000" fill-rule="nonzero" fill-opacity="1" /><path clip-path="url(#clip140)" d="M62.9365 579.978 Q59.3254 579.978 57.4967 583.542 Q55.6912 587.084 55.6912 594.214 Q55.6912 601.32 57.4967 604.885 Q59.3254 608.427 62.9365 608.427 Q66.5707 608.427 68.3763 604.885 Q70.205 601.32 70.205 594.214 Q70.205 587.084 68.3763 583.542 Q66.5707 579.978 62.9365 579.978 M62.9365 576.274 Q68.7467 576.274 71.8022 580.88 Q74.8809 585.464 74.8809 594.214 Q74.8809 602.94 71.8022 607.547 Q68.7467 612.13 62.9365 612.13 Q57.1264 612.13 54.0477 607.547 Q50.9921 602.94 50.9921 594.214 Q50.9921 585.464 54.0477 580.88 Q57.1264 576.274 62.9365 576.274 Z" fill="#000000" fill-rule="nonzero" fill-opacity="1" /><path clip-path="url(#clip140)" d="M83.0984 605.579 L87.9827 605.579 L87.9827 611.459 L83.0984 611.459 L83.0984 605.579 Z" fill="#000000" fill-rule="nonzero" fill-opacity="1" /><path clip-path="url(#clip140)" d="M108.168 579.978 Q104.557 579.978 102.728 583.542 Q100.922 587.084 100.922 594.214 Q100.922 601.32 102.728 604.885 Q104.557 608.427 108.168 608.427 Q111.802 608.427 113.608 604.885 Q115.436 601.32 115.436 594.214 Q115.436 587.084 113.608 583.542 Q111.802 579.978 108.168 579.978 M108.168 576.274 Q113.978 576.274 117.033 580.88 Q120.112 585.464 120.112 594.214 Q120.112 602.94 117.033 607.547 Q113.978 612.13 108.168 612.13 Q102.358 612.13 99.2789 607.547 Q96.2234 602.94 96.2234 594.214 Q96.2234 585.464 99.2789 580.88 Q102.358 576.274 108.168 576.274 Z" fill="#000000" fill-rule="nonzero" fill-opacity="1" /><path clip-path="url(#clip140)" d="M129.14 607.524 L136.779 607.524 L136.779 581.158 L128.469 582.825 L128.469 578.566 L136.732 576.899 L141.408 576.899 L141.408 607.524 L149.047 607.524 L149.047 611.459 L129.14 611.459 L129.14 607.524 Z" fill="#000000" fill-rule="nonzero" fill-opacity="1" /><path clip-path="url(#clip140)" d="M168.491 579.978 Q164.88 579.978 163.052 583.542 Q161.246 587.084 161.246 594.214 Q161.246 601.32 163.052 604.885 Q164.88 608.427 168.491 608.427 Q172.126 608.427 173.931 604.885 Q175.76 601.32 175.76 594.214 Q175.76 587.084 173.931 583.542 Q172.126 579.978 168.491 579.978 M168.491 576.274 Q174.302 576.274 177.357 580.88 Q180.436 585.464 180.436 594.214 Q180.436 602.94 177.357 607.547 Q174.302 612.13 168.491 612.13 Q162.681 612.13 159.603 607.547 Q156.547 602.94 156.547 594.214 Q156.547 585.464 159.603 580.88 Q162.681 576.274 168.491 576.274 Z" fill="#000000" fill-rule="nonzero" fill-opacity="1" /><path clip-path="url(#clip140)" d="M63.9319 343.213 Q60.3208 343.213 58.4921 346.778 Q56.6865 350.32 56.6865 357.449 Q56.6865 364.556 58.4921 368.121 Q60.3208 371.662 63.9319 371.662 Q67.5661 371.662 69.3717 368.121 Q71.2004 364.556 71.2004 357.449 Q71.2004 350.32 69.3717 346.778 Q67.5661 343.213 63.9319 343.213 M63.9319 339.51 Q69.742 339.51 72.7976 344.116 Q75.8763 348.699 75.8763 357.449 Q75.8763 366.176 72.7976 370.783 Q69.742 375.366 63.9319 375.366 Q58.1217 375.366 55.043 370.783 Q51.9875 366.176 51.9875 357.449 Q51.9875 348.699 55.043 344.116 Q58.1217 339.51 63.9319 339.51 Z" fill="#000000" fill-rule="nonzero" fill-opacity="1" /><path clip-path="url(#clip140)" d="M84.0938 368.815 L88.978 368.815 L88.978 374.695 L84.0938 374.695 L84.0938 368.815 Z" fill="#000000" fill-rule="nonzero" fill-opacity="1" /><path clip-path="url(#clip140)" d="M109.163 343.213 Q105.552 343.213 103.723 346.778 Q101.918 350.32 101.918 357.449 Q101.918 364.556 103.723 368.121 Q105.552 371.662 109.163 371.662 Q112.797 371.662 114.603 368.121 Q116.432 364.556 116.432 357.449 Q116.432 350.32 114.603 346.778 Q112.797 343.213 109.163 343.213 M109.163 339.51 Q114.973 339.51 118.029 344.116 Q121.107 348.699 121.107 357.449 Q121.107 366.176 118.029 370.783 Q114.973 375.366 109.163 375.366 Q103.353 375.366 100.274 370.783 Q97.2187 366.176 97.2187 357.449 Q97.2187 348.699 100.274 344.116 Q103.353 339.51 109.163 339.51 Z" fill="#000000" fill-rule="nonzero" fill-opacity="1" /><path clip-path="url(#clip140)" d="M130.135 370.759 L137.774 370.759 L137.774 344.394 L129.464 346.061 L129.464 341.801 L137.728 340.135 L142.404 340.135 L142.404 370.759 L150.043 370.759 L150.043 374.695 L130.135 374.695 L130.135 370.759 Z" fill="#000000" fill-rule="nonzero" fill-opacity="1" /><path clip-path="url(#clip140)" d="M159.533 340.135 L177.89 340.135 L177.89 344.07 L163.816 344.07 L163.816 352.542 Q164.834 352.195 165.853 352.033 Q166.871 351.848 167.89 351.848 Q173.677 351.848 177.056 355.019 Q180.436 358.19 180.436 363.607 Q180.436 369.185 176.964 372.287 Q173.491 375.366 167.172 375.366 Q164.996 375.366 162.728 374.996 Q160.482 374.625 158.075 373.884 L158.075 369.185 Q160.158 370.32 162.38 370.875 Q164.603 371.431 167.079 371.431 Q171.084 371.431 173.422 369.324 Q175.76 367.218 175.76 363.607 Q175.76 359.996 173.422 357.889 Q171.084 355.783 167.079 355.783 Q165.204 355.783 163.329 356.199 Q161.478 356.616 159.533 357.496 L159.533 340.135 Z" fill="#000000" fill-rule="nonzero" fill-opacity="1" /><path clip-path="url(#clip140)" d="M62.9365 106.449 Q59.3254 106.449 57.4967 110.014 Q55.6912 113.555 55.6912 120.685 Q55.6912 127.791 57.4967 131.356 Q59.3254 134.898 62.9365 134.898 Q66.5707 134.898 68.3763 131.356 Q70.205 127.791 70.205 120.685 Q70.205 113.555 68.3763 110.014 Q66.5707 106.449 62.9365 106.449 M62.9365 102.745 Q68.7467 102.745 71.8022 107.352 Q74.8809 111.935 74.8809 120.685 Q74.8809 129.412 71.8022 134.018 Q68.7467 138.602 62.9365 138.602 Q57.1264 138.602 54.0477 134.018 Q50.9921 129.412 50.9921 120.685 Q50.9921 111.935 54.0477 107.352 Q57.1264 102.745 62.9365 102.745 Z" fill="#000000" fill-rule="nonzero" fill-opacity="1" /><path clip-path="url(#clip140)" d="M83.0984 132.051 L87.9827 132.051 L87.9827 137.93 L83.0984 137.93 L83.0984 132.051 Z" fill="#000000" fill-rule="nonzero" fill-opacity="1" /><path clip-path="url(#clip140)" d="M108.168 106.449 Q104.557 106.449 102.728 110.014 Q100.922 113.555 100.922 120.685 Q100.922 127.791 102.728 131.356 Q104.557 134.898 108.168 134.898 Q111.802 134.898 113.608 131.356 Q115.436 127.791 115.436 120.685 Q115.436 113.555 113.608 110.014 Q111.802 106.449 108.168 106.449 M108.168 102.745 Q113.978 102.745 117.033 107.352 Q120.112 111.935 120.112 120.685 Q120.112 129.412 117.033 134.018 Q113.978 138.602 108.168 138.602 Q102.358 138.602 99.2789 134.018 Q96.2234 129.412 96.2234 120.685 Q96.2234 111.935 99.2789 107.352 Q102.358 102.745 108.168 102.745 Z" fill="#000000" fill-rule="nonzero" fill-opacity="1" /><path clip-path="url(#clip140)" d="M132.357 133.995 L148.677 133.995 L148.677 137.93 L126.732 137.93 L126.732 133.995 Q129.394 131.241 133.978 126.611 Q138.584 121.958 139.765 120.616 Q142.01 118.092 142.89 116.356 Q143.793 114.597 143.793 112.907 Q143.793 110.153 141.848 108.417 Q139.927 106.68 136.825 106.68 Q134.626 106.68 132.172 107.444 Q129.742 108.208 126.964 109.759 L126.964 105.037 Q129.788 103.903 132.242 103.324 Q134.695 102.745 136.732 102.745 Q142.103 102.745 145.297 105.43 Q148.492 108.116 148.492 112.606 Q148.492 114.736 147.681 116.657 Q146.894 118.555 144.788 121.148 Q144.209 121.819 141.107 125.037 Q138.006 128.231 132.357 133.995 Z" fill="#000000" fill-rule="nonzero" fill-opacity="1" /><path clip-path="url(#clip140)" d="M168.491 106.449 Q164.88 106.449 163.052 110.014 Q161.246 113.555 161.246 120.685 Q161.246 127.791 163.052 131.356 Q164.88 134.898 168.491 134.898 Q172.126 134.898 173.931 131.356 Q175.76 127.791 175.76 120.685 Q175.76 113.555 173.931 110.014 Q172.126 106.449 168.491 106.449 M168.491 102.745 Q174.302 102.745 177.357 107.352 Q180.436 111.935 180.436 120.685 Q180.436 129.412 177.357 134.018 Q174.302 138.602 168.491 138.602 Q162.681 138.602 159.603 134.018 Q156.547 129.412 156.547 120.685 Q156.547 111.935 159.603 107.352 Q162.681 102.745 168.491 102.745 Z" fill="#000000" fill-rule="nonzero" fill-opacity="1" /><path clip-path="url(#clip140)" d="M625.153 30.8748 L625.153 33.2186 L603.122 33.2186 Q603.435 38.1665 606.091 40.7706 Q608.773 43.3487 613.539 43.3487 Q616.299 43.3487 618.877 42.6716 Q621.481 41.9946 624.033 40.6404 L624.033 45.1716 Q621.455 46.2654 618.747 46.8383 Q616.039 47.4112 613.252 47.4112 Q606.273 47.4112 602.185 43.3487 Q598.122 39.2862 598.122 32.3592 Q598.122 25.1978 601.976 21.0051 Q605.856 16.7864 612.419 16.7864 Q618.304 16.7864 621.716 20.5884 Q625.153 24.3645 625.153 30.8748 M620.362 29.4686 Q620.309 25.5363 618.148 23.1926 Q616.013 20.8488 612.471 20.8488 Q608.461 20.8488 606.039 23.1145 Q603.643 25.3801 603.278 29.4946 L620.362 29.4686 Z" fill="#000000" fill-rule="nonzero" fill-opacity="1" /><path clip-path="url(#clip140)" d="M632.523 35.1456 L632.523 17.4895 L637.315 17.4895 L637.315 34.9634 Q637.315 39.104 638.929 41.1873 Q640.544 43.2446 643.773 43.2446 Q647.653 43.2446 649.893 40.7706 Q652.158 38.2967 652.158 34.0259 L652.158 17.4895 L656.95 17.4895 L656.95 46.656 L652.158 46.656 L652.158 42.1769 Q650.413 44.8331 648.096 46.1352 Q645.804 47.4112 642.757 47.4112 Q637.731 47.4112 635.127 44.2862 Q632.523 41.1612 632.523 35.1456 M644.58 16.7864 L644.58 16.7864 Z" fill="#000000" fill-rule="nonzero" fill-opacity="1" /><path clip-path="url(#clip140)" d="M683.721 21.9686 Q682.913 21.4999 681.95 21.2916 Q681.012 21.0572 679.866 21.0572 Q675.804 21.0572 673.616 23.7134 Q671.455 26.3436 671.455 31.2915 L671.455 46.656 L666.637 46.656 L666.637 17.4895 L671.455 17.4895 L671.455 22.0207 Q672.965 19.3645 675.387 18.0884 Q677.809 16.7864 681.273 16.7864 Q681.767 16.7864 682.366 16.8645 Q682.965 16.9166 683.695 17.0468 L683.721 21.9686 Z" fill="#000000" fill-rule="nonzero" fill-opacity="1" /><path clip-path="url(#clip140)" d="M688.747 17.4895 L693.538 17.4895 L693.538 46.656 L688.747 46.656 L688.747 17.4895 M688.747 6.13538 L693.538 6.13538 L693.538 12.2031 L688.747 12.2031 L688.747 6.13538 Z" fill="#000000" fill-rule="nonzero" fill-opacity="1" /><path clip-path="url(#clip140)" d="M724.502 32.0988 Q724.502 26.8124 722.314 23.8176 Q720.153 20.7968 716.351 20.7968 Q712.549 20.7968 710.361 23.8176 Q708.2 26.8124 708.2 32.0988 Q708.2 37.3852 710.361 40.406 Q712.549 43.4008 716.351 43.4008 Q720.153 43.4008 722.314 40.406 Q724.502 37.3852 724.502 32.0988 M708.2 21.9165 Q709.71 19.3124 712.002 18.0624 Q714.319 16.7864 717.523 16.7864 Q722.835 16.7864 726.142 21.0051 Q729.476 25.2238 729.476 32.0988 Q729.476 38.9737 726.142 43.1925 Q722.835 47.4112 717.523 47.4112 Q714.319 47.4112 712.002 46.1612 Q709.71 44.8852 708.2 42.281 L708.2 46.656 L703.382 46.656 L703.382 6.13538 L708.2 6.13538 L708.2 21.9165 Z" fill="#000000" fill-rule="nonzero" fill-opacity="1" /><path clip-path="url(#clip140)" d="M748.72 20.8488 Q744.866 20.8488 742.627 23.8697 Q740.387 26.8644 740.387 32.0988 Q740.387 37.3331 742.6 40.354 Q744.84 43.3487 748.72 43.3487 Q752.548 43.3487 754.788 40.3279 Q757.028 37.3071 757.028 32.0988 Q757.028 26.9165 754.788 23.8957 Q752.548 20.8488 748.72 20.8488 M748.72 16.7864 Q754.97 16.7864 758.538 20.8488 Q762.106 24.9113 762.106 32.0988 Q762.106 39.2602 758.538 43.3487 Q754.97 47.4112 748.72 47.4112 Q742.444 47.4112 738.877 43.3487 Q735.335 39.2602 735.335 32.0988 Q735.335 24.9113 738.877 20.8488 Q742.444 16.7864 748.72 16.7864 Z" fill="#000000" fill-rule="nonzero" fill-opacity="1" /><path clip-path="url(#clip140)" d="M786.949 21.9686 Q786.142 21.4999 785.178 21.2916 Q784.241 21.0572 783.095 21.0572 Q779.033 21.0572 776.845 23.7134 Q774.684 26.3436 774.684 31.2915 L774.684 46.656 L769.866 46.656 L769.866 17.4895 L774.684 17.4895 L774.684 22.0207 Q776.194 19.3645 778.616 18.0884 Q781.038 16.7864 784.501 16.7864 Q784.996 16.7864 785.595 16.8645 Q786.194 16.9166 786.923 17.0468 L786.949 21.9686 Z" fill="#000000" fill-rule="nonzero" fill-opacity="1" /><path clip-path="url(#clip142)" d="M243.385 989.768 L286.161 989.768 L328.937 988.793 L371.714 994.047 L414.49 1018.42 L457.266 1016.13 L500.042 1017.21 L542.819 1011.04 L585.595 1012.18 L628.371 997.66 L671.148 1030.07 L713.924 1031.02 L756.7 1034.66 L799.476 1053.75 L842.253 1070.59 L885.029 1059.51 L927.805 1062.36 L970.581 1021.8 L1013.36 1022.83 L1056.13 1028.26 L1098.91 1016.5 L1141.69 1019.03 L1141.69 922.978 L1098.91 911.961 L1056.13 912.286 L1013.36 890.531 L970.581 921.442 L927.805 916.563 L885.029 929.031 L842.253 935.637 L799.476 885.58 L756.7 908.146 L713.924 902.977 L671.148 898.255 L628.371 931.058 L585.595 916.558 L542.819 907.253 L500.042 941.923 L457.266 938.436 L414.49 922.696 L371.714 929.456 L328.937 967.748 L286.161 989.768 L243.385 989.768  Z" fill="#009af9" fill-rule="evenodd" fill-opacity="0.1"/>
<polyline clip-path="url(#clip142)" style="stroke:#009af9; stroke-linecap:round; stroke-linejoin:round; stroke-width:4; stroke-opacity:1; fill:none" points="243.385,989.768 286.161,989.768 328.937,978.27 371.714,961.751 414.49,970.56 457.266,977.284 500.042,979.567 542.819,959.149 585.595,964.368 628.371,964.359 671.148,964.16 713.924,966.999 756.7,971.403 799.476,969.665 842.253,1003.11 885.029,994.27 927.805,989.459 970.581,971.623 1013.36,956.679 1056.13,970.272 1098.91,964.231 1141.69,971.006 "/>
<path clip-path="url(#clip142)" d="M243.385 989.768 L286.161 989.768 L328.937 120.65 L371.714 120.65 L414.49 120.65 L457.266 120.65 L500.042 120.65 L542.819 120.65 L585.595 120.65 L628.371 120.65 L671.148 120.65 L713.924 120.65 L756.7 120.65 L799.476 120.65 L842.253 120.65 L885.029 120.65 L927.805 120.65 L970.581 120.65 L1013.36 120.65 L1056.13 120.65 L1098.91 120.65 L1141.69 120.65 L1141.69 120.65 L1098.91 120.65 L1056.13 120.65 L1013.36 120.65 L970.581 120.65 L927.805 120.65 L885.029 120.65 L842.253 120.65 L799.476 120.65 L756.7 120.65 L713.924 120.65 L671.148 120.65 L628.371 120.65 L585.595 120.65 L542.819 120.65 L500.042 120.65 L457.266 120.65 L414.49 120.65 L371.714 120.65 L328.937 120.65 L286.161 989.768 L243.385 989.768  Z" fill="#e26f46" fill-rule="evenodd" fill-opacity="0.1"/>
<polyline clip-path="url(#clip142)" style="stroke:#e26f46; stroke-linecap:round; stroke-linejoin:round; stroke-width:4; stroke-opacity:1; fill:none" points="243.385,989.768 286.161,989.768 328.937,120.65 371.714,120.65 414.49,120.65 457.266,120.65 500.042,120.65 542.819,120.65 585.595,120.65 628.371,120.65 671.148,120.65 713.924,120.65 756.7,120.65 799.476,120.65 842.253,120.65 885.029,120.65 927.805,120.65 970.581,120.65 1013.36,120.65 1056.13,120.65 1098.91,120.65 1141.69,120.65 "/>
<path clip-path="url(#clip140)" d="M1400.56 1099.09 L2352.76 1099.09 L2352.76 92.1521 L1400.56 92.1521  Z" fill="#ffffff" fill-rule="evenodd" fill-opacity="1"/>
<defs>
  <clipPath id="clip143">
    <rect x="1400" y="92" width="953" height="1008"/>
  </clipPath>
</defs>
<polyline clip-path="url(#clip143)" style="stroke:#000000; stroke-linecap:round; stroke-linejoin:round; stroke-width:2; stroke-opacity:0.1; fill:none" points="1598.61,1099.09 1598.61,92.1521 "/>
<polyline clip-path="url(#clip143)" style="stroke:#000000; stroke-linecap:round; stroke-linejoin:round; stroke-width:2; stroke-opacity:0.1; fill:none" points="1812.49,1099.09 1812.49,92.1521 "/>
<polyline clip-path="url(#clip143)" style="stroke:#000000; stroke-linecap:round; stroke-linejoin:round; stroke-width:2; stroke-opacity:0.1; fill:none" points="2026.37,1099.09 2026.37,92.1521 "/>
<polyline clip-path="url(#clip143)" style="stroke:#000000; stroke-linecap:round; stroke-linejoin:round; stroke-width:2; stroke-opacity:0.1; fill:none" points="2240.25,1099.09 2240.25,92.1521 "/>
<polyline clip-path="url(#clip143)" style="stroke:#000000; stroke-linecap:round; stroke-linejoin:round; stroke-width:2; stroke-opacity:0.1; fill:none" points="1400.56,1070.59 2352.76,1070.59 "/>
<polyline clip-path="url(#clip143)" style="stroke:#000000; stroke-linecap:round; stroke-linejoin:round; stroke-width:2; stroke-opacity:0.1; fill:none" points="1400.56,872.195 2352.76,872.195 "/>
<polyline clip-path="url(#clip143)" style="stroke:#000000; stroke-linecap:round; stroke-linejoin:round; stroke-width:2; stroke-opacity:0.1; fill:none" points="1400.56,673.8 2352.76,673.8 "/>
<polyline clip-path="url(#clip143)" style="stroke:#000000; stroke-linecap:round; stroke-linejoin:round; stroke-width:2; stroke-opacity:0.1; fill:none" points="1400.56,475.406 2352.76,475.406 "/>
<polyline clip-path="url(#clip143)" style="stroke:#000000; stroke-linecap:round; stroke-linejoin:round; stroke-width:2; stroke-opacity:0.1; fill:none" points="1400.56,277.011 2352.76,277.011 "/>
<polyline clip-path="url(#clip140)" style="stroke:#000000; stroke-linecap:round; stroke-linejoin:round; stroke-width:4; stroke-opacity:1; fill:none" points="1400.56,1099.09 2352.76,1099.09 "/>
<polyline clip-path="url(#clip140)" style="stroke:#000000; stroke-linecap:round; stroke-linejoin:round; stroke-width:4; stroke-opacity:1; fill:none" points="1598.61,1099.09 1598.61,1080.19 "/>
<polyline clip-path="url(#clip140)" style="stroke:#000000; stroke-linecap:round; stroke-linejoin:round; stroke-width:4; stroke-opacity:1; fill:none" points="1812.49,1099.09 1812.49,1080.19 "/>
<polyline clip-path="url(#clip140)" style="stroke:#000000; stroke-linecap:round; stroke-linejoin:round; stroke-width:4; stroke-opacity:1; fill:none" points="2026.37,1099.09 2026.37,1080.19 "/>
<polyline clip-path="url(#clip140)" style="stroke:#000000; stroke-linecap:round; stroke-linejoin:round; stroke-width:4; stroke-opacity:1; fill:none" points="2240.25,1099.09 2240.25,1080.19 "/>
<path clip-path="url(#clip140)" d="M1588.89 1126.93 L1607.24 1126.93 L1607.24 1130.86 L1593.17 1130.86 L1593.17 1139.34 Q1594.19 1138.99 1595.21 1138.83 Q1596.23 1138.64 1597.24 1138.64 Q1603.03 1138.64 1606.41 1141.81 Q1609.79 1144.98 1609.79 1150.4 Q1609.79 1155.98 1606.32 1159.08 Q1602.85 1162.16 1596.53 1162.16 Q1594.35 1162.16 1592.08 1161.79 Q1589.84 1161.42 1587.43 1160.68 L1587.43 1155.98 Q1589.51 1157.11 1591.74 1157.67 Q1593.96 1158.22 1596.43 1158.22 Q1600.44 1158.22 1602.78 1156.12 Q1605.12 1154.01 1605.12 1150.4 Q1605.12 1146.79 1602.78 1144.68 Q1600.44 1142.58 1596.43 1142.58 Q1594.56 1142.58 1592.68 1142.99 Q1590.83 1143.41 1588.89 1144.29 L1588.89 1126.93 Z" fill="#000000" fill-rule="nonzero" fill-opacity="1" /><path clip-path="url(#clip140)" d="M1787.18 1157.55 L1794.82 1157.55 L1794.82 1131.19 L1786.51 1132.85 L1786.51 1128.59 L1794.77 1126.93 L1799.45 1126.93 L1799.45 1157.55 L1807.09 1157.55 L1807.09 1161.49 L1787.18 1161.49 L1787.18 1157.55 Z" fill="#000000" fill-rule="nonzero" fill-opacity="1" /><path clip-path="url(#clip140)" d="M1826.53 1130.01 Q1822.92 1130.01 1821.09 1133.57 Q1819.29 1137.11 1819.29 1144.24 Q1819.29 1151.35 1821.09 1154.91 Q1822.92 1158.46 1826.53 1158.46 Q1830.17 1158.46 1831.97 1154.91 Q1833.8 1151.35 1833.8 1144.24 Q1833.8 1137.11 1831.97 1133.57 Q1830.17 1130.01 1826.53 1130.01 M1826.53 1126.3 Q1832.34 1126.3 1835.4 1130.91 Q1838.48 1135.49 1838.48 1144.24 Q1838.48 1152.97 1835.4 1157.58 Q1832.34 1162.16 1826.53 1162.16 Q1820.72 1162.16 1817.64 1157.58 Q1814.59 1152.97 1814.59 1144.24 Q1814.59 1135.49 1817.64 1130.91 Q1820.72 1126.3 1826.53 1126.3 Z" fill="#000000" fill-rule="nonzero" fill-opacity="1" /><path clip-path="url(#clip140)" d="M2001.56 1157.55 L2009.2 1157.55 L2009.2 1131.19 L2000.89 1132.85 L2000.89 1128.59 L2009.15 1126.93 L2013.83 1126.93 L2013.83 1157.55 L2021.47 1157.55 L2021.47 1161.49 L2001.56 1161.49 L2001.56 1157.55 Z" fill="#000000" fill-rule="nonzero" fill-opacity="1" /><path clip-path="url(#clip140)" d="M2030.96 1126.93 L2049.31 1126.93 L2049.31 1130.86 L2035.24 1130.86 L2035.24 1139.34 Q2036.26 1138.99 2037.28 1138.83 Q2038.29 1138.64 2039.31 1138.64 Q2045.1 1138.64 2048.48 1141.81 Q2051.86 1144.98 2051.86 1150.4 Q2051.86 1155.98 2048.39 1159.08 Q2044.91 1162.16 2038.6 1162.16 Q2036.42 1162.16 2034.15 1161.79 Q2031.91 1161.42 2029.5 1160.68 L2029.5 1155.98 Q2031.58 1157.11 2033.8 1157.67 Q2036.03 1158.22 2038.5 1158.22 Q2042.51 1158.22 2044.85 1156.12 Q2047.18 1154.01 2047.18 1150.4 Q2047.18 1146.79 2044.85 1144.68 Q2042.51 1142.58 2038.5 1142.58 Q2036.63 1142.58 2034.75 1142.99 Q2032.9 1143.41 2030.96 1144.29 L2030.96 1126.93 Z" fill="#000000" fill-rule="nonzero" fill-opacity="1" /><path clip-path="url(#clip140)" d="M2219.03 1157.55 L2235.35 1157.55 L2235.35 1161.49 L2213.4 1161.49 L2213.4 1157.55 Q2216.06 1154.8 2220.65 1150.17 Q2225.25 1145.52 2226.43 1144.17 Q2228.68 1141.65 2229.56 1139.91 Q2230.46 1138.15 2230.46 1136.46 Q2230.46 1133.71 2228.52 1131.97 Q2226.6 1130.24 2223.5 1130.24 Q2221.3 1130.24 2218.84 1131 Q2216.41 1131.77 2213.63 1133.32 L2213.63 1128.59 Q2216.46 1127.46 2218.91 1126.88 Q2221.37 1126.3 2223.4 1126.3 Q2228.77 1126.3 2231.97 1128.99 Q2235.16 1131.67 2235.16 1136.16 Q2235.16 1138.29 2234.35 1140.21 Q2233.56 1142.11 2231.46 1144.71 Q2230.88 1145.38 2227.78 1148.59 Q2224.68 1151.79 2219.03 1157.55 Z" fill="#000000" fill-rule="nonzero" fill-opacity="1" /><path clip-path="url(#clip140)" d="M2255.16 1130.01 Q2251.55 1130.01 2249.72 1133.57 Q2247.92 1137.11 2247.92 1144.24 Q2247.92 1151.35 2249.72 1154.91 Q2251.55 1158.46 2255.16 1158.46 Q2258.8 1158.46 2260.6 1154.91 Q2262.43 1151.35 2262.43 1144.24 Q2262.43 1137.11 2260.6 1133.57 Q2258.8 1130.01 2255.16 1130.01 M2255.16 1126.3 Q2260.97 1126.3 2264.03 1130.91 Q2267.11 1135.49 2267.11 1144.24 Q2267.11 1152.97 2264.03 1157.58 Q2260.97 1162.16 2255.16 1162.16 Q2249.35 1162.16 2246.27 1157.58 Q2243.22 1152.97 2243.22 1144.24 Q2243.22 1135.49 2246.27 1130.91 Q2249.35 1126.3 2255.16 1126.3 Z" fill="#000000" fill-rule="nonzero" fill-opacity="1" /><polyline clip-path="url(#clip140)" style="stroke:#000000; stroke-linecap:round; stroke-linejoin:round; stroke-width:4; stroke-opacity:1; fill:none" points="1400.56,1099.09 1400.56,92.1521 "/>
<polyline clip-path="url(#clip140)" style="stroke:#000000; stroke-linecap:round; stroke-linejoin:round; stroke-width:4; stroke-opacity:1; fill:none" points="1400.56,1070.59 1419.45,1070.59 "/>
<polyline clip-path="url(#clip140)" style="stroke:#000000; stroke-linecap:round; stroke-linejoin:round; stroke-width:4; stroke-opacity:1; fill:none" points="1400.56,872.195 1419.45,872.195 "/>
<polyline clip-path="url(#clip140)" style="stroke:#000000; stroke-linecap:round; stroke-linejoin:round; stroke-width:4; stroke-opacity:1; fill:none" points="1400.56,673.8 1419.45,673.8 "/>
<polyline clip-path="url(#clip140)" style="stroke:#000000; stroke-linecap:round; stroke-linejoin:round; stroke-width:4; stroke-opacity:1; fill:none" points="1400.56,475.406 1419.45,475.406 "/>
<polyline clip-path="url(#clip140)" style="stroke:#000000; stroke-linecap:round; stroke-linejoin:round; stroke-width:4; stroke-opacity:1; fill:none" points="1400.56,277.011 1419.45,277.011 "/>
<path clip-path="url(#clip140)" d="M1268.03 1083.93 L1275.67 1083.93 L1275.67 1057.57 L1267.36 1059.24 L1267.36 1054.98 L1275.62 1053.31 L1280.3 1053.31 L1280.3 1083.93 L1287.94 1083.93 L1287.94 1087.87 L1268.03 1087.87 L1268.03 1083.93 Z" fill="#000000" fill-rule="nonzero" fill-opacity="1" /><path clip-path="url(#clip140)" d="M1297.38 1081.99 L1302.26 1081.99 L1302.26 1087.87 L1297.38 1087.87 L1297.38 1081.99 Z" fill="#000000" fill-rule="nonzero" fill-opacity="1" /><path clip-path="url(#clip140)" d="M1322.45 1056.39 Q1318.84 1056.39 1317.01 1059.95 Q1315.2 1063.49 1315.2 1070.62 Q1315.2 1077.73 1317.01 1081.3 Q1318.84 1084.84 1322.45 1084.84 Q1326.08 1084.84 1327.89 1081.3 Q1329.72 1077.73 1329.72 1070.62 Q1329.72 1063.49 1327.89 1059.95 Q1326.08 1056.39 1322.45 1056.39 M1322.45 1052.68 Q1328.26 1052.68 1331.32 1057.29 Q1334.39 1061.87 1334.39 1070.62 Q1334.39 1079.35 1331.32 1083.96 Q1328.26 1088.54 1322.45 1088.54 Q1316.64 1088.54 1313.56 1083.96 Q1310.51 1079.35 1310.51 1070.62 Q1310.51 1061.87 1313.56 1057.29 Q1316.64 1052.68 1322.45 1052.68 Z" fill="#000000" fill-rule="nonzero" fill-opacity="1" /><path clip-path="url(#clip140)" d="M1352.61 1056.39 Q1349 1056.39 1347.17 1059.95 Q1345.37 1063.49 1345.37 1070.62 Q1345.37 1077.73 1347.17 1081.3 Q1349 1084.84 1352.61 1084.84 Q1356.25 1084.84 1358.05 1081.3 Q1359.88 1077.73 1359.88 1070.62 Q1359.88 1063.49 1358.05 1059.95 Q1356.25 1056.39 1352.61 1056.39 M1352.61 1052.68 Q1358.42 1052.68 1361.48 1057.29 Q1364.56 1061.87 1364.56 1070.62 Q1364.56 1079.35 1361.48 1083.96 Q1358.42 1088.54 1352.61 1088.54 Q1346.8 1088.54 1343.72 1083.96 Q1340.67 1079.35 1340.67 1070.62 Q1340.67 1061.87 1343.72 1057.29 Q1346.8 1052.68 1352.61 1052.68 Z" fill="#000000" fill-rule="nonzero" fill-opacity="1" /><path clip-path="url(#clip140)" d="M1269.63 885.54 L1277.27 885.54 L1277.27 859.174 L1268.95 860.841 L1268.95 856.582 L1277.22 854.915 L1281.89 854.915 L1281.89 885.54 L1289.53 885.54 L1289.53 889.475 L1269.63 889.475 L1269.63 885.54 Z" fill="#000000" fill-rule="nonzero" fill-opacity="1" /><path clip-path="url(#clip140)" d="M1298.98 883.595 L1303.86 883.595 L1303.86 889.475 L1298.98 889.475 L1298.98 883.595 Z" fill="#000000" fill-rule="nonzero" fill-opacity="1" /><path clip-path="url(#clip140)" d="M1324.05 857.994 Q1320.44 857.994 1318.61 861.558 Q1316.8 865.1 1316.8 872.23 Q1316.8 879.336 1318.61 882.901 Q1320.44 886.443 1324.05 886.443 Q1327.68 886.443 1329.49 882.901 Q1331.32 879.336 1331.32 872.23 Q1331.32 865.1 1329.49 861.558 Q1327.68 857.994 1324.05 857.994 M1324.05 854.29 Q1329.86 854.29 1332.91 858.896 Q1335.99 863.48 1335.99 872.23 Q1335.99 880.956 1332.91 885.563 Q1329.86 890.146 1324.05 890.146 Q1318.24 890.146 1315.16 885.563 Q1312.1 880.956 1312.1 872.23 Q1312.1 863.48 1315.16 858.896 Q1318.24 854.29 1324.05 854.29 Z" fill="#000000" fill-rule="nonzero" fill-opacity="1" /><path clip-path="url(#clip140)" d="M1348.24 885.54 L1364.56 885.54 L1364.56 889.475 L1342.61 889.475 L1342.61 885.54 Q1345.27 882.785 1349.86 878.156 Q1354.46 873.503 1355.64 872.16 Q1357.89 869.637 1358.77 867.901 Q1359.67 866.142 1359.67 864.452 Q1359.67 861.697 1357.73 859.961 Q1355.81 858.225 1352.7 858.225 Q1350.51 858.225 1348.05 858.989 Q1345.62 859.753 1342.84 861.304 L1342.84 856.582 Q1345.67 855.447 1348.12 854.869 Q1350.57 854.29 1352.61 854.29 Q1357.98 854.29 1361.18 856.975 Q1364.37 859.66 1364.37 864.151 Q1364.37 866.281 1363.56 868.202 Q1362.77 870.1 1360.67 872.693 Q1360.09 873.364 1356.99 876.582 Q1353.89 879.776 1348.24 885.54 Z" fill="#000000" fill-rule="nonzero" fill-opacity="1" /><path clip-path="url(#clip140)" d="M1267.54 687.145 L1275.18 687.145 L1275.18 660.779 L1266.87 662.446 L1266.87 658.187 L1275.14 656.52 L1279.81 656.52 L1279.81 687.145 L1287.45 687.145 L1287.45 691.08 L1267.54 691.08 L1267.54 687.145 Z" fill="#000000" fill-rule="nonzero" fill-opacity="1" /><path clip-path="url(#clip140)" d="M1296.89 685.201 L1301.78 685.201 L1301.78 691.08 L1296.89 691.08 L1296.89 685.201 Z" fill="#000000" fill-rule="nonzero" fill-opacity="1" /><path clip-path="url(#clip140)" d="M1321.96 659.599 Q1318.35 659.599 1316.52 663.164 Q1314.72 666.705 1314.72 673.835 Q1314.72 680.941 1316.52 684.506 Q1318.35 688.048 1321.96 688.048 Q1325.6 688.048 1327.4 684.506 Q1329.23 680.941 1329.23 673.835 Q1329.23 666.705 1327.4 663.164 Q1325.6 659.599 1321.96 659.599 M1321.96 655.895 Q1327.77 655.895 1330.83 660.502 Q1333.91 665.085 1333.91 673.835 Q1333.91 682.562 1330.83 687.168 Q1327.77 691.752 1321.96 691.752 Q1316.15 691.752 1313.08 687.168 Q1310.02 682.562 1310.02 673.835 Q1310.02 665.085 1313.08 660.502 Q1316.15 655.895 1321.96 655.895 Z" fill="#000000" fill-rule="nonzero" fill-opacity="1" /><path clip-path="url(#clip140)" d="M1354.97 660.594 L1343.17 679.043 L1354.97 679.043 L1354.97 660.594 M1353.75 656.52 L1359.63 656.52 L1359.63 679.043 L1364.56 679.043 L1364.56 682.932 L1359.63 682.932 L1359.63 691.08 L1354.97 691.08 L1354.97 682.932 L1339.37 682.932 L1339.37 678.418 L1353.75 656.52 Z" fill="#000000" fill-rule="nonzero" fill-opacity="1" /><path clip-path="url(#clip140)" d="M1267.87 488.75 L1275.51 488.75 L1275.51 462.385 L1267.2 464.051 L1267.2 459.792 L1275.46 458.126 L1280.14 458.126 L1280.14 488.75 L1287.77 488.75 L1287.77 492.686 L1267.87 492.686 L1267.87 488.75 Z" fill="#000000" fill-rule="nonzero" fill-opacity="1" /><path clip-path="url(#clip140)" d="M1297.22 486.806 L1302.1 486.806 L1302.1 492.686 L1297.22 492.686 L1297.22 486.806 Z" fill="#000000" fill-rule="nonzero" fill-opacity="1" /><path clip-path="url(#clip140)" d="M1322.29 461.204 Q1318.68 461.204 1316.85 464.769 Q1315.04 468.311 1315.04 475.44 Q1315.04 482.547 1316.85 486.111 Q1318.68 489.653 1322.29 489.653 Q1325.92 489.653 1327.73 486.111 Q1329.56 482.547 1329.56 475.44 Q1329.56 468.311 1327.73 464.769 Q1325.92 461.204 1322.29 461.204 M1322.29 457.501 Q1328.1 457.501 1331.15 462.107 Q1334.23 466.69 1334.23 475.44 Q1334.23 484.167 1331.15 488.774 Q1328.1 493.357 1322.29 493.357 Q1316.48 493.357 1313.4 488.774 Q1310.34 484.167 1310.34 475.44 Q1310.34 466.69 1313.4 462.107 Q1316.48 457.501 1322.29 457.501 Z" fill="#000000" fill-rule="nonzero" fill-opacity="1" /><path clip-path="url(#clip140)" d="M1353.03 473.542 Q1349.88 473.542 1348.03 475.695 Q1346.2 477.848 1346.2 481.598 Q1346.2 485.324 1348.03 487.5 Q1349.88 489.653 1353.03 489.653 Q1356.18 489.653 1358.01 487.5 Q1359.86 485.324 1359.86 481.598 Q1359.86 477.848 1358.01 475.695 Q1356.18 473.542 1353.03 473.542 M1362.31 458.889 L1362.31 463.149 Q1360.55 462.315 1358.75 461.875 Q1356.96 461.436 1355.2 461.436 Q1350.57 461.436 1348.12 464.561 Q1345.69 467.686 1345.34 474.005 Q1346.71 471.991 1348.77 470.926 Q1350.83 469.838 1353.31 469.838 Q1358.51 469.838 1361.52 473.01 Q1364.56 476.158 1364.56 481.598 Q1364.56 486.922 1361.41 490.139 Q1358.26 493.357 1353.03 493.357 Q1347.03 493.357 1343.86 488.774 Q1340.69 484.167 1340.69 475.44 Q1340.69 467.246 1344.58 462.385 Q1348.47 457.501 1355.02 457.501 Q1356.78 457.501 1358.56 457.848 Q1360.37 458.195 1362.31 458.889 Z" fill="#000000" fill-rule="nonzero" fill-opacity="1" /><path clip-path="url(#clip140)" d="M1268.12 290.356 L1275.76 290.356 L1275.76 263.99 L1267.45 265.657 L1267.45 261.397 L1275.71 259.731 L1280.39 259.731 L1280.39 290.356 L1288.03 290.356 L1288.03 294.291 L1268.12 294.291 L1268.12 290.356 Z" fill="#000000" fill-rule="nonzero" fill-opacity="1" /><path clip-path="url(#clip140)" d="M1297.47 288.411 L1302.36 288.411 L1302.36 294.291 L1297.47 294.291 L1297.47 288.411 Z" fill="#000000" fill-rule="nonzero" fill-opacity="1" /><path clip-path="url(#clip140)" d="M1322.54 262.809 Q1318.93 262.809 1317.1 266.374 Q1315.3 269.916 1315.3 277.046 Q1315.3 284.152 1317.1 287.717 Q1318.93 291.258 1322.54 291.258 Q1326.18 291.258 1327.98 287.717 Q1329.81 284.152 1329.81 277.046 Q1329.81 269.916 1327.98 266.374 Q1326.18 262.809 1322.54 262.809 M1322.54 259.106 Q1328.35 259.106 1331.41 263.712 Q1334.49 268.296 1334.49 277.046 Q1334.49 285.772 1331.41 290.379 Q1328.35 294.962 1322.54 294.962 Q1316.73 294.962 1313.65 290.379 Q1310.6 285.772 1310.6 277.046 Q1310.6 268.296 1313.65 263.712 Q1316.73 259.106 1322.54 259.106 Z" fill="#000000" fill-rule="nonzero" fill-opacity="1" /><path clip-path="url(#clip140)" d="M1352.7 277.879 Q1349.37 277.879 1347.45 279.661 Q1345.55 281.444 1345.55 284.569 Q1345.55 287.694 1347.45 289.476 Q1349.37 291.258 1352.7 291.258 Q1356.04 291.258 1357.96 289.476 Q1359.88 287.67 1359.88 284.569 Q1359.88 281.444 1357.96 279.661 Q1356.06 277.879 1352.7 277.879 M1348.03 275.888 Q1345.02 275.147 1343.33 273.087 Q1341.66 271.027 1341.66 268.064 Q1341.66 263.921 1344.6 261.513 Q1347.57 259.106 1352.7 259.106 Q1357.87 259.106 1360.81 261.513 Q1363.75 263.921 1363.75 268.064 Q1363.75 271.027 1362.06 273.087 Q1360.39 275.147 1357.4 275.888 Q1360.78 276.675 1362.66 278.967 Q1364.56 281.258 1364.56 284.569 Q1364.56 289.592 1361.48 292.277 Q1358.42 294.962 1352.7 294.962 Q1346.99 294.962 1343.91 292.277 Q1340.85 289.592 1340.85 284.569 Q1340.85 281.258 1342.75 278.967 Q1344.65 276.675 1348.03 275.888 M1346.32 268.504 Q1346.32 271.189 1347.98 272.694 Q1349.67 274.198 1352.7 274.198 Q1355.71 274.198 1357.4 272.694 Q1359.12 271.189 1359.12 268.504 Q1359.12 265.819 1357.4 264.314 Q1355.71 262.809 1352.7 262.809 Q1349.67 262.809 1347.98 264.314 Q1346.32 265.819 1346.32 268.504 Z" fill="#000000" fill-rule="nonzero" fill-opacity="1" /><path clip-path="url(#clip140)" d="M1735.94 31.7342 Q1735.94 26.5259 1733.78 23.6613 Q1731.64 20.7968 1727.76 20.7968 Q1723.91 20.7968 1721.75 23.6613 Q1719.61 26.5259 1719.61 31.7342 Q1719.61 36.9165 1721.75 39.781 Q1723.91 42.6456 1727.76 42.6456 Q1731.64 42.6456 1733.78 39.781 Q1735.94 36.9165 1735.94 31.7342 M1740.73 43.0362 Q1740.73 50.4841 1737.43 54.1039 Q1734.12 57.7497 1727.29 57.7497 Q1724.77 57.7497 1722.53 57.3591 Q1720.29 56.9945 1718.18 56.2132 L1718.18 51.5518 Q1720.29 52.6976 1722.35 53.2445 Q1724.4 53.7914 1726.54 53.7914 Q1731.25 53.7914 1733.6 51.3174 Q1735.94 48.8695 1735.94 43.8956 L1735.94 41.5258 Q1734.46 44.1039 1732.14 45.38 Q1729.82 46.656 1726.59 46.656 Q1721.23 46.656 1717.95 42.5675 Q1714.66 38.479 1714.66 31.7342 Q1714.66 24.9634 1717.95 20.8749 Q1721.23 16.7864 1726.59 16.7864 Q1729.82 16.7864 1732.14 18.0624 Q1734.46 19.3384 1735.94 21.9165 L1735.94 17.4895 L1740.73 17.4895 L1740.73 43.0362 Z" fill="#000000" fill-rule="nonzero" fill-opacity="1" /><path clip-path="url(#clip140)" d="M1769.79 21.9165 L1769.79 6.13538 L1774.59 6.13538 L1774.59 46.656 L1769.79 46.656 L1769.79 42.281 Q1768.28 44.8852 1765.97 46.1612 Q1763.67 47.4112 1760.45 47.4112 Q1755.16 47.4112 1751.83 43.1925 Q1748.52 38.9737 1748.52 32.0988 Q1748.52 25.2238 1751.83 21.0051 Q1755.16 16.7864 1760.45 16.7864 Q1763.67 16.7864 1765.97 18.0624 Q1768.28 19.3124 1769.79 21.9165 M1753.47 32.0988 Q1753.47 37.3852 1755.63 40.406 Q1757.82 43.4008 1761.62 43.4008 Q1765.42 43.4008 1767.61 40.406 Q1769.79 37.3852 1769.79 32.0988 Q1769.79 26.8124 1767.61 23.8176 Q1765.42 20.7968 1761.62 20.7968 Q1757.82 20.7968 1755.63 23.8176 Q1753.47 26.8124 1753.47 32.0988 Z" fill="#000000" fill-rule="nonzero" fill-opacity="1" /><path clip-path="url(#clip140)" d="M1789.09 42.281 L1789.09 57.7497 L1784.27 57.7497 L1784.27 17.4895 L1789.09 17.4895 L1789.09 21.9165 Q1790.6 19.3124 1792.89 18.0624 Q1795.21 16.7864 1798.41 16.7864 Q1803.73 16.7864 1807.03 21.0051 Q1810.37 25.2238 1810.37 32.0988 Q1810.37 38.9737 1807.03 43.1925 Q1803.73 47.4112 1798.41 47.4112 Q1795.21 47.4112 1792.89 46.1612 Q1790.6 44.8852 1789.09 42.281 M1805.39 32.0988 Q1805.39 26.8124 1803.21 23.8176 Q1801.04 20.7968 1797.24 20.7968 Q1793.44 20.7968 1791.25 23.8176 Q1789.09 26.8124 1789.09 32.0988 Q1789.09 37.3852 1791.25 40.406 Q1793.44 43.4008 1797.24 43.4008 Q1801.04 43.4008 1803.21 40.406 Q1805.39 37.3852 1805.39 32.0988 Z" fill="#000000" fill-rule="nonzero" fill-opacity="1" /><path clip-path="url(#clip140)" d="M1854.46 21.9165 L1854.46 6.13538 L1859.25 6.13538 L1859.25 46.656 L1854.46 46.656 L1854.46 42.281 Q1852.95 44.8852 1850.63 46.1612 Q1848.34 47.4112 1845.11 47.4112 Q1839.82 47.4112 1836.49 43.1925 Q1833.18 38.9737 1833.18 32.0988 Q1833.18 25.2238 1836.49 21.0051 Q1839.82 16.7864 1845.11 16.7864 Q1848.34 16.7864 1850.63 18.0624 Q1852.95 19.3124 1854.46 21.9165 M1838.13 32.0988 Q1838.13 37.3852 1840.29 40.406 Q1842.48 43.4008 1846.28 43.4008 Q1850.08 43.4008 1852.27 40.406 Q1854.46 37.3852 1854.46 32.0988 Q1854.46 26.8124 1852.27 23.8176 Q1850.08 20.7968 1846.28 20.7968 Q1842.48 20.7968 1840.29 23.8176 Q1838.13 26.8124 1838.13 32.0988 Z" fill="#000000" fill-rule="nonzero" fill-opacity="1" /><path clip-path="url(#clip140)" d="M1894.06 30.8748 L1894.06 33.2186 L1872.03 33.2186 Q1872.35 38.1665 1875 40.7706 Q1877.68 43.3487 1882.45 43.3487 Q1885.21 43.3487 1887.79 42.6716 Q1890.39 41.9946 1892.95 40.6404 L1892.95 45.1716 Q1890.37 46.2654 1887.66 46.8383 Q1884.95 47.4112 1882.16 47.4112 Q1875.18 47.4112 1871.1 43.3487 Q1867.03 39.2862 1867.03 32.3592 Q1867.03 25.1978 1870.89 21.0051 Q1874.77 16.7864 1881.33 16.7864 Q1887.22 16.7864 1890.63 20.5884 Q1894.06 24.3645 1894.06 30.8748 M1889.27 29.4686 Q1889.22 25.5363 1887.06 23.1926 Q1884.92 20.8488 1881.38 20.8488 Q1877.37 20.8488 1874.95 23.1145 Q1872.55 25.3801 1872.19 29.4946 L1889.27 29.4686 Z" fill="#000000" fill-rule="nonzero" fill-opacity="1" /><path clip-path="url(#clip140)" d="M1916.69 6.13538 L1916.69 10.1197 L1912.11 10.1197 Q1909.53 10.1197 1908.52 11.1614 Q1907.53 12.2031 1907.53 14.9114 L1907.53 17.4895 L1915.42 17.4895 L1915.42 21.2134 L1907.53 21.2134 L1907.53 46.656 L1902.71 46.656 L1902.71 21.2134 L1898.13 21.2134 L1898.13 17.4895 L1902.71 17.4895 L1902.71 15.4583 Q1902.71 10.5885 1904.98 8.37496 Q1907.24 6.13538 1912.16 6.13538 L1916.69 6.13538 Z" fill="#000000" fill-rule="nonzero" fill-opacity="1" /><path clip-path="url(#clip140)" d="M1920.71 6.13538 L1925.5 6.13538 L1925.5 46.656 L1920.71 46.656 L1920.71 6.13538 Z" fill="#000000" fill-rule="nonzero" fill-opacity="1" /><path clip-path="url(#clip140)" d="M1948.78 31.9946 Q1942.97 31.9946 1940.73 33.3227 Q1938.49 34.6509 1938.49 37.854 Q1938.49 40.406 1940.16 41.9164 Q1941.85 43.4008 1944.74 43.4008 Q1948.73 43.4008 1951.12 40.5883 Q1953.54 37.7498 1953.54 33.0623 L1953.54 31.9946 L1948.78 31.9946 M1958.34 30.0155 L1958.34 46.656 L1953.54 46.656 L1953.54 42.2289 Q1951.9 44.8852 1949.46 46.1612 Q1947.01 47.4112 1943.47 47.4112 Q1938.99 47.4112 1936.33 44.9112 Q1933.7 42.3852 1933.7 38.1665 Q1933.7 33.2446 1936.98 30.7446 Q1940.29 28.2446 1946.83 28.2446 L1953.54 28.2446 L1953.54 27.7759 Q1953.54 24.4686 1951.36 22.6718 Q1949.19 20.8488 1945.26 20.8488 Q1942.76 20.8488 1940.39 21.4478 Q1938.02 22.0468 1935.84 23.2447 L1935.84 18.8176 Q1938.47 17.802 1940.94 17.3072 Q1943.41 16.7864 1945.76 16.7864 Q1952.09 16.7864 1955.21 20.0676 Q1958.34 23.3488 1958.34 30.0155 Z" fill="#000000" fill-rule="nonzero" fill-opacity="1" /><path clip-path="url(#clip140)" d="M1972.94 9.20828 L1972.94 17.4895 L1982.81 17.4895 L1982.81 21.2134 L1972.94 21.2134 L1972.94 37.0467 Q1972.94 40.6144 1973.91 41.63 Q1974.9 42.6456 1977.89 42.6456 L1982.81 42.6456 L1982.81 46.656 L1977.89 46.656 Q1972.35 46.656 1970.24 44.5987 Q1968.13 42.5154 1968.13 37.0467 L1968.13 21.2134 L1964.61 21.2134 L1964.61 17.4895 L1968.13 17.4895 L1968.13 9.20828 L1972.94 9.20828 Z" fill="#000000" fill-rule="nonzero" fill-opacity="1" /><path clip-path="url(#clip140)" d="M2000.42 20.8488 Q1996.56 20.8488 1994.32 23.8697 Q1992.09 26.8644 1992.09 32.0988 Q1992.09 37.3331 1994.3 40.354 Q1996.54 43.3487 2000.42 43.3487 Q2004.25 43.3487 2006.49 40.3279 Q2008.73 37.3071 2008.73 32.0988 Q2008.73 26.9165 2006.49 23.8957 Q2004.25 20.8488 2000.42 20.8488 M2000.42 16.7864 Q2006.67 16.7864 2010.24 20.8488 Q2013.8 24.9113 2013.8 32.0988 Q2013.8 39.2602 2010.24 43.3487 Q2006.67 47.4112 2000.42 47.4112 Q1994.14 47.4112 1990.57 43.3487 Q1987.03 39.2602 1987.03 32.0988 Q1987.03 24.9113 1990.57 20.8488 Q1994.14 16.7864 2000.42 16.7864 Z" fill="#000000" fill-rule="nonzero" fill-opacity="1" /><path clip-path="url(#clip140)" d="M2038.65 21.9686 Q2037.84 21.4999 2036.88 21.2916 Q2035.94 21.0572 2034.79 21.0572 Q2030.73 21.0572 2028.54 23.7134 Q2026.38 26.3436 2026.38 31.2915 L2026.38 46.656 L2021.56 46.656 L2021.56 17.4895 L2026.38 17.4895 L2026.38 22.0207 Q2027.89 19.3645 2030.31 18.0884 Q2032.74 16.7864 2036.2 16.7864 Q2036.69 16.7864 2037.29 16.8645 Q2037.89 16.9166 2038.62 17.0468 L2038.65 21.9686 Z" fill="#000000" fill-rule="nonzero" fill-opacity="1" /><path clip-path="url(#clip143)" d="M1513.06 1032.6 L1555.83 1032.78 L1598.61 1006.44 L1641.39 961.067 L1684.16 932.347 L1726.94 947.264 L1769.72 891.909 L1812.49 894.189 L1855.27 923.791 L1898.04 860.295 L1940.82 762.413 L1983.6 753.636 L2026.37 691.031 L2069.15 700.501 L2111.93 642.433 L2154.7 571.3 L2197.48 554.328 L2240.25 519.089 L2283.03 587.495 L2325.81 651.538 L2325.81 384.721 L2283.03 430.719 L2240.25 444.73 L2197.48 436.19 L2154.7 453.195 L2111.93 456.868 L2069.15 419.043 L2026.37 421.263 L1983.6 456.577 L1940.82 496.543 L1898.04 519.539 L1855.27 560.088 L1812.49 660.581 L1769.72 715.384 L1726.94 789.124 L1684.16 812.171 L1641.39 878.816 L1598.61 883.128 L1555.83 935.763 L1513.06 969.907  Z" fill="#009af9" fill-rule="evenodd" fill-opacity="0.1"/>
<polyline clip-path="url(#clip143)" style="stroke:#009af9; stroke-linecap:round; stroke-linejoin:round; stroke-width:4; stroke-opacity:1; fill:none" points="1513.06,1001.25 1555.83,984.272 1598.61,944.786 1641.39,919.941 1684.16,872.259 1726.94,868.194 1769.72,803.646 1812.49,777.385 1855.27,741.94 1898.04,689.917 1940.82,629.478 1983.6,605.107 2026.37,556.147 2069.15,559.772 2111.93,549.65 2154.7,512.248 2197.48,495.259 2240.25,481.909 2283.03,509.107 2325.81,518.13 "/>
<path clip-path="url(#clip143)" d="M1513.06 1059.35 L1555.83 1056.08 L1598.61 1030.12 L1641.39 972.045 L1684.16 954.676 L1726.94 908.878 L1769.72 895.688 L1812.49 867.183 L1855.27 878.676 L1898.04 831.242 L1940.82 826.892 L1983.6 807.981 L2026.37 728.258 L2069.15 687.097 L2111.93 665.877 L2154.7 636.422 L2197.48 611.836 L2240.25 583.478 L2283.03 576.819 L2325.81 585.101 L2325.81 120.65 L2283.03 209.57 L2240.25 245.306 L2197.48 276.031 L2154.7 365.447 L2111.93 398.568 L2069.15 419.337 L2026.37 447.439 L1983.6 455.839 L1940.82 495.179 L1898.04 568.921 L1855.27 611.165 L1812.49 711.252 L1769.72 788.618 L1726.94 767.602 L1684.16 757.986 L1641.39 768.476 L1598.61 857.65 L1555.83 901.817 L1513.06 985.367  Z" fill="#e26f46" fill-rule="evenodd" fill-opacity="0.1"/>
<polyline clip-path="url(#clip143)" style="stroke:#e26f46; stroke-linecap:round; stroke-linejoin:round; stroke-width:4; stroke-opacity:1; fill:none" points="1513.06,1022.36 1555.83,978.947 1598.61,943.884 1641.39,870.261 1684.16,856.331 1726.94,838.24 1769.72,842.153 1812.49,789.217 1855.27,744.921 1898.04,700.082 1940.82,661.036 1983.6,631.91 2026.37,587.849 2069.15,553.217 2111.93,532.222 2154.7,500.934 2197.48,443.933 2240.25,414.392 2283.03,393.195 2325.81,352.876 "/>
</svg>
