<?xml version="1.0" encoding="utf-8"?>
<svg xmlns="http://www.w3.org/2000/svg" xmlns:xlink="http://www.w3.org/1999/xlink" width="600" height="400" viewBox="0 0 2400 1600">
<defs>
  <clipPath id="clip230">
    <rect x="0" y="0" width="2400" height="1600"/>
  </clipPath>
</defs>
<path clip-path="url(#clip230)" d="M0 1600 L2400 1600 L2400 0 L0 0  Z" fill="#ffffff" fill-rule="evenodd" fill-opacity="1"/>
<defs>
  <clipPath id="clip231">
    <rect x="480" y="0" width="1681" height="1600"/>
  </clipPath>
</defs>
<path clip-path="url(#clip230)" d="M230.765 1486.45 L2352.76 1486.45 L2352.76 106.192 L230.765 106.192  Z" fill="#ffffff" fill-rule="evenodd" fill-opacity="1"/>
<defs>
  <clipPath id="clip232">
    <rect x="230" y="106" width="2123" height="1381"/>
  </clipPath>
</defs>
<polyline clip-path="url(#clip232)" style="stroke:#000000; stroke-linecap:round; stroke-linejoin:round; stroke-width:2; stroke-opacity:0.1; fill:none" points="541.056,1486.45 541.056,106.192 "/>
<polyline clip-path="url(#clip232)" style="stroke:#000000; stroke-linecap:round; stroke-linejoin:round; stroke-width:2; stroke-opacity:0.1; fill:none" points="916.408,1486.45 916.408,106.192 "/>
<polyline clip-path="url(#clip232)" style="stroke:#000000; stroke-linecap:round; stroke-linejoin:round; stroke-width:2; stroke-opacity:0.1; fill:none" points="1291.76,1486.45 1291.76,106.192 "/>
<polyline clip-path="url(#clip232)" style="stroke:#000000; stroke-linecap:round; stroke-linejoin:round; stroke-width:2; stroke-opacity:0.1; fill:none" points="1667.11,1486.45 1667.11,106.192 "/>
<polyline clip-path="url(#clip232)" style="stroke:#000000; stroke-linecap:round; stroke-linejoin:round; stroke-width:2; stroke-opacity:0.1; fill:none" points="2042.46,1486.45 2042.46,106.192 "/>
<polyline clip-path="url(#clip232)" style="stroke:#000000; stroke-linecap:round; stroke-linejoin:round; stroke-width:2; stroke-opacity:0.1; fill:none" points="230.765,1466.95 2352.76,1466.95 "/>
<polyline clip-path="url(#clip232)" style="stroke:#000000; stroke-linecap:round; stroke-linejoin:round; stroke-width:2; stroke-opacity:0.1; fill:none" points="230.765,1193.2 2352.76,1193.2 "/>
<polyline clip-path="url(#clip232)" style="stroke:#000000; stroke-linecap:round; stroke-linejoin:round; stroke-width:2; stroke-opacity:0.1; fill:none" points="230.765,919.441 2352.76,919.441 "/>
<polyline clip-path="url(#clip232)" style="stroke:#000000; stroke-linecap:round; stroke-linejoin:round; stroke-width:2; stroke-opacity:0.1; fill:none" points="230.765,645.687 2352.76,645.687 "/>
<polyline clip-path="url(#clip232)" style="stroke:#000000; stroke-linecap:round; stroke-linejoin:round; stroke-width:2; stroke-opacity:0.1; fill:none" points="230.765,371.933 2352.76,371.933 "/>
<polyline clip-path="url(#clip230)" style="stroke:#000000; stroke-linecap:round; stroke-linejoin:round; stroke-width:4; stroke-opacity:1; fill:none" points="230.765,1486.45 2352.76,1486.45 "/>
<polyline clip-path="url(#clip230)" style="stroke:#000000; stroke-linecap:round; stroke-linejoin:round; stroke-width:4; stroke-opacity:1; fill:none" points="541.056,1486.45 541.056,1467.55 "/>
<polyline clip-path="url(#clip230)" style="stroke:#000000; stroke-linecap:round; stroke-linejoin:round; stroke-width:4; stroke-opacity:1; fill:none" points="916.408,1486.45 916.408,1467.55 "/>
<polyline clip-path="url(#clip230)" style="stroke:#000000; stroke-linecap:round; stroke-linejoin:round; stroke-width:4; stroke-opacity:1; fill:none" points="1291.76,1486.45 1291.76,1467.55 "/>
<polyline clip-path="url(#clip230)" style="stroke:#000000; stroke-linecap:round; stroke-linejoin:round; stroke-width:4; stroke-opacity:1; fill:none" points="1667.11,1486.45 1667.11,1467.55 "/>
<polyline clip-path="url(#clip230)" style="stroke:#000000; stroke-linecap:round; stroke-linejoin:round; stroke-width:4; stroke-opacity:1; fill:none" points="2042.46,1486.45 2042.46,1467.55 "/>
<path clip-path="url(#clip230)" d="M545.303 1530.21 Q548.66 1530.93 550.535 1533.2 Q552.433 1535.47 552.433 1538.8 Q552.433 1543.92 548.914 1546.72 Q545.396 1549.52 538.915 1549.52 Q536.739 1549.52 534.424 1549.08 Q532.132 1548.66 529.678 1547.81 L529.678 1543.29 Q531.623 1544.43 533.938 1545.01 Q536.252 1545.58 538.776 1545.58 Q543.174 1545.58 545.465 1543.85 Q547.78 1542.11 547.78 1538.8 Q547.78 1535.75 545.627 1534.03 Q543.498 1532.3 539.678 1532.3 L535.651 1532.3 L535.651 1528.45 L539.864 1528.45 Q543.313 1528.45 545.141 1527.09 Q546.97 1525.7 546.97 1523.11 Q546.97 1520.45 545.072 1519.03 Q543.197 1517.6 539.678 1517.6 Q537.757 1517.6 535.558 1518.01 Q533.359 1518.43 530.72 1519.31 L530.72 1515.14 Q533.382 1514.4 535.697 1514.03 Q538.035 1513.66 540.095 1513.66 Q545.419 1513.66 548.521 1516.09 Q551.623 1518.5 551.623 1522.62 Q551.623 1525.49 549.979 1527.48 Q548.336 1529.45 545.303 1530.21 Z" fill="#000000" fill-rule="nonzero" fill-opacity="1" /><path clip-path="url(#clip230)" d="M916.813 1529.7 Q913.665 1529.7 911.813 1531.86 Q909.984 1534.01 909.984 1537.76 Q909.984 1541.49 911.813 1543.66 Q913.665 1545.82 916.813 1545.82 Q919.961 1545.82 921.79 1543.66 Q923.642 1541.49 923.642 1537.76 Q923.642 1534.01 921.79 1531.86 Q919.961 1529.7 916.813 1529.7 M926.095 1515.05 L926.095 1519.31 Q924.336 1518.48 922.531 1518.04 Q920.748 1517.6 918.989 1517.6 Q914.359 1517.6 911.906 1520.72 Q909.475 1523.85 909.128 1530.17 Q910.494 1528.15 912.554 1527.09 Q914.614 1526 917.091 1526 Q922.299 1526 925.308 1529.17 Q928.341 1532.32 928.341 1537.76 Q928.341 1543.08 925.193 1546.3 Q922.044 1549.52 916.813 1549.52 Q910.818 1549.52 907.646 1544.94 Q904.475 1540.33 904.475 1531.6 Q904.475 1523.41 908.364 1518.55 Q912.253 1513.66 918.804 1513.66 Q920.563 1513.66 922.345 1514.01 Q924.151 1514.36 926.095 1515.05 Z" fill="#000000" fill-rule="nonzero" fill-opacity="1" /><path clip-path="url(#clip230)" d="M1282.06 1548.13 L1282.06 1543.87 Q1283.82 1544.7 1285.63 1545.14 Q1287.43 1545.58 1289.17 1545.58 Q1293.8 1545.58 1296.23 1542.48 Q1298.68 1539.36 1299.03 1533.01 Q1297.69 1535.01 1295.63 1536.07 Q1293.57 1537.13 1291.07 1537.13 Q1285.88 1537.13 1282.85 1534.01 Q1279.84 1530.86 1279.84 1525.42 Q1279.84 1520.1 1282.99 1516.88 Q1286.14 1513.66 1291.37 1513.66 Q1297.36 1513.66 1300.51 1518.27 Q1303.68 1522.85 1303.68 1531.6 Q1303.68 1539.77 1299.79 1544.66 Q1295.93 1549.52 1289.38 1549.52 Q1287.62 1549.52 1285.81 1549.17 Q1284.01 1548.82 1282.06 1548.13 M1291.37 1533.48 Q1294.51 1533.48 1296.34 1531.32 Q1298.2 1529.17 1298.2 1525.42 Q1298.2 1521.7 1296.34 1519.54 Q1294.51 1517.37 1291.37 1517.37 Q1288.22 1517.37 1286.37 1519.54 Q1284.54 1521.7 1284.54 1525.42 Q1284.54 1529.17 1286.37 1531.32 Q1288.22 1533.48 1291.37 1533.48 Z" fill="#000000" fill-rule="nonzero" fill-opacity="1" /><path clip-path="url(#clip230)" d="M1642.6 1544.91 L1650.24 1544.91 L1650.24 1518.55 L1641.93 1520.21 L1641.93 1515.95 L1650.19 1514.29 L1654.87 1514.29 L1654.87 1544.91 L1662.51 1544.91 L1662.51 1548.85 L1642.6 1548.85 L1642.6 1544.91 Z" fill="#000000" fill-rule="nonzero" fill-opacity="1" /><path clip-path="url(#clip230)" d="M1675.98 1544.91 L1692.3 1544.91 L1692.3 1548.85 L1670.35 1548.85 L1670.35 1544.91 Q1673.02 1542.16 1677.6 1537.53 Q1682.2 1532.88 1683.39 1531.53 Q1685.63 1529.01 1686.51 1527.27 Q1687.41 1525.51 1687.41 1523.82 Q1687.41 1521.07 1685.47 1519.33 Q1683.55 1517.6 1680.45 1517.6 Q1678.25 1517.6 1675.79 1518.36 Q1673.36 1519.13 1670.58 1520.68 L1670.58 1515.95 Q1673.41 1514.82 1675.86 1514.24 Q1678.32 1513.66 1680.35 1513.66 Q1685.72 1513.66 1688.92 1516.35 Q1692.11 1519.03 1692.11 1523.52 Q1692.11 1525.65 1691.3 1527.57 Q1690.52 1529.47 1688.41 1532.07 Q1687.83 1532.74 1684.73 1535.95 Q1681.63 1539.15 1675.98 1544.91 Z" fill="#000000" fill-rule="nonzero" fill-opacity="1" /><path clip-path="url(#clip230)" d="M2017.65 1544.91 L2025.29 1544.91 L2025.29 1518.55 L2016.98 1520.21 L2016.98 1515.95 L2025.24 1514.29 L2029.92 1514.29 L2029.92 1544.91 L2037.56 1544.91 L2037.56 1548.85 L2017.65 1548.85 L2017.65 1544.91 Z" fill="#000000" fill-rule="nonzero" fill-opacity="1" /><path clip-path="url(#clip230)" d="M2047.05 1514.29 L2065.4 1514.29 L2065.4 1518.22 L2051.33 1518.22 L2051.33 1526.7 Q2052.35 1526.35 2053.37 1526.19 Q2054.39 1526 2055.4 1526 Q2061.19 1526 2064.57 1529.17 Q2067.95 1532.34 2067.95 1537.76 Q2067.95 1543.34 2064.48 1546.44 Q2061.01 1549.52 2054.69 1549.52 Q2052.51 1549.52 2050.24 1549.15 Q2048 1548.78 2045.59 1548.04 L2045.59 1543.34 Q2047.67 1544.47 2049.9 1545.03 Q2052.12 1545.58 2054.59 1545.58 Q2058.6 1545.58 2060.94 1543.48 Q2063.27 1541.37 2063.27 1537.76 Q2063.27 1534.15 2060.94 1532.04 Q2058.6 1529.94 2054.59 1529.94 Q2052.72 1529.94 2050.84 1530.35 Q2048.99 1530.77 2047.05 1531.65 L2047.05 1514.29 Z" fill="#000000" fill-rule="nonzero" fill-opacity="1" /><polyline clip-path="url(#clip230)" style="stroke:#000000; stroke-linecap:round; stroke-linejoin:round; stroke-width:4; stroke-opacity:1; fill:none" points="230.765,1486.45 230.765,106.192 "/>
<polyline clip-path="url(#clip230)" style="stroke:#000000; stroke-linecap:round; stroke-linejoin:round; stroke-width:4; stroke-opacity:1; fill:none" points="230.765,1466.95 249.662,1466.95 "/>
<polyline clip-path="url(#clip230)" style="stroke:#000000; stroke-linecap:round; stroke-linejoin:round; stroke-width:4; stroke-opacity:1; fill:none" points="230.765,1193.2 249.662,1193.2 "/>
<polyline clip-path="url(#clip230)" style="stroke:#000000; stroke-linecap:round; stroke-linejoin:round; stroke-width:4; stroke-opacity:1; fill:none" points="230.765,919.441 249.662,919.441 "/>
<polyline clip-path="url(#clip230)" style="stroke:#000000; stroke-linecap:round; stroke-linejoin:round; stroke-width:4; stroke-opacity:1; fill:none" points="230.765,645.687 249.662,645.687 "/>
<polyline clip-path="url(#clip230)" style="stroke:#000000; stroke-linecap:round; stroke-linejoin:round; stroke-width:4; stroke-opacity:1; fill:none" points="230.765,371.933 249.662,371.933 "/>
<path clip-path="url(#clip230)" d="M50.9921 1449.67 L73.2142 1449.67 L73.2142 1451.66 L60.668 1484.23 L55.7838 1484.23 L67.5893 1453.6 L50.9921 1453.6 L50.9921 1449.67 Z" fill="#000000" fill-rule="nonzero" fill-opacity="1" /><path clip-path="url(#clip230)" d="M86.3623 1480.29 L102.682 1480.29 L102.682 1484.23 L80.7373 1484.23 L80.7373 1480.29 Q83.3994 1477.54 87.9827 1472.91 Q92.5891 1468.26 93.7697 1466.91 Q96.015 1464.39 96.8947 1462.66 Q97.7974 1460.9 97.7974 1459.21 Q97.7974 1456.45 95.853 1454.72 Q93.9317 1452.98 90.8299 1452.98 Q88.6308 1452.98 86.1771 1453.74 Q83.7466 1454.51 80.9688 1456.06 L80.9688 1451.34 Q83.7929 1450.2 86.2466 1449.62 Q88.7003 1449.04 90.7373 1449.04 Q96.1076 1449.04 99.3021 1451.73 Q102.496 1454.41 102.496 1458.91 Q102.496 1461.03 101.686 1462.96 Q100.899 1464.85 98.7928 1467.45 Q98.2141 1468.12 95.1123 1471.34 Q92.0104 1474.53 86.3623 1480.29 Z" fill="#000000" fill-rule="nonzero" fill-opacity="1" /><path clip-path="url(#clip230)" d="M122.496 1452.75 Q118.885 1452.75 117.057 1456.31 Q115.251 1459.85 115.251 1466.98 Q115.251 1474.09 117.057 1477.66 Q118.885 1481.2 122.496 1481.2 Q126.131 1481.2 127.936 1477.66 Q129.765 1474.09 129.765 1466.98 Q129.765 1459.85 127.936 1456.31 Q126.131 1452.75 122.496 1452.75 M122.496 1449.04 Q128.307 1449.04 131.362 1453.65 Q134.441 1458.23 134.441 1466.98 Q134.441 1475.71 131.362 1480.32 Q128.307 1484.9 122.496 1484.9 Q116.686 1484.9 113.608 1480.32 Q110.552 1475.71 110.552 1466.98 Q110.552 1458.23 113.608 1453.65 Q116.686 1449.04 122.496 1449.04 Z" fill="#000000" fill-rule="nonzero" fill-opacity="1" /><path clip-path="url(#clip230)" d="M152.658 1452.75 Q149.047 1452.75 147.218 1456.31 Q145.413 1459.85 145.413 1466.98 Q145.413 1474.09 147.218 1477.66 Q149.047 1481.2 152.658 1481.2 Q156.292 1481.2 158.098 1477.66 Q159.927 1474.09 159.927 1466.98 Q159.927 1459.85 158.098 1456.31 Q156.292 1452.75 152.658 1452.75 M152.658 1449.04 Q158.468 1449.04 161.524 1453.65 Q164.603 1458.23 164.603 1466.98 Q164.603 1475.71 161.524 1480.32 Q158.468 1484.9 152.658 1484.9 Q146.848 1484.9 143.769 1480.32 Q140.714 1475.71 140.714 1466.98 Q140.714 1458.23 143.769 1453.65 Q146.848 1449.04 152.658 1449.04 Z" fill="#000000" fill-rule="nonzero" fill-opacity="1" /><path clip-path="url(#clip230)" d="M182.82 1452.75 Q179.209 1452.75 177.38 1456.31 Q175.575 1459.85 175.575 1466.98 Q175.575 1474.09 177.38 1477.66 Q179.209 1481.2 182.82 1481.2 Q186.454 1481.2 188.26 1477.66 Q190.089 1474.09 190.089 1466.98 Q190.089 1459.85 188.26 1456.31 Q186.454 1452.75 182.82 1452.75 M182.82 1449.04 Q188.63 1449.04 191.686 1453.65 Q194.765 1458.23 194.765 1466.98 Q194.765 1475.71 191.686 1480.32 Q188.63 1484.9 182.82 1484.9 Q177.01 1484.9 173.931 1480.32 Q170.876 1475.71 170.876 1466.98 Q170.876 1458.23 173.931 1453.65 Q177.01 1449.04 182.82 1449.04 Z" fill="#000000" fill-rule="nonzero" fill-opacity="1" /><path clip-path="url(#clip230)" d="M50.9921 1175.92 L73.2142 1175.92 L73.2142 1177.91 L60.668 1210.48 L55.7838 1210.48 L67.5893 1179.85 L50.9921 1179.85 L50.9921 1175.92 Z" fill="#000000" fill-rule="nonzero" fill-opacity="1" /><path clip-path="url(#clip230)" d="M96.5011 1191.84 Q99.8576 1192.56 101.733 1194.83 Q103.631 1197.1 103.631 1200.43 Q103.631 1205.54 100.112 1208.35 Q96.5937 1211.15 90.1123 1211.15 Q87.9364 1211.15 85.6216 1210.71 Q83.3299 1210.29 80.8762 1209.43 L80.8762 1204.92 Q82.8207 1206.05 85.1355 1206.63 Q87.4503 1207.21 89.9734 1207.21 Q94.3715 1207.21 96.6632 1205.48 Q98.978 1203.74 98.978 1200.43 Q98.978 1197.37 96.8252 1195.66 Q94.6956 1193.92 90.8762 1193.92 L86.8484 1193.92 L86.8484 1190.08 L91.0614 1190.08 Q94.5104 1190.08 96.3391 1188.72 Q98.1678 1187.33 98.1678 1184.73 Q98.1678 1182.07 96.2697 1180.66 Q94.3947 1179.23 90.8762 1179.23 Q88.9549 1179.23 86.7558 1179.64 Q84.5568 1180.06 81.9179 1180.94 L81.9179 1176.77 Q84.5799 1176.03 86.8947 1175.66 Q89.2327 1175.29 91.2928 1175.29 Q96.6169 1175.29 99.7187 1177.72 Q102.821 1180.13 102.821 1184.25 Q102.821 1187.12 101.177 1189.11 Q99.5335 1191.08 96.5011 1191.84 Z" fill="#000000" fill-rule="nonzero" fill-opacity="1" /><path clip-path="url(#clip230)" d="M122.496 1178.99 Q118.885 1178.99 117.057 1182.56 Q115.251 1186.1 115.251 1193.23 Q115.251 1200.34 117.057 1203.9 Q118.885 1207.44 122.496 1207.44 Q126.131 1207.44 127.936 1203.9 Q129.765 1200.34 129.765 1193.23 Q129.765 1186.1 127.936 1182.56 Q126.131 1178.99 122.496 1178.99 M122.496 1175.29 Q128.307 1175.29 131.362 1179.9 Q134.441 1184.48 134.441 1193.23 Q134.441 1201.96 131.362 1206.56 Q128.307 1211.15 122.496 1211.15 Q116.686 1211.15 113.608 1206.56 Q110.552 1201.96 110.552 1193.23 Q110.552 1184.48 113.608 1179.9 Q116.686 1175.29 122.496 1175.29 Z" fill="#000000" fill-rule="nonzero" fill-opacity="1" /><path clip-path="url(#clip230)" d="M152.658 1178.99 Q149.047 1178.99 147.218 1182.56 Q145.413 1186.1 145.413 1193.23 Q145.413 1200.34 147.218 1203.9 Q149.047 1207.44 152.658 1207.44 Q156.292 1207.44 158.098 1203.9 Q159.927 1200.34 159.927 1193.23 Q159.927 1186.1 158.098 1182.56 Q156.292 1178.99 152.658 1178.99 M152.658 1175.29 Q158.468 1175.29 161.524 1179.9 Q164.603 1184.48 164.603 1193.23 Q164.603 1201.96 161.524 1206.56 Q158.468 1211.15 152.658 1211.15 Q146.848 1211.15 143.769 1206.56 Q140.714 1201.96 140.714 1193.23 Q140.714 1184.48 143.769 1179.9 Q146.848 1175.29 152.658 1175.29 Z" fill="#000000" fill-rule="nonzero" fill-opacity="1" /><path clip-path="url(#clip230)" d="M182.82 1178.99 Q179.209 1178.99 177.38 1182.56 Q175.575 1186.1 175.575 1193.23 Q175.575 1200.34 177.38 1203.9 Q179.209 1207.44 182.82 1207.44 Q186.454 1207.44 188.26 1203.9 Q190.089 1200.34 190.089 1193.23 Q190.089 1186.1 188.26 1182.56 Q186.454 1178.99 182.82 1178.99 M182.82 1175.29 Q188.63 1175.29 191.686 1179.9 Q194.765 1184.48 194.765 1193.23 Q194.765 1201.96 191.686 1206.56 Q188.63 1211.15 182.82 1211.15 Q177.01 1211.15 173.931 1206.56 Q170.876 1201.96 170.876 1193.23 Q170.876 1184.48 173.931 1179.9 Q177.01 1175.29 182.82 1175.29 Z" fill="#000000" fill-rule="nonzero" fill-opacity="1" /><path clip-path="url(#clip230)" d="M50.9921 902.161 L73.2142 902.161 L73.2142 904.152 L60.668 936.721 L55.7838 936.721 L67.5893 906.096 L50.9921 906.096 L50.9921 902.161 Z" fill="#000000" fill-rule="nonzero" fill-opacity="1" /><path clip-path="url(#clip230)" d="M95.1817 906.235 L83.3762 924.684 L95.1817 924.684 L95.1817 906.235 M93.9549 902.161 L99.8345 902.161 L99.8345 924.684 L104.765 924.684 L104.765 928.573 L99.8345 928.573 L99.8345 936.721 L95.1817 936.721 L95.1817 928.573 L79.5799 928.573 L79.5799 924.059 L93.9549 902.161 Z" fill="#000000" fill-rule="nonzero" fill-opacity="1" /><path clip-path="url(#clip230)" d="M122.496 905.24 Q118.885 905.24 117.057 908.804 Q115.251 912.346 115.251 919.476 Q115.251 926.582 117.057 930.147 Q118.885 933.689 122.496 933.689 Q126.131 933.689 127.936 930.147 Q129.765 926.582 129.765 919.476 Q129.765 912.346 127.936 908.804 Q126.131 905.24 122.496 905.24 M122.496 901.536 Q128.307 901.536 131.362 906.142 Q134.441 910.726 134.441 919.476 Q134.441 928.203 131.362 932.809 Q128.307 937.392 122.496 937.392 Q116.686 937.392 113.608 932.809 Q110.552 928.203 110.552 919.476 Q110.552 910.726 113.608 906.142 Q116.686 901.536 122.496 901.536 Z" fill="#000000" fill-rule="nonzero" fill-opacity="1" /><path clip-path="url(#clip230)" d="M152.658 905.24 Q149.047 905.24 147.218 908.804 Q145.413 912.346 145.413 919.476 Q145.413 926.582 147.218 930.147 Q149.047 933.689 152.658 933.689 Q156.292 933.689 158.098 930.147 Q159.927 926.582 159.927 919.476 Q159.927 912.346 158.098 908.804 Q156.292 905.24 152.658 905.24 M152.658 901.536 Q158.468 901.536 161.524 906.142 Q164.603 910.726 164.603 919.476 Q164.603 928.203 161.524 932.809 Q158.468 937.392 152.658 937.392 Q146.848 937.392 143.769 932.809 Q140.714 928.203 140.714 919.476 Q140.714 910.726 143.769 906.142 Q146.848 901.536 152.658 901.536 Z" fill="#000000" fill-rule="nonzero" fill-opacity="1" /><path clip-path="url(#clip230)" d="M182.82 905.24 Q179.209 905.24 177.38 908.804 Q175.575 912.346 175.575 919.476 Q175.575 926.582 177.38 930.147 Q179.209 933.689 182.82 933.689 Q186.454 933.689 188.26 930.147 Q190.089 926.582 190.089 919.476 Q190.089 912.346 188.26 908.804 Q186.454 905.24 182.82 905.24 M182.82 901.536 Q188.63 901.536 191.686 906.142 Q194.765 910.726 194.765 919.476 Q194.765 928.203 191.686 932.809 Q188.63 937.392 182.82 937.392 Q177.01 937.392 173.931 932.809 Q170.876 928.203 170.876 919.476 Q170.876 910.726 173.931 906.142 Q177.01 901.536 182.82 901.536 Z" fill="#000000" fill-rule="nonzero" fill-opacity="1" /><path clip-path="url(#clip230)" d="M50.9921 628.407 L73.2142 628.407 L73.2142 630.398 L60.668 662.967 L55.7838 662.967 L67.5893 632.342 L50.9921 632.342 L50.9921 628.407 Z" fill="#000000" fill-rule="nonzero" fill-opacity="1" /><path clip-path="url(#clip230)" d="M82.3808 628.407 L100.737 628.407 L100.737 632.342 L86.6632 632.342 L86.6632 640.814 Q87.6817 640.467 88.7003 640.305 Q89.7188 640.12 90.7373 640.12 Q96.5243 640.12 99.9039 643.291 Q103.284 646.462 103.284 651.879 Q103.284 657.458 99.8113 660.56 Q96.3391 663.638 90.0197 663.638 Q87.8438 663.638 85.5753 663.268 Q83.3299 662.897 80.9225 662.157 L80.9225 657.458 Q83.0058 658.592 85.2281 659.148 Q87.4503 659.703 89.9271 659.703 Q93.9317 659.703 96.2697 657.597 Q98.6076 655.49 98.6076 651.879 Q98.6076 648.268 96.2697 646.161 Q93.9317 644.055 89.9271 644.055 Q88.0521 644.055 86.1771 644.472 Q84.3253 644.888 82.3808 645.768 L82.3808 628.407 Z" fill="#000000" fill-rule="nonzero" fill-opacity="1" /><path clip-path="url(#clip230)" d="M122.496 631.486 Q118.885 631.486 117.057 635.05 Q115.251 638.592 115.251 645.722 Q115.251 652.828 117.057 656.393 Q118.885 659.935 122.496 659.935 Q126.131 659.935 127.936 656.393 Q129.765 652.828 129.765 645.722 Q129.765 638.592 127.936 635.05 Q126.131 631.486 122.496 631.486 M122.496 627.782 Q128.307 627.782 131.362 632.388 Q134.441 636.972 134.441 645.722 Q134.441 654.448 131.362 659.055 Q128.307 663.638 122.496 663.638 Q116.686 663.638 113.608 659.055 Q110.552 654.448 110.552 645.722 Q110.552 636.972 113.608 632.388 Q116.686 627.782 122.496 627.782 Z" fill="#000000" fill-rule="nonzero" fill-opacity="1" /><path clip-path="url(#clip230)" d="M152.658 631.486 Q149.047 631.486 147.218 635.05 Q145.413 638.592 145.413 645.722 Q145.413 652.828 147.218 656.393 Q149.047 659.935 152.658 659.935 Q156.292 659.935 158.098 656.393 Q159.927 652.828 159.927 645.722 Q159.927 638.592 158.098 635.05 Q156.292 631.486 152.658 631.486 M152.658 627.782 Q158.468 627.782 161.524 632.388 Q164.603 636.972 164.603 645.722 Q164.603 654.448 161.524 659.055 Q158.468 663.638 152.658 663.638 Q146.848 663.638 143.769 659.055 Q140.714 654.448 140.714 645.722 Q140.714 636.972 143.769 632.388 Q146.848 627.782 152.658 627.782 Z" fill="#000000" fill-rule="nonzero" fill-opacity="1" /><path clip-path="url(#clip230)" d="M182.82 631.486 Q179.209 631.486 177.38 635.05 Q175.575 638.592 175.575 645.722 Q175.575 652.828 177.38 656.393 Q179.209 659.935 182.82 659.935 Q186.454 659.935 188.26 656.393 Q190.089 652.828 190.089 645.722 Q190.089 638.592 188.26 635.05 Q186.454 631.486 182.82 631.486 M182.82 627.782 Q188.63 627.782 191.686 632.388 Q194.765 636.972 194.765 645.722 Q194.765 654.448 191.686 659.055 Q188.63 663.638 182.82 663.638 Q177.01 663.638 173.931 659.055 Q170.876 654.448 170.876 645.722 Q170.876 636.972 173.931 632.388 Q177.01 627.782 182.82 627.782 Z" fill="#000000" fill-rule="nonzero" fill-opacity="1" /><path clip-path="url(#clip230)" d="M50.9921 354.653 L73.2142 354.653 L73.2142 356.644 L60.668 389.213 L55.7838 389.213 L67.5893 358.588 L50.9921 358.588 L50.9921 354.653 Z" fill="#000000" fill-rule="nonzero" fill-opacity="1" /><path clip-path="url(#clip230)" d="M92.9132 370.069 Q89.7651 370.069 87.9132 372.222 Q86.0845 374.375 86.0845 378.125 Q86.0845 381.852 87.9132 384.028 Q89.7651 386.18 92.9132 386.18 Q96.0613 386.18 97.89 384.028 Q99.7419 381.852 99.7419 378.125 Q99.7419 374.375 97.89 372.222 Q96.0613 370.069 92.9132 370.069 M102.196 355.417 L102.196 359.676 Q100.436 358.843 98.6308 358.403 Q96.8484 357.963 95.0891 357.963 Q90.4595 357.963 88.0058 361.088 Q85.5753 364.213 85.2281 370.532 Q86.5938 368.519 88.654 367.454 Q90.7141 366.366 93.191 366.366 Q98.3993 366.366 101.409 369.537 Q104.441 372.685 104.441 378.125 Q104.441 383.449 101.293 386.667 Q98.1447 389.884 92.9132 389.884 Q86.9179 389.884 83.7466 385.301 Q80.5753 380.694 80.5753 371.968 Q80.5753 363.773 84.4642 358.912 Q88.353 354.028 94.9039 354.028 Q96.6632 354.028 98.4456 354.375 Q100.251 354.722 102.196 355.417 Z" fill="#000000" fill-rule="nonzero" fill-opacity="1" /><path clip-path="url(#clip230)" d="M122.496 357.732 Q118.885 357.732 117.057 361.296 Q115.251 364.838 115.251 371.968 Q115.251 379.074 117.057 382.639 Q118.885 386.18 122.496 386.18 Q126.131 386.18 127.936 382.639 Q129.765 379.074 129.765 371.968 Q129.765 364.838 127.936 361.296 Q126.131 357.732 122.496 357.732 M122.496 354.028 Q128.307 354.028 131.362 358.634 Q134.441 363.218 134.441 371.968 Q134.441 380.694 131.362 385.301 Q128.307 389.884 122.496 389.884 Q116.686 389.884 113.608 385.301 Q110.552 380.694 110.552 371.968 Q110.552 363.218 113.608 358.634 Q116.686 354.028 122.496 354.028 Z" fill="#000000" fill-rule="nonzero" fill-opacity="1" /><path clip-path="url(#clip230)" d="M152.658 357.732 Q149.047 357.732 147.218 361.296 Q145.413 364.838 145.413 371.968 Q145.413 379.074 147.218 382.639 Q149.047 386.18 152.658 386.18 Q156.292 386.18 158.098 382.639 Q159.927 379.074 159.927 371.968 Q159.927 364.838 158.098 361.296 Q156.292 357.732 152.658 357.732 M152.658 354.028 Q158.468 354.028 161.524 358.634 Q164.603 363.218 164.603 371.968 Q164.603 380.694 161.524 385.301 Q158.468 389.884 152.658 389.884 Q146.848 389.884 143.769 385.301 Q140.714 380.694 140.714 371.968 Q140.714 363.218 143.769 358.634 Q146.848 354.028 152.658 354.028 Z" fill="#000000" fill-rule="nonzero" fill-opacity="1" /><path clip-path="url(#clip230)" d="M182.82 357.732 Q179.209 357.732 177.38 361.296 Q175.575 364.838 175.575 371.968 Q175.575 379.074 177.38 382.639 Q179.209 386.18 182.82 386.18 Q186.454 386.18 188.26 382.639 Q190.089 379.074 190.089 371.968 Q190.089 364.838 188.26 361.296 Q186.454 357.732 182.82 357.732 M182.82 354.028 Q188.63 354.028 191.686 358.634 Q194.765 363.218 194.765 371.968 Q194.765 380.694 191.686 385.301 Q188.63 389.884 182.82 389.884 Q177.01 389.884 173.931 385.301 Q170.876 380.694 170.876 371.968 Q170.876 363.218 173.931 358.634 Q177.01 354.028 182.82 354.028 Z" fill="#000000" fill-rule="nonzero" fill-opacity="1" /><path clip-path="url(#clip230)" d="M1262.23 35.2602 Q1262.23 29.4732 1259.83 26.2904 Q1257.46 23.1075 1253.15 23.1075 Q1248.86 23.1075 1246.46 26.2904 Q1244.09 29.4732 1244.09 35.2602 Q1244.09 41.0183 1246.46 44.2012 Q1248.86 47.384 1253.15 47.384 Q1257.46 47.384 1259.83 44.2012 Q1262.23 41.0183 1262.23 35.2602 M1267.56 47.818 Q1267.56 56.0934 1263.88 60.1154 Q1260.21 64.1663 1252.63 64.1663 Q1249.82 64.1663 1247.33 63.7323 Q1244.84 63.3272 1242.5 62.4592 L1242.5 57.2798 Q1244.84 58.5529 1247.13 59.1606 Q1249.41 59.7682 1251.79 59.7682 Q1257.02 59.7682 1259.63 57.0194 Q1262.23 54.2995 1262.23 48.7729 L1262.23 46.1398 Q1260.58 49.0044 1258.01 50.4222 Q1255.43 51.84 1251.84 51.84 Q1245.88 51.84 1242.24 47.2972 Q1238.59 42.7544 1238.59 35.2602 Q1238.59 27.7371 1242.24 23.1943 Q1245.88 18.6515 1251.84 18.6515 Q1255.43 18.6515 1258.01 20.0693 Q1260.58 21.4872 1262.23 24.3517 L1262.23 19.4328 L1267.56 19.4328 L1267.56 47.818 Z" fill="#000000" fill-rule="nonzero" fill-opacity="1" /><path clip-path="url(#clip230)" d="M1299.85 24.3517 L1299.85 6.81709 L1305.17 6.81709 L1305.17 51.84 L1299.85 51.84 L1299.85 46.9789 Q1298.17 49.8724 1295.59 51.2902 Q1293.05 52.6791 1289.46 52.6791 Q1283.59 52.6791 1279.88 47.9916 Q1276.21 43.3042 1276.21 35.6653 Q1276.21 28.0265 1279.88 23.339 Q1283.59 18.6515 1289.46 18.6515 Q1293.05 18.6515 1295.59 20.0693 Q1298.17 21.4582 1299.85 24.3517 M1281.71 35.6653 Q1281.71 41.5391 1284.11 44.8956 Q1286.54 48.2231 1290.76 48.2231 Q1294.99 48.2231 1297.42 44.8956 Q1299.85 41.5391 1299.85 35.6653 Q1299.85 29.7915 1297.42 26.464 Q1294.99 23.1075 1290.76 23.1075 Q1286.54 23.1075 1284.11 26.464 Q1281.71 29.7915 1281.71 35.6653 Z" fill="#000000" fill-rule="nonzero" fill-opacity="1" /><path clip-path="url(#clip230)" d="M1321.29 46.9789 L1321.29 64.1663 L1315.94 64.1663 L1315.94 19.4328 L1321.29 19.4328 L1321.29 24.3517 Q1322.97 21.4582 1325.51 20.0693 Q1328.09 18.6515 1331.65 18.6515 Q1337.55 18.6515 1341.22 23.339 Q1344.93 28.0265 1344.93 35.6653 Q1344.93 43.3042 1341.22 47.9916 Q1337.55 52.6791 1331.65 52.6791 Q1328.09 52.6791 1325.51 51.2902 Q1322.97 49.8724 1321.29 46.9789 M1339.4 35.6653 Q1339.4 29.7915 1336.97 26.464 Q1334.57 23.1075 1330.35 23.1075 Q1326.12 23.1075 1323.69 26.464 Q1321.29 29.7915 1321.29 35.6653 Q1321.29 41.5391 1323.69 44.8956 Q1326.12 48.2231 1330.35 48.2231 Q1334.57 48.2231 1336.97 44.8956 Q1339.4 41.5391 1339.4 35.6653 Z" fill="#000000" fill-rule="nonzero" fill-opacity="1" /><polyline clip-path="url(#clip232)" style="stroke:#009af9; stroke-linecap:round; stroke-linejoin:round; stroke-width:4; stroke-opacity:1; fill:none" points="290.821,1351.42 415.938,1447.38 541.056,1371.28 666.173,1396.32 791.291,1277.11 916.408,1161.81 1041.53,1123.95 1166.64,1150.07 1291.76,1189.53 1416.88,1157.43 1542,851.452 1667.11,586.292 1792.23,651.806 1917.35,632.452 2042.46,451.125 2167.58,145.256 2292.7,195.853 "/>
<path clip-path="url(#clip230)" d="M301.498 255.881 L566.127 255.881 L566.127 152.201 L301.498 152.201  Z" fill="#ffffff" fill-rule="evenodd" fill-opacity="1"/>
<polyline clip-path="url(#clip230)" style="stroke:#000000; stroke-linecap:round; stroke-linejoin:round; stroke-width:4; stroke-opacity:1; fill:none" points="301.498,255.881 566.127,255.881 566.127,152.201 301.498,152.201 301.498,255.881 "/>
<polyline clip-path="url(#clip230)" style="stroke:#009af9; stroke-linecap:round; stroke-linejoin:round; stroke-width:4; stroke-opacity:1; fill:none" points="325.075,204.041 466.541,204.041 "/>
<path clip-path="url(#clip230)" d="M503.962 223.728 Q502.156 228.358 500.443 229.77 Q498.73 231.182 495.86 231.182 L492.457 231.182 L492.457 227.617 L494.957 227.617 Q496.716 227.617 497.688 226.784 Q498.661 225.95 499.841 222.848 L500.605 220.904 L490.119 195.395 L494.633 195.395 L502.735 215.673 L510.836 195.395 L515.35 195.395 L503.962 223.728 Z" fill="#000000" fill-rule="nonzero" fill-opacity="1" /><path clip-path="url(#clip230)" d="M522.642 217.385 L530.281 217.385 L530.281 191.02 L521.971 192.687 L521.971 188.427 L530.235 186.761 L534.91 186.761 L534.91 217.385 L542.549 217.385 L542.549 221.321 L522.642 221.321 L522.642 217.385 Z" fill="#000000" fill-rule="nonzero" fill-opacity="1" /></svg>
