<?xml version="1.0" encoding="utf-8"?>
<svg xmlns="http://www.w3.org/2000/svg" xmlns:xlink="http://www.w3.org/1999/xlink" width="600" height="400" viewBox="0 0 2400 1600">
<defs>
  <clipPath id="clip990">
    <rect x="0" y="0" width="2400" height="1600"/>
  </clipPath>
</defs>
<path clip-path="url(#clip990)" d="M0 1600 L2400 1600 L2400 0 L0 0  Z" fill="#ffffff" fill-rule="evenodd" fill-opacity="1"/>
<defs>
  <clipPath id="clip991">
    <rect x="480" y="0" width="1681" height="1600"/>
  </clipPath>
</defs>
<path clip-path="url(#clip990)" d="M230.765 1486.45 L2352.76 1486.45 L2352.76 106.192 L230.765 106.192  Z" fill="#ffffff" fill-rule="evenodd" fill-opacity="1"/>
<defs>
  <clipPath id="clip992">
    <rect x="230" y="106" width="2123" height="1381"/>
  </clipPath>
</defs>
<polyline clip-path="url(#clip992)" style="stroke:#000000; stroke-linecap:round; stroke-linejoin:round; stroke-width:2; stroke-opacity:0.1; fill:none" points="541.056,1486.45 541.056,106.192 "/>
<polyline clip-path="url(#clip992)" style="stroke:#000000; stroke-linecap:round; stroke-linejoin:round; stroke-width:2; stroke-opacity:0.1; fill:none" points="916.408,1486.45 916.408,106.192 "/>
<polyline clip-path="url(#clip992)" style="stroke:#000000; stroke-linecap:round; stroke-linejoin:round; stroke-width:2; stroke-opacity:0.1; fill:none" points="1291.76,1486.45 1291.76,106.192 "/>
<polyline clip-path="url(#clip992)" style="stroke:#000000; stroke-linecap:round; stroke-linejoin:round; stroke-width:2; stroke-opacity:0.1; fill:none" points="1667.11,1486.45 1667.11,106.192 "/>
<polyline clip-path="url(#clip992)" style="stroke:#000000; stroke-linecap:round; stroke-linejoin:round; stroke-width:2; stroke-opacity:0.1; fill:none" points="2042.46,1486.45 2042.46,106.192 "/>
<polyline clip-path="url(#clip992)" style="stroke:#000000; stroke-linecap:round; stroke-linejoin:round; stroke-width:2; stroke-opacity:0.1; fill:none" points="230.765,1285.42 2352.76,1285.42 "/>
<polyline clip-path="url(#clip992)" style="stroke:#000000; stroke-linecap:round; stroke-linejoin:round; stroke-width:2; stroke-opacity:0.1; fill:none" points="230.765,1005.19 2352.76,1005.19 "/>
<polyline clip-path="url(#clip992)" style="stroke:#000000; stroke-linecap:round; stroke-linejoin:round; stroke-width:2; stroke-opacity:0.1; fill:none" points="230.765,724.973 2352.76,724.973 "/>
<polyline clip-path="url(#clip992)" style="stroke:#000000; stroke-linecap:round; stroke-linejoin:round; stroke-width:2; stroke-opacity:0.1; fill:none" points="230.765,444.752 2352.76,444.752 "/>
<polyline clip-path="url(#clip992)" style="stroke:#000000; stroke-linecap:round; stroke-linejoin:round; stroke-width:2; stroke-opacity:0.1; fill:none" points="230.765,164.531 2352.76,164.531 "/>
<polyline clip-path="url(#clip990)" style="stroke:#000000; stroke-linecap:round; stroke-linejoin:round; stroke-width:4; stroke-opacity:1; fill:none" points="230.765,1486.45 2352.76,1486.45 "/>
<polyline clip-path="url(#clip990)" style="stroke:#000000; stroke-linecap:round; stroke-linejoin:round; stroke-width:4; stroke-opacity:1; fill:none" points="541.056,1486.45 541.056,1467.55 "/>
<polyline clip-path="url(#clip990)" style="stroke:#000000; stroke-linecap:round; stroke-linejoin:round; stroke-width:4; stroke-opacity:1; fill:none" points="916.408,1486.45 916.408,1467.55 "/>
<polyline clip-path="url(#clip990)" style="stroke:#000000; stroke-linecap:round; stroke-linejoin:round; stroke-width:4; stroke-opacity:1; fill:none" points="1291.76,1486.45 1291.76,1467.55 "/>
<polyline clip-path="url(#clip990)" style="stroke:#000000; stroke-linecap:round; stroke-linejoin:round; stroke-width:4; stroke-opacity:1; fill:none" points="1667.11,1486.45 1667.11,1467.55 "/>
<polyline clip-path="url(#clip990)" style="stroke:#000000; stroke-linecap:round; stroke-linejoin:round; stroke-width:4; stroke-opacity:1; fill:none" points="2042.46,1486.45 2042.46,1467.55 "/>
<path clip-path="url(#clip990)" d="M545.303 1530.21 Q548.66 1530.93 550.535 1533.2 Q552.433 1535.47 552.433 1538.8 Q552.433 1543.92 548.914 1546.72 Q545.396 1549.52 538.915 1549.52 Q536.739 1549.52 534.424 1549.08 Q532.132 1548.66 529.678 1547.81 L529.678 1543.29 Q531.623 1544.43 533.938 1545.01 Q536.252 1545.58 538.776 1545.58 Q543.174 1545.58 545.465 1543.85 Q547.78 1542.11 547.78 1538.8 Q547.78 1535.75 545.627 1534.03 Q543.498 1532.3 539.678 1532.3 L535.651 1532.3 L535.651 1528.45 L539.864 1528.45 Q543.313 1528.45 545.141 1527.09 Q546.97 1525.7 546.97 1523.11 Q546.97 1520.45 545.072 1519.03 Q543.197 1517.6 539.678 1517.6 Q537.757 1517.6 535.558 1518.01 Q533.359 1518.43 530.72 1519.31 L530.72 1515.14 Q533.382 1514.4 535.697 1514.03 Q538.035 1513.66 540.095 1513.66 Q545.419 1513.66 548.521 1516.09 Q551.623 1518.5 551.623 1522.62 Q551.623 1525.49 549.979 1527.48 Q548.336 1529.45 545.303 1530.21 Z" fill="#000000" fill-rule="nonzero" fill-opacity="1" /><path clip-path="url(#clip990)" d="M916.813 1529.7 Q913.665 1529.7 911.813 1531.86 Q909.984 1534.01 909.984 1537.76 Q909.984 1541.49 911.813 1543.66 Q913.665 1545.82 916.813 1545.82 Q919.961 1545.82 921.79 1543.66 Q923.642 1541.49 923.642 1537.76 Q923.642 1534.01 921.79 1531.86 Q919.961 1529.7 916.813 1529.7 M926.095 1515.05 L926.095 1519.31 Q924.336 1518.48 922.531 1518.04 Q920.748 1517.6 918.989 1517.6 Q914.359 1517.6 911.906 1520.72 Q909.475 1523.85 909.128 1530.17 Q910.494 1528.15 912.554 1527.09 Q914.614 1526 917.091 1526 Q922.299 1526 925.308 1529.17 Q928.341 1532.32 928.341 1537.76 Q928.341 1543.08 925.193 1546.3 Q922.044 1549.52 916.813 1549.52 Q910.818 1549.52 907.646 1544.94 Q904.475 1540.33 904.475 1531.6 Q904.475 1523.41 908.364 1518.55 Q912.253 1513.66 918.804 1513.66 Q920.563 1513.66 922.345 1514.01 Q924.151 1514.36 926.095 1515.05 Z" fill="#000000" fill-rule="nonzero" fill-opacity="1" /><path clip-path="url(#clip990)" d="M1282.06 1548.13 L1282.06 1543.87 Q1283.82 1544.7 1285.63 1545.14 Q1287.43 1545.58 1289.17 1545.58 Q1293.8 1545.58 1296.23 1542.48 Q1298.68 1539.36 1299.03 1533.01 Q1297.69 1535.01 1295.63 1536.07 Q1293.57 1537.13 1291.07 1537.13 Q1285.88 1537.13 1282.85 1534.01 Q1279.84 1530.86 1279.84 1525.42 Q1279.84 1520.1 1282.99 1516.88 Q1286.14 1513.66 1291.37 1513.66 Q1297.36 1513.66 1300.51 1518.27 Q1303.68 1522.85 1303.68 1531.6 Q1303.68 1539.77 1299.79 1544.66 Q1295.93 1549.52 1289.38 1549.52 Q1287.62 1549.52 1285.81 1549.17 Q1284.01 1548.82 1282.06 1548.13 M1291.37 1533.48 Q1294.51 1533.48 1296.34 1531.32 Q1298.2 1529.17 1298.2 1525.42 Q1298.2 1521.7 1296.34 1519.54 Q1294.51 1517.37 1291.37 1517.37 Q1288.22 1517.37 1286.37 1519.54 Q1284.54 1521.7 1284.54 1525.42 Q1284.54 1529.17 1286.37 1531.32 Q1288.22 1533.48 1291.37 1533.48 Z" fill="#000000" fill-rule="nonzero" fill-opacity="1" /><path clip-path="url(#clip990)" d="M1642.6 1544.91 L1650.24 1544.91 L1650.24 1518.55 L1641.93 1520.21 L1641.93 1515.95 L1650.19 1514.29 L1654.87 1514.29 L1654.87 1544.91 L1662.51 1544.91 L1662.51 1548.85 L1642.6 1548.85 L1642.6 1544.91 Z" fill="#000000" fill-rule="nonzero" fill-opacity="1" /><path clip-path="url(#clip990)" d="M1675.98 1544.91 L1692.3 1544.91 L1692.3 1548.85 L1670.35 1548.85 L1670.35 1544.91 Q1673.02 1542.16 1677.6 1537.53 Q1682.2 1532.88 1683.39 1531.53 Q1685.63 1529.01 1686.51 1527.27 Q1687.41 1525.51 1687.41 1523.82 Q1687.41 1521.07 1685.47 1519.33 Q1683.55 1517.6 1680.45 1517.6 Q1678.25 1517.6 1675.79 1518.36 Q1673.36 1519.13 1670.58 1520.68 L1670.58 1515.95 Q1673.41 1514.82 1675.86 1514.24 Q1678.32 1513.66 1680.35 1513.66 Q1685.72 1513.66 1688.92 1516.35 Q1692.11 1519.03 1692.11 1523.52 Q1692.11 1525.65 1691.3 1527.57 Q1690.52 1529.47 1688.41 1532.07 Q1687.83 1532.74 1684.73 1535.95 Q1681.63 1539.15 1675.98 1544.91 Z" fill="#000000" fill-rule="nonzero" fill-opacity="1" /><path clip-path="url(#clip990)" d="M2017.65 1544.91 L2025.29 1544.91 L2025.29 1518.55 L2016.98 1520.21 L2016.98 1515.95 L2025.24 1514.29 L2029.92 1514.29 L2029.92 1544.91 L2037.56 1544.91 L2037.56 1548.85 L2017.65 1548.85 L2017.65 1544.91 Z" fill="#000000" fill-rule="nonzero" fill-opacity="1" /><path clip-path="url(#clip990)" d="M2047.05 1514.29 L2065.4 1514.29 L2065.4 1518.22 L2051.33 1518.22 L2051.33 1526.7 Q2052.35 1526.35 2053.37 1526.19 Q2054.39 1526 2055.4 1526 Q2061.19 1526 2064.57 1529.17 Q2067.95 1532.34 2067.95 1537.76 Q2067.95 1543.34 2064.48 1546.44 Q2061.01 1549.52 2054.69 1549.52 Q2052.51 1549.52 2050.24 1549.15 Q2048 1548.78 2045.59 1548.04 L2045.59 1543.34 Q2047.67 1544.47 2049.9 1545.03 Q2052.12 1545.58 2054.59 1545.58 Q2058.6 1545.58 2060.94 1543.48 Q2063.27 1541.37 2063.27 1537.76 Q2063.27 1534.15 2060.94 1532.04 Q2058.6 1529.94 2054.59 1529.94 Q2052.72 1529.94 2050.84 1530.35 Q2048.99 1530.77 2047.05 1531.65 L2047.05 1514.29 Z" fill="#000000" fill-rule="nonzero" fill-opacity="1" /><polyline clip-path="url(#clip990)" style="stroke:#000000; stroke-linecap:round; stroke-linejoin:round; stroke-width:4; stroke-opacity:1; fill:none" points="230.765,1486.45 230.765,106.192 "/>
<polyline clip-path="url(#clip990)" style="stroke:#000000; stroke-linecap:round; stroke-linejoin:round; stroke-width:4; stroke-opacity:1; fill:none" points="230.765,1285.42 249.662,1285.42 "/>
<polyline clip-path="url(#clip990)" style="stroke:#000000; stroke-linecap:round; stroke-linejoin:round; stroke-width:4; stroke-opacity:1; fill:none" points="230.765,1005.19 249.662,1005.19 "/>
<polyline clip-path="url(#clip990)" style="stroke:#000000; stroke-linecap:round; stroke-linejoin:round; stroke-width:4; stroke-opacity:1; fill:none" points="230.765,724.973 249.662,724.973 "/>
<polyline clip-path="url(#clip990)" style="stroke:#000000; stroke-linecap:round; stroke-linejoin:round; stroke-width:4; stroke-opacity:1; fill:none" points="230.765,444.752 249.662,444.752 "/>
<polyline clip-path="url(#clip990)" style="stroke:#000000; stroke-linecap:round; stroke-linejoin:round; stroke-width:4; stroke-opacity:1; fill:none" points="230.765,164.531 249.662,164.531 "/>
<path clip-path="url(#clip990)" d="M50.9921 1268.14 L73.2142 1268.14 L73.2142 1270.13 L60.668 1302.7 L55.7838 1302.7 L67.5893 1272.07 L50.9921 1272.07 L50.9921 1268.14 Z" fill="#000000" fill-rule="nonzero" fill-opacity="1" /><path clip-path="url(#clip990)" d="M96.5011 1284.06 Q99.8576 1284.78 101.733 1287.05 Q103.631 1289.32 103.631 1292.65 Q103.631 1297.77 100.112 1300.57 Q96.5937 1303.37 90.1123 1303.37 Q87.9364 1303.37 85.6216 1302.93 Q83.3299 1302.51 80.8762 1301.65 L80.8762 1297.14 Q82.8207 1298.27 85.1355 1298.85 Q87.4503 1299.43 89.9734 1299.43 Q94.3715 1299.43 96.6632 1297.7 Q98.978 1295.96 98.978 1292.65 Q98.978 1289.59 96.8252 1287.88 Q94.6956 1286.15 90.8762 1286.15 L86.8484 1286.15 L86.8484 1282.3 L91.0614 1282.3 Q94.5104 1282.3 96.3391 1280.94 Q98.1678 1279.55 98.1678 1276.96 Q98.1678 1274.29 96.2697 1272.88 Q94.3947 1271.45 90.8762 1271.45 Q88.9549 1271.45 86.7558 1271.86 Q84.5568 1272.28 81.9179 1273.16 L81.9179 1268.99 Q84.5799 1268.25 86.8947 1267.88 Q89.2327 1267.51 91.2928 1267.51 Q96.6169 1267.51 99.7187 1269.94 Q102.821 1272.35 102.821 1276.47 Q102.821 1279.34 101.177 1281.33 Q99.5335 1283.3 96.5011 1284.06 Z" fill="#000000" fill-rule="nonzero" fill-opacity="1" /><path clip-path="url(#clip990)" d="M122.496 1271.21 Q118.885 1271.21 117.057 1274.78 Q115.251 1278.32 115.251 1285.45 Q115.251 1292.56 117.057 1296.12 Q118.885 1299.66 122.496 1299.66 Q126.131 1299.66 127.936 1296.12 Q129.765 1292.56 129.765 1285.45 Q129.765 1278.32 127.936 1274.78 Q126.131 1271.21 122.496 1271.21 M122.496 1267.51 Q128.307 1267.51 131.362 1272.12 Q134.441 1276.7 134.441 1285.45 Q134.441 1294.18 131.362 1298.78 Q128.307 1303.37 122.496 1303.37 Q116.686 1303.37 113.608 1298.78 Q110.552 1294.18 110.552 1285.45 Q110.552 1276.7 113.608 1272.12 Q116.686 1267.51 122.496 1267.51 Z" fill="#000000" fill-rule="nonzero" fill-opacity="1" /><path clip-path="url(#clip990)" d="M152.658 1271.21 Q149.047 1271.21 147.218 1274.78 Q145.413 1278.32 145.413 1285.45 Q145.413 1292.56 147.218 1296.12 Q149.047 1299.66 152.658 1299.66 Q156.292 1299.66 158.098 1296.12 Q159.927 1292.56 159.927 1285.45 Q159.927 1278.32 158.098 1274.78 Q156.292 1271.21 152.658 1271.21 M152.658 1267.51 Q158.468 1267.51 161.524 1272.12 Q164.603 1276.7 164.603 1285.45 Q164.603 1294.18 161.524 1298.78 Q158.468 1303.37 152.658 1303.37 Q146.848 1303.37 143.769 1298.78 Q140.714 1294.18 140.714 1285.45 Q140.714 1276.7 143.769 1272.12 Q146.848 1267.51 152.658 1267.51 Z" fill="#000000" fill-rule="nonzero" fill-opacity="1" /><path clip-path="url(#clip990)" d="M182.82 1271.21 Q179.209 1271.21 177.38 1274.78 Q175.575 1278.32 175.575 1285.45 Q175.575 1292.56 177.38 1296.12 Q179.209 1299.66 182.82 1299.66 Q186.454 1299.66 188.26 1296.12 Q190.089 1292.56 190.089 1285.45 Q190.089 1278.32 188.26 1274.78 Q186.454 1271.21 182.82 1271.21 M182.82 1267.51 Q188.63 1267.51 191.686 1272.12 Q194.765 1276.7 194.765 1285.45 Q194.765 1294.18 191.686 1298.78 Q188.63 1303.37 182.82 1303.37 Q177.01 1303.37 173.931 1298.78 Q170.876 1294.18 170.876 1285.45 Q170.876 1276.7 173.931 1272.12 Q177.01 1267.51 182.82 1267.51 Z" fill="#000000" fill-rule="nonzero" fill-opacity="1" /><path clip-path="url(#clip990)" d="M50.9921 987.915 L73.2142 987.915 L73.2142 989.905 L60.668 1022.47 L55.7838 1022.47 L67.5893 991.85 L50.9921 991.85 L50.9921 987.915 Z" fill="#000000" fill-rule="nonzero" fill-opacity="1" /><path clip-path="url(#clip990)" d="M95.1817 991.989 L83.3762 1010.44 L95.1817 1010.44 L95.1817 991.989 M93.9549 987.915 L99.8345 987.915 L99.8345 1010.44 L104.765 1010.44 L104.765 1014.33 L99.8345 1014.33 L99.8345 1022.47 L95.1817 1022.47 L95.1817 1014.33 L79.5799 1014.33 L79.5799 1009.81 L93.9549 987.915 Z" fill="#000000" fill-rule="nonzero" fill-opacity="1" /><path clip-path="url(#clip990)" d="M122.496 990.993 Q118.885 990.993 117.057 994.558 Q115.251 998.1 115.251 1005.23 Q115.251 1012.34 117.057 1015.9 Q118.885 1019.44 122.496 1019.44 Q126.131 1019.44 127.936 1015.9 Q129.765 1012.34 129.765 1005.23 Q129.765 998.1 127.936 994.558 Q126.131 990.993 122.496 990.993 M122.496 987.29 Q128.307 987.29 131.362 991.896 Q134.441 996.479 134.441 1005.23 Q134.441 1013.96 131.362 1018.56 Q128.307 1023.15 122.496 1023.15 Q116.686 1023.15 113.608 1018.56 Q110.552 1013.96 110.552 1005.23 Q110.552 996.479 113.608 991.896 Q116.686 987.29 122.496 987.29 Z" fill="#000000" fill-rule="nonzero" fill-opacity="1" /><path clip-path="url(#clip990)" d="M152.658 990.993 Q149.047 990.993 147.218 994.558 Q145.413 998.1 145.413 1005.23 Q145.413 1012.34 147.218 1015.9 Q149.047 1019.44 152.658 1019.44 Q156.292 1019.44 158.098 1015.9 Q159.927 1012.34 159.927 1005.23 Q159.927 998.1 158.098 994.558 Q156.292 990.993 152.658 990.993 M152.658 987.29 Q158.468 987.29 161.524 991.896 Q164.603 996.479 164.603 1005.23 Q164.603 1013.96 161.524 1018.56 Q158.468 1023.15 152.658 1023.15 Q146.848 1023.15 143.769 1018.56 Q140.714 1013.96 140.714 1005.23 Q140.714 996.479 143.769 991.896 Q146.848 987.29 152.658 987.29 Z" fill="#000000" fill-rule="nonzero" fill-opacity="1" /><path clip-path="url(#clip990)" d="M182.82 990.993 Q179.209 990.993 177.38 994.558 Q175.575 998.1 175.575 1005.23 Q175.575 1012.34 177.38 1015.9 Q179.209 1019.44 182.82 1019.44 Q186.454 1019.44 188.26 1015.9 Q190.089 1012.34 190.089 1005.23 Q190.089 998.1 188.26 994.558 Q186.454 990.993 182.82 990.993 M182.82 987.29 Q188.63 987.29 191.686 991.896 Q194.765 996.479 194.765 1005.23 Q194.765 1013.96 191.686 1018.56 Q188.63 1023.15 182.82 1023.15 Q177.01 1023.15 173.931 1018.56 Q170.876 1013.96 170.876 1005.23 Q170.876 996.479 173.931 991.896 Q177.01 987.29 182.82 987.29 Z" fill="#000000" fill-rule="nonzero" fill-opacity="1" /><path clip-path="url(#clip990)" d="M50.9921 707.693 L73.2142 707.693 L73.2142 709.684 L60.668 742.253 L55.7838 742.253 L67.5893 711.628 L50.9921 711.628 L50.9921 707.693 Z" fill="#000000" fill-rule="nonzero" fill-opacity="1" /><path clip-path="url(#clip990)" d="M82.3808 707.693 L100.737 707.693 L100.737 711.628 L86.6632 711.628 L86.6632 720.101 Q87.6817 719.753 88.7003 719.591 Q89.7188 719.406 90.7373 719.406 Q96.5243 719.406 99.9039 722.577 Q103.284 725.749 103.284 731.165 Q103.284 736.744 99.8113 739.846 Q96.3391 742.925 90.0197 742.925 Q87.8438 742.925 85.5753 742.554 Q83.3299 742.184 80.9225 741.443 L80.9225 736.744 Q83.0058 737.878 85.2281 738.434 Q87.4503 738.989 89.9271 738.989 Q93.9317 738.989 96.2697 736.883 Q98.6076 734.776 98.6076 731.165 Q98.6076 727.554 96.2697 725.448 Q93.9317 723.341 89.9271 723.341 Q88.0521 723.341 86.1771 723.758 Q84.3253 724.175 82.3808 725.054 L82.3808 707.693 Z" fill="#000000" fill-rule="nonzero" fill-opacity="1" /><path clip-path="url(#clip990)" d="M122.496 710.772 Q118.885 710.772 117.057 714.337 Q115.251 717.878 115.251 725.008 Q115.251 732.114 117.057 735.679 Q118.885 739.221 122.496 739.221 Q126.131 739.221 127.936 735.679 Q129.765 732.114 129.765 725.008 Q129.765 717.878 127.936 714.337 Q126.131 710.772 122.496 710.772 M122.496 707.068 Q128.307 707.068 131.362 711.675 Q134.441 716.258 134.441 725.008 Q134.441 733.735 131.362 738.341 Q128.307 742.925 122.496 742.925 Q116.686 742.925 113.608 738.341 Q110.552 733.735 110.552 725.008 Q110.552 716.258 113.608 711.675 Q116.686 707.068 122.496 707.068 Z" fill="#000000" fill-rule="nonzero" fill-opacity="1" /><path clip-path="url(#clip990)" d="M152.658 710.772 Q149.047 710.772 147.218 714.337 Q145.413 717.878 145.413 725.008 Q145.413 732.114 147.218 735.679 Q149.047 739.221 152.658 739.221 Q156.292 739.221 158.098 735.679 Q159.927 732.114 159.927 725.008 Q159.927 717.878 158.098 714.337 Q156.292 710.772 152.658 710.772 M152.658 707.068 Q158.468 707.068 161.524 711.675 Q164.603 716.258 164.603 725.008 Q164.603 733.735 161.524 738.341 Q158.468 742.925 152.658 742.925 Q146.848 742.925 143.769 738.341 Q140.714 733.735 140.714 725.008 Q140.714 716.258 143.769 711.675 Q146.848 707.068 152.658 707.068 Z" fill="#000000" fill-rule="nonzero" fill-opacity="1" /><path clip-path="url(#clip990)" d="M182.82 710.772 Q179.209 710.772 177.38 714.337 Q175.575 717.878 175.575 725.008 Q175.575 732.114 177.38 735.679 Q179.209 739.221 182.82 739.221 Q186.454 739.221 188.26 735.679 Q190.089 732.114 190.089 725.008 Q190.089 717.878 188.26 714.337 Q186.454 710.772 182.82 710.772 M182.82 707.068 Q188.63 707.068 191.686 711.675 Q194.765 716.258 194.765 725.008 Q194.765 733.735 191.686 738.341 Q188.63 742.925 182.82 742.925 Q177.01 742.925 173.931 738.341 Q170.876 733.735 170.876 725.008 Q170.876 716.258 173.931 711.675 Q177.01 707.068 182.82 707.068 Z" fill="#000000" fill-rule="nonzero" fill-opacity="1" /><path clip-path="url(#clip990)" d="M50.9921 427.472 L73.2142 427.472 L73.2142 429.463 L60.668 462.032 L55.7838 462.032 L67.5893 431.407 L50.9921 431.407 L50.9921 427.472 Z" fill="#000000" fill-rule="nonzero" fill-opacity="1" /><path clip-path="url(#clip990)" d="M92.9132 442.888 Q89.7651 442.888 87.9132 445.041 Q86.0845 447.194 86.0845 450.944 Q86.0845 454.671 87.9132 456.847 Q89.7651 459 92.9132 459 Q96.0613 459 97.89 456.847 Q99.7419 454.671 99.7419 450.944 Q99.7419 447.194 97.89 445.041 Q96.0613 442.888 92.9132 442.888 M102.196 428.236 L102.196 432.495 Q100.436 431.662 98.6308 431.222 Q96.8484 430.782 95.0891 430.782 Q90.4595 430.782 88.0058 433.907 Q85.5753 437.032 85.2281 443.351 Q86.5938 441.338 88.654 440.273 Q90.7141 439.185 93.191 439.185 Q98.3993 439.185 101.409 442.356 Q104.441 445.504 104.441 450.944 Q104.441 456.268 101.293 459.486 Q98.1447 462.703 92.9132 462.703 Q86.9179 462.703 83.7466 458.12 Q80.5753 453.513 80.5753 444.787 Q80.5753 436.592 84.4642 431.731 Q88.353 426.847 94.9039 426.847 Q96.6632 426.847 98.4456 427.194 Q100.251 427.541 102.196 428.236 Z" fill="#000000" fill-rule="nonzero" fill-opacity="1" /><path clip-path="url(#clip990)" d="M122.496 430.551 Q118.885 430.551 117.057 434.115 Q115.251 437.657 115.251 444.787 Q115.251 451.893 117.057 455.458 Q118.885 459 122.496 459 Q126.131 459 127.936 455.458 Q129.765 451.893 129.765 444.787 Q129.765 437.657 127.936 434.115 Q126.131 430.551 122.496 430.551 M122.496 426.847 Q128.307 426.847 131.362 431.453 Q134.441 436.037 134.441 444.787 Q134.441 453.513 131.362 458.12 Q128.307 462.703 122.496 462.703 Q116.686 462.703 113.608 458.12 Q110.552 453.513 110.552 444.787 Q110.552 436.037 113.608 431.453 Q116.686 426.847 122.496 426.847 Z" fill="#000000" fill-rule="nonzero" fill-opacity="1" /><path clip-path="url(#clip990)" d="M152.658 430.551 Q149.047 430.551 147.218 434.115 Q145.413 437.657 145.413 444.787 Q145.413 451.893 147.218 455.458 Q149.047 459 152.658 459 Q156.292 459 158.098 455.458 Q159.927 451.893 159.927 444.787 Q159.927 437.657 158.098 434.115 Q156.292 430.551 152.658 430.551 M152.658 426.847 Q158.468 426.847 161.524 431.453 Q164.603 436.037 164.603 444.787 Q164.603 453.513 161.524 458.12 Q158.468 462.703 152.658 462.703 Q146.848 462.703 143.769 458.12 Q140.714 453.513 140.714 444.787 Q140.714 436.037 143.769 431.453 Q146.848 426.847 152.658 426.847 Z" fill="#000000" fill-rule="nonzero" fill-opacity="1" /><path clip-path="url(#clip990)" d="M182.82 430.551 Q179.209 430.551 177.38 434.115 Q175.575 437.657 175.575 444.787 Q175.575 451.893 177.38 455.458 Q179.209 459 182.82 459 Q186.454 459 188.26 455.458 Q190.089 451.893 190.089 444.787 Q190.089 437.657 188.26 434.115 Q186.454 430.551 182.82 430.551 M182.82 426.847 Q188.63 426.847 191.686 431.453 Q194.765 436.037 194.765 444.787 Q194.765 453.513 191.686 458.12 Q188.63 462.703 182.82 462.703 Q177.01 462.703 173.931 458.12 Q170.876 453.513 170.876 444.787 Q170.876 436.037 173.931 431.453 Q177.01 426.847 182.82 426.847 Z" fill="#000000" fill-rule="nonzero" fill-opacity="1" /><path clip-path="url(#clip990)" d="M50.9921 147.251 L73.2142 147.251 L73.2142 149.241 L60.668 181.811 L55.7838 181.811 L67.5893 151.186 L50.9921 151.186 L50.9921 147.251 Z" fill="#000000" fill-rule="nonzero" fill-opacity="1" /><path clip-path="url(#clip990)" d="M81.154 147.251 L103.376 147.251 L103.376 149.241 L90.8299 181.811 L85.9456 181.811 L97.7511 151.186 L81.154 151.186 L81.154 147.251 Z" fill="#000000" fill-rule="nonzero" fill-opacity="1" /><path clip-path="url(#clip990)" d="M122.496 150.329 Q118.885 150.329 117.057 153.894 Q115.251 157.436 115.251 164.565 Q115.251 171.672 117.057 175.236 Q118.885 178.778 122.496 178.778 Q126.131 178.778 127.936 175.236 Q129.765 171.672 129.765 164.565 Q129.765 157.436 127.936 153.894 Q126.131 150.329 122.496 150.329 M122.496 146.626 Q128.307 146.626 131.362 151.232 Q134.441 155.815 134.441 164.565 Q134.441 173.292 131.362 177.898 Q128.307 182.482 122.496 182.482 Q116.686 182.482 113.608 177.898 Q110.552 173.292 110.552 164.565 Q110.552 155.815 113.608 151.232 Q116.686 146.626 122.496 146.626 Z" fill="#000000" fill-rule="nonzero" fill-opacity="1" /><path clip-path="url(#clip990)" d="M152.658 150.329 Q149.047 150.329 147.218 153.894 Q145.413 157.436 145.413 164.565 Q145.413 171.672 147.218 175.236 Q149.047 178.778 152.658 178.778 Q156.292 178.778 158.098 175.236 Q159.927 171.672 159.927 164.565 Q159.927 157.436 158.098 153.894 Q156.292 150.329 152.658 150.329 M152.658 146.626 Q158.468 146.626 161.524 151.232 Q164.603 155.815 164.603 164.565 Q164.603 173.292 161.524 177.898 Q158.468 182.482 152.658 182.482 Q146.848 182.482 143.769 177.898 Q140.714 173.292 140.714 164.565 Q140.714 155.815 143.769 151.232 Q146.848 146.626 152.658 146.626 Z" fill="#000000" fill-rule="nonzero" fill-opacity="1" /><path clip-path="url(#clip990)" d="M182.82 150.329 Q179.209 150.329 177.38 153.894 Q175.575 157.436 175.575 164.565 Q175.575 171.672 177.38 175.236 Q179.209 178.778 182.82 178.778 Q186.454 178.778 188.26 175.236 Q190.089 171.672 190.089 164.565 Q190.089 157.436 188.26 153.894 Q186.454 150.329 182.82 150.329 M182.82 146.626 Q188.63 146.626 191.686 151.232 Q194.765 155.815 194.765 164.565 Q194.765 173.292 191.686 177.898 Q188.63 182.482 182.82 182.482 Q177.01 182.482 173.931 177.898 Q170.876 173.292 170.876 164.565 Q170.876 155.815 173.931 151.232 Q177.01 146.626 182.82 146.626 Z" fill="#000000" fill-rule="nonzero" fill-opacity="1" /><path clip-path="url(#clip990)" d="M1262.23 35.2602 Q1262.23 29.4732 1259.83 26.2904 Q1257.46 23.1075 1253.15 23.1075 Q1248.86 23.1075 1246.46 26.2904 Q1244.09 29.4732 1244.09 35.2602 Q1244.09 41.0183 1246.46 44.2012 Q1248.86 47.384 1253.15 47.384 Q1257.46 47.384 1259.83 44.2012 Q1262.23 41.0183 1262.23 35.2602 M1267.56 47.818 Q1267.56 56.0934 1263.88 60.1154 Q1260.21 64.1663 1252.63 64.1663 Q1249.82 64.1663 1247.33 63.7323 Q1244.84 63.3272 1242.5 62.4592 L1242.5 57.2798 Q1244.84 58.5529 1247.13 59.1606 Q1249.41 59.7682 1251.79 59.7682 Q1257.02 59.7682 1259.63 57.0194 Q1262.23 54.2995 1262.23 48.7729 L1262.23 46.1398 Q1260.58 49.0044 1258.01 50.4222 Q1255.43 51.84 1251.84 51.84 Q1245.88 51.84 1242.24 47.2972 Q1238.59 42.7544 1238.59 35.2602 Q1238.59 27.7371 1242.24 23.1943 Q1245.88 18.6515 1251.84 18.6515 Q1255.43 18.6515 1258.01 20.0693 Q1260.58 21.4872 1262.23 24.3517 L1262.23 19.4328 L1267.56 19.4328 L1267.56 47.818 Z" fill="#000000" fill-rule="nonzero" fill-opacity="1" /><path clip-path="url(#clip990)" d="M1299.85 24.3517 L1299.85 6.81709 L1305.17 6.81709 L1305.17 51.84 L1299.85 51.84 L1299.85 46.9789 Q1298.17 49.8724 1295.59 51.2902 Q1293.05 52.6791 1289.46 52.6791 Q1283.59 52.6791 1279.88 47.9916 Q1276.21 43.3042 1276.21 35.6653 Q1276.21 28.0265 1279.88 23.339 Q1283.59 18.6515 1289.46 18.6515 Q1293.05 18.6515 1295.59 20.0693 Q1298.17 21.4582 1299.85 24.3517 M1281.71 35.6653 Q1281.71 41.5391 1284.11 44.8956 Q1286.54 48.2231 1290.76 48.2231 Q1294.99 48.2231 1297.42 44.8956 Q1299.85 41.5391 1299.85 35.6653 Q1299.85 29.7915 1297.42 26.464 Q1294.99 23.1075 1290.76 23.1075 Q1286.54 23.1075 1284.11 26.464 Q1281.71 29.7915 1281.71 35.6653 Z" fill="#000000" fill-rule="nonzero" fill-opacity="1" /><path clip-path="url(#clip990)" d="M1321.29 46.9789 L1321.29 64.1663 L1315.94 64.1663 L1315.94 19.4328 L1321.29 19.4328 L1321.29 24.3517 Q1322.97 21.4582 1325.51 20.0693 Q1328.09 18.6515 1331.65 18.6515 Q1337.55 18.6515 1341.22 23.339 Q1344.93 28.0265 1344.93 35.6653 Q1344.93 43.3042 1341.22 47.9916 Q1337.55 52.6791 1331.65 52.6791 Q1328.09 52.6791 1325.51 51.2902 Q1322.97 49.8724 1321.29 46.9789 M1339.4 35.6653 Q1339.4 29.7915 1336.97 26.464 Q1334.57 23.1075 1330.35 23.1075 Q1326.12 23.1075 1323.69 26.464 Q1321.29 29.7915 1321.29 35.6653 Q1321.29 41.5391 1323.69 44.8956 Q1326.12 48.2231 1330.35 48.2231 Q1334.57 48.2231 1336.97 44.8956 Q1339.4 41.5391 1339.4 35.6653 Z" fill="#000000" fill-rule="nonzero" fill-opacity="1" /><polyline clip-path="url(#clip992)" style="stroke:#009af9; stroke-linecap:round; stroke-linejoin:round; stroke-width:4; stroke-opacity:1; fill:none" points="290.821,1447.38 415.938,1298.94 541.056,1093.14 666.173,998.965 791.291,870.482 916.408,893.143 1041.53,837.876 1166.64,851.203 1291.76,779.498 1416.88,647.864 1542,487.656 1667.11,157.949 1792.23,269.009 1917.35,145.256 2042.46,225.185 2167.58,305.108 2292.7,218.342 "/>
<path clip-path="url(#clip990)" d="M301.498 255.881 L566.127 255.881 L566.127 152.201 L301.498 152.201  Z" fill="#ffffff" fill-rule="evenodd" fill-opacity="1"/>
<polyline clip-path="url(#clip990)" style="stroke:#000000; stroke-linecap:round; stroke-linejoin:round; stroke-width:4; stroke-opacity:1; fill:none" points="301.498,255.881 566.127,255.881 566.127,152.201 301.498,152.201 301.498,255.881 "/>
<polyline clip-path="url(#clip990)" style="stroke:#009af9; stroke-linecap:round; stroke-linejoin:round; stroke-width:4; stroke-opacity:1; fill:none" points="325.075,204.041 466.541,204.041 "/>
<path clip-path="url(#clip990)" d="M503.962 223.728 Q502.156 228.358 500.443 229.77 Q498.73 231.182 495.86 231.182 L492.457 231.182 L492.457 227.617 L494.957 227.617 Q496.716 227.617 497.688 226.784 Q498.661 225.95 499.841 222.848 L500.605 220.904 L490.119 195.395 L494.633 195.395 L502.735 215.673 L510.836 195.395 L515.35 195.395 L503.962 223.728 Z" fill="#000000" fill-rule="nonzero" fill-opacity="1" /><path clip-path="url(#clip990)" d="M522.642 217.385 L530.281 217.385 L530.281 191.02 L521.971 192.687 L521.971 188.427 L530.235 186.761 L534.91 186.761 L534.91 217.385 L542.549 217.385 L542.549 221.321 L522.642 221.321 L522.642 217.385 Z" fill="#000000" fill-rule="nonzero" fill-opacity="1" /></svg>
