<?xml version="1.0" encoding="utf-8"?>
<svg xmlns="http://www.w3.org/2000/svg" xmlns:xlink="http://www.w3.org/1999/xlink" width="600" height="400" viewBox="0 0 2400 1600">
<defs>
  <clipPath id="clip140">
    <rect x="0" y="0" width="2400" height="1600"/>
  </clipPath>
</defs>
<path clip-path="url(#clip140)" d="M0 1600 L2400 1600 L2400 0 L0 0  Z" fill="#ffffff" fill-rule="evenodd" fill-opacity="1"/>
<defs>
  <clipPath id="clip141">
    <rect x="480" y="0" width="1681" height="1600"/>
  </clipPath>
</defs>
<path clip-path="url(#clip140)" d="M230.765 1486.45 L2352.76 1486.45 L2352.76 106.192 L230.765 106.192  Z" fill="#ffffff" fill-rule="evenodd" fill-opacity="1"/>
<defs>
  <clipPath id="clip142">
    <rect x="230" y="106" width="2123" height="1381"/>
  </clipPath>
</defs>
<polyline clip-path="url(#clip142)" style="stroke:#000000; stroke-linecap:round; stroke-linejoin:round; stroke-width:2; stroke-opacity:0.1; fill:none" points="541.056,1486.45 541.056,106.192 "/>
<polyline clip-path="url(#clip142)" style="stroke:#000000; stroke-linecap:round; stroke-linejoin:round; stroke-width:2; stroke-opacity:0.1; fill:none" points="916.408,1486.45 916.408,106.192 "/>
<polyline clip-path="url(#clip142)" style="stroke:#000000; stroke-linecap:round; stroke-linejoin:round; stroke-width:2; stroke-opacity:0.1; fill:none" points="1291.76,1486.45 1291.76,106.192 "/>
<polyline clip-path="url(#clip142)" style="stroke:#000000; stroke-linecap:round; stroke-linejoin:round; stroke-width:2; stroke-opacity:0.1; fill:none" points="1667.11,1486.45 1667.11,106.192 "/>
<polyline clip-path="url(#clip142)" style="stroke:#000000; stroke-linecap:round; stroke-linejoin:round; stroke-width:2; stroke-opacity:0.1; fill:none" points="2042.46,1486.45 2042.46,106.192 "/>
<polyline clip-path="url(#clip142)" style="stroke:#000000; stroke-linecap:round; stroke-linejoin:round; stroke-width:2; stroke-opacity:0.1; fill:none" points="230.765,1328.82 2352.76,1328.82 "/>
<polyline clip-path="url(#clip142)" style="stroke:#000000; stroke-linecap:round; stroke-linejoin:round; stroke-width:2; stroke-opacity:0.1; fill:none" points="230.765,1139.19 2352.76,1139.19 "/>
<polyline clip-path="url(#clip142)" style="stroke:#000000; stroke-linecap:round; stroke-linejoin:round; stroke-width:2; stroke-opacity:0.1; fill:none" points="230.765,949.549 2352.76,949.549 "/>
<polyline clip-path="url(#clip142)" style="stroke:#000000; stroke-linecap:round; stroke-linejoin:round; stroke-width:2; stroke-opacity:0.1; fill:none" points="230.765,759.912 2352.76,759.912 "/>
<polyline clip-path="url(#clip142)" style="stroke:#000000; stroke-linecap:round; stroke-linejoin:round; stroke-width:2; stroke-opacity:0.1; fill:none" points="230.765,570.275 2352.76,570.275 "/>
<polyline clip-path="url(#clip142)" style="stroke:#000000; stroke-linecap:round; stroke-linejoin:round; stroke-width:2; stroke-opacity:0.1; fill:none" points="230.765,380.638 2352.76,380.638 "/>
<polyline clip-path="url(#clip142)" style="stroke:#000000; stroke-linecap:round; stroke-linejoin:round; stroke-width:2; stroke-opacity:0.1; fill:none" points="230.765,191.001 2352.76,191.001 "/>
<polyline clip-path="url(#clip140)" style="stroke:#000000; stroke-linecap:round; stroke-linejoin:round; stroke-width:4; stroke-opacity:1; fill:none" points="230.765,1486.45 2352.76,1486.45 "/>
<polyline clip-path="url(#clip140)" style="stroke:#000000; stroke-linecap:round; stroke-linejoin:round; stroke-width:4; stroke-opacity:1; fill:none" points="541.056,1486.45 541.056,1467.55 "/>
<polyline clip-path="url(#clip140)" style="stroke:#000000; stroke-linecap:round; stroke-linejoin:round; stroke-width:4; stroke-opacity:1; fill:none" points="916.408,1486.45 916.408,1467.55 "/>
<polyline clip-path="url(#clip140)" style="stroke:#000000; stroke-linecap:round; stroke-linejoin:round; stroke-width:4; stroke-opacity:1; fill:none" points="1291.76,1486.45 1291.76,1467.55 "/>
<polyline clip-path="url(#clip140)" style="stroke:#000000; stroke-linecap:round; stroke-linejoin:round; stroke-width:4; stroke-opacity:1; fill:none" points="1667.11,1486.45 1667.11,1467.55 "/>
<polyline clip-path="url(#clip140)" style="stroke:#000000; stroke-linecap:round; stroke-linejoin:round; stroke-width:4; stroke-opacity:1; fill:none" points="2042.46,1486.45 2042.46,1467.55 "/>
<path clip-path="url(#clip140)" d="M545.303 1530.21 Q548.66 1530.93 550.535 1533.2 Q552.433 1535.47 552.433 1538.8 Q552.433 1543.92 548.914 1546.72 Q545.396 1549.52 538.915 1549.52 Q536.739 1549.52 534.424 1549.08 Q532.132 1548.66 529.678 1547.81 L529.678 1543.29 Q531.623 1544.43 533.938 1545.01 Q536.252 1545.58 538.776 1545.58 Q543.174 1545.58 545.465 1543.85 Q547.78 1542.11 547.78 1538.8 Q547.78 1535.75 545.627 1534.03 Q543.498 1532.3 539.678 1532.3 L535.651 1532.3 L535.651 1528.45 L539.864 1528.45 Q543.313 1528.45 545.141 1527.09 Q546.97 1525.7 546.97 1523.11 Q546.97 1520.45 545.072 1519.03 Q543.197 1517.6 539.678 1517.6 Q537.757 1517.6 535.558 1518.01 Q533.359 1518.43 530.72 1519.31 L530.72 1515.14 Q533.382 1514.4 535.697 1514.03 Q538.035 1513.66 540.095 1513.66 Q545.419 1513.66 548.521 1516.09 Q551.623 1518.5 551.623 1522.62 Q551.623 1525.49 549.979 1527.48 Q548.336 1529.45 545.303 1530.21 Z" fill="#000000" fill-rule="nonzero" fill-opacity="1" /><path clip-path="url(#clip140)" d="M916.813 1529.7 Q913.665 1529.7 911.813 1531.86 Q909.984 1534.01 909.984 1537.76 Q909.984 1541.49 911.813 1543.66 Q913.665 1545.82 916.813 1545.82 Q919.961 1545.82 921.79 1543.66 Q923.642 1541.49 923.642 1537.76 Q923.642 1534.01 921.79 1531.86 Q919.961 1529.7 916.813 1529.7 M926.095 1515.05 L926.095 1519.31 Q924.336 1518.48 922.531 1518.04 Q920.748 1517.6 918.989 1517.6 Q914.359 1517.6 911.906 1520.72 Q909.475 1523.85 909.128 1530.17 Q910.494 1528.15 912.554 1527.09 Q914.614 1526 917.091 1526 Q922.299 1526 925.308 1529.17 Q928.341 1532.32 928.341 1537.76 Q928.341 1543.08 925.193 1546.3 Q922.044 1549.52 916.813 1549.52 Q910.818 1549.52 907.646 1544.94 Q904.475 1540.33 904.475 1531.6 Q904.475 1523.41 908.364 1518.55 Q912.253 1513.66 918.804 1513.66 Q920.563 1513.66 922.345 1514.01 Q924.151 1514.36 926.095 1515.05 Z" fill="#000000" fill-rule="nonzero" fill-opacity="1" /><path clip-path="url(#clip140)" d="M1282.06 1548.13 L1282.06 1543.87 Q1283.82 1544.7 1285.63 1545.14 Q1287.43 1545.58 1289.17 1545.58 Q1293.8 1545.58 1296.23 1542.48 Q1298.68 1539.36 1299.03 1533.01 Q1297.69 1535.01 1295.63 1536.07 Q1293.57 1537.13 1291.07 1537.13 Q1285.88 1537.13 1282.85 1534.01 Q1279.84 1530.86 1279.84 1525.42 Q1279.84 1520.1 1282.99 1516.88 Q1286.14 1513.66 1291.37 1513.66 Q1297.36 1513.66 1300.51 1518.27 Q1303.68 1522.85 1303.68 1531.6 Q1303.68 1539.77 1299.79 1544.66 Q1295.93 1549.52 1289.38 1549.52 Q1287.62 1549.52 1285.81 1549.17 Q1284.01 1548.82 1282.06 1548.13 M1291.37 1533.48 Q1294.51 1533.48 1296.34 1531.32 Q1298.2 1529.17 1298.2 1525.42 Q1298.2 1521.7 1296.34 1519.54 Q1294.51 1517.37 1291.37 1517.37 Q1288.22 1517.37 1286.37 1519.54 Q1284.54 1521.7 1284.54 1525.42 Q1284.54 1529.17 1286.37 1531.32 Q1288.22 1533.48 1291.37 1533.48 Z" fill="#000000" fill-rule="nonzero" fill-opacity="1" /><path clip-path="url(#clip140)" d="M1642.6 1544.91 L1650.24 1544.91 L1650.24 1518.55 L1641.93 1520.21 L1641.93 1515.95 L1650.19 1514.29 L1654.87 1514.29 L1654.87 1544.91 L1662.51 1544.91 L1662.51 1548.85 L1642.6 1548.85 L1642.6 1544.91 Z" fill="#000000" fill-rule="nonzero" fill-opacity="1" /><path clip-path="url(#clip140)" d="M1675.98 1544.91 L1692.3 1544.91 L1692.3 1548.85 L1670.35 1548.85 L1670.35 1544.91 Q1673.02 1542.16 1677.6 1537.53 Q1682.2 1532.88 1683.39 1531.53 Q1685.63 1529.01 1686.51 1527.27 Q1687.41 1525.51 1687.41 1523.82 Q1687.41 1521.07 1685.47 1519.33 Q1683.55 1517.6 1680.45 1517.6 Q1678.25 1517.6 1675.79 1518.36 Q1673.36 1519.13 1670.58 1520.68 L1670.58 1515.95 Q1673.41 1514.82 1675.86 1514.24 Q1678.32 1513.66 1680.35 1513.66 Q1685.72 1513.66 1688.92 1516.35 Q1692.11 1519.03 1692.11 1523.52 Q1692.11 1525.65 1691.3 1527.57 Q1690.52 1529.47 1688.41 1532.07 Q1687.83 1532.74 1684.73 1535.95 Q1681.63 1539.15 1675.98 1544.91 Z" fill="#000000" fill-rule="nonzero" fill-opacity="1" /><path clip-path="url(#clip140)" d="M2017.65 1544.91 L2025.29 1544.91 L2025.29 1518.55 L2016.98 1520.21 L2016.98 1515.95 L2025.24 1514.29 L2029.92 1514.29 L2029.92 1544.91 L2037.56 1544.91 L2037.56 1548.85 L2017.65 1548.85 L2017.65 1544.91 Z" fill="#000000" fill-rule="nonzero" fill-opacity="1" /><path clip-path="url(#clip140)" d="M2047.05 1514.29 L2065.4 1514.29 L2065.4 1518.22 L2051.33 1518.22 L2051.33 1526.7 Q2052.35 1526.35 2053.37 1526.19 Q2054.39 1526 2055.4 1526 Q2061.19 1526 2064.57 1529.17 Q2067.95 1532.34 2067.95 1537.76 Q2067.95 1543.34 2064.48 1546.44 Q2061.01 1549.52 2054.69 1549.52 Q2052.51 1549.52 2050.24 1549.15 Q2048 1548.78 2045.59 1548.04 L2045.59 1543.34 Q2047.67 1544.47 2049.9 1545.03 Q2052.12 1545.58 2054.59 1545.58 Q2058.6 1545.58 2060.94 1543.48 Q2063.27 1541.37 2063.27 1537.76 Q2063.27 1534.15 2060.94 1532.04 Q2058.6 1529.94 2054.59 1529.94 Q2052.72 1529.94 2050.84 1530.35 Q2048.99 1530.77 2047.05 1531.65 L2047.05 1514.29 Z" fill="#000000" fill-rule="nonzero" fill-opacity="1" /><polyline clip-path="url(#clip140)" style="stroke:#000000; stroke-linecap:round; stroke-linejoin:round; stroke-width:4; stroke-opacity:1; fill:none" points="230.765,1486.45 230.765,106.192 "/>
<polyline clip-path="url(#clip140)" style="stroke:#000000; stroke-linecap:round; stroke-linejoin:round; stroke-width:4; stroke-opacity:1; fill:none" points="230.765,1328.82 249.662,1328.82 "/>
<polyline clip-path="url(#clip140)" style="stroke:#000000; stroke-linecap:round; stroke-linejoin:round; stroke-width:4; stroke-opacity:1; fill:none" points="230.765,1139.19 249.662,1139.19 "/>
<polyline clip-path="url(#clip140)" style="stroke:#000000; stroke-linecap:round; stroke-linejoin:round; stroke-width:4; stroke-opacity:1; fill:none" points="230.765,949.549 249.662,949.549 "/>
<polyline clip-path="url(#clip140)" style="stroke:#000000; stroke-linecap:round; stroke-linejoin:round; stroke-width:4; stroke-opacity:1; fill:none" points="230.765,759.912 249.662,759.912 "/>
<polyline clip-path="url(#clip140)" style="stroke:#000000; stroke-linecap:round; stroke-linejoin:round; stroke-width:4; stroke-opacity:1; fill:none" points="230.765,570.275 249.662,570.275 "/>
<polyline clip-path="url(#clip140)" style="stroke:#000000; stroke-linecap:round; stroke-linejoin:round; stroke-width:4; stroke-opacity:1; fill:none" points="230.765,380.638 249.662,380.638 "/>
<polyline clip-path="url(#clip140)" style="stroke:#000000; stroke-linecap:round; stroke-linejoin:round; stroke-width:4; stroke-opacity:1; fill:none" points="230.765,191.001 249.662,191.001 "/>
<path clip-path="url(#clip140)" d="M50.9921 1311.54 L73.2142 1311.54 L73.2142 1313.53 L60.668 1346.1 L55.7838 1346.1 L67.5893 1315.48 L50.9921 1315.48 L50.9921 1311.54 Z" fill="#000000" fill-rule="nonzero" fill-opacity="1" /><path clip-path="url(#clip140)" d="M96.5011 1327.47 Q99.8576 1328.19 101.733 1330.46 Q103.631 1332.72 103.631 1336.06 Q103.631 1341.17 100.112 1343.97 Q96.5937 1346.77 90.1123 1346.77 Q87.9364 1346.77 85.6216 1346.33 Q83.3299 1345.92 80.8762 1345.06 L80.8762 1340.55 Q82.8207 1341.68 85.1355 1342.26 Q87.4503 1342.84 89.9734 1342.84 Q94.3715 1342.84 96.6632 1341.1 Q98.978 1339.37 98.978 1336.06 Q98.978 1333 96.8252 1331.29 Q94.6956 1329.55 90.8762 1329.55 L86.8484 1329.55 L86.8484 1325.71 L91.0614 1325.71 Q94.5104 1325.71 96.3391 1324.34 Q98.1678 1322.96 98.1678 1320.36 Q98.1678 1317.7 96.2697 1316.29 Q94.3947 1314.85 90.8762 1314.85 Q88.9549 1314.85 86.7558 1315.27 Q84.5568 1315.69 81.9179 1316.57 L81.9179 1312.4 Q84.5799 1311.66 86.8947 1311.29 Q89.2327 1310.92 91.2928 1310.92 Q96.6169 1310.92 99.7187 1313.35 Q102.821 1315.76 102.821 1319.88 Q102.821 1322.75 101.177 1324.74 Q99.5335 1326.71 96.5011 1327.47 Z" fill="#000000" fill-rule="nonzero" fill-opacity="1" /><path clip-path="url(#clip140)" d="M122.496 1314.62 Q118.885 1314.62 117.057 1318.19 Q115.251 1321.73 115.251 1328.86 Q115.251 1335.96 117.057 1339.53 Q118.885 1343.07 122.496 1343.07 Q126.131 1343.07 127.936 1339.53 Q129.765 1335.96 129.765 1328.86 Q129.765 1321.73 127.936 1318.19 Q126.131 1314.62 122.496 1314.62 M122.496 1310.92 Q128.307 1310.92 131.362 1315.52 Q134.441 1320.11 134.441 1328.86 Q134.441 1337.58 131.362 1342.19 Q128.307 1346.77 122.496 1346.77 Q116.686 1346.77 113.608 1342.19 Q110.552 1337.58 110.552 1328.86 Q110.552 1320.11 113.608 1315.52 Q116.686 1310.92 122.496 1310.92 Z" fill="#000000" fill-rule="nonzero" fill-opacity="1" /><path clip-path="url(#clip140)" d="M152.658 1314.62 Q149.047 1314.62 147.218 1318.19 Q145.413 1321.73 145.413 1328.86 Q145.413 1335.96 147.218 1339.53 Q149.047 1343.07 152.658 1343.07 Q156.292 1343.07 158.098 1339.53 Q159.927 1335.96 159.927 1328.86 Q159.927 1321.73 158.098 1318.19 Q156.292 1314.62 152.658 1314.62 M152.658 1310.92 Q158.468 1310.92 161.524 1315.52 Q164.603 1320.11 164.603 1328.86 Q164.603 1337.58 161.524 1342.19 Q158.468 1346.77 152.658 1346.77 Q146.848 1346.77 143.769 1342.19 Q140.714 1337.58 140.714 1328.86 Q140.714 1320.11 143.769 1315.52 Q146.848 1310.92 152.658 1310.92 Z" fill="#000000" fill-rule="nonzero" fill-opacity="1" /><path clip-path="url(#clip140)" d="M182.82 1314.62 Q179.209 1314.62 177.38 1318.19 Q175.575 1321.73 175.575 1328.86 Q175.575 1335.96 177.38 1339.53 Q179.209 1343.07 182.82 1343.07 Q186.454 1343.07 188.26 1339.53 Q190.089 1335.96 190.089 1328.86 Q190.089 1321.73 188.26 1318.19 Q186.454 1314.62 182.82 1314.62 M182.82 1310.92 Q188.63 1310.92 191.686 1315.52 Q194.765 1320.11 194.765 1328.86 Q194.765 1337.58 191.686 1342.19 Q188.63 1346.77 182.82 1346.77 Q177.01 1346.77 173.931 1342.19 Q170.876 1337.58 170.876 1328.86 Q170.876 1320.11 173.931 1315.52 Q177.01 1310.92 182.82 1310.92 Z" fill="#000000" fill-rule="nonzero" fill-opacity="1" /><path clip-path="url(#clip140)" d="M50.9921 1121.91 L73.2142 1121.91 L73.2142 1123.9 L60.668 1156.47 L55.7838 1156.47 L67.5893 1125.84 L50.9921 1125.84 L50.9921 1121.91 Z" fill="#000000" fill-rule="nonzero" fill-opacity="1" /><path clip-path="url(#clip140)" d="M95.1817 1125.98 L83.3762 1144.43 L95.1817 1144.43 L95.1817 1125.98 M93.9549 1121.91 L99.8345 1121.91 L99.8345 1144.43 L104.765 1144.43 L104.765 1148.32 L99.8345 1148.32 L99.8345 1156.47 L95.1817 1156.47 L95.1817 1148.32 L79.5799 1148.32 L79.5799 1143.8 L93.9549 1121.91 Z" fill="#000000" fill-rule="nonzero" fill-opacity="1" /><path clip-path="url(#clip140)" d="M122.496 1124.98 Q118.885 1124.98 117.057 1128.55 Q115.251 1132.09 115.251 1139.22 Q115.251 1146.33 117.057 1149.89 Q118.885 1153.43 122.496 1153.43 Q126.131 1153.43 127.936 1149.89 Q129.765 1146.33 129.765 1139.22 Q129.765 1132.09 127.936 1128.55 Q126.131 1124.98 122.496 1124.98 M122.496 1121.28 Q128.307 1121.28 131.362 1125.89 Q134.441 1130.47 134.441 1139.22 Q134.441 1147.95 131.362 1152.55 Q128.307 1157.14 122.496 1157.14 Q116.686 1157.14 113.608 1152.55 Q110.552 1147.95 110.552 1139.22 Q110.552 1130.47 113.608 1125.89 Q116.686 1121.28 122.496 1121.28 Z" fill="#000000" fill-rule="nonzero" fill-opacity="1" /><path clip-path="url(#clip140)" d="M152.658 1124.98 Q149.047 1124.98 147.218 1128.55 Q145.413 1132.09 145.413 1139.22 Q145.413 1146.33 147.218 1149.89 Q149.047 1153.43 152.658 1153.43 Q156.292 1153.43 158.098 1149.89 Q159.927 1146.33 159.927 1139.22 Q159.927 1132.09 158.098 1128.55 Q156.292 1124.98 152.658 1124.98 M152.658 1121.28 Q158.468 1121.28 161.524 1125.89 Q164.603 1130.47 164.603 1139.22 Q164.603 1147.95 161.524 1152.55 Q158.468 1157.14 152.658 1157.14 Q146.848 1157.14 143.769 1152.55 Q140.714 1147.95 140.714 1139.22 Q140.714 1130.47 143.769 1125.89 Q146.848 1121.28 152.658 1121.28 Z" fill="#000000" fill-rule="nonzero" fill-opacity="1" /><path clip-path="url(#clip140)" d="M182.82 1124.98 Q179.209 1124.98 177.38 1128.55 Q175.575 1132.09 175.575 1139.22 Q175.575 1146.33 177.38 1149.89 Q179.209 1153.43 182.82 1153.43 Q186.454 1153.43 188.26 1149.89 Q190.089 1146.33 190.089 1139.22 Q190.089 1132.09 188.26 1128.55 Q186.454 1124.98 182.82 1124.98 M182.82 1121.28 Q188.63 1121.28 191.686 1125.89 Q194.765 1130.47 194.765 1139.22 Q194.765 1147.95 191.686 1152.55 Q188.63 1157.14 182.82 1157.14 Q177.01 1157.14 173.931 1152.55 Q170.876 1147.95 170.876 1139.22 Q170.876 1130.47 173.931 1125.89 Q177.01 1121.28 182.82 1121.28 Z" fill="#000000" fill-rule="nonzero" fill-opacity="1" /><path clip-path="url(#clip140)" d="M50.9921 932.269 L73.2142 932.269 L73.2142 934.26 L60.668 966.829 L55.7838 966.829 L67.5893 936.204 L50.9921 936.204 L50.9921 932.269 Z" fill="#000000" fill-rule="nonzero" fill-opacity="1" /><path clip-path="url(#clip140)" d="M82.3808 932.269 L100.737 932.269 L100.737 936.204 L86.6632 936.204 L86.6632 944.676 Q87.6817 944.329 88.7003 944.167 Q89.7188 943.982 90.7373 943.982 Q96.5243 943.982 99.9039 947.153 Q103.284 950.324 103.284 955.741 Q103.284 961.32 99.8113 964.422 Q96.3391 967.5 90.0197 967.5 Q87.8438 967.5 85.5753 967.13 Q83.3299 966.76 80.9225 966.019 L80.9225 961.32 Q83.0058 962.454 85.2281 963.01 Q87.4503 963.565 89.9271 963.565 Q93.9317 963.565 96.2697 961.459 Q98.6076 959.352 98.6076 955.741 Q98.6076 952.13 96.2697 950.024 Q93.9317 947.917 89.9271 947.917 Q88.0521 947.917 86.1771 948.334 Q84.3253 948.75 82.3808 949.63 L82.3808 932.269 Z" fill="#000000" fill-rule="nonzero" fill-opacity="1" /><path clip-path="url(#clip140)" d="M122.496 935.348 Q118.885 935.348 117.057 938.913 Q115.251 942.454 115.251 949.584 Q115.251 956.69 117.057 960.255 Q118.885 963.797 122.496 963.797 Q126.131 963.797 127.936 960.255 Q129.765 956.69 129.765 949.584 Q129.765 942.454 127.936 938.913 Q126.131 935.348 122.496 935.348 M122.496 931.644 Q128.307 931.644 131.362 936.25 Q134.441 940.834 134.441 949.584 Q134.441 958.311 131.362 962.917 Q128.307 967.5 122.496 967.5 Q116.686 967.5 113.608 962.917 Q110.552 958.311 110.552 949.584 Q110.552 940.834 113.608 936.25 Q116.686 931.644 122.496 931.644 Z" fill="#000000" fill-rule="nonzero" fill-opacity="1" /><path clip-path="url(#clip140)" d="M152.658 935.348 Q149.047 935.348 147.218 938.913 Q145.413 942.454 145.413 949.584 Q145.413 956.69 147.218 960.255 Q149.047 963.797 152.658 963.797 Q156.292 963.797 158.098 960.255 Q159.927 956.69 159.927 949.584 Q159.927 942.454 158.098 938.913 Q156.292 935.348 152.658 935.348 M152.658 931.644 Q158.468 931.644 161.524 936.25 Q164.603 940.834 164.603 949.584 Q164.603 958.311 161.524 962.917 Q158.468 967.5 152.658 967.5 Q146.848 967.5 143.769 962.917 Q140.714 958.311 140.714 949.584 Q140.714 940.834 143.769 936.25 Q146.848 931.644 152.658 931.644 Z" fill="#000000" fill-rule="nonzero" fill-opacity="1" /><path clip-path="url(#clip140)" d="M182.82 935.348 Q179.209 935.348 177.38 938.913 Q175.575 942.454 175.575 949.584 Q175.575 956.69 177.38 960.255 Q179.209 963.797 182.82 963.797 Q186.454 963.797 188.26 960.255 Q190.089 956.69 190.089 949.584 Q190.089 942.454 188.26 938.913 Q186.454 935.348 182.82 935.348 M182.82 931.644 Q188.63 931.644 191.686 936.25 Q194.765 940.834 194.765 949.584 Q194.765 958.311 191.686 962.917 Q188.63 967.5 182.82 967.5 Q177.01 967.5 173.931 962.917 Q170.876 958.311 170.876 949.584 Q170.876 940.834 173.931 936.25 Q177.01 931.644 182.82 931.644 Z" fill="#000000" fill-rule="nonzero" fill-opacity="1" /><path clip-path="url(#clip140)" d="M50.9921 742.632 L73.2142 742.632 L73.2142 744.623 L60.668 777.192 L55.7838 777.192 L67.5893 746.567 L50.9921 746.567 L50.9921 742.632 Z" fill="#000000" fill-rule="nonzero" fill-opacity="1" /><path clip-path="url(#clip140)" d="M92.9132 758.049 Q89.7651 758.049 87.9132 760.201 Q86.0845 762.354 86.0845 766.104 Q86.0845 769.831 87.9132 772.007 Q89.7651 774.16 92.9132 774.16 Q96.0613 774.16 97.89 772.007 Q99.7419 769.831 99.7419 766.104 Q99.7419 762.354 97.89 760.201 Q96.0613 758.049 92.9132 758.049 M102.196 743.396 L102.196 747.655 Q100.436 746.822 98.6308 746.382 Q96.8484 745.942 95.0891 745.942 Q90.4595 745.942 88.0058 749.067 Q85.5753 752.192 85.2281 758.512 Q86.5938 756.498 88.654 755.433 Q90.7141 754.345 93.191 754.345 Q98.3993 754.345 101.409 757.516 Q104.441 760.664 104.441 766.104 Q104.441 771.428 101.293 774.646 Q98.1447 777.863 92.9132 777.863 Q86.9179 777.863 83.7466 773.28 Q80.5753 768.674 80.5753 759.947 Q80.5753 751.752 84.4642 746.891 Q88.353 742.007 94.9039 742.007 Q96.6632 742.007 98.4456 742.354 Q100.251 742.701 102.196 743.396 Z" fill="#000000" fill-rule="nonzero" fill-opacity="1" /><path clip-path="url(#clip140)" d="M122.496 745.711 Q118.885 745.711 117.057 749.275 Q115.251 752.817 115.251 759.947 Q115.251 767.053 117.057 770.618 Q118.885 774.16 122.496 774.16 Q126.131 774.16 127.936 770.618 Q129.765 767.053 129.765 759.947 Q129.765 752.817 127.936 749.275 Q126.131 745.711 122.496 745.711 M122.496 742.007 Q128.307 742.007 131.362 746.613 Q134.441 751.197 134.441 759.947 Q134.441 768.674 131.362 773.28 Q128.307 777.863 122.496 777.863 Q116.686 777.863 113.608 773.28 Q110.552 768.674 110.552 759.947 Q110.552 751.197 113.608 746.613 Q116.686 742.007 122.496 742.007 Z" fill="#000000" fill-rule="nonzero" fill-opacity="1" /><path clip-path="url(#clip140)" d="M152.658 745.711 Q149.047 745.711 147.218 749.275 Q145.413 752.817 145.413 759.947 Q145.413 767.053 147.218 770.618 Q149.047 774.16 152.658 774.16 Q156.292 774.16 158.098 770.618 Q159.927 767.053 159.927 759.947 Q159.927 752.817 158.098 749.275 Q156.292 745.711 152.658 745.711 M152.658 742.007 Q158.468 742.007 161.524 746.613 Q164.603 751.197 164.603 759.947 Q164.603 768.674 161.524 773.28 Q158.468 777.863 152.658 777.863 Q146.848 777.863 143.769 773.28 Q140.714 768.674 140.714 759.947 Q140.714 751.197 143.769 746.613 Q146.848 742.007 152.658 742.007 Z" fill="#000000" fill-rule="nonzero" fill-opacity="1" /><path clip-path="url(#clip140)" d="M182.82 745.711 Q179.209 745.711 177.38 749.275 Q175.575 752.817 175.575 759.947 Q175.575 767.053 177.38 770.618 Q179.209 774.16 182.82 774.16 Q186.454 774.16 188.26 770.618 Q190.089 767.053 190.089 759.947 Q190.089 752.817 188.26 749.275 Q186.454 745.711 182.82 745.711 M182.82 742.007 Q188.63 742.007 191.686 746.613 Q194.765 751.197 194.765 759.947 Q194.765 768.674 191.686 773.28 Q188.63 777.863 182.82 777.863 Q177.01 777.863 173.931 773.28 Q170.876 768.674 170.876 759.947 Q170.876 751.197 173.931 746.613 Q177.01 742.007 182.82 742.007 Z" fill="#000000" fill-rule="nonzero" fill-opacity="1" /><path clip-path="url(#clip140)" d="M50.9921 552.995 L73.2142 552.995 L73.2142 554.986 L60.668 587.555 L55.7838 587.555 L67.5893 556.93 L50.9921 556.93 L50.9921 552.995 Z" fill="#000000" fill-rule="nonzero" fill-opacity="1" /><path clip-path="url(#clip140)" d="M81.154 552.995 L103.376 552.995 L103.376 554.986 L90.8299 587.555 L85.9456 587.555 L97.7511 556.93 L81.154 556.93 L81.154 552.995 Z" fill="#000000" fill-rule="nonzero" fill-opacity="1" /><path clip-path="url(#clip140)" d="M122.496 556.074 Q118.885 556.074 117.057 559.638 Q115.251 563.18 115.251 570.31 Q115.251 577.416 117.057 580.981 Q118.885 584.523 122.496 584.523 Q126.131 584.523 127.936 580.981 Q129.765 577.416 129.765 570.31 Q129.765 563.18 127.936 559.638 Q126.131 556.074 122.496 556.074 M122.496 552.37 Q128.307 552.37 131.362 556.976 Q134.441 561.56 134.441 570.31 Q134.441 579.037 131.362 583.643 Q128.307 588.226 122.496 588.226 Q116.686 588.226 113.608 583.643 Q110.552 579.037 110.552 570.31 Q110.552 561.56 113.608 556.976 Q116.686 552.37 122.496 552.37 Z" fill="#000000" fill-rule="nonzero" fill-opacity="1" /><path clip-path="url(#clip140)" d="M152.658 556.074 Q149.047 556.074 147.218 559.638 Q145.413 563.18 145.413 570.31 Q145.413 577.416 147.218 580.981 Q149.047 584.523 152.658 584.523 Q156.292 584.523 158.098 580.981 Q159.927 577.416 159.927 570.31 Q159.927 563.18 158.098 559.638 Q156.292 556.074 152.658 556.074 M152.658 552.37 Q158.468 552.37 161.524 556.976 Q164.603 561.56 164.603 570.31 Q164.603 579.037 161.524 583.643 Q158.468 588.226 152.658 588.226 Q146.848 588.226 143.769 583.643 Q140.714 579.037 140.714 570.31 Q140.714 561.56 143.769 556.976 Q146.848 552.37 152.658 552.37 Z" fill="#000000" fill-rule="nonzero" fill-opacity="1" /><path clip-path="url(#clip140)" d="M182.82 556.074 Q179.209 556.074 177.38 559.638 Q175.575 563.18 175.575 570.31 Q175.575 577.416 177.38 580.981 Q179.209 584.523 182.82 584.523 Q186.454 584.523 188.26 580.981 Q190.089 577.416 190.089 570.31 Q190.089 563.18 188.26 559.638 Q186.454 556.074 182.82 556.074 M182.82 552.37 Q188.63 552.37 191.686 556.976 Q194.765 561.56 194.765 570.31 Q194.765 579.037 191.686 583.643 Q188.63 588.226 182.82 588.226 Q177.01 588.226 173.931 583.643 Q170.876 579.037 170.876 570.31 Q170.876 561.56 173.931 556.976 Q177.01 552.37 182.82 552.37 Z" fill="#000000" fill-rule="nonzero" fill-opacity="1" /><path clip-path="url(#clip140)" d="M50.9921 363.358 L73.2142 363.358 L73.2142 365.349 L60.668 397.918 L55.7838 397.918 L67.5893 367.293 L50.9921 367.293 L50.9921 363.358 Z" fill="#000000" fill-rule="nonzero" fill-opacity="1" /><path clip-path="url(#clip140)" d="M92.3345 381.506 Q89.0012 381.506 87.0799 383.288 Q85.1818 385.071 85.1818 388.196 Q85.1818 391.321 87.0799 393.103 Q89.0012 394.886 92.3345 394.886 Q95.6678 394.886 97.5891 393.103 Q99.5104 391.298 99.5104 388.196 Q99.5104 385.071 97.5891 383.288 Q95.691 381.506 92.3345 381.506 M87.6586 379.515 Q84.6494 378.775 82.9595 376.714 Q81.2929 374.654 81.2929 371.691 Q81.2929 367.548 84.2327 365.14 Q87.1956 362.733 92.3345 362.733 Q97.4965 362.733 100.436 365.14 Q103.376 367.548 103.376 371.691 Q103.376 374.654 101.686 376.714 Q100.02 378.775 97.0335 379.515 Q100.413 380.302 102.288 382.594 Q104.186 384.886 104.186 388.196 Q104.186 393.219 101.108 395.904 Q98.0521 398.589 92.3345 398.589 Q86.6169 398.589 83.5382 395.904 Q80.4827 393.219 80.4827 388.196 Q80.4827 384.886 82.3808 382.594 Q84.279 380.302 87.6586 379.515 M85.9456 372.131 Q85.9456 374.816 87.6123 376.321 Q89.3021 377.825 92.3345 377.825 Q95.3437 377.825 97.0335 376.321 Q98.7465 374.816 98.7465 372.131 Q98.7465 369.446 97.0335 367.941 Q95.3437 366.437 92.3345 366.437 Q89.3021 366.437 87.6123 367.941 Q85.9456 369.446 85.9456 372.131 Z" fill="#000000" fill-rule="nonzero" fill-opacity="1" /><path clip-path="url(#clip140)" d="M122.496 366.437 Q118.885 366.437 117.057 370.001 Q115.251 373.543 115.251 380.673 Q115.251 387.779 117.057 391.344 Q118.885 394.886 122.496 394.886 Q126.131 394.886 127.936 391.344 Q129.765 387.779 129.765 380.673 Q129.765 373.543 127.936 370.001 Q126.131 366.437 122.496 366.437 M122.496 362.733 Q128.307 362.733 131.362 367.339 Q134.441 371.923 134.441 380.673 Q134.441 389.399 131.362 394.006 Q128.307 398.589 122.496 398.589 Q116.686 398.589 113.608 394.006 Q110.552 389.399 110.552 380.673 Q110.552 371.923 113.608 367.339 Q116.686 362.733 122.496 362.733 Z" fill="#000000" fill-rule="nonzero" fill-opacity="1" /><path clip-path="url(#clip140)" d="M152.658 366.437 Q149.047 366.437 147.218 370.001 Q145.413 373.543 145.413 380.673 Q145.413 387.779 147.218 391.344 Q149.047 394.886 152.658 394.886 Q156.292 394.886 158.098 391.344 Q159.927 387.779 159.927 380.673 Q159.927 373.543 158.098 370.001 Q156.292 366.437 152.658 366.437 M152.658 362.733 Q158.468 362.733 161.524 367.339 Q164.603 371.923 164.603 380.673 Q164.603 389.399 161.524 394.006 Q158.468 398.589 152.658 398.589 Q146.848 398.589 143.769 394.006 Q140.714 389.399 140.714 380.673 Q140.714 371.923 143.769 367.339 Q146.848 362.733 152.658 362.733 Z" fill="#000000" fill-rule="nonzero" fill-opacity="1" /><path clip-path="url(#clip140)" d="M182.82 366.437 Q179.209 366.437 177.38 370.001 Q175.575 373.543 175.575 380.673 Q175.575 387.779 177.38 391.344 Q179.209 394.886 182.82 394.886 Q186.454 394.886 188.26 391.344 Q190.089 387.779 190.089 380.673 Q190.089 373.543 188.26 370.001 Q186.454 366.437 182.82 366.437 M182.82 362.733 Q188.63 362.733 191.686 367.339 Q194.765 371.923 194.765 380.673 Q194.765 389.399 191.686 394.006 Q188.63 398.589 182.82 398.589 Q177.01 398.589 173.931 394.006 Q170.876 389.399 170.876 380.673 Q170.876 371.923 173.931 367.339 Q177.01 362.733 182.82 362.733 Z" fill="#000000" fill-rule="nonzero" fill-opacity="1" /><path clip-path="url(#clip140)" d="M50.9921 173.721 L73.2142 173.721 L73.2142 175.712 L60.668 208.281 L55.7838 208.281 L67.5893 177.656 L50.9921 177.656 L50.9921 173.721 Z" fill="#000000" fill-rule="nonzero" fill-opacity="1" /><path clip-path="url(#clip140)" d="M82.4734 207.563 L82.4734 203.304 Q84.2327 204.137 86.0382 204.577 Q87.8438 205.017 89.5799 205.017 Q94.2095 205.017 96.64 201.915 Q99.0937 198.79 99.4409 192.448 Q98.0984 194.438 96.0382 195.503 Q93.978 196.568 91.478 196.568 Q86.2929 196.568 83.2605 193.443 Q80.2512 190.295 80.2512 184.855 Q80.2512 179.531 83.3994 176.314 Q86.5475 173.096 91.7789 173.096 Q97.7743 173.096 100.922 177.702 Q104.094 182.286 104.094 191.036 Q104.094 199.207 100.205 204.091 Q96.3391 208.952 89.7882 208.952 Q88.029 208.952 86.2234 208.605 Q84.4179 208.258 82.4734 207.563 M91.7789 192.911 Q94.9271 192.911 96.7558 190.758 Q98.6076 188.605 98.6076 184.855 Q98.6076 181.128 96.7558 178.976 Q94.9271 176.8 91.7789 176.8 Q88.6308 176.8 86.779 178.976 Q84.9503 181.128 84.9503 184.855 Q84.9503 188.605 86.779 190.758 Q88.6308 192.911 91.7789 192.911 Z" fill="#000000" fill-rule="nonzero" fill-opacity="1" /><path clip-path="url(#clip140)" d="M122.496 176.8 Q118.885 176.8 117.057 180.364 Q115.251 183.906 115.251 191.036 Q115.251 198.142 117.057 201.707 Q118.885 205.249 122.496 205.249 Q126.131 205.249 127.936 201.707 Q129.765 198.142 129.765 191.036 Q129.765 183.906 127.936 180.364 Q126.131 176.8 122.496 176.8 M122.496 173.096 Q128.307 173.096 131.362 177.702 Q134.441 182.286 134.441 191.036 Q134.441 199.762 131.362 204.369 Q128.307 208.952 122.496 208.952 Q116.686 208.952 113.608 204.369 Q110.552 199.762 110.552 191.036 Q110.552 182.286 113.608 177.702 Q116.686 173.096 122.496 173.096 Z" fill="#000000" fill-rule="nonzero" fill-opacity="1" /><path clip-path="url(#clip140)" d="M152.658 176.8 Q149.047 176.8 147.218 180.364 Q145.413 183.906 145.413 191.036 Q145.413 198.142 147.218 201.707 Q149.047 205.249 152.658 205.249 Q156.292 205.249 158.098 201.707 Q159.927 198.142 159.927 191.036 Q159.927 183.906 158.098 180.364 Q156.292 176.8 152.658 176.8 M152.658 173.096 Q158.468 173.096 161.524 177.702 Q164.603 182.286 164.603 191.036 Q164.603 199.762 161.524 204.369 Q158.468 208.952 152.658 208.952 Q146.848 208.952 143.769 204.369 Q140.714 199.762 140.714 191.036 Q140.714 182.286 143.769 177.702 Q146.848 173.096 152.658 173.096 Z" fill="#000000" fill-rule="nonzero" fill-opacity="1" /><path clip-path="url(#clip140)" d="M182.82 176.8 Q179.209 176.8 177.38 180.364 Q175.575 183.906 175.575 191.036 Q175.575 198.142 177.38 201.707 Q179.209 205.249 182.82 205.249 Q186.454 205.249 188.26 201.707 Q190.089 198.142 190.089 191.036 Q190.089 183.906 188.26 180.364 Q186.454 176.8 182.82 176.8 M182.82 173.096 Q188.63 173.096 191.686 177.702 Q194.765 182.286 194.765 191.036 Q194.765 199.762 191.686 204.369 Q188.63 208.952 182.82 208.952 Q177.01 208.952 173.931 204.369 Q170.876 199.762 170.876 191.036 Q170.876 182.286 173.931 177.702 Q177.01 173.096 182.82 173.096 Z" fill="#000000" fill-rule="nonzero" fill-opacity="1" /><path clip-path="url(#clip140)" d="M1262.23 35.2602 Q1262.23 29.4732 1259.83 26.2904 Q1257.46 23.1075 1253.15 23.1075 Q1248.86 23.1075 1246.46 26.2904 Q1244.09 29.4732 1244.09 35.2602 Q1244.09 41.0183 1246.46 44.2012 Q1248.86 47.384 1253.15 47.384 Q1257.46 47.384 1259.83 44.2012 Q1262.23 41.0183 1262.23 35.2602 M1267.56 47.818 Q1267.56 56.0934 1263.88 60.1154 Q1260.21 64.1663 1252.63 64.1663 Q1249.82 64.1663 1247.33 63.7323 Q1244.84 63.3272 1242.5 62.4592 L1242.5 57.2798 Q1244.84 58.5529 1247.13 59.1606 Q1249.41 59.7682 1251.79 59.7682 Q1257.02 59.7682 1259.63 57.0194 Q1262.23 54.2995 1262.23 48.7729 L1262.23 46.1398 Q1260.58 49.0044 1258.01 50.4222 Q1255.43 51.84 1251.84 51.84 Q1245.88 51.84 1242.24 47.2972 Q1238.59 42.7544 1238.59 35.2602 Q1238.59 27.7371 1242.24 23.1943 Q1245.88 18.6515 1251.84 18.6515 Q1255.43 18.6515 1258.01 20.0693 Q1260.58 21.4872 1262.23 24.3517 L1262.23 19.4328 L1267.56 19.4328 L1267.56 47.818 Z" fill="#000000" fill-rule="nonzero" fill-opacity="1" /><path clip-path="url(#clip140)" d="M1299.85 24.3517 L1299.85 6.81709 L1305.17 6.81709 L1305.17 51.84 L1299.85 51.84 L1299.85 46.9789 Q1298.17 49.8724 1295.59 51.2902 Q1293.05 52.6791 1289.46 52.6791 Q1283.59 52.6791 1279.88 47.9916 Q1276.21 43.3042 1276.21 35.6653 Q1276.21 28.0265 1279.88 23.339 Q1283.59 18.6515 1289.46 18.6515 Q1293.05 18.6515 1295.59 20.0693 Q1298.17 21.4582 1299.85 24.3517 M1281.71 35.6653 Q1281.71 41.5391 1284.11 44.8956 Q1286.54 48.2231 1290.76 48.2231 Q1294.99 48.2231 1297.42 44.8956 Q1299.85 41.5391 1299.85 35.6653 Q1299.85 29.7915 1297.42 26.464 Q1294.99 23.1075 1290.76 23.1075 Q1286.54 23.1075 1284.11 26.464 Q1281.71 29.7915 1281.71 35.6653 Z" fill="#000000" fill-rule="nonzero" fill-opacity="1" /><path clip-path="url(#clip140)" d="M1321.29 46.9789 L1321.29 64.1663 L1315.94 64.1663 L1315.94 19.4328 L1321.29 19.4328 L1321.29 24.3517 Q1322.97 21.4582 1325.51 20.0693 Q1328.09 18.6515 1331.65 18.6515 Q1337.55 18.6515 1341.22 23.339 Q1344.93 28.0265 1344.93 35.6653 Q1344.93 43.3042 1341.22 47.9916 Q1337.55 52.6791 1331.65 52.6791 Q1328.09 52.6791 1325.51 51.2902 Q1322.97 49.8724 1321.29 46.9789 M1339.4 35.6653 Q1339.4 29.7915 1336.97 26.464 Q1334.57 23.1075 1330.35 23.1075 Q1326.12 23.1075 1323.69 26.464 Q1321.29 29.7915 1321.29 35.6653 Q1321.29 41.5391 1323.69 44.8956 Q1326.12 48.2231 1330.35 48.2231 Q1334.57 48.2231 1336.97 44.8956 Q1339.4 41.5391 1339.4 35.6653 Z" fill="#000000" fill-rule="nonzero" fill-opacity="1" /><polyline clip-path="url(#clip142)" style="stroke:#009af9; stroke-linecap:round; stroke-linejoin:round; stroke-width:4; stroke-opacity:1; fill:none" points="290.821,1438.43 415.938,1447.38 541.056,1262.33 666.173,1060.36 791.291,1075.33 916.408,1085.82 1041.53,989.532 1166.64,1010.62 1291.76,1031.82 1416.88,861.235 1542,789.688 1667.11,770.275 1792.23,782.335 1917.35,528.31 2042.46,438.866 2167.58,466.217 2292.7,145.256 "/>
<path clip-path="url(#clip140)" d="M301.498 255.881 L566.127 255.881 L566.127 152.201 L301.498 152.201  Z" fill="#ffffff" fill-rule="evenodd" fill-opacity="1"/>
<polyline clip-path="url(#clip140)" style="stroke:#000000; stroke-linecap:round; stroke-linejoin:round; stroke-width:4; stroke-opacity:1; fill:none" points="301.498,255.881 566.127,255.881 566.127,152.201 301.498,152.201 301.498,255.881 "/>
<polyline clip-path="url(#clip140)" style="stroke:#009af9; stroke-linecap:round; stroke-linejoin:round; stroke-width:4; stroke-opacity:1; fill:none" points="325.075,204.041 466.541,204.041 "/>
<path clip-path="url(#clip140)" d="M503.962 223.728 Q502.156 228.358 500.443 229.77 Q498.73 231.182 495.86 231.182 L492.457 231.182 L492.457 227.617 L494.957 227.617 Q496.716 227.617 497.688 226.784 Q498.661 225.95 499.841 222.848 L500.605 220.904 L490.119 195.395 L494.633 195.395 L502.735 215.673 L510.836 195.395 L515.35 195.395 L503.962 223.728 Z" fill="#000000" fill-rule="nonzero" fill-opacity="1" /><path clip-path="url(#clip140)" d="M522.642 217.385 L530.281 217.385 L530.281 191.02 L521.971 192.687 L521.971 188.427 L530.235 186.761 L534.91 186.761 L534.91 217.385 L542.549 217.385 L542.549 221.321 L522.642 221.321 L522.642 217.385 Z" fill="#000000" fill-rule="nonzero" fill-opacity="1" /></svg>
