<?xml version="1.0" encoding="utf-8"?>
<svg xmlns="http://www.w3.org/2000/svg" xmlns:xlink="http://www.w3.org/1999/xlink" width="600" height="400" viewBox="0 0 2400 1600">
<defs>
  <clipPath id="clip380">
    <rect x="0" y="0" width="2400" height="1600"/>
  </clipPath>
</defs>
<path clip-path="url(#clip380)" d="M0 1600 L2400 1600 L2400 0 L0 0  Z" fill="#ffffff" fill-rule="evenodd" fill-opacity="1"/>
<defs>
  <clipPath id="clip381">
    <rect x="480" y="0" width="1681" height="1600"/>
  </clipPath>
</defs>
<path clip-path="url(#clip380)" d="M279.866 1423.18 L2352.76 1423.18 L2352.76 47.2441 L279.866 47.2441  Z" fill="#ffffff" fill-rule="evenodd" fill-opacity="1"/>
<defs>
  <clipPath id="clip382">
    <rect x="279" y="47" width="2074" height="1377"/>
  </clipPath>
</defs>
<polyline clip-path="url(#clip382)" style="stroke:#000000; stroke-linecap:round; stroke-linejoin:round; stroke-width:2; stroke-opacity:0.1; fill:none" points="582.977,1423.18 582.977,47.2441 "/>
<polyline clip-path="url(#clip382)" style="stroke:#000000; stroke-linecap:round; stroke-linejoin:round; stroke-width:2; stroke-opacity:0.1; fill:none" points="949.644,1423.18 949.644,47.2441 "/>
<polyline clip-path="url(#clip382)" style="stroke:#000000; stroke-linecap:round; stroke-linejoin:round; stroke-width:2; stroke-opacity:0.1; fill:none" points="1316.31,1423.18 1316.31,47.2441 "/>
<polyline clip-path="url(#clip382)" style="stroke:#000000; stroke-linecap:round; stroke-linejoin:round; stroke-width:2; stroke-opacity:0.1; fill:none" points="1682.98,1423.18 1682.98,47.2441 "/>
<polyline clip-path="url(#clip382)" style="stroke:#000000; stroke-linecap:round; stroke-linejoin:round; stroke-width:2; stroke-opacity:0.1; fill:none" points="2049.64,1423.18 2049.64,47.2441 "/>
<polyline clip-path="url(#clip382)" style="stroke:#000000; stroke-linecap:round; stroke-linejoin:round; stroke-width:2; stroke-opacity:0.1; fill:none" points="279.866,1313.79 2352.76,1313.79 "/>
<polyline clip-path="url(#clip382)" style="stroke:#000000; stroke-linecap:round; stroke-linejoin:round; stroke-width:2; stroke-opacity:0.1; fill:none" points="279.866,1130.95 2352.76,1130.95 "/>
<polyline clip-path="url(#clip382)" style="stroke:#000000; stroke-linecap:round; stroke-linejoin:round; stroke-width:2; stroke-opacity:0.1; fill:none" points="279.866,948.096 2352.76,948.096 "/>
<polyline clip-path="url(#clip382)" style="stroke:#000000; stroke-linecap:round; stroke-linejoin:round; stroke-width:2; stroke-opacity:0.1; fill:none" points="279.866,765.247 2352.76,765.247 "/>
<polyline clip-path="url(#clip382)" style="stroke:#000000; stroke-linecap:round; stroke-linejoin:round; stroke-width:2; stroke-opacity:0.1; fill:none" points="279.866,582.397 2352.76,582.397 "/>
<polyline clip-path="url(#clip382)" style="stroke:#000000; stroke-linecap:round; stroke-linejoin:round; stroke-width:2; stroke-opacity:0.1; fill:none" points="279.866,399.548 2352.76,399.548 "/>
<polyline clip-path="url(#clip382)" style="stroke:#000000; stroke-linecap:round; stroke-linejoin:round; stroke-width:2; stroke-opacity:0.1; fill:none" points="279.866,216.699 2352.76,216.699 "/>
<polyline clip-path="url(#clip380)" style="stroke:#000000; stroke-linecap:round; stroke-linejoin:round; stroke-width:4; stroke-opacity:1; fill:none" points="279.866,1423.18 2352.76,1423.18 "/>
<polyline clip-path="url(#clip380)" style="stroke:#000000; stroke-linecap:round; stroke-linejoin:round; stroke-width:4; stroke-opacity:1; fill:none" points="582.977,1423.18 582.977,1404.28 "/>
<polyline clip-path="url(#clip380)" style="stroke:#000000; stroke-linecap:round; stroke-linejoin:round; stroke-width:4; stroke-opacity:1; fill:none" points="949.644,1423.18 949.644,1404.28 "/>
<polyline clip-path="url(#clip380)" style="stroke:#000000; stroke-linecap:round; stroke-linejoin:round; stroke-width:4; stroke-opacity:1; fill:none" points="1316.31,1423.18 1316.31,1404.28 "/>
<polyline clip-path="url(#clip380)" style="stroke:#000000; stroke-linecap:round; stroke-linejoin:round; stroke-width:4; stroke-opacity:1; fill:none" points="1682.98,1423.18 1682.98,1404.28 "/>
<polyline clip-path="url(#clip380)" style="stroke:#000000; stroke-linecap:round; stroke-linejoin:round; stroke-width:4; stroke-opacity:1; fill:none" points="2049.64,1423.18 2049.64,1404.28 "/>
<path clip-path="url(#clip380)" d="M587.225 1466.95 Q590.581 1467.66 592.456 1469.93 Q594.354 1472.2 594.354 1475.53 Q594.354 1480.65 590.836 1483.45 Q587.317 1486.25 580.836 1486.25 Q578.66 1486.25 576.345 1485.81 Q574.054 1485.39 571.6 1484.54 L571.6 1480.02 Q573.544 1481.16 575.859 1481.74 Q578.174 1482.32 580.697 1482.32 Q585.095 1482.32 587.387 1480.58 Q589.702 1478.84 589.702 1475.53 Q589.702 1472.48 587.549 1470.77 Q585.419 1469.03 581.6 1469.03 L577.572 1469.03 L577.572 1465.19 L581.785 1465.19 Q585.234 1465.19 587.063 1463.82 Q588.892 1462.43 588.892 1459.84 Q588.892 1457.18 586.993 1455.77 Q585.118 1454.33 581.6 1454.33 Q579.679 1454.33 577.48 1454.75 Q575.28 1455.16 572.642 1456.04 L572.642 1451.88 Q575.304 1451.14 577.618 1450.77 Q579.956 1450.39 582.017 1450.39 Q587.341 1450.39 590.442 1452.83 Q593.544 1455.23 593.544 1459.35 Q593.544 1462.22 591.901 1464.21 Q590.257 1466.18 587.225 1466.95 Z" fill="#000000" fill-rule="nonzero" fill-opacity="1" /><path clip-path="url(#clip380)" d="M950.049 1466.44 Q946.901 1466.44 945.049 1468.59 Q943.22 1470.74 943.22 1474.49 Q943.22 1478.22 945.049 1480.39 Q946.901 1482.55 950.049 1482.55 Q953.197 1482.55 955.026 1480.39 Q956.878 1478.22 956.878 1474.49 Q956.878 1470.74 955.026 1468.59 Q953.197 1466.44 950.049 1466.44 M959.332 1451.78 L959.332 1456.04 Q957.572 1455.21 955.767 1454.77 Q953.984 1454.33 952.225 1454.33 Q947.595 1454.33 945.142 1457.45 Q942.711 1460.58 942.364 1466.9 Q943.73 1464.89 945.79 1463.82 Q947.85 1462.73 950.327 1462.73 Q955.535 1462.73 958.544 1465.9 Q961.577 1469.05 961.577 1474.49 Q961.577 1479.82 958.429 1483.03 Q955.281 1486.25 950.049 1486.25 Q944.054 1486.25 940.883 1481.67 Q937.711 1477.06 937.711 1468.33 Q937.711 1460.14 941.6 1455.28 Q945.489 1450.39 952.04 1450.39 Q953.799 1450.39 955.582 1450.74 Q957.387 1451.09 959.332 1451.78 Z" fill="#000000" fill-rule="nonzero" fill-opacity="1" /><path clip-path="url(#clip380)" d="M1306.61 1484.86 L1306.61 1480.6 Q1308.37 1481.44 1310.18 1481.88 Q1311.98 1482.32 1313.72 1482.32 Q1318.35 1482.32 1320.78 1479.21 Q1323.23 1476.09 1323.58 1469.75 Q1322.24 1471.74 1320.18 1472.8 Q1318.12 1473.87 1315.62 1473.87 Q1310.43 1473.87 1307.4 1470.74 Q1304.39 1467.59 1304.39 1462.15 Q1304.39 1456.83 1307.54 1453.61 Q1310.69 1450.39 1315.92 1450.39 Q1321.91 1450.39 1325.06 1455 Q1328.23 1459.58 1328.23 1468.33 Q1328.23 1476.51 1324.34 1481.39 Q1320.48 1486.25 1313.93 1486.25 Q1312.17 1486.25 1310.36 1485.9 Q1308.56 1485.56 1306.61 1484.86 M1315.92 1470.21 Q1319.07 1470.21 1320.89 1468.06 Q1322.75 1465.9 1322.75 1462.15 Q1322.75 1458.43 1320.89 1456.27 Q1319.07 1454.1 1315.92 1454.1 Q1312.77 1454.1 1310.92 1456.27 Q1309.09 1458.43 1309.09 1462.15 Q1309.09 1465.9 1310.92 1468.06 Q1312.77 1470.21 1315.92 1470.21 Z" fill="#000000" fill-rule="nonzero" fill-opacity="1" /><path clip-path="url(#clip380)" d="M1658.46 1481.64 L1666.1 1481.64 L1666.1 1455.28 L1657.79 1456.95 L1657.79 1452.69 L1666.06 1451.02 L1670.73 1451.02 L1670.73 1481.64 L1678.37 1481.64 L1678.37 1485.58 L1658.46 1485.58 L1658.46 1481.64 Z" fill="#000000" fill-rule="nonzero" fill-opacity="1" /><path clip-path="url(#clip380)" d="M1691.84 1481.64 L1708.16 1481.64 L1708.16 1485.58 L1686.22 1485.58 L1686.22 1481.64 Q1688.88 1478.89 1693.46 1474.26 Q1698.07 1469.61 1699.25 1468.27 Q1701.5 1465.74 1702.38 1464.01 Q1703.28 1462.25 1703.28 1460.56 Q1703.28 1457.8 1701.33 1456.07 Q1699.41 1454.33 1696.31 1454.33 Q1694.11 1454.33 1691.66 1455.09 Q1689.23 1455.86 1686.45 1457.41 L1686.45 1452.69 Q1689.27 1451.55 1691.73 1450.97 Q1694.18 1450.39 1696.22 1450.39 Q1701.59 1450.39 1704.78 1453.08 Q1707.98 1455.77 1707.98 1460.26 Q1707.98 1462.39 1707.17 1464.31 Q1706.38 1466.2 1704.27 1468.8 Q1703.7 1469.47 1700.59 1472.69 Q1697.49 1475.88 1691.84 1481.64 Z" fill="#000000" fill-rule="nonzero" fill-opacity="1" /><path clip-path="url(#clip380)" d="M2024.83 1481.64 L2032.47 1481.64 L2032.47 1455.28 L2024.16 1456.95 L2024.16 1452.69 L2032.42 1451.02 L2037.1 1451.02 L2037.1 1481.64 L2044.74 1481.64 L2044.74 1485.58 L2024.83 1485.58 L2024.83 1481.64 Z" fill="#000000" fill-rule="nonzero" fill-opacity="1" /><path clip-path="url(#clip380)" d="M2054.23 1451.02 L2072.58 1451.02 L2072.58 1454.96 L2058.51 1454.96 L2058.51 1463.43 Q2059.53 1463.08 2060.55 1462.92 Q2061.57 1462.73 2062.58 1462.73 Q2068.37 1462.73 2071.75 1465.9 Q2075.13 1469.08 2075.13 1474.49 Q2075.13 1480.07 2071.66 1483.17 Q2068.19 1486.25 2061.87 1486.25 Q2059.69 1486.25 2057.42 1485.88 Q2055.18 1485.51 2052.77 1484.77 L2052.77 1480.07 Q2054.85 1481.2 2057.08 1481.76 Q2059.3 1482.32 2061.77 1482.32 Q2065.78 1482.32 2068.12 1480.21 Q2070.45 1478.1 2070.45 1474.49 Q2070.45 1470.88 2068.12 1468.77 Q2065.78 1466.67 2061.77 1466.67 Q2059.9 1466.67 2058.02 1467.08 Q2056.17 1467.5 2054.23 1468.38 L2054.23 1451.02 Z" fill="#000000" fill-rule="nonzero" fill-opacity="1" /><path clip-path="url(#clip380)" d="M1187.82 1550.25 Q1187.82 1556.71 1190.46 1560.4 Q1193.13 1564.07 1197.78 1564.07 Q1202.43 1564.07 1205.1 1560.4 Q1207.78 1556.71 1207.78 1550.25 Q1207.78 1543.79 1205.1 1540.13 Q1202.43 1536.44 1197.78 1536.44 Q1193.13 1536.44 1190.46 1540.13 Q1187.82 1543.79 1187.82 1550.25 M1207.78 1562.7 Q1205.93 1565.88 1203.1 1567.44 Q1200.3 1568.97 1196.35 1568.97 Q1189.89 1568.97 1185.81 1563.81 Q1181.77 1558.65 1181.77 1550.25 Q1181.77 1541.85 1185.81 1536.69 Q1189.89 1531.54 1196.35 1531.54 Q1200.3 1531.54 1203.1 1533.1 Q1205.93 1534.62 1207.78 1537.81 L1207.78 1532.4 L1213.63 1532.4 L1213.63 1581.6 L1207.78 1581.6 L1207.78 1562.7 Z" fill="#000000" fill-rule="nonzero" fill-opacity="1" /><path clip-path="url(#clip380)" d="M1225.09 1553.98 L1225.09 1532.4 L1230.95 1532.4 L1230.95 1553.75 Q1230.95 1558.81 1232.92 1561.36 Q1234.89 1563.87 1238.84 1563.87 Q1243.58 1563.87 1246.32 1560.85 Q1249.09 1557.83 1249.09 1552.61 L1249.09 1532.4 L1254.95 1532.4 L1254.95 1568.04 L1249.09 1568.04 L1249.09 1562.57 Q1246.96 1565.82 1244.12 1567.41 Q1241.32 1568.97 1237.6 1568.97 Q1231.46 1568.97 1228.27 1565.15 Q1225.09 1561.33 1225.09 1553.98 M1239.83 1531.54 L1239.83 1531.54 Z" fill="#000000" fill-rule="nonzero" fill-opacity="1" /><path clip-path="url(#clip380)" d="M1283.21 1550.12 Q1276.11 1550.12 1273.37 1551.75 Q1270.64 1553.37 1270.64 1557.29 Q1270.64 1560.4 1272.67 1562.25 Q1274.74 1564.07 1278.28 1564.07 Q1283.15 1564.07 1286.07 1560.63 Q1289.03 1557.16 1289.03 1551.43 L1289.03 1550.12 L1283.21 1550.12 M1294.89 1547.71 L1294.89 1568.04 L1289.03 1568.04 L1289.03 1562.63 Q1287.03 1565.88 1284.04 1567.44 Q1281.04 1568.97 1276.72 1568.97 Q1271.24 1568.97 1268 1565.91 Q1264.78 1562.82 1264.78 1557.67 Q1264.78 1551.65 1268.79 1548.6 Q1272.83 1545.54 1280.82 1545.54 L1289.03 1545.54 L1289.03 1544.97 Q1289.03 1540.93 1286.36 1538.73 Q1283.72 1536.5 1278.91 1536.5 Q1275.86 1536.5 1272.96 1537.23 Q1270.06 1537.97 1267.39 1539.43 L1267.39 1534.02 Q1270.61 1532.78 1273.63 1532.17 Q1276.65 1531.54 1279.52 1531.54 Q1287.25 1531.54 1291.07 1535.55 Q1294.89 1539.56 1294.89 1547.71 Z" fill="#000000" fill-rule="nonzero" fill-opacity="1" /><path clip-path="url(#clip380)" d="M1327.61 1537.87 Q1326.62 1537.3 1325.45 1537.04 Q1324.3 1536.76 1322.9 1536.76 Q1317.93 1536.76 1315.26 1540 Q1312.62 1543.22 1312.62 1549.27 L1312.62 1568.04 L1306.73 1568.04 L1306.73 1532.4 L1312.62 1532.4 L1312.62 1537.93 Q1314.46 1534.69 1317.42 1533.13 Q1320.38 1531.54 1324.62 1531.54 Q1325.22 1531.54 1325.95 1531.63 Q1326.69 1531.7 1327.58 1531.85 L1327.61 1537.87 Z" fill="#000000" fill-rule="nonzero" fill-opacity="1" /><path clip-path="url(#clip380)" d="M1339.55 1522.27 L1339.55 1532.4 L1351.61 1532.4 L1351.61 1536.95 L1339.55 1536.95 L1339.55 1556.3 Q1339.55 1560.66 1340.72 1561.9 Q1341.93 1563.14 1345.59 1563.14 L1351.61 1563.14 L1351.61 1568.04 L1345.59 1568.04 Q1338.81 1568.04 1336.24 1565.53 Q1333.66 1562.98 1333.66 1556.3 L1333.66 1536.95 L1329.36 1536.95 L1329.36 1532.4 L1333.66 1532.4 L1333.66 1522.27 L1339.55 1522.27 Z" fill="#000000" fill-rule="nonzero" fill-opacity="1" /><path clip-path="url(#clip380)" d="M1389.8 1548.76 L1389.8 1551.62 L1362.88 1551.62 Q1363.26 1557.67 1366.5 1560.85 Q1369.78 1564 1375.61 1564 Q1378.98 1564 1382.13 1563.17 Q1385.32 1562.35 1388.43 1560.69 L1388.43 1566.23 Q1385.28 1567.57 1381.97 1568.27 Q1378.66 1568.97 1375.26 1568.97 Q1366.73 1568.97 1361.73 1564 Q1356.76 1559.04 1356.76 1550.57 Q1356.76 1541.82 1361.48 1536.69 Q1366.22 1531.54 1374.24 1531.54 Q1381.43 1531.54 1385.6 1536.18 Q1389.8 1540.8 1389.8 1548.76 M1383.95 1547.04 Q1383.88 1542.23 1381.24 1539.37 Q1378.63 1536.5 1374.3 1536.5 Q1369.4 1536.5 1366.44 1539.27 Q1363.51 1542.04 1363.07 1547.07 L1383.95 1547.04 Z" fill="#000000" fill-rule="nonzero" fill-opacity="1" /><path clip-path="url(#clip380)" d="M1420.07 1537.87 Q1419.09 1537.3 1417.91 1537.04 Q1416.76 1536.76 1415.36 1536.76 Q1410.4 1536.76 1407.72 1540 Q1405.08 1543.22 1405.08 1549.27 L1405.08 1568.04 L1399.19 1568.04 L1399.19 1532.4 L1405.08 1532.4 L1405.08 1537.93 Q1406.93 1534.69 1409.89 1533.13 Q1412.85 1531.54 1417.08 1531.54 Q1417.68 1531.54 1418.42 1531.63 Q1419.15 1531.7 1420.04 1531.85 L1420.07 1537.87 Z" fill="#000000" fill-rule="nonzero" fill-opacity="1" /><path clip-path="url(#clip380)" d="M1448.94 1533.45 L1448.94 1538.98 Q1446.46 1537.71 1443.78 1537.07 Q1441.11 1536.44 1438.25 1536.44 Q1433.89 1536.44 1431.69 1537.77 Q1429.53 1539.11 1429.53 1541.79 Q1429.53 1543.82 1431.08 1545 Q1432.64 1546.15 1437.35 1547.2 L1439.36 1547.64 Q1445.6 1548.98 1448.21 1551.43 Q1450.85 1553.85 1450.85 1558.21 Q1450.85 1563.17 1446.9 1566.07 Q1442.99 1568.97 1436.11 1568.97 Q1433.25 1568.97 1430.13 1568.39 Q1427.04 1567.85 1423.6 1566.74 L1423.6 1560.69 Q1426.85 1562.38 1430 1563.24 Q1433.15 1564.07 1436.24 1564.07 Q1440.38 1564.07 1442.61 1562.66 Q1444.83 1561.23 1444.83 1558.65 Q1444.83 1556.27 1443.21 1554.99 Q1441.62 1553.72 1436.18 1552.54 L1434.14 1552.07 Q1428.7 1550.92 1426.28 1548.56 Q1423.86 1546.18 1423.86 1542.04 Q1423.86 1537.01 1427.42 1534.27 Q1430.99 1531.54 1437.55 1531.54 Q1440.79 1531.54 1443.66 1532.01 Q1446.52 1532.49 1448.94 1533.45 Z" fill="#000000" fill-rule="nonzero" fill-opacity="1" /><polyline clip-path="url(#clip380)" style="stroke:#000000; stroke-linecap:round; stroke-linejoin:round; stroke-width:4; stroke-opacity:1; fill:none" points="279.866,1423.18 279.866,47.2441 "/>
<polyline clip-path="url(#clip380)" style="stroke:#000000; stroke-linecap:round; stroke-linejoin:round; stroke-width:4; stroke-opacity:1; fill:none" points="279.866,1313.79 298.764,1313.79 "/>
<polyline clip-path="url(#clip380)" style="stroke:#000000; stroke-linecap:round; stroke-linejoin:round; stroke-width:4; stroke-opacity:1; fill:none" points="279.866,1130.95 298.764,1130.95 "/>
<polyline clip-path="url(#clip380)" style="stroke:#000000; stroke-linecap:round; stroke-linejoin:round; stroke-width:4; stroke-opacity:1; fill:none" points="279.866,948.096 298.764,948.096 "/>
<polyline clip-path="url(#clip380)" style="stroke:#000000; stroke-linecap:round; stroke-linejoin:round; stroke-width:4; stroke-opacity:1; fill:none" points="279.866,765.247 298.764,765.247 "/>
<polyline clip-path="url(#clip380)" style="stroke:#000000; stroke-linecap:round; stroke-linejoin:round; stroke-width:4; stroke-opacity:1; fill:none" points="279.866,582.397 298.764,582.397 "/>
<polyline clip-path="url(#clip380)" style="stroke:#000000; stroke-linecap:round; stroke-linejoin:round; stroke-width:4; stroke-opacity:1; fill:none" points="279.866,399.548 298.764,399.548 "/>
<polyline clip-path="url(#clip380)" style="stroke:#000000; stroke-linecap:round; stroke-linejoin:round; stroke-width:4; stroke-opacity:1; fill:none" points="279.866,216.699 298.764,216.699 "/>
<path clip-path="url(#clip380)" d="M126.205 1299.59 Q122.593 1299.59 120.765 1303.16 Q118.959 1306.7 118.959 1313.83 Q118.959 1320.94 120.765 1324.5 Q122.593 1328.04 126.205 1328.04 Q129.839 1328.04 131.644 1324.5 Q133.473 1320.94 133.473 1313.83 Q133.473 1306.7 131.644 1303.16 Q129.839 1299.59 126.205 1299.59 M126.205 1295.89 Q132.015 1295.89 135.07 1300.5 Q138.149 1305.08 138.149 1313.83 Q138.149 1322.56 135.07 1327.16 Q132.015 1331.75 126.205 1331.75 Q120.394 1331.75 117.316 1327.16 Q114.26 1322.56 114.26 1313.83 Q114.26 1305.08 117.316 1300.5 Q120.394 1295.89 126.205 1295.89 Z" fill="#000000" fill-rule="nonzero" fill-opacity="1" /><path clip-path="url(#clip380)" d="M146.366 1325.19 L151.251 1325.19 L151.251 1331.07 L146.366 1331.07 L146.366 1325.19 Z" fill="#000000" fill-rule="nonzero" fill-opacity="1" /><path clip-path="url(#clip380)" d="M161.575 1330.36 L161.575 1326.1 Q163.334 1326.93 165.14 1327.37 Q166.945 1327.81 168.681 1327.81 Q173.311 1327.81 175.741 1324.71 Q178.195 1321.58 178.542 1315.24 Q177.2 1317.23 175.139 1318.3 Q173.079 1319.36 170.579 1319.36 Q165.394 1319.36 162.362 1316.24 Q159.353 1313.09 159.353 1307.65 Q159.353 1302.32 162.501 1299.11 Q165.649 1295.89 170.88 1295.89 Q176.876 1295.89 180.024 1300.5 Q183.195 1305.08 183.195 1313.83 Q183.195 1322 179.306 1326.88 Q175.44 1331.75 168.889 1331.75 Q167.13 1331.75 165.325 1331.4 Q163.519 1331.05 161.575 1330.36 M170.88 1315.7 Q174.028 1315.7 175.857 1313.55 Q177.709 1311.4 177.709 1307.65 Q177.709 1303.92 175.857 1301.77 Q174.028 1299.59 170.88 1299.59 Q167.732 1299.59 165.88 1301.77 Q164.052 1303.92 164.052 1307.65 Q164.052 1311.4 165.88 1313.55 Q167.732 1315.7 170.88 1315.7 Z" fill="#000000" fill-rule="nonzero" fill-opacity="1" /><path clip-path="url(#clip380)" d="M191.737 1330.36 L191.737 1326.1 Q193.496 1326.93 195.301 1327.37 Q197.107 1327.81 198.843 1327.81 Q203.473 1327.81 205.903 1324.71 Q208.357 1321.58 208.704 1315.24 Q207.362 1317.23 205.301 1318.3 Q203.241 1319.36 200.741 1319.36 Q195.556 1319.36 192.524 1316.24 Q189.514 1313.09 189.514 1307.65 Q189.514 1302.32 192.663 1299.11 Q195.811 1295.89 201.042 1295.89 Q207.037 1295.89 210.186 1300.5 Q213.357 1305.08 213.357 1313.83 Q213.357 1322 209.468 1326.88 Q205.602 1331.75 199.051 1331.75 Q197.292 1331.75 195.487 1331.4 Q193.681 1331.05 191.737 1330.36 M201.042 1315.7 Q204.19 1315.7 206.019 1313.55 Q207.871 1311.4 207.871 1307.65 Q207.871 1303.92 206.019 1301.77 Q204.19 1299.59 201.042 1299.59 Q197.894 1299.59 196.042 1301.77 Q194.213 1303.92 194.213 1307.65 Q194.213 1311.4 196.042 1313.55 Q197.894 1315.7 201.042 1315.7 Z" fill="#000000" fill-rule="nonzero" fill-opacity="1" /><path clip-path="url(#clip380)" d="M232.338 1311.93 Q229.19 1311.93 227.338 1314.08 Q225.51 1316.24 225.51 1319.99 Q225.51 1323.71 227.338 1325.89 Q229.19 1328.04 232.338 1328.04 Q235.486 1328.04 237.315 1325.89 Q239.167 1323.71 239.167 1319.99 Q239.167 1316.24 237.315 1314.08 Q235.486 1311.93 232.338 1311.93 M241.621 1297.28 L241.621 1301.54 Q239.861 1300.7 238.056 1300.26 Q236.273 1299.82 234.514 1299.82 Q229.885 1299.82 227.431 1302.95 Q225 1306.07 224.653 1312.39 Q226.019 1310.38 228.079 1309.32 Q230.139 1308.23 232.616 1308.23 Q237.824 1308.23 240.834 1311.4 Q243.866 1314.55 243.866 1319.99 Q243.866 1325.31 240.718 1328.53 Q237.57 1331.75 232.338 1331.75 Q226.343 1331.75 223.172 1327.16 Q220 1322.56 220 1313.83 Q220 1305.63 223.889 1300.77 Q227.778 1295.89 234.329 1295.89 Q236.088 1295.89 237.871 1296.24 Q239.676 1296.58 241.621 1297.28 Z" fill="#000000" fill-rule="nonzero" fill-opacity="1" /><path clip-path="url(#clip380)" d="M126.459 1116.74 Q122.848 1116.74 121.019 1120.31 Q119.214 1123.85 119.214 1130.98 Q119.214 1138.09 121.019 1141.65 Q122.848 1145.19 126.459 1145.19 Q130.093 1145.19 131.899 1141.65 Q133.728 1138.09 133.728 1130.98 Q133.728 1123.85 131.899 1120.31 Q130.093 1116.74 126.459 1116.74 M126.459 1113.04 Q132.269 1113.04 135.325 1117.65 Q138.404 1122.23 138.404 1130.98 Q138.404 1139.71 135.325 1144.31 Q132.269 1148.9 126.459 1148.9 Q120.649 1148.9 117.57 1144.31 Q114.515 1139.71 114.515 1130.98 Q114.515 1122.23 117.57 1117.65 Q120.649 1113.04 126.459 1113.04 Z" fill="#000000" fill-rule="nonzero" fill-opacity="1" /><path clip-path="url(#clip380)" d="M146.621 1142.35 L151.505 1142.35 L151.505 1148.23 L146.621 1148.23 L146.621 1142.35 Z" fill="#000000" fill-rule="nonzero" fill-opacity="1" /><path clip-path="url(#clip380)" d="M161.829 1147.51 L161.829 1143.25 Q163.589 1144.08 165.394 1144.52 Q167.2 1144.96 168.936 1144.96 Q173.565 1144.96 175.996 1141.86 Q178.45 1138.73 178.797 1132.39 Q177.454 1134.38 175.394 1135.45 Q173.334 1136.51 170.834 1136.51 Q165.649 1136.51 162.616 1133.39 Q159.607 1130.24 159.607 1124.8 Q159.607 1119.48 162.755 1116.26 Q165.903 1113.04 171.135 1113.04 Q177.13 1113.04 180.278 1117.65 Q183.45 1122.23 183.45 1130.98 Q183.45 1139.15 179.561 1144.04 Q175.695 1148.9 169.144 1148.9 Q167.385 1148.9 165.579 1148.55 Q163.774 1148.2 161.829 1147.51 M171.135 1132.85 Q174.283 1132.85 176.112 1130.7 Q177.964 1128.55 177.964 1124.8 Q177.964 1121.07 176.112 1118.92 Q174.283 1116.74 171.135 1116.74 Q167.987 1116.74 166.135 1118.92 Q164.306 1121.07 164.306 1124.8 Q164.306 1128.55 166.135 1130.7 Q167.987 1132.85 171.135 1132.85 Z" fill="#000000" fill-rule="nonzero" fill-opacity="1" /><path clip-path="url(#clip380)" d="M191.991 1147.51 L191.991 1143.25 Q193.75 1144.08 195.556 1144.52 Q197.362 1144.96 199.098 1144.96 Q203.727 1144.96 206.158 1141.86 Q208.612 1138.73 208.959 1132.39 Q207.616 1134.38 205.556 1135.45 Q203.496 1136.51 200.996 1136.51 Q195.811 1136.51 192.778 1133.39 Q189.769 1130.24 189.769 1124.8 Q189.769 1119.48 192.917 1116.26 Q196.065 1113.04 201.297 1113.04 Q207.292 1113.04 210.44 1117.65 Q213.611 1122.23 213.611 1130.98 Q213.611 1139.15 209.723 1144.04 Q205.857 1148.9 199.306 1148.9 Q197.547 1148.9 195.741 1148.55 Q193.936 1148.2 191.991 1147.51 M201.297 1132.85 Q204.445 1132.85 206.274 1130.7 Q208.125 1128.55 208.125 1124.8 Q208.125 1121.07 206.274 1118.92 Q204.445 1116.74 201.297 1116.74 Q198.149 1116.74 196.297 1118.92 Q194.468 1121.07 194.468 1124.8 Q194.468 1128.55 196.297 1130.7 Q198.149 1132.85 201.297 1132.85 Z" fill="#000000" fill-rule="nonzero" fill-opacity="1" /><path clip-path="url(#clip380)" d="M232.014 1131.81 Q228.681 1131.81 226.76 1133.6 Q224.861 1135.38 224.861 1138.5 Q224.861 1141.63 226.76 1143.41 Q228.681 1145.19 232.014 1145.19 Q235.347 1145.19 237.269 1143.41 Q239.19 1141.6 239.19 1138.5 Q239.19 1135.38 237.269 1133.6 Q235.371 1131.81 232.014 1131.81 M227.338 1129.82 Q224.329 1129.08 222.639 1127.02 Q220.973 1124.96 220.973 1122 Q220.973 1117.85 223.912 1115.45 Q226.875 1113.04 232.014 1113.04 Q237.176 1113.04 240.116 1115.45 Q243.056 1117.85 243.056 1122 Q243.056 1124.96 241.366 1127.02 Q239.699 1129.08 236.713 1129.82 Q240.093 1130.61 241.968 1132.9 Q243.866 1135.19 243.866 1138.5 Q243.866 1143.53 240.787 1146.21 Q237.732 1148.9 232.014 1148.9 Q226.297 1148.9 223.218 1146.21 Q220.162 1143.53 220.162 1138.5 Q220.162 1135.19 222.061 1132.9 Q223.959 1130.61 227.338 1129.82 M225.625 1122.44 Q225.625 1125.12 227.292 1126.63 Q228.982 1128.13 232.014 1128.13 Q235.023 1128.13 236.713 1126.63 Q238.426 1125.12 238.426 1122.44 Q238.426 1119.75 236.713 1118.25 Q235.023 1116.74 232.014 1116.74 Q228.982 1116.74 227.292 1118.25 Q225.625 1119.75 225.625 1122.44 Z" fill="#000000" fill-rule="nonzero" fill-opacity="1" /><path clip-path="url(#clip380)" d="M117.177 961.441 L124.816 961.441 L124.816 935.075 L116.506 936.742 L116.506 932.482 L124.769 930.816 L129.445 930.816 L129.445 961.441 L137.084 961.441 L137.084 965.376 L117.177 965.376 L117.177 961.441 Z" fill="#000000" fill-rule="nonzero" fill-opacity="1" /><path clip-path="url(#clip380)" d="M146.529 959.496 L151.413 959.496 L151.413 965.376 L146.529 965.376 L146.529 959.496 Z" fill="#000000" fill-rule="nonzero" fill-opacity="1" /><path clip-path="url(#clip380)" d="M171.598 933.894 Q167.987 933.894 166.158 937.459 Q164.352 941.001 164.352 948.131 Q164.352 955.237 166.158 958.802 Q167.987 962.343 171.598 962.343 Q175.232 962.343 177.038 958.802 Q178.866 955.237 178.866 948.131 Q178.866 941.001 177.038 937.459 Q175.232 933.894 171.598 933.894 M171.598 930.191 Q177.408 930.191 180.464 934.797 Q183.542 939.381 183.542 948.131 Q183.542 956.857 180.464 961.464 Q177.408 966.047 171.598 966.047 Q165.788 966.047 162.709 961.464 Q159.653 956.857 159.653 948.131 Q159.653 939.381 162.709 934.797 Q165.788 930.191 171.598 930.191 Z" fill="#000000" fill-rule="nonzero" fill-opacity="1" /><path clip-path="url(#clip380)" d="M201.76 933.894 Q198.149 933.894 196.32 937.459 Q194.514 941.001 194.514 948.131 Q194.514 955.237 196.32 958.802 Q198.149 962.343 201.76 962.343 Q205.394 962.343 207.199 958.802 Q209.028 955.237 209.028 948.131 Q209.028 941.001 207.199 937.459 Q205.394 933.894 201.76 933.894 M201.76 930.191 Q207.57 930.191 210.625 934.797 Q213.704 939.381 213.704 948.131 Q213.704 956.857 210.625 961.464 Q207.57 966.047 201.76 966.047 Q195.95 966.047 192.871 961.464 Q189.815 956.857 189.815 948.131 Q189.815 939.381 192.871 934.797 Q195.95 930.191 201.76 930.191 Z" fill="#000000" fill-rule="nonzero" fill-opacity="1" /><path clip-path="url(#clip380)" d="M231.922 933.894 Q228.31 933.894 226.482 937.459 Q224.676 941.001 224.676 948.131 Q224.676 955.237 226.482 958.802 Q228.31 962.343 231.922 962.343 Q235.556 962.343 237.361 958.802 Q239.19 955.237 239.19 948.131 Q239.19 941.001 237.361 937.459 Q235.556 933.894 231.922 933.894 M231.922 930.191 Q237.732 930.191 240.787 934.797 Q243.866 939.381 243.866 948.131 Q243.866 956.857 240.787 961.464 Q237.732 966.047 231.922 966.047 Q226.111 966.047 223.033 961.464 Q219.977 956.857 219.977 948.131 Q219.977 939.381 223.033 934.797 Q226.111 930.191 231.922 930.191 Z" fill="#000000" fill-rule="nonzero" fill-opacity="1" /><path clip-path="url(#clip380)" d="M118.774 778.591 L126.413 778.591 L126.413 752.226 L118.103 753.892 L118.103 749.633 L126.367 747.967 L131.042 747.967 L131.042 778.591 L138.681 778.591 L138.681 782.527 L118.774 782.527 L118.774 778.591 Z" fill="#000000" fill-rule="nonzero" fill-opacity="1" /><path clip-path="url(#clip380)" d="M148.126 776.647 L153.01 776.647 L153.01 782.527 L148.126 782.527 L148.126 776.647 Z" fill="#000000" fill-rule="nonzero" fill-opacity="1" /><path clip-path="url(#clip380)" d="M173.195 751.045 Q169.584 751.045 167.755 754.61 Q165.95 758.152 165.95 765.281 Q165.95 772.388 167.755 775.953 Q169.584 779.494 173.195 779.494 Q176.829 779.494 178.635 775.953 Q180.464 772.388 180.464 765.281 Q180.464 758.152 178.635 754.61 Q176.829 751.045 173.195 751.045 M173.195 747.342 Q179.005 747.342 182.061 751.948 Q185.139 756.531 185.139 765.281 Q185.139 774.008 182.061 778.615 Q179.005 783.198 173.195 783.198 Q167.385 783.198 164.306 778.615 Q161.251 774.008 161.251 765.281 Q161.251 756.531 164.306 751.948 Q167.385 747.342 173.195 747.342 Z" fill="#000000" fill-rule="nonzero" fill-opacity="1" /><path clip-path="url(#clip380)" d="M203.357 751.045 Q199.746 751.045 197.917 754.61 Q196.112 758.152 196.112 765.281 Q196.112 772.388 197.917 775.953 Q199.746 779.494 203.357 779.494 Q206.991 779.494 208.797 775.953 Q210.625 772.388 210.625 765.281 Q210.625 758.152 208.797 754.61 Q206.991 751.045 203.357 751.045 M203.357 747.342 Q209.167 747.342 212.223 751.948 Q215.301 756.531 215.301 765.281 Q215.301 774.008 212.223 778.615 Q209.167 783.198 203.357 783.198 Q197.547 783.198 194.468 778.615 Q191.413 774.008 191.413 765.281 Q191.413 756.531 194.468 751.948 Q197.547 747.342 203.357 747.342 Z" fill="#000000" fill-rule="nonzero" fill-opacity="1" /><path clip-path="url(#clip380)" d="M227.547 778.591 L243.866 778.591 L243.866 782.527 L221.922 782.527 L221.922 778.591 Q224.584 775.837 229.167 771.207 Q233.773 766.554 234.954 765.212 Q237.199 762.689 238.079 760.953 Q238.982 759.193 238.982 757.504 Q238.982 754.749 237.037 753.013 Q235.116 751.277 232.014 751.277 Q229.815 751.277 227.361 752.041 Q224.931 752.805 222.153 754.355 L222.153 749.633 Q224.977 748.499 227.431 747.92 Q229.885 747.342 231.922 747.342 Q237.292 747.342 240.486 750.027 Q243.681 752.712 243.681 757.203 Q243.681 759.332 242.871 761.254 Q242.084 763.152 239.977 765.744 Q239.398 766.416 236.297 769.633 Q233.195 772.828 227.547 778.591 Z" fill="#000000" fill-rule="nonzero" fill-opacity="1" /><path clip-path="url(#clip380)" d="M116.691 595.742 L124.33 595.742 L124.33 569.377 L116.019 571.043 L116.019 566.784 L124.283 565.117 L128.959 565.117 L128.959 595.742 L136.598 595.742 L136.598 599.677 L116.691 599.677 L116.691 595.742 Z" fill="#000000" fill-rule="nonzero" fill-opacity="1" /><path clip-path="url(#clip380)" d="M146.042 593.798 L150.927 593.798 L150.927 599.677 L146.042 599.677 L146.042 593.798 Z" fill="#000000" fill-rule="nonzero" fill-opacity="1" /><path clip-path="url(#clip380)" d="M171.112 568.196 Q167.501 568.196 165.672 571.761 Q163.866 575.303 163.866 582.432 Q163.866 589.539 165.672 593.103 Q167.501 596.645 171.112 596.645 Q174.746 596.645 176.551 593.103 Q178.38 589.539 178.38 582.432 Q178.38 575.303 176.551 571.761 Q174.746 568.196 171.112 568.196 M171.112 564.492 Q176.922 564.492 179.977 569.099 Q183.056 573.682 183.056 582.432 Q183.056 591.159 179.977 595.765 Q176.922 600.349 171.112 600.349 Q165.302 600.349 162.223 595.765 Q159.167 591.159 159.167 582.432 Q159.167 573.682 162.223 569.099 Q165.302 564.492 171.112 564.492 Z" fill="#000000" fill-rule="nonzero" fill-opacity="1" /><path clip-path="url(#clip380)" d="M201.274 568.196 Q197.662 568.196 195.834 571.761 Q194.028 575.303 194.028 582.432 Q194.028 589.539 195.834 593.103 Q197.662 596.645 201.274 596.645 Q204.908 596.645 206.713 593.103 Q208.542 589.539 208.542 582.432 Q208.542 575.303 206.713 571.761 Q204.908 568.196 201.274 568.196 M201.274 564.492 Q207.084 564.492 210.139 569.099 Q213.218 573.682 213.218 582.432 Q213.218 591.159 210.139 595.765 Q207.084 600.349 201.274 600.349 Q195.463 600.349 192.385 595.765 Q189.329 591.159 189.329 582.432 Q189.329 573.682 192.385 569.099 Q195.463 564.492 201.274 564.492 Z" fill="#000000" fill-rule="nonzero" fill-opacity="1" /><path clip-path="url(#clip380)" d="M234.283 569.191 L222.477 587.64 L234.283 587.64 L234.283 569.191 M233.056 565.117 L238.935 565.117 L238.935 587.64 L243.866 587.64 L243.866 591.529 L238.935 591.529 L238.935 599.677 L234.283 599.677 L234.283 591.529 L218.681 591.529 L218.681 587.015 L233.056 565.117 Z" fill="#000000" fill-rule="nonzero" fill-opacity="1" /><path clip-path="url(#clip380)" d="M117.015 412.893 L124.654 412.893 L124.654 386.527 L116.343 388.194 L116.343 383.935 L124.607 382.268 L129.283 382.268 L129.283 412.893 L136.922 412.893 L136.922 416.828 L117.015 416.828 L117.015 412.893 Z" fill="#000000" fill-rule="nonzero" fill-opacity="1" /><path clip-path="url(#clip380)" d="M146.366 410.949 L151.251 410.949 L151.251 416.828 L146.366 416.828 L146.366 410.949 Z" fill="#000000" fill-rule="nonzero" fill-opacity="1" /><path clip-path="url(#clip380)" d="M171.436 385.347 Q167.825 385.347 165.996 388.912 Q164.19 392.453 164.19 399.583 Q164.19 406.689 165.996 410.254 Q167.825 413.796 171.436 413.796 Q175.07 413.796 176.876 410.254 Q178.704 406.689 178.704 399.583 Q178.704 392.453 176.876 388.912 Q175.07 385.347 171.436 385.347 M171.436 381.643 Q177.246 381.643 180.301 386.25 Q183.38 390.833 183.38 399.583 Q183.38 408.31 180.301 412.916 Q177.246 417.499 171.436 417.499 Q165.626 417.499 162.547 412.916 Q159.491 408.31 159.491 399.583 Q159.491 390.833 162.547 386.25 Q165.626 381.643 171.436 381.643 Z" fill="#000000" fill-rule="nonzero" fill-opacity="1" /><path clip-path="url(#clip380)" d="M201.598 385.347 Q197.987 385.347 196.158 388.912 Q194.352 392.453 194.352 399.583 Q194.352 406.689 196.158 410.254 Q197.987 413.796 201.598 413.796 Q205.232 413.796 207.037 410.254 Q208.866 406.689 208.866 399.583 Q208.866 392.453 207.037 388.912 Q205.232 385.347 201.598 385.347 M201.598 381.643 Q207.408 381.643 210.463 386.25 Q213.542 390.833 213.542 399.583 Q213.542 408.31 210.463 412.916 Q207.408 417.499 201.598 417.499 Q195.787 417.499 192.709 412.916 Q189.653 408.31 189.653 399.583 Q189.653 390.833 192.709 386.25 Q195.787 381.643 201.598 381.643 Z" fill="#000000" fill-rule="nonzero" fill-opacity="1" /><path clip-path="url(#clip380)" d="M232.338 397.685 Q229.19 397.685 227.338 399.838 Q225.51 401.99 225.51 405.74 Q225.51 409.467 227.338 411.643 Q229.19 413.796 232.338 413.796 Q235.486 413.796 237.315 411.643 Q239.167 409.467 239.167 405.74 Q239.167 401.99 237.315 399.838 Q235.486 397.685 232.338 397.685 M241.621 383.032 L241.621 387.291 Q239.861 386.458 238.056 386.018 Q236.273 385.578 234.514 385.578 Q229.885 385.578 227.431 388.703 Q225 391.828 224.653 398.148 Q226.019 396.134 228.079 395.069 Q230.139 393.981 232.616 393.981 Q237.824 393.981 240.834 397.152 Q243.866 400.301 243.866 405.74 Q243.866 411.064 240.718 414.282 Q237.57 417.499 232.338 417.499 Q226.343 417.499 223.172 412.916 Q220 408.31 220 399.583 Q220 391.389 223.889 386.527 Q227.778 381.643 234.329 381.643 Q236.088 381.643 237.871 381.99 Q239.676 382.338 241.621 383.032 Z" fill="#000000" fill-rule="nonzero" fill-opacity="1" /><path clip-path="url(#clip380)" d="M117.269 230.044 L124.908 230.044 L124.908 203.678 L116.598 205.345 L116.598 201.086 L124.862 199.419 L129.538 199.419 L129.538 230.044 L137.177 230.044 L137.177 233.979 L117.269 233.979 L117.269 230.044 Z" fill="#000000" fill-rule="nonzero" fill-opacity="1" /><path clip-path="url(#clip380)" d="M146.621 228.099 L151.505 228.099 L151.505 233.979 L146.621 233.979 L146.621 228.099 Z" fill="#000000" fill-rule="nonzero" fill-opacity="1" /><path clip-path="url(#clip380)" d="M171.69 202.498 Q168.079 202.498 166.251 206.062 Q164.445 209.604 164.445 216.734 Q164.445 223.84 166.251 227.405 Q168.079 230.947 171.69 230.947 Q175.325 230.947 177.13 227.405 Q178.959 223.84 178.959 216.734 Q178.959 209.604 177.13 206.062 Q175.325 202.498 171.69 202.498 M171.69 198.794 Q177.501 198.794 180.556 203.4 Q183.635 207.984 183.635 216.734 Q183.635 225.461 180.556 230.067 Q177.501 234.65 171.69 234.65 Q165.88 234.65 162.802 230.067 Q159.746 225.461 159.746 216.734 Q159.746 207.984 162.802 203.4 Q165.88 198.794 171.69 198.794 Z" fill="#000000" fill-rule="nonzero" fill-opacity="1" /><path clip-path="url(#clip380)" d="M201.852 202.498 Q198.241 202.498 196.412 206.062 Q194.607 209.604 194.607 216.734 Q194.607 223.84 196.412 227.405 Q198.241 230.947 201.852 230.947 Q205.487 230.947 207.292 227.405 Q209.121 223.84 209.121 216.734 Q209.121 209.604 207.292 206.062 Q205.487 202.498 201.852 202.498 M201.852 198.794 Q207.662 198.794 210.718 203.4 Q213.797 207.984 213.797 216.734 Q213.797 225.461 210.718 230.067 Q207.662 234.65 201.852 234.65 Q196.042 234.65 192.963 230.067 Q189.908 225.461 189.908 216.734 Q189.908 207.984 192.963 203.4 Q196.042 198.794 201.852 198.794 Z" fill="#000000" fill-rule="nonzero" fill-opacity="1" /><path clip-path="url(#clip380)" d="M232.014 217.567 Q228.681 217.567 226.76 219.349 Q224.861 221.132 224.861 224.257 Q224.861 227.382 226.76 229.164 Q228.681 230.947 232.014 230.947 Q235.347 230.947 237.269 229.164 Q239.19 227.359 239.19 224.257 Q239.19 221.132 237.269 219.349 Q235.371 217.567 232.014 217.567 M227.338 215.576 Q224.329 214.836 222.639 212.775 Q220.973 210.715 220.973 207.752 Q220.973 203.609 223.912 201.201 Q226.875 198.794 232.014 198.794 Q237.176 198.794 240.116 201.201 Q243.056 203.609 243.056 207.752 Q243.056 210.715 241.366 212.775 Q239.699 214.836 236.713 215.576 Q240.093 216.363 241.968 218.655 Q243.866 220.947 243.866 224.257 Q243.866 229.28 240.787 231.965 Q237.732 234.65 232.014 234.65 Q226.297 234.65 223.218 231.965 Q220.162 229.28 220.162 224.257 Q220.162 220.947 222.061 218.655 Q223.959 216.363 227.338 215.576 M225.625 208.192 Q225.625 210.877 227.292 212.382 Q228.982 213.887 232.014 213.887 Q235.023 213.887 236.713 212.382 Q238.426 210.877 238.426 208.192 Q238.426 205.507 236.713 204.002 Q235.023 202.498 232.014 202.498 Q228.982 202.498 227.292 204.002 Q225.625 205.507 225.625 208.192 Z" fill="#000000" fill-rule="nonzero" fill-opacity="1" /><path clip-path="url(#clip380)" d="M57.2247 896.821 L44.4614 896.821 L44.4614 907.325 L39.1779 907.325 L39.1779 890.456 L59.58 890.456 Q62.2218 894.18 63.5904 898.667 Q64.9272 903.155 64.9272 908.248 Q64.9272 919.388 58.4342 925.69 Q51.9093 931.96 40.2919 931.96 Q28.6427 931.96 22.1496 925.69 Q15.6248 919.388 15.6248 908.248 Q15.6248 903.601 16.7706 899.431 Q17.9164 895.23 20.1444 891.697 L26.9876 891.697 Q23.9639 895.262 22.4361 899.272 Q20.9083 903.283 20.9083 907.707 Q20.9083 916.428 25.7781 920.82 Q30.6479 925.181 40.2919 925.181 Q49.9041 925.181 54.7739 920.82 Q59.6436 916.428 59.6436 907.707 Q59.6436 904.301 59.0707 901.627 Q58.466 898.954 57.2247 896.821 Z" fill="#000000" fill-rule="nonzero" fill-opacity="1" /><path clip-path="url(#clip380)" d="M21.7677 872.282 L58.7206 872.282 L58.7206 864.515 Q58.7206 854.68 54.2646 850.129 Q49.8086 845.546 40.1964 845.546 Q30.6479 845.546 26.2237 850.129 Q21.7677 854.68 21.7677 864.515 L21.7677 872.282 M16.4842 878.711 L16.4842 865.502 Q16.4842 851.688 22.2451 845.227 Q27.9743 838.766 40.1964 838.766 Q52.4822 838.766 58.2432 845.259 Q64.0042 851.752 64.0042 865.502 L64.0042 878.711 L16.4842 878.711 Z" fill="#000000" fill-rule="nonzero" fill-opacity="1" /><path clip-path="url(#clip380)" d="M21.7677 822.088 L39.6235 822.088 L39.6235 814.004 Q39.6235 809.516 37.3 807.065 Q34.9765 804.614 30.6797 804.614 Q26.4147 804.614 24.0912 807.065 Q21.7677 809.516 21.7677 814.004 L21.7677 822.088 M16.4842 828.517 L16.4842 814.004 Q16.4842 806.015 20.1126 801.94 Q23.7092 797.835 30.6797 797.835 Q37.7138 797.835 41.3104 801.94 Q44.907 806.015 44.907 814.004 L44.907 822.088 L64.0042 822.088 L64.0042 828.517 L16.4842 828.517 Z" fill="#000000" fill-rule="nonzero" fill-opacity="1" /><path clip-path="url(#clip380)" d="M29.7248 743.09 L35.1993 743.09 Q33.8307 745.572 33.1623 748.087 Q32.4621 750.569 32.4621 753.116 Q32.4621 758.813 36.0905 761.964 Q39.6872 765.115 46.212 765.115 Q52.7369 765.115 56.3653 761.964 Q59.9619 758.813 59.9619 753.116 Q59.9619 750.569 59.2935 748.087 Q58.5933 745.572 57.2247 743.09 L62.6355 743.09 Q63.7814 745.54 64.3543 748.182 Q64.9272 750.792 64.9272 753.752 Q64.9272 761.805 59.8664 766.547 Q54.8057 771.29 46.212 771.29 Q37.491 771.29 32.4939 766.515 Q27.4968 761.709 27.4968 753.37 Q27.4968 750.665 28.0697 748.087 Q28.6108 745.508 29.7248 743.09 Z" fill="#000000" fill-rule="nonzero" fill-opacity="1" /><path clip-path="url(#clip380)" d="M42.4881 703.272 L64.0042 703.272 L64.0042 709.128 L42.679 709.128 Q37.6183 709.128 35.1038 711.102 Q32.5894 713.075 32.5894 717.022 Q32.5894 721.764 35.6131 724.502 Q38.6368 727.239 43.8567 727.239 L64.0042 727.239 L64.0042 733.127 L14.479 733.127 L14.479 727.239 L33.8944 727.239 Q30.6797 725.138 29.0883 722.305 Q27.4968 719.441 27.4968 715.717 Q27.4968 709.574 31.3163 706.423 Q35.1038 703.272 42.4881 703.272 Z" fill="#000000" fill-rule="nonzero" fill-opacity="1" /><path clip-path="url(#clip380)" d="M46.0847 675.39 Q46.0847 682.488 47.7079 685.225 Q49.3312 687.963 53.2461 687.963 Q56.3653 687.963 58.2114 685.925 Q60.0256 683.857 60.0256 680.324 Q60.0256 675.454 56.5881 672.526 Q53.1188 669.566 47.3897 669.566 L46.0847 669.566 L46.0847 675.39 M43.6657 663.709 L64.0042 663.709 L64.0042 669.566 L58.5933 669.566 Q61.8398 671.571 63.3994 674.563 Q64.9272 677.555 64.9272 681.883 Q64.9272 687.358 61.8716 690.604 Q58.7843 693.819 53.6281 693.819 Q47.6125 693.819 44.5569 689.809 Q41.5014 685.766 41.5014 677.777 L41.5014 669.566 L40.9285 669.566 Q36.8862 669.566 34.6901 672.239 Q32.4621 674.881 32.4621 679.687 Q32.4621 682.743 33.1941 685.639 Q33.9262 688.535 35.3903 691.209 L29.9795 691.209 Q28.7381 687.994 28.1334 684.971 Q27.4968 681.947 27.4968 679.082 Q27.4968 671.348 31.5072 667.529 Q35.5176 663.709 43.6657 663.709 Z" fill="#000000" fill-rule="nonzero" fill-opacity="1" /><path clip-path="url(#clip380)" d="M42.4881 622.014 L64.0042 622.014 L64.0042 627.87 L42.679 627.87 Q37.6183 627.87 35.1038 629.844 Q32.5894 631.817 32.5894 635.764 Q32.5894 640.506 35.6131 643.243 Q38.6368 645.981 43.8567 645.981 L64.0042 645.981 L64.0042 651.869 L28.3562 651.869 L28.3562 645.981 L33.8944 645.981 Q30.6797 643.88 29.0883 641.047 Q27.4968 638.183 27.4968 634.459 Q27.4968 628.316 31.3163 625.165 Q35.1038 622.014 42.4881 622.014 Z" fill="#000000" fill-rule="nonzero" fill-opacity="1" /><path clip-path="url(#clip380)" d="M45.7664 586.875 Q39.4007 586.875 35.8996 589.517 Q32.3984 592.127 32.3984 596.869 Q32.3984 601.58 35.8996 604.222 Q39.4007 606.832 45.7664 606.832 Q52.1003 606.832 55.6014 604.222 Q59.1026 601.58 59.1026 596.869 Q59.1026 592.127 55.6014 589.517 Q52.1003 586.875 45.7664 586.875 M59.58 581.019 Q68.683 581.019 73.1071 585.061 Q77.5631 589.103 77.5631 597.442 Q77.5631 600.53 77.0857 603.267 Q76.6401 606.004 75.6852 608.582 L69.9879 608.582 Q71.3884 606.004 72.0568 603.49 Q72.7252 600.975 72.7252 598.365 Q72.7252 592.604 69.7015 589.74 Q66.7096 586.875 60.6303 586.875 L57.7339 586.875 Q60.885 588.689 62.4446 591.522 Q64.0042 594.355 64.0042 598.302 Q64.0042 604.858 59.0071 608.869 Q54.01 612.879 45.7664 612.879 Q37.491 612.879 32.4939 608.869 Q27.4968 604.858 27.4968 598.302 Q27.4968 594.355 29.0564 591.522 Q30.616 588.689 33.7671 586.875 L28.3562 586.875 L28.3562 581.019 L59.58 581.019 Z" fill="#000000" fill-rule="nonzero" fill-opacity="1" /><path clip-path="url(#clip380)" d="M44.7161 538.464 L47.5806 538.464 L47.5806 565.391 Q53.6281 565.009 56.8109 561.762 Q59.9619 558.484 59.9619 552.659 Q59.9619 549.286 59.1344 546.135 Q58.3069 542.952 56.6518 539.833 L62.1899 539.833 Q63.5267 542.984 64.227 546.294 Q64.9272 549.604 64.9272 553.01 Q64.9272 561.54 59.9619 566.537 Q54.9967 571.502 46.5303 571.502 Q37.7774 571.502 32.6531 566.791 Q27.4968 562.049 27.4968 554.028 Q27.4968 546.835 32.1438 542.665 Q36.7589 538.464 44.7161 538.464 M42.9973 544.32 Q38.1912 544.384 35.3266 547.026 Q32.4621 549.636 32.4621 553.964 Q32.4621 558.866 35.2312 561.826 Q38.0002 564.754 43.0292 565.2 L42.9973 544.32 Z" fill="#000000" fill-rule="nonzero" fill-opacity="1" /><path clip-path="url(#clip382)" d="M338.533 948.096 L460.755 959.502 L582.977 582.273 L705.199 509.875 L827.422 449.732 L949.644 954.118 L1071.87 1085.19 L1194.09 1339.26 L1316.31 1271.13 L1438.53 1213.2 L1560.76 1173.97 L1682.98 1148.53 L1805.2 1384.24 L1927.42 1370.93 L2049.64 1350.48 L2171.87 1315.44 L2294.09 1324.33 L2294.09 480.536 L2171.87 526.04 L2049.64 569.021 L1927.42 608.476 L1805.2 645.98 L1682.98 450.281 L1560.76 521.569 L1438.53 633.797 L1316.31 737.238 L1194.09 856.477 L1071.87 633.882 L949.644 549.5 L827.422 86.1857 L705.199 219.987 L582.977 313.214 L460.755 756.74 L338.533 948.096  Z" fill="#009af9" fill-rule="evenodd" fill-opacity="0.2"/>
<polyline clip-path="url(#clip382)" style="stroke:#009af9; stroke-linecap:round; stroke-linejoin:round; stroke-width:4; stroke-opacity:1; fill:none" points="338.533,948.096 460.755,858.121 582.977,447.744 705.199,364.931 827.422,267.959 949.644,751.809 1071.87,859.537 1194.09,1097.87 1316.31,1004.18 1438.53,923.499 1560.76,847.77 1682.98,799.405 1805.2,1015.11 1927.42,989.703 2049.64,959.75 2171.87,920.739 2294.09,902.435 "/>
</svg>
