<?xml version="1.0" encoding="utf-8"?>
<svg xmlns="http://www.w3.org/2000/svg" xmlns:xlink="http://www.w3.org/1999/xlink" width="600" height="400" viewBox="0 0 2400 1600">
<defs>
  <clipPath id="clip210">
    <rect x="0" y="0" width="2400" height="1600"/>
  </clipPath>
</defs>
<path clip-path="url(#clip210)" d="M0 1600 L2400 1600 L2400 0 L0 0  Z" fill="#ffffff" fill-rule="evenodd" fill-opacity="1"/>
<defs>
  <clipPath id="clip211">
    <rect x="480" y="0" width="1681" height="1600"/>
  </clipPath>
</defs>
<path clip-path="url(#clip210)" d="M279.704 1423.18 L2352.76 1423.18 L2352.76 47.2441 L279.704 47.2441  Z" fill="#ffffff" fill-rule="evenodd" fill-opacity="1"/>
<defs>
  <clipPath id="clip212">
    <rect x="279" y="47" width="2074" height="1377"/>
  </clipPath>
</defs>
<polyline clip-path="url(#clip212)" style="stroke:#000000; stroke-linecap:round; stroke-linejoin:round; stroke-width:2; stroke-opacity:0.1; fill:none" points="582.839,1423.18 582.839,47.2441 "/>
<polyline clip-path="url(#clip212)" style="stroke:#000000; stroke-linecap:round; stroke-linejoin:round; stroke-width:2; stroke-opacity:0.1; fill:none" points="949.534,1423.18 949.534,47.2441 "/>
<polyline clip-path="url(#clip212)" style="stroke:#000000; stroke-linecap:round; stroke-linejoin:round; stroke-width:2; stroke-opacity:0.1; fill:none" points="1316.23,1423.18 1316.23,47.2441 "/>
<polyline clip-path="url(#clip212)" style="stroke:#000000; stroke-linecap:round; stroke-linejoin:round; stroke-width:2; stroke-opacity:0.1; fill:none" points="1682.93,1423.18 1682.93,47.2441 "/>
<polyline clip-path="url(#clip212)" style="stroke:#000000; stroke-linecap:round; stroke-linejoin:round; stroke-width:2; stroke-opacity:0.1; fill:none" points="2049.62,1423.18 2049.62,47.2441 "/>
<polyline clip-path="url(#clip212)" style="stroke:#000000; stroke-linecap:round; stroke-linejoin:round; stroke-width:2; stroke-opacity:0.1; fill:none" points="279.704,1363.22 2352.76,1363.22 "/>
<polyline clip-path="url(#clip212)" style="stroke:#000000; stroke-linecap:round; stroke-linejoin:round; stroke-width:2; stroke-opacity:0.1; fill:none" points="279.704,1043.67 2352.76,1043.67 "/>
<polyline clip-path="url(#clip212)" style="stroke:#000000; stroke-linecap:round; stroke-linejoin:round; stroke-width:2; stroke-opacity:0.1; fill:none" points="279.704,724.117 2352.76,724.117 "/>
<polyline clip-path="url(#clip212)" style="stroke:#000000; stroke-linecap:round; stroke-linejoin:round; stroke-width:2; stroke-opacity:0.1; fill:none" points="279.704,404.567 2352.76,404.567 "/>
<polyline clip-path="url(#clip212)" style="stroke:#000000; stroke-linecap:round; stroke-linejoin:round; stroke-width:2; stroke-opacity:0.1; fill:none" points="279.704,85.017 2352.76,85.017 "/>
<polyline clip-path="url(#clip210)" style="stroke:#000000; stroke-linecap:round; stroke-linejoin:round; stroke-width:4; stroke-opacity:1; fill:none" points="279.704,1423.18 2352.76,1423.18 "/>
<polyline clip-path="url(#clip210)" style="stroke:#000000; stroke-linecap:round; stroke-linejoin:round; stroke-width:4; stroke-opacity:1; fill:none" points="582.839,1423.18 582.839,1404.28 "/>
<polyline clip-path="url(#clip210)" style="stroke:#000000; stroke-linecap:round; stroke-linejoin:round; stroke-width:4; stroke-opacity:1; fill:none" points="949.534,1423.18 949.534,1404.28 "/>
<polyline clip-path="url(#clip210)" style="stroke:#000000; stroke-linecap:round; stroke-linejoin:round; stroke-width:4; stroke-opacity:1; fill:none" points="1316.23,1423.18 1316.23,1404.28 "/>
<polyline clip-path="url(#clip210)" style="stroke:#000000; stroke-linecap:round; stroke-linejoin:round; stroke-width:4; stroke-opacity:1; fill:none" points="1682.93,1423.18 1682.93,1404.28 "/>
<polyline clip-path="url(#clip210)" style="stroke:#000000; stroke-linecap:round; stroke-linejoin:round; stroke-width:4; stroke-opacity:1; fill:none" points="2049.62,1423.18 2049.62,1404.28 "/>
<path clip-path="url(#clip210)" d="M587.087 1466.95 Q590.443 1467.66 592.318 1469.93 Q594.216 1472.2 594.216 1475.53 Q594.216 1480.65 590.698 1483.45 Q587.179 1486.25 580.698 1486.25 Q578.522 1486.25 576.207 1485.81 Q573.915 1485.39 571.462 1484.54 L571.462 1480.02 Q573.406 1481.16 575.721 1481.74 Q578.036 1482.32 580.559 1482.32 Q584.957 1482.32 587.249 1480.58 Q589.563 1478.84 589.563 1475.53 Q589.563 1472.48 587.411 1470.77 Q585.281 1469.03 581.462 1469.03 L577.434 1469.03 L577.434 1465.19 L581.647 1465.19 Q585.096 1465.19 586.924 1463.82 Q588.753 1462.43 588.753 1459.84 Q588.753 1457.18 586.855 1455.77 Q584.98 1454.33 581.462 1454.33 Q579.54 1454.33 577.341 1454.75 Q575.142 1455.16 572.503 1456.04 L572.503 1451.88 Q575.165 1451.14 577.48 1450.77 Q579.818 1450.39 581.878 1450.39 Q587.202 1450.39 590.304 1452.83 Q593.406 1455.23 593.406 1459.35 Q593.406 1462.22 591.762 1464.21 Q590.119 1466.18 587.087 1466.95 Z" fill="#000000" fill-rule="nonzero" fill-opacity="1" /><path clip-path="url(#clip210)" d="M949.939 1466.44 Q946.791 1466.44 944.94 1468.59 Q943.111 1470.74 943.111 1474.49 Q943.111 1478.22 944.94 1480.39 Q946.791 1482.55 949.939 1482.55 Q953.088 1482.55 954.916 1480.39 Q956.768 1478.22 956.768 1474.49 Q956.768 1470.74 954.916 1468.59 Q953.088 1466.44 949.939 1466.44 M959.222 1451.78 L959.222 1456.04 Q957.463 1455.21 955.657 1454.77 Q953.875 1454.33 952.115 1454.33 Q947.486 1454.33 945.032 1457.45 Q942.602 1460.58 942.254 1466.9 Q943.62 1464.89 945.68 1463.82 Q947.74 1462.73 950.217 1462.73 Q955.426 1462.73 958.435 1465.9 Q961.467 1469.05 961.467 1474.49 Q961.467 1479.82 958.319 1483.03 Q955.171 1486.25 949.939 1486.25 Q943.944 1486.25 940.773 1481.67 Q937.602 1477.06 937.602 1468.33 Q937.602 1460.14 941.49 1455.28 Q945.379 1450.39 951.93 1450.39 Q953.689 1450.39 955.472 1450.74 Q957.277 1451.09 959.222 1451.78 Z" fill="#000000" fill-rule="nonzero" fill-opacity="1" /><path clip-path="url(#clip210)" d="M1306.53 1484.86 L1306.53 1480.6 Q1308.29 1481.44 1310.1 1481.88 Q1311.9 1482.32 1313.64 1482.32 Q1318.27 1482.32 1320.7 1479.21 Q1323.15 1476.09 1323.5 1469.75 Q1322.16 1471.74 1320.1 1472.8 Q1318.04 1473.87 1315.54 1473.87 Q1310.35 1473.87 1307.32 1470.74 Q1304.31 1467.59 1304.31 1462.15 Q1304.31 1456.83 1307.46 1453.61 Q1310.6 1450.39 1315.84 1450.39 Q1321.83 1450.39 1324.98 1455 Q1328.15 1459.58 1328.15 1468.33 Q1328.15 1476.51 1324.26 1481.39 Q1320.4 1486.25 1313.85 1486.25 Q1312.09 1486.25 1310.28 1485.9 Q1308.48 1485.56 1306.53 1484.86 M1315.84 1470.21 Q1318.98 1470.21 1320.81 1468.06 Q1322.67 1465.9 1322.67 1462.15 Q1322.67 1458.43 1320.81 1456.27 Q1318.98 1454.1 1315.84 1454.1 Q1312.69 1454.1 1310.84 1456.27 Q1309.01 1458.43 1309.01 1462.15 Q1309.01 1465.9 1310.84 1468.06 Q1312.69 1470.21 1315.84 1470.21 Z" fill="#000000" fill-rule="nonzero" fill-opacity="1" /><path clip-path="url(#clip210)" d="M1658.41 1481.64 L1666.05 1481.64 L1666.05 1455.28 L1657.74 1456.95 L1657.74 1452.69 L1666 1451.02 L1670.68 1451.02 L1670.68 1481.64 L1678.32 1481.64 L1678.32 1485.58 L1658.41 1485.58 L1658.41 1481.64 Z" fill="#000000" fill-rule="nonzero" fill-opacity="1" /><path clip-path="url(#clip210)" d="M1691.79 1481.64 L1708.11 1481.64 L1708.11 1485.58 L1686.17 1485.58 L1686.17 1481.64 Q1688.83 1478.89 1693.41 1474.26 Q1698.02 1469.61 1699.2 1468.27 Q1701.44 1465.74 1702.32 1464.01 Q1703.23 1462.25 1703.23 1460.56 Q1703.23 1457.8 1701.28 1456.07 Q1699.36 1454.33 1696.26 1454.33 Q1694.06 1454.33 1691.61 1455.09 Q1689.18 1455.86 1686.4 1457.41 L1686.4 1452.69 Q1689.22 1451.55 1691.68 1450.97 Q1694.13 1450.39 1696.17 1450.39 Q1701.54 1450.39 1704.73 1453.08 Q1707.93 1455.77 1707.93 1460.26 Q1707.93 1462.39 1707.12 1464.31 Q1706.33 1466.2 1704.22 1468.8 Q1703.64 1469.47 1700.54 1472.69 Q1697.44 1475.88 1691.79 1481.64 Z" fill="#000000" fill-rule="nonzero" fill-opacity="1" /><path clip-path="url(#clip210)" d="M2024.81 1481.64 L2032.45 1481.64 L2032.45 1455.28 L2024.13 1456.95 L2024.13 1452.69 L2032.4 1451.02 L2037.07 1451.02 L2037.07 1481.64 L2044.71 1481.64 L2044.71 1485.58 L2024.81 1485.58 L2024.81 1481.64 Z" fill="#000000" fill-rule="nonzero" fill-opacity="1" /><path clip-path="url(#clip210)" d="M2054.2 1451.02 L2072.56 1451.02 L2072.56 1454.96 L2058.49 1454.96 L2058.49 1463.43 Q2059.51 1463.08 2060.52 1462.92 Q2061.54 1462.73 2062.56 1462.73 Q2068.35 1462.73 2071.73 1465.9 Q2075.11 1469.08 2075.11 1474.49 Q2075.11 1480.07 2071.63 1483.17 Q2068.16 1486.25 2061.84 1486.25 Q2059.67 1486.25 2057.4 1485.88 Q2055.15 1485.51 2052.75 1484.77 L2052.75 1480.07 Q2054.83 1481.2 2057.05 1481.76 Q2059.27 1482.32 2061.75 1482.32 Q2065.76 1482.32 2068.09 1480.21 Q2070.43 1478.1 2070.43 1474.49 Q2070.43 1470.88 2068.09 1468.77 Q2065.76 1466.67 2061.75 1466.67 Q2059.88 1466.67 2058 1467.08 Q2056.15 1467.5 2054.2 1468.38 L2054.2 1451.02 Z" fill="#000000" fill-rule="nonzero" fill-opacity="1" /><path clip-path="url(#clip210)" d="M1187.74 1550.25 Q1187.74 1556.71 1190.38 1560.4 Q1193.05 1564.07 1197.7 1564.07 Q1202.35 1564.07 1205.02 1560.4 Q1207.69 1556.71 1207.69 1550.25 Q1207.69 1543.79 1205.02 1540.13 Q1202.35 1536.44 1197.7 1536.44 Q1193.05 1536.44 1190.38 1540.13 Q1187.74 1543.79 1187.74 1550.25 M1207.69 1562.7 Q1205.85 1565.88 1203.02 1567.44 Q1200.21 1568.97 1196.27 1568.97 Q1189.81 1568.97 1185.73 1563.81 Q1181.69 1558.65 1181.69 1550.25 Q1181.69 1541.85 1185.73 1536.69 Q1189.81 1531.54 1196.27 1531.54 Q1200.21 1531.54 1203.02 1533.1 Q1205.85 1534.62 1207.69 1537.81 L1207.69 1532.4 L1213.55 1532.4 L1213.55 1581.6 L1207.69 1581.6 L1207.69 1562.7 Z" fill="#000000" fill-rule="nonzero" fill-opacity="1" /><path clip-path="url(#clip210)" d="M1225.01 1553.98 L1225.01 1532.4 L1230.87 1532.4 L1230.87 1553.75 Q1230.87 1558.81 1232.84 1561.36 Q1234.81 1563.87 1238.76 1563.87 Q1243.5 1563.87 1246.24 1560.85 Q1249.01 1557.83 1249.01 1552.61 L1249.01 1532.4 L1254.86 1532.4 L1254.86 1568.04 L1249.01 1568.04 L1249.01 1562.57 Q1246.88 1565.82 1244.04 1567.41 Q1241.24 1568.97 1237.52 1568.97 Q1231.38 1568.97 1228.19 1565.15 Q1225.01 1561.33 1225.01 1553.98 M1239.75 1531.54 L1239.75 1531.54 Z" fill="#000000" fill-rule="nonzero" fill-opacity="1" /><path clip-path="url(#clip210)" d="M1283.13 1550.12 Q1276.03 1550.12 1273.29 1551.75 Q1270.56 1553.37 1270.56 1557.29 Q1270.56 1560.4 1272.59 1562.25 Q1274.66 1564.07 1278.19 1564.07 Q1283.06 1564.07 1285.99 1560.63 Q1288.95 1557.16 1288.95 1551.43 L1288.95 1550.12 L1283.13 1550.12 M1294.81 1547.71 L1294.81 1568.04 L1288.95 1568.04 L1288.95 1562.63 Q1286.95 1565.88 1283.96 1567.44 Q1280.96 1568.97 1276.64 1568.97 Q1271.16 1568.97 1267.91 1565.91 Q1264.7 1562.82 1264.7 1557.67 Q1264.7 1551.65 1268.71 1548.6 Q1272.75 1545.54 1280.74 1545.54 L1288.95 1545.54 L1288.95 1544.97 Q1288.95 1540.93 1286.28 1538.73 Q1283.64 1536.5 1278.83 1536.5 Q1275.78 1536.5 1272.88 1537.23 Q1269.98 1537.97 1267.31 1539.43 L1267.31 1534.02 Q1270.52 1532.78 1273.55 1532.17 Q1276.57 1531.54 1279.44 1531.54 Q1287.17 1531.54 1290.99 1535.55 Q1294.81 1539.56 1294.81 1547.71 Z" fill="#000000" fill-rule="nonzero" fill-opacity="1" /><path clip-path="url(#clip210)" d="M1327.53 1537.87 Q1326.54 1537.3 1325.36 1537.04 Q1324.22 1536.76 1322.82 1536.76 Q1317.85 1536.76 1315.18 1540 Q1312.54 1543.22 1312.54 1549.27 L1312.54 1568.04 L1306.65 1568.04 L1306.65 1532.4 L1312.54 1532.4 L1312.54 1537.93 Q1314.38 1534.69 1317.34 1533.13 Q1320.3 1531.54 1324.54 1531.54 Q1325.14 1531.54 1325.87 1531.63 Q1326.61 1531.7 1327.5 1531.85 L1327.53 1537.87 Z" fill="#000000" fill-rule="nonzero" fill-opacity="1" /><path clip-path="url(#clip210)" d="M1339.46 1522.27 L1339.46 1532.4 L1351.53 1532.4 L1351.53 1536.95 L1339.46 1536.95 L1339.46 1556.3 Q1339.46 1560.66 1340.64 1561.9 Q1341.85 1563.14 1345.51 1563.14 L1351.53 1563.14 L1351.53 1568.04 L1345.51 1568.04 Q1338.73 1568.04 1336.15 1565.53 Q1333.58 1562.98 1333.58 1556.3 L1333.58 1536.95 L1329.28 1536.95 L1329.28 1532.4 L1333.58 1532.4 L1333.58 1522.27 L1339.46 1522.27 Z" fill="#000000" fill-rule="nonzero" fill-opacity="1" /><path clip-path="url(#clip210)" d="M1389.72 1548.76 L1389.72 1551.62 L1362.8 1551.62 Q1363.18 1557.67 1366.42 1560.85 Q1369.7 1564 1375.53 1564 Q1378.9 1564 1382.05 1563.17 Q1385.23 1562.35 1388.35 1560.69 L1388.35 1566.23 Q1385.2 1567.57 1381.89 1568.27 Q1378.58 1568.97 1375.18 1568.97 Q1366.65 1568.97 1361.65 1564 Q1356.68 1559.04 1356.68 1550.57 Q1356.68 1541.82 1361.39 1536.69 Q1366.14 1531.54 1374.16 1531.54 Q1381.35 1531.54 1385.52 1536.18 Q1389.72 1540.8 1389.72 1548.76 M1383.87 1547.04 Q1383.8 1542.23 1381.16 1539.37 Q1378.55 1536.5 1374.22 1536.5 Q1369.32 1536.5 1366.36 1539.27 Q1363.43 1542.04 1362.99 1547.07 L1383.87 1547.04 Z" fill="#000000" fill-rule="nonzero" fill-opacity="1" /><path clip-path="url(#clip210)" d="M1419.99 1537.87 Q1419 1537.3 1417.83 1537.04 Q1416.68 1536.76 1415.28 1536.76 Q1410.32 1536.76 1407.64 1540 Q1405 1543.22 1405 1549.27 L1405 1568.04 L1399.11 1568.04 L1399.11 1532.4 L1405 1532.4 L1405 1537.93 Q1406.85 1534.69 1409.81 1533.13 Q1412.77 1531.54 1417 1531.54 Q1417.6 1531.54 1418.34 1531.63 Q1419.07 1531.7 1419.96 1531.85 L1419.99 1537.87 Z" fill="#000000" fill-rule="nonzero" fill-opacity="1" /><path clip-path="url(#clip210)" d="M1448.86 1533.45 L1448.86 1538.98 Q1446.38 1537.71 1443.7 1537.07 Q1441.03 1536.44 1438.17 1536.44 Q1433.8 1536.44 1431.61 1537.77 Q1429.44 1539.11 1429.44 1541.79 Q1429.44 1543.82 1431 1545 Q1432.56 1546.15 1437.27 1547.2 L1439.28 1547.64 Q1445.52 1548.98 1448.13 1551.43 Q1450.77 1553.85 1450.77 1558.21 Q1450.77 1563.17 1446.82 1566.07 Q1442.91 1568.97 1436.03 1568.97 Q1433.17 1568.97 1430.05 1568.39 Q1426.96 1567.85 1423.52 1566.74 L1423.52 1560.69 Q1426.77 1562.38 1429.92 1563.24 Q1433.07 1564.07 1436.16 1564.07 Q1440.3 1564.07 1442.53 1562.66 Q1444.75 1561.23 1444.75 1558.65 Q1444.75 1556.27 1443.13 1554.99 Q1441.54 1553.72 1436.1 1552.54 L1434.06 1552.07 Q1428.62 1550.92 1426.2 1548.56 Q1423.78 1546.18 1423.78 1542.04 Q1423.78 1537.01 1427.34 1534.27 Q1430.91 1531.54 1437.46 1531.54 Q1440.71 1531.54 1443.58 1532.01 Q1446.44 1532.49 1448.86 1533.45 Z" fill="#000000" fill-rule="nonzero" fill-opacity="1" /><polyline clip-path="url(#clip210)" style="stroke:#000000; stroke-linecap:round; stroke-linejoin:round; stroke-width:4; stroke-opacity:1; fill:none" points="279.704,1423.18 279.704,47.2441 "/>
<polyline clip-path="url(#clip210)" style="stroke:#000000; stroke-linecap:round; stroke-linejoin:round; stroke-width:4; stroke-opacity:1; fill:none" points="279.704,1363.22 298.602,1363.22 "/>
<polyline clip-path="url(#clip210)" style="stroke:#000000; stroke-linecap:round; stroke-linejoin:round; stroke-width:4; stroke-opacity:1; fill:none" points="279.704,1043.67 298.602,1043.67 "/>
<polyline clip-path="url(#clip210)" style="stroke:#000000; stroke-linecap:round; stroke-linejoin:round; stroke-width:4; stroke-opacity:1; fill:none" points="279.704,724.117 298.602,724.117 "/>
<polyline clip-path="url(#clip210)" style="stroke:#000000; stroke-linecap:round; stroke-linejoin:round; stroke-width:4; stroke-opacity:1; fill:none" points="279.704,404.567 298.602,404.567 "/>
<polyline clip-path="url(#clip210)" style="stroke:#000000; stroke-linecap:round; stroke-linejoin:round; stroke-width:4; stroke-opacity:1; fill:none" points="279.704,85.017 298.602,85.017 "/>
<path clip-path="url(#clip210)" d="M126.205 1349.02 Q122.593 1349.02 120.765 1352.58 Q118.959 1356.12 118.959 1363.25 Q118.959 1370.36 120.765 1373.92 Q122.593 1377.47 126.205 1377.47 Q129.839 1377.47 131.644 1373.92 Q133.473 1370.36 133.473 1363.25 Q133.473 1356.12 131.644 1352.58 Q129.839 1349.02 126.205 1349.02 M126.205 1345.31 Q132.015 1345.31 135.07 1349.92 Q138.149 1354.5 138.149 1363.25 Q138.149 1371.98 135.07 1376.59 Q132.015 1381.17 126.205 1381.17 Q120.394 1381.17 117.316 1376.59 Q114.26 1371.98 114.26 1363.25 Q114.26 1354.5 117.316 1349.92 Q120.394 1345.31 126.205 1345.31 Z" fill="#000000" fill-rule="nonzero" fill-opacity="1" /><path clip-path="url(#clip210)" d="M146.366 1374.62 L151.251 1374.62 L151.251 1380.5 L146.366 1380.5 L146.366 1374.62 Z" fill="#000000" fill-rule="nonzero" fill-opacity="1" /><path clip-path="url(#clip210)" d="M161.575 1379.78 L161.575 1375.52 Q163.334 1376.35 165.14 1376.79 Q166.945 1377.23 168.681 1377.23 Q173.311 1377.23 175.741 1374.13 Q178.195 1371.01 178.542 1364.66 Q177.2 1366.66 175.139 1367.72 Q173.079 1368.78 170.579 1368.78 Q165.394 1368.78 162.362 1365.66 Q159.353 1362.51 159.353 1357.07 Q159.353 1351.75 162.501 1348.53 Q165.649 1345.31 170.88 1345.31 Q176.876 1345.31 180.024 1349.92 Q183.195 1354.5 183.195 1363.25 Q183.195 1371.42 179.306 1376.31 Q175.44 1381.17 168.889 1381.17 Q167.13 1381.17 165.325 1380.82 Q163.519 1380.47 161.575 1379.78 M170.88 1365.13 Q174.028 1365.13 175.857 1362.97 Q177.709 1360.82 177.709 1357.07 Q177.709 1353.35 175.857 1351.19 Q174.028 1349.02 170.88 1349.02 Q167.732 1349.02 165.88 1351.19 Q164.052 1353.35 164.052 1357.07 Q164.052 1360.82 165.88 1362.97 Q167.732 1365.13 170.88 1365.13 Z" fill="#000000" fill-rule="nonzero" fill-opacity="1" /><path clip-path="url(#clip210)" d="M191.737 1379.78 L191.737 1375.52 Q193.496 1376.35 195.301 1376.79 Q197.107 1377.23 198.843 1377.23 Q203.473 1377.23 205.903 1374.13 Q208.357 1371.01 208.704 1364.66 Q207.362 1366.66 205.301 1367.72 Q203.241 1368.78 200.741 1368.78 Q195.556 1368.78 192.524 1365.66 Q189.514 1362.51 189.514 1357.07 Q189.514 1351.75 192.663 1348.53 Q195.811 1345.31 201.042 1345.31 Q207.037 1345.31 210.186 1349.92 Q213.357 1354.5 213.357 1363.25 Q213.357 1371.42 209.468 1376.31 Q205.602 1381.17 199.051 1381.17 Q197.292 1381.17 195.487 1380.82 Q193.681 1380.47 191.737 1379.78 M201.042 1365.13 Q204.19 1365.13 206.019 1362.97 Q207.871 1360.82 207.871 1357.07 Q207.871 1353.35 206.019 1351.19 Q204.19 1349.02 201.042 1349.02 Q197.894 1349.02 196.042 1351.19 Q194.213 1353.35 194.213 1357.07 Q194.213 1360.82 196.042 1362.97 Q197.894 1365.13 201.042 1365.13 Z" fill="#000000" fill-rule="nonzero" fill-opacity="1" /><path clip-path="url(#clip210)" d="M231.76 1349.02 Q228.148 1349.02 226.32 1352.58 Q224.514 1356.12 224.514 1363.25 Q224.514 1370.36 226.32 1373.92 Q228.148 1377.47 231.76 1377.47 Q235.394 1377.47 237.199 1373.92 Q239.028 1370.36 239.028 1363.25 Q239.028 1356.12 237.199 1352.58 Q235.394 1349.02 231.76 1349.02 M231.76 1345.31 Q237.57 1345.31 240.625 1349.92 Q243.704 1354.5 243.704 1363.25 Q243.704 1371.98 240.625 1376.59 Q237.57 1381.17 231.76 1381.17 Q225.949 1381.17 222.871 1376.59 Q219.815 1371.98 219.815 1363.25 Q219.815 1354.5 222.871 1349.92 Q225.949 1345.31 231.76 1345.31 Z" fill="#000000" fill-rule="nonzero" fill-opacity="1" /><path clip-path="url(#clip210)" d="M127.2 1029.47 Q123.589 1029.47 121.76 1033.03 Q119.955 1036.57 119.955 1043.7 Q119.955 1050.81 121.76 1054.37 Q123.589 1057.92 127.2 1057.92 Q130.834 1057.92 132.64 1054.37 Q134.468 1050.81 134.468 1043.7 Q134.468 1036.57 132.64 1033.03 Q130.834 1029.47 127.2 1029.47 M127.2 1025.76 Q133.01 1025.76 136.066 1030.37 Q139.144 1034.95 139.144 1043.7 Q139.144 1052.43 136.066 1057.04 Q133.01 1061.62 127.2 1061.62 Q121.39 1061.62 118.311 1057.04 Q115.256 1052.43 115.256 1043.7 Q115.256 1034.95 118.311 1030.37 Q121.39 1025.76 127.2 1025.76 Z" fill="#000000" fill-rule="nonzero" fill-opacity="1" /><path clip-path="url(#clip210)" d="M147.362 1055.07 L152.246 1055.07 L152.246 1060.95 L147.362 1060.95 L147.362 1055.07 Z" fill="#000000" fill-rule="nonzero" fill-opacity="1" /><path clip-path="url(#clip210)" d="M162.57 1060.23 L162.57 1055.97 Q164.329 1056.8 166.135 1057.24 Q167.94 1057.68 169.677 1057.68 Q174.306 1057.68 176.737 1054.58 Q179.19 1051.46 179.538 1045.11 Q178.195 1047.1 176.135 1048.17 Q174.075 1049.23 171.575 1049.23 Q166.39 1049.23 163.357 1046.11 Q160.348 1042.96 160.348 1037.52 Q160.348 1032.2 163.496 1028.98 Q166.644 1025.76 171.876 1025.76 Q177.871 1025.76 181.019 1030.37 Q184.19 1034.95 184.19 1043.7 Q184.19 1051.87 180.301 1056.76 Q176.436 1061.62 169.885 1061.62 Q168.126 1061.62 166.32 1061.27 Q164.515 1060.92 162.57 1060.23 M171.876 1045.58 Q175.024 1045.58 176.852 1043.42 Q178.704 1041.27 178.704 1037.52 Q178.704 1033.79 176.852 1031.64 Q175.024 1029.47 171.876 1029.47 Q168.727 1029.47 166.876 1031.64 Q165.047 1033.79 165.047 1037.52 Q165.047 1041.27 166.876 1043.42 Q168.727 1045.58 171.876 1045.58 Z" fill="#000000" fill-rule="nonzero" fill-opacity="1" /><path clip-path="url(#clip210)" d="M192.732 1060.23 L192.732 1055.97 Q194.491 1056.8 196.297 1057.24 Q198.102 1057.68 199.838 1057.68 Q204.468 1057.68 206.899 1054.58 Q209.352 1051.46 209.699 1045.11 Q208.357 1047.1 206.297 1048.17 Q204.237 1049.23 201.737 1049.23 Q196.551 1049.23 193.519 1046.11 Q190.51 1042.96 190.51 1037.52 Q190.51 1032.2 193.658 1028.98 Q196.806 1025.76 202.037 1025.76 Q208.033 1025.76 211.181 1030.37 Q214.352 1034.95 214.352 1043.7 Q214.352 1051.87 210.463 1056.76 Q206.598 1061.62 200.047 1061.62 Q198.287 1061.62 196.482 1061.27 Q194.676 1060.92 192.732 1060.23 M202.037 1045.58 Q205.186 1045.58 207.014 1043.42 Q208.866 1041.27 208.866 1037.52 Q208.866 1033.79 207.014 1031.64 Q205.186 1029.47 202.037 1029.47 Q198.889 1029.47 197.037 1031.64 Q195.209 1033.79 195.209 1037.52 Q195.209 1041.27 197.037 1043.42 Q198.889 1045.58 202.037 1045.58 Z" fill="#000000" fill-rule="nonzero" fill-opacity="1" /><path clip-path="url(#clip210)" d="M222.801 1026.39 L241.158 1026.39 L241.158 1030.32 L227.084 1030.32 L227.084 1038.79 Q228.102 1038.45 229.121 1038.29 Q230.139 1038.1 231.158 1038.1 Q236.945 1038.1 240.324 1041.27 Q243.704 1044.44 243.704 1049.86 Q243.704 1055.44 240.232 1058.54 Q236.76 1061.62 230.44 1061.62 Q228.264 1061.62 225.996 1061.25 Q223.75 1060.88 221.343 1060.14 L221.343 1055.44 Q223.426 1056.57 225.648 1057.13 Q227.871 1057.68 230.347 1057.68 Q234.352 1057.68 236.69 1055.58 Q239.028 1053.47 239.028 1049.86 Q239.028 1046.25 236.69 1044.14 Q234.352 1042.04 230.347 1042.04 Q228.473 1042.04 226.598 1042.45 Q224.746 1042.87 222.801 1043.75 L222.801 1026.39 Z" fill="#000000" fill-rule="nonzero" fill-opacity="1" /><path clip-path="url(#clip210)" d="M117.015 737.462 L124.654 737.462 L124.654 711.097 L116.343 712.763 L116.343 708.504 L124.607 706.837 L129.283 706.837 L129.283 737.462 L136.922 737.462 L136.922 741.397 L117.015 741.397 L117.015 737.462 Z" fill="#000000" fill-rule="nonzero" fill-opacity="1" /><path clip-path="url(#clip210)" d="M146.366 735.518 L151.251 735.518 L151.251 741.397 L146.366 741.397 L146.366 735.518 Z" fill="#000000" fill-rule="nonzero" fill-opacity="1" /><path clip-path="url(#clip210)" d="M171.436 709.916 Q167.825 709.916 165.996 713.481 Q164.19 717.022 164.19 724.152 Q164.19 731.258 165.996 734.823 Q167.825 738.365 171.436 738.365 Q175.07 738.365 176.876 734.823 Q178.704 731.258 178.704 724.152 Q178.704 717.022 176.876 713.481 Q175.07 709.916 171.436 709.916 M171.436 706.212 Q177.246 706.212 180.301 710.819 Q183.38 715.402 183.38 724.152 Q183.38 732.879 180.301 737.485 Q177.246 742.069 171.436 742.069 Q165.626 742.069 162.547 737.485 Q159.491 732.879 159.491 724.152 Q159.491 715.402 162.547 710.819 Q165.626 706.212 171.436 706.212 Z" fill="#000000" fill-rule="nonzero" fill-opacity="1" /><path clip-path="url(#clip210)" d="M201.598 709.916 Q197.987 709.916 196.158 713.481 Q194.352 717.022 194.352 724.152 Q194.352 731.258 196.158 734.823 Q197.987 738.365 201.598 738.365 Q205.232 738.365 207.037 734.823 Q208.866 731.258 208.866 724.152 Q208.866 717.022 207.037 713.481 Q205.232 709.916 201.598 709.916 M201.598 706.212 Q207.408 706.212 210.463 710.819 Q213.542 715.402 213.542 724.152 Q213.542 732.879 210.463 737.485 Q207.408 742.069 201.598 742.069 Q195.787 742.069 192.709 737.485 Q189.653 732.879 189.653 724.152 Q189.653 715.402 192.709 710.819 Q195.787 706.212 201.598 706.212 Z" fill="#000000" fill-rule="nonzero" fill-opacity="1" /><path clip-path="url(#clip210)" d="M231.76 709.916 Q228.148 709.916 226.32 713.481 Q224.514 717.022 224.514 724.152 Q224.514 731.258 226.32 734.823 Q228.148 738.365 231.76 738.365 Q235.394 738.365 237.199 734.823 Q239.028 731.258 239.028 724.152 Q239.028 717.022 237.199 713.481 Q235.394 709.916 231.76 709.916 M231.76 706.212 Q237.57 706.212 240.625 710.819 Q243.704 715.402 243.704 724.152 Q243.704 732.879 240.625 737.485 Q237.57 742.069 231.76 742.069 Q225.949 742.069 222.871 737.485 Q219.815 732.879 219.815 724.152 Q219.815 715.402 222.871 710.819 Q225.949 706.212 231.76 706.212 Z" fill="#000000" fill-rule="nonzero" fill-opacity="1" /><path clip-path="url(#clip210)" d="M118.01 417.912 L125.649 417.912 L125.649 391.546 L117.339 393.213 L117.339 388.954 L125.603 387.287 L130.279 387.287 L130.279 417.912 L137.917 417.912 L137.917 421.847 L118.01 421.847 L118.01 417.912 Z" fill="#000000" fill-rule="nonzero" fill-opacity="1" /><path clip-path="url(#clip210)" d="M147.362 415.968 L152.246 415.968 L152.246 421.847 L147.362 421.847 L147.362 415.968 Z" fill="#000000" fill-rule="nonzero" fill-opacity="1" /><path clip-path="url(#clip210)" d="M172.431 390.366 Q168.82 390.366 166.991 393.931 Q165.186 397.472 165.186 404.602 Q165.186 411.708 166.991 415.273 Q168.82 418.815 172.431 418.815 Q176.065 418.815 177.871 415.273 Q179.7 411.708 179.7 404.602 Q179.7 397.472 177.871 393.931 Q176.065 390.366 172.431 390.366 M172.431 386.662 Q178.241 386.662 181.297 391.269 Q184.376 395.852 184.376 404.602 Q184.376 413.329 181.297 417.935 Q178.241 422.518 172.431 422.518 Q166.621 422.518 163.542 417.935 Q160.487 413.329 160.487 404.602 Q160.487 395.852 163.542 391.269 Q166.621 386.662 172.431 386.662 Z" fill="#000000" fill-rule="nonzero" fill-opacity="1" /><path clip-path="url(#clip210)" d="M202.593 390.366 Q198.982 390.366 197.153 393.931 Q195.348 397.472 195.348 404.602 Q195.348 411.708 197.153 415.273 Q198.982 418.815 202.593 418.815 Q206.227 418.815 208.033 415.273 Q209.861 411.708 209.861 404.602 Q209.861 397.472 208.033 393.931 Q206.227 390.366 202.593 390.366 M202.593 386.662 Q208.403 386.662 211.459 391.269 Q214.537 395.852 214.537 404.602 Q214.537 413.329 211.459 417.935 Q208.403 422.518 202.593 422.518 Q196.783 422.518 193.704 417.935 Q190.649 413.329 190.649 404.602 Q190.649 395.852 193.704 391.269 Q196.783 386.662 202.593 386.662 Z" fill="#000000" fill-rule="nonzero" fill-opacity="1" /><path clip-path="url(#clip210)" d="M222.801 387.287 L241.158 387.287 L241.158 391.222 L227.084 391.222 L227.084 399.695 Q228.102 399.347 229.121 399.185 Q230.139 399 231.158 399 Q236.945 399 240.324 402.171 Q243.704 405.343 243.704 410.759 Q243.704 416.338 240.232 419.44 Q236.76 422.518 230.44 422.518 Q228.264 422.518 225.996 422.148 Q223.75 421.778 221.343 421.037 L221.343 416.338 Q223.426 417.472 225.648 418.028 Q227.871 418.583 230.347 418.583 Q234.352 418.583 236.69 416.477 Q239.028 414.37 239.028 410.759 Q239.028 407.148 236.69 405.042 Q234.352 402.935 230.347 402.935 Q228.473 402.935 226.598 403.352 Q224.746 403.769 222.801 404.648 L222.801 387.287 Z" fill="#000000" fill-rule="nonzero" fill-opacity="1" /><path clip-path="url(#clip210)" d="M117.015 98.3618 L124.654 98.3618 L124.654 71.9962 L116.343 73.6629 L116.343 69.4037 L124.607 67.737 L129.283 67.737 L129.283 98.3618 L136.922 98.3618 L136.922 102.297 L117.015 102.297 L117.015 98.3618 Z" fill="#000000" fill-rule="nonzero" fill-opacity="1" /><path clip-path="url(#clip210)" d="M146.366 96.4174 L151.251 96.4174 L151.251 102.297 L146.366 102.297 L146.366 96.4174 Z" fill="#000000" fill-rule="nonzero" fill-opacity="1" /><path clip-path="url(#clip210)" d="M171.436 70.8157 Q167.825 70.8157 165.996 74.3805 Q164.19 77.9221 164.19 85.0517 Q164.19 92.1582 165.996 95.723 Q167.825 99.2646 171.436 99.2646 Q175.07 99.2646 176.876 95.723 Q178.704 92.1582 178.704 85.0517 Q178.704 77.9221 176.876 74.3805 Q175.07 70.8157 171.436 70.8157 M171.436 67.112 Q177.246 67.112 180.301 71.7185 Q183.38 76.3018 183.38 85.0517 Q183.38 93.7785 180.301 98.385 Q177.246 102.968 171.436 102.968 Q165.626 102.968 162.547 98.385 Q159.491 93.7785 159.491 85.0517 Q159.491 76.3018 162.547 71.7185 Q165.626 67.112 171.436 67.112 Z" fill="#000000" fill-rule="nonzero" fill-opacity="1" /><path clip-path="url(#clip210)" d="M192.408 98.3618 L200.047 98.3618 L200.047 71.9962 L191.737 73.6629 L191.737 69.4037 L200 67.737 L204.676 67.737 L204.676 98.3618 L212.315 98.3618 L212.315 102.297 L192.408 102.297 L192.408 98.3618 Z" fill="#000000" fill-rule="nonzero" fill-opacity="1" /><path clip-path="url(#clip210)" d="M231.76 70.8157 Q228.148 70.8157 226.32 74.3805 Q224.514 77.9221 224.514 85.0517 Q224.514 92.1582 226.32 95.723 Q228.148 99.2646 231.76 99.2646 Q235.394 99.2646 237.199 95.723 Q239.028 92.1582 239.028 85.0517 Q239.028 77.9221 237.199 74.3805 Q235.394 70.8157 231.76 70.8157 M231.76 67.112 Q237.57 67.112 240.625 71.7185 Q243.704 76.3018 243.704 85.0517 Q243.704 93.7785 240.625 98.385 Q237.57 102.968 231.76 102.968 Q225.949 102.968 222.871 98.385 Q219.815 93.7785 219.815 85.0517 Q219.815 76.3018 222.871 71.7185 Q225.949 67.112 231.76 67.112 Z" fill="#000000" fill-rule="nonzero" fill-opacity="1" /><path clip-path="url(#clip210)" d="M57.2247 896.821 L44.4614 896.821 L44.4614 907.325 L39.1779 907.325 L39.1779 890.456 L59.58 890.456 Q62.2218 894.18 63.5904 898.667 Q64.9272 903.155 64.9272 908.248 Q64.9272 919.388 58.4342 925.69 Q51.9093 931.96 40.2919 931.96 Q28.6427 931.96 22.1496 925.69 Q15.6248 919.388 15.6248 908.248 Q15.6248 903.601 16.7706 899.431 Q17.9164 895.23 20.1444 891.697 L26.9876 891.697 Q23.9639 895.262 22.4361 899.272 Q20.9083 903.283 20.9083 907.707 Q20.9083 916.428 25.7781 920.82 Q30.6479 925.181 40.2919 925.181 Q49.9041 925.181 54.7739 920.82 Q59.6436 916.428 59.6436 907.707 Q59.6436 904.301 59.0707 901.627 Q58.466 898.954 57.2247 896.821 Z" fill="#000000" fill-rule="nonzero" fill-opacity="1" /><path clip-path="url(#clip210)" d="M21.7677 872.282 L58.7206 872.282 L58.7206 864.515 Q58.7206 854.68 54.2646 850.129 Q49.8086 845.546 40.1964 845.546 Q30.6479 845.546 26.2237 850.129 Q21.7677 854.68 21.7677 864.515 L21.7677 872.282 M16.4842 878.711 L16.4842 865.502 Q16.4842 851.688 22.2451 845.227 Q27.9743 838.766 40.1964 838.766 Q52.4822 838.766 58.2432 845.259 Q64.0042 851.752 64.0042 865.502 L64.0042 878.711 L16.4842 878.711 Z" fill="#000000" fill-rule="nonzero" fill-opacity="1" /><path clip-path="url(#clip210)" d="M21.7677 822.088 L39.6235 822.088 L39.6235 814.004 Q39.6235 809.516 37.3 807.065 Q34.9765 804.614 30.6797 804.614 Q26.4147 804.614 24.0912 807.065 Q21.7677 809.516 21.7677 814.004 L21.7677 822.088 M16.4842 828.517 L16.4842 814.004 Q16.4842 806.015 20.1126 801.94 Q23.7092 797.835 30.6797 797.835 Q37.7138 797.835 41.3104 801.94 Q44.907 806.015 44.907 814.004 L44.907 822.088 L64.0042 822.088 L64.0042 828.517 L16.4842 828.517 Z" fill="#000000" fill-rule="nonzero" fill-opacity="1" /><path clip-path="url(#clip210)" d="M29.7248 743.09 L35.1993 743.09 Q33.8307 745.572 33.1623 748.087 Q32.4621 750.569 32.4621 753.116 Q32.4621 758.813 36.0905 761.964 Q39.6872 765.115 46.212 765.115 Q52.7369 765.115 56.3653 761.964 Q59.9619 758.813 59.9619 753.116 Q59.9619 750.569 59.2935 748.087 Q58.5933 745.572 57.2247 743.09 L62.6355 743.09 Q63.7814 745.54 64.3543 748.182 Q64.9272 750.792 64.9272 753.752 Q64.9272 761.805 59.8664 766.547 Q54.8057 771.29 46.212 771.29 Q37.491 771.29 32.4939 766.515 Q27.4968 761.709 27.4968 753.37 Q27.4968 750.665 28.0697 748.087 Q28.6108 745.508 29.7248 743.09 Z" fill="#000000" fill-rule="nonzero" fill-opacity="1" /><path clip-path="url(#clip210)" d="M42.4881 703.272 L64.0042 703.272 L64.0042 709.128 L42.679 709.128 Q37.6183 709.128 35.1038 711.102 Q32.5894 713.075 32.5894 717.022 Q32.5894 721.764 35.6131 724.502 Q38.6368 727.239 43.8567 727.239 L64.0042 727.239 L64.0042 733.127 L14.479 733.127 L14.479 727.239 L33.8944 727.239 Q30.6797 725.138 29.0883 722.305 Q27.4968 719.441 27.4968 715.717 Q27.4968 709.574 31.3163 706.423 Q35.1038 703.272 42.4881 703.272 Z" fill="#000000" fill-rule="nonzero" fill-opacity="1" /><path clip-path="url(#clip210)" d="M46.0847 675.39 Q46.0847 682.488 47.7079 685.225 Q49.3312 687.963 53.2461 687.963 Q56.3653 687.963 58.2114 685.925 Q60.0256 683.857 60.0256 680.324 Q60.0256 675.454 56.5881 672.526 Q53.1188 669.566 47.3897 669.566 L46.0847 669.566 L46.0847 675.39 M43.6657 663.709 L64.0042 663.709 L64.0042 669.566 L58.5933 669.566 Q61.8398 671.571 63.3994 674.563 Q64.9272 677.555 64.9272 681.883 Q64.9272 687.358 61.8716 690.604 Q58.7843 693.819 53.6281 693.819 Q47.6125 693.819 44.5569 689.809 Q41.5014 685.766 41.5014 677.777 L41.5014 669.566 L40.9285 669.566 Q36.8862 669.566 34.6901 672.239 Q32.4621 674.881 32.4621 679.687 Q32.4621 682.743 33.1941 685.639 Q33.9262 688.535 35.3903 691.209 L29.9795 691.209 Q28.7381 687.994 28.1334 684.971 Q27.4968 681.947 27.4968 679.082 Q27.4968 671.348 31.5072 667.529 Q35.5176 663.709 43.6657 663.709 Z" fill="#000000" fill-rule="nonzero" fill-opacity="1" /><path clip-path="url(#clip210)" d="M42.4881 622.014 L64.0042 622.014 L64.0042 627.87 L42.679 627.87 Q37.6183 627.87 35.1038 629.844 Q32.5894 631.817 32.5894 635.764 Q32.5894 640.506 35.6131 643.243 Q38.6368 645.981 43.8567 645.981 L64.0042 645.981 L64.0042 651.869 L28.3562 651.869 L28.3562 645.981 L33.8944 645.981 Q30.6797 643.88 29.0883 641.047 Q27.4968 638.183 27.4968 634.459 Q27.4968 628.316 31.3163 625.165 Q35.1038 622.014 42.4881 622.014 Z" fill="#000000" fill-rule="nonzero" fill-opacity="1" /><path clip-path="url(#clip210)" d="M45.7664 586.875 Q39.4007 586.875 35.8996 589.517 Q32.3984 592.127 32.3984 596.869 Q32.3984 601.58 35.8996 604.222 Q39.4007 606.832 45.7664 606.832 Q52.1003 606.832 55.6014 604.222 Q59.1026 601.58 59.1026 596.869 Q59.1026 592.127 55.6014 589.517 Q52.1003 586.875 45.7664 586.875 M59.58 581.019 Q68.683 581.019 73.1071 585.061 Q77.5631 589.103 77.5631 597.442 Q77.5631 600.53 77.0857 603.267 Q76.6401 606.004 75.6852 608.582 L69.9879 608.582 Q71.3884 606.004 72.0568 603.49 Q72.7252 600.975 72.7252 598.365 Q72.7252 592.604 69.7015 589.74 Q66.7096 586.875 60.6303 586.875 L57.7339 586.875 Q60.885 588.689 62.4446 591.522 Q64.0042 594.355 64.0042 598.302 Q64.0042 604.858 59.0071 608.869 Q54.01 612.879 45.7664 612.879 Q37.491 612.879 32.4939 608.869 Q27.4968 604.858 27.4968 598.302 Q27.4968 594.355 29.0564 591.522 Q30.616 588.689 33.7671 586.875 L28.3562 586.875 L28.3562 581.019 L59.58 581.019 Z" fill="#000000" fill-rule="nonzero" fill-opacity="1" /><path clip-path="url(#clip210)" d="M44.7161 538.464 L47.5806 538.464 L47.5806 565.391 Q53.6281 565.009 56.8109 561.762 Q59.9619 558.484 59.9619 552.659 Q59.9619 549.286 59.1344 546.135 Q58.3069 542.952 56.6518 539.833 L62.1899 539.833 Q63.5267 542.984 64.227 546.294 Q64.9272 549.604 64.9272 553.01 Q64.9272 561.54 59.9619 566.537 Q54.9967 571.502 46.5303 571.502 Q37.7774 571.502 32.6531 566.791 Q27.4968 562.049 27.4968 554.028 Q27.4968 546.835 32.1438 542.665 Q36.7589 538.464 44.7161 538.464 M42.9973 544.32 Q38.1912 544.384 35.3266 547.026 Q32.4621 549.636 32.4621 553.964 Q32.4621 558.866 35.2312 561.826 Q38.0002 564.754 43.0292 565.2 L42.9973 544.32 Z" fill="#000000" fill-rule="nonzero" fill-opacity="1" /><path clip-path="url(#clip212)" d="M338.375 724.117 L460.607 717.518 L582.839 446.293 L705.071 299.122 L827.303 384.116 L949.534 619.153 L1071.77 674.299 L1194 747.208 L1316.23 1032.9 L1438.46 1020.38 L1560.69 1084.07 L1682.93 1048.03 L1805.16 1153.47 L1927.39 1161.71 L2049.62 1271.74 L2171.85 1316.14 L2294.08 1384.24 L2294.08 878.869 L2171.85 807.077 L2049.62 795.917 L1927.39 724.245 L1805.16 731.219 L1682.93 649.832 L1560.69 700.714 L1438.46 638.637 L1316.23 692.297 L1194 430.66 L1071.77 377.594 L949.534 338.429 L827.303 134.125 L705.071 86.1857 L582.839 249.305 L460.607 571.14 L338.375 724.117  Z" fill="#009af9" fill-rule="evenodd" fill-opacity="0.2"/>
<polyline clip-path="url(#clip212)" style="stroke:#009af9; stroke-linecap:round; stroke-linejoin:round; stroke-width:4; stroke-opacity:1; fill:none" points="338.375,724.117 460.607,644.329 582.839,347.799 705.071,192.654 827.303,259.12 949.534,478.791 1071.77,525.946 1194,588.934 1316.23,862.599 1438.46,829.511 1560.69,892.39 1682.93,848.931 1805.16,942.342 1927.39,942.978 2049.62,1033.83 2171.85,1061.61 2294.08,1131.55 "/>
</svg>
