<?xml version="1.0" encoding="utf-8"?>
<svg xmlns="http://www.w3.org/2000/svg" xmlns:xlink="http://www.w3.org/1999/xlink" width="600" height="400" viewBox="0 0 2400 1600">
<defs>
  <clipPath id="clip440">
    <rect x="0" y="0" width="2400" height="1600"/>
  </clipPath>
</defs>
<path clip-path="url(#clip440)" d="M0 1600 L2400 1600 L2400 0 L0 0  Z" fill="#ffffff" fill-rule="evenodd" fill-opacity="1"/>
<defs>
  <clipPath id="clip441">
    <rect x="480" y="0" width="1681" height="1600"/>
  </clipPath>
</defs>
<path clip-path="url(#clip440)" d="M307.782 1423.18 L2352.76 1423.18 L2352.76 47.2441 L307.782 47.2441  Z" fill="#ffffff" fill-rule="evenodd" fill-opacity="1"/>
<defs>
  <clipPath id="clip442">
    <rect x="307" y="47" width="2046" height="1377"/>
  </clipPath>
</defs>
<polyline clip-path="url(#clip442)" style="stroke:#000000; stroke-linecap:round; stroke-linejoin:round; stroke-width:2; stroke-opacity:0.1; fill:none" points="606.812,1423.18 606.812,47.2441 "/>
<polyline clip-path="url(#clip442)" style="stroke:#000000; stroke-linecap:round; stroke-linejoin:round; stroke-width:2; stroke-opacity:0.1; fill:none" points="968.54,1423.18 968.54,47.2441 "/>
<polyline clip-path="url(#clip442)" style="stroke:#000000; stroke-linecap:round; stroke-linejoin:round; stroke-width:2; stroke-opacity:0.1; fill:none" points="1330.27,1423.18 1330.27,47.2441 "/>
<polyline clip-path="url(#clip442)" style="stroke:#000000; stroke-linecap:round; stroke-linejoin:round; stroke-width:2; stroke-opacity:0.1; fill:none" points="1692,1423.18 1692,47.2441 "/>
<polyline clip-path="url(#clip442)" style="stroke:#000000; stroke-linecap:round; stroke-linejoin:round; stroke-width:2; stroke-opacity:0.1; fill:none" points="2053.73,1423.18 2053.73,47.2441 "/>
<polyline clip-path="url(#clip442)" style="stroke:#000000; stroke-linecap:round; stroke-linejoin:round; stroke-width:2; stroke-opacity:0.1; fill:none" points="307.782,1189.13 2352.76,1189.13 "/>
<polyline clip-path="url(#clip442)" style="stroke:#000000; stroke-linecap:round; stroke-linejoin:round; stroke-width:2; stroke-opacity:0.1; fill:none" points="307.782,934.306 2352.76,934.306 "/>
<polyline clip-path="url(#clip442)" style="stroke:#000000; stroke-linecap:round; stroke-linejoin:round; stroke-width:2; stroke-opacity:0.1; fill:none" points="307.782,679.48 2352.76,679.48 "/>
<polyline clip-path="url(#clip442)" style="stroke:#000000; stroke-linecap:round; stroke-linejoin:round; stroke-width:2; stroke-opacity:0.1; fill:none" points="307.782,424.655 2352.76,424.655 "/>
<polyline clip-path="url(#clip442)" style="stroke:#000000; stroke-linecap:round; stroke-linejoin:round; stroke-width:2; stroke-opacity:0.1; fill:none" points="307.782,169.83 2352.76,169.83 "/>
<polyline clip-path="url(#clip440)" style="stroke:#000000; stroke-linecap:round; stroke-linejoin:round; stroke-width:4; stroke-opacity:1; fill:none" points="307.782,1423.18 2352.76,1423.18 "/>
<polyline clip-path="url(#clip440)" style="stroke:#000000; stroke-linecap:round; stroke-linejoin:round; stroke-width:4; stroke-opacity:1; fill:none" points="606.812,1423.18 606.812,1404.28 "/>
<polyline clip-path="url(#clip440)" style="stroke:#000000; stroke-linecap:round; stroke-linejoin:round; stroke-width:4; stroke-opacity:1; fill:none" points="968.54,1423.18 968.54,1404.28 "/>
<polyline clip-path="url(#clip440)" style="stroke:#000000; stroke-linecap:round; stroke-linejoin:round; stroke-width:4; stroke-opacity:1; fill:none" points="1330.27,1423.18 1330.27,1404.28 "/>
<polyline clip-path="url(#clip440)" style="stroke:#000000; stroke-linecap:round; stroke-linejoin:round; stroke-width:4; stroke-opacity:1; fill:none" points="1692,1423.18 1692,1404.28 "/>
<polyline clip-path="url(#clip440)" style="stroke:#000000; stroke-linecap:round; stroke-linejoin:round; stroke-width:4; stroke-opacity:1; fill:none" points="2053.73,1423.18 2053.73,1404.28 "/>
<path clip-path="url(#clip440)" d="M611.059 1466.95 Q614.416 1467.66 616.291 1469.93 Q618.189 1472.2 618.189 1475.53 Q618.189 1480.65 614.67 1483.45 Q611.152 1486.25 604.67 1486.25 Q602.494 1486.25 600.18 1485.81 Q597.888 1485.39 595.434 1484.54 L595.434 1480.02 Q597.379 1481.16 599.694 1481.74 Q602.008 1482.32 604.532 1482.32 Q608.93 1482.32 611.221 1480.58 Q613.536 1478.84 613.536 1475.53 Q613.536 1472.48 611.383 1470.77 Q609.254 1469.03 605.434 1469.03 L601.407 1469.03 L601.407 1465.19 L605.619 1465.19 Q609.069 1465.19 610.897 1463.82 Q612.726 1462.43 612.726 1459.84 Q612.726 1457.18 610.828 1455.77 Q608.953 1454.33 605.434 1454.33 Q603.513 1454.33 601.314 1454.75 Q599.115 1455.16 596.476 1456.04 L596.476 1451.88 Q599.138 1451.14 601.453 1450.77 Q603.791 1450.39 605.851 1450.39 Q611.175 1450.39 614.277 1452.83 Q617.379 1455.23 617.379 1459.35 Q617.379 1462.22 615.735 1464.21 Q614.092 1466.18 611.059 1466.95 Z" fill="#000000" fill-rule="nonzero" fill-opacity="1" /><path clip-path="url(#clip440)" d="M968.945 1466.44 Q965.797 1466.44 963.946 1468.59 Q962.117 1470.74 962.117 1474.49 Q962.117 1478.22 963.946 1480.39 Q965.797 1482.55 968.945 1482.55 Q972.094 1482.55 973.922 1480.39 Q975.774 1478.22 975.774 1474.49 Q975.774 1470.74 973.922 1468.59 Q972.094 1466.44 968.945 1466.44 M978.228 1451.78 L978.228 1456.04 Q976.469 1455.21 974.663 1454.77 Q972.881 1454.33 971.121 1454.33 Q966.492 1454.33 964.038 1457.45 Q961.608 1460.58 961.26 1466.9 Q962.626 1464.89 964.686 1463.82 Q966.746 1462.73 969.223 1462.73 Q974.432 1462.73 977.441 1465.9 Q980.473 1469.05 980.473 1474.49 Q980.473 1479.82 977.325 1483.03 Q974.177 1486.25 968.945 1486.25 Q962.95 1486.25 959.779 1481.67 Q956.608 1477.06 956.608 1468.33 Q956.608 1460.14 960.496 1455.28 Q964.385 1450.39 970.936 1450.39 Q972.695 1450.39 974.478 1450.74 Q976.283 1451.09 978.228 1451.78 Z" fill="#000000" fill-rule="nonzero" fill-opacity="1" /><path clip-path="url(#clip440)" d="M1320.57 1484.86 L1320.57 1480.6 Q1322.33 1481.44 1324.13 1481.88 Q1325.94 1482.32 1327.68 1482.32 Q1332.31 1482.32 1334.74 1479.21 Q1337.19 1476.09 1337.54 1469.75 Q1336.2 1471.74 1334.13 1472.8 Q1332.07 1473.87 1329.57 1473.87 Q1324.39 1473.87 1321.36 1470.74 Q1318.35 1467.59 1318.35 1462.15 Q1318.35 1456.83 1321.5 1453.61 Q1324.64 1450.39 1329.88 1450.39 Q1335.87 1450.39 1339.02 1455 Q1342.19 1459.58 1342.19 1468.33 Q1342.19 1476.51 1338.3 1481.39 Q1334.44 1486.25 1327.88 1486.25 Q1326.13 1486.25 1324.32 1485.9 Q1322.51 1485.56 1320.57 1484.86 M1329.88 1470.21 Q1333.02 1470.21 1334.85 1468.06 Q1336.7 1465.9 1336.7 1462.15 Q1336.7 1458.43 1334.85 1456.27 Q1333.02 1454.1 1329.88 1454.1 Q1326.73 1454.1 1324.88 1456.27 Q1323.05 1458.43 1323.05 1462.15 Q1323.05 1465.9 1324.88 1468.06 Q1326.73 1470.21 1329.88 1470.21 Z" fill="#000000" fill-rule="nonzero" fill-opacity="1" /><path clip-path="url(#clip440)" d="M1667.48 1481.64 L1675.12 1481.64 L1675.12 1455.28 L1666.81 1456.95 L1666.81 1452.69 L1675.08 1451.02 L1679.75 1451.02 L1679.75 1481.64 L1687.39 1481.64 L1687.39 1485.58 L1667.48 1485.58 L1667.48 1481.64 Z" fill="#000000" fill-rule="nonzero" fill-opacity="1" /><path clip-path="url(#clip440)" d="M1700.86 1481.64 L1717.18 1481.64 L1717.18 1485.58 L1695.24 1485.58 L1695.24 1481.64 Q1697.9 1478.89 1702.48 1474.26 Q1707.09 1469.61 1708.27 1468.27 Q1710.52 1465.74 1711.4 1464.01 Q1712.3 1462.25 1712.3 1460.56 Q1712.3 1457.8 1710.35 1456.07 Q1708.43 1454.33 1705.33 1454.33 Q1703.13 1454.33 1700.68 1455.09 Q1698.25 1455.86 1695.47 1457.41 L1695.47 1452.69 Q1698.29 1451.55 1700.75 1450.97 Q1703.2 1450.39 1705.24 1450.39 Q1710.61 1450.39 1713.8 1453.08 Q1717 1455.77 1717 1460.26 Q1717 1462.39 1716.19 1464.31 Q1715.4 1466.2 1713.29 1468.8 Q1712.72 1469.47 1709.61 1472.69 Q1706.51 1475.88 1700.86 1481.64 Z" fill="#000000" fill-rule="nonzero" fill-opacity="1" /><path clip-path="url(#clip440)" d="M2028.91 1481.64 L2036.55 1481.64 L2036.55 1455.28 L2028.24 1456.95 L2028.24 1452.69 L2036.5 1451.02 L2041.18 1451.02 L2041.18 1481.64 L2048.82 1481.64 L2048.82 1485.58 L2028.91 1485.58 L2028.91 1481.64 Z" fill="#000000" fill-rule="nonzero" fill-opacity="1" /><path clip-path="url(#clip440)" d="M2058.31 1451.02 L2076.67 1451.02 L2076.67 1454.96 L2062.59 1454.96 L2062.59 1463.43 Q2063.61 1463.08 2064.63 1462.92 Q2065.65 1462.73 2066.67 1462.73 Q2072.45 1462.73 2075.83 1465.9 Q2079.21 1469.08 2079.21 1474.49 Q2079.21 1480.07 2075.74 1483.17 Q2072.27 1486.25 2065.95 1486.25 Q2063.77 1486.25 2061.5 1485.88 Q2059.26 1485.51 2056.85 1484.77 L2056.85 1480.07 Q2058.94 1481.2 2061.16 1481.76 Q2063.38 1482.32 2065.86 1482.32 Q2069.86 1482.32 2072.2 1480.21 Q2074.54 1478.1 2074.54 1474.49 Q2074.54 1470.88 2072.2 1468.77 Q2069.86 1466.67 2065.86 1466.67 Q2063.98 1466.67 2062.11 1467.08 Q2060.25 1467.5 2058.31 1468.38 L2058.31 1451.02 Z" fill="#000000" fill-rule="nonzero" fill-opacity="1" /><path clip-path="url(#clip440)" d="M1201.78 1550.25 Q1201.78 1556.71 1204.42 1560.4 Q1207.09 1564.07 1211.74 1564.07 Q1216.39 1564.07 1219.06 1560.4 Q1221.73 1556.71 1221.73 1550.25 Q1221.73 1543.79 1219.06 1540.13 Q1216.39 1536.44 1211.74 1536.44 Q1207.09 1536.44 1204.42 1540.13 Q1201.78 1543.79 1201.78 1550.25 M1221.73 1562.7 Q1219.89 1565.88 1217.06 1567.44 Q1214.25 1568.97 1210.31 1568.97 Q1203.85 1568.97 1199.77 1563.81 Q1195.73 1558.65 1195.73 1550.25 Q1195.73 1541.85 1199.77 1536.69 Q1203.85 1531.54 1210.31 1531.54 Q1214.25 1531.54 1217.06 1533.1 Q1219.89 1534.62 1221.73 1537.81 L1221.73 1532.4 L1227.59 1532.4 L1227.59 1581.6 L1221.73 1581.6 L1221.73 1562.7 Z" fill="#000000" fill-rule="nonzero" fill-opacity="1" /><path clip-path="url(#clip440)" d="M1239.05 1553.98 L1239.05 1532.4 L1244.91 1532.4 L1244.91 1553.75 Q1244.91 1558.81 1246.88 1561.36 Q1248.85 1563.87 1252.8 1563.87 Q1257.54 1563.87 1260.28 1560.85 Q1263.05 1557.83 1263.05 1552.61 L1263.05 1532.4 L1268.9 1532.4 L1268.9 1568.04 L1263.05 1568.04 L1263.05 1562.57 Q1260.91 1565.82 1258.08 1567.41 Q1255.28 1568.97 1251.56 1568.97 Q1245.41 1568.97 1242.23 1565.15 Q1239.05 1561.33 1239.05 1553.98 M1253.79 1531.54 L1253.79 1531.54 Z" fill="#000000" fill-rule="nonzero" fill-opacity="1" /><path clip-path="url(#clip440)" d="M1297.17 1550.12 Q1290.07 1550.12 1287.33 1551.75 Q1284.6 1553.37 1284.6 1557.29 Q1284.6 1560.4 1286.63 1562.25 Q1288.7 1564.07 1292.23 1564.07 Q1297.1 1564.07 1300.03 1560.63 Q1302.99 1557.16 1302.99 1551.43 L1302.99 1550.12 L1297.17 1550.12 M1308.85 1547.71 L1308.85 1568.04 L1302.99 1568.04 L1302.99 1562.63 Q1300.99 1565.88 1298 1567.44 Q1295 1568.97 1290.67 1568.97 Q1285.2 1568.97 1281.95 1565.91 Q1278.74 1562.82 1278.74 1557.67 Q1278.74 1551.65 1282.75 1548.6 Q1286.79 1545.54 1294.78 1545.54 L1302.99 1545.54 L1302.99 1544.97 Q1302.99 1540.93 1300.32 1538.73 Q1297.68 1536.5 1292.87 1536.5 Q1289.82 1536.5 1286.92 1537.23 Q1284.02 1537.97 1281.35 1539.43 L1281.35 1534.02 Q1284.56 1532.78 1287.59 1532.17 Q1290.61 1531.54 1293.48 1531.54 Q1301.21 1531.54 1305.03 1535.55 Q1308.85 1539.56 1308.85 1547.71 Z" fill="#000000" fill-rule="nonzero" fill-opacity="1" /><path clip-path="url(#clip440)" d="M1341.57 1537.87 Q1340.58 1537.3 1339.4 1537.04 Q1338.26 1536.76 1336.86 1536.76 Q1331.89 1536.76 1329.22 1540 Q1326.58 1543.22 1326.58 1549.27 L1326.58 1568.04 L1320.69 1568.04 L1320.69 1532.4 L1326.58 1532.4 L1326.58 1537.93 Q1328.42 1534.69 1331.38 1533.13 Q1334.34 1531.54 1338.58 1531.54 Q1339.18 1531.54 1339.91 1531.63 Q1340.65 1531.7 1341.54 1531.85 L1341.57 1537.87 Z" fill="#000000" fill-rule="nonzero" fill-opacity="1" /><path clip-path="url(#clip440)" d="M1353.5 1522.27 L1353.5 1532.4 L1365.57 1532.4 L1365.57 1536.95 L1353.5 1536.95 L1353.5 1556.3 Q1353.5 1560.66 1354.68 1561.9 Q1355.89 1563.14 1359.55 1563.14 L1365.57 1563.14 L1365.57 1568.04 L1359.55 1568.04 Q1352.77 1568.04 1350.19 1565.53 Q1347.62 1562.98 1347.62 1556.3 L1347.62 1536.95 L1343.32 1536.95 L1343.32 1532.4 L1347.62 1532.4 L1347.62 1522.27 L1353.5 1522.27 Z" fill="#000000" fill-rule="nonzero" fill-opacity="1" /><path clip-path="url(#clip440)" d="M1403.76 1548.76 L1403.76 1551.62 L1376.83 1551.62 Q1377.22 1557.67 1380.46 1560.85 Q1383.74 1564 1389.57 1564 Q1392.94 1564 1396.09 1563.17 Q1399.27 1562.35 1402.39 1560.69 L1402.39 1566.23 Q1399.24 1567.57 1395.93 1568.27 Q1392.62 1568.97 1389.22 1568.97 Q1380.69 1568.97 1375.69 1564 Q1370.72 1559.04 1370.72 1550.57 Q1370.72 1541.82 1375.43 1536.69 Q1380.18 1531.54 1388.2 1531.54 Q1395.39 1531.54 1399.56 1536.18 Q1403.76 1540.8 1403.76 1548.76 M1397.9 1547.04 Q1397.84 1542.23 1395.2 1539.37 Q1392.59 1536.5 1388.26 1536.5 Q1383.36 1536.5 1380.4 1539.27 Q1377.47 1542.04 1377.03 1547.07 L1397.9 1547.04 Z" fill="#000000" fill-rule="nonzero" fill-opacity="1" /><path clip-path="url(#clip440)" d="M1434.03 1537.87 Q1433.04 1537.3 1431.87 1537.04 Q1430.72 1536.76 1429.32 1536.76 Q1424.35 1536.76 1421.68 1540 Q1419.04 1543.22 1419.04 1549.27 L1419.04 1568.04 L1413.15 1568.04 L1413.15 1532.4 L1419.04 1532.4 L1419.04 1537.93 Q1420.89 1534.69 1423.85 1533.13 Q1426.81 1531.54 1431.04 1531.54 Q1431.64 1531.54 1432.38 1531.63 Q1433.11 1531.7 1434 1531.85 L1434.03 1537.87 Z" fill="#000000" fill-rule="nonzero" fill-opacity="1" /><path clip-path="url(#clip440)" d="M1462.9 1533.45 L1462.9 1538.98 Q1460.42 1537.71 1457.74 1537.07 Q1455.07 1536.44 1452.2 1536.44 Q1447.84 1536.44 1445.65 1537.77 Q1443.48 1539.11 1443.48 1541.79 Q1443.48 1543.82 1445.04 1545 Q1446.6 1546.15 1451.31 1547.2 L1453.32 1547.64 Q1459.56 1548.98 1462.17 1551.43 Q1464.81 1553.85 1464.81 1558.21 Q1464.81 1563.17 1460.86 1566.07 Q1456.95 1568.97 1450.07 1568.97 Q1447.21 1568.97 1444.09 1568.39 Q1441 1567.85 1437.56 1566.74 L1437.56 1560.69 Q1440.81 1562.38 1443.96 1563.24 Q1447.11 1564.07 1450.2 1564.07 Q1454.34 1564.07 1456.56 1562.66 Q1458.79 1561.23 1458.79 1558.65 Q1458.79 1556.27 1457.17 1554.99 Q1455.58 1553.72 1450.14 1552.54 L1448.1 1552.07 Q1442.66 1550.92 1440.24 1548.56 Q1437.82 1546.18 1437.82 1542.04 Q1437.82 1537.01 1441.38 1534.27 Q1444.95 1531.54 1451.5 1531.54 Q1454.75 1531.54 1457.62 1532.01 Q1460.48 1532.49 1462.9 1533.45 Z" fill="#000000" fill-rule="nonzero" fill-opacity="1" /><polyline clip-path="url(#clip440)" style="stroke:#000000; stroke-linecap:round; stroke-linejoin:round; stroke-width:4; stroke-opacity:1; fill:none" points="307.782,1423.18 307.782,47.2441 "/>
<polyline clip-path="url(#clip440)" style="stroke:#000000; stroke-linecap:round; stroke-linejoin:round; stroke-width:4; stroke-opacity:1; fill:none" points="307.782,1189.13 326.68,1189.13 "/>
<polyline clip-path="url(#clip440)" style="stroke:#000000; stroke-linecap:round; stroke-linejoin:round; stroke-width:4; stroke-opacity:1; fill:none" points="307.782,934.306 326.68,934.306 "/>
<polyline clip-path="url(#clip440)" style="stroke:#000000; stroke-linecap:round; stroke-linejoin:round; stroke-width:4; stroke-opacity:1; fill:none" points="307.782,679.48 326.68,679.48 "/>
<polyline clip-path="url(#clip440)" style="stroke:#000000; stroke-linecap:round; stroke-linejoin:round; stroke-width:4; stroke-opacity:1; fill:none" points="307.782,424.655 326.68,424.655 "/>
<polyline clip-path="url(#clip440)" style="stroke:#000000; stroke-linecap:round; stroke-linejoin:round; stroke-width:4; stroke-opacity:1; fill:none" points="307.782,169.83 326.68,169.83 "/>
<path clip-path="url(#clip440)" d="M114.931 1202.48 L122.57 1202.48 L122.57 1176.11 L114.26 1177.78 L114.26 1173.52 L122.524 1171.85 L127.2 1171.85 L127.2 1202.48 L134.839 1202.48 L134.839 1206.41 L114.931 1206.41 L114.931 1202.48 Z" fill="#000000" fill-rule="nonzero" fill-opacity="1" /><path clip-path="url(#clip440)" d="M144.283 1200.53 L149.167 1200.53 L149.167 1206.41 L144.283 1206.41 L144.283 1200.53 Z" fill="#000000" fill-rule="nonzero" fill-opacity="1" /><path clip-path="url(#clip440)" d="M169.352 1174.93 Q165.741 1174.93 163.913 1178.49 Q162.107 1182.04 162.107 1189.17 Q162.107 1196.27 163.913 1199.84 Q165.741 1203.38 169.352 1203.38 Q172.987 1203.38 174.792 1199.84 Q176.621 1196.27 176.621 1189.17 Q176.621 1182.04 174.792 1178.49 Q172.987 1174.93 169.352 1174.93 M169.352 1171.23 Q175.163 1171.23 178.218 1175.83 Q181.297 1180.42 181.297 1189.17 Q181.297 1197.89 178.218 1202.5 Q175.163 1207.08 169.352 1207.08 Q163.542 1207.08 160.464 1202.5 Q157.408 1197.89 157.408 1189.17 Q157.408 1180.42 160.464 1175.83 Q163.542 1171.23 169.352 1171.23 Z" fill="#000000" fill-rule="nonzero" fill-opacity="1" /><path clip-path="url(#clip440)" d="M199.514 1174.93 Q195.903 1174.93 194.075 1178.49 Q192.269 1182.04 192.269 1189.17 Q192.269 1196.27 194.075 1199.84 Q195.903 1203.38 199.514 1203.38 Q203.149 1203.38 204.954 1199.84 Q206.783 1196.27 206.783 1189.17 Q206.783 1182.04 204.954 1178.49 Q203.149 1174.93 199.514 1174.93 M199.514 1171.23 Q205.324 1171.23 208.38 1175.83 Q211.459 1180.42 211.459 1189.17 Q211.459 1197.89 208.38 1202.5 Q205.324 1207.08 199.514 1207.08 Q193.704 1207.08 190.625 1202.5 Q187.57 1197.89 187.57 1189.17 Q187.57 1180.42 190.625 1175.83 Q193.704 1171.23 199.514 1171.23 Z" fill="#000000" fill-rule="nonzero" fill-opacity="1" /><path clip-path="url(#clip440)" d="M229.676 1174.93 Q226.065 1174.93 224.236 1178.49 Q222.431 1182.04 222.431 1189.17 Q222.431 1196.27 224.236 1199.84 Q226.065 1203.38 229.676 1203.38 Q233.31 1203.38 235.116 1199.84 Q236.945 1196.27 236.945 1189.17 Q236.945 1182.04 235.116 1178.49 Q233.31 1174.93 229.676 1174.93 M229.676 1171.23 Q235.486 1171.23 238.542 1175.83 Q241.621 1180.42 241.621 1189.17 Q241.621 1197.89 238.542 1202.5 Q235.486 1207.08 229.676 1207.08 Q223.866 1207.08 220.787 1202.5 Q217.732 1197.89 217.732 1189.17 Q217.732 1180.42 220.787 1175.83 Q223.866 1171.23 229.676 1171.23 Z" fill="#000000" fill-rule="nonzero" fill-opacity="1" /><path clip-path="url(#clip440)" d="M259.838 1174.93 Q256.227 1174.93 254.398 1178.49 Q252.593 1182.04 252.593 1189.17 Q252.593 1196.27 254.398 1199.84 Q256.227 1203.38 259.838 1203.38 Q263.472 1203.38 265.278 1199.84 Q267.107 1196.27 267.107 1189.17 Q267.107 1182.04 265.278 1178.49 Q263.472 1174.93 259.838 1174.93 M259.838 1171.23 Q265.648 1171.23 268.704 1175.83 Q271.782 1180.42 271.782 1189.17 Q271.782 1197.89 268.704 1202.5 Q265.648 1207.08 259.838 1207.08 Q254.028 1207.08 250.949 1202.5 Q247.894 1197.89 247.894 1189.17 Q247.894 1180.42 250.949 1175.83 Q254.028 1171.23 259.838 1171.23 Z" fill="#000000" fill-rule="nonzero" fill-opacity="1" /><path clip-path="url(#clip440)" d="M115.927 947.65 L123.566 947.65 L123.566 921.285 L115.256 922.952 L115.256 918.692 L123.519 917.026 L128.195 917.026 L128.195 947.65 L135.834 947.65 L135.834 951.586 L115.927 951.586 L115.927 947.65 Z" fill="#000000" fill-rule="nonzero" fill-opacity="1" /><path clip-path="url(#clip440)" d="M145.279 945.706 L150.163 945.706 L150.163 951.586 L145.279 951.586 L145.279 945.706 Z" fill="#000000" fill-rule="nonzero" fill-opacity="1" /><path clip-path="url(#clip440)" d="M170.348 920.104 Q166.737 920.104 164.908 923.669 Q163.102 927.211 163.102 934.34 Q163.102 941.447 164.908 945.012 Q166.737 948.553 170.348 948.553 Q173.982 948.553 175.788 945.012 Q177.616 941.447 177.616 934.34 Q177.616 927.211 175.788 923.669 Q173.982 920.104 170.348 920.104 M170.348 916.401 Q176.158 916.401 179.214 921.007 Q182.292 925.59 182.292 934.34 Q182.292 943.067 179.214 947.674 Q176.158 952.257 170.348 952.257 Q164.538 952.257 161.459 947.674 Q158.403 943.067 158.403 934.34 Q158.403 925.59 161.459 921.007 Q164.538 916.401 170.348 916.401 Z" fill="#000000" fill-rule="nonzero" fill-opacity="1" /><path clip-path="url(#clip440)" d="M200.51 920.104 Q196.899 920.104 195.07 923.669 Q193.264 927.211 193.264 934.34 Q193.264 941.447 195.07 945.012 Q196.899 948.553 200.51 948.553 Q204.144 948.553 205.949 945.012 Q207.778 941.447 207.778 934.34 Q207.778 927.211 205.949 923.669 Q204.144 920.104 200.51 920.104 M200.51 916.401 Q206.32 916.401 209.375 921.007 Q212.454 925.59 212.454 934.34 Q212.454 943.067 209.375 947.674 Q206.32 952.257 200.51 952.257 Q194.7 952.257 191.621 947.674 Q188.565 943.067 188.565 934.34 Q188.565 925.59 191.621 921.007 Q194.7 916.401 200.51 916.401 Z" fill="#000000" fill-rule="nonzero" fill-opacity="1" /><path clip-path="url(#clip440)" d="M224.699 947.65 L241.019 947.65 L241.019 951.586 L219.074 951.586 L219.074 947.65 Q221.736 944.896 226.32 940.266 Q230.926 935.613 232.107 934.271 Q234.352 931.748 235.232 930.012 Q236.135 928.252 236.135 926.563 Q236.135 923.808 234.19 922.072 Q232.269 920.336 229.167 920.336 Q226.968 920.336 224.514 921.1 Q222.084 921.864 219.306 923.414 L219.306 918.692 Q222.13 917.558 224.584 916.979 Q227.037 916.401 229.074 916.401 Q234.445 916.401 237.639 919.086 Q240.834 921.771 240.834 926.262 Q240.834 928.391 240.023 930.313 Q239.236 932.211 237.13 934.803 Q236.551 935.475 233.449 938.692 Q230.347 941.887 224.699 947.65 Z" fill="#000000" fill-rule="nonzero" fill-opacity="1" /><path clip-path="url(#clip440)" d="M250.88 917.026 L269.236 917.026 L269.236 920.961 L255.162 920.961 L255.162 929.433 Q256.181 929.086 257.199 928.924 Q258.218 928.739 259.236 928.739 Q265.023 928.739 268.403 931.91 Q271.782 935.081 271.782 940.498 Q271.782 946.076 268.31 949.178 Q264.838 952.257 258.519 952.257 Q256.343 952.257 254.074 951.887 Q251.829 951.516 249.421 950.775 L249.421 946.076 Q251.505 947.211 253.727 947.766 Q255.949 948.322 258.426 948.322 Q262.431 948.322 264.769 946.215 Q267.107 944.109 267.107 940.498 Q267.107 936.887 264.769 934.78 Q262.431 932.674 258.426 932.674 Q256.551 932.674 254.676 933.09 Q252.824 933.507 250.88 934.387 L250.88 917.026 Z" fill="#000000" fill-rule="nonzero" fill-opacity="1" /><path clip-path="url(#clip440)" d="M114.931 692.825 L122.57 692.825 L122.57 666.46 L114.26 668.126 L114.26 663.867 L122.524 662.2 L127.2 662.2 L127.2 692.825 L134.839 692.825 L134.839 696.76 L114.931 696.76 L114.931 692.825 Z" fill="#000000" fill-rule="nonzero" fill-opacity="1" /><path clip-path="url(#clip440)" d="M144.283 690.881 L149.167 690.881 L149.167 696.76 L144.283 696.76 L144.283 690.881 Z" fill="#000000" fill-rule="nonzero" fill-opacity="1" /><path clip-path="url(#clip440)" d="M169.352 665.279 Q165.741 665.279 163.913 668.844 Q162.107 672.385 162.107 679.515 Q162.107 686.622 163.913 690.186 Q165.741 693.728 169.352 693.728 Q172.987 693.728 174.792 690.186 Q176.621 686.622 176.621 679.515 Q176.621 672.385 174.792 668.844 Q172.987 665.279 169.352 665.279 M169.352 661.575 Q175.163 661.575 178.218 666.182 Q181.297 670.765 181.297 679.515 Q181.297 688.242 178.218 692.848 Q175.163 697.432 169.352 697.432 Q163.542 697.432 160.464 692.848 Q157.408 688.242 157.408 679.515 Q157.408 670.765 160.464 666.182 Q163.542 661.575 169.352 661.575 Z" fill="#000000" fill-rule="nonzero" fill-opacity="1" /><path clip-path="url(#clip440)" d="M199.514 665.279 Q195.903 665.279 194.075 668.844 Q192.269 672.385 192.269 679.515 Q192.269 686.622 194.075 690.186 Q195.903 693.728 199.514 693.728 Q203.149 693.728 204.954 690.186 Q206.783 686.622 206.783 679.515 Q206.783 672.385 204.954 668.844 Q203.149 665.279 199.514 665.279 M199.514 661.575 Q205.324 661.575 208.38 666.182 Q211.459 670.765 211.459 679.515 Q211.459 688.242 208.38 692.848 Q205.324 697.432 199.514 697.432 Q193.704 697.432 190.625 692.848 Q187.57 688.242 187.57 679.515 Q187.57 670.765 190.625 666.182 Q193.704 661.575 199.514 661.575 Z" fill="#000000" fill-rule="nonzero" fill-opacity="1" /><path clip-path="url(#clip440)" d="M219.723 662.2 L238.079 662.2 L238.079 666.136 L224.005 666.136 L224.005 674.608 Q225.023 674.26 226.042 674.098 Q227.06 673.913 228.079 673.913 Q233.866 673.913 237.246 677.085 Q240.625 680.256 240.625 685.672 Q240.625 691.251 237.153 694.353 Q233.681 697.432 227.361 697.432 Q225.185 697.432 222.917 697.061 Q220.672 696.691 218.264 695.95 L218.264 691.251 Q220.348 692.385 222.57 692.941 Q224.792 693.496 227.269 693.496 Q231.273 693.496 233.611 691.39 Q235.949 689.284 235.949 685.672 Q235.949 682.061 233.611 679.955 Q231.273 677.848 227.269 677.848 Q225.394 677.848 223.519 678.265 Q221.667 678.682 219.723 679.561 L219.723 662.2 Z" fill="#000000" fill-rule="nonzero" fill-opacity="1" /><path clip-path="url(#clip440)" d="M259.838 665.279 Q256.227 665.279 254.398 668.844 Q252.593 672.385 252.593 679.515 Q252.593 686.622 254.398 690.186 Q256.227 693.728 259.838 693.728 Q263.472 693.728 265.278 690.186 Q267.107 686.622 267.107 679.515 Q267.107 672.385 265.278 668.844 Q263.472 665.279 259.838 665.279 M259.838 661.575 Q265.648 661.575 268.704 666.182 Q271.782 670.765 271.782 679.515 Q271.782 688.242 268.704 692.848 Q265.648 697.432 259.838 697.432 Q254.028 697.432 250.949 692.848 Q247.894 688.242 247.894 679.515 Q247.894 670.765 250.949 666.182 Q254.028 661.575 259.838 661.575 Z" fill="#000000" fill-rule="nonzero" fill-opacity="1" /><path clip-path="url(#clip440)" d="M115.927 438 L123.566 438 L123.566 411.634 L115.256 413.301 L115.256 409.042 L123.519 407.375 L128.195 407.375 L128.195 438 L135.834 438 L135.834 441.935 L115.927 441.935 L115.927 438 Z" fill="#000000" fill-rule="nonzero" fill-opacity="1" /><path clip-path="url(#clip440)" d="M145.279 436.055 L150.163 436.055 L150.163 441.935 L145.279 441.935 L145.279 436.055 Z" fill="#000000" fill-rule="nonzero" fill-opacity="1" /><path clip-path="url(#clip440)" d="M170.348 410.454 Q166.737 410.454 164.908 414.019 Q163.102 417.56 163.102 424.69 Q163.102 431.796 164.908 435.361 Q166.737 438.903 170.348 438.903 Q173.982 438.903 175.788 435.361 Q177.616 431.796 177.616 424.69 Q177.616 417.56 175.788 414.019 Q173.982 410.454 170.348 410.454 M170.348 406.75 Q176.158 406.75 179.214 411.357 Q182.292 415.94 182.292 424.69 Q182.292 433.417 179.214 438.023 Q176.158 442.606 170.348 442.606 Q164.538 442.606 161.459 438.023 Q158.403 433.417 158.403 424.69 Q158.403 415.94 161.459 411.357 Q164.538 406.75 170.348 406.75 Z" fill="#000000" fill-rule="nonzero" fill-opacity="1" /><path clip-path="url(#clip440)" d="M200.51 410.454 Q196.899 410.454 195.07 414.019 Q193.264 417.56 193.264 424.69 Q193.264 431.796 195.07 435.361 Q196.899 438.903 200.51 438.903 Q204.144 438.903 205.949 435.361 Q207.778 431.796 207.778 424.69 Q207.778 417.56 205.949 414.019 Q204.144 410.454 200.51 410.454 M200.51 406.75 Q206.32 406.75 209.375 411.357 Q212.454 415.94 212.454 424.69 Q212.454 433.417 209.375 438.023 Q206.32 442.606 200.51 442.606 Q194.7 442.606 191.621 438.023 Q188.565 433.417 188.565 424.69 Q188.565 415.94 191.621 411.357 Q194.7 406.75 200.51 406.75 Z" fill="#000000" fill-rule="nonzero" fill-opacity="1" /><path clip-path="url(#clip440)" d="M219.491 407.375 L241.713 407.375 L241.713 409.366 L229.167 441.935 L224.283 441.935 L236.088 411.31 L219.491 411.31 L219.491 407.375 Z" fill="#000000" fill-rule="nonzero" fill-opacity="1" /><path clip-path="url(#clip440)" d="M250.88 407.375 L269.236 407.375 L269.236 411.31 L255.162 411.31 L255.162 419.782 Q256.181 419.435 257.199 419.273 Q258.218 419.088 259.236 419.088 Q265.023 419.088 268.403 422.259 Q271.782 425.431 271.782 430.847 Q271.782 436.426 268.31 439.528 Q264.838 442.606 258.519 442.606 Q256.343 442.606 254.074 442.236 Q251.829 441.866 249.421 441.125 L249.421 436.426 Q251.505 437.56 253.727 438.116 Q255.949 438.671 258.426 438.671 Q262.431 438.671 264.769 436.565 Q267.107 434.458 267.107 430.847 Q267.107 427.236 264.769 425.13 Q262.431 423.023 258.426 423.023 Q256.551 423.023 254.676 423.44 Q252.824 423.856 250.88 424.736 L250.88 407.375 Z" fill="#000000" fill-rule="nonzero" fill-opacity="1" /><path clip-path="url(#clip440)" d="M114.931 183.175 L122.57 183.175 L122.57 156.809 L114.26 158.476 L114.26 154.216 L122.524 152.55 L127.2 152.55 L127.2 183.175 L134.839 183.175 L134.839 187.11 L114.931 187.11 L114.931 183.175 Z" fill="#000000" fill-rule="nonzero" fill-opacity="1" /><path clip-path="url(#clip440)" d="M144.283 181.23 L149.167 181.23 L149.167 187.11 L144.283 187.11 L144.283 181.23 Z" fill="#000000" fill-rule="nonzero" fill-opacity="1" /><path clip-path="url(#clip440)" d="M169.352 155.629 Q165.741 155.629 163.913 159.193 Q162.107 162.735 162.107 169.865 Q162.107 176.971 163.913 180.536 Q165.741 184.077 169.352 184.077 Q172.987 184.077 174.792 180.536 Q176.621 176.971 176.621 169.865 Q176.621 162.735 174.792 159.193 Q172.987 155.629 169.352 155.629 M169.352 151.925 Q175.163 151.925 178.218 156.531 Q181.297 161.115 181.297 169.865 Q181.297 178.591 178.218 183.198 Q175.163 187.781 169.352 187.781 Q163.542 187.781 160.464 183.198 Q157.408 178.591 157.408 169.865 Q157.408 161.115 160.464 156.531 Q163.542 151.925 169.352 151.925 Z" fill="#000000" fill-rule="nonzero" fill-opacity="1" /><path clip-path="url(#clip440)" d="M190.325 183.175 L197.963 183.175 L197.963 156.809 L189.653 158.476 L189.653 154.216 L197.917 152.55 L202.593 152.55 L202.593 183.175 L210.232 183.175 L210.232 187.11 L190.325 187.11 L190.325 183.175 Z" fill="#000000" fill-rule="nonzero" fill-opacity="1" /><path clip-path="url(#clip440)" d="M229.676 155.629 Q226.065 155.629 224.236 159.193 Q222.431 162.735 222.431 169.865 Q222.431 176.971 224.236 180.536 Q226.065 184.077 229.676 184.077 Q233.31 184.077 235.116 180.536 Q236.945 176.971 236.945 169.865 Q236.945 162.735 235.116 159.193 Q233.31 155.629 229.676 155.629 M229.676 151.925 Q235.486 151.925 238.542 156.531 Q241.621 161.115 241.621 169.865 Q241.621 178.591 238.542 183.198 Q235.486 187.781 229.676 187.781 Q223.866 187.781 220.787 183.198 Q217.732 178.591 217.732 169.865 Q217.732 161.115 220.787 156.531 Q223.866 151.925 229.676 151.925 Z" fill="#000000" fill-rule="nonzero" fill-opacity="1" /><path clip-path="url(#clip440)" d="M259.838 155.629 Q256.227 155.629 254.398 159.193 Q252.593 162.735 252.593 169.865 Q252.593 176.971 254.398 180.536 Q256.227 184.077 259.838 184.077 Q263.472 184.077 265.278 180.536 Q267.107 176.971 267.107 169.865 Q267.107 162.735 265.278 159.193 Q263.472 155.629 259.838 155.629 M259.838 151.925 Q265.648 151.925 268.704 156.531 Q271.782 161.115 271.782 169.865 Q271.782 178.591 268.704 183.198 Q265.648 187.781 259.838 187.781 Q254.028 187.781 250.949 183.198 Q247.894 178.591 247.894 169.865 Q247.894 161.115 250.949 156.531 Q254.028 151.925 259.838 151.925 Z" fill="#000000" fill-rule="nonzero" fill-opacity="1" /><path clip-path="url(#clip440)" d="M57.2247 896.821 L44.4614 896.821 L44.4614 907.325 L39.1779 907.325 L39.1779 890.456 L59.58 890.456 Q62.2218 894.18 63.5904 898.667 Q64.9272 903.155 64.9272 908.248 Q64.9272 919.388 58.4342 925.69 Q51.9093 931.96 40.2919 931.96 Q28.6427 931.96 22.1496 925.69 Q15.6248 919.388 15.6248 908.248 Q15.6248 903.601 16.7706 899.431 Q17.9164 895.23 20.1444 891.697 L26.9876 891.697 Q23.9639 895.262 22.4361 899.272 Q20.9083 903.283 20.9083 907.707 Q20.9083 916.428 25.7781 920.82 Q30.6479 925.181 40.2919 925.181 Q49.9041 925.181 54.7739 920.82 Q59.6436 916.428 59.6436 907.707 Q59.6436 904.301 59.0707 901.627 Q58.466 898.954 57.2247 896.821 Z" fill="#000000" fill-rule="nonzero" fill-opacity="1" /><path clip-path="url(#clip440)" d="M21.7677 872.282 L58.7206 872.282 L58.7206 864.515 Q58.7206 854.68 54.2646 850.129 Q49.8086 845.546 40.1964 845.546 Q30.6479 845.546 26.2237 850.129 Q21.7677 854.68 21.7677 864.515 L21.7677 872.282 M16.4842 878.711 L16.4842 865.502 Q16.4842 851.688 22.2451 845.227 Q27.9743 838.766 40.1964 838.766 Q52.4822 838.766 58.2432 845.259 Q64.0042 851.752 64.0042 865.502 L64.0042 878.711 L16.4842 878.711 Z" fill="#000000" fill-rule="nonzero" fill-opacity="1" /><path clip-path="url(#clip440)" d="M21.7677 822.088 L39.6235 822.088 L39.6235 814.004 Q39.6235 809.516 37.3 807.065 Q34.9765 804.614 30.6797 804.614 Q26.4147 804.614 24.0912 807.065 Q21.7677 809.516 21.7677 814.004 L21.7677 822.088 M16.4842 828.517 L16.4842 814.004 Q16.4842 806.015 20.1126 801.94 Q23.7092 797.835 30.6797 797.835 Q37.7138 797.835 41.3104 801.94 Q44.907 806.015 44.907 814.004 L44.907 822.088 L64.0042 822.088 L64.0042 828.517 L16.4842 828.517 Z" fill="#000000" fill-rule="nonzero" fill-opacity="1" /><path clip-path="url(#clip440)" d="M29.7248 743.09 L35.1993 743.09 Q33.8307 745.572 33.1623 748.087 Q32.4621 750.569 32.4621 753.116 Q32.4621 758.813 36.0905 761.964 Q39.6872 765.115 46.212 765.115 Q52.7369 765.115 56.3653 761.964 Q59.9619 758.813 59.9619 753.116 Q59.9619 750.569 59.2935 748.087 Q58.5933 745.572 57.2247 743.09 L62.6355 743.09 Q63.7814 745.54 64.3543 748.182 Q64.9272 750.792 64.9272 753.752 Q64.9272 761.805 59.8664 766.547 Q54.8057 771.29 46.212 771.29 Q37.491 771.29 32.4939 766.515 Q27.4968 761.709 27.4968 753.37 Q27.4968 750.665 28.0697 748.087 Q28.6108 745.508 29.7248 743.09 Z" fill="#000000" fill-rule="nonzero" fill-opacity="1" /><path clip-path="url(#clip440)" d="M42.4881 703.272 L64.0042 703.272 L64.0042 709.128 L42.679 709.128 Q37.6183 709.128 35.1038 711.102 Q32.5894 713.075 32.5894 717.022 Q32.5894 721.764 35.6131 724.502 Q38.6368 727.239 43.8567 727.239 L64.0042 727.239 L64.0042 733.127 L14.479 733.127 L14.479 727.239 L33.8944 727.239 Q30.6797 725.138 29.0883 722.305 Q27.4968 719.441 27.4968 715.717 Q27.4968 709.574 31.3163 706.423 Q35.1038 703.272 42.4881 703.272 Z" fill="#000000" fill-rule="nonzero" fill-opacity="1" /><path clip-path="url(#clip440)" d="M46.0847 675.39 Q46.0847 682.488 47.7079 685.225 Q49.3312 687.963 53.2461 687.963 Q56.3653 687.963 58.2114 685.925 Q60.0256 683.857 60.0256 680.324 Q60.0256 675.454 56.5881 672.526 Q53.1188 669.566 47.3897 669.566 L46.0847 669.566 L46.0847 675.39 M43.6657 663.709 L64.0042 663.709 L64.0042 669.566 L58.5933 669.566 Q61.8398 671.571 63.3994 674.563 Q64.9272 677.555 64.9272 681.883 Q64.9272 687.358 61.8716 690.604 Q58.7843 693.819 53.6281 693.819 Q47.6125 693.819 44.5569 689.809 Q41.5014 685.766 41.5014 677.777 L41.5014 669.566 L40.9285 669.566 Q36.8862 669.566 34.6901 672.239 Q32.4621 674.881 32.4621 679.687 Q32.4621 682.743 33.1941 685.639 Q33.9262 688.535 35.3903 691.209 L29.9795 691.209 Q28.7381 687.994 28.1334 684.971 Q27.4968 681.947 27.4968 679.082 Q27.4968 671.348 31.5072 667.529 Q35.5176 663.709 43.6657 663.709 Z" fill="#000000" fill-rule="nonzero" fill-opacity="1" /><path clip-path="url(#clip440)" d="M42.4881 622.014 L64.0042 622.014 L64.0042 627.87 L42.679 627.87 Q37.6183 627.87 35.1038 629.844 Q32.5894 631.817 32.5894 635.764 Q32.5894 640.506 35.6131 643.243 Q38.6368 645.981 43.8567 645.981 L64.0042 645.981 L64.0042 651.869 L28.3562 651.869 L28.3562 645.981 L33.8944 645.981 Q30.6797 643.88 29.0883 641.047 Q27.4968 638.183 27.4968 634.459 Q27.4968 628.316 31.3163 625.165 Q35.1038 622.014 42.4881 622.014 Z" fill="#000000" fill-rule="nonzero" fill-opacity="1" /><path clip-path="url(#clip440)" d="M45.7664 586.875 Q39.4007 586.875 35.8996 589.517 Q32.3984 592.127 32.3984 596.869 Q32.3984 601.58 35.8996 604.222 Q39.4007 606.832 45.7664 606.832 Q52.1003 606.832 55.6014 604.222 Q59.1026 601.58 59.1026 596.869 Q59.1026 592.127 55.6014 589.517 Q52.1003 586.875 45.7664 586.875 M59.58 581.019 Q68.683 581.019 73.1071 585.061 Q77.5631 589.103 77.5631 597.442 Q77.5631 600.53 77.0857 603.267 Q76.6401 606.004 75.6852 608.582 L69.9879 608.582 Q71.3884 606.004 72.0568 603.49 Q72.7252 600.975 72.7252 598.365 Q72.7252 592.604 69.7015 589.74 Q66.7096 586.875 60.6303 586.875 L57.7339 586.875 Q60.885 588.689 62.4446 591.522 Q64.0042 594.355 64.0042 598.302 Q64.0042 604.858 59.0071 608.869 Q54.01 612.879 45.7664 612.879 Q37.491 612.879 32.4939 608.869 Q27.4968 604.858 27.4968 598.302 Q27.4968 594.355 29.0564 591.522 Q30.616 588.689 33.7671 586.875 L28.3562 586.875 L28.3562 581.019 L59.58 581.019 Z" fill="#000000" fill-rule="nonzero" fill-opacity="1" /><path clip-path="url(#clip440)" d="M44.7161 538.464 L47.5806 538.464 L47.5806 565.391 Q53.6281 565.009 56.8109 561.762 Q59.9619 558.484 59.9619 552.659 Q59.9619 549.286 59.1344 546.135 Q58.3069 542.952 56.6518 539.833 L62.1899 539.833 Q63.5267 542.984 64.227 546.294 Q64.9272 549.604 64.9272 553.01 Q64.9272 561.54 59.9619 566.537 Q54.9967 571.502 46.5303 571.502 Q37.7774 571.502 32.6531 566.791 Q27.4968 562.049 27.4968 554.028 Q27.4968 546.835 32.1438 542.665 Q36.7589 538.464 44.7161 538.464 M42.9973 544.32 Q38.1912 544.384 35.3266 547.026 Q32.4621 549.636 32.4621 553.964 Q32.4621 558.866 35.2312 561.826 Q38.0002 564.754 43.0292 565.2 L42.9973 544.32 Z" fill="#000000" fill-rule="nonzero" fill-opacity="1" /><path clip-path="url(#clip442)" d="M365.659 1189.13 L486.235 1234.83 L606.812 1022.9 L727.388 602.679 L847.964 608.011 L968.54 1113.24 L1089.12 1213.13 L1209.69 1059.04 L1330.27 997.582 L1450.85 1215.69 L1571.42 1329.34 L1692 1384.24 L1812.57 1176.65 L1933.15 1035.75 L2053.73 957.288 L2174.3 1248.74 L2294.88 1289.49 L2294.88 339.918 L2174.3 344.539 L2053.73 86.1857 L1933.15 180.967 L1812.57 342.63 L1692 594.607 L1571.42 630.65 L1450.85 538.404 L1330.27 355.905 L1209.69 437.391 L1089.12 651.898 L968.54 653.384 L847.964 197.017 L727.388 249.538 L606.812 710.683 L486.235 997.983 L365.659 1189.13  Z" fill="#009af9" fill-rule="evenodd" fill-opacity="0.2"/>
<polyline clip-path="url(#clip442)" style="stroke:#009af9; stroke-linecap:round; stroke-linejoin:round; stroke-width:4; stroke-opacity:1; fill:none" points="365.659,1189.13 486.235,1116.41 606.812,866.791 727.388,426.108 847.964,402.514 968.54,883.31 1089.12,932.514 1209.69,748.217 1330.27,676.744 1450.85,877.049 1571.42,979.993 1692,989.423 1812.57,759.638 1933.15,608.357 2053.73,521.737 2174.3,796.642 2294.88,814.703 "/>
</svg>
