<?xml version="1.0" encoding="utf-8"?>
<svg xmlns="http://www.w3.org/2000/svg" xmlns:xlink="http://www.w3.org/1999/xlink" width="600" height="400" viewBox="0 0 2400 1600">
<defs>
  <clipPath id="clip100">
    <rect x="0" y="0" width="2400" height="1600"/>
  </clipPath>
</defs>
<path clip-path="url(#clip100)" d="M0 1600 L2400 1600 L2400 0 L0 0  Z" fill="#ffffff" fill-rule="evenodd" fill-opacity="1"/>
<defs>
  <clipPath id="clip101">
    <rect x="480" y="0" width="1681" height="1600"/>
  </clipPath>
</defs>
<path clip-path="url(#clip100)" d="M309.866 1423.18 L2352.76 1423.18 L2352.76 47.2441 L309.866 47.2441  Z" fill="#ffffff" fill-rule="evenodd" fill-opacity="1"/>
<defs>
  <clipPath id="clip102">
    <rect x="309" y="47" width="2044" height="1377"/>
  </clipPath>
</defs>
<polyline clip-path="url(#clip102)" style="stroke:#000000; stroke-linecap:round; stroke-linejoin:round; stroke-width:2; stroke-opacity:0.1; fill:none" points="608.59,1423.18 608.59,47.2441 "/>
<polyline clip-path="url(#clip102)" style="stroke:#000000; stroke-linecap:round; stroke-linejoin:round; stroke-width:2; stroke-opacity:0.1; fill:none" points="969.951,1423.18 969.951,47.2441 "/>
<polyline clip-path="url(#clip102)" style="stroke:#000000; stroke-linecap:round; stroke-linejoin:round; stroke-width:2; stroke-opacity:0.1; fill:none" points="1331.31,1423.18 1331.31,47.2441 "/>
<polyline clip-path="url(#clip102)" style="stroke:#000000; stroke-linecap:round; stroke-linejoin:round; stroke-width:2; stroke-opacity:0.1; fill:none" points="1692.67,1423.18 1692.67,47.2441 "/>
<polyline clip-path="url(#clip102)" style="stroke:#000000; stroke-linecap:round; stroke-linejoin:round; stroke-width:2; stroke-opacity:0.1; fill:none" points="2054.03,1423.18 2054.03,47.2441 "/>
<polyline clip-path="url(#clip102)" style="stroke:#000000; stroke-linecap:round; stroke-linejoin:round; stroke-width:2; stroke-opacity:0.1; fill:none" points="309.866,1237.44 2352.76,1237.44 "/>
<polyline clip-path="url(#clip102)" style="stroke:#000000; stroke-linecap:round; stroke-linejoin:round; stroke-width:2; stroke-opacity:0.1; fill:none" points="309.866,1011.36 2352.76,1011.36 "/>
<polyline clip-path="url(#clip102)" style="stroke:#000000; stroke-linecap:round; stroke-linejoin:round; stroke-width:2; stroke-opacity:0.1; fill:none" points="309.866,785.293 2352.76,785.293 "/>
<polyline clip-path="url(#clip102)" style="stroke:#000000; stroke-linecap:round; stroke-linejoin:round; stroke-width:2; stroke-opacity:0.1; fill:none" points="309.866,559.22 2352.76,559.22 "/>
<polyline clip-path="url(#clip102)" style="stroke:#000000; stroke-linecap:round; stroke-linejoin:round; stroke-width:2; stroke-opacity:0.1; fill:none" points="309.866,333.148 2352.76,333.148 "/>
<polyline clip-path="url(#clip102)" style="stroke:#000000; stroke-linecap:round; stroke-linejoin:round; stroke-width:2; stroke-opacity:0.1; fill:none" points="309.866,107.076 2352.76,107.076 "/>
<polyline clip-path="url(#clip100)" style="stroke:#000000; stroke-linecap:round; stroke-linejoin:round; stroke-width:4; stroke-opacity:1; fill:none" points="309.866,1423.18 2352.76,1423.18 "/>
<polyline clip-path="url(#clip100)" style="stroke:#000000; stroke-linecap:round; stroke-linejoin:round; stroke-width:4; stroke-opacity:1; fill:none" points="608.59,1423.18 608.59,1404.28 "/>
<polyline clip-path="url(#clip100)" style="stroke:#000000; stroke-linecap:round; stroke-linejoin:round; stroke-width:4; stroke-opacity:1; fill:none" points="969.951,1423.18 969.951,1404.28 "/>
<polyline clip-path="url(#clip100)" style="stroke:#000000; stroke-linecap:round; stroke-linejoin:round; stroke-width:4; stroke-opacity:1; fill:none" points="1331.31,1423.18 1331.31,1404.28 "/>
<polyline clip-path="url(#clip100)" style="stroke:#000000; stroke-linecap:round; stroke-linejoin:round; stroke-width:4; stroke-opacity:1; fill:none" points="1692.67,1423.18 1692.67,1404.28 "/>
<polyline clip-path="url(#clip100)" style="stroke:#000000; stroke-linecap:round; stroke-linejoin:round; stroke-width:4; stroke-opacity:1; fill:none" points="2054.03,1423.18 2054.03,1404.28 "/>
<path clip-path="url(#clip100)" d="M612.838 1466.95 Q616.194 1467.66 618.069 1469.93 Q619.968 1472.2 619.968 1475.53 Q619.968 1480.65 616.449 1483.45 Q612.931 1486.25 606.449 1486.25 Q604.273 1486.25 601.958 1485.81 Q599.667 1485.39 597.213 1484.54 L597.213 1480.02 Q599.157 1481.16 601.472 1481.74 Q603.787 1482.32 606.31 1482.32 Q610.708 1482.32 613 1480.58 Q615.315 1478.84 615.315 1475.53 Q615.315 1472.48 613.162 1470.77 Q611.032 1469.03 607.213 1469.03 L603.185 1469.03 L603.185 1465.19 L607.398 1465.19 Q610.847 1465.19 612.676 1463.82 Q614.505 1462.43 614.505 1459.84 Q614.505 1457.18 612.606 1455.77 Q610.731 1454.33 607.213 1454.33 Q605.292 1454.33 603.093 1454.75 Q600.894 1455.16 598.255 1456.04 L598.255 1451.88 Q600.917 1451.14 603.232 1450.77 Q605.569 1450.39 607.63 1450.39 Q612.954 1450.39 616.056 1452.83 Q619.157 1455.23 619.157 1459.35 Q619.157 1462.22 617.514 1464.21 Q615.87 1466.18 612.838 1466.95 Z" fill="#000000" fill-rule="nonzero" fill-opacity="1" /><path clip-path="url(#clip100)" d="M970.356 1466.44 Q967.208 1466.44 965.356 1468.59 Q963.527 1470.74 963.527 1474.49 Q963.527 1478.22 965.356 1480.39 Q967.208 1482.55 970.356 1482.55 Q973.504 1482.55 975.332 1480.39 Q977.184 1478.22 977.184 1474.49 Q977.184 1470.74 975.332 1468.59 Q973.504 1466.44 970.356 1466.44 M979.638 1451.78 L979.638 1456.04 Q977.879 1455.21 976.073 1454.77 Q974.291 1454.33 972.532 1454.33 Q967.902 1454.33 965.448 1457.45 Q963.018 1460.58 962.671 1466.9 Q964.036 1464.89 966.096 1463.82 Q968.157 1462.73 970.633 1462.73 Q975.842 1462.73 978.851 1465.9 Q981.883 1469.05 981.883 1474.49 Q981.883 1479.82 978.735 1483.03 Q975.587 1486.25 970.356 1486.25 Q964.36 1486.25 961.189 1481.67 Q958.018 1477.06 958.018 1468.33 Q958.018 1460.14 961.907 1455.28 Q965.795 1450.39 972.346 1450.39 Q974.106 1450.39 975.888 1450.74 Q977.694 1451.09 979.638 1451.78 Z" fill="#000000" fill-rule="nonzero" fill-opacity="1" /><path clip-path="url(#clip100)" d="M1321.61 1484.86 L1321.61 1480.6 Q1323.37 1481.44 1325.18 1481.88 Q1326.98 1482.32 1328.72 1482.32 Q1333.35 1482.32 1335.78 1479.21 Q1338.23 1476.09 1338.58 1469.75 Q1337.24 1471.74 1335.18 1472.8 Q1333.12 1473.87 1330.62 1473.87 Q1325.43 1473.87 1322.4 1470.74 Q1319.39 1467.59 1319.39 1462.15 Q1319.39 1456.83 1322.54 1453.61 Q1325.69 1450.39 1330.92 1450.39 Q1336.91 1450.39 1340.06 1455 Q1343.23 1459.58 1343.23 1468.33 Q1343.23 1476.51 1339.34 1481.39 Q1335.48 1486.25 1328.93 1486.25 Q1327.17 1486.25 1325.36 1485.9 Q1323.56 1485.56 1321.61 1484.86 M1330.92 1470.21 Q1334.07 1470.21 1335.89 1468.06 Q1337.75 1465.9 1337.75 1462.15 Q1337.75 1458.43 1335.89 1456.27 Q1334.07 1454.1 1330.92 1454.1 Q1327.77 1454.1 1325.92 1456.27 Q1324.09 1458.43 1324.09 1462.15 Q1324.09 1465.9 1325.92 1468.06 Q1327.77 1470.21 1330.92 1470.21 Z" fill="#000000" fill-rule="nonzero" fill-opacity="1" /><path clip-path="url(#clip100)" d="M1668.16 1481.64 L1675.8 1481.64 L1675.8 1455.28 L1667.49 1456.95 L1667.49 1452.69 L1675.75 1451.02 L1680.43 1451.02 L1680.43 1481.64 L1688.06 1481.64 L1688.06 1485.58 L1668.16 1485.58 L1668.16 1481.64 Z" fill="#000000" fill-rule="nonzero" fill-opacity="1" /><path clip-path="url(#clip100)" d="M1701.54 1481.64 L1717.86 1481.64 L1717.86 1485.58 L1695.91 1485.58 L1695.91 1481.64 Q1698.57 1478.89 1703.16 1474.26 Q1707.76 1469.61 1708.94 1468.27 Q1711.19 1465.74 1712.07 1464.01 Q1712.97 1462.25 1712.97 1460.56 Q1712.97 1457.8 1711.03 1456.07 Q1709.11 1454.33 1706 1454.33 Q1703.81 1454.33 1701.35 1455.09 Q1698.92 1455.86 1696.14 1457.41 L1696.14 1452.69 Q1698.97 1451.55 1701.42 1450.97 Q1703.87 1450.39 1705.91 1450.39 Q1711.28 1450.39 1714.48 1453.08 Q1717.67 1455.77 1717.67 1460.26 Q1717.67 1462.39 1716.86 1464.31 Q1716.07 1466.2 1713.97 1468.8 Q1713.39 1469.47 1710.29 1472.69 Q1707.18 1475.88 1701.54 1481.64 Z" fill="#000000" fill-rule="nonzero" fill-opacity="1" /><path clip-path="url(#clip100)" d="M2029.22 1481.64 L2036.86 1481.64 L2036.86 1455.28 L2028.55 1456.95 L2028.55 1452.69 L2036.81 1451.02 L2041.49 1451.02 L2041.49 1481.64 L2049.12 1481.64 L2049.12 1485.58 L2029.22 1485.58 L2029.22 1481.64 Z" fill="#000000" fill-rule="nonzero" fill-opacity="1" /><path clip-path="url(#clip100)" d="M2058.61 1451.02 L2076.97 1451.02 L2076.97 1454.96 L2062.9 1454.96 L2062.9 1463.43 Q2063.92 1463.08 2064.93 1462.92 Q2065.95 1462.73 2066.97 1462.73 Q2072.76 1462.73 2076.14 1465.9 Q2079.52 1469.08 2079.52 1474.49 Q2079.52 1480.07 2076.05 1483.17 Q2072.57 1486.25 2066.25 1486.25 Q2064.08 1486.25 2061.81 1485.88 Q2059.56 1485.51 2057.16 1484.77 L2057.16 1480.07 Q2059.24 1481.2 2061.46 1481.76 Q2063.68 1482.32 2066.16 1482.32 Q2070.17 1482.32 2072.5 1480.21 Q2074.84 1478.1 2074.84 1474.49 Q2074.84 1470.88 2072.5 1468.77 Q2070.17 1466.67 2066.16 1466.67 Q2064.29 1466.67 2062.41 1467.08 Q2060.56 1467.5 2058.61 1468.38 L2058.61 1451.02 Z" fill="#000000" fill-rule="nonzero" fill-opacity="1" /><path clip-path="url(#clip100)" d="M1202.82 1550.25 Q1202.82 1556.71 1205.46 1560.4 Q1208.13 1564.07 1212.78 1564.07 Q1217.43 1564.07 1220.1 1560.4 Q1222.78 1556.71 1222.78 1550.25 Q1222.78 1543.79 1220.1 1540.13 Q1217.43 1536.44 1212.78 1536.44 Q1208.13 1536.44 1205.46 1540.13 Q1202.82 1543.79 1202.82 1550.25 M1222.78 1562.7 Q1220.93 1565.88 1218.1 1567.44 Q1215.3 1568.97 1211.35 1568.97 Q1204.89 1568.97 1200.81 1563.81 Q1196.77 1558.65 1196.77 1550.25 Q1196.77 1541.85 1200.81 1536.69 Q1204.89 1531.54 1211.35 1531.54 Q1215.3 1531.54 1218.1 1533.1 Q1220.93 1534.62 1222.78 1537.81 L1222.78 1532.4 L1228.63 1532.4 L1228.63 1581.6 L1222.78 1581.6 L1222.78 1562.7 Z" fill="#000000" fill-rule="nonzero" fill-opacity="1" /><path clip-path="url(#clip100)" d="M1240.09 1553.98 L1240.09 1532.4 L1245.95 1532.4 L1245.95 1553.75 Q1245.95 1558.81 1247.92 1561.36 Q1249.89 1563.87 1253.84 1563.87 Q1258.58 1563.87 1261.32 1560.85 Q1264.09 1557.83 1264.09 1552.61 L1264.09 1532.4 L1269.95 1532.4 L1269.95 1568.04 L1264.09 1568.04 L1264.09 1562.57 Q1261.96 1565.82 1259.12 1567.41 Q1256.32 1568.97 1252.6 1568.97 Q1246.46 1568.97 1243.27 1565.15 Q1240.09 1561.33 1240.09 1553.98 M1254.83 1531.54 L1254.83 1531.54 Z" fill="#000000" fill-rule="nonzero" fill-opacity="1" /><path clip-path="url(#clip100)" d="M1298.21 1550.12 Q1291.11 1550.12 1288.37 1551.75 Q1285.64 1553.37 1285.64 1557.29 Q1285.64 1560.4 1287.67 1562.25 Q1289.74 1564.07 1293.28 1564.07 Q1298.15 1564.07 1301.07 1560.63 Q1304.03 1557.16 1304.03 1551.43 L1304.03 1550.12 L1298.21 1550.12 M1309.89 1547.71 L1309.89 1568.04 L1304.03 1568.04 L1304.03 1562.63 Q1302.03 1565.88 1299.04 1567.44 Q1296.04 1568.97 1291.72 1568.97 Q1286.24 1568.97 1283 1565.91 Q1279.78 1562.82 1279.78 1557.67 Q1279.78 1551.65 1283.79 1548.6 Q1287.83 1545.54 1295.82 1545.54 L1304.03 1545.54 L1304.03 1544.97 Q1304.03 1540.93 1301.36 1538.73 Q1298.72 1536.5 1293.91 1536.5 Q1290.86 1536.5 1287.96 1537.23 Q1285.06 1537.97 1282.39 1539.43 L1282.39 1534.02 Q1285.61 1532.78 1288.63 1532.17 Q1291.65 1531.54 1294.52 1531.54 Q1302.25 1531.54 1306.07 1535.55 Q1309.89 1539.56 1309.89 1547.71 Z" fill="#000000" fill-rule="nonzero" fill-opacity="1" /><path clip-path="url(#clip100)" d="M1342.61 1537.87 Q1341.62 1537.3 1340.45 1537.04 Q1339.3 1536.76 1337.9 1536.76 Q1332.93 1536.76 1330.26 1540 Q1327.62 1543.22 1327.62 1549.27 L1327.62 1568.04 L1321.73 1568.04 L1321.73 1532.4 L1327.62 1532.4 L1327.62 1537.93 Q1329.46 1534.69 1332.42 1533.13 Q1335.38 1531.54 1339.62 1531.54 Q1340.22 1531.54 1340.95 1531.63 Q1341.69 1531.7 1342.58 1531.85 L1342.61 1537.87 Z" fill="#000000" fill-rule="nonzero" fill-opacity="1" /><path clip-path="url(#clip100)" d="M1354.55 1522.27 L1354.55 1532.4 L1366.61 1532.4 L1366.61 1536.95 L1354.55 1536.95 L1354.55 1556.3 Q1354.55 1560.66 1355.72 1561.9 Q1356.93 1563.14 1360.59 1563.14 L1366.61 1563.14 L1366.61 1568.04 L1360.59 1568.04 Q1353.81 1568.04 1351.24 1565.53 Q1348.66 1562.98 1348.66 1556.3 L1348.66 1536.95 L1344.36 1536.95 L1344.36 1532.4 L1348.66 1532.4 L1348.66 1522.27 L1354.55 1522.27 Z" fill="#000000" fill-rule="nonzero" fill-opacity="1" /><path clip-path="url(#clip100)" d="M1404.8 1548.76 L1404.8 1551.62 L1377.88 1551.62 Q1378.26 1557.67 1381.5 1560.85 Q1384.78 1564 1390.61 1564 Q1393.98 1564 1397.13 1563.17 Q1400.32 1562.35 1403.43 1560.69 L1403.43 1566.23 Q1400.28 1567.57 1396.97 1568.27 Q1393.66 1568.97 1390.26 1568.97 Q1381.73 1568.97 1376.73 1564 Q1371.76 1559.04 1371.76 1550.57 Q1371.76 1541.82 1376.48 1536.69 Q1381.22 1531.54 1389.24 1531.54 Q1396.43 1531.54 1400.6 1536.18 Q1404.8 1540.8 1404.8 1548.76 M1398.95 1547.04 Q1398.88 1542.23 1396.24 1539.37 Q1393.63 1536.5 1389.3 1536.5 Q1384.4 1536.5 1381.44 1539.27 Q1378.51 1542.04 1378.07 1547.07 L1398.95 1547.04 Z" fill="#000000" fill-rule="nonzero" fill-opacity="1" /><path clip-path="url(#clip100)" d="M1435.07 1537.87 Q1434.09 1537.3 1432.91 1537.04 Q1431.76 1536.76 1430.36 1536.76 Q1425.4 1536.76 1422.72 1540 Q1420.08 1543.22 1420.08 1549.27 L1420.08 1568.04 L1414.19 1568.04 L1414.19 1532.4 L1420.08 1532.4 L1420.08 1537.93 Q1421.93 1534.69 1424.89 1533.13 Q1427.85 1531.54 1432.08 1531.54 Q1432.68 1531.54 1433.42 1531.63 Q1434.15 1531.7 1435.04 1531.85 L1435.07 1537.87 Z" fill="#000000" fill-rule="nonzero" fill-opacity="1" /><path clip-path="url(#clip100)" d="M1463.94 1533.45 L1463.94 1538.98 Q1461.46 1537.71 1458.78 1537.07 Q1456.11 1536.44 1453.25 1536.44 Q1448.89 1536.44 1446.69 1537.77 Q1444.52 1539.11 1444.52 1541.79 Q1444.52 1543.82 1446.08 1545 Q1447.64 1546.15 1452.35 1547.2 L1454.36 1547.64 Q1460.6 1548.98 1463.21 1551.43 Q1465.85 1553.85 1465.85 1558.21 Q1465.85 1563.17 1461.9 1566.07 Q1457.99 1568.97 1451.11 1568.97 Q1448.25 1568.97 1445.13 1568.39 Q1442.04 1567.85 1438.6 1566.74 L1438.6 1560.69 Q1441.85 1562.38 1445 1563.24 Q1448.15 1564.07 1451.24 1564.07 Q1455.38 1564.07 1457.61 1562.66 Q1459.83 1561.23 1459.83 1558.65 Q1459.83 1556.27 1458.21 1554.99 Q1456.62 1553.72 1451.18 1552.54 L1449.14 1552.07 Q1443.7 1550.92 1441.28 1548.56 Q1438.86 1546.18 1438.86 1542.04 Q1438.86 1537.01 1442.42 1534.27 Q1445.99 1531.54 1452.55 1531.54 Q1455.79 1531.54 1458.66 1532.01 Q1461.52 1532.49 1463.94 1533.45 Z" fill="#000000" fill-rule="nonzero" fill-opacity="1" /><polyline clip-path="url(#clip100)" style="stroke:#000000; stroke-linecap:round; stroke-linejoin:round; stroke-width:4; stroke-opacity:1; fill:none" points="309.866,1423.18 309.866,47.2441 "/>
<polyline clip-path="url(#clip100)" style="stroke:#000000; stroke-linecap:round; stroke-linejoin:round; stroke-width:4; stroke-opacity:1; fill:none" points="309.866,1237.44 328.763,1237.44 "/>
<polyline clip-path="url(#clip100)" style="stroke:#000000; stroke-linecap:round; stroke-linejoin:round; stroke-width:4; stroke-opacity:1; fill:none" points="309.866,1011.36 328.763,1011.36 "/>
<polyline clip-path="url(#clip100)" style="stroke:#000000; stroke-linecap:round; stroke-linejoin:round; stroke-width:4; stroke-opacity:1; fill:none" points="309.866,785.293 328.763,785.293 "/>
<polyline clip-path="url(#clip100)" style="stroke:#000000; stroke-linecap:round; stroke-linejoin:round; stroke-width:4; stroke-opacity:1; fill:none" points="309.866,559.22 328.763,559.22 "/>
<polyline clip-path="url(#clip100)" style="stroke:#000000; stroke-linecap:round; stroke-linejoin:round; stroke-width:4; stroke-opacity:1; fill:none" points="309.866,333.148 328.763,333.148 "/>
<polyline clip-path="url(#clip100)" style="stroke:#000000; stroke-linecap:round; stroke-linejoin:round; stroke-width:4; stroke-opacity:1; fill:none" points="309.866,107.076 328.763,107.076 "/>
<path clip-path="url(#clip100)" d="M126.205 1223.24 Q122.593 1223.24 120.765 1226.8 Q118.959 1230.34 118.959 1237.47 Q118.959 1244.58 120.765 1248.14 Q122.593 1251.68 126.205 1251.68 Q129.839 1251.68 131.644 1248.14 Q133.473 1244.58 133.473 1237.47 Q133.473 1230.34 131.644 1226.8 Q129.839 1223.24 126.205 1223.24 M126.205 1219.53 Q132.015 1219.53 135.07 1224.14 Q138.149 1228.72 138.149 1237.47 Q138.149 1246.2 135.07 1250.8 Q132.015 1255.39 126.205 1255.39 Q120.394 1255.39 117.316 1250.8 Q114.26 1246.2 114.26 1237.47 Q114.26 1228.72 117.316 1224.14 Q120.394 1219.53 126.205 1219.53 Z" fill="#000000" fill-rule="nonzero" fill-opacity="1" /><path clip-path="url(#clip100)" d="M146.366 1248.84 L151.251 1248.84 L151.251 1254.72 L146.366 1254.72 L146.366 1248.84 Z" fill="#000000" fill-rule="nonzero" fill-opacity="1" /><path clip-path="url(#clip100)" d="M161.575 1254 L161.575 1249.74 Q163.334 1250.57 165.14 1251.01 Q166.945 1251.45 168.681 1251.45 Q173.311 1251.45 175.741 1248.35 Q178.195 1245.23 178.542 1238.88 Q177.2 1240.87 175.139 1241.94 Q173.079 1243 170.579 1243 Q165.394 1243 162.362 1239.88 Q159.353 1236.73 159.353 1231.29 Q159.353 1225.97 162.501 1222.75 Q165.649 1219.53 170.88 1219.53 Q176.876 1219.53 180.024 1224.14 Q183.195 1228.72 183.195 1237.47 Q183.195 1245.64 179.306 1250.53 Q175.44 1255.39 168.889 1255.39 Q167.13 1255.39 165.325 1255.04 Q163.519 1254.69 161.575 1254 M170.88 1239.35 Q174.028 1239.35 175.857 1237.19 Q177.709 1235.04 177.709 1231.29 Q177.709 1227.56 175.857 1225.41 Q174.028 1223.24 170.88 1223.24 Q167.732 1223.24 165.88 1225.41 Q164.052 1227.56 164.052 1231.29 Q164.052 1235.04 165.88 1237.19 Q167.732 1239.35 170.88 1239.35 Z" fill="#000000" fill-rule="nonzero" fill-opacity="1" /><path clip-path="url(#clip100)" d="M191.737 1254 L191.737 1249.74 Q193.496 1250.57 195.301 1251.01 Q197.107 1251.45 198.843 1251.45 Q203.473 1251.45 205.903 1248.35 Q208.357 1245.23 208.704 1238.88 Q207.362 1240.87 205.301 1241.94 Q203.241 1243 200.741 1243 Q195.556 1243 192.524 1239.88 Q189.514 1236.73 189.514 1231.29 Q189.514 1225.97 192.663 1222.75 Q195.811 1219.53 201.042 1219.53 Q207.037 1219.53 210.186 1224.14 Q213.357 1228.72 213.357 1237.47 Q213.357 1245.64 209.468 1250.53 Q205.602 1255.39 199.051 1255.39 Q197.292 1255.39 195.487 1255.04 Q193.681 1254.69 191.737 1254 M201.042 1239.35 Q204.19 1239.35 206.019 1237.19 Q207.871 1235.04 207.871 1231.29 Q207.871 1227.56 206.019 1225.41 Q204.19 1223.24 201.042 1223.24 Q197.894 1223.24 196.042 1225.41 Q194.213 1227.56 194.213 1231.29 Q194.213 1235.04 196.042 1237.19 Q197.894 1239.35 201.042 1239.35 Z" fill="#000000" fill-rule="nonzero" fill-opacity="1" /><path clip-path="url(#clip100)" d="M221.806 1220.16 L240.162 1220.16 L240.162 1224.09 L226.088 1224.09 L226.088 1232.56 Q227.107 1232.22 228.125 1232.05 Q229.144 1231.87 230.162 1231.87 Q235.949 1231.87 239.329 1235.04 Q242.709 1238.21 242.709 1243.63 Q242.709 1249.21 239.236 1252.31 Q235.764 1255.39 229.445 1255.39 Q227.269 1255.39 225 1255.02 Q222.755 1254.65 220.348 1253.91 L220.348 1249.21 Q222.431 1250.34 224.653 1250.9 Q226.875 1251.45 229.352 1251.45 Q233.357 1251.45 235.695 1249.35 Q238.033 1247.24 238.033 1243.63 Q238.033 1240.02 235.695 1237.91 Q233.357 1235.8 229.352 1235.8 Q227.477 1235.8 225.602 1236.22 Q223.75 1236.64 221.806 1237.52 L221.806 1220.16 Z" fill="#000000" fill-rule="nonzero" fill-opacity="1" /><path clip-path="url(#clip100)" d="M261.921 1223.24 Q258.31 1223.24 256.482 1226.8 Q254.676 1230.34 254.676 1237.47 Q254.676 1244.58 256.482 1248.14 Q258.31 1251.68 261.921 1251.68 Q265.556 1251.68 267.361 1248.14 Q269.19 1244.58 269.19 1237.47 Q269.19 1230.34 267.361 1226.8 Q265.556 1223.24 261.921 1223.24 M261.921 1219.53 Q267.732 1219.53 270.787 1224.14 Q273.866 1228.72 273.866 1237.47 Q273.866 1246.2 270.787 1250.8 Q267.732 1255.39 261.921 1255.39 Q256.111 1255.39 253.033 1250.8 Q249.977 1246.2 249.977 1237.47 Q249.977 1228.72 253.033 1224.14 Q256.111 1219.53 261.921 1219.53 Z" fill="#000000" fill-rule="nonzero" fill-opacity="1" /><path clip-path="url(#clip100)" d="M127.2 997.163 Q123.589 997.163 121.76 1000.73 Q119.955 1004.27 119.955 1011.4 Q119.955 1018.51 121.76 1022.07 Q123.589 1025.61 127.2 1025.61 Q130.834 1025.61 132.64 1022.07 Q134.468 1018.51 134.468 1011.4 Q134.468 1004.27 132.64 1000.73 Q130.834 997.163 127.2 997.163 M127.2 993.46 Q133.01 993.46 136.066 998.066 Q139.144 1002.65 139.144 1011.4 Q139.144 1020.13 136.066 1024.73 Q133.01 1029.32 127.2 1029.32 Q121.39 1029.32 118.311 1024.73 Q115.256 1020.13 115.256 1011.4 Q115.256 1002.65 118.311 998.066 Q121.39 993.46 127.2 993.46 Z" fill="#000000" fill-rule="nonzero" fill-opacity="1" /><path clip-path="url(#clip100)" d="M147.362 1022.76 L152.246 1022.76 L152.246 1028.64 L147.362 1028.64 L147.362 1022.76 Z" fill="#000000" fill-rule="nonzero" fill-opacity="1" /><path clip-path="url(#clip100)" d="M162.57 1027.93 L162.57 1023.67 Q164.329 1024.5 166.135 1024.94 Q167.94 1025.38 169.677 1025.38 Q174.306 1025.38 176.737 1022.28 Q179.19 1019.15 179.538 1012.81 Q178.195 1014.8 176.135 1015.87 Q174.075 1016.93 171.575 1016.93 Q166.39 1016.93 163.357 1013.81 Q160.348 1010.66 160.348 1005.22 Q160.348 999.895 163.496 996.677 Q166.644 993.46 171.876 993.46 Q177.871 993.46 181.019 998.066 Q184.19 1002.65 184.19 1011.4 Q184.19 1019.57 180.301 1024.45 Q176.436 1029.32 169.885 1029.32 Q168.126 1029.32 166.32 1028.97 Q164.515 1028.62 162.57 1027.93 M171.876 1013.27 Q175.024 1013.27 176.852 1011.12 Q178.704 1008.97 178.704 1005.22 Q178.704 1001.49 176.852 999.339 Q175.024 997.163 171.876 997.163 Q168.727 997.163 166.876 999.339 Q165.047 1001.49 165.047 1005.22 Q165.047 1008.97 166.876 1011.12 Q168.727 1013.27 171.876 1013.27 Z" fill="#000000" fill-rule="nonzero" fill-opacity="1" /><path clip-path="url(#clip100)" d="M192.732 1027.93 L192.732 1023.67 Q194.491 1024.5 196.297 1024.94 Q198.102 1025.38 199.838 1025.38 Q204.468 1025.38 206.899 1022.28 Q209.352 1019.15 209.699 1012.81 Q208.357 1014.8 206.297 1015.87 Q204.237 1016.93 201.737 1016.93 Q196.551 1016.93 193.519 1013.81 Q190.51 1010.66 190.51 1005.22 Q190.51 999.895 193.658 996.677 Q196.806 993.46 202.037 993.46 Q208.033 993.46 211.181 998.066 Q214.352 1002.65 214.352 1011.4 Q214.352 1019.57 210.463 1024.45 Q206.598 1029.32 200.047 1029.32 Q198.287 1029.32 196.482 1028.97 Q194.676 1028.62 192.732 1027.93 M202.037 1013.27 Q205.186 1013.27 207.014 1011.12 Q208.866 1008.97 208.866 1005.22 Q208.866 1001.49 207.014 999.339 Q205.186 997.163 202.037 997.163 Q198.889 997.163 197.037 999.339 Q195.209 1001.49 195.209 1005.22 Q195.209 1008.97 197.037 1011.12 Q198.889 1013.27 202.037 1013.27 Z" fill="#000000" fill-rule="nonzero" fill-opacity="1" /><path clip-path="url(#clip100)" d="M221.574 994.085 L243.797 994.085 L243.797 996.075 L231.25 1028.64 L226.366 1028.64 L238.172 998.02 L221.574 998.02 L221.574 994.085 Z" fill="#000000" fill-rule="nonzero" fill-opacity="1" /><path clip-path="url(#clip100)" d="M252.963 994.085 L271.32 994.085 L271.32 998.02 L257.246 998.02 L257.246 1006.49 Q258.264 1006.14 259.283 1005.98 Q260.301 1005.8 261.32 1005.8 Q267.107 1005.8 270.486 1008.97 Q273.866 1012.14 273.866 1017.56 Q273.866 1023.14 270.394 1026.24 Q266.921 1029.32 260.602 1029.32 Q258.426 1029.32 256.158 1028.95 Q253.912 1028.58 251.505 1027.83 L251.505 1023.14 Q253.588 1024.27 255.81 1024.83 Q258.033 1025.38 260.509 1025.38 Q264.514 1025.38 266.852 1023.27 Q269.19 1021.17 269.19 1017.56 Q269.19 1013.95 266.852 1011.84 Q264.514 1009.73 260.509 1009.73 Q258.634 1009.73 256.759 1010.15 Q254.908 1010.57 252.963 1011.45 L252.963 994.085 Z" fill="#000000" fill-rule="nonzero" fill-opacity="1" /><path clip-path="url(#clip100)" d="M117.015 798.637 L124.654 798.637 L124.654 772.272 L116.343 773.938 L116.343 769.679 L124.607 768.013 L129.283 768.013 L129.283 798.637 L136.922 798.637 L136.922 802.573 L117.015 802.573 L117.015 798.637 Z" fill="#000000" fill-rule="nonzero" fill-opacity="1" /><path clip-path="url(#clip100)" d="M146.366 796.693 L151.251 796.693 L151.251 802.573 L146.366 802.573 L146.366 796.693 Z" fill="#000000" fill-rule="nonzero" fill-opacity="1" /><path clip-path="url(#clip100)" d="M171.436 771.091 Q167.825 771.091 165.996 774.656 Q164.19 778.198 164.19 785.327 Q164.19 792.434 165.996 795.998 Q167.825 799.54 171.436 799.54 Q175.07 799.54 176.876 795.998 Q178.704 792.434 178.704 785.327 Q178.704 778.198 176.876 774.656 Q175.07 771.091 171.436 771.091 M171.436 767.388 Q177.246 767.388 180.301 771.994 Q183.38 776.577 183.38 785.327 Q183.38 794.054 180.301 798.66 Q177.246 803.244 171.436 803.244 Q165.626 803.244 162.547 798.66 Q159.491 794.054 159.491 785.327 Q159.491 776.577 162.547 771.994 Q165.626 767.388 171.436 767.388 Z" fill="#000000" fill-rule="nonzero" fill-opacity="1" /><path clip-path="url(#clip100)" d="M201.598 771.091 Q197.987 771.091 196.158 774.656 Q194.352 778.198 194.352 785.327 Q194.352 792.434 196.158 795.998 Q197.987 799.54 201.598 799.54 Q205.232 799.54 207.037 795.998 Q208.866 792.434 208.866 785.327 Q208.866 778.198 207.037 774.656 Q205.232 771.091 201.598 771.091 M201.598 767.388 Q207.408 767.388 210.463 771.994 Q213.542 776.577 213.542 785.327 Q213.542 794.054 210.463 798.66 Q207.408 803.244 201.598 803.244 Q195.787 803.244 192.709 798.66 Q189.653 794.054 189.653 785.327 Q189.653 776.577 192.709 771.994 Q195.787 767.388 201.598 767.388 Z" fill="#000000" fill-rule="nonzero" fill-opacity="1" /><path clip-path="url(#clip100)" d="M231.76 771.091 Q228.148 771.091 226.32 774.656 Q224.514 778.198 224.514 785.327 Q224.514 792.434 226.32 795.998 Q228.148 799.54 231.76 799.54 Q235.394 799.54 237.199 795.998 Q239.028 792.434 239.028 785.327 Q239.028 778.198 237.199 774.656 Q235.394 771.091 231.76 771.091 M231.76 767.388 Q237.57 767.388 240.625 771.994 Q243.704 776.577 243.704 785.327 Q243.704 794.054 240.625 798.66 Q237.57 803.244 231.76 803.244 Q225.949 803.244 222.871 798.66 Q219.815 794.054 219.815 785.327 Q219.815 776.577 222.871 771.994 Q225.949 767.388 231.76 767.388 Z" fill="#000000" fill-rule="nonzero" fill-opacity="1" /><path clip-path="url(#clip100)" d="M261.921 771.091 Q258.31 771.091 256.482 774.656 Q254.676 778.198 254.676 785.327 Q254.676 792.434 256.482 795.998 Q258.31 799.54 261.921 799.54 Q265.556 799.54 267.361 795.998 Q269.19 792.434 269.19 785.327 Q269.19 778.198 267.361 774.656 Q265.556 771.091 261.921 771.091 M261.921 767.388 Q267.732 767.388 270.787 771.994 Q273.866 776.577 273.866 785.327 Q273.866 794.054 270.787 798.66 Q267.732 803.244 261.921 803.244 Q256.111 803.244 253.033 798.66 Q249.977 794.054 249.977 785.327 Q249.977 776.577 253.033 771.994 Q256.111 767.388 261.921 767.388 Z" fill="#000000" fill-rule="nonzero" fill-opacity="1" /><path clip-path="url(#clip100)" d="M118.01 572.565 L125.649 572.565 L125.649 546.2 L117.339 547.866 L117.339 543.607 L125.603 541.94 L130.279 541.94 L130.279 572.565 L137.917 572.565 L137.917 576.5 L118.01 576.5 L118.01 572.565 Z" fill="#000000" fill-rule="nonzero" fill-opacity="1" /><path clip-path="url(#clip100)" d="M147.362 570.621 L152.246 570.621 L152.246 576.5 L147.362 576.5 L147.362 570.621 Z" fill="#000000" fill-rule="nonzero" fill-opacity="1" /><path clip-path="url(#clip100)" d="M172.431 545.019 Q168.82 545.019 166.991 548.584 Q165.186 552.126 165.186 559.255 Q165.186 566.362 166.991 569.926 Q168.82 573.468 172.431 573.468 Q176.065 573.468 177.871 569.926 Q179.7 566.362 179.7 559.255 Q179.7 552.126 177.871 548.584 Q176.065 545.019 172.431 545.019 M172.431 541.315 Q178.241 541.315 181.297 545.922 Q184.376 550.505 184.376 559.255 Q184.376 567.982 181.297 572.588 Q178.241 577.172 172.431 577.172 Q166.621 577.172 163.542 572.588 Q160.487 567.982 160.487 559.255 Q160.487 550.505 163.542 545.922 Q166.621 541.315 172.431 541.315 Z" fill="#000000" fill-rule="nonzero" fill-opacity="1" /><path clip-path="url(#clip100)" d="M202.593 545.019 Q198.982 545.019 197.153 548.584 Q195.348 552.126 195.348 559.255 Q195.348 566.362 197.153 569.926 Q198.982 573.468 202.593 573.468 Q206.227 573.468 208.033 569.926 Q209.861 566.362 209.861 559.255 Q209.861 552.126 208.033 548.584 Q206.227 545.019 202.593 545.019 M202.593 541.315 Q208.403 541.315 211.459 545.922 Q214.537 550.505 214.537 559.255 Q214.537 567.982 211.459 572.588 Q208.403 577.172 202.593 577.172 Q196.783 577.172 193.704 572.588 Q190.649 567.982 190.649 559.255 Q190.649 550.505 193.704 545.922 Q196.783 541.315 202.593 541.315 Z" fill="#000000" fill-rule="nonzero" fill-opacity="1" /><path clip-path="url(#clip100)" d="M226.783 572.565 L243.102 572.565 L243.102 576.5 L221.158 576.5 L221.158 572.565 Q223.82 569.811 228.403 565.181 Q233.01 560.528 234.19 559.186 Q236.435 556.663 237.315 554.926 Q238.218 553.167 238.218 551.477 Q238.218 548.723 236.273 546.987 Q234.352 545.251 231.25 545.251 Q229.051 545.251 226.598 546.014 Q224.167 546.778 221.389 548.329 L221.389 543.607 Q224.213 542.473 226.667 541.894 Q229.121 541.315 231.158 541.315 Q236.528 541.315 239.722 544.001 Q242.917 546.686 242.917 551.176 Q242.917 553.306 242.107 555.227 Q241.32 557.126 239.213 559.718 Q238.634 560.389 235.533 563.607 Q232.431 566.801 226.783 572.565 Z" fill="#000000" fill-rule="nonzero" fill-opacity="1" /><path clip-path="url(#clip100)" d="M252.963 541.94 L271.32 541.94 L271.32 545.876 L257.246 545.876 L257.246 554.348 Q258.264 554.001 259.283 553.839 Q260.301 553.653 261.32 553.653 Q267.107 553.653 270.486 556.825 Q273.866 559.996 273.866 565.413 Q273.866 570.991 270.394 574.093 Q266.921 577.172 260.602 577.172 Q258.426 577.172 256.158 576.801 Q253.912 576.431 251.505 575.69 L251.505 570.991 Q253.588 572.125 255.81 572.681 Q258.033 573.237 260.509 573.237 Q264.514 573.237 266.852 571.13 Q269.19 569.024 269.19 565.413 Q269.19 561.801 266.852 559.695 Q264.514 557.588 260.509 557.588 Q258.634 557.588 256.759 558.005 Q254.908 558.422 252.963 559.301 L252.963 541.94 Z" fill="#000000" fill-rule="nonzero" fill-opacity="1" /><path clip-path="url(#clip100)" d="M117.015 346.493 L124.654 346.493 L124.654 320.128 L116.343 321.794 L116.343 317.535 L124.607 315.868 L129.283 315.868 L129.283 346.493 L136.922 346.493 L136.922 350.428 L117.015 350.428 L117.015 346.493 Z" fill="#000000" fill-rule="nonzero" fill-opacity="1" /><path clip-path="url(#clip100)" d="M146.366 344.549 L151.251 344.549 L151.251 350.428 L146.366 350.428 L146.366 344.549 Z" fill="#000000" fill-rule="nonzero" fill-opacity="1" /><path clip-path="url(#clip100)" d="M171.436 318.947 Q167.825 318.947 165.996 322.512 Q164.19 326.053 164.19 333.183 Q164.19 340.29 165.996 343.854 Q167.825 347.396 171.436 347.396 Q175.07 347.396 176.876 343.854 Q178.704 340.29 178.704 333.183 Q178.704 326.053 176.876 322.512 Q175.07 318.947 171.436 318.947 M171.436 315.243 Q177.246 315.243 180.301 319.85 Q183.38 324.433 183.38 333.183 Q183.38 341.91 180.301 346.516 Q177.246 351.1 171.436 351.1 Q165.626 351.1 162.547 346.516 Q159.491 341.91 159.491 333.183 Q159.491 324.433 162.547 319.85 Q165.626 315.243 171.436 315.243 Z" fill="#000000" fill-rule="nonzero" fill-opacity="1" /><path clip-path="url(#clip100)" d="M201.598 318.947 Q197.987 318.947 196.158 322.512 Q194.352 326.053 194.352 333.183 Q194.352 340.29 196.158 343.854 Q197.987 347.396 201.598 347.396 Q205.232 347.396 207.037 343.854 Q208.866 340.29 208.866 333.183 Q208.866 326.053 207.037 322.512 Q205.232 318.947 201.598 318.947 M201.598 315.243 Q207.408 315.243 210.463 319.85 Q213.542 324.433 213.542 333.183 Q213.542 341.91 210.463 346.516 Q207.408 351.1 201.598 351.1 Q195.787 351.1 192.709 346.516 Q189.653 341.91 189.653 333.183 Q189.653 324.433 192.709 319.85 Q195.787 315.243 201.598 315.243 Z" fill="#000000" fill-rule="nonzero" fill-opacity="1" /><path clip-path="url(#clip100)" d="M221.806 315.868 L240.162 315.868 L240.162 319.804 L226.088 319.804 L226.088 328.276 Q227.107 327.928 228.125 327.766 Q229.144 327.581 230.162 327.581 Q235.949 327.581 239.329 330.753 Q242.709 333.924 242.709 339.34 Q242.709 344.919 239.236 348.021 Q235.764 351.1 229.445 351.1 Q227.269 351.1 225 350.729 Q222.755 350.359 220.348 349.618 L220.348 344.919 Q222.431 346.053 224.653 346.609 Q226.875 347.164 229.352 347.164 Q233.357 347.164 235.695 345.058 Q238.033 342.952 238.033 339.34 Q238.033 335.729 235.695 333.623 Q233.357 331.516 229.352 331.516 Q227.477 331.516 225.602 331.933 Q223.75 332.35 221.806 333.229 L221.806 315.868 Z" fill="#000000" fill-rule="nonzero" fill-opacity="1" /><path clip-path="url(#clip100)" d="M261.921 318.947 Q258.31 318.947 256.482 322.512 Q254.676 326.053 254.676 333.183 Q254.676 340.29 256.482 343.854 Q258.31 347.396 261.921 347.396 Q265.556 347.396 267.361 343.854 Q269.19 340.29 269.19 333.183 Q269.19 326.053 267.361 322.512 Q265.556 318.947 261.921 318.947 M261.921 315.243 Q267.732 315.243 270.787 319.85 Q273.866 324.433 273.866 333.183 Q273.866 341.91 270.787 346.516 Q267.732 351.1 261.921 351.1 Q256.111 351.1 253.033 346.516 Q249.977 341.91 249.977 333.183 Q249.977 324.433 253.033 319.85 Q256.111 315.243 261.921 315.243 Z" fill="#000000" fill-rule="nonzero" fill-opacity="1" /><path clip-path="url(#clip100)" d="M118.01 120.421 L125.649 120.421 L125.649 94.0555 L117.339 95.7222 L117.339 91.4629 L125.603 89.7963 L130.279 89.7963 L130.279 120.421 L137.917 120.421 L137.917 124.356 L118.01 124.356 L118.01 120.421 Z" fill="#000000" fill-rule="nonzero" fill-opacity="1" /><path clip-path="url(#clip100)" d="M147.362 118.477 L152.246 118.477 L152.246 124.356 L147.362 124.356 L147.362 118.477 Z" fill="#000000" fill-rule="nonzero" fill-opacity="1" /><path clip-path="url(#clip100)" d="M172.431 92.875 Q168.82 92.875 166.991 96.4398 Q165.186 99.9814 165.186 107.111 Q165.186 114.217 166.991 117.782 Q168.82 121.324 172.431 121.324 Q176.065 121.324 177.871 117.782 Q179.7 114.217 179.7 107.111 Q179.7 99.9814 177.871 96.4398 Q176.065 92.875 172.431 92.875 M172.431 89.1713 Q178.241 89.1713 181.297 93.7777 Q184.376 98.361 184.376 107.111 Q184.376 115.838 181.297 120.444 Q178.241 125.028 172.431 125.028 Q166.621 125.028 163.542 120.444 Q160.487 115.838 160.487 107.111 Q160.487 98.361 163.542 93.7777 Q166.621 89.1713 172.431 89.1713 Z" fill="#000000" fill-rule="nonzero" fill-opacity="1" /><path clip-path="url(#clip100)" d="M202.593 92.875 Q198.982 92.875 197.153 96.4398 Q195.348 99.9814 195.348 107.111 Q195.348 114.217 197.153 117.782 Q198.982 121.324 202.593 121.324 Q206.227 121.324 208.033 117.782 Q209.861 114.217 209.861 107.111 Q209.861 99.9814 208.033 96.4398 Q206.227 92.875 202.593 92.875 M202.593 89.1713 Q208.403 89.1713 211.459 93.7777 Q214.537 98.361 214.537 107.111 Q214.537 115.838 211.459 120.444 Q208.403 125.028 202.593 125.028 Q196.783 125.028 193.704 120.444 Q190.649 115.838 190.649 107.111 Q190.649 98.361 193.704 93.7777 Q196.783 89.1713 202.593 89.1713 Z" fill="#000000" fill-rule="nonzero" fill-opacity="1" /><path clip-path="url(#clip100)" d="M221.574 89.7963 L243.797 89.7963 L243.797 91.787 L231.25 124.356 L226.366 124.356 L238.172 93.7314 L221.574 93.7314 L221.574 89.7963 Z" fill="#000000" fill-rule="nonzero" fill-opacity="1" /><path clip-path="url(#clip100)" d="M252.963 89.7963 L271.32 89.7963 L271.32 93.7314 L257.246 93.7314 L257.246 102.204 Q258.264 101.856 259.283 101.694 Q260.301 101.509 261.32 101.509 Q267.107 101.509 270.486 104.68 Q273.866 107.852 273.866 113.268 Q273.866 118.847 270.394 121.949 Q266.921 125.028 260.602 125.028 Q258.426 125.028 256.158 124.657 Q253.912 124.287 251.505 123.546 L251.505 118.847 Q253.588 119.981 255.81 120.537 Q258.033 121.092 260.509 121.092 Q264.514 121.092 266.852 118.986 Q269.19 116.879 269.19 113.268 Q269.19 109.657 266.852 107.551 Q264.514 105.444 260.509 105.444 Q258.634 105.444 256.759 105.861 Q254.908 106.278 252.963 107.157 L252.963 89.7963 Z" fill="#000000" fill-rule="nonzero" fill-opacity="1" /><path clip-path="url(#clip100)" d="M57.2247 896.821 L44.4614 896.821 L44.4614 907.325 L39.1779 907.325 L39.1779 890.456 L59.58 890.456 Q62.2218 894.18 63.5904 898.667 Q64.9272 903.155 64.9272 908.248 Q64.9272 919.388 58.4342 925.69 Q51.9093 931.96 40.2919 931.96 Q28.6427 931.96 22.1496 925.69 Q15.6248 919.388 15.6248 908.248 Q15.6248 903.601 16.7706 899.431 Q17.9164 895.23 20.1444 891.697 L26.9876 891.697 Q23.9639 895.262 22.4361 899.272 Q20.9083 903.283 20.9083 907.707 Q20.9083 916.428 25.7781 920.82 Q30.6479 925.181 40.2919 925.181 Q49.9041 925.181 54.7739 920.82 Q59.6436 916.428 59.6436 907.707 Q59.6436 904.301 59.0707 901.627 Q58.466 898.954 57.2247 896.821 Z" fill="#000000" fill-rule="nonzero" fill-opacity="1" /><path clip-path="url(#clip100)" d="M21.7677 872.282 L58.7206 872.282 L58.7206 864.515 Q58.7206 854.68 54.2646 850.129 Q49.8086 845.546 40.1964 845.546 Q30.6479 845.546 26.2237 850.129 Q21.7677 854.68 21.7677 864.515 L21.7677 872.282 M16.4842 878.711 L16.4842 865.502 Q16.4842 851.688 22.2451 845.227 Q27.9743 838.766 40.1964 838.766 Q52.4822 838.766 58.2432 845.259 Q64.0042 851.752 64.0042 865.502 L64.0042 878.711 L16.4842 878.711 Z" fill="#000000" fill-rule="nonzero" fill-opacity="1" /><path clip-path="url(#clip100)" d="M21.7677 822.088 L39.6235 822.088 L39.6235 814.004 Q39.6235 809.516 37.3 807.065 Q34.9765 804.614 30.6797 804.614 Q26.4147 804.614 24.0912 807.065 Q21.7677 809.516 21.7677 814.004 L21.7677 822.088 M16.4842 828.517 L16.4842 814.004 Q16.4842 806.015 20.1126 801.94 Q23.7092 797.835 30.6797 797.835 Q37.7138 797.835 41.3104 801.94 Q44.907 806.015 44.907 814.004 L44.907 822.088 L64.0042 822.088 L64.0042 828.517 L16.4842 828.517 Z" fill="#000000" fill-rule="nonzero" fill-opacity="1" /><path clip-path="url(#clip100)" d="M29.7248 743.09 L35.1993 743.09 Q33.8307 745.572 33.1623 748.087 Q32.4621 750.569 32.4621 753.116 Q32.4621 758.813 36.0905 761.964 Q39.6872 765.115 46.212 765.115 Q52.7369 765.115 56.3653 761.964 Q59.9619 758.813 59.9619 753.116 Q59.9619 750.569 59.2935 748.087 Q58.5933 745.572 57.2247 743.09 L62.6355 743.09 Q63.7814 745.54 64.3543 748.182 Q64.9272 750.792 64.9272 753.752 Q64.9272 761.805 59.8664 766.547 Q54.8057 771.29 46.212 771.29 Q37.491 771.29 32.4939 766.515 Q27.4968 761.709 27.4968 753.37 Q27.4968 750.665 28.0697 748.087 Q28.6108 745.508 29.7248 743.09 Z" fill="#000000" fill-rule="nonzero" fill-opacity="1" /><path clip-path="url(#clip100)" d="M42.4881 703.272 L64.0042 703.272 L64.0042 709.128 L42.679 709.128 Q37.6183 709.128 35.1038 711.102 Q32.5894 713.075 32.5894 717.022 Q32.5894 721.764 35.6131 724.502 Q38.6368 727.239 43.8567 727.239 L64.0042 727.239 L64.0042 733.127 L14.479 733.127 L14.479 727.239 L33.8944 727.239 Q30.6797 725.138 29.0883 722.305 Q27.4968 719.441 27.4968 715.717 Q27.4968 709.574 31.3163 706.423 Q35.1038 703.272 42.4881 703.272 Z" fill="#000000" fill-rule="nonzero" fill-opacity="1" /><path clip-path="url(#clip100)" d="M46.0847 675.39 Q46.0847 682.488 47.7079 685.225 Q49.3312 687.963 53.2461 687.963 Q56.3653 687.963 58.2114 685.925 Q60.0256 683.857 60.0256 680.324 Q60.0256 675.454 56.5881 672.526 Q53.1188 669.566 47.3897 669.566 L46.0847 669.566 L46.0847 675.39 M43.6657 663.709 L64.0042 663.709 L64.0042 669.566 L58.5933 669.566 Q61.8398 671.571 63.3994 674.563 Q64.9272 677.555 64.9272 681.883 Q64.9272 687.358 61.8716 690.604 Q58.7843 693.819 53.6281 693.819 Q47.6125 693.819 44.5569 689.809 Q41.5014 685.766 41.5014 677.777 L41.5014 669.566 L40.9285 669.566 Q36.8862 669.566 34.6901 672.239 Q32.4621 674.881 32.4621 679.687 Q32.4621 682.743 33.1941 685.639 Q33.9262 688.535 35.3903 691.209 L29.9795 691.209 Q28.7381 687.994 28.1334 684.971 Q27.4968 681.947 27.4968 679.082 Q27.4968 671.348 31.5072 667.529 Q35.5176 663.709 43.6657 663.709 Z" fill="#000000" fill-rule="nonzero" fill-opacity="1" /><path clip-path="url(#clip100)" d="M42.4881 622.014 L64.0042 622.014 L64.0042 627.87 L42.679 627.87 Q37.6183 627.87 35.1038 629.844 Q32.5894 631.817 32.5894 635.764 Q32.5894 640.506 35.6131 643.243 Q38.6368 645.981 43.8567 645.981 L64.0042 645.981 L64.0042 651.869 L28.3562 651.869 L28.3562 645.981 L33.8944 645.981 Q30.6797 643.88 29.0883 641.047 Q27.4968 638.183 27.4968 634.459 Q27.4968 628.316 31.3163 625.165 Q35.1038 622.014 42.4881 622.014 Z" fill="#000000" fill-rule="nonzero" fill-opacity="1" /><path clip-path="url(#clip100)" d="M45.7664 586.875 Q39.4007 586.875 35.8996 589.517 Q32.3984 592.127 32.3984 596.869 Q32.3984 601.58 35.8996 604.222 Q39.4007 606.832 45.7664 606.832 Q52.1003 606.832 55.6014 604.222 Q59.1026 601.58 59.1026 596.869 Q59.1026 592.127 55.6014 589.517 Q52.1003 586.875 45.7664 586.875 M59.58 581.019 Q68.683 581.019 73.1071 585.061 Q77.5631 589.103 77.5631 597.442 Q77.5631 600.53 77.0857 603.267 Q76.6401 606.004 75.6852 608.582 L69.9879 608.582 Q71.3884 606.004 72.0568 603.49 Q72.7252 600.975 72.7252 598.365 Q72.7252 592.604 69.7015 589.74 Q66.7096 586.875 60.6303 586.875 L57.7339 586.875 Q60.885 588.689 62.4446 591.522 Q64.0042 594.355 64.0042 598.302 Q64.0042 604.858 59.0071 608.869 Q54.01 612.879 45.7664 612.879 Q37.491 612.879 32.4939 608.869 Q27.4968 604.858 27.4968 598.302 Q27.4968 594.355 29.0564 591.522 Q30.616 588.689 33.7671 586.875 L28.3562 586.875 L28.3562 581.019 L59.58 581.019 Z" fill="#000000" fill-rule="nonzero" fill-opacity="1" /><path clip-path="url(#clip100)" d="M44.7161 538.464 L47.5806 538.464 L47.5806 565.391 Q53.6281 565.009 56.8109 561.762 Q59.9619 558.484 59.9619 552.659 Q59.9619 549.286 59.1344 546.135 Q58.3069 542.952 56.6518 539.833 L62.1899 539.833 Q63.5267 542.984 64.227 546.294 Q64.9272 549.604 64.9272 553.01 Q64.9272 561.54 59.9619 566.537 Q54.9967 571.502 46.5303 571.502 Q37.7774 571.502 32.6531 566.791 Q27.4968 562.049 27.4968 554.028 Q27.4968 546.835 32.1438 542.665 Q36.7589 538.464 44.7161 538.464 M42.9973 544.32 Q38.1912 544.384 35.3266 547.026 Q32.4621 549.636 32.4621 553.964 Q32.4621 558.866 35.2312 561.826 Q38.0002 564.754 43.0292 565.2 L42.9973 544.32 Z" fill="#000000" fill-rule="nonzero" fill-opacity="1" /><path clip-path="url(#clip102)" d="M367.683 785.293 L488.137 772.262 L608.59 459.485 L729.044 540.415 L849.497 479.705 L969.951 933.547 L1090.4 947.802 L1210.86 949.561 L1331.31 1133.83 L1451.76 1162.42 L1572.22 1212.84 L1692.67 1118.74 L1813.12 1134.72 L1933.58 1228.02 L2054.03 1071.33 L2174.48 1290.39 L2294.94 1384.24 L2294.94 608.548 L2174.48 546.927 L2054.03 357.801 L1933.58 536.925 L1813.12 472.193 L1692.67 469.801 L1572.22 596.932 L1451.76 563.482 L1331.31 602.537 L1210.86 440.552 L1090.4 493.348 L969.951 506.872 L849.497 86.1857 L729.044 197.551 L608.59 181.107 L488.137 555.762 L367.683 785.293  Z" fill="#009af9" fill-rule="evenodd" fill-opacity="0.2"/>
<polyline clip-path="url(#clip102)" style="stroke:#009af9; stroke-linecap:round; stroke-linejoin:round; stroke-width:4; stroke-opacity:1; fill:none" points="367.683,785.293 488.137,664.012 608.59,320.296 729.044,368.983 849.497,282.946 969.951,720.21 1090.4,720.575 1210.86,695.057 1331.31,868.183 1451.76,862.95 1572.22,904.885 1692.67,794.27 1813.12,803.456 1933.58,882.472 2054.03,714.565 2174.48,918.656 2294.94,996.393 "/>
</svg>
