<?xml version="1.0" encoding="utf-8"?>
<svg xmlns="http://www.w3.org/2000/svg" xmlns:xlink="http://www.w3.org/1999/xlink" width="600" height="400" viewBox="0 0 2400 1600">
<defs>
  <clipPath id="clip700">
    <rect x="0" y="0" width="2400" height="1600"/>
  </clipPath>
</defs>
<path clip-path="url(#clip700)" d="M0 1600 L2400 1600 L2400 0 L0 0  Z" fill="#ffffff" fill-rule="evenodd" fill-opacity="1"/>
<defs>
  <clipPath id="clip701">
    <rect x="480" y="0" width="1681" height="1600"/>
  </clipPath>
</defs>
<path clip-path="url(#clip700)" d="M308.87 1423.18 L2352.76 1423.18 L2352.76 47.2441 L308.87 47.2441  Z" fill="#ffffff" fill-rule="evenodd" fill-opacity="1"/>
<defs>
  <clipPath id="clip702">
    <rect x="308" y="47" width="2045" height="1377"/>
  </clipPath>
</defs>
<polyline clip-path="url(#clip702)" style="stroke:#000000; stroke-linecap:round; stroke-linejoin:round; stroke-width:2; stroke-opacity:0.1; fill:none" points="607.74,1423.18 607.74,47.2441 "/>
<polyline clip-path="url(#clip702)" style="stroke:#000000; stroke-linecap:round; stroke-linejoin:round; stroke-width:2; stroke-opacity:0.1; fill:none" points="969.277,1423.18 969.277,47.2441 "/>
<polyline clip-path="url(#clip702)" style="stroke:#000000; stroke-linecap:round; stroke-linejoin:round; stroke-width:2; stroke-opacity:0.1; fill:none" points="1330.81,1423.18 1330.81,47.2441 "/>
<polyline clip-path="url(#clip702)" style="stroke:#000000; stroke-linecap:round; stroke-linejoin:round; stroke-width:2; stroke-opacity:0.1; fill:none" points="1692.35,1423.18 1692.35,47.2441 "/>
<polyline clip-path="url(#clip702)" style="stroke:#000000; stroke-linecap:round; stroke-linejoin:round; stroke-width:2; stroke-opacity:0.1; fill:none" points="2053.89,1423.18 2053.89,47.2441 "/>
<polyline clip-path="url(#clip702)" style="stroke:#000000; stroke-linecap:round; stroke-linejoin:round; stroke-width:2; stroke-opacity:0.1; fill:none" points="308.87,1207.77 2352.76,1207.77 "/>
<polyline clip-path="url(#clip702)" style="stroke:#000000; stroke-linecap:round; stroke-linejoin:round; stroke-width:2; stroke-opacity:0.1; fill:none" points="308.87,956.692 2352.76,956.692 "/>
<polyline clip-path="url(#clip702)" style="stroke:#000000; stroke-linecap:round; stroke-linejoin:round; stroke-width:2; stroke-opacity:0.1; fill:none" points="308.87,705.616 2352.76,705.616 "/>
<polyline clip-path="url(#clip702)" style="stroke:#000000; stroke-linecap:round; stroke-linejoin:round; stroke-width:2; stroke-opacity:0.1; fill:none" points="308.87,454.541 2352.76,454.541 "/>
<polyline clip-path="url(#clip702)" style="stroke:#000000; stroke-linecap:round; stroke-linejoin:round; stroke-width:2; stroke-opacity:0.1; fill:none" points="308.87,203.465 2352.76,203.465 "/>
<polyline clip-path="url(#clip700)" style="stroke:#000000; stroke-linecap:round; stroke-linejoin:round; stroke-width:4; stroke-opacity:1; fill:none" points="308.87,1423.18 2352.76,1423.18 "/>
<polyline clip-path="url(#clip700)" style="stroke:#000000; stroke-linecap:round; stroke-linejoin:round; stroke-width:4; stroke-opacity:1; fill:none" points="607.74,1423.18 607.74,1404.28 "/>
<polyline clip-path="url(#clip700)" style="stroke:#000000; stroke-linecap:round; stroke-linejoin:round; stroke-width:4; stroke-opacity:1; fill:none" points="969.277,1423.18 969.277,1404.28 "/>
<polyline clip-path="url(#clip700)" style="stroke:#000000; stroke-linecap:round; stroke-linejoin:round; stroke-width:4; stroke-opacity:1; fill:none" points="1330.81,1423.18 1330.81,1404.28 "/>
<polyline clip-path="url(#clip700)" style="stroke:#000000; stroke-linecap:round; stroke-linejoin:round; stroke-width:4; stroke-opacity:1; fill:none" points="1692.35,1423.18 1692.35,1404.28 "/>
<polyline clip-path="url(#clip700)" style="stroke:#000000; stroke-linecap:round; stroke-linejoin:round; stroke-width:4; stroke-opacity:1; fill:none" points="2053.89,1423.18 2053.89,1404.28 "/>
<path clip-path="url(#clip700)" d="M611.988 1466.95 Q615.345 1467.66 617.22 1469.93 Q619.118 1472.2 619.118 1475.53 Q619.118 1480.65 615.599 1483.45 Q612.081 1486.25 605.599 1486.25 Q603.423 1486.25 601.109 1485.81 Q598.817 1485.39 596.363 1484.54 L596.363 1480.02 Q598.308 1481.16 600.622 1481.74 Q602.937 1482.32 605.46 1482.32 Q609.859 1482.32 612.15 1480.58 Q614.465 1478.84 614.465 1475.53 Q614.465 1472.48 612.312 1470.77 Q610.183 1469.03 606.363 1469.03 L602.335 1469.03 L602.335 1465.19 L606.548 1465.19 Q609.997 1465.19 611.826 1463.82 Q613.655 1462.43 613.655 1459.84 Q613.655 1457.18 611.757 1455.77 Q609.882 1454.33 606.363 1454.33 Q604.442 1454.33 602.243 1454.75 Q600.044 1455.16 597.405 1456.04 L597.405 1451.88 Q600.067 1451.14 602.382 1450.77 Q604.72 1450.39 606.78 1450.39 Q612.104 1450.39 615.206 1452.83 Q618.308 1455.23 618.308 1459.35 Q618.308 1462.22 616.664 1464.21 Q615.021 1466.18 611.988 1466.95 Z" fill="#000000" fill-rule="nonzero" fill-opacity="1" /><path clip-path="url(#clip700)" d="M969.682 1466.44 Q966.534 1466.44 964.682 1468.59 Q962.853 1470.74 962.853 1474.49 Q962.853 1478.22 964.682 1480.39 Q966.534 1482.55 969.682 1482.55 Q972.83 1482.55 974.659 1480.39 Q976.511 1478.22 976.511 1474.49 Q976.511 1470.74 974.659 1468.59 Q972.83 1466.44 969.682 1466.44 M978.964 1451.78 L978.964 1456.04 Q977.205 1455.21 975.399 1454.77 Q973.617 1454.33 971.858 1454.33 Q967.228 1454.33 964.775 1457.45 Q962.344 1460.58 961.997 1466.9 Q963.362 1464.89 965.423 1463.82 Q967.483 1462.73 969.96 1462.73 Q975.168 1462.73 978.177 1465.9 Q981.21 1469.05 981.21 1474.49 Q981.21 1479.82 978.061 1483.03 Q974.913 1486.25 969.682 1486.25 Q963.687 1486.25 960.515 1481.67 Q957.344 1477.06 957.344 1468.33 Q957.344 1460.14 961.233 1455.28 Q965.122 1450.39 971.673 1450.39 Q973.432 1450.39 975.214 1450.74 Q977.02 1451.09 978.964 1451.78 Z" fill="#000000" fill-rule="nonzero" fill-opacity="1" /><path clip-path="url(#clip700)" d="M1321.11 1484.86 L1321.11 1480.6 Q1322.87 1481.44 1324.68 1481.88 Q1326.48 1482.32 1328.22 1482.32 Q1332.85 1482.32 1335.28 1479.21 Q1337.73 1476.09 1338.08 1469.75 Q1336.74 1471.74 1334.68 1472.8 Q1332.62 1473.87 1330.12 1473.87 Q1324.93 1473.87 1321.9 1470.74 Q1318.89 1467.59 1318.89 1462.15 Q1318.89 1456.83 1322.04 1453.61 Q1325.19 1450.39 1330.42 1450.39 Q1336.41 1450.39 1339.56 1455 Q1342.73 1459.58 1342.73 1468.33 Q1342.73 1476.51 1338.85 1481.39 Q1334.98 1486.25 1328.43 1486.25 Q1326.67 1486.25 1324.86 1485.9 Q1323.06 1485.56 1321.11 1484.86 M1330.42 1470.21 Q1333.57 1470.21 1335.4 1468.06 Q1337.25 1465.9 1337.25 1462.15 Q1337.25 1458.43 1335.4 1456.27 Q1333.57 1454.1 1330.42 1454.1 Q1327.27 1454.1 1325.42 1456.27 Q1323.59 1458.43 1323.59 1462.15 Q1323.59 1465.9 1325.42 1468.06 Q1327.27 1470.21 1330.42 1470.21 Z" fill="#000000" fill-rule="nonzero" fill-opacity="1" /><path clip-path="url(#clip700)" d="M1667.84 1481.64 L1675.47 1481.64 L1675.47 1455.28 L1667.16 1456.95 L1667.16 1452.69 L1675.43 1451.02 L1680.1 1451.02 L1680.1 1481.64 L1687.74 1481.64 L1687.74 1485.58 L1667.84 1485.58 L1667.84 1481.64 Z" fill="#000000" fill-rule="nonzero" fill-opacity="1" /><path clip-path="url(#clip700)" d="M1701.22 1481.64 L1717.53 1481.64 L1717.53 1485.58 L1695.59 1485.58 L1695.59 1481.64 Q1698.25 1478.89 1702.84 1474.26 Q1707.44 1469.61 1708.62 1468.27 Q1710.87 1465.74 1711.75 1464.01 Q1712.65 1462.25 1712.65 1460.56 Q1712.65 1457.8 1710.71 1456.07 Q1708.78 1454.33 1705.68 1454.33 Q1703.48 1454.33 1701.03 1455.09 Q1698.6 1455.86 1695.82 1457.41 L1695.82 1452.69 Q1698.65 1451.55 1701.1 1450.97 Q1703.55 1450.39 1705.59 1450.39 Q1710.96 1450.39 1714.15 1453.08 Q1717.35 1455.77 1717.35 1460.26 Q1717.35 1462.39 1716.54 1464.31 Q1715.75 1466.2 1713.65 1468.8 Q1713.07 1469.47 1709.97 1472.69 Q1706.86 1475.88 1701.22 1481.64 Z" fill="#000000" fill-rule="nonzero" fill-opacity="1" /><path clip-path="url(#clip700)" d="M2029.07 1481.64 L2036.71 1481.64 L2036.71 1455.28 L2028.4 1456.95 L2028.4 1452.69 L2036.66 1451.02 L2041.34 1451.02 L2041.34 1481.64 L2048.98 1481.64 L2048.98 1485.58 L2029.07 1485.58 L2029.07 1481.64 Z" fill="#000000" fill-rule="nonzero" fill-opacity="1" /><path clip-path="url(#clip700)" d="M2058.47 1451.02 L2076.83 1451.02 L2076.83 1454.96 L2062.75 1454.96 L2062.75 1463.43 Q2063.77 1463.08 2064.79 1462.92 Q2065.81 1462.73 2066.83 1462.73 Q2072.61 1462.73 2075.99 1465.9 Q2079.37 1469.08 2079.37 1474.49 Q2079.37 1480.07 2075.9 1483.17 Q2072.43 1486.25 2066.11 1486.25 Q2063.93 1486.25 2061.66 1485.88 Q2059.42 1485.51 2057.01 1484.77 L2057.01 1480.07 Q2059.09 1481.2 2061.32 1481.76 Q2063.54 1482.32 2066.02 1482.32 Q2070.02 1482.32 2072.36 1480.21 Q2074.7 1478.1 2074.7 1474.49 Q2074.7 1470.88 2072.36 1468.77 Q2070.02 1466.67 2066.02 1466.67 Q2064.14 1466.67 2062.27 1467.08 Q2060.41 1467.5 2058.47 1468.38 L2058.47 1451.02 Z" fill="#000000" fill-rule="nonzero" fill-opacity="1" /><path clip-path="url(#clip700)" d="M1202.32 1550.25 Q1202.32 1556.71 1204.96 1560.4 Q1207.64 1564.07 1212.28 1564.07 Q1216.93 1564.07 1219.6 1560.4 Q1222.28 1556.71 1222.28 1550.25 Q1222.28 1543.79 1219.6 1540.13 Q1216.93 1536.44 1212.28 1536.44 Q1207.64 1536.44 1204.96 1540.13 Q1202.32 1543.79 1202.32 1550.25 M1222.28 1562.7 Q1220.43 1565.88 1217.6 1567.44 Q1214.8 1568.97 1210.85 1568.97 Q1204.39 1568.97 1200.32 1563.81 Q1196.27 1558.65 1196.27 1550.25 Q1196.27 1541.85 1200.32 1536.69 Q1204.39 1531.54 1210.85 1531.54 Q1214.8 1531.54 1217.6 1533.1 Q1220.43 1534.62 1222.28 1537.81 L1222.28 1532.4 L1228.13 1532.4 L1228.13 1581.6 L1222.28 1581.6 L1222.28 1562.7 Z" fill="#000000" fill-rule="nonzero" fill-opacity="1" /><path clip-path="url(#clip700)" d="M1239.59 1553.98 L1239.59 1532.4 L1245.45 1532.4 L1245.45 1553.75 Q1245.45 1558.81 1247.42 1561.36 Q1249.4 1563.87 1253.34 1563.87 Q1258.08 1563.87 1260.82 1560.85 Q1263.59 1557.83 1263.59 1552.61 L1263.59 1532.4 L1269.45 1532.4 L1269.45 1568.04 L1263.59 1568.04 L1263.59 1562.57 Q1261.46 1565.82 1258.63 1567.41 Q1255.83 1568.97 1252.1 1568.97 Q1245.96 1568.97 1242.78 1565.15 Q1239.59 1561.33 1239.59 1553.98 M1254.33 1531.54 L1254.33 1531.54 Z" fill="#000000" fill-rule="nonzero" fill-opacity="1" /><path clip-path="url(#clip700)" d="M1297.71 1550.12 Q1290.61 1550.12 1287.88 1551.75 Q1285.14 1553.37 1285.14 1557.29 Q1285.14 1560.4 1287.18 1562.25 Q1289.25 1564.07 1292.78 1564.07 Q1297.65 1564.07 1300.58 1560.63 Q1303.54 1557.16 1303.54 1551.43 L1303.54 1550.12 L1297.71 1550.12 M1309.39 1547.71 L1309.39 1568.04 L1303.54 1568.04 L1303.54 1562.63 Q1301.53 1565.88 1298.54 1567.44 Q1295.55 1568.97 1291.22 1568.97 Q1285.74 1568.97 1282.5 1565.91 Q1279.28 1562.82 1279.28 1557.67 Q1279.28 1551.65 1283.29 1548.6 Q1287.34 1545.54 1295.32 1545.54 L1303.54 1545.54 L1303.54 1544.97 Q1303.54 1540.93 1300.86 1538.73 Q1298.22 1536.5 1293.41 1536.5 Q1290.36 1536.5 1287.46 1537.23 Q1284.57 1537.97 1281.89 1539.43 L1281.89 1534.02 Q1285.11 1532.78 1288.13 1532.17 Q1291.15 1531.54 1294.02 1531.54 Q1301.75 1531.54 1305.57 1535.55 Q1309.39 1539.56 1309.39 1547.71 Z" fill="#000000" fill-rule="nonzero" fill-opacity="1" /><path clip-path="url(#clip700)" d="M1342.11 1537.87 Q1341.13 1537.3 1339.95 1537.04 Q1338.8 1536.76 1337.4 1536.76 Q1332.44 1536.76 1329.76 1540 Q1327.12 1543.22 1327.12 1549.27 L1327.12 1568.04 L1321.23 1568.04 L1321.23 1532.4 L1327.12 1532.4 L1327.12 1537.93 Q1328.97 1534.69 1331.93 1533.13 Q1334.89 1531.54 1339.12 1531.54 Q1339.73 1531.54 1340.46 1531.63 Q1341.19 1531.7 1342.08 1531.85 L1342.11 1537.87 Z" fill="#000000" fill-rule="nonzero" fill-opacity="1" /><path clip-path="url(#clip700)" d="M1354.05 1522.27 L1354.05 1532.4 L1366.11 1532.4 L1366.11 1536.95 L1354.05 1536.95 L1354.05 1556.3 Q1354.05 1560.66 1355.23 1561.9 Q1356.44 1563.14 1360.1 1563.14 L1366.11 1563.14 L1366.11 1568.04 L1360.1 1568.04 Q1353.32 1568.04 1350.74 1565.53 Q1348.16 1562.98 1348.16 1556.3 L1348.16 1536.95 L1343.86 1536.95 L1343.86 1532.4 L1348.16 1532.4 L1348.16 1522.27 L1354.05 1522.27 Z" fill="#000000" fill-rule="nonzero" fill-opacity="1" /><path clip-path="url(#clip700)" d="M1404.31 1548.76 L1404.31 1551.62 L1377.38 1551.62 Q1377.76 1557.67 1381.01 1560.85 Q1384.29 1564 1390.11 1564 Q1393.48 1564 1396.63 1563.17 Q1399.82 1562.35 1402.94 1560.69 L1402.94 1566.23 Q1399.79 1567.57 1396.48 1568.27 Q1393.17 1568.97 1389.76 1568.97 Q1381.23 1568.97 1376.23 1564 Q1371.27 1559.04 1371.27 1550.57 Q1371.27 1541.82 1375.98 1536.69 Q1380.72 1531.54 1388.74 1531.54 Q1395.93 1531.54 1400.1 1536.18 Q1404.31 1540.8 1404.31 1548.76 M1398.45 1547.04 Q1398.39 1542.23 1395.74 1539.37 Q1393.13 1536.5 1388.8 1536.5 Q1383.9 1536.5 1380.94 1539.27 Q1378.01 1542.04 1377.57 1547.07 L1398.45 1547.04 Z" fill="#000000" fill-rule="nonzero" fill-opacity="1" /><path clip-path="url(#clip700)" d="M1434.57 1537.87 Q1433.59 1537.3 1432.41 1537.04 Q1431.26 1536.76 1429.86 1536.76 Q1424.9 1536.76 1422.22 1540 Q1419.58 1543.22 1419.58 1549.27 L1419.58 1568.04 L1413.69 1568.04 L1413.69 1532.4 L1419.58 1532.4 L1419.58 1537.93 Q1421.43 1534.69 1424.39 1533.13 Q1427.35 1531.54 1431.58 1531.54 Q1432.19 1531.54 1432.92 1531.63 Q1433.65 1531.7 1434.54 1531.85 L1434.57 1537.87 Z" fill="#000000" fill-rule="nonzero" fill-opacity="1" /><path clip-path="url(#clip700)" d="M1463.44 1533.45 L1463.44 1538.98 Q1460.96 1537.71 1458.29 1537.07 Q1455.61 1536.44 1452.75 1536.44 Q1448.39 1536.44 1446.19 1537.77 Q1444.03 1539.11 1444.03 1541.79 Q1444.03 1543.82 1445.59 1545 Q1447.15 1546.15 1451.86 1547.2 L1453.86 1547.64 Q1460.1 1548.98 1462.71 1551.43 Q1465.35 1553.85 1465.35 1558.21 Q1465.35 1563.17 1461.41 1566.07 Q1457.49 1568.97 1450.62 1568.97 Q1447.75 1568.97 1444.63 1568.39 Q1441.54 1567.85 1438.11 1566.74 L1438.11 1560.69 Q1441.35 1562.38 1444.5 1563.24 Q1447.66 1564.07 1450.74 1564.07 Q1454.88 1564.07 1457.11 1562.66 Q1459.34 1561.23 1459.34 1558.65 Q1459.34 1556.27 1457.71 1554.99 Q1456.12 1553.72 1450.68 1552.54 L1448.64 1552.07 Q1443.2 1550.92 1440.78 1548.56 Q1438.36 1546.18 1438.36 1542.04 Q1438.36 1537.01 1441.93 1534.27 Q1445.49 1531.54 1452.05 1531.54 Q1455.29 1531.54 1458.16 1532.01 Q1461.02 1532.49 1463.44 1533.45 Z" fill="#000000" fill-rule="nonzero" fill-opacity="1" /><polyline clip-path="url(#clip700)" style="stroke:#000000; stroke-linecap:round; stroke-linejoin:round; stroke-width:4; stroke-opacity:1; fill:none" points="308.87,1423.18 308.87,47.2441 "/>
<polyline clip-path="url(#clip700)" style="stroke:#000000; stroke-linecap:round; stroke-linejoin:round; stroke-width:4; stroke-opacity:1; fill:none" points="308.87,1207.77 327.768,1207.77 "/>
<polyline clip-path="url(#clip700)" style="stroke:#000000; stroke-linecap:round; stroke-linejoin:round; stroke-width:4; stroke-opacity:1; fill:none" points="308.87,956.692 327.768,956.692 "/>
<polyline clip-path="url(#clip700)" style="stroke:#000000; stroke-linecap:round; stroke-linejoin:round; stroke-width:4; stroke-opacity:1; fill:none" points="308.87,705.616 327.768,705.616 "/>
<polyline clip-path="url(#clip700)" style="stroke:#000000; stroke-linecap:round; stroke-linejoin:round; stroke-width:4; stroke-opacity:1; fill:none" points="308.87,454.541 327.768,454.541 "/>
<polyline clip-path="url(#clip700)" style="stroke:#000000; stroke-linecap:round; stroke-linejoin:round; stroke-width:4; stroke-opacity:1; fill:none" points="308.87,203.465 327.768,203.465 "/>
<path clip-path="url(#clip700)" d="M126.205 1193.57 Q122.593 1193.57 120.765 1197.13 Q118.959 1200.67 118.959 1207.8 Q118.959 1214.91 120.765 1218.47 Q122.593 1222.02 126.205 1222.02 Q129.839 1222.02 131.644 1218.47 Q133.473 1214.91 133.473 1207.8 Q133.473 1200.67 131.644 1197.13 Q129.839 1193.57 126.205 1193.57 M126.205 1189.86 Q132.015 1189.86 135.07 1194.47 Q138.149 1199.05 138.149 1207.8 Q138.149 1216.53 135.07 1221.14 Q132.015 1225.72 126.205 1225.72 Q120.394 1225.72 117.316 1221.14 Q114.26 1216.53 114.26 1207.8 Q114.26 1199.05 117.316 1194.47 Q120.394 1189.86 126.205 1189.86 Z" fill="#000000" fill-rule="nonzero" fill-opacity="1" /><path clip-path="url(#clip700)" d="M146.366 1219.17 L151.251 1219.17 L151.251 1225.05 L146.366 1225.05 L146.366 1219.17 Z" fill="#000000" fill-rule="nonzero" fill-opacity="1" /><path clip-path="url(#clip700)" d="M161.575 1224.33 L161.575 1220.07 Q163.334 1220.9 165.14 1221.34 Q166.945 1221.78 168.681 1221.78 Q173.311 1221.78 175.741 1218.68 Q178.195 1215.56 178.542 1209.21 Q177.2 1211.21 175.139 1212.27 Q173.079 1213.34 170.579 1213.34 Q165.394 1213.34 162.362 1210.21 Q159.353 1207.06 159.353 1201.62 Q159.353 1196.3 162.501 1193.08 Q165.649 1189.86 170.88 1189.86 Q176.876 1189.86 180.024 1194.47 Q183.195 1199.05 183.195 1207.8 Q183.195 1215.97 179.306 1220.86 Q175.44 1225.72 168.889 1225.72 Q167.13 1225.72 165.325 1225.37 Q163.519 1225.02 161.575 1224.33 M170.88 1209.68 Q174.028 1209.68 175.857 1207.53 Q177.709 1205.37 177.709 1201.62 Q177.709 1197.9 175.857 1195.74 Q174.028 1193.57 170.88 1193.57 Q167.732 1193.57 165.88 1195.74 Q164.052 1197.9 164.052 1201.62 Q164.052 1205.37 165.88 1207.53 Q167.732 1209.68 170.88 1209.68 Z" fill="#000000" fill-rule="nonzero" fill-opacity="1" /><path clip-path="url(#clip700)" d="M191.737 1224.33 L191.737 1220.07 Q193.496 1220.9 195.301 1221.34 Q197.107 1221.78 198.843 1221.78 Q203.473 1221.78 205.903 1218.68 Q208.357 1215.56 208.704 1209.21 Q207.362 1211.21 205.301 1212.27 Q203.241 1213.34 200.741 1213.34 Q195.556 1213.34 192.524 1210.21 Q189.514 1207.06 189.514 1201.62 Q189.514 1196.3 192.663 1193.08 Q195.811 1189.86 201.042 1189.86 Q207.037 1189.86 210.186 1194.47 Q213.357 1199.05 213.357 1207.8 Q213.357 1215.97 209.468 1220.86 Q205.602 1225.72 199.051 1225.72 Q197.292 1225.72 195.487 1225.37 Q193.681 1225.02 191.737 1224.33 M201.042 1209.68 Q204.19 1209.68 206.019 1207.53 Q207.871 1205.37 207.871 1201.62 Q207.871 1197.9 206.019 1195.74 Q204.19 1193.57 201.042 1193.57 Q197.894 1193.57 196.042 1195.74 Q194.213 1197.9 194.213 1201.62 Q194.213 1205.37 196.042 1207.53 Q197.894 1209.68 201.042 1209.68 Z" fill="#000000" fill-rule="nonzero" fill-opacity="1" /><path clip-path="url(#clip700)" d="M220.579 1190.49 L242.801 1190.49 L242.801 1192.48 L230.255 1225.05 L225.371 1225.05 L237.176 1194.42 L220.579 1194.42 L220.579 1190.49 Z" fill="#000000" fill-rule="nonzero" fill-opacity="1" /><path clip-path="url(#clip700)" d="M251.968 1190.49 L270.324 1190.49 L270.324 1194.42 L256.25 1194.42 L256.25 1202.9 Q257.269 1202.55 258.287 1202.39 Q259.306 1202.2 260.324 1202.2 Q266.111 1202.2 269.491 1205.37 Q272.87 1208.54 272.87 1213.96 Q272.87 1219.54 269.398 1222.64 Q265.926 1225.72 259.607 1225.72 Q257.431 1225.72 255.162 1225.35 Q252.917 1224.98 250.509 1224.24 L250.509 1219.54 Q252.593 1220.67 254.815 1221.23 Q257.037 1221.78 259.514 1221.78 Q263.519 1221.78 265.857 1219.68 Q268.195 1217.57 268.195 1213.96 Q268.195 1210.35 265.857 1208.24 Q263.519 1206.14 259.514 1206.14 Q257.639 1206.14 255.764 1206.55 Q253.912 1206.97 251.968 1207.85 L251.968 1190.49 Z" fill="#000000" fill-rule="nonzero" fill-opacity="1" /><path clip-path="url(#clip700)" d="M116.019 970.037 L123.658 970.037 L123.658 943.671 L115.348 945.338 L115.348 941.079 L123.612 939.412 L128.288 939.412 L128.288 970.037 L135.927 970.037 L135.927 973.972 L116.019 973.972 L116.019 970.037 Z" fill="#000000" fill-rule="nonzero" fill-opacity="1" /><path clip-path="url(#clip700)" d="M145.371 968.093 L150.255 968.093 L150.255 973.972 L145.371 973.972 L145.371 968.093 Z" fill="#000000" fill-rule="nonzero" fill-opacity="1" /><path clip-path="url(#clip700)" d="M170.44 942.491 Q166.829 942.491 165.001 946.056 Q163.195 949.597 163.195 956.727 Q163.195 963.833 165.001 967.398 Q166.829 970.94 170.44 970.94 Q174.075 970.94 175.88 967.398 Q177.709 963.833 177.709 956.727 Q177.709 949.597 175.88 946.056 Q174.075 942.491 170.44 942.491 M170.44 938.787 Q176.251 938.787 179.306 943.394 Q182.385 947.977 182.385 956.727 Q182.385 965.454 179.306 970.06 Q176.251 974.644 170.44 974.644 Q164.63 974.644 161.552 970.06 Q158.496 965.454 158.496 956.727 Q158.496 947.977 161.552 943.394 Q164.63 938.787 170.44 938.787 Z" fill="#000000" fill-rule="nonzero" fill-opacity="1" /><path clip-path="url(#clip700)" d="M200.602 942.491 Q196.991 942.491 195.163 946.056 Q193.357 949.597 193.357 956.727 Q193.357 963.833 195.163 967.398 Q196.991 970.94 200.602 970.94 Q204.237 970.94 206.042 967.398 Q207.871 963.833 207.871 956.727 Q207.871 949.597 206.042 946.056 Q204.237 942.491 200.602 942.491 M200.602 938.787 Q206.412 938.787 209.468 943.394 Q212.547 947.977 212.547 956.727 Q212.547 965.454 209.468 970.06 Q206.412 974.644 200.602 974.644 Q194.792 974.644 191.713 970.06 Q188.658 965.454 188.658 956.727 Q188.658 947.977 191.713 943.394 Q194.792 938.787 200.602 938.787 Z" fill="#000000" fill-rule="nonzero" fill-opacity="1" /><path clip-path="url(#clip700)" d="M230.764 942.491 Q227.153 942.491 225.324 946.056 Q223.519 949.597 223.519 956.727 Q223.519 963.833 225.324 967.398 Q227.153 970.94 230.764 970.94 Q234.398 970.94 236.204 967.398 Q238.033 963.833 238.033 956.727 Q238.033 949.597 236.204 946.056 Q234.398 942.491 230.764 942.491 M230.764 938.787 Q236.574 938.787 239.63 943.394 Q242.709 947.977 242.709 956.727 Q242.709 965.454 239.63 970.06 Q236.574 974.644 230.764 974.644 Q224.954 974.644 221.875 970.06 Q218.82 965.454 218.82 956.727 Q218.82 947.977 221.875 943.394 Q224.954 938.787 230.764 938.787 Z" fill="#000000" fill-rule="nonzero" fill-opacity="1" /><path clip-path="url(#clip700)" d="M260.926 942.491 Q257.315 942.491 255.486 946.056 Q253.681 949.597 253.681 956.727 Q253.681 963.833 255.486 967.398 Q257.315 970.94 260.926 970.94 Q264.56 970.94 266.366 967.398 Q268.195 963.833 268.195 956.727 Q268.195 949.597 266.366 946.056 Q264.56 942.491 260.926 942.491 M260.926 938.787 Q266.736 938.787 269.792 943.394 Q272.87 947.977 272.87 956.727 Q272.87 965.454 269.792 970.06 Q266.736 974.644 260.926 974.644 Q255.116 974.644 252.037 970.06 Q248.982 965.454 248.982 956.727 Q248.982 947.977 252.037 943.394 Q255.116 938.787 260.926 938.787 Z" fill="#000000" fill-rule="nonzero" fill-opacity="1" /><path clip-path="url(#clip700)" d="M117.015 718.961 L124.654 718.961 L124.654 692.596 L116.343 694.262 L116.343 690.003 L124.607 688.336 L129.283 688.336 L129.283 718.961 L136.922 718.961 L136.922 722.896 L117.015 722.896 L117.015 718.961 Z" fill="#000000" fill-rule="nonzero" fill-opacity="1" /><path clip-path="url(#clip700)" d="M146.366 717.017 L151.251 717.017 L151.251 722.896 L146.366 722.896 L146.366 717.017 Z" fill="#000000" fill-rule="nonzero" fill-opacity="1" /><path clip-path="url(#clip700)" d="M171.436 691.415 Q167.825 691.415 165.996 694.98 Q164.19 698.521 164.19 705.651 Q164.19 712.758 165.996 716.322 Q167.825 719.864 171.436 719.864 Q175.07 719.864 176.876 716.322 Q178.704 712.758 178.704 705.651 Q178.704 698.521 176.876 694.98 Q175.07 691.415 171.436 691.415 M171.436 687.711 Q177.246 687.711 180.301 692.318 Q183.38 696.901 183.38 705.651 Q183.38 714.378 180.301 718.984 Q177.246 723.568 171.436 723.568 Q165.626 723.568 162.547 718.984 Q159.491 714.378 159.491 705.651 Q159.491 696.901 162.547 692.318 Q165.626 687.711 171.436 687.711 Z" fill="#000000" fill-rule="nonzero" fill-opacity="1" /><path clip-path="url(#clip700)" d="M201.598 691.415 Q197.987 691.415 196.158 694.98 Q194.352 698.521 194.352 705.651 Q194.352 712.758 196.158 716.322 Q197.987 719.864 201.598 719.864 Q205.232 719.864 207.037 716.322 Q208.866 712.758 208.866 705.651 Q208.866 698.521 207.037 694.98 Q205.232 691.415 201.598 691.415 M201.598 687.711 Q207.408 687.711 210.463 692.318 Q213.542 696.901 213.542 705.651 Q213.542 714.378 210.463 718.984 Q207.408 723.568 201.598 723.568 Q195.787 723.568 192.709 718.984 Q189.653 714.378 189.653 705.651 Q189.653 696.901 192.709 692.318 Q195.787 687.711 201.598 687.711 Z" fill="#000000" fill-rule="nonzero" fill-opacity="1" /><path clip-path="url(#clip700)" d="M225.787 718.961 L242.107 718.961 L242.107 722.896 L220.162 722.896 L220.162 718.961 Q222.824 716.207 227.408 711.577 Q232.014 706.924 233.195 705.582 Q235.44 703.059 236.32 701.322 Q237.222 699.563 237.222 697.873 Q237.222 695.119 235.278 693.383 Q233.357 691.647 230.255 691.647 Q228.056 691.647 225.602 692.41 Q223.172 693.174 220.394 694.725 L220.394 690.003 Q223.218 688.869 225.672 688.29 Q228.125 687.711 230.162 687.711 Q235.533 687.711 238.727 690.397 Q241.922 693.082 241.922 697.572 Q241.922 699.702 241.111 701.623 Q240.324 703.521 238.218 706.114 Q237.639 706.785 234.537 710.003 Q231.435 713.197 225.787 718.961 Z" fill="#000000" fill-rule="nonzero" fill-opacity="1" /><path clip-path="url(#clip700)" d="M251.968 688.336 L270.324 688.336 L270.324 692.272 L256.25 692.272 L256.25 700.744 Q257.269 700.396 258.287 700.234 Q259.306 700.049 260.324 700.049 Q266.111 700.049 269.491 703.221 Q272.87 706.392 272.87 711.808 Q272.87 717.387 269.398 720.489 Q265.926 723.568 259.607 723.568 Q257.431 723.568 255.162 723.197 Q252.917 722.827 250.509 722.086 L250.509 717.387 Q252.593 718.521 254.815 719.077 Q257.037 719.632 259.514 719.632 Q263.519 719.632 265.857 717.526 Q268.195 715.42 268.195 711.808 Q268.195 708.197 265.857 706.091 Q263.519 703.984 259.514 703.984 Q257.639 703.984 255.764 704.401 Q253.912 704.818 251.968 705.697 L251.968 688.336 Z" fill="#000000" fill-rule="nonzero" fill-opacity="1" /><path clip-path="url(#clip700)" d="M116.019 467.885 L123.658 467.885 L123.658 441.52 L115.348 443.186 L115.348 438.927 L123.612 437.261 L128.288 437.261 L128.288 467.885 L135.927 467.885 L135.927 471.821 L116.019 471.821 L116.019 467.885 Z" fill="#000000" fill-rule="nonzero" fill-opacity="1" /><path clip-path="url(#clip700)" d="M145.371 465.941 L150.255 465.941 L150.255 471.821 L145.371 471.821 L145.371 465.941 Z" fill="#000000" fill-rule="nonzero" fill-opacity="1" /><path clip-path="url(#clip700)" d="M170.44 440.339 Q166.829 440.339 165.001 443.904 Q163.195 447.446 163.195 454.575 Q163.195 461.682 165.001 465.246 Q166.829 468.788 170.44 468.788 Q174.075 468.788 175.88 465.246 Q177.709 461.682 177.709 454.575 Q177.709 447.446 175.88 443.904 Q174.075 440.339 170.44 440.339 M170.44 436.636 Q176.251 436.636 179.306 441.242 Q182.385 445.825 182.385 454.575 Q182.385 463.302 179.306 467.908 Q176.251 472.492 170.44 472.492 Q164.63 472.492 161.552 467.908 Q158.496 463.302 158.496 454.575 Q158.496 445.825 161.552 441.242 Q164.63 436.636 170.44 436.636 Z" fill="#000000" fill-rule="nonzero" fill-opacity="1" /><path clip-path="url(#clip700)" d="M200.602 440.339 Q196.991 440.339 195.163 443.904 Q193.357 447.446 193.357 454.575 Q193.357 461.682 195.163 465.246 Q196.991 468.788 200.602 468.788 Q204.237 468.788 206.042 465.246 Q207.871 461.682 207.871 454.575 Q207.871 447.446 206.042 443.904 Q204.237 440.339 200.602 440.339 M200.602 436.636 Q206.412 436.636 209.468 441.242 Q212.547 445.825 212.547 454.575 Q212.547 463.302 209.468 467.908 Q206.412 472.492 200.602 472.492 Q194.792 472.492 191.713 467.908 Q188.658 463.302 188.658 454.575 Q188.658 445.825 191.713 441.242 Q194.792 436.636 200.602 436.636 Z" fill="#000000" fill-rule="nonzero" fill-opacity="1" /><path clip-path="url(#clip700)" d="M220.811 437.261 L239.167 437.261 L239.167 441.196 L225.093 441.196 L225.093 449.668 Q226.111 449.321 227.13 449.159 Q228.148 448.973 229.167 448.973 Q234.954 448.973 238.334 452.145 Q241.713 455.316 241.713 460.733 Q241.713 466.311 238.241 469.413 Q234.769 472.492 228.449 472.492 Q226.273 472.492 224.005 472.121 Q221.76 471.751 219.352 471.01 L219.352 466.311 Q221.436 467.446 223.658 468.001 Q225.88 468.557 228.357 468.557 Q232.361 468.557 234.699 466.45 Q237.037 464.344 237.037 460.733 Q237.037 457.122 234.699 455.015 Q232.361 452.909 228.357 452.909 Q226.482 452.909 224.607 453.325 Q222.755 453.742 220.811 454.622 L220.811 437.261 Z" fill="#000000" fill-rule="nonzero" fill-opacity="1" /><path clip-path="url(#clip700)" d="M260.926 440.339 Q257.315 440.339 255.486 443.904 Q253.681 447.446 253.681 454.575 Q253.681 461.682 255.486 465.246 Q257.315 468.788 260.926 468.788 Q264.56 468.788 266.366 465.246 Q268.195 461.682 268.195 454.575 Q268.195 447.446 266.366 443.904 Q264.56 440.339 260.926 440.339 M260.926 436.636 Q266.736 436.636 269.792 441.242 Q272.87 445.825 272.87 454.575 Q272.87 463.302 269.792 467.908 Q266.736 472.492 260.926 472.492 Q255.116 472.492 252.037 467.908 Q248.982 463.302 248.982 454.575 Q248.982 445.825 252.037 441.242 Q255.116 436.636 260.926 436.636 Z" fill="#000000" fill-rule="nonzero" fill-opacity="1" /><path clip-path="url(#clip700)" d="M117.015 216.809 L124.654 216.809 L124.654 190.444 L116.343 192.111 L116.343 187.851 L124.607 186.185 L129.283 186.185 L129.283 216.809 L136.922 216.809 L136.922 220.745 L117.015 220.745 L117.015 216.809 Z" fill="#000000" fill-rule="nonzero" fill-opacity="1" /><path clip-path="url(#clip700)" d="M146.366 214.865 L151.251 214.865 L151.251 220.745 L146.366 220.745 L146.366 214.865 Z" fill="#000000" fill-rule="nonzero" fill-opacity="1" /><path clip-path="url(#clip700)" d="M171.436 189.263 Q167.825 189.263 165.996 192.828 Q164.19 196.37 164.19 203.499 Q164.19 210.606 165.996 214.171 Q167.825 217.712 171.436 217.712 Q175.07 217.712 176.876 214.171 Q178.704 210.606 178.704 203.499 Q178.704 196.37 176.876 192.828 Q175.07 189.263 171.436 189.263 M171.436 185.56 Q177.246 185.56 180.301 190.166 Q183.38 194.749 183.38 203.499 Q183.38 212.226 180.301 216.833 Q177.246 221.416 171.436 221.416 Q165.626 221.416 162.547 216.833 Q159.491 212.226 159.491 203.499 Q159.491 194.749 162.547 190.166 Q165.626 185.56 171.436 185.56 Z" fill="#000000" fill-rule="nonzero" fill-opacity="1" /><path clip-path="url(#clip700)" d="M201.598 189.263 Q197.987 189.263 196.158 192.828 Q194.352 196.37 194.352 203.499 Q194.352 210.606 196.158 214.171 Q197.987 217.712 201.598 217.712 Q205.232 217.712 207.037 214.171 Q208.866 210.606 208.866 203.499 Q208.866 196.37 207.037 192.828 Q205.232 189.263 201.598 189.263 M201.598 185.56 Q207.408 185.56 210.463 190.166 Q213.542 194.749 213.542 203.499 Q213.542 212.226 210.463 216.833 Q207.408 221.416 201.598 221.416 Q195.787 221.416 192.709 216.833 Q189.653 212.226 189.653 203.499 Q189.653 194.749 192.709 190.166 Q195.787 185.56 201.598 185.56 Z" fill="#000000" fill-rule="nonzero" fill-opacity="1" /><path clip-path="url(#clip700)" d="M220.579 186.185 L242.801 186.185 L242.801 188.175 L230.255 220.745 L225.371 220.745 L237.176 190.12 L220.579 190.12 L220.579 186.185 Z" fill="#000000" fill-rule="nonzero" fill-opacity="1" /><path clip-path="url(#clip700)" d="M251.968 186.185 L270.324 186.185 L270.324 190.12 L256.25 190.12 L256.25 198.592 Q257.269 198.245 258.287 198.083 Q259.306 197.898 260.324 197.898 Q266.111 197.898 269.491 201.069 Q272.87 204.24 272.87 209.657 Q272.87 215.235 269.398 218.337 Q265.926 221.416 259.607 221.416 Q257.431 221.416 255.162 221.046 Q252.917 220.675 250.509 219.934 L250.509 215.235 Q252.593 216.37 254.815 216.925 Q257.037 217.481 259.514 217.481 Q263.519 217.481 265.857 215.374 Q268.195 213.268 268.195 209.657 Q268.195 206.046 265.857 203.939 Q263.519 201.833 259.514 201.833 Q257.639 201.833 255.764 202.249 Q253.912 202.666 251.968 203.546 L251.968 186.185 Z" fill="#000000" fill-rule="nonzero" fill-opacity="1" /><path clip-path="url(#clip700)" d="M57.2247 896.821 L44.4614 896.821 L44.4614 907.325 L39.1779 907.325 L39.1779 890.456 L59.58 890.456 Q62.2218 894.18 63.5904 898.667 Q64.9272 903.155 64.9272 908.248 Q64.9272 919.388 58.4342 925.69 Q51.9093 931.96 40.2919 931.96 Q28.6427 931.96 22.1496 925.69 Q15.6248 919.388 15.6248 908.248 Q15.6248 903.601 16.7706 899.431 Q17.9164 895.23 20.1444 891.697 L26.9876 891.697 Q23.9639 895.262 22.4361 899.272 Q20.9083 903.283 20.9083 907.707 Q20.9083 916.428 25.7781 920.82 Q30.6479 925.181 40.2919 925.181 Q49.9041 925.181 54.7739 920.82 Q59.6436 916.428 59.6436 907.707 Q59.6436 904.301 59.0707 901.627 Q58.466 898.954 57.2247 896.821 Z" fill="#000000" fill-rule="nonzero" fill-opacity="1" /><path clip-path="url(#clip700)" d="M21.7677 872.282 L58.7206 872.282 L58.7206 864.515 Q58.7206 854.68 54.2646 850.129 Q49.8086 845.546 40.1964 845.546 Q30.6479 845.546 26.2237 850.129 Q21.7677 854.68 21.7677 864.515 L21.7677 872.282 M16.4842 878.711 L16.4842 865.502 Q16.4842 851.688 22.2451 845.227 Q27.9743 838.766 40.1964 838.766 Q52.4822 838.766 58.2432 845.259 Q64.0042 851.752 64.0042 865.502 L64.0042 878.711 L16.4842 878.711 Z" fill="#000000" fill-rule="nonzero" fill-opacity="1" /><path clip-path="url(#clip700)" d="M21.7677 822.088 L39.6235 822.088 L39.6235 814.004 Q39.6235 809.516 37.3 807.065 Q34.9765 804.614 30.6797 804.614 Q26.4147 804.614 24.0912 807.065 Q21.7677 809.516 21.7677 814.004 L21.7677 822.088 M16.4842 828.517 L16.4842 814.004 Q16.4842 806.015 20.1126 801.94 Q23.7092 797.835 30.6797 797.835 Q37.7138 797.835 41.3104 801.94 Q44.907 806.015 44.907 814.004 L44.907 822.088 L64.0042 822.088 L64.0042 828.517 L16.4842 828.517 Z" fill="#000000" fill-rule="nonzero" fill-opacity="1" /><path clip-path="url(#clip700)" d="M29.7248 743.09 L35.1993 743.09 Q33.8307 745.572 33.1623 748.087 Q32.4621 750.569 32.4621 753.116 Q32.4621 758.813 36.0905 761.964 Q39.6872 765.115 46.212 765.115 Q52.7369 765.115 56.3653 761.964 Q59.9619 758.813 59.9619 753.116 Q59.9619 750.569 59.2935 748.087 Q58.5933 745.572 57.2247 743.09 L62.6355 743.09 Q63.7814 745.54 64.3543 748.182 Q64.9272 750.792 64.9272 753.752 Q64.9272 761.805 59.8664 766.547 Q54.8057 771.29 46.212 771.29 Q37.491 771.29 32.4939 766.515 Q27.4968 761.709 27.4968 753.37 Q27.4968 750.665 28.0697 748.087 Q28.6108 745.508 29.7248 743.09 Z" fill="#000000" fill-rule="nonzero" fill-opacity="1" /><path clip-path="url(#clip700)" d="M42.4881 703.272 L64.0042 703.272 L64.0042 709.128 L42.679 709.128 Q37.6183 709.128 35.1038 711.102 Q32.5894 713.075 32.5894 717.022 Q32.5894 721.764 35.6131 724.502 Q38.6368 727.239 43.8567 727.239 L64.0042 727.239 L64.0042 733.127 L14.479 733.127 L14.479 727.239 L33.8944 727.239 Q30.6797 725.138 29.0883 722.305 Q27.4968 719.441 27.4968 715.717 Q27.4968 709.574 31.3163 706.423 Q35.1038 703.272 42.4881 703.272 Z" fill="#000000" fill-rule="nonzero" fill-opacity="1" /><path clip-path="url(#clip700)" d="M46.0847 675.39 Q46.0847 682.488 47.7079 685.225 Q49.3312 687.963 53.2461 687.963 Q56.3653 687.963 58.2114 685.925 Q60.0256 683.857 60.0256 680.324 Q60.0256 675.454 56.5881 672.526 Q53.1188 669.566 47.3897 669.566 L46.0847 669.566 L46.0847 675.39 M43.6657 663.709 L64.0042 663.709 L64.0042 669.566 L58.5933 669.566 Q61.8398 671.571 63.3994 674.563 Q64.9272 677.555 64.9272 681.883 Q64.9272 687.358 61.8716 690.604 Q58.7843 693.819 53.6281 693.819 Q47.6125 693.819 44.5569 689.809 Q41.5014 685.766 41.5014 677.777 L41.5014 669.566 L40.9285 669.566 Q36.8862 669.566 34.6901 672.239 Q32.4621 674.881 32.4621 679.687 Q32.4621 682.743 33.1941 685.639 Q33.9262 688.535 35.3903 691.209 L29.9795 691.209 Q28.7381 687.994 28.1334 684.971 Q27.4968 681.947 27.4968 679.082 Q27.4968 671.348 31.5072 667.529 Q35.5176 663.709 43.6657 663.709 Z" fill="#000000" fill-rule="nonzero" fill-opacity="1" /><path clip-path="url(#clip700)" d="M42.4881 622.014 L64.0042 622.014 L64.0042 627.87 L42.679 627.87 Q37.6183 627.87 35.1038 629.844 Q32.5894 631.817 32.5894 635.764 Q32.5894 640.506 35.6131 643.243 Q38.6368 645.981 43.8567 645.981 L64.0042 645.981 L64.0042 651.869 L28.3562 651.869 L28.3562 645.981 L33.8944 645.981 Q30.6797 643.88 29.0883 641.047 Q27.4968 638.183 27.4968 634.459 Q27.4968 628.316 31.3163 625.165 Q35.1038 622.014 42.4881 622.014 Z" fill="#000000" fill-rule="nonzero" fill-opacity="1" /><path clip-path="url(#clip700)" d="M45.7664 586.875 Q39.4007 586.875 35.8996 589.517 Q32.3984 592.127 32.3984 596.869 Q32.3984 601.58 35.8996 604.222 Q39.4007 606.832 45.7664 606.832 Q52.1003 606.832 55.6014 604.222 Q59.1026 601.58 59.1026 596.869 Q59.1026 592.127 55.6014 589.517 Q52.1003 586.875 45.7664 586.875 M59.58 581.019 Q68.683 581.019 73.1071 585.061 Q77.5631 589.103 77.5631 597.442 Q77.5631 600.53 77.0857 603.267 Q76.6401 606.004 75.6852 608.582 L69.9879 608.582 Q71.3884 606.004 72.0568 603.49 Q72.7252 600.975 72.7252 598.365 Q72.7252 592.604 69.7015 589.74 Q66.7096 586.875 60.6303 586.875 L57.7339 586.875 Q60.885 588.689 62.4446 591.522 Q64.0042 594.355 64.0042 598.302 Q64.0042 604.858 59.0071 608.869 Q54.01 612.879 45.7664 612.879 Q37.491 612.879 32.4939 608.869 Q27.4968 604.858 27.4968 598.302 Q27.4968 594.355 29.0564 591.522 Q30.616 588.689 33.7671 586.875 L28.3562 586.875 L28.3562 581.019 L59.58 581.019 Z" fill="#000000" fill-rule="nonzero" fill-opacity="1" /><path clip-path="url(#clip700)" d="M44.7161 538.464 L47.5806 538.464 L47.5806 565.391 Q53.6281 565.009 56.8109 561.762 Q59.9619 558.484 59.9619 552.659 Q59.9619 549.286 59.1344 546.135 Q58.3069 542.952 56.6518 539.833 L62.1899 539.833 Q63.5267 542.984 64.227 546.294 Q64.9272 549.604 64.9272 553.01 Q64.9272 561.54 59.9619 566.537 Q54.9967 571.502 46.5303 571.502 Q37.7774 571.502 32.6531 566.791 Q27.4968 562.049 27.4968 554.028 Q27.4968 546.835 32.1438 542.665 Q36.7589 538.464 44.7161 538.464 M42.9973 544.32 Q38.1912 544.384 35.3266 547.026 Q32.4621 549.636 32.4621 553.964 Q32.4621 558.866 35.2312 561.826 Q38.0002 564.754 43.0292 565.2 L42.9973 544.32 Z" fill="#000000" fill-rule="nonzero" fill-opacity="1" /><path clip-path="url(#clip702)" d="M366.716 956.692 L487.228 1265.03 L607.74 750.115 L728.253 440.032 L848.765 558.409 L969.277 916.606 L1089.79 1006.96 L1210.3 1254.37 L1330.81 1217.48 L1451.33 1315.55 L1571.84 1290.03 L1692.35 1384.24 L1812.86 1323.33 L1933.37 1144.28 L2053.89 1303.42 L2174.4 1282.78 L2294.91 1209.58 L2294.91 356.311 L2174.4 466.756 L2053.89 508.239 L1933.37 366.971 L1812.86 573.157 L1692.35 685.159 L1571.84 649.02 L1451.33 719.439 L1330.81 685.831 L1210.3 739.993 L1089.79 512.362 L969.277 473.209 L848.765 170.805 L728.253 86.1857 L607.74 427.65 L487.228 1034.66 L366.716 956.692  Z" fill="#009af9" fill-rule="evenodd" fill-opacity="0.2"/>
<polyline clip-path="url(#clip702)" style="stroke:#009af9; stroke-linecap:round; stroke-linejoin:round; stroke-width:4; stroke-opacity:1; fill:none" points="366.716,956.692 487.228,1149.84 607.74,588.882 728.253,263.109 848.765,364.607 969.277,694.907 1089.79,759.66 1210.3,997.18 1330.81,951.655 1451.33,1017.49 1571.84,969.527 1692.35,1034.7 1812.86,948.242 1933.37,755.625 2053.89,905.831 2174.4,874.77 2294.91,782.943 "/>
</svg>
