<?xml version="1.0" encoding="utf-8"?>
<svg xmlns="http://www.w3.org/2000/svg" xmlns:xlink="http://www.w3.org/1999/xlink" width="600" height="400" viewBox="0 0 2400 1600">
<defs>
  <clipPath id="clip660">
    <rect x="0" y="0" width="2400" height="1600"/>
  </clipPath>
</defs>
<path clip-path="url(#clip660)" d="M0 1600 L2400 1600 L2400 0 L0 0  Z" fill="#ffffff" fill-rule="evenodd" fill-opacity="1"/>
<defs>
  <clipPath id="clip661">
    <rect x="480" y="0" width="1681" height="1600"/>
  </clipPath>
</defs>
<path clip-path="url(#clip660)" d="M277.621 1423.18 L2352.76 1423.18 L2352.76 47.2441 L277.621 47.2441  Z" fill="#ffffff" fill-rule="evenodd" fill-opacity="1"/>
<defs>
  <clipPath id="clip662">
    <rect x="277" y="47" width="2076" height="1377"/>
  </clipPath>
</defs>
<polyline clip-path="url(#clip662)" style="stroke:#000000; stroke-linecap:round; stroke-linejoin:round; stroke-width:2; stroke-opacity:0.1; fill:none" points="581.06,1423.18 581.06,47.2441 "/>
<polyline clip-path="url(#clip662)" style="stroke:#000000; stroke-linecap:round; stroke-linejoin:round; stroke-width:2; stroke-opacity:0.1; fill:none" points="948.124,1423.18 948.124,47.2441 "/>
<polyline clip-path="url(#clip662)" style="stroke:#000000; stroke-linecap:round; stroke-linejoin:round; stroke-width:2; stroke-opacity:0.1; fill:none" points="1315.19,1423.18 1315.19,47.2441 "/>
<polyline clip-path="url(#clip662)" style="stroke:#000000; stroke-linecap:round; stroke-linejoin:round; stroke-width:2; stroke-opacity:0.1; fill:none" points="1682.25,1423.18 1682.25,47.2441 "/>
<polyline clip-path="url(#clip662)" style="stroke:#000000; stroke-linecap:round; stroke-linejoin:round; stroke-width:2; stroke-opacity:0.1; fill:none" points="2049.32,1423.18 2049.32,47.2441 "/>
<polyline clip-path="url(#clip662)" style="stroke:#000000; stroke-linecap:round; stroke-linejoin:round; stroke-width:2; stroke-opacity:0.1; fill:none" points="277.621,1384.24 2352.76,1384.24 "/>
<polyline clip-path="url(#clip662)" style="stroke:#000000; stroke-linecap:round; stroke-linejoin:round; stroke-width:2; stroke-opacity:0.1; fill:none" points="277.621,1081.52 2352.76,1081.52 "/>
<polyline clip-path="url(#clip662)" style="stroke:#000000; stroke-linecap:round; stroke-linejoin:round; stroke-width:2; stroke-opacity:0.1; fill:none" points="277.621,778.796 2352.76,778.796 "/>
<polyline clip-path="url(#clip662)" style="stroke:#000000; stroke-linecap:round; stroke-linejoin:round; stroke-width:2; stroke-opacity:0.1; fill:none" points="277.621,476.074 2352.76,476.074 "/>
<polyline clip-path="url(#clip662)" style="stroke:#000000; stroke-linecap:round; stroke-linejoin:round; stroke-width:2; stroke-opacity:0.1; fill:none" points="277.621,173.353 2352.76,173.353 "/>
<polyline clip-path="url(#clip660)" style="stroke:#000000; stroke-linecap:round; stroke-linejoin:round; stroke-width:4; stroke-opacity:1; fill:none" points="277.621,1423.18 2352.76,1423.18 "/>
<polyline clip-path="url(#clip660)" style="stroke:#000000; stroke-linecap:round; stroke-linejoin:round; stroke-width:4; stroke-opacity:1; fill:none" points="581.06,1423.18 581.06,1404.28 "/>
<polyline clip-path="url(#clip660)" style="stroke:#000000; stroke-linecap:round; stroke-linejoin:round; stroke-width:4; stroke-opacity:1; fill:none" points="948.124,1423.18 948.124,1404.28 "/>
<polyline clip-path="url(#clip660)" style="stroke:#000000; stroke-linecap:round; stroke-linejoin:round; stroke-width:4; stroke-opacity:1; fill:none" points="1315.19,1423.18 1315.19,1404.28 "/>
<polyline clip-path="url(#clip660)" style="stroke:#000000; stroke-linecap:round; stroke-linejoin:round; stroke-width:4; stroke-opacity:1; fill:none" points="1682.25,1423.18 1682.25,1404.28 "/>
<polyline clip-path="url(#clip660)" style="stroke:#000000; stroke-linecap:round; stroke-linejoin:round; stroke-width:4; stroke-opacity:1; fill:none" points="2049.32,1423.18 2049.32,1404.28 "/>
<path clip-path="url(#clip660)" d="M585.308 1466.95 Q588.664 1467.66 590.539 1469.93 Q592.437 1472.2 592.437 1475.53 Q592.437 1480.65 588.919 1483.45 Q585.4 1486.25 578.919 1486.25 Q576.743 1486.25 574.428 1485.81 Q572.137 1485.39 569.683 1484.54 L569.683 1480.02 Q571.627 1481.16 573.942 1481.74 Q576.257 1482.32 578.78 1482.32 Q583.178 1482.32 585.47 1480.58 Q587.785 1478.84 587.785 1475.53 Q587.785 1472.48 585.632 1470.77 Q583.502 1469.03 579.683 1469.03 L575.655 1469.03 L575.655 1465.19 L579.868 1465.19 Q583.317 1465.19 585.146 1463.82 Q586.975 1462.43 586.975 1459.84 Q586.975 1457.18 585.076 1455.77 Q583.201 1454.33 579.683 1454.33 Q577.762 1454.33 575.563 1454.75 Q573.363 1455.16 570.725 1456.04 L570.725 1451.88 Q573.387 1451.14 575.701 1450.77 Q578.039 1450.39 580.1 1450.39 Q585.424 1450.39 588.525 1452.83 Q591.627 1455.23 591.627 1459.35 Q591.627 1462.22 589.984 1464.21 Q588.34 1466.18 585.308 1466.95 Z" fill="#000000" fill-rule="nonzero" fill-opacity="1" /><path clip-path="url(#clip660)" d="M948.529 1466.44 Q945.381 1466.44 943.529 1468.59 Q941.701 1470.74 941.701 1474.49 Q941.701 1478.22 943.529 1480.39 Q945.381 1482.55 948.529 1482.55 Q951.677 1482.55 953.506 1480.39 Q955.358 1478.22 955.358 1474.49 Q955.358 1470.74 953.506 1468.59 Q951.677 1466.44 948.529 1466.44 M957.812 1451.78 L957.812 1456.04 Q956.052 1455.21 954.247 1454.77 Q952.464 1454.33 950.705 1454.33 Q946.076 1454.33 943.622 1457.45 Q941.191 1460.58 940.844 1466.9 Q942.21 1464.89 944.27 1463.82 Q946.33 1462.73 948.807 1462.73 Q954.015 1462.73 957.025 1465.9 Q960.057 1469.05 960.057 1474.49 Q960.057 1479.82 956.909 1483.03 Q953.761 1486.25 948.529 1486.25 Q942.534 1486.25 939.363 1481.67 Q936.191 1477.06 936.191 1468.33 Q936.191 1460.14 940.08 1455.28 Q943.969 1450.39 950.52 1450.39 Q952.279 1450.39 954.062 1450.74 Q955.867 1451.09 957.812 1451.78 Z" fill="#000000" fill-rule="nonzero" fill-opacity="1" /><path clip-path="url(#clip660)" d="M1305.49 1484.86 L1305.49 1480.6 Q1307.25 1481.44 1309.05 1481.88 Q1310.86 1482.32 1312.6 1482.32 Q1317.23 1482.32 1319.66 1479.21 Q1322.11 1476.09 1322.46 1469.75 Q1321.11 1471.74 1319.05 1472.8 Q1316.99 1473.87 1314.49 1473.87 Q1309.31 1473.87 1306.28 1470.74 Q1303.27 1467.59 1303.27 1462.15 Q1303.27 1456.83 1306.42 1453.61 Q1309.56 1450.39 1314.79 1450.39 Q1320.79 1450.39 1323.94 1455 Q1327.11 1459.58 1327.11 1468.33 Q1327.11 1476.51 1323.22 1481.39 Q1319.35 1486.25 1312.8 1486.25 Q1311.04 1486.25 1309.24 1485.9 Q1307.43 1485.56 1305.49 1484.86 M1314.79 1470.21 Q1317.94 1470.21 1319.77 1468.06 Q1321.62 1465.9 1321.62 1462.15 Q1321.62 1458.43 1319.77 1456.27 Q1317.94 1454.1 1314.79 1454.1 Q1311.65 1454.1 1309.79 1456.27 Q1307.97 1458.43 1307.97 1462.15 Q1307.97 1465.9 1309.79 1468.06 Q1311.65 1470.21 1314.79 1470.21 Z" fill="#000000" fill-rule="nonzero" fill-opacity="1" /><path clip-path="url(#clip660)" d="M1657.74 1481.64 L1665.38 1481.64 L1665.38 1455.28 L1657.07 1456.95 L1657.07 1452.69 L1665.33 1451.02 L1670.01 1451.02 L1670.01 1481.64 L1677.65 1481.64 L1677.65 1485.58 L1657.74 1485.58 L1657.74 1481.64 Z" fill="#000000" fill-rule="nonzero" fill-opacity="1" /><path clip-path="url(#clip660)" d="M1691.12 1481.64 L1707.44 1481.64 L1707.44 1485.58 L1685.49 1485.58 L1685.49 1481.64 Q1688.16 1478.89 1692.74 1474.26 Q1697.34 1469.61 1698.53 1468.27 Q1700.77 1465.74 1701.65 1464.01 Q1702.55 1462.25 1702.55 1460.56 Q1702.55 1457.8 1700.61 1456.07 Q1698.69 1454.33 1695.59 1454.33 Q1693.39 1454.33 1690.93 1455.09 Q1688.5 1455.86 1685.72 1457.41 L1685.72 1452.69 Q1688.55 1451.55 1691 1450.97 Q1693.46 1450.39 1695.49 1450.39 Q1700.86 1450.39 1704.06 1453.08 Q1707.25 1455.77 1707.25 1460.26 Q1707.25 1462.39 1706.44 1464.31 Q1705.65 1466.2 1703.55 1468.8 Q1702.97 1469.47 1699.87 1472.69 Q1696.77 1475.88 1691.12 1481.64 Z" fill="#000000" fill-rule="nonzero" fill-opacity="1" /><path clip-path="url(#clip660)" d="M2024.5 1481.64 L2032.14 1481.64 L2032.14 1455.28 L2023.83 1456.95 L2023.83 1452.69 L2032.09 1451.02 L2036.77 1451.02 L2036.77 1481.64 L2044.41 1481.64 L2044.41 1485.58 L2024.5 1485.58 L2024.5 1481.64 Z" fill="#000000" fill-rule="nonzero" fill-opacity="1" /><path clip-path="url(#clip660)" d="M2053.9 1451.02 L2072.26 1451.02 L2072.26 1454.96 L2058.18 1454.96 L2058.18 1463.43 Q2059.2 1463.08 2060.22 1462.92 Q2061.24 1462.73 2062.26 1462.73 Q2068.04 1462.73 2071.42 1465.9 Q2074.8 1469.08 2074.8 1474.49 Q2074.8 1480.07 2071.33 1483.17 Q2067.86 1486.25 2061.54 1486.25 Q2059.36 1486.25 2057.09 1485.88 Q2054.85 1485.51 2052.44 1484.77 L2052.44 1480.07 Q2054.52 1481.2 2056.75 1481.76 Q2058.97 1482.32 2061.45 1482.32 Q2065.45 1482.32 2067.79 1480.21 Q2070.13 1478.1 2070.13 1474.49 Q2070.13 1470.88 2067.79 1468.77 Q2065.45 1466.67 2061.45 1466.67 Q2059.57 1466.67 2057.7 1467.08 Q2055.84 1467.5 2053.9 1468.38 L2053.9 1451.02 Z" fill="#000000" fill-rule="nonzero" fill-opacity="1" /><path clip-path="url(#clip660)" d="M1186.7 1550.25 Q1186.7 1556.71 1189.34 1560.4 Q1192.01 1564.07 1196.66 1564.07 Q1201.31 1564.07 1203.98 1560.4 Q1206.65 1556.71 1206.65 1550.25 Q1206.65 1543.79 1203.98 1540.13 Q1201.31 1536.44 1196.66 1536.44 Q1192.01 1536.44 1189.34 1540.13 Q1186.7 1543.79 1186.7 1550.25 M1206.65 1562.7 Q1204.81 1565.88 1201.97 1567.44 Q1199.17 1568.97 1195.23 1568.97 Q1188.77 1568.97 1184.69 1563.81 Q1180.65 1558.65 1180.65 1550.25 Q1180.65 1541.85 1184.69 1536.69 Q1188.77 1531.54 1195.23 1531.54 Q1199.17 1531.54 1201.97 1533.1 Q1204.81 1534.62 1206.65 1537.81 L1206.65 1532.4 L1212.51 1532.4 L1212.51 1581.6 L1206.65 1581.6 L1206.65 1562.7 Z" fill="#000000" fill-rule="nonzero" fill-opacity="1" /><path clip-path="url(#clip660)" d="M1223.97 1553.98 L1223.97 1532.4 L1229.82 1532.4 L1229.82 1553.75 Q1229.82 1558.81 1231.8 1561.36 Q1233.77 1563.87 1237.72 1563.87 Q1242.46 1563.87 1245.2 1560.85 Q1247.97 1557.83 1247.97 1552.61 L1247.97 1532.4 L1253.82 1532.4 L1253.82 1568.04 L1247.97 1568.04 L1247.97 1562.57 Q1245.83 1565.82 1243 1567.41 Q1240.2 1568.97 1236.48 1568.97 Q1230.33 1568.97 1227.15 1565.15 Q1223.97 1561.33 1223.97 1553.98 M1238.7 1531.54 L1238.7 1531.54 Z" fill="#000000" fill-rule="nonzero" fill-opacity="1" /><path clip-path="url(#clip660)" d="M1282.09 1550.12 Q1274.99 1550.12 1272.25 1551.75 Q1269.51 1553.37 1269.51 1557.29 Q1269.51 1560.4 1271.55 1562.25 Q1273.62 1564.07 1277.15 1564.07 Q1282.02 1564.07 1284.95 1560.63 Q1287.91 1557.16 1287.91 1551.43 L1287.91 1550.12 L1282.09 1550.12 M1293.77 1547.71 L1293.77 1568.04 L1287.91 1568.04 L1287.91 1562.63 Q1285.91 1565.88 1282.91 1567.44 Q1279.92 1568.97 1275.59 1568.97 Q1270.12 1568.97 1266.87 1565.91 Q1263.66 1562.82 1263.66 1557.67 Q1263.66 1551.65 1267.67 1548.6 Q1271.71 1545.54 1279.7 1545.54 L1287.91 1545.54 L1287.91 1544.97 Q1287.91 1540.93 1285.24 1538.73 Q1282.6 1536.5 1277.79 1536.5 Q1274.73 1536.5 1271.84 1537.23 Q1268.94 1537.97 1266.27 1539.43 L1266.27 1534.02 Q1269.48 1532.78 1272.51 1532.17 Q1275.53 1531.54 1278.39 1531.54 Q1286.13 1531.54 1289.95 1535.55 Q1293.77 1539.56 1293.77 1547.71 Z" fill="#000000" fill-rule="nonzero" fill-opacity="1" /><path clip-path="url(#clip660)" d="M1326.49 1537.87 Q1325.5 1537.3 1324.32 1537.04 Q1323.18 1536.76 1321.78 1536.76 Q1316.81 1536.76 1314.14 1540 Q1311.5 1543.22 1311.5 1549.27 L1311.5 1568.04 L1305.61 1568.04 L1305.61 1532.4 L1311.5 1532.4 L1311.5 1537.93 Q1313.34 1534.69 1316.3 1533.13 Q1319.26 1531.54 1323.5 1531.54 Q1324.1 1531.54 1324.83 1531.63 Q1325.56 1531.7 1326.46 1531.85 L1326.49 1537.87 Z" fill="#000000" fill-rule="nonzero" fill-opacity="1" /><path clip-path="url(#clip660)" d="M1338.42 1522.27 L1338.42 1532.4 L1350.49 1532.4 L1350.49 1536.95 L1338.42 1536.95 L1338.42 1556.3 Q1338.42 1560.66 1339.6 1561.9 Q1340.81 1563.14 1344.47 1563.14 L1350.49 1563.14 L1350.49 1568.04 L1344.47 1568.04 Q1337.69 1568.04 1335.11 1565.53 Q1332.53 1562.98 1332.53 1556.3 L1332.53 1536.95 L1328.24 1536.95 L1328.24 1532.4 L1332.53 1532.4 L1332.53 1522.27 L1338.42 1522.27 Z" fill="#000000" fill-rule="nonzero" fill-opacity="1" /><path clip-path="url(#clip660)" d="M1388.68 1548.76 L1388.68 1551.62 L1361.75 1551.62 Q1362.14 1557.67 1365.38 1560.85 Q1368.66 1564 1374.48 1564 Q1377.86 1564 1381.01 1563.17 Q1384.19 1562.35 1387.31 1560.69 L1387.31 1566.23 Q1384.16 1567.57 1380.85 1568.27 Q1377.54 1568.97 1374.13 1568.97 Q1365.6 1568.97 1360.61 1564 Q1355.64 1559.04 1355.64 1550.57 Q1355.64 1541.82 1360.35 1536.69 Q1365.1 1531.54 1373.12 1531.54 Q1380.31 1531.54 1384.48 1536.18 Q1388.68 1540.8 1388.68 1548.76 M1382.82 1547.04 Q1382.76 1542.23 1380.12 1539.37 Q1377.51 1536.5 1373.18 1536.5 Q1368.28 1536.5 1365.32 1539.27 Q1362.39 1542.04 1361.94 1547.07 L1382.82 1547.04 Z" fill="#000000" fill-rule="nonzero" fill-opacity="1" /><path clip-path="url(#clip660)" d="M1418.95 1537.87 Q1417.96 1537.3 1416.78 1537.04 Q1415.64 1536.76 1414.24 1536.76 Q1409.27 1536.76 1406.6 1540 Q1403.96 1543.22 1403.96 1549.27 L1403.96 1568.04 L1398.07 1568.04 L1398.07 1532.4 L1403.96 1532.4 L1403.96 1537.93 Q1405.8 1534.69 1408.76 1533.13 Q1411.72 1531.54 1415.96 1531.54 Q1416.56 1531.54 1417.29 1531.63 Q1418.03 1531.7 1418.92 1531.85 L1418.95 1537.87 Z" fill="#000000" fill-rule="nonzero" fill-opacity="1" /><path clip-path="url(#clip660)" d="M1447.82 1533.45 L1447.82 1538.98 Q1445.34 1537.71 1442.66 1537.07 Q1439.99 1536.44 1437.12 1536.44 Q1432.76 1536.44 1430.57 1537.77 Q1428.4 1539.11 1428.4 1541.79 Q1428.4 1543.82 1429.96 1545 Q1431.52 1546.15 1436.23 1547.2 L1438.24 1547.64 Q1444.48 1548.98 1447.09 1551.43 Q1449.73 1553.85 1449.73 1558.21 Q1449.73 1563.17 1445.78 1566.07 Q1441.87 1568.97 1434.99 1568.97 Q1432.13 1568.97 1429.01 1568.39 Q1425.92 1567.85 1422.48 1566.74 L1422.48 1560.69 Q1425.73 1562.38 1428.88 1563.24 Q1432.03 1564.07 1435.12 1564.07 Q1439.26 1564.07 1441.48 1562.66 Q1443.71 1561.23 1443.71 1558.65 Q1443.71 1556.27 1442.09 1554.99 Q1440.5 1553.72 1435.05 1552.54 L1433.02 1552.07 Q1427.57 1550.92 1425.16 1548.56 Q1422.74 1546.18 1422.74 1542.04 Q1422.74 1537.01 1426.3 1534.27 Q1429.87 1531.54 1436.42 1531.54 Q1439.67 1531.54 1442.53 1532.01 Q1445.4 1532.49 1447.82 1533.45 Z" fill="#000000" fill-rule="nonzero" fill-opacity="1" /><polyline clip-path="url(#clip660)" style="stroke:#000000; stroke-linecap:round; stroke-linejoin:round; stroke-width:4; stroke-opacity:1; fill:none" points="277.621,1423.18 277.621,47.2441 "/>
<polyline clip-path="url(#clip660)" style="stroke:#000000; stroke-linecap:round; stroke-linejoin:round; stroke-width:4; stroke-opacity:1; fill:none" points="277.621,1384.24 296.518,1384.24 "/>
<polyline clip-path="url(#clip660)" style="stroke:#000000; stroke-linecap:round; stroke-linejoin:round; stroke-width:4; stroke-opacity:1; fill:none" points="277.621,1081.52 296.518,1081.52 "/>
<polyline clip-path="url(#clip660)" style="stroke:#000000; stroke-linecap:round; stroke-linejoin:round; stroke-width:4; stroke-opacity:1; fill:none" points="277.621,778.796 296.518,778.796 "/>
<polyline clip-path="url(#clip660)" style="stroke:#000000; stroke-linecap:round; stroke-linejoin:round; stroke-width:4; stroke-opacity:1; fill:none" points="277.621,476.074 296.518,476.074 "/>
<polyline clip-path="url(#clip660)" style="stroke:#000000; stroke-linecap:round; stroke-linejoin:round; stroke-width:4; stroke-opacity:1; fill:none" points="277.621,173.353 296.518,173.353 "/>
<path clip-path="url(#clip660)" d="M114.931 1397.58 L122.57 1397.58 L122.57 1371.22 L114.26 1372.88 L114.26 1368.62 L122.524 1366.96 L127.2 1366.96 L127.2 1397.58 L134.839 1397.58 L134.839 1401.52 L114.931 1401.52 L114.931 1397.58 Z" fill="#000000" fill-rule="nonzero" fill-opacity="1" /><path clip-path="url(#clip660)" d="M144.283 1395.64 L149.167 1395.64 L149.167 1401.52 L144.283 1401.52 L144.283 1395.64 Z" fill="#000000" fill-rule="nonzero" fill-opacity="1" /><path clip-path="url(#clip660)" d="M169.352 1370.04 Q165.741 1370.04 163.913 1373.6 Q162.107 1377.14 162.107 1384.27 Q162.107 1391.38 163.913 1394.94 Q165.741 1398.49 169.352 1398.49 Q172.987 1398.49 174.792 1394.94 Q176.621 1391.38 176.621 1384.27 Q176.621 1377.14 174.792 1373.6 Q172.987 1370.04 169.352 1370.04 M169.352 1366.33 Q175.163 1366.33 178.218 1370.94 Q181.297 1375.52 181.297 1384.27 Q181.297 1393 178.218 1397.61 Q175.163 1402.19 169.352 1402.19 Q163.542 1402.19 160.464 1397.61 Q157.408 1393 157.408 1384.27 Q157.408 1375.52 160.464 1370.94 Q163.542 1366.33 169.352 1366.33 Z" fill="#000000" fill-rule="nonzero" fill-opacity="1" /><path clip-path="url(#clip660)" d="M199.514 1370.04 Q195.903 1370.04 194.075 1373.6 Q192.269 1377.14 192.269 1384.27 Q192.269 1391.38 194.075 1394.94 Q195.903 1398.49 199.514 1398.49 Q203.149 1398.49 204.954 1394.94 Q206.783 1391.38 206.783 1384.27 Q206.783 1377.14 204.954 1373.6 Q203.149 1370.04 199.514 1370.04 M199.514 1366.33 Q205.324 1366.33 208.38 1370.94 Q211.459 1375.52 211.459 1384.27 Q211.459 1393 208.38 1397.61 Q205.324 1402.19 199.514 1402.19 Q193.704 1402.19 190.625 1397.61 Q187.57 1393 187.57 1384.27 Q187.57 1375.52 190.625 1370.94 Q193.704 1366.33 199.514 1366.33 Z" fill="#000000" fill-rule="nonzero" fill-opacity="1" /><path clip-path="url(#clip660)" d="M229.676 1370.04 Q226.065 1370.04 224.236 1373.6 Q222.431 1377.14 222.431 1384.27 Q222.431 1391.38 224.236 1394.94 Q226.065 1398.49 229.676 1398.49 Q233.31 1398.49 235.116 1394.94 Q236.945 1391.38 236.945 1384.27 Q236.945 1377.14 235.116 1373.6 Q233.31 1370.04 229.676 1370.04 M229.676 1366.33 Q235.486 1366.33 238.542 1370.94 Q241.621 1375.52 241.621 1384.27 Q241.621 1393 238.542 1397.61 Q235.486 1402.19 229.676 1402.19 Q223.866 1402.19 220.787 1397.61 Q217.732 1393 217.732 1384.27 Q217.732 1375.52 220.787 1370.94 Q223.866 1366.33 229.676 1366.33 Z" fill="#000000" fill-rule="nonzero" fill-opacity="1" /><path clip-path="url(#clip660)" d="M115.927 1094.86 L123.566 1094.86 L123.566 1068.5 L115.256 1070.16 L115.256 1065.9 L123.519 1064.24 L128.195 1064.24 L128.195 1094.86 L135.834 1094.86 L135.834 1098.8 L115.927 1098.8 L115.927 1094.86 Z" fill="#000000" fill-rule="nonzero" fill-opacity="1" /><path clip-path="url(#clip660)" d="M145.279 1092.92 L150.163 1092.92 L150.163 1098.8 L145.279 1098.8 L145.279 1092.92 Z" fill="#000000" fill-rule="nonzero" fill-opacity="1" /><path clip-path="url(#clip660)" d="M170.348 1067.32 Q166.737 1067.32 164.908 1070.88 Q163.102 1074.42 163.102 1081.55 Q163.102 1088.66 164.908 1092.22 Q166.737 1095.76 170.348 1095.76 Q173.982 1095.76 175.788 1092.22 Q177.616 1088.66 177.616 1081.55 Q177.616 1074.42 175.788 1070.88 Q173.982 1067.32 170.348 1067.32 M170.348 1063.61 Q176.158 1063.61 179.214 1068.22 Q182.292 1072.8 182.292 1081.55 Q182.292 1090.28 179.214 1094.88 Q176.158 1099.47 170.348 1099.47 Q164.538 1099.47 161.459 1094.88 Q158.403 1090.28 158.403 1081.55 Q158.403 1072.8 161.459 1068.22 Q164.538 1063.61 170.348 1063.61 Z" fill="#000000" fill-rule="nonzero" fill-opacity="1" /><path clip-path="url(#clip660)" d="M200.51 1067.32 Q196.899 1067.32 195.07 1070.88 Q193.264 1074.42 193.264 1081.55 Q193.264 1088.66 195.07 1092.22 Q196.899 1095.76 200.51 1095.76 Q204.144 1095.76 205.949 1092.22 Q207.778 1088.66 207.778 1081.55 Q207.778 1074.42 205.949 1070.88 Q204.144 1067.32 200.51 1067.32 M200.51 1063.61 Q206.32 1063.61 209.375 1068.22 Q212.454 1072.8 212.454 1081.55 Q212.454 1090.28 209.375 1094.88 Q206.32 1099.47 200.51 1099.47 Q194.7 1099.47 191.621 1094.88 Q188.565 1090.28 188.565 1081.55 Q188.565 1072.8 191.621 1068.22 Q194.7 1063.61 200.51 1063.61 Z" fill="#000000" fill-rule="nonzero" fill-opacity="1" /><path clip-path="url(#clip660)" d="M220.718 1064.24 L239.074 1064.24 L239.074 1068.17 L225 1068.17 L225 1076.64 Q226.019 1076.3 227.037 1076.14 Q228.056 1075.95 229.074 1075.95 Q234.861 1075.95 238.241 1079.12 Q241.621 1082.29 241.621 1087.71 Q241.621 1093.29 238.148 1096.39 Q234.676 1099.47 228.357 1099.47 Q226.181 1099.47 223.912 1099.1 Q221.667 1098.73 219.26 1097.99 L219.26 1093.29 Q221.343 1094.42 223.565 1094.98 Q225.787 1095.53 228.264 1095.53 Q232.269 1095.53 234.607 1093.43 Q236.945 1091.32 236.945 1087.71 Q236.945 1084.1 234.607 1081.99 Q232.269 1079.89 228.264 1079.89 Q226.389 1079.89 224.514 1080.3 Q222.662 1080.72 220.718 1081.6 L220.718 1064.24 Z" fill="#000000" fill-rule="nonzero" fill-opacity="1" /><path clip-path="url(#clip660)" d="M114.931 792.14 L122.57 792.14 L122.57 765.775 L114.26 767.442 L114.26 763.182 L122.524 761.516 L127.2 761.516 L127.2 792.14 L134.839 792.14 L134.839 796.076 L114.931 796.076 L114.931 792.14 Z" fill="#000000" fill-rule="nonzero" fill-opacity="1" /><path clip-path="url(#clip660)" d="M144.283 790.196 L149.167 790.196 L149.167 796.076 L144.283 796.076 L144.283 790.196 Z" fill="#000000" fill-rule="nonzero" fill-opacity="1" /><path clip-path="url(#clip660)" d="M169.352 764.594 Q165.741 764.594 163.913 768.159 Q162.107 771.701 162.107 778.83 Q162.107 785.937 163.913 789.502 Q165.741 793.043 169.352 793.043 Q172.987 793.043 174.792 789.502 Q176.621 785.937 176.621 778.83 Q176.621 771.701 174.792 768.159 Q172.987 764.594 169.352 764.594 M169.352 760.891 Q175.163 760.891 178.218 765.497 Q181.297 770.08 181.297 778.83 Q181.297 787.557 178.218 792.164 Q175.163 796.747 169.352 796.747 Q163.542 796.747 160.464 792.164 Q157.408 787.557 157.408 778.83 Q157.408 770.08 160.464 765.497 Q163.542 760.891 169.352 760.891 Z" fill="#000000" fill-rule="nonzero" fill-opacity="1" /><path clip-path="url(#clip660)" d="M190.325 792.14 L197.963 792.14 L197.963 765.775 L189.653 767.442 L189.653 763.182 L197.917 761.516 L202.593 761.516 L202.593 792.14 L210.232 792.14 L210.232 796.076 L190.325 796.076 L190.325 792.14 Z" fill="#000000" fill-rule="nonzero" fill-opacity="1" /><path clip-path="url(#clip660)" d="M229.676 764.594 Q226.065 764.594 224.236 768.159 Q222.431 771.701 222.431 778.83 Q222.431 785.937 224.236 789.502 Q226.065 793.043 229.676 793.043 Q233.31 793.043 235.116 789.502 Q236.945 785.937 236.945 778.83 Q236.945 771.701 235.116 768.159 Q233.31 764.594 229.676 764.594 M229.676 760.891 Q235.486 760.891 238.542 765.497 Q241.621 770.08 241.621 778.83 Q241.621 787.557 238.542 792.164 Q235.486 796.747 229.676 796.747 Q223.866 796.747 220.787 792.164 Q217.732 787.557 217.732 778.83 Q217.732 770.08 220.787 765.497 Q223.866 760.891 229.676 760.891 Z" fill="#000000" fill-rule="nonzero" fill-opacity="1" /><path clip-path="url(#clip660)" d="M115.927 489.419 L123.566 489.419 L123.566 463.054 L115.256 464.72 L115.256 460.461 L123.519 458.794 L128.195 458.794 L128.195 489.419 L135.834 489.419 L135.834 493.354 L115.927 493.354 L115.927 489.419 Z" fill="#000000" fill-rule="nonzero" fill-opacity="1" /><path clip-path="url(#clip660)" d="M145.279 487.475 L150.163 487.475 L150.163 493.354 L145.279 493.354 L145.279 487.475 Z" fill="#000000" fill-rule="nonzero" fill-opacity="1" /><path clip-path="url(#clip660)" d="M170.348 461.873 Q166.737 461.873 164.908 465.438 Q163.102 468.979 163.102 476.109 Q163.102 483.215 164.908 486.78 Q166.737 490.322 170.348 490.322 Q173.982 490.322 175.788 486.78 Q177.616 483.215 177.616 476.109 Q177.616 468.979 175.788 465.438 Q173.982 461.873 170.348 461.873 M170.348 458.169 Q176.158 458.169 179.214 462.776 Q182.292 467.359 182.292 476.109 Q182.292 484.836 179.214 489.442 Q176.158 494.026 170.348 494.026 Q164.538 494.026 161.459 489.442 Q158.403 484.836 158.403 476.109 Q158.403 467.359 161.459 462.776 Q164.538 458.169 170.348 458.169 Z" fill="#000000" fill-rule="nonzero" fill-opacity="1" /><path clip-path="url(#clip660)" d="M191.32 489.419 L198.959 489.419 L198.959 463.054 L190.649 464.72 L190.649 460.461 L198.912 458.794 L203.588 458.794 L203.588 489.419 L211.227 489.419 L211.227 493.354 L191.32 493.354 L191.32 489.419 Z" fill="#000000" fill-rule="nonzero" fill-opacity="1" /><path clip-path="url(#clip660)" d="M220.718 458.794 L239.074 458.794 L239.074 462.729 L225 462.729 L225 471.202 Q226.019 470.854 227.037 470.692 Q228.056 470.507 229.074 470.507 Q234.861 470.507 238.241 473.679 Q241.621 476.85 241.621 482.266 Q241.621 487.845 238.148 490.947 Q234.676 494.026 228.357 494.026 Q226.181 494.026 223.912 493.655 Q221.667 493.285 219.26 492.544 L219.26 487.845 Q221.343 488.979 223.565 489.535 Q225.787 490.09 228.264 490.09 Q232.269 490.09 234.607 487.984 Q236.945 485.878 236.945 482.266 Q236.945 478.655 234.607 476.549 Q232.269 474.442 228.264 474.442 Q226.389 474.442 224.514 474.859 Q222.662 475.276 220.718 476.155 L220.718 458.794 Z" fill="#000000" fill-rule="nonzero" fill-opacity="1" /><path clip-path="url(#clip660)" d="M114.931 186.698 L122.57 186.698 L122.57 160.332 L114.26 161.999 L114.26 157.74 L122.524 156.073 L127.2 156.073 L127.2 186.698 L134.839 186.698 L134.839 190.633 L114.931 190.633 L114.931 186.698 Z" fill="#000000" fill-rule="nonzero" fill-opacity="1" /><path clip-path="url(#clip660)" d="M144.283 184.753 L149.167 184.753 L149.167 190.633 L144.283 190.633 L144.283 184.753 Z" fill="#000000" fill-rule="nonzero" fill-opacity="1" /><path clip-path="url(#clip660)" d="M169.352 159.152 Q165.741 159.152 163.913 162.717 Q162.107 166.258 162.107 173.388 Q162.107 180.494 163.913 184.059 Q165.741 187.601 169.352 187.601 Q172.987 187.601 174.792 184.059 Q176.621 180.494 176.621 173.388 Q176.621 166.258 174.792 162.717 Q172.987 159.152 169.352 159.152 M169.352 155.448 Q175.163 155.448 178.218 160.054 Q181.297 164.638 181.297 173.388 Q181.297 182.115 178.218 186.721 Q175.163 191.304 169.352 191.304 Q163.542 191.304 160.464 186.721 Q157.408 182.115 157.408 173.388 Q157.408 164.638 160.464 160.054 Q163.542 155.448 169.352 155.448 Z" fill="#000000" fill-rule="nonzero" fill-opacity="1" /><path clip-path="url(#clip660)" d="M193.542 186.698 L209.861 186.698 L209.861 190.633 L187.917 190.633 L187.917 186.698 Q190.579 183.943 195.163 179.314 Q199.769 174.661 200.95 173.318 Q203.195 170.795 204.074 169.059 Q204.977 167.3 204.977 165.61 Q204.977 162.855 203.033 161.119 Q201.112 159.383 198.01 159.383 Q195.811 159.383 193.357 160.147 Q190.926 160.911 188.149 162.462 L188.149 157.74 Q190.973 156.605 193.426 156.027 Q195.88 155.448 197.917 155.448 Q203.287 155.448 206.482 158.133 Q209.676 160.818 209.676 165.309 Q209.676 167.439 208.866 169.36 Q208.079 171.258 205.973 173.851 Q205.394 174.522 202.292 177.74 Q199.19 180.934 193.542 186.698 Z" fill="#000000" fill-rule="nonzero" fill-opacity="1" /><path clip-path="url(#clip660)" d="M229.676 159.152 Q226.065 159.152 224.236 162.717 Q222.431 166.258 222.431 173.388 Q222.431 180.494 224.236 184.059 Q226.065 187.601 229.676 187.601 Q233.31 187.601 235.116 184.059 Q236.945 180.494 236.945 173.388 Q236.945 166.258 235.116 162.717 Q233.31 159.152 229.676 159.152 M229.676 155.448 Q235.486 155.448 238.542 160.054 Q241.621 164.638 241.621 173.388 Q241.621 182.115 238.542 186.721 Q235.486 191.304 229.676 191.304 Q223.866 191.304 220.787 186.721 Q217.732 182.115 217.732 173.388 Q217.732 164.638 220.787 160.054 Q223.866 155.448 229.676 155.448 Z" fill="#000000" fill-rule="nonzero" fill-opacity="1" /><path clip-path="url(#clip660)" d="M57.2247 896.821 L44.4614 896.821 L44.4614 907.325 L39.1779 907.325 L39.1779 890.456 L59.58 890.456 Q62.2218 894.18 63.5904 898.667 Q64.9272 903.155 64.9272 908.248 Q64.9272 919.388 58.4342 925.69 Q51.9093 931.96 40.2919 931.96 Q28.6427 931.96 22.1496 925.69 Q15.6248 919.388 15.6248 908.248 Q15.6248 903.601 16.7706 899.431 Q17.9164 895.23 20.1444 891.697 L26.9876 891.697 Q23.9639 895.262 22.4361 899.272 Q20.9083 903.283 20.9083 907.707 Q20.9083 916.428 25.7781 920.82 Q30.6479 925.181 40.2919 925.181 Q49.9041 925.181 54.7739 920.82 Q59.6436 916.428 59.6436 907.707 Q59.6436 904.301 59.0707 901.627 Q58.466 898.954 57.2247 896.821 Z" fill="#000000" fill-rule="nonzero" fill-opacity="1" /><path clip-path="url(#clip660)" d="M21.7677 872.282 L58.7206 872.282 L58.7206 864.515 Q58.7206 854.68 54.2646 850.129 Q49.8086 845.546 40.1964 845.546 Q30.6479 845.546 26.2237 850.129 Q21.7677 854.68 21.7677 864.515 L21.7677 872.282 M16.4842 878.711 L16.4842 865.502 Q16.4842 851.688 22.2451 845.227 Q27.9743 838.766 40.1964 838.766 Q52.4822 838.766 58.2432 845.259 Q64.0042 851.752 64.0042 865.502 L64.0042 878.711 L16.4842 878.711 Z" fill="#000000" fill-rule="nonzero" fill-opacity="1" /><path clip-path="url(#clip660)" d="M21.7677 822.088 L39.6235 822.088 L39.6235 814.004 Q39.6235 809.516 37.3 807.065 Q34.9765 804.614 30.6797 804.614 Q26.4147 804.614 24.0912 807.065 Q21.7677 809.516 21.7677 814.004 L21.7677 822.088 M16.4842 828.517 L16.4842 814.004 Q16.4842 806.015 20.1126 801.94 Q23.7092 797.835 30.6797 797.835 Q37.7138 797.835 41.3104 801.94 Q44.907 806.015 44.907 814.004 L44.907 822.088 L64.0042 822.088 L64.0042 828.517 L16.4842 828.517 Z" fill="#000000" fill-rule="nonzero" fill-opacity="1" /><path clip-path="url(#clip660)" d="M29.7248 743.09 L35.1993 743.09 Q33.8307 745.572 33.1623 748.087 Q32.4621 750.569 32.4621 753.116 Q32.4621 758.813 36.0905 761.964 Q39.6872 765.115 46.212 765.115 Q52.7369 765.115 56.3653 761.964 Q59.9619 758.813 59.9619 753.116 Q59.9619 750.569 59.2935 748.087 Q58.5933 745.572 57.2247 743.09 L62.6355 743.09 Q63.7814 745.54 64.3543 748.182 Q64.9272 750.792 64.9272 753.752 Q64.9272 761.805 59.8664 766.547 Q54.8057 771.29 46.212 771.29 Q37.491 771.29 32.4939 766.515 Q27.4968 761.709 27.4968 753.37 Q27.4968 750.665 28.0697 748.087 Q28.6108 745.508 29.7248 743.09 Z" fill="#000000" fill-rule="nonzero" fill-opacity="1" /><path clip-path="url(#clip660)" d="M42.4881 703.272 L64.0042 703.272 L64.0042 709.128 L42.679 709.128 Q37.6183 709.128 35.1038 711.102 Q32.5894 713.075 32.5894 717.022 Q32.5894 721.764 35.6131 724.502 Q38.6368 727.239 43.8567 727.239 L64.0042 727.239 L64.0042 733.127 L14.479 733.127 L14.479 727.239 L33.8944 727.239 Q30.6797 725.138 29.0883 722.305 Q27.4968 719.441 27.4968 715.717 Q27.4968 709.574 31.3163 706.423 Q35.1038 703.272 42.4881 703.272 Z" fill="#000000" fill-rule="nonzero" fill-opacity="1" /><path clip-path="url(#clip660)" d="M46.0847 675.39 Q46.0847 682.488 47.7079 685.225 Q49.3312 687.963 53.2461 687.963 Q56.3653 687.963 58.2114 685.925 Q60.0256 683.857 60.0256 680.324 Q60.0256 675.454 56.5881 672.526 Q53.1188 669.566 47.3897 669.566 L46.0847 669.566 L46.0847 675.39 M43.6657 663.709 L64.0042 663.709 L64.0042 669.566 L58.5933 669.566 Q61.8398 671.571 63.3994 674.563 Q64.9272 677.555 64.9272 681.883 Q64.9272 687.358 61.8716 690.604 Q58.7843 693.819 53.6281 693.819 Q47.6125 693.819 44.5569 689.809 Q41.5014 685.766 41.5014 677.777 L41.5014 669.566 L40.9285 669.566 Q36.8862 669.566 34.6901 672.239 Q32.4621 674.881 32.4621 679.687 Q32.4621 682.743 33.1941 685.639 Q33.9262 688.535 35.3903 691.209 L29.9795 691.209 Q28.7381 687.994 28.1334 684.971 Q27.4968 681.947 27.4968 679.082 Q27.4968 671.348 31.5072 667.529 Q35.5176 663.709 43.6657 663.709 Z" fill="#000000" fill-rule="nonzero" fill-opacity="1" /><path clip-path="url(#clip660)" d="M42.4881 622.014 L64.0042 622.014 L64.0042 627.87 L42.679 627.87 Q37.6183 627.87 35.1038 629.844 Q32.5894 631.817 32.5894 635.764 Q32.5894 640.506 35.6131 643.243 Q38.6368 645.981 43.8567 645.981 L64.0042 645.981 L64.0042 651.869 L28.3562 651.869 L28.3562 645.981 L33.8944 645.981 Q30.6797 643.88 29.0883 641.047 Q27.4968 638.183 27.4968 634.459 Q27.4968 628.316 31.3163 625.165 Q35.1038 622.014 42.4881 622.014 Z" fill="#000000" fill-rule="nonzero" fill-opacity="1" /><path clip-path="url(#clip660)" d="M45.7664 586.875 Q39.4007 586.875 35.8996 589.517 Q32.3984 592.127 32.3984 596.869 Q32.3984 601.58 35.8996 604.222 Q39.4007 606.832 45.7664 606.832 Q52.1003 606.832 55.6014 604.222 Q59.1026 601.58 59.1026 596.869 Q59.1026 592.127 55.6014 589.517 Q52.1003 586.875 45.7664 586.875 M59.58 581.019 Q68.683 581.019 73.1071 585.061 Q77.5631 589.103 77.5631 597.442 Q77.5631 600.53 77.0857 603.267 Q76.6401 606.004 75.6852 608.582 L69.9879 608.582 Q71.3884 606.004 72.0568 603.49 Q72.7252 600.975 72.7252 598.365 Q72.7252 592.604 69.7015 589.74 Q66.7096 586.875 60.6303 586.875 L57.7339 586.875 Q60.885 588.689 62.4446 591.522 Q64.0042 594.355 64.0042 598.302 Q64.0042 604.858 59.0071 608.869 Q54.01 612.879 45.7664 612.879 Q37.491 612.879 32.4939 608.869 Q27.4968 604.858 27.4968 598.302 Q27.4968 594.355 29.0564 591.522 Q30.616 588.689 33.7671 586.875 L28.3562 586.875 L28.3562 581.019 L59.58 581.019 Z" fill="#000000" fill-rule="nonzero" fill-opacity="1" /><path clip-path="url(#clip660)" d="M44.7161 538.464 L47.5806 538.464 L47.5806 565.391 Q53.6281 565.009 56.8109 561.762 Q59.9619 558.484 59.9619 552.659 Q59.9619 549.286 59.1344 546.135 Q58.3069 542.952 56.6518 539.833 L62.1899 539.833 Q63.5267 542.984 64.227 546.294 Q64.9272 549.604 64.9272 553.01 Q64.9272 561.54 59.9619 566.537 Q54.9967 571.502 46.5303 571.502 Q37.7774 571.502 32.6531 566.791 Q27.4968 562.049 27.4968 554.028 Q27.4968 546.835 32.1438 542.665 Q36.7589 538.464 44.7161 538.464 M42.9973 544.32 Q38.1912 544.384 35.3266 547.026 Q32.4621 549.636 32.4621 553.964 Q32.4621 558.866 35.2312 561.826 Q38.0002 564.754 43.0292 565.2 L42.9973 544.32 Z" fill="#000000" fill-rule="nonzero" fill-opacity="1" /><path clip-path="url(#clip662)" d="M336.351 1384.24 L458.706 1282.74 L581.06 1107.05 L703.415 1007.22 L825.77 943.532 L948.124 1002.9 L1070.48 1056.93 L1192.83 1066.69 L1315.19 982.854 L1437.54 1014.79 L1559.9 963.055 L1682.25 966.87 L1804.61 949.418 L1926.96 813.752 L2049.32 829.081 L2171.67 789.93 L2294.03 724.95 L2294.03 86.1857 L2171.67 177.327 L2049.32 234.437 L1926.96 231.134 L1804.61 384.045 L1682.25 445.656 L1559.9 448.093 L1437.54 523.762 L1315.19 538.128 L1192.83 679.347 L1070.48 711.472 L948.124 706.407 L825.77 670.602 L703.415 771.361 L581.06 938.421 L458.706 1142.05 L336.351 1384.24  Z" fill="#009af9" fill-rule="evenodd" fill-opacity="0.2"/>
<polyline clip-path="url(#clip662)" style="stroke:#009af9; stroke-linecap:round; stroke-linejoin:round; stroke-width:4; stroke-opacity:1; fill:none" points="336.351,1384.24 458.706,1212.4 581.06,1022.73 703.415,889.288 825.77,807.067 948.124,854.654 1070.48,884.201 1192.83,873.021 1315.19,760.491 1437.54,769.277 1559.9,705.574 1682.25,706.263 1804.61,666.731 1926.96,522.443 2049.32,531.759 2171.67,483.628 2294.03,405.568 "/>
</svg>
