<?xml version="1.0" encoding="utf-8"?>
<svg xmlns="http://www.w3.org/2000/svg" xmlns:xlink="http://www.w3.org/1999/xlink" width="600" height="400" viewBox="0 0 2400 1600">
<defs>
  <clipPath id="clip590">
    <rect x="0" y="0" width="2400" height="1600"/>
  </clipPath>
</defs>
<path clip-path="url(#clip590)" d="M0 1600 L2400 1600 L2400 0 L0 0  Z" fill="#ffffff" fill-rule="evenodd" fill-opacity="1"/>
<defs>
  <clipPath id="clip591">
    <rect x="480" y="0" width="1681" height="1600"/>
  </clipPath>
</defs>
<path clip-path="url(#clip590)" d="M279.611 1423.18 L2352.76 1423.18 L2352.76 47.2441 L279.611 47.2441  Z" fill="#ffffff" fill-rule="evenodd" fill-opacity="1"/>
<defs>
  <clipPath id="clip592">
    <rect x="279" y="47" width="2074" height="1377"/>
  </clipPath>
</defs>
<polyline clip-path="url(#clip592)" style="stroke:#000000; stroke-linecap:round; stroke-linejoin:round; stroke-width:2; stroke-opacity:0.1; fill:none" points="582.76,1423.18 582.76,47.2441 "/>
<polyline clip-path="url(#clip592)" style="stroke:#000000; stroke-linecap:round; stroke-linejoin:round; stroke-width:2; stroke-opacity:0.1; fill:none" points="949.472,1423.18 949.472,47.2441 "/>
<polyline clip-path="url(#clip592)" style="stroke:#000000; stroke-linecap:round; stroke-linejoin:round; stroke-width:2; stroke-opacity:0.1; fill:none" points="1316.18,1423.18 1316.18,47.2441 "/>
<polyline clip-path="url(#clip592)" style="stroke:#000000; stroke-linecap:round; stroke-linejoin:round; stroke-width:2; stroke-opacity:0.1; fill:none" points="1682.9,1423.18 1682.9,47.2441 "/>
<polyline clip-path="url(#clip592)" style="stroke:#000000; stroke-linecap:round; stroke-linejoin:round; stroke-width:2; stroke-opacity:0.1; fill:none" points="2049.61,1423.18 2049.61,47.2441 "/>
<polyline clip-path="url(#clip592)" style="stroke:#000000; stroke-linecap:round; stroke-linejoin:round; stroke-width:2; stroke-opacity:0.1; fill:none" points="279.611,1335.26 2352.76,1335.26 "/>
<polyline clip-path="url(#clip592)" style="stroke:#000000; stroke-linecap:round; stroke-linejoin:round; stroke-width:2; stroke-opacity:0.1; fill:none" points="279.611,1137.41 2352.76,1137.41 "/>
<polyline clip-path="url(#clip592)" style="stroke:#000000; stroke-linecap:round; stroke-linejoin:round; stroke-width:2; stroke-opacity:0.1; fill:none" points="279.611,939.556 2352.76,939.556 "/>
<polyline clip-path="url(#clip592)" style="stroke:#000000; stroke-linecap:round; stroke-linejoin:round; stroke-width:2; stroke-opacity:0.1; fill:none" points="279.611,741.703 2352.76,741.703 "/>
<polyline clip-path="url(#clip592)" style="stroke:#000000; stroke-linecap:round; stroke-linejoin:round; stroke-width:2; stroke-opacity:0.1; fill:none" points="279.611,543.85 2352.76,543.85 "/>
<polyline clip-path="url(#clip592)" style="stroke:#000000; stroke-linecap:round; stroke-linejoin:round; stroke-width:2; stroke-opacity:0.1; fill:none" points="279.611,345.996 2352.76,345.996 "/>
<polyline clip-path="url(#clip592)" style="stroke:#000000; stroke-linecap:round; stroke-linejoin:round; stroke-width:2; stroke-opacity:0.1; fill:none" points="279.611,148.143 2352.76,148.143 "/>
<polyline clip-path="url(#clip590)" style="stroke:#000000; stroke-linecap:round; stroke-linejoin:round; stroke-width:4; stroke-opacity:1; fill:none" points="279.611,1423.18 2352.76,1423.18 "/>
<polyline clip-path="url(#clip590)" style="stroke:#000000; stroke-linecap:round; stroke-linejoin:round; stroke-width:4; stroke-opacity:1; fill:none" points="582.76,1423.18 582.76,1404.28 "/>
<polyline clip-path="url(#clip590)" style="stroke:#000000; stroke-linecap:round; stroke-linejoin:round; stroke-width:4; stroke-opacity:1; fill:none" points="949.472,1423.18 949.472,1404.28 "/>
<polyline clip-path="url(#clip590)" style="stroke:#000000; stroke-linecap:round; stroke-linejoin:round; stroke-width:4; stroke-opacity:1; fill:none" points="1316.18,1423.18 1316.18,1404.28 "/>
<polyline clip-path="url(#clip590)" style="stroke:#000000; stroke-linecap:round; stroke-linejoin:round; stroke-width:4; stroke-opacity:1; fill:none" points="1682.9,1423.18 1682.9,1404.28 "/>
<polyline clip-path="url(#clip590)" style="stroke:#000000; stroke-linecap:round; stroke-linejoin:round; stroke-width:4; stroke-opacity:1; fill:none" points="2049.61,1423.18 2049.61,1404.28 "/>
<path clip-path="url(#clip590)" d="M587.007 1466.95 Q590.364 1467.66 592.239 1469.93 Q594.137 1472.2 594.137 1475.53 Q594.137 1480.65 590.619 1483.45 Q587.1 1486.25 580.619 1486.25 Q578.443 1486.25 576.128 1485.81 Q573.836 1485.39 571.383 1484.54 L571.383 1480.02 Q573.327 1481.16 575.642 1481.74 Q577.957 1482.32 580.48 1482.32 Q584.878 1482.32 587.17 1480.58 Q589.484 1478.84 589.484 1475.53 Q589.484 1472.48 587.332 1470.77 Q585.202 1469.03 581.383 1469.03 L577.355 1469.03 L577.355 1465.19 L581.568 1465.19 Q585.017 1465.19 586.845 1463.82 Q588.674 1462.43 588.674 1459.84 Q588.674 1457.18 586.776 1455.77 Q584.901 1454.33 581.383 1454.33 Q579.461 1454.33 577.262 1454.75 Q575.063 1455.16 572.424 1456.04 L572.424 1451.88 Q575.086 1451.14 577.401 1450.77 Q579.739 1450.39 581.799 1450.39 Q587.123 1450.39 590.225 1452.83 Q593.327 1455.23 593.327 1459.35 Q593.327 1462.22 591.683 1464.21 Q590.04 1466.18 587.007 1466.95 Z" fill="#000000" fill-rule="nonzero" fill-opacity="1" /><path clip-path="url(#clip590)" d="M949.877 1466.44 Q946.729 1466.44 944.877 1468.59 Q943.048 1470.74 943.048 1474.49 Q943.048 1478.22 944.877 1480.39 Q946.729 1482.55 949.877 1482.55 Q953.025 1482.55 954.854 1480.39 Q956.705 1478.22 956.705 1474.49 Q956.705 1470.74 954.854 1468.59 Q953.025 1466.44 949.877 1466.44 M959.159 1451.78 L959.159 1456.04 Q957.4 1455.21 955.594 1454.77 Q953.812 1454.33 952.053 1454.33 Q947.423 1454.33 944.969 1457.45 Q942.539 1460.58 942.192 1466.9 Q943.557 1464.89 945.618 1463.82 Q947.678 1462.73 950.155 1462.73 Q955.363 1462.73 958.372 1465.9 Q961.405 1469.05 961.405 1474.49 Q961.405 1479.82 958.256 1483.03 Q955.108 1486.25 949.877 1486.25 Q943.881 1486.25 940.71 1481.67 Q937.539 1477.06 937.539 1468.33 Q937.539 1460.14 941.428 1455.28 Q945.317 1450.39 951.868 1450.39 Q953.627 1450.39 955.409 1450.74 Q957.215 1451.09 959.159 1451.78 Z" fill="#000000" fill-rule="nonzero" fill-opacity="1" /><path clip-path="url(#clip590)" d="M1306.48 1484.86 L1306.48 1480.6 Q1308.24 1481.44 1310.05 1481.88 Q1311.85 1482.32 1313.59 1482.32 Q1318.22 1482.32 1320.65 1479.21 Q1323.1 1476.09 1323.45 1469.75 Q1322.11 1471.74 1320.05 1472.8 Q1317.99 1473.87 1315.49 1473.87 Q1310.3 1473.87 1307.27 1470.74 Q1304.26 1467.59 1304.26 1462.15 Q1304.26 1456.83 1307.41 1453.61 Q1310.56 1450.39 1315.79 1450.39 Q1321.79 1450.39 1324.93 1455 Q1328.1 1459.58 1328.1 1468.33 Q1328.1 1476.51 1324.22 1481.39 Q1320.35 1486.25 1313.8 1486.25 Q1312.04 1486.25 1310.23 1485.9 Q1308.43 1485.56 1306.48 1484.86 M1315.79 1470.21 Q1318.94 1470.21 1320.77 1468.06 Q1322.62 1465.9 1322.62 1462.15 Q1322.62 1458.43 1320.77 1456.27 Q1318.94 1454.1 1315.79 1454.1 Q1312.64 1454.1 1310.79 1456.27 Q1308.96 1458.43 1308.96 1462.15 Q1308.96 1465.9 1310.79 1468.06 Q1312.64 1470.21 1315.79 1470.21 Z" fill="#000000" fill-rule="nonzero" fill-opacity="1" /><path clip-path="url(#clip590)" d="M1658.38 1481.64 L1666.02 1481.64 L1666.02 1455.28 L1657.71 1456.95 L1657.71 1452.69 L1665.97 1451.02 L1670.65 1451.02 L1670.65 1481.64 L1678.29 1481.64 L1678.29 1485.58 L1658.38 1485.58 L1658.38 1481.64 Z" fill="#000000" fill-rule="nonzero" fill-opacity="1" /><path clip-path="url(#clip590)" d="M1691.76 1481.64 L1708.08 1481.64 L1708.08 1485.58 L1686.14 1485.58 L1686.14 1481.64 Q1688.8 1478.89 1693.38 1474.26 Q1697.99 1469.61 1699.17 1468.27 Q1701.41 1465.74 1702.29 1464.01 Q1703.2 1462.25 1703.2 1460.56 Q1703.2 1457.8 1701.25 1456.07 Q1699.33 1454.33 1696.23 1454.33 Q1694.03 1454.33 1691.58 1455.09 Q1689.15 1455.86 1686.37 1457.41 L1686.37 1452.69 Q1689.19 1451.55 1691.65 1450.97 Q1694.1 1450.39 1696.14 1450.39 Q1701.51 1450.39 1704.7 1453.08 Q1707.9 1455.77 1707.9 1460.26 Q1707.9 1462.39 1707.09 1464.31 Q1706.3 1466.2 1704.19 1468.8 Q1703.61 1469.47 1700.51 1472.69 Q1697.41 1475.88 1691.76 1481.64 Z" fill="#000000" fill-rule="nonzero" fill-opacity="1" /><path clip-path="url(#clip590)" d="M2024.79 1481.64 L2032.43 1481.64 L2032.43 1455.28 L2024.12 1456.95 L2024.12 1452.69 L2032.39 1451.02 L2037.06 1451.02 L2037.06 1481.64 L2044.7 1481.64 L2044.7 1485.58 L2024.79 1485.58 L2024.79 1481.64 Z" fill="#000000" fill-rule="nonzero" fill-opacity="1" /><path clip-path="url(#clip590)" d="M2054.19 1451.02 L2072.55 1451.02 L2072.55 1454.96 L2058.47 1454.96 L2058.47 1463.43 Q2059.49 1463.08 2060.51 1462.92 Q2061.53 1462.73 2062.55 1462.73 Q2068.33 1462.73 2071.71 1465.9 Q2075.09 1469.08 2075.09 1474.49 Q2075.09 1480.07 2071.62 1483.17 Q2068.15 1486.25 2061.83 1486.25 Q2059.65 1486.25 2057.39 1485.88 Q2055.14 1485.51 2052.73 1484.77 L2052.73 1480.07 Q2054.82 1481.2 2057.04 1481.76 Q2059.26 1482.32 2061.74 1482.32 Q2065.74 1482.32 2068.08 1480.21 Q2070.42 1478.1 2070.42 1474.49 Q2070.42 1470.88 2068.08 1468.77 Q2065.74 1466.67 2061.74 1466.67 Q2059.86 1466.67 2057.99 1467.08 Q2056.14 1467.5 2054.19 1468.38 L2054.19 1451.02 Z" fill="#000000" fill-rule="nonzero" fill-opacity="1" /><path clip-path="url(#clip590)" d="M1187.69 1550.25 Q1187.69 1556.71 1190.33 1560.4 Q1193.01 1564.07 1197.65 1564.07 Q1202.3 1564.07 1204.97 1560.4 Q1207.65 1556.71 1207.65 1550.25 Q1207.65 1543.79 1204.97 1540.13 Q1202.3 1536.44 1197.65 1536.44 Q1193.01 1536.44 1190.33 1540.13 Q1187.69 1543.79 1187.69 1550.25 M1207.65 1562.7 Q1205.8 1565.88 1202.97 1567.44 Q1200.17 1568.97 1196.22 1568.97 Q1189.76 1568.97 1185.69 1563.81 Q1181.64 1558.65 1181.64 1550.25 Q1181.64 1541.85 1185.69 1536.69 Q1189.76 1531.54 1196.22 1531.54 Q1200.17 1531.54 1202.97 1533.1 Q1205.8 1534.62 1207.65 1537.81 L1207.65 1532.4 L1213.5 1532.4 L1213.5 1581.6 L1207.65 1581.6 L1207.65 1562.7 Z" fill="#000000" fill-rule="nonzero" fill-opacity="1" /><path clip-path="url(#clip590)" d="M1224.96 1553.98 L1224.96 1532.4 L1230.82 1532.4 L1230.82 1553.75 Q1230.82 1558.81 1232.79 1561.36 Q1234.77 1563.87 1238.71 1563.87 Q1243.46 1563.87 1246.19 1560.85 Q1248.96 1557.83 1248.96 1552.61 L1248.96 1532.4 L1254.82 1532.4 L1254.82 1568.04 L1248.96 1568.04 L1248.96 1562.57 Q1246.83 1565.82 1244 1567.41 Q1241.2 1568.97 1237.47 1568.97 Q1231.33 1568.97 1228.15 1565.15 Q1224.96 1561.33 1224.96 1553.98 M1239.7 1531.54 L1239.7 1531.54 Z" fill="#000000" fill-rule="nonzero" fill-opacity="1" /><path clip-path="url(#clip590)" d="M1283.08 1550.12 Q1275.98 1550.12 1273.25 1551.75 Q1270.51 1553.37 1270.51 1557.29 Q1270.51 1560.4 1272.55 1562.25 Q1274.62 1564.07 1278.15 1564.07 Q1283.02 1564.07 1285.95 1560.63 Q1288.91 1557.16 1288.91 1551.43 L1288.91 1550.12 L1283.08 1550.12 M1294.76 1547.71 L1294.76 1568.04 L1288.91 1568.04 L1288.91 1562.63 Q1286.9 1565.88 1283.91 1567.44 Q1280.92 1568.97 1276.59 1568.97 Q1271.11 1568.97 1267.87 1565.91 Q1264.65 1562.82 1264.65 1557.67 Q1264.65 1551.65 1268.66 1548.6 Q1272.71 1545.54 1280.69 1545.54 L1288.91 1545.54 L1288.91 1544.97 Q1288.91 1540.93 1286.23 1538.73 Q1283.59 1536.5 1278.79 1536.5 Q1275.73 1536.5 1272.83 1537.23 Q1269.94 1537.97 1267.26 1539.43 L1267.26 1534.02 Q1270.48 1532.78 1273.5 1532.17 Q1276.53 1531.54 1279.39 1531.54 Q1287.12 1531.54 1290.94 1535.55 Q1294.76 1539.56 1294.76 1547.71 Z" fill="#000000" fill-rule="nonzero" fill-opacity="1" /><path clip-path="url(#clip590)" d="M1327.48 1537.87 Q1326.5 1537.3 1325.32 1537.04 Q1324.17 1536.76 1322.77 1536.76 Q1317.81 1536.76 1315.13 1540 Q1312.49 1543.22 1312.49 1549.27 L1312.49 1568.04 L1306.6 1568.04 L1306.6 1532.4 L1312.49 1532.4 L1312.49 1537.93 Q1314.34 1534.69 1317.3 1533.13 Q1320.26 1531.54 1324.49 1531.54 Q1325.1 1531.54 1325.83 1531.63 Q1326.56 1531.7 1327.45 1531.85 L1327.48 1537.87 Z" fill="#000000" fill-rule="nonzero" fill-opacity="1" /><path clip-path="url(#clip590)" d="M1339.42 1522.27 L1339.42 1532.4 L1351.48 1532.4 L1351.48 1536.95 L1339.42 1536.95 L1339.42 1556.3 Q1339.42 1560.66 1340.6 1561.9 Q1341.81 1563.14 1345.47 1563.14 L1351.48 1563.14 L1351.48 1568.04 L1345.47 1568.04 Q1338.69 1568.04 1336.11 1565.53 Q1333.53 1562.98 1333.53 1556.3 L1333.53 1536.95 L1329.23 1536.95 L1329.23 1532.4 L1333.53 1532.4 L1333.53 1522.27 L1339.42 1522.27 Z" fill="#000000" fill-rule="nonzero" fill-opacity="1" /><path clip-path="url(#clip590)" d="M1389.68 1548.76 L1389.68 1551.62 L1362.75 1551.62 Q1363.13 1557.67 1366.38 1560.85 Q1369.66 1564 1375.48 1564 Q1378.85 1564 1382.01 1563.17 Q1385.19 1562.35 1388.31 1560.69 L1388.31 1566.23 Q1385.16 1567.57 1381.85 1568.27 Q1378.54 1568.97 1375.13 1568.97 Q1366.6 1568.97 1361.6 1564 Q1356.64 1559.04 1356.64 1550.57 Q1356.64 1541.82 1361.35 1536.69 Q1366.09 1531.54 1374.11 1531.54 Q1381.3 1531.54 1385.47 1536.18 Q1389.68 1540.8 1389.68 1548.76 M1383.82 1547.04 Q1383.76 1542.23 1381.11 1539.37 Q1378.5 1536.5 1374.18 1536.5 Q1369.27 1536.5 1366.31 1539.27 Q1363.39 1542.04 1362.94 1547.07 L1383.82 1547.04 Z" fill="#000000" fill-rule="nonzero" fill-opacity="1" /><path clip-path="url(#clip590)" d="M1419.94 1537.87 Q1418.96 1537.3 1417.78 1537.04 Q1416.63 1536.76 1415.23 1536.76 Q1410.27 1536.76 1407.6 1540 Q1404.95 1543.22 1404.95 1549.27 L1404.95 1568.04 L1399.07 1568.04 L1399.07 1532.4 L1404.95 1532.4 L1404.95 1537.93 Q1406.8 1534.69 1409.76 1533.13 Q1412.72 1531.54 1416.95 1531.54 Q1417.56 1531.54 1418.29 1531.63 Q1419.02 1531.7 1419.91 1531.85 L1419.94 1537.87 Z" fill="#000000" fill-rule="nonzero" fill-opacity="1" /><path clip-path="url(#clip590)" d="M1448.81 1533.45 L1448.81 1538.98 Q1446.33 1537.71 1443.66 1537.07 Q1440.98 1536.44 1438.12 1536.44 Q1433.76 1536.44 1431.56 1537.77 Q1429.4 1539.11 1429.4 1541.79 Q1429.4 1543.82 1430.96 1545 Q1432.52 1546.15 1437.23 1547.2 L1439.23 1547.64 Q1445.47 1548.98 1448.08 1551.43 Q1450.72 1553.85 1450.72 1558.21 Q1450.72 1563.17 1446.78 1566.07 Q1442.86 1568.97 1435.99 1568.97 Q1433.12 1568.97 1430 1568.39 Q1426.92 1567.85 1423.48 1566.74 L1423.48 1560.69 Q1426.72 1562.38 1429.88 1563.24 Q1433.03 1564.07 1436.11 1564.07 Q1440.25 1564.07 1442.48 1562.66 Q1444.71 1561.23 1444.71 1558.65 Q1444.71 1556.27 1443.08 1554.99 Q1441.49 1553.72 1436.05 1552.54 L1434.01 1552.07 Q1428.57 1550.92 1426.15 1548.56 Q1423.73 1546.18 1423.73 1542.04 Q1423.73 1537.01 1427.3 1534.27 Q1430.86 1531.54 1437.42 1531.54 Q1440.67 1531.54 1443.53 1532.01 Q1446.39 1532.49 1448.81 1533.45 Z" fill="#000000" fill-rule="nonzero" fill-opacity="1" /><polyline clip-path="url(#clip590)" style="stroke:#000000; stroke-linecap:round; stroke-linejoin:round; stroke-width:4; stroke-opacity:1; fill:none" points="279.611,1423.18 279.611,47.2441 "/>
<polyline clip-path="url(#clip590)" style="stroke:#000000; stroke-linecap:round; stroke-linejoin:round; stroke-width:4; stroke-opacity:1; fill:none" points="279.611,1335.26 298.509,1335.26 "/>
<polyline clip-path="url(#clip590)" style="stroke:#000000; stroke-linecap:round; stroke-linejoin:round; stroke-width:4; stroke-opacity:1; fill:none" points="279.611,1137.41 298.509,1137.41 "/>
<polyline clip-path="url(#clip590)" style="stroke:#000000; stroke-linecap:round; stroke-linejoin:round; stroke-width:4; stroke-opacity:1; fill:none" points="279.611,939.556 298.509,939.556 "/>
<polyline clip-path="url(#clip590)" style="stroke:#000000; stroke-linecap:round; stroke-linejoin:round; stroke-width:4; stroke-opacity:1; fill:none" points="279.611,741.703 298.509,741.703 "/>
<polyline clip-path="url(#clip590)" style="stroke:#000000; stroke-linecap:round; stroke-linejoin:round; stroke-width:4; stroke-opacity:1; fill:none" points="279.611,543.85 298.509,543.85 "/>
<polyline clip-path="url(#clip590)" style="stroke:#000000; stroke-linecap:round; stroke-linejoin:round; stroke-width:4; stroke-opacity:1; fill:none" points="279.611,345.996 298.509,345.996 "/>
<polyline clip-path="url(#clip590)" style="stroke:#000000; stroke-linecap:round; stroke-linejoin:round; stroke-width:4; stroke-opacity:1; fill:none" points="279.611,148.143 298.509,148.143 "/>
<path clip-path="url(#clip590)" d="M126.205 1321.06 Q122.593 1321.06 120.765 1324.63 Q118.959 1328.17 118.959 1335.3 Q118.959 1342.4 120.765 1345.97 Q122.593 1349.51 126.205 1349.51 Q129.839 1349.51 131.644 1345.97 Q133.473 1342.4 133.473 1335.3 Q133.473 1328.17 131.644 1324.63 Q129.839 1321.06 126.205 1321.06 M126.205 1317.36 Q132.015 1317.36 135.07 1321.96 Q138.149 1326.55 138.149 1335.3 Q138.149 1344.02 135.07 1348.63 Q132.015 1353.21 126.205 1353.21 Q120.394 1353.21 117.316 1348.63 Q114.26 1344.02 114.26 1335.3 Q114.26 1326.55 117.316 1321.96 Q120.394 1317.36 126.205 1317.36 Z" fill="#000000" fill-rule="nonzero" fill-opacity="1" /><path clip-path="url(#clip590)" d="M146.366 1346.66 L151.251 1346.66 L151.251 1352.54 L146.366 1352.54 L146.366 1346.66 Z" fill="#000000" fill-rule="nonzero" fill-opacity="1" /><path clip-path="url(#clip590)" d="M161.575 1351.83 L161.575 1347.57 Q163.334 1348.4 165.14 1348.84 Q166.945 1349.28 168.681 1349.28 Q173.311 1349.28 175.741 1346.18 Q178.195 1343.05 178.542 1336.71 Q177.2 1338.7 175.139 1339.77 Q173.079 1340.83 170.579 1340.83 Q165.394 1340.83 162.362 1337.7 Q159.353 1334.56 159.353 1329.12 Q159.353 1323.79 162.501 1320.58 Q165.649 1317.36 170.88 1317.36 Q176.876 1317.36 180.024 1321.96 Q183.195 1326.55 183.195 1335.3 Q183.195 1343.47 179.306 1348.35 Q175.44 1353.21 168.889 1353.21 Q167.13 1353.21 165.325 1352.87 Q163.519 1352.52 161.575 1351.83 M170.88 1337.17 Q174.028 1337.17 175.857 1335.02 Q177.709 1332.87 177.709 1329.12 Q177.709 1325.39 175.857 1323.24 Q174.028 1321.06 170.88 1321.06 Q167.732 1321.06 165.88 1323.24 Q164.052 1325.39 164.052 1329.12 Q164.052 1332.87 165.88 1335.02 Q167.732 1337.17 170.88 1337.17 Z" fill="#000000" fill-rule="nonzero" fill-opacity="1" /><path clip-path="url(#clip590)" d="M191.737 1351.83 L191.737 1347.57 Q193.496 1348.4 195.301 1348.84 Q197.107 1349.28 198.843 1349.28 Q203.473 1349.28 205.903 1346.18 Q208.357 1343.05 208.704 1336.71 Q207.362 1338.7 205.301 1339.77 Q203.241 1340.83 200.741 1340.83 Q195.556 1340.83 192.524 1337.7 Q189.514 1334.56 189.514 1329.12 Q189.514 1323.79 192.663 1320.58 Q195.811 1317.36 201.042 1317.36 Q207.037 1317.36 210.186 1321.96 Q213.357 1326.55 213.357 1335.3 Q213.357 1343.47 209.468 1348.35 Q205.602 1353.21 199.051 1353.21 Q197.292 1353.21 195.487 1352.87 Q193.681 1352.52 191.737 1351.83 M201.042 1337.17 Q204.19 1337.17 206.019 1335.02 Q207.871 1332.87 207.871 1329.12 Q207.871 1325.39 206.019 1323.24 Q204.19 1321.06 201.042 1321.06 Q197.894 1321.06 196.042 1323.24 Q194.213 1325.39 194.213 1329.12 Q194.213 1332.87 196.042 1335.02 Q197.894 1337.17 201.042 1337.17 Z" fill="#000000" fill-rule="nonzero" fill-opacity="1" /><path clip-path="url(#clip590)" d="M231.76 1336.13 Q228.426 1336.13 226.505 1337.91 Q224.607 1339.7 224.607 1342.82 Q224.607 1345.95 226.505 1347.73 Q228.426 1349.51 231.76 1349.51 Q235.093 1349.51 237.014 1347.73 Q238.935 1345.92 238.935 1342.82 Q238.935 1339.7 237.014 1337.91 Q235.116 1336.13 231.76 1336.13 M227.084 1334.14 Q224.074 1333.4 222.385 1331.34 Q220.718 1329.28 220.718 1326.32 Q220.718 1322.17 223.658 1319.77 Q226.621 1317.36 231.76 1317.36 Q236.922 1317.36 239.861 1319.77 Q242.801 1322.17 242.801 1326.32 Q242.801 1329.28 241.111 1331.34 Q239.445 1333.4 236.459 1334.14 Q239.838 1334.93 241.713 1337.22 Q243.611 1339.51 243.611 1342.82 Q243.611 1347.84 240.533 1350.53 Q237.477 1353.21 231.76 1353.21 Q226.042 1353.21 222.963 1350.53 Q219.908 1347.84 219.908 1342.82 Q219.908 1339.51 221.806 1337.22 Q223.704 1334.93 227.084 1334.14 M225.371 1326.76 Q225.371 1329.44 227.037 1330.95 Q228.727 1332.45 231.76 1332.45 Q234.769 1332.45 236.459 1330.95 Q238.172 1329.44 238.172 1326.76 Q238.172 1324.07 236.459 1322.57 Q234.769 1321.06 231.76 1321.06 Q228.727 1321.06 227.037 1322.57 Q225.371 1324.07 225.371 1326.76 Z" fill="#000000" fill-rule="nonzero" fill-opacity="1" /><path clip-path="url(#clip590)" d="M116.922 1150.75 L124.561 1150.75 L124.561 1124.39 L116.251 1126.06 L116.251 1121.8 L124.515 1120.13 L129.191 1120.13 L129.191 1150.75 L136.829 1150.75 L136.829 1154.69 L116.922 1154.69 L116.922 1150.75 Z" fill="#000000" fill-rule="nonzero" fill-opacity="1" /><path clip-path="url(#clip590)" d="M146.274 1148.81 L151.158 1148.81 L151.158 1154.69 L146.274 1154.69 L146.274 1148.81 Z" fill="#000000" fill-rule="nonzero" fill-opacity="1" /><path clip-path="url(#clip590)" d="M171.343 1123.21 Q167.732 1123.21 165.903 1126.77 Q164.098 1130.31 164.098 1137.44 Q164.098 1144.55 165.903 1148.12 Q167.732 1151.66 171.343 1151.66 Q174.977 1151.66 176.783 1148.12 Q178.612 1144.55 178.612 1137.44 Q178.612 1130.31 176.783 1126.77 Q174.977 1123.21 171.343 1123.21 M171.343 1119.5 Q177.153 1119.5 180.209 1124.11 Q183.288 1128.69 183.288 1137.44 Q183.288 1146.17 180.209 1150.78 Q177.153 1155.36 171.343 1155.36 Q165.533 1155.36 162.454 1150.78 Q159.399 1146.17 159.399 1137.44 Q159.399 1128.69 162.454 1124.11 Q165.533 1119.5 171.343 1119.5 Z" fill="#000000" fill-rule="nonzero" fill-opacity="1" /><path clip-path="url(#clip590)" d="M201.505 1123.21 Q197.894 1123.21 196.065 1126.77 Q194.26 1130.31 194.26 1137.44 Q194.26 1144.55 196.065 1148.12 Q197.894 1151.66 201.505 1151.66 Q205.139 1151.66 206.945 1148.12 Q208.774 1144.55 208.774 1137.44 Q208.774 1130.31 206.945 1126.77 Q205.139 1123.21 201.505 1123.21 M201.505 1119.5 Q207.315 1119.5 210.371 1124.11 Q213.449 1128.69 213.449 1137.44 Q213.449 1146.17 210.371 1150.78 Q207.315 1155.36 201.505 1155.36 Q195.695 1155.36 192.616 1150.78 Q189.561 1146.17 189.561 1137.44 Q189.561 1128.69 192.616 1124.11 Q195.695 1119.5 201.505 1119.5 Z" fill="#000000" fill-rule="nonzero" fill-opacity="1" /><path clip-path="url(#clip590)" d="M231.667 1123.21 Q228.056 1123.21 226.227 1126.77 Q224.422 1130.31 224.422 1137.44 Q224.422 1144.55 226.227 1148.12 Q228.056 1151.66 231.667 1151.66 Q235.301 1151.66 237.107 1148.12 Q238.935 1144.55 238.935 1137.44 Q238.935 1130.31 237.107 1126.77 Q235.301 1123.21 231.667 1123.21 M231.667 1119.5 Q237.477 1119.5 240.533 1124.11 Q243.611 1128.69 243.611 1137.44 Q243.611 1146.17 240.533 1150.78 Q237.477 1155.36 231.667 1155.36 Q225.857 1155.36 222.778 1150.78 Q219.723 1146.17 219.723 1137.44 Q219.723 1128.69 222.778 1124.11 Q225.857 1119.5 231.667 1119.5 Z" fill="#000000" fill-rule="nonzero" fill-opacity="1" /><path clip-path="url(#clip590)" d="M118.519 952.901 L126.158 952.901 L126.158 926.535 L117.848 928.202 L117.848 923.943 L126.112 922.276 L130.788 922.276 L130.788 952.901 L138.427 952.901 L138.427 956.836 L118.519 956.836 L118.519 952.901 Z" fill="#000000" fill-rule="nonzero" fill-opacity="1" /><path clip-path="url(#clip590)" d="M147.871 950.957 L152.755 950.957 L152.755 956.836 L147.871 956.836 L147.871 950.957 Z" fill="#000000" fill-rule="nonzero" fill-opacity="1" /><path clip-path="url(#clip590)" d="M172.94 925.355 Q169.329 925.355 167.501 928.92 Q165.695 932.461 165.695 939.591 Q165.695 946.697 167.501 950.262 Q169.329 953.804 172.94 953.804 Q176.575 953.804 178.38 950.262 Q180.209 946.697 180.209 939.591 Q180.209 932.461 178.38 928.92 Q176.575 925.355 172.94 925.355 M172.94 921.651 Q178.751 921.651 181.806 926.258 Q184.885 930.841 184.885 939.591 Q184.885 948.318 181.806 952.924 Q178.751 957.507 172.94 957.507 Q167.13 957.507 164.052 952.924 Q160.996 948.318 160.996 939.591 Q160.996 930.841 164.052 926.258 Q167.13 921.651 172.94 921.651 Z" fill="#000000" fill-rule="nonzero" fill-opacity="1" /><path clip-path="url(#clip590)" d="M203.102 925.355 Q199.491 925.355 197.662 928.92 Q195.857 932.461 195.857 939.591 Q195.857 946.697 197.662 950.262 Q199.491 953.804 203.102 953.804 Q206.737 953.804 208.542 950.262 Q210.371 946.697 210.371 939.591 Q210.371 932.461 208.542 928.92 Q206.737 925.355 203.102 925.355 M203.102 921.651 Q208.912 921.651 211.968 926.258 Q215.047 930.841 215.047 939.591 Q215.047 948.318 211.968 952.924 Q208.912 957.507 203.102 957.507 Q197.292 957.507 194.213 952.924 Q191.158 948.318 191.158 939.591 Q191.158 930.841 194.213 926.258 Q197.292 921.651 203.102 921.651 Z" fill="#000000" fill-rule="nonzero" fill-opacity="1" /><path clip-path="url(#clip590)" d="M227.292 952.901 L243.611 952.901 L243.611 956.836 L221.667 956.836 L221.667 952.901 Q224.329 950.146 228.912 945.517 Q233.519 940.864 234.699 939.521 Q236.945 936.998 237.824 935.262 Q238.727 933.503 238.727 931.813 Q238.727 929.059 236.783 927.322 Q234.861 925.586 231.76 925.586 Q229.56 925.586 227.107 926.35 Q224.676 927.114 221.898 928.665 L221.898 923.943 Q224.723 922.809 227.176 922.23 Q229.63 921.651 231.667 921.651 Q237.037 921.651 240.232 924.336 Q243.426 927.022 243.426 931.512 Q243.426 933.642 242.616 935.563 Q241.829 937.461 239.722 940.054 Q239.144 940.725 236.042 943.943 Q232.94 947.137 227.292 952.901 Z" fill="#000000" fill-rule="nonzero" fill-opacity="1" /><path clip-path="url(#clip590)" d="M116.436 755.048 L124.075 755.048 L124.075 728.682 L115.765 730.349 L115.765 726.09 L124.029 724.423 L128.705 724.423 L128.705 755.048 L136.343 755.048 L136.343 758.983 L116.436 758.983 L116.436 755.048 Z" fill="#000000" fill-rule="nonzero" fill-opacity="1" /><path clip-path="url(#clip590)" d="M145.788 753.103 L150.672 753.103 L150.672 758.983 L145.788 758.983 L145.788 753.103 Z" fill="#000000" fill-rule="nonzero" fill-opacity="1" /><path clip-path="url(#clip590)" d="M170.857 727.502 Q167.246 727.502 165.417 731.066 Q163.612 734.608 163.612 741.738 Q163.612 748.844 165.417 752.409 Q167.246 755.95 170.857 755.95 Q174.491 755.95 176.297 752.409 Q178.126 748.844 178.126 741.738 Q178.126 734.608 176.297 731.066 Q174.491 727.502 170.857 727.502 M170.857 723.798 Q176.667 723.798 179.723 728.404 Q182.801 732.988 182.801 741.738 Q182.801 750.464 179.723 755.071 Q176.667 759.654 170.857 759.654 Q165.047 759.654 161.968 755.071 Q158.913 750.464 158.913 741.738 Q158.913 732.988 161.968 728.404 Q165.047 723.798 170.857 723.798 Z" fill="#000000" fill-rule="nonzero" fill-opacity="1" /><path clip-path="url(#clip590)" d="M201.019 727.502 Q197.408 727.502 195.579 731.066 Q193.774 734.608 193.774 741.738 Q193.774 748.844 195.579 752.409 Q197.408 755.95 201.019 755.95 Q204.653 755.95 206.459 752.409 Q208.287 748.844 208.287 741.738 Q208.287 734.608 206.459 731.066 Q204.653 727.502 201.019 727.502 M201.019 723.798 Q206.829 723.798 209.885 728.404 Q212.963 732.988 212.963 741.738 Q212.963 750.464 209.885 755.071 Q206.829 759.654 201.019 759.654 Q195.209 759.654 192.13 755.071 Q189.075 750.464 189.075 741.738 Q189.075 732.988 192.13 728.404 Q195.209 723.798 201.019 723.798 Z" fill="#000000" fill-rule="nonzero" fill-opacity="1" /><path clip-path="url(#clip590)" d="M234.028 728.497 L222.223 746.946 L234.028 746.946 L234.028 728.497 M232.801 724.423 L238.681 724.423 L238.681 746.946 L243.611 746.946 L243.611 750.835 L238.681 750.835 L238.681 758.983 L234.028 758.983 L234.028 750.835 L218.426 750.835 L218.426 746.321 L232.801 724.423 Z" fill="#000000" fill-rule="nonzero" fill-opacity="1" /><path clip-path="url(#clip590)" d="M116.76 557.194 L124.399 557.194 L124.399 530.829 L116.089 532.495 L116.089 528.236 L124.353 526.57 L129.029 526.57 L129.029 557.194 L136.667 557.194 L136.667 561.13 L116.76 561.13 L116.76 557.194 Z" fill="#000000" fill-rule="nonzero" fill-opacity="1" /><path clip-path="url(#clip590)" d="M146.112 555.25 L150.996 555.25 L150.996 561.13 L146.112 561.13 L146.112 555.25 Z" fill="#000000" fill-rule="nonzero" fill-opacity="1" /><path clip-path="url(#clip590)" d="M171.181 529.648 Q167.57 529.648 165.741 533.213 Q163.936 536.755 163.936 543.884 Q163.936 550.991 165.741 554.556 Q167.57 558.097 171.181 558.097 Q174.815 558.097 176.621 554.556 Q178.45 550.991 178.45 543.884 Q178.45 536.755 176.621 533.213 Q174.815 529.648 171.181 529.648 M171.181 525.945 Q176.991 525.945 180.047 530.551 Q183.126 535.134 183.126 543.884 Q183.126 552.611 180.047 557.218 Q176.991 561.801 171.181 561.801 Q165.371 561.801 162.292 557.218 Q159.237 552.611 159.237 543.884 Q159.237 535.134 162.292 530.551 Q165.371 525.945 171.181 525.945 Z" fill="#000000" fill-rule="nonzero" fill-opacity="1" /><path clip-path="url(#clip590)" d="M201.343 529.648 Q197.732 529.648 195.903 533.213 Q194.098 536.755 194.098 543.884 Q194.098 550.991 195.903 554.556 Q197.732 558.097 201.343 558.097 Q204.977 558.097 206.783 554.556 Q208.612 550.991 208.612 543.884 Q208.612 536.755 206.783 533.213 Q204.977 529.648 201.343 529.648 M201.343 525.945 Q207.153 525.945 210.209 530.551 Q213.287 535.134 213.287 543.884 Q213.287 552.611 210.209 557.218 Q207.153 561.801 201.343 561.801 Q195.533 561.801 192.454 557.218 Q189.399 552.611 189.399 543.884 Q189.399 535.134 192.454 530.551 Q195.533 525.945 201.343 525.945 Z" fill="#000000" fill-rule="nonzero" fill-opacity="1" /><path clip-path="url(#clip590)" d="M232.084 541.986 Q228.935 541.986 227.084 544.139 Q225.255 546.292 225.255 550.042 Q225.255 553.768 227.084 555.944 Q228.935 558.097 232.084 558.097 Q235.232 558.097 237.06 555.944 Q238.912 553.768 238.912 550.042 Q238.912 546.292 237.06 544.139 Q235.232 541.986 232.084 541.986 M241.366 527.333 L241.366 531.593 Q239.607 530.759 237.801 530.32 Q236.019 529.88 234.26 529.88 Q229.63 529.88 227.176 533.005 Q224.746 536.13 224.398 542.449 Q225.764 540.435 227.824 539.37 Q229.885 538.282 232.361 538.282 Q237.57 538.282 240.579 541.454 Q243.611 544.602 243.611 550.042 Q243.611 555.366 240.463 558.583 Q237.315 561.801 232.084 561.801 Q226.088 561.801 222.917 557.218 Q219.746 552.611 219.746 543.884 Q219.746 535.69 223.635 530.829 Q227.523 525.945 234.074 525.945 Q235.834 525.945 237.616 526.292 Q239.422 526.639 241.366 527.333 Z" fill="#000000" fill-rule="nonzero" fill-opacity="1" /><path clip-path="url(#clip590)" d="M117.015 359.341 L124.654 359.341 L124.654 332.975 L116.343 334.642 L116.343 330.383 L124.607 328.716 L129.283 328.716 L129.283 359.341 L136.922 359.341 L136.922 363.276 L117.015 363.276 L117.015 359.341 Z" fill="#000000" fill-rule="nonzero" fill-opacity="1" /><path clip-path="url(#clip590)" d="M146.366 357.397 L151.251 357.397 L151.251 363.276 L146.366 363.276 L146.366 357.397 Z" fill="#000000" fill-rule="nonzero" fill-opacity="1" /><path clip-path="url(#clip590)" d="M171.436 331.795 Q167.825 331.795 165.996 335.36 Q164.19 338.901 164.19 346.031 Q164.19 353.137 165.996 356.702 Q167.825 360.244 171.436 360.244 Q175.07 360.244 176.876 356.702 Q178.704 353.137 178.704 346.031 Q178.704 338.901 176.876 335.36 Q175.07 331.795 171.436 331.795 M171.436 328.091 Q177.246 328.091 180.301 332.698 Q183.38 337.281 183.38 346.031 Q183.38 354.758 180.301 359.364 Q177.246 363.948 171.436 363.948 Q165.626 363.948 162.547 359.364 Q159.491 354.758 159.491 346.031 Q159.491 337.281 162.547 332.698 Q165.626 328.091 171.436 328.091 Z" fill="#000000" fill-rule="nonzero" fill-opacity="1" /><path clip-path="url(#clip590)" d="M201.598 331.795 Q197.987 331.795 196.158 335.36 Q194.352 338.901 194.352 346.031 Q194.352 353.137 196.158 356.702 Q197.987 360.244 201.598 360.244 Q205.232 360.244 207.037 356.702 Q208.866 353.137 208.866 346.031 Q208.866 338.901 207.037 335.36 Q205.232 331.795 201.598 331.795 M201.598 328.091 Q207.408 328.091 210.463 332.698 Q213.542 337.281 213.542 346.031 Q213.542 354.758 210.463 359.364 Q207.408 363.948 201.598 363.948 Q195.787 363.948 192.709 359.364 Q189.653 354.758 189.653 346.031 Q189.653 337.281 192.709 332.698 Q195.787 328.091 201.598 328.091 Z" fill="#000000" fill-rule="nonzero" fill-opacity="1" /><path clip-path="url(#clip590)" d="M231.76 346.864 Q228.426 346.864 226.505 348.647 Q224.607 350.429 224.607 353.554 Q224.607 356.679 226.505 358.461 Q228.426 360.244 231.76 360.244 Q235.093 360.244 237.014 358.461 Q238.935 356.656 238.935 353.554 Q238.935 350.429 237.014 348.647 Q235.116 346.864 231.76 346.864 M227.084 344.874 Q224.074 344.133 222.385 342.073 Q220.718 340.012 220.718 337.05 Q220.718 332.906 223.658 330.499 Q226.621 328.091 231.76 328.091 Q236.922 328.091 239.861 330.499 Q242.801 332.906 242.801 337.05 Q242.801 340.012 241.111 342.073 Q239.445 344.133 236.459 344.874 Q239.838 345.661 241.713 347.952 Q243.611 350.244 243.611 353.554 Q243.611 358.577 240.533 361.262 Q237.477 363.948 231.76 363.948 Q226.042 363.948 222.963 361.262 Q219.908 358.577 219.908 353.554 Q219.908 350.244 221.806 347.952 Q223.704 345.661 227.084 344.874 M225.371 337.489 Q225.371 340.175 227.037 341.679 Q228.727 343.184 231.76 343.184 Q234.769 343.184 236.459 341.679 Q238.172 340.175 238.172 337.489 Q238.172 334.804 236.459 333.3 Q234.769 331.795 231.76 331.795 Q228.727 331.795 227.037 333.3 Q225.371 334.804 225.371 337.489 Z" fill="#000000" fill-rule="nonzero" fill-opacity="1" /><path clip-path="url(#clip590)" d="M116.922 161.488 L124.561 161.488 L124.561 135.122 L116.251 136.789 L116.251 132.53 L124.515 130.863 L129.191 130.863 L129.191 161.488 L136.829 161.488 L136.829 165.423 L116.922 165.423 L116.922 161.488 Z" fill="#000000" fill-rule="nonzero" fill-opacity="1" /><path clip-path="url(#clip590)" d="M146.274 159.543 L151.158 159.543 L151.158 165.423 L146.274 165.423 L146.274 159.543 Z" fill="#000000" fill-rule="nonzero" fill-opacity="1" /><path clip-path="url(#clip590)" d="M171.343 133.942 Q167.732 133.942 165.903 137.506 Q164.098 141.048 164.098 148.178 Q164.098 155.284 165.903 158.849 Q167.732 162.391 171.343 162.391 Q174.977 162.391 176.783 158.849 Q178.612 155.284 178.612 148.178 Q178.612 141.048 176.783 137.506 Q174.977 133.942 171.343 133.942 M171.343 130.238 Q177.153 130.238 180.209 134.844 Q183.288 139.428 183.288 148.178 Q183.288 156.904 180.209 161.511 Q177.153 166.094 171.343 166.094 Q165.533 166.094 162.454 161.511 Q159.399 156.904 159.399 148.178 Q159.399 139.428 162.454 134.844 Q165.533 130.238 171.343 130.238 Z" fill="#000000" fill-rule="nonzero" fill-opacity="1" /><path clip-path="url(#clip590)" d="M192.315 161.488 L199.954 161.488 L199.954 135.122 L191.644 136.789 L191.644 132.53 L199.908 130.863 L204.584 130.863 L204.584 161.488 L212.223 161.488 L212.223 165.423 L192.315 165.423 L192.315 161.488 Z" fill="#000000" fill-rule="nonzero" fill-opacity="1" /><path clip-path="url(#clip590)" d="M231.667 133.942 Q228.056 133.942 226.227 137.506 Q224.422 141.048 224.422 148.178 Q224.422 155.284 226.227 158.849 Q228.056 162.391 231.667 162.391 Q235.301 162.391 237.107 158.849 Q238.935 155.284 238.935 148.178 Q238.935 141.048 237.107 137.506 Q235.301 133.942 231.667 133.942 M231.667 130.238 Q237.477 130.238 240.533 134.844 Q243.611 139.428 243.611 148.178 Q243.611 156.904 240.533 161.511 Q237.477 166.094 231.667 166.094 Q225.857 166.094 222.778 161.511 Q219.723 156.904 219.723 148.178 Q219.723 139.428 222.778 134.844 Q225.857 130.238 231.667 130.238 Z" fill="#000000" fill-rule="nonzero" fill-opacity="1" /><path clip-path="url(#clip590)" d="M57.2247 896.821 L44.4614 896.821 L44.4614 907.325 L39.1779 907.325 L39.1779 890.456 L59.58 890.456 Q62.2218 894.18 63.5904 898.667 Q64.9272 903.155 64.9272 908.248 Q64.9272 919.388 58.4342 925.69 Q51.9093 931.96 40.2919 931.96 Q28.6427 931.96 22.1496 925.69 Q15.6248 919.388 15.6248 908.248 Q15.6248 903.601 16.7706 899.431 Q17.9164 895.23 20.1444 891.697 L26.9876 891.697 Q23.9639 895.262 22.4361 899.272 Q20.9083 903.283 20.9083 907.707 Q20.9083 916.428 25.7781 920.82 Q30.6479 925.181 40.2919 925.181 Q49.9041 925.181 54.7739 920.82 Q59.6436 916.428 59.6436 907.707 Q59.6436 904.301 59.0707 901.627 Q58.466 898.954 57.2247 896.821 Z" fill="#000000" fill-rule="nonzero" fill-opacity="1" /><path clip-path="url(#clip590)" d="M21.7677 872.282 L58.7206 872.282 L58.7206 864.515 Q58.7206 854.68 54.2646 850.129 Q49.8086 845.546 40.1964 845.546 Q30.6479 845.546 26.2237 850.129 Q21.7677 854.68 21.7677 864.515 L21.7677 872.282 M16.4842 878.711 L16.4842 865.502 Q16.4842 851.688 22.2451 845.227 Q27.9743 838.766 40.1964 838.766 Q52.4822 838.766 58.2432 845.259 Q64.0042 851.752 64.0042 865.502 L64.0042 878.711 L16.4842 878.711 Z" fill="#000000" fill-rule="nonzero" fill-opacity="1" /><path clip-path="url(#clip590)" d="M21.7677 822.088 L39.6235 822.088 L39.6235 814.004 Q39.6235 809.516 37.3 807.065 Q34.9765 804.614 30.6797 804.614 Q26.4147 804.614 24.0912 807.065 Q21.7677 809.516 21.7677 814.004 L21.7677 822.088 M16.4842 828.517 L16.4842 814.004 Q16.4842 806.015 20.1126 801.94 Q23.7092 797.835 30.6797 797.835 Q37.7138 797.835 41.3104 801.94 Q44.907 806.015 44.907 814.004 L44.907 822.088 L64.0042 822.088 L64.0042 828.517 L16.4842 828.517 Z" fill="#000000" fill-rule="nonzero" fill-opacity="1" /><path clip-path="url(#clip590)" d="M29.7248 743.09 L35.1993 743.09 Q33.8307 745.572 33.1623 748.087 Q32.4621 750.569 32.4621 753.116 Q32.4621 758.813 36.0905 761.964 Q39.6872 765.115 46.212 765.115 Q52.7369 765.115 56.3653 761.964 Q59.9619 758.813 59.9619 753.116 Q59.9619 750.569 59.2935 748.087 Q58.5933 745.572 57.2247 743.09 L62.6355 743.09 Q63.7814 745.54 64.3543 748.182 Q64.9272 750.792 64.9272 753.752 Q64.9272 761.805 59.8664 766.547 Q54.8057 771.29 46.212 771.29 Q37.491 771.29 32.4939 766.515 Q27.4968 761.709 27.4968 753.37 Q27.4968 750.665 28.0697 748.087 Q28.6108 745.508 29.7248 743.09 Z" fill="#000000" fill-rule="nonzero" fill-opacity="1" /><path clip-path="url(#clip590)" d="M42.4881 703.272 L64.0042 703.272 L64.0042 709.128 L42.679 709.128 Q37.6183 709.128 35.1038 711.102 Q32.5894 713.075 32.5894 717.022 Q32.5894 721.764 35.6131 724.502 Q38.6368 727.239 43.8567 727.239 L64.0042 727.239 L64.0042 733.127 L14.479 733.127 L14.479 727.239 L33.8944 727.239 Q30.6797 725.138 29.0883 722.305 Q27.4968 719.441 27.4968 715.717 Q27.4968 709.574 31.3163 706.423 Q35.1038 703.272 42.4881 703.272 Z" fill="#000000" fill-rule="nonzero" fill-opacity="1" /><path clip-path="url(#clip590)" d="M46.0847 675.39 Q46.0847 682.488 47.7079 685.225 Q49.3312 687.963 53.2461 687.963 Q56.3653 687.963 58.2114 685.925 Q60.0256 683.857 60.0256 680.324 Q60.0256 675.454 56.5881 672.526 Q53.1188 669.566 47.3897 669.566 L46.0847 669.566 L46.0847 675.39 M43.6657 663.709 L64.0042 663.709 L64.0042 669.566 L58.5933 669.566 Q61.8398 671.571 63.3994 674.563 Q64.9272 677.555 64.9272 681.883 Q64.9272 687.358 61.8716 690.604 Q58.7843 693.819 53.6281 693.819 Q47.6125 693.819 44.5569 689.809 Q41.5014 685.766 41.5014 677.777 L41.5014 669.566 L40.9285 669.566 Q36.8862 669.566 34.6901 672.239 Q32.4621 674.881 32.4621 679.687 Q32.4621 682.743 33.1941 685.639 Q33.9262 688.535 35.3903 691.209 L29.9795 691.209 Q28.7381 687.994 28.1334 684.971 Q27.4968 681.947 27.4968 679.082 Q27.4968 671.348 31.5072 667.529 Q35.5176 663.709 43.6657 663.709 Z" fill="#000000" fill-rule="nonzero" fill-opacity="1" /><path clip-path="url(#clip590)" d="M42.4881 622.014 L64.0042 622.014 L64.0042 627.87 L42.679 627.87 Q37.6183 627.87 35.1038 629.844 Q32.5894 631.817 32.5894 635.764 Q32.5894 640.506 35.6131 643.243 Q38.6368 645.981 43.8567 645.981 L64.0042 645.981 L64.0042 651.869 L28.3562 651.869 L28.3562 645.981 L33.8944 645.981 Q30.6797 643.88 29.0883 641.047 Q27.4968 638.183 27.4968 634.459 Q27.4968 628.316 31.3163 625.165 Q35.1038 622.014 42.4881 622.014 Z" fill="#000000" fill-rule="nonzero" fill-opacity="1" /><path clip-path="url(#clip590)" d="M45.7664 586.875 Q39.4007 586.875 35.8996 589.517 Q32.3984 592.127 32.3984 596.869 Q32.3984 601.58 35.8996 604.222 Q39.4007 606.832 45.7664 606.832 Q52.1003 606.832 55.6014 604.222 Q59.1026 601.58 59.1026 596.869 Q59.1026 592.127 55.6014 589.517 Q52.1003 586.875 45.7664 586.875 M59.58 581.019 Q68.683 581.019 73.1071 585.061 Q77.5631 589.103 77.5631 597.442 Q77.5631 600.53 77.0857 603.267 Q76.6401 606.004 75.6852 608.582 L69.9879 608.582 Q71.3884 606.004 72.0568 603.49 Q72.7252 600.975 72.7252 598.365 Q72.7252 592.604 69.7015 589.74 Q66.7096 586.875 60.6303 586.875 L57.7339 586.875 Q60.885 588.689 62.4446 591.522 Q64.0042 594.355 64.0042 598.302 Q64.0042 604.858 59.0071 608.869 Q54.01 612.879 45.7664 612.879 Q37.491 612.879 32.4939 608.869 Q27.4968 604.858 27.4968 598.302 Q27.4968 594.355 29.0564 591.522 Q30.616 588.689 33.7671 586.875 L28.3562 586.875 L28.3562 581.019 L59.58 581.019 Z" fill="#000000" fill-rule="nonzero" fill-opacity="1" /><path clip-path="url(#clip590)" d="M44.7161 538.464 L47.5806 538.464 L47.5806 565.391 Q53.6281 565.009 56.8109 561.762 Q59.9619 558.484 59.9619 552.659 Q59.9619 549.286 59.1344 546.135 Q58.3069 542.952 56.6518 539.833 L62.1899 539.833 Q63.5267 542.984 64.227 546.294 Q64.9272 549.604 64.9272 553.01 Q64.9272 561.54 59.9619 566.537 Q54.9967 571.502 46.5303 571.502 Q37.7774 571.502 32.6531 566.791 Q27.4968 562.049 27.4968 554.028 Q27.4968 546.835 32.1438 542.665 Q36.7589 538.464 44.7161 538.464 M42.9973 544.32 Q38.1912 544.384 35.3266 547.026 Q32.4621 549.636 32.4621 553.964 Q32.4621 558.866 35.2312 561.826 Q38.0002 564.754 43.0292 565.2 L42.9973 544.32 Z" fill="#000000" fill-rule="nonzero" fill-opacity="1" /><path clip-path="url(#clip592)" d="M338.285 1137.41 L460.523 1382.61 L582.76 790.814 L704.997 572.806 L827.234 609.514 L949.472 933.083 L1071.71 817.771 L1193.95 976.728 L1316.18 1140.61 L1438.42 1215.07 L1560.66 1384.24 L1682.9 1116.81 L1805.13 988.693 L1927.37 1149.36 L2049.61 985.759 L2171.84 999.214 L2294.08 1022.65 L2294.08 86.1857 L2171.84 108.899 L2049.61 105.921 L1927.37 313.328 L1805.13 183.622 L1682.9 370.355 L1560.66 677.074 L1438.42 548.904 L1316.18 546.627 L1193.95 438.6 L1071.71 334.652 L949.472 499.452 L827.234 218.494 L704.997 183.792 L582.76 475.131 L460.523 1149.51 L338.285 1137.41  Z" fill="#009af9" fill-rule="evenodd" fill-opacity="0.2"/>
<polyline clip-path="url(#clip592)" style="stroke:#009af9; stroke-linecap:round; stroke-linejoin:round; stroke-width:4; stroke-opacity:1; fill:none" points="338.285,1137.41 460.523,1266.06 582.76,632.972 704.997,378.299 827.234,414.004 949.472,716.267 1071.71,576.212 1193.95,707.664 1316.18,843.618 1438.42,881.988 1560.66,1030.66 1682.9,743.582 1805.13,586.157 1927.37,731.346 2049.61,545.84 2171.84,554.056 2294.08,554.416 "/>
</svg>
