<?xml version="1.0" encoding="utf-8"?>
<svg xmlns="http://www.w3.org/2000/svg" xmlns:xlink="http://www.w3.org/1999/xlink" width="600" height="400" viewBox="0 0 2400 1600">
<defs>
  <clipPath id="clip210">
    <rect x="0" y="0" width="2400" height="1600"/>
  </clipPath>
</defs>
<path clip-path="url(#clip210)" d="M0 1600 L2400 1600 L2400 0 L0 0  Z" fill="#ffffff" fill-rule="evenodd" fill-opacity="1"/>
<defs>
  <clipPath id="clip211">
    <rect x="480" y="0" width="1681" height="1600"/>
  </clipPath>
</defs>
<path clip-path="url(#clip210)" d="M280.19 1423.18 L2352.76 1423.18 L2352.76 47.2441 L280.19 47.2441  Z" fill="#ffffff" fill-rule="evenodd" fill-opacity="1"/>
<defs>
  <clipPath id="clip212">
    <rect x="280" y="47" width="2074" height="1377"/>
  </clipPath>
</defs>
<polyline clip-path="url(#clip212)" style="stroke:#000000; stroke-linecap:round; stroke-linejoin:round; stroke-width:2; stroke-opacity:0.1; fill:none" points="583.254,1423.18 583.254,47.2441 "/>
<polyline clip-path="url(#clip212)" style="stroke:#000000; stroke-linecap:round; stroke-linejoin:round; stroke-width:2; stroke-opacity:0.1; fill:none" points="949.863,1423.18 949.863,47.2441 "/>
<polyline clip-path="url(#clip212)" style="stroke:#000000; stroke-linecap:round; stroke-linejoin:round; stroke-width:2; stroke-opacity:0.1; fill:none" points="1316.47,1423.18 1316.47,47.2441 "/>
<polyline clip-path="url(#clip212)" style="stroke:#000000; stroke-linecap:round; stroke-linejoin:round; stroke-width:2; stroke-opacity:0.1; fill:none" points="1683.08,1423.18 1683.08,47.2441 "/>
<polyline clip-path="url(#clip212)" style="stroke:#000000; stroke-linecap:round; stroke-linejoin:round; stroke-width:2; stroke-opacity:0.1; fill:none" points="2049.69,1423.18 2049.69,47.2441 "/>
<polyline clip-path="url(#clip212)" style="stroke:#000000; stroke-linecap:round; stroke-linejoin:round; stroke-width:2; stroke-opacity:0.1; fill:none" points="280.19,1292.06 2352.76,1292.06 "/>
<polyline clip-path="url(#clip212)" style="stroke:#000000; stroke-linecap:round; stroke-linejoin:round; stroke-width:2; stroke-opacity:0.1; fill:none" points="280.19,1128.8 2352.76,1128.8 "/>
<polyline clip-path="url(#clip212)" style="stroke:#000000; stroke-linecap:round; stroke-linejoin:round; stroke-width:2; stroke-opacity:0.1; fill:none" points="280.19,965.538 2352.76,965.538 "/>
<polyline clip-path="url(#clip212)" style="stroke:#000000; stroke-linecap:round; stroke-linejoin:round; stroke-width:2; stroke-opacity:0.1; fill:none" points="280.19,802.279 2352.76,802.279 "/>
<polyline clip-path="url(#clip212)" style="stroke:#000000; stroke-linecap:round; stroke-linejoin:round; stroke-width:2; stroke-opacity:0.1; fill:none" points="280.19,639.02 2352.76,639.02 "/>
<polyline clip-path="url(#clip212)" style="stroke:#000000; stroke-linecap:round; stroke-linejoin:round; stroke-width:2; stroke-opacity:0.1; fill:none" points="280.19,475.761 2352.76,475.761 "/>
<polyline clip-path="url(#clip212)" style="stroke:#000000; stroke-linecap:round; stroke-linejoin:round; stroke-width:2; stroke-opacity:0.1; fill:none" points="280.19,312.502 2352.76,312.502 "/>
<polyline clip-path="url(#clip212)" style="stroke:#000000; stroke-linecap:round; stroke-linejoin:round; stroke-width:2; stroke-opacity:0.1; fill:none" points="280.19,149.243 2352.76,149.243 "/>
<polyline clip-path="url(#clip210)" style="stroke:#000000; stroke-linecap:round; stroke-linejoin:round; stroke-width:4; stroke-opacity:1; fill:none" points="280.19,1423.18 2352.76,1423.18 "/>
<polyline clip-path="url(#clip210)" style="stroke:#000000; stroke-linecap:round; stroke-linejoin:round; stroke-width:4; stroke-opacity:1; fill:none" points="583.254,1423.18 583.254,1404.28 "/>
<polyline clip-path="url(#clip210)" style="stroke:#000000; stroke-linecap:round; stroke-linejoin:round; stroke-width:4; stroke-opacity:1; fill:none" points="949.863,1423.18 949.863,1404.28 "/>
<polyline clip-path="url(#clip210)" style="stroke:#000000; stroke-linecap:round; stroke-linejoin:round; stroke-width:4; stroke-opacity:1; fill:none" points="1316.47,1423.18 1316.47,1404.28 "/>
<polyline clip-path="url(#clip210)" style="stroke:#000000; stroke-linecap:round; stroke-linejoin:round; stroke-width:4; stroke-opacity:1; fill:none" points="1683.08,1423.18 1683.08,1404.28 "/>
<polyline clip-path="url(#clip210)" style="stroke:#000000; stroke-linecap:round; stroke-linejoin:round; stroke-width:4; stroke-opacity:1; fill:none" points="2049.69,1423.18 2049.69,1404.28 "/>
<path clip-path="url(#clip210)" d="M587.502 1466.95 Q590.858 1467.66 592.733 1469.93 Q594.631 1472.2 594.631 1475.53 Q594.631 1480.65 591.113 1483.45 Q587.594 1486.25 581.113 1486.25 Q578.937 1486.25 576.622 1485.81 Q574.33 1485.39 571.877 1484.54 L571.877 1480.02 Q573.821 1481.16 576.136 1481.74 Q578.451 1482.32 580.974 1482.32 Q585.372 1482.32 587.664 1480.58 Q589.978 1478.84 589.978 1475.53 Q589.978 1472.48 587.826 1470.77 Q585.696 1469.03 581.877 1469.03 L577.849 1469.03 L577.849 1465.19 L582.062 1465.19 Q585.511 1465.19 587.34 1463.82 Q589.168 1462.43 589.168 1459.84 Q589.168 1457.18 587.27 1455.77 Q585.395 1454.33 581.877 1454.33 Q579.955 1454.33 577.756 1454.75 Q575.557 1455.16 572.918 1456.04 L572.918 1451.88 Q575.58 1451.14 577.895 1450.77 Q580.233 1450.39 582.293 1450.39 Q587.617 1450.39 590.719 1452.83 Q593.821 1455.23 593.821 1459.35 Q593.821 1462.22 592.177 1464.21 Q590.534 1466.18 587.502 1466.95 Z" fill="#000000" fill-rule="nonzero" fill-opacity="1" /><path clip-path="url(#clip210)" d="M950.269 1466.44 Q947.12 1466.44 945.269 1468.59 Q943.44 1470.74 943.44 1474.49 Q943.44 1478.22 945.269 1480.39 Q947.12 1482.55 950.269 1482.55 Q953.417 1482.55 955.245 1480.39 Q957.097 1478.22 957.097 1474.49 Q957.097 1470.74 955.245 1468.59 Q953.417 1466.44 950.269 1466.44 M959.551 1451.78 L959.551 1456.04 Q957.792 1455.21 955.986 1454.77 Q954.204 1454.33 952.444 1454.33 Q947.815 1454.33 945.361 1457.45 Q942.931 1460.58 942.583 1466.9 Q943.949 1464.89 946.009 1463.82 Q948.069 1462.73 950.546 1462.73 Q955.755 1462.73 958.764 1465.9 Q961.796 1469.05 961.796 1474.49 Q961.796 1479.82 958.648 1483.03 Q955.5 1486.25 950.269 1486.25 Q944.273 1486.25 941.102 1481.67 Q937.931 1477.06 937.931 1468.33 Q937.931 1460.14 941.819 1455.28 Q945.708 1450.39 952.259 1450.39 Q954.018 1450.39 955.801 1450.74 Q957.606 1451.09 959.551 1451.78 Z" fill="#000000" fill-rule="nonzero" fill-opacity="1" /><path clip-path="url(#clip210)" d="M1306.77 1484.86 L1306.77 1480.6 Q1308.53 1481.44 1310.34 1481.88 Q1312.14 1482.32 1313.88 1482.32 Q1318.51 1482.32 1320.94 1479.21 Q1323.39 1476.09 1323.74 1469.75 Q1322.4 1471.74 1320.34 1472.8 Q1318.28 1473.87 1315.78 1473.87 Q1310.59 1473.87 1307.56 1470.74 Q1304.55 1467.59 1304.55 1462.15 Q1304.55 1456.83 1307.7 1453.61 Q1310.85 1450.39 1316.08 1450.39 Q1322.07 1450.39 1325.22 1455 Q1328.39 1459.58 1328.39 1468.33 Q1328.39 1476.51 1324.51 1481.39 Q1320.64 1486.25 1314.09 1486.25 Q1312.33 1486.25 1310.52 1485.9 Q1308.72 1485.56 1306.77 1484.86 M1316.08 1470.21 Q1319.23 1470.21 1321.06 1468.06 Q1322.91 1465.9 1322.91 1462.15 Q1322.91 1458.43 1321.06 1456.27 Q1319.23 1454.1 1316.08 1454.1 Q1312.93 1454.1 1311.08 1456.27 Q1309.25 1458.43 1309.25 1462.15 Q1309.25 1465.9 1311.08 1468.06 Q1312.93 1470.21 1316.08 1470.21 Z" fill="#000000" fill-rule="nonzero" fill-opacity="1" /><path clip-path="url(#clip210)" d="M1658.57 1481.64 L1666.21 1481.64 L1666.21 1455.28 L1657.9 1456.95 L1657.9 1452.69 L1666.16 1451.02 L1670.84 1451.02 L1670.84 1481.64 L1678.48 1481.64 L1678.48 1485.58 L1658.57 1485.58 L1658.57 1481.64 Z" fill="#000000" fill-rule="nonzero" fill-opacity="1" /><path clip-path="url(#clip210)" d="M1691.95 1481.64 L1708.27 1481.64 L1708.27 1485.58 L1686.32 1485.58 L1686.32 1481.64 Q1688.99 1478.89 1693.57 1474.26 Q1698.18 1469.61 1699.36 1468.27 Q1701.6 1465.74 1702.48 1464.01 Q1703.38 1462.25 1703.38 1460.56 Q1703.38 1457.8 1701.44 1456.07 Q1699.52 1454.33 1696.42 1454.33 Q1694.22 1454.33 1691.76 1455.09 Q1689.33 1455.86 1686.55 1457.41 L1686.55 1452.69 Q1689.38 1451.55 1691.83 1450.97 Q1694.29 1450.39 1696.32 1450.39 Q1701.69 1450.39 1704.89 1453.08 Q1708.08 1455.77 1708.08 1460.26 Q1708.08 1462.39 1707.27 1464.31 Q1706.49 1466.2 1704.38 1468.8 Q1703.8 1469.47 1700.7 1472.69 Q1697.6 1475.88 1691.95 1481.64 Z" fill="#000000" fill-rule="nonzero" fill-opacity="1" /><path clip-path="url(#clip210)" d="M2024.88 1481.64 L2032.52 1481.64 L2032.52 1455.28 L2024.21 1456.95 L2024.21 1452.69 L2032.47 1451.02 L2037.15 1451.02 L2037.15 1481.64 L2044.78 1481.64 L2044.78 1485.58 L2024.88 1485.58 L2024.88 1481.64 Z" fill="#000000" fill-rule="nonzero" fill-opacity="1" /><path clip-path="url(#clip210)" d="M2054.28 1451.02 L2072.63 1451.02 L2072.63 1454.96 L2058.56 1454.96 L2058.56 1463.43 Q2059.58 1463.08 2060.59 1462.92 Q2061.61 1462.73 2062.63 1462.73 Q2068.42 1462.73 2071.8 1465.9 Q2075.18 1469.08 2075.18 1474.49 Q2075.18 1480.07 2071.71 1483.17 Q2068.23 1486.25 2061.91 1486.25 Q2059.74 1486.25 2057.47 1485.88 Q2055.22 1485.51 2052.82 1484.77 L2052.82 1480.07 Q2054.9 1481.2 2057.12 1481.76 Q2059.34 1482.32 2061.82 1482.32 Q2065.83 1482.32 2068.16 1480.21 Q2070.5 1478.1 2070.5 1474.49 Q2070.5 1470.88 2068.16 1468.77 Q2065.83 1466.67 2061.82 1466.67 Q2059.95 1466.67 2058.07 1467.08 Q2056.22 1467.5 2054.28 1468.38 L2054.28 1451.02 Z" fill="#000000" fill-rule="nonzero" fill-opacity="1" /><path clip-path="url(#clip210)" d="M1187.98 1550.25 Q1187.98 1556.71 1190.62 1560.4 Q1193.3 1564.07 1197.94 1564.07 Q1202.59 1564.07 1205.26 1560.4 Q1207.94 1556.71 1207.94 1550.25 Q1207.94 1543.79 1205.26 1540.13 Q1202.59 1536.44 1197.94 1536.44 Q1193.3 1536.44 1190.62 1540.13 Q1187.98 1543.79 1187.98 1550.25 M1207.94 1562.7 Q1206.09 1565.88 1203.26 1567.44 Q1200.46 1568.97 1196.51 1568.97 Q1190.05 1568.97 1185.98 1563.81 Q1181.93 1558.65 1181.93 1550.25 Q1181.93 1541.85 1185.98 1536.69 Q1190.05 1531.54 1196.51 1531.54 Q1200.46 1531.54 1203.26 1533.1 Q1206.09 1534.62 1207.94 1537.81 L1207.94 1532.4 L1213.79 1532.4 L1213.79 1581.6 L1207.94 1581.6 L1207.94 1562.7 Z" fill="#000000" fill-rule="nonzero" fill-opacity="1" /><path clip-path="url(#clip210)" d="M1225.25 1553.98 L1225.25 1532.4 L1231.11 1532.4 L1231.11 1553.75 Q1231.11 1558.81 1233.08 1561.36 Q1235.06 1563.87 1239 1563.87 Q1243.74 1563.87 1246.48 1560.85 Q1249.25 1557.83 1249.25 1552.61 L1249.25 1532.4 L1255.11 1532.4 L1255.11 1568.04 L1249.25 1568.04 L1249.25 1562.57 Q1247.12 1565.82 1244.29 1567.41 Q1241.48 1568.97 1237.76 1568.97 Q1231.62 1568.97 1228.44 1565.15 Q1225.25 1561.33 1225.25 1553.98 M1239.99 1531.54 L1239.99 1531.54 Z" fill="#000000" fill-rule="nonzero" fill-opacity="1" /><path clip-path="url(#clip210)" d="M1283.37 1550.12 Q1276.27 1550.12 1273.54 1551.75 Q1270.8 1553.37 1270.8 1557.29 Q1270.8 1560.4 1272.84 1562.25 Q1274.9 1564.07 1278.44 1564.07 Q1283.31 1564.07 1286.24 1560.63 Q1289.2 1557.16 1289.2 1551.43 L1289.2 1550.12 L1283.37 1550.12 M1295.05 1547.71 L1295.05 1568.04 L1289.2 1568.04 L1289.2 1562.63 Q1287.19 1565.88 1284.2 1567.44 Q1281.21 1568.97 1276.88 1568.97 Q1271.4 1568.97 1268.16 1565.91 Q1264.94 1562.82 1264.94 1557.67 Q1264.94 1551.65 1268.95 1548.6 Q1273 1545.54 1280.98 1545.54 L1289.2 1545.54 L1289.2 1544.97 Q1289.2 1540.93 1286.52 1538.73 Q1283.88 1536.5 1279.07 1536.5 Q1276.02 1536.5 1273.12 1537.23 Q1270.23 1537.97 1267.55 1539.43 L1267.55 1534.02 Q1270.77 1532.78 1273.79 1532.17 Q1276.81 1531.54 1279.68 1531.54 Q1287.41 1531.54 1291.23 1535.55 Q1295.05 1539.56 1295.05 1547.71 Z" fill="#000000" fill-rule="nonzero" fill-opacity="1" /><path clip-path="url(#clip210)" d="M1327.77 1537.87 Q1326.79 1537.3 1325.61 1537.04 Q1324.46 1536.76 1323.06 1536.76 Q1318.1 1536.76 1315.42 1540 Q1312.78 1543.22 1312.78 1549.27 L1312.78 1568.04 L1306.89 1568.04 L1306.89 1532.4 L1312.78 1532.4 L1312.78 1537.93 Q1314.63 1534.69 1317.59 1533.13 Q1320.55 1531.54 1324.78 1531.54 Q1325.38 1531.54 1326.12 1531.63 Q1326.85 1531.7 1327.74 1531.85 L1327.77 1537.87 Z" fill="#000000" fill-rule="nonzero" fill-opacity="1" /><path clip-path="url(#clip210)" d="M1339.71 1522.27 L1339.71 1532.4 L1351.77 1532.4 L1351.77 1536.95 L1339.71 1536.95 L1339.71 1556.3 Q1339.71 1560.66 1340.89 1561.9 Q1342.09 1563.14 1345.76 1563.14 L1351.77 1563.14 L1351.77 1568.04 L1345.76 1568.04 Q1338.98 1568.04 1336.4 1565.53 Q1333.82 1562.98 1333.82 1556.3 L1333.82 1536.95 L1329.52 1536.95 L1329.52 1532.4 L1333.82 1532.4 L1333.82 1522.27 L1339.71 1522.27 Z" fill="#000000" fill-rule="nonzero" fill-opacity="1" /><path clip-path="url(#clip210)" d="M1389.97 1548.76 L1389.97 1551.62 L1363.04 1551.62 Q1363.42 1557.67 1366.67 1560.85 Q1369.94 1564 1375.77 1564 Q1379.14 1564 1382.29 1563.17 Q1385.48 1562.35 1388.6 1560.69 L1388.6 1566.23 Q1385.45 1567.57 1382.14 1568.27 Q1378.83 1568.97 1375.42 1568.97 Q1366.89 1568.97 1361.89 1564 Q1356.93 1559.04 1356.93 1550.57 Q1356.93 1541.82 1361.64 1536.69 Q1366.38 1531.54 1374.4 1531.54 Q1381.59 1531.54 1385.76 1536.18 Q1389.97 1540.8 1389.97 1548.76 M1384.11 1547.04 Q1384.04 1542.23 1381.4 1539.37 Q1378.79 1536.5 1374.46 1536.5 Q1369.56 1536.5 1366.6 1539.27 Q1363.67 1542.04 1363.23 1547.07 L1384.11 1547.04 Z" fill="#000000" fill-rule="nonzero" fill-opacity="1" /><path clip-path="url(#clip210)" d="M1420.23 1537.87 Q1419.25 1537.3 1418.07 1537.04 Q1416.92 1536.76 1415.52 1536.76 Q1410.56 1536.76 1407.88 1540 Q1405.24 1543.22 1405.24 1549.27 L1405.24 1568.04 L1399.35 1568.04 L1399.35 1532.4 L1405.24 1532.4 L1405.24 1537.93 Q1407.09 1534.69 1410.05 1533.13 Q1413.01 1531.54 1417.24 1531.54 Q1417.85 1531.54 1418.58 1531.63 Q1419.31 1531.7 1420.2 1531.85 L1420.23 1537.87 Z" fill="#000000" fill-rule="nonzero" fill-opacity="1" /><path clip-path="url(#clip210)" d="M1449.1 1533.45 L1449.1 1538.98 Q1446.62 1537.71 1443.95 1537.07 Q1441.27 1536.44 1438.41 1536.44 Q1434.05 1536.44 1431.85 1537.77 Q1429.69 1539.11 1429.69 1541.79 Q1429.69 1543.82 1431.25 1545 Q1432.81 1546.15 1437.52 1547.2 L1439.52 1547.64 Q1445.76 1548.98 1448.37 1551.43 Q1451.01 1553.85 1451.01 1558.21 Q1451.01 1563.17 1447.07 1566.07 Q1443.15 1568.97 1436.28 1568.97 Q1433.41 1568.97 1430.29 1568.39 Q1427.2 1567.85 1423.77 1566.74 L1423.77 1560.69 Q1427.01 1562.38 1430.16 1563.24 Q1433.32 1564.07 1436.4 1564.07 Q1440.54 1564.07 1442.77 1562.66 Q1445 1561.23 1445 1558.65 Q1445 1556.27 1443.37 1554.99 Q1441.78 1553.72 1436.34 1552.54 L1434.3 1552.07 Q1428.86 1550.92 1426.44 1548.56 Q1424.02 1546.18 1424.02 1542.04 Q1424.02 1537.01 1427.59 1534.27 Q1431.15 1531.54 1437.71 1531.54 Q1440.95 1531.54 1443.82 1532.01 Q1446.68 1532.49 1449.1 1533.45 Z" fill="#000000" fill-rule="nonzero" fill-opacity="1" /><polyline clip-path="url(#clip210)" style="stroke:#000000; stroke-linecap:round; stroke-linejoin:round; stroke-width:4; stroke-opacity:1; fill:none" points="280.19,1423.18 280.19,47.2441 "/>
<polyline clip-path="url(#clip210)" style="stroke:#000000; stroke-linecap:round; stroke-linejoin:round; stroke-width:4; stroke-opacity:1; fill:none" points="280.19,1292.06 299.088,1292.06 "/>
<polyline clip-path="url(#clip210)" style="stroke:#000000; stroke-linecap:round; stroke-linejoin:round; stroke-width:4; stroke-opacity:1; fill:none" points="280.19,1128.8 299.088,1128.8 "/>
<polyline clip-path="url(#clip210)" style="stroke:#000000; stroke-linecap:round; stroke-linejoin:round; stroke-width:4; stroke-opacity:1; fill:none" points="280.19,965.538 299.088,965.538 "/>
<polyline clip-path="url(#clip210)" style="stroke:#000000; stroke-linecap:round; stroke-linejoin:round; stroke-width:4; stroke-opacity:1; fill:none" points="280.19,802.279 299.088,802.279 "/>
<polyline clip-path="url(#clip210)" style="stroke:#000000; stroke-linecap:round; stroke-linejoin:round; stroke-width:4; stroke-opacity:1; fill:none" points="280.19,639.02 299.088,639.02 "/>
<polyline clip-path="url(#clip210)" style="stroke:#000000; stroke-linecap:round; stroke-linejoin:round; stroke-width:4; stroke-opacity:1; fill:none" points="280.19,475.761 299.088,475.761 "/>
<polyline clip-path="url(#clip210)" style="stroke:#000000; stroke-linecap:round; stroke-linejoin:round; stroke-width:4; stroke-opacity:1; fill:none" points="280.19,312.502 299.088,312.502 "/>
<polyline clip-path="url(#clip210)" style="stroke:#000000; stroke-linecap:round; stroke-linejoin:round; stroke-width:4; stroke-opacity:1; fill:none" points="280.19,149.243 299.088,149.243 "/>
<path clip-path="url(#clip210)" d="M126.205 1277.85 Q122.593 1277.85 120.765 1281.42 Q118.959 1284.96 118.959 1292.09 Q118.959 1299.2 120.765 1302.76 Q122.593 1306.3 126.205 1306.3 Q129.839 1306.3 131.644 1302.76 Q133.473 1299.2 133.473 1292.09 Q133.473 1284.96 131.644 1281.42 Q129.839 1277.85 126.205 1277.85 M126.205 1274.15 Q132.015 1274.15 135.07 1278.76 Q138.149 1283.34 138.149 1292.09 Q138.149 1300.82 135.07 1305.42 Q132.015 1310.01 126.205 1310.01 Q120.394 1310.01 117.316 1305.42 Q114.26 1300.82 114.26 1292.09 Q114.26 1283.34 117.316 1278.76 Q120.394 1274.15 126.205 1274.15 Z" fill="#000000" fill-rule="nonzero" fill-opacity="1" /><path clip-path="url(#clip210)" d="M146.366 1303.46 L151.251 1303.46 L151.251 1309.34 L146.366 1309.34 L146.366 1303.46 Z" fill="#000000" fill-rule="nonzero" fill-opacity="1" /><path clip-path="url(#clip210)" d="M161.575 1308.62 L161.575 1304.36 Q163.334 1305.19 165.14 1305.63 Q166.945 1306.07 168.681 1306.07 Q173.311 1306.07 175.741 1302.97 Q178.195 1299.84 178.542 1293.5 Q177.2 1295.49 175.139 1296.56 Q173.079 1297.62 170.579 1297.62 Q165.394 1297.62 162.362 1294.5 Q159.353 1291.35 159.353 1285.91 Q159.353 1280.59 162.501 1277.37 Q165.649 1274.15 170.88 1274.15 Q176.876 1274.15 180.024 1278.76 Q183.195 1283.34 183.195 1292.09 Q183.195 1300.26 179.306 1305.15 Q175.44 1310.01 168.889 1310.01 Q167.13 1310.01 165.325 1309.66 Q163.519 1309.31 161.575 1308.62 M170.88 1293.97 Q174.028 1293.97 175.857 1291.81 Q177.709 1289.66 177.709 1285.91 Q177.709 1282.18 175.857 1280.03 Q174.028 1277.85 170.88 1277.85 Q167.732 1277.85 165.88 1280.03 Q164.052 1282.18 164.052 1285.91 Q164.052 1289.66 165.88 1291.81 Q167.732 1293.97 170.88 1293.97 Z" fill="#000000" fill-rule="nonzero" fill-opacity="1" /><path clip-path="url(#clip210)" d="M191.737 1308.62 L191.737 1304.36 Q193.496 1305.19 195.301 1305.63 Q197.107 1306.07 198.843 1306.07 Q203.473 1306.07 205.903 1302.97 Q208.357 1299.84 208.704 1293.5 Q207.362 1295.49 205.301 1296.56 Q203.241 1297.62 200.741 1297.62 Q195.556 1297.62 192.524 1294.5 Q189.514 1291.35 189.514 1285.91 Q189.514 1280.59 192.663 1277.37 Q195.811 1274.15 201.042 1274.15 Q207.037 1274.15 210.186 1278.76 Q213.357 1283.34 213.357 1292.09 Q213.357 1300.26 209.468 1305.15 Q205.602 1310.01 199.051 1310.01 Q197.292 1310.01 195.487 1309.66 Q193.681 1309.31 191.737 1308.62 M201.042 1293.97 Q204.19 1293.97 206.019 1291.81 Q207.871 1289.66 207.871 1285.91 Q207.871 1282.18 206.019 1280.03 Q204.19 1277.85 201.042 1277.85 Q197.894 1277.85 196.042 1280.03 Q194.213 1282.18 194.213 1285.91 Q194.213 1289.66 196.042 1291.81 Q197.894 1293.97 201.042 1293.97 Z" fill="#000000" fill-rule="nonzero" fill-opacity="1" /><path clip-path="url(#clip210)" d="M234.607 1278.85 L222.801 1297.3 L234.607 1297.3 L234.607 1278.85 M233.38 1274.78 L239.259 1274.78 L239.259 1297.3 L244.19 1297.3 L244.19 1301.19 L239.259 1301.19 L239.259 1309.34 L234.607 1309.34 L234.607 1301.19 L219.005 1301.19 L219.005 1296.67 L233.38 1274.78 Z" fill="#000000" fill-rule="nonzero" fill-opacity="1" /><path clip-path="url(#clip210)" d="M126.529 1114.6 Q122.918 1114.6 121.089 1118.16 Q119.283 1121.7 119.283 1128.83 Q119.283 1135.94 121.089 1139.5 Q122.918 1143.04 126.529 1143.04 Q130.163 1143.04 131.968 1139.5 Q133.797 1135.94 133.797 1128.83 Q133.797 1121.7 131.968 1118.16 Q130.163 1114.6 126.529 1114.6 M126.529 1110.89 Q132.339 1110.89 135.394 1115.5 Q138.473 1120.08 138.473 1128.83 Q138.473 1137.56 135.394 1142.16 Q132.339 1146.75 126.529 1146.75 Q120.718 1146.75 117.64 1142.16 Q114.584 1137.56 114.584 1128.83 Q114.584 1120.08 117.64 1115.5 Q120.718 1110.89 126.529 1110.89 Z" fill="#000000" fill-rule="nonzero" fill-opacity="1" /><path clip-path="url(#clip210)" d="M146.691 1140.2 L151.575 1140.2 L151.575 1146.08 L146.691 1146.08 L146.691 1140.2 Z" fill="#000000" fill-rule="nonzero" fill-opacity="1" /><path clip-path="url(#clip210)" d="M161.899 1145.36 L161.899 1141.1 Q163.658 1141.93 165.464 1142.37 Q167.269 1142.81 169.005 1142.81 Q173.635 1142.81 176.065 1139.71 Q178.519 1136.59 178.866 1130.24 Q177.524 1132.23 175.464 1133.3 Q173.403 1134.36 170.903 1134.36 Q165.718 1134.36 162.686 1131.24 Q159.677 1128.09 159.677 1122.65 Q159.677 1117.33 162.825 1114.11 Q165.973 1110.89 171.204 1110.89 Q177.2 1110.89 180.348 1115.5 Q183.519 1120.08 183.519 1128.83 Q183.519 1137 179.63 1141.89 Q175.764 1146.75 169.214 1146.75 Q167.454 1146.75 165.649 1146.4 Q163.843 1146.05 161.899 1145.36 M171.204 1130.71 Q174.352 1130.71 176.181 1128.55 Q178.033 1126.4 178.033 1122.65 Q178.033 1118.92 176.181 1116.77 Q174.352 1114.6 171.204 1114.6 Q168.056 1114.6 166.204 1116.77 Q164.376 1118.92 164.376 1122.65 Q164.376 1126.4 166.204 1128.55 Q168.056 1130.71 171.204 1130.71 Z" fill="#000000" fill-rule="nonzero" fill-opacity="1" /><path clip-path="url(#clip210)" d="M192.061 1145.36 L192.061 1141.1 Q193.82 1141.93 195.625 1142.37 Q197.431 1142.81 199.167 1142.81 Q203.797 1142.81 206.227 1139.71 Q208.681 1136.59 209.028 1130.24 Q207.686 1132.23 205.625 1133.3 Q203.565 1134.36 201.065 1134.36 Q195.88 1134.36 192.848 1131.24 Q189.838 1128.09 189.838 1122.65 Q189.838 1117.33 192.987 1114.11 Q196.135 1110.89 201.366 1110.89 Q207.362 1110.89 210.51 1115.5 Q213.681 1120.08 213.681 1128.83 Q213.681 1137 209.792 1141.89 Q205.926 1146.75 199.375 1146.75 Q197.616 1146.75 195.811 1146.4 Q194.005 1146.05 192.061 1145.36 M201.366 1130.71 Q204.514 1130.71 206.343 1128.55 Q208.195 1126.4 208.195 1122.65 Q208.195 1118.92 206.343 1116.77 Q204.514 1114.6 201.366 1114.6 Q198.218 1114.6 196.366 1116.77 Q194.538 1118.92 194.538 1122.65 Q194.538 1126.4 196.366 1128.55 Q198.218 1130.71 201.366 1130.71 Z" fill="#000000" fill-rule="nonzero" fill-opacity="1" /><path clip-path="url(#clip210)" d="M232.662 1126.93 Q229.514 1126.93 227.662 1129.09 Q225.834 1131.24 225.834 1134.99 Q225.834 1138.72 227.662 1140.89 Q229.514 1143.04 232.662 1143.04 Q235.81 1143.04 237.639 1140.89 Q239.491 1138.72 239.491 1134.99 Q239.491 1131.24 237.639 1129.09 Q235.81 1126.93 232.662 1126.93 M241.945 1112.28 L241.945 1116.54 Q240.185 1115.71 238.38 1115.27 Q236.597 1114.83 234.838 1114.83 Q230.209 1114.83 227.755 1117.95 Q225.324 1121.08 224.977 1127.4 Q226.343 1125.38 228.403 1124.32 Q230.463 1123.23 232.94 1123.23 Q238.148 1123.23 241.158 1126.4 Q244.19 1129.55 244.19 1134.99 Q244.19 1140.31 241.042 1143.53 Q237.894 1146.75 232.662 1146.75 Q226.667 1146.75 223.496 1142.16 Q220.324 1137.56 220.324 1128.83 Q220.324 1120.64 224.213 1115.78 Q228.102 1110.89 234.653 1110.89 Q236.412 1110.89 238.195 1111.24 Q240 1111.59 241.945 1112.28 Z" fill="#000000" fill-rule="nonzero" fill-opacity="1" /><path clip-path="url(#clip210)" d="M126.783 951.336 Q123.172 951.336 121.343 954.901 Q119.538 958.443 119.538 965.572 Q119.538 972.679 121.343 976.244 Q123.172 979.785 126.783 979.785 Q130.417 979.785 132.223 976.244 Q134.052 972.679 134.052 965.572 Q134.052 958.443 132.223 954.901 Q130.417 951.336 126.783 951.336 M126.783 947.633 Q132.593 947.633 135.649 952.239 Q138.728 956.822 138.728 965.572 Q138.728 974.299 135.649 978.906 Q132.593 983.489 126.783 983.489 Q120.973 983.489 117.894 978.906 Q114.839 974.299 114.839 965.572 Q114.839 956.822 117.894 952.239 Q120.973 947.633 126.783 947.633 Z" fill="#000000" fill-rule="nonzero" fill-opacity="1" /><path clip-path="url(#clip210)" d="M146.945 976.938 L151.829 976.938 L151.829 982.818 L146.945 982.818 L146.945 976.938 Z" fill="#000000" fill-rule="nonzero" fill-opacity="1" /><path clip-path="url(#clip210)" d="M162.153 982.1 L162.153 977.841 Q163.913 978.674 165.718 979.114 Q167.524 979.554 169.26 979.554 Q173.889 979.554 176.32 976.452 Q178.774 973.327 179.121 966.984 Q177.778 968.975 175.718 970.04 Q173.658 971.105 171.158 971.105 Q165.973 971.105 162.94 967.98 Q159.931 964.832 159.931 959.392 Q159.931 954.068 163.079 950.85 Q166.227 947.633 171.459 947.633 Q177.454 947.633 180.602 952.239 Q183.774 956.822 183.774 965.572 Q183.774 973.744 179.885 978.628 Q176.019 983.489 169.468 983.489 Q167.709 983.489 165.903 983.142 Q164.098 982.794 162.153 982.1 M171.459 967.447 Q174.607 967.447 176.436 965.295 Q178.288 963.142 178.288 959.392 Q178.288 955.665 176.436 953.512 Q174.607 951.336 171.459 951.336 Q168.311 951.336 166.459 953.512 Q164.63 955.665 164.63 959.392 Q164.63 963.142 166.459 965.295 Q168.311 967.447 171.459 967.447 Z" fill="#000000" fill-rule="nonzero" fill-opacity="1" /><path clip-path="url(#clip210)" d="M192.315 982.1 L192.315 977.841 Q194.075 978.674 195.88 979.114 Q197.686 979.554 199.422 979.554 Q204.051 979.554 206.482 976.452 Q208.936 973.327 209.283 966.984 Q207.94 968.975 205.88 970.04 Q203.82 971.105 201.32 971.105 Q196.135 971.105 193.102 967.98 Q190.093 964.832 190.093 959.392 Q190.093 954.068 193.241 950.85 Q196.389 947.633 201.621 947.633 Q207.616 947.633 210.764 952.239 Q213.936 956.822 213.936 965.572 Q213.936 973.744 210.047 978.628 Q206.181 983.489 199.63 983.489 Q197.871 983.489 196.065 983.142 Q194.26 982.794 192.315 982.1 M201.621 967.447 Q204.769 967.447 206.598 965.295 Q208.449 963.142 208.449 959.392 Q208.449 955.665 206.598 953.512 Q204.769 951.336 201.621 951.336 Q198.473 951.336 196.621 953.512 Q194.792 955.665 194.792 959.392 Q194.792 963.142 196.621 965.295 Q198.473 967.447 201.621 967.447 Z" fill="#000000" fill-rule="nonzero" fill-opacity="1" /><path clip-path="url(#clip210)" d="M232.338 966.406 Q229.005 966.406 227.084 968.188 Q225.185 969.97 225.185 973.095 Q225.185 976.22 227.084 978.003 Q229.005 979.785 232.338 979.785 Q235.672 979.785 237.593 978.003 Q239.514 976.197 239.514 973.095 Q239.514 969.97 237.593 968.188 Q235.695 966.406 232.338 966.406 M227.662 964.415 Q224.653 963.674 222.963 961.614 Q221.297 959.554 221.297 956.591 Q221.297 952.447 224.236 950.04 Q227.199 947.633 232.338 947.633 Q237.5 947.633 240.44 950.04 Q243.38 952.447 243.38 956.591 Q243.38 959.554 241.69 961.614 Q240.023 963.674 237.037 964.415 Q240.417 965.202 242.292 967.494 Q244.19 969.785 244.19 973.095 Q244.19 978.119 241.111 980.804 Q238.056 983.489 232.338 983.489 Q226.621 983.489 223.542 980.804 Q220.486 978.119 220.486 973.095 Q220.486 969.785 222.385 967.494 Q224.283 965.202 227.662 964.415 M225.949 957.031 Q225.949 959.716 227.616 961.221 Q229.306 962.725 232.338 962.725 Q235.347 962.725 237.037 961.221 Q238.75 959.716 238.75 957.031 Q238.75 954.346 237.037 952.841 Q235.347 951.336 232.338 951.336 Q229.306 951.336 227.616 952.841 Q225.949 954.346 225.949 957.031 Z" fill="#000000" fill-rule="nonzero" fill-opacity="1" /><path clip-path="url(#clip210)" d="M117.501 815.624 L125.14 815.624 L125.14 789.258 L116.83 790.925 L116.83 786.665 L125.093 784.999 L129.769 784.999 L129.769 815.624 L137.408 815.624 L137.408 819.559 L117.501 819.559 L117.501 815.624 Z" fill="#000000" fill-rule="nonzero" fill-opacity="1" /><path clip-path="url(#clip210)" d="M146.853 813.679 L151.737 813.679 L151.737 819.559 L146.853 819.559 L146.853 813.679 Z" fill="#000000" fill-rule="nonzero" fill-opacity="1" /><path clip-path="url(#clip210)" d="M171.922 788.077 Q168.311 788.077 166.482 791.642 Q164.677 795.184 164.677 802.313 Q164.677 809.42 166.482 812.985 Q168.311 816.526 171.922 816.526 Q175.556 816.526 177.362 812.985 Q179.19 809.42 179.19 802.313 Q179.19 795.184 177.362 791.642 Q175.556 788.077 171.922 788.077 M171.922 784.374 Q177.732 784.374 180.788 788.98 Q183.866 793.563 183.866 802.313 Q183.866 811.04 180.788 815.647 Q177.732 820.23 171.922 820.23 Q166.112 820.23 163.033 815.647 Q159.978 811.04 159.978 802.313 Q159.978 793.563 163.033 788.98 Q166.112 784.374 171.922 784.374 Z" fill="#000000" fill-rule="nonzero" fill-opacity="1" /><path clip-path="url(#clip210)" d="M202.084 788.077 Q198.473 788.077 196.644 791.642 Q194.838 795.184 194.838 802.313 Q194.838 809.42 196.644 812.985 Q198.473 816.526 202.084 816.526 Q205.718 816.526 207.524 812.985 Q209.352 809.42 209.352 802.313 Q209.352 795.184 207.524 791.642 Q205.718 788.077 202.084 788.077 M202.084 784.374 Q207.894 784.374 210.949 788.98 Q214.028 793.563 214.028 802.313 Q214.028 811.04 210.949 815.647 Q207.894 820.23 202.084 820.23 Q196.274 820.23 193.195 815.647 Q190.139 811.04 190.139 802.313 Q190.139 793.563 193.195 788.98 Q196.274 784.374 202.084 784.374 Z" fill="#000000" fill-rule="nonzero" fill-opacity="1" /><path clip-path="url(#clip210)" d="M232.246 788.077 Q228.635 788.077 226.806 791.642 Q225 795.184 225 802.313 Q225 809.42 226.806 812.985 Q228.635 816.526 232.246 816.526 Q235.88 816.526 237.685 812.985 Q239.514 809.42 239.514 802.313 Q239.514 795.184 237.685 791.642 Q235.88 788.077 232.246 788.077 M232.246 784.374 Q238.056 784.374 241.111 788.98 Q244.19 793.563 244.19 802.313 Q244.19 811.04 241.111 815.647 Q238.056 820.23 232.246 820.23 Q226.435 820.23 223.357 815.647 Q220.301 811.04 220.301 802.313 Q220.301 793.563 223.357 788.98 Q226.435 784.374 232.246 784.374 Z" fill="#000000" fill-rule="nonzero" fill-opacity="1" /><path clip-path="url(#clip210)" d="M119.098 652.365 L126.737 652.365 L126.737 625.999 L118.427 627.666 L118.427 623.406 L126.691 621.74 L131.367 621.74 L131.367 652.365 L139.005 652.365 L139.005 656.3 L119.098 656.3 L119.098 652.365 Z" fill="#000000" fill-rule="nonzero" fill-opacity="1" /><path clip-path="url(#clip210)" d="M148.45 650.42 L153.334 650.42 L153.334 656.3 L148.45 656.3 L148.45 650.42 Z" fill="#000000" fill-rule="nonzero" fill-opacity="1" /><path clip-path="url(#clip210)" d="M173.519 624.818 Q169.908 624.818 168.079 628.383 Q166.274 631.925 166.274 639.054 Q166.274 646.161 168.079 649.726 Q169.908 653.267 173.519 653.267 Q177.153 653.267 178.959 649.726 Q180.788 646.161 180.788 639.054 Q180.788 631.925 178.959 628.383 Q177.153 624.818 173.519 624.818 M173.519 621.115 Q179.329 621.115 182.385 625.721 Q185.463 630.305 185.463 639.054 Q185.463 647.781 182.385 652.388 Q179.329 656.971 173.519 656.971 Q167.709 656.971 164.63 652.388 Q161.575 647.781 161.575 639.054 Q161.575 630.305 164.63 625.721 Q167.709 621.115 173.519 621.115 Z" fill="#000000" fill-rule="nonzero" fill-opacity="1" /><path clip-path="url(#clip210)" d="M203.681 624.818 Q200.07 624.818 198.241 628.383 Q196.436 631.925 196.436 639.054 Q196.436 646.161 198.241 649.726 Q200.07 653.267 203.681 653.267 Q207.315 653.267 209.121 649.726 Q210.949 646.161 210.949 639.054 Q210.949 631.925 209.121 628.383 Q207.315 624.818 203.681 624.818 M203.681 621.115 Q209.491 621.115 212.547 625.721 Q215.625 630.305 215.625 639.054 Q215.625 647.781 212.547 652.388 Q209.491 656.971 203.681 656.971 Q197.871 656.971 194.792 652.388 Q191.737 647.781 191.737 639.054 Q191.737 630.305 194.792 625.721 Q197.871 621.115 203.681 621.115 Z" fill="#000000" fill-rule="nonzero" fill-opacity="1" /><path clip-path="url(#clip210)" d="M227.871 652.365 L244.19 652.365 L244.19 656.3 L222.246 656.3 L222.246 652.365 Q224.908 649.61 229.491 644.98 Q234.097 640.328 235.278 638.985 Q237.523 636.462 238.403 634.726 Q239.306 632.967 239.306 631.277 Q239.306 628.522 237.361 626.786 Q235.44 625.05 232.338 625.05 Q230.139 625.05 227.685 625.814 Q225.255 626.578 222.477 628.129 L222.477 623.406 Q225.301 622.272 227.755 621.693 Q230.209 621.115 232.246 621.115 Q237.616 621.115 240.81 623.8 Q244.005 626.485 244.005 630.976 Q244.005 633.105 243.195 635.027 Q242.408 636.925 240.301 639.517 Q239.722 640.189 236.621 643.406 Q233.519 646.601 227.871 652.365 Z" fill="#000000" fill-rule="nonzero" fill-opacity="1" /><path clip-path="url(#clip210)" d="M117.015 489.106 L124.654 489.106 L124.654 462.74 L116.343 464.407 L116.343 460.147 L124.607 458.481 L129.283 458.481 L129.283 489.106 L136.922 489.106 L136.922 493.041 L117.015 493.041 L117.015 489.106 Z" fill="#000000" fill-rule="nonzero" fill-opacity="1" /><path clip-path="url(#clip210)" d="M146.366 487.161 L151.251 487.161 L151.251 493.041 L146.366 493.041 L146.366 487.161 Z" fill="#000000" fill-rule="nonzero" fill-opacity="1" /><path clip-path="url(#clip210)" d="M171.436 461.559 Q167.825 461.559 165.996 465.124 Q164.19 468.666 164.19 475.796 Q164.19 482.902 165.996 486.467 Q167.825 490.008 171.436 490.008 Q175.07 490.008 176.876 486.467 Q178.704 482.902 178.704 475.796 Q178.704 468.666 176.876 465.124 Q175.07 461.559 171.436 461.559 M171.436 457.856 Q177.246 457.856 180.301 462.462 Q183.38 467.046 183.38 475.796 Q183.38 484.522 180.301 489.129 Q177.246 493.712 171.436 493.712 Q165.626 493.712 162.547 489.129 Q159.491 484.522 159.491 475.796 Q159.491 467.046 162.547 462.462 Q165.626 457.856 171.436 457.856 Z" fill="#000000" fill-rule="nonzero" fill-opacity="1" /><path clip-path="url(#clip210)" d="M201.598 461.559 Q197.987 461.559 196.158 465.124 Q194.352 468.666 194.352 475.796 Q194.352 482.902 196.158 486.467 Q197.987 490.008 201.598 490.008 Q205.232 490.008 207.037 486.467 Q208.866 482.902 208.866 475.796 Q208.866 468.666 207.037 465.124 Q205.232 461.559 201.598 461.559 M201.598 457.856 Q207.408 457.856 210.463 462.462 Q213.542 467.046 213.542 475.796 Q213.542 484.522 210.463 489.129 Q207.408 493.712 201.598 493.712 Q195.787 493.712 192.709 489.129 Q189.653 484.522 189.653 475.796 Q189.653 467.046 192.709 462.462 Q195.787 457.856 201.598 457.856 Z" fill="#000000" fill-rule="nonzero" fill-opacity="1" /><path clip-path="url(#clip210)" d="M234.607 462.555 L222.801 481.004 L234.607 481.004 L234.607 462.555 M233.38 458.481 L239.259 458.481 L239.259 481.004 L244.19 481.004 L244.19 484.893 L239.259 484.893 L239.259 493.041 L234.607 493.041 L234.607 484.893 L219.005 484.893 L219.005 480.379 L233.38 458.481 Z" fill="#000000" fill-rule="nonzero" fill-opacity="1" /><path clip-path="url(#clip210)" d="M117.339 325.847 L124.978 325.847 L124.978 299.481 L116.668 301.148 L116.668 296.889 L124.931 295.222 L129.607 295.222 L129.607 325.847 L137.246 325.847 L137.246 329.782 L117.339 329.782 L117.339 325.847 Z" fill="#000000" fill-rule="nonzero" fill-opacity="1" /><path clip-path="url(#clip210)" d="M146.691 323.902 L151.575 323.902 L151.575 329.782 L146.691 329.782 L146.691 323.902 Z" fill="#000000" fill-rule="nonzero" fill-opacity="1" /><path clip-path="url(#clip210)" d="M171.76 298.301 Q168.149 298.301 166.32 301.865 Q164.515 305.407 164.515 312.537 Q164.515 319.643 166.32 323.208 Q168.149 326.749 171.76 326.749 Q175.394 326.749 177.2 323.208 Q179.028 319.643 179.028 312.537 Q179.028 305.407 177.2 301.865 Q175.394 298.301 171.76 298.301 M171.76 294.597 Q177.57 294.597 180.626 299.203 Q183.704 303.787 183.704 312.537 Q183.704 321.263 180.626 325.87 Q177.57 330.453 171.76 330.453 Q165.95 330.453 162.871 325.87 Q159.815 321.263 159.815 312.537 Q159.815 303.787 162.871 299.203 Q165.95 294.597 171.76 294.597 Z" fill="#000000" fill-rule="nonzero" fill-opacity="1" /><path clip-path="url(#clip210)" d="M201.922 298.301 Q198.311 298.301 196.482 301.865 Q194.676 305.407 194.676 312.537 Q194.676 319.643 196.482 323.208 Q198.311 326.749 201.922 326.749 Q205.556 326.749 207.362 323.208 Q209.19 319.643 209.19 312.537 Q209.19 305.407 207.362 301.865 Q205.556 298.301 201.922 298.301 M201.922 294.597 Q207.732 294.597 210.787 299.203 Q213.866 303.787 213.866 312.537 Q213.866 321.263 210.787 325.87 Q207.732 330.453 201.922 330.453 Q196.112 330.453 193.033 325.87 Q189.977 321.263 189.977 312.537 Q189.977 303.787 193.033 299.203 Q196.112 294.597 201.922 294.597 Z" fill="#000000" fill-rule="nonzero" fill-opacity="1" /><path clip-path="url(#clip210)" d="M232.662 310.638 Q229.514 310.638 227.662 312.791 Q225.834 314.944 225.834 318.694 Q225.834 322.421 227.662 324.597 Q229.514 326.749 232.662 326.749 Q235.81 326.749 237.639 324.597 Q239.491 322.421 239.491 318.694 Q239.491 314.944 237.639 312.791 Q235.81 310.638 232.662 310.638 M241.945 295.986 L241.945 300.245 Q240.185 299.412 238.38 298.972 Q236.597 298.532 234.838 298.532 Q230.209 298.532 227.755 301.657 Q225.324 304.782 224.977 311.101 Q226.343 309.088 228.403 308.023 Q230.463 306.935 232.94 306.935 Q238.148 306.935 241.158 310.106 Q244.19 313.254 244.19 318.694 Q244.19 324.018 241.042 327.236 Q237.894 330.453 232.662 330.453 Q226.667 330.453 223.496 325.87 Q220.324 321.263 220.324 312.537 Q220.324 304.342 224.213 299.481 Q228.102 294.597 234.653 294.597 Q236.412 294.597 238.195 294.944 Q240 295.291 241.945 295.986 Z" fill="#000000" fill-rule="nonzero" fill-opacity="1" /><path clip-path="url(#clip210)" d="M117.593 162.588 L125.232 162.588 L125.232 136.222 L116.922 137.889 L116.922 133.63 L125.186 131.963 L129.862 131.963 L129.862 162.588 L137.501 162.588 L137.501 166.523 L117.593 166.523 L117.593 162.588 Z" fill="#000000" fill-rule="nonzero" fill-opacity="1" /><path clip-path="url(#clip210)" d="M146.945 160.643 L151.829 160.643 L151.829 166.523 L146.945 166.523 L146.945 160.643 Z" fill="#000000" fill-rule="nonzero" fill-opacity="1" /><path clip-path="url(#clip210)" d="M172.014 135.042 Q168.403 135.042 166.575 138.606 Q164.769 142.148 164.769 149.278 Q164.769 156.384 166.575 159.949 Q168.403 163.491 172.014 163.491 Q175.649 163.491 177.454 159.949 Q179.283 156.384 179.283 149.278 Q179.283 142.148 177.454 138.606 Q175.649 135.042 172.014 135.042 M172.014 131.338 Q177.825 131.338 180.88 135.944 Q183.959 140.528 183.959 149.278 Q183.959 158.004 180.88 162.611 Q177.825 167.194 172.014 167.194 Q166.204 167.194 163.126 162.611 Q160.07 158.004 160.07 149.278 Q160.07 140.528 163.126 135.944 Q166.204 131.338 172.014 131.338 Z" fill="#000000" fill-rule="nonzero" fill-opacity="1" /><path clip-path="url(#clip210)" d="M202.176 135.042 Q198.565 135.042 196.737 138.606 Q194.931 142.148 194.931 149.278 Q194.931 156.384 196.737 159.949 Q198.565 163.491 202.176 163.491 Q205.811 163.491 207.616 159.949 Q209.445 156.384 209.445 149.278 Q209.445 142.148 207.616 138.606 Q205.811 135.042 202.176 135.042 M202.176 131.338 Q207.987 131.338 211.042 135.944 Q214.121 140.528 214.121 149.278 Q214.121 158.004 211.042 162.611 Q207.987 167.194 202.176 167.194 Q196.366 167.194 193.288 162.611 Q190.232 158.004 190.232 149.278 Q190.232 140.528 193.288 135.944 Q196.366 131.338 202.176 131.338 Z" fill="#000000" fill-rule="nonzero" fill-opacity="1" /><path clip-path="url(#clip210)" d="M232.338 150.111 Q229.005 150.111 227.084 151.893 Q225.185 153.676 225.185 156.801 Q225.185 159.926 227.084 161.708 Q229.005 163.491 232.338 163.491 Q235.672 163.491 237.593 161.708 Q239.514 159.903 239.514 156.801 Q239.514 153.676 237.593 151.893 Q235.695 150.111 232.338 150.111 M227.662 148.12 Q224.653 147.38 222.963 145.319 Q221.297 143.259 221.297 140.296 Q221.297 136.153 224.236 133.745 Q227.199 131.338 232.338 131.338 Q237.5 131.338 240.44 133.745 Q243.38 136.153 243.38 140.296 Q243.38 143.259 241.69 145.319 Q240.023 147.38 237.037 148.12 Q240.417 148.907 242.292 151.199 Q244.19 153.491 244.19 156.801 Q244.19 161.824 241.111 164.509 Q238.056 167.194 232.338 167.194 Q226.621 167.194 223.542 164.509 Q220.486 161.824 220.486 156.801 Q220.486 153.491 222.385 151.199 Q224.283 148.907 227.662 148.12 M225.949 140.736 Q225.949 143.421 227.616 144.926 Q229.306 146.43 232.338 146.43 Q235.347 146.43 237.037 144.926 Q238.75 143.421 238.75 140.736 Q238.75 138.051 237.037 136.546 Q235.347 135.042 232.338 135.042 Q229.306 135.042 227.616 136.546 Q225.949 138.051 225.949 140.736 Z" fill="#000000" fill-rule="nonzero" fill-opacity="1" /><path clip-path="url(#clip210)" d="M57.2247 896.821 L44.4614 896.821 L44.4614 907.325 L39.1779 907.325 L39.1779 890.456 L59.58 890.456 Q62.2218 894.18 63.5904 898.667 Q64.9272 903.155 64.9272 908.248 Q64.9272 919.388 58.4342 925.69 Q51.9093 931.96 40.2919 931.96 Q28.6427 931.96 22.1496 925.69 Q15.6248 919.388 15.6248 908.248 Q15.6248 903.601 16.7706 899.431 Q17.9164 895.23 20.1444 891.697 L26.9876 891.697 Q23.9639 895.262 22.4361 899.272 Q20.9083 903.283 20.9083 907.707 Q20.9083 916.428 25.7781 920.82 Q30.6479 925.181 40.2919 925.181 Q49.9041 925.181 54.7739 920.82 Q59.6436 916.428 59.6436 907.707 Q59.6436 904.301 59.0707 901.627 Q58.466 898.954 57.2247 896.821 Z" fill="#000000" fill-rule="nonzero" fill-opacity="1" /><path clip-path="url(#clip210)" d="M21.7677 872.282 L58.7206 872.282 L58.7206 864.515 Q58.7206 854.68 54.2646 850.129 Q49.8086 845.546 40.1964 845.546 Q30.6479 845.546 26.2237 850.129 Q21.7677 854.68 21.7677 864.515 L21.7677 872.282 M16.4842 878.711 L16.4842 865.502 Q16.4842 851.688 22.2451 845.227 Q27.9743 838.766 40.1964 838.766 Q52.4822 838.766 58.2432 845.259 Q64.0042 851.752 64.0042 865.502 L64.0042 878.711 L16.4842 878.711 Z" fill="#000000" fill-rule="nonzero" fill-opacity="1" /><path clip-path="url(#clip210)" d="M21.7677 822.088 L39.6235 822.088 L39.6235 814.004 Q39.6235 809.516 37.3 807.065 Q34.9765 804.614 30.6797 804.614 Q26.4147 804.614 24.0912 807.065 Q21.7677 809.516 21.7677 814.004 L21.7677 822.088 M16.4842 828.517 L16.4842 814.004 Q16.4842 806.015 20.1126 801.94 Q23.7092 797.835 30.6797 797.835 Q37.7138 797.835 41.3104 801.94 Q44.907 806.015 44.907 814.004 L44.907 822.088 L64.0042 822.088 L64.0042 828.517 L16.4842 828.517 Z" fill="#000000" fill-rule="nonzero" fill-opacity="1" /><path clip-path="url(#clip210)" d="M29.7248 743.09 L35.1993 743.09 Q33.8307 745.572 33.1623 748.087 Q32.4621 750.569 32.4621 753.116 Q32.4621 758.813 36.0905 761.964 Q39.6872 765.115 46.212 765.115 Q52.7369 765.115 56.3653 761.964 Q59.9619 758.813 59.9619 753.116 Q59.9619 750.569 59.2935 748.087 Q58.5933 745.572 57.2247 743.09 L62.6355 743.09 Q63.7814 745.54 64.3543 748.182 Q64.9272 750.792 64.9272 753.752 Q64.9272 761.805 59.8664 766.547 Q54.8057 771.29 46.212 771.29 Q37.491 771.29 32.4939 766.515 Q27.4968 761.709 27.4968 753.37 Q27.4968 750.665 28.0697 748.087 Q28.6108 745.508 29.7248 743.09 Z" fill="#000000" fill-rule="nonzero" fill-opacity="1" /><path clip-path="url(#clip210)" d="M42.4881 703.272 L64.0042 703.272 L64.0042 709.128 L42.679 709.128 Q37.6183 709.128 35.1038 711.102 Q32.5894 713.075 32.5894 717.022 Q32.5894 721.764 35.6131 724.502 Q38.6368 727.239 43.8567 727.239 L64.0042 727.239 L64.0042 733.127 L14.479 733.127 L14.479 727.239 L33.8944 727.239 Q30.6797 725.138 29.0883 722.305 Q27.4968 719.441 27.4968 715.717 Q27.4968 709.574 31.3163 706.423 Q35.1038 703.272 42.4881 703.272 Z" fill="#000000" fill-rule="nonzero" fill-opacity="1" /><path clip-path="url(#clip210)" d="M46.0847 675.39 Q46.0847 682.488 47.7079 685.225 Q49.3312 687.963 53.2461 687.963 Q56.3653 687.963 58.2114 685.925 Q60.0256 683.857 60.0256 680.324 Q60.0256 675.454 56.5881 672.526 Q53.1188 669.566 47.3897 669.566 L46.0847 669.566 L46.0847 675.39 M43.6657 663.709 L64.0042 663.709 L64.0042 669.566 L58.5933 669.566 Q61.8398 671.571 63.3994 674.563 Q64.9272 677.555 64.9272 681.883 Q64.9272 687.358 61.8716 690.604 Q58.7843 693.819 53.6281 693.819 Q47.6125 693.819 44.5569 689.809 Q41.5014 685.766 41.5014 677.777 L41.5014 669.566 L40.9285 669.566 Q36.8862 669.566 34.6901 672.239 Q32.4621 674.881 32.4621 679.687 Q32.4621 682.743 33.1941 685.639 Q33.9262 688.535 35.3903 691.209 L29.9795 691.209 Q28.7381 687.994 28.1334 684.971 Q27.4968 681.947 27.4968 679.082 Q27.4968 671.348 31.5072 667.529 Q35.5176 663.709 43.6657 663.709 Z" fill="#000000" fill-rule="nonzero" fill-opacity="1" /><path clip-path="url(#clip210)" d="M42.4881 622.014 L64.0042 622.014 L64.0042 627.87 L42.679 627.87 Q37.6183 627.87 35.1038 629.844 Q32.5894 631.817 32.5894 635.764 Q32.5894 640.506 35.6131 643.243 Q38.6368 645.981 43.8567 645.981 L64.0042 645.981 L64.0042 651.869 L28.3562 651.869 L28.3562 645.981 L33.8944 645.981 Q30.6797 643.88 29.0883 641.047 Q27.4968 638.183 27.4968 634.459 Q27.4968 628.316 31.3163 625.165 Q35.1038 622.014 42.4881 622.014 Z" fill="#000000" fill-rule="nonzero" fill-opacity="1" /><path clip-path="url(#clip210)" d="M45.7664 586.875 Q39.4007 586.875 35.8996 589.517 Q32.3984 592.127 32.3984 596.869 Q32.3984 601.58 35.8996 604.222 Q39.4007 606.832 45.7664 606.832 Q52.1003 606.832 55.6014 604.222 Q59.1026 601.58 59.1026 596.869 Q59.1026 592.127 55.6014 589.517 Q52.1003 586.875 45.7664 586.875 M59.58 581.019 Q68.683 581.019 73.1071 585.061 Q77.5631 589.103 77.5631 597.442 Q77.5631 600.53 77.0857 603.267 Q76.6401 606.004 75.6852 608.582 L69.9879 608.582 Q71.3884 606.004 72.0568 603.49 Q72.7252 600.975 72.7252 598.365 Q72.7252 592.604 69.7015 589.74 Q66.7096 586.875 60.6303 586.875 L57.7339 586.875 Q60.885 588.689 62.4446 591.522 Q64.0042 594.355 64.0042 598.302 Q64.0042 604.858 59.0071 608.869 Q54.01 612.879 45.7664 612.879 Q37.491 612.879 32.4939 608.869 Q27.4968 604.858 27.4968 598.302 Q27.4968 594.355 29.0564 591.522 Q30.616 588.689 33.7671 586.875 L28.3562 586.875 L28.3562 581.019 L59.58 581.019 Z" fill="#000000" fill-rule="nonzero" fill-opacity="1" /><path clip-path="url(#clip210)" d="M44.7161 538.464 L47.5806 538.464 L47.5806 565.391 Q53.6281 565.009 56.8109 561.762 Q59.9619 558.484 59.9619 552.659 Q59.9619 549.286 59.1344 546.135 Q58.3069 542.952 56.6518 539.833 L62.1899 539.833 Q63.5267 542.984 64.227 546.294 Q64.9272 549.604 64.9272 553.01 Q64.9272 561.54 59.9619 566.537 Q54.9967 571.502 46.5303 571.502 Q37.7774 571.502 32.6531 566.791 Q27.4968 562.049 27.4968 554.028 Q27.4968 546.835 32.1438 542.665 Q36.7589 538.464 44.7161 538.464 M42.9973 544.32 Q38.1912 544.384 35.3266 547.026 Q32.4621 549.636 32.4621 553.964 Q32.4621 558.866 35.2312 561.826 Q38.0002 564.754 43.0292 565.2 L42.9973 544.32 Z" fill="#000000" fill-rule="nonzero" fill-opacity="1" /><path clip-path="url(#clip212)" d="M338.848 802.279 L461.051 781.797 L583.254 549.248 L705.457 391.432 L827.66 427.766 L949.863 600.896 L1072.07 596.425 L1194.27 916.223 L1316.47 1087.56 L1438.68 1069.53 L1560.88 1040.04 L1683.08 1074.01 L1805.29 1139.99 L1927.49 1249.46 L2049.69 1304.59 L2171.9 1285.67 L2294.1 1384.24 L2294.1 651.344 L2171.9 585.977 L2049.69 623.262 L1927.49 629.356 L1805.29 538.261 L1683.08 486.685 L1560.88 521.771 L1438.68 560.236 L1316.47 620.251 L1194.27 484.082 L1072.07 196.8 L949.863 216.218 L827.66 91.0618 L705.457 86.1857 L583.254 298.192 L461.051 594.799 L338.848 802.279  Z" fill="#009af9" fill-rule="evenodd" fill-opacity="0.2"/>
<polyline clip-path="url(#clip212)" style="stroke:#009af9; stroke-linecap:round; stroke-linejoin:round; stroke-width:4; stroke-opacity:1; fill:none" points="338.848,802.279 461.051,688.298 583.254,423.72 705.457,238.809 827.66,259.414 949.863,408.557 1072.07,396.612 1194.27,700.152 1316.47,853.906 1438.68,814.885 1560.88,780.904 1683.08,780.345 1805.29,839.124 1927.49,939.409 2049.69,963.927 2171.9,935.822 2294.1,1017.79 "/>
</svg>
