<?xml version="1.0" encoding="utf-8"?>
<svg xmlns="http://www.w3.org/2000/svg" xmlns:xlink="http://www.w3.org/1999/xlink" width="600" height="400" viewBox="0 0 2400 1600">
<defs>
  <clipPath id="clip170">
    <rect x="0" y="0" width="2400" height="1600"/>
  </clipPath>
</defs>
<path clip-path="url(#clip170)" d="M0 1600 L2400 1600 L2400 0 L0 0  Z" fill="#ffffff" fill-rule="evenodd" fill-opacity="1"/>
<defs>
  <clipPath id="clip171">
    <rect x="480" y="0" width="1681" height="1600"/>
  </clipPath>
</defs>
<path clip-path="url(#clip170)" d="M308.87 1423.18 L2352.76 1423.18 L2352.76 47.2441 L308.87 47.2441  Z" fill="#ffffff" fill-rule="evenodd" fill-opacity="1"/>
<defs>
  <clipPath id="clip172">
    <rect x="308" y="47" width="2045" height="1377"/>
  </clipPath>
</defs>
<polyline clip-path="url(#clip172)" style="stroke:#000000; stroke-linecap:round; stroke-linejoin:round; stroke-width:2; stroke-opacity:0.1; fill:none" points="607.74,1423.18 607.74,47.2441 "/>
<polyline clip-path="url(#clip172)" style="stroke:#000000; stroke-linecap:round; stroke-linejoin:round; stroke-width:2; stroke-opacity:0.1; fill:none" points="969.277,1423.18 969.277,47.2441 "/>
<polyline clip-path="url(#clip172)" style="stroke:#000000; stroke-linecap:round; stroke-linejoin:round; stroke-width:2; stroke-opacity:0.1; fill:none" points="1330.81,1423.18 1330.81,47.2441 "/>
<polyline clip-path="url(#clip172)" style="stroke:#000000; stroke-linecap:round; stroke-linejoin:round; stroke-width:2; stroke-opacity:0.1; fill:none" points="1692.35,1423.18 1692.35,47.2441 "/>
<polyline clip-path="url(#clip172)" style="stroke:#000000; stroke-linecap:round; stroke-linejoin:round; stroke-width:2; stroke-opacity:0.1; fill:none" points="2053.89,1423.18 2053.89,47.2441 "/>
<polyline clip-path="url(#clip172)" style="stroke:#000000; stroke-linecap:round; stroke-linejoin:round; stroke-width:2; stroke-opacity:0.1; fill:none" points="308.87,1400.79 2352.76,1400.79 "/>
<polyline clip-path="url(#clip172)" style="stroke:#000000; stroke-linecap:round; stroke-linejoin:round; stroke-width:2; stroke-opacity:0.1; fill:none" points="308.87,1200.17 2352.76,1200.17 "/>
<polyline clip-path="url(#clip172)" style="stroke:#000000; stroke-linecap:round; stroke-linejoin:round; stroke-width:2; stroke-opacity:0.1; fill:none" points="308.87,999.542 2352.76,999.542 "/>
<polyline clip-path="url(#clip172)" style="stroke:#000000; stroke-linecap:round; stroke-linejoin:round; stroke-width:2; stroke-opacity:0.1; fill:none" points="308.87,798.917 2352.76,798.917 "/>
<polyline clip-path="url(#clip172)" style="stroke:#000000; stroke-linecap:round; stroke-linejoin:round; stroke-width:2; stroke-opacity:0.1; fill:none" points="308.87,598.293 2352.76,598.293 "/>
<polyline clip-path="url(#clip172)" style="stroke:#000000; stroke-linecap:round; stroke-linejoin:round; stroke-width:2; stroke-opacity:0.1; fill:none" points="308.87,397.668 2352.76,397.668 "/>
<polyline clip-path="url(#clip172)" style="stroke:#000000; stroke-linecap:round; stroke-linejoin:round; stroke-width:2; stroke-opacity:0.1; fill:none" points="308.87,197.044 2352.76,197.044 "/>
<polyline clip-path="url(#clip170)" style="stroke:#000000; stroke-linecap:round; stroke-linejoin:round; stroke-width:4; stroke-opacity:1; fill:none" points="308.87,1423.18 2352.76,1423.18 "/>
<polyline clip-path="url(#clip170)" style="stroke:#000000; stroke-linecap:round; stroke-linejoin:round; stroke-width:4; stroke-opacity:1; fill:none" points="607.74,1423.18 607.74,1404.28 "/>
<polyline clip-path="url(#clip170)" style="stroke:#000000; stroke-linecap:round; stroke-linejoin:round; stroke-width:4; stroke-opacity:1; fill:none" points="969.277,1423.18 969.277,1404.28 "/>
<polyline clip-path="url(#clip170)" style="stroke:#000000; stroke-linecap:round; stroke-linejoin:round; stroke-width:4; stroke-opacity:1; fill:none" points="1330.81,1423.18 1330.81,1404.28 "/>
<polyline clip-path="url(#clip170)" style="stroke:#000000; stroke-linecap:round; stroke-linejoin:round; stroke-width:4; stroke-opacity:1; fill:none" points="1692.35,1423.18 1692.35,1404.28 "/>
<polyline clip-path="url(#clip170)" style="stroke:#000000; stroke-linecap:round; stroke-linejoin:round; stroke-width:4; stroke-opacity:1; fill:none" points="2053.89,1423.18 2053.89,1404.28 "/>
<path clip-path="url(#clip170)" d="M611.988 1466.95 Q615.345 1467.66 617.22 1469.93 Q619.118 1472.2 619.118 1475.53 Q619.118 1480.65 615.599 1483.45 Q612.081 1486.25 605.599 1486.25 Q603.423 1486.25 601.109 1485.81 Q598.817 1485.39 596.363 1484.54 L596.363 1480.02 Q598.308 1481.16 600.622 1481.74 Q602.937 1482.32 605.46 1482.32 Q609.859 1482.32 612.15 1480.58 Q614.465 1478.84 614.465 1475.53 Q614.465 1472.48 612.312 1470.77 Q610.183 1469.03 606.363 1469.03 L602.335 1469.03 L602.335 1465.19 L606.548 1465.19 Q609.997 1465.19 611.826 1463.82 Q613.655 1462.43 613.655 1459.84 Q613.655 1457.18 611.757 1455.77 Q609.882 1454.33 606.363 1454.33 Q604.442 1454.33 602.243 1454.75 Q600.044 1455.16 597.405 1456.04 L597.405 1451.88 Q600.067 1451.14 602.382 1450.77 Q604.72 1450.39 606.78 1450.39 Q612.104 1450.39 615.206 1452.83 Q618.308 1455.23 618.308 1459.35 Q618.308 1462.22 616.664 1464.21 Q615.021 1466.18 611.988 1466.95 Z" fill="#000000" fill-rule="nonzero" fill-opacity="1" /><path clip-path="url(#clip170)" d="M969.682 1466.44 Q966.534 1466.44 964.682 1468.59 Q962.853 1470.74 962.853 1474.49 Q962.853 1478.22 964.682 1480.39 Q966.534 1482.55 969.682 1482.55 Q972.83 1482.55 974.659 1480.39 Q976.511 1478.22 976.511 1474.49 Q976.511 1470.74 974.659 1468.59 Q972.83 1466.44 969.682 1466.44 M978.964 1451.78 L978.964 1456.04 Q977.205 1455.21 975.399 1454.77 Q973.617 1454.33 971.858 1454.33 Q967.228 1454.33 964.775 1457.45 Q962.344 1460.58 961.997 1466.9 Q963.362 1464.89 965.423 1463.82 Q967.483 1462.73 969.96 1462.73 Q975.168 1462.73 978.177 1465.9 Q981.21 1469.05 981.21 1474.49 Q981.21 1479.82 978.061 1483.03 Q974.913 1486.25 969.682 1486.25 Q963.687 1486.25 960.515 1481.67 Q957.344 1477.06 957.344 1468.33 Q957.344 1460.14 961.233 1455.28 Q965.122 1450.39 971.673 1450.39 Q973.432 1450.39 975.214 1450.74 Q977.02 1451.09 978.964 1451.78 Z" fill="#000000" fill-rule="nonzero" fill-opacity="1" /><path clip-path="url(#clip170)" d="M1321.11 1484.86 L1321.11 1480.6 Q1322.87 1481.44 1324.68 1481.88 Q1326.48 1482.32 1328.22 1482.32 Q1332.85 1482.32 1335.28 1479.21 Q1337.73 1476.09 1338.08 1469.75 Q1336.74 1471.74 1334.68 1472.8 Q1332.62 1473.87 1330.12 1473.87 Q1324.93 1473.87 1321.9 1470.74 Q1318.89 1467.59 1318.89 1462.15 Q1318.89 1456.83 1322.04 1453.61 Q1325.19 1450.39 1330.42 1450.39 Q1336.41 1450.39 1339.56 1455 Q1342.73 1459.58 1342.73 1468.33 Q1342.73 1476.51 1338.85 1481.39 Q1334.98 1486.25 1328.43 1486.25 Q1326.67 1486.25 1324.86 1485.9 Q1323.06 1485.56 1321.11 1484.86 M1330.42 1470.21 Q1333.57 1470.21 1335.4 1468.06 Q1337.25 1465.9 1337.25 1462.15 Q1337.25 1458.43 1335.4 1456.27 Q1333.57 1454.1 1330.42 1454.1 Q1327.27 1454.1 1325.42 1456.27 Q1323.59 1458.43 1323.59 1462.15 Q1323.59 1465.9 1325.42 1468.06 Q1327.27 1470.21 1330.42 1470.21 Z" fill="#000000" fill-rule="nonzero" fill-opacity="1" /><path clip-path="url(#clip170)" d="M1667.84 1481.64 L1675.47 1481.64 L1675.47 1455.28 L1667.16 1456.95 L1667.16 1452.69 L1675.43 1451.02 L1680.1 1451.02 L1680.1 1481.64 L1687.74 1481.64 L1687.74 1485.58 L1667.84 1485.58 L1667.84 1481.64 Z" fill="#000000" fill-rule="nonzero" fill-opacity="1" /><path clip-path="url(#clip170)" d="M1701.22 1481.64 L1717.53 1481.64 L1717.53 1485.58 L1695.59 1485.58 L1695.59 1481.64 Q1698.25 1478.89 1702.84 1474.26 Q1707.44 1469.61 1708.62 1468.27 Q1710.87 1465.74 1711.75 1464.01 Q1712.65 1462.25 1712.65 1460.56 Q1712.65 1457.8 1710.71 1456.07 Q1708.78 1454.33 1705.68 1454.33 Q1703.48 1454.33 1701.03 1455.09 Q1698.6 1455.86 1695.82 1457.41 L1695.82 1452.69 Q1698.65 1451.55 1701.1 1450.97 Q1703.55 1450.39 1705.59 1450.39 Q1710.96 1450.39 1714.15 1453.08 Q1717.35 1455.77 1717.35 1460.26 Q1717.35 1462.39 1716.54 1464.31 Q1715.75 1466.2 1713.65 1468.8 Q1713.07 1469.47 1709.97 1472.69 Q1706.86 1475.88 1701.22 1481.64 Z" fill="#000000" fill-rule="nonzero" fill-opacity="1" /><path clip-path="url(#clip170)" d="M2029.07 1481.64 L2036.71 1481.64 L2036.71 1455.28 L2028.4 1456.95 L2028.4 1452.69 L2036.66 1451.02 L2041.34 1451.02 L2041.34 1481.64 L2048.98 1481.64 L2048.98 1485.58 L2029.07 1485.58 L2029.07 1481.64 Z" fill="#000000" fill-rule="nonzero" fill-opacity="1" /><path clip-path="url(#clip170)" d="M2058.47 1451.02 L2076.83 1451.02 L2076.83 1454.96 L2062.75 1454.96 L2062.75 1463.43 Q2063.77 1463.08 2064.79 1462.92 Q2065.81 1462.73 2066.83 1462.73 Q2072.61 1462.73 2075.99 1465.9 Q2079.37 1469.08 2079.37 1474.49 Q2079.37 1480.07 2075.9 1483.17 Q2072.43 1486.25 2066.11 1486.25 Q2063.93 1486.25 2061.66 1485.88 Q2059.42 1485.51 2057.01 1484.77 L2057.01 1480.07 Q2059.09 1481.2 2061.32 1481.76 Q2063.54 1482.32 2066.02 1482.32 Q2070.02 1482.32 2072.36 1480.21 Q2074.7 1478.1 2074.7 1474.49 Q2074.7 1470.88 2072.36 1468.77 Q2070.02 1466.67 2066.02 1466.67 Q2064.14 1466.67 2062.27 1467.08 Q2060.41 1467.5 2058.47 1468.38 L2058.47 1451.02 Z" fill="#000000" fill-rule="nonzero" fill-opacity="1" /><path clip-path="url(#clip170)" d="M1202.32 1550.25 Q1202.32 1556.71 1204.96 1560.4 Q1207.64 1564.07 1212.28 1564.07 Q1216.93 1564.07 1219.6 1560.4 Q1222.28 1556.71 1222.28 1550.25 Q1222.28 1543.79 1219.6 1540.13 Q1216.93 1536.44 1212.28 1536.44 Q1207.64 1536.44 1204.96 1540.13 Q1202.32 1543.79 1202.32 1550.25 M1222.28 1562.7 Q1220.43 1565.88 1217.6 1567.44 Q1214.8 1568.97 1210.85 1568.97 Q1204.39 1568.97 1200.32 1563.81 Q1196.27 1558.65 1196.27 1550.25 Q1196.27 1541.85 1200.32 1536.69 Q1204.39 1531.54 1210.85 1531.54 Q1214.8 1531.54 1217.6 1533.1 Q1220.43 1534.62 1222.28 1537.81 L1222.28 1532.4 L1228.13 1532.4 L1228.13 1581.6 L1222.28 1581.6 L1222.28 1562.7 Z" fill="#000000" fill-rule="nonzero" fill-opacity="1" /><path clip-path="url(#clip170)" d="M1239.59 1553.98 L1239.59 1532.4 L1245.45 1532.4 L1245.45 1553.75 Q1245.45 1558.81 1247.42 1561.36 Q1249.4 1563.87 1253.34 1563.87 Q1258.08 1563.87 1260.82 1560.85 Q1263.59 1557.83 1263.59 1552.61 L1263.59 1532.4 L1269.45 1532.4 L1269.45 1568.04 L1263.59 1568.04 L1263.59 1562.57 Q1261.46 1565.82 1258.63 1567.41 Q1255.83 1568.97 1252.1 1568.97 Q1245.96 1568.97 1242.78 1565.15 Q1239.59 1561.33 1239.59 1553.98 M1254.33 1531.54 L1254.33 1531.54 Z" fill="#000000" fill-rule="nonzero" fill-opacity="1" /><path clip-path="url(#clip170)" d="M1297.71 1550.12 Q1290.61 1550.12 1287.88 1551.75 Q1285.14 1553.37 1285.14 1557.29 Q1285.14 1560.4 1287.18 1562.25 Q1289.25 1564.07 1292.78 1564.07 Q1297.65 1564.07 1300.58 1560.63 Q1303.54 1557.16 1303.54 1551.43 L1303.54 1550.12 L1297.71 1550.12 M1309.39 1547.71 L1309.39 1568.04 L1303.54 1568.04 L1303.54 1562.63 Q1301.53 1565.88 1298.54 1567.44 Q1295.55 1568.97 1291.22 1568.97 Q1285.74 1568.97 1282.5 1565.91 Q1279.28 1562.82 1279.28 1557.67 Q1279.28 1551.65 1283.29 1548.6 Q1287.34 1545.54 1295.32 1545.54 L1303.54 1545.54 L1303.54 1544.97 Q1303.54 1540.93 1300.86 1538.73 Q1298.22 1536.5 1293.41 1536.5 Q1290.36 1536.5 1287.46 1537.23 Q1284.57 1537.97 1281.89 1539.43 L1281.89 1534.02 Q1285.11 1532.78 1288.13 1532.17 Q1291.15 1531.54 1294.02 1531.54 Q1301.75 1531.54 1305.57 1535.55 Q1309.39 1539.56 1309.39 1547.71 Z" fill="#000000" fill-rule="nonzero" fill-opacity="1" /><path clip-path="url(#clip170)" d="M1342.11 1537.87 Q1341.13 1537.3 1339.95 1537.04 Q1338.8 1536.76 1337.4 1536.76 Q1332.44 1536.76 1329.76 1540 Q1327.12 1543.22 1327.12 1549.27 L1327.12 1568.04 L1321.23 1568.04 L1321.23 1532.4 L1327.12 1532.4 L1327.12 1537.93 Q1328.97 1534.69 1331.93 1533.13 Q1334.89 1531.54 1339.12 1531.54 Q1339.73 1531.54 1340.46 1531.63 Q1341.19 1531.7 1342.08 1531.85 L1342.11 1537.87 Z" fill="#000000" fill-rule="nonzero" fill-opacity="1" /><path clip-path="url(#clip170)" d="M1354.05 1522.27 L1354.05 1532.4 L1366.11 1532.4 L1366.11 1536.95 L1354.05 1536.95 L1354.05 1556.3 Q1354.05 1560.66 1355.23 1561.9 Q1356.44 1563.14 1360.1 1563.14 L1366.11 1563.14 L1366.11 1568.04 L1360.1 1568.04 Q1353.32 1568.04 1350.74 1565.53 Q1348.16 1562.98 1348.16 1556.3 L1348.16 1536.95 L1343.86 1536.95 L1343.86 1532.4 L1348.16 1532.4 L1348.16 1522.27 L1354.05 1522.27 Z" fill="#000000" fill-rule="nonzero" fill-opacity="1" /><path clip-path="url(#clip170)" d="M1404.31 1548.76 L1404.31 1551.62 L1377.38 1551.62 Q1377.76 1557.67 1381.01 1560.85 Q1384.29 1564 1390.11 1564 Q1393.48 1564 1396.63 1563.17 Q1399.82 1562.35 1402.94 1560.69 L1402.94 1566.23 Q1399.79 1567.57 1396.48 1568.27 Q1393.17 1568.97 1389.76 1568.97 Q1381.23 1568.97 1376.23 1564 Q1371.27 1559.04 1371.27 1550.57 Q1371.27 1541.82 1375.98 1536.69 Q1380.72 1531.54 1388.74 1531.54 Q1395.93 1531.54 1400.1 1536.18 Q1404.31 1540.8 1404.31 1548.76 M1398.45 1547.04 Q1398.39 1542.23 1395.74 1539.37 Q1393.13 1536.5 1388.8 1536.5 Q1383.9 1536.5 1380.94 1539.27 Q1378.01 1542.04 1377.57 1547.07 L1398.45 1547.04 Z" fill="#000000" fill-rule="nonzero" fill-opacity="1" /><path clip-path="url(#clip170)" d="M1434.57 1537.87 Q1433.59 1537.3 1432.41 1537.04 Q1431.26 1536.76 1429.86 1536.76 Q1424.9 1536.76 1422.22 1540 Q1419.58 1543.22 1419.58 1549.27 L1419.58 1568.04 L1413.69 1568.04 L1413.69 1532.4 L1419.58 1532.4 L1419.58 1537.93 Q1421.43 1534.69 1424.39 1533.13 Q1427.35 1531.54 1431.58 1531.54 Q1432.19 1531.54 1432.92 1531.63 Q1433.65 1531.7 1434.54 1531.85 L1434.57 1537.87 Z" fill="#000000" fill-rule="nonzero" fill-opacity="1" /><path clip-path="url(#clip170)" d="M1463.44 1533.45 L1463.44 1538.98 Q1460.96 1537.71 1458.29 1537.07 Q1455.61 1536.44 1452.75 1536.44 Q1448.39 1536.44 1446.19 1537.77 Q1444.03 1539.11 1444.03 1541.79 Q1444.03 1543.82 1445.59 1545 Q1447.15 1546.15 1451.86 1547.2 L1453.86 1547.64 Q1460.1 1548.98 1462.71 1551.43 Q1465.35 1553.85 1465.35 1558.21 Q1465.35 1563.17 1461.41 1566.07 Q1457.49 1568.97 1450.62 1568.97 Q1447.75 1568.97 1444.63 1568.39 Q1441.54 1567.85 1438.11 1566.74 L1438.11 1560.69 Q1441.35 1562.38 1444.5 1563.24 Q1447.66 1564.07 1450.74 1564.07 Q1454.88 1564.07 1457.11 1562.66 Q1459.34 1561.23 1459.34 1558.65 Q1459.34 1556.27 1457.71 1554.99 Q1456.12 1553.72 1450.68 1552.54 L1448.64 1552.07 Q1443.2 1550.92 1440.78 1548.56 Q1438.36 1546.18 1438.36 1542.04 Q1438.36 1537.01 1441.93 1534.27 Q1445.49 1531.54 1452.05 1531.54 Q1455.29 1531.54 1458.16 1532.01 Q1461.02 1532.49 1463.44 1533.45 Z" fill="#000000" fill-rule="nonzero" fill-opacity="1" /><polyline clip-path="url(#clip170)" style="stroke:#000000; stroke-linecap:round; stroke-linejoin:round; stroke-width:4; stroke-opacity:1; fill:none" points="308.87,1423.18 308.87,47.2441 "/>
<polyline clip-path="url(#clip170)" style="stroke:#000000; stroke-linecap:round; stroke-linejoin:round; stroke-width:4; stroke-opacity:1; fill:none" points="308.87,1400.79 327.768,1400.79 "/>
<polyline clip-path="url(#clip170)" style="stroke:#000000; stroke-linecap:round; stroke-linejoin:round; stroke-width:4; stroke-opacity:1; fill:none" points="308.87,1200.17 327.768,1200.17 "/>
<polyline clip-path="url(#clip170)" style="stroke:#000000; stroke-linecap:round; stroke-linejoin:round; stroke-width:4; stroke-opacity:1; fill:none" points="308.87,999.542 327.768,999.542 "/>
<polyline clip-path="url(#clip170)" style="stroke:#000000; stroke-linecap:round; stroke-linejoin:round; stroke-width:4; stroke-opacity:1; fill:none" points="308.87,798.917 327.768,798.917 "/>
<polyline clip-path="url(#clip170)" style="stroke:#000000; stroke-linecap:round; stroke-linejoin:round; stroke-width:4; stroke-opacity:1; fill:none" points="308.87,598.293 327.768,598.293 "/>
<polyline clip-path="url(#clip170)" style="stroke:#000000; stroke-linecap:round; stroke-linejoin:round; stroke-width:4; stroke-opacity:1; fill:none" points="308.87,397.668 327.768,397.668 "/>
<polyline clip-path="url(#clip170)" style="stroke:#000000; stroke-linecap:round; stroke-linejoin:round; stroke-width:4; stroke-opacity:1; fill:none" points="308.87,197.044 327.768,197.044 "/>
<path clip-path="url(#clip170)" d="M126.205 1386.59 Q122.593 1386.59 120.765 1390.15 Q118.959 1393.7 118.959 1400.83 Q118.959 1407.93 120.765 1411.5 Q122.593 1415.04 126.205 1415.04 Q129.839 1415.04 131.644 1411.5 Q133.473 1407.93 133.473 1400.83 Q133.473 1393.7 131.644 1390.15 Q129.839 1386.59 126.205 1386.59 M126.205 1382.89 Q132.015 1382.89 135.07 1387.49 Q138.149 1392.08 138.149 1400.83 Q138.149 1409.55 135.07 1414.16 Q132.015 1418.74 126.205 1418.74 Q120.394 1418.74 117.316 1414.16 Q114.26 1409.55 114.26 1400.83 Q114.26 1392.08 117.316 1387.49 Q120.394 1382.89 126.205 1382.89 Z" fill="#000000" fill-rule="nonzero" fill-opacity="1" /><path clip-path="url(#clip170)" d="M146.366 1412.19 L151.251 1412.19 L151.251 1418.07 L146.366 1418.07 L146.366 1412.19 Z" fill="#000000" fill-rule="nonzero" fill-opacity="1" /><path clip-path="url(#clip170)" d="M161.575 1417.35 L161.575 1413.09 Q163.334 1413.93 165.14 1414.37 Q166.945 1414.81 168.681 1414.81 Q173.311 1414.81 175.741 1411.71 Q178.195 1408.58 178.542 1402.24 Q177.2 1404.23 175.139 1405.29 Q173.079 1406.36 170.579 1406.36 Q165.394 1406.36 162.362 1403.23 Q159.353 1400.08 159.353 1394.65 Q159.353 1389.32 162.501 1386.1 Q165.649 1382.89 170.88 1382.89 Q176.876 1382.89 180.024 1387.49 Q183.195 1392.08 183.195 1400.83 Q183.195 1409 179.306 1413.88 Q175.44 1418.74 168.889 1418.74 Q167.13 1418.74 165.325 1418.39 Q163.519 1418.05 161.575 1417.35 M170.88 1402.7 Q174.028 1402.7 175.857 1400.55 Q177.709 1398.4 177.709 1394.65 Q177.709 1390.92 175.857 1388.77 Q174.028 1386.59 170.88 1386.59 Q167.732 1386.59 165.88 1388.77 Q164.052 1390.92 164.052 1394.65 Q164.052 1398.4 165.88 1400.55 Q167.732 1402.7 170.88 1402.7 Z" fill="#000000" fill-rule="nonzero" fill-opacity="1" /><path clip-path="url(#clip170)" d="M191.737 1417.35 L191.737 1413.09 Q193.496 1413.93 195.301 1414.37 Q197.107 1414.81 198.843 1414.81 Q203.473 1414.81 205.903 1411.71 Q208.357 1408.58 208.704 1402.24 Q207.362 1404.23 205.301 1405.29 Q203.241 1406.36 200.741 1406.36 Q195.556 1406.36 192.524 1403.23 Q189.514 1400.08 189.514 1394.65 Q189.514 1389.32 192.663 1386.1 Q195.811 1382.89 201.042 1382.89 Q207.037 1382.89 210.186 1387.49 Q213.357 1392.08 213.357 1400.83 Q213.357 1409 209.468 1413.88 Q205.602 1418.74 199.051 1418.74 Q197.292 1418.74 195.487 1418.39 Q193.681 1418.05 191.737 1417.35 M201.042 1402.7 Q204.19 1402.7 206.019 1400.55 Q207.871 1398.4 207.871 1394.65 Q207.871 1390.92 206.019 1388.77 Q204.19 1386.59 201.042 1386.59 Q197.894 1386.59 196.042 1388.77 Q194.213 1390.92 194.213 1394.65 Q194.213 1398.4 196.042 1400.55 Q197.894 1402.7 201.042 1402.7 Z" fill="#000000" fill-rule="nonzero" fill-opacity="1" /><path clip-path="url(#clip170)" d="M220.579 1383.51 L242.801 1383.51 L242.801 1385.5 L230.255 1418.07 L225.371 1418.07 L237.176 1387.45 L220.579 1387.45 L220.579 1383.51 Z" fill="#000000" fill-rule="nonzero" fill-opacity="1" /><path clip-path="url(#clip170)" d="M251.968 1383.51 L270.324 1383.51 L270.324 1387.45 L256.25 1387.45 L256.25 1395.92 Q257.269 1395.57 258.287 1395.41 Q259.306 1395.22 260.324 1395.22 Q266.111 1395.22 269.491 1398.4 Q272.87 1401.57 272.87 1406.98 Q272.87 1412.56 269.398 1415.66 Q265.926 1418.74 259.607 1418.74 Q257.431 1418.74 255.162 1418.37 Q252.917 1418 250.509 1417.26 L250.509 1412.56 Q252.593 1413.7 254.815 1414.25 Q257.037 1414.81 259.514 1414.81 Q263.519 1414.81 265.857 1412.7 Q268.195 1410.59 268.195 1406.98 Q268.195 1403.37 265.857 1401.27 Q263.519 1399.16 259.514 1399.16 Q257.639 1399.16 255.764 1399.58 Q253.912 1399.99 251.968 1400.87 L251.968 1383.51 Z" fill="#000000" fill-rule="nonzero" fill-opacity="1" /><path clip-path="url(#clip170)" d="M116.019 1213.51 L123.658 1213.51 L123.658 1187.15 L115.348 1188.81 L115.348 1184.55 L123.612 1182.89 L128.288 1182.89 L128.288 1213.51 L135.927 1213.51 L135.927 1217.45 L116.019 1217.45 L116.019 1213.51 Z" fill="#000000" fill-rule="nonzero" fill-opacity="1" /><path clip-path="url(#clip170)" d="M145.371 1211.57 L150.255 1211.57 L150.255 1217.45 L145.371 1217.45 L145.371 1211.57 Z" fill="#000000" fill-rule="nonzero" fill-opacity="1" /><path clip-path="url(#clip170)" d="M170.44 1185.97 Q166.829 1185.97 165.001 1189.53 Q163.195 1193.07 163.195 1200.2 Q163.195 1207.31 165.001 1210.87 Q166.829 1214.41 170.44 1214.41 Q174.075 1214.41 175.88 1210.87 Q177.709 1207.31 177.709 1200.2 Q177.709 1193.07 175.88 1189.53 Q174.075 1185.97 170.44 1185.97 M170.44 1182.26 Q176.251 1182.26 179.306 1186.87 Q182.385 1191.45 182.385 1200.2 Q182.385 1208.93 179.306 1213.53 Q176.251 1218.12 170.44 1218.12 Q164.63 1218.12 161.552 1213.53 Q158.496 1208.93 158.496 1200.2 Q158.496 1191.45 161.552 1186.87 Q164.63 1182.26 170.44 1182.26 Z" fill="#000000" fill-rule="nonzero" fill-opacity="1" /><path clip-path="url(#clip170)" d="M200.602 1185.97 Q196.991 1185.97 195.163 1189.53 Q193.357 1193.07 193.357 1200.2 Q193.357 1207.31 195.163 1210.87 Q196.991 1214.41 200.602 1214.41 Q204.237 1214.41 206.042 1210.87 Q207.871 1207.31 207.871 1200.2 Q207.871 1193.07 206.042 1189.53 Q204.237 1185.97 200.602 1185.97 M200.602 1182.26 Q206.412 1182.26 209.468 1186.87 Q212.547 1191.45 212.547 1200.2 Q212.547 1208.93 209.468 1213.53 Q206.412 1218.12 200.602 1218.12 Q194.792 1218.12 191.713 1213.53 Q188.658 1208.93 188.658 1200.2 Q188.658 1191.45 191.713 1186.87 Q194.792 1182.26 200.602 1182.26 Z" fill="#000000" fill-rule="nonzero" fill-opacity="1" /><path clip-path="url(#clip170)" d="M230.764 1185.97 Q227.153 1185.97 225.324 1189.53 Q223.519 1193.07 223.519 1200.2 Q223.519 1207.31 225.324 1210.87 Q227.153 1214.41 230.764 1214.41 Q234.398 1214.41 236.204 1210.87 Q238.033 1207.31 238.033 1200.2 Q238.033 1193.07 236.204 1189.53 Q234.398 1185.97 230.764 1185.97 M230.764 1182.26 Q236.574 1182.26 239.63 1186.87 Q242.709 1191.45 242.709 1200.2 Q242.709 1208.93 239.63 1213.53 Q236.574 1218.12 230.764 1218.12 Q224.954 1218.12 221.875 1213.53 Q218.82 1208.93 218.82 1200.2 Q218.82 1191.45 221.875 1186.87 Q224.954 1182.26 230.764 1182.26 Z" fill="#000000" fill-rule="nonzero" fill-opacity="1" /><path clip-path="url(#clip170)" d="M260.926 1185.97 Q257.315 1185.97 255.486 1189.53 Q253.681 1193.07 253.681 1200.2 Q253.681 1207.31 255.486 1210.87 Q257.315 1214.41 260.926 1214.41 Q264.56 1214.41 266.366 1210.87 Q268.195 1207.31 268.195 1200.2 Q268.195 1193.07 266.366 1189.53 Q264.56 1185.97 260.926 1185.97 M260.926 1182.26 Q266.736 1182.26 269.792 1186.87 Q272.87 1191.45 272.87 1200.2 Q272.87 1208.93 269.792 1213.53 Q266.736 1218.12 260.926 1218.12 Q255.116 1218.12 252.037 1213.53 Q248.982 1208.93 248.982 1200.2 Q248.982 1191.45 252.037 1186.87 Q255.116 1182.26 260.926 1182.26 Z" fill="#000000" fill-rule="nonzero" fill-opacity="1" /><path clip-path="url(#clip170)" d="M117.015 1012.89 L124.654 1012.89 L124.654 986.521 L116.343 988.188 L116.343 983.928 L124.607 982.262 L129.283 982.262 L129.283 1012.89 L136.922 1012.89 L136.922 1016.82 L117.015 1016.82 L117.015 1012.89 Z" fill="#000000" fill-rule="nonzero" fill-opacity="1" /><path clip-path="url(#clip170)" d="M146.366 1010.94 L151.251 1010.94 L151.251 1016.82 L146.366 1016.82 L146.366 1010.94 Z" fill="#000000" fill-rule="nonzero" fill-opacity="1" /><path clip-path="url(#clip170)" d="M171.436 985.341 Q167.825 985.341 165.996 988.905 Q164.19 992.447 164.19 999.577 Q164.19 1006.68 165.996 1010.25 Q167.825 1013.79 171.436 1013.79 Q175.07 1013.79 176.876 1010.25 Q178.704 1006.68 178.704 999.577 Q178.704 992.447 176.876 988.905 Q175.07 985.341 171.436 985.341 M171.436 981.637 Q177.246 981.637 180.301 986.243 Q183.38 990.827 183.38 999.577 Q183.38 1008.3 180.301 1012.91 Q177.246 1017.49 171.436 1017.49 Q165.626 1017.49 162.547 1012.91 Q159.491 1008.3 159.491 999.577 Q159.491 990.827 162.547 986.243 Q165.626 981.637 171.436 981.637 Z" fill="#000000" fill-rule="nonzero" fill-opacity="1" /><path clip-path="url(#clip170)" d="M201.598 985.341 Q197.987 985.341 196.158 988.905 Q194.352 992.447 194.352 999.577 Q194.352 1006.68 196.158 1010.25 Q197.987 1013.79 201.598 1013.79 Q205.232 1013.79 207.037 1010.25 Q208.866 1006.68 208.866 999.577 Q208.866 992.447 207.037 988.905 Q205.232 985.341 201.598 985.341 M201.598 981.637 Q207.408 981.637 210.463 986.243 Q213.542 990.827 213.542 999.577 Q213.542 1008.3 210.463 1012.91 Q207.408 1017.49 201.598 1017.49 Q195.787 1017.49 192.709 1012.91 Q189.653 1008.3 189.653 999.577 Q189.653 990.827 192.709 986.243 Q195.787 981.637 201.598 981.637 Z" fill="#000000" fill-rule="nonzero" fill-opacity="1" /><path clip-path="url(#clip170)" d="M225.787 1012.89 L242.107 1012.89 L242.107 1016.82 L220.162 1016.82 L220.162 1012.89 Q222.824 1010.13 227.408 1005.5 Q232.014 1000.85 233.195 999.507 Q235.44 996.984 236.32 995.248 Q237.222 993.489 237.222 991.799 Q237.222 989.044 235.278 987.308 Q233.357 985.572 230.255 985.572 Q228.056 985.572 225.602 986.336 Q223.172 987.1 220.394 988.651 L220.394 983.928 Q223.218 982.794 225.672 982.216 Q228.125 981.637 230.162 981.637 Q235.533 981.637 238.727 984.322 Q241.922 987.007 241.922 991.498 Q241.922 993.628 241.111 995.549 Q240.324 997.447 238.218 1000.04 Q237.639 1000.71 234.537 1003.93 Q231.435 1007.12 225.787 1012.89 Z" fill="#000000" fill-rule="nonzero" fill-opacity="1" /><path clip-path="url(#clip170)" d="M251.968 982.262 L270.324 982.262 L270.324 986.197 L256.25 986.197 L256.25 994.669 Q257.269 994.322 258.287 994.16 Q259.306 993.975 260.324 993.975 Q266.111 993.975 269.491 997.146 Q272.87 1000.32 272.87 1005.73 Q272.87 1011.31 269.398 1014.41 Q265.926 1017.49 259.607 1017.49 Q257.431 1017.49 255.162 1017.12 Q252.917 1016.75 250.509 1016.01 L250.509 1011.31 Q252.593 1012.45 254.815 1013 Q257.037 1013.56 259.514 1013.56 Q263.519 1013.56 265.857 1011.45 Q268.195 1009.35 268.195 1005.73 Q268.195 1002.12 265.857 1000.02 Q263.519 997.91 259.514 997.91 Q257.639 997.91 255.764 998.327 Q253.912 998.743 251.968 999.623 L251.968 982.262 Z" fill="#000000" fill-rule="nonzero" fill-opacity="1" /><path clip-path="url(#clip170)" d="M116.019 812.262 L123.658 812.262 L123.658 785.897 L115.348 787.563 L115.348 783.304 L123.612 781.637 L128.288 781.637 L128.288 812.262 L135.927 812.262 L135.927 816.197 L116.019 816.197 L116.019 812.262 Z" fill="#000000" fill-rule="nonzero" fill-opacity="1" /><path clip-path="url(#clip170)" d="M145.371 810.318 L150.255 810.318 L150.255 816.197 L145.371 816.197 L145.371 810.318 Z" fill="#000000" fill-rule="nonzero" fill-opacity="1" /><path clip-path="url(#clip170)" d="M170.44 784.716 Q166.829 784.716 165.001 788.281 Q163.195 791.822 163.195 798.952 Q163.195 806.058 165.001 809.623 Q166.829 813.165 170.44 813.165 Q174.075 813.165 175.88 809.623 Q177.709 806.058 177.709 798.952 Q177.709 791.822 175.88 788.281 Q174.075 784.716 170.44 784.716 M170.44 781.012 Q176.251 781.012 179.306 785.619 Q182.385 790.202 182.385 798.952 Q182.385 807.679 179.306 812.285 Q176.251 816.869 170.44 816.869 Q164.63 816.869 161.552 812.285 Q158.496 807.679 158.496 798.952 Q158.496 790.202 161.552 785.619 Q164.63 781.012 170.44 781.012 Z" fill="#000000" fill-rule="nonzero" fill-opacity="1" /><path clip-path="url(#clip170)" d="M200.602 784.716 Q196.991 784.716 195.163 788.281 Q193.357 791.822 193.357 798.952 Q193.357 806.058 195.163 809.623 Q196.991 813.165 200.602 813.165 Q204.237 813.165 206.042 809.623 Q207.871 806.058 207.871 798.952 Q207.871 791.822 206.042 788.281 Q204.237 784.716 200.602 784.716 M200.602 781.012 Q206.412 781.012 209.468 785.619 Q212.547 790.202 212.547 798.952 Q212.547 807.679 209.468 812.285 Q206.412 816.869 200.602 816.869 Q194.792 816.869 191.713 812.285 Q188.658 807.679 188.658 798.952 Q188.658 790.202 191.713 785.619 Q194.792 781.012 200.602 781.012 Z" fill="#000000" fill-rule="nonzero" fill-opacity="1" /><path clip-path="url(#clip170)" d="M220.811 781.637 L239.167 781.637 L239.167 785.572 L225.093 785.572 L225.093 794.045 Q226.111 793.697 227.13 793.535 Q228.148 793.35 229.167 793.35 Q234.954 793.35 238.334 796.521 Q241.713 799.693 241.713 805.109 Q241.713 810.688 238.241 813.79 Q234.769 816.869 228.449 816.869 Q226.273 816.869 224.005 816.498 Q221.76 816.128 219.352 815.387 L219.352 810.688 Q221.436 811.822 223.658 812.378 Q225.88 812.933 228.357 812.933 Q232.361 812.933 234.699 810.827 Q237.037 808.72 237.037 805.109 Q237.037 801.498 234.699 799.392 Q232.361 797.285 228.357 797.285 Q226.482 797.285 224.607 797.702 Q222.755 798.119 220.811 798.998 L220.811 781.637 Z" fill="#000000" fill-rule="nonzero" fill-opacity="1" /><path clip-path="url(#clip170)" d="M260.926 784.716 Q257.315 784.716 255.486 788.281 Q253.681 791.822 253.681 798.952 Q253.681 806.058 255.486 809.623 Q257.315 813.165 260.926 813.165 Q264.56 813.165 266.366 809.623 Q268.195 806.058 268.195 798.952 Q268.195 791.822 266.366 788.281 Q264.56 784.716 260.926 784.716 M260.926 781.012 Q266.736 781.012 269.792 785.619 Q272.87 790.202 272.87 798.952 Q272.87 807.679 269.792 812.285 Q266.736 816.869 260.926 816.869 Q255.116 816.869 252.037 812.285 Q248.982 807.679 248.982 798.952 Q248.982 790.202 252.037 785.619 Q255.116 781.012 260.926 781.012 Z" fill="#000000" fill-rule="nonzero" fill-opacity="1" /><path clip-path="url(#clip170)" d="M117.015 611.638 L124.654 611.638 L124.654 585.272 L116.343 586.939 L116.343 582.679 L124.607 581.013 L129.283 581.013 L129.283 611.638 L136.922 611.638 L136.922 615.573 L117.015 615.573 L117.015 611.638 Z" fill="#000000" fill-rule="nonzero" fill-opacity="1" /><path clip-path="url(#clip170)" d="M146.366 609.693 L151.251 609.693 L151.251 615.573 L146.366 615.573 L146.366 609.693 Z" fill="#000000" fill-rule="nonzero" fill-opacity="1" /><path clip-path="url(#clip170)" d="M171.436 584.091 Q167.825 584.091 165.996 587.656 Q164.19 591.198 164.19 598.327 Q164.19 605.434 165.996 608.999 Q167.825 612.54 171.436 612.54 Q175.07 612.54 176.876 608.999 Q178.704 605.434 178.704 598.327 Q178.704 591.198 176.876 587.656 Q175.07 584.091 171.436 584.091 M171.436 580.388 Q177.246 580.388 180.301 584.994 Q183.38 589.578 183.38 598.327 Q183.38 607.054 180.301 611.661 Q177.246 616.244 171.436 616.244 Q165.626 616.244 162.547 611.661 Q159.491 607.054 159.491 598.327 Q159.491 589.578 162.547 584.994 Q165.626 580.388 171.436 580.388 Z" fill="#000000" fill-rule="nonzero" fill-opacity="1" /><path clip-path="url(#clip170)" d="M201.598 584.091 Q197.987 584.091 196.158 587.656 Q194.352 591.198 194.352 598.327 Q194.352 605.434 196.158 608.999 Q197.987 612.54 201.598 612.54 Q205.232 612.54 207.037 608.999 Q208.866 605.434 208.866 598.327 Q208.866 591.198 207.037 587.656 Q205.232 584.091 201.598 584.091 M201.598 580.388 Q207.408 580.388 210.463 584.994 Q213.542 589.578 213.542 598.327 Q213.542 607.054 210.463 611.661 Q207.408 616.244 201.598 616.244 Q195.787 616.244 192.709 611.661 Q189.653 607.054 189.653 598.327 Q189.653 589.578 192.709 584.994 Q195.787 580.388 201.598 580.388 Z" fill="#000000" fill-rule="nonzero" fill-opacity="1" /><path clip-path="url(#clip170)" d="M220.579 581.013 L242.801 581.013 L242.801 583.003 L230.255 615.573 L225.371 615.573 L237.176 584.948 L220.579 584.948 L220.579 581.013 Z" fill="#000000" fill-rule="nonzero" fill-opacity="1" /><path clip-path="url(#clip170)" d="M251.968 581.013 L270.324 581.013 L270.324 584.948 L256.25 584.948 L256.25 593.42 Q257.269 593.073 258.287 592.911 Q259.306 592.726 260.324 592.726 Q266.111 592.726 269.491 595.897 Q272.87 599.068 272.87 604.485 Q272.87 610.064 269.398 613.165 Q265.926 616.244 259.607 616.244 Q257.431 616.244 255.162 615.874 Q252.917 615.503 250.509 614.763 L250.509 610.064 Q252.593 611.198 254.815 611.753 Q257.037 612.309 259.514 612.309 Q263.519 612.309 265.857 610.202 Q268.195 608.096 268.195 604.485 Q268.195 600.874 265.857 598.767 Q263.519 596.661 259.514 596.661 Q257.639 596.661 255.764 597.077 Q253.912 597.494 251.968 598.374 L251.968 581.013 Z" fill="#000000" fill-rule="nonzero" fill-opacity="1" /><path clip-path="url(#clip170)" d="M116.019 411.013 L123.658 411.013 L123.658 384.647 L115.348 386.314 L115.348 382.055 L123.612 380.388 L128.288 380.388 L128.288 411.013 L135.927 411.013 L135.927 414.948 L116.019 414.948 L116.019 411.013 Z" fill="#000000" fill-rule="nonzero" fill-opacity="1" /><path clip-path="url(#clip170)" d="M145.371 409.069 L150.255 409.069 L150.255 414.948 L145.371 414.948 L145.371 409.069 Z" fill="#000000" fill-rule="nonzero" fill-opacity="1" /><path clip-path="url(#clip170)" d="M170.44 383.467 Q166.829 383.467 165.001 387.032 Q163.195 390.573 163.195 397.703 Q163.195 404.809 165.001 408.374 Q166.829 411.916 170.44 411.916 Q174.075 411.916 175.88 408.374 Q177.709 404.809 177.709 397.703 Q177.709 390.573 175.88 387.032 Q174.075 383.467 170.44 383.467 M170.44 379.763 Q176.251 379.763 179.306 384.37 Q182.385 388.953 182.385 397.703 Q182.385 406.43 179.306 411.036 Q176.251 415.619 170.44 415.619 Q164.63 415.619 161.552 411.036 Q158.496 406.43 158.496 397.703 Q158.496 388.953 161.552 384.37 Q164.63 379.763 170.44 379.763 Z" fill="#000000" fill-rule="nonzero" fill-opacity="1" /><path clip-path="url(#clip170)" d="M191.413 411.013 L199.051 411.013 L199.051 384.647 L190.741 386.314 L190.741 382.055 L199.005 380.388 L203.681 380.388 L203.681 411.013 L211.32 411.013 L211.32 414.948 L191.413 414.948 L191.413 411.013 Z" fill="#000000" fill-rule="nonzero" fill-opacity="1" /><path clip-path="url(#clip170)" d="M230.764 383.467 Q227.153 383.467 225.324 387.032 Q223.519 390.573 223.519 397.703 Q223.519 404.809 225.324 408.374 Q227.153 411.916 230.764 411.916 Q234.398 411.916 236.204 408.374 Q238.033 404.809 238.033 397.703 Q238.033 390.573 236.204 387.032 Q234.398 383.467 230.764 383.467 M230.764 379.763 Q236.574 379.763 239.63 384.37 Q242.709 388.953 242.709 397.703 Q242.709 406.43 239.63 411.036 Q236.574 415.619 230.764 415.619 Q224.954 415.619 221.875 411.036 Q218.82 406.43 218.82 397.703 Q218.82 388.953 221.875 384.37 Q224.954 379.763 230.764 379.763 Z" fill="#000000" fill-rule="nonzero" fill-opacity="1" /><path clip-path="url(#clip170)" d="M260.926 383.467 Q257.315 383.467 255.486 387.032 Q253.681 390.573 253.681 397.703 Q253.681 404.809 255.486 408.374 Q257.315 411.916 260.926 411.916 Q264.56 411.916 266.366 408.374 Q268.195 404.809 268.195 397.703 Q268.195 390.573 266.366 387.032 Q264.56 383.467 260.926 383.467 M260.926 379.763 Q266.736 379.763 269.792 384.37 Q272.87 388.953 272.87 397.703 Q272.87 406.43 269.792 411.036 Q266.736 415.619 260.926 415.619 Q255.116 415.619 252.037 411.036 Q248.982 406.43 248.982 397.703 Q248.982 388.953 252.037 384.37 Q255.116 379.763 260.926 379.763 Z" fill="#000000" fill-rule="nonzero" fill-opacity="1" /><path clip-path="url(#clip170)" d="M117.015 210.388 L124.654 210.388 L124.654 184.023 L116.343 185.69 L116.343 181.43 L124.607 179.764 L129.283 179.764 L129.283 210.388 L136.922 210.388 L136.922 214.324 L117.015 214.324 L117.015 210.388 Z" fill="#000000" fill-rule="nonzero" fill-opacity="1" /><path clip-path="url(#clip170)" d="M146.366 208.444 L151.251 208.444 L151.251 214.324 L146.366 214.324 L146.366 208.444 Z" fill="#000000" fill-rule="nonzero" fill-opacity="1" /><path clip-path="url(#clip170)" d="M171.436 182.842 Q167.825 182.842 165.996 186.407 Q164.19 189.949 164.19 197.078 Q164.19 204.185 165.996 207.75 Q167.825 211.291 171.436 211.291 Q175.07 211.291 176.876 207.75 Q178.704 204.185 178.704 197.078 Q178.704 189.949 176.876 186.407 Q175.07 182.842 171.436 182.842 M171.436 179.139 Q177.246 179.139 180.301 183.745 Q183.38 188.328 183.38 197.078 Q183.38 205.805 180.301 210.412 Q177.246 214.995 171.436 214.995 Q165.626 214.995 162.547 210.412 Q159.491 205.805 159.491 197.078 Q159.491 188.328 162.547 183.745 Q165.626 179.139 171.436 179.139 Z" fill="#000000" fill-rule="nonzero" fill-opacity="1" /><path clip-path="url(#clip170)" d="M192.408 210.388 L200.047 210.388 L200.047 184.023 L191.737 185.69 L191.737 181.43 L200 179.764 L204.676 179.764 L204.676 210.388 L212.315 210.388 L212.315 214.324 L192.408 214.324 L192.408 210.388 Z" fill="#000000" fill-rule="nonzero" fill-opacity="1" /><path clip-path="url(#clip170)" d="M225.787 210.388 L242.107 210.388 L242.107 214.324 L220.162 214.324 L220.162 210.388 Q222.824 207.634 227.408 203.004 Q232.014 198.352 233.195 197.009 Q235.44 194.486 236.32 192.75 Q237.222 190.99 237.222 189.301 Q237.222 186.546 235.278 184.81 Q233.357 183.074 230.255 183.074 Q228.056 183.074 225.602 183.838 Q223.172 184.602 220.394 186.153 L220.394 181.43 Q223.218 180.296 225.672 179.717 Q228.125 179.139 230.162 179.139 Q235.533 179.139 238.727 181.824 Q241.922 184.509 241.922 189 Q241.922 191.129 241.111 193.051 Q240.324 194.949 238.218 197.541 Q237.639 198.213 234.537 201.43 Q231.435 204.625 225.787 210.388 Z" fill="#000000" fill-rule="nonzero" fill-opacity="1" /><path clip-path="url(#clip170)" d="M251.968 179.764 L270.324 179.764 L270.324 183.699 L256.25 183.699 L256.25 192.171 Q257.269 191.824 258.287 191.662 Q259.306 191.477 260.324 191.477 Q266.111 191.477 269.491 194.648 Q272.87 197.819 272.87 203.236 Q272.87 208.814 269.398 211.916 Q265.926 214.995 259.607 214.995 Q257.431 214.995 255.162 214.625 Q252.917 214.254 250.509 213.513 L250.509 208.814 Q252.593 209.949 254.815 210.504 Q257.037 211.06 259.514 211.06 Q263.519 211.06 265.857 208.953 Q268.195 206.847 268.195 203.236 Q268.195 199.625 265.857 197.518 Q263.519 195.412 259.514 195.412 Q257.639 195.412 255.764 195.828 Q253.912 196.245 251.968 197.125 L251.968 179.764 Z" fill="#000000" fill-rule="nonzero" fill-opacity="1" /><path clip-path="url(#clip170)" d="M57.2247 896.821 L44.4614 896.821 L44.4614 907.325 L39.1779 907.325 L39.1779 890.456 L59.58 890.456 Q62.2218 894.18 63.5904 898.667 Q64.9272 903.155 64.9272 908.248 Q64.9272 919.388 58.4342 925.69 Q51.9093 931.96 40.2919 931.96 Q28.6427 931.96 22.1496 925.69 Q15.6248 919.388 15.6248 908.248 Q15.6248 903.601 16.7706 899.431 Q17.9164 895.23 20.1444 891.697 L26.9876 891.697 Q23.9639 895.262 22.4361 899.272 Q20.9083 903.283 20.9083 907.707 Q20.9083 916.428 25.7781 920.82 Q30.6479 925.181 40.2919 925.181 Q49.9041 925.181 54.7739 920.82 Q59.6436 916.428 59.6436 907.707 Q59.6436 904.301 59.0707 901.627 Q58.466 898.954 57.2247 896.821 Z" fill="#000000" fill-rule="nonzero" fill-opacity="1" /><path clip-path="url(#clip170)" d="M21.7677 872.282 L58.7206 872.282 L58.7206 864.515 Q58.7206 854.68 54.2646 850.129 Q49.8086 845.546 40.1964 845.546 Q30.6479 845.546 26.2237 850.129 Q21.7677 854.68 21.7677 864.515 L21.7677 872.282 M16.4842 878.711 L16.4842 865.502 Q16.4842 851.688 22.2451 845.227 Q27.9743 838.766 40.1964 838.766 Q52.4822 838.766 58.2432 845.259 Q64.0042 851.752 64.0042 865.502 L64.0042 878.711 L16.4842 878.711 Z" fill="#000000" fill-rule="nonzero" fill-opacity="1" /><path clip-path="url(#clip170)" d="M21.7677 822.088 L39.6235 822.088 L39.6235 814.004 Q39.6235 809.516 37.3 807.065 Q34.9765 804.614 30.6797 804.614 Q26.4147 804.614 24.0912 807.065 Q21.7677 809.516 21.7677 814.004 L21.7677 822.088 M16.4842 828.517 L16.4842 814.004 Q16.4842 806.015 20.1126 801.94 Q23.7092 797.835 30.6797 797.835 Q37.7138 797.835 41.3104 801.94 Q44.907 806.015 44.907 814.004 L44.907 822.088 L64.0042 822.088 L64.0042 828.517 L16.4842 828.517 Z" fill="#000000" fill-rule="nonzero" fill-opacity="1" /><path clip-path="url(#clip170)" d="M29.7248 743.09 L35.1993 743.09 Q33.8307 745.572 33.1623 748.087 Q32.4621 750.569 32.4621 753.116 Q32.4621 758.813 36.0905 761.964 Q39.6872 765.115 46.212 765.115 Q52.7369 765.115 56.3653 761.964 Q59.9619 758.813 59.9619 753.116 Q59.9619 750.569 59.2935 748.087 Q58.5933 745.572 57.2247 743.09 L62.6355 743.09 Q63.7814 745.54 64.3543 748.182 Q64.9272 750.792 64.9272 753.752 Q64.9272 761.805 59.8664 766.547 Q54.8057 771.29 46.212 771.29 Q37.491 771.29 32.4939 766.515 Q27.4968 761.709 27.4968 753.37 Q27.4968 750.665 28.0697 748.087 Q28.6108 745.508 29.7248 743.09 Z" fill="#000000" fill-rule="nonzero" fill-opacity="1" /><path clip-path="url(#clip170)" d="M42.4881 703.272 L64.0042 703.272 L64.0042 709.128 L42.679 709.128 Q37.6183 709.128 35.1038 711.102 Q32.5894 713.075 32.5894 717.022 Q32.5894 721.764 35.6131 724.502 Q38.6368 727.239 43.8567 727.239 L64.0042 727.239 L64.0042 733.127 L14.479 733.127 L14.479 727.239 L33.8944 727.239 Q30.6797 725.138 29.0883 722.305 Q27.4968 719.441 27.4968 715.717 Q27.4968 709.574 31.3163 706.423 Q35.1038 703.272 42.4881 703.272 Z" fill="#000000" fill-rule="nonzero" fill-opacity="1" /><path clip-path="url(#clip170)" d="M46.0847 675.39 Q46.0847 682.488 47.7079 685.225 Q49.3312 687.963 53.2461 687.963 Q56.3653 687.963 58.2114 685.925 Q60.0256 683.857 60.0256 680.324 Q60.0256 675.454 56.5881 672.526 Q53.1188 669.566 47.3897 669.566 L46.0847 669.566 L46.0847 675.39 M43.6657 663.709 L64.0042 663.709 L64.0042 669.566 L58.5933 669.566 Q61.8398 671.571 63.3994 674.563 Q64.9272 677.555 64.9272 681.883 Q64.9272 687.358 61.8716 690.604 Q58.7843 693.819 53.6281 693.819 Q47.6125 693.819 44.5569 689.809 Q41.5014 685.766 41.5014 677.777 L41.5014 669.566 L40.9285 669.566 Q36.8862 669.566 34.6901 672.239 Q32.4621 674.881 32.4621 679.687 Q32.4621 682.743 33.1941 685.639 Q33.9262 688.535 35.3903 691.209 L29.9795 691.209 Q28.7381 687.994 28.1334 684.971 Q27.4968 681.947 27.4968 679.082 Q27.4968 671.348 31.5072 667.529 Q35.5176 663.709 43.6657 663.709 Z" fill="#000000" fill-rule="nonzero" fill-opacity="1" /><path clip-path="url(#clip170)" d="M42.4881 622.014 L64.0042 622.014 L64.0042 627.87 L42.679 627.87 Q37.6183 627.87 35.1038 629.844 Q32.5894 631.817 32.5894 635.764 Q32.5894 640.506 35.6131 643.243 Q38.6368 645.981 43.8567 645.981 L64.0042 645.981 L64.0042 651.869 L28.3562 651.869 L28.3562 645.981 L33.8944 645.981 Q30.6797 643.88 29.0883 641.047 Q27.4968 638.183 27.4968 634.459 Q27.4968 628.316 31.3163 625.165 Q35.1038 622.014 42.4881 622.014 Z" fill="#000000" fill-rule="nonzero" fill-opacity="1" /><path clip-path="url(#clip170)" d="M45.7664 586.875 Q39.4007 586.875 35.8996 589.517 Q32.3984 592.127 32.3984 596.869 Q32.3984 601.58 35.8996 604.222 Q39.4007 606.832 45.7664 606.832 Q52.1003 606.832 55.6014 604.222 Q59.1026 601.58 59.1026 596.869 Q59.1026 592.127 55.6014 589.517 Q52.1003 586.875 45.7664 586.875 M59.58 581.019 Q68.683 581.019 73.1071 585.061 Q77.5631 589.103 77.5631 597.442 Q77.5631 600.53 77.0857 603.267 Q76.6401 606.004 75.6852 608.582 L69.9879 608.582 Q71.3884 606.004 72.0568 603.49 Q72.7252 600.975 72.7252 598.365 Q72.7252 592.604 69.7015 589.74 Q66.7096 586.875 60.6303 586.875 L57.7339 586.875 Q60.885 588.689 62.4446 591.522 Q64.0042 594.355 64.0042 598.302 Q64.0042 604.858 59.0071 608.869 Q54.01 612.879 45.7664 612.879 Q37.491 612.879 32.4939 608.869 Q27.4968 604.858 27.4968 598.302 Q27.4968 594.355 29.0564 591.522 Q30.616 588.689 33.7671 586.875 L28.3562 586.875 L28.3562 581.019 L59.58 581.019 Z" fill="#000000" fill-rule="nonzero" fill-opacity="1" /><path clip-path="url(#clip170)" d="M44.7161 538.464 L47.5806 538.464 L47.5806 565.391 Q53.6281 565.009 56.8109 561.762 Q59.9619 558.484 59.9619 552.659 Q59.9619 549.286 59.1344 546.135 Q58.3069 542.952 56.6518 539.833 L62.1899 539.833 Q63.5267 542.984 64.227 546.294 Q64.9272 549.604 64.9272 553.01 Q64.9272 561.54 59.9619 566.537 Q54.9967 571.502 46.5303 571.502 Q37.7774 571.502 32.6531 566.791 Q27.4968 562.049 27.4968 554.028 Q27.4968 546.835 32.1438 542.665 Q36.7589 538.464 44.7161 538.464 M42.9973 544.32 Q38.1912 544.384 35.3266 547.026 Q32.4621 549.636 32.4621 553.964 Q32.4621 558.866 35.2312 561.826 Q38.0002 564.754 43.0292 565.2 L42.9973 544.32 Z" fill="#000000" fill-rule="nonzero" fill-opacity="1" /><path clip-path="url(#clip172)" d="M366.716 1200.17 L487.228 1329.17 L607.74 756.197 L728.253 391.028 L848.765 540.503 L969.277 878.917 L1089.79 914.019 L1210.3 946.109 L1330.81 1092.91 L1451.33 1167.48 L1571.84 1350.46 L1692.35 1371.56 L1812.86 1384.24 L1933.37 1292.3 L2053.89 1149.03 L2174.4 1176.77 L2294.91 1241.57 L2294.91 453.151 L2174.4 411.43 L2053.89 404.995 L1933.37 568.695 L1812.86 679.869 L1692.35 693.551 L1571.84 699.394 L1451.33 534.137 L1330.81 506.265 L1210.3 404.964 L1089.79 425.925 L969.277 481.735 L848.765 197.785 L728.253 86.1857 L607.74 497.899 L487.228 1136.34 L366.716 1200.17  Z" fill="#009af9" fill-rule="evenodd" fill-opacity="0.2"/>
<polyline clip-path="url(#clip172)" style="stroke:#009af9; stroke-linecap:round; stroke-linejoin:round; stroke-width:4; stroke-opacity:1; fill:none" points="366.716,1200.17 487.228,1232.75 607.74,627.048 728.253,238.607 848.765,369.144 969.277,680.326 1089.79,669.972 1210.3,675.537 1330.81,799.589 1451.33,850.808 1571.84,1024.93 1692.35,1032.56 1812.86,1032.05 1933.37,930.496 2053.89,777.013 2174.4,794.102 2294.91,847.363 "/>
</svg>
