<?xml version="1.0" encoding="utf-8"?>
<svg xmlns="http://www.w3.org/2000/svg" xmlns:xlink="http://www.w3.org/1999/xlink" width="600" height="400" viewBox="0 0 2400 1600">
<defs>
  <clipPath id="clip170">
    <rect x="0" y="0" width="2400" height="1600"/>
  </clipPath>
</defs>
<path clip-path="url(#clip170)" d="M0 1600 L2400 1600 L2400 0 L0 0  Z" fill="#ffffff" fill-rule="evenodd" fill-opacity="1"/>
<defs>
  <clipPath id="clip171">
    <rect x="480" y="0" width="1681" height="1600"/>
  </clipPath>
</defs>
<path clip-path="url(#clip170)" d="M277.528 1423.18 L2352.76 1423.18 L2352.76 47.2441 L277.528 47.2441  Z" fill="#ffffff" fill-rule="evenodd" fill-opacity="1"/>
<defs>
  <clipPath id="clip172">
    <rect x="277" y="47" width="2076" height="1377"/>
  </clipPath>
</defs>
<polyline clip-path="url(#clip172)" style="stroke:#000000; stroke-linecap:round; stroke-linejoin:round; stroke-width:2; stroke-opacity:0.1; fill:none" points="580.981,1423.18 580.981,47.2441 "/>
<polyline clip-path="url(#clip172)" style="stroke:#000000; stroke-linecap:round; stroke-linejoin:round; stroke-width:2; stroke-opacity:0.1; fill:none" points="948.062,1423.18 948.062,47.2441 "/>
<polyline clip-path="url(#clip172)" style="stroke:#000000; stroke-linecap:round; stroke-linejoin:round; stroke-width:2; stroke-opacity:0.1; fill:none" points="1315.14,1423.18 1315.14,47.2441 "/>
<polyline clip-path="url(#clip172)" style="stroke:#000000; stroke-linecap:round; stroke-linejoin:round; stroke-width:2; stroke-opacity:0.1; fill:none" points="1682.22,1423.18 1682.22,47.2441 "/>
<polyline clip-path="url(#clip172)" style="stroke:#000000; stroke-linecap:round; stroke-linejoin:round; stroke-width:2; stroke-opacity:0.1; fill:none" points="2049.3,1423.18 2049.3,47.2441 "/>
<polyline clip-path="url(#clip172)" style="stroke:#000000; stroke-linecap:round; stroke-linejoin:round; stroke-width:2; stroke-opacity:0.1; fill:none" points="277.528,1174.02 2352.76,1174.02 "/>
<polyline clip-path="url(#clip172)" style="stroke:#000000; stroke-linecap:round; stroke-linejoin:round; stroke-width:2; stroke-opacity:0.1; fill:none" points="277.528,858.699 2352.76,858.699 "/>
<polyline clip-path="url(#clip172)" style="stroke:#000000; stroke-linecap:round; stroke-linejoin:round; stroke-width:2; stroke-opacity:0.1; fill:none" points="277.528,543.375 2352.76,543.375 "/>
<polyline clip-path="url(#clip172)" style="stroke:#000000; stroke-linecap:round; stroke-linejoin:round; stroke-width:2; stroke-opacity:0.1; fill:none" points="277.528,228.052 2352.76,228.052 "/>
<polyline clip-path="url(#clip170)" style="stroke:#000000; stroke-linecap:round; stroke-linejoin:round; stroke-width:4; stroke-opacity:1; fill:none" points="277.528,1423.18 2352.76,1423.18 "/>
<polyline clip-path="url(#clip170)" style="stroke:#000000; stroke-linecap:round; stroke-linejoin:round; stroke-width:4; stroke-opacity:1; fill:none" points="580.981,1423.18 580.981,1404.28 "/>
<polyline clip-path="url(#clip170)" style="stroke:#000000; stroke-linecap:round; stroke-linejoin:round; stroke-width:4; stroke-opacity:1; fill:none" points="948.062,1423.18 948.062,1404.28 "/>
<polyline clip-path="url(#clip170)" style="stroke:#000000; stroke-linecap:round; stroke-linejoin:round; stroke-width:4; stroke-opacity:1; fill:none" points="1315.14,1423.18 1315.14,1404.28 "/>
<polyline clip-path="url(#clip170)" style="stroke:#000000; stroke-linecap:round; stroke-linejoin:round; stroke-width:4; stroke-opacity:1; fill:none" points="1682.22,1423.18 1682.22,1404.28 "/>
<polyline clip-path="url(#clip170)" style="stroke:#000000; stroke-linecap:round; stroke-linejoin:round; stroke-width:4; stroke-opacity:1; fill:none" points="2049.3,1423.18 2049.3,1404.28 "/>
<path clip-path="url(#clip170)" d="M585.229 1466.95 Q588.585 1467.66 590.46 1469.93 Q592.358 1472.2 592.358 1475.53 Q592.358 1480.65 588.84 1483.45 Q585.321 1486.25 578.84 1486.25 Q576.664 1486.25 574.349 1485.81 Q572.058 1485.39 569.604 1484.54 L569.604 1480.02 Q571.548 1481.16 573.863 1481.74 Q576.178 1482.32 578.701 1482.32 Q583.099 1482.32 585.391 1480.58 Q587.706 1478.84 587.706 1475.53 Q587.706 1472.48 585.553 1470.77 Q583.423 1469.03 579.604 1469.03 L575.576 1469.03 L575.576 1465.19 L579.789 1465.19 Q583.238 1465.19 585.067 1463.82 Q586.895 1462.43 586.895 1459.84 Q586.895 1457.18 584.997 1455.77 Q583.122 1454.33 579.604 1454.33 Q577.683 1454.33 575.483 1454.75 Q573.284 1455.16 570.646 1456.04 L570.646 1451.88 Q573.308 1451.14 575.622 1450.77 Q577.96 1450.39 580.02 1450.39 Q585.345 1450.39 588.446 1452.83 Q591.548 1455.23 591.548 1459.35 Q591.548 1462.22 589.905 1464.21 Q588.261 1466.18 585.229 1466.95 Z" fill="#000000" fill-rule="nonzero" fill-opacity="1" /><path clip-path="url(#clip170)" d="M948.467 1466.44 Q945.319 1466.44 943.467 1468.59 Q941.638 1470.74 941.638 1474.49 Q941.638 1478.22 943.467 1480.39 Q945.319 1482.55 948.467 1482.55 Q951.615 1482.55 953.443 1480.39 Q955.295 1478.22 955.295 1474.49 Q955.295 1470.74 953.443 1468.59 Q951.615 1466.44 948.467 1466.44 M957.749 1451.78 L957.749 1456.04 Q955.99 1455.21 954.184 1454.77 Q952.402 1454.33 950.643 1454.33 Q946.013 1454.33 943.559 1457.45 Q941.129 1460.58 940.781 1466.9 Q942.147 1464.89 944.207 1463.82 Q946.268 1462.73 948.744 1462.73 Q953.953 1462.73 956.962 1465.9 Q959.994 1469.05 959.994 1474.49 Q959.994 1479.82 956.846 1483.03 Q953.698 1486.25 948.467 1486.25 Q942.471 1486.25 939.3 1481.67 Q936.129 1477.06 936.129 1468.33 Q936.129 1460.14 940.018 1455.28 Q943.906 1450.39 950.457 1450.39 Q952.217 1450.39 953.999 1450.74 Q955.805 1451.09 957.749 1451.78 Z" fill="#000000" fill-rule="nonzero" fill-opacity="1" /><path clip-path="url(#clip170)" d="M1305.44 1484.86 L1305.44 1480.6 Q1307.2 1481.44 1309.01 1481.88 Q1310.81 1482.32 1312.55 1482.32 Q1317.18 1482.32 1319.61 1479.21 Q1322.06 1476.09 1322.41 1469.75 Q1321.07 1471.74 1319.01 1472.8 Q1316.95 1473.87 1314.45 1473.87 Q1309.26 1473.87 1306.23 1470.74 Q1303.22 1467.59 1303.22 1462.15 Q1303.22 1456.83 1306.37 1453.61 Q1309.52 1450.39 1314.75 1450.39 Q1320.74 1450.39 1323.89 1455 Q1327.06 1459.58 1327.06 1468.33 Q1327.06 1476.51 1323.17 1481.39 Q1319.31 1486.25 1312.76 1486.25 Q1311 1486.25 1309.19 1485.9 Q1307.39 1485.56 1305.44 1484.86 M1314.75 1470.21 Q1317.9 1470.21 1319.73 1468.06 Q1321.58 1465.9 1321.58 1462.15 Q1321.58 1458.43 1319.73 1456.27 Q1317.9 1454.1 1314.75 1454.1 Q1311.6 1454.1 1309.75 1456.27 Q1307.92 1458.43 1307.92 1462.15 Q1307.92 1465.9 1309.75 1468.06 Q1311.6 1470.21 1314.75 1470.21 Z" fill="#000000" fill-rule="nonzero" fill-opacity="1" /><path clip-path="url(#clip170)" d="M1657.71 1481.64 L1665.35 1481.64 L1665.35 1455.28 L1657.04 1456.95 L1657.04 1452.69 L1665.3 1451.02 L1669.98 1451.02 L1669.98 1481.64 L1677.62 1481.64 L1677.62 1485.58 L1657.71 1485.58 L1657.71 1481.64 Z" fill="#000000" fill-rule="nonzero" fill-opacity="1" /><path clip-path="url(#clip170)" d="M1691.09 1481.64 L1707.41 1481.64 L1707.41 1485.58 L1685.46 1485.58 L1685.46 1481.64 Q1688.13 1478.89 1692.71 1474.26 Q1697.31 1469.61 1698.5 1468.27 Q1700.74 1465.74 1701.62 1464.01 Q1702.52 1462.25 1702.52 1460.56 Q1702.52 1457.8 1700.58 1456.07 Q1698.66 1454.33 1695.56 1454.33 Q1693.36 1454.33 1690.9 1455.09 Q1688.47 1455.86 1685.69 1457.41 L1685.69 1452.69 Q1688.52 1451.55 1690.97 1450.97 Q1693.43 1450.39 1695.46 1450.39 Q1700.83 1450.39 1704.03 1453.08 Q1707.22 1455.77 1707.22 1460.26 Q1707.22 1462.39 1706.41 1464.31 Q1705.63 1466.2 1703.52 1468.8 Q1702.94 1469.47 1699.84 1472.69 Q1696.74 1475.88 1691.09 1481.64 Z" fill="#000000" fill-rule="nonzero" fill-opacity="1" /><path clip-path="url(#clip170)" d="M2024.49 1481.64 L2032.13 1481.64 L2032.13 1455.28 L2023.82 1456.95 L2023.82 1452.69 L2032.08 1451.02 L2036.76 1451.02 L2036.76 1481.64 L2044.4 1481.64 L2044.4 1485.58 L2024.49 1485.58 L2024.49 1481.64 Z" fill="#000000" fill-rule="nonzero" fill-opacity="1" /><path clip-path="url(#clip170)" d="M2053.89 1451.02 L2072.24 1451.02 L2072.24 1454.96 L2058.17 1454.96 L2058.17 1463.43 Q2059.19 1463.08 2060.21 1462.92 Q2061.22 1462.73 2062.24 1462.73 Q2068.03 1462.73 2071.41 1465.9 Q2074.79 1469.08 2074.79 1474.49 Q2074.79 1480.07 2071.32 1483.17 Q2067.84 1486.25 2061.52 1486.25 Q2059.35 1486.25 2057.08 1485.88 Q2054.84 1485.51 2052.43 1484.77 L2052.43 1480.07 Q2054.51 1481.2 2056.73 1481.76 Q2058.96 1482.32 2061.43 1482.32 Q2065.44 1482.32 2067.77 1480.21 Q2070.11 1478.1 2070.11 1474.49 Q2070.11 1470.88 2067.77 1468.77 Q2065.44 1466.67 2061.43 1466.67 Q2059.56 1466.67 2057.68 1467.08 Q2055.83 1467.5 2053.89 1468.38 L2053.89 1451.02 Z" fill="#000000" fill-rule="nonzero" fill-opacity="1" /><path clip-path="url(#clip170)" d="M1186.65 1550.25 Q1186.65 1556.71 1189.29 1560.4 Q1191.97 1564.07 1196.61 1564.07 Q1201.26 1564.07 1203.93 1560.4 Q1206.61 1556.71 1206.61 1550.25 Q1206.61 1543.79 1203.93 1540.13 Q1201.26 1536.44 1196.61 1536.44 Q1191.97 1536.44 1189.29 1540.13 Q1186.65 1543.79 1186.65 1550.25 M1206.61 1562.7 Q1204.76 1565.88 1201.93 1567.44 Q1199.13 1568.97 1195.18 1568.97 Q1188.72 1568.97 1184.64 1563.81 Q1180.6 1558.65 1180.6 1550.25 Q1180.6 1541.85 1184.64 1536.69 Q1188.72 1531.54 1195.18 1531.54 Q1199.13 1531.54 1201.93 1533.1 Q1204.76 1534.62 1206.61 1537.81 L1206.61 1532.4 L1212.46 1532.4 L1212.46 1581.6 L1206.61 1581.6 L1206.61 1562.7 Z" fill="#000000" fill-rule="nonzero" fill-opacity="1" /><path clip-path="url(#clip170)" d="M1223.92 1553.98 L1223.92 1532.4 L1229.78 1532.4 L1229.78 1553.75 Q1229.78 1558.81 1231.75 1561.36 Q1233.72 1563.87 1237.67 1563.87 Q1242.41 1563.87 1245.15 1560.85 Q1247.92 1557.83 1247.92 1552.61 L1247.92 1532.4 L1253.78 1532.4 L1253.78 1568.04 L1247.92 1568.04 L1247.92 1562.57 Q1245.79 1565.82 1242.95 1567.41 Q1240.15 1568.97 1236.43 1568.97 Q1230.29 1568.97 1227.1 1565.15 Q1223.92 1561.33 1223.92 1553.98 M1238.66 1531.54 L1238.66 1531.54 Z" fill="#000000" fill-rule="nonzero" fill-opacity="1" /><path clip-path="url(#clip170)" d="M1282.04 1550.12 Q1274.94 1550.12 1272.21 1551.75 Q1269.47 1553.37 1269.47 1557.29 Q1269.47 1560.4 1271.51 1562.25 Q1273.57 1564.07 1277.11 1564.07 Q1281.98 1564.07 1284.9 1560.63 Q1287.86 1557.16 1287.86 1551.43 L1287.86 1550.12 L1282.04 1550.12 M1293.72 1547.71 L1293.72 1568.04 L1287.86 1568.04 L1287.86 1562.63 Q1285.86 1565.88 1282.87 1567.44 Q1279.88 1568.97 1275.55 1568.97 Q1270.07 1568.97 1266.83 1565.91 Q1263.61 1562.82 1263.61 1557.67 Q1263.61 1551.65 1267.62 1548.6 Q1271.66 1545.54 1279.65 1545.54 L1287.86 1545.54 L1287.86 1544.97 Q1287.86 1540.93 1285.19 1538.73 Q1282.55 1536.5 1277.74 1536.5 Q1274.69 1536.5 1271.79 1537.23 Q1268.9 1537.97 1266.22 1539.43 L1266.22 1534.02 Q1269.44 1532.78 1272.46 1532.17 Q1275.48 1531.54 1278.35 1531.54 Q1286.08 1531.54 1289.9 1535.55 Q1293.72 1539.56 1293.72 1547.71 Z" fill="#000000" fill-rule="nonzero" fill-opacity="1" /><path clip-path="url(#clip170)" d="M1326.44 1537.87 Q1325.45 1537.3 1324.28 1537.04 Q1323.13 1536.76 1321.73 1536.76 Q1316.77 1536.76 1314.09 1540 Q1311.45 1543.22 1311.45 1549.27 L1311.45 1568.04 L1305.56 1568.04 L1305.56 1532.4 L1311.45 1532.4 L1311.45 1537.93 Q1313.3 1534.69 1316.26 1533.13 Q1319.22 1531.54 1323.45 1531.54 Q1324.05 1531.54 1324.79 1531.63 Q1325.52 1531.7 1326.41 1531.85 L1326.44 1537.87 Z" fill="#000000" fill-rule="nonzero" fill-opacity="1" /><path clip-path="url(#clip170)" d="M1338.38 1522.27 L1338.38 1532.4 L1350.44 1532.4 L1350.44 1536.95 L1338.38 1536.95 L1338.38 1556.3 Q1338.38 1560.66 1339.55 1561.9 Q1340.76 1563.14 1344.42 1563.14 L1350.44 1563.14 L1350.44 1568.04 L1344.42 1568.04 Q1337.64 1568.04 1335.07 1565.53 Q1332.49 1562.98 1332.49 1556.3 L1332.49 1536.95 L1328.19 1536.95 L1328.19 1532.4 L1332.49 1532.4 L1332.49 1522.27 L1338.38 1522.27 Z" fill="#000000" fill-rule="nonzero" fill-opacity="1" /><path clip-path="url(#clip170)" d="M1388.63 1548.76 L1388.63 1551.62 L1361.71 1551.62 Q1362.09 1557.67 1365.34 1560.85 Q1368.61 1564 1374.44 1564 Q1377.81 1564 1380.96 1563.17 Q1384.15 1562.35 1387.27 1560.69 L1387.27 1566.23 Q1384.11 1567.57 1380.8 1568.27 Q1377.49 1568.97 1374.09 1568.97 Q1365.56 1568.97 1360.56 1564 Q1355.6 1559.04 1355.6 1550.57 Q1355.6 1541.82 1360.31 1536.69 Q1365.05 1531.54 1373.07 1531.54 Q1380.26 1531.54 1384.43 1536.18 Q1388.63 1540.8 1388.63 1548.76 M1382.78 1547.04 Q1382.71 1542.23 1380.07 1539.37 Q1377.46 1536.5 1373.13 1536.5 Q1368.23 1536.5 1365.27 1539.27 Q1362.34 1542.04 1361.9 1547.07 L1382.78 1547.04 Z" fill="#000000" fill-rule="nonzero" fill-opacity="1" /><path clip-path="url(#clip170)" d="M1418.9 1537.87 Q1417.92 1537.3 1416.74 1537.04 Q1415.59 1536.76 1414.19 1536.76 Q1409.23 1536.76 1406.55 1540 Q1403.91 1543.22 1403.91 1549.27 L1403.91 1568.04 L1398.02 1568.04 L1398.02 1532.4 L1403.91 1532.4 L1403.91 1537.93 Q1405.76 1534.69 1408.72 1533.13 Q1411.68 1531.54 1415.91 1531.54 Q1416.52 1531.54 1417.25 1531.63 Q1417.98 1531.7 1418.87 1531.85 L1418.9 1537.87 Z" fill="#000000" fill-rule="nonzero" fill-opacity="1" /><path clip-path="url(#clip170)" d="M1447.77 1533.45 L1447.77 1538.98 Q1445.29 1537.71 1442.62 1537.07 Q1439.94 1536.44 1437.08 1536.44 Q1432.72 1536.44 1430.52 1537.77 Q1428.36 1539.11 1428.36 1541.79 Q1428.36 1543.82 1429.92 1545 Q1431.48 1546.15 1436.19 1547.2 L1438.19 1547.64 Q1444.43 1548.98 1447.04 1551.43 Q1449.68 1553.85 1449.68 1558.21 Q1449.68 1563.17 1445.73 1566.07 Q1441.82 1568.97 1434.94 1568.97 Q1432.08 1568.97 1428.96 1568.39 Q1425.87 1567.85 1422.44 1566.74 L1422.44 1560.69 Q1425.68 1562.38 1428.83 1563.24 Q1431.98 1564.07 1435.07 1564.07 Q1439.21 1564.07 1441.44 1562.66 Q1443.67 1561.23 1443.67 1558.65 Q1443.67 1556.27 1442.04 1554.99 Q1440.45 1553.72 1435.01 1552.54 L1432.97 1552.07 Q1427.53 1550.92 1425.11 1548.56 Q1422.69 1546.18 1422.69 1542.04 Q1422.69 1537.01 1426.26 1534.27 Q1429.82 1531.54 1436.38 1531.54 Q1439.62 1531.54 1442.49 1532.01 Q1445.35 1532.49 1447.77 1533.45 Z" fill="#000000" fill-rule="nonzero" fill-opacity="1" /><polyline clip-path="url(#clip170)" style="stroke:#000000; stroke-linecap:round; stroke-linejoin:round; stroke-width:4; stroke-opacity:1; fill:none" points="277.528,1423.18 277.528,47.2441 "/>
<polyline clip-path="url(#clip170)" style="stroke:#000000; stroke-linecap:round; stroke-linejoin:round; stroke-width:4; stroke-opacity:1; fill:none" points="277.528,1174.02 296.426,1174.02 "/>
<polyline clip-path="url(#clip170)" style="stroke:#000000; stroke-linecap:round; stroke-linejoin:round; stroke-width:4; stroke-opacity:1; fill:none" points="277.528,858.699 296.426,858.699 "/>
<polyline clip-path="url(#clip170)" style="stroke:#000000; stroke-linecap:round; stroke-linejoin:round; stroke-width:4; stroke-opacity:1; fill:none" points="277.528,543.375 296.426,543.375 "/>
<polyline clip-path="url(#clip170)" style="stroke:#000000; stroke-linecap:round; stroke-linejoin:round; stroke-width:4; stroke-opacity:1; fill:none" points="277.528,228.052 296.426,228.052 "/>
<path clip-path="url(#clip170)" d="M116.436 1187.37 L124.075 1187.37 L124.075 1161 L115.765 1162.67 L115.765 1158.41 L124.029 1156.74 L128.705 1156.74 L128.705 1187.37 L136.343 1187.37 L136.343 1191.3 L116.436 1191.3 L116.436 1187.37 Z" fill="#000000" fill-rule="nonzero" fill-opacity="1" /><path clip-path="url(#clip170)" d="M145.788 1185.42 L150.672 1185.42 L150.672 1191.3 L145.788 1191.3 L145.788 1185.42 Z" fill="#000000" fill-rule="nonzero" fill-opacity="1" /><path clip-path="url(#clip170)" d="M170.857 1159.82 Q167.246 1159.82 165.417 1163.39 Q163.612 1166.93 163.612 1174.06 Q163.612 1181.16 165.417 1184.73 Q167.246 1188.27 170.857 1188.27 Q174.491 1188.27 176.297 1184.73 Q178.126 1181.16 178.126 1174.06 Q178.126 1166.93 176.297 1163.39 Q174.491 1159.82 170.857 1159.82 M170.857 1156.12 Q176.667 1156.12 179.723 1160.72 Q182.801 1165.31 182.801 1174.06 Q182.801 1182.78 179.723 1187.39 Q176.667 1191.97 170.857 1191.97 Q165.047 1191.97 161.968 1187.39 Q158.913 1182.78 158.913 1174.06 Q158.913 1165.31 161.968 1160.72 Q165.047 1156.12 170.857 1156.12 Z" fill="#000000" fill-rule="nonzero" fill-opacity="1" /><path clip-path="url(#clip170)" d="M201.019 1159.82 Q197.408 1159.82 195.579 1163.39 Q193.774 1166.93 193.774 1174.06 Q193.774 1181.16 195.579 1184.73 Q197.408 1188.27 201.019 1188.27 Q204.653 1188.27 206.459 1184.73 Q208.287 1181.16 208.287 1174.06 Q208.287 1166.93 206.459 1163.39 Q204.653 1159.82 201.019 1159.82 M201.019 1156.12 Q206.829 1156.12 209.885 1160.72 Q212.963 1165.31 212.963 1174.06 Q212.963 1182.78 209.885 1187.39 Q206.829 1191.97 201.019 1191.97 Q195.209 1191.97 192.13 1187.39 Q189.075 1182.78 189.075 1174.06 Q189.075 1165.31 192.13 1160.72 Q195.209 1156.12 201.019 1156.12 Z" fill="#000000" fill-rule="nonzero" fill-opacity="1" /><path clip-path="url(#clip170)" d="M225.209 1187.37 L241.528 1187.37 L241.528 1191.3 L219.584 1191.3 L219.584 1187.37 Q222.246 1184.61 226.829 1179.98 Q231.435 1175.33 232.616 1173.99 Q234.861 1171.46 235.741 1169.73 Q236.644 1167.97 236.644 1166.28 Q236.644 1163.52 234.699 1161.79 Q232.778 1160.05 229.676 1160.05 Q227.477 1160.05 225.023 1160.82 Q222.593 1161.58 219.815 1163.13 L219.815 1158.41 Q222.639 1157.27 225.093 1156.7 Q227.547 1156.12 229.584 1156.12 Q234.954 1156.12 238.148 1158.8 Q241.343 1161.49 241.343 1165.98 Q241.343 1168.11 240.533 1170.03 Q239.746 1171.93 237.639 1174.52 Q237.06 1175.19 233.959 1178.41 Q230.857 1181.6 225.209 1187.37 Z" fill="#000000" fill-rule="nonzero" fill-opacity="1" /><path clip-path="url(#clip170)" d="M115.834 872.044 L123.473 872.044 L123.473 845.678 L115.163 847.345 L115.163 843.086 L123.427 841.419 L128.103 841.419 L128.103 872.044 L135.742 872.044 L135.742 875.979 L115.834 875.979 L115.834 872.044 Z" fill="#000000" fill-rule="nonzero" fill-opacity="1" /><path clip-path="url(#clip170)" d="M145.186 870.099 L150.07 870.099 L150.07 875.979 L145.186 875.979 L145.186 870.099 Z" fill="#000000" fill-rule="nonzero" fill-opacity="1" /><path clip-path="url(#clip170)" d="M170.255 844.498 Q166.644 844.498 164.815 848.062 Q163.01 851.604 163.01 858.734 Q163.01 865.84 164.815 869.405 Q166.644 872.947 170.255 872.947 Q173.889 872.947 175.695 869.405 Q177.524 865.84 177.524 858.734 Q177.524 851.604 175.695 848.062 Q173.889 844.498 170.255 844.498 M170.255 840.794 Q176.065 840.794 179.121 845.4 Q182.2 849.984 182.2 858.734 Q182.2 867.461 179.121 872.067 Q176.065 876.65 170.255 876.65 Q164.445 876.65 161.366 872.067 Q158.311 867.461 158.311 858.734 Q158.311 849.984 161.366 845.4 Q164.445 840.794 170.255 840.794 Z" fill="#000000" fill-rule="nonzero" fill-opacity="1" /><path clip-path="url(#clip170)" d="M200.417 844.498 Q196.806 844.498 194.977 848.062 Q193.172 851.604 193.172 858.734 Q193.172 865.84 194.977 869.405 Q196.806 872.947 200.417 872.947 Q204.051 872.947 205.857 869.405 Q207.686 865.84 207.686 858.734 Q207.686 851.604 205.857 848.062 Q204.051 844.498 200.417 844.498 M200.417 840.794 Q206.227 840.794 209.283 845.4 Q212.361 849.984 212.361 858.734 Q212.361 867.461 209.283 872.067 Q206.227 876.65 200.417 876.65 Q194.607 876.65 191.528 872.067 Q188.473 867.461 188.473 858.734 Q188.473 849.984 191.528 845.4 Q194.607 840.794 200.417 840.794 Z" fill="#000000" fill-rule="nonzero" fill-opacity="1" /><path clip-path="url(#clip170)" d="M220.625 841.419 L238.982 841.419 L238.982 845.354 L224.908 845.354 L224.908 853.826 Q225.926 853.479 226.945 853.317 Q227.963 853.132 228.982 853.132 Q234.769 853.132 238.148 856.303 Q241.528 859.474 241.528 864.891 Q241.528 870.47 238.056 873.572 Q234.584 876.65 228.264 876.65 Q226.088 876.65 223.82 876.28 Q221.574 875.91 219.167 875.169 L219.167 870.47 Q221.25 871.604 223.473 872.16 Q225.695 872.715 228.172 872.715 Q232.176 872.715 234.514 870.609 Q236.852 868.502 236.852 864.891 Q236.852 861.28 234.514 859.174 Q232.176 857.067 228.172 857.067 Q226.297 857.067 224.422 857.484 Q222.57 857.9 220.625 858.78 L220.625 841.419 Z" fill="#000000" fill-rule="nonzero" fill-opacity="1" /><path clip-path="url(#clip170)" d="M114.931 556.72 L122.57 556.72 L122.57 530.355 L114.26 532.021 L114.26 527.762 L122.524 526.095 L127.2 526.095 L127.2 556.72 L134.839 556.72 L134.839 560.655 L114.931 560.655 L114.931 556.72 Z" fill="#000000" fill-rule="nonzero" fill-opacity="1" /><path clip-path="url(#clip170)" d="M144.283 554.776 L149.167 554.776 L149.167 560.655 L144.283 560.655 L144.283 554.776 Z" fill="#000000" fill-rule="nonzero" fill-opacity="1" /><path clip-path="url(#clip170)" d="M169.352 529.174 Q165.741 529.174 163.913 532.739 Q162.107 536.281 162.107 543.41 Q162.107 550.517 163.913 554.081 Q165.741 557.623 169.352 557.623 Q172.987 557.623 174.792 554.081 Q176.621 550.517 176.621 543.41 Q176.621 536.281 174.792 532.739 Q172.987 529.174 169.352 529.174 M169.352 525.47 Q175.163 525.47 178.218 530.077 Q181.297 534.66 181.297 543.41 Q181.297 552.137 178.218 556.743 Q175.163 561.327 169.352 561.327 Q163.542 561.327 160.464 556.743 Q157.408 552.137 157.408 543.41 Q157.408 534.66 160.464 530.077 Q163.542 525.47 169.352 525.47 Z" fill="#000000" fill-rule="nonzero" fill-opacity="1" /><path clip-path="url(#clip170)" d="M199.514 529.174 Q195.903 529.174 194.075 532.739 Q192.269 536.281 192.269 543.41 Q192.269 550.517 194.075 554.081 Q195.903 557.623 199.514 557.623 Q203.149 557.623 204.954 554.081 Q206.783 550.517 206.783 543.41 Q206.783 536.281 204.954 532.739 Q203.149 529.174 199.514 529.174 M199.514 525.47 Q205.324 525.47 208.38 530.077 Q211.459 534.66 211.459 543.41 Q211.459 552.137 208.38 556.743 Q205.324 561.327 199.514 561.327 Q193.704 561.327 190.625 556.743 Q187.57 552.137 187.57 543.41 Q187.57 534.66 190.625 530.077 Q193.704 525.47 199.514 525.47 Z" fill="#000000" fill-rule="nonzero" fill-opacity="1" /><path clip-path="url(#clip170)" d="M229.676 544.244 Q226.343 544.244 224.422 546.026 Q222.523 547.808 222.523 550.933 Q222.523 554.058 224.422 555.841 Q226.343 557.623 229.676 557.623 Q233.01 557.623 234.931 555.841 Q236.852 554.035 236.852 550.933 Q236.852 547.808 234.931 546.026 Q233.033 544.244 229.676 544.244 M225 542.253 Q221.991 541.512 220.301 539.452 Q218.635 537.392 218.635 534.429 Q218.635 530.285 221.574 527.878 Q224.537 525.47 229.676 525.47 Q234.838 525.47 237.778 527.878 Q240.718 530.285 240.718 534.429 Q240.718 537.392 239.028 539.452 Q237.361 541.512 234.375 542.253 Q237.755 543.04 239.63 545.331 Q241.528 547.623 241.528 550.933 Q241.528 555.956 238.449 558.642 Q235.394 561.327 229.676 561.327 Q223.959 561.327 220.88 558.642 Q217.824 555.956 217.824 550.933 Q217.824 547.623 219.723 545.331 Q221.621 543.04 225 542.253 M223.287 534.869 Q223.287 537.554 224.954 539.058 Q226.644 540.563 229.676 540.563 Q232.685 540.563 234.375 539.058 Q236.088 537.554 236.088 534.869 Q236.088 532.183 234.375 530.679 Q232.685 529.174 229.676 529.174 Q226.644 529.174 224.954 530.679 Q223.287 532.183 223.287 534.869 Z" fill="#000000" fill-rule="nonzero" fill-opacity="1" /><path clip-path="url(#clip170)" d="M116.066 241.397 L123.705 241.397 L123.705 215.031 L115.394 216.698 L115.394 212.439 L123.658 210.772 L128.334 210.772 L128.334 241.397 L135.973 241.397 L135.973 245.332 L116.066 245.332 L116.066 241.397 Z" fill="#000000" fill-rule="nonzero" fill-opacity="1" /><path clip-path="url(#clip170)" d="M145.417 239.452 L150.302 239.452 L150.302 245.332 L145.417 245.332 L145.417 239.452 Z" fill="#000000" fill-rule="nonzero" fill-opacity="1" /><path clip-path="url(#clip170)" d="M170.487 213.851 Q166.876 213.851 165.047 217.415 Q163.241 220.957 163.241 228.087 Q163.241 235.193 165.047 238.758 Q166.876 242.3 170.487 242.3 Q174.121 242.3 175.926 238.758 Q177.755 235.193 177.755 228.087 Q177.755 220.957 175.926 217.415 Q174.121 213.851 170.487 213.851 M170.487 210.147 Q176.297 210.147 179.352 214.753 Q182.431 219.337 182.431 228.087 Q182.431 236.813 179.352 241.42 Q176.297 246.003 170.487 246.003 Q164.677 246.003 161.598 241.42 Q158.542 236.813 158.542 228.087 Q158.542 219.337 161.598 214.753 Q164.677 210.147 170.487 210.147 Z" fill="#000000" fill-rule="nonzero" fill-opacity="1" /><path clip-path="url(#clip170)" d="M191.459 241.397 L199.098 241.397 L199.098 215.031 L190.788 216.698 L190.788 212.439 L199.051 210.772 L203.727 210.772 L203.727 241.397 L211.366 241.397 L211.366 245.332 L191.459 245.332 L191.459 241.397 Z" fill="#000000" fill-rule="nonzero" fill-opacity="1" /><path clip-path="url(#clip170)" d="M221.621 241.397 L229.26 241.397 L229.26 215.031 L220.949 216.698 L220.949 212.439 L229.213 210.772 L233.889 210.772 L233.889 241.397 L241.528 241.397 L241.528 245.332 L221.621 245.332 L221.621 241.397 Z" fill="#000000" fill-rule="nonzero" fill-opacity="1" /><path clip-path="url(#clip170)" d="M57.2247 896.821 L44.4614 896.821 L44.4614 907.325 L39.1779 907.325 L39.1779 890.456 L59.58 890.456 Q62.2218 894.18 63.5904 898.667 Q64.9272 903.155 64.9272 908.248 Q64.9272 919.388 58.4342 925.69 Q51.9093 931.96 40.2919 931.96 Q28.6427 931.96 22.1496 925.69 Q15.6248 919.388 15.6248 908.248 Q15.6248 903.601 16.7706 899.431 Q17.9164 895.23 20.1444 891.697 L26.9876 891.697 Q23.9639 895.262 22.4361 899.272 Q20.9083 903.283 20.9083 907.707 Q20.9083 916.428 25.7781 920.82 Q30.6479 925.181 40.2919 925.181 Q49.9041 925.181 54.7739 920.82 Q59.6436 916.428 59.6436 907.707 Q59.6436 904.301 59.0707 901.627 Q58.466 898.954 57.2247 896.821 Z" fill="#000000" fill-rule="nonzero" fill-opacity="1" /><path clip-path="url(#clip170)" d="M21.7677 872.282 L58.7206 872.282 L58.7206 864.515 Q58.7206 854.68 54.2646 850.129 Q49.8086 845.546 40.1964 845.546 Q30.6479 845.546 26.2237 850.129 Q21.7677 854.68 21.7677 864.515 L21.7677 872.282 M16.4842 878.711 L16.4842 865.502 Q16.4842 851.688 22.2451 845.227 Q27.9743 838.766 40.1964 838.766 Q52.4822 838.766 58.2432 845.259 Q64.0042 851.752 64.0042 865.502 L64.0042 878.711 L16.4842 878.711 Z" fill="#000000" fill-rule="nonzero" fill-opacity="1" /><path clip-path="url(#clip170)" d="M21.7677 822.088 L39.6235 822.088 L39.6235 814.004 Q39.6235 809.516 37.3 807.065 Q34.9765 804.614 30.6797 804.614 Q26.4147 804.614 24.0912 807.065 Q21.7677 809.516 21.7677 814.004 L21.7677 822.088 M16.4842 828.517 L16.4842 814.004 Q16.4842 806.015 20.1126 801.94 Q23.7092 797.835 30.6797 797.835 Q37.7138 797.835 41.3104 801.94 Q44.907 806.015 44.907 814.004 L44.907 822.088 L64.0042 822.088 L64.0042 828.517 L16.4842 828.517 Z" fill="#000000" fill-rule="nonzero" fill-opacity="1" /><path clip-path="url(#clip170)" d="M29.7248 743.09 L35.1993 743.09 Q33.8307 745.572 33.1623 748.087 Q32.4621 750.569 32.4621 753.116 Q32.4621 758.813 36.0905 761.964 Q39.6872 765.115 46.212 765.115 Q52.7369 765.115 56.3653 761.964 Q59.9619 758.813 59.9619 753.116 Q59.9619 750.569 59.2935 748.087 Q58.5933 745.572 57.2247 743.09 L62.6355 743.09 Q63.7814 745.54 64.3543 748.182 Q64.9272 750.792 64.9272 753.752 Q64.9272 761.805 59.8664 766.547 Q54.8057 771.29 46.212 771.29 Q37.491 771.29 32.4939 766.515 Q27.4968 761.709 27.4968 753.37 Q27.4968 750.665 28.0697 748.087 Q28.6108 745.508 29.7248 743.09 Z" fill="#000000" fill-rule="nonzero" fill-opacity="1" /><path clip-path="url(#clip170)" d="M42.4881 703.272 L64.0042 703.272 L64.0042 709.128 L42.679 709.128 Q37.6183 709.128 35.1038 711.102 Q32.5894 713.075 32.5894 717.022 Q32.5894 721.764 35.6131 724.502 Q38.6368 727.239 43.8567 727.239 L64.0042 727.239 L64.0042 733.127 L14.479 733.127 L14.479 727.239 L33.8944 727.239 Q30.6797 725.138 29.0883 722.305 Q27.4968 719.441 27.4968 715.717 Q27.4968 709.574 31.3163 706.423 Q35.1038 703.272 42.4881 703.272 Z" fill="#000000" fill-rule="nonzero" fill-opacity="1" /><path clip-path="url(#clip170)" d="M46.0847 675.39 Q46.0847 682.488 47.7079 685.225 Q49.3312 687.963 53.2461 687.963 Q56.3653 687.963 58.2114 685.925 Q60.0256 683.857 60.0256 680.324 Q60.0256 675.454 56.5881 672.526 Q53.1188 669.566 47.3897 669.566 L46.0847 669.566 L46.0847 675.39 M43.6657 663.709 L64.0042 663.709 L64.0042 669.566 L58.5933 669.566 Q61.8398 671.571 63.3994 674.563 Q64.9272 677.555 64.9272 681.883 Q64.9272 687.358 61.8716 690.604 Q58.7843 693.819 53.6281 693.819 Q47.6125 693.819 44.5569 689.809 Q41.5014 685.766 41.5014 677.777 L41.5014 669.566 L40.9285 669.566 Q36.8862 669.566 34.6901 672.239 Q32.4621 674.881 32.4621 679.687 Q32.4621 682.743 33.1941 685.639 Q33.9262 688.535 35.3903 691.209 L29.9795 691.209 Q28.7381 687.994 28.1334 684.971 Q27.4968 681.947 27.4968 679.082 Q27.4968 671.348 31.5072 667.529 Q35.5176 663.709 43.6657 663.709 Z" fill="#000000" fill-rule="nonzero" fill-opacity="1" /><path clip-path="url(#clip170)" d="M42.4881 622.014 L64.0042 622.014 L64.0042 627.87 L42.679 627.87 Q37.6183 627.87 35.1038 629.844 Q32.5894 631.817 32.5894 635.764 Q32.5894 640.506 35.6131 643.243 Q38.6368 645.981 43.8567 645.981 L64.0042 645.981 L64.0042 651.869 L28.3562 651.869 L28.3562 645.981 L33.8944 645.981 Q30.6797 643.88 29.0883 641.047 Q27.4968 638.183 27.4968 634.459 Q27.4968 628.316 31.3163 625.165 Q35.1038 622.014 42.4881 622.014 Z" fill="#000000" fill-rule="nonzero" fill-opacity="1" /><path clip-path="url(#clip170)" d="M45.7664 586.875 Q39.4007 586.875 35.8996 589.517 Q32.3984 592.127 32.3984 596.869 Q32.3984 601.58 35.8996 604.222 Q39.4007 606.832 45.7664 606.832 Q52.1003 606.832 55.6014 604.222 Q59.1026 601.58 59.1026 596.869 Q59.1026 592.127 55.6014 589.517 Q52.1003 586.875 45.7664 586.875 M59.58 581.019 Q68.683 581.019 73.1071 585.061 Q77.5631 589.103 77.5631 597.442 Q77.5631 600.53 77.0857 603.267 Q76.6401 606.004 75.6852 608.582 L69.9879 608.582 Q71.3884 606.004 72.0568 603.49 Q72.7252 600.975 72.7252 598.365 Q72.7252 592.604 69.7015 589.74 Q66.7096 586.875 60.6303 586.875 L57.7339 586.875 Q60.885 588.689 62.4446 591.522 Q64.0042 594.355 64.0042 598.302 Q64.0042 604.858 59.0071 608.869 Q54.01 612.879 45.7664 612.879 Q37.491 612.879 32.4939 608.869 Q27.4968 604.858 27.4968 598.302 Q27.4968 594.355 29.0564 591.522 Q30.616 588.689 33.7671 586.875 L28.3562 586.875 L28.3562 581.019 L59.58 581.019 Z" fill="#000000" fill-rule="nonzero" fill-opacity="1" /><path clip-path="url(#clip170)" d="M44.7161 538.464 L47.5806 538.464 L47.5806 565.391 Q53.6281 565.009 56.8109 561.762 Q59.9619 558.484 59.9619 552.659 Q59.9619 549.286 59.1344 546.135 Q58.3069 542.952 56.6518 539.833 L62.1899 539.833 Q63.5267 542.984 64.227 546.294 Q64.9272 549.604 64.9272 553.01 Q64.9272 561.54 59.9619 566.537 Q54.9967 571.502 46.5303 571.502 Q37.7774 571.502 32.6531 566.791 Q27.4968 562.049 27.4968 554.028 Q27.4968 546.835 32.1438 542.665 Q36.7589 538.464 44.7161 538.464 M42.9973 544.32 Q38.1912 544.384 35.3266 547.026 Q32.4621 549.636 32.4621 553.964 Q32.4621 558.866 35.2312 561.826 Q38.0002 564.754 43.0292 565.2 L42.9973 544.32 Z" fill="#000000" fill-rule="nonzero" fill-opacity="1" /><path clip-path="url(#clip172)" d="M336.261 1384.24 L458.621 1361.17 L580.981 950.424 L703.341 729.367 L825.701 828.948 L948.062 903.907 L1070.42 658.531 L1192.78 624.989 L1315.14 877.104 L1437.5 916.139 L1559.86 968.177 L1682.22 826.019 L1804.58 941.298 L1926.94 1287.03 L2049.3 1317.81 L2171.66 1367 L2294.02 1306.48 L2294.02 375.77 L2171.66 476.759 L2049.3 456.197 L1926.94 483.132 L1804.58 174.97 L1682.22 126.065 L1559.86 326.441 L1437.5 277.318 L1315.14 263.588 L1192.78 86.1857 L1070.42 104.525 L948.062 404.917 L825.701 401.009 L703.341 342.209 L580.981 639.613 L458.621 1139.11 L336.261 1384.24  Z" fill="#009af9" fill-rule="evenodd" fill-opacity="0.2"/>
<polyline clip-path="url(#clip172)" style="stroke:#009af9; stroke-linecap:round; stroke-linejoin:round; stroke-width:4; stroke-opacity:1; fill:none" points="336.261,1384.24 458.621,1250.14 580.981,795.018 703.341,535.788 825.701,614.979 948.062,654.412 1070.42,381.528 1192.78,355.587 1315.14,570.346 1437.5,596.729 1559.86,647.309 1682.22,476.042 1804.58,558.134 1926.94,885.082 2049.3,887.002 2171.66,921.879 2294.02,841.124 "/>
</svg>
