<?xml version="1.0" encoding="utf-8"?>
<svg xmlns="http://www.w3.org/2000/svg" xmlns:xlink="http://www.w3.org/1999/xlink" width="600" height="400" viewBox="0 0 2400 1600">
<defs>
  <clipPath id="clip580">
    <rect x="0" y="0" width="2400" height="1600"/>
  </clipPath>
</defs>
<path clip-path="url(#clip580)" d="M0 1600 L2400 1600 L2400 0 L0 0  Z" fill="#ffffff" fill-rule="evenodd" fill-opacity="1"/>
<defs>
  <clipPath id="clip581">
    <rect x="480" y="0" width="1681" height="1600"/>
  </clipPath>
</defs>
<path clip-path="url(#clip580)" d="M279.704 1423.18 L2352.76 1423.18 L2352.76 47.2441 L279.704 47.2441  Z" fill="#ffffff" fill-rule="evenodd" fill-opacity="1"/>
<defs>
  <clipPath id="clip582">
    <rect x="279" y="47" width="2074" height="1377"/>
  </clipPath>
</defs>
<polyline clip-path="url(#clip582)" style="stroke:#000000; stroke-linecap:round; stroke-linejoin:round; stroke-width:2; stroke-opacity:0.1; fill:none" points="582.839,1423.18 582.839,47.2441 "/>
<polyline clip-path="url(#clip582)" style="stroke:#000000; stroke-linecap:round; stroke-linejoin:round; stroke-width:2; stroke-opacity:0.1; fill:none" points="949.534,1423.18 949.534,47.2441 "/>
<polyline clip-path="url(#clip582)" style="stroke:#000000; stroke-linecap:round; stroke-linejoin:round; stroke-width:2; stroke-opacity:0.1; fill:none" points="1316.23,1423.18 1316.23,47.2441 "/>
<polyline clip-path="url(#clip582)" style="stroke:#000000; stroke-linecap:round; stroke-linejoin:round; stroke-width:2; stroke-opacity:0.1; fill:none" points="1682.93,1423.18 1682.93,47.2441 "/>
<polyline clip-path="url(#clip582)" style="stroke:#000000; stroke-linecap:round; stroke-linejoin:round; stroke-width:2; stroke-opacity:0.1; fill:none" points="2049.62,1423.18 2049.62,47.2441 "/>
<polyline clip-path="url(#clip582)" style="stroke:#000000; stroke-linecap:round; stroke-linejoin:round; stroke-width:2; stroke-opacity:0.1; fill:none" points="279.704,1379.15 2352.76,1379.15 "/>
<polyline clip-path="url(#clip582)" style="stroke:#000000; stroke-linecap:round; stroke-linejoin:round; stroke-width:2; stroke-opacity:0.1; fill:none" points="279.704,1062.49 2352.76,1062.49 "/>
<polyline clip-path="url(#clip582)" style="stroke:#000000; stroke-linecap:round; stroke-linejoin:round; stroke-width:2; stroke-opacity:0.1; fill:none" points="279.704,745.817 2352.76,745.817 "/>
<polyline clip-path="url(#clip582)" style="stroke:#000000; stroke-linecap:round; stroke-linejoin:round; stroke-width:2; stroke-opacity:0.1; fill:none" points="279.704,429.148 2352.76,429.148 "/>
<polyline clip-path="url(#clip582)" style="stroke:#000000; stroke-linecap:round; stroke-linejoin:round; stroke-width:2; stroke-opacity:0.1; fill:none" points="279.704,112.479 2352.76,112.479 "/>
<polyline clip-path="url(#clip580)" style="stroke:#000000; stroke-linecap:round; stroke-linejoin:round; stroke-width:4; stroke-opacity:1; fill:none" points="279.704,1423.18 2352.76,1423.18 "/>
<polyline clip-path="url(#clip580)" style="stroke:#000000; stroke-linecap:round; stroke-linejoin:round; stroke-width:4; stroke-opacity:1; fill:none" points="582.839,1423.18 582.839,1404.28 "/>
<polyline clip-path="url(#clip580)" style="stroke:#000000; stroke-linecap:round; stroke-linejoin:round; stroke-width:4; stroke-opacity:1; fill:none" points="949.534,1423.18 949.534,1404.28 "/>
<polyline clip-path="url(#clip580)" style="stroke:#000000; stroke-linecap:round; stroke-linejoin:round; stroke-width:4; stroke-opacity:1; fill:none" points="1316.23,1423.18 1316.23,1404.28 "/>
<polyline clip-path="url(#clip580)" style="stroke:#000000; stroke-linecap:round; stroke-linejoin:round; stroke-width:4; stroke-opacity:1; fill:none" points="1682.93,1423.18 1682.93,1404.28 "/>
<polyline clip-path="url(#clip580)" style="stroke:#000000; stroke-linecap:round; stroke-linejoin:round; stroke-width:4; stroke-opacity:1; fill:none" points="2049.62,1423.18 2049.62,1404.28 "/>
<path clip-path="url(#clip580)" d="M587.087 1466.95 Q590.443 1467.66 592.318 1469.93 Q594.216 1472.2 594.216 1475.53 Q594.216 1480.65 590.698 1483.45 Q587.179 1486.25 580.698 1486.25 Q578.522 1486.25 576.207 1485.81 Q573.915 1485.39 571.462 1484.54 L571.462 1480.02 Q573.406 1481.16 575.721 1481.74 Q578.036 1482.32 580.559 1482.32 Q584.957 1482.32 587.249 1480.58 Q589.563 1478.84 589.563 1475.53 Q589.563 1472.48 587.411 1470.77 Q585.281 1469.03 581.462 1469.03 L577.434 1469.03 L577.434 1465.19 L581.647 1465.19 Q585.096 1465.19 586.924 1463.82 Q588.753 1462.43 588.753 1459.84 Q588.753 1457.18 586.855 1455.77 Q584.98 1454.33 581.462 1454.33 Q579.54 1454.33 577.341 1454.75 Q575.142 1455.16 572.503 1456.04 L572.503 1451.88 Q575.165 1451.14 577.48 1450.77 Q579.818 1450.39 581.878 1450.39 Q587.202 1450.39 590.304 1452.83 Q593.406 1455.23 593.406 1459.35 Q593.406 1462.22 591.762 1464.21 Q590.119 1466.18 587.087 1466.95 Z" fill="#000000" fill-rule="nonzero" fill-opacity="1" /><path clip-path="url(#clip580)" d="M949.939 1466.44 Q946.791 1466.44 944.94 1468.59 Q943.111 1470.74 943.111 1474.49 Q943.111 1478.22 944.94 1480.39 Q946.791 1482.55 949.939 1482.55 Q953.088 1482.55 954.916 1480.39 Q956.768 1478.22 956.768 1474.49 Q956.768 1470.74 954.916 1468.59 Q953.088 1466.44 949.939 1466.44 M959.222 1451.78 L959.222 1456.04 Q957.463 1455.21 955.657 1454.77 Q953.875 1454.33 952.115 1454.33 Q947.486 1454.33 945.032 1457.45 Q942.602 1460.58 942.254 1466.9 Q943.62 1464.89 945.68 1463.82 Q947.74 1462.73 950.217 1462.73 Q955.426 1462.73 958.435 1465.9 Q961.467 1469.05 961.467 1474.49 Q961.467 1479.82 958.319 1483.03 Q955.171 1486.25 949.939 1486.25 Q943.944 1486.25 940.773 1481.67 Q937.602 1477.06 937.602 1468.33 Q937.602 1460.14 941.49 1455.28 Q945.379 1450.39 951.93 1450.39 Q953.689 1450.39 955.472 1450.74 Q957.277 1451.09 959.222 1451.78 Z" fill="#000000" fill-rule="nonzero" fill-opacity="1" /><path clip-path="url(#clip580)" d="M1306.53 1484.86 L1306.53 1480.6 Q1308.29 1481.44 1310.1 1481.88 Q1311.9 1482.32 1313.64 1482.32 Q1318.27 1482.32 1320.7 1479.21 Q1323.15 1476.09 1323.5 1469.75 Q1322.16 1471.74 1320.1 1472.8 Q1318.04 1473.87 1315.54 1473.87 Q1310.35 1473.87 1307.32 1470.74 Q1304.31 1467.59 1304.31 1462.15 Q1304.31 1456.83 1307.46 1453.61 Q1310.6 1450.39 1315.84 1450.39 Q1321.83 1450.39 1324.98 1455 Q1328.15 1459.58 1328.15 1468.33 Q1328.15 1476.51 1324.26 1481.39 Q1320.4 1486.25 1313.85 1486.25 Q1312.09 1486.25 1310.28 1485.9 Q1308.48 1485.56 1306.53 1484.86 M1315.84 1470.21 Q1318.98 1470.21 1320.81 1468.06 Q1322.67 1465.9 1322.67 1462.15 Q1322.67 1458.43 1320.81 1456.27 Q1318.98 1454.1 1315.84 1454.1 Q1312.69 1454.1 1310.84 1456.27 Q1309.01 1458.43 1309.01 1462.15 Q1309.01 1465.9 1310.84 1468.06 Q1312.69 1470.21 1315.84 1470.21 Z" fill="#000000" fill-rule="nonzero" fill-opacity="1" /><path clip-path="url(#clip580)" d="M1658.41 1481.64 L1666.05 1481.64 L1666.05 1455.28 L1657.74 1456.95 L1657.74 1452.69 L1666 1451.02 L1670.68 1451.02 L1670.68 1481.64 L1678.32 1481.64 L1678.32 1485.58 L1658.41 1485.58 L1658.41 1481.64 Z" fill="#000000" fill-rule="nonzero" fill-opacity="1" /><path clip-path="url(#clip580)" d="M1691.79 1481.64 L1708.11 1481.64 L1708.11 1485.58 L1686.17 1485.58 L1686.17 1481.64 Q1688.83 1478.89 1693.41 1474.26 Q1698.02 1469.61 1699.2 1468.27 Q1701.44 1465.74 1702.32 1464.01 Q1703.23 1462.25 1703.23 1460.56 Q1703.23 1457.8 1701.28 1456.07 Q1699.36 1454.33 1696.26 1454.33 Q1694.06 1454.33 1691.61 1455.09 Q1689.18 1455.86 1686.4 1457.41 L1686.4 1452.69 Q1689.22 1451.55 1691.68 1450.97 Q1694.13 1450.39 1696.17 1450.39 Q1701.54 1450.39 1704.73 1453.08 Q1707.93 1455.77 1707.93 1460.26 Q1707.93 1462.39 1707.12 1464.31 Q1706.33 1466.2 1704.22 1468.8 Q1703.64 1469.47 1700.54 1472.69 Q1697.44 1475.88 1691.79 1481.64 Z" fill="#000000" fill-rule="nonzero" fill-opacity="1" /><path clip-path="url(#clip580)" d="M2024.81 1481.64 L2032.45 1481.64 L2032.45 1455.28 L2024.13 1456.95 L2024.13 1452.69 L2032.4 1451.02 L2037.07 1451.02 L2037.07 1481.64 L2044.71 1481.64 L2044.71 1485.58 L2024.81 1485.58 L2024.81 1481.64 Z" fill="#000000" fill-rule="nonzero" fill-opacity="1" /><path clip-path="url(#clip580)" d="M2054.2 1451.02 L2072.56 1451.02 L2072.56 1454.96 L2058.49 1454.96 L2058.49 1463.43 Q2059.51 1463.08 2060.52 1462.92 Q2061.54 1462.73 2062.56 1462.73 Q2068.35 1462.73 2071.73 1465.9 Q2075.11 1469.08 2075.11 1474.49 Q2075.11 1480.07 2071.63 1483.17 Q2068.16 1486.25 2061.84 1486.25 Q2059.67 1486.25 2057.4 1485.88 Q2055.15 1485.51 2052.75 1484.77 L2052.75 1480.07 Q2054.83 1481.2 2057.05 1481.76 Q2059.27 1482.32 2061.75 1482.32 Q2065.76 1482.32 2068.09 1480.21 Q2070.43 1478.1 2070.43 1474.49 Q2070.43 1470.88 2068.09 1468.77 Q2065.76 1466.67 2061.75 1466.67 Q2059.88 1466.67 2058 1467.08 Q2056.15 1467.5 2054.2 1468.38 L2054.2 1451.02 Z" fill="#000000" fill-rule="nonzero" fill-opacity="1" /><path clip-path="url(#clip580)" d="M1187.74 1550.25 Q1187.74 1556.71 1190.38 1560.4 Q1193.05 1564.07 1197.7 1564.07 Q1202.35 1564.07 1205.02 1560.4 Q1207.69 1556.71 1207.69 1550.25 Q1207.69 1543.79 1205.02 1540.13 Q1202.35 1536.44 1197.7 1536.44 Q1193.05 1536.44 1190.38 1540.13 Q1187.74 1543.79 1187.74 1550.25 M1207.69 1562.7 Q1205.85 1565.88 1203.02 1567.44 Q1200.21 1568.97 1196.27 1568.97 Q1189.81 1568.97 1185.73 1563.81 Q1181.69 1558.65 1181.69 1550.25 Q1181.69 1541.85 1185.73 1536.69 Q1189.81 1531.54 1196.27 1531.54 Q1200.21 1531.54 1203.02 1533.1 Q1205.85 1534.62 1207.69 1537.81 L1207.69 1532.4 L1213.55 1532.4 L1213.55 1581.6 L1207.69 1581.6 L1207.69 1562.7 Z" fill="#000000" fill-rule="nonzero" fill-opacity="1" /><path clip-path="url(#clip580)" d="M1225.01 1553.98 L1225.01 1532.4 L1230.87 1532.4 L1230.87 1553.75 Q1230.87 1558.81 1232.84 1561.36 Q1234.81 1563.87 1238.76 1563.87 Q1243.5 1563.87 1246.24 1560.85 Q1249.01 1557.83 1249.01 1552.61 L1249.01 1532.4 L1254.86 1532.4 L1254.86 1568.04 L1249.01 1568.04 L1249.01 1562.57 Q1246.88 1565.82 1244.04 1567.41 Q1241.24 1568.97 1237.52 1568.97 Q1231.38 1568.97 1228.19 1565.15 Q1225.01 1561.33 1225.01 1553.98 M1239.75 1531.54 L1239.75 1531.54 Z" fill="#000000" fill-rule="nonzero" fill-opacity="1" /><path clip-path="url(#clip580)" d="M1283.13 1550.12 Q1276.03 1550.12 1273.29 1551.75 Q1270.56 1553.37 1270.56 1557.29 Q1270.56 1560.4 1272.59 1562.25 Q1274.66 1564.07 1278.19 1564.07 Q1283.06 1564.07 1285.99 1560.63 Q1288.95 1557.16 1288.95 1551.43 L1288.95 1550.12 L1283.13 1550.12 M1294.81 1547.71 L1294.81 1568.04 L1288.95 1568.04 L1288.95 1562.63 Q1286.95 1565.88 1283.96 1567.44 Q1280.96 1568.97 1276.64 1568.97 Q1271.16 1568.97 1267.91 1565.91 Q1264.7 1562.82 1264.7 1557.67 Q1264.7 1551.65 1268.71 1548.6 Q1272.75 1545.54 1280.74 1545.54 L1288.95 1545.54 L1288.95 1544.97 Q1288.95 1540.93 1286.28 1538.73 Q1283.64 1536.5 1278.83 1536.5 Q1275.78 1536.5 1272.88 1537.23 Q1269.98 1537.97 1267.31 1539.43 L1267.31 1534.02 Q1270.52 1532.78 1273.55 1532.17 Q1276.57 1531.54 1279.44 1531.54 Q1287.17 1531.54 1290.99 1535.55 Q1294.81 1539.56 1294.81 1547.71 Z" fill="#000000" fill-rule="nonzero" fill-opacity="1" /><path clip-path="url(#clip580)" d="M1327.53 1537.87 Q1326.54 1537.3 1325.36 1537.04 Q1324.22 1536.76 1322.82 1536.76 Q1317.85 1536.76 1315.18 1540 Q1312.54 1543.22 1312.54 1549.27 L1312.54 1568.04 L1306.65 1568.04 L1306.65 1532.4 L1312.54 1532.4 L1312.54 1537.93 Q1314.38 1534.69 1317.34 1533.13 Q1320.3 1531.54 1324.54 1531.54 Q1325.14 1531.54 1325.87 1531.63 Q1326.61 1531.7 1327.5 1531.85 L1327.53 1537.87 Z" fill="#000000" fill-rule="nonzero" fill-opacity="1" /><path clip-path="url(#clip580)" d="M1339.46 1522.27 L1339.46 1532.4 L1351.53 1532.4 L1351.53 1536.95 L1339.46 1536.95 L1339.46 1556.3 Q1339.46 1560.66 1340.64 1561.9 Q1341.85 1563.14 1345.51 1563.14 L1351.53 1563.14 L1351.53 1568.04 L1345.51 1568.04 Q1338.73 1568.04 1336.15 1565.53 Q1333.58 1562.98 1333.58 1556.3 L1333.58 1536.95 L1329.28 1536.95 L1329.28 1532.4 L1333.58 1532.4 L1333.58 1522.27 L1339.46 1522.27 Z" fill="#000000" fill-rule="nonzero" fill-opacity="1" /><path clip-path="url(#clip580)" d="M1389.72 1548.76 L1389.72 1551.62 L1362.8 1551.62 Q1363.18 1557.67 1366.42 1560.85 Q1369.7 1564 1375.53 1564 Q1378.9 1564 1382.05 1563.17 Q1385.23 1562.35 1388.35 1560.69 L1388.35 1566.23 Q1385.2 1567.57 1381.89 1568.27 Q1378.58 1568.97 1375.18 1568.97 Q1366.65 1568.97 1361.65 1564 Q1356.68 1559.04 1356.68 1550.57 Q1356.68 1541.82 1361.39 1536.69 Q1366.14 1531.54 1374.16 1531.54 Q1381.35 1531.54 1385.52 1536.18 Q1389.72 1540.8 1389.72 1548.76 M1383.87 1547.04 Q1383.8 1542.23 1381.16 1539.37 Q1378.55 1536.5 1374.22 1536.5 Q1369.32 1536.5 1366.36 1539.27 Q1363.43 1542.04 1362.99 1547.07 L1383.87 1547.04 Z" fill="#000000" fill-rule="nonzero" fill-opacity="1" /><path clip-path="url(#clip580)" d="M1419.99 1537.87 Q1419 1537.3 1417.83 1537.04 Q1416.68 1536.76 1415.28 1536.76 Q1410.32 1536.76 1407.64 1540 Q1405 1543.22 1405 1549.27 L1405 1568.04 L1399.11 1568.04 L1399.11 1532.4 L1405 1532.4 L1405 1537.93 Q1406.85 1534.69 1409.81 1533.13 Q1412.77 1531.54 1417 1531.54 Q1417.6 1531.54 1418.34 1531.63 Q1419.07 1531.7 1419.96 1531.85 L1419.99 1537.87 Z" fill="#000000" fill-rule="nonzero" fill-opacity="1" /><path clip-path="url(#clip580)" d="M1448.86 1533.45 L1448.86 1538.98 Q1446.38 1537.71 1443.7 1537.07 Q1441.03 1536.44 1438.17 1536.44 Q1433.8 1536.44 1431.61 1537.77 Q1429.44 1539.11 1429.44 1541.79 Q1429.44 1543.82 1431 1545 Q1432.56 1546.15 1437.27 1547.2 L1439.28 1547.64 Q1445.52 1548.98 1448.13 1551.43 Q1450.77 1553.85 1450.77 1558.21 Q1450.77 1563.17 1446.82 1566.07 Q1442.91 1568.97 1436.03 1568.97 Q1433.17 1568.97 1430.05 1568.39 Q1426.96 1567.85 1423.52 1566.74 L1423.52 1560.69 Q1426.77 1562.38 1429.92 1563.24 Q1433.07 1564.07 1436.16 1564.07 Q1440.3 1564.07 1442.53 1562.66 Q1444.75 1561.23 1444.75 1558.65 Q1444.75 1556.27 1443.13 1554.99 Q1441.54 1553.72 1436.1 1552.54 L1434.06 1552.07 Q1428.62 1550.92 1426.2 1548.56 Q1423.78 1546.18 1423.78 1542.04 Q1423.78 1537.01 1427.34 1534.27 Q1430.91 1531.54 1437.46 1531.54 Q1440.71 1531.54 1443.58 1532.01 Q1446.44 1532.49 1448.86 1533.45 Z" fill="#000000" fill-rule="nonzero" fill-opacity="1" /><polyline clip-path="url(#clip580)" style="stroke:#000000; stroke-linecap:round; stroke-linejoin:round; stroke-width:4; stroke-opacity:1; fill:none" points="279.704,1423.18 279.704,47.2441 "/>
<polyline clip-path="url(#clip580)" style="stroke:#000000; stroke-linecap:round; stroke-linejoin:round; stroke-width:4; stroke-opacity:1; fill:none" points="279.704,1379.15 298.602,1379.15 "/>
<polyline clip-path="url(#clip580)" style="stroke:#000000; stroke-linecap:round; stroke-linejoin:round; stroke-width:4; stroke-opacity:1; fill:none" points="279.704,1062.49 298.602,1062.49 "/>
<polyline clip-path="url(#clip580)" style="stroke:#000000; stroke-linecap:round; stroke-linejoin:round; stroke-width:4; stroke-opacity:1; fill:none" points="279.704,745.817 298.602,745.817 "/>
<polyline clip-path="url(#clip580)" style="stroke:#000000; stroke-linecap:round; stroke-linejoin:round; stroke-width:4; stroke-opacity:1; fill:none" points="279.704,429.148 298.602,429.148 "/>
<polyline clip-path="url(#clip580)" style="stroke:#000000; stroke-linecap:round; stroke-linejoin:round; stroke-width:4; stroke-opacity:1; fill:none" points="279.704,112.479 298.602,112.479 "/>
<path clip-path="url(#clip580)" d="M126.205 1364.95 Q122.593 1364.95 120.765 1368.52 Q118.959 1372.06 118.959 1379.19 Q118.959 1386.3 120.765 1389.86 Q122.593 1393.4 126.205 1393.4 Q129.839 1393.4 131.644 1389.86 Q133.473 1386.3 133.473 1379.19 Q133.473 1372.06 131.644 1368.52 Q129.839 1364.95 126.205 1364.95 M126.205 1361.25 Q132.015 1361.25 135.07 1365.86 Q138.149 1370.44 138.149 1379.19 Q138.149 1387.92 135.07 1392.52 Q132.015 1397.11 126.205 1397.11 Q120.394 1397.11 117.316 1392.52 Q114.26 1387.92 114.26 1379.19 Q114.26 1370.44 117.316 1365.86 Q120.394 1361.25 126.205 1361.25 Z" fill="#000000" fill-rule="nonzero" fill-opacity="1" /><path clip-path="url(#clip580)" d="M146.366 1390.55 L151.251 1390.55 L151.251 1396.43 L146.366 1396.43 L146.366 1390.55 Z" fill="#000000" fill-rule="nonzero" fill-opacity="1" /><path clip-path="url(#clip580)" d="M161.575 1395.72 L161.575 1391.46 Q163.334 1392.29 165.14 1392.73 Q166.945 1393.17 168.681 1393.17 Q173.311 1393.17 175.741 1390.07 Q178.195 1386.94 178.542 1380.6 Q177.2 1382.59 175.139 1383.66 Q173.079 1384.72 170.579 1384.72 Q165.394 1384.72 162.362 1381.6 Q159.353 1378.45 159.353 1373.01 Q159.353 1367.68 162.501 1364.47 Q165.649 1361.25 170.88 1361.25 Q176.876 1361.25 180.024 1365.86 Q183.195 1370.44 183.195 1379.19 Q183.195 1387.36 179.306 1392.24 Q175.44 1397.11 168.889 1397.11 Q167.13 1397.11 165.325 1396.76 Q163.519 1396.41 161.575 1395.72 M170.88 1381.06 Q174.028 1381.06 175.857 1378.91 Q177.709 1376.76 177.709 1373.01 Q177.709 1369.28 175.857 1367.13 Q174.028 1364.95 170.88 1364.95 Q167.732 1364.95 165.88 1367.13 Q164.052 1369.28 164.052 1373.01 Q164.052 1376.76 165.88 1378.91 Q167.732 1381.06 170.88 1381.06 Z" fill="#000000" fill-rule="nonzero" fill-opacity="1" /><path clip-path="url(#clip580)" d="M191.737 1395.72 L191.737 1391.46 Q193.496 1392.29 195.301 1392.73 Q197.107 1393.17 198.843 1393.17 Q203.473 1393.17 205.903 1390.07 Q208.357 1386.94 208.704 1380.6 Q207.362 1382.59 205.301 1383.66 Q203.241 1384.72 200.741 1384.72 Q195.556 1384.72 192.524 1381.6 Q189.514 1378.45 189.514 1373.01 Q189.514 1367.68 192.663 1364.47 Q195.811 1361.25 201.042 1361.25 Q207.037 1361.25 210.186 1365.86 Q213.357 1370.44 213.357 1379.19 Q213.357 1387.36 209.468 1392.24 Q205.602 1397.11 199.051 1397.11 Q197.292 1397.11 195.487 1396.76 Q193.681 1396.41 191.737 1395.72 M201.042 1381.06 Q204.19 1381.06 206.019 1378.91 Q207.871 1376.76 207.871 1373.01 Q207.871 1369.28 206.019 1367.13 Q204.19 1364.95 201.042 1364.95 Q197.894 1364.95 196.042 1367.13 Q194.213 1369.28 194.213 1373.01 Q194.213 1376.76 196.042 1378.91 Q197.894 1381.06 201.042 1381.06 Z" fill="#000000" fill-rule="nonzero" fill-opacity="1" /><path clip-path="url(#clip580)" d="M231.76 1364.95 Q228.148 1364.95 226.32 1368.52 Q224.514 1372.06 224.514 1379.19 Q224.514 1386.3 226.32 1389.86 Q228.148 1393.4 231.76 1393.4 Q235.394 1393.4 237.199 1389.86 Q239.028 1386.3 239.028 1379.19 Q239.028 1372.06 237.199 1368.52 Q235.394 1364.95 231.76 1364.95 M231.76 1361.25 Q237.57 1361.25 240.625 1365.86 Q243.704 1370.44 243.704 1379.19 Q243.704 1387.92 240.625 1392.52 Q237.57 1397.11 231.76 1397.11 Q225.949 1397.11 222.871 1392.52 Q219.815 1387.92 219.815 1379.19 Q219.815 1370.44 222.871 1365.86 Q225.949 1361.25 231.76 1361.25 Z" fill="#000000" fill-rule="nonzero" fill-opacity="1" /><path clip-path="url(#clip580)" d="M127.2 1048.28 Q123.589 1048.28 121.76 1051.85 Q119.955 1055.39 119.955 1062.52 Q119.955 1069.63 121.76 1073.19 Q123.589 1076.73 127.2 1076.73 Q130.834 1076.73 132.64 1073.19 Q134.468 1069.63 134.468 1062.52 Q134.468 1055.39 132.64 1051.85 Q130.834 1048.28 127.2 1048.28 M127.2 1044.58 Q133.01 1044.58 136.066 1049.19 Q139.144 1053.77 139.144 1062.52 Q139.144 1071.25 136.066 1075.85 Q133.01 1080.44 127.2 1080.44 Q121.39 1080.44 118.311 1075.85 Q115.256 1071.25 115.256 1062.52 Q115.256 1053.77 118.311 1049.19 Q121.39 1044.58 127.2 1044.58 Z" fill="#000000" fill-rule="nonzero" fill-opacity="1" /><path clip-path="url(#clip580)" d="M147.362 1073.89 L152.246 1073.89 L152.246 1079.77 L147.362 1079.77 L147.362 1073.89 Z" fill="#000000" fill-rule="nonzero" fill-opacity="1" /><path clip-path="url(#clip580)" d="M162.57 1079.05 L162.57 1074.79 Q164.329 1075.62 166.135 1076.06 Q167.94 1076.5 169.677 1076.5 Q174.306 1076.5 176.737 1073.4 Q179.19 1070.27 179.538 1063.93 Q178.195 1065.92 176.135 1066.99 Q174.075 1068.05 171.575 1068.05 Q166.39 1068.05 163.357 1064.93 Q160.348 1061.78 160.348 1056.34 Q160.348 1051.02 163.496 1047.8 Q166.644 1044.58 171.876 1044.58 Q177.871 1044.58 181.019 1049.19 Q184.19 1053.77 184.19 1062.52 Q184.19 1070.69 180.301 1075.58 Q176.436 1080.44 169.885 1080.44 Q168.126 1080.44 166.32 1080.09 Q164.515 1079.74 162.57 1079.05 M171.876 1064.4 Q175.024 1064.4 176.852 1062.24 Q178.704 1060.09 178.704 1056.34 Q178.704 1052.61 176.852 1050.46 Q175.024 1048.28 171.876 1048.28 Q168.727 1048.28 166.876 1050.46 Q165.047 1052.61 165.047 1056.34 Q165.047 1060.09 166.876 1062.24 Q168.727 1064.4 171.876 1064.4 Z" fill="#000000" fill-rule="nonzero" fill-opacity="1" /><path clip-path="url(#clip580)" d="M192.732 1079.05 L192.732 1074.79 Q194.491 1075.62 196.297 1076.06 Q198.102 1076.5 199.838 1076.5 Q204.468 1076.5 206.899 1073.4 Q209.352 1070.27 209.699 1063.93 Q208.357 1065.92 206.297 1066.99 Q204.237 1068.05 201.737 1068.05 Q196.551 1068.05 193.519 1064.93 Q190.51 1061.78 190.51 1056.34 Q190.51 1051.02 193.658 1047.8 Q196.806 1044.58 202.037 1044.58 Q208.033 1044.58 211.181 1049.19 Q214.352 1053.77 214.352 1062.52 Q214.352 1070.69 210.463 1075.58 Q206.598 1080.44 200.047 1080.44 Q198.287 1080.44 196.482 1080.09 Q194.676 1079.74 192.732 1079.05 M202.037 1064.4 Q205.186 1064.4 207.014 1062.24 Q208.866 1060.09 208.866 1056.34 Q208.866 1052.61 207.014 1050.46 Q205.186 1048.28 202.037 1048.28 Q198.889 1048.28 197.037 1050.46 Q195.209 1052.61 195.209 1056.34 Q195.209 1060.09 197.037 1062.24 Q198.889 1064.4 202.037 1064.4 Z" fill="#000000" fill-rule="nonzero" fill-opacity="1" /><path clip-path="url(#clip580)" d="M222.801 1045.21 L241.158 1045.21 L241.158 1049.14 L227.084 1049.14 L227.084 1057.61 Q228.102 1057.27 229.121 1057.1 Q230.139 1056.92 231.158 1056.92 Q236.945 1056.92 240.324 1060.09 Q243.704 1063.26 243.704 1068.68 Q243.704 1074.26 240.232 1077.36 Q236.76 1080.44 230.44 1080.44 Q228.264 1080.44 225.996 1080.07 Q223.75 1079.7 221.343 1078.96 L221.343 1074.26 Q223.426 1075.39 225.648 1075.95 Q227.871 1076.5 230.347 1076.5 Q234.352 1076.5 236.69 1074.4 Q239.028 1072.29 239.028 1068.68 Q239.028 1065.07 236.69 1062.96 Q234.352 1060.85 230.347 1060.85 Q228.473 1060.85 226.598 1061.27 Q224.746 1061.69 222.801 1062.57 L222.801 1045.21 Z" fill="#000000" fill-rule="nonzero" fill-opacity="1" /><path clip-path="url(#clip580)" d="M117.015 759.162 L124.654 759.162 L124.654 732.796 L116.343 734.463 L116.343 730.203 L124.607 728.537 L129.283 728.537 L129.283 759.162 L136.922 759.162 L136.922 763.097 L117.015 763.097 L117.015 759.162 Z" fill="#000000" fill-rule="nonzero" fill-opacity="1" /><path clip-path="url(#clip580)" d="M146.366 757.217 L151.251 757.217 L151.251 763.097 L146.366 763.097 L146.366 757.217 Z" fill="#000000" fill-rule="nonzero" fill-opacity="1" /><path clip-path="url(#clip580)" d="M171.436 731.615 Q167.825 731.615 165.996 735.18 Q164.19 738.722 164.19 745.851 Q164.19 752.958 165.996 756.523 Q167.825 760.064 171.436 760.064 Q175.07 760.064 176.876 756.523 Q178.704 752.958 178.704 745.851 Q178.704 738.722 176.876 735.18 Q175.07 731.615 171.436 731.615 M171.436 727.912 Q177.246 727.912 180.301 732.518 Q183.38 737.101 183.38 745.851 Q183.38 754.578 180.301 759.185 Q177.246 763.768 171.436 763.768 Q165.626 763.768 162.547 759.185 Q159.491 754.578 159.491 745.851 Q159.491 737.101 162.547 732.518 Q165.626 727.912 171.436 727.912 Z" fill="#000000" fill-rule="nonzero" fill-opacity="1" /><path clip-path="url(#clip580)" d="M201.598 731.615 Q197.987 731.615 196.158 735.18 Q194.352 738.722 194.352 745.851 Q194.352 752.958 196.158 756.523 Q197.987 760.064 201.598 760.064 Q205.232 760.064 207.037 756.523 Q208.866 752.958 208.866 745.851 Q208.866 738.722 207.037 735.18 Q205.232 731.615 201.598 731.615 M201.598 727.912 Q207.408 727.912 210.463 732.518 Q213.542 737.101 213.542 745.851 Q213.542 754.578 210.463 759.185 Q207.408 763.768 201.598 763.768 Q195.787 763.768 192.709 759.185 Q189.653 754.578 189.653 745.851 Q189.653 737.101 192.709 732.518 Q195.787 727.912 201.598 727.912 Z" fill="#000000" fill-rule="nonzero" fill-opacity="1" /><path clip-path="url(#clip580)" d="M231.76 731.615 Q228.148 731.615 226.32 735.18 Q224.514 738.722 224.514 745.851 Q224.514 752.958 226.32 756.523 Q228.148 760.064 231.76 760.064 Q235.394 760.064 237.199 756.523 Q239.028 752.958 239.028 745.851 Q239.028 738.722 237.199 735.18 Q235.394 731.615 231.76 731.615 M231.76 727.912 Q237.57 727.912 240.625 732.518 Q243.704 737.101 243.704 745.851 Q243.704 754.578 240.625 759.185 Q237.57 763.768 231.76 763.768 Q225.949 763.768 222.871 759.185 Q219.815 754.578 219.815 745.851 Q219.815 737.101 222.871 732.518 Q225.949 727.912 231.76 727.912 Z" fill="#000000" fill-rule="nonzero" fill-opacity="1" /><path clip-path="url(#clip580)" d="M118.01 442.493 L125.649 442.493 L125.649 416.127 L117.339 417.794 L117.339 413.534 L125.603 411.868 L130.279 411.868 L130.279 442.493 L137.917 442.493 L137.917 446.428 L118.01 446.428 L118.01 442.493 Z" fill="#000000" fill-rule="nonzero" fill-opacity="1" /><path clip-path="url(#clip580)" d="M147.362 440.548 L152.246 440.548 L152.246 446.428 L147.362 446.428 L147.362 440.548 Z" fill="#000000" fill-rule="nonzero" fill-opacity="1" /><path clip-path="url(#clip580)" d="M172.431 414.947 Q168.82 414.947 166.991 418.511 Q165.186 422.053 165.186 429.183 Q165.186 436.289 166.991 439.854 Q168.82 443.395 172.431 443.395 Q176.065 443.395 177.871 439.854 Q179.7 436.289 179.7 429.183 Q179.7 422.053 177.871 418.511 Q176.065 414.947 172.431 414.947 M172.431 411.243 Q178.241 411.243 181.297 415.849 Q184.376 420.433 184.376 429.183 Q184.376 437.909 181.297 442.516 Q178.241 447.099 172.431 447.099 Q166.621 447.099 163.542 442.516 Q160.487 437.909 160.487 429.183 Q160.487 420.433 163.542 415.849 Q166.621 411.243 172.431 411.243 Z" fill="#000000" fill-rule="nonzero" fill-opacity="1" /><path clip-path="url(#clip580)" d="M202.593 414.947 Q198.982 414.947 197.153 418.511 Q195.348 422.053 195.348 429.183 Q195.348 436.289 197.153 439.854 Q198.982 443.395 202.593 443.395 Q206.227 443.395 208.033 439.854 Q209.861 436.289 209.861 429.183 Q209.861 422.053 208.033 418.511 Q206.227 414.947 202.593 414.947 M202.593 411.243 Q208.403 411.243 211.459 415.849 Q214.537 420.433 214.537 429.183 Q214.537 437.909 211.459 442.516 Q208.403 447.099 202.593 447.099 Q196.783 447.099 193.704 442.516 Q190.649 437.909 190.649 429.183 Q190.649 420.433 193.704 415.849 Q196.783 411.243 202.593 411.243 Z" fill="#000000" fill-rule="nonzero" fill-opacity="1" /><path clip-path="url(#clip580)" d="M222.801 411.868 L241.158 411.868 L241.158 415.803 L227.084 415.803 L227.084 424.275 Q228.102 423.928 229.121 423.766 Q230.139 423.581 231.158 423.581 Q236.945 423.581 240.324 426.752 Q243.704 429.923 243.704 435.34 Q243.704 440.919 240.232 444.02 Q236.76 447.099 230.44 447.099 Q228.264 447.099 225.996 446.729 Q223.75 446.358 221.343 445.618 L221.343 440.919 Q223.426 442.053 225.648 442.608 Q227.871 443.164 230.347 443.164 Q234.352 443.164 236.69 441.057 Q239.028 438.951 239.028 435.34 Q239.028 431.729 236.69 429.622 Q234.352 427.516 230.347 427.516 Q228.473 427.516 226.598 427.933 Q224.746 428.349 222.801 429.229 L222.801 411.868 Z" fill="#000000" fill-rule="nonzero" fill-opacity="1" /><path clip-path="url(#clip580)" d="M117.015 125.824 L124.654 125.824 L124.654 99.4582 L116.343 101.125 L116.343 96.8657 L124.607 95.199 L129.283 95.199 L129.283 125.824 L136.922 125.824 L136.922 129.759 L117.015 129.759 L117.015 125.824 Z" fill="#000000" fill-rule="nonzero" fill-opacity="1" /><path clip-path="url(#clip580)" d="M146.366 123.879 L151.251 123.879 L151.251 129.759 L146.366 129.759 L146.366 123.879 Z" fill="#000000" fill-rule="nonzero" fill-opacity="1" /><path clip-path="url(#clip580)" d="M171.436 98.2777 Q167.825 98.2777 165.996 101.842 Q164.19 105.384 164.19 112.514 Q164.19 119.62 165.996 123.185 Q167.825 126.727 171.436 126.727 Q175.07 126.727 176.876 123.185 Q178.704 119.62 178.704 112.514 Q178.704 105.384 176.876 101.842 Q175.07 98.2777 171.436 98.2777 M171.436 94.574 Q177.246 94.574 180.301 99.1805 Q183.38 103.764 183.38 112.514 Q183.38 121.241 180.301 125.847 Q177.246 130.43 171.436 130.43 Q165.626 130.43 162.547 125.847 Q159.491 121.241 159.491 112.514 Q159.491 103.764 162.547 99.1805 Q165.626 94.574 171.436 94.574 Z" fill="#000000" fill-rule="nonzero" fill-opacity="1" /><path clip-path="url(#clip580)" d="M192.408 125.824 L200.047 125.824 L200.047 99.4582 L191.737 101.125 L191.737 96.8657 L200 95.199 L204.676 95.199 L204.676 125.824 L212.315 125.824 L212.315 129.759 L192.408 129.759 L192.408 125.824 Z" fill="#000000" fill-rule="nonzero" fill-opacity="1" /><path clip-path="url(#clip580)" d="M231.76 98.2777 Q228.148 98.2777 226.32 101.842 Q224.514 105.384 224.514 112.514 Q224.514 119.62 226.32 123.185 Q228.148 126.727 231.76 126.727 Q235.394 126.727 237.199 123.185 Q239.028 119.62 239.028 112.514 Q239.028 105.384 237.199 101.842 Q235.394 98.2777 231.76 98.2777 M231.76 94.574 Q237.57 94.574 240.625 99.1805 Q243.704 103.764 243.704 112.514 Q243.704 121.241 240.625 125.847 Q237.57 130.43 231.76 130.43 Q225.949 130.43 222.871 125.847 Q219.815 121.241 219.815 112.514 Q219.815 103.764 222.871 99.1805 Q225.949 94.574 231.76 94.574 Z" fill="#000000" fill-rule="nonzero" fill-opacity="1" /><path clip-path="url(#clip580)" d="M57.2247 896.821 L44.4614 896.821 L44.4614 907.325 L39.1779 907.325 L39.1779 890.456 L59.58 890.456 Q62.2218 894.18 63.5904 898.667 Q64.9272 903.155 64.9272 908.248 Q64.9272 919.388 58.4342 925.69 Q51.9093 931.96 40.2919 931.96 Q28.6427 931.96 22.1496 925.69 Q15.6248 919.388 15.6248 908.248 Q15.6248 903.601 16.7706 899.431 Q17.9164 895.23 20.1444 891.697 L26.9876 891.697 Q23.9639 895.262 22.4361 899.272 Q20.9083 903.283 20.9083 907.707 Q20.9083 916.428 25.7781 920.82 Q30.6479 925.181 40.2919 925.181 Q49.9041 925.181 54.7739 920.82 Q59.6436 916.428 59.6436 907.707 Q59.6436 904.301 59.0707 901.627 Q58.466 898.954 57.2247 896.821 Z" fill="#000000" fill-rule="nonzero" fill-opacity="1" /><path clip-path="url(#clip580)" d="M21.7677 872.282 L58.7206 872.282 L58.7206 864.515 Q58.7206 854.68 54.2646 850.129 Q49.8086 845.546 40.1964 845.546 Q30.6479 845.546 26.2237 850.129 Q21.7677 854.68 21.7677 864.515 L21.7677 872.282 M16.4842 878.711 L16.4842 865.502 Q16.4842 851.688 22.2451 845.227 Q27.9743 838.766 40.1964 838.766 Q52.4822 838.766 58.2432 845.259 Q64.0042 851.752 64.0042 865.502 L64.0042 878.711 L16.4842 878.711 Z" fill="#000000" fill-rule="nonzero" fill-opacity="1" /><path clip-path="url(#clip580)" d="M21.7677 822.088 L39.6235 822.088 L39.6235 814.004 Q39.6235 809.516 37.3 807.065 Q34.9765 804.614 30.6797 804.614 Q26.4147 804.614 24.0912 807.065 Q21.7677 809.516 21.7677 814.004 L21.7677 822.088 M16.4842 828.517 L16.4842 814.004 Q16.4842 806.015 20.1126 801.94 Q23.7092 797.835 30.6797 797.835 Q37.7138 797.835 41.3104 801.94 Q44.907 806.015 44.907 814.004 L44.907 822.088 L64.0042 822.088 L64.0042 828.517 L16.4842 828.517 Z" fill="#000000" fill-rule="nonzero" fill-opacity="1" /><path clip-path="url(#clip580)" d="M29.7248 743.09 L35.1993 743.09 Q33.8307 745.572 33.1623 748.087 Q32.4621 750.569 32.4621 753.116 Q32.4621 758.813 36.0905 761.964 Q39.6872 765.115 46.212 765.115 Q52.7369 765.115 56.3653 761.964 Q59.9619 758.813 59.9619 753.116 Q59.9619 750.569 59.2935 748.087 Q58.5933 745.572 57.2247 743.09 L62.6355 743.09 Q63.7814 745.54 64.3543 748.182 Q64.9272 750.792 64.9272 753.752 Q64.9272 761.805 59.8664 766.547 Q54.8057 771.29 46.212 771.29 Q37.491 771.29 32.4939 766.515 Q27.4968 761.709 27.4968 753.37 Q27.4968 750.665 28.0697 748.087 Q28.6108 745.508 29.7248 743.09 Z" fill="#000000" fill-rule="nonzero" fill-opacity="1" /><path clip-path="url(#clip580)" d="M42.4881 703.272 L64.0042 703.272 L64.0042 709.128 L42.679 709.128 Q37.6183 709.128 35.1038 711.102 Q32.5894 713.075 32.5894 717.022 Q32.5894 721.764 35.6131 724.502 Q38.6368 727.239 43.8567 727.239 L64.0042 727.239 L64.0042 733.127 L14.479 733.127 L14.479 727.239 L33.8944 727.239 Q30.6797 725.138 29.0883 722.305 Q27.4968 719.441 27.4968 715.717 Q27.4968 709.574 31.3163 706.423 Q35.1038 703.272 42.4881 703.272 Z" fill="#000000" fill-rule="nonzero" fill-opacity="1" /><path clip-path="url(#clip580)" d="M46.0847 675.39 Q46.0847 682.488 47.7079 685.225 Q49.3312 687.963 53.2461 687.963 Q56.3653 687.963 58.2114 685.925 Q60.0256 683.857 60.0256 680.324 Q60.0256 675.454 56.5881 672.526 Q53.1188 669.566 47.3897 669.566 L46.0847 669.566 L46.0847 675.39 M43.6657 663.709 L64.0042 663.709 L64.0042 669.566 L58.5933 669.566 Q61.8398 671.571 63.3994 674.563 Q64.9272 677.555 64.9272 681.883 Q64.9272 687.358 61.8716 690.604 Q58.7843 693.819 53.6281 693.819 Q47.6125 693.819 44.5569 689.809 Q41.5014 685.766 41.5014 677.777 L41.5014 669.566 L40.9285 669.566 Q36.8862 669.566 34.6901 672.239 Q32.4621 674.881 32.4621 679.687 Q32.4621 682.743 33.1941 685.639 Q33.9262 688.535 35.3903 691.209 L29.9795 691.209 Q28.7381 687.994 28.1334 684.971 Q27.4968 681.947 27.4968 679.082 Q27.4968 671.348 31.5072 667.529 Q35.5176 663.709 43.6657 663.709 Z" fill="#000000" fill-rule="nonzero" fill-opacity="1" /><path clip-path="url(#clip580)" d="M42.4881 622.014 L64.0042 622.014 L64.0042 627.87 L42.679 627.87 Q37.6183 627.87 35.1038 629.844 Q32.5894 631.817 32.5894 635.764 Q32.5894 640.506 35.6131 643.243 Q38.6368 645.981 43.8567 645.981 L64.0042 645.981 L64.0042 651.869 L28.3562 651.869 L28.3562 645.981 L33.8944 645.981 Q30.6797 643.88 29.0883 641.047 Q27.4968 638.183 27.4968 634.459 Q27.4968 628.316 31.3163 625.165 Q35.1038 622.014 42.4881 622.014 Z" fill="#000000" fill-rule="nonzero" fill-opacity="1" /><path clip-path="url(#clip580)" d="M45.7664 586.875 Q39.4007 586.875 35.8996 589.517 Q32.3984 592.127 32.3984 596.869 Q32.3984 601.58 35.8996 604.222 Q39.4007 606.832 45.7664 606.832 Q52.1003 606.832 55.6014 604.222 Q59.1026 601.58 59.1026 596.869 Q59.1026 592.127 55.6014 589.517 Q52.1003 586.875 45.7664 586.875 M59.58 581.019 Q68.683 581.019 73.1071 585.061 Q77.5631 589.103 77.5631 597.442 Q77.5631 600.53 77.0857 603.267 Q76.6401 606.004 75.6852 608.582 L69.9879 608.582 Q71.3884 606.004 72.0568 603.49 Q72.7252 600.975 72.7252 598.365 Q72.7252 592.604 69.7015 589.74 Q66.7096 586.875 60.6303 586.875 L57.7339 586.875 Q60.885 588.689 62.4446 591.522 Q64.0042 594.355 64.0042 598.302 Q64.0042 604.858 59.0071 608.869 Q54.01 612.879 45.7664 612.879 Q37.491 612.879 32.4939 608.869 Q27.4968 604.858 27.4968 598.302 Q27.4968 594.355 29.0564 591.522 Q30.616 588.689 33.7671 586.875 L28.3562 586.875 L28.3562 581.019 L59.58 581.019 Z" fill="#000000" fill-rule="nonzero" fill-opacity="1" /><path clip-path="url(#clip580)" d="M44.7161 538.464 L47.5806 538.464 L47.5806 565.391 Q53.6281 565.009 56.8109 561.762 Q59.9619 558.484 59.9619 552.659 Q59.9619 549.286 59.1344 546.135 Q58.3069 542.952 56.6518 539.833 L62.1899 539.833 Q63.5267 542.984 64.227 546.294 Q64.9272 549.604 64.9272 553.01 Q64.9272 561.54 59.9619 566.537 Q54.9967 571.502 46.5303 571.502 Q37.7774 571.502 32.6531 566.791 Q27.4968 562.049 27.4968 554.028 Q27.4968 546.835 32.1438 542.665 Q36.7589 538.464 44.7161 538.464 M42.9973 544.32 Q38.1912 544.384 35.3266 547.026 Q32.4621 549.636 32.4621 553.964 Q32.4621 558.866 35.2312 561.826 Q38.0002 564.754 43.0292 565.2 L42.9973 544.32 Z" fill="#000000" fill-rule="nonzero" fill-opacity="1" /><path clip-path="url(#clip582)" d="M338.375 745.817 L460.607 805.075 L582.839 540.055 L705.071 448.761 L827.303 370.352 L949.534 683.628 L1071.77 717.811 L1194 805.483 L1316.23 893.609 L1438.46 1043.96 L1560.69 1050.74 L1682.93 1257.38 L1805.16 1166.94 L1927.39 1290.26 L2049.62 1294.99 L2171.85 1358.86 L2294.08 1384.24 L2294.08 792.454 L2171.85 783.219 L2049.62 767.126 L1927.39 795.654 L1805.16 697.395 L1682.93 798.647 L1560.69 619.138 L1438.46 633.476 L1316.23 504.474 L1194 447.098 L1071.77 401.294 L949.534 385.613 L827.303 86.1857 L705.071 202.464 L582.839 344.063 L460.607 654.185 L338.375 745.817  Z" fill="#009af9" fill-rule="evenodd" fill-opacity="0.2"/>
<polyline clip-path="url(#clip582)" style="stroke:#009af9; stroke-linecap:round; stroke-linejoin:round; stroke-width:4; stroke-opacity:1; fill:none" points="338.375,745.817 460.607,729.63 582.839,442.059 705.071,325.613 827.303,228.269 949.534,534.621 1071.77,559.552 1194,626.291 1316.23,699.042 1438.46,838.716 1560.69,834.94 1682.93,1028.01 1805.16,932.169 1927.39,1042.95 2049.62,1031.06 2171.85,1071.04 2294.08,1088.35 "/>
</svg>
