<?xml version="1.0" encoding="utf-8"?>
<svg xmlns="http://www.w3.org/2000/svg" xmlns:xlink="http://www.w3.org/1999/xlink" width="600" height="400" viewBox="0 0 2400 1600">
<defs>
  <clipPath id="clip150">
    <rect x="0" y="0" width="2400" height="1600"/>
  </clipPath>
</defs>
<path clip-path="url(#clip150)" d="M0 1600 L2400 1600 L2400 0 L0 0  Z" fill="#ffffff" fill-rule="evenodd" fill-opacity="1"/>
<defs>
  <clipPath id="clip151">
    <rect x="480" y="0" width="1681" height="1600"/>
  </clipPath>
</defs>
<path clip-path="url(#clip150)" d="M277.621 1423.18 L2352.76 1423.18 L2352.76 47.2441 L277.621 47.2441  Z" fill="#ffffff" fill-rule="evenodd" fill-opacity="1"/>
<defs>
  <clipPath id="clip152">
    <rect x="277" y="47" width="2076" height="1377"/>
  </clipPath>
</defs>
<polyline clip-path="url(#clip152)" style="stroke:#000000; stroke-linecap:round; stroke-linejoin:round; stroke-width:2; stroke-opacity:0.1; fill:none" points="581.06,1423.18 581.06,47.2441 "/>
<polyline clip-path="url(#clip152)" style="stroke:#000000; stroke-linecap:round; stroke-linejoin:round; stroke-width:2; stroke-opacity:0.1; fill:none" points="948.124,1423.18 948.124,47.2441 "/>
<polyline clip-path="url(#clip152)" style="stroke:#000000; stroke-linecap:round; stroke-linejoin:round; stroke-width:2; stroke-opacity:0.1; fill:none" points="1315.19,1423.18 1315.19,47.2441 "/>
<polyline clip-path="url(#clip152)" style="stroke:#000000; stroke-linecap:round; stroke-linejoin:round; stroke-width:2; stroke-opacity:0.1; fill:none" points="1682.25,1423.18 1682.25,47.2441 "/>
<polyline clip-path="url(#clip152)" style="stroke:#000000; stroke-linecap:round; stroke-linejoin:round; stroke-width:2; stroke-opacity:0.1; fill:none" points="2049.32,1423.18 2049.32,47.2441 "/>
<polyline clip-path="url(#clip152)" style="stroke:#000000; stroke-linecap:round; stroke-linejoin:round; stroke-width:2; stroke-opacity:0.1; fill:none" points="277.621,1319.16 2352.76,1319.16 "/>
<polyline clip-path="url(#clip152)" style="stroke:#000000; stroke-linecap:round; stroke-linejoin:round; stroke-width:2; stroke-opacity:0.1; fill:none" points="277.621,897.817 2352.76,897.817 "/>
<polyline clip-path="url(#clip152)" style="stroke:#000000; stroke-linecap:round; stroke-linejoin:round; stroke-width:2; stroke-opacity:0.1; fill:none" points="277.621,476.473 2352.76,476.473 "/>
<polyline clip-path="url(#clip152)" style="stroke:#000000; stroke-linecap:round; stroke-linejoin:round; stroke-width:2; stroke-opacity:0.1; fill:none" points="277.621,55.1296 2352.76,55.1296 "/>
<polyline clip-path="url(#clip150)" style="stroke:#000000; stroke-linecap:round; stroke-linejoin:round; stroke-width:4; stroke-opacity:1; fill:none" points="277.621,1423.18 2352.76,1423.18 "/>
<polyline clip-path="url(#clip150)" style="stroke:#000000; stroke-linecap:round; stroke-linejoin:round; stroke-width:4; stroke-opacity:1; fill:none" points="581.06,1423.18 581.06,1404.28 "/>
<polyline clip-path="url(#clip150)" style="stroke:#000000; stroke-linecap:round; stroke-linejoin:round; stroke-width:4; stroke-opacity:1; fill:none" points="948.124,1423.18 948.124,1404.28 "/>
<polyline clip-path="url(#clip150)" style="stroke:#000000; stroke-linecap:round; stroke-linejoin:round; stroke-width:4; stroke-opacity:1; fill:none" points="1315.19,1423.18 1315.19,1404.28 "/>
<polyline clip-path="url(#clip150)" style="stroke:#000000; stroke-linecap:round; stroke-linejoin:round; stroke-width:4; stroke-opacity:1; fill:none" points="1682.25,1423.18 1682.25,1404.28 "/>
<polyline clip-path="url(#clip150)" style="stroke:#000000; stroke-linecap:round; stroke-linejoin:round; stroke-width:4; stroke-opacity:1; fill:none" points="2049.32,1423.18 2049.32,1404.28 "/>
<path clip-path="url(#clip150)" d="M585.308 1466.95 Q588.664 1467.66 590.539 1469.93 Q592.437 1472.2 592.437 1475.53 Q592.437 1480.65 588.919 1483.45 Q585.4 1486.25 578.919 1486.25 Q576.743 1486.25 574.428 1485.81 Q572.137 1485.39 569.683 1484.54 L569.683 1480.02 Q571.627 1481.16 573.942 1481.74 Q576.257 1482.32 578.78 1482.32 Q583.178 1482.32 585.47 1480.58 Q587.785 1478.84 587.785 1475.53 Q587.785 1472.48 585.632 1470.77 Q583.502 1469.03 579.683 1469.03 L575.655 1469.03 L575.655 1465.19 L579.868 1465.19 Q583.317 1465.19 585.146 1463.82 Q586.975 1462.43 586.975 1459.84 Q586.975 1457.18 585.076 1455.77 Q583.201 1454.33 579.683 1454.33 Q577.762 1454.33 575.563 1454.75 Q573.363 1455.16 570.725 1456.04 L570.725 1451.88 Q573.387 1451.14 575.701 1450.77 Q578.039 1450.39 580.1 1450.39 Q585.424 1450.39 588.525 1452.83 Q591.627 1455.23 591.627 1459.35 Q591.627 1462.22 589.984 1464.21 Q588.34 1466.18 585.308 1466.95 Z" fill="#000000" fill-rule="nonzero" fill-opacity="1" /><path clip-path="url(#clip150)" d="M948.529 1466.44 Q945.381 1466.44 943.529 1468.59 Q941.701 1470.74 941.701 1474.49 Q941.701 1478.22 943.529 1480.39 Q945.381 1482.55 948.529 1482.55 Q951.677 1482.55 953.506 1480.39 Q955.358 1478.22 955.358 1474.49 Q955.358 1470.74 953.506 1468.59 Q951.677 1466.44 948.529 1466.44 M957.812 1451.78 L957.812 1456.04 Q956.052 1455.21 954.247 1454.77 Q952.464 1454.33 950.705 1454.33 Q946.076 1454.33 943.622 1457.45 Q941.191 1460.58 940.844 1466.9 Q942.21 1464.89 944.27 1463.82 Q946.33 1462.73 948.807 1462.73 Q954.015 1462.73 957.025 1465.9 Q960.057 1469.05 960.057 1474.49 Q960.057 1479.82 956.909 1483.03 Q953.761 1486.25 948.529 1486.25 Q942.534 1486.25 939.363 1481.67 Q936.191 1477.06 936.191 1468.33 Q936.191 1460.14 940.08 1455.28 Q943.969 1450.39 950.52 1450.39 Q952.279 1450.39 954.062 1450.74 Q955.867 1451.09 957.812 1451.78 Z" fill="#000000" fill-rule="nonzero" fill-opacity="1" /><path clip-path="url(#clip150)" d="M1305.49 1484.86 L1305.49 1480.6 Q1307.25 1481.44 1309.05 1481.88 Q1310.86 1482.32 1312.6 1482.32 Q1317.23 1482.32 1319.66 1479.21 Q1322.11 1476.09 1322.46 1469.75 Q1321.11 1471.74 1319.05 1472.8 Q1316.99 1473.87 1314.49 1473.87 Q1309.31 1473.87 1306.28 1470.74 Q1303.27 1467.59 1303.27 1462.15 Q1303.27 1456.83 1306.42 1453.61 Q1309.56 1450.39 1314.79 1450.39 Q1320.79 1450.39 1323.94 1455 Q1327.11 1459.58 1327.11 1468.33 Q1327.11 1476.51 1323.22 1481.39 Q1319.35 1486.25 1312.8 1486.25 Q1311.04 1486.25 1309.24 1485.9 Q1307.43 1485.56 1305.49 1484.86 M1314.79 1470.21 Q1317.94 1470.21 1319.77 1468.06 Q1321.62 1465.9 1321.62 1462.15 Q1321.62 1458.43 1319.77 1456.27 Q1317.94 1454.1 1314.79 1454.1 Q1311.65 1454.1 1309.79 1456.27 Q1307.97 1458.43 1307.97 1462.15 Q1307.97 1465.9 1309.79 1468.06 Q1311.65 1470.21 1314.79 1470.21 Z" fill="#000000" fill-rule="nonzero" fill-opacity="1" /><path clip-path="url(#clip150)" d="M1657.74 1481.64 L1665.38 1481.64 L1665.38 1455.28 L1657.07 1456.95 L1657.07 1452.69 L1665.33 1451.02 L1670.01 1451.02 L1670.01 1481.64 L1677.65 1481.64 L1677.65 1485.58 L1657.74 1485.58 L1657.74 1481.64 Z" fill="#000000" fill-rule="nonzero" fill-opacity="1" /><path clip-path="url(#clip150)" d="M1691.12 1481.64 L1707.44 1481.64 L1707.44 1485.58 L1685.49 1485.58 L1685.49 1481.64 Q1688.16 1478.89 1692.74 1474.26 Q1697.34 1469.61 1698.53 1468.27 Q1700.77 1465.74 1701.65 1464.01 Q1702.55 1462.25 1702.55 1460.56 Q1702.55 1457.8 1700.61 1456.07 Q1698.69 1454.33 1695.59 1454.33 Q1693.39 1454.33 1690.93 1455.09 Q1688.5 1455.86 1685.72 1457.41 L1685.72 1452.69 Q1688.55 1451.55 1691 1450.97 Q1693.46 1450.39 1695.49 1450.39 Q1700.86 1450.39 1704.06 1453.08 Q1707.25 1455.77 1707.25 1460.26 Q1707.25 1462.39 1706.44 1464.31 Q1705.65 1466.2 1703.55 1468.8 Q1702.97 1469.47 1699.87 1472.69 Q1696.77 1475.88 1691.12 1481.64 Z" fill="#000000" fill-rule="nonzero" fill-opacity="1" /><path clip-path="url(#clip150)" d="M2024.5 1481.64 L2032.14 1481.64 L2032.14 1455.28 L2023.83 1456.95 L2023.83 1452.69 L2032.09 1451.02 L2036.77 1451.02 L2036.77 1481.64 L2044.41 1481.64 L2044.41 1485.58 L2024.5 1485.58 L2024.5 1481.64 Z" fill="#000000" fill-rule="nonzero" fill-opacity="1" /><path clip-path="url(#clip150)" d="M2053.9 1451.02 L2072.26 1451.02 L2072.26 1454.96 L2058.18 1454.96 L2058.18 1463.43 Q2059.2 1463.08 2060.22 1462.92 Q2061.24 1462.73 2062.26 1462.73 Q2068.04 1462.73 2071.42 1465.9 Q2074.8 1469.08 2074.8 1474.49 Q2074.8 1480.07 2071.33 1483.17 Q2067.86 1486.25 2061.54 1486.25 Q2059.36 1486.25 2057.09 1485.88 Q2054.85 1485.51 2052.44 1484.77 L2052.44 1480.07 Q2054.52 1481.2 2056.75 1481.76 Q2058.97 1482.32 2061.45 1482.32 Q2065.45 1482.32 2067.79 1480.21 Q2070.13 1478.1 2070.13 1474.49 Q2070.13 1470.88 2067.79 1468.77 Q2065.45 1466.67 2061.45 1466.67 Q2059.57 1466.67 2057.7 1467.08 Q2055.84 1467.5 2053.9 1468.38 L2053.9 1451.02 Z" fill="#000000" fill-rule="nonzero" fill-opacity="1" /><path clip-path="url(#clip150)" d="M1186.7 1550.25 Q1186.7 1556.71 1189.34 1560.4 Q1192.01 1564.07 1196.66 1564.07 Q1201.31 1564.07 1203.98 1560.4 Q1206.65 1556.71 1206.65 1550.25 Q1206.65 1543.79 1203.98 1540.13 Q1201.31 1536.44 1196.66 1536.44 Q1192.01 1536.44 1189.34 1540.13 Q1186.7 1543.79 1186.7 1550.25 M1206.65 1562.7 Q1204.81 1565.88 1201.97 1567.44 Q1199.17 1568.97 1195.23 1568.97 Q1188.77 1568.97 1184.69 1563.81 Q1180.65 1558.65 1180.65 1550.25 Q1180.65 1541.85 1184.69 1536.69 Q1188.77 1531.54 1195.23 1531.54 Q1199.17 1531.54 1201.97 1533.1 Q1204.81 1534.62 1206.65 1537.81 L1206.65 1532.4 L1212.51 1532.4 L1212.51 1581.6 L1206.65 1581.6 L1206.65 1562.7 Z" fill="#000000" fill-rule="nonzero" fill-opacity="1" /><path clip-path="url(#clip150)" d="M1223.97 1553.98 L1223.97 1532.4 L1229.82 1532.4 L1229.82 1553.75 Q1229.82 1558.81 1231.8 1561.36 Q1233.77 1563.87 1237.72 1563.87 Q1242.46 1563.87 1245.2 1560.85 Q1247.97 1557.83 1247.97 1552.61 L1247.97 1532.4 L1253.82 1532.4 L1253.82 1568.04 L1247.97 1568.04 L1247.97 1562.57 Q1245.83 1565.82 1243 1567.41 Q1240.2 1568.97 1236.48 1568.97 Q1230.33 1568.97 1227.15 1565.15 Q1223.97 1561.33 1223.97 1553.98 M1238.7 1531.54 L1238.7 1531.54 Z" fill="#000000" fill-rule="nonzero" fill-opacity="1" /><path clip-path="url(#clip150)" d="M1282.09 1550.12 Q1274.99 1550.12 1272.25 1551.75 Q1269.51 1553.37 1269.51 1557.29 Q1269.51 1560.4 1271.55 1562.25 Q1273.62 1564.07 1277.15 1564.07 Q1282.02 1564.07 1284.95 1560.63 Q1287.91 1557.16 1287.91 1551.43 L1287.91 1550.12 L1282.09 1550.12 M1293.77 1547.71 L1293.77 1568.04 L1287.91 1568.04 L1287.91 1562.63 Q1285.91 1565.88 1282.91 1567.44 Q1279.92 1568.97 1275.59 1568.97 Q1270.12 1568.97 1266.87 1565.91 Q1263.66 1562.82 1263.66 1557.67 Q1263.66 1551.65 1267.67 1548.6 Q1271.71 1545.54 1279.7 1545.54 L1287.91 1545.54 L1287.91 1544.97 Q1287.91 1540.93 1285.24 1538.73 Q1282.6 1536.5 1277.79 1536.5 Q1274.73 1536.5 1271.84 1537.23 Q1268.94 1537.97 1266.27 1539.43 L1266.27 1534.02 Q1269.48 1532.78 1272.51 1532.17 Q1275.53 1531.54 1278.39 1531.54 Q1286.13 1531.54 1289.95 1535.55 Q1293.77 1539.56 1293.77 1547.71 Z" fill="#000000" fill-rule="nonzero" fill-opacity="1" /><path clip-path="url(#clip150)" d="M1326.49 1537.87 Q1325.5 1537.3 1324.32 1537.04 Q1323.18 1536.76 1321.78 1536.76 Q1316.81 1536.76 1314.14 1540 Q1311.5 1543.22 1311.5 1549.27 L1311.5 1568.04 L1305.61 1568.04 L1305.61 1532.4 L1311.5 1532.4 L1311.5 1537.93 Q1313.34 1534.69 1316.3 1533.13 Q1319.26 1531.54 1323.5 1531.54 Q1324.1 1531.54 1324.83 1531.63 Q1325.56 1531.7 1326.46 1531.85 L1326.49 1537.87 Z" fill="#000000" fill-rule="nonzero" fill-opacity="1" /><path clip-path="url(#clip150)" d="M1338.42 1522.27 L1338.42 1532.4 L1350.49 1532.4 L1350.49 1536.95 L1338.42 1536.95 L1338.42 1556.3 Q1338.42 1560.66 1339.6 1561.9 Q1340.81 1563.14 1344.47 1563.14 L1350.49 1563.14 L1350.49 1568.04 L1344.47 1568.04 Q1337.69 1568.04 1335.11 1565.53 Q1332.53 1562.98 1332.53 1556.3 L1332.53 1536.95 L1328.24 1536.95 L1328.24 1532.4 L1332.53 1532.4 L1332.53 1522.27 L1338.42 1522.27 Z" fill="#000000" fill-rule="nonzero" fill-opacity="1" /><path clip-path="url(#clip150)" d="M1388.68 1548.76 L1388.68 1551.62 L1361.75 1551.62 Q1362.14 1557.67 1365.38 1560.85 Q1368.66 1564 1374.48 1564 Q1377.86 1564 1381.01 1563.17 Q1384.19 1562.35 1387.31 1560.69 L1387.31 1566.23 Q1384.16 1567.57 1380.85 1568.27 Q1377.54 1568.97 1374.13 1568.97 Q1365.6 1568.97 1360.61 1564 Q1355.64 1559.04 1355.64 1550.57 Q1355.64 1541.82 1360.35 1536.69 Q1365.1 1531.54 1373.12 1531.54 Q1380.31 1531.54 1384.48 1536.18 Q1388.68 1540.8 1388.68 1548.76 M1382.82 1547.04 Q1382.76 1542.23 1380.12 1539.37 Q1377.51 1536.5 1373.18 1536.5 Q1368.28 1536.5 1365.32 1539.27 Q1362.39 1542.04 1361.94 1547.07 L1382.82 1547.04 Z" fill="#000000" fill-rule="nonzero" fill-opacity="1" /><path clip-path="url(#clip150)" d="M1418.95 1537.87 Q1417.96 1537.3 1416.78 1537.04 Q1415.64 1536.76 1414.24 1536.76 Q1409.27 1536.76 1406.6 1540 Q1403.96 1543.22 1403.96 1549.27 L1403.96 1568.04 L1398.07 1568.04 L1398.07 1532.4 L1403.96 1532.4 L1403.96 1537.93 Q1405.8 1534.69 1408.76 1533.13 Q1411.72 1531.54 1415.96 1531.54 Q1416.56 1531.54 1417.29 1531.63 Q1418.03 1531.7 1418.92 1531.85 L1418.95 1537.87 Z" fill="#000000" fill-rule="nonzero" fill-opacity="1" /><path clip-path="url(#clip150)" d="M1447.82 1533.45 L1447.82 1538.98 Q1445.34 1537.71 1442.66 1537.07 Q1439.99 1536.44 1437.12 1536.44 Q1432.76 1536.44 1430.57 1537.77 Q1428.4 1539.11 1428.4 1541.79 Q1428.4 1543.82 1429.96 1545 Q1431.52 1546.15 1436.23 1547.2 L1438.24 1547.64 Q1444.48 1548.98 1447.09 1551.43 Q1449.73 1553.85 1449.73 1558.21 Q1449.73 1563.17 1445.78 1566.07 Q1441.87 1568.97 1434.99 1568.97 Q1432.13 1568.97 1429.01 1568.39 Q1425.92 1567.85 1422.48 1566.74 L1422.48 1560.69 Q1425.73 1562.38 1428.88 1563.24 Q1432.03 1564.07 1435.12 1564.07 Q1439.26 1564.07 1441.48 1562.66 Q1443.71 1561.23 1443.71 1558.65 Q1443.71 1556.27 1442.09 1554.99 Q1440.5 1553.72 1435.05 1552.54 L1433.02 1552.07 Q1427.57 1550.92 1425.16 1548.56 Q1422.74 1546.18 1422.74 1542.04 Q1422.74 1537.01 1426.3 1534.27 Q1429.87 1531.54 1436.42 1531.54 Q1439.67 1531.54 1442.53 1532.01 Q1445.4 1532.49 1447.82 1533.45 Z" fill="#000000" fill-rule="nonzero" fill-opacity="1" /><polyline clip-path="url(#clip150)" style="stroke:#000000; stroke-linecap:round; stroke-linejoin:round; stroke-width:4; stroke-opacity:1; fill:none" points="277.621,1423.18 277.621,47.2441 "/>
<polyline clip-path="url(#clip150)" style="stroke:#000000; stroke-linecap:round; stroke-linejoin:round; stroke-width:4; stroke-opacity:1; fill:none" points="277.621,1319.16 296.518,1319.16 "/>
<polyline clip-path="url(#clip150)" style="stroke:#000000; stroke-linecap:round; stroke-linejoin:round; stroke-width:4; stroke-opacity:1; fill:none" points="277.621,897.817 296.518,897.817 "/>
<polyline clip-path="url(#clip150)" style="stroke:#000000; stroke-linecap:round; stroke-linejoin:round; stroke-width:4; stroke-opacity:1; fill:none" points="277.621,476.473 296.518,476.473 "/>
<polyline clip-path="url(#clip150)" style="stroke:#000000; stroke-linecap:round; stroke-linejoin:round; stroke-width:4; stroke-opacity:1; fill:none" points="277.621,55.1296 296.518,55.1296 "/>
<path clip-path="url(#clip150)" d="M114.931 1332.51 L122.57 1332.51 L122.57 1306.14 L114.26 1307.81 L114.26 1303.55 L122.524 1301.88 L127.2 1301.88 L127.2 1332.51 L134.839 1332.51 L134.839 1336.44 L114.931 1336.44 L114.931 1332.51 Z" fill="#000000" fill-rule="nonzero" fill-opacity="1" /><path clip-path="url(#clip150)" d="M144.283 1330.56 L149.167 1330.56 L149.167 1336.44 L144.283 1336.44 L144.283 1330.56 Z" fill="#000000" fill-rule="nonzero" fill-opacity="1" /><path clip-path="url(#clip150)" d="M169.352 1304.96 Q165.741 1304.96 163.913 1308.52 Q162.107 1312.07 162.107 1319.2 Q162.107 1326.3 163.913 1329.87 Q165.741 1333.41 169.352 1333.41 Q172.987 1333.41 174.792 1329.87 Q176.621 1326.3 176.621 1319.2 Q176.621 1312.07 174.792 1308.52 Q172.987 1304.96 169.352 1304.96 M169.352 1301.26 Q175.163 1301.26 178.218 1305.86 Q181.297 1310.45 181.297 1319.2 Q181.297 1327.92 178.218 1332.53 Q175.163 1337.11 169.352 1337.11 Q163.542 1337.11 160.464 1332.53 Q157.408 1327.92 157.408 1319.2 Q157.408 1310.45 160.464 1305.86 Q163.542 1301.26 169.352 1301.26 Z" fill="#000000" fill-rule="nonzero" fill-opacity="1" /><path clip-path="url(#clip150)" d="M199.514 1304.96 Q195.903 1304.96 194.075 1308.52 Q192.269 1312.07 192.269 1319.2 Q192.269 1326.3 194.075 1329.87 Q195.903 1333.41 199.514 1333.41 Q203.149 1333.41 204.954 1329.87 Q206.783 1326.3 206.783 1319.2 Q206.783 1312.07 204.954 1308.52 Q203.149 1304.96 199.514 1304.96 M199.514 1301.26 Q205.324 1301.26 208.38 1305.86 Q211.459 1310.45 211.459 1319.2 Q211.459 1327.92 208.38 1332.53 Q205.324 1337.11 199.514 1337.11 Q193.704 1337.11 190.625 1332.53 Q187.57 1327.92 187.57 1319.2 Q187.57 1310.45 190.625 1305.86 Q193.704 1301.26 199.514 1301.26 Z" fill="#000000" fill-rule="nonzero" fill-opacity="1" /><path clip-path="url(#clip150)" d="M229.676 1304.96 Q226.065 1304.96 224.236 1308.52 Q222.431 1312.07 222.431 1319.2 Q222.431 1326.3 224.236 1329.87 Q226.065 1333.41 229.676 1333.41 Q233.31 1333.41 235.116 1329.87 Q236.945 1326.3 236.945 1319.2 Q236.945 1312.07 235.116 1308.52 Q233.31 1304.96 229.676 1304.96 M229.676 1301.26 Q235.486 1301.26 238.542 1305.86 Q241.621 1310.45 241.621 1319.2 Q241.621 1327.92 238.542 1332.53 Q235.486 1337.11 229.676 1337.11 Q223.866 1337.11 220.787 1332.53 Q217.732 1327.92 217.732 1319.2 Q217.732 1310.45 220.787 1305.86 Q223.866 1301.26 229.676 1301.26 Z" fill="#000000" fill-rule="nonzero" fill-opacity="1" /><path clip-path="url(#clip150)" d="M115.927 911.162 L123.566 911.162 L123.566 884.797 L115.256 886.463 L115.256 882.204 L123.519 880.537 L128.195 880.537 L128.195 911.162 L135.834 911.162 L135.834 915.097 L115.927 915.097 L115.927 911.162 Z" fill="#000000" fill-rule="nonzero" fill-opacity="1" /><path clip-path="url(#clip150)" d="M145.279 909.218 L150.163 909.218 L150.163 915.097 L145.279 915.097 L145.279 909.218 Z" fill="#000000" fill-rule="nonzero" fill-opacity="1" /><path clip-path="url(#clip150)" d="M170.348 883.616 Q166.737 883.616 164.908 887.181 Q163.102 890.722 163.102 897.852 Q163.102 904.958 164.908 908.523 Q166.737 912.065 170.348 912.065 Q173.982 912.065 175.788 908.523 Q177.616 904.958 177.616 897.852 Q177.616 890.722 175.788 887.181 Q173.982 883.616 170.348 883.616 M170.348 879.912 Q176.158 879.912 179.214 884.519 Q182.292 889.102 182.292 897.852 Q182.292 906.579 179.214 911.185 Q176.158 915.769 170.348 915.769 Q164.538 915.769 161.459 911.185 Q158.403 906.579 158.403 897.852 Q158.403 889.102 161.459 884.519 Q164.538 879.912 170.348 879.912 Z" fill="#000000" fill-rule="nonzero" fill-opacity="1" /><path clip-path="url(#clip150)" d="M200.51 883.616 Q196.899 883.616 195.07 887.181 Q193.264 890.722 193.264 897.852 Q193.264 904.958 195.07 908.523 Q196.899 912.065 200.51 912.065 Q204.144 912.065 205.949 908.523 Q207.778 904.958 207.778 897.852 Q207.778 890.722 205.949 887.181 Q204.144 883.616 200.51 883.616 M200.51 879.912 Q206.32 879.912 209.375 884.519 Q212.454 889.102 212.454 897.852 Q212.454 906.579 209.375 911.185 Q206.32 915.769 200.51 915.769 Q194.7 915.769 191.621 911.185 Q188.565 906.579 188.565 897.852 Q188.565 889.102 191.621 884.519 Q194.7 879.912 200.51 879.912 Z" fill="#000000" fill-rule="nonzero" fill-opacity="1" /><path clip-path="url(#clip150)" d="M220.718 880.537 L239.074 880.537 L239.074 884.472 L225 884.472 L225 892.945 Q226.019 892.597 227.037 892.435 Q228.056 892.25 229.074 892.25 Q234.861 892.25 238.241 895.421 Q241.621 898.593 241.621 904.009 Q241.621 909.588 238.148 912.69 Q234.676 915.769 228.357 915.769 Q226.181 915.769 223.912 915.398 Q221.667 915.028 219.26 914.287 L219.26 909.588 Q221.343 910.722 223.565 911.278 Q225.787 911.833 228.264 911.833 Q232.269 911.833 234.607 909.727 Q236.945 907.62 236.945 904.009 Q236.945 900.398 234.607 898.292 Q232.269 896.185 228.264 896.185 Q226.389 896.185 224.514 896.602 Q222.662 897.019 220.718 897.898 L220.718 880.537 Z" fill="#000000" fill-rule="nonzero" fill-opacity="1" /><path clip-path="url(#clip150)" d="M114.931 489.818 L122.57 489.818 L122.57 463.453 L114.26 465.119 L114.26 460.86 L122.524 459.193 L127.2 459.193 L127.2 489.818 L134.839 489.818 L134.839 493.753 L114.931 493.753 L114.931 489.818 Z" fill="#000000" fill-rule="nonzero" fill-opacity="1" /><path clip-path="url(#clip150)" d="M144.283 487.874 L149.167 487.874 L149.167 493.753 L144.283 493.753 L144.283 487.874 Z" fill="#000000" fill-rule="nonzero" fill-opacity="1" /><path clip-path="url(#clip150)" d="M169.352 462.272 Q165.741 462.272 163.913 465.837 Q162.107 469.379 162.107 476.508 Q162.107 483.615 163.913 487.179 Q165.741 490.721 169.352 490.721 Q172.987 490.721 174.792 487.179 Q176.621 483.615 176.621 476.508 Q176.621 469.379 174.792 465.837 Q172.987 462.272 169.352 462.272 M169.352 458.568 Q175.163 458.568 178.218 463.175 Q181.297 467.758 181.297 476.508 Q181.297 485.235 178.218 489.841 Q175.163 494.425 169.352 494.425 Q163.542 494.425 160.464 489.841 Q157.408 485.235 157.408 476.508 Q157.408 467.758 160.464 463.175 Q163.542 458.568 169.352 458.568 Z" fill="#000000" fill-rule="nonzero" fill-opacity="1" /><path clip-path="url(#clip150)" d="M190.325 489.818 L197.963 489.818 L197.963 463.453 L189.653 465.119 L189.653 460.86 L197.917 459.193 L202.593 459.193 L202.593 489.818 L210.232 489.818 L210.232 493.753 L190.325 493.753 L190.325 489.818 Z" fill="#000000" fill-rule="nonzero" fill-opacity="1" /><path clip-path="url(#clip150)" d="M229.676 462.272 Q226.065 462.272 224.236 465.837 Q222.431 469.379 222.431 476.508 Q222.431 483.615 224.236 487.179 Q226.065 490.721 229.676 490.721 Q233.31 490.721 235.116 487.179 Q236.945 483.615 236.945 476.508 Q236.945 469.379 235.116 465.837 Q233.31 462.272 229.676 462.272 M229.676 458.568 Q235.486 458.568 238.542 463.175 Q241.621 467.758 241.621 476.508 Q241.621 485.235 238.542 489.841 Q235.486 494.425 229.676 494.425 Q223.866 494.425 220.787 489.841 Q217.732 485.235 217.732 476.508 Q217.732 467.758 220.787 463.175 Q223.866 458.568 229.676 458.568 Z" fill="#000000" fill-rule="nonzero" fill-opacity="1" /><path clip-path="url(#clip150)" d="M115.927 68.4744 L123.566 68.4744 L123.566 42.1088 L115.256 43.7755 L115.256 39.5162 L123.519 37.8496 L128.195 37.8496 L128.195 68.4744 L135.834 68.4744 L135.834 72.4096 L115.927 72.4096 L115.927 68.4744 Z" fill="#000000" fill-rule="nonzero" fill-opacity="1" /><path clip-path="url(#clip150)" d="M145.279 66.53 L150.163 66.53 L150.163 72.4096 L145.279 72.4096 L145.279 66.53 Z" fill="#000000" fill-rule="nonzero" fill-opacity="1" /><path clip-path="url(#clip150)" d="M170.348 40.9283 Q166.737 40.9283 164.908 44.493 Q163.102 48.0347 163.102 55.1643 Q163.102 62.2707 164.908 65.8355 Q166.737 69.3772 170.348 69.3772 Q173.982 69.3772 175.788 65.8355 Q177.616 62.2707 177.616 55.1643 Q177.616 48.0347 175.788 44.493 Q173.982 40.9283 170.348 40.9283 M170.348 37.2246 Q176.158 37.2246 179.214 41.831 Q182.292 46.4143 182.292 55.1643 Q182.292 63.8911 179.214 68.4975 Q176.158 73.0809 170.348 73.0809 Q164.538 73.0809 161.459 68.4975 Q158.403 63.8911 158.403 55.1643 Q158.403 46.4143 161.459 41.831 Q164.538 37.2246 170.348 37.2246 Z" fill="#000000" fill-rule="nonzero" fill-opacity="1" /><path clip-path="url(#clip150)" d="M191.32 68.4744 L198.959 68.4744 L198.959 42.1088 L190.649 43.7755 L190.649 39.5162 L198.912 37.8496 L203.588 37.8496 L203.588 68.4744 L211.227 68.4744 L211.227 72.4096 L191.32 72.4096 L191.32 68.4744 Z" fill="#000000" fill-rule="nonzero" fill-opacity="1" /><path clip-path="url(#clip150)" d="M220.718 37.8496 L239.074 37.8496 L239.074 41.7847 L225 41.7847 L225 50.2569 Q226.019 49.9097 227.037 49.7476 Q228.056 49.5625 229.074 49.5625 Q234.861 49.5625 238.241 52.7337 Q241.621 55.905 241.621 61.3217 Q241.621 66.9003 238.148 70.0022 Q234.676 73.0809 228.357 73.0809 Q226.181 73.0809 223.912 72.7105 Q221.667 72.3401 219.26 71.5994 L219.26 66.9003 Q221.343 68.0346 223.565 68.5901 Q225.787 69.1457 228.264 69.1457 Q232.269 69.1457 234.607 67.0392 Q236.945 64.9328 236.945 61.3217 Q236.945 57.7106 234.607 55.6041 Q232.269 53.4976 228.264 53.4976 Q226.389 53.4976 224.514 53.9143 Q222.662 54.331 220.718 55.2106 L220.718 37.8496 Z" fill="#000000" fill-rule="nonzero" fill-opacity="1" /><path clip-path="url(#clip150)" d="M57.2247 896.821 L44.4614 896.821 L44.4614 907.325 L39.1779 907.325 L39.1779 890.456 L59.58 890.456 Q62.2218 894.18 63.5904 898.667 Q64.9272 903.155 64.9272 908.248 Q64.9272 919.388 58.4342 925.69 Q51.9093 931.96 40.2919 931.96 Q28.6427 931.96 22.1496 925.69 Q15.6248 919.388 15.6248 908.248 Q15.6248 903.601 16.7706 899.431 Q17.9164 895.23 20.1444 891.697 L26.9876 891.697 Q23.9639 895.262 22.4361 899.272 Q20.9083 903.283 20.9083 907.707 Q20.9083 916.428 25.7781 920.82 Q30.6479 925.181 40.2919 925.181 Q49.9041 925.181 54.7739 920.82 Q59.6436 916.428 59.6436 907.707 Q59.6436 904.301 59.0707 901.627 Q58.466 898.954 57.2247 896.821 Z" fill="#000000" fill-rule="nonzero" fill-opacity="1" /><path clip-path="url(#clip150)" d="M21.7677 872.282 L58.7206 872.282 L58.7206 864.515 Q58.7206 854.68 54.2646 850.129 Q49.8086 845.546 40.1964 845.546 Q30.6479 845.546 26.2237 850.129 Q21.7677 854.68 21.7677 864.515 L21.7677 872.282 M16.4842 878.711 L16.4842 865.502 Q16.4842 851.688 22.2451 845.227 Q27.9743 838.766 40.1964 838.766 Q52.4822 838.766 58.2432 845.259 Q64.0042 851.752 64.0042 865.502 L64.0042 878.711 L16.4842 878.711 Z" fill="#000000" fill-rule="nonzero" fill-opacity="1" /><path clip-path="url(#clip150)" d="M21.7677 822.088 L39.6235 822.088 L39.6235 814.004 Q39.6235 809.516 37.3 807.065 Q34.9765 804.614 30.6797 804.614 Q26.4147 804.614 24.0912 807.065 Q21.7677 809.516 21.7677 814.004 L21.7677 822.088 M16.4842 828.517 L16.4842 814.004 Q16.4842 806.015 20.1126 801.94 Q23.7092 797.835 30.6797 797.835 Q37.7138 797.835 41.3104 801.94 Q44.907 806.015 44.907 814.004 L44.907 822.088 L64.0042 822.088 L64.0042 828.517 L16.4842 828.517 Z" fill="#000000" fill-rule="nonzero" fill-opacity="1" /><path clip-path="url(#clip150)" d="M29.7248 743.09 L35.1993 743.09 Q33.8307 745.572 33.1623 748.087 Q32.4621 750.569 32.4621 753.116 Q32.4621 758.813 36.0905 761.964 Q39.6872 765.115 46.212 765.115 Q52.7369 765.115 56.3653 761.964 Q59.9619 758.813 59.9619 753.116 Q59.9619 750.569 59.2935 748.087 Q58.5933 745.572 57.2247 743.09 L62.6355 743.09 Q63.7814 745.54 64.3543 748.182 Q64.9272 750.792 64.9272 753.752 Q64.9272 761.805 59.8664 766.547 Q54.8057 771.29 46.212 771.29 Q37.491 771.29 32.4939 766.515 Q27.4968 761.709 27.4968 753.37 Q27.4968 750.665 28.0697 748.087 Q28.6108 745.508 29.7248 743.09 Z" fill="#000000" fill-rule="nonzero" fill-opacity="1" /><path clip-path="url(#clip150)" d="M42.4881 703.272 L64.0042 703.272 L64.0042 709.128 L42.679 709.128 Q37.6183 709.128 35.1038 711.102 Q32.5894 713.075 32.5894 717.022 Q32.5894 721.764 35.6131 724.502 Q38.6368 727.239 43.8567 727.239 L64.0042 727.239 L64.0042 733.127 L14.479 733.127 L14.479 727.239 L33.8944 727.239 Q30.6797 725.138 29.0883 722.305 Q27.4968 719.441 27.4968 715.717 Q27.4968 709.574 31.3163 706.423 Q35.1038 703.272 42.4881 703.272 Z" fill="#000000" fill-rule="nonzero" fill-opacity="1" /><path clip-path="url(#clip150)" d="M46.0847 675.39 Q46.0847 682.488 47.7079 685.225 Q49.3312 687.963 53.2461 687.963 Q56.3653 687.963 58.2114 685.925 Q60.0256 683.857 60.0256 680.324 Q60.0256 675.454 56.5881 672.526 Q53.1188 669.566 47.3897 669.566 L46.0847 669.566 L46.0847 675.39 M43.6657 663.709 L64.0042 663.709 L64.0042 669.566 L58.5933 669.566 Q61.8398 671.571 63.3994 674.563 Q64.9272 677.555 64.9272 681.883 Q64.9272 687.358 61.8716 690.604 Q58.7843 693.819 53.6281 693.819 Q47.6125 693.819 44.5569 689.809 Q41.5014 685.766 41.5014 677.777 L41.5014 669.566 L40.9285 669.566 Q36.8862 669.566 34.6901 672.239 Q32.4621 674.881 32.4621 679.687 Q32.4621 682.743 33.1941 685.639 Q33.9262 688.535 35.3903 691.209 L29.9795 691.209 Q28.7381 687.994 28.1334 684.971 Q27.4968 681.947 27.4968 679.082 Q27.4968 671.348 31.5072 667.529 Q35.5176 663.709 43.6657 663.709 Z" fill="#000000" fill-rule="nonzero" fill-opacity="1" /><path clip-path="url(#clip150)" d="M42.4881 622.014 L64.0042 622.014 L64.0042 627.87 L42.679 627.87 Q37.6183 627.87 35.1038 629.844 Q32.5894 631.817 32.5894 635.764 Q32.5894 640.506 35.6131 643.243 Q38.6368 645.981 43.8567 645.981 L64.0042 645.981 L64.0042 651.869 L28.3562 651.869 L28.3562 645.981 L33.8944 645.981 Q30.6797 643.88 29.0883 641.047 Q27.4968 638.183 27.4968 634.459 Q27.4968 628.316 31.3163 625.165 Q35.1038 622.014 42.4881 622.014 Z" fill="#000000" fill-rule="nonzero" fill-opacity="1" /><path clip-path="url(#clip150)" d="M45.7664 586.875 Q39.4007 586.875 35.8996 589.517 Q32.3984 592.127 32.3984 596.869 Q32.3984 601.58 35.8996 604.222 Q39.4007 606.832 45.7664 606.832 Q52.1003 606.832 55.6014 604.222 Q59.1026 601.58 59.1026 596.869 Q59.1026 592.127 55.6014 589.517 Q52.1003 586.875 45.7664 586.875 M59.58 581.019 Q68.683 581.019 73.1071 585.061 Q77.5631 589.103 77.5631 597.442 Q77.5631 600.53 77.0857 603.267 Q76.6401 606.004 75.6852 608.582 L69.9879 608.582 Q71.3884 606.004 72.0568 603.49 Q72.7252 600.975 72.7252 598.365 Q72.7252 592.604 69.7015 589.74 Q66.7096 586.875 60.6303 586.875 L57.7339 586.875 Q60.885 588.689 62.4446 591.522 Q64.0042 594.355 64.0042 598.302 Q64.0042 604.858 59.0071 608.869 Q54.01 612.879 45.7664 612.879 Q37.491 612.879 32.4939 608.869 Q27.4968 604.858 27.4968 598.302 Q27.4968 594.355 29.0564 591.522 Q30.616 588.689 33.7671 586.875 L28.3562 586.875 L28.3562 581.019 L59.58 581.019 Z" fill="#000000" fill-rule="nonzero" fill-opacity="1" /><path clip-path="url(#clip150)" d="M44.7161 538.464 L47.5806 538.464 L47.5806 565.391 Q53.6281 565.009 56.8109 561.762 Q59.9619 558.484 59.9619 552.659 Q59.9619 549.286 59.1344 546.135 Q58.3069 542.952 56.6518 539.833 L62.1899 539.833 Q63.5267 542.984 64.227 546.294 Q64.9272 549.604 64.9272 553.01 Q64.9272 561.54 59.9619 566.537 Q54.9967 571.502 46.5303 571.502 Q37.7774 571.502 32.6531 566.791 Q27.4968 562.049 27.4968 554.028 Q27.4968 546.835 32.1438 542.665 Q36.7589 538.464 44.7161 538.464 M42.9973 544.32 Q38.1912 544.384 35.3266 547.026 Q32.4621 549.636 32.4621 553.964 Q32.4621 558.866 35.2312 561.826 Q38.0002 564.754 43.0292 565.2 L42.9973 544.32 Z" fill="#000000" fill-rule="nonzero" fill-opacity="1" /><path clip-path="url(#clip152)" d="M336.351 1319.16 L458.706 1294.86 L581.06 922.79 L703.415 541.243 L825.77 391.221 L948.124 757.915 L1070.48 898.908 L1192.83 899.779 L1315.19 931.684 L1437.54 1019.8 L1559.9 1038.61 L1682.25 1172.19 L1804.61 1321.19 L1926.96 1384.24 L2049.32 1350.89 L2171.67 1347.75 L2294.03 1373.49 L2294.03 653.212 L2171.67 655.836 L2049.32 669.631 L1926.96 728.702 L1804.61 679.841 L1682.25 561.222 L1559.9 455.631 L1437.54 455.02 L1315.19 419.266 L1192.83 416.092 L1070.48 479.078 L948.124 395.178 L825.77 86.1857 L703.415 269.632 L581.06 698.609 L458.706 1094.9 L336.351 1319.16  Z" fill="#009af9" fill-rule="evenodd" fill-opacity="0.2"/>
<polyline clip-path="url(#clip152)" style="stroke:#009af9; stroke-linecap:round; stroke-linejoin:round; stroke-width:4; stroke-opacity:1; fill:none" points="336.351,1319.16 458.706,1194.88 581.06,810.699 703.415,405.437 825.77,238.703 948.124,576.546 1070.48,688.993 1192.83,657.936 1315.19,675.475 1437.54,737.411 1559.9,747.12 1682.25,866.705 1804.61,1000.51 1926.96,1056.47 2049.32,1010.26 2171.67,1001.79 2294.03,1013.35 "/>
</svg>
