<?xml version="1.0" encoding="utf-8"?>
<svg xmlns="http://www.w3.org/2000/svg" xmlns:xlink="http://www.w3.org/1999/xlink" width="600" height="400" viewBox="0 0 2400 1600">
<defs>
  <clipPath id="clip790">
    <rect x="0" y="0" width="2400" height="1600"/>
  </clipPath>
</defs>
<path clip-path="url(#clip790)" d="M0 1600 L2400 1600 L2400 0 L0 0  Z" fill="#ffffff" fill-rule="evenodd" fill-opacity="1"/>
<defs>
  <clipPath id="clip791">
    <rect x="480" y="0" width="1681" height="1600"/>
  </clipPath>
</defs>
<path clip-path="url(#clip790)" d="M307.782 1423.18 L2352.76 1423.18 L2352.76 47.2441 L307.782 47.2441  Z" fill="#ffffff" fill-rule="evenodd" fill-opacity="1"/>
<defs>
  <clipPath id="clip792">
    <rect x="307" y="47" width="2046" height="1377"/>
  </clipPath>
</defs>
<polyline clip-path="url(#clip792)" style="stroke:#000000; stroke-linecap:round; stroke-linejoin:round; stroke-width:2; stroke-opacity:0.1; fill:none" points="606.812,1423.18 606.812,47.2441 "/>
<polyline clip-path="url(#clip792)" style="stroke:#000000; stroke-linecap:round; stroke-linejoin:round; stroke-width:2; stroke-opacity:0.1; fill:none" points="968.54,1423.18 968.54,47.2441 "/>
<polyline clip-path="url(#clip792)" style="stroke:#000000; stroke-linecap:round; stroke-linejoin:round; stroke-width:2; stroke-opacity:0.1; fill:none" points="1330.27,1423.18 1330.27,47.2441 "/>
<polyline clip-path="url(#clip792)" style="stroke:#000000; stroke-linecap:round; stroke-linejoin:round; stroke-width:2; stroke-opacity:0.1; fill:none" points="1692,1423.18 1692,47.2441 "/>
<polyline clip-path="url(#clip792)" style="stroke:#000000; stroke-linecap:round; stroke-linejoin:round; stroke-width:2; stroke-opacity:0.1; fill:none" points="2053.73,1423.18 2053.73,47.2441 "/>
<polyline clip-path="url(#clip792)" style="stroke:#000000; stroke-linecap:round; stroke-linejoin:round; stroke-width:2; stroke-opacity:0.1; fill:none" points="307.782,1202.82 2352.76,1202.82 "/>
<polyline clip-path="url(#clip792)" style="stroke:#000000; stroke-linecap:round; stroke-linejoin:round; stroke-width:2; stroke-opacity:0.1; fill:none" points="307.782,930.867 2352.76,930.867 "/>
<polyline clip-path="url(#clip792)" style="stroke:#000000; stroke-linecap:round; stroke-linejoin:round; stroke-width:2; stroke-opacity:0.1; fill:none" points="307.782,658.916 2352.76,658.916 "/>
<polyline clip-path="url(#clip792)" style="stroke:#000000; stroke-linecap:round; stroke-linejoin:round; stroke-width:2; stroke-opacity:0.1; fill:none" points="307.782,386.965 2352.76,386.965 "/>
<polyline clip-path="url(#clip792)" style="stroke:#000000; stroke-linecap:round; stroke-linejoin:round; stroke-width:2; stroke-opacity:0.1; fill:none" points="307.782,115.014 2352.76,115.014 "/>
<polyline clip-path="url(#clip790)" style="stroke:#000000; stroke-linecap:round; stroke-linejoin:round; stroke-width:4; stroke-opacity:1; fill:none" points="307.782,1423.18 2352.76,1423.18 "/>
<polyline clip-path="url(#clip790)" style="stroke:#000000; stroke-linecap:round; stroke-linejoin:round; stroke-width:4; stroke-opacity:1; fill:none" points="606.812,1423.18 606.812,1404.28 "/>
<polyline clip-path="url(#clip790)" style="stroke:#000000; stroke-linecap:round; stroke-linejoin:round; stroke-width:4; stroke-opacity:1; fill:none" points="968.54,1423.18 968.54,1404.28 "/>
<polyline clip-path="url(#clip790)" style="stroke:#000000; stroke-linecap:round; stroke-linejoin:round; stroke-width:4; stroke-opacity:1; fill:none" points="1330.27,1423.18 1330.27,1404.28 "/>
<polyline clip-path="url(#clip790)" style="stroke:#000000; stroke-linecap:round; stroke-linejoin:round; stroke-width:4; stroke-opacity:1; fill:none" points="1692,1423.18 1692,1404.28 "/>
<polyline clip-path="url(#clip790)" style="stroke:#000000; stroke-linecap:round; stroke-linejoin:round; stroke-width:4; stroke-opacity:1; fill:none" points="2053.73,1423.18 2053.73,1404.28 "/>
<path clip-path="url(#clip790)" d="M611.059 1466.95 Q614.416 1467.66 616.291 1469.93 Q618.189 1472.2 618.189 1475.53 Q618.189 1480.65 614.67 1483.45 Q611.152 1486.25 604.67 1486.25 Q602.494 1486.25 600.18 1485.81 Q597.888 1485.39 595.434 1484.54 L595.434 1480.02 Q597.379 1481.16 599.694 1481.74 Q602.008 1482.32 604.532 1482.32 Q608.93 1482.32 611.221 1480.58 Q613.536 1478.84 613.536 1475.53 Q613.536 1472.48 611.383 1470.77 Q609.254 1469.03 605.434 1469.03 L601.407 1469.03 L601.407 1465.19 L605.619 1465.19 Q609.069 1465.19 610.897 1463.82 Q612.726 1462.43 612.726 1459.84 Q612.726 1457.18 610.828 1455.77 Q608.953 1454.33 605.434 1454.33 Q603.513 1454.33 601.314 1454.75 Q599.115 1455.16 596.476 1456.04 L596.476 1451.88 Q599.138 1451.14 601.453 1450.77 Q603.791 1450.39 605.851 1450.39 Q611.175 1450.39 614.277 1452.83 Q617.379 1455.23 617.379 1459.35 Q617.379 1462.22 615.735 1464.21 Q614.092 1466.18 611.059 1466.95 Z" fill="#000000" fill-rule="nonzero" fill-opacity="1" /><path clip-path="url(#clip790)" d="M968.945 1466.44 Q965.797 1466.44 963.946 1468.59 Q962.117 1470.74 962.117 1474.49 Q962.117 1478.22 963.946 1480.39 Q965.797 1482.55 968.945 1482.55 Q972.094 1482.55 973.922 1480.39 Q975.774 1478.22 975.774 1474.49 Q975.774 1470.74 973.922 1468.59 Q972.094 1466.44 968.945 1466.44 M978.228 1451.78 L978.228 1456.04 Q976.469 1455.21 974.663 1454.77 Q972.881 1454.33 971.121 1454.33 Q966.492 1454.33 964.038 1457.45 Q961.608 1460.58 961.26 1466.9 Q962.626 1464.89 964.686 1463.82 Q966.746 1462.73 969.223 1462.73 Q974.432 1462.73 977.441 1465.9 Q980.473 1469.05 980.473 1474.49 Q980.473 1479.82 977.325 1483.03 Q974.177 1486.25 968.945 1486.25 Q962.95 1486.25 959.779 1481.67 Q956.608 1477.06 956.608 1468.33 Q956.608 1460.14 960.496 1455.28 Q964.385 1450.39 970.936 1450.39 Q972.695 1450.39 974.478 1450.74 Q976.283 1451.09 978.228 1451.78 Z" fill="#000000" fill-rule="nonzero" fill-opacity="1" /><path clip-path="url(#clip790)" d="M1320.57 1484.86 L1320.57 1480.6 Q1322.33 1481.44 1324.13 1481.88 Q1325.94 1482.32 1327.68 1482.32 Q1332.31 1482.32 1334.74 1479.21 Q1337.19 1476.09 1337.54 1469.75 Q1336.2 1471.74 1334.13 1472.8 Q1332.07 1473.87 1329.57 1473.87 Q1324.39 1473.87 1321.36 1470.74 Q1318.35 1467.59 1318.35 1462.15 Q1318.35 1456.83 1321.5 1453.61 Q1324.64 1450.39 1329.88 1450.39 Q1335.87 1450.39 1339.02 1455 Q1342.19 1459.58 1342.19 1468.33 Q1342.19 1476.51 1338.3 1481.39 Q1334.44 1486.25 1327.88 1486.25 Q1326.13 1486.25 1324.32 1485.9 Q1322.51 1485.56 1320.57 1484.86 M1329.88 1470.21 Q1333.02 1470.21 1334.85 1468.06 Q1336.7 1465.9 1336.7 1462.15 Q1336.7 1458.43 1334.85 1456.27 Q1333.02 1454.1 1329.88 1454.1 Q1326.73 1454.1 1324.88 1456.27 Q1323.05 1458.43 1323.05 1462.15 Q1323.05 1465.9 1324.88 1468.06 Q1326.73 1470.21 1329.88 1470.21 Z" fill="#000000" fill-rule="nonzero" fill-opacity="1" /><path clip-path="url(#clip790)" d="M1667.48 1481.64 L1675.12 1481.64 L1675.12 1455.28 L1666.81 1456.95 L1666.81 1452.69 L1675.08 1451.02 L1679.75 1451.02 L1679.75 1481.64 L1687.39 1481.64 L1687.39 1485.58 L1667.48 1485.58 L1667.48 1481.64 Z" fill="#000000" fill-rule="nonzero" fill-opacity="1" /><path clip-path="url(#clip790)" d="M1700.86 1481.64 L1717.18 1481.64 L1717.18 1485.58 L1695.24 1485.58 L1695.24 1481.64 Q1697.9 1478.89 1702.48 1474.26 Q1707.09 1469.61 1708.27 1468.27 Q1710.52 1465.74 1711.4 1464.01 Q1712.3 1462.25 1712.3 1460.56 Q1712.3 1457.8 1710.35 1456.07 Q1708.43 1454.33 1705.33 1454.33 Q1703.13 1454.33 1700.68 1455.09 Q1698.25 1455.86 1695.47 1457.41 L1695.47 1452.69 Q1698.29 1451.55 1700.75 1450.97 Q1703.2 1450.39 1705.24 1450.39 Q1710.61 1450.39 1713.8 1453.08 Q1717 1455.77 1717 1460.26 Q1717 1462.39 1716.19 1464.31 Q1715.4 1466.2 1713.29 1468.8 Q1712.72 1469.47 1709.61 1472.69 Q1706.51 1475.88 1700.86 1481.64 Z" fill="#000000" fill-rule="nonzero" fill-opacity="1" /><path clip-path="url(#clip790)" d="M2028.91 1481.64 L2036.55 1481.64 L2036.55 1455.28 L2028.24 1456.95 L2028.24 1452.69 L2036.5 1451.02 L2041.18 1451.02 L2041.18 1481.64 L2048.82 1481.64 L2048.82 1485.58 L2028.91 1485.58 L2028.91 1481.64 Z" fill="#000000" fill-rule="nonzero" fill-opacity="1" /><path clip-path="url(#clip790)" d="M2058.31 1451.02 L2076.67 1451.02 L2076.67 1454.96 L2062.59 1454.96 L2062.59 1463.43 Q2063.61 1463.08 2064.63 1462.92 Q2065.65 1462.73 2066.67 1462.73 Q2072.45 1462.73 2075.83 1465.9 Q2079.21 1469.08 2079.21 1474.49 Q2079.21 1480.07 2075.74 1483.17 Q2072.27 1486.25 2065.95 1486.25 Q2063.77 1486.25 2061.5 1485.88 Q2059.26 1485.51 2056.85 1484.77 L2056.85 1480.07 Q2058.94 1481.2 2061.16 1481.76 Q2063.38 1482.32 2065.86 1482.32 Q2069.86 1482.32 2072.2 1480.21 Q2074.54 1478.1 2074.54 1474.49 Q2074.54 1470.88 2072.2 1468.77 Q2069.86 1466.67 2065.86 1466.67 Q2063.98 1466.67 2062.11 1467.08 Q2060.25 1467.5 2058.31 1468.38 L2058.31 1451.02 Z" fill="#000000" fill-rule="nonzero" fill-opacity="1" /><path clip-path="url(#clip790)" d="M1201.78 1550.25 Q1201.78 1556.71 1204.42 1560.4 Q1207.09 1564.07 1211.74 1564.07 Q1216.39 1564.07 1219.06 1560.4 Q1221.73 1556.71 1221.73 1550.25 Q1221.73 1543.79 1219.06 1540.13 Q1216.39 1536.44 1211.74 1536.44 Q1207.09 1536.44 1204.42 1540.13 Q1201.78 1543.79 1201.78 1550.25 M1221.73 1562.7 Q1219.89 1565.88 1217.06 1567.44 Q1214.25 1568.97 1210.31 1568.97 Q1203.85 1568.97 1199.77 1563.81 Q1195.73 1558.65 1195.73 1550.25 Q1195.73 1541.85 1199.77 1536.69 Q1203.85 1531.54 1210.31 1531.54 Q1214.25 1531.54 1217.06 1533.1 Q1219.89 1534.62 1221.73 1537.81 L1221.73 1532.4 L1227.59 1532.4 L1227.59 1581.6 L1221.73 1581.6 L1221.73 1562.7 Z" fill="#000000" fill-rule="nonzero" fill-opacity="1" /><path clip-path="url(#clip790)" d="M1239.05 1553.98 L1239.05 1532.4 L1244.91 1532.4 L1244.91 1553.75 Q1244.91 1558.81 1246.88 1561.36 Q1248.85 1563.87 1252.8 1563.87 Q1257.54 1563.87 1260.28 1560.85 Q1263.05 1557.83 1263.05 1552.61 L1263.05 1532.4 L1268.9 1532.4 L1268.9 1568.04 L1263.05 1568.04 L1263.05 1562.57 Q1260.91 1565.82 1258.08 1567.41 Q1255.28 1568.97 1251.56 1568.97 Q1245.41 1568.97 1242.23 1565.15 Q1239.05 1561.33 1239.05 1553.98 M1253.79 1531.54 L1253.79 1531.54 Z" fill="#000000" fill-rule="nonzero" fill-opacity="1" /><path clip-path="url(#clip790)" d="M1297.17 1550.12 Q1290.07 1550.12 1287.33 1551.75 Q1284.6 1553.37 1284.6 1557.29 Q1284.6 1560.4 1286.63 1562.25 Q1288.7 1564.07 1292.23 1564.07 Q1297.1 1564.07 1300.03 1560.63 Q1302.99 1557.16 1302.99 1551.43 L1302.99 1550.12 L1297.17 1550.12 M1308.85 1547.71 L1308.85 1568.04 L1302.99 1568.04 L1302.99 1562.63 Q1300.99 1565.88 1298 1567.44 Q1295 1568.97 1290.67 1568.97 Q1285.2 1568.97 1281.95 1565.91 Q1278.74 1562.82 1278.74 1557.67 Q1278.74 1551.65 1282.75 1548.6 Q1286.79 1545.54 1294.78 1545.54 L1302.99 1545.54 L1302.99 1544.97 Q1302.99 1540.93 1300.32 1538.73 Q1297.68 1536.5 1292.87 1536.5 Q1289.82 1536.5 1286.92 1537.23 Q1284.02 1537.97 1281.35 1539.43 L1281.35 1534.02 Q1284.56 1532.78 1287.59 1532.17 Q1290.61 1531.54 1293.48 1531.54 Q1301.21 1531.54 1305.03 1535.55 Q1308.85 1539.56 1308.85 1547.71 Z" fill="#000000" fill-rule="nonzero" fill-opacity="1" /><path clip-path="url(#clip790)" d="M1341.57 1537.87 Q1340.58 1537.3 1339.4 1537.04 Q1338.26 1536.76 1336.86 1536.76 Q1331.89 1536.76 1329.22 1540 Q1326.58 1543.22 1326.58 1549.27 L1326.58 1568.04 L1320.69 1568.04 L1320.69 1532.4 L1326.58 1532.4 L1326.58 1537.93 Q1328.42 1534.69 1331.38 1533.13 Q1334.34 1531.54 1338.58 1531.54 Q1339.18 1531.54 1339.91 1531.63 Q1340.65 1531.7 1341.54 1531.85 L1341.57 1537.87 Z" fill="#000000" fill-rule="nonzero" fill-opacity="1" /><path clip-path="url(#clip790)" d="M1353.5 1522.27 L1353.5 1532.4 L1365.57 1532.4 L1365.57 1536.95 L1353.5 1536.95 L1353.5 1556.3 Q1353.5 1560.66 1354.68 1561.9 Q1355.89 1563.14 1359.55 1563.14 L1365.57 1563.14 L1365.57 1568.04 L1359.55 1568.04 Q1352.77 1568.04 1350.19 1565.53 Q1347.62 1562.98 1347.62 1556.3 L1347.62 1536.95 L1343.32 1536.95 L1343.32 1532.4 L1347.62 1532.4 L1347.62 1522.27 L1353.5 1522.27 Z" fill="#000000" fill-rule="nonzero" fill-opacity="1" /><path clip-path="url(#clip790)" d="M1403.76 1548.76 L1403.76 1551.62 L1376.83 1551.62 Q1377.22 1557.67 1380.46 1560.85 Q1383.74 1564 1389.57 1564 Q1392.94 1564 1396.09 1563.17 Q1399.27 1562.35 1402.39 1560.69 L1402.39 1566.23 Q1399.24 1567.57 1395.93 1568.27 Q1392.62 1568.97 1389.22 1568.97 Q1380.69 1568.97 1375.69 1564 Q1370.72 1559.04 1370.72 1550.57 Q1370.72 1541.82 1375.43 1536.69 Q1380.18 1531.54 1388.2 1531.54 Q1395.39 1531.54 1399.56 1536.18 Q1403.76 1540.8 1403.76 1548.76 M1397.9 1547.04 Q1397.84 1542.23 1395.2 1539.37 Q1392.59 1536.5 1388.26 1536.5 Q1383.36 1536.5 1380.4 1539.27 Q1377.47 1542.04 1377.03 1547.07 L1397.9 1547.04 Z" fill="#000000" fill-rule="nonzero" fill-opacity="1" /><path clip-path="url(#clip790)" d="M1434.03 1537.87 Q1433.04 1537.3 1431.87 1537.04 Q1430.72 1536.76 1429.32 1536.76 Q1424.35 1536.76 1421.68 1540 Q1419.04 1543.22 1419.04 1549.27 L1419.04 1568.04 L1413.15 1568.04 L1413.15 1532.4 L1419.04 1532.4 L1419.04 1537.93 Q1420.89 1534.69 1423.85 1533.13 Q1426.81 1531.54 1431.04 1531.54 Q1431.64 1531.54 1432.38 1531.63 Q1433.11 1531.7 1434 1531.85 L1434.03 1537.87 Z" fill="#000000" fill-rule="nonzero" fill-opacity="1" /><path clip-path="url(#clip790)" d="M1462.9 1533.45 L1462.9 1538.98 Q1460.42 1537.71 1457.74 1537.07 Q1455.07 1536.44 1452.2 1536.44 Q1447.84 1536.44 1445.65 1537.77 Q1443.48 1539.11 1443.48 1541.79 Q1443.48 1543.82 1445.04 1545 Q1446.6 1546.15 1451.31 1547.2 L1453.32 1547.64 Q1459.56 1548.98 1462.17 1551.43 Q1464.81 1553.85 1464.81 1558.21 Q1464.81 1563.17 1460.86 1566.07 Q1456.95 1568.97 1450.07 1568.97 Q1447.21 1568.97 1444.09 1568.39 Q1441 1567.85 1437.56 1566.74 L1437.56 1560.69 Q1440.81 1562.38 1443.96 1563.24 Q1447.11 1564.07 1450.2 1564.07 Q1454.34 1564.07 1456.56 1562.66 Q1458.79 1561.23 1458.79 1558.65 Q1458.79 1556.27 1457.17 1554.99 Q1455.58 1553.72 1450.14 1552.54 L1448.1 1552.07 Q1442.66 1550.92 1440.24 1548.56 Q1437.82 1546.18 1437.82 1542.04 Q1437.82 1537.01 1441.38 1534.27 Q1444.95 1531.54 1451.5 1531.54 Q1454.75 1531.54 1457.62 1532.01 Q1460.48 1532.49 1462.9 1533.45 Z" fill="#000000" fill-rule="nonzero" fill-opacity="1" /><polyline clip-path="url(#clip790)" style="stroke:#000000; stroke-linecap:round; stroke-linejoin:round; stroke-width:4; stroke-opacity:1; fill:none" points="307.782,1423.18 307.782,47.2441 "/>
<polyline clip-path="url(#clip790)" style="stroke:#000000; stroke-linecap:round; stroke-linejoin:round; stroke-width:4; stroke-opacity:1; fill:none" points="307.782,1202.82 326.68,1202.82 "/>
<polyline clip-path="url(#clip790)" style="stroke:#000000; stroke-linecap:round; stroke-linejoin:round; stroke-width:4; stroke-opacity:1; fill:none" points="307.782,930.867 326.68,930.867 "/>
<polyline clip-path="url(#clip790)" style="stroke:#000000; stroke-linecap:round; stroke-linejoin:round; stroke-width:4; stroke-opacity:1; fill:none" points="307.782,658.916 326.68,658.916 "/>
<polyline clip-path="url(#clip790)" style="stroke:#000000; stroke-linecap:round; stroke-linejoin:round; stroke-width:4; stroke-opacity:1; fill:none" points="307.782,386.965 326.68,386.965 "/>
<polyline clip-path="url(#clip790)" style="stroke:#000000; stroke-linecap:round; stroke-linejoin:round; stroke-width:4; stroke-opacity:1; fill:none" points="307.782,115.014 326.68,115.014 "/>
<path clip-path="url(#clip790)" d="M114.931 1216.16 L122.57 1216.16 L122.57 1189.8 L114.26 1191.46 L114.26 1187.2 L122.524 1185.54 L127.2 1185.54 L127.2 1216.16 L134.839 1216.16 L134.839 1220.1 L114.931 1220.1 L114.931 1216.16 Z" fill="#000000" fill-rule="nonzero" fill-opacity="1" /><path clip-path="url(#clip790)" d="M144.283 1214.22 L149.167 1214.22 L149.167 1220.1 L144.283 1220.1 L144.283 1214.22 Z" fill="#000000" fill-rule="nonzero" fill-opacity="1" /><path clip-path="url(#clip790)" d="M169.352 1188.62 Q165.741 1188.62 163.913 1192.18 Q162.107 1195.72 162.107 1202.85 Q162.107 1209.96 163.913 1213.52 Q165.741 1217.07 169.352 1217.07 Q172.987 1217.07 174.792 1213.52 Q176.621 1209.96 176.621 1202.85 Q176.621 1195.72 174.792 1192.18 Q172.987 1188.62 169.352 1188.62 M169.352 1184.91 Q175.163 1184.91 178.218 1189.52 Q181.297 1194.1 181.297 1202.85 Q181.297 1211.58 178.218 1216.19 Q175.163 1220.77 169.352 1220.77 Q163.542 1220.77 160.464 1216.19 Q157.408 1211.58 157.408 1202.85 Q157.408 1194.1 160.464 1189.52 Q163.542 1184.91 169.352 1184.91 Z" fill="#000000" fill-rule="nonzero" fill-opacity="1" /><path clip-path="url(#clip790)" d="M199.514 1188.62 Q195.903 1188.62 194.075 1192.18 Q192.269 1195.72 192.269 1202.85 Q192.269 1209.96 194.075 1213.52 Q195.903 1217.07 199.514 1217.07 Q203.149 1217.07 204.954 1213.52 Q206.783 1209.96 206.783 1202.85 Q206.783 1195.72 204.954 1192.18 Q203.149 1188.62 199.514 1188.62 M199.514 1184.91 Q205.324 1184.91 208.38 1189.52 Q211.459 1194.1 211.459 1202.85 Q211.459 1211.58 208.38 1216.19 Q205.324 1220.77 199.514 1220.77 Q193.704 1220.77 190.625 1216.19 Q187.57 1211.58 187.57 1202.85 Q187.57 1194.1 190.625 1189.52 Q193.704 1184.91 199.514 1184.91 Z" fill="#000000" fill-rule="nonzero" fill-opacity="1" /><path clip-path="url(#clip790)" d="M229.676 1188.62 Q226.065 1188.62 224.236 1192.18 Q222.431 1195.72 222.431 1202.85 Q222.431 1209.96 224.236 1213.52 Q226.065 1217.07 229.676 1217.07 Q233.31 1217.07 235.116 1213.52 Q236.945 1209.96 236.945 1202.85 Q236.945 1195.72 235.116 1192.18 Q233.31 1188.62 229.676 1188.62 M229.676 1184.91 Q235.486 1184.91 238.542 1189.52 Q241.621 1194.1 241.621 1202.85 Q241.621 1211.58 238.542 1216.19 Q235.486 1220.77 229.676 1220.77 Q223.866 1220.77 220.787 1216.19 Q217.732 1211.58 217.732 1202.85 Q217.732 1194.1 220.787 1189.52 Q223.866 1184.91 229.676 1184.91 Z" fill="#000000" fill-rule="nonzero" fill-opacity="1" /><path clip-path="url(#clip790)" d="M259.838 1188.62 Q256.227 1188.62 254.398 1192.18 Q252.593 1195.72 252.593 1202.85 Q252.593 1209.96 254.398 1213.52 Q256.227 1217.07 259.838 1217.07 Q263.472 1217.07 265.278 1213.52 Q267.107 1209.96 267.107 1202.85 Q267.107 1195.72 265.278 1192.18 Q263.472 1188.62 259.838 1188.62 M259.838 1184.91 Q265.648 1184.91 268.704 1189.52 Q271.782 1194.1 271.782 1202.85 Q271.782 1211.58 268.704 1216.19 Q265.648 1220.77 259.838 1220.77 Q254.028 1220.77 250.949 1216.19 Q247.894 1211.58 247.894 1202.85 Q247.894 1194.1 250.949 1189.52 Q254.028 1184.91 259.838 1184.91 Z" fill="#000000" fill-rule="nonzero" fill-opacity="1" /><path clip-path="url(#clip790)" d="M115.927 944.212 L123.566 944.212 L123.566 917.846 L115.256 919.513 L115.256 915.253 L123.519 913.587 L128.195 913.587 L128.195 944.212 L135.834 944.212 L135.834 948.147 L115.927 948.147 L115.927 944.212 Z" fill="#000000" fill-rule="nonzero" fill-opacity="1" /><path clip-path="url(#clip790)" d="M145.279 942.267 L150.163 942.267 L150.163 948.147 L145.279 948.147 L145.279 942.267 Z" fill="#000000" fill-rule="nonzero" fill-opacity="1" /><path clip-path="url(#clip790)" d="M170.348 916.665 Q166.737 916.665 164.908 920.23 Q163.102 923.772 163.102 930.901 Q163.102 938.008 164.908 941.573 Q166.737 945.114 170.348 945.114 Q173.982 945.114 175.788 941.573 Q177.616 938.008 177.616 930.901 Q177.616 923.772 175.788 920.23 Q173.982 916.665 170.348 916.665 M170.348 912.962 Q176.158 912.962 179.214 917.568 Q182.292 922.152 182.292 930.901 Q182.292 939.628 179.214 944.235 Q176.158 948.818 170.348 948.818 Q164.538 948.818 161.459 944.235 Q158.403 939.628 158.403 930.901 Q158.403 922.152 161.459 917.568 Q164.538 912.962 170.348 912.962 Z" fill="#000000" fill-rule="nonzero" fill-opacity="1" /><path clip-path="url(#clip790)" d="M200.51 916.665 Q196.899 916.665 195.07 920.23 Q193.264 923.772 193.264 930.901 Q193.264 938.008 195.07 941.573 Q196.899 945.114 200.51 945.114 Q204.144 945.114 205.949 941.573 Q207.778 938.008 207.778 930.901 Q207.778 923.772 205.949 920.23 Q204.144 916.665 200.51 916.665 M200.51 912.962 Q206.32 912.962 209.375 917.568 Q212.454 922.152 212.454 930.901 Q212.454 939.628 209.375 944.235 Q206.32 948.818 200.51 948.818 Q194.7 948.818 191.621 944.235 Q188.565 939.628 188.565 930.901 Q188.565 922.152 191.621 917.568 Q194.7 912.962 200.51 912.962 Z" fill="#000000" fill-rule="nonzero" fill-opacity="1" /><path clip-path="url(#clip790)" d="M224.699 944.212 L241.019 944.212 L241.019 948.147 L219.074 948.147 L219.074 944.212 Q221.736 941.457 226.32 936.827 Q230.926 932.175 232.107 930.832 Q234.352 928.309 235.232 926.573 Q236.135 924.814 236.135 923.124 Q236.135 920.369 234.19 918.633 Q232.269 916.897 229.167 916.897 Q226.968 916.897 224.514 917.661 Q222.084 918.425 219.306 919.976 L219.306 915.253 Q222.13 914.119 224.584 913.54 Q227.037 912.962 229.074 912.962 Q234.445 912.962 237.639 915.647 Q240.834 918.332 240.834 922.823 Q240.834 924.952 240.023 926.874 Q239.236 928.772 237.13 931.364 Q236.551 932.036 233.449 935.253 Q230.347 938.448 224.699 944.212 Z" fill="#000000" fill-rule="nonzero" fill-opacity="1" /><path clip-path="url(#clip790)" d="M250.88 913.587 L269.236 913.587 L269.236 917.522 L255.162 917.522 L255.162 925.994 Q256.181 925.647 257.199 925.485 Q258.218 925.3 259.236 925.3 Q265.023 925.3 268.403 928.471 Q271.782 931.642 271.782 937.059 Q271.782 942.638 268.31 945.739 Q264.838 948.818 258.519 948.818 Q256.343 948.818 254.074 948.448 Q251.829 948.077 249.421 947.337 L249.421 942.638 Q251.505 943.772 253.727 944.327 Q255.949 944.883 258.426 944.883 Q262.431 944.883 264.769 942.776 Q267.107 940.67 267.107 937.059 Q267.107 933.448 264.769 931.341 Q262.431 929.235 258.426 929.235 Q256.551 929.235 254.676 929.652 Q252.824 930.068 250.88 930.948 L250.88 913.587 Z" fill="#000000" fill-rule="nonzero" fill-opacity="1" /><path clip-path="url(#clip790)" d="M114.931 672.261 L122.57 672.261 L122.57 645.895 L114.26 647.562 L114.26 643.302 L122.524 641.636 L127.2 641.636 L127.2 672.261 L134.839 672.261 L134.839 676.196 L114.931 676.196 L114.931 672.261 Z" fill="#000000" fill-rule="nonzero" fill-opacity="1" /><path clip-path="url(#clip790)" d="M144.283 670.316 L149.167 670.316 L149.167 676.196 L144.283 676.196 L144.283 670.316 Z" fill="#000000" fill-rule="nonzero" fill-opacity="1" /><path clip-path="url(#clip790)" d="M169.352 644.714 Q165.741 644.714 163.913 648.279 Q162.107 651.821 162.107 658.951 Q162.107 666.057 163.913 669.622 Q165.741 673.163 169.352 673.163 Q172.987 673.163 174.792 669.622 Q176.621 666.057 176.621 658.951 Q176.621 651.821 174.792 648.279 Q172.987 644.714 169.352 644.714 M169.352 641.011 Q175.163 641.011 178.218 645.617 Q181.297 650.201 181.297 658.951 Q181.297 667.677 178.218 672.284 Q175.163 676.867 169.352 676.867 Q163.542 676.867 160.464 672.284 Q157.408 667.677 157.408 658.951 Q157.408 650.201 160.464 645.617 Q163.542 641.011 169.352 641.011 Z" fill="#000000" fill-rule="nonzero" fill-opacity="1" /><path clip-path="url(#clip790)" d="M199.514 644.714 Q195.903 644.714 194.075 648.279 Q192.269 651.821 192.269 658.951 Q192.269 666.057 194.075 669.622 Q195.903 673.163 199.514 673.163 Q203.149 673.163 204.954 669.622 Q206.783 666.057 206.783 658.951 Q206.783 651.821 204.954 648.279 Q203.149 644.714 199.514 644.714 M199.514 641.011 Q205.324 641.011 208.38 645.617 Q211.459 650.201 211.459 658.951 Q211.459 667.677 208.38 672.284 Q205.324 676.867 199.514 676.867 Q193.704 676.867 190.625 672.284 Q187.57 667.677 187.57 658.951 Q187.57 650.201 190.625 645.617 Q193.704 641.011 199.514 641.011 Z" fill="#000000" fill-rule="nonzero" fill-opacity="1" /><path clip-path="url(#clip790)" d="M219.723 641.636 L238.079 641.636 L238.079 645.571 L224.005 645.571 L224.005 654.043 Q225.023 653.696 226.042 653.534 Q227.06 653.349 228.079 653.349 Q233.866 653.349 237.246 656.52 Q240.625 659.691 240.625 665.108 Q240.625 670.687 237.153 673.788 Q233.681 676.867 227.361 676.867 Q225.185 676.867 222.917 676.497 Q220.672 676.126 218.264 675.386 L218.264 670.687 Q220.348 671.821 222.57 672.376 Q224.792 672.932 227.269 672.932 Q231.273 672.932 233.611 670.825 Q235.949 668.719 235.949 665.108 Q235.949 661.497 233.611 659.39 Q231.273 657.284 227.269 657.284 Q225.394 657.284 223.519 657.701 Q221.667 658.117 219.723 658.997 L219.723 641.636 Z" fill="#000000" fill-rule="nonzero" fill-opacity="1" /><path clip-path="url(#clip790)" d="M259.838 644.714 Q256.227 644.714 254.398 648.279 Q252.593 651.821 252.593 658.951 Q252.593 666.057 254.398 669.622 Q256.227 673.163 259.838 673.163 Q263.472 673.163 265.278 669.622 Q267.107 666.057 267.107 658.951 Q267.107 651.821 265.278 648.279 Q263.472 644.714 259.838 644.714 M259.838 641.011 Q265.648 641.011 268.704 645.617 Q271.782 650.201 271.782 658.951 Q271.782 667.677 268.704 672.284 Q265.648 676.867 259.838 676.867 Q254.028 676.867 250.949 672.284 Q247.894 667.677 247.894 658.951 Q247.894 650.201 250.949 645.617 Q254.028 641.011 259.838 641.011 Z" fill="#000000" fill-rule="nonzero" fill-opacity="1" /><path clip-path="url(#clip790)" d="M115.927 400.31 L123.566 400.31 L123.566 373.944 L115.256 375.611 L115.256 371.351 L123.519 369.685 L128.195 369.685 L128.195 400.31 L135.834 400.31 L135.834 404.245 L115.927 404.245 L115.927 400.31 Z" fill="#000000" fill-rule="nonzero" fill-opacity="1" /><path clip-path="url(#clip790)" d="M145.279 398.365 L150.163 398.365 L150.163 404.245 L145.279 404.245 L145.279 398.365 Z" fill="#000000" fill-rule="nonzero" fill-opacity="1" /><path clip-path="url(#clip790)" d="M170.348 372.764 Q166.737 372.764 164.908 376.328 Q163.102 379.87 163.102 387 Q163.102 394.106 164.908 397.671 Q166.737 401.212 170.348 401.212 Q173.982 401.212 175.788 397.671 Q177.616 394.106 177.616 387 Q177.616 379.87 175.788 376.328 Q173.982 372.764 170.348 372.764 M170.348 369.06 Q176.158 369.06 179.214 373.666 Q182.292 378.25 182.292 387 Q182.292 395.726 179.214 400.333 Q176.158 404.916 170.348 404.916 Q164.538 404.916 161.459 400.333 Q158.403 395.726 158.403 387 Q158.403 378.25 161.459 373.666 Q164.538 369.06 170.348 369.06 Z" fill="#000000" fill-rule="nonzero" fill-opacity="1" /><path clip-path="url(#clip790)" d="M200.51 372.764 Q196.899 372.764 195.07 376.328 Q193.264 379.87 193.264 387 Q193.264 394.106 195.07 397.671 Q196.899 401.212 200.51 401.212 Q204.144 401.212 205.949 397.671 Q207.778 394.106 207.778 387 Q207.778 379.87 205.949 376.328 Q204.144 372.764 200.51 372.764 M200.51 369.06 Q206.32 369.06 209.375 373.666 Q212.454 378.25 212.454 387 Q212.454 395.726 209.375 400.333 Q206.32 404.916 200.51 404.916 Q194.7 404.916 191.621 400.333 Q188.565 395.726 188.565 387 Q188.565 378.25 191.621 373.666 Q194.7 369.06 200.51 369.06 Z" fill="#000000" fill-rule="nonzero" fill-opacity="1" /><path clip-path="url(#clip790)" d="M219.491 369.685 L241.713 369.685 L241.713 371.676 L229.167 404.245 L224.283 404.245 L236.088 373.62 L219.491 373.62 L219.491 369.685 Z" fill="#000000" fill-rule="nonzero" fill-opacity="1" /><path clip-path="url(#clip790)" d="M250.88 369.685 L269.236 369.685 L269.236 373.62 L255.162 373.62 L255.162 382.092 Q256.181 381.745 257.199 381.583 Q258.218 381.398 259.236 381.398 Q265.023 381.398 268.403 384.569 Q271.782 387.74 271.782 393.157 Q271.782 398.736 268.31 401.837 Q264.838 404.916 258.519 404.916 Q256.343 404.916 254.074 404.546 Q251.829 404.175 249.421 403.435 L249.421 398.736 Q251.505 399.87 253.727 400.425 Q255.949 400.981 258.426 400.981 Q262.431 400.981 264.769 398.874 Q267.107 396.768 267.107 393.157 Q267.107 389.546 264.769 387.439 Q262.431 385.333 258.426 385.333 Q256.551 385.333 254.676 385.75 Q252.824 386.166 250.88 387.046 L250.88 369.685 Z" fill="#000000" fill-rule="nonzero" fill-opacity="1" /><path clip-path="url(#clip790)" d="M114.931 128.359 L122.57 128.359 L122.57 101.993 L114.26 103.66 L114.26 99.4005 L122.524 97.7339 L127.2 97.7339 L127.2 128.359 L134.839 128.359 L134.839 132.294 L114.931 132.294 L114.931 128.359 Z" fill="#000000" fill-rule="nonzero" fill-opacity="1" /><path clip-path="url(#clip790)" d="M144.283 126.414 L149.167 126.414 L149.167 132.294 L144.283 132.294 L144.283 126.414 Z" fill="#000000" fill-rule="nonzero" fill-opacity="1" /><path clip-path="url(#clip790)" d="M169.352 100.813 Q165.741 100.813 163.913 104.377 Q162.107 107.919 162.107 115.049 Q162.107 122.155 163.913 125.72 Q165.741 129.261 169.352 129.261 Q172.987 129.261 174.792 125.72 Q176.621 122.155 176.621 115.049 Q176.621 107.919 174.792 104.377 Q172.987 100.813 169.352 100.813 M169.352 97.1089 Q175.163 97.1089 178.218 101.715 Q181.297 106.299 181.297 115.049 Q181.297 123.775 178.218 128.382 Q175.163 132.965 169.352 132.965 Q163.542 132.965 160.464 128.382 Q157.408 123.775 157.408 115.049 Q157.408 106.299 160.464 101.715 Q163.542 97.1089 169.352 97.1089 Z" fill="#000000" fill-rule="nonzero" fill-opacity="1" /><path clip-path="url(#clip790)" d="M190.325 128.359 L197.963 128.359 L197.963 101.993 L189.653 103.66 L189.653 99.4005 L197.917 97.7339 L202.593 97.7339 L202.593 128.359 L210.232 128.359 L210.232 132.294 L190.325 132.294 L190.325 128.359 Z" fill="#000000" fill-rule="nonzero" fill-opacity="1" /><path clip-path="url(#clip790)" d="M229.676 100.813 Q226.065 100.813 224.236 104.377 Q222.431 107.919 222.431 115.049 Q222.431 122.155 224.236 125.72 Q226.065 129.261 229.676 129.261 Q233.31 129.261 235.116 125.72 Q236.945 122.155 236.945 115.049 Q236.945 107.919 235.116 104.377 Q233.31 100.813 229.676 100.813 M229.676 97.1089 Q235.486 97.1089 238.542 101.715 Q241.621 106.299 241.621 115.049 Q241.621 123.775 238.542 128.382 Q235.486 132.965 229.676 132.965 Q223.866 132.965 220.787 128.382 Q217.732 123.775 217.732 115.049 Q217.732 106.299 220.787 101.715 Q223.866 97.1089 229.676 97.1089 Z" fill="#000000" fill-rule="nonzero" fill-opacity="1" /><path clip-path="url(#clip790)" d="M259.838 100.813 Q256.227 100.813 254.398 104.377 Q252.593 107.919 252.593 115.049 Q252.593 122.155 254.398 125.72 Q256.227 129.261 259.838 129.261 Q263.472 129.261 265.278 125.72 Q267.107 122.155 267.107 115.049 Q267.107 107.919 265.278 104.377 Q263.472 100.813 259.838 100.813 M259.838 97.1089 Q265.648 97.1089 268.704 101.715 Q271.782 106.299 271.782 115.049 Q271.782 123.775 268.704 128.382 Q265.648 132.965 259.838 132.965 Q254.028 132.965 250.949 128.382 Q247.894 123.775 247.894 115.049 Q247.894 106.299 250.949 101.715 Q254.028 97.1089 259.838 97.1089 Z" fill="#000000" fill-rule="nonzero" fill-opacity="1" /><path clip-path="url(#clip790)" d="M57.2247 896.821 L44.4614 896.821 L44.4614 907.325 L39.1779 907.325 L39.1779 890.456 L59.58 890.456 Q62.2218 894.18 63.5904 898.667 Q64.9272 903.155 64.9272 908.248 Q64.9272 919.388 58.4342 925.69 Q51.9093 931.96 40.2919 931.96 Q28.6427 931.96 22.1496 925.69 Q15.6248 919.388 15.6248 908.248 Q15.6248 903.601 16.7706 899.431 Q17.9164 895.23 20.1444 891.697 L26.9876 891.697 Q23.9639 895.262 22.4361 899.272 Q20.9083 903.283 20.9083 907.707 Q20.9083 916.428 25.7781 920.82 Q30.6479 925.181 40.2919 925.181 Q49.9041 925.181 54.7739 920.82 Q59.6436 916.428 59.6436 907.707 Q59.6436 904.301 59.0707 901.627 Q58.466 898.954 57.2247 896.821 Z" fill="#000000" fill-rule="nonzero" fill-opacity="1" /><path clip-path="url(#clip790)" d="M21.7677 872.282 L58.7206 872.282 L58.7206 864.515 Q58.7206 854.68 54.2646 850.129 Q49.8086 845.546 40.1964 845.546 Q30.6479 845.546 26.2237 850.129 Q21.7677 854.68 21.7677 864.515 L21.7677 872.282 M16.4842 878.711 L16.4842 865.502 Q16.4842 851.688 22.2451 845.227 Q27.9743 838.766 40.1964 838.766 Q52.4822 838.766 58.2432 845.259 Q64.0042 851.752 64.0042 865.502 L64.0042 878.711 L16.4842 878.711 Z" fill="#000000" fill-rule="nonzero" fill-opacity="1" /><path clip-path="url(#clip790)" d="M21.7677 822.088 L39.6235 822.088 L39.6235 814.004 Q39.6235 809.516 37.3 807.065 Q34.9765 804.614 30.6797 804.614 Q26.4147 804.614 24.0912 807.065 Q21.7677 809.516 21.7677 814.004 L21.7677 822.088 M16.4842 828.517 L16.4842 814.004 Q16.4842 806.015 20.1126 801.94 Q23.7092 797.835 30.6797 797.835 Q37.7138 797.835 41.3104 801.94 Q44.907 806.015 44.907 814.004 L44.907 822.088 L64.0042 822.088 L64.0042 828.517 L16.4842 828.517 Z" fill="#000000" fill-rule="nonzero" fill-opacity="1" /><path clip-path="url(#clip790)" d="M29.7248 743.09 L35.1993 743.09 Q33.8307 745.572 33.1623 748.087 Q32.4621 750.569 32.4621 753.116 Q32.4621 758.813 36.0905 761.964 Q39.6872 765.115 46.212 765.115 Q52.7369 765.115 56.3653 761.964 Q59.9619 758.813 59.9619 753.116 Q59.9619 750.569 59.2935 748.087 Q58.5933 745.572 57.2247 743.09 L62.6355 743.09 Q63.7814 745.54 64.3543 748.182 Q64.9272 750.792 64.9272 753.752 Q64.9272 761.805 59.8664 766.547 Q54.8057 771.29 46.212 771.29 Q37.491 771.29 32.4939 766.515 Q27.4968 761.709 27.4968 753.37 Q27.4968 750.665 28.0697 748.087 Q28.6108 745.508 29.7248 743.09 Z" fill="#000000" fill-rule="nonzero" fill-opacity="1" /><path clip-path="url(#clip790)" d="M42.4881 703.272 L64.0042 703.272 L64.0042 709.128 L42.679 709.128 Q37.6183 709.128 35.1038 711.102 Q32.5894 713.075 32.5894 717.022 Q32.5894 721.764 35.6131 724.502 Q38.6368 727.239 43.8567 727.239 L64.0042 727.239 L64.0042 733.127 L14.479 733.127 L14.479 727.239 L33.8944 727.239 Q30.6797 725.138 29.0883 722.305 Q27.4968 719.441 27.4968 715.717 Q27.4968 709.574 31.3163 706.423 Q35.1038 703.272 42.4881 703.272 Z" fill="#000000" fill-rule="nonzero" fill-opacity="1" /><path clip-path="url(#clip790)" d="M46.0847 675.39 Q46.0847 682.488 47.7079 685.225 Q49.3312 687.963 53.2461 687.963 Q56.3653 687.963 58.2114 685.925 Q60.0256 683.857 60.0256 680.324 Q60.0256 675.454 56.5881 672.526 Q53.1188 669.566 47.3897 669.566 L46.0847 669.566 L46.0847 675.39 M43.6657 663.709 L64.0042 663.709 L64.0042 669.566 L58.5933 669.566 Q61.8398 671.571 63.3994 674.563 Q64.9272 677.555 64.9272 681.883 Q64.9272 687.358 61.8716 690.604 Q58.7843 693.819 53.6281 693.819 Q47.6125 693.819 44.5569 689.809 Q41.5014 685.766 41.5014 677.777 L41.5014 669.566 L40.9285 669.566 Q36.8862 669.566 34.6901 672.239 Q32.4621 674.881 32.4621 679.687 Q32.4621 682.743 33.1941 685.639 Q33.9262 688.535 35.3903 691.209 L29.9795 691.209 Q28.7381 687.994 28.1334 684.971 Q27.4968 681.947 27.4968 679.082 Q27.4968 671.348 31.5072 667.529 Q35.5176 663.709 43.6657 663.709 Z" fill="#000000" fill-rule="nonzero" fill-opacity="1" /><path clip-path="url(#clip790)" d="M42.4881 622.014 L64.0042 622.014 L64.0042 627.87 L42.679 627.87 Q37.6183 627.87 35.1038 629.844 Q32.5894 631.817 32.5894 635.764 Q32.5894 640.506 35.6131 643.243 Q38.6368 645.981 43.8567 645.981 L64.0042 645.981 L64.0042 651.869 L28.3562 651.869 L28.3562 645.981 L33.8944 645.981 Q30.6797 643.88 29.0883 641.047 Q27.4968 638.183 27.4968 634.459 Q27.4968 628.316 31.3163 625.165 Q35.1038 622.014 42.4881 622.014 Z" fill="#000000" fill-rule="nonzero" fill-opacity="1" /><path clip-path="url(#clip790)" d="M45.7664 586.875 Q39.4007 586.875 35.8996 589.517 Q32.3984 592.127 32.3984 596.869 Q32.3984 601.58 35.8996 604.222 Q39.4007 606.832 45.7664 606.832 Q52.1003 606.832 55.6014 604.222 Q59.1026 601.58 59.1026 596.869 Q59.1026 592.127 55.6014 589.517 Q52.1003 586.875 45.7664 586.875 M59.58 581.019 Q68.683 581.019 73.1071 585.061 Q77.5631 589.103 77.5631 597.442 Q77.5631 600.53 77.0857 603.267 Q76.6401 606.004 75.6852 608.582 L69.9879 608.582 Q71.3884 606.004 72.0568 603.49 Q72.7252 600.975 72.7252 598.365 Q72.7252 592.604 69.7015 589.74 Q66.7096 586.875 60.6303 586.875 L57.7339 586.875 Q60.885 588.689 62.4446 591.522 Q64.0042 594.355 64.0042 598.302 Q64.0042 604.858 59.0071 608.869 Q54.01 612.879 45.7664 612.879 Q37.491 612.879 32.4939 608.869 Q27.4968 604.858 27.4968 598.302 Q27.4968 594.355 29.0564 591.522 Q30.616 588.689 33.7671 586.875 L28.3562 586.875 L28.3562 581.019 L59.58 581.019 Z" fill="#000000" fill-rule="nonzero" fill-opacity="1" /><path clip-path="url(#clip790)" d="M44.7161 538.464 L47.5806 538.464 L47.5806 565.391 Q53.6281 565.009 56.8109 561.762 Q59.9619 558.484 59.9619 552.659 Q59.9619 549.286 59.1344 546.135 Q58.3069 542.952 56.6518 539.833 L62.1899 539.833 Q63.5267 542.984 64.227 546.294 Q64.9272 549.604 64.9272 553.01 Q64.9272 561.54 59.9619 566.537 Q54.9967 571.502 46.5303 571.502 Q37.7774 571.502 32.6531 566.791 Q27.4968 562.049 27.4968 554.028 Q27.4968 546.835 32.1438 542.665 Q36.7589 538.464 44.7161 538.464 M42.9973 544.32 Q38.1912 544.384 35.3266 547.026 Q32.4621 549.636 32.4621 553.964 Q32.4621 558.866 35.2312 561.826 Q38.0002 564.754 43.0292 565.2 L42.9973 544.32 Z" fill="#000000" fill-rule="nonzero" fill-opacity="1" /><path clip-path="url(#clip792)" d="M365.659 1202.82 L486.235 1384.24 L606.812 791.56 L727.388 482.914 L847.964 549.174 L968.54 858.127 L1089.12 1014.5 L1209.69 933.896 L1330.27 960.366 L1450.85 954.136 L1571.42 1182.35 L1692 1130.44 L1812.57 1192.59 L1933.15 1244.41 L2053.73 1047.86 L2174.3 1096.12 L2294.88 1059.76 L2294.88 88.7551 L2174.3 209.506 L2053.73 199.882 L1933.15 394.018 L1812.57 343.723 L1692 300.149 L1571.42 415.651 L1450.85 228.487 L1330.27 277.638 L1209.69 328.178 L1089.12 478.795 L968.54 382.257 L847.964 88.9699 L727.388 86.1857 L606.812 435.096 L486.235 1154.44 L365.659 1202.82  Z" fill="#009af9" fill-rule="evenodd" fill-opacity="0.2"/>
<polyline clip-path="url(#clip792)" style="stroke:#009af9; stroke-linecap:round; stroke-linejoin:round; stroke-width:4; stroke-opacity:1; fill:none" points="365.659,1202.82 486.235,1269.34 606.812,613.328 727.388,284.55 847.964,319.072 968.54,620.192 1089.12,746.648 1209.69,631.037 1330.27,619.002 1450.85,591.312 1571.42,798.999 1692,715.294 1812.57,768.157 1933.15,819.212 2053.73,623.872 2174.3,652.815 2294.88,574.258 "/>
</svg>
