<?xml version="1.0" encoding="utf-8"?>
<svg xmlns="http://www.w3.org/2000/svg" xmlns:xlink="http://www.w3.org/1999/xlink" width="600" height="400" viewBox="0 0 2400 1600">
<defs>
  <clipPath id="clip830">
    <rect x="0" y="0" width="2400" height="1600"/>
  </clipPath>
</defs>
<path clip-path="url(#clip830)" d="M0 1600 L2400 1600 L2400 0 L0 0  Z" fill="#ffffff" fill-rule="evenodd" fill-opacity="1"/>
<defs>
  <clipPath id="clip831">
    <rect x="480" y="0" width="1681" height="1600"/>
  </clipPath>
</defs>
<path clip-path="url(#clip830)" d="M308.87 1423.18 L2352.76 1423.18 L2352.76 47.2441 L308.87 47.2441  Z" fill="#ffffff" fill-rule="evenodd" fill-opacity="1"/>
<defs>
  <clipPath id="clip832">
    <rect x="308" y="47" width="2045" height="1377"/>
  </clipPath>
</defs>
<polyline clip-path="url(#clip832)" style="stroke:#000000; stroke-linecap:round; stroke-linejoin:round; stroke-width:2; stroke-opacity:0.1; fill:none" points="607.74,1423.18 607.74,47.2441 "/>
<polyline clip-path="url(#clip832)" style="stroke:#000000; stroke-linecap:round; stroke-linejoin:round; stroke-width:2; stroke-opacity:0.1; fill:none" points="969.277,1423.18 969.277,47.2441 "/>
<polyline clip-path="url(#clip832)" style="stroke:#000000; stroke-linecap:round; stroke-linejoin:round; stroke-width:2; stroke-opacity:0.1; fill:none" points="1330.81,1423.18 1330.81,47.2441 "/>
<polyline clip-path="url(#clip832)" style="stroke:#000000; stroke-linecap:round; stroke-linejoin:round; stroke-width:2; stroke-opacity:0.1; fill:none" points="1692.35,1423.18 1692.35,47.2441 "/>
<polyline clip-path="url(#clip832)" style="stroke:#000000; stroke-linecap:round; stroke-linejoin:round; stroke-width:2; stroke-opacity:0.1; fill:none" points="2053.89,1423.18 2053.89,47.2441 "/>
<polyline clip-path="url(#clip832)" style="stroke:#000000; stroke-linecap:round; stroke-linejoin:round; stroke-width:2; stroke-opacity:0.1; fill:none" points="308.87,1357.63 2352.76,1357.63 "/>
<polyline clip-path="url(#clip832)" style="stroke:#000000; stroke-linecap:round; stroke-linejoin:round; stroke-width:2; stroke-opacity:0.1; fill:none" points="308.87,1159.93 2352.76,1159.93 "/>
<polyline clip-path="url(#clip832)" style="stroke:#000000; stroke-linecap:round; stroke-linejoin:round; stroke-width:2; stroke-opacity:0.1; fill:none" points="308.87,962.227 2352.76,962.227 "/>
<polyline clip-path="url(#clip832)" style="stroke:#000000; stroke-linecap:round; stroke-linejoin:round; stroke-width:2; stroke-opacity:0.1; fill:none" points="308.87,764.528 2352.76,764.528 "/>
<polyline clip-path="url(#clip832)" style="stroke:#000000; stroke-linecap:round; stroke-linejoin:round; stroke-width:2; stroke-opacity:0.1; fill:none" points="308.87,566.829 2352.76,566.829 "/>
<polyline clip-path="url(#clip832)" style="stroke:#000000; stroke-linecap:round; stroke-linejoin:round; stroke-width:2; stroke-opacity:0.1; fill:none" points="308.87,369.13 2352.76,369.13 "/>
<polyline clip-path="url(#clip832)" style="stroke:#000000; stroke-linecap:round; stroke-linejoin:round; stroke-width:2; stroke-opacity:0.1; fill:none" points="308.87,171.431 2352.76,171.431 "/>
<polyline clip-path="url(#clip830)" style="stroke:#000000; stroke-linecap:round; stroke-linejoin:round; stroke-width:4; stroke-opacity:1; fill:none" points="308.87,1423.18 2352.76,1423.18 "/>
<polyline clip-path="url(#clip830)" style="stroke:#000000; stroke-linecap:round; stroke-linejoin:round; stroke-width:4; stroke-opacity:1; fill:none" points="607.74,1423.18 607.74,1404.28 "/>
<polyline clip-path="url(#clip830)" style="stroke:#000000; stroke-linecap:round; stroke-linejoin:round; stroke-width:4; stroke-opacity:1; fill:none" points="969.277,1423.18 969.277,1404.28 "/>
<polyline clip-path="url(#clip830)" style="stroke:#000000; stroke-linecap:round; stroke-linejoin:round; stroke-width:4; stroke-opacity:1; fill:none" points="1330.81,1423.18 1330.81,1404.28 "/>
<polyline clip-path="url(#clip830)" style="stroke:#000000; stroke-linecap:round; stroke-linejoin:round; stroke-width:4; stroke-opacity:1; fill:none" points="1692.35,1423.18 1692.35,1404.28 "/>
<polyline clip-path="url(#clip830)" style="stroke:#000000; stroke-linecap:round; stroke-linejoin:round; stroke-width:4; stroke-opacity:1; fill:none" points="2053.89,1423.18 2053.89,1404.28 "/>
<path clip-path="url(#clip830)" d="M611.988 1466.95 Q615.345 1467.66 617.22 1469.93 Q619.118 1472.2 619.118 1475.53 Q619.118 1480.65 615.599 1483.45 Q612.081 1486.25 605.599 1486.25 Q603.423 1486.25 601.109 1485.81 Q598.817 1485.39 596.363 1484.54 L596.363 1480.02 Q598.308 1481.16 600.622 1481.74 Q602.937 1482.32 605.46 1482.32 Q609.859 1482.32 612.15 1480.58 Q614.465 1478.84 614.465 1475.53 Q614.465 1472.48 612.312 1470.77 Q610.183 1469.03 606.363 1469.03 L602.335 1469.03 L602.335 1465.19 L606.548 1465.19 Q609.997 1465.19 611.826 1463.82 Q613.655 1462.43 613.655 1459.84 Q613.655 1457.18 611.757 1455.77 Q609.882 1454.33 606.363 1454.33 Q604.442 1454.33 602.243 1454.75 Q600.044 1455.16 597.405 1456.04 L597.405 1451.88 Q600.067 1451.14 602.382 1450.77 Q604.72 1450.39 606.78 1450.39 Q612.104 1450.39 615.206 1452.83 Q618.308 1455.23 618.308 1459.35 Q618.308 1462.22 616.664 1464.21 Q615.021 1466.18 611.988 1466.95 Z" fill="#000000" fill-rule="nonzero" fill-opacity="1" /><path clip-path="url(#clip830)" d="M969.682 1466.44 Q966.534 1466.44 964.682 1468.59 Q962.853 1470.74 962.853 1474.49 Q962.853 1478.22 964.682 1480.39 Q966.534 1482.55 969.682 1482.55 Q972.83 1482.55 974.659 1480.39 Q976.511 1478.22 976.511 1474.49 Q976.511 1470.74 974.659 1468.59 Q972.83 1466.44 969.682 1466.44 M978.964 1451.78 L978.964 1456.04 Q977.205 1455.21 975.399 1454.77 Q973.617 1454.33 971.858 1454.33 Q967.228 1454.33 964.775 1457.45 Q962.344 1460.58 961.997 1466.9 Q963.362 1464.89 965.423 1463.82 Q967.483 1462.73 969.96 1462.73 Q975.168 1462.73 978.177 1465.9 Q981.21 1469.05 981.21 1474.49 Q981.21 1479.82 978.061 1483.03 Q974.913 1486.25 969.682 1486.25 Q963.687 1486.25 960.515 1481.67 Q957.344 1477.06 957.344 1468.33 Q957.344 1460.14 961.233 1455.28 Q965.122 1450.39 971.673 1450.39 Q973.432 1450.39 975.214 1450.74 Q977.02 1451.09 978.964 1451.78 Z" fill="#000000" fill-rule="nonzero" fill-opacity="1" /><path clip-path="url(#clip830)" d="M1321.11 1484.86 L1321.11 1480.6 Q1322.87 1481.44 1324.68 1481.88 Q1326.48 1482.32 1328.22 1482.32 Q1332.85 1482.32 1335.28 1479.21 Q1337.73 1476.09 1338.08 1469.75 Q1336.74 1471.74 1334.68 1472.8 Q1332.62 1473.87 1330.12 1473.87 Q1324.93 1473.87 1321.9 1470.74 Q1318.89 1467.59 1318.89 1462.15 Q1318.89 1456.83 1322.04 1453.61 Q1325.19 1450.39 1330.42 1450.39 Q1336.41 1450.39 1339.56 1455 Q1342.73 1459.58 1342.73 1468.33 Q1342.73 1476.51 1338.85 1481.39 Q1334.98 1486.25 1328.43 1486.25 Q1326.67 1486.25 1324.86 1485.9 Q1323.06 1485.56 1321.11 1484.86 M1330.42 1470.21 Q1333.57 1470.21 1335.4 1468.06 Q1337.25 1465.9 1337.25 1462.15 Q1337.25 1458.43 1335.4 1456.27 Q1333.57 1454.1 1330.42 1454.1 Q1327.27 1454.1 1325.42 1456.27 Q1323.59 1458.43 1323.59 1462.15 Q1323.59 1465.9 1325.42 1468.06 Q1327.27 1470.21 1330.42 1470.21 Z" fill="#000000" fill-rule="nonzero" fill-opacity="1" /><path clip-path="url(#clip830)" d="M1667.84 1481.64 L1675.47 1481.64 L1675.47 1455.28 L1667.16 1456.95 L1667.16 1452.69 L1675.43 1451.02 L1680.1 1451.02 L1680.1 1481.64 L1687.74 1481.64 L1687.74 1485.58 L1667.84 1485.58 L1667.84 1481.64 Z" fill="#000000" fill-rule="nonzero" fill-opacity="1" /><path clip-path="url(#clip830)" d="M1701.22 1481.64 L1717.53 1481.64 L1717.53 1485.58 L1695.59 1485.58 L1695.59 1481.64 Q1698.25 1478.89 1702.84 1474.26 Q1707.44 1469.61 1708.62 1468.27 Q1710.87 1465.74 1711.75 1464.01 Q1712.65 1462.25 1712.65 1460.56 Q1712.65 1457.8 1710.71 1456.07 Q1708.78 1454.33 1705.68 1454.33 Q1703.48 1454.33 1701.03 1455.09 Q1698.6 1455.86 1695.82 1457.41 L1695.82 1452.69 Q1698.65 1451.55 1701.1 1450.97 Q1703.55 1450.39 1705.59 1450.39 Q1710.96 1450.39 1714.15 1453.08 Q1717.35 1455.77 1717.35 1460.26 Q1717.35 1462.39 1716.54 1464.31 Q1715.75 1466.2 1713.65 1468.8 Q1713.07 1469.47 1709.97 1472.69 Q1706.86 1475.88 1701.22 1481.64 Z" fill="#000000" fill-rule="nonzero" fill-opacity="1" /><path clip-path="url(#clip830)" d="M2029.07 1481.64 L2036.71 1481.64 L2036.71 1455.28 L2028.4 1456.95 L2028.4 1452.69 L2036.66 1451.02 L2041.34 1451.02 L2041.34 1481.64 L2048.98 1481.64 L2048.98 1485.58 L2029.07 1485.58 L2029.07 1481.64 Z" fill="#000000" fill-rule="nonzero" fill-opacity="1" /><path clip-path="url(#clip830)" d="M2058.47 1451.02 L2076.83 1451.02 L2076.83 1454.96 L2062.75 1454.96 L2062.75 1463.43 Q2063.77 1463.08 2064.79 1462.92 Q2065.81 1462.73 2066.83 1462.73 Q2072.61 1462.73 2075.99 1465.9 Q2079.37 1469.08 2079.37 1474.49 Q2079.37 1480.07 2075.9 1483.17 Q2072.43 1486.25 2066.11 1486.25 Q2063.93 1486.25 2061.66 1485.88 Q2059.42 1485.51 2057.01 1484.77 L2057.01 1480.07 Q2059.09 1481.2 2061.32 1481.76 Q2063.54 1482.32 2066.02 1482.32 Q2070.02 1482.32 2072.36 1480.21 Q2074.7 1478.1 2074.7 1474.49 Q2074.7 1470.88 2072.36 1468.77 Q2070.02 1466.67 2066.02 1466.67 Q2064.14 1466.67 2062.27 1467.08 Q2060.41 1467.5 2058.47 1468.38 L2058.47 1451.02 Z" fill="#000000" fill-rule="nonzero" fill-opacity="1" /><path clip-path="url(#clip830)" d="M1202.32 1550.25 Q1202.32 1556.71 1204.96 1560.4 Q1207.64 1564.07 1212.28 1564.07 Q1216.93 1564.07 1219.6 1560.4 Q1222.28 1556.71 1222.28 1550.25 Q1222.28 1543.79 1219.6 1540.13 Q1216.93 1536.44 1212.28 1536.44 Q1207.64 1536.44 1204.96 1540.13 Q1202.32 1543.79 1202.32 1550.25 M1222.28 1562.7 Q1220.43 1565.88 1217.6 1567.44 Q1214.8 1568.97 1210.85 1568.97 Q1204.39 1568.97 1200.32 1563.81 Q1196.27 1558.65 1196.27 1550.25 Q1196.27 1541.85 1200.32 1536.69 Q1204.39 1531.54 1210.85 1531.54 Q1214.8 1531.54 1217.6 1533.1 Q1220.43 1534.62 1222.28 1537.81 L1222.28 1532.4 L1228.13 1532.4 L1228.13 1581.6 L1222.28 1581.6 L1222.28 1562.7 Z" fill="#000000" fill-rule="nonzero" fill-opacity="1" /><path clip-path="url(#clip830)" d="M1239.59 1553.98 L1239.59 1532.4 L1245.45 1532.4 L1245.45 1553.75 Q1245.45 1558.81 1247.42 1561.36 Q1249.4 1563.87 1253.34 1563.87 Q1258.08 1563.87 1260.82 1560.85 Q1263.59 1557.83 1263.59 1552.61 L1263.59 1532.4 L1269.45 1532.4 L1269.45 1568.04 L1263.59 1568.04 L1263.59 1562.57 Q1261.46 1565.82 1258.63 1567.41 Q1255.83 1568.97 1252.1 1568.97 Q1245.96 1568.97 1242.78 1565.15 Q1239.59 1561.33 1239.59 1553.98 M1254.33 1531.54 L1254.33 1531.54 Z" fill="#000000" fill-rule="nonzero" fill-opacity="1" /><path clip-path="url(#clip830)" d="M1297.71 1550.12 Q1290.61 1550.12 1287.88 1551.75 Q1285.14 1553.37 1285.14 1557.29 Q1285.14 1560.4 1287.18 1562.25 Q1289.25 1564.07 1292.78 1564.07 Q1297.65 1564.07 1300.58 1560.63 Q1303.54 1557.16 1303.54 1551.43 L1303.54 1550.12 L1297.71 1550.12 M1309.39 1547.71 L1309.39 1568.04 L1303.54 1568.04 L1303.54 1562.63 Q1301.53 1565.88 1298.54 1567.44 Q1295.55 1568.97 1291.22 1568.97 Q1285.74 1568.97 1282.5 1565.91 Q1279.28 1562.82 1279.28 1557.67 Q1279.28 1551.65 1283.29 1548.6 Q1287.34 1545.54 1295.32 1545.54 L1303.54 1545.54 L1303.54 1544.97 Q1303.54 1540.93 1300.86 1538.73 Q1298.22 1536.5 1293.41 1536.5 Q1290.36 1536.5 1287.46 1537.23 Q1284.57 1537.97 1281.89 1539.43 L1281.89 1534.02 Q1285.11 1532.78 1288.13 1532.17 Q1291.15 1531.54 1294.02 1531.54 Q1301.75 1531.54 1305.57 1535.55 Q1309.39 1539.56 1309.39 1547.71 Z" fill="#000000" fill-rule="nonzero" fill-opacity="1" /><path clip-path="url(#clip830)" d="M1342.11 1537.87 Q1341.13 1537.3 1339.95 1537.04 Q1338.8 1536.76 1337.4 1536.76 Q1332.44 1536.76 1329.76 1540 Q1327.12 1543.22 1327.12 1549.27 L1327.12 1568.04 L1321.23 1568.04 L1321.23 1532.4 L1327.12 1532.4 L1327.12 1537.93 Q1328.97 1534.69 1331.93 1533.13 Q1334.89 1531.54 1339.12 1531.54 Q1339.73 1531.54 1340.46 1531.63 Q1341.19 1531.7 1342.08 1531.85 L1342.11 1537.87 Z" fill="#000000" fill-rule="nonzero" fill-opacity="1" /><path clip-path="url(#clip830)" d="M1354.05 1522.27 L1354.05 1532.4 L1366.11 1532.4 L1366.11 1536.95 L1354.05 1536.95 L1354.05 1556.3 Q1354.05 1560.66 1355.23 1561.9 Q1356.44 1563.14 1360.1 1563.14 L1366.11 1563.14 L1366.11 1568.04 L1360.1 1568.04 Q1353.32 1568.04 1350.74 1565.53 Q1348.16 1562.98 1348.16 1556.3 L1348.16 1536.95 L1343.86 1536.95 L1343.86 1532.4 L1348.16 1532.4 L1348.16 1522.27 L1354.05 1522.27 Z" fill="#000000" fill-rule="nonzero" fill-opacity="1" /><path clip-path="url(#clip830)" d="M1404.31 1548.76 L1404.31 1551.62 L1377.38 1551.62 Q1377.76 1557.67 1381.01 1560.85 Q1384.29 1564 1390.11 1564 Q1393.48 1564 1396.63 1563.17 Q1399.82 1562.35 1402.94 1560.69 L1402.94 1566.23 Q1399.79 1567.57 1396.48 1568.27 Q1393.17 1568.97 1389.76 1568.97 Q1381.23 1568.97 1376.23 1564 Q1371.27 1559.04 1371.27 1550.57 Q1371.27 1541.82 1375.98 1536.69 Q1380.72 1531.54 1388.74 1531.54 Q1395.93 1531.54 1400.1 1536.18 Q1404.31 1540.8 1404.31 1548.76 M1398.45 1547.04 Q1398.39 1542.23 1395.74 1539.37 Q1393.13 1536.5 1388.8 1536.5 Q1383.9 1536.5 1380.94 1539.27 Q1378.01 1542.04 1377.57 1547.07 L1398.45 1547.04 Z" fill="#000000" fill-rule="nonzero" fill-opacity="1" /><path clip-path="url(#clip830)" d="M1434.57 1537.87 Q1433.59 1537.3 1432.41 1537.04 Q1431.26 1536.76 1429.86 1536.76 Q1424.9 1536.76 1422.22 1540 Q1419.58 1543.22 1419.58 1549.27 L1419.58 1568.04 L1413.69 1568.04 L1413.69 1532.4 L1419.58 1532.4 L1419.58 1537.93 Q1421.43 1534.69 1424.39 1533.13 Q1427.35 1531.54 1431.58 1531.54 Q1432.19 1531.54 1432.92 1531.63 Q1433.65 1531.7 1434.54 1531.85 L1434.57 1537.87 Z" fill="#000000" fill-rule="nonzero" fill-opacity="1" /><path clip-path="url(#clip830)" d="M1463.44 1533.45 L1463.44 1538.98 Q1460.96 1537.71 1458.29 1537.07 Q1455.61 1536.44 1452.75 1536.44 Q1448.39 1536.44 1446.19 1537.77 Q1444.03 1539.11 1444.03 1541.79 Q1444.03 1543.82 1445.59 1545 Q1447.15 1546.15 1451.86 1547.2 L1453.86 1547.64 Q1460.1 1548.98 1462.71 1551.43 Q1465.35 1553.85 1465.35 1558.21 Q1465.35 1563.17 1461.41 1566.07 Q1457.49 1568.97 1450.62 1568.97 Q1447.75 1568.97 1444.63 1568.39 Q1441.54 1567.85 1438.11 1566.74 L1438.11 1560.69 Q1441.35 1562.38 1444.5 1563.24 Q1447.66 1564.07 1450.74 1564.07 Q1454.88 1564.07 1457.11 1562.66 Q1459.34 1561.23 1459.34 1558.65 Q1459.34 1556.27 1457.71 1554.99 Q1456.12 1553.72 1450.68 1552.54 L1448.64 1552.07 Q1443.2 1550.92 1440.78 1548.56 Q1438.36 1546.18 1438.36 1542.04 Q1438.36 1537.01 1441.93 1534.27 Q1445.49 1531.54 1452.05 1531.54 Q1455.29 1531.54 1458.16 1532.01 Q1461.02 1532.49 1463.44 1533.45 Z" fill="#000000" fill-rule="nonzero" fill-opacity="1" /><polyline clip-path="url(#clip830)" style="stroke:#000000; stroke-linecap:round; stroke-linejoin:round; stroke-width:4; stroke-opacity:1; fill:none" points="308.87,1423.18 308.87,47.2441 "/>
<polyline clip-path="url(#clip830)" style="stroke:#000000; stroke-linecap:round; stroke-linejoin:round; stroke-width:4; stroke-opacity:1; fill:none" points="308.87,1357.63 327.768,1357.63 "/>
<polyline clip-path="url(#clip830)" style="stroke:#000000; stroke-linecap:round; stroke-linejoin:round; stroke-width:4; stroke-opacity:1; fill:none" points="308.87,1159.93 327.768,1159.93 "/>
<polyline clip-path="url(#clip830)" style="stroke:#000000; stroke-linecap:round; stroke-linejoin:round; stroke-width:4; stroke-opacity:1; fill:none" points="308.87,962.227 327.768,962.227 "/>
<polyline clip-path="url(#clip830)" style="stroke:#000000; stroke-linecap:round; stroke-linejoin:round; stroke-width:4; stroke-opacity:1; fill:none" points="308.87,764.528 327.768,764.528 "/>
<polyline clip-path="url(#clip830)" style="stroke:#000000; stroke-linecap:round; stroke-linejoin:round; stroke-width:4; stroke-opacity:1; fill:none" points="308.87,566.829 327.768,566.829 "/>
<polyline clip-path="url(#clip830)" style="stroke:#000000; stroke-linecap:round; stroke-linejoin:round; stroke-width:4; stroke-opacity:1; fill:none" points="308.87,369.13 327.768,369.13 "/>
<polyline clip-path="url(#clip830)" style="stroke:#000000; stroke-linecap:round; stroke-linejoin:round; stroke-width:4; stroke-opacity:1; fill:none" points="308.87,171.431 327.768,171.431 "/>
<path clip-path="url(#clip830)" d="M126.205 1343.42 Q122.593 1343.42 120.765 1346.99 Q118.959 1350.53 118.959 1357.66 Q118.959 1364.77 120.765 1368.33 Q122.593 1371.87 126.205 1371.87 Q129.839 1371.87 131.644 1368.33 Q133.473 1364.77 133.473 1357.66 Q133.473 1350.53 131.644 1346.99 Q129.839 1343.42 126.205 1343.42 M126.205 1339.72 Q132.015 1339.72 135.07 1344.33 Q138.149 1348.91 138.149 1357.66 Q138.149 1366.39 135.07 1370.99 Q132.015 1375.58 126.205 1375.58 Q120.394 1375.58 117.316 1370.99 Q114.26 1366.39 114.26 1357.66 Q114.26 1348.91 117.316 1344.33 Q120.394 1339.72 126.205 1339.72 Z" fill="#000000" fill-rule="nonzero" fill-opacity="1" /><path clip-path="url(#clip830)" d="M146.366 1369.03 L151.251 1369.03 L151.251 1374.91 L146.366 1374.91 L146.366 1369.03 Z" fill="#000000" fill-rule="nonzero" fill-opacity="1" /><path clip-path="url(#clip830)" d="M161.575 1374.19 L161.575 1369.93 Q163.334 1370.76 165.14 1371.2 Q166.945 1371.64 168.681 1371.64 Q173.311 1371.64 175.741 1368.54 Q178.195 1365.42 178.542 1359.07 Q177.2 1361.06 175.139 1362.13 Q173.079 1363.19 170.579 1363.19 Q165.394 1363.19 162.362 1360.07 Q159.353 1356.92 159.353 1351.48 Q159.353 1346.16 162.501 1342.94 Q165.649 1339.72 170.88 1339.72 Q176.876 1339.72 180.024 1344.33 Q183.195 1348.91 183.195 1357.66 Q183.195 1365.83 179.306 1370.72 Q175.44 1375.58 168.889 1375.58 Q167.13 1375.58 165.325 1375.23 Q163.519 1374.88 161.575 1374.19 M170.88 1359.54 Q174.028 1359.54 175.857 1357.38 Q177.709 1355.23 177.709 1351.48 Q177.709 1347.75 175.857 1345.6 Q174.028 1343.42 170.88 1343.42 Q167.732 1343.42 165.88 1345.6 Q164.052 1347.75 164.052 1351.48 Q164.052 1355.23 165.88 1357.38 Q167.732 1359.54 170.88 1359.54 Z" fill="#000000" fill-rule="nonzero" fill-opacity="1" /><path clip-path="url(#clip830)" d="M191.737 1374.19 L191.737 1369.93 Q193.496 1370.76 195.301 1371.2 Q197.107 1371.64 198.843 1371.64 Q203.473 1371.64 205.903 1368.54 Q208.357 1365.42 208.704 1359.07 Q207.362 1361.06 205.301 1362.13 Q203.241 1363.19 200.741 1363.19 Q195.556 1363.19 192.524 1360.07 Q189.514 1356.92 189.514 1351.48 Q189.514 1346.16 192.663 1342.94 Q195.811 1339.72 201.042 1339.72 Q207.037 1339.72 210.186 1344.33 Q213.357 1348.91 213.357 1357.66 Q213.357 1365.83 209.468 1370.72 Q205.602 1375.58 199.051 1375.58 Q197.292 1375.58 195.487 1375.23 Q193.681 1374.88 191.737 1374.19 M201.042 1359.54 Q204.19 1359.54 206.019 1357.38 Q207.871 1355.23 207.871 1351.48 Q207.871 1347.75 206.019 1345.6 Q204.19 1343.42 201.042 1343.42 Q197.894 1343.42 196.042 1345.6 Q194.213 1347.75 194.213 1351.48 Q194.213 1355.23 196.042 1357.38 Q197.894 1359.54 201.042 1359.54 Z" fill="#000000" fill-rule="nonzero" fill-opacity="1" /><path clip-path="url(#clip830)" d="M220.579 1340.35 L242.801 1340.35 L242.801 1342.34 L230.255 1374.91 L225.371 1374.91 L237.176 1344.28 L220.579 1344.28 L220.579 1340.35 Z" fill="#000000" fill-rule="nonzero" fill-opacity="1" /><path clip-path="url(#clip830)" d="M251.968 1340.35 L270.324 1340.35 L270.324 1344.28 L256.25 1344.28 L256.25 1352.75 Q257.269 1352.41 258.287 1352.24 Q259.306 1352.06 260.324 1352.06 Q266.111 1352.06 269.491 1355.23 Q272.87 1358.4 272.87 1363.82 Q272.87 1369.4 269.398 1372.5 Q265.926 1375.58 259.607 1375.58 Q257.431 1375.58 255.162 1375.21 Q252.917 1374.84 250.509 1374.1 L250.509 1369.4 Q252.593 1370.53 254.815 1371.09 Q257.037 1371.64 259.514 1371.64 Q263.519 1371.64 265.857 1369.54 Q268.195 1367.43 268.195 1363.82 Q268.195 1360.21 265.857 1358.1 Q263.519 1355.99 259.514 1355.99 Q257.639 1355.99 255.764 1356.41 Q253.912 1356.83 251.968 1357.71 L251.968 1340.35 Z" fill="#000000" fill-rule="nonzero" fill-opacity="1" /><path clip-path="url(#clip830)" d="M116.019 1173.27 L123.658 1173.27 L123.658 1146.91 L115.348 1148.57 L115.348 1144.31 L123.612 1142.65 L128.288 1142.65 L128.288 1173.27 L135.927 1173.27 L135.927 1177.21 L116.019 1177.21 L116.019 1173.27 Z" fill="#000000" fill-rule="nonzero" fill-opacity="1" /><path clip-path="url(#clip830)" d="M145.371 1171.33 L150.255 1171.33 L150.255 1177.21 L145.371 1177.21 L145.371 1171.33 Z" fill="#000000" fill-rule="nonzero" fill-opacity="1" /><path clip-path="url(#clip830)" d="M170.44 1145.73 Q166.829 1145.73 165.001 1149.29 Q163.195 1152.83 163.195 1159.96 Q163.195 1167.07 165.001 1170.63 Q166.829 1174.17 170.44 1174.17 Q174.075 1174.17 175.88 1170.63 Q177.709 1167.07 177.709 1159.96 Q177.709 1152.83 175.88 1149.29 Q174.075 1145.73 170.44 1145.73 M170.44 1142.02 Q176.251 1142.02 179.306 1146.63 Q182.385 1151.21 182.385 1159.96 Q182.385 1168.69 179.306 1173.29 Q176.251 1177.88 170.44 1177.88 Q164.63 1177.88 161.552 1173.29 Q158.496 1168.69 158.496 1159.96 Q158.496 1151.21 161.552 1146.63 Q164.63 1142.02 170.44 1142.02 Z" fill="#000000" fill-rule="nonzero" fill-opacity="1" /><path clip-path="url(#clip830)" d="M200.602 1145.73 Q196.991 1145.73 195.163 1149.29 Q193.357 1152.83 193.357 1159.96 Q193.357 1167.07 195.163 1170.63 Q196.991 1174.17 200.602 1174.17 Q204.237 1174.17 206.042 1170.63 Q207.871 1167.07 207.871 1159.96 Q207.871 1152.83 206.042 1149.29 Q204.237 1145.73 200.602 1145.73 M200.602 1142.02 Q206.412 1142.02 209.468 1146.63 Q212.547 1151.21 212.547 1159.96 Q212.547 1168.69 209.468 1173.29 Q206.412 1177.88 200.602 1177.88 Q194.792 1177.88 191.713 1173.29 Q188.658 1168.69 188.658 1159.96 Q188.658 1151.21 191.713 1146.63 Q194.792 1142.02 200.602 1142.02 Z" fill="#000000" fill-rule="nonzero" fill-opacity="1" /><path clip-path="url(#clip830)" d="M230.764 1145.73 Q227.153 1145.73 225.324 1149.29 Q223.519 1152.83 223.519 1159.96 Q223.519 1167.07 225.324 1170.63 Q227.153 1174.17 230.764 1174.17 Q234.398 1174.17 236.204 1170.63 Q238.033 1167.07 238.033 1159.96 Q238.033 1152.83 236.204 1149.29 Q234.398 1145.73 230.764 1145.73 M230.764 1142.02 Q236.574 1142.02 239.63 1146.63 Q242.709 1151.21 242.709 1159.96 Q242.709 1168.69 239.63 1173.29 Q236.574 1177.88 230.764 1177.88 Q224.954 1177.88 221.875 1173.29 Q218.82 1168.69 218.82 1159.96 Q218.82 1151.21 221.875 1146.63 Q224.954 1142.02 230.764 1142.02 Z" fill="#000000" fill-rule="nonzero" fill-opacity="1" /><path clip-path="url(#clip830)" d="M260.926 1145.73 Q257.315 1145.73 255.486 1149.29 Q253.681 1152.83 253.681 1159.96 Q253.681 1167.07 255.486 1170.63 Q257.315 1174.17 260.926 1174.17 Q264.56 1174.17 266.366 1170.63 Q268.195 1167.07 268.195 1159.96 Q268.195 1152.83 266.366 1149.29 Q264.56 1145.73 260.926 1145.73 M260.926 1142.02 Q266.736 1142.02 269.792 1146.63 Q272.87 1151.21 272.87 1159.96 Q272.87 1168.69 269.792 1173.29 Q266.736 1177.88 260.926 1177.88 Q255.116 1177.88 252.037 1173.29 Q248.982 1168.69 248.982 1159.96 Q248.982 1151.21 252.037 1146.63 Q255.116 1142.02 260.926 1142.02 Z" fill="#000000" fill-rule="nonzero" fill-opacity="1" /><path clip-path="url(#clip830)" d="M117.015 975.572 L124.654 975.572 L124.654 949.207 L116.343 950.873 L116.343 946.614 L124.607 944.947 L129.283 944.947 L129.283 975.572 L136.922 975.572 L136.922 979.507 L117.015 979.507 L117.015 975.572 Z" fill="#000000" fill-rule="nonzero" fill-opacity="1" /><path clip-path="url(#clip830)" d="M146.366 973.628 L151.251 973.628 L151.251 979.507 L146.366 979.507 L146.366 973.628 Z" fill="#000000" fill-rule="nonzero" fill-opacity="1" /><path clip-path="url(#clip830)" d="M171.436 948.026 Q167.825 948.026 165.996 951.591 Q164.19 955.133 164.19 962.262 Q164.19 969.369 165.996 972.933 Q167.825 976.475 171.436 976.475 Q175.07 976.475 176.876 972.933 Q178.704 969.369 178.704 962.262 Q178.704 955.133 176.876 951.591 Q175.07 948.026 171.436 948.026 M171.436 944.322 Q177.246 944.322 180.301 948.929 Q183.38 953.512 183.38 962.262 Q183.38 970.989 180.301 975.595 Q177.246 980.179 171.436 980.179 Q165.626 980.179 162.547 975.595 Q159.491 970.989 159.491 962.262 Q159.491 953.512 162.547 948.929 Q165.626 944.322 171.436 944.322 Z" fill="#000000" fill-rule="nonzero" fill-opacity="1" /><path clip-path="url(#clip830)" d="M201.598 948.026 Q197.987 948.026 196.158 951.591 Q194.352 955.133 194.352 962.262 Q194.352 969.369 196.158 972.933 Q197.987 976.475 201.598 976.475 Q205.232 976.475 207.037 972.933 Q208.866 969.369 208.866 962.262 Q208.866 955.133 207.037 951.591 Q205.232 948.026 201.598 948.026 M201.598 944.322 Q207.408 944.322 210.463 948.929 Q213.542 953.512 213.542 962.262 Q213.542 970.989 210.463 975.595 Q207.408 980.179 201.598 980.179 Q195.787 980.179 192.709 975.595 Q189.653 970.989 189.653 962.262 Q189.653 953.512 192.709 948.929 Q195.787 944.322 201.598 944.322 Z" fill="#000000" fill-rule="nonzero" fill-opacity="1" /><path clip-path="url(#clip830)" d="M225.787 975.572 L242.107 975.572 L242.107 979.507 L220.162 979.507 L220.162 975.572 Q222.824 972.818 227.408 968.188 Q232.014 963.535 233.195 962.193 Q235.44 959.67 236.32 957.933 Q237.222 956.174 237.222 954.484 Q237.222 951.73 235.278 949.994 Q233.357 948.258 230.255 948.258 Q228.056 948.258 225.602 949.021 Q223.172 949.785 220.394 951.336 L220.394 946.614 Q223.218 945.48 225.672 944.901 Q228.125 944.322 230.162 944.322 Q235.533 944.322 238.727 947.008 Q241.922 949.693 241.922 954.183 Q241.922 956.313 241.111 958.234 Q240.324 960.133 238.218 962.725 Q237.639 963.396 234.537 966.614 Q231.435 969.808 225.787 975.572 Z" fill="#000000" fill-rule="nonzero" fill-opacity="1" /><path clip-path="url(#clip830)" d="M251.968 944.947 L270.324 944.947 L270.324 948.883 L256.25 948.883 L256.25 957.355 Q257.269 957.008 258.287 956.846 Q259.306 956.66 260.324 956.66 Q266.111 956.66 269.491 959.832 Q272.87 963.003 272.87 968.42 Q272.87 973.998 269.398 977.1 Q265.926 980.179 259.607 980.179 Q257.431 980.179 255.162 979.808 Q252.917 979.438 250.509 978.697 L250.509 973.998 Q252.593 975.132 254.815 975.688 Q257.037 976.244 259.514 976.244 Q263.519 976.244 265.857 974.137 Q268.195 972.031 268.195 968.42 Q268.195 964.808 265.857 962.702 Q263.519 960.595 259.514 960.595 Q257.639 960.595 255.764 961.012 Q253.912 961.429 251.968 962.308 L251.968 944.947 Z" fill="#000000" fill-rule="nonzero" fill-opacity="1" /><path clip-path="url(#clip830)" d="M116.019 777.873 L123.658 777.873 L123.658 751.508 L115.348 753.174 L115.348 748.915 L123.612 747.248 L128.288 747.248 L128.288 777.873 L135.927 777.873 L135.927 781.808 L116.019 781.808 L116.019 777.873 Z" fill="#000000" fill-rule="nonzero" fill-opacity="1" /><path clip-path="url(#clip830)" d="M145.371 775.929 L150.255 775.929 L150.255 781.808 L145.371 781.808 L145.371 775.929 Z" fill="#000000" fill-rule="nonzero" fill-opacity="1" /><path clip-path="url(#clip830)" d="M170.44 750.327 Q166.829 750.327 165.001 753.892 Q163.195 757.433 163.195 764.563 Q163.195 771.669 165.001 775.234 Q166.829 778.776 170.44 778.776 Q174.075 778.776 175.88 775.234 Q177.709 771.669 177.709 764.563 Q177.709 757.433 175.88 753.892 Q174.075 750.327 170.44 750.327 M170.44 746.623 Q176.251 746.623 179.306 751.23 Q182.385 755.813 182.385 764.563 Q182.385 773.29 179.306 777.896 Q176.251 782.48 170.44 782.48 Q164.63 782.48 161.552 777.896 Q158.496 773.29 158.496 764.563 Q158.496 755.813 161.552 751.23 Q164.63 746.623 170.44 746.623 Z" fill="#000000" fill-rule="nonzero" fill-opacity="1" /><path clip-path="url(#clip830)" d="M200.602 750.327 Q196.991 750.327 195.163 753.892 Q193.357 757.433 193.357 764.563 Q193.357 771.669 195.163 775.234 Q196.991 778.776 200.602 778.776 Q204.237 778.776 206.042 775.234 Q207.871 771.669 207.871 764.563 Q207.871 757.433 206.042 753.892 Q204.237 750.327 200.602 750.327 M200.602 746.623 Q206.412 746.623 209.468 751.23 Q212.547 755.813 212.547 764.563 Q212.547 773.29 209.468 777.896 Q206.412 782.48 200.602 782.48 Q194.792 782.48 191.713 777.896 Q188.658 773.29 188.658 764.563 Q188.658 755.813 191.713 751.23 Q194.792 746.623 200.602 746.623 Z" fill="#000000" fill-rule="nonzero" fill-opacity="1" /><path clip-path="url(#clip830)" d="M220.811 747.248 L239.167 747.248 L239.167 751.183 L225.093 751.183 L225.093 759.656 Q226.111 759.308 227.13 759.146 Q228.148 758.961 229.167 758.961 Q234.954 758.961 238.334 762.132 Q241.713 765.304 241.713 770.72 Q241.713 776.299 238.241 779.401 Q234.769 782.48 228.449 782.48 Q226.273 782.48 224.005 782.109 Q221.76 781.739 219.352 780.998 L219.352 776.299 Q221.436 777.433 223.658 777.989 Q225.88 778.544 228.357 778.544 Q232.361 778.544 234.699 776.438 Q237.037 774.331 237.037 770.72 Q237.037 767.109 234.699 765.003 Q232.361 762.896 228.357 762.896 Q226.482 762.896 224.607 763.313 Q222.755 763.73 220.811 764.609 L220.811 747.248 Z" fill="#000000" fill-rule="nonzero" fill-opacity="1" /><path clip-path="url(#clip830)" d="M260.926 750.327 Q257.315 750.327 255.486 753.892 Q253.681 757.433 253.681 764.563 Q253.681 771.669 255.486 775.234 Q257.315 778.776 260.926 778.776 Q264.56 778.776 266.366 775.234 Q268.195 771.669 268.195 764.563 Q268.195 757.433 266.366 753.892 Q264.56 750.327 260.926 750.327 M260.926 746.623 Q266.736 746.623 269.792 751.23 Q272.87 755.813 272.87 764.563 Q272.87 773.29 269.792 777.896 Q266.736 782.48 260.926 782.48 Q255.116 782.48 252.037 777.896 Q248.982 773.29 248.982 764.563 Q248.982 755.813 252.037 751.23 Q255.116 746.623 260.926 746.623 Z" fill="#000000" fill-rule="nonzero" fill-opacity="1" /><path clip-path="url(#clip830)" d="M117.015 580.174 L124.654 580.174 L124.654 553.808 L116.343 555.475 L116.343 551.216 L124.607 549.549 L129.283 549.549 L129.283 580.174 L136.922 580.174 L136.922 584.109 L117.015 584.109 L117.015 580.174 Z" fill="#000000" fill-rule="nonzero" fill-opacity="1" /><path clip-path="url(#clip830)" d="M146.366 578.23 L151.251 578.23 L151.251 584.109 L146.366 584.109 L146.366 578.23 Z" fill="#000000" fill-rule="nonzero" fill-opacity="1" /><path clip-path="url(#clip830)" d="M171.436 552.628 Q167.825 552.628 165.996 556.193 Q164.19 559.734 164.19 566.864 Q164.19 573.97 165.996 577.535 Q167.825 581.077 171.436 581.077 Q175.07 581.077 176.876 577.535 Q178.704 573.97 178.704 566.864 Q178.704 559.734 176.876 556.193 Q175.07 552.628 171.436 552.628 M171.436 548.924 Q177.246 548.924 180.301 553.531 Q183.38 558.114 183.38 566.864 Q183.38 575.591 180.301 580.197 Q177.246 584.78 171.436 584.78 Q165.626 584.78 162.547 580.197 Q159.491 575.591 159.491 566.864 Q159.491 558.114 162.547 553.531 Q165.626 548.924 171.436 548.924 Z" fill="#000000" fill-rule="nonzero" fill-opacity="1" /><path clip-path="url(#clip830)" d="M201.598 552.628 Q197.987 552.628 196.158 556.193 Q194.352 559.734 194.352 566.864 Q194.352 573.97 196.158 577.535 Q197.987 581.077 201.598 581.077 Q205.232 581.077 207.037 577.535 Q208.866 573.97 208.866 566.864 Q208.866 559.734 207.037 556.193 Q205.232 552.628 201.598 552.628 M201.598 548.924 Q207.408 548.924 210.463 553.531 Q213.542 558.114 213.542 566.864 Q213.542 575.591 210.463 580.197 Q207.408 584.78 201.598 584.78 Q195.787 584.78 192.709 580.197 Q189.653 575.591 189.653 566.864 Q189.653 558.114 192.709 553.531 Q195.787 548.924 201.598 548.924 Z" fill="#000000" fill-rule="nonzero" fill-opacity="1" /><path clip-path="url(#clip830)" d="M220.579 549.549 L242.801 549.549 L242.801 551.54 L230.255 584.109 L225.371 584.109 L237.176 553.484 L220.579 553.484 L220.579 549.549 Z" fill="#000000" fill-rule="nonzero" fill-opacity="1" /><path clip-path="url(#clip830)" d="M251.968 549.549 L270.324 549.549 L270.324 553.484 L256.25 553.484 L256.25 561.956 Q257.269 561.609 258.287 561.447 Q259.306 561.262 260.324 561.262 Q266.111 561.262 269.491 564.433 Q272.87 567.605 272.87 573.021 Q272.87 578.6 269.398 581.702 Q265.926 584.78 259.607 584.78 Q257.431 584.78 255.162 584.41 Q252.917 584.04 250.509 583.299 L250.509 578.6 Q252.593 579.734 254.815 580.29 Q257.037 580.845 259.514 580.845 Q263.519 580.845 265.857 578.739 Q268.195 576.632 268.195 573.021 Q268.195 569.41 265.857 567.304 Q263.519 565.197 259.514 565.197 Q257.639 565.197 255.764 565.614 Q253.912 566.031 251.968 566.91 L251.968 549.549 Z" fill="#000000" fill-rule="nonzero" fill-opacity="1" /><path clip-path="url(#clip830)" d="M116.019 382.475 L123.658 382.475 L123.658 356.109 L115.348 357.776 L115.348 353.517 L123.612 351.85 L128.288 351.85 L128.288 382.475 L135.927 382.475 L135.927 386.41 L116.019 386.41 L116.019 382.475 Z" fill="#000000" fill-rule="nonzero" fill-opacity="1" /><path clip-path="url(#clip830)" d="M145.371 380.53 L150.255 380.53 L150.255 386.41 L145.371 386.41 L145.371 380.53 Z" fill="#000000" fill-rule="nonzero" fill-opacity="1" /><path clip-path="url(#clip830)" d="M170.44 354.929 Q166.829 354.929 165.001 358.493 Q163.195 362.035 163.195 369.165 Q163.195 376.271 165.001 379.836 Q166.829 383.378 170.44 383.378 Q174.075 383.378 175.88 379.836 Q177.709 376.271 177.709 369.165 Q177.709 362.035 175.88 358.493 Q174.075 354.929 170.44 354.929 M170.44 351.225 Q176.251 351.225 179.306 355.831 Q182.385 360.415 182.385 369.165 Q182.385 377.892 179.306 382.498 Q176.251 387.081 170.44 387.081 Q164.63 387.081 161.552 382.498 Q158.496 377.892 158.496 369.165 Q158.496 360.415 161.552 355.831 Q164.63 351.225 170.44 351.225 Z" fill="#000000" fill-rule="nonzero" fill-opacity="1" /><path clip-path="url(#clip830)" d="M191.413 382.475 L199.051 382.475 L199.051 356.109 L190.741 357.776 L190.741 353.517 L199.005 351.85 L203.681 351.85 L203.681 382.475 L211.32 382.475 L211.32 386.41 L191.413 386.41 L191.413 382.475 Z" fill="#000000" fill-rule="nonzero" fill-opacity="1" /><path clip-path="url(#clip830)" d="M230.764 354.929 Q227.153 354.929 225.324 358.493 Q223.519 362.035 223.519 369.165 Q223.519 376.271 225.324 379.836 Q227.153 383.378 230.764 383.378 Q234.398 383.378 236.204 379.836 Q238.033 376.271 238.033 369.165 Q238.033 362.035 236.204 358.493 Q234.398 354.929 230.764 354.929 M230.764 351.225 Q236.574 351.225 239.63 355.831 Q242.709 360.415 242.709 369.165 Q242.709 377.892 239.63 382.498 Q236.574 387.081 230.764 387.081 Q224.954 387.081 221.875 382.498 Q218.82 377.892 218.82 369.165 Q218.82 360.415 221.875 355.831 Q224.954 351.225 230.764 351.225 Z" fill="#000000" fill-rule="nonzero" fill-opacity="1" /><path clip-path="url(#clip830)" d="M260.926 354.929 Q257.315 354.929 255.486 358.493 Q253.681 362.035 253.681 369.165 Q253.681 376.271 255.486 379.836 Q257.315 383.378 260.926 383.378 Q264.56 383.378 266.366 379.836 Q268.195 376.271 268.195 369.165 Q268.195 362.035 266.366 358.493 Q264.56 354.929 260.926 354.929 M260.926 351.225 Q266.736 351.225 269.792 355.831 Q272.87 360.415 272.87 369.165 Q272.87 377.892 269.792 382.498 Q266.736 387.081 260.926 387.081 Q255.116 387.081 252.037 382.498 Q248.982 377.892 248.982 369.165 Q248.982 360.415 252.037 355.831 Q255.116 351.225 260.926 351.225 Z" fill="#000000" fill-rule="nonzero" fill-opacity="1" /><path clip-path="url(#clip830)" d="M117.015 184.776 L124.654 184.776 L124.654 158.41 L116.343 160.077 L116.343 155.818 L124.607 154.151 L129.283 154.151 L129.283 184.776 L136.922 184.776 L136.922 188.711 L117.015 188.711 L117.015 184.776 Z" fill="#000000" fill-rule="nonzero" fill-opacity="1" /><path clip-path="url(#clip830)" d="M146.366 182.831 L151.251 182.831 L151.251 188.711 L146.366 188.711 L146.366 182.831 Z" fill="#000000" fill-rule="nonzero" fill-opacity="1" /><path clip-path="url(#clip830)" d="M171.436 157.23 Q167.825 157.23 165.996 160.794 Q164.19 164.336 164.19 171.466 Q164.19 178.572 165.996 182.137 Q167.825 185.678 171.436 185.678 Q175.07 185.678 176.876 182.137 Q178.704 178.572 178.704 171.466 Q178.704 164.336 176.876 160.794 Q175.07 157.23 171.436 157.23 M171.436 153.526 Q177.246 153.526 180.301 158.132 Q183.38 162.716 183.38 171.466 Q183.38 180.192 180.301 184.799 Q177.246 189.382 171.436 189.382 Q165.626 189.382 162.547 184.799 Q159.491 180.192 159.491 171.466 Q159.491 162.716 162.547 158.132 Q165.626 153.526 171.436 153.526 Z" fill="#000000" fill-rule="nonzero" fill-opacity="1" /><path clip-path="url(#clip830)" d="M192.408 184.776 L200.047 184.776 L200.047 158.41 L191.737 160.077 L191.737 155.818 L200 154.151 L204.676 154.151 L204.676 184.776 L212.315 184.776 L212.315 188.711 L192.408 188.711 L192.408 184.776 Z" fill="#000000" fill-rule="nonzero" fill-opacity="1" /><path clip-path="url(#clip830)" d="M225.787 184.776 L242.107 184.776 L242.107 188.711 L220.162 188.711 L220.162 184.776 Q222.824 182.021 227.408 177.391 Q232.014 172.739 233.195 171.396 Q235.44 168.873 236.32 167.137 Q237.222 165.378 237.222 163.688 Q237.222 160.933 235.278 159.197 Q233.357 157.461 230.255 157.461 Q228.056 157.461 225.602 158.225 Q223.172 158.989 220.394 160.54 L220.394 155.818 Q223.218 154.683 225.672 154.105 Q228.125 153.526 230.162 153.526 Q235.533 153.526 238.727 156.211 Q241.922 158.896 241.922 163.387 Q241.922 165.517 241.111 167.438 Q240.324 169.336 238.218 171.929 Q237.639 172.6 234.537 175.817 Q231.435 179.012 225.787 184.776 Z" fill="#000000" fill-rule="nonzero" fill-opacity="1" /><path clip-path="url(#clip830)" d="M251.968 154.151 L270.324 154.151 L270.324 158.086 L256.25 158.086 L256.25 166.558 Q257.269 166.211 258.287 166.049 Q259.306 165.864 260.324 165.864 Q266.111 165.864 269.491 169.035 Q272.87 172.206 272.87 177.623 Q272.87 183.202 269.398 186.303 Q265.926 189.382 259.607 189.382 Q257.431 189.382 255.162 189.012 Q252.917 188.641 250.509 187.901 L250.509 183.202 Q252.593 184.336 254.815 184.891 Q257.037 185.447 259.514 185.447 Q263.519 185.447 265.857 183.341 Q268.195 181.234 268.195 177.623 Q268.195 174.012 265.857 171.905 Q263.519 169.799 259.514 169.799 Q257.639 169.799 255.764 170.216 Q253.912 170.632 251.968 171.512 L251.968 154.151 Z" fill="#000000" fill-rule="nonzero" fill-opacity="1" /><path clip-path="url(#clip830)" d="M57.2247 896.821 L44.4614 896.821 L44.4614 907.325 L39.1779 907.325 L39.1779 890.456 L59.58 890.456 Q62.2218 894.18 63.5904 898.667 Q64.9272 903.155 64.9272 908.248 Q64.9272 919.388 58.4342 925.69 Q51.9093 931.96 40.2919 931.96 Q28.6427 931.96 22.1496 925.69 Q15.6248 919.388 15.6248 908.248 Q15.6248 903.601 16.7706 899.431 Q17.9164 895.23 20.1444 891.697 L26.9876 891.697 Q23.9639 895.262 22.4361 899.272 Q20.9083 903.283 20.9083 907.707 Q20.9083 916.428 25.7781 920.82 Q30.6479 925.181 40.2919 925.181 Q49.9041 925.181 54.7739 920.82 Q59.6436 916.428 59.6436 907.707 Q59.6436 904.301 59.0707 901.627 Q58.466 898.954 57.2247 896.821 Z" fill="#000000" fill-rule="nonzero" fill-opacity="1" /><path clip-path="url(#clip830)" d="M21.7677 872.282 L58.7206 872.282 L58.7206 864.515 Q58.7206 854.68 54.2646 850.129 Q49.8086 845.546 40.1964 845.546 Q30.6479 845.546 26.2237 850.129 Q21.7677 854.68 21.7677 864.515 L21.7677 872.282 M16.4842 878.711 L16.4842 865.502 Q16.4842 851.688 22.2451 845.227 Q27.9743 838.766 40.1964 838.766 Q52.4822 838.766 58.2432 845.259 Q64.0042 851.752 64.0042 865.502 L64.0042 878.711 L16.4842 878.711 Z" fill="#000000" fill-rule="nonzero" fill-opacity="1" /><path clip-path="url(#clip830)" d="M21.7677 822.088 L39.6235 822.088 L39.6235 814.004 Q39.6235 809.516 37.3 807.065 Q34.9765 804.614 30.6797 804.614 Q26.4147 804.614 24.0912 807.065 Q21.7677 809.516 21.7677 814.004 L21.7677 822.088 M16.4842 828.517 L16.4842 814.004 Q16.4842 806.015 20.1126 801.94 Q23.7092 797.835 30.6797 797.835 Q37.7138 797.835 41.3104 801.94 Q44.907 806.015 44.907 814.004 L44.907 822.088 L64.0042 822.088 L64.0042 828.517 L16.4842 828.517 Z" fill="#000000" fill-rule="nonzero" fill-opacity="1" /><path clip-path="url(#clip830)" d="M29.7248 743.09 L35.1993 743.09 Q33.8307 745.572 33.1623 748.087 Q32.4621 750.569 32.4621 753.116 Q32.4621 758.813 36.0905 761.964 Q39.6872 765.115 46.212 765.115 Q52.7369 765.115 56.3653 761.964 Q59.9619 758.813 59.9619 753.116 Q59.9619 750.569 59.2935 748.087 Q58.5933 745.572 57.2247 743.09 L62.6355 743.09 Q63.7814 745.54 64.3543 748.182 Q64.9272 750.792 64.9272 753.752 Q64.9272 761.805 59.8664 766.547 Q54.8057 771.29 46.212 771.29 Q37.491 771.29 32.4939 766.515 Q27.4968 761.709 27.4968 753.37 Q27.4968 750.665 28.0697 748.087 Q28.6108 745.508 29.7248 743.09 Z" fill="#000000" fill-rule="nonzero" fill-opacity="1" /><path clip-path="url(#clip830)" d="M42.4881 703.272 L64.0042 703.272 L64.0042 709.128 L42.679 709.128 Q37.6183 709.128 35.1038 711.102 Q32.5894 713.075 32.5894 717.022 Q32.5894 721.764 35.6131 724.502 Q38.6368 727.239 43.8567 727.239 L64.0042 727.239 L64.0042 733.127 L14.479 733.127 L14.479 727.239 L33.8944 727.239 Q30.6797 725.138 29.0883 722.305 Q27.4968 719.441 27.4968 715.717 Q27.4968 709.574 31.3163 706.423 Q35.1038 703.272 42.4881 703.272 Z" fill="#000000" fill-rule="nonzero" fill-opacity="1" /><path clip-path="url(#clip830)" d="M46.0847 675.39 Q46.0847 682.488 47.7079 685.225 Q49.3312 687.963 53.2461 687.963 Q56.3653 687.963 58.2114 685.925 Q60.0256 683.857 60.0256 680.324 Q60.0256 675.454 56.5881 672.526 Q53.1188 669.566 47.3897 669.566 L46.0847 669.566 L46.0847 675.39 M43.6657 663.709 L64.0042 663.709 L64.0042 669.566 L58.5933 669.566 Q61.8398 671.571 63.3994 674.563 Q64.9272 677.555 64.9272 681.883 Q64.9272 687.358 61.8716 690.604 Q58.7843 693.819 53.6281 693.819 Q47.6125 693.819 44.5569 689.809 Q41.5014 685.766 41.5014 677.777 L41.5014 669.566 L40.9285 669.566 Q36.8862 669.566 34.6901 672.239 Q32.4621 674.881 32.4621 679.687 Q32.4621 682.743 33.1941 685.639 Q33.9262 688.535 35.3903 691.209 L29.9795 691.209 Q28.7381 687.994 28.1334 684.971 Q27.4968 681.947 27.4968 679.082 Q27.4968 671.348 31.5072 667.529 Q35.5176 663.709 43.6657 663.709 Z" fill="#000000" fill-rule="nonzero" fill-opacity="1" /><path clip-path="url(#clip830)" d="M42.4881 622.014 L64.0042 622.014 L64.0042 627.87 L42.679 627.87 Q37.6183 627.87 35.1038 629.844 Q32.5894 631.817 32.5894 635.764 Q32.5894 640.506 35.6131 643.243 Q38.6368 645.981 43.8567 645.981 L64.0042 645.981 L64.0042 651.869 L28.3562 651.869 L28.3562 645.981 L33.8944 645.981 Q30.6797 643.88 29.0883 641.047 Q27.4968 638.183 27.4968 634.459 Q27.4968 628.316 31.3163 625.165 Q35.1038 622.014 42.4881 622.014 Z" fill="#000000" fill-rule="nonzero" fill-opacity="1" /><path clip-path="url(#clip830)" d="M45.7664 586.875 Q39.4007 586.875 35.8996 589.517 Q32.3984 592.127 32.3984 596.869 Q32.3984 601.58 35.8996 604.222 Q39.4007 606.832 45.7664 606.832 Q52.1003 606.832 55.6014 604.222 Q59.1026 601.58 59.1026 596.869 Q59.1026 592.127 55.6014 589.517 Q52.1003 586.875 45.7664 586.875 M59.58 581.019 Q68.683 581.019 73.1071 585.061 Q77.5631 589.103 77.5631 597.442 Q77.5631 600.53 77.0857 603.267 Q76.6401 606.004 75.6852 608.582 L69.9879 608.582 Q71.3884 606.004 72.0568 603.49 Q72.7252 600.975 72.7252 598.365 Q72.7252 592.604 69.7015 589.74 Q66.7096 586.875 60.6303 586.875 L57.7339 586.875 Q60.885 588.689 62.4446 591.522 Q64.0042 594.355 64.0042 598.302 Q64.0042 604.858 59.0071 608.869 Q54.01 612.879 45.7664 612.879 Q37.491 612.879 32.4939 608.869 Q27.4968 604.858 27.4968 598.302 Q27.4968 594.355 29.0564 591.522 Q30.616 588.689 33.7671 586.875 L28.3562 586.875 L28.3562 581.019 L59.58 581.019 Z" fill="#000000" fill-rule="nonzero" fill-opacity="1" /><path clip-path="url(#clip830)" d="M44.7161 538.464 L47.5806 538.464 L47.5806 565.391 Q53.6281 565.009 56.8109 561.762 Q59.9619 558.484 59.9619 552.659 Q59.9619 549.286 59.1344 546.135 Q58.3069 542.952 56.6518 539.833 L62.1899 539.833 Q63.5267 542.984 64.227 546.294 Q64.9272 549.604 64.9272 553.01 Q64.9272 561.54 59.9619 566.537 Q54.9967 571.502 46.5303 571.502 Q37.7774 571.502 32.6531 566.791 Q27.4968 562.049 27.4968 554.028 Q27.4968 546.835 32.1438 542.665 Q36.7589 538.464 44.7161 538.464 M42.9973 544.32 Q38.1912 544.384 35.3266 547.026 Q32.4621 549.636 32.4621 553.964 Q32.4621 558.866 35.2312 561.826 Q38.0002 564.754 43.0292 565.2 L42.9973 544.32 Z" fill="#000000" fill-rule="nonzero" fill-opacity="1" /><path clip-path="url(#clip832)" d="M366.716 1159.93 L487.228 1184.68 L607.74 833.655 L728.253 615.286 L848.765 415.074 L969.277 644.32 L1089.79 589.632 L1210.3 813.437 L1330.81 995.165 L1451.33 997.676 L1571.84 1150.63 L1692.35 1140.18 L1812.86 1256.39 L1933.37 1203.87 L2053.89 1155.71 L2174.4 1303.24 L2294.91 1384.24 L2294.91 626.951 L2174.4 580.74 L2053.89 423.487 L1933.37 530.143 L1812.86 640.75 L1692.35 550.914 L1571.84 569.737 L1451.33 502.492 L1330.81 543.586 L1210.3 391.157 L1089.79 192.649 L969.277 272.564 L848.765 86.1857 L728.253 309.559 L607.74 580.777 L487.228 989.718 L366.716 1159.93  Z" fill="#009af9" fill-rule="evenodd" fill-opacity="0.2"/>
<polyline clip-path="url(#clip832)" style="stroke:#009af9; stroke-linecap:round; stroke-linejoin:round; stroke-width:4; stroke-opacity:1; fill:none" points="366.716,1159.93 487.228,1087.2 607.74,707.216 728.253,462.422 848.765,250.63 969.277,458.442 1089.79,391.141 1210.3,602.297 1330.81,769.375 1451.33,750.084 1571.84,860.182 1692.35,845.545 1812.86,948.569 1933.37,867.006 2053.89,789.6 2174.4,941.991 2294.91,1005.59 "/>
</svg>
