<?xml version="1.0" encoding="utf-8"?>
<svg xmlns="http://www.w3.org/2000/svg" xmlns:xlink="http://www.w3.org/1999/xlink" width="600" height="300" viewBox="0 0 2400 1200">
<defs>
  <clipPath id="clip700">
    <rect x="0" y="0" width="2400" height="1200"/>
  </clipPath>
</defs>
<path clip-path="url(#clip700)" d="M0 1200 L2400 1200 L2400 0 L0 0  Z" fill="#ffffff" fill-rule="evenodd" fill-opacity="1"/>
<defs>
  <clipPath id="clip701">
    <rect x="480" y="0" width="1681" height="1200"/>
  </clipPath>
</defs>
<path clip-path="url(#clip700)" d="M216.436 1099.09 L1168.92 1099.09 L1168.92 92.1521 L216.436 92.1521  Z" fill="#ffffff" fill-rule="evenodd" fill-opacity="1"/>
<defs>
  <clipPath id="clip702">
    <rect x="216" y="92" width="953" height="1008"/>
  </clipPath>
</defs>
<polyline clip-path="url(#clip702)" style="stroke:#000000; stroke-linecap:round; stroke-linejoin:round; stroke-width:2; stroke-opacity:0.1; fill:none" points="414.55,1099.09 414.55,92.1521 "/>
<polyline clip-path="url(#clip702)" style="stroke:#000000; stroke-linecap:round; stroke-linejoin:round; stroke-width:2; stroke-opacity:0.1; fill:none" points="628.496,1099.09 628.496,92.1521 "/>
<polyline clip-path="url(#clip702)" style="stroke:#000000; stroke-linecap:round; stroke-linejoin:round; stroke-width:2; stroke-opacity:0.1; fill:none" points="842.443,1099.09 842.443,92.1521 "/>
<polyline clip-path="url(#clip702)" style="stroke:#000000; stroke-linecap:round; stroke-linejoin:round; stroke-width:2; stroke-opacity:0.1; fill:none" points="1056.39,1099.09 1056.39,92.1521 "/>
<polyline clip-path="url(#clip702)" style="stroke:#000000; stroke-linecap:round; stroke-linejoin:round; stroke-width:2; stroke-opacity:0.1; fill:none" points="216.436,1095.95 1168.92,1095.95 "/>
<polyline clip-path="url(#clip702)" style="stroke:#000000; stroke-linecap:round; stroke-linejoin:round; stroke-width:2; stroke-opacity:0.1; fill:none" points="216.436,852.122 1168.92,852.122 "/>
<polyline clip-path="url(#clip702)" style="stroke:#000000; stroke-linecap:round; stroke-linejoin:round; stroke-width:2; stroke-opacity:0.1; fill:none" points="216.436,608.298 1168.92,608.298 "/>
<polyline clip-path="url(#clip702)" style="stroke:#000000; stroke-linecap:round; stroke-linejoin:round; stroke-width:2; stroke-opacity:0.1; fill:none" points="216.436,364.474 1168.92,364.474 "/>
<polyline clip-path="url(#clip702)" style="stroke:#000000; stroke-linecap:round; stroke-linejoin:round; stroke-width:2; stroke-opacity:0.1; fill:none" points="216.436,120.65 1168.92,120.65 "/>
<polyline clip-path="url(#clip700)" style="stroke:#000000; stroke-linecap:round; stroke-linejoin:round; stroke-width:4; stroke-opacity:1; fill:none" points="216.436,1099.09 1168.92,1099.09 "/>
<polyline clip-path="url(#clip700)" style="stroke:#000000; stroke-linecap:round; stroke-linejoin:round; stroke-width:4; stroke-opacity:1; fill:none" points="414.55,1099.09 414.55,1080.19 "/>
<polyline clip-path="url(#clip700)" style="stroke:#000000; stroke-linecap:round; stroke-linejoin:round; stroke-width:4; stroke-opacity:1; fill:none" points="628.496,1099.09 628.496,1080.19 "/>
<polyline clip-path="url(#clip700)" style="stroke:#000000; stroke-linecap:round; stroke-linejoin:round; stroke-width:4; stroke-opacity:1; fill:none" points="842.443,1099.09 842.443,1080.19 "/>
<polyline clip-path="url(#clip700)" style="stroke:#000000; stroke-linecap:round; stroke-linejoin:round; stroke-width:4; stroke-opacity:1; fill:none" points="1056.39,1099.09 1056.39,1080.19 "/>
<path clip-path="url(#clip700)" d="M404.828 1126.93 L423.184 1126.93 L423.184 1130.86 L409.11 1130.86 L409.11 1139.34 Q410.129 1138.99 411.147 1138.83 Q412.166 1138.64 413.184 1138.64 Q418.971 1138.64 422.351 1141.81 Q425.731 1144.98 425.731 1150.4 Q425.731 1155.98 422.258 1159.08 Q418.786 1162.16 412.467 1162.16 Q410.291 1162.16 408.022 1161.79 Q405.777 1161.42 403.37 1160.68 L403.37 1155.98 Q405.453 1157.11 407.675 1157.67 Q409.897 1158.22 412.374 1158.22 Q416.379 1158.22 418.717 1156.12 Q421.055 1154.01 421.055 1150.4 Q421.055 1146.79 418.717 1144.68 Q416.379 1142.58 412.374 1142.58 Q410.499 1142.58 408.624 1142.99 Q406.772 1143.41 404.828 1144.29 L404.828 1126.93 Z" fill="#000000" fill-rule="nonzero" fill-opacity="1" /><path clip-path="url(#clip700)" d="M603.184 1157.55 L610.823 1157.55 L610.823 1131.19 L602.513 1132.85 L602.513 1128.59 L610.777 1126.93 L615.453 1126.93 L615.453 1157.55 L623.091 1157.55 L623.091 1161.49 L603.184 1161.49 L603.184 1157.55 Z" fill="#000000" fill-rule="nonzero" fill-opacity="1" /><path clip-path="url(#clip700)" d="M642.536 1130.01 Q638.925 1130.01 637.096 1133.57 Q635.29 1137.11 635.29 1144.24 Q635.29 1151.35 637.096 1154.91 Q638.925 1158.46 642.536 1158.46 Q646.17 1158.46 647.976 1154.91 Q649.804 1151.35 649.804 1144.24 Q649.804 1137.11 647.976 1133.57 Q646.17 1130.01 642.536 1130.01 M642.536 1126.3 Q648.346 1126.3 651.401 1130.91 Q654.48 1135.49 654.48 1144.24 Q654.48 1152.97 651.401 1157.58 Q648.346 1162.16 642.536 1162.16 Q636.726 1162.16 633.647 1157.58 Q630.591 1152.97 630.591 1144.24 Q630.591 1135.49 633.647 1130.91 Q636.726 1126.3 642.536 1126.3 Z" fill="#000000" fill-rule="nonzero" fill-opacity="1" /><path clip-path="url(#clip700)" d="M817.628 1157.55 L825.267 1157.55 L825.267 1131.19 L816.957 1132.85 L816.957 1128.59 L825.221 1126.93 L829.897 1126.93 L829.897 1157.55 L837.535 1157.55 L837.535 1161.49 L817.628 1161.49 L817.628 1157.55 Z" fill="#000000" fill-rule="nonzero" fill-opacity="1" /><path clip-path="url(#clip700)" d="M847.026 1126.93 L865.382 1126.93 L865.382 1130.86 L851.308 1130.86 L851.308 1139.34 Q852.327 1138.99 853.345 1138.83 Q854.364 1138.64 855.382 1138.64 Q861.169 1138.64 864.549 1141.81 Q867.929 1144.98 867.929 1150.4 Q867.929 1155.98 864.457 1159.08 Q860.984 1162.16 854.665 1162.16 Q852.489 1162.16 850.22 1161.79 Q847.975 1161.42 845.568 1160.68 L845.568 1155.98 Q847.651 1157.11 849.873 1157.67 Q852.095 1158.22 854.572 1158.22 Q858.577 1158.22 860.915 1156.12 Q863.253 1154.01 863.253 1150.4 Q863.253 1146.79 860.915 1144.68 Q858.577 1142.58 854.572 1142.58 Q852.697 1142.58 850.822 1142.99 Q848.97 1143.41 847.026 1144.29 L847.026 1126.93 Z" fill="#000000" fill-rule="nonzero" fill-opacity="1" /><path clip-path="url(#clip700)" d="M1035.16 1157.55 L1051.48 1157.55 L1051.48 1161.49 L1029.54 1161.49 L1029.54 1157.55 Q1032.2 1154.8 1036.78 1150.17 Q1041.39 1145.52 1042.57 1144.17 Q1044.82 1141.65 1045.69 1139.91 Q1046.6 1138.15 1046.6 1136.46 Q1046.6 1133.71 1044.65 1131.97 Q1042.73 1130.24 1039.63 1130.24 Q1037.43 1130.24 1034.98 1131 Q1032.55 1131.77 1029.77 1133.32 L1029.77 1128.59 Q1032.59 1127.46 1035.05 1126.88 Q1037.5 1126.3 1039.54 1126.3 Q1044.91 1126.3 1048.1 1128.99 Q1051.3 1131.67 1051.3 1136.16 Q1051.3 1138.29 1050.49 1140.21 Q1049.7 1142.11 1047.59 1144.71 Q1047.01 1145.38 1043.91 1148.59 Q1040.81 1151.79 1035.16 1157.55 Z" fill="#000000" fill-rule="nonzero" fill-opacity="1" /><path clip-path="url(#clip700)" d="M1071.3 1130.01 Q1067.69 1130.01 1065.86 1133.57 Q1064.05 1137.11 1064.05 1144.24 Q1064.05 1151.35 1065.86 1154.91 Q1067.69 1158.46 1071.3 1158.46 Q1074.93 1158.46 1076.74 1154.91 Q1078.56 1151.35 1078.56 1144.24 Q1078.56 1137.11 1076.74 1133.57 Q1074.93 1130.01 1071.3 1130.01 M1071.3 1126.3 Q1077.11 1126.3 1080.16 1130.91 Q1083.24 1135.49 1083.24 1144.24 Q1083.24 1152.97 1080.16 1157.58 Q1077.11 1162.16 1071.3 1162.16 Q1065.49 1162.16 1062.41 1157.58 Q1059.35 1152.97 1059.35 1144.24 Q1059.35 1135.49 1062.41 1130.91 Q1065.49 1126.3 1071.3 1126.3 Z" fill="#000000" fill-rule="nonzero" fill-opacity="1" /><polyline clip-path="url(#clip700)" style="stroke:#000000; stroke-linecap:round; stroke-linejoin:round; stroke-width:4; stroke-opacity:1; fill:none" points="216.436,1099.09 216.436,92.1521 "/>
<polyline clip-path="url(#clip700)" style="stroke:#000000; stroke-linecap:round; stroke-linejoin:round; stroke-width:4; stroke-opacity:1; fill:none" points="216.436,1095.95 235.334,1095.95 "/>
<polyline clip-path="url(#clip700)" style="stroke:#000000; stroke-linecap:round; stroke-linejoin:round; stroke-width:4; stroke-opacity:1; fill:none" points="216.436,852.122 235.334,852.122 "/>
<polyline clip-path="url(#clip700)" style="stroke:#000000; stroke-linecap:round; stroke-linejoin:round; stroke-width:4; stroke-opacity:1; fill:none" points="216.436,608.298 235.334,608.298 "/>
<polyline clip-path="url(#clip700)" style="stroke:#000000; stroke-linecap:round; stroke-linejoin:round; stroke-width:4; stroke-opacity:1; fill:none" points="216.436,364.474 235.334,364.474 "/>
<polyline clip-path="url(#clip700)" style="stroke:#000000; stroke-linecap:round; stroke-linejoin:round; stroke-width:4; stroke-opacity:1; fill:none" points="216.436,120.65 235.334,120.65 "/>
<path clip-path="url(#clip700)" d="M62.9365 1081.74 Q59.3254 1081.74 57.4967 1085.31 Q55.6912 1088.85 55.6912 1095.98 Q55.6912 1103.09 57.4967 1106.65 Q59.3254 1110.19 62.9365 1110.19 Q66.5707 1110.19 68.3763 1106.65 Q70.205 1103.09 70.205 1095.98 Q70.205 1088.85 68.3763 1085.31 Q66.5707 1081.74 62.9365 1081.74 M62.9365 1078.04 Q68.7467 1078.04 71.8022 1082.65 Q74.8809 1087.23 74.8809 1095.98 Q74.8809 1104.71 71.8022 1109.31 Q68.7467 1113.9 62.9365 1113.9 Q57.1264 1113.9 54.0477 1109.31 Q50.9921 1104.71 50.9921 1095.98 Q50.9921 1087.23 54.0477 1082.65 Q57.1264 1078.04 62.9365 1078.04 Z" fill="#000000" fill-rule="nonzero" fill-opacity="1" /><path clip-path="url(#clip700)" d="M83.0984 1107.35 L87.9827 1107.35 L87.9827 1113.23 L83.0984 1113.23 L83.0984 1107.35 Z" fill="#000000" fill-rule="nonzero" fill-opacity="1" /><path clip-path="url(#clip700)" d="M108.168 1081.74 Q104.557 1081.74 102.728 1085.31 Q100.922 1088.85 100.922 1095.98 Q100.922 1103.09 102.728 1106.65 Q104.557 1110.19 108.168 1110.19 Q111.802 1110.19 113.608 1106.65 Q115.436 1103.09 115.436 1095.98 Q115.436 1088.85 113.608 1085.31 Q111.802 1081.74 108.168 1081.74 M108.168 1078.04 Q113.978 1078.04 117.033 1082.65 Q120.112 1087.23 120.112 1095.98 Q120.112 1104.71 117.033 1109.31 Q113.978 1113.9 108.168 1113.9 Q102.358 1113.9 99.2789 1109.31 Q96.2234 1104.71 96.2234 1095.98 Q96.2234 1087.23 99.2789 1082.65 Q102.358 1078.04 108.168 1078.04 Z" fill="#000000" fill-rule="nonzero" fill-opacity="1" /><path clip-path="url(#clip700)" d="M138.33 1081.74 Q134.719 1081.74 132.89 1085.31 Q131.084 1088.85 131.084 1095.98 Q131.084 1103.09 132.89 1106.65 Q134.719 1110.19 138.33 1110.19 Q141.964 1110.19 143.769 1106.65 Q145.598 1103.09 145.598 1095.98 Q145.598 1088.85 143.769 1085.31 Q141.964 1081.74 138.33 1081.74 M138.33 1078.04 Q144.14 1078.04 147.195 1082.65 Q150.274 1087.23 150.274 1095.98 Q150.274 1104.71 147.195 1109.31 Q144.14 1113.9 138.33 1113.9 Q132.519 1113.9 129.441 1109.31 Q126.385 1104.71 126.385 1095.98 Q126.385 1087.23 129.441 1082.65 Q132.519 1078.04 138.33 1078.04 Z" fill="#000000" fill-rule="nonzero" fill-opacity="1" /><path clip-path="url(#clip700)" d="M168.491 1081.74 Q164.88 1081.74 163.052 1085.31 Q161.246 1088.85 161.246 1095.98 Q161.246 1103.09 163.052 1106.65 Q164.88 1110.19 168.491 1110.19 Q172.126 1110.19 173.931 1106.65 Q175.76 1103.09 175.76 1095.98 Q175.76 1088.85 173.931 1085.31 Q172.126 1081.74 168.491 1081.74 M168.491 1078.04 Q174.302 1078.04 177.357 1082.65 Q180.436 1087.23 180.436 1095.98 Q180.436 1104.71 177.357 1109.31 Q174.302 1113.9 168.491 1113.9 Q162.681 1113.9 159.603 1109.31 Q156.547 1104.71 156.547 1095.98 Q156.547 1087.23 159.603 1082.65 Q162.681 1078.04 168.491 1078.04 Z" fill="#000000" fill-rule="nonzero" fill-opacity="1" /><path clip-path="url(#clip700)" d="M63.9319 837.921 Q60.3208 837.921 58.4921 841.486 Q56.6865 845.027 56.6865 852.157 Q56.6865 859.263 58.4921 862.828 Q60.3208 866.37 63.9319 866.37 Q67.5661 866.37 69.3717 862.828 Q71.2004 859.263 71.2004 852.157 Q71.2004 845.027 69.3717 841.486 Q67.5661 837.921 63.9319 837.921 M63.9319 834.217 Q69.742 834.217 72.7976 838.824 Q75.8763 843.407 75.8763 852.157 Q75.8763 860.884 72.7976 865.49 Q69.742 870.073 63.9319 870.073 Q58.1217 870.073 55.043 865.49 Q51.9875 860.884 51.9875 852.157 Q51.9875 843.407 55.043 838.824 Q58.1217 834.217 63.9319 834.217 Z" fill="#000000" fill-rule="nonzero" fill-opacity="1" /><path clip-path="url(#clip700)" d="M84.0938 863.522 L88.978 863.522 L88.978 869.402 L84.0938 869.402 L84.0938 863.522 Z" fill="#000000" fill-rule="nonzero" fill-opacity="1" /><path clip-path="url(#clip700)" d="M109.163 837.921 Q105.552 837.921 103.723 841.486 Q101.918 845.027 101.918 852.157 Q101.918 859.263 103.723 862.828 Q105.552 866.37 109.163 866.37 Q112.797 866.37 114.603 862.828 Q116.432 859.263 116.432 852.157 Q116.432 845.027 114.603 841.486 Q112.797 837.921 109.163 837.921 M109.163 834.217 Q114.973 834.217 118.029 838.824 Q121.107 843.407 121.107 852.157 Q121.107 860.884 118.029 865.49 Q114.973 870.073 109.163 870.073 Q103.353 870.073 100.274 865.49 Q97.2187 860.884 97.2187 852.157 Q97.2187 843.407 100.274 838.824 Q103.353 834.217 109.163 834.217 Z" fill="#000000" fill-rule="nonzero" fill-opacity="1" /><path clip-path="url(#clip700)" d="M139.325 837.921 Q135.714 837.921 133.885 841.486 Q132.08 845.027 132.08 852.157 Q132.08 859.263 133.885 862.828 Q135.714 866.37 139.325 866.37 Q142.959 866.37 144.765 862.828 Q146.593 859.263 146.593 852.157 Q146.593 845.027 144.765 841.486 Q142.959 837.921 139.325 837.921 M139.325 834.217 Q145.135 834.217 148.191 838.824 Q151.269 843.407 151.269 852.157 Q151.269 860.884 148.191 865.49 Q145.135 870.073 139.325 870.073 Q133.515 870.073 130.436 865.49 Q127.381 860.884 127.381 852.157 Q127.381 843.407 130.436 838.824 Q133.515 834.217 139.325 834.217 Z" fill="#000000" fill-rule="nonzero" fill-opacity="1" /><path clip-path="url(#clip700)" d="M159.533 834.842 L177.89 834.842 L177.89 838.777 L163.816 838.777 L163.816 847.249 Q164.834 846.902 165.853 846.74 Q166.871 846.555 167.89 846.555 Q173.677 846.555 177.056 849.726 Q180.436 852.898 180.436 858.314 Q180.436 863.893 176.964 866.995 Q173.491 870.073 167.172 870.073 Q164.996 870.073 162.728 869.703 Q160.482 869.333 158.075 868.592 L158.075 863.893 Q160.158 865.027 162.38 865.583 Q164.603 866.138 167.079 866.138 Q171.084 866.138 173.422 864.032 Q175.76 861.925 175.76 858.314 Q175.76 854.703 173.422 852.597 Q171.084 850.49 167.079 850.49 Q165.204 850.49 163.329 850.907 Q161.478 851.323 159.533 852.203 L159.533 834.842 Z" fill="#000000" fill-rule="nonzero" fill-opacity="1" /><path clip-path="url(#clip700)" d="M62.9365 594.097 Q59.3254 594.097 57.4967 597.662 Q55.6912 601.203 55.6912 608.333 Q55.6912 615.439 57.4967 619.004 Q59.3254 622.546 62.9365 622.546 Q66.5707 622.546 68.3763 619.004 Q70.205 615.439 70.205 608.333 Q70.205 601.203 68.3763 597.662 Q66.5707 594.097 62.9365 594.097 M62.9365 590.393 Q68.7467 590.393 71.8022 595 Q74.8809 599.583 74.8809 608.333 Q74.8809 617.06 71.8022 621.666 Q68.7467 626.249 62.9365 626.249 Q57.1264 626.249 54.0477 621.666 Q50.9921 617.06 50.9921 608.333 Q50.9921 599.583 54.0477 595 Q57.1264 590.393 62.9365 590.393 Z" fill="#000000" fill-rule="nonzero" fill-opacity="1" /><path clip-path="url(#clip700)" d="M83.0984 619.699 L87.9827 619.699 L87.9827 625.578 L83.0984 625.578 L83.0984 619.699 Z" fill="#000000" fill-rule="nonzero" fill-opacity="1" /><path clip-path="url(#clip700)" d="M108.168 594.097 Q104.557 594.097 102.728 597.662 Q100.922 601.203 100.922 608.333 Q100.922 615.439 102.728 619.004 Q104.557 622.546 108.168 622.546 Q111.802 622.546 113.608 619.004 Q115.436 615.439 115.436 608.333 Q115.436 601.203 113.608 597.662 Q111.802 594.097 108.168 594.097 M108.168 590.393 Q113.978 590.393 117.033 595 Q120.112 599.583 120.112 608.333 Q120.112 617.06 117.033 621.666 Q113.978 626.249 108.168 626.249 Q102.358 626.249 99.2789 621.666 Q96.2234 617.06 96.2234 608.333 Q96.2234 599.583 99.2789 595 Q102.358 590.393 108.168 590.393 Z" fill="#000000" fill-rule="nonzero" fill-opacity="1" /><path clip-path="url(#clip700)" d="M129.14 621.643 L136.779 621.643 L136.779 595.277 L128.469 596.944 L128.469 592.685 L136.732 591.018 L141.408 591.018 L141.408 621.643 L149.047 621.643 L149.047 625.578 L129.14 625.578 L129.14 621.643 Z" fill="#000000" fill-rule="nonzero" fill-opacity="1" /><path clip-path="url(#clip700)" d="M168.491 594.097 Q164.88 594.097 163.052 597.662 Q161.246 601.203 161.246 608.333 Q161.246 615.439 163.052 619.004 Q164.88 622.546 168.491 622.546 Q172.126 622.546 173.931 619.004 Q175.76 615.439 175.76 608.333 Q175.76 601.203 173.931 597.662 Q172.126 594.097 168.491 594.097 M168.491 590.393 Q174.302 590.393 177.357 595 Q180.436 599.583 180.436 608.333 Q180.436 617.06 177.357 621.666 Q174.302 626.249 168.491 626.249 Q162.681 626.249 159.603 621.666 Q156.547 617.06 156.547 608.333 Q156.547 599.583 159.603 595 Q162.681 590.393 168.491 590.393 Z" fill="#000000" fill-rule="nonzero" fill-opacity="1" /><path clip-path="url(#clip700)" d="M63.9319 350.273 Q60.3208 350.273 58.4921 353.838 Q56.6865 357.379 56.6865 364.509 Q56.6865 371.615 58.4921 375.18 Q60.3208 378.722 63.9319 378.722 Q67.5661 378.722 69.3717 375.18 Q71.2004 371.615 71.2004 364.509 Q71.2004 357.379 69.3717 353.838 Q67.5661 350.273 63.9319 350.273 M63.9319 346.569 Q69.742 346.569 72.7976 351.176 Q75.8763 355.759 75.8763 364.509 Q75.8763 373.236 72.7976 377.842 Q69.742 382.426 63.9319 382.426 Q58.1217 382.426 55.043 377.842 Q51.9875 373.236 51.9875 364.509 Q51.9875 355.759 55.043 351.176 Q58.1217 346.569 63.9319 346.569 Z" fill="#000000" fill-rule="nonzero" fill-opacity="1" /><path clip-path="url(#clip700)" d="M84.0938 375.875 L88.978 375.875 L88.978 381.754 L84.0938 381.754 L84.0938 375.875 Z" fill="#000000" fill-rule="nonzero" fill-opacity="1" /><path clip-path="url(#clip700)" d="M109.163 350.273 Q105.552 350.273 103.723 353.838 Q101.918 357.379 101.918 364.509 Q101.918 371.615 103.723 375.18 Q105.552 378.722 109.163 378.722 Q112.797 378.722 114.603 375.18 Q116.432 371.615 116.432 364.509 Q116.432 357.379 114.603 353.838 Q112.797 350.273 109.163 350.273 M109.163 346.569 Q114.973 346.569 118.029 351.176 Q121.107 355.759 121.107 364.509 Q121.107 373.236 118.029 377.842 Q114.973 382.426 109.163 382.426 Q103.353 382.426 100.274 377.842 Q97.2187 373.236 97.2187 364.509 Q97.2187 355.759 100.274 351.176 Q103.353 346.569 109.163 346.569 Z" fill="#000000" fill-rule="nonzero" fill-opacity="1" /><path clip-path="url(#clip700)" d="M130.135 377.819 L137.774 377.819 L137.774 351.453 L129.464 353.12 L129.464 348.861 L137.728 347.194 L142.404 347.194 L142.404 377.819 L150.043 377.819 L150.043 381.754 L130.135 381.754 L130.135 377.819 Z" fill="#000000" fill-rule="nonzero" fill-opacity="1" /><path clip-path="url(#clip700)" d="M159.533 347.194 L177.89 347.194 L177.89 351.129 L163.816 351.129 L163.816 359.602 Q164.834 359.254 165.853 359.092 Q166.871 358.907 167.89 358.907 Q173.677 358.907 177.056 362.078 Q180.436 365.25 180.436 370.666 Q180.436 376.245 176.964 379.347 Q173.491 382.426 167.172 382.426 Q164.996 382.426 162.728 382.055 Q160.482 381.685 158.075 380.944 L158.075 376.245 Q160.158 377.379 162.38 377.935 Q164.603 378.49 167.079 378.49 Q171.084 378.49 173.422 376.384 Q175.76 374.277 175.76 370.666 Q175.76 367.055 173.422 364.949 Q171.084 362.842 167.079 362.842 Q165.204 362.842 163.329 363.259 Q161.478 363.676 159.533 364.555 L159.533 347.194 Z" fill="#000000" fill-rule="nonzero" fill-opacity="1" /><path clip-path="url(#clip700)" d="M62.9365 106.449 Q59.3254 106.449 57.4967 110.014 Q55.6912 113.555 55.6912 120.685 Q55.6912 127.791 57.4967 131.356 Q59.3254 134.898 62.9365 134.898 Q66.5707 134.898 68.3763 131.356 Q70.205 127.791 70.205 120.685 Q70.205 113.555 68.3763 110.014 Q66.5707 106.449 62.9365 106.449 M62.9365 102.745 Q68.7467 102.745 71.8022 107.352 Q74.8809 111.935 74.8809 120.685 Q74.8809 129.412 71.8022 134.018 Q68.7467 138.602 62.9365 138.602 Q57.1264 138.602 54.0477 134.018 Q50.9921 129.412 50.9921 120.685 Q50.9921 111.935 54.0477 107.352 Q57.1264 102.745 62.9365 102.745 Z" fill="#000000" fill-rule="nonzero" fill-opacity="1" /><path clip-path="url(#clip700)" d="M83.0984 132.051 L87.9827 132.051 L87.9827 137.93 L83.0984 137.93 L83.0984 132.051 Z" fill="#000000" fill-rule="nonzero" fill-opacity="1" /><path clip-path="url(#clip700)" d="M108.168 106.449 Q104.557 106.449 102.728 110.014 Q100.922 113.555 100.922 120.685 Q100.922 127.791 102.728 131.356 Q104.557 134.898 108.168 134.898 Q111.802 134.898 113.608 131.356 Q115.436 127.791 115.436 120.685 Q115.436 113.555 113.608 110.014 Q111.802 106.449 108.168 106.449 M108.168 102.745 Q113.978 102.745 117.033 107.352 Q120.112 111.935 120.112 120.685 Q120.112 129.412 117.033 134.018 Q113.978 138.602 108.168 138.602 Q102.358 138.602 99.2789 134.018 Q96.2234 129.412 96.2234 120.685 Q96.2234 111.935 99.2789 107.352 Q102.358 102.745 108.168 102.745 Z" fill="#000000" fill-rule="nonzero" fill-opacity="1" /><path clip-path="url(#clip700)" d="M132.357 133.995 L148.677 133.995 L148.677 137.93 L126.732 137.93 L126.732 133.995 Q129.394 131.241 133.978 126.611 Q138.584 121.958 139.765 120.616 Q142.01 118.092 142.89 116.356 Q143.793 114.597 143.793 112.907 Q143.793 110.153 141.848 108.417 Q139.927 106.68 136.825 106.68 Q134.626 106.68 132.172 107.444 Q129.742 108.208 126.964 109.759 L126.964 105.037 Q129.788 103.903 132.242 103.324 Q134.695 102.745 136.732 102.745 Q142.103 102.745 145.297 105.43 Q148.492 108.116 148.492 112.606 Q148.492 114.736 147.681 116.657 Q146.894 118.555 144.788 121.148 Q144.209 121.819 141.107 125.037 Q138.006 128.231 132.357 133.995 Z" fill="#000000" fill-rule="nonzero" fill-opacity="1" /><path clip-path="url(#clip700)" d="M168.491 106.449 Q164.88 106.449 163.052 110.014 Q161.246 113.555 161.246 120.685 Q161.246 127.791 163.052 131.356 Q164.88 134.898 168.491 134.898 Q172.126 134.898 173.931 131.356 Q175.76 127.791 175.76 120.685 Q175.76 113.555 173.931 110.014 Q172.126 106.449 168.491 106.449 M168.491 102.745 Q174.302 102.745 177.357 107.352 Q180.436 111.935 180.436 120.685 Q180.436 129.412 177.357 134.018 Q174.302 138.602 168.491 138.602 Q162.681 138.602 159.603 134.018 Q156.547 129.412 156.547 120.685 Q156.547 111.935 159.603 107.352 Q162.681 102.745 168.491 102.745 Z" fill="#000000" fill-rule="nonzero" fill-opacity="1" /><path clip-path="url(#clip700)" d="M625.298 30.8748 L625.298 33.2186 L603.267 33.2186 Q603.579 38.1665 606.235 40.7706 Q608.918 43.3487 613.683 43.3487 Q616.444 43.3487 619.022 42.6716 Q621.626 41.9946 624.178 40.6404 L624.178 45.1716 Q621.6 46.2654 618.892 46.8383 Q616.183 47.4112 613.397 47.4112 Q606.418 47.4112 602.329 43.3487 Q598.267 39.2862 598.267 32.3592 Q598.267 25.1978 602.121 21.0051 Q606.001 16.7864 612.564 16.7864 Q618.449 16.7864 621.86 20.5884 Q625.298 24.3645 625.298 30.8748 M620.506 29.4686 Q620.454 25.5363 618.293 23.1926 Q616.157 20.8488 612.616 20.8488 Q608.605 20.8488 606.183 23.1145 Q603.788 25.3801 603.423 29.4946 L620.506 29.4686 Z" fill="#000000" fill-rule="nonzero" fill-opacity="1" /><path clip-path="url(#clip700)" d="M632.668 35.1456 L632.668 17.4895 L637.459 17.4895 L637.459 34.9634 Q637.459 39.104 639.074 41.1873 Q640.688 43.2446 643.918 43.2446 Q647.798 43.2446 650.037 40.7706 Q652.303 38.2967 652.303 34.0259 L652.303 17.4895 L657.095 17.4895 L657.095 46.656 L652.303 46.656 L652.303 42.1769 Q650.558 44.8331 648.24 46.1352 Q645.949 47.4112 642.902 47.4112 Q637.876 47.4112 635.272 44.2862 Q632.668 41.1612 632.668 35.1456 M644.725 16.7864 L644.725 16.7864 Z" fill="#000000" fill-rule="nonzero" fill-opacity="1" /><path clip-path="url(#clip700)" d="M683.865 21.9686 Q683.058 21.4999 682.094 21.2916 Q681.157 21.0572 680.011 21.0572 Q675.949 21.0572 673.761 23.7134 Q671.6 26.3436 671.6 31.2915 L671.6 46.656 L666.782 46.656 L666.782 17.4895 L671.6 17.4895 L671.6 22.0207 Q673.11 19.3645 675.532 18.0884 Q677.954 16.7864 681.417 16.7864 Q681.912 16.7864 682.511 16.8645 Q683.11 16.9166 683.839 17.0468 L683.865 21.9686 Z" fill="#000000" fill-rule="nonzero" fill-opacity="1" /><path clip-path="url(#clip700)" d="M688.891 17.4895 L693.683 17.4895 L693.683 46.656 L688.891 46.656 L688.891 17.4895 M688.891 6.13538 L693.683 6.13538 L693.683 12.2031 L688.891 12.2031 L688.891 6.13538 Z" fill="#000000" fill-rule="nonzero" fill-opacity="1" /><path clip-path="url(#clip700)" d="M724.646 32.0988 Q724.646 26.8124 722.459 23.8176 Q720.297 20.7968 716.495 20.7968 Q712.693 20.7968 710.506 23.8176 Q708.344 26.8124 708.344 32.0988 Q708.344 37.3852 710.506 40.406 Q712.693 43.4008 716.495 43.4008 Q720.297 43.4008 722.459 40.406 Q724.646 37.3852 724.646 32.0988 M708.344 21.9165 Q709.855 19.3124 712.146 18.0624 Q714.464 16.7864 717.667 16.7864 Q722.98 16.7864 726.287 21.0051 Q729.62 25.2238 729.62 32.0988 Q729.62 38.9737 726.287 43.1925 Q722.98 47.4112 717.667 47.4112 Q714.464 47.4112 712.146 46.1612 Q709.855 44.8852 708.344 42.281 L708.344 46.656 L703.527 46.656 L703.527 6.13538 L708.344 6.13538 L708.344 21.9165 Z" fill="#000000" fill-rule="nonzero" fill-opacity="1" /><path clip-path="url(#clip700)" d="M748.865 20.8488 Q745.011 20.8488 742.771 23.8697 Q740.532 26.8644 740.532 32.0988 Q740.532 37.3331 742.745 40.354 Q744.985 43.3487 748.865 43.3487 Q752.693 43.3487 754.933 40.3279 Q757.172 37.3071 757.172 32.0988 Q757.172 26.9165 754.933 23.8957 Q752.693 20.8488 748.865 20.8488 M748.865 16.7864 Q755.115 16.7864 758.683 20.8488 Q762.25 24.9113 762.25 32.0988 Q762.25 39.2602 758.683 43.3487 Q755.115 47.4112 748.865 47.4112 Q742.589 47.4112 739.021 43.3487 Q735.48 39.2602 735.48 32.0988 Q735.48 24.9113 739.021 20.8488 Q742.589 16.7864 748.865 16.7864 Z" fill="#000000" fill-rule="nonzero" fill-opacity="1" /><path clip-path="url(#clip700)" d="M787.094 21.9686 Q786.287 21.4999 785.323 21.2916 Q784.386 21.0572 783.24 21.0572 Q779.177 21.0572 776.99 23.7134 Q774.828 26.3436 774.828 31.2915 L774.828 46.656 L770.011 46.656 L770.011 17.4895 L774.828 17.4895 L774.828 22.0207 Q776.339 19.3645 778.761 18.0884 Q781.182 16.7864 784.646 16.7864 Q785.141 16.7864 785.74 16.8645 Q786.339 16.9166 787.068 17.0468 L787.094 21.9686 Z" fill="#000000" fill-rule="nonzero" fill-opacity="1" /><path clip-path="url(#clip702)" d="M243.393 1015.68 L286.182 1015.68 L328.972 1049.07 L371.761 1027.18 L414.55 1020.43 L457.339 991.22 L500.129 1010.02 L542.918 1041.47 L585.707 1037.65 L628.496 1022.64 L671.286 1051.41 L714.075 1011.7 L756.864 1026.1 L799.653 1004.64 L842.443 1051.16 L885.232 1052.58 L928.021 1034.77 L970.811 1035.63 L1013.6 1065.62 L1056.39 1056.51 L1099.18 1062.85 L1141.97 1070.59 L1141.97 957.264 L1099.18 996.86 L1056.39 995.784 L1013.6 980.702 L970.811 1004.27 L928.021 960.597 L885.232 920.284 L842.443 922.317 L799.653 952.038 L756.864 948.227 L714.075 981.428 L671.286 954.879 L628.496 949.65 L585.707 923.578 L542.918 959.916 L500.129 926.466 L457.339 930.667 L414.55 948.701 L371.761 983.872 L328.972 973.27 L286.182 1015.68 L243.393 1015.68  Z" fill="#009af9" fill-rule="evenodd" fill-opacity="0.1"/>
<polyline clip-path="url(#clip702)" style="stroke:#009af9; stroke-linecap:round; stroke-linejoin:round; stroke-width:4; stroke-opacity:1; fill:none" points="243.393,1015.68 286.182,1015.68 328.972,1011.17 371.761,1005.53 414.55,984.566 457.339,960.944 500.129,968.242 542.918,1000.69 585.707,980.613 628.496,986.144 671.286,1003.14 714.075,996.563 756.864,987.165 799.653,978.34 842.443,986.74 885.232,986.431 928.021,997.682 970.811,1019.95 1013.6,1023.16 1056.39,1026.14 1099.18,1029.86 1141.97,1013.93 "/>
<path clip-path="url(#clip702)" d="M243.393 1015.68 L286.182 1015.68 L328.972 120.65 L371.761 120.65 L414.55 120.65 L457.339 120.65 L500.129 120.65 L542.918 120.65 L585.707 120.65 L628.496 120.65 L671.286 120.65 L714.075 120.65 L756.864 120.65 L799.653 120.65 L842.443 120.65 L885.232 120.65 L928.021 120.65 L970.811 120.65 L1013.6 120.65 L1056.39 120.65 L1099.18 120.65 L1141.97 120.65 L1141.97 120.65 L1099.18 120.65 L1056.39 120.65 L1013.6 120.65 L970.811 120.65 L928.021 120.65 L885.232 120.65 L842.443 120.65 L799.653 120.65 L756.864 120.65 L714.075 120.65 L671.286 120.65 L628.496 120.65 L585.707 120.65 L542.918 120.65 L500.129 120.65 L457.339 120.65 L414.55 120.65 L371.761 120.65 L328.972 120.65 L286.182 1015.68 L243.393 1015.68  Z" fill="#e26f46" fill-rule="evenodd" fill-opacity="0.1"/>
<polyline clip-path="url(#clip702)" style="stroke:#e26f46; stroke-linecap:round; stroke-linejoin:round; stroke-width:4; stroke-opacity:1; fill:none" points="243.393,1015.68 286.182,1015.68 328.972,120.65 371.761,120.65 414.55,120.65 457.339,120.65 500.129,120.65 542.918,120.65 585.707,120.65 628.496,120.65 671.286,120.65 714.075,120.65 756.864,120.65 799.653,120.65 842.443,120.65 885.232,120.65 928.021,120.65 970.811,120.65 1013.6,120.65 1056.39,120.65 1099.18,120.65 1141.97,120.65 "/>
<path clip-path="url(#clip700)" d="M1400.27 1099.09 L2352.76 1099.09 L2352.76 92.1521 L1400.27 92.1521  Z" fill="#ffffff" fill-rule="evenodd" fill-opacity="1"/>
<defs>
  <clipPath id="clip703">
    <rect x="1400" y="92" width="953" height="1008"/>
  </clipPath>
</defs>
<polyline clip-path="url(#clip703)" style="stroke:#000000; stroke-linecap:round; stroke-linejoin:round; stroke-width:2; stroke-opacity:0.1; fill:none" points="1598.38,1099.09 1598.38,92.1521 "/>
<polyline clip-path="url(#clip703)" style="stroke:#000000; stroke-linecap:round; stroke-linejoin:round; stroke-width:2; stroke-opacity:0.1; fill:none" points="1812.33,1099.09 1812.33,92.1521 "/>
<polyline clip-path="url(#clip703)" style="stroke:#000000; stroke-linecap:round; stroke-linejoin:round; stroke-width:2; stroke-opacity:0.1; fill:none" points="2026.27,1099.09 2026.27,92.1521 "/>
<polyline clip-path="url(#clip703)" style="stroke:#000000; stroke-linecap:round; stroke-linejoin:round; stroke-width:2; stroke-opacity:0.1; fill:none" points="2240.22,1099.09 2240.22,92.1521 "/>
<polyline clip-path="url(#clip703)" style="stroke:#000000; stroke-linecap:round; stroke-linejoin:round; stroke-width:2; stroke-opacity:0.1; fill:none" points="1400.27,912.446 2352.76,912.446 "/>
<polyline clip-path="url(#clip703)" style="stroke:#000000; stroke-linecap:round; stroke-linejoin:round; stroke-width:2; stroke-opacity:0.1; fill:none" points="1400.27,706.644 2352.76,706.644 "/>
<polyline clip-path="url(#clip703)" style="stroke:#000000; stroke-linecap:round; stroke-linejoin:round; stroke-width:2; stroke-opacity:0.1; fill:none" points="1400.27,500.842 2352.76,500.842 "/>
<polyline clip-path="url(#clip703)" style="stroke:#000000; stroke-linecap:round; stroke-linejoin:round; stroke-width:2; stroke-opacity:0.1; fill:none" points="1400.27,295.04 2352.76,295.04 "/>
<polyline clip-path="url(#clip700)" style="stroke:#000000; stroke-linecap:round; stroke-linejoin:round; stroke-width:4; stroke-opacity:1; fill:none" points="1400.27,1099.09 2352.76,1099.09 "/>
<polyline clip-path="url(#clip700)" style="stroke:#000000; stroke-linecap:round; stroke-linejoin:round; stroke-width:4; stroke-opacity:1; fill:none" points="1598.38,1099.09 1598.38,1080.19 "/>
<polyline clip-path="url(#clip700)" style="stroke:#000000; stroke-linecap:round; stroke-linejoin:round; stroke-width:4; stroke-opacity:1; fill:none" points="1812.33,1099.09 1812.33,1080.19 "/>
<polyline clip-path="url(#clip700)" style="stroke:#000000; stroke-linecap:round; stroke-linejoin:round; stroke-width:4; stroke-opacity:1; fill:none" points="2026.27,1099.09 2026.27,1080.19 "/>
<polyline clip-path="url(#clip700)" style="stroke:#000000; stroke-linecap:round; stroke-linejoin:round; stroke-width:4; stroke-opacity:1; fill:none" points="2240.22,1099.09 2240.22,1080.19 "/>
<path clip-path="url(#clip700)" d="M1588.66 1126.93 L1607.02 1126.93 L1607.02 1130.86 L1592.94 1130.86 L1592.94 1139.34 Q1593.96 1138.99 1594.98 1138.83 Q1596 1138.64 1597.02 1138.64 Q1602.8 1138.64 1606.18 1141.81 Q1609.56 1144.98 1609.56 1150.4 Q1609.56 1155.98 1606.09 1159.08 Q1602.62 1162.16 1596.3 1162.16 Q1594.12 1162.16 1591.85 1161.79 Q1589.61 1161.42 1587.2 1160.68 L1587.2 1155.98 Q1589.28 1157.11 1591.51 1157.67 Q1593.73 1158.22 1596.21 1158.22 Q1600.21 1158.22 1602.55 1156.12 Q1604.89 1154.01 1604.89 1150.4 Q1604.89 1146.79 1602.55 1144.68 Q1600.21 1142.58 1596.21 1142.58 Q1594.33 1142.58 1592.46 1142.99 Q1590.6 1143.41 1588.66 1144.29 L1588.66 1126.93 Z" fill="#000000" fill-rule="nonzero" fill-opacity="1" /><path clip-path="url(#clip700)" d="M1787.02 1157.55 L1794.65 1157.55 L1794.65 1131.19 L1786.34 1132.85 L1786.34 1128.59 L1794.61 1126.93 L1799.28 1126.93 L1799.28 1157.55 L1806.92 1157.55 L1806.92 1161.49 L1787.02 1161.49 L1787.02 1157.55 Z" fill="#000000" fill-rule="nonzero" fill-opacity="1" /><path clip-path="url(#clip700)" d="M1826.37 1130.01 Q1822.76 1130.01 1820.93 1133.57 Q1819.12 1137.11 1819.12 1144.24 Q1819.12 1151.35 1820.93 1154.91 Q1822.76 1158.46 1826.37 1158.46 Q1830 1158.46 1831.81 1154.91 Q1833.64 1151.35 1833.64 1144.24 Q1833.64 1137.11 1831.81 1133.57 Q1830 1130.01 1826.37 1130.01 M1826.37 1126.3 Q1832.18 1126.3 1835.23 1130.91 Q1838.31 1135.49 1838.31 1144.24 Q1838.31 1152.97 1835.23 1157.58 Q1832.18 1162.16 1826.37 1162.16 Q1820.56 1162.16 1817.48 1157.58 Q1814.42 1152.97 1814.42 1144.24 Q1814.42 1135.49 1817.48 1130.91 Q1820.56 1126.3 1826.37 1126.3 Z" fill="#000000" fill-rule="nonzero" fill-opacity="1" /><path clip-path="url(#clip700)" d="M2001.46 1157.55 L2009.1 1157.55 L2009.1 1131.19 L2000.79 1132.85 L2000.79 1128.59 L2009.05 1126.93 L2013.73 1126.93 L2013.73 1157.55 L2021.37 1157.55 L2021.37 1161.49 L2001.46 1161.49 L2001.46 1157.55 Z" fill="#000000" fill-rule="nonzero" fill-opacity="1" /><path clip-path="url(#clip700)" d="M2030.86 1126.93 L2049.21 1126.93 L2049.21 1130.86 L2035.14 1130.86 L2035.14 1139.34 Q2036.16 1138.99 2037.18 1138.83 Q2038.2 1138.64 2039.21 1138.64 Q2045 1138.64 2048.38 1141.81 Q2051.76 1144.98 2051.76 1150.4 Q2051.76 1155.98 2048.29 1159.08 Q2044.82 1162.16 2038.5 1162.16 Q2036.32 1162.16 2034.05 1161.79 Q2031.81 1161.42 2029.4 1160.68 L2029.4 1155.98 Q2031.48 1157.11 2033.7 1157.67 Q2035.93 1158.22 2038.4 1158.22 Q2042.41 1158.22 2044.75 1156.12 Q2047.08 1154.01 2047.08 1150.4 Q2047.08 1146.79 2044.75 1144.68 Q2042.41 1142.58 2038.4 1142.58 Q2036.53 1142.58 2034.65 1142.99 Q2032.8 1143.41 2030.86 1144.29 L2030.86 1126.93 Z" fill="#000000" fill-rule="nonzero" fill-opacity="1" /><path clip-path="url(#clip700)" d="M2218.99 1157.55 L2235.31 1157.55 L2235.31 1161.49 L2213.37 1161.49 L2213.37 1157.55 Q2216.03 1154.8 2220.61 1150.17 Q2225.22 1145.52 2226.4 1144.17 Q2228.65 1141.65 2229.53 1139.91 Q2230.43 1138.15 2230.43 1136.46 Q2230.43 1133.71 2228.48 1131.97 Q2226.56 1130.24 2223.46 1130.24 Q2221.26 1130.24 2218.81 1131 Q2216.38 1131.77 2213.6 1133.32 L2213.6 1128.59 Q2216.42 1127.46 2218.88 1126.88 Q2221.33 1126.3 2223.37 1126.3 Q2228.74 1126.3 2231.93 1128.99 Q2235.13 1131.67 2235.13 1136.16 Q2235.13 1138.29 2234.32 1140.21 Q2233.53 1142.11 2231.42 1144.71 Q2230.85 1145.38 2227.74 1148.59 Q2224.64 1151.79 2218.99 1157.55 Z" fill="#000000" fill-rule="nonzero" fill-opacity="1" /><path clip-path="url(#clip700)" d="M2255.13 1130.01 Q2251.52 1130.01 2249.69 1133.57 Q2247.88 1137.11 2247.88 1144.24 Q2247.88 1151.35 2249.69 1154.91 Q2251.52 1158.46 2255.13 1158.46 Q2258.76 1158.46 2260.57 1154.91 Q2262.4 1151.35 2262.4 1144.24 Q2262.4 1137.11 2260.57 1133.57 Q2258.76 1130.01 2255.13 1130.01 M2255.13 1126.3 Q2260.94 1126.3 2263.99 1130.91 Q2267.07 1135.49 2267.07 1144.24 Q2267.07 1152.97 2263.99 1157.58 Q2260.94 1162.16 2255.13 1162.16 Q2249.32 1162.16 2246.24 1157.58 Q2243.18 1152.97 2243.18 1144.24 Q2243.18 1135.49 2246.24 1130.91 Q2249.32 1126.3 2255.13 1126.3 Z" fill="#000000" fill-rule="nonzero" fill-opacity="1" /><polyline clip-path="url(#clip700)" style="stroke:#000000; stroke-linecap:round; stroke-linejoin:round; stroke-width:4; stroke-opacity:1; fill:none" points="1400.27,1099.09 1400.27,92.1521 "/>
<polyline clip-path="url(#clip700)" style="stroke:#000000; stroke-linecap:round; stroke-linejoin:round; stroke-width:4; stroke-opacity:1; fill:none" points="1400.27,912.446 1419.16,912.446 "/>
<polyline clip-path="url(#clip700)" style="stroke:#000000; stroke-linecap:round; stroke-linejoin:round; stroke-width:4; stroke-opacity:1; fill:none" points="1400.27,706.644 1419.16,706.644 "/>
<polyline clip-path="url(#clip700)" style="stroke:#000000; stroke-linecap:round; stroke-linejoin:round; stroke-width:4; stroke-opacity:1; fill:none" points="1400.27,500.842 1419.16,500.842 "/>
<polyline clip-path="url(#clip700)" style="stroke:#000000; stroke-linecap:round; stroke-linejoin:round; stroke-width:4; stroke-opacity:1; fill:none" points="1400.27,295.04 1419.16,295.04 "/>
<path clip-path="url(#clip700)" d="M1269.34 925.791 L1276.98 925.791 L1276.98 899.425 L1268.67 901.092 L1268.67 896.832 L1276.93 895.166 L1281.61 895.166 L1281.61 925.791 L1289.24 925.791 L1289.24 929.726 L1269.34 929.726 L1269.34 925.791 Z" fill="#000000" fill-rule="nonzero" fill-opacity="1" /><path clip-path="url(#clip700)" d="M1298.69 923.846 L1303.57 923.846 L1303.57 929.726 L1298.69 929.726 L1298.69 923.846 Z" fill="#000000" fill-rule="nonzero" fill-opacity="1" /><path clip-path="url(#clip700)" d="M1323.76 898.244 Q1320.15 898.244 1318.32 901.809 Q1316.51 905.351 1316.51 912.481 Q1316.51 919.587 1318.32 923.152 Q1320.15 926.693 1323.76 926.693 Q1327.39 926.693 1329.2 923.152 Q1331.03 919.587 1331.03 912.481 Q1331.03 905.351 1329.2 901.809 Q1327.39 898.244 1323.76 898.244 M1323.76 894.541 Q1329.57 894.541 1332.62 899.147 Q1335.7 903.731 1335.7 912.481 Q1335.7 921.207 1332.62 925.814 Q1329.57 930.397 1323.76 930.397 Q1317.95 930.397 1314.87 925.814 Q1311.81 921.207 1311.81 912.481 Q1311.81 903.731 1314.87 899.147 Q1317.95 894.541 1323.76 894.541 Z" fill="#000000" fill-rule="nonzero" fill-opacity="1" /><path clip-path="url(#clip700)" d="M1347.95 925.791 L1364.27 925.791 L1364.27 929.726 L1342.32 929.726 L1342.32 925.791 Q1344.98 923.036 1349.57 918.406 Q1354.17 913.754 1355.35 912.411 Q1357.6 909.888 1358.48 908.152 Q1359.38 906.393 1359.38 904.703 Q1359.38 901.948 1357.44 900.212 Q1355.52 898.476 1352.42 898.476 Q1350.22 898.476 1347.76 899.24 Q1345.33 900.004 1342.55 901.555 L1342.55 896.832 Q1345.38 895.698 1347.83 895.119 Q1350.29 894.541 1352.32 894.541 Q1357.69 894.541 1360.89 897.226 Q1364.08 899.911 1364.08 904.402 Q1364.08 906.531 1363.27 908.453 Q1362.48 910.351 1360.38 912.943 Q1359.8 913.615 1356.7 916.832 Q1353.6 920.027 1347.95 925.791 Z" fill="#000000" fill-rule="nonzero" fill-opacity="1" /><path clip-path="url(#clip700)" d="M1268.74 719.989 L1276.37 719.989 L1276.37 693.623 L1268.06 695.29 L1268.06 691.03 L1276.33 689.364 L1281 689.364 L1281 719.989 L1288.64 719.989 L1288.64 723.924 L1268.74 723.924 L1268.74 719.989 Z" fill="#000000" fill-rule="nonzero" fill-opacity="1" /><path clip-path="url(#clip700)" d="M1298.09 718.044 L1302.97 718.044 L1302.97 723.924 L1298.09 723.924 L1298.09 718.044 Z" fill="#000000" fill-rule="nonzero" fill-opacity="1" /><path clip-path="url(#clip700)" d="M1323.16 692.443 Q1319.54 692.443 1317.72 696.007 Q1315.91 699.549 1315.91 706.679 Q1315.91 713.785 1317.72 717.35 Q1319.54 720.891 1323.16 720.891 Q1326.79 720.891 1328.6 717.35 Q1330.42 713.785 1330.42 706.679 Q1330.42 699.549 1328.6 696.007 Q1326.79 692.443 1323.16 692.443 M1323.16 688.739 Q1328.97 688.739 1332.02 693.345 Q1335.1 697.929 1335.1 706.679 Q1335.1 715.405 1332.02 720.012 Q1328.97 724.595 1323.16 724.595 Q1317.35 724.595 1314.27 720.012 Q1311.21 715.405 1311.21 706.679 Q1311.21 697.929 1314.27 693.345 Q1317.35 688.739 1323.16 688.739 Z" fill="#000000" fill-rule="nonzero" fill-opacity="1" /><path clip-path="url(#clip700)" d="M1343.36 689.364 L1361.72 689.364 L1361.72 693.299 L1347.65 693.299 L1347.65 701.771 Q1348.67 701.424 1349.68 701.262 Q1350.7 701.077 1351.72 701.077 Q1357.51 701.077 1360.89 704.248 Q1364.27 707.419 1364.27 712.836 Q1364.27 718.415 1360.79 721.516 Q1357.32 724.595 1351 724.595 Q1348.83 724.595 1346.56 724.225 Q1344.31 723.854 1341.91 723.114 L1341.91 718.415 Q1343.99 719.549 1346.21 720.104 Q1348.43 720.66 1350.91 720.66 Q1354.92 720.66 1357.25 718.553 Q1359.59 716.447 1359.59 712.836 Q1359.59 709.225 1357.25 707.118 Q1354.92 705.012 1350.91 705.012 Q1349.04 705.012 1347.16 705.429 Q1345.31 705.845 1343.36 706.725 L1343.36 689.364 Z" fill="#000000" fill-rule="nonzero" fill-opacity="1" /><path clip-path="url(#clip700)" d="M1267.83 514.187 L1275.47 514.187 L1275.47 487.821 L1267.16 489.488 L1267.16 485.229 L1275.42 483.562 L1280.1 483.562 L1280.1 514.187 L1287.74 514.187 L1287.74 518.122 L1267.83 518.122 L1267.83 514.187 Z" fill="#000000" fill-rule="nonzero" fill-opacity="1" /><path clip-path="url(#clip700)" d="M1297.18 512.242 L1302.07 512.242 L1302.07 518.122 L1297.18 518.122 L1297.18 512.242 Z" fill="#000000" fill-rule="nonzero" fill-opacity="1" /><path clip-path="url(#clip700)" d="M1322.25 486.641 Q1318.64 486.641 1316.81 490.205 Q1315.01 493.747 1315.01 500.877 Q1315.01 507.983 1316.81 511.548 Q1318.64 515.089 1322.25 515.089 Q1325.89 515.089 1327.69 511.548 Q1329.52 507.983 1329.52 500.877 Q1329.52 493.747 1327.69 490.205 Q1325.89 486.641 1322.25 486.641 M1322.25 482.937 Q1328.06 482.937 1331.12 487.543 Q1334.2 492.127 1334.2 500.877 Q1334.2 509.603 1331.12 514.21 Q1328.06 518.793 1322.25 518.793 Q1316.44 518.793 1313.36 514.21 Q1310.31 509.603 1310.31 500.877 Q1310.31 492.127 1313.36 487.543 Q1316.44 482.937 1322.25 482.937 Z" fill="#000000" fill-rule="nonzero" fill-opacity="1" /><path clip-path="url(#clip700)" d="M1352.42 501.71 Q1349.08 501.71 1347.16 503.492 Q1345.26 505.275 1345.26 508.4 Q1345.26 511.525 1347.16 513.307 Q1349.08 515.089 1352.42 515.089 Q1355.75 515.089 1357.67 513.307 Q1359.59 511.502 1359.59 508.4 Q1359.59 505.275 1357.67 503.492 Q1355.77 501.71 1352.42 501.71 M1347.74 499.719 Q1344.73 498.978 1343.04 496.918 Q1341.37 494.858 1341.37 491.895 Q1341.37 487.752 1344.31 485.344 Q1347.28 482.937 1352.42 482.937 Q1357.58 482.937 1360.52 485.344 Q1363.46 487.752 1363.46 491.895 Q1363.46 494.858 1361.77 496.918 Q1360.1 498.978 1357.11 499.719 Q1360.49 500.506 1362.37 502.798 Q1364.27 505.09 1364.27 508.4 Q1364.27 513.423 1361.19 516.108 Q1358.13 518.793 1352.42 518.793 Q1346.7 518.793 1343.62 516.108 Q1340.56 513.423 1340.56 508.4 Q1340.56 505.09 1342.46 502.798 Q1344.36 500.506 1347.74 499.719 M1346.03 492.335 Q1346.03 495.02 1347.69 496.525 Q1349.38 498.029 1352.42 498.029 Q1355.42 498.029 1357.11 496.525 Q1358.83 495.02 1358.83 492.335 Q1358.83 489.65 1357.11 488.145 Q1355.42 486.641 1352.42 486.641 Q1349.38 486.641 1347.69 488.145 Q1346.03 489.65 1346.03 492.335 Z" fill="#000000" fill-rule="nonzero" fill-opacity="1" /><path clip-path="url(#clip700)" d="M1268.97 308.385 L1276.61 308.385 L1276.61 282.019 L1268.3 283.686 L1268.3 279.427 L1276.56 277.76 L1281.24 277.76 L1281.24 308.385 L1288.87 308.385 L1288.87 312.32 L1268.97 312.32 L1268.97 308.385 Z" fill="#000000" fill-rule="nonzero" fill-opacity="1" /><path clip-path="url(#clip700)" d="M1298.32 306.44 L1303.2 306.44 L1303.2 312.32 L1298.32 312.32 L1298.32 306.44 Z" fill="#000000" fill-rule="nonzero" fill-opacity="1" /><path clip-path="url(#clip700)" d="M1314.2 308.385 L1321.84 308.385 L1321.84 282.019 L1313.53 283.686 L1313.53 279.427 L1321.79 277.76 L1326.47 277.76 L1326.47 308.385 L1334.11 308.385 L1334.11 312.32 L1314.2 312.32 L1314.2 308.385 Z" fill="#000000" fill-rule="nonzero" fill-opacity="1" /><path clip-path="url(#clip700)" d="M1344.36 308.385 L1352 308.385 L1352 282.019 L1343.69 283.686 L1343.69 279.427 L1351.95 277.76 L1356.63 277.76 L1356.63 308.385 L1364.27 308.385 L1364.27 312.32 L1344.36 312.32 L1344.36 308.385 Z" fill="#000000" fill-rule="nonzero" fill-opacity="1" /><path clip-path="url(#clip700)" d="M1735.8 31.7342 Q1735.8 26.5259 1733.63 23.6613 Q1731.5 20.7968 1727.62 20.7968 Q1723.76 20.7968 1721.6 23.6613 Q1719.47 26.5259 1719.47 31.7342 Q1719.47 36.9165 1721.6 39.781 Q1723.76 42.6456 1727.62 42.6456 Q1731.5 42.6456 1733.63 39.781 Q1735.8 36.9165 1735.8 31.7342 M1740.59 43.0362 Q1740.59 50.4841 1737.28 54.1039 Q1733.97 57.7497 1727.15 57.7497 Q1724.62 57.7497 1722.38 57.3591 Q1720.15 56.9945 1718.04 56.2132 L1718.04 51.5518 Q1720.15 52.6976 1722.2 53.2445 Q1724.26 53.7914 1726.4 53.7914 Q1731.11 53.7914 1733.45 51.3174 Q1735.8 48.8695 1735.8 43.8956 L1735.8 41.5258 Q1734.31 44.1039 1731.99 45.38 Q1729.68 46.656 1726.45 46.656 Q1721.08 46.656 1717.8 42.5675 Q1714.52 38.479 1714.52 31.7342 Q1714.52 24.9634 1717.8 20.8749 Q1721.08 16.7864 1726.45 16.7864 Q1729.68 16.7864 1731.99 18.0624 Q1734.31 19.3384 1735.8 21.9165 L1735.8 17.4895 L1740.59 17.4895 L1740.59 43.0362 Z" fill="#000000" fill-rule="nonzero" fill-opacity="1" /><path clip-path="url(#clip700)" d="M1769.65 21.9165 L1769.65 6.13538 L1774.44 6.13538 L1774.44 46.656 L1769.65 46.656 L1769.65 42.281 Q1768.14 44.8852 1765.82 46.1612 Q1763.53 47.4112 1760.3 47.4112 Q1755.01 47.4112 1751.68 43.1925 Q1748.37 38.9737 1748.37 32.0988 Q1748.37 25.2238 1751.68 21.0051 Q1755.01 16.7864 1760.3 16.7864 Q1763.53 16.7864 1765.82 18.0624 Q1768.14 19.3124 1769.65 21.9165 M1753.32 32.0988 Q1753.32 37.3852 1755.48 40.406 Q1757.67 43.4008 1761.47 43.4008 Q1765.28 43.4008 1767.46 40.406 Q1769.65 37.3852 1769.65 32.0988 Q1769.65 26.8124 1767.46 23.8176 Q1765.28 20.7968 1761.47 20.7968 Q1757.67 20.7968 1755.48 23.8176 Q1753.32 26.8124 1753.32 32.0988 Z" fill="#000000" fill-rule="nonzero" fill-opacity="1" /><path clip-path="url(#clip700)" d="M1788.95 42.281 L1788.95 57.7497 L1784.13 57.7497 L1784.13 17.4895 L1788.95 17.4895 L1788.95 21.9165 Q1790.46 19.3124 1792.75 18.0624 Q1795.07 16.7864 1798.27 16.7864 Q1803.58 16.7864 1806.89 21.0051 Q1810.22 25.2238 1810.22 32.0988 Q1810.22 38.9737 1806.89 43.1925 Q1803.58 47.4112 1798.27 47.4112 Q1795.07 47.4112 1792.75 46.1612 Q1790.46 44.8852 1788.95 42.281 M1805.25 32.0988 Q1805.25 26.8124 1803.06 23.8176 Q1800.9 20.7968 1797.1 20.7968 Q1793.3 20.7968 1791.11 23.8176 Q1788.95 26.8124 1788.95 32.0988 Q1788.95 37.3852 1791.11 40.406 Q1793.3 43.4008 1797.1 43.4008 Q1800.9 43.4008 1803.06 40.406 Q1805.25 37.3852 1805.25 32.0988 Z" fill="#000000" fill-rule="nonzero" fill-opacity="1" /><path clip-path="url(#clip700)" d="M1854.31 21.9165 L1854.31 6.13538 L1859.1 6.13538 L1859.1 46.656 L1854.31 46.656 L1854.31 42.281 Q1852.8 44.8852 1850.48 46.1612 Q1848.19 47.4112 1844.96 47.4112 Q1839.68 47.4112 1836.34 43.1925 Q1833.04 38.9737 1833.04 32.0988 Q1833.04 25.2238 1836.34 21.0051 Q1839.68 16.7864 1844.96 16.7864 Q1848.19 16.7864 1850.48 18.0624 Q1852.8 19.3124 1854.31 21.9165 M1837.98 32.0988 Q1837.98 37.3852 1840.14 40.406 Q1842.33 43.4008 1846.13 43.4008 Q1849.94 43.4008 1852.12 40.406 Q1854.31 37.3852 1854.31 32.0988 Q1854.31 26.8124 1852.12 23.8176 Q1849.94 20.7968 1846.13 20.7968 Q1842.33 20.7968 1840.14 23.8176 Q1837.98 26.8124 1837.98 32.0988 Z" fill="#000000" fill-rule="nonzero" fill-opacity="1" /><path clip-path="url(#clip700)" d="M1893.92 30.8748 L1893.92 33.2186 L1871.89 33.2186 Q1872.2 38.1665 1874.86 40.7706 Q1877.54 43.3487 1882.31 43.3487 Q1885.07 43.3487 1887.64 42.6716 Q1890.25 41.9946 1892.8 40.6404 L1892.8 45.1716 Q1890.22 46.2654 1887.51 46.8383 Q1884.81 47.4112 1882.02 47.4112 Q1875.04 47.4112 1870.95 43.3487 Q1866.89 39.2862 1866.89 32.3592 Q1866.89 25.1978 1870.74 21.0051 Q1874.62 16.7864 1881.19 16.7864 Q1887.07 16.7864 1890.48 20.5884 Q1893.92 24.3645 1893.92 30.8748 M1889.13 29.4686 Q1889.08 25.5363 1886.92 23.1926 Q1884.78 20.8488 1881.24 20.8488 Q1877.23 20.8488 1874.81 23.1145 Q1872.41 25.3801 1872.05 29.4946 L1889.13 29.4686 Z" fill="#000000" fill-rule="nonzero" fill-opacity="1" /><path clip-path="url(#clip700)" d="M1916.55 6.13538 L1916.55 10.1197 L1911.97 10.1197 Q1909.39 10.1197 1908.37 11.1614 Q1907.38 12.2031 1907.38 14.9114 L1907.38 17.4895 L1915.27 17.4895 L1915.27 21.2134 L1907.38 21.2134 L1907.38 46.656 L1902.57 46.656 L1902.57 21.2134 L1897.98 21.2134 L1897.98 17.4895 L1902.57 17.4895 L1902.57 15.4583 Q1902.57 10.5885 1904.83 8.37496 Q1907.1 6.13538 1912.02 6.13538 L1916.55 6.13538 Z" fill="#000000" fill-rule="nonzero" fill-opacity="1" /><path clip-path="url(#clip700)" d="M1920.56 6.13538 L1925.35 6.13538 L1925.35 46.656 L1920.56 46.656 L1920.56 6.13538 Z" fill="#000000" fill-rule="nonzero" fill-opacity="1" /><path clip-path="url(#clip700)" d="M1948.63 31.9946 Q1942.83 31.9946 1940.59 33.3227 Q1938.35 34.6509 1938.35 37.854 Q1938.35 40.406 1940.01 41.9164 Q1941.71 43.4008 1944.6 43.4008 Q1948.58 43.4008 1950.98 40.5883 Q1953.4 37.7498 1953.4 33.0623 L1953.4 31.9946 L1948.63 31.9946 M1958.19 30.0155 L1958.19 46.656 L1953.4 46.656 L1953.4 42.2289 Q1951.76 44.8852 1949.31 46.1612 Q1946.86 47.4112 1943.32 47.4112 Q1938.84 47.4112 1936.19 44.9112 Q1933.56 42.3852 1933.56 38.1665 Q1933.56 33.2446 1936.84 30.7446 Q1940.14 28.2446 1946.68 28.2446 L1953.4 28.2446 L1953.4 27.7759 Q1953.4 24.4686 1951.21 22.6718 Q1949.05 20.8488 1945.12 20.8488 Q1942.62 20.8488 1940.25 21.4478 Q1937.88 22.0468 1935.69 23.2447 L1935.69 18.8176 Q1938.32 17.802 1940.79 17.3072 Q1943.27 16.7864 1945.61 16.7864 Q1951.94 16.7864 1955.07 20.0676 Q1958.19 23.3488 1958.19 30.0155 Z" fill="#000000" fill-rule="nonzero" fill-opacity="1" /><path clip-path="url(#clip700)" d="M1972.8 9.20828 L1972.8 17.4895 L1982.67 17.4895 L1982.67 21.2134 L1972.8 21.2134 L1972.8 37.0467 Q1972.8 40.6144 1973.76 41.63 Q1974.75 42.6456 1977.75 42.6456 L1982.67 42.6456 L1982.67 46.656 L1977.75 46.656 Q1972.2 46.656 1970.09 44.5987 Q1967.98 42.5154 1967.98 37.0467 L1967.98 21.2134 L1964.47 21.2134 L1964.47 17.4895 L1967.98 17.4895 L1967.98 9.20828 L1972.8 9.20828 Z" fill="#000000" fill-rule="nonzero" fill-opacity="1" /><path clip-path="url(#clip700)" d="M2000.27 20.8488 Q1996.42 20.8488 1994.18 23.8697 Q1991.94 26.8644 1991.94 32.0988 Q1991.94 37.3331 1994.15 40.354 Q1996.39 43.3487 2000.27 43.3487 Q2004.1 43.3487 2006.34 40.3279 Q2008.58 37.3071 2008.58 32.0988 Q2008.58 26.9165 2006.34 23.8957 Q2004.1 20.8488 2000.27 20.8488 M2000.27 16.7864 Q2006.52 16.7864 2010.09 20.8488 Q2013.66 24.9113 2013.66 32.0988 Q2013.66 39.2602 2010.09 43.3487 Q2006.52 47.4112 2000.27 47.4112 Q1994 47.4112 1990.43 43.3487 Q1986.89 39.2602 1986.89 32.0988 Q1986.89 24.9113 1990.43 20.8488 Q1994 16.7864 2000.27 16.7864 Z" fill="#000000" fill-rule="nonzero" fill-opacity="1" /><path clip-path="url(#clip700)" d="M2038.5 21.9686 Q2037.7 21.4999 2036.73 21.2916 Q2035.79 21.0572 2034.65 21.0572 Q2030.59 21.0572 2028.4 23.7134 Q2026.24 26.3436 2026.24 31.2915 L2026.24 46.656 L2021.42 46.656 L2021.42 17.4895 L2026.24 17.4895 L2026.24 22.0207 Q2027.75 19.3645 2030.17 18.0884 Q2032.59 16.7864 2036.05 16.7864 Q2036.55 16.7864 2037.15 16.8645 Q2037.75 16.9166 2038.48 17.0468 L2038.5 21.9686 Z" fill="#000000" fill-rule="nonzero" fill-opacity="1" /><path clip-path="url(#clip703)" d="M1512.8 1067.99 L1555.59 1046.78 L1598.38 1031.43 L1641.17 968.729 L1683.96 944.988 L1726.75 892.714 L1769.54 854.363 L1812.33 857.2 L1855.12 853.627 L1897.91 857.969 L1940.7 875.635 L1983.48 844.223 L2026.27 848.451 L2069.06 848.676 L2111.85 842.742 L2154.64 798.81 L2197.43 728.717 L2240.22 687.265 L2283.01 687.954 L2325.8 694.354 L2325.8 120.65 L2283.01 174.434 L2240.22 204.975 L2197.43 234.043 L2154.64 285.088 L2111.85 379.808 L2069.06 409.957 L2026.27 464.138 L1983.48 497.002 L1940.7 493.868 L1897.91 574.476 L1855.12 623.305 L1812.33 680.962 L1769.54 711.961 L1726.75 777.336 L1683.96 829.284 L1641.17 893.67 L1598.38 917.518 L1555.59 968.853 L1512.8 1015.95  Z" fill="#009af9" fill-rule="evenodd" fill-opacity="0.1"/>
<polyline clip-path="url(#clip703)" style="stroke:#009af9; stroke-linecap:round; stroke-linejoin:round; stroke-width:4; stroke-opacity:1; fill:none" points="1512.8,1041.97 1555.59,1007.82 1598.38,974.472 1641.17,931.199 1683.96,887.136 1726.75,835.025 1769.54,783.162 1812.33,769.081 1855.12,738.466 1897.91,716.222 1940.7,684.752 1983.48,670.613 2026.27,656.295 2069.06,629.317 2111.85,611.275 2154.64,541.949 2197.43,481.38 2240.22,446.12 2283.01,431.194 2325.8,407.502 "/>
<path clip-path="url(#clip703)" d="M1512.8 1070.59 L1555.59 1060.4 L1598.38 1007.92 L1641.17 980.241 L1683.96 956.244 L1726.75 959.2 L1769.54 974.078 L1812.33 930.059 L1855.12 915.077 L1897.91 917.29 L1940.7 914.571 L1983.48 921.41 L2026.27 871.249 L2069.06 831.184 L2111.85 795.901 L2154.64 771.962 L2197.43 750.123 L2240.22 781.969 L2283.01 802.093 L2325.8 803.962 L2325.8 417.632 L2283.01 435.497 L2240.22 467.506 L2197.43 501.968 L2154.64 502.706 L2111.85 530.235 L2069.06 540.413 L2026.27 545.113 L1983.48 589.397 L1940.7 630.11 L1897.91 664.938 L1855.12 730.156 L1812.33 778.457 L1769.54 845.791 L1726.75 893.621 L1683.96 895.805 L1641.17 908.834 L1598.38 969.117 L1555.59 987.91 L1512.8 1012.59  Z" fill="#e26f46" fill-rule="evenodd" fill-opacity="0.1"/>
<polyline clip-path="url(#clip703)" style="stroke:#e26f46; stroke-linecap:round; stroke-linejoin:round; stroke-width:4; stroke-opacity:1; fill:none" points="1512.8,1041.59 1555.59,1024.15 1598.38,988.52 1641.17,944.537 1683.96,926.025 1726.75,926.41 1769.54,909.935 1812.33,854.258 1855.12,822.617 1897.91,791.114 1940.7,772.34 1983.48,755.404 2026.27,708.181 2069.06,685.798 2111.85,663.068 2154.64,637.334 2197.43,626.046 2240.22,624.737 2283.01,618.795 2325.8,610.797 "/>
</svg>
