<?xml version="1.0" encoding="utf-8"?>
<svg xmlns="http://www.w3.org/2000/svg" xmlns:xlink="http://www.w3.org/1999/xlink" width="600" height="300" viewBox="0 0 2400 1200">
<defs>
  <clipPath id="clip330">
    <rect x="0" y="0" width="2400" height="1200"/>
  </clipPath>
</defs>
<path clip-path="url(#clip330)" d="M0 1200 L2400 1200 L2400 0 L0 0  Z" fill="#ffffff" fill-rule="evenodd" fill-opacity="1"/>
<defs>
  <clipPath id="clip331">
    <rect x="480" y="0" width="1681" height="1200"/>
  </clipPath>
</defs>
<path clip-path="url(#clip330)" d="M216.436 1099.09 L1153.8 1099.09 L1153.8 92.1521 L216.436 92.1521  Z" fill="#ffffff" fill-rule="evenodd" fill-opacity="1"/>
<defs>
  <clipPath id="clip332">
    <rect x="216" y="92" width="938" height="1008"/>
  </clipPath>
</defs>
<polyline clip-path="url(#clip332)" style="stroke:#000000; stroke-linecap:round; stroke-linejoin:round; stroke-width:2; stroke-opacity:0.1; fill:none" points="411.404,1099.09 411.404,92.1521 "/>
<polyline clip-path="url(#clip332)" style="stroke:#000000; stroke-linecap:round; stroke-linejoin:round; stroke-width:2; stroke-opacity:0.1; fill:none" points="621.952,1099.09 621.952,92.1521 "/>
<polyline clip-path="url(#clip332)" style="stroke:#000000; stroke-linecap:round; stroke-linejoin:round; stroke-width:2; stroke-opacity:0.1; fill:none" points="832.501,1099.09 832.501,92.1521 "/>
<polyline clip-path="url(#clip332)" style="stroke:#000000; stroke-linecap:round; stroke-linejoin:round; stroke-width:2; stroke-opacity:0.1; fill:none" points="1043.05,1099.09 1043.05,92.1521 "/>
<polyline clip-path="url(#clip332)" style="stroke:#000000; stroke-linecap:round; stroke-linejoin:round; stroke-width:2; stroke-opacity:0.1; fill:none" points="216.436,1064.22 1153.8,1064.22 "/>
<polyline clip-path="url(#clip332)" style="stroke:#000000; stroke-linecap:round; stroke-linejoin:round; stroke-width:2; stroke-opacity:0.1; fill:none" points="216.436,828.326 1153.8,828.326 "/>
<polyline clip-path="url(#clip332)" style="stroke:#000000; stroke-linecap:round; stroke-linejoin:round; stroke-width:2; stroke-opacity:0.1; fill:none" points="216.436,592.434 1153.8,592.434 "/>
<polyline clip-path="url(#clip332)" style="stroke:#000000; stroke-linecap:round; stroke-linejoin:round; stroke-width:2; stroke-opacity:0.1; fill:none" points="216.436,356.542 1153.8,356.542 "/>
<polyline clip-path="url(#clip332)" style="stroke:#000000; stroke-linecap:round; stroke-linejoin:round; stroke-width:2; stroke-opacity:0.1; fill:none" points="216.436,120.65 1153.8,120.65 "/>
<polyline clip-path="url(#clip330)" style="stroke:#000000; stroke-linecap:round; stroke-linejoin:round; stroke-width:4; stroke-opacity:1; fill:none" points="216.436,1099.09 1153.8,1099.09 "/>
<polyline clip-path="url(#clip330)" style="stroke:#000000; stroke-linecap:round; stroke-linejoin:round; stroke-width:4; stroke-opacity:1; fill:none" points="411.404,1099.09 411.404,1080.19 "/>
<polyline clip-path="url(#clip330)" style="stroke:#000000; stroke-linecap:round; stroke-linejoin:round; stroke-width:4; stroke-opacity:1; fill:none" points="621.952,1099.09 621.952,1080.19 "/>
<polyline clip-path="url(#clip330)" style="stroke:#000000; stroke-linecap:round; stroke-linejoin:round; stroke-width:4; stroke-opacity:1; fill:none" points="832.501,1099.09 832.501,1080.19 "/>
<polyline clip-path="url(#clip330)" style="stroke:#000000; stroke-linecap:round; stroke-linejoin:round; stroke-width:4; stroke-opacity:1; fill:none" points="1043.05,1099.09 1043.05,1080.19 "/>
<path clip-path="url(#clip330)" d="M401.682 1126.93 L420.038 1126.93 L420.038 1130.86 L405.964 1130.86 L405.964 1139.34 Q406.982 1138.99 408.001 1138.83 Q409.019 1138.64 410.038 1138.64 Q415.825 1138.64 419.205 1141.81 Q422.584 1144.98 422.584 1150.4 Q422.584 1155.98 419.112 1159.08 Q415.64 1162.16 409.32 1162.16 Q407.145 1162.16 404.876 1161.79 Q402.631 1161.42 400.223 1160.68 L400.223 1155.98 Q402.307 1157.11 404.529 1157.67 Q406.751 1158.22 409.228 1158.22 Q413.232 1158.22 415.57 1156.12 Q417.908 1154.01 417.908 1150.4 Q417.908 1146.79 415.57 1144.68 Q413.232 1142.58 409.228 1142.58 Q407.353 1142.58 405.478 1142.99 Q403.626 1143.41 401.682 1144.29 L401.682 1126.93 Z" fill="#000000" fill-rule="nonzero" fill-opacity="1" /><path clip-path="url(#clip330)" d="M596.64 1157.55 L604.279 1157.55 L604.279 1131.19 L595.969 1132.85 L595.969 1128.59 L604.232 1126.93 L608.908 1126.93 L608.908 1157.55 L616.547 1157.55 L616.547 1161.49 L596.64 1161.49 L596.64 1157.55 Z" fill="#000000" fill-rule="nonzero" fill-opacity="1" /><path clip-path="url(#clip330)" d="M635.991 1130.01 Q632.38 1130.01 630.552 1133.57 Q628.746 1137.11 628.746 1144.24 Q628.746 1151.35 630.552 1154.91 Q632.38 1158.46 635.991 1158.46 Q639.626 1158.46 641.431 1154.91 Q643.26 1151.35 643.26 1144.24 Q643.26 1137.11 641.431 1133.57 Q639.626 1130.01 635.991 1130.01 M635.991 1126.3 Q641.802 1126.3 644.857 1130.91 Q647.936 1135.49 647.936 1144.24 Q647.936 1152.97 644.857 1157.58 Q641.802 1162.16 635.991 1162.16 Q630.181 1162.16 627.103 1157.58 Q624.047 1152.97 624.047 1144.24 Q624.047 1135.49 627.103 1130.91 Q630.181 1126.3 635.991 1126.3 Z" fill="#000000" fill-rule="nonzero" fill-opacity="1" /><path clip-path="url(#clip330)" d="M807.686 1157.55 L815.325 1157.55 L815.325 1131.19 L807.015 1132.85 L807.015 1128.59 L815.279 1126.93 L819.954 1126.93 L819.954 1157.55 L827.593 1157.55 L827.593 1161.49 L807.686 1161.49 L807.686 1157.55 Z" fill="#000000" fill-rule="nonzero" fill-opacity="1" /><path clip-path="url(#clip330)" d="M837.084 1126.93 L855.44 1126.93 L855.44 1130.86 L841.366 1130.86 L841.366 1139.34 Q842.385 1138.99 843.403 1138.83 Q844.422 1138.64 845.44 1138.64 Q851.227 1138.64 854.607 1141.81 Q857.987 1144.98 857.987 1150.4 Q857.987 1155.98 854.514 1159.08 Q851.042 1162.16 844.723 1162.16 Q842.547 1162.16 840.278 1161.79 Q838.033 1161.42 835.626 1160.68 L835.626 1155.98 Q837.709 1157.11 839.931 1157.67 Q842.153 1158.22 844.63 1158.22 Q848.635 1158.22 850.973 1156.12 Q853.311 1154.01 853.311 1150.4 Q853.311 1146.79 850.973 1144.68 Q848.635 1142.58 844.63 1142.58 Q842.755 1142.58 840.88 1142.99 Q839.028 1143.41 837.084 1144.29 L837.084 1126.93 Z" fill="#000000" fill-rule="nonzero" fill-opacity="1" /><path clip-path="url(#clip330)" d="M1021.82 1157.55 L1038.14 1157.55 L1038.14 1161.49 L1016.2 1161.49 L1016.2 1157.55 Q1018.86 1154.8 1023.44 1150.17 Q1028.05 1145.52 1029.23 1144.17 Q1031.48 1141.65 1032.35 1139.91 Q1033.26 1138.15 1033.26 1136.46 Q1033.26 1133.71 1031.31 1131.97 Q1029.39 1130.24 1026.29 1130.24 Q1024.09 1130.24 1021.64 1131 Q1019.21 1131.77 1016.43 1133.32 L1016.43 1128.59 Q1019.25 1127.46 1021.71 1126.88 Q1024.16 1126.3 1026.2 1126.3 Q1031.57 1126.3 1034.76 1128.99 Q1037.96 1131.67 1037.96 1136.16 Q1037.96 1138.29 1037.15 1140.21 Q1036.36 1142.11 1034.25 1144.71 Q1033.67 1145.38 1030.57 1148.59 Q1027.47 1151.79 1021.82 1157.55 Z" fill="#000000" fill-rule="nonzero" fill-opacity="1" /><path clip-path="url(#clip330)" d="M1057.96 1130.01 Q1054.35 1130.01 1052.52 1133.57 Q1050.71 1137.11 1050.71 1144.24 Q1050.71 1151.35 1052.52 1154.91 Q1054.35 1158.46 1057.96 1158.46 Q1061.59 1158.46 1063.4 1154.91 Q1065.22 1151.35 1065.22 1144.24 Q1065.22 1137.11 1063.4 1133.57 Q1061.59 1130.01 1057.96 1130.01 M1057.96 1126.3 Q1063.77 1126.3 1066.82 1130.91 Q1069.9 1135.49 1069.9 1144.24 Q1069.9 1152.97 1066.82 1157.58 Q1063.77 1162.16 1057.96 1162.16 Q1052.15 1162.16 1049.07 1157.58 Q1046.01 1152.97 1046.01 1144.24 Q1046.01 1135.49 1049.07 1130.91 Q1052.15 1126.3 1057.96 1126.3 Z" fill="#000000" fill-rule="nonzero" fill-opacity="1" /><polyline clip-path="url(#clip330)" style="stroke:#000000; stroke-linecap:round; stroke-linejoin:round; stroke-width:4; stroke-opacity:1; fill:none" points="216.436,1099.09 216.436,92.1521 "/>
<polyline clip-path="url(#clip330)" style="stroke:#000000; stroke-linecap:round; stroke-linejoin:round; stroke-width:4; stroke-opacity:1; fill:none" points="216.436,1064.22 235.334,1064.22 "/>
<polyline clip-path="url(#clip330)" style="stroke:#000000; stroke-linecap:round; stroke-linejoin:round; stroke-width:4; stroke-opacity:1; fill:none" points="216.436,828.326 235.334,828.326 "/>
<polyline clip-path="url(#clip330)" style="stroke:#000000; stroke-linecap:round; stroke-linejoin:round; stroke-width:4; stroke-opacity:1; fill:none" points="216.436,592.434 235.334,592.434 "/>
<polyline clip-path="url(#clip330)" style="stroke:#000000; stroke-linecap:round; stroke-linejoin:round; stroke-width:4; stroke-opacity:1; fill:none" points="216.436,356.542 235.334,356.542 "/>
<polyline clip-path="url(#clip330)" style="stroke:#000000; stroke-linecap:round; stroke-linejoin:round; stroke-width:4; stroke-opacity:1; fill:none" points="216.436,120.65 235.334,120.65 "/>
<path clip-path="url(#clip330)" d="M62.9365 1050.02 Q59.3254 1050.02 57.4967 1053.58 Q55.6912 1057.12 55.6912 1064.25 Q55.6912 1071.36 57.4967 1074.92 Q59.3254 1078.46 62.9365 1078.46 Q66.5707 1078.46 68.3763 1074.92 Q70.205 1071.36 70.205 1064.25 Q70.205 1057.12 68.3763 1053.58 Q66.5707 1050.02 62.9365 1050.02 M62.9365 1046.31 Q68.7467 1046.31 71.8022 1050.92 Q74.8809 1055.5 74.8809 1064.25 Q74.8809 1072.98 71.8022 1077.59 Q68.7467 1082.17 62.9365 1082.17 Q57.1264 1082.17 54.0477 1077.59 Q50.9921 1072.98 50.9921 1064.25 Q50.9921 1055.5 54.0477 1050.92 Q57.1264 1046.31 62.9365 1046.31 Z" fill="#000000" fill-rule="nonzero" fill-opacity="1" /><path clip-path="url(#clip330)" d="M83.0984 1075.62 L87.9827 1075.62 L87.9827 1081.5 L83.0984 1081.5 L83.0984 1075.62 Z" fill="#000000" fill-rule="nonzero" fill-opacity="1" /><path clip-path="url(#clip330)" d="M108.168 1050.02 Q104.557 1050.02 102.728 1053.58 Q100.922 1057.12 100.922 1064.25 Q100.922 1071.36 102.728 1074.92 Q104.557 1078.46 108.168 1078.46 Q111.802 1078.46 113.608 1074.92 Q115.436 1071.36 115.436 1064.25 Q115.436 1057.12 113.608 1053.58 Q111.802 1050.02 108.168 1050.02 M108.168 1046.31 Q113.978 1046.31 117.033 1050.92 Q120.112 1055.5 120.112 1064.25 Q120.112 1072.98 117.033 1077.59 Q113.978 1082.17 108.168 1082.17 Q102.358 1082.17 99.2789 1077.59 Q96.2234 1072.98 96.2234 1064.25 Q96.2234 1055.5 99.2789 1050.92 Q102.358 1046.31 108.168 1046.31 Z" fill="#000000" fill-rule="nonzero" fill-opacity="1" /><path clip-path="url(#clip330)" d="M138.33 1050.02 Q134.719 1050.02 132.89 1053.58 Q131.084 1057.12 131.084 1064.25 Q131.084 1071.36 132.89 1074.92 Q134.719 1078.46 138.33 1078.46 Q141.964 1078.46 143.769 1074.92 Q145.598 1071.36 145.598 1064.25 Q145.598 1057.12 143.769 1053.58 Q141.964 1050.02 138.33 1050.02 M138.33 1046.31 Q144.14 1046.31 147.195 1050.92 Q150.274 1055.5 150.274 1064.25 Q150.274 1072.98 147.195 1077.59 Q144.14 1082.17 138.33 1082.17 Q132.519 1082.17 129.441 1077.59 Q126.385 1072.98 126.385 1064.25 Q126.385 1055.5 129.441 1050.92 Q132.519 1046.31 138.33 1046.31 Z" fill="#000000" fill-rule="nonzero" fill-opacity="1" /><path clip-path="url(#clip330)" d="M168.491 1050.02 Q164.88 1050.02 163.052 1053.58 Q161.246 1057.12 161.246 1064.25 Q161.246 1071.36 163.052 1074.92 Q164.88 1078.46 168.491 1078.46 Q172.126 1078.46 173.931 1074.92 Q175.76 1071.36 175.76 1064.25 Q175.76 1057.12 173.931 1053.58 Q172.126 1050.02 168.491 1050.02 M168.491 1046.31 Q174.302 1046.31 177.357 1050.92 Q180.436 1055.5 180.436 1064.25 Q180.436 1072.98 177.357 1077.59 Q174.302 1082.17 168.491 1082.17 Q162.681 1082.17 159.603 1077.59 Q156.547 1072.98 156.547 1064.25 Q156.547 1055.5 159.603 1050.92 Q162.681 1046.31 168.491 1046.31 Z" fill="#000000" fill-rule="nonzero" fill-opacity="1" /><path clip-path="url(#clip330)" d="M63.9319 814.124 Q60.3208 814.124 58.4921 817.689 Q56.6865 821.231 56.6865 828.36 Q56.6865 835.467 58.4921 839.031 Q60.3208 842.573 63.9319 842.573 Q67.5661 842.573 69.3717 839.031 Q71.2004 835.467 71.2004 828.36 Q71.2004 821.231 69.3717 817.689 Q67.5661 814.124 63.9319 814.124 M63.9319 810.421 Q69.742 810.421 72.7976 815.027 Q75.8763 819.61 75.8763 828.36 Q75.8763 837.087 72.7976 841.694 Q69.742 846.277 63.9319 846.277 Q58.1217 846.277 55.043 841.694 Q51.9875 837.087 51.9875 828.36 Q51.9875 819.61 55.043 815.027 Q58.1217 810.421 63.9319 810.421 Z" fill="#000000" fill-rule="nonzero" fill-opacity="1" /><path clip-path="url(#clip330)" d="M84.0938 839.726 L88.978 839.726 L88.978 845.606 L84.0938 845.606 L84.0938 839.726 Z" fill="#000000" fill-rule="nonzero" fill-opacity="1" /><path clip-path="url(#clip330)" d="M109.163 814.124 Q105.552 814.124 103.723 817.689 Q101.918 821.231 101.918 828.36 Q101.918 835.467 103.723 839.031 Q105.552 842.573 109.163 842.573 Q112.797 842.573 114.603 839.031 Q116.432 835.467 116.432 828.36 Q116.432 821.231 114.603 817.689 Q112.797 814.124 109.163 814.124 M109.163 810.421 Q114.973 810.421 118.029 815.027 Q121.107 819.61 121.107 828.36 Q121.107 837.087 118.029 841.694 Q114.973 846.277 109.163 846.277 Q103.353 846.277 100.274 841.694 Q97.2187 837.087 97.2187 828.36 Q97.2187 819.61 100.274 815.027 Q103.353 810.421 109.163 810.421 Z" fill="#000000" fill-rule="nonzero" fill-opacity="1" /><path clip-path="url(#clip330)" d="M139.325 814.124 Q135.714 814.124 133.885 817.689 Q132.08 821.231 132.08 828.36 Q132.08 835.467 133.885 839.031 Q135.714 842.573 139.325 842.573 Q142.959 842.573 144.765 839.031 Q146.593 835.467 146.593 828.36 Q146.593 821.231 144.765 817.689 Q142.959 814.124 139.325 814.124 M139.325 810.421 Q145.135 810.421 148.191 815.027 Q151.269 819.61 151.269 828.36 Q151.269 837.087 148.191 841.694 Q145.135 846.277 139.325 846.277 Q133.515 846.277 130.436 841.694 Q127.381 837.087 127.381 828.36 Q127.381 819.61 130.436 815.027 Q133.515 810.421 139.325 810.421 Z" fill="#000000" fill-rule="nonzero" fill-opacity="1" /><path clip-path="url(#clip330)" d="M159.533 811.046 L177.89 811.046 L177.89 814.981 L163.816 814.981 L163.816 823.453 Q164.834 823.106 165.853 822.944 Q166.871 822.758 167.89 822.758 Q173.677 822.758 177.056 825.93 Q180.436 829.101 180.436 834.518 Q180.436 840.096 176.964 843.198 Q173.491 846.277 167.172 846.277 Q164.996 846.277 162.728 845.906 Q160.482 845.536 158.075 844.795 L158.075 840.096 Q160.158 841.231 162.38 841.786 Q164.603 842.342 167.079 842.342 Q171.084 842.342 173.422 840.235 Q175.76 838.129 175.76 834.518 Q175.76 830.907 173.422 828.8 Q171.084 826.694 167.079 826.694 Q165.204 826.694 163.329 827.11 Q161.478 827.527 159.533 828.407 L159.533 811.046 Z" fill="#000000" fill-rule="nonzero" fill-opacity="1" /><path clip-path="url(#clip330)" d="M62.9365 578.232 Q59.3254 578.232 57.4967 581.797 Q55.6912 585.339 55.6912 592.469 Q55.6912 599.575 57.4967 603.14 Q59.3254 606.681 62.9365 606.681 Q66.5707 606.681 68.3763 603.14 Q70.205 599.575 70.205 592.469 Q70.205 585.339 68.3763 581.797 Q66.5707 578.232 62.9365 578.232 M62.9365 574.529 Q68.7467 574.529 71.8022 579.135 Q74.8809 583.719 74.8809 592.469 Q74.8809 601.195 71.8022 605.802 Q68.7467 610.385 62.9365 610.385 Q57.1264 610.385 54.0477 605.802 Q50.9921 601.195 50.9921 592.469 Q50.9921 583.719 54.0477 579.135 Q57.1264 574.529 62.9365 574.529 Z" fill="#000000" fill-rule="nonzero" fill-opacity="1" /><path clip-path="url(#clip330)" d="M83.0984 603.834 L87.9827 603.834 L87.9827 609.714 L83.0984 609.714 L83.0984 603.834 Z" fill="#000000" fill-rule="nonzero" fill-opacity="1" /><path clip-path="url(#clip330)" d="M108.168 578.232 Q104.557 578.232 102.728 581.797 Q100.922 585.339 100.922 592.469 Q100.922 599.575 102.728 603.14 Q104.557 606.681 108.168 606.681 Q111.802 606.681 113.608 603.14 Q115.436 599.575 115.436 592.469 Q115.436 585.339 113.608 581.797 Q111.802 578.232 108.168 578.232 M108.168 574.529 Q113.978 574.529 117.033 579.135 Q120.112 583.719 120.112 592.469 Q120.112 601.195 117.033 605.802 Q113.978 610.385 108.168 610.385 Q102.358 610.385 99.2789 605.802 Q96.2234 601.195 96.2234 592.469 Q96.2234 583.719 99.2789 579.135 Q102.358 574.529 108.168 574.529 Z" fill="#000000" fill-rule="nonzero" fill-opacity="1" /><path clip-path="url(#clip330)" d="M129.14 605.779 L136.779 605.779 L136.779 579.413 L128.469 581.08 L128.469 576.82 L136.732 575.154 L141.408 575.154 L141.408 605.779 L149.047 605.779 L149.047 609.714 L129.14 609.714 L129.14 605.779 Z" fill="#000000" fill-rule="nonzero" fill-opacity="1" /><path clip-path="url(#clip330)" d="M168.491 578.232 Q164.88 578.232 163.052 581.797 Q161.246 585.339 161.246 592.469 Q161.246 599.575 163.052 603.14 Q164.88 606.681 168.491 606.681 Q172.126 606.681 173.931 603.14 Q175.76 599.575 175.76 592.469 Q175.76 585.339 173.931 581.797 Q172.126 578.232 168.491 578.232 M168.491 574.529 Q174.302 574.529 177.357 579.135 Q180.436 583.719 180.436 592.469 Q180.436 601.195 177.357 605.802 Q174.302 610.385 168.491 610.385 Q162.681 610.385 159.603 605.802 Q156.547 601.195 156.547 592.469 Q156.547 583.719 159.603 579.135 Q162.681 574.529 168.491 574.529 Z" fill="#000000" fill-rule="nonzero" fill-opacity="1" /><path clip-path="url(#clip330)" d="M63.9319 342.341 Q60.3208 342.341 58.4921 345.906 Q56.6865 349.447 56.6865 356.577 Q56.6865 363.683 58.4921 367.248 Q60.3208 370.79 63.9319 370.79 Q67.5661 370.79 69.3717 367.248 Q71.2004 363.683 71.2004 356.577 Q71.2004 349.447 69.3717 345.906 Q67.5661 342.341 63.9319 342.341 M63.9319 338.637 Q69.742 338.637 72.7976 343.244 Q75.8763 347.827 75.8763 356.577 Q75.8763 365.304 72.7976 369.91 Q69.742 374.493 63.9319 374.493 Q58.1217 374.493 55.043 369.91 Q51.9875 365.304 51.9875 356.577 Q51.9875 347.827 55.043 343.244 Q58.1217 338.637 63.9319 338.637 Z" fill="#000000" fill-rule="nonzero" fill-opacity="1" /><path clip-path="url(#clip330)" d="M84.0938 367.942 L88.978 367.942 L88.978 373.822 L84.0938 373.822 L84.0938 367.942 Z" fill="#000000" fill-rule="nonzero" fill-opacity="1" /><path clip-path="url(#clip330)" d="M109.163 342.341 Q105.552 342.341 103.723 345.906 Q101.918 349.447 101.918 356.577 Q101.918 363.683 103.723 367.248 Q105.552 370.79 109.163 370.79 Q112.797 370.79 114.603 367.248 Q116.432 363.683 116.432 356.577 Q116.432 349.447 114.603 345.906 Q112.797 342.341 109.163 342.341 M109.163 338.637 Q114.973 338.637 118.029 343.244 Q121.107 347.827 121.107 356.577 Q121.107 365.304 118.029 369.91 Q114.973 374.493 109.163 374.493 Q103.353 374.493 100.274 369.91 Q97.2187 365.304 97.2187 356.577 Q97.2187 347.827 100.274 343.244 Q103.353 338.637 109.163 338.637 Z" fill="#000000" fill-rule="nonzero" fill-opacity="1" /><path clip-path="url(#clip330)" d="M130.135 369.887 L137.774 369.887 L137.774 343.521 L129.464 345.188 L129.464 340.929 L137.728 339.262 L142.404 339.262 L142.404 369.887 L150.043 369.887 L150.043 373.822 L130.135 373.822 L130.135 369.887 Z" fill="#000000" fill-rule="nonzero" fill-opacity="1" /><path clip-path="url(#clip330)" d="M159.533 339.262 L177.89 339.262 L177.89 343.197 L163.816 343.197 L163.816 351.669 Q164.834 351.322 165.853 351.16 Q166.871 350.975 167.89 350.975 Q173.677 350.975 177.056 354.146 Q180.436 357.318 180.436 362.734 Q180.436 368.313 176.964 371.415 Q173.491 374.493 167.172 374.493 Q164.996 374.493 162.728 374.123 Q160.482 373.753 158.075 373.012 L158.075 368.313 Q160.158 369.447 162.38 370.003 Q164.603 370.558 167.079 370.558 Q171.084 370.558 173.422 368.452 Q175.76 366.345 175.76 362.734 Q175.76 359.123 173.422 357.017 Q171.084 354.91 167.079 354.91 Q165.204 354.91 163.329 355.327 Q161.478 355.743 159.533 356.623 L159.533 339.262 Z" fill="#000000" fill-rule="nonzero" fill-opacity="1" /><path clip-path="url(#clip330)" d="M62.9365 106.449 Q59.3254 106.449 57.4967 110.014 Q55.6912 113.555 55.6912 120.685 Q55.6912 127.791 57.4967 131.356 Q59.3254 134.898 62.9365 134.898 Q66.5707 134.898 68.3763 131.356 Q70.205 127.791 70.205 120.685 Q70.205 113.555 68.3763 110.014 Q66.5707 106.449 62.9365 106.449 M62.9365 102.745 Q68.7467 102.745 71.8022 107.352 Q74.8809 111.935 74.8809 120.685 Q74.8809 129.412 71.8022 134.018 Q68.7467 138.602 62.9365 138.602 Q57.1264 138.602 54.0477 134.018 Q50.9921 129.412 50.9921 120.685 Q50.9921 111.935 54.0477 107.352 Q57.1264 102.745 62.9365 102.745 Z" fill="#000000" fill-rule="nonzero" fill-opacity="1" /><path clip-path="url(#clip330)" d="M83.0984 132.051 L87.9827 132.051 L87.9827 137.93 L83.0984 137.93 L83.0984 132.051 Z" fill="#000000" fill-rule="nonzero" fill-opacity="1" /><path clip-path="url(#clip330)" d="M108.168 106.449 Q104.557 106.449 102.728 110.014 Q100.922 113.555 100.922 120.685 Q100.922 127.791 102.728 131.356 Q104.557 134.898 108.168 134.898 Q111.802 134.898 113.608 131.356 Q115.436 127.791 115.436 120.685 Q115.436 113.555 113.608 110.014 Q111.802 106.449 108.168 106.449 M108.168 102.745 Q113.978 102.745 117.033 107.352 Q120.112 111.935 120.112 120.685 Q120.112 129.412 117.033 134.018 Q113.978 138.602 108.168 138.602 Q102.358 138.602 99.2789 134.018 Q96.2234 129.412 96.2234 120.685 Q96.2234 111.935 99.2789 107.352 Q102.358 102.745 108.168 102.745 Z" fill="#000000" fill-rule="nonzero" fill-opacity="1" /><path clip-path="url(#clip330)" d="M132.357 133.995 L148.677 133.995 L148.677 137.93 L126.732 137.93 L126.732 133.995 Q129.394 131.241 133.978 126.611 Q138.584 121.958 139.765 120.616 Q142.01 118.092 142.89 116.356 Q143.793 114.597 143.793 112.907 Q143.793 110.153 141.848 108.417 Q139.927 106.68 136.825 106.68 Q134.626 106.68 132.172 107.444 Q129.742 108.208 126.964 109.759 L126.964 105.037 Q129.788 103.903 132.242 103.324 Q134.695 102.745 136.732 102.745 Q142.103 102.745 145.297 105.43 Q148.492 108.116 148.492 112.606 Q148.492 114.736 147.681 116.657 Q146.894 118.555 144.788 121.148 Q144.209 121.819 141.107 125.037 Q138.006 128.231 132.357 133.995 Z" fill="#000000" fill-rule="nonzero" fill-opacity="1" /><path clip-path="url(#clip330)" d="M168.491 106.449 Q164.88 106.449 163.052 110.014 Q161.246 113.555 161.246 120.685 Q161.246 127.791 163.052 131.356 Q164.88 134.898 168.491 134.898 Q172.126 134.898 173.931 131.356 Q175.76 127.791 175.76 120.685 Q175.76 113.555 173.931 110.014 Q172.126 106.449 168.491 106.449 M168.491 102.745 Q174.302 102.745 177.357 107.352 Q180.436 111.935 180.436 120.685 Q180.436 129.412 177.357 134.018 Q174.302 138.602 168.491 138.602 Q162.681 138.602 159.603 134.018 Q156.547 129.412 156.547 120.685 Q156.547 111.935 159.603 107.352 Q162.681 102.745 168.491 102.745 Z" fill="#000000" fill-rule="nonzero" fill-opacity="1" /><path clip-path="url(#clip330)" d="M617.734 30.8748 L617.734 33.2186 L595.703 33.2186 Q596.016 38.1665 598.672 40.7706 Q601.354 43.3487 606.12 43.3487 Q608.88 43.3487 611.458 42.6716 Q614.062 41.9946 616.614 40.6404 L616.614 45.1716 Q614.036 46.2654 611.328 46.8383 Q608.62 47.4112 605.833 47.4112 Q598.854 47.4112 594.766 43.3487 Q590.703 39.2862 590.703 32.3592 Q590.703 25.1978 594.557 21.0051 Q598.437 16.7864 605 16.7864 Q610.885 16.7864 614.297 20.5884 Q617.734 24.3645 617.734 30.8748 M612.943 29.4686 Q612.891 25.5363 610.729 23.1926 Q608.594 20.8488 605.052 20.8488 Q601.042 20.8488 598.62 23.1145 Q596.224 25.3801 595.859 29.4946 L612.943 29.4686 Z" fill="#000000" fill-rule="nonzero" fill-opacity="1" /><path clip-path="url(#clip330)" d="M625.104 35.1456 L625.104 17.4895 L629.896 17.4895 L629.896 34.9634 Q629.896 39.104 631.51 41.1873 Q633.125 43.2446 636.354 43.2446 Q640.234 43.2446 642.474 40.7706 Q644.739 38.2967 644.739 34.0259 L644.739 17.4895 L649.531 17.4895 L649.531 46.656 L644.739 46.656 L644.739 42.1769 Q642.995 44.8331 640.677 46.1352 Q638.385 47.4112 635.338 47.4112 Q630.312 47.4112 627.708 44.2862 Q625.104 41.1612 625.104 35.1456 M637.161 16.7864 L637.161 16.7864 Z" fill="#000000" fill-rule="nonzero" fill-opacity="1" /><path clip-path="url(#clip330)" d="M676.302 21.9686 Q675.494 21.4999 674.531 21.2916 Q673.593 21.0572 672.448 21.0572 Q668.385 21.0572 666.198 23.7134 Q664.036 26.3436 664.036 31.2915 L664.036 46.656 L659.218 46.656 L659.218 17.4895 L664.036 17.4895 L664.036 22.0207 Q665.547 19.3645 667.968 18.0884 Q670.39 16.7864 673.854 16.7864 Q674.349 16.7864 674.948 16.8645 Q675.546 16.9166 676.276 17.0468 L676.302 21.9686 Z" fill="#000000" fill-rule="nonzero" fill-opacity="1" /><path clip-path="url(#clip330)" d="M681.328 17.4895 L686.119 17.4895 L686.119 46.656 L681.328 46.656 L681.328 17.4895 M681.328 6.13538 L686.119 6.13538 L686.119 12.2031 L681.328 12.2031 L681.328 6.13538 Z" fill="#000000" fill-rule="nonzero" fill-opacity="1" /><path clip-path="url(#clip330)" d="M717.083 32.0988 Q717.083 26.8124 714.895 23.8176 Q712.734 20.7968 708.932 20.7968 Q705.13 20.7968 702.942 23.8176 Q700.781 26.8124 700.781 32.0988 Q700.781 37.3852 702.942 40.406 Q705.13 43.4008 708.932 43.4008 Q712.734 43.4008 714.895 40.406 Q717.083 37.3852 717.083 32.0988 M700.781 21.9165 Q702.291 19.3124 704.583 18.0624 Q706.9 16.7864 710.104 16.7864 Q715.416 16.7864 718.723 21.0051 Q722.057 25.2238 722.057 32.0988 Q722.057 38.9737 718.723 43.1925 Q715.416 47.4112 710.104 47.4112 Q706.9 47.4112 704.583 46.1612 Q702.291 44.8852 700.781 42.281 L700.781 46.656 L695.963 46.656 L695.963 6.13538 L700.781 6.13538 L700.781 21.9165 Z" fill="#000000" fill-rule="nonzero" fill-opacity="1" /><path clip-path="url(#clip330)" d="M741.301 20.8488 Q737.447 20.8488 735.208 23.8697 Q732.968 26.8644 732.968 32.0988 Q732.968 37.3331 735.182 40.354 Q737.421 43.3487 741.301 43.3487 Q745.129 43.3487 747.369 40.3279 Q749.609 37.3071 749.609 32.0988 Q749.609 26.9165 747.369 23.8957 Q745.129 20.8488 741.301 20.8488 M741.301 16.7864 Q747.551 16.7864 751.119 20.8488 Q754.687 24.9113 754.687 32.0988 Q754.687 39.2602 751.119 43.3487 Q747.551 47.4112 741.301 47.4112 Q735.025 47.4112 731.458 43.3487 Q727.916 39.2602 727.916 32.0988 Q727.916 24.9113 731.458 20.8488 Q735.025 16.7864 741.301 16.7864 Z" fill="#000000" fill-rule="nonzero" fill-opacity="1" /><path clip-path="url(#clip330)" d="M779.53 21.9686 Q778.723 21.4999 777.759 21.2916 Q776.822 21.0572 775.676 21.0572 Q771.614 21.0572 769.426 23.7134 Q767.265 26.3436 767.265 31.2915 L767.265 46.656 L762.447 46.656 L762.447 17.4895 L767.265 17.4895 L767.265 22.0207 Q768.775 19.3645 771.197 18.0884 Q773.619 16.7864 777.082 16.7864 Q777.577 16.7864 778.176 16.8645 Q778.775 16.9166 779.504 17.0468 L779.53 21.9686 Z" fill="#000000" fill-rule="nonzero" fill-opacity="1" /><path clip-path="url(#clip332)" d="M242.965 986.565 L285.075 986.565 L327.184 1006.7 L369.294 1031.64 L411.404 989.974 L453.513 1021.69 L495.623 1032.64 L537.733 1067.71 L579.842 1056.34 L621.952 1070.59 L664.062 1067.56 L706.172 1069.88 L748.281 1053.35 L790.391 1049.72 L832.501 1000.92 L874.61 969.357 L916.72 977.574 L958.83 1011.68 L1000.94 1045.25 L1043.05 1048.84 L1085.16 1053.96 L1127.27 1045.39 L1127.27 906.79 L1085.16 879.986 L1043.05 909.703 L1000.94 905.99 L958.83 889.591 L916.72 914.585 L874.61 905.786 L832.501 916.126 L790.391 866.634 L748.281 892.059 L706.172 920.262 L664.062 934.19 L621.952 966.042 L579.842 959.069 L537.733 955.661 L495.623 944.414 L453.513 953.169 L411.404 956.51 L369.294 984.343 L327.184 978.521 L285.075 986.565 L242.965 986.565  Z" fill="#009af9" fill-rule="evenodd" fill-opacity="0.1"/>
<polyline clip-path="url(#clip332)" style="stroke:#009af9; stroke-linecap:round; stroke-linejoin:round; stroke-width:4; stroke-opacity:1; fill:none" points="242.965,986.565 285.075,986.565 327.184,992.612 369.294,1007.99 411.404,973.242 453.513,987.43 495.623,988.525 537.733,1011.68 579.842,1007.71 621.952,1018.32 664.062,1000.87 706.172,995.071 748.281,972.706 790.391,958.175 832.501,958.522 874.61,937.571 916.72,946.08 958.83,950.638 1000.94,975.622 1043.05,979.273 1085.16,966.972 1127.27,976.091 "/>
<path clip-path="url(#clip332)" d="M242.965 986.565 L285.075 986.565 L327.184 120.65 L369.294 120.65 L411.404 120.65 L453.513 120.65 L495.623 120.65 L537.733 120.65 L579.842 120.65 L621.952 120.65 L664.062 120.65 L706.172 120.65 L748.281 120.65 L790.391 120.65 L832.501 120.65 L874.61 120.65 L916.72 120.65 L958.83 120.65 L1000.94 120.65 L1043.05 120.65 L1085.16 120.65 L1127.27 120.65 L1127.27 120.65 L1085.16 120.65 L1043.05 120.65 L1000.94 120.65 L958.83 120.65 L916.72 120.65 L874.61 120.65 L832.501 120.65 L790.391 120.65 L748.281 120.65 L706.172 120.65 L664.062 120.65 L621.952 120.65 L579.842 120.65 L537.733 120.65 L495.623 120.65 L453.513 120.65 L411.404 120.65 L369.294 120.65 L327.184 120.65 L285.075 986.565 L242.965 986.565  Z" fill="#e26f46" fill-rule="evenodd" fill-opacity="0.1"/>
<polyline clip-path="url(#clip332)" style="stroke:#e26f46; stroke-linecap:round; stroke-linejoin:round; stroke-width:4; stroke-opacity:1; fill:none" points="242.965,986.565 285.075,986.565 327.184,120.65 369.294,120.65 411.404,120.65 453.513,120.65 495.623,120.65 537.733,120.65 579.842,120.65 621.952,120.65 664.062,120.65 706.172,120.65 748.281,120.65 790.391,120.65 832.501,120.65 874.61,120.65 916.72,120.65 958.83,120.65 1000.94,120.65 1043.05,120.65 1085.16,120.65 1127.27,120.65 "/>
<path clip-path="url(#clip330)" d="M1415.39 1099.09 L2352.76 1099.09 L2352.76 92.1521 L1415.39 92.1521  Z" fill="#ffffff" fill-rule="evenodd" fill-opacity="1"/>
<defs>
  <clipPath id="clip333">
    <rect x="1415" y="92" width="938" height="1008"/>
  </clipPath>
</defs>
<polyline clip-path="url(#clip333)" style="stroke:#000000; stroke-linecap:round; stroke-linejoin:round; stroke-width:2; stroke-opacity:0.1; fill:none" points="1610.36,1099.09 1610.36,92.1521 "/>
<polyline clip-path="url(#clip333)" style="stroke:#000000; stroke-linecap:round; stroke-linejoin:round; stroke-width:2; stroke-opacity:0.1; fill:none" points="1820.91,1099.09 1820.91,92.1521 "/>
<polyline clip-path="url(#clip333)" style="stroke:#000000; stroke-linecap:round; stroke-linejoin:round; stroke-width:2; stroke-opacity:0.1; fill:none" points="2031.46,1099.09 2031.46,92.1521 "/>
<polyline clip-path="url(#clip333)" style="stroke:#000000; stroke-linecap:round; stroke-linejoin:round; stroke-width:2; stroke-opacity:0.1; fill:none" points="2242.01,1099.09 2242.01,92.1521 "/>
<polyline clip-path="url(#clip333)" style="stroke:#000000; stroke-linecap:round; stroke-linejoin:round; stroke-width:2; stroke-opacity:0.1; fill:none" points="1415.39,1031.65 2352.76,1031.65 "/>
<polyline clip-path="url(#clip333)" style="stroke:#000000; stroke-linecap:round; stroke-linejoin:round; stroke-width:2; stroke-opacity:0.1; fill:none" points="1415.39,828.981 2352.76,828.981 "/>
<polyline clip-path="url(#clip333)" style="stroke:#000000; stroke-linecap:round; stroke-linejoin:round; stroke-width:2; stroke-opacity:0.1; fill:none" points="1415.39,626.312 2352.76,626.312 "/>
<polyline clip-path="url(#clip333)" style="stroke:#000000; stroke-linecap:round; stroke-linejoin:round; stroke-width:2; stroke-opacity:0.1; fill:none" points="1415.39,423.643 2352.76,423.643 "/>
<polyline clip-path="url(#clip333)" style="stroke:#000000; stroke-linecap:round; stroke-linejoin:round; stroke-width:2; stroke-opacity:0.1; fill:none" points="1415.39,220.974 2352.76,220.974 "/>
<polyline clip-path="url(#clip330)" style="stroke:#000000; stroke-linecap:round; stroke-linejoin:round; stroke-width:4; stroke-opacity:1; fill:none" points="1415.39,1099.09 2352.76,1099.09 "/>
<polyline clip-path="url(#clip330)" style="stroke:#000000; stroke-linecap:round; stroke-linejoin:round; stroke-width:4; stroke-opacity:1; fill:none" points="1610.36,1099.09 1610.36,1080.19 "/>
<polyline clip-path="url(#clip330)" style="stroke:#000000; stroke-linecap:round; stroke-linejoin:round; stroke-width:4; stroke-opacity:1; fill:none" points="1820.91,1099.09 1820.91,1080.19 "/>
<polyline clip-path="url(#clip330)" style="stroke:#000000; stroke-linecap:round; stroke-linejoin:round; stroke-width:4; stroke-opacity:1; fill:none" points="2031.46,1099.09 2031.46,1080.19 "/>
<polyline clip-path="url(#clip330)" style="stroke:#000000; stroke-linecap:round; stroke-linejoin:round; stroke-width:4; stroke-opacity:1; fill:none" points="2242.01,1099.09 2242.01,1080.19 "/>
<path clip-path="url(#clip330)" d="M1600.64 1126.93 L1619 1126.93 L1619 1130.86 L1604.92 1130.86 L1604.92 1139.34 Q1605.94 1138.99 1606.96 1138.83 Q1607.98 1138.64 1609 1138.64 Q1614.78 1138.64 1618.16 1141.81 Q1621.54 1144.98 1621.54 1150.4 Q1621.54 1155.98 1618.07 1159.08 Q1614.6 1162.16 1608.28 1162.16 Q1606.1 1162.16 1603.83 1161.79 Q1601.59 1161.42 1599.18 1160.68 L1599.18 1155.98 Q1601.26 1157.11 1603.49 1157.67 Q1605.71 1158.22 1608.19 1158.22 Q1612.19 1158.22 1614.53 1156.12 Q1616.87 1154.01 1616.87 1150.4 Q1616.87 1146.79 1614.53 1144.68 Q1612.19 1142.58 1608.19 1142.58 Q1606.31 1142.58 1604.44 1142.99 Q1602.58 1143.41 1600.64 1144.29 L1600.64 1126.93 Z" fill="#000000" fill-rule="nonzero" fill-opacity="1" /><path clip-path="url(#clip330)" d="M1795.6 1157.55 L1803.24 1157.55 L1803.24 1131.19 L1794.93 1132.85 L1794.93 1128.59 L1803.19 1126.93 L1807.87 1126.93 L1807.87 1157.55 L1815.51 1157.55 L1815.51 1161.49 L1795.6 1161.49 L1795.6 1157.55 Z" fill="#000000" fill-rule="nonzero" fill-opacity="1" /><path clip-path="url(#clip330)" d="M1834.95 1130.01 Q1831.34 1130.01 1829.51 1133.57 Q1827.7 1137.11 1827.7 1144.24 Q1827.7 1151.35 1829.51 1154.91 Q1831.34 1158.46 1834.95 1158.46 Q1838.58 1158.46 1840.39 1154.91 Q1842.22 1151.35 1842.22 1144.24 Q1842.22 1137.11 1840.39 1133.57 Q1838.58 1130.01 1834.95 1130.01 M1834.95 1126.3 Q1840.76 1126.3 1843.82 1130.91 Q1846.89 1135.49 1846.89 1144.24 Q1846.89 1152.97 1843.82 1157.58 Q1840.76 1162.16 1834.95 1162.16 Q1829.14 1162.16 1826.06 1157.58 Q1823.01 1152.97 1823.01 1144.24 Q1823.01 1135.49 1826.06 1130.91 Q1829.14 1126.3 1834.95 1126.3 Z" fill="#000000" fill-rule="nonzero" fill-opacity="1" /><path clip-path="url(#clip330)" d="M2006.64 1157.55 L2014.28 1157.55 L2014.28 1131.19 L2005.97 1132.85 L2005.97 1128.59 L2014.24 1126.93 L2018.91 1126.93 L2018.91 1157.55 L2026.55 1157.55 L2026.55 1161.49 L2006.64 1161.49 L2006.64 1157.55 Z" fill="#000000" fill-rule="nonzero" fill-opacity="1" /><path clip-path="url(#clip330)" d="M2036.04 1126.93 L2054.4 1126.93 L2054.4 1130.86 L2040.32 1130.86 L2040.32 1139.34 Q2041.34 1138.99 2042.36 1138.83 Q2043.38 1138.64 2044.4 1138.64 Q2050.19 1138.64 2053.57 1141.81 Q2056.94 1144.98 2056.94 1150.4 Q2056.94 1155.98 2053.47 1159.08 Q2050 1162.16 2043.68 1162.16 Q2041.51 1162.16 2039.24 1161.79 Q2036.99 1161.42 2034.58 1160.68 L2034.58 1155.98 Q2036.67 1157.11 2038.89 1157.67 Q2041.11 1158.22 2043.59 1158.22 Q2047.59 1158.22 2049.93 1156.12 Q2052.27 1154.01 2052.27 1150.4 Q2052.27 1146.79 2049.93 1144.68 Q2047.59 1142.58 2043.59 1142.58 Q2041.71 1142.58 2039.84 1142.99 Q2037.99 1143.41 2036.04 1144.29 L2036.04 1126.93 Z" fill="#000000" fill-rule="nonzero" fill-opacity="1" /><path clip-path="url(#clip330)" d="M2220.78 1157.55 L2237.1 1157.55 L2237.1 1161.49 L2215.16 1161.49 L2215.16 1157.55 Q2217.82 1154.8 2222.4 1150.17 Q2227.01 1145.52 2228.19 1144.17 Q2230.43 1141.65 2231.31 1139.91 Q2232.22 1138.15 2232.22 1136.46 Q2232.22 1133.71 2230.27 1131.97 Q2228.35 1130.24 2225.25 1130.24 Q2223.05 1130.24 2220.6 1131 Q2218.16 1131.77 2215.39 1133.32 L2215.39 1128.59 Q2218.21 1127.46 2220.66 1126.88 Q2223.12 1126.3 2225.16 1126.3 Q2230.53 1126.3 2233.72 1128.99 Q2236.91 1131.67 2236.91 1136.16 Q2236.91 1138.29 2236.1 1140.21 Q2235.32 1142.11 2233.21 1144.71 Q2232.63 1145.38 2229.53 1148.59 Q2226.43 1151.79 2220.78 1157.55 Z" fill="#000000" fill-rule="nonzero" fill-opacity="1" /><path clip-path="url(#clip330)" d="M2256.91 1130.01 Q2253.3 1130.01 2251.47 1133.57 Q2249.67 1137.11 2249.67 1144.24 Q2249.67 1151.35 2251.47 1154.91 Q2253.3 1158.46 2256.91 1158.46 Q2260.55 1158.46 2262.35 1154.91 Q2264.18 1151.35 2264.18 1144.24 Q2264.18 1137.11 2262.35 1133.57 Q2260.55 1130.01 2256.91 1130.01 M2256.91 1126.3 Q2262.72 1126.3 2265.78 1130.91 Q2268.86 1135.49 2268.86 1144.24 Q2268.86 1152.97 2265.78 1157.58 Q2262.72 1162.16 2256.91 1162.16 Q2251.1 1162.16 2248.03 1157.58 Q2244.97 1152.97 2244.97 1144.24 Q2244.97 1135.49 2248.03 1130.91 Q2251.1 1126.3 2256.91 1126.3 Z" fill="#000000" fill-rule="nonzero" fill-opacity="1" /><polyline clip-path="url(#clip330)" style="stroke:#000000; stroke-linecap:round; stroke-linejoin:round; stroke-width:4; stroke-opacity:1; fill:none" points="1415.39,1099.09 1415.39,92.1521 "/>
<polyline clip-path="url(#clip330)" style="stroke:#000000; stroke-linecap:round; stroke-linejoin:round; stroke-width:4; stroke-opacity:1; fill:none" points="1415.39,1031.65 1434.29,1031.65 "/>
<polyline clip-path="url(#clip330)" style="stroke:#000000; stroke-linecap:round; stroke-linejoin:round; stroke-width:4; stroke-opacity:1; fill:none" points="1415.39,828.981 1434.29,828.981 "/>
<polyline clip-path="url(#clip330)" style="stroke:#000000; stroke-linecap:round; stroke-linejoin:round; stroke-width:4; stroke-opacity:1; fill:none" points="1415.39,626.312 1434.29,626.312 "/>
<polyline clip-path="url(#clip330)" style="stroke:#000000; stroke-linecap:round; stroke-linejoin:round; stroke-width:4; stroke-opacity:1; fill:none" points="1415.39,423.643 1434.29,423.643 "/>
<polyline clip-path="url(#clip330)" style="stroke:#000000; stroke-linecap:round; stroke-linejoin:round; stroke-width:4; stroke-opacity:1; fill:none" points="1415.39,220.974 1434.29,220.974 "/>
<path clip-path="url(#clip330)" d="M1252.71 1045 L1260.34 1045 L1260.34 1018.63 L1252.03 1020.3 L1252.03 1016.04 L1260.3 1014.37 L1264.97 1014.37 L1264.97 1045 L1272.61 1045 L1272.61 1048.93 L1252.71 1048.93 L1252.71 1045 Z" fill="#000000" fill-rule="nonzero" fill-opacity="1" /><path clip-path="url(#clip330)" d="M1282.06 1043.05 L1286.94 1043.05 L1286.94 1048.93 L1282.06 1048.93 L1282.06 1043.05 Z" fill="#000000" fill-rule="nonzero" fill-opacity="1" /><path clip-path="url(#clip330)" d="M1307.13 1017.45 Q1303.51 1017.45 1301.69 1021.01 Q1299.88 1024.56 1299.88 1031.68 Q1299.88 1038.79 1301.69 1042.36 Q1303.51 1045.9 1307.13 1045.9 Q1310.76 1045.9 1312.57 1042.36 Q1314.39 1038.79 1314.39 1031.68 Q1314.39 1024.56 1312.57 1021.01 Q1310.76 1017.45 1307.13 1017.45 M1307.13 1013.75 Q1312.94 1013.75 1315.99 1018.35 Q1319.07 1022.93 1319.07 1031.68 Q1319.07 1040.41 1315.99 1045.02 Q1312.94 1049.6 1307.13 1049.6 Q1301.32 1049.6 1298.24 1045.02 Q1295.18 1040.41 1295.18 1031.68 Q1295.18 1022.93 1298.24 1018.35 Q1301.32 1013.75 1307.13 1013.75 Z" fill="#000000" fill-rule="nonzero" fill-opacity="1" /><path clip-path="url(#clip330)" d="M1337.29 1017.45 Q1333.68 1017.45 1331.85 1021.01 Q1330.04 1024.56 1330.04 1031.68 Q1330.04 1038.79 1331.85 1042.36 Q1333.68 1045.9 1337.29 1045.9 Q1340.92 1045.9 1342.73 1042.36 Q1344.56 1038.79 1344.56 1031.68 Q1344.56 1024.56 1342.73 1021.01 Q1340.92 1017.45 1337.29 1017.45 M1337.29 1013.75 Q1343.1 1013.75 1346.15 1018.35 Q1349.23 1022.93 1349.23 1031.68 Q1349.23 1040.41 1346.15 1045.02 Q1343.1 1049.6 1337.29 1049.6 Q1331.48 1049.6 1328.4 1045.02 Q1325.34 1040.41 1325.34 1031.68 Q1325.34 1022.93 1328.4 1018.35 Q1331.48 1013.75 1337.29 1013.75 Z" fill="#000000" fill-rule="nonzero" fill-opacity="1" /><path clip-path="url(#clip330)" d="M1367.45 1017.45 Q1363.84 1017.45 1362.01 1021.01 Q1360.2 1024.56 1360.2 1031.68 Q1360.2 1038.79 1362.01 1042.36 Q1363.84 1045.9 1367.45 1045.9 Q1371.08 1045.9 1372.89 1042.36 Q1374.72 1038.79 1374.72 1031.68 Q1374.72 1024.56 1372.89 1021.01 Q1371.08 1017.45 1367.45 1017.45 M1367.45 1013.75 Q1373.26 1013.75 1376.32 1018.35 Q1379.39 1022.93 1379.39 1031.68 Q1379.39 1040.41 1376.32 1045.02 Q1373.26 1049.6 1367.45 1049.6 Q1361.64 1049.6 1358.56 1045.02 Q1355.51 1040.41 1355.51 1031.68 Q1355.51 1022.93 1358.56 1018.35 Q1361.64 1013.75 1367.45 1013.75 Z" fill="#000000" fill-rule="nonzero" fill-opacity="1" /><path clip-path="url(#clip330)" d="M1253.7 842.326 L1261.34 842.326 L1261.34 815.96 L1253.03 817.627 L1253.03 813.368 L1261.29 811.701 L1265.97 811.701 L1265.97 842.326 L1273.61 842.326 L1273.61 846.261 L1253.7 846.261 L1253.7 842.326 Z" fill="#000000" fill-rule="nonzero" fill-opacity="1" /><path clip-path="url(#clip330)" d="M1283.05 840.382 L1287.94 840.382 L1287.94 846.261 L1283.05 846.261 L1283.05 840.382 Z" fill="#000000" fill-rule="nonzero" fill-opacity="1" /><path clip-path="url(#clip330)" d="M1308.12 814.78 Q1304.51 814.78 1302.68 818.345 Q1300.88 821.886 1300.88 829.016 Q1300.88 836.122 1302.68 839.687 Q1304.51 843.229 1308.12 843.229 Q1311.76 843.229 1313.56 839.687 Q1315.39 836.122 1315.39 829.016 Q1315.39 821.886 1313.56 818.345 Q1311.76 814.78 1308.12 814.78 M1308.12 811.076 Q1313.93 811.076 1316.99 815.683 Q1320.07 820.266 1320.07 829.016 Q1320.07 837.743 1316.99 842.349 Q1313.93 846.932 1308.12 846.932 Q1302.31 846.932 1299.23 842.349 Q1296.18 837.743 1296.18 829.016 Q1296.18 820.266 1299.23 815.683 Q1302.31 811.076 1308.12 811.076 Z" fill="#000000" fill-rule="nonzero" fill-opacity="1" /><path clip-path="url(#clip330)" d="M1332.31 842.326 L1348.63 842.326 L1348.63 846.261 L1326.69 846.261 L1326.69 842.326 Q1329.35 839.571 1333.93 834.942 Q1338.54 830.289 1339.72 828.946 Q1341.96 826.423 1342.84 824.687 Q1343.75 822.928 1343.75 821.238 Q1343.75 818.483 1341.8 816.747 Q1339.88 815.011 1336.78 815.011 Q1334.58 815.011 1332.13 815.775 Q1329.7 816.539 1326.92 818.09 L1326.92 813.368 Q1329.74 812.234 1332.2 811.655 Q1334.65 811.076 1336.69 811.076 Q1342.06 811.076 1345.25 813.761 Q1348.45 816.446 1348.45 820.937 Q1348.45 823.067 1347.64 824.988 Q1346.85 826.886 1344.74 829.479 Q1344.16 830.15 1341.06 833.368 Q1337.96 836.562 1332.31 842.326 Z" fill="#000000" fill-rule="nonzero" fill-opacity="1" /><path clip-path="url(#clip330)" d="M1358.49 811.701 L1376.85 811.701 L1376.85 815.636 L1362.77 815.636 L1362.77 824.108 Q1363.79 823.761 1364.81 823.599 Q1365.83 823.414 1366.85 823.414 Q1372.63 823.414 1376.01 826.585 Q1379.39 829.757 1379.39 835.173 Q1379.39 840.752 1375.92 843.854 Q1372.45 846.932 1366.13 846.932 Q1363.95 846.932 1361.69 846.562 Q1359.44 846.192 1357.03 845.451 L1357.03 840.752 Q1359.12 841.886 1361.34 842.442 Q1363.56 842.997 1366.04 842.997 Q1370.04 842.997 1372.38 840.891 Q1374.72 838.784 1374.72 835.173 Q1374.72 831.562 1372.38 829.456 Q1370.04 827.349 1366.04 827.349 Q1364.16 827.349 1362.29 827.766 Q1360.44 828.183 1358.49 829.062 L1358.49 811.701 Z" fill="#000000" fill-rule="nonzero" fill-opacity="1" /><path clip-path="url(#clip330)" d="M1252.71 639.657 L1260.34 639.657 L1260.34 613.291 L1252.03 614.958 L1252.03 610.699 L1260.3 609.032 L1264.97 609.032 L1264.97 639.657 L1272.61 639.657 L1272.61 643.592 L1252.71 643.592 L1252.71 639.657 Z" fill="#000000" fill-rule="nonzero" fill-opacity="1" /><path clip-path="url(#clip330)" d="M1282.06 637.712 L1286.94 637.712 L1286.94 643.592 L1282.06 643.592 L1282.06 637.712 Z" fill="#000000" fill-rule="nonzero" fill-opacity="1" /><path clip-path="url(#clip330)" d="M1307.13 612.111 Q1303.51 612.111 1301.69 615.675 Q1299.88 619.217 1299.88 626.347 Q1299.88 633.453 1301.69 637.018 Q1303.51 640.56 1307.13 640.56 Q1310.76 640.56 1312.57 637.018 Q1314.39 633.453 1314.39 626.347 Q1314.39 619.217 1312.57 615.675 Q1310.76 612.111 1307.13 612.111 M1307.13 608.407 Q1312.94 608.407 1315.99 613.013 Q1319.07 617.597 1319.07 626.347 Q1319.07 635.074 1315.99 639.68 Q1312.94 644.263 1307.13 644.263 Q1301.32 644.263 1298.24 639.68 Q1295.18 635.074 1295.18 626.347 Q1295.18 617.597 1298.24 613.013 Q1301.32 608.407 1307.13 608.407 Z" fill="#000000" fill-rule="nonzero" fill-opacity="1" /><path clip-path="url(#clip330)" d="M1327.33 609.032 L1345.69 609.032 L1345.69 612.967 L1331.62 612.967 L1331.62 621.439 Q1332.64 621.092 1333.65 620.93 Q1334.67 620.745 1335.69 620.745 Q1341.48 620.745 1344.86 623.916 Q1348.24 627.087 1348.24 632.504 Q1348.24 638.083 1344.76 641.185 Q1341.29 644.263 1334.97 644.263 Q1332.8 644.263 1330.53 643.893 Q1328.28 643.523 1325.88 642.782 L1325.88 638.083 Q1327.96 639.217 1330.18 639.773 Q1332.4 640.328 1334.88 640.328 Q1338.89 640.328 1341.22 638.222 Q1343.56 636.115 1343.56 632.504 Q1343.56 628.893 1341.22 626.787 Q1338.89 624.68 1334.88 624.68 Q1333.01 624.68 1331.13 625.097 Q1329.28 625.513 1327.33 626.393 L1327.33 609.032 Z" fill="#000000" fill-rule="nonzero" fill-opacity="1" /><path clip-path="url(#clip330)" d="M1367.45 612.111 Q1363.84 612.111 1362.01 615.675 Q1360.2 619.217 1360.2 626.347 Q1360.2 633.453 1362.01 637.018 Q1363.84 640.56 1367.45 640.56 Q1371.08 640.56 1372.89 637.018 Q1374.72 633.453 1374.72 626.347 Q1374.72 619.217 1372.89 615.675 Q1371.08 612.111 1367.45 612.111 M1367.45 608.407 Q1373.26 608.407 1376.32 613.013 Q1379.39 617.597 1379.39 626.347 Q1379.39 635.074 1376.32 639.68 Q1373.26 644.263 1367.45 644.263 Q1361.64 644.263 1358.56 639.68 Q1355.51 635.074 1355.51 626.347 Q1355.51 617.597 1358.56 613.013 Q1361.64 608.407 1367.45 608.407 Z" fill="#000000" fill-rule="nonzero" fill-opacity="1" /><path clip-path="url(#clip330)" d="M1253.7 436.988 L1261.34 436.988 L1261.34 410.622 L1253.03 412.289 L1253.03 408.03 L1261.29 406.363 L1265.97 406.363 L1265.97 436.988 L1273.61 436.988 L1273.61 440.923 L1253.7 440.923 L1253.7 436.988 Z" fill="#000000" fill-rule="nonzero" fill-opacity="1" /><path clip-path="url(#clip330)" d="M1283.05 435.043 L1287.94 435.043 L1287.94 440.923 L1283.05 440.923 L1283.05 435.043 Z" fill="#000000" fill-rule="nonzero" fill-opacity="1" /><path clip-path="url(#clip330)" d="M1308.12 409.442 Q1304.51 409.442 1302.68 413.006 Q1300.88 416.548 1300.88 423.678 Q1300.88 430.784 1302.68 434.349 Q1304.51 437.891 1308.12 437.891 Q1311.76 437.891 1313.56 434.349 Q1315.39 430.784 1315.39 423.678 Q1315.39 416.548 1313.56 413.006 Q1311.76 409.442 1308.12 409.442 M1308.12 405.738 Q1313.93 405.738 1316.99 410.344 Q1320.07 414.928 1320.07 423.678 Q1320.07 432.404 1316.99 437.011 Q1313.93 441.594 1308.12 441.594 Q1302.31 441.594 1299.23 437.011 Q1296.18 432.404 1296.18 423.678 Q1296.18 414.928 1299.23 410.344 Q1302.31 405.738 1308.12 405.738 Z" fill="#000000" fill-rule="nonzero" fill-opacity="1" /><path clip-path="url(#clip330)" d="M1327.1 406.363 L1349.32 406.363 L1349.32 408.354 L1336.78 440.923 L1331.89 440.923 L1343.7 410.298 L1327.1 410.298 L1327.1 406.363 Z" fill="#000000" fill-rule="nonzero" fill-opacity="1" /><path clip-path="url(#clip330)" d="M1358.49 406.363 L1376.85 406.363 L1376.85 410.298 L1362.77 410.298 L1362.77 418.77 Q1363.79 418.423 1364.81 418.261 Q1365.83 418.076 1366.85 418.076 Q1372.63 418.076 1376.01 421.247 Q1379.39 424.418 1379.39 429.835 Q1379.39 435.414 1375.92 438.516 Q1372.45 441.594 1366.13 441.594 Q1363.95 441.594 1361.69 441.224 Q1359.44 440.853 1357.03 440.113 L1357.03 435.414 Q1359.12 436.548 1361.34 437.103 Q1363.56 437.659 1366.04 437.659 Q1370.04 437.659 1372.38 435.553 Q1374.72 433.446 1374.72 429.835 Q1374.72 426.224 1372.38 424.117 Q1370.04 422.011 1366.04 422.011 Q1364.16 422.011 1362.29 422.428 Q1360.44 422.844 1358.49 423.724 L1358.49 406.363 Z" fill="#000000" fill-rule="nonzero" fill-opacity="1" /><path clip-path="url(#clip330)" d="M1252.71 234.319 L1260.34 234.319 L1260.34 207.953 L1252.03 209.62 L1252.03 205.36 L1260.3 203.694 L1264.97 203.694 L1264.97 234.319 L1272.61 234.319 L1272.61 238.254 L1252.71 238.254 L1252.71 234.319 Z" fill="#000000" fill-rule="nonzero" fill-opacity="1" /><path clip-path="url(#clip330)" d="M1282.06 232.374 L1286.94 232.374 L1286.94 238.254 L1282.06 238.254 L1282.06 232.374 Z" fill="#000000" fill-rule="nonzero" fill-opacity="1" /><path clip-path="url(#clip330)" d="M1297.94 234.319 L1305.58 234.319 L1305.58 207.953 L1297.27 209.62 L1297.27 205.36 L1305.53 203.694 L1310.2 203.694 L1310.2 234.319 L1317.84 234.319 L1317.84 238.254 L1297.94 238.254 L1297.94 234.319 Z" fill="#000000" fill-rule="nonzero" fill-opacity="1" /><path clip-path="url(#clip330)" d="M1337.29 206.772 Q1333.68 206.772 1331.85 210.337 Q1330.04 213.879 1330.04 221.009 Q1330.04 228.115 1331.85 231.68 Q1333.68 235.221 1337.29 235.221 Q1340.92 235.221 1342.73 231.68 Q1344.56 228.115 1344.56 221.009 Q1344.56 213.879 1342.73 210.337 Q1340.92 206.772 1337.29 206.772 M1337.29 203.069 Q1343.1 203.069 1346.15 207.675 Q1349.23 212.259 1349.23 221.009 Q1349.23 229.735 1346.15 234.342 Q1343.1 238.925 1337.29 238.925 Q1331.48 238.925 1328.4 234.342 Q1325.34 229.735 1325.34 221.009 Q1325.34 212.259 1328.4 207.675 Q1331.48 203.069 1337.29 203.069 Z" fill="#000000" fill-rule="nonzero" fill-opacity="1" /><path clip-path="url(#clip330)" d="M1367.45 206.772 Q1363.84 206.772 1362.01 210.337 Q1360.2 213.879 1360.2 221.009 Q1360.2 228.115 1362.01 231.68 Q1363.84 235.221 1367.45 235.221 Q1371.08 235.221 1372.89 231.68 Q1374.72 228.115 1374.72 221.009 Q1374.72 213.879 1372.89 210.337 Q1371.08 206.772 1367.45 206.772 M1367.45 203.069 Q1373.26 203.069 1376.32 207.675 Q1379.39 212.259 1379.39 221.009 Q1379.39 229.735 1376.32 234.342 Q1373.26 238.925 1367.45 238.925 Q1361.64 238.925 1358.56 234.342 Q1355.51 229.735 1355.51 221.009 Q1355.51 212.259 1358.56 207.675 Q1361.64 203.069 1367.45 203.069 Z" fill="#000000" fill-rule="nonzero" fill-opacity="1" /><path clip-path="url(#clip330)" d="M1743.36 31.7342 Q1743.36 26.5259 1741.2 23.6613 Q1739.06 20.7968 1735.18 20.7968 Q1731.33 20.7968 1729.17 23.6613 Q1727.03 26.5259 1727.03 31.7342 Q1727.03 36.9165 1729.17 39.781 Q1731.33 42.6456 1735.18 42.6456 Q1739.06 42.6456 1741.2 39.781 Q1743.36 36.9165 1743.36 31.7342 M1748.15 43.0362 Q1748.15 50.4841 1744.84 54.1039 Q1741.54 57.7497 1734.71 57.7497 Q1732.19 57.7497 1729.95 57.3591 Q1727.71 56.9945 1725.6 56.2132 L1725.6 51.5518 Q1727.71 52.6976 1729.77 53.2445 Q1731.82 53.7914 1733.96 53.7914 Q1738.67 53.7914 1741.02 51.3174 Q1743.36 48.8695 1743.36 43.8956 L1743.36 41.5258 Q1741.88 44.1039 1739.56 45.38 Q1737.24 46.656 1734.01 46.656 Q1728.65 46.656 1725.36 42.5675 Q1722.08 38.479 1722.08 31.7342 Q1722.08 24.9634 1725.36 20.8749 Q1728.65 16.7864 1734.01 16.7864 Q1737.24 16.7864 1739.56 18.0624 Q1741.88 19.3384 1743.36 21.9165 L1743.36 17.4895 L1748.15 17.4895 L1748.15 43.0362 Z" fill="#000000" fill-rule="nonzero" fill-opacity="1" /><path clip-path="url(#clip330)" d="M1777.21 21.9165 L1777.21 6.13538 L1782.01 6.13538 L1782.01 46.656 L1777.21 46.656 L1777.21 42.281 Q1775.7 44.8852 1773.39 46.1612 Q1771.09 47.4112 1767.86 47.4112 Q1762.58 47.4112 1759.25 43.1925 Q1755.94 38.9737 1755.94 32.0988 Q1755.94 25.2238 1759.25 21.0051 Q1762.58 16.7864 1767.86 16.7864 Q1771.09 16.7864 1773.39 18.0624 Q1775.7 19.3124 1777.21 21.9165 M1760.89 32.0988 Q1760.89 37.3852 1763.05 40.406 Q1765.23 43.4008 1769.04 43.4008 Q1772.84 43.4008 1775.03 40.406 Q1777.21 37.3852 1777.21 32.0988 Q1777.21 26.8124 1775.03 23.8176 Q1772.84 20.7968 1769.04 20.7968 Q1765.23 20.7968 1763.05 23.8176 Q1760.89 26.8124 1760.89 32.0988 Z" fill="#000000" fill-rule="nonzero" fill-opacity="1" /><path clip-path="url(#clip330)" d="M1796.51 42.281 L1796.51 57.7497 L1791.69 57.7497 L1791.69 17.4895 L1796.51 17.4895 L1796.51 21.9165 Q1798.02 19.3124 1800.31 18.0624 Q1802.63 16.7864 1805.83 16.7864 Q1811.15 16.7864 1814.45 21.0051 Q1817.79 25.2238 1817.79 32.0988 Q1817.79 38.9737 1814.45 43.1925 Q1811.15 47.4112 1805.83 47.4112 Q1802.63 47.4112 1800.31 46.1612 Q1798.02 44.8852 1796.51 42.281 M1812.81 32.0988 Q1812.81 26.8124 1810.62 23.8176 Q1808.46 20.7968 1804.66 20.7968 Q1800.86 20.7968 1798.67 23.8176 Q1796.51 26.8124 1796.51 32.0988 Q1796.51 37.3852 1798.67 40.406 Q1800.86 43.4008 1804.66 43.4008 Q1808.46 43.4008 1810.62 40.406 Q1812.81 37.3852 1812.81 32.0988 Z" fill="#000000" fill-rule="nonzero" fill-opacity="1" /><path clip-path="url(#clip330)" d="M1861.87 21.9165 L1861.87 6.13538 L1866.67 6.13538 L1866.67 46.656 L1861.87 46.656 L1861.87 42.281 Q1860.36 44.8852 1858.05 46.1612 Q1855.75 47.4112 1852.53 47.4112 Q1847.24 47.4112 1843.91 43.1925 Q1840.6 38.9737 1840.6 32.0988 Q1840.6 25.2238 1843.91 21.0051 Q1847.24 16.7864 1852.53 16.7864 Q1855.75 16.7864 1858.05 18.0624 Q1860.36 19.3124 1861.87 21.9165 M1845.55 32.0988 Q1845.55 37.3852 1847.71 40.406 Q1849.9 43.4008 1853.7 43.4008 Q1857.5 43.4008 1859.69 40.406 Q1861.87 37.3852 1861.87 32.0988 Q1861.87 26.8124 1859.69 23.8176 Q1857.5 20.7968 1853.7 20.7968 Q1849.9 20.7968 1847.71 23.8176 Q1845.55 26.8124 1845.55 32.0988 Z" fill="#000000" fill-rule="nonzero" fill-opacity="1" /><path clip-path="url(#clip330)" d="M1901.48 30.8748 L1901.48 33.2186 L1879.45 33.2186 Q1879.77 38.1665 1882.42 40.7706 Q1885.1 43.3487 1889.87 43.3487 Q1892.63 43.3487 1895.21 42.6716 Q1897.81 41.9946 1900.36 40.6404 L1900.36 45.1716 Q1897.79 46.2654 1895.08 46.8383 Q1892.37 47.4112 1889.58 47.4112 Q1882.6 47.4112 1878.52 43.3487 Q1874.45 39.2862 1874.45 32.3592 Q1874.45 25.1978 1878.31 21.0051 Q1882.19 16.7864 1888.75 16.7864 Q1894.63 16.7864 1898.05 20.5884 Q1901.48 24.3645 1901.48 30.8748 M1896.69 29.4686 Q1896.64 25.5363 1894.48 23.1926 Q1892.34 20.8488 1888.8 20.8488 Q1884.79 20.8488 1882.37 23.1145 Q1879.97 25.3801 1879.61 29.4946 L1896.69 29.4686 Z" fill="#000000" fill-rule="nonzero" fill-opacity="1" /><path clip-path="url(#clip330)" d="M1924.11 6.13538 L1924.11 10.1197 L1919.53 10.1197 Q1916.95 10.1197 1915.94 11.1614 Q1914.95 12.2031 1914.95 14.9114 L1914.95 17.4895 L1922.84 17.4895 L1922.84 21.2134 L1914.95 21.2134 L1914.95 46.656 L1910.13 46.656 L1910.13 21.2134 L1905.55 21.2134 L1905.55 17.4895 L1910.13 17.4895 L1910.13 15.4583 Q1910.13 10.5885 1912.4 8.37496 Q1914.66 6.13538 1919.58 6.13538 L1924.11 6.13538 Z" fill="#000000" fill-rule="nonzero" fill-opacity="1" /><path clip-path="url(#clip330)" d="M1928.12 6.13538 L1932.92 6.13538 L1932.92 46.656 L1928.12 46.656 L1928.12 6.13538 Z" fill="#000000" fill-rule="nonzero" fill-opacity="1" /><path clip-path="url(#clip330)" d="M1956.2 31.9946 Q1950.39 31.9946 1948.15 33.3227 Q1945.91 34.6509 1945.91 37.854 Q1945.91 40.406 1947.58 41.9164 Q1949.27 43.4008 1952.16 43.4008 Q1956.14 43.4008 1958.54 40.5883 Q1960.96 37.7498 1960.96 33.0623 L1960.96 31.9946 L1956.2 31.9946 M1965.75 30.0155 L1965.75 46.656 L1960.96 46.656 L1960.96 42.2289 Q1959.32 44.8852 1956.87 46.1612 Q1954.43 47.4112 1950.88 47.4112 Q1946.41 47.4112 1943.75 44.9112 Q1941.12 42.3852 1941.12 38.1665 Q1941.12 33.2446 1944.4 30.7446 Q1947.71 28.2446 1954.24 28.2446 L1960.96 28.2446 L1960.96 27.7759 Q1960.96 24.4686 1958.78 22.6718 Q1956.61 20.8488 1952.68 20.8488 Q1950.18 20.8488 1947.81 21.4478 Q1945.44 22.0468 1943.25 23.2447 L1943.25 18.8176 Q1945.88 17.802 1948.36 17.3072 Q1950.83 16.7864 1953.18 16.7864 Q1959.5 16.7864 1962.63 20.0676 Q1965.75 23.3488 1965.75 30.0155 Z" fill="#000000" fill-rule="nonzero" fill-opacity="1" /><path clip-path="url(#clip330)" d="M1980.36 9.20828 L1980.36 17.4895 L1990.23 17.4895 L1990.23 21.2134 L1980.36 21.2134 L1980.36 37.0467 Q1980.36 40.6144 1981.33 41.63 Q1982.32 42.6456 1985.31 42.6456 L1990.23 42.6456 L1990.23 46.656 L1985.31 46.656 Q1979.76 46.656 1977.66 44.5987 Q1975.55 42.5154 1975.55 37.0467 L1975.55 21.2134 L1972.03 21.2134 L1972.03 17.4895 L1975.55 17.4895 L1975.55 9.20828 L1980.36 9.20828 Z" fill="#000000" fill-rule="nonzero" fill-opacity="1" /><path clip-path="url(#clip330)" d="M2007.84 20.8488 Q2003.98 20.8488 2001.74 23.8697 Q1999.5 26.8644 1999.5 32.0988 Q1999.5 37.3331 2001.72 40.354 Q2003.96 43.3487 2007.84 43.3487 Q2011.67 43.3487 2013.91 40.3279 Q2016.14 37.3071 2016.14 32.0988 Q2016.14 26.9165 2013.91 23.8957 Q2011.67 20.8488 2007.84 20.8488 M2007.84 16.7864 Q2014.09 16.7864 2017.66 20.8488 Q2021.22 24.9113 2021.22 32.0988 Q2021.22 39.2602 2017.66 43.3487 Q2014.09 47.4112 2007.84 47.4112 Q2001.56 47.4112 1997.99 43.3487 Q1994.45 39.2602 1994.45 32.0988 Q1994.45 24.9113 1997.99 20.8488 Q2001.56 16.7864 2007.84 16.7864 Z" fill="#000000" fill-rule="nonzero" fill-opacity="1" /><path clip-path="url(#clip330)" d="M2046.07 21.9686 Q2045.26 21.4999 2044.3 21.2916 Q2043.36 21.0572 2042.21 21.0572 Q2038.15 21.0572 2035.96 23.7134 Q2033.8 26.3436 2033.8 31.2915 L2033.8 46.656 L2028.98 46.656 L2028.98 17.4895 L2033.8 17.4895 L2033.8 22.0207 Q2035.31 19.3645 2037.73 18.0884 Q2040.15 16.7864 2043.62 16.7864 Q2044.11 16.7864 2044.71 16.8645 Q2045.31 16.9166 2046.04 17.0468 L2046.07 21.9686 Z" fill="#000000" fill-rule="nonzero" fill-opacity="1" /><path clip-path="url(#clip333)" d="M1526.14 1023.27 L1568.25 988.472 L1610.36 946.216 L1652.47 926.001 L1694.58 905.215 L1736.69 952.164 L1778.8 908.503 L1820.91 882.438 L1863.02 846.833 L1905.13 805.16 L1947.24 837.451 L1989.35 862.451 L2031.46 791.024 L2073.57 793.431 L2115.68 788.915 L2157.79 798.698 L2199.9 748.708 L2242.01 710.645 L2284.12 655.408 L2326.23 646.037 L2326.23 194.1 L2284.12 234.959 L2242.01 238.864 L2199.9 254.249 L2157.79 354.985 L2115.68 416.004 L2073.57 440.759 L2031.46 497.705 L1989.35 515.63 L1947.24 560.321 L1905.13 570.298 L1863.02 597.216 L1820.91 644.02 L1778.8 693.834 L1736.69 730.458 L1694.58 784.652 L1652.47 806.583 L1610.36 857.055 L1568.25 934.034 L1526.14 999.416  Z" fill="#009af9" fill-rule="evenodd" fill-opacity="0.1"/>
<polyline clip-path="url(#clip333)" style="stroke:#009af9; stroke-linecap:round; stroke-linejoin:round; stroke-width:4; stroke-opacity:1; fill:none" points="1526.14,1011.34 1568.25,961.253 1610.36,901.635 1652.47,866.292 1694.58,844.933 1736.69,841.311 1778.8,801.169 1820.91,763.229 1863.02,722.025 1905.13,687.729 1947.24,698.886 1989.35,689.041 2031.46,644.364 2073.57,617.095 2115.68,602.46 2157.79,576.842 2199.9,501.478 2242.01,474.755 2284.12,445.183 2326.23,420.069 "/>
<path clip-path="url(#clip333)" d="M1526.14 1070.59 L1568.25 1028.38 L1610.36 1040.51 L1652.47 1061.79 L1694.58 1052.06 L1736.69 1021.66 L1778.8 957.954 L1820.91 921.233 L1863.02 886.656 L1905.13 897.843 L1947.24 878.829 L1989.35 859.38 L2031.46 881.383 L2073.57 888.022 L2115.68 883.502 L2157.79 891.856 L2199.9 869.086 L2242.01 810.627 L2284.12 782.363 L2326.23 746.541 L2326.23 120.65 L2284.12 155.158 L2242.01 159.453 L2199.9 219.548 L2157.79 284.353 L2115.68 359.414 L2073.57 424.932 L2031.46 481.454 L1989.35 499.159 L1947.24 534.518 L1905.13 562.427 L1863.02 583.398 L1820.91 644.936 L1778.8 690.236 L1736.69 742.871 L1694.58 787.525 L1652.47 839.815 L1610.36 877.265 L1568.25 939.601 L1526.14 952.141  Z" fill="#e26f46" fill-rule="evenodd" fill-opacity="0.1"/>
<polyline clip-path="url(#clip333)" style="stroke:#e26f46; stroke-linecap:round; stroke-linejoin:round; stroke-width:4; stroke-opacity:1; fill:none" points="1526.14,1011.37 1568.25,983.992 1610.36,958.886 1652.47,950.803 1694.58,919.794 1736.69,882.266 1778.8,824.095 1820.91,783.085 1863.02,735.027 1905.13,730.135 1947.24,706.673 1989.35,679.27 2031.46,681.419 2073.57,656.477 2115.68,621.458 2157.79,588.104 2199.9,544.317 2242.01,485.04 2284.12,468.76 2326.23,433.596 "/>
</svg>
