<?xml version="1.0" encoding="utf-8"?>
<svg xmlns="http://www.w3.org/2000/svg" xmlns:xlink="http://www.w3.org/1999/xlink" width="600" height="400" viewBox="0 0 2400 1600">
<defs>
  <clipPath id="clip150">
    <rect x="0" y="0" width="2400" height="1600"/>
  </clipPath>
</defs>
<path clip-path="url(#clip150)" d="M0 1600 L2400 1600 L2400 0 L0 0  Z" fill="#ffffff" fill-rule="evenodd" fill-opacity="1"/>
<defs>
  <clipPath id="clip151">
    <rect x="480" y="0" width="1681" height="1600"/>
  </clipPath>
</defs>
<path clip-path="url(#clip150)" d="M230.765 1486.45 L2352.76 1486.45 L2352.76 106.192 L230.765 106.192  Z" fill="#ffffff" fill-rule="evenodd" fill-opacity="1"/>
<defs>
  <clipPath id="clip152">
    <rect x="230" y="106" width="2123" height="1381"/>
  </clipPath>
</defs>
<polyline clip-path="url(#clip152)" style="stroke:#000000; stroke-linecap:round; stroke-linejoin:round; stroke-width:2; stroke-opacity:0.1; fill:none" points="541.056,1486.45 541.056,106.192 "/>
<polyline clip-path="url(#clip152)" style="stroke:#000000; stroke-linecap:round; stroke-linejoin:round; stroke-width:2; stroke-opacity:0.1; fill:none" points="916.408,1486.45 916.408,106.192 "/>
<polyline clip-path="url(#clip152)" style="stroke:#000000; stroke-linecap:round; stroke-linejoin:round; stroke-width:2; stroke-opacity:0.1; fill:none" points="1291.76,1486.45 1291.76,106.192 "/>
<polyline clip-path="url(#clip152)" style="stroke:#000000; stroke-linecap:round; stroke-linejoin:round; stroke-width:2; stroke-opacity:0.1; fill:none" points="1667.11,1486.45 1667.11,106.192 "/>
<polyline clip-path="url(#clip152)" style="stroke:#000000; stroke-linecap:round; stroke-linejoin:round; stroke-width:2; stroke-opacity:0.1; fill:none" points="2042.46,1486.45 2042.46,106.192 "/>
<polyline clip-path="url(#clip152)" style="stroke:#000000; stroke-linecap:round; stroke-linejoin:round; stroke-width:2; stroke-opacity:0.1; fill:none" points="230.765,1414.57 2352.76,1414.57 "/>
<polyline clip-path="url(#clip152)" style="stroke:#000000; stroke-linecap:round; stroke-linejoin:round; stroke-width:2; stroke-opacity:0.1; fill:none" points="230.765,1204.23 2352.76,1204.23 "/>
<polyline clip-path="url(#clip152)" style="stroke:#000000; stroke-linecap:round; stroke-linejoin:round; stroke-width:2; stroke-opacity:0.1; fill:none" points="230.765,993.888 2352.76,993.888 "/>
<polyline clip-path="url(#clip152)" style="stroke:#000000; stroke-linecap:round; stroke-linejoin:round; stroke-width:2; stroke-opacity:0.1; fill:none" points="230.765,783.547 2352.76,783.547 "/>
<polyline clip-path="url(#clip152)" style="stroke:#000000; stroke-linecap:round; stroke-linejoin:round; stroke-width:2; stroke-opacity:0.1; fill:none" points="230.765,573.205 2352.76,573.205 "/>
<polyline clip-path="url(#clip152)" style="stroke:#000000; stroke-linecap:round; stroke-linejoin:round; stroke-width:2; stroke-opacity:0.1; fill:none" points="230.765,362.864 2352.76,362.864 "/>
<polyline clip-path="url(#clip152)" style="stroke:#000000; stroke-linecap:round; stroke-linejoin:round; stroke-width:2; stroke-opacity:0.1; fill:none" points="230.765,152.523 2352.76,152.523 "/>
<polyline clip-path="url(#clip150)" style="stroke:#000000; stroke-linecap:round; stroke-linejoin:round; stroke-width:4; stroke-opacity:1; fill:none" points="230.765,1486.45 2352.76,1486.45 "/>
<polyline clip-path="url(#clip150)" style="stroke:#000000; stroke-linecap:round; stroke-linejoin:round; stroke-width:4; stroke-opacity:1; fill:none" points="541.056,1486.45 541.056,1467.55 "/>
<polyline clip-path="url(#clip150)" style="stroke:#000000; stroke-linecap:round; stroke-linejoin:round; stroke-width:4; stroke-opacity:1; fill:none" points="916.408,1486.45 916.408,1467.55 "/>
<polyline clip-path="url(#clip150)" style="stroke:#000000; stroke-linecap:round; stroke-linejoin:round; stroke-width:4; stroke-opacity:1; fill:none" points="1291.76,1486.45 1291.76,1467.55 "/>
<polyline clip-path="url(#clip150)" style="stroke:#000000; stroke-linecap:round; stroke-linejoin:round; stroke-width:4; stroke-opacity:1; fill:none" points="1667.11,1486.45 1667.11,1467.55 "/>
<polyline clip-path="url(#clip150)" style="stroke:#000000; stroke-linecap:round; stroke-linejoin:round; stroke-width:4; stroke-opacity:1; fill:none" points="2042.46,1486.45 2042.46,1467.55 "/>
<path clip-path="url(#clip150)" d="M545.303 1530.21 Q548.66 1530.93 550.535 1533.2 Q552.433 1535.47 552.433 1538.8 Q552.433 1543.92 548.914 1546.72 Q545.396 1549.52 538.915 1549.52 Q536.739 1549.52 534.424 1549.08 Q532.132 1548.66 529.678 1547.81 L529.678 1543.29 Q531.623 1544.43 533.938 1545.01 Q536.252 1545.58 538.776 1545.58 Q543.174 1545.58 545.465 1543.85 Q547.78 1542.11 547.78 1538.8 Q547.78 1535.75 545.627 1534.03 Q543.498 1532.3 539.678 1532.3 L535.651 1532.3 L535.651 1528.45 L539.864 1528.45 Q543.313 1528.45 545.141 1527.09 Q546.97 1525.7 546.97 1523.11 Q546.97 1520.45 545.072 1519.03 Q543.197 1517.6 539.678 1517.6 Q537.757 1517.6 535.558 1518.01 Q533.359 1518.43 530.72 1519.31 L530.72 1515.14 Q533.382 1514.4 535.697 1514.03 Q538.035 1513.66 540.095 1513.66 Q545.419 1513.66 548.521 1516.09 Q551.623 1518.5 551.623 1522.62 Q551.623 1525.49 549.979 1527.48 Q548.336 1529.45 545.303 1530.21 Z" fill="#000000" fill-rule="nonzero" fill-opacity="1" /><path clip-path="url(#clip150)" d="M916.813 1529.7 Q913.665 1529.7 911.813 1531.86 Q909.984 1534.01 909.984 1537.76 Q909.984 1541.49 911.813 1543.66 Q913.665 1545.82 916.813 1545.82 Q919.961 1545.82 921.79 1543.66 Q923.642 1541.49 923.642 1537.76 Q923.642 1534.01 921.79 1531.86 Q919.961 1529.7 916.813 1529.7 M926.095 1515.05 L926.095 1519.31 Q924.336 1518.48 922.531 1518.04 Q920.748 1517.6 918.989 1517.6 Q914.359 1517.6 911.906 1520.72 Q909.475 1523.85 909.128 1530.17 Q910.494 1528.15 912.554 1527.09 Q914.614 1526 917.091 1526 Q922.299 1526 925.308 1529.17 Q928.341 1532.32 928.341 1537.76 Q928.341 1543.08 925.193 1546.3 Q922.044 1549.52 916.813 1549.52 Q910.818 1549.52 907.646 1544.94 Q904.475 1540.33 904.475 1531.6 Q904.475 1523.41 908.364 1518.55 Q912.253 1513.66 918.804 1513.66 Q920.563 1513.66 922.345 1514.01 Q924.151 1514.36 926.095 1515.05 Z" fill="#000000" fill-rule="nonzero" fill-opacity="1" /><path clip-path="url(#clip150)" d="M1282.06 1548.13 L1282.06 1543.87 Q1283.82 1544.7 1285.63 1545.14 Q1287.43 1545.58 1289.17 1545.58 Q1293.8 1545.58 1296.23 1542.48 Q1298.68 1539.36 1299.03 1533.01 Q1297.69 1535.01 1295.63 1536.07 Q1293.57 1537.13 1291.07 1537.13 Q1285.88 1537.13 1282.85 1534.01 Q1279.84 1530.86 1279.84 1525.42 Q1279.84 1520.1 1282.99 1516.88 Q1286.14 1513.66 1291.37 1513.66 Q1297.36 1513.66 1300.51 1518.27 Q1303.68 1522.85 1303.68 1531.6 Q1303.68 1539.77 1299.79 1544.66 Q1295.93 1549.52 1289.38 1549.52 Q1287.62 1549.52 1285.81 1549.17 Q1284.01 1548.82 1282.06 1548.13 M1291.37 1533.48 Q1294.51 1533.48 1296.34 1531.32 Q1298.2 1529.17 1298.2 1525.42 Q1298.2 1521.7 1296.34 1519.54 Q1294.51 1517.37 1291.37 1517.37 Q1288.22 1517.37 1286.37 1519.54 Q1284.54 1521.7 1284.54 1525.42 Q1284.54 1529.17 1286.37 1531.32 Q1288.22 1533.48 1291.37 1533.48 Z" fill="#000000" fill-rule="nonzero" fill-opacity="1" /><path clip-path="url(#clip150)" d="M1642.6 1544.91 L1650.24 1544.91 L1650.24 1518.55 L1641.93 1520.21 L1641.93 1515.95 L1650.19 1514.29 L1654.87 1514.29 L1654.87 1544.91 L1662.51 1544.91 L1662.51 1548.85 L1642.6 1548.85 L1642.6 1544.91 Z" fill="#000000" fill-rule="nonzero" fill-opacity="1" /><path clip-path="url(#clip150)" d="M1675.98 1544.91 L1692.3 1544.91 L1692.3 1548.85 L1670.35 1548.85 L1670.35 1544.91 Q1673.02 1542.16 1677.6 1537.53 Q1682.2 1532.88 1683.39 1531.53 Q1685.63 1529.01 1686.51 1527.27 Q1687.41 1525.51 1687.41 1523.82 Q1687.41 1521.07 1685.47 1519.33 Q1683.55 1517.6 1680.45 1517.6 Q1678.25 1517.6 1675.79 1518.36 Q1673.36 1519.13 1670.58 1520.68 L1670.58 1515.95 Q1673.41 1514.82 1675.86 1514.24 Q1678.32 1513.66 1680.35 1513.66 Q1685.72 1513.66 1688.92 1516.35 Q1692.11 1519.03 1692.11 1523.52 Q1692.11 1525.65 1691.3 1527.57 Q1690.52 1529.47 1688.41 1532.07 Q1687.83 1532.74 1684.73 1535.95 Q1681.63 1539.15 1675.98 1544.91 Z" fill="#000000" fill-rule="nonzero" fill-opacity="1" /><path clip-path="url(#clip150)" d="M2017.65 1544.91 L2025.29 1544.91 L2025.29 1518.55 L2016.98 1520.21 L2016.98 1515.95 L2025.24 1514.29 L2029.92 1514.29 L2029.92 1544.91 L2037.56 1544.91 L2037.56 1548.85 L2017.65 1548.85 L2017.65 1544.91 Z" fill="#000000" fill-rule="nonzero" fill-opacity="1" /><path clip-path="url(#clip150)" d="M2047.05 1514.29 L2065.4 1514.29 L2065.4 1518.22 L2051.33 1518.22 L2051.33 1526.7 Q2052.35 1526.35 2053.37 1526.19 Q2054.39 1526 2055.4 1526 Q2061.19 1526 2064.57 1529.17 Q2067.95 1532.34 2067.95 1537.76 Q2067.95 1543.34 2064.48 1546.44 Q2061.01 1549.52 2054.69 1549.52 Q2052.51 1549.52 2050.24 1549.15 Q2048 1548.78 2045.59 1548.04 L2045.59 1543.34 Q2047.67 1544.47 2049.9 1545.03 Q2052.12 1545.58 2054.59 1545.58 Q2058.6 1545.58 2060.94 1543.48 Q2063.27 1541.37 2063.27 1537.76 Q2063.27 1534.15 2060.94 1532.04 Q2058.6 1529.94 2054.59 1529.94 Q2052.72 1529.94 2050.84 1530.35 Q2048.99 1530.77 2047.05 1531.65 L2047.05 1514.29 Z" fill="#000000" fill-rule="nonzero" fill-opacity="1" /><polyline clip-path="url(#clip150)" style="stroke:#000000; stroke-linecap:round; stroke-linejoin:round; stroke-width:4; stroke-opacity:1; fill:none" points="230.765,1486.45 230.765,106.192 "/>
<polyline clip-path="url(#clip150)" style="stroke:#000000; stroke-linecap:round; stroke-linejoin:round; stroke-width:4; stroke-opacity:1; fill:none" points="230.765,1414.57 249.662,1414.57 "/>
<polyline clip-path="url(#clip150)" style="stroke:#000000; stroke-linecap:round; stroke-linejoin:round; stroke-width:4; stroke-opacity:1; fill:none" points="230.765,1204.23 249.662,1204.23 "/>
<polyline clip-path="url(#clip150)" style="stroke:#000000; stroke-linecap:round; stroke-linejoin:round; stroke-width:4; stroke-opacity:1; fill:none" points="230.765,993.888 249.662,993.888 "/>
<polyline clip-path="url(#clip150)" style="stroke:#000000; stroke-linecap:round; stroke-linejoin:round; stroke-width:4; stroke-opacity:1; fill:none" points="230.765,783.547 249.662,783.547 "/>
<polyline clip-path="url(#clip150)" style="stroke:#000000; stroke-linecap:round; stroke-linejoin:round; stroke-width:4; stroke-opacity:1; fill:none" points="230.765,573.205 249.662,573.205 "/>
<polyline clip-path="url(#clip150)" style="stroke:#000000; stroke-linecap:round; stroke-linejoin:round; stroke-width:4; stroke-opacity:1; fill:none" points="230.765,362.864 249.662,362.864 "/>
<polyline clip-path="url(#clip150)" style="stroke:#000000; stroke-linecap:round; stroke-linejoin:round; stroke-width:4; stroke-opacity:1; fill:none" points="230.765,152.523 249.662,152.523 "/>
<path clip-path="url(#clip150)" d="M50.9921 1397.29 L73.2142 1397.29 L73.2142 1399.28 L60.668 1431.85 L55.7838 1431.85 L67.5893 1401.23 L50.9921 1401.23 L50.9921 1397.29 Z" fill="#000000" fill-rule="nonzero" fill-opacity="1" /><path clip-path="url(#clip150)" d="M86.3623 1427.92 L102.682 1427.92 L102.682 1431.85 L80.7373 1431.85 L80.7373 1427.92 Q83.3994 1425.16 87.9827 1420.53 Q92.5891 1415.88 93.7697 1414.54 Q96.015 1412.01 96.8947 1410.28 Q97.7974 1408.52 97.7974 1406.83 Q97.7974 1404.07 95.853 1402.34 Q93.9317 1400.6 90.8299 1400.6 Q88.6308 1400.6 86.1771 1401.36 Q83.7466 1402.13 80.9688 1403.68 L80.9688 1398.96 Q83.7929 1397.82 86.2466 1397.24 Q88.7003 1396.67 90.7373 1396.67 Q96.1076 1396.67 99.3021 1399.35 Q102.496 1402.04 102.496 1406.53 Q102.496 1408.66 101.686 1410.58 Q100.899 1412.48 98.7928 1415.07 Q98.2141 1415.74 95.1123 1418.96 Q92.0104 1422.15 86.3623 1427.92 Z" fill="#000000" fill-rule="nonzero" fill-opacity="1" /><path clip-path="url(#clip150)" d="M112.543 1397.29 L130.899 1397.29 L130.899 1401.23 L116.825 1401.23 L116.825 1409.7 Q117.844 1409.35 118.862 1409.19 Q119.881 1409 120.899 1409 Q126.686 1409 130.066 1412.17 Q133.445 1415.35 133.445 1420.76 Q133.445 1426.34 129.973 1429.44 Q126.501 1432.52 120.182 1432.52 Q118.006 1432.52 115.737 1432.15 Q113.492 1431.78 111.084 1431.04 L111.084 1426.34 Q113.168 1427.48 115.39 1428.03 Q117.612 1428.59 120.089 1428.59 Q124.094 1428.59 126.432 1426.48 Q128.769 1424.37 128.769 1420.76 Q128.769 1417.15 126.432 1415.05 Q124.094 1412.94 120.089 1412.94 Q118.214 1412.94 116.339 1413.36 Q114.487 1413.77 112.543 1414.65 L112.543 1397.29 Z" fill="#000000" fill-rule="nonzero" fill-opacity="1" /><path clip-path="url(#clip150)" d="M152.658 1400.37 Q149.047 1400.37 147.218 1403.93 Q145.413 1407.48 145.413 1414.61 Q145.413 1421.71 147.218 1425.28 Q149.047 1428.82 152.658 1428.82 Q156.292 1428.82 158.098 1425.28 Q159.927 1421.71 159.927 1414.61 Q159.927 1407.48 158.098 1403.93 Q156.292 1400.37 152.658 1400.37 M152.658 1396.67 Q158.468 1396.67 161.524 1401.27 Q164.603 1405.86 164.603 1414.61 Q164.603 1423.33 161.524 1427.94 Q158.468 1432.52 152.658 1432.52 Q146.848 1432.52 143.769 1427.94 Q140.714 1423.33 140.714 1414.61 Q140.714 1405.86 143.769 1401.27 Q146.848 1396.67 152.658 1396.67 Z" fill="#000000" fill-rule="nonzero" fill-opacity="1" /><path clip-path="url(#clip150)" d="M182.82 1400.37 Q179.209 1400.37 177.38 1403.93 Q175.575 1407.48 175.575 1414.61 Q175.575 1421.71 177.38 1425.28 Q179.209 1428.82 182.82 1428.82 Q186.454 1428.82 188.26 1425.28 Q190.089 1421.71 190.089 1414.61 Q190.089 1407.48 188.26 1403.93 Q186.454 1400.37 182.82 1400.37 M182.82 1396.67 Q188.63 1396.67 191.686 1401.27 Q194.765 1405.86 194.765 1414.61 Q194.765 1423.33 191.686 1427.94 Q188.63 1432.52 182.82 1432.52 Q177.01 1432.52 173.931 1427.94 Q170.876 1423.33 170.876 1414.61 Q170.876 1405.86 173.931 1401.27 Q177.01 1396.67 182.82 1396.67 Z" fill="#000000" fill-rule="nonzero" fill-opacity="1" /><path clip-path="url(#clip150)" d="M50.9921 1186.95 L73.2142 1186.95 L73.2142 1188.94 L60.668 1221.51 L55.7838 1221.51 L67.5893 1190.88 L50.9921 1190.88 L50.9921 1186.95 Z" fill="#000000" fill-rule="nonzero" fill-opacity="1" /><path clip-path="url(#clip150)" d="M96.5011 1202.88 Q99.8576 1203.59 101.733 1205.86 Q103.631 1208.13 103.631 1211.46 Q103.631 1216.58 100.112 1219.38 Q96.5937 1222.18 90.1123 1222.18 Q87.9364 1222.18 85.6216 1221.74 Q83.3299 1221.32 80.8762 1220.47 L80.8762 1215.95 Q82.8207 1217.09 85.1355 1217.67 Q87.4503 1218.25 89.9734 1218.25 Q94.3715 1218.25 96.6632 1216.51 Q98.978 1214.77 98.978 1211.46 Q98.978 1208.41 96.8252 1206.69 Q94.6956 1204.96 90.8762 1204.96 L86.8484 1204.96 L86.8484 1201.12 L91.0614 1201.12 Q94.5104 1201.12 96.3391 1199.75 Q98.1678 1198.36 98.1678 1195.77 Q98.1678 1193.11 96.2697 1191.69 Q94.3947 1190.26 90.8762 1190.26 Q88.9549 1190.26 86.7558 1190.68 Q84.5568 1191.09 81.9179 1191.97 L81.9179 1187.81 Q84.5799 1187.07 86.8947 1186.69 Q89.2327 1186.32 91.2928 1186.32 Q96.6169 1186.32 99.7187 1188.75 Q102.821 1191.16 102.821 1195.28 Q102.821 1198.15 101.177 1200.14 Q99.5335 1202.11 96.5011 1202.88 Z" fill="#000000" fill-rule="nonzero" fill-opacity="1" /><path clip-path="url(#clip150)" d="M122.496 1190.03 Q118.885 1190.03 117.057 1193.59 Q115.251 1197.13 115.251 1204.26 Q115.251 1211.37 117.057 1214.94 Q118.885 1218.48 122.496 1218.48 Q126.131 1218.48 127.936 1214.94 Q129.765 1211.37 129.765 1204.26 Q129.765 1197.13 127.936 1193.59 Q126.131 1190.03 122.496 1190.03 M122.496 1186.32 Q128.307 1186.32 131.362 1190.93 Q134.441 1195.51 134.441 1204.26 Q134.441 1212.99 131.362 1217.6 Q128.307 1222.18 122.496 1222.18 Q116.686 1222.18 113.608 1217.6 Q110.552 1212.99 110.552 1204.26 Q110.552 1195.51 113.608 1190.93 Q116.686 1186.32 122.496 1186.32 Z" fill="#000000" fill-rule="nonzero" fill-opacity="1" /><path clip-path="url(#clip150)" d="M152.658 1190.03 Q149.047 1190.03 147.218 1193.59 Q145.413 1197.13 145.413 1204.26 Q145.413 1211.37 147.218 1214.94 Q149.047 1218.48 152.658 1218.48 Q156.292 1218.48 158.098 1214.94 Q159.927 1211.37 159.927 1204.26 Q159.927 1197.13 158.098 1193.59 Q156.292 1190.03 152.658 1190.03 M152.658 1186.32 Q158.468 1186.32 161.524 1190.93 Q164.603 1195.51 164.603 1204.26 Q164.603 1212.99 161.524 1217.6 Q158.468 1222.18 152.658 1222.18 Q146.848 1222.18 143.769 1217.6 Q140.714 1212.99 140.714 1204.26 Q140.714 1195.51 143.769 1190.93 Q146.848 1186.32 152.658 1186.32 Z" fill="#000000" fill-rule="nonzero" fill-opacity="1" /><path clip-path="url(#clip150)" d="M182.82 1190.03 Q179.209 1190.03 177.38 1193.59 Q175.575 1197.13 175.575 1204.26 Q175.575 1211.37 177.38 1214.94 Q179.209 1218.48 182.82 1218.48 Q186.454 1218.48 188.26 1214.94 Q190.089 1211.37 190.089 1204.26 Q190.089 1197.13 188.26 1193.59 Q186.454 1190.03 182.82 1190.03 M182.82 1186.32 Q188.63 1186.32 191.686 1190.93 Q194.765 1195.51 194.765 1204.26 Q194.765 1212.99 191.686 1217.6 Q188.63 1222.18 182.82 1222.18 Q177.01 1222.18 173.931 1217.6 Q170.876 1212.99 170.876 1204.26 Q170.876 1195.51 173.931 1190.93 Q177.01 1186.32 182.82 1186.32 Z" fill="#000000" fill-rule="nonzero" fill-opacity="1" /><path clip-path="url(#clip150)" d="M50.9921 976.608 L73.2142 976.608 L73.2142 978.599 L60.668 1011.17 L55.7838 1011.17 L67.5893 980.543 L50.9921 980.543 L50.9921 976.608 Z" fill="#000000" fill-rule="nonzero" fill-opacity="1" /><path clip-path="url(#clip150)" d="M96.5011 992.534 Q99.8576 993.252 101.733 995.52 Q103.631 997.789 103.631 1001.12 Q103.631 1006.24 100.112 1009.04 Q96.5937 1011.84 90.1123 1011.84 Q87.9364 1011.84 85.6216 1011.4 Q83.3299 1010.98 80.8762 1010.13 L80.8762 1005.61 Q82.8207 1006.75 85.1355 1007.33 Q87.4503 1007.9 89.9734 1007.9 Q94.3715 1007.9 96.6632 1006.17 Q98.978 1004.43 98.978 1001.12 Q98.978 998.066 96.8252 996.353 Q94.6956 994.617 90.8762 994.617 L86.8484 994.617 L86.8484 990.775 L91.0614 990.775 Q94.5104 990.775 96.3391 989.409 Q98.1678 988.02 98.1678 985.427 Q98.1678 982.765 96.2697 981.353 Q94.3947 979.918 90.8762 979.918 Q88.9549 979.918 86.7558 980.335 Q84.5568 980.752 81.9179 981.631 L81.9179 977.465 Q84.5799 976.724 86.8947 976.353 Q89.2327 975.983 91.2928 975.983 Q96.6169 975.983 99.7187 978.414 Q102.821 980.821 102.821 984.941 Q102.821 987.812 101.177 989.802 Q99.5335 991.77 96.5011 992.534 Z" fill="#000000" fill-rule="nonzero" fill-opacity="1" /><path clip-path="url(#clip150)" d="M112.543 976.608 L130.899 976.608 L130.899 980.543 L116.825 980.543 L116.825 989.015 Q117.844 988.668 118.862 988.506 Q119.881 988.321 120.899 988.321 Q126.686 988.321 130.066 991.492 Q133.445 994.664 133.445 1000.08 Q133.445 1005.66 129.973 1008.76 Q126.501 1011.84 120.182 1011.84 Q118.006 1011.84 115.737 1011.47 Q113.492 1011.1 111.084 1010.36 L111.084 1005.66 Q113.168 1006.79 115.39 1007.35 Q117.612 1007.9 120.089 1007.9 Q124.094 1007.9 126.432 1005.8 Q128.769 1003.69 128.769 1000.08 Q128.769 996.469 126.432 994.363 Q124.094 992.256 120.089 992.256 Q118.214 992.256 116.339 992.673 Q114.487 993.089 112.543 993.969 L112.543 976.608 Z" fill="#000000" fill-rule="nonzero" fill-opacity="1" /><path clip-path="url(#clip150)" d="M152.658 979.687 Q149.047 979.687 147.218 983.252 Q145.413 986.793 145.413 993.923 Q145.413 1001.03 147.218 1004.59 Q149.047 1008.14 152.658 1008.14 Q156.292 1008.14 158.098 1004.59 Q159.927 1001.03 159.927 993.923 Q159.927 986.793 158.098 983.252 Q156.292 979.687 152.658 979.687 M152.658 975.983 Q158.468 975.983 161.524 980.59 Q164.603 985.173 164.603 993.923 Q164.603 1002.65 161.524 1007.26 Q158.468 1011.84 152.658 1011.84 Q146.848 1011.84 143.769 1007.26 Q140.714 1002.65 140.714 993.923 Q140.714 985.173 143.769 980.59 Q146.848 975.983 152.658 975.983 Z" fill="#000000" fill-rule="nonzero" fill-opacity="1" /><path clip-path="url(#clip150)" d="M182.82 979.687 Q179.209 979.687 177.38 983.252 Q175.575 986.793 175.575 993.923 Q175.575 1001.03 177.38 1004.59 Q179.209 1008.14 182.82 1008.14 Q186.454 1008.14 188.26 1004.59 Q190.089 1001.03 190.089 993.923 Q190.089 986.793 188.26 983.252 Q186.454 979.687 182.82 979.687 M182.82 975.983 Q188.63 975.983 191.686 980.59 Q194.765 985.173 194.765 993.923 Q194.765 1002.65 191.686 1007.26 Q188.63 1011.84 182.82 1011.84 Q177.01 1011.84 173.931 1007.26 Q170.876 1002.65 170.876 993.923 Q170.876 985.173 173.931 980.59 Q177.01 975.983 182.82 975.983 Z" fill="#000000" fill-rule="nonzero" fill-opacity="1" /><path clip-path="url(#clip150)" d="M50.9921 766.267 L73.2142 766.267 L73.2142 768.257 L60.668 800.827 L55.7838 800.827 L67.5893 770.202 L50.9921 770.202 L50.9921 766.267 Z" fill="#000000" fill-rule="nonzero" fill-opacity="1" /><path clip-path="url(#clip150)" d="M95.1817 770.341 L83.3762 788.79 L95.1817 788.79 L95.1817 770.341 M93.9549 766.267 L99.8345 766.267 L99.8345 788.79 L104.765 788.79 L104.765 792.679 L99.8345 792.679 L99.8345 800.827 L95.1817 800.827 L95.1817 792.679 L79.5799 792.679 L79.5799 788.165 L93.9549 766.267 Z" fill="#000000" fill-rule="nonzero" fill-opacity="1" /><path clip-path="url(#clip150)" d="M122.496 769.345 Q118.885 769.345 117.057 772.91 Q115.251 776.452 115.251 783.581 Q115.251 790.688 117.057 794.253 Q118.885 797.794 122.496 797.794 Q126.131 797.794 127.936 794.253 Q129.765 790.688 129.765 783.581 Q129.765 776.452 127.936 772.91 Q126.131 769.345 122.496 769.345 M122.496 765.642 Q128.307 765.642 131.362 770.248 Q134.441 774.832 134.441 783.581 Q134.441 792.308 131.362 796.915 Q128.307 801.498 122.496 801.498 Q116.686 801.498 113.608 796.915 Q110.552 792.308 110.552 783.581 Q110.552 774.832 113.608 770.248 Q116.686 765.642 122.496 765.642 Z" fill="#000000" fill-rule="nonzero" fill-opacity="1" /><path clip-path="url(#clip150)" d="M152.658 769.345 Q149.047 769.345 147.218 772.91 Q145.413 776.452 145.413 783.581 Q145.413 790.688 147.218 794.253 Q149.047 797.794 152.658 797.794 Q156.292 797.794 158.098 794.253 Q159.927 790.688 159.927 783.581 Q159.927 776.452 158.098 772.91 Q156.292 769.345 152.658 769.345 M152.658 765.642 Q158.468 765.642 161.524 770.248 Q164.603 774.832 164.603 783.581 Q164.603 792.308 161.524 796.915 Q158.468 801.498 152.658 801.498 Q146.848 801.498 143.769 796.915 Q140.714 792.308 140.714 783.581 Q140.714 774.832 143.769 770.248 Q146.848 765.642 152.658 765.642 Z" fill="#000000" fill-rule="nonzero" fill-opacity="1" /><path clip-path="url(#clip150)" d="M182.82 769.345 Q179.209 769.345 177.38 772.91 Q175.575 776.452 175.575 783.581 Q175.575 790.688 177.38 794.253 Q179.209 797.794 182.82 797.794 Q186.454 797.794 188.26 794.253 Q190.089 790.688 190.089 783.581 Q190.089 776.452 188.26 772.91 Q186.454 769.345 182.82 769.345 M182.82 765.642 Q188.63 765.642 191.686 770.248 Q194.765 774.832 194.765 783.581 Q194.765 792.308 191.686 796.915 Q188.63 801.498 182.82 801.498 Q177.01 801.498 173.931 796.915 Q170.876 792.308 170.876 783.581 Q170.876 774.832 173.931 770.248 Q177.01 765.642 182.82 765.642 Z" fill="#000000" fill-rule="nonzero" fill-opacity="1" /><path clip-path="url(#clip150)" d="M50.9921 555.925 L73.2142 555.925 L73.2142 557.916 L60.668 590.485 L55.7838 590.485 L67.5893 559.861 L50.9921 559.861 L50.9921 555.925 Z" fill="#000000" fill-rule="nonzero" fill-opacity="1" /><path clip-path="url(#clip150)" d="M95.1817 559.999 L83.3762 578.448 L95.1817 578.448 L95.1817 559.999 M93.9549 555.925 L99.8345 555.925 L99.8345 578.448 L104.765 578.448 L104.765 582.337 L99.8345 582.337 L99.8345 590.485 L95.1817 590.485 L95.1817 582.337 L79.5799 582.337 L79.5799 577.823 L93.9549 555.925 Z" fill="#000000" fill-rule="nonzero" fill-opacity="1" /><path clip-path="url(#clip150)" d="M112.543 555.925 L130.899 555.925 L130.899 559.861 L116.825 559.861 L116.825 568.333 Q117.844 567.986 118.862 567.823 Q119.881 567.638 120.899 567.638 Q126.686 567.638 130.066 570.81 Q133.445 573.981 133.445 579.397 Q133.445 584.976 129.973 588.078 Q126.501 591.157 120.182 591.157 Q118.006 591.157 115.737 590.786 Q113.492 590.416 111.084 589.675 L111.084 584.976 Q113.168 586.11 115.39 586.666 Q117.612 587.222 120.089 587.222 Q124.094 587.222 126.432 585.115 Q128.769 583.009 128.769 579.397 Q128.769 575.786 126.432 573.68 Q124.094 571.573 120.089 571.573 Q118.214 571.573 116.339 571.99 Q114.487 572.407 112.543 573.286 L112.543 555.925 Z" fill="#000000" fill-rule="nonzero" fill-opacity="1" /><path clip-path="url(#clip150)" d="M152.658 559.004 Q149.047 559.004 147.218 562.569 Q145.413 566.111 145.413 573.24 Q145.413 580.347 147.218 583.911 Q149.047 587.453 152.658 587.453 Q156.292 587.453 158.098 583.911 Q159.927 580.347 159.927 573.24 Q159.927 566.111 158.098 562.569 Q156.292 559.004 152.658 559.004 M152.658 555.3 Q158.468 555.3 161.524 559.907 Q164.603 564.49 164.603 573.24 Q164.603 581.967 161.524 586.573 Q158.468 591.157 152.658 591.157 Q146.848 591.157 143.769 586.573 Q140.714 581.967 140.714 573.24 Q140.714 564.49 143.769 559.907 Q146.848 555.3 152.658 555.3 Z" fill="#000000" fill-rule="nonzero" fill-opacity="1" /><path clip-path="url(#clip150)" d="M182.82 559.004 Q179.209 559.004 177.38 562.569 Q175.575 566.111 175.575 573.24 Q175.575 580.347 177.38 583.911 Q179.209 587.453 182.82 587.453 Q186.454 587.453 188.26 583.911 Q190.089 580.347 190.089 573.24 Q190.089 566.111 188.26 562.569 Q186.454 559.004 182.82 559.004 M182.82 555.3 Q188.63 555.3 191.686 559.907 Q194.765 564.49 194.765 573.24 Q194.765 581.967 191.686 586.573 Q188.63 591.157 182.82 591.157 Q177.01 591.157 173.931 586.573 Q170.876 581.967 170.876 573.24 Q170.876 564.49 173.931 559.907 Q177.01 555.3 182.82 555.3 Z" fill="#000000" fill-rule="nonzero" fill-opacity="1" /><path clip-path="url(#clip150)" d="M50.9921 345.584 L73.2142 345.584 L73.2142 347.575 L60.668 380.144 L55.7838 380.144 L67.5893 349.519 L50.9921 349.519 L50.9921 345.584 Z" fill="#000000" fill-rule="nonzero" fill-opacity="1" /><path clip-path="url(#clip150)" d="M82.3808 345.584 L100.737 345.584 L100.737 349.519 L86.6632 349.519 L86.6632 357.991 Q87.6817 357.644 88.7003 357.482 Q89.7188 357.297 90.7373 357.297 Q96.5243 357.297 99.9039 360.468 Q103.284 363.64 103.284 369.056 Q103.284 374.635 99.8113 377.737 Q96.3391 380.815 90.0197 380.815 Q87.8438 380.815 85.5753 380.445 Q83.3299 380.075 80.9225 379.334 L80.9225 374.635 Q83.0058 375.769 85.2281 376.325 Q87.4503 376.88 89.9271 376.88 Q93.9317 376.88 96.2697 374.774 Q98.6076 372.667 98.6076 369.056 Q98.6076 365.445 96.2697 363.339 Q93.9317 361.232 89.9271 361.232 Q88.0521 361.232 86.1771 361.649 Q84.3253 362.065 82.3808 362.945 L82.3808 345.584 Z" fill="#000000" fill-rule="nonzero" fill-opacity="1" /><path clip-path="url(#clip150)" d="M122.496 348.663 Q118.885 348.663 117.057 352.228 Q115.251 355.769 115.251 362.899 Q115.251 370.005 117.057 373.57 Q118.885 377.112 122.496 377.112 Q126.131 377.112 127.936 373.57 Q129.765 370.005 129.765 362.899 Q129.765 355.769 127.936 352.228 Q126.131 348.663 122.496 348.663 M122.496 344.959 Q128.307 344.959 131.362 349.566 Q134.441 354.149 134.441 362.899 Q134.441 371.626 131.362 376.232 Q128.307 380.815 122.496 380.815 Q116.686 380.815 113.608 376.232 Q110.552 371.626 110.552 362.899 Q110.552 354.149 113.608 349.566 Q116.686 344.959 122.496 344.959 Z" fill="#000000" fill-rule="nonzero" fill-opacity="1" /><path clip-path="url(#clip150)" d="M152.658 348.663 Q149.047 348.663 147.218 352.228 Q145.413 355.769 145.413 362.899 Q145.413 370.005 147.218 373.57 Q149.047 377.112 152.658 377.112 Q156.292 377.112 158.098 373.57 Q159.927 370.005 159.927 362.899 Q159.927 355.769 158.098 352.228 Q156.292 348.663 152.658 348.663 M152.658 344.959 Q158.468 344.959 161.524 349.566 Q164.603 354.149 164.603 362.899 Q164.603 371.626 161.524 376.232 Q158.468 380.815 152.658 380.815 Q146.848 380.815 143.769 376.232 Q140.714 371.626 140.714 362.899 Q140.714 354.149 143.769 349.566 Q146.848 344.959 152.658 344.959 Z" fill="#000000" fill-rule="nonzero" fill-opacity="1" /><path clip-path="url(#clip150)" d="M182.82 348.663 Q179.209 348.663 177.38 352.228 Q175.575 355.769 175.575 362.899 Q175.575 370.005 177.38 373.57 Q179.209 377.112 182.82 377.112 Q186.454 377.112 188.26 373.57 Q190.089 370.005 190.089 362.899 Q190.089 355.769 188.26 352.228 Q186.454 348.663 182.82 348.663 M182.82 344.959 Q188.63 344.959 191.686 349.566 Q194.765 354.149 194.765 362.899 Q194.765 371.626 191.686 376.232 Q188.63 380.815 182.82 380.815 Q177.01 380.815 173.931 376.232 Q170.876 371.626 170.876 362.899 Q170.876 354.149 173.931 349.566 Q177.01 344.959 182.82 344.959 Z" fill="#000000" fill-rule="nonzero" fill-opacity="1" /><path clip-path="url(#clip150)" d="M50.9921 135.243 L73.2142 135.243 L73.2142 137.233 L60.668 169.803 L55.7838 169.803 L67.5893 139.178 L50.9921 139.178 L50.9921 135.243 Z" fill="#000000" fill-rule="nonzero" fill-opacity="1" /><path clip-path="url(#clip150)" d="M82.3808 135.243 L100.737 135.243 L100.737 139.178 L86.6632 139.178 L86.6632 147.65 Q87.6817 147.303 88.7003 147.141 Q89.7188 146.956 90.7373 146.956 Q96.5243 146.956 99.9039 150.127 Q103.284 153.298 103.284 158.715 Q103.284 164.293 99.8113 167.395 Q96.3391 170.474 90.0197 170.474 Q87.8438 170.474 85.5753 170.104 Q83.3299 169.733 80.9225 168.993 L80.9225 164.293 Q83.0058 165.428 85.2281 165.983 Q87.4503 166.539 89.9271 166.539 Q93.9317 166.539 96.2697 164.432 Q98.6076 162.326 98.6076 158.715 Q98.6076 155.104 96.2697 152.997 Q93.9317 150.891 89.9271 150.891 Q88.0521 150.891 86.1771 151.307 Q84.3253 151.724 82.3808 152.604 L82.3808 135.243 Z" fill="#000000" fill-rule="nonzero" fill-opacity="1" /><path clip-path="url(#clip150)" d="M112.543 135.243 L130.899 135.243 L130.899 139.178 L116.825 139.178 L116.825 147.65 Q117.844 147.303 118.862 147.141 Q119.881 146.956 120.899 146.956 Q126.686 146.956 130.066 150.127 Q133.445 153.298 133.445 158.715 Q133.445 164.293 129.973 167.395 Q126.501 170.474 120.182 170.474 Q118.006 170.474 115.737 170.104 Q113.492 169.733 111.084 168.993 L111.084 164.293 Q113.168 165.428 115.39 165.983 Q117.612 166.539 120.089 166.539 Q124.094 166.539 126.432 164.432 Q128.769 162.326 128.769 158.715 Q128.769 155.104 126.432 152.997 Q124.094 150.891 120.089 150.891 Q118.214 150.891 116.339 151.307 Q114.487 151.724 112.543 152.604 L112.543 135.243 Z" fill="#000000" fill-rule="nonzero" fill-opacity="1" /><path clip-path="url(#clip150)" d="M152.658 138.321 Q149.047 138.321 147.218 141.886 Q145.413 145.428 145.413 152.557 Q145.413 159.664 147.218 163.229 Q149.047 166.77 152.658 166.77 Q156.292 166.77 158.098 163.229 Q159.927 159.664 159.927 152.557 Q159.927 145.428 158.098 141.886 Q156.292 138.321 152.658 138.321 M152.658 134.618 Q158.468 134.618 161.524 139.224 Q164.603 143.807 164.603 152.557 Q164.603 161.284 161.524 165.891 Q158.468 170.474 152.658 170.474 Q146.848 170.474 143.769 165.891 Q140.714 161.284 140.714 152.557 Q140.714 143.807 143.769 139.224 Q146.848 134.618 152.658 134.618 Z" fill="#000000" fill-rule="nonzero" fill-opacity="1" /><path clip-path="url(#clip150)" d="M182.82 138.321 Q179.209 138.321 177.38 141.886 Q175.575 145.428 175.575 152.557 Q175.575 159.664 177.38 163.229 Q179.209 166.77 182.82 166.77 Q186.454 166.77 188.26 163.229 Q190.089 159.664 190.089 152.557 Q190.089 145.428 188.26 141.886 Q186.454 138.321 182.82 138.321 M182.82 134.618 Q188.63 134.618 191.686 139.224 Q194.765 143.807 194.765 152.557 Q194.765 161.284 191.686 165.891 Q188.63 170.474 182.82 170.474 Q177.01 170.474 173.931 165.891 Q170.876 161.284 170.876 152.557 Q170.876 143.807 173.931 139.224 Q177.01 134.618 182.82 134.618 Z" fill="#000000" fill-rule="nonzero" fill-opacity="1" /><path clip-path="url(#clip150)" d="M1262.23 35.2602 Q1262.23 29.4732 1259.83 26.2904 Q1257.46 23.1075 1253.15 23.1075 Q1248.86 23.1075 1246.46 26.2904 Q1244.09 29.4732 1244.09 35.2602 Q1244.09 41.0183 1246.46 44.2012 Q1248.86 47.384 1253.15 47.384 Q1257.46 47.384 1259.83 44.2012 Q1262.23 41.0183 1262.23 35.2602 M1267.56 47.818 Q1267.56 56.0934 1263.88 60.1154 Q1260.21 64.1663 1252.63 64.1663 Q1249.82 64.1663 1247.33 63.7323 Q1244.84 63.3272 1242.5 62.4592 L1242.5 57.2798 Q1244.84 58.5529 1247.13 59.1606 Q1249.41 59.7682 1251.79 59.7682 Q1257.02 59.7682 1259.63 57.0194 Q1262.23 54.2995 1262.23 48.7729 L1262.23 46.1398 Q1260.58 49.0044 1258.01 50.4222 Q1255.43 51.84 1251.84 51.84 Q1245.88 51.84 1242.24 47.2972 Q1238.59 42.7544 1238.59 35.2602 Q1238.59 27.7371 1242.24 23.1943 Q1245.88 18.6515 1251.84 18.6515 Q1255.43 18.6515 1258.01 20.0693 Q1260.58 21.4872 1262.23 24.3517 L1262.23 19.4328 L1267.56 19.4328 L1267.56 47.818 Z" fill="#000000" fill-rule="nonzero" fill-opacity="1" /><path clip-path="url(#clip150)" d="M1299.85 24.3517 L1299.85 6.81709 L1305.17 6.81709 L1305.17 51.84 L1299.85 51.84 L1299.85 46.9789 Q1298.17 49.8724 1295.59 51.2902 Q1293.05 52.6791 1289.46 52.6791 Q1283.59 52.6791 1279.88 47.9916 Q1276.21 43.3042 1276.21 35.6653 Q1276.21 28.0265 1279.88 23.339 Q1283.59 18.6515 1289.46 18.6515 Q1293.05 18.6515 1295.59 20.0693 Q1298.17 21.4582 1299.85 24.3517 M1281.71 35.6653 Q1281.71 41.5391 1284.11 44.8956 Q1286.54 48.2231 1290.76 48.2231 Q1294.99 48.2231 1297.42 44.8956 Q1299.85 41.5391 1299.85 35.6653 Q1299.85 29.7915 1297.42 26.464 Q1294.99 23.1075 1290.76 23.1075 Q1286.54 23.1075 1284.11 26.464 Q1281.71 29.7915 1281.71 35.6653 Z" fill="#000000" fill-rule="nonzero" fill-opacity="1" /><path clip-path="url(#clip150)" d="M1321.29 46.9789 L1321.29 64.1663 L1315.94 64.1663 L1315.94 19.4328 L1321.29 19.4328 L1321.29 24.3517 Q1322.97 21.4582 1325.51 20.0693 Q1328.09 18.6515 1331.65 18.6515 Q1337.55 18.6515 1341.22 23.339 Q1344.93 28.0265 1344.93 35.6653 Q1344.93 43.3042 1341.22 47.9916 Q1337.55 52.6791 1331.65 52.6791 Q1328.09 52.6791 1325.51 51.2902 Q1322.97 49.8724 1321.29 46.9789 M1339.4 35.6653 Q1339.4 29.7915 1336.97 26.464 Q1334.57 23.1075 1330.35 23.1075 Q1326.12 23.1075 1323.69 26.464 Q1321.29 29.7915 1321.29 35.6653 Q1321.29 41.5391 1323.69 44.8956 Q1326.12 48.2231 1330.35 48.2231 Q1334.57 48.2231 1336.97 44.8956 Q1339.4 41.5391 1339.4 35.6653 Z" fill="#000000" fill-rule="nonzero" fill-opacity="1" /><polyline clip-path="url(#clip152)" style="stroke:#009af9; stroke-linecap:round; stroke-linejoin:round; stroke-width:4; stroke-opacity:1; fill:none" points="290.821,1447.38 415.938,1313.01 541.056,977.981 666.173,840.634 791.291,1160.89 916.408,1233.77 1041.53,1129.57 1166.64,1276.2 1291.76,1287.31 1416.88,1292.5 1542,1063.16 1667.11,1249.87 1792.23,951.4 1917.35,498.094 2042.46,273.768 2167.58,145.256 2292.7,493.64 "/>
<path clip-path="url(#clip150)" d="M301.498 255.881 L566.127 255.881 L566.127 152.201 L301.498 152.201  Z" fill="#ffffff" fill-rule="evenodd" fill-opacity="1"/>
<polyline clip-path="url(#clip150)" style="stroke:#000000; stroke-linecap:round; stroke-linejoin:round; stroke-width:4; stroke-opacity:1; fill:none" points="301.498,255.881 566.127,255.881 566.127,152.201 301.498,152.201 301.498,255.881 "/>
<polyline clip-path="url(#clip150)" style="stroke:#009af9; stroke-linecap:round; stroke-linejoin:round; stroke-width:4; stroke-opacity:1; fill:none" points="325.075,204.041 466.541,204.041 "/>
<path clip-path="url(#clip150)" d="M503.962 223.728 Q502.156 228.358 500.443 229.77 Q498.73 231.182 495.86 231.182 L492.457 231.182 L492.457 227.617 L494.957 227.617 Q496.716 227.617 497.688 226.784 Q498.661 225.95 499.841 222.848 L500.605 220.904 L490.119 195.395 L494.633 195.395 L502.735 215.673 L510.836 195.395 L515.35 195.395 L503.962 223.728 Z" fill="#000000" fill-rule="nonzero" fill-opacity="1" /><path clip-path="url(#clip150)" d="M522.642 217.385 L530.281 217.385 L530.281 191.02 L521.971 192.687 L521.971 188.427 L530.235 186.761 L534.91 186.761 L534.91 217.385 L542.549 217.385 L542.549 221.321 L522.642 221.321 L522.642 217.385 Z" fill="#000000" fill-rule="nonzero" fill-opacity="1" /></svg>
