<?xml version="1.0" encoding="utf-8"?>
<svg xmlns="http://www.w3.org/2000/svg" xmlns:xlink="http://www.w3.org/1999/xlink" width="600" height="400" viewBox="0 0 2400 1600">
<defs>
  <clipPath id="clip980">
    <rect x="0" y="0" width="2400" height="1600"/>
  </clipPath>
</defs>
<path clip-path="url(#clip980)" d="M0 1600 L2400 1600 L2400 0 L0 0  Z" fill="#ffffff" fill-rule="evenodd" fill-opacity="1"/>
<defs>
  <clipPath id="clip981">
    <rect x="480" y="0" width="1681" height="1600"/>
  </clipPath>
</defs>
<path clip-path="url(#clip980)" d="M230.765 1486.45 L2352.76 1486.45 L2352.76 106.192 L230.765 106.192  Z" fill="#ffffff" fill-rule="evenodd" fill-opacity="1"/>
<defs>
  <clipPath id="clip982">
    <rect x="230" y="106" width="2123" height="1381"/>
  </clipPath>
</defs>
<polyline clip-path="url(#clip982)" style="stroke:#000000; stroke-linecap:round; stroke-linejoin:round; stroke-width:2; stroke-opacity:0.1; fill:none" points="541.056,1486.45 541.056,106.192 "/>
<polyline clip-path="url(#clip982)" style="stroke:#000000; stroke-linecap:round; stroke-linejoin:round; stroke-width:2; stroke-opacity:0.1; fill:none" points="916.408,1486.45 916.408,106.192 "/>
<polyline clip-path="url(#clip982)" style="stroke:#000000; stroke-linecap:round; stroke-linejoin:round; stroke-width:2; stroke-opacity:0.1; fill:none" points="1291.76,1486.45 1291.76,106.192 "/>
<polyline clip-path="url(#clip982)" style="stroke:#000000; stroke-linecap:round; stroke-linejoin:round; stroke-width:2; stroke-opacity:0.1; fill:none" points="1667.11,1486.45 1667.11,106.192 "/>
<polyline clip-path="url(#clip982)" style="stroke:#000000; stroke-linecap:round; stroke-linejoin:round; stroke-width:2; stroke-opacity:0.1; fill:none" points="2042.46,1486.45 2042.46,106.192 "/>
<polyline clip-path="url(#clip982)" style="stroke:#000000; stroke-linecap:round; stroke-linejoin:round; stroke-width:2; stroke-opacity:0.1; fill:none" points="230.765,1182.49 2352.76,1182.49 "/>
<polyline clip-path="url(#clip982)" style="stroke:#000000; stroke-linecap:round; stroke-linejoin:round; stroke-width:2; stroke-opacity:0.1; fill:none" points="230.765,876.941 2352.76,876.941 "/>
<polyline clip-path="url(#clip982)" style="stroke:#000000; stroke-linecap:round; stroke-linejoin:round; stroke-width:2; stroke-opacity:0.1; fill:none" points="230.765,571.396 2352.76,571.396 "/>
<polyline clip-path="url(#clip982)" style="stroke:#000000; stroke-linecap:round; stroke-linejoin:round; stroke-width:2; stroke-opacity:0.1; fill:none" points="230.765,265.851 2352.76,265.851 "/>
<polyline clip-path="url(#clip980)" style="stroke:#000000; stroke-linecap:round; stroke-linejoin:round; stroke-width:4; stroke-opacity:1; fill:none" points="230.765,1486.45 2352.76,1486.45 "/>
<polyline clip-path="url(#clip980)" style="stroke:#000000; stroke-linecap:round; stroke-linejoin:round; stroke-width:4; stroke-opacity:1; fill:none" points="541.056,1486.45 541.056,1467.55 "/>
<polyline clip-path="url(#clip980)" style="stroke:#000000; stroke-linecap:round; stroke-linejoin:round; stroke-width:4; stroke-opacity:1; fill:none" points="916.408,1486.45 916.408,1467.55 "/>
<polyline clip-path="url(#clip980)" style="stroke:#000000; stroke-linecap:round; stroke-linejoin:round; stroke-width:4; stroke-opacity:1; fill:none" points="1291.76,1486.45 1291.76,1467.55 "/>
<polyline clip-path="url(#clip980)" style="stroke:#000000; stroke-linecap:round; stroke-linejoin:round; stroke-width:4; stroke-opacity:1; fill:none" points="1667.11,1486.45 1667.11,1467.55 "/>
<polyline clip-path="url(#clip980)" style="stroke:#000000; stroke-linecap:round; stroke-linejoin:round; stroke-width:4; stroke-opacity:1; fill:none" points="2042.46,1486.45 2042.46,1467.55 "/>
<path clip-path="url(#clip980)" d="M545.303 1530.21 Q548.66 1530.93 550.535 1533.2 Q552.433 1535.47 552.433 1538.8 Q552.433 1543.92 548.914 1546.72 Q545.396 1549.52 538.915 1549.52 Q536.739 1549.52 534.424 1549.08 Q532.132 1548.66 529.678 1547.81 L529.678 1543.29 Q531.623 1544.43 533.938 1545.01 Q536.252 1545.58 538.776 1545.58 Q543.174 1545.58 545.465 1543.85 Q547.78 1542.11 547.78 1538.8 Q547.78 1535.75 545.627 1534.03 Q543.498 1532.3 539.678 1532.3 L535.651 1532.3 L535.651 1528.45 L539.864 1528.45 Q543.313 1528.45 545.141 1527.09 Q546.97 1525.7 546.97 1523.11 Q546.97 1520.45 545.072 1519.03 Q543.197 1517.6 539.678 1517.6 Q537.757 1517.6 535.558 1518.01 Q533.359 1518.43 530.72 1519.31 L530.72 1515.14 Q533.382 1514.4 535.697 1514.03 Q538.035 1513.66 540.095 1513.66 Q545.419 1513.66 548.521 1516.09 Q551.623 1518.5 551.623 1522.62 Q551.623 1525.49 549.979 1527.48 Q548.336 1529.45 545.303 1530.21 Z" fill="#000000" fill-rule="nonzero" fill-opacity="1" /><path clip-path="url(#clip980)" d="M916.813 1529.7 Q913.665 1529.7 911.813 1531.86 Q909.984 1534.01 909.984 1537.76 Q909.984 1541.49 911.813 1543.66 Q913.665 1545.82 916.813 1545.82 Q919.961 1545.82 921.79 1543.66 Q923.642 1541.49 923.642 1537.76 Q923.642 1534.01 921.79 1531.86 Q919.961 1529.7 916.813 1529.7 M926.095 1515.05 L926.095 1519.31 Q924.336 1518.48 922.531 1518.04 Q920.748 1517.6 918.989 1517.6 Q914.359 1517.6 911.906 1520.72 Q909.475 1523.85 909.128 1530.17 Q910.494 1528.15 912.554 1527.09 Q914.614 1526 917.091 1526 Q922.299 1526 925.308 1529.17 Q928.341 1532.32 928.341 1537.76 Q928.341 1543.08 925.193 1546.3 Q922.044 1549.52 916.813 1549.52 Q910.818 1549.52 907.646 1544.94 Q904.475 1540.33 904.475 1531.6 Q904.475 1523.41 908.364 1518.55 Q912.253 1513.66 918.804 1513.66 Q920.563 1513.66 922.345 1514.01 Q924.151 1514.36 926.095 1515.05 Z" fill="#000000" fill-rule="nonzero" fill-opacity="1" /><path clip-path="url(#clip980)" d="M1282.06 1548.13 L1282.06 1543.87 Q1283.82 1544.7 1285.63 1545.14 Q1287.43 1545.58 1289.17 1545.58 Q1293.8 1545.58 1296.23 1542.48 Q1298.68 1539.36 1299.03 1533.01 Q1297.69 1535.01 1295.63 1536.07 Q1293.57 1537.13 1291.07 1537.13 Q1285.88 1537.13 1282.85 1534.01 Q1279.84 1530.86 1279.84 1525.42 Q1279.84 1520.1 1282.99 1516.88 Q1286.14 1513.66 1291.37 1513.66 Q1297.36 1513.66 1300.51 1518.27 Q1303.68 1522.85 1303.68 1531.6 Q1303.68 1539.77 1299.79 1544.66 Q1295.93 1549.52 1289.38 1549.52 Q1287.62 1549.52 1285.81 1549.17 Q1284.01 1548.82 1282.06 1548.13 M1291.37 1533.48 Q1294.51 1533.48 1296.34 1531.32 Q1298.2 1529.17 1298.2 1525.42 Q1298.2 1521.7 1296.34 1519.54 Q1294.51 1517.37 1291.37 1517.37 Q1288.22 1517.37 1286.37 1519.54 Q1284.54 1521.7 1284.54 1525.42 Q1284.54 1529.17 1286.37 1531.32 Q1288.22 1533.48 1291.37 1533.48 Z" fill="#000000" fill-rule="nonzero" fill-opacity="1" /><path clip-path="url(#clip980)" d="M1642.6 1544.91 L1650.24 1544.91 L1650.24 1518.55 L1641.93 1520.21 L1641.93 1515.95 L1650.19 1514.29 L1654.87 1514.29 L1654.87 1544.91 L1662.51 1544.91 L1662.51 1548.85 L1642.6 1548.85 L1642.6 1544.91 Z" fill="#000000" fill-rule="nonzero" fill-opacity="1" /><path clip-path="url(#clip980)" d="M1675.98 1544.91 L1692.3 1544.91 L1692.3 1548.85 L1670.35 1548.85 L1670.35 1544.91 Q1673.02 1542.16 1677.6 1537.53 Q1682.2 1532.88 1683.39 1531.53 Q1685.63 1529.01 1686.51 1527.27 Q1687.41 1525.51 1687.41 1523.82 Q1687.41 1521.07 1685.47 1519.33 Q1683.55 1517.6 1680.45 1517.6 Q1678.25 1517.6 1675.79 1518.36 Q1673.36 1519.13 1670.58 1520.68 L1670.58 1515.95 Q1673.41 1514.82 1675.86 1514.24 Q1678.32 1513.66 1680.35 1513.66 Q1685.72 1513.66 1688.92 1516.35 Q1692.11 1519.03 1692.11 1523.52 Q1692.11 1525.65 1691.3 1527.57 Q1690.52 1529.47 1688.41 1532.07 Q1687.83 1532.74 1684.73 1535.95 Q1681.63 1539.15 1675.98 1544.91 Z" fill="#000000" fill-rule="nonzero" fill-opacity="1" /><path clip-path="url(#clip980)" d="M2017.65 1544.91 L2025.29 1544.91 L2025.29 1518.55 L2016.98 1520.21 L2016.98 1515.95 L2025.24 1514.29 L2029.92 1514.29 L2029.92 1544.91 L2037.56 1544.91 L2037.56 1548.85 L2017.65 1548.85 L2017.65 1544.91 Z" fill="#000000" fill-rule="nonzero" fill-opacity="1" /><path clip-path="url(#clip980)" d="M2047.05 1514.29 L2065.4 1514.29 L2065.4 1518.22 L2051.33 1518.22 L2051.33 1526.7 Q2052.35 1526.35 2053.37 1526.19 Q2054.39 1526 2055.4 1526 Q2061.19 1526 2064.57 1529.17 Q2067.95 1532.34 2067.95 1537.76 Q2067.95 1543.34 2064.48 1546.44 Q2061.01 1549.52 2054.69 1549.52 Q2052.51 1549.52 2050.24 1549.15 Q2048 1548.78 2045.59 1548.04 L2045.59 1543.34 Q2047.67 1544.47 2049.9 1545.03 Q2052.12 1545.58 2054.59 1545.58 Q2058.6 1545.58 2060.94 1543.48 Q2063.27 1541.37 2063.27 1537.76 Q2063.27 1534.15 2060.94 1532.04 Q2058.6 1529.94 2054.59 1529.94 Q2052.72 1529.94 2050.84 1530.35 Q2048.99 1530.77 2047.05 1531.65 L2047.05 1514.29 Z" fill="#000000" fill-rule="nonzero" fill-opacity="1" /><polyline clip-path="url(#clip980)" style="stroke:#000000; stroke-linecap:round; stroke-linejoin:round; stroke-width:4; stroke-opacity:1; fill:none" points="230.765,1486.45 230.765,106.192 "/>
<polyline clip-path="url(#clip980)" style="stroke:#000000; stroke-linecap:round; stroke-linejoin:round; stroke-width:4; stroke-opacity:1; fill:none" points="230.765,1182.49 249.662,1182.49 "/>
<polyline clip-path="url(#clip980)" style="stroke:#000000; stroke-linecap:round; stroke-linejoin:round; stroke-width:4; stroke-opacity:1; fill:none" points="230.765,876.941 249.662,876.941 "/>
<polyline clip-path="url(#clip980)" style="stroke:#000000; stroke-linecap:round; stroke-linejoin:round; stroke-width:4; stroke-opacity:1; fill:none" points="230.765,571.396 249.662,571.396 "/>
<polyline clip-path="url(#clip980)" style="stroke:#000000; stroke-linecap:round; stroke-linejoin:round; stroke-width:4; stroke-opacity:1; fill:none" points="230.765,265.851 249.662,265.851 "/>
<path clip-path="url(#clip980)" d="M50.9921 1165.21 L73.2142 1165.21 L73.2142 1167.2 L60.668 1199.77 L55.7838 1199.77 L67.5893 1169.14 L50.9921 1169.14 L50.9921 1165.21 Z" fill="#000000" fill-rule="nonzero" fill-opacity="1" /><path clip-path="url(#clip980)" d="M96.5011 1181.13 Q99.8576 1181.85 101.733 1184.12 Q103.631 1186.39 103.631 1189.72 Q103.631 1194.84 100.112 1197.64 Q96.5937 1200.44 90.1123 1200.44 Q87.9364 1200.44 85.6216 1200 Q83.3299 1199.58 80.8762 1198.72 L80.8762 1194.21 Q82.8207 1195.34 85.1355 1195.92 Q87.4503 1196.5 89.9734 1196.5 Q94.3715 1196.5 96.6632 1194.77 Q98.978 1193.03 98.978 1189.72 Q98.978 1186.66 96.8252 1184.95 Q94.6956 1183.21 90.8762 1183.21 L86.8484 1183.21 L86.8484 1179.37 L91.0614 1179.37 Q94.5104 1179.37 96.3391 1178.01 Q98.1678 1176.62 98.1678 1174.03 Q98.1678 1171.36 96.2697 1169.95 Q94.3947 1168.52 90.8762 1168.52 Q88.9549 1168.52 86.7558 1168.93 Q84.5568 1169.35 81.9179 1170.23 L81.9179 1166.06 Q84.5799 1165.32 86.8947 1164.95 Q89.2327 1164.58 91.2928 1164.58 Q96.6169 1164.58 99.7187 1167.01 Q102.821 1169.42 102.821 1173.54 Q102.821 1176.41 101.177 1178.4 Q99.5335 1180.37 96.5011 1181.13 Z" fill="#000000" fill-rule="nonzero" fill-opacity="1" /><path clip-path="url(#clip980)" d="M122.496 1168.28 Q118.885 1168.28 117.057 1171.85 Q115.251 1175.39 115.251 1182.52 Q115.251 1189.63 117.057 1193.19 Q118.885 1196.73 122.496 1196.73 Q126.131 1196.73 127.936 1193.19 Q129.765 1189.63 129.765 1182.52 Q129.765 1175.39 127.936 1171.85 Q126.131 1168.28 122.496 1168.28 M122.496 1164.58 Q128.307 1164.58 131.362 1169.19 Q134.441 1173.77 134.441 1182.52 Q134.441 1191.25 131.362 1195.85 Q128.307 1200.44 122.496 1200.44 Q116.686 1200.44 113.608 1195.85 Q110.552 1191.25 110.552 1182.52 Q110.552 1173.77 113.608 1169.19 Q116.686 1164.58 122.496 1164.58 Z" fill="#000000" fill-rule="nonzero" fill-opacity="1" /><path clip-path="url(#clip980)" d="M152.658 1168.28 Q149.047 1168.28 147.218 1171.85 Q145.413 1175.39 145.413 1182.52 Q145.413 1189.63 147.218 1193.19 Q149.047 1196.73 152.658 1196.73 Q156.292 1196.73 158.098 1193.19 Q159.927 1189.63 159.927 1182.52 Q159.927 1175.39 158.098 1171.85 Q156.292 1168.28 152.658 1168.28 M152.658 1164.58 Q158.468 1164.58 161.524 1169.19 Q164.603 1173.77 164.603 1182.52 Q164.603 1191.25 161.524 1195.85 Q158.468 1200.44 152.658 1200.44 Q146.848 1200.44 143.769 1195.85 Q140.714 1191.25 140.714 1182.52 Q140.714 1173.77 143.769 1169.19 Q146.848 1164.58 152.658 1164.58 Z" fill="#000000" fill-rule="nonzero" fill-opacity="1" /><path clip-path="url(#clip980)" d="M182.82 1168.28 Q179.209 1168.28 177.38 1171.85 Q175.575 1175.39 175.575 1182.52 Q175.575 1189.63 177.38 1193.19 Q179.209 1196.73 182.82 1196.73 Q186.454 1196.73 188.26 1193.19 Q190.089 1189.63 190.089 1182.52 Q190.089 1175.39 188.26 1171.85 Q186.454 1168.28 182.82 1168.28 M182.82 1164.58 Q188.63 1164.58 191.686 1169.19 Q194.765 1173.77 194.765 1182.52 Q194.765 1191.25 191.686 1195.85 Q188.63 1200.44 182.82 1200.44 Q177.01 1200.44 173.931 1195.85 Q170.876 1191.25 170.876 1182.52 Q170.876 1173.77 173.931 1169.19 Q177.01 1164.58 182.82 1164.58 Z" fill="#000000" fill-rule="nonzero" fill-opacity="1" /><path clip-path="url(#clip980)" d="M50.9921 859.661 L73.2142 859.661 L73.2142 861.652 L60.668 894.221 L55.7838 894.221 L67.5893 863.596 L50.9921 863.596 L50.9921 859.661 Z" fill="#000000" fill-rule="nonzero" fill-opacity="1" /><path clip-path="url(#clip980)" d="M95.1817 863.735 L83.3762 882.184 L95.1817 882.184 L95.1817 863.735 M93.9549 859.661 L99.8345 859.661 L99.8345 882.184 L104.765 882.184 L104.765 886.073 L99.8345 886.073 L99.8345 894.221 L95.1817 894.221 L95.1817 886.073 L79.5799 886.073 L79.5799 881.559 L93.9549 859.661 Z" fill="#000000" fill-rule="nonzero" fill-opacity="1" /><path clip-path="url(#clip980)" d="M122.496 862.739 Q118.885 862.739 117.057 866.304 Q115.251 869.846 115.251 876.975 Q115.251 884.082 117.057 887.647 Q118.885 891.188 122.496 891.188 Q126.131 891.188 127.936 887.647 Q129.765 884.082 129.765 876.975 Q129.765 869.846 127.936 866.304 Q126.131 862.739 122.496 862.739 M122.496 859.036 Q128.307 859.036 131.362 863.642 Q134.441 868.226 134.441 876.975 Q134.441 885.702 131.362 890.309 Q128.307 894.892 122.496 894.892 Q116.686 894.892 113.608 890.309 Q110.552 885.702 110.552 876.975 Q110.552 868.226 113.608 863.642 Q116.686 859.036 122.496 859.036 Z" fill="#000000" fill-rule="nonzero" fill-opacity="1" /><path clip-path="url(#clip980)" d="M152.658 862.739 Q149.047 862.739 147.218 866.304 Q145.413 869.846 145.413 876.975 Q145.413 884.082 147.218 887.647 Q149.047 891.188 152.658 891.188 Q156.292 891.188 158.098 887.647 Q159.927 884.082 159.927 876.975 Q159.927 869.846 158.098 866.304 Q156.292 862.739 152.658 862.739 M152.658 859.036 Q158.468 859.036 161.524 863.642 Q164.603 868.226 164.603 876.975 Q164.603 885.702 161.524 890.309 Q158.468 894.892 152.658 894.892 Q146.848 894.892 143.769 890.309 Q140.714 885.702 140.714 876.975 Q140.714 868.226 143.769 863.642 Q146.848 859.036 152.658 859.036 Z" fill="#000000" fill-rule="nonzero" fill-opacity="1" /><path clip-path="url(#clip980)" d="M182.82 862.739 Q179.209 862.739 177.38 866.304 Q175.575 869.846 175.575 876.975 Q175.575 884.082 177.38 887.647 Q179.209 891.188 182.82 891.188 Q186.454 891.188 188.26 887.647 Q190.089 884.082 190.089 876.975 Q190.089 869.846 188.26 866.304 Q186.454 862.739 182.82 862.739 M182.82 859.036 Q188.63 859.036 191.686 863.642 Q194.765 868.226 194.765 876.975 Q194.765 885.702 191.686 890.309 Q188.63 894.892 182.82 894.892 Q177.01 894.892 173.931 890.309 Q170.876 885.702 170.876 876.975 Q170.876 868.226 173.931 863.642 Q177.01 859.036 182.82 859.036 Z" fill="#000000" fill-rule="nonzero" fill-opacity="1" /><path clip-path="url(#clip980)" d="M50.9921 554.116 L73.2142 554.116 L73.2142 556.107 L60.668 588.676 L55.7838 588.676 L67.5893 558.051 L50.9921 558.051 L50.9921 554.116 Z" fill="#000000" fill-rule="nonzero" fill-opacity="1" /><path clip-path="url(#clip980)" d="M82.3808 554.116 L100.737 554.116 L100.737 558.051 L86.6632 558.051 L86.6632 566.523 Q87.6817 566.176 88.7003 566.014 Q89.7188 565.829 90.7373 565.829 Q96.5243 565.829 99.9039 569 Q103.284 572.171 103.284 577.588 Q103.284 583.167 99.8113 586.268 Q96.3391 589.347 90.0197 589.347 Q87.8438 589.347 85.5753 588.977 Q83.3299 588.606 80.9225 587.866 L80.9225 583.167 Q83.0058 584.301 85.2281 584.856 Q87.4503 585.412 89.9271 585.412 Q93.9317 585.412 96.2697 583.306 Q98.6076 581.199 98.6076 577.588 Q98.6076 573.977 96.2697 571.87 Q93.9317 569.764 89.9271 569.764 Q88.0521 569.764 86.1771 570.181 Q84.3253 570.597 82.3808 571.477 L82.3808 554.116 Z" fill="#000000" fill-rule="nonzero" fill-opacity="1" /><path clip-path="url(#clip980)" d="M122.496 557.195 Q118.885 557.195 117.057 560.759 Q115.251 564.301 115.251 571.431 Q115.251 578.537 117.057 582.102 Q118.885 585.643 122.496 585.643 Q126.131 585.643 127.936 582.102 Q129.765 578.537 129.765 571.431 Q129.765 564.301 127.936 560.759 Q126.131 557.195 122.496 557.195 M122.496 553.491 Q128.307 553.491 131.362 558.097 Q134.441 562.681 134.441 571.431 Q134.441 580.157 131.362 584.764 Q128.307 589.347 122.496 589.347 Q116.686 589.347 113.608 584.764 Q110.552 580.157 110.552 571.431 Q110.552 562.681 113.608 558.097 Q116.686 553.491 122.496 553.491 Z" fill="#000000" fill-rule="nonzero" fill-opacity="1" /><path clip-path="url(#clip980)" d="M152.658 557.195 Q149.047 557.195 147.218 560.759 Q145.413 564.301 145.413 571.431 Q145.413 578.537 147.218 582.102 Q149.047 585.643 152.658 585.643 Q156.292 585.643 158.098 582.102 Q159.927 578.537 159.927 571.431 Q159.927 564.301 158.098 560.759 Q156.292 557.195 152.658 557.195 M152.658 553.491 Q158.468 553.491 161.524 558.097 Q164.603 562.681 164.603 571.431 Q164.603 580.157 161.524 584.764 Q158.468 589.347 152.658 589.347 Q146.848 589.347 143.769 584.764 Q140.714 580.157 140.714 571.431 Q140.714 562.681 143.769 558.097 Q146.848 553.491 152.658 553.491 Z" fill="#000000" fill-rule="nonzero" fill-opacity="1" /><path clip-path="url(#clip980)" d="M182.82 557.195 Q179.209 557.195 177.38 560.759 Q175.575 564.301 175.575 571.431 Q175.575 578.537 177.38 582.102 Q179.209 585.643 182.82 585.643 Q186.454 585.643 188.26 582.102 Q190.089 578.537 190.089 571.431 Q190.089 564.301 188.26 560.759 Q186.454 557.195 182.82 557.195 M182.82 553.491 Q188.63 553.491 191.686 558.097 Q194.765 562.681 194.765 571.431 Q194.765 580.157 191.686 584.764 Q188.63 589.347 182.82 589.347 Q177.01 589.347 173.931 584.764 Q170.876 580.157 170.876 571.431 Q170.876 562.681 173.931 558.097 Q177.01 553.491 182.82 553.491 Z" fill="#000000" fill-rule="nonzero" fill-opacity="1" /><path clip-path="url(#clip980)" d="M50.9921 248.571 L73.2142 248.571 L73.2142 250.562 L60.668 283.131 L55.7838 283.131 L67.5893 252.506 L50.9921 252.506 L50.9921 248.571 Z" fill="#000000" fill-rule="nonzero" fill-opacity="1" /><path clip-path="url(#clip980)" d="M92.9132 263.988 Q89.7651 263.988 87.9132 266.14 Q86.0845 268.293 86.0845 272.043 Q86.0845 275.77 87.9132 277.946 Q89.7651 280.099 92.9132 280.099 Q96.0613 280.099 97.89 277.946 Q99.7419 275.77 99.7419 272.043 Q99.7419 268.293 97.89 266.14 Q96.0613 263.988 92.9132 263.988 M102.196 249.335 L102.196 253.594 Q100.436 252.761 98.6308 252.321 Q96.8484 251.881 95.0891 251.881 Q90.4595 251.881 88.0058 255.006 Q85.5753 258.131 85.2281 264.45 Q86.5938 262.437 88.654 261.372 Q90.7141 260.284 93.191 260.284 Q98.3993 260.284 101.409 263.455 Q104.441 266.603 104.441 272.043 Q104.441 277.367 101.293 280.585 Q98.1447 283.802 92.9132 283.802 Q86.9179 283.802 83.7466 279.219 Q80.5753 274.612 80.5753 265.886 Q80.5753 257.691 84.4642 252.83 Q88.353 247.946 94.9039 247.946 Q96.6632 247.946 98.4456 248.293 Q100.251 248.64 102.196 249.335 Z" fill="#000000" fill-rule="nonzero" fill-opacity="1" /><path clip-path="url(#clip980)" d="M122.496 251.65 Q118.885 251.65 117.057 255.214 Q115.251 258.756 115.251 265.886 Q115.251 272.992 117.057 276.557 Q118.885 280.099 122.496 280.099 Q126.131 280.099 127.936 276.557 Q129.765 272.992 129.765 265.886 Q129.765 258.756 127.936 255.214 Q126.131 251.65 122.496 251.65 M122.496 247.946 Q128.307 247.946 131.362 252.552 Q134.441 257.136 134.441 265.886 Q134.441 274.612 131.362 279.219 Q128.307 283.802 122.496 283.802 Q116.686 283.802 113.608 279.219 Q110.552 274.612 110.552 265.886 Q110.552 257.136 113.608 252.552 Q116.686 247.946 122.496 247.946 Z" fill="#000000" fill-rule="nonzero" fill-opacity="1" /><path clip-path="url(#clip980)" d="M152.658 251.65 Q149.047 251.65 147.218 255.214 Q145.413 258.756 145.413 265.886 Q145.413 272.992 147.218 276.557 Q149.047 280.099 152.658 280.099 Q156.292 280.099 158.098 276.557 Q159.927 272.992 159.927 265.886 Q159.927 258.756 158.098 255.214 Q156.292 251.65 152.658 251.65 M152.658 247.946 Q158.468 247.946 161.524 252.552 Q164.603 257.136 164.603 265.886 Q164.603 274.612 161.524 279.219 Q158.468 283.802 152.658 283.802 Q146.848 283.802 143.769 279.219 Q140.714 274.612 140.714 265.886 Q140.714 257.136 143.769 252.552 Q146.848 247.946 152.658 247.946 Z" fill="#000000" fill-rule="nonzero" fill-opacity="1" /><path clip-path="url(#clip980)" d="M182.82 251.65 Q179.209 251.65 177.38 255.214 Q175.575 258.756 175.575 265.886 Q175.575 272.992 177.38 276.557 Q179.209 280.099 182.82 280.099 Q186.454 280.099 188.26 276.557 Q190.089 272.992 190.089 265.886 Q190.089 258.756 188.26 255.214 Q186.454 251.65 182.82 251.65 M182.82 247.946 Q188.63 247.946 191.686 252.552 Q194.765 257.136 194.765 265.886 Q194.765 274.612 191.686 279.219 Q188.63 283.802 182.82 283.802 Q177.01 283.802 173.931 279.219 Q170.876 274.612 170.876 265.886 Q170.876 257.136 173.931 252.552 Q177.01 247.946 182.82 247.946 Z" fill="#000000" fill-rule="nonzero" fill-opacity="1" /><path clip-path="url(#clip980)" d="M1262.23 35.2602 Q1262.23 29.4732 1259.83 26.2904 Q1257.46 23.1075 1253.15 23.1075 Q1248.86 23.1075 1246.46 26.2904 Q1244.09 29.4732 1244.09 35.2602 Q1244.09 41.0183 1246.46 44.2012 Q1248.86 47.384 1253.15 47.384 Q1257.46 47.384 1259.83 44.2012 Q1262.23 41.0183 1262.23 35.2602 M1267.56 47.818 Q1267.56 56.0934 1263.88 60.1154 Q1260.21 64.1663 1252.63 64.1663 Q1249.82 64.1663 1247.33 63.7323 Q1244.84 63.3272 1242.5 62.4592 L1242.5 57.2798 Q1244.84 58.5529 1247.13 59.1606 Q1249.41 59.7682 1251.79 59.7682 Q1257.02 59.7682 1259.63 57.0194 Q1262.23 54.2995 1262.23 48.7729 L1262.23 46.1398 Q1260.58 49.0044 1258.01 50.4222 Q1255.43 51.84 1251.84 51.84 Q1245.88 51.84 1242.24 47.2972 Q1238.59 42.7544 1238.59 35.2602 Q1238.59 27.7371 1242.24 23.1943 Q1245.88 18.6515 1251.84 18.6515 Q1255.43 18.6515 1258.01 20.0693 Q1260.58 21.4872 1262.23 24.3517 L1262.23 19.4328 L1267.56 19.4328 L1267.56 47.818 Z" fill="#000000" fill-rule="nonzero" fill-opacity="1" /><path clip-path="url(#clip980)" d="M1299.85 24.3517 L1299.85 6.81709 L1305.17 6.81709 L1305.17 51.84 L1299.85 51.84 L1299.85 46.9789 Q1298.17 49.8724 1295.59 51.2902 Q1293.05 52.6791 1289.46 52.6791 Q1283.59 52.6791 1279.88 47.9916 Q1276.21 43.3042 1276.21 35.6653 Q1276.21 28.0265 1279.88 23.339 Q1283.59 18.6515 1289.46 18.6515 Q1293.05 18.6515 1295.59 20.0693 Q1298.17 21.4582 1299.85 24.3517 M1281.71 35.6653 Q1281.71 41.5391 1284.11 44.8956 Q1286.54 48.2231 1290.76 48.2231 Q1294.99 48.2231 1297.42 44.8956 Q1299.85 41.5391 1299.85 35.6653 Q1299.85 29.7915 1297.42 26.464 Q1294.99 23.1075 1290.76 23.1075 Q1286.54 23.1075 1284.11 26.464 Q1281.71 29.7915 1281.71 35.6653 Z" fill="#000000" fill-rule="nonzero" fill-opacity="1" /><path clip-path="url(#clip980)" d="M1321.29 46.9789 L1321.29 64.1663 L1315.94 64.1663 L1315.94 19.4328 L1321.29 19.4328 L1321.29 24.3517 Q1322.97 21.4582 1325.51 20.0693 Q1328.09 18.6515 1331.65 18.6515 Q1337.55 18.6515 1341.22 23.339 Q1344.93 28.0265 1344.93 35.6653 Q1344.93 43.3042 1341.22 47.9916 Q1337.55 52.6791 1331.65 52.6791 Q1328.09 52.6791 1325.51 51.2902 Q1322.97 49.8724 1321.29 46.9789 M1339.4 35.6653 Q1339.4 29.7915 1336.97 26.464 Q1334.57 23.1075 1330.35 23.1075 Q1326.12 23.1075 1323.69 26.464 Q1321.29 29.7915 1321.29 35.6653 Q1321.29 41.5391 1323.69 44.8956 Q1326.12 48.2231 1330.35 48.2231 Q1334.57 48.2231 1336.97 44.8956 Q1339.4 41.5391 1339.4 35.6653 Z" fill="#000000" fill-rule="nonzero" fill-opacity="1" /><polyline clip-path="url(#clip982)" style="stroke:#009af9; stroke-linecap:round; stroke-linejoin:round; stroke-width:4; stroke-opacity:1; fill:none" points="290.821,1359.09 415.938,1407.91 541.056,1447.38 666.173,1092.57 791.291,1328.31 916.408,1076.15 1041.53,598.222 1166.64,173.619 1291.76,145.256 1416.88,394.673 1542,337.358 1667.11,486.074 1792.23,523.607 1917.35,307.639 2042.46,299.185 2167.58,268.638 2292.7,371.865 "/>
<path clip-path="url(#clip980)" d="M301.498 255.881 L566.127 255.881 L566.127 152.201 L301.498 152.201  Z" fill="#ffffff" fill-rule="evenodd" fill-opacity="1"/>
<polyline clip-path="url(#clip980)" style="stroke:#000000; stroke-linecap:round; stroke-linejoin:round; stroke-width:4; stroke-opacity:1; fill:none" points="301.498,255.881 566.127,255.881 566.127,152.201 301.498,152.201 301.498,255.881 "/>
<polyline clip-path="url(#clip980)" style="stroke:#009af9; stroke-linecap:round; stroke-linejoin:round; stroke-width:4; stroke-opacity:1; fill:none" points="325.075,204.041 466.541,204.041 "/>
<path clip-path="url(#clip980)" d="M503.962 223.728 Q502.156 228.358 500.443 229.77 Q498.73 231.182 495.86 231.182 L492.457 231.182 L492.457 227.617 L494.957 227.617 Q496.716 227.617 497.688 226.784 Q498.661 225.95 499.841 222.848 L500.605 220.904 L490.119 195.395 L494.633 195.395 L502.735 215.673 L510.836 195.395 L515.35 195.395 L503.962 223.728 Z" fill="#000000" fill-rule="nonzero" fill-opacity="1" /><path clip-path="url(#clip980)" d="M522.642 217.385 L530.281 217.385 L530.281 191.02 L521.971 192.687 L521.971 188.427 L530.235 186.761 L534.91 186.761 L534.91 217.385 L542.549 217.385 L542.549 221.321 L522.642 221.321 L522.642 217.385 Z" fill="#000000" fill-rule="nonzero" fill-opacity="1" /></svg>
