<?xml version="1.0" encoding="utf-8"?>
<svg xmlns="http://www.w3.org/2000/svg" xmlns:xlink="http://www.w3.org/1999/xlink" width="600" height="400" viewBox="0 0 2400 1600">
<defs>
  <clipPath id="clip760">
    <rect x="0" y="0" width="2400" height="1600"/>
  </clipPath>
</defs>
<path clip-path="url(#clip760)" d="M0 1600 L2400 1600 L2400 0 L0 0  Z" fill="#ffffff" fill-rule="evenodd" fill-opacity="1"/>
<defs>
  <clipPath id="clip761">
    <rect x="480" y="0" width="1681" height="1600"/>
  </clipPath>
</defs>
<path clip-path="url(#clip760)" d="M230.765 1486.45 L2352.76 1486.45 L2352.76 106.192 L230.765 106.192  Z" fill="#ffffff" fill-rule="evenodd" fill-opacity="1"/>
<defs>
  <clipPath id="clip762">
    <rect x="230" y="106" width="2123" height="1381"/>
  </clipPath>
</defs>
<polyline clip-path="url(#clip762)" style="stroke:#000000; stroke-linecap:round; stroke-linejoin:round; stroke-width:2; stroke-opacity:0.1; fill:none" points="541.056,1486.45 541.056,106.192 "/>
<polyline clip-path="url(#clip762)" style="stroke:#000000; stroke-linecap:round; stroke-linejoin:round; stroke-width:2; stroke-opacity:0.1; fill:none" points="916.408,1486.45 916.408,106.192 "/>
<polyline clip-path="url(#clip762)" style="stroke:#000000; stroke-linecap:round; stroke-linejoin:round; stroke-width:2; stroke-opacity:0.1; fill:none" points="1291.76,1486.45 1291.76,106.192 "/>
<polyline clip-path="url(#clip762)" style="stroke:#000000; stroke-linecap:round; stroke-linejoin:round; stroke-width:2; stroke-opacity:0.1; fill:none" points="1667.11,1486.45 1667.11,106.192 "/>
<polyline clip-path="url(#clip762)" style="stroke:#000000; stroke-linecap:round; stroke-linejoin:round; stroke-width:2; stroke-opacity:0.1; fill:none" points="2042.46,1486.45 2042.46,106.192 "/>
<polyline clip-path="url(#clip762)" style="stroke:#000000; stroke-linecap:round; stroke-linejoin:round; stroke-width:2; stroke-opacity:0.1; fill:none" points="230.765,1379.74 2352.76,1379.74 "/>
<polyline clip-path="url(#clip762)" style="stroke:#000000; stroke-linecap:round; stroke-linejoin:round; stroke-width:2; stroke-opacity:0.1; fill:none" points="230.765,1181.04 2352.76,1181.04 "/>
<polyline clip-path="url(#clip762)" style="stroke:#000000; stroke-linecap:round; stroke-linejoin:round; stroke-width:2; stroke-opacity:0.1; fill:none" points="230.765,982.335 2352.76,982.335 "/>
<polyline clip-path="url(#clip762)" style="stroke:#000000; stroke-linecap:round; stroke-linejoin:round; stroke-width:2; stroke-opacity:0.1; fill:none" points="230.765,783.634 2352.76,783.634 "/>
<polyline clip-path="url(#clip762)" style="stroke:#000000; stroke-linecap:round; stroke-linejoin:round; stroke-width:2; stroke-opacity:0.1; fill:none" points="230.765,584.932 2352.76,584.932 "/>
<polyline clip-path="url(#clip762)" style="stroke:#000000; stroke-linecap:round; stroke-linejoin:round; stroke-width:2; stroke-opacity:0.1; fill:none" points="230.765,386.23 2352.76,386.23 "/>
<polyline clip-path="url(#clip762)" style="stroke:#000000; stroke-linecap:round; stroke-linejoin:round; stroke-width:2; stroke-opacity:0.1; fill:none" points="230.765,187.528 2352.76,187.528 "/>
<polyline clip-path="url(#clip760)" style="stroke:#000000; stroke-linecap:round; stroke-linejoin:round; stroke-width:4; stroke-opacity:1; fill:none" points="230.765,1486.45 2352.76,1486.45 "/>
<polyline clip-path="url(#clip760)" style="stroke:#000000; stroke-linecap:round; stroke-linejoin:round; stroke-width:4; stroke-opacity:1; fill:none" points="541.056,1486.45 541.056,1467.55 "/>
<polyline clip-path="url(#clip760)" style="stroke:#000000; stroke-linecap:round; stroke-linejoin:round; stroke-width:4; stroke-opacity:1; fill:none" points="916.408,1486.45 916.408,1467.55 "/>
<polyline clip-path="url(#clip760)" style="stroke:#000000; stroke-linecap:round; stroke-linejoin:round; stroke-width:4; stroke-opacity:1; fill:none" points="1291.76,1486.45 1291.76,1467.55 "/>
<polyline clip-path="url(#clip760)" style="stroke:#000000; stroke-linecap:round; stroke-linejoin:round; stroke-width:4; stroke-opacity:1; fill:none" points="1667.11,1486.45 1667.11,1467.55 "/>
<polyline clip-path="url(#clip760)" style="stroke:#000000; stroke-linecap:round; stroke-linejoin:round; stroke-width:4; stroke-opacity:1; fill:none" points="2042.46,1486.45 2042.46,1467.55 "/>
<path clip-path="url(#clip760)" d="M545.303 1530.21 Q548.66 1530.93 550.535 1533.2 Q552.433 1535.47 552.433 1538.8 Q552.433 1543.92 548.914 1546.72 Q545.396 1549.52 538.915 1549.52 Q536.739 1549.52 534.424 1549.08 Q532.132 1548.66 529.678 1547.81 L529.678 1543.29 Q531.623 1544.43 533.938 1545.01 Q536.252 1545.58 538.776 1545.58 Q543.174 1545.58 545.465 1543.85 Q547.78 1542.11 547.78 1538.8 Q547.78 1535.75 545.627 1534.03 Q543.498 1532.3 539.678 1532.3 L535.651 1532.3 L535.651 1528.45 L539.864 1528.45 Q543.313 1528.45 545.141 1527.09 Q546.97 1525.7 546.97 1523.11 Q546.97 1520.45 545.072 1519.03 Q543.197 1517.6 539.678 1517.6 Q537.757 1517.6 535.558 1518.01 Q533.359 1518.43 530.72 1519.31 L530.72 1515.14 Q533.382 1514.4 535.697 1514.03 Q538.035 1513.66 540.095 1513.66 Q545.419 1513.66 548.521 1516.09 Q551.623 1518.5 551.623 1522.62 Q551.623 1525.49 549.979 1527.48 Q548.336 1529.45 545.303 1530.21 Z" fill="#000000" fill-rule="nonzero" fill-opacity="1" /><path clip-path="url(#clip760)" d="M916.813 1529.7 Q913.665 1529.7 911.813 1531.86 Q909.984 1534.01 909.984 1537.76 Q909.984 1541.49 911.813 1543.66 Q913.665 1545.82 916.813 1545.82 Q919.961 1545.82 921.79 1543.66 Q923.642 1541.49 923.642 1537.76 Q923.642 1534.01 921.79 1531.86 Q919.961 1529.7 916.813 1529.7 M926.095 1515.05 L926.095 1519.31 Q924.336 1518.48 922.531 1518.04 Q920.748 1517.6 918.989 1517.6 Q914.359 1517.6 911.906 1520.72 Q909.475 1523.85 909.128 1530.17 Q910.494 1528.15 912.554 1527.09 Q914.614 1526 917.091 1526 Q922.299 1526 925.308 1529.17 Q928.341 1532.32 928.341 1537.76 Q928.341 1543.08 925.193 1546.3 Q922.044 1549.52 916.813 1549.52 Q910.818 1549.52 907.646 1544.94 Q904.475 1540.33 904.475 1531.6 Q904.475 1523.41 908.364 1518.55 Q912.253 1513.66 918.804 1513.66 Q920.563 1513.66 922.345 1514.01 Q924.151 1514.36 926.095 1515.05 Z" fill="#000000" fill-rule="nonzero" fill-opacity="1" /><path clip-path="url(#clip760)" d="M1282.06 1548.13 L1282.06 1543.87 Q1283.82 1544.7 1285.63 1545.14 Q1287.43 1545.58 1289.17 1545.58 Q1293.8 1545.58 1296.23 1542.48 Q1298.68 1539.36 1299.03 1533.01 Q1297.69 1535.01 1295.63 1536.07 Q1293.57 1537.13 1291.07 1537.13 Q1285.88 1537.13 1282.85 1534.01 Q1279.84 1530.86 1279.84 1525.42 Q1279.84 1520.1 1282.99 1516.88 Q1286.14 1513.66 1291.37 1513.66 Q1297.36 1513.66 1300.51 1518.27 Q1303.68 1522.85 1303.68 1531.6 Q1303.68 1539.77 1299.79 1544.66 Q1295.93 1549.52 1289.38 1549.52 Q1287.62 1549.52 1285.81 1549.17 Q1284.01 1548.82 1282.06 1548.13 M1291.37 1533.48 Q1294.51 1533.48 1296.34 1531.32 Q1298.2 1529.17 1298.2 1525.42 Q1298.2 1521.7 1296.34 1519.54 Q1294.51 1517.37 1291.37 1517.37 Q1288.22 1517.37 1286.37 1519.54 Q1284.54 1521.7 1284.54 1525.42 Q1284.54 1529.17 1286.37 1531.32 Q1288.22 1533.48 1291.37 1533.48 Z" fill="#000000" fill-rule="nonzero" fill-opacity="1" /><path clip-path="url(#clip760)" d="M1642.6 1544.91 L1650.24 1544.91 L1650.24 1518.55 L1641.93 1520.21 L1641.93 1515.95 L1650.19 1514.29 L1654.87 1514.29 L1654.87 1544.91 L1662.51 1544.91 L1662.51 1548.85 L1642.6 1548.85 L1642.6 1544.91 Z" fill="#000000" fill-rule="nonzero" fill-opacity="1" /><path clip-path="url(#clip760)" d="M1675.98 1544.91 L1692.3 1544.91 L1692.3 1548.85 L1670.35 1548.85 L1670.35 1544.91 Q1673.02 1542.16 1677.6 1537.53 Q1682.2 1532.88 1683.39 1531.53 Q1685.63 1529.01 1686.51 1527.27 Q1687.41 1525.51 1687.41 1523.82 Q1687.41 1521.07 1685.47 1519.33 Q1683.55 1517.6 1680.45 1517.6 Q1678.25 1517.6 1675.79 1518.36 Q1673.36 1519.13 1670.58 1520.68 L1670.58 1515.95 Q1673.41 1514.82 1675.86 1514.24 Q1678.32 1513.66 1680.35 1513.66 Q1685.72 1513.66 1688.92 1516.35 Q1692.11 1519.03 1692.11 1523.52 Q1692.11 1525.65 1691.3 1527.57 Q1690.52 1529.47 1688.41 1532.07 Q1687.83 1532.74 1684.73 1535.95 Q1681.63 1539.15 1675.98 1544.91 Z" fill="#000000" fill-rule="nonzero" fill-opacity="1" /><path clip-path="url(#clip760)" d="M2017.65 1544.91 L2025.29 1544.91 L2025.29 1518.55 L2016.98 1520.21 L2016.98 1515.95 L2025.24 1514.29 L2029.92 1514.29 L2029.92 1544.91 L2037.56 1544.91 L2037.56 1548.85 L2017.65 1548.85 L2017.65 1544.91 Z" fill="#000000" fill-rule="nonzero" fill-opacity="1" /><path clip-path="url(#clip760)" d="M2047.05 1514.29 L2065.4 1514.29 L2065.4 1518.22 L2051.33 1518.22 L2051.33 1526.7 Q2052.35 1526.35 2053.37 1526.19 Q2054.39 1526 2055.4 1526 Q2061.19 1526 2064.57 1529.17 Q2067.95 1532.34 2067.95 1537.76 Q2067.95 1543.34 2064.48 1546.44 Q2061.01 1549.52 2054.69 1549.52 Q2052.51 1549.52 2050.24 1549.15 Q2048 1548.78 2045.59 1548.04 L2045.59 1543.34 Q2047.67 1544.47 2049.9 1545.03 Q2052.12 1545.58 2054.59 1545.58 Q2058.6 1545.58 2060.94 1543.48 Q2063.27 1541.37 2063.27 1537.76 Q2063.27 1534.15 2060.94 1532.04 Q2058.6 1529.94 2054.59 1529.94 Q2052.72 1529.94 2050.84 1530.35 Q2048.99 1530.77 2047.05 1531.65 L2047.05 1514.29 Z" fill="#000000" fill-rule="nonzero" fill-opacity="1" /><polyline clip-path="url(#clip760)" style="stroke:#000000; stroke-linecap:round; stroke-linejoin:round; stroke-width:4; stroke-opacity:1; fill:none" points="230.765,1486.45 230.765,106.192 "/>
<polyline clip-path="url(#clip760)" style="stroke:#000000; stroke-linecap:round; stroke-linejoin:round; stroke-width:4; stroke-opacity:1; fill:none" points="230.765,1379.74 249.662,1379.74 "/>
<polyline clip-path="url(#clip760)" style="stroke:#000000; stroke-linecap:round; stroke-linejoin:round; stroke-width:4; stroke-opacity:1; fill:none" points="230.765,1181.04 249.662,1181.04 "/>
<polyline clip-path="url(#clip760)" style="stroke:#000000; stroke-linecap:round; stroke-linejoin:round; stroke-width:4; stroke-opacity:1; fill:none" points="230.765,982.335 249.662,982.335 "/>
<polyline clip-path="url(#clip760)" style="stroke:#000000; stroke-linecap:round; stroke-linejoin:round; stroke-width:4; stroke-opacity:1; fill:none" points="230.765,783.634 249.662,783.634 "/>
<polyline clip-path="url(#clip760)" style="stroke:#000000; stroke-linecap:round; stroke-linejoin:round; stroke-width:4; stroke-opacity:1; fill:none" points="230.765,584.932 249.662,584.932 "/>
<polyline clip-path="url(#clip760)" style="stroke:#000000; stroke-linecap:round; stroke-linejoin:round; stroke-width:4; stroke-opacity:1; fill:none" points="230.765,386.23 249.662,386.23 "/>
<polyline clip-path="url(#clip760)" style="stroke:#000000; stroke-linecap:round; stroke-linejoin:round; stroke-width:4; stroke-opacity:1; fill:none" points="230.765,187.528 249.662,187.528 "/>
<path clip-path="url(#clip760)" d="M50.9921 1362.46 L73.2142 1362.46 L73.2142 1364.45 L60.668 1397.02 L55.7838 1397.02 L67.5893 1366.39 L50.9921 1366.39 L50.9921 1362.46 Z" fill="#000000" fill-rule="nonzero" fill-opacity="1" /><path clip-path="url(#clip760)" d="M86.3623 1393.08 L102.682 1393.08 L102.682 1397.02 L80.7373 1397.02 L80.7373 1393.08 Q83.3994 1390.33 87.9827 1385.7 Q92.5891 1381.05 93.7697 1379.7 Q96.015 1377.18 96.8947 1375.45 Q97.7974 1373.69 97.7974 1372 Q97.7974 1369.24 95.853 1367.51 Q93.9317 1365.77 90.8299 1365.77 Q88.6308 1365.77 86.1771 1366.53 Q83.7466 1367.3 80.9688 1368.85 L80.9688 1364.13 Q83.7929 1362.99 86.2466 1362.41 Q88.7003 1361.83 90.7373 1361.83 Q96.1076 1361.83 99.3021 1364.52 Q102.496 1367.2 102.496 1371.7 Q102.496 1373.82 101.686 1375.75 Q100.899 1377.64 98.7928 1380.24 Q98.2141 1380.91 95.1123 1384.13 Q92.0104 1387.32 86.3623 1393.08 Z" fill="#000000" fill-rule="nonzero" fill-opacity="1" /><path clip-path="url(#clip760)" d="M112.543 1362.46 L130.899 1362.46 L130.899 1366.39 L116.825 1366.39 L116.825 1374.87 Q117.844 1374.52 118.862 1374.36 Q119.881 1374.17 120.899 1374.17 Q126.686 1374.17 130.066 1377.34 Q133.445 1380.51 133.445 1385.93 Q133.445 1391.51 129.973 1394.61 Q126.501 1397.69 120.182 1397.69 Q118.006 1397.69 115.737 1397.32 Q113.492 1396.95 111.084 1396.21 L111.084 1391.51 Q113.168 1392.64 115.39 1393.2 Q117.612 1393.76 120.089 1393.76 Q124.094 1393.76 126.432 1391.65 Q128.769 1389.54 128.769 1385.93 Q128.769 1382.32 126.432 1380.21 Q124.094 1378.11 120.089 1378.11 Q118.214 1378.11 116.339 1378.52 Q114.487 1378.94 112.543 1379.82 L112.543 1362.46 Z" fill="#000000" fill-rule="nonzero" fill-opacity="1" /><path clip-path="url(#clip760)" d="M152.658 1365.54 Q149.047 1365.54 147.218 1369.1 Q145.413 1372.64 145.413 1379.77 Q145.413 1386.88 147.218 1390.44 Q149.047 1393.99 152.658 1393.99 Q156.292 1393.99 158.098 1390.44 Q159.927 1386.88 159.927 1379.77 Q159.927 1372.64 158.098 1369.1 Q156.292 1365.54 152.658 1365.54 M152.658 1361.83 Q158.468 1361.83 161.524 1366.44 Q164.603 1371.02 164.603 1379.77 Q164.603 1388.5 161.524 1393.11 Q158.468 1397.69 152.658 1397.69 Q146.848 1397.69 143.769 1393.11 Q140.714 1388.5 140.714 1379.77 Q140.714 1371.02 143.769 1366.44 Q146.848 1361.83 152.658 1361.83 Z" fill="#000000" fill-rule="nonzero" fill-opacity="1" /><path clip-path="url(#clip760)" d="M182.82 1365.54 Q179.209 1365.54 177.38 1369.1 Q175.575 1372.64 175.575 1379.77 Q175.575 1386.88 177.38 1390.44 Q179.209 1393.99 182.82 1393.99 Q186.454 1393.99 188.26 1390.44 Q190.089 1386.88 190.089 1379.77 Q190.089 1372.64 188.26 1369.1 Q186.454 1365.54 182.82 1365.54 M182.82 1361.83 Q188.63 1361.83 191.686 1366.44 Q194.765 1371.02 194.765 1379.77 Q194.765 1388.5 191.686 1393.11 Q188.63 1397.69 182.82 1397.69 Q177.01 1397.69 173.931 1393.11 Q170.876 1388.5 170.876 1379.77 Q170.876 1371.02 173.931 1366.44 Q177.01 1361.83 182.82 1361.83 Z" fill="#000000" fill-rule="nonzero" fill-opacity="1" /><path clip-path="url(#clip760)" d="M50.9921 1163.76 L73.2142 1163.76 L73.2142 1165.75 L60.668 1198.32 L55.7838 1198.32 L67.5893 1167.69 L50.9921 1167.69 L50.9921 1163.76 Z" fill="#000000" fill-rule="nonzero" fill-opacity="1" /><path clip-path="url(#clip760)" d="M96.5011 1179.68 Q99.8576 1180.4 101.733 1182.67 Q103.631 1184.94 103.631 1188.27 Q103.631 1193.39 100.112 1196.19 Q96.5937 1198.99 90.1123 1198.99 Q87.9364 1198.99 85.6216 1198.55 Q83.3299 1198.13 80.8762 1197.28 L80.8762 1192.76 Q82.8207 1193.9 85.1355 1194.47 Q87.4503 1195.05 89.9734 1195.05 Q94.3715 1195.05 96.6632 1193.32 Q98.978 1191.58 98.978 1188.27 Q98.978 1185.22 96.8252 1183.5 Q94.6956 1181.77 90.8762 1181.77 L86.8484 1181.77 L86.8484 1177.92 L91.0614 1177.92 Q94.5104 1177.92 96.3391 1176.56 Q98.1678 1175.17 98.1678 1172.58 Q98.1678 1169.91 96.2697 1168.5 Q94.3947 1167.07 90.8762 1167.07 Q88.9549 1167.07 86.7558 1167.48 Q84.5568 1167.9 81.9179 1168.78 L81.9179 1164.61 Q84.5799 1163.87 86.8947 1163.5 Q89.2327 1163.13 91.2928 1163.13 Q96.6169 1163.13 99.7187 1165.56 Q102.821 1167.97 102.821 1172.09 Q102.821 1174.96 101.177 1176.95 Q99.5335 1178.92 96.5011 1179.68 Z" fill="#000000" fill-rule="nonzero" fill-opacity="1" /><path clip-path="url(#clip760)" d="M122.496 1166.84 Q118.885 1166.84 117.057 1170.4 Q115.251 1173.94 115.251 1181.07 Q115.251 1188.18 117.057 1191.74 Q118.885 1195.28 122.496 1195.28 Q126.131 1195.28 127.936 1191.74 Q129.765 1188.18 129.765 1181.07 Q129.765 1173.94 127.936 1170.4 Q126.131 1166.84 122.496 1166.84 M122.496 1163.13 Q128.307 1163.13 131.362 1167.74 Q134.441 1172.32 134.441 1181.07 Q134.441 1189.8 131.362 1194.41 Q128.307 1198.99 122.496 1198.99 Q116.686 1198.99 113.608 1194.41 Q110.552 1189.8 110.552 1181.07 Q110.552 1172.32 113.608 1167.74 Q116.686 1163.13 122.496 1163.13 Z" fill="#000000" fill-rule="nonzero" fill-opacity="1" /><path clip-path="url(#clip760)" d="M152.658 1166.84 Q149.047 1166.84 147.218 1170.4 Q145.413 1173.94 145.413 1181.07 Q145.413 1188.18 147.218 1191.74 Q149.047 1195.28 152.658 1195.28 Q156.292 1195.28 158.098 1191.74 Q159.927 1188.18 159.927 1181.07 Q159.927 1173.94 158.098 1170.4 Q156.292 1166.84 152.658 1166.84 M152.658 1163.13 Q158.468 1163.13 161.524 1167.74 Q164.603 1172.32 164.603 1181.07 Q164.603 1189.8 161.524 1194.41 Q158.468 1198.99 152.658 1198.99 Q146.848 1198.99 143.769 1194.41 Q140.714 1189.8 140.714 1181.07 Q140.714 1172.32 143.769 1167.74 Q146.848 1163.13 152.658 1163.13 Z" fill="#000000" fill-rule="nonzero" fill-opacity="1" /><path clip-path="url(#clip760)" d="M182.82 1166.84 Q179.209 1166.84 177.38 1170.4 Q175.575 1173.94 175.575 1181.07 Q175.575 1188.18 177.38 1191.74 Q179.209 1195.28 182.82 1195.28 Q186.454 1195.28 188.26 1191.74 Q190.089 1188.18 190.089 1181.07 Q190.089 1173.94 188.26 1170.4 Q186.454 1166.84 182.82 1166.84 M182.82 1163.13 Q188.63 1163.13 191.686 1167.74 Q194.765 1172.32 194.765 1181.07 Q194.765 1189.8 191.686 1194.41 Q188.63 1198.99 182.82 1198.99 Q177.01 1198.99 173.931 1194.41 Q170.876 1189.8 170.876 1181.07 Q170.876 1172.32 173.931 1167.74 Q177.01 1163.13 182.82 1163.13 Z" fill="#000000" fill-rule="nonzero" fill-opacity="1" /><path clip-path="url(#clip760)" d="M50.9921 965.055 L73.2142 965.055 L73.2142 967.046 L60.668 999.615 L55.7838 999.615 L67.5893 968.991 L50.9921 968.991 L50.9921 965.055 Z" fill="#000000" fill-rule="nonzero" fill-opacity="1" /><path clip-path="url(#clip760)" d="M96.5011 980.981 Q99.8576 981.699 101.733 983.967 Q103.631 986.236 103.631 989.569 Q103.631 994.685 100.112 997.486 Q96.5937 1000.29 90.1123 1000.29 Q87.9364 1000.29 85.6216 999.847 Q83.3299 999.43 80.8762 998.574 L80.8762 994.06 Q82.8207 995.194 85.1355 995.773 Q87.4503 996.352 89.9734 996.352 Q94.3715 996.352 96.6632 994.615 Q98.978 992.879 98.978 989.569 Q98.978 986.514 96.8252 984.801 Q94.6956 983.065 90.8762 983.065 L86.8484 983.065 L86.8484 979.222 L91.0614 979.222 Q94.5104 979.222 96.3391 977.856 Q98.1678 976.467 98.1678 973.875 Q98.1678 971.213 96.2697 969.801 Q94.3947 968.366 90.8762 968.366 Q88.9549 968.366 86.7558 968.782 Q84.5568 969.199 81.9179 970.079 L81.9179 965.912 Q84.5799 965.171 86.8947 964.801 Q89.2327 964.43 91.2928 964.43 Q96.6169 964.43 99.7187 966.861 Q102.821 969.268 102.821 973.389 Q102.821 976.259 101.177 978.25 Q99.5335 980.217 96.5011 980.981 Z" fill="#000000" fill-rule="nonzero" fill-opacity="1" /><path clip-path="url(#clip760)" d="M112.543 965.055 L130.899 965.055 L130.899 968.991 L116.825 968.991 L116.825 977.463 Q117.844 977.116 118.862 976.953 Q119.881 976.768 120.899 976.768 Q126.686 976.768 130.066 979.94 Q133.445 983.111 133.445 988.527 Q133.445 994.106 129.973 997.208 Q126.501 1000.29 120.182 1000.29 Q118.006 1000.29 115.737 999.916 Q113.492 999.546 111.084 998.805 L111.084 994.106 Q113.168 995.24 115.39 995.796 Q117.612 996.352 120.089 996.352 Q124.094 996.352 126.432 994.245 Q128.769 992.139 128.769 988.527 Q128.769 984.916 126.432 982.81 Q124.094 980.703 120.089 980.703 Q118.214 980.703 116.339 981.12 Q114.487 981.537 112.543 982.416 L112.543 965.055 Z" fill="#000000" fill-rule="nonzero" fill-opacity="1" /><path clip-path="url(#clip760)" d="M152.658 968.134 Q149.047 968.134 147.218 971.699 Q145.413 975.241 145.413 982.37 Q145.413 989.477 147.218 993.041 Q149.047 996.583 152.658 996.583 Q156.292 996.583 158.098 993.041 Q159.927 989.477 159.927 982.37 Q159.927 975.241 158.098 971.699 Q156.292 968.134 152.658 968.134 M152.658 964.43 Q158.468 964.43 161.524 969.037 Q164.603 973.62 164.603 982.37 Q164.603 991.097 161.524 995.703 Q158.468 1000.29 152.658 1000.29 Q146.848 1000.29 143.769 995.703 Q140.714 991.097 140.714 982.37 Q140.714 973.62 143.769 969.037 Q146.848 964.43 152.658 964.43 Z" fill="#000000" fill-rule="nonzero" fill-opacity="1" /><path clip-path="url(#clip760)" d="M182.82 968.134 Q179.209 968.134 177.38 971.699 Q175.575 975.241 175.575 982.37 Q175.575 989.477 177.38 993.041 Q179.209 996.583 182.82 996.583 Q186.454 996.583 188.26 993.041 Q190.089 989.477 190.089 982.37 Q190.089 975.241 188.26 971.699 Q186.454 968.134 182.82 968.134 M182.82 964.43 Q188.63 964.43 191.686 969.037 Q194.765 973.62 194.765 982.37 Q194.765 991.097 191.686 995.703 Q188.63 1000.29 182.82 1000.29 Q177.01 1000.29 173.931 995.703 Q170.876 991.097 170.876 982.37 Q170.876 973.62 173.931 969.037 Q177.01 964.43 182.82 964.43 Z" fill="#000000" fill-rule="nonzero" fill-opacity="1" /><path clip-path="url(#clip760)" d="M50.9921 766.354 L73.2142 766.354 L73.2142 768.344 L60.668 800.914 L55.7838 800.914 L67.5893 770.289 L50.9921 770.289 L50.9921 766.354 Z" fill="#000000" fill-rule="nonzero" fill-opacity="1" /><path clip-path="url(#clip760)" d="M95.1817 770.428 L83.3762 788.877 L95.1817 788.877 L95.1817 770.428 M93.9549 766.354 L99.8345 766.354 L99.8345 788.877 L104.765 788.877 L104.765 792.765 L99.8345 792.765 L99.8345 800.914 L95.1817 800.914 L95.1817 792.765 L79.5799 792.765 L79.5799 788.252 L93.9549 766.354 Z" fill="#000000" fill-rule="nonzero" fill-opacity="1" /><path clip-path="url(#clip760)" d="M122.496 769.432 Q118.885 769.432 117.057 772.997 Q115.251 776.539 115.251 783.668 Q115.251 790.775 117.057 794.34 Q118.885 797.881 122.496 797.881 Q126.131 797.881 127.936 794.34 Q129.765 790.775 129.765 783.668 Q129.765 776.539 127.936 772.997 Q126.131 769.432 122.496 769.432 M122.496 765.729 Q128.307 765.729 131.362 770.335 Q134.441 774.918 134.441 783.668 Q134.441 792.395 131.362 797.002 Q128.307 801.585 122.496 801.585 Q116.686 801.585 113.608 797.002 Q110.552 792.395 110.552 783.668 Q110.552 774.918 113.608 770.335 Q116.686 765.729 122.496 765.729 Z" fill="#000000" fill-rule="nonzero" fill-opacity="1" /><path clip-path="url(#clip760)" d="M152.658 769.432 Q149.047 769.432 147.218 772.997 Q145.413 776.539 145.413 783.668 Q145.413 790.775 147.218 794.34 Q149.047 797.881 152.658 797.881 Q156.292 797.881 158.098 794.34 Q159.927 790.775 159.927 783.668 Q159.927 776.539 158.098 772.997 Q156.292 769.432 152.658 769.432 M152.658 765.729 Q158.468 765.729 161.524 770.335 Q164.603 774.918 164.603 783.668 Q164.603 792.395 161.524 797.002 Q158.468 801.585 152.658 801.585 Q146.848 801.585 143.769 797.002 Q140.714 792.395 140.714 783.668 Q140.714 774.918 143.769 770.335 Q146.848 765.729 152.658 765.729 Z" fill="#000000" fill-rule="nonzero" fill-opacity="1" /><path clip-path="url(#clip760)" d="M182.82 769.432 Q179.209 769.432 177.38 772.997 Q175.575 776.539 175.575 783.668 Q175.575 790.775 177.38 794.34 Q179.209 797.881 182.82 797.881 Q186.454 797.881 188.26 794.34 Q190.089 790.775 190.089 783.668 Q190.089 776.539 188.26 772.997 Q186.454 769.432 182.82 769.432 M182.82 765.729 Q188.63 765.729 191.686 770.335 Q194.765 774.918 194.765 783.668 Q194.765 792.395 191.686 797.002 Q188.63 801.585 182.82 801.585 Q177.01 801.585 173.931 797.002 Q170.876 792.395 170.876 783.668 Q170.876 774.918 173.931 770.335 Q177.01 765.729 182.82 765.729 Z" fill="#000000" fill-rule="nonzero" fill-opacity="1" /><path clip-path="url(#clip760)" d="M50.9921 567.652 L73.2142 567.652 L73.2142 569.643 L60.668 602.212 L55.7838 602.212 L67.5893 571.587 L50.9921 571.587 L50.9921 567.652 Z" fill="#000000" fill-rule="nonzero" fill-opacity="1" /><path clip-path="url(#clip760)" d="M95.1817 571.726 L83.3762 590.175 L95.1817 590.175 L95.1817 571.726 M93.9549 567.652 L99.8345 567.652 L99.8345 590.175 L104.765 590.175 L104.765 594.064 L99.8345 594.064 L99.8345 602.212 L95.1817 602.212 L95.1817 594.064 L79.5799 594.064 L79.5799 589.55 L93.9549 567.652 Z" fill="#000000" fill-rule="nonzero" fill-opacity="1" /><path clip-path="url(#clip760)" d="M112.543 567.652 L130.899 567.652 L130.899 571.587 L116.825 571.587 L116.825 580.059 Q117.844 579.712 118.862 579.55 Q119.881 579.365 120.899 579.365 Q126.686 579.365 130.066 582.536 Q133.445 585.707 133.445 591.124 Q133.445 596.703 129.973 599.804 Q126.501 602.883 120.182 602.883 Q118.006 602.883 115.737 602.513 Q113.492 602.142 111.084 601.402 L111.084 596.703 Q113.168 597.837 115.39 598.392 Q117.612 598.948 120.089 598.948 Q124.094 598.948 126.432 596.841 Q128.769 594.735 128.769 591.124 Q128.769 587.513 126.432 585.406 Q124.094 583.3 120.089 583.3 Q118.214 583.3 116.339 583.717 Q114.487 584.133 112.543 585.013 L112.543 567.652 Z" fill="#000000" fill-rule="nonzero" fill-opacity="1" /><path clip-path="url(#clip760)" d="M152.658 570.731 Q149.047 570.731 147.218 574.295 Q145.413 577.837 145.413 584.967 Q145.413 592.073 147.218 595.638 Q149.047 599.179 152.658 599.179 Q156.292 599.179 158.098 595.638 Q159.927 592.073 159.927 584.967 Q159.927 577.837 158.098 574.295 Q156.292 570.731 152.658 570.731 M152.658 567.027 Q158.468 567.027 161.524 571.633 Q164.603 576.217 164.603 584.967 Q164.603 593.693 161.524 598.3 Q158.468 602.883 152.658 602.883 Q146.848 602.883 143.769 598.3 Q140.714 593.693 140.714 584.967 Q140.714 576.217 143.769 571.633 Q146.848 567.027 152.658 567.027 Z" fill="#000000" fill-rule="nonzero" fill-opacity="1" /><path clip-path="url(#clip760)" d="M182.82 570.731 Q179.209 570.731 177.38 574.295 Q175.575 577.837 175.575 584.967 Q175.575 592.073 177.38 595.638 Q179.209 599.179 182.82 599.179 Q186.454 599.179 188.26 595.638 Q190.089 592.073 190.089 584.967 Q190.089 577.837 188.26 574.295 Q186.454 570.731 182.82 570.731 M182.82 567.027 Q188.63 567.027 191.686 571.633 Q194.765 576.217 194.765 584.967 Q194.765 593.693 191.686 598.3 Q188.63 602.883 182.82 602.883 Q177.01 602.883 173.931 598.3 Q170.876 593.693 170.876 584.967 Q170.876 576.217 173.931 571.633 Q177.01 567.027 182.82 567.027 Z" fill="#000000" fill-rule="nonzero" fill-opacity="1" /><path clip-path="url(#clip760)" d="M50.9921 368.95 L73.2142 368.95 L73.2142 370.941 L60.668 403.51 L55.7838 403.51 L67.5893 372.885 L50.9921 372.885 L50.9921 368.95 Z" fill="#000000" fill-rule="nonzero" fill-opacity="1" /><path clip-path="url(#clip760)" d="M82.3808 368.95 L100.737 368.95 L100.737 372.885 L86.6632 372.885 L86.6632 381.357 Q87.6817 381.01 88.7003 380.848 Q89.7188 380.663 90.7373 380.663 Q96.5243 380.663 99.9039 383.834 Q103.284 387.005 103.284 392.422 Q103.284 398.001 99.8113 401.103 Q96.3391 404.181 90.0197 404.181 Q87.8438 404.181 85.5753 403.811 Q83.3299 403.441 80.9225 402.7 L80.9225 398.001 Q83.0058 399.135 85.2281 399.691 Q87.4503 400.246 89.9271 400.246 Q93.9317 400.246 96.2697 398.14 Q98.6076 396.033 98.6076 392.422 Q98.6076 388.811 96.2697 386.705 Q93.9317 384.598 89.9271 384.598 Q88.0521 384.598 86.1771 385.015 Q84.3253 385.431 82.3808 386.311 L82.3808 368.95 Z" fill="#000000" fill-rule="nonzero" fill-opacity="1" /><path clip-path="url(#clip760)" d="M122.496 372.029 Q118.885 372.029 117.057 375.594 Q115.251 379.135 115.251 386.265 Q115.251 393.371 117.057 396.936 Q118.885 400.478 122.496 400.478 Q126.131 400.478 127.936 396.936 Q129.765 393.371 129.765 386.265 Q129.765 379.135 127.936 375.594 Q126.131 372.029 122.496 372.029 M122.496 368.325 Q128.307 368.325 131.362 372.931 Q134.441 377.515 134.441 386.265 Q134.441 394.992 131.362 399.598 Q128.307 404.181 122.496 404.181 Q116.686 404.181 113.608 399.598 Q110.552 394.992 110.552 386.265 Q110.552 377.515 113.608 372.931 Q116.686 368.325 122.496 368.325 Z" fill="#000000" fill-rule="nonzero" fill-opacity="1" /><path clip-path="url(#clip760)" d="M152.658 372.029 Q149.047 372.029 147.218 375.594 Q145.413 379.135 145.413 386.265 Q145.413 393.371 147.218 396.936 Q149.047 400.478 152.658 400.478 Q156.292 400.478 158.098 396.936 Q159.927 393.371 159.927 386.265 Q159.927 379.135 158.098 375.594 Q156.292 372.029 152.658 372.029 M152.658 368.325 Q158.468 368.325 161.524 372.931 Q164.603 377.515 164.603 386.265 Q164.603 394.992 161.524 399.598 Q158.468 404.181 152.658 404.181 Q146.848 404.181 143.769 399.598 Q140.714 394.992 140.714 386.265 Q140.714 377.515 143.769 372.931 Q146.848 368.325 152.658 368.325 Z" fill="#000000" fill-rule="nonzero" fill-opacity="1" /><path clip-path="url(#clip760)" d="M182.82 372.029 Q179.209 372.029 177.38 375.594 Q175.575 379.135 175.575 386.265 Q175.575 393.371 177.38 396.936 Q179.209 400.478 182.82 400.478 Q186.454 400.478 188.26 396.936 Q190.089 393.371 190.089 386.265 Q190.089 379.135 188.26 375.594 Q186.454 372.029 182.82 372.029 M182.82 368.325 Q188.63 368.325 191.686 372.931 Q194.765 377.515 194.765 386.265 Q194.765 394.992 191.686 399.598 Q188.63 404.181 182.82 404.181 Q177.01 404.181 173.931 399.598 Q170.876 394.992 170.876 386.265 Q170.876 377.515 173.931 372.931 Q177.01 368.325 182.82 368.325 Z" fill="#000000" fill-rule="nonzero" fill-opacity="1" /><path clip-path="url(#clip760)" d="M50.9921 170.248 L73.2142 170.248 L73.2142 172.239 L60.668 204.808 L55.7838 204.808 L67.5893 174.183 L50.9921 174.183 L50.9921 170.248 Z" fill="#000000" fill-rule="nonzero" fill-opacity="1" /><path clip-path="url(#clip760)" d="M82.3808 170.248 L100.737 170.248 L100.737 174.183 L86.6632 174.183 L86.6632 182.656 Q87.6817 182.308 88.7003 182.146 Q89.7188 181.961 90.7373 181.961 Q96.5243 181.961 99.9039 185.132 Q103.284 188.304 103.284 193.72 Q103.284 199.299 99.8113 202.401 Q96.3391 205.48 90.0197 205.48 Q87.8438 205.48 85.5753 205.109 Q83.3299 204.739 80.9225 203.998 L80.9225 199.299 Q83.0058 200.433 85.2281 200.989 Q87.4503 201.544 89.9271 201.544 Q93.9317 201.544 96.2697 199.438 Q98.6076 197.331 98.6076 193.72 Q98.6076 190.109 96.2697 188.003 Q93.9317 185.896 89.9271 185.896 Q88.0521 185.896 86.1771 186.313 Q84.3253 186.73 82.3808 187.609 L82.3808 170.248 Z" fill="#000000" fill-rule="nonzero" fill-opacity="1" /><path clip-path="url(#clip760)" d="M112.543 170.248 L130.899 170.248 L130.899 174.183 L116.825 174.183 L116.825 182.656 Q117.844 182.308 118.862 182.146 Q119.881 181.961 120.899 181.961 Q126.686 181.961 130.066 185.132 Q133.445 188.304 133.445 193.72 Q133.445 199.299 129.973 202.401 Q126.501 205.48 120.182 205.48 Q118.006 205.48 115.737 205.109 Q113.492 204.739 111.084 203.998 L111.084 199.299 Q113.168 200.433 115.39 200.989 Q117.612 201.544 120.089 201.544 Q124.094 201.544 126.432 199.438 Q128.769 197.331 128.769 193.72 Q128.769 190.109 126.432 188.003 Q124.094 185.896 120.089 185.896 Q118.214 185.896 116.339 186.313 Q114.487 186.73 112.543 187.609 L112.543 170.248 Z" fill="#000000" fill-rule="nonzero" fill-opacity="1" /><path clip-path="url(#clip760)" d="M152.658 173.327 Q149.047 173.327 147.218 176.892 Q145.413 180.433 145.413 187.563 Q145.413 194.669 147.218 198.234 Q149.047 201.776 152.658 201.776 Q156.292 201.776 158.098 198.234 Q159.927 194.669 159.927 187.563 Q159.927 180.433 158.098 176.892 Q156.292 173.327 152.658 173.327 M152.658 169.623 Q158.468 169.623 161.524 174.23 Q164.603 178.813 164.603 187.563 Q164.603 196.29 161.524 200.896 Q158.468 205.48 152.658 205.48 Q146.848 205.48 143.769 200.896 Q140.714 196.29 140.714 187.563 Q140.714 178.813 143.769 174.23 Q146.848 169.623 152.658 169.623 Z" fill="#000000" fill-rule="nonzero" fill-opacity="1" /><path clip-path="url(#clip760)" d="M182.82 173.327 Q179.209 173.327 177.38 176.892 Q175.575 180.433 175.575 187.563 Q175.575 194.669 177.38 198.234 Q179.209 201.776 182.82 201.776 Q186.454 201.776 188.26 198.234 Q190.089 194.669 190.089 187.563 Q190.089 180.433 188.26 176.892 Q186.454 173.327 182.82 173.327 M182.82 169.623 Q188.63 169.623 191.686 174.23 Q194.765 178.813 194.765 187.563 Q194.765 196.29 191.686 200.896 Q188.63 205.48 182.82 205.48 Q177.01 205.48 173.931 200.896 Q170.876 196.29 170.876 187.563 Q170.876 178.813 173.931 174.23 Q177.01 169.623 182.82 169.623 Z" fill="#000000" fill-rule="nonzero" fill-opacity="1" /><path clip-path="url(#clip760)" d="M1262.23 35.2602 Q1262.23 29.4732 1259.83 26.2904 Q1257.46 23.1075 1253.15 23.1075 Q1248.86 23.1075 1246.46 26.2904 Q1244.09 29.4732 1244.09 35.2602 Q1244.09 41.0183 1246.46 44.2012 Q1248.86 47.384 1253.15 47.384 Q1257.46 47.384 1259.83 44.2012 Q1262.23 41.0183 1262.23 35.2602 M1267.56 47.818 Q1267.56 56.0934 1263.88 60.1154 Q1260.21 64.1663 1252.63 64.1663 Q1249.82 64.1663 1247.33 63.7323 Q1244.84 63.3272 1242.5 62.4592 L1242.5 57.2798 Q1244.84 58.5529 1247.13 59.1606 Q1249.41 59.7682 1251.79 59.7682 Q1257.02 59.7682 1259.63 57.0194 Q1262.23 54.2995 1262.23 48.7729 L1262.23 46.1398 Q1260.58 49.0044 1258.01 50.4222 Q1255.43 51.84 1251.84 51.84 Q1245.88 51.84 1242.24 47.2972 Q1238.59 42.7544 1238.59 35.2602 Q1238.59 27.7371 1242.24 23.1943 Q1245.88 18.6515 1251.84 18.6515 Q1255.43 18.6515 1258.01 20.0693 Q1260.58 21.4872 1262.23 24.3517 L1262.23 19.4328 L1267.56 19.4328 L1267.56 47.818 Z" fill="#000000" fill-rule="nonzero" fill-opacity="1" /><path clip-path="url(#clip760)" d="M1299.85 24.3517 L1299.85 6.81709 L1305.17 6.81709 L1305.17 51.84 L1299.85 51.84 L1299.85 46.9789 Q1298.17 49.8724 1295.59 51.2902 Q1293.05 52.6791 1289.46 52.6791 Q1283.59 52.6791 1279.88 47.9916 Q1276.21 43.3042 1276.21 35.6653 Q1276.21 28.0265 1279.88 23.339 Q1283.59 18.6515 1289.46 18.6515 Q1293.05 18.6515 1295.59 20.0693 Q1298.17 21.4582 1299.85 24.3517 M1281.71 35.6653 Q1281.71 41.5391 1284.11 44.8956 Q1286.54 48.2231 1290.76 48.2231 Q1294.99 48.2231 1297.42 44.8956 Q1299.85 41.5391 1299.85 35.6653 Q1299.85 29.7915 1297.42 26.464 Q1294.99 23.1075 1290.76 23.1075 Q1286.54 23.1075 1284.11 26.464 Q1281.71 29.7915 1281.71 35.6653 Z" fill="#000000" fill-rule="nonzero" fill-opacity="1" /><path clip-path="url(#clip760)" d="M1321.29 46.9789 L1321.29 64.1663 L1315.94 64.1663 L1315.94 19.4328 L1321.29 19.4328 L1321.29 24.3517 Q1322.97 21.4582 1325.51 20.0693 Q1328.09 18.6515 1331.65 18.6515 Q1337.55 18.6515 1341.22 23.339 Q1344.93 28.0265 1344.93 35.6653 Q1344.93 43.3042 1341.22 47.9916 Q1337.55 52.6791 1331.65 52.6791 Q1328.09 52.6791 1325.51 51.2902 Q1322.97 49.8724 1321.29 46.9789 M1339.4 35.6653 Q1339.4 29.7915 1336.97 26.464 Q1334.57 23.1075 1330.35 23.1075 Q1326.12 23.1075 1323.69 26.464 Q1321.29 29.7915 1321.29 35.6653 Q1321.29 41.5391 1323.69 44.8956 Q1326.12 48.2231 1330.35 48.2231 Q1334.57 48.2231 1336.97 44.8956 Q1339.4 41.5391 1339.4 35.6653 Z" fill="#000000" fill-rule="nonzero" fill-opacity="1" /><polyline clip-path="url(#clip762)" style="stroke:#009af9; stroke-linecap:round; stroke-linejoin:round; stroke-width:4; stroke-opacity:1; fill:none" points="290.821,1410.74 415.938,1447.38 541.056,1152.33 666.173,856.576 791.291,1034.28 916.408,828.224 1041.53,736.216 1166.64,623.541 1291.76,659.227 1416.88,540.33 1542,624.555 1667.11,570.671 1792.23,751.131 1917.35,719.906 2042.46,667.05 2167.58,145.256 2292.7,254.022 "/>
<path clip-path="url(#clip760)" d="M301.498 255.881 L566.127 255.881 L566.127 152.201 L301.498 152.201  Z" fill="#ffffff" fill-rule="evenodd" fill-opacity="1"/>
<polyline clip-path="url(#clip760)" style="stroke:#000000; stroke-linecap:round; stroke-linejoin:round; stroke-width:4; stroke-opacity:1; fill:none" points="301.498,255.881 566.127,255.881 566.127,152.201 301.498,152.201 301.498,255.881 "/>
<polyline clip-path="url(#clip760)" style="stroke:#009af9; stroke-linecap:round; stroke-linejoin:round; stroke-width:4; stroke-opacity:1; fill:none" points="325.075,204.041 466.541,204.041 "/>
<path clip-path="url(#clip760)" d="M503.962 223.728 Q502.156 228.358 500.443 229.77 Q498.73 231.182 495.86 231.182 L492.457 231.182 L492.457 227.617 L494.957 227.617 Q496.716 227.617 497.688 226.784 Q498.661 225.95 499.841 222.848 L500.605 220.904 L490.119 195.395 L494.633 195.395 L502.735 215.673 L510.836 195.395 L515.35 195.395 L503.962 223.728 Z" fill="#000000" fill-rule="nonzero" fill-opacity="1" /><path clip-path="url(#clip760)" d="M522.642 217.385 L530.281 217.385 L530.281 191.02 L521.971 192.687 L521.971 188.427 L530.235 186.761 L534.91 186.761 L534.91 217.385 L542.549 217.385 L542.549 221.321 L522.642 221.321 L522.642 217.385 Z" fill="#000000" fill-rule="nonzero" fill-opacity="1" /></svg>
