<?xml version="1.0" encoding="utf-8"?>
<svg xmlns="http://www.w3.org/2000/svg" xmlns:xlink="http://www.w3.org/1999/xlink" width="600" height="400" viewBox="0 0 2400 1600">
<defs>
  <clipPath id="clip180">
    <rect x="0" y="0" width="2400" height="1600"/>
  </clipPath>
</defs>
<path clip-path="url(#clip180)" d="M0 1600 L2400 1600 L2400 0 L0 0  Z" fill="#ffffff" fill-rule="evenodd" fill-opacity="1"/>
<defs>
  <clipPath id="clip181">
    <rect x="480" y="0" width="1681" height="1600"/>
  </clipPath>
</defs>
<path clip-path="url(#clip180)" d="M230.765 1486.45 L2352.76 1486.45 L2352.76 106.192 L230.765 106.192  Z" fill="#ffffff" fill-rule="evenodd" fill-opacity="1"/>
<defs>
  <clipPath id="clip182">
    <rect x="230" y="106" width="2123" height="1381"/>
  </clipPath>
</defs>
<polyline clip-path="url(#clip182)" style="stroke:#000000; stroke-linecap:round; stroke-linejoin:round; stroke-width:2; stroke-opacity:0.1; fill:none" points="541.056,1486.45 541.056,106.192 "/>
<polyline clip-path="url(#clip182)" style="stroke:#000000; stroke-linecap:round; stroke-linejoin:round; stroke-width:2; stroke-opacity:0.1; fill:none" points="916.408,1486.45 916.408,106.192 "/>
<polyline clip-path="url(#clip182)" style="stroke:#000000; stroke-linecap:round; stroke-linejoin:round; stroke-width:2; stroke-opacity:0.1; fill:none" points="1291.76,1486.45 1291.76,106.192 "/>
<polyline clip-path="url(#clip182)" style="stroke:#000000; stroke-linecap:round; stroke-linejoin:round; stroke-width:2; stroke-opacity:0.1; fill:none" points="1667.11,1486.45 1667.11,106.192 "/>
<polyline clip-path="url(#clip182)" style="stroke:#000000; stroke-linecap:round; stroke-linejoin:round; stroke-width:2; stroke-opacity:0.1; fill:none" points="2042.46,1486.45 2042.46,106.192 "/>
<polyline clip-path="url(#clip182)" style="stroke:#000000; stroke-linecap:round; stroke-linejoin:round; stroke-width:2; stroke-opacity:0.1; fill:none" points="230.765,1300.93 2352.76,1300.93 "/>
<polyline clip-path="url(#clip182)" style="stroke:#000000; stroke-linecap:round; stroke-linejoin:round; stroke-width:2; stroke-opacity:0.1; fill:none" points="230.765,1047.54 2352.76,1047.54 "/>
<polyline clip-path="url(#clip182)" style="stroke:#000000; stroke-linecap:round; stroke-linejoin:round; stroke-width:2; stroke-opacity:0.1; fill:none" points="230.765,794.156 2352.76,794.156 "/>
<polyline clip-path="url(#clip182)" style="stroke:#000000; stroke-linecap:round; stroke-linejoin:round; stroke-width:2; stroke-opacity:0.1; fill:none" points="230.765,540.77 2352.76,540.77 "/>
<polyline clip-path="url(#clip182)" style="stroke:#000000; stroke-linecap:round; stroke-linejoin:round; stroke-width:2; stroke-opacity:0.1; fill:none" points="230.765,287.385 2352.76,287.385 "/>
<polyline clip-path="url(#clip180)" style="stroke:#000000; stroke-linecap:round; stroke-linejoin:round; stroke-width:4; stroke-opacity:1; fill:none" points="230.765,1486.45 2352.76,1486.45 "/>
<polyline clip-path="url(#clip180)" style="stroke:#000000; stroke-linecap:round; stroke-linejoin:round; stroke-width:4; stroke-opacity:1; fill:none" points="541.056,1486.45 541.056,1467.55 "/>
<polyline clip-path="url(#clip180)" style="stroke:#000000; stroke-linecap:round; stroke-linejoin:round; stroke-width:4; stroke-opacity:1; fill:none" points="916.408,1486.45 916.408,1467.55 "/>
<polyline clip-path="url(#clip180)" style="stroke:#000000; stroke-linecap:round; stroke-linejoin:round; stroke-width:4; stroke-opacity:1; fill:none" points="1291.76,1486.45 1291.76,1467.55 "/>
<polyline clip-path="url(#clip180)" style="stroke:#000000; stroke-linecap:round; stroke-linejoin:round; stroke-width:4; stroke-opacity:1; fill:none" points="1667.11,1486.45 1667.11,1467.55 "/>
<polyline clip-path="url(#clip180)" style="stroke:#000000; stroke-linecap:round; stroke-linejoin:round; stroke-width:4; stroke-opacity:1; fill:none" points="2042.46,1486.45 2042.46,1467.55 "/>
<path clip-path="url(#clip180)" d="M545.303 1530.21 Q548.66 1530.93 550.535 1533.2 Q552.433 1535.47 552.433 1538.8 Q552.433 1543.92 548.914 1546.72 Q545.396 1549.52 538.915 1549.52 Q536.739 1549.52 534.424 1549.08 Q532.132 1548.66 529.678 1547.81 L529.678 1543.29 Q531.623 1544.43 533.938 1545.01 Q536.252 1545.58 538.776 1545.58 Q543.174 1545.58 545.465 1543.85 Q547.78 1542.11 547.78 1538.8 Q547.78 1535.75 545.627 1534.03 Q543.498 1532.3 539.678 1532.3 L535.651 1532.3 L535.651 1528.45 L539.864 1528.45 Q543.313 1528.45 545.141 1527.09 Q546.97 1525.7 546.97 1523.11 Q546.97 1520.45 545.072 1519.03 Q543.197 1517.6 539.678 1517.6 Q537.757 1517.6 535.558 1518.01 Q533.359 1518.43 530.72 1519.31 L530.72 1515.14 Q533.382 1514.4 535.697 1514.03 Q538.035 1513.66 540.095 1513.66 Q545.419 1513.66 548.521 1516.09 Q551.623 1518.5 551.623 1522.62 Q551.623 1525.49 549.979 1527.48 Q548.336 1529.45 545.303 1530.21 Z" fill="#000000" fill-rule="nonzero" fill-opacity="1" /><path clip-path="url(#clip180)" d="M916.813 1529.7 Q913.665 1529.7 911.813 1531.86 Q909.984 1534.01 909.984 1537.76 Q909.984 1541.49 911.813 1543.66 Q913.665 1545.82 916.813 1545.82 Q919.961 1545.82 921.79 1543.66 Q923.642 1541.49 923.642 1537.76 Q923.642 1534.01 921.79 1531.86 Q919.961 1529.7 916.813 1529.7 M926.095 1515.05 L926.095 1519.31 Q924.336 1518.48 922.531 1518.04 Q920.748 1517.6 918.989 1517.6 Q914.359 1517.6 911.906 1520.72 Q909.475 1523.85 909.128 1530.17 Q910.494 1528.15 912.554 1527.09 Q914.614 1526 917.091 1526 Q922.299 1526 925.308 1529.17 Q928.341 1532.32 928.341 1537.76 Q928.341 1543.08 925.193 1546.3 Q922.044 1549.52 916.813 1549.52 Q910.818 1549.52 907.646 1544.94 Q904.475 1540.33 904.475 1531.6 Q904.475 1523.41 908.364 1518.55 Q912.253 1513.66 918.804 1513.66 Q920.563 1513.66 922.345 1514.01 Q924.151 1514.36 926.095 1515.05 Z" fill="#000000" fill-rule="nonzero" fill-opacity="1" /><path clip-path="url(#clip180)" d="M1282.06 1548.13 L1282.06 1543.87 Q1283.82 1544.7 1285.63 1545.14 Q1287.43 1545.58 1289.17 1545.58 Q1293.8 1545.58 1296.23 1542.48 Q1298.68 1539.36 1299.03 1533.01 Q1297.69 1535.01 1295.63 1536.07 Q1293.57 1537.13 1291.07 1537.13 Q1285.88 1537.13 1282.85 1534.01 Q1279.84 1530.86 1279.84 1525.42 Q1279.84 1520.1 1282.99 1516.88 Q1286.14 1513.66 1291.37 1513.66 Q1297.36 1513.66 1300.51 1518.27 Q1303.68 1522.85 1303.68 1531.6 Q1303.68 1539.77 1299.79 1544.66 Q1295.93 1549.52 1289.38 1549.52 Q1287.62 1549.52 1285.81 1549.17 Q1284.01 1548.82 1282.06 1548.13 M1291.37 1533.48 Q1294.51 1533.48 1296.34 1531.32 Q1298.2 1529.17 1298.2 1525.42 Q1298.2 1521.7 1296.34 1519.54 Q1294.51 1517.37 1291.37 1517.37 Q1288.22 1517.37 1286.37 1519.54 Q1284.54 1521.7 1284.54 1525.42 Q1284.54 1529.17 1286.37 1531.32 Q1288.22 1533.48 1291.37 1533.48 Z" fill="#000000" fill-rule="nonzero" fill-opacity="1" /><path clip-path="url(#clip180)" d="M1642.6 1544.91 L1650.24 1544.91 L1650.24 1518.55 L1641.93 1520.21 L1641.93 1515.95 L1650.19 1514.29 L1654.87 1514.29 L1654.87 1544.91 L1662.51 1544.91 L1662.51 1548.85 L1642.6 1548.85 L1642.6 1544.91 Z" fill="#000000" fill-rule="nonzero" fill-opacity="1" /><path clip-path="url(#clip180)" d="M1675.98 1544.91 L1692.3 1544.91 L1692.3 1548.85 L1670.35 1548.85 L1670.35 1544.91 Q1673.02 1542.16 1677.6 1537.53 Q1682.2 1532.88 1683.39 1531.53 Q1685.63 1529.01 1686.51 1527.27 Q1687.41 1525.51 1687.41 1523.82 Q1687.41 1521.07 1685.47 1519.33 Q1683.55 1517.6 1680.45 1517.6 Q1678.25 1517.6 1675.79 1518.36 Q1673.36 1519.13 1670.58 1520.68 L1670.58 1515.95 Q1673.41 1514.82 1675.86 1514.24 Q1678.32 1513.66 1680.35 1513.66 Q1685.72 1513.66 1688.92 1516.35 Q1692.11 1519.03 1692.11 1523.52 Q1692.11 1525.65 1691.3 1527.57 Q1690.52 1529.47 1688.41 1532.07 Q1687.83 1532.74 1684.73 1535.95 Q1681.63 1539.15 1675.98 1544.91 Z" fill="#000000" fill-rule="nonzero" fill-opacity="1" /><path clip-path="url(#clip180)" d="M2017.65 1544.91 L2025.29 1544.91 L2025.29 1518.55 L2016.98 1520.21 L2016.98 1515.95 L2025.24 1514.29 L2029.92 1514.29 L2029.92 1544.91 L2037.56 1544.91 L2037.56 1548.85 L2017.65 1548.85 L2017.65 1544.91 Z" fill="#000000" fill-rule="nonzero" fill-opacity="1" /><path clip-path="url(#clip180)" d="M2047.05 1514.29 L2065.4 1514.29 L2065.4 1518.22 L2051.33 1518.22 L2051.33 1526.7 Q2052.35 1526.35 2053.37 1526.19 Q2054.39 1526 2055.4 1526 Q2061.19 1526 2064.57 1529.17 Q2067.95 1532.34 2067.95 1537.76 Q2067.95 1543.34 2064.48 1546.44 Q2061.01 1549.52 2054.69 1549.52 Q2052.51 1549.52 2050.24 1549.15 Q2048 1548.78 2045.59 1548.04 L2045.59 1543.34 Q2047.67 1544.47 2049.9 1545.03 Q2052.12 1545.58 2054.59 1545.58 Q2058.6 1545.58 2060.94 1543.48 Q2063.27 1541.37 2063.27 1537.76 Q2063.27 1534.15 2060.94 1532.04 Q2058.6 1529.94 2054.59 1529.94 Q2052.72 1529.94 2050.84 1530.35 Q2048.99 1530.77 2047.05 1531.65 L2047.05 1514.29 Z" fill="#000000" fill-rule="nonzero" fill-opacity="1" /><polyline clip-path="url(#clip180)" style="stroke:#000000; stroke-linecap:round; stroke-linejoin:round; stroke-width:4; stroke-opacity:1; fill:none" points="230.765,1486.45 230.765,106.192 "/>
<polyline clip-path="url(#clip180)" style="stroke:#000000; stroke-linecap:round; stroke-linejoin:round; stroke-width:4; stroke-opacity:1; fill:none" points="230.765,1300.93 249.662,1300.93 "/>
<polyline clip-path="url(#clip180)" style="stroke:#000000; stroke-linecap:round; stroke-linejoin:round; stroke-width:4; stroke-opacity:1; fill:none" points="230.765,1047.54 249.662,1047.54 "/>
<polyline clip-path="url(#clip180)" style="stroke:#000000; stroke-linecap:round; stroke-linejoin:round; stroke-width:4; stroke-opacity:1; fill:none" points="230.765,794.156 249.662,794.156 "/>
<polyline clip-path="url(#clip180)" style="stroke:#000000; stroke-linecap:round; stroke-linejoin:round; stroke-width:4; stroke-opacity:1; fill:none" points="230.765,540.77 249.662,540.77 "/>
<polyline clip-path="url(#clip180)" style="stroke:#000000; stroke-linecap:round; stroke-linejoin:round; stroke-width:4; stroke-opacity:1; fill:none" points="230.765,287.385 249.662,287.385 "/>
<path clip-path="url(#clip180)" d="M50.9921 1283.65 L73.2142 1283.65 L73.2142 1285.64 L60.668 1318.21 L55.7838 1318.21 L67.5893 1287.58 L50.9921 1287.58 L50.9921 1283.65 Z" fill="#000000" fill-rule="nonzero" fill-opacity="1" /><path clip-path="url(#clip180)" d="M96.5011 1299.57 Q99.8576 1300.29 101.733 1302.56 Q103.631 1304.83 103.631 1308.16 Q103.631 1313.28 100.112 1316.08 Q96.5937 1318.88 90.1123 1318.88 Q87.9364 1318.88 85.6216 1318.44 Q83.3299 1318.02 80.8762 1317.17 L80.8762 1312.65 Q82.8207 1313.79 85.1355 1314.36 Q87.4503 1314.94 89.9734 1314.94 Q94.3715 1314.94 96.6632 1313.21 Q98.978 1311.47 98.978 1308.16 Q98.978 1305.11 96.8252 1303.39 Q94.6956 1301.66 90.8762 1301.66 L86.8484 1301.66 L86.8484 1297.81 L91.0614 1297.81 Q94.5104 1297.81 96.3391 1296.45 Q98.1678 1295.06 98.1678 1292.47 Q98.1678 1289.8 96.2697 1288.39 Q94.3947 1286.96 90.8762 1286.96 Q88.9549 1286.96 86.7558 1287.37 Q84.5568 1287.79 81.9179 1288.67 L81.9179 1284.5 Q84.5799 1283.76 86.8947 1283.39 Q89.2327 1283.02 91.2928 1283.02 Q96.6169 1283.02 99.7187 1285.45 Q102.821 1287.86 102.821 1291.98 Q102.821 1294.85 101.177 1296.84 Q99.5335 1298.81 96.5011 1299.57 Z" fill="#000000" fill-rule="nonzero" fill-opacity="1" /><path clip-path="url(#clip180)" d="M122.496 1286.73 Q118.885 1286.73 117.057 1290.29 Q115.251 1293.83 115.251 1300.96 Q115.251 1308.07 117.057 1311.63 Q118.885 1315.17 122.496 1315.17 Q126.131 1315.17 127.936 1311.63 Q129.765 1308.07 129.765 1300.96 Q129.765 1293.83 127.936 1290.29 Q126.131 1286.73 122.496 1286.73 M122.496 1283.02 Q128.307 1283.02 131.362 1287.63 Q134.441 1292.21 134.441 1300.96 Q134.441 1309.69 131.362 1314.3 Q128.307 1318.88 122.496 1318.88 Q116.686 1318.88 113.608 1314.3 Q110.552 1309.69 110.552 1300.96 Q110.552 1292.21 113.608 1287.63 Q116.686 1283.02 122.496 1283.02 Z" fill="#000000" fill-rule="nonzero" fill-opacity="1" /><path clip-path="url(#clip180)" d="M152.658 1286.73 Q149.047 1286.73 147.218 1290.29 Q145.413 1293.83 145.413 1300.96 Q145.413 1308.07 147.218 1311.63 Q149.047 1315.17 152.658 1315.17 Q156.292 1315.17 158.098 1311.63 Q159.927 1308.07 159.927 1300.96 Q159.927 1293.83 158.098 1290.29 Q156.292 1286.73 152.658 1286.73 M152.658 1283.02 Q158.468 1283.02 161.524 1287.63 Q164.603 1292.21 164.603 1300.96 Q164.603 1309.69 161.524 1314.3 Q158.468 1318.88 152.658 1318.88 Q146.848 1318.88 143.769 1314.3 Q140.714 1309.69 140.714 1300.96 Q140.714 1292.21 143.769 1287.63 Q146.848 1283.02 152.658 1283.02 Z" fill="#000000" fill-rule="nonzero" fill-opacity="1" /><path clip-path="url(#clip180)" d="M182.82 1286.73 Q179.209 1286.73 177.38 1290.29 Q175.575 1293.83 175.575 1300.96 Q175.575 1308.07 177.38 1311.63 Q179.209 1315.17 182.82 1315.17 Q186.454 1315.17 188.26 1311.63 Q190.089 1308.07 190.089 1300.96 Q190.089 1293.83 188.26 1290.29 Q186.454 1286.73 182.82 1286.73 M182.82 1283.02 Q188.63 1283.02 191.686 1287.63 Q194.765 1292.21 194.765 1300.96 Q194.765 1309.69 191.686 1314.3 Q188.63 1318.88 182.82 1318.88 Q177.01 1318.88 173.931 1314.3 Q170.876 1309.69 170.876 1300.96 Q170.876 1292.21 173.931 1287.63 Q177.01 1283.02 182.82 1283.02 Z" fill="#000000" fill-rule="nonzero" fill-opacity="1" /><path clip-path="url(#clip180)" d="M50.9921 1030.26 L73.2142 1030.26 L73.2142 1032.25 L60.668 1064.82 L55.7838 1064.82 L67.5893 1034.2 L50.9921 1034.2 L50.9921 1030.26 Z" fill="#000000" fill-rule="nonzero" fill-opacity="1" /><path clip-path="url(#clip180)" d="M95.1817 1034.34 L83.3762 1052.78 L95.1817 1052.78 L95.1817 1034.34 M93.9549 1030.26 L99.8345 1030.26 L99.8345 1052.78 L104.765 1052.78 L104.765 1056.67 L99.8345 1056.67 L99.8345 1064.82 L95.1817 1064.82 L95.1817 1056.67 L79.5799 1056.67 L79.5799 1052.16 L93.9549 1030.26 Z" fill="#000000" fill-rule="nonzero" fill-opacity="1" /><path clip-path="url(#clip180)" d="M122.496 1033.34 Q118.885 1033.34 117.057 1036.91 Q115.251 1040.45 115.251 1047.58 Q115.251 1054.68 117.057 1058.25 Q118.885 1061.79 122.496 1061.79 Q126.131 1061.79 127.936 1058.25 Q129.765 1054.68 129.765 1047.58 Q129.765 1040.45 127.936 1036.91 Q126.131 1033.34 122.496 1033.34 M122.496 1029.64 Q128.307 1029.64 131.362 1034.24 Q134.441 1038.83 134.441 1047.58 Q134.441 1056.3 131.362 1060.91 Q128.307 1065.49 122.496 1065.49 Q116.686 1065.49 113.608 1060.91 Q110.552 1056.3 110.552 1047.58 Q110.552 1038.83 113.608 1034.24 Q116.686 1029.64 122.496 1029.64 Z" fill="#000000" fill-rule="nonzero" fill-opacity="1" /><path clip-path="url(#clip180)" d="M152.658 1033.34 Q149.047 1033.34 147.218 1036.91 Q145.413 1040.45 145.413 1047.58 Q145.413 1054.68 147.218 1058.25 Q149.047 1061.79 152.658 1061.79 Q156.292 1061.79 158.098 1058.25 Q159.927 1054.68 159.927 1047.58 Q159.927 1040.45 158.098 1036.91 Q156.292 1033.34 152.658 1033.34 M152.658 1029.64 Q158.468 1029.64 161.524 1034.24 Q164.603 1038.83 164.603 1047.58 Q164.603 1056.3 161.524 1060.91 Q158.468 1065.49 152.658 1065.49 Q146.848 1065.49 143.769 1060.91 Q140.714 1056.3 140.714 1047.58 Q140.714 1038.83 143.769 1034.24 Q146.848 1029.64 152.658 1029.64 Z" fill="#000000" fill-rule="nonzero" fill-opacity="1" /><path clip-path="url(#clip180)" d="M182.82 1033.34 Q179.209 1033.34 177.38 1036.91 Q175.575 1040.45 175.575 1047.58 Q175.575 1054.68 177.38 1058.25 Q179.209 1061.79 182.82 1061.79 Q186.454 1061.79 188.26 1058.25 Q190.089 1054.68 190.089 1047.58 Q190.089 1040.45 188.26 1036.91 Q186.454 1033.34 182.82 1033.34 M182.82 1029.64 Q188.63 1029.64 191.686 1034.24 Q194.765 1038.83 194.765 1047.58 Q194.765 1056.3 191.686 1060.91 Q188.63 1065.49 182.82 1065.49 Q177.01 1065.49 173.931 1060.91 Q170.876 1056.3 170.876 1047.58 Q170.876 1038.83 173.931 1034.24 Q177.01 1029.64 182.82 1029.64 Z" fill="#000000" fill-rule="nonzero" fill-opacity="1" /><path clip-path="url(#clip180)" d="M50.9921 776.876 L73.2142 776.876 L73.2142 778.867 L60.668 811.436 L55.7838 811.436 L67.5893 780.811 L50.9921 780.811 L50.9921 776.876 Z" fill="#000000" fill-rule="nonzero" fill-opacity="1" /><path clip-path="url(#clip180)" d="M82.3808 776.876 L100.737 776.876 L100.737 780.811 L86.6632 780.811 L86.6632 789.283 Q87.6817 788.936 88.7003 788.774 Q89.7188 788.589 90.7373 788.589 Q96.5243 788.589 99.9039 791.76 Q103.284 794.931 103.284 800.348 Q103.284 805.927 99.8113 809.029 Q96.3391 812.107 90.0197 812.107 Q87.8438 812.107 85.5753 811.737 Q83.3299 811.367 80.9225 810.626 L80.9225 805.927 Q83.0058 807.061 85.2281 807.617 Q87.4503 808.172 89.9271 808.172 Q93.9317 808.172 96.2697 806.066 Q98.6076 803.959 98.6076 800.348 Q98.6076 796.737 96.2697 794.63 Q93.9317 792.524 89.9271 792.524 Q88.0521 792.524 86.1771 792.941 Q84.3253 793.357 82.3808 794.237 L82.3808 776.876 Z" fill="#000000" fill-rule="nonzero" fill-opacity="1" /><path clip-path="url(#clip180)" d="M122.496 779.955 Q118.885 779.955 117.057 783.519 Q115.251 787.061 115.251 794.191 Q115.251 801.297 117.057 804.862 Q118.885 808.404 122.496 808.404 Q126.131 808.404 127.936 804.862 Q129.765 801.297 129.765 794.191 Q129.765 787.061 127.936 783.519 Q126.131 779.955 122.496 779.955 M122.496 776.251 Q128.307 776.251 131.362 780.857 Q134.441 785.441 134.441 794.191 Q134.441 802.917 131.362 807.524 Q128.307 812.107 122.496 812.107 Q116.686 812.107 113.608 807.524 Q110.552 802.917 110.552 794.191 Q110.552 785.441 113.608 780.857 Q116.686 776.251 122.496 776.251 Z" fill="#000000" fill-rule="nonzero" fill-opacity="1" /><path clip-path="url(#clip180)" d="M152.658 779.955 Q149.047 779.955 147.218 783.519 Q145.413 787.061 145.413 794.191 Q145.413 801.297 147.218 804.862 Q149.047 808.404 152.658 808.404 Q156.292 808.404 158.098 804.862 Q159.927 801.297 159.927 794.191 Q159.927 787.061 158.098 783.519 Q156.292 779.955 152.658 779.955 M152.658 776.251 Q158.468 776.251 161.524 780.857 Q164.603 785.441 164.603 794.191 Q164.603 802.917 161.524 807.524 Q158.468 812.107 152.658 812.107 Q146.848 812.107 143.769 807.524 Q140.714 802.917 140.714 794.191 Q140.714 785.441 143.769 780.857 Q146.848 776.251 152.658 776.251 Z" fill="#000000" fill-rule="nonzero" fill-opacity="1" /><path clip-path="url(#clip180)" d="M182.82 779.955 Q179.209 779.955 177.38 783.519 Q175.575 787.061 175.575 794.191 Q175.575 801.297 177.38 804.862 Q179.209 808.404 182.82 808.404 Q186.454 808.404 188.26 804.862 Q190.089 801.297 190.089 794.191 Q190.089 787.061 188.26 783.519 Q186.454 779.955 182.82 779.955 M182.82 776.251 Q188.63 776.251 191.686 780.857 Q194.765 785.441 194.765 794.191 Q194.765 802.917 191.686 807.524 Q188.63 812.107 182.82 812.107 Q177.01 812.107 173.931 807.524 Q170.876 802.917 170.876 794.191 Q170.876 785.441 173.931 780.857 Q177.01 776.251 182.82 776.251 Z" fill="#000000" fill-rule="nonzero" fill-opacity="1" /><path clip-path="url(#clip180)" d="M50.9921 523.49 L73.2142 523.49 L73.2142 525.481 L60.668 558.05 L55.7838 558.05 L67.5893 527.426 L50.9921 527.426 L50.9921 523.49 Z" fill="#000000" fill-rule="nonzero" fill-opacity="1" /><path clip-path="url(#clip180)" d="M92.9132 538.907 Q89.7651 538.907 87.9132 541.06 Q86.0845 543.212 86.0845 546.962 Q86.0845 550.689 87.9132 552.865 Q89.7651 555.018 92.9132 555.018 Q96.0613 555.018 97.89 552.865 Q99.7419 550.689 99.7419 546.962 Q99.7419 543.212 97.89 541.06 Q96.0613 538.907 92.9132 538.907 M102.196 524.254 L102.196 528.513 Q100.436 527.68 98.6308 527.24 Q96.8484 526.801 95.0891 526.801 Q90.4595 526.801 88.0058 529.925 Q85.5753 533.05 85.2281 539.37 Q86.5938 537.356 88.654 536.291 Q90.7141 535.203 93.191 535.203 Q98.3993 535.203 101.409 538.375 Q104.441 541.523 104.441 546.962 Q104.441 552.286 101.293 555.504 Q98.1447 558.722 92.9132 558.722 Q86.9179 558.722 83.7466 554.138 Q80.5753 549.532 80.5753 540.805 Q80.5753 532.611 84.4642 527.75 Q88.353 522.865 94.9039 522.865 Q96.6632 522.865 98.4456 523.213 Q100.251 523.56 102.196 524.254 Z" fill="#000000" fill-rule="nonzero" fill-opacity="1" /><path clip-path="url(#clip180)" d="M122.496 526.569 Q118.885 526.569 117.057 530.134 Q115.251 533.675 115.251 540.805 Q115.251 547.912 117.057 551.476 Q118.885 555.018 122.496 555.018 Q126.131 555.018 127.936 551.476 Q129.765 547.912 129.765 540.805 Q129.765 533.675 127.936 530.134 Q126.131 526.569 122.496 526.569 M122.496 522.865 Q128.307 522.865 131.362 527.472 Q134.441 532.055 134.441 540.805 Q134.441 549.532 131.362 554.138 Q128.307 558.722 122.496 558.722 Q116.686 558.722 113.608 554.138 Q110.552 549.532 110.552 540.805 Q110.552 532.055 113.608 527.472 Q116.686 522.865 122.496 522.865 Z" fill="#000000" fill-rule="nonzero" fill-opacity="1" /><path clip-path="url(#clip180)" d="M152.658 526.569 Q149.047 526.569 147.218 530.134 Q145.413 533.675 145.413 540.805 Q145.413 547.912 147.218 551.476 Q149.047 555.018 152.658 555.018 Q156.292 555.018 158.098 551.476 Q159.927 547.912 159.927 540.805 Q159.927 533.675 158.098 530.134 Q156.292 526.569 152.658 526.569 M152.658 522.865 Q158.468 522.865 161.524 527.472 Q164.603 532.055 164.603 540.805 Q164.603 549.532 161.524 554.138 Q158.468 558.722 152.658 558.722 Q146.848 558.722 143.769 554.138 Q140.714 549.532 140.714 540.805 Q140.714 532.055 143.769 527.472 Q146.848 522.865 152.658 522.865 Z" fill="#000000" fill-rule="nonzero" fill-opacity="1" /><path clip-path="url(#clip180)" d="M182.82 526.569 Q179.209 526.569 177.38 530.134 Q175.575 533.675 175.575 540.805 Q175.575 547.912 177.38 551.476 Q179.209 555.018 182.82 555.018 Q186.454 555.018 188.26 551.476 Q190.089 547.912 190.089 540.805 Q190.089 533.675 188.26 530.134 Q186.454 526.569 182.82 526.569 M182.82 522.865 Q188.63 522.865 191.686 527.472 Q194.765 532.055 194.765 540.805 Q194.765 549.532 191.686 554.138 Q188.63 558.722 182.82 558.722 Q177.01 558.722 173.931 554.138 Q170.876 549.532 170.876 540.805 Q170.876 532.055 173.931 527.472 Q177.01 522.865 182.82 522.865 Z" fill="#000000" fill-rule="nonzero" fill-opacity="1" /><path clip-path="url(#clip180)" d="M50.9921 270.105 L73.2142 270.105 L73.2142 272.095 L60.668 304.665 L55.7838 304.665 L67.5893 274.04 L50.9921 274.04 L50.9921 270.105 Z" fill="#000000" fill-rule="nonzero" fill-opacity="1" /><path clip-path="url(#clip180)" d="M81.154 270.105 L103.376 270.105 L103.376 272.095 L90.8299 304.665 L85.9456 304.665 L97.7511 274.04 L81.154 274.04 L81.154 270.105 Z" fill="#000000" fill-rule="nonzero" fill-opacity="1" /><path clip-path="url(#clip180)" d="M122.496 273.183 Q118.885 273.183 117.057 276.748 Q115.251 280.29 115.251 287.419 Q115.251 294.526 117.057 298.091 Q118.885 301.632 122.496 301.632 Q126.131 301.632 127.936 298.091 Q129.765 294.526 129.765 287.419 Q129.765 280.29 127.936 276.748 Q126.131 273.183 122.496 273.183 M122.496 269.48 Q128.307 269.48 131.362 274.086 Q134.441 278.67 134.441 287.419 Q134.441 296.146 131.362 300.753 Q128.307 305.336 122.496 305.336 Q116.686 305.336 113.608 300.753 Q110.552 296.146 110.552 287.419 Q110.552 278.67 113.608 274.086 Q116.686 269.48 122.496 269.48 Z" fill="#000000" fill-rule="nonzero" fill-opacity="1" /><path clip-path="url(#clip180)" d="M152.658 273.183 Q149.047 273.183 147.218 276.748 Q145.413 280.29 145.413 287.419 Q145.413 294.526 147.218 298.091 Q149.047 301.632 152.658 301.632 Q156.292 301.632 158.098 298.091 Q159.927 294.526 159.927 287.419 Q159.927 280.29 158.098 276.748 Q156.292 273.183 152.658 273.183 M152.658 269.48 Q158.468 269.48 161.524 274.086 Q164.603 278.67 164.603 287.419 Q164.603 296.146 161.524 300.753 Q158.468 305.336 152.658 305.336 Q146.848 305.336 143.769 300.753 Q140.714 296.146 140.714 287.419 Q140.714 278.67 143.769 274.086 Q146.848 269.48 152.658 269.48 Z" fill="#000000" fill-rule="nonzero" fill-opacity="1" /><path clip-path="url(#clip180)" d="M182.82 273.183 Q179.209 273.183 177.38 276.748 Q175.575 280.29 175.575 287.419 Q175.575 294.526 177.38 298.091 Q179.209 301.632 182.82 301.632 Q186.454 301.632 188.26 298.091 Q190.089 294.526 190.089 287.419 Q190.089 280.29 188.26 276.748 Q186.454 273.183 182.82 273.183 M182.82 269.48 Q188.63 269.48 191.686 274.086 Q194.765 278.67 194.765 287.419 Q194.765 296.146 191.686 300.753 Q188.63 305.336 182.82 305.336 Q177.01 305.336 173.931 300.753 Q170.876 296.146 170.876 287.419 Q170.876 278.67 173.931 274.086 Q177.01 269.48 182.82 269.48 Z" fill="#000000" fill-rule="nonzero" fill-opacity="1" /><path clip-path="url(#clip180)" d="M1262.23 35.2602 Q1262.23 29.4732 1259.83 26.2904 Q1257.46 23.1075 1253.15 23.1075 Q1248.86 23.1075 1246.46 26.2904 Q1244.09 29.4732 1244.09 35.2602 Q1244.09 41.0183 1246.46 44.2012 Q1248.86 47.384 1253.15 47.384 Q1257.46 47.384 1259.83 44.2012 Q1262.23 41.0183 1262.23 35.2602 M1267.56 47.818 Q1267.56 56.0934 1263.88 60.1154 Q1260.21 64.1663 1252.63 64.1663 Q1249.82 64.1663 1247.33 63.7323 Q1244.84 63.3272 1242.5 62.4592 L1242.5 57.2798 Q1244.84 58.5529 1247.13 59.1606 Q1249.41 59.7682 1251.79 59.7682 Q1257.02 59.7682 1259.63 57.0194 Q1262.23 54.2995 1262.23 48.7729 L1262.23 46.1398 Q1260.58 49.0044 1258.01 50.4222 Q1255.43 51.84 1251.84 51.84 Q1245.88 51.84 1242.24 47.2972 Q1238.59 42.7544 1238.59 35.2602 Q1238.59 27.7371 1242.24 23.1943 Q1245.88 18.6515 1251.84 18.6515 Q1255.43 18.6515 1258.01 20.0693 Q1260.58 21.4872 1262.23 24.3517 L1262.23 19.4328 L1267.56 19.4328 L1267.56 47.818 Z" fill="#000000" fill-rule="nonzero" fill-opacity="1" /><path clip-path="url(#clip180)" d="M1299.85 24.3517 L1299.85 6.81709 L1305.17 6.81709 L1305.17 51.84 L1299.85 51.84 L1299.85 46.9789 Q1298.17 49.8724 1295.59 51.2902 Q1293.05 52.6791 1289.46 52.6791 Q1283.59 52.6791 1279.88 47.9916 Q1276.21 43.3042 1276.21 35.6653 Q1276.21 28.0265 1279.88 23.339 Q1283.59 18.6515 1289.46 18.6515 Q1293.05 18.6515 1295.59 20.0693 Q1298.17 21.4582 1299.85 24.3517 M1281.71 35.6653 Q1281.71 41.5391 1284.11 44.8956 Q1286.54 48.2231 1290.76 48.2231 Q1294.99 48.2231 1297.42 44.8956 Q1299.85 41.5391 1299.85 35.6653 Q1299.85 29.7915 1297.42 26.464 Q1294.99 23.1075 1290.76 23.1075 Q1286.54 23.1075 1284.11 26.464 Q1281.71 29.7915 1281.71 35.6653 Z" fill="#000000" fill-rule="nonzero" fill-opacity="1" /><path clip-path="url(#clip180)" d="M1321.29 46.9789 L1321.29 64.1663 L1315.94 64.1663 L1315.94 19.4328 L1321.29 19.4328 L1321.29 24.3517 Q1322.97 21.4582 1325.51 20.0693 Q1328.09 18.6515 1331.65 18.6515 Q1337.55 18.6515 1341.22 23.339 Q1344.93 28.0265 1344.93 35.6653 Q1344.93 43.3042 1341.22 47.9916 Q1337.55 52.6791 1331.65 52.6791 Q1328.09 52.6791 1325.51 51.2902 Q1322.97 49.8724 1321.29 46.9789 M1339.4 35.6653 Q1339.4 29.7915 1336.97 26.464 Q1334.57 23.1075 1330.35 23.1075 Q1326.12 23.1075 1323.69 26.464 Q1321.29 29.7915 1321.29 35.6653 Q1321.29 41.5391 1323.69 44.8956 Q1326.12 48.2231 1330.35 48.2231 Q1334.57 48.2231 1336.97 44.8956 Q1339.4 41.5391 1339.4 35.6653 Z" fill="#000000" fill-rule="nonzero" fill-opacity="1" /><polyline clip-path="url(#clip182)" style="stroke:#009af9; stroke-linecap:round; stroke-linejoin:round; stroke-width:4; stroke-opacity:1; fill:none" points="290.821,1447.38 415.938,1385.72 541.056,1191.78 666.173,1062.07 791.291,862.39 916.408,864.464 1041.53,822.76 1166.64,521.038 1291.76,480.694 1416.88,541.66 1542,523.853 1667.11,448.39 1792.23,466.002 1917.35,402.957 2042.46,462.893 2167.58,408.6 2292.7,145.256 "/>
<path clip-path="url(#clip180)" d="M301.498 255.881 L566.127 255.881 L566.127 152.201 L301.498 152.201  Z" fill="#ffffff" fill-rule="evenodd" fill-opacity="1"/>
<polyline clip-path="url(#clip180)" style="stroke:#000000; stroke-linecap:round; stroke-linejoin:round; stroke-width:4; stroke-opacity:1; fill:none" points="301.498,255.881 566.127,255.881 566.127,152.201 301.498,152.201 301.498,255.881 "/>
<polyline clip-path="url(#clip180)" style="stroke:#009af9; stroke-linecap:round; stroke-linejoin:round; stroke-width:4; stroke-opacity:1; fill:none" points="325.075,204.041 466.541,204.041 "/>
<path clip-path="url(#clip180)" d="M503.962 223.728 Q502.156 228.358 500.443 229.77 Q498.73 231.182 495.86 231.182 L492.457 231.182 L492.457 227.617 L494.957 227.617 Q496.716 227.617 497.688 226.784 Q498.661 225.95 499.841 222.848 L500.605 220.904 L490.119 195.395 L494.633 195.395 L502.735 215.673 L510.836 195.395 L515.35 195.395 L503.962 223.728 Z" fill="#000000" fill-rule="nonzero" fill-opacity="1" /><path clip-path="url(#clip180)" d="M522.642 217.385 L530.281 217.385 L530.281 191.02 L521.971 192.687 L521.971 188.427 L530.235 186.761 L534.91 186.761 L534.91 217.385 L542.549 217.385 L542.549 221.321 L522.642 221.321 L522.642 217.385 Z" fill="#000000" fill-rule="nonzero" fill-opacity="1" /></svg>
