<?xml version="1.0" encoding="utf-8"?>
<svg xmlns="http://www.w3.org/2000/svg" xmlns:xlink="http://www.w3.org/1999/xlink" width="600" height="300" viewBox="0 0 2400 1200">
<defs>
  <clipPath id="clip360">
    <rect x="0" y="0" width="2400" height="1200"/>
  </clipPath>
</defs>
<path clip-path="url(#clip360)" d="M0 1200 L2400 1200 L2400 0 L0 0  Z" fill="#ffffff" fill-rule="evenodd" fill-opacity="1"/>
<defs>
  <clipPath id="clip361">
    <rect x="480" y="0" width="1681" height="1200"/>
  </clipPath>
</defs>
<path clip-path="url(#clip360)" d="M216.436 1099.09 L1153.8 1099.09 L1153.8 92.1521 L216.436 92.1521  Z" fill="#ffffff" fill-rule="evenodd" fill-opacity="1"/>
<defs>
  <clipPath id="clip362">
    <rect x="216" y="92" width="938" height="1008"/>
  </clipPath>
</defs>
<polyline clip-path="url(#clip362)" style="stroke:#000000; stroke-linecap:round; stroke-linejoin:round; stroke-width:2; stroke-opacity:0.1; fill:none" points="419.826,1099.09 419.826,92.1521 "/>
<polyline clip-path="url(#clip362)" style="stroke:#000000; stroke-linecap:round; stroke-linejoin:round; stroke-width:2; stroke-opacity:0.1; fill:none" points="640.902,1099.09 640.902,92.1521 "/>
<polyline clip-path="url(#clip362)" style="stroke:#000000; stroke-linecap:round; stroke-linejoin:round; stroke-width:2; stroke-opacity:0.1; fill:none" points="861.977,1099.09 861.977,92.1521 "/>
<polyline clip-path="url(#clip362)" style="stroke:#000000; stroke-linecap:round; stroke-linejoin:round; stroke-width:2; stroke-opacity:0.1; fill:none" points="1083.05,1099.09 1083.05,92.1521 "/>
<polyline clip-path="url(#clip362)" style="stroke:#000000; stroke-linecap:round; stroke-linejoin:round; stroke-width:2; stroke-opacity:0.1; fill:none" points="216.436,857.441 1153.8,857.441 "/>
<polyline clip-path="url(#clip362)" style="stroke:#000000; stroke-linecap:round; stroke-linejoin:round; stroke-width:2; stroke-opacity:0.1; fill:none" points="216.436,611.844 1153.8,611.844 "/>
<polyline clip-path="url(#clip362)" style="stroke:#000000; stroke-linecap:round; stroke-linejoin:round; stroke-width:2; stroke-opacity:0.1; fill:none" points="216.436,366.247 1153.8,366.247 "/>
<polyline clip-path="url(#clip362)" style="stroke:#000000; stroke-linecap:round; stroke-linejoin:round; stroke-width:2; stroke-opacity:0.1; fill:none" points="216.436,120.65 1153.8,120.65 "/>
<polyline clip-path="url(#clip360)" style="stroke:#000000; stroke-linecap:round; stroke-linejoin:round; stroke-width:4; stroke-opacity:1; fill:none" points="216.436,1099.09 1153.8,1099.09 "/>
<polyline clip-path="url(#clip360)" style="stroke:#000000; stroke-linecap:round; stroke-linejoin:round; stroke-width:4; stroke-opacity:1; fill:none" points="419.826,1099.09 419.826,1080.19 "/>
<polyline clip-path="url(#clip360)" style="stroke:#000000; stroke-linecap:round; stroke-linejoin:round; stroke-width:4; stroke-opacity:1; fill:none" points="640.902,1099.09 640.902,1080.19 "/>
<polyline clip-path="url(#clip360)" style="stroke:#000000; stroke-linecap:round; stroke-linejoin:round; stroke-width:4; stroke-opacity:1; fill:none" points="861.977,1099.09 861.977,1080.19 "/>
<polyline clip-path="url(#clip360)" style="stroke:#000000; stroke-linecap:round; stroke-linejoin:round; stroke-width:4; stroke-opacity:1; fill:none" points="1083.05,1099.09 1083.05,1080.19 "/>
<path clip-path="url(#clip360)" d="M410.104 1126.93 L428.46 1126.93 L428.46 1130.86 L414.386 1130.86 L414.386 1139.34 Q415.404 1138.99 416.423 1138.83 Q417.441 1138.64 418.46 1138.64 Q424.247 1138.64 427.627 1141.81 Q431.006 1144.98 431.006 1150.4 Q431.006 1155.98 427.534 1159.08 Q424.062 1162.16 417.742 1162.16 Q415.566 1162.16 413.298 1161.79 Q411.053 1161.42 408.645 1160.68 L408.645 1155.98 Q410.729 1157.11 412.951 1157.67 Q415.173 1158.22 417.65 1158.22 Q421.654 1158.22 423.992 1156.12 Q426.33 1154.01 426.33 1150.4 Q426.33 1146.79 423.992 1144.68 Q421.654 1142.58 417.65 1142.58 Q415.775 1142.58 413.9 1142.99 Q412.048 1143.41 410.104 1144.29 L410.104 1126.93 Z" fill="#000000" fill-rule="nonzero" fill-opacity="1" /><path clip-path="url(#clip360)" d="M615.589 1157.55 L623.228 1157.55 L623.228 1131.19 L614.918 1132.85 L614.918 1128.59 L623.182 1126.93 L627.858 1126.93 L627.858 1157.55 L635.496 1157.55 L635.496 1161.49 L615.589 1161.49 L615.589 1157.55 Z" fill="#000000" fill-rule="nonzero" fill-opacity="1" /><path clip-path="url(#clip360)" d="M654.941 1130.01 Q651.33 1130.01 649.501 1133.57 Q647.695 1137.11 647.695 1144.24 Q647.695 1151.35 649.501 1154.91 Q651.33 1158.46 654.941 1158.46 Q658.575 1158.46 660.381 1154.91 Q662.209 1151.35 662.209 1144.24 Q662.209 1137.11 660.381 1133.57 Q658.575 1130.01 654.941 1130.01 M654.941 1126.3 Q660.751 1126.3 663.807 1130.91 Q666.885 1135.49 666.885 1144.24 Q666.885 1152.97 663.807 1157.58 Q660.751 1162.16 654.941 1162.16 Q649.131 1162.16 646.052 1157.58 Q642.996 1152.97 642.996 1144.24 Q642.996 1135.49 646.052 1130.91 Q649.131 1126.3 654.941 1126.3 Z" fill="#000000" fill-rule="nonzero" fill-opacity="1" /><path clip-path="url(#clip360)" d="M837.163 1157.55 L844.802 1157.55 L844.802 1131.19 L836.491 1132.85 L836.491 1128.59 L844.755 1126.93 L849.431 1126.93 L849.431 1157.55 L857.07 1157.55 L857.07 1161.49 L837.163 1161.49 L837.163 1157.55 Z" fill="#000000" fill-rule="nonzero" fill-opacity="1" /><path clip-path="url(#clip360)" d="M866.561 1126.93 L884.917 1126.93 L884.917 1130.86 L870.843 1130.86 L870.843 1139.34 Q871.862 1138.99 872.88 1138.83 Q873.899 1138.64 874.917 1138.64 Q880.704 1138.64 884.084 1141.81 Q887.463 1144.98 887.463 1150.4 Q887.463 1155.98 883.991 1159.08 Q880.519 1162.16 874.2 1162.16 Q872.024 1162.16 869.755 1161.79 Q867.51 1161.42 865.102 1160.68 L865.102 1155.98 Q867.186 1157.11 869.408 1157.67 Q871.63 1158.22 874.107 1158.22 Q878.112 1158.22 880.45 1156.12 Q882.787 1154.01 882.787 1150.4 Q882.787 1146.79 880.45 1144.68 Q878.112 1142.58 874.107 1142.58 Q872.232 1142.58 870.357 1142.99 Q868.505 1143.41 866.561 1144.29 L866.561 1126.93 Z" fill="#000000" fill-rule="nonzero" fill-opacity="1" /><path clip-path="url(#clip360)" d="M1061.83 1157.55 L1078.15 1157.55 L1078.15 1161.49 L1056.2 1161.49 L1056.2 1157.55 Q1058.86 1154.8 1063.45 1150.17 Q1068.05 1145.52 1069.23 1144.17 Q1071.48 1141.65 1072.36 1139.91 Q1073.26 1138.15 1073.26 1136.46 Q1073.26 1133.71 1071.32 1131.97 Q1069.4 1130.24 1066.29 1130.24 Q1064.1 1130.24 1061.64 1131 Q1059.21 1131.77 1056.43 1133.32 L1056.43 1128.59 Q1059.26 1127.46 1061.71 1126.88 Q1064.16 1126.3 1066.2 1126.3 Q1071.57 1126.3 1074.77 1128.99 Q1077.96 1131.67 1077.96 1136.16 Q1077.96 1138.29 1077.15 1140.21 Q1076.36 1142.11 1074.26 1144.71 Q1073.68 1145.38 1070.58 1148.59 Q1067.47 1151.79 1061.83 1157.55 Z" fill="#000000" fill-rule="nonzero" fill-opacity="1" /><path clip-path="url(#clip360)" d="M1097.96 1130.01 Q1094.35 1130.01 1092.52 1133.57 Q1090.72 1137.11 1090.72 1144.24 Q1090.72 1151.35 1092.52 1154.91 Q1094.35 1158.46 1097.96 1158.46 Q1101.59 1158.46 1103.4 1154.91 Q1105.23 1151.35 1105.23 1144.24 Q1105.23 1137.11 1103.4 1133.57 Q1101.59 1130.01 1097.96 1130.01 M1097.96 1126.3 Q1103.77 1126.3 1106.83 1130.91 Q1109.9 1135.49 1109.9 1144.24 Q1109.9 1152.97 1106.83 1157.58 Q1103.77 1162.16 1097.96 1162.16 Q1092.15 1162.16 1089.07 1157.58 Q1086.02 1152.97 1086.02 1144.24 Q1086.02 1135.49 1089.07 1130.91 Q1092.15 1126.3 1097.96 1126.3 Z" fill="#000000" fill-rule="nonzero" fill-opacity="1" /><polyline clip-path="url(#clip360)" style="stroke:#000000; stroke-linecap:round; stroke-linejoin:round; stroke-width:4; stroke-opacity:1; fill:none" points="216.436,1099.09 216.436,92.1521 "/>
<polyline clip-path="url(#clip360)" style="stroke:#000000; stroke-linecap:round; stroke-linejoin:round; stroke-width:4; stroke-opacity:1; fill:none" points="216.436,857.441 235.334,857.441 "/>
<polyline clip-path="url(#clip360)" style="stroke:#000000; stroke-linecap:round; stroke-linejoin:round; stroke-width:4; stroke-opacity:1; fill:none" points="216.436,611.844 235.334,611.844 "/>
<polyline clip-path="url(#clip360)" style="stroke:#000000; stroke-linecap:round; stroke-linejoin:round; stroke-width:4; stroke-opacity:1; fill:none" points="216.436,366.247 235.334,366.247 "/>
<polyline clip-path="url(#clip360)" style="stroke:#000000; stroke-linecap:round; stroke-linejoin:round; stroke-width:4; stroke-opacity:1; fill:none" points="216.436,120.65 235.334,120.65 "/>
<path clip-path="url(#clip360)" d="M63.9319 843.24 Q60.3208 843.24 58.4921 846.805 Q56.6865 850.347 56.6865 857.476 Q56.6865 864.583 58.4921 868.147 Q60.3208 871.689 63.9319 871.689 Q67.5661 871.689 69.3717 868.147 Q71.2004 864.583 71.2004 857.476 Q71.2004 850.347 69.3717 846.805 Q67.5661 843.24 63.9319 843.24 M63.9319 839.536 Q69.742 839.536 72.7976 844.143 Q75.8763 848.726 75.8763 857.476 Q75.8763 866.203 72.7976 870.809 Q69.742 875.393 63.9319 875.393 Q58.1217 875.393 55.043 870.809 Q51.9875 866.203 51.9875 857.476 Q51.9875 848.726 55.043 844.143 Q58.1217 839.536 63.9319 839.536 Z" fill="#000000" fill-rule="nonzero" fill-opacity="1" /><path clip-path="url(#clip360)" d="M84.0938 868.842 L88.978 868.842 L88.978 874.721 L84.0938 874.721 L84.0938 868.842 Z" fill="#000000" fill-rule="nonzero" fill-opacity="1" /><path clip-path="url(#clip360)" d="M109.163 843.24 Q105.552 843.24 103.723 846.805 Q101.918 850.347 101.918 857.476 Q101.918 864.583 103.723 868.147 Q105.552 871.689 109.163 871.689 Q112.797 871.689 114.603 868.147 Q116.432 864.583 116.432 857.476 Q116.432 850.347 114.603 846.805 Q112.797 843.24 109.163 843.24 M109.163 839.536 Q114.973 839.536 118.029 844.143 Q121.107 848.726 121.107 857.476 Q121.107 866.203 118.029 870.809 Q114.973 875.393 109.163 875.393 Q103.353 875.393 100.274 870.809 Q97.2187 866.203 97.2187 857.476 Q97.2187 848.726 100.274 844.143 Q103.353 839.536 109.163 839.536 Z" fill="#000000" fill-rule="nonzero" fill-opacity="1" /><path clip-path="url(#clip360)" d="M139.325 843.24 Q135.714 843.24 133.885 846.805 Q132.08 850.347 132.08 857.476 Q132.08 864.583 133.885 868.147 Q135.714 871.689 139.325 871.689 Q142.959 871.689 144.765 868.147 Q146.593 864.583 146.593 857.476 Q146.593 850.347 144.765 846.805 Q142.959 843.24 139.325 843.24 M139.325 839.536 Q145.135 839.536 148.191 844.143 Q151.269 848.726 151.269 857.476 Q151.269 866.203 148.191 870.809 Q145.135 875.393 139.325 875.393 Q133.515 875.393 130.436 870.809 Q127.381 866.203 127.381 857.476 Q127.381 848.726 130.436 844.143 Q133.515 839.536 139.325 839.536 Z" fill="#000000" fill-rule="nonzero" fill-opacity="1" /><path clip-path="url(#clip360)" d="M159.533 840.161 L177.89 840.161 L177.89 844.097 L163.816 844.097 L163.816 852.569 Q164.834 852.222 165.853 852.06 Q166.871 851.874 167.89 851.874 Q173.677 851.874 177.056 855.046 Q180.436 858.217 180.436 863.634 Q180.436 869.212 176.964 872.314 Q173.491 875.393 167.172 875.393 Q164.996 875.393 162.728 875.022 Q160.482 874.652 158.075 873.911 L158.075 869.212 Q160.158 870.346 162.38 870.902 Q164.603 871.458 167.079 871.458 Q171.084 871.458 173.422 869.351 Q175.76 867.245 175.76 863.634 Q175.76 860.022 173.422 857.916 Q171.084 855.809 167.079 855.809 Q165.204 855.809 163.329 856.226 Q161.478 856.643 159.533 857.522 L159.533 840.161 Z" fill="#000000" fill-rule="nonzero" fill-opacity="1" /><path clip-path="url(#clip360)" d="M62.9365 597.643 Q59.3254 597.643 57.4967 601.208 Q55.6912 604.75 55.6912 611.879 Q55.6912 618.986 57.4967 622.55 Q59.3254 626.092 62.9365 626.092 Q66.5707 626.092 68.3763 622.55 Q70.205 618.986 70.205 611.879 Q70.205 604.75 68.3763 601.208 Q66.5707 597.643 62.9365 597.643 M62.9365 593.939 Q68.7467 593.939 71.8022 598.546 Q74.8809 603.129 74.8809 611.879 Q74.8809 620.606 71.8022 625.212 Q68.7467 629.796 62.9365 629.796 Q57.1264 629.796 54.0477 625.212 Q50.9921 620.606 50.9921 611.879 Q50.9921 603.129 54.0477 598.546 Q57.1264 593.939 62.9365 593.939 Z" fill="#000000" fill-rule="nonzero" fill-opacity="1" /><path clip-path="url(#clip360)" d="M83.0984 623.245 L87.9827 623.245 L87.9827 629.124 L83.0984 629.124 L83.0984 623.245 Z" fill="#000000" fill-rule="nonzero" fill-opacity="1" /><path clip-path="url(#clip360)" d="M108.168 597.643 Q104.557 597.643 102.728 601.208 Q100.922 604.75 100.922 611.879 Q100.922 618.986 102.728 622.55 Q104.557 626.092 108.168 626.092 Q111.802 626.092 113.608 622.55 Q115.436 618.986 115.436 611.879 Q115.436 604.75 113.608 601.208 Q111.802 597.643 108.168 597.643 M108.168 593.939 Q113.978 593.939 117.033 598.546 Q120.112 603.129 120.112 611.879 Q120.112 620.606 117.033 625.212 Q113.978 629.796 108.168 629.796 Q102.358 629.796 99.2789 625.212 Q96.2234 620.606 96.2234 611.879 Q96.2234 603.129 99.2789 598.546 Q102.358 593.939 108.168 593.939 Z" fill="#000000" fill-rule="nonzero" fill-opacity="1" /><path clip-path="url(#clip360)" d="M129.14 625.189 L136.779 625.189 L136.779 598.824 L128.469 600.49 L128.469 596.231 L136.732 594.564 L141.408 594.564 L141.408 625.189 L149.047 625.189 L149.047 629.124 L129.14 629.124 L129.14 625.189 Z" fill="#000000" fill-rule="nonzero" fill-opacity="1" /><path clip-path="url(#clip360)" d="M168.491 597.643 Q164.88 597.643 163.052 601.208 Q161.246 604.75 161.246 611.879 Q161.246 618.986 163.052 622.55 Q164.88 626.092 168.491 626.092 Q172.126 626.092 173.931 622.55 Q175.76 618.986 175.76 611.879 Q175.76 604.75 173.931 601.208 Q172.126 597.643 168.491 597.643 M168.491 593.939 Q174.302 593.939 177.357 598.546 Q180.436 603.129 180.436 611.879 Q180.436 620.606 177.357 625.212 Q174.302 629.796 168.491 629.796 Q162.681 629.796 159.603 625.212 Q156.547 620.606 156.547 611.879 Q156.547 603.129 159.603 598.546 Q162.681 593.939 168.491 593.939 Z" fill="#000000" fill-rule="nonzero" fill-opacity="1" /><path clip-path="url(#clip360)" d="M63.9319 352.046 Q60.3208 352.046 58.4921 355.611 Q56.6865 359.152 56.6865 366.282 Q56.6865 373.389 58.4921 376.953 Q60.3208 380.495 63.9319 380.495 Q67.5661 380.495 69.3717 376.953 Q71.2004 373.389 71.2004 366.282 Q71.2004 359.152 69.3717 355.611 Q67.5661 352.046 63.9319 352.046 M63.9319 348.342 Q69.742 348.342 72.7976 352.949 Q75.8763 357.532 75.8763 366.282 Q75.8763 375.009 72.7976 379.615 Q69.742 384.199 63.9319 384.199 Q58.1217 384.199 55.043 379.615 Q51.9875 375.009 51.9875 366.282 Q51.9875 357.532 55.043 352.949 Q58.1217 348.342 63.9319 348.342 Z" fill="#000000" fill-rule="nonzero" fill-opacity="1" /><path clip-path="url(#clip360)" d="M84.0938 377.648 L88.978 377.648 L88.978 383.527 L84.0938 383.527 L84.0938 377.648 Z" fill="#000000" fill-rule="nonzero" fill-opacity="1" /><path clip-path="url(#clip360)" d="M109.163 352.046 Q105.552 352.046 103.723 355.611 Q101.918 359.152 101.918 366.282 Q101.918 373.389 103.723 376.953 Q105.552 380.495 109.163 380.495 Q112.797 380.495 114.603 376.953 Q116.432 373.389 116.432 366.282 Q116.432 359.152 114.603 355.611 Q112.797 352.046 109.163 352.046 M109.163 348.342 Q114.973 348.342 118.029 352.949 Q121.107 357.532 121.107 366.282 Q121.107 375.009 118.029 379.615 Q114.973 384.199 109.163 384.199 Q103.353 384.199 100.274 379.615 Q97.2187 375.009 97.2187 366.282 Q97.2187 357.532 100.274 352.949 Q103.353 348.342 109.163 348.342 Z" fill="#000000" fill-rule="nonzero" fill-opacity="1" /><path clip-path="url(#clip360)" d="M130.135 379.592 L137.774 379.592 L137.774 353.227 L129.464 354.893 L129.464 350.634 L137.728 348.967 L142.404 348.967 L142.404 379.592 L150.043 379.592 L150.043 383.527 L130.135 383.527 L130.135 379.592 Z" fill="#000000" fill-rule="nonzero" fill-opacity="1" /><path clip-path="url(#clip360)" d="M159.533 348.967 L177.89 348.967 L177.89 352.903 L163.816 352.903 L163.816 361.375 Q164.834 361.027 165.853 360.865 Q166.871 360.68 167.89 360.68 Q173.677 360.68 177.056 363.852 Q180.436 367.023 180.436 372.439 Q180.436 378.018 176.964 381.12 Q173.491 384.199 167.172 384.199 Q164.996 384.199 162.728 383.828 Q160.482 383.458 158.075 382.717 L158.075 378.018 Q160.158 379.152 162.38 379.708 Q164.603 380.263 167.079 380.263 Q171.084 380.263 173.422 378.157 Q175.76 376.051 175.76 372.439 Q175.76 368.828 173.422 366.722 Q171.084 364.615 167.079 364.615 Q165.204 364.615 163.329 365.032 Q161.478 365.449 159.533 366.328 L159.533 348.967 Z" fill="#000000" fill-rule="nonzero" fill-opacity="1" /><path clip-path="url(#clip360)" d="M62.9365 106.449 Q59.3254 106.449 57.4967 110.014 Q55.6912 113.555 55.6912 120.685 Q55.6912 127.791 57.4967 131.356 Q59.3254 134.898 62.9365 134.898 Q66.5707 134.898 68.3763 131.356 Q70.205 127.791 70.205 120.685 Q70.205 113.555 68.3763 110.014 Q66.5707 106.449 62.9365 106.449 M62.9365 102.745 Q68.7467 102.745 71.8022 107.352 Q74.8809 111.935 74.8809 120.685 Q74.8809 129.412 71.8022 134.018 Q68.7467 138.602 62.9365 138.602 Q57.1264 138.602 54.0477 134.018 Q50.9921 129.412 50.9921 120.685 Q50.9921 111.935 54.0477 107.352 Q57.1264 102.745 62.9365 102.745 Z" fill="#000000" fill-rule="nonzero" fill-opacity="1" /><path clip-path="url(#clip360)" d="M83.0984 132.051 L87.9827 132.051 L87.9827 137.93 L83.0984 137.93 L83.0984 132.051 Z" fill="#000000" fill-rule="nonzero" fill-opacity="1" /><path clip-path="url(#clip360)" d="M108.168 106.449 Q104.557 106.449 102.728 110.014 Q100.922 113.555 100.922 120.685 Q100.922 127.791 102.728 131.356 Q104.557 134.898 108.168 134.898 Q111.802 134.898 113.608 131.356 Q115.436 127.791 115.436 120.685 Q115.436 113.555 113.608 110.014 Q111.802 106.449 108.168 106.449 M108.168 102.745 Q113.978 102.745 117.033 107.352 Q120.112 111.935 120.112 120.685 Q120.112 129.412 117.033 134.018 Q113.978 138.602 108.168 138.602 Q102.358 138.602 99.2789 134.018 Q96.2234 129.412 96.2234 120.685 Q96.2234 111.935 99.2789 107.352 Q102.358 102.745 108.168 102.745 Z" fill="#000000" fill-rule="nonzero" fill-opacity="1" /><path clip-path="url(#clip360)" d="M132.357 133.995 L148.677 133.995 L148.677 137.93 L126.732 137.93 L126.732 133.995 Q129.394 131.241 133.978 126.611 Q138.584 121.958 139.765 120.616 Q142.01 118.092 142.89 116.356 Q143.793 114.597 143.793 112.907 Q143.793 110.153 141.848 108.417 Q139.927 106.68 136.825 106.68 Q134.626 106.68 132.172 107.444 Q129.742 108.208 126.964 109.759 L126.964 105.037 Q129.788 103.903 132.242 103.324 Q134.695 102.745 136.732 102.745 Q142.103 102.745 145.297 105.43 Q148.492 108.116 148.492 112.606 Q148.492 114.736 147.681 116.657 Q146.894 118.555 144.788 121.148 Q144.209 121.819 141.107 125.037 Q138.006 128.231 132.357 133.995 Z" fill="#000000" fill-rule="nonzero" fill-opacity="1" /><path clip-path="url(#clip360)" d="M168.491 106.449 Q164.88 106.449 163.052 110.014 Q161.246 113.555 161.246 120.685 Q161.246 127.791 163.052 131.356 Q164.88 134.898 168.491 134.898 Q172.126 134.898 173.931 131.356 Q175.76 127.791 175.76 120.685 Q175.76 113.555 173.931 110.014 Q172.126 106.449 168.491 106.449 M168.491 102.745 Q174.302 102.745 177.357 107.352 Q180.436 111.935 180.436 120.685 Q180.436 129.412 177.357 134.018 Q174.302 138.602 168.491 138.602 Q162.681 138.602 159.603 134.018 Q156.547 129.412 156.547 120.685 Q156.547 111.935 159.603 107.352 Q162.681 102.745 168.491 102.745 Z" fill="#000000" fill-rule="nonzero" fill-opacity="1" /><path clip-path="url(#clip360)" d="M617.734 30.8748 L617.734 33.2186 L595.703 33.2186 Q596.016 38.1665 598.672 40.7706 Q601.354 43.3487 606.12 43.3487 Q608.88 43.3487 611.458 42.6716 Q614.062 41.9946 616.614 40.6404 L616.614 45.1716 Q614.036 46.2654 611.328 46.8383 Q608.62 47.4112 605.833 47.4112 Q598.854 47.4112 594.766 43.3487 Q590.703 39.2862 590.703 32.3592 Q590.703 25.1978 594.557 21.0051 Q598.437 16.7864 605 16.7864 Q610.885 16.7864 614.297 20.5884 Q617.734 24.3645 617.734 30.8748 M612.943 29.4686 Q612.891 25.5363 610.729 23.1926 Q608.594 20.8488 605.052 20.8488 Q601.042 20.8488 598.62 23.1145 Q596.224 25.3801 595.859 29.4946 L612.943 29.4686 Z" fill="#000000" fill-rule="nonzero" fill-opacity="1" /><path clip-path="url(#clip360)" d="M625.104 35.1456 L625.104 17.4895 L629.896 17.4895 L629.896 34.9634 Q629.896 39.104 631.51 41.1873 Q633.125 43.2446 636.354 43.2446 Q640.234 43.2446 642.474 40.7706 Q644.739 38.2967 644.739 34.0259 L644.739 17.4895 L649.531 17.4895 L649.531 46.656 L644.739 46.656 L644.739 42.1769 Q642.995 44.8331 640.677 46.1352 Q638.385 47.4112 635.338 47.4112 Q630.312 47.4112 627.708 44.2862 Q625.104 41.1612 625.104 35.1456 M637.161 16.7864 L637.161 16.7864 Z" fill="#000000" fill-rule="nonzero" fill-opacity="1" /><path clip-path="url(#clip360)" d="M676.302 21.9686 Q675.494 21.4999 674.531 21.2916 Q673.593 21.0572 672.448 21.0572 Q668.385 21.0572 666.198 23.7134 Q664.036 26.3436 664.036 31.2915 L664.036 46.656 L659.218 46.656 L659.218 17.4895 L664.036 17.4895 L664.036 22.0207 Q665.547 19.3645 667.968 18.0884 Q670.39 16.7864 673.854 16.7864 Q674.349 16.7864 674.948 16.8645 Q675.546 16.9166 676.276 17.0468 L676.302 21.9686 Z" fill="#000000" fill-rule="nonzero" fill-opacity="1" /><path clip-path="url(#clip360)" d="M681.328 17.4895 L686.119 17.4895 L686.119 46.656 L681.328 46.656 L681.328 17.4895 M681.328 6.13538 L686.119 6.13538 L686.119 12.2031 L681.328 12.2031 L681.328 6.13538 Z" fill="#000000" fill-rule="nonzero" fill-opacity="1" /><path clip-path="url(#clip360)" d="M717.083 32.0988 Q717.083 26.8124 714.895 23.8176 Q712.734 20.7968 708.932 20.7968 Q705.13 20.7968 702.942 23.8176 Q700.781 26.8124 700.781 32.0988 Q700.781 37.3852 702.942 40.406 Q705.13 43.4008 708.932 43.4008 Q712.734 43.4008 714.895 40.406 Q717.083 37.3852 717.083 32.0988 M700.781 21.9165 Q702.291 19.3124 704.583 18.0624 Q706.9 16.7864 710.104 16.7864 Q715.416 16.7864 718.723 21.0051 Q722.057 25.2238 722.057 32.0988 Q722.057 38.9737 718.723 43.1925 Q715.416 47.4112 710.104 47.4112 Q706.9 47.4112 704.583 46.1612 Q702.291 44.8852 700.781 42.281 L700.781 46.656 L695.963 46.656 L695.963 6.13538 L700.781 6.13538 L700.781 21.9165 Z" fill="#000000" fill-rule="nonzero" fill-opacity="1" /><path clip-path="url(#clip360)" d="M741.301 20.8488 Q737.447 20.8488 735.208 23.8697 Q732.968 26.8644 732.968 32.0988 Q732.968 37.3331 735.182 40.354 Q737.421 43.3487 741.301 43.3487 Q745.129 43.3487 747.369 40.3279 Q749.609 37.3071 749.609 32.0988 Q749.609 26.9165 747.369 23.8957 Q745.129 20.8488 741.301 20.8488 M741.301 16.7864 Q747.551 16.7864 751.119 20.8488 Q754.687 24.9113 754.687 32.0988 Q754.687 39.2602 751.119 43.3487 Q747.551 47.4112 741.301 47.4112 Q735.025 47.4112 731.458 43.3487 Q727.916 39.2602 727.916 32.0988 Q727.916 24.9113 731.458 20.8488 Q735.025 16.7864 741.301 16.7864 Z" fill="#000000" fill-rule="nonzero" fill-opacity="1" /><path clip-path="url(#clip360)" d="M779.53 21.9686 Q778.723 21.4999 777.759 21.2916 Q776.822 21.0572 775.676 21.0572 Q771.614 21.0572 769.426 23.7134 Q767.265 26.3436 767.265 31.2915 L767.265 46.656 L762.447 46.656 L762.447 17.4895 L767.265 17.4895 L767.265 22.0207 Q768.775 19.3645 771.197 18.0884 Q773.619 16.7864 777.082 16.7864 Q777.577 16.7864 778.176 16.8645 Q778.775 16.9166 779.504 17.0468 L779.53 21.9686 Z" fill="#000000" fill-rule="nonzero" fill-opacity="1" /><path clip-path="url(#clip362)" d="M242.965 1022.19 L287.18 1066.79 L331.395 1019.68 L375.611 1018.53 L419.826 1036.61 L464.041 1070.59 L508.256 1062.21 L552.471 1029.16 L596.686 986.2 L640.902 1011.89 L685.117 1036.41 L729.332 1059.77 L773.547 1026.29 L817.762 1018.86 L861.977 994.67 L906.193 980.424 L950.408 973.973 L994.623 979.519 L1038.84 988.795 L1083.05 1004.78 L1127.27 976.977 L1127.27 913.003 L1083.05 921.205 L1038.84 896.702 L994.623 913.485 L950.408 908.289 L906.193 878.016 L861.977 898.915 L817.762 877.452 L773.547 877.735 L729.332 866.39 L685.117 849.051 L640.902 845.965 L596.686 859.5 L552.471 919.266 L508.256 928.095 L464.041 972.29 L419.826 951.249 L375.611 973.446 L331.395 988.339 L287.18 1007.02 L242.965 1022.19  Z" fill="#009af9" fill-rule="evenodd" fill-opacity="0.1"/>
<polyline clip-path="url(#clip362)" style="stroke:#009af9; stroke-linecap:round; stroke-linejoin:round; stroke-width:4; stroke-opacity:1; fill:none" points="242.965,1022.19 287.18,1036.91 331.395,1004.01 375.611,995.99 419.826,993.928 464.041,1021.44 508.256,995.155 552.471,974.212 596.686,922.85 640.902,928.929 685.117,942.729 729.332,963.079 773.547,952.012 817.762,948.154 861.977,946.792 906.193,929.22 950.408,941.131 994.623,946.502 1038.84,942.749 1083.05,962.992 1127.27,944.99 "/>
<path clip-path="url(#clip362)" d="M242.965 1022.19 L287.18 120.65 L331.395 120.65 L375.611 120.65 L419.826 120.65 L464.041 120.65 L508.256 120.65 L552.471 120.65 L596.686 120.65 L640.902 120.65 L685.117 120.65 L729.332 120.65 L773.547 120.65 L817.762 120.65 L861.977 120.65 L906.193 120.65 L950.408 120.65 L994.623 120.65 L1038.84 120.65 L1083.05 120.65 L1127.27 120.65 L1127.27 120.65 L1083.05 120.65 L1038.84 120.65 L994.623 120.65 L950.408 120.65 L906.193 120.65 L861.977 120.65 L817.762 120.65 L773.547 120.65 L729.332 120.65 L685.117 120.65 L640.902 120.65 L596.686 120.65 L552.471 120.65 L508.256 120.65 L464.041 120.65 L419.826 120.65 L375.611 120.65 L331.395 120.65 L287.18 120.65 L242.965 1022.19  Z" fill="#e26f46" fill-rule="evenodd" fill-opacity="0.1"/>
<polyline clip-path="url(#clip362)" style="stroke:#e26f46; stroke-linecap:round; stroke-linejoin:round; stroke-width:4; stroke-opacity:1; fill:none" points="242.965,1022.19 287.18,120.65 331.395,120.65 375.611,120.65 419.826,120.65 464.041,120.65 508.256,120.65 552.471,120.65 596.686,120.65 640.902,120.65 685.117,120.65 729.332,120.65 773.547,120.65 817.762,120.65 861.977,120.65 906.193,120.65 950.408,120.65 994.623,120.65 1038.84,120.65 1083.05,120.65 1127.27,120.65 "/>
<path clip-path="url(#clip360)" d="M1415.39 1099.09 L2352.76 1099.09 L2352.76 92.1521 L1415.39 92.1521  Z" fill="#ffffff" fill-rule="evenodd" fill-opacity="1"/>
<defs>
  <clipPath id="clip363">
    <rect x="1415" y="92" width="938" height="1008"/>
  </clipPath>
</defs>
<polyline clip-path="url(#clip363)" style="stroke:#000000; stroke-linecap:round; stroke-linejoin:round; stroke-width:2; stroke-opacity:0.1; fill:none" points="1618.78,1099.09 1618.78,92.1521 "/>
<polyline clip-path="url(#clip363)" style="stroke:#000000; stroke-linecap:round; stroke-linejoin:round; stroke-width:2; stroke-opacity:0.1; fill:none" points="1839.86,1099.09 1839.86,92.1521 "/>
<polyline clip-path="url(#clip363)" style="stroke:#000000; stroke-linecap:round; stroke-linejoin:round; stroke-width:2; stroke-opacity:0.1; fill:none" points="2060.94,1099.09 2060.94,92.1521 "/>
<polyline clip-path="url(#clip363)" style="stroke:#000000; stroke-linecap:round; stroke-linejoin:round; stroke-width:2; stroke-opacity:0.1; fill:none" points="2282.01,1099.09 2282.01,92.1521 "/>
<polyline clip-path="url(#clip363)" style="stroke:#000000; stroke-linecap:round; stroke-linejoin:round; stroke-width:2; stroke-opacity:0.1; fill:none" points="1415.39,1041.83 2352.76,1041.83 "/>
<polyline clip-path="url(#clip363)" style="stroke:#000000; stroke-linecap:round; stroke-linejoin:round; stroke-width:2; stroke-opacity:0.1; fill:none" points="1415.39,826.468 2352.76,826.468 "/>
<polyline clip-path="url(#clip363)" style="stroke:#000000; stroke-linecap:round; stroke-linejoin:round; stroke-width:2; stroke-opacity:0.1; fill:none" points="1415.39,611.102 2352.76,611.102 "/>
<polyline clip-path="url(#clip363)" style="stroke:#000000; stroke-linecap:round; stroke-linejoin:round; stroke-width:2; stroke-opacity:0.1; fill:none" points="1415.39,395.736 2352.76,395.736 "/>
<polyline clip-path="url(#clip363)" style="stroke:#000000; stroke-linecap:round; stroke-linejoin:round; stroke-width:2; stroke-opacity:0.1; fill:none" points="1415.39,180.37 2352.76,180.37 "/>
<polyline clip-path="url(#clip360)" style="stroke:#000000; stroke-linecap:round; stroke-linejoin:round; stroke-width:4; stroke-opacity:1; fill:none" points="1415.39,1099.09 2352.76,1099.09 "/>
<polyline clip-path="url(#clip360)" style="stroke:#000000; stroke-linecap:round; stroke-linejoin:round; stroke-width:4; stroke-opacity:1; fill:none" points="1618.78,1099.09 1618.78,1080.19 "/>
<polyline clip-path="url(#clip360)" style="stroke:#000000; stroke-linecap:round; stroke-linejoin:round; stroke-width:4; stroke-opacity:1; fill:none" points="1839.86,1099.09 1839.86,1080.19 "/>
<polyline clip-path="url(#clip360)" style="stroke:#000000; stroke-linecap:round; stroke-linejoin:round; stroke-width:4; stroke-opacity:1; fill:none" points="2060.94,1099.09 2060.94,1080.19 "/>
<polyline clip-path="url(#clip360)" style="stroke:#000000; stroke-linecap:round; stroke-linejoin:round; stroke-width:4; stroke-opacity:1; fill:none" points="2282.01,1099.09 2282.01,1080.19 "/>
<path clip-path="url(#clip360)" d="M1609.06 1126.93 L1627.42 1126.93 L1627.42 1130.86 L1613.34 1130.86 L1613.34 1139.34 Q1614.36 1138.99 1615.38 1138.83 Q1616.4 1138.64 1617.42 1138.64 Q1623.21 1138.64 1626.58 1141.81 Q1629.96 1144.98 1629.96 1150.4 Q1629.96 1155.98 1626.49 1159.08 Q1623.02 1162.16 1616.7 1162.16 Q1614.52 1162.16 1612.26 1161.79 Q1610.01 1161.42 1607.6 1160.68 L1607.6 1155.98 Q1609.69 1157.11 1611.91 1157.67 Q1614.13 1158.22 1616.61 1158.22 Q1620.61 1158.22 1622.95 1156.12 Q1625.29 1154.01 1625.29 1150.4 Q1625.29 1146.79 1622.95 1144.68 Q1620.61 1142.58 1616.61 1142.58 Q1614.73 1142.58 1612.86 1142.99 Q1611.01 1143.41 1609.06 1144.29 L1609.06 1126.93 Z" fill="#000000" fill-rule="nonzero" fill-opacity="1" /><path clip-path="url(#clip360)" d="M1814.55 1157.55 L1822.19 1157.55 L1822.19 1131.19 L1813.88 1132.85 L1813.88 1128.59 L1822.14 1126.93 L1826.82 1126.93 L1826.82 1157.55 L1834.45 1157.55 L1834.45 1161.49 L1814.55 1161.49 L1814.55 1157.55 Z" fill="#000000" fill-rule="nonzero" fill-opacity="1" /><path clip-path="url(#clip360)" d="M1853.9 1130.01 Q1850.29 1130.01 1848.46 1133.57 Q1846.65 1137.11 1846.65 1144.24 Q1846.65 1151.35 1848.46 1154.91 Q1850.29 1158.46 1853.9 1158.46 Q1857.53 1158.46 1859.34 1154.91 Q1861.17 1151.35 1861.17 1144.24 Q1861.17 1137.11 1859.34 1133.57 Q1857.53 1130.01 1853.9 1130.01 M1853.9 1126.3 Q1859.71 1126.3 1862.76 1130.91 Q1865.84 1135.49 1865.84 1144.24 Q1865.84 1152.97 1862.76 1157.58 Q1859.71 1162.16 1853.9 1162.16 Q1848.09 1162.16 1845.01 1157.58 Q1841.95 1152.97 1841.95 1144.24 Q1841.95 1135.49 1845.01 1130.91 Q1848.09 1126.3 1853.9 1126.3 Z" fill="#000000" fill-rule="nonzero" fill-opacity="1" /><path clip-path="url(#clip360)" d="M2036.12 1157.55 L2043.76 1157.55 L2043.76 1131.19 L2035.45 1132.85 L2035.45 1128.59 L2043.71 1126.93 L2048.39 1126.93 L2048.39 1157.55 L2056.03 1157.55 L2056.03 1161.49 L2036.12 1161.49 L2036.12 1157.55 Z" fill="#000000" fill-rule="nonzero" fill-opacity="1" /><path clip-path="url(#clip360)" d="M2065.52 1126.93 L2083.88 1126.93 L2083.88 1130.86 L2069.8 1130.86 L2069.8 1139.34 Q2070.82 1138.99 2071.84 1138.83 Q2072.86 1138.64 2073.88 1138.64 Q2079.66 1138.64 2083.04 1141.81 Q2086.42 1144.98 2086.42 1150.4 Q2086.42 1155.98 2082.95 1159.08 Q2079.48 1162.16 2073.16 1162.16 Q2070.98 1162.16 2068.71 1161.79 Q2066.47 1161.42 2064.06 1160.68 L2064.06 1155.98 Q2066.14 1157.11 2068.37 1157.67 Q2070.59 1158.22 2073.07 1158.22 Q2077.07 1158.22 2079.41 1156.12 Q2081.75 1154.01 2081.75 1150.4 Q2081.75 1146.79 2079.41 1144.68 Q2077.07 1142.58 2073.07 1142.58 Q2071.19 1142.58 2069.32 1142.99 Q2067.46 1143.41 2065.52 1144.29 L2065.52 1126.93 Z" fill="#000000" fill-rule="nonzero" fill-opacity="1" /><path clip-path="url(#clip360)" d="M2260.78 1157.55 L2277.1 1157.55 L2277.1 1161.49 L2255.16 1161.49 L2255.16 1157.55 Q2257.82 1154.8 2262.41 1150.17 Q2267.01 1145.52 2268.19 1144.17 Q2270.44 1141.65 2271.32 1139.91 Q2272.22 1138.15 2272.22 1136.46 Q2272.22 1133.71 2270.28 1131.97 Q2268.35 1130.24 2265.25 1130.24 Q2263.05 1130.24 2260.6 1131 Q2258.17 1131.77 2255.39 1133.32 L2255.39 1128.59 Q2258.22 1127.46 2260.67 1126.88 Q2263.12 1126.3 2265.16 1126.3 Q2270.53 1126.3 2273.72 1128.99 Q2276.92 1131.67 2276.92 1136.16 Q2276.92 1138.29 2276.11 1140.21 Q2275.32 1142.11 2273.22 1144.71 Q2272.64 1145.38 2269.53 1148.59 Q2266.43 1151.79 2260.78 1157.55 Z" fill="#000000" fill-rule="nonzero" fill-opacity="1" /><path clip-path="url(#clip360)" d="M2296.92 1130.01 Q2293.31 1130.01 2291.48 1133.57 Q2289.67 1137.11 2289.67 1144.24 Q2289.67 1151.35 2291.48 1154.91 Q2293.31 1158.46 2296.92 1158.46 Q2300.55 1158.46 2302.36 1154.91 Q2304.19 1151.35 2304.19 1144.24 Q2304.19 1137.11 2302.36 1133.57 Q2300.55 1130.01 2296.92 1130.01 M2296.92 1126.3 Q2302.73 1126.3 2305.78 1130.91 Q2308.86 1135.49 2308.86 1144.24 Q2308.86 1152.97 2305.78 1157.58 Q2302.73 1162.16 2296.92 1162.16 Q2291.11 1162.16 2288.03 1157.58 Q2284.97 1152.97 2284.97 1144.24 Q2284.97 1135.49 2288.03 1130.91 Q2291.11 1126.3 2296.92 1126.3 Z" fill="#000000" fill-rule="nonzero" fill-opacity="1" /><polyline clip-path="url(#clip360)" style="stroke:#000000; stroke-linecap:round; stroke-linejoin:round; stroke-width:4; stroke-opacity:1; fill:none" points="1415.39,1099.09 1415.39,92.1521 "/>
<polyline clip-path="url(#clip360)" style="stroke:#000000; stroke-linecap:round; stroke-linejoin:round; stroke-width:4; stroke-opacity:1; fill:none" points="1415.39,1041.83 1434.29,1041.83 "/>
<polyline clip-path="url(#clip360)" style="stroke:#000000; stroke-linecap:round; stroke-linejoin:round; stroke-width:4; stroke-opacity:1; fill:none" points="1415.39,826.468 1434.29,826.468 "/>
<polyline clip-path="url(#clip360)" style="stroke:#000000; stroke-linecap:round; stroke-linejoin:round; stroke-width:4; stroke-opacity:1; fill:none" points="1415.39,611.102 1434.29,611.102 "/>
<polyline clip-path="url(#clip360)" style="stroke:#000000; stroke-linecap:round; stroke-linejoin:round; stroke-width:4; stroke-opacity:1; fill:none" points="1415.39,395.736 1434.29,395.736 "/>
<polyline clip-path="url(#clip360)" style="stroke:#000000; stroke-linecap:round; stroke-linejoin:round; stroke-width:4; stroke-opacity:1; fill:none" points="1415.39,180.37 1434.29,180.37 "/>
<path clip-path="url(#clip360)" d="M1252.71 1055.18 L1260.34 1055.18 L1260.34 1028.81 L1252.03 1030.48 L1252.03 1026.22 L1260.3 1024.55 L1264.97 1024.55 L1264.97 1055.18 L1272.61 1055.18 L1272.61 1059.11 L1252.71 1059.11 L1252.71 1055.18 Z" fill="#000000" fill-rule="nonzero" fill-opacity="1" /><path clip-path="url(#clip360)" d="M1282.06 1053.23 L1286.94 1053.23 L1286.94 1059.11 L1282.06 1059.11 L1282.06 1053.23 Z" fill="#000000" fill-rule="nonzero" fill-opacity="1" /><path clip-path="url(#clip360)" d="M1307.13 1027.63 Q1303.51 1027.63 1301.69 1031.2 Q1299.88 1034.74 1299.88 1041.87 Q1299.88 1048.97 1301.69 1052.54 Q1303.51 1056.08 1307.13 1056.08 Q1310.76 1056.08 1312.57 1052.54 Q1314.39 1048.97 1314.39 1041.87 Q1314.39 1034.74 1312.57 1031.2 Q1310.76 1027.63 1307.13 1027.63 M1307.13 1023.93 Q1312.94 1023.93 1315.99 1028.54 Q1319.07 1033.12 1319.07 1041.87 Q1319.07 1050.6 1315.99 1055.2 Q1312.94 1059.78 1307.13 1059.78 Q1301.32 1059.78 1298.24 1055.2 Q1295.18 1050.6 1295.18 1041.87 Q1295.18 1033.12 1298.24 1028.54 Q1301.32 1023.93 1307.13 1023.93 Z" fill="#000000" fill-rule="nonzero" fill-opacity="1" /><path clip-path="url(#clip360)" d="M1337.29 1027.63 Q1333.68 1027.63 1331.85 1031.2 Q1330.04 1034.74 1330.04 1041.87 Q1330.04 1048.97 1331.85 1052.54 Q1333.68 1056.08 1337.29 1056.08 Q1340.92 1056.08 1342.73 1052.54 Q1344.56 1048.97 1344.56 1041.87 Q1344.56 1034.74 1342.73 1031.2 Q1340.92 1027.63 1337.29 1027.63 M1337.29 1023.93 Q1343.1 1023.93 1346.15 1028.54 Q1349.23 1033.12 1349.23 1041.87 Q1349.23 1050.6 1346.15 1055.2 Q1343.1 1059.78 1337.29 1059.78 Q1331.48 1059.78 1328.4 1055.2 Q1325.34 1050.6 1325.34 1041.87 Q1325.34 1033.12 1328.4 1028.54 Q1331.48 1023.93 1337.29 1023.93 Z" fill="#000000" fill-rule="nonzero" fill-opacity="1" /><path clip-path="url(#clip360)" d="M1367.45 1027.63 Q1363.84 1027.63 1362.01 1031.2 Q1360.2 1034.74 1360.2 1041.87 Q1360.2 1048.97 1362.01 1052.54 Q1363.84 1056.08 1367.45 1056.08 Q1371.08 1056.08 1372.89 1052.54 Q1374.72 1048.97 1374.72 1041.87 Q1374.72 1034.74 1372.89 1031.2 Q1371.08 1027.63 1367.45 1027.63 M1367.45 1023.93 Q1373.26 1023.93 1376.32 1028.54 Q1379.39 1033.12 1379.39 1041.87 Q1379.39 1050.6 1376.32 1055.2 Q1373.26 1059.78 1367.45 1059.78 Q1361.64 1059.78 1358.56 1055.2 Q1355.51 1050.6 1355.51 1041.87 Q1355.51 1033.12 1358.56 1028.54 Q1361.64 1023.93 1367.45 1023.93 Z" fill="#000000" fill-rule="nonzero" fill-opacity="1" /><path clip-path="url(#clip360)" d="M1253.7 839.812 L1261.34 839.812 L1261.34 813.447 L1253.03 815.114 L1253.03 810.854 L1261.29 809.188 L1265.97 809.188 L1265.97 839.812 L1273.61 839.812 L1273.61 843.748 L1253.7 843.748 L1253.7 839.812 Z" fill="#000000" fill-rule="nonzero" fill-opacity="1" /><path clip-path="url(#clip360)" d="M1283.05 837.868 L1287.94 837.868 L1287.94 843.748 L1283.05 843.748 L1283.05 837.868 Z" fill="#000000" fill-rule="nonzero" fill-opacity="1" /><path clip-path="url(#clip360)" d="M1308.12 812.266 Q1304.51 812.266 1302.68 815.831 Q1300.88 819.373 1300.88 826.502 Q1300.88 833.609 1302.68 837.174 Q1304.51 840.715 1308.12 840.715 Q1311.76 840.715 1313.56 837.174 Q1315.39 833.609 1315.39 826.502 Q1315.39 819.373 1313.56 815.831 Q1311.76 812.266 1308.12 812.266 M1308.12 808.563 Q1313.93 808.563 1316.99 813.169 Q1320.07 817.752 1320.07 826.502 Q1320.07 835.229 1316.99 839.836 Q1313.93 844.419 1308.12 844.419 Q1302.31 844.419 1299.23 839.836 Q1296.18 835.229 1296.18 826.502 Q1296.18 817.752 1299.23 813.169 Q1302.31 808.563 1308.12 808.563 Z" fill="#000000" fill-rule="nonzero" fill-opacity="1" /><path clip-path="url(#clip360)" d="M1332.31 839.812 L1348.63 839.812 L1348.63 843.748 L1326.69 843.748 L1326.69 839.812 Q1329.35 837.058 1333.93 832.428 Q1338.54 827.776 1339.72 826.433 Q1341.96 823.91 1342.84 822.174 Q1343.75 820.414 1343.75 818.725 Q1343.75 815.97 1341.8 814.234 Q1339.88 812.498 1336.78 812.498 Q1334.58 812.498 1332.13 813.262 Q1329.7 814.026 1326.92 815.577 L1326.92 810.854 Q1329.74 809.72 1332.2 809.141 Q1334.65 808.563 1336.69 808.563 Q1342.06 808.563 1345.25 811.248 Q1348.45 813.933 1348.45 818.424 Q1348.45 820.553 1347.64 822.475 Q1346.85 824.373 1344.74 826.965 Q1344.16 827.637 1341.06 830.854 Q1337.96 834.049 1332.31 839.812 Z" fill="#000000" fill-rule="nonzero" fill-opacity="1" /><path clip-path="url(#clip360)" d="M1358.49 809.188 L1376.85 809.188 L1376.85 813.123 L1362.77 813.123 L1362.77 821.595 Q1363.79 821.248 1364.81 821.086 Q1365.83 820.901 1366.85 820.901 Q1372.63 820.901 1376.01 824.072 Q1379.39 827.243 1379.39 832.66 Q1379.39 838.238 1375.92 841.34 Q1372.45 844.419 1366.13 844.419 Q1363.95 844.419 1361.69 844.049 Q1359.44 843.678 1357.03 842.937 L1357.03 838.238 Q1359.12 839.373 1361.34 839.928 Q1363.56 840.484 1366.04 840.484 Q1370.04 840.484 1372.38 838.377 Q1374.72 836.271 1374.72 832.66 Q1374.72 829.049 1372.38 826.942 Q1370.04 824.836 1366.04 824.836 Q1364.16 824.836 1362.29 825.252 Q1360.44 825.669 1358.49 826.549 L1358.49 809.188 Z" fill="#000000" fill-rule="nonzero" fill-opacity="1" /><path clip-path="url(#clip360)" d="M1252.71 624.447 L1260.34 624.447 L1260.34 598.081 L1252.03 599.748 L1252.03 595.488 L1260.3 593.822 L1264.97 593.822 L1264.97 624.447 L1272.61 624.447 L1272.61 628.382 L1252.71 628.382 L1252.71 624.447 Z" fill="#000000" fill-rule="nonzero" fill-opacity="1" /><path clip-path="url(#clip360)" d="M1282.06 622.502 L1286.94 622.502 L1286.94 628.382 L1282.06 628.382 L1282.06 622.502 Z" fill="#000000" fill-rule="nonzero" fill-opacity="1" /><path clip-path="url(#clip360)" d="M1307.13 596.9 Q1303.51 596.9 1301.69 600.465 Q1299.88 604.007 1299.88 611.136 Q1299.88 618.243 1301.69 621.808 Q1303.51 625.349 1307.13 625.349 Q1310.76 625.349 1312.57 621.808 Q1314.39 618.243 1314.39 611.136 Q1314.39 604.007 1312.57 600.465 Q1310.76 596.9 1307.13 596.9 M1307.13 593.197 Q1312.94 593.197 1315.99 597.803 Q1319.07 602.386 1319.07 611.136 Q1319.07 619.863 1315.99 624.47 Q1312.94 629.053 1307.13 629.053 Q1301.32 629.053 1298.24 624.47 Q1295.18 619.863 1295.18 611.136 Q1295.18 602.386 1298.24 597.803 Q1301.32 593.197 1307.13 593.197 Z" fill="#000000" fill-rule="nonzero" fill-opacity="1" /><path clip-path="url(#clip360)" d="M1327.33 593.822 L1345.69 593.822 L1345.69 597.757 L1331.62 597.757 L1331.62 606.229 Q1332.64 605.882 1333.65 605.72 Q1334.67 605.535 1335.69 605.535 Q1341.48 605.535 1344.86 608.706 Q1348.24 611.877 1348.24 617.294 Q1348.24 622.872 1344.76 625.974 Q1341.29 629.053 1334.97 629.053 Q1332.8 629.053 1330.53 628.683 Q1328.28 628.312 1325.88 627.572 L1325.88 622.872 Q1327.96 624.007 1330.18 624.562 Q1332.4 625.118 1334.88 625.118 Q1338.89 625.118 1341.22 623.011 Q1343.56 620.905 1343.56 617.294 Q1343.56 613.683 1341.22 611.576 Q1338.89 609.47 1334.88 609.47 Q1333.01 609.47 1331.13 609.886 Q1329.28 610.303 1327.33 611.183 L1327.33 593.822 Z" fill="#000000" fill-rule="nonzero" fill-opacity="1" /><path clip-path="url(#clip360)" d="M1367.45 596.9 Q1363.84 596.9 1362.01 600.465 Q1360.2 604.007 1360.2 611.136 Q1360.2 618.243 1362.01 621.808 Q1363.84 625.349 1367.45 625.349 Q1371.08 625.349 1372.89 621.808 Q1374.72 618.243 1374.72 611.136 Q1374.72 604.007 1372.89 600.465 Q1371.08 596.9 1367.45 596.9 M1367.45 593.197 Q1373.26 593.197 1376.32 597.803 Q1379.39 602.386 1379.39 611.136 Q1379.39 619.863 1376.32 624.47 Q1373.26 629.053 1367.45 629.053 Q1361.64 629.053 1358.56 624.47 Q1355.51 619.863 1355.51 611.136 Q1355.51 602.386 1358.56 597.803 Q1361.64 593.197 1367.45 593.197 Z" fill="#000000" fill-rule="nonzero" fill-opacity="1" /><path clip-path="url(#clip360)" d="M1253.7 409.081 L1261.34 409.081 L1261.34 382.715 L1253.03 384.382 L1253.03 380.122 L1261.29 378.456 L1265.97 378.456 L1265.97 409.081 L1273.61 409.081 L1273.61 413.016 L1253.7 413.016 L1253.7 409.081 Z" fill="#000000" fill-rule="nonzero" fill-opacity="1" /><path clip-path="url(#clip360)" d="M1283.05 407.136 L1287.94 407.136 L1287.94 413.016 L1283.05 413.016 L1283.05 407.136 Z" fill="#000000" fill-rule="nonzero" fill-opacity="1" /><path clip-path="url(#clip360)" d="M1308.12 381.534 Q1304.51 381.534 1302.68 385.099 Q1300.88 388.641 1300.88 395.77 Q1300.88 402.877 1302.68 406.442 Q1304.51 409.983 1308.12 409.983 Q1311.76 409.983 1313.56 406.442 Q1315.39 402.877 1315.39 395.77 Q1315.39 388.641 1313.56 385.099 Q1311.76 381.534 1308.12 381.534 M1308.12 377.831 Q1313.93 377.831 1316.99 382.437 Q1320.07 387.021 1320.07 395.77 Q1320.07 404.497 1316.99 409.104 Q1313.93 413.687 1308.12 413.687 Q1302.31 413.687 1299.23 409.104 Q1296.18 404.497 1296.18 395.77 Q1296.18 387.021 1299.23 382.437 Q1302.31 377.831 1308.12 377.831 Z" fill="#000000" fill-rule="nonzero" fill-opacity="1" /><path clip-path="url(#clip360)" d="M1327.1 378.456 L1349.32 378.456 L1349.32 380.446 L1336.78 413.016 L1331.89 413.016 L1343.7 382.391 L1327.1 382.391 L1327.1 378.456 Z" fill="#000000" fill-rule="nonzero" fill-opacity="1" /><path clip-path="url(#clip360)" d="M1358.49 378.456 L1376.85 378.456 L1376.85 382.391 L1362.77 382.391 L1362.77 390.863 Q1363.79 390.516 1364.81 390.354 Q1365.83 390.169 1366.85 390.169 Q1372.63 390.169 1376.01 393.34 Q1379.39 396.511 1379.39 401.928 Q1379.39 407.507 1375.92 410.608 Q1372.45 413.687 1366.13 413.687 Q1363.95 413.687 1361.69 413.317 Q1359.44 412.946 1357.03 412.206 L1357.03 407.507 Q1359.12 408.641 1361.34 409.196 Q1363.56 409.752 1366.04 409.752 Q1370.04 409.752 1372.38 407.645 Q1374.72 405.539 1374.72 401.928 Q1374.72 398.317 1372.38 396.21 Q1370.04 394.104 1366.04 394.104 Q1364.16 394.104 1362.29 394.52 Q1360.44 394.937 1358.49 395.817 L1358.49 378.456 Z" fill="#000000" fill-rule="nonzero" fill-opacity="1" /><path clip-path="url(#clip360)" d="M1252.71 193.715 L1260.34 193.715 L1260.34 167.349 L1252.03 169.016 L1252.03 164.756 L1260.3 163.09 L1264.97 163.09 L1264.97 193.715 L1272.61 193.715 L1272.61 197.65 L1252.71 197.65 L1252.71 193.715 Z" fill="#000000" fill-rule="nonzero" fill-opacity="1" /><path clip-path="url(#clip360)" d="M1282.06 191.77 L1286.94 191.77 L1286.94 197.65 L1282.06 197.65 L1282.06 191.77 Z" fill="#000000" fill-rule="nonzero" fill-opacity="1" /><path clip-path="url(#clip360)" d="M1297.94 193.715 L1305.58 193.715 L1305.58 167.349 L1297.27 169.016 L1297.27 164.756 L1305.53 163.09 L1310.2 163.09 L1310.2 193.715 L1317.84 193.715 L1317.84 197.65 L1297.94 197.65 L1297.94 193.715 Z" fill="#000000" fill-rule="nonzero" fill-opacity="1" /><path clip-path="url(#clip360)" d="M1337.29 166.168 Q1333.68 166.168 1331.85 169.733 Q1330.04 173.275 1330.04 180.405 Q1330.04 187.511 1331.85 191.076 Q1333.68 194.617 1337.29 194.617 Q1340.92 194.617 1342.73 191.076 Q1344.56 187.511 1344.56 180.405 Q1344.56 173.275 1342.73 169.733 Q1340.92 166.168 1337.29 166.168 M1337.29 162.465 Q1343.1 162.465 1346.15 167.071 Q1349.23 171.655 1349.23 180.405 Q1349.23 189.131 1346.15 193.738 Q1343.1 198.321 1337.29 198.321 Q1331.48 198.321 1328.4 193.738 Q1325.34 189.131 1325.34 180.405 Q1325.34 171.655 1328.4 167.071 Q1331.48 162.465 1337.29 162.465 Z" fill="#000000" fill-rule="nonzero" fill-opacity="1" /><path clip-path="url(#clip360)" d="M1367.45 166.168 Q1363.84 166.168 1362.01 169.733 Q1360.2 173.275 1360.2 180.405 Q1360.2 187.511 1362.01 191.076 Q1363.84 194.617 1367.45 194.617 Q1371.08 194.617 1372.89 191.076 Q1374.72 187.511 1374.72 180.405 Q1374.72 173.275 1372.89 169.733 Q1371.08 166.168 1367.45 166.168 M1367.45 162.465 Q1373.26 162.465 1376.32 167.071 Q1379.39 171.655 1379.39 180.405 Q1379.39 189.131 1376.32 193.738 Q1373.26 198.321 1367.45 198.321 Q1361.64 198.321 1358.56 193.738 Q1355.51 189.131 1355.51 180.405 Q1355.51 171.655 1358.56 167.071 Q1361.64 162.465 1367.45 162.465 Z" fill="#000000" fill-rule="nonzero" fill-opacity="1" /><path clip-path="url(#clip360)" d="M1743.36 31.7342 Q1743.36 26.5259 1741.2 23.6613 Q1739.06 20.7968 1735.18 20.7968 Q1731.33 20.7968 1729.17 23.6613 Q1727.03 26.5259 1727.03 31.7342 Q1727.03 36.9165 1729.17 39.781 Q1731.33 42.6456 1735.18 42.6456 Q1739.06 42.6456 1741.2 39.781 Q1743.36 36.9165 1743.36 31.7342 M1748.15 43.0362 Q1748.15 50.4841 1744.84 54.1039 Q1741.54 57.7497 1734.71 57.7497 Q1732.19 57.7497 1729.95 57.3591 Q1727.71 56.9945 1725.6 56.2132 L1725.6 51.5518 Q1727.71 52.6976 1729.77 53.2445 Q1731.82 53.7914 1733.96 53.7914 Q1738.67 53.7914 1741.02 51.3174 Q1743.36 48.8695 1743.36 43.8956 L1743.36 41.5258 Q1741.88 44.1039 1739.56 45.38 Q1737.24 46.656 1734.01 46.656 Q1728.65 46.656 1725.36 42.5675 Q1722.08 38.479 1722.08 31.7342 Q1722.08 24.9634 1725.36 20.8749 Q1728.65 16.7864 1734.01 16.7864 Q1737.24 16.7864 1739.56 18.0624 Q1741.88 19.3384 1743.36 21.9165 L1743.36 17.4895 L1748.15 17.4895 L1748.15 43.0362 Z" fill="#000000" fill-rule="nonzero" fill-opacity="1" /><path clip-path="url(#clip360)" d="M1777.21 21.9165 L1777.21 6.13538 L1782.01 6.13538 L1782.01 46.656 L1777.21 46.656 L1777.21 42.281 Q1775.7 44.8852 1773.39 46.1612 Q1771.09 47.4112 1767.86 47.4112 Q1762.58 47.4112 1759.25 43.1925 Q1755.94 38.9737 1755.94 32.0988 Q1755.94 25.2238 1759.25 21.0051 Q1762.58 16.7864 1767.86 16.7864 Q1771.09 16.7864 1773.39 18.0624 Q1775.7 19.3124 1777.21 21.9165 M1760.89 32.0988 Q1760.89 37.3852 1763.05 40.406 Q1765.23 43.4008 1769.04 43.4008 Q1772.84 43.4008 1775.03 40.406 Q1777.21 37.3852 1777.21 32.0988 Q1777.21 26.8124 1775.03 23.8176 Q1772.84 20.7968 1769.04 20.7968 Q1765.23 20.7968 1763.05 23.8176 Q1760.89 26.8124 1760.89 32.0988 Z" fill="#000000" fill-rule="nonzero" fill-opacity="1" /><path clip-path="url(#clip360)" d="M1796.51 42.281 L1796.51 57.7497 L1791.69 57.7497 L1791.69 17.4895 L1796.51 17.4895 L1796.51 21.9165 Q1798.02 19.3124 1800.31 18.0624 Q1802.63 16.7864 1805.83 16.7864 Q1811.15 16.7864 1814.45 21.0051 Q1817.79 25.2238 1817.79 32.0988 Q1817.79 38.9737 1814.45 43.1925 Q1811.15 47.4112 1805.83 47.4112 Q1802.63 47.4112 1800.31 46.1612 Q1798.02 44.8852 1796.51 42.281 M1812.81 32.0988 Q1812.81 26.8124 1810.62 23.8176 Q1808.46 20.7968 1804.66 20.7968 Q1800.86 20.7968 1798.67 23.8176 Q1796.51 26.8124 1796.51 32.0988 Q1796.51 37.3852 1798.67 40.406 Q1800.86 43.4008 1804.66 43.4008 Q1808.46 43.4008 1810.62 40.406 Q1812.81 37.3852 1812.81 32.0988 Z" fill="#000000" fill-rule="nonzero" fill-opacity="1" /><path clip-path="url(#clip360)" d="M1861.87 21.9165 L1861.87 6.13538 L1866.67 6.13538 L1866.67 46.656 L1861.87 46.656 L1861.87 42.281 Q1860.36 44.8852 1858.05 46.1612 Q1855.75 47.4112 1852.53 47.4112 Q1847.24 47.4112 1843.91 43.1925 Q1840.6 38.9737 1840.6 32.0988 Q1840.6 25.2238 1843.91 21.0051 Q1847.24 16.7864 1852.53 16.7864 Q1855.75 16.7864 1858.05 18.0624 Q1860.36 19.3124 1861.87 21.9165 M1845.55 32.0988 Q1845.55 37.3852 1847.71 40.406 Q1849.9 43.4008 1853.7 43.4008 Q1857.5 43.4008 1859.69 40.406 Q1861.87 37.3852 1861.87 32.0988 Q1861.87 26.8124 1859.69 23.8176 Q1857.5 20.7968 1853.7 20.7968 Q1849.9 20.7968 1847.71 23.8176 Q1845.55 26.8124 1845.55 32.0988 Z" fill="#000000" fill-rule="nonzero" fill-opacity="1" /><path clip-path="url(#clip360)" d="M1901.48 30.8748 L1901.48 33.2186 L1879.45 33.2186 Q1879.77 38.1665 1882.42 40.7706 Q1885.1 43.3487 1889.87 43.3487 Q1892.63 43.3487 1895.21 42.6716 Q1897.81 41.9946 1900.36 40.6404 L1900.36 45.1716 Q1897.79 46.2654 1895.08 46.8383 Q1892.37 47.4112 1889.58 47.4112 Q1882.6 47.4112 1878.52 43.3487 Q1874.45 39.2862 1874.45 32.3592 Q1874.45 25.1978 1878.31 21.0051 Q1882.19 16.7864 1888.75 16.7864 Q1894.63 16.7864 1898.05 20.5884 Q1901.48 24.3645 1901.48 30.8748 M1896.69 29.4686 Q1896.64 25.5363 1894.48 23.1926 Q1892.34 20.8488 1888.8 20.8488 Q1884.79 20.8488 1882.37 23.1145 Q1879.97 25.3801 1879.61 29.4946 L1896.69 29.4686 Z" fill="#000000" fill-rule="nonzero" fill-opacity="1" /><path clip-path="url(#clip360)" d="M1924.11 6.13538 L1924.11 10.1197 L1919.53 10.1197 Q1916.95 10.1197 1915.94 11.1614 Q1914.95 12.2031 1914.95 14.9114 L1914.95 17.4895 L1922.84 17.4895 L1922.84 21.2134 L1914.95 21.2134 L1914.95 46.656 L1910.13 46.656 L1910.13 21.2134 L1905.55 21.2134 L1905.55 17.4895 L1910.13 17.4895 L1910.13 15.4583 Q1910.13 10.5885 1912.4 8.37496 Q1914.66 6.13538 1919.58 6.13538 L1924.11 6.13538 Z" fill="#000000" fill-rule="nonzero" fill-opacity="1" /><path clip-path="url(#clip360)" d="M1928.12 6.13538 L1932.92 6.13538 L1932.92 46.656 L1928.12 46.656 L1928.12 6.13538 Z" fill="#000000" fill-rule="nonzero" fill-opacity="1" /><path clip-path="url(#clip360)" d="M1956.2 31.9946 Q1950.39 31.9946 1948.15 33.3227 Q1945.91 34.6509 1945.91 37.854 Q1945.91 40.406 1947.58 41.9164 Q1949.27 43.4008 1952.16 43.4008 Q1956.14 43.4008 1958.54 40.5883 Q1960.96 37.7498 1960.96 33.0623 L1960.96 31.9946 L1956.2 31.9946 M1965.75 30.0155 L1965.75 46.656 L1960.96 46.656 L1960.96 42.2289 Q1959.32 44.8852 1956.87 46.1612 Q1954.43 47.4112 1950.88 47.4112 Q1946.41 47.4112 1943.75 44.9112 Q1941.12 42.3852 1941.12 38.1665 Q1941.12 33.2446 1944.4 30.7446 Q1947.71 28.2446 1954.24 28.2446 L1960.96 28.2446 L1960.96 27.7759 Q1960.96 24.4686 1958.78 22.6718 Q1956.61 20.8488 1952.68 20.8488 Q1950.18 20.8488 1947.81 21.4478 Q1945.44 22.0468 1943.25 23.2447 L1943.25 18.8176 Q1945.88 17.802 1948.36 17.3072 Q1950.83 16.7864 1953.18 16.7864 Q1959.5 16.7864 1962.63 20.0676 Q1965.75 23.3488 1965.75 30.0155 Z" fill="#000000" fill-rule="nonzero" fill-opacity="1" /><path clip-path="url(#clip360)" d="M1980.36 9.20828 L1980.36 17.4895 L1990.23 17.4895 L1990.23 21.2134 L1980.36 21.2134 L1980.36 37.0467 Q1980.36 40.6144 1981.33 41.63 Q1982.32 42.6456 1985.31 42.6456 L1990.23 42.6456 L1990.23 46.656 L1985.31 46.656 Q1979.76 46.656 1977.66 44.5987 Q1975.55 42.5154 1975.55 37.0467 L1975.55 21.2134 L1972.03 21.2134 L1972.03 17.4895 L1975.55 17.4895 L1975.55 9.20828 L1980.36 9.20828 Z" fill="#000000" fill-rule="nonzero" fill-opacity="1" /><path clip-path="url(#clip360)" d="M2007.84 20.8488 Q2003.98 20.8488 2001.74 23.8697 Q1999.5 26.8644 1999.5 32.0988 Q1999.5 37.3331 2001.72 40.354 Q2003.96 43.3487 2007.84 43.3487 Q2011.67 43.3487 2013.91 40.3279 Q2016.14 37.3071 2016.14 32.0988 Q2016.14 26.9165 2013.91 23.8957 Q2011.67 20.8488 2007.84 20.8488 M2007.84 16.7864 Q2014.09 16.7864 2017.66 20.8488 Q2021.22 24.9113 2021.22 32.0988 Q2021.22 39.2602 2017.66 43.3487 Q2014.09 47.4112 2007.84 47.4112 Q2001.56 47.4112 1997.99 43.3487 Q1994.45 39.2602 1994.45 32.0988 Q1994.45 24.9113 1997.99 20.8488 Q2001.56 16.7864 2007.84 16.7864 Z" fill="#000000" fill-rule="nonzero" fill-opacity="1" /><path clip-path="url(#clip360)" d="M2046.07 21.9686 Q2045.26 21.4999 2044.3 21.2916 Q2043.36 21.0572 2042.21 21.0572 Q2038.15 21.0572 2035.96 23.7134 Q2033.8 26.3436 2033.8 31.2915 L2033.8 46.656 L2028.98 46.656 L2028.98 17.4895 L2033.8 17.4895 L2033.8 22.0207 Q2035.31 19.3645 2037.73 18.0884 Q2040.15 16.7864 2043.62 16.7864 Q2044.11 16.7864 2044.71 16.8645 Q2045.31 16.9166 2046.04 17.0468 L2046.07 21.9686 Z" fill="#000000" fill-rule="nonzero" fill-opacity="1" /><path clip-path="url(#clip363)" d="M1441.92 1041.83 L1486.14 1045.22 L1530.35 1034.48 L1574.57 994.96 L1618.78 939.9 L1663 906.264 L1707.21 855.782 L1751.43 856.357 L1795.64 843.173 L1839.86 793.182 L1884.08 757.891 L1928.29 734.895 L1972.51 679.876 L2016.72 625.295 L2060.94 575.673 L2105.15 565.968 L2149.37 517.393 L2193.58 537.576 L2237.8 481.467 L2282.01 438.523 L2326.23 469.291 L2326.23 313.838 L2282.01 390.977 L2237.8 404.149 L2193.58 468.922 L2149.37 461.87 L2105.15 496.906 L2060.94 550.169 L2016.72 578.198 L1972.51 617.414 L1928.29 631.217 L1884.08 697.216 L1839.86 738.466 L1795.64 737.609 L1751.43 774.458 L1707.21 785.298 L1663 790.834 L1618.78 808.767 L1574.57 853.131 L1530.35 925.577 L1486.14 985.071 L1441.92 1041.83  Z" fill="#009af9" fill-rule="evenodd" fill-opacity="0.1"/>
<polyline clip-path="url(#clip363)" style="stroke:#009af9; stroke-linecap:round; stroke-linejoin:round; stroke-width:4; stroke-opacity:1; fill:none" points="1441.92,1041.83 1486.14,1015.14 1530.35,980.028 1574.57,924.045 1618.78,874.333 1663,848.549 1707.21,820.54 1751.43,815.407 1795.64,790.391 1839.86,765.824 1884.08,727.553 1928.29,683.056 1972.51,648.645 2016.72,601.747 2060.94,562.921 2105.15,531.437 2149.37,489.632 2193.58,503.249 2237.8,442.808 2282.01,414.75 2326.23,391.565 "/>
<path clip-path="url(#clip363)" d="M1441.92 1041.83 L1486.14 1070.59 L1530.35 1042.66 L1574.57 983.222 L1618.78 967.467 L1663 980.695 L1707.21 897.96 L1751.43 884.221 L1795.64 856.43 L1839.86 815.379 L1884.08 782.328 L1928.29 724.01 L1972.51 694.213 L2016.72 705.555 L2060.94 733.407 L2105.15 748.223 L2149.37 763.36 L2193.58 704.247 L2237.8 670.053 L2282.01 644.395 L2326.23 624.604 L2326.23 120.65 L2282.01 194.153 L2237.8 294.331 L2193.58 355.387 L2149.37 375.835 L2105.15 422.414 L2060.94 448.884 L2016.72 511.302 L1972.51 526.435 L1928.29 535.567 L1884.08 546.831 L1839.86 565.457 L1795.64 581.948 L1751.43 630.338 L1707.21 701.446 L1663 775.594 L1618.78 863.358 L1574.57 907.858 L1530.35 943.118 L1486.14 973.058 L1441.92 1041.83  Z" fill="#e26f46" fill-rule="evenodd" fill-opacity="0.1"/>
<polyline clip-path="url(#clip363)" style="stroke:#e26f46; stroke-linecap:round; stroke-linejoin:round; stroke-width:4; stroke-opacity:1; fill:none" points="1441.92,1041.83 1486.14,1021.82 1530.35,992.891 1574.57,945.54 1618.78,915.413 1663,878.144 1707.21,799.703 1751.43,757.279 1795.64,719.189 1839.86,690.418 1884.08,664.58 1928.29,629.788 1972.51,610.324 2016.72,608.428 2060.94,591.146 2105.15,585.318 2149.37,569.598 2193.58,529.817 2237.8,482.192 2282.01,419.274 2326.23,372.627 "/>
</svg>
