<?xml version="1.0" encoding="utf-8"?>
<svg xmlns="http://www.w3.org/2000/svg" xmlns:xlink="http://www.w3.org/1999/xlink" width="600" height="400" viewBox="0 0 2400 1600">
<defs>
  <clipPath id="clip900">
    <rect x="0" y="0" width="2400" height="1600"/>
  </clipPath>
</defs>
<path clip-path="url(#clip900)" d="M0 1600 L2400 1600 L2400 0 L0 0  Z" fill="#ffffff" fill-rule="evenodd" fill-opacity="1"/>
<defs>
  <clipPath id="clip901">
    <rect x="480" y="0" width="1681" height="1600"/>
  </clipPath>
</defs>
<path clip-path="url(#clip900)" d="M230.765 1486.45 L2352.76 1486.45 L2352.76 106.192 L230.765 106.192  Z" fill="#ffffff" fill-rule="evenodd" fill-opacity="1"/>
<defs>
  <clipPath id="clip902">
    <rect x="230" y="106" width="2123" height="1381"/>
  </clipPath>
</defs>
<polyline clip-path="url(#clip902)" style="stroke:#000000; stroke-linecap:round; stroke-linejoin:round; stroke-width:2; stroke-opacity:0.1; fill:none" points="541.056,1486.45 541.056,106.192 "/>
<polyline clip-path="url(#clip902)" style="stroke:#000000; stroke-linecap:round; stroke-linejoin:round; stroke-width:2; stroke-opacity:0.1; fill:none" points="916.408,1486.45 916.408,106.192 "/>
<polyline clip-path="url(#clip902)" style="stroke:#000000; stroke-linecap:round; stroke-linejoin:round; stroke-width:2; stroke-opacity:0.1; fill:none" points="1291.76,1486.45 1291.76,106.192 "/>
<polyline clip-path="url(#clip902)" style="stroke:#000000; stroke-linecap:round; stroke-linejoin:round; stroke-width:2; stroke-opacity:0.1; fill:none" points="1667.11,1486.45 1667.11,106.192 "/>
<polyline clip-path="url(#clip902)" style="stroke:#000000; stroke-linecap:round; stroke-linejoin:round; stroke-width:2; stroke-opacity:0.1; fill:none" points="2042.46,1486.45 2042.46,106.192 "/>
<polyline clip-path="url(#clip902)" style="stroke:#000000; stroke-linecap:round; stroke-linejoin:round; stroke-width:2; stroke-opacity:0.1; fill:none" points="230.765,1451.75 2352.76,1451.75 "/>
<polyline clip-path="url(#clip902)" style="stroke:#000000; stroke-linecap:round; stroke-linejoin:round; stroke-width:2; stroke-opacity:0.1; fill:none" points="230.765,1227.85 2352.76,1227.85 "/>
<polyline clip-path="url(#clip902)" style="stroke:#000000; stroke-linecap:round; stroke-linejoin:round; stroke-width:2; stroke-opacity:0.1; fill:none" points="230.765,1003.95 2352.76,1003.95 "/>
<polyline clip-path="url(#clip902)" style="stroke:#000000; stroke-linecap:round; stroke-linejoin:round; stroke-width:2; stroke-opacity:0.1; fill:none" points="230.765,780.048 2352.76,780.048 "/>
<polyline clip-path="url(#clip902)" style="stroke:#000000; stroke-linecap:round; stroke-linejoin:round; stroke-width:2; stroke-opacity:0.1; fill:none" points="230.765,556.148 2352.76,556.148 "/>
<polyline clip-path="url(#clip902)" style="stroke:#000000; stroke-linecap:round; stroke-linejoin:round; stroke-width:2; stroke-opacity:0.1; fill:none" points="230.765,332.248 2352.76,332.248 "/>
<polyline clip-path="url(#clip902)" style="stroke:#000000; stroke-linecap:round; stroke-linejoin:round; stroke-width:2; stroke-opacity:0.1; fill:none" points="230.765,108.349 2352.76,108.349 "/>
<polyline clip-path="url(#clip900)" style="stroke:#000000; stroke-linecap:round; stroke-linejoin:round; stroke-width:4; stroke-opacity:1; fill:none" points="230.765,1486.45 2352.76,1486.45 "/>
<polyline clip-path="url(#clip900)" style="stroke:#000000; stroke-linecap:round; stroke-linejoin:round; stroke-width:4; stroke-opacity:1; fill:none" points="541.056,1486.45 541.056,1467.55 "/>
<polyline clip-path="url(#clip900)" style="stroke:#000000; stroke-linecap:round; stroke-linejoin:round; stroke-width:4; stroke-opacity:1; fill:none" points="916.408,1486.45 916.408,1467.55 "/>
<polyline clip-path="url(#clip900)" style="stroke:#000000; stroke-linecap:round; stroke-linejoin:round; stroke-width:4; stroke-opacity:1; fill:none" points="1291.76,1486.45 1291.76,1467.55 "/>
<polyline clip-path="url(#clip900)" style="stroke:#000000; stroke-linecap:round; stroke-linejoin:round; stroke-width:4; stroke-opacity:1; fill:none" points="1667.11,1486.45 1667.11,1467.55 "/>
<polyline clip-path="url(#clip900)" style="stroke:#000000; stroke-linecap:round; stroke-linejoin:round; stroke-width:4; stroke-opacity:1; fill:none" points="2042.46,1486.45 2042.46,1467.55 "/>
<path clip-path="url(#clip900)" d="M545.303 1530.21 Q548.66 1530.93 550.535 1533.2 Q552.433 1535.47 552.433 1538.8 Q552.433 1543.92 548.914 1546.72 Q545.396 1549.52 538.915 1549.52 Q536.739 1549.52 534.424 1549.08 Q532.132 1548.66 529.678 1547.81 L529.678 1543.29 Q531.623 1544.43 533.938 1545.01 Q536.252 1545.58 538.776 1545.58 Q543.174 1545.58 545.465 1543.85 Q547.78 1542.11 547.78 1538.8 Q547.78 1535.75 545.627 1534.03 Q543.498 1532.3 539.678 1532.3 L535.651 1532.3 L535.651 1528.45 L539.864 1528.45 Q543.313 1528.45 545.141 1527.09 Q546.97 1525.7 546.97 1523.11 Q546.97 1520.45 545.072 1519.03 Q543.197 1517.6 539.678 1517.6 Q537.757 1517.6 535.558 1518.01 Q533.359 1518.43 530.72 1519.31 L530.72 1515.14 Q533.382 1514.4 535.697 1514.03 Q538.035 1513.66 540.095 1513.66 Q545.419 1513.66 548.521 1516.09 Q551.623 1518.5 551.623 1522.62 Q551.623 1525.49 549.979 1527.48 Q548.336 1529.45 545.303 1530.21 Z" fill="#000000" fill-rule="nonzero" fill-opacity="1" /><path clip-path="url(#clip900)" d="M916.813 1529.7 Q913.665 1529.7 911.813 1531.86 Q909.984 1534.01 909.984 1537.76 Q909.984 1541.49 911.813 1543.66 Q913.665 1545.82 916.813 1545.82 Q919.961 1545.82 921.79 1543.66 Q923.642 1541.49 923.642 1537.76 Q923.642 1534.01 921.79 1531.86 Q919.961 1529.7 916.813 1529.7 M926.095 1515.05 L926.095 1519.31 Q924.336 1518.48 922.531 1518.04 Q920.748 1517.6 918.989 1517.6 Q914.359 1517.6 911.906 1520.72 Q909.475 1523.85 909.128 1530.17 Q910.494 1528.15 912.554 1527.09 Q914.614 1526 917.091 1526 Q922.299 1526 925.308 1529.17 Q928.341 1532.32 928.341 1537.76 Q928.341 1543.08 925.193 1546.3 Q922.044 1549.52 916.813 1549.52 Q910.818 1549.52 907.646 1544.94 Q904.475 1540.33 904.475 1531.6 Q904.475 1523.41 908.364 1518.55 Q912.253 1513.66 918.804 1513.66 Q920.563 1513.66 922.345 1514.01 Q924.151 1514.36 926.095 1515.05 Z" fill="#000000" fill-rule="nonzero" fill-opacity="1" /><path clip-path="url(#clip900)" d="M1282.06 1548.13 L1282.06 1543.87 Q1283.82 1544.7 1285.63 1545.14 Q1287.43 1545.58 1289.17 1545.58 Q1293.8 1545.58 1296.23 1542.48 Q1298.68 1539.36 1299.03 1533.01 Q1297.69 1535.01 1295.63 1536.07 Q1293.57 1537.13 1291.07 1537.13 Q1285.88 1537.13 1282.85 1534.01 Q1279.84 1530.86 1279.84 1525.42 Q1279.84 1520.1 1282.99 1516.88 Q1286.14 1513.66 1291.37 1513.66 Q1297.36 1513.66 1300.51 1518.27 Q1303.68 1522.85 1303.68 1531.6 Q1303.68 1539.77 1299.79 1544.66 Q1295.93 1549.52 1289.38 1549.52 Q1287.62 1549.52 1285.81 1549.17 Q1284.01 1548.82 1282.06 1548.13 M1291.37 1533.48 Q1294.51 1533.48 1296.34 1531.32 Q1298.2 1529.17 1298.2 1525.42 Q1298.2 1521.7 1296.34 1519.54 Q1294.51 1517.37 1291.37 1517.37 Q1288.22 1517.37 1286.37 1519.54 Q1284.54 1521.7 1284.54 1525.42 Q1284.54 1529.17 1286.37 1531.32 Q1288.22 1533.48 1291.37 1533.48 Z" fill="#000000" fill-rule="nonzero" fill-opacity="1" /><path clip-path="url(#clip900)" d="M1642.6 1544.91 L1650.24 1544.91 L1650.24 1518.55 L1641.93 1520.21 L1641.93 1515.95 L1650.19 1514.29 L1654.87 1514.29 L1654.87 1544.91 L1662.51 1544.91 L1662.51 1548.85 L1642.6 1548.85 L1642.6 1544.91 Z" fill="#000000" fill-rule="nonzero" fill-opacity="1" /><path clip-path="url(#clip900)" d="M1675.98 1544.91 L1692.3 1544.91 L1692.3 1548.85 L1670.35 1548.85 L1670.35 1544.91 Q1673.02 1542.16 1677.6 1537.53 Q1682.2 1532.88 1683.39 1531.53 Q1685.63 1529.01 1686.51 1527.27 Q1687.41 1525.51 1687.41 1523.82 Q1687.41 1521.07 1685.47 1519.33 Q1683.55 1517.6 1680.45 1517.6 Q1678.25 1517.6 1675.79 1518.36 Q1673.36 1519.13 1670.58 1520.68 L1670.58 1515.95 Q1673.41 1514.82 1675.86 1514.24 Q1678.32 1513.66 1680.35 1513.66 Q1685.72 1513.66 1688.92 1516.35 Q1692.11 1519.03 1692.11 1523.52 Q1692.11 1525.65 1691.3 1527.57 Q1690.52 1529.47 1688.41 1532.07 Q1687.83 1532.74 1684.73 1535.95 Q1681.63 1539.15 1675.98 1544.91 Z" fill="#000000" fill-rule="nonzero" fill-opacity="1" /><path clip-path="url(#clip900)" d="M2017.65 1544.91 L2025.29 1544.91 L2025.29 1518.55 L2016.98 1520.21 L2016.98 1515.95 L2025.24 1514.29 L2029.92 1514.29 L2029.92 1544.91 L2037.56 1544.91 L2037.56 1548.85 L2017.65 1548.85 L2017.65 1544.91 Z" fill="#000000" fill-rule="nonzero" fill-opacity="1" /><path clip-path="url(#clip900)" d="M2047.05 1514.29 L2065.4 1514.29 L2065.4 1518.22 L2051.33 1518.22 L2051.33 1526.7 Q2052.35 1526.35 2053.37 1526.19 Q2054.39 1526 2055.4 1526 Q2061.19 1526 2064.57 1529.17 Q2067.95 1532.34 2067.95 1537.76 Q2067.95 1543.34 2064.48 1546.44 Q2061.01 1549.52 2054.69 1549.52 Q2052.51 1549.52 2050.24 1549.15 Q2048 1548.78 2045.59 1548.04 L2045.59 1543.34 Q2047.67 1544.47 2049.9 1545.03 Q2052.12 1545.58 2054.59 1545.58 Q2058.6 1545.58 2060.94 1543.48 Q2063.27 1541.37 2063.27 1537.76 Q2063.27 1534.15 2060.94 1532.04 Q2058.6 1529.94 2054.59 1529.94 Q2052.72 1529.94 2050.84 1530.35 Q2048.99 1530.77 2047.05 1531.65 L2047.05 1514.29 Z" fill="#000000" fill-rule="nonzero" fill-opacity="1" /><polyline clip-path="url(#clip900)" style="stroke:#000000; stroke-linecap:round; stroke-linejoin:round; stroke-width:4; stroke-opacity:1; fill:none" points="230.765,1486.45 230.765,106.192 "/>
<polyline clip-path="url(#clip900)" style="stroke:#000000; stroke-linecap:round; stroke-linejoin:round; stroke-width:4; stroke-opacity:1; fill:none" points="230.765,1451.75 249.662,1451.75 "/>
<polyline clip-path="url(#clip900)" style="stroke:#000000; stroke-linecap:round; stroke-linejoin:round; stroke-width:4; stroke-opacity:1; fill:none" points="230.765,1227.85 249.662,1227.85 "/>
<polyline clip-path="url(#clip900)" style="stroke:#000000; stroke-linecap:round; stroke-linejoin:round; stroke-width:4; stroke-opacity:1; fill:none" points="230.765,1003.95 249.662,1003.95 "/>
<polyline clip-path="url(#clip900)" style="stroke:#000000; stroke-linecap:round; stroke-linejoin:round; stroke-width:4; stroke-opacity:1; fill:none" points="230.765,780.048 249.662,780.048 "/>
<polyline clip-path="url(#clip900)" style="stroke:#000000; stroke-linecap:round; stroke-linejoin:round; stroke-width:4; stroke-opacity:1; fill:none" points="230.765,556.148 249.662,556.148 "/>
<polyline clip-path="url(#clip900)" style="stroke:#000000; stroke-linecap:round; stroke-linejoin:round; stroke-width:4; stroke-opacity:1; fill:none" points="230.765,332.248 249.662,332.248 "/>
<polyline clip-path="url(#clip900)" style="stroke:#000000; stroke-linecap:round; stroke-linejoin:round; stroke-width:4; stroke-opacity:1; fill:none" points="230.765,108.349 249.662,108.349 "/>
<path clip-path="url(#clip900)" d="M50.9921 1434.47 L73.2142 1434.47 L73.2142 1436.46 L60.668 1469.03 L55.7838 1469.03 L67.5893 1438.4 L50.9921 1438.4 L50.9921 1434.47 Z" fill="#000000" fill-rule="nonzero" fill-opacity="1" /><path clip-path="url(#clip900)" d="M86.3623 1465.09 L102.682 1465.09 L102.682 1469.03 L80.7373 1469.03 L80.7373 1465.09 Q83.3994 1462.34 87.9827 1457.71 Q92.5891 1453.05 93.7697 1451.71 Q96.015 1449.19 96.8947 1447.45 Q97.7974 1445.69 97.7974 1444 Q97.7974 1441.25 95.853 1439.51 Q93.9317 1437.78 90.8299 1437.78 Q88.6308 1437.78 86.1771 1438.54 Q83.7466 1439.31 80.9688 1440.86 L80.9688 1436.13 Q83.7929 1435 86.2466 1434.42 Q88.7003 1433.84 90.7373 1433.84 Q96.1076 1433.84 99.3021 1436.53 Q102.496 1439.21 102.496 1443.7 Q102.496 1445.83 101.686 1447.75 Q100.899 1449.65 98.7928 1452.24 Q98.2141 1452.92 95.1123 1456.13 Q92.0104 1459.33 86.3623 1465.09 Z" fill="#000000" fill-rule="nonzero" fill-opacity="1" /><path clip-path="url(#clip900)" d="M122.496 1437.55 Q118.885 1437.55 117.057 1441.11 Q115.251 1444.65 115.251 1451.78 Q115.251 1458.89 117.057 1462.45 Q118.885 1465.99 122.496 1465.99 Q126.131 1465.99 127.936 1462.45 Q129.765 1458.89 129.765 1451.78 Q129.765 1444.65 127.936 1441.11 Q126.131 1437.55 122.496 1437.55 M122.496 1433.84 Q128.307 1433.84 131.362 1438.45 Q134.441 1443.03 134.441 1451.78 Q134.441 1460.51 131.362 1465.12 Q128.307 1469.7 122.496 1469.7 Q116.686 1469.7 113.608 1465.12 Q110.552 1460.51 110.552 1451.78 Q110.552 1443.03 113.608 1438.45 Q116.686 1433.84 122.496 1433.84 Z" fill="#000000" fill-rule="nonzero" fill-opacity="1" /><path clip-path="url(#clip900)" d="M152.658 1437.55 Q149.047 1437.55 147.218 1441.11 Q145.413 1444.65 145.413 1451.78 Q145.413 1458.89 147.218 1462.45 Q149.047 1465.99 152.658 1465.99 Q156.292 1465.99 158.098 1462.45 Q159.927 1458.89 159.927 1451.78 Q159.927 1444.65 158.098 1441.11 Q156.292 1437.55 152.658 1437.55 M152.658 1433.84 Q158.468 1433.84 161.524 1438.45 Q164.603 1443.03 164.603 1451.78 Q164.603 1460.51 161.524 1465.12 Q158.468 1469.7 152.658 1469.7 Q146.848 1469.7 143.769 1465.12 Q140.714 1460.51 140.714 1451.78 Q140.714 1443.03 143.769 1438.45 Q146.848 1433.84 152.658 1433.84 Z" fill="#000000" fill-rule="nonzero" fill-opacity="1" /><path clip-path="url(#clip900)" d="M182.82 1437.55 Q179.209 1437.55 177.38 1441.11 Q175.575 1444.65 175.575 1451.78 Q175.575 1458.89 177.38 1462.45 Q179.209 1465.99 182.82 1465.99 Q186.454 1465.99 188.26 1462.45 Q190.089 1458.89 190.089 1451.78 Q190.089 1444.65 188.26 1441.11 Q186.454 1437.55 182.82 1437.55 M182.82 1433.84 Q188.63 1433.84 191.686 1438.45 Q194.765 1443.03 194.765 1451.78 Q194.765 1460.51 191.686 1465.12 Q188.63 1469.7 182.82 1469.7 Q177.01 1469.7 173.931 1465.12 Q170.876 1460.51 170.876 1451.78 Q170.876 1443.03 173.931 1438.45 Q177.01 1433.84 182.82 1433.84 Z" fill="#000000" fill-rule="nonzero" fill-opacity="1" /><path clip-path="url(#clip900)" d="M50.9921 1210.57 L73.2142 1210.57 L73.2142 1212.56 L60.668 1245.13 L55.7838 1245.13 L67.5893 1214.5 L50.9921 1214.5 L50.9921 1210.57 Z" fill="#000000" fill-rule="nonzero" fill-opacity="1" /><path clip-path="url(#clip900)" d="M96.5011 1226.49 Q99.8576 1227.21 101.733 1229.48 Q103.631 1231.75 103.631 1235.08 Q103.631 1240.2 100.112 1243 Q96.5937 1245.8 90.1123 1245.8 Q87.9364 1245.8 85.6216 1245.36 Q83.3299 1244.94 80.8762 1244.09 L80.8762 1239.57 Q82.8207 1240.71 85.1355 1241.28 Q87.4503 1241.86 89.9734 1241.86 Q94.3715 1241.86 96.6632 1240.13 Q98.978 1238.39 98.978 1235.08 Q98.978 1232.03 96.8252 1230.31 Q94.6956 1228.58 90.8762 1228.58 L86.8484 1228.58 L86.8484 1224.73 L91.0614 1224.73 Q94.5104 1224.73 96.3391 1223.37 Q98.1678 1221.98 98.1678 1219.39 Q98.1678 1216.72 96.2697 1215.31 Q94.3947 1213.88 90.8762 1213.88 Q88.9549 1213.88 86.7558 1214.29 Q84.5568 1214.71 81.9179 1215.59 L81.9179 1211.42 Q84.5799 1210.68 86.8947 1210.31 Q89.2327 1209.94 91.2928 1209.94 Q96.6169 1209.94 99.7187 1212.37 Q102.821 1214.78 102.821 1218.9 Q102.821 1221.77 101.177 1223.76 Q99.5335 1225.73 96.5011 1226.49 Z" fill="#000000" fill-rule="nonzero" fill-opacity="1" /><path clip-path="url(#clip900)" d="M122.496 1213.65 Q118.885 1213.65 117.057 1217.21 Q115.251 1220.75 115.251 1227.88 Q115.251 1234.99 117.057 1238.55 Q118.885 1242.09 122.496 1242.09 Q126.131 1242.09 127.936 1238.55 Q129.765 1234.99 129.765 1227.88 Q129.765 1220.75 127.936 1217.21 Q126.131 1213.65 122.496 1213.65 M122.496 1209.94 Q128.307 1209.94 131.362 1214.55 Q134.441 1219.13 134.441 1227.88 Q134.441 1236.61 131.362 1241.22 Q128.307 1245.8 122.496 1245.8 Q116.686 1245.8 113.608 1241.22 Q110.552 1236.61 110.552 1227.88 Q110.552 1219.13 113.608 1214.55 Q116.686 1209.94 122.496 1209.94 Z" fill="#000000" fill-rule="nonzero" fill-opacity="1" /><path clip-path="url(#clip900)" d="M152.658 1213.65 Q149.047 1213.65 147.218 1217.21 Q145.413 1220.75 145.413 1227.88 Q145.413 1234.99 147.218 1238.55 Q149.047 1242.09 152.658 1242.09 Q156.292 1242.09 158.098 1238.55 Q159.927 1234.99 159.927 1227.88 Q159.927 1220.75 158.098 1217.21 Q156.292 1213.65 152.658 1213.65 M152.658 1209.94 Q158.468 1209.94 161.524 1214.55 Q164.603 1219.13 164.603 1227.88 Q164.603 1236.61 161.524 1241.22 Q158.468 1245.8 152.658 1245.8 Q146.848 1245.8 143.769 1241.22 Q140.714 1236.61 140.714 1227.88 Q140.714 1219.13 143.769 1214.55 Q146.848 1209.94 152.658 1209.94 Z" fill="#000000" fill-rule="nonzero" fill-opacity="1" /><path clip-path="url(#clip900)" d="M182.82 1213.65 Q179.209 1213.65 177.38 1217.21 Q175.575 1220.75 175.575 1227.88 Q175.575 1234.99 177.38 1238.55 Q179.209 1242.09 182.82 1242.09 Q186.454 1242.09 188.26 1238.55 Q190.089 1234.99 190.089 1227.88 Q190.089 1220.75 188.26 1217.21 Q186.454 1213.65 182.82 1213.65 M182.82 1209.94 Q188.63 1209.94 191.686 1214.55 Q194.765 1219.13 194.765 1227.88 Q194.765 1236.61 191.686 1241.22 Q188.63 1245.8 182.82 1245.8 Q177.01 1245.8 173.931 1241.22 Q170.876 1236.61 170.876 1227.88 Q170.876 1219.13 173.931 1214.55 Q177.01 1209.94 182.82 1209.94 Z" fill="#000000" fill-rule="nonzero" fill-opacity="1" /><path clip-path="url(#clip900)" d="M50.9921 986.668 L73.2142 986.668 L73.2142 988.658 L60.668 1021.23 L55.7838 1021.23 L67.5893 990.603 L50.9921 990.603 L50.9921 986.668 Z" fill="#000000" fill-rule="nonzero" fill-opacity="1" /><path clip-path="url(#clip900)" d="M95.1817 990.742 L83.3762 1009.19 L95.1817 1009.19 L95.1817 990.742 M93.9549 986.668 L99.8345 986.668 L99.8345 1009.19 L104.765 1009.19 L104.765 1013.08 L99.8345 1013.08 L99.8345 1021.23 L95.1817 1021.23 L95.1817 1013.08 L79.5799 1013.08 L79.5799 1008.57 L93.9549 986.668 Z" fill="#000000" fill-rule="nonzero" fill-opacity="1" /><path clip-path="url(#clip900)" d="M122.496 989.746 Q118.885 989.746 117.057 993.311 Q115.251 996.853 115.251 1003.98 Q115.251 1011.09 117.057 1014.65 Q118.885 1018.2 122.496 1018.2 Q126.131 1018.2 127.936 1014.65 Q129.765 1011.09 129.765 1003.98 Q129.765 996.853 127.936 993.311 Q126.131 989.746 122.496 989.746 M122.496 986.043 Q128.307 986.043 131.362 990.649 Q134.441 995.232 134.441 1003.98 Q134.441 1012.71 131.362 1017.32 Q128.307 1021.9 122.496 1021.9 Q116.686 1021.9 113.608 1017.32 Q110.552 1012.71 110.552 1003.98 Q110.552 995.232 113.608 990.649 Q116.686 986.043 122.496 986.043 Z" fill="#000000" fill-rule="nonzero" fill-opacity="1" /><path clip-path="url(#clip900)" d="M152.658 989.746 Q149.047 989.746 147.218 993.311 Q145.413 996.853 145.413 1003.98 Q145.413 1011.09 147.218 1014.65 Q149.047 1018.2 152.658 1018.2 Q156.292 1018.2 158.098 1014.65 Q159.927 1011.09 159.927 1003.98 Q159.927 996.853 158.098 993.311 Q156.292 989.746 152.658 989.746 M152.658 986.043 Q158.468 986.043 161.524 990.649 Q164.603 995.232 164.603 1003.98 Q164.603 1012.71 161.524 1017.32 Q158.468 1021.9 152.658 1021.9 Q146.848 1021.9 143.769 1017.32 Q140.714 1012.71 140.714 1003.98 Q140.714 995.232 143.769 990.649 Q146.848 986.043 152.658 986.043 Z" fill="#000000" fill-rule="nonzero" fill-opacity="1" /><path clip-path="url(#clip900)" d="M182.82 989.746 Q179.209 989.746 177.38 993.311 Q175.575 996.853 175.575 1003.98 Q175.575 1011.09 177.38 1014.65 Q179.209 1018.2 182.82 1018.2 Q186.454 1018.2 188.26 1014.65 Q190.089 1011.09 190.089 1003.98 Q190.089 996.853 188.26 993.311 Q186.454 989.746 182.82 989.746 M182.82 986.043 Q188.63 986.043 191.686 990.649 Q194.765 995.232 194.765 1003.98 Q194.765 1012.71 191.686 1017.32 Q188.63 1021.9 182.82 1021.9 Q177.01 1021.9 173.931 1017.32 Q170.876 1012.71 170.876 1003.98 Q170.876 995.232 173.931 990.649 Q177.01 986.043 182.82 986.043 Z" fill="#000000" fill-rule="nonzero" fill-opacity="1" /><path clip-path="url(#clip900)" d="M50.9921 762.768 L73.2142 762.768 L73.2142 764.759 L60.668 797.328 L55.7838 797.328 L67.5893 766.703 L50.9921 766.703 L50.9921 762.768 Z" fill="#000000" fill-rule="nonzero" fill-opacity="1" /><path clip-path="url(#clip900)" d="M82.3808 762.768 L100.737 762.768 L100.737 766.703 L86.6632 766.703 L86.6632 775.175 Q87.6817 774.828 88.7003 774.666 Q89.7188 774.481 90.7373 774.481 Q96.5243 774.481 99.9039 777.652 Q103.284 780.823 103.284 786.24 Q103.284 791.819 99.8113 794.92 Q96.3391 797.999 90.0197 797.999 Q87.8438 797.999 85.5753 797.629 Q83.3299 797.258 80.9225 796.518 L80.9225 791.819 Q83.0058 792.953 85.2281 793.508 Q87.4503 794.064 89.9271 794.064 Q93.9317 794.064 96.2697 791.957 Q98.6076 789.851 98.6076 786.24 Q98.6076 782.629 96.2697 780.522 Q93.9317 778.416 89.9271 778.416 Q88.0521 778.416 86.1771 778.833 Q84.3253 779.249 82.3808 780.129 L82.3808 762.768 Z" fill="#000000" fill-rule="nonzero" fill-opacity="1" /><path clip-path="url(#clip900)" d="M122.496 765.847 Q118.885 765.847 117.057 769.411 Q115.251 772.953 115.251 780.083 Q115.251 787.189 117.057 790.754 Q118.885 794.295 122.496 794.295 Q126.131 794.295 127.936 790.754 Q129.765 787.189 129.765 780.083 Q129.765 772.953 127.936 769.411 Q126.131 765.847 122.496 765.847 M122.496 762.143 Q128.307 762.143 131.362 766.749 Q134.441 771.333 134.441 780.083 Q134.441 788.809 131.362 793.416 Q128.307 797.999 122.496 797.999 Q116.686 797.999 113.608 793.416 Q110.552 788.809 110.552 780.083 Q110.552 771.333 113.608 766.749 Q116.686 762.143 122.496 762.143 Z" fill="#000000" fill-rule="nonzero" fill-opacity="1" /><path clip-path="url(#clip900)" d="M152.658 765.847 Q149.047 765.847 147.218 769.411 Q145.413 772.953 145.413 780.083 Q145.413 787.189 147.218 790.754 Q149.047 794.295 152.658 794.295 Q156.292 794.295 158.098 790.754 Q159.927 787.189 159.927 780.083 Q159.927 772.953 158.098 769.411 Q156.292 765.847 152.658 765.847 M152.658 762.143 Q158.468 762.143 161.524 766.749 Q164.603 771.333 164.603 780.083 Q164.603 788.809 161.524 793.416 Q158.468 797.999 152.658 797.999 Q146.848 797.999 143.769 793.416 Q140.714 788.809 140.714 780.083 Q140.714 771.333 143.769 766.749 Q146.848 762.143 152.658 762.143 Z" fill="#000000" fill-rule="nonzero" fill-opacity="1" /><path clip-path="url(#clip900)" d="M182.82 765.847 Q179.209 765.847 177.38 769.411 Q175.575 772.953 175.575 780.083 Q175.575 787.189 177.38 790.754 Q179.209 794.295 182.82 794.295 Q186.454 794.295 188.26 790.754 Q190.089 787.189 190.089 780.083 Q190.089 772.953 188.26 769.411 Q186.454 765.847 182.82 765.847 M182.82 762.143 Q188.63 762.143 191.686 766.749 Q194.765 771.333 194.765 780.083 Q194.765 788.809 191.686 793.416 Q188.63 797.999 182.82 797.999 Q177.01 797.999 173.931 793.416 Q170.876 788.809 170.876 780.083 Q170.876 771.333 173.931 766.749 Q177.01 762.143 182.82 762.143 Z" fill="#000000" fill-rule="nonzero" fill-opacity="1" /><path clip-path="url(#clip900)" d="M50.9921 538.868 L73.2142 538.868 L73.2142 540.859 L60.668 573.428 L55.7838 573.428 L67.5893 542.803 L50.9921 542.803 L50.9921 538.868 Z" fill="#000000" fill-rule="nonzero" fill-opacity="1" /><path clip-path="url(#clip900)" d="M92.9132 554.285 Q89.7651 554.285 87.9132 556.437 Q86.0845 558.59 86.0845 562.34 Q86.0845 566.067 87.9132 568.243 Q89.7651 570.396 92.9132 570.396 Q96.0613 570.396 97.89 568.243 Q99.7419 566.067 99.7419 562.34 Q99.7419 558.59 97.89 556.437 Q96.0613 554.285 92.9132 554.285 M102.196 539.632 L102.196 543.891 Q100.436 543.058 98.6308 542.618 Q96.8484 542.178 95.0891 542.178 Q90.4595 542.178 88.0058 545.303 Q85.5753 548.428 85.2281 554.748 Q86.5938 552.734 88.654 551.669 Q90.7141 550.581 93.191 550.581 Q98.3993 550.581 101.409 553.752 Q104.441 556.9 104.441 562.34 Q104.441 567.664 101.293 570.882 Q98.1447 574.099 92.9132 574.099 Q86.9179 574.099 83.7466 569.516 Q80.5753 564.91 80.5753 556.183 Q80.5753 547.988 84.4642 543.127 Q88.353 538.243 94.9039 538.243 Q96.6632 538.243 98.4456 538.59 Q100.251 538.938 102.196 539.632 Z" fill="#000000" fill-rule="nonzero" fill-opacity="1" /><path clip-path="url(#clip900)" d="M122.496 541.947 Q118.885 541.947 117.057 545.512 Q115.251 549.053 115.251 556.183 Q115.251 563.289 117.057 566.854 Q118.885 570.396 122.496 570.396 Q126.131 570.396 127.936 566.854 Q129.765 563.289 129.765 556.183 Q129.765 549.053 127.936 545.512 Q126.131 541.947 122.496 541.947 M122.496 538.243 Q128.307 538.243 131.362 542.85 Q134.441 547.433 134.441 556.183 Q134.441 564.91 131.362 569.516 Q128.307 574.099 122.496 574.099 Q116.686 574.099 113.608 569.516 Q110.552 564.91 110.552 556.183 Q110.552 547.433 113.608 542.85 Q116.686 538.243 122.496 538.243 Z" fill="#000000" fill-rule="nonzero" fill-opacity="1" /><path clip-path="url(#clip900)" d="M152.658 541.947 Q149.047 541.947 147.218 545.512 Q145.413 549.053 145.413 556.183 Q145.413 563.289 147.218 566.854 Q149.047 570.396 152.658 570.396 Q156.292 570.396 158.098 566.854 Q159.927 563.289 159.927 556.183 Q159.927 549.053 158.098 545.512 Q156.292 541.947 152.658 541.947 M152.658 538.243 Q158.468 538.243 161.524 542.85 Q164.603 547.433 164.603 556.183 Q164.603 564.91 161.524 569.516 Q158.468 574.099 152.658 574.099 Q146.848 574.099 143.769 569.516 Q140.714 564.91 140.714 556.183 Q140.714 547.433 143.769 542.85 Q146.848 538.243 152.658 538.243 Z" fill="#000000" fill-rule="nonzero" fill-opacity="1" /><path clip-path="url(#clip900)" d="M182.82 541.947 Q179.209 541.947 177.38 545.512 Q175.575 549.053 175.575 556.183 Q175.575 563.289 177.38 566.854 Q179.209 570.396 182.82 570.396 Q186.454 570.396 188.26 566.854 Q190.089 563.289 190.089 556.183 Q190.089 549.053 188.26 545.512 Q186.454 541.947 182.82 541.947 M182.82 538.243 Q188.63 538.243 191.686 542.85 Q194.765 547.433 194.765 556.183 Q194.765 564.91 191.686 569.516 Q188.63 574.099 182.82 574.099 Q177.01 574.099 173.931 569.516 Q170.876 564.91 170.876 556.183 Q170.876 547.433 173.931 542.85 Q177.01 538.243 182.82 538.243 Z" fill="#000000" fill-rule="nonzero" fill-opacity="1" /><path clip-path="url(#clip900)" d="M50.9921 314.968 L73.2142 314.968 L73.2142 316.959 L60.668 349.528 L55.7838 349.528 L67.5893 318.903 L50.9921 318.903 L50.9921 314.968 Z" fill="#000000" fill-rule="nonzero" fill-opacity="1" /><path clip-path="url(#clip900)" d="M81.154 314.968 L103.376 314.968 L103.376 316.959 L90.8299 349.528 L85.9456 349.528 L97.7511 318.903 L81.154 318.903 L81.154 314.968 Z" fill="#000000" fill-rule="nonzero" fill-opacity="1" /><path clip-path="url(#clip900)" d="M122.496 318.047 Q118.885 318.047 117.057 321.612 Q115.251 325.153 115.251 332.283 Q115.251 339.389 117.057 342.954 Q118.885 346.496 122.496 346.496 Q126.131 346.496 127.936 342.954 Q129.765 339.389 129.765 332.283 Q129.765 325.153 127.936 321.612 Q126.131 318.047 122.496 318.047 M122.496 314.343 Q128.307 314.343 131.362 318.95 Q134.441 323.533 134.441 332.283 Q134.441 341.01 131.362 345.616 Q128.307 350.2 122.496 350.2 Q116.686 350.2 113.608 345.616 Q110.552 341.01 110.552 332.283 Q110.552 323.533 113.608 318.95 Q116.686 314.343 122.496 314.343 Z" fill="#000000" fill-rule="nonzero" fill-opacity="1" /><path clip-path="url(#clip900)" d="M152.658 318.047 Q149.047 318.047 147.218 321.612 Q145.413 325.153 145.413 332.283 Q145.413 339.389 147.218 342.954 Q149.047 346.496 152.658 346.496 Q156.292 346.496 158.098 342.954 Q159.927 339.389 159.927 332.283 Q159.927 325.153 158.098 321.612 Q156.292 318.047 152.658 318.047 M152.658 314.343 Q158.468 314.343 161.524 318.95 Q164.603 323.533 164.603 332.283 Q164.603 341.01 161.524 345.616 Q158.468 350.2 152.658 350.2 Q146.848 350.2 143.769 345.616 Q140.714 341.01 140.714 332.283 Q140.714 323.533 143.769 318.95 Q146.848 314.343 152.658 314.343 Z" fill="#000000" fill-rule="nonzero" fill-opacity="1" /><path clip-path="url(#clip900)" d="M182.82 318.047 Q179.209 318.047 177.38 321.612 Q175.575 325.153 175.575 332.283 Q175.575 339.389 177.38 342.954 Q179.209 346.496 182.82 346.496 Q186.454 346.496 188.26 342.954 Q190.089 339.389 190.089 332.283 Q190.089 325.153 188.26 321.612 Q186.454 318.047 182.82 318.047 M182.82 314.343 Q188.63 314.343 191.686 318.95 Q194.765 323.533 194.765 332.283 Q194.765 341.01 191.686 345.616 Q188.63 350.2 182.82 350.2 Q177.01 350.2 173.931 345.616 Q170.876 341.01 170.876 332.283 Q170.876 323.533 173.931 318.95 Q177.01 314.343 182.82 314.343 Z" fill="#000000" fill-rule="nonzero" fill-opacity="1" /><path clip-path="url(#clip900)" d="M50.9921 91.0686 L73.2142 91.0686 L73.2142 93.0593 L60.668 125.629 L55.7838 125.629 L67.5893 95.0037 L50.9921 95.0037 L50.9921 91.0686 Z" fill="#000000" fill-rule="nonzero" fill-opacity="1" /><path clip-path="url(#clip900)" d="M92.3345 109.217 Q89.0012 109.217 87.0799 110.999 Q85.1818 112.781 85.1818 115.906 Q85.1818 119.031 87.0799 120.814 Q89.0012 122.596 92.3345 122.596 Q95.6678 122.596 97.5891 120.814 Q99.5104 119.008 99.5104 115.906 Q99.5104 112.781 97.5891 110.999 Q95.691 109.217 92.3345 109.217 M87.6586 107.226 Q84.6494 106.485 82.9595 104.425 Q81.2929 102.365 81.2929 99.4019 Q81.2929 95.2584 84.2327 92.851 Q87.1956 90.4436 92.3345 90.4436 Q97.4965 90.4436 100.436 92.851 Q103.376 95.2584 103.376 99.4019 Q103.376 102.365 101.686 104.425 Q100.02 106.485 97.0335 107.226 Q100.413 108.013 102.288 110.305 Q104.186 112.596 104.186 115.906 Q104.186 120.93 101.108 123.615 Q98.0521 126.3 92.3345 126.3 Q86.6169 126.3 83.5382 123.615 Q80.4827 120.93 80.4827 115.906 Q80.4827 112.596 82.3808 110.305 Q84.279 108.013 87.6586 107.226 M85.9456 99.8417 Q85.9456 102.527 87.6123 104.031 Q89.3021 105.536 92.3345 105.536 Q95.3437 105.536 97.0335 104.031 Q98.7465 102.527 98.7465 99.8417 Q98.7465 97.1565 97.0335 95.6519 Q95.3437 94.1473 92.3345 94.1473 Q89.3021 94.1473 87.6123 95.6519 Q85.9456 97.1565 85.9456 99.8417 Z" fill="#000000" fill-rule="nonzero" fill-opacity="1" /><path clip-path="url(#clip900)" d="M122.496 94.1473 Q118.885 94.1473 117.057 97.7121 Q115.251 101.254 115.251 108.383 Q115.251 115.49 117.057 119.055 Q118.885 122.596 122.496 122.596 Q126.131 122.596 127.936 119.055 Q129.765 115.49 129.765 108.383 Q129.765 101.254 127.936 97.7121 Q126.131 94.1473 122.496 94.1473 M122.496 90.4436 Q128.307 90.4436 131.362 95.05 Q134.441 99.6334 134.441 108.383 Q134.441 117.11 131.362 121.717 Q128.307 126.3 122.496 126.3 Q116.686 126.3 113.608 121.717 Q110.552 117.11 110.552 108.383 Q110.552 99.6334 113.608 95.05 Q116.686 90.4436 122.496 90.4436 Z" fill="#000000" fill-rule="nonzero" fill-opacity="1" /><path clip-path="url(#clip900)" d="M152.658 94.1473 Q149.047 94.1473 147.218 97.7121 Q145.413 101.254 145.413 108.383 Q145.413 115.49 147.218 119.055 Q149.047 122.596 152.658 122.596 Q156.292 122.596 158.098 119.055 Q159.927 115.49 159.927 108.383 Q159.927 101.254 158.098 97.7121 Q156.292 94.1473 152.658 94.1473 M152.658 90.4436 Q158.468 90.4436 161.524 95.05 Q164.603 99.6334 164.603 108.383 Q164.603 117.11 161.524 121.717 Q158.468 126.3 152.658 126.3 Q146.848 126.3 143.769 121.717 Q140.714 117.11 140.714 108.383 Q140.714 99.6334 143.769 95.05 Q146.848 90.4436 152.658 90.4436 Z" fill="#000000" fill-rule="nonzero" fill-opacity="1" /><path clip-path="url(#clip900)" d="M182.82 94.1473 Q179.209 94.1473 177.38 97.7121 Q175.575 101.254 175.575 108.383 Q175.575 115.49 177.38 119.055 Q179.209 122.596 182.82 122.596 Q186.454 122.596 188.26 119.055 Q190.089 115.49 190.089 108.383 Q190.089 101.254 188.26 97.7121 Q186.454 94.1473 182.82 94.1473 M182.82 90.4436 Q188.63 90.4436 191.686 95.05 Q194.765 99.6334 194.765 108.383 Q194.765 117.11 191.686 121.717 Q188.63 126.3 182.82 126.3 Q177.01 126.3 173.931 121.717 Q170.876 117.11 170.876 108.383 Q170.876 99.6334 173.931 95.05 Q177.01 90.4436 182.82 90.4436 Z" fill="#000000" fill-rule="nonzero" fill-opacity="1" /><path clip-path="url(#clip900)" d="M1262.23 35.2602 Q1262.23 29.4732 1259.83 26.2904 Q1257.46 23.1075 1253.15 23.1075 Q1248.86 23.1075 1246.46 26.2904 Q1244.09 29.4732 1244.09 35.2602 Q1244.09 41.0183 1246.46 44.2012 Q1248.86 47.384 1253.15 47.384 Q1257.46 47.384 1259.83 44.2012 Q1262.23 41.0183 1262.23 35.2602 M1267.56 47.818 Q1267.56 56.0934 1263.88 60.1154 Q1260.21 64.1663 1252.63 64.1663 Q1249.82 64.1663 1247.33 63.7323 Q1244.84 63.3272 1242.5 62.4592 L1242.5 57.2798 Q1244.84 58.5529 1247.13 59.1606 Q1249.41 59.7682 1251.79 59.7682 Q1257.02 59.7682 1259.63 57.0194 Q1262.23 54.2995 1262.23 48.7729 L1262.23 46.1398 Q1260.58 49.0044 1258.01 50.4222 Q1255.43 51.84 1251.84 51.84 Q1245.88 51.84 1242.24 47.2972 Q1238.59 42.7544 1238.59 35.2602 Q1238.59 27.7371 1242.24 23.1943 Q1245.88 18.6515 1251.84 18.6515 Q1255.43 18.6515 1258.01 20.0693 Q1260.58 21.4872 1262.23 24.3517 L1262.23 19.4328 L1267.56 19.4328 L1267.56 47.818 Z" fill="#000000" fill-rule="nonzero" fill-opacity="1" /><path clip-path="url(#clip900)" d="M1299.85 24.3517 L1299.85 6.81709 L1305.17 6.81709 L1305.17 51.84 L1299.85 51.84 L1299.85 46.9789 Q1298.17 49.8724 1295.59 51.2902 Q1293.05 52.6791 1289.46 52.6791 Q1283.59 52.6791 1279.88 47.9916 Q1276.21 43.3042 1276.21 35.6653 Q1276.21 28.0265 1279.88 23.339 Q1283.59 18.6515 1289.46 18.6515 Q1293.05 18.6515 1295.59 20.0693 Q1298.17 21.4582 1299.85 24.3517 M1281.71 35.6653 Q1281.71 41.5391 1284.11 44.8956 Q1286.54 48.2231 1290.76 48.2231 Q1294.99 48.2231 1297.42 44.8956 Q1299.85 41.5391 1299.85 35.6653 Q1299.85 29.7915 1297.42 26.464 Q1294.99 23.1075 1290.76 23.1075 Q1286.54 23.1075 1284.11 26.464 Q1281.71 29.7915 1281.71 35.6653 Z" fill="#000000" fill-rule="nonzero" fill-opacity="1" /><path clip-path="url(#clip900)" d="M1321.29 46.9789 L1321.29 64.1663 L1315.94 64.1663 L1315.94 19.4328 L1321.29 19.4328 L1321.29 24.3517 Q1322.97 21.4582 1325.51 20.0693 Q1328.09 18.6515 1331.65 18.6515 Q1337.55 18.6515 1341.22 23.339 Q1344.93 28.0265 1344.93 35.6653 Q1344.93 43.3042 1341.22 47.9916 Q1337.55 52.6791 1331.65 52.6791 Q1328.09 52.6791 1325.51 51.2902 Q1322.97 49.8724 1321.29 46.9789 M1339.4 35.6653 Q1339.4 29.7915 1336.97 26.464 Q1334.57 23.1075 1330.35 23.1075 Q1326.12 23.1075 1323.69 26.464 Q1321.29 29.7915 1321.29 35.6653 Q1321.29 41.5391 1323.69 44.8956 Q1326.12 48.2231 1330.35 48.2231 Q1334.57 48.2231 1336.97 44.8956 Q1339.4 41.5391 1339.4 35.6653 Z" fill="#000000" fill-rule="nonzero" fill-opacity="1" /><polyline clip-path="url(#clip902)" style="stroke:#009af9; stroke-linecap:round; stroke-linejoin:round; stroke-width:4; stroke-opacity:1; fill:none" points="290.821,1357.26 415.938,1447.38 541.056,1257.64 666.173,1240.87 791.291,1130.05 916.408,1205.16 1041.53,1153.29 1166.64,994.171 1291.76,1052.46 1416.88,847.381 1542,971.591 1667.11,933.51 1792.23,682.438 1917.35,460.341 2042.46,455.994 2167.58,226.212 2292.7,145.256 "/>
<path clip-path="url(#clip900)" d="M301.498 255.881 L566.127 255.881 L566.127 152.201 L301.498 152.201  Z" fill="#ffffff" fill-rule="evenodd" fill-opacity="1"/>
<polyline clip-path="url(#clip900)" style="stroke:#000000; stroke-linecap:round; stroke-linejoin:round; stroke-width:4; stroke-opacity:1; fill:none" points="301.498,255.881 566.127,255.881 566.127,152.201 301.498,152.201 301.498,255.881 "/>
<polyline clip-path="url(#clip900)" style="stroke:#009af9; stroke-linecap:round; stroke-linejoin:round; stroke-width:4; stroke-opacity:1; fill:none" points="325.075,204.041 466.541,204.041 "/>
<path clip-path="url(#clip900)" d="M503.962 223.728 Q502.156 228.358 500.443 229.77 Q498.73 231.182 495.86 231.182 L492.457 231.182 L492.457 227.617 L494.957 227.617 Q496.716 227.617 497.688 226.784 Q498.661 225.95 499.841 222.848 L500.605 220.904 L490.119 195.395 L494.633 195.395 L502.735 215.673 L510.836 195.395 L515.35 195.395 L503.962 223.728 Z" fill="#000000" fill-rule="nonzero" fill-opacity="1" /><path clip-path="url(#clip900)" d="M522.642 217.385 L530.281 217.385 L530.281 191.02 L521.971 192.687 L521.971 188.427 L530.235 186.761 L534.91 186.761 L534.91 217.385 L542.549 217.385 L542.549 221.321 L522.642 221.321 L522.642 217.385 Z" fill="#000000" fill-rule="nonzero" fill-opacity="1" /></svg>
