<?xml version="1.0" encoding="utf-8"?>
<svg xmlns="http://www.w3.org/2000/svg" xmlns:xlink="http://www.w3.org/1999/xlink" width="600" height="300" viewBox="0 0 2400 1200">
<defs>
  <clipPath id="clip940">
    <rect x="0" y="0" width="2400" height="1200"/>
  </clipPath>
</defs>
<path clip-path="url(#clip940)" d="M0 1200 L2400 1200 L2400 0 L0 0  Z" fill="#ffffff" fill-rule="evenodd" fill-opacity="1"/>
<defs>
  <clipPath id="clip941">
    <rect x="480" y="0" width="1681" height="1200"/>
  </clipPath>
</defs>
<path clip-path="url(#clip940)" d="M216.436 1099.09 L1168.64 1099.09 L1168.64 92.1521 L216.436 92.1521  Z" fill="#ffffff" fill-rule="evenodd" fill-opacity="1"/>
<defs>
  <clipPath id="clip942">
    <rect x="216" y="92" width="953" height="1008"/>
  </clipPath>
</defs>
<polyline clip-path="url(#clip942)" style="stroke:#000000; stroke-linecap:round; stroke-linejoin:round; stroke-width:2; stroke-opacity:0.1; fill:none" points="423.045,1099.09 423.045,92.1521 "/>
<polyline clip-path="url(#clip942)" style="stroke:#000000; stroke-linecap:round; stroke-linejoin:round; stroke-width:2; stroke-opacity:0.1; fill:none" points="647.621,1099.09 647.621,92.1521 "/>
<polyline clip-path="url(#clip942)" style="stroke:#000000; stroke-linecap:round; stroke-linejoin:round; stroke-width:2; stroke-opacity:0.1; fill:none" points="872.196,1099.09 872.196,92.1521 "/>
<polyline clip-path="url(#clip942)" style="stroke:#000000; stroke-linecap:round; stroke-linejoin:round; stroke-width:2; stroke-opacity:0.1; fill:none" points="1096.77,1099.09 1096.77,92.1521 "/>
<polyline clip-path="url(#clip942)" style="stroke:#000000; stroke-linecap:round; stroke-linejoin:round; stroke-width:2; stroke-opacity:0.1; fill:none" points="216.436,1069.06 1168.64,1069.06 "/>
<polyline clip-path="url(#clip942)" style="stroke:#000000; stroke-linecap:round; stroke-linejoin:round; stroke-width:2; stroke-opacity:0.1; fill:none" points="216.436,831.96 1168.64,831.96 "/>
<polyline clip-path="url(#clip942)" style="stroke:#000000; stroke-linecap:round; stroke-linejoin:round; stroke-width:2; stroke-opacity:0.1; fill:none" points="216.436,594.857 1168.64,594.857 "/>
<polyline clip-path="url(#clip942)" style="stroke:#000000; stroke-linecap:round; stroke-linejoin:round; stroke-width:2; stroke-opacity:0.1; fill:none" points="216.436,357.754 1168.64,357.754 "/>
<polyline clip-path="url(#clip942)" style="stroke:#000000; stroke-linecap:round; stroke-linejoin:round; stroke-width:2; stroke-opacity:0.1; fill:none" points="216.436,120.65 1168.64,120.65 "/>
<polyline clip-path="url(#clip940)" style="stroke:#000000; stroke-linecap:round; stroke-linejoin:round; stroke-width:4; stroke-opacity:1; fill:none" points="216.436,1099.09 1168.64,1099.09 "/>
<polyline clip-path="url(#clip940)" style="stroke:#000000; stroke-linecap:round; stroke-linejoin:round; stroke-width:4; stroke-opacity:1; fill:none" points="423.045,1099.09 423.045,1080.19 "/>
<polyline clip-path="url(#clip940)" style="stroke:#000000; stroke-linecap:round; stroke-linejoin:round; stroke-width:4; stroke-opacity:1; fill:none" points="647.621,1099.09 647.621,1080.19 "/>
<polyline clip-path="url(#clip940)" style="stroke:#000000; stroke-linecap:round; stroke-linejoin:round; stroke-width:4; stroke-opacity:1; fill:none" points="872.196,1099.09 872.196,1080.19 "/>
<polyline clip-path="url(#clip940)" style="stroke:#000000; stroke-linecap:round; stroke-linejoin:round; stroke-width:4; stroke-opacity:1; fill:none" points="1096.77,1099.09 1096.77,1080.19 "/>
<path clip-path="url(#clip940)" d="M413.323 1126.93 L431.679 1126.93 L431.679 1130.86 L417.605 1130.86 L417.605 1139.34 Q418.624 1138.99 419.642 1138.83 Q420.661 1138.64 421.679 1138.64 Q427.466 1138.64 430.846 1141.81 Q434.226 1144.98 434.226 1150.4 Q434.226 1155.98 430.754 1159.08 Q427.281 1162.16 420.962 1162.16 Q418.786 1162.16 416.517 1161.79 Q414.272 1161.42 411.865 1160.68 L411.865 1155.98 Q413.948 1157.11 416.17 1157.67 Q418.392 1158.22 420.869 1158.22 Q424.874 1158.22 427.212 1156.12 Q429.55 1154.01 429.55 1150.4 Q429.55 1146.79 427.212 1144.68 Q424.874 1142.58 420.869 1142.58 Q418.994 1142.58 417.119 1142.99 Q415.267 1143.41 413.323 1144.29 L413.323 1126.93 Z" fill="#000000" fill-rule="nonzero" fill-opacity="1" /><path clip-path="url(#clip940)" d="M622.308 1157.55 L629.947 1157.55 L629.947 1131.19 L621.637 1132.85 L621.637 1128.59 L629.901 1126.93 L634.577 1126.93 L634.577 1157.55 L642.216 1157.55 L642.216 1161.49 L622.308 1161.49 L622.308 1157.55 Z" fill="#000000" fill-rule="nonzero" fill-opacity="1" /><path clip-path="url(#clip940)" d="M661.66 1130.01 Q658.049 1130.01 656.22 1133.57 Q654.415 1137.11 654.415 1144.24 Q654.415 1151.35 656.22 1154.91 Q658.049 1158.46 661.66 1158.46 Q665.294 1158.46 667.1 1154.91 Q668.928 1151.35 668.928 1144.24 Q668.928 1137.11 667.1 1133.57 Q665.294 1130.01 661.66 1130.01 M661.66 1126.3 Q667.47 1126.3 670.526 1130.91 Q673.604 1135.49 673.604 1144.24 Q673.604 1152.97 670.526 1157.58 Q667.47 1162.16 661.66 1162.16 Q655.85 1162.16 652.771 1157.58 Q649.715 1152.97 649.715 1144.24 Q649.715 1135.49 652.771 1130.91 Q655.85 1126.3 661.66 1126.3 Z" fill="#000000" fill-rule="nonzero" fill-opacity="1" /><path clip-path="url(#clip940)" d="M847.381 1157.55 L855.02 1157.55 L855.02 1131.19 L846.71 1132.85 L846.71 1128.59 L854.974 1126.93 L859.65 1126.93 L859.65 1157.55 L867.289 1157.55 L867.289 1161.49 L847.381 1161.49 L847.381 1157.55 Z" fill="#000000" fill-rule="nonzero" fill-opacity="1" /><path clip-path="url(#clip940)" d="M876.779 1126.93 L895.136 1126.93 L895.136 1130.86 L881.062 1130.86 L881.062 1139.34 Q882.08 1138.99 883.099 1138.83 Q884.117 1138.64 885.136 1138.64 Q890.923 1138.64 894.302 1141.81 Q897.682 1144.98 897.682 1150.4 Q897.682 1155.98 894.21 1159.08 Q890.738 1162.16 884.418 1162.16 Q882.242 1162.16 879.974 1161.79 Q877.728 1161.42 875.321 1160.68 L875.321 1155.98 Q877.404 1157.11 879.626 1157.67 Q881.849 1158.22 884.326 1158.22 Q888.33 1158.22 890.668 1156.12 Q893.006 1154.01 893.006 1150.4 Q893.006 1146.79 890.668 1144.68 Q888.33 1142.58 884.326 1142.58 Q882.451 1142.58 880.576 1142.99 Q878.724 1143.41 876.779 1144.29 L876.779 1126.93 Z" fill="#000000" fill-rule="nonzero" fill-opacity="1" /><path clip-path="url(#clip940)" d="M1075.54 1157.55 L1091.86 1157.55 L1091.86 1161.49 L1069.92 1161.49 L1069.92 1157.55 Q1072.58 1154.8 1077.16 1150.17 Q1081.77 1145.52 1082.95 1144.17 Q1085.2 1141.65 1086.08 1139.91 Q1086.98 1138.15 1086.98 1136.46 Q1086.98 1133.71 1085.04 1131.97 Q1083.11 1130.24 1080.01 1130.24 Q1077.81 1130.24 1075.36 1131 Q1072.93 1131.77 1070.15 1133.32 L1070.15 1128.59 Q1072.98 1127.46 1075.43 1126.88 Q1077.88 1126.3 1079.92 1126.3 Q1085.29 1126.3 1088.48 1128.99 Q1091.68 1131.67 1091.68 1136.16 Q1091.68 1138.29 1090.87 1140.21 Q1090.08 1142.11 1087.98 1144.71 Q1087.4 1145.38 1084.29 1148.59 Q1081.19 1151.79 1075.54 1157.55 Z" fill="#000000" fill-rule="nonzero" fill-opacity="1" /><path clip-path="url(#clip940)" d="M1111.68 1130.01 Q1108.07 1130.01 1106.24 1133.57 Q1104.43 1137.11 1104.43 1144.24 Q1104.43 1151.35 1106.24 1154.91 Q1108.07 1158.46 1111.68 1158.46 Q1115.31 1158.46 1117.12 1154.91 Q1118.95 1151.35 1118.95 1144.24 Q1118.95 1137.11 1117.12 1133.57 Q1115.31 1130.01 1111.68 1130.01 M1111.68 1126.3 Q1117.49 1126.3 1120.54 1130.91 Q1123.62 1135.49 1123.62 1144.24 Q1123.62 1152.97 1120.54 1157.58 Q1117.49 1162.16 1111.68 1162.16 Q1105.87 1162.16 1102.79 1157.58 Q1099.73 1152.97 1099.73 1144.24 Q1099.73 1135.49 1102.79 1130.91 Q1105.87 1126.3 1111.68 1126.3 Z" fill="#000000" fill-rule="nonzero" fill-opacity="1" /><polyline clip-path="url(#clip940)" style="stroke:#000000; stroke-linecap:round; stroke-linejoin:round; stroke-width:4; stroke-opacity:1; fill:none" points="216.436,1099.09 216.436,92.1521 "/>
<polyline clip-path="url(#clip940)" style="stroke:#000000; stroke-linecap:round; stroke-linejoin:round; stroke-width:4; stroke-opacity:1; fill:none" points="216.436,1069.06 235.334,1069.06 "/>
<polyline clip-path="url(#clip940)" style="stroke:#000000; stroke-linecap:round; stroke-linejoin:round; stroke-width:4; stroke-opacity:1; fill:none" points="216.436,831.96 235.334,831.96 "/>
<polyline clip-path="url(#clip940)" style="stroke:#000000; stroke-linecap:round; stroke-linejoin:round; stroke-width:4; stroke-opacity:1; fill:none" points="216.436,594.857 235.334,594.857 "/>
<polyline clip-path="url(#clip940)" style="stroke:#000000; stroke-linecap:round; stroke-linejoin:round; stroke-width:4; stroke-opacity:1; fill:none" points="216.436,357.754 235.334,357.754 "/>
<polyline clip-path="url(#clip940)" style="stroke:#000000; stroke-linecap:round; stroke-linejoin:round; stroke-width:4; stroke-opacity:1; fill:none" points="216.436,120.65 235.334,120.65 "/>
<path clip-path="url(#clip940)" d="M62.9365 1054.86 Q59.3254 1054.86 57.4967 1058.43 Q55.6912 1061.97 55.6912 1069.1 Q55.6912 1076.2 57.4967 1079.77 Q59.3254 1083.31 62.9365 1083.31 Q66.5707 1083.31 68.3763 1079.77 Q70.205 1076.2 70.205 1069.1 Q70.205 1061.97 68.3763 1058.43 Q66.5707 1054.86 62.9365 1054.86 M62.9365 1051.16 Q68.7467 1051.16 71.8022 1055.76 Q74.8809 1060.35 74.8809 1069.1 Q74.8809 1077.82 71.8022 1082.43 Q68.7467 1087.01 62.9365 1087.01 Q57.1264 1087.01 54.0477 1082.43 Q50.9921 1077.82 50.9921 1069.1 Q50.9921 1060.35 54.0477 1055.76 Q57.1264 1051.16 62.9365 1051.16 Z" fill="#000000" fill-rule="nonzero" fill-opacity="1" /><path clip-path="url(#clip940)" d="M83.0984 1080.46 L87.9827 1080.46 L87.9827 1086.34 L83.0984 1086.34 L83.0984 1080.46 Z" fill="#000000" fill-rule="nonzero" fill-opacity="1" /><path clip-path="url(#clip940)" d="M108.168 1054.86 Q104.557 1054.86 102.728 1058.43 Q100.922 1061.97 100.922 1069.1 Q100.922 1076.2 102.728 1079.77 Q104.557 1083.31 108.168 1083.31 Q111.802 1083.31 113.608 1079.77 Q115.436 1076.2 115.436 1069.1 Q115.436 1061.97 113.608 1058.43 Q111.802 1054.86 108.168 1054.86 M108.168 1051.16 Q113.978 1051.16 117.033 1055.76 Q120.112 1060.35 120.112 1069.1 Q120.112 1077.82 117.033 1082.43 Q113.978 1087.01 108.168 1087.01 Q102.358 1087.01 99.2789 1082.43 Q96.2234 1077.82 96.2234 1069.1 Q96.2234 1060.35 99.2789 1055.76 Q102.358 1051.16 108.168 1051.16 Z" fill="#000000" fill-rule="nonzero" fill-opacity="1" /><path clip-path="url(#clip940)" d="M138.33 1054.86 Q134.719 1054.86 132.89 1058.43 Q131.084 1061.97 131.084 1069.1 Q131.084 1076.2 132.89 1079.77 Q134.719 1083.31 138.33 1083.31 Q141.964 1083.31 143.769 1079.77 Q145.598 1076.2 145.598 1069.1 Q145.598 1061.97 143.769 1058.43 Q141.964 1054.86 138.33 1054.86 M138.33 1051.16 Q144.14 1051.16 147.195 1055.76 Q150.274 1060.35 150.274 1069.1 Q150.274 1077.82 147.195 1082.43 Q144.14 1087.01 138.33 1087.01 Q132.519 1087.01 129.441 1082.43 Q126.385 1077.82 126.385 1069.1 Q126.385 1060.35 129.441 1055.76 Q132.519 1051.16 138.33 1051.16 Z" fill="#000000" fill-rule="nonzero" fill-opacity="1" /><path clip-path="url(#clip940)" d="M168.491 1054.86 Q164.88 1054.86 163.052 1058.43 Q161.246 1061.97 161.246 1069.1 Q161.246 1076.2 163.052 1079.77 Q164.88 1083.31 168.491 1083.31 Q172.126 1083.31 173.931 1079.77 Q175.76 1076.2 175.76 1069.1 Q175.76 1061.97 173.931 1058.43 Q172.126 1054.86 168.491 1054.86 M168.491 1051.16 Q174.302 1051.16 177.357 1055.76 Q180.436 1060.35 180.436 1069.1 Q180.436 1077.82 177.357 1082.43 Q174.302 1087.01 168.491 1087.01 Q162.681 1087.01 159.603 1082.43 Q156.547 1077.82 156.547 1069.1 Q156.547 1060.35 159.603 1055.76 Q162.681 1051.16 168.491 1051.16 Z" fill="#000000" fill-rule="nonzero" fill-opacity="1" /><path clip-path="url(#clip940)" d="M63.9319 817.759 Q60.3208 817.759 58.4921 821.324 Q56.6865 824.865 56.6865 831.995 Q56.6865 839.101 58.4921 842.666 Q60.3208 846.208 63.9319 846.208 Q67.5661 846.208 69.3717 842.666 Q71.2004 839.101 71.2004 831.995 Q71.2004 824.865 69.3717 821.324 Q67.5661 817.759 63.9319 817.759 M63.9319 814.055 Q69.742 814.055 72.7976 818.662 Q75.8763 823.245 75.8763 831.995 Q75.8763 840.722 72.7976 845.328 Q69.742 849.911 63.9319 849.911 Q58.1217 849.911 55.043 845.328 Q51.9875 840.722 51.9875 831.995 Q51.9875 823.245 55.043 818.662 Q58.1217 814.055 63.9319 814.055 Z" fill="#000000" fill-rule="nonzero" fill-opacity="1" /><path clip-path="url(#clip940)" d="M84.0938 843.36 L88.978 843.36 L88.978 849.24 L84.0938 849.24 L84.0938 843.36 Z" fill="#000000" fill-rule="nonzero" fill-opacity="1" /><path clip-path="url(#clip940)" d="M109.163 817.759 Q105.552 817.759 103.723 821.324 Q101.918 824.865 101.918 831.995 Q101.918 839.101 103.723 842.666 Q105.552 846.208 109.163 846.208 Q112.797 846.208 114.603 842.666 Q116.432 839.101 116.432 831.995 Q116.432 824.865 114.603 821.324 Q112.797 817.759 109.163 817.759 M109.163 814.055 Q114.973 814.055 118.029 818.662 Q121.107 823.245 121.107 831.995 Q121.107 840.722 118.029 845.328 Q114.973 849.911 109.163 849.911 Q103.353 849.911 100.274 845.328 Q97.2187 840.722 97.2187 831.995 Q97.2187 823.245 100.274 818.662 Q103.353 814.055 109.163 814.055 Z" fill="#000000" fill-rule="nonzero" fill-opacity="1" /><path clip-path="url(#clip940)" d="M139.325 817.759 Q135.714 817.759 133.885 821.324 Q132.08 824.865 132.08 831.995 Q132.08 839.101 133.885 842.666 Q135.714 846.208 139.325 846.208 Q142.959 846.208 144.765 842.666 Q146.593 839.101 146.593 831.995 Q146.593 824.865 144.765 821.324 Q142.959 817.759 139.325 817.759 M139.325 814.055 Q145.135 814.055 148.191 818.662 Q151.269 823.245 151.269 831.995 Q151.269 840.722 148.191 845.328 Q145.135 849.911 139.325 849.911 Q133.515 849.911 130.436 845.328 Q127.381 840.722 127.381 831.995 Q127.381 823.245 130.436 818.662 Q133.515 814.055 139.325 814.055 Z" fill="#000000" fill-rule="nonzero" fill-opacity="1" /><path clip-path="url(#clip940)" d="M159.533 814.68 L177.89 814.68 L177.89 818.615 L163.816 818.615 L163.816 827.087 Q164.834 826.74 165.853 826.578 Q166.871 826.393 167.89 826.393 Q173.677 826.393 177.056 829.564 Q180.436 832.736 180.436 838.152 Q180.436 843.731 176.964 846.833 Q173.491 849.911 167.172 849.911 Q164.996 849.911 162.728 849.541 Q160.482 849.171 158.075 848.43 L158.075 843.731 Q160.158 844.865 162.38 845.421 Q164.603 845.976 167.079 845.976 Q171.084 845.976 173.422 843.87 Q175.76 841.763 175.76 838.152 Q175.76 834.541 173.422 832.435 Q171.084 830.328 167.079 830.328 Q165.204 830.328 163.329 830.745 Q161.478 831.161 159.533 832.041 L159.533 814.68 Z" fill="#000000" fill-rule="nonzero" fill-opacity="1" /><path clip-path="url(#clip940)" d="M62.9365 580.656 Q59.3254 580.656 57.4967 584.22 Q55.6912 587.762 55.6912 594.892 Q55.6912 601.998 57.4967 605.563 Q59.3254 609.104 62.9365 609.104 Q66.5707 609.104 68.3763 605.563 Q70.205 601.998 70.205 594.892 Q70.205 587.762 68.3763 584.22 Q66.5707 580.656 62.9365 580.656 M62.9365 576.952 Q68.7467 576.952 71.8022 581.558 Q74.8809 586.142 74.8809 594.892 Q74.8809 603.618 71.8022 608.225 Q68.7467 612.808 62.9365 612.808 Q57.1264 612.808 54.0477 608.225 Q50.9921 603.618 50.9921 594.892 Q50.9921 586.142 54.0477 581.558 Q57.1264 576.952 62.9365 576.952 Z" fill="#000000" fill-rule="nonzero" fill-opacity="1" /><path clip-path="url(#clip940)" d="M83.0984 606.257 L87.9827 606.257 L87.9827 612.137 L83.0984 612.137 L83.0984 606.257 Z" fill="#000000" fill-rule="nonzero" fill-opacity="1" /><path clip-path="url(#clip940)" d="M108.168 580.656 Q104.557 580.656 102.728 584.22 Q100.922 587.762 100.922 594.892 Q100.922 601.998 102.728 605.563 Q104.557 609.104 108.168 609.104 Q111.802 609.104 113.608 605.563 Q115.436 601.998 115.436 594.892 Q115.436 587.762 113.608 584.22 Q111.802 580.656 108.168 580.656 M108.168 576.952 Q113.978 576.952 117.033 581.558 Q120.112 586.142 120.112 594.892 Q120.112 603.618 117.033 608.225 Q113.978 612.808 108.168 612.808 Q102.358 612.808 99.2789 608.225 Q96.2234 603.618 96.2234 594.892 Q96.2234 586.142 99.2789 581.558 Q102.358 576.952 108.168 576.952 Z" fill="#000000" fill-rule="nonzero" fill-opacity="1" /><path clip-path="url(#clip940)" d="M129.14 608.202 L136.779 608.202 L136.779 581.836 L128.469 583.503 L128.469 579.243 L136.732 577.577 L141.408 577.577 L141.408 608.202 L149.047 608.202 L149.047 612.137 L129.14 612.137 L129.14 608.202 Z" fill="#000000" fill-rule="nonzero" fill-opacity="1" /><path clip-path="url(#clip940)" d="M168.491 580.656 Q164.88 580.656 163.052 584.22 Q161.246 587.762 161.246 594.892 Q161.246 601.998 163.052 605.563 Q164.88 609.104 168.491 609.104 Q172.126 609.104 173.931 605.563 Q175.76 601.998 175.76 594.892 Q175.76 587.762 173.931 584.22 Q172.126 580.656 168.491 580.656 M168.491 576.952 Q174.302 576.952 177.357 581.558 Q180.436 586.142 180.436 594.892 Q180.436 603.618 177.357 608.225 Q174.302 612.808 168.491 612.808 Q162.681 612.808 159.603 608.225 Q156.547 603.618 156.547 594.892 Q156.547 586.142 159.603 581.558 Q162.681 576.952 168.491 576.952 Z" fill="#000000" fill-rule="nonzero" fill-opacity="1" /><path clip-path="url(#clip940)" d="M63.9319 343.552 Q60.3208 343.552 58.4921 347.117 Q56.6865 350.659 56.6865 357.788 Q56.6865 364.895 58.4921 368.46 Q60.3208 372.001 63.9319 372.001 Q67.5661 372.001 69.3717 368.46 Q71.2004 364.895 71.2004 357.788 Q71.2004 350.659 69.3717 347.117 Q67.5661 343.552 63.9319 343.552 M63.9319 339.849 Q69.742 339.849 72.7976 344.455 Q75.8763 349.038 75.8763 357.788 Q75.8763 366.515 72.7976 371.122 Q69.742 375.705 63.9319 375.705 Q58.1217 375.705 55.043 371.122 Q51.9875 366.515 51.9875 357.788 Q51.9875 349.038 55.043 344.455 Q58.1217 339.849 63.9319 339.849 Z" fill="#000000" fill-rule="nonzero" fill-opacity="1" /><path clip-path="url(#clip940)" d="M84.0938 369.154 L88.978 369.154 L88.978 375.034 L84.0938 375.034 L84.0938 369.154 Z" fill="#000000" fill-rule="nonzero" fill-opacity="1" /><path clip-path="url(#clip940)" d="M109.163 343.552 Q105.552 343.552 103.723 347.117 Q101.918 350.659 101.918 357.788 Q101.918 364.895 103.723 368.46 Q105.552 372.001 109.163 372.001 Q112.797 372.001 114.603 368.46 Q116.432 364.895 116.432 357.788 Q116.432 350.659 114.603 347.117 Q112.797 343.552 109.163 343.552 M109.163 339.849 Q114.973 339.849 118.029 344.455 Q121.107 349.038 121.107 357.788 Q121.107 366.515 118.029 371.122 Q114.973 375.705 109.163 375.705 Q103.353 375.705 100.274 371.122 Q97.2187 366.515 97.2187 357.788 Q97.2187 349.038 100.274 344.455 Q103.353 339.849 109.163 339.849 Z" fill="#000000" fill-rule="nonzero" fill-opacity="1" /><path clip-path="url(#clip940)" d="M130.135 371.098 L137.774 371.098 L137.774 344.733 L129.464 346.399 L129.464 342.14 L137.728 340.474 L142.404 340.474 L142.404 371.098 L150.043 371.098 L150.043 375.034 L130.135 375.034 L130.135 371.098 Z" fill="#000000" fill-rule="nonzero" fill-opacity="1" /><path clip-path="url(#clip940)" d="M159.533 340.474 L177.89 340.474 L177.89 344.409 L163.816 344.409 L163.816 352.881 Q164.834 352.534 165.853 352.372 Q166.871 352.186 167.89 352.186 Q173.677 352.186 177.056 355.358 Q180.436 358.529 180.436 363.946 Q180.436 369.524 176.964 372.626 Q173.491 375.705 167.172 375.705 Q164.996 375.705 162.728 375.334 Q160.482 374.964 158.075 374.223 L158.075 369.524 Q160.158 370.659 162.38 371.214 Q164.603 371.77 167.079 371.77 Q171.084 371.77 173.422 369.663 Q175.76 367.557 175.76 363.946 Q175.76 360.335 173.422 358.228 Q171.084 356.122 167.079 356.122 Q165.204 356.122 163.329 356.538 Q161.478 356.955 159.533 357.835 L159.533 340.474 Z" fill="#000000" fill-rule="nonzero" fill-opacity="1" /><path clip-path="url(#clip940)" d="M62.9365 106.449 Q59.3254 106.449 57.4967 110.014 Q55.6912 113.555 55.6912 120.685 Q55.6912 127.791 57.4967 131.356 Q59.3254 134.898 62.9365 134.898 Q66.5707 134.898 68.3763 131.356 Q70.205 127.791 70.205 120.685 Q70.205 113.555 68.3763 110.014 Q66.5707 106.449 62.9365 106.449 M62.9365 102.745 Q68.7467 102.745 71.8022 107.352 Q74.8809 111.935 74.8809 120.685 Q74.8809 129.412 71.8022 134.018 Q68.7467 138.602 62.9365 138.602 Q57.1264 138.602 54.0477 134.018 Q50.9921 129.412 50.9921 120.685 Q50.9921 111.935 54.0477 107.352 Q57.1264 102.745 62.9365 102.745 Z" fill="#000000" fill-rule="nonzero" fill-opacity="1" /><path clip-path="url(#clip940)" d="M83.0984 132.051 L87.9827 132.051 L87.9827 137.93 L83.0984 137.93 L83.0984 132.051 Z" fill="#000000" fill-rule="nonzero" fill-opacity="1" /><path clip-path="url(#clip940)" d="M108.168 106.449 Q104.557 106.449 102.728 110.014 Q100.922 113.555 100.922 120.685 Q100.922 127.791 102.728 131.356 Q104.557 134.898 108.168 134.898 Q111.802 134.898 113.608 131.356 Q115.436 127.791 115.436 120.685 Q115.436 113.555 113.608 110.014 Q111.802 106.449 108.168 106.449 M108.168 102.745 Q113.978 102.745 117.033 107.352 Q120.112 111.935 120.112 120.685 Q120.112 129.412 117.033 134.018 Q113.978 138.602 108.168 138.602 Q102.358 138.602 99.2789 134.018 Q96.2234 129.412 96.2234 120.685 Q96.2234 111.935 99.2789 107.352 Q102.358 102.745 108.168 102.745 Z" fill="#000000" fill-rule="nonzero" fill-opacity="1" /><path clip-path="url(#clip940)" d="M132.357 133.995 L148.677 133.995 L148.677 137.93 L126.732 137.93 L126.732 133.995 Q129.394 131.241 133.978 126.611 Q138.584 121.958 139.765 120.616 Q142.01 118.092 142.89 116.356 Q143.793 114.597 143.793 112.907 Q143.793 110.153 141.848 108.417 Q139.927 106.68 136.825 106.68 Q134.626 106.68 132.172 107.444 Q129.742 108.208 126.964 109.759 L126.964 105.037 Q129.788 103.903 132.242 103.324 Q134.695 102.745 136.732 102.745 Q142.103 102.745 145.297 105.43 Q148.492 108.116 148.492 112.606 Q148.492 114.736 147.681 116.657 Q146.894 118.555 144.788 121.148 Q144.209 121.819 141.107 125.037 Q138.006 128.231 132.357 133.995 Z" fill="#000000" fill-rule="nonzero" fill-opacity="1" /><path clip-path="url(#clip940)" d="M168.491 106.449 Q164.88 106.449 163.052 110.014 Q161.246 113.555 161.246 120.685 Q161.246 127.791 163.052 131.356 Q164.88 134.898 168.491 134.898 Q172.126 134.898 173.931 131.356 Q175.76 127.791 175.76 120.685 Q175.76 113.555 173.931 110.014 Q172.126 106.449 168.491 106.449 M168.491 102.745 Q174.302 102.745 177.357 107.352 Q180.436 111.935 180.436 120.685 Q180.436 129.412 177.357 134.018 Q174.302 138.602 168.491 138.602 Q162.681 138.602 159.603 134.018 Q156.547 129.412 156.547 120.685 Q156.547 111.935 159.603 107.352 Q162.681 102.745 168.491 102.745 Z" fill="#000000" fill-rule="nonzero" fill-opacity="1" /><path clip-path="url(#clip940)" d="M625.153 30.8748 L625.153 33.2186 L603.122 33.2186 Q603.435 38.1665 606.091 40.7706 Q608.773 43.3487 613.539 43.3487 Q616.299 43.3487 618.877 42.6716 Q621.481 41.9946 624.033 40.6404 L624.033 45.1716 Q621.455 46.2654 618.747 46.8383 Q616.039 47.4112 613.252 47.4112 Q606.273 47.4112 602.185 43.3487 Q598.122 39.2862 598.122 32.3592 Q598.122 25.1978 601.976 21.0051 Q605.856 16.7864 612.419 16.7864 Q618.304 16.7864 621.716 20.5884 Q625.153 24.3645 625.153 30.8748 M620.362 29.4686 Q620.309 25.5363 618.148 23.1926 Q616.013 20.8488 612.471 20.8488 Q608.461 20.8488 606.039 23.1145 Q603.643 25.3801 603.278 29.4946 L620.362 29.4686 Z" fill="#000000" fill-rule="nonzero" fill-opacity="1" /><path clip-path="url(#clip940)" d="M632.523 35.1456 L632.523 17.4895 L637.315 17.4895 L637.315 34.9634 Q637.315 39.104 638.929 41.1873 Q640.544 43.2446 643.773 43.2446 Q647.653 43.2446 649.893 40.7706 Q652.158 38.2967 652.158 34.0259 L652.158 17.4895 L656.95 17.4895 L656.95 46.656 L652.158 46.656 L652.158 42.1769 Q650.413 44.8331 648.096 46.1352 Q645.804 47.4112 642.757 47.4112 Q637.731 47.4112 635.127 44.2862 Q632.523 41.1612 632.523 35.1456 M644.58 16.7864 L644.58 16.7864 Z" fill="#000000" fill-rule="nonzero" fill-opacity="1" /><path clip-path="url(#clip940)" d="M683.721 21.9686 Q682.913 21.4999 681.95 21.2916 Q681.012 21.0572 679.866 21.0572 Q675.804 21.0572 673.616 23.7134 Q671.455 26.3436 671.455 31.2915 L671.455 46.656 L666.637 46.656 L666.637 17.4895 L671.455 17.4895 L671.455 22.0207 Q672.965 19.3645 675.387 18.0884 Q677.809 16.7864 681.273 16.7864 Q681.767 16.7864 682.366 16.8645 Q682.965 16.9166 683.695 17.0468 L683.721 21.9686 Z" fill="#000000" fill-rule="nonzero" fill-opacity="1" /><path clip-path="url(#clip940)" d="M688.747 17.4895 L693.538 17.4895 L693.538 46.656 L688.747 46.656 L688.747 17.4895 M688.747 6.13538 L693.538 6.13538 L693.538 12.2031 L688.747 12.2031 L688.747 6.13538 Z" fill="#000000" fill-rule="nonzero" fill-opacity="1" /><path clip-path="url(#clip940)" d="M724.502 32.0988 Q724.502 26.8124 722.314 23.8176 Q720.153 20.7968 716.351 20.7968 Q712.549 20.7968 710.361 23.8176 Q708.2 26.8124 708.2 32.0988 Q708.2 37.3852 710.361 40.406 Q712.549 43.4008 716.351 43.4008 Q720.153 43.4008 722.314 40.406 Q724.502 37.3852 724.502 32.0988 M708.2 21.9165 Q709.71 19.3124 712.002 18.0624 Q714.319 16.7864 717.523 16.7864 Q722.835 16.7864 726.142 21.0051 Q729.476 25.2238 729.476 32.0988 Q729.476 38.9737 726.142 43.1925 Q722.835 47.4112 717.523 47.4112 Q714.319 47.4112 712.002 46.1612 Q709.71 44.8852 708.2 42.281 L708.2 46.656 L703.382 46.656 L703.382 6.13538 L708.2 6.13538 L708.2 21.9165 Z" fill="#000000" fill-rule="nonzero" fill-opacity="1" /><path clip-path="url(#clip940)" d="M748.72 20.8488 Q744.866 20.8488 742.627 23.8697 Q740.387 26.8644 740.387 32.0988 Q740.387 37.3331 742.6 40.354 Q744.84 43.3487 748.72 43.3487 Q752.548 43.3487 754.788 40.3279 Q757.028 37.3071 757.028 32.0988 Q757.028 26.9165 754.788 23.8957 Q752.548 20.8488 748.72 20.8488 M748.72 16.7864 Q754.97 16.7864 758.538 20.8488 Q762.106 24.9113 762.106 32.0988 Q762.106 39.2602 758.538 43.3487 Q754.97 47.4112 748.72 47.4112 Q742.444 47.4112 738.877 43.3487 Q735.335 39.2602 735.335 32.0988 Q735.335 24.9113 738.877 20.8488 Q742.444 16.7864 748.72 16.7864 Z" fill="#000000" fill-rule="nonzero" fill-opacity="1" /><path clip-path="url(#clip940)" d="M786.949 21.9686 Q786.142 21.4999 785.178 21.2916 Q784.241 21.0572 783.095 21.0572 Q779.033 21.0572 776.845 23.7134 Q774.684 26.3436 774.684 31.2915 L774.684 46.656 L769.866 46.656 L769.866 17.4895 L774.684 17.4895 L774.684 22.0207 Q776.194 19.3645 778.616 18.0884 Q781.038 16.7864 784.501 16.7864 Q784.996 16.7864 785.595 16.8645 Q786.194 16.9166 786.923 17.0468 L786.949 21.9686 Z" fill="#000000" fill-rule="nonzero" fill-opacity="1" /><path clip-path="url(#clip942)" d="M243.385 991.012 L288.3 1067.29 L333.215 1070.59 L378.13 1024.11 L423.045 1009.38 L467.96 1008.54 L512.875 1024.78 L557.79 992.766 L602.706 955.865 L647.621 920.412 L692.536 937.422 L737.451 930.72 L782.366 963.313 L827.281 976.798 L872.196 952.574 L917.111 960.895 L962.026 975.069 L1006.94 984.088 L1051.86 1006.22 L1096.77 1000.19 L1141.69 938.743 L1141.69 820.107 L1096.77 808.368 L1051.86 844.77 L1006.94 841.345 L962.026 840.51 L917.111 845.904 L872.196 841.16 L827.281 871.113 L782.366 894.066 L737.451 870.551 L692.536 885.528 L647.621 898.924 L602.706 885.79 L557.79 882.104 L512.875 850.854 L467.96 837.992 L423.045 844.574 L378.13 898.798 L333.215 931.506 L288.3 962.196 L243.385 991.012  Z" fill="#009af9" fill-rule="evenodd" fill-opacity="0.1"/>
<polyline clip-path="url(#clip942)" style="stroke:#009af9; stroke-linecap:round; stroke-linejoin:round; stroke-width:4; stroke-opacity:1; fill:none" points="243.385,991.012 288.3,1014.74 333.215,1001.05 378.13,961.455 423.045,926.979 467.96,923.266 512.875,937.817 557.79,937.435 602.706,920.828 647.621,909.668 692.536,911.475 737.451,900.635 782.366,928.69 827.281,923.955 872.196,896.867 917.111,903.4 962.026,907.79 1006.94,912.717 1051.86,925.494 1096.77,904.28 1141.69,879.425 "/>
<path clip-path="url(#clip942)" d="M243.385 991.012 L288.3 120.65 L333.215 120.65 L378.13 120.65 L423.045 120.65 L467.96 120.65 L512.875 120.65 L557.79 120.65 L602.706 120.65 L647.621 120.65 L692.536 120.65 L737.451 120.65 L782.366 120.65 L827.281 120.65 L872.196 120.65 L917.111 120.65 L962.026 120.65 L1006.94 120.65 L1051.86 120.65 L1096.77 120.65 L1141.69 120.65 L1141.69 120.65 L1096.77 120.65 L1051.86 120.65 L1006.94 120.65 L962.026 120.65 L917.111 120.65 L872.196 120.65 L827.281 120.65 L782.366 120.65 L737.451 120.65 L692.536 120.65 L647.621 120.65 L602.706 120.65 L557.79 120.65 L512.875 120.65 L467.96 120.65 L423.045 120.65 L378.13 120.65 L333.215 120.65 L288.3 120.65 L243.385 991.012  Z" fill="#e26f46" fill-rule="evenodd" fill-opacity="0.1"/>
<polyline clip-path="url(#clip942)" style="stroke:#e26f46; stroke-linecap:round; stroke-linejoin:round; stroke-width:4; stroke-opacity:1; fill:none" points="243.385,991.012 288.3,120.65 333.215,120.65 378.13,120.65 423.045,120.65 467.96,120.65 512.875,120.65 557.79,120.65 602.706,120.65 647.621,120.65 692.536,120.65 737.451,120.65 782.366,120.65 827.281,120.65 872.196,120.65 917.111,120.65 962.026,120.65 1006.94,120.65 1051.86,120.65 1096.77,120.65 1141.69,120.65 "/>
<path clip-path="url(#clip940)" d="M1400.56 1099.09 L2352.76 1099.09 L2352.76 92.1521 L1400.56 92.1521  Z" fill="#ffffff" fill-rule="evenodd" fill-opacity="1"/>
<defs>
  <clipPath id="clip943">
    <rect x="1400" y="92" width="953" height="1008"/>
  </clipPath>
</defs>
<polyline clip-path="url(#clip943)" style="stroke:#000000; stroke-linecap:round; stroke-linejoin:round; stroke-width:2; stroke-opacity:0.1; fill:none" points="1607.17,1099.09 1607.17,92.1521 "/>
<polyline clip-path="url(#clip943)" style="stroke:#000000; stroke-linecap:round; stroke-linejoin:round; stroke-width:2; stroke-opacity:0.1; fill:none" points="1831.74,1099.09 1831.74,92.1521 "/>
<polyline clip-path="url(#clip943)" style="stroke:#000000; stroke-linecap:round; stroke-linejoin:round; stroke-width:2; stroke-opacity:0.1; fill:none" points="2056.32,1099.09 2056.32,92.1521 "/>
<polyline clip-path="url(#clip943)" style="stroke:#000000; stroke-linecap:round; stroke-linejoin:round; stroke-width:2; stroke-opacity:0.1; fill:none" points="2280.89,1099.09 2280.89,92.1521 "/>
<polyline clip-path="url(#clip943)" style="stroke:#000000; stroke-linecap:round; stroke-linejoin:round; stroke-width:2; stroke-opacity:0.1; fill:none" points="1400.56,1009.83 2352.76,1009.83 "/>
<polyline clip-path="url(#clip943)" style="stroke:#000000; stroke-linecap:round; stroke-linejoin:round; stroke-width:2; stroke-opacity:0.1; fill:none" points="1400.56,819.022 2352.76,819.022 "/>
<polyline clip-path="url(#clip943)" style="stroke:#000000; stroke-linecap:round; stroke-linejoin:round; stroke-width:2; stroke-opacity:0.1; fill:none" points="1400.56,628.214 2352.76,628.214 "/>
<polyline clip-path="url(#clip943)" style="stroke:#000000; stroke-linecap:round; stroke-linejoin:round; stroke-width:2; stroke-opacity:0.1; fill:none" points="1400.56,437.406 2352.76,437.406 "/>
<polyline clip-path="url(#clip943)" style="stroke:#000000; stroke-linecap:round; stroke-linejoin:round; stroke-width:2; stroke-opacity:0.1; fill:none" points="1400.56,246.597 2352.76,246.597 "/>
<polyline clip-path="url(#clip940)" style="stroke:#000000; stroke-linecap:round; stroke-linejoin:round; stroke-width:4; stroke-opacity:1; fill:none" points="1400.56,1099.09 2352.76,1099.09 "/>
<polyline clip-path="url(#clip940)" style="stroke:#000000; stroke-linecap:round; stroke-linejoin:round; stroke-width:4; stroke-opacity:1; fill:none" points="1607.17,1099.09 1607.17,1080.19 "/>
<polyline clip-path="url(#clip940)" style="stroke:#000000; stroke-linecap:round; stroke-linejoin:round; stroke-width:4; stroke-opacity:1; fill:none" points="1831.74,1099.09 1831.74,1080.19 "/>
<polyline clip-path="url(#clip940)" style="stroke:#000000; stroke-linecap:round; stroke-linejoin:round; stroke-width:4; stroke-opacity:1; fill:none" points="2056.32,1099.09 2056.32,1080.19 "/>
<polyline clip-path="url(#clip940)" style="stroke:#000000; stroke-linecap:round; stroke-linejoin:round; stroke-width:4; stroke-opacity:1; fill:none" points="2280.89,1099.09 2280.89,1080.19 "/>
<path clip-path="url(#clip940)" d="M1597.44 1126.93 L1615.8 1126.93 L1615.8 1130.86 L1601.73 1130.86 L1601.73 1139.34 Q1602.74 1138.99 1603.76 1138.83 Q1604.78 1138.64 1605.8 1138.64 Q1611.59 1138.64 1614.97 1141.81 Q1618.35 1144.98 1618.35 1150.4 Q1618.35 1155.98 1614.87 1159.08 Q1611.4 1162.16 1605.08 1162.16 Q1602.91 1162.16 1600.64 1161.79 Q1598.39 1161.42 1595.99 1160.68 L1595.99 1155.98 Q1598.07 1157.11 1600.29 1157.67 Q1602.51 1158.22 1604.99 1158.22 Q1608.99 1158.22 1611.33 1156.12 Q1613.67 1154.01 1613.67 1150.4 Q1613.67 1146.79 1611.33 1144.68 Q1608.99 1142.58 1604.99 1142.58 Q1603.11 1142.58 1601.24 1142.99 Q1599.39 1143.41 1597.44 1144.29 L1597.44 1126.93 Z" fill="#000000" fill-rule="nonzero" fill-opacity="1" /><path clip-path="url(#clip940)" d="M1806.43 1157.55 L1814.07 1157.55 L1814.07 1131.19 L1805.76 1132.85 L1805.76 1128.59 L1814.02 1126.93 L1818.7 1126.93 L1818.7 1157.55 L1826.34 1157.55 L1826.34 1161.49 L1806.43 1161.49 L1806.43 1157.55 Z" fill="#000000" fill-rule="nonzero" fill-opacity="1" /><path clip-path="url(#clip940)" d="M1845.78 1130.01 Q1842.17 1130.01 1840.34 1133.57 Q1838.53 1137.11 1838.53 1144.24 Q1838.53 1151.35 1840.34 1154.91 Q1842.17 1158.46 1845.78 1158.46 Q1849.41 1158.46 1851.22 1154.91 Q1853.05 1151.35 1853.05 1144.24 Q1853.05 1137.11 1851.22 1133.57 Q1849.41 1130.01 1845.78 1130.01 M1845.78 1126.3 Q1851.59 1126.3 1854.65 1130.91 Q1857.72 1135.49 1857.72 1144.24 Q1857.72 1152.97 1854.65 1157.58 Q1851.59 1162.16 1845.78 1162.16 Q1839.97 1162.16 1836.89 1157.58 Q1833.84 1152.97 1833.84 1144.24 Q1833.84 1135.49 1836.89 1130.91 Q1839.97 1126.3 1845.78 1126.3 Z" fill="#000000" fill-rule="nonzero" fill-opacity="1" /><path clip-path="url(#clip940)" d="M2031.5 1157.55 L2039.14 1157.55 L2039.14 1131.19 L2030.83 1132.85 L2030.83 1128.59 L2039.09 1126.93 L2043.77 1126.93 L2043.77 1157.55 L2051.41 1157.55 L2051.41 1161.49 L2031.5 1161.49 L2031.5 1157.55 Z" fill="#000000" fill-rule="nonzero" fill-opacity="1" /><path clip-path="url(#clip940)" d="M2060.9 1126.93 L2079.26 1126.93 L2079.26 1130.86 L2065.18 1130.86 L2065.18 1139.34 Q2066.2 1138.99 2067.22 1138.83 Q2068.24 1138.64 2069.26 1138.64 Q2075.04 1138.64 2078.42 1141.81 Q2081.8 1144.98 2081.8 1150.4 Q2081.8 1155.98 2078.33 1159.08 Q2074.86 1162.16 2068.54 1162.16 Q2066.36 1162.16 2064.09 1161.79 Q2061.85 1161.42 2059.44 1160.68 L2059.44 1155.98 Q2061.52 1157.11 2063.75 1157.67 Q2065.97 1158.22 2068.45 1158.22 Q2072.45 1158.22 2074.79 1156.12 Q2077.13 1154.01 2077.13 1150.4 Q2077.13 1146.79 2074.79 1144.68 Q2072.45 1142.58 2068.45 1142.58 Q2066.57 1142.58 2064.7 1142.99 Q2062.84 1143.41 2060.9 1144.29 L2060.9 1126.93 Z" fill="#000000" fill-rule="nonzero" fill-opacity="1" /><path clip-path="url(#clip940)" d="M2259.67 1157.55 L2275.98 1157.55 L2275.98 1161.49 L2254.04 1161.49 L2254.04 1157.55 Q2256.7 1154.8 2261.29 1150.17 Q2265.89 1145.52 2267.07 1144.17 Q2269.32 1141.65 2270.2 1139.91 Q2271.1 1138.15 2271.1 1136.46 Q2271.1 1133.71 2269.16 1131.97 Q2267.23 1130.24 2264.13 1130.24 Q2261.93 1130.24 2259.48 1131 Q2257.05 1131.77 2254.27 1133.32 L2254.27 1128.59 Q2257.1 1127.46 2259.55 1126.88 Q2262 1126.3 2264.04 1126.3 Q2269.41 1126.3 2272.6 1128.99 Q2275.8 1131.67 2275.8 1136.16 Q2275.8 1138.29 2274.99 1140.21 Q2274.2 1142.11 2272.1 1144.71 Q2271.52 1145.38 2268.42 1148.59 Q2265.31 1151.79 2259.67 1157.55 Z" fill="#000000" fill-rule="nonzero" fill-opacity="1" /><path clip-path="url(#clip940)" d="M2295.8 1130.01 Q2292.19 1130.01 2290.36 1133.57 Q2288.55 1137.11 2288.55 1144.24 Q2288.55 1151.35 2290.36 1154.91 Q2292.19 1158.46 2295.8 1158.46 Q2299.43 1158.46 2301.24 1154.91 Q2303.07 1151.35 2303.07 1144.24 Q2303.07 1137.11 2301.24 1133.57 Q2299.43 1130.01 2295.8 1130.01 M2295.8 1126.3 Q2301.61 1126.3 2304.66 1130.91 Q2307.74 1135.49 2307.74 1144.24 Q2307.74 1152.97 2304.66 1157.58 Q2301.61 1162.16 2295.8 1162.16 Q2289.99 1162.16 2286.91 1157.58 Q2283.85 1152.97 2283.85 1144.24 Q2283.85 1135.49 2286.91 1130.91 Q2289.99 1126.3 2295.8 1126.3 Z" fill="#000000" fill-rule="nonzero" fill-opacity="1" /><polyline clip-path="url(#clip940)" style="stroke:#000000; stroke-linecap:round; stroke-linejoin:round; stroke-width:4; stroke-opacity:1; fill:none" points="1400.56,1099.09 1400.56,92.1521 "/>
<polyline clip-path="url(#clip940)" style="stroke:#000000; stroke-linecap:round; stroke-linejoin:round; stroke-width:4; stroke-opacity:1; fill:none" points="1400.56,1009.83 1419.45,1009.83 "/>
<polyline clip-path="url(#clip940)" style="stroke:#000000; stroke-linecap:round; stroke-linejoin:round; stroke-width:4; stroke-opacity:1; fill:none" points="1400.56,819.022 1419.45,819.022 "/>
<polyline clip-path="url(#clip940)" style="stroke:#000000; stroke-linecap:round; stroke-linejoin:round; stroke-width:4; stroke-opacity:1; fill:none" points="1400.56,628.214 1419.45,628.214 "/>
<polyline clip-path="url(#clip940)" style="stroke:#000000; stroke-linecap:round; stroke-linejoin:round; stroke-width:4; stroke-opacity:1; fill:none" points="1400.56,437.406 1419.45,437.406 "/>
<polyline clip-path="url(#clip940)" style="stroke:#000000; stroke-linecap:round; stroke-linejoin:round; stroke-width:4; stroke-opacity:1; fill:none" points="1400.56,246.597 1419.45,246.597 "/>
<path clip-path="url(#clip940)" d="M1268.03 1023.18 L1275.67 1023.18 L1275.67 996.81 L1267.36 998.477 L1267.36 994.218 L1275.62 992.551 L1280.3 992.551 L1280.3 1023.18 L1287.94 1023.18 L1287.94 1027.11 L1268.03 1027.11 L1268.03 1023.18 Z" fill="#000000" fill-rule="nonzero" fill-opacity="1" /><path clip-path="url(#clip940)" d="M1297.38 1021.23 L1302.26 1021.23 L1302.26 1027.11 L1297.38 1027.11 L1297.38 1021.23 Z" fill="#000000" fill-rule="nonzero" fill-opacity="1" /><path clip-path="url(#clip940)" d="M1322.45 995.63 Q1318.84 995.63 1317.01 999.194 Q1315.2 1002.74 1315.2 1009.87 Q1315.2 1016.97 1317.01 1020.54 Q1318.84 1024.08 1322.45 1024.08 Q1326.08 1024.08 1327.89 1020.54 Q1329.72 1016.97 1329.72 1009.87 Q1329.72 1002.74 1327.89 999.194 Q1326.08 995.63 1322.45 995.63 M1322.45 991.926 Q1328.26 991.926 1331.32 996.532 Q1334.39 1001.12 1334.39 1009.87 Q1334.39 1018.59 1331.32 1023.2 Q1328.26 1027.78 1322.45 1027.78 Q1316.64 1027.78 1313.56 1023.2 Q1310.51 1018.59 1310.51 1009.87 Q1310.51 1001.12 1313.56 996.532 Q1316.64 991.926 1322.45 991.926 Z" fill="#000000" fill-rule="nonzero" fill-opacity="1" /><path clip-path="url(#clip940)" d="M1352.61 995.63 Q1349 995.63 1347.17 999.194 Q1345.37 1002.74 1345.37 1009.87 Q1345.37 1016.97 1347.17 1020.54 Q1349 1024.08 1352.61 1024.08 Q1356.25 1024.08 1358.05 1020.54 Q1359.88 1016.97 1359.88 1009.87 Q1359.88 1002.74 1358.05 999.194 Q1356.25 995.63 1352.61 995.63 M1352.61 991.926 Q1358.42 991.926 1361.48 996.532 Q1364.56 1001.12 1364.56 1009.87 Q1364.56 1018.59 1361.48 1023.2 Q1358.42 1027.78 1352.61 1027.78 Q1346.8 1027.78 1343.72 1023.2 Q1340.67 1018.59 1340.67 1009.87 Q1340.67 1001.12 1343.72 996.532 Q1346.8 991.926 1352.61 991.926 Z" fill="#000000" fill-rule="nonzero" fill-opacity="1" /><path clip-path="url(#clip940)" d="M1269.63 832.367 L1277.27 832.367 L1277.27 806.002 L1268.95 807.668 L1268.95 803.409 L1277.22 801.742 L1281.89 801.742 L1281.89 832.367 L1289.53 832.367 L1289.53 836.302 L1269.63 836.302 L1269.63 832.367 Z" fill="#000000" fill-rule="nonzero" fill-opacity="1" /><path clip-path="url(#clip940)" d="M1298.98 830.423 L1303.86 830.423 L1303.86 836.302 L1298.98 836.302 L1298.98 830.423 Z" fill="#000000" fill-rule="nonzero" fill-opacity="1" /><path clip-path="url(#clip940)" d="M1324.05 804.821 Q1320.44 804.821 1318.61 808.386 Q1316.8 811.928 1316.8 819.057 Q1316.8 826.164 1318.61 829.728 Q1320.44 833.27 1324.05 833.27 Q1327.68 833.27 1329.49 829.728 Q1331.32 826.164 1331.32 819.057 Q1331.32 811.928 1329.49 808.386 Q1327.68 804.821 1324.05 804.821 M1324.05 801.117 Q1329.86 801.117 1332.91 805.724 Q1335.99 810.307 1335.99 819.057 Q1335.99 827.784 1332.91 832.39 Q1329.86 836.974 1324.05 836.974 Q1318.24 836.974 1315.16 832.39 Q1312.1 827.784 1312.1 819.057 Q1312.1 810.307 1315.16 805.724 Q1318.24 801.117 1324.05 801.117 Z" fill="#000000" fill-rule="nonzero" fill-opacity="1" /><path clip-path="url(#clip940)" d="M1348.24 832.367 L1364.56 832.367 L1364.56 836.302 L1342.61 836.302 L1342.61 832.367 Q1345.27 829.613 1349.86 824.983 Q1354.46 820.33 1355.64 818.988 Q1357.89 816.465 1358.77 814.729 Q1359.67 812.969 1359.67 811.279 Q1359.67 808.525 1357.73 806.789 Q1355.81 805.053 1352.7 805.053 Q1350.51 805.053 1348.05 805.817 Q1345.62 806.58 1342.84 808.131 L1342.84 803.409 Q1345.67 802.275 1348.12 801.696 Q1350.57 801.117 1352.61 801.117 Q1357.98 801.117 1361.18 803.803 Q1364.37 806.488 1364.37 810.979 Q1364.37 813.108 1363.56 815.029 Q1362.77 816.928 1360.67 819.52 Q1360.09 820.191 1356.99 823.409 Q1353.89 826.603 1348.24 832.367 Z" fill="#000000" fill-rule="nonzero" fill-opacity="1" /><path clip-path="url(#clip940)" d="M1267.54 641.559 L1275.18 641.559 L1275.18 615.193 L1266.87 616.86 L1266.87 612.601 L1275.14 610.934 L1279.81 610.934 L1279.81 641.559 L1287.45 641.559 L1287.45 645.494 L1267.54 645.494 L1267.54 641.559 Z" fill="#000000" fill-rule="nonzero" fill-opacity="1" /><path clip-path="url(#clip940)" d="M1296.89 639.614 L1301.78 639.614 L1301.78 645.494 L1296.89 645.494 L1296.89 639.614 Z" fill="#000000" fill-rule="nonzero" fill-opacity="1" /><path clip-path="url(#clip940)" d="M1321.96 614.013 Q1318.35 614.013 1316.52 617.578 Q1314.72 621.119 1314.72 628.249 Q1314.72 635.355 1316.52 638.92 Q1318.35 642.462 1321.96 642.462 Q1325.6 642.462 1327.4 638.92 Q1329.23 635.355 1329.23 628.249 Q1329.23 621.119 1327.4 617.578 Q1325.6 614.013 1321.96 614.013 M1321.96 610.309 Q1327.77 610.309 1330.83 614.915 Q1333.91 619.499 1333.91 628.249 Q1333.91 636.976 1330.83 641.582 Q1327.77 646.165 1321.96 646.165 Q1316.15 646.165 1313.08 641.582 Q1310.02 636.976 1310.02 628.249 Q1310.02 619.499 1313.08 614.915 Q1316.15 610.309 1321.96 610.309 Z" fill="#000000" fill-rule="nonzero" fill-opacity="1" /><path clip-path="url(#clip940)" d="M1354.97 615.008 L1343.17 633.457 L1354.97 633.457 L1354.97 615.008 M1353.75 610.934 L1359.63 610.934 L1359.63 633.457 L1364.56 633.457 L1364.56 637.346 L1359.63 637.346 L1359.63 645.494 L1354.97 645.494 L1354.97 637.346 L1339.37 637.346 L1339.37 632.832 L1353.75 610.934 Z" fill="#000000" fill-rule="nonzero" fill-opacity="1" /><path clip-path="url(#clip940)" d="M1267.87 450.75 L1275.51 450.75 L1275.51 424.385 L1267.2 426.051 L1267.2 421.792 L1275.46 420.126 L1280.14 420.126 L1280.14 450.75 L1287.77 450.75 L1287.77 454.686 L1267.87 454.686 L1267.87 450.75 Z" fill="#000000" fill-rule="nonzero" fill-opacity="1" /><path clip-path="url(#clip940)" d="M1297.22 448.806 L1302.1 448.806 L1302.1 454.686 L1297.22 454.686 L1297.22 448.806 Z" fill="#000000" fill-rule="nonzero" fill-opacity="1" /><path clip-path="url(#clip940)" d="M1322.29 423.204 Q1318.68 423.204 1316.85 426.769 Q1315.04 430.311 1315.04 437.44 Q1315.04 444.547 1316.85 448.112 Q1318.68 451.653 1322.29 451.653 Q1325.92 451.653 1327.73 448.112 Q1329.56 444.547 1329.56 437.44 Q1329.56 430.311 1327.73 426.769 Q1325.92 423.204 1322.29 423.204 M1322.29 419.501 Q1328.1 419.501 1331.15 424.107 Q1334.23 428.69 1334.23 437.44 Q1334.23 446.167 1331.15 450.774 Q1328.1 455.357 1322.29 455.357 Q1316.48 455.357 1313.4 450.774 Q1310.34 446.167 1310.34 437.44 Q1310.34 428.69 1313.4 424.107 Q1316.48 419.501 1322.29 419.501 Z" fill="#000000" fill-rule="nonzero" fill-opacity="1" /><path clip-path="url(#clip940)" d="M1353.03 435.542 Q1349.88 435.542 1348.03 437.695 Q1346.2 439.848 1346.2 443.598 Q1346.2 447.324 1348.03 449.5 Q1349.88 451.653 1353.03 451.653 Q1356.18 451.653 1358.01 449.5 Q1359.86 447.324 1359.86 443.598 Q1359.86 439.848 1358.01 437.695 Q1356.18 435.542 1353.03 435.542 M1362.31 420.889 L1362.31 425.149 Q1360.55 424.315 1358.75 423.876 Q1356.96 423.436 1355.2 423.436 Q1350.57 423.436 1348.12 426.561 Q1345.69 429.686 1345.34 436.005 Q1346.71 433.991 1348.77 432.926 Q1350.83 431.838 1353.31 431.838 Q1358.51 431.838 1361.52 435.01 Q1364.56 438.158 1364.56 443.598 Q1364.56 448.922 1361.41 452.139 Q1358.26 455.357 1353.03 455.357 Q1347.03 455.357 1343.86 450.774 Q1340.69 446.167 1340.69 437.44 Q1340.69 429.246 1344.58 424.385 Q1348.47 419.501 1355.02 419.501 Q1356.78 419.501 1358.56 419.848 Q1360.37 420.195 1362.31 420.889 Z" fill="#000000" fill-rule="nonzero" fill-opacity="1" /><path clip-path="url(#clip940)" d="M1268.12 259.942 L1275.76 259.942 L1275.76 233.576 L1267.45 235.243 L1267.45 230.984 L1275.71 229.317 L1280.39 229.317 L1280.39 259.942 L1288.03 259.942 L1288.03 263.877 L1268.12 263.877 L1268.12 259.942 Z" fill="#000000" fill-rule="nonzero" fill-opacity="1" /><path clip-path="url(#clip940)" d="M1297.47 257.998 L1302.36 257.998 L1302.36 263.877 L1297.47 263.877 L1297.47 257.998 Z" fill="#000000" fill-rule="nonzero" fill-opacity="1" /><path clip-path="url(#clip940)" d="M1322.54 232.396 Q1318.93 232.396 1317.1 235.961 Q1315.3 239.502 1315.3 246.632 Q1315.3 253.738 1317.1 257.303 Q1318.93 260.845 1322.54 260.845 Q1326.18 260.845 1327.98 257.303 Q1329.81 253.738 1329.81 246.632 Q1329.81 239.502 1327.98 235.961 Q1326.18 232.396 1322.54 232.396 M1322.54 228.692 Q1328.35 228.692 1331.41 233.299 Q1334.49 237.882 1334.49 246.632 Q1334.49 255.359 1331.41 259.965 Q1328.35 264.548 1322.54 264.548 Q1316.73 264.548 1313.65 259.965 Q1310.6 255.359 1310.6 246.632 Q1310.6 237.882 1313.65 233.299 Q1316.73 228.692 1322.54 228.692 Z" fill="#000000" fill-rule="nonzero" fill-opacity="1" /><path clip-path="url(#clip940)" d="M1352.7 247.465 Q1349.37 247.465 1347.45 249.248 Q1345.55 251.03 1345.55 254.155 Q1345.55 257.28 1347.45 259.062 Q1349.37 260.845 1352.7 260.845 Q1356.04 260.845 1357.96 259.062 Q1359.88 257.257 1359.88 254.155 Q1359.88 251.03 1357.96 249.248 Q1356.06 247.465 1352.7 247.465 M1348.03 245.474 Q1345.02 244.734 1343.33 242.674 Q1341.66 240.613 1341.66 237.65 Q1341.66 233.507 1344.6 231.1 Q1347.57 228.692 1352.7 228.692 Q1357.87 228.692 1360.81 231.1 Q1363.75 233.507 1363.75 237.65 Q1363.75 240.613 1362.06 242.674 Q1360.39 244.734 1357.4 245.474 Q1360.78 246.261 1362.66 248.553 Q1364.56 250.845 1364.56 254.155 Q1364.56 259.178 1361.48 261.863 Q1358.42 264.548 1352.7 264.548 Q1346.99 264.548 1343.91 261.863 Q1340.85 259.178 1340.85 254.155 Q1340.85 250.845 1342.75 248.553 Q1344.65 246.261 1348.03 245.474 M1346.32 238.09 Q1346.32 240.775 1347.98 242.28 Q1349.67 243.785 1352.7 243.785 Q1355.71 243.785 1357.4 242.28 Q1359.12 240.775 1359.12 238.09 Q1359.12 235.405 1357.4 233.9 Q1355.71 232.396 1352.7 232.396 Q1349.67 232.396 1347.98 233.9 Q1346.32 235.405 1346.32 238.09 Z" fill="#000000" fill-rule="nonzero" fill-opacity="1" /><path clip-path="url(#clip940)" d="M1735.94 31.7342 Q1735.94 26.5259 1733.78 23.6613 Q1731.64 20.7968 1727.76 20.7968 Q1723.91 20.7968 1721.75 23.6613 Q1719.61 26.5259 1719.61 31.7342 Q1719.61 36.9165 1721.75 39.781 Q1723.91 42.6456 1727.76 42.6456 Q1731.64 42.6456 1733.78 39.781 Q1735.94 36.9165 1735.94 31.7342 M1740.73 43.0362 Q1740.73 50.4841 1737.43 54.1039 Q1734.12 57.7497 1727.29 57.7497 Q1724.77 57.7497 1722.53 57.3591 Q1720.29 56.9945 1718.18 56.2132 L1718.18 51.5518 Q1720.29 52.6976 1722.35 53.2445 Q1724.4 53.7914 1726.54 53.7914 Q1731.25 53.7914 1733.6 51.3174 Q1735.94 48.8695 1735.94 43.8956 L1735.94 41.5258 Q1734.46 44.1039 1732.14 45.38 Q1729.82 46.656 1726.59 46.656 Q1721.23 46.656 1717.95 42.5675 Q1714.66 38.479 1714.66 31.7342 Q1714.66 24.9634 1717.95 20.8749 Q1721.23 16.7864 1726.59 16.7864 Q1729.82 16.7864 1732.14 18.0624 Q1734.46 19.3384 1735.94 21.9165 L1735.94 17.4895 L1740.73 17.4895 L1740.73 43.0362 Z" fill="#000000" fill-rule="nonzero" fill-opacity="1" /><path clip-path="url(#clip940)" d="M1769.79 21.9165 L1769.79 6.13538 L1774.59 6.13538 L1774.59 46.656 L1769.79 46.656 L1769.79 42.281 Q1768.28 44.8852 1765.97 46.1612 Q1763.67 47.4112 1760.45 47.4112 Q1755.16 47.4112 1751.83 43.1925 Q1748.52 38.9737 1748.52 32.0988 Q1748.52 25.2238 1751.83 21.0051 Q1755.16 16.7864 1760.45 16.7864 Q1763.67 16.7864 1765.97 18.0624 Q1768.28 19.3124 1769.79 21.9165 M1753.47 32.0988 Q1753.47 37.3852 1755.63 40.406 Q1757.82 43.4008 1761.62 43.4008 Q1765.42 43.4008 1767.61 40.406 Q1769.79 37.3852 1769.79 32.0988 Q1769.79 26.8124 1767.61 23.8176 Q1765.42 20.7968 1761.62 20.7968 Q1757.82 20.7968 1755.63 23.8176 Q1753.47 26.8124 1753.47 32.0988 Z" fill="#000000" fill-rule="nonzero" fill-opacity="1" /><path clip-path="url(#clip940)" d="M1789.09 42.281 L1789.09 57.7497 L1784.27 57.7497 L1784.27 17.4895 L1789.09 17.4895 L1789.09 21.9165 Q1790.6 19.3124 1792.89 18.0624 Q1795.21 16.7864 1798.41 16.7864 Q1803.73 16.7864 1807.03 21.0051 Q1810.37 25.2238 1810.37 32.0988 Q1810.37 38.9737 1807.03 43.1925 Q1803.73 47.4112 1798.41 47.4112 Q1795.21 47.4112 1792.89 46.1612 Q1790.6 44.8852 1789.09 42.281 M1805.39 32.0988 Q1805.39 26.8124 1803.21 23.8176 Q1801.04 20.7968 1797.24 20.7968 Q1793.44 20.7968 1791.25 23.8176 Q1789.09 26.8124 1789.09 32.0988 Q1789.09 37.3852 1791.25 40.406 Q1793.44 43.4008 1797.24 43.4008 Q1801.04 43.4008 1803.21 40.406 Q1805.39 37.3852 1805.39 32.0988 Z" fill="#000000" fill-rule="nonzero" fill-opacity="1" /><path clip-path="url(#clip940)" d="M1854.46 21.9165 L1854.46 6.13538 L1859.25 6.13538 L1859.25 46.656 L1854.46 46.656 L1854.46 42.281 Q1852.95 44.8852 1850.63 46.1612 Q1848.34 47.4112 1845.11 47.4112 Q1839.82 47.4112 1836.49 43.1925 Q1833.18 38.9737 1833.18 32.0988 Q1833.18 25.2238 1836.49 21.0051 Q1839.82 16.7864 1845.11 16.7864 Q1848.34 16.7864 1850.63 18.0624 Q1852.95 19.3124 1854.46 21.9165 M1838.13 32.0988 Q1838.13 37.3852 1840.29 40.406 Q1842.48 43.4008 1846.28 43.4008 Q1850.08 43.4008 1852.27 40.406 Q1854.46 37.3852 1854.46 32.0988 Q1854.46 26.8124 1852.27 23.8176 Q1850.08 20.7968 1846.28 20.7968 Q1842.48 20.7968 1840.29 23.8176 Q1838.13 26.8124 1838.13 32.0988 Z" fill="#000000" fill-rule="nonzero" fill-opacity="1" /><path clip-path="url(#clip940)" d="M1894.06 30.8748 L1894.06 33.2186 L1872.03 33.2186 Q1872.35 38.1665 1875 40.7706 Q1877.68 43.3487 1882.45 43.3487 Q1885.21 43.3487 1887.79 42.6716 Q1890.39 41.9946 1892.95 40.6404 L1892.95 45.1716 Q1890.37 46.2654 1887.66 46.8383 Q1884.95 47.4112 1882.16 47.4112 Q1875.18 47.4112 1871.1 43.3487 Q1867.03 39.2862 1867.03 32.3592 Q1867.03 25.1978 1870.89 21.0051 Q1874.77 16.7864 1881.33 16.7864 Q1887.22 16.7864 1890.63 20.5884 Q1894.06 24.3645 1894.06 30.8748 M1889.27 29.4686 Q1889.22 25.5363 1887.06 23.1926 Q1884.92 20.8488 1881.38 20.8488 Q1877.37 20.8488 1874.95 23.1145 Q1872.55 25.3801 1872.19 29.4946 L1889.27 29.4686 Z" fill="#000000" fill-rule="nonzero" fill-opacity="1" /><path clip-path="url(#clip940)" d="M1916.69 6.13538 L1916.69 10.1197 L1912.11 10.1197 Q1909.53 10.1197 1908.52 11.1614 Q1907.53 12.2031 1907.53 14.9114 L1907.53 17.4895 L1915.42 17.4895 L1915.42 21.2134 L1907.53 21.2134 L1907.53 46.656 L1902.71 46.656 L1902.71 21.2134 L1898.13 21.2134 L1898.13 17.4895 L1902.71 17.4895 L1902.71 15.4583 Q1902.71 10.5885 1904.98 8.37496 Q1907.24 6.13538 1912.16 6.13538 L1916.69 6.13538 Z" fill="#000000" fill-rule="nonzero" fill-opacity="1" /><path clip-path="url(#clip940)" d="M1920.71 6.13538 L1925.5 6.13538 L1925.5 46.656 L1920.71 46.656 L1920.71 6.13538 Z" fill="#000000" fill-rule="nonzero" fill-opacity="1" /><path clip-path="url(#clip940)" d="M1948.78 31.9946 Q1942.97 31.9946 1940.73 33.3227 Q1938.49 34.6509 1938.49 37.854 Q1938.49 40.406 1940.16 41.9164 Q1941.85 43.4008 1944.74 43.4008 Q1948.73 43.4008 1951.12 40.5883 Q1953.54 37.7498 1953.54 33.0623 L1953.54 31.9946 L1948.78 31.9946 M1958.34 30.0155 L1958.34 46.656 L1953.54 46.656 L1953.54 42.2289 Q1951.9 44.8852 1949.46 46.1612 Q1947.01 47.4112 1943.47 47.4112 Q1938.99 47.4112 1936.33 44.9112 Q1933.7 42.3852 1933.7 38.1665 Q1933.7 33.2446 1936.98 30.7446 Q1940.29 28.2446 1946.83 28.2446 L1953.54 28.2446 L1953.54 27.7759 Q1953.54 24.4686 1951.36 22.6718 Q1949.19 20.8488 1945.26 20.8488 Q1942.76 20.8488 1940.39 21.4478 Q1938.02 22.0468 1935.84 23.2447 L1935.84 18.8176 Q1938.47 17.802 1940.94 17.3072 Q1943.41 16.7864 1945.76 16.7864 Q1952.09 16.7864 1955.21 20.0676 Q1958.34 23.3488 1958.34 30.0155 Z" fill="#000000" fill-rule="nonzero" fill-opacity="1" /><path clip-path="url(#clip940)" d="M1972.94 9.20828 L1972.94 17.4895 L1982.81 17.4895 L1982.81 21.2134 L1972.94 21.2134 L1972.94 37.0467 Q1972.94 40.6144 1973.91 41.63 Q1974.9 42.6456 1977.89 42.6456 L1982.81 42.6456 L1982.81 46.656 L1977.89 46.656 Q1972.35 46.656 1970.24 44.5987 Q1968.13 42.5154 1968.13 37.0467 L1968.13 21.2134 L1964.61 21.2134 L1964.61 17.4895 L1968.13 17.4895 L1968.13 9.20828 L1972.94 9.20828 Z" fill="#000000" fill-rule="nonzero" fill-opacity="1" /><path clip-path="url(#clip940)" d="M2000.42 20.8488 Q1996.56 20.8488 1994.32 23.8697 Q1992.09 26.8644 1992.09 32.0988 Q1992.09 37.3331 1994.3 40.354 Q1996.54 43.3487 2000.42 43.3487 Q2004.25 43.3487 2006.49 40.3279 Q2008.73 37.3071 2008.73 32.0988 Q2008.73 26.9165 2006.49 23.8957 Q2004.25 20.8488 2000.42 20.8488 M2000.42 16.7864 Q2006.67 16.7864 2010.24 20.8488 Q2013.8 24.9113 2013.8 32.0988 Q2013.8 39.2602 2010.24 43.3487 Q2006.67 47.4112 2000.42 47.4112 Q1994.14 47.4112 1990.57 43.3487 Q1987.03 39.2602 1987.03 32.0988 Q1987.03 24.9113 1990.57 20.8488 Q1994.14 16.7864 2000.42 16.7864 Z" fill="#000000" fill-rule="nonzero" fill-opacity="1" /><path clip-path="url(#clip940)" d="M2038.65 21.9686 Q2037.84 21.4999 2036.88 21.2916 Q2035.94 21.0572 2034.79 21.0572 Q2030.73 21.0572 2028.54 23.7134 Q2026.38 26.3436 2026.38 31.2915 L2026.38 46.656 L2021.56 46.656 L2021.56 17.4895 L2026.38 17.4895 L2026.38 22.0207 Q2027.89 19.3645 2030.31 18.0884 Q2032.74 16.7864 2036.2 16.7864 Q2036.69 16.7864 2037.29 16.8645 Q2037.89 16.9166 2038.62 17.0468 L2038.65 21.9686 Z" fill="#000000" fill-rule="nonzero" fill-opacity="1" /><path clip-path="url(#clip943)" d="M1427.51 1009.83 L1472.42 1021 L1517.34 1019.34 L1562.25 968.808 L1607.17 969.888 L1652.08 966.772 L1697 952.62 L1741.91 959.454 L1786.83 913.914 L1831.74 921.065 L1876.66 898.619 L1921.57 890.724 L1966.49 860.06 L2011.4 793.777 L2056.32 702.871 L2101.23 664.479 L2146.15 597.2 L2191.06 568.543 L2235.98 508.848 L2280.89 476.565 L2325.81 497.383 L2325.81 120.65 L2280.89 242.971 L2235.98 307.227 L2191.06 387.716 L2146.15 442.544 L2101.23 462.667 L2056.32 494.948 L2011.4 544.081 L1966.49 623.129 L1921.57 635.687 L1876.66 673.313 L1831.74 739.318 L1786.83 859.092 L1741.91 896.499 L1697 869.019 L1652.08 864.695 L1607.17 884.502 L1562.25 876.275 L1517.34 890.544 L1472.42 957.989 L1427.51 1009.83  Z" fill="#009af9" fill-rule="evenodd" fill-opacity="0.1"/>
<polyline clip-path="url(#clip943)" style="stroke:#009af9; stroke-linecap:round; stroke-linejoin:round; stroke-width:4; stroke-opacity:1; fill:none" points="1427.51,1009.83 1472.42,989.495 1517.34,954.94 1562.25,922.542 1607.17,927.195 1652.08,915.733 1697,910.82 1741.91,927.976 1786.83,886.503 1831.74,830.192 1876.66,785.966 1921.57,763.205 1966.49,741.595 2011.4,668.929 2056.32,598.909 2101.23,563.573 2146.15,519.872 2191.06,478.129 2235.98,408.037 2280.89,359.768 2325.81,309.017 "/>
<path clip-path="url(#clip943)" d="M1427.51 1009.83 L1472.42 1037.8 L1517.34 1070.59 L1562.25 1055.66 L1607.17 1028 L1652.08 1018.54 L1697 1007.4 L1741.91 1015.58 L1786.83 976.377 L1831.74 893.059 L1876.66 878.588 L1921.57 889.652 L1966.49 864.924 L2011.4 825.592 L2056.32 817.177 L2101.23 775.131 L2146.15 748.292 L2191.06 699.693 L2235.98 640.731 L2280.89 555.338 L2325.81 522.411 L2325.81 422.315 L2280.89 443.376 L2235.98 473.983 L2191.06 475.055 L2146.15 437.697 L2101.23 480.5 L2056.32 484.55 L2011.4 513.935 L1966.49 558.444 L1921.57 547.031 L1876.66 584.125 L1831.74 665.842 L1786.83 698.927 L1741.91 735.645 L1697 776.961 L1652.08 804.502 L1607.17 858.119 L1562.25 898.399 L1517.34 946.608 L1472.42 964.871 L1427.51 1009.83  Z" fill="#e26f46" fill-rule="evenodd" fill-opacity="0.1"/>
<polyline clip-path="url(#clip943)" style="stroke:#e26f46; stroke-linecap:round; stroke-linejoin:round; stroke-width:4; stroke-opacity:1; fill:none" points="1427.51,1009.83 1472.42,1001.33 1517.34,1008.6 1562.25,977.028 1607.17,943.059 1652.08,911.52 1697,892.182 1741.91,875.611 1786.83,837.652 1831.74,779.451 1876.66,731.357 1921.57,718.341 1966.49,711.684 2011.4,669.764 2056.32,650.864 2101.23,627.815 2146.15,592.994 2191.06,587.374 2235.98,557.357 2280.89,499.357 2325.81,472.363 "/>
</svg>
