<?xml version="1.0" encoding="utf-8"?>
<svg xmlns="http://www.w3.org/2000/svg" xmlns:xlink="http://www.w3.org/1999/xlink" width="600" height="400" viewBox="0 0 2400 1600">
<defs>
  <clipPath id="clip640">
    <rect x="0" y="0" width="2400" height="1600"/>
  </clipPath>
</defs>
<path clip-path="url(#clip640)" d="M0 1600 L2400 1600 L2400 0 L0 0  Z" fill="#ffffff" fill-rule="evenodd" fill-opacity="1"/>
<defs>
  <clipPath id="clip641">
    <rect x="480" y="0" width="1681" height="1600"/>
  </clipPath>
</defs>
<path clip-path="url(#clip640)" d="M230.765 1486.45 L2352.76 1486.45 L2352.76 106.192 L230.765 106.192  Z" fill="#ffffff" fill-rule="evenodd" fill-opacity="1"/>
<defs>
  <clipPath id="clip642">
    <rect x="230" y="106" width="2123" height="1381"/>
  </clipPath>
</defs>
<polyline clip-path="url(#clip642)" style="stroke:#000000; stroke-linecap:round; stroke-linejoin:round; stroke-width:2; stroke-opacity:0.1; fill:none" points="541.056,1486.45 541.056,106.192 "/>
<polyline clip-path="url(#clip642)" style="stroke:#000000; stroke-linecap:round; stroke-linejoin:round; stroke-width:2; stroke-opacity:0.1; fill:none" points="916.408,1486.45 916.408,106.192 "/>
<polyline clip-path="url(#clip642)" style="stroke:#000000; stroke-linecap:round; stroke-linejoin:round; stroke-width:2; stroke-opacity:0.1; fill:none" points="1291.76,1486.45 1291.76,106.192 "/>
<polyline clip-path="url(#clip642)" style="stroke:#000000; stroke-linecap:round; stroke-linejoin:round; stroke-width:2; stroke-opacity:0.1; fill:none" points="1667.11,1486.45 1667.11,106.192 "/>
<polyline clip-path="url(#clip642)" style="stroke:#000000; stroke-linecap:round; stroke-linejoin:round; stroke-width:2; stroke-opacity:0.1; fill:none" points="2042.46,1486.45 2042.46,106.192 "/>
<polyline clip-path="url(#clip642)" style="stroke:#000000; stroke-linecap:round; stroke-linejoin:round; stroke-width:2; stroke-opacity:0.1; fill:none" points="230.765,1262.55 2352.76,1262.55 "/>
<polyline clip-path="url(#clip642)" style="stroke:#000000; stroke-linecap:round; stroke-linejoin:round; stroke-width:2; stroke-opacity:0.1; fill:none" points="230.765,942.758 2352.76,942.758 "/>
<polyline clip-path="url(#clip642)" style="stroke:#000000; stroke-linecap:round; stroke-linejoin:round; stroke-width:2; stroke-opacity:0.1; fill:none" points="230.765,622.969 2352.76,622.969 "/>
<polyline clip-path="url(#clip642)" style="stroke:#000000; stroke-linecap:round; stroke-linejoin:round; stroke-width:2; stroke-opacity:0.1; fill:none" points="230.765,303.181 2352.76,303.181 "/>
<polyline clip-path="url(#clip640)" style="stroke:#000000; stroke-linecap:round; stroke-linejoin:round; stroke-width:4; stroke-opacity:1; fill:none" points="230.765,1486.45 2352.76,1486.45 "/>
<polyline clip-path="url(#clip640)" style="stroke:#000000; stroke-linecap:round; stroke-linejoin:round; stroke-width:4; stroke-opacity:1; fill:none" points="541.056,1486.45 541.056,1467.55 "/>
<polyline clip-path="url(#clip640)" style="stroke:#000000; stroke-linecap:round; stroke-linejoin:round; stroke-width:4; stroke-opacity:1; fill:none" points="916.408,1486.45 916.408,1467.55 "/>
<polyline clip-path="url(#clip640)" style="stroke:#000000; stroke-linecap:round; stroke-linejoin:round; stroke-width:4; stroke-opacity:1; fill:none" points="1291.76,1486.45 1291.76,1467.55 "/>
<polyline clip-path="url(#clip640)" style="stroke:#000000; stroke-linecap:round; stroke-linejoin:round; stroke-width:4; stroke-opacity:1; fill:none" points="1667.11,1486.45 1667.11,1467.55 "/>
<polyline clip-path="url(#clip640)" style="stroke:#000000; stroke-linecap:round; stroke-linejoin:round; stroke-width:4; stroke-opacity:1; fill:none" points="2042.46,1486.45 2042.46,1467.55 "/>
<path clip-path="url(#clip640)" d="M545.303 1530.21 Q548.66 1530.93 550.535 1533.2 Q552.433 1535.47 552.433 1538.8 Q552.433 1543.92 548.914 1546.72 Q545.396 1549.52 538.915 1549.52 Q536.739 1549.52 534.424 1549.08 Q532.132 1548.66 529.678 1547.81 L529.678 1543.29 Q531.623 1544.43 533.938 1545.01 Q536.252 1545.58 538.776 1545.58 Q543.174 1545.58 545.465 1543.85 Q547.78 1542.11 547.78 1538.8 Q547.78 1535.75 545.627 1534.03 Q543.498 1532.3 539.678 1532.3 L535.651 1532.3 L535.651 1528.45 L539.864 1528.45 Q543.313 1528.45 545.141 1527.09 Q546.97 1525.7 546.97 1523.11 Q546.97 1520.45 545.072 1519.03 Q543.197 1517.6 539.678 1517.6 Q537.757 1517.6 535.558 1518.01 Q533.359 1518.43 530.72 1519.31 L530.72 1515.14 Q533.382 1514.4 535.697 1514.03 Q538.035 1513.66 540.095 1513.66 Q545.419 1513.66 548.521 1516.09 Q551.623 1518.5 551.623 1522.62 Q551.623 1525.49 549.979 1527.48 Q548.336 1529.45 545.303 1530.21 Z" fill="#000000" fill-rule="nonzero" fill-opacity="1" /><path clip-path="url(#clip640)" d="M916.813 1529.7 Q913.665 1529.7 911.813 1531.86 Q909.984 1534.01 909.984 1537.76 Q909.984 1541.49 911.813 1543.66 Q913.665 1545.82 916.813 1545.82 Q919.961 1545.82 921.79 1543.66 Q923.642 1541.49 923.642 1537.76 Q923.642 1534.01 921.79 1531.86 Q919.961 1529.7 916.813 1529.7 M926.095 1515.05 L926.095 1519.31 Q924.336 1518.48 922.531 1518.04 Q920.748 1517.6 918.989 1517.6 Q914.359 1517.6 911.906 1520.72 Q909.475 1523.85 909.128 1530.17 Q910.494 1528.15 912.554 1527.09 Q914.614 1526 917.091 1526 Q922.299 1526 925.308 1529.17 Q928.341 1532.32 928.341 1537.76 Q928.341 1543.08 925.193 1546.3 Q922.044 1549.52 916.813 1549.52 Q910.818 1549.52 907.646 1544.94 Q904.475 1540.33 904.475 1531.6 Q904.475 1523.41 908.364 1518.55 Q912.253 1513.66 918.804 1513.66 Q920.563 1513.66 922.345 1514.01 Q924.151 1514.36 926.095 1515.05 Z" fill="#000000" fill-rule="nonzero" fill-opacity="1" /><path clip-path="url(#clip640)" d="M1282.06 1548.13 L1282.06 1543.87 Q1283.82 1544.7 1285.63 1545.14 Q1287.43 1545.58 1289.17 1545.58 Q1293.8 1545.58 1296.23 1542.48 Q1298.68 1539.36 1299.03 1533.01 Q1297.69 1535.01 1295.63 1536.07 Q1293.57 1537.13 1291.07 1537.13 Q1285.88 1537.13 1282.85 1534.01 Q1279.84 1530.86 1279.84 1525.42 Q1279.84 1520.1 1282.99 1516.88 Q1286.14 1513.66 1291.37 1513.66 Q1297.36 1513.66 1300.51 1518.27 Q1303.68 1522.85 1303.68 1531.6 Q1303.68 1539.77 1299.79 1544.66 Q1295.93 1549.52 1289.38 1549.52 Q1287.62 1549.52 1285.81 1549.17 Q1284.01 1548.82 1282.06 1548.13 M1291.37 1533.48 Q1294.51 1533.48 1296.34 1531.32 Q1298.2 1529.17 1298.2 1525.42 Q1298.2 1521.7 1296.34 1519.54 Q1294.51 1517.37 1291.37 1517.37 Q1288.22 1517.37 1286.37 1519.54 Q1284.54 1521.7 1284.54 1525.42 Q1284.54 1529.17 1286.37 1531.32 Q1288.22 1533.48 1291.37 1533.48 Z" fill="#000000" fill-rule="nonzero" fill-opacity="1" /><path clip-path="url(#clip640)" d="M1642.6 1544.91 L1650.24 1544.91 L1650.24 1518.55 L1641.93 1520.21 L1641.93 1515.95 L1650.19 1514.29 L1654.87 1514.29 L1654.87 1544.91 L1662.51 1544.91 L1662.51 1548.85 L1642.6 1548.85 L1642.6 1544.91 Z" fill="#000000" fill-rule="nonzero" fill-opacity="1" /><path clip-path="url(#clip640)" d="M1675.98 1544.91 L1692.3 1544.91 L1692.3 1548.85 L1670.35 1548.85 L1670.35 1544.91 Q1673.02 1542.16 1677.6 1537.53 Q1682.2 1532.88 1683.39 1531.53 Q1685.63 1529.01 1686.51 1527.27 Q1687.41 1525.51 1687.41 1523.82 Q1687.41 1521.07 1685.47 1519.33 Q1683.55 1517.6 1680.45 1517.6 Q1678.25 1517.6 1675.79 1518.36 Q1673.36 1519.13 1670.58 1520.68 L1670.58 1515.95 Q1673.41 1514.82 1675.86 1514.24 Q1678.32 1513.66 1680.35 1513.66 Q1685.72 1513.66 1688.92 1516.35 Q1692.11 1519.03 1692.11 1523.52 Q1692.11 1525.65 1691.3 1527.57 Q1690.52 1529.47 1688.41 1532.07 Q1687.83 1532.74 1684.73 1535.95 Q1681.63 1539.15 1675.98 1544.91 Z" fill="#000000" fill-rule="nonzero" fill-opacity="1" /><path clip-path="url(#clip640)" d="M2017.65 1544.91 L2025.29 1544.91 L2025.29 1518.55 L2016.98 1520.21 L2016.98 1515.95 L2025.24 1514.29 L2029.92 1514.29 L2029.92 1544.91 L2037.56 1544.91 L2037.56 1548.85 L2017.65 1548.85 L2017.65 1544.91 Z" fill="#000000" fill-rule="nonzero" fill-opacity="1" /><path clip-path="url(#clip640)" d="M2047.05 1514.29 L2065.4 1514.29 L2065.4 1518.22 L2051.33 1518.22 L2051.33 1526.7 Q2052.35 1526.35 2053.37 1526.19 Q2054.39 1526 2055.4 1526 Q2061.19 1526 2064.57 1529.17 Q2067.95 1532.34 2067.95 1537.76 Q2067.95 1543.34 2064.48 1546.44 Q2061.01 1549.52 2054.69 1549.52 Q2052.51 1549.52 2050.24 1549.15 Q2048 1548.78 2045.59 1548.04 L2045.59 1543.34 Q2047.67 1544.47 2049.9 1545.03 Q2052.12 1545.58 2054.59 1545.58 Q2058.6 1545.58 2060.94 1543.48 Q2063.27 1541.37 2063.27 1537.76 Q2063.27 1534.15 2060.94 1532.04 Q2058.6 1529.94 2054.59 1529.94 Q2052.72 1529.94 2050.84 1530.35 Q2048.99 1530.77 2047.05 1531.65 L2047.05 1514.29 Z" fill="#000000" fill-rule="nonzero" fill-opacity="1" /><polyline clip-path="url(#clip640)" style="stroke:#000000; stroke-linecap:round; stroke-linejoin:round; stroke-width:4; stroke-opacity:1; fill:none" points="230.765,1486.45 230.765,106.192 "/>
<polyline clip-path="url(#clip640)" style="stroke:#000000; stroke-linecap:round; stroke-linejoin:round; stroke-width:4; stroke-opacity:1; fill:none" points="230.765,1262.55 249.662,1262.55 "/>
<polyline clip-path="url(#clip640)" style="stroke:#000000; stroke-linecap:round; stroke-linejoin:round; stroke-width:4; stroke-opacity:1; fill:none" points="230.765,942.758 249.662,942.758 "/>
<polyline clip-path="url(#clip640)" style="stroke:#000000; stroke-linecap:round; stroke-linejoin:round; stroke-width:4; stroke-opacity:1; fill:none" points="230.765,622.969 249.662,622.969 "/>
<polyline clip-path="url(#clip640)" style="stroke:#000000; stroke-linecap:round; stroke-linejoin:round; stroke-width:4; stroke-opacity:1; fill:none" points="230.765,303.181 249.662,303.181 "/>
<path clip-path="url(#clip640)" d="M50.9921 1245.27 L73.2142 1245.27 L73.2142 1247.26 L60.668 1279.83 L55.7838 1279.83 L67.5893 1249.2 L50.9921 1249.2 L50.9921 1245.27 Z" fill="#000000" fill-rule="nonzero" fill-opacity="1" /><path clip-path="url(#clip640)" d="M96.5011 1261.19 Q99.8576 1261.91 101.733 1264.18 Q103.631 1266.45 103.631 1269.78 Q103.631 1274.9 100.112 1277.7 Q96.5937 1280.5 90.1123 1280.5 Q87.9364 1280.5 85.6216 1280.06 Q83.3299 1279.64 80.8762 1278.78 L80.8762 1274.27 Q82.8207 1275.41 85.1355 1275.98 Q87.4503 1276.56 89.9734 1276.56 Q94.3715 1276.56 96.6632 1274.83 Q98.978 1273.09 98.978 1269.78 Q98.978 1266.72 96.8252 1265.01 Q94.6956 1263.28 90.8762 1263.28 L86.8484 1263.28 L86.8484 1259.43 L91.0614 1259.43 Q94.5104 1259.43 96.3391 1258.07 Q98.1678 1256.68 98.1678 1254.09 Q98.1678 1251.42 96.2697 1250.01 Q94.3947 1248.58 90.8762 1248.58 Q88.9549 1248.58 86.7558 1248.99 Q84.5568 1249.41 81.9179 1250.29 L81.9179 1246.12 Q84.5799 1245.38 86.8947 1245.01 Q89.2327 1244.64 91.2928 1244.64 Q96.6169 1244.64 99.7187 1247.07 Q102.821 1249.48 102.821 1253.6 Q102.821 1256.47 101.177 1258.46 Q99.5335 1260.43 96.5011 1261.19 Z" fill="#000000" fill-rule="nonzero" fill-opacity="1" /><path clip-path="url(#clip640)" d="M122.496 1248.34 Q118.885 1248.34 117.057 1251.91 Q115.251 1255.45 115.251 1262.58 Q115.251 1269.69 117.057 1273.25 Q118.885 1276.79 122.496 1276.79 Q126.131 1276.79 127.936 1273.25 Q129.765 1269.69 129.765 1262.58 Q129.765 1255.45 127.936 1251.91 Q126.131 1248.34 122.496 1248.34 M122.496 1244.64 Q128.307 1244.64 131.362 1249.25 Q134.441 1253.83 134.441 1262.58 Q134.441 1271.31 131.362 1275.91 Q128.307 1280.5 122.496 1280.5 Q116.686 1280.5 113.608 1275.91 Q110.552 1271.31 110.552 1262.58 Q110.552 1253.83 113.608 1249.25 Q116.686 1244.64 122.496 1244.64 Z" fill="#000000" fill-rule="nonzero" fill-opacity="1" /><path clip-path="url(#clip640)" d="M152.658 1248.34 Q149.047 1248.34 147.218 1251.91 Q145.413 1255.45 145.413 1262.58 Q145.413 1269.69 147.218 1273.25 Q149.047 1276.79 152.658 1276.79 Q156.292 1276.79 158.098 1273.25 Q159.927 1269.69 159.927 1262.58 Q159.927 1255.45 158.098 1251.91 Q156.292 1248.34 152.658 1248.34 M152.658 1244.64 Q158.468 1244.64 161.524 1249.25 Q164.603 1253.83 164.603 1262.58 Q164.603 1271.31 161.524 1275.91 Q158.468 1280.5 152.658 1280.5 Q146.848 1280.5 143.769 1275.91 Q140.714 1271.31 140.714 1262.58 Q140.714 1253.83 143.769 1249.25 Q146.848 1244.64 152.658 1244.64 Z" fill="#000000" fill-rule="nonzero" fill-opacity="1" /><path clip-path="url(#clip640)" d="M182.82 1248.34 Q179.209 1248.34 177.38 1251.91 Q175.575 1255.45 175.575 1262.58 Q175.575 1269.69 177.38 1273.25 Q179.209 1276.79 182.82 1276.79 Q186.454 1276.79 188.26 1273.25 Q190.089 1269.69 190.089 1262.58 Q190.089 1255.45 188.26 1251.91 Q186.454 1248.34 182.82 1248.34 M182.82 1244.64 Q188.63 1244.64 191.686 1249.25 Q194.765 1253.83 194.765 1262.58 Q194.765 1271.31 191.686 1275.91 Q188.63 1280.5 182.82 1280.5 Q177.01 1280.5 173.931 1275.91 Q170.876 1271.31 170.876 1262.58 Q170.876 1253.83 173.931 1249.25 Q177.01 1244.64 182.82 1244.64 Z" fill="#000000" fill-rule="nonzero" fill-opacity="1" /><path clip-path="url(#clip640)" d="M50.9921 925.478 L73.2142 925.478 L73.2142 927.469 L60.668 960.038 L55.7838 960.038 L67.5893 929.413 L50.9921 929.413 L50.9921 925.478 Z" fill="#000000" fill-rule="nonzero" fill-opacity="1" /><path clip-path="url(#clip640)" d="M95.1817 929.552 L83.3762 948.001 L95.1817 948.001 L95.1817 929.552 M93.9549 925.478 L99.8345 925.478 L99.8345 948.001 L104.765 948.001 L104.765 951.89 L99.8345 951.89 L99.8345 960.038 L95.1817 960.038 L95.1817 951.89 L79.5799 951.89 L79.5799 947.376 L93.9549 925.478 Z" fill="#000000" fill-rule="nonzero" fill-opacity="1" /><path clip-path="url(#clip640)" d="M122.496 928.556 Q118.885 928.556 117.057 932.121 Q115.251 935.663 115.251 942.792 Q115.251 949.899 117.057 953.464 Q118.885 957.005 122.496 957.005 Q126.131 957.005 127.936 953.464 Q129.765 949.899 129.765 942.792 Q129.765 935.663 127.936 932.121 Q126.131 928.556 122.496 928.556 M122.496 924.853 Q128.307 924.853 131.362 929.459 Q134.441 934.043 134.441 942.792 Q134.441 951.519 131.362 956.126 Q128.307 960.709 122.496 960.709 Q116.686 960.709 113.608 956.126 Q110.552 951.519 110.552 942.792 Q110.552 934.043 113.608 929.459 Q116.686 924.853 122.496 924.853 Z" fill="#000000" fill-rule="nonzero" fill-opacity="1" /><path clip-path="url(#clip640)" d="M152.658 928.556 Q149.047 928.556 147.218 932.121 Q145.413 935.663 145.413 942.792 Q145.413 949.899 147.218 953.464 Q149.047 957.005 152.658 957.005 Q156.292 957.005 158.098 953.464 Q159.927 949.899 159.927 942.792 Q159.927 935.663 158.098 932.121 Q156.292 928.556 152.658 928.556 M152.658 924.853 Q158.468 924.853 161.524 929.459 Q164.603 934.043 164.603 942.792 Q164.603 951.519 161.524 956.126 Q158.468 960.709 152.658 960.709 Q146.848 960.709 143.769 956.126 Q140.714 951.519 140.714 942.792 Q140.714 934.043 143.769 929.459 Q146.848 924.853 152.658 924.853 Z" fill="#000000" fill-rule="nonzero" fill-opacity="1" /><path clip-path="url(#clip640)" d="M182.82 928.556 Q179.209 928.556 177.38 932.121 Q175.575 935.663 175.575 942.792 Q175.575 949.899 177.38 953.464 Q179.209 957.005 182.82 957.005 Q186.454 957.005 188.26 953.464 Q190.089 949.899 190.089 942.792 Q190.089 935.663 188.26 932.121 Q186.454 928.556 182.82 928.556 M182.82 924.853 Q188.63 924.853 191.686 929.459 Q194.765 934.043 194.765 942.792 Q194.765 951.519 191.686 956.126 Q188.63 960.709 182.82 960.709 Q177.01 960.709 173.931 956.126 Q170.876 951.519 170.876 942.792 Q170.876 934.043 173.931 929.459 Q177.01 924.853 182.82 924.853 Z" fill="#000000" fill-rule="nonzero" fill-opacity="1" /><path clip-path="url(#clip640)" d="M50.9921 605.689 L73.2142 605.689 L73.2142 607.68 L60.668 640.249 L55.7838 640.249 L67.5893 609.624 L50.9921 609.624 L50.9921 605.689 Z" fill="#000000" fill-rule="nonzero" fill-opacity="1" /><path clip-path="url(#clip640)" d="M82.3808 605.689 L100.737 605.689 L100.737 609.624 L86.6632 609.624 L86.6632 618.097 Q87.6817 617.749 88.7003 617.587 Q89.7188 617.402 90.7373 617.402 Q96.5243 617.402 99.9039 620.573 Q103.284 623.745 103.284 629.161 Q103.284 634.74 99.8113 637.842 Q96.3391 640.921 90.0197 640.921 Q87.8438 640.921 85.5753 640.55 Q83.3299 640.18 80.9225 639.439 L80.9225 634.74 Q83.0058 635.874 85.2281 636.43 Q87.4503 636.985 89.9271 636.985 Q93.9317 636.985 96.2697 634.879 Q98.6076 632.772 98.6076 629.161 Q98.6076 625.55 96.2697 623.444 Q93.9317 621.337 89.9271 621.337 Q88.0521 621.337 86.1771 621.754 Q84.3253 622.171 82.3808 623.05 L82.3808 605.689 Z" fill="#000000" fill-rule="nonzero" fill-opacity="1" /><path clip-path="url(#clip640)" d="M122.496 608.768 Q118.885 608.768 117.057 612.333 Q115.251 615.874 115.251 623.004 Q115.251 630.11 117.057 633.675 Q118.885 637.217 122.496 637.217 Q126.131 637.217 127.936 633.675 Q129.765 630.11 129.765 623.004 Q129.765 615.874 127.936 612.333 Q126.131 608.768 122.496 608.768 M122.496 605.064 Q128.307 605.064 131.362 609.671 Q134.441 614.254 134.441 623.004 Q134.441 631.731 131.362 636.337 Q128.307 640.921 122.496 640.921 Q116.686 640.921 113.608 636.337 Q110.552 631.731 110.552 623.004 Q110.552 614.254 113.608 609.671 Q116.686 605.064 122.496 605.064 Z" fill="#000000" fill-rule="nonzero" fill-opacity="1" /><path clip-path="url(#clip640)" d="M152.658 608.768 Q149.047 608.768 147.218 612.333 Q145.413 615.874 145.413 623.004 Q145.413 630.11 147.218 633.675 Q149.047 637.217 152.658 637.217 Q156.292 637.217 158.098 633.675 Q159.927 630.11 159.927 623.004 Q159.927 615.874 158.098 612.333 Q156.292 608.768 152.658 608.768 M152.658 605.064 Q158.468 605.064 161.524 609.671 Q164.603 614.254 164.603 623.004 Q164.603 631.731 161.524 636.337 Q158.468 640.921 152.658 640.921 Q146.848 640.921 143.769 636.337 Q140.714 631.731 140.714 623.004 Q140.714 614.254 143.769 609.671 Q146.848 605.064 152.658 605.064 Z" fill="#000000" fill-rule="nonzero" fill-opacity="1" /><path clip-path="url(#clip640)" d="M182.82 608.768 Q179.209 608.768 177.38 612.333 Q175.575 615.874 175.575 623.004 Q175.575 630.11 177.38 633.675 Q179.209 637.217 182.82 637.217 Q186.454 637.217 188.26 633.675 Q190.089 630.11 190.089 623.004 Q190.089 615.874 188.26 612.333 Q186.454 608.768 182.82 608.768 M182.82 605.064 Q188.63 605.064 191.686 609.671 Q194.765 614.254 194.765 623.004 Q194.765 631.731 191.686 636.337 Q188.63 640.921 182.82 640.921 Q177.01 640.921 173.931 636.337 Q170.876 631.731 170.876 623.004 Q170.876 614.254 173.931 609.671 Q177.01 605.064 182.82 605.064 Z" fill="#000000" fill-rule="nonzero" fill-opacity="1" /><path clip-path="url(#clip640)" d="M50.9921 285.901 L73.2142 285.901 L73.2142 287.891 L60.668 320.461 L55.7838 320.461 L67.5893 289.836 L50.9921 289.836 L50.9921 285.901 Z" fill="#000000" fill-rule="nonzero" fill-opacity="1" /><path clip-path="url(#clip640)" d="M92.9132 301.317 Q89.7651 301.317 87.9132 303.47 Q86.0845 305.623 86.0845 309.373 Q86.0845 313.1 87.9132 315.276 Q89.7651 317.428 92.9132 317.428 Q96.0613 317.428 97.89 315.276 Q99.7419 313.1 99.7419 309.373 Q99.7419 305.623 97.89 303.47 Q96.0613 301.317 92.9132 301.317 M102.196 286.665 L102.196 290.924 Q100.436 290.091 98.6308 289.651 Q96.8484 289.211 95.0891 289.211 Q90.4595 289.211 88.0058 292.336 Q85.5753 295.461 85.2281 301.78 Q86.5938 299.766 88.654 298.702 Q90.7141 297.614 93.191 297.614 Q98.3993 297.614 101.409 300.785 Q104.441 303.933 104.441 309.373 Q104.441 314.697 101.293 317.914 Q98.1447 321.132 92.9132 321.132 Q86.9179 321.132 83.7466 316.549 Q80.5753 311.942 80.5753 303.215 Q80.5753 295.021 84.4642 290.16 Q88.353 285.276 94.9039 285.276 Q96.6632 285.276 98.4456 285.623 Q100.251 285.97 102.196 286.665 Z" fill="#000000" fill-rule="nonzero" fill-opacity="1" /><path clip-path="url(#clip640)" d="M122.496 288.979 Q118.885 288.979 117.057 292.544 Q115.251 296.086 115.251 303.215 Q115.251 310.322 117.057 313.887 Q118.885 317.428 122.496 317.428 Q126.131 317.428 127.936 313.887 Q129.765 310.322 129.765 303.215 Q129.765 296.086 127.936 292.544 Q126.131 288.979 122.496 288.979 M122.496 285.276 Q128.307 285.276 131.362 289.882 Q134.441 294.466 134.441 303.215 Q134.441 311.942 131.362 316.549 Q128.307 321.132 122.496 321.132 Q116.686 321.132 113.608 316.549 Q110.552 311.942 110.552 303.215 Q110.552 294.466 113.608 289.882 Q116.686 285.276 122.496 285.276 Z" fill="#000000" fill-rule="nonzero" fill-opacity="1" /><path clip-path="url(#clip640)" d="M152.658 288.979 Q149.047 288.979 147.218 292.544 Q145.413 296.086 145.413 303.215 Q145.413 310.322 147.218 313.887 Q149.047 317.428 152.658 317.428 Q156.292 317.428 158.098 313.887 Q159.927 310.322 159.927 303.215 Q159.927 296.086 158.098 292.544 Q156.292 288.979 152.658 288.979 M152.658 285.276 Q158.468 285.276 161.524 289.882 Q164.603 294.466 164.603 303.215 Q164.603 311.942 161.524 316.549 Q158.468 321.132 152.658 321.132 Q146.848 321.132 143.769 316.549 Q140.714 311.942 140.714 303.215 Q140.714 294.466 143.769 289.882 Q146.848 285.276 152.658 285.276 Z" fill="#000000" fill-rule="nonzero" fill-opacity="1" /><path clip-path="url(#clip640)" d="M182.82 288.979 Q179.209 288.979 177.38 292.544 Q175.575 296.086 175.575 303.215 Q175.575 310.322 177.38 313.887 Q179.209 317.428 182.82 317.428 Q186.454 317.428 188.26 313.887 Q190.089 310.322 190.089 303.215 Q190.089 296.086 188.26 292.544 Q186.454 288.979 182.82 288.979 M182.82 285.276 Q188.63 285.276 191.686 289.882 Q194.765 294.466 194.765 303.215 Q194.765 311.942 191.686 316.549 Q188.63 321.132 182.82 321.132 Q177.01 321.132 173.931 316.549 Q170.876 311.942 170.876 303.215 Q170.876 294.466 173.931 289.882 Q177.01 285.276 182.82 285.276 Z" fill="#000000" fill-rule="nonzero" fill-opacity="1" /><path clip-path="url(#clip640)" d="M1262.23 35.2602 Q1262.23 29.4732 1259.83 26.2904 Q1257.46 23.1075 1253.15 23.1075 Q1248.86 23.1075 1246.46 26.2904 Q1244.09 29.4732 1244.09 35.2602 Q1244.09 41.0183 1246.46 44.2012 Q1248.86 47.384 1253.15 47.384 Q1257.46 47.384 1259.83 44.2012 Q1262.23 41.0183 1262.23 35.2602 M1267.56 47.818 Q1267.56 56.0934 1263.88 60.1154 Q1260.21 64.1663 1252.63 64.1663 Q1249.82 64.1663 1247.33 63.7323 Q1244.84 63.3272 1242.5 62.4592 L1242.5 57.2798 Q1244.84 58.5529 1247.13 59.1606 Q1249.41 59.7682 1251.79 59.7682 Q1257.02 59.7682 1259.63 57.0194 Q1262.23 54.2995 1262.23 48.7729 L1262.23 46.1398 Q1260.58 49.0044 1258.01 50.4222 Q1255.43 51.84 1251.84 51.84 Q1245.88 51.84 1242.24 47.2972 Q1238.59 42.7544 1238.59 35.2602 Q1238.59 27.7371 1242.24 23.1943 Q1245.88 18.6515 1251.84 18.6515 Q1255.43 18.6515 1258.01 20.0693 Q1260.58 21.4872 1262.23 24.3517 L1262.23 19.4328 L1267.56 19.4328 L1267.56 47.818 Z" fill="#000000" fill-rule="nonzero" fill-opacity="1" /><path clip-path="url(#clip640)" d="M1299.85 24.3517 L1299.85 6.81709 L1305.17 6.81709 L1305.17 51.84 L1299.85 51.84 L1299.85 46.9789 Q1298.17 49.8724 1295.59 51.2902 Q1293.05 52.6791 1289.46 52.6791 Q1283.59 52.6791 1279.88 47.9916 Q1276.21 43.3042 1276.21 35.6653 Q1276.21 28.0265 1279.88 23.339 Q1283.59 18.6515 1289.46 18.6515 Q1293.05 18.6515 1295.59 20.0693 Q1298.17 21.4582 1299.85 24.3517 M1281.71 35.6653 Q1281.71 41.5391 1284.11 44.8956 Q1286.54 48.2231 1290.76 48.2231 Q1294.99 48.2231 1297.42 44.8956 Q1299.85 41.5391 1299.85 35.6653 Q1299.85 29.7915 1297.42 26.464 Q1294.99 23.1075 1290.76 23.1075 Q1286.54 23.1075 1284.11 26.464 Q1281.71 29.7915 1281.71 35.6653 Z" fill="#000000" fill-rule="nonzero" fill-opacity="1" /><path clip-path="url(#clip640)" d="M1321.29 46.9789 L1321.29 64.1663 L1315.94 64.1663 L1315.94 19.4328 L1321.29 19.4328 L1321.29 24.3517 Q1322.97 21.4582 1325.51 20.0693 Q1328.09 18.6515 1331.65 18.6515 Q1337.55 18.6515 1341.22 23.339 Q1344.93 28.0265 1344.93 35.6653 Q1344.93 43.3042 1341.22 47.9916 Q1337.55 52.6791 1331.65 52.6791 Q1328.09 52.6791 1325.51 51.2902 Q1322.97 49.8724 1321.29 46.9789 M1339.4 35.6653 Q1339.4 29.7915 1336.97 26.464 Q1334.57 23.1075 1330.35 23.1075 Q1326.12 23.1075 1323.69 26.464 Q1321.29 29.7915 1321.29 35.6653 Q1321.29 41.5391 1323.69 44.8956 Q1326.12 48.2231 1330.35 48.2231 Q1334.57 48.2231 1336.97 44.8956 Q1339.4 41.5391 1339.4 35.6653 Z" fill="#000000" fill-rule="nonzero" fill-opacity="1" /><polyline clip-path="url(#clip642)" style="stroke:#009af9; stroke-linecap:round; stroke-linejoin:round; stroke-width:4; stroke-opacity:1; fill:none" points="290.821,1447.38 415.938,1405 541.056,1385.08 666.173,1325.83 791.291,1315.86 916.408,1184.49 1041.53,851.63 1166.64,997.583 1291.76,500.519 1416.88,332.971 1542,453.583 1667.11,225.963 1792.23,237.208 1917.35,145.256 2042.46,298.491 2167.58,278.276 2292.7,294.259 "/>
<path clip-path="url(#clip640)" d="M301.498 255.881 L566.127 255.881 L566.127 152.201 L301.498 152.201  Z" fill="#ffffff" fill-rule="evenodd" fill-opacity="1"/>
<polyline clip-path="url(#clip640)" style="stroke:#000000; stroke-linecap:round; stroke-linejoin:round; stroke-width:4; stroke-opacity:1; fill:none" points="301.498,255.881 566.127,255.881 566.127,152.201 301.498,152.201 301.498,255.881 "/>
<polyline clip-path="url(#clip640)" style="stroke:#009af9; stroke-linecap:round; stroke-linejoin:round; stroke-width:4; stroke-opacity:1; fill:none" points="325.075,204.041 466.541,204.041 "/>
<path clip-path="url(#clip640)" d="M503.962 223.728 Q502.156 228.358 500.443 229.77 Q498.73 231.182 495.86 231.182 L492.457 231.182 L492.457 227.617 L494.957 227.617 Q496.716 227.617 497.688 226.784 Q498.661 225.95 499.841 222.848 L500.605 220.904 L490.119 195.395 L494.633 195.395 L502.735 215.673 L510.836 195.395 L515.35 195.395 L503.962 223.728 Z" fill="#000000" fill-rule="nonzero" fill-opacity="1" /><path clip-path="url(#clip640)" d="M522.642 217.385 L530.281 217.385 L530.281 191.02 L521.971 192.687 L521.971 188.427 L530.235 186.761 L534.91 186.761 L534.91 217.385 L542.549 217.385 L542.549 221.321 L522.642 221.321 L522.642 217.385 Z" fill="#000000" fill-rule="nonzero" fill-opacity="1" /></svg>
