<?xml version="1.0" encoding="utf-8"?>
<svg xmlns="http://www.w3.org/2000/svg" xmlns:xlink="http://www.w3.org/1999/xlink" width="600" height="400" viewBox="0 0 2400 1600">
<defs>
  <clipPath id="clip430">
    <rect x="0" y="0" width="2400" height="1600"/>
  </clipPath>
</defs>
<path clip-path="url(#clip430)" d="M0 1600 L2400 1600 L2400 0 L0 0  Z" fill="#ffffff" fill-rule="evenodd" fill-opacity="1"/>
<defs>
  <clipPath id="clip431">
    <rect x="480" y="0" width="1681" height="1600"/>
  </clipPath>
</defs>
<path clip-path="url(#clip430)" d="M230.765 1486.45 L2352.76 1486.45 L2352.76 106.192 L230.765 106.192  Z" fill="#ffffff" fill-rule="evenodd" fill-opacity="1"/>
<defs>
  <clipPath id="clip432">
    <rect x="230" y="106" width="2123" height="1381"/>
  </clipPath>
</defs>
<polyline clip-path="url(#clip432)" style="stroke:#000000; stroke-linecap:round; stroke-linejoin:round; stroke-width:2; stroke-opacity:0.1; fill:none" points="541.056,1486.45 541.056,106.192 "/>
<polyline clip-path="url(#clip432)" style="stroke:#000000; stroke-linecap:round; stroke-linejoin:round; stroke-width:2; stroke-opacity:0.1; fill:none" points="916.408,1486.45 916.408,106.192 "/>
<polyline clip-path="url(#clip432)" style="stroke:#000000; stroke-linecap:round; stroke-linejoin:round; stroke-width:2; stroke-opacity:0.1; fill:none" points="1291.76,1486.45 1291.76,106.192 "/>
<polyline clip-path="url(#clip432)" style="stroke:#000000; stroke-linecap:round; stroke-linejoin:round; stroke-width:2; stroke-opacity:0.1; fill:none" points="1667.11,1486.45 1667.11,106.192 "/>
<polyline clip-path="url(#clip432)" style="stroke:#000000; stroke-linecap:round; stroke-linejoin:round; stroke-width:2; stroke-opacity:0.1; fill:none" points="2042.46,1486.45 2042.46,106.192 "/>
<polyline clip-path="url(#clip432)" style="stroke:#000000; stroke-linecap:round; stroke-linejoin:round; stroke-width:2; stroke-opacity:0.1; fill:none" points="230.765,1304.84 2352.76,1304.84 "/>
<polyline clip-path="url(#clip432)" style="stroke:#000000; stroke-linecap:round; stroke-linejoin:round; stroke-width:2; stroke-opacity:0.1; fill:none" points="230.765,1064.6 2352.76,1064.6 "/>
<polyline clip-path="url(#clip432)" style="stroke:#000000; stroke-linecap:round; stroke-linejoin:round; stroke-width:2; stroke-opacity:0.1; fill:none" points="230.765,824.356 2352.76,824.356 "/>
<polyline clip-path="url(#clip432)" style="stroke:#000000; stroke-linecap:round; stroke-linejoin:round; stroke-width:2; stroke-opacity:0.1; fill:none" points="230.765,584.114 2352.76,584.114 "/>
<polyline clip-path="url(#clip432)" style="stroke:#000000; stroke-linecap:round; stroke-linejoin:round; stroke-width:2; stroke-opacity:0.1; fill:none" points="230.765,343.872 2352.76,343.872 "/>
<polyline clip-path="url(#clip430)" style="stroke:#000000; stroke-linecap:round; stroke-linejoin:round; stroke-width:4; stroke-opacity:1; fill:none" points="230.765,1486.45 2352.76,1486.45 "/>
<polyline clip-path="url(#clip430)" style="stroke:#000000; stroke-linecap:round; stroke-linejoin:round; stroke-width:4; stroke-opacity:1; fill:none" points="541.056,1486.45 541.056,1467.55 "/>
<polyline clip-path="url(#clip430)" style="stroke:#000000; stroke-linecap:round; stroke-linejoin:round; stroke-width:4; stroke-opacity:1; fill:none" points="916.408,1486.45 916.408,1467.55 "/>
<polyline clip-path="url(#clip430)" style="stroke:#000000; stroke-linecap:round; stroke-linejoin:round; stroke-width:4; stroke-opacity:1; fill:none" points="1291.76,1486.45 1291.76,1467.55 "/>
<polyline clip-path="url(#clip430)" style="stroke:#000000; stroke-linecap:round; stroke-linejoin:round; stroke-width:4; stroke-opacity:1; fill:none" points="1667.11,1486.45 1667.11,1467.55 "/>
<polyline clip-path="url(#clip430)" style="stroke:#000000; stroke-linecap:round; stroke-linejoin:round; stroke-width:4; stroke-opacity:1; fill:none" points="2042.46,1486.45 2042.46,1467.55 "/>
<path clip-path="url(#clip430)" d="M545.303 1530.21 Q548.66 1530.93 550.535 1533.2 Q552.433 1535.47 552.433 1538.8 Q552.433 1543.92 548.914 1546.72 Q545.396 1549.52 538.915 1549.52 Q536.739 1549.52 534.424 1549.08 Q532.132 1548.66 529.678 1547.81 L529.678 1543.29 Q531.623 1544.43 533.938 1545.01 Q536.252 1545.58 538.776 1545.58 Q543.174 1545.58 545.465 1543.85 Q547.78 1542.11 547.78 1538.8 Q547.78 1535.75 545.627 1534.03 Q543.498 1532.3 539.678 1532.3 L535.651 1532.3 L535.651 1528.45 L539.864 1528.45 Q543.313 1528.45 545.141 1527.09 Q546.97 1525.7 546.97 1523.11 Q546.97 1520.45 545.072 1519.03 Q543.197 1517.6 539.678 1517.6 Q537.757 1517.6 535.558 1518.01 Q533.359 1518.43 530.72 1519.31 L530.72 1515.14 Q533.382 1514.4 535.697 1514.03 Q538.035 1513.66 540.095 1513.66 Q545.419 1513.66 548.521 1516.09 Q551.623 1518.5 551.623 1522.62 Q551.623 1525.49 549.979 1527.48 Q548.336 1529.45 545.303 1530.21 Z" fill="#000000" fill-rule="nonzero" fill-opacity="1" /><path clip-path="url(#clip430)" d="M916.813 1529.7 Q913.665 1529.7 911.813 1531.86 Q909.984 1534.01 909.984 1537.76 Q909.984 1541.49 911.813 1543.66 Q913.665 1545.82 916.813 1545.82 Q919.961 1545.82 921.79 1543.66 Q923.642 1541.49 923.642 1537.76 Q923.642 1534.01 921.79 1531.86 Q919.961 1529.7 916.813 1529.7 M926.095 1515.05 L926.095 1519.31 Q924.336 1518.48 922.531 1518.04 Q920.748 1517.6 918.989 1517.6 Q914.359 1517.6 911.906 1520.72 Q909.475 1523.85 909.128 1530.17 Q910.494 1528.15 912.554 1527.09 Q914.614 1526 917.091 1526 Q922.299 1526 925.308 1529.17 Q928.341 1532.32 928.341 1537.76 Q928.341 1543.08 925.193 1546.3 Q922.044 1549.52 916.813 1549.52 Q910.818 1549.52 907.646 1544.94 Q904.475 1540.33 904.475 1531.6 Q904.475 1523.41 908.364 1518.55 Q912.253 1513.66 918.804 1513.66 Q920.563 1513.66 922.345 1514.01 Q924.151 1514.36 926.095 1515.05 Z" fill="#000000" fill-rule="nonzero" fill-opacity="1" /><path clip-path="url(#clip430)" d="M1282.06 1548.13 L1282.06 1543.87 Q1283.82 1544.7 1285.63 1545.14 Q1287.43 1545.58 1289.17 1545.58 Q1293.8 1545.58 1296.23 1542.48 Q1298.68 1539.36 1299.03 1533.01 Q1297.69 1535.01 1295.63 1536.07 Q1293.57 1537.13 1291.07 1537.13 Q1285.88 1537.13 1282.85 1534.01 Q1279.84 1530.86 1279.84 1525.42 Q1279.84 1520.1 1282.99 1516.88 Q1286.14 1513.66 1291.37 1513.66 Q1297.36 1513.66 1300.51 1518.27 Q1303.68 1522.85 1303.68 1531.6 Q1303.68 1539.77 1299.79 1544.66 Q1295.93 1549.52 1289.38 1549.52 Q1287.62 1549.52 1285.81 1549.17 Q1284.01 1548.82 1282.06 1548.13 M1291.37 1533.48 Q1294.51 1533.48 1296.34 1531.32 Q1298.2 1529.17 1298.2 1525.42 Q1298.2 1521.7 1296.34 1519.54 Q1294.51 1517.37 1291.37 1517.37 Q1288.22 1517.37 1286.37 1519.54 Q1284.54 1521.7 1284.54 1525.42 Q1284.54 1529.17 1286.37 1531.32 Q1288.22 1533.48 1291.37 1533.48 Z" fill="#000000" fill-rule="nonzero" fill-opacity="1" /><path clip-path="url(#clip430)" d="M1642.6 1544.91 L1650.24 1544.91 L1650.24 1518.55 L1641.93 1520.21 L1641.93 1515.95 L1650.19 1514.29 L1654.87 1514.29 L1654.87 1544.91 L1662.51 1544.91 L1662.51 1548.85 L1642.6 1548.85 L1642.6 1544.91 Z" fill="#000000" fill-rule="nonzero" fill-opacity="1" /><path clip-path="url(#clip430)" d="M1675.98 1544.91 L1692.3 1544.91 L1692.3 1548.85 L1670.35 1548.85 L1670.35 1544.91 Q1673.02 1542.16 1677.6 1537.53 Q1682.2 1532.88 1683.39 1531.53 Q1685.63 1529.01 1686.51 1527.27 Q1687.41 1525.51 1687.41 1523.82 Q1687.41 1521.07 1685.47 1519.33 Q1683.55 1517.6 1680.45 1517.6 Q1678.25 1517.6 1675.79 1518.36 Q1673.36 1519.13 1670.58 1520.68 L1670.58 1515.95 Q1673.41 1514.82 1675.86 1514.24 Q1678.32 1513.66 1680.35 1513.66 Q1685.72 1513.66 1688.92 1516.35 Q1692.11 1519.03 1692.11 1523.52 Q1692.11 1525.65 1691.3 1527.57 Q1690.52 1529.47 1688.41 1532.07 Q1687.83 1532.74 1684.73 1535.95 Q1681.63 1539.15 1675.98 1544.91 Z" fill="#000000" fill-rule="nonzero" fill-opacity="1" /><path clip-path="url(#clip430)" d="M2017.65 1544.91 L2025.29 1544.91 L2025.29 1518.55 L2016.98 1520.21 L2016.98 1515.95 L2025.24 1514.29 L2029.92 1514.29 L2029.92 1544.91 L2037.56 1544.91 L2037.56 1548.85 L2017.65 1548.85 L2017.65 1544.91 Z" fill="#000000" fill-rule="nonzero" fill-opacity="1" /><path clip-path="url(#clip430)" d="M2047.05 1514.29 L2065.4 1514.29 L2065.4 1518.22 L2051.33 1518.22 L2051.33 1526.7 Q2052.35 1526.35 2053.37 1526.19 Q2054.39 1526 2055.4 1526 Q2061.19 1526 2064.57 1529.17 Q2067.95 1532.34 2067.95 1537.76 Q2067.95 1543.34 2064.48 1546.44 Q2061.01 1549.52 2054.69 1549.52 Q2052.51 1549.52 2050.24 1549.15 Q2048 1548.78 2045.59 1548.04 L2045.59 1543.34 Q2047.67 1544.47 2049.9 1545.03 Q2052.12 1545.58 2054.59 1545.58 Q2058.6 1545.58 2060.94 1543.48 Q2063.27 1541.37 2063.27 1537.76 Q2063.27 1534.15 2060.94 1532.04 Q2058.6 1529.94 2054.59 1529.94 Q2052.72 1529.94 2050.84 1530.35 Q2048.99 1530.77 2047.05 1531.65 L2047.05 1514.29 Z" fill="#000000" fill-rule="nonzero" fill-opacity="1" /><polyline clip-path="url(#clip430)" style="stroke:#000000; stroke-linecap:round; stroke-linejoin:round; stroke-width:4; stroke-opacity:1; fill:none" points="230.765,1486.45 230.765,106.192 "/>
<polyline clip-path="url(#clip430)" style="stroke:#000000; stroke-linecap:round; stroke-linejoin:round; stroke-width:4; stroke-opacity:1; fill:none" points="230.765,1304.84 249.662,1304.84 "/>
<polyline clip-path="url(#clip430)" style="stroke:#000000; stroke-linecap:round; stroke-linejoin:round; stroke-width:4; stroke-opacity:1; fill:none" points="230.765,1064.6 249.662,1064.6 "/>
<polyline clip-path="url(#clip430)" style="stroke:#000000; stroke-linecap:round; stroke-linejoin:round; stroke-width:4; stroke-opacity:1; fill:none" points="230.765,824.356 249.662,824.356 "/>
<polyline clip-path="url(#clip430)" style="stroke:#000000; stroke-linecap:round; stroke-linejoin:round; stroke-width:4; stroke-opacity:1; fill:none" points="230.765,584.114 249.662,584.114 "/>
<polyline clip-path="url(#clip430)" style="stroke:#000000; stroke-linecap:round; stroke-linejoin:round; stroke-width:4; stroke-opacity:1; fill:none" points="230.765,343.872 249.662,343.872 "/>
<path clip-path="url(#clip430)" d="M50.9921 1287.56 L73.2142 1287.56 L73.2142 1289.55 L60.668 1322.12 L55.7838 1322.12 L67.5893 1291.5 L50.9921 1291.5 L50.9921 1287.56 Z" fill="#000000" fill-rule="nonzero" fill-opacity="1" /><path clip-path="url(#clip430)" d="M86.3623 1318.19 L102.682 1318.19 L102.682 1322.12 L80.7373 1322.12 L80.7373 1318.19 Q83.3994 1315.43 87.9827 1310.8 Q92.5891 1306.15 93.7697 1304.81 Q96.015 1302.28 96.8947 1300.55 Q97.7974 1298.79 97.7974 1297.1 Q97.7974 1294.34 95.853 1292.61 Q93.9317 1290.87 90.8299 1290.87 Q88.6308 1290.87 86.1771 1291.63 Q83.7466 1292.4 80.9688 1293.95 L80.9688 1289.23 Q83.7929 1288.09 86.2466 1287.51 Q88.7003 1286.94 90.7373 1286.94 Q96.1076 1286.94 99.3021 1289.62 Q102.496 1292.31 102.496 1296.8 Q102.496 1298.93 101.686 1300.85 Q100.899 1302.75 98.7928 1305.34 Q98.2141 1306.01 95.1123 1309.23 Q92.0104 1312.42 86.3623 1318.19 Z" fill="#000000" fill-rule="nonzero" fill-opacity="1" /><path clip-path="url(#clip430)" d="M123.075 1302.98 Q119.927 1302.98 118.075 1305.13 Q116.246 1307.28 116.246 1311.03 Q116.246 1314.76 118.075 1316.94 Q119.927 1319.09 123.075 1319.09 Q126.223 1319.09 128.052 1316.94 Q129.904 1314.76 129.904 1311.03 Q129.904 1307.28 128.052 1305.13 Q126.223 1302.98 123.075 1302.98 M132.357 1288.32 L132.357 1292.58 Q130.598 1291.75 128.793 1291.31 Q127.01 1290.87 125.251 1290.87 Q120.621 1290.87 118.168 1294 Q115.737 1297.12 115.39 1303.44 Q116.756 1301.43 118.816 1300.36 Q120.876 1299.27 123.353 1299.27 Q128.561 1299.27 131.57 1302.44 Q134.603 1305.59 134.603 1311.03 Q134.603 1316.36 131.455 1319.57 Q128.307 1322.79 123.075 1322.79 Q117.08 1322.79 113.908 1318.21 Q110.737 1313.6 110.737 1304.88 Q110.737 1296.68 114.626 1291.82 Q118.515 1286.94 125.066 1286.94 Q126.825 1286.94 128.607 1287.28 Q130.413 1287.63 132.357 1288.32 Z" fill="#000000" fill-rule="nonzero" fill-opacity="1" /><path clip-path="url(#clip430)" d="M152.658 1290.64 Q149.047 1290.64 147.218 1294.2 Q145.413 1297.75 145.413 1304.88 Q145.413 1311.98 147.218 1315.55 Q149.047 1319.09 152.658 1319.09 Q156.292 1319.09 158.098 1315.55 Q159.927 1311.98 159.927 1304.88 Q159.927 1297.75 158.098 1294.2 Q156.292 1290.64 152.658 1290.64 M152.658 1286.94 Q158.468 1286.94 161.524 1291.54 Q164.603 1296.13 164.603 1304.88 Q164.603 1313.6 161.524 1318.21 Q158.468 1322.79 152.658 1322.79 Q146.848 1322.79 143.769 1318.21 Q140.714 1313.6 140.714 1304.88 Q140.714 1296.13 143.769 1291.54 Q146.848 1286.94 152.658 1286.94 Z" fill="#000000" fill-rule="nonzero" fill-opacity="1" /><path clip-path="url(#clip430)" d="M182.82 1290.64 Q179.209 1290.64 177.38 1294.2 Q175.575 1297.75 175.575 1304.88 Q175.575 1311.98 177.38 1315.55 Q179.209 1319.09 182.82 1319.09 Q186.454 1319.09 188.26 1315.55 Q190.089 1311.98 190.089 1304.88 Q190.089 1297.75 188.26 1294.2 Q186.454 1290.64 182.82 1290.64 M182.82 1286.94 Q188.63 1286.94 191.686 1291.54 Q194.765 1296.13 194.765 1304.88 Q194.765 1313.6 191.686 1318.21 Q188.63 1322.79 182.82 1322.79 Q177.01 1322.79 173.931 1318.21 Q170.876 1313.6 170.876 1304.88 Q170.876 1296.13 173.931 1291.54 Q177.01 1286.94 182.82 1286.94 Z" fill="#000000" fill-rule="nonzero" fill-opacity="1" /><path clip-path="url(#clip430)" d="M50.9921 1047.32 L73.2142 1047.32 L73.2142 1049.31 L60.668 1081.88 L55.7838 1081.88 L67.5893 1051.25 L50.9921 1051.25 L50.9921 1047.32 Z" fill="#000000" fill-rule="nonzero" fill-opacity="1" /><path clip-path="url(#clip430)" d="M86.3623 1077.94 L102.682 1077.94 L102.682 1081.88 L80.7373 1081.88 L80.7373 1077.94 Q83.3994 1075.19 87.9827 1070.56 Q92.5891 1065.91 93.7697 1064.56 Q96.015 1062.04 96.8947 1060.3 Q97.7974 1058.54 97.7974 1056.86 Q97.7974 1054.1 95.853 1052.36 Q93.9317 1050.63 90.8299 1050.63 Q88.6308 1050.63 86.1771 1051.39 Q83.7466 1052.16 80.9688 1053.71 L80.9688 1048.98 Q83.7929 1047.85 86.2466 1047.27 Q88.7003 1046.69 90.7373 1046.69 Q96.1076 1046.69 99.3021 1049.38 Q102.496 1052.06 102.496 1056.55 Q102.496 1058.68 101.686 1060.61 Q100.899 1062.5 98.7928 1065.1 Q98.2141 1065.77 95.1123 1068.98 Q92.0104 1072.18 86.3623 1077.94 Z" fill="#000000" fill-rule="nonzero" fill-opacity="1" /><path clip-path="url(#clip430)" d="M112.635 1081.16 L112.635 1076.9 Q114.395 1077.73 116.2 1078.17 Q118.006 1078.61 119.742 1078.61 Q124.371 1078.61 126.802 1075.51 Q129.256 1072.39 129.603 1066.04 Q128.26 1068.04 126.2 1069.1 Q124.14 1070.17 121.64 1070.17 Q116.455 1070.17 113.422 1067.04 Q110.413 1063.89 110.413 1058.45 Q110.413 1053.13 113.561 1049.91 Q116.709 1046.69 121.941 1046.69 Q127.936 1046.69 131.084 1051.3 Q134.256 1055.88 134.256 1064.63 Q134.256 1072.8 130.367 1077.69 Q126.501 1082.55 119.95 1082.55 Q118.191 1082.55 116.385 1082.2 Q114.58 1081.86 112.635 1081.16 M121.941 1066.51 Q125.089 1066.51 126.918 1064.36 Q128.769 1062.2 128.769 1058.45 Q128.769 1054.73 126.918 1052.57 Q125.089 1050.4 121.941 1050.4 Q118.793 1050.4 116.941 1052.57 Q115.112 1054.73 115.112 1058.45 Q115.112 1062.2 116.941 1064.36 Q118.793 1066.51 121.941 1066.51 Z" fill="#000000" fill-rule="nonzero" fill-opacity="1" /><path clip-path="url(#clip430)" d="M152.658 1050.4 Q149.047 1050.4 147.218 1053.96 Q145.413 1057.5 145.413 1064.63 Q145.413 1071.74 147.218 1075.3 Q149.047 1078.85 152.658 1078.85 Q156.292 1078.85 158.098 1075.3 Q159.927 1071.74 159.927 1064.63 Q159.927 1057.5 158.098 1053.96 Q156.292 1050.4 152.658 1050.4 M152.658 1046.69 Q158.468 1046.69 161.524 1051.3 Q164.603 1055.88 164.603 1064.63 Q164.603 1073.36 161.524 1077.97 Q158.468 1082.55 152.658 1082.55 Q146.848 1082.55 143.769 1077.97 Q140.714 1073.36 140.714 1064.63 Q140.714 1055.88 143.769 1051.3 Q146.848 1046.69 152.658 1046.69 Z" fill="#000000" fill-rule="nonzero" fill-opacity="1" /><path clip-path="url(#clip430)" d="M182.82 1050.4 Q179.209 1050.4 177.38 1053.96 Q175.575 1057.5 175.575 1064.63 Q175.575 1071.74 177.38 1075.3 Q179.209 1078.85 182.82 1078.85 Q186.454 1078.85 188.26 1075.3 Q190.089 1071.74 190.089 1064.63 Q190.089 1057.5 188.26 1053.96 Q186.454 1050.4 182.82 1050.4 M182.82 1046.69 Q188.63 1046.69 191.686 1051.3 Q194.765 1055.88 194.765 1064.63 Q194.765 1073.36 191.686 1077.97 Q188.63 1082.55 182.82 1082.55 Q177.01 1082.55 173.931 1077.97 Q170.876 1073.36 170.876 1064.63 Q170.876 1055.88 173.931 1051.3 Q177.01 1046.69 182.82 1046.69 Z" fill="#000000" fill-rule="nonzero" fill-opacity="1" /><path clip-path="url(#clip430)" d="M50.9921 807.076 L73.2142 807.076 L73.2142 809.067 L60.668 841.636 L55.7838 841.636 L67.5893 811.011 L50.9921 811.011 L50.9921 807.076 Z" fill="#000000" fill-rule="nonzero" fill-opacity="1" /><path clip-path="url(#clip430)" d="M96.5011 823.002 Q99.8576 823.719 101.733 825.988 Q103.631 828.256 103.631 831.59 Q103.631 836.705 100.112 839.506 Q96.5937 842.307 90.1123 842.307 Q87.9364 842.307 85.6216 841.867 Q83.3299 841.451 80.8762 840.594 L80.8762 836.08 Q82.8207 837.215 85.1355 837.793 Q87.4503 838.372 89.9734 838.372 Q94.3715 838.372 96.6632 836.636 Q98.978 834.9 98.978 831.59 Q98.978 828.534 96.8252 826.821 Q94.6956 825.085 90.8762 825.085 L86.8484 825.085 L86.8484 821.243 L91.0614 821.243 Q94.5104 821.243 96.3391 819.877 Q98.1678 818.488 98.1678 815.895 Q98.1678 813.233 96.2697 811.821 Q94.3947 810.386 90.8762 810.386 Q88.9549 810.386 86.7558 810.803 Q84.5568 811.219 81.9179 812.099 L81.9179 807.932 Q84.5799 807.192 86.8947 806.821 Q89.2327 806.451 91.2928 806.451 Q96.6169 806.451 99.7187 808.882 Q102.821 811.289 102.821 815.409 Q102.821 818.28 101.177 820.27 Q99.5335 822.238 96.5011 823.002 Z" fill="#000000" fill-rule="nonzero" fill-opacity="1" /><path clip-path="url(#clip430)" d="M116.524 837.701 L132.844 837.701 L132.844 841.636 L110.899 841.636 L110.899 837.701 Q113.561 834.946 118.145 830.317 Q122.751 825.664 123.932 824.321 Q126.177 821.798 127.057 820.062 Q127.959 818.303 127.959 816.613 Q127.959 813.858 126.015 812.122 Q124.094 810.386 120.992 810.386 Q118.793 810.386 116.339 811.15 Q113.908 811.914 111.131 813.465 L111.131 808.743 Q113.955 807.608 116.408 807.03 Q118.862 806.451 120.899 806.451 Q126.27 806.451 129.464 809.136 Q132.658 811.821 132.658 816.312 Q132.658 818.442 131.848 820.363 Q131.061 822.261 128.955 824.854 Q128.376 825.525 125.274 828.743 Q122.172 831.937 116.524 837.701 Z" fill="#000000" fill-rule="nonzero" fill-opacity="1" /><path clip-path="url(#clip430)" d="M152.658 810.155 Q149.047 810.155 147.218 813.719 Q145.413 817.261 145.413 824.391 Q145.413 831.497 147.218 835.062 Q149.047 838.604 152.658 838.604 Q156.292 838.604 158.098 835.062 Q159.927 831.497 159.927 824.391 Q159.927 817.261 158.098 813.719 Q156.292 810.155 152.658 810.155 M152.658 806.451 Q158.468 806.451 161.524 811.057 Q164.603 815.641 164.603 824.391 Q164.603 833.118 161.524 837.724 Q158.468 842.307 152.658 842.307 Q146.848 842.307 143.769 837.724 Q140.714 833.118 140.714 824.391 Q140.714 815.641 143.769 811.057 Q146.848 806.451 152.658 806.451 Z" fill="#000000" fill-rule="nonzero" fill-opacity="1" /><path clip-path="url(#clip430)" d="M182.82 810.155 Q179.209 810.155 177.38 813.719 Q175.575 817.261 175.575 824.391 Q175.575 831.497 177.38 835.062 Q179.209 838.604 182.82 838.604 Q186.454 838.604 188.26 835.062 Q190.089 831.497 190.089 824.391 Q190.089 817.261 188.26 813.719 Q186.454 810.155 182.82 810.155 M182.82 806.451 Q188.63 806.451 191.686 811.057 Q194.765 815.641 194.765 824.391 Q194.765 833.118 191.686 837.724 Q188.63 842.307 182.82 842.307 Q177.01 842.307 173.931 837.724 Q170.876 833.118 170.876 824.391 Q170.876 815.641 173.931 811.057 Q177.01 806.451 182.82 806.451 Z" fill="#000000" fill-rule="nonzero" fill-opacity="1" /><path clip-path="url(#clip430)" d="M50.9921 566.834 L73.2142 566.834 L73.2142 568.825 L60.668 601.394 L55.7838 601.394 L67.5893 570.769 L50.9921 570.769 L50.9921 566.834 Z" fill="#000000" fill-rule="nonzero" fill-opacity="1" /><path clip-path="url(#clip430)" d="M96.5011 582.76 Q99.8576 583.477 101.733 585.746 Q103.631 588.014 103.631 591.348 Q103.631 596.463 100.112 599.264 Q96.5937 602.065 90.1123 602.065 Q87.9364 602.065 85.6216 601.625 Q83.3299 601.209 80.8762 600.352 L80.8762 595.838 Q82.8207 596.973 85.1355 597.551 Q87.4503 598.13 89.9734 598.13 Q94.3715 598.13 96.6632 596.394 Q98.978 594.658 98.978 591.348 Q98.978 588.292 96.8252 586.579 Q94.6956 584.843 90.8762 584.843 L86.8484 584.843 L86.8484 581 L91.0614 581 Q94.5104 581 96.3391 579.635 Q98.1678 578.246 98.1678 575.653 Q98.1678 572.991 96.2697 571.579 Q94.3947 570.144 90.8762 570.144 Q88.9549 570.144 86.7558 570.561 Q84.5568 570.977 81.9179 571.857 L81.9179 567.69 Q84.5799 566.95 86.8947 566.579 Q89.2327 566.209 91.2928 566.209 Q96.6169 566.209 99.7187 568.639 Q102.821 571.047 102.821 575.167 Q102.821 578.037 101.177 580.028 Q99.5335 581.996 96.5011 582.76 Z" fill="#000000" fill-rule="nonzero" fill-opacity="1" /><path clip-path="url(#clip430)" d="M112.543 566.834 L130.899 566.834 L130.899 570.769 L116.825 570.769 L116.825 579.241 Q117.844 578.894 118.862 578.732 Q119.881 578.547 120.899 578.547 Q126.686 578.547 130.066 581.718 Q133.445 584.889 133.445 590.306 Q133.445 595.885 129.973 598.986 Q126.501 602.065 120.182 602.065 Q118.006 602.065 115.737 601.695 Q113.492 601.324 111.084 600.584 L111.084 595.885 Q113.168 597.019 115.39 597.574 Q117.612 598.13 120.089 598.13 Q124.094 598.13 126.432 596.023 Q128.769 593.917 128.769 590.306 Q128.769 586.695 126.432 584.588 Q124.094 582.482 120.089 582.482 Q118.214 582.482 116.339 582.899 Q114.487 583.315 112.543 584.195 L112.543 566.834 Z" fill="#000000" fill-rule="nonzero" fill-opacity="1" /><path clip-path="url(#clip430)" d="M152.658 569.912 Q149.047 569.912 147.218 573.477 Q145.413 577.019 145.413 584.149 Q145.413 591.255 147.218 594.82 Q149.047 598.361 152.658 598.361 Q156.292 598.361 158.098 594.82 Q159.927 591.255 159.927 584.149 Q159.927 577.019 158.098 573.477 Q156.292 569.912 152.658 569.912 M152.658 566.209 Q158.468 566.209 161.524 570.815 Q164.603 575.399 164.603 584.149 Q164.603 592.875 161.524 597.482 Q158.468 602.065 152.658 602.065 Q146.848 602.065 143.769 597.482 Q140.714 592.875 140.714 584.149 Q140.714 575.399 143.769 570.815 Q146.848 566.209 152.658 566.209 Z" fill="#000000" fill-rule="nonzero" fill-opacity="1" /><path clip-path="url(#clip430)" d="M182.82 569.912 Q179.209 569.912 177.38 573.477 Q175.575 577.019 175.575 584.149 Q175.575 591.255 177.38 594.82 Q179.209 598.361 182.82 598.361 Q186.454 598.361 188.26 594.82 Q190.089 591.255 190.089 584.149 Q190.089 577.019 188.26 573.477 Q186.454 569.912 182.82 569.912 M182.82 566.209 Q188.63 566.209 191.686 570.815 Q194.765 575.399 194.765 584.149 Q194.765 592.875 191.686 597.482 Q188.63 602.065 182.82 602.065 Q177.01 602.065 173.931 597.482 Q170.876 592.875 170.876 584.149 Q170.876 575.399 173.931 570.815 Q177.01 566.209 182.82 566.209 Z" fill="#000000" fill-rule="nonzero" fill-opacity="1" /><path clip-path="url(#clip430)" d="M50.9921 326.592 L73.2142 326.592 L73.2142 328.582 L60.668 361.152 L55.7838 361.152 L67.5893 330.527 L50.9921 330.527 L50.9921 326.592 Z" fill="#000000" fill-rule="nonzero" fill-opacity="1" /><path clip-path="url(#clip430)" d="M96.5011 342.517 Q99.8576 343.235 101.733 345.504 Q103.631 347.772 103.631 351.105 Q103.631 356.221 100.112 359.022 Q96.5937 361.823 90.1123 361.823 Q87.9364 361.823 85.6216 361.383 Q83.3299 360.966 80.8762 360.11 L80.8762 355.596 Q82.8207 356.73 85.1355 357.309 Q87.4503 357.888 89.9734 357.888 Q94.3715 357.888 96.6632 356.152 Q98.978 354.416 98.978 351.105 Q98.978 348.05 96.8252 346.337 Q94.6956 344.601 90.8762 344.601 L86.8484 344.601 L86.8484 340.758 L91.0614 340.758 Q94.5104 340.758 96.3391 339.392 Q98.1678 338.004 98.1678 335.411 Q98.1678 332.749 96.2697 331.337 Q94.3947 329.902 90.8762 329.902 Q88.9549 329.902 86.7558 330.318 Q84.5568 330.735 81.9179 331.615 L81.9179 327.448 Q84.5799 326.707 86.8947 326.337 Q89.2327 325.967 91.2928 325.967 Q96.6169 325.967 99.7187 328.397 Q102.821 330.805 102.821 334.925 Q102.821 337.795 101.177 339.786 Q99.5335 341.754 96.5011 342.517 Z" fill="#000000" fill-rule="nonzero" fill-opacity="1" /><path clip-path="url(#clip430)" d="M122.496 344.74 Q119.163 344.74 117.242 346.522 Q115.344 348.304 115.344 351.429 Q115.344 354.554 117.242 356.337 Q119.163 358.119 122.496 358.119 Q125.83 358.119 127.751 356.337 Q129.672 354.531 129.672 351.429 Q129.672 348.304 127.751 346.522 Q125.853 344.74 122.496 344.74 M117.82 342.749 Q114.811 342.008 113.121 339.948 Q111.455 337.888 111.455 334.925 Q111.455 330.781 114.395 328.374 Q117.358 325.967 122.496 325.967 Q127.658 325.967 130.598 328.374 Q133.538 330.781 133.538 334.925 Q133.538 337.888 131.848 339.948 Q130.182 342.008 127.195 342.749 Q130.575 343.536 132.45 345.828 Q134.348 348.119 134.348 351.429 Q134.348 356.453 131.269 359.138 Q128.214 361.823 122.496 361.823 Q116.779 361.823 113.7 359.138 Q110.645 356.453 110.645 351.429 Q110.645 348.119 112.543 345.828 Q114.441 343.536 117.82 342.749 M116.108 335.365 Q116.108 338.05 117.774 339.555 Q119.464 341.059 122.496 341.059 Q125.506 341.059 127.195 339.555 Q128.908 338.05 128.908 335.365 Q128.908 332.68 127.195 331.175 Q125.506 329.67 122.496 329.67 Q119.464 329.67 117.774 331.175 Q116.108 332.68 116.108 335.365 Z" fill="#000000" fill-rule="nonzero" fill-opacity="1" /><path clip-path="url(#clip430)" d="M152.658 329.67 Q149.047 329.67 147.218 333.235 Q145.413 336.777 145.413 343.906 Q145.413 351.013 147.218 354.578 Q149.047 358.119 152.658 358.119 Q156.292 358.119 158.098 354.578 Q159.927 351.013 159.927 343.906 Q159.927 336.777 158.098 333.235 Q156.292 329.67 152.658 329.67 M152.658 325.967 Q158.468 325.967 161.524 330.573 Q164.603 335.156 164.603 343.906 Q164.603 352.633 161.524 357.24 Q158.468 361.823 152.658 361.823 Q146.848 361.823 143.769 357.24 Q140.714 352.633 140.714 343.906 Q140.714 335.156 143.769 330.573 Q146.848 325.967 152.658 325.967 Z" fill="#000000" fill-rule="nonzero" fill-opacity="1" /><path clip-path="url(#clip430)" d="M182.82 329.67 Q179.209 329.67 177.38 333.235 Q175.575 336.777 175.575 343.906 Q175.575 351.013 177.38 354.578 Q179.209 358.119 182.82 358.119 Q186.454 358.119 188.26 354.578 Q190.089 351.013 190.089 343.906 Q190.089 336.777 188.26 333.235 Q186.454 329.67 182.82 329.67 M182.82 325.967 Q188.63 325.967 191.686 330.573 Q194.765 335.156 194.765 343.906 Q194.765 352.633 191.686 357.24 Q188.63 361.823 182.82 361.823 Q177.01 361.823 173.931 357.24 Q170.876 352.633 170.876 343.906 Q170.876 335.156 173.931 330.573 Q177.01 325.967 182.82 325.967 Z" fill="#000000" fill-rule="nonzero" fill-opacity="1" /><path clip-path="url(#clip430)" d="M1262.23 35.2602 Q1262.23 29.4732 1259.83 26.2904 Q1257.46 23.1075 1253.15 23.1075 Q1248.86 23.1075 1246.46 26.2904 Q1244.09 29.4732 1244.09 35.2602 Q1244.09 41.0183 1246.46 44.2012 Q1248.86 47.384 1253.15 47.384 Q1257.46 47.384 1259.83 44.2012 Q1262.23 41.0183 1262.23 35.2602 M1267.56 47.818 Q1267.56 56.0934 1263.88 60.1154 Q1260.21 64.1663 1252.63 64.1663 Q1249.82 64.1663 1247.33 63.7323 Q1244.84 63.3272 1242.5 62.4592 L1242.5 57.2798 Q1244.84 58.5529 1247.13 59.1606 Q1249.41 59.7682 1251.79 59.7682 Q1257.02 59.7682 1259.63 57.0194 Q1262.23 54.2995 1262.23 48.7729 L1262.23 46.1398 Q1260.58 49.0044 1258.01 50.4222 Q1255.43 51.84 1251.84 51.84 Q1245.88 51.84 1242.24 47.2972 Q1238.59 42.7544 1238.59 35.2602 Q1238.59 27.7371 1242.24 23.1943 Q1245.88 18.6515 1251.84 18.6515 Q1255.43 18.6515 1258.01 20.0693 Q1260.58 21.4872 1262.23 24.3517 L1262.23 19.4328 L1267.56 19.4328 L1267.56 47.818 Z" fill="#000000" fill-rule="nonzero" fill-opacity="1" /><path clip-path="url(#clip430)" d="M1299.85 24.3517 L1299.85 6.81709 L1305.17 6.81709 L1305.17 51.84 L1299.85 51.84 L1299.85 46.9789 Q1298.17 49.8724 1295.59 51.2902 Q1293.05 52.6791 1289.46 52.6791 Q1283.59 52.6791 1279.88 47.9916 Q1276.21 43.3042 1276.21 35.6653 Q1276.21 28.0265 1279.88 23.339 Q1283.59 18.6515 1289.46 18.6515 Q1293.05 18.6515 1295.59 20.0693 Q1298.17 21.4582 1299.85 24.3517 M1281.71 35.6653 Q1281.71 41.5391 1284.11 44.8956 Q1286.54 48.2231 1290.76 48.2231 Q1294.99 48.2231 1297.42 44.8956 Q1299.85 41.5391 1299.85 35.6653 Q1299.85 29.7915 1297.42 26.464 Q1294.99 23.1075 1290.76 23.1075 Q1286.54 23.1075 1284.11 26.464 Q1281.71 29.7915 1281.71 35.6653 Z" fill="#000000" fill-rule="nonzero" fill-opacity="1" /><path clip-path="url(#clip430)" d="M1321.29 46.9789 L1321.29 64.1663 L1315.94 64.1663 L1315.94 19.4328 L1321.29 19.4328 L1321.29 24.3517 Q1322.97 21.4582 1325.51 20.0693 Q1328.09 18.6515 1331.65 18.6515 Q1337.55 18.6515 1341.22 23.339 Q1344.93 28.0265 1344.93 35.6653 Q1344.93 43.3042 1341.22 47.9916 Q1337.55 52.6791 1331.65 52.6791 Q1328.09 52.6791 1325.51 51.2902 Q1322.97 49.8724 1321.29 46.9789 M1339.4 35.6653 Q1339.4 29.7915 1336.97 26.464 Q1334.57 23.1075 1330.35 23.1075 Q1326.12 23.1075 1323.69 26.464 Q1321.29 29.7915 1321.29 35.6653 Q1321.29 41.5391 1323.69 44.8956 Q1326.12 48.2231 1330.35 48.2231 Q1334.57 48.2231 1336.97 44.8956 Q1339.4 41.5391 1339.4 35.6653 Z" fill="#000000" fill-rule="nonzero" fill-opacity="1" /><polyline clip-path="url(#clip432)" style="stroke:#009af9; stroke-linecap:round; stroke-linejoin:round; stroke-width:4; stroke-opacity:1; fill:none" points="290.821,1447.38 415.938,938.074 541.056,896.95 666.173,1130.88 791.291,1223.61 916.408,531.871 1041.53,1125.61 1166.64,366.351 1291.76,546.404 1416.88,628.273 1542,369.913 1667.11,430.249 1792.23,640.326 1917.35,1139.52 2042.46,478.66 2167.58,472.307 2292.7,145.256 "/>
<path clip-path="url(#clip430)" d="M301.498 255.881 L566.127 255.881 L566.127 152.201 L301.498 152.201  Z" fill="#ffffff" fill-rule="evenodd" fill-opacity="1"/>
<polyline clip-path="url(#clip430)" style="stroke:#000000; stroke-linecap:round; stroke-linejoin:round; stroke-width:4; stroke-opacity:1; fill:none" points="301.498,255.881 566.127,255.881 566.127,152.201 301.498,152.201 301.498,255.881 "/>
<polyline clip-path="url(#clip430)" style="stroke:#009af9; stroke-linecap:round; stroke-linejoin:round; stroke-width:4; stroke-opacity:1; fill:none" points="325.075,204.041 466.541,204.041 "/>
<path clip-path="url(#clip430)" d="M503.962 223.728 Q502.156 228.358 500.443 229.77 Q498.73 231.182 495.86 231.182 L492.457 231.182 L492.457 227.617 L494.957 227.617 Q496.716 227.617 497.688 226.784 Q498.661 225.95 499.841 222.848 L500.605 220.904 L490.119 195.395 L494.633 195.395 L502.735 215.673 L510.836 195.395 L515.35 195.395 L503.962 223.728 Z" fill="#000000" fill-rule="nonzero" fill-opacity="1" /><path clip-path="url(#clip430)" d="M522.642 217.385 L530.281 217.385 L530.281 191.02 L521.971 192.687 L521.971 188.427 L530.235 186.761 L534.91 186.761 L534.91 217.385 L542.549 217.385 L542.549 221.321 L522.642 221.321 L522.642 217.385 Z" fill="#000000" fill-rule="nonzero" fill-opacity="1" /></svg>
