<?xml version="1.0" encoding="utf-8"?>
<svg xmlns="http://www.w3.org/2000/svg" xmlns:xlink="http://www.w3.org/1999/xlink" width="600" height="300" viewBox="0 0 2400 1200">
<defs>
  <clipPath id="clip050">
    <rect x="0" y="0" width="2400" height="1200"/>
  </clipPath>
</defs>
<path clip-path="url(#clip050)" d="M0 1200 L2400 1200 L2400 0 L0 0  Z" fill="#ffffff" fill-rule="evenodd" fill-opacity="1"/>
<defs>
  <clipPath id="clip051">
    <rect x="1400" y="92" width="953" height="1008"/>
  </clipPath>
</defs>
<path clip-path="url(#clip050)" d="M216.436 1099.09 L1168.92 1099.09 L1168.92 92.1521 L216.436 92.1521  Z" fill="#ffffff" fill-rule="evenodd" fill-opacity="1"/>
<defs>
  <clipPath id="clip052">
    <rect x="216" y="92" width="953" height="1008"/>
  </clipPath>
</defs>
<polyline clip-path="url(#clip052)" style="stroke:#000000; stroke-linecap:round; stroke-linejoin:round; stroke-width:2; stroke-opacity:0.1; fill:none" points="414.55,1099.09 414.55,92.1521 "/>
<polyline clip-path="url(#clip052)" style="stroke:#000000; stroke-linecap:round; stroke-linejoin:round; stroke-width:2; stroke-opacity:0.1; fill:none" points="628.496,1099.09 628.496,92.1521 "/>
<polyline clip-path="url(#clip052)" style="stroke:#000000; stroke-linecap:round; stroke-linejoin:round; stroke-width:2; stroke-opacity:0.1; fill:none" points="842.443,1099.09 842.443,92.1521 "/>
<polyline clip-path="url(#clip052)" style="stroke:#000000; stroke-linecap:round; stroke-linejoin:round; stroke-width:2; stroke-opacity:0.1; fill:none" points="1056.39,1099.09 1056.39,92.1521 "/>
<polyline clip-path="url(#clip052)" style="stroke:#000000; stroke-linecap:round; stroke-linejoin:round; stroke-width:2; stroke-opacity:0.1; fill:none" points="216.436,1054.85 1168.92,1054.85 "/>
<polyline clip-path="url(#clip052)" style="stroke:#000000; stroke-linecap:round; stroke-linejoin:round; stroke-width:2; stroke-opacity:0.1; fill:none" points="216.436,821.303 1168.92,821.303 "/>
<polyline clip-path="url(#clip052)" style="stroke:#000000; stroke-linecap:round; stroke-linejoin:round; stroke-width:2; stroke-opacity:0.1; fill:none" points="216.436,587.752 1168.92,587.752 "/>
<polyline clip-path="url(#clip052)" style="stroke:#000000; stroke-linecap:round; stroke-linejoin:round; stroke-width:2; stroke-opacity:0.1; fill:none" points="216.436,354.201 1168.92,354.201 "/>
<polyline clip-path="url(#clip052)" style="stroke:#000000; stroke-linecap:round; stroke-linejoin:round; stroke-width:2; stroke-opacity:0.1; fill:none" points="216.436,120.65 1168.92,120.65 "/>
<polyline clip-path="url(#clip050)" style="stroke:#000000; stroke-linecap:round; stroke-linejoin:round; stroke-width:4; stroke-opacity:1; fill:none" points="216.436,1099.09 1168.92,1099.09 "/>
<polyline clip-path="url(#clip050)" style="stroke:#000000; stroke-linecap:round; stroke-linejoin:round; stroke-width:4; stroke-opacity:1; fill:none" points="414.55,1099.09 414.55,1080.19 "/>
<polyline clip-path="url(#clip050)" style="stroke:#000000; stroke-linecap:round; stroke-linejoin:round; stroke-width:4; stroke-opacity:1; fill:none" points="628.496,1099.09 628.496,1080.19 "/>
<polyline clip-path="url(#clip050)" style="stroke:#000000; stroke-linecap:round; stroke-linejoin:round; stroke-width:4; stroke-opacity:1; fill:none" points="842.443,1099.09 842.443,1080.19 "/>
<polyline clip-path="url(#clip050)" style="stroke:#000000; stroke-linecap:round; stroke-linejoin:round; stroke-width:4; stroke-opacity:1; fill:none" points="1056.39,1099.09 1056.39,1080.19 "/>
<path clip-path="url(#clip050)" d="M404.828 1126.93 L423.184 1126.93 L423.184 1130.86 L409.11 1130.86 L409.11 1139.34 Q410.129 1138.99 411.147 1138.83 Q412.166 1138.64 413.184 1138.64 Q418.971 1138.64 422.351 1141.81 Q425.731 1144.98 425.731 1150.4 Q425.731 1155.98 422.258 1159.08 Q418.786 1162.16 412.467 1162.16 Q410.291 1162.16 408.022 1161.79 Q405.777 1161.42 403.37 1160.68 L403.37 1155.98 Q405.453 1157.11 407.675 1157.67 Q409.897 1158.22 412.374 1158.22 Q416.379 1158.22 418.717 1156.12 Q421.055 1154.01 421.055 1150.4 Q421.055 1146.79 418.717 1144.68 Q416.379 1142.58 412.374 1142.58 Q410.499 1142.58 408.624 1142.99 Q406.772 1143.41 404.828 1144.29 L404.828 1126.93 Z" fill="#000000" fill-rule="nonzero" fill-opacity="1" /><path clip-path="url(#clip050)" d="M603.184 1157.55 L610.823 1157.55 L610.823 1131.19 L602.513 1132.85 L602.513 1128.59 L610.777 1126.93 L615.453 1126.93 L615.453 1157.55 L623.091 1157.55 L623.091 1161.49 L603.184 1161.49 L603.184 1157.55 Z" fill="#000000" fill-rule="nonzero" fill-opacity="1" /><path clip-path="url(#clip050)" d="M642.536 1130.01 Q638.925 1130.01 637.096 1133.57 Q635.29 1137.11 635.29 1144.24 Q635.29 1151.35 637.096 1154.91 Q638.925 1158.46 642.536 1158.46 Q646.17 1158.46 647.976 1154.91 Q649.804 1151.35 649.804 1144.24 Q649.804 1137.11 647.976 1133.57 Q646.17 1130.01 642.536 1130.01 M642.536 1126.3 Q648.346 1126.3 651.401 1130.91 Q654.48 1135.49 654.48 1144.24 Q654.48 1152.97 651.401 1157.58 Q648.346 1162.16 642.536 1162.16 Q636.726 1162.16 633.647 1157.58 Q630.591 1152.97 630.591 1144.24 Q630.591 1135.49 633.647 1130.91 Q636.726 1126.3 642.536 1126.3 Z" fill="#000000" fill-rule="nonzero" fill-opacity="1" /><path clip-path="url(#clip050)" d="M817.628 1157.55 L825.267 1157.55 L825.267 1131.19 L816.957 1132.85 L816.957 1128.59 L825.221 1126.93 L829.897 1126.93 L829.897 1157.55 L837.535 1157.55 L837.535 1161.49 L817.628 1161.49 L817.628 1157.55 Z" fill="#000000" fill-rule="nonzero" fill-opacity="1" /><path clip-path="url(#clip050)" d="M847.026 1126.93 L865.382 1126.93 L865.382 1130.86 L851.308 1130.86 L851.308 1139.34 Q852.327 1138.99 853.345 1138.83 Q854.364 1138.64 855.382 1138.64 Q861.169 1138.64 864.549 1141.81 Q867.929 1144.98 867.929 1150.4 Q867.929 1155.98 864.457 1159.08 Q860.984 1162.16 854.665 1162.16 Q852.489 1162.16 850.22 1161.79 Q847.975 1161.42 845.568 1160.68 L845.568 1155.98 Q847.651 1157.11 849.873 1157.67 Q852.095 1158.22 854.572 1158.22 Q858.577 1158.22 860.915 1156.12 Q863.253 1154.01 863.253 1150.4 Q863.253 1146.79 860.915 1144.68 Q858.577 1142.58 854.572 1142.58 Q852.697 1142.58 850.822 1142.99 Q848.97 1143.41 847.026 1144.29 L847.026 1126.93 Z" fill="#000000" fill-rule="nonzero" fill-opacity="1" /><path clip-path="url(#clip050)" d="M1035.16 1157.55 L1051.48 1157.55 L1051.48 1161.49 L1029.54 1161.49 L1029.54 1157.55 Q1032.2 1154.8 1036.78 1150.17 Q1041.39 1145.52 1042.57 1144.17 Q1044.82 1141.65 1045.69 1139.91 Q1046.6 1138.15 1046.6 1136.46 Q1046.6 1133.71 1044.65 1131.97 Q1042.73 1130.24 1039.63 1130.24 Q1037.43 1130.24 1034.98 1131 Q1032.55 1131.77 1029.77 1133.32 L1029.77 1128.59 Q1032.59 1127.46 1035.05 1126.88 Q1037.5 1126.3 1039.54 1126.3 Q1044.91 1126.3 1048.1 1128.99 Q1051.3 1131.67 1051.3 1136.16 Q1051.3 1138.29 1050.49 1140.21 Q1049.7 1142.11 1047.59 1144.71 Q1047.01 1145.38 1043.91 1148.59 Q1040.81 1151.79 1035.16 1157.55 Z" fill="#000000" fill-rule="nonzero" fill-opacity="1" /><path clip-path="url(#clip050)" d="M1071.3 1130.01 Q1067.69 1130.01 1065.86 1133.57 Q1064.05 1137.11 1064.05 1144.24 Q1064.05 1151.35 1065.86 1154.91 Q1067.69 1158.46 1071.3 1158.46 Q1074.93 1158.46 1076.74 1154.91 Q1078.56 1151.35 1078.56 1144.24 Q1078.56 1137.11 1076.74 1133.57 Q1074.93 1130.01 1071.3 1130.01 M1071.3 1126.3 Q1077.11 1126.3 1080.16 1130.91 Q1083.24 1135.49 1083.24 1144.24 Q1083.24 1152.97 1080.16 1157.58 Q1077.11 1162.16 1071.3 1162.16 Q1065.49 1162.16 1062.41 1157.58 Q1059.35 1152.97 1059.35 1144.24 Q1059.35 1135.49 1062.41 1130.91 Q1065.49 1126.3 1071.3 1126.3 Z" fill="#000000" fill-rule="nonzero" fill-opacity="1" /><polyline clip-path="url(#clip050)" style="stroke:#000000; stroke-linecap:round; stroke-linejoin:round; stroke-width:4; stroke-opacity:1; fill:none" points="216.436,1099.09 216.436,92.1521 "/>
<polyline clip-path="url(#clip050)" style="stroke:#000000; stroke-linecap:round; stroke-linejoin:round; stroke-width:4; stroke-opacity:1; fill:none" points="216.436,1054.85 235.334,1054.85 "/>
<polyline clip-path="url(#clip050)" style="stroke:#000000; stroke-linecap:round; stroke-linejoin:round; stroke-width:4; stroke-opacity:1; fill:none" points="216.436,821.303 235.334,821.303 "/>
<polyline clip-path="url(#clip050)" style="stroke:#000000; stroke-linecap:round; stroke-linejoin:round; stroke-width:4; stroke-opacity:1; fill:none" points="216.436,587.752 235.334,587.752 "/>
<polyline clip-path="url(#clip050)" style="stroke:#000000; stroke-linecap:round; stroke-linejoin:round; stroke-width:4; stroke-opacity:1; fill:none" points="216.436,354.201 235.334,354.201 "/>
<polyline clip-path="url(#clip050)" style="stroke:#000000; stroke-linecap:round; stroke-linejoin:round; stroke-width:4; stroke-opacity:1; fill:none" points="216.436,120.65 235.334,120.65 "/>
<path clip-path="url(#clip050)" d="M62.9365 1040.65 Q59.3254 1040.65 57.4967 1044.22 Q55.6912 1047.76 55.6912 1054.89 Q55.6912 1061.99 57.4967 1065.56 Q59.3254 1069.1 62.9365 1069.1 Q66.5707 1069.1 68.3763 1065.56 Q70.205 1061.99 70.205 1054.89 Q70.205 1047.76 68.3763 1044.22 Q66.5707 1040.65 62.9365 1040.65 M62.9365 1036.95 Q68.7467 1036.95 71.8022 1041.55 Q74.8809 1046.14 74.8809 1054.89 Q74.8809 1063.61 71.8022 1068.22 Q68.7467 1072.8 62.9365 1072.8 Q57.1264 1072.8 54.0477 1068.22 Q50.9921 1063.61 50.9921 1054.89 Q50.9921 1046.14 54.0477 1041.55 Q57.1264 1036.95 62.9365 1036.95 Z" fill="#000000" fill-rule="nonzero" fill-opacity="1" /><path clip-path="url(#clip050)" d="M83.0984 1066.25 L87.9827 1066.25 L87.9827 1072.13 L83.0984 1072.13 L83.0984 1066.25 Z" fill="#000000" fill-rule="nonzero" fill-opacity="1" /><path clip-path="url(#clip050)" d="M108.168 1040.65 Q104.557 1040.65 102.728 1044.22 Q100.922 1047.76 100.922 1054.89 Q100.922 1061.99 102.728 1065.56 Q104.557 1069.1 108.168 1069.1 Q111.802 1069.1 113.608 1065.56 Q115.436 1061.99 115.436 1054.89 Q115.436 1047.76 113.608 1044.22 Q111.802 1040.65 108.168 1040.65 M108.168 1036.95 Q113.978 1036.95 117.033 1041.55 Q120.112 1046.14 120.112 1054.89 Q120.112 1063.61 117.033 1068.22 Q113.978 1072.8 108.168 1072.8 Q102.358 1072.8 99.2789 1068.22 Q96.2234 1063.61 96.2234 1054.89 Q96.2234 1046.14 99.2789 1041.55 Q102.358 1036.95 108.168 1036.95 Z" fill="#000000" fill-rule="nonzero" fill-opacity="1" /><path clip-path="url(#clip050)" d="M138.33 1040.65 Q134.719 1040.65 132.89 1044.22 Q131.084 1047.76 131.084 1054.89 Q131.084 1061.99 132.89 1065.56 Q134.719 1069.1 138.33 1069.1 Q141.964 1069.1 143.769 1065.56 Q145.598 1061.99 145.598 1054.89 Q145.598 1047.76 143.769 1044.22 Q141.964 1040.65 138.33 1040.65 M138.33 1036.95 Q144.14 1036.95 147.195 1041.55 Q150.274 1046.14 150.274 1054.89 Q150.274 1063.61 147.195 1068.22 Q144.14 1072.8 138.33 1072.8 Q132.519 1072.8 129.441 1068.22 Q126.385 1063.61 126.385 1054.89 Q126.385 1046.14 129.441 1041.55 Q132.519 1036.95 138.33 1036.95 Z" fill="#000000" fill-rule="nonzero" fill-opacity="1" /><path clip-path="url(#clip050)" d="M168.491 1040.65 Q164.88 1040.65 163.052 1044.22 Q161.246 1047.76 161.246 1054.89 Q161.246 1061.99 163.052 1065.56 Q164.88 1069.1 168.491 1069.1 Q172.126 1069.1 173.931 1065.56 Q175.76 1061.99 175.76 1054.89 Q175.76 1047.76 173.931 1044.22 Q172.126 1040.65 168.491 1040.65 M168.491 1036.95 Q174.302 1036.95 177.357 1041.55 Q180.436 1046.14 180.436 1054.89 Q180.436 1063.61 177.357 1068.22 Q174.302 1072.8 168.491 1072.8 Q162.681 1072.8 159.603 1068.22 Q156.547 1063.61 156.547 1054.89 Q156.547 1046.14 159.603 1041.55 Q162.681 1036.95 168.491 1036.95 Z" fill="#000000" fill-rule="nonzero" fill-opacity="1" /><path clip-path="url(#clip050)" d="M63.9319 807.101 Q60.3208 807.101 58.4921 810.666 Q56.6865 814.208 56.6865 821.337 Q56.6865 828.444 58.4921 832.008 Q60.3208 835.55 63.9319 835.55 Q67.5661 835.55 69.3717 832.008 Q71.2004 828.444 71.2004 821.337 Q71.2004 814.208 69.3717 810.666 Q67.5661 807.101 63.9319 807.101 M63.9319 803.398 Q69.742 803.398 72.7976 808.004 Q75.8763 812.587 75.8763 821.337 Q75.8763 830.064 72.7976 834.671 Q69.742 839.254 63.9319 839.254 Q58.1217 839.254 55.043 834.671 Q51.9875 830.064 51.9875 821.337 Q51.9875 812.587 55.043 808.004 Q58.1217 803.398 63.9319 803.398 Z" fill="#000000" fill-rule="nonzero" fill-opacity="1" /><path clip-path="url(#clip050)" d="M84.0938 832.703 L88.978 832.703 L88.978 838.583 L84.0938 838.583 L84.0938 832.703 Z" fill="#000000" fill-rule="nonzero" fill-opacity="1" /><path clip-path="url(#clip050)" d="M109.163 807.101 Q105.552 807.101 103.723 810.666 Q101.918 814.208 101.918 821.337 Q101.918 828.444 103.723 832.008 Q105.552 835.55 109.163 835.55 Q112.797 835.55 114.603 832.008 Q116.432 828.444 116.432 821.337 Q116.432 814.208 114.603 810.666 Q112.797 807.101 109.163 807.101 M109.163 803.398 Q114.973 803.398 118.029 808.004 Q121.107 812.587 121.107 821.337 Q121.107 830.064 118.029 834.671 Q114.973 839.254 109.163 839.254 Q103.353 839.254 100.274 834.671 Q97.2187 830.064 97.2187 821.337 Q97.2187 812.587 100.274 808.004 Q103.353 803.398 109.163 803.398 Z" fill="#000000" fill-rule="nonzero" fill-opacity="1" /><path clip-path="url(#clip050)" d="M139.325 807.101 Q135.714 807.101 133.885 810.666 Q132.08 814.208 132.08 821.337 Q132.08 828.444 133.885 832.008 Q135.714 835.55 139.325 835.55 Q142.959 835.55 144.765 832.008 Q146.593 828.444 146.593 821.337 Q146.593 814.208 144.765 810.666 Q142.959 807.101 139.325 807.101 M139.325 803.398 Q145.135 803.398 148.191 808.004 Q151.269 812.587 151.269 821.337 Q151.269 830.064 148.191 834.671 Q145.135 839.254 139.325 839.254 Q133.515 839.254 130.436 834.671 Q127.381 830.064 127.381 821.337 Q127.381 812.587 130.436 808.004 Q133.515 803.398 139.325 803.398 Z" fill="#000000" fill-rule="nonzero" fill-opacity="1" /><path clip-path="url(#clip050)" d="M159.533 804.023 L177.89 804.023 L177.89 807.958 L163.816 807.958 L163.816 816.43 Q164.834 816.083 165.853 815.921 Q166.871 815.735 167.89 815.735 Q173.677 815.735 177.056 818.907 Q180.436 822.078 180.436 827.495 Q180.436 833.073 176.964 836.175 Q173.491 839.254 167.172 839.254 Q164.996 839.254 162.728 838.883 Q160.482 838.513 158.075 837.772 L158.075 833.073 Q160.158 834.208 162.38 834.763 Q164.603 835.319 167.079 835.319 Q171.084 835.319 173.422 833.212 Q175.76 831.106 175.76 827.495 Q175.76 823.884 173.422 821.777 Q171.084 819.671 167.079 819.671 Q165.204 819.671 163.329 820.087 Q161.478 820.504 159.533 821.384 L159.533 804.023 Z" fill="#000000" fill-rule="nonzero" fill-opacity="1" /><path clip-path="url(#clip050)" d="M62.9365 573.55 Q59.3254 573.55 57.4967 577.115 Q55.6912 580.657 55.6912 587.787 Q55.6912 594.893 57.4967 598.458 Q59.3254 601.999 62.9365 601.999 Q66.5707 601.999 68.3763 598.458 Q70.205 594.893 70.205 587.787 Q70.205 580.657 68.3763 577.115 Q66.5707 573.55 62.9365 573.55 M62.9365 569.847 Q68.7467 569.847 71.8022 574.453 Q74.8809 579.037 74.8809 587.787 Q74.8809 596.513 71.8022 601.12 Q68.7467 605.703 62.9365 605.703 Q57.1264 605.703 54.0477 601.12 Q50.9921 596.513 50.9921 587.787 Q50.9921 579.037 54.0477 574.453 Q57.1264 569.847 62.9365 569.847 Z" fill="#000000" fill-rule="nonzero" fill-opacity="1" /><path clip-path="url(#clip050)" d="M83.0984 599.152 L87.9827 599.152 L87.9827 605.032 L83.0984 605.032 L83.0984 599.152 Z" fill="#000000" fill-rule="nonzero" fill-opacity="1" /><path clip-path="url(#clip050)" d="M108.168 573.55 Q104.557 573.55 102.728 577.115 Q100.922 580.657 100.922 587.787 Q100.922 594.893 102.728 598.458 Q104.557 601.999 108.168 601.999 Q111.802 601.999 113.608 598.458 Q115.436 594.893 115.436 587.787 Q115.436 580.657 113.608 577.115 Q111.802 573.55 108.168 573.55 M108.168 569.847 Q113.978 569.847 117.033 574.453 Q120.112 579.037 120.112 587.787 Q120.112 596.513 117.033 601.12 Q113.978 605.703 108.168 605.703 Q102.358 605.703 99.2789 601.12 Q96.2234 596.513 96.2234 587.787 Q96.2234 579.037 99.2789 574.453 Q102.358 569.847 108.168 569.847 Z" fill="#000000" fill-rule="nonzero" fill-opacity="1" /><path clip-path="url(#clip050)" d="M129.14 601.097 L136.779 601.097 L136.779 574.731 L128.469 576.398 L128.469 572.138 L136.732 570.472 L141.408 570.472 L141.408 601.097 L149.047 601.097 L149.047 605.032 L129.14 605.032 L129.14 601.097 Z" fill="#000000" fill-rule="nonzero" fill-opacity="1" /><path clip-path="url(#clip050)" d="M168.491 573.55 Q164.88 573.55 163.052 577.115 Q161.246 580.657 161.246 587.787 Q161.246 594.893 163.052 598.458 Q164.88 601.999 168.491 601.999 Q172.126 601.999 173.931 598.458 Q175.76 594.893 175.76 587.787 Q175.76 580.657 173.931 577.115 Q172.126 573.55 168.491 573.55 M168.491 569.847 Q174.302 569.847 177.357 574.453 Q180.436 579.037 180.436 587.787 Q180.436 596.513 177.357 601.12 Q174.302 605.703 168.491 605.703 Q162.681 605.703 159.603 601.12 Q156.547 596.513 156.547 587.787 Q156.547 579.037 159.603 574.453 Q162.681 569.847 168.491 569.847 Z" fill="#000000" fill-rule="nonzero" fill-opacity="1" /><path clip-path="url(#clip050)" d="M63.9319 340 Q60.3208 340 58.4921 343.565 Q56.6865 347.106 56.6865 354.236 Q56.6865 361.342 58.4921 364.907 Q60.3208 368.449 63.9319 368.449 Q67.5661 368.449 69.3717 364.907 Q71.2004 361.342 71.2004 354.236 Q71.2004 347.106 69.3717 343.565 Q67.5661 340 63.9319 340 M63.9319 336.296 Q69.742 336.296 72.7976 340.903 Q75.8763 345.486 75.8763 354.236 Q75.8763 362.963 72.7976 367.569 Q69.742 372.152 63.9319 372.152 Q58.1217 372.152 55.043 367.569 Q51.9875 362.963 51.9875 354.236 Q51.9875 345.486 55.043 340.903 Q58.1217 336.296 63.9319 336.296 Z" fill="#000000" fill-rule="nonzero" fill-opacity="1" /><path clip-path="url(#clip050)" d="M84.0938 365.601 L88.978 365.601 L88.978 371.481 L84.0938 371.481 L84.0938 365.601 Z" fill="#000000" fill-rule="nonzero" fill-opacity="1" /><path clip-path="url(#clip050)" d="M109.163 340 Q105.552 340 103.723 343.565 Q101.918 347.106 101.918 354.236 Q101.918 361.342 103.723 364.907 Q105.552 368.449 109.163 368.449 Q112.797 368.449 114.603 364.907 Q116.432 361.342 116.432 354.236 Q116.432 347.106 114.603 343.565 Q112.797 340 109.163 340 M109.163 336.296 Q114.973 336.296 118.029 340.903 Q121.107 345.486 121.107 354.236 Q121.107 362.963 118.029 367.569 Q114.973 372.152 109.163 372.152 Q103.353 372.152 100.274 367.569 Q97.2187 362.963 97.2187 354.236 Q97.2187 345.486 100.274 340.903 Q103.353 336.296 109.163 336.296 Z" fill="#000000" fill-rule="nonzero" fill-opacity="1" /><path clip-path="url(#clip050)" d="M130.135 367.546 L137.774 367.546 L137.774 341.18 L129.464 342.847 L129.464 338.588 L137.728 336.921 L142.404 336.921 L142.404 367.546 L150.043 367.546 L150.043 371.481 L130.135 371.481 L130.135 367.546 Z" fill="#000000" fill-rule="nonzero" fill-opacity="1" /><path clip-path="url(#clip050)" d="M159.533 336.921 L177.89 336.921 L177.89 340.856 L163.816 340.856 L163.816 349.328 Q164.834 348.981 165.853 348.819 Q166.871 348.634 167.89 348.634 Q173.677 348.634 177.056 351.805 Q180.436 354.977 180.436 360.393 Q180.436 365.972 176.964 369.074 Q173.491 372.152 167.172 372.152 Q164.996 372.152 162.728 371.782 Q160.482 371.412 158.075 370.671 L158.075 365.972 Q160.158 367.106 162.38 367.662 Q164.603 368.217 167.079 368.217 Q171.084 368.217 173.422 366.111 Q175.76 364.004 175.76 360.393 Q175.76 356.782 173.422 354.676 Q171.084 352.569 167.079 352.569 Q165.204 352.569 163.329 352.986 Q161.478 353.402 159.533 354.282 L159.533 336.921 Z" fill="#000000" fill-rule="nonzero" fill-opacity="1" /><path clip-path="url(#clip050)" d="M62.9365 106.449 Q59.3254 106.449 57.4967 110.014 Q55.6912 113.555 55.6912 120.685 Q55.6912 127.791 57.4967 131.356 Q59.3254 134.898 62.9365 134.898 Q66.5707 134.898 68.3763 131.356 Q70.205 127.791 70.205 120.685 Q70.205 113.555 68.3763 110.014 Q66.5707 106.449 62.9365 106.449 M62.9365 102.745 Q68.7467 102.745 71.8022 107.352 Q74.8809 111.935 74.8809 120.685 Q74.8809 129.412 71.8022 134.018 Q68.7467 138.602 62.9365 138.602 Q57.1264 138.602 54.0477 134.018 Q50.9921 129.412 50.9921 120.685 Q50.9921 111.935 54.0477 107.352 Q57.1264 102.745 62.9365 102.745 Z" fill="#000000" fill-rule="nonzero" fill-opacity="1" /><path clip-path="url(#clip050)" d="M83.0984 132.051 L87.9827 132.051 L87.9827 137.93 L83.0984 137.93 L83.0984 132.051 Z" fill="#000000" fill-rule="nonzero" fill-opacity="1" /><path clip-path="url(#clip050)" d="M108.168 106.449 Q104.557 106.449 102.728 110.014 Q100.922 113.555 100.922 120.685 Q100.922 127.791 102.728 131.356 Q104.557 134.898 108.168 134.898 Q111.802 134.898 113.608 131.356 Q115.436 127.791 115.436 120.685 Q115.436 113.555 113.608 110.014 Q111.802 106.449 108.168 106.449 M108.168 102.745 Q113.978 102.745 117.033 107.352 Q120.112 111.935 120.112 120.685 Q120.112 129.412 117.033 134.018 Q113.978 138.602 108.168 138.602 Q102.358 138.602 99.2789 134.018 Q96.2234 129.412 96.2234 120.685 Q96.2234 111.935 99.2789 107.352 Q102.358 102.745 108.168 102.745 Z" fill="#000000" fill-rule="nonzero" fill-opacity="1" /><path clip-path="url(#clip050)" d="M132.357 133.995 L148.677 133.995 L148.677 137.93 L126.732 137.93 L126.732 133.995 Q129.394 131.241 133.978 126.611 Q138.584 121.958 139.765 120.616 Q142.01 118.092 142.89 116.356 Q143.793 114.597 143.793 112.907 Q143.793 110.153 141.848 108.417 Q139.927 106.68 136.825 106.68 Q134.626 106.68 132.172 107.444 Q129.742 108.208 126.964 109.759 L126.964 105.037 Q129.788 103.903 132.242 103.324 Q134.695 102.745 136.732 102.745 Q142.103 102.745 145.297 105.43 Q148.492 108.116 148.492 112.606 Q148.492 114.736 147.681 116.657 Q146.894 118.555 144.788 121.148 Q144.209 121.819 141.107 125.037 Q138.006 128.231 132.357 133.995 Z" fill="#000000" fill-rule="nonzero" fill-opacity="1" /><path clip-path="url(#clip050)" d="M168.491 106.449 Q164.88 106.449 163.052 110.014 Q161.246 113.555 161.246 120.685 Q161.246 127.791 163.052 131.356 Q164.88 134.898 168.491 134.898 Q172.126 134.898 173.931 131.356 Q175.76 127.791 175.76 120.685 Q175.76 113.555 173.931 110.014 Q172.126 106.449 168.491 106.449 M168.491 102.745 Q174.302 102.745 177.357 107.352 Q180.436 111.935 180.436 120.685 Q180.436 129.412 177.357 134.018 Q174.302 138.602 168.491 138.602 Q162.681 138.602 159.603 134.018 Q156.547 129.412 156.547 120.685 Q156.547 111.935 159.603 107.352 Q162.681 102.745 168.491 102.745 Z" fill="#000000" fill-rule="nonzero" fill-opacity="1" /><path clip-path="url(#clip050)" d="M625.298 30.8748 L625.298 33.2186 L603.267 33.2186 Q603.579 38.1665 606.235 40.7706 Q608.918 43.3487 613.683 43.3487 Q616.444 43.3487 619.022 42.6716 Q621.626 41.9946 624.178 40.6404 L624.178 45.1716 Q621.6 46.2654 618.892 46.8383 Q616.183 47.4112 613.397 47.4112 Q606.418 47.4112 602.329 43.3487 Q598.267 39.2862 598.267 32.3592 Q598.267 25.1978 602.121 21.0051 Q606.001 16.7864 612.564 16.7864 Q618.449 16.7864 621.86 20.5884 Q625.298 24.3645 625.298 30.8748 M620.506 29.4686 Q620.454 25.5363 618.293 23.1926 Q616.157 20.8488 612.616 20.8488 Q608.605 20.8488 606.183 23.1145 Q603.788 25.3801 603.423 29.4946 L620.506 29.4686 Z" fill="#000000" fill-rule="nonzero" fill-opacity="1" /><path clip-path="url(#clip050)" d="M632.668 35.1456 L632.668 17.4895 L637.459 17.4895 L637.459 34.9634 Q637.459 39.104 639.074 41.1873 Q640.688 43.2446 643.918 43.2446 Q647.798 43.2446 650.037 40.7706 Q652.303 38.2967 652.303 34.0259 L652.303 17.4895 L657.095 17.4895 L657.095 46.656 L652.303 46.656 L652.303 42.1769 Q650.558 44.8331 648.24 46.1352 Q645.949 47.4112 642.902 47.4112 Q637.876 47.4112 635.272 44.2862 Q632.668 41.1612 632.668 35.1456 M644.725 16.7864 L644.725 16.7864 Z" fill="#000000" fill-rule="nonzero" fill-opacity="1" /><path clip-path="url(#clip050)" d="M683.865 21.9686 Q683.058 21.4999 682.094 21.2916 Q681.157 21.0572 680.011 21.0572 Q675.949 21.0572 673.761 23.7134 Q671.6 26.3436 671.6 31.2915 L671.6 46.656 L666.782 46.656 L666.782 17.4895 L671.6 17.4895 L671.6 22.0207 Q673.11 19.3645 675.532 18.0884 Q677.954 16.7864 681.417 16.7864 Q681.912 16.7864 682.511 16.8645 Q683.11 16.9166 683.839 17.0468 L683.865 21.9686 Z" fill="#000000" fill-rule="nonzero" fill-opacity="1" /><path clip-path="url(#clip050)" d="M688.891 17.4895 L693.683 17.4895 L693.683 46.656 L688.891 46.656 L688.891 17.4895 M688.891 6.13538 L693.683 6.13538 L693.683 12.2031 L688.891 12.2031 L688.891 6.13538 Z" fill="#000000" fill-rule="nonzero" fill-opacity="1" /><path clip-path="url(#clip050)" d="M724.646 32.0988 Q724.646 26.8124 722.459 23.8176 Q720.297 20.7968 716.495 20.7968 Q712.693 20.7968 710.506 23.8176 Q708.344 26.8124 708.344 32.0988 Q708.344 37.3852 710.506 40.406 Q712.693 43.4008 716.495 43.4008 Q720.297 43.4008 722.459 40.406 Q724.646 37.3852 724.646 32.0988 M708.344 21.9165 Q709.855 19.3124 712.146 18.0624 Q714.464 16.7864 717.667 16.7864 Q722.98 16.7864 726.287 21.0051 Q729.62 25.2238 729.62 32.0988 Q729.62 38.9737 726.287 43.1925 Q722.98 47.4112 717.667 47.4112 Q714.464 47.4112 712.146 46.1612 Q709.855 44.8852 708.344 42.281 L708.344 46.656 L703.527 46.656 L703.527 6.13538 L708.344 6.13538 L708.344 21.9165 Z" fill="#000000" fill-rule="nonzero" fill-opacity="1" /><path clip-path="url(#clip050)" d="M748.865 20.8488 Q745.011 20.8488 742.771 23.8697 Q740.532 26.8644 740.532 32.0988 Q740.532 37.3331 742.745 40.354 Q744.985 43.3487 748.865 43.3487 Q752.693 43.3487 754.933 40.3279 Q757.172 37.3071 757.172 32.0988 Q757.172 26.9165 754.933 23.8957 Q752.693 20.8488 748.865 20.8488 M748.865 16.7864 Q755.115 16.7864 758.683 20.8488 Q762.25 24.9113 762.25 32.0988 Q762.25 39.2602 758.683 43.3487 Q755.115 47.4112 748.865 47.4112 Q742.589 47.4112 739.021 43.3487 Q735.48 39.2602 735.48 32.0988 Q735.48 24.9113 739.021 20.8488 Q742.589 16.7864 748.865 16.7864 Z" fill="#000000" fill-rule="nonzero" fill-opacity="1" /><path clip-path="url(#clip050)" d="M787.094 21.9686 Q786.287 21.4999 785.323 21.2916 Q784.386 21.0572 783.24 21.0572 Q779.177 21.0572 776.99 23.7134 Q774.828 26.3436 774.828 31.2915 L774.828 46.656 L770.011 46.656 L770.011 17.4895 L774.828 17.4895 L774.828 22.0207 Q776.339 19.3645 778.761 18.0884 Q781.182 16.7864 784.646 16.7864 Q785.141 16.7864 785.74 16.8645 Q786.339 16.9166 787.068 17.0468 L787.094 21.9686 Z" fill="#000000" fill-rule="nonzero" fill-opacity="1" /><path clip-path="url(#clip052)" d="M243.393 977.972 L286.182 977.972 L328.972 966.059 L371.761 993.872 L414.55 1000.71 L457.339 990.591 L500.129 970.071 L542.918 957.696 L585.707 977.116 L628.496 969.349 L671.286 961.978 L714.075 976.508 L756.864 1031.55 L799.653 1038.9 L842.443 1042.96 L885.232 1065.94 L928.021 1059.84 L970.811 1070.59 L1013.6 1049.95 L1056.39 1068.72 L1099.18 1055.88 L1141.97 1028.04 L1141.97 915.583 L1099.18 905.336 L1056.39 891.414 L1013.6 893.548 L970.811 885.256 L928.021 871.897 L885.232 851.237 L842.443 836.779 L799.653 856.245 L756.864 856.445 L714.075 851.908 L671.286 851.905 L628.496 885.772 L585.707 896.195 L542.918 880.272 L500.129 916.415 L457.339 939.452 L414.55 964.263 L371.761 965.062 L328.972 954.196 L286.182 977.972 L243.393 977.972  Z" fill="#009af9" fill-rule="evenodd" fill-opacity="0.1"/>
<polyline clip-path="url(#clip052)" style="stroke:#009af9; stroke-linecap:round; stroke-linejoin:round; stroke-width:4; stroke-opacity:1; fill:none" points="243.393,977.972 286.182,977.972 328.972,960.128 371.761,979.467 414.55,982.487 457.339,965.021 500.129,943.243 542.918,918.984 585.707,936.656 628.496,927.56 671.286,906.941 714.075,914.208 756.864,944 799.653,947.57 842.443,939.867 885.232,958.588 928.021,965.87 970.811,977.923 1013.6,971.75 1056.39,980.066 1099.18,980.609 1141.97,971.813 "/>
<path clip-path="url(#clip052)" d="M243.393 977.972 L286.182 977.972 L328.972 120.65 L371.761 120.65 L414.55 120.65 L457.339 120.65 L500.129 120.65 L542.918 120.65 L585.707 120.65 L628.496 120.65 L671.286 120.65 L714.075 120.65 L756.864 120.65 L799.653 120.65 L842.443 120.65 L885.232 120.65 L928.021 120.65 L970.811 120.65 L1013.6 120.65 L1056.39 120.65 L1099.18 120.65 L1141.97 120.65 L1141.97 120.65 L1099.18 120.65 L1056.39 120.65 L1013.6 120.65 L970.811 120.65 L928.021 120.65 L885.232 120.65 L842.443 120.65 L799.653 120.65 L756.864 120.65 L714.075 120.65 L671.286 120.65 L628.496 120.65 L585.707 120.65 L542.918 120.65 L500.129 120.65 L457.339 120.65 L414.55 120.65 L371.761 120.65 L328.972 120.65 L286.182 977.972 L243.393 977.972  Z" fill="#e26f46" fill-rule="evenodd" fill-opacity="0.1"/>
<polyline clip-path="url(#clip052)" style="stroke:#e26f46; stroke-linecap:round; stroke-linejoin:round; stroke-width:4; stroke-opacity:1; fill:none" points="243.393,977.972 286.182,977.972 328.972,120.65 371.761,120.65 414.55,120.65 457.339,120.65 500.129,120.65 542.918,120.65 585.707,120.65 628.496,120.65 671.286,120.65 714.075,120.65 756.864,120.65 799.653,120.65 842.443,120.65 885.232,120.65 928.021,120.65 970.811,120.65 1013.6,120.65 1056.39,120.65 1099.18,120.65 1141.97,120.65 "/>
<path clip-path="url(#clip050)" d="M1400.27 1099.09 L2352.76 1099.09 L2352.76 92.1521 L1400.27 92.1521  Z" fill="#ffffff" fill-rule="evenodd" fill-opacity="1"/>
<polyline clip-path="url(#clip051)" style="stroke:#000000; stroke-linecap:round; stroke-linejoin:round; stroke-width:2; stroke-opacity:0.1; fill:none" points="1598.38,1099.09 1598.38,92.1521 "/>
<polyline clip-path="url(#clip051)" style="stroke:#000000; stroke-linecap:round; stroke-linejoin:round; stroke-width:2; stroke-opacity:0.1; fill:none" points="1812.33,1099.09 1812.33,92.1521 "/>
<polyline clip-path="url(#clip051)" style="stroke:#000000; stroke-linecap:round; stroke-linejoin:round; stroke-width:2; stroke-opacity:0.1; fill:none" points="2026.27,1099.09 2026.27,92.1521 "/>
<polyline clip-path="url(#clip051)" style="stroke:#000000; stroke-linecap:round; stroke-linejoin:round; stroke-width:2; stroke-opacity:0.1; fill:none" points="2240.22,1099.09 2240.22,92.1521 "/>
<polyline clip-path="url(#clip051)" style="stroke:#000000; stroke-linecap:round; stroke-linejoin:round; stroke-width:2; stroke-opacity:0.1; fill:none" points="1400.27,894.702 2352.76,894.702 "/>
<polyline clip-path="url(#clip051)" style="stroke:#000000; stroke-linecap:round; stroke-linejoin:round; stroke-width:2; stroke-opacity:0.1; fill:none" points="1400.27,671.864 2352.76,671.864 "/>
<polyline clip-path="url(#clip051)" style="stroke:#000000; stroke-linecap:round; stroke-linejoin:round; stroke-width:2; stroke-opacity:0.1; fill:none" points="1400.27,449.026 2352.76,449.026 "/>
<polyline clip-path="url(#clip051)" style="stroke:#000000; stroke-linecap:round; stroke-linejoin:round; stroke-width:2; stroke-opacity:0.1; fill:none" points="1400.27,226.189 2352.76,226.189 "/>
<polyline clip-path="url(#clip050)" style="stroke:#000000; stroke-linecap:round; stroke-linejoin:round; stroke-width:4; stroke-opacity:1; fill:none" points="1400.27,1099.09 2352.76,1099.09 "/>
<polyline clip-path="url(#clip050)" style="stroke:#000000; stroke-linecap:round; stroke-linejoin:round; stroke-width:4; stroke-opacity:1; fill:none" points="1598.38,1099.09 1598.38,1080.19 "/>
<polyline clip-path="url(#clip050)" style="stroke:#000000; stroke-linecap:round; stroke-linejoin:round; stroke-width:4; stroke-opacity:1; fill:none" points="1812.33,1099.09 1812.33,1080.19 "/>
<polyline clip-path="url(#clip050)" style="stroke:#000000; stroke-linecap:round; stroke-linejoin:round; stroke-width:4; stroke-opacity:1; fill:none" points="2026.27,1099.09 2026.27,1080.19 "/>
<polyline clip-path="url(#clip050)" style="stroke:#000000; stroke-linecap:round; stroke-linejoin:round; stroke-width:4; stroke-opacity:1; fill:none" points="2240.22,1099.09 2240.22,1080.19 "/>
<path clip-path="url(#clip050)" d="M1588.66 1126.93 L1607.02 1126.93 L1607.02 1130.86 L1592.94 1130.86 L1592.94 1139.34 Q1593.96 1138.99 1594.98 1138.83 Q1596 1138.64 1597.02 1138.64 Q1602.8 1138.64 1606.18 1141.81 Q1609.56 1144.98 1609.56 1150.4 Q1609.56 1155.98 1606.09 1159.08 Q1602.62 1162.16 1596.3 1162.16 Q1594.12 1162.16 1591.85 1161.79 Q1589.61 1161.42 1587.2 1160.68 L1587.2 1155.98 Q1589.28 1157.11 1591.51 1157.67 Q1593.73 1158.22 1596.21 1158.22 Q1600.21 1158.22 1602.55 1156.12 Q1604.89 1154.01 1604.89 1150.4 Q1604.89 1146.79 1602.55 1144.68 Q1600.21 1142.58 1596.21 1142.58 Q1594.33 1142.58 1592.46 1142.99 Q1590.6 1143.41 1588.66 1144.29 L1588.66 1126.93 Z" fill="#000000" fill-rule="nonzero" fill-opacity="1" /><path clip-path="url(#clip050)" d="M1787.02 1157.55 L1794.65 1157.55 L1794.65 1131.19 L1786.34 1132.85 L1786.34 1128.59 L1794.61 1126.93 L1799.28 1126.93 L1799.28 1157.55 L1806.92 1157.55 L1806.92 1161.49 L1787.02 1161.49 L1787.02 1157.55 Z" fill="#000000" fill-rule="nonzero" fill-opacity="1" /><path clip-path="url(#clip050)" d="M1826.37 1130.01 Q1822.76 1130.01 1820.93 1133.57 Q1819.12 1137.11 1819.12 1144.24 Q1819.12 1151.35 1820.93 1154.91 Q1822.76 1158.46 1826.37 1158.46 Q1830 1158.46 1831.81 1154.91 Q1833.64 1151.35 1833.64 1144.24 Q1833.64 1137.11 1831.81 1133.57 Q1830 1130.01 1826.37 1130.01 M1826.37 1126.3 Q1832.18 1126.3 1835.23 1130.91 Q1838.31 1135.49 1838.31 1144.24 Q1838.31 1152.97 1835.23 1157.58 Q1832.18 1162.16 1826.37 1162.16 Q1820.56 1162.16 1817.48 1157.58 Q1814.42 1152.97 1814.42 1144.24 Q1814.42 1135.49 1817.48 1130.91 Q1820.56 1126.3 1826.37 1126.3 Z" fill="#000000" fill-rule="nonzero" fill-opacity="1" /><path clip-path="url(#clip050)" d="M2001.46 1157.55 L2009.1 1157.55 L2009.1 1131.19 L2000.79 1132.85 L2000.79 1128.59 L2009.05 1126.93 L2013.73 1126.93 L2013.73 1157.55 L2021.37 1157.55 L2021.37 1161.49 L2001.46 1161.49 L2001.46 1157.55 Z" fill="#000000" fill-rule="nonzero" fill-opacity="1" /><path clip-path="url(#clip050)" d="M2030.86 1126.93 L2049.21 1126.93 L2049.21 1130.86 L2035.14 1130.86 L2035.14 1139.34 Q2036.16 1138.99 2037.18 1138.83 Q2038.2 1138.64 2039.21 1138.64 Q2045 1138.64 2048.38 1141.81 Q2051.76 1144.98 2051.76 1150.4 Q2051.76 1155.98 2048.29 1159.08 Q2044.82 1162.16 2038.5 1162.16 Q2036.32 1162.16 2034.05 1161.79 Q2031.81 1161.42 2029.4 1160.68 L2029.4 1155.98 Q2031.48 1157.11 2033.7 1157.67 Q2035.93 1158.22 2038.4 1158.22 Q2042.41 1158.22 2044.75 1156.12 Q2047.08 1154.01 2047.08 1150.4 Q2047.08 1146.79 2044.75 1144.68 Q2042.41 1142.58 2038.4 1142.58 Q2036.53 1142.58 2034.65 1142.99 Q2032.8 1143.41 2030.86 1144.29 L2030.86 1126.93 Z" fill="#000000" fill-rule="nonzero" fill-opacity="1" /><path clip-path="url(#clip050)" d="M2218.99 1157.55 L2235.31 1157.55 L2235.31 1161.49 L2213.37 1161.49 L2213.37 1157.55 Q2216.03 1154.8 2220.61 1150.17 Q2225.22 1145.52 2226.4 1144.17 Q2228.65 1141.65 2229.53 1139.91 Q2230.43 1138.15 2230.43 1136.46 Q2230.43 1133.71 2228.48 1131.97 Q2226.56 1130.24 2223.46 1130.24 Q2221.26 1130.24 2218.81 1131 Q2216.38 1131.77 2213.6 1133.32 L2213.6 1128.59 Q2216.42 1127.46 2218.88 1126.88 Q2221.33 1126.3 2223.37 1126.3 Q2228.74 1126.3 2231.93 1128.99 Q2235.13 1131.67 2235.13 1136.16 Q2235.13 1138.29 2234.32 1140.21 Q2233.53 1142.11 2231.42 1144.71 Q2230.85 1145.38 2227.74 1148.59 Q2224.64 1151.79 2218.99 1157.55 Z" fill="#000000" fill-rule="nonzero" fill-opacity="1" /><path clip-path="url(#clip050)" d="M2255.13 1130.01 Q2251.52 1130.01 2249.69 1133.57 Q2247.88 1137.11 2247.88 1144.24 Q2247.88 1151.35 2249.69 1154.91 Q2251.52 1158.46 2255.13 1158.46 Q2258.76 1158.46 2260.57 1154.91 Q2262.4 1151.35 2262.4 1144.24 Q2262.4 1137.11 2260.57 1133.57 Q2258.76 1130.01 2255.13 1130.01 M2255.13 1126.3 Q2260.94 1126.3 2263.99 1130.91 Q2267.07 1135.49 2267.07 1144.24 Q2267.07 1152.97 2263.99 1157.58 Q2260.94 1162.16 2255.13 1162.16 Q2249.32 1162.16 2246.24 1157.58 Q2243.18 1152.97 2243.18 1144.24 Q2243.18 1135.49 2246.24 1130.91 Q2249.32 1126.3 2255.13 1126.3 Z" fill="#000000" fill-rule="nonzero" fill-opacity="1" /><polyline clip-path="url(#clip050)" style="stroke:#000000; stroke-linecap:round; stroke-linejoin:round; stroke-width:4; stroke-opacity:1; fill:none" points="1400.27,1099.09 1400.27,92.1521 "/>
<polyline clip-path="url(#clip050)" style="stroke:#000000; stroke-linecap:round; stroke-linejoin:round; stroke-width:4; stroke-opacity:1; fill:none" points="1400.27,894.702 1419.16,894.702 "/>
<polyline clip-path="url(#clip050)" style="stroke:#000000; stroke-linecap:round; stroke-linejoin:round; stroke-width:4; stroke-opacity:1; fill:none" points="1400.27,671.864 1419.16,671.864 "/>
<polyline clip-path="url(#clip050)" style="stroke:#000000; stroke-linecap:round; stroke-linejoin:round; stroke-width:4; stroke-opacity:1; fill:none" points="1400.27,449.026 1419.16,449.026 "/>
<polyline clip-path="url(#clip050)" style="stroke:#000000; stroke-linecap:round; stroke-linejoin:round; stroke-width:4; stroke-opacity:1; fill:none" points="1400.27,226.189 1419.16,226.189 "/>
<path clip-path="url(#clip050)" d="M1269.34 908.047 L1276.98 908.047 L1276.98 881.681 L1268.67 883.348 L1268.67 879.088 L1276.93 877.422 L1281.61 877.422 L1281.61 908.047 L1289.24 908.047 L1289.24 911.982 L1269.34 911.982 L1269.34 908.047 Z" fill="#000000" fill-rule="nonzero" fill-opacity="1" /><path clip-path="url(#clip050)" d="M1298.69 906.102 L1303.57 906.102 L1303.57 911.982 L1298.69 911.982 L1298.69 906.102 Z" fill="#000000" fill-rule="nonzero" fill-opacity="1" /><path clip-path="url(#clip050)" d="M1323.76 880.5 Q1320.15 880.5 1318.32 884.065 Q1316.51 887.607 1316.51 894.736 Q1316.51 901.843 1318.32 905.408 Q1320.15 908.949 1323.76 908.949 Q1327.39 908.949 1329.2 905.408 Q1331.03 901.843 1331.03 894.736 Q1331.03 887.607 1329.2 884.065 Q1327.39 880.5 1323.76 880.5 M1323.76 876.797 Q1329.57 876.797 1332.62 881.403 Q1335.7 885.986 1335.7 894.736 Q1335.7 903.463 1332.62 908.07 Q1329.57 912.653 1323.76 912.653 Q1317.95 912.653 1314.87 908.07 Q1311.81 903.463 1311.81 894.736 Q1311.81 885.986 1314.87 881.403 Q1317.95 876.797 1323.76 876.797 Z" fill="#000000" fill-rule="nonzero" fill-opacity="1" /><path clip-path="url(#clip050)" d="M1347.95 908.047 L1364.27 908.047 L1364.27 911.982 L1342.32 911.982 L1342.32 908.047 Q1344.98 905.292 1349.57 900.662 Q1354.17 896.01 1355.35 894.667 Q1357.6 892.144 1358.48 890.408 Q1359.38 888.649 1359.38 886.959 Q1359.38 884.204 1357.44 882.468 Q1355.52 880.732 1352.42 880.732 Q1350.22 880.732 1347.76 881.496 Q1345.33 882.26 1342.55 883.811 L1342.55 879.088 Q1345.38 877.954 1347.83 877.375 Q1350.29 876.797 1352.32 876.797 Q1357.69 876.797 1360.89 879.482 Q1364.08 882.167 1364.08 886.658 Q1364.08 888.787 1363.27 890.709 Q1362.48 892.607 1360.38 895.199 Q1359.8 895.871 1356.7 899.088 Q1353.6 902.283 1347.95 908.047 Z" fill="#000000" fill-rule="nonzero" fill-opacity="1" /><path clip-path="url(#clip050)" d="M1268.74 685.209 L1276.37 685.209 L1276.37 658.843 L1268.06 660.51 L1268.06 656.251 L1276.33 654.584 L1281 654.584 L1281 685.209 L1288.64 685.209 L1288.64 689.144 L1268.74 689.144 L1268.74 685.209 Z" fill="#000000" fill-rule="nonzero" fill-opacity="1" /><path clip-path="url(#clip050)" d="M1298.09 683.265 L1302.97 683.265 L1302.97 689.144 L1298.09 689.144 L1298.09 683.265 Z" fill="#000000" fill-rule="nonzero" fill-opacity="1" /><path clip-path="url(#clip050)" d="M1323.16 657.663 Q1319.54 657.663 1317.72 661.228 Q1315.91 664.769 1315.91 671.899 Q1315.91 679.005 1317.72 682.57 Q1319.54 686.112 1323.16 686.112 Q1326.79 686.112 1328.6 682.57 Q1330.42 679.005 1330.42 671.899 Q1330.42 664.769 1328.6 661.228 Q1326.79 657.663 1323.16 657.663 M1323.16 653.959 Q1328.97 653.959 1332.02 658.566 Q1335.1 663.149 1335.1 671.899 Q1335.1 680.626 1332.02 685.232 Q1328.97 689.815 1323.16 689.815 Q1317.35 689.815 1314.27 685.232 Q1311.21 680.626 1311.21 671.899 Q1311.21 663.149 1314.27 658.566 Q1317.35 653.959 1323.16 653.959 Z" fill="#000000" fill-rule="nonzero" fill-opacity="1" /><path clip-path="url(#clip050)" d="M1343.36 654.584 L1361.72 654.584 L1361.72 658.519 L1347.65 658.519 L1347.65 666.991 Q1348.67 666.644 1349.68 666.482 Q1350.7 666.297 1351.72 666.297 Q1357.51 666.297 1360.89 669.468 Q1364.27 672.64 1364.27 678.056 Q1364.27 683.635 1360.79 686.737 Q1357.32 689.815 1351 689.815 Q1348.83 689.815 1346.56 689.445 Q1344.31 689.075 1341.91 688.334 L1341.91 683.635 Q1343.99 684.769 1346.21 685.325 Q1348.43 685.88 1350.91 685.88 Q1354.92 685.88 1357.25 683.774 Q1359.59 681.667 1359.59 678.056 Q1359.59 674.445 1357.25 672.339 Q1354.92 670.232 1350.91 670.232 Q1349.04 670.232 1347.16 670.649 Q1345.31 671.065 1343.36 671.945 L1343.36 654.584 Z" fill="#000000" fill-rule="nonzero" fill-opacity="1" /><path clip-path="url(#clip050)" d="M1267.83 462.371 L1275.47 462.371 L1275.47 436.006 L1267.16 437.672 L1267.16 433.413 L1275.42 431.746 L1280.1 431.746 L1280.1 462.371 L1287.74 462.371 L1287.74 466.306 L1267.83 466.306 L1267.83 462.371 Z" fill="#000000" fill-rule="nonzero" fill-opacity="1" /><path clip-path="url(#clip050)" d="M1297.18 460.427 L1302.07 460.427 L1302.07 466.306 L1297.18 466.306 L1297.18 460.427 Z" fill="#000000" fill-rule="nonzero" fill-opacity="1" /><path clip-path="url(#clip050)" d="M1322.25 434.825 Q1318.64 434.825 1316.81 438.39 Q1315.01 441.932 1315.01 449.061 Q1315.01 456.168 1316.81 459.732 Q1318.64 463.274 1322.25 463.274 Q1325.89 463.274 1327.69 459.732 Q1329.52 456.168 1329.52 449.061 Q1329.52 441.932 1327.69 438.39 Q1325.89 434.825 1322.25 434.825 M1322.25 431.121 Q1328.06 431.121 1331.12 435.728 Q1334.2 440.311 1334.2 449.061 Q1334.2 457.788 1331.12 462.394 Q1328.06 466.978 1322.25 466.978 Q1316.44 466.978 1313.36 462.394 Q1310.31 457.788 1310.31 449.061 Q1310.31 440.311 1313.36 435.728 Q1316.44 431.121 1322.25 431.121 Z" fill="#000000" fill-rule="nonzero" fill-opacity="1" /><path clip-path="url(#clip050)" d="M1352.42 449.895 Q1349.08 449.895 1347.16 451.677 Q1345.26 453.459 1345.26 456.584 Q1345.26 459.709 1347.16 461.492 Q1349.08 463.274 1352.42 463.274 Q1355.75 463.274 1357.67 461.492 Q1359.59 459.686 1359.59 456.584 Q1359.59 453.459 1357.67 451.677 Q1355.77 449.895 1352.42 449.895 M1347.74 447.904 Q1344.73 447.163 1343.04 445.103 Q1341.37 443.043 1341.37 440.08 Q1341.37 435.936 1344.31 433.529 Q1347.28 431.121 1352.42 431.121 Q1357.58 431.121 1360.52 433.529 Q1363.46 435.936 1363.46 440.08 Q1363.46 443.043 1361.77 445.103 Q1360.1 447.163 1357.11 447.904 Q1360.49 448.691 1362.37 450.982 Q1364.27 453.274 1364.27 456.584 Q1364.27 461.607 1361.19 464.293 Q1358.13 466.978 1352.42 466.978 Q1346.7 466.978 1343.62 464.293 Q1340.56 461.607 1340.56 456.584 Q1340.56 453.274 1342.46 450.982 Q1344.36 448.691 1347.74 447.904 M1346.03 440.52 Q1346.03 443.205 1347.69 444.709 Q1349.38 446.214 1352.42 446.214 Q1355.42 446.214 1357.11 444.709 Q1358.83 443.205 1358.83 440.52 Q1358.83 437.834 1357.11 436.33 Q1355.42 434.825 1352.42 434.825 Q1349.38 434.825 1347.69 436.33 Q1346.03 437.834 1346.03 440.52 Z" fill="#000000" fill-rule="nonzero" fill-opacity="1" /><path clip-path="url(#clip050)" d="M1268.97 239.534 L1276.61 239.534 L1276.61 213.168 L1268.3 214.835 L1268.3 210.576 L1276.56 208.909 L1281.24 208.909 L1281.24 239.534 L1288.87 239.534 L1288.87 243.469 L1268.97 243.469 L1268.97 239.534 Z" fill="#000000" fill-rule="nonzero" fill-opacity="1" /><path clip-path="url(#clip050)" d="M1298.32 237.589 L1303.2 237.589 L1303.2 243.469 L1298.32 243.469 L1298.32 237.589 Z" fill="#000000" fill-rule="nonzero" fill-opacity="1" /><path clip-path="url(#clip050)" d="M1314.2 239.534 L1321.84 239.534 L1321.84 213.168 L1313.53 214.835 L1313.53 210.576 L1321.79 208.909 L1326.47 208.909 L1326.47 239.534 L1334.11 239.534 L1334.11 243.469 L1314.2 243.469 L1314.2 239.534 Z" fill="#000000" fill-rule="nonzero" fill-opacity="1" /><path clip-path="url(#clip050)" d="M1344.36 239.534 L1352 239.534 L1352 213.168 L1343.69 214.835 L1343.69 210.576 L1351.95 208.909 L1356.63 208.909 L1356.63 239.534 L1364.27 239.534 L1364.27 243.469 L1344.36 243.469 L1344.36 239.534 Z" fill="#000000" fill-rule="nonzero" fill-opacity="1" /><path clip-path="url(#clip050)" d="M1733.19 41.1092 L1733.19 30.6665 L1724.6 30.6665 L1724.6 26.3436 L1738.4 26.3436 L1738.4 43.0362 Q1735.35 45.1977 1731.68 46.3175 Q1728.01 47.4112 1723.84 47.4112 Q1714.73 47.4112 1709.57 42.0987 Q1704.44 36.7602 1704.44 27.2551 Q1704.44 17.7239 1709.57 12.4114 Q1714.73 7.07288 1723.84 7.07288 Q1727.65 7.07288 1731.06 8.01037 Q1734.49 8.94787 1737.38 10.7708 L1737.38 16.3697 Q1734.47 13.8958 1731.19 12.6458 Q1727.91 11.3958 1724.29 11.3958 Q1717.15 11.3958 1713.56 15.3801 Q1709.99 19.3645 1709.99 27.2551 Q1709.99 35.1196 1713.56 39.104 Q1717.15 43.0883 1724.29 43.0883 Q1727.07 43.0883 1729.26 42.6196 Q1731.45 42.1248 1733.19 41.1092 Z" fill="#000000" fill-rule="nonzero" fill-opacity="1" /><path clip-path="url(#clip050)" d="M1753.27 12.0989 L1753.27 42.3331 L1759.62 42.3331 Q1767.67 42.3331 1771.39 38.6873 Q1775.14 35.0415 1775.14 27.1769 Q1775.14 19.3645 1771.39 15.7447 Q1767.67 12.0989 1759.62 12.0989 L1753.27 12.0989 M1748.01 7.776 L1758.82 7.776 Q1770.12 7.776 1775.41 12.4895 Q1780.69 17.177 1780.69 27.1769 Q1780.69 37.229 1775.38 41.9425 Q1770.07 46.656 1758.82 46.656 L1748.01 46.656 L1748.01 7.776 Z" fill="#000000" fill-rule="nonzero" fill-opacity="1" /><path clip-path="url(#clip050)" d="M1794.34 12.0989 L1794.34 26.7082 L1800.95 26.7082 Q1804.62 26.7082 1806.63 24.8072 Q1808.63 22.9061 1808.63 19.3905 Q1808.63 15.901 1806.63 13.9999 Q1804.62 12.0989 1800.95 12.0989 L1794.34 12.0989 M1789.08 7.776 L1800.95 7.776 Q1807.49 7.776 1810.82 10.7447 Q1814.18 13.6874 1814.18 19.3905 Q1814.18 25.1457 1810.82 28.0884 Q1807.49 31.0311 1800.95 31.0311 L1794.34 31.0311 L1794.34 46.656 L1789.08 46.656 L1789.08 7.776 Z" fill="#000000" fill-rule="nonzero" fill-opacity="1" /><path clip-path="url(#clip050)" d="M1843.45 12.0989 L1843.45 42.3331 L1849.81 42.3331 Q1857.85 42.3331 1861.58 38.6873 Q1865.33 35.0415 1865.33 27.1769 Q1865.33 19.3645 1861.58 15.7447 Q1857.85 12.0989 1849.81 12.0989 L1843.45 12.0989 M1838.19 7.776 L1849 7.776 Q1860.3 7.776 1865.59 12.4895 Q1870.87 17.177 1870.87 27.1769 Q1870.87 37.229 1865.56 41.9425 Q1860.25 46.656 1849 46.656 L1838.19 46.656 L1838.19 7.776 Z" fill="#000000" fill-rule="nonzero" fill-opacity="1" /><path clip-path="url(#clip050)" d="M1904 30.8748 L1904 33.2186 L1881.97 33.2186 Q1882.28 38.1665 1884.94 40.7706 Q1887.62 43.3487 1892.38 43.3487 Q1895.14 43.3487 1897.72 42.6716 Q1900.33 41.9946 1902.88 40.6404 L1902.88 45.1716 Q1900.3 46.2654 1897.59 46.8383 Q1894.88 47.4112 1892.1 47.4112 Q1885.12 47.4112 1881.03 43.3487 Q1876.97 39.2862 1876.97 32.3592 Q1876.97 25.1978 1880.82 21.0051 Q1884.7 16.7864 1891.26 16.7864 Q1897.15 16.7864 1900.56 20.5884 Q1904 24.3645 1904 30.8748 M1899.21 29.4686 Q1899.15 25.5363 1896.99 23.1926 Q1894.86 20.8488 1891.32 20.8488 Q1887.31 20.8488 1884.88 23.1145 Q1882.49 25.3801 1882.12 29.4946 L1899.21 29.4686 Z" fill="#000000" fill-rule="nonzero" fill-opacity="1" /><path clip-path="url(#clip050)" d="M1926.63 6.13538 L1926.63 10.1197 L1922.05 10.1197 Q1919.47 10.1197 1918.45 11.1614 Q1917.46 12.2031 1917.46 14.9114 L1917.46 17.4895 L1925.35 17.4895 L1925.35 21.2134 L1917.46 21.2134 L1917.46 46.656 L1912.64 46.656 L1912.64 21.2134 L1908.06 21.2134 L1908.06 17.4895 L1912.64 17.4895 L1912.64 15.4583 Q1912.64 10.5885 1914.91 8.37496 Q1917.18 6.13538 1922.1 6.13538 L1926.63 6.13538 Z" fill="#000000" fill-rule="nonzero" fill-opacity="1" /><path clip-path="url(#clip050)" d="M1930.64 6.13538 L1935.43 6.13538 L1935.43 46.656 L1930.64 46.656 L1930.64 6.13538 Z" fill="#000000" fill-rule="nonzero" fill-opacity="1" /><path clip-path="url(#clip050)" d="M1958.71 31.9946 Q1952.9 31.9946 1950.66 33.3227 Q1948.43 34.6509 1948.43 37.854 Q1948.43 40.406 1950.09 41.9164 Q1951.78 43.4008 1954.68 43.4008 Q1958.66 43.4008 1961.06 40.5883 Q1963.48 37.7498 1963.48 33.0623 L1963.48 31.9946 L1958.71 31.9946 M1968.27 30.0155 L1968.27 46.656 L1963.48 46.656 L1963.48 42.2289 Q1961.84 44.8852 1959.39 46.1612 Q1956.94 47.4112 1953.4 47.4112 Q1948.92 47.4112 1946.26 44.9112 Q1943.63 42.3852 1943.63 38.1665 Q1943.63 33.2446 1946.91 30.7446 Q1950.22 28.2446 1956.76 28.2446 L1963.48 28.2446 L1963.48 27.7759 Q1963.48 24.4686 1961.29 22.6718 Q1959.13 20.8488 1955.2 20.8488 Q1952.7 20.8488 1950.33 21.4478 Q1947.96 22.0468 1945.77 23.2447 L1945.77 18.8176 Q1948.4 17.802 1950.87 17.3072 Q1953.35 16.7864 1955.69 16.7864 Q1962.02 16.7864 1965.14 20.0676 Q1968.27 23.3488 1968.27 30.0155 Z" fill="#000000" fill-rule="nonzero" fill-opacity="1" /><path clip-path="url(#clip050)" d="M1982.88 9.20828 L1982.88 17.4895 L1992.75 17.4895 L1992.75 21.2134 L1982.88 21.2134 L1982.88 37.0467 Q1982.88 40.6144 1983.84 41.63 Q1984.83 42.6456 1987.83 42.6456 L1992.75 42.6456 L1992.75 46.656 L1987.83 46.656 Q1982.28 46.656 1980.17 44.5987 Q1978.06 42.5154 1978.06 37.0467 L1978.06 21.2134 L1974.54 21.2134 L1974.54 17.4895 L1978.06 17.4895 L1978.06 9.20828 L1982.88 9.20828 Z" fill="#000000" fill-rule="nonzero" fill-opacity="1" /><path clip-path="url(#clip050)" d="M2010.35 20.8488 Q2006.5 20.8488 2004.26 23.8697 Q2002.02 26.8644 2002.02 32.0988 Q2002.02 37.3331 2004.23 40.354 Q2006.47 43.3487 2010.35 43.3487 Q2014.18 43.3487 2016.42 40.3279 Q2018.66 37.3071 2018.66 32.0988 Q2018.66 26.9165 2016.42 23.8957 Q2014.18 20.8488 2010.35 20.8488 M2010.35 16.7864 Q2016.6 16.7864 2020.17 20.8488 Q2023.74 24.9113 2023.74 32.0988 Q2023.74 39.2602 2020.17 43.3487 Q2016.6 47.4112 2010.35 47.4112 Q2004.08 47.4112 2000.51 43.3487 Q1996.97 39.2602 1996.97 32.0988 Q1996.97 24.9113 2000.51 20.8488 Q2004.08 16.7864 2010.35 16.7864 Z" fill="#000000" fill-rule="nonzero" fill-opacity="1" /><path clip-path="url(#clip050)" d="M2048.58 21.9686 Q2047.77 21.4999 2046.81 21.2916 Q2045.87 21.0572 2044.73 21.0572 Q2040.66 21.0572 2038.48 23.7134 Q2036.32 26.3436 2036.32 31.2915 L2036.32 46.656 L2031.5 46.656 L2031.5 17.4895 L2036.32 17.4895 L2036.32 22.0207 Q2037.83 19.3645 2040.25 18.0884 Q2042.67 16.7864 2046.13 16.7864 Q2046.63 16.7864 2047.23 16.8645 Q2047.83 16.9166 2048.55 17.0468 L2048.58 21.9686 Z" fill="#000000" fill-rule="nonzero" fill-opacity="1" /><path clip-path="url(#clip051)" d="M1512.8 1045.51 L1555.59 1008.33 L1598.38 958.163 L1641.17 973.764 L1683.96 1018.45 L1726.75 1011.17 L1769.54 1002.3 L1812.33 982.13 L1855.12 968.308 L1897.91 958.051 L1940.7 958.542 L1983.48 949.738 L2026.27 903.962 L2069.06 903.225 L2111.85 863.168 L2154.64 860.811 L2197.43 842.852 L2240.22 838.348 L2283.01 790.854 L2325.8 761.317 L2325.8 242.1 L2283.01 240.271 L2240.22 259.194 L2197.43 306.601 L2154.64 336.279 L2111.85 394.294 L2069.06 413.492 L2026.27 453.924 L1983.48 496.231 L1940.7 532.909 L1897.91 538.234 L1855.12 567.337 L1812.33 663.076 L1769.54 701.519 L1726.75 728.919 L1683.96 754.552 L1641.17 838.723 L1598.38 876.848 L1555.59 916.37 L1512.8 965.997  Z" fill="#009af9" fill-rule="evenodd" fill-opacity="0.1"/>
<polyline clip-path="url(#clip051)" style="stroke:#009af9; stroke-linecap:round; stroke-linejoin:round; stroke-width:4; stroke-opacity:1; fill:none" points="1512.8,1005.75 1555.59,962.349 1598.38,917.505 1641.17,906.244 1683.96,886.504 1726.75,870.044 1769.54,851.91 1812.33,822.603 1855.12,767.823 1897.91,748.143 1940.7,745.725 1983.48,722.985 2026.27,678.943 2069.06,658.359 2111.85,628.731 2154.64,598.545 2197.43,574.726 2240.22,548.771 2283.01,515.562 2325.8,501.708 "/>
<path clip-path="url(#clip051)" d="M1512.8 1030.67 L1555.59 1070.59 L1598.38 1032.29 L1641.17 995.504 L1683.96 961.351 L1726.75 983.591 L1769.54 953.566 L1812.33 921.17 L1855.12 910.867 L1897.91 867.763 L1940.7 852.723 L1983.48 827.74 L2026.27 811.808 L2069.06 795.259 L2111.85 745.59 L2154.64 696.882 L2197.43 672.455 L2240.22 664.321 L2283.01 658.188 L2325.8 674.017 L2325.8 120.65 L2283.01 144.434 L2240.22 198.83 L2197.43 237.339 L2154.64 317.704 L2111.85 373.908 L2069.06 423.948 L2026.27 502.489 L1983.48 546.299 L1940.7 511.671 L1897.91 542.42 L1855.12 605.699 L1812.33 670.86 L1769.54 683.556 L1726.75 726.788 L1683.96 793.753 L1641.17 848.249 L1598.38 854.452 L1555.59 883.709 L1512.8 955.439  Z" fill="#e26f46" fill-rule="evenodd" fill-opacity="0.1"/>
<polyline clip-path="url(#clip051)" style="stroke:#e26f46; stroke-linecap:round; stroke-linejoin:round; stroke-width:4; stroke-opacity:1; fill:none" points="1512.8,993.055 1555.59,977.15 1598.38,943.372 1641.17,921.877 1683.96,877.552 1726.75,855.19 1769.54,818.561 1812.33,796.015 1855.12,758.283 1897.91,705.091 1940.7,682.197 1983.48,687.019 2026.27,657.148 2069.06,609.603 2111.85,559.749 2154.64,507.293 2197.43,454.897 2240.22,431.576 2283.01,401.311 2325.8,397.334 "/>
</svg>
