<?xml version="1.0" encoding="utf-8"?>
<svg xmlns="http://www.w3.org/2000/svg" xmlns:xlink="http://www.w3.org/1999/xlink" width="600" height="400" viewBox="0 0 2400 1600">
<defs>
  <clipPath id="clip040">
    <rect x="0" y="0" width="2400" height="1600"/>
  </clipPath>
</defs>
<path clip-path="url(#clip040)" d="M0 1600 L2400 1600 L2400 0 L0 0  Z" fill="#ffffff" fill-rule="evenodd" fill-opacity="1"/>
<defs>
  <clipPath id="clip041">
    <rect x="480" y="0" width="1681" height="1600"/>
  </clipPath>
</defs>
<path clip-path="url(#clip040)" d="M230.765 1486.45 L2352.76 1486.45 L2352.76 106.192 L230.765 106.192  Z" fill="#ffffff" fill-rule="evenodd" fill-opacity="1"/>
<defs>
  <clipPath id="clip042">
    <rect x="230" y="106" width="2123" height="1381"/>
  </clipPath>
</defs>
<polyline clip-path="url(#clip042)" style="stroke:#000000; stroke-linecap:round; stroke-linejoin:round; stroke-width:2; stroke-opacity:0.1; fill:none" points="541.056,1486.45 541.056,106.192 "/>
<polyline clip-path="url(#clip042)" style="stroke:#000000; stroke-linecap:round; stroke-linejoin:round; stroke-width:2; stroke-opacity:0.1; fill:none" points="916.408,1486.45 916.408,106.192 "/>
<polyline clip-path="url(#clip042)" style="stroke:#000000; stroke-linecap:round; stroke-linejoin:round; stroke-width:2; stroke-opacity:0.1; fill:none" points="1291.76,1486.45 1291.76,106.192 "/>
<polyline clip-path="url(#clip042)" style="stroke:#000000; stroke-linecap:round; stroke-linejoin:round; stroke-width:2; stroke-opacity:0.1; fill:none" points="1667.11,1486.45 1667.11,106.192 "/>
<polyline clip-path="url(#clip042)" style="stroke:#000000; stroke-linecap:round; stroke-linejoin:round; stroke-width:2; stroke-opacity:0.1; fill:none" points="2042.46,1486.45 2042.46,106.192 "/>
<polyline clip-path="url(#clip042)" style="stroke:#000000; stroke-linecap:round; stroke-linejoin:round; stroke-width:2; stroke-opacity:0.1; fill:none" points="230.765,1420.86 2352.76,1420.86 "/>
<polyline clip-path="url(#clip042)" style="stroke:#000000; stroke-linecap:round; stroke-linejoin:round; stroke-width:2; stroke-opacity:0.1; fill:none" points="230.765,1149.27 2352.76,1149.27 "/>
<polyline clip-path="url(#clip042)" style="stroke:#000000; stroke-linecap:round; stroke-linejoin:round; stroke-width:2; stroke-opacity:0.1; fill:none" points="230.765,877.672 2352.76,877.672 "/>
<polyline clip-path="url(#clip042)" style="stroke:#000000; stroke-linecap:round; stroke-linejoin:round; stroke-width:2; stroke-opacity:0.1; fill:none" points="230.765,606.079 2352.76,606.079 "/>
<polyline clip-path="url(#clip042)" style="stroke:#000000; stroke-linecap:round; stroke-linejoin:round; stroke-width:2; stroke-opacity:0.1; fill:none" points="230.765,334.486 2352.76,334.486 "/>
<polyline clip-path="url(#clip040)" style="stroke:#000000; stroke-linecap:round; stroke-linejoin:round; stroke-width:4; stroke-opacity:1; fill:none" points="230.765,1486.45 2352.76,1486.45 "/>
<polyline clip-path="url(#clip040)" style="stroke:#000000; stroke-linecap:round; stroke-linejoin:round; stroke-width:4; stroke-opacity:1; fill:none" points="541.056,1486.45 541.056,1467.55 "/>
<polyline clip-path="url(#clip040)" style="stroke:#000000; stroke-linecap:round; stroke-linejoin:round; stroke-width:4; stroke-opacity:1; fill:none" points="916.408,1486.45 916.408,1467.55 "/>
<polyline clip-path="url(#clip040)" style="stroke:#000000; stroke-linecap:round; stroke-linejoin:round; stroke-width:4; stroke-opacity:1; fill:none" points="1291.76,1486.45 1291.76,1467.55 "/>
<polyline clip-path="url(#clip040)" style="stroke:#000000; stroke-linecap:round; stroke-linejoin:round; stroke-width:4; stroke-opacity:1; fill:none" points="1667.11,1486.45 1667.11,1467.55 "/>
<polyline clip-path="url(#clip040)" style="stroke:#000000; stroke-linecap:round; stroke-linejoin:round; stroke-width:4; stroke-opacity:1; fill:none" points="2042.46,1486.45 2042.46,1467.55 "/>
<path clip-path="url(#clip040)" d="M545.303 1530.21 Q548.66 1530.93 550.535 1533.2 Q552.433 1535.47 552.433 1538.8 Q552.433 1543.92 548.914 1546.72 Q545.396 1549.52 538.915 1549.52 Q536.739 1549.52 534.424 1549.08 Q532.132 1548.66 529.678 1547.81 L529.678 1543.29 Q531.623 1544.43 533.938 1545.01 Q536.252 1545.58 538.776 1545.58 Q543.174 1545.58 545.465 1543.85 Q547.78 1542.11 547.78 1538.8 Q547.78 1535.75 545.627 1534.03 Q543.498 1532.3 539.678 1532.3 L535.651 1532.3 L535.651 1528.45 L539.864 1528.45 Q543.313 1528.45 545.141 1527.09 Q546.97 1525.7 546.97 1523.11 Q546.97 1520.45 545.072 1519.03 Q543.197 1517.6 539.678 1517.6 Q537.757 1517.6 535.558 1518.01 Q533.359 1518.43 530.72 1519.31 L530.72 1515.14 Q533.382 1514.4 535.697 1514.03 Q538.035 1513.66 540.095 1513.66 Q545.419 1513.66 548.521 1516.09 Q551.623 1518.5 551.623 1522.62 Q551.623 1525.49 549.979 1527.48 Q548.336 1529.45 545.303 1530.21 Z" fill="#000000" fill-rule="nonzero" fill-opacity="1" /><path clip-path="url(#clip040)" d="M916.813 1529.7 Q913.665 1529.7 911.813 1531.86 Q909.984 1534.01 909.984 1537.76 Q909.984 1541.49 911.813 1543.66 Q913.665 1545.82 916.813 1545.82 Q919.961 1545.82 921.79 1543.66 Q923.642 1541.49 923.642 1537.76 Q923.642 1534.01 921.79 1531.86 Q919.961 1529.7 916.813 1529.7 M926.095 1515.05 L926.095 1519.31 Q924.336 1518.48 922.531 1518.04 Q920.748 1517.6 918.989 1517.6 Q914.359 1517.6 911.906 1520.72 Q909.475 1523.85 909.128 1530.17 Q910.494 1528.15 912.554 1527.09 Q914.614 1526 917.091 1526 Q922.299 1526 925.308 1529.17 Q928.341 1532.32 928.341 1537.76 Q928.341 1543.08 925.193 1546.3 Q922.044 1549.52 916.813 1549.52 Q910.818 1549.52 907.646 1544.94 Q904.475 1540.33 904.475 1531.6 Q904.475 1523.41 908.364 1518.55 Q912.253 1513.66 918.804 1513.66 Q920.563 1513.66 922.345 1514.01 Q924.151 1514.36 926.095 1515.05 Z" fill="#000000" fill-rule="nonzero" fill-opacity="1" /><path clip-path="url(#clip040)" d="M1282.06 1548.13 L1282.06 1543.87 Q1283.82 1544.7 1285.63 1545.14 Q1287.43 1545.58 1289.17 1545.58 Q1293.8 1545.58 1296.23 1542.48 Q1298.68 1539.36 1299.03 1533.01 Q1297.69 1535.01 1295.63 1536.07 Q1293.57 1537.13 1291.07 1537.13 Q1285.88 1537.13 1282.85 1534.01 Q1279.84 1530.86 1279.84 1525.42 Q1279.84 1520.1 1282.99 1516.88 Q1286.14 1513.66 1291.37 1513.66 Q1297.36 1513.66 1300.51 1518.27 Q1303.68 1522.85 1303.68 1531.6 Q1303.68 1539.77 1299.79 1544.66 Q1295.93 1549.52 1289.38 1549.52 Q1287.62 1549.52 1285.81 1549.17 Q1284.01 1548.82 1282.06 1548.13 M1291.37 1533.48 Q1294.51 1533.48 1296.34 1531.32 Q1298.2 1529.17 1298.2 1525.42 Q1298.2 1521.7 1296.34 1519.54 Q1294.51 1517.37 1291.37 1517.37 Q1288.22 1517.37 1286.37 1519.54 Q1284.54 1521.7 1284.54 1525.42 Q1284.54 1529.17 1286.37 1531.32 Q1288.22 1533.48 1291.37 1533.48 Z" fill="#000000" fill-rule="nonzero" fill-opacity="1" /><path clip-path="url(#clip040)" d="M1642.6 1544.91 L1650.24 1544.91 L1650.24 1518.55 L1641.93 1520.21 L1641.93 1515.95 L1650.19 1514.29 L1654.87 1514.29 L1654.87 1544.91 L1662.51 1544.91 L1662.51 1548.85 L1642.6 1548.85 L1642.6 1544.91 Z" fill="#000000" fill-rule="nonzero" fill-opacity="1" /><path clip-path="url(#clip040)" d="M1675.98 1544.91 L1692.3 1544.91 L1692.3 1548.85 L1670.35 1548.85 L1670.35 1544.91 Q1673.02 1542.16 1677.6 1537.53 Q1682.2 1532.88 1683.39 1531.53 Q1685.63 1529.01 1686.51 1527.27 Q1687.41 1525.51 1687.41 1523.82 Q1687.41 1521.07 1685.47 1519.33 Q1683.55 1517.6 1680.45 1517.6 Q1678.25 1517.6 1675.79 1518.36 Q1673.36 1519.13 1670.58 1520.68 L1670.58 1515.95 Q1673.41 1514.82 1675.86 1514.24 Q1678.32 1513.66 1680.35 1513.66 Q1685.72 1513.66 1688.92 1516.35 Q1692.11 1519.03 1692.11 1523.52 Q1692.11 1525.65 1691.3 1527.57 Q1690.52 1529.47 1688.41 1532.07 Q1687.83 1532.74 1684.73 1535.95 Q1681.63 1539.15 1675.98 1544.91 Z" fill="#000000" fill-rule="nonzero" fill-opacity="1" /><path clip-path="url(#clip040)" d="M2017.65 1544.91 L2025.29 1544.91 L2025.29 1518.55 L2016.98 1520.21 L2016.98 1515.95 L2025.24 1514.29 L2029.92 1514.29 L2029.92 1544.91 L2037.56 1544.91 L2037.56 1548.85 L2017.65 1548.85 L2017.65 1544.91 Z" fill="#000000" fill-rule="nonzero" fill-opacity="1" /><path clip-path="url(#clip040)" d="M2047.05 1514.29 L2065.4 1514.29 L2065.4 1518.22 L2051.33 1518.22 L2051.33 1526.7 Q2052.35 1526.35 2053.37 1526.19 Q2054.39 1526 2055.4 1526 Q2061.19 1526 2064.57 1529.17 Q2067.95 1532.34 2067.95 1537.76 Q2067.95 1543.34 2064.48 1546.44 Q2061.01 1549.52 2054.69 1549.52 Q2052.51 1549.52 2050.24 1549.15 Q2048 1548.78 2045.59 1548.04 L2045.59 1543.34 Q2047.67 1544.47 2049.9 1545.03 Q2052.12 1545.58 2054.59 1545.58 Q2058.6 1545.58 2060.94 1543.48 Q2063.27 1541.37 2063.27 1537.76 Q2063.27 1534.15 2060.94 1532.04 Q2058.6 1529.94 2054.59 1529.94 Q2052.72 1529.94 2050.84 1530.35 Q2048.99 1530.77 2047.05 1531.65 L2047.05 1514.29 Z" fill="#000000" fill-rule="nonzero" fill-opacity="1" /><polyline clip-path="url(#clip040)" style="stroke:#000000; stroke-linecap:round; stroke-linejoin:round; stroke-width:4; stroke-opacity:1; fill:none" points="230.765,1486.45 230.765,106.192 "/>
<polyline clip-path="url(#clip040)" style="stroke:#000000; stroke-linecap:round; stroke-linejoin:round; stroke-width:4; stroke-opacity:1; fill:none" points="230.765,1420.86 249.662,1420.86 "/>
<polyline clip-path="url(#clip040)" style="stroke:#000000; stroke-linecap:round; stroke-linejoin:round; stroke-width:4; stroke-opacity:1; fill:none" points="230.765,1149.27 249.662,1149.27 "/>
<polyline clip-path="url(#clip040)" style="stroke:#000000; stroke-linecap:round; stroke-linejoin:round; stroke-width:4; stroke-opacity:1; fill:none" points="230.765,877.672 249.662,877.672 "/>
<polyline clip-path="url(#clip040)" style="stroke:#000000; stroke-linecap:round; stroke-linejoin:round; stroke-width:4; stroke-opacity:1; fill:none" points="230.765,606.079 249.662,606.079 "/>
<polyline clip-path="url(#clip040)" style="stroke:#000000; stroke-linecap:round; stroke-linejoin:round; stroke-width:4; stroke-opacity:1; fill:none" points="230.765,334.486 249.662,334.486 "/>
<path clip-path="url(#clip040)" d="M50.9921 1403.58 L73.2142 1403.58 L73.2142 1405.57 L60.668 1438.14 L55.7838 1438.14 L67.5893 1407.51 L50.9921 1407.51 L50.9921 1403.58 Z" fill="#000000" fill-rule="nonzero" fill-opacity="1" /><path clip-path="url(#clip040)" d="M86.3623 1434.2 L102.682 1434.2 L102.682 1438.14 L80.7373 1438.14 L80.7373 1434.2 Q83.3994 1431.45 87.9827 1426.82 Q92.5891 1422.17 93.7697 1420.82 Q96.015 1418.3 96.8947 1416.56 Q97.7974 1414.8 97.7974 1413.11 Q97.7974 1410.36 95.853 1408.62 Q93.9317 1406.89 90.8299 1406.89 Q88.6308 1406.89 86.1771 1407.65 Q83.7466 1408.42 80.9688 1409.97 L80.9688 1405.24 Q83.7929 1404.11 86.2466 1403.53 Q88.7003 1402.95 90.7373 1402.95 Q96.1076 1402.95 99.3021 1405.64 Q102.496 1408.32 102.496 1412.81 Q102.496 1414.94 101.686 1416.86 Q100.899 1418.76 98.7928 1421.36 Q98.2141 1422.03 95.1123 1425.24 Q92.0104 1428.44 86.3623 1434.2 Z" fill="#000000" fill-rule="nonzero" fill-opacity="1" /><path clip-path="url(#clip040)" d="M122.496 1406.66 Q118.885 1406.66 117.057 1410.22 Q115.251 1413.76 115.251 1420.89 Q115.251 1428 117.057 1431.56 Q118.885 1435.11 122.496 1435.11 Q126.131 1435.11 127.936 1431.56 Q129.765 1428 129.765 1420.89 Q129.765 1413.76 127.936 1410.22 Q126.131 1406.66 122.496 1406.66 M122.496 1402.95 Q128.307 1402.95 131.362 1407.56 Q134.441 1412.14 134.441 1420.89 Q134.441 1429.62 131.362 1434.23 Q128.307 1438.81 122.496 1438.81 Q116.686 1438.81 113.608 1434.23 Q110.552 1429.62 110.552 1420.89 Q110.552 1412.14 113.608 1407.56 Q116.686 1402.95 122.496 1402.95 Z" fill="#000000" fill-rule="nonzero" fill-opacity="1" /><path clip-path="url(#clip040)" d="M152.658 1406.66 Q149.047 1406.66 147.218 1410.22 Q145.413 1413.76 145.413 1420.89 Q145.413 1428 147.218 1431.56 Q149.047 1435.11 152.658 1435.11 Q156.292 1435.11 158.098 1431.56 Q159.927 1428 159.927 1420.89 Q159.927 1413.76 158.098 1410.22 Q156.292 1406.66 152.658 1406.66 M152.658 1402.95 Q158.468 1402.95 161.524 1407.56 Q164.603 1412.14 164.603 1420.89 Q164.603 1429.62 161.524 1434.23 Q158.468 1438.81 152.658 1438.81 Q146.848 1438.81 143.769 1434.23 Q140.714 1429.62 140.714 1420.89 Q140.714 1412.14 143.769 1407.56 Q146.848 1402.95 152.658 1402.95 Z" fill="#000000" fill-rule="nonzero" fill-opacity="1" /><path clip-path="url(#clip040)" d="M182.82 1406.66 Q179.209 1406.66 177.38 1410.22 Q175.575 1413.76 175.575 1420.89 Q175.575 1428 177.38 1431.56 Q179.209 1435.11 182.82 1435.11 Q186.454 1435.11 188.26 1431.56 Q190.089 1428 190.089 1420.89 Q190.089 1413.76 188.26 1410.22 Q186.454 1406.66 182.82 1406.66 M182.82 1402.95 Q188.63 1402.95 191.686 1407.56 Q194.765 1412.14 194.765 1420.89 Q194.765 1429.62 191.686 1434.23 Q188.63 1438.81 182.82 1438.81 Q177.01 1438.81 173.931 1434.23 Q170.876 1429.62 170.876 1420.89 Q170.876 1412.14 173.931 1407.56 Q177.01 1402.95 182.82 1402.95 Z" fill="#000000" fill-rule="nonzero" fill-opacity="1" /><path clip-path="url(#clip040)" d="M50.9921 1131.99 L73.2142 1131.99 L73.2142 1133.98 L60.668 1166.55 L55.7838 1166.55 L67.5893 1135.92 L50.9921 1135.92 L50.9921 1131.99 Z" fill="#000000" fill-rule="nonzero" fill-opacity="1" /><path clip-path="url(#clip040)" d="M86.3623 1162.61 L102.682 1162.61 L102.682 1166.55 L80.7373 1166.55 L80.7373 1162.61 Q83.3994 1159.86 87.9827 1155.23 Q92.5891 1150.57 93.7697 1149.23 Q96.015 1146.71 96.8947 1144.97 Q97.7974 1143.21 97.7974 1141.52 Q97.7974 1138.77 95.853 1137.03 Q93.9317 1135.3 90.8299 1135.3 Q88.6308 1135.3 86.1771 1136.06 Q83.7466 1136.82 80.9688 1138.37 L80.9688 1133.65 Q83.7929 1132.52 86.2466 1131.94 Q88.7003 1131.36 90.7373 1131.36 Q96.1076 1131.36 99.3021 1134.05 Q102.496 1136.73 102.496 1141.22 Q102.496 1143.35 101.686 1145.27 Q100.899 1147.17 98.7928 1149.76 Q98.2141 1150.43 95.1123 1153.65 Q92.0104 1156.85 86.3623 1162.61 Z" fill="#000000" fill-rule="nonzero" fill-opacity="1" /><path clip-path="url(#clip040)" d="M126.663 1147.91 Q130.019 1148.63 131.894 1150.9 Q133.793 1153.17 133.793 1156.5 Q133.793 1161.61 130.274 1164.42 Q126.756 1167.22 120.274 1167.22 Q118.098 1167.22 115.783 1166.78 Q113.492 1166.36 111.038 1165.5 L111.038 1160.99 Q112.983 1162.12 115.297 1162.7 Q117.612 1163.28 120.135 1163.28 Q124.533 1163.28 126.825 1161.55 Q129.14 1159.81 129.14 1156.5 Q129.14 1153.44 126.987 1151.73 Q124.857 1149.99 121.038 1149.99 L117.01 1149.99 L117.01 1146.15 L121.223 1146.15 Q124.672 1146.15 126.501 1144.79 Q128.33 1143.4 128.33 1140.8 Q128.33 1138.14 126.432 1136.73 Q124.557 1135.3 121.038 1135.3 Q119.117 1135.3 116.918 1135.71 Q114.719 1136.13 112.08 1137.01 L112.08 1132.84 Q114.742 1132.1 117.057 1131.73 Q119.395 1131.36 121.455 1131.36 Q126.779 1131.36 129.881 1133.79 Q132.982 1136.2 132.982 1140.32 Q132.982 1143.19 131.339 1145.18 Q129.695 1147.15 126.663 1147.91 Z" fill="#000000" fill-rule="nonzero" fill-opacity="1" /><path clip-path="url(#clip040)" d="M152.658 1135.06 Q149.047 1135.06 147.218 1138.63 Q145.413 1142.17 145.413 1149.3 Q145.413 1156.41 147.218 1159.97 Q149.047 1163.51 152.658 1163.51 Q156.292 1163.51 158.098 1159.97 Q159.927 1156.41 159.927 1149.3 Q159.927 1142.17 158.098 1138.63 Q156.292 1135.06 152.658 1135.06 M152.658 1131.36 Q158.468 1131.36 161.524 1135.97 Q164.603 1140.55 164.603 1149.3 Q164.603 1158.03 161.524 1162.63 Q158.468 1167.22 152.658 1167.22 Q146.848 1167.22 143.769 1162.63 Q140.714 1158.03 140.714 1149.3 Q140.714 1140.55 143.769 1135.97 Q146.848 1131.36 152.658 1131.36 Z" fill="#000000" fill-rule="nonzero" fill-opacity="1" /><path clip-path="url(#clip040)" d="M182.82 1135.06 Q179.209 1135.06 177.38 1138.63 Q175.575 1142.17 175.575 1149.3 Q175.575 1156.41 177.38 1159.97 Q179.209 1163.51 182.82 1163.51 Q186.454 1163.51 188.26 1159.97 Q190.089 1156.41 190.089 1149.3 Q190.089 1142.17 188.26 1138.63 Q186.454 1135.06 182.82 1135.06 M182.82 1131.36 Q188.63 1131.36 191.686 1135.97 Q194.765 1140.55 194.765 1149.3 Q194.765 1158.03 191.686 1162.63 Q188.63 1167.22 182.82 1167.22 Q177.01 1167.22 173.931 1162.63 Q170.876 1158.03 170.876 1149.3 Q170.876 1140.55 173.931 1135.97 Q177.01 1131.36 182.82 1131.36 Z" fill="#000000" fill-rule="nonzero" fill-opacity="1" /><path clip-path="url(#clip040)" d="M50.9921 860.392 L73.2142 860.392 L73.2142 862.383 L60.668 894.952 L55.7838 894.952 L67.5893 864.327 L50.9921 864.327 L50.9921 860.392 Z" fill="#000000" fill-rule="nonzero" fill-opacity="1" /><path clip-path="url(#clip040)" d="M86.3623 891.017 L102.682 891.017 L102.682 894.952 L80.7373 894.952 L80.7373 891.017 Q83.3994 888.262 87.9827 883.633 Q92.5891 878.98 93.7697 877.637 Q96.015 875.114 96.8947 873.378 Q97.7974 871.619 97.7974 869.929 Q97.7974 867.174 95.853 865.438 Q93.9317 863.702 90.8299 863.702 Q88.6308 863.702 86.1771 864.466 Q83.7466 865.23 80.9688 866.781 L80.9688 862.059 Q83.7929 860.924 86.2466 860.346 Q88.7003 859.767 90.7373 859.767 Q96.1076 859.767 99.3021 862.452 Q102.496 865.137 102.496 869.628 Q102.496 871.758 101.686 873.679 Q100.899 875.577 98.7928 878.17 Q98.2141 878.841 95.1123 882.059 Q92.0104 885.253 86.3623 891.017 Z" fill="#000000" fill-rule="nonzero" fill-opacity="1" /><path clip-path="url(#clip040)" d="M123.075 875.809 Q119.927 875.809 118.075 877.961 Q116.246 880.114 116.246 883.864 Q116.246 887.591 118.075 889.767 Q119.927 891.92 123.075 891.92 Q126.223 891.92 128.052 889.767 Q129.904 887.591 129.904 883.864 Q129.904 880.114 128.052 877.961 Q126.223 875.809 123.075 875.809 M132.357 861.156 L132.357 865.415 Q130.598 864.582 128.793 864.142 Q127.01 863.702 125.251 863.702 Q120.621 863.702 118.168 866.827 Q115.737 869.952 115.39 876.272 Q116.756 874.258 118.816 873.193 Q120.876 872.105 123.353 872.105 Q128.561 872.105 131.57 875.276 Q134.603 878.424 134.603 883.864 Q134.603 889.188 131.455 892.406 Q128.307 895.623 123.075 895.623 Q117.08 895.623 113.908 891.04 Q110.737 886.434 110.737 877.707 Q110.737 869.512 114.626 864.651 Q118.515 859.767 125.066 859.767 Q126.825 859.767 128.607 860.114 Q130.413 860.461 132.357 861.156 Z" fill="#000000" fill-rule="nonzero" fill-opacity="1" /><path clip-path="url(#clip040)" d="M152.658 863.471 Q149.047 863.471 147.218 867.035 Q145.413 870.577 145.413 877.707 Q145.413 884.813 147.218 888.378 Q149.047 891.92 152.658 891.92 Q156.292 891.92 158.098 888.378 Q159.927 884.813 159.927 877.707 Q159.927 870.577 158.098 867.035 Q156.292 863.471 152.658 863.471 M152.658 859.767 Q158.468 859.767 161.524 864.373 Q164.603 868.957 164.603 877.707 Q164.603 886.434 161.524 891.04 Q158.468 895.623 152.658 895.623 Q146.848 895.623 143.769 891.04 Q140.714 886.434 140.714 877.707 Q140.714 868.957 143.769 864.373 Q146.848 859.767 152.658 859.767 Z" fill="#000000" fill-rule="nonzero" fill-opacity="1" /><path clip-path="url(#clip040)" d="M182.82 863.471 Q179.209 863.471 177.38 867.035 Q175.575 870.577 175.575 877.707 Q175.575 884.813 177.38 888.378 Q179.209 891.92 182.82 891.92 Q186.454 891.92 188.26 888.378 Q190.089 884.813 190.089 877.707 Q190.089 870.577 188.26 867.035 Q186.454 863.471 182.82 863.471 M182.82 859.767 Q188.63 859.767 191.686 864.373 Q194.765 868.957 194.765 877.707 Q194.765 886.434 191.686 891.04 Q188.63 895.623 182.82 895.623 Q177.01 895.623 173.931 891.04 Q170.876 886.434 170.876 877.707 Q170.876 868.957 173.931 864.373 Q177.01 859.767 182.82 859.767 Z" fill="#000000" fill-rule="nonzero" fill-opacity="1" /><path clip-path="url(#clip040)" d="M50.9921 588.799 L73.2142 588.799 L73.2142 590.79 L60.668 623.359 L55.7838 623.359 L67.5893 592.734 L50.9921 592.734 L50.9921 588.799 Z" fill="#000000" fill-rule="nonzero" fill-opacity="1" /><path clip-path="url(#clip040)" d="M86.3623 619.424 L102.682 619.424 L102.682 623.359 L80.7373 623.359 L80.7373 619.424 Q83.3994 616.669 87.9827 612.04 Q92.5891 607.387 93.7697 606.044 Q96.015 603.521 96.8947 601.785 Q97.7974 600.026 97.7974 598.336 Q97.7974 595.581 95.853 593.845 Q93.9317 592.109 90.8299 592.109 Q88.6308 592.109 86.1771 592.873 Q83.7466 593.637 80.9688 595.188 L80.9688 590.466 Q83.7929 589.331 86.2466 588.753 Q88.7003 588.174 90.7373 588.174 Q96.1076 588.174 99.3021 590.859 Q102.496 593.544 102.496 598.035 Q102.496 600.165 101.686 602.086 Q100.899 603.984 98.7928 606.577 Q98.2141 607.248 95.1123 610.466 Q92.0104 613.66 86.3623 619.424 Z" fill="#000000" fill-rule="nonzero" fill-opacity="1" /><path clip-path="url(#clip040)" d="M112.635 622.641 L112.635 618.382 Q114.395 619.216 116.2 619.655 Q118.006 620.095 119.742 620.095 Q124.371 620.095 126.802 616.993 Q129.256 613.868 129.603 607.526 Q128.26 609.517 126.2 610.581 Q124.14 611.646 121.64 611.646 Q116.455 611.646 113.422 608.521 Q110.413 605.373 110.413 599.933 Q110.413 594.609 113.561 591.392 Q116.709 588.174 121.941 588.174 Q127.936 588.174 131.084 592.78 Q134.256 597.364 134.256 606.114 Q134.256 614.285 130.367 619.169 Q126.501 624.03 119.95 624.03 Q118.191 624.03 116.385 623.683 Q114.58 623.336 112.635 622.641 M121.941 607.989 Q125.089 607.989 126.918 605.836 Q128.769 603.683 128.769 599.933 Q128.769 596.206 126.918 594.054 Q125.089 591.878 121.941 591.878 Q118.793 591.878 116.941 594.054 Q115.112 596.206 115.112 599.933 Q115.112 603.683 116.941 605.836 Q118.793 607.989 121.941 607.989 Z" fill="#000000" fill-rule="nonzero" fill-opacity="1" /><path clip-path="url(#clip040)" d="M152.658 591.878 Q149.047 591.878 147.218 595.443 Q145.413 598.984 145.413 606.114 Q145.413 613.22 147.218 616.785 Q149.047 620.327 152.658 620.327 Q156.292 620.327 158.098 616.785 Q159.927 613.22 159.927 606.114 Q159.927 598.984 158.098 595.443 Q156.292 591.878 152.658 591.878 M152.658 588.174 Q158.468 588.174 161.524 592.78 Q164.603 597.364 164.603 606.114 Q164.603 614.841 161.524 619.447 Q158.468 624.03 152.658 624.03 Q146.848 624.03 143.769 619.447 Q140.714 614.841 140.714 606.114 Q140.714 597.364 143.769 592.78 Q146.848 588.174 152.658 588.174 Z" fill="#000000" fill-rule="nonzero" fill-opacity="1" /><path clip-path="url(#clip040)" d="M182.82 591.878 Q179.209 591.878 177.38 595.443 Q175.575 598.984 175.575 606.114 Q175.575 613.22 177.38 616.785 Q179.209 620.327 182.82 620.327 Q186.454 620.327 188.26 616.785 Q190.089 613.22 190.089 606.114 Q190.089 598.984 188.26 595.443 Q186.454 591.878 182.82 591.878 M182.82 588.174 Q188.63 588.174 191.686 592.78 Q194.765 597.364 194.765 606.114 Q194.765 614.841 191.686 619.447 Q188.63 624.03 182.82 624.03 Q177.01 624.03 173.931 619.447 Q170.876 614.841 170.876 606.114 Q170.876 597.364 173.931 592.78 Q177.01 588.174 182.82 588.174 Z" fill="#000000" fill-rule="nonzero" fill-opacity="1" /><path clip-path="url(#clip040)" d="M50.9921 317.206 L73.2142 317.206 L73.2142 319.197 L60.668 351.766 L55.7838 351.766 L67.5893 321.141 L50.9921 321.141 L50.9921 317.206 Z" fill="#000000" fill-rule="nonzero" fill-opacity="1" /><path clip-path="url(#clip040)" d="M96.5011 333.132 Q99.8576 333.849 101.733 336.118 Q103.631 338.386 103.631 341.72 Q103.631 346.836 100.112 349.636 Q96.5937 352.437 90.1123 352.437 Q87.9364 352.437 85.6216 351.998 Q83.3299 351.581 80.8762 350.724 L80.8762 346.211 Q82.8207 347.345 85.1355 347.923 Q87.4503 348.502 89.9734 348.502 Q94.3715 348.502 96.6632 346.766 Q98.978 345.03 98.978 341.72 Q98.978 338.664 96.8252 336.951 Q94.6956 335.215 90.8762 335.215 L86.8484 335.215 L86.8484 331.373 L91.0614 331.373 Q94.5104 331.373 96.3391 330.007 Q98.1678 328.618 98.1678 326.025 Q98.1678 323.363 96.2697 321.951 Q94.3947 320.516 90.8762 320.516 Q88.9549 320.516 86.7558 320.933 Q84.5568 321.35 81.9179 322.229 L81.9179 318.063 Q84.5799 317.322 86.8947 316.951 Q89.2327 316.581 91.2928 316.581 Q96.6169 316.581 99.7187 319.012 Q102.821 321.419 102.821 325.539 Q102.821 328.41 101.177 330.4 Q99.5335 332.368 96.5011 333.132 Z" fill="#000000" fill-rule="nonzero" fill-opacity="1" /><path clip-path="url(#clip040)" d="M116.524 347.831 L132.844 347.831 L132.844 351.766 L110.899 351.766 L110.899 347.831 Q113.561 345.076 118.145 340.447 Q122.751 335.794 123.932 334.451 Q126.177 331.928 127.057 330.192 Q127.959 328.433 127.959 326.743 Q127.959 323.988 126.015 322.252 Q124.094 320.516 120.992 320.516 Q118.793 320.516 116.339 321.28 Q113.908 322.044 111.131 323.595 L111.131 318.873 Q113.955 317.738 116.408 317.16 Q118.862 316.581 120.899 316.581 Q126.27 316.581 129.464 319.266 Q132.658 321.951 132.658 326.442 Q132.658 328.572 131.848 330.493 Q131.061 332.391 128.955 334.984 Q128.376 335.655 125.274 338.873 Q122.172 342.067 116.524 347.831 Z" fill="#000000" fill-rule="nonzero" fill-opacity="1" /><path clip-path="url(#clip040)" d="M152.658 320.285 Q149.047 320.285 147.218 323.85 Q145.413 327.391 145.413 334.521 Q145.413 341.627 147.218 345.192 Q149.047 348.734 152.658 348.734 Q156.292 348.734 158.098 345.192 Q159.927 341.627 159.927 334.521 Q159.927 327.391 158.098 323.85 Q156.292 320.285 152.658 320.285 M152.658 316.581 Q158.468 316.581 161.524 321.187 Q164.603 325.771 164.603 334.521 Q164.603 343.248 161.524 347.854 Q158.468 352.437 152.658 352.437 Q146.848 352.437 143.769 347.854 Q140.714 343.248 140.714 334.521 Q140.714 325.771 143.769 321.187 Q146.848 316.581 152.658 316.581 Z" fill="#000000" fill-rule="nonzero" fill-opacity="1" /><path clip-path="url(#clip040)" d="M182.82 320.285 Q179.209 320.285 177.38 323.85 Q175.575 327.391 175.575 334.521 Q175.575 341.627 177.38 345.192 Q179.209 348.734 182.82 348.734 Q186.454 348.734 188.26 345.192 Q190.089 341.627 190.089 334.521 Q190.089 327.391 188.26 323.85 Q186.454 320.285 182.82 320.285 M182.82 316.581 Q188.63 316.581 191.686 321.187 Q194.765 325.771 194.765 334.521 Q194.765 343.248 191.686 347.854 Q188.63 352.437 182.82 352.437 Q177.01 352.437 173.931 347.854 Q170.876 343.248 170.876 334.521 Q170.876 325.771 173.931 321.187 Q177.01 316.581 182.82 316.581 Z" fill="#000000" fill-rule="nonzero" fill-opacity="1" /><path clip-path="url(#clip040)" d="M1262.23 35.2602 Q1262.23 29.4732 1259.83 26.2904 Q1257.46 23.1075 1253.15 23.1075 Q1248.86 23.1075 1246.46 26.2904 Q1244.09 29.4732 1244.09 35.2602 Q1244.09 41.0183 1246.46 44.2012 Q1248.86 47.384 1253.15 47.384 Q1257.46 47.384 1259.83 44.2012 Q1262.23 41.0183 1262.23 35.2602 M1267.56 47.818 Q1267.56 56.0934 1263.88 60.1154 Q1260.21 64.1663 1252.63 64.1663 Q1249.82 64.1663 1247.33 63.7323 Q1244.84 63.3272 1242.5 62.4592 L1242.5 57.2798 Q1244.84 58.5529 1247.13 59.1606 Q1249.41 59.7682 1251.79 59.7682 Q1257.02 59.7682 1259.63 57.0194 Q1262.23 54.2995 1262.23 48.7729 L1262.23 46.1398 Q1260.58 49.0044 1258.01 50.4222 Q1255.43 51.84 1251.84 51.84 Q1245.88 51.84 1242.24 47.2972 Q1238.59 42.7544 1238.59 35.2602 Q1238.59 27.7371 1242.24 23.1943 Q1245.88 18.6515 1251.84 18.6515 Q1255.43 18.6515 1258.01 20.0693 Q1260.58 21.4872 1262.23 24.3517 L1262.23 19.4328 L1267.56 19.4328 L1267.56 47.818 Z" fill="#000000" fill-rule="nonzero" fill-opacity="1" /><path clip-path="url(#clip040)" d="M1299.85 24.3517 L1299.85 6.81709 L1305.17 6.81709 L1305.17 51.84 L1299.85 51.84 L1299.85 46.9789 Q1298.17 49.8724 1295.59 51.2902 Q1293.05 52.6791 1289.46 52.6791 Q1283.59 52.6791 1279.88 47.9916 Q1276.21 43.3042 1276.21 35.6653 Q1276.21 28.0265 1279.88 23.339 Q1283.59 18.6515 1289.46 18.6515 Q1293.05 18.6515 1295.59 20.0693 Q1298.17 21.4582 1299.85 24.3517 M1281.71 35.6653 Q1281.71 41.5391 1284.11 44.8956 Q1286.54 48.2231 1290.76 48.2231 Q1294.99 48.2231 1297.42 44.8956 Q1299.85 41.5391 1299.85 35.6653 Q1299.85 29.7915 1297.42 26.464 Q1294.99 23.1075 1290.76 23.1075 Q1286.54 23.1075 1284.11 26.464 Q1281.71 29.7915 1281.71 35.6653 Z" fill="#000000" fill-rule="nonzero" fill-opacity="1" /><path clip-path="url(#clip040)" d="M1321.29 46.9789 L1321.29 64.1663 L1315.94 64.1663 L1315.94 19.4328 L1321.29 19.4328 L1321.29 24.3517 Q1322.97 21.4582 1325.51 20.0693 Q1328.09 18.6515 1331.65 18.6515 Q1337.55 18.6515 1341.22 23.339 Q1344.93 28.0265 1344.93 35.6653 Q1344.93 43.3042 1341.22 47.9916 Q1337.55 52.6791 1331.65 52.6791 Q1328.09 52.6791 1325.51 51.2902 Q1322.97 49.8724 1321.29 46.9789 M1339.4 35.6653 Q1339.4 29.7915 1336.97 26.464 Q1334.57 23.1075 1330.35 23.1075 Q1326.12 23.1075 1323.69 26.464 Q1321.29 29.7915 1321.29 35.6653 Q1321.29 41.5391 1323.69 44.8956 Q1326.12 48.2231 1330.35 48.2231 Q1334.57 48.2231 1336.97 44.8956 Q1339.4 41.5391 1339.4 35.6653 Z" fill="#000000" fill-rule="nonzero" fill-opacity="1" /><polyline clip-path="url(#clip042)" style="stroke:#009af9; stroke-linecap:round; stroke-linejoin:round; stroke-width:4; stroke-opacity:1; fill:none" points="290.821,1038.82 415.938,1350.66 541.056,1415.98 666.173,1171.68 791.291,214.228 916.408,784.259 1041.53,696.342 1166.64,233.442 1291.76,145.256 1416.88,684.395 1542,751.978 1667.11,841.399 1792.23,788.154 1917.35,510.67 2042.46,1158.7 2167.58,400.573 2292.7,1447.38 "/>
<path clip-path="url(#clip040)" d="M301.498 255.881 L566.127 255.881 L566.127 152.201 L301.498 152.201  Z" fill="#ffffff" fill-rule="evenodd" fill-opacity="1"/>
<polyline clip-path="url(#clip040)" style="stroke:#000000; stroke-linecap:round; stroke-linejoin:round; stroke-width:4; stroke-opacity:1; fill:none" points="301.498,255.881 566.127,255.881 566.127,152.201 301.498,152.201 301.498,255.881 "/>
<polyline clip-path="url(#clip040)" style="stroke:#009af9; stroke-linecap:round; stroke-linejoin:round; stroke-width:4; stroke-opacity:1; fill:none" points="325.075,204.041 466.541,204.041 "/>
<path clip-path="url(#clip040)" d="M503.962 223.728 Q502.156 228.358 500.443 229.77 Q498.73 231.182 495.86 231.182 L492.457 231.182 L492.457 227.617 L494.957 227.617 Q496.716 227.617 497.688 226.784 Q498.661 225.95 499.841 222.848 L500.605 220.904 L490.119 195.395 L494.633 195.395 L502.735 215.673 L510.836 195.395 L515.35 195.395 L503.962 223.728 Z" fill="#000000" fill-rule="nonzero" fill-opacity="1" /><path clip-path="url(#clip040)" d="M522.642 217.385 L530.281 217.385 L530.281 191.02 L521.971 192.687 L521.971 188.427 L530.235 186.761 L534.91 186.761 L534.91 217.385 L542.549 217.385 L542.549 221.321 L522.642 221.321 L522.642 217.385 Z" fill="#000000" fill-rule="nonzero" fill-opacity="1" /></svg>
