<?xml version="1.0" encoding="utf-8"?>
<svg xmlns="http://www.w3.org/2000/svg" xmlns:xlink="http://www.w3.org/1999/xlink" width="600" height="300" viewBox="0 0 2400 1200">
<defs>
  <clipPath id="clip920">
    <rect x="0" y="0" width="2400" height="1200"/>
  </clipPath>
</defs>
<path clip-path="url(#clip920)" d="M0 1200 L2400 1200 L2400 0 L0 0  Z" fill="#ffffff" fill-rule="evenodd" fill-opacity="1"/>
<defs>
  <clipPath id="clip921">
    <rect x="1400" y="92" width="953" height="1008"/>
  </clipPath>
</defs>
<path clip-path="url(#clip920)" d="M216.436 1099.09 L1168.64 1099.09 L1168.64 92.1521 L216.436 92.1521  Z" fill="#ffffff" fill-rule="evenodd" fill-opacity="1"/>
<defs>
  <clipPath id="clip922">
    <rect x="216" y="92" width="953" height="1008"/>
  </clipPath>
</defs>
<polyline clip-path="url(#clip922)" style="stroke:#000000; stroke-linecap:round; stroke-linejoin:round; stroke-width:2; stroke-opacity:0.1; fill:none" points="414.49,1099.09 414.49,92.1521 "/>
<polyline clip-path="url(#clip922)" style="stroke:#000000; stroke-linecap:round; stroke-linejoin:round; stroke-width:2; stroke-opacity:0.1; fill:none" points="628.371,1099.09 628.371,92.1521 "/>
<polyline clip-path="url(#clip922)" style="stroke:#000000; stroke-linecap:round; stroke-linejoin:round; stroke-width:2; stroke-opacity:0.1; fill:none" points="842.253,1099.09 842.253,92.1521 "/>
<polyline clip-path="url(#clip922)" style="stroke:#000000; stroke-linecap:round; stroke-linejoin:round; stroke-width:2; stroke-opacity:0.1; fill:none" points="1056.13,1099.09 1056.13,92.1521 "/>
<polyline clip-path="url(#clip922)" style="stroke:#000000; stroke-linecap:round; stroke-linejoin:round; stroke-width:2; stroke-opacity:0.1; fill:none" points="216.436,858.979 1168.64,858.979 "/>
<polyline clip-path="url(#clip922)" style="stroke:#000000; stroke-linecap:round; stroke-linejoin:round; stroke-width:2; stroke-opacity:0.1; fill:none" points="216.436,612.869 1168.64,612.869 "/>
<polyline clip-path="url(#clip922)" style="stroke:#000000; stroke-linecap:round; stroke-linejoin:round; stroke-width:2; stroke-opacity:0.1; fill:none" points="216.436,366.76 1168.64,366.76 "/>
<polyline clip-path="url(#clip922)" style="stroke:#000000; stroke-linecap:round; stroke-linejoin:round; stroke-width:2; stroke-opacity:0.1; fill:none" points="216.436,120.65 1168.64,120.65 "/>
<polyline clip-path="url(#clip920)" style="stroke:#000000; stroke-linecap:round; stroke-linejoin:round; stroke-width:4; stroke-opacity:1; fill:none" points="216.436,1099.09 1168.64,1099.09 "/>
<polyline clip-path="url(#clip920)" style="stroke:#000000; stroke-linecap:round; stroke-linejoin:round; stroke-width:4; stroke-opacity:1; fill:none" points="414.49,1099.09 414.49,1080.19 "/>
<polyline clip-path="url(#clip920)" style="stroke:#000000; stroke-linecap:round; stroke-linejoin:round; stroke-width:4; stroke-opacity:1; fill:none" points="628.371,1099.09 628.371,1080.19 "/>
<polyline clip-path="url(#clip920)" style="stroke:#000000; stroke-linecap:round; stroke-linejoin:round; stroke-width:4; stroke-opacity:1; fill:none" points="842.253,1099.09 842.253,1080.19 "/>
<polyline clip-path="url(#clip920)" style="stroke:#000000; stroke-linecap:round; stroke-linejoin:round; stroke-width:4; stroke-opacity:1; fill:none" points="1056.13,1099.09 1056.13,1080.19 "/>
<path clip-path="url(#clip920)" d="M404.768 1126.93 L423.124 1126.93 L423.124 1130.86 L409.05 1130.86 L409.05 1139.34 Q410.069 1138.99 411.087 1138.83 Q412.106 1138.64 413.124 1138.64 Q418.911 1138.64 422.291 1141.81 Q425.67 1144.98 425.67 1150.4 Q425.67 1155.98 422.198 1159.08 Q418.726 1162.16 412.407 1162.16 Q410.231 1162.16 407.962 1161.79 Q405.717 1161.42 403.309 1160.68 L403.309 1155.98 Q405.393 1157.11 407.615 1157.67 Q409.837 1158.22 412.314 1158.22 Q416.319 1158.22 418.657 1156.12 Q420.995 1154.01 420.995 1150.4 Q420.995 1146.79 418.657 1144.68 Q416.319 1142.58 412.314 1142.58 Q410.439 1142.58 408.564 1142.99 Q406.712 1143.41 404.768 1144.29 L404.768 1126.93 Z" fill="#000000" fill-rule="nonzero" fill-opacity="1" /><path clip-path="url(#clip920)" d="M603.059 1157.55 L610.698 1157.55 L610.698 1131.19 L602.388 1132.85 L602.388 1128.59 L610.651 1126.93 L615.327 1126.93 L615.327 1157.55 L622.966 1157.55 L622.966 1161.49 L603.059 1161.49 L603.059 1157.55 Z" fill="#000000" fill-rule="nonzero" fill-opacity="1" /><path clip-path="url(#clip920)" d="M642.411 1130.01 Q638.799 1130.01 636.971 1133.57 Q635.165 1137.11 635.165 1144.24 Q635.165 1151.35 636.971 1154.91 Q638.799 1158.46 642.411 1158.46 Q646.045 1158.46 647.85 1154.91 Q649.679 1151.35 649.679 1144.24 Q649.679 1137.11 647.85 1133.57 Q646.045 1130.01 642.411 1130.01 M642.411 1126.3 Q648.221 1126.3 651.276 1130.91 Q654.355 1135.49 654.355 1144.24 Q654.355 1152.97 651.276 1157.58 Q648.221 1162.16 642.411 1162.16 Q636.6 1162.16 633.522 1157.58 Q630.466 1152.97 630.466 1144.24 Q630.466 1135.49 633.522 1130.91 Q636.6 1126.3 642.411 1126.3 Z" fill="#000000" fill-rule="nonzero" fill-opacity="1" /><path clip-path="url(#clip920)" d="M817.438 1157.55 L825.077 1157.55 L825.077 1131.19 L816.767 1132.85 L816.767 1128.59 L825.03 1126.93 L829.706 1126.93 L829.706 1157.55 L837.345 1157.55 L837.345 1161.49 L817.438 1161.49 L817.438 1157.55 Z" fill="#000000" fill-rule="nonzero" fill-opacity="1" /><path clip-path="url(#clip920)" d="M846.836 1126.93 L865.192 1126.93 L865.192 1130.86 L851.118 1130.86 L851.118 1139.34 Q852.137 1138.99 853.155 1138.83 Q854.174 1138.64 855.192 1138.64 Q860.979 1138.64 864.359 1141.81 Q867.739 1144.98 867.739 1150.4 Q867.739 1155.98 864.266 1159.08 Q860.794 1162.16 854.475 1162.16 Q852.299 1162.16 850.03 1161.79 Q847.785 1161.42 845.378 1160.68 L845.378 1155.98 Q847.461 1157.11 849.683 1157.67 Q851.905 1158.22 854.382 1158.22 Q858.387 1158.22 860.725 1156.12 Q863.063 1154.01 863.063 1150.4 Q863.063 1146.79 860.725 1144.68 Q858.387 1142.58 854.382 1142.58 Q852.507 1142.58 850.632 1142.99 Q848.78 1143.41 846.836 1144.29 L846.836 1126.93 Z" fill="#000000" fill-rule="nonzero" fill-opacity="1" /><path clip-path="url(#clip920)" d="M1034.91 1157.55 L1051.23 1157.55 L1051.23 1161.49 L1029.28 1161.49 L1029.28 1157.55 Q1031.94 1154.8 1036.53 1150.17 Q1041.13 1145.52 1042.31 1144.17 Q1044.56 1141.65 1045.44 1139.91 Q1046.34 1138.15 1046.34 1136.46 Q1046.34 1133.71 1044.4 1131.97 Q1042.48 1130.24 1039.37 1130.24 Q1037.18 1130.24 1034.72 1131 Q1032.29 1131.77 1029.51 1133.32 L1029.51 1128.59 Q1032.34 1127.46 1034.79 1126.88 Q1037.25 1126.3 1039.28 1126.3 Q1044.65 1126.3 1047.85 1128.99 Q1051.04 1131.67 1051.04 1136.16 Q1051.04 1138.29 1050.23 1140.21 Q1049.44 1142.11 1047.34 1144.71 Q1046.76 1145.38 1043.66 1148.59 Q1040.56 1151.79 1034.91 1157.55 Z" fill="#000000" fill-rule="nonzero" fill-opacity="1" /><path clip-path="url(#clip920)" d="M1071.04 1130.01 Q1067.43 1130.01 1065.6 1133.57 Q1063.8 1137.11 1063.8 1144.24 Q1063.8 1151.35 1065.6 1154.91 Q1067.43 1158.46 1071.04 1158.46 Q1074.68 1158.46 1076.48 1154.91 Q1078.31 1151.35 1078.31 1144.24 Q1078.31 1137.11 1076.48 1133.57 Q1074.68 1130.01 1071.04 1130.01 M1071.04 1126.3 Q1076.85 1126.3 1079.91 1130.91 Q1082.99 1135.49 1082.99 1144.24 Q1082.99 1152.97 1079.91 1157.58 Q1076.85 1162.16 1071.04 1162.16 Q1065.23 1162.16 1062.15 1157.58 Q1059.1 1152.97 1059.1 1144.24 Q1059.1 1135.49 1062.15 1130.91 Q1065.23 1126.3 1071.04 1126.3 Z" fill="#000000" fill-rule="nonzero" fill-opacity="1" /><polyline clip-path="url(#clip920)" style="stroke:#000000; stroke-linecap:round; stroke-linejoin:round; stroke-width:4; stroke-opacity:1; fill:none" points="216.436,1099.09 216.436,92.1521 "/>
<polyline clip-path="url(#clip920)" style="stroke:#000000; stroke-linecap:round; stroke-linejoin:round; stroke-width:4; stroke-opacity:1; fill:none" points="216.436,858.979 235.334,858.979 "/>
<polyline clip-path="url(#clip920)" style="stroke:#000000; stroke-linecap:round; stroke-linejoin:round; stroke-width:4; stroke-opacity:1; fill:none" points="216.436,612.869 235.334,612.869 "/>
<polyline clip-path="url(#clip920)" style="stroke:#000000; stroke-linecap:round; stroke-linejoin:round; stroke-width:4; stroke-opacity:1; fill:none" points="216.436,366.76 235.334,366.76 "/>
<polyline clip-path="url(#clip920)" style="stroke:#000000; stroke-linecap:round; stroke-linejoin:round; stroke-width:4; stroke-opacity:1; fill:none" points="216.436,120.65 235.334,120.65 "/>
<path clip-path="url(#clip920)" d="M63.9319 844.777 Q60.3208 844.777 58.4921 848.342 Q56.6865 851.884 56.6865 859.013 Q56.6865 866.12 58.4921 869.685 Q60.3208 873.226 63.9319 873.226 Q67.5661 873.226 69.3717 869.685 Q71.2004 866.12 71.2004 859.013 Q71.2004 851.884 69.3717 848.342 Q67.5661 844.777 63.9319 844.777 M63.9319 841.074 Q69.742 841.074 72.7976 845.68 Q75.8763 850.264 75.8763 859.013 Q75.8763 867.74 72.7976 872.347 Q69.742 876.93 63.9319 876.93 Q58.1217 876.93 55.043 872.347 Q51.9875 867.74 51.9875 859.013 Q51.9875 850.264 55.043 845.68 Q58.1217 841.074 63.9319 841.074 Z" fill="#000000" fill-rule="nonzero" fill-opacity="1" /><path clip-path="url(#clip920)" d="M84.0938 870.379 L88.978 870.379 L88.978 876.259 L84.0938 876.259 L84.0938 870.379 Z" fill="#000000" fill-rule="nonzero" fill-opacity="1" /><path clip-path="url(#clip920)" d="M109.163 844.777 Q105.552 844.777 103.723 848.342 Q101.918 851.884 101.918 859.013 Q101.918 866.12 103.723 869.685 Q105.552 873.226 109.163 873.226 Q112.797 873.226 114.603 869.685 Q116.432 866.12 116.432 859.013 Q116.432 851.884 114.603 848.342 Q112.797 844.777 109.163 844.777 M109.163 841.074 Q114.973 841.074 118.029 845.68 Q121.107 850.264 121.107 859.013 Q121.107 867.74 118.029 872.347 Q114.973 876.93 109.163 876.93 Q103.353 876.93 100.274 872.347 Q97.2187 867.74 97.2187 859.013 Q97.2187 850.264 100.274 845.68 Q103.353 841.074 109.163 841.074 Z" fill="#000000" fill-rule="nonzero" fill-opacity="1" /><path clip-path="url(#clip920)" d="M139.325 844.777 Q135.714 844.777 133.885 848.342 Q132.08 851.884 132.08 859.013 Q132.08 866.12 133.885 869.685 Q135.714 873.226 139.325 873.226 Q142.959 873.226 144.765 869.685 Q146.593 866.12 146.593 859.013 Q146.593 851.884 144.765 848.342 Q142.959 844.777 139.325 844.777 M139.325 841.074 Q145.135 841.074 148.191 845.68 Q151.269 850.264 151.269 859.013 Q151.269 867.74 148.191 872.347 Q145.135 876.93 139.325 876.93 Q133.515 876.93 130.436 872.347 Q127.381 867.74 127.381 859.013 Q127.381 850.264 130.436 845.68 Q133.515 841.074 139.325 841.074 Z" fill="#000000" fill-rule="nonzero" fill-opacity="1" /><path clip-path="url(#clip920)" d="M159.533 841.699 L177.89 841.699 L177.89 845.634 L163.816 845.634 L163.816 854.106 Q164.834 853.759 165.853 853.597 Q166.871 853.412 167.89 853.412 Q173.677 853.412 177.056 856.583 Q180.436 859.754 180.436 865.171 Q180.436 870.75 176.964 873.851 Q173.491 876.93 167.172 876.93 Q164.996 876.93 162.728 876.56 Q160.482 876.189 158.075 875.449 L158.075 870.75 Q160.158 871.884 162.38 872.439 Q164.603 872.995 167.079 872.995 Q171.084 872.995 173.422 870.888 Q175.76 868.782 175.76 865.171 Q175.76 861.56 173.422 859.453 Q171.084 857.347 167.079 857.347 Q165.204 857.347 163.329 857.763 Q161.478 858.18 159.533 859.06 L159.533 841.699 Z" fill="#000000" fill-rule="nonzero" fill-opacity="1" /><path clip-path="url(#clip920)" d="M62.9365 598.668 Q59.3254 598.668 57.4967 602.233 Q55.6912 605.774 55.6912 612.904 Q55.6912 620.01 57.4967 623.575 Q59.3254 627.117 62.9365 627.117 Q66.5707 627.117 68.3763 623.575 Q70.205 620.01 70.205 612.904 Q70.205 605.774 68.3763 602.233 Q66.5707 598.668 62.9365 598.668 M62.9365 594.964 Q68.7467 594.964 71.8022 599.571 Q74.8809 604.154 74.8809 612.904 Q74.8809 621.631 71.8022 626.237 Q68.7467 630.821 62.9365 630.821 Q57.1264 630.821 54.0477 626.237 Q50.9921 621.631 50.9921 612.904 Q50.9921 604.154 54.0477 599.571 Q57.1264 594.964 62.9365 594.964 Z" fill="#000000" fill-rule="nonzero" fill-opacity="1" /><path clip-path="url(#clip920)" d="M83.0984 624.27 L87.9827 624.27 L87.9827 630.149 L83.0984 630.149 L83.0984 624.27 Z" fill="#000000" fill-rule="nonzero" fill-opacity="1" /><path clip-path="url(#clip920)" d="M108.168 598.668 Q104.557 598.668 102.728 602.233 Q100.922 605.774 100.922 612.904 Q100.922 620.01 102.728 623.575 Q104.557 627.117 108.168 627.117 Q111.802 627.117 113.608 623.575 Q115.436 620.01 115.436 612.904 Q115.436 605.774 113.608 602.233 Q111.802 598.668 108.168 598.668 M108.168 594.964 Q113.978 594.964 117.033 599.571 Q120.112 604.154 120.112 612.904 Q120.112 621.631 117.033 626.237 Q113.978 630.821 108.168 630.821 Q102.358 630.821 99.2789 626.237 Q96.2234 621.631 96.2234 612.904 Q96.2234 604.154 99.2789 599.571 Q102.358 594.964 108.168 594.964 Z" fill="#000000" fill-rule="nonzero" fill-opacity="1" /><path clip-path="url(#clip920)" d="M129.14 626.214 L136.779 626.214 L136.779 599.849 L128.469 601.515 L128.469 597.256 L136.732 595.589 L141.408 595.589 L141.408 626.214 L149.047 626.214 L149.047 630.149 L129.14 630.149 L129.14 626.214 Z" fill="#000000" fill-rule="nonzero" fill-opacity="1" /><path clip-path="url(#clip920)" d="M168.491 598.668 Q164.88 598.668 163.052 602.233 Q161.246 605.774 161.246 612.904 Q161.246 620.01 163.052 623.575 Q164.88 627.117 168.491 627.117 Q172.126 627.117 173.931 623.575 Q175.76 620.01 175.76 612.904 Q175.76 605.774 173.931 602.233 Q172.126 598.668 168.491 598.668 M168.491 594.964 Q174.302 594.964 177.357 599.571 Q180.436 604.154 180.436 612.904 Q180.436 621.631 177.357 626.237 Q174.302 630.821 168.491 630.821 Q162.681 630.821 159.603 626.237 Q156.547 621.631 156.547 612.904 Q156.547 604.154 159.603 599.571 Q162.681 594.964 168.491 594.964 Z" fill="#000000" fill-rule="nonzero" fill-opacity="1" /><path clip-path="url(#clip920)" d="M63.9319 352.558 Q60.3208 352.558 58.4921 356.123 Q56.6865 359.665 56.6865 366.795 Q56.6865 373.901 58.4921 377.466 Q60.3208 381.007 63.9319 381.007 Q67.5661 381.007 69.3717 377.466 Q71.2004 373.901 71.2004 366.795 Q71.2004 359.665 69.3717 356.123 Q67.5661 352.558 63.9319 352.558 M63.9319 348.855 Q69.742 348.855 72.7976 353.461 Q75.8763 358.045 75.8763 366.795 Q75.8763 375.521 72.7976 380.128 Q69.742 384.711 63.9319 384.711 Q58.1217 384.711 55.043 380.128 Q51.9875 375.521 51.9875 366.795 Q51.9875 358.045 55.043 353.461 Q58.1217 348.855 63.9319 348.855 Z" fill="#000000" fill-rule="nonzero" fill-opacity="1" /><path clip-path="url(#clip920)" d="M84.0938 378.16 L88.978 378.16 L88.978 384.04 L84.0938 384.04 L84.0938 378.16 Z" fill="#000000" fill-rule="nonzero" fill-opacity="1" /><path clip-path="url(#clip920)" d="M109.163 352.558 Q105.552 352.558 103.723 356.123 Q101.918 359.665 101.918 366.795 Q101.918 373.901 103.723 377.466 Q105.552 381.007 109.163 381.007 Q112.797 381.007 114.603 377.466 Q116.432 373.901 116.432 366.795 Q116.432 359.665 114.603 356.123 Q112.797 352.558 109.163 352.558 M109.163 348.855 Q114.973 348.855 118.029 353.461 Q121.107 358.045 121.107 366.795 Q121.107 375.521 118.029 380.128 Q114.973 384.711 109.163 384.711 Q103.353 384.711 100.274 380.128 Q97.2187 375.521 97.2187 366.795 Q97.2187 358.045 100.274 353.461 Q103.353 348.855 109.163 348.855 Z" fill="#000000" fill-rule="nonzero" fill-opacity="1" /><path clip-path="url(#clip920)" d="M130.135 380.105 L137.774 380.105 L137.774 353.739 L129.464 355.406 L129.464 351.146 L137.728 349.48 L142.404 349.48 L142.404 380.105 L150.043 380.105 L150.043 384.04 L130.135 384.04 L130.135 380.105 Z" fill="#000000" fill-rule="nonzero" fill-opacity="1" /><path clip-path="url(#clip920)" d="M159.533 349.48 L177.89 349.48 L177.89 353.415 L163.816 353.415 L163.816 361.887 Q164.834 361.54 165.853 361.378 Q166.871 361.193 167.89 361.193 Q173.677 361.193 177.056 364.364 Q180.436 367.535 180.436 372.952 Q180.436 378.531 176.964 381.632 Q173.491 384.711 167.172 384.711 Q164.996 384.711 162.728 384.341 Q160.482 383.97 158.075 383.23 L158.075 378.531 Q160.158 379.665 162.38 380.22 Q164.603 380.776 167.079 380.776 Q171.084 380.776 173.422 378.669 Q175.76 376.563 175.76 372.952 Q175.76 369.341 173.422 367.234 Q171.084 365.128 167.079 365.128 Q165.204 365.128 163.329 365.545 Q161.478 365.961 159.533 366.841 L159.533 349.48 Z" fill="#000000" fill-rule="nonzero" fill-opacity="1" /><path clip-path="url(#clip920)" d="M62.9365 106.449 Q59.3254 106.449 57.4967 110.014 Q55.6912 113.555 55.6912 120.685 Q55.6912 127.791 57.4967 131.356 Q59.3254 134.898 62.9365 134.898 Q66.5707 134.898 68.3763 131.356 Q70.205 127.791 70.205 120.685 Q70.205 113.555 68.3763 110.014 Q66.5707 106.449 62.9365 106.449 M62.9365 102.745 Q68.7467 102.745 71.8022 107.352 Q74.8809 111.935 74.8809 120.685 Q74.8809 129.412 71.8022 134.018 Q68.7467 138.602 62.9365 138.602 Q57.1264 138.602 54.0477 134.018 Q50.9921 129.412 50.9921 120.685 Q50.9921 111.935 54.0477 107.352 Q57.1264 102.745 62.9365 102.745 Z" fill="#000000" fill-rule="nonzero" fill-opacity="1" /><path clip-path="url(#clip920)" d="M83.0984 132.051 L87.9827 132.051 L87.9827 137.93 L83.0984 137.93 L83.0984 132.051 Z" fill="#000000" fill-rule="nonzero" fill-opacity="1" /><path clip-path="url(#clip920)" d="M108.168 106.449 Q104.557 106.449 102.728 110.014 Q100.922 113.555 100.922 120.685 Q100.922 127.791 102.728 131.356 Q104.557 134.898 108.168 134.898 Q111.802 134.898 113.608 131.356 Q115.436 127.791 115.436 120.685 Q115.436 113.555 113.608 110.014 Q111.802 106.449 108.168 106.449 M108.168 102.745 Q113.978 102.745 117.033 107.352 Q120.112 111.935 120.112 120.685 Q120.112 129.412 117.033 134.018 Q113.978 138.602 108.168 138.602 Q102.358 138.602 99.2789 134.018 Q96.2234 129.412 96.2234 120.685 Q96.2234 111.935 99.2789 107.352 Q102.358 102.745 108.168 102.745 Z" fill="#000000" fill-rule="nonzero" fill-opacity="1" /><path clip-path="url(#clip920)" d="M132.357 133.995 L148.677 133.995 L148.677 137.93 L126.732 137.93 L126.732 133.995 Q129.394 131.241 133.978 126.611 Q138.584 121.958 139.765 120.616 Q142.01 118.092 142.89 116.356 Q143.793 114.597 143.793 112.907 Q143.793 110.153 141.848 108.417 Q139.927 106.68 136.825 106.68 Q134.626 106.68 132.172 107.444 Q129.742 108.208 126.964 109.759 L126.964 105.037 Q129.788 103.903 132.242 103.324 Q134.695 102.745 136.732 102.745 Q142.103 102.745 145.297 105.43 Q148.492 108.116 148.492 112.606 Q148.492 114.736 147.681 116.657 Q146.894 118.555 144.788 121.148 Q144.209 121.819 141.107 125.037 Q138.006 128.231 132.357 133.995 Z" fill="#000000" fill-rule="nonzero" fill-opacity="1" /><path clip-path="url(#clip920)" d="M168.491 106.449 Q164.88 106.449 163.052 110.014 Q161.246 113.555 161.246 120.685 Q161.246 127.791 163.052 131.356 Q164.88 134.898 168.491 134.898 Q172.126 134.898 173.931 131.356 Q175.76 127.791 175.76 120.685 Q175.76 113.555 173.931 110.014 Q172.126 106.449 168.491 106.449 M168.491 102.745 Q174.302 102.745 177.357 107.352 Q180.436 111.935 180.436 120.685 Q180.436 129.412 177.357 134.018 Q174.302 138.602 168.491 138.602 Q162.681 138.602 159.603 134.018 Q156.547 129.412 156.547 120.685 Q156.547 111.935 159.603 107.352 Q162.681 102.745 168.491 102.745 Z" fill="#000000" fill-rule="nonzero" fill-opacity="1" /><path clip-path="url(#clip920)" d="M625.153 30.8748 L625.153 33.2186 L603.122 33.2186 Q603.435 38.1665 606.091 40.7706 Q608.773 43.3487 613.539 43.3487 Q616.299 43.3487 618.877 42.6716 Q621.481 41.9946 624.033 40.6404 L624.033 45.1716 Q621.455 46.2654 618.747 46.8383 Q616.039 47.4112 613.252 47.4112 Q606.273 47.4112 602.185 43.3487 Q598.122 39.2862 598.122 32.3592 Q598.122 25.1978 601.976 21.0051 Q605.856 16.7864 612.419 16.7864 Q618.304 16.7864 621.716 20.5884 Q625.153 24.3645 625.153 30.8748 M620.362 29.4686 Q620.309 25.5363 618.148 23.1926 Q616.013 20.8488 612.471 20.8488 Q608.461 20.8488 606.039 23.1145 Q603.643 25.3801 603.278 29.4946 L620.362 29.4686 Z" fill="#000000" fill-rule="nonzero" fill-opacity="1" /><path clip-path="url(#clip920)" d="M632.523 35.1456 L632.523 17.4895 L637.315 17.4895 L637.315 34.9634 Q637.315 39.104 638.929 41.1873 Q640.544 43.2446 643.773 43.2446 Q647.653 43.2446 649.893 40.7706 Q652.158 38.2967 652.158 34.0259 L652.158 17.4895 L656.95 17.4895 L656.95 46.656 L652.158 46.656 L652.158 42.1769 Q650.413 44.8331 648.096 46.1352 Q645.804 47.4112 642.757 47.4112 Q637.731 47.4112 635.127 44.2862 Q632.523 41.1612 632.523 35.1456 M644.58 16.7864 L644.58 16.7864 Z" fill="#000000" fill-rule="nonzero" fill-opacity="1" /><path clip-path="url(#clip920)" d="M683.721 21.9686 Q682.913 21.4999 681.95 21.2916 Q681.012 21.0572 679.866 21.0572 Q675.804 21.0572 673.616 23.7134 Q671.455 26.3436 671.455 31.2915 L671.455 46.656 L666.637 46.656 L666.637 17.4895 L671.455 17.4895 L671.455 22.0207 Q672.965 19.3645 675.387 18.0884 Q677.809 16.7864 681.273 16.7864 Q681.767 16.7864 682.366 16.8645 Q682.965 16.9166 683.695 17.0468 L683.721 21.9686 Z" fill="#000000" fill-rule="nonzero" fill-opacity="1" /><path clip-path="url(#clip920)" d="M688.747 17.4895 L693.538 17.4895 L693.538 46.656 L688.747 46.656 L688.747 17.4895 M688.747 6.13538 L693.538 6.13538 L693.538 12.2031 L688.747 12.2031 L688.747 6.13538 Z" fill="#000000" fill-rule="nonzero" fill-opacity="1" /><path clip-path="url(#clip920)" d="M724.502 32.0988 Q724.502 26.8124 722.314 23.8176 Q720.153 20.7968 716.351 20.7968 Q712.549 20.7968 710.361 23.8176 Q708.2 26.8124 708.2 32.0988 Q708.2 37.3852 710.361 40.406 Q712.549 43.4008 716.351 43.4008 Q720.153 43.4008 722.314 40.406 Q724.502 37.3852 724.502 32.0988 M708.2 21.9165 Q709.71 19.3124 712.002 18.0624 Q714.319 16.7864 717.523 16.7864 Q722.835 16.7864 726.142 21.0051 Q729.476 25.2238 729.476 32.0988 Q729.476 38.9737 726.142 43.1925 Q722.835 47.4112 717.523 47.4112 Q714.319 47.4112 712.002 46.1612 Q709.71 44.8852 708.2 42.281 L708.2 46.656 L703.382 46.656 L703.382 6.13538 L708.2 6.13538 L708.2 21.9165 Z" fill="#000000" fill-rule="nonzero" fill-opacity="1" /><path clip-path="url(#clip920)" d="M748.72 20.8488 Q744.866 20.8488 742.627 23.8697 Q740.387 26.8644 740.387 32.0988 Q740.387 37.3331 742.6 40.354 Q744.84 43.3487 748.72 43.3487 Q752.548 43.3487 754.788 40.3279 Q757.028 37.3071 757.028 32.0988 Q757.028 26.9165 754.788 23.8957 Q752.548 20.8488 748.72 20.8488 M748.72 16.7864 Q754.97 16.7864 758.538 20.8488 Q762.106 24.9113 762.106 32.0988 Q762.106 39.2602 758.538 43.3487 Q754.97 47.4112 748.72 47.4112 Q742.444 47.4112 738.877 43.3487 Q735.335 39.2602 735.335 32.0988 Q735.335 24.9113 738.877 20.8488 Q742.444 16.7864 748.72 16.7864 Z" fill="#000000" fill-rule="nonzero" fill-opacity="1" /><path clip-path="url(#clip920)" d="M786.949 21.9686 Q786.142 21.4999 785.178 21.2916 Q784.241 21.0572 783.095 21.0572 Q779.033 21.0572 776.845 23.7134 Q774.684 26.3436 774.684 31.2915 L774.684 46.656 L769.866 46.656 L769.866 17.4895 L774.684 17.4895 L774.684 22.0207 Q776.194 19.3645 778.616 18.0884 Q781.038 16.7864 784.501 16.7864 Q784.996 16.7864 785.595 16.8645 Q786.194 16.9166 786.923 17.0468 L786.949 21.9686 Z" fill="#000000" fill-rule="nonzero" fill-opacity="1" /><path clip-path="url(#clip922)" d="M243.385 1024.07 L286.161 1024.07 L328.937 1016.17 L371.714 1015.55 L414.49 1042.88 L457.266 1047.1 L500.042 1070.44 L542.819 1044.31 L585.595 1031.53 L628.371 1008.7 L671.148 998.518 L713.924 1003.47 L756.7 978.566 L799.476 999.219 L842.253 1024.23 L885.029 1007.38 L927.805 994.935 L970.581 994.515 L1013.36 995.733 L1056.13 1014.84 L1098.91 1070.59 L1141.69 1028.73 L1141.69 913.667 L1098.91 891.738 L1056.13 911.096 L1013.36 934.393 L970.581 929.419 L927.805 946.775 L885.029 910.936 L842.253 881.373 L799.476 898.748 L756.7 895.806 L713.924 909.355 L671.148 923.464 L628.371 910.213 L585.595 929.277 L542.819 932.24 L500.042 958.142 L457.266 954.983 L414.49 961.853 L371.714 964.876 L328.937 977.824 L286.161 1024.07 L243.385 1024.07  Z" fill="#009af9" fill-rule="evenodd" fill-opacity="0.1"/>
<polyline clip-path="url(#clip922)" style="stroke:#009af9; stroke-linecap:round; stroke-linejoin:round; stroke-width:4; stroke-opacity:1; fill:none" points="243.385,1024.07 286.161,1024.07 328.937,996.999 371.714,990.213 414.49,1002.37 457.266,1001.04 500.042,1014.29 542.819,988.276 585.595,980.405 628.371,959.459 671.148,960.991 713.924,956.412 756.7,937.186 799.476,948.984 842.253,952.804 885.029,959.156 927.805,970.855 970.581,961.967 1013.36,965.063 1056.13,962.969 1098.91,981.164 1141.69,971.196 "/>
<path clip-path="url(#clip922)" d="M243.385 1024.07 L286.161 1024.07 L328.937 120.65 L371.714 120.65 L414.49 120.65 L457.266 120.65 L500.042 120.65 L542.819 120.65 L585.595 120.65 L628.371 120.65 L671.148 120.65 L713.924 120.65 L756.7 120.65 L799.476 120.65 L842.253 120.65 L885.029 120.65 L927.805 120.65 L970.581 120.65 L1013.36 120.65 L1056.13 120.65 L1098.91 120.65 L1141.69 120.65 L1141.69 120.65 L1098.91 120.65 L1056.13 120.65 L1013.36 120.65 L970.581 120.65 L927.805 120.65 L885.029 120.65 L842.253 120.65 L799.476 120.65 L756.7 120.65 L713.924 120.65 L671.148 120.65 L628.371 120.65 L585.595 120.65 L542.819 120.65 L500.042 120.65 L457.266 120.65 L414.49 120.65 L371.714 120.65 L328.937 120.65 L286.161 1024.07 L243.385 1024.07  Z" fill="#e26f46" fill-rule="evenodd" fill-opacity="0.1"/>
<polyline clip-path="url(#clip922)" style="stroke:#e26f46; stroke-linecap:round; stroke-linejoin:round; stroke-width:4; stroke-opacity:1; fill:none" points="243.385,1024.07 286.161,1024.07 328.937,120.65 371.714,120.65 414.49,120.65 457.266,120.65 500.042,120.65 542.819,120.65 585.595,120.65 628.371,120.65 671.148,120.65 713.924,120.65 756.7,120.65 799.476,120.65 842.253,120.65 885.029,120.65 927.805,120.65 970.581,120.65 1013.36,120.65 1056.13,120.65 1098.91,120.65 1141.69,120.65 "/>
<path clip-path="url(#clip920)" d="M1400.56 1099.09 L2352.76 1099.09 L2352.76 92.1521 L1400.56 92.1521  Z" fill="#ffffff" fill-rule="evenodd" fill-opacity="1"/>
<polyline clip-path="url(#clip921)" style="stroke:#000000; stroke-linecap:round; stroke-linejoin:round; stroke-width:2; stroke-opacity:0.1; fill:none" points="1598.61,1099.09 1598.61,92.1521 "/>
<polyline clip-path="url(#clip921)" style="stroke:#000000; stroke-linecap:round; stroke-linejoin:round; stroke-width:2; stroke-opacity:0.1; fill:none" points="1812.49,1099.09 1812.49,92.1521 "/>
<polyline clip-path="url(#clip921)" style="stroke:#000000; stroke-linecap:round; stroke-linejoin:round; stroke-width:2; stroke-opacity:0.1; fill:none" points="2026.37,1099.09 2026.37,92.1521 "/>
<polyline clip-path="url(#clip921)" style="stroke:#000000; stroke-linecap:round; stroke-linejoin:round; stroke-width:2; stroke-opacity:0.1; fill:none" points="2240.25,1099.09 2240.25,92.1521 "/>
<polyline clip-path="url(#clip921)" style="stroke:#000000; stroke-linecap:round; stroke-linejoin:round; stroke-width:2; stroke-opacity:0.1; fill:none" points="1400.56,947.692 2352.76,947.692 "/>
<polyline clip-path="url(#clip921)" style="stroke:#000000; stroke-linecap:round; stroke-linejoin:round; stroke-width:2; stroke-opacity:0.1; fill:none" points="1400.56,763.345 2352.76,763.345 "/>
<polyline clip-path="url(#clip921)" style="stroke:#000000; stroke-linecap:round; stroke-linejoin:round; stroke-width:2; stroke-opacity:0.1; fill:none" points="1400.56,578.998 2352.76,578.998 "/>
<polyline clip-path="url(#clip921)" style="stroke:#000000; stroke-linecap:round; stroke-linejoin:round; stroke-width:2; stroke-opacity:0.1; fill:none" points="1400.56,394.651 2352.76,394.651 "/>
<polyline clip-path="url(#clip921)" style="stroke:#000000; stroke-linecap:round; stroke-linejoin:round; stroke-width:2; stroke-opacity:0.1; fill:none" points="1400.56,210.304 2352.76,210.304 "/>
<polyline clip-path="url(#clip920)" style="stroke:#000000; stroke-linecap:round; stroke-linejoin:round; stroke-width:4; stroke-opacity:1; fill:none" points="1400.56,1099.09 2352.76,1099.09 "/>
<polyline clip-path="url(#clip920)" style="stroke:#000000; stroke-linecap:round; stroke-linejoin:round; stroke-width:4; stroke-opacity:1; fill:none" points="1598.61,1099.09 1598.61,1080.19 "/>
<polyline clip-path="url(#clip920)" style="stroke:#000000; stroke-linecap:round; stroke-linejoin:round; stroke-width:4; stroke-opacity:1; fill:none" points="1812.49,1099.09 1812.49,1080.19 "/>
<polyline clip-path="url(#clip920)" style="stroke:#000000; stroke-linecap:round; stroke-linejoin:round; stroke-width:4; stroke-opacity:1; fill:none" points="2026.37,1099.09 2026.37,1080.19 "/>
<polyline clip-path="url(#clip920)" style="stroke:#000000; stroke-linecap:round; stroke-linejoin:round; stroke-width:4; stroke-opacity:1; fill:none" points="2240.25,1099.09 2240.25,1080.19 "/>
<path clip-path="url(#clip920)" d="M1588.89 1126.93 L1607.24 1126.93 L1607.24 1130.86 L1593.17 1130.86 L1593.17 1139.34 Q1594.19 1138.99 1595.21 1138.83 Q1596.23 1138.64 1597.24 1138.64 Q1603.03 1138.64 1606.41 1141.81 Q1609.79 1144.98 1609.79 1150.4 Q1609.79 1155.98 1606.32 1159.08 Q1602.85 1162.16 1596.53 1162.16 Q1594.35 1162.16 1592.08 1161.79 Q1589.84 1161.42 1587.43 1160.68 L1587.43 1155.98 Q1589.51 1157.11 1591.74 1157.67 Q1593.96 1158.22 1596.43 1158.22 Q1600.44 1158.22 1602.78 1156.12 Q1605.12 1154.01 1605.12 1150.4 Q1605.12 1146.79 1602.78 1144.68 Q1600.44 1142.58 1596.43 1142.58 Q1594.56 1142.58 1592.68 1142.99 Q1590.83 1143.41 1588.89 1144.29 L1588.89 1126.93 Z" fill="#000000" fill-rule="nonzero" fill-opacity="1" /><path clip-path="url(#clip920)" d="M1787.18 1157.55 L1794.82 1157.55 L1794.82 1131.19 L1786.51 1132.85 L1786.51 1128.59 L1794.77 1126.93 L1799.45 1126.93 L1799.45 1157.55 L1807.09 1157.55 L1807.09 1161.49 L1787.18 1161.49 L1787.18 1157.55 Z" fill="#000000" fill-rule="nonzero" fill-opacity="1" /><path clip-path="url(#clip920)" d="M1826.53 1130.01 Q1822.92 1130.01 1821.09 1133.57 Q1819.29 1137.11 1819.29 1144.24 Q1819.29 1151.35 1821.09 1154.91 Q1822.92 1158.46 1826.53 1158.46 Q1830.17 1158.46 1831.97 1154.91 Q1833.8 1151.35 1833.8 1144.24 Q1833.8 1137.11 1831.97 1133.57 Q1830.17 1130.01 1826.53 1130.01 M1826.53 1126.3 Q1832.34 1126.3 1835.4 1130.91 Q1838.48 1135.49 1838.48 1144.24 Q1838.48 1152.97 1835.4 1157.58 Q1832.34 1162.16 1826.53 1162.16 Q1820.72 1162.16 1817.64 1157.58 Q1814.59 1152.97 1814.59 1144.24 Q1814.59 1135.49 1817.64 1130.91 Q1820.72 1126.3 1826.53 1126.3 Z" fill="#000000" fill-rule="nonzero" fill-opacity="1" /><path clip-path="url(#clip920)" d="M2001.56 1157.55 L2009.2 1157.55 L2009.2 1131.19 L2000.89 1132.85 L2000.89 1128.59 L2009.15 1126.93 L2013.83 1126.93 L2013.83 1157.55 L2021.47 1157.55 L2021.47 1161.49 L2001.56 1161.49 L2001.56 1157.55 Z" fill="#000000" fill-rule="nonzero" fill-opacity="1" /><path clip-path="url(#clip920)" d="M2030.96 1126.93 L2049.31 1126.93 L2049.31 1130.86 L2035.24 1130.86 L2035.24 1139.34 Q2036.26 1138.99 2037.28 1138.83 Q2038.29 1138.64 2039.31 1138.64 Q2045.1 1138.64 2048.48 1141.81 Q2051.86 1144.98 2051.86 1150.4 Q2051.86 1155.98 2048.39 1159.08 Q2044.91 1162.16 2038.6 1162.16 Q2036.42 1162.16 2034.15 1161.79 Q2031.91 1161.42 2029.5 1160.68 L2029.5 1155.98 Q2031.58 1157.11 2033.8 1157.67 Q2036.03 1158.22 2038.5 1158.22 Q2042.51 1158.22 2044.85 1156.12 Q2047.18 1154.01 2047.18 1150.4 Q2047.18 1146.79 2044.85 1144.68 Q2042.51 1142.58 2038.5 1142.58 Q2036.63 1142.58 2034.75 1142.99 Q2032.9 1143.41 2030.96 1144.29 L2030.96 1126.93 Z" fill="#000000" fill-rule="nonzero" fill-opacity="1" /><path clip-path="url(#clip920)" d="M2219.03 1157.55 L2235.35 1157.55 L2235.35 1161.49 L2213.4 1161.49 L2213.4 1157.55 Q2216.06 1154.8 2220.65 1150.17 Q2225.25 1145.52 2226.43 1144.17 Q2228.68 1141.65 2229.56 1139.91 Q2230.46 1138.15 2230.46 1136.46 Q2230.46 1133.71 2228.52 1131.97 Q2226.6 1130.24 2223.5 1130.24 Q2221.3 1130.24 2218.84 1131 Q2216.41 1131.77 2213.63 1133.32 L2213.63 1128.59 Q2216.46 1127.46 2218.91 1126.88 Q2221.37 1126.3 2223.4 1126.3 Q2228.77 1126.3 2231.97 1128.99 Q2235.16 1131.67 2235.16 1136.16 Q2235.16 1138.29 2234.35 1140.21 Q2233.56 1142.11 2231.46 1144.71 Q2230.88 1145.38 2227.78 1148.59 Q2224.68 1151.79 2219.03 1157.55 Z" fill="#000000" fill-rule="nonzero" fill-opacity="1" /><path clip-path="url(#clip920)" d="M2255.16 1130.01 Q2251.55 1130.01 2249.72 1133.57 Q2247.92 1137.11 2247.92 1144.24 Q2247.92 1151.35 2249.72 1154.91 Q2251.55 1158.46 2255.16 1158.46 Q2258.8 1158.46 2260.6 1154.91 Q2262.43 1151.35 2262.43 1144.24 Q2262.43 1137.11 2260.6 1133.57 Q2258.8 1130.01 2255.16 1130.01 M2255.16 1126.3 Q2260.97 1126.3 2264.03 1130.91 Q2267.11 1135.49 2267.11 1144.24 Q2267.11 1152.97 2264.03 1157.58 Q2260.97 1162.16 2255.16 1162.16 Q2249.35 1162.16 2246.27 1157.58 Q2243.22 1152.97 2243.22 1144.24 Q2243.22 1135.49 2246.27 1130.91 Q2249.35 1126.3 2255.16 1126.3 Z" fill="#000000" fill-rule="nonzero" fill-opacity="1" /><polyline clip-path="url(#clip920)" style="stroke:#000000; stroke-linecap:round; stroke-linejoin:round; stroke-width:4; stroke-opacity:1; fill:none" points="1400.56,1099.09 1400.56,92.1521 "/>
<polyline clip-path="url(#clip920)" style="stroke:#000000; stroke-linecap:round; stroke-linejoin:round; stroke-width:4; stroke-opacity:1; fill:none" points="1400.56,947.692 1419.45,947.692 "/>
<polyline clip-path="url(#clip920)" style="stroke:#000000; stroke-linecap:round; stroke-linejoin:round; stroke-width:4; stroke-opacity:1; fill:none" points="1400.56,763.345 1419.45,763.345 "/>
<polyline clip-path="url(#clip920)" style="stroke:#000000; stroke-linecap:round; stroke-linejoin:round; stroke-width:4; stroke-opacity:1; fill:none" points="1400.56,578.998 1419.45,578.998 "/>
<polyline clip-path="url(#clip920)" style="stroke:#000000; stroke-linecap:round; stroke-linejoin:round; stroke-width:4; stroke-opacity:1; fill:none" points="1400.56,394.651 1419.45,394.651 "/>
<polyline clip-path="url(#clip920)" style="stroke:#000000; stroke-linecap:round; stroke-linejoin:round; stroke-width:4; stroke-opacity:1; fill:none" points="1400.56,210.304 1419.45,210.304 "/>
<path clip-path="url(#clip920)" d="M1269.63 961.037 L1277.27 961.037 L1277.27 934.671 L1268.95 936.338 L1268.95 932.078 L1277.22 930.412 L1281.89 930.412 L1281.89 961.037 L1289.53 961.037 L1289.53 964.972 L1269.63 964.972 L1269.63 961.037 Z" fill="#000000" fill-rule="nonzero" fill-opacity="1" /><path clip-path="url(#clip920)" d="M1298.98 959.092 L1303.86 959.092 L1303.86 964.972 L1298.98 964.972 L1298.98 959.092 Z" fill="#000000" fill-rule="nonzero" fill-opacity="1" /><path clip-path="url(#clip920)" d="M1324.05 933.49 Q1320.44 933.49 1318.61 937.055 Q1316.8 940.597 1316.8 947.727 Q1316.8 954.833 1318.61 958.398 Q1320.44 961.939 1324.05 961.939 Q1327.68 961.939 1329.49 958.398 Q1331.32 954.833 1331.32 947.727 Q1331.32 940.597 1329.49 937.055 Q1327.68 933.49 1324.05 933.49 M1324.05 929.787 Q1329.86 929.787 1332.91 934.393 Q1335.99 938.977 1335.99 947.727 Q1335.99 956.453 1332.91 961.06 Q1329.86 965.643 1324.05 965.643 Q1318.24 965.643 1315.16 961.06 Q1312.1 956.453 1312.1 947.727 Q1312.1 938.977 1315.16 934.393 Q1318.24 929.787 1324.05 929.787 Z" fill="#000000" fill-rule="nonzero" fill-opacity="1" /><path clip-path="url(#clip920)" d="M1348.24 961.037 L1364.56 961.037 L1364.56 964.972 L1342.61 964.972 L1342.61 961.037 Q1345.27 958.282 1349.86 953.652 Q1354.46 949 1355.64 947.657 Q1357.89 945.134 1358.77 943.398 Q1359.67 941.639 1359.67 939.949 Q1359.67 937.194 1357.73 935.458 Q1355.81 933.722 1352.7 933.722 Q1350.51 933.722 1348.05 934.486 Q1345.62 935.25 1342.84 936.801 L1342.84 932.078 Q1345.67 930.944 1348.12 930.366 Q1350.57 929.787 1352.61 929.787 Q1357.98 929.787 1361.18 932.472 Q1364.37 935.157 1364.37 939.648 Q1364.37 941.777 1363.56 943.699 Q1362.77 945.597 1360.67 948.189 Q1360.09 948.861 1356.99 952.078 Q1353.89 955.273 1348.24 961.037 Z" fill="#000000" fill-rule="nonzero" fill-opacity="1" /><path clip-path="url(#clip920)" d="M1269.02 776.69 L1276.66 776.69 L1276.66 750.324 L1268.35 751.991 L1268.35 747.732 L1276.62 746.065 L1281.29 746.065 L1281.29 776.69 L1288.93 776.69 L1288.93 780.625 L1269.02 780.625 L1269.02 776.69 Z" fill="#000000" fill-rule="nonzero" fill-opacity="1" /><path clip-path="url(#clip920)" d="M1298.38 774.745 L1303.26 774.745 L1303.26 780.625 L1298.38 780.625 L1298.38 774.745 Z" fill="#000000" fill-rule="nonzero" fill-opacity="1" /><path clip-path="url(#clip920)" d="M1323.45 749.144 Q1319.83 749.144 1318.01 752.708 Q1316.2 756.25 1316.2 763.38 Q1316.2 770.486 1318.01 774.051 Q1319.83 777.593 1323.45 777.593 Q1327.08 777.593 1328.89 774.051 Q1330.71 770.486 1330.71 763.38 Q1330.71 756.25 1328.89 752.708 Q1327.08 749.144 1323.45 749.144 M1323.45 745.44 Q1329.26 745.44 1332.31 750.046 Q1335.39 754.63 1335.39 763.38 Q1335.39 772.106 1332.31 776.713 Q1329.26 781.296 1323.45 781.296 Q1317.64 781.296 1314.56 776.713 Q1311.5 772.106 1311.5 763.38 Q1311.5 754.63 1314.56 750.046 Q1317.64 745.44 1323.45 745.44 Z" fill="#000000" fill-rule="nonzero" fill-opacity="1" /><path clip-path="url(#clip920)" d="M1343.65 746.065 L1362.01 746.065 L1362.01 750 L1347.94 750 L1347.94 758.472 Q1348.95 758.125 1349.97 757.963 Q1350.99 757.778 1352.01 757.778 Q1357.8 757.778 1361.18 760.949 Q1364.56 764.12 1364.56 769.537 Q1364.56 775.116 1361.08 778.218 Q1357.61 781.296 1351.29 781.296 Q1349.12 781.296 1346.85 780.926 Q1344.6 780.556 1342.2 779.815 L1342.2 775.116 Q1344.28 776.25 1346.5 776.806 Q1348.72 777.361 1351.2 777.361 Q1355.2 777.361 1357.54 775.255 Q1359.88 773.148 1359.88 769.537 Q1359.88 765.926 1357.54 763.819 Q1355.2 761.713 1351.2 761.713 Q1349.32 761.713 1347.45 762.13 Q1345.6 762.546 1343.65 763.426 L1343.65 746.065 Z" fill="#000000" fill-rule="nonzero" fill-opacity="1" /><path clip-path="url(#clip920)" d="M1268.12 592.343 L1275.76 592.343 L1275.76 565.977 L1267.45 567.644 L1267.45 563.385 L1275.71 561.718 L1280.39 561.718 L1280.39 592.343 L1288.03 592.343 L1288.03 596.278 L1268.12 596.278 L1268.12 592.343 Z" fill="#000000" fill-rule="nonzero" fill-opacity="1" /><path clip-path="url(#clip920)" d="M1297.47 590.399 L1302.36 590.399 L1302.36 596.278 L1297.47 596.278 L1297.47 590.399 Z" fill="#000000" fill-rule="nonzero" fill-opacity="1" /><path clip-path="url(#clip920)" d="M1322.54 564.797 Q1318.93 564.797 1317.1 568.362 Q1315.3 571.903 1315.3 579.033 Q1315.3 586.139 1317.1 589.704 Q1318.93 593.246 1322.54 593.246 Q1326.18 593.246 1327.98 589.704 Q1329.81 586.139 1329.81 579.033 Q1329.81 571.903 1327.98 568.362 Q1326.18 564.797 1322.54 564.797 M1322.54 561.093 Q1328.35 561.093 1331.41 565.7 Q1334.49 570.283 1334.49 579.033 Q1334.49 587.76 1331.41 592.366 Q1328.35 596.949 1322.54 596.949 Q1316.73 596.949 1313.65 592.366 Q1310.6 587.76 1310.6 579.033 Q1310.6 570.283 1313.65 565.7 Q1316.73 561.093 1322.54 561.093 Z" fill="#000000" fill-rule="nonzero" fill-opacity="1" /><path clip-path="url(#clip920)" d="M1352.7 579.866 Q1349.37 579.866 1347.45 581.649 Q1345.55 583.431 1345.55 586.556 Q1345.55 589.681 1347.45 591.463 Q1349.37 593.246 1352.7 593.246 Q1356.04 593.246 1357.96 591.463 Q1359.88 589.658 1359.88 586.556 Q1359.88 583.431 1357.96 581.649 Q1356.06 579.866 1352.7 579.866 M1348.03 577.875 Q1345.02 577.135 1343.33 575.075 Q1341.66 573.014 1341.66 570.051 Q1341.66 565.908 1344.6 563.501 Q1347.57 561.093 1352.7 561.093 Q1357.87 561.093 1360.81 563.501 Q1363.75 565.908 1363.75 570.051 Q1363.75 573.014 1362.06 575.075 Q1360.39 577.135 1357.4 577.875 Q1360.78 578.662 1362.66 580.954 Q1364.56 583.246 1364.56 586.556 Q1364.56 591.579 1361.48 594.264 Q1358.42 596.949 1352.7 596.949 Q1346.99 596.949 1343.91 594.264 Q1340.85 591.579 1340.85 586.556 Q1340.85 583.246 1342.75 580.954 Q1344.65 578.662 1348.03 577.875 M1346.32 570.491 Q1346.32 573.176 1347.98 574.681 Q1349.67 576.186 1352.7 576.186 Q1355.71 576.186 1357.4 574.681 Q1359.12 573.176 1359.12 570.491 Q1359.12 567.806 1357.4 566.301 Q1355.71 564.797 1352.7 564.797 Q1349.67 564.797 1347.98 566.301 Q1346.32 567.806 1346.32 570.491 Z" fill="#000000" fill-rule="nonzero" fill-opacity="1" /><path clip-path="url(#clip920)" d="M1269.26 407.996 L1276.89 407.996 L1276.89 381.631 L1268.58 383.297 L1268.58 379.038 L1276.85 377.371 L1281.52 377.371 L1281.52 407.996 L1289.16 407.996 L1289.16 411.931 L1269.26 411.931 L1269.26 407.996 Z" fill="#000000" fill-rule="nonzero" fill-opacity="1" /><path clip-path="url(#clip920)" d="M1298.61 406.052 L1303.49 406.052 L1303.49 411.931 L1298.61 411.931 L1298.61 406.052 Z" fill="#000000" fill-rule="nonzero" fill-opacity="1" /><path clip-path="url(#clip920)" d="M1314.49 407.996 L1322.13 407.996 L1322.13 381.631 L1313.82 383.297 L1313.82 379.038 L1322.08 377.371 L1326.76 377.371 L1326.76 407.996 L1334.39 407.996 L1334.39 411.931 L1314.49 411.931 L1314.49 407.996 Z" fill="#000000" fill-rule="nonzero" fill-opacity="1" /><path clip-path="url(#clip920)" d="M1344.65 407.996 L1352.29 407.996 L1352.29 381.631 L1343.98 383.297 L1343.98 379.038 L1352.24 377.371 L1356.92 377.371 L1356.92 407.996 L1364.56 407.996 L1364.56 411.931 L1344.65 411.931 L1344.65 407.996 Z" fill="#000000" fill-rule="nonzero" fill-opacity="1" /><path clip-path="url(#clip920)" d="M1267.54 223.649 L1275.18 223.649 L1275.18 197.284 L1266.87 198.95 L1266.87 194.691 L1275.14 193.024 L1279.81 193.024 L1279.81 223.649 L1287.45 223.649 L1287.45 227.584 L1267.54 227.584 L1267.54 223.649 Z" fill="#000000" fill-rule="nonzero" fill-opacity="1" /><path clip-path="url(#clip920)" d="M1296.89 221.705 L1301.78 221.705 L1301.78 227.584 L1296.89 227.584 L1296.89 221.705 Z" fill="#000000" fill-rule="nonzero" fill-opacity="1" /><path clip-path="url(#clip920)" d="M1312.77 223.649 L1320.41 223.649 L1320.41 197.284 L1312.1 198.95 L1312.1 194.691 L1320.37 193.024 L1325.04 193.024 L1325.04 223.649 L1332.68 223.649 L1332.68 227.584 L1312.77 227.584 L1312.77 223.649 Z" fill="#000000" fill-rule="nonzero" fill-opacity="1" /><path clip-path="url(#clip920)" d="M1354.97 197.099 L1343.17 215.547 L1354.97 215.547 L1354.97 197.099 M1353.75 193.024 L1359.63 193.024 L1359.63 215.547 L1364.56 215.547 L1364.56 219.436 L1359.63 219.436 L1359.63 227.584 L1354.97 227.584 L1354.97 219.436 L1339.37 219.436 L1339.37 214.922 L1353.75 193.024 Z" fill="#000000" fill-rule="nonzero" fill-opacity="1" /><path clip-path="url(#clip920)" d="M1733.34 41.1092 L1733.34 30.6665 L1724.74 30.6665 L1724.74 26.3436 L1738.54 26.3436 L1738.54 43.0362 Q1735.5 45.1977 1731.83 46.3175 Q1728.15 47.4112 1723.99 47.4112 Q1714.87 47.4112 1709.72 42.0987 Q1704.59 36.7602 1704.59 27.2551 Q1704.59 17.7239 1709.72 12.4114 Q1714.87 7.07288 1723.99 7.07288 Q1727.79 7.07288 1731.2 8.01037 Q1734.64 8.94787 1737.53 10.7708 L1737.53 16.3697 Q1734.61 13.8958 1731.33 12.6458 Q1728.05 11.3958 1724.43 11.3958 Q1717.29 11.3958 1713.7 15.3801 Q1710.13 19.3645 1710.13 27.2551 Q1710.13 35.1196 1713.7 39.104 Q1717.29 43.0883 1724.43 43.0883 Q1727.22 43.0883 1729.4 42.6196 Q1731.59 42.1248 1733.34 41.1092 Z" fill="#000000" fill-rule="nonzero" fill-opacity="1" /><path clip-path="url(#clip920)" d="M1753.41 12.0989 L1753.41 42.3331 L1759.77 42.3331 Q1767.82 42.3331 1771.54 38.6873 Q1775.29 35.0415 1775.29 27.1769 Q1775.29 19.3645 1771.54 15.7447 Q1767.82 12.0989 1759.77 12.0989 L1753.41 12.0989 M1748.15 7.776 L1758.96 7.776 Q1770.26 7.776 1775.55 12.4895 Q1780.84 17.177 1780.84 27.1769 Q1780.84 37.229 1775.52 41.9425 Q1770.21 46.656 1758.96 46.656 L1748.15 46.656 L1748.15 7.776 Z" fill="#000000" fill-rule="nonzero" fill-opacity="1" /><path clip-path="url(#clip920)" d="M1794.48 12.0989 L1794.48 26.7082 L1801.1 26.7082 Q1804.77 26.7082 1806.77 24.8072 Q1808.78 22.9061 1808.78 19.3905 Q1808.78 15.901 1806.77 13.9999 Q1804.77 12.0989 1801.1 12.0989 L1794.48 12.0989 M1789.22 7.776 L1801.1 7.776 Q1807.63 7.776 1810.97 10.7447 Q1814.33 13.6874 1814.33 19.3905 Q1814.33 25.1457 1810.97 28.0884 Q1807.63 31.0311 1801.1 31.0311 L1794.48 31.0311 L1794.48 46.656 L1789.22 46.656 L1789.22 7.776 Z" fill="#000000" fill-rule="nonzero" fill-opacity="1" /><path clip-path="url(#clip920)" d="M1843.6 12.0989 L1843.6 42.3331 L1849.95 42.3331 Q1858 42.3331 1861.72 38.6873 Q1865.47 35.0415 1865.47 27.1769 Q1865.47 19.3645 1861.72 15.7447 Q1858 12.0989 1849.95 12.0989 L1843.6 12.0989 M1838.34 7.776 L1849.14 7.776 Q1860.45 7.776 1865.73 12.4895 Q1871.02 17.177 1871.02 27.1769 Q1871.02 37.229 1865.71 41.9425 Q1860.39 46.656 1849.14 46.656 L1838.34 46.656 L1838.34 7.776 Z" fill="#000000" fill-rule="nonzero" fill-opacity="1" /><path clip-path="url(#clip920)" d="M1904.14 30.8748 L1904.14 33.2186 L1882.11 33.2186 Q1882.42 38.1665 1885.08 40.7706 Q1887.76 43.3487 1892.53 43.3487 Q1895.29 43.3487 1897.87 42.6716 Q1900.47 41.9946 1903.02 40.6404 L1903.02 45.1716 Q1900.45 46.2654 1897.74 46.8383 Q1895.03 47.4112 1892.24 47.4112 Q1885.26 47.4112 1881.17 43.3487 Q1877.11 39.2862 1877.11 32.3592 Q1877.11 25.1978 1880.97 21.0051 Q1884.85 16.7864 1891.41 16.7864 Q1897.29 16.7864 1900.71 20.5884 Q1904.14 24.3645 1904.14 30.8748 M1899.35 29.4686 Q1899.3 25.5363 1897.14 23.1926 Q1895 20.8488 1891.46 20.8488 Q1887.45 20.8488 1885.03 23.1145 Q1882.63 25.3801 1882.27 29.4946 L1899.35 29.4686 Z" fill="#000000" fill-rule="nonzero" fill-opacity="1" /><path clip-path="url(#clip920)" d="M1926.77 6.13538 L1926.77 10.1197 L1922.19 10.1197 Q1919.61 10.1197 1918.6 11.1614 Q1917.61 12.2031 1917.61 14.9114 L1917.61 17.4895 L1925.5 17.4895 L1925.5 21.2134 L1917.61 21.2134 L1917.61 46.656 L1912.79 46.656 L1912.79 21.2134 L1908.21 21.2134 L1908.21 17.4895 L1912.79 17.4895 L1912.79 15.4583 Q1912.79 10.5885 1915.05 8.37496 Q1917.32 6.13538 1922.24 6.13538 L1926.77 6.13538 Z" fill="#000000" fill-rule="nonzero" fill-opacity="1" /><path clip-path="url(#clip920)" d="M1930.78 6.13538 L1935.58 6.13538 L1935.58 46.656 L1930.78 46.656 L1930.78 6.13538 Z" fill="#000000" fill-rule="nonzero" fill-opacity="1" /><path clip-path="url(#clip920)" d="M1958.86 31.9946 Q1953.05 31.9946 1950.81 33.3227 Q1948.57 34.6509 1948.57 37.854 Q1948.57 40.406 1950.24 41.9164 Q1951.93 43.4008 1954.82 43.4008 Q1958.8 43.4008 1961.2 40.5883 Q1963.62 37.7498 1963.62 33.0623 L1963.62 31.9946 L1958.86 31.9946 M1968.41 30.0155 L1968.41 46.656 L1963.62 46.656 L1963.62 42.2289 Q1961.98 44.8852 1959.53 46.1612 Q1957.09 47.4112 1953.54 47.4112 Q1949.06 47.4112 1946.41 44.9112 Q1943.78 42.3852 1943.78 38.1665 Q1943.78 33.2446 1947.06 30.7446 Q1950.37 28.2446 1956.9 28.2446 L1963.62 28.2446 L1963.62 27.7759 Q1963.62 24.4686 1961.43 22.6718 Q1959.27 20.8488 1955.34 20.8488 Q1952.84 20.8488 1950.47 21.4478 Q1948.1 22.0468 1945.91 23.2447 L1945.91 18.8176 Q1948.54 17.802 1951.02 17.3072 Q1953.49 16.7864 1955.84 16.7864 Q1962.16 16.7864 1965.29 20.0676 Q1968.41 23.3488 1968.41 30.0155 Z" fill="#000000" fill-rule="nonzero" fill-opacity="1" /><path clip-path="url(#clip920)" d="M1983.02 9.20828 L1983.02 17.4895 L1992.89 17.4895 L1992.89 21.2134 L1983.02 21.2134 L1983.02 37.0467 Q1983.02 40.6144 1983.99 41.63 Q1984.98 42.6456 1987.97 42.6456 L1992.89 42.6456 L1992.89 46.656 L1987.97 46.656 Q1982.42 46.656 1980.31 44.5987 Q1978.21 42.5154 1978.21 37.0467 L1978.21 21.2134 L1974.69 21.2134 L1974.69 17.4895 L1978.21 17.4895 L1978.21 9.20828 L1983.02 9.20828 Z" fill="#000000" fill-rule="nonzero" fill-opacity="1" /><path clip-path="url(#clip920)" d="M2010.5 20.8488 Q2006.64 20.8488 2004.4 23.8697 Q2002.16 26.8644 2002.16 32.0988 Q2002.16 37.3331 2004.38 40.354 Q2006.62 43.3487 2010.5 43.3487 Q2014.32 43.3487 2016.56 40.3279 Q2018.8 37.3071 2018.8 32.0988 Q2018.8 26.9165 2016.56 23.8957 Q2014.32 20.8488 2010.5 20.8488 M2010.5 16.7864 Q2016.75 16.7864 2020.31 20.8488 Q2023.88 24.9113 2023.88 32.0988 Q2023.88 39.2602 2020.31 43.3487 Q2016.75 47.4112 2010.5 47.4112 Q2004.22 47.4112 2000.65 43.3487 Q1997.11 39.2602 1997.11 32.0988 Q1997.11 24.9113 2000.65 20.8488 Q2004.22 16.7864 2010.5 16.7864 Z" fill="#000000" fill-rule="nonzero" fill-opacity="1" /><path clip-path="url(#clip920)" d="M2048.73 21.9686 Q2047.92 21.4999 2046.95 21.2916 Q2046.02 21.0572 2044.87 21.0572 Q2040.81 21.0572 2038.62 23.7134 Q2036.46 26.3436 2036.46 31.2915 L2036.46 46.656 L2031.64 46.656 L2031.64 17.4895 L2036.46 17.4895 L2036.46 22.0207 Q2037.97 19.3645 2040.39 18.0884 Q2042.81 16.7864 2046.28 16.7864 Q2046.77 16.7864 2047.37 16.8645 Q2047.97 16.9166 2048.7 17.0468 L2048.73 21.9686 Z" fill="#000000" fill-rule="nonzero" fill-opacity="1" /><path clip-path="url(#clip921)" d="M1513.06 1068.38 L1555.83 1045.16 L1598.61 1014.22 L1641.39 1001.26 L1684.16 970.069 L1726.94 977.546 L1769.72 943.634 L1812.49 889.12 L1855.27 873.297 L1898.04 868.827 L1940.82 845.857 L1983.6 826.668 L2026.37 790.401 L2069.15 783.91 L2111.93 785.371 L2154.7 762.838 L2197.48 756.147 L2240.25 754.329 L2283.03 759.13 L2325.81 727.212 L2325.81 345.812 L2283.03 370.584 L2240.25 399.159 L2197.48 407.68 L2154.7 423.137 L2111.93 450.971 L2069.15 489.805 L2026.37 558.784 L1983.6 579.556 L1940.82 611.612 L1898.04 618.308 L1855.27 645.215 L1812.49 660.775 L1769.72 661.631 L1726.94 717.072 L1684.16 801.326 L1641.39 847.666 L1598.61 897.684 L1555.83 950.925 L1513.06 1010.95  Z" fill="#009af9" fill-rule="evenodd" fill-opacity="0.1"/>
<polyline clip-path="url(#clip921)" style="stroke:#009af9; stroke-linecap:round; stroke-linejoin:round; stroke-width:4; stroke-opacity:1; fill:none" points="1513.06,1039.66 1555.83,998.041 1598.61,955.95 1641.39,924.463 1684.16,885.697 1726.94,847.309 1769.72,802.632 1812.49,774.948 1855.27,759.256 1898.04,743.567 1940.82,728.734 1983.6,703.112 2026.37,674.593 2069.15,636.858 2111.93,618.171 2154.7,592.988 2197.48,581.913 2240.25,576.744 2283.03,564.857 2325.81,536.512 "/>
<path clip-path="url(#clip921)" d="M1513.06 1049.96 L1555.83 1040.44 L1598.61 1032.69 L1641.39 1035.1 L1684.16 1003.12 L1726.94 966.834 L1769.72 957.372 L1812.49 950.259 L1855.27 939.784 L1898.04 938.649 L1940.82 937.561 L1983.6 918.891 L2026.37 892.965 L2069.15 869.801 L2111.93 872.488 L2154.7 860.434 L2197.48 830.028 L2240.25 825.446 L2283.03 797.206 L2325.81 780.891 L2325.81 120.65 L2283.03 156.646 L2240.25 187.084 L2197.48 257.99 L2154.7 310.492 L2111.93 382.104 L2069.15 402.12 L2026.37 451.881 L1983.6 505.812 L1940.82 507.517 L1898.04 556.218 L1855.27 653.793 L1812.49 728.293 L1769.72 796.907 L1726.94 831.29 L1684.16 875.99 L1641.39 934 L1598.61 960.904 L1555.83 997.937 L1513.06 1035.54  Z" fill="#e26f46" fill-rule="evenodd" fill-opacity="0.1"/>
<polyline clip-path="url(#clip921)" style="stroke:#e26f46; stroke-linecap:round; stroke-linejoin:round; stroke-width:4; stroke-opacity:1; fill:none" points="1513.06,1042.75 1555.83,1019.19 1598.61,996.796 1641.39,984.552 1684.16,939.557 1726.94,899.062 1769.72,877.139 1812.49,839.276 1855.27,796.788 1898.04,747.434 1940.82,722.539 1983.6,712.352 2026.37,672.423 2069.15,635.961 2111.93,627.296 2154.7,585.463 2197.48,544.009 2240.25,506.265 2283.03,476.926 2325.81,450.771 "/>
</svg>
