<?xml version="1.0" encoding="utf-8"?>
<svg xmlns="http://www.w3.org/2000/svg" xmlns:xlink="http://www.w3.org/1999/xlink" width="600" height="400" viewBox="0 0 2400 1600">
<defs>
  <clipPath id="clip950">
    <rect x="0" y="0" width="2400" height="1600"/>
  </clipPath>
</defs>
<path clip-path="url(#clip950)" d="M0 1600 L2400 1600 L2400 0 L0 0  Z" fill="#ffffff" fill-rule="evenodd" fill-opacity="1"/>
<defs>
  <clipPath id="clip951">
    <rect x="202" y="47" width="2152" height="1440"/>
  </clipPath>
</defs>
<path clip-path="url(#clip950)" d="M202.177 1486.45 L2352.76 1486.45 L2352.76 47.2441 L202.177 47.2441  Z" fill="#ffffff" fill-rule="evenodd" fill-opacity="1"/>
<polyline clip-path="url(#clip951)" style="stroke:#000000; stroke-linecap:round; stroke-linejoin:round; stroke-width:2; stroke-opacity:0.1; fill:none" points="668.812,1486.45 668.812,47.2441 "/>
<polyline clip-path="url(#clip951)" style="stroke:#000000; stroke-linecap:round; stroke-linejoin:round; stroke-width:2; stroke-opacity:0.1; fill:none" points="1176.02,1486.45 1176.02,47.2441 "/>
<polyline clip-path="url(#clip951)" style="stroke:#000000; stroke-linecap:round; stroke-linejoin:round; stroke-width:2; stroke-opacity:0.1; fill:none" points="1683.24,1486.45 1683.24,47.2441 "/>
<polyline clip-path="url(#clip951)" style="stroke:#000000; stroke-linecap:round; stroke-linejoin:round; stroke-width:2; stroke-opacity:0.1; fill:none" points="2190.45,1486.45 2190.45,47.2441 "/>
<polyline clip-path="url(#clip951)" style="stroke:#000000; stroke-linecap:round; stroke-linejoin:round; stroke-width:2; stroke-opacity:0.1; fill:none" points="202.177,1307.97 2352.76,1307.97 "/>
<polyline clip-path="url(#clip951)" style="stroke:#000000; stroke-linecap:round; stroke-linejoin:round; stroke-width:2; stroke-opacity:0.1; fill:none" points="202.177,1111.2 2352.76,1111.2 "/>
<polyline clip-path="url(#clip951)" style="stroke:#000000; stroke-linecap:round; stroke-linejoin:round; stroke-width:2; stroke-opacity:0.1; fill:none" points="202.177,914.426 2352.76,914.426 "/>
<polyline clip-path="url(#clip951)" style="stroke:#000000; stroke-linecap:round; stroke-linejoin:round; stroke-width:2; stroke-opacity:0.1; fill:none" points="202.177,717.653 2352.76,717.653 "/>
<polyline clip-path="url(#clip951)" style="stroke:#000000; stroke-linecap:round; stroke-linejoin:round; stroke-width:2; stroke-opacity:0.1; fill:none" points="202.177,520.879 2352.76,520.879 "/>
<polyline clip-path="url(#clip951)" style="stroke:#000000; stroke-linecap:round; stroke-linejoin:round; stroke-width:2; stroke-opacity:0.1; fill:none" points="202.177,324.105 2352.76,324.105 "/>
<polyline clip-path="url(#clip951)" style="stroke:#000000; stroke-linecap:round; stroke-linejoin:round; stroke-width:2; stroke-opacity:0.1; fill:none" points="202.177,127.331 2352.76,127.331 "/>
<polyline clip-path="url(#clip950)" style="stroke:#000000; stroke-linecap:round; stroke-linejoin:round; stroke-width:4; stroke-opacity:1; fill:none" points="202.177,1486.45 2352.76,1486.45 "/>
<polyline clip-path="url(#clip950)" style="stroke:#000000; stroke-linecap:round; stroke-linejoin:round; stroke-width:4; stroke-opacity:1; fill:none" points="668.812,1486.45 668.812,1467.55 "/>
<polyline clip-path="url(#clip950)" style="stroke:#000000; stroke-linecap:round; stroke-linejoin:round; stroke-width:4; stroke-opacity:1; fill:none" points="1176.02,1486.45 1176.02,1467.55 "/>
<polyline clip-path="url(#clip950)" style="stroke:#000000; stroke-linecap:round; stroke-linejoin:round; stroke-width:4; stroke-opacity:1; fill:none" points="1683.24,1486.45 1683.24,1467.55 "/>
<polyline clip-path="url(#clip950)" style="stroke:#000000; stroke-linecap:round; stroke-linejoin:round; stroke-width:4; stroke-opacity:1; fill:none" points="2190.45,1486.45 2190.45,1467.55 "/>
<path clip-path="url(#clip950)" d="M659.09 1514.29 L677.446 1514.29 L677.446 1518.22 L663.372 1518.22 L663.372 1526.7 Q664.391 1526.35 665.409 1526.19 Q666.428 1526 667.446 1526 Q673.233 1526 676.613 1529.17 Q679.992 1532.34 679.992 1537.76 Q679.992 1543.34 676.52 1546.44 Q673.048 1549.52 666.728 1549.52 Q664.553 1549.52 662.284 1549.15 Q660.039 1548.78 657.631 1548.04 L657.631 1543.34 Q659.715 1544.47 661.937 1545.03 Q664.159 1545.58 666.636 1545.58 Q670.64 1545.58 672.978 1543.48 Q675.316 1541.37 675.316 1537.76 Q675.316 1534.15 672.978 1532.04 Q670.64 1529.94 666.636 1529.94 Q664.761 1529.94 662.886 1530.35 Q661.034 1530.77 659.09 1531.65 L659.09 1514.29 Z" fill="#000000" fill-rule="nonzero" fill-opacity="1" /><path clip-path="url(#clip950)" d="M1150.71 1544.91 L1158.35 1544.91 L1158.35 1518.55 L1150.04 1520.21 L1150.04 1515.95 L1158.3 1514.29 L1162.98 1514.29 L1162.98 1544.91 L1170.62 1544.91 L1170.62 1548.85 L1150.71 1548.85 L1150.71 1544.91 Z" fill="#000000" fill-rule="nonzero" fill-opacity="1" /><path clip-path="url(#clip950)" d="M1190.06 1517.37 Q1186.45 1517.37 1184.62 1520.93 Q1182.82 1524.47 1182.82 1531.6 Q1182.82 1538.71 1184.62 1542.27 Q1186.45 1545.82 1190.06 1545.82 Q1193.7 1545.82 1195.5 1542.27 Q1197.33 1538.71 1197.33 1531.6 Q1197.33 1524.47 1195.5 1520.93 Q1193.7 1517.37 1190.06 1517.37 M1190.06 1513.66 Q1195.87 1513.66 1198.93 1518.27 Q1202.01 1522.85 1202.01 1531.6 Q1202.01 1540.33 1198.93 1544.94 Q1195.87 1549.52 1190.06 1549.52 Q1184.25 1549.52 1181.17 1544.94 Q1178.12 1540.33 1178.12 1531.6 Q1178.12 1522.85 1181.17 1518.27 Q1184.25 1513.66 1190.06 1513.66 Z" fill="#000000" fill-rule="nonzero" fill-opacity="1" /><path clip-path="url(#clip950)" d="M1658.42 1544.91 L1666.06 1544.91 L1666.06 1518.55 L1657.75 1520.21 L1657.75 1515.95 L1666.01 1514.29 L1670.69 1514.29 L1670.69 1544.91 L1678.33 1544.91 L1678.33 1548.85 L1658.42 1548.85 L1658.42 1544.91 Z" fill="#000000" fill-rule="nonzero" fill-opacity="1" /><path clip-path="url(#clip950)" d="M1687.82 1514.29 L1706.18 1514.29 L1706.18 1518.22 L1692.1 1518.22 L1692.1 1526.7 Q1693.12 1526.35 1694.14 1526.19 Q1695.16 1526 1696.18 1526 Q1701.96 1526 1705.34 1529.17 Q1708.72 1532.34 1708.72 1537.76 Q1708.72 1543.34 1705.25 1546.44 Q1701.78 1549.52 1695.46 1549.52 Q1693.28 1549.52 1691.01 1549.15 Q1688.77 1548.78 1686.36 1548.04 L1686.36 1543.34 Q1688.44 1544.47 1690.67 1545.03 Q1692.89 1545.58 1695.37 1545.58 Q1699.37 1545.58 1701.71 1543.48 Q1704.05 1541.37 1704.05 1537.76 Q1704.05 1534.15 1701.71 1532.04 Q1699.37 1529.94 1695.37 1529.94 Q1693.49 1529.94 1691.62 1530.35 Q1689.76 1530.77 1687.82 1531.65 L1687.82 1514.29 Z" fill="#000000" fill-rule="nonzero" fill-opacity="1" /><path clip-path="url(#clip950)" d="M2169.22 1544.91 L2185.54 1544.91 L2185.54 1548.85 L2163.6 1548.85 L2163.6 1544.91 Q2166.26 1542.16 2170.84 1537.53 Q2175.45 1532.88 2176.63 1531.53 Q2178.87 1529.01 2179.75 1527.27 Q2180.66 1525.51 2180.66 1523.82 Q2180.66 1521.07 2178.71 1519.33 Q2176.79 1517.6 2173.69 1517.6 Q2171.49 1517.6 2169.04 1518.36 Q2166.61 1519.13 2163.83 1520.68 L2163.83 1515.95 Q2166.65 1514.82 2169.11 1514.24 Q2171.56 1513.66 2173.6 1513.66 Q2178.97 1513.66 2182.16 1516.35 Q2185.36 1519.03 2185.36 1523.52 Q2185.36 1525.65 2184.55 1527.57 Q2183.76 1529.47 2181.65 1532.07 Q2181.07 1532.74 2177.97 1535.95 Q2174.87 1539.15 2169.22 1544.91 Z" fill="#000000" fill-rule="nonzero" fill-opacity="1" /><path clip-path="url(#clip950)" d="M2205.36 1517.37 Q2201.74 1517.37 2199.92 1520.93 Q2198.11 1524.47 2198.11 1531.6 Q2198.11 1538.71 2199.92 1542.27 Q2201.74 1545.82 2205.36 1545.82 Q2208.99 1545.82 2210.8 1542.27 Q2212.62 1538.71 2212.62 1531.6 Q2212.62 1524.47 2210.8 1520.93 Q2208.99 1517.37 2205.36 1517.37 M2205.36 1513.66 Q2211.17 1513.66 2214.22 1518.27 Q2217.3 1522.85 2217.3 1531.6 Q2217.3 1540.33 2214.22 1544.94 Q2211.17 1549.52 2205.36 1549.52 Q2199.55 1549.52 2196.47 1544.94 Q2193.41 1540.33 2193.41 1531.6 Q2193.41 1522.85 2196.47 1518.27 Q2199.55 1513.66 2205.36 1513.66 Z" fill="#000000" fill-rule="nonzero" fill-opacity="1" /><polyline clip-path="url(#clip950)" style="stroke:#000000; stroke-linecap:round; stroke-linejoin:round; stroke-width:4; stroke-opacity:1; fill:none" points="202.177,1486.45 202.177,47.2441 "/>
<polyline clip-path="url(#clip950)" style="stroke:#000000; stroke-linecap:round; stroke-linejoin:round; stroke-width:4; stroke-opacity:1; fill:none" points="202.177,1307.97 221.074,1307.97 "/>
<polyline clip-path="url(#clip950)" style="stroke:#000000; stroke-linecap:round; stroke-linejoin:round; stroke-width:4; stroke-opacity:1; fill:none" points="202.177,1111.2 221.074,1111.2 "/>
<polyline clip-path="url(#clip950)" style="stroke:#000000; stroke-linecap:round; stroke-linejoin:round; stroke-width:4; stroke-opacity:1; fill:none" points="202.177,914.426 221.074,914.426 "/>
<polyline clip-path="url(#clip950)" style="stroke:#000000; stroke-linecap:round; stroke-linejoin:round; stroke-width:4; stroke-opacity:1; fill:none" points="202.177,717.653 221.074,717.653 "/>
<polyline clip-path="url(#clip950)" style="stroke:#000000; stroke-linecap:round; stroke-linejoin:round; stroke-width:4; stroke-opacity:1; fill:none" points="202.177,520.879 221.074,520.879 "/>
<polyline clip-path="url(#clip950)" style="stroke:#000000; stroke-linecap:round; stroke-linejoin:round; stroke-width:4; stroke-opacity:1; fill:none" points="202.177,324.105 221.074,324.105 "/>
<polyline clip-path="url(#clip950)" style="stroke:#000000; stroke-linecap:round; stroke-linejoin:round; stroke-width:4; stroke-opacity:1; fill:none" points="202.177,127.331 221.074,127.331 "/>
<path clip-path="url(#clip950)" d="M67.9133 1306.62 Q71.2698 1307.34 73.1448 1309.61 Q75.0429 1311.87 75.0429 1315.21 Q75.0429 1320.32 71.5244 1323.12 Q68.0059 1325.93 61.5245 1325.93 Q59.3486 1325.93 57.0338 1325.49 Q54.7421 1325.07 52.2884 1324.21 L52.2884 1319.7 Q54.2328 1320.83 56.5477 1321.41 Q58.8625 1321.99 61.3856 1321.99 Q65.7837 1321.99 68.0754 1320.25 Q70.3902 1318.52 70.3902 1315.21 Q70.3902 1312.15 68.2374 1310.44 Q66.1078 1308.7 62.2884 1308.7 L58.2606 1308.7 L58.2606 1304.86 L62.4735 1304.86 Q65.9226 1304.86 67.7513 1303.49 Q69.58 1302.11 69.58 1299.51 Q69.58 1296.85 67.6819 1295.44 Q65.8069 1294 62.2884 1294 Q60.3671 1294 58.168 1294.42 Q55.969 1294.84 53.3301 1295.72 L53.3301 1291.55 Q55.9921 1290.81 58.3069 1290.44 Q60.6449 1290.07 62.705 1290.07 Q68.0291 1290.07 71.1309 1292.5 Q74.2327 1294.91 74.2327 1299.03 Q74.2327 1301.9 72.5892 1303.89 Q70.9457 1305.86 67.9133 1306.62 Z" fill="#000000" fill-rule="nonzero" fill-opacity="1" /><path clip-path="url(#clip950)" d="M93.9086 1308.84 Q90.5752 1308.84 88.654 1310.62 Q86.7558 1312.41 86.7558 1315.53 Q86.7558 1318.66 88.654 1320.44 Q90.5752 1322.22 93.9086 1322.22 Q97.2419 1322.22 99.1632 1320.44 Q101.084 1318.63 101.084 1315.53 Q101.084 1312.41 99.1632 1310.62 Q97.265 1308.84 93.9086 1308.84 M89.2327 1306.85 Q86.2234 1306.11 84.5336 1304.05 Q82.867 1301.99 82.867 1299.03 Q82.867 1294.88 85.8068 1292.48 Q88.7697 1290.07 93.9086 1290.07 Q99.0706 1290.07 102.01 1292.48 Q104.95 1294.88 104.95 1299.03 Q104.95 1301.99 103.26 1304.05 Q101.594 1306.11 98.6076 1306.85 Q101.987 1307.64 103.862 1309.93 Q105.76 1312.22 105.76 1315.53 Q105.76 1320.55 102.682 1323.24 Q99.6261 1325.93 93.9086 1325.93 Q88.191 1325.93 85.1123 1323.24 Q82.0568 1320.55 82.0568 1315.53 Q82.0568 1312.22 83.9549 1309.93 Q85.8531 1307.64 89.2327 1306.85 M87.5197 1299.47 Q87.5197 1302.15 89.1864 1303.66 Q90.8762 1305.16 93.9086 1305.16 Q96.9178 1305.16 98.6076 1303.66 Q100.321 1302.15 100.321 1299.47 Q100.321 1296.78 98.6076 1295.28 Q96.9178 1293.77 93.9086 1293.77 Q90.8762 1293.77 89.1864 1295.28 Q87.5197 1296.78 87.5197 1299.47 Z" fill="#000000" fill-rule="nonzero" fill-opacity="1" /><path clip-path="url(#clip950)" d="M124.07 1308.84 Q120.737 1308.84 118.816 1310.62 Q116.918 1312.41 116.918 1315.53 Q116.918 1318.66 118.816 1320.44 Q120.737 1322.22 124.07 1322.22 Q127.404 1322.22 129.325 1320.44 Q131.246 1318.63 131.246 1315.53 Q131.246 1312.41 129.325 1310.62 Q127.427 1308.84 124.07 1308.84 M119.395 1306.85 Q116.385 1306.11 114.695 1304.05 Q113.029 1301.99 113.029 1299.03 Q113.029 1294.88 115.969 1292.48 Q118.932 1290.07 124.07 1290.07 Q129.232 1290.07 132.172 1292.48 Q135.112 1294.88 135.112 1299.03 Q135.112 1301.99 133.422 1304.05 Q131.756 1306.11 128.769 1306.85 Q132.149 1307.64 134.024 1309.93 Q135.922 1312.22 135.922 1315.53 Q135.922 1320.55 132.844 1323.24 Q129.788 1325.93 124.07 1325.93 Q118.353 1325.93 115.274 1323.24 Q112.219 1320.55 112.219 1315.53 Q112.219 1312.22 114.117 1309.93 Q116.015 1307.64 119.395 1306.85 M117.682 1299.47 Q117.682 1302.15 119.348 1303.66 Q121.038 1305.16 124.07 1305.16 Q127.08 1305.16 128.769 1303.66 Q130.482 1302.15 130.482 1299.47 Q130.482 1296.78 128.769 1295.28 Q127.08 1293.77 124.07 1293.77 Q121.038 1293.77 119.348 1295.28 Q117.682 1296.78 117.682 1299.47 Z" fill="#000000" fill-rule="nonzero" fill-opacity="1" /><path clip-path="url(#clip950)" d="M154.232 1293.77 Q150.621 1293.77 148.793 1297.34 Q146.987 1300.88 146.987 1308.01 Q146.987 1315.12 148.793 1318.68 Q150.621 1322.22 154.232 1322.22 Q157.867 1322.22 159.672 1318.68 Q161.501 1315.12 161.501 1308.01 Q161.501 1300.88 159.672 1297.34 Q157.867 1293.77 154.232 1293.77 M154.232 1290.07 Q160.042 1290.07 163.098 1294.68 Q166.177 1299.26 166.177 1308.01 Q166.177 1316.74 163.098 1321.34 Q160.042 1325.93 154.232 1325.93 Q148.422 1325.93 145.343 1321.34 Q142.288 1316.74 142.288 1308.01 Q142.288 1299.26 145.343 1294.68 Q148.422 1290.07 154.232 1290.07 Z" fill="#000000" fill-rule="nonzero" fill-opacity="1" /><path clip-path="url(#clip950)" d="M67.9133 1109.85 Q71.2698 1110.56 73.1448 1112.83 Q75.0429 1115.1 75.0429 1118.43 Q75.0429 1123.55 71.5244 1126.35 Q68.0059 1129.15 61.5245 1129.15 Q59.3486 1129.15 57.0338 1128.71 Q54.7421 1128.29 52.2884 1127.44 L52.2884 1122.92 Q54.2328 1124.06 56.5477 1124.64 Q58.8625 1125.22 61.3856 1125.22 Q65.7837 1125.22 68.0754 1123.48 Q70.3902 1121.74 70.3902 1118.43 Q70.3902 1115.38 68.2374 1113.67 Q66.1078 1111.93 62.2884 1111.93 L58.2606 1111.93 L58.2606 1108.09 L62.4735 1108.09 Q65.9226 1108.09 67.7513 1106.72 Q69.58 1105.33 69.58 1102.74 Q69.58 1100.08 67.6819 1098.67 Q65.8069 1097.23 62.2884 1097.23 Q60.3671 1097.23 58.168 1097.65 Q55.969 1098.06 53.3301 1098.94 L53.3301 1094.78 Q55.9921 1094.04 58.3069 1093.67 Q60.6449 1093.3 62.705 1093.3 Q68.0291 1093.3 71.1309 1095.73 Q74.2327 1098.13 74.2327 1102.25 Q74.2327 1105.12 72.5892 1107.11 Q70.9457 1109.08 67.9133 1109.85 Z" fill="#000000" fill-rule="nonzero" fill-opacity="1" /><path clip-path="url(#clip950)" d="M84.0475 1127.76 L84.0475 1123.5 Q85.8068 1124.34 87.6123 1124.78 Q89.4178 1125.22 91.1539 1125.22 Q95.7836 1125.22 98.2141 1122.11 Q100.668 1118.99 101.015 1112.65 Q99.6724 1114.64 97.6122 1115.7 Q95.5521 1116.77 93.0521 1116.77 Q87.8669 1116.77 84.8345 1113.64 Q81.8253 1110.49 81.8253 1105.05 Q81.8253 1099.73 84.9734 1096.51 Q88.1216 1093.3 93.353 1093.3 Q99.3483 1093.3 102.496 1097.9 Q105.668 1102.48 105.668 1111.23 Q105.668 1119.41 101.779 1124.29 Q97.9132 1129.15 91.3623 1129.15 Q89.603 1129.15 87.7975 1128.8 Q85.9919 1128.46 84.0475 1127.76 M93.353 1113.11 Q96.5011 1113.11 98.3298 1110.96 Q100.182 1108.8 100.182 1105.05 Q100.182 1101.33 98.3298 1099.17 Q96.5011 1097 93.353 1097 Q90.2049 1097 88.353 1099.17 Q86.5243 1101.33 86.5243 1105.05 Q86.5243 1108.8 88.353 1110.96 Q90.2049 1113.11 93.353 1113.11 Z" fill="#000000" fill-rule="nonzero" fill-opacity="1" /><path clip-path="url(#clip950)" d="M124.07 1097 Q120.459 1097 118.631 1100.56 Q116.825 1104.11 116.825 1111.23 Q116.825 1118.34 118.631 1121.91 Q120.459 1125.45 124.07 1125.45 Q127.705 1125.45 129.51 1121.91 Q131.339 1118.34 131.339 1111.23 Q131.339 1104.11 129.51 1100.56 Q127.705 1097 124.07 1097 M124.07 1093.3 Q129.881 1093.3 132.936 1097.9 Q136.015 1102.48 136.015 1111.23 Q136.015 1119.96 132.936 1124.57 Q129.881 1129.15 124.07 1129.15 Q118.26 1129.15 115.182 1124.57 Q112.126 1119.96 112.126 1111.23 Q112.126 1102.48 115.182 1097.9 Q118.26 1093.3 124.07 1093.3 Z" fill="#000000" fill-rule="nonzero" fill-opacity="1" /><path clip-path="url(#clip950)" d="M154.232 1097 Q150.621 1097 148.793 1100.56 Q146.987 1104.11 146.987 1111.23 Q146.987 1118.34 148.793 1121.91 Q150.621 1125.45 154.232 1125.45 Q157.867 1125.45 159.672 1121.91 Q161.501 1118.34 161.501 1111.23 Q161.501 1104.11 159.672 1100.56 Q157.867 1097 154.232 1097 M154.232 1093.3 Q160.042 1093.3 163.098 1097.9 Q166.177 1102.48 166.177 1111.23 Q166.177 1119.96 163.098 1124.57 Q160.042 1129.15 154.232 1129.15 Q148.422 1129.15 145.343 1124.57 Q142.288 1119.96 142.288 1111.23 Q142.288 1102.48 145.343 1097.9 Q148.422 1093.3 154.232 1093.3 Z" fill="#000000" fill-rule="nonzero" fill-opacity="1" /><path clip-path="url(#clip950)" d="M67.9133 913.072 Q71.2698 913.79 73.1448 916.058 Q75.0429 918.327 75.0429 921.66 Q75.0429 926.776 71.5244 929.577 Q68.0059 932.378 61.5245 932.378 Q59.3486 932.378 57.0338 931.938 Q54.7421 931.521 52.2884 930.665 L52.2884 926.151 Q54.2328 927.285 56.5477 927.864 Q58.8625 928.442 61.3856 928.442 Q65.7837 928.442 68.0754 926.706 Q70.3902 924.97 70.3902 921.66 Q70.3902 918.605 68.2374 916.892 Q66.1078 915.156 62.2884 915.156 L58.2606 915.156 L58.2606 911.313 L62.4735 911.313 Q65.9226 911.313 67.7513 909.947 Q69.58 908.558 69.58 905.966 Q69.58 903.304 67.6819 901.892 Q65.8069 900.457 62.2884 900.457 Q60.3671 900.457 58.168 900.873 Q55.969 901.29 53.3301 902.169 L53.3301 898.003 Q55.9921 897.262 58.3069 896.892 Q60.6449 896.521 62.705 896.521 Q68.0291 896.521 71.1309 898.952 Q74.2327 901.359 74.2327 905.48 Q74.2327 908.35 72.5892 910.341 Q70.9457 912.308 67.9133 913.072 Z" fill="#000000" fill-rule="nonzero" fill-opacity="1" /><path clip-path="url(#clip950)" d="M84.0475 930.989 L84.0475 926.73 Q85.8068 927.563 87.6123 928.003 Q89.4178 928.442 91.1539 928.442 Q95.7836 928.442 98.2141 925.341 Q100.668 922.216 101.015 915.873 Q99.6724 917.864 97.6122 918.929 Q95.5521 919.993 93.0521 919.993 Q87.8669 919.993 84.8345 916.868 Q81.8253 913.72 81.8253 908.281 Q81.8253 902.957 84.9734 899.739 Q88.1216 896.521 93.353 896.521 Q99.3483 896.521 102.496 901.128 Q105.668 905.711 105.668 914.461 Q105.668 922.632 101.779 927.517 Q97.9132 932.378 91.3623 932.378 Q89.603 932.378 87.7975 932.03 Q85.9919 931.683 84.0475 930.989 M93.353 916.336 Q96.5011 916.336 98.3298 914.183 Q100.182 912.031 100.182 908.281 Q100.182 904.554 98.3298 902.401 Q96.5011 900.225 93.353 900.225 Q90.2049 900.225 88.353 902.401 Q86.5243 904.554 86.5243 908.281 Q86.5243 912.031 88.353 914.183 Q90.2049 916.336 93.353 916.336 Z" fill="#000000" fill-rule="nonzero" fill-opacity="1" /><path clip-path="url(#clip950)" d="M118.098 927.771 L134.418 927.771 L134.418 931.706 L112.473 931.706 L112.473 927.771 Q115.135 925.017 119.719 920.387 Q124.325 915.734 125.506 914.392 Q127.751 911.868 128.631 910.132 Q129.533 908.373 129.533 906.683 Q129.533 903.929 127.589 902.193 Q125.668 900.457 122.566 900.457 Q120.367 900.457 117.913 901.22 Q115.483 901.984 112.705 903.535 L112.705 898.813 Q115.529 897.679 117.983 897.1 Q120.436 896.521 122.473 896.521 Q127.844 896.521 131.038 899.207 Q134.232 901.892 134.232 906.382 Q134.232 908.512 133.422 910.433 Q132.635 912.331 130.529 914.924 Q129.95 915.595 126.848 918.813 Q123.746 922.007 118.098 927.771 Z" fill="#000000" fill-rule="nonzero" fill-opacity="1" /><path clip-path="url(#clip950)" d="M154.232 900.225 Q150.621 900.225 148.793 903.79 Q146.987 907.331 146.987 914.461 Q146.987 921.568 148.793 925.132 Q150.621 928.674 154.232 928.674 Q157.867 928.674 159.672 925.132 Q161.501 921.568 161.501 914.461 Q161.501 907.331 159.672 903.79 Q157.867 900.225 154.232 900.225 M154.232 896.521 Q160.042 896.521 163.098 901.128 Q166.177 905.711 166.177 914.461 Q166.177 923.188 163.098 927.794 Q160.042 932.378 154.232 932.378 Q148.422 932.378 145.343 927.794 Q142.288 923.188 142.288 914.461 Q142.288 905.711 145.343 901.128 Q148.422 896.521 154.232 896.521 Z" fill="#000000" fill-rule="nonzero" fill-opacity="1" /><path clip-path="url(#clip950)" d="M67.9133 716.298 Q71.2698 717.016 73.1448 719.284 Q75.0429 721.553 75.0429 724.886 Q75.0429 730.002 71.5244 732.803 Q68.0059 735.604 61.5245 735.604 Q59.3486 735.604 57.0338 735.164 Q54.7421 734.747 52.2884 733.891 L52.2884 729.377 Q54.2328 730.511 56.5477 731.09 Q58.8625 731.669 61.3856 731.669 Q65.7837 731.669 68.0754 729.933 Q70.3902 728.196 70.3902 724.886 Q70.3902 721.831 68.2374 720.118 Q66.1078 718.382 62.2884 718.382 L58.2606 718.382 L58.2606 714.539 L62.4735 714.539 Q65.9226 714.539 67.7513 713.173 Q69.58 711.785 69.58 709.192 Q69.58 706.53 67.6819 705.118 Q65.8069 703.683 62.2884 703.683 Q60.3671 703.683 58.168 704.099 Q55.969 704.516 53.3301 705.396 L53.3301 701.229 Q55.9921 700.488 58.3069 700.118 Q60.6449 699.748 62.705 699.748 Q68.0291 699.748 71.1309 702.178 Q74.2327 704.585 74.2327 708.706 Q74.2327 711.576 72.5892 713.567 Q70.9457 715.534 67.9133 716.298 Z" fill="#000000" fill-rule="nonzero" fill-opacity="1" /><path clip-path="url(#clip950)" d="M84.0475 734.215 L84.0475 729.956 Q85.8068 730.789 87.6123 731.229 Q89.4178 731.669 91.1539 731.669 Q95.7836 731.669 98.2141 728.567 Q100.668 725.442 101.015 719.099 Q99.6724 721.09 97.6122 722.155 Q95.5521 723.22 93.0521 723.22 Q87.8669 723.22 84.8345 720.095 Q81.8253 716.947 81.8253 711.507 Q81.8253 706.183 84.9734 702.965 Q88.1216 699.748 93.353 699.748 Q99.3483 699.748 102.496 704.354 Q105.668 708.937 105.668 717.687 Q105.668 725.859 101.779 730.743 Q97.9132 735.604 91.3623 735.604 Q89.603 735.604 87.7975 735.257 Q85.9919 734.909 84.0475 734.215 M93.353 719.562 Q96.5011 719.562 98.3298 717.409 Q100.182 715.257 100.182 711.507 Q100.182 707.78 98.3298 705.627 Q96.5011 703.451 93.353 703.451 Q90.2049 703.451 88.353 705.627 Q86.5243 707.78 86.5243 711.507 Q86.5243 715.257 88.353 717.409 Q90.2049 719.562 93.353 719.562 Z" fill="#000000" fill-rule="nonzero" fill-opacity="1" /><path clip-path="url(#clip950)" d="M126.918 704.447 L115.112 722.896 L126.918 722.896 L126.918 704.447 M125.691 700.373 L131.57 700.373 L131.57 722.896 L136.501 722.896 L136.501 726.784 L131.57 726.784 L131.57 734.933 L126.918 734.933 L126.918 726.784 L111.316 726.784 L111.316 722.271 L125.691 700.373 Z" fill="#000000" fill-rule="nonzero" fill-opacity="1" /><path clip-path="url(#clip950)" d="M154.232 703.451 Q150.621 703.451 148.793 707.016 Q146.987 710.558 146.987 717.687 Q146.987 724.794 148.793 728.358 Q150.621 731.9 154.232 731.9 Q157.867 731.9 159.672 728.358 Q161.501 724.794 161.501 717.687 Q161.501 710.558 159.672 707.016 Q157.867 703.451 154.232 703.451 M154.232 699.748 Q160.042 699.748 163.098 704.354 Q166.177 708.937 166.177 717.687 Q166.177 726.414 163.098 731.021 Q160.042 735.604 154.232 735.604 Q148.422 735.604 145.343 731.021 Q142.288 726.414 142.288 717.687 Q142.288 708.937 145.343 704.354 Q148.422 699.748 154.232 699.748 Z" fill="#000000" fill-rule="nonzero" fill-opacity="1" /><path clip-path="url(#clip950)" d="M67.9133 519.525 Q71.2698 520.242 73.1448 522.511 Q75.0429 524.779 75.0429 528.112 Q75.0429 533.228 71.5244 536.029 Q68.0059 538.83 61.5245 538.83 Q59.3486 538.83 57.0338 538.39 Q54.7421 537.974 52.2884 537.117 L52.2884 532.603 Q54.2328 533.737 56.5477 534.316 Q58.8625 534.895 61.3856 534.895 Q65.7837 534.895 68.0754 533.159 Q70.3902 531.423 70.3902 528.112 Q70.3902 525.057 68.2374 523.344 Q66.1078 521.608 62.2884 521.608 L58.2606 521.608 L58.2606 517.765 L62.4735 517.765 Q65.9226 517.765 67.7513 516.4 Q69.58 515.011 69.58 512.418 Q69.58 509.756 67.6819 508.344 Q65.8069 506.909 62.2884 506.909 Q60.3671 506.909 58.168 507.326 Q55.969 507.742 53.3301 508.622 L53.3301 504.455 Q55.9921 503.714 58.3069 503.344 Q60.6449 502.974 62.705 502.974 Q68.0291 502.974 71.1309 505.404 Q74.2327 507.812 74.2327 511.932 Q74.2327 514.802 72.5892 516.793 Q70.9457 518.761 67.9133 519.525 Z" fill="#000000" fill-rule="nonzero" fill-opacity="1" /><path clip-path="url(#clip950)" d="M84.0475 537.441 L84.0475 533.182 Q85.8068 534.015 87.6123 534.455 Q89.4178 534.895 91.1539 534.895 Q95.7836 534.895 98.2141 531.793 Q100.668 528.668 101.015 522.325 Q99.6724 524.316 97.6122 525.381 Q95.5521 526.446 93.0521 526.446 Q87.8669 526.446 84.8345 523.321 Q81.8253 520.173 81.8253 514.733 Q81.8253 509.409 84.9734 506.191 Q88.1216 502.974 93.353 502.974 Q99.3483 502.974 102.496 507.58 Q105.668 512.163 105.668 520.913 Q105.668 529.085 101.779 533.969 Q97.9132 538.83 91.3623 538.83 Q89.603 538.83 87.7975 538.483 Q85.9919 538.136 84.0475 537.441 M93.353 522.788 Q96.5011 522.788 98.3298 520.636 Q100.182 518.483 100.182 514.733 Q100.182 511.006 98.3298 508.853 Q96.5011 506.677 93.353 506.677 Q90.2049 506.677 88.353 508.853 Q86.5243 511.006 86.5243 514.733 Q86.5243 518.483 88.353 520.636 Q90.2049 522.788 93.353 522.788 Z" fill="#000000" fill-rule="nonzero" fill-opacity="1" /><path clip-path="url(#clip950)" d="M124.649 519.015 Q121.501 519.015 119.649 521.168 Q117.82 523.321 117.82 527.071 Q117.82 530.798 119.649 532.974 Q121.501 535.126 124.649 535.126 Q127.797 535.126 129.626 532.974 Q131.478 530.798 131.478 527.071 Q131.478 523.321 129.626 521.168 Q127.797 519.015 124.649 519.015 M133.931 504.363 L133.931 508.622 Q132.172 507.788 130.367 507.349 Q128.584 506.909 126.825 506.909 Q122.195 506.909 119.742 510.034 Q117.311 513.159 116.964 519.478 Q118.33 517.464 120.39 516.4 Q122.45 515.312 124.927 515.312 Q130.135 515.312 133.144 518.483 Q136.177 521.631 136.177 527.071 Q136.177 532.395 133.029 535.612 Q129.881 538.83 124.649 538.83 Q118.654 538.83 115.483 534.247 Q112.311 529.64 112.311 520.913 Q112.311 512.719 116.2 507.858 Q120.089 502.974 126.64 502.974 Q128.399 502.974 130.182 503.321 Q131.987 503.668 133.931 504.363 Z" fill="#000000" fill-rule="nonzero" fill-opacity="1" /><path clip-path="url(#clip950)" d="M154.232 506.677 Q150.621 506.677 148.793 510.242 Q146.987 513.784 146.987 520.913 Q146.987 528.02 148.793 531.585 Q150.621 535.126 154.232 535.126 Q157.867 535.126 159.672 531.585 Q161.501 528.02 161.501 520.913 Q161.501 513.784 159.672 510.242 Q157.867 506.677 154.232 506.677 M154.232 502.974 Q160.042 502.974 163.098 507.58 Q166.177 512.163 166.177 520.913 Q166.177 529.64 163.098 534.247 Q160.042 538.83 154.232 538.83 Q148.422 538.83 145.343 534.247 Q142.288 529.64 142.288 520.913 Q142.288 512.163 145.343 507.58 Q148.422 502.974 154.232 502.974 Z" fill="#000000" fill-rule="nonzero" fill-opacity="1" /><path clip-path="url(#clip950)" d="M67.9133 322.751 Q71.2698 323.468 73.1448 325.737 Q75.0429 328.005 75.0429 331.339 Q75.0429 336.454 71.5244 339.255 Q68.0059 342.056 61.5245 342.056 Q59.3486 342.056 57.0338 341.616 Q54.7421 341.2 52.2884 340.343 L52.2884 335.829 Q54.2328 336.964 56.5477 337.542 Q58.8625 338.121 61.3856 338.121 Q65.7837 338.121 68.0754 336.385 Q70.3902 334.649 70.3902 331.339 Q70.3902 328.283 68.2374 326.57 Q66.1078 324.834 62.2884 324.834 L58.2606 324.834 L58.2606 320.991 L62.4735 320.991 Q65.9226 320.991 67.7513 319.626 Q69.58 318.237 69.58 315.644 Q69.58 312.982 67.6819 311.57 Q65.8069 310.135 62.2884 310.135 Q60.3671 310.135 58.168 310.552 Q55.969 310.968 53.3301 311.848 L53.3301 307.681 Q55.9921 306.941 58.3069 306.57 Q60.6449 306.2 62.705 306.2 Q68.0291 306.2 71.1309 308.63 Q74.2327 311.038 74.2327 315.158 Q74.2327 318.029 72.5892 320.019 Q70.9457 321.987 67.9133 322.751 Z" fill="#000000" fill-rule="nonzero" fill-opacity="1" /><path clip-path="url(#clip950)" d="M84.0475 340.667 L84.0475 336.408 Q85.8068 337.241 87.6123 337.681 Q89.4178 338.121 91.1539 338.121 Q95.7836 338.121 98.2141 335.019 Q100.668 331.894 101.015 325.552 Q99.6724 327.542 97.6122 328.607 Q95.5521 329.672 93.0521 329.672 Q87.8669 329.672 84.8345 326.547 Q81.8253 323.399 81.8253 317.959 Q81.8253 312.635 84.9734 309.417 Q88.1216 306.2 93.353 306.2 Q99.3483 306.2 102.496 310.806 Q105.668 315.39 105.668 324.14 Q105.668 332.311 101.779 337.195 Q97.9132 342.056 91.3623 342.056 Q89.603 342.056 87.7975 341.709 Q85.9919 341.362 84.0475 340.667 M93.353 326.015 Q96.5011 326.015 98.3298 323.862 Q100.182 321.709 100.182 317.959 Q100.182 314.232 98.3298 312.079 Q96.5011 309.904 93.353 309.904 Q90.2049 309.904 88.353 312.079 Q86.5243 314.232 86.5243 317.959 Q86.5243 321.709 88.353 323.862 Q90.2049 326.015 93.353 326.015 Z" fill="#000000" fill-rule="nonzero" fill-opacity="1" /><path clip-path="url(#clip950)" d="M124.07 324.973 Q120.737 324.973 118.816 326.755 Q116.918 328.538 116.918 331.663 Q116.918 334.788 118.816 336.57 Q120.737 338.352 124.07 338.352 Q127.404 338.352 129.325 336.57 Q131.246 334.765 131.246 331.663 Q131.246 328.538 129.325 326.755 Q127.427 324.973 124.07 324.973 M119.395 322.982 Q116.385 322.241 114.695 320.181 Q113.029 318.121 113.029 315.158 Q113.029 311.015 115.969 308.607 Q118.932 306.2 124.07 306.2 Q129.232 306.2 132.172 308.607 Q135.112 311.015 135.112 315.158 Q135.112 318.121 133.422 320.181 Q131.756 322.241 128.769 322.982 Q132.149 323.769 134.024 326.061 Q135.922 328.353 135.922 331.663 Q135.922 336.686 132.844 339.371 Q129.788 342.056 124.07 342.056 Q118.353 342.056 115.274 339.371 Q112.219 336.686 112.219 331.663 Q112.219 328.353 114.117 326.061 Q116.015 323.769 119.395 322.982 M117.682 315.598 Q117.682 318.283 119.348 319.788 Q121.038 321.292 124.07 321.292 Q127.08 321.292 128.769 319.788 Q130.482 318.283 130.482 315.598 Q130.482 312.913 128.769 311.408 Q127.08 309.904 124.07 309.904 Q121.038 309.904 119.348 311.408 Q117.682 312.913 117.682 315.598 Z" fill="#000000" fill-rule="nonzero" fill-opacity="1" /><path clip-path="url(#clip950)" d="M154.232 309.904 Q150.621 309.904 148.793 313.468 Q146.987 317.01 146.987 324.14 Q146.987 331.246 148.793 334.811 Q150.621 338.352 154.232 338.352 Q157.867 338.352 159.672 334.811 Q161.501 331.246 161.501 324.14 Q161.501 317.01 159.672 313.468 Q157.867 309.904 154.232 309.904 M154.232 306.2 Q160.042 306.2 163.098 310.806 Q166.177 315.39 166.177 324.14 Q166.177 332.866 163.098 337.473 Q160.042 342.056 154.232 342.056 Q148.422 342.056 145.343 337.473 Q142.288 332.866 142.288 324.14 Q142.288 315.39 145.343 310.806 Q148.422 306.2 154.232 306.2 Z" fill="#000000" fill-rule="nonzero" fill-opacity="1" /><path clip-path="url(#clip950)" d="M66.5939 114.125 L54.7884 132.574 L66.5939 132.574 L66.5939 114.125 M65.367 110.051 L71.2466 110.051 L71.2466 132.574 L76.1772 132.574 L76.1772 136.463 L71.2466 136.463 L71.2466 144.611 L66.5939 144.611 L66.5939 136.463 L50.9921 136.463 L50.9921 131.949 L65.367 110.051 Z" fill="#000000" fill-rule="nonzero" fill-opacity="1" /><path clip-path="url(#clip950)" d="M93.9086 113.13 Q90.2975 113.13 88.4688 116.695 Q86.6632 120.236 86.6632 127.366 Q86.6632 134.472 88.4688 138.037 Q90.2975 141.579 93.9086 141.579 Q97.5428 141.579 99.3483 138.037 Q101.177 134.472 101.177 127.366 Q101.177 120.236 99.3483 116.695 Q97.5428 113.13 93.9086 113.13 M93.9086 109.426 Q99.7187 109.426 102.774 114.033 Q105.853 118.616 105.853 127.366 Q105.853 136.093 102.774 140.699 Q99.7187 145.282 93.9086 145.282 Q88.0984 145.282 85.0197 140.699 Q81.9642 136.093 81.9642 127.366 Q81.9642 118.616 85.0197 114.033 Q88.0984 109.426 93.9086 109.426 Z" fill="#000000" fill-rule="nonzero" fill-opacity="1" /><path clip-path="url(#clip950)" d="M124.07 113.13 Q120.459 113.13 118.631 116.695 Q116.825 120.236 116.825 127.366 Q116.825 134.472 118.631 138.037 Q120.459 141.579 124.07 141.579 Q127.705 141.579 129.51 138.037 Q131.339 134.472 131.339 127.366 Q131.339 120.236 129.51 116.695 Q127.705 113.13 124.07 113.13 M124.07 109.426 Q129.881 109.426 132.936 114.033 Q136.015 118.616 136.015 127.366 Q136.015 136.093 132.936 140.699 Q129.881 145.282 124.07 145.282 Q118.26 145.282 115.182 140.699 Q112.126 136.093 112.126 127.366 Q112.126 118.616 115.182 114.033 Q118.26 109.426 124.07 109.426 Z" fill="#000000" fill-rule="nonzero" fill-opacity="1" /><path clip-path="url(#clip950)" d="M154.232 113.13 Q150.621 113.13 148.793 116.695 Q146.987 120.236 146.987 127.366 Q146.987 134.472 148.793 138.037 Q150.621 141.579 154.232 141.579 Q157.867 141.579 159.672 138.037 Q161.501 134.472 161.501 127.366 Q161.501 120.236 159.672 116.695 Q157.867 113.13 154.232 113.13 M154.232 109.426 Q160.042 109.426 163.098 114.033 Q166.177 118.616 166.177 127.366 Q166.177 136.093 163.098 140.699 Q160.042 145.282 154.232 145.282 Q148.422 145.282 145.343 140.699 Q142.288 136.093 142.288 127.366 Q142.288 118.616 145.343 114.033 Q148.422 109.426 154.232 109.426 Z" fill="#000000" fill-rule="nonzero" fill-opacity="1" /><polyline clip-path="url(#clip951)" style="stroke:#009af9; stroke-linecap:round; stroke-linejoin:round; stroke-width:4; stroke-opacity:1; fill:none" points="263.042,1445.72 364.485,1386.68 465.927,1426.04 567.369,1130.88 668.812,1189.91 770.254,766.846 871.697,865.233 973.139,904.588 1074.58,766.846 1176.02,855.394 1277.47,825.878 1378.91,452.008 1480.35,658.62 1581.79,560.233 1683.24,392.976 1784.68,383.137 1886.12,137.17 1987.56,127.331 2089.01,707.814 2190.45,265.073 2291.89,87.9763 "/>
<path clip-path="url(#clip950)" d="M273.863 198.898 L924.451 198.898 L924.451 95.2176 L273.863 95.2176  Z" fill="#ffffff" fill-rule="evenodd" fill-opacity="1"/>
<polyline clip-path="url(#clip950)" style="stroke:#000000; stroke-linecap:round; stroke-linejoin:round; stroke-width:4; stroke-opacity:1; fill:none" points="273.863,198.898 924.451,198.898 924.451,95.2176 273.863,95.2176 273.863,198.898 "/>
<polyline clip-path="url(#clip950)" style="stroke:#009af9; stroke-linecap:round; stroke-linejoin:round; stroke-width:4; stroke-opacity:1; fill:none" points="297.758,147.058 441.13,147.058 "/>
<path clip-path="url(#clip950)" d="M465.025 129.778 L486.877 129.778 L486.877 133.713 L469.701 133.713 L469.701 143.944 L486.159 143.944 L486.159 147.879 L469.701 147.879 L469.701 160.402 L487.294 160.402 L487.294 164.338 L465.025 164.338 L465.025 129.778 Z" fill="#000000" fill-rule="nonzero" fill-opacity="1" /><path clip-path="url(#clip950)" d="M514.979 143.389 Q516.576 140.518 518.798 139.153 Q521.02 137.787 524.03 137.787 Q528.08 137.787 530.28 140.634 Q532.479 143.458 532.479 148.689 L532.479 164.338 L528.196 164.338 L528.196 148.828 Q528.196 145.102 526.877 143.296 Q525.557 141.49 522.849 141.49 Q519.539 141.49 517.618 143.69 Q515.696 145.889 515.696 149.685 L515.696 164.338 L511.414 164.338 L511.414 148.828 Q511.414 145.078 510.094 143.296 Q508.775 141.49 506.02 141.49 Q502.757 141.49 500.835 143.713 Q498.914 145.912 498.914 149.685 L498.914 164.338 L494.632 164.338 L494.632 138.412 L498.914 138.412 L498.914 142.44 Q500.372 140.055 502.409 138.921 Q504.446 137.787 507.247 137.787 Q510.071 137.787 512.039 139.222 Q514.03 140.657 514.979 143.389 Z" fill="#000000" fill-rule="nonzero" fill-opacity="1" /><path clip-path="url(#clip950)" d="M545.094 160.449 L545.094 174.199 L540.812 174.199 L540.812 138.412 L545.094 138.412 L545.094 142.347 Q546.437 140.032 548.474 138.921 Q550.534 137.787 553.381 137.787 Q558.103 137.787 561.043 141.537 Q564.006 145.287 564.006 151.398 Q564.006 157.509 561.043 161.259 Q558.103 165.009 553.381 165.009 Q550.534 165.009 548.474 163.898 Q546.437 162.763 545.094 160.449 M559.585 151.398 Q559.585 146.699 557.641 144.037 Q555.719 141.352 552.34 141.352 Q548.96 141.352 547.016 144.037 Q545.094 146.699 545.094 151.398 Q545.094 156.097 547.016 158.782 Q548.96 161.444 552.34 161.444 Q555.719 161.444 557.641 158.782 Q559.585 156.097 559.585 151.398 Z" fill="#000000" fill-rule="nonzero" fill-opacity="1" /><path clip-path="url(#clip950)" d="M571.066 128.319 L575.326 128.319 L575.326 164.338 L571.066 164.338 L571.066 128.319 Z" fill="#000000" fill-rule="nonzero" fill-opacity="1" /><path clip-path="url(#clip950)" d="M594.284 141.398 Q590.858 141.398 588.867 144.083 Q586.876 146.745 586.876 151.398 Q586.876 156.051 588.844 158.736 Q590.835 161.398 594.284 161.398 Q597.687 161.398 599.677 158.713 Q601.668 156.027 601.668 151.398 Q601.668 146.791 599.677 144.106 Q597.687 141.398 594.284 141.398 M594.284 137.787 Q599.839 137.787 603.011 141.398 Q606.182 145.009 606.182 151.398 Q606.182 157.764 603.011 161.398 Q599.839 165.009 594.284 165.009 Q588.705 165.009 585.534 161.398 Q582.386 157.764 582.386 151.398 Q582.386 145.009 585.534 141.398 Q588.705 137.787 594.284 137.787 Z" fill="#000000" fill-rule="nonzero" fill-opacity="1" /><path clip-path="url(#clip950)" d="M624.029 166.745 Q622.223 171.375 620.511 172.787 Q618.798 174.199 615.927 174.199 L612.524 174.199 L612.524 170.634 L615.024 170.634 Q616.784 170.634 617.756 169.8 Q618.728 168.967 619.909 165.865 L620.673 163.921 L610.187 138.412 L614.7 138.412 L622.802 158.689 L630.904 138.412 L635.418 138.412 L624.029 166.745 Z" fill="#000000" fill-rule="nonzero" fill-opacity="1" /><path clip-path="url(#clip950)" d="M663.473 150.31 L663.473 152.393 L643.89 152.393 Q644.168 156.791 646.529 159.106 Q648.913 161.398 653.149 161.398 Q655.603 161.398 657.895 160.796 Q660.209 160.194 662.478 158.99 L662.478 163.018 Q660.186 163.99 657.779 164.5 Q655.371 165.009 652.895 165.009 Q646.691 165.009 643.057 161.398 Q639.446 157.787 639.446 151.629 Q639.446 145.264 642.872 141.537 Q646.321 137.787 652.154 137.787 Q657.385 137.787 660.418 141.166 Q663.473 144.523 663.473 150.31 M659.214 149.06 Q659.168 145.565 657.246 143.481 Q655.348 141.398 652.2 141.398 Q648.635 141.398 646.483 143.412 Q644.353 145.426 644.029 149.083 L659.214 149.06 Z" fill="#000000" fill-rule="nonzero" fill-opacity="1" /><path clip-path="url(#clip950)" d="M687.524 142.347 L687.524 128.319 L691.783 128.319 L691.783 164.338 L687.524 164.338 L687.524 160.449 Q686.181 162.763 684.121 163.898 Q682.084 165.009 679.214 165.009 Q674.515 165.009 671.552 161.259 Q668.612 157.509 668.612 151.398 Q668.612 145.287 671.552 141.537 Q674.515 137.787 679.214 137.787 Q682.084 137.787 684.121 138.921 Q686.181 140.032 687.524 142.347 M673.01 151.398 Q673.01 156.097 674.932 158.782 Q676.876 161.444 680.256 161.444 Q683.635 161.444 685.58 158.782 Q687.524 156.097 687.524 151.398 Q687.524 146.699 685.58 144.037 Q683.635 141.352 680.256 141.352 Q676.876 141.352 674.932 144.037 Q673.01 146.699 673.01 151.398 Z" fill="#000000" fill-rule="nonzero" fill-opacity="1" /><path clip-path="url(#clip950)" d="M712.732 129.778 L717.454 129.778 L724.723 158.99 L731.968 129.778 L737.223 129.778 L744.491 158.99 L751.737 129.778 L756.482 129.778 L747.802 164.338 L741.922 164.338 L734.63 134.338 L727.269 164.338 L721.39 164.338 L712.732 129.778 Z" fill="#000000" fill-rule="nonzero" fill-opacity="1" /><path clip-path="url(#clip950)" d="M769.769 141.398 Q766.343 141.398 764.352 144.083 Q762.362 146.745 762.362 151.398 Q762.362 156.051 764.329 158.736 Q766.32 161.398 769.769 161.398 Q773.172 161.398 775.162 158.713 Q777.153 156.027 777.153 151.398 Q777.153 146.791 775.162 144.106 Q773.172 141.398 769.769 141.398 M769.769 137.787 Q775.325 137.787 778.496 141.398 Q781.667 145.009 781.667 151.398 Q781.667 157.764 778.496 161.398 Q775.325 165.009 769.769 165.009 Q764.19 165.009 761.019 161.398 Q757.871 157.764 757.871 151.398 Q757.871 145.009 761.019 141.398 Q764.19 137.787 769.769 137.787 Z" fill="#000000" fill-rule="nonzero" fill-opacity="1" /><path clip-path="url(#clip950)" d="M803.75 142.393 Q803.033 141.977 802.176 141.791 Q801.343 141.583 800.324 141.583 Q796.713 141.583 794.769 143.944 Q792.848 146.282 792.848 150.68 L792.848 164.338 L788.565 164.338 L788.565 138.412 L792.848 138.412 L792.848 142.44 Q794.19 140.078 796.343 138.944 Q798.496 137.787 801.574 137.787 Q802.014 137.787 802.547 137.856 Q803.079 137.903 803.727 138.018 L803.75 142.393 Z" fill="#000000" fill-rule="nonzero" fill-opacity="1" /><path clip-path="url(#clip950)" d="M808.056 128.319 L812.338 128.319 L812.338 149.592 L825.046 138.412 L830.486 138.412 L816.736 150.541 L831.065 164.338 L825.509 164.338 L812.338 151.676 L812.338 164.338 L808.056 164.338 L808.056 128.319 Z" fill="#000000" fill-rule="nonzero" fill-opacity="1" /><path clip-path="url(#clip950)" d="M856.157 150.31 L856.157 152.393 L836.574 152.393 Q836.852 156.791 839.213 159.106 Q841.597 161.398 845.833 161.398 Q848.287 161.398 850.579 160.796 Q852.894 160.194 855.162 158.99 L855.162 163.018 Q852.87 163.99 850.463 164.5 Q848.056 165.009 845.579 165.009 Q839.375 165.009 835.741 161.398 Q832.13 157.787 832.13 151.629 Q832.13 145.264 835.556 141.537 Q839.005 137.787 844.838 137.787 Q850.069 137.787 853.102 141.166 Q856.157 144.523 856.157 150.31 M851.898 149.06 Q851.852 145.565 849.931 143.481 Q848.032 141.398 844.884 141.398 Q841.32 141.398 839.167 143.412 Q837.037 145.426 836.713 149.083 L851.898 149.06 Z" fill="#000000" fill-rule="nonzero" fill-opacity="1" /><path clip-path="url(#clip950)" d="M878.171 142.393 Q877.454 141.977 876.597 141.791 Q875.764 141.583 874.745 141.583 Q871.134 141.583 869.19 143.944 Q867.268 146.282 867.268 150.68 L867.268 164.338 L862.986 164.338 L862.986 138.412 L867.268 138.412 L867.268 142.44 Q868.611 140.078 870.764 138.944 Q872.917 137.787 875.995 137.787 Q876.435 137.787 876.968 137.856 Q877.5 137.903 878.148 138.018 L878.171 142.393 Z" fill="#000000" fill-rule="nonzero" fill-opacity="1" /><path clip-path="url(#clip950)" d="M899.166 139.176 L899.166 143.203 Q897.361 142.277 895.416 141.815 Q893.472 141.352 891.389 141.352 Q888.217 141.352 886.62 142.324 Q885.046 143.296 885.046 145.24 Q885.046 146.722 886.18 147.578 Q887.315 148.412 890.741 149.176 L892.199 149.5 Q896.736 150.472 898.634 152.254 Q900.555 154.014 900.555 157.185 Q900.555 160.796 897.685 162.902 Q894.838 165.009 889.838 165.009 Q887.754 165.009 885.486 164.592 Q883.241 164.199 880.741 163.388 L880.741 158.99 Q883.102 160.217 885.393 160.842 Q887.685 161.444 889.93 161.444 Q892.94 161.444 894.56 160.426 Q896.18 159.384 896.18 157.509 Q896.18 155.773 895 154.847 Q893.842 153.921 889.884 153.064 L888.403 152.717 Q884.444 151.884 882.685 150.171 Q880.926 148.435 880.926 145.426 Q880.926 141.768 883.518 139.778 Q886.111 137.787 890.879 137.787 Q893.241 137.787 895.324 138.134 Q897.407 138.481 899.166 139.176 Z" fill="#000000" fill-rule="nonzero" fill-opacity="1" /></svg>
