<?xml version="1.0" encoding="utf-8"?>
<svg xmlns="http://www.w3.org/2000/svg" xmlns:xlink="http://www.w3.org/1999/xlink" width="600" height="400" viewBox="0 0 2400 1600">
<defs>
  <clipPath id="clip670">
    <rect x="0" y="0" width="2400" height="1600"/>
  </clipPath>
</defs>
<path clip-path="url(#clip670)" d="M0 1600 L2400 1600 L2400 0 L0 0  Z" fill="#ffffff" fill-rule="evenodd" fill-opacity="1"/>
<defs>
  <clipPath id="clip671">
    <rect x="230" y="106" width="2123" height="1381"/>
  </clipPath>
</defs>
<path clip-path="url(#clip670)" d="M230.765 1486.45 L2352.76 1486.45 L2352.76 106.192 L230.765 106.192  Z" fill="#ffffff" fill-rule="evenodd" fill-opacity="1"/>
<polyline clip-path="url(#clip671)" style="stroke:#000000; stroke-linecap:round; stroke-linejoin:round; stroke-width:2; stroke-opacity:0.1; fill:none" points="541.056,1486.45 541.056,106.192 "/>
<polyline clip-path="url(#clip671)" style="stroke:#000000; stroke-linecap:round; stroke-linejoin:round; stroke-width:2; stroke-opacity:0.1; fill:none" points="916.408,1486.45 916.408,106.192 "/>
<polyline clip-path="url(#clip671)" style="stroke:#000000; stroke-linecap:round; stroke-linejoin:round; stroke-width:2; stroke-opacity:0.1; fill:none" points="1291.76,1486.45 1291.76,106.192 "/>
<polyline clip-path="url(#clip671)" style="stroke:#000000; stroke-linecap:round; stroke-linejoin:round; stroke-width:2; stroke-opacity:0.1; fill:none" points="1667.11,1486.45 1667.11,106.192 "/>
<polyline clip-path="url(#clip671)" style="stroke:#000000; stroke-linecap:round; stroke-linejoin:round; stroke-width:2; stroke-opacity:0.1; fill:none" points="2042.46,1486.45 2042.46,106.192 "/>
<polyline clip-path="url(#clip671)" style="stroke:#000000; stroke-linecap:round; stroke-linejoin:round; stroke-width:2; stroke-opacity:0.1; fill:none" points="230.765,1312.99 2352.76,1312.99 "/>
<polyline clip-path="url(#clip671)" style="stroke:#000000; stroke-linecap:round; stroke-linejoin:round; stroke-width:2; stroke-opacity:0.1; fill:none" points="230.765,1080.48 2352.76,1080.48 "/>
<polyline clip-path="url(#clip671)" style="stroke:#000000; stroke-linecap:round; stroke-linejoin:round; stroke-width:2; stroke-opacity:0.1; fill:none" points="230.765,847.973 2352.76,847.973 "/>
<polyline clip-path="url(#clip671)" style="stroke:#000000; stroke-linecap:round; stroke-linejoin:round; stroke-width:2; stroke-opacity:0.1; fill:none" points="230.765,615.462 2352.76,615.462 "/>
<polyline clip-path="url(#clip671)" style="stroke:#000000; stroke-linecap:round; stroke-linejoin:round; stroke-width:2; stroke-opacity:0.1; fill:none" points="230.765,382.952 2352.76,382.952 "/>
<polyline clip-path="url(#clip671)" style="stroke:#000000; stroke-linecap:round; stroke-linejoin:round; stroke-width:2; stroke-opacity:0.1; fill:none" points="230.765,150.442 2352.76,150.442 "/>
<polyline clip-path="url(#clip670)" style="stroke:#000000; stroke-linecap:round; stroke-linejoin:round; stroke-width:4; stroke-opacity:1; fill:none" points="230.765,1486.45 2352.76,1486.45 "/>
<polyline clip-path="url(#clip670)" style="stroke:#000000; stroke-linecap:round; stroke-linejoin:round; stroke-width:4; stroke-opacity:1; fill:none" points="541.056,1486.45 541.056,1467.55 "/>
<polyline clip-path="url(#clip670)" style="stroke:#000000; stroke-linecap:round; stroke-linejoin:round; stroke-width:4; stroke-opacity:1; fill:none" points="916.408,1486.45 916.408,1467.55 "/>
<polyline clip-path="url(#clip670)" style="stroke:#000000; stroke-linecap:round; stroke-linejoin:round; stroke-width:4; stroke-opacity:1; fill:none" points="1291.76,1486.45 1291.76,1467.55 "/>
<polyline clip-path="url(#clip670)" style="stroke:#000000; stroke-linecap:round; stroke-linejoin:round; stroke-width:4; stroke-opacity:1; fill:none" points="1667.11,1486.45 1667.11,1467.55 "/>
<polyline clip-path="url(#clip670)" style="stroke:#000000; stroke-linecap:round; stroke-linejoin:round; stroke-width:4; stroke-opacity:1; fill:none" points="2042.46,1486.45 2042.46,1467.55 "/>
<path clip-path="url(#clip670)" d="M545.303 1530.21 Q548.66 1530.93 550.535 1533.2 Q552.433 1535.47 552.433 1538.8 Q552.433 1543.92 548.914 1546.72 Q545.396 1549.52 538.915 1549.52 Q536.739 1549.52 534.424 1549.08 Q532.132 1548.66 529.678 1547.81 L529.678 1543.29 Q531.623 1544.43 533.938 1545.01 Q536.252 1545.58 538.776 1545.58 Q543.174 1545.58 545.465 1543.85 Q547.78 1542.11 547.78 1538.8 Q547.78 1535.75 545.627 1534.03 Q543.498 1532.3 539.678 1532.3 L535.651 1532.3 L535.651 1528.45 L539.864 1528.45 Q543.313 1528.45 545.141 1527.09 Q546.97 1525.7 546.97 1523.11 Q546.97 1520.45 545.072 1519.03 Q543.197 1517.6 539.678 1517.6 Q537.757 1517.6 535.558 1518.01 Q533.359 1518.43 530.72 1519.31 L530.72 1515.14 Q533.382 1514.4 535.697 1514.03 Q538.035 1513.66 540.095 1513.66 Q545.419 1513.66 548.521 1516.09 Q551.623 1518.5 551.623 1522.62 Q551.623 1525.49 549.979 1527.48 Q548.336 1529.45 545.303 1530.21 Z" fill="#000000" fill-rule="nonzero" fill-opacity="1" /><path clip-path="url(#clip670)" d="M916.813 1529.7 Q913.665 1529.7 911.813 1531.86 Q909.984 1534.01 909.984 1537.76 Q909.984 1541.49 911.813 1543.66 Q913.665 1545.82 916.813 1545.82 Q919.961 1545.82 921.79 1543.66 Q923.642 1541.49 923.642 1537.76 Q923.642 1534.01 921.79 1531.86 Q919.961 1529.7 916.813 1529.7 M926.095 1515.05 L926.095 1519.31 Q924.336 1518.48 922.531 1518.04 Q920.748 1517.6 918.989 1517.6 Q914.359 1517.6 911.906 1520.72 Q909.475 1523.85 909.128 1530.17 Q910.494 1528.15 912.554 1527.09 Q914.614 1526 917.091 1526 Q922.299 1526 925.308 1529.17 Q928.341 1532.32 928.341 1537.76 Q928.341 1543.08 925.193 1546.3 Q922.044 1549.52 916.813 1549.52 Q910.818 1549.52 907.646 1544.94 Q904.475 1540.33 904.475 1531.6 Q904.475 1523.41 908.364 1518.55 Q912.253 1513.66 918.804 1513.66 Q920.563 1513.66 922.345 1514.01 Q924.151 1514.36 926.095 1515.05 Z" fill="#000000" fill-rule="nonzero" fill-opacity="1" /><path clip-path="url(#clip670)" d="M1282.06 1548.13 L1282.06 1543.87 Q1283.82 1544.7 1285.63 1545.14 Q1287.43 1545.58 1289.17 1545.58 Q1293.8 1545.58 1296.23 1542.48 Q1298.68 1539.36 1299.03 1533.01 Q1297.69 1535.01 1295.63 1536.07 Q1293.57 1537.13 1291.07 1537.13 Q1285.88 1537.13 1282.85 1534.01 Q1279.84 1530.86 1279.84 1525.42 Q1279.84 1520.1 1282.99 1516.88 Q1286.14 1513.66 1291.37 1513.66 Q1297.36 1513.66 1300.51 1518.27 Q1303.68 1522.85 1303.68 1531.6 Q1303.68 1539.77 1299.79 1544.66 Q1295.93 1549.52 1289.38 1549.52 Q1287.62 1549.52 1285.81 1549.17 Q1284.01 1548.82 1282.06 1548.13 M1291.37 1533.48 Q1294.51 1533.48 1296.34 1531.32 Q1298.2 1529.17 1298.2 1525.42 Q1298.2 1521.7 1296.34 1519.54 Q1294.51 1517.37 1291.37 1517.37 Q1288.22 1517.37 1286.37 1519.54 Q1284.54 1521.7 1284.54 1525.42 Q1284.54 1529.17 1286.37 1531.32 Q1288.22 1533.48 1291.37 1533.48 Z" fill="#000000" fill-rule="nonzero" fill-opacity="1" /><path clip-path="url(#clip670)" d="M1642.6 1544.91 L1650.24 1544.91 L1650.24 1518.55 L1641.93 1520.21 L1641.93 1515.95 L1650.19 1514.29 L1654.87 1514.29 L1654.87 1544.91 L1662.51 1544.91 L1662.51 1548.85 L1642.6 1548.85 L1642.6 1544.91 Z" fill="#000000" fill-rule="nonzero" fill-opacity="1" /><path clip-path="url(#clip670)" d="M1675.98 1544.91 L1692.3 1544.91 L1692.3 1548.85 L1670.35 1548.85 L1670.35 1544.91 Q1673.02 1542.16 1677.6 1537.53 Q1682.2 1532.88 1683.39 1531.53 Q1685.63 1529.01 1686.51 1527.27 Q1687.41 1525.51 1687.41 1523.82 Q1687.41 1521.07 1685.47 1519.33 Q1683.55 1517.6 1680.45 1517.6 Q1678.25 1517.6 1675.79 1518.36 Q1673.36 1519.13 1670.58 1520.68 L1670.58 1515.95 Q1673.41 1514.82 1675.86 1514.24 Q1678.32 1513.66 1680.35 1513.66 Q1685.72 1513.66 1688.92 1516.35 Q1692.11 1519.03 1692.11 1523.52 Q1692.11 1525.65 1691.3 1527.57 Q1690.52 1529.47 1688.41 1532.07 Q1687.83 1532.74 1684.73 1535.95 Q1681.63 1539.15 1675.98 1544.91 Z" fill="#000000" fill-rule="nonzero" fill-opacity="1" /><path clip-path="url(#clip670)" d="M2017.65 1544.91 L2025.29 1544.91 L2025.29 1518.55 L2016.98 1520.21 L2016.98 1515.95 L2025.24 1514.29 L2029.92 1514.29 L2029.92 1544.91 L2037.56 1544.91 L2037.56 1548.85 L2017.65 1548.85 L2017.65 1544.91 Z" fill="#000000" fill-rule="nonzero" fill-opacity="1" /><path clip-path="url(#clip670)" d="M2047.05 1514.29 L2065.4 1514.29 L2065.4 1518.22 L2051.33 1518.22 L2051.33 1526.7 Q2052.35 1526.35 2053.37 1526.19 Q2054.39 1526 2055.4 1526 Q2061.19 1526 2064.57 1529.17 Q2067.95 1532.34 2067.95 1537.76 Q2067.95 1543.34 2064.48 1546.44 Q2061.01 1549.52 2054.69 1549.52 Q2052.51 1549.52 2050.24 1549.15 Q2048 1548.78 2045.59 1548.04 L2045.59 1543.34 Q2047.67 1544.47 2049.9 1545.03 Q2052.12 1545.58 2054.59 1545.58 Q2058.6 1545.58 2060.94 1543.48 Q2063.27 1541.37 2063.27 1537.76 Q2063.27 1534.15 2060.94 1532.04 Q2058.6 1529.94 2054.59 1529.94 Q2052.72 1529.94 2050.84 1530.35 Q2048.99 1530.77 2047.05 1531.65 L2047.05 1514.29 Z" fill="#000000" fill-rule="nonzero" fill-opacity="1" /><polyline clip-path="url(#clip670)" style="stroke:#000000; stroke-linecap:round; stroke-linejoin:round; stroke-width:4; stroke-opacity:1; fill:none" points="230.765,1486.45 230.765,106.192 "/>
<polyline clip-path="url(#clip670)" style="stroke:#000000; stroke-linecap:round; stroke-linejoin:round; stroke-width:4; stroke-opacity:1; fill:none" points="230.765,1312.99 249.662,1312.99 "/>
<polyline clip-path="url(#clip670)" style="stroke:#000000; stroke-linecap:round; stroke-linejoin:round; stroke-width:4; stroke-opacity:1; fill:none" points="230.765,1080.48 249.662,1080.48 "/>
<polyline clip-path="url(#clip670)" style="stroke:#000000; stroke-linecap:round; stroke-linejoin:round; stroke-width:4; stroke-opacity:1; fill:none" points="230.765,847.973 249.662,847.973 "/>
<polyline clip-path="url(#clip670)" style="stroke:#000000; stroke-linecap:round; stroke-linejoin:round; stroke-width:4; stroke-opacity:1; fill:none" points="230.765,615.462 249.662,615.462 "/>
<polyline clip-path="url(#clip670)" style="stroke:#000000; stroke-linecap:round; stroke-linejoin:round; stroke-width:4; stroke-opacity:1; fill:none" points="230.765,382.952 249.662,382.952 "/>
<polyline clip-path="url(#clip670)" style="stroke:#000000; stroke-linecap:round; stroke-linejoin:round; stroke-width:4; stroke-opacity:1; fill:none" points="230.765,150.442 249.662,150.442 "/>
<path clip-path="url(#clip670)" d="M50.9921 1295.71 L73.2142 1295.71 L73.2142 1297.7 L60.668 1330.27 L55.7838 1330.27 L67.5893 1299.65 L50.9921 1299.65 L50.9921 1295.71 Z" fill="#000000" fill-rule="nonzero" fill-opacity="1" /><path clip-path="url(#clip670)" d="M96.5011 1311.64 Q99.8576 1312.36 101.733 1314.63 Q103.631 1316.89 103.631 1320.23 Q103.631 1325.34 100.112 1328.14 Q96.5937 1330.94 90.1123 1330.94 Q87.9364 1330.94 85.6216 1330.5 Q83.3299 1330.09 80.8762 1329.23 L80.8762 1324.72 Q82.8207 1325.85 85.1355 1326.43 Q87.4503 1327.01 89.9734 1327.01 Q94.3715 1327.01 96.6632 1325.27 Q98.978 1323.54 98.978 1320.23 Q98.978 1317.17 96.8252 1315.46 Q94.6956 1313.72 90.8762 1313.72 L86.8484 1313.72 L86.8484 1309.88 L91.0614 1309.88 Q94.5104 1309.88 96.3391 1308.51 Q98.1678 1307.13 98.1678 1304.53 Q98.1678 1301.87 96.2697 1300.46 Q94.3947 1299.02 90.8762 1299.02 Q88.9549 1299.02 86.7558 1299.44 Q84.5568 1299.86 81.9179 1300.74 L81.9179 1296.57 Q84.5799 1295.83 86.8947 1295.46 Q89.2327 1295.09 91.2928 1295.09 Q96.6169 1295.09 99.7187 1297.52 Q102.821 1299.93 102.821 1304.05 Q102.821 1306.92 101.177 1308.91 Q99.5335 1310.88 96.5011 1311.64 Z" fill="#000000" fill-rule="nonzero" fill-opacity="1" /><path clip-path="url(#clip670)" d="M122.496 1298.79 Q118.885 1298.79 117.057 1302.36 Q115.251 1305.9 115.251 1313.03 Q115.251 1320.13 117.057 1323.7 Q118.885 1327.24 122.496 1327.24 Q126.131 1327.24 127.936 1323.7 Q129.765 1320.13 129.765 1313.03 Q129.765 1305.9 127.936 1302.36 Q126.131 1298.79 122.496 1298.79 M122.496 1295.09 Q128.307 1295.09 131.362 1299.69 Q134.441 1304.28 134.441 1313.03 Q134.441 1321.75 131.362 1326.36 Q128.307 1330.94 122.496 1330.94 Q116.686 1330.94 113.608 1326.36 Q110.552 1321.75 110.552 1313.03 Q110.552 1304.28 113.608 1299.69 Q116.686 1295.09 122.496 1295.09 Z" fill="#000000" fill-rule="nonzero" fill-opacity="1" /><path clip-path="url(#clip670)" d="M152.658 1298.79 Q149.047 1298.79 147.218 1302.36 Q145.413 1305.9 145.413 1313.03 Q145.413 1320.13 147.218 1323.7 Q149.047 1327.24 152.658 1327.24 Q156.292 1327.24 158.098 1323.7 Q159.927 1320.13 159.927 1313.03 Q159.927 1305.9 158.098 1302.36 Q156.292 1298.79 152.658 1298.79 M152.658 1295.09 Q158.468 1295.09 161.524 1299.69 Q164.603 1304.28 164.603 1313.03 Q164.603 1321.75 161.524 1326.36 Q158.468 1330.94 152.658 1330.94 Q146.848 1330.94 143.769 1326.36 Q140.714 1321.75 140.714 1313.03 Q140.714 1304.28 143.769 1299.69 Q146.848 1295.09 152.658 1295.09 Z" fill="#000000" fill-rule="nonzero" fill-opacity="1" /><path clip-path="url(#clip670)" d="M182.82 1298.79 Q179.209 1298.79 177.38 1302.36 Q175.575 1305.9 175.575 1313.03 Q175.575 1320.13 177.38 1323.7 Q179.209 1327.24 182.82 1327.24 Q186.454 1327.24 188.26 1323.7 Q190.089 1320.13 190.089 1313.03 Q190.089 1305.9 188.26 1302.36 Q186.454 1298.79 182.82 1298.79 M182.82 1295.09 Q188.63 1295.09 191.686 1299.69 Q194.765 1304.28 194.765 1313.03 Q194.765 1321.75 191.686 1326.36 Q188.63 1330.94 182.82 1330.94 Q177.01 1330.94 173.931 1326.36 Q170.876 1321.75 170.876 1313.03 Q170.876 1304.28 173.931 1299.69 Q177.01 1295.09 182.82 1295.09 Z" fill="#000000" fill-rule="nonzero" fill-opacity="1" /><path clip-path="url(#clip670)" d="M50.9921 1063.2 L73.2142 1063.2 L73.2142 1065.19 L60.668 1097.76 L55.7838 1097.76 L67.5893 1067.14 L50.9921 1067.14 L50.9921 1063.2 Z" fill="#000000" fill-rule="nonzero" fill-opacity="1" /><path clip-path="url(#clip670)" d="M95.1817 1067.28 L83.3762 1085.73 L95.1817 1085.73 L95.1817 1067.28 M93.9549 1063.2 L99.8345 1063.2 L99.8345 1085.73 L104.765 1085.73 L104.765 1089.61 L99.8345 1089.61 L99.8345 1097.76 L95.1817 1097.76 L95.1817 1089.61 L79.5799 1089.61 L79.5799 1085.1 L93.9549 1063.2 Z" fill="#000000" fill-rule="nonzero" fill-opacity="1" /><path clip-path="url(#clip670)" d="M122.496 1066.28 Q118.885 1066.28 117.057 1069.85 Q115.251 1073.39 115.251 1080.52 Q115.251 1087.62 117.057 1091.19 Q118.885 1094.73 122.496 1094.73 Q126.131 1094.73 127.936 1091.19 Q129.765 1087.62 129.765 1080.52 Q129.765 1073.39 127.936 1069.85 Q126.131 1066.28 122.496 1066.28 M122.496 1062.58 Q128.307 1062.58 131.362 1067.18 Q134.441 1071.77 134.441 1080.52 Q134.441 1089.24 131.362 1093.85 Q128.307 1098.43 122.496 1098.43 Q116.686 1098.43 113.608 1093.85 Q110.552 1089.24 110.552 1080.52 Q110.552 1071.77 113.608 1067.18 Q116.686 1062.58 122.496 1062.58 Z" fill="#000000" fill-rule="nonzero" fill-opacity="1" /><path clip-path="url(#clip670)" d="M152.658 1066.28 Q149.047 1066.28 147.218 1069.85 Q145.413 1073.39 145.413 1080.52 Q145.413 1087.62 147.218 1091.19 Q149.047 1094.73 152.658 1094.73 Q156.292 1094.73 158.098 1091.19 Q159.927 1087.62 159.927 1080.52 Q159.927 1073.39 158.098 1069.85 Q156.292 1066.28 152.658 1066.28 M152.658 1062.58 Q158.468 1062.58 161.524 1067.18 Q164.603 1071.77 164.603 1080.52 Q164.603 1089.24 161.524 1093.85 Q158.468 1098.43 152.658 1098.43 Q146.848 1098.43 143.769 1093.85 Q140.714 1089.24 140.714 1080.52 Q140.714 1071.77 143.769 1067.18 Q146.848 1062.58 152.658 1062.58 Z" fill="#000000" fill-rule="nonzero" fill-opacity="1" /><path clip-path="url(#clip670)" d="M182.82 1066.28 Q179.209 1066.28 177.38 1069.85 Q175.575 1073.39 175.575 1080.52 Q175.575 1087.62 177.38 1091.19 Q179.209 1094.73 182.82 1094.73 Q186.454 1094.73 188.26 1091.19 Q190.089 1087.62 190.089 1080.52 Q190.089 1073.39 188.26 1069.85 Q186.454 1066.28 182.82 1066.28 M182.82 1062.58 Q188.63 1062.58 191.686 1067.18 Q194.765 1071.77 194.765 1080.52 Q194.765 1089.24 191.686 1093.85 Q188.63 1098.43 182.82 1098.43 Q177.01 1098.43 173.931 1093.85 Q170.876 1089.24 170.876 1080.52 Q170.876 1071.77 173.931 1067.18 Q177.01 1062.58 182.82 1062.58 Z" fill="#000000" fill-rule="nonzero" fill-opacity="1" /><path clip-path="url(#clip670)" d="M50.9921 830.693 L73.2142 830.693 L73.2142 832.683 L60.668 865.253 L55.7838 865.253 L67.5893 834.628 L50.9921 834.628 L50.9921 830.693 Z" fill="#000000" fill-rule="nonzero" fill-opacity="1" /><path clip-path="url(#clip670)" d="M82.3808 830.693 L100.737 830.693 L100.737 834.628 L86.6632 834.628 L86.6632 843.1 Q87.6817 842.753 88.7003 842.591 Q89.7188 842.406 90.7373 842.406 Q96.5243 842.406 99.9039 845.577 Q103.284 848.748 103.284 854.165 Q103.284 859.743 99.8113 862.845 Q96.3391 865.924 90.0197 865.924 Q87.8438 865.924 85.5753 865.554 Q83.3299 865.183 80.9225 864.442 L80.9225 859.743 Q83.0058 860.878 85.2281 861.433 Q87.4503 861.989 89.9271 861.989 Q93.9317 861.989 96.2697 859.882 Q98.6076 857.776 98.6076 854.165 Q98.6076 850.554 96.2697 848.447 Q93.9317 846.341 89.9271 846.341 Q88.0521 846.341 86.1771 846.757 Q84.3253 847.174 82.3808 848.054 L82.3808 830.693 Z" fill="#000000" fill-rule="nonzero" fill-opacity="1" /><path clip-path="url(#clip670)" d="M122.496 833.771 Q118.885 833.771 117.057 837.336 Q115.251 840.878 115.251 848.007 Q115.251 855.114 117.057 858.679 Q118.885 862.22 122.496 862.22 Q126.131 862.22 127.936 858.679 Q129.765 855.114 129.765 848.007 Q129.765 840.878 127.936 837.336 Q126.131 833.771 122.496 833.771 M122.496 830.068 Q128.307 830.068 131.362 834.674 Q134.441 839.257 134.441 848.007 Q134.441 856.734 131.362 861.341 Q128.307 865.924 122.496 865.924 Q116.686 865.924 113.608 861.341 Q110.552 856.734 110.552 848.007 Q110.552 839.257 113.608 834.674 Q116.686 830.068 122.496 830.068 Z" fill="#000000" fill-rule="nonzero" fill-opacity="1" /><path clip-path="url(#clip670)" d="M152.658 833.771 Q149.047 833.771 147.218 837.336 Q145.413 840.878 145.413 848.007 Q145.413 855.114 147.218 858.679 Q149.047 862.22 152.658 862.22 Q156.292 862.22 158.098 858.679 Q159.927 855.114 159.927 848.007 Q159.927 840.878 158.098 837.336 Q156.292 833.771 152.658 833.771 M152.658 830.068 Q158.468 830.068 161.524 834.674 Q164.603 839.257 164.603 848.007 Q164.603 856.734 161.524 861.341 Q158.468 865.924 152.658 865.924 Q146.848 865.924 143.769 861.341 Q140.714 856.734 140.714 848.007 Q140.714 839.257 143.769 834.674 Q146.848 830.068 152.658 830.068 Z" fill="#000000" fill-rule="nonzero" fill-opacity="1" /><path clip-path="url(#clip670)" d="M182.82 833.771 Q179.209 833.771 177.38 837.336 Q175.575 840.878 175.575 848.007 Q175.575 855.114 177.38 858.679 Q179.209 862.22 182.82 862.22 Q186.454 862.22 188.26 858.679 Q190.089 855.114 190.089 848.007 Q190.089 840.878 188.26 837.336 Q186.454 833.771 182.82 833.771 M182.82 830.068 Q188.63 830.068 191.686 834.674 Q194.765 839.257 194.765 848.007 Q194.765 856.734 191.686 861.341 Q188.63 865.924 182.82 865.924 Q177.01 865.924 173.931 861.341 Q170.876 856.734 170.876 848.007 Q170.876 839.257 173.931 834.674 Q177.01 830.068 182.82 830.068 Z" fill="#000000" fill-rule="nonzero" fill-opacity="1" /><path clip-path="url(#clip670)" d="M50.9921 598.182 L73.2142 598.182 L73.2142 600.173 L60.668 632.742 L55.7838 632.742 L67.5893 602.118 L50.9921 602.118 L50.9921 598.182 Z" fill="#000000" fill-rule="nonzero" fill-opacity="1" /><path clip-path="url(#clip670)" d="M92.9132 613.599 Q89.7651 613.599 87.9132 615.752 Q86.0845 617.905 86.0845 621.655 Q86.0845 625.381 87.9132 627.557 Q89.7651 629.71 92.9132 629.71 Q96.0613 629.71 97.89 627.557 Q99.7419 625.381 99.7419 621.655 Q99.7419 617.905 97.89 615.752 Q96.0613 613.599 92.9132 613.599 M102.196 598.946 L102.196 603.206 Q100.436 602.372 98.6308 601.932 Q96.8484 601.493 95.0891 601.493 Q90.4595 601.493 88.0058 604.618 Q85.5753 607.743 85.2281 614.062 Q86.5938 612.048 88.654 610.983 Q90.7141 609.895 93.191 609.895 Q98.3993 609.895 101.409 613.067 Q104.441 616.215 104.441 621.655 Q104.441 626.979 101.293 630.196 Q98.1447 633.414 92.9132 633.414 Q86.9179 633.414 83.7466 628.83 Q80.5753 624.224 80.5753 615.497 Q80.5753 607.303 84.4642 602.442 Q88.353 597.557 94.9039 597.557 Q96.6632 597.557 98.4456 597.905 Q100.251 598.252 102.196 598.946 Z" fill="#000000" fill-rule="nonzero" fill-opacity="1" /><path clip-path="url(#clip670)" d="M122.496 601.261 Q118.885 601.261 117.057 604.826 Q115.251 608.368 115.251 615.497 Q115.251 622.604 117.057 626.168 Q118.885 629.71 122.496 629.71 Q126.131 629.71 127.936 626.168 Q129.765 622.604 129.765 615.497 Q129.765 608.368 127.936 604.826 Q126.131 601.261 122.496 601.261 M122.496 597.557 Q128.307 597.557 131.362 602.164 Q134.441 606.747 134.441 615.497 Q134.441 624.224 131.362 628.83 Q128.307 633.414 122.496 633.414 Q116.686 633.414 113.608 628.83 Q110.552 624.224 110.552 615.497 Q110.552 606.747 113.608 602.164 Q116.686 597.557 122.496 597.557 Z" fill="#000000" fill-rule="nonzero" fill-opacity="1" /><path clip-path="url(#clip670)" d="M152.658 601.261 Q149.047 601.261 147.218 604.826 Q145.413 608.368 145.413 615.497 Q145.413 622.604 147.218 626.168 Q149.047 629.71 152.658 629.71 Q156.292 629.71 158.098 626.168 Q159.927 622.604 159.927 615.497 Q159.927 608.368 158.098 604.826 Q156.292 601.261 152.658 601.261 M152.658 597.557 Q158.468 597.557 161.524 602.164 Q164.603 606.747 164.603 615.497 Q164.603 624.224 161.524 628.83 Q158.468 633.414 152.658 633.414 Q146.848 633.414 143.769 628.83 Q140.714 624.224 140.714 615.497 Q140.714 606.747 143.769 602.164 Q146.848 597.557 152.658 597.557 Z" fill="#000000" fill-rule="nonzero" fill-opacity="1" /><path clip-path="url(#clip670)" d="M182.82 601.261 Q179.209 601.261 177.38 604.826 Q175.575 608.368 175.575 615.497 Q175.575 622.604 177.38 626.168 Q179.209 629.71 182.82 629.71 Q186.454 629.71 188.26 626.168 Q190.089 622.604 190.089 615.497 Q190.089 608.368 188.26 604.826 Q186.454 601.261 182.82 601.261 M182.82 597.557 Q188.63 597.557 191.686 602.164 Q194.765 606.747 194.765 615.497 Q194.765 624.224 191.686 628.83 Q188.63 633.414 182.82 633.414 Q177.01 633.414 173.931 628.83 Q170.876 624.224 170.876 615.497 Q170.876 606.747 173.931 602.164 Q177.01 597.557 182.82 597.557 Z" fill="#000000" fill-rule="nonzero" fill-opacity="1" /><path clip-path="url(#clip670)" d="M50.9921 365.672 L73.2142 365.672 L73.2142 367.663 L60.668 400.232 L55.7838 400.232 L67.5893 369.607 L50.9921 369.607 L50.9921 365.672 Z" fill="#000000" fill-rule="nonzero" fill-opacity="1" /><path clip-path="url(#clip670)" d="M81.154 365.672 L103.376 365.672 L103.376 367.663 L90.8299 400.232 L85.9456 400.232 L97.7511 369.607 L81.154 369.607 L81.154 365.672 Z" fill="#000000" fill-rule="nonzero" fill-opacity="1" /><path clip-path="url(#clip670)" d="M122.496 368.751 Q118.885 368.751 117.057 372.316 Q115.251 375.857 115.251 382.987 Q115.251 390.093 117.057 393.658 Q118.885 397.2 122.496 397.2 Q126.131 397.2 127.936 393.658 Q129.765 390.093 129.765 382.987 Q129.765 375.857 127.936 372.316 Q126.131 368.751 122.496 368.751 M122.496 365.047 Q128.307 365.047 131.362 369.654 Q134.441 374.237 134.441 382.987 Q134.441 391.714 131.362 396.32 Q128.307 400.904 122.496 400.904 Q116.686 400.904 113.608 396.32 Q110.552 391.714 110.552 382.987 Q110.552 374.237 113.608 369.654 Q116.686 365.047 122.496 365.047 Z" fill="#000000" fill-rule="nonzero" fill-opacity="1" /><path clip-path="url(#clip670)" d="M152.658 368.751 Q149.047 368.751 147.218 372.316 Q145.413 375.857 145.413 382.987 Q145.413 390.093 147.218 393.658 Q149.047 397.2 152.658 397.2 Q156.292 397.2 158.098 393.658 Q159.927 390.093 159.927 382.987 Q159.927 375.857 158.098 372.316 Q156.292 368.751 152.658 368.751 M152.658 365.047 Q158.468 365.047 161.524 369.654 Q164.603 374.237 164.603 382.987 Q164.603 391.714 161.524 396.32 Q158.468 400.904 152.658 400.904 Q146.848 400.904 143.769 396.32 Q140.714 391.714 140.714 382.987 Q140.714 374.237 143.769 369.654 Q146.848 365.047 152.658 365.047 Z" fill="#000000" fill-rule="nonzero" fill-opacity="1" /><path clip-path="url(#clip670)" d="M182.82 368.751 Q179.209 368.751 177.38 372.316 Q175.575 375.857 175.575 382.987 Q175.575 390.093 177.38 393.658 Q179.209 397.2 182.82 397.2 Q186.454 397.2 188.26 393.658 Q190.089 390.093 190.089 382.987 Q190.089 375.857 188.26 372.316 Q186.454 368.751 182.82 368.751 M182.82 365.047 Q188.63 365.047 191.686 369.654 Q194.765 374.237 194.765 382.987 Q194.765 391.714 191.686 396.32 Q188.63 400.904 182.82 400.904 Q177.01 400.904 173.931 396.32 Q170.876 391.714 170.876 382.987 Q170.876 374.237 173.931 369.654 Q177.01 365.047 182.82 365.047 Z" fill="#000000" fill-rule="nonzero" fill-opacity="1" /><path clip-path="url(#clip670)" d="M50.9921 133.162 L73.2142 133.162 L73.2142 135.153 L60.668 167.722 L55.7838 167.722 L67.5893 137.097 L50.9921 137.097 L50.9921 133.162 Z" fill="#000000" fill-rule="nonzero" fill-opacity="1" /><path clip-path="url(#clip670)" d="M92.3345 151.31 Q89.0012 151.31 87.0799 153.092 Q85.1818 154.875 85.1818 158 Q85.1818 161.125 87.0799 162.907 Q89.0012 164.69 92.3345 164.69 Q95.6678 164.69 97.5891 162.907 Q99.5104 161.102 99.5104 158 Q99.5104 154.875 97.5891 153.092 Q95.691 151.31 92.3345 151.31 M87.6586 149.319 Q84.6494 148.579 82.9595 146.518 Q81.2929 144.458 81.2929 141.495 Q81.2929 137.352 84.2327 134.944 Q87.1956 132.537 92.3345 132.537 Q97.4965 132.537 100.436 134.944 Q103.376 137.352 103.376 141.495 Q103.376 144.458 101.686 146.518 Q100.02 148.579 97.0335 149.319 Q100.413 150.106 102.288 152.398 Q104.186 154.69 104.186 158 Q104.186 163.023 101.108 165.708 Q98.0521 168.393 92.3345 168.393 Q86.6169 168.393 83.5382 165.708 Q80.4827 163.023 80.4827 158 Q80.4827 154.69 82.3808 152.398 Q84.279 150.106 87.6586 149.319 M85.9456 141.935 Q85.9456 144.62 87.6123 146.125 Q89.3021 147.63 92.3345 147.63 Q95.3437 147.63 97.0335 146.125 Q98.7465 144.62 98.7465 141.935 Q98.7465 139.25 97.0335 137.745 Q95.3437 136.241 92.3345 136.241 Q89.3021 136.241 87.6123 137.745 Q85.9456 139.25 85.9456 141.935 Z" fill="#000000" fill-rule="nonzero" fill-opacity="1" /><path clip-path="url(#clip670)" d="M122.496 136.241 Q118.885 136.241 117.057 139.805 Q115.251 143.347 115.251 150.477 Q115.251 157.583 117.057 161.148 Q118.885 164.69 122.496 164.69 Q126.131 164.69 127.936 161.148 Q129.765 157.583 129.765 150.477 Q129.765 143.347 127.936 139.805 Q126.131 136.241 122.496 136.241 M122.496 132.537 Q128.307 132.537 131.362 137.143 Q134.441 141.727 134.441 150.477 Q134.441 159.204 131.362 163.81 Q128.307 168.393 122.496 168.393 Q116.686 168.393 113.608 163.81 Q110.552 159.204 110.552 150.477 Q110.552 141.727 113.608 137.143 Q116.686 132.537 122.496 132.537 Z" fill="#000000" fill-rule="nonzero" fill-opacity="1" /><path clip-path="url(#clip670)" d="M152.658 136.241 Q149.047 136.241 147.218 139.805 Q145.413 143.347 145.413 150.477 Q145.413 157.583 147.218 161.148 Q149.047 164.69 152.658 164.69 Q156.292 164.69 158.098 161.148 Q159.927 157.583 159.927 150.477 Q159.927 143.347 158.098 139.805 Q156.292 136.241 152.658 136.241 M152.658 132.537 Q158.468 132.537 161.524 137.143 Q164.603 141.727 164.603 150.477 Q164.603 159.204 161.524 163.81 Q158.468 168.393 152.658 168.393 Q146.848 168.393 143.769 163.81 Q140.714 159.204 140.714 150.477 Q140.714 141.727 143.769 137.143 Q146.848 132.537 152.658 132.537 Z" fill="#000000" fill-rule="nonzero" fill-opacity="1" /><path clip-path="url(#clip670)" d="M182.82 136.241 Q179.209 136.241 177.38 139.805 Q175.575 143.347 175.575 150.477 Q175.575 157.583 177.38 161.148 Q179.209 164.69 182.82 164.69 Q186.454 164.69 188.26 161.148 Q190.089 157.583 190.089 150.477 Q190.089 143.347 188.26 139.805 Q186.454 136.241 182.82 136.241 M182.82 132.537 Q188.63 132.537 191.686 137.143 Q194.765 141.727 194.765 150.477 Q194.765 159.204 191.686 163.81 Q188.63 168.393 182.82 168.393 Q177.01 168.393 173.931 163.81 Q170.876 159.204 170.876 150.477 Q170.876 141.727 173.931 137.143 Q177.01 132.537 182.82 132.537 Z" fill="#000000" fill-rule="nonzero" fill-opacity="1" /><path clip-path="url(#clip670)" d="M1262.23 35.2602 Q1262.23 29.4732 1259.83 26.2904 Q1257.46 23.1075 1253.15 23.1075 Q1248.86 23.1075 1246.46 26.2904 Q1244.09 29.4732 1244.09 35.2602 Q1244.09 41.0183 1246.46 44.2012 Q1248.86 47.384 1253.15 47.384 Q1257.46 47.384 1259.83 44.2012 Q1262.23 41.0183 1262.23 35.2602 M1267.56 47.818 Q1267.56 56.0934 1263.88 60.1154 Q1260.21 64.1663 1252.63 64.1663 Q1249.82 64.1663 1247.33 63.7323 Q1244.84 63.3272 1242.5 62.4592 L1242.5 57.2798 Q1244.84 58.5529 1247.13 59.1606 Q1249.41 59.7682 1251.79 59.7682 Q1257.02 59.7682 1259.63 57.0194 Q1262.23 54.2995 1262.23 48.7729 L1262.23 46.1398 Q1260.58 49.0044 1258.01 50.4222 Q1255.43 51.84 1251.84 51.84 Q1245.88 51.84 1242.24 47.2972 Q1238.59 42.7544 1238.59 35.2602 Q1238.59 27.7371 1242.24 23.1943 Q1245.88 18.6515 1251.84 18.6515 Q1255.43 18.6515 1258.01 20.0693 Q1260.58 21.4872 1262.23 24.3517 L1262.23 19.4328 L1267.56 19.4328 L1267.56 47.818 Z" fill="#000000" fill-rule="nonzero" fill-opacity="1" /><path clip-path="url(#clip670)" d="M1299.85 24.3517 L1299.85 6.81709 L1305.17 6.81709 L1305.17 51.84 L1299.85 51.84 L1299.85 46.9789 Q1298.17 49.8724 1295.59 51.2902 Q1293.05 52.6791 1289.46 52.6791 Q1283.59 52.6791 1279.88 47.9916 Q1276.21 43.3042 1276.21 35.6653 Q1276.21 28.0265 1279.88 23.339 Q1283.59 18.6515 1289.46 18.6515 Q1293.05 18.6515 1295.59 20.0693 Q1298.17 21.4582 1299.85 24.3517 M1281.71 35.6653 Q1281.71 41.5391 1284.11 44.8956 Q1286.54 48.2231 1290.76 48.2231 Q1294.99 48.2231 1297.42 44.8956 Q1299.85 41.5391 1299.85 35.6653 Q1299.85 29.7915 1297.42 26.464 Q1294.99 23.1075 1290.76 23.1075 Q1286.54 23.1075 1284.11 26.464 Q1281.71 29.7915 1281.71 35.6653 Z" fill="#000000" fill-rule="nonzero" fill-opacity="1" /><path clip-path="url(#clip670)" d="M1321.29 46.9789 L1321.29 64.1663 L1315.94 64.1663 L1315.94 19.4328 L1321.29 19.4328 L1321.29 24.3517 Q1322.97 21.4582 1325.51 20.0693 Q1328.09 18.6515 1331.65 18.6515 Q1337.55 18.6515 1341.22 23.339 Q1344.93 28.0265 1344.93 35.6653 Q1344.93 43.3042 1341.22 47.9916 Q1337.55 52.6791 1331.65 52.6791 Q1328.09 52.6791 1325.51 51.2902 Q1322.97 49.8724 1321.29 46.9789 M1339.4 35.6653 Q1339.4 29.7915 1336.97 26.464 Q1334.57 23.1075 1330.35 23.1075 Q1326.12 23.1075 1323.69 26.464 Q1321.29 29.7915 1321.29 35.6653 Q1321.29 41.5391 1323.69 44.8956 Q1326.12 48.2231 1330.35 48.2231 Q1334.57 48.2231 1336.97 44.8956 Q1339.4 41.5391 1339.4 35.6653 Z" fill="#000000" fill-rule="nonzero" fill-opacity="1" /><polyline clip-path="url(#clip671)" style="stroke:#009af9; stroke-linecap:round; stroke-linejoin:round; stroke-width:4; stroke-opacity:1; fill:none" points="290.821,1447.38 415.938,1247.85 541.056,1043.39 666.173,1152.5 791.291,1127.61 916.408,896.311 1041.53,795.317 1166.64,776.013 1291.76,654.129 1416.88,571.702 1542,519.543 1667.11,490.517 1792.23,333.279 1917.35,353.22 2042.46,213.11 2167.58,285.39 2292.7,145.256 "/>
<path clip-path="url(#clip670)" d="M301.498 255.881 L566.127 255.881 L566.127 152.201 L301.498 152.201  Z" fill="#ffffff" fill-rule="evenodd" fill-opacity="1"/>
<polyline clip-path="url(#clip670)" style="stroke:#000000; stroke-linecap:round; stroke-linejoin:round; stroke-width:4; stroke-opacity:1; fill:none" points="301.498,255.881 566.127,255.881 566.127,152.201 301.498,152.201 301.498,255.881 "/>
<polyline clip-path="url(#clip670)" style="stroke:#009af9; stroke-linecap:round; stroke-linejoin:round; stroke-width:4; stroke-opacity:1; fill:none" points="325.075,204.041 466.541,204.041 "/>
<path clip-path="url(#clip670)" d="M503.962 223.728 Q502.156 228.358 500.443 229.77 Q498.73 231.182 495.86 231.182 L492.457 231.182 L492.457 227.617 L494.957 227.617 Q496.716 227.617 497.688 226.784 Q498.661 225.95 499.841 222.848 L500.605 220.904 L490.119 195.395 L494.633 195.395 L502.735 215.673 L510.836 195.395 L515.35 195.395 L503.962 223.728 Z" fill="#000000" fill-rule="nonzero" fill-opacity="1" /><path clip-path="url(#clip670)" d="M522.642 217.385 L530.281 217.385 L530.281 191.02 L521.971 192.687 L521.971 188.427 L530.235 186.761 L534.91 186.761 L534.91 217.385 L542.549 217.385 L542.549 221.321 L522.642 221.321 L522.642 217.385 Z" fill="#000000" fill-rule="nonzero" fill-opacity="1" /></svg>
