<?xml version="1.0" encoding="utf-8"?>
<svg xmlns="http://www.w3.org/2000/svg" xmlns:xlink="http://www.w3.org/1999/xlink" width="600" height="300" viewBox="0 0 2400 1200">
<defs>
  <clipPath id="clip760">
    <rect x="0" y="0" width="2400" height="1200"/>
  </clipPath>
</defs>
<path clip-path="url(#clip760)" d="M0 1200 L2400 1200 L2400 0 L0 0  Z" fill="#ffffff" fill-rule="evenodd" fill-opacity="1"/>
<defs>
  <clipPath id="clip761">
    <rect x="1415" y="92" width="938" height="1008"/>
  </clipPath>
</defs>
<path clip-path="url(#clip760)" d="M216.436 1099.09 L1153.8 1099.09 L1153.8 92.1521 L216.436 92.1521  Z" fill="#ffffff" fill-rule="evenodd" fill-opacity="1"/>
<defs>
  <clipPath id="clip762">
    <rect x="216" y="92" width="938" height="1008"/>
  </clipPath>
</defs>
<polyline clip-path="url(#clip762)" style="stroke:#000000; stroke-linecap:round; stroke-linejoin:round; stroke-width:2; stroke-opacity:0.1; fill:none" points="411.404,1099.09 411.404,92.1521 "/>
<polyline clip-path="url(#clip762)" style="stroke:#000000; stroke-linecap:round; stroke-linejoin:round; stroke-width:2; stroke-opacity:0.1; fill:none" points="621.952,1099.09 621.952,92.1521 "/>
<polyline clip-path="url(#clip762)" style="stroke:#000000; stroke-linecap:round; stroke-linejoin:round; stroke-width:2; stroke-opacity:0.1; fill:none" points="832.501,1099.09 832.501,92.1521 "/>
<polyline clip-path="url(#clip762)" style="stroke:#000000; stroke-linecap:round; stroke-linejoin:round; stroke-width:2; stroke-opacity:0.1; fill:none" points="1043.05,1099.09 1043.05,92.1521 "/>
<polyline clip-path="url(#clip762)" style="stroke:#000000; stroke-linecap:round; stroke-linejoin:round; stroke-width:2; stroke-opacity:0.1; fill:none" points="216.436,1077.45 1153.8,1077.45 "/>
<polyline clip-path="url(#clip762)" style="stroke:#000000; stroke-linecap:round; stroke-linejoin:round; stroke-width:2; stroke-opacity:0.1; fill:none" points="216.436,838.252 1153.8,838.252 "/>
<polyline clip-path="url(#clip762)" style="stroke:#000000; stroke-linecap:round; stroke-linejoin:round; stroke-width:2; stroke-opacity:0.1; fill:none" points="216.436,599.051 1153.8,599.051 "/>
<polyline clip-path="url(#clip762)" style="stroke:#000000; stroke-linecap:round; stroke-linejoin:round; stroke-width:2; stroke-opacity:0.1; fill:none" points="216.436,359.851 1153.8,359.851 "/>
<polyline clip-path="url(#clip762)" style="stroke:#000000; stroke-linecap:round; stroke-linejoin:round; stroke-width:2; stroke-opacity:0.1; fill:none" points="216.436,120.65 1153.8,120.65 "/>
<polyline clip-path="url(#clip760)" style="stroke:#000000; stroke-linecap:round; stroke-linejoin:round; stroke-width:4; stroke-opacity:1; fill:none" points="216.436,1099.09 1153.8,1099.09 "/>
<polyline clip-path="url(#clip760)" style="stroke:#000000; stroke-linecap:round; stroke-linejoin:round; stroke-width:4; stroke-opacity:1; fill:none" points="411.404,1099.09 411.404,1080.19 "/>
<polyline clip-path="url(#clip760)" style="stroke:#000000; stroke-linecap:round; stroke-linejoin:round; stroke-width:4; stroke-opacity:1; fill:none" points="621.952,1099.09 621.952,1080.19 "/>
<polyline clip-path="url(#clip760)" style="stroke:#000000; stroke-linecap:round; stroke-linejoin:round; stroke-width:4; stroke-opacity:1; fill:none" points="832.501,1099.09 832.501,1080.19 "/>
<polyline clip-path="url(#clip760)" style="stroke:#000000; stroke-linecap:round; stroke-linejoin:round; stroke-width:4; stroke-opacity:1; fill:none" points="1043.05,1099.09 1043.05,1080.19 "/>
<path clip-path="url(#clip760)" d="M401.682 1126.93 L420.038 1126.93 L420.038 1130.86 L405.964 1130.86 L405.964 1139.34 Q406.982 1138.99 408.001 1138.83 Q409.019 1138.64 410.038 1138.64 Q415.825 1138.64 419.205 1141.81 Q422.584 1144.98 422.584 1150.4 Q422.584 1155.98 419.112 1159.08 Q415.64 1162.16 409.32 1162.16 Q407.145 1162.16 404.876 1161.79 Q402.631 1161.42 400.223 1160.68 L400.223 1155.98 Q402.307 1157.11 404.529 1157.67 Q406.751 1158.22 409.228 1158.22 Q413.232 1158.22 415.57 1156.12 Q417.908 1154.01 417.908 1150.4 Q417.908 1146.79 415.57 1144.68 Q413.232 1142.58 409.228 1142.58 Q407.353 1142.58 405.478 1142.99 Q403.626 1143.41 401.682 1144.29 L401.682 1126.93 Z" fill="#000000" fill-rule="nonzero" fill-opacity="1" /><path clip-path="url(#clip760)" d="M596.64 1157.55 L604.279 1157.55 L604.279 1131.19 L595.969 1132.85 L595.969 1128.59 L604.232 1126.93 L608.908 1126.93 L608.908 1157.55 L616.547 1157.55 L616.547 1161.49 L596.64 1161.49 L596.64 1157.55 Z" fill="#000000" fill-rule="nonzero" fill-opacity="1" /><path clip-path="url(#clip760)" d="M635.991 1130.01 Q632.38 1130.01 630.552 1133.57 Q628.746 1137.11 628.746 1144.24 Q628.746 1151.35 630.552 1154.91 Q632.38 1158.46 635.991 1158.46 Q639.626 1158.46 641.431 1154.91 Q643.26 1151.35 643.26 1144.24 Q643.26 1137.11 641.431 1133.57 Q639.626 1130.01 635.991 1130.01 M635.991 1126.3 Q641.802 1126.3 644.857 1130.91 Q647.936 1135.49 647.936 1144.24 Q647.936 1152.97 644.857 1157.58 Q641.802 1162.16 635.991 1162.16 Q630.181 1162.16 627.103 1157.58 Q624.047 1152.97 624.047 1144.24 Q624.047 1135.49 627.103 1130.91 Q630.181 1126.3 635.991 1126.3 Z" fill="#000000" fill-rule="nonzero" fill-opacity="1" /><path clip-path="url(#clip760)" d="M807.686 1157.55 L815.325 1157.55 L815.325 1131.19 L807.015 1132.85 L807.015 1128.59 L815.279 1126.93 L819.954 1126.93 L819.954 1157.55 L827.593 1157.55 L827.593 1161.49 L807.686 1161.49 L807.686 1157.55 Z" fill="#000000" fill-rule="nonzero" fill-opacity="1" /><path clip-path="url(#clip760)" d="M837.084 1126.93 L855.44 1126.93 L855.44 1130.86 L841.366 1130.86 L841.366 1139.34 Q842.385 1138.99 843.403 1138.83 Q844.422 1138.64 845.44 1138.64 Q851.227 1138.64 854.607 1141.81 Q857.987 1144.98 857.987 1150.4 Q857.987 1155.98 854.514 1159.08 Q851.042 1162.16 844.723 1162.16 Q842.547 1162.16 840.278 1161.79 Q838.033 1161.42 835.626 1160.68 L835.626 1155.98 Q837.709 1157.11 839.931 1157.67 Q842.153 1158.22 844.63 1158.22 Q848.635 1158.22 850.973 1156.12 Q853.311 1154.01 853.311 1150.4 Q853.311 1146.79 850.973 1144.68 Q848.635 1142.58 844.63 1142.58 Q842.755 1142.58 840.88 1142.99 Q839.028 1143.41 837.084 1144.29 L837.084 1126.93 Z" fill="#000000" fill-rule="nonzero" fill-opacity="1" /><path clip-path="url(#clip760)" d="M1021.82 1157.55 L1038.14 1157.55 L1038.14 1161.49 L1016.2 1161.49 L1016.2 1157.55 Q1018.86 1154.8 1023.44 1150.17 Q1028.05 1145.52 1029.23 1144.17 Q1031.48 1141.65 1032.35 1139.91 Q1033.26 1138.15 1033.26 1136.46 Q1033.26 1133.71 1031.31 1131.97 Q1029.39 1130.24 1026.29 1130.24 Q1024.09 1130.24 1021.64 1131 Q1019.21 1131.77 1016.43 1133.32 L1016.43 1128.59 Q1019.25 1127.46 1021.71 1126.88 Q1024.16 1126.3 1026.2 1126.3 Q1031.57 1126.3 1034.76 1128.99 Q1037.96 1131.67 1037.96 1136.16 Q1037.96 1138.29 1037.15 1140.21 Q1036.36 1142.11 1034.25 1144.71 Q1033.67 1145.38 1030.57 1148.59 Q1027.47 1151.79 1021.82 1157.55 Z" fill="#000000" fill-rule="nonzero" fill-opacity="1" /><path clip-path="url(#clip760)" d="M1057.96 1130.01 Q1054.35 1130.01 1052.52 1133.57 Q1050.71 1137.11 1050.71 1144.24 Q1050.71 1151.35 1052.52 1154.91 Q1054.35 1158.46 1057.96 1158.46 Q1061.59 1158.46 1063.4 1154.91 Q1065.22 1151.35 1065.22 1144.24 Q1065.22 1137.11 1063.4 1133.57 Q1061.59 1130.01 1057.96 1130.01 M1057.96 1126.3 Q1063.77 1126.3 1066.82 1130.91 Q1069.9 1135.49 1069.9 1144.24 Q1069.9 1152.97 1066.82 1157.58 Q1063.77 1162.16 1057.96 1162.16 Q1052.15 1162.16 1049.07 1157.58 Q1046.01 1152.97 1046.01 1144.24 Q1046.01 1135.49 1049.07 1130.91 Q1052.15 1126.3 1057.96 1126.3 Z" fill="#000000" fill-rule="nonzero" fill-opacity="1" /><polyline clip-path="url(#clip760)" style="stroke:#000000; stroke-linecap:round; stroke-linejoin:round; stroke-width:4; stroke-opacity:1; fill:none" points="216.436,1099.09 216.436,92.1521 "/>
<polyline clip-path="url(#clip760)" style="stroke:#000000; stroke-linecap:round; stroke-linejoin:round; stroke-width:4; stroke-opacity:1; fill:none" points="216.436,1077.45 235.334,1077.45 "/>
<polyline clip-path="url(#clip760)" style="stroke:#000000; stroke-linecap:round; stroke-linejoin:round; stroke-width:4; stroke-opacity:1; fill:none" points="216.436,838.252 235.334,838.252 "/>
<polyline clip-path="url(#clip760)" style="stroke:#000000; stroke-linecap:round; stroke-linejoin:round; stroke-width:4; stroke-opacity:1; fill:none" points="216.436,599.051 235.334,599.051 "/>
<polyline clip-path="url(#clip760)" style="stroke:#000000; stroke-linecap:round; stroke-linejoin:round; stroke-width:4; stroke-opacity:1; fill:none" points="216.436,359.851 235.334,359.851 "/>
<polyline clip-path="url(#clip760)" style="stroke:#000000; stroke-linecap:round; stroke-linejoin:round; stroke-width:4; stroke-opacity:1; fill:none" points="216.436,120.65 235.334,120.65 "/>
<path clip-path="url(#clip760)" d="M62.9365 1063.25 Q59.3254 1063.25 57.4967 1066.82 Q55.6912 1070.36 55.6912 1077.49 Q55.6912 1084.59 57.4967 1088.16 Q59.3254 1091.7 62.9365 1091.7 Q66.5707 1091.7 68.3763 1088.16 Q70.205 1084.59 70.205 1077.49 Q70.205 1070.36 68.3763 1066.82 Q66.5707 1063.25 62.9365 1063.25 M62.9365 1059.55 Q68.7467 1059.55 71.8022 1064.15 Q74.8809 1068.74 74.8809 1077.49 Q74.8809 1086.21 71.8022 1090.82 Q68.7467 1095.4 62.9365 1095.4 Q57.1264 1095.4 54.0477 1090.82 Q50.9921 1086.21 50.9921 1077.49 Q50.9921 1068.74 54.0477 1064.15 Q57.1264 1059.55 62.9365 1059.55 Z" fill="#000000" fill-rule="nonzero" fill-opacity="1" /><path clip-path="url(#clip760)" d="M83.0984 1088.85 L87.9827 1088.85 L87.9827 1094.73 L83.0984 1094.73 L83.0984 1088.85 Z" fill="#000000" fill-rule="nonzero" fill-opacity="1" /><path clip-path="url(#clip760)" d="M108.168 1063.25 Q104.557 1063.25 102.728 1066.82 Q100.922 1070.36 100.922 1077.49 Q100.922 1084.59 102.728 1088.16 Q104.557 1091.7 108.168 1091.7 Q111.802 1091.7 113.608 1088.16 Q115.436 1084.59 115.436 1077.49 Q115.436 1070.36 113.608 1066.82 Q111.802 1063.25 108.168 1063.25 M108.168 1059.55 Q113.978 1059.55 117.033 1064.15 Q120.112 1068.74 120.112 1077.49 Q120.112 1086.21 117.033 1090.82 Q113.978 1095.4 108.168 1095.4 Q102.358 1095.4 99.2789 1090.82 Q96.2234 1086.21 96.2234 1077.49 Q96.2234 1068.74 99.2789 1064.15 Q102.358 1059.55 108.168 1059.55 Z" fill="#000000" fill-rule="nonzero" fill-opacity="1" /><path clip-path="url(#clip760)" d="M138.33 1063.25 Q134.719 1063.25 132.89 1066.82 Q131.084 1070.36 131.084 1077.49 Q131.084 1084.59 132.89 1088.16 Q134.719 1091.7 138.33 1091.7 Q141.964 1091.7 143.769 1088.16 Q145.598 1084.59 145.598 1077.49 Q145.598 1070.36 143.769 1066.82 Q141.964 1063.25 138.33 1063.25 M138.33 1059.55 Q144.14 1059.55 147.195 1064.15 Q150.274 1068.74 150.274 1077.49 Q150.274 1086.21 147.195 1090.82 Q144.14 1095.4 138.33 1095.4 Q132.519 1095.4 129.441 1090.82 Q126.385 1086.21 126.385 1077.49 Q126.385 1068.74 129.441 1064.15 Q132.519 1059.55 138.33 1059.55 Z" fill="#000000" fill-rule="nonzero" fill-opacity="1" /><path clip-path="url(#clip760)" d="M168.491 1063.25 Q164.88 1063.25 163.052 1066.82 Q161.246 1070.36 161.246 1077.49 Q161.246 1084.59 163.052 1088.16 Q164.88 1091.7 168.491 1091.7 Q172.126 1091.7 173.931 1088.16 Q175.76 1084.59 175.76 1077.49 Q175.76 1070.36 173.931 1066.82 Q172.126 1063.25 168.491 1063.25 M168.491 1059.55 Q174.302 1059.55 177.357 1064.15 Q180.436 1068.74 180.436 1077.49 Q180.436 1086.21 177.357 1090.82 Q174.302 1095.4 168.491 1095.4 Q162.681 1095.4 159.603 1090.82 Q156.547 1086.21 156.547 1077.49 Q156.547 1068.74 159.603 1064.15 Q162.681 1059.55 168.491 1059.55 Z" fill="#000000" fill-rule="nonzero" fill-opacity="1" /><path clip-path="url(#clip760)" d="M63.9319 824.051 Q60.3208 824.051 58.4921 827.615 Q56.6865 831.157 56.6865 838.287 Q56.6865 845.393 58.4921 848.958 Q60.3208 852.5 63.9319 852.5 Q67.5661 852.5 69.3717 848.958 Q71.2004 845.393 71.2004 838.287 Q71.2004 831.157 69.3717 827.615 Q67.5661 824.051 63.9319 824.051 M63.9319 820.347 Q69.742 820.347 72.7976 824.953 Q75.8763 829.537 75.8763 838.287 Q75.8763 847.013 72.7976 851.62 Q69.742 856.203 63.9319 856.203 Q58.1217 856.203 55.043 851.62 Q51.9875 847.013 51.9875 838.287 Q51.9875 829.537 55.043 824.953 Q58.1217 820.347 63.9319 820.347 Z" fill="#000000" fill-rule="nonzero" fill-opacity="1" /><path clip-path="url(#clip760)" d="M84.0938 849.652 L88.978 849.652 L88.978 855.532 L84.0938 855.532 L84.0938 849.652 Z" fill="#000000" fill-rule="nonzero" fill-opacity="1" /><path clip-path="url(#clip760)" d="M109.163 824.051 Q105.552 824.051 103.723 827.615 Q101.918 831.157 101.918 838.287 Q101.918 845.393 103.723 848.958 Q105.552 852.5 109.163 852.5 Q112.797 852.5 114.603 848.958 Q116.432 845.393 116.432 838.287 Q116.432 831.157 114.603 827.615 Q112.797 824.051 109.163 824.051 M109.163 820.347 Q114.973 820.347 118.029 824.953 Q121.107 829.537 121.107 838.287 Q121.107 847.013 118.029 851.62 Q114.973 856.203 109.163 856.203 Q103.353 856.203 100.274 851.62 Q97.2187 847.013 97.2187 838.287 Q97.2187 829.537 100.274 824.953 Q103.353 820.347 109.163 820.347 Z" fill="#000000" fill-rule="nonzero" fill-opacity="1" /><path clip-path="url(#clip760)" d="M139.325 824.051 Q135.714 824.051 133.885 827.615 Q132.08 831.157 132.08 838.287 Q132.08 845.393 133.885 848.958 Q135.714 852.5 139.325 852.5 Q142.959 852.5 144.765 848.958 Q146.593 845.393 146.593 838.287 Q146.593 831.157 144.765 827.615 Q142.959 824.051 139.325 824.051 M139.325 820.347 Q145.135 820.347 148.191 824.953 Q151.269 829.537 151.269 838.287 Q151.269 847.013 148.191 851.62 Q145.135 856.203 139.325 856.203 Q133.515 856.203 130.436 851.62 Q127.381 847.013 127.381 838.287 Q127.381 829.537 130.436 824.953 Q133.515 820.347 139.325 820.347 Z" fill="#000000" fill-rule="nonzero" fill-opacity="1" /><path clip-path="url(#clip760)" d="M159.533 820.972 L177.89 820.972 L177.89 824.907 L163.816 824.907 L163.816 833.379 Q164.834 833.032 165.853 832.87 Q166.871 832.685 167.89 832.685 Q173.677 832.685 177.056 835.856 Q180.436 839.027 180.436 844.444 Q180.436 850.023 176.964 853.125 Q173.491 856.203 167.172 856.203 Q164.996 856.203 162.728 855.833 Q160.482 855.463 158.075 854.722 L158.075 850.023 Q160.158 851.157 162.38 851.713 Q164.603 852.268 167.079 852.268 Q171.084 852.268 173.422 850.162 Q175.76 848.055 175.76 844.444 Q175.76 840.833 173.422 838.726 Q171.084 836.62 167.079 836.62 Q165.204 836.62 163.329 837.037 Q161.478 837.453 159.533 838.333 L159.533 820.972 Z" fill="#000000" fill-rule="nonzero" fill-opacity="1" /><path clip-path="url(#clip760)" d="M62.9365 584.85 Q59.3254 584.85 57.4967 588.415 Q55.6912 591.957 55.6912 599.086 Q55.6912 606.193 57.4967 609.757 Q59.3254 613.299 62.9365 613.299 Q66.5707 613.299 68.3763 609.757 Q70.205 606.193 70.205 599.086 Q70.205 591.957 68.3763 588.415 Q66.5707 584.85 62.9365 584.85 M62.9365 581.146 Q68.7467 581.146 71.8022 585.753 Q74.8809 590.336 74.8809 599.086 Q74.8809 607.813 71.8022 612.419 Q68.7467 617.003 62.9365 617.003 Q57.1264 617.003 54.0477 612.419 Q50.9921 607.813 50.9921 599.086 Q50.9921 590.336 54.0477 585.753 Q57.1264 581.146 62.9365 581.146 Z" fill="#000000" fill-rule="nonzero" fill-opacity="1" /><path clip-path="url(#clip760)" d="M83.0984 610.452 L87.9827 610.452 L87.9827 616.331 L83.0984 616.331 L83.0984 610.452 Z" fill="#000000" fill-rule="nonzero" fill-opacity="1" /><path clip-path="url(#clip760)" d="M108.168 584.85 Q104.557 584.85 102.728 588.415 Q100.922 591.957 100.922 599.086 Q100.922 606.193 102.728 609.757 Q104.557 613.299 108.168 613.299 Q111.802 613.299 113.608 609.757 Q115.436 606.193 115.436 599.086 Q115.436 591.957 113.608 588.415 Q111.802 584.85 108.168 584.85 M108.168 581.146 Q113.978 581.146 117.033 585.753 Q120.112 590.336 120.112 599.086 Q120.112 607.813 117.033 612.419 Q113.978 617.003 108.168 617.003 Q102.358 617.003 99.2789 612.419 Q96.2234 607.813 96.2234 599.086 Q96.2234 590.336 99.2789 585.753 Q102.358 581.146 108.168 581.146 Z" fill="#000000" fill-rule="nonzero" fill-opacity="1" /><path clip-path="url(#clip760)" d="M129.14 612.396 L136.779 612.396 L136.779 586.031 L128.469 587.697 L128.469 583.438 L136.732 581.771 L141.408 581.771 L141.408 612.396 L149.047 612.396 L149.047 616.331 L129.14 616.331 L129.14 612.396 Z" fill="#000000" fill-rule="nonzero" fill-opacity="1" /><path clip-path="url(#clip760)" d="M168.491 584.85 Q164.88 584.85 163.052 588.415 Q161.246 591.957 161.246 599.086 Q161.246 606.193 163.052 609.757 Q164.88 613.299 168.491 613.299 Q172.126 613.299 173.931 609.757 Q175.76 606.193 175.76 599.086 Q175.76 591.957 173.931 588.415 Q172.126 584.85 168.491 584.85 M168.491 581.146 Q174.302 581.146 177.357 585.753 Q180.436 590.336 180.436 599.086 Q180.436 607.813 177.357 612.419 Q174.302 617.003 168.491 617.003 Q162.681 617.003 159.603 612.419 Q156.547 607.813 156.547 599.086 Q156.547 590.336 159.603 585.753 Q162.681 581.146 168.491 581.146 Z" fill="#000000" fill-rule="nonzero" fill-opacity="1" /><path clip-path="url(#clip760)" d="M63.9319 345.65 Q60.3208 345.65 58.4921 349.214 Q56.6865 352.756 56.6865 359.886 Q56.6865 366.992 58.4921 370.557 Q60.3208 374.098 63.9319 374.098 Q67.5661 374.098 69.3717 370.557 Q71.2004 366.992 71.2004 359.886 Q71.2004 352.756 69.3717 349.214 Q67.5661 345.65 63.9319 345.65 M63.9319 341.946 Q69.742 341.946 72.7976 346.552 Q75.8763 351.136 75.8763 359.886 Q75.8763 368.612 72.7976 373.219 Q69.742 377.802 63.9319 377.802 Q58.1217 377.802 55.043 373.219 Q51.9875 368.612 51.9875 359.886 Q51.9875 351.136 55.043 346.552 Q58.1217 341.946 63.9319 341.946 Z" fill="#000000" fill-rule="nonzero" fill-opacity="1" /><path clip-path="url(#clip760)" d="M84.0938 371.251 L88.978 371.251 L88.978 377.131 L84.0938 377.131 L84.0938 371.251 Z" fill="#000000" fill-rule="nonzero" fill-opacity="1" /><path clip-path="url(#clip760)" d="M109.163 345.65 Q105.552 345.65 103.723 349.214 Q101.918 352.756 101.918 359.886 Q101.918 366.992 103.723 370.557 Q105.552 374.098 109.163 374.098 Q112.797 374.098 114.603 370.557 Q116.432 366.992 116.432 359.886 Q116.432 352.756 114.603 349.214 Q112.797 345.65 109.163 345.65 M109.163 341.946 Q114.973 341.946 118.029 346.552 Q121.107 351.136 121.107 359.886 Q121.107 368.612 118.029 373.219 Q114.973 377.802 109.163 377.802 Q103.353 377.802 100.274 373.219 Q97.2187 368.612 97.2187 359.886 Q97.2187 351.136 100.274 346.552 Q103.353 341.946 109.163 341.946 Z" fill="#000000" fill-rule="nonzero" fill-opacity="1" /><path clip-path="url(#clip760)" d="M130.135 373.196 L137.774 373.196 L137.774 346.83 L129.464 348.497 L129.464 344.238 L137.728 342.571 L142.404 342.571 L142.404 373.196 L150.043 373.196 L150.043 377.131 L130.135 377.131 L130.135 373.196 Z" fill="#000000" fill-rule="nonzero" fill-opacity="1" /><path clip-path="url(#clip760)" d="M159.533 342.571 L177.89 342.571 L177.89 346.506 L163.816 346.506 L163.816 354.978 Q164.834 354.631 165.853 354.469 Q166.871 354.284 167.89 354.284 Q173.677 354.284 177.056 357.455 Q180.436 360.626 180.436 366.043 Q180.436 371.622 176.964 374.723 Q173.491 377.802 167.172 377.802 Q164.996 377.802 162.728 377.432 Q160.482 377.061 158.075 376.321 L158.075 371.622 Q160.158 372.756 162.38 373.311 Q164.603 373.867 167.079 373.867 Q171.084 373.867 173.422 371.761 Q175.76 369.654 175.76 366.043 Q175.76 362.432 173.422 360.325 Q171.084 358.219 167.079 358.219 Q165.204 358.219 163.329 358.636 Q161.478 359.052 159.533 359.932 L159.533 342.571 Z" fill="#000000" fill-rule="nonzero" fill-opacity="1" /><path clip-path="url(#clip760)" d="M62.9365 106.449 Q59.3254 106.449 57.4967 110.014 Q55.6912 113.555 55.6912 120.685 Q55.6912 127.791 57.4967 131.356 Q59.3254 134.898 62.9365 134.898 Q66.5707 134.898 68.3763 131.356 Q70.205 127.791 70.205 120.685 Q70.205 113.555 68.3763 110.014 Q66.5707 106.449 62.9365 106.449 M62.9365 102.745 Q68.7467 102.745 71.8022 107.352 Q74.8809 111.935 74.8809 120.685 Q74.8809 129.412 71.8022 134.018 Q68.7467 138.602 62.9365 138.602 Q57.1264 138.602 54.0477 134.018 Q50.9921 129.412 50.9921 120.685 Q50.9921 111.935 54.0477 107.352 Q57.1264 102.745 62.9365 102.745 Z" fill="#000000" fill-rule="nonzero" fill-opacity="1" /><path clip-path="url(#clip760)" d="M83.0984 132.051 L87.9827 132.051 L87.9827 137.93 L83.0984 137.93 L83.0984 132.051 Z" fill="#000000" fill-rule="nonzero" fill-opacity="1" /><path clip-path="url(#clip760)" d="M108.168 106.449 Q104.557 106.449 102.728 110.014 Q100.922 113.555 100.922 120.685 Q100.922 127.791 102.728 131.356 Q104.557 134.898 108.168 134.898 Q111.802 134.898 113.608 131.356 Q115.436 127.791 115.436 120.685 Q115.436 113.555 113.608 110.014 Q111.802 106.449 108.168 106.449 M108.168 102.745 Q113.978 102.745 117.033 107.352 Q120.112 111.935 120.112 120.685 Q120.112 129.412 117.033 134.018 Q113.978 138.602 108.168 138.602 Q102.358 138.602 99.2789 134.018 Q96.2234 129.412 96.2234 120.685 Q96.2234 111.935 99.2789 107.352 Q102.358 102.745 108.168 102.745 Z" fill="#000000" fill-rule="nonzero" fill-opacity="1" /><path clip-path="url(#clip760)" d="M132.357 133.995 L148.677 133.995 L148.677 137.93 L126.732 137.93 L126.732 133.995 Q129.394 131.241 133.978 126.611 Q138.584 121.958 139.765 120.616 Q142.01 118.092 142.89 116.356 Q143.793 114.597 143.793 112.907 Q143.793 110.153 141.848 108.417 Q139.927 106.68 136.825 106.68 Q134.626 106.68 132.172 107.444 Q129.742 108.208 126.964 109.759 L126.964 105.037 Q129.788 103.903 132.242 103.324 Q134.695 102.745 136.732 102.745 Q142.103 102.745 145.297 105.43 Q148.492 108.116 148.492 112.606 Q148.492 114.736 147.681 116.657 Q146.894 118.555 144.788 121.148 Q144.209 121.819 141.107 125.037 Q138.006 128.231 132.357 133.995 Z" fill="#000000" fill-rule="nonzero" fill-opacity="1" /><path clip-path="url(#clip760)" d="M168.491 106.449 Q164.88 106.449 163.052 110.014 Q161.246 113.555 161.246 120.685 Q161.246 127.791 163.052 131.356 Q164.88 134.898 168.491 134.898 Q172.126 134.898 173.931 131.356 Q175.76 127.791 175.76 120.685 Q175.76 113.555 173.931 110.014 Q172.126 106.449 168.491 106.449 M168.491 102.745 Q174.302 102.745 177.357 107.352 Q180.436 111.935 180.436 120.685 Q180.436 129.412 177.357 134.018 Q174.302 138.602 168.491 138.602 Q162.681 138.602 159.603 134.018 Q156.547 129.412 156.547 120.685 Q156.547 111.935 159.603 107.352 Q162.681 102.745 168.491 102.745 Z" fill="#000000" fill-rule="nonzero" fill-opacity="1" /><path clip-path="url(#clip760)" d="M617.734 30.8748 L617.734 33.2186 L595.703 33.2186 Q596.016 38.1665 598.672 40.7706 Q601.354 43.3487 606.12 43.3487 Q608.88 43.3487 611.458 42.6716 Q614.062 41.9946 616.614 40.6404 L616.614 45.1716 Q614.036 46.2654 611.328 46.8383 Q608.62 47.4112 605.833 47.4112 Q598.854 47.4112 594.766 43.3487 Q590.703 39.2862 590.703 32.3592 Q590.703 25.1978 594.557 21.0051 Q598.437 16.7864 605 16.7864 Q610.885 16.7864 614.297 20.5884 Q617.734 24.3645 617.734 30.8748 M612.943 29.4686 Q612.891 25.5363 610.729 23.1926 Q608.594 20.8488 605.052 20.8488 Q601.042 20.8488 598.62 23.1145 Q596.224 25.3801 595.859 29.4946 L612.943 29.4686 Z" fill="#000000" fill-rule="nonzero" fill-opacity="1" /><path clip-path="url(#clip760)" d="M625.104 35.1456 L625.104 17.4895 L629.896 17.4895 L629.896 34.9634 Q629.896 39.104 631.51 41.1873 Q633.125 43.2446 636.354 43.2446 Q640.234 43.2446 642.474 40.7706 Q644.739 38.2967 644.739 34.0259 L644.739 17.4895 L649.531 17.4895 L649.531 46.656 L644.739 46.656 L644.739 42.1769 Q642.995 44.8331 640.677 46.1352 Q638.385 47.4112 635.338 47.4112 Q630.312 47.4112 627.708 44.2862 Q625.104 41.1612 625.104 35.1456 M637.161 16.7864 L637.161 16.7864 Z" fill="#000000" fill-rule="nonzero" fill-opacity="1" /><path clip-path="url(#clip760)" d="M676.302 21.9686 Q675.494 21.4999 674.531 21.2916 Q673.593 21.0572 672.448 21.0572 Q668.385 21.0572 666.198 23.7134 Q664.036 26.3436 664.036 31.2915 L664.036 46.656 L659.218 46.656 L659.218 17.4895 L664.036 17.4895 L664.036 22.0207 Q665.547 19.3645 667.968 18.0884 Q670.39 16.7864 673.854 16.7864 Q674.349 16.7864 674.948 16.8645 Q675.546 16.9166 676.276 17.0468 L676.302 21.9686 Z" fill="#000000" fill-rule="nonzero" fill-opacity="1" /><path clip-path="url(#clip760)" d="M681.328 17.4895 L686.119 17.4895 L686.119 46.656 L681.328 46.656 L681.328 17.4895 M681.328 6.13538 L686.119 6.13538 L686.119 12.2031 L681.328 12.2031 L681.328 6.13538 Z" fill="#000000" fill-rule="nonzero" fill-opacity="1" /><path clip-path="url(#clip760)" d="M717.083 32.0988 Q717.083 26.8124 714.895 23.8176 Q712.734 20.7968 708.932 20.7968 Q705.13 20.7968 702.942 23.8176 Q700.781 26.8124 700.781 32.0988 Q700.781 37.3852 702.942 40.406 Q705.13 43.4008 708.932 43.4008 Q712.734 43.4008 714.895 40.406 Q717.083 37.3852 717.083 32.0988 M700.781 21.9165 Q702.291 19.3124 704.583 18.0624 Q706.9 16.7864 710.104 16.7864 Q715.416 16.7864 718.723 21.0051 Q722.057 25.2238 722.057 32.0988 Q722.057 38.9737 718.723 43.1925 Q715.416 47.4112 710.104 47.4112 Q706.9 47.4112 704.583 46.1612 Q702.291 44.8852 700.781 42.281 L700.781 46.656 L695.963 46.656 L695.963 6.13538 L700.781 6.13538 L700.781 21.9165 Z" fill="#000000" fill-rule="nonzero" fill-opacity="1" /><path clip-path="url(#clip760)" d="M741.301 20.8488 Q737.447 20.8488 735.208 23.8697 Q732.968 26.8644 732.968 32.0988 Q732.968 37.3331 735.182 40.354 Q737.421 43.3487 741.301 43.3487 Q745.129 43.3487 747.369 40.3279 Q749.609 37.3071 749.609 32.0988 Q749.609 26.9165 747.369 23.8957 Q745.129 20.8488 741.301 20.8488 M741.301 16.7864 Q747.551 16.7864 751.119 20.8488 Q754.687 24.9113 754.687 32.0988 Q754.687 39.2602 751.119 43.3487 Q747.551 47.4112 741.301 47.4112 Q735.025 47.4112 731.458 43.3487 Q727.916 39.2602 727.916 32.0988 Q727.916 24.9113 731.458 20.8488 Q735.025 16.7864 741.301 16.7864 Z" fill="#000000" fill-rule="nonzero" fill-opacity="1" /><path clip-path="url(#clip760)" d="M779.53 21.9686 Q778.723 21.4999 777.759 21.2916 Q776.822 21.0572 775.676 21.0572 Q771.614 21.0572 769.426 23.7134 Q767.265 26.3436 767.265 31.2915 L767.265 46.656 L762.447 46.656 L762.447 17.4895 L767.265 17.4895 L767.265 22.0207 Q768.775 19.3645 771.197 18.0884 Q773.619 16.7864 777.082 16.7864 Q777.577 16.7864 778.176 16.8645 Q778.775 16.9166 779.504 17.0468 L779.53 21.9686 Z" fill="#000000" fill-rule="nonzero" fill-opacity="1" /><path clip-path="url(#clip762)" d="M242.965 998.711 L285.075 998.711 L327.184 1048.5 L369.294 1003.44 L411.404 1016.62 L453.513 988.856 L495.623 996.994 L537.733 1035.72 L579.842 1049.2 L621.952 1013.98 L664.062 1013.48 L706.172 1008.52 L748.281 1004.96 L790.391 1017.62 L832.501 1004.54 L874.61 1042.21 L916.72 1053.77 L958.83 1070.59 L1000.94 1036.66 L1043.05 1014.68 L1085.16 1031.89 L1127.27 1025.1 L1127.27 936.624 L1085.16 927.719 L1043.05 921.018 L1000.94 905.235 L958.83 909.966 L916.72 916.192 L874.61 957.96 L832.501 957.133 L790.391 928.455 L748.281 917.182 L706.172 923.514 L664.062 886.64 L621.952 889.5 L579.842 889.792 L537.733 896.668 L495.623 917.613 L453.513 927.557 L411.404 919.628 L369.294 895.712 L327.184 945.22 L285.075 998.711 L242.965 998.711  Z" fill="#009af9" fill-rule="evenodd" fill-opacity="0.1"/>
<polyline clip-path="url(#clip762)" style="stroke:#009af9; stroke-linecap:round; stroke-linejoin:round; stroke-width:4; stroke-opacity:1; fill:none" points="242.965,998.711 285.075,998.711 327.184,996.859 369.294,949.574 411.404,968.125 453.513,958.207 495.623,957.303 537.733,966.192 579.842,969.498 621.952,951.74 664.062,950.058 706.172,966.016 748.281,961.073 790.391,973.035 832.501,980.837 874.61,1000.09 916.72,984.984 958.83,990.278 1000.94,970.945 1043.05,967.852 1085.16,979.806 1127.27,980.86 "/>
<path clip-path="url(#clip762)" d="M242.965 998.711 L285.075 998.711 L327.184 120.65 L369.294 120.65 L411.404 120.65 L453.513 120.65 L495.623 120.65 L537.733 120.65 L579.842 120.65 L621.952 120.65 L664.062 120.65 L706.172 120.65 L748.281 120.65 L790.391 120.65 L832.501 120.65 L874.61 120.65 L916.72 120.65 L958.83 120.65 L1000.94 120.65 L1043.05 120.65 L1085.16 120.65 L1127.27 120.65 L1127.27 120.65 L1085.16 120.65 L1043.05 120.65 L1000.94 120.65 L958.83 120.65 L916.72 120.65 L874.61 120.65 L832.501 120.65 L790.391 120.65 L748.281 120.65 L706.172 120.65 L664.062 120.65 L621.952 120.65 L579.842 120.65 L537.733 120.65 L495.623 120.65 L453.513 120.65 L411.404 120.65 L369.294 120.65 L327.184 120.65 L285.075 998.711 L242.965 998.711  Z" fill="#e26f46" fill-rule="evenodd" fill-opacity="0.1"/>
<polyline clip-path="url(#clip762)" style="stroke:#e26f46; stroke-linecap:round; stroke-linejoin:round; stroke-width:4; stroke-opacity:1; fill:none" points="242.965,998.711 285.075,998.711 327.184,120.65 369.294,120.65 411.404,120.65 453.513,120.65 495.623,120.65 537.733,120.65 579.842,120.65 621.952,120.65 664.062,120.65 706.172,120.65 748.281,120.65 790.391,120.65 832.501,120.65 874.61,120.65 916.72,120.65 958.83,120.65 1000.94,120.65 1043.05,120.65 1085.16,120.65 1127.27,120.65 "/>
<path clip-path="url(#clip760)" d="M1415.39 1099.09 L2352.76 1099.09 L2352.76 92.1521 L1415.39 92.1521  Z" fill="#ffffff" fill-rule="evenodd" fill-opacity="1"/>
<polyline clip-path="url(#clip761)" style="stroke:#000000; stroke-linecap:round; stroke-linejoin:round; stroke-width:2; stroke-opacity:0.1; fill:none" points="1610.36,1099.09 1610.36,92.1521 "/>
<polyline clip-path="url(#clip761)" style="stroke:#000000; stroke-linecap:round; stroke-linejoin:round; stroke-width:2; stroke-opacity:0.1; fill:none" points="1820.91,1099.09 1820.91,92.1521 "/>
<polyline clip-path="url(#clip761)" style="stroke:#000000; stroke-linecap:round; stroke-linejoin:round; stroke-width:2; stroke-opacity:0.1; fill:none" points="2031.46,1099.09 2031.46,92.1521 "/>
<polyline clip-path="url(#clip761)" style="stroke:#000000; stroke-linecap:round; stroke-linejoin:round; stroke-width:2; stroke-opacity:0.1; fill:none" points="2242.01,1099.09 2242.01,92.1521 "/>
<polyline clip-path="url(#clip761)" style="stroke:#000000; stroke-linecap:round; stroke-linejoin:round; stroke-width:2; stroke-opacity:0.1; fill:none" points="1415.39,1024.12 2352.76,1024.12 "/>
<polyline clip-path="url(#clip761)" style="stroke:#000000; stroke-linecap:round; stroke-linejoin:round; stroke-width:2; stroke-opacity:0.1; fill:none" points="1415.39,820.748 2352.76,820.748 "/>
<polyline clip-path="url(#clip761)" style="stroke:#000000; stroke-linecap:round; stroke-linejoin:round; stroke-width:2; stroke-opacity:0.1; fill:none" points="1415.39,617.376 2352.76,617.376 "/>
<polyline clip-path="url(#clip761)" style="stroke:#000000; stroke-linecap:round; stroke-linejoin:round; stroke-width:2; stroke-opacity:0.1; fill:none" points="1415.39,414.005 2352.76,414.005 "/>
<polyline clip-path="url(#clip761)" style="stroke:#000000; stroke-linecap:round; stroke-linejoin:round; stroke-width:2; stroke-opacity:0.1; fill:none" points="1415.39,210.634 2352.76,210.634 "/>
<polyline clip-path="url(#clip760)" style="stroke:#000000; stroke-linecap:round; stroke-linejoin:round; stroke-width:4; stroke-opacity:1; fill:none" points="1415.39,1099.09 2352.76,1099.09 "/>
<polyline clip-path="url(#clip760)" style="stroke:#000000; stroke-linecap:round; stroke-linejoin:round; stroke-width:4; stroke-opacity:1; fill:none" points="1610.36,1099.09 1610.36,1080.19 "/>
<polyline clip-path="url(#clip760)" style="stroke:#000000; stroke-linecap:round; stroke-linejoin:round; stroke-width:4; stroke-opacity:1; fill:none" points="1820.91,1099.09 1820.91,1080.19 "/>
<polyline clip-path="url(#clip760)" style="stroke:#000000; stroke-linecap:round; stroke-linejoin:round; stroke-width:4; stroke-opacity:1; fill:none" points="2031.46,1099.09 2031.46,1080.19 "/>
<polyline clip-path="url(#clip760)" style="stroke:#000000; stroke-linecap:round; stroke-linejoin:round; stroke-width:4; stroke-opacity:1; fill:none" points="2242.01,1099.09 2242.01,1080.19 "/>
<path clip-path="url(#clip760)" d="M1600.64 1126.93 L1619 1126.93 L1619 1130.86 L1604.92 1130.86 L1604.92 1139.34 Q1605.94 1138.99 1606.96 1138.83 Q1607.98 1138.64 1609 1138.64 Q1614.78 1138.64 1618.16 1141.81 Q1621.54 1144.98 1621.54 1150.4 Q1621.54 1155.98 1618.07 1159.08 Q1614.6 1162.16 1608.28 1162.16 Q1606.1 1162.16 1603.83 1161.79 Q1601.59 1161.42 1599.18 1160.68 L1599.18 1155.98 Q1601.26 1157.11 1603.49 1157.67 Q1605.71 1158.22 1608.19 1158.22 Q1612.19 1158.22 1614.53 1156.12 Q1616.87 1154.01 1616.87 1150.4 Q1616.87 1146.79 1614.53 1144.68 Q1612.19 1142.58 1608.19 1142.58 Q1606.31 1142.58 1604.44 1142.99 Q1602.58 1143.41 1600.64 1144.29 L1600.64 1126.93 Z" fill="#000000" fill-rule="nonzero" fill-opacity="1" /><path clip-path="url(#clip760)" d="M1795.6 1157.55 L1803.24 1157.55 L1803.24 1131.19 L1794.93 1132.85 L1794.93 1128.59 L1803.19 1126.93 L1807.87 1126.93 L1807.87 1157.55 L1815.51 1157.55 L1815.51 1161.49 L1795.6 1161.49 L1795.6 1157.55 Z" fill="#000000" fill-rule="nonzero" fill-opacity="1" /><path clip-path="url(#clip760)" d="M1834.95 1130.01 Q1831.34 1130.01 1829.51 1133.57 Q1827.7 1137.11 1827.7 1144.24 Q1827.7 1151.35 1829.51 1154.91 Q1831.34 1158.46 1834.95 1158.46 Q1838.58 1158.46 1840.39 1154.91 Q1842.22 1151.35 1842.22 1144.24 Q1842.22 1137.11 1840.39 1133.57 Q1838.58 1130.01 1834.95 1130.01 M1834.95 1126.3 Q1840.76 1126.3 1843.82 1130.91 Q1846.89 1135.49 1846.89 1144.24 Q1846.89 1152.97 1843.82 1157.58 Q1840.76 1162.16 1834.95 1162.16 Q1829.14 1162.16 1826.06 1157.58 Q1823.01 1152.97 1823.01 1144.24 Q1823.01 1135.49 1826.06 1130.91 Q1829.14 1126.3 1834.95 1126.3 Z" fill="#000000" fill-rule="nonzero" fill-opacity="1" /><path clip-path="url(#clip760)" d="M2006.64 1157.55 L2014.28 1157.55 L2014.28 1131.19 L2005.97 1132.85 L2005.97 1128.59 L2014.24 1126.93 L2018.91 1126.93 L2018.91 1157.55 L2026.55 1157.55 L2026.55 1161.49 L2006.64 1161.49 L2006.64 1157.55 Z" fill="#000000" fill-rule="nonzero" fill-opacity="1" /><path clip-path="url(#clip760)" d="M2036.04 1126.93 L2054.4 1126.93 L2054.4 1130.86 L2040.32 1130.86 L2040.32 1139.34 Q2041.34 1138.99 2042.36 1138.83 Q2043.38 1138.64 2044.4 1138.64 Q2050.19 1138.64 2053.57 1141.81 Q2056.94 1144.98 2056.94 1150.4 Q2056.94 1155.98 2053.47 1159.08 Q2050 1162.16 2043.68 1162.16 Q2041.51 1162.16 2039.24 1161.79 Q2036.99 1161.42 2034.58 1160.68 L2034.58 1155.98 Q2036.67 1157.11 2038.89 1157.67 Q2041.11 1158.22 2043.59 1158.22 Q2047.59 1158.22 2049.93 1156.12 Q2052.27 1154.01 2052.27 1150.4 Q2052.27 1146.79 2049.93 1144.68 Q2047.59 1142.58 2043.59 1142.58 Q2041.71 1142.58 2039.84 1142.99 Q2037.99 1143.41 2036.04 1144.29 L2036.04 1126.93 Z" fill="#000000" fill-rule="nonzero" fill-opacity="1" /><path clip-path="url(#clip760)" d="M2220.78 1157.55 L2237.1 1157.55 L2237.1 1161.49 L2215.16 1161.49 L2215.16 1157.55 Q2217.82 1154.8 2222.4 1150.17 Q2227.01 1145.52 2228.19 1144.17 Q2230.43 1141.65 2231.31 1139.91 Q2232.22 1138.15 2232.22 1136.46 Q2232.22 1133.71 2230.27 1131.97 Q2228.35 1130.24 2225.25 1130.24 Q2223.05 1130.24 2220.6 1131 Q2218.16 1131.77 2215.39 1133.32 L2215.39 1128.59 Q2218.21 1127.46 2220.66 1126.88 Q2223.12 1126.3 2225.16 1126.3 Q2230.53 1126.3 2233.72 1128.99 Q2236.91 1131.67 2236.91 1136.16 Q2236.91 1138.29 2236.1 1140.21 Q2235.32 1142.11 2233.21 1144.71 Q2232.63 1145.38 2229.53 1148.59 Q2226.43 1151.79 2220.78 1157.55 Z" fill="#000000" fill-rule="nonzero" fill-opacity="1" /><path clip-path="url(#clip760)" d="M2256.91 1130.01 Q2253.3 1130.01 2251.47 1133.57 Q2249.67 1137.11 2249.67 1144.24 Q2249.67 1151.35 2251.47 1154.91 Q2253.3 1158.46 2256.91 1158.46 Q2260.55 1158.46 2262.35 1154.91 Q2264.18 1151.35 2264.18 1144.24 Q2264.18 1137.11 2262.35 1133.57 Q2260.55 1130.01 2256.91 1130.01 M2256.91 1126.3 Q2262.72 1126.3 2265.78 1130.91 Q2268.86 1135.49 2268.86 1144.24 Q2268.86 1152.97 2265.78 1157.58 Q2262.72 1162.16 2256.91 1162.16 Q2251.1 1162.16 2248.03 1157.58 Q2244.97 1152.97 2244.97 1144.24 Q2244.97 1135.49 2248.03 1130.91 Q2251.1 1126.3 2256.91 1126.3 Z" fill="#000000" fill-rule="nonzero" fill-opacity="1" /><polyline clip-path="url(#clip760)" style="stroke:#000000; stroke-linecap:round; stroke-linejoin:round; stroke-width:4; stroke-opacity:1; fill:none" points="1415.39,1099.09 1415.39,92.1521 "/>
<polyline clip-path="url(#clip760)" style="stroke:#000000; stroke-linecap:round; stroke-linejoin:round; stroke-width:4; stroke-opacity:1; fill:none" points="1415.39,1024.12 1434.29,1024.12 "/>
<polyline clip-path="url(#clip760)" style="stroke:#000000; stroke-linecap:round; stroke-linejoin:round; stroke-width:4; stroke-opacity:1; fill:none" points="1415.39,820.748 1434.29,820.748 "/>
<polyline clip-path="url(#clip760)" style="stroke:#000000; stroke-linecap:round; stroke-linejoin:round; stroke-width:4; stroke-opacity:1; fill:none" points="1415.39,617.376 1434.29,617.376 "/>
<polyline clip-path="url(#clip760)" style="stroke:#000000; stroke-linecap:round; stroke-linejoin:round; stroke-width:4; stroke-opacity:1; fill:none" points="1415.39,414.005 1434.29,414.005 "/>
<polyline clip-path="url(#clip760)" style="stroke:#000000; stroke-linecap:round; stroke-linejoin:round; stroke-width:4; stroke-opacity:1; fill:none" points="1415.39,210.634 1434.29,210.634 "/>
<path clip-path="url(#clip760)" d="M1252.71 1037.46 L1260.34 1037.46 L1260.34 1011.1 L1252.03 1012.76 L1252.03 1008.51 L1260.3 1006.84 L1264.97 1006.84 L1264.97 1037.46 L1272.61 1037.46 L1272.61 1041.4 L1252.71 1041.4 L1252.71 1037.46 Z" fill="#000000" fill-rule="nonzero" fill-opacity="1" /><path clip-path="url(#clip760)" d="M1282.06 1035.52 L1286.94 1035.52 L1286.94 1041.4 L1282.06 1041.4 L1282.06 1035.52 Z" fill="#000000" fill-rule="nonzero" fill-opacity="1" /><path clip-path="url(#clip760)" d="M1307.13 1009.92 Q1303.51 1009.92 1301.69 1013.48 Q1299.88 1017.02 1299.88 1024.15 Q1299.88 1031.26 1301.69 1034.82 Q1303.51 1038.37 1307.13 1038.37 Q1310.76 1038.37 1312.57 1034.82 Q1314.39 1031.26 1314.39 1024.15 Q1314.39 1017.02 1312.57 1013.48 Q1310.76 1009.92 1307.13 1009.92 M1307.13 1006.21 Q1312.94 1006.21 1315.99 1010.82 Q1319.07 1015.4 1319.07 1024.15 Q1319.07 1032.88 1315.99 1037.49 Q1312.94 1042.07 1307.13 1042.07 Q1301.32 1042.07 1298.24 1037.49 Q1295.18 1032.88 1295.18 1024.15 Q1295.18 1015.4 1298.24 1010.82 Q1301.32 1006.21 1307.13 1006.21 Z" fill="#000000" fill-rule="nonzero" fill-opacity="1" /><path clip-path="url(#clip760)" d="M1337.29 1009.92 Q1333.68 1009.92 1331.85 1013.48 Q1330.04 1017.02 1330.04 1024.15 Q1330.04 1031.26 1331.85 1034.82 Q1333.68 1038.37 1337.29 1038.37 Q1340.92 1038.37 1342.73 1034.82 Q1344.56 1031.26 1344.56 1024.15 Q1344.56 1017.02 1342.73 1013.48 Q1340.92 1009.92 1337.29 1009.92 M1337.29 1006.21 Q1343.1 1006.21 1346.15 1010.82 Q1349.23 1015.4 1349.23 1024.15 Q1349.23 1032.88 1346.15 1037.49 Q1343.1 1042.07 1337.29 1042.07 Q1331.48 1042.07 1328.4 1037.49 Q1325.34 1032.88 1325.34 1024.15 Q1325.34 1015.4 1328.4 1010.82 Q1331.48 1006.21 1337.29 1006.21 Z" fill="#000000" fill-rule="nonzero" fill-opacity="1" /><path clip-path="url(#clip760)" d="M1367.45 1009.92 Q1363.84 1009.92 1362.01 1013.48 Q1360.2 1017.02 1360.2 1024.15 Q1360.2 1031.26 1362.01 1034.82 Q1363.84 1038.37 1367.45 1038.37 Q1371.08 1038.37 1372.89 1034.82 Q1374.72 1031.26 1374.72 1024.15 Q1374.72 1017.02 1372.89 1013.48 Q1371.08 1009.92 1367.45 1009.92 M1367.45 1006.21 Q1373.26 1006.21 1376.32 1010.82 Q1379.39 1015.4 1379.39 1024.15 Q1379.39 1032.88 1376.32 1037.49 Q1373.26 1042.07 1367.45 1042.07 Q1361.64 1042.07 1358.56 1037.49 Q1355.51 1032.88 1355.51 1024.15 Q1355.51 1015.4 1358.56 1010.82 Q1361.64 1006.21 1367.45 1006.21 Z" fill="#000000" fill-rule="nonzero" fill-opacity="1" /><path clip-path="url(#clip760)" d="M1253.7 834.093 L1261.34 834.093 L1261.34 807.727 L1253.03 809.394 L1253.03 805.134 L1261.29 803.468 L1265.97 803.468 L1265.97 834.093 L1273.61 834.093 L1273.61 838.028 L1253.7 838.028 L1253.7 834.093 Z" fill="#000000" fill-rule="nonzero" fill-opacity="1" /><path clip-path="url(#clip760)" d="M1283.05 832.148 L1287.94 832.148 L1287.94 838.028 L1283.05 838.028 L1283.05 832.148 Z" fill="#000000" fill-rule="nonzero" fill-opacity="1" /><path clip-path="url(#clip760)" d="M1308.12 806.546 Q1304.51 806.546 1302.68 810.111 Q1300.88 813.653 1300.88 820.782 Q1300.88 827.889 1302.68 831.454 Q1304.51 834.995 1308.12 834.995 Q1311.76 834.995 1313.56 831.454 Q1315.39 827.889 1315.39 820.782 Q1315.39 813.653 1313.56 810.111 Q1311.76 806.546 1308.12 806.546 M1308.12 802.843 Q1313.93 802.843 1316.99 807.449 Q1320.07 812.032 1320.07 820.782 Q1320.07 829.509 1316.99 834.116 Q1313.93 838.699 1308.12 838.699 Q1302.31 838.699 1299.23 834.116 Q1296.18 829.509 1296.18 820.782 Q1296.18 812.032 1299.23 807.449 Q1302.31 802.843 1308.12 802.843 Z" fill="#000000" fill-rule="nonzero" fill-opacity="1" /><path clip-path="url(#clip760)" d="M1332.31 834.093 L1348.63 834.093 L1348.63 838.028 L1326.69 838.028 L1326.69 834.093 Q1329.35 831.338 1333.93 826.708 Q1338.54 822.056 1339.72 820.713 Q1341.96 818.19 1342.84 816.454 Q1343.75 814.694 1343.75 813.005 Q1343.75 810.25 1341.8 808.514 Q1339.88 806.778 1336.78 806.778 Q1334.58 806.778 1332.13 807.542 Q1329.7 808.306 1326.92 809.857 L1326.92 805.134 Q1329.74 804 1332.2 803.421 Q1334.65 802.843 1336.69 802.843 Q1342.06 802.843 1345.25 805.528 Q1348.45 808.213 1348.45 812.704 Q1348.45 814.833 1347.64 816.755 Q1346.85 818.653 1344.74 821.245 Q1344.16 821.917 1341.06 825.134 Q1337.96 828.329 1332.31 834.093 Z" fill="#000000" fill-rule="nonzero" fill-opacity="1" /><path clip-path="url(#clip760)" d="M1358.49 803.468 L1376.85 803.468 L1376.85 807.403 L1362.77 807.403 L1362.77 815.875 Q1363.79 815.528 1364.81 815.366 Q1365.83 815.181 1366.85 815.181 Q1372.63 815.181 1376.01 818.352 Q1379.39 821.523 1379.39 826.94 Q1379.39 832.518 1375.92 835.62 Q1372.45 838.699 1366.13 838.699 Q1363.95 838.699 1361.69 838.329 Q1359.44 837.958 1357.03 837.217 L1357.03 832.518 Q1359.12 833.653 1361.34 834.208 Q1363.56 834.764 1366.04 834.764 Q1370.04 834.764 1372.38 832.657 Q1374.72 830.551 1374.72 826.94 Q1374.72 823.329 1372.38 821.222 Q1370.04 819.116 1366.04 819.116 Q1364.16 819.116 1362.29 819.532 Q1360.44 819.949 1358.49 820.829 L1358.49 803.468 Z" fill="#000000" fill-rule="nonzero" fill-opacity="1" /><path clip-path="url(#clip760)" d="M1252.71 630.721 L1260.34 630.721 L1260.34 604.356 L1252.03 606.022 L1252.03 601.763 L1260.3 600.096 L1264.97 600.096 L1264.97 630.721 L1272.61 630.721 L1272.61 634.656 L1252.71 634.656 L1252.71 630.721 Z" fill="#000000" fill-rule="nonzero" fill-opacity="1" /><path clip-path="url(#clip760)" d="M1282.06 628.777 L1286.94 628.777 L1286.94 634.656 L1282.06 634.656 L1282.06 628.777 Z" fill="#000000" fill-rule="nonzero" fill-opacity="1" /><path clip-path="url(#clip760)" d="M1307.13 603.175 Q1303.51 603.175 1301.69 606.74 Q1299.88 610.281 1299.88 617.411 Q1299.88 624.518 1301.69 628.082 Q1303.51 631.624 1307.13 631.624 Q1310.76 631.624 1312.57 628.082 Q1314.39 624.518 1314.39 617.411 Q1314.39 610.281 1312.57 606.74 Q1310.76 603.175 1307.13 603.175 M1307.13 599.471 Q1312.94 599.471 1315.99 604.078 Q1319.07 608.661 1319.07 617.411 Q1319.07 626.138 1315.99 630.744 Q1312.94 635.328 1307.13 635.328 Q1301.32 635.328 1298.24 630.744 Q1295.18 626.138 1295.18 617.411 Q1295.18 608.661 1298.24 604.078 Q1301.32 599.471 1307.13 599.471 Z" fill="#000000" fill-rule="nonzero" fill-opacity="1" /><path clip-path="url(#clip760)" d="M1327.33 600.096 L1345.69 600.096 L1345.69 604.032 L1331.62 604.032 L1331.62 612.504 Q1332.64 612.156 1333.65 611.994 Q1334.67 611.809 1335.69 611.809 Q1341.48 611.809 1344.86 614.981 Q1348.24 618.152 1348.24 623.568 Q1348.24 629.147 1344.76 632.249 Q1341.29 635.328 1334.97 635.328 Q1332.8 635.328 1330.53 634.957 Q1328.28 634.587 1325.88 633.846 L1325.88 629.147 Q1327.96 630.281 1330.18 630.837 Q1332.4 631.392 1334.88 631.392 Q1338.89 631.392 1341.22 629.286 Q1343.56 627.18 1343.56 623.568 Q1343.56 619.957 1341.22 617.851 Q1338.89 615.744 1334.88 615.744 Q1333.01 615.744 1331.13 616.161 Q1329.28 616.578 1327.33 617.457 L1327.33 600.096 Z" fill="#000000" fill-rule="nonzero" fill-opacity="1" /><path clip-path="url(#clip760)" d="M1367.45 603.175 Q1363.84 603.175 1362.01 606.74 Q1360.2 610.281 1360.2 617.411 Q1360.2 624.518 1362.01 628.082 Q1363.84 631.624 1367.45 631.624 Q1371.08 631.624 1372.89 628.082 Q1374.72 624.518 1374.72 617.411 Q1374.72 610.281 1372.89 606.74 Q1371.08 603.175 1367.45 603.175 M1367.45 599.471 Q1373.26 599.471 1376.32 604.078 Q1379.39 608.661 1379.39 617.411 Q1379.39 626.138 1376.32 630.744 Q1373.26 635.328 1367.45 635.328 Q1361.64 635.328 1358.56 630.744 Q1355.51 626.138 1355.51 617.411 Q1355.51 608.661 1358.56 604.078 Q1361.64 599.471 1367.45 599.471 Z" fill="#000000" fill-rule="nonzero" fill-opacity="1" /><path clip-path="url(#clip760)" d="M1253.7 427.35 L1261.34 427.35 L1261.34 400.984 L1253.03 402.651 L1253.03 398.392 L1261.29 396.725 L1265.97 396.725 L1265.97 427.35 L1273.61 427.35 L1273.61 431.285 L1253.7 431.285 L1253.7 427.35 Z" fill="#000000" fill-rule="nonzero" fill-opacity="1" /><path clip-path="url(#clip760)" d="M1283.05 425.405 L1287.94 425.405 L1287.94 431.285 L1283.05 431.285 L1283.05 425.405 Z" fill="#000000" fill-rule="nonzero" fill-opacity="1" /><path clip-path="url(#clip760)" d="M1308.12 399.804 Q1304.51 399.804 1302.68 403.368 Q1300.88 406.91 1300.88 414.04 Q1300.88 421.146 1302.68 424.711 Q1304.51 428.253 1308.12 428.253 Q1311.76 428.253 1313.56 424.711 Q1315.39 421.146 1315.39 414.04 Q1315.39 406.91 1313.56 403.368 Q1311.76 399.804 1308.12 399.804 M1308.12 396.1 Q1313.93 396.1 1316.99 400.706 Q1320.07 405.29 1320.07 414.04 Q1320.07 422.767 1316.99 427.373 Q1313.93 431.956 1308.12 431.956 Q1302.31 431.956 1299.23 427.373 Q1296.18 422.767 1296.18 414.04 Q1296.18 405.29 1299.23 400.706 Q1302.31 396.1 1308.12 396.1 Z" fill="#000000" fill-rule="nonzero" fill-opacity="1" /><path clip-path="url(#clip760)" d="M1327.1 396.725 L1349.32 396.725 L1349.32 398.716 L1336.78 431.285 L1331.89 431.285 L1343.7 400.66 L1327.1 400.66 L1327.1 396.725 Z" fill="#000000" fill-rule="nonzero" fill-opacity="1" /><path clip-path="url(#clip760)" d="M1358.49 396.725 L1376.85 396.725 L1376.85 400.66 L1362.77 400.66 L1362.77 409.132 Q1363.79 408.785 1364.81 408.623 Q1365.83 408.438 1366.85 408.438 Q1372.63 408.438 1376.01 411.609 Q1379.39 414.78 1379.39 420.197 Q1379.39 425.776 1375.92 428.878 Q1372.45 431.956 1366.13 431.956 Q1363.95 431.956 1361.69 431.586 Q1359.44 431.216 1357.03 430.475 L1357.03 425.776 Q1359.12 426.91 1361.34 427.466 Q1363.56 428.021 1366.04 428.021 Q1370.04 428.021 1372.38 425.915 Q1374.72 423.808 1374.72 420.197 Q1374.72 416.586 1372.38 414.48 Q1370.04 412.373 1366.04 412.373 Q1364.16 412.373 1362.29 412.79 Q1360.44 413.206 1358.49 414.086 L1358.49 396.725 Z" fill="#000000" fill-rule="nonzero" fill-opacity="1" /><path clip-path="url(#clip760)" d="M1252.71 223.979 L1260.34 223.979 L1260.34 197.613 L1252.03 199.28 L1252.03 195.02 L1260.3 193.354 L1264.97 193.354 L1264.97 223.979 L1272.61 223.979 L1272.61 227.914 L1252.71 227.914 L1252.71 223.979 Z" fill="#000000" fill-rule="nonzero" fill-opacity="1" /><path clip-path="url(#clip760)" d="M1282.06 222.034 L1286.94 222.034 L1286.94 227.914 L1282.06 227.914 L1282.06 222.034 Z" fill="#000000" fill-rule="nonzero" fill-opacity="1" /><path clip-path="url(#clip760)" d="M1297.94 223.979 L1305.58 223.979 L1305.58 197.613 L1297.27 199.28 L1297.27 195.02 L1305.53 193.354 L1310.2 193.354 L1310.2 223.979 L1317.84 223.979 L1317.84 227.914 L1297.94 227.914 L1297.94 223.979 Z" fill="#000000" fill-rule="nonzero" fill-opacity="1" /><path clip-path="url(#clip760)" d="M1337.29 196.432 Q1333.68 196.432 1331.85 199.997 Q1330.04 203.539 1330.04 210.668 Q1330.04 217.775 1331.85 221.34 Q1333.68 224.881 1337.29 224.881 Q1340.92 224.881 1342.73 221.34 Q1344.56 217.775 1344.56 210.668 Q1344.56 203.539 1342.73 199.997 Q1340.92 196.432 1337.29 196.432 M1337.29 192.729 Q1343.1 192.729 1346.15 197.335 Q1349.23 201.918 1349.23 210.668 Q1349.23 219.395 1346.15 224.002 Q1343.1 228.585 1337.29 228.585 Q1331.48 228.585 1328.4 224.002 Q1325.34 219.395 1325.34 210.668 Q1325.34 201.918 1328.4 197.335 Q1331.48 192.729 1337.29 192.729 Z" fill="#000000" fill-rule="nonzero" fill-opacity="1" /><path clip-path="url(#clip760)" d="M1367.45 196.432 Q1363.84 196.432 1362.01 199.997 Q1360.2 203.539 1360.2 210.668 Q1360.2 217.775 1362.01 221.34 Q1363.84 224.881 1367.45 224.881 Q1371.08 224.881 1372.89 221.34 Q1374.72 217.775 1374.72 210.668 Q1374.72 203.539 1372.89 199.997 Q1371.08 196.432 1367.45 196.432 M1367.45 192.729 Q1373.26 192.729 1376.32 197.335 Q1379.39 201.918 1379.39 210.668 Q1379.39 219.395 1376.32 224.002 Q1373.26 228.585 1367.45 228.585 Q1361.64 228.585 1358.56 224.002 Q1355.51 219.395 1355.51 210.668 Q1355.51 201.918 1358.56 197.335 Q1361.64 192.729 1367.45 192.729 Z" fill="#000000" fill-rule="nonzero" fill-opacity="1" /><path clip-path="url(#clip760)" d="M1740.76 41.1092 L1740.76 30.6665 L1732.16 30.6665 L1732.16 26.3436 L1745.96 26.3436 L1745.96 43.0362 Q1742.92 45.1977 1739.25 46.3175 Q1735.57 47.4112 1731.41 47.4112 Q1722.29 47.4112 1717.14 42.0987 Q1712.01 36.7602 1712.01 27.2551 Q1712.01 17.7239 1717.14 12.4114 Q1722.29 7.07288 1731.41 7.07288 Q1735.21 7.07288 1738.62 8.01037 Q1742.06 8.94787 1744.95 10.7708 L1744.95 16.3697 Q1742.03 13.8958 1738.75 12.6458 Q1735.47 11.3958 1731.85 11.3958 Q1724.71 11.3958 1721.12 15.3801 Q1717.55 19.3645 1717.55 27.2551 Q1717.55 35.1196 1721.12 39.104 Q1724.71 43.0883 1731.85 43.0883 Q1734.64 43.0883 1736.82 42.6196 Q1739.01 42.1248 1740.76 41.1092 Z" fill="#000000" fill-rule="nonzero" fill-opacity="1" /><path clip-path="url(#clip760)" d="M1760.83 12.0989 L1760.83 42.3331 L1767.19 42.3331 Q1775.23 42.3331 1778.96 38.6873 Q1782.71 35.0415 1782.71 27.1769 Q1782.71 19.3645 1778.96 15.7447 Q1775.23 12.0989 1767.19 12.0989 L1760.83 12.0989 M1755.57 7.776 L1766.38 7.776 Q1777.68 7.776 1782.97 12.4895 Q1788.26 17.177 1788.26 27.1769 Q1788.26 37.229 1782.94 41.9425 Q1777.63 46.656 1766.38 46.656 L1755.57 46.656 L1755.57 7.776 Z" fill="#000000" fill-rule="nonzero" fill-opacity="1" /><path clip-path="url(#clip760)" d="M1801.9 12.0989 L1801.9 26.7082 L1808.52 26.7082 Q1812.19 26.7082 1814.19 24.8072 Q1816.2 22.9061 1816.2 19.3905 Q1816.2 15.901 1814.19 13.9999 Q1812.19 12.0989 1808.52 12.0989 L1801.9 12.0989 M1796.64 7.776 L1808.52 7.776 Q1815.05 7.776 1818.39 10.7447 Q1821.74 13.6874 1821.74 19.3905 Q1821.74 25.1457 1818.39 28.0884 Q1815.05 31.0311 1808.52 31.0311 L1801.9 31.0311 L1801.9 46.656 L1796.64 46.656 L1796.64 7.776 Z" fill="#000000" fill-rule="nonzero" fill-opacity="1" /><path clip-path="url(#clip760)" d="M1851.02 12.0989 L1851.02 42.3331 L1857.37 42.3331 Q1865.42 42.3331 1869.14 38.6873 Q1872.89 35.0415 1872.89 27.1769 Q1872.89 19.3645 1869.14 15.7447 Q1865.42 12.0989 1857.37 12.0989 L1851.02 12.0989 M1845.75 7.776 L1856.56 7.776 Q1867.86 7.776 1873.15 12.4895 Q1878.44 17.177 1878.44 27.1769 Q1878.44 37.229 1873.12 41.9425 Q1867.81 46.656 1856.56 46.656 L1845.75 46.656 L1845.75 7.776 Z" fill="#000000" fill-rule="nonzero" fill-opacity="1" /><path clip-path="url(#clip760)" d="M1911.56 30.8748 L1911.56 33.2186 L1889.53 33.2186 Q1889.84 38.1665 1892.5 40.7706 Q1895.18 43.3487 1899.95 43.3487 Q1902.71 43.3487 1905.29 42.6716 Q1907.89 41.9946 1910.44 40.6404 L1910.44 45.1716 Q1907.86 46.2654 1905.16 46.8383 Q1902.45 47.4112 1899.66 47.4112 Q1892.68 47.4112 1888.59 43.3487 Q1884.53 39.2862 1884.53 32.3592 Q1884.53 25.1978 1888.38 21.0051 Q1892.27 16.7864 1898.83 16.7864 Q1904.71 16.7864 1908.12 20.5884 Q1911.56 24.3645 1911.56 30.8748 M1906.77 29.4686 Q1906.72 25.5363 1904.56 23.1926 Q1902.42 20.8488 1898.88 20.8488 Q1894.87 20.8488 1892.45 23.1145 Q1890.05 25.3801 1889.69 29.4946 L1906.77 29.4686 Z" fill="#000000" fill-rule="nonzero" fill-opacity="1" /><path clip-path="url(#clip760)" d="M1934.19 6.13538 L1934.19 10.1197 L1929.61 10.1197 Q1927.03 10.1197 1926.01 11.1614 Q1925.03 12.2031 1925.03 14.9114 L1925.03 17.4895 L1932.92 17.4895 L1932.92 21.2134 L1925.03 21.2134 L1925.03 46.656 L1920.21 46.656 L1920.21 21.2134 L1915.62 21.2134 L1915.62 17.4895 L1920.21 17.4895 L1920.21 15.4583 Q1920.21 10.5885 1922.47 8.37496 Q1924.74 6.13538 1929.66 6.13538 L1934.19 6.13538 Z" fill="#000000" fill-rule="nonzero" fill-opacity="1" /><path clip-path="url(#clip760)" d="M1938.2 6.13538 L1942.99 6.13538 L1942.99 46.656 L1938.2 46.656 L1938.2 6.13538 Z" fill="#000000" fill-rule="nonzero" fill-opacity="1" /><path clip-path="url(#clip760)" d="M1966.28 31.9946 Q1960.47 31.9946 1958.23 33.3227 Q1955.99 34.6509 1955.99 37.854 Q1955.99 40.406 1957.66 41.9164 Q1959.35 43.4008 1962.24 43.4008 Q1966.22 43.4008 1968.62 40.5883 Q1971.04 37.7498 1971.04 33.0623 L1971.04 31.9946 L1966.28 31.9946 M1975.83 30.0155 L1975.83 46.656 L1971.04 46.656 L1971.04 42.2289 Q1969.4 44.8852 1966.95 46.1612 Q1964.5 47.4112 1960.96 47.4112 Q1956.48 47.4112 1953.83 44.9112 Q1951.2 42.3852 1951.2 38.1665 Q1951.2 33.2446 1954.48 30.7446 Q1957.79 28.2446 1964.32 28.2446 L1971.04 28.2446 L1971.04 27.7759 Q1971.04 24.4686 1968.85 22.6718 Q1966.69 20.8488 1962.76 20.8488 Q1960.26 20.8488 1957.89 21.4478 Q1955.52 22.0468 1953.33 23.2447 L1953.33 18.8176 Q1955.96 17.802 1958.44 17.3072 Q1960.91 16.7864 1963.25 16.7864 Q1969.58 16.7864 1972.71 20.0676 Q1975.83 23.3488 1975.83 30.0155 Z" fill="#000000" fill-rule="nonzero" fill-opacity="1" /><path clip-path="url(#clip760)" d="M1990.44 9.20828 L1990.44 17.4895 L2000.31 17.4895 L2000.31 21.2134 L1990.44 21.2134 L1990.44 37.0467 Q1990.44 40.6144 1991.41 41.63 Q1992.39 42.6456 1995.39 42.6456 L2000.31 42.6456 L2000.31 46.656 L1995.39 46.656 Q1989.84 46.656 1987.73 44.5987 Q1985.62 42.5154 1985.62 37.0467 L1985.62 21.2134 L1982.11 21.2134 L1982.11 17.4895 L1985.62 17.4895 L1985.62 9.20828 L1990.44 9.20828 Z" fill="#000000" fill-rule="nonzero" fill-opacity="1" /><path clip-path="url(#clip760)" d="M2017.92 20.8488 Q2014.06 20.8488 2011.82 23.8697 Q2009.58 26.8644 2009.58 32.0988 Q2009.58 37.3331 2011.8 40.354 Q2014.04 43.3487 2017.92 43.3487 Q2021.74 43.3487 2023.98 40.3279 Q2026.22 37.3071 2026.22 32.0988 Q2026.22 26.9165 2023.98 23.8957 Q2021.74 20.8488 2017.92 20.8488 M2017.92 16.7864 Q2024.17 16.7864 2027.73 20.8488 Q2031.3 24.9113 2031.3 32.0988 Q2031.3 39.2602 2027.73 43.3487 Q2024.17 47.4112 2017.92 47.4112 Q2011.64 47.4112 2008.07 43.3487 Q2004.53 39.2602 2004.53 32.0988 Q2004.53 24.9113 2008.07 20.8488 Q2011.64 16.7864 2017.92 16.7864 Z" fill="#000000" fill-rule="nonzero" fill-opacity="1" /><path clip-path="url(#clip760)" d="M2056.14 21.9686 Q2055.34 21.4999 2054.37 21.2916 Q2053.44 21.0572 2052.29 21.0572 Q2048.23 21.0572 2046.04 23.7134 Q2043.88 26.3436 2043.88 31.2915 L2043.88 46.656 L2039.06 46.656 L2039.06 17.4895 L2043.88 17.4895 L2043.88 22.0207 Q2045.39 19.3645 2047.81 18.0884 Q2050.23 16.7864 2053.7 16.7864 Q2054.19 16.7864 2054.79 16.8645 Q2055.39 16.9166 2056.12 17.0468 L2056.14 21.9686 Z" fill="#000000" fill-rule="nonzero" fill-opacity="1" /><path clip-path="url(#clip761)" d="M1526.14 1036.07 L1568.25 1018.33 L1610.36 1062.65 L1652.47 1070.59 L1694.58 1037.11 L1736.69 995.615 L1778.8 981.252 L1820.91 981.118 L1863.02 1006.03 L1905.13 985.399 L1947.24 944.901 L1989.35 950.586 L2031.46 923.964 L2073.57 883.788 L2115.68 859.79 L2157.79 859.878 L2199.9 844.898 L2242.01 798.118 L2284.12 758.884 L2326.23 696.167 L2326.23 247.659 L2284.12 301.659 L2242.01 326.404 L2199.9 378.371 L2157.79 383.426 L2115.68 418.508 L2073.57 475.813 L2031.46 517.633 L1989.35 534.382 L1947.24 603.536 L1905.13 612.609 L1863.02 644.117 L1820.91 713.192 L1778.8 790.35 L1736.69 833.878 L1694.58 865.445 L1652.47 900.797 L1610.36 919.764 L1568.25 968.212 L1526.14 989.613  Z" fill="#009af9" fill-rule="evenodd" fill-opacity="0.1"/>
<polyline clip-path="url(#clip761)" style="stroke:#009af9; stroke-linecap:round; stroke-linejoin:round; stroke-width:4; stroke-opacity:1; fill:none" points="1526.14,1012.84 1568.25,993.27 1610.36,991.206 1652.47,985.693 1694.58,951.279 1736.69,914.746 1778.8,885.801 1820.91,847.155 1863.02,825.075 1905.13,799.004 1947.24,774.219 1989.35,742.484 2031.46,720.798 2073.57,679.8 2115.68,639.149 2157.79,621.652 2199.9,611.635 2242.01,562.261 2284.12,530.271 2326.23,471.913 "/>
<path clip-path="url(#clip761)" d="M1526.14 1007.68 L1568.25 1039.84 L1610.36 992.695 L1652.47 962.019 L1694.58 889.471 L1736.69 890.299 L1778.8 870.695 L1820.91 827.75 L1863.02 760.824 L1905.13 728.816 L1947.24 686.152 L1989.35 595.96 L2031.46 521.025 L2073.57 495.965 L2115.68 490.358 L2157.79 446.663 L2199.9 422.728 L2242.01 355.389 L2284.12 341.04 L2326.23 335.183 L2326.23 120.65 L2284.12 174.182 L2242.01 224.487 L2199.9 250.522 L2157.79 261.754 L2115.68 307.696 L2073.57 364.141 L2031.46 452.201 L1989.35 498.701 L1947.24 553.736 L1905.13 567.362 L1863.02 588.282 L1820.91 658.266 L1778.8 703.016 L1736.69 736.538 L1694.58 771.176 L1652.47 773.043 L1610.36 850.192 L1568.25 891.153 L1526.14 996.956  Z" fill="#e26f46" fill-rule="evenodd" fill-opacity="0.1"/>
<polyline clip-path="url(#clip761)" style="stroke:#e26f46; stroke-linecap:round; stroke-linejoin:round; stroke-width:4; stroke-opacity:1; fill:none" points="1526.14,1002.32 1568.25,965.498 1610.36,921.443 1652.47,867.531 1694.58,830.323 1736.69,813.418 1778.8,786.856 1820.91,743.008 1863.02,674.553 1905.13,648.089 1947.24,619.944 1989.35,547.33 2031.46,486.613 2073.57,430.053 2115.68,399.027 2157.79,354.209 2199.9,336.625 2242.01,289.938 2284.12,257.611 2326.23,227.917 "/>
</svg>
