<?xml version="1.0" encoding="utf-8"?>
<svg xmlns="http://www.w3.org/2000/svg" xmlns:xlink="http://www.w3.org/1999/xlink" width="600" height="400" viewBox="0 0 2400 1600">
<defs>
  <clipPath id="clip850">
    <rect x="0" y="0" width="2400" height="1600"/>
  </clipPath>
</defs>
<path clip-path="url(#clip850)" d="M0 1600 L2400 1600 L2400 0 L0 0  Z" fill="#ffffff" fill-rule="evenodd" fill-opacity="1"/>
<defs>
  <clipPath id="clip851">
    <rect x="279" y="47" width="2074" height="1377"/>
  </clipPath>
</defs>
<path clip-path="url(#clip850)" d="M279.866 1423.18 L2352.76 1423.18 L2352.76 47.2441 L279.866 47.2441  Z" fill="#ffffff" fill-rule="evenodd" fill-opacity="1"/>
<polyline clip-path="url(#clip851)" style="stroke:#000000; stroke-linecap:round; stroke-linejoin:round; stroke-width:2; stroke-opacity:0.1; fill:none" points="582.977,1423.18 582.977,47.2441 "/>
<polyline clip-path="url(#clip851)" style="stroke:#000000; stroke-linecap:round; stroke-linejoin:round; stroke-width:2; stroke-opacity:0.1; fill:none" points="949.644,1423.18 949.644,47.2441 "/>
<polyline clip-path="url(#clip851)" style="stroke:#000000; stroke-linecap:round; stroke-linejoin:round; stroke-width:2; stroke-opacity:0.1; fill:none" points="1316.31,1423.18 1316.31,47.2441 "/>
<polyline clip-path="url(#clip851)" style="stroke:#000000; stroke-linecap:round; stroke-linejoin:round; stroke-width:2; stroke-opacity:0.1; fill:none" points="1682.98,1423.18 1682.98,47.2441 "/>
<polyline clip-path="url(#clip851)" style="stroke:#000000; stroke-linecap:round; stroke-linejoin:round; stroke-width:2; stroke-opacity:0.1; fill:none" points="2049.64,1423.18 2049.64,47.2441 "/>
<polyline clip-path="url(#clip851)" style="stroke:#000000; stroke-linecap:round; stroke-linejoin:round; stroke-width:2; stroke-opacity:0.1; fill:none" points="279.866,1210.2 2352.76,1210.2 "/>
<polyline clip-path="url(#clip851)" style="stroke:#000000; stroke-linecap:round; stroke-linejoin:round; stroke-width:2; stroke-opacity:0.1; fill:none" points="279.866,968.944 2352.76,968.944 "/>
<polyline clip-path="url(#clip851)" style="stroke:#000000; stroke-linecap:round; stroke-linejoin:round; stroke-width:2; stroke-opacity:0.1; fill:none" points="279.866,727.685 2352.76,727.685 "/>
<polyline clip-path="url(#clip851)" style="stroke:#000000; stroke-linecap:round; stroke-linejoin:round; stroke-width:2; stroke-opacity:0.1; fill:none" points="279.866,486.427 2352.76,486.427 "/>
<polyline clip-path="url(#clip851)" style="stroke:#000000; stroke-linecap:round; stroke-linejoin:round; stroke-width:2; stroke-opacity:0.1; fill:none" points="279.866,245.168 2352.76,245.168 "/>
<polyline clip-path="url(#clip850)" style="stroke:#000000; stroke-linecap:round; stroke-linejoin:round; stroke-width:4; stroke-opacity:1; fill:none" points="279.866,1423.18 2352.76,1423.18 "/>
<polyline clip-path="url(#clip850)" style="stroke:#000000; stroke-linecap:round; stroke-linejoin:round; stroke-width:4; stroke-opacity:1; fill:none" points="582.977,1423.18 582.977,1404.28 "/>
<polyline clip-path="url(#clip850)" style="stroke:#000000; stroke-linecap:round; stroke-linejoin:round; stroke-width:4; stroke-opacity:1; fill:none" points="949.644,1423.18 949.644,1404.28 "/>
<polyline clip-path="url(#clip850)" style="stroke:#000000; stroke-linecap:round; stroke-linejoin:round; stroke-width:4; stroke-opacity:1; fill:none" points="1316.31,1423.18 1316.31,1404.28 "/>
<polyline clip-path="url(#clip850)" style="stroke:#000000; stroke-linecap:round; stroke-linejoin:round; stroke-width:4; stroke-opacity:1; fill:none" points="1682.98,1423.18 1682.98,1404.28 "/>
<polyline clip-path="url(#clip850)" style="stroke:#000000; stroke-linecap:round; stroke-linejoin:round; stroke-width:4; stroke-opacity:1; fill:none" points="2049.64,1423.18 2049.64,1404.28 "/>
<path clip-path="url(#clip850)" d="M587.225 1466.95 Q590.581 1467.66 592.456 1469.93 Q594.354 1472.2 594.354 1475.53 Q594.354 1480.65 590.836 1483.45 Q587.317 1486.25 580.836 1486.25 Q578.66 1486.25 576.345 1485.81 Q574.054 1485.39 571.6 1484.54 L571.6 1480.02 Q573.544 1481.16 575.859 1481.74 Q578.174 1482.32 580.697 1482.32 Q585.095 1482.32 587.387 1480.58 Q589.702 1478.84 589.702 1475.53 Q589.702 1472.48 587.549 1470.77 Q585.419 1469.03 581.6 1469.03 L577.572 1469.03 L577.572 1465.19 L581.785 1465.19 Q585.234 1465.19 587.063 1463.82 Q588.892 1462.43 588.892 1459.84 Q588.892 1457.18 586.993 1455.77 Q585.118 1454.33 581.6 1454.33 Q579.679 1454.33 577.48 1454.75 Q575.28 1455.16 572.642 1456.04 L572.642 1451.88 Q575.304 1451.14 577.618 1450.77 Q579.956 1450.39 582.017 1450.39 Q587.341 1450.39 590.442 1452.83 Q593.544 1455.23 593.544 1459.35 Q593.544 1462.22 591.901 1464.21 Q590.257 1466.18 587.225 1466.95 Z" fill="#000000" fill-rule="nonzero" fill-opacity="1" /><path clip-path="url(#clip850)" d="M950.049 1466.44 Q946.901 1466.44 945.049 1468.59 Q943.22 1470.74 943.22 1474.49 Q943.22 1478.22 945.049 1480.39 Q946.901 1482.55 950.049 1482.55 Q953.197 1482.55 955.026 1480.39 Q956.878 1478.22 956.878 1474.49 Q956.878 1470.74 955.026 1468.59 Q953.197 1466.44 950.049 1466.44 M959.332 1451.78 L959.332 1456.04 Q957.572 1455.21 955.767 1454.77 Q953.984 1454.33 952.225 1454.33 Q947.595 1454.33 945.142 1457.45 Q942.711 1460.58 942.364 1466.9 Q943.73 1464.89 945.79 1463.82 Q947.85 1462.73 950.327 1462.73 Q955.535 1462.73 958.544 1465.9 Q961.577 1469.05 961.577 1474.49 Q961.577 1479.82 958.429 1483.03 Q955.281 1486.25 950.049 1486.25 Q944.054 1486.25 940.883 1481.67 Q937.711 1477.06 937.711 1468.33 Q937.711 1460.14 941.6 1455.28 Q945.489 1450.39 952.04 1450.39 Q953.799 1450.39 955.582 1450.74 Q957.387 1451.09 959.332 1451.78 Z" fill="#000000" fill-rule="nonzero" fill-opacity="1" /><path clip-path="url(#clip850)" d="M1306.61 1484.86 L1306.61 1480.6 Q1308.37 1481.44 1310.18 1481.88 Q1311.98 1482.32 1313.72 1482.32 Q1318.35 1482.32 1320.78 1479.21 Q1323.23 1476.09 1323.58 1469.75 Q1322.24 1471.74 1320.18 1472.8 Q1318.12 1473.87 1315.62 1473.87 Q1310.43 1473.87 1307.4 1470.74 Q1304.39 1467.59 1304.39 1462.15 Q1304.39 1456.83 1307.54 1453.61 Q1310.69 1450.39 1315.92 1450.39 Q1321.91 1450.39 1325.06 1455 Q1328.23 1459.58 1328.23 1468.33 Q1328.23 1476.51 1324.34 1481.39 Q1320.48 1486.25 1313.93 1486.25 Q1312.17 1486.25 1310.36 1485.9 Q1308.56 1485.56 1306.61 1484.86 M1315.92 1470.21 Q1319.07 1470.21 1320.89 1468.06 Q1322.75 1465.9 1322.75 1462.15 Q1322.75 1458.43 1320.89 1456.27 Q1319.07 1454.1 1315.92 1454.1 Q1312.77 1454.1 1310.92 1456.27 Q1309.09 1458.43 1309.09 1462.15 Q1309.09 1465.9 1310.92 1468.06 Q1312.77 1470.21 1315.92 1470.21 Z" fill="#000000" fill-rule="nonzero" fill-opacity="1" /><path clip-path="url(#clip850)" d="M1658.46 1481.64 L1666.1 1481.64 L1666.1 1455.28 L1657.79 1456.95 L1657.79 1452.69 L1666.06 1451.02 L1670.73 1451.02 L1670.73 1481.64 L1678.37 1481.64 L1678.37 1485.58 L1658.46 1485.58 L1658.46 1481.64 Z" fill="#000000" fill-rule="nonzero" fill-opacity="1" /><path clip-path="url(#clip850)" d="M1691.84 1481.64 L1708.16 1481.64 L1708.16 1485.58 L1686.22 1485.58 L1686.22 1481.64 Q1688.88 1478.89 1693.46 1474.26 Q1698.07 1469.61 1699.25 1468.27 Q1701.5 1465.74 1702.38 1464.01 Q1703.28 1462.25 1703.28 1460.56 Q1703.28 1457.8 1701.33 1456.07 Q1699.41 1454.33 1696.31 1454.33 Q1694.11 1454.33 1691.66 1455.09 Q1689.23 1455.86 1686.45 1457.41 L1686.45 1452.69 Q1689.27 1451.55 1691.73 1450.97 Q1694.18 1450.39 1696.22 1450.39 Q1701.59 1450.39 1704.78 1453.08 Q1707.98 1455.77 1707.98 1460.26 Q1707.98 1462.39 1707.17 1464.31 Q1706.38 1466.2 1704.27 1468.8 Q1703.7 1469.47 1700.59 1472.69 Q1697.49 1475.88 1691.84 1481.64 Z" fill="#000000" fill-rule="nonzero" fill-opacity="1" /><path clip-path="url(#clip850)" d="M2024.83 1481.64 L2032.47 1481.64 L2032.47 1455.28 L2024.16 1456.95 L2024.16 1452.69 L2032.42 1451.02 L2037.1 1451.02 L2037.1 1481.64 L2044.74 1481.64 L2044.74 1485.58 L2024.83 1485.58 L2024.83 1481.64 Z" fill="#000000" fill-rule="nonzero" fill-opacity="1" /><path clip-path="url(#clip850)" d="M2054.23 1451.02 L2072.58 1451.02 L2072.58 1454.96 L2058.51 1454.96 L2058.51 1463.43 Q2059.53 1463.08 2060.55 1462.92 Q2061.57 1462.73 2062.58 1462.73 Q2068.37 1462.73 2071.75 1465.9 Q2075.13 1469.08 2075.13 1474.49 Q2075.13 1480.07 2071.66 1483.17 Q2068.19 1486.25 2061.87 1486.25 Q2059.69 1486.25 2057.42 1485.88 Q2055.18 1485.51 2052.77 1484.77 L2052.77 1480.07 Q2054.85 1481.2 2057.08 1481.76 Q2059.3 1482.32 2061.77 1482.32 Q2065.78 1482.32 2068.12 1480.21 Q2070.45 1478.1 2070.45 1474.49 Q2070.45 1470.88 2068.12 1468.77 Q2065.78 1466.67 2061.77 1466.67 Q2059.9 1466.67 2058.02 1467.08 Q2056.17 1467.5 2054.23 1468.38 L2054.23 1451.02 Z" fill="#000000" fill-rule="nonzero" fill-opacity="1" /><path clip-path="url(#clip850)" d="M1187.82 1550.25 Q1187.82 1556.71 1190.46 1560.4 Q1193.13 1564.07 1197.78 1564.07 Q1202.43 1564.07 1205.1 1560.4 Q1207.78 1556.71 1207.78 1550.25 Q1207.78 1543.79 1205.1 1540.13 Q1202.43 1536.44 1197.78 1536.44 Q1193.13 1536.44 1190.46 1540.13 Q1187.82 1543.79 1187.82 1550.25 M1207.78 1562.7 Q1205.93 1565.88 1203.1 1567.44 Q1200.3 1568.97 1196.35 1568.97 Q1189.89 1568.97 1185.81 1563.81 Q1181.77 1558.65 1181.77 1550.25 Q1181.77 1541.85 1185.81 1536.69 Q1189.89 1531.54 1196.35 1531.54 Q1200.3 1531.54 1203.1 1533.1 Q1205.93 1534.62 1207.78 1537.81 L1207.78 1532.4 L1213.63 1532.4 L1213.63 1581.6 L1207.78 1581.6 L1207.78 1562.7 Z" fill="#000000" fill-rule="nonzero" fill-opacity="1" /><path clip-path="url(#clip850)" d="M1225.09 1553.98 L1225.09 1532.4 L1230.95 1532.4 L1230.95 1553.75 Q1230.95 1558.81 1232.92 1561.36 Q1234.89 1563.87 1238.84 1563.87 Q1243.58 1563.87 1246.32 1560.85 Q1249.09 1557.83 1249.09 1552.61 L1249.09 1532.4 L1254.95 1532.4 L1254.95 1568.04 L1249.09 1568.04 L1249.09 1562.57 Q1246.96 1565.82 1244.12 1567.41 Q1241.32 1568.97 1237.6 1568.97 Q1231.46 1568.97 1228.27 1565.15 Q1225.09 1561.33 1225.09 1553.98 M1239.83 1531.54 L1239.83 1531.54 Z" fill="#000000" fill-rule="nonzero" fill-opacity="1" /><path clip-path="url(#clip850)" d="M1283.21 1550.12 Q1276.11 1550.12 1273.37 1551.75 Q1270.64 1553.37 1270.64 1557.29 Q1270.64 1560.4 1272.67 1562.25 Q1274.74 1564.07 1278.28 1564.07 Q1283.15 1564.07 1286.07 1560.63 Q1289.03 1557.16 1289.03 1551.43 L1289.03 1550.12 L1283.21 1550.12 M1294.89 1547.71 L1294.89 1568.04 L1289.03 1568.04 L1289.03 1562.63 Q1287.03 1565.88 1284.04 1567.44 Q1281.04 1568.97 1276.72 1568.97 Q1271.24 1568.97 1268 1565.91 Q1264.78 1562.82 1264.78 1557.67 Q1264.78 1551.65 1268.79 1548.6 Q1272.83 1545.54 1280.82 1545.54 L1289.03 1545.54 L1289.03 1544.97 Q1289.03 1540.93 1286.36 1538.73 Q1283.72 1536.5 1278.91 1536.5 Q1275.86 1536.5 1272.96 1537.23 Q1270.06 1537.97 1267.39 1539.43 L1267.39 1534.02 Q1270.61 1532.78 1273.63 1532.17 Q1276.65 1531.54 1279.52 1531.54 Q1287.25 1531.54 1291.07 1535.55 Q1294.89 1539.56 1294.89 1547.71 Z" fill="#000000" fill-rule="nonzero" fill-opacity="1" /><path clip-path="url(#clip850)" d="M1327.61 1537.87 Q1326.62 1537.3 1325.45 1537.04 Q1324.3 1536.76 1322.9 1536.76 Q1317.93 1536.76 1315.26 1540 Q1312.62 1543.22 1312.62 1549.27 L1312.62 1568.04 L1306.73 1568.04 L1306.73 1532.4 L1312.62 1532.4 L1312.62 1537.93 Q1314.46 1534.69 1317.42 1533.13 Q1320.38 1531.54 1324.62 1531.54 Q1325.22 1531.54 1325.95 1531.63 Q1326.69 1531.7 1327.58 1531.85 L1327.61 1537.87 Z" fill="#000000" fill-rule="nonzero" fill-opacity="1" /><path clip-path="url(#clip850)" d="M1339.55 1522.27 L1339.55 1532.4 L1351.61 1532.4 L1351.61 1536.95 L1339.55 1536.95 L1339.55 1556.3 Q1339.55 1560.66 1340.72 1561.9 Q1341.93 1563.14 1345.59 1563.14 L1351.61 1563.14 L1351.61 1568.04 L1345.59 1568.04 Q1338.81 1568.04 1336.24 1565.53 Q1333.66 1562.98 1333.66 1556.3 L1333.66 1536.95 L1329.36 1536.95 L1329.36 1532.4 L1333.66 1532.4 L1333.66 1522.27 L1339.55 1522.27 Z" fill="#000000" fill-rule="nonzero" fill-opacity="1" /><path clip-path="url(#clip850)" d="M1389.8 1548.76 L1389.8 1551.62 L1362.88 1551.62 Q1363.26 1557.67 1366.5 1560.85 Q1369.78 1564 1375.61 1564 Q1378.98 1564 1382.13 1563.17 Q1385.32 1562.35 1388.43 1560.69 L1388.43 1566.23 Q1385.28 1567.57 1381.97 1568.27 Q1378.66 1568.97 1375.26 1568.97 Q1366.73 1568.97 1361.73 1564 Q1356.76 1559.04 1356.76 1550.57 Q1356.76 1541.82 1361.48 1536.69 Q1366.22 1531.54 1374.24 1531.54 Q1381.43 1531.54 1385.6 1536.18 Q1389.8 1540.8 1389.8 1548.76 M1383.95 1547.04 Q1383.88 1542.23 1381.24 1539.37 Q1378.63 1536.5 1374.3 1536.5 Q1369.4 1536.5 1366.44 1539.27 Q1363.51 1542.04 1363.07 1547.07 L1383.95 1547.04 Z" fill="#000000" fill-rule="nonzero" fill-opacity="1" /><path clip-path="url(#clip850)" d="M1420.07 1537.87 Q1419.09 1537.3 1417.91 1537.04 Q1416.76 1536.76 1415.36 1536.76 Q1410.4 1536.76 1407.72 1540 Q1405.08 1543.22 1405.08 1549.27 L1405.08 1568.04 L1399.19 1568.04 L1399.19 1532.4 L1405.08 1532.4 L1405.08 1537.93 Q1406.93 1534.69 1409.89 1533.13 Q1412.85 1531.54 1417.08 1531.54 Q1417.68 1531.54 1418.42 1531.63 Q1419.15 1531.7 1420.04 1531.85 L1420.07 1537.87 Z" fill="#000000" fill-rule="nonzero" fill-opacity="1" /><path clip-path="url(#clip850)" d="M1448.94 1533.45 L1448.94 1538.98 Q1446.46 1537.71 1443.78 1537.07 Q1441.11 1536.44 1438.25 1536.44 Q1433.89 1536.44 1431.69 1537.77 Q1429.53 1539.11 1429.53 1541.79 Q1429.53 1543.82 1431.08 1545 Q1432.64 1546.15 1437.35 1547.2 L1439.36 1547.64 Q1445.6 1548.98 1448.21 1551.43 Q1450.85 1553.85 1450.85 1558.21 Q1450.85 1563.17 1446.9 1566.07 Q1442.99 1568.97 1436.11 1568.97 Q1433.25 1568.97 1430.13 1568.39 Q1427.04 1567.85 1423.6 1566.74 L1423.6 1560.69 Q1426.85 1562.38 1430 1563.24 Q1433.15 1564.07 1436.24 1564.07 Q1440.38 1564.07 1442.61 1562.66 Q1444.83 1561.23 1444.83 1558.65 Q1444.83 1556.27 1443.21 1554.99 Q1441.62 1553.72 1436.18 1552.54 L1434.14 1552.07 Q1428.7 1550.92 1426.28 1548.56 Q1423.86 1546.18 1423.86 1542.04 Q1423.86 1537.01 1427.42 1534.27 Q1430.99 1531.54 1437.55 1531.54 Q1440.79 1531.54 1443.66 1532.01 Q1446.52 1532.49 1448.94 1533.45 Z" fill="#000000" fill-rule="nonzero" fill-opacity="1" /><polyline clip-path="url(#clip850)" style="stroke:#000000; stroke-linecap:round; stroke-linejoin:round; stroke-width:4; stroke-opacity:1; fill:none" points="279.866,1423.18 279.866,47.2441 "/>
<polyline clip-path="url(#clip850)" style="stroke:#000000; stroke-linecap:round; stroke-linejoin:round; stroke-width:4; stroke-opacity:1; fill:none" points="279.866,1210.2 298.764,1210.2 "/>
<polyline clip-path="url(#clip850)" style="stroke:#000000; stroke-linecap:round; stroke-linejoin:round; stroke-width:4; stroke-opacity:1; fill:none" points="279.866,968.944 298.764,968.944 "/>
<polyline clip-path="url(#clip850)" style="stroke:#000000; stroke-linecap:round; stroke-linejoin:round; stroke-width:4; stroke-opacity:1; fill:none" points="279.866,727.685 298.764,727.685 "/>
<polyline clip-path="url(#clip850)" style="stroke:#000000; stroke-linecap:round; stroke-linejoin:round; stroke-width:4; stroke-opacity:1; fill:none" points="279.866,486.427 298.764,486.427 "/>
<polyline clip-path="url(#clip850)" style="stroke:#000000; stroke-linecap:round; stroke-linejoin:round; stroke-width:4; stroke-opacity:1; fill:none" points="279.866,245.168 298.764,245.168 "/>
<path clip-path="url(#clip850)" d="M126.205 1196 Q122.593 1196 120.765 1199.57 Q118.959 1203.11 118.959 1210.24 Q118.959 1217.34 120.765 1220.91 Q122.593 1224.45 126.205 1224.45 Q129.839 1224.45 131.644 1220.91 Q133.473 1217.34 133.473 1210.24 Q133.473 1203.11 131.644 1199.57 Q129.839 1196 126.205 1196 M126.205 1192.3 Q132.015 1192.3 135.07 1196.9 Q138.149 1201.49 138.149 1210.24 Q138.149 1218.96 135.07 1223.57 Q132.015 1228.15 126.205 1228.15 Q120.394 1228.15 117.316 1223.57 Q114.26 1218.96 114.26 1210.24 Q114.26 1201.49 117.316 1196.9 Q120.394 1192.3 126.205 1192.3 Z" fill="#000000" fill-rule="nonzero" fill-opacity="1" /><path clip-path="url(#clip850)" d="M146.366 1221.6 L151.251 1221.6 L151.251 1227.48 L146.366 1227.48 L146.366 1221.6 Z" fill="#000000" fill-rule="nonzero" fill-opacity="1" /><path clip-path="url(#clip850)" d="M161.575 1226.76 L161.575 1222.51 Q163.334 1223.34 165.14 1223.78 Q166.945 1224.22 168.681 1224.22 Q173.311 1224.22 175.741 1221.12 Q178.195 1217.99 178.542 1211.65 Q177.2 1213.64 175.139 1214.7 Q173.079 1215.77 170.579 1215.77 Q165.394 1215.77 162.362 1212.64 Q159.353 1209.5 159.353 1204.06 Q159.353 1198.73 162.501 1195.51 Q165.649 1192.3 170.88 1192.3 Q176.876 1192.3 180.024 1196.9 Q183.195 1201.49 183.195 1210.24 Q183.195 1218.41 179.306 1223.29 Q175.44 1228.15 168.889 1228.15 Q167.13 1228.15 165.325 1227.81 Q163.519 1227.46 161.575 1226.76 M170.88 1212.11 Q174.028 1212.11 175.857 1209.96 Q177.709 1207.81 177.709 1204.06 Q177.709 1200.33 175.857 1198.18 Q174.028 1196 170.88 1196 Q167.732 1196 165.88 1198.18 Q164.052 1200.33 164.052 1204.06 Q164.052 1207.81 165.88 1209.96 Q167.732 1212.11 170.88 1212.11 Z" fill="#000000" fill-rule="nonzero" fill-opacity="1" /><path clip-path="url(#clip850)" d="M191.737 1226.76 L191.737 1222.51 Q193.496 1223.34 195.301 1223.78 Q197.107 1224.22 198.843 1224.22 Q203.473 1224.22 205.903 1221.12 Q208.357 1217.99 208.704 1211.65 Q207.362 1213.64 205.301 1214.7 Q203.241 1215.77 200.741 1215.77 Q195.556 1215.77 192.524 1212.64 Q189.514 1209.5 189.514 1204.06 Q189.514 1198.73 192.663 1195.51 Q195.811 1192.3 201.042 1192.3 Q207.037 1192.3 210.186 1196.9 Q213.357 1201.49 213.357 1210.24 Q213.357 1218.41 209.468 1223.29 Q205.602 1228.15 199.051 1228.15 Q197.292 1228.15 195.487 1227.81 Q193.681 1227.46 191.737 1226.76 M201.042 1212.11 Q204.19 1212.11 206.019 1209.96 Q207.871 1207.81 207.871 1204.06 Q207.871 1200.33 206.019 1198.18 Q204.19 1196 201.042 1196 Q197.894 1196 196.042 1198.18 Q194.213 1200.33 194.213 1204.06 Q194.213 1207.81 196.042 1209.96 Q197.894 1212.11 201.042 1212.11 Z" fill="#000000" fill-rule="nonzero" fill-opacity="1" /><path clip-path="url(#clip850)" d="M232.338 1208.34 Q229.19 1208.34 227.338 1210.49 Q225.51 1212.64 225.51 1216.39 Q225.51 1220.12 227.338 1222.3 Q229.19 1224.45 232.338 1224.45 Q235.486 1224.45 237.315 1222.3 Q239.167 1220.12 239.167 1216.39 Q239.167 1212.64 237.315 1210.49 Q235.486 1208.34 232.338 1208.34 M241.621 1193.69 L241.621 1197.95 Q239.861 1197.11 238.056 1196.67 Q236.273 1196.23 234.514 1196.23 Q229.885 1196.23 227.431 1199.36 Q225 1202.48 224.653 1208.8 Q226.019 1206.79 228.079 1205.72 Q230.139 1204.64 232.616 1204.64 Q237.824 1204.64 240.834 1207.81 Q243.866 1210.95 243.866 1216.39 Q243.866 1221.72 240.718 1224.94 Q237.57 1228.15 232.338 1228.15 Q226.343 1228.15 223.172 1223.57 Q220 1218.96 220 1210.24 Q220 1202.04 223.889 1197.18 Q227.778 1192.3 234.329 1192.3 Q236.088 1192.3 237.871 1192.64 Q239.676 1192.99 241.621 1193.69 Z" fill="#000000" fill-rule="nonzero" fill-opacity="1" /><path clip-path="url(#clip850)" d="M126.552 954.743 Q122.941 954.743 121.112 958.307 Q119.306 961.849 119.306 968.979 Q119.306 976.085 121.112 979.65 Q122.941 983.191 126.552 983.191 Q130.186 983.191 131.992 979.65 Q133.82 976.085 133.82 968.979 Q133.82 961.849 131.992 958.307 Q130.186 954.743 126.552 954.743 M126.552 951.039 Q132.362 951.039 135.417 955.645 Q138.496 960.229 138.496 968.979 Q138.496 977.705 135.417 982.312 Q132.362 986.895 126.552 986.895 Q120.742 986.895 117.663 982.312 Q114.607 977.705 114.607 968.979 Q114.607 960.229 117.663 955.645 Q120.742 951.039 126.552 951.039 Z" fill="#000000" fill-rule="nonzero" fill-opacity="1" /><path clip-path="url(#clip850)" d="M146.714 980.344 L151.598 980.344 L151.598 986.224 L146.714 986.224 L146.714 980.344 Z" fill="#000000" fill-rule="nonzero" fill-opacity="1" /><path clip-path="url(#clip850)" d="M161.922 985.506 L161.922 981.247 Q163.681 982.08 165.487 982.52 Q167.292 982.96 169.028 982.96 Q173.658 982.96 176.089 979.858 Q178.542 976.733 178.889 970.391 Q177.547 972.381 175.487 973.446 Q173.427 974.511 170.927 974.511 Q165.741 974.511 162.709 971.386 Q159.7 968.238 159.7 962.798 Q159.7 957.474 162.848 954.256 Q165.996 951.039 171.227 951.039 Q177.223 951.039 180.371 955.645 Q183.542 960.229 183.542 968.979 Q183.542 977.15 179.653 982.034 Q175.788 986.895 169.237 986.895 Q167.477 986.895 165.672 986.548 Q163.866 986.201 161.922 985.506 M171.227 970.854 Q174.376 970.854 176.204 968.701 Q178.056 966.548 178.056 962.798 Q178.056 959.071 176.204 956.918 Q174.376 954.743 171.227 954.743 Q168.079 954.743 166.227 956.918 Q164.399 959.071 164.399 962.798 Q164.399 966.548 166.227 968.701 Q168.079 970.854 171.227 970.854 Z" fill="#000000" fill-rule="nonzero" fill-opacity="1" /><path clip-path="url(#clip850)" d="M192.084 985.506 L192.084 981.247 Q193.843 982.08 195.649 982.52 Q197.454 982.96 199.19 982.96 Q203.82 982.96 206.25 979.858 Q208.704 976.733 209.051 970.391 Q207.709 972.381 205.649 973.446 Q203.588 974.511 201.088 974.511 Q195.903 974.511 192.871 971.386 Q189.862 968.238 189.862 962.798 Q189.862 957.474 193.01 954.256 Q196.158 951.039 201.389 951.039 Q207.385 951.039 210.533 955.645 Q213.704 960.229 213.704 968.979 Q213.704 977.15 209.815 982.034 Q205.949 986.895 199.399 986.895 Q197.639 986.895 195.834 986.548 Q194.028 986.201 192.084 985.506 M201.389 970.854 Q204.537 970.854 206.366 968.701 Q208.218 966.548 208.218 962.798 Q208.218 959.071 206.366 956.918 Q204.537 954.743 201.389 954.743 Q198.241 954.743 196.389 956.918 Q194.561 959.071 194.561 962.798 Q194.561 966.548 196.389 968.701 Q198.241 970.854 201.389 970.854 Z" fill="#000000" fill-rule="nonzero" fill-opacity="1" /><path clip-path="url(#clip850)" d="M222.246 985.506 L222.246 981.247 Q224.005 982.08 225.81 982.52 Q227.616 982.96 229.352 982.96 Q233.982 982.96 236.412 979.858 Q238.866 976.733 239.213 970.391 Q237.871 972.381 235.81 973.446 Q233.75 974.511 231.25 974.511 Q226.065 974.511 223.033 971.386 Q220.023 968.238 220.023 962.798 Q220.023 957.474 223.172 954.256 Q226.32 951.039 231.551 951.039 Q237.547 951.039 240.695 955.645 Q243.866 960.229 243.866 968.979 Q243.866 977.15 239.977 982.034 Q236.111 986.895 229.56 986.895 Q227.801 986.895 225.996 986.548 Q224.19 986.201 222.246 985.506 M231.551 970.854 Q234.699 970.854 236.528 968.701 Q238.38 966.548 238.38 962.798 Q238.38 959.071 236.528 956.918 Q234.699 954.743 231.551 954.743 Q228.403 954.743 226.551 956.918 Q224.723 959.071 224.723 962.798 Q224.723 966.548 226.551 968.701 Q228.403 970.854 231.551 970.854 Z" fill="#000000" fill-rule="nonzero" fill-opacity="1" /><path clip-path="url(#clip850)" d="M118.774 741.03 L126.413 741.03 L126.413 714.665 L118.103 716.331 L118.103 712.072 L126.367 710.405 L131.042 710.405 L131.042 741.03 L138.681 741.03 L138.681 744.965 L118.774 744.965 L118.774 741.03 Z" fill="#000000" fill-rule="nonzero" fill-opacity="1" /><path clip-path="url(#clip850)" d="M148.126 739.086 L153.01 739.086 L153.01 744.965 L148.126 744.965 L148.126 739.086 Z" fill="#000000" fill-rule="nonzero" fill-opacity="1" /><path clip-path="url(#clip850)" d="M173.195 713.484 Q169.584 713.484 167.755 717.049 Q165.95 720.59 165.95 727.72 Q165.95 734.826 167.755 738.391 Q169.584 741.933 173.195 741.933 Q176.829 741.933 178.635 738.391 Q180.464 734.826 180.464 727.72 Q180.464 720.59 178.635 717.049 Q176.829 713.484 173.195 713.484 M173.195 709.78 Q179.005 709.78 182.061 714.387 Q185.139 718.97 185.139 727.72 Q185.139 736.447 182.061 741.053 Q179.005 745.637 173.195 745.637 Q167.385 745.637 164.306 741.053 Q161.251 736.447 161.251 727.72 Q161.251 718.97 164.306 714.387 Q167.385 709.78 173.195 709.78 Z" fill="#000000" fill-rule="nonzero" fill-opacity="1" /><path clip-path="url(#clip850)" d="M203.357 713.484 Q199.746 713.484 197.917 717.049 Q196.112 720.59 196.112 727.72 Q196.112 734.826 197.917 738.391 Q199.746 741.933 203.357 741.933 Q206.991 741.933 208.797 738.391 Q210.625 734.826 210.625 727.72 Q210.625 720.59 208.797 717.049 Q206.991 713.484 203.357 713.484 M203.357 709.78 Q209.167 709.78 212.223 714.387 Q215.301 718.97 215.301 727.72 Q215.301 736.447 212.223 741.053 Q209.167 745.637 203.357 745.637 Q197.547 745.637 194.468 741.053 Q191.413 736.447 191.413 727.72 Q191.413 718.97 194.468 714.387 Q197.547 709.78 203.357 709.78 Z" fill="#000000" fill-rule="nonzero" fill-opacity="1" /><path clip-path="url(#clip850)" d="M227.547 741.03 L243.866 741.03 L243.866 744.965 L221.922 744.965 L221.922 741.03 Q224.584 738.276 229.167 733.646 Q233.773 728.993 234.954 727.651 Q237.199 725.127 238.079 723.391 Q238.982 721.632 238.982 719.942 Q238.982 717.188 237.037 715.452 Q235.116 713.715 232.014 713.715 Q229.815 713.715 227.361 714.479 Q224.931 715.243 222.153 716.794 L222.153 712.072 Q224.977 710.938 227.431 710.359 Q229.885 709.78 231.922 709.78 Q237.292 709.78 240.486 712.465 Q243.681 715.151 243.681 719.641 Q243.681 721.771 242.871 723.692 Q242.084 725.59 239.977 728.183 Q239.398 728.854 236.297 732.072 Q233.195 735.266 227.547 741.03 Z" fill="#000000" fill-rule="nonzero" fill-opacity="1" /><path clip-path="url(#clip850)" d="M118.172 499.772 L125.811 499.772 L125.811 473.406 L117.501 475.073 L117.501 470.813 L125.765 469.147 L130.441 469.147 L130.441 499.772 L138.079 499.772 L138.079 503.707 L118.172 503.707 L118.172 499.772 Z" fill="#000000" fill-rule="nonzero" fill-opacity="1" /><path clip-path="url(#clip850)" d="M147.524 497.827 L152.408 497.827 L152.408 503.707 L147.524 503.707 L147.524 497.827 Z" fill="#000000" fill-rule="nonzero" fill-opacity="1" /><path clip-path="url(#clip850)" d="M172.593 472.225 Q168.982 472.225 167.153 475.79 Q165.348 479.332 165.348 486.461 Q165.348 493.568 167.153 497.133 Q168.982 500.674 172.593 500.674 Q176.227 500.674 178.033 497.133 Q179.862 493.568 179.862 486.461 Q179.862 479.332 178.033 475.79 Q176.227 472.225 172.593 472.225 M172.593 468.522 Q178.403 468.522 181.459 473.128 Q184.538 477.712 184.538 486.461 Q184.538 495.188 181.459 499.795 Q178.403 504.378 172.593 504.378 Q166.783 504.378 163.704 499.795 Q160.649 495.188 160.649 486.461 Q160.649 477.712 163.704 473.128 Q166.783 468.522 172.593 468.522 Z" fill="#000000" fill-rule="nonzero" fill-opacity="1" /><path clip-path="url(#clip850)" d="M202.755 472.225 Q199.144 472.225 197.315 475.79 Q195.51 479.332 195.51 486.461 Q195.51 493.568 197.315 497.133 Q199.144 500.674 202.755 500.674 Q206.389 500.674 208.195 497.133 Q210.024 493.568 210.024 486.461 Q210.024 479.332 208.195 475.79 Q206.389 472.225 202.755 472.225 M202.755 468.522 Q208.565 468.522 211.621 473.128 Q214.699 477.712 214.699 486.461 Q214.699 495.188 211.621 499.795 Q208.565 504.378 202.755 504.378 Q196.945 504.378 193.866 499.795 Q190.811 495.188 190.811 486.461 Q190.811 477.712 193.866 473.128 Q196.945 468.522 202.755 468.522 Z" fill="#000000" fill-rule="nonzero" fill-opacity="1" /><path clip-path="url(#clip850)" d="M222.963 469.147 L241.32 469.147 L241.32 473.082 L227.246 473.082 L227.246 481.554 Q228.264 481.207 229.283 481.045 Q230.301 480.86 231.32 480.86 Q237.107 480.86 240.486 484.031 Q243.866 487.202 243.866 492.619 Q243.866 498.198 240.394 501.299 Q236.922 504.378 230.602 504.378 Q228.426 504.378 226.158 504.008 Q223.912 503.637 221.505 502.897 L221.505 498.198 Q223.588 499.332 225.81 499.887 Q228.033 500.443 230.51 500.443 Q234.514 500.443 236.852 498.336 Q239.19 496.23 239.19 492.619 Q239.19 489.008 236.852 486.901 Q234.514 484.795 230.51 484.795 Q228.635 484.795 226.76 485.211 Q224.908 485.628 222.963 486.508 L222.963 469.147 Z" fill="#000000" fill-rule="nonzero" fill-opacity="1" /><path clip-path="url(#clip850)" d="M117.269 258.513 L124.908 258.513 L124.908 232.147 L116.598 233.814 L116.598 229.555 L124.862 227.888 L129.538 227.888 L129.538 258.513 L137.177 258.513 L137.177 262.448 L117.269 262.448 L117.269 258.513 Z" fill="#000000" fill-rule="nonzero" fill-opacity="1" /><path clip-path="url(#clip850)" d="M146.621 256.569 L151.505 256.569 L151.505 262.448 L146.621 262.448 L146.621 256.569 Z" fill="#000000" fill-rule="nonzero" fill-opacity="1" /><path clip-path="url(#clip850)" d="M171.69 230.967 Q168.079 230.967 166.251 234.532 Q164.445 238.073 164.445 245.203 Q164.445 252.309 166.251 255.874 Q168.079 259.416 171.69 259.416 Q175.325 259.416 177.13 255.874 Q178.959 252.309 178.959 245.203 Q178.959 238.073 177.13 234.532 Q175.325 230.967 171.69 230.967 M171.69 227.263 Q177.501 227.263 180.556 231.87 Q183.635 236.453 183.635 245.203 Q183.635 253.93 180.556 258.536 Q177.501 263.119 171.69 263.119 Q165.88 263.119 162.802 258.536 Q159.746 253.93 159.746 245.203 Q159.746 236.453 162.802 231.87 Q165.88 227.263 171.69 227.263 Z" fill="#000000" fill-rule="nonzero" fill-opacity="1" /><path clip-path="url(#clip850)" d="M201.852 230.967 Q198.241 230.967 196.412 234.532 Q194.607 238.073 194.607 245.203 Q194.607 252.309 196.412 255.874 Q198.241 259.416 201.852 259.416 Q205.487 259.416 207.292 255.874 Q209.121 252.309 209.121 245.203 Q209.121 238.073 207.292 234.532 Q205.487 230.967 201.852 230.967 M201.852 227.263 Q207.662 227.263 210.718 231.87 Q213.797 236.453 213.797 245.203 Q213.797 253.93 210.718 258.536 Q207.662 263.119 201.852 263.119 Q196.042 263.119 192.963 258.536 Q189.908 253.93 189.908 245.203 Q189.908 236.453 192.963 231.87 Q196.042 227.263 201.852 227.263 Z" fill="#000000" fill-rule="nonzero" fill-opacity="1" /><path clip-path="url(#clip850)" d="M232.014 246.036 Q228.681 246.036 226.76 247.819 Q224.861 249.601 224.861 252.726 Q224.861 255.851 226.76 257.633 Q228.681 259.416 232.014 259.416 Q235.347 259.416 237.269 257.633 Q239.19 255.828 239.19 252.726 Q239.19 249.601 237.269 247.819 Q235.371 246.036 232.014 246.036 M227.338 244.046 Q224.329 243.305 222.639 241.245 Q220.973 239.184 220.973 236.221 Q220.973 232.078 223.912 229.671 Q226.875 227.263 232.014 227.263 Q237.176 227.263 240.116 229.671 Q243.056 232.078 243.056 236.221 Q243.056 239.184 241.366 241.245 Q239.699 243.305 236.713 244.046 Q240.093 244.833 241.968 247.124 Q243.866 249.416 243.866 252.726 Q243.866 257.749 240.787 260.434 Q237.732 263.119 232.014 263.119 Q226.297 263.119 223.218 260.434 Q220.162 257.749 220.162 252.726 Q220.162 249.416 222.061 247.124 Q223.959 244.833 227.338 244.046 M225.625 236.661 Q225.625 239.346 227.292 240.851 Q228.982 242.356 232.014 242.356 Q235.023 242.356 236.713 240.851 Q238.426 239.346 238.426 236.661 Q238.426 233.976 236.713 232.472 Q235.023 230.967 232.014 230.967 Q228.982 230.967 227.292 232.472 Q225.625 233.976 225.625 236.661 Z" fill="#000000" fill-rule="nonzero" fill-opacity="1" /><path clip-path="url(#clip850)" d="M57.2247 896.821 L44.4614 896.821 L44.4614 907.325 L39.1779 907.325 L39.1779 890.456 L59.58 890.456 Q62.2218 894.18 63.5904 898.667 Q64.9272 903.155 64.9272 908.248 Q64.9272 919.388 58.4342 925.69 Q51.9093 931.96 40.2919 931.96 Q28.6427 931.96 22.1496 925.69 Q15.6248 919.388 15.6248 908.248 Q15.6248 903.601 16.7706 899.431 Q17.9164 895.23 20.1444 891.697 L26.9876 891.697 Q23.9639 895.262 22.4361 899.272 Q20.9083 903.283 20.9083 907.707 Q20.9083 916.428 25.7781 920.82 Q30.6479 925.181 40.2919 925.181 Q49.9041 925.181 54.7739 920.82 Q59.6436 916.428 59.6436 907.707 Q59.6436 904.301 59.0707 901.627 Q58.466 898.954 57.2247 896.821 Z" fill="#000000" fill-rule="nonzero" fill-opacity="1" /><path clip-path="url(#clip850)" d="M21.7677 872.282 L58.7206 872.282 L58.7206 864.515 Q58.7206 854.68 54.2646 850.129 Q49.8086 845.546 40.1964 845.546 Q30.6479 845.546 26.2237 850.129 Q21.7677 854.68 21.7677 864.515 L21.7677 872.282 M16.4842 878.711 L16.4842 865.502 Q16.4842 851.688 22.2451 845.227 Q27.9743 838.766 40.1964 838.766 Q52.4822 838.766 58.2432 845.259 Q64.0042 851.752 64.0042 865.502 L64.0042 878.711 L16.4842 878.711 Z" fill="#000000" fill-rule="nonzero" fill-opacity="1" /><path clip-path="url(#clip850)" d="M21.7677 822.088 L39.6235 822.088 L39.6235 814.004 Q39.6235 809.516 37.3 807.065 Q34.9765 804.614 30.6797 804.614 Q26.4147 804.614 24.0912 807.065 Q21.7677 809.516 21.7677 814.004 L21.7677 822.088 M16.4842 828.517 L16.4842 814.004 Q16.4842 806.015 20.1126 801.94 Q23.7092 797.835 30.6797 797.835 Q37.7138 797.835 41.3104 801.94 Q44.907 806.015 44.907 814.004 L44.907 822.088 L64.0042 822.088 L64.0042 828.517 L16.4842 828.517 Z" fill="#000000" fill-rule="nonzero" fill-opacity="1" /><path clip-path="url(#clip850)" d="M29.7248 743.09 L35.1993 743.09 Q33.8307 745.572 33.1623 748.087 Q32.4621 750.569 32.4621 753.116 Q32.4621 758.813 36.0905 761.964 Q39.6872 765.115 46.212 765.115 Q52.7369 765.115 56.3653 761.964 Q59.9619 758.813 59.9619 753.116 Q59.9619 750.569 59.2935 748.087 Q58.5933 745.572 57.2247 743.09 L62.6355 743.09 Q63.7814 745.54 64.3543 748.182 Q64.9272 750.792 64.9272 753.752 Q64.9272 761.805 59.8664 766.547 Q54.8057 771.29 46.212 771.29 Q37.491 771.29 32.4939 766.515 Q27.4968 761.709 27.4968 753.37 Q27.4968 750.665 28.0697 748.087 Q28.6108 745.508 29.7248 743.09 Z" fill="#000000" fill-rule="nonzero" fill-opacity="1" /><path clip-path="url(#clip850)" d="M42.4881 703.272 L64.0042 703.272 L64.0042 709.128 L42.679 709.128 Q37.6183 709.128 35.1038 711.102 Q32.5894 713.075 32.5894 717.022 Q32.5894 721.764 35.6131 724.502 Q38.6368 727.239 43.8567 727.239 L64.0042 727.239 L64.0042 733.127 L14.479 733.127 L14.479 727.239 L33.8944 727.239 Q30.6797 725.138 29.0883 722.305 Q27.4968 719.441 27.4968 715.717 Q27.4968 709.574 31.3163 706.423 Q35.1038 703.272 42.4881 703.272 Z" fill="#000000" fill-rule="nonzero" fill-opacity="1" /><path clip-path="url(#clip850)" d="M46.0847 675.39 Q46.0847 682.488 47.7079 685.225 Q49.3312 687.963 53.2461 687.963 Q56.3653 687.963 58.2114 685.925 Q60.0256 683.857 60.0256 680.324 Q60.0256 675.454 56.5881 672.526 Q53.1188 669.566 47.3897 669.566 L46.0847 669.566 L46.0847 675.39 M43.6657 663.709 L64.0042 663.709 L64.0042 669.566 L58.5933 669.566 Q61.8398 671.571 63.3994 674.563 Q64.9272 677.555 64.9272 681.883 Q64.9272 687.358 61.8716 690.604 Q58.7843 693.819 53.6281 693.819 Q47.6125 693.819 44.5569 689.809 Q41.5014 685.766 41.5014 677.777 L41.5014 669.566 L40.9285 669.566 Q36.8862 669.566 34.6901 672.239 Q32.4621 674.881 32.4621 679.687 Q32.4621 682.743 33.1941 685.639 Q33.9262 688.535 35.3903 691.209 L29.9795 691.209 Q28.7381 687.994 28.1334 684.971 Q27.4968 681.947 27.4968 679.082 Q27.4968 671.348 31.5072 667.529 Q35.5176 663.709 43.6657 663.709 Z" fill="#000000" fill-rule="nonzero" fill-opacity="1" /><path clip-path="url(#clip850)" d="M42.4881 622.014 L64.0042 622.014 L64.0042 627.87 L42.679 627.87 Q37.6183 627.87 35.1038 629.844 Q32.5894 631.817 32.5894 635.764 Q32.5894 640.506 35.6131 643.243 Q38.6368 645.981 43.8567 645.981 L64.0042 645.981 L64.0042 651.869 L28.3562 651.869 L28.3562 645.981 L33.8944 645.981 Q30.6797 643.88 29.0883 641.047 Q27.4968 638.183 27.4968 634.459 Q27.4968 628.316 31.3163 625.165 Q35.1038 622.014 42.4881 622.014 Z" fill="#000000" fill-rule="nonzero" fill-opacity="1" /><path clip-path="url(#clip850)" d="M45.7664 586.875 Q39.4007 586.875 35.8996 589.517 Q32.3984 592.127 32.3984 596.869 Q32.3984 601.58 35.8996 604.222 Q39.4007 606.832 45.7664 606.832 Q52.1003 606.832 55.6014 604.222 Q59.1026 601.58 59.1026 596.869 Q59.1026 592.127 55.6014 589.517 Q52.1003 586.875 45.7664 586.875 M59.58 581.019 Q68.683 581.019 73.1071 585.061 Q77.5631 589.103 77.5631 597.442 Q77.5631 600.53 77.0857 603.267 Q76.6401 606.004 75.6852 608.582 L69.9879 608.582 Q71.3884 606.004 72.0568 603.49 Q72.7252 600.975 72.7252 598.365 Q72.7252 592.604 69.7015 589.74 Q66.7096 586.875 60.6303 586.875 L57.7339 586.875 Q60.885 588.689 62.4446 591.522 Q64.0042 594.355 64.0042 598.302 Q64.0042 604.858 59.0071 608.869 Q54.01 612.879 45.7664 612.879 Q37.491 612.879 32.4939 608.869 Q27.4968 604.858 27.4968 598.302 Q27.4968 594.355 29.0564 591.522 Q30.616 588.689 33.7671 586.875 L28.3562 586.875 L28.3562 581.019 L59.58 581.019 Z" fill="#000000" fill-rule="nonzero" fill-opacity="1" /><path clip-path="url(#clip850)" d="M44.7161 538.464 L47.5806 538.464 L47.5806 565.391 Q53.6281 565.009 56.8109 561.762 Q59.9619 558.484 59.9619 552.659 Q59.9619 549.286 59.1344 546.135 Q58.3069 542.952 56.6518 539.833 L62.1899 539.833 Q63.5267 542.984 64.227 546.294 Q64.9272 549.604 64.9272 553.01 Q64.9272 561.54 59.9619 566.537 Q54.9967 571.502 46.5303 571.502 Q37.7774 571.502 32.6531 566.791 Q27.4968 562.049 27.4968 554.028 Q27.4968 546.835 32.1438 542.665 Q36.7589 538.464 44.7161 538.464 M42.9973 544.32 Q38.1912 544.384 35.3266 547.026 Q32.4621 549.636 32.4621 553.964 Q32.4621 558.866 35.2312 561.826 Q38.0002 564.754 43.0292 565.2 L42.9973 544.32 Z" fill="#000000" fill-rule="nonzero" fill-opacity="1" /><path clip-path="url(#clip851)" d="M338.533 888.524 L460.755 913.576 L582.977 487.222 L705.199 379.434 L827.422 478.802 L949.644 860.291 L1071.87 838.927 L1194.09 973.917 L1316.31 1020.02 L1438.53 934.225 L1560.76 851.445 L1682.98 997.291 L1805.2 1034.65 L1927.42 1141.97 L2049.64 1165.74 L2171.87 1140.07 L2294.09 1384.24 L2294.09 595.972 L2171.87 385.998 L2049.64 430.643 L1927.42 438.364 L1805.2 340.27 L1682.98 339.276 L1560.76 206.824 L1438.53 339.047 L1316.31 464.849 L1194.09 431.59 L1071.87 344.719 L949.644 434.563 L827.422 124.477 L705.199 86.1857 L582.977 248.602 L460.755 734.308 L338.533 888.524  Z" fill="#009af9" fill-rule="evenodd" fill-opacity="0.2"/>
<polyline clip-path="url(#clip851)" style="stroke:#009af9; stroke-linecap:round; stroke-linejoin:round; stroke-width:4; stroke-opacity:1; fill:none" points="338.533,888.524 460.755,823.942 582.977,367.912 705.199,232.81 827.422,301.64 949.644,647.427 1071.87,591.823 1194.09,702.753 1316.31,742.433 1438.53,636.636 1560.76,529.135 1682.98,668.284 1805.2,687.46 1927.42,790.168 2049.64,798.194 2171.87,763.037 2294.09,990.105 "/>
</svg>
