<?xml version="1.0" encoding="utf-8"?>
<svg xmlns="http://www.w3.org/2000/svg" xmlns:xlink="http://www.w3.org/1999/xlink" width="600" height="400" viewBox="0 0 2400 1600">
<defs>
  <clipPath id="clip360">
    <rect x="0" y="0" width="2400" height="1600"/>
  </clipPath>
</defs>
<path clip-path="url(#clip360)" d="M0 1600 L2400 1600 L2400 0 L0 0  Z" fill="#ffffff" fill-rule="evenodd" fill-opacity="1"/>
<defs>
  <clipPath id="clip361">
    <rect x="480" y="0" width="1681" height="1600"/>
  </clipPath>
</defs>
<path clip-path="url(#clip360)" d="M230.765 1486.45 L2352.76 1486.45 L2352.76 106.192 L230.765 106.192  Z" fill="#ffffff" fill-rule="evenodd" fill-opacity="1"/>
<defs>
  <clipPath id="clip362">
    <rect x="230" y="106" width="2123" height="1381"/>
  </clipPath>
</defs>
<polyline clip-path="url(#clip362)" style="stroke:#000000; stroke-linecap:round; stroke-linejoin:round; stroke-width:2; stroke-opacity:0.1; fill:none" points="541.056,1486.45 541.056,106.192 "/>
<polyline clip-path="url(#clip362)" style="stroke:#000000; stroke-linecap:round; stroke-linejoin:round; stroke-width:2; stroke-opacity:0.1; fill:none" points="916.408,1486.45 916.408,106.192 "/>
<polyline clip-path="url(#clip362)" style="stroke:#000000; stroke-linecap:round; stroke-linejoin:round; stroke-width:2; stroke-opacity:0.1; fill:none" points="1291.76,1486.45 1291.76,106.192 "/>
<polyline clip-path="url(#clip362)" style="stroke:#000000; stroke-linecap:round; stroke-linejoin:round; stroke-width:2; stroke-opacity:0.1; fill:none" points="1667.11,1486.45 1667.11,106.192 "/>
<polyline clip-path="url(#clip362)" style="stroke:#000000; stroke-linecap:round; stroke-linejoin:round; stroke-width:2; stroke-opacity:0.1; fill:none" points="2042.46,1486.45 2042.46,106.192 "/>
<polyline clip-path="url(#clip362)" style="stroke:#000000; stroke-linecap:round; stroke-linejoin:round; stroke-width:2; stroke-opacity:0.1; fill:none" points="230.765,1381.49 2352.76,1381.49 "/>
<polyline clip-path="url(#clip362)" style="stroke:#000000; stroke-linecap:round; stroke-linejoin:round; stroke-width:2; stroke-opacity:0.1; fill:none" points="230.765,1105.2 2352.76,1105.2 "/>
<polyline clip-path="url(#clip362)" style="stroke:#000000; stroke-linecap:round; stroke-linejoin:round; stroke-width:2; stroke-opacity:0.1; fill:none" points="230.765,828.921 2352.76,828.921 "/>
<polyline clip-path="url(#clip362)" style="stroke:#000000; stroke-linecap:round; stroke-linejoin:round; stroke-width:2; stroke-opacity:0.1; fill:none" points="230.765,552.638 2352.76,552.638 "/>
<polyline clip-path="url(#clip362)" style="stroke:#000000; stroke-linecap:round; stroke-linejoin:round; stroke-width:2; stroke-opacity:0.1; fill:none" points="230.765,276.356 2352.76,276.356 "/>
<polyline clip-path="url(#clip360)" style="stroke:#000000; stroke-linecap:round; stroke-linejoin:round; stroke-width:4; stroke-opacity:1; fill:none" points="230.765,1486.45 2352.76,1486.45 "/>
<polyline clip-path="url(#clip360)" style="stroke:#000000; stroke-linecap:round; stroke-linejoin:round; stroke-width:4; stroke-opacity:1; fill:none" points="541.056,1486.45 541.056,1467.55 "/>
<polyline clip-path="url(#clip360)" style="stroke:#000000; stroke-linecap:round; stroke-linejoin:round; stroke-width:4; stroke-opacity:1; fill:none" points="916.408,1486.45 916.408,1467.55 "/>
<polyline clip-path="url(#clip360)" style="stroke:#000000; stroke-linecap:round; stroke-linejoin:round; stroke-width:4; stroke-opacity:1; fill:none" points="1291.76,1486.45 1291.76,1467.55 "/>
<polyline clip-path="url(#clip360)" style="stroke:#000000; stroke-linecap:round; stroke-linejoin:round; stroke-width:4; stroke-opacity:1; fill:none" points="1667.11,1486.45 1667.11,1467.55 "/>
<polyline clip-path="url(#clip360)" style="stroke:#000000; stroke-linecap:round; stroke-linejoin:round; stroke-width:4; stroke-opacity:1; fill:none" points="2042.46,1486.45 2042.46,1467.55 "/>
<path clip-path="url(#clip360)" d="M545.303 1530.21 Q548.66 1530.93 550.535 1533.2 Q552.433 1535.47 552.433 1538.8 Q552.433 1543.92 548.914 1546.72 Q545.396 1549.52 538.915 1549.52 Q536.739 1549.52 534.424 1549.08 Q532.132 1548.66 529.678 1547.81 L529.678 1543.29 Q531.623 1544.43 533.938 1545.01 Q536.252 1545.58 538.776 1545.58 Q543.174 1545.58 545.465 1543.85 Q547.78 1542.11 547.78 1538.8 Q547.78 1535.75 545.627 1534.03 Q543.498 1532.3 539.678 1532.3 L535.651 1532.3 L535.651 1528.45 L539.864 1528.45 Q543.313 1528.45 545.141 1527.09 Q546.97 1525.7 546.97 1523.11 Q546.97 1520.45 545.072 1519.03 Q543.197 1517.6 539.678 1517.6 Q537.757 1517.6 535.558 1518.01 Q533.359 1518.43 530.72 1519.31 L530.72 1515.14 Q533.382 1514.4 535.697 1514.03 Q538.035 1513.66 540.095 1513.66 Q545.419 1513.66 548.521 1516.09 Q551.623 1518.5 551.623 1522.62 Q551.623 1525.49 549.979 1527.48 Q548.336 1529.45 545.303 1530.21 Z" fill="#000000" fill-rule="nonzero" fill-opacity="1" /><path clip-path="url(#clip360)" d="M916.813 1529.7 Q913.665 1529.7 911.813 1531.86 Q909.984 1534.01 909.984 1537.76 Q909.984 1541.49 911.813 1543.66 Q913.665 1545.82 916.813 1545.82 Q919.961 1545.82 921.79 1543.66 Q923.642 1541.49 923.642 1537.76 Q923.642 1534.01 921.79 1531.86 Q919.961 1529.7 916.813 1529.7 M926.095 1515.05 L926.095 1519.31 Q924.336 1518.48 922.531 1518.04 Q920.748 1517.6 918.989 1517.6 Q914.359 1517.6 911.906 1520.72 Q909.475 1523.85 909.128 1530.17 Q910.494 1528.15 912.554 1527.09 Q914.614 1526 917.091 1526 Q922.299 1526 925.308 1529.17 Q928.341 1532.32 928.341 1537.76 Q928.341 1543.08 925.193 1546.3 Q922.044 1549.52 916.813 1549.52 Q910.818 1549.52 907.646 1544.94 Q904.475 1540.33 904.475 1531.6 Q904.475 1523.41 908.364 1518.55 Q912.253 1513.66 918.804 1513.66 Q920.563 1513.66 922.345 1514.01 Q924.151 1514.36 926.095 1515.05 Z" fill="#000000" fill-rule="nonzero" fill-opacity="1" /><path clip-path="url(#clip360)" d="M1282.06 1548.13 L1282.06 1543.87 Q1283.82 1544.7 1285.63 1545.14 Q1287.43 1545.58 1289.17 1545.58 Q1293.8 1545.58 1296.23 1542.48 Q1298.68 1539.36 1299.03 1533.01 Q1297.69 1535.01 1295.63 1536.07 Q1293.57 1537.13 1291.07 1537.13 Q1285.88 1537.13 1282.85 1534.01 Q1279.84 1530.86 1279.84 1525.42 Q1279.84 1520.1 1282.99 1516.88 Q1286.14 1513.66 1291.37 1513.66 Q1297.36 1513.66 1300.51 1518.27 Q1303.68 1522.85 1303.68 1531.6 Q1303.68 1539.77 1299.79 1544.66 Q1295.93 1549.52 1289.38 1549.52 Q1287.62 1549.52 1285.81 1549.17 Q1284.01 1548.82 1282.06 1548.13 M1291.37 1533.48 Q1294.51 1533.48 1296.34 1531.32 Q1298.2 1529.17 1298.2 1525.42 Q1298.2 1521.7 1296.34 1519.54 Q1294.51 1517.37 1291.37 1517.37 Q1288.22 1517.37 1286.37 1519.54 Q1284.54 1521.7 1284.54 1525.42 Q1284.54 1529.17 1286.37 1531.32 Q1288.22 1533.48 1291.37 1533.48 Z" fill="#000000" fill-rule="nonzero" fill-opacity="1" /><path clip-path="url(#clip360)" d="M1642.6 1544.91 L1650.24 1544.91 L1650.24 1518.55 L1641.93 1520.21 L1641.93 1515.95 L1650.19 1514.29 L1654.87 1514.29 L1654.87 1544.91 L1662.51 1544.91 L1662.51 1548.85 L1642.6 1548.85 L1642.6 1544.91 Z" fill="#000000" fill-rule="nonzero" fill-opacity="1" /><path clip-path="url(#clip360)" d="M1675.98 1544.91 L1692.3 1544.91 L1692.3 1548.85 L1670.35 1548.85 L1670.35 1544.91 Q1673.02 1542.16 1677.6 1537.53 Q1682.2 1532.88 1683.39 1531.53 Q1685.63 1529.01 1686.51 1527.27 Q1687.41 1525.51 1687.41 1523.82 Q1687.41 1521.07 1685.47 1519.33 Q1683.55 1517.6 1680.45 1517.6 Q1678.25 1517.6 1675.79 1518.36 Q1673.36 1519.13 1670.58 1520.68 L1670.58 1515.95 Q1673.41 1514.82 1675.86 1514.24 Q1678.32 1513.66 1680.35 1513.66 Q1685.72 1513.66 1688.92 1516.35 Q1692.11 1519.03 1692.11 1523.52 Q1692.11 1525.65 1691.3 1527.57 Q1690.52 1529.47 1688.41 1532.07 Q1687.83 1532.74 1684.73 1535.95 Q1681.63 1539.15 1675.98 1544.91 Z" fill="#000000" fill-rule="nonzero" fill-opacity="1" /><path clip-path="url(#clip360)" d="M2017.65 1544.91 L2025.29 1544.91 L2025.29 1518.55 L2016.98 1520.21 L2016.98 1515.95 L2025.24 1514.29 L2029.92 1514.29 L2029.92 1544.91 L2037.56 1544.91 L2037.56 1548.85 L2017.65 1548.85 L2017.65 1544.91 Z" fill="#000000" fill-rule="nonzero" fill-opacity="1" /><path clip-path="url(#clip360)" d="M2047.05 1514.29 L2065.4 1514.29 L2065.4 1518.22 L2051.33 1518.22 L2051.33 1526.7 Q2052.35 1526.35 2053.37 1526.19 Q2054.39 1526 2055.4 1526 Q2061.19 1526 2064.57 1529.17 Q2067.95 1532.34 2067.95 1537.76 Q2067.95 1543.34 2064.48 1546.44 Q2061.01 1549.52 2054.69 1549.52 Q2052.51 1549.52 2050.24 1549.15 Q2048 1548.78 2045.59 1548.04 L2045.59 1543.34 Q2047.67 1544.47 2049.9 1545.03 Q2052.12 1545.58 2054.59 1545.58 Q2058.6 1545.58 2060.94 1543.48 Q2063.27 1541.37 2063.27 1537.76 Q2063.27 1534.15 2060.94 1532.04 Q2058.6 1529.94 2054.59 1529.94 Q2052.72 1529.94 2050.84 1530.35 Q2048.99 1530.77 2047.05 1531.65 L2047.05 1514.29 Z" fill="#000000" fill-rule="nonzero" fill-opacity="1" /><polyline clip-path="url(#clip360)" style="stroke:#000000; stroke-linecap:round; stroke-linejoin:round; stroke-width:4; stroke-opacity:1; fill:none" points="230.765,1486.45 230.765,106.192 "/>
<polyline clip-path="url(#clip360)" style="stroke:#000000; stroke-linecap:round; stroke-linejoin:round; stroke-width:4; stroke-opacity:1; fill:none" points="230.765,1381.49 249.662,1381.49 "/>
<polyline clip-path="url(#clip360)" style="stroke:#000000; stroke-linecap:round; stroke-linejoin:round; stroke-width:4; stroke-opacity:1; fill:none" points="230.765,1105.2 249.662,1105.2 "/>
<polyline clip-path="url(#clip360)" style="stroke:#000000; stroke-linecap:round; stroke-linejoin:round; stroke-width:4; stroke-opacity:1; fill:none" points="230.765,828.921 249.662,828.921 "/>
<polyline clip-path="url(#clip360)" style="stroke:#000000; stroke-linecap:round; stroke-linejoin:round; stroke-width:4; stroke-opacity:1; fill:none" points="230.765,552.638 249.662,552.638 "/>
<polyline clip-path="url(#clip360)" style="stroke:#000000; stroke-linecap:round; stroke-linejoin:round; stroke-width:4; stroke-opacity:1; fill:none" points="230.765,276.356 249.662,276.356 "/>
<path clip-path="url(#clip360)" d="M50.9921 1364.21 L73.2142 1364.21 L73.2142 1366.2 L60.668 1398.77 L55.7838 1398.77 L67.5893 1368.14 L50.9921 1368.14 L50.9921 1364.21 Z" fill="#000000" fill-rule="nonzero" fill-opacity="1" /><path clip-path="url(#clip360)" d="M86.3623 1394.83 L102.682 1394.83 L102.682 1398.77 L80.7373 1398.77 L80.7373 1394.83 Q83.3994 1392.08 87.9827 1387.45 Q92.5891 1382.79 93.7697 1381.45 Q96.015 1378.93 96.8947 1377.19 Q97.7974 1375.43 97.7974 1373.74 Q97.7974 1370.99 95.853 1369.25 Q93.9317 1367.52 90.8299 1367.52 Q88.6308 1367.52 86.1771 1368.28 Q83.7466 1369.04 80.9688 1370.59 L80.9688 1365.87 Q83.7929 1364.74 86.2466 1364.16 Q88.7003 1363.58 90.7373 1363.58 Q96.1076 1363.58 99.3021 1366.27 Q102.496 1368.95 102.496 1373.44 Q102.496 1375.57 101.686 1377.49 Q100.899 1379.39 98.7928 1381.98 Q98.2141 1382.65 95.1123 1385.87 Q92.0104 1389.07 86.3623 1394.83 Z" fill="#000000" fill-rule="nonzero" fill-opacity="1" /><path clip-path="url(#clip360)" d="M122.496 1367.28 Q118.885 1367.28 117.057 1370.85 Q115.251 1374.39 115.251 1381.52 Q115.251 1388.63 117.057 1392.19 Q118.885 1395.73 122.496 1395.73 Q126.131 1395.73 127.936 1392.19 Q129.765 1388.63 129.765 1381.52 Q129.765 1374.39 127.936 1370.85 Q126.131 1367.28 122.496 1367.28 M122.496 1363.58 Q128.307 1363.58 131.362 1368.19 Q134.441 1372.77 134.441 1381.52 Q134.441 1390.25 131.362 1394.85 Q128.307 1399.44 122.496 1399.44 Q116.686 1399.44 113.608 1394.85 Q110.552 1390.25 110.552 1381.52 Q110.552 1372.77 113.608 1368.19 Q116.686 1363.58 122.496 1363.58 Z" fill="#000000" fill-rule="nonzero" fill-opacity="1" /><path clip-path="url(#clip360)" d="M152.658 1367.28 Q149.047 1367.28 147.218 1370.85 Q145.413 1374.39 145.413 1381.52 Q145.413 1388.63 147.218 1392.19 Q149.047 1395.73 152.658 1395.73 Q156.292 1395.73 158.098 1392.19 Q159.927 1388.63 159.927 1381.52 Q159.927 1374.39 158.098 1370.85 Q156.292 1367.28 152.658 1367.28 M152.658 1363.58 Q158.468 1363.58 161.524 1368.19 Q164.603 1372.77 164.603 1381.52 Q164.603 1390.25 161.524 1394.85 Q158.468 1399.44 152.658 1399.44 Q146.848 1399.44 143.769 1394.85 Q140.714 1390.25 140.714 1381.52 Q140.714 1372.77 143.769 1368.19 Q146.848 1363.58 152.658 1363.58 Z" fill="#000000" fill-rule="nonzero" fill-opacity="1" /><path clip-path="url(#clip360)" d="M182.82 1367.28 Q179.209 1367.28 177.38 1370.85 Q175.575 1374.39 175.575 1381.52 Q175.575 1388.63 177.38 1392.19 Q179.209 1395.73 182.82 1395.73 Q186.454 1395.73 188.26 1392.19 Q190.089 1388.63 190.089 1381.52 Q190.089 1374.39 188.26 1370.85 Q186.454 1367.28 182.82 1367.28 M182.82 1363.58 Q188.63 1363.58 191.686 1368.19 Q194.765 1372.77 194.765 1381.52 Q194.765 1390.25 191.686 1394.85 Q188.63 1399.44 182.82 1399.44 Q177.01 1399.44 173.931 1394.85 Q170.876 1390.25 170.876 1381.52 Q170.876 1372.77 173.931 1368.19 Q177.01 1363.58 182.82 1363.58 Z" fill="#000000" fill-rule="nonzero" fill-opacity="1" /><path clip-path="url(#clip360)" d="M50.9921 1087.92 L73.2142 1087.92 L73.2142 1089.91 L60.668 1122.48 L55.7838 1122.48 L67.5893 1091.86 L50.9921 1091.86 L50.9921 1087.92 Z" fill="#000000" fill-rule="nonzero" fill-opacity="1" /><path clip-path="url(#clip360)" d="M86.3623 1118.55 L102.682 1118.55 L102.682 1122.48 L80.7373 1122.48 L80.7373 1118.55 Q83.3994 1115.79 87.9827 1111.16 Q92.5891 1106.51 93.7697 1105.17 Q96.015 1102.65 96.8947 1100.91 Q97.7974 1099.15 97.7974 1097.46 Q97.7974 1094.71 95.853 1092.97 Q93.9317 1091.23 90.8299 1091.23 Q88.6308 1091.23 86.1771 1092 Q83.7466 1092.76 80.9688 1094.31 L80.9688 1089.59 Q83.7929 1088.46 86.2466 1087.88 Q88.7003 1087.3 90.7373 1087.3 Q96.1076 1087.3 99.3021 1089.98 Q102.496 1092.67 102.496 1097.16 Q102.496 1099.29 101.686 1101.21 Q100.899 1103.11 98.7928 1105.7 Q98.2141 1106.37 95.1123 1109.59 Q92.0104 1112.78 86.3623 1118.55 Z" fill="#000000" fill-rule="nonzero" fill-opacity="1" /><path clip-path="url(#clip360)" d="M112.543 1087.92 L130.899 1087.92 L130.899 1091.86 L116.825 1091.86 L116.825 1100.33 Q117.844 1099.98 118.862 1099.82 Q119.881 1099.64 120.899 1099.64 Q126.686 1099.64 130.066 1102.81 Q133.445 1105.98 133.445 1111.4 Q133.445 1116.97 129.973 1120.08 Q126.501 1123.15 120.182 1123.15 Q118.006 1123.15 115.737 1122.78 Q113.492 1122.41 111.084 1121.67 L111.084 1116.97 Q113.168 1118.11 115.39 1118.66 Q117.612 1119.22 120.089 1119.22 Q124.094 1119.22 126.432 1117.11 Q128.769 1115.01 128.769 1111.4 Q128.769 1107.78 126.432 1105.68 Q124.094 1103.57 120.089 1103.57 Q118.214 1103.57 116.339 1103.99 Q114.487 1104.4 112.543 1105.28 L112.543 1087.92 Z" fill="#000000" fill-rule="nonzero" fill-opacity="1" /><path clip-path="url(#clip360)" d="M152.658 1091 Q149.047 1091 147.218 1094.57 Q145.413 1098.11 145.413 1105.24 Q145.413 1112.34 147.218 1115.91 Q149.047 1119.45 152.658 1119.45 Q156.292 1119.45 158.098 1115.91 Q159.927 1112.34 159.927 1105.24 Q159.927 1098.11 158.098 1094.57 Q156.292 1091 152.658 1091 M152.658 1087.3 Q158.468 1087.3 161.524 1091.9 Q164.603 1096.49 164.603 1105.24 Q164.603 1113.96 161.524 1118.57 Q158.468 1123.15 152.658 1123.15 Q146.848 1123.15 143.769 1118.57 Q140.714 1113.96 140.714 1105.24 Q140.714 1096.49 143.769 1091.9 Q146.848 1087.3 152.658 1087.3 Z" fill="#000000" fill-rule="nonzero" fill-opacity="1" /><path clip-path="url(#clip360)" d="M182.82 1091 Q179.209 1091 177.38 1094.57 Q175.575 1098.11 175.575 1105.24 Q175.575 1112.34 177.38 1115.91 Q179.209 1119.45 182.82 1119.45 Q186.454 1119.45 188.26 1115.91 Q190.089 1112.34 190.089 1105.24 Q190.089 1098.11 188.26 1094.57 Q186.454 1091 182.82 1091 M182.82 1087.3 Q188.63 1087.3 191.686 1091.9 Q194.765 1096.49 194.765 1105.24 Q194.765 1113.96 191.686 1118.57 Q188.63 1123.15 182.82 1123.15 Q177.01 1123.15 173.931 1118.57 Q170.876 1113.96 170.876 1105.24 Q170.876 1096.49 173.931 1091.9 Q177.01 1087.3 182.82 1087.3 Z" fill="#000000" fill-rule="nonzero" fill-opacity="1" /><path clip-path="url(#clip360)" d="M50.9921 811.641 L73.2142 811.641 L73.2142 813.631 L60.668 846.201 L55.7838 846.201 L67.5893 815.576 L50.9921 815.576 L50.9921 811.641 Z" fill="#000000" fill-rule="nonzero" fill-opacity="1" /><path clip-path="url(#clip360)" d="M96.5011 827.567 Q99.8576 828.284 101.733 830.553 Q103.631 832.821 103.631 836.154 Q103.631 841.27 100.112 844.071 Q96.5937 846.872 90.1123 846.872 Q87.9364 846.872 85.6216 846.432 Q83.3299 846.016 80.8762 845.159 L80.8762 840.645 Q82.8207 841.779 85.1355 842.358 Q87.4503 842.937 89.9734 842.937 Q94.3715 842.937 96.6632 841.201 Q98.978 839.465 98.978 836.154 Q98.978 833.099 96.8252 831.386 Q94.6956 829.65 90.8762 829.65 L86.8484 829.65 L86.8484 825.807 L91.0614 825.807 Q94.5104 825.807 96.3391 824.442 Q98.1678 823.053 98.1678 820.46 Q98.1678 817.798 96.2697 816.386 Q94.3947 814.951 90.8762 814.951 Q88.9549 814.951 86.7558 815.368 Q84.5568 815.784 81.9179 816.664 L81.9179 812.497 Q84.5799 811.756 86.8947 811.386 Q89.2327 811.016 91.2928 811.016 Q96.6169 811.016 99.7187 813.446 Q102.821 815.854 102.821 819.974 Q102.821 822.844 101.177 824.835 Q99.5335 826.803 96.5011 827.567 Z" fill="#000000" fill-rule="nonzero" fill-opacity="1" /><path clip-path="url(#clip360)" d="M122.496 814.719 Q118.885 814.719 117.057 818.284 Q115.251 821.826 115.251 828.955 Q115.251 836.062 117.057 839.627 Q118.885 843.168 122.496 843.168 Q126.131 843.168 127.936 839.627 Q129.765 836.062 129.765 828.955 Q129.765 821.826 127.936 818.284 Q126.131 814.719 122.496 814.719 M122.496 811.016 Q128.307 811.016 131.362 815.622 Q134.441 820.205 134.441 828.955 Q134.441 837.682 131.362 842.289 Q128.307 846.872 122.496 846.872 Q116.686 846.872 113.608 842.289 Q110.552 837.682 110.552 828.955 Q110.552 820.205 113.608 815.622 Q116.686 811.016 122.496 811.016 Z" fill="#000000" fill-rule="nonzero" fill-opacity="1" /><path clip-path="url(#clip360)" d="M152.658 814.719 Q149.047 814.719 147.218 818.284 Q145.413 821.826 145.413 828.955 Q145.413 836.062 147.218 839.627 Q149.047 843.168 152.658 843.168 Q156.292 843.168 158.098 839.627 Q159.927 836.062 159.927 828.955 Q159.927 821.826 158.098 818.284 Q156.292 814.719 152.658 814.719 M152.658 811.016 Q158.468 811.016 161.524 815.622 Q164.603 820.205 164.603 828.955 Q164.603 837.682 161.524 842.289 Q158.468 846.872 152.658 846.872 Q146.848 846.872 143.769 842.289 Q140.714 837.682 140.714 828.955 Q140.714 820.205 143.769 815.622 Q146.848 811.016 152.658 811.016 Z" fill="#000000" fill-rule="nonzero" fill-opacity="1" /><path clip-path="url(#clip360)" d="M182.82 814.719 Q179.209 814.719 177.38 818.284 Q175.575 821.826 175.575 828.955 Q175.575 836.062 177.38 839.627 Q179.209 843.168 182.82 843.168 Q186.454 843.168 188.26 839.627 Q190.089 836.062 190.089 828.955 Q190.089 821.826 188.26 818.284 Q186.454 814.719 182.82 814.719 M182.82 811.016 Q188.63 811.016 191.686 815.622 Q194.765 820.205 194.765 828.955 Q194.765 837.682 191.686 842.289 Q188.63 846.872 182.82 846.872 Q177.01 846.872 173.931 842.289 Q170.876 837.682 170.876 828.955 Q170.876 820.205 173.931 815.622 Q177.01 811.016 182.82 811.016 Z" fill="#000000" fill-rule="nonzero" fill-opacity="1" /><path clip-path="url(#clip360)" d="M50.9921 535.358 L73.2142 535.358 L73.2142 537.349 L60.668 569.918 L55.7838 569.918 L67.5893 539.293 L50.9921 539.293 L50.9921 535.358 Z" fill="#000000" fill-rule="nonzero" fill-opacity="1" /><path clip-path="url(#clip360)" d="M96.5011 551.284 Q99.8576 552.002 101.733 554.27 Q103.631 556.539 103.631 559.872 Q103.631 564.988 100.112 567.789 Q96.5937 570.59 90.1123 570.59 Q87.9364 570.59 85.6216 570.15 Q83.3299 569.733 80.8762 568.877 L80.8762 564.363 Q82.8207 565.497 85.1355 566.076 Q87.4503 566.654 89.9734 566.654 Q94.3715 566.654 96.6632 564.918 Q98.978 563.182 98.978 559.872 Q98.978 556.817 96.8252 555.104 Q94.6956 553.367 90.8762 553.367 L86.8484 553.367 L86.8484 549.525 L91.0614 549.525 Q94.5104 549.525 96.3391 548.159 Q98.1678 546.77 98.1678 544.178 Q98.1678 541.516 96.2697 540.104 Q94.3947 538.668 90.8762 538.668 Q88.9549 538.668 86.7558 539.085 Q84.5568 539.502 81.9179 540.381 L81.9179 536.215 Q84.5799 535.474 86.8947 535.104 Q89.2327 534.733 91.2928 534.733 Q96.6169 534.733 99.7187 537.164 Q102.821 539.571 102.821 543.692 Q102.821 546.562 101.177 548.553 Q99.5335 550.52 96.5011 551.284 Z" fill="#000000" fill-rule="nonzero" fill-opacity="1" /><path clip-path="url(#clip360)" d="M112.543 535.358 L130.899 535.358 L130.899 539.293 L116.825 539.293 L116.825 547.766 Q117.844 547.418 118.862 547.256 Q119.881 547.071 120.899 547.071 Q126.686 547.071 130.066 550.242 Q133.445 553.414 133.445 558.83 Q133.445 564.409 129.973 567.511 Q126.501 570.59 120.182 570.59 Q118.006 570.59 115.737 570.219 Q113.492 569.849 111.084 569.108 L111.084 564.409 Q113.168 565.543 115.39 566.099 Q117.612 566.654 120.089 566.654 Q124.094 566.654 126.432 564.548 Q128.769 562.441 128.769 558.83 Q128.769 555.219 126.432 553.113 Q124.094 551.006 120.089 551.006 Q118.214 551.006 116.339 551.423 Q114.487 551.84 112.543 552.719 L112.543 535.358 Z" fill="#000000" fill-rule="nonzero" fill-opacity="1" /><path clip-path="url(#clip360)" d="M152.658 538.437 Q149.047 538.437 147.218 542.002 Q145.413 545.543 145.413 552.673 Q145.413 559.779 147.218 563.344 Q149.047 566.886 152.658 566.886 Q156.292 566.886 158.098 563.344 Q159.927 559.779 159.927 552.673 Q159.927 545.543 158.098 542.002 Q156.292 538.437 152.658 538.437 M152.658 534.733 Q158.468 534.733 161.524 539.34 Q164.603 543.923 164.603 552.673 Q164.603 561.4 161.524 566.006 Q158.468 570.59 152.658 570.59 Q146.848 570.59 143.769 566.006 Q140.714 561.4 140.714 552.673 Q140.714 543.923 143.769 539.34 Q146.848 534.733 152.658 534.733 Z" fill="#000000" fill-rule="nonzero" fill-opacity="1" /><path clip-path="url(#clip360)" d="M182.82 538.437 Q179.209 538.437 177.38 542.002 Q175.575 545.543 175.575 552.673 Q175.575 559.779 177.38 563.344 Q179.209 566.886 182.82 566.886 Q186.454 566.886 188.26 563.344 Q190.089 559.779 190.089 552.673 Q190.089 545.543 188.26 542.002 Q186.454 538.437 182.82 538.437 M182.82 534.733 Q188.63 534.733 191.686 539.34 Q194.765 543.923 194.765 552.673 Q194.765 561.4 191.686 566.006 Q188.63 570.59 182.82 570.59 Q177.01 570.59 173.931 566.006 Q170.876 561.4 170.876 552.673 Q170.876 543.923 173.931 539.34 Q177.01 534.733 182.82 534.733 Z" fill="#000000" fill-rule="nonzero" fill-opacity="1" /><path clip-path="url(#clip360)" d="M50.9921 259.076 L73.2142 259.076 L73.2142 261.067 L60.668 293.636 L55.7838 293.636 L67.5893 263.011 L50.9921 263.011 L50.9921 259.076 Z" fill="#000000" fill-rule="nonzero" fill-opacity="1" /><path clip-path="url(#clip360)" d="M95.1817 263.15 L83.3762 281.599 L95.1817 281.599 L95.1817 263.15 M93.9549 259.076 L99.8345 259.076 L99.8345 281.599 L104.765 281.599 L104.765 285.488 L99.8345 285.488 L99.8345 293.636 L95.1817 293.636 L95.1817 285.488 L79.5799 285.488 L79.5799 280.974 L93.9549 259.076 Z" fill="#000000" fill-rule="nonzero" fill-opacity="1" /><path clip-path="url(#clip360)" d="M122.496 262.155 Q118.885 262.155 117.057 265.719 Q115.251 269.261 115.251 276.391 Q115.251 283.497 117.057 287.062 Q118.885 290.603 122.496 290.603 Q126.131 290.603 127.936 287.062 Q129.765 283.497 129.765 276.391 Q129.765 269.261 127.936 265.719 Q126.131 262.155 122.496 262.155 M122.496 258.451 Q128.307 258.451 131.362 263.057 Q134.441 267.641 134.441 276.391 Q134.441 285.117 131.362 289.724 Q128.307 294.307 122.496 294.307 Q116.686 294.307 113.608 289.724 Q110.552 285.117 110.552 276.391 Q110.552 267.641 113.608 263.057 Q116.686 258.451 122.496 258.451 Z" fill="#000000" fill-rule="nonzero" fill-opacity="1" /><path clip-path="url(#clip360)" d="M152.658 262.155 Q149.047 262.155 147.218 265.719 Q145.413 269.261 145.413 276.391 Q145.413 283.497 147.218 287.062 Q149.047 290.603 152.658 290.603 Q156.292 290.603 158.098 287.062 Q159.927 283.497 159.927 276.391 Q159.927 269.261 158.098 265.719 Q156.292 262.155 152.658 262.155 M152.658 258.451 Q158.468 258.451 161.524 263.057 Q164.603 267.641 164.603 276.391 Q164.603 285.117 161.524 289.724 Q158.468 294.307 152.658 294.307 Q146.848 294.307 143.769 289.724 Q140.714 285.117 140.714 276.391 Q140.714 267.641 143.769 263.057 Q146.848 258.451 152.658 258.451 Z" fill="#000000" fill-rule="nonzero" fill-opacity="1" /><path clip-path="url(#clip360)" d="M182.82 262.155 Q179.209 262.155 177.38 265.719 Q175.575 269.261 175.575 276.391 Q175.575 283.497 177.38 287.062 Q179.209 290.603 182.82 290.603 Q186.454 290.603 188.26 287.062 Q190.089 283.497 190.089 276.391 Q190.089 269.261 188.26 265.719 Q186.454 262.155 182.82 262.155 M182.82 258.451 Q188.63 258.451 191.686 263.057 Q194.765 267.641 194.765 276.391 Q194.765 285.117 191.686 289.724 Q188.63 294.307 182.82 294.307 Q177.01 294.307 173.931 289.724 Q170.876 285.117 170.876 276.391 Q170.876 267.641 173.931 263.057 Q177.01 258.451 182.82 258.451 Z" fill="#000000" fill-rule="nonzero" fill-opacity="1" /><path clip-path="url(#clip360)" d="M1262.23 35.2602 Q1262.23 29.4732 1259.83 26.2904 Q1257.46 23.1075 1253.15 23.1075 Q1248.86 23.1075 1246.46 26.2904 Q1244.09 29.4732 1244.09 35.2602 Q1244.09 41.0183 1246.46 44.2012 Q1248.86 47.384 1253.15 47.384 Q1257.46 47.384 1259.83 44.2012 Q1262.23 41.0183 1262.23 35.2602 M1267.56 47.818 Q1267.56 56.0934 1263.88 60.1154 Q1260.21 64.1663 1252.63 64.1663 Q1249.82 64.1663 1247.33 63.7323 Q1244.84 63.3272 1242.5 62.4592 L1242.5 57.2798 Q1244.84 58.5529 1247.13 59.1606 Q1249.41 59.7682 1251.79 59.7682 Q1257.02 59.7682 1259.63 57.0194 Q1262.23 54.2995 1262.23 48.7729 L1262.23 46.1398 Q1260.58 49.0044 1258.01 50.4222 Q1255.43 51.84 1251.84 51.84 Q1245.88 51.84 1242.24 47.2972 Q1238.59 42.7544 1238.59 35.2602 Q1238.59 27.7371 1242.24 23.1943 Q1245.88 18.6515 1251.84 18.6515 Q1255.43 18.6515 1258.01 20.0693 Q1260.58 21.4872 1262.23 24.3517 L1262.23 19.4328 L1267.56 19.4328 L1267.56 47.818 Z" fill="#000000" fill-rule="nonzero" fill-opacity="1" /><path clip-path="url(#clip360)" d="M1299.85 24.3517 L1299.85 6.81709 L1305.17 6.81709 L1305.17 51.84 L1299.85 51.84 L1299.85 46.9789 Q1298.17 49.8724 1295.59 51.2902 Q1293.05 52.6791 1289.46 52.6791 Q1283.59 52.6791 1279.88 47.9916 Q1276.21 43.3042 1276.21 35.6653 Q1276.21 28.0265 1279.88 23.339 Q1283.59 18.6515 1289.46 18.6515 Q1293.05 18.6515 1295.59 20.0693 Q1298.17 21.4582 1299.85 24.3517 M1281.71 35.6653 Q1281.71 41.5391 1284.11 44.8956 Q1286.54 48.2231 1290.76 48.2231 Q1294.99 48.2231 1297.42 44.8956 Q1299.85 41.5391 1299.85 35.6653 Q1299.85 29.7915 1297.42 26.464 Q1294.99 23.1075 1290.76 23.1075 Q1286.54 23.1075 1284.11 26.464 Q1281.71 29.7915 1281.71 35.6653 Z" fill="#000000" fill-rule="nonzero" fill-opacity="1" /><path clip-path="url(#clip360)" d="M1321.29 46.9789 L1321.29 64.1663 L1315.94 64.1663 L1315.94 19.4328 L1321.29 19.4328 L1321.29 24.3517 Q1322.97 21.4582 1325.51 20.0693 Q1328.09 18.6515 1331.65 18.6515 Q1337.55 18.6515 1341.22 23.339 Q1344.93 28.0265 1344.93 35.6653 Q1344.93 43.3042 1341.22 47.9916 Q1337.55 52.6791 1331.65 52.6791 Q1328.09 52.6791 1325.51 51.2902 Q1322.97 49.8724 1321.29 46.9789 M1339.4 35.6653 Q1339.4 29.7915 1336.97 26.464 Q1334.57 23.1075 1330.35 23.1075 Q1326.12 23.1075 1323.69 26.464 Q1321.29 29.7915 1321.29 35.6653 Q1321.29 41.5391 1323.69 44.8956 Q1326.12 48.2231 1330.35 48.2231 Q1334.57 48.2231 1336.97 44.8956 Q1339.4 41.5391 1339.4 35.6653 Z" fill="#000000" fill-rule="nonzero" fill-opacity="1" /><polyline clip-path="url(#clip362)" style="stroke:#009af9; stroke-linecap:round; stroke-linejoin:round; stroke-width:4; stroke-opacity:1; fill:none" points="290.821,1148.3 415.938,1280.56 541.056,1321.05 666.173,1211.01 791.291,1447.38 916.408,1192.26 1041.53,1303.55 1166.64,1430.23 1291.76,1142.83 1416.88,1030.18 1542,372.048 1667.11,145.256 1792.23,401.298 1917.35,928.436 2042.46,787.51 2167.58,1200.88 2292.7,1017.85 "/>
<path clip-path="url(#clip360)" d="M2017.39 255.881 L2282.02 255.881 L2282.02 152.201 L2017.39 152.201  Z" fill="#ffffff" fill-rule="evenodd" fill-opacity="1"/>
<polyline clip-path="url(#clip360)" style="stroke:#000000; stroke-linecap:round; stroke-linejoin:round; stroke-width:4; stroke-opacity:1; fill:none" points="2017.39,255.881 2282.02,255.881 2282.02,152.201 2017.39,152.201 2017.39,255.881 "/>
<polyline clip-path="url(#clip360)" style="stroke:#009af9; stroke-linecap:round; stroke-linejoin:round; stroke-width:4; stroke-opacity:1; fill:none" points="2040.97,204.041 2182.44,204.041 "/>
<path clip-path="url(#clip360)" d="M2219.86 223.728 Q2218.05 228.358 2216.34 229.77 Q2214.63 231.182 2211.76 231.182 L2208.35 231.182 L2208.35 227.617 L2210.85 227.617 Q2212.61 227.617 2213.58 226.784 Q2214.56 225.95 2215.74 222.848 L2216.5 220.904 L2206.01 195.395 L2210.53 195.395 L2218.63 215.673 L2226.73 195.395 L2231.25 195.395 L2219.86 223.728 Z" fill="#000000" fill-rule="nonzero" fill-opacity="1" /><path clip-path="url(#clip360)" d="M2238.54 217.385 L2246.18 217.385 L2246.18 191.02 L2237.87 192.687 L2237.87 188.427 L2246.13 186.761 L2250.81 186.761 L2250.81 217.385 L2258.45 217.385 L2258.45 221.321 L2238.54 221.321 L2238.54 217.385 Z" fill="#000000" fill-rule="nonzero" fill-opacity="1" /></svg>
