<?xml version="1.0" encoding="utf-8"?>
<svg xmlns="http://www.w3.org/2000/svg" xmlns:xlink="http://www.w3.org/1999/xlink" width="600" height="400" viewBox="0 0 2400 1600">
<defs>
  <clipPath id="clip040">
    <rect x="0" y="0" width="2400" height="1600"/>
  </clipPath>
</defs>
<path clip-path="url(#clip040)" d="M0 1600 L2400 1600 L2400 0 L0 0  Z" fill="#ffffff" fill-rule="evenodd" fill-opacity="1"/>
<defs>
  <clipPath id="clip041">
    <rect x="480" y="0" width="1681" height="1600"/>
  </clipPath>
</defs>
<path clip-path="url(#clip040)" d="M230.765 1486.45 L2352.76 1486.45 L2352.76 106.192 L230.765 106.192  Z" fill="#ffffff" fill-rule="evenodd" fill-opacity="1"/>
<defs>
  <clipPath id="clip042">
    <rect x="230" y="106" width="2123" height="1381"/>
  </clipPath>
</defs>
<polyline clip-path="url(#clip042)" style="stroke:#000000; stroke-linecap:round; stroke-linejoin:round; stroke-width:2; stroke-opacity:0.1; fill:none" points="541.056,1486.45 541.056,106.192 "/>
<polyline clip-path="url(#clip042)" style="stroke:#000000; stroke-linecap:round; stroke-linejoin:round; stroke-width:2; stroke-opacity:0.1; fill:none" points="916.408,1486.45 916.408,106.192 "/>
<polyline clip-path="url(#clip042)" style="stroke:#000000; stroke-linecap:round; stroke-linejoin:round; stroke-width:2; stroke-opacity:0.1; fill:none" points="1291.76,1486.45 1291.76,106.192 "/>
<polyline clip-path="url(#clip042)" style="stroke:#000000; stroke-linecap:round; stroke-linejoin:round; stroke-width:2; stroke-opacity:0.1; fill:none" points="1667.11,1486.45 1667.11,106.192 "/>
<polyline clip-path="url(#clip042)" style="stroke:#000000; stroke-linecap:round; stroke-linejoin:round; stroke-width:2; stroke-opacity:0.1; fill:none" points="2042.46,1486.45 2042.46,106.192 "/>
<polyline clip-path="url(#clip042)" style="stroke:#000000; stroke-linecap:round; stroke-linejoin:round; stroke-width:2; stroke-opacity:0.1; fill:none" points="230.765,1247.01 2352.76,1247.01 "/>
<polyline clip-path="url(#clip042)" style="stroke:#000000; stroke-linecap:round; stroke-linejoin:round; stroke-width:2; stroke-opacity:0.1; fill:none" points="230.765,1007.23 2352.76,1007.23 "/>
<polyline clip-path="url(#clip042)" style="stroke:#000000; stroke-linecap:round; stroke-linejoin:round; stroke-width:2; stroke-opacity:0.1; fill:none" points="230.765,767.448 2352.76,767.448 "/>
<polyline clip-path="url(#clip042)" style="stroke:#000000; stroke-linecap:round; stroke-linejoin:round; stroke-width:2; stroke-opacity:0.1; fill:none" points="230.765,527.665 2352.76,527.665 "/>
<polyline clip-path="url(#clip042)" style="stroke:#000000; stroke-linecap:round; stroke-linejoin:round; stroke-width:2; stroke-opacity:0.1; fill:none" points="230.765,287.881 2352.76,287.881 "/>
<polyline clip-path="url(#clip040)" style="stroke:#000000; stroke-linecap:round; stroke-linejoin:round; stroke-width:4; stroke-opacity:1; fill:none" points="230.765,1486.45 2352.76,1486.45 "/>
<polyline clip-path="url(#clip040)" style="stroke:#000000; stroke-linecap:round; stroke-linejoin:round; stroke-width:4; stroke-opacity:1; fill:none" points="541.056,1486.45 541.056,1467.55 "/>
<polyline clip-path="url(#clip040)" style="stroke:#000000; stroke-linecap:round; stroke-linejoin:round; stroke-width:4; stroke-opacity:1; fill:none" points="916.408,1486.45 916.408,1467.55 "/>
<polyline clip-path="url(#clip040)" style="stroke:#000000; stroke-linecap:round; stroke-linejoin:round; stroke-width:4; stroke-opacity:1; fill:none" points="1291.76,1486.45 1291.76,1467.55 "/>
<polyline clip-path="url(#clip040)" style="stroke:#000000; stroke-linecap:round; stroke-linejoin:round; stroke-width:4; stroke-opacity:1; fill:none" points="1667.11,1486.45 1667.11,1467.55 "/>
<polyline clip-path="url(#clip040)" style="stroke:#000000; stroke-linecap:round; stroke-linejoin:round; stroke-width:4; stroke-opacity:1; fill:none" points="2042.46,1486.45 2042.46,1467.55 "/>
<path clip-path="url(#clip040)" d="M545.303 1530.21 Q548.66 1530.93 550.535 1533.2 Q552.433 1535.47 552.433 1538.8 Q552.433 1543.92 548.914 1546.72 Q545.396 1549.52 538.915 1549.52 Q536.739 1549.52 534.424 1549.08 Q532.132 1548.66 529.678 1547.81 L529.678 1543.29 Q531.623 1544.43 533.938 1545.01 Q536.252 1545.58 538.776 1545.58 Q543.174 1545.58 545.465 1543.85 Q547.78 1542.11 547.78 1538.8 Q547.78 1535.75 545.627 1534.03 Q543.498 1532.3 539.678 1532.3 L535.651 1532.3 L535.651 1528.45 L539.864 1528.45 Q543.313 1528.45 545.141 1527.09 Q546.97 1525.7 546.97 1523.11 Q546.97 1520.45 545.072 1519.03 Q543.197 1517.6 539.678 1517.6 Q537.757 1517.6 535.558 1518.01 Q533.359 1518.43 530.72 1519.31 L530.72 1515.14 Q533.382 1514.4 535.697 1514.03 Q538.035 1513.66 540.095 1513.66 Q545.419 1513.66 548.521 1516.09 Q551.623 1518.5 551.623 1522.62 Q551.623 1525.49 549.979 1527.48 Q548.336 1529.45 545.303 1530.21 Z" fill="#000000" fill-rule="nonzero" fill-opacity="1" /><path clip-path="url(#clip040)" d="M916.813 1529.7 Q913.665 1529.7 911.813 1531.86 Q909.984 1534.01 909.984 1537.76 Q909.984 1541.49 911.813 1543.66 Q913.665 1545.82 916.813 1545.82 Q919.961 1545.82 921.79 1543.66 Q923.642 1541.49 923.642 1537.76 Q923.642 1534.01 921.79 1531.86 Q919.961 1529.7 916.813 1529.7 M926.095 1515.05 L926.095 1519.31 Q924.336 1518.48 922.531 1518.04 Q920.748 1517.6 918.989 1517.6 Q914.359 1517.6 911.906 1520.72 Q909.475 1523.85 909.128 1530.17 Q910.494 1528.15 912.554 1527.09 Q914.614 1526 917.091 1526 Q922.299 1526 925.308 1529.17 Q928.341 1532.32 928.341 1537.76 Q928.341 1543.08 925.193 1546.3 Q922.044 1549.52 916.813 1549.52 Q910.818 1549.52 907.646 1544.94 Q904.475 1540.33 904.475 1531.6 Q904.475 1523.41 908.364 1518.55 Q912.253 1513.66 918.804 1513.66 Q920.563 1513.66 922.345 1514.01 Q924.151 1514.36 926.095 1515.05 Z" fill="#000000" fill-rule="nonzero" fill-opacity="1" /><path clip-path="url(#clip040)" d="M1282.06 1548.13 L1282.06 1543.87 Q1283.82 1544.7 1285.63 1545.14 Q1287.43 1545.58 1289.17 1545.58 Q1293.8 1545.58 1296.23 1542.48 Q1298.68 1539.36 1299.03 1533.01 Q1297.69 1535.01 1295.63 1536.07 Q1293.57 1537.13 1291.07 1537.13 Q1285.88 1537.13 1282.85 1534.01 Q1279.84 1530.86 1279.84 1525.42 Q1279.84 1520.1 1282.99 1516.88 Q1286.14 1513.66 1291.37 1513.66 Q1297.36 1513.66 1300.51 1518.27 Q1303.68 1522.85 1303.68 1531.6 Q1303.68 1539.77 1299.79 1544.66 Q1295.93 1549.52 1289.38 1549.52 Q1287.62 1549.52 1285.81 1549.17 Q1284.01 1548.82 1282.06 1548.13 M1291.37 1533.48 Q1294.51 1533.48 1296.34 1531.32 Q1298.2 1529.17 1298.2 1525.42 Q1298.2 1521.7 1296.34 1519.54 Q1294.51 1517.37 1291.37 1517.37 Q1288.22 1517.37 1286.37 1519.54 Q1284.54 1521.7 1284.54 1525.42 Q1284.54 1529.17 1286.37 1531.32 Q1288.22 1533.48 1291.37 1533.48 Z" fill="#000000" fill-rule="nonzero" fill-opacity="1" /><path clip-path="url(#clip040)" d="M1642.6 1544.91 L1650.24 1544.91 L1650.24 1518.55 L1641.93 1520.21 L1641.93 1515.95 L1650.19 1514.29 L1654.87 1514.29 L1654.87 1544.91 L1662.51 1544.91 L1662.51 1548.85 L1642.6 1548.85 L1642.6 1544.91 Z" fill="#000000" fill-rule="nonzero" fill-opacity="1" /><path clip-path="url(#clip040)" d="M1675.98 1544.91 L1692.3 1544.91 L1692.3 1548.85 L1670.35 1548.85 L1670.35 1544.91 Q1673.02 1542.16 1677.6 1537.53 Q1682.2 1532.88 1683.39 1531.53 Q1685.63 1529.01 1686.51 1527.27 Q1687.41 1525.51 1687.41 1523.82 Q1687.41 1521.07 1685.47 1519.33 Q1683.55 1517.6 1680.45 1517.6 Q1678.25 1517.6 1675.79 1518.36 Q1673.36 1519.13 1670.58 1520.68 L1670.58 1515.95 Q1673.41 1514.82 1675.86 1514.24 Q1678.32 1513.66 1680.35 1513.66 Q1685.72 1513.66 1688.92 1516.35 Q1692.11 1519.03 1692.11 1523.52 Q1692.11 1525.65 1691.3 1527.57 Q1690.52 1529.47 1688.41 1532.07 Q1687.83 1532.74 1684.73 1535.95 Q1681.63 1539.15 1675.98 1544.91 Z" fill="#000000" fill-rule="nonzero" fill-opacity="1" /><path clip-path="url(#clip040)" d="M2017.65 1544.91 L2025.29 1544.91 L2025.29 1518.55 L2016.98 1520.21 L2016.98 1515.95 L2025.24 1514.29 L2029.92 1514.29 L2029.92 1544.91 L2037.56 1544.91 L2037.56 1548.85 L2017.65 1548.85 L2017.65 1544.91 Z" fill="#000000" fill-rule="nonzero" fill-opacity="1" /><path clip-path="url(#clip040)" d="M2047.05 1514.29 L2065.4 1514.29 L2065.4 1518.22 L2051.33 1518.22 L2051.33 1526.7 Q2052.35 1526.35 2053.37 1526.19 Q2054.39 1526 2055.4 1526 Q2061.19 1526 2064.57 1529.17 Q2067.95 1532.34 2067.95 1537.76 Q2067.95 1543.34 2064.48 1546.44 Q2061.01 1549.52 2054.69 1549.52 Q2052.51 1549.52 2050.24 1549.15 Q2048 1548.78 2045.59 1548.04 L2045.59 1543.34 Q2047.67 1544.47 2049.9 1545.03 Q2052.12 1545.58 2054.59 1545.58 Q2058.6 1545.58 2060.94 1543.48 Q2063.27 1541.37 2063.27 1537.76 Q2063.27 1534.15 2060.94 1532.04 Q2058.6 1529.94 2054.59 1529.94 Q2052.72 1529.94 2050.84 1530.35 Q2048.99 1530.77 2047.05 1531.65 L2047.05 1514.29 Z" fill="#000000" fill-rule="nonzero" fill-opacity="1" /><polyline clip-path="url(#clip040)" style="stroke:#000000; stroke-linecap:round; stroke-linejoin:round; stroke-width:4; stroke-opacity:1; fill:none" points="230.765,1486.45 230.765,106.192 "/>
<polyline clip-path="url(#clip040)" style="stroke:#000000; stroke-linecap:round; stroke-linejoin:round; stroke-width:4; stroke-opacity:1; fill:none" points="230.765,1247.01 249.662,1247.01 "/>
<polyline clip-path="url(#clip040)" style="stroke:#000000; stroke-linecap:round; stroke-linejoin:round; stroke-width:4; stroke-opacity:1; fill:none" points="230.765,1007.23 249.662,1007.23 "/>
<polyline clip-path="url(#clip040)" style="stroke:#000000; stroke-linecap:round; stroke-linejoin:round; stroke-width:4; stroke-opacity:1; fill:none" points="230.765,767.448 249.662,767.448 "/>
<polyline clip-path="url(#clip040)" style="stroke:#000000; stroke-linecap:round; stroke-linejoin:round; stroke-width:4; stroke-opacity:1; fill:none" points="230.765,527.665 249.662,527.665 "/>
<polyline clip-path="url(#clip040)" style="stroke:#000000; stroke-linecap:round; stroke-linejoin:round; stroke-width:4; stroke-opacity:1; fill:none" points="230.765,287.881 249.662,287.881 "/>
<path clip-path="url(#clip040)" d="M50.9921 1229.73 L73.2142 1229.73 L73.2142 1231.72 L60.668 1264.29 L55.7838 1264.29 L67.5893 1233.67 L50.9921 1233.67 L50.9921 1229.73 Z" fill="#000000" fill-rule="nonzero" fill-opacity="1" /><path clip-path="url(#clip040)" d="M96.5011 1245.66 Q99.8576 1246.38 101.733 1248.65 Q103.631 1250.91 103.631 1254.25 Q103.631 1259.36 100.112 1262.16 Q96.5937 1264.97 90.1123 1264.97 Q87.9364 1264.97 85.6216 1264.53 Q83.3299 1264.11 80.8762 1263.25 L80.8762 1258.74 Q82.8207 1259.87 85.1355 1260.45 Q87.4503 1261.03 89.9734 1261.03 Q94.3715 1261.03 96.6632 1259.29 Q98.978 1257.56 98.978 1254.25 Q98.978 1251.19 96.8252 1249.48 Q94.6956 1247.74 90.8762 1247.74 L86.8484 1247.74 L86.8484 1243.9 L91.0614 1243.9 Q94.5104 1243.9 96.3391 1242.53 Q98.1678 1241.15 98.1678 1238.55 Q98.1678 1235.89 96.2697 1234.48 Q94.3947 1233.04 90.8762 1233.04 Q88.9549 1233.04 86.7558 1233.46 Q84.5568 1233.88 81.9179 1234.76 L81.9179 1230.59 Q84.5799 1229.85 86.8947 1229.48 Q89.2327 1229.11 91.2928 1229.11 Q96.6169 1229.11 99.7187 1231.54 Q102.821 1233.95 102.821 1238.07 Q102.821 1240.94 101.177 1242.93 Q99.5335 1244.9 96.5011 1245.66 Z" fill="#000000" fill-rule="nonzero" fill-opacity="1" /><path clip-path="url(#clip040)" d="M122.496 1232.81 Q118.885 1232.81 117.057 1236.38 Q115.251 1239.92 115.251 1247.05 Q115.251 1254.16 117.057 1257.72 Q118.885 1261.26 122.496 1261.26 Q126.131 1261.26 127.936 1257.72 Q129.765 1254.16 129.765 1247.05 Q129.765 1239.92 127.936 1236.38 Q126.131 1232.81 122.496 1232.81 M122.496 1229.11 Q128.307 1229.11 131.362 1233.72 Q134.441 1238.3 134.441 1247.05 Q134.441 1255.78 131.362 1260.38 Q128.307 1264.97 122.496 1264.97 Q116.686 1264.97 113.608 1260.38 Q110.552 1255.78 110.552 1247.05 Q110.552 1238.3 113.608 1233.72 Q116.686 1229.11 122.496 1229.11 Z" fill="#000000" fill-rule="nonzero" fill-opacity="1" /><path clip-path="url(#clip040)" d="M152.658 1232.81 Q149.047 1232.81 147.218 1236.38 Q145.413 1239.92 145.413 1247.05 Q145.413 1254.16 147.218 1257.72 Q149.047 1261.26 152.658 1261.26 Q156.292 1261.26 158.098 1257.72 Q159.927 1254.16 159.927 1247.05 Q159.927 1239.92 158.098 1236.38 Q156.292 1232.81 152.658 1232.81 M152.658 1229.11 Q158.468 1229.11 161.524 1233.72 Q164.603 1238.3 164.603 1247.05 Q164.603 1255.78 161.524 1260.38 Q158.468 1264.97 152.658 1264.97 Q146.848 1264.97 143.769 1260.38 Q140.714 1255.78 140.714 1247.05 Q140.714 1238.3 143.769 1233.72 Q146.848 1229.11 152.658 1229.11 Z" fill="#000000" fill-rule="nonzero" fill-opacity="1" /><path clip-path="url(#clip040)" d="M182.82 1232.81 Q179.209 1232.81 177.38 1236.38 Q175.575 1239.92 175.575 1247.05 Q175.575 1254.16 177.38 1257.72 Q179.209 1261.26 182.82 1261.26 Q186.454 1261.26 188.26 1257.72 Q190.089 1254.16 190.089 1247.05 Q190.089 1239.92 188.26 1236.38 Q186.454 1232.81 182.82 1232.81 M182.82 1229.11 Q188.63 1229.11 191.686 1233.72 Q194.765 1238.3 194.765 1247.05 Q194.765 1255.78 191.686 1260.38 Q188.63 1264.97 182.82 1264.97 Q177.01 1264.97 173.931 1260.38 Q170.876 1255.78 170.876 1247.05 Q170.876 1238.3 173.931 1233.72 Q177.01 1229.11 182.82 1229.11 Z" fill="#000000" fill-rule="nonzero" fill-opacity="1" /><path clip-path="url(#clip040)" d="M50.9921 989.951 L73.2142 989.951 L73.2142 991.942 L60.668 1024.51 L55.7838 1024.51 L67.5893 993.886 L50.9921 993.886 L50.9921 989.951 Z" fill="#000000" fill-rule="nonzero" fill-opacity="1" /><path clip-path="url(#clip040)" d="M95.1817 994.025 L83.3762 1012.47 L95.1817 1012.47 L95.1817 994.025 M93.9549 989.951 L99.8345 989.951 L99.8345 1012.47 L104.765 1012.47 L104.765 1016.36 L99.8345 1016.36 L99.8345 1024.51 L95.1817 1024.51 L95.1817 1016.36 L79.5799 1016.36 L79.5799 1011.85 L93.9549 989.951 Z" fill="#000000" fill-rule="nonzero" fill-opacity="1" /><path clip-path="url(#clip040)" d="M122.496 993.03 Q118.885 993.03 117.057 996.594 Q115.251 1000.14 115.251 1007.27 Q115.251 1014.37 117.057 1017.94 Q118.885 1021.48 122.496 1021.48 Q126.131 1021.48 127.936 1017.94 Q129.765 1014.37 129.765 1007.27 Q129.765 1000.14 127.936 996.594 Q126.131 993.03 122.496 993.03 M122.496 989.326 Q128.307 989.326 131.362 993.932 Q134.441 998.516 134.441 1007.27 Q134.441 1015.99 131.362 1020.6 Q128.307 1025.18 122.496 1025.18 Q116.686 1025.18 113.608 1020.6 Q110.552 1015.99 110.552 1007.27 Q110.552 998.516 113.608 993.932 Q116.686 989.326 122.496 989.326 Z" fill="#000000" fill-rule="nonzero" fill-opacity="1" /><path clip-path="url(#clip040)" d="M152.658 993.03 Q149.047 993.03 147.218 996.594 Q145.413 1000.14 145.413 1007.27 Q145.413 1014.37 147.218 1017.94 Q149.047 1021.48 152.658 1021.48 Q156.292 1021.48 158.098 1017.94 Q159.927 1014.37 159.927 1007.27 Q159.927 1000.14 158.098 996.594 Q156.292 993.03 152.658 993.03 M152.658 989.326 Q158.468 989.326 161.524 993.932 Q164.603 998.516 164.603 1007.27 Q164.603 1015.99 161.524 1020.6 Q158.468 1025.18 152.658 1025.18 Q146.848 1025.18 143.769 1020.6 Q140.714 1015.99 140.714 1007.27 Q140.714 998.516 143.769 993.932 Q146.848 989.326 152.658 989.326 Z" fill="#000000" fill-rule="nonzero" fill-opacity="1" /><path clip-path="url(#clip040)" d="M182.82 993.03 Q179.209 993.03 177.38 996.594 Q175.575 1000.14 175.575 1007.27 Q175.575 1014.37 177.38 1017.94 Q179.209 1021.48 182.82 1021.48 Q186.454 1021.48 188.26 1017.94 Q190.089 1014.37 190.089 1007.27 Q190.089 1000.14 188.26 996.594 Q186.454 993.03 182.82 993.03 M182.82 989.326 Q188.63 989.326 191.686 993.932 Q194.765 998.516 194.765 1007.27 Q194.765 1015.99 191.686 1020.6 Q188.63 1025.18 182.82 1025.18 Q177.01 1025.18 173.931 1020.6 Q170.876 1015.99 170.876 1007.27 Q170.876 998.516 173.931 993.932 Q177.01 989.326 182.82 989.326 Z" fill="#000000" fill-rule="nonzero" fill-opacity="1" /><path clip-path="url(#clip040)" d="M50.9921 750.168 L73.2142 750.168 L73.2142 752.158 L60.668 784.728 L55.7838 784.728 L67.5893 754.103 L50.9921 754.103 L50.9921 750.168 Z" fill="#000000" fill-rule="nonzero" fill-opacity="1" /><path clip-path="url(#clip040)" d="M82.3808 750.168 L100.737 750.168 L100.737 754.103 L86.6632 754.103 L86.6632 762.575 Q87.6817 762.228 88.7003 762.066 Q89.7188 761.881 90.7373 761.881 Q96.5243 761.881 99.9039 765.052 Q103.284 768.223 103.284 773.64 Q103.284 779.219 99.8113 782.32 Q96.3391 785.399 90.0197 785.399 Q87.8438 785.399 85.5753 785.029 Q83.3299 784.658 80.9225 783.918 L80.9225 779.219 Q83.0058 780.353 85.2281 780.908 Q87.4503 781.464 89.9271 781.464 Q93.9317 781.464 96.2697 779.357 Q98.6076 777.251 98.6076 773.64 Q98.6076 770.029 96.2697 767.922 Q93.9317 765.816 89.9271 765.816 Q88.0521 765.816 86.1771 766.232 Q84.3253 766.649 82.3808 767.529 L82.3808 750.168 Z" fill="#000000" fill-rule="nonzero" fill-opacity="1" /><path clip-path="url(#clip040)" d="M122.496 753.246 Q118.885 753.246 117.057 756.811 Q115.251 760.353 115.251 767.482 Q115.251 774.589 117.057 778.154 Q118.885 781.695 122.496 781.695 Q126.131 781.695 127.936 778.154 Q129.765 774.589 129.765 767.482 Q129.765 760.353 127.936 756.811 Q126.131 753.246 122.496 753.246 M122.496 749.543 Q128.307 749.543 131.362 754.149 Q134.441 758.733 134.441 767.482 Q134.441 776.209 131.362 780.816 Q128.307 785.399 122.496 785.399 Q116.686 785.399 113.608 780.816 Q110.552 776.209 110.552 767.482 Q110.552 758.733 113.608 754.149 Q116.686 749.543 122.496 749.543 Z" fill="#000000" fill-rule="nonzero" fill-opacity="1" /><path clip-path="url(#clip040)" d="M152.658 753.246 Q149.047 753.246 147.218 756.811 Q145.413 760.353 145.413 767.482 Q145.413 774.589 147.218 778.154 Q149.047 781.695 152.658 781.695 Q156.292 781.695 158.098 778.154 Q159.927 774.589 159.927 767.482 Q159.927 760.353 158.098 756.811 Q156.292 753.246 152.658 753.246 M152.658 749.543 Q158.468 749.543 161.524 754.149 Q164.603 758.733 164.603 767.482 Q164.603 776.209 161.524 780.816 Q158.468 785.399 152.658 785.399 Q146.848 785.399 143.769 780.816 Q140.714 776.209 140.714 767.482 Q140.714 758.733 143.769 754.149 Q146.848 749.543 152.658 749.543 Z" fill="#000000" fill-rule="nonzero" fill-opacity="1" /><path clip-path="url(#clip040)" d="M182.82 753.246 Q179.209 753.246 177.38 756.811 Q175.575 760.353 175.575 767.482 Q175.575 774.589 177.38 778.154 Q179.209 781.695 182.82 781.695 Q186.454 781.695 188.26 778.154 Q190.089 774.589 190.089 767.482 Q190.089 760.353 188.26 756.811 Q186.454 753.246 182.82 753.246 M182.82 749.543 Q188.63 749.543 191.686 754.149 Q194.765 758.733 194.765 767.482 Q194.765 776.209 191.686 780.816 Q188.63 785.399 182.82 785.399 Q177.01 785.399 173.931 780.816 Q170.876 776.209 170.876 767.482 Q170.876 758.733 173.931 754.149 Q177.01 749.543 182.82 749.543 Z" fill="#000000" fill-rule="nonzero" fill-opacity="1" /><path clip-path="url(#clip040)" d="M50.9921 510.385 L73.2142 510.385 L73.2142 512.375 L60.668 544.945 L55.7838 544.945 L67.5893 514.32 L50.9921 514.32 L50.9921 510.385 Z" fill="#000000" fill-rule="nonzero" fill-opacity="1" /><path clip-path="url(#clip040)" d="M92.9132 525.801 Q89.7651 525.801 87.9132 527.954 Q86.0845 530.107 86.0845 533.857 Q86.0845 537.584 87.9132 539.759 Q89.7651 541.912 92.9132 541.912 Q96.0613 541.912 97.89 539.759 Q99.7419 537.584 99.7419 533.857 Q99.7419 530.107 97.89 527.954 Q96.0613 525.801 92.9132 525.801 M102.196 511.148 L102.196 515.408 Q100.436 514.574 98.6308 514.135 Q96.8484 513.695 95.0891 513.695 Q90.4595 513.695 88.0058 516.82 Q85.5753 519.945 85.2281 526.264 Q86.5938 524.25 88.654 523.185 Q90.7141 522.098 93.191 522.098 Q98.3993 522.098 101.409 525.269 Q104.441 528.417 104.441 533.857 Q104.441 539.181 101.293 542.398 Q98.1447 545.616 92.9132 545.616 Q86.9179 545.616 83.7466 541.033 Q80.5753 536.426 80.5753 527.699 Q80.5753 519.505 84.4642 514.644 Q88.353 509.76 94.9039 509.76 Q96.6632 509.76 98.4456 510.107 Q100.251 510.454 102.196 511.148 Z" fill="#000000" fill-rule="nonzero" fill-opacity="1" /><path clip-path="url(#clip040)" d="M122.496 513.463 Q118.885 513.463 117.057 517.028 Q115.251 520.57 115.251 527.699 Q115.251 534.806 117.057 538.371 Q118.885 541.912 122.496 541.912 Q126.131 541.912 127.936 538.371 Q129.765 534.806 129.765 527.699 Q129.765 520.57 127.936 517.028 Q126.131 513.463 122.496 513.463 M122.496 509.76 Q128.307 509.76 131.362 514.366 Q134.441 518.949 134.441 527.699 Q134.441 536.426 131.362 541.033 Q128.307 545.616 122.496 545.616 Q116.686 545.616 113.608 541.033 Q110.552 536.426 110.552 527.699 Q110.552 518.949 113.608 514.366 Q116.686 509.76 122.496 509.76 Z" fill="#000000" fill-rule="nonzero" fill-opacity="1" /><path clip-path="url(#clip040)" d="M152.658 513.463 Q149.047 513.463 147.218 517.028 Q145.413 520.57 145.413 527.699 Q145.413 534.806 147.218 538.371 Q149.047 541.912 152.658 541.912 Q156.292 541.912 158.098 538.371 Q159.927 534.806 159.927 527.699 Q159.927 520.57 158.098 517.028 Q156.292 513.463 152.658 513.463 M152.658 509.76 Q158.468 509.76 161.524 514.366 Q164.603 518.949 164.603 527.699 Q164.603 536.426 161.524 541.033 Q158.468 545.616 152.658 545.616 Q146.848 545.616 143.769 541.033 Q140.714 536.426 140.714 527.699 Q140.714 518.949 143.769 514.366 Q146.848 509.76 152.658 509.76 Z" fill="#000000" fill-rule="nonzero" fill-opacity="1" /><path clip-path="url(#clip040)" d="M182.82 513.463 Q179.209 513.463 177.38 517.028 Q175.575 520.57 175.575 527.699 Q175.575 534.806 177.38 538.371 Q179.209 541.912 182.82 541.912 Q186.454 541.912 188.26 538.371 Q190.089 534.806 190.089 527.699 Q190.089 520.57 188.26 517.028 Q186.454 513.463 182.82 513.463 M182.82 509.76 Q188.63 509.76 191.686 514.366 Q194.765 518.949 194.765 527.699 Q194.765 536.426 191.686 541.033 Q188.63 545.616 182.82 545.616 Q177.01 545.616 173.931 541.033 Q170.876 536.426 170.876 527.699 Q170.876 518.949 173.931 514.366 Q177.01 509.76 182.82 509.76 Z" fill="#000000" fill-rule="nonzero" fill-opacity="1" /><path clip-path="url(#clip040)" d="M50.9921 270.601 L73.2142 270.601 L73.2142 272.592 L60.668 305.161 L55.7838 305.161 L67.5893 274.537 L50.9921 274.537 L50.9921 270.601 Z" fill="#000000" fill-rule="nonzero" fill-opacity="1" /><path clip-path="url(#clip040)" d="M81.154 270.601 L103.376 270.601 L103.376 272.592 L90.8299 305.161 L85.9456 305.161 L97.7511 274.537 L81.154 274.537 L81.154 270.601 Z" fill="#000000" fill-rule="nonzero" fill-opacity="1" /><path clip-path="url(#clip040)" d="M122.496 273.68 Q118.885 273.68 117.057 277.245 Q115.251 280.787 115.251 287.916 Q115.251 295.023 117.057 298.587 Q118.885 302.129 122.496 302.129 Q126.131 302.129 127.936 298.587 Q129.765 295.023 129.765 287.916 Q129.765 280.787 127.936 277.245 Q126.131 273.68 122.496 273.68 M122.496 269.976 Q128.307 269.976 131.362 274.583 Q134.441 279.166 134.441 287.916 Q134.441 296.643 131.362 301.249 Q128.307 305.833 122.496 305.833 Q116.686 305.833 113.608 301.249 Q110.552 296.643 110.552 287.916 Q110.552 279.166 113.608 274.583 Q116.686 269.976 122.496 269.976 Z" fill="#000000" fill-rule="nonzero" fill-opacity="1" /><path clip-path="url(#clip040)" d="M152.658 273.68 Q149.047 273.68 147.218 277.245 Q145.413 280.787 145.413 287.916 Q145.413 295.023 147.218 298.587 Q149.047 302.129 152.658 302.129 Q156.292 302.129 158.098 298.587 Q159.927 295.023 159.927 287.916 Q159.927 280.787 158.098 277.245 Q156.292 273.68 152.658 273.68 M152.658 269.976 Q158.468 269.976 161.524 274.583 Q164.603 279.166 164.603 287.916 Q164.603 296.643 161.524 301.249 Q158.468 305.833 152.658 305.833 Q146.848 305.833 143.769 301.249 Q140.714 296.643 140.714 287.916 Q140.714 279.166 143.769 274.583 Q146.848 269.976 152.658 269.976 Z" fill="#000000" fill-rule="nonzero" fill-opacity="1" /><path clip-path="url(#clip040)" d="M182.82 273.68 Q179.209 273.68 177.38 277.245 Q175.575 280.787 175.575 287.916 Q175.575 295.023 177.38 298.587 Q179.209 302.129 182.82 302.129 Q186.454 302.129 188.26 298.587 Q190.089 295.023 190.089 287.916 Q190.089 280.787 188.26 277.245 Q186.454 273.68 182.82 273.68 M182.82 269.976 Q188.63 269.976 191.686 274.583 Q194.765 279.166 194.765 287.916 Q194.765 296.643 191.686 301.249 Q188.63 305.833 182.82 305.833 Q177.01 305.833 173.931 301.249 Q170.876 296.643 170.876 287.916 Q170.876 279.166 173.931 274.583 Q177.01 269.976 182.82 269.976 Z" fill="#000000" fill-rule="nonzero" fill-opacity="1" /><path clip-path="url(#clip040)" d="M1262.23 35.2602 Q1262.23 29.4732 1259.83 26.2904 Q1257.46 23.1075 1253.15 23.1075 Q1248.86 23.1075 1246.46 26.2904 Q1244.09 29.4732 1244.09 35.2602 Q1244.09 41.0183 1246.46 44.2012 Q1248.86 47.384 1253.15 47.384 Q1257.46 47.384 1259.83 44.2012 Q1262.23 41.0183 1262.23 35.2602 M1267.56 47.818 Q1267.56 56.0934 1263.88 60.1154 Q1260.21 64.1663 1252.63 64.1663 Q1249.82 64.1663 1247.33 63.7323 Q1244.84 63.3272 1242.5 62.4592 L1242.5 57.2798 Q1244.84 58.5529 1247.13 59.1606 Q1249.41 59.7682 1251.79 59.7682 Q1257.02 59.7682 1259.63 57.0194 Q1262.23 54.2995 1262.23 48.7729 L1262.23 46.1398 Q1260.58 49.0044 1258.01 50.4222 Q1255.43 51.84 1251.84 51.84 Q1245.88 51.84 1242.24 47.2972 Q1238.59 42.7544 1238.59 35.2602 Q1238.59 27.7371 1242.24 23.1943 Q1245.88 18.6515 1251.84 18.6515 Q1255.43 18.6515 1258.01 20.0693 Q1260.58 21.4872 1262.23 24.3517 L1262.23 19.4328 L1267.56 19.4328 L1267.56 47.818 Z" fill="#000000" fill-rule="nonzero" fill-opacity="1" /><path clip-path="url(#clip040)" d="M1299.85 24.3517 L1299.85 6.81709 L1305.17 6.81709 L1305.17 51.84 L1299.85 51.84 L1299.85 46.9789 Q1298.17 49.8724 1295.59 51.2902 Q1293.05 52.6791 1289.46 52.6791 Q1283.59 52.6791 1279.88 47.9916 Q1276.21 43.3042 1276.21 35.6653 Q1276.21 28.0265 1279.88 23.339 Q1283.59 18.6515 1289.46 18.6515 Q1293.05 18.6515 1295.59 20.0693 Q1298.17 21.4582 1299.85 24.3517 M1281.71 35.6653 Q1281.71 41.5391 1284.11 44.8956 Q1286.54 48.2231 1290.76 48.2231 Q1294.99 48.2231 1297.42 44.8956 Q1299.85 41.5391 1299.85 35.6653 Q1299.85 29.7915 1297.42 26.464 Q1294.99 23.1075 1290.76 23.1075 Q1286.54 23.1075 1284.11 26.464 Q1281.71 29.7915 1281.71 35.6653 Z" fill="#000000" fill-rule="nonzero" fill-opacity="1" /><path clip-path="url(#clip040)" d="M1321.29 46.9789 L1321.29 64.1663 L1315.94 64.1663 L1315.94 19.4328 L1321.29 19.4328 L1321.29 24.3517 Q1322.97 21.4582 1325.51 20.0693 Q1328.09 18.6515 1331.65 18.6515 Q1337.55 18.6515 1341.22 23.339 Q1344.93 28.0265 1344.93 35.6653 Q1344.93 43.3042 1341.22 47.9916 Q1337.55 52.6791 1331.65 52.6791 Q1328.09 52.6791 1325.51 51.2902 Q1322.97 49.8724 1321.29 46.9789 M1339.4 35.6653 Q1339.4 29.7915 1336.97 26.464 Q1334.57 23.1075 1330.35 23.1075 Q1326.12 23.1075 1323.69 26.464 Q1321.29 29.7915 1321.29 35.6653 Q1321.29 41.5391 1323.69 44.8956 Q1326.12 48.2231 1330.35 48.2231 Q1334.57 48.2231 1336.97 44.8956 Q1339.4 41.5391 1339.4 35.6653 Z" fill="#000000" fill-rule="nonzero" fill-opacity="1" /><polyline clip-path="url(#clip042)" style="stroke:#009af9; stroke-linecap:round; stroke-linejoin:round; stroke-width:4; stroke-opacity:1; fill:none" points="290.821,1385.61 415.938,1447.38 541.056,1167.33 666.173,1147.83 791.291,1249.97 916.408,1148.93 1041.53,1075.72 1166.64,878.737 1291.76,850.284 1416.88,986.798 1542,754.585 1667.11,526.453 1792.23,662.385 1917.35,587.308 2042.46,604.333 2167.58,271.76 2292.7,145.256 "/>
<path clip-path="url(#clip040)" d="M301.498 255.881 L566.127 255.881 L566.127 152.201 L301.498 152.201  Z" fill="#ffffff" fill-rule="evenodd" fill-opacity="1"/>
<polyline clip-path="url(#clip040)" style="stroke:#000000; stroke-linecap:round; stroke-linejoin:round; stroke-width:4; stroke-opacity:1; fill:none" points="301.498,255.881 566.127,255.881 566.127,152.201 301.498,152.201 301.498,255.881 "/>
<polyline clip-path="url(#clip040)" style="stroke:#009af9; stroke-linecap:round; stroke-linejoin:round; stroke-width:4; stroke-opacity:1; fill:none" points="325.075,204.041 466.541,204.041 "/>
<path clip-path="url(#clip040)" d="M503.962 223.728 Q502.156 228.358 500.443 229.77 Q498.73 231.182 495.86 231.182 L492.457 231.182 L492.457 227.617 L494.957 227.617 Q496.716 227.617 497.688 226.784 Q498.661 225.95 499.841 222.848 L500.605 220.904 L490.119 195.395 L494.633 195.395 L502.735 215.673 L510.836 195.395 L515.35 195.395 L503.962 223.728 Z" fill="#000000" fill-rule="nonzero" fill-opacity="1" /><path clip-path="url(#clip040)" d="M522.642 217.385 L530.281 217.385 L530.281 191.02 L521.971 192.687 L521.971 188.427 L530.235 186.761 L534.91 186.761 L534.91 217.385 L542.549 217.385 L542.549 221.321 L522.642 221.321 L522.642 217.385 Z" fill="#000000" fill-rule="nonzero" fill-opacity="1" /></svg>
