<?xml version="1.0" encoding="utf-8"?>
<svg xmlns="http://www.w3.org/2000/svg" xmlns:xlink="http://www.w3.org/1999/xlink" width="600" height="400" viewBox="0 0 2400 1600">
<defs>
  <clipPath id="clip460">
    <rect x="0" y="0" width="2400" height="1600"/>
  </clipPath>
</defs>
<path clip-path="url(#clip460)" d="M0 1600 L2400 1600 L2400 0 L0 0  Z" fill="#ffffff" fill-rule="evenodd" fill-opacity="1"/>
<defs>
  <clipPath id="clip461">
    <rect x="480" y="0" width="1681" height="1600"/>
  </clipPath>
</defs>
<path clip-path="url(#clip460)" d="M294.033 1423.18 L2352.76 1423.18 L2352.76 47.2441 L294.033 47.2441  Z" fill="#ffffff" fill-rule="evenodd" fill-opacity="1"/>
<defs>
  <clipPath id="clip462">
    <rect x="294" y="47" width="2060" height="1377"/>
  </clipPath>
</defs>
<polyline clip-path="url(#clip462)" style="stroke:#000000; stroke-linecap:round; stroke-linejoin:round; stroke-width:2; stroke-opacity:0.1; fill:none" points="740.737,1423.18 740.737,47.2441 "/>
<polyline clip-path="url(#clip462)" style="stroke:#000000; stroke-linecap:round; stroke-linejoin:round; stroke-width:2; stroke-opacity:0.1; fill:none" points="1226.28,1423.18 1226.28,47.2441 "/>
<polyline clip-path="url(#clip462)" style="stroke:#000000; stroke-linecap:round; stroke-linejoin:round; stroke-width:2; stroke-opacity:0.1; fill:none" points="1711.83,1423.18 1711.83,47.2441 "/>
<polyline clip-path="url(#clip462)" style="stroke:#000000; stroke-linecap:round; stroke-linejoin:round; stroke-width:2; stroke-opacity:0.1; fill:none" points="2197.38,1423.18 2197.38,47.2441 "/>
<polyline clip-path="url(#clip462)" style="stroke:#000000; stroke-linecap:round; stroke-linejoin:round; stroke-width:2; stroke-opacity:0.1; fill:none" points="294.033,1164.17 2352.76,1164.17 "/>
<polyline clip-path="url(#clip462)" style="stroke:#000000; stroke-linecap:round; stroke-linejoin:round; stroke-width:2; stroke-opacity:0.1; fill:none" points="294.033,892.479 2352.76,892.479 "/>
<polyline clip-path="url(#clip462)" style="stroke:#000000; stroke-linecap:round; stroke-linejoin:round; stroke-width:2; stroke-opacity:0.1; fill:none" points="294.033,620.79 2352.76,620.79 "/>
<polyline clip-path="url(#clip462)" style="stroke:#000000; stroke-linecap:round; stroke-linejoin:round; stroke-width:2; stroke-opacity:0.1; fill:none" points="294.033,349.101 2352.76,349.101 "/>
<polyline clip-path="url(#clip462)" style="stroke:#000000; stroke-linecap:round; stroke-linejoin:round; stroke-width:2; stroke-opacity:0.1; fill:none" points="294.033,77.4118 2352.76,77.4118 "/>
<polyline clip-path="url(#clip460)" style="stroke:#000000; stroke-linecap:round; stroke-linejoin:round; stroke-width:4; stroke-opacity:1; fill:none" points="294.033,1423.18 2352.76,1423.18 "/>
<polyline clip-path="url(#clip460)" style="stroke:#000000; stroke-linecap:round; stroke-linejoin:round; stroke-width:4; stroke-opacity:1; fill:none" points="740.737,1423.18 740.737,1404.28 "/>
<polyline clip-path="url(#clip460)" style="stroke:#000000; stroke-linecap:round; stroke-linejoin:round; stroke-width:4; stroke-opacity:1; fill:none" points="1226.28,1423.18 1226.28,1404.28 "/>
<polyline clip-path="url(#clip460)" style="stroke:#000000; stroke-linecap:round; stroke-linejoin:round; stroke-width:4; stroke-opacity:1; fill:none" points="1711.83,1423.18 1711.83,1404.28 "/>
<polyline clip-path="url(#clip460)" style="stroke:#000000; stroke-linecap:round; stroke-linejoin:round; stroke-width:4; stroke-opacity:1; fill:none" points="2197.38,1423.18 2197.38,1404.28 "/>
<path clip-path="url(#clip460)" d="M731.014 1451.02 L749.371 1451.02 L749.371 1454.96 L735.297 1454.96 L735.297 1463.43 Q736.315 1463.08 737.334 1462.92 Q738.352 1462.73 739.371 1462.73 Q745.158 1462.73 748.538 1465.9 Q751.917 1469.08 751.917 1474.49 Q751.917 1480.07 748.445 1483.17 Q744.973 1486.25 738.653 1486.25 Q736.477 1486.25 734.209 1485.88 Q731.964 1485.51 729.556 1484.77 L729.556 1480.07 Q731.639 1481.2 733.862 1481.76 Q736.084 1482.32 738.561 1482.32 Q742.565 1482.32 744.903 1480.21 Q747.241 1478.1 747.241 1474.49 Q747.241 1470.88 744.903 1468.77 Q742.565 1466.67 738.561 1466.67 Q736.686 1466.67 734.811 1467.08 Q732.959 1467.5 731.014 1468.38 L731.014 1451.02 Z" fill="#000000" fill-rule="nonzero" fill-opacity="1" /><path clip-path="url(#clip460)" d="M1200.97 1481.64 L1208.61 1481.64 L1208.61 1455.28 L1200.3 1456.95 L1200.3 1452.69 L1208.56 1451.02 L1213.24 1451.02 L1213.24 1481.64 L1220.88 1481.64 L1220.88 1485.58 L1200.97 1485.58 L1200.97 1481.64 Z" fill="#000000" fill-rule="nonzero" fill-opacity="1" /><path clip-path="url(#clip460)" d="M1240.32 1454.1 Q1236.71 1454.1 1234.88 1457.66 Q1233.08 1461.2 1233.08 1468.33 Q1233.08 1475.44 1234.88 1479.01 Q1236.71 1482.55 1240.32 1482.55 Q1243.96 1482.55 1245.76 1479.01 Q1247.59 1475.44 1247.59 1468.33 Q1247.59 1461.2 1245.76 1457.66 Q1243.96 1454.1 1240.32 1454.1 M1240.32 1450.39 Q1246.13 1450.39 1249.19 1455 Q1252.27 1459.58 1252.27 1468.33 Q1252.27 1477.06 1249.19 1481.67 Q1246.13 1486.25 1240.32 1486.25 Q1234.51 1486.25 1231.44 1481.67 Q1228.38 1477.06 1228.38 1468.33 Q1228.38 1459.58 1231.44 1455 Q1234.51 1450.39 1240.32 1450.39 Z" fill="#000000" fill-rule="nonzero" fill-opacity="1" /><path clip-path="url(#clip460)" d="M1687.02 1481.64 L1694.66 1481.64 L1694.66 1455.28 L1686.35 1456.95 L1686.35 1452.69 L1694.61 1451.02 L1699.29 1451.02 L1699.29 1481.64 L1706.93 1481.64 L1706.93 1485.58 L1687.02 1485.58 L1687.02 1481.64 Z" fill="#000000" fill-rule="nonzero" fill-opacity="1" /><path clip-path="url(#clip460)" d="M1716.42 1451.02 L1734.77 1451.02 L1734.77 1454.96 L1720.7 1454.96 L1720.7 1463.43 Q1721.72 1463.08 1722.74 1462.92 Q1723.75 1462.73 1724.77 1462.73 Q1730.56 1462.73 1733.94 1465.9 Q1737.32 1469.08 1737.32 1474.49 Q1737.32 1480.07 1733.85 1483.17 Q1730.37 1486.25 1724.05 1486.25 Q1721.88 1486.25 1719.61 1485.88 Q1717.36 1485.51 1714.96 1484.77 L1714.96 1480.07 Q1717.04 1481.2 1719.26 1481.76 Q1721.49 1482.32 1723.96 1482.32 Q1727.97 1482.32 1730.3 1480.21 Q1732.64 1478.1 1732.64 1474.49 Q1732.64 1470.88 1730.3 1468.77 Q1727.97 1466.67 1723.96 1466.67 Q1722.09 1466.67 1720.21 1467.08 Q1718.36 1467.5 1716.42 1468.38 L1716.42 1451.02 Z" fill="#000000" fill-rule="nonzero" fill-opacity="1" /><path clip-path="url(#clip460)" d="M2176.15 1481.64 L2192.47 1481.64 L2192.47 1485.58 L2170.53 1485.58 L2170.53 1481.64 Q2173.19 1478.89 2177.77 1474.26 Q2182.38 1469.61 2183.56 1468.27 Q2185.81 1465.74 2186.69 1464.01 Q2187.59 1462.25 2187.59 1460.56 Q2187.59 1457.8 2185.64 1456.07 Q2183.72 1454.33 2180.62 1454.33 Q2178.42 1454.33 2175.97 1455.09 Q2173.54 1455.86 2170.76 1457.41 L2170.76 1452.69 Q2173.58 1451.55 2176.04 1450.97 Q2178.49 1450.39 2180.53 1450.39 Q2185.9 1450.39 2189.09 1453.08 Q2192.29 1455.77 2192.29 1460.26 Q2192.29 1462.39 2191.48 1464.31 Q2190.69 1466.2 2188.58 1468.8 Q2188.01 1469.47 2184.9 1472.69 Q2181.8 1475.88 2176.15 1481.64 Z" fill="#000000" fill-rule="nonzero" fill-opacity="1" /><path clip-path="url(#clip460)" d="M2212.29 1454.1 Q2208.68 1454.1 2206.85 1457.66 Q2205.04 1461.2 2205.04 1468.33 Q2205.04 1475.44 2206.85 1479.01 Q2208.68 1482.55 2212.29 1482.55 Q2215.92 1482.55 2217.73 1479.01 Q2219.56 1475.44 2219.56 1468.33 Q2219.56 1461.2 2217.73 1457.66 Q2215.92 1454.1 2212.29 1454.1 M2212.29 1450.39 Q2218.1 1450.39 2221.15 1455 Q2224.23 1459.58 2224.23 1468.33 Q2224.23 1477.06 2221.15 1481.67 Q2218.1 1486.25 2212.29 1486.25 Q2206.48 1486.25 2203.4 1481.67 Q2200.34 1477.06 2200.34 1468.33 Q2200.34 1459.58 2203.4 1455 Q2206.48 1450.39 2212.29 1450.39 Z" fill="#000000" fill-rule="nonzero" fill-opacity="1" /><path clip-path="url(#clip460)" d="M1194.9 1550.25 Q1194.9 1556.71 1197.54 1560.4 Q1200.22 1564.07 1204.86 1564.07 Q1209.51 1564.07 1212.19 1560.4 Q1214.86 1556.71 1214.86 1550.25 Q1214.86 1543.79 1212.19 1540.13 Q1209.51 1536.44 1204.86 1536.44 Q1200.22 1536.44 1197.54 1540.13 Q1194.9 1543.79 1194.9 1550.25 M1214.86 1562.7 Q1213.01 1565.88 1210.18 1567.44 Q1207.38 1568.97 1203.43 1568.97 Q1196.97 1568.97 1192.9 1563.81 Q1188.86 1558.65 1188.86 1550.25 Q1188.86 1541.85 1192.9 1536.69 Q1196.97 1531.54 1203.43 1531.54 Q1207.38 1531.54 1210.18 1533.1 Q1213.01 1534.62 1214.86 1537.81 L1214.86 1532.4 L1220.72 1532.4 L1220.72 1581.6 L1214.86 1581.6 L1214.86 1562.7 Z" fill="#000000" fill-rule="nonzero" fill-opacity="1" /><path clip-path="url(#clip460)" d="M1232.17 1553.98 L1232.17 1532.4 L1238.03 1532.4 L1238.03 1553.75 Q1238.03 1558.81 1240 1561.36 Q1241.98 1563.87 1245.92 1563.87 Q1250.67 1563.87 1253.4 1560.85 Q1256.17 1557.83 1256.17 1552.61 L1256.17 1532.4 L1262.03 1532.4 L1262.03 1568.04 L1256.17 1568.04 L1256.17 1562.57 Q1254.04 1565.82 1251.21 1567.41 Q1248.41 1568.97 1244.68 1568.97 Q1238.54 1568.97 1235.36 1565.15 Q1232.17 1561.33 1232.17 1553.98 M1246.91 1531.54 L1246.91 1531.54 Z" fill="#000000" fill-rule="nonzero" fill-opacity="1" /><path clip-path="url(#clip460)" d="M1290.29 1550.12 Q1283.19 1550.12 1280.46 1551.75 Q1277.72 1553.37 1277.72 1557.29 Q1277.72 1560.4 1279.76 1562.25 Q1281.83 1564.07 1285.36 1564.07 Q1290.23 1564.07 1293.16 1560.63 Q1296.12 1557.16 1296.12 1551.43 L1296.12 1550.12 L1290.29 1550.12 M1301.97 1547.71 L1301.97 1568.04 L1296.12 1568.04 L1296.12 1562.63 Q1294.11 1565.88 1291.12 1567.44 Q1288.13 1568.97 1283.8 1568.97 Q1278.33 1568.97 1275.08 1565.91 Q1271.86 1562.82 1271.86 1557.67 Q1271.86 1551.65 1275.87 1548.6 Q1279.92 1545.54 1287.91 1545.54 L1296.12 1545.54 L1296.12 1544.97 Q1296.12 1540.93 1293.44 1538.73 Q1290.8 1536.5 1286 1536.5 Q1282.94 1536.5 1280.04 1537.23 Q1277.15 1537.97 1274.47 1539.43 L1274.47 1534.02 Q1277.69 1532.78 1280.71 1532.17 Q1283.74 1531.54 1286.6 1531.54 Q1294.33 1531.54 1298.15 1535.55 Q1301.97 1539.56 1301.97 1547.71 Z" fill="#000000" fill-rule="nonzero" fill-opacity="1" /><path clip-path="url(#clip460)" d="M1334.69 1537.87 Q1333.71 1537.3 1332.53 1537.04 Q1331.38 1536.76 1329.98 1536.76 Q1325.02 1536.76 1322.34 1540 Q1319.7 1543.22 1319.7 1549.27 L1319.7 1568.04 L1313.81 1568.04 L1313.81 1532.4 L1319.7 1532.4 L1319.7 1537.93 Q1321.55 1534.69 1324.51 1533.13 Q1327.47 1531.54 1331.7 1531.54 Q1332.31 1531.54 1333.04 1531.63 Q1333.77 1531.7 1334.66 1531.85 L1334.69 1537.87 Z" fill="#000000" fill-rule="nonzero" fill-opacity="1" /><path clip-path="url(#clip460)" d="M1346.63 1522.27 L1346.63 1532.4 L1358.69 1532.4 L1358.69 1536.95 L1346.63 1536.95 L1346.63 1556.3 Q1346.63 1560.66 1347.81 1561.9 Q1349.02 1563.14 1352.68 1563.14 L1358.69 1563.14 L1358.69 1568.04 L1352.68 1568.04 Q1345.9 1568.04 1343.32 1565.53 Q1340.74 1562.98 1340.74 1556.3 L1340.74 1536.95 L1336.44 1536.95 L1336.44 1532.4 L1340.74 1532.4 L1340.74 1522.27 L1346.63 1522.27 Z" fill="#000000" fill-rule="nonzero" fill-opacity="1" /><path clip-path="url(#clip460)" d="M1396.89 1548.76 L1396.89 1551.62 L1369.96 1551.62 Q1370.34 1557.67 1373.59 1560.85 Q1376.87 1564 1382.69 1564 Q1386.06 1564 1389.22 1563.17 Q1392.4 1562.35 1395.52 1560.69 L1395.52 1566.23 Q1392.37 1567.57 1389.06 1568.27 Q1385.75 1568.97 1382.34 1568.97 Q1373.81 1568.97 1368.81 1564 Q1363.85 1559.04 1363.85 1550.57 Q1363.85 1541.82 1368.56 1536.69 Q1373.3 1531.54 1381.32 1531.54 Q1388.52 1531.54 1392.68 1536.18 Q1396.89 1540.8 1396.89 1548.76 M1391.03 1547.04 Q1390.97 1542.23 1388.32 1539.37 Q1385.71 1536.5 1381.39 1536.5 Q1376.48 1536.5 1373.52 1539.27 Q1370.6 1542.04 1370.15 1547.07 L1391.03 1547.04 Z" fill="#000000" fill-rule="nonzero" fill-opacity="1" /><path clip-path="url(#clip460)" d="M1427.16 1537.87 Q1426.17 1537.3 1424.99 1537.04 Q1423.85 1536.76 1422.44 1536.76 Q1417.48 1536.76 1414.81 1540 Q1412.16 1543.22 1412.16 1549.27 L1412.16 1568.04 L1406.28 1568.04 L1406.28 1532.4 L1412.16 1532.4 L1412.16 1537.93 Q1414.01 1534.69 1416.97 1533.13 Q1419.93 1531.54 1424.16 1531.54 Q1424.77 1531.54 1425.5 1531.63 Q1426.23 1531.7 1427.12 1531.85 L1427.16 1537.87 Z" fill="#000000" fill-rule="nonzero" fill-opacity="1" /><path clip-path="url(#clip460)" d="M1456.02 1533.45 L1456.02 1538.98 Q1453.54 1537.71 1450.87 1537.07 Q1448.19 1536.44 1445.33 1536.44 Q1440.97 1536.44 1438.77 1537.77 Q1436.61 1539.11 1436.61 1541.79 Q1436.61 1543.82 1438.17 1545 Q1439.73 1546.15 1444.44 1547.2 L1446.44 1547.64 Q1452.68 1548.98 1455.29 1551.43 Q1457.93 1553.85 1457.93 1558.21 Q1457.93 1563.17 1453.99 1566.07 Q1450.07 1568.97 1443.2 1568.97 Q1440.33 1568.97 1437.21 1568.39 Q1434.13 1567.85 1430.69 1566.74 L1430.69 1560.69 Q1433.93 1562.38 1437.09 1563.24 Q1440.24 1564.07 1443.32 1564.07 Q1447.46 1564.07 1449.69 1562.66 Q1451.92 1561.23 1451.92 1558.65 Q1451.92 1556.27 1450.29 1554.99 Q1448.7 1553.72 1443.26 1552.54 L1441.22 1552.07 Q1435.78 1550.92 1433.36 1548.56 Q1430.94 1546.18 1430.94 1542.04 Q1430.94 1537.01 1434.51 1534.27 Q1438.07 1531.54 1444.63 1531.54 Q1447.88 1531.54 1450.74 1532.01 Q1453.6 1532.49 1456.02 1533.45 Z" fill="#000000" fill-rule="nonzero" fill-opacity="1" /><polyline clip-path="url(#clip460)" style="stroke:#000000; stroke-linecap:round; stroke-linejoin:round; stroke-width:4; stroke-opacity:1; fill:none" points="294.033,1423.18 294.033,47.2441 "/>
<polyline clip-path="url(#clip460)" style="stroke:#000000; stroke-linecap:round; stroke-linejoin:round; stroke-width:4; stroke-opacity:1; fill:none" points="294.033,1164.17 312.93,1164.17 "/>
<polyline clip-path="url(#clip460)" style="stroke:#000000; stroke-linecap:round; stroke-linejoin:round; stroke-width:4; stroke-opacity:1; fill:none" points="294.033,892.479 312.93,892.479 "/>
<polyline clip-path="url(#clip460)" style="stroke:#000000; stroke-linecap:round; stroke-linejoin:round; stroke-width:4; stroke-opacity:1; fill:none" points="294.033,620.79 312.93,620.79 "/>
<polyline clip-path="url(#clip460)" style="stroke:#000000; stroke-linecap:round; stroke-linejoin:round; stroke-width:4; stroke-opacity:1; fill:none" points="294.033,349.101 312.93,349.101 "/>
<polyline clip-path="url(#clip460)" style="stroke:#000000; stroke-linecap:round; stroke-linejoin:round; stroke-width:4; stroke-opacity:1; fill:none" points="294.033,77.4118 312.93,77.4118 "/>
<path clip-path="url(#clip460)" d="M114.26 1146.89 L136.482 1146.89 L136.482 1148.88 L123.936 1181.45 L119.052 1181.45 L130.857 1150.82 L114.26 1150.82 L114.26 1146.89 Z" fill="#000000" fill-rule="nonzero" fill-opacity="1" /><path clip-path="url(#clip460)" d="M159.769 1162.81 Q163.126 1163.53 165.001 1165.8 Q166.899 1168.07 166.899 1171.4 Q166.899 1176.52 163.38 1179.32 Q159.862 1182.12 153.38 1182.12 Q151.204 1182.12 148.89 1181.68 Q146.598 1181.26 144.144 1180.41 L144.144 1175.89 Q146.089 1177.03 148.403 1177.61 Q150.718 1178.18 153.241 1178.18 Q157.64 1178.18 159.931 1176.45 Q162.246 1174.71 162.246 1171.4 Q162.246 1168.35 160.093 1166.63 Q157.964 1164.9 154.144 1164.9 L150.116 1164.9 L150.116 1161.05 L154.329 1161.05 Q157.778 1161.05 159.607 1159.69 Q161.436 1158.3 161.436 1155.71 Q161.436 1153.05 159.538 1151.63 Q157.663 1150.2 154.144 1150.2 Q152.223 1150.2 150.024 1150.61 Q147.825 1151.03 145.186 1151.91 L145.186 1147.74 Q147.848 1147 150.163 1146.63 Q152.501 1146.26 154.561 1146.26 Q159.885 1146.26 162.987 1148.69 Q166.089 1151.1 166.089 1155.22 Q166.089 1158.09 164.445 1160.08 Q162.802 1162.05 159.769 1162.81 Z" fill="#000000" fill-rule="nonzero" fill-opacity="1" /><path clip-path="url(#clip460)" d="M185.764 1149.97 Q182.153 1149.97 180.325 1153.53 Q178.519 1157.07 178.519 1164.2 Q178.519 1171.31 180.325 1174.87 Q182.153 1178.42 185.764 1178.42 Q189.399 1178.42 191.204 1174.87 Q193.033 1171.31 193.033 1164.2 Q193.033 1157.07 191.204 1153.53 Q189.399 1149.97 185.764 1149.97 M185.764 1146.26 Q191.575 1146.26 194.63 1150.87 Q197.709 1155.45 197.709 1164.2 Q197.709 1172.93 194.63 1177.54 Q191.575 1182.12 185.764 1182.12 Q179.954 1182.12 176.876 1177.54 Q173.82 1172.93 173.82 1164.2 Q173.82 1155.45 176.876 1150.87 Q179.954 1146.26 185.764 1146.26 Z" fill="#000000" fill-rule="nonzero" fill-opacity="1" /><path clip-path="url(#clip460)" d="M215.926 1149.97 Q212.315 1149.97 210.486 1153.53 Q208.681 1157.07 208.681 1164.2 Q208.681 1171.31 210.486 1174.87 Q212.315 1178.42 215.926 1178.42 Q219.561 1178.42 221.366 1174.87 Q223.195 1171.31 223.195 1164.2 Q223.195 1157.07 221.366 1153.53 Q219.561 1149.97 215.926 1149.97 M215.926 1146.26 Q221.736 1146.26 224.792 1150.87 Q227.871 1155.45 227.871 1164.2 Q227.871 1172.93 224.792 1177.54 Q221.736 1182.12 215.926 1182.12 Q210.116 1182.12 207.037 1177.54 Q203.982 1172.93 203.982 1164.2 Q203.982 1155.45 207.037 1150.87 Q210.116 1146.26 215.926 1146.26 Z" fill="#000000" fill-rule="nonzero" fill-opacity="1" /><path clip-path="url(#clip460)" d="M246.088 1149.97 Q242.477 1149.97 240.648 1153.53 Q238.843 1157.07 238.843 1164.2 Q238.843 1171.31 240.648 1174.87 Q242.477 1178.42 246.088 1178.42 Q249.722 1178.42 251.528 1174.87 Q253.357 1171.31 253.357 1164.2 Q253.357 1157.07 251.528 1153.53 Q249.722 1149.97 246.088 1149.97 M246.088 1146.26 Q251.898 1146.26 254.954 1150.87 Q258.033 1155.45 258.033 1164.2 Q258.033 1172.93 254.954 1177.54 Q251.898 1182.12 246.088 1182.12 Q240.278 1182.12 237.199 1177.54 Q234.144 1172.93 234.144 1164.2 Q234.144 1155.45 237.199 1150.87 Q240.278 1146.26 246.088 1146.26 Z" fill="#000000" fill-rule="nonzero" fill-opacity="1" /><path clip-path="url(#clip460)" d="M114.26 875.199 L136.482 875.199 L136.482 877.19 L123.936 909.759 L119.052 909.759 L130.857 879.134 L114.26 879.134 L114.26 875.199 Z" fill="#000000" fill-rule="nonzero" fill-opacity="1" /><path clip-path="url(#clip460)" d="M158.45 879.273 L146.644 897.722 L158.45 897.722 L158.45 879.273 M157.223 875.199 L163.102 875.199 L163.102 897.722 L168.033 897.722 L168.033 901.611 L163.102 901.611 L163.102 909.759 L158.45 909.759 L158.45 901.611 L142.848 901.611 L142.848 897.097 L157.223 875.199 Z" fill="#000000" fill-rule="nonzero" fill-opacity="1" /><path clip-path="url(#clip460)" d="M185.764 878.278 Q182.153 878.278 180.325 881.843 Q178.519 885.384 178.519 892.514 Q178.519 899.62 180.325 903.185 Q182.153 906.727 185.764 906.727 Q189.399 906.727 191.204 903.185 Q193.033 899.62 193.033 892.514 Q193.033 885.384 191.204 881.843 Q189.399 878.278 185.764 878.278 M185.764 874.574 Q191.575 874.574 194.63 879.18 Q197.709 883.764 197.709 892.514 Q197.709 901.241 194.63 905.847 Q191.575 910.43 185.764 910.43 Q179.954 910.43 176.876 905.847 Q173.82 901.241 173.82 892.514 Q173.82 883.764 176.876 879.18 Q179.954 874.574 185.764 874.574 Z" fill="#000000" fill-rule="nonzero" fill-opacity="1" /><path clip-path="url(#clip460)" d="M215.926 878.278 Q212.315 878.278 210.486 881.843 Q208.681 885.384 208.681 892.514 Q208.681 899.62 210.486 903.185 Q212.315 906.727 215.926 906.727 Q219.561 906.727 221.366 903.185 Q223.195 899.62 223.195 892.514 Q223.195 885.384 221.366 881.843 Q219.561 878.278 215.926 878.278 M215.926 874.574 Q221.736 874.574 224.792 879.18 Q227.871 883.764 227.871 892.514 Q227.871 901.241 224.792 905.847 Q221.736 910.43 215.926 910.43 Q210.116 910.43 207.037 905.847 Q203.982 901.241 203.982 892.514 Q203.982 883.764 207.037 879.18 Q210.116 874.574 215.926 874.574 Z" fill="#000000" fill-rule="nonzero" fill-opacity="1" /><path clip-path="url(#clip460)" d="M246.088 878.278 Q242.477 878.278 240.648 881.843 Q238.843 885.384 238.843 892.514 Q238.843 899.62 240.648 903.185 Q242.477 906.727 246.088 906.727 Q249.722 906.727 251.528 903.185 Q253.357 899.62 253.357 892.514 Q253.357 885.384 251.528 881.843 Q249.722 878.278 246.088 878.278 M246.088 874.574 Q251.898 874.574 254.954 879.18 Q258.033 883.764 258.033 892.514 Q258.033 901.241 254.954 905.847 Q251.898 910.43 246.088 910.43 Q240.278 910.43 237.199 905.847 Q234.144 901.241 234.144 892.514 Q234.144 883.764 237.199 879.18 Q240.278 874.574 246.088 874.574 Z" fill="#000000" fill-rule="nonzero" fill-opacity="1" /><path clip-path="url(#clip460)" d="M114.26 603.51 L136.482 603.51 L136.482 605.501 L123.936 638.07 L119.052 638.07 L130.857 607.445 L114.26 607.445 L114.26 603.51 Z" fill="#000000" fill-rule="nonzero" fill-opacity="1" /><path clip-path="url(#clip460)" d="M145.649 603.51 L164.005 603.51 L164.005 607.445 L149.931 607.445 L149.931 615.917 Q150.95 615.57 151.968 615.408 Q152.987 615.223 154.005 615.223 Q159.792 615.223 163.172 618.394 Q166.552 621.565 166.552 626.982 Q166.552 632.561 163.079 635.663 Q159.607 638.741 153.288 638.741 Q151.112 638.741 148.843 638.371 Q146.598 638.001 144.191 637.26 L144.191 632.561 Q146.274 633.695 148.496 634.251 Q150.718 634.806 153.195 634.806 Q157.2 634.806 159.538 632.7 Q161.876 630.593 161.876 626.982 Q161.876 623.371 159.538 621.264 Q157.2 619.158 153.195 619.158 Q151.32 619.158 149.445 619.575 Q147.593 619.991 145.649 620.871 L145.649 603.51 Z" fill="#000000" fill-rule="nonzero" fill-opacity="1" /><path clip-path="url(#clip460)" d="M185.764 606.589 Q182.153 606.589 180.325 610.153 Q178.519 613.695 178.519 620.825 Q178.519 627.931 180.325 631.496 Q182.153 635.038 185.764 635.038 Q189.399 635.038 191.204 631.496 Q193.033 627.931 193.033 620.825 Q193.033 613.695 191.204 610.153 Q189.399 606.589 185.764 606.589 M185.764 602.885 Q191.575 602.885 194.63 607.491 Q197.709 612.075 197.709 620.825 Q197.709 629.551 194.63 634.158 Q191.575 638.741 185.764 638.741 Q179.954 638.741 176.876 634.158 Q173.82 629.551 173.82 620.825 Q173.82 612.075 176.876 607.491 Q179.954 602.885 185.764 602.885 Z" fill="#000000" fill-rule="nonzero" fill-opacity="1" /><path clip-path="url(#clip460)" d="M215.926 606.589 Q212.315 606.589 210.486 610.153 Q208.681 613.695 208.681 620.825 Q208.681 627.931 210.486 631.496 Q212.315 635.038 215.926 635.038 Q219.561 635.038 221.366 631.496 Q223.195 627.931 223.195 620.825 Q223.195 613.695 221.366 610.153 Q219.561 606.589 215.926 606.589 M215.926 602.885 Q221.736 602.885 224.792 607.491 Q227.871 612.075 227.871 620.825 Q227.871 629.551 224.792 634.158 Q221.736 638.741 215.926 638.741 Q210.116 638.741 207.037 634.158 Q203.982 629.551 203.982 620.825 Q203.982 612.075 207.037 607.491 Q210.116 602.885 215.926 602.885 Z" fill="#000000" fill-rule="nonzero" fill-opacity="1" /><path clip-path="url(#clip460)" d="M246.088 606.589 Q242.477 606.589 240.648 610.153 Q238.843 613.695 238.843 620.825 Q238.843 627.931 240.648 631.496 Q242.477 635.038 246.088 635.038 Q249.722 635.038 251.528 631.496 Q253.357 627.931 253.357 620.825 Q253.357 613.695 251.528 610.153 Q249.722 606.589 246.088 606.589 M246.088 602.885 Q251.898 602.885 254.954 607.491 Q258.033 612.075 258.033 620.825 Q258.033 629.551 254.954 634.158 Q251.898 638.741 246.088 638.741 Q240.278 638.741 237.199 634.158 Q234.144 629.551 234.144 620.825 Q234.144 612.075 237.199 607.491 Q240.278 602.885 246.088 602.885 Z" fill="#000000" fill-rule="nonzero" fill-opacity="1" /><path clip-path="url(#clip460)" d="M114.26 331.821 L136.482 331.821 L136.482 333.812 L123.936 366.381 L119.052 366.381 L130.857 335.756 L114.26 335.756 L114.26 331.821 Z" fill="#000000" fill-rule="nonzero" fill-opacity="1" /><path clip-path="url(#clip460)" d="M156.181 347.237 Q153.033 347.237 151.181 349.39 Q149.353 351.543 149.353 355.293 Q149.353 359.02 151.181 361.196 Q153.033 363.348 156.181 363.348 Q159.329 363.348 161.158 361.196 Q163.01 359.02 163.01 355.293 Q163.01 351.543 161.158 349.39 Q159.329 347.237 156.181 347.237 M165.464 332.585 L165.464 336.844 Q163.704 336.011 161.899 335.571 Q160.116 335.131 158.357 335.131 Q153.728 335.131 151.274 338.256 Q148.843 341.381 148.496 347.7 Q149.862 345.687 151.922 344.622 Q153.982 343.534 156.459 343.534 Q161.667 343.534 164.677 346.705 Q167.709 349.853 167.709 355.293 Q167.709 360.617 164.561 363.835 Q161.413 367.052 156.181 367.052 Q150.186 367.052 147.015 362.469 Q143.843 357.862 143.843 349.136 Q143.843 340.941 147.732 336.08 Q151.621 331.196 158.172 331.196 Q159.931 331.196 161.714 331.543 Q163.519 331.89 165.464 332.585 Z" fill="#000000" fill-rule="nonzero" fill-opacity="1" /><path clip-path="url(#clip460)" d="M185.764 334.9 Q182.153 334.9 180.325 338.464 Q178.519 342.006 178.519 349.136 Q178.519 356.242 180.325 359.807 Q182.153 363.348 185.764 363.348 Q189.399 363.348 191.204 359.807 Q193.033 356.242 193.033 349.136 Q193.033 342.006 191.204 338.464 Q189.399 334.9 185.764 334.9 M185.764 331.196 Q191.575 331.196 194.63 335.802 Q197.709 340.386 197.709 349.136 Q197.709 357.862 194.63 362.469 Q191.575 367.052 185.764 367.052 Q179.954 367.052 176.876 362.469 Q173.82 357.862 173.82 349.136 Q173.82 340.386 176.876 335.802 Q179.954 331.196 185.764 331.196 Z" fill="#000000" fill-rule="nonzero" fill-opacity="1" /><path clip-path="url(#clip460)" d="M215.926 334.9 Q212.315 334.9 210.486 338.464 Q208.681 342.006 208.681 349.136 Q208.681 356.242 210.486 359.807 Q212.315 363.348 215.926 363.348 Q219.561 363.348 221.366 359.807 Q223.195 356.242 223.195 349.136 Q223.195 342.006 221.366 338.464 Q219.561 334.9 215.926 334.9 M215.926 331.196 Q221.736 331.196 224.792 335.802 Q227.871 340.386 227.871 349.136 Q227.871 357.862 224.792 362.469 Q221.736 367.052 215.926 367.052 Q210.116 367.052 207.037 362.469 Q203.982 357.862 203.982 349.136 Q203.982 340.386 207.037 335.802 Q210.116 331.196 215.926 331.196 Z" fill="#000000" fill-rule="nonzero" fill-opacity="1" /><path clip-path="url(#clip460)" d="M246.088 334.9 Q242.477 334.9 240.648 338.464 Q238.843 342.006 238.843 349.136 Q238.843 356.242 240.648 359.807 Q242.477 363.348 246.088 363.348 Q249.722 363.348 251.528 359.807 Q253.357 356.242 253.357 349.136 Q253.357 342.006 251.528 338.464 Q249.722 334.9 246.088 334.9 M246.088 331.196 Q251.898 331.196 254.954 335.802 Q258.033 340.386 258.033 349.136 Q258.033 357.862 254.954 362.469 Q251.898 367.052 246.088 367.052 Q240.278 367.052 237.199 362.469 Q234.144 357.862 234.144 349.136 Q234.144 340.386 237.199 335.802 Q240.278 331.196 246.088 331.196 Z" fill="#000000" fill-rule="nonzero" fill-opacity="1" /><path clip-path="url(#clip460)" d="M114.26 60.1318 L136.482 60.1318 L136.482 62.1225 L123.936 94.6918 L119.052 94.6918 L130.857 64.0669 L114.26 64.0669 L114.26 60.1318 Z" fill="#000000" fill-rule="nonzero" fill-opacity="1" /><path clip-path="url(#clip460)" d="M144.422 60.1318 L166.644 60.1318 L166.644 62.1225 L154.098 94.6918 L149.214 94.6918 L161.019 64.0669 L144.422 64.0669 L144.422 60.1318 Z" fill="#000000" fill-rule="nonzero" fill-opacity="1" /><path clip-path="url(#clip460)" d="M185.764 63.2105 Q182.153 63.2105 180.325 66.7753 Q178.519 70.3169 178.519 77.4465 Q178.519 84.5529 180.325 88.1177 Q182.153 91.6594 185.764 91.6594 Q189.399 91.6594 191.204 88.1177 Q193.033 84.5529 193.033 77.4465 Q193.033 70.3169 191.204 66.7753 Q189.399 63.2105 185.764 63.2105 M185.764 59.5068 Q191.575 59.5068 194.63 64.1132 Q197.709 68.6965 197.709 77.4465 Q197.709 86.1733 194.63 90.7798 Q191.575 95.3631 185.764 95.3631 Q179.954 95.3631 176.876 90.7798 Q173.82 86.1733 173.82 77.4465 Q173.82 68.6965 176.876 64.1132 Q179.954 59.5068 185.764 59.5068 Z" fill="#000000" fill-rule="nonzero" fill-opacity="1" /><path clip-path="url(#clip460)" d="M215.926 63.2105 Q212.315 63.2105 210.486 66.7753 Q208.681 70.3169 208.681 77.4465 Q208.681 84.5529 210.486 88.1177 Q212.315 91.6594 215.926 91.6594 Q219.561 91.6594 221.366 88.1177 Q223.195 84.5529 223.195 77.4465 Q223.195 70.3169 221.366 66.7753 Q219.561 63.2105 215.926 63.2105 M215.926 59.5068 Q221.736 59.5068 224.792 64.1132 Q227.871 68.6965 227.871 77.4465 Q227.871 86.1733 224.792 90.7798 Q221.736 95.3631 215.926 95.3631 Q210.116 95.3631 207.037 90.7798 Q203.982 86.1733 203.982 77.4465 Q203.982 68.6965 207.037 64.1132 Q210.116 59.5068 215.926 59.5068 Z" fill="#000000" fill-rule="nonzero" fill-opacity="1" /><path clip-path="url(#clip460)" d="M246.088 63.2105 Q242.477 63.2105 240.648 66.7753 Q238.843 70.3169 238.843 77.4465 Q238.843 84.5529 240.648 88.1177 Q242.477 91.6594 246.088 91.6594 Q249.722 91.6594 251.528 88.1177 Q253.357 84.5529 253.357 77.4465 Q253.357 70.3169 251.528 66.7753 Q249.722 63.2105 246.088 63.2105 M246.088 59.5068 Q251.898 59.5068 254.954 64.1132 Q258.033 68.6965 258.033 77.4465 Q258.033 86.1733 254.954 90.7798 Q251.898 95.3631 246.088 95.3631 Q240.278 95.3631 237.199 90.7798 Q234.144 86.1733 234.144 77.4465 Q234.144 68.6965 237.199 64.1132 Q240.278 59.5068 246.088 59.5068 Z" fill="#000000" fill-rule="nonzero" fill-opacity="1" /><path clip-path="url(#clip460)" d="M57.2247 767.136 L44.4614 767.136 L44.4614 777.639 L39.1779 777.639 L39.1779 760.77 L59.58 760.77 Q62.2218 764.494 63.5904 768.982 Q64.9272 773.47 64.9272 778.562 Q64.9272 789.702 58.4342 796.004 Q51.9093 802.275 40.2919 802.275 Q28.6427 802.275 22.1496 796.004 Q15.6248 789.702 15.6248 778.562 Q15.6248 773.915 16.7706 769.746 Q17.9164 765.545 20.1444 762.012 L26.9876 762.012 Q23.9639 765.576 22.4361 769.587 Q20.9083 773.597 20.9083 778.021 Q20.9083 786.742 25.7781 791.135 Q30.6479 795.495 40.2919 795.495 Q49.9041 795.495 54.7739 791.135 Q59.6436 786.742 59.6436 778.021 Q59.6436 774.616 59.0707 771.942 Q58.466 769.268 57.2247 767.136 Z" fill="#000000" fill-rule="nonzero" fill-opacity="1" /><path clip-path="url(#clip460)" d="M21.7677 742.596 L58.7206 742.596 L58.7206 734.83 Q58.7206 724.995 54.2646 720.444 Q49.8086 715.86 40.1964 715.86 Q30.6479 715.86 26.2237 720.444 Q21.7677 724.995 21.7677 734.83 L21.7677 742.596 M16.4842 749.026 L16.4842 735.817 Q16.4842 722.003 22.2451 715.542 Q27.9743 709.081 40.1964 709.081 Q52.4822 709.081 58.2432 715.574 Q64.0042 722.067 64.0042 735.817 L64.0042 749.026 L16.4842 749.026 Z" fill="#000000" fill-rule="nonzero" fill-opacity="1" /><path clip-path="url(#clip460)" d="M21.7677 692.403 L39.6235 692.403 L39.6235 684.318 Q39.6235 679.83 37.3 677.38 Q34.9765 674.929 30.6797 674.929 Q26.4147 674.929 24.0912 677.38 Q21.7677 679.83 21.7677 684.318 L21.7677 692.403 M16.4842 698.832 L16.4842 684.318 Q16.4842 676.329 20.1126 672.255 Q23.7092 668.149 30.6797 668.149 Q37.7138 668.149 41.3104 672.255 Q44.907 676.329 44.907 684.318 L44.907 692.403 L64.0042 692.403 L64.0042 698.832 L16.4842 698.832 Z" fill="#000000" fill-rule="nonzero" fill-opacity="1" /><path clip-path="url(#clip462)" d="M352.298 1321.2 L449.408 1325.33 L546.517 1344.05 L643.627 1351.13 L740.737 1384.24 L837.846 1335.92 L934.956 1299.11 L1032.07 1281.86 L1129.18 1249.02 L1226.28 1211.28 L1323.39 1199.99 L1420.5 1197.73 L1517.61 1237.54 L1614.72 1246.41 L1711.83 1262.12 L1808.94 1241.88 L1906.05 1205.9 L2003.16 1146.25 L2100.27 1081.15 L2197.38 1009.73 L2294.49 976.529 L2294.49 361.802 L2197.38 424.761 L2100.27 505.914 L2003.16 637.362 L1906.05 724.708 L1808.94 789.564 L1711.83 815.117 L1614.72 838.052 L1517.61 861.533 L1420.5 892.787 L1323.39 929.691 L1226.28 1000.14 L1129.18 1061.47 L1032.07 1130.61 L934.956 1184.97 L837.846 1222.39 L740.737 1276.77 L643.627 1284.22 L546.517 1291.97 L449.408 1323.28 L352.298 1321.2  Z" fill="#009af9" fill-rule="evenodd" fill-opacity="0.1"/>
<polyline clip-path="url(#clip462)" style="stroke:#009af9; stroke-linecap:round; stroke-linejoin:round; stroke-width:4; stroke-opacity:1; fill:none" points="352.298,1321.2 449.408,1324.3 546.517,1318.01 643.627,1317.67 740.737,1330.51 837.846,1279.16 934.956,1242.04 1032.07,1206.23 1129.18,1155.25 1226.28,1105.71 1323.39,1064.84 1420.5,1045.26 1517.61,1049.53 1614.72,1042.23 1711.83,1038.62 1808.94,1015.72 1906.05,965.303 2003.16,891.804 2100.27,793.532 2197.38,717.246 2294.49,669.165 "/>
<path clip-path="url(#clip462)" d="M352.298 1321.2 L449.408 1328.43 L546.517 1322.81 L643.627 1283.21 L740.737 1167.53 L837.846 1119.44 L934.956 1049.63 L1032.07 1069.88 L1129.18 1073.6 L1226.28 1064.53 L1323.39 1008.03 L1420.5 952.517 L1517.61 927.603 L1614.72 903.696 L1711.83 870.453 L1808.94 854.014 L1906.05 787.887 L2003.16 743.72 L2100.27 620.508 L2197.38 545.322 L2294.49 444.472 L2294.49 86.1857 L2197.38 162.037 L2100.27 229.032 L2003.16 348.157 L1906.05 422.963 L1808.94 544.716 L1711.83 634.503 L1614.72 714.888 L1517.61 798.203 L1420.5 928.611 L1323.39 948.065 L1226.28 980.076 L1129.18 1041.37 L1032.07 1059.54 L934.956 1037.06 L837.846 1077.73 L740.737 1122.99 L643.627 1234.8 L546.517 1270.93 L449.408 1325.44 L352.298 1321.2  Z" fill="#e26f46" fill-rule="evenodd" fill-opacity="0.1"/>
<polyline clip-path="url(#clip462)" style="stroke:#e26f46; stroke-linecap:round; stroke-linejoin:round; stroke-width:4; stroke-opacity:1; fill:none" points="352.298,1321.2 449.408,1326.93 546.517,1296.87 643.627,1259 740.737,1145.26 837.846,1098.59 934.956,1043.35 1032.07,1064.71 1129.18,1057.48 1226.28,1022.3 1323.39,978.048 1420.5,940.564 1517.61,862.903 1614.72,809.292 1711.83,752.478 1808.94,699.365 1906.05,605.425 2003.16,545.938 2100.27,424.77 2197.38,353.68 2294.49,265.329 "/>
<path clip-path="url(#clip460)" d="M362.657 248.629 L760.264 248.629 L760.264 93.1086 L362.657 93.1086  Z" fill="#ffffff" fill-rule="evenodd" fill-opacity="1"/>
<polyline clip-path="url(#clip460)" style="stroke:#000000; stroke-linecap:round; stroke-linejoin:round; stroke-width:4; stroke-opacity:1; fill:none" points="362.657,248.629 760.264,248.629 760.264,93.1086 362.657,93.1086 362.657,248.629 "/>
<polyline clip-path="url(#clip460)" style="stroke:#009af9; stroke-linecap:round; stroke-linejoin:round; stroke-width:4; stroke-opacity:1; fill:none" points="385.531,144.949 522.78,144.949 "/>
<path clip-path="url(#clip460)" d="M564.427 149.289 Q564.427 144.59 562.483 141.928 Q560.562 139.243 557.182 139.243 Q553.802 139.243 551.858 141.928 Q549.937 144.59 549.937 149.289 Q549.937 153.988 551.858 156.673 Q553.802 159.335 557.182 159.335 Q560.562 159.335 562.483 156.673 Q564.427 153.988 564.427 149.289 M549.937 140.238 Q551.279 137.923 553.316 136.812 Q555.376 135.678 558.224 135.678 Q562.946 135.678 565.886 139.428 Q568.849 143.178 568.849 149.289 Q568.849 155.4 565.886 159.15 Q562.946 162.9 558.224 162.9 Q555.376 162.9 553.316 161.789 Q551.279 160.655 549.937 158.34 L549.937 162.229 L545.654 162.229 L545.654 126.21 L549.937 126.21 L549.937 140.238 Z" fill="#000000" fill-rule="nonzero" fill-opacity="1" /><path clip-path="url(#clip460)" d="M587.691 149.196 Q582.529 149.196 580.538 150.377 Q578.548 151.557 578.548 154.405 Q578.548 156.673 580.029 158.016 Q581.534 159.335 584.103 159.335 Q587.645 159.335 589.774 156.835 Q591.927 154.312 591.927 150.145 L591.927 149.196 L587.691 149.196 M596.186 147.437 L596.186 162.229 L591.927 162.229 L591.927 158.293 Q590.469 160.655 588.293 161.789 Q586.117 162.9 582.969 162.9 Q578.987 162.9 576.626 160.678 Q574.288 158.432 574.288 154.682 Q574.288 150.307 577.205 148.085 Q580.145 145.863 585.955 145.863 L591.927 145.863 L591.927 145.446 Q591.927 142.507 589.983 140.909 Q588.061 139.289 584.566 139.289 Q582.344 139.289 580.237 139.821 Q578.131 140.354 576.187 141.419 L576.187 137.483 Q578.524 136.581 580.724 136.141 Q582.923 135.678 585.006 135.678 Q590.631 135.678 593.409 138.594 Q596.186 141.511 596.186 147.437 Z" fill="#000000" fill-rule="nonzero" fill-opacity="1" /><path clip-path="url(#clip460)" d="M621.487 137.067 L621.487 141.094 Q619.682 140.169 617.737 139.706 Q615.793 139.243 613.709 139.243 Q610.538 139.243 608.941 140.215 Q607.367 141.187 607.367 143.131 Q607.367 144.613 608.501 145.469 Q609.635 146.303 613.061 147.067 L614.52 147.391 Q619.057 148.363 620.955 150.145 Q622.876 151.905 622.876 155.076 Q622.876 158.687 620.006 160.793 Q617.159 162.9 612.159 162.9 Q610.075 162.9 607.807 162.483 Q605.561 162.09 603.061 161.28 L603.061 156.881 Q605.422 158.108 607.714 158.733 Q610.006 159.335 612.251 159.335 Q615.26 159.335 616.881 158.317 Q618.501 157.275 618.501 155.4 Q618.501 153.664 617.321 152.738 Q616.163 151.812 612.205 150.956 L610.723 150.608 Q606.765 149.775 605.006 148.062 Q603.247 146.326 603.247 143.317 Q603.247 139.659 605.839 137.669 Q608.432 135.678 613.2 135.678 Q615.561 135.678 617.645 136.025 Q619.728 136.372 621.487 137.067 Z" fill="#000000" fill-rule="nonzero" fill-opacity="1" /><path clip-path="url(#clip460)" d="M651.834 148.201 L651.834 150.284 L632.251 150.284 Q632.529 154.682 634.89 156.997 Q637.274 159.289 641.51 159.289 Q643.964 159.289 646.256 158.687 Q648.57 158.085 650.839 156.881 L650.839 160.909 Q648.547 161.881 646.14 162.391 Q643.732 162.9 641.256 162.9 Q635.052 162.9 631.418 159.289 Q627.807 155.678 627.807 149.52 Q627.807 143.155 631.233 139.428 Q634.682 135.678 640.515 135.678 Q645.746 135.678 648.779 139.057 Q651.834 142.414 651.834 148.201 M647.575 146.951 Q647.529 143.456 645.607 141.372 Q643.709 139.289 640.561 139.289 Q636.996 139.289 634.844 141.303 Q632.714 143.317 632.39 146.974 L647.575 146.951 Z" fill="#000000" fill-rule="nonzero" fill-opacity="1" /><path clip-path="url(#clip460)" d="M658.825 126.21 L663.084 126.21 L663.084 162.229 L658.825 162.229 L658.825 126.21 Z" fill="#000000" fill-rule="nonzero" fill-opacity="1" /><path clip-path="url(#clip460)" d="M671.996 136.303 L676.255 136.303 L676.255 162.229 L671.996 162.229 L671.996 136.303 M671.996 126.21 L676.255 126.21 L676.255 131.604 L671.996 131.604 L671.996 126.21 Z" fill="#000000" fill-rule="nonzero" fill-opacity="1" /><path clip-path="url(#clip460)" d="M706.718 146.581 L706.718 162.229 L702.459 162.229 L702.459 146.719 Q702.459 143.039 701.024 141.21 Q699.589 139.382 696.718 139.382 Q693.269 139.382 691.279 141.581 Q689.288 143.78 689.288 147.576 L689.288 162.229 L685.005 162.229 L685.005 136.303 L689.288 136.303 L689.288 140.331 Q690.816 137.993 692.876 136.835 Q694.959 135.678 697.667 135.678 Q702.135 135.678 704.427 138.456 Q706.718 141.21 706.718 146.581 Z" fill="#000000" fill-rule="nonzero" fill-opacity="1" /><path clip-path="url(#clip460)" d="M737.389 148.201 L737.389 150.284 L717.806 150.284 Q718.084 154.682 720.445 156.997 Q722.829 159.289 727.065 159.289 Q729.519 159.289 731.811 158.687 Q734.125 158.085 736.394 156.881 L736.394 160.909 Q734.102 161.881 731.695 162.391 Q729.288 162.9 726.811 162.9 Q720.607 162.9 716.973 159.289 Q713.362 155.678 713.362 149.52 Q713.362 143.155 716.788 139.428 Q720.237 135.678 726.07 135.678 Q731.301 135.678 734.334 139.057 Q737.389 142.414 737.389 148.201 M733.13 146.951 Q733.084 143.456 731.163 141.372 Q729.264 139.289 726.116 139.289 Q722.551 139.289 720.399 141.303 Q718.269 143.317 717.945 146.974 L733.13 146.951 Z" fill="#000000" fill-rule="nonzero" fill-opacity="1" /><polyline clip-path="url(#clip460)" style="stroke:#e26f46; stroke-linecap:round; stroke-linejoin:round; stroke-width:4; stroke-opacity:1; fill:none" points="385.531,196.789 522.78,196.789 "/>
<path clip-path="url(#clip460)" d="M564.08 188.907 L564.08 192.934 Q562.275 192.009 560.33 191.546 Q558.386 191.083 556.302 191.083 Q553.131 191.083 551.534 192.055 Q549.96 193.027 549.96 194.971 Q549.96 196.453 551.094 197.309 Q552.228 198.143 555.654 198.907 L557.113 199.231 Q561.65 200.203 563.548 201.985 Q565.469 203.745 565.469 206.916 Q565.469 210.527 562.599 212.633 Q559.751 214.74 554.751 214.74 Q552.668 214.74 550.4 214.323 Q548.154 213.93 545.654 213.12 L545.654 208.721 Q548.015 209.948 550.307 210.573 Q552.599 211.175 554.844 211.175 Q557.853 211.175 559.474 210.157 Q561.094 209.115 561.094 207.24 Q561.094 205.504 559.913 204.578 Q558.756 203.652 554.798 202.796 L553.316 202.448 Q549.358 201.615 547.599 199.902 Q545.839 198.166 545.839 195.157 Q545.839 191.499 548.432 189.509 Q551.025 187.518 555.793 187.518 Q558.154 187.518 560.238 187.865 Q562.321 188.212 564.08 188.907 Z" fill="#000000" fill-rule="nonzero" fill-opacity="1" /><path clip-path="url(#clip460)" d="M593.802 198.421 L593.802 214.069 L589.543 214.069 L589.543 198.559 Q589.543 194.879 588.108 193.05 Q586.673 191.222 583.802 191.222 Q580.353 191.222 578.362 193.421 Q576.372 195.62 576.372 199.416 L576.372 214.069 L572.089 214.069 L572.089 178.05 L576.372 178.05 L576.372 192.171 Q577.899 189.833 579.96 188.675 Q582.043 187.518 584.751 187.518 Q589.219 187.518 591.511 190.296 Q593.802 193.05 593.802 198.421 Z" fill="#000000" fill-rule="nonzero" fill-opacity="1" /><path clip-path="url(#clip460)" d="M612.344 191.129 Q608.918 191.129 606.927 193.814 Q604.936 196.476 604.936 201.129 Q604.936 205.782 606.904 208.467 Q608.895 211.129 612.344 211.129 Q615.746 211.129 617.737 208.444 Q619.728 205.758 619.728 201.129 Q619.728 196.522 617.737 193.837 Q615.746 191.129 612.344 191.129 M612.344 187.518 Q617.899 187.518 621.071 191.129 Q624.242 194.74 624.242 201.129 Q624.242 207.495 621.071 211.129 Q617.899 214.74 612.344 214.74 Q606.765 214.74 603.594 211.129 Q600.446 207.495 600.446 201.129 Q600.446 194.74 603.594 191.129 Q606.765 187.518 612.344 187.518 Z" fill="#000000" fill-rule="nonzero" fill-opacity="1" /><path clip-path="url(#clip460)" d="M649.959 189.138 L649.959 193.12 Q648.154 192.124 646.325 191.638 Q644.519 191.129 642.668 191.129 Q638.524 191.129 636.232 193.768 Q633.941 196.384 633.941 201.129 Q633.941 205.874 636.232 208.513 Q638.524 211.129 642.668 211.129 Q644.519 211.129 646.325 210.643 Q648.154 210.133 649.959 209.138 L649.959 213.073 Q648.177 213.907 646.256 214.323 Q644.357 214.74 642.205 214.74 Q636.348 214.74 632.899 211.059 Q629.45 207.379 629.45 201.129 Q629.45 194.786 632.922 191.152 Q636.418 187.518 642.482 187.518 Q644.45 187.518 646.325 187.935 Q648.2 188.328 649.959 189.138 Z" fill="#000000" fill-rule="nonzero" fill-opacity="1" /><path clip-path="url(#clip460)" d="M657.205 178.05 L661.487 178.05 L661.487 199.323 L674.195 188.143 L679.635 188.143 L665.885 200.272 L680.214 214.069 L674.658 214.069 L661.487 201.407 L661.487 214.069 L657.205 214.069 L657.205 178.05 Z" fill="#000000" fill-rule="nonzero" fill-opacity="1" /></svg>
