<?xml version="1.0" encoding="utf-8"?>
<svg xmlns="http://www.w3.org/2000/svg" xmlns:xlink="http://www.w3.org/1999/xlink" width="600" height="400" viewBox="0 0 2400 1600">
<defs>
  <clipPath id="clip200">
    <rect x="0" y="0" width="2400" height="1600"/>
  </clipPath>
</defs>
<path clip-path="url(#clip200)" d="M0 1600 L2400 1600 L2400 0 L0 0  Z" fill="#ffffff" fill-rule="evenodd" fill-opacity="1"/>
<defs>
  <clipPath id="clip201">
    <rect x="230" y="106" width="2123" height="1381"/>
  </clipPath>
</defs>
<path clip-path="url(#clip200)" d="M230.765 1486.45 L2352.76 1486.45 L2352.76 106.192 L230.765 106.192  Z" fill="#ffffff" fill-rule="evenodd" fill-opacity="1"/>
<polyline clip-path="url(#clip201)" style="stroke:#000000; stroke-linecap:round; stroke-linejoin:round; stroke-width:2; stroke-opacity:0.1; fill:none" points="541.056,1486.45 541.056,106.192 "/>
<polyline clip-path="url(#clip201)" style="stroke:#000000; stroke-linecap:round; stroke-linejoin:round; stroke-width:2; stroke-opacity:0.1; fill:none" points="916.408,1486.45 916.408,106.192 "/>
<polyline clip-path="url(#clip201)" style="stroke:#000000; stroke-linecap:round; stroke-linejoin:round; stroke-width:2; stroke-opacity:0.1; fill:none" points="1291.76,1486.45 1291.76,106.192 "/>
<polyline clip-path="url(#clip201)" style="stroke:#000000; stroke-linecap:round; stroke-linejoin:round; stroke-width:2; stroke-opacity:0.1; fill:none" points="1667.11,1486.45 1667.11,106.192 "/>
<polyline clip-path="url(#clip201)" style="stroke:#000000; stroke-linecap:round; stroke-linejoin:round; stroke-width:2; stroke-opacity:0.1; fill:none" points="2042.46,1486.45 2042.46,106.192 "/>
<polyline clip-path="url(#clip201)" style="stroke:#000000; stroke-linecap:round; stroke-linejoin:round; stroke-width:2; stroke-opacity:0.1; fill:none" points="230.765,1274.95 2352.76,1274.95 "/>
<polyline clip-path="url(#clip201)" style="stroke:#000000; stroke-linecap:round; stroke-linejoin:round; stroke-width:2; stroke-opacity:0.1; fill:none" points="230.765,976.632 2352.76,976.632 "/>
<polyline clip-path="url(#clip201)" style="stroke:#000000; stroke-linecap:round; stroke-linejoin:round; stroke-width:2; stroke-opacity:0.1; fill:none" points="230.765,678.309 2352.76,678.309 "/>
<polyline clip-path="url(#clip201)" style="stroke:#000000; stroke-linecap:round; stroke-linejoin:round; stroke-width:2; stroke-opacity:0.1; fill:none" points="230.765,379.987 2352.76,379.987 "/>
<polyline clip-path="url(#clip200)" style="stroke:#000000; stroke-linecap:round; stroke-linejoin:round; stroke-width:4; stroke-opacity:1; fill:none" points="230.765,1486.45 2352.76,1486.45 "/>
<polyline clip-path="url(#clip200)" style="stroke:#000000; stroke-linecap:round; stroke-linejoin:round; stroke-width:4; stroke-opacity:1; fill:none" points="541.056,1486.45 541.056,1467.55 "/>
<polyline clip-path="url(#clip200)" style="stroke:#000000; stroke-linecap:round; stroke-linejoin:round; stroke-width:4; stroke-opacity:1; fill:none" points="916.408,1486.45 916.408,1467.55 "/>
<polyline clip-path="url(#clip200)" style="stroke:#000000; stroke-linecap:round; stroke-linejoin:round; stroke-width:4; stroke-opacity:1; fill:none" points="1291.76,1486.45 1291.76,1467.55 "/>
<polyline clip-path="url(#clip200)" style="stroke:#000000; stroke-linecap:round; stroke-linejoin:round; stroke-width:4; stroke-opacity:1; fill:none" points="1667.11,1486.45 1667.11,1467.55 "/>
<polyline clip-path="url(#clip200)" style="stroke:#000000; stroke-linecap:round; stroke-linejoin:round; stroke-width:4; stroke-opacity:1; fill:none" points="2042.46,1486.45 2042.46,1467.55 "/>
<path clip-path="url(#clip200)" d="M545.303 1530.21 Q548.66 1530.93 550.535 1533.2 Q552.433 1535.47 552.433 1538.8 Q552.433 1543.92 548.914 1546.72 Q545.396 1549.52 538.915 1549.52 Q536.739 1549.52 534.424 1549.08 Q532.132 1548.66 529.678 1547.81 L529.678 1543.29 Q531.623 1544.43 533.938 1545.01 Q536.252 1545.58 538.776 1545.58 Q543.174 1545.58 545.465 1543.85 Q547.78 1542.11 547.78 1538.8 Q547.78 1535.75 545.627 1534.03 Q543.498 1532.3 539.678 1532.3 L535.651 1532.3 L535.651 1528.45 L539.864 1528.45 Q543.313 1528.45 545.141 1527.09 Q546.97 1525.7 546.97 1523.11 Q546.97 1520.45 545.072 1519.03 Q543.197 1517.6 539.678 1517.6 Q537.757 1517.6 535.558 1518.01 Q533.359 1518.43 530.72 1519.31 L530.72 1515.14 Q533.382 1514.4 535.697 1514.03 Q538.035 1513.66 540.095 1513.66 Q545.419 1513.66 548.521 1516.09 Q551.623 1518.5 551.623 1522.62 Q551.623 1525.49 549.979 1527.48 Q548.336 1529.45 545.303 1530.21 Z" fill="#000000" fill-rule="nonzero" fill-opacity="1" /><path clip-path="url(#clip200)" d="M916.813 1529.7 Q913.665 1529.7 911.813 1531.86 Q909.984 1534.01 909.984 1537.76 Q909.984 1541.49 911.813 1543.66 Q913.665 1545.82 916.813 1545.82 Q919.961 1545.82 921.79 1543.66 Q923.642 1541.49 923.642 1537.76 Q923.642 1534.01 921.79 1531.86 Q919.961 1529.7 916.813 1529.7 M926.095 1515.05 L926.095 1519.31 Q924.336 1518.48 922.531 1518.04 Q920.748 1517.6 918.989 1517.6 Q914.359 1517.6 911.906 1520.72 Q909.475 1523.85 909.128 1530.17 Q910.494 1528.15 912.554 1527.09 Q914.614 1526 917.091 1526 Q922.299 1526 925.308 1529.17 Q928.341 1532.32 928.341 1537.76 Q928.341 1543.08 925.193 1546.3 Q922.044 1549.52 916.813 1549.52 Q910.818 1549.52 907.646 1544.94 Q904.475 1540.33 904.475 1531.6 Q904.475 1523.41 908.364 1518.55 Q912.253 1513.66 918.804 1513.66 Q920.563 1513.66 922.345 1514.01 Q924.151 1514.36 926.095 1515.05 Z" fill="#000000" fill-rule="nonzero" fill-opacity="1" /><path clip-path="url(#clip200)" d="M1282.06 1548.13 L1282.06 1543.87 Q1283.82 1544.7 1285.63 1545.14 Q1287.43 1545.58 1289.17 1545.58 Q1293.8 1545.58 1296.23 1542.48 Q1298.68 1539.36 1299.03 1533.01 Q1297.69 1535.01 1295.63 1536.07 Q1293.57 1537.13 1291.07 1537.13 Q1285.88 1537.13 1282.85 1534.01 Q1279.84 1530.86 1279.84 1525.42 Q1279.84 1520.1 1282.99 1516.88 Q1286.14 1513.66 1291.37 1513.66 Q1297.36 1513.66 1300.51 1518.27 Q1303.68 1522.85 1303.68 1531.6 Q1303.68 1539.77 1299.79 1544.66 Q1295.93 1549.52 1289.38 1549.52 Q1287.62 1549.52 1285.81 1549.17 Q1284.01 1548.82 1282.06 1548.13 M1291.37 1533.48 Q1294.51 1533.48 1296.34 1531.32 Q1298.2 1529.17 1298.2 1525.42 Q1298.2 1521.7 1296.34 1519.54 Q1294.51 1517.37 1291.37 1517.37 Q1288.22 1517.37 1286.37 1519.54 Q1284.54 1521.7 1284.54 1525.42 Q1284.54 1529.17 1286.37 1531.32 Q1288.22 1533.48 1291.37 1533.48 Z" fill="#000000" fill-rule="nonzero" fill-opacity="1" /><path clip-path="url(#clip200)" d="M1642.6 1544.91 L1650.24 1544.91 L1650.24 1518.55 L1641.93 1520.21 L1641.93 1515.95 L1650.19 1514.29 L1654.87 1514.29 L1654.87 1544.91 L1662.51 1544.91 L1662.51 1548.85 L1642.6 1548.85 L1642.6 1544.91 Z" fill="#000000" fill-rule="nonzero" fill-opacity="1" /><path clip-path="url(#clip200)" d="M1675.98 1544.91 L1692.3 1544.91 L1692.3 1548.85 L1670.35 1548.85 L1670.35 1544.91 Q1673.02 1542.16 1677.6 1537.53 Q1682.2 1532.88 1683.39 1531.53 Q1685.63 1529.01 1686.51 1527.27 Q1687.41 1525.51 1687.41 1523.82 Q1687.41 1521.07 1685.47 1519.33 Q1683.55 1517.6 1680.45 1517.6 Q1678.25 1517.6 1675.79 1518.36 Q1673.36 1519.13 1670.58 1520.68 L1670.58 1515.95 Q1673.41 1514.82 1675.86 1514.24 Q1678.32 1513.66 1680.35 1513.66 Q1685.72 1513.66 1688.92 1516.35 Q1692.11 1519.03 1692.11 1523.52 Q1692.11 1525.65 1691.3 1527.57 Q1690.52 1529.47 1688.41 1532.07 Q1687.83 1532.74 1684.73 1535.95 Q1681.63 1539.15 1675.98 1544.91 Z" fill="#000000" fill-rule="nonzero" fill-opacity="1" /><path clip-path="url(#clip200)" d="M2017.65 1544.91 L2025.29 1544.91 L2025.29 1518.55 L2016.98 1520.21 L2016.98 1515.95 L2025.24 1514.29 L2029.92 1514.29 L2029.92 1544.91 L2037.56 1544.91 L2037.56 1548.85 L2017.65 1548.85 L2017.65 1544.91 Z" fill="#000000" fill-rule="nonzero" fill-opacity="1" /><path clip-path="url(#clip200)" d="M2047.05 1514.29 L2065.4 1514.29 L2065.4 1518.22 L2051.33 1518.22 L2051.33 1526.7 Q2052.35 1526.35 2053.37 1526.19 Q2054.39 1526 2055.4 1526 Q2061.19 1526 2064.57 1529.17 Q2067.95 1532.34 2067.95 1537.76 Q2067.95 1543.34 2064.48 1546.44 Q2061.01 1549.52 2054.69 1549.52 Q2052.51 1549.52 2050.24 1549.15 Q2048 1548.78 2045.59 1548.04 L2045.59 1543.34 Q2047.67 1544.47 2049.9 1545.03 Q2052.12 1545.58 2054.59 1545.58 Q2058.6 1545.58 2060.94 1543.48 Q2063.27 1541.37 2063.27 1537.76 Q2063.27 1534.15 2060.94 1532.04 Q2058.6 1529.94 2054.59 1529.94 Q2052.72 1529.94 2050.84 1530.35 Q2048.99 1530.77 2047.05 1531.65 L2047.05 1514.29 Z" fill="#000000" fill-rule="nonzero" fill-opacity="1" /><polyline clip-path="url(#clip200)" style="stroke:#000000; stroke-linecap:round; stroke-linejoin:round; stroke-width:4; stroke-opacity:1; fill:none" points="230.765,1486.45 230.765,106.192 "/>
<polyline clip-path="url(#clip200)" style="stroke:#000000; stroke-linecap:round; stroke-linejoin:round; stroke-width:4; stroke-opacity:1; fill:none" points="230.765,1274.95 249.662,1274.95 "/>
<polyline clip-path="url(#clip200)" style="stroke:#000000; stroke-linecap:round; stroke-linejoin:round; stroke-width:4; stroke-opacity:1; fill:none" points="230.765,976.632 249.662,976.632 "/>
<polyline clip-path="url(#clip200)" style="stroke:#000000; stroke-linecap:round; stroke-linejoin:round; stroke-width:4; stroke-opacity:1; fill:none" points="230.765,678.309 249.662,678.309 "/>
<polyline clip-path="url(#clip200)" style="stroke:#000000; stroke-linecap:round; stroke-linejoin:round; stroke-width:4; stroke-opacity:1; fill:none" points="230.765,379.987 249.662,379.987 "/>
<path clip-path="url(#clip200)" d="M50.9921 1257.67 L73.2142 1257.67 L73.2142 1259.66 L60.668 1292.23 L55.7838 1292.23 L67.5893 1261.61 L50.9921 1261.61 L50.9921 1257.67 Z" fill="#000000" fill-rule="nonzero" fill-opacity="1" /><path clip-path="url(#clip200)" d="M96.5011 1273.6 Q99.8576 1274.32 101.733 1276.59 Q103.631 1278.85 103.631 1282.19 Q103.631 1287.3 100.112 1290.1 Q96.5937 1292.91 90.1123 1292.91 Q87.9364 1292.91 85.6216 1292.47 Q83.3299 1292.05 80.8762 1291.19 L80.8762 1286.68 Q82.8207 1287.81 85.1355 1288.39 Q87.4503 1288.97 89.9734 1288.97 Q94.3715 1288.97 96.6632 1287.23 Q98.978 1285.5 98.978 1282.19 Q98.978 1279.13 96.8252 1277.42 Q94.6956 1275.68 90.8762 1275.68 L86.8484 1275.68 L86.8484 1271.84 L91.0614 1271.84 Q94.5104 1271.84 96.3391 1270.47 Q98.1678 1269.09 98.1678 1266.49 Q98.1678 1263.83 96.2697 1262.42 Q94.3947 1260.98 90.8762 1260.98 Q88.9549 1260.98 86.7558 1261.4 Q84.5568 1261.82 81.9179 1262.7 L81.9179 1258.53 Q84.5799 1257.79 86.8947 1257.42 Q89.2327 1257.05 91.2928 1257.05 Q96.6169 1257.05 99.7187 1259.48 Q102.821 1261.89 102.821 1266.01 Q102.821 1268.88 101.177 1270.87 Q99.5335 1272.84 96.5011 1273.6 Z" fill="#000000" fill-rule="nonzero" fill-opacity="1" /><path clip-path="url(#clip200)" d="M122.496 1260.75 Q118.885 1260.75 117.057 1264.32 Q115.251 1267.86 115.251 1274.99 Q115.251 1282.09 117.057 1285.66 Q118.885 1289.2 122.496 1289.2 Q126.131 1289.2 127.936 1285.66 Q129.765 1282.09 129.765 1274.99 Q129.765 1267.86 127.936 1264.32 Q126.131 1260.75 122.496 1260.75 M122.496 1257.05 Q128.307 1257.05 131.362 1261.66 Q134.441 1266.24 134.441 1274.99 Q134.441 1283.72 131.362 1288.32 Q128.307 1292.91 122.496 1292.91 Q116.686 1292.91 113.608 1288.32 Q110.552 1283.72 110.552 1274.99 Q110.552 1266.24 113.608 1261.66 Q116.686 1257.05 122.496 1257.05 Z" fill="#000000" fill-rule="nonzero" fill-opacity="1" /><path clip-path="url(#clip200)" d="M152.658 1260.75 Q149.047 1260.75 147.218 1264.32 Q145.413 1267.86 145.413 1274.99 Q145.413 1282.09 147.218 1285.66 Q149.047 1289.2 152.658 1289.2 Q156.292 1289.2 158.098 1285.66 Q159.927 1282.09 159.927 1274.99 Q159.927 1267.86 158.098 1264.32 Q156.292 1260.75 152.658 1260.75 M152.658 1257.05 Q158.468 1257.05 161.524 1261.66 Q164.603 1266.24 164.603 1274.99 Q164.603 1283.72 161.524 1288.32 Q158.468 1292.91 152.658 1292.91 Q146.848 1292.91 143.769 1288.32 Q140.714 1283.72 140.714 1274.99 Q140.714 1266.24 143.769 1261.66 Q146.848 1257.05 152.658 1257.05 Z" fill="#000000" fill-rule="nonzero" fill-opacity="1" /><path clip-path="url(#clip200)" d="M182.82 1260.75 Q179.209 1260.75 177.38 1264.32 Q175.575 1267.86 175.575 1274.99 Q175.575 1282.09 177.38 1285.66 Q179.209 1289.2 182.82 1289.2 Q186.454 1289.2 188.26 1285.66 Q190.089 1282.09 190.089 1274.99 Q190.089 1267.86 188.26 1264.32 Q186.454 1260.75 182.82 1260.75 M182.82 1257.05 Q188.63 1257.05 191.686 1261.66 Q194.765 1266.24 194.765 1274.99 Q194.765 1283.72 191.686 1288.32 Q188.63 1292.91 182.82 1292.91 Q177.01 1292.91 173.931 1288.32 Q170.876 1283.72 170.876 1274.99 Q170.876 1266.24 173.931 1261.66 Q177.01 1257.05 182.82 1257.05 Z" fill="#000000" fill-rule="nonzero" fill-opacity="1" /><path clip-path="url(#clip200)" d="M50.9921 959.352 L73.2142 959.352 L73.2142 961.342 L60.668 993.912 L55.7838 993.912 L67.5893 963.287 L50.9921 963.287 L50.9921 959.352 Z" fill="#000000" fill-rule="nonzero" fill-opacity="1" /><path clip-path="url(#clip200)" d="M95.1817 963.426 L83.3762 981.875 L95.1817 981.875 L95.1817 963.426 M93.9549 959.352 L99.8345 959.352 L99.8345 981.875 L104.765 981.875 L104.765 985.764 L99.8345 985.764 L99.8345 993.912 L95.1817 993.912 L95.1817 985.764 L79.5799 985.764 L79.5799 981.25 L93.9549 959.352 Z" fill="#000000" fill-rule="nonzero" fill-opacity="1" /><path clip-path="url(#clip200)" d="M122.496 962.43 Q118.885 962.43 117.057 965.995 Q115.251 969.537 115.251 976.666 Q115.251 983.773 117.057 987.338 Q118.885 990.879 122.496 990.879 Q126.131 990.879 127.936 987.338 Q129.765 983.773 129.765 976.666 Q129.765 969.537 127.936 965.995 Q126.131 962.43 122.496 962.43 M122.496 958.727 Q128.307 958.727 131.362 963.333 Q134.441 967.916 134.441 976.666 Q134.441 985.393 131.362 990 Q128.307 994.583 122.496 994.583 Q116.686 994.583 113.608 990 Q110.552 985.393 110.552 976.666 Q110.552 967.916 113.608 963.333 Q116.686 958.727 122.496 958.727 Z" fill="#000000" fill-rule="nonzero" fill-opacity="1" /><path clip-path="url(#clip200)" d="M152.658 962.43 Q149.047 962.43 147.218 965.995 Q145.413 969.537 145.413 976.666 Q145.413 983.773 147.218 987.338 Q149.047 990.879 152.658 990.879 Q156.292 990.879 158.098 987.338 Q159.927 983.773 159.927 976.666 Q159.927 969.537 158.098 965.995 Q156.292 962.43 152.658 962.43 M152.658 958.727 Q158.468 958.727 161.524 963.333 Q164.603 967.916 164.603 976.666 Q164.603 985.393 161.524 990 Q158.468 994.583 152.658 994.583 Q146.848 994.583 143.769 990 Q140.714 985.393 140.714 976.666 Q140.714 967.916 143.769 963.333 Q146.848 958.727 152.658 958.727 Z" fill="#000000" fill-rule="nonzero" fill-opacity="1" /><path clip-path="url(#clip200)" d="M182.82 962.43 Q179.209 962.43 177.38 965.995 Q175.575 969.537 175.575 976.666 Q175.575 983.773 177.38 987.338 Q179.209 990.879 182.82 990.879 Q186.454 990.879 188.26 987.338 Q190.089 983.773 190.089 976.666 Q190.089 969.537 188.26 965.995 Q186.454 962.43 182.82 962.43 M182.82 958.727 Q188.63 958.727 191.686 963.333 Q194.765 967.916 194.765 976.666 Q194.765 985.393 191.686 990 Q188.63 994.583 182.82 994.583 Q177.01 994.583 173.931 990 Q170.876 985.393 170.876 976.666 Q170.876 967.916 173.931 963.333 Q177.01 958.727 182.82 958.727 Z" fill="#000000" fill-rule="nonzero" fill-opacity="1" /><path clip-path="url(#clip200)" d="M50.9921 661.029 L73.2142 661.029 L73.2142 663.02 L60.668 695.589 L55.7838 695.589 L67.5893 664.965 L50.9921 664.965 L50.9921 661.029 Z" fill="#000000" fill-rule="nonzero" fill-opacity="1" /><path clip-path="url(#clip200)" d="M82.3808 661.029 L100.737 661.029 L100.737 664.965 L86.6632 664.965 L86.6632 673.437 Q87.6817 673.09 88.7003 672.928 Q89.7188 672.742 90.7373 672.742 Q96.5243 672.742 99.9039 675.914 Q103.284 679.085 103.284 684.502 Q103.284 690.08 99.8113 693.182 Q96.3391 696.261 90.0197 696.261 Q87.8438 696.261 85.5753 695.89 Q83.3299 695.52 80.9225 694.779 L80.9225 690.08 Q83.0058 691.214 85.2281 691.77 Q87.4503 692.326 89.9271 692.326 Q93.9317 692.326 96.2697 690.219 Q98.6076 688.113 98.6076 684.502 Q98.6076 680.89 96.2697 678.784 Q93.9317 676.678 89.9271 676.678 Q88.0521 676.678 86.1771 677.094 Q84.3253 677.511 82.3808 678.39 L82.3808 661.029 Z" fill="#000000" fill-rule="nonzero" fill-opacity="1" /><path clip-path="url(#clip200)" d="M122.496 664.108 Q118.885 664.108 117.057 667.673 Q115.251 671.215 115.251 678.344 Q115.251 685.451 117.057 689.015 Q118.885 692.557 122.496 692.557 Q126.131 692.557 127.936 689.015 Q129.765 685.451 129.765 678.344 Q129.765 671.215 127.936 667.673 Q126.131 664.108 122.496 664.108 M122.496 660.404 Q128.307 660.404 131.362 665.011 Q134.441 669.594 134.441 678.344 Q134.441 687.071 131.362 691.677 Q128.307 696.261 122.496 696.261 Q116.686 696.261 113.608 691.677 Q110.552 687.071 110.552 678.344 Q110.552 669.594 113.608 665.011 Q116.686 660.404 122.496 660.404 Z" fill="#000000" fill-rule="nonzero" fill-opacity="1" /><path clip-path="url(#clip200)" d="M152.658 664.108 Q149.047 664.108 147.218 667.673 Q145.413 671.215 145.413 678.344 Q145.413 685.451 147.218 689.015 Q149.047 692.557 152.658 692.557 Q156.292 692.557 158.098 689.015 Q159.927 685.451 159.927 678.344 Q159.927 671.215 158.098 667.673 Q156.292 664.108 152.658 664.108 M152.658 660.404 Q158.468 660.404 161.524 665.011 Q164.603 669.594 164.603 678.344 Q164.603 687.071 161.524 691.677 Q158.468 696.261 152.658 696.261 Q146.848 696.261 143.769 691.677 Q140.714 687.071 140.714 678.344 Q140.714 669.594 143.769 665.011 Q146.848 660.404 152.658 660.404 Z" fill="#000000" fill-rule="nonzero" fill-opacity="1" /><path clip-path="url(#clip200)" d="M182.82 664.108 Q179.209 664.108 177.38 667.673 Q175.575 671.215 175.575 678.344 Q175.575 685.451 177.38 689.015 Q179.209 692.557 182.82 692.557 Q186.454 692.557 188.26 689.015 Q190.089 685.451 190.089 678.344 Q190.089 671.215 188.26 667.673 Q186.454 664.108 182.82 664.108 M182.82 660.404 Q188.63 660.404 191.686 665.011 Q194.765 669.594 194.765 678.344 Q194.765 687.071 191.686 691.677 Q188.63 696.261 182.82 696.261 Q177.01 696.261 173.931 691.677 Q170.876 687.071 170.876 678.344 Q170.876 669.594 173.931 665.011 Q177.01 660.404 182.82 660.404 Z" fill="#000000" fill-rule="nonzero" fill-opacity="1" /><path clip-path="url(#clip200)" d="M50.9921 362.707 L73.2142 362.707 L73.2142 364.698 L60.668 397.267 L55.7838 397.267 L67.5893 366.642 L50.9921 366.642 L50.9921 362.707 Z" fill="#000000" fill-rule="nonzero" fill-opacity="1" /><path clip-path="url(#clip200)" d="M92.9132 378.124 Q89.7651 378.124 87.9132 380.277 Q86.0845 382.429 86.0845 386.179 Q86.0845 389.906 87.9132 392.082 Q89.7651 394.235 92.9132 394.235 Q96.0613 394.235 97.89 392.082 Q99.7419 389.906 99.7419 386.179 Q99.7419 382.429 97.89 380.277 Q96.0613 378.124 92.9132 378.124 M102.196 363.471 L102.196 367.73 Q100.436 366.897 98.6308 366.457 Q96.8484 366.017 95.0891 366.017 Q90.4595 366.017 88.0058 369.142 Q85.5753 372.267 85.2281 378.587 Q86.5938 376.573 88.654 375.508 Q90.7141 374.42 93.191 374.42 Q98.3993 374.42 101.409 377.591 Q104.441 380.74 104.441 386.179 Q104.441 391.503 101.293 394.721 Q98.1447 397.939 92.9132 397.939 Q86.9179 397.939 83.7466 393.355 Q80.5753 388.749 80.5753 380.022 Q80.5753 371.828 84.4642 366.967 Q88.353 362.082 94.9039 362.082 Q96.6632 362.082 98.4456 362.43 Q100.251 362.777 102.196 363.471 Z" fill="#000000" fill-rule="nonzero" fill-opacity="1" /><path clip-path="url(#clip200)" d="M122.496 365.786 Q118.885 365.786 117.057 369.351 Q115.251 372.892 115.251 380.022 Q115.251 387.128 117.057 390.693 Q118.885 394.235 122.496 394.235 Q126.131 394.235 127.936 390.693 Q129.765 387.128 129.765 380.022 Q129.765 372.892 127.936 369.351 Q126.131 365.786 122.496 365.786 M122.496 362.082 Q128.307 362.082 131.362 366.689 Q134.441 371.272 134.441 380.022 Q134.441 388.749 131.362 393.355 Q128.307 397.939 122.496 397.939 Q116.686 397.939 113.608 393.355 Q110.552 388.749 110.552 380.022 Q110.552 371.272 113.608 366.689 Q116.686 362.082 122.496 362.082 Z" fill="#000000" fill-rule="nonzero" fill-opacity="1" /><path clip-path="url(#clip200)" d="M152.658 365.786 Q149.047 365.786 147.218 369.351 Q145.413 372.892 145.413 380.022 Q145.413 387.128 147.218 390.693 Q149.047 394.235 152.658 394.235 Q156.292 394.235 158.098 390.693 Q159.927 387.128 159.927 380.022 Q159.927 372.892 158.098 369.351 Q156.292 365.786 152.658 365.786 M152.658 362.082 Q158.468 362.082 161.524 366.689 Q164.603 371.272 164.603 380.022 Q164.603 388.749 161.524 393.355 Q158.468 397.939 152.658 397.939 Q146.848 397.939 143.769 393.355 Q140.714 388.749 140.714 380.022 Q140.714 371.272 143.769 366.689 Q146.848 362.082 152.658 362.082 Z" fill="#000000" fill-rule="nonzero" fill-opacity="1" /><path clip-path="url(#clip200)" d="M182.82 365.786 Q179.209 365.786 177.38 369.351 Q175.575 372.892 175.575 380.022 Q175.575 387.128 177.38 390.693 Q179.209 394.235 182.82 394.235 Q186.454 394.235 188.26 390.693 Q190.089 387.128 190.089 380.022 Q190.089 372.892 188.26 369.351 Q186.454 365.786 182.82 365.786 M182.82 362.082 Q188.63 362.082 191.686 366.689 Q194.765 371.272 194.765 380.022 Q194.765 388.749 191.686 393.355 Q188.63 397.939 182.82 397.939 Q177.01 397.939 173.931 393.355 Q170.876 388.749 170.876 380.022 Q170.876 371.272 173.931 366.689 Q177.01 362.082 182.82 362.082 Z" fill="#000000" fill-rule="nonzero" fill-opacity="1" /><path clip-path="url(#clip200)" d="M1262.23 35.2602 Q1262.23 29.4732 1259.83 26.2904 Q1257.46 23.1075 1253.15 23.1075 Q1248.86 23.1075 1246.46 26.2904 Q1244.09 29.4732 1244.09 35.2602 Q1244.09 41.0183 1246.46 44.2012 Q1248.86 47.384 1253.15 47.384 Q1257.46 47.384 1259.83 44.2012 Q1262.23 41.0183 1262.23 35.2602 M1267.56 47.818 Q1267.56 56.0934 1263.88 60.1154 Q1260.21 64.1663 1252.63 64.1663 Q1249.82 64.1663 1247.33 63.7323 Q1244.84 63.3272 1242.5 62.4592 L1242.5 57.2798 Q1244.84 58.5529 1247.13 59.1606 Q1249.41 59.7682 1251.79 59.7682 Q1257.02 59.7682 1259.63 57.0194 Q1262.23 54.2995 1262.23 48.7729 L1262.23 46.1398 Q1260.58 49.0044 1258.01 50.4222 Q1255.43 51.84 1251.84 51.84 Q1245.88 51.84 1242.24 47.2972 Q1238.59 42.7544 1238.59 35.2602 Q1238.59 27.7371 1242.24 23.1943 Q1245.88 18.6515 1251.84 18.6515 Q1255.43 18.6515 1258.01 20.0693 Q1260.58 21.4872 1262.23 24.3517 L1262.23 19.4328 L1267.56 19.4328 L1267.56 47.818 Z" fill="#000000" fill-rule="nonzero" fill-opacity="1" /><path clip-path="url(#clip200)" d="M1299.85 24.3517 L1299.85 6.81709 L1305.17 6.81709 L1305.17 51.84 L1299.85 51.84 L1299.85 46.9789 Q1298.17 49.8724 1295.59 51.2902 Q1293.05 52.6791 1289.46 52.6791 Q1283.59 52.6791 1279.88 47.9916 Q1276.21 43.3042 1276.21 35.6653 Q1276.21 28.0265 1279.88 23.339 Q1283.59 18.6515 1289.46 18.6515 Q1293.05 18.6515 1295.59 20.0693 Q1298.17 21.4582 1299.85 24.3517 M1281.71 35.6653 Q1281.71 41.5391 1284.11 44.8956 Q1286.54 48.2231 1290.76 48.2231 Q1294.99 48.2231 1297.42 44.8956 Q1299.85 41.5391 1299.85 35.6653 Q1299.85 29.7915 1297.42 26.464 Q1294.99 23.1075 1290.76 23.1075 Q1286.54 23.1075 1284.11 26.464 Q1281.71 29.7915 1281.71 35.6653 Z" fill="#000000" fill-rule="nonzero" fill-opacity="1" /><path clip-path="url(#clip200)" d="M1321.29 46.9789 L1321.29 64.1663 L1315.94 64.1663 L1315.94 19.4328 L1321.29 19.4328 L1321.29 24.3517 Q1322.97 21.4582 1325.51 20.0693 Q1328.09 18.6515 1331.65 18.6515 Q1337.55 18.6515 1341.22 23.339 Q1344.93 28.0265 1344.93 35.6653 Q1344.93 43.3042 1341.22 47.9916 Q1337.55 52.6791 1331.65 52.6791 Q1328.09 52.6791 1325.51 51.2902 Q1322.97 49.8724 1321.29 46.9789 M1339.4 35.6653 Q1339.4 29.7915 1336.97 26.464 Q1334.57 23.1075 1330.35 23.1075 Q1326.12 23.1075 1323.69 26.464 Q1321.29 29.7915 1321.29 35.6653 Q1321.29 41.5391 1323.69 44.8956 Q1326.12 48.2231 1330.35 48.2231 Q1334.57 48.2231 1336.97 44.8956 Q1339.4 41.5391 1339.4 35.6653 Z" fill="#000000" fill-rule="nonzero" fill-opacity="1" /><polyline clip-path="url(#clip201)" style="stroke:#009af9; stroke-linecap:round; stroke-linejoin:round; stroke-width:4; stroke-opacity:1; fill:none" points="290.821,1447.38 415.938,1266.58 541.056,1211.97 666.173,1176.86 791.291,1189.64 916.408,1143.42 1041.53,949.214 1166.64,813.94 1291.76,887.369 1416.88,614.531 1542,557.674 1667.11,574.461 1792.23,405.679 1917.35,274.564 2042.46,442.764 2167.58,145.256 2292.7,155.197 "/>
<path clip-path="url(#clip200)" d="M301.498 255.881 L566.127 255.881 L566.127 152.201 L301.498 152.201  Z" fill="#ffffff" fill-rule="evenodd" fill-opacity="1"/>
<polyline clip-path="url(#clip200)" style="stroke:#000000; stroke-linecap:round; stroke-linejoin:round; stroke-width:4; stroke-opacity:1; fill:none" points="301.498,255.881 566.127,255.881 566.127,152.201 301.498,152.201 301.498,255.881 "/>
<polyline clip-path="url(#clip200)" style="stroke:#009af9; stroke-linecap:round; stroke-linejoin:round; stroke-width:4; stroke-opacity:1; fill:none" points="325.075,204.041 466.541,204.041 "/>
<path clip-path="url(#clip200)" d="M503.962 223.728 Q502.156 228.358 500.443 229.77 Q498.73 231.182 495.86 231.182 L492.457 231.182 L492.457 227.617 L494.957 227.617 Q496.716 227.617 497.688 226.784 Q498.661 225.95 499.841 222.848 L500.605 220.904 L490.119 195.395 L494.633 195.395 L502.735 215.673 L510.836 195.395 L515.35 195.395 L503.962 223.728 Z" fill="#000000" fill-rule="nonzero" fill-opacity="1" /><path clip-path="url(#clip200)" d="M522.642 217.385 L530.281 217.385 L530.281 191.02 L521.971 192.687 L521.971 188.427 L530.235 186.761 L534.91 186.761 L534.91 217.385 L542.549 217.385 L542.549 221.321 L522.642 221.321 L522.642 217.385 Z" fill="#000000" fill-rule="nonzero" fill-opacity="1" /></svg>
