<?xml version="1.0" encoding="utf-8"?>
<svg xmlns="http://www.w3.org/2000/svg" xmlns:xlink="http://www.w3.org/1999/xlink" width="600" height="400" viewBox="0 0 2400 1600">
<defs>
  <clipPath id="clip610">
    <rect x="0" y="0" width="2400" height="1600"/>
  </clipPath>
</defs>
<path clip-path="url(#clip610)" d="M0 1600 L2400 1600 L2400 0 L0 0  Z" fill="#ffffff" fill-rule="evenodd" fill-opacity="1"/>
<defs>
  <clipPath id="clip611">
    <rect x="480" y="0" width="1681" height="1600"/>
  </clipPath>
</defs>
<path clip-path="url(#clip610)" d="M230.765 1486.45 L2352.76 1486.45 L2352.76 106.192 L230.765 106.192  Z" fill="#ffffff" fill-rule="evenodd" fill-opacity="1"/>
<defs>
  <clipPath id="clip612">
    <rect x="230" y="106" width="2123" height="1381"/>
  </clipPath>
</defs>
<polyline clip-path="url(#clip612)" style="stroke:#000000; stroke-linecap:round; stroke-linejoin:round; stroke-width:2; stroke-opacity:0.1; fill:none" points="541.056,1486.45 541.056,106.192 "/>
<polyline clip-path="url(#clip612)" style="stroke:#000000; stroke-linecap:round; stroke-linejoin:round; stroke-width:2; stroke-opacity:0.1; fill:none" points="916.408,1486.45 916.408,106.192 "/>
<polyline clip-path="url(#clip612)" style="stroke:#000000; stroke-linecap:round; stroke-linejoin:round; stroke-width:2; stroke-opacity:0.1; fill:none" points="1291.76,1486.45 1291.76,106.192 "/>
<polyline clip-path="url(#clip612)" style="stroke:#000000; stroke-linecap:round; stroke-linejoin:round; stroke-width:2; stroke-opacity:0.1; fill:none" points="1667.11,1486.45 1667.11,106.192 "/>
<polyline clip-path="url(#clip612)" style="stroke:#000000; stroke-linecap:round; stroke-linejoin:round; stroke-width:2; stroke-opacity:0.1; fill:none" points="2042.46,1486.45 2042.46,106.192 "/>
<polyline clip-path="url(#clip612)" style="stroke:#000000; stroke-linecap:round; stroke-linejoin:round; stroke-width:2; stroke-opacity:0.1; fill:none" points="230.765,1384.39 2352.76,1384.39 "/>
<polyline clip-path="url(#clip612)" style="stroke:#000000; stroke-linecap:round; stroke-linejoin:round; stroke-width:2; stroke-opacity:0.1; fill:none" points="230.765,1195.46 2352.76,1195.46 "/>
<polyline clip-path="url(#clip612)" style="stroke:#000000; stroke-linecap:round; stroke-linejoin:round; stroke-width:2; stroke-opacity:0.1; fill:none" points="230.765,1006.53 2352.76,1006.53 "/>
<polyline clip-path="url(#clip612)" style="stroke:#000000; stroke-linecap:round; stroke-linejoin:round; stroke-width:2; stroke-opacity:0.1; fill:none" points="230.765,817.599 2352.76,817.599 "/>
<polyline clip-path="url(#clip612)" style="stroke:#000000; stroke-linecap:round; stroke-linejoin:round; stroke-width:2; stroke-opacity:0.1; fill:none" points="230.765,628.67 2352.76,628.67 "/>
<polyline clip-path="url(#clip612)" style="stroke:#000000; stroke-linecap:round; stroke-linejoin:round; stroke-width:2; stroke-opacity:0.1; fill:none" points="230.765,439.74 2352.76,439.74 "/>
<polyline clip-path="url(#clip612)" style="stroke:#000000; stroke-linecap:round; stroke-linejoin:round; stroke-width:2; stroke-opacity:0.1; fill:none" points="230.765,250.81 2352.76,250.81 "/>
<polyline clip-path="url(#clip610)" style="stroke:#000000; stroke-linecap:round; stroke-linejoin:round; stroke-width:4; stroke-opacity:1; fill:none" points="230.765,1486.45 2352.76,1486.45 "/>
<polyline clip-path="url(#clip610)" style="stroke:#000000; stroke-linecap:round; stroke-linejoin:round; stroke-width:4; stroke-opacity:1; fill:none" points="541.056,1486.45 541.056,1467.55 "/>
<polyline clip-path="url(#clip610)" style="stroke:#000000; stroke-linecap:round; stroke-linejoin:round; stroke-width:4; stroke-opacity:1; fill:none" points="916.408,1486.45 916.408,1467.55 "/>
<polyline clip-path="url(#clip610)" style="stroke:#000000; stroke-linecap:round; stroke-linejoin:round; stroke-width:4; stroke-opacity:1; fill:none" points="1291.76,1486.45 1291.76,1467.55 "/>
<polyline clip-path="url(#clip610)" style="stroke:#000000; stroke-linecap:round; stroke-linejoin:round; stroke-width:4; stroke-opacity:1; fill:none" points="1667.11,1486.45 1667.11,1467.55 "/>
<polyline clip-path="url(#clip610)" style="stroke:#000000; stroke-linecap:round; stroke-linejoin:round; stroke-width:4; stroke-opacity:1; fill:none" points="2042.46,1486.45 2042.46,1467.55 "/>
<path clip-path="url(#clip610)" d="M545.303 1530.21 Q548.66 1530.93 550.535 1533.2 Q552.433 1535.47 552.433 1538.8 Q552.433 1543.92 548.914 1546.72 Q545.396 1549.52 538.915 1549.52 Q536.739 1549.52 534.424 1549.08 Q532.132 1548.66 529.678 1547.81 L529.678 1543.29 Q531.623 1544.43 533.938 1545.01 Q536.252 1545.58 538.776 1545.58 Q543.174 1545.58 545.465 1543.85 Q547.78 1542.11 547.78 1538.8 Q547.78 1535.75 545.627 1534.03 Q543.498 1532.3 539.678 1532.3 L535.651 1532.3 L535.651 1528.45 L539.864 1528.45 Q543.313 1528.45 545.141 1527.09 Q546.97 1525.7 546.97 1523.11 Q546.97 1520.45 545.072 1519.03 Q543.197 1517.6 539.678 1517.6 Q537.757 1517.6 535.558 1518.01 Q533.359 1518.43 530.72 1519.31 L530.72 1515.14 Q533.382 1514.4 535.697 1514.03 Q538.035 1513.66 540.095 1513.66 Q545.419 1513.66 548.521 1516.09 Q551.623 1518.5 551.623 1522.62 Q551.623 1525.49 549.979 1527.48 Q548.336 1529.45 545.303 1530.21 Z" fill="#000000" fill-rule="nonzero" fill-opacity="1" /><path clip-path="url(#clip610)" d="M916.813 1529.7 Q913.665 1529.7 911.813 1531.86 Q909.984 1534.01 909.984 1537.76 Q909.984 1541.49 911.813 1543.66 Q913.665 1545.82 916.813 1545.82 Q919.961 1545.82 921.79 1543.66 Q923.642 1541.49 923.642 1537.76 Q923.642 1534.01 921.79 1531.86 Q919.961 1529.7 916.813 1529.7 M926.095 1515.05 L926.095 1519.31 Q924.336 1518.48 922.531 1518.04 Q920.748 1517.6 918.989 1517.6 Q914.359 1517.6 911.906 1520.72 Q909.475 1523.85 909.128 1530.17 Q910.494 1528.15 912.554 1527.09 Q914.614 1526 917.091 1526 Q922.299 1526 925.308 1529.17 Q928.341 1532.32 928.341 1537.76 Q928.341 1543.08 925.193 1546.3 Q922.044 1549.52 916.813 1549.52 Q910.818 1549.52 907.646 1544.94 Q904.475 1540.33 904.475 1531.6 Q904.475 1523.41 908.364 1518.55 Q912.253 1513.66 918.804 1513.66 Q920.563 1513.66 922.345 1514.01 Q924.151 1514.36 926.095 1515.05 Z" fill="#000000" fill-rule="nonzero" fill-opacity="1" /><path clip-path="url(#clip610)" d="M1282.06 1548.13 L1282.06 1543.87 Q1283.82 1544.7 1285.63 1545.14 Q1287.43 1545.58 1289.17 1545.58 Q1293.8 1545.58 1296.23 1542.48 Q1298.68 1539.36 1299.03 1533.01 Q1297.69 1535.01 1295.63 1536.07 Q1293.57 1537.13 1291.07 1537.13 Q1285.88 1537.13 1282.85 1534.01 Q1279.84 1530.86 1279.84 1525.42 Q1279.84 1520.1 1282.99 1516.88 Q1286.14 1513.66 1291.37 1513.66 Q1297.36 1513.66 1300.51 1518.27 Q1303.68 1522.85 1303.68 1531.6 Q1303.68 1539.77 1299.79 1544.66 Q1295.93 1549.52 1289.38 1549.52 Q1287.62 1549.52 1285.81 1549.17 Q1284.01 1548.82 1282.06 1548.13 M1291.37 1533.48 Q1294.51 1533.48 1296.34 1531.32 Q1298.2 1529.17 1298.2 1525.42 Q1298.2 1521.7 1296.34 1519.54 Q1294.51 1517.37 1291.37 1517.37 Q1288.22 1517.37 1286.37 1519.54 Q1284.54 1521.7 1284.54 1525.42 Q1284.54 1529.17 1286.37 1531.32 Q1288.22 1533.48 1291.37 1533.48 Z" fill="#000000" fill-rule="nonzero" fill-opacity="1" /><path clip-path="url(#clip610)" d="M1642.6 1544.91 L1650.24 1544.91 L1650.24 1518.55 L1641.93 1520.21 L1641.93 1515.95 L1650.19 1514.29 L1654.87 1514.29 L1654.87 1544.91 L1662.51 1544.91 L1662.51 1548.85 L1642.6 1548.85 L1642.6 1544.91 Z" fill="#000000" fill-rule="nonzero" fill-opacity="1" /><path clip-path="url(#clip610)" d="M1675.98 1544.91 L1692.3 1544.91 L1692.3 1548.85 L1670.35 1548.85 L1670.35 1544.91 Q1673.02 1542.16 1677.6 1537.53 Q1682.2 1532.88 1683.39 1531.53 Q1685.63 1529.01 1686.51 1527.27 Q1687.41 1525.51 1687.41 1523.82 Q1687.41 1521.07 1685.47 1519.33 Q1683.55 1517.6 1680.45 1517.6 Q1678.25 1517.6 1675.79 1518.36 Q1673.36 1519.13 1670.58 1520.68 L1670.58 1515.95 Q1673.41 1514.82 1675.86 1514.24 Q1678.32 1513.66 1680.35 1513.66 Q1685.72 1513.66 1688.92 1516.35 Q1692.11 1519.03 1692.11 1523.52 Q1692.11 1525.65 1691.3 1527.57 Q1690.52 1529.47 1688.41 1532.07 Q1687.83 1532.74 1684.73 1535.95 Q1681.63 1539.15 1675.98 1544.91 Z" fill="#000000" fill-rule="nonzero" fill-opacity="1" /><path clip-path="url(#clip610)" d="M2017.65 1544.91 L2025.29 1544.91 L2025.29 1518.55 L2016.98 1520.21 L2016.98 1515.95 L2025.24 1514.29 L2029.92 1514.29 L2029.92 1544.91 L2037.56 1544.91 L2037.56 1548.85 L2017.65 1548.85 L2017.65 1544.91 Z" fill="#000000" fill-rule="nonzero" fill-opacity="1" /><path clip-path="url(#clip610)" d="M2047.05 1514.29 L2065.4 1514.29 L2065.4 1518.22 L2051.33 1518.22 L2051.33 1526.7 Q2052.35 1526.35 2053.37 1526.19 Q2054.39 1526 2055.4 1526 Q2061.19 1526 2064.57 1529.17 Q2067.95 1532.34 2067.95 1537.76 Q2067.95 1543.34 2064.48 1546.44 Q2061.01 1549.52 2054.69 1549.52 Q2052.51 1549.52 2050.24 1549.15 Q2048 1548.78 2045.59 1548.04 L2045.59 1543.34 Q2047.67 1544.47 2049.9 1545.03 Q2052.12 1545.58 2054.59 1545.58 Q2058.6 1545.58 2060.94 1543.48 Q2063.27 1541.37 2063.27 1537.76 Q2063.27 1534.15 2060.94 1532.04 Q2058.6 1529.94 2054.59 1529.94 Q2052.72 1529.94 2050.84 1530.35 Q2048.99 1530.77 2047.05 1531.65 L2047.05 1514.29 Z" fill="#000000" fill-rule="nonzero" fill-opacity="1" /><polyline clip-path="url(#clip610)" style="stroke:#000000; stroke-linecap:round; stroke-linejoin:round; stroke-width:4; stroke-opacity:1; fill:none" points="230.765,1486.45 230.765,106.192 "/>
<polyline clip-path="url(#clip610)" style="stroke:#000000; stroke-linecap:round; stroke-linejoin:round; stroke-width:4; stroke-opacity:1; fill:none" points="230.765,1384.39 249.662,1384.39 "/>
<polyline clip-path="url(#clip610)" style="stroke:#000000; stroke-linecap:round; stroke-linejoin:round; stroke-width:4; stroke-opacity:1; fill:none" points="230.765,1195.46 249.662,1195.46 "/>
<polyline clip-path="url(#clip610)" style="stroke:#000000; stroke-linecap:round; stroke-linejoin:round; stroke-width:4; stroke-opacity:1; fill:none" points="230.765,1006.53 249.662,1006.53 "/>
<polyline clip-path="url(#clip610)" style="stroke:#000000; stroke-linecap:round; stroke-linejoin:round; stroke-width:4; stroke-opacity:1; fill:none" points="230.765,817.599 249.662,817.599 "/>
<polyline clip-path="url(#clip610)" style="stroke:#000000; stroke-linecap:round; stroke-linejoin:round; stroke-width:4; stroke-opacity:1; fill:none" points="230.765,628.67 249.662,628.67 "/>
<polyline clip-path="url(#clip610)" style="stroke:#000000; stroke-linecap:round; stroke-linejoin:round; stroke-width:4; stroke-opacity:1; fill:none" points="230.765,439.74 249.662,439.74 "/>
<polyline clip-path="url(#clip610)" style="stroke:#000000; stroke-linecap:round; stroke-linejoin:round; stroke-width:4; stroke-opacity:1; fill:none" points="230.765,250.81 249.662,250.81 "/>
<path clip-path="url(#clip610)" d="M50.9921 1367.11 L73.2142 1367.11 L73.2142 1369.1 L60.668 1401.67 L55.7838 1401.67 L67.5893 1371.04 L50.9921 1371.04 L50.9921 1367.11 Z" fill="#000000" fill-rule="nonzero" fill-opacity="1" /><path clip-path="url(#clip610)" d="M86.3623 1397.73 L102.682 1397.73 L102.682 1401.67 L80.7373 1401.67 L80.7373 1397.73 Q83.3994 1394.98 87.9827 1390.35 Q92.5891 1385.7 93.7697 1384.35 Q96.015 1381.83 96.8947 1380.09 Q97.7974 1378.34 97.7974 1376.65 Q97.7974 1373.89 95.853 1372.15 Q93.9317 1370.42 90.8299 1370.42 Q88.6308 1370.42 86.1771 1371.18 Q83.7466 1371.95 80.9688 1373.5 L80.9688 1368.78 Q83.7929 1367.64 86.2466 1367.06 Q88.7003 1366.48 90.7373 1366.48 Q96.1076 1366.48 99.3021 1369.17 Q102.496 1371.85 102.496 1376.34 Q102.496 1378.47 101.686 1380.4 Q100.899 1382.29 98.7928 1384.89 Q98.2141 1385.56 95.1123 1388.77 Q92.0104 1391.97 86.3623 1397.73 Z" fill="#000000" fill-rule="nonzero" fill-opacity="1" /><path clip-path="url(#clip610)" d="M112.543 1367.11 L130.899 1367.11 L130.899 1371.04 L116.825 1371.04 L116.825 1379.52 Q117.844 1379.17 118.862 1379.01 Q119.881 1378.82 120.899 1378.82 Q126.686 1378.82 130.066 1381.99 Q133.445 1385.16 133.445 1390.58 Q133.445 1396.16 129.973 1399.26 Q126.501 1402.34 120.182 1402.34 Q118.006 1402.34 115.737 1401.97 Q113.492 1401.6 111.084 1400.86 L111.084 1396.16 Q113.168 1397.29 115.39 1397.85 Q117.612 1398.4 120.089 1398.4 Q124.094 1398.4 126.432 1396.3 Q128.769 1394.19 128.769 1390.58 Q128.769 1386.97 126.432 1384.86 Q124.094 1382.76 120.089 1382.76 Q118.214 1382.76 116.339 1383.17 Q114.487 1383.59 112.543 1384.47 L112.543 1367.11 Z" fill="#000000" fill-rule="nonzero" fill-opacity="1" /><path clip-path="url(#clip610)" d="M152.658 1370.19 Q149.047 1370.19 147.218 1373.75 Q145.413 1377.29 145.413 1384.42 Q145.413 1391.53 147.218 1395.09 Q149.047 1398.64 152.658 1398.64 Q156.292 1398.64 158.098 1395.09 Q159.927 1391.53 159.927 1384.42 Q159.927 1377.29 158.098 1373.75 Q156.292 1370.19 152.658 1370.19 M152.658 1366.48 Q158.468 1366.48 161.524 1371.09 Q164.603 1375.67 164.603 1384.42 Q164.603 1393.15 161.524 1397.76 Q158.468 1402.34 152.658 1402.34 Q146.848 1402.34 143.769 1397.76 Q140.714 1393.15 140.714 1384.42 Q140.714 1375.67 143.769 1371.09 Q146.848 1366.48 152.658 1366.48 Z" fill="#000000" fill-rule="nonzero" fill-opacity="1" /><path clip-path="url(#clip610)" d="M182.82 1370.19 Q179.209 1370.19 177.38 1373.75 Q175.575 1377.29 175.575 1384.42 Q175.575 1391.53 177.38 1395.09 Q179.209 1398.64 182.82 1398.64 Q186.454 1398.64 188.26 1395.09 Q190.089 1391.53 190.089 1384.42 Q190.089 1377.29 188.26 1373.75 Q186.454 1370.19 182.82 1370.19 M182.82 1366.48 Q188.63 1366.48 191.686 1371.09 Q194.765 1375.67 194.765 1384.42 Q194.765 1393.15 191.686 1397.76 Q188.63 1402.34 182.82 1402.34 Q177.01 1402.34 173.931 1397.76 Q170.876 1393.15 170.876 1384.42 Q170.876 1375.67 173.931 1371.09 Q177.01 1366.48 182.82 1366.48 Z" fill="#000000" fill-rule="nonzero" fill-opacity="1" /><path clip-path="url(#clip610)" d="M50.9921 1178.18 L73.2142 1178.18 L73.2142 1180.17 L60.668 1212.74 L55.7838 1212.74 L67.5893 1182.11 L50.9921 1182.11 L50.9921 1178.18 Z" fill="#000000" fill-rule="nonzero" fill-opacity="1" /><path clip-path="url(#clip610)" d="M96.5011 1194.1 Q99.8576 1194.82 101.733 1197.09 Q103.631 1199.36 103.631 1202.69 Q103.631 1207.81 100.112 1210.61 Q96.5937 1213.41 90.1123 1213.41 Q87.9364 1213.41 85.6216 1212.97 Q83.3299 1212.55 80.8762 1211.7 L80.8762 1207.18 Q82.8207 1208.32 85.1355 1208.9 Q87.4503 1209.47 89.9734 1209.47 Q94.3715 1209.47 96.6632 1207.74 Q98.978 1206 98.978 1202.69 Q98.978 1199.64 96.8252 1197.92 Q94.6956 1196.19 90.8762 1196.19 L86.8484 1196.19 L86.8484 1192.35 L91.0614 1192.35 Q94.5104 1192.35 96.3391 1190.98 Q98.1678 1189.59 98.1678 1187 Q98.1678 1184.34 96.2697 1182.92 Q94.3947 1181.49 90.8762 1181.49 Q88.9549 1181.49 86.7558 1181.91 Q84.5568 1182.32 81.9179 1183.2 L81.9179 1179.04 Q84.5799 1178.29 86.8947 1177.92 Q89.2327 1177.55 91.2928 1177.55 Q96.6169 1177.55 99.7187 1179.98 Q102.821 1182.39 102.821 1186.51 Q102.821 1189.38 101.177 1191.37 Q99.5335 1193.34 96.5011 1194.1 Z" fill="#000000" fill-rule="nonzero" fill-opacity="1" /><path clip-path="url(#clip610)" d="M122.496 1181.26 Q118.885 1181.26 117.057 1184.82 Q115.251 1188.36 115.251 1195.49 Q115.251 1202.6 117.057 1206.16 Q118.885 1209.71 122.496 1209.71 Q126.131 1209.71 127.936 1206.16 Q129.765 1202.6 129.765 1195.49 Q129.765 1188.36 127.936 1184.82 Q126.131 1181.26 122.496 1181.26 M122.496 1177.55 Q128.307 1177.55 131.362 1182.16 Q134.441 1186.74 134.441 1195.49 Q134.441 1204.22 131.362 1208.83 Q128.307 1213.41 122.496 1213.41 Q116.686 1213.41 113.608 1208.83 Q110.552 1204.22 110.552 1195.49 Q110.552 1186.74 113.608 1182.16 Q116.686 1177.55 122.496 1177.55 Z" fill="#000000" fill-rule="nonzero" fill-opacity="1" /><path clip-path="url(#clip610)" d="M152.658 1181.26 Q149.047 1181.26 147.218 1184.82 Q145.413 1188.36 145.413 1195.49 Q145.413 1202.6 147.218 1206.16 Q149.047 1209.71 152.658 1209.71 Q156.292 1209.71 158.098 1206.16 Q159.927 1202.6 159.927 1195.49 Q159.927 1188.36 158.098 1184.82 Q156.292 1181.26 152.658 1181.26 M152.658 1177.55 Q158.468 1177.55 161.524 1182.16 Q164.603 1186.74 164.603 1195.49 Q164.603 1204.22 161.524 1208.83 Q158.468 1213.41 152.658 1213.41 Q146.848 1213.41 143.769 1208.83 Q140.714 1204.22 140.714 1195.49 Q140.714 1186.74 143.769 1182.16 Q146.848 1177.55 152.658 1177.55 Z" fill="#000000" fill-rule="nonzero" fill-opacity="1" /><path clip-path="url(#clip610)" d="M182.82 1181.26 Q179.209 1181.26 177.38 1184.82 Q175.575 1188.36 175.575 1195.49 Q175.575 1202.6 177.38 1206.16 Q179.209 1209.71 182.82 1209.71 Q186.454 1209.71 188.26 1206.16 Q190.089 1202.6 190.089 1195.49 Q190.089 1188.36 188.26 1184.82 Q186.454 1181.26 182.82 1181.26 M182.82 1177.55 Q188.63 1177.55 191.686 1182.16 Q194.765 1186.74 194.765 1195.49 Q194.765 1204.22 191.686 1208.83 Q188.63 1213.41 182.82 1213.41 Q177.01 1213.41 173.931 1208.83 Q170.876 1204.22 170.876 1195.49 Q170.876 1186.74 173.931 1182.16 Q177.01 1177.55 182.82 1177.55 Z" fill="#000000" fill-rule="nonzero" fill-opacity="1" /><path clip-path="url(#clip610)" d="M50.9921 989.249 L73.2142 989.249 L73.2142 991.24 L60.668 1023.81 L55.7838 1023.81 L67.5893 993.184 L50.9921 993.184 L50.9921 989.249 Z" fill="#000000" fill-rule="nonzero" fill-opacity="1" /><path clip-path="url(#clip610)" d="M96.5011 1005.17 Q99.8576 1005.89 101.733 1008.16 Q103.631 1010.43 103.631 1013.76 Q103.631 1018.88 100.112 1021.68 Q96.5937 1024.48 90.1123 1024.48 Q87.9364 1024.48 85.6216 1024.04 Q83.3299 1023.62 80.8762 1022.77 L80.8762 1018.25 Q82.8207 1019.39 85.1355 1019.97 Q87.4503 1020.55 89.9734 1020.55 Q94.3715 1020.55 96.6632 1018.81 Q98.978 1017.07 98.978 1013.76 Q98.978 1010.71 96.8252 1008.99 Q94.6956 1007.26 90.8762 1007.26 L86.8484 1007.26 L86.8484 1003.42 L91.0614 1003.42 Q94.5104 1003.42 96.3391 1002.05 Q98.1678 1000.66 98.1678 998.069 Q98.1678 995.406 96.2697 993.994 Q94.3947 992.559 90.8762 992.559 Q88.9549 992.559 86.7558 992.976 Q84.5568 993.393 81.9179 994.272 L81.9179 990.106 Q84.5799 989.365 86.8947 988.994 Q89.2327 988.624 91.2928 988.624 Q96.6169 988.624 99.7187 991.055 Q102.821 993.462 102.821 997.582 Q102.821 1000.45 101.177 1002.44 Q99.5335 1004.41 96.5011 1005.17 Z" fill="#000000" fill-rule="nonzero" fill-opacity="1" /><path clip-path="url(#clip610)" d="M112.543 989.249 L130.899 989.249 L130.899 993.184 L116.825 993.184 L116.825 1001.66 Q117.844 1001.31 118.862 1001.15 Q119.881 1000.96 120.899 1000.96 Q126.686 1000.96 130.066 1004.13 Q133.445 1007.3 133.445 1012.72 Q133.445 1018.3 129.973 1021.4 Q126.501 1024.48 120.182 1024.48 Q118.006 1024.48 115.737 1024.11 Q113.492 1023.74 111.084 1023 L111.084 1018.3 Q113.168 1019.43 115.39 1019.99 Q117.612 1020.55 120.089 1020.55 Q124.094 1020.55 126.432 1018.44 Q128.769 1016.33 128.769 1012.72 Q128.769 1009.11 126.432 1007 Q124.094 1004.9 120.089 1004.9 Q118.214 1004.9 116.339 1005.31 Q114.487 1005.73 112.543 1006.61 L112.543 989.249 Z" fill="#000000" fill-rule="nonzero" fill-opacity="1" /><path clip-path="url(#clip610)" d="M152.658 992.328 Q149.047 992.328 147.218 995.893 Q145.413 999.434 145.413 1006.56 Q145.413 1013.67 147.218 1017.24 Q149.047 1020.78 152.658 1020.78 Q156.292 1020.78 158.098 1017.24 Q159.927 1013.67 159.927 1006.56 Q159.927 999.434 158.098 995.893 Q156.292 992.328 152.658 992.328 M152.658 988.624 Q158.468 988.624 161.524 993.231 Q164.603 997.814 164.603 1006.56 Q164.603 1015.29 161.524 1019.9 Q158.468 1024.48 152.658 1024.48 Q146.848 1024.48 143.769 1019.9 Q140.714 1015.29 140.714 1006.56 Q140.714 997.814 143.769 993.231 Q146.848 988.624 152.658 988.624 Z" fill="#000000" fill-rule="nonzero" fill-opacity="1" /><path clip-path="url(#clip610)" d="M182.82 992.328 Q179.209 992.328 177.38 995.893 Q175.575 999.434 175.575 1006.56 Q175.575 1013.67 177.38 1017.24 Q179.209 1020.78 182.82 1020.78 Q186.454 1020.78 188.26 1017.24 Q190.089 1013.67 190.089 1006.56 Q190.089 999.434 188.26 995.893 Q186.454 992.328 182.82 992.328 M182.82 988.624 Q188.63 988.624 191.686 993.231 Q194.765 997.814 194.765 1006.56 Q194.765 1015.29 191.686 1019.9 Q188.63 1024.48 182.82 1024.48 Q177.01 1024.48 173.931 1019.9 Q170.876 1015.29 170.876 1006.56 Q170.876 997.814 173.931 993.231 Q177.01 988.624 182.82 988.624 Z" fill="#000000" fill-rule="nonzero" fill-opacity="1" /><path clip-path="url(#clip610)" d="M50.9921 800.319 L73.2142 800.319 L73.2142 802.31 L60.668 834.879 L55.7838 834.879 L67.5893 804.255 L50.9921 804.255 L50.9921 800.319 Z" fill="#000000" fill-rule="nonzero" fill-opacity="1" /><path clip-path="url(#clip610)" d="M95.1817 804.394 L83.3762 822.842 L95.1817 822.842 L95.1817 804.394 M93.9549 800.319 L99.8345 800.319 L99.8345 822.842 L104.765 822.842 L104.765 826.731 L99.8345 826.731 L99.8345 834.879 L95.1817 834.879 L95.1817 826.731 L79.5799 826.731 L79.5799 822.217 L93.9549 800.319 Z" fill="#000000" fill-rule="nonzero" fill-opacity="1" /><path clip-path="url(#clip610)" d="M122.496 803.398 Q118.885 803.398 117.057 806.963 Q115.251 810.505 115.251 817.634 Q115.251 824.741 117.057 828.305 Q118.885 831.847 122.496 831.847 Q126.131 831.847 127.936 828.305 Q129.765 824.741 129.765 817.634 Q129.765 810.505 127.936 806.963 Q126.131 803.398 122.496 803.398 M122.496 799.694 Q128.307 799.694 131.362 804.301 Q134.441 808.884 134.441 817.634 Q134.441 826.361 131.362 830.967 Q128.307 835.551 122.496 835.551 Q116.686 835.551 113.608 830.967 Q110.552 826.361 110.552 817.634 Q110.552 808.884 113.608 804.301 Q116.686 799.694 122.496 799.694 Z" fill="#000000" fill-rule="nonzero" fill-opacity="1" /><path clip-path="url(#clip610)" d="M152.658 803.398 Q149.047 803.398 147.218 806.963 Q145.413 810.505 145.413 817.634 Q145.413 824.741 147.218 828.305 Q149.047 831.847 152.658 831.847 Q156.292 831.847 158.098 828.305 Q159.927 824.741 159.927 817.634 Q159.927 810.505 158.098 806.963 Q156.292 803.398 152.658 803.398 M152.658 799.694 Q158.468 799.694 161.524 804.301 Q164.603 808.884 164.603 817.634 Q164.603 826.361 161.524 830.967 Q158.468 835.551 152.658 835.551 Q146.848 835.551 143.769 830.967 Q140.714 826.361 140.714 817.634 Q140.714 808.884 143.769 804.301 Q146.848 799.694 152.658 799.694 Z" fill="#000000" fill-rule="nonzero" fill-opacity="1" /><path clip-path="url(#clip610)" d="M182.82 803.398 Q179.209 803.398 177.38 806.963 Q175.575 810.505 175.575 817.634 Q175.575 824.741 177.38 828.305 Q179.209 831.847 182.82 831.847 Q186.454 831.847 188.26 828.305 Q190.089 824.741 190.089 817.634 Q190.089 810.505 188.26 806.963 Q186.454 803.398 182.82 803.398 M182.82 799.694 Q188.63 799.694 191.686 804.301 Q194.765 808.884 194.765 817.634 Q194.765 826.361 191.686 830.967 Q188.63 835.551 182.82 835.551 Q177.01 835.551 173.931 830.967 Q170.876 826.361 170.876 817.634 Q170.876 808.884 173.931 804.301 Q177.01 799.694 182.82 799.694 Z" fill="#000000" fill-rule="nonzero" fill-opacity="1" /><path clip-path="url(#clip610)" d="M50.9921 611.39 L73.2142 611.39 L73.2142 613.381 L60.668 645.95 L55.7838 645.95 L67.5893 615.325 L50.9921 615.325 L50.9921 611.39 Z" fill="#000000" fill-rule="nonzero" fill-opacity="1" /><path clip-path="url(#clip610)" d="M95.1817 615.464 L83.3762 633.913 L95.1817 633.913 L95.1817 615.464 M93.9549 611.39 L99.8345 611.39 L99.8345 633.913 L104.765 633.913 L104.765 637.802 L99.8345 637.802 L99.8345 645.95 L95.1817 645.95 L95.1817 637.802 L79.5799 637.802 L79.5799 633.288 L93.9549 611.39 Z" fill="#000000" fill-rule="nonzero" fill-opacity="1" /><path clip-path="url(#clip610)" d="M112.543 611.39 L130.899 611.39 L130.899 615.325 L116.825 615.325 L116.825 623.797 Q117.844 623.45 118.862 623.288 Q119.881 623.103 120.899 623.103 Q126.686 623.103 130.066 626.274 Q133.445 629.445 133.445 634.862 Q133.445 640.441 129.973 643.542 Q126.501 646.621 120.182 646.621 Q118.006 646.621 115.737 646.251 Q113.492 645.88 111.084 645.14 L111.084 640.441 Q113.168 641.575 115.39 642.13 Q117.612 642.686 120.089 642.686 Q124.094 642.686 126.432 640.579 Q128.769 638.473 128.769 634.862 Q128.769 631.251 126.432 629.144 Q124.094 627.038 120.089 627.038 Q118.214 627.038 116.339 627.455 Q114.487 627.871 112.543 628.751 L112.543 611.39 Z" fill="#000000" fill-rule="nonzero" fill-opacity="1" /><path clip-path="url(#clip610)" d="M152.658 614.468 Q149.047 614.468 147.218 618.033 Q145.413 621.575 145.413 628.705 Q145.413 635.811 147.218 639.376 Q149.047 642.917 152.658 642.917 Q156.292 642.917 158.098 639.376 Q159.927 635.811 159.927 628.705 Q159.927 621.575 158.098 618.033 Q156.292 614.468 152.658 614.468 M152.658 610.765 Q158.468 610.765 161.524 615.371 Q164.603 619.955 164.603 628.705 Q164.603 637.431 161.524 642.038 Q158.468 646.621 152.658 646.621 Q146.848 646.621 143.769 642.038 Q140.714 637.431 140.714 628.705 Q140.714 619.955 143.769 615.371 Q146.848 610.765 152.658 610.765 Z" fill="#000000" fill-rule="nonzero" fill-opacity="1" /><path clip-path="url(#clip610)" d="M182.82 614.468 Q179.209 614.468 177.38 618.033 Q175.575 621.575 175.575 628.705 Q175.575 635.811 177.38 639.376 Q179.209 642.917 182.82 642.917 Q186.454 642.917 188.26 639.376 Q190.089 635.811 190.089 628.705 Q190.089 621.575 188.26 618.033 Q186.454 614.468 182.82 614.468 M182.82 610.765 Q188.63 610.765 191.686 615.371 Q194.765 619.955 194.765 628.705 Q194.765 637.431 191.686 642.038 Q188.63 646.621 182.82 646.621 Q177.01 646.621 173.931 642.038 Q170.876 637.431 170.876 628.705 Q170.876 619.955 173.931 615.371 Q177.01 610.765 182.82 610.765 Z" fill="#000000" fill-rule="nonzero" fill-opacity="1" /><path clip-path="url(#clip610)" d="M50.9921 422.46 L73.2142 422.46 L73.2142 424.451 L60.668 457.02 L55.7838 457.02 L67.5893 426.395 L50.9921 426.395 L50.9921 422.46 Z" fill="#000000" fill-rule="nonzero" fill-opacity="1" /><path clip-path="url(#clip610)" d="M82.3808 422.46 L100.737 422.46 L100.737 426.395 L86.6632 426.395 L86.6632 434.867 Q87.6817 434.52 88.7003 434.358 Q89.7188 434.173 90.7373 434.173 Q96.5243 434.173 99.9039 437.344 Q103.284 440.516 103.284 445.932 Q103.284 451.511 99.8113 454.613 Q96.3391 457.691 90.0197 457.691 Q87.8438 457.691 85.5753 457.321 Q83.3299 456.951 80.9225 456.21 L80.9225 451.511 Q83.0058 452.645 85.2281 453.201 Q87.4503 453.756 89.9271 453.756 Q93.9317 453.756 96.2697 451.65 Q98.6076 449.543 98.6076 445.932 Q98.6076 442.321 96.2697 440.215 Q93.9317 438.108 89.9271 438.108 Q88.0521 438.108 86.1771 438.525 Q84.3253 438.942 82.3808 439.821 L82.3808 422.46 Z" fill="#000000" fill-rule="nonzero" fill-opacity="1" /><path clip-path="url(#clip610)" d="M122.496 425.539 Q118.885 425.539 117.057 429.104 Q115.251 432.645 115.251 439.775 Q115.251 446.881 117.057 450.446 Q118.885 453.988 122.496 453.988 Q126.131 453.988 127.936 450.446 Q129.765 446.881 129.765 439.775 Q129.765 432.645 127.936 429.104 Q126.131 425.539 122.496 425.539 M122.496 421.835 Q128.307 421.835 131.362 426.442 Q134.441 431.025 134.441 439.775 Q134.441 448.502 131.362 453.108 Q128.307 457.691 122.496 457.691 Q116.686 457.691 113.608 453.108 Q110.552 448.502 110.552 439.775 Q110.552 431.025 113.608 426.442 Q116.686 421.835 122.496 421.835 Z" fill="#000000" fill-rule="nonzero" fill-opacity="1" /><path clip-path="url(#clip610)" d="M152.658 425.539 Q149.047 425.539 147.218 429.104 Q145.413 432.645 145.413 439.775 Q145.413 446.881 147.218 450.446 Q149.047 453.988 152.658 453.988 Q156.292 453.988 158.098 450.446 Q159.927 446.881 159.927 439.775 Q159.927 432.645 158.098 429.104 Q156.292 425.539 152.658 425.539 M152.658 421.835 Q158.468 421.835 161.524 426.442 Q164.603 431.025 164.603 439.775 Q164.603 448.502 161.524 453.108 Q158.468 457.691 152.658 457.691 Q146.848 457.691 143.769 453.108 Q140.714 448.502 140.714 439.775 Q140.714 431.025 143.769 426.442 Q146.848 421.835 152.658 421.835 Z" fill="#000000" fill-rule="nonzero" fill-opacity="1" /><path clip-path="url(#clip610)" d="M182.82 425.539 Q179.209 425.539 177.38 429.104 Q175.575 432.645 175.575 439.775 Q175.575 446.881 177.38 450.446 Q179.209 453.988 182.82 453.988 Q186.454 453.988 188.26 450.446 Q190.089 446.881 190.089 439.775 Q190.089 432.645 188.26 429.104 Q186.454 425.539 182.82 425.539 M182.82 421.835 Q188.63 421.835 191.686 426.442 Q194.765 431.025 194.765 439.775 Q194.765 448.502 191.686 453.108 Q188.63 457.691 182.82 457.691 Q177.01 457.691 173.931 453.108 Q170.876 448.502 170.876 439.775 Q170.876 431.025 173.931 426.442 Q177.01 421.835 182.82 421.835 Z" fill="#000000" fill-rule="nonzero" fill-opacity="1" /><path clip-path="url(#clip610)" d="M50.9921 233.53 L73.2142 233.53 L73.2142 235.521 L60.668 268.09 L55.7838 268.09 L67.5893 237.466 L50.9921 237.466 L50.9921 233.53 Z" fill="#000000" fill-rule="nonzero" fill-opacity="1" /><path clip-path="url(#clip610)" d="M82.3808 233.53 L100.737 233.53 L100.737 237.466 L86.6632 237.466 L86.6632 245.938 Q87.6817 245.591 88.7003 245.429 Q89.7188 245.243 90.7373 245.243 Q96.5243 245.243 99.9039 248.415 Q103.284 251.586 103.284 257.003 Q103.284 262.581 99.8113 265.683 Q96.3391 268.762 90.0197 268.762 Q87.8438 268.762 85.5753 268.391 Q83.3299 268.021 80.9225 267.28 L80.9225 262.581 Q83.0058 263.716 85.2281 264.271 Q87.4503 264.827 89.9271 264.827 Q93.9317 264.827 96.2697 262.72 Q98.6076 260.614 98.6076 257.003 Q98.6076 253.391 96.2697 251.285 Q93.9317 249.179 89.9271 249.179 Q88.0521 249.179 86.1771 249.595 Q84.3253 250.012 82.3808 250.892 L82.3808 233.53 Z" fill="#000000" fill-rule="nonzero" fill-opacity="1" /><path clip-path="url(#clip610)" d="M112.543 233.53 L130.899 233.53 L130.899 237.466 L116.825 237.466 L116.825 245.938 Q117.844 245.591 118.862 245.429 Q119.881 245.243 120.899 245.243 Q126.686 245.243 130.066 248.415 Q133.445 251.586 133.445 257.003 Q133.445 262.581 129.973 265.683 Q126.501 268.762 120.182 268.762 Q118.006 268.762 115.737 268.391 Q113.492 268.021 111.084 267.28 L111.084 262.581 Q113.168 263.716 115.39 264.271 Q117.612 264.827 120.089 264.827 Q124.094 264.827 126.432 262.72 Q128.769 260.614 128.769 257.003 Q128.769 253.391 126.432 251.285 Q124.094 249.179 120.089 249.179 Q118.214 249.179 116.339 249.595 Q114.487 250.012 112.543 250.892 L112.543 233.53 Z" fill="#000000" fill-rule="nonzero" fill-opacity="1" /><path clip-path="url(#clip610)" d="M152.658 236.609 Q149.047 236.609 147.218 240.174 Q145.413 243.716 145.413 250.845 Q145.413 257.952 147.218 261.516 Q149.047 265.058 152.658 265.058 Q156.292 265.058 158.098 261.516 Q159.927 257.952 159.927 250.845 Q159.927 243.716 158.098 240.174 Q156.292 236.609 152.658 236.609 M152.658 232.905 Q158.468 232.905 161.524 237.512 Q164.603 242.095 164.603 250.845 Q164.603 259.572 161.524 264.178 Q158.468 268.762 152.658 268.762 Q146.848 268.762 143.769 264.178 Q140.714 259.572 140.714 250.845 Q140.714 242.095 143.769 237.512 Q146.848 232.905 152.658 232.905 Z" fill="#000000" fill-rule="nonzero" fill-opacity="1" /><path clip-path="url(#clip610)" d="M182.82 236.609 Q179.209 236.609 177.38 240.174 Q175.575 243.716 175.575 250.845 Q175.575 257.952 177.38 261.516 Q179.209 265.058 182.82 265.058 Q186.454 265.058 188.26 261.516 Q190.089 257.952 190.089 250.845 Q190.089 243.716 188.26 240.174 Q186.454 236.609 182.82 236.609 M182.82 232.905 Q188.63 232.905 191.686 237.512 Q194.765 242.095 194.765 250.845 Q194.765 259.572 191.686 264.178 Q188.63 268.762 182.82 268.762 Q177.01 268.762 173.931 264.178 Q170.876 259.572 170.876 250.845 Q170.876 242.095 173.931 237.512 Q177.01 232.905 182.82 232.905 Z" fill="#000000" fill-rule="nonzero" fill-opacity="1" /><path clip-path="url(#clip610)" d="M1262.23 35.2602 Q1262.23 29.4732 1259.83 26.2904 Q1257.46 23.1075 1253.15 23.1075 Q1248.86 23.1075 1246.46 26.2904 Q1244.09 29.4732 1244.09 35.2602 Q1244.09 41.0183 1246.46 44.2012 Q1248.86 47.384 1253.15 47.384 Q1257.46 47.384 1259.83 44.2012 Q1262.23 41.0183 1262.23 35.2602 M1267.56 47.818 Q1267.56 56.0934 1263.88 60.1154 Q1260.21 64.1663 1252.63 64.1663 Q1249.82 64.1663 1247.33 63.7323 Q1244.84 63.3272 1242.5 62.4592 L1242.5 57.2798 Q1244.84 58.5529 1247.13 59.1606 Q1249.41 59.7682 1251.79 59.7682 Q1257.02 59.7682 1259.63 57.0194 Q1262.23 54.2995 1262.23 48.7729 L1262.23 46.1398 Q1260.58 49.0044 1258.01 50.4222 Q1255.43 51.84 1251.84 51.84 Q1245.88 51.84 1242.24 47.2972 Q1238.59 42.7544 1238.59 35.2602 Q1238.59 27.7371 1242.24 23.1943 Q1245.88 18.6515 1251.84 18.6515 Q1255.43 18.6515 1258.01 20.0693 Q1260.58 21.4872 1262.23 24.3517 L1262.23 19.4328 L1267.56 19.4328 L1267.56 47.818 Z" fill="#000000" fill-rule="nonzero" fill-opacity="1" /><path clip-path="url(#clip610)" d="M1299.85 24.3517 L1299.85 6.81709 L1305.17 6.81709 L1305.17 51.84 L1299.85 51.84 L1299.85 46.9789 Q1298.17 49.8724 1295.59 51.2902 Q1293.05 52.6791 1289.46 52.6791 Q1283.59 52.6791 1279.88 47.9916 Q1276.21 43.3042 1276.21 35.6653 Q1276.21 28.0265 1279.88 23.339 Q1283.59 18.6515 1289.46 18.6515 Q1293.05 18.6515 1295.59 20.0693 Q1298.17 21.4582 1299.85 24.3517 M1281.71 35.6653 Q1281.71 41.5391 1284.11 44.8956 Q1286.54 48.2231 1290.76 48.2231 Q1294.99 48.2231 1297.42 44.8956 Q1299.85 41.5391 1299.85 35.6653 Q1299.85 29.7915 1297.42 26.464 Q1294.99 23.1075 1290.76 23.1075 Q1286.54 23.1075 1284.11 26.464 Q1281.71 29.7915 1281.71 35.6653 Z" fill="#000000" fill-rule="nonzero" fill-opacity="1" /><path clip-path="url(#clip610)" d="M1321.29 46.9789 L1321.29 64.1663 L1315.94 64.1663 L1315.94 19.4328 L1321.29 19.4328 L1321.29 24.3517 Q1322.97 21.4582 1325.51 20.0693 Q1328.09 18.6515 1331.65 18.6515 Q1337.55 18.6515 1341.22 23.339 Q1344.93 28.0265 1344.93 35.6653 Q1344.93 43.3042 1341.22 47.9916 Q1337.55 52.6791 1331.65 52.6791 Q1328.09 52.6791 1325.51 51.2902 Q1322.97 49.8724 1321.29 46.9789 M1339.4 35.6653 Q1339.4 29.7915 1336.97 26.464 Q1334.57 23.1075 1330.35 23.1075 Q1326.12 23.1075 1323.69 26.464 Q1321.29 29.7915 1321.29 35.6653 Q1321.29 41.5391 1323.69 44.8956 Q1326.12 48.2231 1330.35 48.2231 Q1334.57 48.2231 1336.97 44.8956 Q1339.4 41.5391 1339.4 35.6653 Z" fill="#000000" fill-rule="nonzero" fill-opacity="1" /><polyline clip-path="url(#clip612)" style="stroke:#009af9; stroke-linecap:round; stroke-linejoin:round; stroke-width:4; stroke-opacity:1; fill:none" points="290.821,1413.86 415.938,1073.25 541.056,1447.38 666.173,1215.08 791.291,1124.51 916.408,1274.27 1041.53,1149.9 1166.64,1236.94 1291.76,954.178 1416.88,530.786 1542,607.795 1667.11,730.482 1792.23,813.57 1917.35,784.573 2042.46,787.902 2167.58,519.076 2292.7,145.256 "/>
<path clip-path="url(#clip610)" d="M301.498 255.881 L566.127 255.881 L566.127 152.201 L301.498 152.201  Z" fill="#ffffff" fill-rule="evenodd" fill-opacity="1"/>
<polyline clip-path="url(#clip610)" style="stroke:#000000; stroke-linecap:round; stroke-linejoin:round; stroke-width:4; stroke-opacity:1; fill:none" points="301.498,255.881 566.127,255.881 566.127,152.201 301.498,152.201 301.498,255.881 "/>
<polyline clip-path="url(#clip610)" style="stroke:#009af9; stroke-linecap:round; stroke-linejoin:round; stroke-width:4; stroke-opacity:1; fill:none" points="325.075,204.041 466.541,204.041 "/>
<path clip-path="url(#clip610)" d="M503.962 223.728 Q502.156 228.358 500.443 229.77 Q498.73 231.182 495.86 231.182 L492.457 231.182 L492.457 227.617 L494.957 227.617 Q496.716 227.617 497.688 226.784 Q498.661 225.95 499.841 222.848 L500.605 220.904 L490.119 195.395 L494.633 195.395 L502.735 215.673 L510.836 195.395 L515.35 195.395 L503.962 223.728 Z" fill="#000000" fill-rule="nonzero" fill-opacity="1" /><path clip-path="url(#clip610)" d="M522.642 217.385 L530.281 217.385 L530.281 191.02 L521.971 192.687 L521.971 188.427 L530.235 186.761 L534.91 186.761 L534.91 217.385 L542.549 217.385 L542.549 221.321 L522.642 221.321 L522.642 217.385 Z" fill="#000000" fill-rule="nonzero" fill-opacity="1" /></svg>
