<?xml version="1.0" encoding="utf-8"?>
<svg xmlns="http://www.w3.org/2000/svg" xmlns:xlink="http://www.w3.org/1999/xlink" width="600" height="400" viewBox="0 0 2400 1600">
<defs>
  <clipPath id="clip120">
    <rect x="0" y="0" width="2400" height="1600"/>
  </clipPath>
</defs>
<path clip-path="url(#clip120)" d="M0 1600 L2400 1600 L2400 0 L0 0  Z" fill="#ffffff" fill-rule="evenodd" fill-opacity="1"/>
<defs>
  <clipPath id="clip121">
    <rect x="480" y="0" width="1681" height="1600"/>
  </clipPath>
</defs>
<path clip-path="url(#clip120)" d="M279.866 1423.18 L2352.76 1423.18 L2352.76 47.2441 L279.866 47.2441  Z" fill="#ffffff" fill-rule="evenodd" fill-opacity="1"/>
<defs>
  <clipPath id="clip122">
    <rect x="279" y="47" width="2074" height="1377"/>
  </clipPath>
</defs>
<polyline clip-path="url(#clip122)" style="stroke:#000000; stroke-linecap:round; stroke-linejoin:round; stroke-width:2; stroke-opacity:0.1; fill:none" points="582.977,1423.18 582.977,47.2441 "/>
<polyline clip-path="url(#clip122)" style="stroke:#000000; stroke-linecap:round; stroke-linejoin:round; stroke-width:2; stroke-opacity:0.1; fill:none" points="949.644,1423.18 949.644,47.2441 "/>
<polyline clip-path="url(#clip122)" style="stroke:#000000; stroke-linecap:round; stroke-linejoin:round; stroke-width:2; stroke-opacity:0.1; fill:none" points="1316.31,1423.18 1316.31,47.2441 "/>
<polyline clip-path="url(#clip122)" style="stroke:#000000; stroke-linecap:round; stroke-linejoin:round; stroke-width:2; stroke-opacity:0.1; fill:none" points="1682.98,1423.18 1682.98,47.2441 "/>
<polyline clip-path="url(#clip122)" style="stroke:#000000; stroke-linecap:round; stroke-linejoin:round; stroke-width:2; stroke-opacity:0.1; fill:none" points="2049.64,1423.18 2049.64,47.2441 "/>
<polyline clip-path="url(#clip122)" style="stroke:#000000; stroke-linecap:round; stroke-linejoin:round; stroke-width:2; stroke-opacity:0.1; fill:none" points="279.866,1223.43 2352.76,1223.43 "/>
<polyline clip-path="url(#clip122)" style="stroke:#000000; stroke-linecap:round; stroke-linejoin:round; stroke-width:2; stroke-opacity:0.1; fill:none" points="279.866,964.511 2352.76,964.511 "/>
<polyline clip-path="url(#clip122)" style="stroke:#000000; stroke-linecap:round; stroke-linejoin:round; stroke-width:2; stroke-opacity:0.1; fill:none" points="279.866,705.592 2352.76,705.592 "/>
<polyline clip-path="url(#clip122)" style="stroke:#000000; stroke-linecap:round; stroke-linejoin:round; stroke-width:2; stroke-opacity:0.1; fill:none" points="279.866,446.672 2352.76,446.672 "/>
<polyline clip-path="url(#clip122)" style="stroke:#000000; stroke-linecap:round; stroke-linejoin:round; stroke-width:2; stroke-opacity:0.1; fill:none" points="279.866,187.753 2352.76,187.753 "/>
<polyline clip-path="url(#clip120)" style="stroke:#000000; stroke-linecap:round; stroke-linejoin:round; stroke-width:4; stroke-opacity:1; fill:none" points="279.866,1423.18 2352.76,1423.18 "/>
<polyline clip-path="url(#clip120)" style="stroke:#000000; stroke-linecap:round; stroke-linejoin:round; stroke-width:4; stroke-opacity:1; fill:none" points="582.977,1423.18 582.977,1404.28 "/>
<polyline clip-path="url(#clip120)" style="stroke:#000000; stroke-linecap:round; stroke-linejoin:round; stroke-width:4; stroke-opacity:1; fill:none" points="949.644,1423.18 949.644,1404.28 "/>
<polyline clip-path="url(#clip120)" style="stroke:#000000; stroke-linecap:round; stroke-linejoin:round; stroke-width:4; stroke-opacity:1; fill:none" points="1316.31,1423.18 1316.31,1404.28 "/>
<polyline clip-path="url(#clip120)" style="stroke:#000000; stroke-linecap:round; stroke-linejoin:round; stroke-width:4; stroke-opacity:1; fill:none" points="1682.98,1423.18 1682.98,1404.28 "/>
<polyline clip-path="url(#clip120)" style="stroke:#000000; stroke-linecap:round; stroke-linejoin:round; stroke-width:4; stroke-opacity:1; fill:none" points="2049.64,1423.18 2049.64,1404.28 "/>
<path clip-path="url(#clip120)" d="M587.225 1466.95 Q590.581 1467.66 592.456 1469.93 Q594.354 1472.2 594.354 1475.53 Q594.354 1480.65 590.836 1483.45 Q587.317 1486.25 580.836 1486.25 Q578.66 1486.25 576.345 1485.81 Q574.054 1485.39 571.6 1484.54 L571.6 1480.02 Q573.544 1481.16 575.859 1481.74 Q578.174 1482.32 580.697 1482.32 Q585.095 1482.32 587.387 1480.58 Q589.702 1478.84 589.702 1475.53 Q589.702 1472.48 587.549 1470.77 Q585.419 1469.03 581.6 1469.03 L577.572 1469.03 L577.572 1465.19 L581.785 1465.19 Q585.234 1465.19 587.063 1463.82 Q588.892 1462.43 588.892 1459.84 Q588.892 1457.18 586.993 1455.77 Q585.118 1454.33 581.6 1454.33 Q579.679 1454.33 577.48 1454.75 Q575.28 1455.16 572.642 1456.04 L572.642 1451.88 Q575.304 1451.14 577.618 1450.77 Q579.956 1450.39 582.017 1450.39 Q587.341 1450.39 590.442 1452.83 Q593.544 1455.23 593.544 1459.35 Q593.544 1462.22 591.901 1464.21 Q590.257 1466.18 587.225 1466.95 Z" fill="#000000" fill-rule="nonzero" fill-opacity="1" /><path clip-path="url(#clip120)" d="M950.049 1466.44 Q946.901 1466.44 945.049 1468.59 Q943.22 1470.74 943.22 1474.49 Q943.22 1478.22 945.049 1480.39 Q946.901 1482.55 950.049 1482.55 Q953.197 1482.55 955.026 1480.39 Q956.878 1478.22 956.878 1474.49 Q956.878 1470.74 955.026 1468.59 Q953.197 1466.44 950.049 1466.44 M959.332 1451.78 L959.332 1456.04 Q957.572 1455.21 955.767 1454.77 Q953.984 1454.33 952.225 1454.33 Q947.595 1454.33 945.142 1457.45 Q942.711 1460.58 942.364 1466.9 Q943.73 1464.89 945.79 1463.82 Q947.85 1462.73 950.327 1462.73 Q955.535 1462.73 958.544 1465.9 Q961.577 1469.05 961.577 1474.49 Q961.577 1479.82 958.429 1483.03 Q955.281 1486.25 950.049 1486.25 Q944.054 1486.25 940.883 1481.67 Q937.711 1477.06 937.711 1468.33 Q937.711 1460.14 941.6 1455.28 Q945.489 1450.39 952.04 1450.39 Q953.799 1450.39 955.582 1450.74 Q957.387 1451.09 959.332 1451.78 Z" fill="#000000" fill-rule="nonzero" fill-opacity="1" /><path clip-path="url(#clip120)" d="M1306.61 1484.86 L1306.61 1480.6 Q1308.37 1481.44 1310.18 1481.88 Q1311.98 1482.32 1313.72 1482.32 Q1318.35 1482.32 1320.78 1479.21 Q1323.23 1476.09 1323.58 1469.75 Q1322.24 1471.74 1320.18 1472.8 Q1318.12 1473.87 1315.62 1473.87 Q1310.43 1473.87 1307.4 1470.74 Q1304.39 1467.59 1304.39 1462.15 Q1304.39 1456.83 1307.54 1453.61 Q1310.69 1450.39 1315.92 1450.39 Q1321.91 1450.39 1325.06 1455 Q1328.23 1459.58 1328.23 1468.33 Q1328.23 1476.51 1324.34 1481.39 Q1320.48 1486.25 1313.93 1486.25 Q1312.17 1486.25 1310.36 1485.9 Q1308.56 1485.56 1306.61 1484.86 M1315.92 1470.21 Q1319.07 1470.21 1320.89 1468.06 Q1322.75 1465.9 1322.75 1462.15 Q1322.75 1458.43 1320.89 1456.27 Q1319.07 1454.1 1315.92 1454.1 Q1312.77 1454.1 1310.92 1456.27 Q1309.09 1458.43 1309.09 1462.15 Q1309.09 1465.9 1310.92 1468.06 Q1312.77 1470.21 1315.92 1470.21 Z" fill="#000000" fill-rule="nonzero" fill-opacity="1" /><path clip-path="url(#clip120)" d="M1658.46 1481.64 L1666.1 1481.64 L1666.1 1455.28 L1657.79 1456.95 L1657.79 1452.69 L1666.06 1451.02 L1670.73 1451.02 L1670.73 1481.64 L1678.37 1481.64 L1678.37 1485.58 L1658.46 1485.58 L1658.46 1481.64 Z" fill="#000000" fill-rule="nonzero" fill-opacity="1" /><path clip-path="url(#clip120)" d="M1691.84 1481.64 L1708.16 1481.64 L1708.16 1485.58 L1686.22 1485.58 L1686.22 1481.64 Q1688.88 1478.89 1693.46 1474.26 Q1698.07 1469.61 1699.25 1468.27 Q1701.5 1465.74 1702.38 1464.01 Q1703.28 1462.25 1703.28 1460.56 Q1703.28 1457.8 1701.33 1456.07 Q1699.41 1454.33 1696.31 1454.33 Q1694.11 1454.33 1691.66 1455.09 Q1689.23 1455.86 1686.45 1457.41 L1686.45 1452.69 Q1689.27 1451.55 1691.73 1450.97 Q1694.18 1450.39 1696.22 1450.39 Q1701.59 1450.39 1704.78 1453.08 Q1707.98 1455.77 1707.98 1460.26 Q1707.98 1462.39 1707.17 1464.31 Q1706.38 1466.2 1704.27 1468.8 Q1703.7 1469.47 1700.59 1472.69 Q1697.49 1475.88 1691.84 1481.64 Z" fill="#000000" fill-rule="nonzero" fill-opacity="1" /><path clip-path="url(#clip120)" d="M2024.83 1481.64 L2032.47 1481.64 L2032.47 1455.28 L2024.16 1456.95 L2024.16 1452.69 L2032.42 1451.02 L2037.1 1451.02 L2037.1 1481.64 L2044.74 1481.64 L2044.74 1485.58 L2024.83 1485.58 L2024.83 1481.64 Z" fill="#000000" fill-rule="nonzero" fill-opacity="1" /><path clip-path="url(#clip120)" d="M2054.23 1451.02 L2072.58 1451.02 L2072.58 1454.96 L2058.51 1454.96 L2058.51 1463.43 Q2059.53 1463.08 2060.55 1462.92 Q2061.57 1462.73 2062.58 1462.73 Q2068.37 1462.73 2071.75 1465.9 Q2075.13 1469.08 2075.13 1474.49 Q2075.13 1480.07 2071.66 1483.17 Q2068.19 1486.25 2061.87 1486.25 Q2059.69 1486.25 2057.42 1485.88 Q2055.18 1485.51 2052.77 1484.77 L2052.77 1480.07 Q2054.85 1481.2 2057.08 1481.76 Q2059.3 1482.32 2061.77 1482.32 Q2065.78 1482.32 2068.12 1480.21 Q2070.45 1478.1 2070.45 1474.49 Q2070.45 1470.88 2068.12 1468.77 Q2065.78 1466.67 2061.77 1466.67 Q2059.9 1466.67 2058.02 1467.08 Q2056.17 1467.5 2054.23 1468.38 L2054.23 1451.02 Z" fill="#000000" fill-rule="nonzero" fill-opacity="1" /><path clip-path="url(#clip120)" d="M1187.82 1550.25 Q1187.82 1556.71 1190.46 1560.4 Q1193.13 1564.07 1197.78 1564.07 Q1202.43 1564.07 1205.1 1560.4 Q1207.78 1556.71 1207.78 1550.25 Q1207.78 1543.79 1205.1 1540.13 Q1202.43 1536.44 1197.78 1536.44 Q1193.13 1536.44 1190.46 1540.13 Q1187.82 1543.79 1187.82 1550.25 M1207.78 1562.7 Q1205.93 1565.88 1203.1 1567.44 Q1200.3 1568.97 1196.35 1568.97 Q1189.89 1568.97 1185.81 1563.81 Q1181.77 1558.65 1181.77 1550.25 Q1181.77 1541.85 1185.81 1536.69 Q1189.89 1531.54 1196.35 1531.54 Q1200.3 1531.54 1203.1 1533.1 Q1205.93 1534.62 1207.78 1537.81 L1207.78 1532.4 L1213.63 1532.4 L1213.63 1581.6 L1207.78 1581.6 L1207.78 1562.7 Z" fill="#000000" fill-rule="nonzero" fill-opacity="1" /><path clip-path="url(#clip120)" d="M1225.09 1553.98 L1225.09 1532.4 L1230.95 1532.4 L1230.95 1553.75 Q1230.95 1558.81 1232.92 1561.36 Q1234.89 1563.87 1238.84 1563.87 Q1243.58 1563.87 1246.32 1560.85 Q1249.09 1557.83 1249.09 1552.61 L1249.09 1532.4 L1254.95 1532.4 L1254.95 1568.04 L1249.09 1568.04 L1249.09 1562.57 Q1246.96 1565.82 1244.12 1567.41 Q1241.32 1568.97 1237.6 1568.97 Q1231.46 1568.97 1228.27 1565.15 Q1225.09 1561.33 1225.09 1553.98 M1239.83 1531.54 L1239.83 1531.54 Z" fill="#000000" fill-rule="nonzero" fill-opacity="1" /><path clip-path="url(#clip120)" d="M1283.21 1550.12 Q1276.11 1550.12 1273.37 1551.75 Q1270.64 1553.37 1270.64 1557.29 Q1270.64 1560.4 1272.67 1562.25 Q1274.74 1564.07 1278.28 1564.07 Q1283.15 1564.07 1286.07 1560.63 Q1289.03 1557.16 1289.03 1551.43 L1289.03 1550.12 L1283.21 1550.12 M1294.89 1547.71 L1294.89 1568.04 L1289.03 1568.04 L1289.03 1562.63 Q1287.03 1565.88 1284.04 1567.44 Q1281.04 1568.97 1276.72 1568.97 Q1271.24 1568.97 1268 1565.91 Q1264.78 1562.82 1264.78 1557.67 Q1264.78 1551.65 1268.79 1548.6 Q1272.83 1545.54 1280.82 1545.54 L1289.03 1545.54 L1289.03 1544.97 Q1289.03 1540.93 1286.36 1538.73 Q1283.72 1536.5 1278.91 1536.5 Q1275.86 1536.5 1272.96 1537.23 Q1270.06 1537.97 1267.39 1539.43 L1267.39 1534.02 Q1270.61 1532.78 1273.63 1532.17 Q1276.65 1531.54 1279.52 1531.54 Q1287.25 1531.54 1291.07 1535.55 Q1294.89 1539.56 1294.89 1547.71 Z" fill="#000000" fill-rule="nonzero" fill-opacity="1" /><path clip-path="url(#clip120)" d="M1327.61 1537.87 Q1326.62 1537.3 1325.45 1537.04 Q1324.3 1536.76 1322.9 1536.76 Q1317.93 1536.76 1315.26 1540 Q1312.62 1543.22 1312.62 1549.27 L1312.62 1568.04 L1306.73 1568.04 L1306.73 1532.4 L1312.62 1532.4 L1312.62 1537.93 Q1314.46 1534.69 1317.42 1533.13 Q1320.38 1531.54 1324.62 1531.54 Q1325.22 1531.54 1325.95 1531.63 Q1326.69 1531.7 1327.58 1531.85 L1327.61 1537.87 Z" fill="#000000" fill-rule="nonzero" fill-opacity="1" /><path clip-path="url(#clip120)" d="M1339.55 1522.27 L1339.55 1532.4 L1351.61 1532.4 L1351.61 1536.95 L1339.55 1536.95 L1339.55 1556.3 Q1339.55 1560.66 1340.72 1561.9 Q1341.93 1563.14 1345.59 1563.14 L1351.61 1563.14 L1351.61 1568.04 L1345.59 1568.04 Q1338.81 1568.04 1336.24 1565.53 Q1333.66 1562.98 1333.66 1556.3 L1333.66 1536.95 L1329.36 1536.95 L1329.36 1532.4 L1333.66 1532.4 L1333.66 1522.27 L1339.55 1522.27 Z" fill="#000000" fill-rule="nonzero" fill-opacity="1" /><path clip-path="url(#clip120)" d="M1389.8 1548.76 L1389.8 1551.62 L1362.88 1551.62 Q1363.26 1557.67 1366.5 1560.85 Q1369.78 1564 1375.61 1564 Q1378.98 1564 1382.13 1563.17 Q1385.32 1562.35 1388.43 1560.69 L1388.43 1566.23 Q1385.28 1567.57 1381.97 1568.27 Q1378.66 1568.97 1375.26 1568.97 Q1366.73 1568.97 1361.73 1564 Q1356.76 1559.04 1356.76 1550.57 Q1356.76 1541.82 1361.48 1536.69 Q1366.22 1531.54 1374.24 1531.54 Q1381.43 1531.54 1385.6 1536.18 Q1389.8 1540.8 1389.8 1548.76 M1383.95 1547.04 Q1383.88 1542.23 1381.24 1539.37 Q1378.63 1536.5 1374.3 1536.5 Q1369.4 1536.5 1366.44 1539.27 Q1363.51 1542.04 1363.07 1547.07 L1383.95 1547.04 Z" fill="#000000" fill-rule="nonzero" fill-opacity="1" /><path clip-path="url(#clip120)" d="M1420.07 1537.87 Q1419.09 1537.3 1417.91 1537.04 Q1416.76 1536.76 1415.36 1536.76 Q1410.4 1536.76 1407.72 1540 Q1405.08 1543.22 1405.08 1549.27 L1405.08 1568.04 L1399.19 1568.04 L1399.19 1532.4 L1405.08 1532.4 L1405.08 1537.93 Q1406.93 1534.69 1409.89 1533.13 Q1412.85 1531.54 1417.08 1531.54 Q1417.68 1531.54 1418.42 1531.63 Q1419.15 1531.7 1420.04 1531.85 L1420.07 1537.87 Z" fill="#000000" fill-rule="nonzero" fill-opacity="1" /><path clip-path="url(#clip120)" d="M1448.94 1533.45 L1448.94 1538.98 Q1446.46 1537.71 1443.78 1537.07 Q1441.11 1536.44 1438.25 1536.44 Q1433.89 1536.44 1431.69 1537.77 Q1429.53 1539.11 1429.53 1541.79 Q1429.53 1543.82 1431.08 1545 Q1432.64 1546.15 1437.35 1547.2 L1439.36 1547.64 Q1445.6 1548.98 1448.21 1551.43 Q1450.85 1553.85 1450.85 1558.21 Q1450.85 1563.17 1446.9 1566.07 Q1442.99 1568.97 1436.11 1568.97 Q1433.25 1568.97 1430.13 1568.39 Q1427.04 1567.85 1423.6 1566.74 L1423.6 1560.69 Q1426.85 1562.38 1430 1563.24 Q1433.15 1564.07 1436.24 1564.07 Q1440.38 1564.07 1442.61 1562.66 Q1444.83 1561.23 1444.83 1558.65 Q1444.83 1556.27 1443.21 1554.99 Q1441.62 1553.72 1436.18 1552.54 L1434.14 1552.07 Q1428.7 1550.92 1426.28 1548.56 Q1423.86 1546.18 1423.86 1542.04 Q1423.86 1537.01 1427.42 1534.27 Q1430.99 1531.54 1437.55 1531.54 Q1440.79 1531.54 1443.66 1532.01 Q1446.52 1532.49 1448.94 1533.45 Z" fill="#000000" fill-rule="nonzero" fill-opacity="1" /><polyline clip-path="url(#clip120)" style="stroke:#000000; stroke-linecap:round; stroke-linejoin:round; stroke-width:4; stroke-opacity:1; fill:none" points="279.866,1423.18 279.866,47.2441 "/>
<polyline clip-path="url(#clip120)" style="stroke:#000000; stroke-linecap:round; stroke-linejoin:round; stroke-width:4; stroke-opacity:1; fill:none" points="279.866,1223.43 298.764,1223.43 "/>
<polyline clip-path="url(#clip120)" style="stroke:#000000; stroke-linecap:round; stroke-linejoin:round; stroke-width:4; stroke-opacity:1; fill:none" points="279.866,964.511 298.764,964.511 "/>
<polyline clip-path="url(#clip120)" style="stroke:#000000; stroke-linecap:round; stroke-linejoin:round; stroke-width:4; stroke-opacity:1; fill:none" points="279.866,705.592 298.764,705.592 "/>
<polyline clip-path="url(#clip120)" style="stroke:#000000; stroke-linecap:round; stroke-linejoin:round; stroke-width:4; stroke-opacity:1; fill:none" points="279.866,446.672 298.764,446.672 "/>
<polyline clip-path="url(#clip120)" style="stroke:#000000; stroke-linecap:round; stroke-linejoin:round; stroke-width:4; stroke-opacity:1; fill:none" points="279.866,187.753 298.764,187.753 "/>
<path clip-path="url(#clip120)" d="M126.205 1209.23 Q122.593 1209.23 120.765 1212.79 Q118.959 1216.34 118.959 1223.47 Q118.959 1230.57 120.765 1234.14 Q122.593 1237.68 126.205 1237.68 Q129.839 1237.68 131.644 1234.14 Q133.473 1230.57 133.473 1223.47 Q133.473 1216.34 131.644 1212.79 Q129.839 1209.23 126.205 1209.23 M126.205 1205.53 Q132.015 1205.53 135.07 1210.13 Q138.149 1214.72 138.149 1223.47 Q138.149 1232.19 135.07 1236.8 Q132.015 1241.38 126.205 1241.38 Q120.394 1241.38 117.316 1236.8 Q114.26 1232.19 114.26 1223.47 Q114.26 1214.72 117.316 1210.13 Q120.394 1205.53 126.205 1205.53 Z" fill="#000000" fill-rule="nonzero" fill-opacity="1" /><path clip-path="url(#clip120)" d="M146.366 1234.83 L151.251 1234.83 L151.251 1240.71 L146.366 1240.71 L146.366 1234.83 Z" fill="#000000" fill-rule="nonzero" fill-opacity="1" /><path clip-path="url(#clip120)" d="M161.575 1239.99 L161.575 1235.73 Q163.334 1236.57 165.14 1237.01 Q166.945 1237.45 168.681 1237.45 Q173.311 1237.45 175.741 1234.34 Q178.195 1231.22 178.542 1224.88 Q177.2 1226.87 175.139 1227.93 Q173.079 1229 170.579 1229 Q165.394 1229 162.362 1225.87 Q159.353 1222.72 159.353 1217.28 Q159.353 1211.96 162.501 1208.74 Q165.649 1205.53 170.88 1205.53 Q176.876 1205.53 180.024 1210.13 Q183.195 1214.72 183.195 1223.47 Q183.195 1231.64 179.306 1236.52 Q175.44 1241.38 168.889 1241.38 Q167.13 1241.38 165.325 1241.03 Q163.519 1240.69 161.575 1239.99 M170.88 1225.34 Q174.028 1225.34 175.857 1223.19 Q177.709 1221.03 177.709 1217.28 Q177.709 1213.56 175.857 1211.41 Q174.028 1209.23 170.88 1209.23 Q167.732 1209.23 165.88 1211.41 Q164.052 1213.56 164.052 1217.28 Q164.052 1221.03 165.88 1223.19 Q167.732 1225.34 170.88 1225.34 Z" fill="#000000" fill-rule="nonzero" fill-opacity="1" /><path clip-path="url(#clip120)" d="M191.737 1239.99 L191.737 1235.73 Q193.496 1236.57 195.301 1237.01 Q197.107 1237.45 198.843 1237.45 Q203.473 1237.45 205.903 1234.34 Q208.357 1231.22 208.704 1224.88 Q207.362 1226.87 205.301 1227.93 Q203.241 1229 200.741 1229 Q195.556 1229 192.524 1225.87 Q189.514 1222.72 189.514 1217.28 Q189.514 1211.96 192.663 1208.74 Q195.811 1205.53 201.042 1205.53 Q207.037 1205.53 210.186 1210.13 Q213.357 1214.72 213.357 1223.47 Q213.357 1231.64 209.468 1236.52 Q205.602 1241.38 199.051 1241.38 Q197.292 1241.38 195.487 1241.03 Q193.681 1240.69 191.737 1239.99 M201.042 1225.34 Q204.19 1225.34 206.019 1223.19 Q207.871 1221.03 207.871 1217.28 Q207.871 1213.56 206.019 1211.41 Q204.19 1209.23 201.042 1209.23 Q197.894 1209.23 196.042 1211.41 Q194.213 1213.56 194.213 1217.28 Q194.213 1221.03 196.042 1223.19 Q197.894 1225.34 201.042 1225.34 Z" fill="#000000" fill-rule="nonzero" fill-opacity="1" /><path clip-path="url(#clip120)" d="M232.338 1221.57 Q229.19 1221.57 227.338 1223.72 Q225.51 1225.87 225.51 1229.62 Q225.51 1233.35 227.338 1235.53 Q229.19 1237.68 232.338 1237.68 Q235.486 1237.68 237.315 1235.53 Q239.167 1233.35 239.167 1229.62 Q239.167 1225.87 237.315 1223.72 Q235.486 1221.57 232.338 1221.57 M241.621 1206.91 L241.621 1211.17 Q239.861 1210.34 238.056 1209.9 Q236.273 1209.46 234.514 1209.46 Q229.885 1209.46 227.431 1212.59 Q225 1215.71 224.653 1222.03 Q226.019 1220.02 228.079 1218.95 Q230.139 1217.86 232.616 1217.86 Q237.824 1217.86 240.834 1221.03 Q243.866 1224.18 243.866 1229.62 Q243.866 1234.95 240.718 1238.16 Q237.57 1241.38 232.338 1241.38 Q226.343 1241.38 223.172 1236.8 Q220 1232.19 220 1223.47 Q220 1215.27 223.889 1210.41 Q227.778 1205.53 234.329 1205.53 Q236.088 1205.53 237.871 1205.87 Q239.676 1206.22 241.621 1206.91 Z" fill="#000000" fill-rule="nonzero" fill-opacity="1" /><path clip-path="url(#clip120)" d="M126.552 950.31 Q122.941 950.31 121.112 953.875 Q119.306 957.416 119.306 964.546 Q119.306 971.652 121.112 975.217 Q122.941 978.759 126.552 978.759 Q130.186 978.759 131.992 975.217 Q133.82 971.652 133.82 964.546 Q133.82 957.416 131.992 953.875 Q130.186 950.31 126.552 950.31 M126.552 946.606 Q132.362 946.606 135.417 951.213 Q138.496 955.796 138.496 964.546 Q138.496 973.273 135.417 977.879 Q132.362 982.463 126.552 982.463 Q120.742 982.463 117.663 977.879 Q114.607 973.273 114.607 964.546 Q114.607 955.796 117.663 951.213 Q120.742 946.606 126.552 946.606 Z" fill="#000000" fill-rule="nonzero" fill-opacity="1" /><path clip-path="url(#clip120)" d="M146.714 975.912 L151.598 975.912 L151.598 981.791 L146.714 981.791 L146.714 975.912 Z" fill="#000000" fill-rule="nonzero" fill-opacity="1" /><path clip-path="url(#clip120)" d="M161.922 981.074 L161.922 976.814 Q163.681 977.648 165.487 978.088 Q167.292 978.527 169.028 978.527 Q173.658 978.527 176.089 975.426 Q178.542 972.301 178.889 965.958 Q177.547 967.949 175.487 969.014 Q173.427 970.078 170.927 970.078 Q165.741 970.078 162.709 966.953 Q159.7 963.805 159.7 958.365 Q159.7 953.041 162.848 949.824 Q165.996 946.606 171.227 946.606 Q177.223 946.606 180.371 951.213 Q183.542 955.796 183.542 964.546 Q183.542 972.717 179.653 977.601 Q175.788 982.463 169.237 982.463 Q167.477 982.463 165.672 982.115 Q163.866 981.768 161.922 981.074 M171.227 966.421 Q174.376 966.421 176.204 964.268 Q178.056 962.115 178.056 958.365 Q178.056 954.639 176.204 952.486 Q174.376 950.31 171.227 950.31 Q168.079 950.31 166.227 952.486 Q164.399 954.639 164.399 958.365 Q164.399 962.115 166.227 964.268 Q168.079 966.421 171.227 966.421 Z" fill="#000000" fill-rule="nonzero" fill-opacity="1" /><path clip-path="url(#clip120)" d="M192.084 981.074 L192.084 976.814 Q193.843 977.648 195.649 978.088 Q197.454 978.527 199.19 978.527 Q203.82 978.527 206.25 975.426 Q208.704 972.301 209.051 965.958 Q207.709 967.949 205.649 969.014 Q203.588 970.078 201.088 970.078 Q195.903 970.078 192.871 966.953 Q189.862 963.805 189.862 958.365 Q189.862 953.041 193.01 949.824 Q196.158 946.606 201.389 946.606 Q207.385 946.606 210.533 951.213 Q213.704 955.796 213.704 964.546 Q213.704 972.717 209.815 977.601 Q205.949 982.463 199.399 982.463 Q197.639 982.463 195.834 982.115 Q194.028 981.768 192.084 981.074 M201.389 966.421 Q204.537 966.421 206.366 964.268 Q208.218 962.115 208.218 958.365 Q208.218 954.639 206.366 952.486 Q204.537 950.31 201.389 950.31 Q198.241 950.31 196.389 952.486 Q194.561 954.639 194.561 958.365 Q194.561 962.115 196.389 964.268 Q198.241 966.421 201.389 966.421 Z" fill="#000000" fill-rule="nonzero" fill-opacity="1" /><path clip-path="url(#clip120)" d="M222.246 981.074 L222.246 976.814 Q224.005 977.648 225.81 978.088 Q227.616 978.527 229.352 978.527 Q233.982 978.527 236.412 975.426 Q238.866 972.301 239.213 965.958 Q237.871 967.949 235.81 969.014 Q233.75 970.078 231.25 970.078 Q226.065 970.078 223.033 966.953 Q220.023 963.805 220.023 958.365 Q220.023 953.041 223.172 949.824 Q226.32 946.606 231.551 946.606 Q237.547 946.606 240.695 951.213 Q243.866 955.796 243.866 964.546 Q243.866 972.717 239.977 977.601 Q236.111 982.463 229.56 982.463 Q227.801 982.463 225.996 982.115 Q224.19 981.768 222.246 981.074 M231.551 966.421 Q234.699 966.421 236.528 964.268 Q238.38 962.115 238.38 958.365 Q238.38 954.639 236.528 952.486 Q234.699 950.31 231.551 950.31 Q228.403 950.31 226.551 952.486 Q224.723 954.639 224.723 958.365 Q224.723 962.115 226.551 964.268 Q228.403 966.421 231.551 966.421 Z" fill="#000000" fill-rule="nonzero" fill-opacity="1" /><path clip-path="url(#clip120)" d="M118.774 718.937 L126.413 718.937 L126.413 692.571 L118.103 694.238 L118.103 689.978 L126.367 688.312 L131.042 688.312 L131.042 718.937 L138.681 718.937 L138.681 722.872 L118.774 722.872 L118.774 718.937 Z" fill="#000000" fill-rule="nonzero" fill-opacity="1" /><path clip-path="url(#clip120)" d="M148.126 716.992 L153.01 716.992 L153.01 722.872 L148.126 722.872 L148.126 716.992 Z" fill="#000000" fill-rule="nonzero" fill-opacity="1" /><path clip-path="url(#clip120)" d="M173.195 691.39 Q169.584 691.39 167.755 694.955 Q165.95 698.497 165.95 705.627 Q165.95 712.733 167.755 716.298 Q169.584 719.839 173.195 719.839 Q176.829 719.839 178.635 716.298 Q180.464 712.733 180.464 705.627 Q180.464 698.497 178.635 694.955 Q176.829 691.39 173.195 691.39 M173.195 687.687 Q179.005 687.687 182.061 692.293 Q185.139 696.877 185.139 705.627 Q185.139 714.353 182.061 718.96 Q179.005 723.543 173.195 723.543 Q167.385 723.543 164.306 718.96 Q161.251 714.353 161.251 705.627 Q161.251 696.877 164.306 692.293 Q167.385 687.687 173.195 687.687 Z" fill="#000000" fill-rule="nonzero" fill-opacity="1" /><path clip-path="url(#clip120)" d="M203.357 691.39 Q199.746 691.39 197.917 694.955 Q196.112 698.497 196.112 705.627 Q196.112 712.733 197.917 716.298 Q199.746 719.839 203.357 719.839 Q206.991 719.839 208.797 716.298 Q210.625 712.733 210.625 705.627 Q210.625 698.497 208.797 694.955 Q206.991 691.39 203.357 691.39 M203.357 687.687 Q209.167 687.687 212.223 692.293 Q215.301 696.877 215.301 705.627 Q215.301 714.353 212.223 718.96 Q209.167 723.543 203.357 723.543 Q197.547 723.543 194.468 718.96 Q191.413 714.353 191.413 705.627 Q191.413 696.877 194.468 692.293 Q197.547 687.687 203.357 687.687 Z" fill="#000000" fill-rule="nonzero" fill-opacity="1" /><path clip-path="url(#clip120)" d="M227.547 718.937 L243.866 718.937 L243.866 722.872 L221.922 722.872 L221.922 718.937 Q224.584 716.182 229.167 711.552 Q233.773 706.9 234.954 705.557 Q237.199 703.034 238.079 701.298 Q238.982 699.539 238.982 697.849 Q238.982 695.094 237.037 693.358 Q235.116 691.622 232.014 691.622 Q229.815 691.622 227.361 692.386 Q224.931 693.15 222.153 694.701 L222.153 689.978 Q224.977 688.844 227.431 688.266 Q229.885 687.687 231.922 687.687 Q237.292 687.687 240.486 690.372 Q243.681 693.057 243.681 697.548 Q243.681 699.677 242.871 701.599 Q242.084 703.497 239.977 706.089 Q239.398 706.761 236.297 709.978 Q233.195 713.173 227.547 718.937 Z" fill="#000000" fill-rule="nonzero" fill-opacity="1" /><path clip-path="url(#clip120)" d="M118.172 460.017 L125.811 460.017 L125.811 433.652 L117.501 435.318 L117.501 431.059 L125.765 429.392 L130.441 429.392 L130.441 460.017 L138.079 460.017 L138.079 463.952 L118.172 463.952 L118.172 460.017 Z" fill="#000000" fill-rule="nonzero" fill-opacity="1" /><path clip-path="url(#clip120)" d="M147.524 458.073 L152.408 458.073 L152.408 463.952 L147.524 463.952 L147.524 458.073 Z" fill="#000000" fill-rule="nonzero" fill-opacity="1" /><path clip-path="url(#clip120)" d="M172.593 432.471 Q168.982 432.471 167.153 436.036 Q165.348 439.578 165.348 446.707 Q165.348 453.814 167.153 457.378 Q168.982 460.92 172.593 460.92 Q176.227 460.92 178.033 457.378 Q179.862 453.814 179.862 446.707 Q179.862 439.578 178.033 436.036 Q176.227 432.471 172.593 432.471 M172.593 428.767 Q178.403 428.767 181.459 433.374 Q184.538 437.957 184.538 446.707 Q184.538 455.434 181.459 460.04 Q178.403 464.624 172.593 464.624 Q166.783 464.624 163.704 460.04 Q160.649 455.434 160.649 446.707 Q160.649 437.957 163.704 433.374 Q166.783 428.767 172.593 428.767 Z" fill="#000000" fill-rule="nonzero" fill-opacity="1" /><path clip-path="url(#clip120)" d="M202.755 432.471 Q199.144 432.471 197.315 436.036 Q195.51 439.578 195.51 446.707 Q195.51 453.814 197.315 457.378 Q199.144 460.92 202.755 460.92 Q206.389 460.92 208.195 457.378 Q210.024 453.814 210.024 446.707 Q210.024 439.578 208.195 436.036 Q206.389 432.471 202.755 432.471 M202.755 428.767 Q208.565 428.767 211.621 433.374 Q214.699 437.957 214.699 446.707 Q214.699 455.434 211.621 460.04 Q208.565 464.624 202.755 464.624 Q196.945 464.624 193.866 460.04 Q190.811 455.434 190.811 446.707 Q190.811 437.957 193.866 433.374 Q196.945 428.767 202.755 428.767 Z" fill="#000000" fill-rule="nonzero" fill-opacity="1" /><path clip-path="url(#clip120)" d="M222.963 429.392 L241.32 429.392 L241.32 433.328 L227.246 433.328 L227.246 441.8 Q228.264 441.452 229.283 441.29 Q230.301 441.105 231.32 441.105 Q237.107 441.105 240.486 444.277 Q243.866 447.448 243.866 452.864 Q243.866 458.443 240.394 461.545 Q236.922 464.624 230.602 464.624 Q228.426 464.624 226.158 464.253 Q223.912 463.883 221.505 463.142 L221.505 458.443 Q223.588 459.577 225.81 460.133 Q228.033 460.689 230.51 460.689 Q234.514 460.689 236.852 458.582 Q239.19 456.476 239.19 452.864 Q239.19 449.253 236.852 447.147 Q234.514 445.04 230.51 445.04 Q228.635 445.04 226.76 445.457 Q224.908 445.874 222.963 446.753 L222.963 429.392 Z" fill="#000000" fill-rule="nonzero" fill-opacity="1" /><path clip-path="url(#clip120)" d="M117.269 201.098 L124.908 201.098 L124.908 174.732 L116.598 176.399 L116.598 172.14 L124.862 170.473 L129.538 170.473 L129.538 201.098 L137.177 201.098 L137.177 205.033 L117.269 205.033 L117.269 201.098 Z" fill="#000000" fill-rule="nonzero" fill-opacity="1" /><path clip-path="url(#clip120)" d="M146.621 199.153 L151.505 199.153 L151.505 205.033 L146.621 205.033 L146.621 199.153 Z" fill="#000000" fill-rule="nonzero" fill-opacity="1" /><path clip-path="url(#clip120)" d="M171.69 173.552 Q168.079 173.552 166.251 177.116 Q164.445 180.658 164.445 187.788 Q164.445 194.894 166.251 198.459 Q168.079 202.001 171.69 202.001 Q175.325 202.001 177.13 198.459 Q178.959 194.894 178.959 187.788 Q178.959 180.658 177.13 177.116 Q175.325 173.552 171.69 173.552 M171.69 169.848 Q177.501 169.848 180.556 174.454 Q183.635 179.038 183.635 187.788 Q183.635 196.514 180.556 201.121 Q177.501 205.704 171.69 205.704 Q165.88 205.704 162.802 201.121 Q159.746 196.514 159.746 187.788 Q159.746 179.038 162.802 174.454 Q165.88 169.848 171.69 169.848 Z" fill="#000000" fill-rule="nonzero" fill-opacity="1" /><path clip-path="url(#clip120)" d="M201.852 173.552 Q198.241 173.552 196.412 177.116 Q194.607 180.658 194.607 187.788 Q194.607 194.894 196.412 198.459 Q198.241 202.001 201.852 202.001 Q205.487 202.001 207.292 198.459 Q209.121 194.894 209.121 187.788 Q209.121 180.658 207.292 177.116 Q205.487 173.552 201.852 173.552 M201.852 169.848 Q207.662 169.848 210.718 174.454 Q213.797 179.038 213.797 187.788 Q213.797 196.514 210.718 201.121 Q207.662 205.704 201.852 205.704 Q196.042 205.704 192.963 201.121 Q189.908 196.514 189.908 187.788 Q189.908 179.038 192.963 174.454 Q196.042 169.848 201.852 169.848 Z" fill="#000000" fill-rule="nonzero" fill-opacity="1" /><path clip-path="url(#clip120)" d="M232.014 188.621 Q228.681 188.621 226.76 190.403 Q224.861 192.186 224.861 195.311 Q224.861 198.436 226.76 200.218 Q228.681 202.001 232.014 202.001 Q235.347 202.001 237.269 200.218 Q239.19 198.413 239.19 195.311 Q239.19 192.186 237.269 190.403 Q235.371 188.621 232.014 188.621 M227.338 186.63 Q224.329 185.89 222.639 183.829 Q220.973 181.769 220.973 178.806 Q220.973 174.663 223.912 172.255 Q226.875 169.848 232.014 169.848 Q237.176 169.848 240.116 172.255 Q243.056 174.663 243.056 178.806 Q243.056 181.769 241.366 183.829 Q239.699 185.89 236.713 186.63 Q240.093 187.417 241.968 189.709 Q243.866 192.001 243.866 195.311 Q243.866 200.334 240.787 203.019 Q237.732 205.704 232.014 205.704 Q226.297 205.704 223.218 203.019 Q220.162 200.334 220.162 195.311 Q220.162 192.001 222.061 189.709 Q223.959 187.417 227.338 186.63 M225.625 179.246 Q225.625 181.931 227.292 183.436 Q228.982 184.94 232.014 184.94 Q235.023 184.94 236.713 183.436 Q238.426 181.931 238.426 179.246 Q238.426 176.561 236.713 175.056 Q235.023 173.552 232.014 173.552 Q228.982 173.552 227.292 175.056 Q225.625 176.561 225.625 179.246 Z" fill="#000000" fill-rule="nonzero" fill-opacity="1" /><path clip-path="url(#clip120)" d="M57.2247 896.821 L44.4614 896.821 L44.4614 907.325 L39.1779 907.325 L39.1779 890.456 L59.58 890.456 Q62.2218 894.18 63.5904 898.667 Q64.9272 903.155 64.9272 908.248 Q64.9272 919.388 58.4342 925.69 Q51.9093 931.96 40.2919 931.96 Q28.6427 931.96 22.1496 925.69 Q15.6248 919.388 15.6248 908.248 Q15.6248 903.601 16.7706 899.431 Q17.9164 895.23 20.1444 891.697 L26.9876 891.697 Q23.9639 895.262 22.4361 899.272 Q20.9083 903.283 20.9083 907.707 Q20.9083 916.428 25.7781 920.82 Q30.6479 925.181 40.2919 925.181 Q49.9041 925.181 54.7739 920.82 Q59.6436 916.428 59.6436 907.707 Q59.6436 904.301 59.0707 901.627 Q58.466 898.954 57.2247 896.821 Z" fill="#000000" fill-rule="nonzero" fill-opacity="1" /><path clip-path="url(#clip120)" d="M21.7677 872.282 L58.7206 872.282 L58.7206 864.515 Q58.7206 854.68 54.2646 850.129 Q49.8086 845.546 40.1964 845.546 Q30.6479 845.546 26.2237 850.129 Q21.7677 854.68 21.7677 864.515 L21.7677 872.282 M16.4842 878.711 L16.4842 865.502 Q16.4842 851.688 22.2451 845.227 Q27.9743 838.766 40.1964 838.766 Q52.4822 838.766 58.2432 845.259 Q64.0042 851.752 64.0042 865.502 L64.0042 878.711 L16.4842 878.711 Z" fill="#000000" fill-rule="nonzero" fill-opacity="1" /><path clip-path="url(#clip120)" d="M21.7677 822.088 L39.6235 822.088 L39.6235 814.004 Q39.6235 809.516 37.3 807.065 Q34.9765 804.614 30.6797 804.614 Q26.4147 804.614 24.0912 807.065 Q21.7677 809.516 21.7677 814.004 L21.7677 822.088 M16.4842 828.517 L16.4842 814.004 Q16.4842 806.015 20.1126 801.94 Q23.7092 797.835 30.6797 797.835 Q37.7138 797.835 41.3104 801.94 Q44.907 806.015 44.907 814.004 L44.907 822.088 L64.0042 822.088 L64.0042 828.517 L16.4842 828.517 Z" fill="#000000" fill-rule="nonzero" fill-opacity="1" /><path clip-path="url(#clip120)" d="M29.7248 743.09 L35.1993 743.09 Q33.8307 745.572 33.1623 748.087 Q32.4621 750.569 32.4621 753.116 Q32.4621 758.813 36.0905 761.964 Q39.6872 765.115 46.212 765.115 Q52.7369 765.115 56.3653 761.964 Q59.9619 758.813 59.9619 753.116 Q59.9619 750.569 59.2935 748.087 Q58.5933 745.572 57.2247 743.09 L62.6355 743.09 Q63.7814 745.54 64.3543 748.182 Q64.9272 750.792 64.9272 753.752 Q64.9272 761.805 59.8664 766.547 Q54.8057 771.29 46.212 771.29 Q37.491 771.29 32.4939 766.515 Q27.4968 761.709 27.4968 753.37 Q27.4968 750.665 28.0697 748.087 Q28.6108 745.508 29.7248 743.09 Z" fill="#000000" fill-rule="nonzero" fill-opacity="1" /><path clip-path="url(#clip120)" d="M42.4881 703.272 L64.0042 703.272 L64.0042 709.128 L42.679 709.128 Q37.6183 709.128 35.1038 711.102 Q32.5894 713.075 32.5894 717.022 Q32.5894 721.764 35.6131 724.502 Q38.6368 727.239 43.8567 727.239 L64.0042 727.239 L64.0042 733.127 L14.479 733.127 L14.479 727.239 L33.8944 727.239 Q30.6797 725.138 29.0883 722.305 Q27.4968 719.441 27.4968 715.717 Q27.4968 709.574 31.3163 706.423 Q35.1038 703.272 42.4881 703.272 Z" fill="#000000" fill-rule="nonzero" fill-opacity="1" /><path clip-path="url(#clip120)" d="M46.0847 675.39 Q46.0847 682.488 47.7079 685.225 Q49.3312 687.963 53.2461 687.963 Q56.3653 687.963 58.2114 685.925 Q60.0256 683.857 60.0256 680.324 Q60.0256 675.454 56.5881 672.526 Q53.1188 669.566 47.3897 669.566 L46.0847 669.566 L46.0847 675.39 M43.6657 663.709 L64.0042 663.709 L64.0042 669.566 L58.5933 669.566 Q61.8398 671.571 63.3994 674.563 Q64.9272 677.555 64.9272 681.883 Q64.9272 687.358 61.8716 690.604 Q58.7843 693.819 53.6281 693.819 Q47.6125 693.819 44.5569 689.809 Q41.5014 685.766 41.5014 677.777 L41.5014 669.566 L40.9285 669.566 Q36.8862 669.566 34.6901 672.239 Q32.4621 674.881 32.4621 679.687 Q32.4621 682.743 33.1941 685.639 Q33.9262 688.535 35.3903 691.209 L29.9795 691.209 Q28.7381 687.994 28.1334 684.971 Q27.4968 681.947 27.4968 679.082 Q27.4968 671.348 31.5072 667.529 Q35.5176 663.709 43.6657 663.709 Z" fill="#000000" fill-rule="nonzero" fill-opacity="1" /><path clip-path="url(#clip120)" d="M42.4881 622.014 L64.0042 622.014 L64.0042 627.87 L42.679 627.87 Q37.6183 627.87 35.1038 629.844 Q32.5894 631.817 32.5894 635.764 Q32.5894 640.506 35.6131 643.243 Q38.6368 645.981 43.8567 645.981 L64.0042 645.981 L64.0042 651.869 L28.3562 651.869 L28.3562 645.981 L33.8944 645.981 Q30.6797 643.88 29.0883 641.047 Q27.4968 638.183 27.4968 634.459 Q27.4968 628.316 31.3163 625.165 Q35.1038 622.014 42.4881 622.014 Z" fill="#000000" fill-rule="nonzero" fill-opacity="1" /><path clip-path="url(#clip120)" d="M45.7664 586.875 Q39.4007 586.875 35.8996 589.517 Q32.3984 592.127 32.3984 596.869 Q32.3984 601.58 35.8996 604.222 Q39.4007 606.832 45.7664 606.832 Q52.1003 606.832 55.6014 604.222 Q59.1026 601.58 59.1026 596.869 Q59.1026 592.127 55.6014 589.517 Q52.1003 586.875 45.7664 586.875 M59.58 581.019 Q68.683 581.019 73.1071 585.061 Q77.5631 589.103 77.5631 597.442 Q77.5631 600.53 77.0857 603.267 Q76.6401 606.004 75.6852 608.582 L69.9879 608.582 Q71.3884 606.004 72.0568 603.49 Q72.7252 600.975 72.7252 598.365 Q72.7252 592.604 69.7015 589.74 Q66.7096 586.875 60.6303 586.875 L57.7339 586.875 Q60.885 588.689 62.4446 591.522 Q64.0042 594.355 64.0042 598.302 Q64.0042 604.858 59.0071 608.869 Q54.01 612.879 45.7664 612.879 Q37.491 612.879 32.4939 608.869 Q27.4968 604.858 27.4968 598.302 Q27.4968 594.355 29.0564 591.522 Q30.616 588.689 33.7671 586.875 L28.3562 586.875 L28.3562 581.019 L59.58 581.019 Z" fill="#000000" fill-rule="nonzero" fill-opacity="1" /><path clip-path="url(#clip120)" d="M44.7161 538.464 L47.5806 538.464 L47.5806 565.391 Q53.6281 565.009 56.8109 561.762 Q59.9619 558.484 59.9619 552.659 Q59.9619 549.286 59.1344 546.135 Q58.3069 542.952 56.6518 539.833 L62.1899 539.833 Q63.5267 542.984 64.227 546.294 Q64.9272 549.604 64.9272 553.01 Q64.9272 561.54 59.9619 566.537 Q54.9967 571.502 46.5303 571.502 Q37.7774 571.502 32.6531 566.791 Q27.4968 562.049 27.4968 554.028 Q27.4968 546.835 32.1438 542.665 Q36.7589 538.464 44.7161 538.464 M42.9973 544.32 Q38.1912 544.384 35.3266 547.026 Q32.4621 549.636 32.4621 553.964 Q32.4621 558.866 35.2312 561.826 Q38.0002 564.754 43.0292 565.2 L42.9973 544.32 Z" fill="#000000" fill-rule="nonzero" fill-opacity="1" /><path clip-path="url(#clip122)" d="M338.533 878.205 L460.755 836.064 L582.977 419.158 L705.199 252.016 L827.422 262.413 L949.644 571.199 L1071.87 710.464 L1194.09 830.682 L1316.31 965.6 L1438.53 1063.18 L1560.76 1133.43 L1682.98 1242.86 L1805.2 1303.76 L1927.42 1328.05 L2049.64 1384.24 L2171.87 1364.42 L2294.09 1370.94 L2294.09 772.495 L2171.87 804.292 L2049.64 853.519 L1927.42 835.752 L1805.2 837.521 L1682.98 804.229 L1560.76 727.794 L1438.53 691.789 L1316.31 635.232 L1194.09 532.757 L1071.87 443.726 L949.644 347.621 L827.422 86.1857 L705.199 129.174 L582.977 352.432 L460.755 830.333 L338.533 878.205  Z" fill="#009af9" fill-rule="evenodd" fill-opacity="0.2"/>
<polyline clip-path="url(#clip122)" style="stroke:#009af9; stroke-linecap:round; stroke-linejoin:round; stroke-width:4; stroke-opacity:1; fill:none" points="338.533,878.205 460.755,833.198 582.977,385.795 705.199,190.595 827.422,174.299 949.644,459.41 1071.87,577.095 1194.09,681.719 1316.31,800.416 1438.53,877.483 1560.76,930.614 1682.98,1023.54 1805.2,1070.64 1927.42,1081.9 2049.64,1118.88 2171.87,1084.36 2294.09,1071.72 "/>
</svg>
