<?xml version="1.0" encoding="utf-8"?>
<svg xmlns="http://www.w3.org/2000/svg" xmlns:xlink="http://www.w3.org/1999/xlink" width="600" height="400" viewBox="0 0 2400 1600">
<defs>
  <clipPath id="clip740">
    <rect x="0" y="0" width="2400" height="1600"/>
  </clipPath>
</defs>
<path clip-path="url(#clip740)" d="M0 1600 L2400 1600 L2400 0 L0 0  Z" fill="#ffffff" fill-rule="evenodd" fill-opacity="1"/>
<defs>
  <clipPath id="clip741">
    <rect x="480" y="0" width="1681" height="1600"/>
  </clipPath>
</defs>
<path clip-path="url(#clip740)" d="M230.765 1486.45 L2352.76 1486.45 L2352.76 106.192 L230.765 106.192  Z" fill="#ffffff" fill-rule="evenodd" fill-opacity="1"/>
<defs>
  <clipPath id="clip742">
    <rect x="230" y="106" width="2123" height="1381"/>
  </clipPath>
</defs>
<polyline clip-path="url(#clip742)" style="stroke:#000000; stroke-linecap:round; stroke-linejoin:round; stroke-width:2; stroke-opacity:0.1; fill:none" points="541.056,1486.45 541.056,106.192 "/>
<polyline clip-path="url(#clip742)" style="stroke:#000000; stroke-linecap:round; stroke-linejoin:round; stroke-width:2; stroke-opacity:0.1; fill:none" points="916.408,1486.45 916.408,106.192 "/>
<polyline clip-path="url(#clip742)" style="stroke:#000000; stroke-linecap:round; stroke-linejoin:round; stroke-width:2; stroke-opacity:0.1; fill:none" points="1291.76,1486.45 1291.76,106.192 "/>
<polyline clip-path="url(#clip742)" style="stroke:#000000; stroke-linecap:round; stroke-linejoin:round; stroke-width:2; stroke-opacity:0.1; fill:none" points="1667.11,1486.45 1667.11,106.192 "/>
<polyline clip-path="url(#clip742)" style="stroke:#000000; stroke-linecap:round; stroke-linejoin:round; stroke-width:2; stroke-opacity:0.1; fill:none" points="2042.46,1486.45 2042.46,106.192 "/>
<polyline clip-path="url(#clip742)" style="stroke:#000000; stroke-linecap:round; stroke-linejoin:round; stroke-width:2; stroke-opacity:0.1; fill:none" points="230.765,1423.78 2352.76,1423.78 "/>
<polyline clip-path="url(#clip742)" style="stroke:#000000; stroke-linecap:round; stroke-linejoin:round; stroke-width:2; stroke-opacity:0.1; fill:none" points="230.765,1018.96 2352.76,1018.96 "/>
<polyline clip-path="url(#clip742)" style="stroke:#000000; stroke-linecap:round; stroke-linejoin:round; stroke-width:2; stroke-opacity:0.1; fill:none" points="230.765,614.139 2352.76,614.139 "/>
<polyline clip-path="url(#clip742)" style="stroke:#000000; stroke-linecap:round; stroke-linejoin:round; stroke-width:2; stroke-opacity:0.1; fill:none" points="230.765,209.319 2352.76,209.319 "/>
<polyline clip-path="url(#clip740)" style="stroke:#000000; stroke-linecap:round; stroke-linejoin:round; stroke-width:4; stroke-opacity:1; fill:none" points="230.765,1486.45 2352.76,1486.45 "/>
<polyline clip-path="url(#clip740)" style="stroke:#000000; stroke-linecap:round; stroke-linejoin:round; stroke-width:4; stroke-opacity:1; fill:none" points="541.056,1486.45 541.056,1467.55 "/>
<polyline clip-path="url(#clip740)" style="stroke:#000000; stroke-linecap:round; stroke-linejoin:round; stroke-width:4; stroke-opacity:1; fill:none" points="916.408,1486.45 916.408,1467.55 "/>
<polyline clip-path="url(#clip740)" style="stroke:#000000; stroke-linecap:round; stroke-linejoin:round; stroke-width:4; stroke-opacity:1; fill:none" points="1291.76,1486.45 1291.76,1467.55 "/>
<polyline clip-path="url(#clip740)" style="stroke:#000000; stroke-linecap:round; stroke-linejoin:round; stroke-width:4; stroke-opacity:1; fill:none" points="1667.11,1486.45 1667.11,1467.55 "/>
<polyline clip-path="url(#clip740)" style="stroke:#000000; stroke-linecap:round; stroke-linejoin:round; stroke-width:4; stroke-opacity:1; fill:none" points="2042.46,1486.45 2042.46,1467.55 "/>
<path clip-path="url(#clip740)" d="M545.303 1530.21 Q548.66 1530.93 550.535 1533.2 Q552.433 1535.47 552.433 1538.8 Q552.433 1543.92 548.914 1546.72 Q545.396 1549.52 538.915 1549.52 Q536.739 1549.52 534.424 1549.08 Q532.132 1548.66 529.678 1547.81 L529.678 1543.29 Q531.623 1544.43 533.938 1545.01 Q536.252 1545.58 538.776 1545.58 Q543.174 1545.58 545.465 1543.85 Q547.78 1542.11 547.78 1538.8 Q547.78 1535.75 545.627 1534.03 Q543.498 1532.3 539.678 1532.3 L535.651 1532.3 L535.651 1528.45 L539.864 1528.45 Q543.313 1528.45 545.141 1527.09 Q546.97 1525.7 546.97 1523.11 Q546.97 1520.45 545.072 1519.03 Q543.197 1517.6 539.678 1517.6 Q537.757 1517.6 535.558 1518.01 Q533.359 1518.43 530.72 1519.31 L530.72 1515.14 Q533.382 1514.4 535.697 1514.03 Q538.035 1513.66 540.095 1513.66 Q545.419 1513.66 548.521 1516.09 Q551.623 1518.5 551.623 1522.62 Q551.623 1525.49 549.979 1527.48 Q548.336 1529.45 545.303 1530.21 Z" fill="#000000" fill-rule="nonzero" fill-opacity="1" /><path clip-path="url(#clip740)" d="M916.813 1529.7 Q913.665 1529.7 911.813 1531.86 Q909.984 1534.01 909.984 1537.76 Q909.984 1541.49 911.813 1543.66 Q913.665 1545.82 916.813 1545.82 Q919.961 1545.82 921.79 1543.66 Q923.642 1541.49 923.642 1537.76 Q923.642 1534.01 921.79 1531.86 Q919.961 1529.7 916.813 1529.7 M926.095 1515.05 L926.095 1519.31 Q924.336 1518.48 922.531 1518.04 Q920.748 1517.6 918.989 1517.6 Q914.359 1517.6 911.906 1520.72 Q909.475 1523.85 909.128 1530.17 Q910.494 1528.15 912.554 1527.09 Q914.614 1526 917.091 1526 Q922.299 1526 925.308 1529.17 Q928.341 1532.32 928.341 1537.76 Q928.341 1543.08 925.193 1546.3 Q922.044 1549.52 916.813 1549.52 Q910.818 1549.52 907.646 1544.94 Q904.475 1540.33 904.475 1531.6 Q904.475 1523.41 908.364 1518.55 Q912.253 1513.66 918.804 1513.66 Q920.563 1513.66 922.345 1514.01 Q924.151 1514.36 926.095 1515.05 Z" fill="#000000" fill-rule="nonzero" fill-opacity="1" /><path clip-path="url(#clip740)" d="M1282.06 1548.13 L1282.06 1543.87 Q1283.82 1544.7 1285.63 1545.14 Q1287.43 1545.58 1289.17 1545.58 Q1293.8 1545.58 1296.23 1542.48 Q1298.68 1539.36 1299.03 1533.01 Q1297.69 1535.01 1295.63 1536.07 Q1293.57 1537.13 1291.07 1537.13 Q1285.88 1537.13 1282.85 1534.01 Q1279.84 1530.86 1279.84 1525.42 Q1279.84 1520.1 1282.99 1516.88 Q1286.14 1513.66 1291.37 1513.66 Q1297.36 1513.66 1300.51 1518.27 Q1303.68 1522.85 1303.68 1531.6 Q1303.68 1539.77 1299.79 1544.66 Q1295.93 1549.52 1289.38 1549.52 Q1287.62 1549.52 1285.81 1549.17 Q1284.01 1548.82 1282.06 1548.13 M1291.37 1533.48 Q1294.51 1533.48 1296.34 1531.32 Q1298.2 1529.17 1298.2 1525.42 Q1298.2 1521.7 1296.34 1519.54 Q1294.51 1517.37 1291.37 1517.37 Q1288.22 1517.37 1286.37 1519.54 Q1284.54 1521.7 1284.54 1525.42 Q1284.54 1529.17 1286.37 1531.32 Q1288.22 1533.48 1291.37 1533.48 Z" fill="#000000" fill-rule="nonzero" fill-opacity="1" /><path clip-path="url(#clip740)" d="M1642.6 1544.91 L1650.24 1544.91 L1650.24 1518.55 L1641.93 1520.21 L1641.93 1515.95 L1650.19 1514.29 L1654.87 1514.29 L1654.87 1544.91 L1662.51 1544.91 L1662.51 1548.85 L1642.6 1548.85 L1642.6 1544.91 Z" fill="#000000" fill-rule="nonzero" fill-opacity="1" /><path clip-path="url(#clip740)" d="M1675.98 1544.91 L1692.3 1544.91 L1692.3 1548.85 L1670.35 1548.85 L1670.35 1544.91 Q1673.02 1542.16 1677.6 1537.53 Q1682.2 1532.88 1683.39 1531.53 Q1685.63 1529.01 1686.51 1527.27 Q1687.41 1525.51 1687.41 1523.82 Q1687.41 1521.07 1685.47 1519.33 Q1683.55 1517.6 1680.45 1517.6 Q1678.25 1517.6 1675.79 1518.36 Q1673.36 1519.13 1670.58 1520.68 L1670.58 1515.95 Q1673.41 1514.82 1675.86 1514.24 Q1678.32 1513.66 1680.35 1513.66 Q1685.72 1513.66 1688.92 1516.35 Q1692.11 1519.03 1692.11 1523.52 Q1692.11 1525.65 1691.3 1527.57 Q1690.52 1529.47 1688.41 1532.07 Q1687.83 1532.74 1684.73 1535.95 Q1681.63 1539.15 1675.98 1544.91 Z" fill="#000000" fill-rule="nonzero" fill-opacity="1" /><path clip-path="url(#clip740)" d="M2017.65 1544.91 L2025.29 1544.91 L2025.29 1518.55 L2016.98 1520.21 L2016.98 1515.95 L2025.24 1514.29 L2029.92 1514.29 L2029.92 1544.91 L2037.56 1544.91 L2037.56 1548.85 L2017.65 1548.85 L2017.65 1544.91 Z" fill="#000000" fill-rule="nonzero" fill-opacity="1" /><path clip-path="url(#clip740)" d="M2047.05 1514.29 L2065.4 1514.29 L2065.4 1518.22 L2051.33 1518.22 L2051.33 1526.7 Q2052.35 1526.35 2053.37 1526.19 Q2054.39 1526 2055.4 1526 Q2061.19 1526 2064.57 1529.17 Q2067.95 1532.34 2067.95 1537.76 Q2067.95 1543.34 2064.48 1546.44 Q2061.01 1549.52 2054.69 1549.52 Q2052.51 1549.52 2050.24 1549.15 Q2048 1548.78 2045.59 1548.04 L2045.59 1543.34 Q2047.67 1544.47 2049.9 1545.03 Q2052.12 1545.58 2054.59 1545.58 Q2058.6 1545.58 2060.94 1543.48 Q2063.27 1541.37 2063.27 1537.76 Q2063.27 1534.15 2060.94 1532.04 Q2058.6 1529.94 2054.59 1529.94 Q2052.72 1529.94 2050.84 1530.35 Q2048.99 1530.77 2047.05 1531.65 L2047.05 1514.29 Z" fill="#000000" fill-rule="nonzero" fill-opacity="1" /><polyline clip-path="url(#clip740)" style="stroke:#000000; stroke-linecap:round; stroke-linejoin:round; stroke-width:4; stroke-opacity:1; fill:none" points="230.765,1486.45 230.765,106.192 "/>
<polyline clip-path="url(#clip740)" style="stroke:#000000; stroke-linecap:round; stroke-linejoin:round; stroke-width:4; stroke-opacity:1; fill:none" points="230.765,1423.78 249.662,1423.78 "/>
<polyline clip-path="url(#clip740)" style="stroke:#000000; stroke-linecap:round; stroke-linejoin:round; stroke-width:4; stroke-opacity:1; fill:none" points="230.765,1018.96 249.662,1018.96 "/>
<polyline clip-path="url(#clip740)" style="stroke:#000000; stroke-linecap:round; stroke-linejoin:round; stroke-width:4; stroke-opacity:1; fill:none" points="230.765,614.139 249.662,614.139 "/>
<polyline clip-path="url(#clip740)" style="stroke:#000000; stroke-linecap:round; stroke-linejoin:round; stroke-width:4; stroke-opacity:1; fill:none" points="230.765,209.319 249.662,209.319 "/>
<path clip-path="url(#clip740)" d="M50.9921 1406.5 L73.2142 1406.5 L73.2142 1408.49 L60.668 1441.06 L55.7838 1441.06 L67.5893 1410.43 L50.9921 1410.43 L50.9921 1406.5 Z" fill="#000000" fill-rule="nonzero" fill-opacity="1" /><path clip-path="url(#clip740)" d="M83.1447 1437.12 L90.7836 1437.12 L90.7836 1410.76 L82.4734 1412.42 L82.4734 1408.17 L90.7373 1406.5 L95.4132 1406.5 L95.4132 1437.12 L103.052 1437.12 L103.052 1441.06 L83.1447 1441.06 L83.1447 1437.12 Z" fill="#000000" fill-rule="nonzero" fill-opacity="1" /><path clip-path="url(#clip740)" d="M122.496 1409.58 Q118.885 1409.58 117.057 1413.14 Q115.251 1416.68 115.251 1423.81 Q115.251 1430.92 117.057 1434.48 Q118.885 1438.03 122.496 1438.03 Q126.131 1438.03 127.936 1434.48 Q129.765 1430.92 129.765 1423.81 Q129.765 1416.68 127.936 1413.14 Q126.131 1409.58 122.496 1409.58 M122.496 1405.87 Q128.307 1405.87 131.362 1410.48 Q134.441 1415.06 134.441 1423.81 Q134.441 1432.54 131.362 1437.15 Q128.307 1441.73 122.496 1441.73 Q116.686 1441.73 113.608 1437.15 Q110.552 1432.54 110.552 1423.81 Q110.552 1415.06 113.608 1410.48 Q116.686 1405.87 122.496 1405.87 Z" fill="#000000" fill-rule="nonzero" fill-opacity="1" /><path clip-path="url(#clip740)" d="M152.658 1409.58 Q149.047 1409.58 147.218 1413.14 Q145.413 1416.68 145.413 1423.81 Q145.413 1430.92 147.218 1434.48 Q149.047 1438.03 152.658 1438.03 Q156.292 1438.03 158.098 1434.48 Q159.927 1430.92 159.927 1423.81 Q159.927 1416.68 158.098 1413.14 Q156.292 1409.58 152.658 1409.58 M152.658 1405.87 Q158.468 1405.87 161.524 1410.48 Q164.603 1415.06 164.603 1423.81 Q164.603 1432.54 161.524 1437.15 Q158.468 1441.73 152.658 1441.73 Q146.848 1441.73 143.769 1437.15 Q140.714 1432.54 140.714 1423.81 Q140.714 1415.06 143.769 1410.48 Q146.848 1405.87 152.658 1405.87 Z" fill="#000000" fill-rule="nonzero" fill-opacity="1" /><path clip-path="url(#clip740)" d="M182.82 1409.58 Q179.209 1409.58 177.38 1413.14 Q175.575 1416.68 175.575 1423.81 Q175.575 1430.92 177.38 1434.48 Q179.209 1438.03 182.82 1438.03 Q186.454 1438.03 188.26 1434.48 Q190.089 1430.92 190.089 1423.81 Q190.089 1416.68 188.26 1413.14 Q186.454 1409.58 182.82 1409.58 M182.82 1405.87 Q188.63 1405.87 191.686 1410.48 Q194.765 1415.06 194.765 1423.81 Q194.765 1432.54 191.686 1437.15 Q188.63 1441.73 182.82 1441.73 Q177.01 1441.73 173.931 1437.15 Q170.876 1432.54 170.876 1423.81 Q170.876 1415.06 173.931 1410.48 Q177.01 1405.87 182.82 1405.87 Z" fill="#000000" fill-rule="nonzero" fill-opacity="1" /><path clip-path="url(#clip740)" d="M50.9921 1001.68 L73.2142 1001.68 L73.2142 1003.67 L60.668 1036.24 L55.7838 1036.24 L67.5893 1005.61 L50.9921 1005.61 L50.9921 1001.68 Z" fill="#000000" fill-rule="nonzero" fill-opacity="1" /><path clip-path="url(#clip740)" d="M86.3623 1032.3 L102.682 1032.3 L102.682 1036.24 L80.7373 1036.24 L80.7373 1032.3 Q83.3994 1029.55 87.9827 1024.92 Q92.5891 1020.27 93.7697 1018.92 Q96.015 1016.4 96.8947 1014.66 Q97.7974 1012.91 97.7974 1011.22 Q97.7974 1008.46 95.853 1006.73 Q93.9317 1004.99 90.8299 1004.99 Q88.6308 1004.99 86.1771 1005.75 Q83.7466 1006.52 80.9688 1008.07 L80.9688 1003.35 Q83.7929 1002.21 86.2466 1001.63 Q88.7003 1001.05 90.7373 1001.05 Q96.1076 1001.05 99.3021 1003.74 Q102.496 1006.42 102.496 1010.91 Q102.496 1013.04 101.686 1014.97 Q100.899 1016.86 98.7928 1019.46 Q98.2141 1020.13 95.1123 1023.35 Q92.0104 1026.54 86.3623 1032.3 Z" fill="#000000" fill-rule="nonzero" fill-opacity="1" /><path clip-path="url(#clip740)" d="M122.496 1004.76 Q118.885 1004.76 117.057 1008.32 Q115.251 1011.86 115.251 1018.99 Q115.251 1026.1 117.057 1029.66 Q118.885 1033.21 122.496 1033.21 Q126.131 1033.21 127.936 1029.66 Q129.765 1026.1 129.765 1018.99 Q129.765 1011.86 127.936 1008.32 Q126.131 1004.76 122.496 1004.76 M122.496 1001.05 Q128.307 1001.05 131.362 1005.66 Q134.441 1010.24 134.441 1018.99 Q134.441 1027.72 131.362 1032.33 Q128.307 1036.91 122.496 1036.91 Q116.686 1036.91 113.608 1032.33 Q110.552 1027.72 110.552 1018.99 Q110.552 1010.24 113.608 1005.66 Q116.686 1001.05 122.496 1001.05 Z" fill="#000000" fill-rule="nonzero" fill-opacity="1" /><path clip-path="url(#clip740)" d="M152.658 1004.76 Q149.047 1004.76 147.218 1008.32 Q145.413 1011.86 145.413 1018.99 Q145.413 1026.1 147.218 1029.66 Q149.047 1033.21 152.658 1033.21 Q156.292 1033.21 158.098 1029.66 Q159.927 1026.1 159.927 1018.99 Q159.927 1011.86 158.098 1008.32 Q156.292 1004.76 152.658 1004.76 M152.658 1001.05 Q158.468 1001.05 161.524 1005.66 Q164.603 1010.24 164.603 1018.99 Q164.603 1027.72 161.524 1032.33 Q158.468 1036.91 152.658 1036.91 Q146.848 1036.91 143.769 1032.33 Q140.714 1027.72 140.714 1018.99 Q140.714 1010.24 143.769 1005.66 Q146.848 1001.05 152.658 1001.05 Z" fill="#000000" fill-rule="nonzero" fill-opacity="1" /><path clip-path="url(#clip740)" d="M182.82 1004.76 Q179.209 1004.76 177.38 1008.32 Q175.575 1011.86 175.575 1018.99 Q175.575 1026.1 177.38 1029.66 Q179.209 1033.21 182.82 1033.21 Q186.454 1033.21 188.26 1029.66 Q190.089 1026.1 190.089 1018.99 Q190.089 1011.86 188.26 1008.32 Q186.454 1004.76 182.82 1004.76 M182.82 1001.05 Q188.63 1001.05 191.686 1005.66 Q194.765 1010.24 194.765 1018.99 Q194.765 1027.72 191.686 1032.33 Q188.63 1036.91 182.82 1036.91 Q177.01 1036.91 173.931 1032.33 Q170.876 1027.72 170.876 1018.99 Q170.876 1010.24 173.931 1005.66 Q177.01 1001.05 182.82 1001.05 Z" fill="#000000" fill-rule="nonzero" fill-opacity="1" /><path clip-path="url(#clip740)" d="M50.9921 596.859 L73.2142 596.859 L73.2142 598.85 L60.668 631.419 L55.7838 631.419 L67.5893 600.794 L50.9921 600.794 L50.9921 596.859 Z" fill="#000000" fill-rule="nonzero" fill-opacity="1" /><path clip-path="url(#clip740)" d="M96.5011 612.785 Q99.8576 613.503 101.733 615.771 Q103.631 618.04 103.631 621.373 Q103.631 626.489 100.112 629.29 Q96.5937 632.09 90.1123 632.09 Q87.9364 632.09 85.6216 631.651 Q83.3299 631.234 80.8762 630.377 L80.8762 625.864 Q82.8207 626.998 85.1355 627.577 Q87.4503 628.155 89.9734 628.155 Q94.3715 628.155 96.6632 626.419 Q98.978 624.683 98.978 621.373 Q98.978 618.317 96.8252 616.604 Q94.6956 614.868 90.8762 614.868 L86.8484 614.868 L86.8484 611.026 L91.0614 611.026 Q94.5104 611.026 96.3391 609.66 Q98.1678 608.271 98.1678 605.679 Q98.1678 603.016 96.2697 601.604 Q94.3947 600.169 90.8762 600.169 Q88.9549 600.169 86.7558 600.586 Q84.5568 601.003 81.9179 601.882 L81.9179 597.716 Q84.5799 596.975 86.8947 596.604 Q89.2327 596.234 91.2928 596.234 Q96.6169 596.234 99.7187 598.665 Q102.821 601.072 102.821 605.192 Q102.821 608.063 101.177 610.053 Q99.5335 612.021 96.5011 612.785 Z" fill="#000000" fill-rule="nonzero" fill-opacity="1" /><path clip-path="url(#clip740)" d="M122.496 599.938 Q118.885 599.938 117.057 603.503 Q115.251 607.044 115.251 614.174 Q115.251 621.28 117.057 624.845 Q118.885 628.387 122.496 628.387 Q126.131 628.387 127.936 624.845 Q129.765 621.28 129.765 614.174 Q129.765 607.044 127.936 603.503 Q126.131 599.938 122.496 599.938 M122.496 596.234 Q128.307 596.234 131.362 600.841 Q134.441 605.424 134.441 614.174 Q134.441 622.901 131.362 627.507 Q128.307 632.09 122.496 632.09 Q116.686 632.09 113.608 627.507 Q110.552 622.901 110.552 614.174 Q110.552 605.424 113.608 600.841 Q116.686 596.234 122.496 596.234 Z" fill="#000000" fill-rule="nonzero" fill-opacity="1" /><path clip-path="url(#clip740)" d="M152.658 599.938 Q149.047 599.938 147.218 603.503 Q145.413 607.044 145.413 614.174 Q145.413 621.28 147.218 624.845 Q149.047 628.387 152.658 628.387 Q156.292 628.387 158.098 624.845 Q159.927 621.28 159.927 614.174 Q159.927 607.044 158.098 603.503 Q156.292 599.938 152.658 599.938 M152.658 596.234 Q158.468 596.234 161.524 600.841 Q164.603 605.424 164.603 614.174 Q164.603 622.901 161.524 627.507 Q158.468 632.09 152.658 632.09 Q146.848 632.09 143.769 627.507 Q140.714 622.901 140.714 614.174 Q140.714 605.424 143.769 600.841 Q146.848 596.234 152.658 596.234 Z" fill="#000000" fill-rule="nonzero" fill-opacity="1" /><path clip-path="url(#clip740)" d="M182.82 599.938 Q179.209 599.938 177.38 603.503 Q175.575 607.044 175.575 614.174 Q175.575 621.28 177.38 624.845 Q179.209 628.387 182.82 628.387 Q186.454 628.387 188.26 624.845 Q190.089 621.28 190.089 614.174 Q190.089 607.044 188.26 603.503 Q186.454 599.938 182.82 599.938 M182.82 596.234 Q188.63 596.234 191.686 600.841 Q194.765 605.424 194.765 614.174 Q194.765 622.901 191.686 627.507 Q188.63 632.09 182.82 632.09 Q177.01 632.09 173.931 627.507 Q170.876 622.901 170.876 614.174 Q170.876 605.424 173.931 600.841 Q177.01 596.234 182.82 596.234 Z" fill="#000000" fill-rule="nonzero" fill-opacity="1" /><path clip-path="url(#clip740)" d="M50.9921 192.039 L73.2142 192.039 L73.2142 194.03 L60.668 226.599 L55.7838 226.599 L67.5893 195.974 L50.9921 195.974 L50.9921 192.039 Z" fill="#000000" fill-rule="nonzero" fill-opacity="1" /><path clip-path="url(#clip740)" d="M95.1817 196.113 L83.3762 214.562 L95.1817 214.562 L95.1817 196.113 M93.9549 192.039 L99.8345 192.039 L99.8345 214.562 L104.765 214.562 L104.765 218.451 L99.8345 218.451 L99.8345 226.599 L95.1817 226.599 L95.1817 218.451 L79.5799 218.451 L79.5799 213.937 L93.9549 192.039 Z" fill="#000000" fill-rule="nonzero" fill-opacity="1" /><path clip-path="url(#clip740)" d="M122.496 195.118 Q118.885 195.118 117.057 198.683 Q115.251 202.224 115.251 209.354 Q115.251 216.46 117.057 220.025 Q118.885 223.567 122.496 223.567 Q126.131 223.567 127.936 220.025 Q129.765 216.46 129.765 209.354 Q129.765 202.224 127.936 198.683 Q126.131 195.118 122.496 195.118 M122.496 191.414 Q128.307 191.414 131.362 196.021 Q134.441 200.604 134.441 209.354 Q134.441 218.081 131.362 222.687 Q128.307 227.271 122.496 227.271 Q116.686 227.271 113.608 222.687 Q110.552 218.081 110.552 209.354 Q110.552 200.604 113.608 196.021 Q116.686 191.414 122.496 191.414 Z" fill="#000000" fill-rule="nonzero" fill-opacity="1" /><path clip-path="url(#clip740)" d="M152.658 195.118 Q149.047 195.118 147.218 198.683 Q145.413 202.224 145.413 209.354 Q145.413 216.46 147.218 220.025 Q149.047 223.567 152.658 223.567 Q156.292 223.567 158.098 220.025 Q159.927 216.46 159.927 209.354 Q159.927 202.224 158.098 198.683 Q156.292 195.118 152.658 195.118 M152.658 191.414 Q158.468 191.414 161.524 196.021 Q164.603 200.604 164.603 209.354 Q164.603 218.081 161.524 222.687 Q158.468 227.271 152.658 227.271 Q146.848 227.271 143.769 222.687 Q140.714 218.081 140.714 209.354 Q140.714 200.604 143.769 196.021 Q146.848 191.414 152.658 191.414 Z" fill="#000000" fill-rule="nonzero" fill-opacity="1" /><path clip-path="url(#clip740)" d="M182.82 195.118 Q179.209 195.118 177.38 198.683 Q175.575 202.224 175.575 209.354 Q175.575 216.46 177.38 220.025 Q179.209 223.567 182.82 223.567 Q186.454 223.567 188.26 220.025 Q190.089 216.46 190.089 209.354 Q190.089 202.224 188.26 198.683 Q186.454 195.118 182.82 195.118 M182.82 191.414 Q188.63 191.414 191.686 196.021 Q194.765 200.604 194.765 209.354 Q194.765 218.081 191.686 222.687 Q188.63 227.271 182.82 227.271 Q177.01 227.271 173.931 222.687 Q170.876 218.081 170.876 209.354 Q170.876 200.604 173.931 196.021 Q177.01 191.414 182.82 191.414 Z" fill="#000000" fill-rule="nonzero" fill-opacity="1" /><path clip-path="url(#clip740)" d="M1262.23 35.2602 Q1262.23 29.4732 1259.83 26.2904 Q1257.46 23.1075 1253.15 23.1075 Q1248.86 23.1075 1246.46 26.2904 Q1244.09 29.4732 1244.09 35.2602 Q1244.09 41.0183 1246.46 44.2012 Q1248.86 47.384 1253.15 47.384 Q1257.46 47.384 1259.83 44.2012 Q1262.23 41.0183 1262.23 35.2602 M1267.56 47.818 Q1267.56 56.0934 1263.88 60.1154 Q1260.21 64.1663 1252.63 64.1663 Q1249.82 64.1663 1247.33 63.7323 Q1244.84 63.3272 1242.5 62.4592 L1242.5 57.2798 Q1244.84 58.5529 1247.13 59.1606 Q1249.41 59.7682 1251.79 59.7682 Q1257.02 59.7682 1259.63 57.0194 Q1262.23 54.2995 1262.23 48.7729 L1262.23 46.1398 Q1260.58 49.0044 1258.01 50.4222 Q1255.43 51.84 1251.84 51.84 Q1245.88 51.84 1242.24 47.2972 Q1238.59 42.7544 1238.59 35.2602 Q1238.59 27.7371 1242.24 23.1943 Q1245.88 18.6515 1251.84 18.6515 Q1255.43 18.6515 1258.01 20.0693 Q1260.58 21.4872 1262.23 24.3517 L1262.23 19.4328 L1267.56 19.4328 L1267.56 47.818 Z" fill="#000000" fill-rule="nonzero" fill-opacity="1" /><path clip-path="url(#clip740)" d="M1299.85 24.3517 L1299.85 6.81709 L1305.17 6.81709 L1305.17 51.84 L1299.85 51.84 L1299.85 46.9789 Q1298.17 49.8724 1295.59 51.2902 Q1293.05 52.6791 1289.46 52.6791 Q1283.59 52.6791 1279.88 47.9916 Q1276.21 43.3042 1276.21 35.6653 Q1276.21 28.0265 1279.88 23.339 Q1283.59 18.6515 1289.46 18.6515 Q1293.05 18.6515 1295.59 20.0693 Q1298.17 21.4582 1299.85 24.3517 M1281.71 35.6653 Q1281.71 41.5391 1284.11 44.8956 Q1286.54 48.2231 1290.76 48.2231 Q1294.99 48.2231 1297.42 44.8956 Q1299.85 41.5391 1299.85 35.6653 Q1299.85 29.7915 1297.42 26.464 Q1294.99 23.1075 1290.76 23.1075 Q1286.54 23.1075 1284.11 26.464 Q1281.71 29.7915 1281.71 35.6653 Z" fill="#000000" fill-rule="nonzero" fill-opacity="1" /><path clip-path="url(#clip740)" d="M1321.29 46.9789 L1321.29 64.1663 L1315.94 64.1663 L1315.94 19.4328 L1321.29 19.4328 L1321.29 24.3517 Q1322.97 21.4582 1325.51 20.0693 Q1328.09 18.6515 1331.65 18.6515 Q1337.55 18.6515 1341.22 23.339 Q1344.93 28.0265 1344.93 35.6653 Q1344.93 43.3042 1341.22 47.9916 Q1337.55 52.6791 1331.65 52.6791 Q1328.09 52.6791 1325.51 51.2902 Q1322.97 49.8724 1321.29 46.9789 M1339.4 35.6653 Q1339.4 29.7915 1336.97 26.464 Q1334.57 23.1075 1330.35 23.1075 Q1326.12 23.1075 1323.69 26.464 Q1321.29 29.7915 1321.29 35.6653 Q1321.29 41.5391 1323.69 44.8956 Q1326.12 48.2231 1330.35 48.2231 Q1334.57 48.2231 1336.97 44.8956 Q1339.4 41.5391 1339.4 35.6653 Z" fill="#000000" fill-rule="nonzero" fill-opacity="1" /><polyline clip-path="url(#clip742)" style="stroke:#009af9; stroke-linecap:round; stroke-linejoin:round; stroke-width:4; stroke-opacity:1; fill:none" points="290.821,848.125 415.938,1271.65 541.056,1132.71 666.173,1447.38 791.291,1322.68 916.408,1120.73 1041.53,1060.4 1166.64,971.388 1291.76,751.65 1416.88,732.852 1542,649.231 1667.11,307.169 1792.23,720.718 1917.35,633.195 2042.46,145.256 2167.58,353.22 2292.7,194.607 "/>
<path clip-path="url(#clip740)" d="M301.498 255.881 L566.127 255.881 L566.127 152.201 L301.498 152.201  Z" fill="#ffffff" fill-rule="evenodd" fill-opacity="1"/>
<polyline clip-path="url(#clip740)" style="stroke:#000000; stroke-linecap:round; stroke-linejoin:round; stroke-width:4; stroke-opacity:1; fill:none" points="301.498,255.881 566.127,255.881 566.127,152.201 301.498,152.201 301.498,255.881 "/>
<polyline clip-path="url(#clip740)" style="stroke:#009af9; stroke-linecap:round; stroke-linejoin:round; stroke-width:4; stroke-opacity:1; fill:none" points="325.075,204.041 466.541,204.041 "/>
<path clip-path="url(#clip740)" d="M503.962 223.728 Q502.156 228.358 500.443 229.77 Q498.73 231.182 495.86 231.182 L492.457 231.182 L492.457 227.617 L494.957 227.617 Q496.716 227.617 497.688 226.784 Q498.661 225.95 499.841 222.848 L500.605 220.904 L490.119 195.395 L494.633 195.395 L502.735 215.673 L510.836 195.395 L515.35 195.395 L503.962 223.728 Z" fill="#000000" fill-rule="nonzero" fill-opacity="1" /><path clip-path="url(#clip740)" d="M522.642 217.385 L530.281 217.385 L530.281 191.02 L521.971 192.687 L521.971 188.427 L530.235 186.761 L534.91 186.761 L534.91 217.385 L542.549 217.385 L542.549 221.321 L522.642 221.321 L522.642 217.385 Z" fill="#000000" fill-rule="nonzero" fill-opacity="1" /></svg>
