<?xml version="1.0" encoding="utf-8"?>
<svg xmlns="http://www.w3.org/2000/svg" xmlns:xlink="http://www.w3.org/1999/xlink" width="600" height="300" viewBox="0 0 2400 1200">
<defs>
  <clipPath id="clip320">
    <rect x="0" y="0" width="2400" height="1200"/>
  </clipPath>
</defs>
<path clip-path="url(#clip320)" d="M0 1200 L2400 1200 L2400 0 L0 0  Z" fill="#ffffff" fill-rule="evenodd" fill-opacity="1"/>
<defs>
  <clipPath id="clip321">
    <rect x="480" y="0" width="1681" height="1200"/>
  </clipPath>
</defs>
<path clip-path="url(#clip320)" d="M216.436 1099.09 L1153.8 1099.09 L1153.8 92.1521 L216.436 92.1521  Z" fill="#ffffff" fill-rule="evenodd" fill-opacity="1"/>
<defs>
  <clipPath id="clip322">
    <rect x="216" y="92" width="938" height="1008"/>
  </clipPath>
</defs>
<polyline clip-path="url(#clip322)" style="stroke:#000000; stroke-linecap:round; stroke-linejoin:round; stroke-width:2; stroke-opacity:0.1; fill:none" points="411.404,1099.09 411.404,92.1521 "/>
<polyline clip-path="url(#clip322)" style="stroke:#000000; stroke-linecap:round; stroke-linejoin:round; stroke-width:2; stroke-opacity:0.1; fill:none" points="621.952,1099.09 621.952,92.1521 "/>
<polyline clip-path="url(#clip322)" style="stroke:#000000; stroke-linecap:round; stroke-linejoin:round; stroke-width:2; stroke-opacity:0.1; fill:none" points="832.501,1099.09 832.501,92.1521 "/>
<polyline clip-path="url(#clip322)" style="stroke:#000000; stroke-linecap:round; stroke-linejoin:round; stroke-width:2; stroke-opacity:0.1; fill:none" points="1043.05,1099.09 1043.05,92.1521 "/>
<polyline clip-path="url(#clip322)" style="stroke:#000000; stroke-linecap:round; stroke-linejoin:round; stroke-width:2; stroke-opacity:0.1; fill:none" points="216.436,1079.24 1153.8,1079.24 "/>
<polyline clip-path="url(#clip322)" style="stroke:#000000; stroke-linecap:round; stroke-linejoin:round; stroke-width:2; stroke-opacity:0.1; fill:none" points="216.436,839.59 1153.8,839.59 "/>
<polyline clip-path="url(#clip322)" style="stroke:#000000; stroke-linecap:round; stroke-linejoin:round; stroke-width:2; stroke-opacity:0.1; fill:none" points="216.436,599.943 1153.8,599.943 "/>
<polyline clip-path="url(#clip322)" style="stroke:#000000; stroke-linecap:round; stroke-linejoin:round; stroke-width:2; stroke-opacity:0.1; fill:none" points="216.436,360.297 1153.8,360.297 "/>
<polyline clip-path="url(#clip322)" style="stroke:#000000; stroke-linecap:round; stroke-linejoin:round; stroke-width:2; stroke-opacity:0.1; fill:none" points="216.436,120.65 1153.8,120.65 "/>
<polyline clip-path="url(#clip320)" style="stroke:#000000; stroke-linecap:round; stroke-linejoin:round; stroke-width:4; stroke-opacity:1; fill:none" points="216.436,1099.09 1153.8,1099.09 "/>
<polyline clip-path="url(#clip320)" style="stroke:#000000; stroke-linecap:round; stroke-linejoin:round; stroke-width:4; stroke-opacity:1; fill:none" points="411.404,1099.09 411.404,1080.19 "/>
<polyline clip-path="url(#clip320)" style="stroke:#000000; stroke-linecap:round; stroke-linejoin:round; stroke-width:4; stroke-opacity:1; fill:none" points="621.952,1099.09 621.952,1080.19 "/>
<polyline clip-path="url(#clip320)" style="stroke:#000000; stroke-linecap:round; stroke-linejoin:round; stroke-width:4; stroke-opacity:1; fill:none" points="832.501,1099.09 832.501,1080.19 "/>
<polyline clip-path="url(#clip320)" style="stroke:#000000; stroke-linecap:round; stroke-linejoin:round; stroke-width:4; stroke-opacity:1; fill:none" points="1043.05,1099.09 1043.05,1080.19 "/>
<path clip-path="url(#clip320)" d="M401.682 1126.93 L420.038 1126.93 L420.038 1130.86 L405.964 1130.86 L405.964 1139.34 Q406.982 1138.99 408.001 1138.83 Q409.019 1138.64 410.038 1138.64 Q415.825 1138.64 419.205 1141.81 Q422.584 1144.98 422.584 1150.4 Q422.584 1155.98 419.112 1159.08 Q415.64 1162.16 409.32 1162.16 Q407.145 1162.16 404.876 1161.79 Q402.631 1161.42 400.223 1160.68 L400.223 1155.98 Q402.307 1157.11 404.529 1157.67 Q406.751 1158.22 409.228 1158.22 Q413.232 1158.22 415.57 1156.12 Q417.908 1154.01 417.908 1150.4 Q417.908 1146.79 415.57 1144.68 Q413.232 1142.58 409.228 1142.58 Q407.353 1142.58 405.478 1142.99 Q403.626 1143.41 401.682 1144.29 L401.682 1126.93 Z" fill="#000000" fill-rule="nonzero" fill-opacity="1" /><path clip-path="url(#clip320)" d="M596.64 1157.55 L604.279 1157.55 L604.279 1131.19 L595.969 1132.85 L595.969 1128.59 L604.232 1126.93 L608.908 1126.93 L608.908 1157.55 L616.547 1157.55 L616.547 1161.49 L596.64 1161.49 L596.64 1157.55 Z" fill="#000000" fill-rule="nonzero" fill-opacity="1" /><path clip-path="url(#clip320)" d="M635.991 1130.01 Q632.38 1130.01 630.552 1133.57 Q628.746 1137.11 628.746 1144.24 Q628.746 1151.35 630.552 1154.91 Q632.38 1158.46 635.991 1158.46 Q639.626 1158.46 641.431 1154.91 Q643.26 1151.35 643.26 1144.24 Q643.26 1137.11 641.431 1133.57 Q639.626 1130.01 635.991 1130.01 M635.991 1126.3 Q641.802 1126.3 644.857 1130.91 Q647.936 1135.49 647.936 1144.24 Q647.936 1152.97 644.857 1157.58 Q641.802 1162.16 635.991 1162.16 Q630.181 1162.16 627.103 1157.58 Q624.047 1152.97 624.047 1144.24 Q624.047 1135.49 627.103 1130.91 Q630.181 1126.3 635.991 1126.3 Z" fill="#000000" fill-rule="nonzero" fill-opacity="1" /><path clip-path="url(#clip320)" d="M807.686 1157.55 L815.325 1157.55 L815.325 1131.19 L807.015 1132.85 L807.015 1128.59 L815.279 1126.93 L819.954 1126.93 L819.954 1157.55 L827.593 1157.55 L827.593 1161.49 L807.686 1161.49 L807.686 1157.55 Z" fill="#000000" fill-rule="nonzero" fill-opacity="1" /><path clip-path="url(#clip320)" d="M837.084 1126.93 L855.44 1126.93 L855.44 1130.86 L841.366 1130.86 L841.366 1139.34 Q842.385 1138.99 843.403 1138.83 Q844.422 1138.64 845.44 1138.64 Q851.227 1138.64 854.607 1141.81 Q857.987 1144.98 857.987 1150.4 Q857.987 1155.98 854.514 1159.08 Q851.042 1162.16 844.723 1162.16 Q842.547 1162.16 840.278 1161.79 Q838.033 1161.42 835.626 1160.68 L835.626 1155.98 Q837.709 1157.11 839.931 1157.67 Q842.153 1158.22 844.63 1158.22 Q848.635 1158.22 850.973 1156.12 Q853.311 1154.01 853.311 1150.4 Q853.311 1146.79 850.973 1144.68 Q848.635 1142.58 844.63 1142.58 Q842.755 1142.58 840.88 1142.99 Q839.028 1143.41 837.084 1144.29 L837.084 1126.93 Z" fill="#000000" fill-rule="nonzero" fill-opacity="1" /><path clip-path="url(#clip320)" d="M1021.82 1157.55 L1038.14 1157.55 L1038.14 1161.49 L1016.2 1161.49 L1016.2 1157.55 Q1018.86 1154.8 1023.44 1150.17 Q1028.05 1145.52 1029.23 1144.17 Q1031.48 1141.65 1032.35 1139.91 Q1033.26 1138.15 1033.26 1136.46 Q1033.26 1133.71 1031.31 1131.97 Q1029.39 1130.24 1026.29 1130.24 Q1024.09 1130.24 1021.64 1131 Q1019.21 1131.77 1016.43 1133.32 L1016.43 1128.59 Q1019.25 1127.46 1021.71 1126.88 Q1024.16 1126.3 1026.2 1126.3 Q1031.57 1126.3 1034.76 1128.99 Q1037.96 1131.67 1037.96 1136.16 Q1037.96 1138.29 1037.15 1140.21 Q1036.36 1142.11 1034.25 1144.71 Q1033.67 1145.38 1030.57 1148.59 Q1027.47 1151.79 1021.82 1157.55 Z" fill="#000000" fill-rule="nonzero" fill-opacity="1" /><path clip-path="url(#clip320)" d="M1057.96 1130.01 Q1054.35 1130.01 1052.52 1133.57 Q1050.71 1137.11 1050.71 1144.24 Q1050.71 1151.35 1052.52 1154.91 Q1054.35 1158.46 1057.96 1158.46 Q1061.59 1158.46 1063.4 1154.91 Q1065.22 1151.35 1065.22 1144.24 Q1065.22 1137.11 1063.4 1133.57 Q1061.59 1130.01 1057.96 1130.01 M1057.96 1126.3 Q1063.77 1126.3 1066.82 1130.91 Q1069.9 1135.49 1069.9 1144.24 Q1069.9 1152.97 1066.82 1157.58 Q1063.77 1162.16 1057.96 1162.16 Q1052.15 1162.16 1049.07 1157.58 Q1046.01 1152.97 1046.01 1144.24 Q1046.01 1135.49 1049.07 1130.91 Q1052.15 1126.3 1057.96 1126.3 Z" fill="#000000" fill-rule="nonzero" fill-opacity="1" /><polyline clip-path="url(#clip320)" style="stroke:#000000; stroke-linecap:round; stroke-linejoin:round; stroke-width:4; stroke-opacity:1; fill:none" points="216.436,1099.09 216.436,92.1521 "/>
<polyline clip-path="url(#clip320)" style="stroke:#000000; stroke-linecap:round; stroke-linejoin:round; stroke-width:4; stroke-opacity:1; fill:none" points="216.436,1079.24 235.334,1079.24 "/>
<polyline clip-path="url(#clip320)" style="stroke:#000000; stroke-linecap:round; stroke-linejoin:round; stroke-width:4; stroke-opacity:1; fill:none" points="216.436,839.59 235.334,839.59 "/>
<polyline clip-path="url(#clip320)" style="stroke:#000000; stroke-linecap:round; stroke-linejoin:round; stroke-width:4; stroke-opacity:1; fill:none" points="216.436,599.943 235.334,599.943 "/>
<polyline clip-path="url(#clip320)" style="stroke:#000000; stroke-linecap:round; stroke-linejoin:round; stroke-width:4; stroke-opacity:1; fill:none" points="216.436,360.297 235.334,360.297 "/>
<polyline clip-path="url(#clip320)" style="stroke:#000000; stroke-linecap:round; stroke-linejoin:round; stroke-width:4; stroke-opacity:1; fill:none" points="216.436,120.65 235.334,120.65 "/>
<path clip-path="url(#clip320)" d="M62.9365 1065.03 Q59.3254 1065.03 57.4967 1068.6 Q55.6912 1072.14 55.6912 1079.27 Q55.6912 1086.38 57.4967 1089.94 Q59.3254 1093.48 62.9365 1093.48 Q66.5707 1093.48 68.3763 1089.94 Q70.205 1086.38 70.205 1079.27 Q70.205 1072.14 68.3763 1068.6 Q66.5707 1065.03 62.9365 1065.03 M62.9365 1061.33 Q68.7467 1061.33 71.8022 1065.94 Q74.8809 1070.52 74.8809 1079.27 Q74.8809 1088 71.8022 1092.6 Q68.7467 1097.19 62.9365 1097.19 Q57.1264 1097.19 54.0477 1092.6 Q50.9921 1088 50.9921 1079.27 Q50.9921 1070.52 54.0477 1065.94 Q57.1264 1061.33 62.9365 1061.33 Z" fill="#000000" fill-rule="nonzero" fill-opacity="1" /><path clip-path="url(#clip320)" d="M83.0984 1090.64 L87.9827 1090.64 L87.9827 1096.52 L83.0984 1096.52 L83.0984 1090.64 Z" fill="#000000" fill-rule="nonzero" fill-opacity="1" /><path clip-path="url(#clip320)" d="M108.168 1065.03 Q104.557 1065.03 102.728 1068.6 Q100.922 1072.14 100.922 1079.27 Q100.922 1086.38 102.728 1089.94 Q104.557 1093.48 108.168 1093.48 Q111.802 1093.48 113.608 1089.94 Q115.436 1086.38 115.436 1079.27 Q115.436 1072.14 113.608 1068.6 Q111.802 1065.03 108.168 1065.03 M108.168 1061.33 Q113.978 1061.33 117.033 1065.94 Q120.112 1070.52 120.112 1079.27 Q120.112 1088 117.033 1092.6 Q113.978 1097.19 108.168 1097.19 Q102.358 1097.19 99.2789 1092.6 Q96.2234 1088 96.2234 1079.27 Q96.2234 1070.52 99.2789 1065.94 Q102.358 1061.33 108.168 1061.33 Z" fill="#000000" fill-rule="nonzero" fill-opacity="1" /><path clip-path="url(#clip320)" d="M138.33 1065.03 Q134.719 1065.03 132.89 1068.6 Q131.084 1072.14 131.084 1079.27 Q131.084 1086.38 132.89 1089.94 Q134.719 1093.48 138.33 1093.48 Q141.964 1093.48 143.769 1089.94 Q145.598 1086.38 145.598 1079.27 Q145.598 1072.14 143.769 1068.6 Q141.964 1065.03 138.33 1065.03 M138.33 1061.33 Q144.14 1061.33 147.195 1065.94 Q150.274 1070.52 150.274 1079.27 Q150.274 1088 147.195 1092.6 Q144.14 1097.19 138.33 1097.19 Q132.519 1097.19 129.441 1092.6 Q126.385 1088 126.385 1079.27 Q126.385 1070.52 129.441 1065.94 Q132.519 1061.33 138.33 1061.33 Z" fill="#000000" fill-rule="nonzero" fill-opacity="1" /><path clip-path="url(#clip320)" d="M168.491 1065.03 Q164.88 1065.03 163.052 1068.6 Q161.246 1072.14 161.246 1079.27 Q161.246 1086.38 163.052 1089.94 Q164.88 1093.48 168.491 1093.48 Q172.126 1093.48 173.931 1089.94 Q175.76 1086.38 175.76 1079.27 Q175.76 1072.14 173.931 1068.6 Q172.126 1065.03 168.491 1065.03 M168.491 1061.33 Q174.302 1061.33 177.357 1065.94 Q180.436 1070.52 180.436 1079.27 Q180.436 1088 177.357 1092.6 Q174.302 1097.19 168.491 1097.19 Q162.681 1097.19 159.603 1092.6 Q156.547 1088 156.547 1079.27 Q156.547 1070.52 159.603 1065.94 Q162.681 1061.33 168.491 1061.33 Z" fill="#000000" fill-rule="nonzero" fill-opacity="1" /><path clip-path="url(#clip320)" d="M63.9319 825.388 Q60.3208 825.388 58.4921 828.953 Q56.6865 832.495 56.6865 839.624 Q56.6865 846.731 58.4921 850.296 Q60.3208 853.837 63.9319 853.837 Q67.5661 853.837 69.3717 850.296 Q71.2004 846.731 71.2004 839.624 Q71.2004 832.495 69.3717 828.953 Q67.5661 825.388 63.9319 825.388 M63.9319 821.685 Q69.742 821.685 72.7976 826.291 Q75.8763 830.875 75.8763 839.624 Q75.8763 848.351 72.7976 852.958 Q69.742 857.541 63.9319 857.541 Q58.1217 857.541 55.043 852.958 Q51.9875 848.351 51.9875 839.624 Q51.9875 830.875 55.043 826.291 Q58.1217 821.685 63.9319 821.685 Z" fill="#000000" fill-rule="nonzero" fill-opacity="1" /><path clip-path="url(#clip320)" d="M84.0938 850.99 L88.978 850.99 L88.978 856.87 L84.0938 856.87 L84.0938 850.99 Z" fill="#000000" fill-rule="nonzero" fill-opacity="1" /><path clip-path="url(#clip320)" d="M109.163 825.388 Q105.552 825.388 103.723 828.953 Q101.918 832.495 101.918 839.624 Q101.918 846.731 103.723 850.296 Q105.552 853.837 109.163 853.837 Q112.797 853.837 114.603 850.296 Q116.432 846.731 116.432 839.624 Q116.432 832.495 114.603 828.953 Q112.797 825.388 109.163 825.388 M109.163 821.685 Q114.973 821.685 118.029 826.291 Q121.107 830.875 121.107 839.624 Q121.107 848.351 118.029 852.958 Q114.973 857.541 109.163 857.541 Q103.353 857.541 100.274 852.958 Q97.2187 848.351 97.2187 839.624 Q97.2187 830.875 100.274 826.291 Q103.353 821.685 109.163 821.685 Z" fill="#000000" fill-rule="nonzero" fill-opacity="1" /><path clip-path="url(#clip320)" d="M139.325 825.388 Q135.714 825.388 133.885 828.953 Q132.08 832.495 132.08 839.624 Q132.08 846.731 133.885 850.296 Q135.714 853.837 139.325 853.837 Q142.959 853.837 144.765 850.296 Q146.593 846.731 146.593 839.624 Q146.593 832.495 144.765 828.953 Q142.959 825.388 139.325 825.388 M139.325 821.685 Q145.135 821.685 148.191 826.291 Q151.269 830.875 151.269 839.624 Q151.269 848.351 148.191 852.958 Q145.135 857.541 139.325 857.541 Q133.515 857.541 130.436 852.958 Q127.381 848.351 127.381 839.624 Q127.381 830.875 130.436 826.291 Q133.515 821.685 139.325 821.685 Z" fill="#000000" fill-rule="nonzero" fill-opacity="1" /><path clip-path="url(#clip320)" d="M159.533 822.31 L177.89 822.31 L177.89 826.245 L163.816 826.245 L163.816 834.717 Q164.834 834.37 165.853 834.208 Q166.871 834.023 167.89 834.023 Q173.677 834.023 177.056 837.194 Q180.436 840.365 180.436 845.782 Q180.436 851.361 176.964 854.462 Q173.491 857.541 167.172 857.541 Q164.996 857.541 162.728 857.171 Q160.482 856.8 158.075 856.06 L158.075 851.361 Q160.158 852.495 162.38 853.05 Q164.603 853.606 167.079 853.606 Q171.084 853.606 173.422 851.499 Q175.76 849.393 175.76 845.782 Q175.76 842.171 173.422 840.064 Q171.084 837.958 167.079 837.958 Q165.204 837.958 163.329 838.374 Q161.478 838.791 159.533 839.671 L159.533 822.31 Z" fill="#000000" fill-rule="nonzero" fill-opacity="1" /><path clip-path="url(#clip320)" d="M62.9365 585.742 Q59.3254 585.742 57.4967 589.307 Q55.6912 592.848 55.6912 599.978 Q55.6912 607.084 57.4967 610.649 Q59.3254 614.191 62.9365 614.191 Q66.5707 614.191 68.3763 610.649 Q70.205 607.084 70.205 599.978 Q70.205 592.848 68.3763 589.307 Q66.5707 585.742 62.9365 585.742 M62.9365 582.038 Q68.7467 582.038 71.8022 586.645 Q74.8809 591.228 74.8809 599.978 Q74.8809 608.705 71.8022 613.311 Q68.7467 617.895 62.9365 617.895 Q57.1264 617.895 54.0477 613.311 Q50.9921 608.705 50.9921 599.978 Q50.9921 591.228 54.0477 586.645 Q57.1264 582.038 62.9365 582.038 Z" fill="#000000" fill-rule="nonzero" fill-opacity="1" /><path clip-path="url(#clip320)" d="M83.0984 611.344 L87.9827 611.344 L87.9827 617.223 L83.0984 617.223 L83.0984 611.344 Z" fill="#000000" fill-rule="nonzero" fill-opacity="1" /><path clip-path="url(#clip320)" d="M108.168 585.742 Q104.557 585.742 102.728 589.307 Q100.922 592.848 100.922 599.978 Q100.922 607.084 102.728 610.649 Q104.557 614.191 108.168 614.191 Q111.802 614.191 113.608 610.649 Q115.436 607.084 115.436 599.978 Q115.436 592.848 113.608 589.307 Q111.802 585.742 108.168 585.742 M108.168 582.038 Q113.978 582.038 117.033 586.645 Q120.112 591.228 120.112 599.978 Q120.112 608.705 117.033 613.311 Q113.978 617.895 108.168 617.895 Q102.358 617.895 99.2789 613.311 Q96.2234 608.705 96.2234 599.978 Q96.2234 591.228 99.2789 586.645 Q102.358 582.038 108.168 582.038 Z" fill="#000000" fill-rule="nonzero" fill-opacity="1" /><path clip-path="url(#clip320)" d="M129.14 613.288 L136.779 613.288 L136.779 586.922 L128.469 588.589 L128.469 584.33 L136.732 582.663 L141.408 582.663 L141.408 613.288 L149.047 613.288 L149.047 617.223 L129.14 617.223 L129.14 613.288 Z" fill="#000000" fill-rule="nonzero" fill-opacity="1" /><path clip-path="url(#clip320)" d="M168.491 585.742 Q164.88 585.742 163.052 589.307 Q161.246 592.848 161.246 599.978 Q161.246 607.084 163.052 610.649 Q164.88 614.191 168.491 614.191 Q172.126 614.191 173.931 610.649 Q175.76 607.084 175.76 599.978 Q175.76 592.848 173.931 589.307 Q172.126 585.742 168.491 585.742 M168.491 582.038 Q174.302 582.038 177.357 586.645 Q180.436 591.228 180.436 599.978 Q180.436 608.705 177.357 613.311 Q174.302 617.895 168.491 617.895 Q162.681 617.895 159.603 613.311 Q156.547 608.705 156.547 599.978 Q156.547 591.228 159.603 586.645 Q162.681 582.038 168.491 582.038 Z" fill="#000000" fill-rule="nonzero" fill-opacity="1" /><path clip-path="url(#clip320)" d="M63.9319 346.095 Q60.3208 346.095 58.4921 349.66 Q56.6865 353.202 56.6865 360.332 Q56.6865 367.438 58.4921 371.003 Q60.3208 374.544 63.9319 374.544 Q67.5661 374.544 69.3717 371.003 Q71.2004 367.438 71.2004 360.332 Q71.2004 353.202 69.3717 349.66 Q67.5661 346.095 63.9319 346.095 M63.9319 342.392 Q69.742 342.392 72.7976 346.998 Q75.8763 351.582 75.8763 360.332 Q75.8763 369.058 72.7976 373.665 Q69.742 378.248 63.9319 378.248 Q58.1217 378.248 55.043 373.665 Q51.9875 369.058 51.9875 360.332 Q51.9875 351.582 55.043 346.998 Q58.1217 342.392 63.9319 342.392 Z" fill="#000000" fill-rule="nonzero" fill-opacity="1" /><path clip-path="url(#clip320)" d="M84.0938 371.697 L88.978 371.697 L88.978 377.577 L84.0938 377.577 L84.0938 371.697 Z" fill="#000000" fill-rule="nonzero" fill-opacity="1" /><path clip-path="url(#clip320)" d="M109.163 346.095 Q105.552 346.095 103.723 349.66 Q101.918 353.202 101.918 360.332 Q101.918 367.438 103.723 371.003 Q105.552 374.544 109.163 374.544 Q112.797 374.544 114.603 371.003 Q116.432 367.438 116.432 360.332 Q116.432 353.202 114.603 349.66 Q112.797 346.095 109.163 346.095 M109.163 342.392 Q114.973 342.392 118.029 346.998 Q121.107 351.582 121.107 360.332 Q121.107 369.058 118.029 373.665 Q114.973 378.248 109.163 378.248 Q103.353 378.248 100.274 373.665 Q97.2187 369.058 97.2187 360.332 Q97.2187 351.582 100.274 346.998 Q103.353 342.392 109.163 342.392 Z" fill="#000000" fill-rule="nonzero" fill-opacity="1" /><path clip-path="url(#clip320)" d="M130.135 373.642 L137.774 373.642 L137.774 347.276 L129.464 348.943 L129.464 344.683 L137.728 343.017 L142.404 343.017 L142.404 373.642 L150.043 373.642 L150.043 377.577 L130.135 377.577 L130.135 373.642 Z" fill="#000000" fill-rule="nonzero" fill-opacity="1" /><path clip-path="url(#clip320)" d="M159.533 343.017 L177.89 343.017 L177.89 346.952 L163.816 346.952 L163.816 355.424 Q164.834 355.077 165.853 354.915 Q166.871 354.73 167.89 354.73 Q173.677 354.73 177.056 357.901 Q180.436 361.072 180.436 366.489 Q180.436 372.068 176.964 375.169 Q173.491 378.248 167.172 378.248 Q164.996 378.248 162.728 377.878 Q160.482 377.507 158.075 376.767 L158.075 372.068 Q160.158 373.202 162.38 373.757 Q164.603 374.313 167.079 374.313 Q171.084 374.313 173.422 372.206 Q175.76 370.1 175.76 366.489 Q175.76 362.878 173.422 360.771 Q171.084 358.665 167.079 358.665 Q165.204 358.665 163.329 359.082 Q161.478 359.498 159.533 360.378 L159.533 343.017 Z" fill="#000000" fill-rule="nonzero" fill-opacity="1" /><path clip-path="url(#clip320)" d="M62.9365 106.449 Q59.3254 106.449 57.4967 110.014 Q55.6912 113.555 55.6912 120.685 Q55.6912 127.791 57.4967 131.356 Q59.3254 134.898 62.9365 134.898 Q66.5707 134.898 68.3763 131.356 Q70.205 127.791 70.205 120.685 Q70.205 113.555 68.3763 110.014 Q66.5707 106.449 62.9365 106.449 M62.9365 102.745 Q68.7467 102.745 71.8022 107.352 Q74.8809 111.935 74.8809 120.685 Q74.8809 129.412 71.8022 134.018 Q68.7467 138.602 62.9365 138.602 Q57.1264 138.602 54.0477 134.018 Q50.9921 129.412 50.9921 120.685 Q50.9921 111.935 54.0477 107.352 Q57.1264 102.745 62.9365 102.745 Z" fill="#000000" fill-rule="nonzero" fill-opacity="1" /><path clip-path="url(#clip320)" d="M83.0984 132.051 L87.9827 132.051 L87.9827 137.93 L83.0984 137.93 L83.0984 132.051 Z" fill="#000000" fill-rule="nonzero" fill-opacity="1" /><path clip-path="url(#clip320)" d="M108.168 106.449 Q104.557 106.449 102.728 110.014 Q100.922 113.555 100.922 120.685 Q100.922 127.791 102.728 131.356 Q104.557 134.898 108.168 134.898 Q111.802 134.898 113.608 131.356 Q115.436 127.791 115.436 120.685 Q115.436 113.555 113.608 110.014 Q111.802 106.449 108.168 106.449 M108.168 102.745 Q113.978 102.745 117.033 107.352 Q120.112 111.935 120.112 120.685 Q120.112 129.412 117.033 134.018 Q113.978 138.602 108.168 138.602 Q102.358 138.602 99.2789 134.018 Q96.2234 129.412 96.2234 120.685 Q96.2234 111.935 99.2789 107.352 Q102.358 102.745 108.168 102.745 Z" fill="#000000" fill-rule="nonzero" fill-opacity="1" /><path clip-path="url(#clip320)" d="M132.357 133.995 L148.677 133.995 L148.677 137.93 L126.732 137.93 L126.732 133.995 Q129.394 131.241 133.978 126.611 Q138.584 121.958 139.765 120.616 Q142.01 118.092 142.89 116.356 Q143.793 114.597 143.793 112.907 Q143.793 110.153 141.848 108.417 Q139.927 106.68 136.825 106.68 Q134.626 106.68 132.172 107.444 Q129.742 108.208 126.964 109.759 L126.964 105.037 Q129.788 103.903 132.242 103.324 Q134.695 102.745 136.732 102.745 Q142.103 102.745 145.297 105.43 Q148.492 108.116 148.492 112.606 Q148.492 114.736 147.681 116.657 Q146.894 118.555 144.788 121.148 Q144.209 121.819 141.107 125.037 Q138.006 128.231 132.357 133.995 Z" fill="#000000" fill-rule="nonzero" fill-opacity="1" /><path clip-path="url(#clip320)" d="M168.491 106.449 Q164.88 106.449 163.052 110.014 Q161.246 113.555 161.246 120.685 Q161.246 127.791 163.052 131.356 Q164.88 134.898 168.491 134.898 Q172.126 134.898 173.931 131.356 Q175.76 127.791 175.76 120.685 Q175.76 113.555 173.931 110.014 Q172.126 106.449 168.491 106.449 M168.491 102.745 Q174.302 102.745 177.357 107.352 Q180.436 111.935 180.436 120.685 Q180.436 129.412 177.357 134.018 Q174.302 138.602 168.491 138.602 Q162.681 138.602 159.603 134.018 Q156.547 129.412 156.547 120.685 Q156.547 111.935 159.603 107.352 Q162.681 102.745 168.491 102.745 Z" fill="#000000" fill-rule="nonzero" fill-opacity="1" /><path clip-path="url(#clip320)" d="M617.734 30.8748 L617.734 33.2186 L595.703 33.2186 Q596.016 38.1665 598.672 40.7706 Q601.354 43.3487 606.12 43.3487 Q608.88 43.3487 611.458 42.6716 Q614.062 41.9946 616.614 40.6404 L616.614 45.1716 Q614.036 46.2654 611.328 46.8383 Q608.62 47.4112 605.833 47.4112 Q598.854 47.4112 594.766 43.3487 Q590.703 39.2862 590.703 32.3592 Q590.703 25.1978 594.557 21.0051 Q598.437 16.7864 605 16.7864 Q610.885 16.7864 614.297 20.5884 Q617.734 24.3645 617.734 30.8748 M612.943 29.4686 Q612.891 25.5363 610.729 23.1926 Q608.594 20.8488 605.052 20.8488 Q601.042 20.8488 598.62 23.1145 Q596.224 25.3801 595.859 29.4946 L612.943 29.4686 Z" fill="#000000" fill-rule="nonzero" fill-opacity="1" /><path clip-path="url(#clip320)" d="M625.104 35.1456 L625.104 17.4895 L629.896 17.4895 L629.896 34.9634 Q629.896 39.104 631.51 41.1873 Q633.125 43.2446 636.354 43.2446 Q640.234 43.2446 642.474 40.7706 Q644.739 38.2967 644.739 34.0259 L644.739 17.4895 L649.531 17.4895 L649.531 46.656 L644.739 46.656 L644.739 42.1769 Q642.995 44.8331 640.677 46.1352 Q638.385 47.4112 635.338 47.4112 Q630.312 47.4112 627.708 44.2862 Q625.104 41.1612 625.104 35.1456 M637.161 16.7864 L637.161 16.7864 Z" fill="#000000" fill-rule="nonzero" fill-opacity="1" /><path clip-path="url(#clip320)" d="M676.302 21.9686 Q675.494 21.4999 674.531 21.2916 Q673.593 21.0572 672.448 21.0572 Q668.385 21.0572 666.198 23.7134 Q664.036 26.3436 664.036 31.2915 L664.036 46.656 L659.218 46.656 L659.218 17.4895 L664.036 17.4895 L664.036 22.0207 Q665.547 19.3645 667.968 18.0884 Q670.39 16.7864 673.854 16.7864 Q674.349 16.7864 674.948 16.8645 Q675.546 16.9166 676.276 17.0468 L676.302 21.9686 Z" fill="#000000" fill-rule="nonzero" fill-opacity="1" /><path clip-path="url(#clip320)" d="M681.328 17.4895 L686.119 17.4895 L686.119 46.656 L681.328 46.656 L681.328 17.4895 M681.328 6.13538 L686.119 6.13538 L686.119 12.2031 L681.328 12.2031 L681.328 6.13538 Z" fill="#000000" fill-rule="nonzero" fill-opacity="1" /><path clip-path="url(#clip320)" d="M717.083 32.0988 Q717.083 26.8124 714.895 23.8176 Q712.734 20.7968 708.932 20.7968 Q705.13 20.7968 702.942 23.8176 Q700.781 26.8124 700.781 32.0988 Q700.781 37.3852 702.942 40.406 Q705.13 43.4008 708.932 43.4008 Q712.734 43.4008 714.895 40.406 Q717.083 37.3852 717.083 32.0988 M700.781 21.9165 Q702.291 19.3124 704.583 18.0624 Q706.9 16.7864 710.104 16.7864 Q715.416 16.7864 718.723 21.0051 Q722.057 25.2238 722.057 32.0988 Q722.057 38.9737 718.723 43.1925 Q715.416 47.4112 710.104 47.4112 Q706.9 47.4112 704.583 46.1612 Q702.291 44.8852 700.781 42.281 L700.781 46.656 L695.963 46.656 L695.963 6.13538 L700.781 6.13538 L700.781 21.9165 Z" fill="#000000" fill-rule="nonzero" fill-opacity="1" /><path clip-path="url(#clip320)" d="M741.301 20.8488 Q737.447 20.8488 735.208 23.8697 Q732.968 26.8644 732.968 32.0988 Q732.968 37.3331 735.182 40.354 Q737.421 43.3487 741.301 43.3487 Q745.129 43.3487 747.369 40.3279 Q749.609 37.3071 749.609 32.0988 Q749.609 26.9165 747.369 23.8957 Q745.129 20.8488 741.301 20.8488 M741.301 16.7864 Q747.551 16.7864 751.119 20.8488 Q754.687 24.9113 754.687 32.0988 Q754.687 39.2602 751.119 43.3487 Q747.551 47.4112 741.301 47.4112 Q735.025 47.4112 731.458 43.3487 Q727.916 39.2602 727.916 32.0988 Q727.916 24.9113 731.458 20.8488 Q735.025 16.7864 741.301 16.7864 Z" fill="#000000" fill-rule="nonzero" fill-opacity="1" /><path clip-path="url(#clip320)" d="M779.53 21.9686 Q778.723 21.4999 777.759 21.2916 Q776.822 21.0572 775.676 21.0572 Q771.614 21.0572 769.426 23.7134 Q767.265 26.3436 767.265 31.2915 L767.265 46.656 L762.447 46.656 L762.447 17.4895 L767.265 17.4895 L767.265 22.0207 Q768.775 19.3645 771.197 18.0884 Q773.619 16.7864 777.082 16.7864 Q777.577 16.7864 778.176 16.8645 Q778.775 16.9166 779.504 17.0468 L779.53 21.9686 Z" fill="#000000" fill-rule="nonzero" fill-opacity="1" /><path clip-path="url(#clip322)" d="M242.965 1000.35 L285.075 1000.35 L327.184 1025.51 L369.294 987.017 L411.404 990.921 L453.513 1006.02 L495.623 1038.94 L537.733 1041.66 L579.842 1023.76 L621.952 1042.93 L664.062 1029.13 L706.172 1070.59 L748.281 1047.3 L790.391 1036.79 L832.501 1047.79 L874.61 1011.38 L916.72 1010.67 L958.83 1012.46 L1000.94 1033.88 L1043.05 1037.75 L1085.16 1066.78 L1127.27 1031.81 L1127.27 858.154 L1085.16 865.245 L1043.05 893.465 L1000.94 862.318 L958.83 860.217 L916.72 895.476 L874.61 866.587 L832.501 875.437 L790.391 875.298 L748.281 904.17 L706.172 955.603 L664.062 963.587 L621.952 900.821 L579.842 897.593 L537.733 878.899 L495.623 862.056 L453.513 886.892 L411.404 901.341 L369.294 929.283 L327.184 967.353 L285.075 1000.35 L242.965 1000.35  Z" fill="#009af9" fill-rule="evenodd" fill-opacity="0.1"/>
<polyline clip-path="url(#clip322)" style="stroke:#009af9; stroke-linecap:round; stroke-linejoin:round; stroke-width:4; stroke-opacity:1; fill:none" points="242.965,1000.35 285.075,1000.35 327.184,996.43 369.294,958.15 411.404,946.131 453.513,946.453 495.623,950.498 537.733,960.278 579.842,960.677 621.952,971.877 664.062,996.359 706.172,1013.1 748.281,975.735 790.391,956.046 832.501,961.616 874.61,938.984 916.72,953.074 958.83,936.339 1000.94,948.099 1043.05,965.607 1085.16,966.014 1127.27,944.981 "/>
<path clip-path="url(#clip322)" d="M242.965 1000.35 L285.075 1000.35 L327.184 120.65 L369.294 120.65 L411.404 120.65 L453.513 120.65 L495.623 120.65 L537.733 120.65 L579.842 120.65 L621.952 120.65 L664.062 120.65 L706.172 120.65 L748.281 120.65 L790.391 120.65 L832.501 120.65 L874.61 120.65 L916.72 120.65 L958.83 120.65 L1000.94 120.65 L1043.05 120.65 L1085.16 120.65 L1127.27 120.65 L1127.27 120.65 L1085.16 120.65 L1043.05 120.65 L1000.94 120.65 L958.83 120.65 L916.72 120.65 L874.61 120.65 L832.501 120.65 L790.391 120.65 L748.281 120.65 L706.172 120.65 L664.062 120.65 L621.952 120.65 L579.842 120.65 L537.733 120.65 L495.623 120.65 L453.513 120.65 L411.404 120.65 L369.294 120.65 L327.184 120.65 L285.075 1000.35 L242.965 1000.35  Z" fill="#e26f46" fill-rule="evenodd" fill-opacity="0.1"/>
<polyline clip-path="url(#clip322)" style="stroke:#e26f46; stroke-linecap:round; stroke-linejoin:round; stroke-width:4; stroke-opacity:1; fill:none" points="242.965,1000.35 285.075,1000.35 327.184,120.65 369.294,120.65 411.404,120.65 453.513,120.65 495.623,120.65 537.733,120.65 579.842,120.65 621.952,120.65 664.062,120.65 706.172,120.65 748.281,120.65 790.391,120.65 832.501,120.65 874.61,120.65 916.72,120.65 958.83,120.65 1000.94,120.65 1043.05,120.65 1085.16,120.65 1127.27,120.65 "/>
<path clip-path="url(#clip320)" d="M1415.39 1099.09 L2352.76 1099.09 L2352.76 92.1521 L1415.39 92.1521  Z" fill="#ffffff" fill-rule="evenodd" fill-opacity="1"/>
<defs>
  <clipPath id="clip323">
    <rect x="1415" y="92" width="938" height="1008"/>
  </clipPath>
</defs>
<polyline clip-path="url(#clip323)" style="stroke:#000000; stroke-linecap:round; stroke-linejoin:round; stroke-width:2; stroke-opacity:0.1; fill:none" points="1610.36,1099.09 1610.36,92.1521 "/>
<polyline clip-path="url(#clip323)" style="stroke:#000000; stroke-linecap:round; stroke-linejoin:round; stroke-width:2; stroke-opacity:0.1; fill:none" points="1820.91,1099.09 1820.91,92.1521 "/>
<polyline clip-path="url(#clip323)" style="stroke:#000000; stroke-linecap:round; stroke-linejoin:round; stroke-width:2; stroke-opacity:0.1; fill:none" points="2031.46,1099.09 2031.46,92.1521 "/>
<polyline clip-path="url(#clip323)" style="stroke:#000000; stroke-linecap:round; stroke-linejoin:round; stroke-width:2; stroke-opacity:0.1; fill:none" points="2242.01,1099.09 2242.01,92.1521 "/>
<polyline clip-path="url(#clip323)" style="stroke:#000000; stroke-linecap:round; stroke-linejoin:round; stroke-width:2; stroke-opacity:0.1; fill:none" points="1415.39,1059.33 2352.76,1059.33 "/>
<polyline clip-path="url(#clip323)" style="stroke:#000000; stroke-linecap:round; stroke-linejoin:round; stroke-width:2; stroke-opacity:0.1; fill:none" points="1415.39,832.058 2352.76,832.058 "/>
<polyline clip-path="url(#clip323)" style="stroke:#000000; stroke-linecap:round; stroke-linejoin:round; stroke-width:2; stroke-opacity:0.1; fill:none" points="1415.39,604.784 2352.76,604.784 "/>
<polyline clip-path="url(#clip323)" style="stroke:#000000; stroke-linecap:round; stroke-linejoin:round; stroke-width:2; stroke-opacity:0.1; fill:none" points="1415.39,377.51 2352.76,377.51 "/>
<polyline clip-path="url(#clip323)" style="stroke:#000000; stroke-linecap:round; stroke-linejoin:round; stroke-width:2; stroke-opacity:0.1; fill:none" points="1415.39,150.236 2352.76,150.236 "/>
<polyline clip-path="url(#clip320)" style="stroke:#000000; stroke-linecap:round; stroke-linejoin:round; stroke-width:4; stroke-opacity:1; fill:none" points="1415.39,1099.09 2352.76,1099.09 "/>
<polyline clip-path="url(#clip320)" style="stroke:#000000; stroke-linecap:round; stroke-linejoin:round; stroke-width:4; stroke-opacity:1; fill:none" points="1610.36,1099.09 1610.36,1080.19 "/>
<polyline clip-path="url(#clip320)" style="stroke:#000000; stroke-linecap:round; stroke-linejoin:round; stroke-width:4; stroke-opacity:1; fill:none" points="1820.91,1099.09 1820.91,1080.19 "/>
<polyline clip-path="url(#clip320)" style="stroke:#000000; stroke-linecap:round; stroke-linejoin:round; stroke-width:4; stroke-opacity:1; fill:none" points="2031.46,1099.09 2031.46,1080.19 "/>
<polyline clip-path="url(#clip320)" style="stroke:#000000; stroke-linecap:round; stroke-linejoin:round; stroke-width:4; stroke-opacity:1; fill:none" points="2242.01,1099.09 2242.01,1080.19 "/>
<path clip-path="url(#clip320)" d="M1600.64 1126.93 L1619 1126.93 L1619 1130.86 L1604.92 1130.86 L1604.92 1139.34 Q1605.94 1138.99 1606.96 1138.83 Q1607.98 1138.64 1609 1138.64 Q1614.78 1138.64 1618.16 1141.81 Q1621.54 1144.98 1621.54 1150.4 Q1621.54 1155.98 1618.07 1159.08 Q1614.6 1162.16 1608.28 1162.16 Q1606.1 1162.16 1603.83 1161.79 Q1601.59 1161.42 1599.18 1160.68 L1599.18 1155.98 Q1601.26 1157.11 1603.49 1157.67 Q1605.71 1158.22 1608.19 1158.22 Q1612.19 1158.22 1614.53 1156.12 Q1616.87 1154.01 1616.87 1150.4 Q1616.87 1146.79 1614.53 1144.68 Q1612.19 1142.58 1608.19 1142.58 Q1606.31 1142.58 1604.44 1142.99 Q1602.58 1143.41 1600.64 1144.29 L1600.64 1126.93 Z" fill="#000000" fill-rule="nonzero" fill-opacity="1" /><path clip-path="url(#clip320)" d="M1795.6 1157.55 L1803.24 1157.55 L1803.24 1131.19 L1794.93 1132.85 L1794.93 1128.59 L1803.19 1126.93 L1807.87 1126.93 L1807.87 1157.55 L1815.51 1157.55 L1815.51 1161.49 L1795.6 1161.49 L1795.6 1157.55 Z" fill="#000000" fill-rule="nonzero" fill-opacity="1" /><path clip-path="url(#clip320)" d="M1834.95 1130.01 Q1831.34 1130.01 1829.51 1133.57 Q1827.7 1137.11 1827.7 1144.24 Q1827.7 1151.35 1829.51 1154.91 Q1831.34 1158.46 1834.95 1158.46 Q1838.58 1158.46 1840.39 1154.91 Q1842.22 1151.35 1842.22 1144.24 Q1842.22 1137.11 1840.39 1133.57 Q1838.58 1130.01 1834.95 1130.01 M1834.95 1126.3 Q1840.76 1126.3 1843.82 1130.91 Q1846.89 1135.49 1846.89 1144.24 Q1846.89 1152.97 1843.82 1157.58 Q1840.76 1162.16 1834.95 1162.16 Q1829.14 1162.16 1826.06 1157.58 Q1823.01 1152.97 1823.01 1144.24 Q1823.01 1135.49 1826.06 1130.91 Q1829.14 1126.3 1834.95 1126.3 Z" fill="#000000" fill-rule="nonzero" fill-opacity="1" /><path clip-path="url(#clip320)" d="M2006.64 1157.55 L2014.28 1157.55 L2014.28 1131.19 L2005.97 1132.85 L2005.97 1128.59 L2014.24 1126.93 L2018.91 1126.93 L2018.91 1157.55 L2026.55 1157.55 L2026.55 1161.49 L2006.64 1161.49 L2006.64 1157.55 Z" fill="#000000" fill-rule="nonzero" fill-opacity="1" /><path clip-path="url(#clip320)" d="M2036.04 1126.93 L2054.4 1126.93 L2054.4 1130.86 L2040.32 1130.86 L2040.32 1139.34 Q2041.34 1138.99 2042.36 1138.83 Q2043.38 1138.64 2044.4 1138.64 Q2050.19 1138.64 2053.57 1141.81 Q2056.94 1144.98 2056.94 1150.4 Q2056.94 1155.98 2053.47 1159.08 Q2050 1162.16 2043.68 1162.16 Q2041.51 1162.16 2039.24 1161.79 Q2036.99 1161.42 2034.58 1160.68 L2034.58 1155.98 Q2036.67 1157.11 2038.89 1157.67 Q2041.11 1158.22 2043.59 1158.22 Q2047.59 1158.22 2049.93 1156.12 Q2052.27 1154.01 2052.27 1150.4 Q2052.27 1146.79 2049.93 1144.68 Q2047.59 1142.58 2043.59 1142.58 Q2041.71 1142.58 2039.84 1142.99 Q2037.99 1143.41 2036.04 1144.29 L2036.04 1126.93 Z" fill="#000000" fill-rule="nonzero" fill-opacity="1" /><path clip-path="url(#clip320)" d="M2220.78 1157.55 L2237.1 1157.55 L2237.1 1161.49 L2215.16 1161.49 L2215.16 1157.55 Q2217.82 1154.8 2222.4 1150.17 Q2227.01 1145.52 2228.19 1144.17 Q2230.43 1141.65 2231.31 1139.91 Q2232.22 1138.15 2232.22 1136.46 Q2232.22 1133.71 2230.27 1131.97 Q2228.35 1130.24 2225.25 1130.24 Q2223.05 1130.24 2220.6 1131 Q2218.16 1131.77 2215.39 1133.32 L2215.39 1128.59 Q2218.21 1127.46 2220.66 1126.88 Q2223.12 1126.3 2225.16 1126.3 Q2230.53 1126.3 2233.72 1128.99 Q2236.91 1131.67 2236.91 1136.16 Q2236.91 1138.29 2236.1 1140.21 Q2235.32 1142.11 2233.21 1144.71 Q2232.63 1145.38 2229.53 1148.59 Q2226.43 1151.79 2220.78 1157.55 Z" fill="#000000" fill-rule="nonzero" fill-opacity="1" /><path clip-path="url(#clip320)" d="M2256.91 1130.01 Q2253.3 1130.01 2251.47 1133.57 Q2249.67 1137.11 2249.67 1144.24 Q2249.67 1151.35 2251.47 1154.91 Q2253.3 1158.46 2256.91 1158.46 Q2260.55 1158.46 2262.35 1154.91 Q2264.18 1151.35 2264.18 1144.24 Q2264.18 1137.11 2262.35 1133.57 Q2260.55 1130.01 2256.91 1130.01 M2256.91 1126.3 Q2262.72 1126.3 2265.78 1130.91 Q2268.86 1135.49 2268.86 1144.24 Q2268.86 1152.97 2265.78 1157.58 Q2262.72 1162.16 2256.91 1162.16 Q2251.1 1162.16 2248.03 1157.58 Q2244.97 1152.97 2244.97 1144.24 Q2244.97 1135.49 2248.03 1130.91 Q2251.1 1126.3 2256.91 1126.3 Z" fill="#000000" fill-rule="nonzero" fill-opacity="1" /><polyline clip-path="url(#clip320)" style="stroke:#000000; stroke-linecap:round; stroke-linejoin:round; stroke-width:4; stroke-opacity:1; fill:none" points="1415.39,1099.09 1415.39,92.1521 "/>
<polyline clip-path="url(#clip320)" style="stroke:#000000; stroke-linecap:round; stroke-linejoin:round; stroke-width:4; stroke-opacity:1; fill:none" points="1415.39,1059.33 1434.29,1059.33 "/>
<polyline clip-path="url(#clip320)" style="stroke:#000000; stroke-linecap:round; stroke-linejoin:round; stroke-width:4; stroke-opacity:1; fill:none" points="1415.39,832.058 1434.29,832.058 "/>
<polyline clip-path="url(#clip320)" style="stroke:#000000; stroke-linecap:round; stroke-linejoin:round; stroke-width:4; stroke-opacity:1; fill:none" points="1415.39,604.784 1434.29,604.784 "/>
<polyline clip-path="url(#clip320)" style="stroke:#000000; stroke-linecap:round; stroke-linejoin:round; stroke-width:4; stroke-opacity:1; fill:none" points="1415.39,377.51 1434.29,377.51 "/>
<polyline clip-path="url(#clip320)" style="stroke:#000000; stroke-linecap:round; stroke-linejoin:round; stroke-width:4; stroke-opacity:1; fill:none" points="1415.39,150.236 1434.29,150.236 "/>
<path clip-path="url(#clip320)" d="M1252.71 1072.68 L1260.34 1072.68 L1260.34 1046.31 L1252.03 1047.98 L1252.03 1043.72 L1260.3 1042.05 L1264.97 1042.05 L1264.97 1072.68 L1272.61 1072.68 L1272.61 1076.61 L1252.71 1076.61 L1252.71 1072.68 Z" fill="#000000" fill-rule="nonzero" fill-opacity="1" /><path clip-path="url(#clip320)" d="M1282.06 1070.73 L1286.94 1070.73 L1286.94 1076.61 L1282.06 1076.61 L1282.06 1070.73 Z" fill="#000000" fill-rule="nonzero" fill-opacity="1" /><path clip-path="url(#clip320)" d="M1307.13 1045.13 Q1303.51 1045.13 1301.69 1048.7 Q1299.88 1052.24 1299.88 1059.37 Q1299.88 1066.47 1301.69 1070.04 Q1303.51 1073.58 1307.13 1073.58 Q1310.76 1073.58 1312.57 1070.04 Q1314.39 1066.47 1314.39 1059.37 Q1314.39 1052.24 1312.57 1048.7 Q1310.76 1045.13 1307.13 1045.13 M1307.13 1041.43 Q1312.94 1041.43 1315.99 1046.03 Q1319.07 1050.62 1319.07 1059.37 Q1319.07 1068.09 1315.99 1072.7 Q1312.94 1077.28 1307.13 1077.28 Q1301.32 1077.28 1298.24 1072.7 Q1295.18 1068.09 1295.18 1059.37 Q1295.18 1050.62 1298.24 1046.03 Q1301.32 1041.43 1307.13 1041.43 Z" fill="#000000" fill-rule="nonzero" fill-opacity="1" /><path clip-path="url(#clip320)" d="M1337.29 1045.13 Q1333.68 1045.13 1331.85 1048.7 Q1330.04 1052.24 1330.04 1059.37 Q1330.04 1066.47 1331.85 1070.04 Q1333.68 1073.58 1337.29 1073.58 Q1340.92 1073.58 1342.73 1070.04 Q1344.56 1066.47 1344.56 1059.37 Q1344.56 1052.24 1342.73 1048.7 Q1340.92 1045.13 1337.29 1045.13 M1337.29 1041.43 Q1343.1 1041.43 1346.15 1046.03 Q1349.23 1050.62 1349.23 1059.37 Q1349.23 1068.09 1346.15 1072.7 Q1343.1 1077.28 1337.29 1077.28 Q1331.48 1077.28 1328.4 1072.7 Q1325.34 1068.09 1325.34 1059.37 Q1325.34 1050.62 1328.4 1046.03 Q1331.48 1041.43 1337.29 1041.43 Z" fill="#000000" fill-rule="nonzero" fill-opacity="1" /><path clip-path="url(#clip320)" d="M1367.45 1045.13 Q1363.84 1045.13 1362.01 1048.7 Q1360.2 1052.24 1360.2 1059.37 Q1360.2 1066.47 1362.01 1070.04 Q1363.84 1073.58 1367.45 1073.58 Q1371.08 1073.58 1372.89 1070.04 Q1374.72 1066.47 1374.72 1059.37 Q1374.72 1052.24 1372.89 1048.7 Q1371.08 1045.13 1367.45 1045.13 M1367.45 1041.43 Q1373.26 1041.43 1376.32 1046.03 Q1379.39 1050.62 1379.39 1059.37 Q1379.39 1068.09 1376.32 1072.7 Q1373.26 1077.28 1367.45 1077.28 Q1361.64 1077.28 1358.56 1072.7 Q1355.51 1068.09 1355.51 1059.37 Q1355.51 1050.62 1358.56 1046.03 Q1361.64 1041.43 1367.45 1041.43 Z" fill="#000000" fill-rule="nonzero" fill-opacity="1" /><path clip-path="url(#clip320)" d="M1253.7 845.403 L1261.34 845.403 L1261.34 819.037 L1253.03 820.704 L1253.03 816.444 L1261.29 814.778 L1265.97 814.778 L1265.97 845.403 L1273.61 845.403 L1273.61 849.338 L1253.7 849.338 L1253.7 845.403 Z" fill="#000000" fill-rule="nonzero" fill-opacity="1" /><path clip-path="url(#clip320)" d="M1283.05 843.458 L1287.94 843.458 L1287.94 849.338 L1283.05 849.338 L1283.05 843.458 Z" fill="#000000" fill-rule="nonzero" fill-opacity="1" /><path clip-path="url(#clip320)" d="M1308.12 817.856 Q1304.51 817.856 1302.68 821.421 Q1300.88 824.963 1300.88 832.092 Q1300.88 839.199 1302.68 842.764 Q1304.51 846.305 1308.12 846.305 Q1311.76 846.305 1313.56 842.764 Q1315.39 839.199 1315.39 832.092 Q1315.39 824.963 1313.56 821.421 Q1311.76 817.856 1308.12 817.856 M1308.12 814.153 Q1313.93 814.153 1316.99 818.759 Q1320.07 823.343 1320.07 832.092 Q1320.07 840.819 1316.99 845.426 Q1313.93 850.009 1308.12 850.009 Q1302.31 850.009 1299.23 845.426 Q1296.18 840.819 1296.18 832.092 Q1296.18 823.343 1299.23 818.759 Q1302.31 814.153 1308.12 814.153 Z" fill="#000000" fill-rule="nonzero" fill-opacity="1" /><path clip-path="url(#clip320)" d="M1332.31 845.403 L1348.63 845.403 L1348.63 849.338 L1326.69 849.338 L1326.69 845.403 Q1329.35 842.648 1333.93 838.018 Q1338.54 833.366 1339.72 832.023 Q1341.96 829.5 1342.84 827.764 Q1343.75 826.005 1343.75 824.315 Q1343.75 821.56 1341.8 819.824 Q1339.88 818.088 1336.78 818.088 Q1334.58 818.088 1332.13 818.852 Q1329.7 819.616 1326.92 821.167 L1326.92 816.444 Q1329.74 815.31 1332.2 814.731 Q1334.65 814.153 1336.69 814.153 Q1342.06 814.153 1345.25 816.838 Q1348.45 819.523 1348.45 824.014 Q1348.45 826.143 1347.64 828.065 Q1346.85 829.963 1344.74 832.555 Q1344.16 833.227 1341.06 836.444 Q1337.96 839.639 1332.31 845.403 Z" fill="#000000" fill-rule="nonzero" fill-opacity="1" /><path clip-path="url(#clip320)" d="M1358.49 814.778 L1376.85 814.778 L1376.85 818.713 L1362.77 818.713 L1362.77 827.185 Q1363.79 826.838 1364.81 826.676 Q1365.83 826.491 1366.85 826.491 Q1372.63 826.491 1376.01 829.662 Q1379.39 832.833 1379.39 838.25 Q1379.39 843.829 1375.92 846.93 Q1372.45 850.009 1366.13 850.009 Q1363.95 850.009 1361.69 849.639 Q1359.44 849.268 1357.03 848.528 L1357.03 843.829 Q1359.12 844.963 1361.34 845.518 Q1363.56 846.074 1366.04 846.074 Q1370.04 846.074 1372.38 843.967 Q1374.72 841.861 1374.72 838.25 Q1374.72 834.639 1372.38 832.532 Q1370.04 830.426 1366.04 830.426 Q1364.16 830.426 1362.29 830.842 Q1360.44 831.259 1358.49 832.139 L1358.49 814.778 Z" fill="#000000" fill-rule="nonzero" fill-opacity="1" /><path clip-path="url(#clip320)" d="M1252.71 618.129 L1260.34 618.129 L1260.34 591.763 L1252.03 593.43 L1252.03 589.171 L1260.3 587.504 L1264.97 587.504 L1264.97 618.129 L1272.61 618.129 L1272.61 622.064 L1252.71 622.064 L1252.71 618.129 Z" fill="#000000" fill-rule="nonzero" fill-opacity="1" /><path clip-path="url(#clip320)" d="M1282.06 616.184 L1286.94 616.184 L1286.94 622.064 L1282.06 622.064 L1282.06 616.184 Z" fill="#000000" fill-rule="nonzero" fill-opacity="1" /><path clip-path="url(#clip320)" d="M1307.13 590.583 Q1303.51 590.583 1301.69 594.147 Q1299.88 597.689 1299.88 604.819 Q1299.88 611.925 1301.69 615.49 Q1303.51 619.032 1307.13 619.032 Q1310.76 619.032 1312.57 615.49 Q1314.39 611.925 1314.39 604.819 Q1314.39 597.689 1312.57 594.147 Q1310.76 590.583 1307.13 590.583 M1307.13 586.879 Q1312.94 586.879 1315.99 591.485 Q1319.07 596.069 1319.07 604.819 Q1319.07 613.545 1315.99 618.152 Q1312.94 622.735 1307.13 622.735 Q1301.32 622.735 1298.24 618.152 Q1295.18 613.545 1295.18 604.819 Q1295.18 596.069 1298.24 591.485 Q1301.32 586.879 1307.13 586.879 Z" fill="#000000" fill-rule="nonzero" fill-opacity="1" /><path clip-path="url(#clip320)" d="M1327.33 587.504 L1345.69 587.504 L1345.69 591.439 L1331.62 591.439 L1331.62 599.911 Q1332.64 599.564 1333.65 599.402 Q1334.67 599.217 1335.69 599.217 Q1341.48 599.217 1344.86 602.388 Q1348.24 605.559 1348.24 610.976 Q1348.24 616.555 1344.76 619.657 Q1341.29 622.735 1334.97 622.735 Q1332.8 622.735 1330.53 622.365 Q1328.28 621.994 1325.88 621.254 L1325.88 616.555 Q1327.96 617.689 1330.18 618.244 Q1332.4 618.8 1334.88 618.8 Q1338.89 618.8 1341.22 616.694 Q1343.56 614.587 1343.56 610.976 Q1343.56 607.365 1341.22 605.258 Q1338.89 603.152 1334.88 603.152 Q1333.01 603.152 1331.13 603.569 Q1329.28 603.985 1327.33 604.865 L1327.33 587.504 Z" fill="#000000" fill-rule="nonzero" fill-opacity="1" /><path clip-path="url(#clip320)" d="M1367.45 590.583 Q1363.84 590.583 1362.01 594.147 Q1360.2 597.689 1360.2 604.819 Q1360.2 611.925 1362.01 615.49 Q1363.84 619.032 1367.45 619.032 Q1371.08 619.032 1372.89 615.49 Q1374.72 611.925 1374.72 604.819 Q1374.72 597.689 1372.89 594.147 Q1371.08 590.583 1367.45 590.583 M1367.45 586.879 Q1373.26 586.879 1376.32 591.485 Q1379.39 596.069 1379.39 604.819 Q1379.39 613.545 1376.32 618.152 Q1373.26 622.735 1367.45 622.735 Q1361.64 622.735 1358.56 618.152 Q1355.51 613.545 1355.51 604.819 Q1355.51 596.069 1358.56 591.485 Q1361.64 586.879 1367.45 586.879 Z" fill="#000000" fill-rule="nonzero" fill-opacity="1" /><path clip-path="url(#clip320)" d="M1253.7 390.855 L1261.34 390.855 L1261.34 364.489 L1253.03 366.156 L1253.03 361.897 L1261.29 360.23 L1265.97 360.23 L1265.97 390.855 L1273.61 390.855 L1273.61 394.79 L1253.7 394.79 L1253.7 390.855 Z" fill="#000000" fill-rule="nonzero" fill-opacity="1" /><path clip-path="url(#clip320)" d="M1283.05 388.91 L1287.94 388.91 L1287.94 394.79 L1283.05 394.79 L1283.05 388.91 Z" fill="#000000" fill-rule="nonzero" fill-opacity="1" /><path clip-path="url(#clip320)" d="M1308.12 363.309 Q1304.51 363.309 1302.68 366.874 Q1300.88 370.415 1300.88 377.545 Q1300.88 384.651 1302.68 388.216 Q1304.51 391.758 1308.12 391.758 Q1311.76 391.758 1313.56 388.216 Q1315.39 384.651 1315.39 377.545 Q1315.39 370.415 1313.56 366.874 Q1311.76 363.309 1308.12 363.309 M1308.12 359.605 Q1313.93 359.605 1316.99 364.212 Q1320.07 368.795 1320.07 377.545 Q1320.07 386.272 1316.99 390.878 Q1313.93 395.461 1308.12 395.461 Q1302.31 395.461 1299.23 390.878 Q1296.18 386.272 1296.18 377.545 Q1296.18 368.795 1299.23 364.212 Q1302.31 359.605 1308.12 359.605 Z" fill="#000000" fill-rule="nonzero" fill-opacity="1" /><path clip-path="url(#clip320)" d="M1327.1 360.23 L1349.32 360.23 L1349.32 362.221 L1336.78 394.79 L1331.89 394.79 L1343.7 364.165 L1327.1 364.165 L1327.1 360.23 Z" fill="#000000" fill-rule="nonzero" fill-opacity="1" /><path clip-path="url(#clip320)" d="M1358.49 360.23 L1376.85 360.23 L1376.85 364.165 L1362.77 364.165 L1362.77 372.637 Q1363.79 372.29 1364.81 372.128 Q1365.83 371.943 1366.85 371.943 Q1372.63 371.943 1376.01 375.114 Q1379.39 378.286 1379.39 383.702 Q1379.39 389.281 1375.92 392.383 Q1372.45 395.461 1366.13 395.461 Q1363.95 395.461 1361.69 395.091 Q1359.44 394.721 1357.03 393.98 L1357.03 389.281 Q1359.12 390.415 1361.34 390.971 Q1363.56 391.526 1366.04 391.526 Q1370.04 391.526 1372.38 389.42 Q1374.72 387.313 1374.72 383.702 Q1374.72 380.091 1372.38 377.985 Q1370.04 375.878 1366.04 375.878 Q1364.16 375.878 1362.29 376.295 Q1360.44 376.711 1358.49 377.591 L1358.49 360.23 Z" fill="#000000" fill-rule="nonzero" fill-opacity="1" /><path clip-path="url(#clip320)" d="M1252.71 163.581 L1260.34 163.581 L1260.34 137.215 L1252.03 138.882 L1252.03 134.623 L1260.3 132.956 L1264.97 132.956 L1264.97 163.581 L1272.61 163.581 L1272.61 167.516 L1252.71 167.516 L1252.71 163.581 Z" fill="#000000" fill-rule="nonzero" fill-opacity="1" /><path clip-path="url(#clip320)" d="M1282.06 161.637 L1286.94 161.637 L1286.94 167.516 L1282.06 167.516 L1282.06 161.637 Z" fill="#000000" fill-rule="nonzero" fill-opacity="1" /><path clip-path="url(#clip320)" d="M1297.94 163.581 L1305.58 163.581 L1305.58 137.215 L1297.27 138.882 L1297.27 134.623 L1305.53 132.956 L1310.2 132.956 L1310.2 163.581 L1317.84 163.581 L1317.84 167.516 L1297.94 167.516 L1297.94 163.581 Z" fill="#000000" fill-rule="nonzero" fill-opacity="1" /><path clip-path="url(#clip320)" d="M1337.29 136.035 Q1333.68 136.035 1331.85 139.6 Q1330.04 143.141 1330.04 150.271 Q1330.04 157.377 1331.85 160.942 Q1333.68 164.484 1337.29 164.484 Q1340.92 164.484 1342.73 160.942 Q1344.56 157.377 1344.56 150.271 Q1344.56 143.141 1342.73 139.6 Q1340.92 136.035 1337.29 136.035 M1337.29 132.331 Q1343.1 132.331 1346.15 136.938 Q1349.23 141.521 1349.23 150.271 Q1349.23 158.998 1346.15 163.604 Q1343.1 168.187 1337.29 168.187 Q1331.48 168.187 1328.4 163.604 Q1325.34 158.998 1325.34 150.271 Q1325.34 141.521 1328.4 136.938 Q1331.48 132.331 1337.29 132.331 Z" fill="#000000" fill-rule="nonzero" fill-opacity="1" /><path clip-path="url(#clip320)" d="M1367.45 136.035 Q1363.84 136.035 1362.01 139.6 Q1360.2 143.141 1360.2 150.271 Q1360.2 157.377 1362.01 160.942 Q1363.84 164.484 1367.45 164.484 Q1371.08 164.484 1372.89 160.942 Q1374.72 157.377 1374.72 150.271 Q1374.72 143.141 1372.89 139.6 Q1371.08 136.035 1367.45 136.035 M1367.45 132.331 Q1373.26 132.331 1376.32 136.938 Q1379.39 141.521 1379.39 150.271 Q1379.39 158.998 1376.32 163.604 Q1373.26 168.187 1367.45 168.187 Q1361.64 168.187 1358.56 163.604 Q1355.51 158.998 1355.51 150.271 Q1355.51 141.521 1358.56 136.938 Q1361.64 132.331 1367.45 132.331 Z" fill="#000000" fill-rule="nonzero" fill-opacity="1" /><path clip-path="url(#clip320)" d="M1743.36 31.7342 Q1743.36 26.5259 1741.2 23.6613 Q1739.06 20.7968 1735.18 20.7968 Q1731.33 20.7968 1729.17 23.6613 Q1727.03 26.5259 1727.03 31.7342 Q1727.03 36.9165 1729.17 39.781 Q1731.33 42.6456 1735.18 42.6456 Q1739.06 42.6456 1741.2 39.781 Q1743.36 36.9165 1743.36 31.7342 M1748.15 43.0362 Q1748.15 50.4841 1744.84 54.1039 Q1741.54 57.7497 1734.71 57.7497 Q1732.19 57.7497 1729.95 57.3591 Q1727.71 56.9945 1725.6 56.2132 L1725.6 51.5518 Q1727.71 52.6976 1729.77 53.2445 Q1731.82 53.7914 1733.96 53.7914 Q1738.67 53.7914 1741.02 51.3174 Q1743.36 48.8695 1743.36 43.8956 L1743.36 41.5258 Q1741.88 44.1039 1739.56 45.38 Q1737.24 46.656 1734.01 46.656 Q1728.65 46.656 1725.36 42.5675 Q1722.08 38.479 1722.08 31.7342 Q1722.08 24.9634 1725.36 20.8749 Q1728.65 16.7864 1734.01 16.7864 Q1737.24 16.7864 1739.56 18.0624 Q1741.88 19.3384 1743.36 21.9165 L1743.36 17.4895 L1748.15 17.4895 L1748.15 43.0362 Z" fill="#000000" fill-rule="nonzero" fill-opacity="1" /><path clip-path="url(#clip320)" d="M1777.21 21.9165 L1777.21 6.13538 L1782.01 6.13538 L1782.01 46.656 L1777.21 46.656 L1777.21 42.281 Q1775.7 44.8852 1773.39 46.1612 Q1771.09 47.4112 1767.86 47.4112 Q1762.58 47.4112 1759.25 43.1925 Q1755.94 38.9737 1755.94 32.0988 Q1755.94 25.2238 1759.25 21.0051 Q1762.58 16.7864 1767.86 16.7864 Q1771.09 16.7864 1773.39 18.0624 Q1775.7 19.3124 1777.21 21.9165 M1760.89 32.0988 Q1760.89 37.3852 1763.05 40.406 Q1765.23 43.4008 1769.04 43.4008 Q1772.84 43.4008 1775.03 40.406 Q1777.21 37.3852 1777.21 32.0988 Q1777.21 26.8124 1775.03 23.8176 Q1772.84 20.7968 1769.04 20.7968 Q1765.23 20.7968 1763.05 23.8176 Q1760.89 26.8124 1760.89 32.0988 Z" fill="#000000" fill-rule="nonzero" fill-opacity="1" /><path clip-path="url(#clip320)" d="M1796.51 42.281 L1796.51 57.7497 L1791.69 57.7497 L1791.69 17.4895 L1796.51 17.4895 L1796.51 21.9165 Q1798.02 19.3124 1800.31 18.0624 Q1802.63 16.7864 1805.83 16.7864 Q1811.15 16.7864 1814.45 21.0051 Q1817.79 25.2238 1817.79 32.0988 Q1817.79 38.9737 1814.45 43.1925 Q1811.15 47.4112 1805.83 47.4112 Q1802.63 47.4112 1800.31 46.1612 Q1798.02 44.8852 1796.51 42.281 M1812.81 32.0988 Q1812.81 26.8124 1810.62 23.8176 Q1808.46 20.7968 1804.66 20.7968 Q1800.86 20.7968 1798.67 23.8176 Q1796.51 26.8124 1796.51 32.0988 Q1796.51 37.3852 1798.67 40.406 Q1800.86 43.4008 1804.66 43.4008 Q1808.46 43.4008 1810.62 40.406 Q1812.81 37.3852 1812.81 32.0988 Z" fill="#000000" fill-rule="nonzero" fill-opacity="1" /><path clip-path="url(#clip320)" d="M1861.87 21.9165 L1861.87 6.13538 L1866.67 6.13538 L1866.67 46.656 L1861.87 46.656 L1861.87 42.281 Q1860.36 44.8852 1858.05 46.1612 Q1855.75 47.4112 1852.53 47.4112 Q1847.24 47.4112 1843.91 43.1925 Q1840.6 38.9737 1840.6 32.0988 Q1840.6 25.2238 1843.91 21.0051 Q1847.24 16.7864 1852.53 16.7864 Q1855.75 16.7864 1858.05 18.0624 Q1860.36 19.3124 1861.87 21.9165 M1845.55 32.0988 Q1845.55 37.3852 1847.71 40.406 Q1849.9 43.4008 1853.7 43.4008 Q1857.5 43.4008 1859.69 40.406 Q1861.87 37.3852 1861.87 32.0988 Q1861.87 26.8124 1859.69 23.8176 Q1857.5 20.7968 1853.7 20.7968 Q1849.9 20.7968 1847.71 23.8176 Q1845.55 26.8124 1845.55 32.0988 Z" fill="#000000" fill-rule="nonzero" fill-opacity="1" /><path clip-path="url(#clip320)" d="M1901.48 30.8748 L1901.48 33.2186 L1879.45 33.2186 Q1879.77 38.1665 1882.42 40.7706 Q1885.1 43.3487 1889.87 43.3487 Q1892.63 43.3487 1895.21 42.6716 Q1897.81 41.9946 1900.36 40.6404 L1900.36 45.1716 Q1897.79 46.2654 1895.08 46.8383 Q1892.37 47.4112 1889.58 47.4112 Q1882.6 47.4112 1878.52 43.3487 Q1874.45 39.2862 1874.45 32.3592 Q1874.45 25.1978 1878.31 21.0051 Q1882.19 16.7864 1888.75 16.7864 Q1894.63 16.7864 1898.05 20.5884 Q1901.48 24.3645 1901.48 30.8748 M1896.69 29.4686 Q1896.64 25.5363 1894.48 23.1926 Q1892.34 20.8488 1888.8 20.8488 Q1884.79 20.8488 1882.37 23.1145 Q1879.97 25.3801 1879.61 29.4946 L1896.69 29.4686 Z" fill="#000000" fill-rule="nonzero" fill-opacity="1" /><path clip-path="url(#clip320)" d="M1924.11 6.13538 L1924.11 10.1197 L1919.53 10.1197 Q1916.95 10.1197 1915.94 11.1614 Q1914.95 12.2031 1914.95 14.9114 L1914.95 17.4895 L1922.84 17.4895 L1922.84 21.2134 L1914.95 21.2134 L1914.95 46.656 L1910.13 46.656 L1910.13 21.2134 L1905.55 21.2134 L1905.55 17.4895 L1910.13 17.4895 L1910.13 15.4583 Q1910.13 10.5885 1912.4 8.37496 Q1914.66 6.13538 1919.58 6.13538 L1924.11 6.13538 Z" fill="#000000" fill-rule="nonzero" fill-opacity="1" /><path clip-path="url(#clip320)" d="M1928.12 6.13538 L1932.92 6.13538 L1932.92 46.656 L1928.12 46.656 L1928.12 6.13538 Z" fill="#000000" fill-rule="nonzero" fill-opacity="1" /><path clip-path="url(#clip320)" d="M1956.2 31.9946 Q1950.39 31.9946 1948.15 33.3227 Q1945.91 34.6509 1945.91 37.854 Q1945.91 40.406 1947.58 41.9164 Q1949.27 43.4008 1952.16 43.4008 Q1956.14 43.4008 1958.54 40.5883 Q1960.96 37.7498 1960.96 33.0623 L1960.96 31.9946 L1956.2 31.9946 M1965.75 30.0155 L1965.75 46.656 L1960.96 46.656 L1960.96 42.2289 Q1959.32 44.8852 1956.87 46.1612 Q1954.43 47.4112 1950.88 47.4112 Q1946.41 47.4112 1943.75 44.9112 Q1941.12 42.3852 1941.12 38.1665 Q1941.12 33.2446 1944.4 30.7446 Q1947.71 28.2446 1954.24 28.2446 L1960.96 28.2446 L1960.96 27.7759 Q1960.96 24.4686 1958.78 22.6718 Q1956.61 20.8488 1952.68 20.8488 Q1950.18 20.8488 1947.81 21.4478 Q1945.44 22.0468 1943.25 23.2447 L1943.25 18.8176 Q1945.88 17.802 1948.36 17.3072 Q1950.83 16.7864 1953.18 16.7864 Q1959.5 16.7864 1962.63 20.0676 Q1965.75 23.3488 1965.75 30.0155 Z" fill="#000000" fill-rule="nonzero" fill-opacity="1" /><path clip-path="url(#clip320)" d="M1980.36 9.20828 L1980.36 17.4895 L1990.23 17.4895 L1990.23 21.2134 L1980.36 21.2134 L1980.36 37.0467 Q1980.36 40.6144 1981.33 41.63 Q1982.32 42.6456 1985.31 42.6456 L1990.23 42.6456 L1990.23 46.656 L1985.31 46.656 Q1979.76 46.656 1977.66 44.5987 Q1975.55 42.5154 1975.55 37.0467 L1975.55 21.2134 L1972.03 21.2134 L1972.03 17.4895 L1975.55 17.4895 L1975.55 9.20828 L1980.36 9.20828 Z" fill="#000000" fill-rule="nonzero" fill-opacity="1" /><path clip-path="url(#clip320)" d="M2007.84 20.8488 Q2003.98 20.8488 2001.74 23.8697 Q1999.5 26.8644 1999.5 32.0988 Q1999.5 37.3331 2001.72 40.354 Q2003.96 43.3487 2007.84 43.3487 Q2011.67 43.3487 2013.91 40.3279 Q2016.14 37.3071 2016.14 32.0988 Q2016.14 26.9165 2013.91 23.8957 Q2011.67 20.8488 2007.84 20.8488 M2007.84 16.7864 Q2014.09 16.7864 2017.66 20.8488 Q2021.22 24.9113 2021.22 32.0988 Q2021.22 39.2602 2017.66 43.3487 Q2014.09 47.4112 2007.84 47.4112 Q2001.56 47.4112 1997.99 43.3487 Q1994.45 39.2602 1994.45 32.0988 Q1994.45 24.9113 1997.99 20.8488 Q2001.56 16.7864 2007.84 16.7864 Z" fill="#000000" fill-rule="nonzero" fill-opacity="1" /><path clip-path="url(#clip320)" d="M2046.07 21.9686 Q2045.26 21.4999 2044.3 21.2916 Q2043.36 21.0572 2042.21 21.0572 Q2038.15 21.0572 2035.96 23.7134 Q2033.8 26.3436 2033.8 31.2915 L2033.8 46.656 L2028.98 46.656 L2028.98 17.4895 L2033.8 17.4895 L2033.8 22.0207 Q2035.31 19.3645 2037.73 18.0884 Q2040.15 16.7864 2043.62 16.7864 Q2044.11 16.7864 2044.71 16.8645 Q2045.31 16.9166 2046.04 17.0468 L2046.07 21.9686 Z" fill="#000000" fill-rule="nonzero" fill-opacity="1" /><path clip-path="url(#clip323)" d="M1526.14 1056.29 L1568.25 1058.79 L1610.36 1034.89 L1652.47 997.135 L1694.58 1016.75 L1736.69 1005.05 L1778.8 973.468 L1820.91 1003.96 L1863.02 966.074 L1905.13 966.07 L1947.24 913.417 L1989.35 941.578 L2031.46 908.034 L2073.57 919.854 L2115.68 900.783 L2157.79 859.004 L2199.9 804.407 L2242.01 749.34 L2284.12 742.679 L2326.23 705.744 L2326.23 120.65 L2284.12 186.653 L2242.01 210.28 L2199.9 224.545 L2157.79 251.349 L2115.68 378.56 L2073.57 451.801 L2031.46 484.126 L1989.35 546.2 L1947.24 566.276 L1905.13 601.658 L1863.02 746.067 L1820.91 795.504 L1778.8 879.503 L1736.69 915.99 L1694.58 909.601 L1652.47 920.05 L1610.36 905.895 L1568.25 892.614 L1526.14 940.626  Z" fill="#009af9" fill-rule="evenodd" fill-opacity="0.1"/>
<polyline clip-path="url(#clip323)" style="stroke:#009af9; stroke-linecap:round; stroke-linejoin:round; stroke-width:4; stroke-opacity:1; fill:none" points="1526.14,998.459 1568.25,975.704 1610.36,970.392 1652.47,958.593 1694.58,963.177 1736.69,960.518 1778.8,926.485 1820.91,899.731 1863.02,856.071 1905.13,783.864 1947.24,739.846 1989.35,743.889 2031.46,696.08 2073.57,685.828 2115.68,639.671 2157.79,555.176 2199.9,514.476 2242.01,479.81 2284.12,464.666 2326.23,413.197 "/>
<path clip-path="url(#clip323)" d="M1526.14 1070.59 L1568.25 1035.76 L1610.36 1034.42 L1652.47 1033.79 L1694.58 1036.07 L1736.69 963.286 L1778.8 924.818 L1820.91 890.312 L1863.02 851.876 L1905.13 813.094 L1947.24 763.108 L1989.35 702.626 L2031.46 714.998 L2073.57 665.261 L2115.68 610.499 L2157.79 573.783 L2199.9 542.929 L2242.01 503.776 L2284.12 417.625 L2326.23 351.592 L2326.23 140.315 L2284.12 188.994 L2242.01 251.481 L2199.9 262.725 L2157.79 304.029 L2115.68 346.59 L2073.57 325.713 L2031.46 357.908 L1989.35 418.135 L1947.24 467.562 L1905.13 504.072 L1863.02 570.37 L1820.91 635.563 L1778.8 699.387 L1736.69 742.902 L1694.58 799.591 L1652.47 800.692 L1610.36 853.081 L1568.25 945.011 L1526.14 990.455  Z" fill="#e26f46" fill-rule="evenodd" fill-opacity="0.1"/>
<polyline clip-path="url(#clip323)" style="stroke:#e26f46; stroke-linecap:round; stroke-linejoin:round; stroke-width:4; stroke-opacity:1; fill:none" points="1526.14,1030.52 1568.25,990.387 1610.36,943.752 1652.47,917.241 1694.58,917.83 1736.69,853.094 1778.8,812.103 1820.91,762.938 1863.02,711.123 1905.13,658.583 1947.24,615.335 1989.35,560.381 2031.46,536.453 2073.57,495.487 2115.68,478.544 2157.79,438.906 2199.9,402.827 2242.01,377.629 2284.12,303.309 2326.23,245.953 "/>
</svg>
