<?xml version="1.0" encoding="utf-8"?>
<svg xmlns="http://www.w3.org/2000/svg" xmlns:xlink="http://www.w3.org/1999/xlink" width="600" height="400" viewBox="0 0 2400 1600">
<defs>
  <clipPath id="clip160">
    <rect x="0" y="0" width="2400" height="1600"/>
  </clipPath>
</defs>
<path clip-path="url(#clip160)" d="M0 1600 L2400 1600 L2400 0 L0 0  Z" fill="#ffffff" fill-rule="evenodd" fill-opacity="1"/>
<defs>
  <clipPath id="clip161">
    <rect x="480" y="0" width="1681" height="1600"/>
  </clipPath>
</defs>
<path clip-path="url(#clip160)" d="M294.033 1423.18 L2352.76 1423.18 L2352.76 47.2441 L294.033 47.2441  Z" fill="#ffffff" fill-rule="evenodd" fill-opacity="1"/>
<defs>
  <clipPath id="clip162">
    <rect x="294" y="47" width="2060" height="1377"/>
  </clipPath>
</defs>
<polyline clip-path="url(#clip162)" style="stroke:#000000; stroke-linecap:round; stroke-linejoin:round; stroke-width:2; stroke-opacity:0.1; fill:none" points="740.737,1423.18 740.737,47.2441 "/>
<polyline clip-path="url(#clip162)" style="stroke:#000000; stroke-linecap:round; stroke-linejoin:round; stroke-width:2; stroke-opacity:0.1; fill:none" points="1226.28,1423.18 1226.28,47.2441 "/>
<polyline clip-path="url(#clip162)" style="stroke:#000000; stroke-linecap:round; stroke-linejoin:round; stroke-width:2; stroke-opacity:0.1; fill:none" points="1711.83,1423.18 1711.83,47.2441 "/>
<polyline clip-path="url(#clip162)" style="stroke:#000000; stroke-linecap:round; stroke-linejoin:round; stroke-width:2; stroke-opacity:0.1; fill:none" points="2197.38,1423.18 2197.38,47.2441 "/>
<polyline clip-path="url(#clip162)" style="stroke:#000000; stroke-linecap:round; stroke-linejoin:round; stroke-width:2; stroke-opacity:0.1; fill:none" points="294.033,1184.3 2352.76,1184.3 "/>
<polyline clip-path="url(#clip162)" style="stroke:#000000; stroke-linecap:round; stroke-linejoin:round; stroke-width:2; stroke-opacity:0.1; fill:none" points="294.033,902.37 2352.76,902.37 "/>
<polyline clip-path="url(#clip162)" style="stroke:#000000; stroke-linecap:round; stroke-linejoin:round; stroke-width:2; stroke-opacity:0.1; fill:none" points="294.033,620.436 2352.76,620.436 "/>
<polyline clip-path="url(#clip162)" style="stroke:#000000; stroke-linecap:round; stroke-linejoin:round; stroke-width:2; stroke-opacity:0.1; fill:none" points="294.033,338.502 2352.76,338.502 "/>
<polyline clip-path="url(#clip162)" style="stroke:#000000; stroke-linecap:round; stroke-linejoin:round; stroke-width:2; stroke-opacity:0.1; fill:none" points="294.033,56.5671 2352.76,56.5671 "/>
<polyline clip-path="url(#clip160)" style="stroke:#000000; stroke-linecap:round; stroke-linejoin:round; stroke-width:4; stroke-opacity:1; fill:none" points="294.033,1423.18 2352.76,1423.18 "/>
<polyline clip-path="url(#clip160)" style="stroke:#000000; stroke-linecap:round; stroke-linejoin:round; stroke-width:4; stroke-opacity:1; fill:none" points="740.737,1423.18 740.737,1404.28 "/>
<polyline clip-path="url(#clip160)" style="stroke:#000000; stroke-linecap:round; stroke-linejoin:round; stroke-width:4; stroke-opacity:1; fill:none" points="1226.28,1423.18 1226.28,1404.28 "/>
<polyline clip-path="url(#clip160)" style="stroke:#000000; stroke-linecap:round; stroke-linejoin:round; stroke-width:4; stroke-opacity:1; fill:none" points="1711.83,1423.18 1711.83,1404.28 "/>
<polyline clip-path="url(#clip160)" style="stroke:#000000; stroke-linecap:round; stroke-linejoin:round; stroke-width:4; stroke-opacity:1; fill:none" points="2197.38,1423.18 2197.38,1404.28 "/>
<path clip-path="url(#clip160)" d="M731.014 1451.02 L749.371 1451.02 L749.371 1454.96 L735.297 1454.96 L735.297 1463.43 Q736.315 1463.08 737.334 1462.92 Q738.352 1462.73 739.371 1462.73 Q745.158 1462.73 748.538 1465.9 Q751.917 1469.08 751.917 1474.49 Q751.917 1480.07 748.445 1483.17 Q744.973 1486.25 738.653 1486.25 Q736.477 1486.25 734.209 1485.88 Q731.964 1485.51 729.556 1484.77 L729.556 1480.07 Q731.639 1481.2 733.862 1481.76 Q736.084 1482.32 738.561 1482.32 Q742.565 1482.32 744.903 1480.21 Q747.241 1478.1 747.241 1474.49 Q747.241 1470.88 744.903 1468.77 Q742.565 1466.67 738.561 1466.67 Q736.686 1466.67 734.811 1467.08 Q732.959 1467.5 731.014 1468.38 L731.014 1451.02 Z" fill="#000000" fill-rule="nonzero" fill-opacity="1" /><path clip-path="url(#clip160)" d="M1200.97 1481.64 L1208.61 1481.64 L1208.61 1455.28 L1200.3 1456.95 L1200.3 1452.69 L1208.56 1451.02 L1213.24 1451.02 L1213.24 1481.64 L1220.88 1481.64 L1220.88 1485.58 L1200.97 1485.58 L1200.97 1481.64 Z" fill="#000000" fill-rule="nonzero" fill-opacity="1" /><path clip-path="url(#clip160)" d="M1240.32 1454.1 Q1236.71 1454.1 1234.88 1457.66 Q1233.08 1461.2 1233.08 1468.33 Q1233.08 1475.44 1234.88 1479.01 Q1236.71 1482.55 1240.32 1482.55 Q1243.96 1482.55 1245.76 1479.01 Q1247.59 1475.44 1247.59 1468.33 Q1247.59 1461.2 1245.76 1457.66 Q1243.96 1454.1 1240.32 1454.1 M1240.32 1450.39 Q1246.13 1450.39 1249.19 1455 Q1252.27 1459.58 1252.27 1468.33 Q1252.27 1477.06 1249.19 1481.67 Q1246.13 1486.25 1240.32 1486.25 Q1234.51 1486.25 1231.44 1481.67 Q1228.38 1477.06 1228.38 1468.33 Q1228.38 1459.58 1231.44 1455 Q1234.51 1450.39 1240.32 1450.39 Z" fill="#000000" fill-rule="nonzero" fill-opacity="1" /><path clip-path="url(#clip160)" d="M1687.02 1481.64 L1694.66 1481.64 L1694.66 1455.28 L1686.35 1456.95 L1686.35 1452.69 L1694.61 1451.02 L1699.29 1451.02 L1699.29 1481.64 L1706.93 1481.64 L1706.93 1485.58 L1687.02 1485.58 L1687.02 1481.64 Z" fill="#000000" fill-rule="nonzero" fill-opacity="1" /><path clip-path="url(#clip160)" d="M1716.42 1451.02 L1734.77 1451.02 L1734.77 1454.96 L1720.7 1454.96 L1720.7 1463.43 Q1721.72 1463.08 1722.74 1462.92 Q1723.75 1462.73 1724.77 1462.73 Q1730.56 1462.73 1733.94 1465.9 Q1737.32 1469.08 1737.32 1474.49 Q1737.32 1480.07 1733.85 1483.17 Q1730.37 1486.25 1724.05 1486.25 Q1721.88 1486.25 1719.61 1485.88 Q1717.36 1485.51 1714.96 1484.77 L1714.96 1480.07 Q1717.04 1481.2 1719.26 1481.76 Q1721.49 1482.32 1723.96 1482.32 Q1727.97 1482.32 1730.3 1480.21 Q1732.64 1478.1 1732.64 1474.49 Q1732.64 1470.88 1730.3 1468.77 Q1727.97 1466.67 1723.96 1466.67 Q1722.09 1466.67 1720.21 1467.08 Q1718.36 1467.5 1716.42 1468.38 L1716.42 1451.02 Z" fill="#000000" fill-rule="nonzero" fill-opacity="1" /><path clip-path="url(#clip160)" d="M2176.15 1481.64 L2192.47 1481.64 L2192.47 1485.58 L2170.53 1485.58 L2170.53 1481.64 Q2173.19 1478.89 2177.77 1474.26 Q2182.38 1469.61 2183.56 1468.27 Q2185.81 1465.74 2186.69 1464.01 Q2187.59 1462.25 2187.59 1460.56 Q2187.59 1457.8 2185.64 1456.07 Q2183.72 1454.33 2180.62 1454.33 Q2178.42 1454.33 2175.97 1455.09 Q2173.54 1455.86 2170.76 1457.41 L2170.76 1452.69 Q2173.58 1451.55 2176.04 1450.97 Q2178.49 1450.39 2180.53 1450.39 Q2185.9 1450.39 2189.09 1453.08 Q2192.29 1455.77 2192.29 1460.26 Q2192.29 1462.39 2191.48 1464.31 Q2190.69 1466.2 2188.58 1468.8 Q2188.01 1469.47 2184.9 1472.69 Q2181.8 1475.88 2176.15 1481.64 Z" fill="#000000" fill-rule="nonzero" fill-opacity="1" /><path clip-path="url(#clip160)" d="M2212.29 1454.1 Q2208.68 1454.1 2206.85 1457.66 Q2205.04 1461.2 2205.04 1468.33 Q2205.04 1475.44 2206.85 1479.01 Q2208.68 1482.55 2212.29 1482.55 Q2215.92 1482.55 2217.73 1479.01 Q2219.56 1475.44 2219.56 1468.33 Q2219.56 1461.2 2217.73 1457.66 Q2215.92 1454.1 2212.29 1454.1 M2212.29 1450.39 Q2218.1 1450.39 2221.15 1455 Q2224.23 1459.58 2224.23 1468.33 Q2224.23 1477.06 2221.15 1481.67 Q2218.1 1486.25 2212.29 1486.25 Q2206.48 1486.25 2203.4 1481.67 Q2200.34 1477.06 2200.34 1468.33 Q2200.34 1459.58 2203.4 1455 Q2206.48 1450.39 2212.29 1450.39 Z" fill="#000000" fill-rule="nonzero" fill-opacity="1" /><path clip-path="url(#clip160)" d="M1194.9 1550.25 Q1194.9 1556.71 1197.54 1560.4 Q1200.22 1564.07 1204.86 1564.07 Q1209.51 1564.07 1212.19 1560.4 Q1214.86 1556.71 1214.86 1550.25 Q1214.86 1543.79 1212.19 1540.13 Q1209.51 1536.44 1204.86 1536.44 Q1200.22 1536.44 1197.54 1540.13 Q1194.9 1543.79 1194.9 1550.25 M1214.86 1562.7 Q1213.01 1565.88 1210.18 1567.44 Q1207.38 1568.97 1203.43 1568.97 Q1196.97 1568.97 1192.9 1563.81 Q1188.86 1558.65 1188.86 1550.25 Q1188.86 1541.85 1192.9 1536.69 Q1196.97 1531.54 1203.43 1531.54 Q1207.38 1531.54 1210.18 1533.1 Q1213.01 1534.62 1214.86 1537.81 L1214.86 1532.4 L1220.72 1532.4 L1220.72 1581.6 L1214.86 1581.6 L1214.86 1562.7 Z" fill="#000000" fill-rule="nonzero" fill-opacity="1" /><path clip-path="url(#clip160)" d="M1232.17 1553.98 L1232.17 1532.4 L1238.03 1532.4 L1238.03 1553.75 Q1238.03 1558.81 1240 1561.36 Q1241.98 1563.87 1245.92 1563.87 Q1250.67 1563.87 1253.4 1560.85 Q1256.17 1557.83 1256.17 1552.61 L1256.17 1532.4 L1262.03 1532.4 L1262.03 1568.04 L1256.17 1568.04 L1256.17 1562.57 Q1254.04 1565.82 1251.21 1567.41 Q1248.41 1568.97 1244.68 1568.97 Q1238.54 1568.97 1235.36 1565.15 Q1232.17 1561.33 1232.17 1553.98 M1246.91 1531.54 L1246.91 1531.54 Z" fill="#000000" fill-rule="nonzero" fill-opacity="1" /><path clip-path="url(#clip160)" d="M1290.29 1550.12 Q1283.19 1550.12 1280.46 1551.75 Q1277.72 1553.37 1277.72 1557.29 Q1277.72 1560.4 1279.76 1562.25 Q1281.83 1564.07 1285.36 1564.07 Q1290.23 1564.07 1293.16 1560.63 Q1296.12 1557.16 1296.12 1551.43 L1296.12 1550.12 L1290.29 1550.12 M1301.97 1547.71 L1301.97 1568.04 L1296.12 1568.04 L1296.12 1562.63 Q1294.11 1565.88 1291.12 1567.44 Q1288.13 1568.97 1283.8 1568.97 Q1278.33 1568.97 1275.08 1565.91 Q1271.86 1562.82 1271.86 1557.67 Q1271.86 1551.65 1275.87 1548.6 Q1279.92 1545.54 1287.91 1545.54 L1296.12 1545.54 L1296.12 1544.97 Q1296.12 1540.93 1293.44 1538.73 Q1290.8 1536.5 1286 1536.5 Q1282.94 1536.5 1280.04 1537.23 Q1277.15 1537.97 1274.47 1539.43 L1274.47 1534.02 Q1277.69 1532.78 1280.71 1532.17 Q1283.74 1531.54 1286.6 1531.54 Q1294.33 1531.54 1298.15 1535.55 Q1301.97 1539.56 1301.97 1547.71 Z" fill="#000000" fill-rule="nonzero" fill-opacity="1" /><path clip-path="url(#clip160)" d="M1334.69 1537.87 Q1333.71 1537.3 1332.53 1537.04 Q1331.38 1536.76 1329.98 1536.76 Q1325.02 1536.76 1322.34 1540 Q1319.7 1543.22 1319.7 1549.27 L1319.7 1568.04 L1313.81 1568.04 L1313.81 1532.4 L1319.7 1532.4 L1319.7 1537.93 Q1321.55 1534.69 1324.51 1533.13 Q1327.47 1531.54 1331.7 1531.54 Q1332.31 1531.54 1333.04 1531.63 Q1333.77 1531.7 1334.66 1531.85 L1334.69 1537.87 Z" fill="#000000" fill-rule="nonzero" fill-opacity="1" /><path clip-path="url(#clip160)" d="M1346.63 1522.27 L1346.63 1532.4 L1358.69 1532.4 L1358.69 1536.95 L1346.63 1536.95 L1346.63 1556.3 Q1346.63 1560.66 1347.81 1561.9 Q1349.02 1563.14 1352.68 1563.14 L1358.69 1563.14 L1358.69 1568.04 L1352.68 1568.04 Q1345.9 1568.04 1343.32 1565.53 Q1340.74 1562.98 1340.74 1556.3 L1340.74 1536.95 L1336.44 1536.95 L1336.44 1532.4 L1340.74 1532.4 L1340.74 1522.27 L1346.63 1522.27 Z" fill="#000000" fill-rule="nonzero" fill-opacity="1" /><path clip-path="url(#clip160)" d="M1396.89 1548.76 L1396.89 1551.62 L1369.96 1551.62 Q1370.34 1557.67 1373.59 1560.85 Q1376.87 1564 1382.69 1564 Q1386.06 1564 1389.22 1563.17 Q1392.4 1562.35 1395.52 1560.69 L1395.52 1566.23 Q1392.37 1567.57 1389.06 1568.27 Q1385.75 1568.97 1382.34 1568.97 Q1373.81 1568.97 1368.81 1564 Q1363.85 1559.04 1363.85 1550.57 Q1363.85 1541.82 1368.56 1536.69 Q1373.3 1531.54 1381.32 1531.54 Q1388.52 1531.54 1392.68 1536.18 Q1396.89 1540.8 1396.89 1548.76 M1391.03 1547.04 Q1390.97 1542.23 1388.32 1539.37 Q1385.71 1536.5 1381.39 1536.5 Q1376.48 1536.5 1373.52 1539.27 Q1370.6 1542.04 1370.15 1547.07 L1391.03 1547.04 Z" fill="#000000" fill-rule="nonzero" fill-opacity="1" /><path clip-path="url(#clip160)" d="M1427.16 1537.87 Q1426.17 1537.3 1424.99 1537.04 Q1423.85 1536.76 1422.44 1536.76 Q1417.48 1536.76 1414.81 1540 Q1412.16 1543.22 1412.16 1549.27 L1412.16 1568.04 L1406.28 1568.04 L1406.28 1532.4 L1412.16 1532.4 L1412.16 1537.93 Q1414.01 1534.69 1416.97 1533.13 Q1419.93 1531.54 1424.16 1531.54 Q1424.77 1531.54 1425.5 1531.63 Q1426.23 1531.7 1427.12 1531.85 L1427.16 1537.87 Z" fill="#000000" fill-rule="nonzero" fill-opacity="1" /><path clip-path="url(#clip160)" d="M1456.02 1533.45 L1456.02 1538.98 Q1453.54 1537.71 1450.87 1537.07 Q1448.19 1536.44 1445.33 1536.44 Q1440.97 1536.44 1438.77 1537.77 Q1436.61 1539.11 1436.61 1541.79 Q1436.61 1543.82 1438.17 1545 Q1439.73 1546.15 1444.44 1547.2 L1446.44 1547.64 Q1452.68 1548.98 1455.29 1551.43 Q1457.93 1553.85 1457.93 1558.21 Q1457.93 1563.17 1453.99 1566.07 Q1450.07 1568.97 1443.2 1568.97 Q1440.33 1568.97 1437.21 1568.39 Q1434.13 1567.85 1430.69 1566.74 L1430.69 1560.69 Q1433.93 1562.38 1437.09 1563.24 Q1440.24 1564.07 1443.32 1564.07 Q1447.46 1564.07 1449.69 1562.66 Q1451.92 1561.23 1451.92 1558.65 Q1451.92 1556.27 1450.29 1554.99 Q1448.7 1553.72 1443.26 1552.54 L1441.22 1552.07 Q1435.78 1550.92 1433.36 1548.56 Q1430.94 1546.18 1430.94 1542.04 Q1430.94 1537.01 1434.51 1534.27 Q1438.07 1531.54 1444.63 1531.54 Q1447.88 1531.54 1450.74 1532.01 Q1453.6 1532.49 1456.02 1533.45 Z" fill="#000000" fill-rule="nonzero" fill-opacity="1" /><polyline clip-path="url(#clip160)" style="stroke:#000000; stroke-linecap:round; stroke-linejoin:round; stroke-width:4; stroke-opacity:1; fill:none" points="294.033,1423.18 294.033,47.2441 "/>
<polyline clip-path="url(#clip160)" style="stroke:#000000; stroke-linecap:round; stroke-linejoin:round; stroke-width:4; stroke-opacity:1; fill:none" points="294.033,1184.3 312.93,1184.3 "/>
<polyline clip-path="url(#clip160)" style="stroke:#000000; stroke-linecap:round; stroke-linejoin:round; stroke-width:4; stroke-opacity:1; fill:none" points="294.033,902.37 312.93,902.37 "/>
<polyline clip-path="url(#clip160)" style="stroke:#000000; stroke-linecap:round; stroke-linejoin:round; stroke-width:4; stroke-opacity:1; fill:none" points="294.033,620.436 312.93,620.436 "/>
<polyline clip-path="url(#clip160)" style="stroke:#000000; stroke-linecap:round; stroke-linejoin:round; stroke-width:4; stroke-opacity:1; fill:none" points="294.033,338.502 312.93,338.502 "/>
<polyline clip-path="url(#clip160)" style="stroke:#000000; stroke-linecap:round; stroke-linejoin:round; stroke-width:4; stroke-opacity:1; fill:none" points="294.033,56.5671 312.93,56.5671 "/>
<path clip-path="url(#clip160)" d="M114.26 1167.02 L136.482 1167.02 L136.482 1169.02 L123.936 1201.58 L119.052 1201.58 L130.857 1170.96 L114.26 1170.96 L114.26 1167.02 Z" fill="#000000" fill-rule="nonzero" fill-opacity="1" /><path clip-path="url(#clip160)" d="M159.769 1182.95 Q163.126 1183.67 165.001 1185.94 Q166.899 1188.21 166.899 1191.54 Q166.899 1196.65 163.38 1199.45 Q159.862 1202.26 153.38 1202.26 Q151.204 1202.26 148.89 1201.82 Q146.598 1201.4 144.144 1200.54 L144.144 1196.03 Q146.089 1197.16 148.403 1197.74 Q150.718 1198.32 153.241 1198.32 Q157.64 1198.32 159.931 1196.58 Q162.246 1194.85 162.246 1191.54 Q162.246 1188.48 160.093 1186.77 Q157.964 1185.03 154.144 1185.03 L150.116 1185.03 L150.116 1181.19 L154.329 1181.19 Q157.778 1181.19 159.607 1179.83 Q161.436 1178.44 161.436 1175.84 Q161.436 1173.18 159.538 1171.77 Q157.663 1170.33 154.144 1170.33 Q152.223 1170.33 150.024 1170.75 Q147.825 1171.17 145.186 1172.05 L145.186 1167.88 Q147.848 1167.14 150.163 1166.77 Q152.501 1166.4 154.561 1166.4 Q159.885 1166.4 162.987 1168.83 Q166.089 1171.24 166.089 1175.36 Q166.089 1178.23 164.445 1180.22 Q162.802 1182.19 159.769 1182.95 Z" fill="#000000" fill-rule="nonzero" fill-opacity="1" /><path clip-path="url(#clip160)" d="M185.764 1170.1 Q182.153 1170.1 180.325 1173.67 Q178.519 1177.21 178.519 1184.34 Q178.519 1191.45 180.325 1195.01 Q182.153 1198.55 185.764 1198.55 Q189.399 1198.55 191.204 1195.01 Q193.033 1191.45 193.033 1184.34 Q193.033 1177.21 191.204 1173.67 Q189.399 1170.1 185.764 1170.1 M185.764 1166.4 Q191.575 1166.4 194.63 1171.01 Q197.709 1175.59 197.709 1184.34 Q197.709 1193.07 194.63 1197.67 Q191.575 1202.26 185.764 1202.26 Q179.954 1202.26 176.876 1197.67 Q173.82 1193.07 173.82 1184.34 Q173.82 1175.59 176.876 1171.01 Q179.954 1166.4 185.764 1166.4 Z" fill="#000000" fill-rule="nonzero" fill-opacity="1" /><path clip-path="url(#clip160)" d="M215.926 1170.1 Q212.315 1170.1 210.486 1173.67 Q208.681 1177.21 208.681 1184.34 Q208.681 1191.45 210.486 1195.01 Q212.315 1198.55 215.926 1198.55 Q219.561 1198.55 221.366 1195.01 Q223.195 1191.45 223.195 1184.34 Q223.195 1177.21 221.366 1173.67 Q219.561 1170.1 215.926 1170.1 M215.926 1166.4 Q221.736 1166.4 224.792 1171.01 Q227.871 1175.59 227.871 1184.34 Q227.871 1193.07 224.792 1197.67 Q221.736 1202.26 215.926 1202.26 Q210.116 1202.26 207.037 1197.67 Q203.982 1193.07 203.982 1184.34 Q203.982 1175.59 207.037 1171.01 Q210.116 1166.4 215.926 1166.4 Z" fill="#000000" fill-rule="nonzero" fill-opacity="1" /><path clip-path="url(#clip160)" d="M246.088 1170.1 Q242.477 1170.1 240.648 1173.67 Q238.843 1177.21 238.843 1184.34 Q238.843 1191.45 240.648 1195.01 Q242.477 1198.55 246.088 1198.55 Q249.722 1198.55 251.528 1195.01 Q253.357 1191.45 253.357 1184.34 Q253.357 1177.21 251.528 1173.67 Q249.722 1170.1 246.088 1170.1 M246.088 1166.4 Q251.898 1166.4 254.954 1171.01 Q258.033 1175.59 258.033 1184.34 Q258.033 1193.07 254.954 1197.67 Q251.898 1202.26 246.088 1202.26 Q240.278 1202.26 237.199 1197.67 Q234.144 1193.07 234.144 1184.34 Q234.144 1175.59 237.199 1171.01 Q240.278 1166.4 246.088 1166.4 Z" fill="#000000" fill-rule="nonzero" fill-opacity="1" /><path clip-path="url(#clip160)" d="M114.26 885.09 L136.482 885.09 L136.482 887.081 L123.936 919.65 L119.052 919.65 L130.857 889.025 L114.26 889.025 L114.26 885.09 Z" fill="#000000" fill-rule="nonzero" fill-opacity="1" /><path clip-path="url(#clip160)" d="M158.45 889.164 L146.644 907.613 L158.45 907.613 L158.45 889.164 M157.223 885.09 L163.102 885.09 L163.102 907.613 L168.033 907.613 L168.033 911.502 L163.102 911.502 L163.102 919.65 L158.45 919.65 L158.45 911.502 L142.848 911.502 L142.848 906.988 L157.223 885.09 Z" fill="#000000" fill-rule="nonzero" fill-opacity="1" /><path clip-path="url(#clip160)" d="M185.764 888.169 Q182.153 888.169 180.325 891.734 Q178.519 895.275 178.519 902.405 Q178.519 909.511 180.325 913.076 Q182.153 916.618 185.764 916.618 Q189.399 916.618 191.204 913.076 Q193.033 909.511 193.033 902.405 Q193.033 895.275 191.204 891.734 Q189.399 888.169 185.764 888.169 M185.764 884.465 Q191.575 884.465 194.63 889.072 Q197.709 893.655 197.709 902.405 Q197.709 911.132 194.63 915.738 Q191.575 920.322 185.764 920.322 Q179.954 920.322 176.876 915.738 Q173.82 911.132 173.82 902.405 Q173.82 893.655 176.876 889.072 Q179.954 884.465 185.764 884.465 Z" fill="#000000" fill-rule="nonzero" fill-opacity="1" /><path clip-path="url(#clip160)" d="M215.926 888.169 Q212.315 888.169 210.486 891.734 Q208.681 895.275 208.681 902.405 Q208.681 909.511 210.486 913.076 Q212.315 916.618 215.926 916.618 Q219.561 916.618 221.366 913.076 Q223.195 909.511 223.195 902.405 Q223.195 895.275 221.366 891.734 Q219.561 888.169 215.926 888.169 M215.926 884.465 Q221.736 884.465 224.792 889.072 Q227.871 893.655 227.871 902.405 Q227.871 911.132 224.792 915.738 Q221.736 920.322 215.926 920.322 Q210.116 920.322 207.037 915.738 Q203.982 911.132 203.982 902.405 Q203.982 893.655 207.037 889.072 Q210.116 884.465 215.926 884.465 Z" fill="#000000" fill-rule="nonzero" fill-opacity="1" /><path clip-path="url(#clip160)" d="M246.088 888.169 Q242.477 888.169 240.648 891.734 Q238.843 895.275 238.843 902.405 Q238.843 909.511 240.648 913.076 Q242.477 916.618 246.088 916.618 Q249.722 916.618 251.528 913.076 Q253.357 909.511 253.357 902.405 Q253.357 895.275 251.528 891.734 Q249.722 888.169 246.088 888.169 M246.088 884.465 Q251.898 884.465 254.954 889.072 Q258.033 893.655 258.033 902.405 Q258.033 911.132 254.954 915.738 Q251.898 920.322 246.088 920.322 Q240.278 920.322 237.199 915.738 Q234.144 911.132 234.144 902.405 Q234.144 893.655 237.199 889.072 Q240.278 884.465 246.088 884.465 Z" fill="#000000" fill-rule="nonzero" fill-opacity="1" /><path clip-path="url(#clip160)" d="M114.26 603.156 L136.482 603.156 L136.482 605.147 L123.936 637.716 L119.052 637.716 L130.857 607.091 L114.26 607.091 L114.26 603.156 Z" fill="#000000" fill-rule="nonzero" fill-opacity="1" /><path clip-path="url(#clip160)" d="M145.649 603.156 L164.005 603.156 L164.005 607.091 L149.931 607.091 L149.931 615.563 Q150.95 615.216 151.968 615.054 Q152.987 614.869 154.005 614.869 Q159.792 614.869 163.172 618.04 Q166.552 621.211 166.552 626.628 Q166.552 632.207 163.079 635.308 Q159.607 638.387 153.288 638.387 Q151.112 638.387 148.843 638.017 Q146.598 637.646 144.191 636.906 L144.191 632.207 Q146.274 633.341 148.496 633.896 Q150.718 634.452 153.195 634.452 Q157.2 634.452 159.538 632.346 Q161.876 630.239 161.876 626.628 Q161.876 623.017 159.538 620.91 Q157.2 618.804 153.195 618.804 Q151.32 618.804 149.445 619.221 Q147.593 619.637 145.649 620.517 L145.649 603.156 Z" fill="#000000" fill-rule="nonzero" fill-opacity="1" /><path clip-path="url(#clip160)" d="M185.764 606.235 Q182.153 606.235 180.325 609.799 Q178.519 613.341 178.519 620.471 Q178.519 627.577 180.325 631.142 Q182.153 634.683 185.764 634.683 Q189.399 634.683 191.204 631.142 Q193.033 627.577 193.033 620.471 Q193.033 613.341 191.204 609.799 Q189.399 606.235 185.764 606.235 M185.764 602.531 Q191.575 602.531 194.63 607.137 Q197.709 611.721 197.709 620.471 Q197.709 629.197 194.63 633.804 Q191.575 638.387 185.764 638.387 Q179.954 638.387 176.876 633.804 Q173.82 629.197 173.82 620.471 Q173.82 611.721 176.876 607.137 Q179.954 602.531 185.764 602.531 Z" fill="#000000" fill-rule="nonzero" fill-opacity="1" /><path clip-path="url(#clip160)" d="M215.926 606.235 Q212.315 606.235 210.486 609.799 Q208.681 613.341 208.681 620.471 Q208.681 627.577 210.486 631.142 Q212.315 634.683 215.926 634.683 Q219.561 634.683 221.366 631.142 Q223.195 627.577 223.195 620.471 Q223.195 613.341 221.366 609.799 Q219.561 606.235 215.926 606.235 M215.926 602.531 Q221.736 602.531 224.792 607.137 Q227.871 611.721 227.871 620.471 Q227.871 629.197 224.792 633.804 Q221.736 638.387 215.926 638.387 Q210.116 638.387 207.037 633.804 Q203.982 629.197 203.982 620.471 Q203.982 611.721 207.037 607.137 Q210.116 602.531 215.926 602.531 Z" fill="#000000" fill-rule="nonzero" fill-opacity="1" /><path clip-path="url(#clip160)" d="M246.088 606.235 Q242.477 606.235 240.648 609.799 Q238.843 613.341 238.843 620.471 Q238.843 627.577 240.648 631.142 Q242.477 634.683 246.088 634.683 Q249.722 634.683 251.528 631.142 Q253.357 627.577 253.357 620.471 Q253.357 613.341 251.528 609.799 Q249.722 606.235 246.088 606.235 M246.088 602.531 Q251.898 602.531 254.954 607.137 Q258.033 611.721 258.033 620.471 Q258.033 629.197 254.954 633.804 Q251.898 638.387 246.088 638.387 Q240.278 638.387 237.199 633.804 Q234.144 629.197 234.144 620.471 Q234.144 611.721 237.199 607.137 Q240.278 602.531 246.088 602.531 Z" fill="#000000" fill-rule="nonzero" fill-opacity="1" /><path clip-path="url(#clip160)" d="M114.26 321.222 L136.482 321.222 L136.482 323.212 L123.936 355.782 L119.052 355.782 L130.857 325.157 L114.26 325.157 L114.26 321.222 Z" fill="#000000" fill-rule="nonzero" fill-opacity="1" /><path clip-path="url(#clip160)" d="M156.181 336.638 Q153.033 336.638 151.181 338.791 Q149.353 340.944 149.353 344.694 Q149.353 348.42 151.181 350.596 Q153.033 352.749 156.181 352.749 Q159.329 352.749 161.158 350.596 Q163.01 348.42 163.01 344.694 Q163.01 340.944 161.158 338.791 Q159.329 336.638 156.181 336.638 M165.464 321.985 L165.464 326.245 Q163.704 325.411 161.899 324.971 Q160.116 324.532 158.357 324.532 Q153.728 324.532 151.274 327.657 Q148.843 330.782 148.496 337.101 Q149.862 335.087 151.922 334.022 Q153.982 332.934 156.459 332.934 Q161.667 332.934 164.677 336.106 Q167.709 339.254 167.709 344.694 Q167.709 350.018 164.561 353.235 Q161.413 356.453 156.181 356.453 Q150.186 356.453 147.015 351.869 Q143.843 347.263 143.843 338.536 Q143.843 330.342 147.732 325.481 Q151.621 320.597 158.172 320.597 Q159.931 320.597 161.714 320.944 Q163.519 321.291 165.464 321.985 Z" fill="#000000" fill-rule="nonzero" fill-opacity="1" /><path clip-path="url(#clip160)" d="M185.764 324.3 Q182.153 324.3 180.325 327.865 Q178.519 331.407 178.519 338.536 Q178.519 345.643 180.325 349.207 Q182.153 352.749 185.764 352.749 Q189.399 352.749 191.204 349.207 Q193.033 345.643 193.033 338.536 Q193.033 331.407 191.204 327.865 Q189.399 324.3 185.764 324.3 M185.764 320.597 Q191.575 320.597 194.63 325.203 Q197.709 329.786 197.709 338.536 Q197.709 347.263 194.63 351.869 Q191.575 356.453 185.764 356.453 Q179.954 356.453 176.876 351.869 Q173.82 347.263 173.82 338.536 Q173.82 329.786 176.876 325.203 Q179.954 320.597 185.764 320.597 Z" fill="#000000" fill-rule="nonzero" fill-opacity="1" /><path clip-path="url(#clip160)" d="M215.926 324.3 Q212.315 324.3 210.486 327.865 Q208.681 331.407 208.681 338.536 Q208.681 345.643 210.486 349.207 Q212.315 352.749 215.926 352.749 Q219.561 352.749 221.366 349.207 Q223.195 345.643 223.195 338.536 Q223.195 331.407 221.366 327.865 Q219.561 324.3 215.926 324.3 M215.926 320.597 Q221.736 320.597 224.792 325.203 Q227.871 329.786 227.871 338.536 Q227.871 347.263 224.792 351.869 Q221.736 356.453 215.926 356.453 Q210.116 356.453 207.037 351.869 Q203.982 347.263 203.982 338.536 Q203.982 329.786 207.037 325.203 Q210.116 320.597 215.926 320.597 Z" fill="#000000" fill-rule="nonzero" fill-opacity="1" /><path clip-path="url(#clip160)" d="M246.088 324.3 Q242.477 324.3 240.648 327.865 Q238.843 331.407 238.843 338.536 Q238.843 345.643 240.648 349.207 Q242.477 352.749 246.088 352.749 Q249.722 352.749 251.528 349.207 Q253.357 345.643 253.357 338.536 Q253.357 331.407 251.528 327.865 Q249.722 324.3 246.088 324.3 M246.088 320.597 Q251.898 320.597 254.954 325.203 Q258.033 329.786 258.033 338.536 Q258.033 347.263 254.954 351.869 Q251.898 356.453 246.088 356.453 Q240.278 356.453 237.199 351.869 Q234.144 347.263 234.144 338.536 Q234.144 329.786 237.199 325.203 Q240.278 320.597 246.088 320.597 Z" fill="#000000" fill-rule="nonzero" fill-opacity="1" /><path clip-path="url(#clip160)" d="M114.26 39.2871 L136.482 39.2871 L136.482 41.2779 L123.936 73.8471 L119.052 73.8471 L130.857 43.2223 L114.26 43.2223 L114.26 39.2871 Z" fill="#000000" fill-rule="nonzero" fill-opacity="1" /><path clip-path="url(#clip160)" d="M144.422 39.2871 L166.644 39.2871 L166.644 41.2779 L154.098 73.8471 L149.214 73.8471 L161.019 43.2223 L144.422 43.2223 L144.422 39.2871 Z" fill="#000000" fill-rule="nonzero" fill-opacity="1" /><path clip-path="url(#clip160)" d="M185.764 42.3658 Q182.153 42.3658 180.325 45.9306 Q178.519 49.4723 178.519 56.6019 Q178.519 63.7083 180.325 67.2731 Q182.153 70.8148 185.764 70.8148 Q189.399 70.8148 191.204 67.2731 Q193.033 63.7083 193.033 56.6019 Q193.033 49.4723 191.204 45.9306 Q189.399 42.3658 185.764 42.3658 M185.764 38.6622 Q191.575 38.6622 194.63 43.2686 Q197.709 47.8519 197.709 56.6019 Q197.709 65.3287 194.63 69.9351 Q191.575 74.5184 185.764 74.5184 Q179.954 74.5184 176.876 69.9351 Q173.82 65.3287 173.82 56.6019 Q173.82 47.8519 176.876 43.2686 Q179.954 38.6622 185.764 38.6622 Z" fill="#000000" fill-rule="nonzero" fill-opacity="1" /><path clip-path="url(#clip160)" d="M215.926 42.3658 Q212.315 42.3658 210.486 45.9306 Q208.681 49.4723 208.681 56.6019 Q208.681 63.7083 210.486 67.2731 Q212.315 70.8148 215.926 70.8148 Q219.561 70.8148 221.366 67.2731 Q223.195 63.7083 223.195 56.6019 Q223.195 49.4723 221.366 45.9306 Q219.561 42.3658 215.926 42.3658 M215.926 38.6622 Q221.736 38.6622 224.792 43.2686 Q227.871 47.8519 227.871 56.6019 Q227.871 65.3287 224.792 69.9351 Q221.736 74.5184 215.926 74.5184 Q210.116 74.5184 207.037 69.9351 Q203.982 65.3287 203.982 56.6019 Q203.982 47.8519 207.037 43.2686 Q210.116 38.6622 215.926 38.6622 Z" fill="#000000" fill-rule="nonzero" fill-opacity="1" /><path clip-path="url(#clip160)" d="M246.088 42.3658 Q242.477 42.3658 240.648 45.9306 Q238.843 49.4723 238.843 56.6019 Q238.843 63.7083 240.648 67.2731 Q242.477 70.8148 246.088 70.8148 Q249.722 70.8148 251.528 67.2731 Q253.357 63.7083 253.357 56.6019 Q253.357 49.4723 251.528 45.9306 Q249.722 42.3658 246.088 42.3658 M246.088 38.6622 Q251.898 38.6622 254.954 43.2686 Q258.033 47.8519 258.033 56.6019 Q258.033 65.3287 254.954 69.9351 Q251.898 74.5184 246.088 74.5184 Q240.278 74.5184 237.199 69.9351 Q234.144 65.3287 234.144 56.6019 Q234.144 47.8519 237.199 43.2686 Q240.278 38.6622 246.088 38.6622 Z" fill="#000000" fill-rule="nonzero" fill-opacity="1" /><path clip-path="url(#clip160)" d="M57.2247 767.136 L44.4614 767.136 L44.4614 777.639 L39.1779 777.639 L39.1779 760.77 L59.58 760.77 Q62.2218 764.494 63.5904 768.982 Q64.9272 773.47 64.9272 778.562 Q64.9272 789.702 58.4342 796.004 Q51.9093 802.275 40.2919 802.275 Q28.6427 802.275 22.1496 796.004 Q15.6248 789.702 15.6248 778.562 Q15.6248 773.915 16.7706 769.746 Q17.9164 765.545 20.1444 762.012 L26.9876 762.012 Q23.9639 765.576 22.4361 769.587 Q20.9083 773.597 20.9083 778.021 Q20.9083 786.742 25.7781 791.135 Q30.6479 795.495 40.2919 795.495 Q49.9041 795.495 54.7739 791.135 Q59.6436 786.742 59.6436 778.021 Q59.6436 774.616 59.0707 771.942 Q58.466 769.268 57.2247 767.136 Z" fill="#000000" fill-rule="nonzero" fill-opacity="1" /><path clip-path="url(#clip160)" d="M21.7677 742.596 L58.7206 742.596 L58.7206 734.83 Q58.7206 724.995 54.2646 720.444 Q49.8086 715.86 40.1964 715.86 Q30.6479 715.86 26.2237 720.444 Q21.7677 724.995 21.7677 734.83 L21.7677 742.596 M16.4842 749.026 L16.4842 735.817 Q16.4842 722.003 22.2451 715.542 Q27.9743 709.081 40.1964 709.081 Q52.4822 709.081 58.2432 715.574 Q64.0042 722.067 64.0042 735.817 L64.0042 749.026 L16.4842 749.026 Z" fill="#000000" fill-rule="nonzero" fill-opacity="1" /><path clip-path="url(#clip160)" d="M21.7677 692.403 L39.6235 692.403 L39.6235 684.318 Q39.6235 679.83 37.3 677.38 Q34.9765 674.929 30.6797 674.929 Q26.4147 674.929 24.0912 677.38 Q21.7677 679.83 21.7677 684.318 L21.7677 692.403 M16.4842 698.832 L16.4842 684.318 Q16.4842 676.329 20.1126 672.255 Q23.7092 668.149 30.6797 668.149 Q37.7138 668.149 41.3104 672.255 Q44.907 676.329 44.907 684.318 L44.907 692.403 L64.0042 692.403 L64.0042 698.832 L16.4842 698.832 Z" fill="#000000" fill-rule="nonzero" fill-opacity="1" /><path clip-path="url(#clip162)" d="M352.298 1347.26 L449.408 1348.57 L546.517 1371.99 L643.627 1369.67 L740.737 1354.35 L837.846 1303.5 L934.956 1241.32 L1032.07 1198.27 L1129.18 1168.42 L1226.28 1137.23 L1323.39 1108.34 L1420.5 1040.12 L1517.61 971.374 L1614.72 890.736 L1711.83 823.904 L1808.94 753.377 L1906.05 709.461 L2003.16 642.351 L2100.27 642.884 L2197.38 646.936 L2294.49 682.252 L2294.49 393.591 L2197.38 405.505 L2100.27 429.21 L2003.16 473.413 L1906.05 575.052 L1808.94 630.265 L1711.83 690.934 L1614.72 766.834 L1517.61 828.974 L1420.5 873.639 L1323.39 910.199 L1226.28 981.746 L1129.18 1011.77 L1032.07 1045.73 L934.956 1078.36 L837.846 1133.61 L740.737 1242.55 L643.627 1286.53 L546.517 1318.93 L449.408 1347.73 L352.298 1347.26  Z" fill="#009af9" fill-rule="evenodd" fill-opacity="0.1"/>
<polyline clip-path="url(#clip162)" style="stroke:#009af9; stroke-linecap:round; stroke-linejoin:round; stroke-width:4; stroke-opacity:1; fill:none" points="352.298,1347.26 449.408,1348.15 546.517,1345.46 643.627,1328.1 740.737,1298.45 837.846,1218.55 934.956,1159.84 1032.07,1122 1129.18,1090.1 1226.28,1059.49 1323.39,1009.27 1420.5,956.877 1517.61,900.174 1614.72,828.785 1711.83,757.419 1808.94,691.821 1906.05,642.257 2003.16,557.882 2100.27,536.047 2197.38,526.221 2294.49,537.921 "/>
<path clip-path="url(#clip162)" d="M352.298 1347.26 L449.408 1348.9 L546.517 1384.24 L643.627 1383.22 L740.737 1377.63 L837.846 1358.58 L934.956 1283 L1032.07 1242.69 L1129.18 1211.38 L1226.28 1189.86 L1323.39 1169.7 L1420.5 1094.55 L1517.61 1057.85 L1614.72 989.436 L1711.83 981.177 L1808.94 946.013 L1906.05 849.965 L2003.16 755.199 L2100.27 689.163 L2197.38 629.658 L2294.49 553.224 L2294.49 86.1857 L2197.38 203.17 L2100.27 263.835 L2003.16 368.864 L1906.05 437.121 L1808.94 542.573 L1711.83 602.931 L1614.72 593.282 L1517.61 653.582 L1420.5 704.624 L1323.39 799.317 L1226.28 864.587 L1129.18 945.156 L1032.07 1045.71 L934.956 1125.48 L837.846 1233.16 L740.737 1252.83 L643.627 1332.12 L546.517 1349.58 L449.408 1347.94 L352.298 1347.26  Z" fill="#e26f46" fill-rule="evenodd" fill-opacity="0.1"/>
<polyline clip-path="url(#clip162)" style="stroke:#e26f46; stroke-linecap:round; stroke-linejoin:round; stroke-width:4; stroke-opacity:1; fill:none" points="352.298,1347.26 449.408,1348.42 546.517,1366.91 643.627,1357.67 740.737,1315.23 837.846,1295.87 934.956,1204.24 1032.07,1144.2 1129.18,1078.27 1226.28,1027.22 1323.39,984.509 1420.5,899.589 1517.61,855.718 1614.72,791.359 1711.83,792.054 1808.94,744.293 1906.05,643.543 2003.16,562.031 2100.27,476.499 2197.38,416.414 2294.49,319.705 "/>
<path clip-path="url(#clip160)" d="M362.657 248.629 L760.264 248.629 L760.264 93.1086 L362.657 93.1086  Z" fill="#ffffff" fill-rule="evenodd" fill-opacity="1"/>
<polyline clip-path="url(#clip160)" style="stroke:#000000; stroke-linecap:round; stroke-linejoin:round; stroke-width:4; stroke-opacity:1; fill:none" points="362.657,248.629 760.264,248.629 760.264,93.1086 362.657,93.1086 362.657,248.629 "/>
<polyline clip-path="url(#clip160)" style="stroke:#009af9; stroke-linecap:round; stroke-linejoin:round; stroke-width:4; stroke-opacity:1; fill:none" points="385.531,144.949 522.78,144.949 "/>
<path clip-path="url(#clip160)" d="M564.427 149.289 Q564.427 144.59 562.483 141.928 Q560.562 139.243 557.182 139.243 Q553.802 139.243 551.858 141.928 Q549.937 144.59 549.937 149.289 Q549.937 153.988 551.858 156.673 Q553.802 159.335 557.182 159.335 Q560.562 159.335 562.483 156.673 Q564.427 153.988 564.427 149.289 M549.937 140.238 Q551.279 137.923 553.316 136.812 Q555.376 135.678 558.224 135.678 Q562.946 135.678 565.886 139.428 Q568.849 143.178 568.849 149.289 Q568.849 155.4 565.886 159.15 Q562.946 162.9 558.224 162.9 Q555.376 162.9 553.316 161.789 Q551.279 160.655 549.937 158.34 L549.937 162.229 L545.654 162.229 L545.654 126.21 L549.937 126.21 L549.937 140.238 Z" fill="#000000" fill-rule="nonzero" fill-opacity="1" /><path clip-path="url(#clip160)" d="M587.691 149.196 Q582.529 149.196 580.538 150.377 Q578.548 151.557 578.548 154.405 Q578.548 156.673 580.029 158.016 Q581.534 159.335 584.103 159.335 Q587.645 159.335 589.774 156.835 Q591.927 154.312 591.927 150.145 L591.927 149.196 L587.691 149.196 M596.186 147.437 L596.186 162.229 L591.927 162.229 L591.927 158.293 Q590.469 160.655 588.293 161.789 Q586.117 162.9 582.969 162.9 Q578.987 162.9 576.626 160.678 Q574.288 158.432 574.288 154.682 Q574.288 150.307 577.205 148.085 Q580.145 145.863 585.955 145.863 L591.927 145.863 L591.927 145.446 Q591.927 142.507 589.983 140.909 Q588.061 139.289 584.566 139.289 Q582.344 139.289 580.237 139.821 Q578.131 140.354 576.187 141.419 L576.187 137.483 Q578.524 136.581 580.724 136.141 Q582.923 135.678 585.006 135.678 Q590.631 135.678 593.409 138.594 Q596.186 141.511 596.186 147.437 Z" fill="#000000" fill-rule="nonzero" fill-opacity="1" /><path clip-path="url(#clip160)" d="M621.487 137.067 L621.487 141.094 Q619.682 140.169 617.737 139.706 Q615.793 139.243 613.709 139.243 Q610.538 139.243 608.941 140.215 Q607.367 141.187 607.367 143.131 Q607.367 144.613 608.501 145.469 Q609.635 146.303 613.061 147.067 L614.52 147.391 Q619.057 148.363 620.955 150.145 Q622.876 151.905 622.876 155.076 Q622.876 158.687 620.006 160.793 Q617.159 162.9 612.159 162.9 Q610.075 162.9 607.807 162.483 Q605.561 162.09 603.061 161.28 L603.061 156.881 Q605.422 158.108 607.714 158.733 Q610.006 159.335 612.251 159.335 Q615.26 159.335 616.881 158.317 Q618.501 157.275 618.501 155.4 Q618.501 153.664 617.321 152.738 Q616.163 151.812 612.205 150.956 L610.723 150.608 Q606.765 149.775 605.006 148.062 Q603.247 146.326 603.247 143.317 Q603.247 139.659 605.839 137.669 Q608.432 135.678 613.2 135.678 Q615.561 135.678 617.645 136.025 Q619.728 136.372 621.487 137.067 Z" fill="#000000" fill-rule="nonzero" fill-opacity="1" /><path clip-path="url(#clip160)" d="M651.834 148.201 L651.834 150.284 L632.251 150.284 Q632.529 154.682 634.89 156.997 Q637.274 159.289 641.51 159.289 Q643.964 159.289 646.256 158.687 Q648.57 158.085 650.839 156.881 L650.839 160.909 Q648.547 161.881 646.14 162.391 Q643.732 162.9 641.256 162.9 Q635.052 162.9 631.418 159.289 Q627.807 155.678 627.807 149.52 Q627.807 143.155 631.233 139.428 Q634.682 135.678 640.515 135.678 Q645.746 135.678 648.779 139.057 Q651.834 142.414 651.834 148.201 M647.575 146.951 Q647.529 143.456 645.607 141.372 Q643.709 139.289 640.561 139.289 Q636.996 139.289 634.844 141.303 Q632.714 143.317 632.39 146.974 L647.575 146.951 Z" fill="#000000" fill-rule="nonzero" fill-opacity="1" /><path clip-path="url(#clip160)" d="M658.825 126.21 L663.084 126.21 L663.084 162.229 L658.825 162.229 L658.825 126.21 Z" fill="#000000" fill-rule="nonzero" fill-opacity="1" /><path clip-path="url(#clip160)" d="M671.996 136.303 L676.255 136.303 L676.255 162.229 L671.996 162.229 L671.996 136.303 M671.996 126.21 L676.255 126.21 L676.255 131.604 L671.996 131.604 L671.996 126.21 Z" fill="#000000" fill-rule="nonzero" fill-opacity="1" /><path clip-path="url(#clip160)" d="M706.718 146.581 L706.718 162.229 L702.459 162.229 L702.459 146.719 Q702.459 143.039 701.024 141.21 Q699.589 139.382 696.718 139.382 Q693.269 139.382 691.279 141.581 Q689.288 143.78 689.288 147.576 L689.288 162.229 L685.005 162.229 L685.005 136.303 L689.288 136.303 L689.288 140.331 Q690.816 137.993 692.876 136.835 Q694.959 135.678 697.667 135.678 Q702.135 135.678 704.427 138.456 Q706.718 141.21 706.718 146.581 Z" fill="#000000" fill-rule="nonzero" fill-opacity="1" /><path clip-path="url(#clip160)" d="M737.389 148.201 L737.389 150.284 L717.806 150.284 Q718.084 154.682 720.445 156.997 Q722.829 159.289 727.065 159.289 Q729.519 159.289 731.811 158.687 Q734.125 158.085 736.394 156.881 L736.394 160.909 Q734.102 161.881 731.695 162.391 Q729.288 162.9 726.811 162.9 Q720.607 162.9 716.973 159.289 Q713.362 155.678 713.362 149.52 Q713.362 143.155 716.788 139.428 Q720.237 135.678 726.07 135.678 Q731.301 135.678 734.334 139.057 Q737.389 142.414 737.389 148.201 M733.13 146.951 Q733.084 143.456 731.163 141.372 Q729.264 139.289 726.116 139.289 Q722.551 139.289 720.399 141.303 Q718.269 143.317 717.945 146.974 L733.13 146.951 Z" fill="#000000" fill-rule="nonzero" fill-opacity="1" /><polyline clip-path="url(#clip160)" style="stroke:#e26f46; stroke-linecap:round; stroke-linejoin:round; stroke-width:4; stroke-opacity:1; fill:none" points="385.531,196.789 522.78,196.789 "/>
<path clip-path="url(#clip160)" d="M564.08 188.907 L564.08 192.934 Q562.275 192.009 560.33 191.546 Q558.386 191.083 556.302 191.083 Q553.131 191.083 551.534 192.055 Q549.96 193.027 549.96 194.971 Q549.96 196.453 551.094 197.309 Q552.228 198.143 555.654 198.907 L557.113 199.231 Q561.65 200.203 563.548 201.985 Q565.469 203.745 565.469 206.916 Q565.469 210.527 562.599 212.633 Q559.751 214.74 554.751 214.74 Q552.668 214.74 550.4 214.323 Q548.154 213.93 545.654 213.12 L545.654 208.721 Q548.015 209.948 550.307 210.573 Q552.599 211.175 554.844 211.175 Q557.853 211.175 559.474 210.157 Q561.094 209.115 561.094 207.24 Q561.094 205.504 559.913 204.578 Q558.756 203.652 554.798 202.796 L553.316 202.448 Q549.358 201.615 547.599 199.902 Q545.839 198.166 545.839 195.157 Q545.839 191.499 548.432 189.509 Q551.025 187.518 555.793 187.518 Q558.154 187.518 560.238 187.865 Q562.321 188.212 564.08 188.907 Z" fill="#000000" fill-rule="nonzero" fill-opacity="1" /><path clip-path="url(#clip160)" d="M593.802 198.421 L593.802 214.069 L589.543 214.069 L589.543 198.559 Q589.543 194.879 588.108 193.05 Q586.673 191.222 583.802 191.222 Q580.353 191.222 578.362 193.421 Q576.372 195.62 576.372 199.416 L576.372 214.069 L572.089 214.069 L572.089 178.05 L576.372 178.05 L576.372 192.171 Q577.899 189.833 579.96 188.675 Q582.043 187.518 584.751 187.518 Q589.219 187.518 591.511 190.296 Q593.802 193.05 593.802 198.421 Z" fill="#000000" fill-rule="nonzero" fill-opacity="1" /><path clip-path="url(#clip160)" d="M612.344 191.129 Q608.918 191.129 606.927 193.814 Q604.936 196.476 604.936 201.129 Q604.936 205.782 606.904 208.467 Q608.895 211.129 612.344 211.129 Q615.746 211.129 617.737 208.444 Q619.728 205.758 619.728 201.129 Q619.728 196.522 617.737 193.837 Q615.746 191.129 612.344 191.129 M612.344 187.518 Q617.899 187.518 621.071 191.129 Q624.242 194.74 624.242 201.129 Q624.242 207.495 621.071 211.129 Q617.899 214.74 612.344 214.74 Q606.765 214.74 603.594 211.129 Q600.446 207.495 600.446 201.129 Q600.446 194.74 603.594 191.129 Q606.765 187.518 612.344 187.518 Z" fill="#000000" fill-rule="nonzero" fill-opacity="1" /><path clip-path="url(#clip160)" d="M649.959 189.138 L649.959 193.12 Q648.154 192.124 646.325 191.638 Q644.519 191.129 642.668 191.129 Q638.524 191.129 636.232 193.768 Q633.941 196.384 633.941 201.129 Q633.941 205.874 636.232 208.513 Q638.524 211.129 642.668 211.129 Q644.519 211.129 646.325 210.643 Q648.154 210.133 649.959 209.138 L649.959 213.073 Q648.177 213.907 646.256 214.323 Q644.357 214.74 642.205 214.74 Q636.348 214.74 632.899 211.059 Q629.45 207.379 629.45 201.129 Q629.45 194.786 632.922 191.152 Q636.418 187.518 642.482 187.518 Q644.45 187.518 646.325 187.935 Q648.2 188.328 649.959 189.138 Z" fill="#000000" fill-rule="nonzero" fill-opacity="1" /><path clip-path="url(#clip160)" d="M657.205 178.05 L661.487 178.05 L661.487 199.323 L674.195 188.143 L679.635 188.143 L665.885 200.272 L680.214 214.069 L674.658 214.069 L661.487 201.407 L661.487 214.069 L657.205 214.069 L657.205 178.05 Z" fill="#000000" fill-rule="nonzero" fill-opacity="1" /></svg>
