<?xml version="1.0" encoding="utf-8"?>
<svg xmlns="http://www.w3.org/2000/svg" xmlns:xlink="http://www.w3.org/1999/xlink" width="600" height="400" viewBox="0 0 2400 1600">
<defs>
  <clipPath id="clip500">
    <rect x="0" y="0" width="2400" height="1600"/>
  </clipPath>
</defs>
<path clip-path="url(#clip500)" d="M0 1600 L2400 1600 L2400 0 L0 0  Z" fill="#ffffff" fill-rule="evenodd" fill-opacity="1"/>
<defs>
  <clipPath id="clip501">
    <rect x="480" y="0" width="1681" height="1600"/>
  </clipPath>
</defs>
<path clip-path="url(#clip500)" d="M278.709 1423.18 L2352.76 1423.18 L2352.76 47.2441 L278.709 47.2441  Z" fill="#ffffff" fill-rule="evenodd" fill-opacity="1"/>
<defs>
  <clipPath id="clip502">
    <rect x="278" y="47" width="2075" height="1377"/>
  </clipPath>
</defs>
<polyline clip-path="url(#clip502)" style="stroke:#000000; stroke-linecap:round; stroke-linejoin:round; stroke-width:2; stroke-opacity:0.1; fill:none" points="581.989,1423.18 581.989,47.2441 "/>
<polyline clip-path="url(#clip502)" style="stroke:#000000; stroke-linecap:round; stroke-linejoin:round; stroke-width:2; stroke-opacity:0.1; fill:none" points="948.861,1423.18 948.861,47.2441 "/>
<polyline clip-path="url(#clip502)" style="stroke:#000000; stroke-linecap:round; stroke-linejoin:round; stroke-width:2; stroke-opacity:0.1; fill:none" points="1315.73,1423.18 1315.73,47.2441 "/>
<polyline clip-path="url(#clip502)" style="stroke:#000000; stroke-linecap:round; stroke-linejoin:round; stroke-width:2; stroke-opacity:0.1; fill:none" points="1682.6,1423.18 1682.6,47.2441 "/>
<polyline clip-path="url(#clip502)" style="stroke:#000000; stroke-linecap:round; stroke-linejoin:round; stroke-width:2; stroke-opacity:0.1; fill:none" points="2049.48,1423.18 2049.48,47.2441 "/>
<polyline clip-path="url(#clip502)" style="stroke:#000000; stroke-linecap:round; stroke-linejoin:round; stroke-width:2; stroke-opacity:0.1; fill:none" points="278.709,1348.99 2352.76,1348.99 "/>
<polyline clip-path="url(#clip502)" style="stroke:#000000; stroke-linecap:round; stroke-linejoin:round; stroke-width:2; stroke-opacity:0.1; fill:none" points="278.709,943.961 2352.76,943.961 "/>
<polyline clip-path="url(#clip502)" style="stroke:#000000; stroke-linecap:round; stroke-linejoin:round; stroke-width:2; stroke-opacity:0.1; fill:none" points="278.709,538.934 2352.76,538.934 "/>
<polyline clip-path="url(#clip502)" style="stroke:#000000; stroke-linecap:round; stroke-linejoin:round; stroke-width:2; stroke-opacity:0.1; fill:none" points="278.709,133.906 2352.76,133.906 "/>
<polyline clip-path="url(#clip500)" style="stroke:#000000; stroke-linecap:round; stroke-linejoin:round; stroke-width:4; stroke-opacity:1; fill:none" points="278.709,1423.18 2352.76,1423.18 "/>
<polyline clip-path="url(#clip500)" style="stroke:#000000; stroke-linecap:round; stroke-linejoin:round; stroke-width:4; stroke-opacity:1; fill:none" points="581.989,1423.18 581.989,1404.28 "/>
<polyline clip-path="url(#clip500)" style="stroke:#000000; stroke-linecap:round; stroke-linejoin:round; stroke-width:4; stroke-opacity:1; fill:none" points="948.861,1423.18 948.861,1404.28 "/>
<polyline clip-path="url(#clip500)" style="stroke:#000000; stroke-linecap:round; stroke-linejoin:round; stroke-width:4; stroke-opacity:1; fill:none" points="1315.73,1423.18 1315.73,1404.28 "/>
<polyline clip-path="url(#clip500)" style="stroke:#000000; stroke-linecap:round; stroke-linejoin:round; stroke-width:4; stroke-opacity:1; fill:none" points="1682.6,1423.18 1682.6,1404.28 "/>
<polyline clip-path="url(#clip500)" style="stroke:#000000; stroke-linecap:round; stroke-linejoin:round; stroke-width:4; stroke-opacity:1; fill:none" points="2049.48,1423.18 2049.48,1404.28 "/>
<path clip-path="url(#clip500)" d="M586.237 1466.95 Q589.593 1467.66 591.468 1469.93 Q593.366 1472.2 593.366 1475.53 Q593.366 1480.65 589.848 1483.45 Q586.329 1486.25 579.848 1486.25 Q577.672 1486.25 575.357 1485.81 Q573.065 1485.39 570.612 1484.54 L570.612 1480.02 Q572.556 1481.16 574.871 1481.74 Q577.186 1482.32 579.709 1482.32 Q584.107 1482.32 586.399 1480.58 Q588.714 1478.84 588.714 1475.53 Q588.714 1472.48 586.561 1470.77 Q584.431 1469.03 580.612 1469.03 L576.584 1469.03 L576.584 1465.19 L580.797 1465.19 Q584.246 1465.19 586.075 1463.82 Q587.903 1462.43 587.903 1459.84 Q587.903 1457.18 586.005 1455.77 Q584.13 1454.33 580.612 1454.33 Q578.69 1454.33 576.491 1454.75 Q574.292 1455.16 571.653 1456.04 L571.653 1451.88 Q574.315 1451.14 576.63 1450.77 Q578.968 1450.39 581.028 1450.39 Q586.352 1450.39 589.454 1452.83 Q592.556 1455.23 592.556 1459.35 Q592.556 1462.22 590.913 1464.21 Q589.269 1466.18 586.237 1466.95 Z" fill="#000000" fill-rule="nonzero" fill-opacity="1" /><path clip-path="url(#clip500)" d="M949.266 1466.44 Q946.118 1466.44 944.266 1468.59 Q942.437 1470.74 942.437 1474.49 Q942.437 1478.22 944.266 1480.39 Q946.118 1482.55 949.266 1482.55 Q952.414 1482.55 954.243 1480.39 Q956.094 1478.22 956.094 1474.49 Q956.094 1470.74 954.243 1468.59 Q952.414 1466.44 949.266 1466.44 M958.548 1451.78 L958.548 1456.04 Q956.789 1455.21 954.983 1454.77 Q953.201 1454.33 951.442 1454.33 Q946.812 1454.33 944.358 1457.45 Q941.928 1460.58 941.581 1466.9 Q942.946 1464.89 945.006 1463.82 Q947.067 1462.73 949.544 1462.73 Q954.752 1462.73 957.761 1465.9 Q960.793 1469.05 960.793 1474.49 Q960.793 1479.82 957.645 1483.03 Q954.497 1486.25 949.266 1486.25 Q943.27 1486.25 940.099 1481.67 Q936.928 1477.06 936.928 1468.33 Q936.928 1460.14 940.817 1455.28 Q944.706 1450.39 951.256 1450.39 Q953.016 1450.39 954.798 1450.74 Q956.604 1451.09 958.548 1451.78 Z" fill="#000000" fill-rule="nonzero" fill-opacity="1" /><path clip-path="url(#clip500)" d="M1306.03 1484.86 L1306.03 1480.6 Q1307.79 1481.44 1309.6 1481.88 Q1311.4 1482.32 1313.14 1482.32 Q1317.77 1482.32 1320.2 1479.21 Q1322.65 1476.09 1323 1469.75 Q1321.66 1471.74 1319.6 1472.8 Q1317.54 1473.87 1315.04 1473.87 Q1309.85 1473.87 1306.82 1470.74 Q1303.81 1467.59 1303.81 1462.15 Q1303.81 1456.83 1306.96 1453.61 Q1310.11 1450.39 1315.34 1450.39 Q1321.33 1450.39 1324.48 1455 Q1327.65 1459.58 1327.65 1468.33 Q1327.65 1476.51 1323.76 1481.39 Q1319.9 1486.25 1313.35 1486.25 Q1311.59 1486.25 1309.78 1485.9 Q1307.98 1485.56 1306.03 1484.86 M1315.34 1470.21 Q1318.49 1470.21 1320.32 1468.06 Q1322.17 1465.9 1322.17 1462.15 Q1322.17 1458.43 1320.32 1456.27 Q1318.49 1454.1 1315.34 1454.1 Q1312.19 1454.1 1310.34 1456.27 Q1308.51 1458.43 1308.51 1462.15 Q1308.51 1465.9 1310.34 1468.06 Q1312.19 1470.21 1315.34 1470.21 Z" fill="#000000" fill-rule="nonzero" fill-opacity="1" /><path clip-path="url(#clip500)" d="M1658.09 1481.64 L1665.73 1481.64 L1665.73 1455.28 L1657.42 1456.95 L1657.42 1452.69 L1665.68 1451.02 L1670.36 1451.02 L1670.36 1481.64 L1678 1481.64 L1678 1485.58 L1658.09 1485.58 L1658.09 1481.64 Z" fill="#000000" fill-rule="nonzero" fill-opacity="1" /><path clip-path="url(#clip500)" d="M1691.47 1481.64 L1707.79 1481.64 L1707.79 1485.58 L1685.84 1485.58 L1685.84 1481.64 Q1688.51 1478.89 1693.09 1474.26 Q1697.7 1469.61 1698.88 1468.27 Q1701.12 1465.74 1702 1464.01 Q1702.9 1462.25 1702.9 1460.56 Q1702.9 1457.8 1700.96 1456.07 Q1699.04 1454.33 1695.94 1454.33 Q1693.74 1454.33 1691.28 1455.09 Q1688.85 1455.86 1686.08 1457.41 L1686.08 1452.69 Q1688.9 1451.55 1691.35 1450.97 Q1693.81 1450.39 1695.84 1450.39 Q1701.21 1450.39 1704.41 1453.08 Q1707.6 1455.77 1707.6 1460.26 Q1707.6 1462.39 1706.79 1464.31 Q1706.01 1466.2 1703.9 1468.8 Q1703.32 1469.47 1700.22 1472.69 Q1697.12 1475.88 1691.47 1481.64 Z" fill="#000000" fill-rule="nonzero" fill-opacity="1" /><path clip-path="url(#clip500)" d="M2024.66 1481.64 L2032.3 1481.64 L2032.3 1455.28 L2023.99 1456.95 L2023.99 1452.69 L2032.25 1451.02 L2036.93 1451.02 L2036.93 1481.64 L2044.57 1481.64 L2044.57 1485.58 L2024.66 1485.58 L2024.66 1481.64 Z" fill="#000000" fill-rule="nonzero" fill-opacity="1" /><path clip-path="url(#clip500)" d="M2054.06 1451.02 L2072.42 1451.02 L2072.42 1454.96 L2058.34 1454.96 L2058.34 1463.43 Q2059.36 1463.08 2060.38 1462.92 Q2061.4 1462.73 2062.42 1462.73 Q2068.2 1462.73 2071.58 1465.9 Q2074.96 1469.08 2074.96 1474.49 Q2074.96 1480.07 2071.49 1483.17 Q2068.02 1486.25 2061.7 1486.25 Q2059.52 1486.25 2057.25 1485.88 Q2055.01 1485.51 2052.6 1484.77 L2052.6 1480.07 Q2054.68 1481.2 2056.91 1481.76 Q2059.13 1482.32 2061.6 1482.32 Q2065.61 1482.32 2067.95 1480.21 Q2070.29 1478.1 2070.29 1474.49 Q2070.29 1470.88 2067.95 1468.77 Q2065.61 1466.67 2061.6 1466.67 Q2059.73 1466.67 2057.85 1467.08 Q2056 1467.5 2054.06 1468.38 L2054.06 1451.02 Z" fill="#000000" fill-rule="nonzero" fill-opacity="1" /><path clip-path="url(#clip500)" d="M1187.24 1550.25 Q1187.24 1556.71 1189.88 1560.4 Q1192.56 1564.07 1197.2 1564.07 Q1201.85 1564.07 1204.52 1560.4 Q1207.2 1556.71 1207.2 1550.25 Q1207.2 1543.79 1204.52 1540.13 Q1201.85 1536.44 1197.2 1536.44 Q1192.56 1536.44 1189.88 1540.13 Q1187.24 1543.79 1187.24 1550.25 M1207.2 1562.7 Q1205.35 1565.88 1202.52 1567.44 Q1199.72 1568.97 1195.77 1568.97 Q1189.31 1568.97 1185.24 1563.81 Q1181.19 1558.65 1181.19 1550.25 Q1181.19 1541.85 1185.24 1536.69 Q1189.31 1531.54 1195.77 1531.54 Q1199.72 1531.54 1202.52 1533.1 Q1205.35 1534.62 1207.2 1537.81 L1207.2 1532.4 L1213.05 1532.4 L1213.05 1581.6 L1207.2 1581.6 L1207.2 1562.7 Z" fill="#000000" fill-rule="nonzero" fill-opacity="1" /><path clip-path="url(#clip500)" d="M1224.51 1553.98 L1224.51 1532.4 L1230.37 1532.4 L1230.37 1553.75 Q1230.37 1558.81 1232.34 1561.36 Q1234.31 1563.87 1238.26 1563.87 Q1243 1563.87 1245.74 1560.85 Q1248.51 1557.83 1248.51 1552.61 L1248.51 1532.4 L1254.37 1532.4 L1254.37 1568.04 L1248.51 1568.04 L1248.51 1562.57 Q1246.38 1565.82 1243.55 1567.41 Q1240.74 1568.97 1237.02 1568.97 Q1230.88 1568.97 1227.69 1565.15 Q1224.51 1561.33 1224.51 1553.98 M1239.25 1531.54 L1239.25 1531.54 Z" fill="#000000" fill-rule="nonzero" fill-opacity="1" /><path clip-path="url(#clip500)" d="M1282.63 1550.12 Q1275.53 1550.12 1272.8 1551.75 Q1270.06 1553.37 1270.06 1557.29 Q1270.06 1560.4 1272.1 1562.25 Q1274.16 1564.07 1277.7 1564.07 Q1282.57 1564.07 1285.5 1560.63 Q1288.46 1557.16 1288.46 1551.43 L1288.46 1550.12 L1282.63 1550.12 M1294.31 1547.71 L1294.31 1568.04 L1288.46 1568.04 L1288.46 1562.63 Q1286.45 1565.88 1283.46 1567.44 Q1280.47 1568.97 1276.14 1568.97 Q1270.66 1568.97 1267.42 1565.91 Q1264.2 1562.82 1264.2 1557.67 Q1264.2 1551.65 1268.21 1548.6 Q1272.25 1545.54 1280.24 1545.54 L1288.46 1545.54 L1288.46 1544.97 Q1288.46 1540.93 1285.78 1538.73 Q1283.14 1536.5 1278.33 1536.5 Q1275.28 1536.5 1272.38 1537.23 Q1269.49 1537.97 1266.81 1539.43 L1266.81 1534.02 Q1270.03 1532.78 1273.05 1532.17 Q1276.07 1531.54 1278.94 1531.54 Q1286.67 1531.54 1290.49 1535.55 Q1294.31 1539.56 1294.31 1547.71 Z" fill="#000000" fill-rule="nonzero" fill-opacity="1" /><path clip-path="url(#clip500)" d="M1327.03 1537.87 Q1326.04 1537.3 1324.87 1537.04 Q1323.72 1536.76 1322.32 1536.76 Q1317.36 1536.76 1314.68 1540 Q1312.04 1543.22 1312.04 1549.27 L1312.04 1568.04 L1306.15 1568.04 L1306.15 1532.4 L1312.04 1532.4 L1312.04 1537.93 Q1313.89 1534.69 1316.85 1533.13 Q1319.81 1531.54 1324.04 1531.54 Q1324.64 1531.54 1325.38 1531.63 Q1326.11 1531.7 1327 1531.85 L1327.03 1537.87 Z" fill="#000000" fill-rule="nonzero" fill-opacity="1" /><path clip-path="url(#clip500)" d="M1338.97 1522.27 L1338.97 1532.4 L1351.03 1532.4 L1351.03 1536.95 L1338.97 1536.95 L1338.97 1556.3 Q1338.97 1560.66 1340.14 1561.9 Q1341.35 1563.14 1345.01 1563.14 L1351.03 1563.14 L1351.03 1568.04 L1345.01 1568.04 Q1338.23 1568.04 1335.66 1565.53 Q1333.08 1562.98 1333.08 1556.3 L1333.08 1536.95 L1328.78 1536.95 L1328.78 1532.4 L1333.08 1532.4 L1333.08 1522.27 L1338.97 1522.27 Z" fill="#000000" fill-rule="nonzero" fill-opacity="1" /><path clip-path="url(#clip500)" d="M1389.22 1548.76 L1389.22 1551.62 L1362.3 1551.62 Q1362.68 1557.67 1365.93 1560.85 Q1369.2 1564 1375.03 1564 Q1378.4 1564 1381.55 1563.17 Q1384.74 1562.35 1387.86 1560.69 L1387.86 1566.23 Q1384.7 1567.57 1381.39 1568.27 Q1378.08 1568.97 1374.68 1568.97 Q1366.15 1568.97 1361.15 1564 Q1356.19 1559.04 1356.19 1550.57 Q1356.19 1541.82 1360.9 1536.69 Q1365.64 1531.54 1373.66 1531.54 Q1380.85 1531.54 1385.02 1536.18 Q1389.22 1540.8 1389.22 1548.76 M1383.37 1547.04 Q1383.3 1542.23 1380.66 1539.37 Q1378.05 1536.5 1373.72 1536.5 Q1368.82 1536.5 1365.86 1539.27 Q1362.93 1542.04 1362.49 1547.07 L1383.37 1547.04 Z" fill="#000000" fill-rule="nonzero" fill-opacity="1" /><path clip-path="url(#clip500)" d="M1419.49 1537.87 Q1418.51 1537.3 1417.33 1537.04 Q1416.18 1536.76 1414.78 1536.76 Q1409.82 1536.76 1407.14 1540 Q1404.5 1543.22 1404.5 1549.27 L1404.5 1568.04 L1398.61 1568.04 L1398.61 1532.4 L1404.5 1532.4 L1404.5 1537.93 Q1406.35 1534.69 1409.31 1533.13 Q1412.27 1531.54 1416.5 1531.54 Q1417.11 1531.54 1417.84 1531.63 Q1418.57 1531.7 1419.46 1531.85 L1419.49 1537.87 Z" fill="#000000" fill-rule="nonzero" fill-opacity="1" /><path clip-path="url(#clip500)" d="M1448.36 1533.45 L1448.36 1538.98 Q1445.88 1537.71 1443.21 1537.07 Q1440.53 1536.44 1437.67 1536.44 Q1433.31 1536.44 1431.11 1537.77 Q1428.95 1539.11 1428.95 1541.79 Q1428.95 1543.82 1430.51 1545 Q1432.07 1546.15 1436.78 1547.2 L1438.78 1547.64 Q1445.02 1548.98 1447.63 1551.43 Q1450.27 1553.85 1450.27 1558.21 Q1450.27 1563.17 1446.32 1566.07 Q1442.41 1568.97 1435.53 1568.97 Q1432.67 1568.97 1429.55 1568.39 Q1426.46 1567.85 1423.03 1566.74 L1423.03 1560.69 Q1426.27 1562.38 1429.42 1563.24 Q1432.57 1564.07 1435.66 1564.07 Q1439.8 1564.07 1442.03 1562.66 Q1444.26 1561.23 1444.26 1558.65 Q1444.26 1556.27 1442.63 1554.99 Q1441.04 1553.72 1435.6 1552.54 L1433.56 1552.07 Q1428.12 1550.92 1425.7 1548.56 Q1423.28 1546.18 1423.28 1542.04 Q1423.28 1537.01 1426.85 1534.27 Q1430.41 1531.54 1436.97 1531.54 Q1440.21 1531.54 1443.08 1532.01 Q1445.94 1532.49 1448.36 1533.45 Z" fill="#000000" fill-rule="nonzero" fill-opacity="1" /><polyline clip-path="url(#clip500)" style="stroke:#000000; stroke-linecap:round; stroke-linejoin:round; stroke-width:4; stroke-opacity:1; fill:none" points="278.709,1423.18 278.709,47.2441 "/>
<polyline clip-path="url(#clip500)" style="stroke:#000000; stroke-linecap:round; stroke-linejoin:round; stroke-width:4; stroke-opacity:1; fill:none" points="278.709,1348.99 297.606,1348.99 "/>
<polyline clip-path="url(#clip500)" style="stroke:#000000; stroke-linecap:round; stroke-linejoin:round; stroke-width:4; stroke-opacity:1; fill:none" points="278.709,943.961 297.606,943.961 "/>
<polyline clip-path="url(#clip500)" style="stroke:#000000; stroke-linecap:round; stroke-linejoin:round; stroke-width:4; stroke-opacity:1; fill:none" points="278.709,538.934 297.606,538.934 "/>
<polyline clip-path="url(#clip500)" style="stroke:#000000; stroke-linecap:round; stroke-linejoin:round; stroke-width:4; stroke-opacity:1; fill:none" points="278.709,133.906 297.606,133.906 "/>
<path clip-path="url(#clip500)" d="M126.205 1334.79 Q122.593 1334.79 120.765 1338.35 Q118.959 1341.89 118.959 1349.02 Q118.959 1356.13 120.765 1359.69 Q122.593 1363.24 126.205 1363.24 Q129.839 1363.24 131.644 1359.69 Q133.473 1356.13 133.473 1349.02 Q133.473 1341.89 131.644 1338.35 Q129.839 1334.79 126.205 1334.79 M126.205 1331.08 Q132.015 1331.08 135.07 1335.69 Q138.149 1340.27 138.149 1349.02 Q138.149 1357.75 135.07 1362.36 Q132.015 1366.94 126.205 1366.94 Q120.394 1366.94 117.316 1362.36 Q114.26 1357.75 114.26 1349.02 Q114.26 1340.27 117.316 1335.69 Q120.394 1331.08 126.205 1331.08 Z" fill="#000000" fill-rule="nonzero" fill-opacity="1" /><path clip-path="url(#clip500)" d="M146.366 1360.39 L151.251 1360.39 L151.251 1366.27 L146.366 1366.27 L146.366 1360.39 Z" fill="#000000" fill-rule="nonzero" fill-opacity="1" /><path clip-path="url(#clip500)" d="M161.575 1365.55 L161.575 1361.29 Q163.334 1362.13 165.14 1362.57 Q166.945 1363.01 168.681 1363.01 Q173.311 1363.01 175.741 1359.9 Q178.195 1356.78 178.542 1350.44 Q177.2 1352.43 175.139 1353.49 Q173.079 1354.56 170.579 1354.56 Q165.394 1354.56 162.362 1351.43 Q159.353 1348.28 159.353 1342.84 Q159.353 1337.52 162.501 1334.3 Q165.649 1331.08 170.88 1331.08 Q176.876 1331.08 180.024 1335.69 Q183.195 1340.27 183.195 1349.02 Q183.195 1357.19 179.306 1362.08 Q175.44 1366.94 168.889 1366.94 Q167.13 1366.94 165.325 1366.59 Q163.519 1366.25 161.575 1365.55 M170.88 1350.9 Q174.028 1350.9 175.857 1348.75 Q177.709 1346.59 177.709 1342.84 Q177.709 1339.12 175.857 1336.96 Q174.028 1334.79 170.88 1334.79 Q167.732 1334.79 165.88 1336.96 Q164.052 1339.12 164.052 1342.84 Q164.052 1346.59 165.88 1348.75 Q167.732 1350.9 170.88 1350.9 Z" fill="#000000" fill-rule="nonzero" fill-opacity="1" /><path clip-path="url(#clip500)" d="M191.737 1365.55 L191.737 1361.29 Q193.496 1362.13 195.301 1362.57 Q197.107 1363.01 198.843 1363.01 Q203.473 1363.01 205.903 1359.9 Q208.357 1356.78 208.704 1350.44 Q207.362 1352.43 205.301 1353.49 Q203.241 1354.56 200.741 1354.56 Q195.556 1354.56 192.524 1351.43 Q189.514 1348.28 189.514 1342.84 Q189.514 1337.52 192.663 1334.3 Q195.811 1331.08 201.042 1331.08 Q207.037 1331.08 210.186 1335.69 Q213.357 1340.27 213.357 1349.02 Q213.357 1357.19 209.468 1362.08 Q205.602 1366.94 199.051 1366.94 Q197.292 1366.94 195.487 1366.59 Q193.681 1366.25 191.737 1365.55 M201.042 1350.9 Q204.19 1350.9 206.019 1348.75 Q207.871 1346.59 207.871 1342.84 Q207.871 1339.12 206.019 1336.96 Q204.19 1334.79 201.042 1334.79 Q197.894 1334.79 196.042 1336.96 Q194.213 1339.12 194.213 1342.84 Q194.213 1346.59 196.042 1348.75 Q197.894 1350.9 201.042 1350.9 Z" fill="#000000" fill-rule="nonzero" fill-opacity="1" /><path clip-path="url(#clip500)" d="M221.806 1331.71 L240.162 1331.71 L240.162 1335.64 L226.088 1335.64 L226.088 1344.12 Q227.107 1343.77 228.125 1343.61 Q229.144 1343.42 230.162 1343.42 Q235.949 1343.42 239.329 1346.59 Q242.709 1349.76 242.709 1355.18 Q242.709 1360.76 239.236 1363.86 Q235.764 1366.94 229.445 1366.94 Q227.269 1366.94 225 1366.57 Q222.755 1366.2 220.348 1365.46 L220.348 1360.76 Q222.431 1361.89 224.653 1362.45 Q226.875 1363.01 229.352 1363.01 Q233.357 1363.01 235.695 1360.9 Q238.033 1358.79 238.033 1355.18 Q238.033 1351.57 235.695 1349.46 Q233.357 1347.36 229.352 1347.36 Q227.477 1347.36 225.602 1347.77 Q223.75 1348.19 221.806 1349.07 L221.806 1331.71 Z" fill="#000000" fill-rule="nonzero" fill-opacity="1" /><path clip-path="url(#clip500)" d="M116.019 957.306 L123.658 957.306 L123.658 930.941 L115.348 932.607 L115.348 928.348 L123.612 926.681 L128.288 926.681 L128.288 957.306 L135.927 957.306 L135.927 961.241 L116.019 961.241 L116.019 957.306 Z" fill="#000000" fill-rule="nonzero" fill-opacity="1" /><path clip-path="url(#clip500)" d="M145.371 955.362 L150.255 955.362 L150.255 961.241 L145.371 961.241 L145.371 955.362 Z" fill="#000000" fill-rule="nonzero" fill-opacity="1" /><path clip-path="url(#clip500)" d="M170.44 929.76 Q166.829 929.76 165.001 933.325 Q163.195 936.867 163.195 943.996 Q163.195 951.103 165.001 954.667 Q166.829 958.209 170.44 958.209 Q174.075 958.209 175.88 954.667 Q177.709 951.103 177.709 943.996 Q177.709 936.867 175.88 933.325 Q174.075 929.76 170.44 929.76 M170.44 926.056 Q176.251 926.056 179.306 930.663 Q182.385 935.246 182.385 943.996 Q182.385 952.723 179.306 957.329 Q176.251 961.913 170.44 961.913 Q164.63 961.913 161.552 957.329 Q158.496 952.723 158.496 943.996 Q158.496 935.246 161.552 930.663 Q164.63 926.056 170.44 926.056 Z" fill="#000000" fill-rule="nonzero" fill-opacity="1" /><path clip-path="url(#clip500)" d="M200.602 929.76 Q196.991 929.76 195.163 933.325 Q193.357 936.867 193.357 943.996 Q193.357 951.103 195.163 954.667 Q196.991 958.209 200.602 958.209 Q204.237 958.209 206.042 954.667 Q207.871 951.103 207.871 943.996 Q207.871 936.867 206.042 933.325 Q204.237 929.76 200.602 929.76 M200.602 926.056 Q206.412 926.056 209.468 930.663 Q212.547 935.246 212.547 943.996 Q212.547 952.723 209.468 957.329 Q206.412 961.913 200.602 961.913 Q194.792 961.913 191.713 957.329 Q188.658 952.723 188.658 943.996 Q188.658 935.246 191.713 930.663 Q194.792 926.056 200.602 926.056 Z" fill="#000000" fill-rule="nonzero" fill-opacity="1" /><path clip-path="url(#clip500)" d="M230.764 929.76 Q227.153 929.76 225.324 933.325 Q223.519 936.867 223.519 943.996 Q223.519 951.103 225.324 954.667 Q227.153 958.209 230.764 958.209 Q234.398 958.209 236.204 954.667 Q238.033 951.103 238.033 943.996 Q238.033 936.867 236.204 933.325 Q234.398 929.76 230.764 929.76 M230.764 926.056 Q236.574 926.056 239.63 930.663 Q242.709 935.246 242.709 943.996 Q242.709 952.723 239.63 957.329 Q236.574 961.913 230.764 961.913 Q224.954 961.913 221.875 957.329 Q218.82 952.723 218.82 943.996 Q218.82 935.246 221.875 930.663 Q224.954 926.056 230.764 926.056 Z" fill="#000000" fill-rule="nonzero" fill-opacity="1" /><path clip-path="url(#clip500)" d="M117.015 552.279 L124.654 552.279 L124.654 525.913 L116.343 527.58 L116.343 523.32 L124.607 521.654 L129.283 521.654 L129.283 552.279 L136.922 552.279 L136.922 556.214 L117.015 556.214 L117.015 552.279 Z" fill="#000000" fill-rule="nonzero" fill-opacity="1" /><path clip-path="url(#clip500)" d="M146.366 550.334 L151.251 550.334 L151.251 556.214 L146.366 556.214 L146.366 550.334 Z" fill="#000000" fill-rule="nonzero" fill-opacity="1" /><path clip-path="url(#clip500)" d="M171.436 524.733 Q167.825 524.733 165.996 528.297 Q164.19 531.839 164.19 538.969 Q164.19 546.075 165.996 549.64 Q167.825 553.181 171.436 553.181 Q175.07 553.181 176.876 549.64 Q178.704 546.075 178.704 538.969 Q178.704 531.839 176.876 528.297 Q175.07 524.733 171.436 524.733 M171.436 521.029 Q177.246 521.029 180.301 525.635 Q183.38 530.219 183.38 538.969 Q183.38 547.695 180.301 552.302 Q177.246 556.885 171.436 556.885 Q165.626 556.885 162.547 552.302 Q159.491 547.695 159.491 538.969 Q159.491 530.219 162.547 525.635 Q165.626 521.029 171.436 521.029 Z" fill="#000000" fill-rule="nonzero" fill-opacity="1" /><path clip-path="url(#clip500)" d="M201.598 524.733 Q197.987 524.733 196.158 528.297 Q194.352 531.839 194.352 538.969 Q194.352 546.075 196.158 549.64 Q197.987 553.181 201.598 553.181 Q205.232 553.181 207.037 549.64 Q208.866 546.075 208.866 538.969 Q208.866 531.839 207.037 528.297 Q205.232 524.733 201.598 524.733 M201.598 521.029 Q207.408 521.029 210.463 525.635 Q213.542 530.219 213.542 538.969 Q213.542 547.695 210.463 552.302 Q207.408 556.885 201.598 556.885 Q195.787 556.885 192.709 552.302 Q189.653 547.695 189.653 538.969 Q189.653 530.219 192.709 525.635 Q195.787 521.029 201.598 521.029 Z" fill="#000000" fill-rule="nonzero" fill-opacity="1" /><path clip-path="url(#clip500)" d="M221.806 521.654 L240.162 521.654 L240.162 525.589 L226.088 525.589 L226.088 534.061 Q227.107 533.714 228.125 533.552 Q229.144 533.367 230.162 533.367 Q235.949 533.367 239.329 536.538 Q242.709 539.709 242.709 545.126 Q242.709 550.705 239.236 553.806 Q235.764 556.885 229.445 556.885 Q227.269 556.885 225 556.515 Q222.755 556.144 220.348 555.404 L220.348 550.705 Q222.431 551.839 224.653 552.394 Q226.875 552.95 229.352 552.95 Q233.357 552.95 235.695 550.843 Q238.033 548.737 238.033 545.126 Q238.033 541.515 235.695 539.408 Q233.357 537.302 229.352 537.302 Q227.477 537.302 225.602 537.719 Q223.75 538.135 221.806 539.015 L221.806 521.654 Z" fill="#000000" fill-rule="nonzero" fill-opacity="1" /><path clip-path="url(#clip500)" d="M116.019 147.251 L123.658 147.251 L123.658 120.886 L115.348 122.552 L115.348 118.293 L123.612 116.626 L128.288 116.626 L128.288 147.251 L135.927 147.251 L135.927 151.186 L116.019 151.186 L116.019 147.251 Z" fill="#000000" fill-rule="nonzero" fill-opacity="1" /><path clip-path="url(#clip500)" d="M145.371 145.307 L150.255 145.307 L150.255 151.186 L145.371 151.186 L145.371 145.307 Z" fill="#000000" fill-rule="nonzero" fill-opacity="1" /><path clip-path="url(#clip500)" d="M170.44 119.705 Q166.829 119.705 165.001 123.27 Q163.195 126.811 163.195 133.941 Q163.195 141.047 165.001 144.612 Q166.829 148.154 170.44 148.154 Q174.075 148.154 175.88 144.612 Q177.709 141.047 177.709 133.941 Q177.709 126.811 175.88 123.27 Q174.075 119.705 170.44 119.705 M170.44 116.001 Q176.251 116.001 179.306 120.608 Q182.385 125.191 182.385 133.941 Q182.385 142.668 179.306 147.274 Q176.251 151.858 170.44 151.858 Q164.63 151.858 161.552 147.274 Q158.496 142.668 158.496 133.941 Q158.496 125.191 161.552 120.608 Q164.63 116.001 170.44 116.001 Z" fill="#000000" fill-rule="nonzero" fill-opacity="1" /><path clip-path="url(#clip500)" d="M191.413 147.251 L199.051 147.251 L199.051 120.886 L190.741 122.552 L190.741 118.293 L199.005 116.626 L203.681 116.626 L203.681 147.251 L211.32 147.251 L211.32 151.186 L191.413 151.186 L191.413 147.251 Z" fill="#000000" fill-rule="nonzero" fill-opacity="1" /><path clip-path="url(#clip500)" d="M230.764 119.705 Q227.153 119.705 225.324 123.27 Q223.519 126.811 223.519 133.941 Q223.519 141.047 225.324 144.612 Q227.153 148.154 230.764 148.154 Q234.398 148.154 236.204 144.612 Q238.033 141.047 238.033 133.941 Q238.033 126.811 236.204 123.27 Q234.398 119.705 230.764 119.705 M230.764 116.001 Q236.574 116.001 239.63 120.608 Q242.709 125.191 242.709 133.941 Q242.709 142.668 239.63 147.274 Q236.574 151.858 230.764 151.858 Q224.954 151.858 221.875 147.274 Q218.82 142.668 218.82 133.941 Q218.82 125.191 221.875 120.608 Q224.954 116.001 230.764 116.001 Z" fill="#000000" fill-rule="nonzero" fill-opacity="1" /><path clip-path="url(#clip500)" d="M57.2247 896.821 L44.4614 896.821 L44.4614 907.325 L39.1779 907.325 L39.1779 890.456 L59.58 890.456 Q62.2218 894.18 63.5904 898.667 Q64.9272 903.155 64.9272 908.248 Q64.9272 919.388 58.4342 925.69 Q51.9093 931.96 40.2919 931.96 Q28.6427 931.96 22.1496 925.69 Q15.6248 919.388 15.6248 908.248 Q15.6248 903.601 16.7706 899.431 Q17.9164 895.23 20.1444 891.697 L26.9876 891.697 Q23.9639 895.262 22.4361 899.272 Q20.9083 903.283 20.9083 907.707 Q20.9083 916.428 25.7781 920.82 Q30.6479 925.181 40.2919 925.181 Q49.9041 925.181 54.7739 920.82 Q59.6436 916.428 59.6436 907.707 Q59.6436 904.301 59.0707 901.627 Q58.466 898.954 57.2247 896.821 Z" fill="#000000" fill-rule="nonzero" fill-opacity="1" /><path clip-path="url(#clip500)" d="M21.7677 872.282 L58.7206 872.282 L58.7206 864.515 Q58.7206 854.68 54.2646 850.129 Q49.8086 845.546 40.1964 845.546 Q30.6479 845.546 26.2237 850.129 Q21.7677 854.68 21.7677 864.515 L21.7677 872.282 M16.4842 878.711 L16.4842 865.502 Q16.4842 851.688 22.2451 845.227 Q27.9743 838.766 40.1964 838.766 Q52.4822 838.766 58.2432 845.259 Q64.0042 851.752 64.0042 865.502 L64.0042 878.711 L16.4842 878.711 Z" fill="#000000" fill-rule="nonzero" fill-opacity="1" /><path clip-path="url(#clip500)" d="M21.7677 822.088 L39.6235 822.088 L39.6235 814.004 Q39.6235 809.516 37.3 807.065 Q34.9765 804.614 30.6797 804.614 Q26.4147 804.614 24.0912 807.065 Q21.7677 809.516 21.7677 814.004 L21.7677 822.088 M16.4842 828.517 L16.4842 814.004 Q16.4842 806.015 20.1126 801.94 Q23.7092 797.835 30.6797 797.835 Q37.7138 797.835 41.3104 801.94 Q44.907 806.015 44.907 814.004 L44.907 822.088 L64.0042 822.088 L64.0042 828.517 L16.4842 828.517 Z" fill="#000000" fill-rule="nonzero" fill-opacity="1" /><path clip-path="url(#clip500)" d="M29.7248 743.09 L35.1993 743.09 Q33.8307 745.572 33.1623 748.087 Q32.4621 750.569 32.4621 753.116 Q32.4621 758.813 36.0905 761.964 Q39.6872 765.115 46.212 765.115 Q52.7369 765.115 56.3653 761.964 Q59.9619 758.813 59.9619 753.116 Q59.9619 750.569 59.2935 748.087 Q58.5933 745.572 57.2247 743.09 L62.6355 743.09 Q63.7814 745.54 64.3543 748.182 Q64.9272 750.792 64.9272 753.752 Q64.9272 761.805 59.8664 766.547 Q54.8057 771.29 46.212 771.29 Q37.491 771.29 32.4939 766.515 Q27.4968 761.709 27.4968 753.37 Q27.4968 750.665 28.0697 748.087 Q28.6108 745.508 29.7248 743.09 Z" fill="#000000" fill-rule="nonzero" fill-opacity="1" /><path clip-path="url(#clip500)" d="M42.4881 703.272 L64.0042 703.272 L64.0042 709.128 L42.679 709.128 Q37.6183 709.128 35.1038 711.102 Q32.5894 713.075 32.5894 717.022 Q32.5894 721.764 35.6131 724.502 Q38.6368 727.239 43.8567 727.239 L64.0042 727.239 L64.0042 733.127 L14.479 733.127 L14.479 727.239 L33.8944 727.239 Q30.6797 725.138 29.0883 722.305 Q27.4968 719.441 27.4968 715.717 Q27.4968 709.574 31.3163 706.423 Q35.1038 703.272 42.4881 703.272 Z" fill="#000000" fill-rule="nonzero" fill-opacity="1" /><path clip-path="url(#clip500)" d="M46.0847 675.39 Q46.0847 682.488 47.7079 685.225 Q49.3312 687.963 53.2461 687.963 Q56.3653 687.963 58.2114 685.925 Q60.0256 683.857 60.0256 680.324 Q60.0256 675.454 56.5881 672.526 Q53.1188 669.566 47.3897 669.566 L46.0847 669.566 L46.0847 675.39 M43.6657 663.709 L64.0042 663.709 L64.0042 669.566 L58.5933 669.566 Q61.8398 671.571 63.3994 674.563 Q64.9272 677.555 64.9272 681.883 Q64.9272 687.358 61.8716 690.604 Q58.7843 693.819 53.6281 693.819 Q47.6125 693.819 44.5569 689.809 Q41.5014 685.766 41.5014 677.777 L41.5014 669.566 L40.9285 669.566 Q36.8862 669.566 34.6901 672.239 Q32.4621 674.881 32.4621 679.687 Q32.4621 682.743 33.1941 685.639 Q33.9262 688.535 35.3903 691.209 L29.9795 691.209 Q28.7381 687.994 28.1334 684.971 Q27.4968 681.947 27.4968 679.082 Q27.4968 671.348 31.5072 667.529 Q35.5176 663.709 43.6657 663.709 Z" fill="#000000" fill-rule="nonzero" fill-opacity="1" /><path clip-path="url(#clip500)" d="M42.4881 622.014 L64.0042 622.014 L64.0042 627.87 L42.679 627.87 Q37.6183 627.87 35.1038 629.844 Q32.5894 631.817 32.5894 635.764 Q32.5894 640.506 35.6131 643.243 Q38.6368 645.981 43.8567 645.981 L64.0042 645.981 L64.0042 651.869 L28.3562 651.869 L28.3562 645.981 L33.8944 645.981 Q30.6797 643.88 29.0883 641.047 Q27.4968 638.183 27.4968 634.459 Q27.4968 628.316 31.3163 625.165 Q35.1038 622.014 42.4881 622.014 Z" fill="#000000" fill-rule="nonzero" fill-opacity="1" /><path clip-path="url(#clip500)" d="M45.7664 586.875 Q39.4007 586.875 35.8996 589.517 Q32.3984 592.127 32.3984 596.869 Q32.3984 601.58 35.8996 604.222 Q39.4007 606.832 45.7664 606.832 Q52.1003 606.832 55.6014 604.222 Q59.1026 601.58 59.1026 596.869 Q59.1026 592.127 55.6014 589.517 Q52.1003 586.875 45.7664 586.875 M59.58 581.019 Q68.683 581.019 73.1071 585.061 Q77.5631 589.103 77.5631 597.442 Q77.5631 600.53 77.0857 603.267 Q76.6401 606.004 75.6852 608.582 L69.9879 608.582 Q71.3884 606.004 72.0568 603.49 Q72.7252 600.975 72.7252 598.365 Q72.7252 592.604 69.7015 589.74 Q66.7096 586.875 60.6303 586.875 L57.7339 586.875 Q60.885 588.689 62.4446 591.522 Q64.0042 594.355 64.0042 598.302 Q64.0042 604.858 59.0071 608.869 Q54.01 612.879 45.7664 612.879 Q37.491 612.879 32.4939 608.869 Q27.4968 604.858 27.4968 598.302 Q27.4968 594.355 29.0564 591.522 Q30.616 588.689 33.7671 586.875 L28.3562 586.875 L28.3562 581.019 L59.58 581.019 Z" fill="#000000" fill-rule="nonzero" fill-opacity="1" /><path clip-path="url(#clip500)" d="M44.7161 538.464 L47.5806 538.464 L47.5806 565.391 Q53.6281 565.009 56.8109 561.762 Q59.9619 558.484 59.9619 552.659 Q59.9619 549.286 59.1344 546.135 Q58.3069 542.952 56.6518 539.833 L62.1899 539.833 Q63.5267 542.984 64.227 546.294 Q64.9272 549.604 64.9272 553.01 Q64.9272 561.54 59.9619 566.537 Q54.9967 571.502 46.5303 571.502 Q37.7774 571.502 32.6531 566.791 Q27.4968 562.049 27.4968 554.028 Q27.4968 546.835 32.1438 542.665 Q36.7589 538.464 44.7161 538.464 M42.9973 544.32 Q38.1912 544.384 35.3266 547.026 Q32.4621 549.636 32.4621 553.964 Q32.4621 558.866 35.2312 561.826 Q38.0002 564.754 43.0292 565.2 L42.9973 544.32 Z" fill="#000000" fill-rule="nonzero" fill-opacity="1" /><path clip-path="url(#clip502)" d="M337.408 943.961 L459.699 1031.4 L581.989 505.084 L704.28 459.327 L826.57 379.398 L948.861 896.303 L1071.15 1012.71 L1193.44 1245.83 L1315.73 1287.44 L1438.02 1368.51 L1560.31 1384.24 L1682.6 1316.8 L1804.89 1342.9 L1927.18 1227.59 L2049.48 1251.24 L2171.77 1218.93 L2294.06 1215.09 L2294.06 585.847 L2171.77 608.946 L2049.48 629.994 L1927.18 650.404 L1804.89 761.171 L1682.6 773.25 L1560.31 882.583 L1438.02 921.338 L1315.73 830.94 L1193.44 834.755 L1071.15 632.662 L948.861 558.922 L826.57 86.1857 L704.28 179.179 L581.989 266.049 L459.699 826.053 L337.408 943.961  Z" fill="#009af9" fill-rule="evenodd" fill-opacity="0.2"/>
<polyline clip-path="url(#clip502)" style="stroke:#009af9; stroke-linecap:round; stroke-linejoin:round; stroke-width:4; stroke-opacity:1; fill:none" points="337.408,943.961 459.699,928.726 581.989,385.567 704.28,319.253 826.57,232.792 948.861,727.613 1071.15,822.685 1193.44,1040.29 1315.73,1059.19 1438.02,1144.93 1560.31,1133.41 1682.6,1045.02 1804.89,1052.04 1927.18,938.999 2049.48,940.618 2171.77,913.936 2294.06,900.469 "/>
</svg>
